<?xml version='1.0' encoding='ascii'?>
<svg xmlns="http://www.w3.org/2000/svg" version="1.1" width="250" height="250">
    <g id="ViewLayer_LineSet" xmlns:inkscape="http://www.inkscape.org/namespaces/inkscape" inkscape:groupmode="lineset" inkscape:label="ViewLayer_LineSet">
        <g xmlns:inkscape="http://www.inkscape.org/namespaces/inkscape" inkscape:groupmode="layer" id="strokes" inkscape:label="strokes">
            <path fill="none" stroke-width="3.0" stroke-linecap="butt" stroke-opacity="1.0" stroke="rgb(0, 0, 0)" stroke-linejoin="round" d=" M 251.583, 48.722 243.023, 53.892 238.397, 56.687 238.392, 66.687 238.388, 76.687 238.384, 86.687 238.380, 96.687 238.376, 106.687 238.372, 116.687 238.367, 126.687 238.363, 136.687 238.359, 146.687 238.355, 156.687 238.351, 166.686 238.346, 176.687 238.342, 186.662 247.094, 191.501 255.407, 196.098 " />
            <path fill="none" stroke-width="3.0" stroke-linecap="butt" stroke-opacity="1.0" stroke="rgb(0, 0, 0)" stroke-linejoin="round" d=" M -1.661, 195.206 7.089, 190.365 13.997, 186.543 13.993, 176.543 13.989, 166.543 13.985, 156.543 13.981, 146.543 13.977, 136.543 13.973, 126.543 13.969, 116.543 13.965, 106.543 13.961, 96.543 13.957, 86.543 13.953, 76.543 13.949, 66.543 13.945, 56.816 5.386, 51.644 2.025, 49.612 -6.533, 44.440 -15.092, 39.268 -23.650, 34.095 -32.209, 28.923 -40.767, 23.750 -49.325, 18.578 -52.933, 16.398 " />
            <path fill="none" stroke-width="3.0" stroke-linecap="butt" stroke-opacity="1.0" stroke="rgb(0, 0, 0)" stroke-linejoin="round" d=" M 138.178, 211.517 128.199, 212.164 126.877, 212.249 116.899, 211.588 115.578, 211.500 105.771, 209.543 104.474, 209.284 95.007, 206.064 93.756, 205.638 84.789, 201.211 83.605, 200.626 75.293, 195.067 74.195, 194.333 66.679, 187.737 65.687, 186.866 59.096, 179.346 58.226, 178.354 52.672, 170.039 51.939, 168.942 50.625, 166.277 49.030, 163.042 48.419, 161.803 46.934, 158.791 43.719, 149.321 43.295, 148.073 41.342, 138.265 41.085, 136.972 40.428, 126.994 40.342, 125.677 40.992, 115.699 41.078, 114.382 43.024, 104.573 43.281, 103.278 46.491, 93.807 46.915, 92.556 48.399, 89.542 50.868, 84.529 51.134, 83.989 51.205, 83.844 51.864, 82.505 51.916, 82.399 53.169, 80.522 58.201, 72.980 64.789, 65.457 65.661, 64.461 73.174, 57.862 74.170, 56.988 82.480, 51.426 83.582, 50.688 92.547, 46.258 93.737, 45.670 103.204, 42.449 104.462, 42.020 114.268, 40.062 115.572, 39.802 125.550, 39.140 126.878, 39.052 136.857, 39.699 138.186, 39.785 147.996, 41.730 149.303, 41.989 158.774, 45.198 160.038, 45.626 169.009, 50.044 170.206, 50.634 178.523, 56.186 179.634, 56.927 187.154, 63.518 188.159, 64.399 194.754, 71.915 195.636, 72.920 200.204, 79.755 201.936, 82.345 201.988, 82.451 203.806, 86.137 206.950, 92.513 210.164, 101.982 210.593, 103.248 212.543, 113.056 212.803, 114.367 213.454, 124.346 213.541, 125.679 212.884, 135.657 212.796, 136.990 210.840, 146.797 210.579, 148.107 207.360, 157.574 206.930, 158.837 204.623, 163.509 202.874, 167.049 201.911, 168.999 196.350, 177.310 195.608, 178.417 189.009, 185.931 188.131, 186.931 180.607, 193.519 179.606, 194.396 171.287, 199.945 170.181, 200.682 161.209, 205.098 160.017, 205.684 150.545, 208.891 149.288, 209.317 139.479, 211.260 138.178, 211.517 " />
            <path fill="none" stroke-width="3.0" stroke-linecap="butt" stroke-opacity="1.0" stroke="rgb(0, 0, 0)" stroke-linejoin="round" d=" M 200.204, 252.669 208.526, 247.124 216.162, 242.037 223.689, 235.453 230.598, 229.411 237.200, 221.900 243.263, 215.005 248.828, 206.696 253.940, 199.066 " />
            <path fill="none" stroke-width="3.0" stroke-linecap="butt" stroke-opacity="1.0" stroke="rgb(0, 0, 0)" stroke-linejoin="round" d=" M 251.583, 48.722 246.025, 40.408 243.341, 36.393 236.744, 28.877 230.678, 21.966 223.156, 15.377 216.240, 9.319 207.921, 3.770 200.274, -1.332 " />
            <path fill="none" stroke-width="3.0" stroke-linecap="butt" stroke-opacity="1.0" stroke="rgb(0, 0, 0)" stroke-linejoin="round" d=" M 53.648, -1.175 45.341, 4.392 37.726, 9.494 30.216, 16.098 23.335, 22.148 16.751, 29.674 10.720, 36.567 5.174, 44.888 2.025, 49.612 " />
            <path fill="none" stroke-width="3.0" stroke-linecap="butt" stroke-opacity="1.0" stroke="rgb(0, 0, 0)" stroke-linejoin="round" d=" M -1.661, 195.206 0.162, 198.904 5.716, 207.220 10.795, 214.825 17.385, 222.346 23.412, 229.225 30.927, 235.823 37.801, 241.858 46.111, 247.420 53.714, 252.508 " />
            <path fill="none" stroke-width="3.0" stroke-linecap="butt" stroke-opacity="1.0" stroke="rgb(0, 0, 0)" stroke-linejoin="round" d=" M 60.596, 160.760 61.522, 162.637 66.971, 170.795 73.437, 178.172 80.811, 184.642 88.967, 190.096 97.765, 194.440 107.054, 197.599 116.678, 199.518 126.470, 200.166 136.264, 199.531 145.892, 197.623 155.189, 194.474 163.997, 190.138 172.164, 184.689 179.551, 178.220 186.030, 170.842 191.491, 162.680 192.237, 161.167 " />
            <path fill="none" stroke-width="3.0" stroke-linecap="butt" stroke-opacity="1.0" stroke="rgb(0, 0, 0)" stroke-linejoin="round" d=" M 132.347, 169.778 126.470, 170.161 120.594, 169.773 114.819, 168.623 109.243, 166.728 103.963, 164.122 99.068, 160.850 94.642, 156.967 90.761, 152.540 87.490, 147.645 86.807, 146.258 86.002, 144.626 85.558, 143.725 84.886, 142.364 84.764, 142.005 83.944, 139.587 82.994, 136.789 81.845, 131.015 81.459, 125.140 81.843, 119.264 82.990, 113.489 83.939, 110.691 84.759, 108.273 84.881, 107.913 85.552, 106.552 87.484, 102.631 87.484, 102.631 88.136, 101.655 90.754, 97.734 94.635, 93.305 99.062, 89.420 103.957, 86.146 109.239, 83.539 114.816, 81.643 120.592, 80.492 126.471, 80.104 132.349, 80.487 138.128, 81.635 143.707, 83.527 148.992, 86.131 153.892, 89.404 158.323, 93.288 162.209, 97.717 164.583, 101.270 165.483, 102.617 165.483, 102.617 166.556, 104.794 167.353, 106.410 168.089, 107.901 168.175, 108.155 169.983, 113.481 171.132, 119.260 171.516, 125.140 171.130, 131.020 169.979, 136.798 168.170, 142.123 168.083, 142.377 167.347, 143.868 166.885, 144.806 165.976, 146.646 165.476, 147.660 162.201, 152.557 158.315, 156.985 153.885, 160.867 148.986, 164.138 143.702, 166.741 138.124, 168.631 132.347, 169.778 " />
            <path fill="none" stroke-width="3.0" stroke-linecap="butt" stroke-opacity="1.0" stroke="rgb(0, 0, 0)" stroke-linejoin="round" d=" M 190.279, 85.750 186.050, 79.423 179.572, 72.039 172.185, 65.565 164.016, 60.111 155.205, 55.771 145.903, 52.619 136.270, 50.708 126.471, 50.072 116.673, 50.721 107.045, 52.642 97.751, 55.804 88.950, 60.152 80.792, 65.611 73.417, 72.087 66.951, 79.469 62.489, 86.155 " />
            <path fill="none" stroke-width="3.0" stroke-linecap="butt" stroke-opacity="1.0" stroke="rgb(0, 0, 0)" stroke-linejoin="round" d=" M 200.204, 79.755 195.736, 82.453 195.736, 83.794 195.735, 86.820 195.733, 96.155 195.730, 106.155 195.728, 116.155 195.725, 126.155 195.722, 136.155 195.720, 146.155 195.718, 154.120 195.716, 159.095 195.716, 161.864 195.715, 163.091 202.874, 167.049 " />
            <path fill="none" stroke-width="3.0" stroke-linecap="butt" stroke-opacity="1.0" stroke="rgb(0, 0, 0)" stroke-linejoin="round" d=" M 50.625, 166.277 56.467, 163.045 56.467, 161.819 56.466, 159.052 56.464, 151.721 56.462, 141.721 56.459, 131.721 56.457, 121.721 56.454, 111.721 56.452, 101.721 56.451, 98.552 56.448, 88.552 56.448, 86.867 56.447, 83.843 56.447, 82.503 53.169, 80.522 " />
            <path fill="none" stroke-width="3.0" stroke-linecap="butt" stroke-opacity="1.0" stroke="rgb(0, 0, 0)" stroke-linejoin="round" d=" M 56.467, 161.819 58.680, 161.820 60.596, 160.760 69.346, 155.919 71.030, 154.987 71.028, 144.987 71.026, 134.987 71.024, 124.987 71.022, 114.987 71.020, 104.987 71.018, 94.987 71.017, 91.309 62.489, 86.155 58.661, 83.842 56.447, 83.843 " />
            <path fill="none" stroke-width="3.0" stroke-linecap="butt" stroke-opacity="1.0" stroke="rgb(0, 0, 0)" stroke-linejoin="round" d=" M 58.680, 161.820 58.679, 156.873 58.677, 146.873 58.674, 136.873 58.672, 126.873 58.669, 116.873 58.667, 106.873 58.665, 96.873 58.664, 93.399 58.661, 83.842 " />
            <path fill="none" stroke-width="3.0" stroke-linecap="butt" stroke-opacity="1.0" stroke="rgb(0, 0, 0)" stroke-linejoin="round" d=" M 195.736, 83.794 193.515, 83.795 190.279, 85.750 181.719, 90.920 181.126, 91.278 181.124, 101.278 181.122, 111.278 181.120, 121.278 181.118, 131.278 181.116, 141.278 181.114, 151.278 181.113, 155.016 189.864, 159.855 192.237, 161.167 193.496, 161.863 195.716, 161.864 " />
            <path fill="none" stroke-width="3.0" stroke-linecap="butt" stroke-opacity="1.0" stroke="rgb(0, 0, 0)" stroke-linejoin="round" d=" M 193.496, 161.863 193.496, 158.618 193.499, 148.618 193.501, 138.618 193.504, 128.618 193.507, 118.618 193.509, 108.618 193.512, 98.618 193.513, 91.655 193.515, 83.795 " />
            <path fill="none" stroke-width="3.0" stroke-linecap="butt" stroke-opacity="1.0" stroke="rgb(0, 0, 0)" stroke-linejoin="round" d=" M 130.279, 154.973 126.326, 155.231 122.373, 154.971 118.488, 154.198 114.738, 152.924 111.186, 151.171 107.893, 148.970 104.916, 146.359 102.305, 143.381 100.105, 140.088 99.450, 138.760 99.045, 137.938 98.902, 137.650 98.353, 136.536 97.386, 133.687 97.080, 132.785 96.307, 128.901 96.204, 127.329 96.048, 124.949 96.203, 122.569 96.306, 120.997 97.078, 117.112 97.384, 116.210 98.351, 113.361 98.900, 112.247 99.642, 110.741 99.877, 110.264 100.102, 109.809 100.355, 109.429 100.540, 109.152 102.302, 106.515 104.913, 103.536 107.890, 100.923 111.183, 98.721 114.736, 96.968 118.487, 95.694 122.373, 94.920 126.326, 94.660 130.280, 94.918 134.166, 95.690 137.918, 96.963 141.472, 98.715 144.768, 100.916 147.747, 103.528 150.360, 106.507 152.048, 109.033 152.562, 109.802 152.714, 110.111 153.187, 111.071 154.315, 113.356 154.704, 114.503 155.588, 117.108 155.889, 118.619 156.315, 120.765 156.329, 120.835 156.361, 120.995 156.620, 124.949 156.360, 128.903 156.328, 129.063 156.314, 129.133 155.887, 131.279 155.586, 132.789 154.701, 135.395 154.312, 136.541 153.506, 138.175 153.214, 138.767 153.185, 138.826 152.559, 140.095 150.357, 143.389 147.743, 146.367 144.764, 148.978 141.469, 151.178 137.916, 152.929 134.164, 154.202 130.279, 154.973 " />
            <path fill="none" stroke-width="3.0" stroke-linecap="butt" stroke-opacity="1.0" stroke="rgb(0, 0, 0)" stroke-linejoin="round" d=" M 164.583, 101.270 162.353, 102.617 162.352, 104.209 162.352, 104.893 162.351, 112.825 162.350, 122.825 162.349, 132.825 162.348, 136.881 162.347, 142.557 162.347, 143.182 162.347, 144.639 165.976, 146.646 " />
            <path fill="none" stroke-width="3.0" stroke-linecap="butt" stroke-opacity="1.0" stroke="rgb(0, 0, 0)" stroke-linejoin="round" d=" M 86.807, 146.258 89.756, 144.627 89.755, 143.171 89.755, 142.544 89.754, 135.617 89.753, 125.617 89.752, 115.617 89.752, 114.087 89.750, 104.906 89.750, 104.222 89.750, 102.631 88.136, 101.655 " />
            <path fill="none" stroke-width="3.0" stroke-linecap="butt" stroke-opacity="1.0" stroke="rgb(0, 0, 0)" stroke-linejoin="round" d=" M 129.238, 147.526 126.253, 147.721 123.268, 147.525 120.335, 146.941 117.502, 145.979 114.820, 144.656 112.333, 142.994 110.085, 141.021 108.113, 138.772 106.451, 136.286 106.104, 135.581 105.957, 135.283 105.909, 135.185 105.651, 134.662 105.304, 133.958 105.128, 133.603 104.595, 132.033 104.399, 131.455 104.334, 131.263 104.167, 130.771 103.583, 127.837 103.387, 124.853 103.583, 121.868 104.166, 118.935 104.333, 118.442 104.398, 118.251 104.594, 117.672 105.127, 116.102 105.302, 115.747 105.884, 114.566 106.338, 113.645 106.450, 113.419 106.642, 113.132 106.766, 112.946 108.111, 110.932 110.083, 108.683 112.332, 106.710 114.819, 105.047 117.501, 103.724 120.334, 102.762 123.268, 102.177 126.253, 101.981 129.239, 102.176 132.173, 102.759 135.007, 103.721 137.690, 105.044 140.178, 106.706 142.428, 108.678 144.401, 110.928 145.607, 112.732 145.676, 112.836 145.747, 112.942 146.064, 113.416 146.175, 113.641 146.192, 113.676 146.776, 114.860 147.387, 116.099 147.483, 116.383 147.680, 116.962 147.746, 117.158 148.349, 118.933 148.932, 121.867 149.128, 124.853 148.932, 127.839 148.348, 130.773 147.745, 132.548 147.679, 132.743 147.482, 133.322 147.386, 133.606 146.777, 134.840 146.774, 134.845 146.605, 135.189 146.557, 135.287 146.316, 135.775 146.062, 136.290 144.399, 138.777 142.426, 141.026 140.176, 142.998 137.689, 144.660 135.005, 145.982 132.172, 146.943 129.238, 147.526 " />
            <path fill="none" stroke-width="3.0" stroke-linecap="butt" stroke-opacity="1.0" stroke="rgb(0, 0, 0)" stroke-linejoin="round" d=" M 128.186, 139.994 126.180, 140.125 124.174, 139.993 122.202, 139.601 122.168, 139.589 120.298, 138.954 118.496, 138.065 116.824, 136.948 115.313, 135.622 113.988, 134.111 112.871, 132.440 112.562, 131.814 112.505, 131.697 112.412, 131.510 112.392, 131.469 112.333, 131.349 112.090, 130.857 112.008, 130.689 111.982, 130.637 111.866, 130.295 111.771, 130.014 111.394, 128.906 111.336, 128.733 111.059, 127.341 110.943, 126.762 110.939, 126.693 110.812, 124.756 110.939, 122.818 110.943, 122.750 111.059, 122.170 111.335, 120.778 111.394, 120.606 111.770, 119.497 111.865, 119.216 111.981, 118.875 112.007, 118.823 112.090, 118.655 112.504, 117.814 112.647, 117.524 112.754, 117.308 112.870, 117.072 112.912, 117.009 112.914, 117.006 112.944, 116.961 113.093, 116.738 113.987, 115.400 115.312, 113.888 116.824, 112.563 118.495, 111.445 120.298, 110.556 122.202, 109.910 124.174, 109.517 126.180, 109.385 128.186, 109.516 130.158, 109.909 132.062, 110.555 133.866, 111.444 135.538, 112.561 137.049, 113.886 138.375, 115.398 139.197, 116.627 139.419, 116.960 139.449, 117.005 139.492, 117.070 139.566, 117.218 139.570, 117.226 139.980, 118.058 140.062, 118.226 140.205, 118.515 140.300, 118.708 140.382, 118.873 140.676, 119.741 141.013, 120.732 141.028, 120.777 141.132, 121.299 141.420, 122.749 141.512, 124.155 141.550, 124.727 141.552, 124.756 141.512, 125.356 141.420, 126.762 141.131, 128.213 141.028, 128.734 141.012, 128.779 140.676, 129.771 140.381, 130.638 140.300, 130.803 140.204, 130.997 140.062, 131.286 139.979, 131.454 139.972, 131.467 139.970, 131.471 139.950, 131.512 139.800, 131.816 139.689, 132.042 139.662, 132.095 139.492, 132.441 138.374, 134.113 137.048, 135.625 135.537, 136.950 133.865, 138.067 132.061, 138.956 130.158, 139.602 128.186, 139.994 " />
            <path fill="none" stroke-width="3.0" stroke-linecap="butt" stroke-opacity="1.0" stroke="rgb(0, 0, 0)" stroke-linejoin="round" d=" M 128.611, 143.034 126.209, 143.191 123.808, 143.033 121.448, 142.563 119.170, 141.790 117.012, 140.725 115.011, 139.388 113.203, 137.802 111.616, 135.993 110.280, 133.992 110.000, 133.425 109.847, 133.116 109.719, 132.855 109.711, 132.840 109.636, 132.686 109.592, 132.598 109.326, 132.059 109.215, 131.834 108.769, 130.520 108.639, 130.135 108.442, 129.556 107.975, 127.208 107.973, 127.196 107.830, 125.027 107.815, 124.795 107.830, 124.563 107.972, 122.394 107.975, 122.382 108.441, 120.034 108.638, 119.454 108.769, 119.070 109.215, 117.756 109.325, 117.531 109.591, 116.992 109.718, 116.735 110.112, 115.935 110.279, 115.597 110.338, 115.509 110.539, 115.207 110.545, 115.199 111.615, 113.596 113.201, 111.787 115.010, 110.200 117.011, 108.863 119.169, 107.798 121.448, 107.024 123.808, 106.554 126.210, 106.397 128.611, 106.554 130.972, 107.023 133.251, 107.796 135.409, 108.860 137.411, 110.197 139.220, 111.784 140.807, 113.594 141.777, 115.045 141.884, 115.205 142.086, 115.506 142.145, 115.595 142.237, 115.782 142.355, 116.022 142.482, 116.279 142.747, 116.816 143.209, 117.754 143.304, 118.034 143.436, 118.421 143.983, 120.033 144.100, 120.623 144.244, 121.345 144.385, 122.056 144.452, 122.393 144.610, 124.795 144.452, 127.197 144.385, 127.534 144.243, 128.245 144.100, 128.967 143.982, 129.557 143.435, 131.168 143.303, 131.556 143.208, 131.836 142.746, 132.774 142.719, 132.829 142.712, 132.842 142.576, 133.118 142.481, 133.311 142.354, 133.568 142.348, 133.580 142.143, 133.995 140.806, 135.996 139.219, 137.805 137.409, 139.391 135.408, 140.728 133.250, 141.792 130.971, 142.565 128.611, 143.034 " />
            <path fill="none" stroke-width="3.0" stroke-linecap="butt" stroke-opacity="1.0" stroke="rgb(0, 0, 0)" stroke-linejoin="round" d=" M 127.882, 137.821 126.158, 137.934 124.435, 137.820 122.741, 137.483 121.105, 136.928 119.556, 136.164 118.120, 135.204 116.821, 134.065 115.682, 132.766 114.723, 131.330 114.522, 130.923 114.453, 130.783 114.437, 130.750 114.338, 130.550 114.327, 130.527 114.036, 129.937 113.990, 129.844 113.959, 129.781 113.541, 128.549 113.536, 128.536 113.474, 128.353 113.462, 128.318 113.404, 128.145 113.067, 126.451 112.985, 125.201 112.954, 124.728 112.985, 124.255 113.067, 123.004 113.403, 121.310 113.462, 121.138 113.474, 121.102 113.536, 120.919 113.540, 120.907 113.959, 119.674 113.989, 119.612 114.035, 119.518 114.338, 118.905 114.722, 118.125 114.776, 118.044 114.782, 118.035 114.836, 117.955 114.914, 117.839 115.682, 116.689 116.821, 115.390 118.119, 114.251 119.556, 113.291 121.105, 112.527 122.740, 111.971 124.435, 111.634 126.159, 111.521 127.883, 111.634 129.577, 111.971 131.213, 112.526 132.762, 113.290 134.199, 114.249 135.498, 115.389 136.637, 116.687 137.333, 117.729 137.350, 117.755 137.374, 117.791 137.537, 118.034 137.597, 118.124 137.730, 118.394 138.033, 119.007 138.078, 119.099 138.361, 119.673 138.528, 120.163 138.533, 120.178 138.594, 120.359 138.607, 120.397 138.917, 121.309 139.084, 122.150 139.157, 122.518 139.254, 123.004 139.366, 124.728 139.253, 126.452 139.157, 126.938 139.084, 127.305 138.916, 128.146 138.606, 129.059 138.594, 129.096 138.532, 129.277 138.527, 129.292 138.361, 129.782 138.077, 130.357 138.032, 130.448 137.993, 130.528 137.883, 130.751 137.867, 130.784 137.747, 131.027 137.596, 131.332 136.636, 132.768 135.497, 134.067 134.198, 135.205 132.762, 136.165 131.212, 136.929 129.577, 137.484 127.882, 137.821 " />
            <path fill="none" stroke-width="3.0" stroke-linecap="butt" stroke-opacity="1.0" stroke="rgb(0, 0, 0)" stroke-linejoin="round" d=" M 127.653, 136.178 126.142, 136.277 124.632, 136.177 123.148, 135.882 121.715, 135.395 120.358, 134.726 119.100, 133.885 117.962, 132.887 116.964, 131.749 116.123, 130.491 115.454, 129.134 115.239, 128.500 114.968, 127.701 114.836, 127.040 114.777, 126.741 114.672, 126.217 114.573, 124.707 114.672, 123.197 114.776, 122.672 114.836, 122.373 114.967, 121.712 115.239, 120.913 115.454, 120.279 116.123, 118.922 116.964, 117.663 117.961, 116.525 119.099, 115.528 120.357, 114.687 121.715, 114.017 123.148, 113.530 124.632, 113.235 126.143, 113.136 127.653, 113.235 129.137, 113.530 130.571, 114.016 131.928, 114.686 133.187, 115.526 134.325, 116.524 135.323, 117.662 136.164, 118.921 136.828, 120.268 136.833, 120.278 137.231, 121.451 137.291, 121.626 137.320, 121.712 137.615, 123.196 137.714, 124.707 137.615, 126.217 137.320, 127.702 137.291, 127.787 137.231, 127.963 136.833, 129.135 136.828, 129.145 136.163, 130.492 135.322, 131.751 134.324, 132.888 133.186, 133.886 131.928, 134.727 130.570, 135.396 129.137, 135.883 127.653, 136.178 " />
            <path fill="none" stroke-width="3.0" stroke-linecap="butt" stroke-opacity="1.0" stroke="rgb(0, 0, 0)" stroke-linejoin="round" d=" M 127.328, 133.856 126.120, 133.935 124.911, 133.856 123.724, 133.619 122.577, 133.230 121.491, 132.694 120.484, 132.022 119.573, 131.223 118.775, 130.313 118.102, 129.306 117.567, 128.220 117.177, 127.073 116.941, 125.885 116.862, 124.677 116.941, 123.468 117.177, 122.281 117.567, 121.134 118.102, 120.048 118.775, 119.041 119.573, 118.130 120.484, 117.331 121.491, 116.659 122.577, 116.123 123.724, 115.733 124.911, 115.497 126.120, 115.418 127.328, 115.497 128.516, 115.733 129.663, 116.122 130.750, 116.658 131.757, 117.331 132.667, 118.129 133.466, 119.040 134.139, 120.047 134.675, 121.133 135.064, 122.280 135.300, 123.468 135.379, 124.677 135.300, 125.885 135.064, 127.073 134.674, 128.220 134.139, 129.306 133.466, 130.313 132.667, 131.224 131.756, 132.022 130.749, 132.695 129.663, 133.231 128.516, 133.620 127.328, 133.856 " />
            <path fill="none" stroke-width="3.0" stroke-linecap="butt" stroke-opacity="1.0" stroke="rgb(0, 0, 0)" stroke-linejoin="round" d=" M 127.471, 134.879 126.130, 134.967 124.788, 134.879 123.470, 134.617 122.197, 134.184 120.991, 133.590 119.874, 132.843 118.863, 131.956 117.977, 130.946 117.230, 129.828 116.636, 128.623 116.204, 127.350 115.941, 126.031 115.853, 124.690 115.941, 123.349 116.203, 122.030 116.635, 120.757 117.230, 119.551 117.977, 118.434 118.863, 117.423 119.874, 116.536 120.991, 115.789 122.197, 115.195 123.470, 114.763 124.788, 114.500 126.130, 114.412 127.471, 114.500 128.790, 114.762 130.063, 115.194 131.269, 115.789 132.387, 116.536 133.398, 117.422 134.284, 118.433 135.031, 119.551 135.626, 120.757 136.058, 122.030 136.320, 123.348 136.408, 124.690 136.320, 126.032 136.058, 127.350 135.626, 128.623 135.031, 129.829 134.284, 130.947 133.397, 131.957 132.387, 132.844 131.269, 133.591 130.063, 134.185 128.790, 134.617 127.471, 134.879 " />
            <path fill="none" stroke-width="3.0" stroke-linecap="butt" stroke-opacity="1.0" stroke="rgb(0, 0, 0)" stroke-linejoin="round" d=" M 83.944, 139.587 83.942, 129.587 83.940, 119.587 83.939, 110.691 " />
            <path fill="none" stroke-width="3.0" stroke-linecap="butt" stroke-opacity="1.0" stroke="rgb(0, 0, 0)" stroke-linejoin="round" d=" M 84.764, 142.005 84.763, 132.005 84.761, 122.005 84.760, 112.005 84.759, 108.273 " />
            <path fill="none" stroke-width="3.0" stroke-linecap="butt" stroke-opacity="1.0" stroke="rgb(0, 0, 0)" stroke-linejoin="round" d=" M 96.204, 127.329 96.203, 122.569 " />
            <path fill="none" stroke-width="3.0" stroke-linecap="butt" stroke-opacity="1.0" stroke="rgb(0, 0, 0)" stroke-linejoin="round" d=" M 98.902, 137.650 98.901, 127.650 98.900, 117.650 98.900, 112.247 " />
            <path fill="none" stroke-width="3.0" stroke-linecap="butt" stroke-opacity="1.0" stroke="rgb(0, 0, 0)" stroke-linejoin="round" d=" M 104.334, 131.263 104.334, 127.499 104.333, 121.956 104.333, 118.442 " />
            <path fill="none" stroke-width="3.0" stroke-linecap="butt" stroke-opacity="1.0" stroke="rgb(0, 0, 0)" stroke-linejoin="round" d=" M 107.975, 127.208 107.975, 122.382 " />
            <path fill="none" stroke-width="3.0" stroke-linecap="butt" stroke-opacity="1.0" stroke="rgb(0, 0, 0)" stroke-linejoin="round" d=" M 141.512, 124.155 141.512, 125.299 141.512, 125.356 " />
            <path fill="none" stroke-width="3.0" stroke-linecap="butt" stroke-opacity="1.0" stroke="rgb(0, 0, 0)" stroke-linejoin="round" d=" M 144.100, 120.623 144.100, 128.967 " />
            <path fill="none" stroke-width="3.0" stroke-linecap="butt" stroke-opacity="1.0" stroke="rgb(0, 0, 0)" stroke-linejoin="round" d=" M 147.746, 117.158 147.746, 120.652 147.745, 128.804 147.745, 132.548 " />
            <path fill="none" stroke-width="3.0" stroke-linecap="butt" stroke-opacity="1.0" stroke="rgb(0, 0, 0)" stroke-linejoin="round" d=" M 153.187, 111.071 153.186, 121.071 153.185, 131.071 153.185, 138.016 153.185, 138.767 153.185, 138.826 " />
            <path fill="none" stroke-width="3.0" stroke-linecap="butt" stroke-opacity="1.0" stroke="rgb(0, 0, 0)" stroke-linejoin="round" d=" M 155.887, 131.279 155.888, 121.279 155.889, 118.619 " />
            <path fill="none" stroke-width="3.0" stroke-linecap="butt" stroke-opacity="1.0" stroke="rgb(0, 0, 0)" stroke-linejoin="round" d=" M 156.315, 120.765 156.314, 129.133 " />
            <path fill="none" stroke-width="3.0" stroke-linecap="butt" stroke-opacity="1.0" stroke="rgb(0, 0, 0)" stroke-linejoin="round" d=" M 167.347, 143.868 167.349, 133.868 167.351, 123.868 167.352, 113.868 167.353, 106.410 " />
            <path fill="none" stroke-width="3.0" stroke-linecap="butt" stroke-opacity="1.0" stroke="rgb(0, 0, 0)" stroke-linejoin="round" d=" M 168.175, 108.155 168.174, 118.155 168.172, 128.155 168.170, 138.155 168.170, 142.123 " />
        </g>
    </g>
</svg>
