<?xml version='1.0' encoding='ascii'?>
<svg xmlns="http://www.w3.org/2000/svg" version="1.1" width="250" height="250">
    <g id="ViewLayer_LineSet" xmlns:inkscape="http://www.inkscape.org/namespaces/inkscape" inkscape:groupmode="lineset" inkscape:label="ViewLayer_LineSet">
        <g xmlns:inkscape="http://www.inkscape.org/namespaces/inkscape" inkscape:groupmode="layer" id="strokes" inkscape:label="strokes">
            <path fill="none" stroke-width="3.0" stroke-linecap="butt" stroke-opacity="1.0" stroke="rgb(0, 0, 0)" stroke-linejoin="round" d=" M 200.787, 69.070 205.707, 76.431 207.531, 79.160 208.027, 80.166 212.451, 89.134 212.918, 90.082 216.132, 99.552 216.832, 101.614 218.781, 111.423 219.206, 113.559 219.857, 123.538 219.998, 125.711 219.340, 135.689 219.197, 137.862 217.241, 147.669 216.816, 149.803 213.596, 159.270 212.895, 161.330 210.403, 166.374 208.526, 170.174 207.503, 172.246 201.941, 180.556 200.732, 182.363 194.133, 189.876 192.699, 191.508 185.175, 198.095 183.542, 199.525 175.222, 205.074 173.417, 206.278 164.444, 210.693 162.499, 211.650 153.027, 214.856 150.974, 215.551 141.164, 217.493 139.040, 217.914 129.061, 218.560 126.901, 218.700 116.923, 218.038 114.764, 217.895 104.958, 215.937 102.838, 215.513 93.370, 212.293 91.324, 211.597 82.358, 207.169 80.422, 206.213 72.109, 200.653 70.315, 199.453 62.799, 192.856 61.177, 191.433 54.585, 183.912 53.186, 182.316 " />
            <path fill="none" stroke-width="3.0" stroke-linecap="butt" stroke-opacity="1.0" stroke="rgb(0, 0, 0)" stroke-linejoin="round" d=" M 223.161, 251.160 230.689, 244.577 238.217, 237.994 238.720, 237.555 245.323, 230.045 251.927, 222.535 252.370, 222.031 " />
            <path fill="none" stroke-width="3.0" stroke-linecap="butt" stroke-opacity="1.0" stroke="rgb(0, 0, 0)" stroke-linejoin="round" d=" M 252.460, 29.539 245.864, 22.024 239.267, 14.508 238.813, 13.991 231.291, 7.403 223.768, 0.814 223.252, 0.362 214.933, -5.187 206.614, -10.736 206.045, -11.116 " />
            <path fill="none" stroke-width="3.0" stroke-linecap="butt" stroke-opacity="1.0" stroke="rgb(0, 0, 0)" stroke-linejoin="round" d=" M 53.202, 182.341 53.186, 182.316 47.631, 174.000 46.449, 172.231 45.038, 169.368 43.196, 165.632 41.073, 161.327 37.858, 151.858 37.164, 149.815 35.212, 140.008 34.790, 137.892 34.134, 127.914 33.992, 125.760 34.642, 115.782 34.782, 113.628 36.729, 103.819 37.149, 101.701 40.358, 92.230 41.051, 90.184 44.315, 83.555 45.920, 80.294 46.423, 79.274 47.768, 77.258 53.172, 69.157 59.760, 61.633 61.185, 60.006 68.698, 53.406 70.325, 51.978 78.635, 46.415 80.435, 45.211 89.400, 40.780 91.343, 39.820 100.809, 36.597 102.862, 35.899 112.668, 33.940 114.796, 33.514 124.774, 32.852 126.941, 32.709 136.920, 33.355 139.088, 33.496 148.898, 35.440 151.030, 35.862 160.501, 39.071 162.561, 39.768 171.532, 44.186 173.484, 45.148 181.802, 50.699 183.612, 51.908 191.133, 58.499 192.771, 59.934 199.366, 67.450 200.787, 69.070 200.802, 69.087 " />
            <path fill="none" stroke-width="3.0" stroke-linecap="butt" stroke-opacity="1.0" stroke="rgb(0, 0, 0)" stroke-linejoin="round" d=" M 48.030, -10.933 39.723, -5.366 31.417, 0.202 30.874, 0.566 23.365, 7.169 15.855, 13.773 15.368, 14.202 8.784, 21.729 2.200, 29.256 1.775, 29.742 -3.770, 38.063 -7.593, 43.800 " />
            <path fill="none" stroke-width="3.0" stroke-linecap="butt" stroke-opacity="1.0" stroke="rgb(0, 0, 0)" stroke-linejoin="round" d=" M -9.594, 204.667 -4.041, 212.983 1.513, 221.300 1.862, 221.823 8.452, 229.344 15.042, 236.865 15.457, 237.339 22.972, 243.937 30.486, 250.536 30.960, 250.952 " />
            <path fill="none" stroke-width="3.0" stroke-linecap="butt" stroke-opacity="1.0" stroke="rgb(0, 0, 0)" stroke-linejoin="round" d=" M -11.559, 200.683 -2.809, 195.841 4.579, 191.754 4.575, 181.754 4.570, 171.754 4.566, 161.754 4.561, 151.754 4.557, 141.754 4.552, 131.754 4.548, 121.754 4.544, 111.754 4.539, 101.754 4.535, 91.754 4.530, 81.754 4.526, 71.754 4.522, 61.754 4.517, 51.118 -4.042, 45.946 -7.593, 43.800 " />
            <path fill="none" stroke-width="3.0" stroke-linecap="butt" stroke-opacity="1.0" stroke="rgb(0, 0, 0)" stroke-linejoin="round" d=" M 261.344, 42.826 252.784, 47.996 247.868, 50.966 247.863, 60.966 247.859, 70.966 247.854, 80.966 247.850, 90.966 247.845, 100.966 247.841, 110.966 247.836, 120.966 247.832, 130.966 247.827, 140.966 247.823, 150.966 247.818, 160.966 247.814, 170.966 247.809, 180.966 247.804, 191.894 256.555, 196.733 265.460, 201.657 " />
            <path fill="none" stroke-width="3.0" stroke-linecap="butt" stroke-opacity="1.0" stroke="rgb(0, 0, 0)" stroke-linejoin="round" d=" M 130.402, 155.856 126.334, 156.121 122.267, 155.854 118.270, 155.058 114.411, 153.747 110.756, 151.943 107.367, 149.679 104.303, 146.991 104.176, 146.846 101.617, 143.927 99.353, 140.538 98.620, 139.052 98.262, 138.326 98.262, 138.326 97.550, 136.883 96.798, 134.666 96.240, 133.024 95.445, 129.027 95.428, 128.769 95.178, 124.960 95.427, 121.151 95.444, 120.893 96.239, 116.896 96.796, 115.254 97.548, 113.037 98.259, 111.593 99.068, 109.953 99.350, 109.381 99.790, 108.721 101.613, 105.991 104.300, 102.926 107.364, 100.238 110.753, 97.972 114.408, 96.168 118.268, 94.856 122.267, 94.060 126.335, 93.792 130.403, 94.058 134.402, 94.852 138.263, 96.162 141.921, 97.965 145.311, 100.230 148.377, 102.918 151.066, 105.983 152.891, 108.714 153.236, 109.231 153.332, 109.374 153.488, 109.691 153.829, 110.382 155.135, 113.031 155.293, 113.496 156.446, 116.892 156.666, 117.998 157.045, 119.905 157.115, 120.258 157.241, 120.892 157.508, 124.961 157.240, 129.029 157.114, 129.663 157.044, 130.016 156.664, 131.922 156.444, 133.028 155.291, 136.424 155.133, 136.889 154.303, 138.570 154.062, 139.059 153.826, 139.537 153.329, 140.545 151.063, 143.935 148.374, 146.999 145.308, 149.687 141.917, 151.951 138.260, 153.753 134.400, 155.062 130.402, 155.856 " />
            <path fill="none" stroke-width="3.0" stroke-linecap="butt" stroke-opacity="1.0" stroke="rgb(0, 0, 0)" stroke-linejoin="round" d=" M 58.067, 162.160 59.028, 164.109 64.583, 172.425 64.688, 172.582 71.280, 180.102 71.404, 180.244 78.921, 186.840 79.063, 186.965 87.376, 192.524 87.534, 192.630 96.501, 197.057 96.672, 197.142 106.139, 200.361 106.321, 200.423 116.127, 202.379 116.316, 202.417 126.294, 203.078 126.487, 203.090 136.466, 202.443 136.660, 202.431 146.469, 200.487 146.660, 200.449 156.132, 197.241 156.317, 197.179 165.289, 192.762 165.466, 192.675 173.784, 187.126 173.949, 187.016 181.472, 180.428 181.621, 180.297 188.220, 172.783 188.352, 172.633 193.912, 164.321 194.024, 164.155 194.800, 162.584 " />
            <path fill="none" stroke-width="3.0" stroke-linecap="butt" stroke-opacity="1.0" stroke="rgb(0, 0, 0)" stroke-linejoin="round" d=" M 132.591, 171.527 126.487, 171.925 120.384, 171.522 114.385, 170.327 108.594, 168.359 103.110, 165.652 98.026, 162.253 93.429, 158.220 89.397, 153.622 86.000, 148.537 85.290, 147.097 84.370, 145.232 84.335, 145.161 83.341, 143.144 83.296, 143.053 82.462, 140.596 81.330, 137.262 80.136, 131.264 79.735, 125.162 80.134, 119.060 81.326, 113.061 82.457, 109.727 83.290, 107.269 83.335, 107.178 84.329, 105.160 85.902, 101.969 85.993, 101.783 86.670, 100.770 89.390, 96.696 93.421, 92.096 98.018, 88.061 103.103, 84.660 108.589, 81.952 114.382, 79.983 120.382, 78.787 126.488, 78.384 132.594, 78.782 138.596, 79.974 144.392, 81.939 149.881, 84.644 154.971, 88.043 159.573, 92.078 163.609, 96.679 166.075, 100.369 167.010, 101.768 167.101, 101.953 167.782, 103.333 168.780, 105.358 169.661, 107.143 169.717, 107.257 171.684, 113.053 172.877, 119.055 173.277, 125.163 172.875, 131.270 171.680, 137.272 169.711, 143.066 169.655, 143.180 168.774, 144.964 168.466, 145.589 167.522, 147.501 167.002, 148.554 163.601, 153.641 159.564, 158.239 154.962, 162.272 149.874, 165.669 144.385, 168.372 138.591, 170.336 132.591, 171.527 " />
            <path fill="none" stroke-width="3.0" stroke-linecap="butt" stroke-opacity="1.0" stroke="rgb(0, 0, 0)" stroke-linejoin="round" d=" M 192.766, 84.248 188.374, 77.676 181.779, 70.159 181.644, 70.007 174.124, 63.415 173.971, 63.282 165.654, 57.729 165.486, 57.617 156.515, 53.198 156.334, 53.109 146.863, 49.899 146.672, 49.835 136.863, 47.890 136.666, 47.850 126.687, 47.203 126.488, 47.190 116.510, 47.851 116.311, 47.864 106.505, 49.822 106.311, 49.860 96.844, 53.081 96.657, 53.145 87.691, 57.574 87.516, 57.661 79.205, 63.223 79.043, 63.331 71.529, 69.930 71.383, 70.058 64.794, 77.580 64.667, 77.726 60.033, 84.670 " />
            <path fill="none" stroke-width="3.0" stroke-linecap="butt" stroke-opacity="1.0" stroke="rgb(0, 0, 0)" stroke-linejoin="round" d=" M 166.075, 100.369 163.451, 101.954 163.450, 103.609 163.450, 104.298 163.449, 113.338 163.448, 123.338 163.446, 133.338 163.446, 136.381 163.445, 143.101 163.445, 143.731 163.445, 145.246 167.522, 147.501 " />
            <path fill="none" stroke-width="3.0" stroke-linecap="butt" stroke-opacity="1.0" stroke="rgb(0, 0, 0)" stroke-linejoin="round" d=" M 85.290, 147.097 88.660, 145.233 88.660, 143.719 88.660, 143.088 88.659, 135.090 88.657, 125.090 88.656, 115.090 88.656, 114.629 88.654, 104.629 88.654, 104.312 88.654, 103.623 88.654, 101.968 86.670, 100.770 " />
            <path fill="none" stroke-width="3.0" stroke-linecap="butt" stroke-opacity="1.0" stroke="rgb(0, 0, 0)" stroke-linejoin="round" d=" M 205.707, 76.431 199.407, 80.236 199.407, 81.719 199.406, 84.833 199.403, 94.833 199.402, 97.802 199.400, 107.802 199.397, 117.802 199.394, 127.802 199.391, 137.802 199.389, 147.802 199.387, 152.519 199.385, 160.913 199.384, 163.762 199.384, 165.119 208.135, 169.958 208.526, 170.174 " />
            <path fill="none" stroke-width="3.0" stroke-linecap="butt" stroke-opacity="1.0" stroke="rgb(0, 0, 0)" stroke-linejoin="round" d=" M 45.038, 169.368 52.810, 165.068 52.809, 163.713 52.809, 160.866 52.806, 150.866 52.806, 149.915 52.803, 139.915 52.800, 129.915 52.798, 119.915 52.795, 109.915 52.793, 100.404 52.790, 90.404 52.788, 84.885 52.788, 81.773 52.787, 80.292 47.768, 77.258 " />
            <path fill="none" stroke-width="3.0" stroke-linecap="butt" stroke-opacity="1.0" stroke="rgb(0, 0, 0)" stroke-linejoin="round" d=" M 52.809, 163.713 55.258, 163.714 58.067, 162.160 66.817, 157.318 68.769, 156.238 68.766, 146.238 68.764, 136.238 68.762, 126.238 68.760, 116.238 68.758, 106.238 68.756, 96.238 68.755, 89.942 60.196, 84.770 60.033, 84.670 55.237, 81.772 52.788, 81.773 " />
            <path fill="none" stroke-width="3.0" stroke-linecap="butt" stroke-opacity="1.0" stroke="rgb(0, 0, 0)" stroke-linejoin="round" d=" M 55.258, 163.714 55.256, 156.459 55.253, 146.459 55.251, 136.459 55.248, 126.459 55.246, 116.459 55.243, 106.459 55.240, 96.459 55.240, 93.858 55.237, 83.858 55.237, 81.772 " />
            <path fill="none" stroke-width="3.0" stroke-linecap="butt" stroke-opacity="1.0" stroke="rgb(0, 0, 0)" stroke-linejoin="round" d=" M 199.407, 81.719 196.950, 81.720 192.766, 84.248 184.206, 89.418 183.394, 89.908 183.392, 99.908 183.390, 109.908 183.388, 119.908 183.386, 129.908 183.383, 139.908 183.381, 149.908 183.380, 156.270 192.131, 161.109 194.800, 162.584 196.928, 163.761 199.384, 163.762 " />
            <path fill="none" stroke-width="3.0" stroke-linecap="butt" stroke-opacity="1.0" stroke="rgb(0, 0, 0)" stroke-linejoin="round" d=" M 196.928, 163.761 196.930, 158.270 196.933, 148.270 196.935, 138.270 196.938, 128.270 196.940, 118.270 196.943, 108.270 196.946, 98.270 196.947, 92.047 196.950, 82.047 196.950, 81.720 " />
            <path fill="none" stroke-width="3.0" stroke-linecap="butt" stroke-opacity="1.0" stroke="rgb(0, 0, 0)" stroke-linejoin="round" d=" M 129.312, 148.052 126.258, 148.252 123.205, 148.051 120.204, 147.453 117.307, 146.470 114.563, 145.116 112.020, 143.416 109.719, 141.398 107.702, 139.098 106.003, 136.554 105.648, 135.834 105.442, 135.418 105.393, 135.318 105.184, 134.894 105.025, 134.571 104.650, 133.810 104.329, 132.865 104.127, 132.272 103.959, 131.774 103.666, 130.913 103.069, 127.913 102.869, 124.860 103.069, 121.807 103.665, 118.806 103.958, 117.945 104.126, 117.447 104.327, 116.854 104.648, 115.909 105.023, 115.148 105.649, 113.879 105.827, 113.518 106.001, 113.164 106.244, 112.801 106.316, 112.692 106.340, 112.657 107.701, 110.620 109.718, 108.319 112.018, 106.301 114.562, 104.601 117.306, 103.247 120.203, 102.262 123.205, 101.665 126.258, 101.464 129.312, 101.663 132.314, 102.260 135.212, 103.243 137.958, 104.597 140.503, 106.297 142.804, 108.314 144.822, 110.616 146.055, 112.461 146.207, 112.688 146.280, 112.797 146.523, 113.160 146.640, 113.399 147.055, 114.240 147.751, 115.651 147.876, 115.905 147.952, 116.129 148.123, 116.631 148.860, 118.804 149.457, 121.806 149.488, 122.270 149.657, 124.860 149.487, 127.449 149.457, 127.914 148.859, 130.916 148.121, 133.089 147.951, 133.590 147.875, 133.814 147.749, 134.068 147.252, 135.075 147.131, 135.322 147.082, 135.421 147.053, 135.479 146.781, 136.032 146.521, 136.558 144.820, 139.103 142.802, 141.403 140.500, 143.420 137.956, 145.120 135.211, 146.473 132.313, 147.456 129.312, 148.052 " />
            <path fill="none" stroke-width="3.0" stroke-linecap="butt" stroke-opacity="1.0" stroke="rgb(0, 0, 0)" stroke-linejoin="round" d=" M 128.654, 143.346 126.212, 143.506 123.771, 143.345 121.371, 142.868 119.054, 142.081 116.860, 140.998 114.825, 139.639 112.986, 138.026 111.373, 136.186 110.013, 134.151 109.729, 133.575 109.558, 133.228 109.542, 133.196 109.429, 132.966 108.931, 131.957 108.608, 131.005 108.456, 130.557 108.145, 129.640 107.764, 127.726 107.667, 127.241 107.651, 126.991 107.507, 124.799 107.651, 122.607 107.667, 122.357 107.764, 121.872 108.144, 119.958 108.455, 119.041 108.607, 118.593 108.930, 117.641 109.428, 116.632 109.557, 116.370 110.012, 115.446 110.230, 115.120 110.283, 115.040 111.372, 113.411 112.985, 111.571 114.824, 109.958 116.859, 108.598 119.053, 107.515 121.370, 106.728 123.771, 106.250 126.213, 106.090 128.655, 106.249 131.055, 106.727 133.373, 107.513 135.568, 108.595 137.603, 109.955 139.443, 111.568 141.057, 113.408 142.043, 114.884 142.199, 115.117 142.417, 115.443 142.516, 115.644 142.645, 115.906 143.466, 117.570 143.500, 117.639 143.619, 117.990 144.286, 119.956 144.312, 120.083 144.423, 120.646 144.568, 121.371 144.764, 122.357 144.924, 124.799 144.763, 127.241 144.567, 128.227 144.423, 128.953 144.311, 129.515 144.286, 129.642 143.618, 131.608 143.499, 131.959 143.465, 132.028 142.887, 133.198 142.653, 133.673 142.644, 133.691 142.416, 134.154 141.056, 136.189 139.442, 138.029 137.602, 139.642 135.567, 141.001 133.372, 142.083 131.054, 142.869 128.654, 143.346 " />
            <path fill="none" stroke-width="3.0" stroke-linecap="butt" stroke-opacity="1.0" stroke="rgb(0, 0, 0)" stroke-linejoin="round" d=" M 127.899, 137.943 126.160, 138.056 124.420, 137.942 122.710, 137.602 121.060, 137.041 119.497, 136.270 118.047, 135.302 116.737, 134.152 115.587, 132.842 114.619, 131.392 113.848, 129.829 113.288, 128.178 112.948, 126.469 112.834, 124.729 112.947, 122.990 113.287, 121.280 113.848, 119.630 114.619, 118.066 115.587, 116.617 116.736, 115.306 118.047, 114.156 119.496, 113.188 121.060, 112.416 122.710, 111.856 124.420, 111.515 126.160, 111.401 127.900, 111.515 129.610, 111.855 131.261, 112.415 132.824, 113.186 134.274, 114.155 135.585, 115.304 136.735, 116.615 137.703, 118.065 138.474, 119.629 139.035, 121.280 139.375, 122.990 139.489, 124.729 139.375, 126.469 139.035, 128.179 138.474, 129.830 137.703, 131.394 136.734, 132.843 135.584, 134.154 134.273, 135.303 132.824, 136.272 131.260, 137.043 129.609, 137.603 127.899, 137.943 " />
            <path fill="none" stroke-width="3.0" stroke-linecap="butt" stroke-opacity="1.0" stroke="rgb(0, 0, 0)" stroke-linejoin="round" d=" M 128.210, 140.170 126.181, 140.303 124.152, 140.170 122.158, 139.773 120.233, 139.119 118.409, 138.220 116.719, 137.090 115.190, 135.749 113.850, 134.221 112.720, 132.530 111.821, 130.706 111.167, 128.781 110.771, 126.787 110.638, 124.758 110.770, 122.729 111.167, 120.735 111.820, 118.810 112.719, 116.986 113.849, 115.295 115.189, 113.766 116.718, 112.425 118.409, 111.295 120.232, 110.396 122.158, 109.742 124.152, 109.345 126.182, 109.211 128.211, 109.344 130.206, 109.741 132.131, 110.394 133.955, 111.293 135.647, 112.423 137.176, 113.764 138.517, 115.293 139.647, 116.984 140.546, 118.808 141.200, 120.734 141.597, 122.729 141.657, 123.650 141.730, 124.758 141.657, 125.866 141.596, 126.788 141.199, 128.782 140.546, 130.708 139.646, 132.532 138.516, 134.223 137.175, 135.751 135.646, 137.092 133.955, 138.222 132.131, 139.121 130.205, 139.774 128.210, 140.170 " />
            <path fill="none" stroke-width="3.0" stroke-linecap="butt" stroke-opacity="1.0" stroke="rgb(0, 0, 0)" stroke-linejoin="round" d=" M 82.462, 140.596 82.460, 130.596 82.458, 120.596 82.457, 110.596 82.457, 109.727 " />
            <path fill="none" stroke-width="3.0" stroke-linecap="butt" stroke-opacity="1.0" stroke="rgb(0, 0, 0)" stroke-linejoin="round" d=" M 83.341, 143.144 83.339, 133.144 83.338, 123.144 83.336, 113.144 83.335, 107.178 " />
            <path fill="none" stroke-width="3.0" stroke-linecap="butt" stroke-opacity="1.0" stroke="rgb(0, 0, 0)" stroke-linejoin="round" d=" M 95.428, 128.769 95.427, 121.151 " />
            <path fill="none" stroke-width="3.0" stroke-linecap="butt" stroke-opacity="1.0" stroke="rgb(0, 0, 0)" stroke-linejoin="round" d=" M 98.262, 138.326 98.262, 138.326 98.261, 128.326 98.260, 118.326 98.259, 111.593 " />
            <path fill="none" stroke-width="3.0" stroke-linecap="butt" stroke-opacity="1.0" stroke="rgb(0, 0, 0)" stroke-linejoin="round" d=" M 103.959, 131.774 103.958, 124.835 103.958, 124.624 103.958, 117.945 " />
            <path fill="none" stroke-width="3.0" stroke-linecap="butt" stroke-opacity="1.0" stroke="rgb(0, 0, 0)" stroke-linejoin="round" d=" M 107.764, 127.726 107.764, 121.872 " />
            <path fill="none" stroke-width="3.0" stroke-linecap="butt" stroke-opacity="1.0" stroke="rgb(0, 0, 0)" stroke-linejoin="round" d=" M 141.657, 123.650 141.657, 125.866 " />
            <path fill="none" stroke-width="3.0" stroke-linecap="butt" stroke-opacity="1.0" stroke="rgb(0, 0, 0)" stroke-linejoin="round" d=" M 144.312, 120.083 144.311, 129.515 " />
            <path fill="none" stroke-width="3.0" stroke-linecap="butt" stroke-opacity="1.0" stroke="rgb(0, 0, 0)" stroke-linejoin="round" d=" M 148.123, 116.631 148.122, 121.504 148.122, 127.955 148.121, 133.089 " />
            <path fill="none" stroke-width="3.0" stroke-linecap="butt" stroke-opacity="1.0" stroke="rgb(0, 0, 0)" stroke-linejoin="round" d=" M 153.829, 110.382 153.829, 110.433 153.828, 120.433 153.827, 130.433 153.826, 138.333 153.826, 139.059 153.826, 139.164 153.826, 139.537 " />
            <path fill="none" stroke-width="3.0" stroke-linecap="butt" stroke-opacity="1.0" stroke="rgb(0, 0, 0)" stroke-linejoin="round" d=" M 156.664, 131.922 156.664, 131.228 156.666, 121.228 156.666, 118.370 156.666, 117.998 " />
            <path fill="none" stroke-width="3.0" stroke-linecap="butt" stroke-opacity="1.0" stroke="rgb(0, 0, 0)" stroke-linejoin="round" d=" M 157.115, 120.258 157.115, 120.630 157.114, 128.968 157.114, 129.663 " />
            <path fill="none" stroke-width="3.0" stroke-linecap="butt" stroke-opacity="1.0" stroke="rgb(0, 0, 0)" stroke-linejoin="round" d=" M 168.774, 144.964 168.776, 134.964 168.777, 124.964 168.779, 114.964 168.780, 105.358 " />
            <path fill="none" stroke-width="3.0" stroke-linecap="butt" stroke-opacity="1.0" stroke="rgb(0, 0, 0)" stroke-linejoin="round" d=" M 169.661, 107.143 169.659, 117.143 169.657, 127.143 169.656, 137.143 169.655, 143.180 " />
        </g>
    </g>
</svg>
