<?xml version='1.0' encoding='ascii'?>
<svg xmlns="http://www.w3.org/2000/svg" version="1.1" width="250" height="250">
    <g id="ViewLayer_LineSet" xmlns:inkscape="http://www.inkscape.org/namespaces/inkscape" inkscape:groupmode="lineset" inkscape:label="ViewLayer_LineSet">
        <g xmlns:inkscape="http://www.inkscape.org/namespaces/inkscape" inkscape:groupmode="layer" id="strokes" inkscape:label="strokes">
            <path fill="none" stroke-width="3.0" stroke-linecap="butt" stroke-opacity="1.0" stroke="rgb(0, 0, 0)" stroke-linejoin="round" d=" M 138.839, 216.248 128.860, 216.894 126.923, 217.019 116.945, 216.357 115.010, 216.229 105.203, 214.271 103.302, 213.892 93.835, 210.671 92.001, 210.047 83.034, 205.620 81.298, 204.762 72.986, 199.203 71.377, 198.126 63.861, 191.530 62.407, 190.254 55.815, 182.734 54.540, 181.279 48.986, 172.963 47.912, 171.355 46.526, 168.545 44.718, 164.878 42.634, 160.652 39.419, 151.183 38.797, 149.351 36.844, 139.544 36.467, 137.647 35.810, 127.669 35.683, 125.738 36.333, 115.759 36.459, 113.828 38.405, 104.020 38.782, 102.121 41.991, 92.650 42.613, 90.816 46.247, 83.434 47.278, 81.341 47.886, 80.106 49.206, 78.127 54.512, 70.175 61.099, 62.652 62.377, 61.193 69.890, 54.593 71.349, 53.312 79.659, 47.750 81.273, 46.669 90.238, 42.239 91.980, 41.378 101.447, 38.156 103.288, 37.529 113.094, 35.570 115.003, 35.189 124.981, 34.527 126.924, 34.398 136.903, 35.045 138.848, 35.171 148.657, 37.115 150.570, 37.494 160.041, 40.702 161.889, 41.328 170.860, 45.746 172.611, 46.609 180.929, 52.161 182.553, 53.245 190.073, 59.835 191.542, 61.123 198.138, 68.639 199.426, 70.108 204.244, 77.315 206.069, 80.046 206.528, 80.977 210.951, 89.946 211.357, 90.767 214.570, 100.237 215.198, 102.087 217.148, 111.896 217.528, 113.812 218.180, 123.791 218.307, 125.740 217.649, 135.719 217.520, 137.667 215.565, 147.474 215.183, 149.389 211.963, 158.856 211.334, 160.704 208.901, 165.630 207.057, 169.362 206.042, 171.418 200.480, 179.729 199.396, 181.349 192.796, 188.863 191.511, 190.326 183.987, 196.914 182.522, 198.196 174.202, 203.745 172.584, 204.825 163.611, 209.240 161.866, 210.098 152.394, 213.305 150.553, 213.928 140.744, 215.870 138.839, 216.248 " />
            <path fill="none" stroke-width="3.0" stroke-linecap="butt" stroke-opacity="1.0" stroke="rgb(0, 0, 0)" stroke-linejoin="round" d=" M 204.425, 259.960 212.748, 254.416 221.071, 248.872 221.293, 248.725 228.820, 242.141 236.348, 235.558 236.551, 235.380 243.155, 227.871 249.758, 220.361 249.939, 220.155 255.505, 211.847 261.071, 203.540 261.225, 203.309 " />
            <path fill="none" stroke-width="3.0" stroke-linecap="butt" stroke-opacity="1.0" stroke="rgb(0, 0, 0)" stroke-linejoin="round" d=" M 250.026, 31.369 243.429, 23.853 236.832, 16.338 236.641, 16.121 229.119, 9.532 221.596, 2.943 221.380, 2.753 213.061, -2.796 204.742, -8.345 204.504, -8.504 " />
            <path fill="none" stroke-width="3.0" stroke-linecap="butt" stroke-opacity="1.0" stroke="rgb(0, 0, 0)" stroke-linejoin="round" d=" M 49.530, -8.328 41.223, -2.761 32.916, 2.807 32.703, 2.949 25.194, 9.553 17.684, 16.156 17.495, 16.323 10.911, 23.850 4.327, 31.377 4.163, 31.564 -1.383, 39.885 -5.026, 45.351 " />
            <path fill="none" stroke-width="3.0" stroke-linecap="butt" stroke-opacity="1.0" stroke="rgb(0, 0, 0)" stroke-linejoin="round" d=" M -6.990, 203.129 -1.436, 211.445 4.117, 219.761 4.247, 219.955 10.837, 227.476 17.427, 234.997 17.581, 235.173 25.095, 241.771 32.610, 248.369 32.786, 248.525 41.097, 254.087 49.407, 259.649 49.604, 259.781 " />
            <path fill="none" stroke-width="3.0" stroke-linecap="butt" stroke-opacity="1.0" stroke="rgb(0, 0, 0)" stroke-linejoin="round" d=" M -8.917, 199.221 -0.167, 194.380 7.104, 190.357 7.100, 180.357 7.096, 170.357 7.091, 160.357 7.087, 150.357 7.083, 140.357 7.078, 130.357 7.074, 120.357 7.070, 110.357 7.065, 100.357 7.061, 90.357 7.057, 80.357 7.052, 70.357 7.048, 60.357 7.045, 52.646 -1.514, 47.474 -5.026, 45.351 " />
            <path fill="none" stroke-width="3.0" stroke-linecap="butt" stroke-opacity="1.0" stroke="rgb(0, 0, 0)" stroke-linejoin="round" d=" M 258.738, 44.400 250.178, 49.570 245.328, 52.500 245.324, 62.500 245.319, 72.500 245.315, 82.500 245.310, 92.500 245.306, 102.500 245.301, 112.500 245.297, 122.500 245.293, 132.500 245.288, 142.500 245.284, 152.500 245.279, 162.500 245.275, 172.500 245.270, 182.500 245.267, 190.491 254.018, 195.330 262.776, 200.173 " />
            <path fill="none" stroke-width="3.0" stroke-linecap="butt" stroke-opacity="1.0" stroke="rgb(0, 0, 0)" stroke-linejoin="round" d=" M 59.256, 161.502 60.200, 163.417 65.761, 171.742 72.360, 179.270 79.885, 185.873 88.208, 191.439 97.185, 195.872 106.666, 199.095 116.486, 201.055 126.479, 201.716 136.473, 201.068 146.299, 199.120 155.787, 195.907 164.775, 191.483 173.110, 185.922 180.648, 179.321 187.260, 171.791 192.833, 163.461 193.595, 161.918 " />
            <path fill="none" stroke-width="3.0" stroke-linecap="butt" stroke-opacity="1.0" stroke="rgb(0, 0, 0)" stroke-linejoin="round" d=" M 132.476, 170.705 126.479, 171.095 120.482, 170.700 114.589, 169.526 108.899, 167.592 103.511, 164.933 98.516, 161.594 93.999, 157.631 90.038, 153.113 86.701, 148.118 86.003, 146.703 85.153, 144.980 84.844, 144.353 84.043, 142.729 83.935, 142.410 83.080, 139.892 82.112, 137.040 80.939, 131.147 80.546, 125.152 80.937, 119.156 82.108, 113.262 83.076, 110.409 83.930, 107.892 84.038, 107.572 84.839, 105.947 86.663, 102.245 86.694, 102.182 87.359, 101.186 90.031, 97.184 93.992, 92.664 98.509, 88.700 103.505, 85.359 108.895, 82.698 114.586, 80.763 120.481, 79.588 126.480, 79.193 132.479, 79.584 138.376, 80.755 144.070, 82.685 149.463, 85.343 154.464, 88.683 158.985, 92.647 162.951, 97.167 165.374, 100.793 166.292, 102.167 166.323, 102.230 167.271, 104.153 168.185, 106.005 168.952, 107.560 169.040, 107.821 170.884, 113.254 172.057, 119.152 172.449, 125.152 172.055, 131.152 170.880, 137.049 169.035, 142.481 168.946, 142.742 168.178, 144.297 167.722, 145.221 166.795, 147.099 166.285, 148.134 162.943, 153.131 158.977, 157.650 154.456, 161.612 149.456, 164.949 144.064, 167.605 138.372, 169.535 132.476, 170.705 " />
            <path fill="none" stroke-width="3.0" stroke-linecap="butt" stroke-opacity="1.0" stroke="rgb(0, 0, 0)" stroke-linejoin="round" d=" M 191.597, 84.954 187.282, 78.498 180.670, 70.962 173.132, 64.355 164.795, 58.789 155.803, 54.360 146.311, 51.143 136.480, 49.194 126.480, 48.545 116.481, 49.207 106.656, 51.168 97.171, 54.395 88.190, 58.832 79.865, 64.403 72.339, 71.012 65.741, 78.545 61.187, 85.368 " />
            <path fill="none" stroke-width="3.0" stroke-linecap="butt" stroke-opacity="1.0" stroke="rgb(0, 0, 0)" stroke-linejoin="round" d=" M 197.669, 82.701 195.326, 82.702 191.597, 84.954 183.037, 90.124 182.327, 90.553 182.325, 100.553 182.322, 110.553 182.320, 120.553 182.318, 130.553 182.316, 140.553 182.314, 150.553 182.313, 155.680 191.064, 160.519 193.595, 161.918 195.305, 162.864 197.648, 162.864 " />
            <path fill="none" stroke-width="3.0" stroke-linecap="butt" stroke-opacity="1.0" stroke="rgb(0, 0, 0)" stroke-linejoin="round" d=" M 195.305, 162.864 195.306, 158.454 195.309, 148.454 195.311, 138.454 195.314, 128.454 195.316, 118.454 195.319, 108.454 195.321, 98.454 195.323, 91.842 195.326, 82.702 " />
            <path fill="none" stroke-width="3.0" stroke-linecap="butt" stroke-opacity="1.0" stroke="rgb(0, 0, 0)" stroke-linejoin="round" d=" M 54.541, 162.817 56.876, 162.818 59.256, 161.502 68.006, 156.661 69.833, 155.650 69.831, 145.650 69.829, 135.650 69.827, 125.650 69.825, 115.650 69.823, 105.650 69.821, 95.650 69.820, 90.586 61.187, 85.368 56.856, 82.751 54.520, 82.752 " />
            <path fill="none" stroke-width="3.0" stroke-linecap="butt" stroke-opacity="1.0" stroke="rgb(0, 0, 0)" stroke-linejoin="round" d=" M 56.876, 162.818 56.875, 156.674 56.872, 146.674 56.870, 136.674 56.867, 126.674 56.865, 116.674 56.862, 106.674 56.860, 96.674 56.859, 93.622 56.857, 83.622 56.856, 82.751 " />
            <path fill="none" stroke-width="3.0" stroke-linecap="butt" stroke-opacity="1.0" stroke="rgb(0, 0, 0)" stroke-linejoin="round" d=" M 46.526, 168.545 54.541, 164.110 54.541, 162.817 54.540, 160.007 54.538, 150.800 54.535, 140.800 54.532, 130.800 54.530, 120.800 54.527, 110.800 54.525, 100.800 54.524, 99.498 54.522, 89.498 54.521, 85.823 54.520, 82.752 54.520, 81.339 49.206, 78.127 " />
            <path fill="none" stroke-width="3.0" stroke-linecap="butt" stroke-opacity="1.0" stroke="rgb(0, 0, 0)" stroke-linejoin="round" d=" M 204.244, 77.315 197.669, 81.286 197.669, 82.701 197.668, 85.774 197.666, 95.774 197.665, 96.939 197.663, 106.939 197.660, 116.939 197.657, 126.939 197.655, 136.939 197.652, 146.939 197.650, 153.359 197.648, 160.053 197.648, 162.864 197.647, 164.159 206.398, 168.998 207.057, 169.362 " />
            <path fill="none" stroke-width="3.0" stroke-linecap="butt" stroke-opacity="1.0" stroke="rgb(0, 0, 0)" stroke-linejoin="round" d=" M 130.350, 155.489 130.333, 155.490 126.331, 155.751 122.311, 155.487 118.361, 154.700 114.547, 153.404 110.935, 151.622 107.586, 149.384 104.558, 146.728 101.903, 143.699 99.666, 140.351 98.968, 138.937 98.588, 138.165 98.497, 137.980 97.884, 136.738 97.031, 134.224 96.590, 132.925 95.804, 128.974 95.713, 127.587 95.540, 124.956 95.712, 122.324 95.803, 120.936 96.588, 116.986 97.029, 115.687 97.882, 113.172 98.494, 111.930 99.341, 110.212 99.396, 110.101 99.663, 109.559 100.036, 108.999 100.109, 108.891 101.900, 106.209 104.555, 103.180 107.583, 100.523 110.932, 98.284 114.545, 96.501 118.359, 95.205 122.311, 94.418 126.331, 94.153 130.352, 94.416 134.304, 95.201 138.120, 96.495 141.734, 98.277 145.085, 100.515 148.115, 103.172 150.772, 106.201 152.536, 108.841 153.011, 109.552 153.166, 109.866 153.594, 110.733 154.794, 113.166 155.060, 113.950 156.089, 116.982 156.381, 118.449 156.783, 120.471 156.822, 120.667 156.875, 120.935 157.138, 124.956 156.874, 128.977 156.821, 129.245 156.782, 129.440 156.379, 131.462 156.087, 132.929 155.057, 135.961 154.794, 136.736 154.791, 136.744 153.971, 138.406 153.706, 138.943 153.591, 139.177 153.008, 140.358 150.769, 143.708 148.111, 146.736 145.081, 149.392 141.731, 151.629 138.117, 153.410 134.302, 154.704 130.350, 155.489 " />
            <path fill="none" stroke-width="3.0" stroke-linecap="butt" stroke-opacity="1.0" stroke="rgb(0, 0, 0)" stroke-linejoin="round" d=" M 86.003, 146.703 89.116, 144.980 89.116, 143.517 89.116, 142.861 89.115, 135.445 89.114, 125.445 89.112, 115.445 89.112, 114.268 89.111, 104.560 89.111, 103.843 89.111, 102.244 87.359, 101.186 " />
            <path fill="none" stroke-width="3.0" stroke-linecap="butt" stroke-opacity="1.0" stroke="rgb(0, 0, 0)" stroke-linejoin="round" d=" M 165.374, 100.793 162.993, 102.230 162.993, 103.830 162.993, 104.546 162.992, 112.987 162.991, 122.987 162.989, 132.987 162.989, 136.726 162.988, 142.874 162.988, 143.529 162.987, 144.993 166.795, 147.099 " />
            <path fill="none" stroke-width="3.0" stroke-linecap="butt" stroke-opacity="1.0" stroke="rgb(0, 0, 0)" stroke-linejoin="round" d=" M 128.637, 143.223 126.211, 143.381 123.785, 143.222 121.401, 142.747 119.100, 141.966 116.920, 140.890 114.899, 139.540 113.071, 137.937 111.469, 136.110 110.119, 134.088 109.836, 133.516 109.670, 133.179 109.591, 133.018 109.523, 132.881 109.468, 132.769 109.462, 132.757 109.243, 132.312 109.044, 131.908 108.641, 130.722 108.493, 130.287 108.262, 129.607 107.804, 127.304 107.788, 127.223 107.687, 125.690 107.629, 124.797 107.687, 123.905 107.788, 122.372 107.804, 122.291 108.262, 119.988 108.493, 119.308 108.640, 118.873 109.043, 117.686 109.242, 117.283 109.461, 116.838 109.590, 116.577 109.949, 115.847 110.118, 115.506 110.146, 115.464 110.364, 115.138 110.387, 115.103 111.468, 113.484 113.070, 111.657 114.898, 110.053 116.919, 108.703 119.099, 107.627 121.401, 106.845 123.785, 106.370 126.211, 106.211 128.637, 106.370 131.022, 106.844 133.325, 107.625 135.505, 108.700 137.527, 110.051 139.355, 111.654 140.958, 113.482 141.938, 114.948 142.063, 115.135 142.281, 115.461 142.309, 115.503 142.403, 115.693 142.483, 115.856 142.612, 116.117 142.831, 116.560 143.385, 117.684 143.433, 117.826 143.582, 118.264 144.166, 119.987 144.271, 120.514 144.387, 121.095 144.531, 121.818 144.641, 122.371 144.800, 124.798 144.640, 127.224 144.530, 127.778 144.386, 128.500 144.271, 129.081 144.166, 129.608 143.581, 131.331 143.432, 131.769 143.384, 131.911 142.757, 133.182 142.611, 133.478 142.524, 133.655 142.308, 134.091 140.957, 136.112 139.354, 137.940 137.526, 139.543 135.504, 140.893 133.323, 141.968 131.021, 142.749 128.637, 143.223 " />
            <path fill="none" stroke-width="3.0" stroke-linecap="butt" stroke-opacity="1.0" stroke="rgb(0, 0, 0)" stroke-linejoin="round" d=" M 129.285, 147.859 126.256, 148.057 123.228, 147.858 120.252, 147.266 117.379, 146.290 114.657, 144.947 112.134, 143.261 109.853, 141.260 107.853, 138.979 106.167, 136.456 105.815, 135.741 105.642, 135.392 105.593, 135.293 105.355, 134.809 105.078, 134.247 104.825, 133.734 104.380, 132.422 104.179, 131.832 104.107, 131.619 103.850, 130.861 103.258, 127.885 103.059, 124.857 103.257, 121.829 103.849, 118.853 104.106, 118.095 104.178, 117.882 104.378, 117.292 104.824, 115.979 105.077, 115.466 105.694, 114.215 106.025, 113.542 106.165, 113.258 106.445, 112.840 106.452, 112.829 107.851, 110.734 109.851, 108.452 112.133, 106.451 114.656, 104.764 117.377, 103.421 120.251, 102.445 123.228, 101.852 126.257, 101.653 129.285, 101.851 132.263, 102.443 135.137, 103.418 137.860, 104.760 140.384, 106.446 142.666, 108.448 144.668, 110.730 145.891, 112.560 145.995, 112.716 146.068, 112.825 146.355, 113.254 146.471, 113.490 147.002, 114.567 147.697, 115.976 147.700, 115.984 147.900, 116.575 147.974, 116.791 148.673, 118.851 149.265, 121.828 149.428, 124.318 149.463, 124.857 149.428, 125.396 149.264, 127.886 148.672, 130.864 147.972, 132.923 147.899, 133.139 147.698, 133.730 147.696, 133.738 147.078, 134.989 147.000, 135.147 146.927, 135.296 146.878, 135.396 146.610, 135.937 146.353, 136.460 144.666, 138.983 142.664, 141.265 140.382, 143.266 137.858, 144.951 135.135, 146.293 132.261, 147.268 129.285, 147.859 " />
            <path fill="none" stroke-width="3.0" stroke-linecap="butt" stroke-opacity="1.0" stroke="rgb(0, 0, 0)" stroke-linejoin="round" d=" M 128.206, 140.137 126.181, 140.269 124.156, 140.136 122.167, 139.740 120.245, 139.088 118.426, 138.190 116.739, 137.063 115.214, 135.725 113.876, 134.200 112.749, 132.513 112.444, 131.894 112.427, 131.860 112.275, 131.552 112.255, 131.510 112.206, 131.412 112.007, 131.008 111.923, 130.838 111.852, 130.693 111.799, 130.538 111.703, 130.254 111.302, 129.075 111.199, 128.772 110.984, 127.688 110.871, 127.120 110.804, 126.782 110.671, 124.758 110.803, 122.733 110.870, 122.395 110.983, 121.827 111.199, 120.743 111.302, 120.441 111.702, 119.261 111.798, 118.977 111.851, 118.822 111.922, 118.677 112.006, 118.507 112.443, 117.621 112.570, 117.363 112.618, 117.266 112.748, 117.002 112.776, 116.961 112.806, 116.916 112.829, 116.881 112.973, 116.666 113.875, 115.315 115.213, 113.789 116.738, 112.451 118.425, 111.324 120.245, 110.426 122.166, 109.774 124.156, 109.377 126.181, 109.244 128.206, 109.377 130.197, 109.773 132.118, 110.425 133.938, 111.322 135.626, 112.449 137.152, 113.787 138.490, 115.313 139.335, 116.577 139.559, 116.914 139.590, 116.959 139.617, 117.000 139.627, 117.020 139.695, 117.158 140.063, 117.905 140.147, 118.075 140.272, 118.328 140.369, 118.524 140.515, 118.821 140.768, 119.567 141.088, 120.509 141.167, 120.742 141.200, 120.908 141.563, 122.733 141.628, 123.718 141.696, 124.758 141.627, 125.798 141.563, 126.783 141.200, 128.608 141.167, 128.773 141.087, 129.007 140.768, 129.948 140.514, 130.695 140.368, 130.991 140.271, 131.187 140.146, 131.440 140.091, 131.554 139.939, 131.861 139.833, 132.075 139.789, 132.165 139.616, 132.515 138.489, 134.202 137.151, 135.727 135.625, 137.065 133.937, 138.192 132.117, 139.089 130.196, 139.741 128.206, 140.137 " />
            <path fill="none" stroke-width="3.0" stroke-linecap="butt" stroke-opacity="1.0" stroke="rgb(0, 0, 0)" stroke-linejoin="round" d=" M 127.896, 137.918 126.159, 138.031 124.423, 137.917 122.717, 137.578 121.069, 137.018 119.509, 136.249 118.062, 135.282 116.754, 134.135 115.607, 132.826 114.640, 131.380 113.967, 130.014 113.871, 129.819 113.461, 128.614 113.386, 128.392 113.311, 128.172 112.972, 126.465 112.858, 124.729 112.972, 122.993 113.311, 121.286 113.386, 121.066 113.461, 120.844 113.870, 119.639 113.966, 119.444 114.640, 118.078 115.606, 116.631 116.753, 115.323 118.061, 114.175 119.508, 113.209 121.069, 112.439 122.716, 111.879 124.423, 111.539 126.160, 111.425 127.896, 111.539 129.603, 111.878 131.251, 112.438 132.812, 113.207 134.259, 114.174 135.567, 115.321 136.715, 116.630 137.682, 118.077 138.102, 118.929 138.451, 119.638 138.608, 120.098 138.683, 120.319 139.011, 121.286 139.240, 122.436 139.350, 122.993 139.464, 124.729 139.350, 126.466 139.239, 127.022 139.010, 128.173 138.682, 129.139 138.607, 129.360 138.451, 129.820 138.101, 130.529 137.681, 131.381 136.714, 132.828 135.567, 134.136 134.258, 135.283 132.811, 136.250 131.250, 137.019 129.602, 137.579 127.896, 137.918 " />
            <path fill="none" stroke-width="3.0" stroke-linecap="butt" stroke-opacity="1.0" stroke="rgb(0, 0, 0)" stroke-linejoin="round" d=" M 127.479, 134.938 126.130, 135.026 124.781, 134.938 123.455, 134.674 122.175, 134.239 120.963, 133.641 119.839, 132.890 118.822, 131.999 117.931, 130.982 117.180, 129.858 116.582, 128.646 116.148, 127.366 115.884, 126.040 115.795, 124.691 115.884, 123.342 116.147, 122.016 116.582, 120.736 117.180, 119.523 117.931, 118.399 118.822, 117.382 119.839, 116.491 120.963, 115.740 122.175, 115.142 123.455, 114.707 124.781, 114.443 126.130, 114.354 127.480, 114.443 128.806, 114.706 130.086, 115.141 131.299, 115.739 132.423, 116.490 133.440, 117.381 134.331, 118.398 135.082, 119.522 135.681, 120.735 136.115, 122.015 136.379, 123.341 136.467, 124.691 136.379, 126.040 136.115, 127.366 135.680, 128.646 135.082, 129.859 134.331, 130.983 133.439, 131.999 132.423, 132.891 131.298, 133.642 130.086, 134.240 128.805, 134.674 127.479, 134.938 " />
            <path fill="none" stroke-width="3.0" stroke-linecap="butt" stroke-opacity="1.0" stroke="rgb(0, 0, 0)" stroke-linejoin="round" d=" M 127.660, 136.230 126.143, 136.329 124.626, 136.229 123.135, 135.933 121.696, 135.444 120.332, 134.771 119.069, 133.927 117.926, 132.924 116.924, 131.782 116.079, 130.518 115.407, 129.154 114.918, 127.715 114.622, 126.224 114.522, 124.707 114.622, 123.190 114.918, 121.700 115.407, 120.260 116.079, 118.897 116.923, 117.633 117.925, 116.490 119.068, 115.487 120.332, 114.643 121.696, 113.970 123.135, 113.481 124.626, 113.184 126.143, 113.085 127.660, 113.184 129.151, 113.481 130.591, 113.969 131.955, 114.642 133.219, 115.486 134.362, 116.489 135.364, 117.632 136.209, 118.896 136.882, 120.259 137.370, 121.699 137.667, 123.190 137.766, 124.707 137.667, 126.224 137.370, 127.716 136.881, 129.155 136.209, 130.519 135.364, 131.783 134.361, 132.926 133.218, 133.928 131.954, 134.772 130.591, 135.445 129.151, 135.933 127.660, 136.230 " />
            <path fill="none" stroke-width="3.0" stroke-linecap="butt" stroke-opacity="1.0" stroke="rgb(0, 0, 0)" stroke-linejoin="round" d=" M 83.080, 139.892 83.079, 129.892 83.077, 119.892 83.076, 110.409 " />
            <path fill="none" stroke-width="3.0" stroke-linecap="butt" stroke-opacity="1.0" stroke="rgb(0, 0, 0)" stroke-linejoin="round" d=" M 83.935, 142.410 83.933, 132.410 83.932, 122.409 83.930, 112.410 83.930, 107.892 " />
            <path fill="none" stroke-width="3.0" stroke-linecap="butt" stroke-opacity="1.0" stroke="rgb(0, 0, 0)" stroke-linejoin="round" d=" M 95.713, 127.587 95.712, 122.324 " />
            <path fill="none" stroke-width="3.0" stroke-linecap="butt" stroke-opacity="1.0" stroke="rgb(0, 0, 0)" stroke-linejoin="round" d=" M 98.497, 137.980 98.496, 127.980 98.495, 117.980 98.494, 111.930 " />
            <path fill="none" stroke-width="3.0" stroke-linecap="butt" stroke-opacity="1.0" stroke="rgb(0, 0, 0)" stroke-linejoin="round" d=" M 104.107, 131.619 104.107, 126.477 104.106, 122.981 104.106, 118.095 " />
            <path fill="none" stroke-width="3.0" stroke-linecap="butt" stroke-opacity="1.0" stroke="rgb(0, 0, 0)" stroke-linejoin="round" d=" M 107.804, 127.304 107.804, 122.291 " />
            <path fill="none" stroke-width="3.0" stroke-linecap="butt" stroke-opacity="1.0" stroke="rgb(0, 0, 0)" stroke-linejoin="round" d=" M 141.628, 123.718 141.627, 125.798 " />
            <path fill="none" stroke-width="3.0" stroke-linecap="butt" stroke-opacity="1.0" stroke="rgb(0, 0, 0)" stroke-linejoin="round" d=" M 144.271, 120.514 144.271, 129.081 " />
            <path fill="none" stroke-width="3.0" stroke-linecap="butt" stroke-opacity="1.0" stroke="rgb(0, 0, 0)" stroke-linejoin="round" d=" M 147.974, 116.791 147.974, 120.968 147.973, 128.491 147.972, 132.923 " />
            <path fill="none" stroke-width="3.0" stroke-linecap="butt" stroke-opacity="1.0" stroke="rgb(0, 0, 0)" stroke-linejoin="round" d=" M 153.594, 110.733 153.593, 120.733 153.592, 130.733 153.591, 138.217 153.591, 138.943 153.591, 139.174 153.591, 139.177 " />
            <path fill="none" stroke-width="3.0" stroke-linecap="butt" stroke-opacity="1.0" stroke="rgb(0, 0, 0)" stroke-linejoin="round" d=" M 156.379, 131.462 156.380, 121.462 156.381, 118.449 " />
            <path fill="none" stroke-width="3.0" stroke-linecap="butt" stroke-opacity="1.0" stroke="rgb(0, 0, 0)" stroke-linejoin="round" d=" M 156.822, 120.667 156.821, 129.245 " />
            <path fill="none" stroke-width="3.0" stroke-linecap="butt" stroke-opacity="1.0" stroke="rgb(0, 0, 0)" stroke-linejoin="round" d=" M 168.178, 144.297 168.180, 134.297 168.182, 124.297 168.183, 114.297 168.185, 106.005 " />
            <path fill="none" stroke-width="3.0" stroke-linecap="butt" stroke-opacity="1.0" stroke="rgb(0, 0, 0)" stroke-linejoin="round" d=" M 169.040, 107.821 169.039, 117.821 169.037, 127.821 169.035, 137.821 169.035, 142.481 " />
        </g>
    </g>
</svg>
