<?xml version='1.0' encoding='ascii'?>
<svg xmlns="http://www.w3.org/2000/svg" version="1.1" width="250" height="250">
    <g id="ViewLayer_LineSet" xmlns:inkscape="http://www.inkscape.org/namespaces/inkscape" inkscape:groupmode="lineset" inkscape:label="ViewLayer_LineSet">
        <g xmlns:inkscape="http://www.inkscape.org/namespaces/inkscape" inkscape:groupmode="layer" id="strokes" inkscape:label="strokes">
            <path fill="none" stroke-width="3.0" stroke-linecap="butt" stroke-opacity="1.0" stroke="rgb(0, 0, 0)" stroke-linejoin="round" d=" M 142.045, 239.479 132.066, 240.122 127.102, 240.443 117.124, 239.779 112.163, 239.449 102.357, 237.490 97.483, 236.516 88.016, 233.294 83.312, 231.693 74.346, 227.264 69.893, 225.064 61.581, 219.503 57.454, 216.742 49.938, 210.145 46.207, 206.869 39.616, 199.349 36.344, 195.615 30.790, 187.300 28.033, 183.172 26.330, 179.719 24.063, 175.120 21.416, 169.751 18.200, 160.282 16.605, 155.582 14.652, 145.775 13.682, 140.907 13.025, 130.928 12.698, 125.975 13.347, 115.996 13.670, 111.041 15.615, 101.232 16.581, 96.361 19.789, 86.889 21.382, 82.185 25.798, 73.212 26.943, 70.886 27.992, 68.754 29.631, 66.297 35.180, 57.977 36.299, 56.299 42.885, 48.775 46.160, 45.033 53.672, 38.432 57.409, 35.149 65.718, 29.584 69.853, 26.815 78.817, 22.383 83.280, 20.176 92.746, 16.952 97.460, 15.346 107.266, 13.385 112.152, 12.408 122.130, 11.744 127.104, 11.413 137.083, 12.058 142.060, 12.380 151.869, 14.322 156.763, 15.291 166.234, 18.498 170.961, 20.098 179.933, 24.515 184.411, 26.720 192.729, 32.271 196.882, 35.042 204.403, 41.632 208.159, 44.923 214.755, 52.439 218.050, 56.193 223.607, 64.507 224.137, 65.300 226.383, 68.660 226.993, 69.898 231.417, 78.866 233.016, 82.108 236.229, 91.578 237.835, 96.308 239.783, 106.116 240.757, 111.015 241.407, 120.994 241.732, 125.978 241.073, 135.956 240.744, 140.939 238.787, 150.745 237.810, 155.641 234.589, 165.108 232.981, 169.833 229.912, 176.043 227.600, 180.722 226.340, 183.271 220.777, 191.581 218.002, 195.726 211.401, 203.238 208.110, 206.983 200.585, 213.569 196.834, 216.851 188.513, 222.398 184.368, 225.162 175.394, 229.575 170.925, 231.773 161.452, 234.977 156.737, 236.572 146.927, 238.513 142.045, 239.479 " />
            <path fill="none" stroke-width="3.0" stroke-linecap="butt" stroke-opacity="1.0" stroke="rgb(0, 0, 0)" stroke-linejoin="round" d=" M 51.336, 165.884 52.392, 168.027 57.947, 176.342 58.612, 177.339 65.204, 184.859 65.994, 185.760 73.510, 192.356 74.411, 193.147 82.724, 198.706 83.721, 199.373 92.687, 203.801 93.764, 204.332 103.231, 207.552 104.368, 207.939 114.175, 209.896 115.354, 210.132 125.332, 210.793 126.532, 210.872 136.511, 210.226 137.713, 210.148 147.522, 208.205 148.705, 207.970 158.177, 204.764 159.319, 204.377 168.292, 199.961 169.375, 199.428 177.694, 193.879 178.700, 193.208 186.223, 186.620 187.133, 185.823 193.732, 178.310 194.531, 177.400 200.093, 169.089 200.767, 168.082 201.619, 166.355 " />
            <path fill="none" stroke-width="3.0" stroke-linecap="butt" stroke-opacity="1.0" stroke="rgb(0, 0, 0)" stroke-linejoin="round" d=" M 133.241, 176.182 126.532, 176.619 119.824, 176.176 113.231, 174.862 106.867, 172.699 100.839, 169.724 95.251, 165.988 90.199, 161.556 85.768, 156.502 82.034, 150.913 81.254, 149.330 80.235, 147.265 80.055, 146.900 79.062, 144.885 79.034, 144.804 76.901, 138.521 75.589, 131.929 75.149, 125.222 75.587, 118.515 76.897, 111.922 79.028, 105.638 79.055, 105.557 80.048, 103.541 81.546, 100.502 81.565, 100.462 82.026, 99.527 82.770, 98.412 85.759, 93.935 90.189, 88.879 95.242, 84.444 100.831, 80.706 106.861, 77.729 113.227, 75.565 119.822, 74.250 126.533, 73.807 133.245, 74.244 139.842, 75.553 146.212, 77.713 152.246, 80.687 157.840, 84.423 162.899, 88.857 167.335, 93.914 170.046, 97.970 171.073, 99.508 171.332, 100.031 172.074, 101.537 173.097, 103.611 174.049, 105.541 176.211, 111.912 177.401, 117.895 177.523, 118.510 177.962, 125.223 177.520, 131.935 177.398, 132.550 176.206, 138.533 174.042, 144.902 173.089, 146.831 172.673, 147.675 172.066, 148.904 171.636, 149.776 171.065, 150.933 167.326, 156.524 162.889, 161.579 157.831, 166.011 152.237, 169.744 146.205, 172.715 139.837, 174.874 133.241, 176.182 " />
            <path fill="none" stroke-width="3.0" stroke-linecap="butt" stroke-opacity="1.0" stroke="rgb(0, 0, 0)" stroke-linejoin="round" d=" M 199.386, 80.249 194.558, 73.026 187.963, 65.509 187.161, 64.595 179.641, 58.005 178.727, 57.204 170.410, 51.652 169.399, 50.977 160.428, 46.559 159.339, 46.023 149.868, 42.814 148.719, 42.424 138.910, 40.480 137.721, 40.244 127.742, 39.597 126.533, 39.519 116.555, 40.180 115.348, 40.260 105.541, 42.219 104.356, 42.455 94.889, 45.677 93.746, 46.066 84.780, 50.496 83.698, 51.031 75.388, 56.593 74.386, 57.264 66.873, 63.863 65.968, 64.657 59.380, 72.180 58.587, 73.086 53.494, 80.719 " />
            <path fill="none" stroke-width="3.0" stroke-linecap="butt" stroke-opacity="1.0" stroke="rgb(0, 0, 0)" stroke-linejoin="round" d=" M 209.676, 75.952 206.499, 75.953 199.386, 80.249 190.826, 85.419 189.485, 86.230 189.482, 96.230 189.480, 106.230 189.477, 116.230 189.475, 126.230 189.473, 136.230 189.470, 146.230 189.468, 156.230 189.467, 159.636 198.218, 164.475 201.619, 166.355 206.471, 169.038 209.647, 169.039 " />
            <path fill="none" stroke-width="3.0" stroke-linecap="butt" stroke-opacity="1.0" stroke="rgb(0, 0, 0)" stroke-linejoin="round" d=" M 206.471, 169.038 206.474, 159.038 206.475, 155.845 206.478, 145.845 206.481, 135.845 206.484, 125.845 206.487, 115.845 206.490, 105.845 206.493, 95.845 206.493, 94.594 206.496, 84.594 206.499, 75.953 " />
            <path fill="none" stroke-width="3.0" stroke-linecap="butt" stroke-opacity="1.0" stroke="rgb(0, 0, 0)" stroke-linejoin="round" d=" M 42.580, 168.976 45.746, 168.977 51.336, 165.884 60.086, 161.043 62.697, 159.598 62.695, 149.598 62.693, 139.598 62.691, 129.598 62.688, 119.598 62.686, 109.598 62.684, 99.598 62.681, 89.598 62.681, 86.271 54.122, 81.098 53.494, 80.719 45.719, 76.019 42.552, 76.021 " />
            <path fill="none" stroke-width="3.0" stroke-linecap="butt" stroke-opacity="1.0" stroke="rgb(0, 0, 0)" stroke-linejoin="round" d=" M 45.746, 168.977 45.743, 158.977 45.741, 152.979 45.738, 142.979 45.735, 132.979 45.732, 122.979 45.729, 112.979 45.726, 102.979 45.725, 97.459 45.722, 87.459 45.719, 77.459 45.719, 76.019 " />
            <path fill="none" stroke-width="3.0" stroke-linecap="butt" stroke-opacity="1.0" stroke="rgb(0, 0, 0)" stroke-linejoin="round" d=" M 26.330, 179.719 35.080, 174.878 42.581, 170.728 42.580, 168.976 42.579, 165.938 42.576, 155.938 42.573, 145.938 42.572, 141.010 42.569, 131.010 42.566, 121.010 42.562, 111.010 42.562, 109.432 42.559, 99.432 42.556, 89.432 42.553, 79.341 42.552, 76.021 42.551, 74.105 33.993, 68.933 29.631, 66.297 " />
            <path fill="none" stroke-width="3.0" stroke-linecap="butt" stroke-opacity="1.0" stroke="rgb(0, 0, 0)" stroke-linejoin="round" d=" M 224.137, 65.300 215.577, 70.470 209.677, 74.033 209.676, 75.952 209.675, 79.274 209.672, 89.274 209.669, 99.274 209.667, 104.595 209.664, 114.595 209.661, 124.595 209.658, 134.595 209.655, 144.595 209.654, 145.848 209.651, 155.848 209.648, 166.000 209.647, 169.039 209.647, 170.794 218.398, 175.633 227.149, 180.472 227.600, 180.722 " />
            <path fill="none" stroke-width="3.0" stroke-linecap="butt" stroke-opacity="1.0" stroke="rgb(0, 0, 0)" stroke-linejoin="round" d=" M 130.681, 157.857 126.354, 158.139 122.027, 157.854 117.774, 157.007 113.668, 155.612 109.779, 153.694 106.174, 151.284 102.915, 148.425 100.056, 145.165 97.648, 141.559 96.888, 140.019 96.744, 139.727 96.487, 139.206 95.730, 137.671 95.437, 136.807 94.336, 133.565 93.751, 130.623 93.514, 129.434 93.490, 129.313 93.251, 125.662 93.206, 124.986 93.250, 124.310 93.489, 120.659 93.513, 120.538 93.750, 119.348 94.334, 116.406 95.434, 113.164 95.727, 112.300 96.885, 109.951 97.344, 109.019 97.644, 108.411 97.929, 107.984 100.053, 104.804 102.911, 101.543 106.171, 98.683 109.776, 96.272 113.665, 94.353 117.772, 92.958 122.026, 92.110 126.354, 91.825 130.683, 92.108 134.938, 92.953 139.046, 94.346 142.937, 96.264 146.544, 98.674 149.807, 101.534 152.667, 104.796 154.793, 107.976 155.078, 108.403 155.206, 108.662 155.244, 108.741 156.657, 111.604 156.997, 112.294 158.346, 116.270 158.391, 116.402 158.581, 117.356 158.847, 118.693 159.237, 120.657 159.521, 124.986 159.236, 129.315 158.845, 131.280 158.579, 132.616 158.389, 133.570 158.344, 133.703 156.994, 137.678 156.654, 138.367 156.111, 139.466 155.979, 139.735 155.508, 140.688 155.443, 140.821 155.074, 141.568 152.663, 145.174 149.802, 148.434 146.540, 151.293 142.933, 153.702 139.042, 155.619 134.935, 157.012 130.681, 157.857 " />
            <path fill="none" stroke-width="3.0" stroke-linecap="butt" stroke-opacity="1.0" stroke="rgb(0, 0, 0)" stroke-linejoin="round" d=" M 81.254, 149.330 86.166, 146.613 86.166, 144.916 86.166, 144.324 86.164, 134.324 86.164, 132.164 86.163, 122.164 86.162, 117.584 86.160, 107.584 86.160, 102.961 86.160, 102.315 86.159, 100.461 82.770, 98.412 " />
            <path fill="none" stroke-width="3.0" stroke-linecap="butt" stroke-opacity="1.0" stroke="rgb(0, 0, 0)" stroke-linejoin="round" d=" M 170.046, 97.970 165.950, 100.444 165.950, 102.299 165.950, 102.945 165.948, 112.945 165.948, 115.284 165.946, 125.284 165.945, 134.465 165.944, 144.339 165.943, 144.930 165.943, 146.628 171.636, 149.776 " />
            <path fill="none" stroke-width="3.0" stroke-linecap="butt" stroke-opacity="1.0" stroke="rgb(0, 0, 0)" stroke-linejoin="round" d=" M 128.754, 144.060 126.219, 144.225 123.685, 144.059 121.194, 143.563 118.789, 142.746 116.511, 141.623 114.400, 140.212 112.491, 138.537 110.816, 136.627 109.405, 134.516 109.110, 133.918 109.030, 133.756 108.893, 133.476 108.883, 133.458 108.727, 133.140 108.726, 133.137 108.720, 133.127 108.282, 132.238 108.080, 131.643 107.854, 130.978 107.466, 129.833 107.113, 128.060 107.062, 127.806 106.970, 127.342 106.909, 126.407 106.804, 124.808 106.909, 123.209 106.970, 122.274 107.062, 121.810 107.113, 121.556 107.465, 119.783 107.853, 118.639 108.079, 117.973 108.281, 117.378 108.719, 116.489 108.892, 116.139 109.029, 115.860 109.228, 115.456 109.364, 115.181 109.404, 115.100 109.582, 114.834 109.685, 114.679 110.815, 112.988 112.489, 111.078 114.399, 109.403 116.510, 107.992 118.788, 106.868 121.193, 106.051 123.685, 105.555 126.220, 105.388 128.754, 105.554 131.246, 106.049 133.652, 106.866 135.930, 107.989 138.043, 109.400 139.953, 111.075 141.628, 112.985 142.652, 114.517 142.862, 114.831 143.040, 115.097 143.044, 115.107 143.079, 115.178 143.137, 115.295 143.182, 115.386 143.353, 115.734 143.994, 117.034 144.163, 117.376 144.222, 117.548 144.963, 119.733 144.980, 119.782 145.013, 119.947 145.166, 120.720 145.475, 122.273 145.641, 124.808 145.475, 127.343 145.166, 128.896 145.012, 129.669 144.979, 129.835 144.963, 129.883 144.221, 132.069 144.162, 132.240 143.993, 132.583 143.560, 133.460 143.311, 133.965 143.274, 134.041 143.254, 134.081 143.038, 134.519 141.627, 136.631 139.951, 138.540 138.041, 140.215 135.929, 141.626 133.651, 142.749 131.245, 143.565 128.754, 144.060 " />
            <path fill="none" stroke-width="3.0" stroke-linecap="butt" stroke-opacity="1.0" stroke="rgb(0, 0, 0)" stroke-linejoin="round" d=" M 129.469, 149.179 126.269, 149.388 123.070, 149.177 119.925, 148.551 116.889, 147.520 114.014, 146.101 111.348, 144.320 108.938, 142.206 106.824, 139.795 105.043, 137.129 104.671, 136.374 104.404, 135.835 104.351, 135.727 104.185, 135.389 104.159, 135.338 103.625, 134.254 103.503, 133.896 103.286, 133.256 103.099, 132.705 102.594, 131.218 101.969, 128.073 101.759, 124.874 101.968, 121.675 102.593, 118.530 103.098, 117.042 103.285, 116.492 103.502, 115.852 103.623, 115.494 104.158, 114.410 104.819, 113.068 105.041, 112.618 105.217, 112.354 105.296, 112.237 105.396, 112.087 106.822, 109.952 108.936, 107.541 111.346, 105.426 114.012, 103.644 116.888, 102.225 119.924, 101.193 123.069, 100.567 126.269, 100.357 129.470, 100.566 132.615, 101.191 135.653, 102.221 138.530, 103.639 141.197, 105.421 143.608, 107.536 145.723, 109.947 147.016, 111.881 147.251, 112.232 147.329, 112.350 147.505, 112.614 147.629, 112.864 147.922, 113.458 148.577, 114.788 148.795, 115.228 148.924, 115.491 148.983, 115.665 149.955, 118.528 150.455, 121.040 150.581, 121.674 150.790, 124.874 150.580, 128.075 150.454, 128.708 149.954, 131.221 148.982, 134.083 148.922, 134.258 148.793, 134.520 148.576, 134.960 148.270, 135.580 148.195, 135.731 148.142, 135.839 147.920, 136.289 147.776, 136.582 147.503, 137.134 145.721, 139.800 143.606, 142.211 141.194, 144.325 138.527, 146.106 135.651, 147.524 132.614, 148.554 129.469, 149.179 " />
            <path fill="none" stroke-width="3.0" stroke-linecap="butt" stroke-opacity="1.0" stroke="rgb(0, 0, 0)" stroke-linejoin="round" d=" M 155.206, 108.662 155.206, 108.762 155.205, 110.546 155.204, 120.546 155.203, 130.546 155.202, 139.016 155.202, 139.070 155.202, 139.735 155.202, 140.688 155.443, 140.821 " />
            <path fill="none" stroke-width="3.0" stroke-linecap="butt" stroke-opacity="1.0" stroke="rgb(0, 0, 0)" stroke-linejoin="round" d=" M 128.287, 140.716 126.187, 140.853 124.087, 140.715 122.023, 140.304 120.030, 139.628 118.143, 138.697 116.394, 137.527 114.812, 136.140 113.425, 134.558 112.256, 132.808 112.011, 132.313 111.997, 132.284 111.886, 132.058 111.726, 131.734 111.704, 131.690 111.692, 131.666 111.644, 131.569 111.556, 131.390 111.381, 131.035 111.325, 130.921 111.279, 130.785 110.902, 129.675 110.649, 128.929 110.516, 128.262 110.446, 127.912 110.238, 126.865 110.100, 124.765 110.238, 122.665 110.446, 121.618 110.515, 121.269 110.648, 120.602 110.901, 119.855 111.278, 118.744 111.324, 118.609 111.380, 118.495 111.555, 118.140 111.644, 117.961 112.062, 117.112 112.109, 117.017 112.234, 116.765 112.255, 116.722 112.258, 116.717 112.471, 116.399 112.488, 116.373 113.424, 114.972 114.811, 113.389 116.393, 112.002 118.143, 110.832 120.030, 109.901 122.023, 109.224 124.087, 108.813 126.187, 108.676 128.287, 108.813 130.351, 109.223 132.344, 109.900 134.232, 110.830 135.982, 112.000 137.565, 113.387 138.953, 114.970 139.882, 116.360 140.008, 116.548 140.119, 116.715 140.122, 116.720 140.143, 116.763 140.203, 116.884 140.426, 117.336 140.514, 117.515 140.691, 117.872 140.793, 118.079 141.053, 118.607 141.169, 118.949 141.556, 120.090 141.625, 120.292 141.730, 120.601 142.131, 122.618 142.140, 122.665 142.278, 124.765 142.140, 126.865 142.131, 126.913 141.729, 128.930 141.624, 129.238 141.556, 129.440 141.169, 130.581 141.052, 130.923 140.792, 131.451 140.690, 131.658 140.624, 131.790 140.491, 132.060 140.380, 132.286 140.300, 132.448 140.121, 132.810 138.952, 134.560 137.564, 136.142 135.981, 137.530 134.231, 138.699 132.344, 139.629 130.351, 140.305 128.287, 140.716 " />
            <path fill="none" stroke-width="3.0" stroke-linecap="butt" stroke-opacity="1.0" stroke="rgb(0, 0, 0)" stroke-linejoin="round" d=" M 127.955, 138.341 126.164, 138.458 124.372, 138.341 122.612, 137.990 120.912, 137.413 119.302, 136.619 117.809, 135.622 116.460, 134.438 115.276, 133.088 114.279, 131.596 113.668, 130.356 113.485, 129.986 113.136, 128.958 113.057, 128.726 112.908, 128.286 112.558, 126.526 112.471, 125.197 112.441, 124.735 112.471, 124.272 112.558, 122.943 112.908, 121.183 113.057, 120.743 113.136, 120.511 113.485, 119.483 113.667, 119.113 114.279, 117.873 115.276, 116.380 116.459, 115.030 117.809, 113.846 119.301, 112.849 120.912, 112.055 122.611, 111.477 124.372, 111.127 126.164, 111.009 127.955, 111.127 129.716, 111.477 131.416, 112.054 133.027, 112.848 134.520, 113.845 135.870, 115.029 137.054, 116.379 138.051, 117.871 138.401, 118.581 138.845, 119.482 138.933, 119.740 139.012, 119.973 139.422, 121.182 139.599, 122.070 139.773, 122.943 139.832, 123.855 139.890, 124.735 139.832, 125.614 139.772, 126.526 139.599, 127.399 139.422, 128.287 139.011, 129.496 138.932, 129.729 138.845, 129.987 138.400, 130.888 138.050, 131.597 137.053, 133.090 135.869, 134.440 134.519, 135.623 133.026, 136.621 131.416, 137.414 129.716, 137.991 127.955, 138.341 " />
            <path fill="none" stroke-width="3.0" stroke-linecap="butt" stroke-opacity="1.0" stroke="rgb(0, 0, 0)" stroke-linejoin="round" d=" M 127.515, 135.192 126.133, 135.282 124.751, 135.191 123.393, 134.921 122.081, 134.476 120.839, 133.863 119.687, 133.094 118.646, 132.180 117.733, 131.139 116.964, 129.988 116.351, 128.746 115.906, 127.434 115.636, 126.076 115.545, 124.694 115.636, 123.312 115.906, 121.954 116.351, 120.642 116.963, 119.400 117.733, 118.248 118.646, 117.207 119.687, 116.294 120.839, 115.524 122.081, 114.911 123.392, 114.466 124.751, 114.196 126.133, 114.105 127.515, 114.195 128.874, 114.466 130.185, 114.911 131.428, 115.523 132.579, 116.293 133.621, 117.206 134.534, 118.247 135.304, 119.399 135.917, 120.641 136.362, 121.953 136.632, 123.312 136.723, 124.694 136.632, 126.076 136.362, 127.435 135.916, 128.746 135.303, 129.989 134.534, 131.140 133.620, 132.181 132.579, 133.095 131.427, 133.864 130.185, 134.477 128.873, 134.922 127.515, 135.192 " />
            <path fill="none" stroke-width="3.0" stroke-linecap="butt" stroke-opacity="1.0" stroke="rgb(0, 0, 0)" stroke-linejoin="round" d=" M 127.705, 136.551 126.146, 136.653 124.587, 136.551 123.055, 136.246 121.576, 135.744 120.175, 135.053 118.877, 134.185 117.702, 133.155 116.673, 131.981 115.805, 130.682 115.114, 129.281 114.612, 127.802 114.307, 126.270 114.205, 124.711 114.307, 123.153 114.612, 121.621 115.114, 120.142 115.804, 118.741 116.672, 117.442 117.702, 116.267 118.876, 115.237 120.175, 114.369 121.576, 113.678 123.055, 113.176 124.587, 112.871 126.146, 112.768 127.705, 112.871 129.237, 113.175 130.717, 113.677 132.118, 114.368 133.417, 115.236 134.592, 116.266 135.622, 117.441 136.490, 118.740 137.181, 120.141 137.683, 121.620 137.988, 123.153 138.090, 124.712 137.988, 126.270 137.683, 127.803 137.180, 129.282 136.489, 130.683 135.621, 131.982 134.591, 133.156 133.416, 134.186 132.117, 135.054 130.716, 135.745 129.237, 136.247 127.705, 136.551 " />
            <path fill="none" stroke-width="3.0" stroke-linecap="butt" stroke-opacity="1.0" stroke="rgb(0, 0, 0)" stroke-linejoin="round" d=" M 79.034, 144.804 79.033, 134.804 79.031, 124.804 79.029, 114.804 79.028, 105.638 " />
            <path fill="none" stroke-width="3.0" stroke-linecap="butt" stroke-opacity="1.0" stroke="rgb(0, 0, 0)" stroke-linejoin="round" d=" M 80.055, 146.900 80.054, 136.900 80.052, 126.900 80.050, 116.900 80.049, 106.900 80.048, 103.541 " />
            <path fill="none" stroke-width="3.0" stroke-linecap="butt" stroke-opacity="1.0" stroke="rgb(0, 0, 0)" stroke-linejoin="round" d=" M 93.251, 125.662 93.250, 124.310 " />
            <path fill="none" stroke-width="3.0" stroke-linecap="butt" stroke-opacity="1.0" stroke="rgb(0, 0, 0)" stroke-linejoin="round" d=" M 93.751, 130.623 93.750, 120.623 93.750, 119.348 " />
            <path fill="none" stroke-width="3.0" stroke-linecap="butt" stroke-opacity="1.0" stroke="rgb(0, 0, 0)" stroke-linejoin="round" d=" M 96.888, 140.019 96.888, 139.727 96.888, 139.007 96.888, 138.326 96.887, 128.326 96.886, 118.326 96.885, 111.289 96.885, 109.951 " />
            <path fill="none" stroke-width="3.0" stroke-linecap="butt" stroke-opacity="1.0" stroke="rgb(0, 0, 0)" stroke-linejoin="round" d=" M 103.099, 132.705 103.099, 122.705 103.098, 117.042 " />
            <path fill="none" stroke-width="3.0" stroke-linecap="butt" stroke-opacity="1.0" stroke="rgb(0, 0, 0)" stroke-linejoin="round" d=" M 107.113, 128.060 107.113, 121.556 " />
            <path fill="none" stroke-width="3.0" stroke-linecap="butt" stroke-opacity="1.0" stroke="rgb(0, 0, 0)" stroke-linejoin="round" d=" M 142.131, 122.618 142.131, 126.913 " />
            <path fill="none" stroke-width="3.0" stroke-linecap="butt" stroke-opacity="1.0" stroke="rgb(0, 0, 0)" stroke-linejoin="round" d=" M 144.963, 119.733 144.963, 129.733 144.963, 129.883 " />
            <path fill="none" stroke-width="3.0" stroke-linecap="butt" stroke-opacity="1.0" stroke="rgb(0, 0, 0)" stroke-linejoin="round" d=" M 148.983, 115.665 148.983, 123.818 148.982, 125.651 148.982, 134.083 " />
            <path fill="none" stroke-width="3.0" stroke-linecap="butt" stroke-opacity="1.0" stroke="rgb(0, 0, 0)" stroke-linejoin="round" d=" M 158.344, 133.703 158.345, 128.585 158.346, 121.031 158.346, 116.270 " />
            <path fill="none" stroke-width="3.0" stroke-linecap="butt" stroke-opacity="1.0" stroke="rgb(0, 0, 0)" stroke-linejoin="round" d=" M 158.847, 118.693 158.845, 128.693 158.845, 131.280 " />
            <path fill="none" stroke-width="3.0" stroke-linecap="butt" stroke-opacity="1.0" stroke="rgb(0, 0, 0)" stroke-linejoin="round" d=" M 172.066, 148.904 172.068, 138.904 172.070, 128.904 172.071, 118.904 172.073, 108.904 172.074, 101.537 " />
            <path fill="none" stroke-width="3.0" stroke-linecap="butt" stroke-opacity="1.0" stroke="rgb(0, 0, 0)" stroke-linejoin="round" d=" M 173.097, 103.611 173.095, 113.611 173.094, 123.611 173.092, 133.611 173.090, 143.611 173.089, 146.831 " />
        </g>
    </g>
</svg>
