<?xml version='1.0' encoding='ascii'?>
<svg xmlns="http://www.w3.org/2000/svg" version="1.1" width="250" height="250">
    <g id="ViewLayer_LineSet" xmlns:inkscape="http://www.inkscape.org/namespaces/inkscape" inkscape:groupmode="lineset" inkscape:label="ViewLayer_LineSet">
        <g xmlns:inkscape="http://www.inkscape.org/namespaces/inkscape" inkscape:groupmode="layer" id="strokes" inkscape:label="strokes">
            <path fill="none" stroke-width="3.0" stroke-linecap="butt" stroke-opacity="1.0" stroke="rgb(0, 0, 0)" stroke-linejoin="round" d=" M 218.786, 70.880 214.895, 70.882 206.335, 76.052 204.875, 76.934 196.315, 82.104 194.593, 83.144 194.590, 93.144 194.588, 103.144 194.585, 113.144 194.583, 123.144 194.580, 133.144 194.577, 143.144 194.575, 153.144 194.573, 162.459 203.324, 167.298 207.273, 169.482 214.861, 173.677 218.750, 173.679 " />
            <path fill="none" stroke-width="3.0" stroke-linecap="butt" stroke-opacity="1.0" stroke="rgb(0, 0, 0)" stroke-linejoin="round" d=" M 214.861, 173.677 214.864, 163.677 214.867, 153.677 214.868, 151.200 214.871, 141.200 214.875, 131.200 214.878, 121.200 214.881, 111.200 214.885, 101.200 214.885, 99.341 214.889, 89.341 214.892, 79.341 214.895, 70.882 " />
            <path fill="none" stroke-width="3.0" stroke-linecap="butt" stroke-opacity="1.0" stroke="rgb(0, 0, 0)" stroke-linejoin="round" d=" M 33.510, 173.601 37.385, 173.603 45.756, 168.971 54.506, 164.130 57.607, 162.414 57.604, 152.414 57.602, 142.414 57.599, 132.414 57.597, 122.414 57.594, 112.414 57.592, 102.414 57.589, 92.414 57.587, 83.192 49.029, 78.020 48.074, 77.443 39.516, 72.271 37.352, 70.963 33.475, 70.965 " />
            <path fill="none" stroke-width="3.0" stroke-linecap="butt" stroke-opacity="1.0" stroke="rgb(0, 0, 0)" stroke-linejoin="round" d=" M 37.385, 173.603 37.382, 163.603 37.378, 153.603 37.376, 147.456 37.373, 137.456 37.370, 127.456 37.367, 117.456 37.363, 107.456 37.362, 103.084 37.359, 93.084 37.356, 83.084 37.352, 73.084 37.352, 70.963 " />
            <path fill="none" stroke-width="3.0" stroke-linecap="butt" stroke-opacity="1.0" stroke="rgb(0, 0, 0)" stroke-linejoin="round" d=" M -7.758, 198.580 0.992, 193.738 9.742, 188.897 18.492, 184.056 27.242, 179.214 33.510, 175.746 33.510, 173.601 33.509, 170.436 33.505, 160.436 33.502, 150.436 33.498, 140.436 33.495, 130.436 33.492, 120.436 33.488, 110.436 33.485, 100.436 33.482, 90.436 33.478, 80.436 33.476, 74.424 33.475, 70.965 33.474, 68.619 24.916, 63.447 16.358, 58.275 7.799, 53.102 -0.759, 47.930 -7.833, 43.654 " />
            <path fill="none" stroke-width="3.0" stroke-linecap="butt" stroke-opacity="1.0" stroke="rgb(0, 0, 0)" stroke-linejoin="round" d=" M 260.279, 43.469 251.720, 48.639 243.160, 53.810 234.600, 58.980 226.040, 64.150 218.787, 68.531 218.786, 70.880 218.785, 74.342 218.781, 84.342 218.778, 94.342 218.774, 104.342 218.771, 114.342 218.767, 124.342 218.764, 134.342 218.760, 144.342 218.757, 154.342 218.753, 164.342 218.751, 170.512 218.750, 173.679 218.749, 175.828 227.501, 180.667 236.252, 185.506 245.003, 190.345 253.754, 195.184 260.202, 198.749 " />
            <path fill="none" stroke-width="3.0" stroke-linecap="butt" stroke-opacity="1.0" stroke="rgb(0, 0, 0)" stroke-linejoin="round" d=" M 45.756, 168.971 46.892, 171.273 52.446, 179.589 53.576, 181.281 60.168, 188.801 61.509, 190.332 69.025, 196.928 70.555, 198.271 78.868, 203.830 80.560, 204.962 89.526, 209.390 91.353, 210.292 100.820, 213.513 102.750, 214.169 112.556, 216.127 114.556, 216.526 124.534, 217.188 126.570, 217.323 136.549, 216.677 138.586, 216.545 148.396, 214.602 150.400, 214.205 159.872, 210.999 161.808, 210.344 170.780, 205.929 172.616, 205.026 180.935, 199.477 182.638, 198.341 190.162, 191.754 191.703, 190.405 198.302, 182.892 199.655, 181.352 205.216, 173.041 206.357, 171.337 207.273, 169.482 " />
            <path fill="none" stroke-width="3.0" stroke-linecap="butt" stroke-opacity="1.0" stroke="rgb(0, 0, 0)" stroke-linejoin="round" d=" M 133.781, 180.041 126.570, 180.510 119.360, 180.034 112.275, 178.622 105.435, 176.297 98.957, 173.099 92.951, 169.084 87.521, 164.320 82.760, 158.889 78.747, 152.882 77.908, 151.182 77.337, 150.022 76.814, 148.962 76.190, 147.696 75.552, 146.404 73.230, 139.564 71.820, 132.480 71.698, 130.622 71.347, 125.272 71.696, 119.922 71.818, 118.064 73.225, 110.978 75.545, 104.137 76.181, 102.844 77.328, 100.518 78.238, 98.670 78.738, 97.656 79.537, 96.458 82.749, 91.647 87.511, 86.212 92.941, 81.446 98.948, 77.428 105.427, 74.228 112.270, 71.902 119.358, 70.488 126.571, 70.012 133.784, 70.482 140.875, 71.889 147.722, 74.210 154.207, 77.406 160.220, 81.421 165.657, 86.187 170.425, 91.622 173.338, 95.982 174.443, 97.634 174.720, 98.197 174.801, 98.360 175.950, 100.690 177.641, 104.119 179.965, 110.966 180.443, 113.373 181.374, 118.058 181.723, 123.397 181.846, 125.273 181.723, 127.149 181.371, 132.487 180.438, 137.172 179.959, 139.578 177.633, 146.423 176.161, 149.403 175.941, 149.851 175.116, 151.520 174.432, 152.906 170.414, 158.914 165.645, 164.347 160.208, 169.110 154.197, 173.122 147.713, 176.315 140.869, 178.635 133.781, 180.041 " />
            <path fill="none" stroke-width="3.0" stroke-linecap="butt" stroke-opacity="1.0" stroke="rgb(0, 0, 0)" stroke-linejoin="round" d=" M 204.875, 76.934 199.686, 69.170 193.090, 61.654 191.735, 60.109 184.214, 53.519 182.669, 52.165 174.352, 46.613 172.644, 45.473 163.673, 41.055 161.831, 40.148 152.360, 36.939 150.416, 36.281 140.607, 34.337 138.595, 33.938 128.616, 33.292 126.571, 33.159 116.593, 33.821 114.549, 33.957 104.743, 35.916 102.735, 36.317 93.269, 39.539 91.332, 40.199 82.367, 44.629 80.534, 45.535 72.224, 51.097 70.526, 52.234 63.013, 58.833 61.479, 60.181 54.891, 67.704 53.547, 69.239 48.074, 77.443 " />
            <path fill="none" stroke-width="3.0" stroke-linecap="butt" stroke-opacity="1.0" stroke="rgb(0, 0, 0)" stroke-linejoin="round" d=" M 130.908, 159.476 126.370, 159.772 121.832, 159.474 117.372, 158.585 113.067, 157.123 108.989, 155.111 105.209, 152.584 101.791, 149.586 98.793, 146.167 96.268, 142.386 95.740, 141.316 95.679, 141.193 95.180, 140.181 95.051, 139.919 94.522, 138.847 94.257, 138.308 92.795, 134.003 92.609, 133.068 92.480, 132.417 92.073, 130.372 91.908, 129.544 91.610, 125.007 91.907, 120.470 92.071, 119.641 92.478, 117.596 92.607, 116.945 92.793, 116.010 94.254, 111.704 94.519, 111.165 95.949, 108.264 95.957, 108.248 96.264, 107.625 96.355, 107.489 98.789, 103.844 101.787, 100.424 105.205, 97.424 108.986, 94.897 113.064, 92.884 117.370, 91.420 121.831, 90.532 126.370, 90.233 130.909, 90.529 135.371, 91.415 139.679, 92.877 143.760, 94.888 147.543, 97.415 150.964, 100.414 153.964, 103.834 156.135, 107.084 156.400, 107.480 156.491, 107.617 156.666, 107.971 157.573, 109.810 158.504, 111.697 159.491, 114.605 159.618, 114.981 159.966, 116.005 160.028, 116.315 160.853, 120.467 161.150, 125.007 160.852, 129.547 160.025, 133.699 159.964, 134.009 159.616, 135.033 159.488, 135.409 158.500, 138.316 157.076, 141.202 156.874, 141.613 156.487, 142.395 153.959, 146.177 150.959, 149.596 147.538, 152.594 143.755, 155.120 139.675, 157.130 135.368, 158.591 130.908, 159.476 " />
            <path fill="none" stroke-width="3.0" stroke-linecap="butt" stroke-opacity="1.0" stroke="rgb(0, 0, 0)" stroke-linejoin="round" d=" M 77.908, 151.182 84.138, 147.735 84.137, 145.741 84.137, 145.330 84.136, 135.330 84.134, 125.330 84.133, 115.330 84.131, 105.330 84.131, 101.862 84.131, 101.413 84.130, 99.234 79.537, 96.458 " />
            <path fill="none" stroke-width="3.0" stroke-linecap="butt" stroke-opacity="1.0" stroke="rgb(0, 0, 0)" stroke-linejoin="round" d=" M 174.791, 151.520 174.793, 141.520 174.795, 131.520 174.797, 121.520 174.798, 111.520 174.800, 101.520 174.801, 98.360 " />
            <path fill="none" stroke-width="3.0" stroke-linecap="butt" stroke-opacity="1.0" stroke="rgb(0, 0, 0)" stroke-linejoin="round" d=" M 173.338, 95.982 167.983, 99.216 167.983, 101.396 167.983, 101.844 167.981, 111.844 167.980, 119.030 167.979, 129.030 167.978, 130.738 167.977, 140.738 167.976, 145.347 167.976, 145.757 167.976, 147.752 174.791, 151.520 175.116, 151.520 " />
            <path fill="none" stroke-width="3.0" stroke-linecap="butt" stroke-opacity="1.0" stroke="rgb(0, 0, 0)" stroke-linejoin="round" d=" M 129.575, 149.937 126.277, 150.153 122.978, 149.936 119.737, 149.290 116.607, 148.227 113.643, 146.765 110.896, 144.929 108.411, 142.749 106.232, 140.265 104.396, 137.517 104.013, 136.738 103.692, 136.089 103.637, 135.977 103.629, 135.961 103.512, 135.723 103.000, 134.685 102.935, 134.553 102.773, 134.077 102.529, 133.357 101.872, 131.423 101.227, 128.182 101.036, 125.258 101.011, 124.884 101.035, 124.510 101.227, 121.586 101.871, 118.345 102.527, 116.410 102.772, 115.691 102.933, 115.215 102.998, 115.082 103.627, 113.806 104.166, 112.714 104.394, 112.250 104.507, 112.082 104.589, 111.959 104.760, 111.703 106.230, 109.502 108.409, 107.016 110.894, 104.836 113.642, 102.999 116.606, 101.537 119.736, 100.473 122.978, 99.828 126.277, 99.611 129.576, 99.826 132.818, 100.471 135.949, 101.533 138.915, 102.995 141.664, 104.831 144.150, 107.011 146.330, 109.497 147.663, 111.490 147.973, 111.954 148.055, 112.077 148.167, 112.246 148.294, 112.503 148.453, 112.825 149.082, 114.099 149.309, 114.560 149.555, 115.059 149.630, 115.211 150.693, 118.342 151.047, 120.127 151.337, 121.585 151.553, 124.884 151.337, 128.183 151.046, 129.642 150.691, 131.426 149.628, 134.557 149.553, 134.709 149.307, 135.208 149.080, 135.668 148.956, 135.920 148.925, 135.981 148.870, 136.094 148.451, 136.942 148.446, 136.952 148.165, 137.521 146.328, 140.270 144.148, 142.755 141.662, 144.934 138.913, 146.770 135.947, 148.231 132.817, 149.293 129.575, 149.937 " />
            <path fill="none" stroke-width="3.0" stroke-linecap="butt" stroke-opacity="1.0" stroke="rgb(0, 0, 0)" stroke-linejoin="round" d=" M 156.135, 107.084 156.135, 107.480 156.135, 108.258 156.135, 110.655 156.134, 120.655 156.132, 130.655 156.131, 138.973 156.131, 139.476 156.131, 140.189 156.131, 141.202 156.874, 141.613 " />
            <path fill="none" stroke-width="3.0" stroke-linecap="butt" stroke-opacity="1.0" stroke="rgb(0, 0, 0)" stroke-linejoin="round" d=" M 95.740, 141.316 95.961, 141.193 95.960, 140.181 95.960, 139.467 95.960, 138.212 95.959, 128.212 95.958, 118.212 95.957, 111.416 95.957, 108.268 95.957, 108.248 " />
            <path fill="none" stroke-width="3.0" stroke-linecap="butt" stroke-opacity="1.0" stroke="rgb(0, 0, 0)" stroke-linejoin="round" d=" M 128.820, 144.533 126.224, 144.702 123.628, 144.532 121.077, 144.024 118.613, 143.187 116.281, 142.037 114.118, 140.591 112.162, 138.876 110.447, 136.920 109.002, 134.757 108.697, 134.138 108.569, 133.879 108.439, 133.615 107.852, 132.424 107.762, 132.160 107.489, 131.357 107.016, 129.961 106.717, 128.463 106.707, 128.410 106.547, 127.608 106.508, 127.410 106.338, 124.814 106.508, 122.219 106.547, 122.020 106.706, 121.219 106.717, 121.166 107.015, 119.667 107.489, 118.271 107.761, 117.469 107.851, 117.204 108.372, 116.147 108.568, 115.749 108.711, 115.460 108.821, 115.236 108.941, 114.992 109.001, 114.871 109.141, 114.661 109.289, 114.440 110.446, 112.707 112.161, 110.751 114.117, 109.036 116.280, 107.590 118.613, 106.439 121.076, 105.602 123.628, 105.094 126.224, 104.923 128.820, 105.093 131.373, 105.600 133.837, 106.436 136.170, 107.587 138.334, 109.032 140.291, 110.748 142.006, 112.704 143.055, 114.273 143.312, 114.659 143.363, 114.735 143.452, 114.868 143.506, 114.978 143.512, 114.990 143.552, 115.070 143.701, 115.373 144.313, 116.613 144.587, 117.169 144.603, 117.202 145.359, 119.430 145.369, 119.458 145.440, 119.666 145.528, 120.113 145.947, 122.218 146.117, 124.814 145.947, 127.411 145.528, 129.516 145.439, 129.963 145.368, 130.171 145.359, 130.199 144.602, 132.427 144.586, 132.460 144.312, 133.015 144.014, 133.618 143.756, 134.141 143.717, 134.220 143.672, 134.312 143.451, 134.760 142.005, 136.924 140.289, 138.879 138.333, 140.595 136.169, 142.040 133.835, 143.190 131.372, 144.026 128.820, 144.533 " />
            <path fill="none" stroke-width="3.0" stroke-linecap="butt" stroke-opacity="1.0" stroke="rgb(0, 0, 0)" stroke-linejoin="round" d=" M 127.988, 138.581 126.166, 138.700 124.343, 138.581 122.552, 138.224 120.823, 137.637 119.185, 136.829 117.666, 135.814 116.293, 134.610 115.089, 133.237 114.075, 131.718 113.863, 131.288 113.823, 131.209 113.743, 131.046 113.725, 131.010 113.606, 130.769 113.502, 130.558 113.471, 130.494 113.267, 130.081 113.015, 129.339 112.943, 129.126 112.922, 129.065 112.840, 128.824 112.680, 128.351 112.410, 126.997 112.324, 126.560 112.234, 125.189 112.204, 124.738 112.234, 124.287 112.323, 122.915 112.410, 122.478 112.680, 121.124 112.840, 120.651 112.922, 120.410 112.943, 120.349 113.015, 120.136 113.266, 119.394 113.470, 118.981 113.502, 118.917 113.798, 118.317 113.823, 118.266 113.948, 118.013 113.988, 117.932 114.067, 117.771 114.074, 117.756 114.241, 117.507 114.267, 117.468 114.276, 117.454 115.089, 116.238 116.293, 114.864 117.666, 113.660 119.184, 112.645 120.822, 111.837 122.552, 111.250 124.343, 110.893 126.166, 110.773 127.989, 110.893 129.780, 111.249 131.510, 111.836 133.149, 112.644 134.667, 113.658 136.041, 114.863 137.245, 116.236 137.981, 117.338 138.068, 117.467 138.094, 117.506 138.245, 117.732 138.260, 117.755 138.268, 117.770 138.566, 118.375 138.598, 118.440 139.054, 119.363 139.068, 119.393 139.126, 119.562 139.148, 119.627 139.229, 119.867 139.656, 121.123 139.659, 121.139 139.836, 122.033 140.012, 122.915 140.052, 123.532 140.131, 124.738 140.052, 125.943 140.012, 126.560 139.836, 127.442 139.658, 128.336 139.655, 128.352 139.229, 129.608 139.147, 129.849 139.125, 129.913 139.068, 130.082 139.053, 130.112 138.696, 130.835 138.609, 131.012 138.598, 131.035 138.591, 131.047 138.461, 131.312 138.260, 131.720 137.245, 133.239 136.040, 134.612 134.667, 135.816 133.148, 136.831 131.510, 137.638 129.780, 138.225 127.988, 138.581 " />
            <path fill="none" stroke-width="3.0" stroke-linecap="butt" stroke-opacity="1.0" stroke="rgb(0, 0, 0)" stroke-linejoin="round" d=" M 128.333, 141.046 126.190, 141.187 124.047, 141.046 121.941, 140.627 119.908, 139.936 117.982, 138.986 116.197, 137.793 114.582, 136.377 113.166, 134.763 111.974, 132.977 111.724, 132.472 111.701, 132.423 111.585, 132.190 111.420, 131.854 111.314, 131.639 111.104, 131.213 111.024, 131.051 110.998, 130.974 110.637, 129.912 110.334, 129.018 110.204, 128.368 110.165, 128.171 109.915, 126.912 109.774, 124.769 109.914, 122.627 110.165, 121.367 110.204, 121.171 110.333, 120.521 110.636, 119.627 110.997, 118.565 111.023, 118.487 111.103, 118.326 111.313, 117.899 111.404, 117.714 111.810, 116.891 111.824, 116.863 111.936, 116.635 111.961, 116.586 111.973, 116.561 112.201, 116.219 113.166, 114.775 114.581, 113.161 116.196, 111.745 117.981, 110.551 119.907, 109.601 121.941, 108.910 124.047, 108.491 126.190, 108.350 128.333, 108.491 130.440, 108.909 132.474, 109.599 134.400, 110.549 136.186, 111.742 137.801, 113.158 139.217, 114.773 140.182, 116.217 140.260, 116.334 140.411, 116.559 140.423, 116.584 140.447, 116.633 140.493, 116.726 140.666, 117.076 140.757, 117.261 140.968, 117.690 141.074, 117.905 141.361, 118.486 141.434, 118.702 141.868, 119.981 141.906, 120.093 142.051, 120.520 142.416, 122.356 142.470, 122.626 142.610, 124.769 142.470, 126.913 142.416, 127.183 142.051, 129.019 141.906, 129.446 141.868, 129.558 141.434, 130.836 141.360, 131.053 141.074, 131.634 140.967, 131.849 140.923, 131.939 140.798, 132.191 140.683, 132.425 140.592, 132.610 140.410, 132.979 139.216, 134.765 137.800, 136.379 136.185, 137.795 134.399, 138.988 132.473, 139.938 130.439, 140.628 128.333, 141.046 " />
            <path fill="none" stroke-width="3.0" stroke-linecap="butt" stroke-opacity="1.0" stroke="rgb(0, 0, 0)" stroke-linejoin="round" d=" M 127.735, 136.764 126.148, 136.868 124.562, 136.764 123.003, 136.454 121.497, 135.943 120.071, 135.239 118.750, 134.356 117.554, 133.308 116.506, 132.113 115.623, 130.791 115.439, 130.416 115.434, 130.408 115.420, 130.379 115.323, 130.182 115.067, 129.663 114.920, 129.365 114.802, 129.017 114.686, 128.676 114.409, 127.860 114.365, 127.639 114.301, 127.314 114.288, 127.252 114.229, 126.957 114.099, 126.301 113.995, 124.714 114.099, 123.128 114.229, 122.471 114.288, 122.177 114.300, 122.114 114.365, 121.789 114.409, 121.569 114.686, 120.752 114.802, 120.411 114.920, 120.063 115.067, 119.765 115.453, 118.981 115.506, 118.874 115.623, 118.637 115.773, 118.412 115.799, 118.374 116.506, 117.315 117.554, 116.120 118.749, 115.072 120.071, 114.188 121.497, 113.485 123.002, 112.974 124.562, 112.663 126.148, 112.559 127.735, 112.663 129.294, 112.973 130.800, 113.484 132.226, 114.187 133.548, 115.070 134.744, 116.119 135.792, 117.314 136.433, 118.273 136.525, 118.411 136.561, 118.464 136.613, 118.543 136.676, 118.636 137.000, 119.294 137.266, 119.833 137.379, 120.062 137.381, 120.068 137.703, 121.016 137.767, 121.207 137.779, 121.241 137.838, 121.414 137.890, 121.568 138.200, 123.128 138.245, 123.812 138.269, 124.183 138.304, 124.714 138.269, 125.245 138.245, 125.616 138.200, 126.301 137.890, 127.860 137.838, 128.014 137.779, 128.187 137.767, 128.222 137.702, 128.412 137.380, 129.360 137.379, 129.366 137.265, 129.596 137.000, 130.134 136.976, 130.183 136.878, 130.380 136.864, 130.409 136.810, 130.518 136.675, 130.792 135.792, 132.114 134.743, 133.309 133.548, 134.357 132.226, 135.241 130.800, 135.944 129.294, 136.454 127.735, 136.764 " />
            <path fill="none" stroke-width="3.0" stroke-linecap="butt" stroke-opacity="1.0" stroke="rgb(0, 0, 0)" stroke-linejoin="round" d=" M 127.538, 135.359 126.134, 135.451 124.731, 135.359 123.351, 135.084 122.019, 134.632 120.757, 134.009 119.588, 133.228 118.530, 132.300 117.603, 131.243 116.821, 130.073 116.199, 128.811 115.863, 127.821 115.747, 127.479 115.506, 126.269 115.473, 126.100 115.454, 125.811 115.381, 124.696 115.454, 123.581 115.472, 123.292 115.506, 123.123 115.747, 121.913 115.863, 121.571 116.199, 120.581 116.821, 119.319 117.602, 118.149 118.530, 117.091 119.588, 116.164 120.757, 115.382 122.019, 114.760 123.351, 114.307 124.731, 114.033 126.135, 113.941 127.538, 114.033 128.918, 114.307 130.251, 114.759 131.513, 115.381 132.682, 116.163 133.740, 117.090 134.668, 118.148 135.450, 119.318 136.072, 120.580 136.204, 120.968 136.524, 121.912 136.561, 122.095 136.613, 122.360 136.799, 123.292 136.891, 124.696 136.798, 126.100 136.613, 127.032 136.560, 127.297 136.524, 127.480 136.203, 128.424 136.072, 128.812 135.449, 130.074 134.667, 131.244 133.740, 132.301 132.682, 133.229 131.512, 134.010 130.250, 134.632 128.918, 135.084 127.538, 135.359 " />
            <path fill="none" stroke-width="3.0" stroke-linecap="butt" stroke-opacity="1.0" stroke="rgb(0, 0, 0)" stroke-linejoin="round" d=" M 127.254, 133.324 126.115, 133.399 124.975, 133.324 123.856, 133.101 122.774, 132.734 121.750, 132.229 120.801, 131.595 119.943, 130.842 119.190, 129.983 118.556, 129.034 118.051, 128.010 117.684, 126.929 117.461, 125.809 117.386, 124.670 117.461, 123.531 117.684, 122.411 118.051, 121.330 118.555, 120.306 119.190, 119.356 119.942, 118.498 120.801, 117.745 121.750, 117.110 122.774, 116.605 123.855, 116.238 124.975, 116.015 126.115, 115.940 127.254, 116.015 128.374, 116.238 129.455, 116.605 130.480, 117.110 131.429, 117.744 132.288, 118.497 133.041, 119.356 133.675, 120.305 134.180, 121.329 134.547, 122.410 134.770, 123.530 134.844, 124.670 134.770, 125.809 134.547, 126.929 134.180, 128.011 133.675, 129.035 133.040, 129.984 132.287, 130.842 131.429, 131.595 130.479, 132.230 129.455, 132.734 128.374, 133.101 127.254, 133.324 " />
            <path fill="none" stroke-width="3.0" stroke-linecap="butt" stroke-opacity="1.0" stroke="rgb(0, 0, 0)" stroke-linejoin="round" d=" M 127.380, 134.228 126.123, 134.310 124.867, 134.228 123.631, 133.982 122.439, 133.577 121.309, 133.020 120.262, 132.320 119.315, 131.490 118.485, 130.543 117.785, 129.496 117.228, 128.366 116.823, 127.173 116.578, 125.938 116.495, 124.682 116.578, 123.425 116.823, 122.190 117.228, 120.997 117.785, 119.867 118.485, 118.820 119.315, 117.873 120.262, 117.042 121.309, 116.343 122.439, 115.785 123.631, 115.380 124.867, 115.135 126.124, 115.052 127.380, 115.134 128.616, 115.380 129.809, 115.785 130.938, 116.342 131.986, 117.042 132.933, 117.872 133.763, 118.819 134.463, 119.867 135.020, 120.996 135.425, 122.189 135.671, 123.425 135.753, 124.682 135.671, 125.938 135.425, 127.174 135.020, 128.367 134.463, 129.496 133.763, 130.544 132.932, 131.490 131.985, 132.321 130.938, 133.021 129.808, 133.578 128.616, 133.982 127.380, 134.228 " />
            <path fill="none" stroke-width="3.0" stroke-linecap="butt" stroke-opacity="1.0" stroke="rgb(0, 0, 0)" stroke-linejoin="round" d=" M 76.190, 147.696 76.188, 137.696 76.186, 127.696 76.184, 117.696 76.182, 107.696 76.181, 102.844 " />
            <path fill="none" stroke-width="3.0" stroke-linecap="butt" stroke-opacity="1.0" stroke="rgb(0, 0, 0)" stroke-linejoin="round" d=" M 77.337, 150.022 77.335, 140.022 77.333, 130.022 77.331, 120.022 77.330, 110.022 77.328, 100.518 " />
            <path fill="none" stroke-width="3.0" stroke-linecap="butt" stroke-opacity="1.0" stroke="rgb(0, 0, 0)" stroke-linejoin="round" d=" M 92.073, 130.372 92.071, 120.372 92.071, 119.641 " />
            <path fill="none" stroke-width="3.0" stroke-linecap="butt" stroke-opacity="1.0" stroke="rgb(0, 0, 0)" stroke-linejoin="round" d=" M 92.609, 133.068 92.608, 123.068 92.607, 116.945 " />
            <path fill="none" stroke-width="3.0" stroke-linecap="butt" stroke-opacity="1.0" stroke="rgb(0, 0, 0)" stroke-linejoin="round" d=" M 102.529, 133.357 102.528, 123.357 102.527, 116.410 " />
            <path fill="none" stroke-width="3.0" stroke-linecap="butt" stroke-opacity="1.0" stroke="rgb(0, 0, 0)" stroke-linejoin="round" d=" M 106.717, 128.463 106.717, 121.166 " />
            <path fill="none" stroke-width="3.0" stroke-linecap="butt" stroke-opacity="1.0" stroke="rgb(0, 0, 0)" stroke-linejoin="round" d=" M 142.416, 122.356 142.416, 127.183 " />
            <path fill="none" stroke-width="3.0" stroke-linecap="butt" stroke-opacity="1.0" stroke="rgb(0, 0, 0)" stroke-linejoin="round" d=" M 145.359, 119.430 145.359, 129.430 145.359, 130.199 " />
            <path fill="none" stroke-width="3.0" stroke-linecap="butt" stroke-opacity="1.0" stroke="rgb(0, 0, 0)" stroke-linejoin="round" d=" M 149.555, 115.059 149.554, 125.059 149.553, 134.709 " />
            <path fill="none" stroke-width="3.0" stroke-linecap="butt" stroke-opacity="1.0" stroke="rgb(0, 0, 0)" stroke-linejoin="round" d=" M 159.488, 135.409 159.489, 125.409 159.491, 115.409 159.491, 114.605 " />
            <path fill="none" stroke-width="3.0" stroke-linecap="butt" stroke-opacity="1.0" stroke="rgb(0, 0, 0)" stroke-linejoin="round" d=" M 160.028, 116.315 160.026, 126.315 160.025, 133.699 " />
            <path fill="none" stroke-width="3.0" stroke-linecap="butt" stroke-opacity="1.0" stroke="rgb(0, 0, 0)" stroke-linejoin="round" d=" M 175.950, 100.690 175.948, 110.690 175.946, 120.690 175.944, 130.690 175.942, 140.690 175.941, 149.294 175.941, 149.851 " />
        </g>
    </g>
</svg>
