<?xml version='1.0' encoding='ascii'?>
<svg xmlns="http://www.w3.org/2000/svg" version="1.1" width="250" height="250">
    <g id="ViewLayer_LineSet" xmlns:inkscape="http://www.inkscape.org/namespaces/inkscape" inkscape:groupmode="lineset" inkscape:label="ViewLayer_LineSet">
        <g xmlns:inkscape="http://www.inkscape.org/namespaces/inkscape" inkscape:groupmode="layer" id="strokes" inkscape:label="strokes">
            <path fill="none" stroke-width="3.0" stroke-linecap="butt" stroke-opacity="1.0" stroke="rgb(0, 0, 0)" stroke-linejoin="round" d=" M 140.240, 226.524 130.261, 227.169 126.981, 227.381 117.003, 226.719 113.726, 226.501 103.919, 224.542 100.699, 223.899 91.232, 220.678 88.125, 219.621 79.159, 215.193 76.217, 213.740 67.906, 208.180 65.179, 206.356 57.664, 199.760 55.199, 197.596 48.608, 190.076 46.447, 187.611 40.893, 179.295 39.072, 176.569 37.561, 173.505 35.549, 169.424 33.200, 164.660 29.985, 155.191 28.931, 152.087 26.978, 142.280 26.338, 139.065 25.681, 129.086 25.465, 125.815 26.115, 115.836 26.328, 112.564 28.274, 102.755 28.912, 99.538 32.121, 90.067 33.174, 86.959 37.590, 77.987 38.109, 76.934 39.040, 75.043 40.494, 72.862 46.044, 64.543 46.411, 63.992 52.999, 56.468 55.162, 53.996 62.675, 47.396 65.144, 45.227 73.454, 39.664 76.186, 37.835 85.151, 33.404 88.100, 31.946 97.566, 28.723 100.682, 27.662 110.488, 25.702 113.717, 25.057 123.695, 24.394 126.983, 24.175 136.962, 24.821 140.251, 25.034 150.061, 26.977 153.295, 27.618 162.767, 30.826 165.891, 31.884 174.863, 36.302 177.823, 37.760 186.141, 43.311 188.887, 45.144 196.408, 51.734 198.891, 53.910 205.486, 61.426 207.665, 63.909 213.064, 71.987 215.057, 74.968 215.599, 76.067 220.022, 85.035 220.941, 86.899 224.155, 96.368 225.216, 99.496 227.165, 109.304 227.809, 112.544 228.460, 122.522 228.675, 125.817 228.016, 135.796 227.799, 139.090 225.843, 148.897 225.197, 152.134 221.976, 161.601 220.914, 164.725 218.192, 170.234 216.141, 174.385 215.023, 176.647 209.461, 184.958 207.627, 187.698 201.027, 195.210 198.852, 197.686 191.327, 204.273 188.849, 206.443 180.529, 211.990 177.789, 213.817 168.816, 218.231 165.863, 219.684 156.391, 222.890 153.275, 223.944 143.465, 225.886 140.240, 226.524 " />
            <path fill="none" stroke-width="3.0" stroke-linecap="butt" stroke-opacity="1.0" stroke="rgb(0, 0, 0)" stroke-linejoin="round" d=" M 233.048, 264.047 240.577, 257.465 248.106, 250.884 250.193, 249.059 " />
            <path fill="none" stroke-width="3.0" stroke-linecap="butt" stroke-opacity="1.0" stroke="rgb(0, 0, 0)" stroke-linejoin="round" d=" M 250.306, 2.724 242.783, -3.864 235.260, -10.452 233.158, -12.293 " />
            <path fill="none" stroke-width="3.0" stroke-linecap="butt" stroke-opacity="1.0" stroke="rgb(0, 0, 0)" stroke-linejoin="round" d=" M 21.196, -12.046 13.687, -5.441 6.179, 1.164 4.115, 2.980 -2.468, 10.508 -9.051, 18.036 -10.858, 20.102 " />
            <path fill="none" stroke-width="3.0" stroke-linecap="butt" stroke-opacity="1.0" stroke="rgb(0, 0, 0)" stroke-linejoin="round" d=" M -10.752, 231.704 -4.162, 239.226 2.427, 246.747 4.223, 248.798 11.737, 255.396 19.251, 261.995 21.301, 263.795 " />
            <path fill="none" stroke-width="3.0" stroke-linecap="butt" stroke-opacity="1.0" stroke="rgb(0, 0, 0)" stroke-linejoin="round" d=" M 55.533, 163.561 56.531, 165.583 62.085, 173.899 62.401, 174.372 68.993, 181.892 69.368, 182.320 76.884, 188.916 77.313, 189.292 85.625, 194.851 86.099, 195.168 95.065, 199.595 95.577, 199.848 105.045, 203.067 105.586, 203.251 115.393, 205.208 115.954, 205.320 125.932, 205.981 126.504, 206.019 136.483, 205.372 137.056, 205.335 146.865, 203.391 147.429, 203.280 156.901, 200.072 157.447, 199.888 166.419, 195.471 166.937, 195.217 175.256, 189.667 175.737, 189.346 183.260, 182.758 183.696, 182.377 190.294, 174.863 190.677, 174.427 196.238, 166.116 196.561, 165.633 197.366, 164.003 " />
            <path fill="none" stroke-width="3.0" stroke-linecap="butt" stroke-opacity="1.0" stroke="rgb(0, 0, 0)" stroke-linejoin="round" d=" M 132.836, 173.279 126.504, 173.691 120.173, 173.274 113.951, 172.034 107.944, 169.992 102.255, 167.185 96.982, 163.659 92.213, 159.476 88.031, 154.706 84.508, 149.431 83.771, 147.938 82.810, 145.988 82.089, 144.526 81.702, 143.742 81.157, 142.135 79.663, 137.736 78.425, 131.514 78.009, 125.185 78.423, 118.855 79.659, 112.633 81.151, 108.232 81.696, 106.625 82.082, 105.841 83.262, 103.447 84.275, 101.391 84.500, 100.934 85.202, 99.882 88.023, 95.657 92.205, 90.885 96.974, 86.700 102.248, 83.172 107.939, 80.363 113.947, 78.320 120.171, 77.079 126.505, 76.662 132.839, 77.074 139.065, 78.310 145.077, 80.349 150.771, 83.155 156.051, 86.681 160.825, 90.866 165.011, 95.638 167.569, 99.466 168.539, 100.917 168.764, 101.374 168.851, 101.550 170.036, 103.952 170.969, 105.845 171.347, 106.611 173.388, 112.623 174.626, 118.850 175.040, 125.185 174.623, 131.520 173.383, 137.746 171.341, 143.757 170.963, 144.523 170.049, 146.374 170.029, 146.415 169.070, 148.357 168.531, 149.449 165.003, 154.726 160.815, 159.496 156.042, 163.679 150.763, 167.202 145.070, 170.007 139.060, 172.044 132.836, 173.279 " />
            <path fill="none" stroke-width="3.0" stroke-linecap="butt" stroke-opacity="1.0" stroke="rgb(0, 0, 0)" stroke-linejoin="round" d=" M 195.257, 82.743 190.701, 75.926 184.106, 68.409 183.721, 67.970 176.200, 61.379 175.761, 60.994 167.444, 55.442 166.959, 55.118 157.988, 50.699 157.465, 50.442 147.994, 47.233 147.442, 47.046 137.633, 45.101 137.063, 44.988 127.084, 44.341 126.505, 44.303 116.527, 44.964 115.949, 45.002 106.142, 46.960 105.575, 47.074 96.108, 50.295 95.561, 50.481 86.596, 54.911 86.079, 55.166 77.768, 60.728 77.290, 61.048 69.776, 67.646 69.345, 68.025 62.756, 75.548 62.379, 75.979 57.572, 83.183 " />
            <path fill="none" stroke-width="3.0" stroke-linecap="butt" stroke-opacity="1.0" stroke="rgb(0, 0, 0)" stroke-linejoin="round" d=" M 203.184, 79.592 200.473, 79.593 195.257, 82.743 186.697, 87.913 185.677, 88.529 185.675, 98.529 185.673, 108.529 185.670, 118.529 185.668, 128.529 185.666, 138.529 185.664, 148.529 185.662, 157.531 194.413, 162.370 197.366, 164.003 200.449, 165.708 203.159, 165.709 " />
            <path fill="none" stroke-width="3.0" stroke-linecap="butt" stroke-opacity="1.0" stroke="rgb(0, 0, 0)" stroke-linejoin="round" d=" M 200.449, 165.708 200.451, 157.757 200.454, 147.757 200.457, 137.757 200.459, 127.757 200.462, 117.757 200.465, 107.757 200.468, 97.757 200.469, 92.606 200.472, 82.606 200.473, 79.593 " />
            <path fill="none" stroke-width="3.0" stroke-linecap="butt" stroke-opacity="1.0" stroke="rgb(0, 0, 0)" stroke-linejoin="round" d=" M 49.046, 165.655 51.748, 165.656 55.533, 163.561 64.283, 158.720 66.493, 157.498 66.491, 147.498 66.488, 137.498 66.486, 127.498 66.484, 117.498 66.482, 107.498 66.480, 97.498 66.478, 88.566 57.919, 83.393 57.572, 83.183 51.725, 79.650 49.022, 79.651 " />
            <path fill="none" stroke-width="3.0" stroke-linecap="butt" stroke-opacity="1.0" stroke="rgb(0, 0, 0)" stroke-linejoin="round" d=" M 51.748, 165.656 51.745, 155.777 51.743, 145.777 51.740, 135.777 51.737, 125.777 51.735, 115.777 51.732, 105.777 51.729, 95.777 51.729, 94.585 51.726, 84.585 51.725, 79.650 " />
            <path fill="none" stroke-width="3.0" stroke-linecap="butt" stroke-opacity="1.0" stroke="rgb(0, 0, 0)" stroke-linejoin="round" d=" M 37.561, 173.505 46.311, 168.664 49.047, 167.150 49.046, 165.655 49.045, 162.732 49.043, 152.732 49.041, 147.812 49.039, 137.812 49.036, 127.812 49.033, 117.812 49.030, 107.812 49.029, 102.553 49.026, 92.553 49.023, 82.845 49.022, 79.651 49.022, 78.016 40.494, 72.862 " />
            <path fill="none" stroke-width="3.0" stroke-linecap="butt" stroke-opacity="1.0" stroke="rgb(0, 0, 0)" stroke-linejoin="round" d=" M 213.064, 71.987 204.505, 77.157 203.185, 77.955 203.184, 79.592 203.183, 82.788 203.180, 92.788 203.178, 99.858 203.175, 109.858 203.172, 119.858 203.170, 129.858 203.167, 139.858 203.164, 149.858 203.164, 150.509 203.161, 160.509 203.160, 162.784 203.159, 165.709 203.159, 167.207 211.910, 172.046 216.141, 174.385 " />
            <path fill="none" stroke-width="3.0" stroke-linecap="butt" stroke-opacity="1.0" stroke="rgb(0, 0, 0)" stroke-linejoin="round" d=" M 130.509, 156.624 126.342, 156.896 122.175, 156.622 118.079, 155.806 114.125, 154.463 110.381, 152.616 106.909, 150.295 103.770, 147.542 101.017, 144.402 98.698, 140.930 97.904, 139.320 97.719, 138.944 97.580, 138.664 96.851, 137.185 96.258, 135.439 95.509, 133.232 94.767, 129.500 94.694, 129.137 94.440, 125.269 94.421, 124.970 94.440, 124.671 94.693, 120.804 94.766, 120.440 95.507, 116.708 96.256, 114.501 96.849, 112.754 97.716, 110.995 98.406, 109.594 98.695, 109.008 99.082, 108.429 101.014, 105.535 103.767, 102.395 106.906, 99.641 110.378, 97.319 114.123, 95.471 118.078, 94.127 122.174, 93.311 126.342, 93.037 130.510, 93.309 134.608, 94.123 138.564, 95.465 142.311, 97.312 145.785, 99.632 148.926, 102.387 151.681, 105.527 153.615, 108.422 154.002, 109.001 154.163, 109.326 154.374, 109.754 155.834, 112.714 155.850, 112.748 157.193, 116.704 157.329, 117.386 157.653, 119.016 157.798, 119.746 158.008, 120.802 158.281, 124.970 158.007, 129.139 157.797, 130.195 157.651, 130.925 157.327, 132.554 157.191, 133.236 155.847, 137.192 155.831, 137.225 154.998, 138.914 154.794, 139.327 154.370, 140.185 153.999, 140.938 151.677, 144.411 148.922, 147.551 145.781, 150.304 142.307, 152.623 138.561, 154.469 134.605, 155.811 130.509, 156.624 " />
            <path fill="none" stroke-width="3.0" stroke-linecap="butt" stroke-opacity="1.0" stroke="rgb(0, 0, 0)" stroke-linejoin="round" d=" M 83.771, 147.938 87.704, 145.762 87.704, 144.189 87.703, 143.562 87.702, 134.150 87.701, 124.150 87.700, 115.580 87.698, 105.580 87.698, 103.794 87.698, 103.109 87.698, 101.390 85.202, 99.882 " />
            <path fill="none" stroke-width="3.0" stroke-linecap="butt" stroke-opacity="1.0" stroke="rgb(0, 0, 0)" stroke-linejoin="round" d=" M 167.569, 99.466 164.409, 101.375 164.409, 103.095 164.409, 103.779 164.407, 113.854 164.406, 123.854 164.404, 133.854 164.404, 135.877 164.403, 143.576 164.403, 144.202 164.402, 145.776 169.070, 148.357 " />
            <path fill="none" stroke-width="3.0" stroke-linecap="butt" stroke-opacity="1.0" stroke="rgb(0, 0, 0)" stroke-linejoin="round" d=" M 128.694, 143.630 126.215, 143.792 123.737, 143.630 121.300, 143.145 118.948, 142.346 116.721, 141.247 114.656, 139.867 112.789, 138.229 111.151, 136.362 109.771, 134.297 109.483, 133.712 109.316, 133.374 109.288, 133.316 109.183, 133.104 109.136, 133.008 109.106, 132.949 108.987, 132.705 108.673, 132.069 108.366, 131.165 108.181, 130.620 107.874, 129.717 107.466, 127.666 107.390, 127.281 107.382, 127.156 107.233, 124.891 107.227, 124.803 107.233, 124.714 107.381, 122.450 107.389, 122.324 107.466, 121.939 107.874, 119.888 108.180, 118.986 108.365, 118.440 108.672, 117.536 108.986, 116.900 109.182, 116.500 109.315, 116.231 109.598, 115.657 109.762, 115.325 109.770, 115.308 109.984, 114.989 110.045, 114.897 111.150, 113.243 112.787, 111.375 114.655, 109.737 116.720, 108.356 118.948, 107.257 121.300, 106.458 123.736, 105.973 126.215, 105.810 128.694, 105.972 131.131, 106.457 133.484, 107.255 135.712, 108.354 137.778, 109.734 139.646, 111.372 141.285, 113.240 142.286, 114.738 142.451, 114.986 142.665, 115.306 142.673, 115.322 142.758, 115.494 142.760, 115.499 142.891, 115.764 143.087, 116.161 143.708, 117.421 143.764, 117.534 143.895, 117.919 144.563, 119.887 144.610, 120.123 144.693, 120.544 144.842, 121.291 145.047, 122.324 145.209, 124.803 145.047, 127.282 144.841, 128.314 144.693, 129.061 144.609, 129.482 144.562, 129.719 143.894, 131.686 143.763, 132.071 143.707, 132.184 143.148, 133.318 142.907, 133.807 142.890, 133.841 142.664, 134.299 141.283, 136.365 139.645, 138.232 137.777, 139.870 135.711, 141.250 133.483, 142.348 131.130, 143.146 128.694, 143.630 " />
            <path fill="none" stroke-width="3.0" stroke-linecap="butt" stroke-opacity="1.0" stroke="rgb(0, 0, 0)" stroke-linejoin="round" d=" M 129.374, 148.498 126.263, 148.701 123.151, 148.497 120.094, 147.888 117.142, 146.885 114.346, 145.506 111.754, 143.774 109.410, 141.718 107.355, 139.374 105.623, 136.782 105.261, 136.048 105.044, 135.608 104.993, 135.505 104.788, 135.090 104.630, 134.770 104.244, 133.986 103.952, 133.126 103.744, 132.512 103.617, 132.138 103.242, 131.034 102.633, 127.976 102.429, 124.865 102.633, 121.755 103.241, 118.697 103.615, 117.593 103.742, 117.219 103.951, 116.605 104.243, 115.744 104.629, 114.960 105.317, 113.565 105.429, 113.338 105.621, 112.948 105.855, 112.597 105.931, 112.484 105.966, 112.431 107.353, 110.355 109.408, 108.011 111.752, 105.955 114.344, 104.222 117.140, 102.842 120.093, 101.839 123.151, 101.230 126.263, 101.025 129.375, 101.229 132.433, 101.837 135.387, 102.839 138.184, 104.218 140.777, 105.950 143.122, 108.006 145.179, 110.351 146.436, 112.231 146.602, 112.480 146.677, 112.593 146.912, 112.944 147.032, 113.187 147.450, 114.036 148.128, 115.410 148.291, 115.741 148.337, 115.875 148.465, 116.253 149.294, 118.695 149.902, 121.753 149.928, 122.155 150.106, 124.866 149.928, 127.577 149.901, 127.978 149.293, 131.036 148.464, 133.477 148.335, 133.856 148.290, 133.989 148.126, 134.320 147.655, 135.275 147.540, 135.509 147.489, 135.612 147.448, 135.695 147.175, 136.249 146.910, 136.786 145.177, 139.379 143.120, 141.723 140.775, 143.779 138.182, 145.510 135.385, 146.889 132.432, 147.891 129.374, 148.498 " />
            <path fill="none" stroke-width="3.0" stroke-linecap="butt" stroke-opacity="1.0" stroke="rgb(0, 0, 0)" stroke-linejoin="round" d=" M 128.245, 140.420 126.184, 140.555 124.122, 140.419 122.096, 140.016 120.140, 139.352 118.288, 138.438 116.570, 137.290 115.017, 135.928 113.655, 134.375 112.508, 132.657 112.257, 132.148 112.163, 131.957 112.007, 131.641 111.986, 131.599 111.955, 131.536 111.829, 131.280 111.743, 131.106 111.594, 130.805 111.594, 130.804 111.495, 130.512 111.105, 129.365 110.930, 128.849 110.754, 127.965 110.662, 127.502 110.527, 126.823 110.392, 124.761 110.527, 122.700 110.662, 122.020 110.754, 121.558 110.930, 120.674 111.105, 120.157 111.494, 119.011 111.593, 118.719 111.594, 118.718 111.742, 118.417 111.828, 118.242 112.256, 117.374 112.364, 117.155 112.507, 116.865 112.507, 116.864 112.538, 116.818 112.653, 116.646 112.736, 116.523 113.654, 115.147 115.016, 113.594 116.569, 112.231 118.287, 111.083 120.140, 110.169 122.096, 109.505 124.122, 109.102 126.184, 108.966 128.246, 109.101 130.272, 109.504 132.229, 110.168 134.082, 111.082 135.800, 112.229 137.354, 113.592 138.716, 115.145 139.602, 116.471 139.814, 116.788 139.833, 116.816 139.864, 116.863 139.864, 116.863 139.943, 117.024 140.242, 117.629 140.328, 117.803 140.477, 118.107 140.577, 118.308 140.778, 118.716 140.965, 119.268 141.318, 120.306 141.409, 120.575 141.442, 120.673 141.845, 122.700 141.874, 123.142 141.980, 124.761 141.874, 126.380 141.845, 126.823 141.442, 128.850 141.408, 128.948 141.317, 129.217 140.965, 130.254 140.777, 130.806 140.576, 131.214 140.477, 131.416 140.357, 131.658 140.209, 131.959 140.100, 132.179 140.039, 132.304 139.863, 132.659 138.715, 134.377 137.353, 135.930 135.799, 137.292 134.081, 138.440 132.228, 139.353 130.272, 140.017 128.245, 140.420 " />
            <path fill="none" stroke-width="3.0" stroke-linecap="butt" stroke-opacity="1.0" stroke="rgb(0, 0, 0)" stroke-linejoin="round" d=" M 127.925, 138.125 126.161, 138.241 124.398, 138.125 122.665, 137.780 120.992, 137.212 119.407, 136.430 117.938, 135.448 116.610, 134.283 115.445, 132.955 114.463, 131.486 113.820, 130.181 113.682, 129.901 113.302, 128.781 113.225, 128.554 113.114, 128.228 112.769, 126.495 112.653, 124.732 112.653, 124.732 112.653, 124.731 112.769, 122.969 113.113, 121.236 113.224, 120.909 113.301, 120.682 113.681, 119.562 113.819, 119.282 114.463, 117.977 115.444, 116.508 116.609, 115.179 117.938, 114.014 119.407, 113.032 120.992, 112.250 122.665, 111.682 124.398, 111.337 126.162, 111.221 127.925, 111.337 129.658, 111.681 131.332, 112.249 132.917, 113.031 134.387, 114.013 135.715, 115.178 136.881, 116.507 137.863, 117.976 138.249, 118.759 138.644, 119.561 138.768, 119.924 138.845, 120.151 139.213, 121.235 139.416, 122.259 139.557, 122.968 139.663, 124.576 139.673, 124.732 139.663, 124.887 139.557, 126.495 139.416, 127.205 139.212, 128.229 138.844, 129.313 138.767, 129.540 138.644, 129.902 138.248, 130.704 137.862, 131.487 136.880, 132.956 135.715, 134.285 134.386, 135.450 132.916, 136.432 131.331, 137.213 129.658, 137.781 127.925, 138.125 " />
            <path fill="none" stroke-width="3.0" stroke-linecap="butt" stroke-opacity="1.0" stroke="rgb(0, 0, 0)" stroke-linejoin="round" d=" M 127.497, 135.063 126.132, 135.152 124.766, 135.062 123.424, 134.795 122.129, 134.356 120.902, 133.750 119.764, 132.990 118.736, 132.088 117.834, 131.059 117.074, 129.922 116.469, 128.695 116.029, 127.399 115.762, 126.057 115.672, 124.692 115.762, 123.327 116.029, 121.985 116.468, 120.690 117.073, 119.462 117.833, 118.325 118.735, 117.296 119.764, 116.394 120.902, 115.634 122.129, 115.028 123.424, 114.588 124.766, 114.321 126.132, 114.232 127.497, 114.321 128.839, 114.588 130.135, 115.028 131.362, 115.633 132.500, 116.393 133.529, 117.295 134.431, 118.324 135.191, 119.462 135.797, 120.689 136.236, 121.985 136.503, 123.327 136.593, 124.692 136.503, 126.058 136.236, 127.400 135.796, 128.696 135.191, 129.923 134.431, 131.060 133.528, 132.089 132.500, 132.991 131.362, 133.751 130.135, 134.356 128.839, 134.796 127.497, 135.063 " />
            <path fill="none" stroke-width="3.0" stroke-linecap="butt" stroke-opacity="1.0" stroke="rgb(0, 0, 0)" stroke-linejoin="round" d=" M 127.682, 136.388 126.145, 136.488 124.607, 136.387 123.096, 136.087 121.637, 135.591 120.255, 134.910 118.974, 134.054 117.816, 133.038 116.800, 131.879 115.944, 130.598 115.263, 129.217 114.768, 127.758 114.467, 126.247 114.366, 124.709 114.467, 123.172 114.768, 121.661 115.263, 120.202 115.944, 118.820 116.800, 117.539 117.816, 116.380 118.974, 115.364 120.255, 114.508 121.637, 113.827 123.096, 113.331 124.607, 113.030 126.145, 112.929 127.682, 113.030 129.194, 113.331 130.653, 113.826 132.035, 114.507 133.316, 115.363 134.475, 116.379 135.491, 117.538 136.347, 118.819 137.029, 120.201 137.524, 121.660 137.824, 123.172 137.925, 124.709 137.824, 126.247 137.524, 127.758 137.028, 129.218 136.347, 130.599 135.490, 131.881 134.474, 133.039 133.316, 134.055 132.034, 134.911 130.652, 135.592 129.193, 136.087 127.682, 136.388 " />
            <path fill="none" stroke-width="3.0" stroke-linecap="butt" stroke-opacity="1.0" stroke="rgb(0, 0, 0)" stroke-linejoin="round" d=" M 81.157, 142.135 81.155, 132.135 81.153, 122.135 81.152, 112.135 81.151, 108.232 " />
            <path fill="none" stroke-width="3.0" stroke-linecap="butt" stroke-opacity="1.0" stroke="rgb(0, 0, 0)" stroke-linejoin="round" d=" M 82.089, 144.526 82.087, 134.526 82.085, 124.526 82.084, 114.526 82.082, 105.841 " />
            <path fill="none" stroke-width="3.0" stroke-linecap="butt" stroke-opacity="1.0" stroke="rgb(0, 0, 0)" stroke-linejoin="round" d=" M 94.767, 129.500 94.766, 127.767 94.766, 121.839 94.766, 120.440 " />
            <path fill="none" stroke-width="3.0" stroke-linecap="butt" stroke-opacity="1.0" stroke="rgb(0, 0, 0)" stroke-linejoin="round" d=" M 97.719, 138.944 97.718, 138.596 97.718, 138.407 97.717, 128.407 97.716, 118.407 97.716, 111.197 97.716, 110.995 " />
            <path fill="none" stroke-width="3.0" stroke-linecap="butt" stroke-opacity="1.0" stroke="rgb(0, 0, 0)" stroke-linejoin="round" d=" M 103.617, 132.138 103.616, 122.138 103.615, 117.593 " />
            <path fill="none" stroke-width="3.0" stroke-linecap="butt" stroke-opacity="1.0" stroke="rgb(0, 0, 0)" stroke-linejoin="round" d=" M 107.466, 127.666 107.466, 121.939 " />
            <path fill="none" stroke-width="3.0" stroke-linecap="butt" stroke-opacity="1.0" stroke="rgb(0, 0, 0)" stroke-linejoin="round" d=" M 141.874, 123.142 141.874, 126.380 " />
            <path fill="none" stroke-width="3.0" stroke-linecap="butt" stroke-opacity="1.0" stroke="rgb(0, 0, 0)" stroke-linejoin="round" d=" M 144.610, 120.123 144.609, 129.482 " />
            <path fill="none" stroke-width="3.0" stroke-linecap="butt" stroke-opacity="1.0" stroke="rgb(0, 0, 0)" stroke-linejoin="round" d=" M 148.465, 116.253 148.465, 121.667 148.464, 127.796 148.464, 133.477 " />
            <path fill="none" stroke-width="3.0" stroke-linecap="butt" stroke-opacity="1.0" stroke="rgb(0, 0, 0)" stroke-linejoin="round" d=" M 154.374, 109.754 154.373, 110.470 154.372, 120.470 154.371, 130.470 154.370, 138.603 154.370, 139.134 154.370, 139.327 154.370, 140.185 " />
            <path fill="none" stroke-width="3.0" stroke-linecap="butt" stroke-opacity="1.0" stroke="rgb(0, 0, 0)" stroke-linejoin="round" d=" M 157.327, 132.554 157.327, 130.328 157.328, 120.328 157.328, 119.278 157.329, 117.386 " />
            <path fill="none" stroke-width="3.0" stroke-linecap="butt" stroke-opacity="1.0" stroke="rgb(0, 0, 0)" stroke-linejoin="round" d=" M 157.798, 119.746 157.797, 123.605 157.797, 126.001 157.797, 130.195 " />
            <path fill="none" stroke-width="3.0" stroke-linecap="butt" stroke-opacity="1.0" stroke="rgb(0, 0, 0)" stroke-linejoin="round" d=" M 170.029, 146.415 170.030, 136.415 170.032, 126.415 170.034, 116.415 170.035, 106.415 170.036, 103.952 " />
            <path fill="none" stroke-width="3.0" stroke-linecap="butt" stroke-opacity="1.0" stroke="rgb(0, 0, 0)" stroke-linejoin="round" d=" M 170.969, 105.845 170.967, 115.845 170.966, 125.845 170.964, 135.845 170.963, 144.523 " />
        </g>
    </g>
</svg>
