<?xml version='1.0' encoding='ascii'?>
<svg xmlns="http://www.w3.org/2000/svg" version="1.1" width="250" height="250">
    <g id="ViewLayer_LineSet" xmlns:inkscape="http://www.inkscape.org/namespaces/inkscape" inkscape:groupmode="lineset" inkscape:label="ViewLayer_LineSet">
        <g xmlns:inkscape="http://www.inkscape.org/namespaces/inkscape" inkscape:groupmode="layer" id="strokes" inkscape:label="strokes">
            <path fill="none" stroke-width="3.0" stroke-linecap="butt" stroke-opacity="1.0" stroke="rgb(0, 0, 0)" stroke-linejoin="round" d=" M 68.971, 155.751 69.922, 157.678 74.661, 164.773 80.286, 171.190 86.700, 176.818 93.794, 181.561 101.446, 185.338 109.526, 188.085 117.896, 189.754 126.412, 190.317 134.930, 189.764 143.304, 188.103 151.390, 185.364 159.049, 181.592 166.152, 176.853 172.575, 171.226 178.210, 164.809 182.958, 157.710 183.910, 155.782 " />
            <path fill="none" stroke-width="3.0" stroke-linecap="butt" stroke-opacity="1.0" stroke="rgb(0, 0, 0)" stroke-linejoin="round" d=" M 131.524, 163.886 126.413, 164.220 121.302, 163.883 116.279, 162.882 111.430, 161.235 106.838, 158.969 102.580, 156.123 98.731, 152.746 95.355, 148.895 92.510, 144.637 91.915, 143.432 91.605, 142.802 90.245, 140.045 89.236, 137.072 88.979, 136.313 88.599, 135.196 88.318, 133.783 87.600, 130.174 87.264, 125.064 87.598, 119.954 88.316, 116.344 88.596, 114.931 88.976, 113.813 89.233, 113.055 90.241, 110.081 91.674, 107.174 92.151, 106.206 92.279, 105.948 92.505, 105.487 93.049, 104.674 95.350, 101.228 98.725, 97.376 102.575, 93.998 106.833, 91.151 111.426, 88.883 116.277, 87.235 121.301, 86.234 126.413, 85.897 131.526, 86.230 136.551, 87.229 141.403, 88.874 146.000, 91.139 150.261, 93.985 154.114, 97.364 157.493, 101.216 159.558, 104.306 159.763, 104.613 160.340, 105.476 162.607, 110.072 162.869, 110.845 163.129, 111.611 163.790, 113.559 164.254, 114.925 165.253, 119.951 165.587, 125.064 165.251, 130.177 164.251, 135.203 163.787, 136.569 163.125, 138.516 162.865, 139.282 162.602, 140.054 161.241, 142.813 160.770, 143.767 160.335, 144.649 157.487, 148.908 154.108, 152.759 150.255, 156.136 145.994, 158.980 141.399, 161.244 136.548, 162.889 131.524, 163.886 " />
            <path fill="none" stroke-width="3.0" stroke-linecap="butt" stroke-opacity="1.0" stroke="rgb(0, 0, 0)" stroke-linejoin="round" d=" M 181.902, 90.809 178.225, 85.308 172.591, 78.886 166.168, 73.256 159.064, 68.512 151.402, 64.737 143.312, 61.996 134.935, 60.334 126.413, 59.780 117.892, 60.343 109.519, 62.014 101.436, 64.763 93.781, 68.543 86.686, 73.290 80.271, 78.922 74.647, 85.342 70.766, 91.157 " />
            <path fill="none" stroke-width="3.0" stroke-linecap="butt" stroke-opacity="1.0" stroke="rgb(0, 0, 0)" stroke-linejoin="round" d=" M 27.509, 179.067 28.916, 181.920 34.470, 190.236 37.120, 194.204 43.711, 201.724 46.856, 205.313 54.371, 211.910 57.958, 215.058 66.270, 220.619 70.237, 223.273 79.203, 227.702 83.484, 229.817 92.951, 233.039 97.473, 234.577 107.279, 236.537 111.964, 237.473 121.942, 238.136 126.711, 238.453 136.690, 237.809 141.462, 237.501 151.272, 235.561 155.964, 234.632 165.437, 231.428 169.970, 229.895 178.943, 225.481 183.239, 223.368 191.560, 217.821 195.545, 215.165 203.070, 208.579 206.676, 205.423 213.276, 197.911 216.440, 194.310 222.003, 186.001 224.671, 182.016 225.802, 179.727 " />
            <path fill="none" stroke-width="3.0" stroke-linecap="butt" stroke-opacity="1.0" stroke="rgb(0, 0, 0)" stroke-linejoin="round" d=" M 135.490, 192.278 126.689, 192.850 117.890, 192.268 109.242, 190.543 100.894, 187.705 92.988, 183.802 85.659, 178.901 79.032, 173.087 73.221, 166.457 68.324, 159.127 67.300, 157.051 67.080, 156.604 66.659, 155.750 65.964, 154.342 64.425, 151.220 63.124, 147.389 61.591, 142.872 61.402, 141.922 59.870, 134.226 59.292, 125.430 59.866, 116.632 61.394, 108.935 61.583, 107.984 63.114, 103.466 64.413, 99.634 67.700, 92.962 68.093, 92.163 68.310, 91.724 69.144, 90.475 73.205, 84.390 79.016, 77.756 85.643, 71.937 92.974, 67.033 100.883, 63.126 109.235, 60.286 117.886, 58.559 126.690, 57.977 135.495, 58.549 144.151, 60.267 152.509, 63.099 160.426, 67.000 167.766, 71.900 174.403, 77.718 180.224, 84.353 184.058, 90.089 184.293, 90.441 185.129, 91.691 185.468, 92.379 189.033, 99.608 189.047, 99.648 190.772, 104.731 191.870, 107.966 193.590, 116.623 194.166, 125.431 193.586, 134.238 191.861, 142.893 190.762, 146.127 189.034, 151.208 189.021, 151.249 187.224, 154.886 186.782, 155.782 186.360, 156.637 185.863, 157.643 185.114, 159.161 180.207, 166.496 174.386, 173.126 167.749, 178.939 160.410, 183.836 152.496, 187.733 144.142, 190.563 135.490, 192.278 " />
            <path fill="none" stroke-width="3.0" stroke-linecap="butt" stroke-opacity="1.0" stroke="rgb(0, 0, 0)" stroke-linejoin="round" d=" M 222.842, 66.082 217.284, 57.768 216.487, 56.575 209.891, 49.059 206.724, 45.450 199.202, 38.860 195.592, 35.696 187.274, 30.145 183.282, 27.481 174.310, 23.064 170.005, 20.945 160.533, 17.737 155.989, 16.199 146.180, 14.257 141.476, 13.325 131.496, 12.680 126.713, 12.371 116.735, 13.035 111.953, 13.353 102.148, 15.314 97.451, 16.253 87.985, 19.477 83.453, 21.021 74.488, 25.453 70.198, 27.574 61.889, 33.138 57.914, 35.800 50.402, 42.401 46.810, 45.557 40.224, 53.082 37.076, 56.679 31.527, 64.998 30.365, 66.740 " />
            <path fill="none" stroke-width="3.0" stroke-linecap="butt" stroke-opacity="1.0" stroke="rgb(0, 0, 0)" stroke-linejoin="round" d=" M 184.058, 90.441 182.511, 90.442 181.902, 90.809 173.564, 95.845 173.564, 98.464 173.564, 98.823 173.562, 108.823 173.560, 118.823 173.559, 128.823 173.557, 138.823 173.555, 148.112 173.555, 148.440 173.555, 150.837 182.306, 155.676 182.497, 155.781 183.910, 155.782 184.044, 155.782 " />
            <path fill="none" stroke-width="3.0" stroke-linecap="butt" stroke-opacity="1.0" stroke="rgb(0, 0, 0)" stroke-linejoin="round" d=" M 182.497, 155.781 182.499, 145.781 182.501, 135.781 182.503, 125.781 182.505, 115.781 182.507, 105.781 182.509, 95.781 182.510, 91.719 182.511, 90.442 " />
            <path fill="none" stroke-width="3.0" stroke-linecap="butt" stroke-opacity="1.0" stroke="rgb(0, 0, 0)" stroke-linejoin="round" d=" M 68.107, 155.751 68.971, 155.751 69.650, 155.751 78.400, 150.910 78.570, 150.815 78.570, 148.421 78.570, 148.091 78.568, 138.091 78.567, 128.091 78.565, 118.091 78.563, 108.091 78.562, 98.845 78.562, 98.485 78.561, 95.869 70.766, 91.157 69.636, 90.475 69.144, 90.475 " />
            <path fill="none" stroke-width="3.0" stroke-linecap="butt" stroke-opacity="1.0" stroke="rgb(0, 0, 0)" stroke-linejoin="round" d=" M 69.650, 155.751 69.648, 145.751 69.645, 135.751 69.643, 125.751 69.641, 115.751 69.639, 105.751 69.637, 95.751 69.637, 92.993 69.636, 90.475 " />
            <path fill="none" stroke-width="3.0" stroke-linecap="butt" stroke-opacity="1.0" stroke="rgb(0, 0, 0)" stroke-linejoin="round" d=" M 67.300, 157.051 68.107, 156.605 68.107, 155.751 68.106, 153.997 68.106, 153.280 68.104, 143.280 68.102, 133.280 68.100, 123.280 68.098, 113.280 68.096, 103.280 68.094, 96.125 68.094, 93.175 68.093, 92.163 " />
            <path fill="none" stroke-width="3.0" stroke-linecap="butt" stroke-opacity="1.0" stroke="rgb(0, 0, 0)" stroke-linejoin="round" d=" M 184.058, 90.089 184.058, 90.441 184.057, 93.142 184.057, 94.610 184.055, 104.610 184.053, 114.610 184.050, 124.610 184.048, 134.610 184.046, 144.610 184.044, 153.310 184.044, 155.512 184.044, 155.782 184.043, 156.636 185.863, 157.643 " />
            <path fill="none" stroke-width="3.0" stroke-linecap="butt" stroke-opacity="1.0" stroke="rgb(0, 0, 0)" stroke-linejoin="round" d=" M -68.200, 232.022 -59.450, 227.180 -50.700, 222.339 -41.950, 217.498 -33.200, 212.657 -24.450, 207.815 -15.700, 202.974 -6.950, 198.133 0.536, 193.991 0.534, 190.101 0.532, 186.788 0.528, 176.788 0.523, 166.788 0.519, 156.788 0.514, 146.788 0.510, 136.788 0.505, 126.788 0.501, 116.788 0.496, 106.788 0.491, 96.788 0.487, 86.788 0.482, 76.788 0.478, 66.788 0.473, 56.548 0.471, 52.926 0.469, 48.672 -8.089, 43.500 -16.647, 38.327 -25.206, 33.155 -33.764, 27.983 -42.323, 22.810 -50.881, 17.638 -59.439, 12.465 -61.849, 11.009 " />
            <path fill="none" stroke-width="3.0" stroke-linecap="butt" stroke-opacity="1.0" stroke="rgb(0, 0, 0)" stroke-linejoin="round" d=" M 0.534, 190.101 7.559, 190.105 16.309, 185.264 25.059, 180.422 27.509, 179.067 36.259, 174.226 41.103, 171.545 41.100, 161.545 41.097, 151.545 41.094, 141.545 41.091, 131.545 41.088, 121.545 41.085, 111.545 41.082, 101.545 41.079, 91.545 41.076, 81.545 41.073, 73.212 32.515, 68.040 30.365, 66.740 21.807, 61.568 13.248, 56.396 7.500, 52.921 0.471, 52.926 " />
            <path fill="none" stroke-width="3.0" stroke-linecap="butt" stroke-opacity="1.0" stroke="rgb(0, 0, 0)" stroke-linejoin="round" d=" M 7.559, 190.105 7.555, 180.105 7.551, 170.105 7.546, 160.105 7.542, 150.105 7.538, 140.105 7.533, 130.105 7.529, 120.105 7.525, 110.105 7.521, 100.105 7.516, 90.105 7.512, 80.105 7.508, 70.105 7.503, 60.105 7.500, 52.921 " />
            <path fill="none" stroke-width="3.0" stroke-linecap="butt" stroke-opacity="1.0" stroke="rgb(0, 0, 0)" stroke-linejoin="round" d=" M 251.933, 52.772 244.870, 52.776 236.311, 57.946 227.751, 63.117 222.842, 66.082 214.282, 71.252 211.160, 73.137 211.157, 83.137 211.154, 93.137 211.150, 103.137 211.147, 113.137 211.144, 123.137 211.141, 133.137 211.138, 143.137 211.135, 153.137 211.131, 163.137 211.129, 171.614 219.880, 176.453 225.802, 179.727 234.553, 184.566 243.304, 189.405 244.810, 190.238 251.869, 190.242 " />
            <path fill="none" stroke-width="3.0" stroke-linecap="butt" stroke-opacity="1.0" stroke="rgb(0, 0, 0)" stroke-linejoin="round" d=" M 244.810, 190.238 244.814, 180.238 244.818, 170.238 244.823, 160.238 244.827, 150.238 244.832, 140.238 244.836, 130.238 244.841, 120.238 244.845, 110.238 244.849, 100.238 244.854, 90.238 244.858, 80.238 244.863, 70.238 244.867, 60.238 244.870, 52.776 " />
            <path fill="none" stroke-width="3.0" stroke-linecap="butt" stroke-opacity="1.0" stroke="rgb(0, 0, 0)" stroke-linejoin="round" d=" M 129.906, 152.305 126.300, 152.541 122.694, 152.304 119.150, 151.598 115.728, 150.436 112.488, 148.837 109.484, 146.829 106.768, 144.447 104.385, 141.730 102.378, 138.726 101.900, 137.755 101.420, 136.783 101.374, 136.690 100.790, 135.504 100.780, 135.485 99.619, 132.064 99.413, 131.029 98.914, 128.520 98.677, 124.914 98.913, 121.309 99.412, 118.800 99.617, 117.765 100.778, 114.343 100.788, 114.324 101.372, 113.138 101.627, 112.621 102.126, 111.609 102.172, 111.515 102.259, 111.339 102.327, 111.201 102.376, 111.102 102.776, 110.503 104.383, 108.097 106.765, 105.380 109.481, 102.996 112.486, 100.988 115.727, 99.389 119.149, 98.226 122.693, 97.520 126.300, 97.283 129.907, 97.518 133.452, 98.223 136.875, 99.384 140.117, 100.982 143.123, 102.990 145.841, 105.373 148.225, 108.091 149.682, 110.271 149.910, 110.613 150.234, 111.097 150.282, 111.196 150.350, 111.334 150.372, 111.378 150.455, 111.545 150.710, 112.062 151.297, 113.252 151.833, 114.339 152.673, 116.815 152.994, 117.762 153.619, 120.901 153.699, 121.307 153.936, 124.915 153.699, 128.522 153.618, 128.928 152.993, 132.067 152.672, 133.013 151.830, 135.490 151.294, 136.576 151.095, 136.980 150.710, 137.761 150.231, 138.731 148.222, 141.736 145.838, 144.453 143.120, 146.836 140.115, 148.843 136.873, 150.440 133.450, 151.601 129.906, 152.305 " />
            <path fill="none" stroke-width="3.0" stroke-linecap="butt" stroke-opacity="1.0" stroke="rgb(0, 0, 0)" stroke-linejoin="round" d=" M 129.021, 145.971 126.238, 146.153 123.455, 145.970 120.720, 145.426 118.080, 144.529 115.579, 143.295 113.260, 141.746 111.164, 139.907 109.325, 137.810 107.776, 135.492 107.453, 134.835 107.386, 134.699 107.343, 134.612 107.059, 134.038 106.910, 133.734 106.543, 132.991 106.504, 132.876 105.751, 130.658 105.647, 130.350 105.646, 130.347 105.575, 129.992 105.103, 127.615 104.920, 124.833 105.102, 122.050 105.575, 119.674 105.645, 119.319 105.646, 119.315 105.750, 119.008 106.503, 116.789 106.542, 116.675 106.909, 115.931 107.696, 114.333 107.762, 114.200 107.775, 114.173 107.854, 114.055 108.084, 113.711 109.324, 111.854 111.162, 109.757 113.259, 107.918 115.577, 106.368 118.079, 105.134 120.719, 104.237 123.455, 103.692 126.238, 103.509 129.022, 103.691 131.757, 104.235 134.399, 105.131 136.901, 106.365 139.220, 107.914 141.318, 109.753 143.157, 111.851 144.305, 113.569 144.379, 113.679 144.707, 114.170 144.720, 114.197 145.166, 115.101 145.574, 115.927 145.941, 116.672 146.326, 117.807 146.433, 118.120 146.502, 118.325 146.837, 119.313 147.382, 122.049 147.564, 124.833 147.381, 127.617 146.837, 130.352 146.501, 131.341 146.432, 131.545 146.325, 131.859 145.940, 132.994 145.572, 133.738 145.372, 134.144 145.139, 134.616 145.096, 134.703 144.942, 135.015 144.705, 135.495 143.155, 137.814 141.316, 139.911 139.219, 141.749 136.899, 143.299 134.397, 144.532 131.756, 145.428 129.021, 145.971 " />
            <path fill="none" stroke-width="3.0" stroke-linecap="butt" stroke-opacity="1.0" stroke="rgb(0, 0, 0)" stroke-linejoin="round" d=" M 159.558, 104.306 159.048, 104.613 159.048, 105.937 159.048, 106.681 159.047, 111.163 159.046, 121.163 159.045, 131.163 159.044, 138.502 159.044, 140.919 159.044, 141.601 159.043, 142.812 160.770, 143.767 " />
            <path fill="none" stroke-width="3.0" stroke-linecap="butt" stroke-opacity="1.0" stroke="rgb(0, 0, 0)" stroke-linejoin="round" d=" M 91.915, 143.432 93.053, 142.802 93.053, 141.591 93.053, 140.909 93.052, 137.352 93.051, 127.352 93.050, 117.352 93.050, 112.312 93.049, 106.693 93.049, 105.948 93.049, 104.674 " />
            <path fill="none" stroke-width="3.0" stroke-linecap="butt" stroke-opacity="1.0" stroke="rgb(0, 0, 0)" stroke-linejoin="round" d=" M 128.078, 139.223 126.172, 139.348 124.266, 139.223 122.393, 138.850 120.584, 138.236 118.872, 137.391 117.284, 136.330 115.848, 135.070 114.588, 133.634 113.527, 132.046 112.683, 130.333 112.069, 128.525 111.696, 126.652 111.571, 124.746 111.696, 122.840 112.068, 120.967 112.682, 119.158 113.527, 117.445 114.588, 115.857 115.847, 114.421 117.283, 113.161 118.871, 112.100 120.584, 111.255 122.393, 110.640 124.266, 110.267 126.172, 110.142 128.079, 110.267 129.952, 110.639 131.761, 111.253 133.475, 112.098 135.063, 113.159 136.499, 114.419 137.759, 115.855 138.820, 117.444 139.665, 119.157 140.279, 120.966 140.652, 122.840 140.777, 124.746 140.652, 126.652 140.279, 128.526 139.665, 130.335 138.820, 132.048 137.758, 133.636 136.499, 135.072 135.062, 136.332 133.474, 137.393 131.760, 138.237 129.952, 138.851 128.078, 139.223 " />
            <path fill="none" stroke-width="3.0" stroke-linecap="butt" stroke-opacity="1.0" stroke="rgb(0, 0, 0)" stroke-linejoin="round" d=" M 128.458, 141.941 126.199, 142.089 123.940, 141.941 121.719, 141.499 119.575, 140.771 117.545, 139.769 115.663, 138.511 113.961, 137.018 112.469, 135.316 111.211, 133.434 110.210, 131.404 109.482, 129.260 109.040, 127.040 108.893, 124.790 108.892, 124.781 108.893, 124.772 109.040, 122.522 109.482, 120.302 110.209, 118.158 111.210, 116.127 112.468, 114.245 113.960, 112.542 115.662, 111.049 117.544, 109.791 119.575, 108.789 121.719, 108.061 123.939, 107.619 126.199, 107.471 128.458, 107.619 130.679, 108.060 132.824, 108.788 134.855, 109.789 136.737, 111.047 138.440, 112.540 139.933, 114.242 141.191, 116.125 142.193, 118.156 142.921, 120.300 143.181, 121.609 143.363, 122.521 143.510, 124.781 143.362, 127.041 143.181, 127.953 142.920, 129.261 142.192, 131.406 141.190, 133.436 139.932, 135.319 138.439, 137.021 136.736, 138.514 134.853, 139.771 132.823, 140.772 130.679, 141.500 128.458, 141.941 " />
            <path fill="none" stroke-width="3.0" stroke-linecap="butt" stroke-opacity="1.0" stroke="rgb(0, 0, 0)" stroke-linejoin="round" d=" M 88.318, 133.783 88.317, 123.783 88.316, 116.344 " />
            <path fill="none" stroke-width="3.0" stroke-linecap="butt" stroke-opacity="1.0" stroke="rgb(0, 0, 0)" stroke-linejoin="round" d=" M 88.979, 136.313 88.977, 126.313 88.976, 116.313 88.976, 113.813 " />
            <path fill="none" stroke-width="3.0" stroke-linecap="butt" stroke-opacity="1.0" stroke="rgb(0, 0, 0)" stroke-linejoin="round" d=" M 100.790, 135.504 100.789, 125.504 100.788, 115.504 100.788, 114.324 " />
            <path fill="none" stroke-width="3.0" stroke-linecap="butt" stroke-opacity="1.0" stroke="rgb(0, 0, 0)" stroke-linejoin="round" d=" M 105.646, 130.347 105.645, 120.347 105.645, 119.319 " />
            <path fill="none" stroke-width="3.0" stroke-linecap="butt" stroke-opacity="1.0" stroke="rgb(0, 0, 0)" stroke-linejoin="round" d=" M 108.893, 124.790 108.893, 124.772 " />
            <path fill="none" stroke-width="3.0" stroke-linecap="butt" stroke-opacity="1.0" stroke="rgb(0, 0, 0)" stroke-linejoin="round" d=" M 143.181, 121.609 143.181, 127.953 " />
            <path fill="none" stroke-width="3.0" stroke-linecap="butt" stroke-opacity="1.0" stroke="rgb(0, 0, 0)" stroke-linejoin="round" d=" M 146.433, 118.120 146.432, 128.120 146.432, 131.545 " />
            <path fill="none" stroke-width="3.0" stroke-linecap="butt" stroke-opacity="1.0" stroke="rgb(0, 0, 0)" stroke-linejoin="round" d=" M 151.297, 113.252 151.296, 123.252 151.295, 133.252 151.294, 136.576 " />
            <path fill="none" stroke-width="3.0" stroke-linecap="butt" stroke-opacity="1.0" stroke="rgb(0, 0, 0)" stroke-linejoin="round" d=" M 153.618, 128.928 153.619, 120.901 " />
            <path fill="none" stroke-width="3.0" stroke-linecap="butt" stroke-opacity="1.0" stroke="rgb(0, 0, 0)" stroke-linejoin="round" d=" M 163.125, 138.516 163.126, 128.516 163.128, 118.516 163.129, 111.611 " />
            <path fill="none" stroke-width="3.0" stroke-linecap="butt" stroke-opacity="1.0" stroke="rgb(0, 0, 0)" stroke-linejoin="round" d=" M 163.790, 113.559 163.789, 123.559 163.787, 133.559 163.787, 136.569 " />
        </g>
    </g>
</svg>
