<?xml version='1.0' encoding='ascii'?>
<svg xmlns="http://www.w3.org/2000/svg" version="1.1" width="250" height="250">
    <g id="ViewLayer_LineSet" xmlns:inkscape="http://www.inkscape.org/namespaces/inkscape" inkscape:groupmode="lineset" inkscape:label="ViewLayer_LineSet">
        <g xmlns:inkscape="http://www.inkscape.org/namespaces/inkscape" inkscape:groupmode="layer" id="strokes" inkscape:label="strokes">
            <path fill="none" stroke-width="3.0" stroke-linecap="butt" stroke-opacity="1.0" stroke="rgb(0, 0, 0)" stroke-linejoin="round" d=" M 257.580, 45.100 249.020, 50.270 240.461, 55.440 231.901, 60.610 229.612, 61.992 221.052, 67.163 217.490, 69.314 217.487, 79.314 217.483, 89.314 217.480, 99.314 217.476, 109.314 217.473, 119.314 217.470, 129.314 217.466, 139.314 217.463, 149.314 217.459, 159.314 217.456, 169.314 217.454, 175.111 226.205, 179.950 232.776, 183.584 241.528, 188.423 250.279, 193.262 257.506, 197.258 " />
            <path fill="none" stroke-width="3.0" stroke-linecap="butt" stroke-opacity="1.0" stroke="rgb(0, 0, 0)" stroke-linejoin="round" d=" M -5.075, 197.095 3.675, 192.254 12.425, 187.413 20.634, 182.871 29.384, 178.029 34.801, 175.032 34.798, 165.032 34.794, 155.032 34.791, 145.032 34.788, 135.032 34.784, 125.032 34.781, 115.032 34.778, 105.032 34.775, 95.032 34.771, 85.032 34.768, 75.032 34.766, 69.400 26.208, 64.228 23.687, 62.704 15.128, 57.532 6.570, 52.359 -1.988, 47.187 -5.148, 45.277 " />
            <path fill="none" stroke-width="3.0" stroke-linecap="butt" stroke-opacity="1.0" stroke="rgb(0, 0, 0)" stroke-linejoin="round" d=" M 20.634, 182.871 22.139, 185.923 27.693, 194.239 30.916, 199.064 37.507, 206.584 41.331, 210.948 48.846, 217.545 53.208, 221.374 61.519, 226.935 66.344, 230.163 75.309, 234.592 80.514, 237.164 89.981, 240.386 95.479, 242.258 105.285, 244.218 110.982, 245.356 120.960, 246.020 126.759, 246.406 136.738, 245.763 142.540, 245.389 152.350, 243.449 158.055, 242.321 167.528, 239.117 173.040, 237.253 182.013, 232.840 187.236, 230.272 195.557, 224.725 200.402, 221.496 207.928, 214.911 212.312, 211.075 218.913, 203.563 222.759, 199.186 228.323, 190.876 231.566, 186.033 232.776, 183.584 " />
            <path fill="none" stroke-width="3.0" stroke-linecap="butt" stroke-opacity="1.0" stroke="rgb(0, 0, 0)" stroke-linejoin="round" d=" M 136.128, 196.845 126.734, 197.454 117.341, 196.833 108.110, 194.991 99.199, 191.962 90.761, 187.795 82.938, 182.564 75.864, 176.357 69.661, 169.281 64.434, 161.457 63.342, 159.241 62.863, 158.270 62.398, 157.326 61.916, 156.349 60.273, 153.017 59.946, 152.054 58.042, 146.446 57.248, 144.107 55.411, 134.878 54.793, 125.488 55.406, 116.098 57.239, 106.867 58.032, 104.527 59.933, 98.918 60.260, 97.954 63.768, 90.832 64.418, 89.511 64.925, 88.752 65.080, 88.520 69.644, 81.681 75.846, 74.601 82.920, 68.389 90.745, 63.153 99.187, 58.983 108.102, 55.951 117.337, 54.107 126.735, 53.486 136.134, 54.096 145.374, 55.929 154.296, 58.952 162.747, 63.116 170.582, 68.347 177.668, 74.557 183.881, 81.640 187.678, 87.321 187.920, 87.682 188.610, 88.714 189.117, 89.473 189.479, 90.207 192.236, 95.798 193.285, 97.924 194.143, 100.454 196.313, 106.846 198.150, 116.088 198.764, 125.490 198.145, 134.891 196.303, 144.130 194.131, 150.521 193.271, 153.050 192.222, 155.174 191.353, 156.933 191.141, 157.363 190.675, 158.307 189.900, 159.875 189.100, 161.496 183.862, 169.325 177.648, 176.403 170.563, 182.608 162.729, 187.834 154.281, 191.993 145.363, 195.014 136.128, 196.845 " />
            <path fill="none" stroke-width="3.0" stroke-linecap="butt" stroke-opacity="1.0" stroke="rgb(0, 0, 0)" stroke-linejoin="round" d=" M 229.612, 61.992 224.055, 53.679 222.812, 51.821 216.216, 44.304 212.367, 39.918 204.845, 33.328 200.456, 29.482 192.138, 23.932 187.285, 20.693 178.313, 16.277 173.079, 13.701 163.607, 10.494 158.084, 8.624 148.274, 6.682 142.555, 5.550 132.576, 4.906 126.760, 4.531 116.783, 5.195 110.970, 5.582 101.164, 7.544 95.454, 8.686 85.988, 11.911 80.478, 13.788 71.514, 18.221 66.299, 20.800 57.990, 26.365 53.157, 29.602 45.646, 36.203 41.279, 40.041 34.693, 47.566 30.865, 51.939 25.317, 60.259 23.687, 62.704 " />
            <path fill="none" stroke-width="3.0" stroke-linecap="butt" stroke-opacity="1.0" stroke="rgb(0, 0, 0)" stroke-linejoin="round" d=" M 66.840, 157.306 67.677, 159.003 72.606, 166.382 78.456, 173.055 85.127, 178.908 92.504, 183.841 100.462, 187.770 108.865, 190.627 117.570, 192.363 126.428, 192.949 135.287, 192.373 143.995, 190.647 152.405, 187.798 160.371, 183.876 167.758, 178.947 174.439, 173.095 180.299, 166.421 185.238, 159.038 186.066, 157.361 " />
            <path fill="none" stroke-width="3.0" stroke-linecap="butt" stroke-opacity="1.0" stroke="rgb(0, 0, 0)" stroke-linejoin="round" d=" M 131.744, 165.461 126.428, 165.807 121.113, 165.457 115.889, 164.416 110.846, 162.702 106.070, 160.346 101.642, 157.386 97.638, 153.874 94.127, 149.869 91.169, 145.441 90.550, 144.187 90.087, 143.246 88.813, 140.664 88.340, 139.269 87.961, 138.155 87.264, 136.100 87.101, 135.621 86.062, 130.398 85.713, 125.084 86.061, 119.770 87.099, 114.546 87.261, 114.067 87.958, 112.012 88.336, 110.897 88.809, 109.502 91.164, 104.724 91.555, 104.139 91.753, 103.841 94.122, 100.294 97.632, 96.288 101.636, 92.775 106.065, 89.813 110.842, 87.455 115.886, 85.741 121.112, 84.700 126.428, 84.349 131.746, 84.696 136.972, 85.734 142.019, 87.446 146.799, 89.801 151.231, 92.761 155.238, 96.275 158.753, 100.281 160.900, 103.495 161.323, 104.127 161.714, 104.712 163.767, 108.876 164.071, 109.492 164.148, 109.719 164.847, 111.777 165.784, 114.539 166.824, 119.766 167.172, 125.084 166.822, 130.402 165.781, 135.629 164.843, 138.391 164.144, 140.448 164.067, 140.675 163.763, 141.291 162.792, 143.258 162.161, 144.536 161.709, 145.453 158.747, 149.883 155.232, 153.888 151.225, 157.400 146.793, 160.358 142.014, 162.713 136.969, 164.423 131.744, 165.461 " />
            <path fill="none" stroke-width="3.0" stroke-linecap="butt" stroke-opacity="1.0" stroke="rgb(0, 0, 0)" stroke-linejoin="round" d=" M 184.140, 89.458 180.316, 83.736 174.456, 77.057 167.775, 71.201 160.387, 66.268 152.418, 62.342 144.005, 59.490 135.292, 57.762 126.429, 57.186 117.567, 57.772 108.858, 59.510 100.451, 62.369 92.490, 66.301 85.111, 71.238 78.440, 77.096 72.591, 83.773 68.554, 89.821 " />
            <path fill="none" stroke-width="3.0" stroke-linecap="butt" stroke-opacity="1.0" stroke="rgb(0, 0, 0)" stroke-linejoin="round" d=" M 187.678, 87.321 187.079, 87.682 187.079, 88.715 187.078, 91.507 187.078, 94.823 187.075, 104.823 187.073, 114.823 187.071, 124.823 187.068, 134.823 187.066, 144.823 187.064, 154.807 187.064, 155.340 187.063, 157.361 187.063, 158.306 189.900, 159.875 " />
            <path fill="none" stroke-width="3.0" stroke-linecap="butt" stroke-opacity="1.0" stroke="rgb(0, 0, 0)" stroke-linejoin="round" d=" M 63.342, 159.241 65.095, 158.271 65.095, 157.327 65.094, 154.773 65.094, 153.765 65.092, 143.765 65.090, 133.765 65.087, 123.765 65.085, 113.765 65.083, 103.765 65.081, 96.397 65.080, 91.543 65.080, 88.752 65.080, 88.520 " />
            <path fill="none" stroke-width="3.0" stroke-linecap="butt" stroke-opacity="1.0" stroke="rgb(0, 0, 0)" stroke-linejoin="round" d=" M 65.095, 157.327 66.800, 157.328 66.840, 157.306 75.590, 152.464 76.567, 151.924 76.567, 149.187 76.567, 149.084 76.565, 139.084 76.563, 129.084 76.561, 119.084 76.560, 109.084 76.558, 99.084 76.558, 97.760 76.558, 97.648 76.557, 94.657 68.554, 89.821 66.785, 88.752 65.080, 88.752 " />
            <path fill="none" stroke-width="3.0" stroke-linecap="butt" stroke-opacity="1.0" stroke="rgb(0, 0, 0)" stroke-linejoin="round" d=" M 66.800, 157.328 66.800, 157.224 66.798, 147.224 66.796, 137.224 66.794, 127.224 66.791, 117.224 66.789, 107.224 66.787, 97.224 66.786, 92.936 66.785, 88.752 " />
            <path fill="none" stroke-width="3.0" stroke-linecap="butt" stroke-opacity="1.0" stroke="rgb(0, 0, 0)" stroke-linejoin="round" d=" M 187.079, 88.715 185.369, 88.715 184.140, 89.458 175.573, 94.632 175.572, 97.625 175.572, 97.736 175.571, 107.736 175.569, 117.736 175.567, 127.736 175.565, 137.736 175.563, 147.736 175.563, 149.107 175.563, 149.208 175.562, 151.947 184.313, 156.786 185.354, 157.361 186.066, 157.361 187.063, 157.361 " />
            <path fill="none" stroke-width="3.0" stroke-linecap="butt" stroke-opacity="1.0" stroke="rgb(0, 0, 0)" stroke-linejoin="round" d=" M 185.354, 157.361 185.356, 147.361 185.358, 137.361 185.360, 127.361 185.362, 117.361 185.365, 107.361 185.367, 97.361 185.368, 91.357 185.369, 88.715 " />
            <path fill="none" stroke-width="3.0" stroke-linecap="butt" stroke-opacity="1.0" stroke="rgb(0, 0, 0)" stroke-linejoin="round" d=" M 129.997, 152.957 126.306, 153.198 122.615, 152.955 118.988, 152.233 115.486, 151.044 112.170, 149.407 109.095, 147.352 106.315, 144.914 103.877, 142.133 101.823, 139.058 101.328, 138.055 100.833, 137.051 100.322, 136.014 100.187, 135.742 98.999, 132.240 98.808, 131.284 98.277, 128.613 98.035, 124.923 98.276, 121.233 98.807, 118.562 98.997, 117.605 100.185, 114.103 100.320, 113.831 100.854, 112.746 101.120, 112.208 101.565, 111.305 101.630, 111.172 101.683, 111.064 101.754, 110.920 101.820, 110.786 102.230, 110.173 103.875, 107.711 106.312, 104.929 109.093, 102.490 112.168, 100.434 115.485, 98.797 118.987, 97.607 122.615, 96.885 126.306, 96.642 129.998, 96.883 133.626, 97.604 137.130, 98.793 140.448, 100.428 143.525, 102.483 146.307, 104.923 148.747, 107.704 150.237, 109.935 150.453, 110.258 150.802, 110.780 150.869, 110.915 150.940, 111.059 150.944, 111.068 150.963, 111.106 151.229, 111.645 151.766, 112.733 152.439, 114.099 153.279, 116.573 153.628, 117.602 154.179, 120.371 154.350, 121.231 154.557, 124.404 154.591, 124.923 154.557, 125.443 154.349, 128.615 154.178, 129.475 153.627, 132.244 153.277, 133.272 152.437, 135.747 151.763, 137.112 151.684, 137.272 151.295, 138.061 150.800, 139.064 148.744, 142.140 146.304, 144.921 143.522, 147.359 140.446, 149.413 137.128, 151.048 133.625, 152.237 129.997, 152.957 " />
            <path fill="none" stroke-width="3.0" stroke-linecap="butt" stroke-opacity="1.0" stroke="rgb(0, 0, 0)" stroke-linejoin="round" d=" M 160.900, 103.495 159.853, 104.127 159.853, 105.514 159.853, 106.246 159.852, 111.507 159.851, 121.507 159.850, 131.507 159.849, 138.168 159.849, 141.318 159.848, 141.988 159.848, 143.258 162.161, 144.536 " />
            <path fill="none" stroke-width="3.0" stroke-linecap="butt" stroke-opacity="1.0" stroke="rgb(0, 0, 0)" stroke-linejoin="round" d=" M 90.550, 144.187 92.250, 143.247 92.249, 141.978 92.249, 141.308 92.249, 136.967 92.248, 126.967 92.246, 116.967 92.246, 112.707 92.245, 106.257 92.245, 105.525 92.245, 104.139 91.753, 103.841 " />
            <path fill="none" stroke-width="3.0" stroke-linecap="butt" stroke-opacity="1.0" stroke="rgb(0, 0, 0)" stroke-linejoin="round" d=" M 129.075, 146.357 126.242, 146.542 123.409, 146.356 120.624, 145.802 117.936, 144.889 115.390, 143.633 113.030, 142.056 110.896, 140.184 109.024, 138.049 107.447, 135.689 107.118, 135.020 107.046, 134.876 107.002, 134.785 106.709, 134.192 106.600, 133.970 106.192, 133.143 106.142, 132.998 105.402, 130.816 105.279, 130.455 105.252, 130.316 105.220, 130.158 104.725, 127.671 104.539, 124.838 104.725, 122.005 105.219, 119.518 105.251, 119.360 105.278, 119.221 105.401, 118.859 106.141, 116.678 106.191, 116.532 106.599, 115.705 107.378, 114.124 107.423, 114.032 107.446, 113.986 107.541, 113.844 107.760, 113.516 109.023, 111.625 110.894, 109.490 113.029, 107.618 115.389, 106.040 117.935, 104.784 120.624, 103.871 123.409, 103.316 126.242, 103.130 129.075, 103.315 131.861, 103.869 134.550, 104.781 137.097, 106.037 139.458, 107.614 141.594, 109.486 143.466, 111.621 144.641, 113.379 144.698, 113.465 145.044, 113.983 145.067, 114.028 145.477, 114.861 145.936, 115.791 146.300, 116.530 146.676, 117.637 146.828, 118.084 146.858, 118.173 147.213, 119.219 147.767, 122.004 147.952, 124.838 147.766, 127.672 147.212, 130.457 146.857, 131.503 146.826, 131.592 146.675, 132.039 146.299, 133.146 145.934, 133.884 145.721, 134.317 145.488, 134.789 145.444, 134.879 145.283, 135.204 145.042, 135.692 143.464, 138.053 141.592, 140.188 139.456, 142.060 137.095, 143.637 134.548, 144.892 131.860, 145.804 129.075, 146.357 " />
            <path fill="none" stroke-width="3.0" stroke-linecap="butt" stroke-opacity="1.0" stroke="rgb(0, 0, 0)" stroke-linejoin="round" d=" M 128.111, 139.457 126.174, 139.583 124.238, 139.456 122.335, 139.077 120.498, 138.454 118.758, 137.595 117.144, 136.517 115.686, 135.238 114.406, 133.779 113.328, 132.165 113.062, 131.625 112.920, 131.336 112.900, 131.297 112.867, 131.230 112.809, 131.112 112.470, 130.425 112.436, 130.324 112.357, 130.092 112.263, 129.814 112.173, 129.549 111.847, 128.588 111.775, 128.227 111.501, 126.853 111.468, 126.685 111.343, 124.781 111.341, 124.749 111.343, 124.717 111.468, 122.813 111.501, 122.645 111.775, 121.271 111.846, 120.910 112.172, 119.949 112.262, 119.684 112.357, 119.405 112.435, 119.174 112.470, 119.072 112.866, 118.268 112.966, 118.066 113.253, 117.483 113.254, 117.481 113.328, 117.332 113.420, 117.193 113.449, 117.151 113.543, 117.010 114.406, 115.718 115.685, 114.259 117.144, 112.980 118.757, 111.901 120.497, 111.043 122.335, 110.419 124.238, 110.040 126.175, 109.913 128.111, 110.040 130.015, 110.418 131.852, 111.042 133.593, 111.900 135.207, 112.978 136.666, 114.258 137.946, 115.717 138.728, 116.887 138.816, 117.019 138.903, 117.149 138.932, 117.192 139.024, 117.330 139.098, 117.479 139.102, 117.489 139.203, 117.693 139.633, 118.566 139.712, 118.726 139.808, 118.919 139.882, 119.071 139.898, 119.116 140.295, 120.287 140.506, 120.909 140.570, 121.227 140.727, 122.018 140.885, 122.812 141.012, 124.749 140.885, 126.686 140.727, 127.480 140.569, 128.271 140.506, 128.589 140.295, 129.211 139.897, 130.382 139.882, 130.427 139.807, 130.579 139.712, 130.772 139.633, 130.932 139.487, 131.227 139.452, 131.299 139.432, 131.338 139.290, 131.627 139.202, 131.805 139.023, 132.167 137.945, 133.781 136.665, 135.240 135.206, 136.519 133.592, 137.597 131.852, 138.455 130.014, 139.078 128.111, 139.457 " />
            <path fill="none" stroke-width="3.0" stroke-linecap="butt" stroke-opacity="1.0" stroke="rgb(0, 0, 0)" stroke-linejoin="round" d=" M 128.504, 142.270 126.202, 142.421 123.900, 142.269 121.638, 141.819 119.453, 141.077 117.385, 140.057 115.467, 138.775 113.733, 137.254 112.212, 135.520 110.931, 133.602 110.663, 133.059 110.562, 132.854 110.434, 132.595 110.313, 132.350 110.243, 132.207 110.124, 131.966 109.910, 131.533 109.820, 131.267 109.296, 129.723 109.233, 129.538 109.169, 129.349 108.719, 127.087 108.615, 125.500 108.568, 124.785 108.615, 124.071 108.719, 122.483 109.169, 120.221 109.233, 120.032 109.295, 119.847 109.819, 118.303 109.910, 118.037 110.123, 117.604 110.242, 117.363 110.568, 116.701 110.669, 116.497 110.770, 116.292 110.797, 116.237 110.824, 116.182 110.930, 115.968 111.031, 115.816 111.058, 115.776 112.211, 114.050 113.732, 112.315 115.466, 110.794 117.384, 109.512 119.453, 108.491 121.637, 107.749 123.900, 107.299 126.202, 107.148 128.504, 107.298 130.767, 107.748 132.952, 108.489 135.021, 109.510 136.940, 110.791 138.675, 112.312 140.196, 114.047 141.126, 115.438 141.161, 115.490 141.350, 115.774 141.478, 115.966 141.567, 116.145 141.830, 116.679 141.949, 116.920 142.252, 117.535 142.499, 118.035 142.777, 118.854 142.841, 119.042 143.240, 120.220 143.459, 121.321 143.658, 122.321 143.690, 122.483 143.791, 124.013 143.841, 124.785 143.791, 125.558 143.690, 127.088 143.658, 127.249 143.459, 128.249 143.240, 129.351 142.840, 130.528 142.776, 130.716 142.498, 131.535 142.251, 132.035 142.029, 132.486 141.974, 132.597 141.948, 132.650 141.846, 132.857 141.829, 132.891 141.673, 133.207 141.477, 133.604 140.195, 135.523 138.674, 137.257 136.939, 138.778 135.020, 140.059 132.951, 141.079 130.766, 141.820 128.504, 142.270 " />
            <path fill="none" stroke-width="3.0" stroke-linecap="butt" stroke-opacity="1.0" stroke="rgb(0, 0, 0)" stroke-linejoin="round" d=" M 127.827, 137.422 126.155, 137.532 124.483, 137.422 122.839, 137.095 121.253, 136.556 119.750, 135.815 118.357, 134.884 117.098, 133.780 115.993, 132.520 115.062, 131.127 114.868, 130.732 114.824, 130.643 114.808, 130.612 114.703, 130.399 114.610, 130.209 114.322, 129.625 114.321, 129.624 114.249, 129.410 113.846, 128.224 113.819, 128.144 113.783, 128.038 113.776, 128.001 113.755, 127.899 113.456, 126.394 113.346, 124.723 113.456, 123.051 113.755, 121.546 113.775, 121.444 113.783, 121.408 113.818, 121.302 113.846, 121.221 114.248, 120.035 114.321, 119.821 114.321, 119.820 114.609, 119.236 115.028, 118.386 115.062, 118.318 115.085, 118.283 115.157, 118.175 115.247, 118.041 115.993, 116.925 117.097, 115.665 118.357, 114.560 119.750, 113.629 121.253, 112.888 122.839, 112.349 124.483, 112.022 126.155, 111.912 127.827, 112.022 129.470, 112.349 131.057, 112.887 132.560, 113.628 133.954, 114.559 135.214, 115.664 136.319, 116.924 136.999, 117.941 137.039, 118.002 137.154, 118.174 137.250, 118.317 137.458, 118.740 137.746, 119.325 137.819, 119.471 137.991, 119.820 138.222, 120.502 138.249, 120.581 138.293, 120.710 138.313, 120.768 138.529, 121.407 138.780, 122.668 138.815, 122.845 138.856, 123.051 138.966, 124.723 138.856, 126.395 138.815, 126.601 138.780, 126.778 138.529, 128.038 138.312, 128.677 138.293, 128.735 138.249, 128.864 138.222, 128.943 137.990, 129.625 137.818, 129.974 137.746, 130.121 137.608, 130.400 137.503, 130.613 137.488, 130.644 137.457, 130.706 137.391, 130.840 137.249, 131.128 136.318, 132.521 135.213, 133.781 133.953, 134.886 132.560, 135.816 131.057, 136.557 129.470, 137.096 127.827, 137.422 " />
            <path fill="none" stroke-width="3.0" stroke-linecap="butt" stroke-opacity="1.0" stroke="rgb(0, 0, 0)" stroke-linejoin="round" d=" M 127.610, 135.871 126.139, 135.967 124.669, 135.871 123.224, 135.583 121.829, 135.109 120.508, 134.457 119.283, 133.639 118.175, 132.667 117.203, 131.560 116.385, 130.334 115.733, 129.013 115.471, 128.240 115.260, 127.618 115.085, 126.742 115.029, 126.456 114.972, 126.173 114.876, 124.703 114.972, 123.232 115.028, 122.949 115.085, 122.663 115.259, 121.787 115.471, 121.165 115.733, 120.392 116.385, 119.071 117.203, 117.845 118.174, 116.738 119.282, 115.766 120.507, 114.947 121.829, 114.295 123.224, 113.822 124.669, 113.534 126.140, 113.437 127.610, 113.534 129.055, 113.821 130.451, 114.295 131.772, 114.946 132.998, 115.765 134.106, 116.737 135.077, 117.844 135.896, 119.070 136.548, 120.391 136.596, 120.533 136.982, 121.669 137.022, 121.787 137.039, 121.872 137.309, 123.232 137.405, 124.703 137.309, 126.173 137.038, 127.533 137.021, 127.618 136.981, 127.736 136.596, 128.872 136.548, 129.014 135.896, 130.335 135.077, 131.561 134.105, 132.668 132.997, 133.640 131.772, 134.458 130.450, 135.110 129.055, 135.583 127.610, 135.871 " />
            <path fill="none" stroke-width="3.0" stroke-linecap="butt" stroke-opacity="1.0" stroke="rgb(0, 0, 0)" stroke-linejoin="round" d=" M 127.301, 133.658 126.118, 133.736 124.935, 133.658 123.773, 133.427 122.650, 133.046 121.587, 132.522 120.602, 131.863 119.711, 131.081 118.929, 130.190 118.271, 129.205 117.746, 128.142 117.365, 127.019 117.134, 125.857 117.057, 124.674 117.134, 123.491 117.365, 122.329 117.746, 121.207 118.270, 120.143 118.929, 119.158 119.710, 118.267 120.602, 117.485 121.587, 116.826 122.650, 116.302 123.773, 115.921 124.935, 115.690 126.118, 115.612 127.301, 115.689 128.464, 115.921 129.586, 116.302 130.649, 116.826 131.635, 117.484 132.526, 118.266 133.308, 119.157 133.967, 120.143 134.491, 121.206 134.872, 122.329 135.103, 123.491 135.181, 124.674 135.103, 125.857 134.872, 127.020 134.491, 128.142 133.966, 129.205 133.308, 130.191 132.526, 131.082 131.635, 131.864 130.649, 132.522 129.586, 133.046 128.463, 133.427 127.301, 133.658 " />
            <path fill="none" stroke-width="3.0" stroke-linecap="butt" stroke-opacity="1.0" stroke="rgb(0, 0, 0)" stroke-linejoin="round" d=" M 127.437, 134.636 126.127, 134.722 124.818, 134.636 123.530, 134.380 122.287, 133.958 121.110, 133.377 120.019, 132.648 119.032, 131.782 118.166, 130.796 117.437, 129.704 116.857, 128.527 116.435, 127.284 116.179, 125.997 116.093, 124.687 116.178, 123.377 116.435, 122.090 116.856, 120.847 117.437, 119.669 118.166, 118.578 119.031, 117.591 120.018, 116.725 121.110, 115.996 122.287, 115.415 123.530, 114.993 124.818, 114.737 126.128, 114.651 127.438, 114.737 128.725, 114.993 129.968, 115.414 131.146, 115.995 132.237, 116.724 133.224, 117.590 134.090, 118.577 134.819, 119.669 135.400, 120.846 135.822, 122.089 136.078, 123.377 136.164, 124.687 136.078, 125.997 135.822, 127.284 135.400, 128.528 134.819, 129.705 134.090, 130.796 133.224, 131.783 132.237, 132.649 131.145, 133.378 129.968, 133.958 128.725, 134.380 127.437, 134.636 " />
            <path fill="none" stroke-width="3.0" stroke-linecap="butt" stroke-opacity="1.0" stroke="rgb(0, 0, 0)" stroke-linejoin="round" d=" M 87.264, 136.100 87.263, 126.100 87.261, 116.100 87.261, 114.067 " />
            <path fill="none" stroke-width="3.0" stroke-linecap="butt" stroke-opacity="1.0" stroke="rgb(0, 0, 0)" stroke-linejoin="round" d=" M 87.961, 138.155 87.960, 128.155 87.959, 118.155 87.958, 112.012 " />
            <path fill="none" stroke-width="3.0" stroke-linecap="butt" stroke-opacity="1.0" stroke="rgb(0, 0, 0)" stroke-linejoin="round" d=" M 100.322, 136.014 100.321, 126.014 100.320, 116.014 100.320, 113.831 " />
            <path fill="none" stroke-width="3.0" stroke-linecap="butt" stroke-opacity="1.0" stroke="rgb(0, 0, 0)" stroke-linejoin="round" d=" M 105.252, 130.316 105.252, 128.815 105.251, 120.630 105.251, 119.360 " />
            <path fill="none" stroke-width="3.0" stroke-linecap="butt" stroke-opacity="1.0" stroke="rgb(0, 0, 0)" stroke-linejoin="round" d=" M 108.615, 125.500 108.615, 124.071 " />
            <path fill="none" stroke-width="3.0" stroke-linecap="butt" stroke-opacity="1.0" stroke="rgb(0, 0, 0)" stroke-linejoin="round" d=" M 143.459, 121.321 143.459, 128.249 " />
            <path fill="none" stroke-width="3.0" stroke-linecap="butt" stroke-opacity="1.0" stroke="rgb(0, 0, 0)" stroke-linejoin="round" d=" M 146.828, 118.084 146.827, 119.430 146.827, 129.430 146.827, 130.016 146.826, 131.592 " />
            <path fill="none" stroke-width="3.0" stroke-linecap="butt" stroke-opacity="1.0" stroke="rgb(0, 0, 0)" stroke-linejoin="round" d=" M 151.766, 112.733 151.765, 122.733 151.764, 132.733 151.763, 137.112 " />
            <path fill="none" stroke-width="3.0" stroke-linecap="butt" stroke-opacity="1.0" stroke="rgb(0, 0, 0)" stroke-linejoin="round" d=" M 154.178, 129.475 154.179, 120.371 " />
            <path fill="none" stroke-width="3.0" stroke-linecap="butt" stroke-opacity="1.0" stroke="rgb(0, 0, 0)" stroke-linejoin="round" d=" M 154.557, 124.404 154.557, 125.443 " />
            <path fill="none" stroke-width="3.0" stroke-linecap="butt" stroke-opacity="1.0" stroke="rgb(0, 0, 0)" stroke-linejoin="round" d=" M 164.144, 140.448 164.145, 130.448 164.147, 120.448 164.148, 110.448 164.148, 109.719 " />
            <path fill="none" stroke-width="3.0" stroke-linecap="butt" stroke-opacity="1.0" stroke="rgb(0, 0, 0)" stroke-linejoin="round" d=" M 164.847, 111.777 164.845, 121.777 164.844, 131.777 164.843, 138.391 " />
        </g>
    </g>
</svg>
