<?xml version='1.0' encoding='ascii'?>
<svg xmlns="http://www.w3.org/2000/svg" version="1.1" width="250" height="250">
    <g id="ViewLayer_LineSet" xmlns:inkscape="http://www.inkscape.org/namespaces/inkscape" inkscape:groupmode="lineset" inkscape:label="ViewLayer_LineSet">
        <g xmlns:inkscape="http://www.inkscape.org/namespaces/inkscape" inkscape:groupmode="layer" id="strokes" inkscape:label="strokes">
            <path fill="none" stroke-width="3.0" stroke-linecap="butt" stroke-opacity="1.0" stroke="rgb(0, 0, 0)" stroke-linejoin="round" d=" M 233.616, -11.367 241.139, -4.779 248.662, 1.810 250.744, 3.633 " />
            <path fill="none" stroke-width="3.0" stroke-linecap="butt" stroke-opacity="1.0" stroke="rgb(0, 0, 0)" stroke-linejoin="round" d=" M -10.120, 20.989 -3.537, 13.461 3.045, 5.933 4.835, 3.887 12.343, -2.718 19.852, -9.323 21.897, -11.121 " />
            <path fill="none" stroke-width="3.0" stroke-linecap="butt" stroke-opacity="1.0" stroke="rgb(0, 0, 0)" stroke-linejoin="round" d=" M 22.001, 264.400 14.487, 257.802 6.973, 251.203 4.943, 249.420 -1.647, 241.899 -8.236, 234.377 -10.015, 232.346 " />
            <path fill="none" stroke-width="3.0" stroke-linecap="butt" stroke-opacity="1.0" stroke="rgb(0, 0, 0)" stroke-linejoin="round" d=" M 95.559, 178.817 102.665, 182.324 110.344, 184.935 118.299, 186.521 126.393, 187.056 134.489, 186.530 142.447, 184.951 150.132, 182.348 157.411, 178.763 164.161, 174.259 170.266, 168.911 175.621, 162.812 180.133, 156.065 180.750, 154.815 " />
            <path fill="none" stroke-width="3.0" stroke-linecap="butt" stroke-opacity="1.0" stroke="rgb(0, 0, 0)" stroke-linejoin="round" d=" M 131.251, 161.936 126.394, 162.252 121.536, 161.933 116.763, 160.982 112.154, 159.416 107.789, 157.262 103.743, 154.557 100.084, 151.348 96.876, 147.688 94.172, 143.642 93.607, 142.496 93.427, 142.131 92.872, 141.005 92.870, 141.000 92.860, 140.981 92.020, 139.277 90.588, 135.060 90.502, 134.805 90.455, 134.668 89.895, 131.852 89.505, 129.895 89.187, 125.039 89.504, 120.182 89.893, 118.225 90.453, 115.408 90.499, 115.272 90.586, 115.017 92.016, 110.799 92.856, 109.095 93.831, 107.116 94.092, 106.588 94.168, 106.433 94.261, 106.294 96.871, 102.385 100.079, 98.724 103.738, 95.514 107.785, 92.808 112.151, 90.653 116.761, 89.086 121.535, 88.135 126.394, 87.815 131.253, 88.132 136.029, 89.081 140.641, 90.645 145.009, 92.798 149.058, 95.502 152.720, 98.713 155.932, 102.374 157.894, 105.310 157.918, 105.347 158.638, 106.423 158.714, 106.578 158.825, 106.802 159.239, 107.643 160.792, 110.791 161.514, 112.918 161.602, 113.180 162.210, 114.969 162.357, 115.403 163.307, 120.179 163.625, 125.039 163.305, 129.898 162.354, 134.674 162.207, 135.108 161.599, 136.897 161.510, 137.159 160.788, 139.285 159.379, 142.141 159.047, 142.814 158.633, 143.652 155.926, 147.700 152.715, 151.360 149.053, 154.569 145.004, 157.273 140.637, 159.424 136.026, 160.988 131.251, 161.936 " />
            <path fill="none" stroke-width="3.0" stroke-linecap="butt" stroke-opacity="1.0" stroke="rgb(0, 0, 0)" stroke-linejoin="round" d=" M 35.874, 174.439 37.161, 177.050 42.716, 185.365 44.669, 188.290 51.260, 195.810 53.579, 198.456 61.094, 205.052 63.739, 207.373 72.050, 212.933 74.975, 214.890 83.941, 219.318 87.097, 220.877 96.564, 224.098 99.898, 225.233 109.704, 227.191 113.159, 227.881 123.137, 228.544 126.653, 228.777 136.632, 228.132 140.151, 227.905 149.960, 225.963 153.421, 225.279 162.893, 222.073 166.236, 220.942 175.209, 216.528 178.377, 214.970 186.697, 209.422 189.636, 207.462 197.160, 200.876 199.819, 198.548 206.419, 191.036 208.753, 188.379 214.315, 180.069 216.283, 177.130 217.317, 175.036 " />
            <path fill="none" stroke-width="3.0" stroke-linecap="butt" stroke-opacity="1.0" stroke="rgb(0, 0, 0)" stroke-linejoin="round" d=" M 134.710, 186.694 126.635, 187.219 118.561, 186.686 110.626, 185.104 102.966, 182.500 95.711, 178.919 95.559, 178.817 88.986, 174.422 82.905, 169.087 77.573, 163.004 73.080, 156.278 71.878, 153.840 71.745, 153.571 70.915, 151.887 69.502, 149.023 66.976, 141.581 66.902, 141.363 65.460, 134.118 65.323, 133.429 64.792, 125.358 65.319, 117.285 65.456, 116.597 66.895, 109.350 66.969, 109.132 69.492, 101.688 71.734, 97.138 72.508, 95.566 73.068, 94.431 73.091, 94.396 73.963, 93.090 77.560, 87.701 82.892, 81.615 88.973, 76.276 95.700, 71.776 102.957, 68.192 110.620, 65.586 118.558, 64.003 126.636, 63.469 134.715, 63.994 142.656, 65.570 150.324, 68.169 157.588, 71.748 164.322, 76.245 170.412, 81.583 175.752, 87.670 179.016, 92.553 179.048, 92.600 180.252, 94.403 180.408, 94.719 180.563, 95.034 183.834, 101.666 185.182, 105.636 186.390, 109.198 186.437, 109.335 186.699, 110.654 188.016, 117.278 188.544, 125.359 188.012, 133.439 186.693, 140.062 186.430, 141.380 185.173, 145.078 183.824, 149.047 182.176, 152.384 181.444, 153.868 181.073, 154.620 180.928, 154.913 180.240, 156.307 175.738, 163.036 170.397, 169.120 164.308, 174.454 157.575, 178.947 150.314, 182.523 142.648, 185.120 134.710, 186.694 " />
            <path fill="none" stroke-width="3.0" stroke-linecap="butt" stroke-opacity="1.0" stroke="rgb(0, 0, 0)" stroke-linejoin="round" d=" M 214.606, 71.056 209.049, 62.742 208.792, 62.358 202.196, 54.841 199.860, 52.179 192.338, 45.588 189.675, 43.254 181.357, 37.703 178.412, 35.737 169.441, 31.320 166.265, 29.756 156.793, 26.549 153.442, 25.414 143.632, 23.470 140.162, 22.783 130.183, 22.137 126.655, 21.909 116.677, 22.572 113.150, 22.806 103.344, 24.766 99.880, 25.459 90.414, 28.682 87.071, 29.820 78.106, 34.252 74.943, 35.816 66.633, 41.379 63.702, 43.342 56.189, 49.942 53.541, 52.269 46.953, 59.793 44.632, 62.445 39.083, 70.764 38.491, 71.651 " />
            <path fill="none" stroke-width="3.0" stroke-linecap="butt" stroke-opacity="1.0" stroke="rgb(0, 0, 0)" stroke-linejoin="round" d=" M 179.035, 153.867 179.037, 143.867 179.039, 133.867 179.041, 123.867 179.043, 113.867 179.045, 103.867 179.047, 93.867 179.048, 92.600 " />
            <path fill="none" stroke-width="3.0" stroke-linecap="butt" stroke-opacity="1.0" stroke="rgb(0, 0, 0)" stroke-linejoin="round" d=" M 179.016, 92.553 171.088, 97.341 171.087, 99.706 171.087, 100.164 171.085, 110.164 171.084, 120.164 171.082, 130.164 171.080, 140.164 171.079, 146.884 171.079, 147.304 171.079, 149.467 179.035, 153.867 180.396, 153.868 " />
            <path fill="none" stroke-width="3.0" stroke-linecap="butt" stroke-opacity="1.0" stroke="rgb(0, 0, 0)" stroke-linejoin="round" d=" M 71.878, 153.840 73.102, 153.841 81.041, 149.448 81.041, 147.286 81.041, 146.866 81.039, 136.866 81.037, 126.866 81.036, 116.866 81.034, 106.866 81.033, 100.184 81.033, 99.725 81.033, 97.362 73.963, 93.090 " />
            <path fill="none" stroke-width="3.0" stroke-linecap="butt" stroke-opacity="1.0" stroke="rgb(0, 0, 0)" stroke-linejoin="round" d=" M 73.102, 153.841 73.101, 143.841 73.099, 133.841 73.097, 123.841 73.095, 113.841 73.093, 103.841 73.091, 94.396 " />
            <path fill="none" stroke-width="3.0" stroke-linecap="butt" stroke-opacity="1.0" stroke="rgb(0, 0, 0)" stroke-linejoin="round" d=" M 180.408, 94.719 180.408, 95.118 180.406, 105.118 180.404, 115.118 180.402, 125.118 180.400, 135.118 180.398, 145.118 180.397, 151.502 180.396, 153.868 180.396, 154.620 180.750, 154.815 180.928, 154.913 " />
            <path fill="none" stroke-width="3.0" stroke-linecap="butt" stroke-opacity="1.0" stroke="rgb(0, 0, 0)" stroke-linejoin="round" d=" M 275.010, 34.572 266.450, 39.742 257.890, 44.912 249.331, 50.082 240.771, 55.252 235.933, 58.175 235.931, 61.446 235.930, 65.060 235.926, 75.060 235.922, 85.060 235.918, 95.060 235.913, 105.060 235.909, 115.060 235.905, 125.060 235.901, 135.060 235.897, 145.060 235.893, 155.060 235.889, 165.060 235.885, 175.060 235.883, 179.003 235.882, 182.308 235.881, 185.300 244.632, 190.140 253.383, 194.979 262.134, 199.818 270.885, 204.657 279.637, 209.496 280.238, 209.828 " />
            <path fill="none" stroke-width="3.0" stroke-linecap="butt" stroke-opacity="1.0" stroke="rgb(0, 0, 0)" stroke-linejoin="round" d=" M -25.203, 208.232 -16.453, 203.390 -7.703, 198.549 1.047, 193.708 9.797, 188.867 16.448, 185.187 16.447, 182.200 16.446, 178.897 16.442, 168.897 16.438, 158.897 16.434, 148.897 16.430, 138.897 16.426, 128.897 16.422, 118.897 16.418, 108.897 16.414, 98.897 16.410, 88.897 16.406, 78.897 16.402, 68.897 16.400, 65.175 16.399, 61.564 16.398, 58.299 7.839, 53.126 -0.719, 47.954 -9.277, 42.782 -17.836, 37.609 -20.230, 36.162 " />
            <path fill="none" stroke-width="3.0" stroke-linecap="butt" stroke-opacity="1.0" stroke="rgb(0, 0, 0)" stroke-linejoin="round" d=" M 16.447, 182.200 21.842, 182.202 30.592, 177.361 35.874, 174.439 44.624, 169.597 48.702, 167.341 48.700, 157.341 48.697, 147.341 48.694, 137.341 48.691, 127.341 48.688, 117.341 48.686, 107.341 48.683, 97.341 48.680, 87.341 48.677, 77.808 40.119, 72.635 38.491, 71.651 29.933, 66.479 21.796, 61.562 16.399, 61.564 " />
            <path fill="none" stroke-width="3.0" stroke-linecap="butt" stroke-opacity="1.0" stroke="rgb(0, 0, 0)" stroke-linejoin="round" d=" M 21.842, 182.202 21.838, 172.202 21.834, 162.202 21.830, 152.202 21.827, 142.202 21.823, 132.202 21.819, 122.202 21.815, 112.202 21.812, 102.202 21.808, 92.202 21.804, 82.202 21.800, 72.202 21.796, 61.562 " />
            <path fill="none" stroke-width="3.0" stroke-linecap="butt" stroke-opacity="1.0" stroke="rgb(0, 0, 0)" stroke-linejoin="round" d=" M 235.931, 61.446 230.511, 61.449 221.951, 66.619 214.606, 71.056 206.046, 76.226 203.530, 77.746 203.527, 87.746 203.524, 97.746 203.521, 107.746 203.519, 117.746 203.516, 127.746 203.513, 137.746 203.510, 147.746 203.507, 157.746 203.504, 167.398 212.255, 172.237 217.317, 175.036 226.069, 179.875 230.464, 182.305 235.882, 182.308 " />
            <path fill="none" stroke-width="3.0" stroke-linecap="butt" stroke-opacity="1.0" stroke="rgb(0, 0, 0)" stroke-linejoin="round" d=" M 230.464, 182.305 230.468, 172.305 230.472, 162.305 230.476, 152.305 230.480, 142.305 230.484, 132.305 230.487, 122.305 230.491, 112.305 230.495, 102.305 230.499, 92.305 230.503, 82.305 230.507, 72.305 230.511, 61.449 " />
            <path fill="none" stroke-width="3.0" stroke-linecap="butt" stroke-opacity="1.0" stroke="rgb(0, 0, 0)" stroke-linejoin="round" d=" M 129.768, 151.320 126.290, 151.547 122.812, 151.318 119.394, 150.638 116.094, 149.517 112.969, 147.975 110.071, 146.038 107.451, 143.740 105.154, 141.120 103.218, 138.222 102.813, 137.401 102.358, 136.478 102.298, 136.358 102.285, 136.331 102.231, 136.222 101.989, 135.730 101.677, 135.097 101.506, 134.594 100.557, 131.797 100.128, 129.642 99.877, 128.379 99.648, 124.902 99.876, 121.424 100.127, 120.161 100.555, 118.006 101.504, 115.209 101.675, 114.706 101.987, 114.073 102.229, 113.581 102.813, 112.397 102.975, 112.069 103.174, 111.665 103.216, 111.580 103.247, 111.534 103.602, 111.002 105.152, 108.682 107.449, 106.061 110.069, 103.762 112.967, 101.825 116.093, 100.282 119.393, 99.161 122.812, 98.480 126.290, 98.251 129.769, 98.479 133.188, 99.158 136.490, 100.278 139.617, 101.820 142.516, 103.756 145.138, 106.055 147.437, 108.676 148.841, 110.778 149.268, 111.417 149.343, 111.529 149.374, 111.575 149.416, 111.660 149.508, 111.846 149.852, 112.544 150.094, 113.035 150.579, 114.019 150.916, 114.702 151.957, 117.769 152.037, 118.003 152.717, 121.423 152.766, 122.171 152.944, 124.902 152.765, 127.633 152.716, 128.381 152.035, 131.800 151.956, 132.035 150.914, 135.101 150.577, 135.784 150.205, 136.539 149.777, 137.406 149.371, 138.228 147.434, 141.126 145.135, 143.747 142.513, 146.044 139.614, 147.980 136.488, 149.521 133.187, 150.641 129.768, 151.320 " />
            <path fill="none" stroke-width="3.0" stroke-linecap="butt" stroke-opacity="1.0" stroke="rgb(0, 0, 0)" stroke-linejoin="round" d=" M 128.938, 145.379 126.232, 145.556 123.526, 145.379 120.867, 144.849 118.299, 143.977 115.867, 142.777 113.613, 141.271 111.575, 139.483 109.787, 137.444 108.281, 135.190 107.966, 134.551 107.935, 134.489 107.894, 134.405 107.622, 133.853 107.282, 133.164 107.081, 132.758 106.935, 132.328 106.210, 130.190 106.169, 129.984 106.116, 129.717 106.000, 129.137 105.681, 127.531 105.503, 124.825 105.680, 122.120 106.000, 120.513 106.115, 119.933 106.168, 119.667 106.209, 119.460 106.934, 117.322 107.080, 116.892 107.280, 116.486 108.077, 114.870 108.228, 114.564 108.279, 114.460 108.319, 114.401 108.579, 114.011 109.786, 112.205 111.573, 110.166 113.612, 108.378 115.866, 106.871 118.298, 105.671 120.866, 104.799 123.526, 104.269 126.232, 104.091 128.939, 104.268 131.599, 104.797 134.168, 105.668 136.600, 106.868 138.856, 108.374 140.895, 110.163 142.684, 112.202 143.777, 113.837 143.847, 113.942 143.998, 114.168 144.151, 114.398 144.191, 114.457 144.794, 115.680 145.142, 116.385 145.391, 116.890 145.908, 118.414 145.962, 118.574 146.077, 118.911 146.262, 119.458 146.791, 122.119 146.969, 124.825 146.791, 127.532 146.262, 130.192 146.076, 130.740 145.961, 131.077 145.907, 131.236 145.389, 132.760 145.140, 133.265 144.838, 133.879 144.576, 134.408 144.535, 134.492 144.420, 134.726 144.189, 135.193 142.682, 137.448 140.894, 139.487 138.854, 141.274 136.599, 142.781 134.166, 143.980 131.598, 144.851 128.938, 145.379 " />
            <path fill="none" stroke-width="3.0" stroke-linecap="butt" stroke-opacity="1.0" stroke="rgb(0, 0, 0)" stroke-linejoin="round" d=" M 157.894, 105.310 157.834, 105.347 157.834, 106.578 157.834, 107.339 157.833, 110.921 157.832, 120.921 157.831, 130.921 157.830, 138.728 157.830, 140.318 157.830, 141.014 157.829, 142.141 159.047, 142.814 " />
            <path fill="none" stroke-width="3.0" stroke-linecap="butt" stroke-opacity="1.0" stroke="rgb(0, 0, 0)" stroke-linejoin="round" d=" M 93.607, 142.496 94.265, 142.132 94.265, 141.005 94.265, 140.308 94.265, 137.887 94.264, 127.887 94.262, 117.887 94.262, 111.763 94.261, 107.349 94.261, 106.588 94.261, 106.294 " />
            <path fill="none" stroke-width="3.0" stroke-linecap="butt" stroke-opacity="1.0" stroke="rgb(0, 0, 0)" stroke-linejoin="round" d=" M 128.039, 138.943 126.169, 139.066 124.300, 138.943 122.462, 138.577 120.688, 137.975 119.008, 137.146 117.450, 136.105 116.042, 134.870 114.807, 133.461 113.766, 131.903 112.937, 130.223 112.335, 128.449 111.970, 126.612 111.847, 124.742 111.970, 122.873 112.335, 121.035 112.937, 119.261 113.765, 117.581 114.806, 116.023 116.041, 114.614 117.450, 113.379 119.008, 112.337 120.688, 111.509 122.462, 110.906 124.300, 110.540 126.170, 110.417 128.039, 110.540 129.877, 110.905 131.652, 111.507 133.332, 112.336 134.891, 113.377 136.300, 114.612 137.535, 116.021 138.576, 117.579 139.405, 119.260 140.007, 121.035 140.373, 122.872 140.495, 124.742 140.373, 126.612 140.007, 128.450 139.405, 130.224 138.576, 131.905 137.534, 133.463 136.299, 134.871 134.890, 136.107 133.332, 137.148 131.651, 137.976 129.877, 138.578 128.039, 138.943 " />
            <path fill="none" stroke-width="3.0" stroke-linecap="butt" stroke-opacity="1.0" stroke="rgb(0, 0, 0)" stroke-linejoin="round" d=" M 128.403, 141.549 126.195, 141.694 123.987, 141.549 121.816, 141.117 119.721, 140.405 117.736, 139.426 115.897, 138.197 114.233, 136.738 112.774, 135.074 111.545, 133.234 110.566, 131.249 109.855, 129.154 109.423, 126.984 109.278, 124.776 109.423, 122.568 109.855, 120.398 110.566, 118.302 111.544, 116.317 112.773, 114.477 114.232, 112.813 115.896, 111.354 117.736, 110.124 119.720, 109.145 121.816, 108.433 123.987, 108.001 126.195, 107.856 128.404, 108.001 130.574, 108.432 132.670, 109.143 134.656, 110.122 136.496, 111.352 138.160, 112.811 139.620, 114.475 140.849, 116.315 141.828, 118.300 142.540, 120.396 142.848, 121.943 142.972, 122.567 143.116, 124.776 142.971, 126.985 142.847, 127.609 142.539, 129.155 141.828, 131.251 140.848, 133.236 139.619, 135.076 138.159, 136.740 136.495, 138.199 134.654, 139.428 132.669, 140.407 130.574, 141.118 128.403, 141.549 " />
            <path fill="none" stroke-width="3.0" stroke-linecap="butt" stroke-opacity="1.0" stroke="rgb(0, 0, 0)" stroke-linejoin="round" d=" M 71.745, 153.571 71.744, 151.476 71.743, 141.476 71.741, 131.476 71.739, 121.476 71.737, 111.476 71.735, 101.476 71.734, 97.138 " />
            <path fill="none" stroke-width="3.0" stroke-linecap="butt" stroke-opacity="1.0" stroke="rgb(0, 0, 0)" stroke-linejoin="round" d=" M 89.895, 131.852 89.893, 121.852 89.893, 118.225 " />
            <path fill="none" stroke-width="3.0" stroke-linecap="butt" stroke-opacity="1.0" stroke="rgb(0, 0, 0)" stroke-linejoin="round" d=" M 90.502, 134.805 90.500, 124.805 90.499, 115.272 " />
            <path fill="none" stroke-width="3.0" stroke-linecap="butt" stroke-opacity="1.0" stroke="rgb(0, 0, 0)" stroke-linejoin="round" d=" M 101.506, 134.594 101.505, 124.594 101.504, 115.209 " />
            <path fill="none" stroke-width="3.0" stroke-linecap="butt" stroke-opacity="1.0" stroke="rgb(0, 0, 0)" stroke-linejoin="round" d=" M 106.116, 129.717 106.115, 119.933 " />
            <path fill="none" stroke-width="3.0" stroke-linecap="butt" stroke-opacity="1.0" stroke="rgb(0, 0, 0)" stroke-linejoin="round" d=" M 142.848, 121.943 142.847, 127.609 " />
            <path fill="none" stroke-width="3.0" stroke-linecap="butt" stroke-opacity="1.0" stroke="rgb(0, 0, 0)" stroke-linejoin="round" d=" M 145.962, 118.574 145.961, 128.574 145.961, 131.077 " />
            <path fill="none" stroke-width="3.0" stroke-linecap="butt" stroke-opacity="1.0" stroke="rgb(0, 0, 0)" stroke-linejoin="round" d=" M 150.579, 114.019 150.578, 124.019 150.577, 134.019 150.577, 135.784 " />
            <path fill="none" stroke-width="3.0" stroke-linecap="butt" stroke-opacity="1.0" stroke="rgb(0, 0, 0)" stroke-linejoin="round" d=" M 152.765, 127.633 152.766, 122.171 " />
            <path fill="none" stroke-width="3.0" stroke-linecap="butt" stroke-opacity="1.0" stroke="rgb(0, 0, 0)" stroke-linejoin="round" d=" M 161.599, 136.897 161.601, 126.897 161.602, 116.897 161.602, 113.180 " />
            <path fill="none" stroke-width="3.0" stroke-linecap="butt" stroke-opacity="1.0" stroke="rgb(0, 0, 0)" stroke-linejoin="round" d=" M 162.210, 114.969 162.208, 124.969 162.207, 135.108 " />
        </g>
    </g>
</svg>
