<?xml version='1.0' encoding='ascii'?>
<svg xmlns="http://www.w3.org/2000/svg" version="1.1" width="250" height="250">
    <g id="ViewLayer_LineSet" xmlns:inkscape="http://www.inkscape.org/namespaces/inkscape" inkscape:groupmode="lineset" inkscape:label="ViewLayer_LineSet">
        <g xmlns:inkscape="http://www.inkscape.org/namespaces/inkscape" inkscape:groupmode="layer" id="strokes" inkscape:label="strokes">
            <path fill="none" stroke-width="3.0" stroke-linecap="butt" stroke-opacity="1.0" stroke="rgb(0, 0, 0)" stroke-linejoin="round" d=" M 239.991, 59.234 234.173, 59.237 225.614, 64.407 217.054, 69.578 216.769, 69.749 208.210, 74.920 205.527, 76.540 205.524, 86.540 205.521, 96.540 205.518, 106.540 205.515, 116.540 205.512, 126.540 205.509, 136.540 205.506, 146.540 205.503, 156.540 205.500, 166.540 205.500, 168.501 214.251, 173.340 219.546, 176.268 228.297, 181.107 234.123, 184.329 239.938, 184.332 " />
            <path fill="none" stroke-width="3.0" stroke-linecap="butt" stroke-opacity="1.0" stroke="rgb(0, 0, 0)" stroke-linejoin="round" d=" M 234.123, 184.329 234.127, 174.329 234.131, 164.329 234.135, 154.329 234.139, 144.329 234.143, 134.329 234.147, 124.329 234.151, 114.329 234.155, 104.329 234.159, 94.329 234.163, 84.329 234.167, 74.329 234.171, 64.329 234.173, 59.237 " />
            <path fill="none" stroke-width="3.0" stroke-linecap="butt" stroke-opacity="1.0" stroke="rgb(0, 0, 0)" stroke-linejoin="round" d=" M 12.409, 184.215 18.198, 184.218 26.948, 179.377 33.676, 175.655 42.426, 170.813 46.713, 168.441 46.710, 158.441 46.708, 148.441 46.705, 138.441 46.702, 128.441 46.699, 118.441 46.696, 108.441 46.693, 98.441 46.690, 88.441 46.687, 78.441 46.687, 76.605 38.129, 71.432 36.356, 70.361 27.798, 65.189 19.239, 60.016 18.149, 59.358 12.357, 59.361 " />
            <path fill="none" stroke-width="3.0" stroke-linecap="butt" stroke-opacity="1.0" stroke="rgb(0, 0, 0)" stroke-linejoin="round" d=" M 18.198, 184.218 18.194, 174.218 18.190, 164.218 18.187, 154.218 18.183, 144.218 18.179, 134.218 18.175, 124.218 18.171, 114.218 18.167, 104.218 18.163, 94.218 18.159, 84.218 18.155, 74.218 18.151, 64.218 18.149, 59.358 " />
            <path fill="none" stroke-width="3.0" stroke-linecap="butt" stroke-opacity="1.0" stroke="rgb(0, 0, 0)" stroke-linejoin="round" d=" M -56.875, 225.756 -48.125, 220.914 -39.375, 216.073 -30.625, 211.232 -21.875, 206.391 -13.125, 201.549 -4.375, 196.708 4.375, 191.867 12.410, 187.421 12.409, 184.215 12.408, 180.900 12.404, 170.900 12.399, 160.900 12.395, 150.900 12.391, 140.900 12.387, 130.900 12.383, 120.900 12.379, 110.900 12.375, 100.900 12.371, 90.900 12.366, 80.900 12.362, 70.900 12.359, 62.986 12.357, 59.361 12.356, 55.856 3.798, 50.684 -4.761, 45.511 -13.319, 40.339 -21.878, 35.166 -30.436, 29.994 -38.994, 24.822 -47.553, 19.649 -56.111, 14.477 -57.017, 13.929 " />
            <path fill="none" stroke-width="3.0" stroke-linecap="butt" stroke-opacity="1.0" stroke="rgb(0, 0, 0)" stroke-linejoin="round" d=" M 309.760, 13.583 301.200, 18.753 292.641, 23.923 284.081, 29.093 275.521, 34.263 266.961, 39.433 258.401, 44.604 249.842, 49.774 241.282, 54.944 239.992, 55.723 239.991, 59.234 239.989, 62.862 239.985, 72.862 239.981, 82.862 239.976, 92.862 239.972, 102.862 239.968, 112.862 239.964, 122.862 239.960, 132.862 239.955, 142.862 239.951, 152.862 239.947, 162.862 239.943, 172.862 239.939, 181.013 239.938, 184.332 239.936, 187.543 248.688, 192.382 257.439, 197.221 266.190, 202.060 274.941, 206.899 283.692, 211.739 292.444, 216.578 301.195, 221.417 309.616, 226.073 " />
            <path fill="none" stroke-width="3.0" stroke-linecap="butt" stroke-opacity="1.0" stroke="rgb(0, 0, 0)" stroke-linejoin="round" d=" M 33.676, 175.655 34.995, 178.329 40.549, 186.645 42.686, 189.844 49.277, 197.364 51.812, 200.257 59.328, 206.854 62.220, 209.392 70.532, 214.952 73.731, 217.092 82.697, 221.521 86.148, 223.226 95.615, 226.447 99.261, 227.688 109.067, 229.647 112.845, 230.401 122.823, 231.064 126.668, 231.319 136.648, 230.675 140.495, 230.426 150.305, 228.485 154.089, 227.736 163.561, 224.531 167.217, 223.294 176.190, 218.880 179.654, 217.176 187.974, 211.628 191.188, 209.486 198.713, 202.899 201.620, 200.354 208.221, 192.842 210.772, 189.938 216.335, 181.628 218.486, 178.414 219.546, 176.268 " />
            <path fill="none" stroke-width="3.0" stroke-linecap="butt" stroke-opacity="1.0" stroke="rgb(0, 0, 0)" stroke-linejoin="round" d=" M 134.915, 188.164 126.649, 188.701 118.384, 188.155 110.262, 186.535 102.420, 183.870 94.994, 180.204 88.110, 175.601 81.886, 170.140 76.427, 163.913 71.828, 157.028 70.650, 154.640 70.540, 154.416 69.611, 152.533 68.165, 149.601 65.815, 142.679 65.504, 141.760 64.238, 135.403 63.887, 133.639 63.344, 125.377 63.883, 117.113 64.234, 115.349 65.496, 108.991 65.530, 108.892 65.808, 108.072 68.155, 101.148 70.639, 96.107 71.242, 94.881 71.815, 93.718 72.050, 93.366 72.732, 92.345 76.413, 86.829 81.872, 80.599 88.097, 75.134 94.982, 70.527 102.411, 66.859 110.255, 64.191 118.381, 62.570 126.574, 62.028 126.650, 62.023 134.920, 62.561 143.050, 64.174 150.899, 66.835 158.335, 70.498 165.229, 75.101 171.463, 80.565 176.930, 86.797 180.342, 91.903 181.506, 93.645 181.536, 93.689 181.854, 94.335 185.203, 101.124 186.346, 104.493 187.867, 108.975 187.925, 109.264 189.483, 117.105 190.024, 125.378 189.479, 133.649 187.917, 141.489 187.859, 141.778 186.336, 146.259 185.192, 149.626 183.505, 153.043 182.813, 154.444 182.427, 155.227 182.227, 155.632 181.523, 157.058 176.915, 163.947 171.447, 170.175 165.214, 175.635 158.321, 180.234 150.888, 183.894 143.041, 186.553 134.915, 188.164 " />
            <path fill="none" stroke-width="3.0" stroke-linecap="butt" stroke-opacity="1.0" stroke="rgb(0, 0, 0)" stroke-linejoin="round" d=" M 216.769, 69.749 211.212, 61.436 210.813, 60.839 204.217, 53.322 201.663, 50.411 194.142, 43.821 191.229, 41.269 182.911, 35.717 179.691, 33.568 170.720, 29.151 167.247, 27.441 157.776, 24.234 154.111, 22.993 144.301, 21.050 140.507, 20.298 130.528, 19.653 126.670, 19.403 116.692, 20.067 112.836, 20.323 103.030, 22.283 99.242, 23.040 89.775, 26.264 86.120, 27.509 77.156, 31.940 73.696, 33.650 65.387, 39.214 62.181, 41.360 54.669, 47.961 51.772, 50.506 45.185, 58.030 42.647, 60.930 37.098, 69.249 36.356, 70.361 " />
            <path fill="none" stroke-width="3.0" stroke-linecap="butt" stroke-opacity="1.0" stroke="rgb(0, 0, 0)" stroke-linejoin="round" d=" M 70.813, 154.416 71.858, 156.535 76.434, 163.386 81.865, 169.580 88.057, 175.014 94.906, 179.593 102.294, 183.240 110.096, 185.892 118.176, 187.504 126.399, 188.047 134.623, 187.512 142.707, 185.909 150.514, 183.264 157.909, 179.623 164.766, 175.047 170.968, 169.615 176.407, 163.419 180.992, 156.565 181.618, 155.296 " />
            <path fill="none" stroke-width="3.0" stroke-linecap="butt" stroke-opacity="1.0" stroke="rgb(0, 0, 0)" stroke-linejoin="round" d=" M 131.334, 162.528 126.399, 162.850 121.465, 162.525 116.616, 161.559 111.934, 159.969 107.500, 157.781 103.390, 155.033 99.673, 151.773 96.413, 148.055 93.667, 143.944 93.093, 142.780 92.837, 142.262 91.480, 139.510 90.325, 136.106 90.206, 135.757 89.891, 134.829 89.589, 133.311 88.926, 129.980 88.602, 125.046 88.925, 120.113 89.587, 116.781 89.889, 115.263 90.204, 114.335 90.322, 113.985 91.477, 110.581 92.626, 108.250 93.321, 106.840 93.506, 106.463 93.663, 106.146 94.025, 105.603 96.409, 102.034 99.668, 98.315 103.385, 95.053 107.496, 92.304 111.931, 90.115 116.614, 88.524 121.464, 87.557 126.400, 87.232 131.336, 87.554 136.188, 88.518 140.872, 90.107 145.310, 92.294 149.424, 95.041 153.144, 98.303 156.406, 102.022 158.400, 105.005 158.532, 105.204 159.155, 106.135 159.312, 106.453 159.345, 106.521 159.470, 106.775 161.343, 110.573 161.778, 111.852 161.899, 112.209 162.516, 114.029 162.933, 115.258 163.898, 120.110 164.221, 125.047 163.897, 129.983 162.931, 134.835 162.513, 136.064 161.895, 137.883 161.774, 138.240 161.339, 139.519 159.981, 142.272 159.570, 143.104 159.150, 143.955 156.401, 148.067 153.138, 151.785 149.418, 155.045 145.305, 157.791 140.868, 159.977 136.185, 161.565 131.334, 162.528 " />
            <path fill="none" stroke-width="3.0" stroke-linecap="butt" stroke-opacity="1.0" stroke="rgb(0, 0, 0)" stroke-linejoin="round" d=" M 179.972, 91.975 176.422, 86.664 170.983, 80.464 164.781, 75.028 157.922, 70.448 150.525, 66.804 142.715, 64.157 134.628, 62.552 126.574, 62.028 " />
            <path fill="none" stroke-width="3.0" stroke-linecap="butt" stroke-opacity="1.0" stroke="rgb(0, 0, 0)" stroke-linejoin="round" d=" M 181.506, 93.645 181.506, 94.523 181.506, 94.538 181.504, 104.538 181.502, 114.538 181.500, 124.538 181.498, 134.538 181.496, 144.538 181.494, 152.046 181.494, 154.444 181.493, 155.226 181.618, 155.296 182.227, 155.632 " />
            <path fill="none" stroke-width="3.0" stroke-linecap="butt" stroke-opacity="1.0" stroke="rgb(0, 0, 0)" stroke-linejoin="round" d=" M 70.650, 154.416 70.813, 154.416 72.062, 154.416 80.292, 149.863 80.291, 147.505 80.291, 147.237 80.290, 137.237 80.288, 127.237 80.286, 117.237 80.285, 107.237 80.283, 99.778 80.283, 99.486 80.283, 96.909 72.732, 92.345 " />
            <path fill="none" stroke-width="3.0" stroke-linecap="butt" stroke-opacity="1.0" stroke="rgb(0, 0, 0)" stroke-linejoin="round" d=" M 72.062, 154.416 72.060, 144.416 72.058, 134.416 72.056, 124.416 72.054, 114.416 72.052, 104.416 72.051, 94.416 72.050, 93.366 " />
            <path fill="none" stroke-width="3.0" stroke-linecap="butt" stroke-opacity="1.0" stroke="rgb(0, 0, 0)" stroke-linejoin="round" d=" M 180.342, 91.903 180.091, 91.903 179.972, 91.975 171.839, 96.888 171.838, 99.466 171.838, 99.757 171.837, 109.757 171.835, 119.757 171.833, 129.757 171.831, 139.757 171.830, 147.257 171.830, 147.523 171.830, 149.883 180.078, 154.444 181.494, 154.444 " />
            <path fill="none" stroke-width="3.0" stroke-linecap="butt" stroke-opacity="1.0" stroke="rgb(0, 0, 0)" stroke-linejoin="round" d=" M 180.078, 154.444 180.080, 144.444 180.082, 134.444 180.084, 124.444 180.086, 114.444 180.088, 104.444 180.090, 94.444 180.091, 92.153 180.091, 91.903 " />
            <path fill="none" stroke-width="3.0" stroke-linecap="butt" stroke-opacity="1.0" stroke="rgb(0, 0, 0)" stroke-linejoin="round" d=" M 129.795, 151.512 126.292, 151.741 122.789, 151.510 119.347, 150.825 116.023, 149.696 112.875, 148.143 109.957, 146.192 107.318, 143.878 105.004, 141.239 103.054, 138.320 102.647, 137.494 102.575, 137.348 102.202, 136.593 102.142, 136.470 102.115, 136.415 102.005, 136.192 101.758, 135.691 101.502, 135.173 101.365, 134.770 100.374, 131.849 99.859, 129.263 99.689, 128.407 99.459, 124.904 99.688, 121.402 99.858, 120.546 100.373, 117.959 101.364, 115.038 101.500, 114.635 101.756, 114.116 102.003, 113.616 102.573, 112.460 102.809, 111.979 103.025, 111.542 103.052, 111.487 103.104, 111.409 103.441, 110.905 105.002, 108.568 107.316, 105.928 109.955, 103.613 112.873, 101.662 116.021, 100.108 119.346, 98.979 122.789, 98.293 126.292, 98.063 129.796, 98.292 133.240, 98.976 136.565, 100.104 139.715, 101.657 142.634, 103.607 145.275, 105.922 147.590, 108.562 149.005, 110.679 149.489, 111.403 149.509, 111.434 149.541, 111.482 149.569, 111.537 149.676, 111.755 150.078, 112.571 150.326, 113.072 150.720, 113.872 151.095, 114.631 152.223, 117.956 152.226, 117.970 152.908, 121.400 152.932, 121.773 153.137, 124.904 152.932, 128.036 152.907, 128.408 152.225, 131.838 152.222, 131.852 151.093, 135.177 150.718, 135.937 150.378, 136.625 149.927, 137.539 149.539, 138.326 147.588, 141.245 145.272, 143.884 142.632, 146.199 139.712, 148.148 136.563, 149.700 133.238, 150.828 129.795, 151.512 " />
            <path fill="none" stroke-width="3.0" stroke-linecap="butt" stroke-opacity="1.0" stroke="rgb(0, 0, 0)" stroke-linejoin="round" d=" M 158.400, 105.005 158.070, 105.204 158.070, 106.453 158.070, 107.211 158.070, 110.965 158.068, 120.965 158.067, 130.965 158.066, 138.688 158.066, 140.435 158.066, 141.128 158.066, 142.272 159.570, 143.104 " />
            <path fill="none" stroke-width="3.0" stroke-linecap="butt" stroke-opacity="1.0" stroke="rgb(0, 0, 0)" stroke-linejoin="round" d=" M 93.093, 142.780 94.029, 142.262 94.029, 141.119 94.029, 140.425 94.029, 137.787 94.028, 127.787 94.026, 117.787 94.026, 111.865 94.025, 107.221 94.025, 106.463 94.025, 105.603 " />
            <path fill="none" stroke-width="3.0" stroke-linecap="butt" stroke-opacity="1.0" stroke="rgb(0, 0, 0)" stroke-linejoin="round" d=" M 128.954, 145.496 126.233, 145.673 123.512, 145.495 120.838, 144.962 118.256, 144.085 115.811, 142.879 113.544, 141.364 111.494, 139.566 109.696, 137.516 109.634, 137.423 108.182, 135.249 107.865, 134.607 107.846, 134.568 107.804, 134.483 107.528, 133.923 107.141, 133.139 106.976, 132.803 106.773, 132.206 106.099, 130.222 106.011, 129.778 105.939, 129.415 105.840, 128.918 105.567, 127.547 105.389, 124.827 105.567, 122.106 105.839, 120.735 105.938, 120.239 106.010, 119.875 106.099, 119.432 106.772, 117.447 106.975, 116.850 107.140, 116.514 107.793, 115.191 107.934, 114.905 107.992, 114.787 108.045, 114.679 108.087, 114.594 108.180, 114.404 108.233, 114.325 108.482, 113.952 109.695, 112.136 111.493, 110.086 113.542, 108.288 115.810, 106.772 118.255, 105.566 120.837, 104.688 123.512, 104.156 126.234, 103.977 128.955, 104.155 131.630, 104.687 134.213, 105.563 136.659, 106.769 138.927, 108.284 140.978, 110.082 142.712, 112.059 142.777, 112.133 143.876, 113.778 143.988, 113.945 144.141, 114.175 144.240, 114.322 144.292, 114.401 144.935, 115.704 145.305, 116.454 145.499, 116.847 146.066, 118.518 146.139, 118.735 146.237, 119.022 146.375, 119.430 146.907, 122.105 147.085, 124.827 146.907, 127.549 146.374, 130.224 146.236, 130.631 146.138, 130.919 146.065, 131.136 145.497, 132.806 145.303, 133.200 144.943, 133.931 144.668, 134.487 144.626, 134.571 144.522, 134.783 144.291, 135.252 142.775, 137.520 140.976, 139.570 138.926, 141.368 136.658, 142.882 134.212, 144.088 131.629, 144.964 128.954, 145.496 " />
            <path fill="none" stroke-width="3.0" stroke-linecap="butt" stroke-opacity="1.0" stroke="rgb(0, 0, 0)" stroke-linejoin="round" d=" M 128.054, 139.049 126.170, 139.172 124.287, 139.049 122.436, 138.680 120.649, 138.073 118.957, 137.238 117.387, 136.190 115.969, 134.945 114.724, 133.527 113.676, 131.957 113.440, 131.480 113.304, 131.202 113.285, 131.165 113.171, 130.933 113.146, 130.883 112.841, 130.265 112.703, 129.858 112.628, 129.635 112.568, 129.460 112.482, 129.206 112.235, 128.478 112.068, 127.642 111.866, 126.627 111.841, 126.236 111.743, 124.744 111.841, 123.251 111.866, 122.860 112.068, 121.845 112.234, 121.009 112.481, 120.281 112.568, 120.028 112.627, 119.852 112.703, 119.629 112.841, 119.222 113.146, 118.604 113.213, 118.467 113.516, 117.852 113.523, 117.839 113.545, 117.794 113.551, 117.783 113.633, 117.615 113.675, 117.530 113.803, 117.338 113.831, 117.297 113.884, 117.217 114.724, 115.960 115.968, 114.541 117.387, 113.296 118.956, 112.248 120.649, 111.413 122.436, 110.806 124.287, 110.437 126.171, 110.314 128.054, 110.437 129.906, 110.805 131.693, 111.411 133.386, 112.246 134.956, 113.295 136.375, 114.539 137.620, 115.959 138.380, 117.097 138.513, 117.296 138.541, 117.337 138.552, 117.354 138.668, 117.528 138.710, 117.613 138.855, 117.907 138.923, 118.045 139.366, 118.942 139.442, 119.096 139.502, 119.219 139.503, 119.221 139.588, 119.471 140.001, 120.687 140.110, 121.009 140.230, 121.610 140.415, 122.542 140.478, 122.860 140.602, 124.744 140.478, 126.627 140.415, 126.946 140.229, 127.877 140.110, 128.479 140.001, 128.800 139.588, 130.016 139.503, 130.266 139.502, 130.269 139.441, 130.391 139.365, 130.545 139.119, 131.044 139.059, 131.166 139.040, 131.204 138.923, 131.442 138.903, 131.481 138.668, 131.959 137.619, 133.528 136.374, 134.947 134.955, 136.192 133.385, 137.240 131.692, 138.075 129.905, 138.681 128.054, 139.049 " />
            <path fill="none" stroke-width="3.0" stroke-linecap="butt" stroke-opacity="1.0" stroke="rgb(0, 0, 0)" stroke-linejoin="round" d=" M 128.424, 141.697 126.196, 141.843 123.969, 141.696 121.780, 141.260 119.666, 140.543 117.664, 139.555 115.809, 138.315 114.131, 136.843 112.659, 135.165 111.419, 133.309 111.160, 132.784 111.096, 132.655 110.974, 132.407 110.822, 132.098 110.643, 131.735 110.530, 131.506 110.432, 131.308 110.199, 130.620 109.715, 129.194 109.699, 129.117 109.685, 129.047 109.279, 127.005 109.133, 124.778 109.279, 122.551 109.685, 120.509 109.699, 120.438 109.714, 120.361 110.198, 118.935 110.431, 118.248 110.529, 118.049 110.642, 117.821 110.913, 117.271 111.009, 117.076 111.264, 116.559 111.332, 116.421 111.358, 116.369 111.393, 116.298 111.418, 116.246 111.595, 115.982 112.658, 114.390 114.130, 112.711 115.808, 111.239 117.664, 109.999 119.666, 109.011 121.779, 108.293 123.969, 107.857 126.196, 107.711 128.424, 107.857 130.614, 108.292 132.728, 109.009 134.730, 109.997 136.587, 111.237 138.266, 112.709 139.738, 114.387 140.678, 115.795 140.802, 115.979 140.978, 116.244 141.039, 116.367 141.157, 116.607 141.430, 117.159 141.543, 117.388 141.873, 118.058 141.966, 118.246 142.373, 119.446 142.388, 119.490 142.683, 120.360 142.973, 121.819 143.119, 122.550 143.211, 123.964 143.265, 124.778 143.211, 125.592 143.119, 127.006 142.973, 127.737 142.683, 129.195 142.387, 130.065 142.372, 130.109 141.965, 131.309 141.872, 131.497 141.542, 132.167 141.511, 132.230 141.429, 132.396 141.423, 132.409 141.300, 132.657 141.167, 132.927 140.977, 133.312 139.737, 135.168 138.264, 136.846 136.586, 138.318 134.729, 139.558 132.727, 140.545 130.613, 141.262 128.424, 141.697 " />
            <path fill="none" stroke-width="3.0" stroke-linecap="butt" stroke-opacity="1.0" stroke="rgb(0, 0, 0)" stroke-linejoin="round" d=" M 127.784, 137.117 126.152, 137.224 124.519, 137.117 122.915, 136.798 121.366, 136.272 119.899, 135.548 118.539, 134.639 117.309, 133.561 116.231, 132.331 115.322, 130.971 115.132, 130.586 115.107, 130.535 115.092, 130.505 114.991, 130.299 114.821, 129.954 114.599, 129.504 114.543, 129.339 114.450, 129.065 114.086, 127.992 114.073, 127.955 114.035, 127.762 114.018, 127.677 113.974, 127.455 113.754, 126.351 113.647, 124.719 113.754, 123.087 113.973, 121.983 114.018, 121.760 114.035, 121.675 114.073, 121.482 114.085, 121.445 114.450, 120.372 114.543, 120.098 114.599, 119.933 114.820, 119.484 115.224, 118.665 115.279, 118.554 115.322, 118.466 115.443, 118.284 115.503, 118.195 116.231, 117.106 117.309, 115.876 118.539, 114.797 119.899, 113.888 121.366, 113.165 122.915, 112.639 124.519, 112.319 126.152, 112.212 127.784, 112.319 129.389, 112.638 130.938, 113.164 132.405, 113.887 133.766, 114.796 134.996, 115.875 136.075, 117.105 136.734, 118.091 136.788, 118.172 136.843, 118.255 136.862, 118.283 136.984, 118.465 137.247, 118.999 137.525, 119.563 137.617, 119.750 137.707, 119.932 137.983, 120.744 138.033, 120.892 138.050, 120.944 138.094, 121.072 138.233, 121.482 138.545, 123.050 138.552, 123.085 138.552, 123.086 138.659, 124.719 138.552, 126.351 138.552, 126.352 138.545, 126.388 138.233, 127.956 138.094, 128.365 138.050, 128.494 138.032, 128.546 137.982, 128.693 137.707, 129.505 137.617, 129.687 137.524, 129.875 137.315, 130.300 137.247, 130.438 137.213, 130.506 137.198, 130.536 137.122, 130.691 136.983, 130.972 136.074, 132.332 134.995, 133.562 133.765, 134.641 132.405, 135.549 130.937, 136.273 129.388, 136.798 127.784, 137.117 " />
            <path fill="none" stroke-width="3.0" stroke-linecap="butt" stroke-opacity="1.0" stroke="rgb(0, 0, 0)" stroke-linejoin="round" d=" M 127.577, 135.634 126.137, 135.728 124.698, 135.634 123.283, 135.352 121.917, 134.889 120.623, 134.250 119.424, 133.449 118.339, 132.498 117.388, 131.413 116.587, 130.214 115.949, 128.920 115.651, 128.044 115.485, 127.554 115.279, 126.520 115.224, 126.244 115.203, 126.139 115.109, 124.700 115.203, 123.260 115.224, 123.155 115.279, 122.879 115.485, 121.845 115.651, 121.355 115.948, 120.479 116.586, 119.185 117.388, 117.986 118.339, 116.901 119.423, 115.950 120.623, 115.148 121.917, 114.510 123.283, 114.046 124.698, 113.764 126.137, 113.670 127.577, 113.764 128.992, 114.046 130.358, 114.509 131.652, 115.147 132.852, 115.949 133.937, 116.900 134.888, 117.985 135.690, 119.185 136.328, 120.479 136.416, 120.736 136.788, 121.833 136.792, 121.845 136.843, 122.101 137.073, 123.260 137.168, 124.700 137.073, 126.139 136.843, 127.298 136.792, 127.554 136.788, 127.566 136.415, 128.663 136.328, 128.921 135.689, 130.215 134.888, 131.414 133.936, 132.499 132.852, 133.450 131.652, 134.251 130.358, 134.889 128.992, 135.353 127.577, 135.634 " />
            <path fill="none" stroke-width="3.0" stroke-linecap="butt" stroke-opacity="1.0" stroke="rgb(0, 0, 0)" stroke-linejoin="round" d=" M 127.279, 133.505 126.116, 133.581 124.954, 133.504 123.811, 133.277 122.707, 132.902 121.662, 132.387 120.693, 131.740 119.817, 130.971 119.049, 130.095 118.402, 129.126 117.886, 128.081 117.512, 126.978 117.284, 125.835 117.208, 124.672 117.284, 123.509 117.512, 122.367 117.886, 121.263 118.402, 120.218 119.049, 119.249 119.817, 118.373 120.693, 117.604 121.662, 116.957 122.707, 116.441 123.811, 116.067 124.954, 115.839 126.117, 115.763 127.279, 115.839 128.422, 116.066 129.526, 116.441 130.571, 116.956 131.540, 117.604 132.417, 118.372 133.185, 119.248 133.832, 120.217 134.348, 121.263 134.723, 122.366 134.950, 123.509 135.026, 124.672 134.950, 125.835 134.722, 126.978 134.348, 128.082 133.832, 129.127 133.185, 130.096 132.416, 130.972 131.540, 131.740 130.571, 132.388 129.526, 132.903 128.422, 133.277 127.279, 133.505 " />
            <path fill="none" stroke-width="3.0" stroke-linecap="butt" stroke-opacity="1.0" stroke="rgb(0, 0, 0)" stroke-linejoin="round" d=" M 127.411, 134.448 126.126, 134.532 124.840, 134.448 123.577, 134.196 122.357, 133.782 121.202, 133.213 120.131, 132.497 119.162, 131.647 118.313, 130.679 117.598, 129.608 117.028, 128.453 116.614, 127.233 116.362, 125.970 116.278, 124.684 116.362, 123.399 116.614, 122.136 117.028, 120.916 117.597, 119.760 118.313, 118.689 119.162, 117.721 120.131, 116.871 121.202, 116.156 122.357, 115.586 123.577, 115.172 124.840, 114.920 126.126, 114.836 127.411, 114.920 128.675, 115.171 129.895, 115.585 131.050, 116.155 132.121, 116.871 133.090, 117.720 133.940, 118.689 134.655, 119.760 135.225, 120.915 135.639, 122.135 135.891, 123.399 135.975, 124.684 135.890, 125.970 135.639, 127.233 135.225, 128.453 134.655, 129.609 133.939, 130.680 133.090, 131.648 132.121, 132.498 131.050, 133.213 129.894, 133.783 128.675, 134.197 127.411, 134.448 " />
            <path fill="none" stroke-width="3.0" stroke-linecap="butt" stroke-opacity="1.0" stroke="rgb(0, 0, 0)" stroke-linejoin="round" d=" M 70.650, 154.640 70.650, 154.416 70.650, 154.086 70.650, 152.019 70.648, 142.019 70.646, 132.019 70.644, 122.019 70.642, 112.019 70.640, 102.019 70.639, 96.107 " />
            <path fill="none" stroke-width="3.0" stroke-linecap="butt" stroke-opacity="1.0" stroke="rgb(0, 0, 0)" stroke-linejoin="round" d=" M 89.589, 133.311 89.588, 123.311 89.587, 116.781 " />
            <path fill="none" stroke-width="3.0" stroke-linecap="butt" stroke-opacity="1.0" stroke="rgb(0, 0, 0)" stroke-linejoin="round" d=" M 90.206, 135.757 90.205, 125.757 90.204, 115.757 90.204, 114.335 " />
            <path fill="none" stroke-width="3.0" stroke-linecap="butt" stroke-opacity="1.0" stroke="rgb(0, 0, 0)" stroke-linejoin="round" d=" M 101.365, 134.770 101.365, 124.770 101.364, 115.038 " />
            <path fill="none" stroke-width="3.0" stroke-linecap="butt" stroke-opacity="1.0" stroke="rgb(0, 0, 0)" stroke-linejoin="round" d=" M 105.939, 129.415 105.938, 120.239 " />
            <path fill="none" stroke-width="3.0" stroke-linecap="butt" stroke-opacity="1.0" stroke="rgb(0, 0, 0)" stroke-linejoin="round" d=" M 142.973, 121.819 142.973, 127.737 " />
            <path fill="none" stroke-width="3.0" stroke-linecap="butt" stroke-opacity="1.0" stroke="rgb(0, 0, 0)" stroke-linejoin="round" d=" M 146.139, 118.735 146.139, 118.883 146.139, 128.883 146.138, 130.555 146.138, 130.919 " />
            <path fill="none" stroke-width="3.0" stroke-linecap="butt" stroke-opacity="1.0" stroke="rgb(0, 0, 0)" stroke-linejoin="round" d=" M 150.720, 113.872 150.719, 123.871 150.718, 133.871 150.718, 135.937 " />
            <path fill="none" stroke-width="3.0" stroke-linecap="butt" stroke-opacity="1.0" stroke="rgb(0, 0, 0)" stroke-linejoin="round" d=" M 152.932, 128.036 152.932, 121.773 " />
            <path fill="none" stroke-width="3.0" stroke-linecap="butt" stroke-opacity="1.0" stroke="rgb(0, 0, 0)" stroke-linejoin="round" d=" M 161.895, 137.883 161.896, 127.883 161.898, 117.883 161.899, 112.209 " />
            <path fill="none" stroke-width="3.0" stroke-linecap="butt" stroke-opacity="1.0" stroke="rgb(0, 0, 0)" stroke-linejoin="round" d=" M 162.516, 114.029 162.515, 124.029 162.513, 134.029 162.513, 136.064 " />
        </g>
    </g>
</svg>
