<?xml version='1.0' encoding='ascii'?>
<svg xmlns="http://www.w3.org/2000/svg" version="1.1" width="250" height="250">
    <g id="ViewLayer_LineSet" xmlns:inkscape="http://www.inkscape.org/namespaces/inkscape" inkscape:groupmode="lineset" inkscape:label="ViewLayer_LineSet">
        <g xmlns:inkscape="http://www.inkscape.org/namespaces/inkscape" inkscape:groupmode="layer" id="strokes" inkscape:label="strokes">
            <path fill="none" stroke-width="3.0" stroke-linecap="butt" stroke-opacity="1.0" stroke="rgb(0, 0, 0)" stroke-linejoin="round" d=" M 137.634, 207.620 127.654, 208.267 126.839, 208.320 116.861, 207.659 116.046, 207.605 106.240, 205.648 105.440, 205.488 95.973, 202.268 95.201, 202.006 86.235, 197.579 85.505, 197.218 77.193, 191.659 76.517, 191.207 69.001, 184.611 68.390, 184.075 61.798, 176.555 61.263, 175.945 55.709, 167.629 55.258, 166.954 54.002, 164.408 52.568, 161.499 51.531, 159.396 50.476, 157.257 47.261, 147.788 47.000, 147.020 45.048, 137.212 44.889, 136.416 44.233, 126.437 44.180, 125.627 44.830, 115.648 44.883, 114.837 46.830, 105.029 46.988, 104.231 50.198, 94.760 50.459, 93.990 51.513, 91.850 53.790, 87.225 54.489, 85.806 54.676, 85.427 55.237, 84.288 55.301, 84.191 56.433, 82.495 61.240, 75.291 67.828, 67.768 68.366, 67.154 75.880, 60.555 76.494, 60.016 84.804, 54.454 85.485, 53.999 94.450, 49.569 95.185, 49.206 104.652, 45.985 105.429, 45.720 115.235, 43.762 116.041, 43.601 126.019, 42.940 126.840, 42.886 136.819, 43.533 137.641, 43.586 147.450, 45.531 148.259, 45.692 157.730, 48.901 158.512, 49.166 167.483, 53.584 168.225, 53.949 176.542, 59.501 177.229, 59.961 184.750, 66.551 185.372, 67.097 191.968, 74.614 192.514, 75.236 196.877, 81.764 198.466, 84.142 198.531, 84.239 200.682, 88.601 203.320, 93.950 206.534, 103.419 206.800, 104.204 208.749, 114.012 208.911, 114.824 209.562, 124.803 209.616, 125.629 208.959, 135.607 208.904, 136.433 206.949, 146.240 206.787, 147.050 203.568, 156.518 203.302, 157.300 201.098, 161.762 199.428, 165.144 198.508, 167.006 192.947, 175.317 192.489, 176.002 185.890, 183.516 185.346, 184.135 177.823, 190.723 177.204, 191.265 168.885, 196.814 168.202, 197.270 159.230, 201.686 158.493, 202.048 149.022, 205.255 148.246, 205.518 138.436, 207.461 137.634, 207.620 " />
            <path fill="none" stroke-width="3.0" stroke-linecap="butt" stroke-opacity="1.0" stroke="rgb(0, 0, 0)" stroke-linejoin="round" d=" M 180.338, 254.750 189.313, 250.339 196.741, 246.688 205.063, 241.143 211.954, 236.552 219.480, 229.968 225.715, 224.514 232.317, 217.004 237.788, 210.780 243.353, 202.472 247.965, 195.585 249.364, 192.756 " />
            <path fill="none" stroke-width="3.0" stroke-linecap="butt" stroke-opacity="1.0" stroke="rgb(0, 0, 0)" stroke-linejoin="round" d=" M 245.715, 52.266 240.158, 43.953 237.858, 40.513 231.262, 32.997 225.788, 26.760 218.266, 20.171 212.025, 14.704 203.706, 9.154 196.805, 4.550 187.833, 0.135 180.391, -3.527 " />
            <path fill="none" stroke-width="3.0" stroke-linecap="butt" stroke-opacity="1.0" stroke="rgb(0, 0, 0)" stroke-linejoin="round" d=" M 73.406, -3.411 64.443, 1.024 57.026, 4.693 48.718, 10.259 41.847, 14.863 34.336, 21.466 28.126, 26.925 21.541, 34.451 16.099, 40.672 10.552, 48.992 7.809, 53.108 " />
            <path fill="none" stroke-width="3.0" stroke-linecap="butt" stroke-opacity="1.0" stroke="rgb(0, 0, 0)" stroke-linejoin="round" d=" M 4.291, 191.913 6.030, 195.439 11.583, 203.755 16.167, 210.617 22.757, 218.138 28.196, 224.346 35.711, 230.943 41.914, 236.389 50.225, 241.951 57.086, 246.542 66.051, 250.973 73.454, 254.631 " />
            <path fill="none" stroke-width="3.0" stroke-linecap="butt" stroke-opacity="1.0" stroke="rgb(0, 0, 0)" stroke-linejoin="round" d=" M -38.920, 215.821 -30.170, 210.980 -21.420, 206.139 -12.670, 201.297 -3.920, 196.456 4.291, 191.913 13.041, 187.072 19.607, 183.439 19.603, 173.439 19.599, 163.439 19.595, 153.439 19.591, 143.439 19.587, 133.439 19.583, 123.439 19.580, 113.439 19.576, 103.439 19.572, 93.439 19.568, 83.439 19.564, 73.439 19.560, 63.439 19.559, 60.209 11.001, 55.037 7.809, 53.108 -0.750, 47.935 -9.308, 42.763 -17.867, 37.591 -26.425, 32.418 -34.983, 27.246 -39.035, 24.797 " />
            <path fill="none" stroke-width="3.0" stroke-linecap="butt" stroke-opacity="1.0" stroke="rgb(0, 0, 0)" stroke-linejoin="round" d=" M 291.660, 24.515 283.100, 29.686 274.540, 34.856 265.980, 40.026 257.421, 45.196 248.861, 50.366 245.715, 52.266 237.156, 57.436 232.758, 60.092 232.754, 70.092 232.750, 80.092 232.746, 90.092 232.742, 100.092 232.738, 110.092 232.734, 120.092 232.730, 130.092 232.726, 140.092 232.722, 150.092 232.718, 160.092 232.714, 170.092 232.710, 180.092 232.709, 183.547 241.460, 188.386 249.364, 192.756 258.115, 197.595 266.866, 202.434 275.617, 207.273 284.368, 212.112 291.542, 216.079 " />
            <path fill="none" stroke-width="3.0" stroke-linecap="butt" stroke-opacity="1.0" stroke="rgb(0, 0, 0)" stroke-linejoin="round" d=" M 62.571, 159.667 63.469, 161.488 68.753, 169.399 75.025, 176.553 82.176, 182.829 90.086, 188.118 98.618, 192.330 107.627, 195.393 116.960, 197.255 126.457, 197.883 135.955, 197.267 145.292, 195.416 154.308, 192.362 162.850, 188.157 170.770, 182.873 177.934, 176.599 184.217, 169.443 189.513, 161.528 190.237, 160.061 " />
            <path fill="none" stroke-width="3.0" stroke-linecap="butt" stroke-opacity="1.0" stroke="rgb(0, 0, 0)" stroke-linejoin="round" d=" M 132.156, 168.412 126.457, 168.784 120.758, 168.408 115.157, 167.292 109.750, 165.455 104.629, 162.928 99.882, 159.754 95.590, 155.989 91.826, 151.695 88.654, 146.947 87.991, 145.603 87.329, 144.261 86.293, 142.160 86.129, 141.826 85.615, 140.314 84.828, 137.996 84.293, 136.420 83.179, 130.820 82.804, 125.122 83.177, 119.424 84.290, 113.823 84.824, 112.247 85.611, 109.928 86.124, 108.416 86.288, 108.082 88.648, 103.293 88.824, 103.030 89.280, 102.347 91.819, 98.544 95.583, 94.249 99.876, 90.481 104.624, 87.306 109.746, 84.778 115.154, 82.939 120.757, 81.823 126.457, 81.447 132.158, 81.819 137.762, 82.931 143.173, 84.766 148.299, 87.292 153.050, 90.466 157.347, 94.233 161.116, 98.528 163.418, 101.974 164.114, 103.016 164.291, 103.280 165.819, 106.379 166.500, 107.760 166.818, 108.405 167.288, 109.789 168.655, 113.816 169.769, 119.420 170.142, 125.123 169.767, 130.824 168.651, 136.428 167.283, 140.454 166.813, 141.838 166.495, 142.483 165.813, 143.864 165.611, 144.275 164.770, 145.979 164.284, 146.962 161.108, 151.711 157.340, 156.005 153.043, 159.770 148.292, 162.942 143.168, 165.466 137.758, 167.300 132.156, 168.412 " />
            <path fill="none" stroke-width="3.0" stroke-linecap="butt" stroke-opacity="1.0" stroke="rgb(0, 0, 0)" stroke-linejoin="round" d=" M 188.337, 86.923 184.236, 80.788 177.954, 73.627 170.790, 67.348 162.868, 62.058 154.323, 57.849 145.302, 54.792 135.961, 52.939 126.457, 52.322 116.956, 52.951 107.618, 54.815 98.605, 57.881 90.070, 62.097 82.158, 67.391 75.006, 73.671 68.735, 80.831 64.408, 87.315 " />
            <path fill="none" stroke-width="3.0" stroke-linecap="butt" stroke-opacity="1.0" stroke="rgb(0, 0, 0)" stroke-linejoin="round" d=" M 192.937, 85.381 190.888, 85.382 188.337, 86.923 179.777, 92.093 179.362, 92.343 179.362, 95.662 179.362, 95.684 179.360, 105.684 179.358, 115.684 179.356, 125.684 179.354, 135.684 179.352, 145.684 179.351, 150.984 179.351, 151.005 179.350, 154.041 188.101, 158.880 190.237, 160.061 190.870, 160.411 192.918, 160.412 " />
            <path fill="none" stroke-width="3.0" stroke-linecap="butt" stroke-opacity="1.0" stroke="rgb(0, 0, 0)" stroke-linejoin="round" d=" M 190.870, 160.411 190.871, 158.778 190.873, 148.778 190.875, 138.778 190.878, 128.778 190.880, 118.778 190.883, 108.778 190.885, 98.778 190.887, 91.459 190.888, 85.382 " />
            <path fill="none" stroke-width="3.0" stroke-linecap="butt" stroke-opacity="1.0" stroke="rgb(0, 0, 0)" stroke-linejoin="round" d=" M 59.256, 160.371 61.298, 160.372 62.571, 159.667 71.321, 154.826 72.788, 154.014 72.788, 150.981 72.788, 150.958 72.786, 140.958 72.784, 130.958 72.782, 120.958 72.780, 110.958 72.778, 100.958 72.777, 95.712 72.777, 95.688 72.777, 92.373 64.408, 87.315 61.281, 85.425 59.238, 85.426 " />
            <path fill="none" stroke-width="3.0" stroke-linecap="butt" stroke-opacity="1.0" stroke="rgb(0, 0, 0)" stroke-linejoin="round" d=" M 61.298, 160.372 61.298, 157.085 61.295, 147.085 61.293, 137.085 61.291, 127.085 61.288, 117.085 61.286, 107.085 61.284, 97.085 61.283, 93.151 61.281, 85.425 " />
            <path fill="none" stroke-width="3.0" stroke-linecap="butt" stroke-opacity="1.0" stroke="rgb(0, 0, 0)" stroke-linejoin="round" d=" M 54.002, 164.408 59.256, 161.501 59.256, 160.371 59.256, 157.669 59.254, 152.935 59.252, 142.935 59.250, 132.935 59.247, 122.935 59.245, 112.935 59.242, 102.935 59.241, 97.303 59.239, 88.379 59.238, 85.426 59.238, 84.190 56.433, 82.495 " />
            <path fill="none" stroke-width="3.0" stroke-linecap="butt" stroke-opacity="1.0" stroke="rgb(0, 0, 0)" stroke-linejoin="round" d=" M 196.877, 81.764 192.937, 84.144 192.937, 85.381 192.936, 88.335 192.934, 95.611 192.932, 105.611 192.929, 115.611 192.927, 125.611 192.924, 135.611 192.922, 145.611 192.920, 154.628 192.919, 157.709 192.918, 160.412 192.918, 161.544 199.428, 165.144 " />
            <path fill="none" stroke-width="3.0" stroke-linecap="butt" stroke-opacity="1.0" stroke="rgb(0, 0, 0)" stroke-linejoin="round" d=" M 130.204, 154.442 126.321, 154.695 122.437, 154.440 118.620, 153.679 114.936, 152.428 111.446, 150.706 108.210, 148.544 105.285, 145.977 102.720, 143.052 100.558, 139.816 99.947, 138.577 99.516, 137.704 99.226, 137.114 98.837, 136.326 97.756, 133.143 97.586, 132.641 96.827, 128.825 96.594, 125.278 96.572, 124.942 96.594, 124.606 96.826, 121.059 97.585, 117.242 97.755, 116.740 98.835, 113.557 99.223, 112.769 99.957, 111.280 100.242, 110.703 100.286, 110.613 100.298, 110.589 100.374, 110.434 100.555, 110.066 100.687, 109.869 100.986, 109.421 102.717, 106.830 105.282, 103.903 108.208, 101.337 111.443, 99.173 114.934, 97.451 118.619, 96.199 122.437, 95.438 126.321, 95.183 130.205, 95.436 134.024, 96.195 137.710, 97.446 141.202, 99.167 144.440, 101.329 147.367, 103.896 149.934, 106.823 151.546, 109.234 152.098, 110.060 152.247, 110.363 152.864, 111.613 153.820, 113.552 154.333, 115.063 155.071, 117.239 155.498, 119.384 155.830, 121.057 155.913, 122.320 155.968, 123.157 156.085, 124.942 155.967, 126.728 155.912, 127.564 155.829, 128.827 155.496, 130.501 155.069, 132.645 154.330, 134.821 153.817, 136.332 153.025, 137.937 152.861, 138.270 152.706, 138.583 152.095, 139.823 149.931, 143.059 147.364, 145.985 144.436, 148.551 141.199, 150.713 137.708, 152.433 134.022, 153.683 130.204, 154.442 " />
            <path fill="none" stroke-width="3.0" stroke-linecap="butt" stroke-opacity="1.0" stroke="rgb(0, 0, 0)" stroke-linejoin="round" d=" M 87.991, 145.603 90.415, 144.262 90.415, 142.897 90.415, 142.217 90.414, 136.196 90.413, 126.196 90.411, 116.195 90.411, 113.502 90.410, 105.263 90.410, 104.521 90.410, 103.029 89.280, 102.347 " />
            <path fill="none" stroke-width="3.0" stroke-linecap="butt" stroke-opacity="1.0" stroke="rgb(0, 0, 0)" stroke-linejoin="round" d=" M 163.418, 101.974 161.692, 103.016 161.692, 104.509 161.692, 105.250 161.691, 112.253 161.689, 122.253 161.688, 132.253 161.687, 137.445 161.687, 142.229 161.687, 142.908 161.686, 144.274 164.770, 145.979 " />
            <path fill="none" stroke-width="3.0" stroke-linecap="butt" stroke-opacity="1.0" stroke="rgb(0, 0, 0)" stroke-linejoin="round" d=" M 128.583, 142.836 126.207, 142.992 123.832, 142.836 121.497, 142.371 119.243, 141.605 117.108, 140.552 115.129, 139.230 113.340, 137.660 111.770, 135.870 110.448, 133.891 110.172, 133.331 110.033, 133.049 109.890, 132.759 109.853, 132.685 109.811, 132.599 109.729, 132.432 109.488, 131.945 109.395, 131.756 108.904, 130.310 108.792, 129.979 108.630, 129.502 108.166, 127.168 108.126, 126.569 108.010, 124.792 108.126, 123.016 108.165, 122.417 108.630, 120.082 108.791, 119.606 108.904, 119.274 109.394, 117.828 109.488, 117.640 109.728, 117.152 109.852, 116.899 110.267, 116.059 110.287, 116.019 110.447, 115.693 110.512, 115.597 110.680, 115.344 111.769, 113.714 113.339, 111.924 115.128, 110.354 117.108, 109.031 119.243, 107.978 121.497, 107.212 123.832, 106.747 126.208, 106.591 128.583, 106.746 130.919, 107.210 133.173, 107.976 135.309, 109.028 137.289, 110.351 139.079, 111.921 140.649, 113.711 141.609, 115.147 141.696, 115.278 141.908, 115.594 141.972, 115.691 142.064, 115.876 142.220, 116.194 142.345, 116.447 142.585, 116.932 143.025, 117.826 143.169, 118.249 143.283, 118.585 143.791, 120.081 143.949, 120.875 144.093, 121.603 144.232, 122.302 144.255, 122.417 144.411, 124.793 144.255, 127.169 144.232, 127.283 144.093, 127.982 143.948, 128.710 143.790, 129.504 143.282, 131.000 143.168, 131.335 143.024, 131.758 142.583, 132.652 142.540, 132.740 142.530, 132.761 142.387, 133.051 142.344, 133.138 142.219, 133.391 142.173, 133.484 141.971, 133.894 140.648, 135.873 139.078, 137.663 137.288, 139.232 135.308, 140.555 133.172, 141.607 130.918, 142.372 128.583, 142.836 " />
            <path fill="none" stroke-width="3.0" stroke-linecap="butt" stroke-opacity="1.0" stroke="rgb(0, 0, 0)" stroke-linejoin="round" d=" M 129.201, 147.260 126.251, 147.453 123.300, 147.259 120.401, 146.682 117.601, 145.731 114.950, 144.423 112.492, 142.780 110.269, 140.831 108.320, 138.608 106.678, 136.150 106.334, 135.454 106.203, 135.186 106.155, 135.091 105.886, 134.545 105.503, 133.767 105.370, 133.498 104.787, 131.779 104.594, 131.211 104.572, 131.146 104.420, 130.699 103.843, 127.799 103.650, 124.849 103.843, 121.899 104.419, 119.000 104.571, 118.553 104.593, 118.488 104.786, 117.919 105.369, 116.200 105.502, 115.931 106.053, 114.812 106.583, 113.737 106.676, 113.548 106.816, 113.339 106.989, 113.080 107.004, 113.058 108.318, 111.090 110.267, 108.866 112.490, 106.916 114.948, 105.273 117.600, 103.965 120.400, 103.014 123.300, 102.436 126.251, 102.242 129.202, 102.435 132.102, 103.012 134.903, 103.962 137.555, 105.270 140.015, 106.912 142.238, 108.862 144.188, 111.086 145.380, 112.869 145.429, 112.941 145.498, 113.046 145.832, 113.545 145.925, 113.733 146.023, 113.932 146.576, 115.055 147.140, 116.197 147.292, 116.646 147.485, 117.214 147.508, 117.283 148.090, 118.998 148.667, 121.898 148.860, 124.850 148.667, 127.801 148.089, 130.701 147.507, 132.415 147.484, 132.485 147.291, 133.053 147.138, 133.502 146.575, 134.644 146.537, 134.721 146.353, 135.094 146.305, 135.190 146.081, 135.645 145.830, 136.154 144.187, 138.612 142.236, 140.835 140.013, 142.785 137.554, 144.427 134.901, 145.734 132.101, 146.684 129.201, 147.260 " />
            <path fill="none" stroke-width="3.0" stroke-linecap="butt" stroke-opacity="1.0" stroke="rgb(0, 0, 0)" stroke-linejoin="round" d=" M 128.168, 139.867 126.178, 139.997 124.189, 139.866 122.233, 139.477 120.346, 138.836 118.558, 137.954 116.900, 136.846 115.401, 135.531 114.087, 134.032 112.979, 132.375 112.679, 131.766 112.623, 131.653 112.531, 131.466 112.511, 131.425 112.446, 131.293 112.179, 130.751 112.097, 130.587 112.097, 130.585 111.996, 130.288 111.902, 130.013 111.492, 128.802 111.457, 128.699 111.204, 127.430 111.071, 126.763 111.068, 126.744 110.937, 124.754 111.067, 122.765 111.071, 122.745 111.204, 122.078 111.456, 120.809 111.491, 120.706 111.902, 119.496 111.996, 119.220 112.096, 118.923 112.097, 118.921 112.178, 118.757 112.623, 117.855 112.729, 117.640 112.870, 117.352 112.978, 117.133 112.999, 117.102 113.031, 117.054 113.061, 117.010 113.199, 116.803 114.086, 115.475 115.400, 113.976 116.899, 112.661 118.557, 111.553 120.345, 110.671 122.233, 110.030 124.189, 109.641 126.179, 109.510 128.168, 109.640 130.124, 110.029 132.013, 110.670 133.801, 111.552 135.459, 112.659 136.959, 113.974 138.274, 115.473 139.080, 116.680 139.299, 117.008 139.329, 117.052 139.382, 117.132 139.447, 117.264 139.458, 117.287 139.891, 118.165 139.973, 118.330 140.075, 118.537 140.168, 118.727 140.264, 118.920 140.579, 119.848 140.867, 120.699 140.905, 120.808 140.999, 121.284 141.294, 122.764 141.391, 124.251 141.424, 124.754 141.391, 125.258 141.293, 126.744 140.999, 128.225 140.904, 128.700 140.867, 128.810 140.578, 129.660 140.263, 130.588 140.168, 130.781 140.074, 130.971 139.972, 131.178 139.890, 131.344 139.857, 131.410 139.849, 131.427 139.829, 131.467 139.681, 131.767 139.578, 131.976 139.550, 132.033 139.381, 132.377 138.273, 134.034 136.958, 135.533 135.458, 136.848 133.800, 137.956 132.012, 138.837 130.124, 139.478 128.168, 139.867 " />
            <path fill="none" stroke-width="3.0" stroke-linecap="butt" stroke-opacity="1.0" stroke="rgb(0, 0, 0)" stroke-linejoin="round" d=" M 127.868, 137.719 126.158, 137.831 124.447, 137.718 122.766, 137.384 121.143, 136.833 119.606, 136.074 118.181, 135.122 116.892, 133.992 115.762, 132.703 114.810, 131.278 114.109, 129.856 114.052, 129.741 113.615, 128.455 113.542, 128.239 113.501, 128.118 113.167, 126.437 113.054, 124.726 113.166, 123.016 113.501, 121.335 113.542, 121.213 113.615, 120.998 114.051, 119.712 114.108, 119.596 114.809, 118.175 115.762, 116.749 116.892, 115.461 118.180, 114.330 119.605, 113.378 121.143, 112.619 122.766, 112.068 124.447, 111.734 126.158, 111.621 127.868, 111.733 129.550, 112.067 131.173, 112.618 132.711, 113.376 134.136, 114.329 135.425, 115.459 136.555, 116.748 137.508, 118.173 137.960, 119.089 138.266, 119.711 138.453, 120.262 138.527, 120.478 138.817, 121.334 139.070, 122.603 139.152, 123.016 139.264, 124.727 139.151, 126.437 139.069, 126.850 138.817, 128.119 138.526, 128.975 138.453, 129.191 138.266, 129.742 137.959, 130.364 137.507, 131.279 136.555, 132.705 135.424, 133.993 134.135, 135.123 132.710, 136.076 131.172, 136.834 129.549, 137.384 127.868, 137.719 " />
            <path fill="none" stroke-width="3.0" stroke-linecap="butt" stroke-opacity="1.0" stroke="rgb(0, 0, 0)" stroke-linejoin="round" d=" M 127.463, 134.817 126.129, 134.904 124.796, 134.817 123.485, 134.556 122.220, 134.127 121.022, 133.536 119.911, 132.793 118.906, 131.912 118.025, 130.907 117.283, 129.796 116.692, 128.598 116.263, 127.333 116.002, 126.022 115.914, 124.689 116.002, 123.356 116.262, 122.045 116.692, 120.780 117.283, 119.582 118.025, 118.470 118.906, 117.466 119.910, 116.585 121.021, 115.842 122.220, 115.251 123.485, 114.821 124.796, 114.561 126.129, 114.473 127.463, 114.560 128.773, 114.821 130.039, 115.250 131.238, 115.841 132.349, 116.584 133.354, 117.465 134.235, 118.470 134.977, 119.581 135.568, 120.779 135.998, 122.045 136.259, 123.356 136.346, 124.689 136.258, 126.023 135.998, 127.333 135.568, 128.599 134.977, 129.797 134.234, 130.908 133.353, 131.913 132.348, 132.794 131.237, 133.536 130.039, 134.127 128.773, 134.557 127.463, 134.817 " />
            <path fill="none" stroke-width="3.0" stroke-linecap="butt" stroke-opacity="1.0" stroke="rgb(0, 0, 0)" stroke-linejoin="round" d=" M 127.639, 136.077 126.142, 136.175 124.644, 136.077 123.173, 135.784 121.752, 135.302 120.407, 134.638 119.159, 133.804 118.032, 132.815 117.042, 131.687 116.209, 130.440 115.545, 129.094 115.063, 127.674 114.770, 126.202 114.672, 124.705 114.770, 123.208 115.063, 121.737 115.545, 120.316 116.209, 118.971 117.042, 117.723 118.031, 116.595 119.159, 115.606 120.407, 114.772 121.752, 114.108 123.173, 113.626 124.644, 113.333 126.142, 113.235 127.639, 113.333 129.111, 113.625 130.531, 114.107 131.877, 114.771 133.125, 115.605 134.253, 116.594 135.243, 117.722 136.076, 118.970 136.740, 120.315 137.222, 121.736 137.515, 123.208 137.613, 124.705 137.515, 126.203 137.222, 127.674 136.740, 129.095 136.076, 130.441 135.242, 131.688 134.253, 132.816 133.124, 133.806 131.877, 134.639 130.531, 135.303 129.110, 135.785 127.639, 136.077 " />
            <path fill="none" stroke-width="3.0" stroke-linecap="butt" stroke-opacity="1.0" stroke="rgb(0, 0, 0)" stroke-linejoin="round" d=" M 84.828, 137.996 84.827, 127.996 84.825, 117.996 84.824, 112.247 " />
            <path fill="none" stroke-width="3.0" stroke-linecap="butt" stroke-opacity="1.0" stroke="rgb(0, 0, 0)" stroke-linejoin="round" d=" M 85.615, 140.314 85.614, 130.314 85.612, 120.314 85.611, 110.314 85.611, 109.928 " />
            <path fill="none" stroke-width="3.0" stroke-linecap="butt" stroke-opacity="1.0" stroke="rgb(0, 0, 0)" stroke-linejoin="round" d=" M 96.594, 125.278 96.594, 124.606 " />
            <path fill="none" stroke-width="3.0" stroke-linecap="butt" stroke-opacity="1.0" stroke="rgb(0, 0, 0)" stroke-linejoin="round" d=" M 99.226, 137.114 99.225, 127.114 99.224, 117.114 99.223, 112.769 " />
            <path fill="none" stroke-width="3.0" stroke-linecap="butt" stroke-opacity="1.0" stroke="rgb(0, 0, 0)" stroke-linejoin="round" d=" M 104.572, 131.146 104.571, 127.898 104.571, 121.555 104.571, 118.553 " />
            <path fill="none" stroke-width="3.0" stroke-linecap="butt" stroke-opacity="1.0" stroke="rgb(0, 0, 0)" stroke-linejoin="round" d=" M 108.126, 126.569 108.126, 123.016 " />
            <path fill="none" stroke-width="3.0" stroke-linecap="butt" stroke-opacity="1.0" stroke="rgb(0, 0, 0)" stroke-linejoin="round" d=" M 141.391, 124.251 141.391, 125.258 " />
            <path fill="none" stroke-width="3.0" stroke-linecap="butt" stroke-opacity="1.0" stroke="rgb(0, 0, 0)" stroke-linejoin="round" d=" M 143.949, 120.875 143.948, 128.710 " />
            <path fill="none" stroke-width="3.0" stroke-linecap="butt" stroke-opacity="1.0" stroke="rgb(0, 0, 0)" stroke-linejoin="round" d=" M 147.508, 117.283 147.508, 120.327 147.507, 129.126 147.507, 132.415 " />
            <path fill="none" stroke-width="3.0" stroke-linecap="butt" stroke-opacity="1.0" stroke="rgb(0, 0, 0)" stroke-linejoin="round" d=" M 152.864, 111.613 152.863, 121.613 152.862, 131.613 152.861, 137.855 152.861, 138.270 " />
            <path fill="none" stroke-width="3.0" stroke-linecap="butt" stroke-opacity="1.0" stroke="rgb(0, 0, 0)" stroke-linejoin="round" d=" M 155.496, 130.501 155.497, 120.501 155.498, 119.384 " />
            <path fill="none" stroke-width="3.0" stroke-linecap="butt" stroke-opacity="1.0" stroke="rgb(0, 0, 0)" stroke-linejoin="round" d=" M 155.913, 122.320 155.912, 127.564 " />
            <path fill="none" stroke-width="3.0" stroke-linecap="butt" stroke-opacity="1.0" stroke="rgb(0, 0, 0)" stroke-linejoin="round" d=" M 166.495, 142.483 166.496, 132.483 166.498, 122.483 166.499, 112.483 166.500, 107.760 " />
            <path fill="none" stroke-width="3.0" stroke-linecap="butt" stroke-opacity="1.0" stroke="rgb(0, 0, 0)" stroke-linejoin="round" d=" M 167.288, 109.789 167.287, 119.789 167.285, 129.789 167.283, 139.789 167.283, 140.454 " />
        </g>
    </g>
</svg>
