<?xml version='1.0' encoding='ascii'?>
<svg xmlns="http://www.w3.org/2000/svg" version="1.1" width="250" height="250">
    <g id="ViewLayer_LineSet" xmlns:inkscape="http://www.inkscape.org/namespaces/inkscape" inkscape:groupmode="lineset" inkscape:label="ViewLayer_LineSet">
        <g xmlns:inkscape="http://www.inkscape.org/namespaces/inkscape" inkscape:groupmode="layer" id="strokes" inkscape:label="strokes">
            <path fill="none" stroke-width="3.0" stroke-linecap="butt" stroke-opacity="1.0" stroke="rgb(0, 0, 0)" stroke-linejoin="round" d=" M 70.859, 154.383 71.906, 156.507 76.478, 163.351 81.904, 169.540 88.091, 174.969 94.934, 179.545 102.315, 183.188 110.110, 185.838 118.183, 187.448 126.399, 187.991 134.615, 187.457 142.693, 185.855 150.492, 183.212 157.881, 179.574 164.732, 175.002 170.928, 169.575 176.363, 163.384 180.943, 156.537 181.569, 155.268 " />
            <path fill="none" stroke-width="3.0" stroke-linecap="butt" stroke-opacity="1.0" stroke="rgb(0, 0, 0)" stroke-linejoin="round" d=" M 131.329, 162.495 126.399, 162.816 121.469, 162.492 116.624, 161.526 111.946, 159.937 107.516, 157.751 103.410, 155.006 99.696, 151.748 96.440, 148.034 93.696, 143.927 93.122, 142.764 92.906, 142.325 91.511, 139.497 90.197, 135.626 90.062, 135.229 89.923, 134.819 89.440, 132.392 88.959, 129.975 88.636, 125.046 88.958, 120.117 89.438, 117.699 89.921, 115.271 90.060, 114.862 90.194, 114.465 91.508, 110.593 92.514, 108.552 93.350, 106.855 93.573, 106.402 93.691, 106.162 93.910, 105.834 96.435, 102.053 99.691, 98.338 103.405, 95.079 107.512, 92.333 111.943, 90.146 116.622, 88.556 121.468, 87.590 126.399, 87.265 131.331, 87.587 136.179, 88.550 140.859, 90.137 145.293, 92.322 149.403, 95.068 153.120, 98.326 156.379, 102.042 158.371, 105.022 158.446, 105.134 159.126, 106.152 159.244, 106.392 159.315, 106.537 159.582, 107.078 161.312, 110.585 161.906, 112.335 162.043, 112.738 162.665, 114.573 162.901, 115.266 163.865, 120.114 164.187, 125.046 163.863, 129.978 162.898, 134.826 162.662, 135.519 162.039, 137.353 161.902, 137.756 161.308, 139.506 159.912, 142.336 159.541, 143.087 159.121, 143.938 156.374, 148.046 153.114, 151.761 149.398, 155.018 145.288, 157.762 140.855, 159.946 136.176, 161.533 131.329, 162.495 " />
            <path fill="none" stroke-width="3.0" stroke-linecap="butt" stroke-opacity="1.0" stroke="rgb(0, 0, 0)" stroke-linejoin="round" d=" M 179.924, 92.004 176.377, 86.697 170.943, 80.503 164.747, 75.072 157.894, 70.496 150.503, 66.855 142.701, 64.210 134.620, 62.607 126.400, 62.072 118.180, 62.615 110.103, 64.227 102.306, 66.879 94.922, 70.525 88.078, 75.104 81.890, 80.537 76.464, 86.730 72.720, 92.339 " />
            <path fill="none" stroke-width="3.0" stroke-linecap="butt" stroke-opacity="1.0" stroke="rgb(0, 0, 0)" stroke-linejoin="round" d=" M 33.540, 175.730 34.861, 178.408 40.415, 186.724 42.563, 189.940 49.154, 197.460 51.703, 200.368 59.219, 206.965 62.126, 209.517 70.438, 215.077 73.654, 217.228 82.620, 221.657 86.090, 223.371 95.556, 226.592 99.222, 227.839 109.028, 229.798 112.826, 230.557 122.804, 231.220 126.669, 231.476 136.649, 230.832 140.516, 230.582 150.326, 228.641 154.130, 227.888 163.603, 224.683 167.277, 223.439 176.250, 219.025 179.733, 217.312 188.053, 211.765 191.284, 209.611 198.809, 203.024 201.732, 200.466 208.332, 192.953 210.897, 190.034 216.460, 181.724 218.622, 178.493 219.684, 176.344 " />
            <path fill="none" stroke-width="3.0" stroke-linecap="butt" stroke-opacity="1.0" stroke="rgb(0, 0, 0)" stroke-linejoin="round" d=" M 134.928, 188.255 126.650, 188.793 118.373, 188.246 110.239, 186.624 102.387, 183.954 94.950, 180.284 88.056, 175.674 81.823, 170.205 76.356, 163.969 71.750, 157.074 70.713, 154.970 70.423, 154.383 69.531, 152.573 68.083, 149.637 65.881, 143.152 65.417, 141.785 64.308, 136.212 63.799, 133.652 63.255, 125.378 63.795, 117.103 64.303, 114.543 65.410, 108.969 65.874, 107.601 68.073, 101.114 70.701, 95.780 71.164, 94.839 71.738, 93.674 72.110, 93.118 72.656, 92.299 76.343, 86.775 81.809, 80.536 88.043, 75.063 94.938, 70.450 102.377, 66.776 110.233, 64.105 118.370, 62.481 126.651, 61.934 134.933, 62.472 143.074, 64.088 150.935, 66.752 158.381, 70.421 165.285, 75.031 171.527, 80.503 177.002, 86.743 180.475, 91.939 181.444, 93.389 181.615, 93.645 181.934, 94.292 185.287, 101.091 186.280, 104.015 187.855, 108.657 187.955, 108.952 189.574, 117.095 190.115, 125.379 189.570, 133.662 187.948, 141.803 187.847, 142.099 186.270, 146.739 185.276, 149.662 183.587, 153.084 182.931, 154.412 182.546, 155.192 182.307, 155.676 181.602, 157.105 176.987, 164.003 171.512, 170.240 165.270, 175.708 158.367, 180.314 150.924, 183.979 143.066, 186.641 134.928, 188.255 " />
            <path fill="none" stroke-width="3.0" stroke-linecap="butt" stroke-opacity="1.0" stroke="rgb(0, 0, 0)" stroke-linejoin="round" d=" M 216.903, 69.669 211.346, 61.355 210.938, 60.745 204.342, 53.228 201.774, 50.302 194.253, 43.712 191.325, 41.146 183.007, 35.595 179.770, 33.434 170.799, 29.017 167.308, 27.299 157.836, 24.091 154.152, 22.843 144.343, 20.900 140.529, 20.145 130.549, 19.500 126.671, 19.249 116.693, 19.912 112.816, 20.170 103.010, 22.130 99.202, 22.891 89.736, 26.115 86.062, 27.366 77.097, 31.797 73.619, 33.517 65.310, 39.080 62.087, 41.238 54.575, 47.838 51.663, 50.397 45.076, 57.921 42.524, 60.836 36.975, 69.156 36.224, 70.281 " />
            <path fill="none" stroke-width="3.0" stroke-linecap="butt" stroke-opacity="1.0" stroke="rgb(0, 0, 0)" stroke-linejoin="round" d=" M 180.475, 91.939 180.031, 91.939 179.924, 92.004 171.796, 96.913 171.796, 99.349 171.796, 99.780 171.794, 109.780 171.792, 119.780 171.791, 129.780 171.789, 139.780 171.788, 147.236 171.787, 147.630 171.787, 149.859 180.019, 154.411 181.431, 154.411 " />
            <path fill="none" stroke-width="3.0" stroke-linecap="butt" stroke-opacity="1.0" stroke="rgb(0, 0, 0)" stroke-linejoin="round" d=" M 180.019, 154.411 180.021, 144.411 180.023, 134.411 180.025, 124.411 180.027, 114.411 180.029, 104.411 180.031, 94.411 180.031, 92.165 180.031, 91.939 " />
            <path fill="none" stroke-width="3.0" stroke-linecap="butt" stroke-opacity="1.0" stroke="rgb(0, 0, 0)" stroke-linejoin="round" d=" M 70.712, 154.383 70.859, 154.383 72.121, 154.383 80.334, 149.839 80.334, 147.612 80.334, 147.216 80.332, 137.216 80.330, 127.216 80.329, 117.216 80.327, 107.216 80.326, 99.801 80.326, 99.369 80.326, 96.935 72.720, 92.339 72.656, 92.299 " />
            <path fill="none" stroke-width="3.0" stroke-linecap="butt" stroke-opacity="1.0" stroke="rgb(0, 0, 0)" stroke-linejoin="round" d=" M 72.121, 154.383 72.119, 144.383 72.118, 134.383 72.116, 124.383 72.114, 114.383 72.112, 104.383 72.110, 94.383 72.110, 93.254 72.110, 93.118 " />
            <path fill="none" stroke-width="3.0" stroke-linecap="butt" stroke-opacity="1.0" stroke="rgb(0, 0, 0)" stroke-linejoin="round" d=" M 181.444, 93.389 181.444, 94.537 181.444, 94.557 181.441, 104.557 181.439, 114.557 181.437, 124.557 181.435, 134.557 181.433, 144.557 181.432, 152.015 181.431, 154.411 181.431, 155.192 181.569, 155.268 182.307, 155.676 " />
            <path fill="none" stroke-width="3.0" stroke-linecap="butt" stroke-opacity="1.0" stroke="rgb(0, 0, 0)" stroke-linejoin="round" d=" M 285.536, 28.214 276.976, 33.384 268.416, 38.554 259.857, 43.725 251.297, 48.895 242.737, 54.065 240.246, 55.569 240.245, 59.096 240.243, 62.725 240.239, 72.725 240.235, 82.725 240.230, 92.725 240.226, 102.725 240.222, 112.725 240.218, 122.725 240.213, 132.725 240.209, 142.725 240.205, 152.725 240.201, 162.725 240.196, 172.725 240.193, 181.139 240.191, 184.458 240.190, 187.683 248.941, 192.522 257.692, 197.362 266.444, 202.201 275.195, 207.040 283.946, 211.879 291.126, 215.849 " />
            <path fill="none" stroke-width="3.0" stroke-linecap="butt" stroke-opacity="1.0" stroke="rgb(0, 0, 0)" stroke-linejoin="round" d=" M -35.851, 214.123 -27.101, 209.282 -18.351, 204.441 -9.601, 199.600 -0.851, 194.758 7.899, 189.917 12.158, 187.560 12.157, 184.341 12.155, 181.025 12.151, 171.025 12.147, 161.025 12.143, 151.025 12.139, 141.025 12.134, 131.025 12.130, 121.025 12.126, 111.025 12.122, 101.025 12.118, 91.025 12.114, 81.025 12.110, 71.025 12.106, 62.849 12.105, 59.223 12.103, 55.703 3.545, 50.531 -5.013, 45.359 -13.572, 40.186 -22.130, 35.014 -30.535, 29.934 " />
            <path fill="none" stroke-width="3.0" stroke-linecap="butt" stroke-opacity="1.0" stroke="rgb(0, 0, 0)" stroke-linejoin="round" d=" M 12.157, 184.341 17.971, 184.344 26.721, 179.503 33.540, 175.730 42.290, 170.888 46.590, 168.509 46.587, 158.509 46.585, 148.509 46.582, 138.509 46.579, 128.509 46.576, 118.509 46.573, 108.509 46.570, 98.509 46.567, 88.509 46.564, 78.509 46.564, 76.530 38.005, 71.358 36.224, 70.281 27.666, 65.109 19.108, 59.937 17.922, 59.220 12.105, 59.223 " />
            <path fill="none" stroke-width="3.0" stroke-linecap="butt" stroke-opacity="1.0" stroke="rgb(0, 0, 0)" stroke-linejoin="round" d=" M 17.971, 184.344 17.967, 174.344 17.963, 164.344 17.959, 154.344 17.955, 144.344 17.951, 134.344 17.947, 124.344 17.943, 114.344 17.939, 104.344 17.936, 94.344 17.932, 84.344 17.928, 74.344 17.924, 64.344 17.922, 59.220 " />
            <path fill="none" stroke-width="3.0" stroke-linecap="butt" stroke-opacity="1.0" stroke="rgb(0, 0, 0)" stroke-linejoin="round" d=" M 240.245, 59.096 234.402, 59.099 225.842, 64.269 217.282, 69.439 216.903, 69.669 208.343, 74.839 205.651, 76.465 205.648, 86.465 205.645, 96.465 205.642, 106.465 205.639, 116.465 205.636, 126.465 205.633, 136.465 205.630, 146.465 205.627, 156.465 205.624, 166.465 205.623, 168.569 214.374, 173.408 219.684, 176.344 228.435, 181.183 234.352, 184.455 240.191, 184.458 " />
            <path fill="none" stroke-width="3.0" stroke-linecap="butt" stroke-opacity="1.0" stroke="rgb(0, 0, 0)" stroke-linejoin="round" d=" M 234.352, 184.455 234.356, 174.455 234.360, 164.455 234.364, 154.455 234.368, 144.455 234.372, 134.455 234.376, 124.455 234.380, 114.455 234.384, 104.455 234.388, 94.455 234.392, 84.455 234.396, 74.455 234.400, 64.455 234.402, 59.099 " />
            <path fill="none" stroke-width="3.0" stroke-linecap="butt" stroke-opacity="1.0" stroke="rgb(0, 0, 0)" stroke-linejoin="round" d=" M 129.808, 151.605 126.293, 151.835 122.778, 151.604 119.323, 150.916 115.988, 149.783 112.829, 148.225 109.901, 146.267 107.253, 143.945 104.931, 141.297 102.975, 138.368 102.549, 137.504 102.087, 136.567 101.810, 136.005 101.417, 135.209 101.297, 134.857 100.285, 131.874 99.919, 130.037 99.598, 128.420 99.367, 124.905 99.597, 121.391 99.919, 119.773 100.284, 117.936 101.296, 114.954 101.415, 114.601 101.808, 113.805 102.054, 113.306 102.626, 112.144 102.729, 111.936 102.909, 111.570 102.973, 111.442 102.976, 111.437 103.362, 110.858 104.929, 108.512 107.251, 105.863 109.899, 103.540 112.827, 101.582 115.987, 100.024 119.322, 98.890 122.778, 98.202 126.293, 97.971 129.809, 98.201 133.265, 98.887 136.602, 100.019 139.762, 101.577 142.692, 103.534 145.341, 105.857 147.665, 108.507 149.085, 110.631 149.455, 111.186 149.620, 111.432 149.623, 111.436 149.686, 111.565 149.758, 111.711 150.028, 112.257 150.274, 112.756 150.788, 113.799 151.181, 114.597 152.166, 117.497 152.314, 117.933 153.001, 121.389 153.014, 121.577 153.231, 124.906 153.013, 128.234 153.001, 128.422 152.313, 131.878 152.164, 132.314 151.179, 135.214 150.786, 136.011 150.463, 136.667 150.047, 137.509 149.620, 138.374 147.662, 141.303 145.339, 143.951 142.689, 146.274 139.759, 148.230 136.599, 149.787 133.263, 150.919 129.808, 151.605 " />
            <path fill="none" stroke-width="3.0" stroke-linecap="butt" stroke-opacity="1.0" stroke="rgb(0, 0, 0)" stroke-linejoin="round" d=" M 128.962, 145.552 126.234, 145.730 123.506, 145.551 120.824, 145.017 118.235, 144.138 115.783, 142.928 113.510, 141.409 111.455, 139.606 109.652, 137.551 108.134, 135.278 107.816, 134.634 107.775, 134.550 107.733, 134.466 107.458, 133.907 107.173, 133.329 106.925, 132.826 106.809, 132.486 106.046, 130.239 106.046, 130.237 105.978, 129.898 105.876, 129.383 105.512, 127.555 105.333, 124.827 105.512, 122.099 105.875, 120.272 105.978, 119.756 106.045, 119.418 106.046, 119.416 106.808, 117.169 106.924, 116.829 107.171, 116.326 107.966, 114.715 108.118, 114.405 108.132, 114.377 108.155, 114.342 108.435, 113.923 109.651, 112.103 111.453, 110.047 113.509, 108.244 115.782, 106.724 118.234, 105.514 120.823, 104.635 123.505, 104.101 126.234, 103.922 128.963, 104.100 131.645, 104.633 134.235, 105.512 136.688, 106.721 138.962, 108.240 141.018, 110.043 142.822, 112.099 143.924, 113.749 143.956, 113.797 144.109, 114.026 144.318, 114.339 144.341, 114.373 144.903, 115.513 145.268, 116.253 145.551, 116.826 146.030, 118.239 146.100, 118.443 146.201, 118.742 146.430, 119.416 146.963, 122.099 147.142, 124.828 146.963, 127.557 146.429, 130.239 146.200, 130.913 146.099, 131.212 146.029, 131.416 145.550, 132.828 145.267, 133.402 144.993, 133.956 144.740, 134.469 144.699, 134.554 144.572, 134.810 144.340, 135.281 142.820, 137.554 141.017, 139.610 138.960, 141.413 136.686, 142.932 134.234, 144.141 131.644, 145.019 128.962, 145.552 " />
            <path fill="none" stroke-width="3.0" stroke-linecap="butt" stroke-opacity="1.0" stroke="rgb(0, 0, 0)" stroke-linejoin="round" d=" M 158.371, 105.022 158.185, 105.134 158.185, 106.392 158.185, 107.149 158.185, 110.987 158.183, 120.987 158.182, 130.987 158.181, 138.667 158.181, 140.492 158.181, 141.184 158.181, 142.335 159.541, 143.087 " />
            <path fill="none" stroke-width="3.0" stroke-linecap="butt" stroke-opacity="1.0" stroke="rgb(0, 0, 0)" stroke-linejoin="round" d=" M 93.122, 142.764 93.914, 142.326 93.914, 141.175 93.914, 140.482 93.914, 137.738 93.913, 127.738 93.912, 117.738 93.911, 111.916 93.910, 107.159 93.910, 106.402 93.910, 105.834 " />
            <path fill="none" stroke-width="3.0" stroke-linecap="butt" stroke-opacity="1.0" stroke="rgb(0, 0, 0)" stroke-linejoin="round" d=" M 128.051, 139.025 126.170, 139.148 124.290, 139.025 122.442, 138.657 120.658, 138.051 118.968, 137.218 117.402, 136.171 115.985, 134.929 114.743, 133.512 113.696, 131.945 112.863, 130.255 112.257, 128.471 111.890, 126.623 111.766, 124.743 111.889, 122.863 112.257, 121.015 112.862, 119.231 113.695, 117.541 114.742, 115.974 115.984, 114.557 117.401, 113.315 118.968, 112.268 120.657, 111.434 122.442, 110.828 124.290, 110.460 126.170, 110.337 128.051, 110.460 129.899, 110.827 131.684, 111.433 133.374, 112.266 134.941, 113.313 136.358, 114.556 137.601, 115.973 138.648, 117.540 139.481, 119.230 140.087, 121.014 140.455, 122.863 140.578, 124.743 140.455, 126.624 140.087, 128.472 139.481, 130.257 138.647, 131.947 137.600, 133.514 136.357, 134.930 134.940, 136.173 133.373, 137.219 131.683, 138.053 129.899, 138.658 128.051, 139.025 " />
            <path fill="none" stroke-width="3.0" stroke-linecap="butt" stroke-opacity="1.0" stroke="rgb(0, 0, 0)" stroke-linejoin="round" d=" M 128.419, 141.664 126.196, 141.809 123.973, 141.663 121.788, 141.228 119.678, 140.512 117.681, 139.526 115.828, 138.289 114.154, 136.820 112.685, 135.145 111.447, 133.292 110.462, 131.295 109.746, 129.185 109.311, 127.000 109.166, 124.777 109.311, 122.554 109.745, 120.369 110.461, 118.260 111.446, 116.262 112.684, 114.409 114.153, 112.734 115.827, 111.265 117.680, 110.027 119.678, 109.041 121.788, 108.324 123.973, 107.889 126.196, 107.743 128.420, 107.889 130.605, 108.323 132.715, 109.039 134.714, 110.025 136.567, 111.262 138.242, 112.732 139.711, 114.407 140.949, 116.260 141.935, 118.258 142.651, 120.368 142.945, 121.847 143.086, 122.554 143.232, 124.777 143.086, 127.001 142.945, 127.708 142.651, 129.186 141.934, 131.296 140.948, 133.295 139.710, 135.147 138.241, 136.822 136.565, 138.291 134.713, 139.529 132.714, 140.514 130.604, 141.230 128.419, 141.664 " />
            <path fill="none" stroke-width="3.0" stroke-linecap="butt" stroke-opacity="1.0" stroke="rgb(0, 0, 0)" stroke-linejoin="round" d=" M 70.713, 154.970 70.712, 154.383 70.712, 154.087 70.712, 151.988 70.710, 141.988 70.708, 131.988 70.706, 121.988 70.704, 111.988 70.702, 101.988 70.701, 95.999 70.701, 95.780 " />
            <path fill="none" stroke-width="3.0" stroke-linecap="butt" stroke-opacity="1.0" stroke="rgb(0, 0, 0)" stroke-linejoin="round" d=" M 89.440, 132.392 89.439, 122.392 89.438, 117.699 " />
            <path fill="none" stroke-width="3.0" stroke-linecap="butt" stroke-opacity="1.0" stroke="rgb(0, 0, 0)" stroke-linejoin="round" d=" M 90.062, 135.229 90.061, 125.229 90.060, 115.229 90.060, 114.862 " />
            <path fill="none" stroke-width="3.0" stroke-linecap="butt" stroke-opacity="1.0" stroke="rgb(0, 0, 0)" stroke-linejoin="round" d=" M 101.297, 134.857 101.296, 124.857 101.296, 114.954 " />
            <path fill="none" stroke-width="3.0" stroke-linecap="butt" stroke-opacity="1.0" stroke="rgb(0, 0, 0)" stroke-linejoin="round" d=" M 105.978, 129.898 105.978, 119.898 105.978, 119.756 " />
            <path fill="none" stroke-width="3.0" stroke-linecap="butt" stroke-opacity="1.0" stroke="rgb(0, 0, 0)" stroke-linejoin="round" d=" M 142.945, 121.847 142.945, 127.708 " />
            <path fill="none" stroke-width="3.0" stroke-linecap="butt" stroke-opacity="1.0" stroke="rgb(0, 0, 0)" stroke-linejoin="round" d=" M 146.100, 118.443 146.099, 128.443 146.099, 131.212 " />
            <path fill="none" stroke-width="3.0" stroke-linecap="butt" stroke-opacity="1.0" stroke="rgb(0, 0, 0)" stroke-linejoin="round" d=" M 150.788, 113.799 150.787, 123.799 150.786, 133.799 150.786, 136.011 " />
            <path fill="none" stroke-width="3.0" stroke-linecap="butt" stroke-opacity="1.0" stroke="rgb(0, 0, 0)" stroke-linejoin="round" d=" M 153.013, 128.234 153.014, 121.577 " />
            <path fill="none" stroke-width="3.0" stroke-linecap="butt" stroke-opacity="1.0" stroke="rgb(0, 0, 0)" stroke-linejoin="round" d=" M 162.039, 137.353 162.041, 127.353 162.042, 117.353 162.043, 112.738 " />
            <path fill="none" stroke-width="3.0" stroke-linecap="butt" stroke-opacity="1.0" stroke="rgb(0, 0, 0)" stroke-linejoin="round" d=" M 162.665, 114.573 162.664, 124.573 162.663, 134.573 162.662, 135.519 " />
        </g>
    </g>
</svg>
