<?xml version='1.0' encoding='ascii'?>
<svg xmlns="http://www.w3.org/2000/svg" version="1.1" width="250" height="250">
    <g id="ViewLayer_LineSet" xmlns:inkscape="http://www.inkscape.org/namespaces/inkscape" inkscape:groupmode="lineset" inkscape:label="ViewLayer_LineSet">
        <g xmlns:inkscape="http://www.inkscape.org/namespaces/inkscape" inkscape:groupmode="layer" id="strokes" inkscape:label="strokes">
            <path fill="none" stroke-width="3.0" stroke-linecap="butt" stroke-opacity="1.0" stroke="rgb(0, 0, 0)" stroke-linejoin="round" d=" M 251.276, 186.631 248.487, 192.271 246.968, 195.345 241.403, 203.654 236.912, 210.359 230.310, 217.869 224.984, 223.928 217.457, 230.512 211.387, 235.822 203.065, 241.367 196.357, 245.837 187.382, 250.248 180.150, 253.803 " />
            <path fill="none" stroke-width="3.0" stroke-linecap="butt" stroke-opacity="1.0" stroke="rgb(0, 0, 0)" stroke-linejoin="round" d=" M 180.202, -1.385 189.174, 3.030 196.420, 6.596 204.738, 12.146 211.457, 16.628 218.979, 23.217 225.056, 28.541 231.652, 36.056 236.981, 42.129 242.539, 50.442 244.321, 53.108 247.030, 57.159 247.766, 58.652 252.189, 67.621 255.027, 73.375 " />
            <path fill="none" stroke-width="3.0" stroke-linecap="butt" stroke-opacity="1.0" stroke="rgb(0, 0, 0)" stroke-linejoin="round" d=" M -0.101, 73.486 4.313, 64.513 6.599, 59.866 7.863, 57.297 9.838, 54.334 15.385, 46.014 17.872, 42.282 24.457, 34.757 29.756, 28.700 37.267, 22.098 43.313, 16.783 51.621, 11.217 58.311, 6.734 67.274, 2.300 74.495, -1.272 " />
            <path fill="none" stroke-width="3.0" stroke-linecap="butt" stroke-opacity="1.0" stroke="rgb(0, 0, 0)" stroke-linejoin="round" d=" M 74.542, 253.687 65.577, 249.256 58.370, 245.694 50.059, 240.133 43.379, 235.663 35.864, 229.065 29.824, 223.763 23.234, 216.242 17.938, 210.198 12.385, 201.882 7.922, 195.201 5.870, 191.039 3.138, 185.497 -0.053, 179.026 " />
            <path fill="none" stroke-width="3.0" stroke-linecap="butt" stroke-opacity="1.0" stroke="rgb(0, 0, 0)" stroke-linejoin="round" d=" M 130.965, 159.889 126.374, 160.188 121.782, 159.886 117.270, 158.987 112.914, 157.507 108.788, 155.471 104.963, 152.915 101.505, 149.881 98.472, 146.422 95.916, 142.597 95.382, 141.513 95.330, 141.408 94.818, 140.370 94.685, 140.100 94.141, 138.997 93.882, 138.471 92.403, 134.115 92.129, 132.740 92.047, 132.325 91.577, 129.965 91.505, 129.603 91.204, 125.012 91.504, 120.422 91.576, 120.059 92.045, 117.699 92.128, 117.284 92.401, 115.909 93.879, 111.552 94.138, 111.026 95.569, 108.122 95.594, 108.071 95.913, 107.426 96.008, 107.282 98.468, 103.599 101.501, 100.139 104.959, 97.104 108.784, 94.546 112.911, 92.510 117.268, 91.029 121.782, 90.130 126.374, 89.828 130.967, 90.127 135.481, 91.024 139.840, 92.503 143.969, 94.537 147.797, 97.094 151.258, 100.129 154.293, 103.589 156.524, 106.927 156.755, 107.273 156.851, 107.417 157.028, 107.775 157.955, 109.656 158.887, 111.545 159.971, 114.739 160.052, 114.976 160.367, 115.904 160.524, 116.694 161.264, 120.419 161.565, 125.013 161.263, 129.606 160.522, 133.331 160.364, 134.120 160.049, 135.048 159.969, 135.285 158.884, 138.479 157.951, 140.368 157.947, 140.376 157.946, 140.378 157.434, 141.417 157.238, 141.814 156.847, 142.606 154.289, 146.432 151.253, 149.892 147.792, 152.925 143.965, 155.481 139.837, 157.515 135.479, 158.992 130.965, 159.889 " />
            <path fill="none" stroke-width="3.0" stroke-linecap="butt" stroke-opacity="1.0" stroke="rgb(0, 0, 0)" stroke-linejoin="round" d=" M 44.009, 169.938 45.180, 172.313 50.735, 180.629 52.011, 182.539 58.602, 190.059 60.117, 191.787 67.633, 198.383 69.360, 199.899 77.672, 205.459 79.583, 206.737 88.549, 211.165 90.611, 212.184 100.079, 215.404 102.257, 216.145 112.063, 218.103 114.321, 218.554 124.299, 219.216 126.597, 219.368 136.576, 218.722 138.876, 218.574 148.685, 216.631 150.947, 216.183 160.419, 212.977 162.605, 212.237 171.577, 207.823 173.649, 206.803 181.968, 201.255 183.890, 199.973 191.414, 193.386 193.153, 191.864 199.752, 184.350 201.278, 182.613 206.840, 174.302 208.127, 172.380 209.068, 170.474 " />
            <path fill="none" stroke-width="3.0" stroke-linecap="butt" stroke-opacity="1.0" stroke="rgb(0, 0, 0)" stroke-linejoin="round" d=" M 133.947, 181.235 126.582, 181.714 119.217, 181.228 111.979, 179.785 104.992, 177.410 98.374, 174.144 92.240, 170.043 86.693, 165.176 81.828, 159.627 77.730, 153.492 76.873, 151.754 76.636, 151.274 75.755, 149.487 75.455, 148.880 74.466, 146.874 72.094, 139.887 70.917, 133.973 70.654, 132.650 70.170, 125.287 70.651, 117.924 70.914, 116.601 72.089, 110.686 74.458, 103.697 75.447, 101.691 76.627, 99.296 77.209, 98.113 77.720, 97.077 78.536, 95.854 81.818, 90.939 86.682, 85.387 92.229, 80.518 98.365, 76.413 104.984, 73.145 111.974, 70.768 119.215, 69.324 126.582, 68.837 133.951, 69.317 141.195, 70.755 148.189, 73.126 154.814, 76.390 160.956, 80.492 166.510, 85.360 171.381, 90.913 174.357, 95.366 175.485, 97.054 175.504, 97.091 175.769, 97.629 176.686, 99.489 178.752, 103.679 181.126, 110.673 181.227, 111.181 182.546, 117.814 182.567, 117.918 183.048, 125.288 182.563, 132.658 182.543, 132.762 181.221, 139.394 181.120, 139.901 178.744, 146.894 177.241, 149.938 176.676, 151.082 176.268, 151.909 175.475, 153.516 171.369, 159.654 166.498, 165.204 160.944, 170.069 154.803, 174.168 148.180, 177.430 141.188, 179.799 133.947, 181.235 " />
            <path fill="none" stroke-width="3.0" stroke-linecap="butt" stroke-opacity="1.0" stroke="rgb(0, 0, 0)" stroke-linejoin="round" d=" M 206.599, 75.892 201.311, 67.980 194.715, 60.463 193.186, 58.721 185.665, 52.130 183.922, 50.603 175.605, 45.051 173.678, 43.765 164.707, 39.347 162.629, 38.323 153.157, 35.115 150.964, 34.372 141.155, 32.428 138.885, 31.979 128.906, 31.332 126.598, 31.183 116.620, 31.845 114.313, 31.998 104.507, 33.957 102.242, 34.410 92.775, 37.632 90.590, 38.376 81.625, 42.807 79.556, 43.829 71.246, 49.392 69.330, 50.675 61.817, 57.275 60.085, 58.795 53.497, 66.319 51.980, 68.052 46.393, 76.427 " />
            <path fill="none" stroke-width="3.0" stroke-linecap="butt" stroke-opacity="1.0" stroke="rgb(0, 0, 0)" stroke-linejoin="round" d=" M 175.493, 151.909 175.495, 141.909 175.497, 131.909 175.499, 121.909 175.501, 111.909 175.503, 101.909 175.504, 97.091 " />
            <path fill="none" stroke-width="3.0" stroke-linecap="butt" stroke-opacity="1.0" stroke="rgb(0, 0, 0)" stroke-linejoin="round" d=" M 174.357, 95.366 168.502, 98.903 168.502, 101.014 168.502, 101.563 168.500, 111.563 168.499, 118.936 168.497, 128.936 168.497, 130.840 168.495, 140.840 168.495, 145.604 168.495, 146.106 168.494, 148.038 175.493, 151.909 176.268, 151.909 " />
            <path fill="none" stroke-width="3.0" stroke-linecap="butt" stroke-opacity="1.0" stroke="rgb(0, 0, 0)" stroke-linejoin="round" d=" M 76.873, 151.754 83.620, 148.021 83.620, 146.090 83.620, 145.587 83.618, 135.587 83.617, 125.587 83.615, 115.587 83.614, 105.587 83.613, 101.581 83.613, 101.031 83.613, 98.921 78.536, 95.854 " />
            <path fill="none" stroke-width="3.0" stroke-linecap="butt" stroke-opacity="1.0" stroke="rgb(0, 0, 0)" stroke-linejoin="round" d=" M 244.321, 53.108 235.762, 58.278 227.202, 63.448 221.725, 66.756 221.724, 69.253 221.723, 72.751 221.719, 82.751 221.715, 92.751 221.712, 102.751 221.708, 112.751 221.705, 122.751 221.701, 132.751 221.698, 142.751 221.694, 152.751 221.690, 162.751 221.687, 171.967 221.686, 175.167 221.685, 177.451 230.436, 182.290 239.188, 187.129 247.939, 191.968 248.487, 192.271 " />
            <path fill="none" stroke-width="3.0" stroke-linecap="butt" stroke-opacity="1.0" stroke="rgb(0, 0, 0)" stroke-linejoin="round" d=" M 5.870, 191.039 14.620, 186.198 23.370, 181.357 30.586, 177.365 30.585, 175.084 30.584, 171.886 30.580, 161.886 30.577, 151.886 30.573, 141.886 30.570, 131.886 30.567, 121.886 30.563, 111.886 30.560, 101.886 30.556, 91.886 30.553, 81.886 30.550, 72.839 30.548, 69.343 30.547, 66.851 21.989, 61.678 13.431, 56.506 9.838, 54.334 " />
            <path fill="none" stroke-width="3.0" stroke-linecap="butt" stroke-opacity="1.0" stroke="rgb(0, 0, 0)" stroke-linejoin="round" d=" M 30.585, 175.084 34.704, 175.086 43.454, 170.245 44.009, 169.938 52.759, 165.096 56.020, 163.292 56.018, 153.292 56.015, 143.292 56.012, 133.292 56.010, 123.292 56.007, 113.292 56.005, 103.292 56.002, 93.292 56.000, 83.292 56.000, 82.233 47.441, 77.061 46.393, 76.427 37.834, 71.255 34.669, 69.341 30.548, 69.343 " />
            <path fill="none" stroke-width="3.0" stroke-linecap="butt" stroke-opacity="1.0" stroke="rgb(0, 0, 0)" stroke-linejoin="round" d=" M 34.704, 175.086 34.700, 165.086 34.697, 155.086 34.694, 145.086 34.693, 144.139 34.690, 134.139 34.687, 124.139 34.683, 114.139 34.681, 106.473 34.677, 96.473 34.674, 86.473 34.671, 76.473 34.669, 69.341 " />
            <path fill="none" stroke-width="3.0" stroke-linecap="butt" stroke-opacity="1.0" stroke="rgb(0, 0, 0)" stroke-linejoin="round" d=" M 221.724, 69.253 217.588, 69.255 209.028, 74.425 206.599, 75.892 198.040, 81.062 196.185, 82.182 196.182, 92.182 196.180, 102.182 196.177, 112.182 196.175, 122.182 196.172, 132.182 196.169, 142.182 196.167, 152.182 196.164, 162.182 196.164, 163.339 204.915, 168.178 209.068, 170.474 217.552, 175.165 221.686, 175.167 " />
            <path fill="none" stroke-width="3.0" stroke-linecap="butt" stroke-opacity="1.0" stroke="rgb(0, 0, 0)" stroke-linejoin="round" d=" M 217.552, 175.165 217.555, 165.165 217.559, 155.165 217.561, 149.612 217.564, 139.612 217.567, 129.612 217.571, 119.612 217.574, 109.612 217.577, 101.001 217.580, 91.001 217.584, 81.001 217.587, 71.001 217.588, 69.255 " />
            <path fill="none" stroke-width="3.0" stroke-linecap="butt" stroke-opacity="1.0" stroke="rgb(0, 0, 0)" stroke-linejoin="round" d=" M 129.619, 150.254 126.280, 150.472 122.940, 150.252 119.658, 149.599 116.490, 148.523 113.489, 147.042 110.707, 145.183 108.191, 142.976 105.985, 140.460 104.126, 137.678 103.738, 136.890 103.522, 136.452 103.368, 136.141 103.312, 136.027 103.231, 135.862 102.898, 135.187 102.669, 134.723 102.647, 134.677 102.293, 133.635 101.571, 131.509 100.918, 128.227 100.916, 128.192 100.699, 124.888 100.915, 121.584 100.917, 121.549 101.570, 118.267 102.291, 116.141 102.645, 115.098 102.668, 115.052 102.896, 114.588 103.520, 113.324 103.893, 112.566 104.125, 112.097 104.171, 112.026 104.254, 111.902 104.495, 111.542 105.983, 109.314 108.189, 106.797 110.705, 104.590 113.487, 102.730 116.488, 101.249 119.657, 100.173 122.940, 99.519 126.280, 99.299 129.620, 99.518 132.903, 100.170 136.073, 101.245 139.076, 102.726 141.859, 104.585 144.376, 106.792 146.584, 109.309 147.933, 111.327 148.314, 111.898 148.397, 112.022 148.444, 112.092 148.561, 112.330 148.572, 112.353 149.184, 113.592 149.413, 114.057 149.791, 114.825 149.924, 115.094 151.000, 118.264 151.168, 119.106 151.653, 121.548 151.833, 124.299 151.872, 124.888 151.833, 125.478 151.653, 128.229 151.167, 130.670 150.999, 131.512 149.923, 134.681 149.789, 134.951 149.411, 135.719 149.200, 136.145 148.771, 137.015 148.441, 137.683 146.581, 140.466 144.374, 142.982 141.857, 145.188 139.073, 147.047 136.071, 148.527 132.902, 149.602 129.619, 150.254 " />
            <path fill="none" stroke-width="3.0" stroke-linecap="butt" stroke-opacity="1.0" stroke="rgb(0, 0, 0)" stroke-linejoin="round" d=" M 128.847, 144.728 126.226, 144.900 123.605, 144.728 121.028, 144.215 118.541, 143.370 116.185, 142.208 114.001, 140.748 112.026, 139.016 110.295, 137.041 108.835, 134.857 108.504, 134.184 108.499, 134.174 108.239, 133.647 107.698, 132.550 107.674, 132.501 107.416, 131.742 106.829, 130.014 106.638, 129.050 106.635, 129.038 106.475, 128.231 106.317, 127.438 106.145, 124.817 106.317, 122.196 106.474, 121.403 106.635, 120.595 106.637, 120.583 106.829, 119.619 107.415, 117.892 107.673, 117.132 107.697, 117.083 108.502, 115.449 108.646, 115.157 108.834, 114.776 108.934, 114.627 109.125, 114.340 110.293, 112.591 112.025, 110.616 114.000, 108.884 116.184, 107.424 118.540, 106.261 121.028, 105.416 123.604, 104.903 126.226, 104.731 128.848, 104.902 131.425, 105.415 133.913, 106.259 136.270, 107.421 138.455, 108.880 140.430, 110.613 142.163, 112.588 143.222, 114.173 143.428, 114.481 143.523, 114.624 143.572, 114.696 143.623, 114.773 144.377, 116.303 144.661, 116.877 144.785, 117.130 145.440, 119.058 145.441, 119.061 145.601, 119.535 145.630, 119.618 146.142, 122.195 146.314, 124.817 146.142, 127.439 145.629, 130.016 145.601, 130.099 145.440, 130.573 145.439, 130.576 144.784, 132.504 144.660, 132.756 144.376, 133.331 144.219, 133.650 143.959, 134.177 143.919, 134.257 143.845, 134.408 143.621, 134.860 142.161, 137.045 140.429, 139.020 138.453, 140.752 136.268, 142.211 133.912, 143.372 131.424, 144.216 128.847, 144.728 " />
            <path fill="none" stroke-width="3.0" stroke-linecap="butt" stroke-opacity="1.0" stroke="rgb(0, 0, 0)" stroke-linejoin="round" d=" M 156.524, 106.927 156.523, 107.273 156.523, 108.048 156.523, 110.708 156.522, 120.708 156.521, 130.708 156.520, 138.924 156.520, 139.669 156.520, 140.378 156.520, 141.417 157.238, 141.814 " />
            <path fill="none" stroke-width="3.0" stroke-linecap="butt" stroke-opacity="1.0" stroke="rgb(0, 0, 0)" stroke-linejoin="round" d=" M 95.382, 141.513 95.573, 141.408 95.573, 140.370 95.573, 139.660 95.572, 138.156 95.571, 128.156 95.570, 118.156 95.570, 111.476 95.569, 108.122 " />
            <path fill="none" stroke-width="3.0" stroke-linecap="butt" stroke-opacity="1.0" stroke="rgb(0, 0, 0)" stroke-linejoin="round" d=" M 127.995, 138.630 126.166, 138.749 124.338, 138.629 122.540, 138.271 120.805, 137.682 119.161, 136.871 117.638, 135.853 116.260, 134.645 115.052, 133.267 114.034, 131.743 113.223, 130.100 112.634, 128.364 112.276, 126.567 112.156, 124.738 112.276, 122.910 112.634, 121.112 113.223, 119.377 114.033, 117.733 115.051, 116.209 116.259, 114.831 117.637, 113.622 119.161, 112.604 120.804, 111.793 122.540, 111.204 124.338, 110.846 126.167, 110.726 127.996, 110.846 129.793, 111.203 131.529, 111.792 133.173, 112.603 134.697, 113.621 136.075, 114.829 137.284, 116.207 138.303, 117.732 139.113, 119.376 139.702, 121.111 140.060, 122.909 140.180, 124.738 140.060, 126.567 139.702, 128.365 139.113, 130.101 138.302, 131.745 137.283, 133.269 136.075, 134.646 134.696, 135.855 133.172, 136.873 131.528, 137.683 129.793, 138.272 127.995, 138.630 " />
            <path fill="none" stroke-width="3.0" stroke-linecap="butt" stroke-opacity="1.0" stroke="rgb(0, 0, 0)" stroke-linejoin="round" d=" M 128.342, 141.113 126.191, 141.254 124.039, 141.113 121.924, 140.692 119.883, 139.998 117.949, 139.045 116.157, 137.847 114.536, 136.425 113.114, 134.804 111.917, 133.011 110.963, 131.078 110.270, 129.036 109.849, 126.922 109.708, 124.770 109.849, 122.619 110.270, 120.504 110.962, 118.463 111.916, 116.529 113.114, 114.736 114.535, 113.115 116.156, 111.693 117.949, 110.494 119.882, 109.540 121.924, 108.847 124.039, 108.426 126.191, 108.285 128.343, 108.425 130.458, 108.846 132.500, 109.539 134.434, 110.492 136.227, 111.690 137.849, 113.112 139.271, 114.734 140.469, 116.527 141.423, 118.461 142.116, 120.503 142.474, 122.302 142.537, 122.618 142.678, 124.770 142.536, 126.922 142.474, 127.238 142.116, 129.037 141.422, 131.079 140.468, 133.013 139.270, 134.806 137.848, 136.427 136.226, 137.849 134.433, 139.047 132.499, 140.000 130.457, 140.693 128.342, 141.113 " />
            <path fill="none" stroke-width="3.0" stroke-linecap="butt" stroke-opacity="1.0" stroke="rgb(0, 0, 0)" stroke-linejoin="round" d=" M 75.455, 148.880 75.454, 138.880 75.452, 128.880 75.450, 118.880 75.448, 108.880 75.447, 101.691 " />
            <path fill="none" stroke-width="3.0" stroke-linecap="butt" stroke-opacity="1.0" stroke="rgb(0, 0, 0)" stroke-linejoin="round" d=" M 76.636, 151.274 76.634, 141.274 76.632, 131.274 76.631, 121.274 76.629, 111.274 76.627, 101.274 76.627, 99.296 " />
            <path fill="none" stroke-width="3.0" stroke-linecap="butt" stroke-opacity="1.0" stroke="rgb(0, 0, 0)" stroke-linejoin="round" d=" M 91.577, 129.965 91.576, 120.059 " />
            <path fill="none" stroke-width="3.0" stroke-linecap="butt" stroke-opacity="1.0" stroke="rgb(0, 0, 0)" stroke-linejoin="round" d=" M 92.129, 132.740 92.128, 122.740 92.128, 117.284 " />
            <path fill="none" stroke-width="3.0" stroke-linecap="butt" stroke-opacity="1.0" stroke="rgb(0, 0, 0)" stroke-linejoin="round" d=" M 102.293, 133.635 102.292, 123.635 102.291, 116.141 " />
            <path fill="none" stroke-width="3.0" stroke-linecap="butt" stroke-opacity="1.0" stroke="rgb(0, 0, 0)" stroke-linejoin="round" d=" M 106.638, 129.050 106.637, 120.583 " />
            <path fill="none" stroke-width="3.0" stroke-linecap="butt" stroke-opacity="1.0" stroke="rgb(0, 0, 0)" stroke-linejoin="round" d=" M 142.474, 122.302 142.474, 127.238 " />
            <path fill="none" stroke-width="3.0" stroke-linecap="butt" stroke-opacity="1.0" stroke="rgb(0, 0, 0)" stroke-linejoin="round" d=" M 145.440, 119.058 145.439, 129.058 145.439, 130.576 " />
            <path fill="none" stroke-width="3.0" stroke-linecap="butt" stroke-opacity="1.0" stroke="rgb(0, 0, 0)" stroke-linejoin="round" d=" M 149.791, 114.825 149.790, 124.825 149.789, 134.951 " />
            <path fill="none" stroke-width="3.0" stroke-linecap="butt" stroke-opacity="1.0" stroke="rgb(0, 0, 0)" stroke-linejoin="round" d=" M 151.833, 125.478 151.833, 124.299 " />
            <path fill="none" stroke-width="3.0" stroke-linecap="butt" stroke-opacity="1.0" stroke="rgb(0, 0, 0)" stroke-linejoin="round" d=" M 159.969, 135.285 159.970, 125.285 159.971, 115.285 159.971, 114.739 " />
            <path fill="none" stroke-width="3.0" stroke-linecap="butt" stroke-opacity="1.0" stroke="rgb(0, 0, 0)" stroke-linejoin="round" d=" M 160.524, 116.694 160.522, 126.694 160.522, 133.331 " />
            <path fill="none" stroke-width="3.0" stroke-linecap="butt" stroke-opacity="1.0" stroke="rgb(0, 0, 0)" stroke-linejoin="round" d=" M 176.686, 99.489 176.684, 109.489 176.682, 119.489 176.680, 129.489 176.679, 139.489 176.677, 149.659 176.676, 151.082 " />
        </g>
    </g>
</svg>
