<?xml version='1.0' encoding='ascii'?>
<svg xmlns="http://www.w3.org/2000/svg" version="1.1" width="250" height="250">
    <g id="ViewLayer_LineSet" xmlns:inkscape="http://www.inkscape.org/namespaces/inkscape" inkscape:groupmode="lineset" inkscape:label="ViewLayer_LineSet">
        <g xmlns:inkscape="http://www.inkscape.org/namespaces/inkscape" inkscape:groupmode="layer" id="strokes" inkscape:label="strokes">
            <path fill="none" stroke-width="3.0" stroke-linecap="butt" stroke-opacity="1.0" stroke="rgb(0, 0, 0)" stroke-linejoin="round" d=" M 255.737, 224.925 249.133, 232.435 242.529, 239.944 241.780, 240.796 234.252, 247.378 226.724, 253.961 225.873, 254.705 " />
            <path fill="none" stroke-width="3.0" stroke-linecap="butt" stroke-opacity="1.0" stroke="rgb(0, 0, 0)" stroke-linejoin="round" d=" M 225.969, -1.705 233.491, 4.883 241.014, 11.472 241.878, 12.229 248.475, 19.744 255.072, 27.260 255.831, 28.125 " />
            <path fill="none" stroke-width="3.0" stroke-linecap="butt" stroke-opacity="1.0" stroke="rgb(0, 0, 0)" stroke-linejoin="round" d=" M -0.463, 28.335 6.121, 20.808 12.704, 13.281 13.433, 12.448 20.942, 5.844 28.452, -0.760 29.286, -1.494 " />
            <path fill="none" stroke-width="3.0" stroke-linecap="butt" stroke-opacity="1.0" stroke="rgb(0, 0, 0)" stroke-linejoin="round" d=" M 29.376, 254.486 21.861, 247.888 14.347, 241.290 13.526, 240.569 6.936, 233.048 0.347, 225.526 -0.372, 224.706 " />
            <path fill="none" stroke-width="3.0" stroke-linecap="butt" stroke-opacity="1.0" stroke="rgb(0, 0, 0)" stroke-linejoin="round" d=" M 131.163, 161.308 126.387, 161.619 121.612, 161.305 116.918, 160.370 112.387, 158.830 108.096, 156.713 104.117, 154.053 100.520, 150.898 97.365, 147.300 94.707, 143.321 94.152, 142.194 94.012, 141.912 93.470, 140.812 93.427, 140.724 93.248, 140.363 92.591, 139.029 91.053, 134.498 91.031, 134.390 90.998, 134.222 90.408, 131.257 90.119, 129.805 89.806, 125.031 90.118, 120.256 90.406, 118.803 90.996, 115.839 91.029, 115.670 91.050, 115.562 92.588, 111.030 93.245, 109.697 94.372, 107.409 94.659, 106.828 94.673, 106.798 94.703, 106.738 97.361, 102.758 100.516, 99.158 104.113, 96.002 108.092, 93.341 112.384, 91.223 116.916, 89.683 121.611, 88.747 126.388, 88.433 131.165, 88.744 135.861, 89.677 140.395, 91.215 144.690, 93.331 148.671, 95.991 152.272, 99.147 155.429, 102.747 157.436, 105.750 158.089, 106.728 158.119, 106.789 158.273, 107.101 158.850, 108.270 160.207, 111.022 161.069, 113.563 161.105, 113.668 161.696, 115.407 161.746, 115.557 162.680, 120.253 162.993, 125.031 162.679, 129.809 161.744, 134.504 161.693, 134.654 161.102, 136.393 161.066, 136.498 160.204, 139.038 158.781, 141.921 158.492, 142.507 158.085, 143.331 155.424, 147.311 152.266, 150.909 148.666, 154.065 144.685, 156.723 140.391, 158.838 135.858, 160.375 131.163, 161.308 " />
            <path fill="none" stroke-width="3.0" stroke-linecap="butt" stroke-opacity="1.0" stroke="rgb(0, 0, 0)" stroke-linejoin="round" d=" M 38.437, 173.021 39.688, 175.557 45.242, 183.873 46.982, 186.478 53.573, 193.998 55.638, 196.355 63.154, 202.951 65.510, 205.019 73.822, 210.579 76.427, 212.321 85.393, 216.750 88.204, 218.138 97.672, 221.359 100.641, 222.370 110.448, 224.328 113.525, 224.943 123.503, 225.605 126.635, 225.813 136.615, 225.168 139.749, 224.965 149.559, 223.023 152.641, 222.413 162.114, 219.208 165.092, 218.200 174.065, 213.785 176.887, 212.397 185.207, 206.849 187.825, 205.103 195.350, 198.516 197.719, 196.442 204.319, 188.929 206.398, 186.563 211.960, 178.252 213.713, 175.633 214.718, 173.599 " />
            <path fill="none" stroke-width="3.0" stroke-linecap="butt" stroke-opacity="1.0" stroke="rgb(0, 0, 0)" stroke-linejoin="round" d=" M 134.470, 184.978 126.618, 185.488 118.767, 184.970 111.051, 183.431 103.603, 180.899 96.549, 177.417 90.009, 173.045 84.096, 167.857 78.911, 161.942 74.542, 155.402 73.474, 153.235 72.895, 152.062 72.437, 151.132 71.063, 148.347 68.535, 140.899 68.196, 139.197 66.999, 133.184 66.742, 129.272 66.483, 125.335 66.740, 121.399 66.996, 117.486 68.190, 111.472 68.528, 109.770 71.054, 102.320 72.885, 98.604 73.987, 96.367 74.186, 95.963 74.531, 95.263 75.401, 93.959 78.899, 88.719 84.084, 82.801 89.997, 77.610 96.538, 73.234 103.594, 69.750 111.046, 67.216 118.765, 65.676 126.619, 65.157 134.474, 65.668 142.197, 67.201 149.653, 69.728 156.716, 73.208 163.264, 77.580 169.185, 82.771 174.378, 88.690 177.551, 93.438 177.950, 94.036 178.753, 95.237 179.056, 95.850 179.255, 96.253 182.236, 102.299 183.958, 107.371 184.767, 109.756 185.412, 113.000 186.302, 117.479 186.816, 125.336 186.299, 133.193 185.406, 137.671 184.760, 140.915 183.950, 143.299 182.226, 148.370 180.624, 151.615 179.811, 153.261 179.456, 153.982 179.410, 154.074 178.741, 155.429 174.364, 161.973 169.171, 167.888 163.250, 173.075 156.703, 177.444 149.643, 180.921 142.189, 183.447 134.470, 184.978 " />
            <path fill="none" stroke-width="3.0" stroke-linecap="butt" stroke-opacity="1.0" stroke="rgb(0, 0, 0)" stroke-linejoin="round" d=" M 212.083, 72.580 206.526, 64.266 206.435, 64.129 199.839, 56.613 197.757, 54.240 190.236, 47.650 187.862, 45.570 179.545, 40.018 176.920, 38.266 167.949, 33.849 165.119, 32.456 155.648, 29.248 152.661, 28.236 142.852, 26.293 139.760, 25.680 129.781, 25.034 126.637, 24.831 116.659, 25.494 113.517, 25.702 103.710, 27.662 100.624, 28.279 91.158, 31.502 88.180, 32.516 79.215, 36.947 76.396, 38.340 68.086, 43.904 65.475, 45.652 57.962, 52.252 55.602, 54.325 49.015, 61.849 46.947, 64.211 41.398, 72.530 40.980, 73.156 " />
            <path fill="none" stroke-width="3.0" stroke-linecap="butt" stroke-opacity="1.0" stroke="rgb(0, 0, 0)" stroke-linejoin="round" d=" M 177.939, 153.261 177.941, 143.261 177.943, 133.261 177.945, 123.261 177.947, 113.261 177.949, 103.261 177.950, 94.036 " />
            <path fill="none" stroke-width="3.0" stroke-linecap="butt" stroke-opacity="1.0" stroke="rgb(0, 0, 0)" stroke-linejoin="round" d=" M 177.551, 93.438 170.293, 97.821 170.292, 100.107 170.292, 100.594 170.291, 110.594 170.289, 120.594 170.287, 130.594 170.286, 140.594 170.285, 146.491 170.285, 146.937 170.284, 149.028 177.939, 153.261 179.243, 153.261 " />
            <path fill="none" stroke-width="3.0" stroke-linecap="butt" stroke-opacity="1.0" stroke="rgb(0, 0, 0)" stroke-linejoin="round" d=" M 73.474, 153.235 74.196, 153.235 81.834, 149.010 81.833, 146.920 81.833, 146.473 81.832, 136.473 81.830, 126.473 81.829, 116.473 81.827, 106.473 81.826, 100.614 81.826, 100.125 81.826, 97.842 75.401, 93.959 " />
            <path fill="none" stroke-width="3.0" stroke-linecap="butt" stroke-opacity="1.0" stroke="rgb(0, 0, 0)" stroke-linejoin="round" d=" M 74.196, 153.235 74.194, 143.235 74.193, 133.235 74.191, 123.235 74.189, 113.235 74.187, 103.235 74.186, 95.963 " />
            <path fill="none" stroke-width="3.0" stroke-linecap="butt" stroke-opacity="1.0" stroke="rgb(0, 0, 0)" stroke-linejoin="round" d=" M 179.255, 96.253 179.252, 106.253 179.250, 116.253 179.248, 126.253 179.246, 136.253 179.244, 146.253 179.244, 150.931 179.243, 153.261 179.243, 153.982 179.410, 154.074 " />
            <path fill="none" stroke-width="3.0" stroke-linecap="butt" stroke-opacity="1.0" stroke="rgb(0, 0, 0)" stroke-linejoin="round" d=" M 264.419, 40.969 255.859, 46.139 247.299, 51.309 238.739, 56.479 231.321, 60.960 231.320, 63.969 231.318, 67.557 231.314, 77.557 231.311, 87.557 231.307, 97.557 231.303, 107.557 231.299, 117.557 231.295, 127.556 231.291, 137.556 231.287, 147.556 231.283, 157.556 231.279, 167.556 231.276, 176.719 231.274, 180.000 231.273, 182.753 240.025, 187.592 248.776, 192.431 257.527, 197.270 266.278, 202.109 269.281, 203.770 " />
            <path fill="none" stroke-width="3.0" stroke-linecap="butt" stroke-opacity="1.0" stroke="rgb(0, 0, 0)" stroke-linejoin="round" d=" M -14.484, 202.301 -5.734, 197.460 3.016, 192.618 11.766, 187.777 20.516, 182.936 21.036, 182.648 21.035, 179.901 21.034, 176.622 21.030, 166.622 21.026, 156.622 21.022, 146.622 21.019, 136.622 21.015, 126.622 21.011, 116.622 21.007, 106.622 21.003, 96.622 20.999, 86.622 20.996, 76.622 20.992, 67.662 20.991, 64.078 20.990, 61.074 12.431, 55.902 3.873, 50.729 -4.685, 45.557 -9.856, 42.432 " />
            <path fill="none" stroke-width="3.0" stroke-linecap="butt" stroke-opacity="1.0" stroke="rgb(0, 0, 0)" stroke-linejoin="round" d=" M 21.035, 179.901 25.998, 179.903 34.748, 175.062 38.437, 173.021 47.187, 168.179 51.015, 166.061 51.013, 156.061 51.010, 146.061 51.007, 136.061 51.005, 126.061 51.002, 116.061 50.999, 106.061 50.996, 96.061 50.994, 86.061 50.992, 79.206 42.433, 74.034 40.980, 73.156 32.422, 67.983 25.956, 64.075 20.991, 64.078 " />
            <path fill="none" stroke-width="3.0" stroke-linecap="butt" stroke-opacity="1.0" stroke="rgb(0, 0, 0)" stroke-linejoin="round" d=" M 25.998, 179.903 25.994, 169.903 25.990, 159.903 25.987, 149.903 25.983, 139.903 25.980, 129.903 25.976, 119.903 25.972, 109.903 25.969, 99.903 25.965, 89.903 25.961, 79.903 25.958, 69.903 25.956, 64.075 " />
            <path fill="none" stroke-width="3.0" stroke-linecap="butt" stroke-opacity="1.0" stroke="rgb(0, 0, 0)" stroke-linejoin="round" d=" M 231.320, 63.969 226.335, 63.972 217.775, 69.142 212.083, 72.580 203.523, 77.750 201.208, 79.148 201.205, 89.148 201.203, 99.148 201.200, 109.148 201.197, 119.148 201.194, 129.148 201.191, 139.148 201.189, 149.148 201.186, 159.148 201.184, 166.114 209.935, 170.954 214.718, 173.599 223.470, 178.438 226.291, 179.998 231.274, 180.000 " />
            <path fill="none" stroke-width="3.0" stroke-linecap="butt" stroke-opacity="1.0" stroke="rgb(0, 0, 0)" stroke-linejoin="round" d=" M 226.291, 179.998 226.295, 169.998 226.299, 159.998 226.303, 149.998 226.306, 139.998 226.307, 138.696 226.310, 128.696 226.314, 118.696 226.317, 112.022 226.320, 102.022 226.324, 92.022 226.328, 82.022 226.332, 72.022 226.335, 63.972 " />
            <path fill="none" stroke-width="3.0" stroke-linecap="butt" stroke-opacity="1.0" stroke="rgb(0, 0, 0)" stroke-linejoin="round" d=" M 129.723, 150.996 126.287, 151.221 122.851, 150.995 119.474, 150.322 116.214, 149.215 113.127, 147.692 110.264, 145.779 107.676, 143.508 105.406, 140.920 103.494, 138.057 103.094, 137.247 103.028, 137.113 102.665, 136.376 102.607, 136.258 102.572, 136.189 102.432, 135.904 102.194, 135.421 101.971, 134.970 101.743, 134.299 100.864, 131.710 100.365, 129.201 100.193, 128.333 99.967, 124.898 100.192, 121.462 100.365, 120.594 100.863, 118.085 101.742, 115.496 101.969, 114.825 102.192, 114.373 102.430, 113.890 103.026, 112.681 103.253, 112.220 103.473, 111.774 103.492, 111.737 103.553, 111.645 103.873, 111.166 105.404, 108.874 107.674, 106.284 110.262, 104.013 113.125, 102.100 116.213, 100.576 119.473, 99.468 122.851, 98.796 126.287, 98.570 129.724, 98.794 133.102, 99.465 136.363, 100.572 139.453, 102.095 142.317, 104.008 144.907, 106.279 147.178, 108.868 148.566, 110.945 149.030, 111.640 149.055, 111.677 149.092, 111.732 149.110, 111.769 149.224, 112.000 149.651, 112.865 149.889, 113.349 150.341, 114.266 150.615, 114.821 151.719, 118.074 151.722, 118.083 152.394, 121.461 152.484, 122.833 152.619, 124.898 152.483, 126.963 152.393, 128.335 151.721, 131.713 151.718, 131.721 150.613, 134.974 150.339, 135.528 149.912, 136.394 149.471, 137.288 149.089, 138.063 147.175, 140.926 144.904, 143.514 142.314, 145.785 139.450, 147.697 136.361, 149.219 133.100, 150.325 129.723, 150.996 " />
            <path fill="none" stroke-width="3.0" stroke-linecap="butt" stroke-opacity="1.0" stroke="rgb(0, 0, 0)" stroke-linejoin="round" d=" M 128.911, 145.183 126.230, 145.358 123.550, 145.182 120.915, 144.658 118.372, 143.794 115.963, 142.606 113.730, 141.113 111.711, 139.342 109.940, 137.323 108.448, 135.089 108.136, 134.457 108.117, 134.418 108.076, 134.336 107.808, 133.792 107.406, 132.977 107.260, 132.680 107.080, 132.149 106.397, 130.137 106.309, 129.695 106.273, 129.513 106.143, 128.860 105.873, 127.503 105.697, 124.823 105.872, 122.143 106.142, 120.786 106.272, 120.132 106.308, 119.951 106.396, 119.508 107.079, 117.496 107.259, 116.965 107.405, 116.668 108.205, 115.046 108.354, 114.744 108.447, 114.555 108.505, 114.469 108.744, 114.110 109.939, 112.322 111.709, 110.302 113.729, 108.530 115.962, 107.038 118.371, 105.849 120.915, 104.985 123.550, 104.460 126.230, 104.284 128.911, 104.459 131.547, 104.983 134.091, 105.846 136.501, 107.034 138.735, 108.527 140.755, 110.298 142.527, 112.318 143.609, 113.938 143.721, 114.105 143.870, 114.328 143.962, 114.466 144.020, 114.552 144.669, 115.870 144.997, 116.535 145.208, 116.962 145.768, 118.611 145.805, 118.722 145.934, 119.101 146.072, 119.506 146.596, 122.142 146.771, 124.823 146.595, 127.504 146.071, 130.139 145.933, 130.544 145.804, 130.924 145.767, 131.034 145.207, 132.683 144.996, 133.110 144.668, 133.775 144.658, 133.795 144.390, 134.339 144.349, 134.421 144.246, 134.630 144.018, 135.093 142.525, 137.326 140.753, 139.346 138.733, 141.117 136.499, 142.609 134.089, 143.797 131.546, 144.660 128.911, 145.183 " />
            <path fill="none" stroke-width="3.0" stroke-linecap="butt" stroke-opacity="1.0" stroke="rgb(0, 0, 0)" stroke-linejoin="round" d=" M 157.436, 105.750 157.436, 106.789 157.436, 107.554 157.435, 110.851 157.434, 120.851 157.433, 130.851 157.432, 138.793 157.432, 140.120 157.432, 140.821 157.431, 141.921 158.492, 142.507 " />
            <path fill="none" stroke-width="3.0" stroke-linecap="butt" stroke-opacity="1.0" stroke="rgb(0, 0, 0)" stroke-linejoin="round" d=" M 94.152, 142.194 94.662, 141.912 94.662, 140.812 94.662, 140.111 94.662, 138.008 94.661, 128.008 94.660, 118.008 94.659, 111.636 94.659, 107.565 94.659, 106.828 " />
            <path fill="none" stroke-width="3.0" stroke-linecap="butt" stroke-opacity="1.0" stroke="rgb(0, 0, 0)" stroke-linejoin="round" d=" M 128.026, 138.849 126.169, 138.971 124.311, 138.849 122.486, 138.486 120.723, 137.887 119.054, 137.064 117.507, 136.030 116.107, 134.802 114.880, 133.403 113.846, 131.855 113.023, 130.186 112.425, 128.424 112.062, 126.598 111.940, 124.741 112.061, 122.884 112.424, 121.058 113.023, 119.296 113.846, 117.626 114.880, 116.079 116.107, 114.679 117.506, 113.452 119.053, 112.417 120.723, 111.594 122.485, 110.995 124.311, 110.632 126.169, 110.510 128.026, 110.631 129.852, 110.994 131.615, 111.593 133.285, 112.416 134.833, 113.450 136.232, 114.677 137.460, 116.077 138.494, 117.625 139.318, 119.295 139.916, 121.058 140.279, 122.883 140.401, 124.741 140.279, 126.599 139.916, 128.425 139.317, 130.187 138.494, 131.857 137.459, 133.405 136.232, 134.804 134.832, 136.031 133.284, 137.065 131.614, 137.888 129.852, 138.486 128.026, 138.849 " />
            <path fill="none" stroke-width="3.0" stroke-linecap="butt" stroke-opacity="1.0" stroke="rgb(0, 0, 0)" stroke-linejoin="round" d=" M 128.385, 141.418 126.194, 141.562 124.002, 141.418 121.849, 140.989 119.770, 140.283 117.800, 139.312 115.975, 138.091 114.324, 136.644 112.876, 134.993 111.657, 133.167 110.686, 131.198 109.980, 129.119 109.551, 126.965 109.408, 124.774 109.551, 122.583 109.979, 120.430 110.685, 118.350 111.656, 116.381 112.876, 114.555 114.323, 112.904 115.974, 111.456 117.800, 110.235 119.769, 109.264 121.848, 108.558 124.002, 108.129 126.194, 107.985 128.385, 108.128 130.539, 108.556 132.619, 109.262 134.589, 110.233 136.415, 111.453 138.067, 112.901 139.515, 114.553 140.735, 116.379 141.707, 118.349 142.413, 120.428 142.736, 122.053 142.841, 122.583 142.984, 124.774 142.841, 126.966 142.735, 127.496 142.412, 129.120 141.706, 131.200 140.734, 133.169 139.514, 134.995 138.065, 136.646 136.414, 138.094 134.588, 139.314 132.618, 140.285 130.539, 140.990 128.385, 141.418 " />
            <path fill="none" stroke-width="3.0" stroke-linecap="butt" stroke-opacity="1.0" stroke="rgb(0, 0, 0)" stroke-linejoin="round" d=" M 72.895, 152.062 72.895, 150.905 72.893, 140.905 72.891, 130.905 72.889, 120.905 72.887, 110.905 72.885, 100.905 72.885, 98.604 " />
            <path fill="none" stroke-width="3.0" stroke-linecap="butt" stroke-opacity="1.0" stroke="rgb(0, 0, 0)" stroke-linejoin="round" d=" M 90.408, 131.257 90.407, 121.257 90.406, 118.803 " />
            <path fill="none" stroke-width="3.0" stroke-linecap="butt" stroke-opacity="1.0" stroke="rgb(0, 0, 0)" stroke-linejoin="round" d=" M 90.998, 134.222 90.997, 124.222 90.996, 115.839 " />
            <path fill="none" stroke-width="3.0" stroke-linecap="butt" stroke-opacity="1.0" stroke="rgb(0, 0, 0)" stroke-linejoin="round" d=" M 101.743, 134.299 101.743, 124.299 101.742, 115.496 " />
            <path fill="none" stroke-width="3.0" stroke-linecap="butt" stroke-opacity="1.0" stroke="rgb(0, 0, 0)" stroke-linejoin="round" d=" M 106.273, 129.513 106.272, 120.132 " />
            <path fill="none" stroke-width="3.0" stroke-linecap="butt" stroke-opacity="1.0" stroke="rgb(0, 0, 0)" stroke-linejoin="round" d=" M 142.736, 122.053 142.735, 127.496 " />
            <path fill="none" stroke-width="3.0" stroke-linecap="butt" stroke-opacity="1.0" stroke="rgb(0, 0, 0)" stroke-linejoin="round" d=" M 145.805, 118.722 145.804, 128.722 145.804, 130.924 " />
            <path fill="none" stroke-width="3.0" stroke-linecap="butt" stroke-opacity="1.0" stroke="rgb(0, 0, 0)" stroke-linejoin="round" d=" M 150.341, 114.266 150.341, 124.266 150.340, 134.266 150.339, 135.528 " />
            <path fill="none" stroke-width="3.0" stroke-linecap="butt" stroke-opacity="1.0" stroke="rgb(0, 0, 0)" stroke-linejoin="round" d=" M 152.483, 126.963 152.484, 122.833 " />
            <path fill="none" stroke-width="3.0" stroke-linecap="butt" stroke-opacity="1.0" stroke="rgb(0, 0, 0)" stroke-linejoin="round" d=" M 161.102, 136.393 161.103, 126.393 161.105, 116.393 161.105, 113.668 " />
            <path fill="none" stroke-width="3.0" stroke-linecap="butt" stroke-opacity="1.0" stroke="rgb(0, 0, 0)" stroke-linejoin="round" d=" M 161.696, 115.407 161.694, 125.407 161.693, 134.654 " />
        </g>
    </g>
</svg>
