<?xml version='1.0' encoding='ascii'?>
<svg xmlns="http://www.w3.org/2000/svg" version="1.1" width="250" height="250">
    <g id="ViewLayer_LineSet" xmlns:inkscape="http://www.inkscape.org/namespaces/inkscape" inkscape:groupmode="lineset" inkscape:label="ViewLayer_LineSet">
        <g xmlns:inkscape="http://www.inkscape.org/namespaces/inkscape" inkscape:groupmode="layer" id="strokes" inkscape:label="strokes">
            <path fill="none" stroke-width="3.0" stroke-linecap="butt" stroke-opacity="1.0" stroke="rgb(0, 0, 0)" stroke-linejoin="round" d=" M 69.293, 155.516 70.261, 157.478 74.972, 164.530 80.562, 170.908 86.938, 176.502 93.988, 181.216 101.594, 184.971 109.626, 187.701 117.945, 189.360 126.410, 189.920 134.877, 189.370 143.200, 187.719 151.236, 184.997 158.850, 181.248 165.909, 176.537 172.294, 170.944 177.894, 164.566 182.614, 157.510 183.584, 155.546 " />
            <path fill="none" stroke-width="3.0" stroke-linecap="butt" stroke-opacity="1.0" stroke="rgb(0, 0, 0)" stroke-linejoin="round" d=" M 131.490, 163.649 126.410, 163.980 121.330, 163.645 116.338, 162.651 111.518, 161.013 106.953, 158.761 102.722, 155.932 98.895, 152.575 95.540, 148.748 92.713, 144.516 92.122, 143.318 91.827, 142.721 90.461, 139.951 89.399, 136.821 89.163, 136.125 88.825, 135.131 88.509, 133.541 87.832, 130.140 87.499, 125.061 87.831, 119.982 88.507, 116.580 88.823, 114.989 89.160, 113.995 89.396, 113.300 90.458, 110.169 91.816, 107.412 92.356, 106.317 92.500, 106.025 92.708, 105.603 93.195, 104.874 95.535, 101.369 98.890, 97.541 102.717, 94.183 106.949, 91.353 111.515, 89.099 116.336, 87.461 121.329, 86.465 126.411, 86.131 131.492, 86.462 136.487, 87.454 141.310, 89.090 145.879, 91.342 150.114, 94.170 153.944, 97.528 157.303, 101.357 159.355, 104.428 159.538, 104.701 160.133, 105.592 162.386, 110.160 162.706, 111.103 162.944, 111.806 163.599, 113.734 164.023, 114.983 165.016, 119.979 165.348, 125.061 165.014, 130.143 164.020, 135.138 163.596, 136.387 162.941, 138.315 162.702, 139.018 162.381, 139.961 161.014, 142.732 160.560, 143.651 160.128, 144.528 157.297, 148.761 153.938, 152.589 150.108, 155.945 145.874, 158.772 141.306, 161.022 136.484, 162.657 131.490, 163.649 " />
            <path fill="none" stroke-width="3.0" stroke-linecap="butt" stroke-opacity="1.0" stroke="rgb(0, 0, 0)" stroke-linejoin="round" d=" M 181.564, 91.013 177.910, 85.545 172.310, 79.162 165.925, 73.566 158.864, 68.851 151.248, 65.099 143.208, 62.374 134.881, 60.722 126.411, 60.171 117.942, 60.731 109.619, 62.392 101.584, 65.124 93.976, 68.882 86.923, 73.600 80.548, 79.198 74.957, 85.579 71.099, 91.359 " />
            <path fill="none" stroke-width="3.0" stroke-linecap="butt" stroke-opacity="1.0" stroke="rgb(0, 0, 0)" stroke-linejoin="round" d=" M 28.563, 178.484 29.954, 181.307 35.508, 189.622 38.071, 193.459 44.662, 200.979 47.703, 204.449 55.218, 211.046 58.686, 214.090 66.998, 219.651 70.834, 222.217 79.800, 226.646 83.939, 228.691 93.406, 231.912 97.778, 233.400 107.584, 235.360 112.115, 236.265 122.092, 236.928 126.704, 237.235 136.683, 236.591 141.297, 236.293 151.107, 234.352 155.644, 233.454 165.117, 230.250 169.500, 228.767 178.473, 224.353 182.627, 222.310 190.947, 216.763 194.801, 214.194 202.326, 207.608 205.812, 204.557 212.413, 197.045 215.472, 193.563 221.035, 185.254 223.614, 181.401 224.733, 179.136 " />
            <path fill="none" stroke-width="3.0" stroke-linecap="butt" stroke-opacity="1.0" stroke="rgb(0, 0, 0)" stroke-linejoin="round" d=" M 135.392, 191.576 126.682, 192.142 117.974, 191.566 109.416, 189.860 101.154, 187.051 93.330, 183.188 86.077, 178.338 79.519, 172.584 73.767, 166.023 68.921, 158.769 67.908, 156.714 67.732, 156.356 67.317, 155.515 66.586, 154.033 65.063, 150.944 63.599, 146.631 62.258, 142.683 61.902, 140.894 60.555, 134.126 59.983, 125.420 60.551, 116.714 61.895, 109.945 62.250, 108.156 63.589, 104.207 65.052, 99.892 68.304, 93.289 68.542, 92.805 68.908, 92.064 69.797, 90.732 73.752, 84.806 79.503, 78.241 86.062, 72.482 93.317, 67.629 101.144, 63.763 109.409, 60.952 117.971, 59.243 126.683, 58.667 135.397, 59.234 143.963, 60.933 152.234, 63.736 160.069, 67.596 167.333, 72.446 173.902, 78.204 179.662, 84.770 183.608, 90.673 183.625, 90.699 184.516, 92.032 184.851, 92.712 188.380, 99.866 188.571, 100.429 190.269, 105.435 191.187, 108.138 192.890, 116.705 193.459, 125.422 192.885, 134.137 191.178, 142.703 190.260, 145.406 188.559, 150.409 188.368, 150.972 186.590, 154.572 186.109, 155.546 185.693, 156.388 185.243, 157.300 184.501, 158.803 179.646, 166.061 173.885, 172.623 167.316, 178.376 160.054, 183.222 152.222, 187.078 143.954, 189.879 135.392, 191.576 " />
            <path fill="none" stroke-width="3.0" stroke-linecap="butt" stroke-opacity="1.0" stroke="rgb(0, 0, 0)" stroke-linejoin="round" d=" M 221.804, 66.708 216.247, 58.395 215.517, 57.303 208.921, 49.787 205.859, 46.297 198.338, 39.707 194.846, 36.648 186.529, 31.097 182.668, 28.521 173.696, 24.104 169.534, 22.055 160.062, 18.847 155.668, 17.360 145.859, 15.417 141.310, 14.516 131.331, 13.871 126.705, 13.573 116.727, 14.236 112.104, 14.544 102.298, 16.505 97.757, 17.413 88.291, 20.637 83.908, 22.129 74.944, 26.561 70.796, 28.612 62.487, 34.176 58.643, 36.750 51.131, 43.351 47.658, 46.403 41.072, 53.927 38.027, 57.405 32.479, 65.724 31.389, 67.359 " />
            <path fill="none" stroke-width="3.0" stroke-linecap="butt" stroke-opacity="1.0" stroke="rgb(0, 0, 0)" stroke-linejoin="round" d=" M 183.608, 90.699 182.084, 90.700 181.564, 91.013 173.262, 96.028 173.262, 98.615 173.261, 98.987 173.260, 108.987 173.258, 118.987 173.256, 128.987 173.254, 138.987 173.253, 147.962 173.253, 148.302 173.252, 150.669 182.070, 155.545 183.584, 155.546 183.594, 155.546 " />
            <path fill="none" stroke-width="3.0" stroke-linecap="butt" stroke-opacity="1.0" stroke="rgb(0, 0, 0)" stroke-linejoin="round" d=" M 182.070, 155.545 182.072, 145.545 182.075, 135.545 182.077, 125.545 182.079, 115.545 182.081, 105.545 182.083, 95.545 182.084, 91.791 182.084, 90.700 " />
            <path fill="none" stroke-width="3.0" stroke-linecap="butt" stroke-opacity="1.0" stroke="rgb(0, 0, 0)" stroke-linejoin="round" d=" M 68.555, 155.515 69.293, 155.516 70.075, 155.516 78.872, 150.648 78.872, 148.283 78.872, 147.941 78.870, 137.941 78.868, 127.941 78.867, 117.941 78.865, 107.941 78.863, 99.009 78.863, 98.636 78.863, 96.051 71.099, 91.359 70.062, 90.732 69.797, 90.732 " />
            <path fill="none" stroke-width="3.0" stroke-linecap="butt" stroke-opacity="1.0" stroke="rgb(0, 0, 0)" stroke-linejoin="round" d=" M 70.075, 155.516 70.073, 145.516 70.071, 135.516 70.069, 125.516 70.067, 115.516 70.065, 105.516 70.063, 95.516 70.062, 93.012 70.062, 90.732 " />
            <path fill="none" stroke-width="3.0" stroke-linecap="butt" stroke-opacity="1.0" stroke="rgb(0, 0, 0)" stroke-linejoin="round" d=" M 67.908, 156.714 68.556, 156.356 68.555, 155.515 68.555, 154.019 68.555, 153.057 68.553, 143.057 68.551, 133.057 68.549, 123.057 68.547, 113.057 68.545, 103.057 68.543, 96.096 68.543, 93.418 68.542, 92.805 " />
            <path fill="none" stroke-width="3.0" stroke-linecap="butt" stroke-opacity="1.0" stroke="rgb(0, 0, 0)" stroke-linejoin="round" d=" M 183.608, 90.673 183.608, 90.699 183.607, 93.386 183.607, 94.590 183.605, 104.590 183.602, 114.590 183.600, 124.590 183.598, 134.590 183.596, 144.590 183.594, 153.087 183.594, 155.526 183.594, 155.546 183.593, 156.388 185.243, 157.300 " />
            <path fill="none" stroke-width="3.0" stroke-linecap="butt" stroke-opacity="1.0" stroke="rgb(0, 0, 0)" stroke-linejoin="round" d=" M 311.377, 12.606 302.817, 17.776 294.258, 22.946 285.698, 28.116 277.138, 33.287 268.578, 38.457 260.018, 43.627 251.459, 48.797 249.835, 49.778 249.833, 53.903 249.831, 57.534 249.827, 67.534 249.822, 77.534 249.817, 87.534 249.813, 97.534 249.808, 107.534 249.804, 117.534 249.799, 127.534 249.794, 137.534 249.790, 147.534 249.785, 157.534 249.781, 167.534 249.776, 177.534 249.772, 185.886 249.771, 189.207 249.769, 192.980 258.520, 197.819 267.271, 202.658 276.022, 207.497 284.774, 212.336 293.525, 217.175 302.276, 222.015 311.027, 226.854 317.853, 230.628 " />
            <path fill="none" stroke-width="3.0" stroke-linecap="butt" stroke-opacity="1.0" stroke="rgb(0, 0, 0)" stroke-linejoin="round" d=" M -61.973, 228.576 -53.223, 223.735 -44.473, 218.894 -35.723, 214.052 -26.973, 209.211 -18.223, 204.370 -9.473, 199.529 -0.723, 194.687 2.623, 192.836 2.622, 189.071 2.620, 185.753 2.616, 175.753 2.611, 165.753 2.607, 155.753 2.602, 145.753 2.598, 135.753 2.593, 125.753 2.589, 115.753 2.584, 105.753 2.580, 95.753 2.575, 85.753 2.571, 75.753 2.566, 65.753 2.563, 57.680 2.561, 54.052 2.559, 49.935 -5.999, 44.763 -14.557, 39.590 -23.116, 34.418 -31.674, 29.246 -40.233, 24.073 -48.791, 18.901 -55.820, 14.652 " />
            <path fill="none" stroke-width="3.0" stroke-linecap="butt" stroke-opacity="1.0" stroke="rgb(0, 0, 0)" stroke-linejoin="round" d=" M 2.622, 189.071 9.422, 189.074 18.172, 184.233 26.922, 179.392 28.563, 178.484 37.312, 173.643 42.065, 171.013 42.062, 161.013 42.059, 151.013 42.056, 141.013 42.053, 131.013 42.050, 121.013 42.046, 111.013 42.043, 101.013 42.040, 91.013 42.037, 81.013 42.035, 73.793 33.477, 68.621 31.389, 67.359 22.830, 62.187 14.272, 57.014 9.364, 54.048 2.561, 54.052 " />
            <path fill="none" stroke-width="3.0" stroke-linecap="butt" stroke-opacity="1.0" stroke="rgb(0, 0, 0)" stroke-linejoin="round" d=" M 9.422, 189.074 9.417, 179.074 9.413, 169.074 9.409, 159.074 9.405, 149.074 9.400, 139.074 9.396, 129.074 9.392, 119.074 9.388, 109.074 9.383, 99.074 9.379, 89.074 9.375, 79.074 9.371, 69.074 9.366, 59.074 9.364, 54.048 " />
            <path fill="none" stroke-width="3.0" stroke-linecap="butt" stroke-opacity="1.0" stroke="rgb(0, 0, 0)" stroke-linejoin="round" d=" M 249.833, 53.903 242.998, 53.908 234.438, 59.078 225.878, 64.248 221.804, 66.708 213.244, 71.879 210.195, 73.721 210.192, 83.721 210.188, 93.721 210.185, 103.721 210.182, 113.721 210.179, 123.721 210.176, 133.721 210.173, 143.721 210.170, 153.721 210.166, 163.721 210.164, 171.080 218.915, 175.919 224.733, 179.136 233.484, 183.975 242.236, 188.814 242.939, 189.203 249.771, 189.207 " />
            <path fill="none" stroke-width="3.0" stroke-linecap="butt" stroke-opacity="1.0" stroke="rgb(0, 0, 0)" stroke-linejoin="round" d=" M 242.939, 189.203 242.943, 179.203 242.947, 169.203 242.952, 159.203 242.956, 149.203 242.960, 139.203 242.965, 129.203 242.969, 119.203 242.974, 109.203 242.978, 99.203 242.982, 89.203 242.987, 79.203 242.991, 69.203 242.995, 59.203 242.998, 53.908 " />
            <path fill="none" stroke-width="3.0" stroke-linecap="butt" stroke-opacity="1.0" stroke="rgb(0, 0, 0)" stroke-linejoin="round" d=" M 129.889, 152.187 126.299, 152.421 122.708, 152.185 119.179, 151.482 115.772, 150.325 112.546, 148.733 109.555, 146.734 106.850, 144.362 104.478, 141.656 102.479, 138.665 102.010, 137.713 101.533, 136.746 101.448, 136.573 100.888, 135.438 100.875, 135.401 99.732, 132.032 99.498, 130.859 99.030, 128.503 98.794, 124.913 99.029, 121.323 99.497, 118.967 99.730, 117.794 100.873, 114.425 100.886, 114.387 101.446, 113.252 101.699, 112.738 102.228, 111.665 102.249, 111.622 102.369, 111.378 102.437, 111.241 102.477, 111.160 102.875, 110.563 104.475, 108.167 106.847, 105.462 109.552, 103.088 112.544, 101.089 115.771, 99.496 119.178, 98.338 122.708, 97.636 126.299, 97.399 129.890, 97.634 133.420, 98.335 136.829, 99.492 140.057, 101.083 143.050, 103.082 145.757, 105.455 148.130, 108.161 149.581, 110.332 149.834, 110.710 150.130, 111.154 150.170, 111.235 150.238, 111.372 150.268, 111.434 150.383, 111.667 150.636, 112.181 151.211, 113.346 151.722, 114.382 152.588, 116.932 152.879, 117.791 153.517, 120.996 153.581, 121.321 153.816, 124.913 153.581, 128.505 153.516, 128.830 152.878, 132.035 152.586, 132.894 151.720, 135.443 151.209, 136.480 150.988, 136.927 150.598, 137.718 150.128, 138.671 148.127, 141.663 145.754, 144.368 143.047, 146.740 140.055, 148.739 136.827, 150.330 133.419, 151.486 129.889, 152.187 " />
            <path fill="none" stroke-width="3.0" stroke-linecap="butt" stroke-opacity="1.0" stroke="rgb(0, 0, 0)" stroke-linejoin="round" d=" M 129.011, 145.900 126.237, 146.082 123.464, 145.899 120.738, 145.357 118.106, 144.463 115.613, 143.233 113.302, 141.689 111.213, 139.856 109.381, 137.767 107.837, 135.456 107.514, 134.801 107.451, 134.674 107.409, 134.588 107.127, 134.016 106.954, 133.666 106.607, 132.963 106.555, 132.810 105.801, 130.587 105.714, 130.331 105.702, 130.271 105.626, 129.888 105.172, 127.605 104.990, 124.832 105.171, 122.059 105.625, 119.775 105.701, 119.393 105.713, 119.333 105.800, 119.077 106.554, 116.854 106.606, 116.701 106.953, 115.998 107.741, 114.398 107.827, 114.224 107.835, 114.208 107.898, 114.113 108.143, 113.747 109.379, 111.896 111.211, 109.806 113.301, 107.973 115.612, 106.428 118.105, 105.198 120.737, 104.304 123.463, 103.761 126.237, 103.579 129.012, 103.760 131.738, 104.302 134.371, 105.196 136.865, 106.425 139.177, 107.969 141.267, 109.802 143.101, 111.893 144.239, 113.596 144.334, 113.738 144.645, 114.204 144.653, 114.220 145.122, 115.171 145.522, 115.983 145.875, 116.698 146.277, 117.880 146.377, 118.175 146.451, 118.396 146.769, 119.331 147.311, 122.058 147.493, 124.832 147.311, 127.606 146.768, 130.333 146.450, 131.268 146.376, 131.489 146.275, 131.783 145.874, 132.966 145.521, 133.681 145.308, 134.112 145.072, 134.591 145.029, 134.678 144.880, 134.981 144.644, 135.459 143.099, 137.770 141.266, 139.860 139.175, 141.693 136.863, 143.237 134.370, 144.466 131.737, 145.359 129.011, 145.900 " />
            <path fill="none" stroke-width="3.0" stroke-linecap="butt" stroke-opacity="1.0" stroke="rgb(0, 0, 0)" stroke-linejoin="round" d=" M 159.355, 104.428 158.902, 104.701 158.902, 106.014 158.902, 106.761 158.901, 111.131 158.900, 121.131 158.899, 131.131 158.898, 138.532 158.898, 140.847 158.897, 141.530 158.897, 142.732 160.560, 143.651 " />
            <path fill="none" stroke-width="3.0" stroke-linecap="butt" stroke-opacity="1.0" stroke="rgb(0, 0, 0)" stroke-linejoin="round" d=" M 92.122, 143.318 93.199, 142.721 93.199, 141.521 93.199, 140.837 93.198, 137.420 93.197, 127.420 93.196, 117.420 93.195, 112.243 93.195, 106.772 93.195, 106.025 93.195, 104.874 " />
            <path fill="none" stroke-width="3.0" stroke-linecap="butt" stroke-opacity="1.0" stroke="rgb(0, 0, 0)" stroke-linejoin="round" d=" M 128.074, 139.190 126.172, 139.315 124.270, 139.190 122.401, 138.818 120.597, 138.205 118.888, 137.362 117.303, 136.303 115.871, 135.047 114.614, 133.614 113.556, 132.029 112.713, 130.320 112.100, 128.516 111.729, 126.647 111.604, 124.745 111.728, 122.844 112.100, 120.975 112.712, 119.170 113.555, 117.461 114.614, 115.877 115.870, 114.444 117.303, 113.187 118.887, 112.128 120.596, 111.285 122.401, 110.672 124.270, 110.300 126.172, 110.175 128.074, 110.299 129.943, 110.671 131.748, 111.283 133.458, 112.126 135.043, 113.185 136.476, 114.442 137.733, 115.875 138.792, 117.460 139.635, 119.169 140.247, 120.974 140.619, 122.844 140.744, 124.746 140.619, 126.647 140.247, 128.517 139.634, 130.322 138.791, 132.031 137.732, 133.616 136.475, 135.048 135.042, 136.305 133.457, 137.364 131.747, 138.206 129.943, 138.819 128.074, 139.190 " />
            <path fill="none" stroke-width="3.0" stroke-linecap="butt" stroke-opacity="1.0" stroke="rgb(0, 0, 0)" stroke-linejoin="round" d=" M 128.451, 141.895 126.198, 142.042 123.945, 141.894 121.731, 141.453 119.593, 140.727 117.568, 139.728 115.691, 138.474 113.993, 136.985 112.505, 135.288 111.251, 133.410 110.252, 131.385 109.526, 129.248 109.086, 127.033 108.938, 124.780 109.086, 122.527 109.526, 120.313 110.251, 118.175 111.250, 116.150 112.504, 114.272 113.992, 112.574 115.690, 111.085 117.567, 109.831 119.592, 108.832 121.730, 108.105 123.945, 107.665 126.198, 107.517 128.452, 107.664 130.667, 108.104 132.805, 108.830 134.831, 109.829 136.709, 111.083 138.407, 112.572 139.896, 114.270 141.151, 116.148 142.150, 118.173 142.876, 120.312 143.142, 121.650 143.316, 122.527 143.464, 124.780 143.316, 127.034 143.141, 127.911 142.875, 129.249 142.149, 131.387 141.150, 133.413 139.895, 135.290 138.406, 136.988 136.708, 138.476 134.830, 139.731 132.804, 140.729 130.666, 141.454 128.451, 141.895 " />
            <path fill="none" stroke-width="3.0" stroke-linecap="butt" stroke-opacity="1.0" stroke="rgb(0, 0, 0)" stroke-linejoin="round" d=" M 88.509, 133.541 88.508, 123.541 88.507, 116.580 " />
            <path fill="none" stroke-width="3.0" stroke-linecap="butt" stroke-opacity="1.0" stroke="rgb(0, 0, 0)" stroke-linejoin="round" d=" M 89.163, 136.125 89.161, 126.125 89.160, 116.125 89.160, 113.995 " />
            <path fill="none" stroke-width="3.0" stroke-linecap="butt" stroke-opacity="1.0" stroke="rgb(0, 0, 0)" stroke-linejoin="round" d=" M 100.875, 135.401 100.874, 125.401 100.874, 115.401 100.873, 114.425 " />
            <path fill="none" stroke-width="3.0" stroke-linecap="butt" stroke-opacity="1.0" stroke="rgb(0, 0, 0)" stroke-linejoin="round" d=" M 105.702, 130.271 105.701, 120.271 105.701, 119.393 " />
            <path fill="none" stroke-width="3.0" stroke-linecap="butt" stroke-opacity="1.0" stroke="rgb(0, 0, 0)" stroke-linejoin="round" d=" M 143.142, 121.650 143.141, 127.911 " />
            <path fill="none" stroke-width="3.0" stroke-linecap="butt" stroke-opacity="1.0" stroke="rgb(0, 0, 0)" stroke-linejoin="round" d=" M 146.377, 118.175 146.376, 128.175 146.376, 131.489 " />
            <path fill="none" stroke-width="3.0" stroke-linecap="butt" stroke-opacity="1.0" stroke="rgb(0, 0, 0)" stroke-linejoin="round" d=" M 151.211, 113.346 151.210, 123.346 151.209, 133.346 151.209, 136.480 " />
            <path fill="none" stroke-width="3.0" stroke-linecap="butt" stroke-opacity="1.0" stroke="rgb(0, 0, 0)" stroke-linejoin="round" d=" M 153.516, 128.830 153.517, 120.996 " />
            <path fill="none" stroke-width="3.0" stroke-linecap="butt" stroke-opacity="1.0" stroke="rgb(0, 0, 0)" stroke-linejoin="round" d=" M 162.941, 138.315 162.942, 128.315 162.943, 118.315 162.944, 111.806 " />
            <path fill="none" stroke-width="3.0" stroke-linecap="butt" stroke-opacity="1.0" stroke="rgb(0, 0, 0)" stroke-linejoin="round" d=" M 163.599, 113.734 163.597, 123.734 163.596, 133.734 163.596, 136.387 " />
        </g>
    </g>
</svg>
