<?xml version='1.0' encoding='ascii'?>
<svg xmlns="http://www.w3.org/2000/svg" version="1.1" width="250" height="250">
    <g id="ViewLayer_LineSet" xmlns:inkscape="http://www.inkscape.org/namespaces/inkscape" inkscape:groupmode="lineset" inkscape:label="ViewLayer_LineSet">
        <g xmlns:inkscape="http://www.inkscape.org/namespaces/inkscape" inkscape:groupmode="layer" id="strokes" inkscape:label="strokes">
            <path fill="none" stroke-width="3.0" stroke-linecap="butt" stroke-opacity="1.0" stroke="rgb(0, 0, 0)" stroke-linejoin="round" d=" M 260.900, 203.500 255.334, 211.808 249.684, 220.241 243.080, 227.751 236.379, 235.372 228.852, 241.955 221.215, 248.633 212.893, 254.177 204.453, 259.799 " />
            <path fill="none" stroke-width="3.0" stroke-linecap="butt" stroke-opacity="1.0" stroke="rgb(0, 0, 0)" stroke-linejoin="round" d=" M 204.531, -6.997 212.850, -1.448 221.302, 4.190 228.825, 10.779 236.469, 17.474 243.066, 24.990 249.770, 32.628 255.328, 40.941 257.956, 44.872 " />
            <path fill="none" stroke-width="3.0" stroke-linecap="butt" stroke-opacity="1.0" stroke="rgb(0, 0, 0)" stroke-linejoin="round" d=" M -3.525, 46.258 2.021, 37.937 5.432, 32.819 12.016, 25.292 18.681, 17.673 26.191, 11.069 33.796, 4.382 42.103, -1.185 50.518, -6.825 " />
            <path fill="none" stroke-width="3.0" stroke-linecap="butt" stroke-opacity="1.0" stroke="rgb(0, 0, 0)" stroke-linejoin="round" d=" M 50.591, 259.621 42.280, 254.059 33.877, 248.435 26.363, 241.837 18.766, 235.166 12.176, 227.645 5.514, 220.042 -0.039, 211.726 -5.653, 203.320 " />
            <path fill="none" stroke-width="3.0" stroke-linecap="butt" stroke-opacity="1.0" stroke="rgb(0, 0, 0)" stroke-linejoin="round" d=" M 41.046, 171.577 42.260, 174.038 47.814, 182.354 49.337, 184.633 55.928, 192.154 57.736, 194.216 65.251, 200.812 67.313, 202.621 75.625, 208.181 77.905, 209.706 86.871, 214.135 89.332, 215.350 98.799, 218.571 101.398, 219.455 111.204, 221.413 113.898, 221.951 123.876, 222.613 126.617, 222.795 136.597, 222.149 139.340, 221.972 149.150, 220.030 151.848, 219.496 161.320, 216.290 163.927, 215.408 172.900, 210.993 175.371, 209.777 183.690, 204.229 185.982, 202.701 193.507, 196.114 195.581, 194.298 202.180, 186.785 204.000, 184.713 209.563, 176.403 211.097, 174.110 212.072, 172.135 " />
            <path fill="none" stroke-width="3.0" stroke-linecap="butt" stroke-opacity="1.0" stroke="rgb(0, 0, 0)" stroke-linejoin="round" d=" M 134.226, 183.227 126.601, 183.723 118.978, 183.219 111.485, 181.725 104.252, 179.267 97.403, 175.886 91.053, 171.640 85.311, 166.603 80.276, 160.859 76.033, 154.508 75.097, 152.609 74.084, 150.554 73.989, 150.363 72.655, 147.658 70.200, 140.425 69.458, 136.700 68.709, 132.935 68.208, 125.313 68.706, 117.691 69.454, 113.925 70.194, 110.199 72.647, 102.964 74.074, 100.067 75.318, 97.542 75.494, 97.184 76.023, 96.112 76.868, 94.845 80.264, 89.757 85.299, 84.011 91.041, 78.970 97.392, 74.722 104.244, 71.338 111.480, 68.878 118.975, 67.383 126.602, 66.879 134.230, 67.375 141.728, 68.863 148.968, 71.318 155.826, 74.697 162.184, 78.942 167.934, 83.982 172.976, 89.730 176.057, 94.340 176.815, 95.475 177.224, 96.087 177.518, 96.682 178.062, 97.786 180.606, 102.945 182.691, 109.086 183.064, 110.185 184.081, 115.304 184.554, 117.684 185.053, 125.314 184.551, 132.943 184.077, 135.322 183.057, 140.441 182.684, 141.539 180.597, 147.679 179.041, 150.831 178.151, 152.634 178.051, 152.836 177.213, 154.534 172.963, 160.888 167.920, 166.632 162.171, 171.669 155.814, 175.912 148.958, 179.288 141.721, 181.740 134.226, 183.227 " />
            <path fill="none" stroke-width="3.0" stroke-linecap="butt" stroke-opacity="1.0" stroke="rgb(0, 0, 0)" stroke-linejoin="round" d=" M 209.515, 74.131 204.035, 65.933 197.439, 58.416 195.616, 56.338 188.096, 49.748 186.017, 47.927 177.700, 42.375 175.402, 40.841 166.431, 36.424 163.953, 35.204 154.481, 31.995 151.867, 31.110 142.057, 29.166 139.350, 28.630 129.371, 27.984 126.619, 27.806 116.641, 28.468 113.890, 28.651 104.084, 30.610 101.382, 31.150 91.915, 34.373 89.308, 35.260 80.343, 39.691 77.876, 40.911 69.566, 46.474 67.280, 48.004 59.767, 54.604 57.702, 56.419 51.114, 63.942 49.304, 66.010 43.755, 74.329 43.515, 74.688 " />
            <path fill="none" stroke-width="3.0" stroke-linecap="butt" stroke-opacity="1.0" stroke="rgb(0, 0, 0)" stroke-linejoin="round" d=" M 226.755, 66.477 222.183, 66.480 213.623, 71.650 209.515, 74.131 200.955, 79.301 198.852, 80.572 198.849, 90.572 198.846, 100.572 198.843, 110.572 198.841, 120.572 198.838, 130.572 198.835, 140.572 198.833, 150.572 198.830, 160.572 198.829, 164.812 207.580, 169.651 212.072, 172.135 220.824, 176.975 222.143, 177.704 226.713, 177.706 " />
            <path fill="none" stroke-width="3.0" stroke-linecap="butt" stroke-opacity="1.0" stroke="rgb(0, 0, 0)" stroke-linejoin="round" d=" M 222.143, 177.704 222.147, 167.704 222.150, 157.704 222.154, 147.704 222.155, 144.086 222.159, 134.086 222.162, 124.086 222.166, 114.086 222.169, 106.583 222.172, 96.583 222.176, 86.583 222.179, 76.583 222.183, 66.480 " />
            <path fill="none" stroke-width="3.0" stroke-linecap="butt" stroke-opacity="1.0" stroke="rgb(0, 0, 0)" stroke-linejoin="round" d=" M 25.578, 177.615 30.129, 177.617 38.879, 172.776 41.046, 171.577 49.796, 166.736 53.363, 164.762 53.360, 154.762 53.358, 144.762 53.355, 134.762 53.353, 124.762 53.350, 114.762 53.347, 104.762 53.345, 94.762 53.342, 84.762 53.341, 80.626 44.783, 75.454 43.515, 74.688 34.957, 69.515 30.091, 66.575 25.537, 66.577 " />
            <path fill="none" stroke-width="3.0" stroke-linecap="butt" stroke-opacity="1.0" stroke="rgb(0, 0, 0)" stroke-linejoin="round" d=" M 30.129, 177.617 30.126, 167.617 30.122, 157.617 30.119, 147.617 30.116, 138.428 30.112, 128.428 30.109, 118.428 30.107, 112.240 30.103, 102.240 30.100, 92.240 30.096, 82.240 30.093, 72.240 30.091, 66.575 " />
            <path fill="none" stroke-width="3.0" stroke-linecap="butt" stroke-opacity="1.0" stroke="rgb(0, 0, 0)" stroke-linejoin="round" d=" M -7.940, 198.681 0.810, 193.839 9.560, 188.998 18.310, 184.157 25.579, 180.135 25.578, 177.615 25.576, 174.370 25.573, 164.370 25.569, 154.370 25.565, 144.370 25.562, 134.370 25.558, 124.370 25.555, 114.370 25.551, 104.370 25.547, 94.370 25.544, 84.370 25.540, 74.370 25.538, 70.125 25.537, 66.577 25.536, 63.822 16.978, 58.649 8.419, 53.477 -0.139, 48.305 -3.525, 46.258 " />
            <path fill="none" stroke-width="3.0" stroke-linecap="butt" stroke-opacity="1.0" stroke="rgb(0, 0, 0)" stroke-linejoin="round" d=" M 257.956, 44.872 249.396, 50.043 240.837, 55.213 232.277, 60.383 226.756, 63.718 226.755, 66.477 226.753, 70.028 226.750, 80.028 226.746, 90.028 226.742, 100.028 226.738, 110.028 226.735, 120.028 226.731, 130.028 226.727, 140.028 226.723, 150.028 226.720, 160.028 226.716, 170.028 226.714, 174.458 226.713, 177.706 226.712, 180.231 235.463, 185.070 244.215, 189.909 252.966, 194.748 261.717, 199.587 262.595, 200.072 " />
            <path fill="none" stroke-width="3.0" stroke-linecap="butt" stroke-opacity="1.0" stroke="rgb(0, 0, 0)" stroke-linejoin="round" d=" M 131.072, 160.652 126.381, 160.958 121.691, 160.649 117.081, 159.731 112.630, 158.219 108.415, 156.139 104.508, 153.528 100.975, 150.428 97.876, 146.894 95.266, 142.987 94.720, 141.880 94.628, 141.693 94.099, 140.620 94.008, 140.436 93.636, 139.681 93.187, 138.771 91.676, 134.321 91.490, 133.385 91.472, 133.296 90.917, 130.504 90.759, 129.712 90.451, 125.022 90.758, 120.332 90.915, 119.540 91.470, 116.748 91.488, 116.658 91.674, 115.722 93.184, 111.271 93.632, 110.361 94.936, 107.715 95.054, 107.477 95.262, 107.055 95.293, 107.008 97.872, 103.146 100.970, 99.611 104.504, 96.511 108.412, 93.898 112.627, 91.817 117.079, 90.304 121.690, 89.386 126.381, 89.077 131.074, 89.383 135.686, 90.299 140.139, 91.809 144.357, 93.888 148.267, 96.500 151.804, 99.600 154.905, 103.136 157.040, 106.331 157.486, 106.999 157.518, 107.046 157.698, 107.412 158.462, 108.960 159.598, 111.264 160.612, 114.252 160.628, 114.298 161.109, 115.717 161.186, 116.101 162.026, 120.330 162.333, 125.022 162.025, 129.715 161.183, 133.943 161.107, 134.327 160.625, 135.746 160.609, 135.792 159.594, 138.780 158.152, 141.702 157.913, 142.187 157.513, 142.996 154.900, 146.905 151.798, 150.439 148.262, 153.538 144.352, 156.149 140.135, 158.227 135.683, 159.737 131.072, 160.652 " />
            <path fill="none" stroke-width="3.0" stroke-linecap="butt" stroke-opacity="1.0" stroke="rgb(0, 0, 0)" stroke-linejoin="round" d=" M 75.097, 152.609 75.328, 152.609 82.659, 148.553 82.659, 146.558 82.659, 146.063 82.657, 136.063 82.656, 126.063 82.654, 116.063 82.653, 106.063 82.652, 101.061 82.652, 100.520 82.652, 98.341 76.868, 94.845 " />
            <path fill="none" stroke-width="3.0" stroke-linecap="butt" stroke-opacity="1.0" stroke="rgb(0, 0, 0)" stroke-linejoin="round" d=" M 75.328, 152.609 75.326, 142.609 75.325, 132.609 75.323, 122.609 75.321, 112.609 75.319, 102.609 75.318, 97.542 " />
            <path fill="none" stroke-width="3.0" stroke-linecap="butt" stroke-opacity="1.0" stroke="rgb(0, 0, 0)" stroke-linejoin="round" d=" M 176.804, 152.633 176.806, 142.633 176.808, 132.633 176.810, 122.633 176.812, 112.633 176.814, 102.633 176.815, 95.475 " />
            <path fill="none" stroke-width="3.0" stroke-linecap="butt" stroke-opacity="1.0" stroke="rgb(0, 0, 0)" stroke-linejoin="round" d=" M 176.057, 94.340 169.465, 98.321 169.465, 100.503 169.465, 101.042 169.463, 111.042 169.461, 121.042 169.461, 122.135 169.460, 127.652 169.459, 137.652 169.457, 146.081 169.457, 146.574 169.457, 148.571 176.804, 152.633 178.051, 152.634 " />
            <path fill="none" stroke-width="3.0" stroke-linecap="butt" stroke-opacity="1.0" stroke="rgb(0, 0, 0)" stroke-linejoin="round" d=" M 128.883, 144.987 126.228, 145.160 123.574, 144.986 120.964, 144.466 118.445, 143.611 116.059, 142.434 113.847, 140.955 111.847, 139.201 110.093, 137.201 108.616, 134.989 108.276, 134.300 108.275, 134.298 108.008, 133.758 107.475, 132.675 107.439, 132.603 107.159, 131.777 106.584, 130.084 106.385, 129.086 106.358, 128.951 106.220, 128.258 106.065, 127.475 105.891, 124.820 106.064, 122.166 106.220, 121.383 106.358, 120.690 106.385, 120.554 106.583, 119.556 107.158, 117.863 107.438, 117.037 107.474, 116.964 108.157, 115.578 108.275, 115.340 108.422, 115.040 108.430, 115.024 108.503, 114.876 108.614, 114.651 108.711, 114.506 108.909, 114.210 110.092, 112.438 111.846, 110.438 113.846, 108.683 116.058, 107.204 118.444, 106.027 120.964, 105.171 123.573, 104.652 126.229, 104.477 128.884, 104.651 131.494, 105.170 134.014, 106.025 136.401, 107.201 138.614, 108.680 140.615, 110.434 142.369, 112.435 143.442, 114.040 143.652, 114.354 143.751, 114.503 143.800, 114.576 143.848, 114.648 144.601, 116.174 144.918, 116.818 145.025, 117.035 145.691, 118.996 145.719, 119.079 145.856, 119.482 145.880, 119.555 146.400, 122.165 146.573, 124.820 146.399, 127.476 145.880, 130.086 145.855, 130.158 145.718, 130.561 145.690, 130.644 145.024, 132.606 144.917, 132.822 144.599, 133.466 144.454, 133.761 144.188, 134.301 144.147, 134.383 144.073, 134.534 143.847, 134.992 142.368, 137.204 140.613, 139.205 138.612, 140.959 136.399, 142.437 134.013, 143.613 131.493, 144.468 128.883, 144.987 " />
            <path fill="none" stroke-width="3.0" stroke-linecap="butt" stroke-opacity="1.0" stroke="rgb(0, 0, 0)" stroke-linejoin="round" d=" M 129.678, 150.674 126.284, 150.896 122.890, 150.673 119.554, 150.009 116.334, 148.915 113.284, 147.410 110.456, 145.520 107.900, 143.278 105.658, 140.721 103.768, 137.893 103.373, 137.092 103.144, 136.628 102.993, 136.321 102.935, 136.204 102.858, 136.047 102.542, 135.405 102.306, 134.927 102.264, 134.843 101.981, 134.008 101.171, 131.622 100.507, 128.287 100.495, 128.097 100.285, 124.893 100.494, 121.690 100.507, 121.500 101.170, 118.164 101.979, 115.778 102.263, 114.944 102.304, 114.859 102.540, 114.381 103.143, 113.158 103.531, 112.370 103.766, 111.893 103.806, 111.833 103.892, 111.705 104.143, 111.329 105.655, 109.065 107.897, 106.507 110.454, 104.264 113.282, 102.373 116.332, 100.868 119.553, 99.774 122.890, 99.110 126.284, 98.886 129.679, 99.108 133.016, 99.771 136.237, 100.864 139.289, 102.368 142.118, 104.258 144.676, 106.501 146.920, 109.059 148.291, 111.111 148.685, 111.701 148.771, 111.828 148.810, 111.888 148.939, 112.148 148.941, 112.153 149.541, 113.369 149.777, 113.848 150.103, 114.510 150.315, 114.940 151.409, 118.162 151.589, 119.068 152.072, 121.499 152.202, 123.478 152.295, 124.894 152.202, 126.310 152.072, 128.289 151.588, 130.719 151.408, 131.625 150.313, 134.847 150.102, 135.276 149.775, 135.938 149.584, 136.326 149.141, 137.224 148.808, 137.898 146.917, 140.726 144.674, 143.283 142.116, 145.526 139.287, 147.415 136.235, 148.919 133.014, 150.011 129.678, 150.674 " />
            <path fill="none" stroke-width="3.0" stroke-linecap="butt" stroke-opacity="1.0" stroke="rgb(0, 0, 0)" stroke-linejoin="round" d=" M 94.720, 141.880 95.058, 141.693 95.058, 140.620 95.057, 139.915 95.057, 138.075 95.056, 128.075 95.055, 118.075 95.054, 111.564 95.054, 107.779 95.054, 107.477 " />
            <path fill="none" stroke-width="3.0" stroke-linecap="butt" stroke-opacity="1.0" stroke="rgb(0, 0, 0)" stroke-linejoin="round" d=" M 157.040, 106.331 157.040, 106.999 157.040, 107.769 157.039, 110.786 157.038, 120.786 157.037, 130.786 157.036, 138.853 157.036, 139.924 157.036, 140.629 157.036, 141.702 157.913, 142.187 " />
            <path fill="none" stroke-width="3.0" stroke-linecap="butt" stroke-opacity="1.0" stroke="rgb(0, 0, 0)" stroke-linejoin="round" d=" M 128.375, 141.347 126.193, 141.489 124.011, 141.346 121.867, 140.919 119.796, 140.216 117.835, 139.249 116.018, 138.034 114.374, 136.592 112.932, 134.948 111.718, 133.130 111.464, 132.616 111.411, 132.509 111.294, 132.270 111.133, 131.944 110.932, 131.538 110.824, 131.318 110.751, 131.170 110.474, 130.354 110.048, 129.099 110.012, 128.918 109.992, 128.818 109.621, 126.955 109.478, 124.773 109.621, 122.592 109.992, 120.728 110.011, 120.629 110.047, 120.447 110.473, 119.192 110.750, 118.377 110.823, 118.228 110.932, 118.008 111.164, 117.536 111.257, 117.348 111.566, 116.722 111.648, 116.555 111.655, 116.541 111.673, 116.505 111.717, 116.416 111.907, 116.131 112.931, 114.597 114.373, 112.953 116.017, 111.511 117.835, 110.296 119.796, 109.329 121.866, 108.626 124.011, 108.199 126.193, 108.055 128.375, 108.198 130.520, 108.624 132.591, 109.327 134.553, 110.294 136.371, 111.509 138.015, 112.951 139.458, 114.595 140.415, 116.029 140.482, 116.129 140.673, 116.414 140.717, 116.503 140.742, 116.553 140.757, 116.584 140.813, 116.698 140.906, 116.887 141.140, 117.361 141.248, 117.581 141.598, 118.289 141.640, 118.375 142.061, 119.616 142.080, 119.671 142.343, 120.446 142.674, 122.112 142.770, 122.591 142.888, 124.396 142.912, 124.773 142.888, 125.151 142.769, 126.956 142.674, 127.435 142.342, 129.101 142.079, 129.875 142.060, 129.931 141.639, 131.171 141.597, 131.257 141.247, 131.966 141.194, 132.073 141.139, 132.186 141.096, 132.272 140.978, 132.511 140.857, 132.756 140.672, 133.133 139.456, 134.951 138.014, 136.595 136.370, 138.036 134.552, 139.251 132.590, 140.218 130.519, 140.920 128.375, 141.347 " />
            <path fill="none" stroke-width="3.0" stroke-linecap="butt" stroke-opacity="1.0" stroke="rgb(0, 0, 0)" stroke-linejoin="round" d=" M 128.019, 138.798 126.168, 138.919 124.317, 138.797 122.498, 138.435 120.742, 137.839 119.079, 137.019 117.537, 135.988 116.143, 134.765 114.920, 133.371 113.890, 131.829 113.350, 130.734 113.070, 130.166 112.790, 129.342 112.707, 129.097 112.474, 128.410 112.112, 126.591 112.088, 126.220 111.991, 124.740 112.087, 123.261 112.112, 122.890 112.473, 121.071 112.707, 120.384 112.790, 120.138 113.069, 119.315 113.350, 118.747 113.890, 117.651 114.920, 116.109 116.142, 114.715 117.537, 113.492 119.079, 112.461 120.742, 111.641 122.498, 111.044 124.317, 110.682 126.168, 110.561 128.019, 110.682 129.838, 111.043 131.595, 111.639 133.259, 112.460 134.801, 113.490 136.196, 114.713 137.419, 116.108 138.449, 117.650 138.719, 118.197 139.270, 119.314 139.279, 119.342 139.363, 119.588 139.866, 121.070 139.983, 121.657 140.187, 122.686 140.228, 122.889 140.349, 124.740 140.228, 126.591 140.187, 126.795 139.982, 127.824 139.866, 128.411 139.362, 129.893 139.279, 130.138 139.269, 130.167 138.719, 131.283 138.449, 131.831 137.418, 133.373 136.195, 134.767 134.800, 135.990 133.258, 137.020 131.594, 137.840 129.838, 138.436 128.019, 138.798 " />
            <path fill="none" stroke-width="3.0" stroke-linecap="butt" stroke-opacity="1.0" stroke="rgb(0, 0, 0)" stroke-linejoin="round" d=" M 127.553, 135.461 126.135, 135.554 124.718, 135.461 123.326, 135.184 121.981, 134.727 120.707, 134.099 119.527, 133.310 118.459, 132.374 117.523, 131.306 116.734, 130.125 116.106, 128.852 115.649, 127.507 115.372, 126.114 115.279, 124.697 115.372, 123.280 115.649, 121.888 116.106, 120.543 116.734, 119.269 117.522, 118.088 118.459, 117.021 119.526, 116.084 120.707, 115.295 121.981, 114.667 123.326, 114.210 124.718, 113.933 126.136, 113.840 127.553, 113.933 128.946, 114.210 130.291, 114.666 131.565, 115.294 132.746, 116.083 133.813, 117.020 134.750, 118.087 135.539, 119.268 136.167, 120.542 136.624, 121.887 136.901, 123.280 136.994, 124.697 136.901, 126.115 136.624, 127.508 136.167, 128.853 135.539, 130.126 134.750, 131.307 133.813, 132.375 132.745, 133.311 131.564, 134.100 130.290, 134.728 128.945, 135.184 127.553, 135.461 " />
            <path fill="none" stroke-width="3.0" stroke-linecap="butt" stroke-opacity="1.0" stroke="rgb(0, 0, 0)" stroke-linejoin="round" d=" M 127.753, 136.896 126.149, 137.001 124.546, 136.895 122.970, 136.582 121.448, 136.065 120.007, 135.354 118.671, 134.461 117.463, 133.402 116.404, 132.194 115.511, 130.858 114.801, 129.417 114.284, 127.895 113.971, 126.319 113.866, 124.716 113.971, 123.112 114.284, 121.537 114.800, 120.015 115.511, 118.574 116.404, 117.238 117.463, 116.029 118.671, 114.970 120.007, 114.077 121.448, 113.366 122.970, 112.849 124.546, 112.535 126.150, 112.430 127.753, 112.535 129.329, 112.848 130.851, 113.365 132.293, 114.076 133.629, 114.968 134.837, 116.028 135.897, 117.236 136.790, 118.573 137.501, 120.014 138.018, 121.536 138.331, 123.112 138.436, 124.716 138.331, 126.320 138.017, 127.896 137.501, 129.418 136.790, 130.859 135.897, 132.195 134.837, 133.403 133.628, 134.463 132.292, 135.355 130.851, 136.066 129.329, 136.582 127.753, 136.896 " />
            <path fill="none" stroke-width="3.0" stroke-linecap="butt" stroke-opacity="1.0" stroke="rgb(0, 0, 0)" stroke-linejoin="round" d=" M 74.084, 150.554 74.083, 150.316 74.082, 140.316 74.080, 130.316 74.078, 120.316 74.076, 110.316 74.074, 100.067 " />
            <path fill="none" stroke-width="3.0" stroke-linecap="butt" stroke-opacity="1.0" stroke="rgb(0, 0, 0)" stroke-linejoin="round" d=" M 90.917, 130.504 90.915, 120.504 90.915, 119.540 " />
            <path fill="none" stroke-width="3.0" stroke-linecap="butt" stroke-opacity="1.0" stroke="rgb(0, 0, 0)" stroke-linejoin="round" d=" M 91.490, 133.385 91.489, 123.385 91.488, 116.658 " />
            <path fill="none" stroke-width="3.0" stroke-linecap="butt" stroke-opacity="1.0" stroke="rgb(0, 0, 0)" stroke-linejoin="round" d=" M 101.981, 134.008 101.980, 124.008 101.979, 115.778 " />
            <path fill="none" stroke-width="3.0" stroke-linecap="butt" stroke-opacity="1.0" stroke="rgb(0, 0, 0)" stroke-linejoin="round" d=" M 106.358, 128.951 106.358, 120.690 " />
            <path fill="none" stroke-width="3.0" stroke-linecap="butt" stroke-opacity="1.0" stroke="rgb(0, 0, 0)" stroke-linejoin="round" d=" M 142.674, 122.112 142.674, 127.435 " />
            <path fill="none" stroke-width="3.0" stroke-linecap="butt" stroke-opacity="1.0" stroke="rgb(0, 0, 0)" stroke-linejoin="round" d=" M 145.719, 119.079 145.718, 129.079 145.718, 130.561 " />
            <path fill="none" stroke-width="3.0" stroke-linecap="butt" stroke-opacity="1.0" stroke="rgb(0, 0, 0)" stroke-linejoin="round" d=" M 150.103, 114.510 150.103, 124.510 150.102, 134.510 150.102, 135.276 " />
            <path fill="none" stroke-width="3.0" stroke-linecap="butt" stroke-opacity="1.0" stroke="rgb(0, 0, 0)" stroke-linejoin="round" d=" M 152.202, 126.310 152.202, 123.478 " />
            <path fill="none" stroke-width="3.0" stroke-linecap="butt" stroke-opacity="1.0" stroke="rgb(0, 0, 0)" stroke-linejoin="round" d=" M 160.609, 135.792 160.610, 125.792 160.612, 115.792 160.612, 114.252 " />
            <path fill="none" stroke-width="3.0" stroke-linecap="butt" stroke-opacity="1.0" stroke="rgb(0, 0, 0)" stroke-linejoin="round" d=" M 161.186, 116.101 161.184, 126.101 161.183, 133.943 " />
            <path fill="none" stroke-width="3.0" stroke-linecap="butt" stroke-opacity="1.0" stroke="rgb(0, 0, 0)" stroke-linejoin="round" d=" M 178.062, 97.786 178.060, 107.786 178.058, 117.786 178.056, 127.786 178.054, 137.786 178.052, 147.786 178.052, 150.340 178.051, 152.634 178.051, 152.836 " />
        </g>
    </g>
</svg>
