<?xml version='1.0' encoding='ascii'?>
<svg xmlns="http://www.w3.org/2000/svg" version="1.1" width="250" height="250">
    <g id="ViewLayer_LineSet" xmlns:inkscape="http://www.inkscape.org/namespaces/inkscape" inkscape:groupmode="lineset" inkscape:label="ViewLayer_LineSet">
        <g xmlns:inkscape="http://www.inkscape.org/namespaces/inkscape" inkscape:groupmode="layer" id="strokes" inkscape:label="strokes">
            <path fill="none" stroke-width="3.0" stroke-linecap="butt" stroke-opacity="1.0" stroke="rgb(0, 0, 0)" stroke-linejoin="round" d=" M 31.296, 176.972 32.649, 179.715 38.203, 188.031 40.538, 191.526 47.129, 199.047 49.900, 202.208 57.415, 208.805 60.575, 211.579 68.887, 217.139 72.382, 219.478 81.348, 223.906 85.120, 225.769 94.587, 228.991 98.571, 230.347 108.377, 232.306 112.505, 233.130 122.483, 233.793 126.685, 234.073 136.664, 233.428 140.868, 233.157 150.678, 231.216 154.813, 230.397 164.285, 227.193 168.279, 225.841 177.253, 221.428 181.038, 219.566 189.358, 214.018 192.869, 211.677 200.394, 205.091 203.571, 202.310 210.172, 194.798 212.960, 191.625 218.522, 183.315 220.873, 179.804 221.960, 177.603 " />
            <path fill="none" stroke-width="3.0" stroke-linecap="butt" stroke-opacity="1.0" stroke="rgb(0, 0, 0)" stroke-linejoin="round" d=" M 135.137, 189.754 126.665, 190.304 118.193, 189.744 109.868, 188.084 101.830, 185.352 94.219, 181.594 87.163, 176.876 80.783, 171.278 75.188, 164.896 70.474, 157.839 69.488, 155.840 69.344, 155.548 68.950, 154.748 68.202, 153.232 66.720, 150.227 65.145, 145.587 63.992, 142.190 63.532, 139.883 62.335, 133.866 61.778, 125.397 62.331, 116.927 63.526, 110.909 63.984, 108.602 65.136, 105.204 66.709, 100.563 69.874, 94.139 70.004, 93.874 70.461, 92.948 71.380, 91.570 75.174, 85.887 80.768, 79.500 87.149, 73.899 94.206, 69.177 101.820, 65.416 109.861, 62.682 118.190, 61.020 126.666, 60.460 135.142, 61.011 143.475, 62.664 151.521, 65.391 159.143, 69.146 166.209, 73.864 172.599, 79.465 178.202, 85.853 182.003, 91.539 182.142, 91.747 182.924, 92.917 183.250, 93.579 186.683, 100.538 187.019, 101.531 188.634, 106.288 189.414, 108.585 191.070, 116.919 191.624, 125.398 191.066, 133.876 189.406, 142.209 188.625, 144.505 187.009, 149.261 186.671, 150.253 184.942, 153.755 184.437, 154.778 184.042, 155.578 183.632, 156.409 182.910, 157.871 178.187, 164.932 172.583, 171.315 166.193, 176.912 159.129, 181.626 151.510, 185.378 143.467, 188.102 135.137, 189.754 " />
            <path fill="none" stroke-width="3.0" stroke-linecap="butt" stroke-opacity="1.0" stroke="rgb(0, 0, 0)" stroke-linejoin="round" d=" M 219.113, 68.334 213.555, 60.020 213.002, 59.193 206.407, 51.677 203.616, 48.496 196.095, 41.906 192.913, 39.118 184.595, 33.567 181.077, 31.219 172.105, 26.802 168.311, 24.934 158.840, 21.727 154.836, 20.371 145.026, 18.428 140.881, 17.607 130.902, 16.962 126.686, 16.690 116.708, 17.353 112.495, 17.633 102.689, 19.594 98.550, 20.421 89.084, 23.645 85.091, 25.005 76.126, 29.437 72.346, 31.306 64.037, 36.869 60.535, 39.215 53.022, 45.815 49.857, 48.596 43.271, 56.120 40.497, 59.289 34.948, 67.609 34.044, 68.964 " />
            <path fill="none" stroke-width="3.0" stroke-linecap="butt" stroke-opacity="1.0" stroke="rgb(0, 0, 0)" stroke-linejoin="round" d=" M 297.541, 20.963 288.981, 26.133 280.421, 31.304 271.861, 36.474 263.302, 41.644 254.742, 46.814 246.182, 51.984 244.503, 52.998 244.501, 56.785 244.499, 60.421 244.495, 70.421 244.491, 80.421 244.486, 90.421 244.482, 100.421 244.477, 110.421 244.473, 120.421 244.469, 130.421 244.464, 140.421 244.460, 150.421 244.455, 160.421 244.451, 170.421 244.447, 180.421 244.445, 183.246 244.444, 186.571 244.442, 190.035 253.194, 194.874 261.945, 199.713 270.696, 204.552 279.447, 209.391 288.198, 214.230 296.949, 219.069 303.543, 222.715 " />
            <path fill="none" stroke-width="3.0" stroke-linecap="butt" stroke-opacity="1.0" stroke="rgb(0, 0, 0)" stroke-linejoin="round" d=" M -47.990, 220.840 -39.240, 215.998 -30.490, 211.157 -21.740, 206.316 -12.990, 201.474 -4.240, 196.633 4.510, 191.792 7.925, 189.903 7.923, 186.446 7.922, 183.124 7.918, 173.124 7.913, 163.124 7.909, 153.124 7.905, 143.124 7.901, 133.124 7.896, 123.124 7.892, 113.124 7.888, 103.124 7.883, 93.124 7.879, 83.124 7.875, 73.124 7.870, 63.124 7.869, 60.554 7.868, 56.922 7.866, 53.143 -0.692, 47.970 -9.251, 42.798 -17.809, 37.625 -26.367, 32.453 -34.926, 27.281 -42.285, 22.833 " />
            <path fill="none" stroke-width="3.0" stroke-linecap="butt" stroke-opacity="1.0" stroke="rgb(0, 0, 0)" stroke-linejoin="round" d=" M 7.923, 186.446 14.166, 186.449 22.916, 181.608 31.296, 176.972 40.046, 172.130 44.553, 169.637 44.550, 159.637 44.547, 149.637 44.544, 139.637 44.541, 129.637 44.538, 119.637 44.535, 109.637 44.532, 99.637 44.530, 89.637 44.527, 79.637 44.525, 75.298 35.967, 70.126 34.044, 68.964 25.486, 63.791 16.927, 58.619 14.114, 56.918 7.868, 56.922 " />
            <path fill="none" stroke-width="3.0" stroke-linecap="butt" stroke-opacity="1.0" stroke="rgb(0, 0, 0)" stroke-linejoin="round" d=" M 14.166, 186.449 14.162, 176.449 14.158, 166.449 14.154, 156.449 14.150, 146.449 14.146, 136.449 14.142, 126.449 14.138, 116.449 14.134, 106.449 14.130, 96.449 14.126, 86.449 14.122, 76.449 14.118, 66.449 14.114, 56.918 " />
            <path fill="none" stroke-width="3.0" stroke-linecap="butt" stroke-opacity="1.0" stroke="rgb(0, 0, 0)" stroke-linejoin="round" d=" M 244.501, 56.785 238.227, 56.789 229.667, 61.959 221.107, 67.129 219.113, 68.334 210.553, 73.504 207.696, 75.230 207.693, 85.230 207.690, 95.230 207.687, 105.230 207.684, 115.230 207.681, 125.230 207.678, 135.230 207.675, 145.230 207.672, 155.230 207.669, 165.230 207.667, 169.700 216.418, 174.539 221.960, 177.603 230.712, 182.442 238.173, 186.568 244.444, 186.571 " />
            <path fill="none" stroke-width="3.0" stroke-linecap="butt" stroke-opacity="1.0" stroke="rgb(0, 0, 0)" stroke-linejoin="round" d=" M 238.173, 186.568 238.177, 176.568 238.181, 166.568 238.185, 156.568 238.189, 146.568 238.194, 136.568 238.198, 126.568 238.202, 116.568 238.206, 106.568 238.210, 96.568 238.214, 86.568 238.219, 76.568 238.223, 66.568 238.227, 56.789 " />
            <path fill="none" stroke-width="3.0" stroke-linecap="butt" stroke-opacity="1.0" stroke="rgb(0, 0, 0)" stroke-linejoin="round" d=" M 70.350, 154.749 71.372, 156.822 75.989, 163.734 81.469, 169.984 87.717, 175.466 94.627, 180.087 102.081, 183.766 109.953, 186.442 118.106, 188.068 126.403, 188.616 134.700, 188.077 142.857, 186.460 150.734, 183.791 158.195, 180.117 165.114, 175.500 171.371, 170.019 176.859, 163.768 181.485, 156.853 182.128, 155.549 " />
            <path fill="none" stroke-width="3.0" stroke-linecap="butt" stroke-opacity="1.0" stroke="rgb(0, 0, 0)" stroke-linejoin="round" d=" M 131.382, 162.869 126.403, 163.194 121.424, 162.866 116.531, 161.891 111.808, 160.286 107.334, 158.079 103.187, 155.306 99.436, 152.017 96.148, 148.266 93.377, 144.118 92.798, 142.944 92.544, 142.430 91.171, 139.644 89.985, 136.153 89.824, 135.679 89.567, 134.921 89.194, 133.046 88.594, 130.028 88.267, 125.051 88.592, 120.073 89.192, 117.055 89.564, 115.180 89.822, 114.422 89.983, 113.947 91.167, 110.456 92.261, 108.235 93.027, 106.681 93.232, 106.266 93.372, 105.981 93.721, 105.459 96.143, 101.831 99.431, 98.079 103.182, 94.788 107.330, 92.015 111.804, 89.806 116.529, 88.200 121.423, 87.225 126.403, 86.897 131.383, 87.222 136.279, 88.194 141.006, 89.798 145.483, 92.004 149.634, 94.777 153.387, 98.067 156.679, 101.820 158.690, 104.830 158.817, 105.020 159.452, 105.970 159.593, 106.255 159.644, 106.359 159.835, 106.746 161.660, 110.447 162.118, 111.795 162.281, 112.277 162.912, 114.136 163.265, 115.174 164.238, 120.070 164.564, 125.051 164.237, 130.032 163.262, 134.927 162.909, 135.965 162.278, 137.824 162.114, 138.306 161.656, 139.653 160.281, 142.441 159.871, 143.270 159.447, 144.129 156.673, 148.278 153.381, 152.029 149.628, 155.319 145.478, 158.090 141.001, 160.295 136.276, 161.897 131.382, 162.869 " />
            <path fill="none" stroke-width="3.0" stroke-linecap="butt" stroke-opacity="1.0" stroke="rgb(0, 0, 0)" stroke-linejoin="round" d=" M 180.456, 91.683 176.874, 86.324 171.386, 80.068 165.129, 74.583 158.209, 69.963 150.745, 66.285 142.865, 63.614 134.705, 61.995 126.403, 61.456 118.103, 62.004 109.946, 63.632 102.072, 66.310 94.615, 69.992 87.703, 74.616 81.454, 80.102 75.975, 86.356 72.195, 92.021 " />
            <path fill="none" stroke-width="3.0" stroke-linecap="butt" stroke-opacity="1.0" stroke="rgb(0, 0, 0)" stroke-linejoin="round" d=" M 182.003, 91.539 180.694, 91.539 180.456, 91.683 172.271, 96.626 172.271, 99.156 172.271, 99.523 172.269, 109.523 172.267, 119.523 172.265, 129.523 172.264, 139.523 172.262, 147.471 172.262, 147.807 172.262, 150.122 180.681, 154.777 182.129, 154.778 " />
            <path fill="none" stroke-width="3.0" stroke-linecap="butt" stroke-opacity="1.0" stroke="rgb(0, 0, 0)" stroke-linejoin="round" d=" M 180.681, 154.777 180.683, 144.777 180.685, 134.777 180.687, 124.777 180.689, 114.777 180.691, 104.777 180.693, 94.777 180.694, 92.039 180.694, 91.539 " />
            <path fill="none" stroke-width="3.0" stroke-linecap="butt" stroke-opacity="1.0" stroke="rgb(0, 0, 0)" stroke-linejoin="round" d=" M 70.017, 154.749 70.350, 154.749 71.461, 154.749 79.860, 150.101 79.860, 147.789 79.860, 147.451 79.858, 137.451 79.857, 127.451 79.855, 117.451 79.853, 107.451 79.852, 99.544 79.852, 99.176 79.852, 96.648 72.195, 92.021 71.448, 91.570 71.380, 91.570 " />
            <path fill="none" stroke-width="3.0" stroke-linecap="butt" stroke-opacity="1.0" stroke="rgb(0, 0, 0)" stroke-linejoin="round" d=" M 71.461, 154.749 71.459, 144.749 71.457, 134.749 71.455, 124.749 71.453, 114.749 71.451, 104.749 71.449, 94.749 71.449, 93.138 71.448, 91.570 " />
            <path fill="none" stroke-width="3.0" stroke-linecap="butt" stroke-opacity="1.0" stroke="rgb(0, 0, 0)" stroke-linejoin="round" d=" M 69.488, 155.840 70.017, 155.548 70.017, 154.749 70.017, 154.073 70.016, 152.333 70.014, 142.333 70.012, 132.333 70.010, 122.333 70.008, 112.333 70.006, 102.333 70.005, 96.022 70.004, 94.210 70.004, 93.874 " />
            <path fill="none" stroke-width="3.0" stroke-linecap="butt" stroke-opacity="1.0" stroke="rgb(0, 0, 0)" stroke-linejoin="round" d=" M 182.142, 91.747 182.141, 94.179 182.141, 94.546 182.139, 104.546 182.137, 114.546 182.135, 124.546 182.133, 134.546 182.131, 144.546 182.129, 152.361 182.129, 154.778 182.128, 155.549 182.128, 155.578 183.632, 156.409 " />
            <path fill="none" stroke-width="3.0" stroke-linecap="butt" stroke-opacity="1.0" stroke="rgb(0, 0, 0)" stroke-linejoin="round" d=" M 129.830, 151.760 126.294, 151.990 122.759, 151.758 119.285, 151.066 115.931, 149.927 112.754, 148.360 109.809, 146.391 107.146, 144.055 104.811, 141.392 102.843, 138.447 102.432, 137.613 102.412, 137.571 101.967, 136.670 101.906, 136.546 101.895, 136.524 101.852, 136.435 101.601, 135.928 101.277, 135.270 101.144, 134.880 100.138, 131.916 99.677, 129.599 99.447, 128.442 99.215, 124.907 99.446, 121.373 99.676, 120.216 100.137, 117.899 101.143, 114.934 101.275, 114.544 101.600, 113.886 101.850, 113.379 102.409, 112.243 102.596, 111.864 102.796, 111.459 102.841, 111.367 102.870, 111.324 103.233, 110.780 104.809, 108.421 107.144, 105.757 109.807, 103.420 112.752, 101.451 115.929, 99.884 119.284, 98.744 122.759, 98.052 126.295, 97.819 129.831, 98.050 133.306, 98.741 136.662, 99.879 139.840, 101.446 142.787, 103.415 145.452, 105.751 147.788, 108.415 149.216, 110.552 149.673, 111.235 149.729, 111.319 149.757, 111.362 149.803, 111.454 149.893, 111.637 150.232, 112.324 150.482, 112.832 150.941, 113.762 151.325, 114.540 152.408, 117.732 152.464, 117.896 153.155, 121.371 153.195, 121.990 153.386, 124.908 153.195, 127.825 153.154, 128.444 152.462, 131.919 152.407, 132.083 151.323, 135.275 150.939, 136.052 150.602, 136.736 150.161, 137.630 149.755, 138.452 147.786, 141.398 145.449, 144.062 142.784, 146.397 139.838, 148.365 136.660, 149.931 133.304, 151.069 129.830, 151.760 " />
            <path fill="none" stroke-width="3.0" stroke-linecap="butt" stroke-opacity="1.0" stroke="rgb(0, 0, 0)" stroke-linejoin="round" d=" M 92.798, 142.944 93.725, 142.430 93.725, 141.300 93.725, 140.576 93.724, 137.828 93.723, 127.828 93.722, 117.828 93.721, 111.829 93.721, 107.057 93.721, 106.266 93.721, 105.459 " />
            <path fill="none" stroke-width="3.0" stroke-linecap="butt" stroke-opacity="1.0" stroke="rgb(0, 0, 0)" stroke-linejoin="round" d=" M 158.690, 104.830 158.375, 105.020 158.375, 106.256 158.375, 107.046 158.374, 110.898 158.373, 120.898 158.372, 130.898 158.371, 138.760 158.371, 140.586 158.371, 141.309 158.371, 142.440 159.871, 143.270 " />
            <path fill="none" stroke-width="3.0" stroke-linecap="butt" stroke-opacity="1.0" stroke="rgb(0, 0, 0)" stroke-linejoin="round" d=" M 128.438, 141.797 126.197, 141.943 123.957, 141.796 121.755, 141.358 119.629, 140.636 117.616, 139.643 115.749, 138.395 114.061, 136.915 112.581, 135.227 111.334, 133.360 111.073, 132.832 111.003, 132.690 110.872, 132.424 110.733, 132.142 110.573, 131.816 110.459, 131.585 110.341, 131.347 110.165, 130.827 109.629, 129.247 109.620, 129.221 109.606, 129.154 109.182, 127.019 109.035, 124.779 109.181, 122.539 109.606, 120.404 109.619, 120.337 109.628, 120.311 110.164, 118.730 110.341, 118.211 110.458, 117.972 110.572, 117.742 110.882, 117.112 110.979, 116.916 111.178, 116.512 111.231, 116.405 111.257, 116.352 111.329, 116.205 111.333, 116.197 111.490, 115.963 112.580, 114.330 114.060, 112.642 115.748, 111.162 117.615, 109.914 119.629, 108.921 121.755, 108.198 123.957, 107.760 126.197, 107.613 128.438, 107.759 130.641, 108.197 132.767, 108.919 134.781, 109.912 136.648, 111.159 138.337, 112.640 139.818, 114.328 140.742, 115.711 140.909, 115.961 141.065, 116.195 141.142, 116.350 141.188, 116.445 141.500, 117.077 141.614, 117.307 141.907, 117.902 142.059, 118.209 142.444, 119.344 142.467, 119.413 142.780, 120.336 143.070, 121.795 143.218, 122.538 143.290, 123.628 143.365, 124.779 143.290, 125.931 143.218, 127.020 143.070, 127.763 142.780, 129.222 142.467, 130.145 142.443, 130.214 142.058, 131.349 141.906, 131.656 141.613, 132.250 141.601, 132.275 141.526, 132.426 141.499, 132.481 141.395, 132.692 141.255, 132.976 141.064, 133.363 139.816, 135.229 138.336, 136.917 136.647, 138.398 134.780, 139.645 132.766, 140.638 130.640, 141.359 128.438, 141.797 " />
            <path fill="none" stroke-width="3.0" stroke-linecap="butt" stroke-opacity="1.0" stroke="rgb(0, 0, 0)" stroke-linejoin="round" d=" M 128.980, 145.678 126.235, 145.858 123.490, 145.677 120.793, 145.140 118.188, 144.256 115.722, 143.039 113.435, 141.511 111.367, 139.697 109.554, 137.629 108.026, 135.342 107.707, 134.694 107.675, 134.630 107.632, 134.544 107.353, 133.977 107.033, 133.329 106.810, 132.875 106.647, 132.397 105.926, 130.271 105.890, 130.091 105.819, 129.737 105.716, 129.220 105.389, 127.574 105.209, 124.829 105.388, 122.085 105.400, 122.026 105.716, 120.438 105.819, 119.921 105.889, 119.567 105.925, 119.387 106.646, 117.260 106.809, 116.782 107.032, 116.329 107.704, 114.965 107.823, 114.725 107.834, 114.701 107.869, 114.631 107.978, 114.410 108.025, 114.315 108.057, 114.267 108.329, 113.859 109.553, 112.028 111.366, 109.960 113.434, 108.146 115.720, 106.617 118.187, 105.400 120.792, 104.515 123.490, 103.978 126.235, 103.797 128.932, 103.974 128.981, 103.977 131.679, 104.513 134.284, 105.397 136.752, 106.614 139.040, 108.142 141.109, 109.956 142.923, 112.024 144.031, 113.683 144.097, 113.782 144.252, 114.014 144.419, 114.263 144.451, 114.312 145.043, 115.511 145.430, 116.297 145.668, 116.780 146.187, 118.309 146.259, 118.520 146.361, 118.819 146.553, 119.385 147.089, 122.084 147.269, 124.829 147.089, 127.575 146.552, 130.273 146.360, 130.839 146.258, 131.138 146.186, 131.350 145.667, 132.878 145.429, 133.361 145.108, 134.012 144.844, 134.547 144.802, 134.633 144.684, 134.872 144.450, 135.345 142.921, 137.633 141.107, 139.701 139.038, 141.514 136.750, 143.042 134.283, 144.258 131.678, 145.142 128.980, 145.678 " />
            <path fill="none" stroke-width="3.0" stroke-linecap="butt" stroke-opacity="1.0" stroke="rgb(0, 0, 0)" stroke-linejoin="round" d=" M 128.065, 139.130 126.171, 139.254 124.277, 139.130 122.416, 138.760 120.619, 138.149 118.917, 137.310 117.339, 136.255 115.912, 135.004 114.661, 133.577 113.607, 131.999 113.363, 131.505 113.225, 131.226 113.207, 131.188 113.121, 131.015 113.099, 130.969 112.767, 130.297 112.656, 129.970 112.580, 129.746 112.541, 129.630 112.454, 129.375 112.157, 128.500 112.017, 127.795 111.811, 126.757 111.787, 126.638 111.663, 124.745 111.787, 122.851 111.810, 122.732 112.017, 121.695 112.157, 120.990 112.454, 120.114 112.540, 119.860 112.580, 119.744 112.656, 119.519 112.767, 119.192 113.121, 118.474 113.170, 118.375 113.470, 117.766 113.556, 117.591 113.606, 117.490 113.724, 117.313 113.752, 117.272 113.816, 117.176 114.660, 115.912 115.911, 114.485 117.338, 113.233 118.916, 112.179 120.618, 111.339 122.416, 110.728 124.277, 110.358 126.171, 110.234 128.066, 110.357 129.927, 110.728 131.725, 111.338 133.427, 112.177 135.006, 113.232 136.433, 114.483 137.685, 115.910 138.450, 117.055 138.593, 117.270 138.599, 117.278 138.621, 117.311 138.740, 117.489 138.789, 117.590 138.899, 117.811 138.948, 117.912 139.413, 118.854 139.489, 119.009 139.529, 119.090 139.579, 119.191 139.616, 119.300 140.053, 120.587 140.189, 120.989 140.260, 121.345 140.443, 122.264 140.560, 122.851 140.684, 124.745 140.559, 126.639 140.443, 127.225 140.260, 128.145 140.189, 128.501 140.052, 128.903 139.615, 130.190 139.579, 130.298 139.529, 130.399 139.489, 130.481 139.412, 130.635 139.192, 131.081 139.139, 131.190 139.120, 131.228 138.982, 131.507 138.948, 131.577 138.739, 132.001 137.684, 133.579 136.432, 135.006 135.005, 136.257 133.427, 137.311 131.724, 138.151 129.927, 138.760 128.065, 139.130 " />
            <path fill="none" stroke-width="3.0" stroke-linecap="butt" stroke-opacity="1.0" stroke="rgb(0, 0, 0)" stroke-linejoin="round" d=" M 127.791, 137.171 126.152, 137.278 124.513, 137.171 122.902, 136.850 121.346, 136.322 119.873, 135.595 118.507, 134.682 117.272, 133.599 116.189, 132.364 115.277, 130.998 114.550, 129.525 114.504, 129.389 114.044, 128.032 114.022, 127.970 113.975, 127.733 113.702, 126.359 113.594, 124.719 113.702, 123.080 113.975, 121.705 114.022, 121.469 114.043, 121.407 114.504, 120.050 114.550, 119.914 115.276, 118.440 116.189, 117.074 117.272, 115.839 118.507, 114.756 119.873, 113.843 121.346, 113.116 122.902, 112.588 124.513, 112.267 126.152, 112.160 127.792, 112.267 129.403, 112.587 130.959, 113.115 132.433, 113.842 133.799, 114.755 135.034, 115.838 136.117, 117.073 137.030, 118.439 137.564, 119.521 137.757, 119.913 138.025, 120.702 138.093, 120.903 138.285, 121.469 138.598, 123.044 138.605, 123.080 138.713, 124.719 138.605, 126.359 138.598, 126.395 138.285, 127.970 138.093, 128.536 138.024, 128.737 137.756, 129.526 137.563, 129.917 137.030, 131.000 136.117, 132.366 135.033, 133.601 133.798, 134.684 132.432, 135.596 130.958, 136.323 129.403, 136.851 127.791, 137.171 " />
            <path fill="none" stroke-width="3.0" stroke-linecap="butt" stroke-opacity="1.0" stroke="rgb(0, 0, 0)" stroke-linejoin="round" d=" M 127.416, 134.481 126.126, 134.566 124.836, 134.481 123.569, 134.229 122.345, 133.813 121.186, 133.242 120.111, 132.523 119.139, 131.671 118.287, 130.700 117.569, 129.625 116.998, 128.466 116.582, 127.242 116.330, 125.974 116.246, 124.685 116.330, 123.395 116.582, 122.127 116.997, 120.904 117.569, 119.744 118.287, 118.670 119.139, 117.698 120.111, 116.846 121.185, 116.127 122.345, 115.556 123.569, 115.140 124.836, 114.888 126.126, 114.803 127.416, 114.888 128.684, 115.140 129.908, 115.555 131.067, 116.127 132.142, 116.845 133.114, 117.697 133.966, 118.669 134.684, 119.744 135.256, 120.903 135.671, 122.127 135.924, 123.395 136.008, 124.685 135.923, 125.975 135.671, 127.242 135.256, 128.466 134.684, 129.626 133.966, 130.700 133.113, 131.672 132.141, 132.524 131.067, 133.242 129.907, 133.814 128.683, 134.229 127.416, 134.481 " />
            <path fill="none" stroke-width="3.0" stroke-linecap="butt" stroke-opacity="1.0" stroke="rgb(0, 0, 0)" stroke-linejoin="round" d=" M 127.580, 135.655 126.137, 135.750 124.695, 135.655 123.278, 135.373 121.909, 134.908 120.613, 134.269 119.411, 133.466 118.324, 132.513 117.371, 131.426 116.569, 130.224 115.929, 128.928 115.465, 127.560 115.183, 126.142 115.088, 124.700 115.183, 123.258 115.465, 121.840 115.929, 120.471 116.568, 119.175 117.371, 117.973 118.324, 116.886 119.411, 115.933 120.612, 115.130 121.909, 114.491 123.277, 114.026 124.695, 113.744 126.137, 113.649 127.580, 113.744 128.998, 114.025 130.367, 114.490 131.663, 115.129 132.865, 115.932 133.952, 116.885 134.905, 117.972 135.708, 119.174 136.348, 120.471 136.812, 121.840 137.094, 123.257 137.189, 124.700 137.094, 126.142 136.812, 127.560 136.347, 128.929 135.708, 130.225 134.905, 131.427 133.951, 132.514 132.865, 133.467 131.663, 134.270 130.366, 134.909 128.997, 135.374 127.580, 135.655 " />
            <path fill="none" stroke-width="3.0" stroke-linecap="butt" stroke-opacity="1.0" stroke="rgb(0, 0, 0)" stroke-linejoin="round" d=" M 89.194, 133.046 89.193, 123.046 89.192, 117.055 " />
            <path fill="none" stroke-width="3.0" stroke-linecap="butt" stroke-opacity="1.0" stroke="rgb(0, 0, 0)" stroke-linejoin="round" d=" M 89.824, 135.679 89.823, 125.679 89.822, 115.679 89.822, 114.422 " />
            <path fill="none" stroke-width="3.0" stroke-linecap="butt" stroke-opacity="1.0" stroke="rgb(0, 0, 0)" stroke-linejoin="round" d=" M 101.144, 134.880 101.144, 124.880 101.143, 114.934 " />
            <path fill="none" stroke-width="3.0" stroke-linecap="butt" stroke-opacity="1.0" stroke="rgb(0, 0, 0)" stroke-linejoin="round" d=" M 105.819, 129.737 105.819, 129.543 105.819, 119.921 " />
            <path fill="none" stroke-width="3.0" stroke-linecap="butt" stroke-opacity="1.0" stroke="rgb(0, 0, 0)" stroke-linejoin="round" d=" M 143.070, 121.795 143.070, 127.763 " />
            <path fill="none" stroke-width="3.0" stroke-linecap="butt" stroke-opacity="1.0" stroke="rgb(0, 0, 0)" stroke-linejoin="round" d=" M 146.259, 118.520 146.259, 118.959 146.258, 128.959 146.258, 130.480 146.258, 131.138 " />
            <path fill="none" stroke-width="3.0" stroke-linecap="butt" stroke-opacity="1.0" stroke="rgb(0, 0, 0)" stroke-linejoin="round" d=" M 150.941, 113.762 150.940, 123.762 150.939, 133.762 150.939, 136.052 " />
            <path fill="none" stroke-width="3.0" stroke-linecap="butt" stroke-opacity="1.0" stroke="rgb(0, 0, 0)" stroke-linejoin="round" d=" M 153.195, 127.825 153.195, 121.990 " />
            <path fill="none" stroke-width="3.0" stroke-linecap="butt" stroke-opacity="1.0" stroke="rgb(0, 0, 0)" stroke-linejoin="round" d=" M 162.278, 137.824 162.279, 127.824 162.280, 117.824 162.281, 112.277 " />
            <path fill="none" stroke-width="3.0" stroke-linecap="butt" stroke-opacity="1.0" stroke="rgb(0, 0, 0)" stroke-linejoin="round" d=" M 162.912, 114.136 162.911, 124.136 162.909, 134.136 162.909, 135.965 " />
        </g>
    </g>
</svg>
