<?xml version='1.0' encoding='ascii'?>
<svg xmlns="http://www.w3.org/2000/svg" version="1.1" width="250" height="250">
    <g id="ViewLayer_LineSet" xmlns:inkscape="http://www.inkscape.org/namespaces/inkscape" inkscape:groupmode="lineset" inkscape:label="ViewLayer_LineSet">
        <g xmlns:inkscape="http://www.inkscape.org/namespaces/inkscape" inkscape:groupmode="layer" id="strokes" inkscape:label="strokes">
            <path fill="none" stroke-width="3.0" stroke-linecap="butt" stroke-opacity="1.0" stroke="rgb(0, 0, 0)" stroke-linejoin="round" d=" M 251.035, 197.726 245.470, 206.034 240.641, 213.244 234.038, 220.754 228.311, 227.269 220.784, 233.853 214.257, 239.562 205.935, 245.107 198.720, 249.913 189.746, 254.324 181.969, 258.147 " />
            <path fill="none" stroke-width="3.0" stroke-linecap="butt" stroke-opacity="1.0" stroke="rgb(0, 0, 0)" stroke-linejoin="round" d=" M 182.024, -5.622 190.997, -1.206 198.788, 2.627 207.106, 8.177 214.331, 12.997 221.853, 19.586 228.387, 25.310 234.984, 32.826 240.715, 39.355 246.272, 47.668 248.302, 50.704 251.101, 54.892 " />
            <path fill="none" stroke-width="3.0" stroke-linecap="butt" stroke-opacity="1.0" stroke="rgb(0, 0, 0)" stroke-linejoin="round" d=" M -4.336, 71.771 0.078, 62.798 2.589, 57.694 3.895, 55.038 5.936, 51.976 11.483, 43.656 14.240, 39.519 20.825, 31.993 26.523, 25.481 34.033, 18.878 40.534, 13.162 48.842, 7.596 56.036, 2.776 64.999, -1.659 72.764, -5.500 " />
            <path fill="none" stroke-width="3.0" stroke-linecap="butt" stroke-opacity="1.0" stroke="rgb(0, 0, 0)" stroke-linejoin="round" d=" M 72.814, 258.022 63.849, 253.591 56.098, 249.761 47.788, 244.199 40.604, 239.392 33.090, 232.794 26.596, 227.092 20.005, 219.571 14.311, 213.073 8.757, 204.756 3.959, 197.572 1.838, 193.270 -0.987, 187.542 " />
            <path fill="none" stroke-width="3.0" stroke-linecap="butt" stroke-opacity="1.0" stroke="rgb(0, 0, 0)" stroke-linejoin="round" d=" M 42.968, 170.514 44.154, 172.919 49.709, 181.235 51.071, 183.275 57.663, 190.795 59.280, 192.640 66.796, 199.237 68.641, 200.856 76.953, 206.415 78.993, 207.780 87.960, 212.208 90.162, 213.296 99.629, 216.517 101.955, 217.308 111.761, 219.266 114.172, 219.747 124.150, 220.409 126.604, 220.572 136.583, 219.926 139.039, 219.768 148.848, 217.825 151.264, 217.347 160.736, 214.141 163.069, 213.351 172.042, 208.936 174.254, 207.848 182.573, 202.300 184.625, 200.931 192.149, 194.344 194.006, 192.719 200.605, 185.206 202.235, 183.351 207.797, 175.040 209.171, 172.987 210.124, 171.058 " />
            <path fill="none" stroke-width="3.0" stroke-linecap="butt" stroke-opacity="1.0" stroke="rgb(0, 0, 0)" stroke-linejoin="round" d=" M 134.045, 181.935 126.589, 182.420 119.133, 181.928 111.805, 180.467 104.732, 178.063 98.033, 174.756 91.822, 170.604 86.207, 165.678 81.283, 160.060 77.133, 153.849 76.230, 152.018 75.205, 149.938 75.134, 149.795 73.830, 147.150 71.428, 140.076 70.651, 136.170 69.970, 132.750 69.480, 125.296 69.967, 117.842 70.646, 114.422 71.423, 110.515 73.821, 103.440 75.196, 100.650 76.387, 98.231 76.607, 97.786 77.123, 96.738 77.950, 95.499 81.272, 90.523 86.196, 84.903 91.811, 79.974 98.023, 75.819 104.724, 72.510 111.800, 70.104 119.130, 68.642 126.589, 68.149 134.049, 68.634 141.382, 70.090 148.463, 72.490 155.170, 75.795 161.388, 79.947 167.011, 84.876 171.942, 90.497 174.955, 95.006 175.743, 96.186 176.097, 96.714 176.384, 97.296 176.938, 98.420 179.404, 103.421 181.495, 109.581 181.807, 110.501 182.827, 115.630 183.265, 117.836 183.753, 125.297 183.262, 132.758 182.823, 134.963 181.801, 140.091 181.489, 141.011 179.395, 147.170 177.874, 150.252 176.991, 152.041 176.928, 152.169 176.086, 153.874 171.930, 160.088 166.998, 165.706 161.376, 170.632 155.159, 174.781 148.454, 178.083 141.375, 180.481 134.045, 181.935 " />
            <path fill="none" stroke-width="3.0" stroke-linecap="butt" stroke-opacity="1.0" stroke="rgb(0, 0, 0)" stroke-linejoin="round" d=" M 207.624, 75.273 202.268, 67.261 195.672, 59.744 194.040, 57.884 186.519, 51.293 184.658, 49.663 176.341, 44.111 174.284, 42.738 165.312, 38.320 163.094, 37.227 153.623, 34.019 151.281, 33.226 141.472, 31.282 139.049, 30.802 129.070, 30.156 126.605, 29.996 116.627, 30.659 114.165, 30.822 104.358, 32.781 101.940, 33.265 92.473, 36.487 90.139, 37.282 81.174, 41.712 78.966, 42.804 70.656, 48.367 68.610, 49.737 61.097, 56.336 59.248, 57.960 52.660, 65.484 51.040, 67.334 45.490, 75.653 45.382, 75.816 " />
            <path fill="none" stroke-width="3.0" stroke-linecap="butt" stroke-opacity="1.0" stroke="rgb(0, 0, 0)" stroke-linejoin="round" d=" M 248.302, 50.704 239.742, 55.874 231.182, 61.044 223.474, 65.700 223.473, 68.286 223.472, 71.804 223.468, 81.804 223.465, 91.804 223.461, 101.804 223.458, 111.804 223.454, 121.804 223.450, 131.804 223.447, 141.804 223.443, 151.804 223.439, 161.804 223.436, 171.804 223.435, 172.833 223.434, 176.051 223.433, 178.418 232.185, 183.257 240.936, 188.096 249.687, 192.935 252.606, 194.549 " />
            <path fill="none" stroke-width="3.0" stroke-linecap="butt" stroke-opacity="1.0" stroke="rgb(0, 0, 0)" stroke-linejoin="round" d=" M 1.838, 193.270 10.588, 188.429 19.338, 183.588 28.088, 178.747 28.844, 178.328 28.843, 175.966 28.842, 172.750 28.839, 162.750 28.835, 152.750 28.832, 142.750 28.828, 132.750 28.825, 122.750 28.821, 112.750 28.818, 102.750 28.814, 92.750 28.811, 82.750 28.807, 71.895 28.806, 68.380 28.805, 65.797 20.246, 60.625 11.688, 55.452 5.936, 51.976 " />
            <path fill="none" stroke-width="3.0" stroke-linecap="butt" stroke-opacity="1.0" stroke="rgb(0, 0, 0)" stroke-linejoin="round" d=" M 28.843, 175.966 33.110, 175.968 41.860, 171.126 42.968, 170.514 51.718, 165.672 55.088, 163.808 55.085, 153.808 55.083, 143.808 55.080, 133.808 55.077, 123.808 55.075, 113.808 55.072, 103.808 55.070, 93.808 55.067, 83.808 55.067, 81.669 46.508, 76.497 45.382, 75.816 36.823, 70.643 33.074, 68.378 28.806, 68.380 " />
            <path fill="none" stroke-width="3.0" stroke-linecap="butt" stroke-opacity="1.0" stroke="rgb(0, 0, 0)" stroke-linejoin="round" d=" M 33.110, 175.968 33.107, 165.968 33.104, 155.968 33.100, 145.968 33.099, 142.203 33.096, 132.203 33.092, 122.203 33.089, 112.203 33.088, 108.429 33.084, 98.429 33.081, 88.429 33.078, 78.429 33.074, 68.378 " />
            <path fill="none" stroke-width="3.0" stroke-linecap="butt" stroke-opacity="1.0" stroke="rgb(0, 0, 0)" stroke-linejoin="round" d=" M 223.473, 68.286 219.188, 68.288 210.628, 73.459 207.624, 75.273 199.064, 80.444 197.121, 81.617 197.118, 91.617 197.115, 101.617 197.113, 111.617 197.110, 121.617 197.107, 131.617 197.105, 141.617 197.102, 151.617 197.100, 161.617 197.099, 163.856 205.850, 168.695 210.124, 171.058 218.875, 175.897 219.151, 176.050 223.434, 176.051 " />
            <path fill="none" stroke-width="3.0" stroke-linecap="butt" stroke-opacity="1.0" stroke="rgb(0, 0, 0)" stroke-linejoin="round" d=" M 219.151, 176.050 219.154, 166.050 219.158, 156.050 219.161, 147.741 219.164, 137.741 219.168, 127.741 219.171, 117.741 219.175, 107.741 219.176, 102.892 219.180, 92.892 219.183, 82.892 219.187, 72.892 219.188, 68.288 " />
            <path fill="none" stroke-width="3.0" stroke-linecap="butt" stroke-opacity="1.0" stroke="rgb(0, 0, 0)" stroke-linejoin="round" d=" M 130.985, 160.029 126.375, 160.329 121.766, 160.026 117.235, 159.124 112.862, 157.638 108.720, 155.594 104.880, 153.027 101.408, 149.981 98.363, 146.509 95.797, 142.668 95.261, 141.581 95.190, 141.437 94.691, 140.425 94.561, 140.161 94.030, 139.085 93.754, 138.526 92.270, 134.153 92.065, 133.126 91.989, 132.744 91.511, 130.341 91.368, 129.623 91.066, 125.014 91.367, 120.405 91.510, 119.687 91.987, 117.284 92.063, 116.901 92.267, 115.875 93.751, 111.501 94.027, 110.941 95.474, 108.006 95.517, 107.917 95.793, 107.358 95.884, 107.222 98.358, 103.516 101.403, 100.042 104.876, 96.995 108.716, 94.427 112.859, 92.383 117.233, 90.896 121.765, 89.993 126.375, 89.690 130.986, 89.991 135.519, 90.891 139.895, 92.375 144.040, 94.418 147.883, 96.985 151.358, 100.032 154.406, 103.506 156.575, 106.753 156.883, 107.213 156.973, 107.349 157.151, 107.708 158.066, 109.565 159.018, 111.494 160.035, 114.492 160.109, 114.711 160.503, 115.870 160.590, 116.308 161.404, 120.403 161.706, 125.014 161.403, 129.626 160.588, 133.720 160.501, 134.158 160.107, 135.317 160.033, 135.535 159.014, 138.534 157.577, 141.446 157.362, 141.882 156.969, 142.678 154.401, 146.519 151.353, 149.992 147.878, 153.038 144.036, 155.603 139.891, 157.645 135.516, 159.129 130.985, 160.029 " />
            <path fill="none" stroke-width="3.0" stroke-linecap="butt" stroke-opacity="1.0" stroke="rgb(0, 0, 0)" stroke-linejoin="round" d=" M 175.733, 152.041 175.735, 142.041 175.737, 132.041 175.739, 122.041 175.741, 112.041 175.742, 102.041 175.743, 96.186 " />
            <path fill="none" stroke-width="3.0" stroke-linecap="butt" stroke-opacity="1.0" stroke="rgb(0, 0, 0)" stroke-linejoin="round" d=" M 174.955, 95.006 168.679, 98.796 168.678, 100.963 168.678, 101.468 168.677, 111.468 168.675, 119.774 168.674, 129.774 168.674, 130.004 168.672, 140.004 168.671, 145.691 168.671, 146.153 168.671, 148.136 175.733, 152.041 176.928, 152.041 " />
            <path fill="none" stroke-width="3.0" stroke-linecap="butt" stroke-opacity="1.0" stroke="rgb(0, 0, 0)" stroke-linejoin="round" d=" M 76.230, 152.018 76.397, 152.018 83.444, 148.119 83.443, 146.137 83.443, 145.674 83.442, 135.674 83.440, 125.674 83.439, 115.674 83.437, 105.674 83.437, 101.486 83.437, 100.980 83.436, 98.815 77.950, 95.499 " />
            <path fill="none" stroke-width="3.0" stroke-linecap="butt" stroke-opacity="1.0" stroke="rgb(0, 0, 0)" stroke-linejoin="round" d=" M 76.397, 152.018 76.395, 142.018 76.393, 132.018 76.392, 122.018 76.390, 112.018 76.388, 102.018 76.387, 98.231 " />
            <path fill="none" stroke-width="3.0" stroke-linecap="butt" stroke-opacity="1.0" stroke="rgb(0, 0, 0)" stroke-linejoin="round" d=" M 129.625, 150.296 126.280, 150.515 122.935, 150.295 119.648, 149.640 116.474, 148.562 113.468, 147.079 110.682, 145.217 108.162, 143.007 105.952, 140.487 104.090, 137.700 103.701, 136.911 103.386, 136.271 103.354, 136.205 103.297, 136.091 103.193, 135.881 102.770, 135.022 102.608, 134.694 102.539, 134.489 102.224, 133.562 101.531, 131.520 100.877, 128.233 100.765, 126.523 100.657, 124.889 100.764, 123.255 100.876, 121.544 101.530, 118.257 102.223, 116.214 102.537, 115.287 102.607, 115.083 102.768, 114.754 103.384, 113.505 103.857, 112.547 104.089, 112.076 104.168, 111.957 104.252, 111.832 104.460, 111.521 105.950, 109.289 108.160, 106.768 110.680, 104.557 113.466, 102.694 116.473, 101.211 119.647, 100.133 122.935, 99.478 126.280, 99.258 129.626, 99.477 132.915, 100.130 136.090, 101.207 139.097, 102.690 141.885, 104.552 144.406, 106.763 146.618, 109.284 147.969, 111.305 148.317, 111.827 148.401, 111.952 148.481, 112.072 148.609, 112.333 148.697, 112.510 149.312, 113.757 149.544, 114.227 149.860, 114.869 149.964, 115.079 151.041, 118.254 151.319, 119.650 151.695, 121.543 151.914, 124.888 151.914, 124.889 151.914, 124.890 151.695, 128.235 151.318, 130.127 151.040, 131.523 149.962, 134.698 149.858, 134.908 149.542, 135.550 149.310, 136.019 149.280, 136.080 149.272, 136.095 149.216, 136.210 148.782, 137.090 148.478, 137.705 146.615, 140.492 144.404, 143.012 141.883, 145.222 139.095, 147.084 136.088, 148.566 132.913, 149.643 129.625, 150.296 " />
            <path fill="none" stroke-width="3.0" stroke-linecap="butt" stroke-opacity="1.0" stroke="rgb(0, 0, 0)" stroke-linejoin="round" d=" M 95.261, 141.581 95.521, 141.437 95.521, 140.425 95.521, 139.685 95.521, 138.263 95.520, 128.263 95.519, 118.263 95.518, 111.370 95.517, 108.030 95.517, 107.917 " />
            <path fill="none" stroke-width="3.0" stroke-linecap="butt" stroke-opacity="1.0" stroke="rgb(0, 0, 0)" stroke-linejoin="round" d=" M 156.575, 106.753 156.575, 107.213 156.575, 108.020 156.575, 110.600 156.574, 120.600 156.573, 130.600 156.572, 139.034 156.572, 139.694 156.571, 140.433 156.571, 141.445 157.362, 141.882 " />
            <path fill="none" stroke-width="3.0" stroke-linecap="butt" stroke-opacity="1.0" stroke="rgb(0, 0, 0)" stroke-linejoin="round" d=" M 128.354, 141.197 126.191, 141.339 124.029, 141.196 121.904, 140.773 119.852, 140.077 117.908, 139.118 116.107, 137.914 114.478, 136.485 113.049, 134.856 111.845, 133.054 111.594, 132.544 111.561, 132.477 111.436, 132.225 111.269, 131.886 111.249, 131.845 110.996, 131.332 110.889, 131.114 110.887, 131.111 110.566, 130.165 110.190, 129.059 110.083, 128.522 110.056, 128.386 109.767, 126.934 109.626, 124.771 109.767, 122.609 110.056, 121.156 110.083, 121.020 110.190, 120.484 110.565, 119.378 110.886, 118.432 110.888, 118.428 110.995, 118.210 111.248, 117.698 111.340, 117.511 111.694, 116.792 111.713, 116.755 111.789, 116.600 111.814, 116.550 111.844, 116.488 112.050, 116.180 113.048, 114.686 114.477, 113.057 116.106, 111.627 117.908, 110.423 119.851, 109.464 121.903, 108.767 124.029, 108.344 126.192, 108.202 128.354, 108.344 130.480, 108.766 132.533, 109.463 134.477, 110.421 136.279, 111.625 137.909, 113.054 139.338, 114.684 140.337, 116.178 140.358, 116.210 140.542, 116.486 140.573, 116.548 140.598, 116.598 140.625, 116.655 140.730, 116.867 140.822, 117.054 141.076, 117.568 141.184, 117.787 141.501, 118.430 141.506, 118.445 141.989, 119.869 142.015, 119.946 142.198, 120.483 142.557, 122.292 142.620, 122.609 142.762, 124.771 142.620, 126.934 142.557, 127.251 142.197, 129.060 142.015, 129.597 141.989, 129.674 141.505, 131.098 141.500, 131.112 141.183, 131.756 141.075, 131.974 141.059, 132.006 140.950, 132.227 140.826, 132.479 140.725, 132.683 140.541, 133.056 139.337, 134.858 137.908, 136.488 136.278, 137.916 134.476, 139.120 132.532, 140.078 130.479, 140.775 128.354, 141.197 " />
            <path fill="none" stroke-width="3.0" stroke-linecap="butt" stroke-opacity="1.0" stroke="rgb(0, 0, 0)" stroke-linejoin="round" d=" M 128.855, 144.785 126.226, 144.957 123.598, 144.784 121.014, 144.270 118.520, 143.423 116.157, 142.258 113.967, 140.794 111.987, 139.057 110.250, 137.076 108.787, 134.886 108.461, 134.226 108.409, 134.119 108.199, 133.693 107.622, 132.524 107.605, 132.473 107.309, 131.601 106.775, 130.029 106.537, 128.833 106.531, 128.802 106.369, 127.986 106.261, 127.446 106.089, 124.818 106.261, 122.189 106.368, 121.650 106.531, 120.833 106.537, 120.802 106.775, 119.605 107.308, 118.034 107.604, 117.162 107.621, 117.111 108.237, 115.862 108.407, 115.516 108.553, 115.221 108.604, 115.118 108.701, 114.919 108.786, 114.748 108.901, 114.576 109.077, 114.312 110.249, 112.558 111.986, 110.577 113.966, 108.839 116.156, 107.375 118.519, 106.210 121.014, 105.362 123.598, 104.848 126.227, 104.675 128.856, 104.847 131.440, 105.361 133.935, 106.207 136.299, 107.372 138.490, 108.836 140.471, 110.573 142.208, 112.554 143.270, 114.143 143.521, 114.519 143.557, 114.573 143.667, 114.737 143.672, 114.745 143.757, 114.917 143.774, 114.951 143.836, 115.078 144.470, 116.363 144.768, 116.967 144.838, 117.109 145.540, 119.177 145.545, 119.192 145.685, 119.604 145.707, 119.717 146.199, 122.188 146.371, 124.818 146.198, 127.447 145.707, 129.918 145.684, 130.031 145.544, 130.443 145.539, 130.458 144.837, 132.526 144.767, 132.668 144.469, 133.271 144.260, 133.696 143.997, 134.229 143.957, 134.309 143.895, 134.436 143.671, 134.889 142.207, 137.080 140.469, 139.060 138.488, 140.797 136.297, 142.261 133.934, 143.425 131.439, 144.272 128.855, 144.785 " />
            <path fill="none" stroke-width="3.0" stroke-linecap="butt" stroke-opacity="1.0" stroke="rgb(0, 0, 0)" stroke-linejoin="round" d=" M 128.005, 138.700 126.167, 138.820 124.329, 138.699 122.523, 138.340 120.779, 137.748 119.127, 136.933 117.596, 135.909 116.211, 134.695 114.997, 133.310 113.974, 131.779 113.760, 131.345 113.752, 131.329 113.630, 131.083 113.612, 131.047 113.492, 130.802 113.435, 130.686 113.418, 130.652 113.159, 130.127 112.942, 129.488 112.869, 129.273 112.864, 129.259 112.782, 129.016 112.567, 128.383 112.330, 127.193 112.208, 126.577 112.170, 125.995 112.087, 124.739 112.170, 123.483 112.208, 122.901 112.330, 122.285 112.567, 121.095 112.782, 120.462 112.864, 120.219 112.869, 120.205 112.942, 119.990 113.159, 119.351 113.417, 118.826 113.434, 118.792 113.751, 118.149 113.956, 117.734 113.973, 117.699 114.128, 117.468 114.154, 117.428 114.177, 117.394 114.996, 116.167 116.210, 114.783 117.595, 113.568 119.127, 112.544 120.778, 111.730 122.523, 111.137 124.329, 110.778 126.167, 110.657 128.005, 110.777 129.812, 111.136 131.556, 111.728 133.209, 112.543 134.740, 113.566 136.126, 114.781 137.340, 116.166 138.082, 117.277 138.183, 117.427 138.209, 117.466 138.317, 117.628 138.364, 117.698 138.381, 117.733 138.634, 118.245 138.651, 118.281 139.127, 119.245 139.179, 119.350 139.200, 119.412 139.205, 119.429 139.288, 119.672 139.739, 121.001 139.771, 121.094 139.901, 121.747 140.112, 122.808 140.130, 122.901 140.250, 124.739 140.130, 126.577 140.111, 126.670 139.900, 127.731 139.770, 128.384 139.738, 128.478 139.287, 129.806 139.205, 130.049 139.199, 130.066 139.178, 130.128 139.126, 130.233 138.803, 130.888 138.724, 131.048 138.707, 131.084 138.651, 131.197 138.575, 131.351 138.363, 131.781 137.339, 133.312 136.125, 134.697 134.740, 135.911 133.208, 136.934 131.556, 137.749 129.812, 138.341 128.005, 138.700 " />
            <path fill="none" stroke-width="3.0" stroke-linecap="butt" stroke-opacity="1.0" stroke="rgb(0, 0, 0)" stroke-linejoin="round" d=" M 127.746, 136.847 126.149, 136.951 124.552, 136.847 122.982, 136.534 121.467, 136.020 120.031, 135.312 118.701, 134.422 117.497, 133.367 116.442, 132.164 115.553, 130.833 114.845, 129.397 114.741, 129.091 114.331, 127.882 114.300, 127.727 114.234, 127.398 114.018, 126.312 113.914, 124.715 114.018, 123.118 114.234, 122.032 114.299, 121.704 114.330, 121.548 114.741, 120.339 114.845, 120.033 115.553, 118.597 116.442, 117.266 117.497, 116.063 118.700, 115.008 120.031, 114.118 121.466, 113.410 122.982, 112.895 124.552, 112.583 126.149, 112.478 127.746, 112.583 129.316, 112.895 130.832, 113.409 132.268, 114.117 133.599, 115.006 134.803, 116.062 135.858, 117.265 136.748, 118.596 137.326, 119.770 137.456, 120.032 137.768, 120.953 137.834, 121.146 137.970, 121.548 138.282, 123.118 138.317, 123.645 138.387, 124.715 138.317, 125.786 138.282, 126.313 137.970, 127.883 137.833, 128.285 137.768, 128.477 137.455, 129.398 137.326, 129.660 136.747, 130.834 135.858, 132.165 134.802, 133.368 133.598, 134.424 132.267, 135.313 130.832, 136.020 129.316, 136.535 127.746, 136.847 " />
            <path fill="none" stroke-width="3.0" stroke-linecap="butt" stroke-opacity="1.0" stroke="rgb(0, 0, 0)" stroke-linejoin="round" d=" M 127.388, 134.280 126.124, 134.362 124.860, 134.279 123.619, 134.032 122.420, 133.625 121.284, 133.065 120.231, 132.362 119.279, 131.527 118.445, 130.575 117.741, 129.522 117.181, 128.386 116.774, 127.187 116.527, 125.946 116.444, 124.682 116.527, 123.419 116.774, 122.177 117.181, 120.978 117.741, 119.842 118.444, 118.789 119.279, 117.837 120.231, 117.002 121.284, 116.299 122.420, 115.739 123.619, 115.331 124.860, 115.084 126.124, 115.001 127.388, 115.084 128.630, 115.331 129.829, 115.738 130.965, 116.298 132.018, 117.002 132.970, 117.837 133.805, 118.789 134.508, 119.842 135.068, 120.977 135.475, 122.176 135.723, 123.419 135.805, 124.682 135.722, 125.946 135.475, 127.188 135.068, 128.387 134.508, 129.523 133.804, 130.576 132.969, 131.528 132.017, 132.362 130.964, 133.066 129.829, 133.626 128.629, 134.033 127.388, 134.280 " />
            <path fill="none" stroke-width="3.0" stroke-linecap="butt" stroke-opacity="1.0" stroke="rgb(0, 0, 0)" stroke-linejoin="round" d=" M 127.545, 135.404 126.135, 135.496 124.725, 135.404 123.340, 135.128 122.002, 134.674 120.735, 134.049 119.561, 133.264 118.499, 132.333 117.568, 131.271 116.783, 130.096 116.158, 128.829 115.704, 127.492 115.429, 126.106 115.336, 124.697 115.428, 123.287 115.704, 121.902 116.158, 120.564 116.783, 119.297 117.567, 118.122 118.499, 117.060 119.561, 116.129 120.735, 115.344 122.002, 114.719 123.340, 114.265 124.725, 113.989 126.135, 113.896 127.545, 113.989 128.930, 114.264 130.268, 114.718 131.535, 115.343 132.710, 116.128 133.772, 117.059 134.704, 118.122 135.489, 119.296 136.114, 120.563 136.568, 121.901 136.843, 123.287 136.936, 124.697 136.843, 126.106 136.568, 127.492 136.113, 128.830 135.488, 130.097 134.703, 131.272 133.772, 132.334 132.710, 133.265 131.535, 134.050 130.268, 134.674 128.930, 135.128 127.545, 135.404 " />
            <path fill="none" stroke-width="3.0" stroke-linecap="butt" stroke-opacity="1.0" stroke="rgb(0, 0, 0)" stroke-linejoin="round" d=" M 75.205, 149.938 75.205, 149.760 75.203, 139.760 75.201, 129.760 75.199, 119.760 75.197, 109.760 75.196, 100.650 " />
            <path fill="none" stroke-width="3.0" stroke-linecap="butt" stroke-opacity="1.0" stroke="rgb(0, 0, 0)" stroke-linejoin="round" d=" M 91.511, 130.341 91.510, 120.341 91.510, 119.687 " />
            <path fill="none" stroke-width="3.0" stroke-linecap="butt" stroke-opacity="1.0" stroke="rgb(0, 0, 0)" stroke-linejoin="round" d=" M 92.065, 133.126 92.064, 123.126 92.063, 116.901 " />
            <path fill="none" stroke-width="3.0" stroke-linecap="butt" stroke-opacity="1.0" stroke="rgb(0, 0, 0)" stroke-linejoin="round" d=" M 102.224, 133.562 102.223, 123.562 102.223, 116.214 " />
            <path fill="none" stroke-width="3.0" stroke-linecap="butt" stroke-opacity="1.0" stroke="rgb(0, 0, 0)" stroke-linejoin="round" d=" M 106.537, 128.833 106.537, 120.802 " />
            <path fill="none" stroke-width="3.0" stroke-linecap="butt" stroke-opacity="1.0" stroke="rgb(0, 0, 0)" stroke-linejoin="round" d=" M 142.557, 122.292 142.557, 127.251 " />
            <path fill="none" stroke-width="3.0" stroke-linecap="butt" stroke-opacity="1.0" stroke="rgb(0, 0, 0)" stroke-linejoin="round" d=" M 145.540, 119.177 145.539, 129.177 145.539, 130.458 " />
            <path fill="none" stroke-width="3.0" stroke-linecap="butt" stroke-opacity="1.0" stroke="rgb(0, 0, 0)" stroke-linejoin="round" d=" M 149.860, 114.869 149.859, 124.869 149.858, 134.908 " />
            <path fill="none" stroke-width="3.0" stroke-linecap="butt" stroke-opacity="1.0" stroke="rgb(0, 0, 0)" stroke-linejoin="round" d=" M 151.914, 124.890 151.914, 124.888 " />
            <path fill="none" stroke-width="3.0" stroke-linecap="butt" stroke-opacity="1.0" stroke="rgb(0, 0, 0)" stroke-linejoin="round" d=" M 160.033, 135.535 160.034, 125.535 160.035, 115.535 160.035, 114.492 " />
            <path fill="none" stroke-width="3.0" stroke-linecap="butt" stroke-opacity="1.0" stroke="rgb(0, 0, 0)" stroke-linejoin="round" d=" M 160.590, 116.308 160.589, 126.308 160.588, 133.720 " />
            <path fill="none" stroke-width="3.0" stroke-linecap="butt" stroke-opacity="1.0" stroke="rgb(0, 0, 0)" stroke-linejoin="round" d=" M 176.938, 98.420 176.936, 108.420 176.934, 118.420 176.932, 128.420 176.930, 138.420 176.928, 148.420 176.928, 149.783 176.928, 152.041 176.928, 152.169 " />
        </g>
    </g>
</svg>
