<?xml version='1.0' encoding='ascii'?>
<svg xmlns="http://www.w3.org/2000/svg" version="1.1" width="250" height="250">
    <g id="ViewLayer_LineSet" xmlns:inkscape="http://www.inkscape.org/namespaces/inkscape" inkscape:groupmode="lineset" inkscape:label="ViewLayer_LineSet">
        <g xmlns:inkscape="http://www.inkscape.org/namespaces/inkscape" inkscape:groupmode="layer" id="strokes" inkscape:label="strokes">
            <path fill="none" stroke-width="3.0" stroke-linecap="butt" stroke-opacity="1.0" stroke="rgb(0, 0, 0)" stroke-linejoin="round" d=" M 31.633, 176.785 32.981, 179.519 38.535, 187.835 40.842, 191.288 47.433, 198.809 50.170, 201.932 57.686, 208.529 60.808, 211.269 69.120, 216.830 72.573, 219.140 81.539, 223.569 85.265, 225.410 94.732, 228.631 98.668, 229.970 108.475, 231.929 112.553, 232.744 122.531, 233.407 126.683, 233.683 136.662, 233.039 140.815, 232.770 150.625, 230.829 154.710, 230.021 164.183, 226.816 168.129, 225.481 177.102, 221.067 180.842, 219.228 189.162, 213.680 192.632, 211.367 200.156, 204.781 203.295, 202.034 209.896, 194.521 212.650, 191.386 218.213, 183.076 220.535, 179.607 221.619, 177.414 " />
            <path fill="none" stroke-width="3.0" stroke-linecap="butt" stroke-opacity="1.0" stroke="rgb(0, 0, 0)" stroke-linejoin="round" d=" M 135.106, 189.529 126.663, 190.078 118.220, 189.520 109.923, 187.865 101.914, 185.142 94.329, 181.398 87.297, 176.696 80.939, 171.117 75.363, 164.757 70.665, 157.724 69.671, 155.707 69.287, 154.930 68.401, 153.133 66.924, 150.138 64.778, 143.816 64.205, 142.129 63.145, 136.804 62.554, 133.834 62.000, 125.394 62.550, 116.954 63.140, 113.983 64.198, 108.657 64.770, 106.970 66.914, 100.646 69.658, 95.074 70.067, 94.244 70.652, 93.057 71.120, 92.356 71.588, 91.654 75.349, 86.020 80.924, 79.656 87.283, 74.073 94.316, 69.368 101.904, 65.620 109.917, 62.895 118.217, 61.239 126.663, 60.681 135.111, 61.230 143.415, 62.878 151.433, 65.596 159.029, 69.337 166.070, 74.039 172.438, 79.621 178.023, 85.986 181.601, 91.340 182.489, 92.669 182.728, 93.027 183.053, 93.686 186.473, 100.621 187.387, 103.312 189.021, 108.127 189.195, 108.640 190.846, 116.945 191.398, 125.395 190.842, 133.844 189.187, 142.148 189.013, 142.661 187.376, 147.475 186.462, 150.165 184.739, 153.655 184.094, 154.960 183.695, 155.770 183.433, 156.299 182.714, 157.756 178.007, 164.792 172.422, 171.154 166.055, 176.731 159.014, 181.429 151.422, 185.168 143.406, 187.883 135.106, 189.529 " />
            <path fill="none" stroke-width="3.0" stroke-linecap="butt" stroke-opacity="1.0" stroke="rgb(0, 0, 0)" stroke-linejoin="round" d=" M 218.781, 68.534 213.224, 60.221 212.693, 59.426 206.097, 51.910 203.339, 48.767 195.818, 42.177 192.674, 39.422 184.357, 33.871 180.881, 31.551 171.909, 27.134 168.161, 25.289 158.689, 22.082 154.733, 20.742 144.924, 18.799 140.828, 17.988 130.849, 17.343 126.684, 17.074 116.706, 17.737 112.543, 18.014 102.737, 19.974 98.648, 20.792 89.182, 24.015 85.236, 25.359 76.272, 29.791 72.537, 31.637 64.228, 37.201 60.768, 39.518 53.255, 46.119 50.128, 48.866 43.542, 56.391 40.801, 59.521 35.252, 67.841 34.371, 69.161 " />
            <path fill="none" stroke-width="3.0" stroke-linecap="butt" stroke-opacity="1.0" stroke="rgb(0, 0, 0)" stroke-linejoin="round" d=" M 297.299, 21.109 288.739, 26.280 280.179, 31.450 271.619, 36.620 263.060, 41.790 254.500, 46.960 245.940, 52.130 243.857, 53.388 243.855, 57.135 243.854, 60.770 243.849, 70.770 243.845, 80.770 243.841, 90.770 243.836, 100.770 243.832, 110.770 243.828, 120.770 243.823, 130.770 243.819, 140.770 243.814, 150.770 243.810, 160.770 243.806, 170.770 243.801, 180.770 243.800, 182.927 243.799, 186.251 243.797, 189.678 252.549, 194.517 261.300, 199.356 270.051, 204.195 278.802, 209.034 287.553, 213.874 296.305, 218.713 303.293, 222.577 " />
            <path fill="none" stroke-width="3.0" stroke-linecap="butt" stroke-opacity="1.0" stroke="rgb(0, 0, 0)" stroke-linejoin="round" d=" M -47.745, 220.704 -38.995, 215.863 -30.245, 211.022 -21.495, 206.180 -12.745, 201.339 -3.995, 196.498 4.755, 191.657 8.567, 189.547 8.565, 186.127 8.564, 182.806 8.560, 172.806 8.555, 162.806 8.551, 152.806 8.547, 142.806 8.543, 132.806 8.538, 122.806 8.534, 112.806 8.530, 102.806 8.526, 92.806 8.521, 82.806 8.517, 72.806 8.513, 62.806 8.512, 60.902 8.510, 57.270 8.509, 53.531 -0.050, 48.359 -8.608, 43.186 -17.166, 38.014 -25.725, 32.841 -34.283, 27.669 -42.048, 22.976 " />
            <path fill="none" stroke-width="3.0" stroke-linecap="butt" stroke-opacity="1.0" stroke="rgb(0, 0, 0)" stroke-linejoin="round" d=" M 8.565, 186.127 14.742, 186.131 23.492, 181.289 31.633, 176.785 40.383, 171.944 44.859, 169.467 44.856, 159.467 44.853, 149.467 44.850, 139.467 44.847, 129.467 44.844, 119.467 44.841, 109.467 44.839, 99.467 44.836, 89.467 44.833, 79.467 44.832, 75.483 36.273, 70.311 34.371, 69.161 25.813, 63.989 17.254, 58.817 14.690, 57.267 8.510, 57.270 " />
            <path fill="none" stroke-width="3.0" stroke-linecap="butt" stroke-opacity="1.0" stroke="rgb(0, 0, 0)" stroke-linejoin="round" d=" M 14.742, 186.131 14.738, 176.131 14.734, 166.131 14.730, 156.131 14.726, 146.131 14.722, 136.131 14.718, 126.131 14.714, 116.131 14.710, 106.131 14.706, 96.131 14.702, 86.131 14.698, 76.131 14.694, 66.131 14.690, 57.267 " />
            <path fill="none" stroke-width="3.0" stroke-linecap="butt" stroke-opacity="1.0" stroke="rgb(0, 0, 0)" stroke-linejoin="round" d=" M 243.855, 57.135 237.648, 57.139 229.088, 62.309 220.528, 67.479 218.781, 68.534 210.221, 73.704 207.389, 75.415 207.386, 85.415 207.383, 95.415 207.380, 105.415 207.377, 115.415 207.374, 125.415 207.371, 135.415 207.367, 145.415 207.364, 155.415 207.361, 165.415 207.360, 169.530 216.111, 174.369 221.619, 177.414 230.370, 182.253 237.594, 186.248 243.799, 186.251 " />
            <path fill="none" stroke-width="3.0" stroke-linecap="butt" stroke-opacity="1.0" stroke="rgb(0, 0, 0)" stroke-linejoin="round" d=" M 237.594, 186.248 237.598, 176.248 237.602, 166.248 237.607, 156.248 237.611, 146.248 237.615, 136.248 237.619, 126.248 237.623, 116.248 237.627, 106.248 237.631, 96.248 237.636, 86.248 237.640, 76.248 237.644, 66.248 237.648, 57.139 " />
            <path fill="none" stroke-width="3.0" stroke-linecap="butt" stroke-opacity="1.0" stroke="rgb(0, 0, 0)" stroke-linejoin="round" d=" M 129.843, 151.853 126.295, 152.085 122.748, 151.851 119.262, 151.157 115.896, 150.014 112.709, 148.441 109.754, 146.466 107.082, 144.122 104.738, 141.450 102.764, 138.495 102.348, 137.651 101.875, 136.693 101.814, 136.568 101.813, 136.565 101.807, 136.553 101.555, 136.044 101.192, 135.307 101.091, 135.010 100.049, 131.941 99.624, 129.802 99.356, 128.455 99.123, 124.909 99.355, 121.362 99.623, 120.015 100.048, 117.876 101.089, 114.806 101.190, 114.510 101.554, 113.772 101.805, 113.263 102.361, 112.133 102.516, 111.820 102.706, 111.435 102.762, 111.322 102.777, 111.299 103.155, 110.732 104.736, 108.366 107.079, 105.692 109.751, 103.348 112.707, 101.372 115.895, 99.799 119.261, 98.655 122.748, 97.961 126.296, 97.728 129.844, 97.959 133.331, 98.652 136.698, 99.795 139.888, 101.367 142.845, 103.342 145.518, 105.686 147.863, 108.360 149.296, 110.504 149.721, 111.140 149.824, 111.294 149.839, 111.316 149.895, 111.430 149.975, 111.593 150.277, 112.205 150.528, 112.714 150.995, 113.660 151.412, 114.505 152.462, 117.600 152.555, 117.873 153.248, 121.361 153.259, 121.526 153.480, 124.909 153.258, 128.292 153.247, 128.457 152.553, 131.945 152.460, 132.218 151.410, 135.311 150.993, 136.157 150.686, 136.777 150.253, 137.656 149.836, 138.500 147.860, 141.456 145.515, 144.129 142.842, 146.472 139.885, 148.447 136.696, 150.018 133.329, 151.160 129.843, 151.853 " />
            <path fill="none" stroke-width="3.0" stroke-linecap="butt" stroke-opacity="1.0" stroke="rgb(0, 0, 0)" stroke-linejoin="round" d=" M 70.098, 154.930 71.108, 156.978 75.747, 163.923 81.253, 170.204 87.532, 175.713 94.475, 180.356 101.966, 184.053 109.875, 186.742 118.068, 188.376 126.404, 188.926 134.742, 188.385 142.939, 186.759 150.853, 184.078 158.351, 180.386 165.303, 175.747 171.591, 170.239 177.106, 163.957 181.753, 157.009 182.476, 155.546 " />
            <path fill="none" stroke-width="3.0" stroke-linecap="butt" stroke-opacity="1.0" stroke="rgb(0, 0, 0)" stroke-linejoin="round" d=" M 131.407, 163.055 126.404, 163.381 121.402, 163.051 116.485, 162.072 111.739, 160.459 107.243, 158.241 103.076, 155.455 99.308, 152.150 96.003, 148.381 93.219, 144.213 92.637, 143.032 92.371, 142.494 91.002, 139.717 89.857, 136.346 89.680, 135.824 89.391, 134.971 89.045, 133.232 88.412, 130.055 88.084, 125.053 88.411, 120.051 89.043, 116.873 89.388, 115.134 89.677, 114.281 89.854, 113.759 90.998, 110.387 92.174, 108.002 92.867, 106.594 93.053, 106.218 93.214, 105.891 93.606, 105.304 95.998, 101.721 99.303, 97.951 103.071, 94.644 107.239, 91.857 111.735, 89.638 116.483, 88.024 121.401, 87.044 126.405, 86.715 131.409, 87.041 136.328, 88.018 141.078, 89.629 145.577, 91.847 149.748, 94.632 153.520, 97.939 156.827, 101.710 158.848, 104.734 158.993, 104.950 159.614, 105.880 159.776, 106.208 159.807, 106.271 159.923, 106.506 161.833, 110.379 162.246, 111.597 162.426, 112.126 163.062, 114.000 163.445, 115.129 164.423, 120.048 164.751, 125.053 164.422, 130.058 163.442, 134.977 163.059, 136.106 162.422, 137.980 162.242, 138.509 161.829, 139.726 160.458, 142.504 160.035, 143.361 159.609, 144.224 156.822, 148.393 153.514, 152.162 149.742, 155.468 145.572, 158.252 141.074, 160.468 136.325, 162.078 131.407, 163.055 " />
            <path fill="none" stroke-width="3.0" stroke-linecap="butt" stroke-opacity="1.0" stroke="rgb(0, 0, 0)" stroke-linejoin="round" d=" M 180.720, 91.524 177.121, 86.138 171.606, 79.853 165.318, 74.341 158.365, 69.698 150.865, 66.003 142.947, 63.319 134.747, 61.692 126.405, 61.150 118.065, 61.701 109.868, 63.337 101.956, 66.028 94.463, 69.728 87.518, 74.374 81.239, 79.887 75.733, 86.171 71.934, 91.863 " />
            <path fill="none" stroke-width="3.0" stroke-linecap="butt" stroke-opacity="1.0" stroke="rgb(0, 0, 0)" stroke-linejoin="round" d=" M 158.848, 104.734 158.490, 104.950 158.490, 106.208 158.490, 106.984 158.490, 110.966 158.488, 120.966 158.487, 130.966 158.486, 138.692 158.486, 140.643 158.486, 141.353 158.486, 142.504 160.035, 143.361 " />
            <path fill="none" stroke-width="3.0" stroke-linecap="butt" stroke-opacity="1.0" stroke="rgb(0, 0, 0)" stroke-linejoin="round" d=" M 92.637, 143.032 93.610, 142.494 93.610, 141.343 93.610, 140.633 93.609, 137.715 93.608, 127.715 93.607, 117.715 93.606, 111.943 93.606, 106.994 93.606, 106.218 93.606, 105.304 " />
            <path fill="none" stroke-width="3.0" stroke-linecap="butt" stroke-opacity="1.0" stroke="rgb(0, 0, 0)" stroke-linejoin="round" d=" M 182.489, 92.669 182.489, 93.991 182.488, 94.554 182.486, 104.554 182.484, 114.554 182.482, 124.554 182.480, 134.554 182.478, 144.554 182.476, 152.533 182.476, 154.960 182.476, 155.546 182.475, 155.769 183.433, 156.299 " />
            <path fill="none" stroke-width="3.0" stroke-linecap="butt" stroke-opacity="1.0" stroke="rgb(0, 0, 0)" stroke-linejoin="round" d=" M 69.670, 154.930 70.098, 154.930 71.132, 154.931 79.625, 150.231 79.625, 147.896 79.625, 147.568 79.623, 137.568 79.622, 127.568 79.620, 117.568 79.618, 107.568 79.617, 99.417 79.617, 99.058 79.617, 96.506 71.934, 91.863 71.588, 91.654 " />
            <path fill="none" stroke-width="3.0" stroke-linecap="butt" stroke-opacity="1.0" stroke="rgb(0, 0, 0)" stroke-linejoin="round" d=" M 71.132, 154.931 71.130, 144.931 71.128, 134.931 71.126, 124.931 71.124, 114.931 71.122, 104.931 71.120, 94.931 71.120, 93.083 71.120, 92.356 " />
            <path fill="none" stroke-width="3.0" stroke-linecap="butt" stroke-opacity="1.0" stroke="rgb(0, 0, 0)" stroke-linejoin="round" d=" M 181.601, 91.340 181.023, 91.340 180.720, 91.524 172.507, 96.484 172.506, 99.038 172.506, 99.396 172.504, 109.396 172.503, 119.396 172.501, 129.396 172.499, 139.396 172.498, 147.588 172.498, 147.915 172.497, 150.252 181.010, 154.959 182.476, 154.960 " />
            <path fill="none" stroke-width="3.0" stroke-linecap="butt" stroke-opacity="1.0" stroke="rgb(0, 0, 0)" stroke-linejoin="round" d=" M 181.010, 154.959 181.012, 144.959 181.014, 134.959 181.016, 124.959 181.018, 114.959 181.021, 104.959 181.023, 94.959 181.023, 91.978 181.023, 91.340 " />
            <path fill="none" stroke-width="3.0" stroke-linecap="butt" stroke-opacity="1.0" stroke="rgb(0, 0, 0)" stroke-linejoin="round" d=" M 128.986, 145.722 126.236, 145.902 123.485, 145.721 120.782, 145.183 118.172, 144.297 115.700, 143.077 113.409, 141.546 111.337, 139.728 109.520, 137.656 107.989, 135.365 107.669, 134.716 107.617, 134.611 107.575, 134.526 107.296, 133.961 107.065, 133.493 106.770, 132.893 106.685, 132.643 105.926, 130.408 105.884, 130.283 105.784, 129.783 105.753, 129.628 105.346, 127.580 105.165, 124.830 105.345, 122.079 105.753, 120.031 105.783, 119.876 105.883, 119.376 105.925, 119.251 106.684, 117.015 106.769, 116.766 107.064, 116.166 107.735, 114.807 107.797, 114.681 107.813, 114.647 107.856, 114.560 107.987, 114.294 107.994, 114.284 108.011, 114.259 108.292, 113.837 109.518, 112.002 111.335, 109.929 113.407, 108.111 115.699, 106.580 118.171, 105.360 120.781, 104.473 123.485, 103.935 126.236, 103.754 128.987, 103.934 131.691, 104.471 134.302, 105.357 136.774, 106.576 139.067, 108.108 141.140, 109.926 142.958, 111.998 144.071, 113.664 144.219, 113.886 144.483, 114.281 144.490, 114.291 145.010, 115.347 145.393, 116.121 145.709, 116.764 146.151, 118.065 146.294, 118.487 146.324, 118.574 146.595, 119.374 147.133, 122.079 147.313, 124.830 147.133, 127.581 146.595, 130.285 146.323, 131.086 146.293, 131.173 146.150, 131.595 145.708, 132.895 145.391, 133.538 145.147, 134.032 144.902, 134.529 144.860, 134.614 144.722, 134.893 144.488, 135.368 142.956, 137.660 141.138, 139.732 139.065, 141.550 136.773, 143.081 134.300, 144.299 131.690, 145.185 128.986, 145.722 " />
            <path fill="none" stroke-width="3.0" stroke-linecap="butt" stroke-opacity="1.0" stroke="rgb(0, 0, 0)" stroke-linejoin="round" d=" M 128.442, 141.826 126.198, 141.973 123.953, 141.825 121.748, 141.386 119.618, 140.663 117.601, 139.668 115.732, 138.419 114.041, 136.936 112.558, 135.245 111.309, 133.375 111.048, 132.846 110.965, 132.678 110.597, 131.930 110.483, 131.700 110.315, 131.358 109.653, 129.409 109.633, 129.351 109.592, 129.229 109.153, 127.023 109.032, 125.184 109.006, 124.779 109.032, 124.375 109.153, 122.535 109.591, 120.330 109.633, 120.208 109.652, 120.150 110.314, 118.200 110.482, 117.858 110.596, 117.628 111.308, 116.183 111.351, 116.119 112.558, 114.313 114.040, 112.622 115.731, 111.139 117.601, 109.889 119.618, 108.894 121.747, 108.171 123.953, 107.732 126.198, 107.584 128.442, 107.731 130.648, 108.169 132.778, 108.892 134.796, 109.887 136.666, 111.136 138.358, 112.620 139.841, 114.311 140.747, 115.667 140.758, 115.684 141.091, 116.181 141.476, 116.962 141.589, 117.192 142.086, 118.199 142.420, 119.182 142.440, 119.243 142.809, 120.329 143.041, 121.498 143.248, 122.535 143.263, 122.771 143.389, 124.702 143.395, 124.780 143.389, 124.857 143.263, 126.788 143.247, 127.024 143.041, 128.061 142.808, 129.230 142.439, 130.316 142.419, 130.377 142.085, 131.360 141.589, 132.366 141.475, 132.597 141.434, 132.680 141.281, 132.990 141.090, 133.377 139.840, 135.248 138.357, 136.938 136.665, 138.421 134.795, 139.670 132.778, 140.665 130.648, 141.388 128.442, 141.826 " />
            <path fill="none" stroke-width="3.0" stroke-linecap="butt" stroke-opacity="1.0" stroke="rgb(0, 0, 0)" stroke-linejoin="round" d=" M 127.789, 137.153 126.152, 137.260 124.515, 137.152 122.906, 136.832 121.353, 136.305 119.882, 135.579 118.518, 134.668 117.285, 133.586 116.204, 132.353 115.292, 130.989 114.567, 129.518 114.040, 127.965 113.720, 126.356 113.612, 124.719 113.719, 123.082 114.039, 121.474 114.567, 119.920 115.292, 118.449 116.203, 117.085 117.285, 115.852 118.518, 114.770 119.882, 113.858 121.353, 113.133 122.906, 112.605 124.515, 112.285 126.152, 112.178 127.789, 112.285 129.398, 112.605 130.952, 113.132 132.423, 113.857 133.787, 114.769 135.021, 115.850 136.103, 117.084 137.014, 118.448 137.740, 119.919 138.267, 121.473 138.587, 123.082 138.695, 124.719 138.587, 126.356 138.267, 127.965 137.739, 129.519 137.014, 130.990 136.102, 132.354 135.020, 133.587 133.787, 134.669 132.423, 135.580 130.951, 136.306 129.398, 136.833 127.789, 137.153 " />
            <path fill="none" stroke-width="3.0" stroke-linecap="butt" stroke-opacity="1.0" stroke="rgb(0, 0, 0)" stroke-linejoin="round" d=" M 128.062, 139.106 126.171, 139.230 124.280, 139.106 122.422, 138.736 120.628, 138.127 118.929, 137.288 117.353, 136.236 115.929, 134.986 114.680, 133.562 113.627, 131.986 112.789, 130.287 112.180, 128.493 111.811, 126.635 111.687, 124.744 111.810, 122.854 112.180, 120.995 112.789, 119.201 113.627, 117.502 114.679, 115.926 115.928, 114.502 117.353, 113.252 118.928, 112.199 120.628, 111.361 122.422, 110.752 124.280, 110.382 126.171, 110.258 128.062, 110.381 129.921, 110.751 131.715, 111.360 133.415, 112.198 134.991, 113.250 136.416, 114.500 137.665, 115.925 138.718, 117.500 139.556, 119.200 140.166, 120.995 140.535, 122.853 140.659, 124.744 140.535, 126.635 140.165, 128.494 139.556, 130.289 138.717, 131.988 137.664, 133.564 136.415, 134.988 134.990, 136.237 133.414, 137.290 131.715, 138.128 129.920, 138.737 128.062, 139.106 " />
            <path fill="none" stroke-width="3.0" stroke-linecap="butt" stroke-opacity="1.0" stroke="rgb(0, 0, 0)" stroke-linejoin="round" d=" M 69.671, 155.707 69.670, 154.930 69.670, 154.063 69.670, 152.504 69.668, 142.504 69.666, 132.504 69.664, 122.504 69.662, 112.504 69.660, 102.504 69.659, 96.037 69.658, 95.074 " />
            <path fill="none" stroke-width="3.0" stroke-linecap="butt" stroke-opacity="1.0" stroke="rgb(0, 0, 0)" stroke-linejoin="round" d=" M 89.045, 133.232 89.043, 123.232 89.043, 116.873 " />
            <path fill="none" stroke-width="3.0" stroke-linecap="butt" stroke-opacity="1.0" stroke="rgb(0, 0, 0)" stroke-linejoin="round" d=" M 89.680, 135.824 89.679, 125.824 89.678, 115.824 89.677, 114.281 " />
            <path fill="none" stroke-width="3.0" stroke-linecap="butt" stroke-opacity="1.0" stroke="rgb(0, 0, 0)" stroke-linejoin="round" d=" M 101.091, 135.010 101.090, 125.010 101.089, 115.010 101.089, 114.806 " />
            <path fill="none" stroke-width="3.0" stroke-linecap="butt" stroke-opacity="1.0" stroke="rgb(0, 0, 0)" stroke-linejoin="round" d=" M 105.784, 129.783 105.784, 129.212 105.784, 120.226 105.783, 119.876 " />
            <path fill="none" stroke-width="3.0" stroke-linecap="butt" stroke-opacity="1.0" stroke="rgb(0, 0, 0)" stroke-linejoin="round" d=" M 109.032, 125.184 109.032, 124.375 " />
            <path fill="none" stroke-width="3.0" stroke-linecap="butt" stroke-opacity="1.0" stroke="rgb(0, 0, 0)" stroke-linejoin="round" d=" M 143.041, 121.498 143.041, 128.061 " />
            <path fill="none" stroke-width="3.0" stroke-linecap="butt" stroke-opacity="1.0" stroke="rgb(0, 0, 0)" stroke-linejoin="round" d=" M 146.294, 118.487 146.294, 119.157 146.293, 129.157 146.293, 130.281 146.293, 131.173 " />
            <path fill="none" stroke-width="3.0" stroke-linecap="butt" stroke-opacity="1.0" stroke="rgb(0, 0, 0)" stroke-linejoin="round" d=" M 150.995, 113.660 150.994, 123.660 150.993, 133.660 150.993, 136.157 " />
            <path fill="none" stroke-width="3.0" stroke-linecap="butt" stroke-opacity="1.0" stroke="rgb(0, 0, 0)" stroke-linejoin="round" d=" M 153.258, 128.292 153.259, 121.526 " />
            <path fill="none" stroke-width="3.0" stroke-linecap="butt" stroke-opacity="1.0" stroke="rgb(0, 0, 0)" stroke-linejoin="round" d=" M 162.422, 137.980 162.424, 127.980 162.425, 117.980 162.426, 112.126 " />
            <path fill="none" stroke-width="3.0" stroke-linecap="butt" stroke-opacity="1.0" stroke="rgb(0, 0, 0)" stroke-linejoin="round" d=" M 163.062, 114.000 163.060, 124.000 163.059, 134.000 163.059, 136.106 " />
        </g>
    </g>
</svg>
