<?xml version='1.0' encoding='ascii'?>
<svg xmlns="http://www.w3.org/2000/svg" version="1.1" width="250" height="250">
    <g id="ViewLayer_LineSet" xmlns:inkscape="http://www.inkscape.org/namespaces/inkscape" inkscape:groupmode="lineset" inkscape:label="ViewLayer_LineSet">
        <g xmlns:inkscape="http://www.inkscape.org/namespaces/inkscape" inkscape:groupmode="layer" id="strokes" inkscape:label="strokes">
            <path fill="none" stroke-width="3.0" stroke-linecap="butt" stroke-opacity="1.0" stroke="rgb(0, 0, 0)" stroke-linejoin="round" d=" M 138.103, 210.984 128.124, 211.630 126.872, 211.712 116.894, 211.050 115.642, 210.967 105.835, 209.010 104.607, 208.765 95.139, 205.545 93.953, 205.141 84.987, 200.714 83.865, 200.160 75.553, 194.600 74.513, 193.905 66.997, 187.309 66.057, 186.484 59.466, 178.964 58.642, 178.025 53.087, 169.709 52.393, 168.670 51.087, 166.021 49.571, 162.946 48.613, 161.003 47.418, 158.581 44.204, 149.112 43.802, 147.929 41.849, 138.121 41.605, 136.896 40.949, 126.917 40.867, 125.670 41.517, 115.692 41.599, 114.444 43.545, 104.635 43.789, 103.409 46.998, 93.938 47.400, 92.752 48.593, 90.329 51.050, 85.340 51.593, 84.237 51.738, 83.943 52.371, 82.657 52.402, 82.610 53.615, 80.792 58.616, 73.297 65.205, 65.773 66.031, 64.830 73.545, 58.231 74.488, 57.402 82.798, 51.840 83.843, 51.141 92.808, 46.711 93.936, 46.154 103.402, 42.932 104.594, 42.527 114.401, 40.568 115.636, 40.322 125.614, 39.660 126.873, 39.577 136.852, 40.224 138.112, 40.305 147.921, 42.250 149.160, 42.496 158.631, 45.704 159.829, 46.110 168.800, 50.528 169.935, 51.087 178.252, 56.639 179.305, 57.342 186.825, 63.933 187.778, 64.768 194.373, 72.285 195.209, 73.237 199.749, 80.030 201.438, 82.557 201.470, 82.604 203.611, 86.946 206.453, 92.709 209.667, 102.179 210.074, 103.379 212.024, 113.187 212.270, 114.429 212.922, 124.408 213.004, 125.672 212.347, 135.651 212.263, 136.914 210.308, 146.721 210.060, 147.962 206.841, 157.430 206.434, 158.627 204.140, 163.270 202.403, 166.788 201.445, 168.726 195.884, 177.037 195.181, 178.087 188.582, 185.601 187.750, 186.549 180.226, 193.136 179.277, 193.967 170.958, 199.516 169.910, 200.215 160.938, 204.631 159.808, 205.187 150.337, 208.393 149.145, 208.797 139.336, 210.740 138.103, 210.984 " />
            <path fill="none" stroke-width="3.0" stroke-linecap="butt" stroke-opacity="1.0" stroke="rgb(0, 0, 0)" stroke-linejoin="round" d=" M 199.729, 251.849 208.051, 246.304 215.585, 241.285 223.112, 234.701 229.928, 228.739 236.531, 221.229 242.512, 214.426 248.078, 206.117 253.121, 198.589 " />
            <path fill="none" stroke-width="3.0" stroke-linecap="butt" stroke-opacity="1.0" stroke="rgb(0, 0, 0)" stroke-linejoin="round" d=" M 250.779, 49.208 245.221, 40.894 242.589, 36.958 235.993, 29.442 230.008, 22.623 222.486, 16.034 215.662, 10.057 207.344, 4.508 199.799, -0.526 " />
            <path fill="none" stroke-width="3.0" stroke-linecap="butt" stroke-opacity="1.0" stroke="rgb(0, 0, 0)" stroke-linejoin="round" d=" M 54.111, -0.370 45.804, 5.196 38.291, 10.230 30.781, 16.833 23.992, 22.802 17.408, 30.329 11.457, 37.130 5.911, 45.451 2.818, 50.092 " />
            <path fill="none" stroke-width="3.0" stroke-linecap="butt" stroke-opacity="1.0" stroke="rgb(0, 0, 0)" stroke-linejoin="round" d=" M -0.845, 194.755 0.967, 198.429 6.520, 206.745 11.531, 214.248 18.121, 221.770 24.068, 228.556 31.583, 235.154 38.364, 241.109 46.675, 246.670 54.177, 251.691 " />
            <path fill="none" stroke-width="3.0" stroke-linecap="butt" stroke-opacity="1.0" stroke="rgb(0, 0, 0)" stroke-linejoin="round" d=" M -0.845, 194.755 7.905, 189.914 14.769, 186.116 14.765, 176.116 14.761, 166.116 14.756, 156.116 14.752, 146.116 14.748, 136.116 14.744, 126.116 14.740, 116.116 14.736, 106.116 14.732, 96.116 14.728, 86.116 14.724, 76.116 14.720, 66.116 14.717, 57.283 6.158, 52.110 2.818, 50.092 -5.741, 44.919 -14.299, 39.747 -22.857, 34.574 -31.416, 29.402 -39.974, 24.229 -48.533, 19.057 -50.973, 17.582 " />
            <path fill="none" stroke-width="3.0" stroke-linecap="butt" stroke-opacity="1.0" stroke="rgb(0, 0, 0)" stroke-linejoin="round" d=" M 250.779, 49.208 242.219, 54.378 237.621, 57.155 237.617, 67.155 237.613, 77.155 237.609, 87.155 237.605, 97.155 237.601, 107.155 237.596, 117.155 237.592, 127.155 237.588, 137.155 237.584, 147.155 237.580, 157.155 237.576, 167.155 237.571, 177.155 237.568, 186.233 246.319, 191.072 254.579, 195.640 " />
            <path fill="none" stroke-width="3.0" stroke-linecap="butt" stroke-opacity="1.0" stroke="rgb(0, 0, 0)" stroke-linejoin="round" d=" M 130.287, 155.031 126.326, 155.290 122.366, 155.029 118.474, 154.254 114.717, 152.978 111.158, 151.222 107.859, 149.017 104.876, 146.400 102.260, 143.416 100.056, 140.117 99.392, 138.771 98.993, 137.963 98.831, 137.635 98.301, 136.558 97.364, 133.799 97.025, 132.801 96.251, 128.909 96.118, 126.888 95.991, 124.950 96.118, 123.012 96.250, 120.990 97.023, 117.098 97.362, 116.100 98.298, 113.340 98.829, 112.263 99.623, 110.652 99.820, 110.254 100.053, 109.781 100.335, 109.358 100.492, 109.123 102.257, 106.480 104.873, 103.496 107.856, 100.878 111.155, 98.673 114.715, 96.916 118.473, 95.639 122.366, 94.864 126.327, 94.603 130.288, 94.862 134.181, 95.635 137.941, 96.911 141.502, 98.666 144.803, 100.871 147.788, 103.488 150.406, 106.473 152.109, 109.021 152.612, 109.774 152.765, 110.083 153.258, 111.085 154.368, 113.335 154.726, 114.389 155.644, 117.094 155.974, 118.755 156.404, 120.914 156.408, 120.938 156.418, 120.988 156.678, 124.950 156.418, 128.911 156.408, 128.962 156.403, 128.986 155.973, 131.144 155.642, 132.805 154.724, 135.510 154.366, 136.564 153.558, 138.201 153.273, 138.778 153.256, 138.814 152.609, 140.124 150.403, 143.424 147.785, 146.408 144.799, 149.024 141.499, 151.229 137.938, 152.983 134.179, 154.258 130.287, 155.031 " />
            <path fill="none" stroke-width="3.0" stroke-linecap="butt" stroke-opacity="1.0" stroke="rgb(0, 0, 0)" stroke-linejoin="round" d=" M 60.718, 160.693 61.642, 162.566 67.081, 170.708 73.535, 178.072 80.896, 184.531 89.036, 189.974 97.817, 194.310 107.090, 197.463 116.695, 199.379 126.469, 200.026 136.245, 199.391 145.855, 197.487 155.135, 194.344 163.926, 190.016 172.078, 184.577 179.451, 178.120 185.918, 170.755 191.369, 162.608 192.114, 161.099 " />
            <path fill="none" stroke-width="3.0" stroke-linecap="butt" stroke-opacity="1.0" stroke="rgb(0, 0, 0)" stroke-linejoin="round" d=" M 132.335, 169.694 126.469, 170.076 120.604, 169.689 114.840, 168.541 109.275, 166.650 104.004, 164.049 99.119, 160.783 94.701, 156.907 90.827, 152.488 87.562, 147.602 86.880, 146.218 86.114, 144.666 85.478, 143.375 84.963, 142.331 84.672, 141.473 83.847, 139.044 83.074, 136.766 81.927, 131.003 81.542, 125.139 81.925, 119.274 83.070, 113.510 83.843, 111.232 84.667, 108.802 84.958, 107.944 85.473, 106.900 87.556, 102.672 87.612, 102.588 88.206, 101.698 90.820, 97.784 94.694, 93.363 99.112, 89.485 103.998, 86.218 109.270, 83.615 114.836, 81.723 120.603, 80.574 126.470, 80.187 132.337, 80.569 138.105, 81.715 143.675, 83.603 148.950, 86.203 153.840, 89.469 158.263, 93.346 162.141, 97.767 164.511, 101.314 165.353, 102.574 165.409, 102.657 166.636, 105.145 167.446, 106.787 168.011, 107.932 168.272, 108.701 169.901, 113.502 171.048, 119.270 171.432, 125.139 171.046, 131.008 169.897, 136.775 168.266, 141.575 168.005, 142.344 167.440, 143.488 166.809, 144.768 165.902, 146.605 165.402, 147.617 162.134, 152.505 158.255, 156.924 153.833, 160.799 148.943, 164.064 143.669, 166.662 138.101, 168.549 132.335, 169.694 " />
            <path fill="none" stroke-width="3.0" stroke-linecap="butt" stroke-opacity="1.0" stroke="rgb(0, 0, 0)" stroke-linejoin="round" d=" M 190.159, 85.822 185.939, 79.508 179.472, 72.137 172.099, 65.675 163.945, 60.231 155.150, 55.899 145.866, 52.753 136.251, 50.846 126.470, 50.211 116.691, 50.858 107.080, 52.776 97.804, 55.933 89.019, 60.272 80.876, 65.721 73.515, 72.185 67.061, 79.553 62.608, 86.227 " />
            <path fill="none" stroke-width="3.0" stroke-linecap="butt" stroke-opacity="1.0" stroke="rgb(0, 0, 0)" stroke-linejoin="round" d=" M 164.511, 101.314 162.424, 102.574 162.424, 104.143 162.424, 104.854 162.423, 112.734 162.421, 122.734 162.420, 132.734 162.420, 136.973 162.419, 142.592 162.419, 143.243 162.418, 144.679 165.902, 146.605 " />
            <path fill="none" stroke-width="3.0" stroke-linecap="butt" stroke-opacity="1.0" stroke="rgb(0, 0, 0)" stroke-linejoin="round" d=" M 86.880, 146.218 89.684, 144.666 89.684, 143.231 89.684, 142.580 89.683, 135.706 89.682, 125.706 89.680, 115.706 89.680, 114.000 89.679, 104.867 89.679, 104.156 89.679, 102.588 88.206, 101.698 " />
            <path fill="none" stroke-width="3.0" stroke-linecap="butt" stroke-opacity="1.0" stroke="rgb(0, 0, 0)" stroke-linejoin="round" d=" M 199.749, 80.030 195.562, 82.559 195.562, 83.893 195.561, 86.915 195.559, 96.118 195.556, 106.118 195.553, 116.118 195.551, 126.118 195.548, 136.118 195.545, 146.118 195.543, 154.154 195.542, 159.009 195.541, 161.774 195.541, 162.994 202.403, 166.788 " />
            <path fill="none" stroke-width="3.0" stroke-linecap="butt" stroke-opacity="1.0" stroke="rgb(0, 0, 0)" stroke-linejoin="round" d=" M 51.087, 166.021 56.641, 162.949 56.641, 161.729 56.640, 158.966 56.638, 151.801 56.636, 141.801 56.633, 131.801 56.631, 121.801 56.628, 111.801 56.625, 101.801 56.625, 98.470 56.622, 88.470 56.622, 86.961 56.621, 83.941 56.621, 82.608 53.615, 80.792 " />
            <path fill="none" stroke-width="3.0" stroke-linecap="butt" stroke-opacity="1.0" stroke="rgb(0, 0, 0)" stroke-linejoin="round" d=" M 56.641, 161.729 58.843, 161.730 60.718, 160.693 69.468, 155.852 71.139, 154.927 71.137, 144.927 71.135, 134.927 71.133, 124.927 71.131, 114.927 71.129, 104.927 71.127, 94.927 71.126, 91.375 62.608, 86.227 58.824, 83.940 56.621, 83.941 " />
            <path fill="none" stroke-width="3.0" stroke-linecap="butt" stroke-opacity="1.0" stroke="rgb(0, 0, 0)" stroke-linejoin="round" d=" M 58.843, 161.730 58.842, 156.889 58.840, 146.889 58.837, 136.889 58.835, 126.889 58.832, 116.889 58.830, 106.889 58.827, 96.889 58.827, 93.381 58.824, 83.940 " />
            <path fill="none" stroke-width="3.0" stroke-linecap="butt" stroke-opacity="1.0" stroke="rgb(0, 0, 0)" stroke-linejoin="round" d=" M 195.562, 83.893 193.352, 83.894 190.159, 85.822 181.599, 90.992 181.017, 91.344 181.015, 101.344 181.013, 111.344 181.011, 121.344 181.009, 131.344 181.007, 141.344 181.005, 151.344 181.004, 154.956 189.755, 159.795 192.114, 161.099 193.332, 161.773 195.541, 161.774 " />
            <path fill="none" stroke-width="3.0" stroke-linecap="butt" stroke-opacity="1.0" stroke="rgb(0, 0, 0)" stroke-linejoin="round" d=" M 193.332, 161.773 193.333, 158.630 193.336, 148.630 193.338, 138.630 193.341, 128.630 193.343, 118.630 193.346, 108.630 193.348, 98.630 193.350, 91.640 193.352, 83.894 " />
            <path fill="none" stroke-width="3.0" stroke-linecap="butt" stroke-opacity="1.0" stroke="rgb(0, 0, 0)" stroke-linejoin="round" d=" M 129.246, 147.584 126.254, 147.780 123.261, 147.583 120.320, 146.998 117.481, 146.033 114.792, 144.707 112.298, 143.040 110.044, 141.063 108.067, 138.809 106.402, 136.315 106.053, 135.609 105.881, 135.259 105.833, 135.162 105.599, 134.688 105.352, 134.188 105.075, 133.626 104.642, 132.350 104.447, 131.774 104.320, 131.400 104.111, 130.787 103.526, 127.846 103.330, 124.854 103.526, 121.861 104.111, 118.920 104.319, 118.307 104.446, 117.932 104.641, 117.357 105.074, 116.081 105.351, 115.519 105.926, 114.353 106.264, 113.667 106.400, 113.391 106.680, 112.971 106.684, 112.965 108.066, 110.897 110.042, 108.642 112.297, 106.665 114.790, 104.998 117.480, 103.671 120.319, 102.706 123.261, 102.120 126.254, 101.924 129.247, 102.119 132.189, 102.704 135.029, 103.668 137.720, 104.994 140.214, 106.660 142.470, 108.638 144.448, 110.893 145.656, 112.702 145.763, 112.862 145.834, 112.968 146.114, 113.387 146.230, 113.621 146.727, 114.630 147.437, 116.068 147.441, 116.078 147.632, 116.641 147.761, 117.019 148.405, 118.918 148.991, 121.860 149.122, 123.861 149.186, 124.854 149.121, 125.846 148.990, 127.847 148.404, 130.789 147.759, 132.688 147.631, 133.067 147.440, 133.629 147.435, 133.639 146.830, 134.866 146.726, 135.077 146.682, 135.166 146.634, 135.263 146.367, 135.803 146.113, 136.319 144.446, 138.813 142.468, 141.068 140.212, 143.045 137.718, 144.711 135.028, 146.036 132.188, 147.000 129.246, 147.584 " />
            <path fill="none" stroke-width="3.0" stroke-linecap="butt" stroke-opacity="1.0" stroke="rgb(0, 0, 0)" stroke-linejoin="round" d=" M 128.612, 143.046 126.209, 143.203 123.807, 143.045 121.445, 142.575 119.165, 141.801 117.006, 140.736 115.004, 139.398 113.194, 137.810 111.607, 136.000 110.269, 133.998 109.990, 133.431 109.824, 133.095 109.760, 132.965 109.634, 132.709 109.205, 131.839 108.811, 130.678 108.686, 130.310 108.431, 129.559 108.012, 127.455 107.961, 127.198 107.876, 125.910 107.803, 124.795 107.876, 123.680 107.961, 122.393 108.012, 122.135 108.430, 120.031 108.685, 119.280 108.810, 118.912 109.204, 117.751 109.633, 116.880 109.759, 116.625 110.268, 115.592 110.510, 115.230 110.535, 115.193 111.606, 113.589 113.193, 111.779 115.003, 110.191 117.005, 108.853 119.165, 107.787 121.445, 107.013 123.807, 106.543 126.210, 106.385 128.613, 106.542 130.975, 107.012 133.255, 107.785 135.415, 108.850 137.418, 110.188 139.229, 111.776 140.817, 113.587 141.787, 115.039 141.913, 115.227 142.155, 115.589 142.314, 115.911 142.440, 116.167 143.220, 117.749 143.263, 117.875 143.389, 118.246 143.994, 120.030 144.063, 120.375 144.198, 121.052 144.338, 121.760 144.464, 122.392 144.622, 124.795 144.464, 127.198 144.338, 127.831 144.197, 128.538 144.062, 129.215 143.994, 129.560 143.388, 131.344 143.262, 131.716 143.219, 131.841 142.599, 133.098 142.439, 133.423 142.371, 133.561 142.154, 134.001 140.816, 136.003 139.227, 137.813 137.417, 139.401 135.414, 140.738 133.254, 141.803 130.974, 142.576 128.612, 143.046 " />
            <path fill="none" stroke-width="3.0" stroke-linecap="butt" stroke-opacity="1.0" stroke="rgb(0, 0, 0)" stroke-linejoin="round" d=" M 127.878, 137.789 126.158, 137.902 124.439, 137.789 122.748, 137.453 121.117, 136.899 119.571, 136.136 118.139, 135.179 116.843, 134.043 115.707, 132.747 114.750, 131.314 113.987, 129.769 113.434, 128.137 113.097, 126.447 112.985, 124.727 113.097, 123.008 113.433, 121.318 113.987, 119.686 114.749, 118.140 115.706, 116.707 116.842, 115.412 118.138, 114.275 119.571, 113.318 121.116, 112.555 122.748, 112.001 124.439, 111.665 126.158, 111.552 127.878, 111.664 129.569, 112.000 131.201, 112.554 132.747, 113.316 134.180, 114.274 135.476, 115.410 136.612, 116.706 137.570, 118.139 138.332, 119.685 138.886, 121.317 139.222, 123.008 139.335, 124.727 139.222, 126.447 138.886, 128.138 138.332, 129.770 137.569, 131.316 136.611, 132.748 135.475, 134.044 134.179, 135.180 132.746, 136.138 131.200, 136.900 129.568, 137.453 127.878, 137.789 " />
            <path fill="none" stroke-width="3.0" stroke-linecap="butt" stroke-opacity="1.0" stroke="rgb(0, 0, 0)" stroke-linejoin="round" d=" M 128.181, 139.962 126.179, 140.093 124.177, 139.962 122.210, 139.570 120.310, 138.925 118.511, 138.038 116.843, 136.923 115.335, 135.600 114.012, 134.092 112.897, 132.424 112.010, 130.625 111.365, 128.725 110.974, 126.757 110.843, 124.755 110.974, 122.754 111.365, 120.786 112.010, 118.886 112.897, 117.087 114.011, 115.418 115.334, 113.910 116.842, 112.587 118.510, 111.472 120.310, 110.584 122.209, 109.939 124.177, 109.547 126.180, 109.416 128.182, 109.547 130.150, 109.938 132.050, 110.583 133.850, 111.470 135.518, 112.585 137.027, 113.908 138.350, 115.417 139.465, 117.085 140.353, 118.885 140.998, 120.785 141.389, 122.753 141.475, 124.064 141.520, 124.755 141.475, 125.447 141.389, 126.758 140.997, 128.726 140.352, 130.626 139.464, 132.426 138.349, 134.094 137.026, 135.602 135.517, 136.925 133.849, 138.040 132.049, 138.927 130.149, 139.571 128.181, 139.962 " />
            <path fill="none" stroke-width="3.0" stroke-linecap="butt" stroke-opacity="1.0" stroke="rgb(0, 0, 0)" stroke-linejoin="round" d=" M 83.847, 139.044 83.846, 129.044 83.844, 119.044 83.843, 111.232 " />
            <path fill="none" stroke-width="3.0" stroke-linecap="butt" stroke-opacity="1.0" stroke="rgb(0, 0, 0)" stroke-linejoin="round" d=" M 84.672, 141.473 84.670, 131.473 84.669, 121.473 84.667, 111.473 84.667, 108.802 " />
            <path fill="none" stroke-width="3.0" stroke-linecap="butt" stroke-opacity="1.0" stroke="rgb(0, 0, 0)" stroke-linejoin="round" d=" M 96.118, 126.888 96.118, 123.012 " />
            <path fill="none" stroke-width="3.0" stroke-linecap="butt" stroke-opacity="1.0" stroke="rgb(0, 0, 0)" stroke-linejoin="round" d=" M 98.831, 137.635 98.831, 127.635 98.830, 117.635 98.829, 112.263 " />
            <path fill="none" stroke-width="3.0" stroke-linecap="butt" stroke-opacity="1.0" stroke="rgb(0, 0, 0)" stroke-linejoin="round" d=" M 104.320, 131.400 104.319, 126.492 104.319, 122.963 104.319, 118.307 " />
            <path fill="none" stroke-width="3.0" stroke-linecap="butt" stroke-opacity="1.0" stroke="rgb(0, 0, 0)" stroke-linejoin="round" d=" M 108.012, 127.455 108.012, 122.135 " />
            <path fill="none" stroke-width="3.0" stroke-linecap="butt" stroke-opacity="1.0" stroke="rgb(0, 0, 0)" stroke-linejoin="round" d=" M 141.475, 124.064 141.475, 125.447 " />
            <path fill="none" stroke-width="3.0" stroke-linecap="butt" stroke-opacity="1.0" stroke="rgb(0, 0, 0)" stroke-linejoin="round" d=" M 144.063, 120.375 144.062, 129.215 " />
            <path fill="none" stroke-width="3.0" stroke-linecap="butt" stroke-opacity="1.0" stroke="rgb(0, 0, 0)" stroke-linejoin="round" d=" M 147.761, 117.019 147.760, 120.991 147.760, 128.464 147.759, 132.688 " />
            <path fill="none" stroke-width="3.0" stroke-linecap="butt" stroke-opacity="1.0" stroke="rgb(0, 0, 0)" stroke-linejoin="round" d=" M 153.258, 111.085 153.257, 121.085 153.256, 131.085 153.256, 138.051 153.256, 138.778 153.256, 138.814 " />
            <path fill="none" stroke-width="3.0" stroke-linecap="butt" stroke-opacity="1.0" stroke="rgb(0, 0, 0)" stroke-linejoin="round" d=" M 155.973, 131.144 155.974, 121.144 155.974, 118.755 " />
            <path fill="none" stroke-width="3.0" stroke-linecap="butt" stroke-opacity="1.0" stroke="rgb(0, 0, 0)" stroke-linejoin="round" d=" M 156.404, 120.914 156.403, 128.986 " />
            <path fill="none" stroke-width="3.0" stroke-linecap="butt" stroke-opacity="1.0" stroke="rgb(0, 0, 0)" stroke-linejoin="round" d=" M 167.440, 143.488 167.442, 133.488 167.443, 123.488 167.445, 113.488 167.446, 106.787 " />
            <path fill="none" stroke-width="3.0" stroke-linecap="butt" stroke-opacity="1.0" stroke="rgb(0, 0, 0)" stroke-linejoin="round" d=" M 168.272, 108.701 168.270, 118.701 168.268, 128.701 168.267, 138.701 168.266, 141.575 " />
        </g>
    </g>
</svg>
