<?xml version='1.0' encoding='ascii'?>
<svg xmlns="http://www.w3.org/2000/svg" version="1.1" width="250" height="250">
    <g id="ViewLayer_LineSet" xmlns:inkscape="http://www.inkscape.org/namespaces/inkscape" inkscape:groupmode="lineset" inkscape:label="ViewLayer_LineSet">
        <g xmlns:inkscape="http://www.inkscape.org/namespaces/inkscape" inkscape:groupmode="layer" id="strokes" inkscape:label="strokes">
            <path fill="none" stroke-width="3.0" stroke-linecap="butt" stroke-opacity="1.0" stroke="rgb(0, 0, 0)" stroke-linejoin="round" d=" M 24.824, 180.552 26.270, 183.483 31.824, 191.799 34.697, 196.101 41.288, 203.622 44.699, 207.513 52.214, 214.110 56.103, 217.525 64.415, 223.085 68.717, 225.963 77.683, 230.393 82.324, 232.686 91.791, 235.908 96.694, 237.577 106.500, 239.536 111.581, 240.551 121.559, 241.215 126.730, 241.559 136.709, 240.915 141.883, 240.581 151.693, 238.641 156.781, 237.635 166.253, 234.430 171.169, 232.768 180.142, 228.355 184.800, 226.064 193.121, 220.517 197.442, 217.637 204.967, 211.051 208.876, 207.630 215.477, 200.118 218.908, 196.214 224.471, 187.905 227.363, 183.585 228.525, 181.233 " />
            <path fill="none" stroke-width="3.0" stroke-linecap="butt" stroke-opacity="1.0" stroke="rgb(0, 0, 0)" stroke-linejoin="round" d=" M 135.740, 194.064 126.707, 194.650 117.675, 194.053 108.800, 192.283 100.231, 189.369 92.117, 185.364 84.595, 180.334 77.793, 174.366 71.829, 167.562 66.803, 160.038 65.752, 157.907 65.481, 157.358 65.040, 156.464 64.381, 155.127 62.801, 151.923 61.686, 148.637 59.893, 143.355 59.882, 143.304 58.126, 134.481 57.533, 125.453 58.122, 116.423 59.874, 107.598 59.884, 107.548 61.675, 102.264 62.789, 98.977 66.162, 92.129 66.731, 90.975 66.788, 90.859 67.565, 89.695 71.812, 83.331 77.776, 76.522 84.579, 70.550 92.102, 65.516 100.220, 61.506 108.792, 58.591 117.672, 56.819 126.708, 56.221 135.745, 56.808 144.629, 58.570 153.208, 61.478 161.333, 65.481 168.867, 70.511 175.680, 76.482 181.654, 83.292 185.424, 88.933 185.910, 89.660 186.688, 90.824 187.036, 91.530 190.490, 98.532 190.695, 98.949 192.296, 103.665 193.607, 107.528 195.373, 116.414 195.964, 125.454 195.368, 134.493 193.598, 143.377 192.285, 147.239 190.683, 151.953 190.477, 152.370 188.839, 155.687 188.439, 156.497 187.997, 157.392 187.442, 158.516 186.672, 160.074 181.637, 167.602 175.661, 174.407 168.849, 180.374 161.317, 185.400 153.194, 189.399 144.619, 192.303 135.740, 194.064 " />
            <path fill="none" stroke-width="3.0" stroke-linecap="butt" stroke-opacity="1.0" stroke="rgb(0, 0, 0)" stroke-linejoin="round" d=" M 225.485, 64.485 219.928, 56.171 218.957, 54.718 212.361, 47.202 208.927, 43.290 201.406, 36.700 197.491, 33.270 189.173, 27.719 184.845, 24.830 175.873, 20.414 171.205, 18.116 161.733, 14.909 156.807, 13.241 146.998, 11.299 141.897, 10.289 131.918, 9.645 126.731, 9.310 116.753, 9.974 111.569, 10.319 101.764, 12.280 96.671, 13.298 87.205, 16.523 82.291, 18.197 73.327, 22.629 68.675, 24.929 60.367, 30.493 56.057, 33.380 48.545, 39.981 44.650, 43.403 38.064, 50.928 34.650, 54.828 29.102, 63.148 27.757, 65.164 " />
            <path fill="none" stroke-width="3.0" stroke-linecap="butt" stroke-opacity="1.0" stroke="rgb(0, 0, 0)" stroke-linejoin="round" d=" M -4.902, 192.774 2.727, 192.779 11.477, 187.937 20.227, 183.096 24.824, 180.552 33.574, 175.711 38.649, 172.904 38.645, 162.904 38.642, 152.904 38.639, 142.904 38.636, 132.904 38.633, 122.904 38.630, 112.904 38.626, 102.904 38.623, 92.904 38.620, 82.904 38.617, 72.904 38.616, 71.727 30.058, 66.555 27.757, 65.164 19.199, 59.992 10.641, 54.819 2.663, 49.998 -4.970, 50.003 " />
            <path fill="none" stroke-width="3.0" stroke-linecap="butt" stroke-opacity="1.0" stroke="rgb(0, 0, 0)" stroke-linejoin="round" d=" M 2.727, 192.779 2.722, 182.779 2.718, 172.779 2.713, 162.779 2.709, 152.779 2.704, 142.779 2.700, 132.779 2.696, 122.779 2.691, 112.779 2.687, 102.779 2.682, 92.779 2.678, 82.779 2.673, 72.779 2.669, 62.779 2.664, 52.779 2.663, 49.998 " />
            <path fill="none" stroke-width="3.0" stroke-linecap="butt" stroke-opacity="1.0" stroke="rgb(0, 0, 0)" stroke-linejoin="round" d=" M 257.401, 49.836 249.731, 49.841 241.171, 55.011 232.611, 60.181 225.485, 64.485 216.925, 69.655 213.625, 71.648 213.622, 81.648 213.619, 91.648 213.616, 101.648 213.612, 111.648 213.609, 121.648 213.606, 131.648 213.603, 141.648 213.599, 151.648 213.596, 161.648 213.593, 171.648 213.592, 172.976 222.344, 177.815 228.525, 181.233 237.276, 186.072 246.028, 190.911 249.665, 192.923 257.331, 192.927 " />
            <path fill="none" stroke-width="3.0" stroke-linecap="butt" stroke-opacity="1.0" stroke="rgb(0, 0, 0)" stroke-linejoin="round" d=" M 249.665, 192.923 249.670, 182.923 249.674, 172.923 249.679, 162.923 249.683, 152.923 249.688, 142.923 249.693, 132.923 249.697, 122.923 249.702, 112.923 249.706, 102.923 249.711, 92.923 249.715, 82.923 249.720, 72.923 249.725, 62.923 249.729, 52.923 249.731, 49.841 " />
            <path fill="none" stroke-width="3.0" stroke-linecap="butt" stroke-opacity="1.0" stroke="rgb(0, 0, 0)" stroke-linejoin="round" d=" M 129.950, 152.622 126.303, 152.860 122.656, 152.620 119.071, 151.907 115.611, 150.731 112.333, 149.114 109.295, 147.083 106.548, 144.674 104.138, 141.926 102.108, 138.887 101.635, 137.928 101.143, 136.931 101.076, 136.794 100.535, 135.696 100.492, 135.610 99.317, 132.149 99.065, 130.881 98.604, 128.565 98.365, 124.919 98.604, 121.272 99.064, 118.956 99.316, 117.688 100.490, 114.227 100.533, 114.141 101.074, 113.042 101.335, 112.513 101.853, 111.462 101.861, 111.447 101.992, 111.181 102.061, 111.039 102.106, 110.949 102.511, 110.343 104.136, 107.909 106.545, 105.161 109.293, 102.750 112.331, 100.719 115.609, 99.101 119.070, 97.925 122.655, 97.211 126.303, 96.971 129.951, 97.210 133.537, 97.922 136.999, 99.097 140.278, 100.713 143.319, 102.744 146.068, 105.154 148.479, 107.903 149.952, 110.108 150.222, 110.513 150.510, 110.943 150.555, 111.034 150.625, 111.175 150.650, 111.228 150.747, 111.424 151.008, 111.954 151.552, 113.057 152.127, 114.222 153.022, 116.857 153.302, 117.684 153.924, 120.809 154.015, 121.270 154.254, 124.919 154.015, 128.567 153.923, 129.028 153.301, 132.153 153.020, 132.980 152.125, 135.615 151.550, 136.780 151.381, 137.122 150.981, 137.933 150.507, 138.893 148.476, 141.932 146.065, 144.680 143.316, 147.090 140.276, 149.120 136.997, 150.736 133.535, 151.910 129.950, 152.622 " />
            <path fill="none" stroke-width="3.0" stroke-linecap="butt" stroke-opacity="1.0" stroke="rgb(0, 0, 0)" stroke-linejoin="round" d=" M 68.005, 156.464 68.901, 158.281 73.726, 165.505 79.454, 172.038 85.984, 177.769 93.207, 182.598 100.998, 186.445 109.225, 189.242 117.748, 190.941 126.419, 191.514 135.092, 190.951 143.618, 189.261 151.852, 186.471 159.651, 182.631 166.883, 177.806 173.423, 172.077 179.160, 165.542 183.995, 158.314 184.893, 156.496 " />
            <path fill="none" stroke-width="3.0" stroke-linecap="butt" stroke-opacity="1.0" stroke="rgb(0, 0, 0)" stroke-linejoin="round" d=" M 131.624, 164.603 126.420, 164.942 121.216, 164.599 116.102, 163.580 111.164, 161.903 106.488, 159.595 102.153, 156.697 98.234, 153.259 94.796, 149.338 91.900, 145.003 91.294, 143.775 90.921, 143.018 89.594, 140.327 88.801, 137.990 88.485, 137.061 87.918, 135.389 87.807, 134.833 86.900, 130.276 86.559, 125.073 86.899, 119.870 87.804, 115.312 87.915, 114.756 88.482, 113.084 88.797, 112.154 89.590, 109.818 91.249, 106.450 91.534, 105.872 91.610, 105.718 91.895, 105.140 92.397, 104.388 92.472, 104.276 94.791, 100.803 98.228, 96.881 102.148, 93.441 106.483, 90.542 111.161, 88.234 116.099, 86.555 121.215, 85.536 126.420, 85.193 131.626, 85.532 136.743, 86.549 141.684, 88.224 146.363, 90.531 150.702, 93.429 154.625, 96.868 158.066, 100.791 160.169, 103.937 160.463, 104.377 160.965, 105.129 163.273, 109.808 163.305, 109.903 163.623, 110.840 164.302, 112.841 164.950, 114.749 165.968, 119.867 166.308, 125.073 165.966, 130.280 164.947, 135.397 164.299, 137.305 163.619, 139.305 163.301, 140.242 163.269, 140.337 161.940, 143.029 161.403, 144.117 160.960, 145.015 158.060, 149.352 154.619, 153.273 150.696, 156.711 146.358, 159.607 141.679, 161.912 136.739, 163.587 131.624, 164.603 " />
            <path fill="none" stroke-width="3.0" stroke-linecap="butt" stroke-opacity="1.0" stroke="rgb(0, 0, 0)" stroke-linejoin="round" d=" M 182.920, 90.194 179.176, 84.592 173.440, 78.054 166.899, 72.321 159.666, 67.491 151.864, 63.647 143.627, 60.856 135.097, 59.163 126.420, 58.599 117.744, 59.173 109.218, 60.874 100.988, 63.674 93.194, 67.523 85.969, 72.357 79.438, 78.091 73.711, 84.628 69.759, 90.549 " />
            <path fill="none" stroke-width="3.0" stroke-linecap="butt" stroke-opacity="1.0" stroke="rgb(0, 0, 0)" stroke-linejoin="round" d=" M 160.169, 103.937 159.439, 104.377 159.439, 105.707 159.439, 106.470 159.438, 111.195 159.437, 121.195 159.436, 131.195 159.435, 138.475 159.435, 141.113 159.435, 141.811 159.434, 143.029 161.403, 144.117 " />
            <path fill="none" stroke-width="3.0" stroke-linecap="butt" stroke-opacity="1.0" stroke="rgb(0, 0, 0)" stroke-linejoin="round" d=" M 91.294, 143.775 92.663, 143.018 92.663, 141.802 92.663, 141.103 92.662, 137.283 92.661, 127.283 92.660, 117.283 92.659, 112.386 92.658, 106.481 92.658, 105.718 92.658, 104.388 92.472, 104.276 " />
            <path fill="none" stroke-width="3.0" stroke-linecap="butt" stroke-opacity="1.0" stroke="rgb(0, 0, 0)" stroke-linejoin="round" d=" M 185.424, 88.933 185.424, 89.660 185.423, 92.403 185.423, 94.689 185.420, 104.689 185.418, 114.689 185.416, 124.689 185.414, 134.689 185.411, 144.689 185.409, 153.987 185.409, 155.451 185.409, 156.496 185.409, 157.391 187.442, 158.516 " />
            <path fill="none" stroke-width="3.0" stroke-linecap="butt" stroke-opacity="1.0" stroke="rgb(0, 0, 0)" stroke-linejoin="round" d=" M 65.752, 157.907 66.745, 157.358 66.745, 156.464 66.744, 153.955 66.744, 153.908 66.742, 143.908 66.740, 133.908 66.738, 123.908 66.736, 113.908 66.734, 103.908 66.732, 96.231 66.731, 92.437 66.731, 90.975 " />
            <path fill="none" stroke-width="3.0" stroke-linecap="butt" stroke-opacity="1.0" stroke="rgb(0, 0, 0)" stroke-linejoin="round" d=" M 66.745, 156.464 68.005, 156.464 68.360, 156.464 77.110, 151.623 77.660, 151.319 77.660, 148.791 77.660, 148.542 77.658, 138.542 77.656, 128.542 77.654, 118.542 77.653, 108.542 77.651, 98.352 77.651, 98.080 77.650, 95.318 69.759, 90.549 68.346, 89.695 67.565, 89.695 " />
            <path fill="none" stroke-width="3.0" stroke-linecap="butt" stroke-opacity="1.0" stroke="rgb(0, 0, 0)" stroke-linejoin="round" d=" M 68.360, 156.464 68.358, 146.464 68.356, 136.464 68.354, 126.464 68.352, 116.464 68.350, 106.464 68.348, 96.464 68.347, 92.952 68.346, 89.695 " />
            <path fill="none" stroke-width="3.0" stroke-linecap="butt" stroke-opacity="1.0" stroke="rgb(0, 0, 0)" stroke-linejoin="round" d=" M 185.424, 89.660 183.804, 89.661 182.920, 90.194 174.477, 95.294 174.477, 98.058 174.477, 98.329 174.475, 108.329 174.473, 118.329 174.471, 128.329 174.469, 138.329 174.468, 148.564 174.467, 148.811 174.467, 151.341 183.218, 156.180 183.789, 156.496 184.893, 156.496 185.409, 156.496 " />
            <path fill="none" stroke-width="3.0" stroke-linecap="butt" stroke-opacity="1.0" stroke="rgb(0, 0, 0)" stroke-linejoin="round" d=" M 183.789, 156.496 183.792, 146.496 183.794, 136.496 183.796, 126.496 183.798, 116.496 183.800, 106.496 183.802, 96.496 183.803, 91.516 183.804, 89.661 " />
            <path fill="none" stroke-width="3.0" stroke-linecap="butt" stroke-opacity="1.0" stroke="rgb(0, 0, 0)" stroke-linejoin="round" d=" M 129.050, 146.182 126.240, 146.365 123.430, 146.181 120.668, 145.631 118.001, 144.725 115.476, 143.479 113.135, 141.915 111.018, 140.058 109.161, 137.941 107.597, 135.599 107.270, 134.936 107.190, 134.774 107.146, 134.685 106.859, 134.103 106.779, 133.941 106.352, 133.074 106.351, 133.074 105.604, 130.871 105.446, 130.407 105.426, 130.304 105.419, 130.269 104.897, 127.645 104.712, 124.836 104.896, 122.026 105.418, 119.402 105.425, 119.367 105.445, 119.264 105.603, 118.799 106.350, 116.597 106.351, 116.596 106.778, 115.730 107.562, 114.139 107.567, 114.129 107.595, 114.071 107.722, 113.882 107.907, 113.604 109.160, 111.729 111.016, 109.612 113.133, 107.754 115.475, 106.189 118.000, 104.943 120.667, 104.037 123.430, 103.487 126.240, 103.302 129.051, 103.486 131.814, 104.035 134.481, 104.940 137.008, 106.186 139.350, 107.751 141.468, 109.608 143.326, 111.726 144.504, 113.489 144.513, 113.503 144.891, 114.068 144.919, 114.126 145.297, 114.892 145.726, 115.762 146.137, 116.594 146.474, 117.587 146.652, 118.112 146.660, 118.136 147.042, 119.262 147.592, 122.025 147.776, 124.836 147.591, 127.647 147.041, 130.409 146.659, 131.535 146.651, 131.559 146.472, 132.084 146.135, 133.077 145.725, 133.909 145.562, 134.238 145.340, 134.689 145.296, 134.777 145.128, 135.118 144.889, 135.603 143.324, 137.944 141.466, 140.062 139.348, 141.919 137.006, 143.483 134.480, 144.728 131.813, 145.633 129.050, 146.182 " />
            <path fill="none" stroke-width="3.0" stroke-linecap="butt" stroke-opacity="1.0" stroke="rgb(0, 0, 0)" stroke-linejoin="round" d=" M 128.484, 142.131 126.201, 142.280 123.917, 142.130 121.672, 141.683 119.505, 140.947 117.453, 139.935 115.550, 138.663 113.830, 137.154 112.321, 135.434 111.049, 133.531 110.784, 132.992 110.681, 132.783 110.385, 132.184 110.269, 131.947 110.037, 131.478 109.440, 129.717 109.394, 129.584 109.302, 129.311 108.855, 127.067 108.776, 125.853 108.705, 124.783 108.775, 123.714 108.855, 122.500 109.301, 120.255 109.394, 119.982 109.439, 119.849 110.037, 118.088 110.268, 117.619 110.384, 117.383 111.049, 116.035 111.160, 115.869 112.320, 114.132 113.829, 112.411 115.549, 110.902 117.452, 109.630 119.505, 108.618 121.672, 107.882 123.917, 107.435 126.201, 107.285 128.485, 107.434 130.730, 107.880 132.898, 108.616 134.951, 109.628 136.854, 110.900 138.575, 112.409 140.085, 114.130 141.007, 115.510 141.046, 115.568 141.357, 116.033 141.688, 116.704 141.804, 116.941 142.369, 118.086 142.633, 118.864 142.679, 119.000 143.105, 120.254 143.299, 121.228 143.499, 122.236 143.551, 122.499 143.629, 123.687 143.701, 124.783 143.629, 125.880 143.551, 127.068 143.499, 127.330 143.298, 128.339 143.104, 129.313 142.679, 130.567 142.632, 130.703 142.368, 131.480 141.803, 132.626 141.724, 132.786 141.687, 132.862 141.550, 133.139 141.356, 133.533 140.084, 135.436 138.574, 137.157 136.853, 138.666 134.950, 139.937 132.897, 140.949 130.729, 141.685 128.484, 142.131 " />
            <path fill="none" stroke-width="3.0" stroke-linecap="butt" stroke-opacity="1.0" stroke="rgb(0, 0, 0)" stroke-linejoin="round" d=" M 127.811, 137.314 126.154, 137.422 124.496, 137.314 122.866, 136.989 121.293, 136.455 119.803, 135.720 118.422, 134.797 117.173, 133.702 116.078, 132.453 115.155, 131.071 114.420, 129.581 113.886, 128.008 113.562, 126.379 113.453, 124.721 113.562, 123.064 113.886, 121.434 114.420, 119.861 115.154, 118.371 116.077, 116.989 117.173, 115.740 118.422, 114.645 119.803, 113.721 121.293, 112.986 122.866, 112.452 124.496, 112.128 126.154, 112.019 127.812, 112.128 129.441, 112.452 131.015, 112.985 132.505, 113.720 133.887, 114.643 135.136, 115.739 136.232, 116.988 137.155, 118.370 137.890, 119.860 138.424, 121.434 138.748, 123.063 138.857, 124.721 138.748, 126.379 138.424, 128.009 137.889, 129.582 137.154, 131.073 136.231, 132.454 135.135, 133.703 133.886, 134.799 132.505, 135.721 131.014, 136.456 129.441, 136.990 127.811, 137.314 " />
            <path fill="none" stroke-width="3.0" stroke-linecap="butt" stroke-opacity="1.0" stroke="rgb(0, 0, 0)" stroke-linejoin="round" d=" M 128.092, 139.322 126.173, 139.447 124.254, 139.321 122.369, 138.946 120.548, 138.328 118.823, 137.477 117.225, 136.409 115.779, 135.141 114.512, 133.695 113.443, 132.097 112.593, 130.372 111.975, 128.552 111.600, 126.666 111.474, 124.747 111.600, 122.829 111.975, 120.943 112.593, 119.122 113.443, 117.397 114.511, 115.798 115.779, 114.353 117.224, 113.085 118.823, 112.016 120.547, 111.165 122.368, 110.547 124.254, 110.172 126.173, 110.046 128.092, 110.171 129.978, 110.546 131.800, 111.164 133.525, 112.014 135.124, 113.083 136.570, 114.351 137.838, 115.797 138.906, 117.396 139.757, 119.121 140.375, 120.942 140.750, 122.828 140.876, 124.747 140.750, 126.666 140.375, 128.553 139.756, 130.374 138.906, 132.098 137.837, 133.697 136.569, 135.143 135.123, 136.411 133.524, 137.479 131.799, 138.329 129.978, 138.947 128.092, 139.322 " />
            <path fill="none" stroke-width="3.0" stroke-linecap="butt" stroke-opacity="1.0" stroke="rgb(0, 0, 0)" stroke-linejoin="round" d=" M 87.807, 134.833 87.806, 124.833 87.804, 115.312 " />
            <path fill="none" stroke-width="3.0" stroke-linecap="butt" stroke-opacity="1.0" stroke="rgb(0, 0, 0)" stroke-linejoin="round" d=" M 88.485, 137.061 88.484, 127.061 88.483, 117.061 88.482, 113.084 " />
            <path fill="none" stroke-width="3.0" stroke-linecap="butt" stroke-opacity="1.0" stroke="rgb(0, 0, 0)" stroke-linejoin="round" d=" M 100.535, 135.696 100.534, 125.696 100.533, 115.696 100.533, 114.141 " />
            <path fill="none" stroke-width="3.0" stroke-linecap="butt" stroke-opacity="1.0" stroke="rgb(0, 0, 0)" stroke-linejoin="round" d=" M 105.419, 130.269 105.419, 128.739 105.418, 120.704 105.418, 119.402 " />
            <path fill="none" stroke-width="3.0" stroke-linecap="butt" stroke-opacity="1.0" stroke="rgb(0, 0, 0)" stroke-linejoin="round" d=" M 108.776, 125.853 108.775, 123.714 " />
            <path fill="none" stroke-width="3.0" stroke-linecap="butt" stroke-opacity="1.0" stroke="rgb(0, 0, 0)" stroke-linejoin="round" d=" M 143.299, 121.228 143.298, 128.339 " />
            <path fill="none" stroke-width="3.0" stroke-linecap="butt" stroke-opacity="1.0" stroke="rgb(0, 0, 0)" stroke-linejoin="round" d=" M 146.660, 118.136 146.660, 119.513 146.659, 129.513 146.659, 129.929 146.659, 131.535 " />
            <path fill="none" stroke-width="3.0" stroke-linecap="butt" stroke-opacity="1.0" stroke="rgb(0, 0, 0)" stroke-linejoin="round" d=" M 151.552, 113.057 151.551, 123.057 151.550, 133.057 151.550, 136.780 " />
            <path fill="none" stroke-width="3.0" stroke-linecap="butt" stroke-opacity="1.0" stroke="rgb(0, 0, 0)" stroke-linejoin="round" d=" M 153.923, 129.028 153.924, 120.809 " />
            <path fill="none" stroke-width="3.0" stroke-linecap="butt" stroke-opacity="1.0" stroke="rgb(0, 0, 0)" stroke-linejoin="round" d=" M 163.619, 139.305 163.621, 129.305 163.622, 119.305 163.623, 110.840 " />
            <path fill="none" stroke-width="3.0" stroke-linecap="butt" stroke-opacity="1.0" stroke="rgb(0, 0, 0)" stroke-linejoin="round" d=" M 164.302, 112.841 164.301, 122.841 164.299, 132.841 164.299, 137.305 " />
        </g>
    </g>
</svg>
