<?xml version='1.0' encoding='ascii'?>
<svg xmlns="http://www.w3.org/2000/svg" version="1.1" width="250" height="250">
    <g id="ViewLayer_LineSet" xmlns:inkscape="http://www.inkscape.org/namespaces/inkscape" inkscape:groupmode="lineset" inkscape:label="ViewLayer_LineSet">
        <g xmlns:inkscape="http://www.inkscape.org/namespaces/inkscape" inkscape:groupmode="layer" id="strokes" inkscape:label="strokes">
            <path fill="none" stroke-width="3.0" stroke-linecap="butt" stroke-opacity="1.0" stroke="rgb(0, 0, 0)" stroke-linejoin="round" d=" M 140.074, 225.331 130.094, 225.977 126.970, 226.179 116.992, 225.516 113.869, 225.309 104.063, 223.350 100.996, 222.738 91.528, 219.517 88.568, 218.510 79.602, 214.081 76.800, 212.697 68.488, 207.137 65.891, 205.400 58.375, 198.803 56.027, 196.743 49.436, 189.222 47.377, 186.874 41.823, 178.558 40.088, 175.961 38.595, 172.933 36.607, 168.900 34.285, 164.192 31.070, 154.722 30.066, 151.765 28.113, 141.958 27.503, 138.895 26.846, 128.917 26.641, 125.800 27.291, 115.822 27.494, 112.704 29.440, 102.895 30.048, 99.830 33.256, 90.359 34.259, 87.399 38.676, 78.427 39.137, 77.490 40.057, 75.621 41.495, 73.467 47.044, 65.148 47.342, 64.700 53.930, 57.176 55.991, 54.822 63.504, 48.222 65.856, 46.155 74.166, 40.592 76.769, 38.849 85.734, 34.418 88.544, 33.029 98.010, 29.806 100.979, 28.796 110.785, 26.836 113.861, 26.221 123.839, 25.558 126.972, 25.350 136.951, 25.996 140.085, 26.199 149.894, 28.142 152.976, 28.753 162.448, 31.961 165.425, 32.969 174.396, 37.387 177.217, 38.776 185.534, 44.327 188.151, 46.073 195.672, 52.664 198.038, 54.737 204.633, 62.254 206.709, 64.619 212.045, 72.603 214.014, 75.549 214.550, 76.634 218.973, 85.603 219.830, 87.340 223.043, 96.809 224.055, 99.790 226.004, 109.598 226.617, 112.684 227.268, 122.663 227.473, 125.803 226.814, 135.781 226.607, 138.920 224.651, 148.727 224.036, 151.811 220.815, 161.278 219.803, 164.254 217.113, 169.700 215.086, 173.802 213.982, 176.038 208.419, 184.348 206.672, 186.959 200.072, 194.471 197.999, 196.830 190.475, 203.417 188.113, 205.484 179.794, 211.032 177.183, 212.773 168.211, 217.187 165.397, 218.571 155.925, 221.777 152.956, 222.781 143.146, 224.723 140.074, 225.331 " />
            <path fill="none" stroke-width="3.0" stroke-linecap="butt" stroke-opacity="1.0" stroke="rgb(0, 0, 0)" stroke-linejoin="round" d=" M 231.669, 262.248 239.197, 255.667 246.726, 249.085 248.591, 247.453 255.196, 239.945 261.800, 232.436 263.440, 230.572 " />
            <path fill="none" stroke-width="3.0" stroke-linecap="butt" stroke-opacity="1.0" stroke="rgb(0, 0, 0)" stroke-linejoin="round" d=" M 263.547, 21.207 256.950, 13.692 250.352, 6.177 248.702, 4.297 241.179, -2.291 233.656, -8.880 231.776, -10.527 " />
            <path fill="none" stroke-width="3.0" stroke-linecap="butt" stroke-opacity="1.0" stroke="rgb(0, 0, 0)" stroke-linejoin="round" d=" M 22.546, -10.286 15.038, -3.681 7.529, 2.924 5.685, 4.546 -0.898, 12.074 -7.481, 19.602 -9.095, 21.447 " />
            <path fill="none" stroke-width="3.0" stroke-linecap="butt" stroke-opacity="1.0" stroke="rgb(0, 0, 0)" stroke-linejoin="round" d=" M -8.992, 230.325 -2.402, 237.847 4.188, 245.368 5.791, 247.199 13.305, 253.797 20.819, 260.396 22.649, 262.003 " />
            <path fill="none" stroke-width="3.0" stroke-linecap="butt" stroke-opacity="1.0" stroke="rgb(0, 0, 0)" stroke-linejoin="round" d=" M 130.517, 156.684 126.342, 156.956 122.168, 156.681 118.065, 155.864 114.103, 154.518 110.352, 152.667 106.874, 150.343 103.729, 147.584 100.971, 144.439 98.647, 140.961 97.843, 139.330 97.697, 139.034 97.528, 138.690 96.797, 137.209 96.237, 135.559 95.453, 133.248 94.741, 129.670 94.636, 129.145 94.417, 125.803 94.362, 124.971 94.417, 124.139 94.635, 120.797 94.740, 120.271 95.451, 116.694 96.235, 114.382 96.795, 112.732 97.695, 110.906 98.355, 109.567 98.644, 108.979 99.019, 108.418 100.968, 105.500 103.726, 102.354 106.870, 99.594 110.349, 97.269 114.101, 95.417 118.063, 94.071 122.167, 93.253 126.343, 92.979 130.519, 93.251 134.624, 94.067 138.587, 95.411 142.341, 97.261 145.821, 99.586 148.969, 102.345 151.729, 105.492 153.679, 108.410 154.054, 108.972 154.215, 109.298 154.395, 109.663 155.855, 112.623 155.905, 112.726 157.251, 116.689 157.354, 117.212 157.676, 118.830 157.824, 119.575 158.067, 120.795 158.340, 124.971 158.066, 129.148 157.823, 130.367 157.675, 131.112 157.353, 132.730 157.249, 133.252 155.903, 137.215 155.852, 137.318 155.051, 138.941 154.855, 139.337 154.410, 140.240 154.406, 140.248 154.051, 140.968 151.725, 144.448 148.965, 147.593 145.817, 150.351 142.337, 152.675 138.584, 154.525 134.621, 155.869 130.517, 156.684 " />
            <path fill="none" stroke-width="3.0" stroke-linecap="butt" stroke-opacity="1.0" stroke="rgb(0, 0, 0)" stroke-linejoin="round" d=" M 55.335, 163.671 56.335, 165.699 61.890, 174.014 62.222, 174.512 68.814, 182.032 69.209, 182.483 76.725, 189.078 77.175, 189.474 85.488, 195.033 85.987, 195.366 94.953, 199.794 95.492, 200.060 104.959, 203.279 105.528, 203.473 115.335, 205.430 115.925, 205.548 125.904, 206.209 126.505, 206.248 136.484, 205.601 137.087, 205.562 146.896, 203.619 147.490, 203.501 156.961, 200.294 157.535, 200.100 166.508, 195.684 167.052, 195.416 175.371, 189.866 175.877, 189.529 183.400, 182.941 183.858, 182.539 190.457, 175.026 190.859, 174.567 196.420, 166.256 196.760, 165.748 197.567, 164.115 " />
            <path fill="none" stroke-width="3.0" stroke-linecap="butt" stroke-opacity="1.0" stroke="rgb(0, 0, 0)" stroke-linejoin="round" d=" M 132.855, 173.416 126.505, 173.830 120.157, 173.411 113.917, 172.167 107.893, 170.120 102.188, 167.305 96.900, 163.769 92.118, 159.574 87.924, 154.791 84.391, 149.501 83.652, 148.004 82.688, 146.049 81.991, 144.635 81.577, 143.796 81.055, 142.258 79.533, 137.773 78.291, 131.534 77.874, 125.187 78.289, 118.839 79.528, 112.599 81.050, 108.113 81.572, 106.574 81.985, 105.735 83.180, 103.311 84.148, 101.346 84.384, 100.867 85.088, 99.813 87.916, 95.576 92.110, 90.791 96.892, 86.593 102.181, 83.056 107.888, 80.238 113.913, 78.190 120.155, 76.946 126.506, 76.527 132.858, 76.940 139.102, 78.180 145.130, 80.224 150.841, 83.038 156.135, 86.574 160.923, 90.771 165.121, 95.557 167.686, 99.396 168.659, 100.850 168.895, 101.330 168.934, 101.408 170.133, 103.840 171.071, 105.741 171.475, 106.561 173.521, 112.590 174.762, 118.834 175.178, 125.187 174.760, 131.540 173.517, 137.784 171.468, 143.811 171.064, 144.630 170.173, 146.435 170.126, 146.530 169.191, 148.424 168.651, 149.519 165.112, 154.811 160.913, 159.595 156.126, 163.789 150.833, 167.323 145.124, 170.135 139.097, 172.177 132.855, 173.416 " />
            <path fill="none" stroke-width="3.0" stroke-linecap="butt" stroke-opacity="1.0" stroke="rgb(0, 0, 0)" stroke-linejoin="round" d=" M 195.452, 82.625 190.883, 75.789 184.288, 68.272 183.883, 67.811 176.363, 61.220 175.901, 60.815 167.584, 55.263 167.074, 54.922 158.103, 50.504 157.553, 50.233 148.082, 47.024 147.503, 46.828 137.694, 44.883 137.094, 44.764 127.115, 44.116 126.506, 44.077 116.528, 44.738 115.920, 44.778 106.114, 46.736 105.517, 46.855 96.050, 50.077 95.475, 50.272 86.510, 54.702 85.967, 54.970 77.656, 60.532 77.153, 60.869 69.639, 67.468 69.185, 67.866 62.597, 75.389 62.200, 75.843 57.379, 83.067 " />
            <path fill="none" stroke-width="3.0" stroke-linecap="butt" stroke-opacity="1.0" stroke="rgb(0, 0, 0)" stroke-linejoin="round" d=" M 167.686, 99.396 164.483, 101.331 164.483, 103.075 164.483, 103.739 164.481, 113.739 164.481, 113.982 164.480, 123.982 164.478, 133.982 164.478, 135.749 164.477, 143.612 164.477, 144.220 164.477, 145.817 169.191, 148.424 " />
            <path fill="none" stroke-width="3.0" stroke-linecap="butt" stroke-opacity="1.0" stroke="rgb(0, 0, 0)" stroke-linejoin="round" d=" M 83.652, 148.004 87.630, 145.803 87.630, 144.207 87.630, 143.599 87.628, 133.924 87.627, 123.924 87.626, 115.806 87.624, 105.806 87.624, 103.754 87.624, 103.089 87.624, 101.346 85.088, 99.813 " />
            <path fill="none" stroke-width="3.0" stroke-linecap="butt" stroke-opacity="1.0" stroke="rgb(0, 0, 0)" stroke-linejoin="round" d=" M 212.045, 72.603 203.485, 77.773 203.484, 79.423 203.483, 82.626 203.480, 92.626 203.478, 100.031 203.475, 110.031 203.472, 120.031 203.470, 130.031 203.467, 140.031 203.464, 150.339 203.461, 160.339 203.460, 162.933 203.459, 165.863 203.459, 167.372 212.210, 172.211 215.086, 173.802 " />
            <path fill="none" stroke-width="3.0" stroke-linecap="butt" stroke-opacity="1.0" stroke="rgb(0, 0, 0)" stroke-linejoin="round" d=" M 38.595, 172.933 47.345, 168.092 48.748, 167.316 48.747, 165.809 48.746, 162.880 48.744, 152.880 48.742, 147.635 48.739, 137.635 48.737, 127.635 48.734, 117.635 48.731, 107.635 48.730, 102.734 48.727, 92.734 48.724, 82.683 48.723, 79.482 48.723, 77.835 41.495, 73.467 " />
            <path fill="none" stroke-width="3.0" stroke-linecap="butt" stroke-opacity="1.0" stroke="rgb(0, 0, 0)" stroke-linejoin="round" d=" M 48.747, 165.809 51.470, 165.810 55.335, 163.671 64.085, 158.830 66.314, 157.597 66.312, 147.597 66.310, 137.597 66.308, 127.597 66.305, 117.597 66.303, 107.597 66.301, 97.597 66.299, 88.458 57.741, 83.285 57.379, 83.067 51.447, 79.481 48.723, 79.482 " />
            <path fill="none" stroke-width="3.0" stroke-linecap="butt" stroke-opacity="1.0" stroke="rgb(0, 0, 0)" stroke-linejoin="round" d=" M 51.470, 165.810 51.467, 155.810 51.467, 155.661 51.464, 145.661 51.462, 135.661 51.459, 125.661 51.456, 115.661 51.454, 105.661 51.451, 95.661 51.451, 94.705 51.448, 84.705 51.447, 79.481 " />
            <path fill="none" stroke-width="3.0" stroke-linecap="butt" stroke-opacity="1.0" stroke="rgb(0, 0, 0)" stroke-linejoin="round" d=" M 203.484, 79.423 200.752, 79.424 195.452, 82.625 186.892, 87.795 185.856, 88.421 185.854, 98.421 185.852, 108.421 185.850, 118.421 185.847, 128.421 185.845, 138.421 185.843, 148.421 185.841, 157.630 194.592, 162.469 197.567, 164.115 200.728, 165.862 203.459, 165.863 " />
            <path fill="none" stroke-width="3.0" stroke-linecap="butt" stroke-opacity="1.0" stroke="rgb(0, 0, 0)" stroke-linejoin="round" d=" M 200.728, 165.862 200.730, 157.710 200.733, 147.710 200.736, 137.710 200.739, 127.710 200.741, 117.710 200.744, 107.710 200.747, 97.710 200.748, 92.657 200.751, 82.657 200.752, 79.424 " />
            <path fill="none" stroke-width="3.0" stroke-linecap="butt" stroke-opacity="1.0" stroke="rgb(0, 0, 0)" stroke-linejoin="round" d=" M 129.376, 148.516 126.263, 148.719 123.149, 148.514 120.089, 147.905 117.135, 146.902 114.337, 145.521 111.743, 143.788 109.398, 141.730 107.341, 139.385 105.608, 136.791 105.246, 136.056 105.007, 135.573 104.957, 135.470 104.773, 135.097 104.703, 134.956 104.228, 133.993 104.021, 133.384 103.814, 132.774 103.603, 132.152 103.225, 131.039 102.617, 127.979 102.412, 124.866 102.616, 121.752 103.224, 118.693 103.602, 117.579 103.813, 116.957 104.020, 116.347 104.227, 115.738 104.702, 114.774 105.378, 113.403 105.394, 113.371 105.606, 112.940 105.810, 112.635 105.885, 112.523 105.952, 112.423 107.339, 110.345 109.396, 107.999 111.741, 105.941 114.336, 104.207 117.134, 102.826 120.089, 101.823 123.149, 101.213 126.263, 101.008 129.377, 101.212 132.438, 101.820 135.394, 102.823 138.193, 104.203 140.788, 105.936 143.135, 107.994 145.193, 110.340 146.450, 112.222 146.648, 112.519 146.723, 112.631 146.927, 112.936 147.047, 113.179 147.377, 113.849 148.058, 115.230 148.266, 115.650 148.307, 115.735 148.478, 116.239 149.311, 118.690 149.847, 121.387 149.919, 121.751 150.123, 124.866 149.919, 127.980 149.846, 128.344 149.309, 131.041 148.477, 133.492 148.306, 133.996 148.264, 134.081 148.057, 134.501 147.671, 135.283 147.577, 135.474 147.526, 135.577 147.375, 135.882 147.190, 136.258 146.925, 136.795 145.191, 139.390 143.133, 141.735 140.786, 143.793 138.191, 145.526 135.392, 146.905 132.437, 147.907 129.376, 148.516 " />
            <path fill="none" stroke-width="3.0" stroke-linecap="butt" stroke-opacity="1.0" stroke="rgb(0, 0, 0)" stroke-linejoin="round" d=" M 128.695, 143.641 126.215, 143.804 123.735, 143.641 121.298, 143.155 118.944, 142.356 116.716, 141.257 114.649, 139.876 112.781, 138.237 111.142, 136.369 109.762, 134.302 109.473, 133.717 109.361, 133.489 109.264, 133.294 109.229, 133.221 108.663, 132.073 108.411, 131.330 108.231, 130.803 107.864, 129.720 107.521, 127.998 107.431, 127.545 107.379, 127.283 107.283, 125.827 107.216, 124.803 107.283, 123.779 107.379, 122.323 107.431, 122.061 107.521, 121.608 107.863, 119.885 108.231, 118.802 108.410, 118.275 108.662, 117.532 109.228, 116.384 109.360, 116.116 109.761, 115.303 109.955, 115.013 110.036, 114.891 111.141, 113.236 112.780, 111.367 114.648, 109.728 116.715, 108.347 118.944, 107.247 121.297, 106.448 123.735, 105.963 126.215, 105.800 128.696, 105.962 131.134, 106.446 133.488, 107.245 135.718, 108.344 137.785, 109.725 139.654, 111.364 141.293, 113.233 142.295, 114.732 142.481, 115.010 142.675, 115.300 142.713, 115.379 142.846, 115.647 143.664, 117.306 143.774, 117.530 143.844, 117.735 144.555, 119.829 144.573, 119.884 144.644, 120.238 144.791, 120.981 145.058, 122.322 145.221, 124.803 145.058, 127.284 144.791, 128.625 144.643, 129.368 144.572, 129.722 144.554, 129.777 143.843, 131.870 143.773, 132.076 143.662, 132.300 143.171, 133.296 142.931, 133.782 142.895, 133.855 142.884, 133.877 142.673, 134.305 141.292, 136.372 139.653, 138.240 137.784, 139.879 135.717, 141.259 133.487, 142.358 131.133, 143.157 128.695, 143.641 " />
            <path fill="none" stroke-width="3.0" stroke-linecap="butt" stroke-opacity="1.0" stroke="rgb(0, 0, 0)" stroke-linejoin="round" d=" M 154.395, 109.663 154.395, 110.472 154.394, 120.472 154.393, 130.472 154.392, 138.614 154.392, 139.132 154.392, 139.337 154.391, 140.240 154.406, 140.248 " />
            <path fill="none" stroke-width="3.0" stroke-linecap="butt" stroke-opacity="1.0" stroke="rgb(0, 0, 0)" stroke-linejoin="round" d=" M 127.920, 138.092 126.161, 138.207 124.402, 138.091 122.674, 137.747 121.004, 137.181 119.424, 136.401 117.958, 135.421 116.633, 134.259 115.471, 132.934 114.492, 131.469 113.712, 129.888 113.146, 128.219 112.802, 126.490 112.687, 124.731 112.802, 122.972 113.146, 121.244 113.712, 119.575 114.491, 117.994 115.471, 116.528 116.633, 115.203 117.958, 114.040 119.423, 113.061 121.004, 112.281 122.673, 111.714 124.402, 111.370 126.161, 111.255 127.920, 111.370 129.649, 111.713 131.319, 112.280 132.900, 113.060 134.366, 114.039 135.691, 115.201 136.854, 116.527 137.833, 117.992 138.613, 119.574 139.180, 121.243 139.524, 122.972 139.639, 124.731 139.524, 126.491 139.179, 128.220 138.613, 129.889 137.833, 131.470 136.853, 132.936 135.691, 134.261 134.365, 135.423 132.899, 136.402 131.318, 137.182 129.649, 137.748 127.920, 138.092 " />
            <path fill="none" stroke-width="3.0" stroke-linecap="butt" stroke-opacity="1.0" stroke="rgb(0, 0, 0)" stroke-linejoin="round" d=" M 128.239, 140.374 126.183, 140.508 124.128, 140.373 122.108, 139.971 120.157, 139.309 118.310, 138.398 116.598, 137.253 115.049, 135.895 113.691, 134.346 112.547, 132.634 111.636, 130.786 110.974, 128.836 110.572, 126.816 110.437, 124.761 110.572, 122.705 110.973, 120.685 111.635, 118.735 112.546, 116.887 113.690, 115.174 115.048, 113.626 116.597, 112.267 118.309, 111.122 120.157, 110.211 122.107, 109.549 124.128, 109.147 126.184, 109.011 128.239, 109.146 130.260, 109.548 132.211, 110.210 134.059, 111.121 135.772, 112.265 137.321, 113.624 138.679, 115.172 139.824, 116.885 140.735, 118.733 141.398, 120.684 141.799, 122.705 141.834, 123.237 141.934, 124.761 141.834, 126.285 141.799, 126.817 141.397, 128.837 140.735, 130.788 139.823, 132.636 138.678, 134.348 137.320, 135.897 135.771, 137.255 134.058, 138.399 132.210, 139.310 130.259, 139.972 128.239, 140.374 " />
            <path fill="none" stroke-width="3.0" stroke-linecap="butt" stroke-opacity="1.0" stroke="rgb(0, 0, 0)" stroke-linejoin="round" d=" M 81.055, 142.258 81.054, 132.258 81.052, 122.258 81.050, 112.258 81.050, 108.113 " />
            <path fill="none" stroke-width="3.0" stroke-linecap="butt" stroke-opacity="1.0" stroke="rgb(0, 0, 0)" stroke-linejoin="round" d=" M 81.991, 144.635 81.990, 134.635 81.988, 124.635 81.987, 114.635 81.985, 105.735 " />
            <path fill="none" stroke-width="3.0" stroke-linecap="butt" stroke-opacity="1.0" stroke="rgb(0, 0, 0)" stroke-linejoin="round" d=" M 94.741, 129.670 94.741, 127.650 94.740, 121.955 94.740, 120.271 " />
            <path fill="none" stroke-width="3.0" stroke-linecap="butt" stroke-opacity="1.0" stroke="rgb(0, 0, 0)" stroke-linejoin="round" d=" M 97.697, 139.034 97.697, 138.606 97.697, 138.405 97.696, 128.405 97.695, 118.405 97.695, 111.199 97.695, 110.906 " />
            <path fill="none" stroke-width="3.0" stroke-linecap="butt" stroke-opacity="1.0" stroke="rgb(0, 0, 0)" stroke-linejoin="round" d=" M 103.603, 132.152 103.603, 122.152 103.602, 117.579 " />
            <path fill="none" stroke-width="3.0" stroke-linecap="butt" stroke-opacity="1.0" stroke="rgb(0, 0, 0)" stroke-linejoin="round" d=" M 107.521, 127.998 107.521, 121.608 " />
            <path fill="none" stroke-width="3.0" stroke-linecap="butt" stroke-opacity="1.0" stroke="rgb(0, 0, 0)" stroke-linejoin="round" d=" M 141.834, 123.237 141.834, 126.285 " />
            <path fill="none" stroke-width="3.0" stroke-linecap="butt" stroke-opacity="1.0" stroke="rgb(0, 0, 0)" stroke-linejoin="round" d=" M 144.555, 119.829 144.554, 129.777 " />
            <path fill="none" stroke-width="3.0" stroke-linecap="butt" stroke-opacity="1.0" stroke="rgb(0, 0, 0)" stroke-linejoin="round" d=" M 148.478, 116.239 148.478, 122.472 148.477, 126.991 148.477, 133.492 " />
            <path fill="none" stroke-width="3.0" stroke-linecap="butt" stroke-opacity="1.0" stroke="rgb(0, 0, 0)" stroke-linejoin="round" d=" M 157.353, 132.730 157.353, 130.292 157.354, 120.292 157.354, 119.314 157.354, 117.212 " />
            <path fill="none" stroke-width="3.0" stroke-linecap="butt" stroke-opacity="1.0" stroke="rgb(0, 0, 0)" stroke-linejoin="round" d=" M 157.824, 119.575 157.824, 123.731 157.824, 125.875 157.823, 130.367 " />
            <path fill="none" stroke-width="3.0" stroke-linecap="butt" stroke-opacity="1.0" stroke="rgb(0, 0, 0)" stroke-linejoin="round" d=" M 170.126, 146.530 170.128, 136.530 170.129, 126.530 170.131, 116.530 170.133, 106.530 170.133, 103.840 " />
            <path fill="none" stroke-width="3.0" stroke-linecap="butt" stroke-opacity="1.0" stroke="rgb(0, 0, 0)" stroke-linejoin="round" d=" M 171.071, 105.741 171.069, 115.741 171.067, 125.741 171.066, 135.741 171.064, 144.630 " />
        </g>
    </g>
</svg>
