<?xml version='1.0' encoding='ascii'?>
<svg xmlns="http://www.w3.org/2000/svg" version="1.1" width="250" height="250">
    <g id="ViewLayer_LineSet" xmlns:inkscape="http://www.inkscape.org/namespaces/inkscape" inkscape:groupmode="lineset" inkscape:label="ViewLayer_LineSet">
        <g xmlns:inkscape="http://www.inkscape.org/namespaces/inkscape" inkscape:groupmode="layer" id="strokes" inkscape:label="strokes">
            <path fill="none" stroke-width="3.0" stroke-linecap="butt" stroke-opacity="1.0" stroke="rgb(0, 0, 0)" stroke-linejoin="round" d=" M 70.208, 154.851 71.223, 156.910 75.853, 163.841 81.347, 170.108 87.612, 175.605 94.541, 180.238 102.016, 183.928 109.909, 186.611 118.084, 188.242 126.404, 188.791 134.724, 188.251 142.903, 186.629 150.801, 183.953 158.283, 180.269 165.221, 175.639 171.495, 170.143 176.998, 163.875 181.636, 156.941 182.324, 155.548 " />
            <path fill="none" stroke-width="3.0" stroke-linecap="butt" stroke-opacity="1.0" stroke="rgb(0, 0, 0)" stroke-linejoin="round" d=" M 131.396, 162.974 126.404, 163.299 121.412, 162.970 116.505, 161.993 111.769, 160.384 107.283, 158.170 103.124, 155.390 99.364, 152.092 96.066, 148.331 93.288, 144.171 92.707, 142.994 92.459, 142.490 91.075, 139.685 89.864, 136.117 89.688, 135.598 89.468, 134.949 89.053, 132.863 88.491, 130.043 88.164, 125.052 88.490, 120.061 89.050, 117.240 89.465, 115.154 89.685, 114.505 89.861, 113.986 91.072, 110.417 92.222, 108.082 92.937, 106.632 93.128, 106.245 93.283, 105.930 93.612, 105.438 96.061, 101.769 99.359, 98.007 103.119, 94.707 107.279, 91.926 111.765, 89.711 116.503, 88.101 121.411, 87.123 126.404, 86.794 131.398, 87.120 136.307, 88.095 141.047, 89.703 145.536, 91.915 149.698, 94.695 153.462, 97.995 156.762, 101.758 158.779, 104.776 158.898, 104.954 159.544, 105.919 159.699, 106.234 159.736, 106.309 159.874, 106.589 161.758, 110.409 162.239, 111.828 162.418, 112.355 163.054, 114.228 163.366, 115.148 164.342, 120.058 164.669, 125.052 164.341, 130.047 163.363, 134.956 163.051, 135.876 162.415, 137.749 162.236, 138.275 161.754, 139.695 160.369, 142.501 159.964, 143.321 159.539, 144.183 156.757, 148.343 153.456, 152.104 149.693, 155.403 145.531, 158.181 141.042, 160.393 136.304, 161.999 131.396, 162.974 " />
            <path fill="none" stroke-width="3.0" stroke-linecap="butt" stroke-opacity="1.0" stroke="rgb(0, 0, 0)" stroke-linejoin="round" d=" M 180.605, 91.593 177.013, 86.219 171.510, 79.947 165.236, 74.447 158.297, 69.813 150.812, 66.126 142.911, 63.448 134.728, 61.824 126.404, 61.283 118.081, 61.833 109.902, 63.465 102.006, 66.150 94.529, 69.843 87.599, 74.480 81.333, 79.981 75.839, 86.252 72.048, 91.932 " />
            <path fill="none" stroke-width="3.0" stroke-linecap="butt" stroke-opacity="1.0" stroke="rgb(0, 0, 0)" stroke-linejoin="round" d=" M 31.501, 176.858 32.851, 179.595 38.405, 187.911 40.723, 191.381 47.314, 198.902 50.065, 202.040 57.580, 208.637 60.717, 211.390 69.029, 216.950 72.499, 219.272 81.465, 223.700 85.209, 225.550 94.676, 228.771 98.630, 230.117 108.437, 232.076 112.534, 232.895 122.512, 233.558 126.683, 233.835 136.663, 233.191 140.836, 232.921 150.646, 230.980 154.750, 230.168 164.223, 226.963 168.188, 225.622 177.161, 221.208 180.918, 219.359 189.239, 213.812 192.724, 211.488 200.249, 204.902 203.403, 202.142 210.003, 194.629 212.771, 191.479 218.334, 183.170 220.667, 179.684 221.752, 177.488 " />
            <path fill="none" stroke-width="3.0" stroke-linecap="butt" stroke-opacity="1.0" stroke="rgb(0, 0, 0)" stroke-linejoin="round" d=" M 135.118, 189.617 126.663, 190.166 118.210, 189.607 109.902, 187.950 101.881, 185.224 94.286, 181.474 87.245, 176.766 80.878, 171.180 75.295, 164.811 70.590, 157.769 69.607, 155.775 69.548, 155.656 69.152, 154.851 68.324, 153.172 66.845, 150.173 64.938, 144.556 64.122, 142.153 63.314, 138.095 62.469, 133.847 61.913, 125.395 62.465, 116.943 63.309, 112.695 64.115, 108.635 64.930, 106.231 66.834, 100.613 69.809, 94.574 69.992, 94.203 70.577, 93.014 71.263, 91.987 71.515, 91.610 75.281, 85.968 80.863, 79.595 87.230, 74.005 94.273, 69.293 101.871, 65.541 109.895, 62.812 118.207, 61.154 126.664, 60.595 135.123, 61.145 143.438, 62.794 151.468, 65.516 159.073, 69.263 166.124, 73.971 172.501, 79.560 178.093, 85.934 181.764, 91.427 182.337, 92.285 182.804, 92.984 183.130, 93.644 186.555, 100.589 187.226, 102.567 188.852, 107.357 189.280, 108.618 190.933, 116.935 191.486, 125.396 190.929, 133.857 189.272, 142.172 188.844, 143.433 187.216, 148.221 186.544, 150.199 184.818, 153.694 184.232, 154.881 183.835, 155.686 183.511, 156.342 182.791, 157.801 178.077, 164.847 172.485, 171.217 166.109, 176.802 159.059, 181.506 151.456, 185.250 143.430, 187.969 135.118, 189.617 " />
            <path fill="none" stroke-width="3.0" stroke-linecap="butt" stroke-opacity="1.0" stroke="rgb(0, 0, 0)" stroke-linejoin="round" d=" M 218.910, 68.456 213.353, 60.143 212.813, 59.335 206.218, 51.819 203.447, 48.662 195.926, 42.071 192.767, 39.304 184.450, 33.753 180.957, 31.422 171.986, 27.005 168.220, 25.151 158.748, 21.943 154.773, 20.597 144.964, 18.655 140.849, 17.840 130.870, 17.194 126.685, 16.924 116.707, 17.587 112.525, 17.865 102.719, 19.826 98.610, 20.647 89.144, 23.871 85.180, 25.221 76.215, 29.653 72.463, 31.508 64.154, 37.072 60.677, 39.400 53.165, 46.000 50.023, 48.761 43.436, 56.285 40.682, 59.431 35.134, 67.750 34.244, 69.084 " />
            <path fill="none" stroke-width="3.0" stroke-linecap="butt" stroke-opacity="1.0" stroke="rgb(0, 0, 0)" stroke-linejoin="round" d=" M 181.764, 91.427 180.880, 91.427 180.605, 91.593 172.404, 96.546 172.404, 99.044 172.404, 99.451 172.402, 109.451 172.400, 119.451 172.398, 129.451 172.397, 139.451 172.395, 147.537 172.395, 147.909 172.395, 150.195 180.867, 154.880 182.324, 154.880 " />
            <path fill="none" stroke-width="3.0" stroke-linecap="butt" stroke-opacity="1.0" stroke="rgb(0, 0, 0)" stroke-linejoin="round" d=" M 180.867, 154.880 180.869, 144.880 180.871, 134.880 180.873, 124.880 180.875, 114.880 180.877, 104.880 180.879, 94.880 180.880, 92.004 180.880, 91.427 " />
            <path fill="none" stroke-width="3.0" stroke-linecap="butt" stroke-opacity="1.0" stroke="rgb(0, 0, 0)" stroke-linejoin="round" d=" M 69.822, 154.851 70.208, 154.851 71.276, 154.851 79.728, 150.175 79.728, 147.890 79.727, 147.517 79.726, 137.517 79.724, 127.517 79.722, 117.517 79.721, 107.517 79.719, 99.473 79.719, 99.065 79.719, 96.568 72.048, 91.932 71.515, 91.610 " />
            <path fill="none" stroke-width="3.0" stroke-linecap="butt" stroke-opacity="1.0" stroke="rgb(0, 0, 0)" stroke-linejoin="round" d=" M 71.276, 154.851 71.274, 144.851 71.272, 134.851 71.270, 124.851 71.268, 114.851 71.266, 104.851 71.264, 94.851 71.263, 93.107 71.263, 91.987 " />
            <path fill="none" stroke-width="3.0" stroke-linecap="butt" stroke-opacity="1.0" stroke="rgb(0, 0, 0)" stroke-linejoin="round" d=" M 69.607, 155.775 69.822, 155.656 69.822, 154.851 69.821, 154.068 69.821, 152.429 69.819, 142.429 69.817, 132.429 69.815, 122.429 69.813, 112.429 69.811, 102.429 69.810, 96.030 69.809, 94.574 " />
            <path fill="none" stroke-width="3.0" stroke-linecap="butt" stroke-opacity="1.0" stroke="rgb(0, 0, 0)" stroke-linejoin="round" d=" M 182.337, 92.285 182.337, 94.073 182.337, 94.550 182.335, 104.550 182.333, 114.550 182.331, 124.550 182.329, 134.550 182.326, 144.550 182.325, 152.458 182.324, 154.880 182.324, 155.548 182.324, 155.686 183.511, 156.342 " />
            <path fill="none" stroke-width="3.0" stroke-linecap="butt" stroke-opacity="1.0" stroke="rgb(0, 0, 0)" stroke-linejoin="round" d=" M 295.516, 22.186 286.956, 27.356 278.396, 32.527 269.836, 37.697 261.277, 42.867 252.717, 48.037 244.108, 53.236 244.107, 56.999 244.105, 60.634 244.101, 70.634 244.096, 80.634 244.092, 90.634 244.088, 100.634 244.083, 110.634 244.079, 120.634 244.075, 130.634 244.070, 140.634 244.066, 150.634 244.061, 160.634 244.057, 170.634 244.053, 180.634 244.052, 183.051 244.050, 186.376 244.049, 189.817 252.800, 194.656 261.551, 199.495 270.302, 204.334 279.053, 209.173 287.805, 214.012 296.556, 218.851 301.449, 221.557 " />
            <path fill="none" stroke-width="3.0" stroke-linecap="butt" stroke-opacity="1.0" stroke="rgb(0, 0, 0)" stroke-linejoin="round" d=" M -45.943, 219.707 -37.193, 214.866 -28.443, 210.024 -19.693, 205.183 -10.943, 200.342 -2.193, 195.501 6.557, 190.659 8.317, 189.686 8.315, 186.251 8.314, 182.930 8.310, 172.930 8.305, 162.930 8.301, 152.930 8.297, 142.930 8.293, 132.930 8.288, 122.930 8.284, 112.930 8.280, 102.930 8.275, 92.930 8.271, 82.930 8.267, 72.930 8.263, 62.930 8.262, 60.766 8.260, 57.135 8.259, 53.380 -0.300, 48.207 -8.858, 43.035 -17.417, 37.862 -25.975, 32.690 -34.533, 27.518 -40.303, 24.031 " />
            <path fill="none" stroke-width="3.0" stroke-linecap="butt" stroke-opacity="1.0" stroke="rgb(0, 0, 0)" stroke-linejoin="round" d=" M 8.315, 186.251 14.518, 186.255 23.268, 181.413 31.501, 176.858 40.251, 172.017 44.740, 169.533 44.737, 159.533 44.734, 149.533 44.731, 139.533 44.728, 129.533 44.725, 119.533 44.722, 109.533 44.719, 99.533 44.716, 89.533 44.713, 79.533 44.712, 75.411 36.154, 70.239 34.244, 69.084 25.685, 63.912 17.127, 58.740 14.466, 57.131 8.260, 57.135 " />
            <path fill="none" stroke-width="3.0" stroke-linecap="butt" stroke-opacity="1.0" stroke="rgb(0, 0, 0)" stroke-linejoin="round" d=" M 14.518, 186.255 14.514, 176.255 14.510, 166.255 14.506, 156.255 14.502, 146.255 14.498, 136.255 14.494, 126.255 14.490, 116.255 14.486, 106.255 14.481, 96.255 14.477, 86.255 14.473, 76.255 14.469, 66.255 14.466, 57.131 " />
            <path fill="none" stroke-width="3.0" stroke-linecap="butt" stroke-opacity="1.0" stroke="rgb(0, 0, 0)" stroke-linejoin="round" d=" M 244.107, 56.999 237.873, 57.003 229.313, 62.173 220.754, 67.343 218.910, 68.456 210.351, 73.626 207.509, 75.343 207.505, 85.343 207.502, 95.343 207.499, 105.343 207.496, 115.343 207.493, 125.343 207.490, 135.343 207.487, 145.343 207.484, 155.343 207.481, 165.343 207.480, 169.596 216.231, 174.435 221.752, 177.488 230.503, 182.327 237.820, 186.373 244.050, 186.376 " />
            <path fill="none" stroke-width="3.0" stroke-linecap="butt" stroke-opacity="1.0" stroke="rgb(0, 0, 0)" stroke-linejoin="round" d=" M 237.820, 186.373 237.824, 176.373 237.828, 166.373 237.832, 156.373 237.836, 146.373 237.840, 136.373 237.844, 126.373 237.849, 116.373 237.853, 106.373 237.857, 96.373 237.861, 86.373 237.865, 76.373 237.869, 66.373 237.873, 57.003 " />
            <path fill="none" stroke-width="3.0" stroke-linecap="butt" stroke-opacity="1.0" stroke="rgb(0, 0, 0)" stroke-linejoin="round" d=" M 129.842, 151.848 126.295, 152.080 122.749, 151.846 119.263, 151.152 115.898, 150.009 112.711, 148.437 109.757, 146.462 107.085, 144.119 104.742, 141.447 102.768, 138.492 102.324, 137.592 101.856, 136.642 101.658, 136.241 101.196, 135.305 101.121, 135.082 100.054, 131.940 99.743, 130.377 99.361, 128.455 99.128, 124.909 99.360, 121.363 99.742, 119.439 100.053, 117.877 101.119, 114.734 101.195, 114.512 101.656, 113.575 101.905, 113.070 102.468, 111.927 102.520, 111.823 102.684, 111.489 102.751, 111.355 102.766, 111.324 103.159, 110.735 104.740, 108.368 107.083, 105.696 109.754, 103.352 112.709, 101.376 115.897, 99.803 119.262, 98.660 122.748, 97.966 126.296, 97.732 129.843, 97.964 133.330, 98.657 136.696, 99.799 139.885, 101.371 142.841, 103.346 145.515, 105.690 147.859, 108.363 149.292, 110.506 149.614, 110.988 149.835, 111.319 149.850, 111.349 149.916, 111.484 149.971, 111.595 150.176, 112.012 150.426, 112.517 150.965, 113.611 151.407, 114.507 152.342, 117.263 152.550, 117.874 153.224, 121.263 153.243, 121.361 153.475, 124.909 153.242, 128.456 153.223, 128.554 152.548, 131.943 152.341, 132.554 151.405, 135.310 150.963, 136.206 150.682, 136.775 150.276, 137.597 149.832, 138.498 147.856, 141.453 145.512, 144.125 142.839, 146.468 139.883, 148.442 136.694, 150.014 133.328, 151.155 129.842, 151.848 " />
            <path fill="none" stroke-width="3.0" stroke-linecap="butt" stroke-opacity="1.0" stroke="rgb(0, 0, 0)" stroke-linejoin="round" d=" M 128.983, 145.698 126.235, 145.877 123.488, 145.697 120.788, 145.159 118.181, 144.274 115.712, 143.056 113.423, 141.526 111.354, 139.711 109.539, 137.641 108.009, 135.352 107.690, 134.704 107.640, 134.602 107.598, 134.517 107.319, 133.953 107.081, 133.469 106.792, 132.883 106.703, 132.621 105.943, 130.384 105.907, 130.276 105.863, 130.053 105.771, 129.593 105.370, 127.576 105.190, 124.829 105.369, 122.082 105.770, 120.065 105.862, 119.605 105.906, 119.382 105.943, 119.275 106.702, 117.037 106.791, 116.775 107.080, 116.189 107.872, 114.583 108.008, 114.306 108.017, 114.292 108.026, 114.279 108.313, 113.850 109.537, 112.016 111.352, 109.946 113.422, 108.130 115.711, 106.600 118.180, 105.382 120.787, 104.497 123.488, 103.959 126.236, 103.778 128.983, 103.958 131.684, 104.495 134.292, 105.380 136.762, 106.597 139.052, 108.127 141.122, 109.943 142.938, 112.013 144.048, 113.673 144.049, 113.675 144.203, 113.906 144.460, 114.289 144.468, 114.303 144.995, 115.371 145.375, 116.140 145.687, 116.773 146.134, 118.090 146.216, 118.332 146.306, 118.598 146.572, 119.380 147.109, 122.081 147.289, 124.829 147.108, 127.577 146.571, 130.278 146.305, 131.061 146.215, 131.327 146.133, 131.569 145.685, 132.886 145.373, 133.518 145.125, 134.021 144.879, 134.520 144.837, 134.606 144.701, 134.882 144.467, 135.355 142.937, 137.645 141.121, 139.715 139.050, 141.530 136.760, 143.059 134.291, 144.277 131.683, 145.161 128.983, 145.698 " />
            <path fill="none" stroke-width="3.0" stroke-linecap="butt" stroke-opacity="1.0" stroke="rgb(0, 0, 0)" stroke-linejoin="round" d=" M 158.779, 104.776 158.484, 104.954 158.484, 106.235 158.484, 106.987 158.483, 111.045 158.482, 121.045 158.481, 131.045 158.480, 138.612 158.480, 140.640 158.480, 141.329 158.480, 142.501 159.964, 143.321 " />
            <path fill="none" stroke-width="3.0" stroke-linecap="butt" stroke-opacity="1.0" stroke="rgb(0, 0, 0)" stroke-linejoin="round" d=" M 92.707, 142.994 93.616, 142.491 93.616, 141.319 93.616, 140.630 93.616, 137.608 93.614, 127.608 93.613, 117.608 93.613, 112.050 93.612, 106.998 93.612, 106.245 93.612, 105.438 " />
            <path fill="none" stroke-width="3.0" stroke-linecap="butt" stroke-opacity="1.0" stroke="rgb(0, 0, 0)" stroke-linejoin="round" d=" M 128.060, 139.095 126.171, 139.218 124.282, 139.094 122.425, 138.724 120.632, 138.116 118.934, 137.278 117.360, 136.226 115.937, 134.978 114.689, 133.555 113.637, 131.981 112.800, 130.283 112.191, 128.490 111.822, 126.633 111.698, 124.744 111.822, 122.855 112.191, 120.998 112.799, 119.206 113.637, 117.508 114.688, 115.933 115.936, 114.510 117.360, 113.261 118.934, 112.209 120.632, 111.371 122.425, 110.763 124.282, 110.393 126.171, 110.269 128.061, 110.393 129.918, 110.762 131.711, 111.370 133.409, 112.208 134.984, 113.259 136.407, 114.508 137.656, 115.932 138.708, 117.506 139.546, 119.204 140.154, 120.997 140.524, 122.855 140.647, 124.744 140.523, 126.634 140.154, 128.491 139.545, 130.284 138.707, 131.982 137.655, 133.556 136.407, 134.980 134.983, 136.228 133.408, 137.280 131.710, 138.117 129.917, 138.725 128.060, 139.095 " />
            <path fill="none" stroke-width="3.0" stroke-linecap="butt" stroke-opacity="1.0" stroke="rgb(0, 0, 0)" stroke-linejoin="round" d=" M 128.433, 141.761 126.197, 141.907 123.961, 141.760 121.764, 141.323 119.643, 140.602 117.633, 139.611 115.771, 138.366 114.086, 136.889 112.609, 135.205 111.365, 133.342 110.374, 131.333 109.654, 129.211 109.217, 127.014 109.070, 124.779 109.217, 122.543 109.653, 120.346 110.373, 118.224 111.364, 116.215 112.609, 114.352 114.086, 112.667 115.770, 111.190 117.633, 109.945 119.642, 108.953 121.764, 108.233 123.961, 107.795 126.197, 107.648 128.433, 107.795 130.631, 108.231 132.753, 108.952 134.763, 109.942 136.626, 111.187 138.311, 112.665 139.789, 114.349 141.034, 116.213 142.025, 118.223 142.745, 120.345 143.028, 121.765 143.182, 122.543 143.329, 124.779 143.182, 127.015 143.027, 127.793 142.745, 129.213 142.024, 131.334 141.033, 133.344 139.788, 135.207 138.310, 136.892 136.625, 138.369 134.762, 139.613 132.752, 140.604 130.630, 141.324 128.433, 141.761 " />
            <path fill="none" stroke-width="3.0" stroke-linecap="butt" stroke-opacity="1.0" stroke="rgb(0, 0, 0)" stroke-linejoin="round" d=" M 89.053, 132.863 89.051, 122.863 89.050, 117.240 " />
            <path fill="none" stroke-width="3.0" stroke-linecap="butt" stroke-opacity="1.0" stroke="rgb(0, 0, 0)" stroke-linejoin="round" d=" M 89.688, 135.598 89.686, 125.598 89.685, 115.598 89.685, 114.505 " />
            <path fill="none" stroke-width="3.0" stroke-linecap="butt" stroke-opacity="1.0" stroke="rgb(0, 0, 0)" stroke-linejoin="round" d=" M 101.121, 135.082 101.120, 125.082 101.119, 115.082 101.119, 114.734 " />
            <path fill="none" stroke-width="3.0" stroke-linecap="butt" stroke-opacity="1.0" stroke="rgb(0, 0, 0)" stroke-linejoin="round" d=" M 105.863, 130.053 105.862, 120.053 105.862, 119.605 " />
            <path fill="none" stroke-width="3.0" stroke-linecap="butt" stroke-opacity="1.0" stroke="rgb(0, 0, 0)" stroke-linejoin="round" d=" M 143.028, 121.765 143.027, 127.793 " />
            <path fill="none" stroke-width="3.0" stroke-linecap="butt" stroke-opacity="1.0" stroke="rgb(0, 0, 0)" stroke-linejoin="round" d=" M 146.216, 118.332 146.215, 128.332 146.215, 131.327 " />
            <path fill="none" stroke-width="3.0" stroke-linecap="butt" stroke-opacity="1.0" stroke="rgb(0, 0, 0)" stroke-linejoin="round" d=" M 150.965, 113.611 150.964, 123.611 150.963, 133.611 150.963, 136.206 " />
            <path fill="none" stroke-width="3.0" stroke-linecap="butt" stroke-opacity="1.0" stroke="rgb(0, 0, 0)" stroke-linejoin="round" d=" M 153.223, 128.554 153.224, 121.263 " />
            <path fill="none" stroke-width="3.0" stroke-linecap="butt" stroke-opacity="1.0" stroke="rgb(0, 0, 0)" stroke-linejoin="round" d=" M 162.415, 137.749 162.416, 127.749 162.417, 117.749 162.418, 112.355 " />
            <path fill="none" stroke-width="3.0" stroke-linecap="butt" stroke-opacity="1.0" stroke="rgb(0, 0, 0)" stroke-linejoin="round" d=" M 163.054, 114.228 163.052, 124.228 163.051, 134.228 163.051, 135.876 " />
        </g>
    </g>
</svg>
