<?xml version='1.0' encoding='ascii'?>
<svg xmlns="http://www.w3.org/2000/svg" version="1.1" width="250" height="250">
    <g id="ViewLayer_LineSet" xmlns:inkscape="http://www.inkscape.org/namespaces/inkscape" inkscape:groupmode="lineset" inkscape:label="ViewLayer_LineSet">
        <g xmlns:inkscape="http://www.inkscape.org/namespaces/inkscape" inkscape:groupmode="layer" id="strokes" inkscape:label="strokes">
            <path fill="none" stroke-width="3.0" stroke-linecap="butt" stroke-opacity="1.0" stroke="rgb(0, 0, 0)" stroke-linejoin="round" d=" M 221.437, 69.412 217.326, 69.413 208.766, 74.584 206.430, 75.994 197.871, 81.164 196.031, 82.276 196.028, 92.276 196.026, 102.276 196.023, 112.276 196.020, 122.276 196.018, 132.276 196.015, 142.276 196.013, 152.276 196.010, 162.276 196.010, 163.253 204.761, 168.092 208.895, 170.378 217.290, 175.020 221.400, 175.022 " />
            <path fill="none" stroke-width="3.0" stroke-linecap="butt" stroke-opacity="1.0" stroke="rgb(0, 0, 0)" stroke-linejoin="round" d=" M 217.290, 175.020 217.293, 165.020 217.297, 155.020 217.298, 149.794 217.302, 139.794 217.305, 129.794 217.308, 119.794 217.312, 109.794 217.315, 100.816 217.318, 90.816 217.322, 80.816 217.325, 70.816 217.326, 69.413 " />
            <path fill="none" stroke-width="3.0" stroke-linecap="butt" stroke-opacity="1.0" stroke="rgb(0, 0, 0)" stroke-linejoin="round" d=" M 30.870, 174.940 34.965, 174.942 43.715, 170.101 44.181, 169.843 52.931, 165.001 56.174, 163.207 56.171, 153.207 56.169, 143.207 56.166, 133.207 56.164, 123.207 56.161, 113.207 56.158, 103.207 56.156, 93.207 56.153, 83.207 56.153, 82.326 47.595, 77.153 46.559, 76.527 38.000, 71.355 34.930, 69.499 30.834, 69.501 " />
            <path fill="none" stroke-width="3.0" stroke-linecap="butt" stroke-opacity="1.0" stroke="rgb(0, 0, 0)" stroke-linejoin="round" d=" M 34.965, 174.942 34.961, 164.942 34.958, 154.942 34.955, 144.942 34.955, 144.451 34.951, 134.451 34.948, 124.451 34.945, 114.451 34.942, 106.158 34.939, 96.158 34.935, 86.158 34.932, 76.158 34.930, 69.499 " />
            <path fill="none" stroke-width="3.0" stroke-linecap="butt" stroke-opacity="1.0" stroke="rgb(0, 0, 0)" stroke-linejoin="round" d=" M -13.348, 201.673 -4.598, 196.831 4.152, 191.990 12.902, 187.149 21.652, 182.308 30.402, 177.466 30.871, 177.207 30.870, 174.940 30.869, 171.745 30.866, 161.745 30.862, 151.745 30.859, 141.745 30.855, 131.745 30.852, 121.745 30.848, 111.745 30.845, 101.745 30.841, 91.745 30.838, 81.745 30.835, 72.994 30.834, 69.501 30.833, 67.023 22.274, 61.851 13.716, 56.678 5.158, 51.506 -3.401, 46.333 -11.959, 41.161 -13.430, 40.272 " />
            <path fill="none" stroke-width="3.0" stroke-linecap="butt" stroke-opacity="1.0" stroke="rgb(0, 0, 0)" stroke-linejoin="round" d=" M 265.906, 40.071 257.346, 45.241 248.786, 50.411 240.226, 55.581 231.667, 60.751 223.107, 65.922 221.438, 66.929 221.437, 69.412 221.436, 72.907 221.432, 82.907 221.429, 92.907 221.425, 102.907 221.422, 112.907 221.418, 122.907 221.415, 132.907 221.411, 142.907 221.408, 152.907 221.404, 162.907 221.401, 171.825 221.400, 175.022 221.399, 177.293 230.150, 182.132 238.901, 186.971 247.653, 191.810 256.404, 196.649 265.155, 201.488 265.822, 201.857 " />
            <path fill="none" stroke-width="3.0" stroke-linecap="butt" stroke-opacity="1.0" stroke="rgb(0, 0, 0)" stroke-linejoin="round" d=" M 44.181, 169.843 45.349, 172.213 50.904, 180.529 52.166, 182.418 58.757, 189.938 60.255, 191.646 67.770, 198.243 69.479, 199.742 77.791, 205.301 79.680, 206.565 88.646, 210.993 90.685, 212.000 100.153, 215.221 102.307, 215.954 112.113, 217.911 114.345, 218.357 124.323, 219.019 126.596, 219.170 136.575, 218.524 138.849, 218.377 148.658, 216.434 150.895, 215.991 160.367, 212.785 162.528, 212.054 171.501, 207.639 173.549, 206.631 181.868, 201.083 183.769, 199.815 191.293, 193.228 193.012, 191.723 199.612, 184.209 201.121, 182.491 206.683, 174.181 207.955, 172.279 208.895, 170.378 " />
            <path fill="none" stroke-width="3.0" stroke-linecap="butt" stroke-opacity="1.0" stroke="rgb(0, 0, 0)" stroke-linejoin="round" d=" M 133.931, 181.120 126.581, 181.598 119.231, 181.113 112.008, 179.673 105.034, 177.303 98.430, 174.043 92.308, 169.950 86.773, 165.093 81.918, 159.556 77.828, 153.433 76.973, 151.699 76.615, 150.974 75.857, 149.436 75.434, 148.577 74.571, 146.829 72.204, 139.856 70.894, 133.273 70.767, 132.634 70.284, 125.286 70.764, 117.937 70.891, 117.298 72.198, 110.714 74.563, 103.740 75.425, 101.990 76.606, 99.593 77.309, 98.167 77.818, 97.133 78.633, 95.912 81.908, 91.007 86.762, 85.467 92.298, 80.607 98.421, 76.511 105.027, 73.249 112.002, 70.878 119.228, 69.437 126.581, 68.951 133.935, 69.430 141.164, 70.864 148.144, 73.231 154.755, 76.488 160.885, 80.582 166.428, 85.440 171.289, 90.981 174.259, 95.426 175.385, 97.110 175.524, 97.393 175.668, 97.684 176.708, 99.793 178.645, 103.721 181.014, 110.701 181.250, 111.889 182.451, 117.931 182.570, 119.744 182.932, 125.287 182.568, 130.829 182.448, 132.642 181.245, 138.682 181.008, 139.870 178.636, 146.848 177.137, 149.887 176.698, 150.775 176.133, 151.920 175.374, 153.457 171.277, 159.583 166.416, 165.121 160.873, 169.977 154.744, 174.067 148.135, 177.322 141.157, 179.686 133.931, 181.120 " />
            <path fill="none" stroke-width="3.0" stroke-linecap="butt" stroke-opacity="1.0" stroke="rgb(0, 0, 0)" stroke-linejoin="round" d=" M 206.430, 75.994 201.153, 68.099 194.558, 60.582 193.046, 58.859 185.525, 52.268 183.801, 50.758 175.484, 45.206 173.578, 43.934 164.607, 39.516 162.552, 38.504 153.081, 35.296 150.912, 34.561 141.103, 32.617 138.858, 32.173 128.879, 31.526 126.597, 31.378 116.619, 32.040 114.338, 32.192 104.532, 34.151 102.292, 34.599 102.282, 34.601 92.816, 37.823 90.657, 38.558 81.692, 42.989 79.649, 43.998 71.339, 49.561 69.447, 50.828 61.934, 57.427 60.224, 58.929 53.637, 66.453 52.138, 68.164 46.559, 76.527 " />
            <path fill="none" stroke-width="3.0" stroke-linecap="butt" stroke-opacity="1.0" stroke="rgb(0, 0, 0)" stroke-linejoin="round" d=" M 130.967, 159.901 126.374, 160.200 121.781, 159.898 117.267, 158.999 112.909, 157.518 108.782, 155.482 104.956, 152.924 101.496, 149.890 98.462, 146.429 95.906, 142.603 95.372, 141.519 95.286, 141.345 94.777, 140.314 94.674, 140.105 94.253, 139.252 93.871, 138.476 92.391, 134.118 92.271, 133.512 92.174, 133.027 91.723, 130.761 91.493, 129.604 91.192, 125.012 91.492, 120.420 91.722, 119.264 92.172, 116.997 92.269, 116.512 92.389, 115.906 93.868, 111.548 94.250, 110.772 95.584, 108.066 95.683, 107.864 95.902, 107.420 95.954, 107.343 98.458, 103.592 101.492, 100.131 104.952, 97.095 108.778, 94.536 112.906, 92.499 117.265, 91.018 121.780, 90.118 126.374, 89.816 130.968, 90.115 135.484, 91.012 139.845, 92.492 143.975, 94.527 147.804, 97.085 151.267, 100.120 154.303, 103.582 156.409, 106.734 156.810, 107.334 156.862, 107.411 157.038, 107.769 157.843, 109.400 158.898, 111.541 159.830, 114.284 159.924, 114.562 160.377, 115.898 160.378, 115.901 161.276, 120.418 161.577, 125.013 161.275, 129.608 160.376, 134.123 160.375, 134.126 159.921, 135.462 159.827, 135.740 158.895, 138.483 157.479, 141.354 157.249, 141.820 156.857, 142.612 154.298, 146.440 151.262, 149.900 147.799, 152.935 143.971, 155.491 139.841, 157.526 135.482, 159.004 130.967, 159.901 " />
            <path fill="none" stroke-width="3.0" stroke-linecap="butt" stroke-opacity="1.0" stroke="rgb(0, 0, 0)" stroke-linejoin="round" d=" M 76.973, 151.699 83.605, 148.030 83.604, 145.987 83.604, 145.595 83.603, 135.595 83.601, 125.595 83.600, 115.595 83.598, 105.595 83.598, 101.573 83.598, 101.144 83.597, 98.912 78.633, 95.912 " />
            <path fill="none" stroke-width="3.0" stroke-linecap="butt" stroke-opacity="1.0" stroke="rgb(0, 0, 0)" stroke-linejoin="round" d=" M 175.514, 151.920 175.516, 141.920 175.518, 131.920 175.520, 121.920 175.521, 111.920 175.523, 101.920 175.524, 97.393 " />
            <path fill="none" stroke-width="3.0" stroke-linecap="butt" stroke-opacity="1.0" stroke="rgb(0, 0, 0)" stroke-linejoin="round" d=" M 174.259, 95.426 168.518, 98.894 168.517, 101.127 168.517, 101.555 168.515, 111.555 168.514, 120.763 168.513, 129.011 168.511, 139.011 168.510, 145.611 168.510, 146.003 168.510, 148.047 175.514, 151.920 176.133, 151.920 " />
            <path fill="none" stroke-width="3.0" stroke-linecap="butt" stroke-opacity="1.0" stroke="rgb(0, 0, 0)" stroke-linejoin="round" d=" M 129.606, 150.161 126.279, 150.378 122.952, 150.159 119.682, 149.508 116.524, 148.436 113.534, 146.961 110.762, 145.108 108.256, 142.910 106.058, 140.403 104.206, 137.631 103.819, 136.846 103.482, 136.162 103.478, 136.154 103.425, 136.048 103.314, 135.821 102.857, 134.894 102.731, 134.640 102.627, 134.333 102.362, 133.553 101.660, 131.483 101.009, 128.214 100.867, 126.042 100.791, 124.887 100.866, 123.732 101.009, 121.560 101.659, 118.290 102.361, 116.221 102.625, 115.440 102.730, 115.133 102.855, 114.879 103.476, 113.619 103.973, 112.610 104.204, 112.142 104.296, 112.004 104.379, 111.880 104.573, 111.589 106.056, 109.369 108.254, 106.862 110.760, 104.663 113.533, 102.810 116.523, 101.334 119.681, 100.261 122.951, 99.610 126.279, 99.391 129.607, 99.609 132.878, 100.259 136.037, 101.330 139.028, 102.805 141.802, 104.658 144.310, 106.856 146.509, 109.364 147.853, 111.375 148.187, 111.875 148.270, 111.999 148.362, 112.137 148.490, 112.397 148.605, 112.629 149.225, 113.887 149.455, 114.353 149.722, 114.894 149.838, 115.129 150.910, 118.287 151.217, 119.831 151.560, 121.559 151.751, 124.478 151.778, 124.887 151.751, 125.296 151.560, 128.215 151.216, 129.943 150.908, 131.486 149.836, 134.645 149.720, 134.880 149.453, 135.420 149.223, 135.886 149.157, 136.020 149.141, 136.052 149.085, 136.166 148.654, 137.039 148.360, 137.636 146.507, 140.408 144.307, 142.915 141.799, 145.114 139.026, 146.966 136.035, 148.440 132.877, 149.511 129.606, 150.161 " />
            <path fill="none" stroke-width="3.0" stroke-linecap="butt" stroke-opacity="1.0" stroke="rgb(0, 0, 0)" stroke-linejoin="round" d=" M 156.409, 106.734 156.409, 107.334 156.409, 108.110 156.409, 110.692 156.408, 120.692 156.406, 130.692 156.405, 138.939 156.405, 139.612 156.405, 140.322 156.405, 141.354 157.249, 141.820 " />
            <path fill="none" stroke-width="3.0" stroke-linecap="butt" stroke-opacity="1.0" stroke="rgb(0, 0, 0)" stroke-linejoin="round" d=" M 95.372, 141.519 95.687, 141.345 95.687, 140.314 95.687, 139.603 95.687, 138.173 95.686, 128.173 95.685, 118.173 95.684, 111.458 95.683, 108.120 95.683, 107.864 " />
            <path fill="none" stroke-width="3.0" stroke-linecap="butt" stroke-opacity="1.0" stroke="rgb(0, 0, 0)" stroke-linejoin="round" d=" M 128.839, 144.671 126.225, 144.842 123.611, 144.670 121.042, 144.159 118.562, 143.316 116.213, 142.158 114.035, 140.702 112.066, 138.975 110.340, 137.006 108.884, 134.828 108.569, 134.188 108.477, 134.002 108.309, 133.660 107.726, 132.479 107.672, 132.319 107.386, 131.476 106.884, 129.999 106.606, 128.601 106.605, 128.596 106.445, 127.791 106.373, 127.430 106.202, 124.816 106.373, 122.202 106.445, 121.841 106.605, 121.036 106.606, 121.031 106.883, 119.633 107.385, 118.155 107.671, 117.313 107.725, 117.153 108.288, 116.012 108.476, 115.630 108.620, 115.337 108.702, 115.171 108.813, 114.947 108.883, 114.804 109.011, 114.613 109.173, 114.370 110.338, 112.626 112.065, 110.656 114.034, 108.928 116.212, 107.473 118.561, 106.313 121.042, 105.471 123.611, 104.959 126.225, 104.788 128.840, 104.959 131.410, 105.469 133.891, 106.311 136.241, 107.470 138.419, 108.925 140.389, 110.652 142.117, 112.622 143.173, 114.202 143.445, 114.610 143.454, 114.623 143.573, 114.801 143.598, 114.853 143.643, 114.944 143.673, 115.005 143.786, 115.233 144.403, 116.485 144.691, 117.068 144.732, 117.151 145.470, 119.326 145.472, 119.332 145.574, 119.632 145.631, 119.920 146.085, 122.202 146.256, 124.816 146.084, 127.431 145.630, 129.712 145.573, 130.000 145.471, 130.300 145.469, 130.307 144.730, 132.481 144.690, 132.564 144.402, 133.147 144.148, 133.663 143.887, 134.191 143.847, 134.271 143.794, 134.380 143.571, 134.831 142.115, 137.009 140.388, 138.978 138.418, 140.705 136.239, 142.161 133.889, 143.319 131.409, 144.160 128.839, 144.671 " />
            <path fill="none" stroke-width="3.0" stroke-linecap="butt" stroke-opacity="1.0" stroke="rgb(0, 0, 0)" stroke-linejoin="round" d=" M 127.998, 138.649 126.167, 138.769 124.335, 138.649 122.535, 138.290 120.798, 137.700 119.152, 136.889 117.626, 135.869 116.246, 134.659 115.036, 133.279 114.017, 131.753 113.804, 131.321 113.779, 131.270 113.679, 131.069 113.662, 131.033 113.542, 130.790 113.460, 130.624 113.423, 130.550 113.205, 130.107 112.970, 129.413 112.897, 129.199 112.870, 129.121 112.788, 128.879 112.615, 128.370 112.360, 127.089 112.257, 126.570 112.176, 125.337 112.137, 124.738 112.176, 124.140 112.257, 122.907 112.360, 122.388 112.615, 121.107 112.788, 120.598 112.870, 120.356 112.897, 120.277 112.969, 120.064 113.205, 119.369 113.423, 118.927 113.460, 118.852 113.758, 118.248 113.778, 118.206 113.889, 117.981 113.924, 117.910 114.004, 117.748 114.016, 117.723 114.177, 117.483 114.203, 117.443 114.219, 117.419 115.036, 116.197 116.246, 114.817 117.625, 113.607 119.151, 112.587 120.797, 111.775 122.535, 111.185 124.335, 110.827 126.167, 110.707 127.998, 110.826 129.799, 111.184 131.537, 111.774 133.183, 112.586 134.709, 113.606 136.089, 114.816 137.300, 116.196 138.039, 117.303 138.132, 117.442 138.159, 117.481 138.290, 117.678 138.320, 117.722 138.332, 117.747 138.608, 118.307 138.646, 118.383 139.099, 119.303 139.132, 119.368 139.172, 119.487 139.199, 119.568 139.282, 119.811 139.709, 121.069 139.722, 121.107 139.894, 121.973 140.080, 122.907 140.105, 123.299 140.200, 124.739 140.105, 126.178 140.079, 126.570 139.893, 127.504 139.721, 128.370 139.708, 128.408 139.281, 129.666 139.199, 129.909 139.171, 129.990 139.131, 130.109 139.099, 130.174 138.758, 130.865 138.674, 131.034 138.657, 131.070 138.645, 131.094 138.525, 131.336 138.319, 131.755 137.299, 133.281 136.089, 134.661 134.709, 135.871 133.182, 136.890 131.536, 137.702 129.798, 138.291 127.998, 138.649 " />
            <path fill="none" stroke-width="3.0" stroke-linecap="butt" stroke-opacity="1.0" stroke="rgb(0, 0, 0)" stroke-linejoin="round" d=" M 128.346, 141.140 126.191, 141.281 124.036, 141.140 121.918, 140.718 119.873, 140.024 117.936, 139.068 116.141, 137.868 114.517, 136.444 113.093, 134.821 111.893, 133.025 111.643, 132.517 111.613, 132.457 111.497, 132.221 111.330, 131.883 111.256, 131.731 111.036, 131.287 110.938, 131.088 110.930, 131.062 110.573, 130.012 110.244, 129.043 110.129, 128.464 110.097, 128.305 109.823, 126.925 109.682, 124.771 109.823, 122.616 110.097, 121.236 110.129, 121.077 110.244, 120.498 110.573, 119.529 110.929, 118.479 110.938, 118.453 111.036, 118.254 111.255, 117.809 111.347, 117.623 111.743, 116.819 111.750, 116.806 111.849, 116.604 111.874, 116.554 111.893, 116.516 112.114, 116.184 113.092, 114.720 114.516, 113.096 116.140, 111.672 117.935, 110.471 119.872, 109.516 121.917, 108.821 124.036, 108.400 126.191, 108.258 128.346, 108.399 130.465, 108.820 132.510, 109.514 134.448, 110.469 136.244, 111.669 137.868, 113.093 139.293, 114.718 140.271, 116.182 140.321, 116.256 140.493, 116.514 140.512, 116.552 140.536, 116.602 140.576, 116.682 140.723, 116.981 140.815, 117.168 141.035, 117.614 141.143, 117.831 141.448, 118.451 141.498, 118.599 141.944, 119.911 141.974, 120.001 142.143, 120.497 142.497, 122.280 142.564, 122.615 142.705, 124.771 142.564, 126.926 142.497, 127.261 142.142, 129.045 141.974, 129.540 141.943, 129.630 141.498, 130.942 141.447, 131.090 141.142, 131.710 141.035, 131.927 141.008, 131.981 140.888, 132.223 140.772, 132.459 140.675, 132.656 140.492, 133.027 139.292, 134.823 137.867, 136.447 136.243, 137.871 134.447, 139.070 132.510, 140.025 130.464, 140.719 128.346, 141.140 " />
            <path fill="none" stroke-width="3.0" stroke-linecap="butt" stroke-opacity="1.0" stroke="rgb(0, 0, 0)" stroke-linejoin="round" d=" M 127.742, 136.816 126.149, 136.920 124.556, 136.816 122.990, 136.504 121.478, 135.991 120.046, 135.284 118.719, 134.397 117.519, 133.345 116.466, 132.144 115.579, 130.817 115.394, 130.441 115.387, 130.427 115.372, 130.397 115.274, 130.199 115.031, 129.705 114.873, 129.385 114.764, 129.063 114.651, 128.732 114.360, 127.874 114.324, 127.694 114.259, 127.367 114.251, 127.325 114.192, 127.028 114.049, 126.308 113.944, 124.715 114.049, 123.122 114.192, 122.401 114.251, 122.105 114.259, 122.063 114.324, 121.736 114.360, 121.556 114.651, 120.698 114.764, 120.366 114.873, 120.044 115.031, 119.724 115.420, 118.935 115.473, 118.828 115.579, 118.612 115.725, 118.394 115.756, 118.348 116.466, 117.285 117.518, 116.084 118.719, 115.032 120.046, 114.144 121.478, 113.438 122.990, 112.925 124.556, 112.613 126.149, 112.509 127.742, 112.613 129.308, 112.924 130.820, 113.437 132.252, 114.143 133.580, 115.030 134.781, 116.083 135.833, 117.284 136.477, 118.246 136.574, 118.393 136.594, 118.422 136.647, 118.501 136.721, 118.611 137.036, 119.252 137.304, 119.794 137.416, 120.021 137.427, 120.043 137.744, 120.977 137.809, 121.169 137.816, 121.191 137.875, 121.365 137.940, 121.555 138.252, 123.122 138.290, 123.708 138.310, 124.011 138.356, 124.715 138.310, 125.419 138.290, 125.722 138.251, 126.308 137.940, 127.874 137.875, 128.065 137.816, 128.239 137.808, 128.261 137.743, 128.453 137.426, 129.386 137.415, 129.409 137.303, 129.636 137.036, 130.178 137.025, 130.200 136.927, 130.399 136.913, 130.428 136.856, 130.543 136.720, 130.818 135.833, 132.146 134.780, 133.346 133.579, 134.399 132.252, 135.286 130.820, 135.992 129.308, 136.505 127.742, 136.816 " />
            <path fill="none" stroke-width="3.0" stroke-linecap="butt" stroke-opacity="1.0" stroke="rgb(0, 0, 0)" stroke-linejoin="round" d=" M 127.544, 135.399 126.135, 135.491 124.726, 135.399 123.341, 135.123 122.004, 134.669 120.738, 134.045 119.564, 133.260 118.502, 132.329 117.571, 131.268 116.787, 130.094 116.163, 128.827 115.832, 127.853 115.709, 127.490 115.473, 126.305 115.433, 126.105 115.420, 125.904 115.341, 124.697 115.420, 123.489 115.433, 123.288 115.473, 123.088 115.708, 121.903 115.832, 121.540 116.162, 120.566 116.787, 119.299 117.571, 118.125 118.502, 117.064 119.563, 116.133 120.737, 115.348 122.004, 114.723 123.341, 114.269 124.726, 113.994 126.135, 113.901 127.544, 113.993 128.929, 114.269 130.266, 114.723 131.533, 115.347 132.707, 116.132 133.769, 117.063 134.700, 118.124 135.485, 119.299 136.109, 120.565 136.235, 120.934 136.563, 121.902 136.594, 122.056 136.647, 122.322 136.839, 123.287 136.931, 124.697 136.839, 126.106 136.647, 127.071 136.594, 127.337 136.563, 127.491 136.234, 128.459 136.109, 128.828 135.484, 130.094 134.700, 131.269 133.768, 132.330 132.707, 133.261 131.533, 134.046 130.266, 134.670 128.929, 135.124 127.544, 135.399 " />
            <path fill="none" stroke-width="3.0" stroke-linecap="butt" stroke-opacity="1.0" stroke="rgb(0, 0, 0)" stroke-linejoin="round" d=" M 127.258, 133.351 126.115, 133.425 124.972, 133.350 123.849, 133.127 122.765, 132.759 121.737, 132.252 120.785, 131.616 119.924, 130.861 119.169, 130.000 118.533, 129.048 118.027, 128.021 117.658, 126.936 117.435, 125.813 117.360, 124.670 117.435, 123.527 117.658, 122.404 118.026, 121.320 118.533, 120.293 119.169, 119.340 119.924, 118.479 120.785, 117.724 121.737, 117.088 122.764, 116.581 123.849, 116.213 124.972, 115.989 126.115, 115.914 127.258, 115.989 128.381, 116.213 129.466, 116.581 130.493, 117.087 131.445, 117.724 132.307, 118.479 133.062, 119.340 133.698, 120.292 134.205, 121.319 134.573, 122.404 134.796, 123.527 134.871, 124.670 134.796, 125.813 134.573, 126.936 134.204, 128.021 133.698, 129.048 133.061, 130.000 132.306, 130.861 131.445, 131.617 130.493, 132.253 129.466, 132.759 128.381, 133.127 127.258, 133.351 " />
            <path fill="none" stroke-width="3.0" stroke-linecap="butt" stroke-opacity="1.0" stroke="rgb(0, 0, 0)" stroke-linejoin="round" d=" M 127.385, 134.260 126.124, 134.343 124.863, 134.260 123.623, 134.013 122.427, 133.607 121.294, 133.048 120.243, 132.346 119.293, 131.513 118.460, 130.563 117.758, 129.512 117.199, 128.379 116.793, 127.182 116.546, 125.943 116.463, 124.682 116.546, 123.421 116.793, 122.182 117.199, 120.985 117.757, 119.852 118.459, 118.801 119.293, 117.851 120.243, 117.017 121.293, 116.315 122.427, 115.756 123.623, 115.350 124.863, 115.103 126.124, 115.020 127.385, 115.103 128.625, 115.349 129.821, 115.756 130.955, 116.315 132.006, 117.017 132.956, 117.850 133.789, 118.800 134.491, 119.851 135.050, 120.984 135.457, 122.181 135.703, 123.421 135.786, 124.682 135.703, 125.943 135.456, 127.183 135.050, 128.379 134.491, 129.513 133.789, 130.564 132.956, 131.514 132.005, 132.347 130.954, 133.049 129.821, 133.608 128.624, 134.014 127.385, 134.260 " />
            <path fill="none" stroke-width="3.0" stroke-linecap="butt" stroke-opacity="1.0" stroke="rgb(0, 0, 0)" stroke-linejoin="round" d=" M 75.434, 148.577 75.432, 138.577 75.430, 128.577 75.428, 118.577 75.426, 108.577 75.425, 101.990 " />
            <path fill="none" stroke-width="3.0" stroke-linecap="butt" stroke-opacity="1.0" stroke="rgb(0, 0, 0)" stroke-linejoin="round" d=" M 76.615, 150.974 76.613, 140.974 76.612, 130.974 76.610, 120.974 76.608, 110.974 76.606, 100.974 76.606, 99.593 " />
            <path fill="none" stroke-width="3.0" stroke-linecap="butt" stroke-opacity="1.0" stroke="rgb(0, 0, 0)" stroke-linejoin="round" d=" M 91.723, 130.761 91.722, 120.761 91.722, 119.264 " />
            <path fill="none" stroke-width="3.0" stroke-linecap="butt" stroke-opacity="1.0" stroke="rgb(0, 0, 0)" stroke-linejoin="round" d=" M 92.271, 133.512 92.270, 123.512 92.269, 116.512 " />
            <path fill="none" stroke-width="3.0" stroke-linecap="butt" stroke-opacity="1.0" stroke="rgb(0, 0, 0)" stroke-linejoin="round" d=" M 102.362, 133.553 102.361, 123.553 102.361, 116.221 " />
            <path fill="none" stroke-width="3.0" stroke-linecap="butt" stroke-opacity="1.0" stroke="rgb(0, 0, 0)" stroke-linejoin="round" d=" M 106.605, 128.596 106.605, 121.036 " />
            <path fill="none" stroke-width="3.0" stroke-linecap="butt" stroke-opacity="1.0" stroke="rgb(0, 0, 0)" stroke-linejoin="round" d=" M 142.497, 122.280 142.497, 127.261 " />
            <path fill="none" stroke-width="3.0" stroke-linecap="butt" stroke-opacity="1.0" stroke="rgb(0, 0, 0)" stroke-linejoin="round" d=" M 145.472, 119.332 145.471, 129.332 145.471, 130.300 " />
            <path fill="none" stroke-width="3.0" stroke-linecap="butt" stroke-opacity="1.0" stroke="rgb(0, 0, 0)" stroke-linejoin="round" d=" M 149.722, 114.894 149.721, 124.894 149.720, 134.880 " />
            <path fill="none" stroke-width="3.0" stroke-linecap="butt" stroke-opacity="1.0" stroke="rgb(0, 0, 0)" stroke-linejoin="round" d=" M 151.751, 125.296 151.751, 124.478 " />
            <path fill="none" stroke-width="3.0" stroke-linecap="butt" stroke-opacity="1.0" stroke="rgb(0, 0, 0)" stroke-linejoin="round" d=" M 159.827, 135.740 159.828, 125.740 159.829, 115.740 159.830, 114.284 " />
            <path fill="none" stroke-width="3.0" stroke-linecap="butt" stroke-opacity="1.0" stroke="rgb(0, 0, 0)" stroke-linejoin="round" d=" M 160.377, 115.898 160.376, 125.898 160.375, 134.126 " />
            <path fill="none" stroke-width="3.0" stroke-linecap="butt" stroke-opacity="1.0" stroke="rgb(0, 0, 0)" stroke-linejoin="round" d=" M 176.708, 99.793 176.706, 109.793 176.704, 119.793 176.702, 129.793 176.700, 139.793 176.698, 149.669 176.698, 150.775 " />
        </g>
    </g>
</svg>
