<?xml version='1.0' encoding='ascii'?>
<svg xmlns="http://www.w3.org/2000/svg" version="1.1" width="250" height="250">
    <g id="ViewLayer_LineSet" xmlns:inkscape="http://www.inkscape.org/namespaces/inkscape" inkscape:groupmode="lineset" inkscape:label="ViewLayer_LineSet">
        <g xmlns:inkscape="http://www.inkscape.org/namespaces/inkscape" inkscape:groupmode="layer" id="strokes" inkscape:label="strokes">
            <path fill="none" stroke-width="3.0" stroke-linecap="butt" stroke-opacity="1.0" stroke="rgb(0, 0, 0)" stroke-linejoin="round" d=" M 140.282, 226.826 130.303, 227.471 126.984, 227.685 117.006, 227.023 113.689, 226.802 103.883, 224.844 100.625, 224.193 91.158, 220.972 88.013, 219.902 79.047, 215.474 76.070, 214.003 67.758, 208.443 65.000, 206.598 57.484, 200.001 54.990, 197.812 48.399, 190.292 46.212, 187.797 40.658, 179.481 38.815, 176.723 37.300, 173.650 35.282, 169.557 32.926, 164.779 29.711, 155.310 28.644, 152.169 26.691, 142.361 26.044, 139.108 25.386, 129.129 25.168, 125.819 25.818, 115.840 26.034, 112.529 27.980, 102.720 28.625, 99.464 31.834, 89.993 32.899, 86.848 37.316, 77.876 37.849, 76.793 38.783, 74.896 40.242, 72.709 45.791, 64.390 46.176, 63.813 52.763, 56.289 54.953, 53.788 62.466, 47.188 64.964, 44.993 73.274, 39.429 76.039, 37.578 85.003, 33.147 87.988, 31.672 97.454, 28.449 100.607, 27.375 110.413, 25.415 113.681, 24.762 123.659, 24.100 126.986, 23.879 136.965, 24.524 140.293, 24.740 150.103, 26.683 153.376, 27.331 162.848, 30.539 166.009, 31.610 174.981, 36.028 177.977, 37.503 186.294, 43.054 189.073, 44.909 196.594, 51.499 199.106, 53.701 205.702, 61.217 207.906, 63.729 213.322, 71.832 215.321, 74.821 215.864, 75.923 220.287, 84.892 221.222, 86.787 224.436, 96.257 225.510, 99.422 227.459, 109.230 228.110, 112.508 228.761, 122.487 228.978, 125.821 228.320, 135.799 228.100, 139.133 226.144, 148.940 225.490, 152.215 222.270, 161.682 221.195, 164.844 218.464, 170.370 216.408, 174.533 215.287, 176.801 209.724, 185.112 207.868, 187.884 201.268, 195.397 199.067, 197.903 191.543, 204.489 189.034, 206.685 180.714, 212.233 177.942, 214.081 168.969, 218.495 165.981, 219.966 156.508, 223.171 153.355, 224.238 143.546, 226.180 140.282, 226.826 " />
            <path fill="none" stroke-width="3.0" stroke-linecap="butt" stroke-opacity="1.0" stroke="rgb(0, 0, 0)" stroke-linejoin="round" d=" M 233.398, 264.502 240.926, 257.921 248.455, 251.339 250.598, 249.465 " />
            <path fill="none" stroke-width="3.0" stroke-linecap="butt" stroke-opacity="1.0" stroke="rgb(0, 0, 0)" stroke-linejoin="round" d=" M 250.712, 2.326 243.189, -4.262 235.666, -10.850 233.508, -12.740 " />
            <path fill="none" stroke-width="3.0" stroke-linecap="butt" stroke-opacity="1.0" stroke="rgb(0, 0, 0)" stroke-linejoin="round" d=" M 20.854, -12.491 13.345, -5.886 5.837, 0.719 3.717, 2.584 -2.866, 10.112 -9.448, 17.639 -11.304, 19.762 " />
            <path fill="none" stroke-width="3.0" stroke-linecap="butt" stroke-opacity="1.0" stroke="rgb(0, 0, 0)" stroke-linejoin="round" d=" M -11.198, 232.053 -4.608, 239.575 1.982, 247.096 3.827, 249.202 11.340, 255.801 18.854, 262.400 20.960, 264.249 " />
            <path fill="none" stroke-width="3.0" stroke-linecap="butt" stroke-opacity="1.0" stroke="rgb(0, 0, 0)" stroke-linejoin="round" d=" M 54.913, 163.905 55.918, 165.945 61.473, 174.260 61.841, 174.811 68.432, 182.331 68.869, 182.829 76.385, 189.425 76.883, 189.862 85.196, 195.421 85.747, 195.790 94.714, 200.217 95.309, 200.511 104.776, 203.731 105.406, 203.945 115.212, 205.902 115.865, 206.032 125.843, 206.693 126.508, 206.737 136.487, 206.090 137.153, 206.047 146.962, 204.103 147.618, 203.973 157.090, 200.766 157.724, 200.552 166.696, 196.135 167.298, 195.839 175.616, 190.290 176.175, 189.917 183.698, 183.329 184.204, 182.886 190.803, 175.373 191.247, 174.866 196.808, 166.555 197.183, 165.995 197.995, 164.351 " />
            <path fill="none" stroke-width="3.0" stroke-linecap="butt" stroke-opacity="1.0" stroke="rgb(0, 0, 0)" stroke-linejoin="round" d=" M 132.896, 173.708 126.508, 174.124 120.121, 173.703 113.845, 172.452 107.785, 170.393 102.046, 167.560 96.726, 164.004 91.915, 159.783 87.697, 154.971 84.142, 149.651 83.399, 148.144 82.429, 146.177 81.960, 145.227 81.312, 143.911 81.023, 143.061 79.255, 137.852 78.006, 131.576 77.586, 125.190 78.003, 118.804 79.250, 112.528 81.017, 107.317 81.306, 106.467 81.954, 105.151 83.153, 102.717 83.836, 101.332 84.134, 100.726 84.843, 99.665 87.688, 95.403 91.907, 90.589 96.718, 86.366 102.039, 82.807 107.779, 79.973 113.841, 77.913 120.120, 76.661 126.509, 76.239 132.899, 76.656 139.180, 77.903 145.245, 79.959 150.989, 82.790 156.315, 86.347 161.131, 90.569 165.355, 95.383 167.936, 99.245 168.914, 100.709 169.160, 101.207 170.164, 103.244 171.103, 105.148 171.747, 106.453 173.805, 112.518 175.054, 118.800 175.269, 122.091 175.472, 125.191 175.268, 128.291 175.052, 131.582 173.801, 137.863 171.740, 143.926 171.096, 145.231 170.437, 146.566 170.157, 147.134 169.450, 148.567 168.906, 149.669 165.346, 154.992 161.122, 159.804 156.306, 164.024 150.981, 167.578 145.238, 170.407 139.175, 172.462 132.896, 173.708 " />
            <path fill="none" stroke-width="3.0" stroke-linecap="butt" stroke-opacity="1.0" stroke="rgb(0, 0, 0)" stroke-linejoin="round" d=" M 195.868, 82.374 191.272, 75.497 184.676, 67.980 184.229, 67.471 176.709, 60.880 176.200, 60.434 167.883, 54.881 167.320, 54.506 158.349, 50.087 157.742, 49.788 148.271, 46.579 147.631, 46.362 137.822, 44.418 137.161, 44.286 127.181, 43.639 126.509, 43.595 116.531, 44.256 115.860, 44.301 106.053, 46.259 105.395, 46.391 95.928, 49.612 95.293, 49.828 86.327, 54.258 85.727, 54.554 77.416, 60.116 76.861, 60.488 69.347, 67.087 68.845, 67.527 62.257, 75.050 61.818, 75.551 56.969, 82.819 " />
            <path fill="none" stroke-width="3.0" stroke-linecap="butt" stroke-opacity="1.0" stroke="rgb(0, 0, 0)" stroke-linejoin="round" d=" M 213.322, 71.832 204.762, 77.002 204.126, 77.386 204.126, 79.062 204.125, 82.278 204.122, 92.278 204.119, 100.408 204.117, 110.408 204.114, 120.408 204.111, 130.408 204.108, 140.408 204.105, 149.970 204.102, 159.970 204.101, 163.251 204.100, 166.193 204.100, 167.727 212.851, 172.566 216.408, 174.533 " />
            <path fill="none" stroke-width="3.0" stroke-linecap="butt" stroke-opacity="1.0" stroke="rgb(0, 0, 0)" stroke-linejoin="round" d=" M 37.300, 173.650 46.050, 168.808 48.109, 167.669 48.108, 166.138 48.107, 163.197 48.105, 153.197 48.103, 147.251 48.100, 137.251 48.097, 127.251 48.094, 117.251 48.092, 107.251 48.090, 103.126 48.088, 93.126 48.085, 83.126 48.085, 82.337 48.084, 79.123 48.083, 77.449 40.242, 72.709 " />
            <path fill="none" stroke-width="3.0" stroke-linecap="butt" stroke-opacity="1.0" stroke="rgb(0, 0, 0)" stroke-linejoin="round" d=" M 48.108, 166.138 50.875, 166.139 54.913, 163.905 63.663, 159.064 65.933, 157.807 65.931, 147.807 65.929, 137.807 65.927, 127.807 65.925, 117.807 65.922, 107.807 65.920, 97.807 65.918, 88.228 57.360, 83.055 56.969, 82.819 50.852, 79.122 48.084, 79.123 " />
            <path fill="none" stroke-width="3.0" stroke-linecap="butt" stroke-opacity="1.0" stroke="rgb(0, 0, 0)" stroke-linejoin="round" d=" M 50.875, 166.139 50.872, 156.139 50.872, 155.407 50.870, 145.407 50.867, 135.407 50.864, 125.407 50.861, 115.407 50.859, 105.407 50.856, 94.966 50.853, 84.966 50.852, 79.122 " />
            <path fill="none" stroke-width="3.0" stroke-linecap="butt" stroke-opacity="1.0" stroke="rgb(0, 0, 0)" stroke-linejoin="round" d=" M 204.126, 79.062 201.349, 79.063 195.868, 82.374 187.308, 87.544 186.238, 88.190 186.236, 98.190 186.234, 108.190 186.232, 118.190 186.229, 128.190 186.227, 138.190 186.225, 148.190 186.223, 157.841 194.974, 162.681 197.995, 164.351 201.324, 166.192 204.100, 166.193 " />
            <path fill="none" stroke-width="3.0" stroke-linecap="butt" stroke-opacity="1.0" stroke="rgb(0, 0, 0)" stroke-linejoin="round" d=" M 201.324, 166.192 201.327, 157.605 201.330, 147.605 201.332, 137.605 201.335, 127.605 201.338, 117.605 201.341, 107.605 201.344, 97.605 201.345, 92.769 201.348, 82.769 201.349, 79.063 " />
            <path fill="none" stroke-width="3.0" stroke-linecap="butt" stroke-opacity="1.0" stroke="rgb(0, 0, 0)" stroke-linejoin="round" d=" M 130.520, 156.702 126.343, 156.975 122.165, 156.700 118.060, 155.882 114.096, 154.536 110.343, 152.684 106.863, 150.358 103.716, 147.598 100.956, 144.451 98.631, 140.970 97.830, 139.346 97.718, 139.119 97.511, 138.698 96.780, 137.216 96.206, 135.524 95.435, 133.253 94.766, 129.893 94.618, 129.148 94.440, 126.441 94.344, 124.971 94.440, 123.501 94.617, 120.794 94.765, 120.049 95.433, 116.689 96.203, 114.417 96.778, 112.725 97.715, 110.822 98.339, 109.558 98.628, 108.970 99.009, 108.401 100.953, 105.489 103.712, 102.341 106.859, 99.580 110.340, 97.253 114.094, 95.400 118.058, 94.053 122.165, 93.235 126.343, 92.960 130.521, 93.233 134.629, 94.049 138.594, 95.394 142.351, 97.245 145.833, 99.572 148.982, 102.332 151.744, 105.481 153.690, 108.393 154.071, 108.963 154.231, 109.289 154.374, 109.578 155.886, 112.645 155.923, 112.719 157.269, 116.685 157.329, 116.987 157.653, 118.616 157.798, 119.347 158.086, 120.792 158.359, 124.971 158.085, 129.150 157.797, 130.596 157.652, 131.326 157.327, 132.955 157.267, 133.258 155.920, 137.223 155.884, 137.297 155.068, 138.949 154.869, 139.353 154.437, 140.229 154.423, 140.257 154.067, 140.978 151.740, 144.459 148.978, 147.607 145.829, 150.367 142.347, 152.692 138.591, 154.542 134.626, 155.887 130.520, 156.702 " />
            <path fill="none" stroke-width="3.0" stroke-linecap="butt" stroke-opacity="1.0" stroke="rgb(0, 0, 0)" stroke-linejoin="round" d=" M 167.936, 99.245 164.507, 101.316 164.506, 103.095 164.506, 103.727 164.505, 113.727 164.505, 114.140 164.503, 124.140 164.502, 134.140 164.502, 135.591 164.500, 143.624 164.500, 144.202 164.500, 145.830 169.450, 148.567 " />
            <path fill="none" stroke-width="3.0" stroke-linecap="butt" stroke-opacity="1.0" stroke="rgb(0, 0, 0)" stroke-linejoin="round" d=" M 83.399, 148.144 87.606, 145.816 87.606, 144.189 87.606, 143.610 87.605, 133.662 87.603, 123.662 87.602, 116.068 87.601, 106.068 87.601, 103.741 87.600, 103.109 87.600, 101.331 84.843, 99.665 " />
            <path fill="none" stroke-width="3.0" stroke-linecap="butt" stroke-opacity="1.0" stroke="rgb(0, 0, 0)" stroke-linejoin="round" d=" M 129.374, 148.498 126.263, 148.702 123.151, 148.497 120.094, 147.888 117.141, 146.886 114.345, 145.506 111.753, 143.774 109.410, 141.718 107.354, 139.374 105.622, 136.782 105.260, 136.048 105.046, 135.613 104.995, 135.510 104.788, 135.090 104.619, 134.748 104.244, 133.986 103.941, 133.095 103.733, 132.481 103.583, 132.041 103.242, 131.034 102.633, 127.976 102.429, 124.865 102.633, 121.754 103.241, 118.697 103.582, 117.690 103.731, 117.250 103.940, 116.635 104.242, 115.744 104.618, 114.982 105.307, 113.583 105.431, 113.333 105.621, 112.948 105.859, 112.592 105.934, 112.479 105.966, 112.431 107.353, 110.355 109.408, 108.011 111.752, 105.954 114.344, 104.221 117.140, 102.842 120.093, 101.839 123.151, 101.230 126.263, 101.025 129.375, 101.228 132.434, 101.836 135.387, 102.838 138.184, 104.217 140.778, 105.950 143.123, 108.006 145.179, 110.351 146.436, 112.231 146.598, 112.474 146.674, 112.587 146.912, 112.944 147.032, 113.187 147.461, 114.058 148.139, 115.431 148.292, 115.741 148.348, 115.906 148.498, 116.351 149.294, 118.694 149.902, 121.753 149.941, 122.340 150.106, 124.866 149.940, 127.391 149.902, 127.978 149.293, 131.036 148.497, 133.380 148.346, 133.825 148.290, 133.990 148.137, 134.299 147.656, 135.275 147.538, 135.514 147.487, 135.617 147.460, 135.673 147.175, 136.250 146.910, 136.786 145.177, 139.379 143.120, 141.723 140.775, 143.779 138.182, 145.511 135.385, 146.889 132.432, 147.891 129.374, 148.498 " />
            <path fill="none" stroke-width="3.0" stroke-linecap="butt" stroke-opacity="1.0" stroke="rgb(0, 0, 0)" stroke-linejoin="round" d=" M 154.374, 109.578 154.374, 110.367 154.373, 120.367 154.372, 130.367 154.371, 138.603 154.371, 139.238 154.371, 139.353 154.371, 140.229 154.423, 140.257 " />
            <path fill="none" stroke-width="3.0" stroke-linecap="butt" stroke-opacity="1.0" stroke="rgb(0, 0, 0)" stroke-linejoin="round" d=" M 128.246, 140.427 126.184, 140.562 124.122, 140.426 122.095, 140.023 120.138, 139.358 118.284, 138.444 116.566, 137.296 115.012, 135.933 113.650, 134.379 112.502, 132.661 112.217, 132.083 112.158, 131.964 112.002, 131.647 111.981, 131.605 111.949, 131.539 111.817, 131.271 111.730, 131.097 111.588, 130.807 111.550, 130.696 111.450, 130.402 111.092, 129.348 110.923, 128.850 110.705, 127.753 110.618, 127.313 110.520, 126.824 110.385, 124.761 110.520, 122.699 110.617, 122.209 110.705, 121.770 110.923, 120.672 111.092, 120.175 111.450, 119.121 111.549, 118.827 111.587, 118.715 111.730, 118.426 111.816, 118.251 112.216, 117.440 112.358, 117.152 112.501, 116.862 112.503, 116.858 112.535, 116.811 112.641, 116.652 112.730, 116.519 113.649, 115.143 115.012, 113.589 116.565, 112.226 118.284, 111.078 120.137, 110.163 122.094, 109.498 124.122, 109.095 126.184, 108.959 128.247, 109.094 130.274, 109.497 132.232, 110.162 134.086, 111.076 135.804, 112.224 137.359, 113.587 138.722, 115.141 139.606, 116.464 139.837, 116.810 139.854, 116.835 139.868, 116.856 139.870, 116.860 139.950, 117.021 140.254, 117.637 140.340, 117.812 140.521, 118.180 140.621, 118.383 140.785, 118.714 140.979, 119.285 141.367, 120.430 141.449, 120.671 141.453, 120.694 141.852, 122.699 141.891, 123.288 141.987, 124.761 141.891, 126.234 141.852, 126.824 141.453, 128.829 141.448, 128.852 141.366, 129.093 140.978, 130.237 140.784, 130.809 140.621, 131.140 140.521, 131.342 140.363, 131.661 140.213, 131.966 140.097, 132.201 140.045, 132.307 139.869, 132.663 138.721, 134.381 137.358, 135.935 135.803, 137.298 134.085, 138.446 132.231, 139.360 130.273, 140.024 128.246, 140.427 " />
            <path fill="none" stroke-width="3.0" stroke-linecap="butt" stroke-opacity="1.0" stroke="rgb(0, 0, 0)" stroke-linejoin="round" d=" M 128.698, 143.658 126.215, 143.820 123.733, 143.657 121.294, 143.172 118.938, 142.372 116.707, 141.271 114.639, 139.889 112.769, 138.249 111.129, 136.379 109.748, 134.311 109.459, 133.725 109.298, 133.399 109.262, 133.325 109.165, 133.128 109.119, 133.035 109.082, 132.961 108.932, 132.656 108.648, 132.080 108.347, 131.196 108.160, 130.642 107.848, 129.725 107.458, 127.764 107.363, 127.285 107.361, 127.257 107.212, 124.987 107.200, 124.803 107.212, 124.619 107.361, 122.349 107.362, 122.321 107.458, 121.842 107.847, 119.881 108.159, 118.963 108.347, 118.410 108.647, 117.526 108.931, 116.950 109.164, 116.477 109.297, 116.207 109.574, 115.644 109.746, 115.295 109.747, 115.295 109.958, 114.979 110.022, 114.883 111.128, 113.226 112.768, 111.356 114.638, 109.715 116.706, 108.333 118.937, 107.232 121.293, 106.432 123.733, 105.946 126.216, 105.783 128.698, 105.946 131.139, 106.431 133.495, 107.230 135.726, 108.330 137.795, 109.712 139.666, 111.353 141.307, 113.223 142.309, 114.724 142.478, 114.976 142.689, 115.292 142.689, 115.292 142.776, 115.469 142.785, 115.486 142.910, 115.740 143.142, 116.211 143.727, 117.396 143.790, 117.524 143.916, 117.895 144.589, 119.880 144.618, 120.023 144.714, 120.506 144.863, 121.255 145.075, 122.320 145.237, 124.803 145.074, 127.286 144.862, 128.351 144.713, 129.100 144.617, 129.583 144.589, 129.726 143.915, 131.711 143.789, 132.082 143.726, 132.210 143.174, 133.327 142.933, 133.817 142.909, 133.866 142.688, 134.313 141.305, 136.382 139.665, 138.252 137.794, 139.892 135.725, 141.274 133.494, 142.374 131.138, 143.173 128.698, 143.658 " />
            <path fill="none" stroke-width="3.0" stroke-linecap="butt" stroke-opacity="1.0" stroke="rgb(0, 0, 0)" stroke-linejoin="round" d=" M 127.927, 138.139 126.162, 138.255 124.397, 138.139 122.662, 137.794 120.987, 137.225 119.400, 136.442 117.930, 135.460 116.600, 134.293 115.434, 132.964 114.451, 131.493 114.246, 131.076 114.155, 130.893 114.138, 130.858 114.124, 130.828 114.025, 130.628 113.810, 130.192 113.786, 130.144 113.669, 129.907 113.321, 128.882 113.291, 128.793 113.252, 128.679 113.214, 128.565 113.100, 128.232 112.755, 126.497 112.745, 126.342 112.642, 124.762 112.640, 124.732 112.642, 124.702 112.745, 123.122 112.755, 122.967 113.100, 121.232 113.213, 120.898 113.252, 120.784 113.291, 120.671 113.321, 120.582 113.669, 119.557 113.786, 119.320 113.809, 119.271 114.123, 118.635 114.451, 117.971 114.481, 117.925 114.578, 117.781 114.639, 117.689 114.647, 117.678 115.433, 116.500 116.600, 115.170 117.929, 114.003 119.400, 113.020 120.986, 112.238 122.662, 111.669 124.396, 111.324 126.162, 111.208 127.927, 111.323 129.662, 111.668 131.337, 112.237 132.924, 113.019 134.395, 114.002 135.725, 115.168 136.892, 116.498 137.605, 117.565 137.651, 117.634 137.676, 117.672 137.844, 117.924 137.875, 117.969 137.945, 118.111 138.259, 118.748 138.282, 118.794 138.657, 119.556 138.747, 119.820 138.778, 119.912 138.816, 120.023 138.855, 120.139 139.226, 121.231 139.324, 121.721 139.428, 122.246 139.571, 122.967 139.674, 124.530 139.687, 124.732 139.674, 124.934 139.571, 126.497 139.428, 127.217 139.323, 127.743 139.226, 128.232 138.855, 129.324 138.815, 129.441 138.778, 129.552 138.747, 129.643 138.657, 129.908 138.297, 130.637 138.258, 130.716 138.187, 130.860 138.170, 130.894 138.046, 131.145 137.874, 131.494 136.891, 132.965 135.725, 134.295 134.395, 135.461 132.924, 136.444 131.337, 137.226 129.662, 137.794 127.927, 138.139 " />
            <path fill="none" stroke-width="3.0" stroke-linecap="butt" stroke-opacity="1.0" stroke="rgb(0, 0, 0)" stroke-linejoin="round" d=" M 127.687, 136.421 126.145, 136.522 124.603, 136.421 123.088, 136.120 121.625, 135.623 120.239, 134.939 118.954, 134.081 117.793, 133.062 116.774, 131.900 115.915, 130.616 115.232, 129.230 115.056, 128.712 114.735, 127.767 114.640, 127.285 114.578, 126.975 114.434, 126.252 114.333, 124.710 114.434, 123.168 114.578, 122.445 114.639, 122.135 114.735, 121.653 115.056, 120.708 115.232, 120.189 115.915, 118.804 116.773, 117.519 117.792, 116.357 118.954, 115.338 120.238, 114.479 121.624, 113.796 123.087, 113.299 124.603, 112.997 126.145, 112.896 127.687, 112.997 129.203, 113.298 130.666, 113.795 132.052, 114.478 133.337, 115.337 134.499, 116.356 135.518, 117.518 136.377, 118.803 137.011, 120.089 137.060, 120.189 137.428, 121.273 137.490, 121.455 137.557, 121.652 137.858, 123.168 137.945, 124.487 137.959, 124.710 137.945, 124.933 137.858, 126.252 137.557, 127.768 137.489, 127.965 137.428, 128.147 137.060, 129.231 137.011, 129.330 136.376, 130.617 135.517, 131.902 134.498, 133.063 133.336, 134.082 132.052, 134.940 130.666, 135.624 129.202, 136.120 127.687, 136.421 " />
            <path fill="none" stroke-width="3.0" stroke-linecap="butt" stroke-opacity="1.0" stroke="rgb(0, 0, 0)" stroke-linejoin="round" d=" M 127.350, 134.011 126.121, 134.092 124.893, 134.011 123.685, 133.771 122.519, 133.375 121.415, 132.830 120.391, 132.146 119.466, 131.334 118.654, 130.409 117.970, 129.385 117.425, 128.281 117.029, 127.115 116.789, 125.907 116.709, 124.679 116.789, 123.450 117.029, 122.243 117.425, 121.077 117.970, 119.972 118.654, 118.948 119.465, 118.023 120.391, 117.211 121.415, 116.527 122.519, 115.982 123.685, 115.586 124.893, 115.346 126.121, 115.265 127.350, 115.345 128.558, 115.586 129.724, 115.981 130.829, 116.526 131.852, 117.210 132.778, 118.022 133.590, 118.948 134.274, 119.972 134.819, 121.076 135.215, 122.242 135.455, 123.450 135.536, 124.679 135.455, 125.908 135.215, 127.115 134.819, 128.281 134.274, 129.386 133.590, 130.410 132.778, 131.335 131.852, 132.147 130.828, 132.831 129.724, 133.376 128.558, 133.771 127.350, 134.011 " />
            <path fill="none" stroke-width="3.0" stroke-linecap="butt" stroke-opacity="1.0" stroke="rgb(0, 0, 0)" stroke-linejoin="round" d=" M 127.498, 135.071 126.132, 135.161 124.765, 135.071 123.422, 134.804 122.126, 134.363 120.898, 133.758 119.759, 132.997 118.730, 132.094 117.827, 131.065 117.067, 129.926 116.461, 128.698 116.021, 127.402 115.754, 126.059 115.664, 124.692 115.754, 123.326 116.021, 121.983 116.461, 120.687 117.066, 119.458 117.827, 118.320 118.730, 117.290 119.759, 116.387 120.898, 115.626 122.126, 115.021 123.422, 114.580 124.765, 114.313 126.132, 114.223 127.498, 114.313 128.841, 114.580 130.138, 115.020 131.366, 115.626 132.505, 116.386 133.535, 117.289 134.438, 118.319 135.199, 119.458 135.804, 120.686 136.245, 121.983 136.512, 123.326 136.601, 124.692 136.512, 126.059 136.244, 127.402 135.804, 128.699 135.198, 129.927 134.437, 131.066 133.534, 132.095 132.505, 132.998 131.366, 133.759 130.138, 134.364 128.841, 134.804 127.498, 135.071 " />
            <path fill="none" stroke-width="3.0" stroke-linecap="butt" stroke-opacity="1.0" stroke="rgb(0, 0, 0)" stroke-linejoin="round" d=" M 81.023, 143.061 81.021, 133.061 81.020, 123.061 81.018, 113.061 81.017, 107.317 " />
            <path fill="none" stroke-width="3.0" stroke-linecap="butt" stroke-opacity="1.0" stroke="rgb(0, 0, 0)" stroke-linejoin="round" d=" M 81.960, 145.227 81.959, 135.227 81.957, 125.227 81.956, 115.227 81.954, 105.151 " />
            <path fill="none" stroke-width="3.0" stroke-linecap="butt" stroke-opacity="1.0" stroke="rgb(0, 0, 0)" stroke-linejoin="round" d=" M 94.766, 129.893 94.766, 128.456 94.765, 121.150 94.765, 120.049 " />
            <path fill="none" stroke-width="3.0" stroke-linecap="butt" stroke-opacity="1.0" stroke="rgb(0, 0, 0)" stroke-linejoin="round" d=" M 97.718, 139.119 97.718, 138.596 97.718, 138.509 97.717, 128.509 97.716, 118.509 97.715, 111.095 97.715, 110.822 " />
            <path fill="none" stroke-width="3.0" stroke-linecap="butt" stroke-opacity="1.0" stroke="rgb(0, 0, 0)" stroke-linejoin="round" d=" M 103.583, 132.041 103.582, 122.041 103.582, 117.690 " />
            <path fill="none" stroke-width="3.0" stroke-linecap="butt" stroke-opacity="1.0" stroke="rgb(0, 0, 0)" stroke-linejoin="round" d=" M 107.458, 127.764 107.458, 121.842 " />
            <path fill="none" stroke-width="3.0" stroke-linecap="butt" stroke-opacity="1.0" stroke="rgb(0, 0, 0)" stroke-linejoin="round" d=" M 141.891, 123.288 141.891, 126.234 " />
            <path fill="none" stroke-width="3.0" stroke-linecap="butt" stroke-opacity="1.0" stroke="rgb(0, 0, 0)" stroke-linejoin="round" d=" M 144.618, 120.023 144.617, 129.583 " />
            <path fill="none" stroke-width="3.0" stroke-linecap="butt" stroke-opacity="1.0" stroke="rgb(0, 0, 0)" stroke-linejoin="round" d=" M 148.498, 116.351 148.498, 121.716 148.497, 127.748 148.497, 133.380 " />
            <path fill="none" stroke-width="3.0" stroke-linecap="butt" stroke-opacity="1.0" stroke="rgb(0, 0, 0)" stroke-linejoin="round" d=" M 157.327, 132.955 157.327, 130.562 157.329, 120.562 157.329, 119.044 157.329, 116.987 " />
            <path fill="none" stroke-width="3.0" stroke-linecap="butt" stroke-opacity="1.0" stroke="rgb(0, 0, 0)" stroke-linejoin="round" d=" M 157.798, 119.347 157.798, 122.908 157.797, 126.699 157.797, 130.596 " />
            <path fill="none" stroke-width="3.0" stroke-linecap="butt" stroke-opacity="1.0" stroke="rgb(0, 0, 0)" stroke-linejoin="round" d=" M 170.157, 147.134 170.159, 137.134 170.160, 127.134 170.162, 117.134 170.164, 107.134 170.164, 103.244 " />
            <path fill="none" stroke-width="3.0" stroke-linecap="butt" stroke-opacity="1.0" stroke="rgb(0, 0, 0)" stroke-linejoin="round" d=" M 171.103, 105.148 171.102, 115.148 171.100, 125.148 171.098, 135.148 171.096, 145.231 " />
        </g>
    </g>
</svg>
