<?xml version='1.0' encoding='ascii'?>
<svg xmlns="http://www.w3.org/2000/svg" version="1.1" width="250" height="250">
    <g id="ViewLayer_LineSet" xmlns:inkscape="http://www.inkscape.org/namespaces/inkscape" inkscape:groupmode="lineset" inkscape:label="ViewLayer_LineSet">
        <g xmlns:inkscape="http://www.inkscape.org/namespaces/inkscape" inkscape:groupmode="layer" id="strokes" inkscape:label="strokes">
            <path fill="none" stroke-width="3.0" stroke-linecap="butt" stroke-opacity="1.0" stroke="rgb(0, 0, 0)" stroke-linejoin="round" d=" M 141.215, 233.524 131.236, 234.168 127.046, 234.439 117.068, 233.776 112.881, 233.498 103.075, 231.538 98.961, 230.717 89.494, 227.495 85.524, 226.144 76.558, 221.715 72.800, 219.859 64.488, 214.298 61.005, 211.968 53.489, 205.371 50.340, 202.607 43.749, 195.087 40.988, 191.936 35.433, 183.620 33.107, 180.137 31.492, 176.863 29.342, 172.502 26.832, 167.411 23.617, 157.942 22.270, 153.976 20.317, 144.168 19.499, 140.060 18.842, 130.082 18.567, 125.901 19.216, 115.923 19.488, 111.741 21.434, 101.932 22.249, 97.821 25.457, 88.350 26.802, 84.379 31.218, 75.407 32.076, 73.666 33.070, 71.645 34.624, 69.315 40.173, 60.995 40.947, 59.835 47.534, 52.311 50.298, 49.153 57.810, 42.553 60.964, 39.781 69.274, 34.218 72.764, 31.881 81.728, 27.449 85.495, 25.586 94.961, 22.363 98.941, 21.007 108.747, 19.047 112.872, 18.222 122.850, 17.559 127.048, 17.280 137.027, 17.925 141.228, 18.197 151.038, 20.140 155.169, 20.958 164.640, 24.165 168.631, 25.516 177.602, 29.933 181.383, 31.795 189.701, 37.346 193.207, 39.686 200.728, 46.276 203.899, 49.054 210.494, 56.571 213.276, 59.740 218.833, 68.054 219.047, 68.374 221.176, 71.560 221.755, 72.734 226.179, 81.702 227.465, 84.310 230.679, 93.780 232.034, 97.773 233.983, 107.582 234.805, 111.718 235.455, 121.697 235.729, 125.904 235.071, 135.882 234.793, 140.089 232.836, 149.896 232.012, 154.029 228.791, 163.496 227.434, 167.485 224.524, 173.373 222.332, 177.809 221.138, 180.226 215.575, 188.536 213.233, 192.035 206.632, 199.548 203.854, 202.710 196.329, 209.296 193.163, 212.067 184.843, 217.614 181.344, 219.947 172.370, 224.361 168.598, 226.216 159.126, 229.421 155.145, 230.768 145.336, 232.709 141.215, 233.524 " />
            <path fill="none" stroke-width="3.0" stroke-linecap="butt" stroke-opacity="1.0" stroke="rgb(0, 0, 0)" stroke-linejoin="round" d=" M 130.633, 157.508 126.350, 157.788 122.069, 157.506 117.860, 156.668 113.797, 155.287 109.949, 153.389 106.382, 151.004 103.157, 148.175 100.328, 144.949 97.945, 141.382 97.141, 139.753 97.068, 139.603 96.796, 139.053 96.047, 137.534 95.687, 136.473 94.668, 133.471 94.061, 130.423 93.831, 129.263 93.797, 128.748 93.571, 125.301 93.550, 124.982 93.571, 124.662 93.796, 121.215 93.830, 120.700 94.060, 119.540 94.666, 116.492 95.685, 113.489 96.045, 112.428 97.138, 110.209 97.645, 109.182 97.941, 108.580 98.249, 108.120 100.325, 105.011 103.153, 101.784 106.379, 98.954 109.946, 96.568 113.795, 94.669 117.859, 93.288 122.068, 92.450 126.351, 92.168 130.634, 92.447 134.844, 93.284 138.909, 94.663 142.760, 96.561 146.330, 98.945 149.558, 101.775 152.388, 105.003 154.466, 108.112 154.774, 108.572 154.939, 108.906 154.952, 108.933 156.406, 111.882 156.673, 112.422 158.035, 116.437 158.052, 116.487 158.298, 117.722 158.526, 118.869 158.890, 120.698 159.170, 124.982 158.889, 129.265 158.524, 131.094 158.296, 132.241 158.050, 133.476 158.033, 133.526 156.670, 137.540 156.403, 138.081 155.796, 139.310 155.648, 139.610 155.185, 140.548 155.135, 140.651 154.770, 141.390 152.384, 144.958 149.553, 148.184 146.325, 151.014 142.756, 153.397 138.906, 155.294 134.842, 156.672 130.633, 157.508 " />
            <path fill="none" stroke-width="3.0" stroke-linecap="butt" stroke-opacity="1.0" stroke="rgb(0, 0, 0)" stroke-linejoin="round" d=" M 52.540, 165.218 53.579, 167.326 59.134, 175.641 59.699, 176.487 66.291, 184.007 66.962, 184.773 74.478, 191.369 75.244, 192.041 83.556, 197.600 84.403, 198.167 93.370, 202.594 94.284, 203.046 103.751, 206.265 104.718, 206.594 114.524, 208.551 115.526, 208.751 125.504, 209.412 126.524, 209.480 136.503, 208.833 137.524, 208.767 147.334, 206.824 148.339, 206.625 157.811, 203.418 158.782, 203.089 167.754, 198.673 168.676, 198.220 176.995, 192.670 177.850, 192.100 185.373, 185.512 186.147, 184.834 192.746, 177.321 193.426, 176.547 198.987, 168.236 199.560, 167.379 200.399, 165.681 " />
            <path fill="none" stroke-width="3.0" stroke-linecap="butt" stroke-opacity="1.0" stroke="rgb(0, 0, 0)" stroke-linejoin="round" d=" M 133.125, 175.349 126.524, 175.779 119.924, 175.343 113.438, 174.051 107.176, 171.922 101.245, 168.996 95.748, 165.320 90.777, 160.959 86.417, 155.986 82.744, 150.488 81.976, 148.931 80.974, 146.899 80.633, 146.208 79.819, 144.557 79.638, 144.023 77.694, 138.296 76.403, 131.810 75.969, 125.211 76.401, 118.613 77.689, 112.126 79.632, 106.397 79.813, 105.863 80.627, 104.212 82.032, 101.360 82.345, 100.725 82.736, 99.930 83.468, 98.834 86.409, 94.430 90.768, 89.455 95.739, 85.091 101.238, 81.413 107.170, 78.485 113.434, 76.355 119.922, 75.061 126.525, 74.626 133.128, 75.056 139.619, 76.344 145.886, 78.470 151.823, 81.395 157.327, 85.070 162.304, 89.433 166.669, 94.409 169.336, 98.400 170.346, 99.912 170.600, 100.427 171.495, 102.241 172.492, 104.262 173.274, 105.848 175.401, 112.116 176.692, 118.608 176.754, 119.558 177.124, 125.212 176.752, 130.866 176.689, 131.816 175.396, 138.307 173.267, 144.573 172.484, 146.159 171.920, 147.301 171.487, 148.180 170.900, 149.369 170.338, 150.507 166.659, 156.008 162.294, 160.981 157.317, 165.342 151.814, 169.015 145.879, 171.938 139.614, 174.062 133.125, 175.349 " />
            <path fill="none" stroke-width="3.0" stroke-linecap="butt" stroke-opacity="1.0" stroke="rgb(0, 0, 0)" stroke-linejoin="round" d=" M 198.201, 80.965 193.452, 73.858 186.856, 66.341 186.174, 65.564 178.653, 58.973 177.876, 58.291 169.559, 52.739 168.699, 52.165 159.728, 47.747 158.802, 47.291 149.330, 44.082 148.353, 43.750 138.544, 41.806 137.532, 41.605 127.553, 40.958 126.525, 40.891 116.547, 41.553 115.520, 41.621 105.714, 43.579 104.706, 43.780 95.239, 47.002 94.266, 47.333 85.301, 51.763 84.381, 52.217 76.071, 57.779 75.219, 58.349 67.706, 64.948 66.937, 65.624 60.348, 73.147 59.675, 73.916 54.664, 81.426 " />
            <path fill="none" stroke-width="3.0" stroke-linecap="butt" stroke-opacity="1.0" stroke="rgb(0, 0, 0)" stroke-linejoin="round" d=" M 169.336, 98.400 165.514, 100.708 165.514, 102.543 165.513, 103.181 165.512, 113.181 165.512, 114.859 165.510, 124.859 165.509, 134.883 165.507, 144.123 165.507, 144.707 165.507, 146.387 170.900, 149.369 " />
            <path fill="none" stroke-width="3.0" stroke-linecap="butt" stroke-opacity="1.0" stroke="rgb(0, 0, 0)" stroke-linejoin="round" d=" M 81.976, 148.931 86.601, 146.372 86.601, 144.693 86.601, 144.109 86.600, 134.109 86.599, 132.602 86.598, 122.602 86.597, 117.141 86.596, 107.141 86.595, 103.197 86.595, 102.558 86.595, 100.724 83.468, 98.834 " />
            <path fill="none" stroke-width="3.0" stroke-linecap="butt" stroke-opacity="1.0" stroke="rgb(0, 0, 0)" stroke-linejoin="round" d=" M 219.047, 68.374 210.487, 73.544 207.783, 75.177 207.783, 77.011 207.782, 80.298 207.779, 90.298 207.776, 100.298 207.775, 102.684 207.772, 112.684 207.769, 122.684 207.766, 132.684 207.763, 142.684 207.761, 147.737 207.758, 157.737 207.756, 165.062 207.755, 168.070 207.755, 169.748 216.506, 174.587 222.332, 177.809 " />
            <path fill="none" stroke-width="3.0" stroke-linecap="butt" stroke-opacity="1.0" stroke="rgb(0, 0, 0)" stroke-linejoin="round" d=" M 31.492, 176.863 40.242, 172.022 44.466, 169.685 44.466, 168.009 44.465, 165.003 44.462, 155.003 44.459, 145.003 44.458, 143.462 44.455, 133.462 44.452, 123.462 44.449, 113.462 44.447, 106.958 44.445, 96.958 44.442, 86.958 44.440, 80.363 44.439, 77.077 44.438, 75.246 35.880, 70.073 34.624, 69.315 " />
            <path fill="none" stroke-width="3.0" stroke-linecap="butt" stroke-opacity="1.0" stroke="rgb(0, 0, 0)" stroke-linejoin="round" d=" M 44.466, 168.009 47.492, 168.010 52.540, 165.218 61.290, 160.376 63.789, 158.993 63.787, 148.993 63.785, 138.993 63.783, 128.993 63.780, 118.993 63.778, 108.993 63.776, 98.993 63.774, 88.993 63.773, 86.931 55.215, 81.759 54.664, 81.426 47.466, 77.076 44.439, 77.077 " />
            <path fill="none" stroke-width="3.0" stroke-linecap="butt" stroke-opacity="1.0" stroke="rgb(0, 0, 0)" stroke-linejoin="round" d=" M 47.492, 168.010 47.489, 158.010 47.488, 153.854 47.485, 143.854 47.482, 133.854 47.480, 123.854 47.477, 113.854 47.474, 103.854 47.472, 96.562 47.469, 86.562 47.466, 77.076 " />
            <path fill="none" stroke-width="3.0" stroke-linecap="butt" stroke-opacity="1.0" stroke="rgb(0, 0, 0)" stroke-linejoin="round" d=" M 207.783, 77.011 204.745, 77.012 198.201, 80.965 189.642, 86.135 188.389, 86.891 188.387, 96.891 188.384, 106.891 188.382, 116.891 188.380, 126.891 188.377, 136.891 188.375, 146.891 188.373, 156.891 188.372, 159.030 197.123, 163.869 200.399, 165.681 204.718, 168.069 207.755, 168.070 " />
            <path fill="none" stroke-width="3.0" stroke-linecap="butt" stroke-opacity="1.0" stroke="rgb(0, 0, 0)" stroke-linejoin="round" d=" M 204.718, 168.069 204.721, 158.069 204.722, 156.676 204.725, 146.676 204.728, 136.676 204.731, 126.676 204.733, 116.676 204.736, 106.676 204.739, 96.676 204.740, 93.742 204.743, 83.742 204.745, 77.012 " />
            <path fill="none" stroke-width="3.0" stroke-linecap="butt" stroke-opacity="1.0" stroke="rgb(0, 0, 0)" stroke-linejoin="round" d=" M 129.440, 148.971 126.267, 149.178 123.095, 148.970 119.976, 148.349 116.966, 147.327 114.115, 145.920 111.472, 144.153 109.082, 142.057 106.986, 139.667 105.220, 137.023 104.850, 136.275 104.579, 135.724 104.527, 135.618 104.390, 135.341 104.369, 135.298 103.814, 134.172 103.723, 133.904 103.510, 133.277 103.256, 132.531 102.792, 131.162 102.171, 128.044 101.963, 124.872 102.171, 121.699 102.791, 118.581 103.255, 117.212 103.509, 116.465 103.721, 115.838 103.812, 115.570 104.388, 114.402 104.998, 113.165 105.218, 112.719 105.382, 112.473 105.459, 112.358 105.570, 112.192 106.984, 110.075 109.080, 107.684 111.470, 105.587 114.113, 103.820 116.965, 102.413 119.976, 101.390 123.094, 100.769 126.267, 100.560 129.441, 100.768 132.560, 101.388 135.572, 102.409 138.424, 103.816 141.069, 105.582 143.460, 107.679 145.557, 110.070 146.839, 111.988 147.083, 112.354 147.160, 112.469 147.324, 112.714 147.447, 112.962 147.691, 113.458 148.358, 114.810 148.571, 115.242 148.731, 115.567 148.826, 115.846 149.753, 118.579 150.197, 120.810 150.374, 121.698 150.582, 124.872 150.373, 128.045 150.196, 128.933 149.752, 131.164 148.824, 133.897 148.730, 134.176 148.569, 134.501 148.356, 134.933 148.083, 135.487 148.016, 135.622 147.964, 135.728 147.689, 136.284 147.592, 136.481 147.322, 137.028 145.555, 139.672 143.458, 142.062 141.067, 144.158 138.422, 145.924 135.570, 147.330 132.559, 148.352 129.440, 148.971 " />
            <path fill="none" stroke-width="3.0" stroke-linecap="butt" stroke-opacity="1.0" stroke="rgb(0, 0, 0)" stroke-linejoin="round" d=" M 128.736, 143.929 126.218, 144.094 123.701, 143.929 121.226, 143.436 118.837, 142.625 116.575, 141.509 114.478, 140.107 112.581, 138.444 110.918, 136.547 109.516, 134.449 109.223, 133.855 109.170, 133.747 109.035, 133.472 108.993, 133.388 108.401, 132.187 108.220, 131.653 108.014, 131.047 107.590, 129.798 107.286, 128.269 107.218, 127.930 107.098, 127.324 107.067, 126.860 106.932, 124.807 107.067, 122.753 107.097, 122.289 107.218, 121.683 107.285, 121.344 107.589, 119.815 108.013, 118.566 108.219, 117.960 108.400, 117.426 109.034, 116.140 109.169, 115.866 109.515, 115.163 109.685, 114.909 109.795, 114.745 110.917, 113.065 112.580, 111.168 114.476, 109.504 116.574, 108.102 118.837, 106.986 121.226, 106.175 123.700, 105.682 126.218, 105.516 128.736, 105.681 131.211, 106.173 133.601, 106.984 135.864, 108.100 137.962, 109.501 139.860, 111.165 141.524, 113.062 142.541, 114.584 142.756, 114.907 142.904, 115.129 142.926, 115.161 143.040, 115.392 143.855, 117.044 144.042, 117.424 144.062, 117.483 144.791, 119.629 144.853, 119.813 144.857, 119.832 145.008, 120.592 145.345, 122.289 145.510, 124.807 145.345, 127.325 145.007, 129.021 144.856, 129.781 144.852, 129.800 144.790, 129.984 144.061, 132.130 144.041, 132.189 143.854, 132.569 143.448, 133.391 143.203, 133.888 143.166, 133.962 143.139, 134.018 142.925, 134.452 141.522, 136.550 139.858, 138.447 137.961, 140.110 135.863, 141.512 133.600, 142.627 131.210, 143.438 128.736, 143.929 " />
            <path fill="none" stroke-width="3.0" stroke-linecap="butt" stroke-opacity="1.0" stroke="rgb(0, 0, 0)" stroke-linejoin="round" d=" M 154.952, 108.933 154.952, 110.520 154.950, 120.520 154.949, 130.520 154.948, 138.890 154.948, 139.091 154.948, 139.610 154.948, 140.548 155.135, 140.651 " />
            <path fill="none" stroke-width="3.0" stroke-linecap="butt" stroke-opacity="1.0" stroke="rgb(0, 0, 0)" stroke-linejoin="round" d=" M 127.940, 138.236 126.163, 138.352 124.385, 138.236 122.638, 137.888 120.951, 137.315 119.353, 136.527 117.872, 135.537 116.533, 134.363 115.359, 133.023 114.369, 131.542 113.581, 129.945 113.009, 128.258 112.661, 126.511 112.544, 124.733 112.661, 122.956 113.008, 121.208 113.581, 119.522 114.368, 117.924 115.358, 116.443 116.532, 115.103 117.872, 113.928 119.353, 112.938 120.951, 112.150 122.638, 111.577 124.385, 111.230 126.163, 111.113 127.941, 111.229 129.688, 111.577 131.375, 112.149 132.973, 112.937 134.455, 113.927 135.794, 115.101 136.969, 116.441 137.959, 117.923 138.747, 119.521 139.320, 121.208 139.668, 122.955 139.784, 124.733 139.667, 126.511 139.320, 128.259 138.747, 129.946 137.959, 131.544 136.969, 133.025 135.794, 134.364 134.454, 135.539 132.973, 136.528 131.375, 137.316 129.688, 137.889 127.940, 138.236 " />
            <path fill="none" stroke-width="3.0" stroke-linecap="butt" stroke-opacity="1.0" stroke="rgb(0, 0, 0)" stroke-linejoin="round" d=" M 128.266, 140.571 126.185, 140.707 124.104, 140.570 122.059, 140.163 120.084, 139.493 118.214, 138.570 116.480, 137.412 114.912, 136.036 113.537, 134.468 112.379, 132.734 111.456, 130.864 110.786, 128.889 110.379, 126.844 110.243, 124.763 110.379, 122.682 110.786, 120.637 111.456, 118.662 112.378, 116.792 113.536, 115.057 114.911, 113.489 116.479, 112.114 118.213, 110.955 120.084, 110.032 122.059, 109.361 124.104, 108.954 126.185, 108.818 128.267, 108.954 130.313, 109.360 132.288, 110.031 134.159, 110.953 135.893, 112.112 137.462, 113.487 138.837, 115.055 139.996, 116.790 140.919, 118.661 141.589, 120.636 141.996, 122.682 142.006, 122.828 142.132, 124.763 142.005, 126.699 141.996, 126.845 141.589, 128.891 140.918, 130.866 139.995, 132.736 138.836, 134.471 137.461, 136.039 135.892, 137.414 134.158, 138.572 132.287, 139.494 130.312, 140.164 128.266, 140.571 " />
            <path fill="none" stroke-width="3.0" stroke-linecap="butt" stroke-opacity="1.0" stroke="rgb(0, 0, 0)" stroke-linejoin="round" d=" M 79.638, 144.023 79.636, 134.023 79.635, 124.023 79.633, 114.023 79.632, 106.397 " />
            <path fill="none" stroke-width="3.0" stroke-linecap="butt" stroke-opacity="1.0" stroke="rgb(0, 0, 0)" stroke-linejoin="round" d=" M 80.633, 146.208 80.632, 136.208 80.630, 126.208 80.629, 116.208 80.627, 106.208 80.627, 104.212 " />
            <path fill="none" stroke-width="3.0" stroke-linecap="butt" stroke-opacity="1.0" stroke="rgb(0, 0, 0)" stroke-linejoin="round" d=" M 93.571, 125.301 93.571, 124.662 " />
            <path fill="none" stroke-width="3.0" stroke-linecap="butt" stroke-opacity="1.0" stroke="rgb(0, 0, 0)" stroke-linejoin="round" d=" M 94.061, 130.423 94.060, 120.423 94.060, 119.540 " />
            <path fill="none" stroke-width="3.0" stroke-linecap="butt" stroke-opacity="1.0" stroke="rgb(0, 0, 0)" stroke-linejoin="round" d=" M 97.141, 139.753 97.141, 139.603 97.141, 138.882 97.141, 138.353 97.140, 128.353 97.139, 118.353 97.139, 111.258 97.138, 110.209 " />
            <path fill="none" stroke-width="3.0" stroke-linecap="butt" stroke-opacity="1.0" stroke="rgb(0, 0, 0)" stroke-linejoin="round" d=" M 103.256, 132.531 103.256, 122.531 103.255, 117.212 " />
            <path fill="none" stroke-width="3.0" stroke-linecap="butt" stroke-opacity="1.0" stroke="rgb(0, 0, 0)" stroke-linejoin="round" d=" M 107.286, 128.269 107.285, 121.344 " />
            <path fill="none" stroke-width="3.0" stroke-linecap="butt" stroke-opacity="1.0" stroke="rgb(0, 0, 0)" stroke-linejoin="round" d=" M 142.006, 122.828 142.005, 126.699 " />
            <path fill="none" stroke-width="3.0" stroke-linecap="butt" stroke-opacity="1.0" stroke="rgb(0, 0, 0)" stroke-linejoin="round" d=" M 144.791, 119.629 144.790, 129.629 144.790, 129.984 " />
            <path fill="none" stroke-width="3.0" stroke-linecap="butt" stroke-opacity="1.0" stroke="rgb(0, 0, 0)" stroke-linejoin="round" d=" M 148.826, 115.846 148.825, 124.099 148.825, 125.367 148.824, 133.897 " />
            <path fill="none" stroke-width="3.0" stroke-linecap="butt" stroke-opacity="1.0" stroke="rgb(0, 0, 0)" stroke-linejoin="round" d=" M 158.033, 133.526 158.034, 129.334 158.035, 120.279 158.035, 116.437 " />
            <path fill="none" stroke-width="3.0" stroke-linecap="butt" stroke-opacity="1.0" stroke="rgb(0, 0, 0)" stroke-linejoin="round" d=" M 158.526, 118.869 158.525, 128.869 158.524, 131.094 " />
            <path fill="none" stroke-width="3.0" stroke-linecap="butt" stroke-opacity="1.0" stroke="rgb(0, 0, 0)" stroke-linejoin="round" d=" M 171.487, 148.180 171.489, 138.180 171.490, 128.180 171.492, 118.180 171.494, 108.180 171.495, 102.241 " />
            <path fill="none" stroke-width="3.0" stroke-linecap="butt" stroke-opacity="1.0" stroke="rgb(0, 0, 0)" stroke-linejoin="round" d=" M 172.492, 104.262 172.490, 114.262 172.488, 124.262 172.486, 134.262 172.485, 144.262 172.484, 146.159 " />
        </g>
    </g>
</svg>
