<?xml version='1.0' encoding='ascii'?>
<svg xmlns="http://www.w3.org/2000/svg" version="1.1" width="250" height="250">
    <g id="ViewLayer_LineSet" xmlns:inkscape="http://www.inkscape.org/namespaces/inkscape" inkscape:groupmode="lineset" inkscape:label="ViewLayer_LineSet">
        <g xmlns:inkscape="http://www.inkscape.org/namespaces/inkscape" inkscape:groupmode="layer" id="strokes" inkscape:label="strokes">
            <path fill="none" stroke-width="3.0" stroke-linecap="butt" stroke-opacity="1.0" stroke="rgb(0, 0, 0)" stroke-linejoin="round" d=" M 254.207, 160.201 250.985, 169.667 248.668, 176.474 245.148, 183.595 242.497, 188.959 241.051, 191.882 235.487, 200.191 231.488, 206.162 224.887, 213.673 220.144, 219.068 212.618, 225.653 207.213, 230.381 198.892, 235.927 192.918, 239.908 183.944, 244.320 177.505, 247.485 168.031, 250.688 161.236, 252.985 " />
            <path fill="none" stroke-width="3.0" stroke-linecap="butt" stroke-opacity="1.0" stroke="rgb(0, 0, 0)" stroke-linejoin="round" d=" M 161.270, -0.734 170.742, 2.472 177.552, 4.777 186.524, 9.192 192.975, 12.368 201.294, 17.918 207.277, 21.910 214.798, 28.499 220.209, 33.239 226.806, 40.755 231.551, 46.163 237.109, 54.476 238.532, 56.605 241.108, 60.458 241.808, 61.878 246.231, 70.846 248.714, 75.880 251.927, 85.349 254.239, 92.163 " />
            <path fill="none" stroke-width="3.0" stroke-linecap="butt" stroke-opacity="1.0" stroke="rgb(0, 0, 0)" stroke-linejoin="round" d=" M -2.779, 109.063 -0.835, 99.253 0.557, 92.233 3.763, 82.761 6.059, 75.980 10.474, 67.007 12.433, 63.026 13.635, 60.582 15.514, 57.765 21.061, 49.444 23.156, 46.302 29.742, 38.776 34.460, 33.384 41.971, 26.782 47.355, 22.050 55.663, 16.484 61.621, 12.493 70.585, 8.060 77.015, 4.879 86.480, 1.653 93.273, -0.661 " />
            <path fill="none" stroke-width="3.0" stroke-linecap="butt" stroke-opacity="1.0" stroke="rgb(0, 0, 0)" stroke-linejoin="round" d=" M 93.302, 252.911 83.836, 249.688 77.057, 247.380 68.092, 242.950 61.674, 239.779 53.363, 234.217 47.415, 230.237 39.900, 223.640 34.522, 218.919 27.931, 211.398 23.216, 206.017 17.662, 197.701 13.689, 191.752 11.737, 187.793 9.138, 182.521 6.103, 176.366 2.888, 166.897 0.588, 160.124 -1.366, 150.316 -2.763, 143.300 " />
            <path fill="none" stroke-width="3.0" stroke-linecap="butt" stroke-opacity="1.0" stroke="rgb(0, 0, 0)" stroke-linejoin="round" d=" M 46.577, 168.517 47.701, 170.796 53.255, 179.111 54.317, 180.701 60.909, 188.221 62.169, 189.659 69.685, 196.255 71.122, 197.517 79.435, 203.077 81.025, 204.140 89.991, 208.568 91.707, 209.416 101.175, 212.636 102.988, 213.253 112.794, 215.211 114.673, 215.586 124.651, 216.247 126.564, 216.374 136.543, 215.728 138.458, 215.604 148.267, 213.661 150.150, 213.289 159.622, 210.082 161.442, 209.466 170.414, 205.051 172.139, 204.202 180.459, 198.654 182.059, 197.586 189.583, 190.999 191.031, 189.731 197.630, 182.218 198.901, 180.771 204.463, 172.460 205.535, 170.858 206.442, 169.022 " />
            <path fill="none" stroke-width="3.0" stroke-linecap="butt" stroke-opacity="1.0" stroke="rgb(0, 0, 0)" stroke-linejoin="round" d=" M 133.701, 179.473 126.565, 179.938 119.429, 179.467 112.416, 178.069 105.645, 175.768 99.233, 172.603 93.290, 168.629 87.915, 163.914 83.202, 158.538 79.231, 152.593 78.400, 150.909 77.811, 149.715 77.317, 148.712 76.687, 147.435 76.069, 146.181 73.770, 139.411 72.375, 132.399 72.228, 130.170 71.906, 125.265 72.226, 120.359 72.372, 118.130 73.765, 111.117 76.061, 104.345 76.679, 103.091 77.803, 100.810 78.727, 98.935 79.221, 97.931 80.013, 96.746 83.192, 91.983 87.905, 86.605 93.280, 81.887 99.225, 77.910 105.638, 74.743 112.411, 72.440 119.426, 71.041 126.565, 70.570 133.705, 71.035 140.723, 72.428 147.500, 74.725 153.919, 77.888 159.870, 81.862 165.251, 86.580 169.971, 91.959 172.854, 96.274 173.947, 97.910 174.222, 98.467 174.325, 98.675 175.451, 100.959 177.113, 104.328 179.413, 111.105 179.912, 113.616 180.808, 118.124 181.167, 123.615 181.275, 125.265 181.166, 126.916 180.805, 132.406 179.907, 136.914 179.407, 139.424 177.104, 146.199 175.648, 149.149 175.442, 149.567 174.608, 151.257 173.937, 152.615 169.959, 158.563 165.240, 163.940 159.858, 168.654 153.908, 172.625 147.491, 175.786 140.717, 178.082 133.701, 179.473 " />
            <path fill="none" stroke-width="3.0" stroke-linecap="butt" stroke-opacity="1.0" stroke="rgb(0, 0, 0)" stroke-linejoin="round" d=" M 204.067, 77.421 198.931, 69.738 192.336, 62.221 191.062, 60.769 183.541, 54.178 182.089, 52.906 173.772, 47.354 172.167, 46.282 163.196, 41.864 161.465, 41.012 151.993, 37.803 150.167, 37.185 140.358, 35.241 138.467, 34.866 128.488, 34.219 126.565, 34.095 116.587, 34.757 114.666, 34.884 104.860, 36.843 102.974, 37.220 93.507, 40.442 91.687, 41.062 82.722, 45.492 81.000, 46.343 72.689, 51.906 71.094, 52.974 63.581, 59.573 62.139, 60.839 55.551, 68.363 54.288, 69.805 48.871, 77.925 " />
            <path fill="none" stroke-width="3.0" stroke-linecap="butt" stroke-opacity="1.0" stroke="rgb(0, 0, 0)" stroke-linejoin="round" d=" M 217.410, 71.643 213.631, 71.645 205.071, 76.815 204.067, 77.421 195.508, 82.592 193.838, 83.600 193.836, 93.600 193.833, 103.600 193.831, 113.600 193.828, 123.600 193.825, 133.600 193.823, 143.600 193.820, 153.600 193.818, 162.042 202.569, 166.881 206.442, 169.022 213.598, 172.979 217.375, 172.981 " />
            <path fill="none" stroke-width="3.0" stroke-linecap="butt" stroke-opacity="1.0" stroke="rgb(0, 0, 0)" stroke-linejoin="round" d=" M 213.598, 172.979 213.601, 162.979 213.605, 152.979 213.605, 151.968 213.608, 141.968 213.611, 131.968 213.615, 121.968 213.618, 111.968 213.621, 101.968 213.622, 98.558 213.626, 88.558 213.629, 78.558 213.631, 71.645 " />
            <path fill="none" stroke-width="3.0" stroke-linecap="butt" stroke-opacity="1.0" stroke="rgb(0, 0, 0)" stroke-linejoin="round" d=" M 34.879, 172.905 38.643, 172.907 46.577, 168.517 55.327, 163.676 58.359, 161.998 58.356, 151.998 58.354, 141.998 58.351, 131.998 58.349, 121.998 58.346, 111.998 58.344, 101.998 58.342, 91.998 58.339, 83.647 49.781, 78.475 48.871, 77.925 40.313, 72.752 38.611, 71.724 34.846, 71.726 " />
            <path fill="none" stroke-width="3.0" stroke-linecap="butt" stroke-opacity="1.0" stroke="rgb(0, 0, 0)" stroke-linejoin="round" d=" M 38.643, 172.907 38.640, 162.907 38.637, 152.907 38.635, 148.928 38.632, 138.928 38.629, 128.928 38.626, 118.928 38.623, 108.928 38.620, 101.597 38.617, 91.597 38.614, 81.597 38.611, 71.724 " />
            <path fill="none" stroke-width="3.0" stroke-linecap="butt" stroke-opacity="1.0" stroke="rgb(0, 0, 0)" stroke-linejoin="round" d=" M 11.737, 187.793 20.487, 182.952 29.237, 178.111 34.880, 174.989 34.879, 172.905 34.878, 169.757 34.875, 159.757 34.872, 149.757 34.868, 139.757 34.865, 129.757 34.862, 119.757 34.858, 109.757 34.855, 99.757 34.852, 89.757 34.849, 79.757 34.847, 75.167 34.846, 71.726 34.845, 69.448 26.287, 64.276 17.728, 59.103 15.514, 57.765 " />
            <path fill="none" stroke-width="3.0" stroke-linecap="butt" stroke-opacity="1.0" stroke="rgb(0, 0, 0)" stroke-linejoin="round" d=" M 238.532, 56.605 229.972, 61.775 221.412, 66.945 217.411, 69.362 217.410, 71.643 217.409, 75.087 217.405, 85.087 217.402, 95.087 217.398, 105.087 217.395, 115.087 217.394, 119.397 217.390, 129.397 217.390, 131.134 217.386, 141.134 217.383, 151.134 217.379, 161.134 217.376, 169.830 217.375, 172.981 217.375, 175.067 226.126, 179.906 234.877, 184.745 242.497, 188.959 " />
            <path fill="none" stroke-width="3.0" stroke-linecap="butt" stroke-opacity="1.0" stroke="rgb(0, 0, 0)" stroke-linejoin="round" d=" M 130.868, 159.196 126.367, 159.489 121.866, 159.193 117.442, 158.312 113.171, 156.861 109.126, 154.865 105.376, 152.359 101.986, 149.384 99.012, 145.993 96.507, 142.243 95.983, 141.181 95.978, 141.170 95.480, 140.160 95.300, 139.795 94.564, 138.303 94.512, 138.198 93.062, 133.927 92.661, 131.910 92.526, 131.233 92.182, 129.504 92.126, 128.649 91.887, 125.003 92.125, 121.358 92.181, 120.503 92.525, 118.773 92.659, 118.097 93.060, 116.079 94.509, 111.807 94.561, 111.703 95.999, 108.784 96.191, 108.395 96.503, 107.761 96.670, 107.511 99.008, 104.010 101.981, 100.618 105.372, 97.642 109.123, 95.135 113.168, 93.138 117.440, 91.687 121.865, 90.805 126.367, 90.509 130.870, 90.803 135.296, 91.682 139.569, 93.131 143.617, 95.126 147.370, 97.633 150.763, 100.608 153.739, 104.001 156.079, 107.502 156.093, 107.523 156.246, 107.753 156.420, 108.104 157.532, 110.359 158.243, 111.800 159.439, 115.325 159.571, 115.715 159.693, 116.074 159.974, 117.486 160.573, 120.500 160.868, 125.004 160.572, 129.507 159.972, 132.521 159.691, 133.933 159.569, 134.291 159.436, 134.682 158.239, 138.205 157.528, 139.646 157.321, 140.066 157.271, 140.168 156.772, 141.179 156.626, 141.476 156.242, 142.252 153.735, 146.003 150.758, 149.395 147.365, 152.369 143.613, 154.874 139.566, 156.868 135.293, 158.317 130.868, 159.196 " />
            <path fill="none" stroke-width="3.0" stroke-linecap="butt" stroke-opacity="1.0" stroke="rgb(0, 0, 0)" stroke-linejoin="round" d=" M 78.400, 150.909 84.490, 147.540 84.489, 145.704 84.489, 145.156 84.488, 135.156 84.487, 128.799 84.486, 120.968 84.484, 110.968 84.483, 102.053 84.483, 101.454 84.482, 99.447 80.013, 96.746 " />
            <path fill="none" stroke-width="3.0" stroke-linecap="butt" stroke-opacity="1.0" stroke="rgb(0, 0, 0)" stroke-linejoin="round" d=" M 174.315, 151.257 174.317, 141.257 174.319, 131.257 174.320, 121.257 174.322, 111.257 174.324, 101.257 174.325, 98.675 " />
            <path fill="none" stroke-width="3.0" stroke-linecap="butt" stroke-opacity="1.0" stroke="rgb(0, 0, 0)" stroke-linejoin="round" d=" M 172.854, 96.274 167.631, 99.429 167.630, 101.437 167.630, 102.035 167.629, 112.035 167.628, 117.548 167.626, 127.548 167.625, 132.219 167.624, 142.219 167.623, 145.172 167.623, 145.719 167.623, 147.557 174.315, 151.257 174.608, 151.257 " />
            <path fill="none" stroke-width="3.0" stroke-linecap="butt" stroke-opacity="1.0" stroke="rgb(0, 0, 0)" stroke-linejoin="round" d=" M 128.817, 144.512 126.224, 144.681 123.631, 144.511 121.082, 144.003 118.621, 143.168 116.291, 142.018 114.130, 140.574 112.177, 138.861 110.464, 136.907 109.020, 134.746 108.715, 134.127 108.590, 133.875 108.457, 133.605 107.871, 132.416 107.783, 132.156 107.514, 131.363 107.036, 129.955 106.744, 128.487 106.730, 128.421 106.571, 127.621 106.529, 127.407 106.359, 124.814 106.528, 122.221 106.571, 122.007 106.730, 121.207 106.743, 121.141 107.035, 119.672 107.513, 118.265 107.782, 117.471 107.870, 117.212 108.443, 116.049 108.589, 115.753 108.732, 115.464 108.839, 115.246 108.945, 115.031 109.019, 114.881 109.158, 114.673 109.307, 114.450 110.463, 112.720 112.176, 110.766 114.129, 109.052 116.290, 107.608 118.621, 106.458 121.081, 105.622 123.630, 105.115 126.224, 104.944 128.818, 105.114 131.367, 105.620 133.828, 106.456 136.160, 107.605 138.321, 109.049 140.275, 110.763 141.990, 112.717 143.037, 114.284 143.295, 114.670 143.342, 114.741 143.434, 114.878 143.485, 114.982 143.508, 115.028 143.534, 115.081 143.630, 115.276 144.292, 116.619 144.563, 117.168 144.583, 117.209 145.333, 119.419 145.345, 119.454 145.419, 119.671 145.504, 120.101 145.926, 122.220 146.096, 124.814 145.926, 127.408 145.504, 129.527 145.418, 129.957 145.345, 130.174 145.332, 130.210 144.582, 132.418 144.562, 132.460 144.291, 133.009 143.996, 133.608 143.738, 134.130 143.699, 134.208 143.653, 134.302 143.432, 134.749 141.988, 136.910 140.274, 138.864 138.320, 140.578 136.158, 142.021 133.827, 143.170 131.366, 144.005 128.817, 144.512 " />
            <path fill="none" stroke-width="3.0" stroke-linecap="butt" stroke-opacity="1.0" stroke="rgb(0, 0, 0)" stroke-linejoin="round" d=" M 129.570, 149.903 126.276, 150.118 122.983, 149.902 119.745, 149.257 116.620, 148.196 113.660, 146.735 110.916, 144.901 108.435, 142.725 106.259, 140.243 104.425, 137.499 104.042, 136.722 103.722, 136.072 103.667, 135.960 103.664, 135.956 103.542, 135.708 103.033, 134.676 102.966, 134.539 102.807, 134.072 102.554, 133.327 101.905, 131.414 101.261, 128.177 101.075, 125.342 101.045, 124.884 101.075, 124.425 101.260, 121.590 101.904, 118.353 102.553, 116.439 102.806, 115.695 102.964, 115.227 103.032, 115.090 103.663, 113.811 104.195, 112.730 104.424, 112.267 104.535, 112.100 104.617, 111.977 104.789, 111.720 106.257, 109.522 108.433, 107.040 110.914, 104.863 113.658, 103.028 116.619, 101.568 119.744, 100.506 122.982, 99.861 126.277, 99.644 129.571, 99.860 132.809, 100.503 135.936, 101.564 138.897, 103.024 141.643, 104.858 144.126, 107.035 146.303, 109.517 147.633, 111.508 147.944, 111.973 148.026, 112.095 148.138, 112.262 148.264, 112.519 148.418, 112.831 149.048, 114.109 149.275, 114.568 149.529, 115.084 149.598, 115.224 150.659, 118.350 151.008, 120.104 151.303, 121.589 151.519, 124.884 151.303, 128.178 151.007, 129.663 150.658, 131.417 149.596, 134.543 149.527, 134.683 149.273, 135.199 149.046, 135.658 148.925, 135.904 148.895, 135.965 148.840, 136.077 148.416, 136.936 148.416, 136.936 148.135, 137.504 146.301, 140.249 144.123, 142.730 141.641, 144.907 138.895, 146.740 135.934, 148.199 132.808, 149.260 129.570, 149.903 " />
            <path fill="none" stroke-width="3.0" stroke-linecap="butt" stroke-opacity="1.0" stroke="rgb(0, 0, 0)" stroke-linejoin="round" d=" M 95.983, 141.181 96.002, 141.170 96.002, 140.160 96.002, 139.447 96.002, 138.217 96.001, 128.217 96.000, 118.217 95.999, 111.409 95.999, 108.784 " />
            <path fill="none" stroke-width="3.0" stroke-linecap="butt" stroke-opacity="1.0" stroke="rgb(0, 0, 0)" stroke-linejoin="round" d=" M 156.093, 107.523 156.093, 108.281 156.093, 110.649 156.092, 120.649 156.090, 130.649 156.089, 138.978 156.089, 139.455 156.089, 140.168 156.089, 141.179 156.626, 141.476 " />
            <path fill="none" stroke-width="3.0" stroke-linecap="butt" stroke-opacity="1.0" stroke="rgb(0, 0, 0)" stroke-linejoin="round" d=" M 128.330, 141.024 126.190, 141.164 124.050, 141.024 121.946, 140.605 119.916, 139.916 117.993, 138.967 116.210, 137.775 114.597, 136.361 113.184, 134.749 111.992, 132.966 111.743, 132.461 111.711, 132.395 111.596, 132.163 111.432, 131.829 111.364, 131.691 111.160, 131.279 111.055, 131.066 111.044, 131.043 110.691, 130.004 110.354, 129.012 110.268, 128.579 110.223, 128.350 109.936, 126.909 109.796, 124.769 109.936, 122.629 110.222, 121.188 110.268, 120.959 110.354, 120.526 110.691, 119.534 111.043, 118.495 111.055, 118.472 111.160, 118.259 111.363, 117.847 111.453, 117.663 111.843, 116.873 111.862, 116.834 111.947, 116.662 111.971, 116.613 111.991, 116.572 112.207, 116.248 113.183, 114.788 114.597, 113.176 116.209, 111.762 117.992, 110.570 119.915, 109.621 121.946, 108.931 124.050, 108.512 126.190, 108.372 128.330, 108.512 130.434, 108.930 132.465, 109.619 134.389, 110.568 136.173, 111.759 137.785, 113.174 139.200, 114.786 140.176, 116.246 140.208, 116.295 140.392, 116.570 140.412, 116.611 140.436, 116.660 140.474, 116.737 140.617, 117.026 140.707, 117.210 140.911, 117.624 141.017, 117.837 141.340, 118.494 141.380, 118.610 141.804, 119.860 141.849, 119.991 142.030, 120.525 142.398, 122.374 142.448, 122.629 142.588, 124.769 142.448, 126.910 142.397, 127.165 142.029, 129.013 141.848, 129.547 141.804, 129.678 141.379, 130.928 141.340, 131.044 141.016, 131.701 140.910, 131.914 140.903, 131.929 140.787, 132.165 140.673, 132.397 140.573, 132.599 140.391, 132.968 139.199, 134.751 137.784, 136.364 136.172, 137.778 134.388, 138.969 132.464, 139.917 130.433, 140.606 128.330, 141.024 " />
            <path fill="none" stroke-width="3.0" stroke-linecap="butt" stroke-opacity="1.0" stroke="rgb(0, 0, 0)" stroke-linejoin="round" d=" M 127.986, 138.565 126.166, 138.684 124.345, 138.565 122.556, 138.209 120.829, 137.622 119.193, 136.815 117.676, 135.802 116.304, 134.599 115.102, 133.227 114.088, 131.710 113.511, 130.541 113.281, 130.074 112.966, 129.145 112.885, 128.906 112.695, 128.347 112.339, 126.558 112.282, 125.692 112.220, 124.737 112.282, 123.783 112.339, 122.917 112.695, 121.128 112.884, 120.568 112.966, 120.329 113.281, 119.400 113.511, 118.934 114.088, 117.764 115.101, 116.247 116.304, 114.875 117.675, 113.672 119.192, 112.658 120.828, 111.851 122.556, 111.265 124.345, 110.909 126.166, 110.789 127.987, 110.908 129.776, 111.264 131.504, 111.850 133.141, 112.657 134.658, 113.671 136.030, 114.874 137.233, 116.246 138.247, 117.763 138.558, 118.394 139.054, 119.399 139.104, 119.546 139.185, 119.786 139.640, 121.127 139.788, 121.869 139.996, 122.917 140.007, 123.088 140.115, 124.737 140.007, 126.387 139.996, 126.558 139.787, 127.606 139.640, 128.348 139.184, 129.689 139.103, 129.928 139.053, 130.076 138.557, 131.081 138.246, 131.712 137.232, 133.229 136.029, 134.600 134.657, 135.803 133.140, 136.817 131.503, 137.623 129.776, 138.210 127.986, 138.565 " />
            <path fill="none" stroke-width="3.0" stroke-linecap="butt" stroke-opacity="1.0" stroke="rgb(0, 0, 0)" stroke-linejoin="round" d=" M 127.533, 135.325 126.134, 135.416 124.735, 135.324 123.360, 135.051 122.032, 134.600 120.774, 133.980 119.608, 133.200 118.554, 132.276 117.629, 131.222 116.850, 130.056 116.230, 128.798 115.780, 127.470 115.506, 126.095 115.414, 124.696 115.506, 123.296 115.779, 121.921 116.230, 120.593 116.850, 119.335 117.629, 118.169 118.554, 117.115 119.608, 116.190 120.774, 115.411 122.032, 114.791 123.359, 114.340 124.735, 114.066 126.134, 113.974 127.534, 114.066 128.909, 114.339 130.237, 114.790 131.495, 115.410 132.661, 116.189 133.716, 117.114 134.641, 118.169 135.420, 119.335 136.040, 120.593 136.491, 121.921 136.765, 123.296 136.856, 124.696 136.764, 126.095 136.491, 127.471 136.040, 128.799 135.419, 130.056 134.640, 131.222 133.715, 132.277 132.661, 133.201 131.495, 133.980 130.237, 134.601 128.909, 135.051 127.533, 135.325 " />
            <path fill="none" stroke-width="3.0" stroke-linecap="butt" stroke-opacity="1.0" stroke="rgb(0, 0, 0)" stroke-linejoin="round" d=" M 127.729, 136.721 126.148, 136.824 124.567, 136.720 123.013, 136.411 121.513, 135.902 120.093, 135.201 118.776, 134.321 117.585, 133.277 116.540, 132.086 115.660, 130.769 114.960, 129.348 114.451, 127.848 114.142, 126.294 114.038, 124.714 114.141, 123.133 114.450, 121.579 114.959, 120.079 115.660, 118.658 116.540, 117.341 117.584, 116.150 118.775, 115.106 120.092, 114.225 121.513, 113.524 123.013, 113.015 124.567, 112.706 126.148, 112.602 127.729, 112.705 129.283, 113.014 130.783, 113.524 132.204, 114.224 133.521, 115.104 134.713, 116.149 135.757, 117.340 136.638, 118.657 137.338, 120.078 137.848, 121.579 138.157, 123.133 138.260, 124.714 138.157, 126.295 137.847, 127.849 137.338, 129.349 136.637, 130.770 135.757, 132.087 134.712, 133.278 133.521, 134.322 132.203, 135.202 130.783, 135.903 129.282, 136.412 127.729, 136.721 " />
            <path fill="none" stroke-width="3.0" stroke-linecap="butt" stroke-opacity="1.0" stroke="rgb(0, 0, 0)" stroke-linejoin="round" d=" M 76.687, 147.435 76.685, 137.435 76.683, 127.435 76.682, 117.435 76.680, 107.435 76.679, 103.091 " />
            <path fill="none" stroke-width="3.0" stroke-linecap="butt" stroke-opacity="1.0" stroke="rgb(0, 0, 0)" stroke-linejoin="round" d=" M 77.811, 149.715 77.810, 139.715 77.808, 129.715 77.806, 119.715 77.805, 109.715 77.803, 100.810 " />
            <path fill="none" stroke-width="3.0" stroke-linecap="butt" stroke-opacity="1.0" stroke="rgb(0, 0, 0)" stroke-linejoin="round" d=" M 92.126, 128.649 92.125, 121.358 " />
            <path fill="none" stroke-width="3.0" stroke-linecap="butt" stroke-opacity="1.0" stroke="rgb(0, 0, 0)" stroke-linejoin="round" d=" M 92.661, 131.910 92.660, 121.910 92.659, 118.097 " />
            <path fill="none" stroke-width="3.0" stroke-linecap="butt" stroke-opacity="1.0" stroke="rgb(0, 0, 0)" stroke-linejoin="round" d=" M 102.554, 133.327 102.554, 123.327 102.553, 116.439 " />
            <path fill="none" stroke-width="3.0" stroke-linecap="butt" stroke-opacity="1.0" stroke="rgb(0, 0, 0)" stroke-linejoin="round" d=" M 106.744, 128.487 106.743, 121.141 " />
            <path fill="none" stroke-width="3.0" stroke-linecap="butt" stroke-opacity="1.0" stroke="rgb(0, 0, 0)" stroke-linejoin="round" d=" M 142.398, 122.374 142.397, 127.165 " />
            <path fill="none" stroke-width="3.0" stroke-linecap="butt" stroke-opacity="1.0" stroke="rgb(0, 0, 0)" stroke-linejoin="round" d=" M 145.333, 119.419 145.333, 129.419 145.332, 130.210 " />
            <path fill="none" stroke-width="3.0" stroke-linecap="butt" stroke-opacity="1.0" stroke="rgb(0, 0, 0)" stroke-linejoin="round" d=" M 149.529, 115.084 149.528, 125.084 149.527, 134.683 " />
            <path fill="none" stroke-width="3.0" stroke-linecap="butt" stroke-opacity="1.0" stroke="rgb(0, 0, 0)" stroke-linejoin="round" d=" M 159.436, 134.682 159.438, 124.682 159.439, 115.325 " />
            <path fill="none" stroke-width="3.0" stroke-linecap="butt" stroke-opacity="1.0" stroke="rgb(0, 0, 0)" stroke-linejoin="round" d=" M 159.974, 117.486 159.973, 127.486 159.972, 132.521 " />
            <path fill="none" stroke-width="3.0" stroke-linecap="butt" stroke-opacity="1.0" stroke="rgb(0, 0, 0)" stroke-linejoin="round" d=" M 175.451, 100.959 175.449, 110.959 175.447, 120.959 175.445, 130.959 175.444, 140.959 175.442, 149.047 175.442, 149.567 " />
        </g>
    </g>
</svg>
