<?xml version='1.0' encoding='ascii'?>
<svg xmlns="http://www.w3.org/2000/svg" version="1.1" width="250" height="250">
    <g id="ViewLayer_LineSet" xmlns:inkscape="http://www.inkscape.org/namespaces/inkscape" inkscape:groupmode="lineset" inkscape:label="ViewLayer_LineSet">
        <g xmlns:inkscape="http://www.inkscape.org/namespaces/inkscape" inkscape:groupmode="layer" id="strokes" inkscape:label="strokes">
            <path fill="none" stroke-width="3.0" stroke-linecap="butt" stroke-opacity="1.0" stroke="rgb(0, 0, 0)" stroke-linejoin="round" d=" M 34.616, 175.135 35.921, 177.782 41.475, 186.098 43.533, 189.180 50.125, 196.700 52.567, 199.487 60.083, 206.084 62.869, 208.529 71.181, 214.089 74.263, 216.151 83.229, 220.579 86.554, 222.222 96.021, 225.443 99.533, 226.638 109.340, 228.597 112.979, 229.324 122.957, 229.987 126.662, 230.233 136.641, 229.588 140.348, 229.349 150.158, 227.407 153.803, 226.686 163.276, 223.481 166.797, 222.289 175.771, 217.875 179.108, 216.233 187.428, 210.685 190.525, 208.621 198.049, 202.034 200.851, 199.582 207.451, 192.070 209.909, 189.272 215.472, 180.962 217.544, 177.865 218.594, 175.741 " />
            <path fill="none" stroke-width="3.0" stroke-linecap="butt" stroke-opacity="1.0" stroke="rgb(0, 0, 0)" stroke-linejoin="round" d=" M 134.828, 187.536 126.643, 188.068 118.460, 187.527 110.417, 185.924 102.653, 183.284 95.301, 179.655 88.485, 175.097 82.321, 169.690 76.917, 163.525 72.362, 156.707 71.186, 154.322 71.094, 154.134 70.168, 152.257 68.737, 149.354 66.384, 142.424 66.101, 141.591 64.837, 135.239 64.500, 133.550 64.500, 133.544 63.963, 125.368 64.497, 117.187 64.832, 115.497 66.094, 109.144 66.376, 108.311 68.727, 101.379 71.175, 96.408 71.783, 95.174 72.350, 94.023 72.560, 93.709 73.258, 92.663 76.903, 87.202 82.308, 81.033 88.471, 75.622 95.289, 71.061 102.644, 67.428 110.411, 64.787 118.457, 63.182 126.644, 62.641 134.832, 63.173 142.882, 64.770 150.654, 67.405 157.706, 70.880 158.016, 71.032 164.841, 75.590 171.014, 81.000 176.427, 87.170 179.796, 92.212 180.968, 93.966 180.988, 93.994 181.303, 94.633 184.618, 101.356 185.776, 104.767 187.256, 109.129 187.324, 109.472 188.856, 117.179 189.392, 125.369 188.853, 133.559 187.317, 141.265 187.249, 141.608 185.767, 145.969 184.607, 149.379 182.937, 152.762 182.246, 154.162 181.867, 154.929 181.672, 155.325 180.975, 156.737 176.412, 163.558 170.999, 169.724 164.827, 175.130 158.003, 179.684 150.643, 183.309 142.873, 185.941 134.828, 187.536 " />
            <path fill="none" stroke-width="3.0" stroke-linecap="butt" stroke-opacity="1.0" stroke="rgb(0, 0, 0)" stroke-linejoin="round" d=" M 215.845, 70.308 210.287, 61.994 209.949, 61.488 203.353, 53.972 200.892, 51.167 193.371, 44.576 190.565, 42.117 182.247, 36.566 179.145, 34.495 170.173, 30.078 166.827, 28.431 157.356, 25.223 153.825, 24.028 144.015, 22.084 140.360, 21.360 130.381, 20.715 126.663, 20.474 116.685, 21.138 112.970, 21.384 103.164, 23.345 99.514, 24.074 90.048, 27.298 86.527, 28.497 77.562, 32.928 74.229, 34.576 65.920, 40.139 62.831, 42.207 55.319, 48.808 52.528, 51.259 45.941, 58.784 43.495, 61.577 37.946, 69.896 37.269, 70.913 " />
            <path fill="none" stroke-width="3.0" stroke-linecap="butt" stroke-opacity="1.0" stroke="rgb(0, 0, 0)" stroke-linejoin="round" d=" M 238.244, 60.185 232.599, 60.188 224.039, 65.359 215.845, 70.308 207.285, 75.478 204.673, 77.056 204.670, 87.056 204.667, 97.056 204.664, 107.056 204.661, 117.056 204.658, 127.056 204.655, 137.056 204.652, 147.056 204.649, 157.056 204.647, 167.056 204.646, 168.029 213.397, 172.868 218.594, 175.741 227.345, 180.580 232.550, 183.459 238.192, 183.462 " />
            <path fill="none" stroke-width="3.0" stroke-linecap="butt" stroke-opacity="1.0" stroke="rgb(0, 0, 0)" stroke-linejoin="round" d=" M 232.550, 183.459 232.554, 173.459 232.558, 163.459 232.562, 153.459 232.566, 143.459 232.570, 133.459 232.574, 123.459 232.578, 113.459 232.582, 103.459 232.586, 93.459 232.590, 83.459 232.594, 73.459 232.598, 63.459 232.599, 60.188 " />
            <path fill="none" stroke-width="3.0" stroke-linecap="butt" stroke-opacity="1.0" stroke="rgb(0, 0, 0)" stroke-linejoin="round" d=" M 14.147, 183.349 19.765, 183.352 28.515, 178.510 34.616, 175.135 43.366, 170.294 47.564, 167.971 47.561, 157.971 47.558, 147.971 47.556, 137.971 47.553, 127.971 47.550, 117.971 47.547, 107.971 47.544, 97.971 47.541, 87.971 47.538, 77.119 38.980, 71.947 37.269, 70.913 28.710, 65.740 20.152, 60.568 19.717, 60.305 14.097, 60.308 " />
            <path fill="none" stroke-width="3.0" stroke-linecap="butt" stroke-opacity="1.0" stroke="rgb(0, 0, 0)" stroke-linejoin="round" d=" M 19.765, 183.352 19.761, 173.352 19.757, 163.352 19.753, 153.352 19.749, 143.352 19.746, 133.352 19.742, 123.352 19.738, 113.352 19.734, 103.352 19.730, 93.352 19.726, 83.352 19.722, 73.352 19.718, 63.352 19.717, 60.305 " />
            <path fill="none" stroke-width="3.0" stroke-linecap="butt" stroke-opacity="1.0" stroke="rgb(0, 0, 0)" stroke-linejoin="round" d=" M -35.841, 214.118 -27.091, 209.277 -18.341, 204.435 -9.591, 199.594 -0.841, 194.753 7.909, 189.912 14.148, 186.459 14.147, 183.349 14.146, 180.038 14.142, 170.038 14.137, 160.038 14.133, 150.038 14.129, 140.038 14.125, 130.038 14.121, 120.038 14.117, 110.038 14.113, 100.038 14.109, 90.038 14.105, 80.038 14.101, 70.038 14.098, 63.928 14.097, 60.308 14.096, 56.907 5.537, 51.735 -3.021, 46.563 -11.580, 41.390 -20.138, 36.218 -28.696, 31.045 -30.526, 29.940 " />
            <path fill="none" stroke-width="3.0" stroke-linecap="butt" stroke-opacity="1.0" stroke="rgb(0, 0, 0)" stroke-linejoin="round" d=" M 285.526, 28.220 276.966, 33.390 268.407, 38.560 259.847, 43.731 251.287, 48.901 242.727, 54.071 238.245, 56.778 238.244, 60.185 238.242, 63.808 238.238, 73.808 238.234, 83.808 238.230, 93.808 238.225, 103.808 238.221, 113.808 238.217, 123.808 238.213, 133.808 238.209, 143.808 238.204, 153.808 238.200, 163.808 238.196, 173.808 238.194, 180.148 238.192, 183.462 238.191, 186.578 246.942, 191.417 255.693, 196.256 264.444, 201.095 273.196, 205.934 281.947, 210.773 291.116, 215.843 " />
            <path fill="none" stroke-width="3.0" stroke-linecap="butt" stroke-opacity="1.0" stroke="rgb(0, 0, 0)" stroke-linejoin="round" d=" M 71.207, 154.134 72.271, 156.291 76.812, 163.089 82.202, 169.237 88.347, 174.629 95.144, 179.173 102.475, 182.793 110.217, 185.424 118.236, 187.023 126.396, 187.562 134.557, 187.032 142.580, 185.441 150.327, 182.816 157.666, 179.203 164.471, 174.662 170.625, 169.271 176.023, 163.122 180.572, 156.321 181.194, 155.061 " />
            <path fill="none" stroke-width="3.0" stroke-linecap="butt" stroke-opacity="1.0" stroke="rgb(0, 0, 0)" stroke-linejoin="round" d=" M 131.294, 162.239 126.397, 162.558 121.500, 162.236 116.688, 161.277 112.042, 159.698 107.641, 157.527 103.562, 154.801 99.874, 151.565 96.639, 147.876 93.914, 143.796 93.344, 142.641 93.152, 142.250 91.744, 139.396 90.348, 135.285 90.233, 134.944 90.167, 134.750 89.616, 131.984 89.209, 129.938 88.888, 125.043 89.208, 120.147 89.615, 118.100 90.164, 115.334 90.230, 115.140 90.346, 114.799 91.741, 110.688 92.646, 108.850 93.570, 106.975 93.817, 106.474 93.910, 106.286 94.046, 106.082 96.635, 102.205 99.869, 98.515 103.558, 95.278 107.637, 92.550 112.038, 90.378 116.685, 88.799 121.499, 87.840 126.397, 87.517 131.295, 87.837 136.110, 88.793 140.759, 90.370 145.163, 92.540 149.245, 95.267 152.937, 98.503 156.174, 102.194 158.152, 105.154 158.194, 105.217 158.902, 106.276 158.995, 106.464 159.091, 106.658 159.449, 107.386 161.074, 110.679 161.754, 112.683 161.872, 113.031 162.489, 114.848 162.652, 115.329 163.609, 120.144 163.930, 125.043 163.608, 129.942 162.649, 134.757 162.486, 135.237 161.869, 137.053 161.750, 137.401 161.070, 139.405 159.661, 142.260 159.314, 142.962 158.897, 143.807 156.169, 147.888 152.931, 151.577 149.240, 154.812 145.158, 157.538 140.755, 159.707 136.107, 161.283 131.294, 162.239 " />
            <path fill="none" stroke-width="3.0" stroke-linecap="butt" stroke-opacity="1.0" stroke="rgb(0, 0, 0)" stroke-linejoin="round" d=" M 179.560, 92.224 176.037, 86.953 170.640, 80.801 164.485, 75.406 157.706, 70.880 " />
            <path fill="none" stroke-width="3.0" stroke-linecap="butt" stroke-opacity="1.0" stroke="rgb(0, 0, 0)" stroke-linejoin="round" d=" M 180.968, 93.966 180.968, 94.535 180.968, 94.815 180.966, 104.815 180.964, 114.815 180.962, 124.815 180.960, 134.815 180.958, 144.815 180.956, 151.780 180.956, 154.162 180.956, 154.929 181.194, 155.061 181.672, 155.325 " />
            <path fill="none" stroke-width="3.0" stroke-linecap="butt" stroke-opacity="1.0" stroke="rgb(0, 0, 0)" stroke-linejoin="round" d=" M 71.186, 154.134 71.207, 154.134 72.572, 154.134 80.658, 149.660 80.658, 147.485 80.658, 147.056 80.656, 137.056 80.654, 127.056 80.653, 117.056 80.651, 107.056 80.650, 99.977 80.650, 99.507 80.650, 97.131 73.258, 92.663 " />
            <path fill="none" stroke-width="3.0" stroke-linecap="butt" stroke-opacity="1.0" stroke="rgb(0, 0, 0)" stroke-linejoin="round" d=" M 72.572, 154.134 72.570, 144.134 72.568, 134.134 72.566, 124.134 72.564, 114.134 72.562, 104.134 72.560, 93.709 " />
            <path fill="none" stroke-width="3.0" stroke-linecap="butt" stroke-opacity="1.0" stroke="rgb(0, 0, 0)" stroke-linejoin="round" d=" M 179.796, 92.212 179.580, 92.212 179.560, 92.224 171.471, 97.110 171.471, 99.488 171.471, 99.956 171.469, 109.956 171.468, 119.956 171.466, 129.956 171.464, 139.956 171.463, 147.075 171.463, 147.503 171.462, 149.680 179.567, 154.161 180.956, 154.162 " />
            <path fill="none" stroke-width="3.0" stroke-linecap="butt" stroke-opacity="1.0" stroke="rgb(0, 0, 0)" stroke-linejoin="round" d=" M 179.567, 154.161 179.569, 144.161 179.571, 134.161 179.573, 124.161 179.575, 114.161 179.577, 104.161 179.579, 94.161 179.580, 92.254 179.580, 92.212 " />
            <path fill="none" stroke-width="3.0" stroke-linecap="butt" stroke-opacity="1.0" stroke="rgb(0, 0, 0)" stroke-linejoin="round" d=" M 128.953, 145.485 126.233, 145.663 123.514, 145.484 120.841, 144.952 118.260, 144.076 115.816, 142.870 113.550, 141.356 111.501, 139.559 109.704, 137.509 108.191, 135.244 107.874, 134.602 107.854, 134.560 107.812, 134.475 107.536, 133.916 107.155, 133.145 106.985, 132.799 106.789, 132.222 106.109, 130.219 106.027, 129.806 105.957, 129.452 105.856, 128.947 105.577, 127.546 105.575, 127.515 105.399, 124.827 105.577, 122.107 105.856, 120.706 105.956, 120.201 106.026, 119.847 106.108, 119.434 106.788, 117.430 106.984, 116.853 107.154, 116.508 107.861, 115.075 107.948, 114.898 108.001, 114.791 108.038, 114.716 108.101, 114.587 108.189, 114.409 108.240, 114.333 108.491, 113.957 109.703, 112.143 111.500, 110.093 113.549, 108.296 115.815, 106.781 118.259, 105.575 120.840, 104.698 123.513, 104.166 126.233, 103.987 128.954, 104.165 131.627, 104.696 134.191, 105.566 134.209, 105.572 136.654, 106.778 138.921, 108.292 140.971, 110.089 142.768, 112.139 143.867, 113.783 143.974, 113.943 144.127, 114.172 144.232, 114.330 144.283, 114.406 144.920, 115.698 145.288, 116.444 145.489, 116.851 146.050, 118.503 146.121, 118.714 146.221, 119.007 146.365, 119.432 146.897, 122.106 147.075, 124.827 146.896, 127.547 146.364, 130.221 146.220, 130.646 146.120, 130.939 146.049, 131.150 145.488, 132.802 145.287, 133.209 144.933, 133.926 144.661, 134.479 144.619, 134.563 144.513, 134.778 144.282, 135.247 142.767, 137.513 140.969, 139.562 138.919, 141.359 136.652, 142.873 134.208, 144.078 131.626, 144.954 128.953, 145.485 " />
            <path fill="none" stroke-width="3.0" stroke-linecap="butt" stroke-opacity="1.0" stroke="rgb(0, 0, 0)" stroke-linejoin="round" d=" M 129.793, 151.495 126.292, 151.723 122.791, 151.493 119.351, 150.808 116.029, 149.680 112.883, 148.128 109.967, 146.179 107.330, 143.866 105.018, 141.228 103.069, 138.312 102.662, 137.486 102.599, 137.359 102.216, 136.581 102.155, 136.459 102.130, 136.408 102.028, 136.200 101.781, 135.700 101.518, 135.166 101.378, 134.754 100.390, 131.844 99.887, 129.313 99.706, 128.404 99.476, 124.904 99.705, 121.404 99.886, 120.495 100.389, 117.963 101.376, 115.053 101.516, 114.642 101.779, 114.107 102.026, 113.607 102.597, 112.448 102.824, 111.988 103.037, 111.555 103.067, 111.495 103.116, 111.421 103.455, 110.914 105.015, 108.578 107.328, 105.940 109.965, 103.626 112.881, 101.676 116.028, 100.124 119.350, 98.995 122.791, 98.310 126.292, 98.080 129.794, 98.308 133.235, 98.992 136.558, 100.120 139.706, 101.671 142.624, 103.620 145.263, 105.934 147.577, 108.572 148.991, 110.688 149.477, 111.416 149.485, 111.428 149.526, 111.490 149.556, 111.550 149.661, 111.763 150.055, 112.563 150.302, 113.063 150.707, 113.885 151.079, 114.637 152.199, 117.937 152.206, 117.961 152.891, 121.402 152.918, 121.809 153.120, 124.904 152.917, 128.000 152.890, 128.406 152.205, 131.848 152.197, 131.871 151.077, 135.170 150.705, 135.923 150.363, 136.617 149.914, 137.526 149.524, 138.317 147.574, 141.234 145.260, 143.872 142.621, 146.185 139.703, 148.133 136.556, 149.684 133.234, 150.811 129.793, 151.495 " />
            <path fill="none" stroke-width="3.0" stroke-linecap="butt" stroke-opacity="1.0" stroke="rgb(0, 0, 0)" stroke-linejoin="round" d=" M 93.344, 142.641 94.050, 142.250 94.050, 141.109 94.050, 140.415 94.050, 137.796 94.049, 127.796 94.048, 117.796 94.047, 111.856 94.046, 107.233 94.046, 106.474 94.046, 106.082 " />
            <path fill="none" stroke-width="3.0" stroke-linecap="butt" stroke-opacity="1.0" stroke="rgb(0, 0, 0)" stroke-linejoin="round" d=" M 158.152, 105.154 158.049, 105.217 158.049, 106.464 158.049, 107.222 158.048, 110.961 158.047, 120.961 158.046, 130.961 158.045, 138.691 158.045, 140.424 158.045, 141.118 158.045, 142.260 159.314, 142.962 " />
            <path fill="none" stroke-width="3.0" stroke-linecap="butt" stroke-opacity="1.0" stroke="rgb(0, 0, 0)" stroke-linejoin="round" d=" M 128.422, 141.682 126.196, 141.827 123.971, 141.681 121.783, 141.246 119.672, 140.529 117.672, 139.542 115.818, 138.303 114.141, 136.833 112.671, 135.156 111.432, 133.302 111.173, 132.777 111.099, 132.627 110.978, 132.381 110.835, 132.091 110.697, 131.811 110.585, 131.585 110.446, 131.302 110.250, 130.726 109.754, 129.265 109.747, 129.242 109.729, 129.190 109.294, 127.003 109.148, 124.778 109.293, 122.552 109.728, 120.365 109.746, 120.313 109.754, 120.290 110.250, 118.829 110.445, 118.253 110.584, 117.970 110.696, 117.743 110.960, 117.208 111.056, 117.014 111.277, 116.566 111.336, 116.446 111.361, 116.394 111.431, 116.253 111.442, 116.237 111.594, 116.009 112.670, 114.398 114.140, 112.721 115.817, 111.251 117.671, 110.011 119.671, 109.025 121.783, 108.307 123.971, 107.872 126.196, 107.726 128.422, 107.871 130.610, 108.306 132.722, 109.023 134.723, 110.009 136.578, 111.248 138.255, 112.719 139.726, 114.396 140.629, 115.748 140.802, 116.007 140.965, 116.251 141.035, 116.392 141.110, 116.545 141.375, 117.083 141.487, 117.310 141.822, 117.987 141.952, 118.252 142.318, 119.331 142.327, 119.356 142.669, 120.364 142.961, 121.831 143.104, 122.552 143.151, 123.267 143.250, 124.778 143.151, 126.289 143.104, 127.004 142.960, 127.724 142.668, 129.191 142.326, 130.199 142.317, 130.224 141.951, 131.303 141.821, 131.568 141.497, 132.223 141.486, 132.245 141.418, 132.383 141.374, 132.472 141.297, 132.629 141.154, 132.920 140.964, 133.304 139.725, 135.158 138.254, 136.835 136.577, 138.306 134.722, 139.544 132.721, 140.531 130.609, 141.247 128.422, 141.682 " />
            <path fill="none" stroke-width="3.0" stroke-linecap="butt" stroke-opacity="1.0" stroke="rgb(0, 0, 0)" stroke-linejoin="round" d=" M 128.052, 139.038 126.170, 139.161 124.288, 139.038 122.439, 138.670 120.653, 138.063 118.962, 137.229 117.394, 136.181 115.976, 134.938 114.733, 133.520 113.685, 131.952 113.184, 130.937 112.851, 130.261 112.610, 129.549 112.524, 129.297 112.245, 128.475 111.887, 126.676 111.877, 126.625 111.753, 124.744 111.877, 122.862 111.887, 122.811 112.244, 121.012 112.524, 120.190 112.609, 119.937 112.851, 119.226 113.184, 118.550 113.684, 117.535 114.732, 115.967 115.975, 114.548 117.393, 113.305 118.961, 112.257 120.653, 111.422 122.439, 110.816 124.288, 110.448 126.171, 110.324 128.053, 110.447 129.903, 110.815 131.689, 111.421 133.381, 112.255 134.949, 113.303 136.367, 114.547 137.611, 115.965 138.659, 117.533 138.885, 117.992 139.460, 119.158 139.493, 119.225 139.546, 119.380 140.100, 121.011 140.183, 121.432 140.372, 122.383 140.468, 122.861 140.591, 124.744 140.467, 126.626 140.372, 127.105 140.183, 128.055 140.099, 128.476 139.546, 130.107 139.493, 130.262 139.460, 130.329 138.884, 131.495 138.658, 131.953 137.610, 133.522 136.366, 134.940 134.948, 136.183 133.380, 137.231 131.688, 138.065 129.902, 138.671 128.052, 139.038 " />
            <path fill="none" stroke-width="3.0" stroke-linecap="butt" stroke-opacity="1.0" stroke="rgb(0, 0, 0)" stroke-linejoin="round" d=" M 127.572, 135.602 126.137, 135.696 124.702, 135.602 123.291, 135.321 121.929, 134.858 120.639, 134.222 119.443, 133.423 118.362, 132.475 117.413, 131.393 116.614, 130.197 115.978, 128.907 115.516, 127.545 115.235, 126.134 115.141, 124.699 115.235, 123.264 115.515, 121.853 115.978, 120.491 116.614, 119.201 117.413, 118.005 118.361, 116.923 119.443, 115.975 120.639, 115.176 121.929, 114.539 123.291, 114.077 124.702, 113.796 126.137, 113.702 127.572, 113.796 128.983, 114.076 130.346, 114.539 131.636, 115.175 132.832, 115.974 133.914, 116.922 134.862, 118.004 135.662, 119.200 136.298, 120.490 136.760, 121.853 137.041, 123.264 137.135, 124.699 137.041, 126.135 136.760, 127.546 136.298, 128.908 135.661, 130.198 134.862, 131.394 133.913, 132.476 132.832, 133.424 131.635, 134.223 130.345, 134.859 128.983, 135.321 127.572, 135.602 " />
            <path fill="none" stroke-width="3.0" stroke-linecap="butt" stroke-opacity="1.0" stroke="rgb(0, 0, 0)" stroke-linejoin="round" d=" M 127.778, 137.076 126.151, 137.182 124.524, 137.075 122.925, 136.757 121.382, 136.233 119.919, 135.512 118.564, 134.606 117.338, 133.531 116.263, 132.305 115.358, 130.950 114.637, 129.488 114.113, 127.944 113.795, 126.345 113.688, 124.718 113.795, 123.091 114.112, 121.492 114.636, 119.949 115.357, 118.486 116.263, 117.131 117.338, 115.905 118.564, 114.830 119.919, 113.924 121.381, 113.202 122.925, 112.678 124.524, 112.360 126.151, 112.253 127.778, 112.360 129.378, 112.678 130.922, 113.202 132.384, 113.923 133.740, 114.828 134.966, 115.904 136.041, 117.129 136.947, 118.485 137.668, 119.948 138.193, 121.492 138.511, 123.091 138.617, 124.718 138.511, 126.345 138.192, 127.945 137.668, 129.489 136.947, 130.951 136.041, 132.307 134.965, 133.532 133.739, 134.607 132.384, 135.513 130.921, 136.234 129.377, 136.758 127.778, 137.076 " />
            <path fill="none" stroke-width="3.0" stroke-linecap="butt" stroke-opacity="1.0" stroke="rgb(0, 0, 0)" stroke-linejoin="round" d=" M 71.186, 154.322 71.186, 154.134 71.186, 154.092 71.186, 151.753 71.184, 141.753 71.182, 131.753 71.180, 121.753 71.178, 111.753 71.176, 101.753 71.175, 96.408 " />
            <path fill="none" stroke-width="3.0" stroke-linecap="butt" stroke-opacity="1.0" stroke="rgb(0, 0, 0)" stroke-linejoin="round" d=" M 89.616, 131.984 89.615, 121.984 89.615, 118.100 " />
            <path fill="none" stroke-width="3.0" stroke-linecap="butt" stroke-opacity="1.0" stroke="rgb(0, 0, 0)" stroke-linejoin="round" d=" M 90.233, 134.944 90.231, 124.944 90.230, 115.140 " />
            <path fill="none" stroke-width="3.0" stroke-linecap="butt" stroke-opacity="1.0" stroke="rgb(0, 0, 0)" stroke-linejoin="round" d=" M 101.378, 134.754 101.377, 124.754 101.376, 115.053 " />
            <path fill="none" stroke-width="3.0" stroke-linecap="butt" stroke-opacity="1.0" stroke="rgb(0, 0, 0)" stroke-linejoin="round" d=" M 105.957, 129.452 105.957, 129.431 105.956, 120.201 " />
            <path fill="none" stroke-width="3.0" stroke-linecap="butt" stroke-opacity="1.0" stroke="rgb(0, 0, 0)" stroke-linejoin="round" d=" M 142.961, 121.831 142.960, 127.724 " />
            <path fill="none" stroke-width="3.0" stroke-linecap="butt" stroke-opacity="1.0" stroke="rgb(0, 0, 0)" stroke-linejoin="round" d=" M 146.121, 118.714 146.121, 119.045 146.121, 129.045 146.120, 130.392 146.120, 130.939 " />
            <path fill="none" stroke-width="3.0" stroke-linecap="butt" stroke-opacity="1.0" stroke="rgb(0, 0, 0)" stroke-linejoin="round" d=" M 150.707, 113.885 150.706, 123.885 150.705, 133.885 150.705, 135.923 " />
            <path fill="none" stroke-width="3.0" stroke-linecap="butt" stroke-opacity="1.0" stroke="rgb(0, 0, 0)" stroke-linejoin="round" d=" M 152.917, 128.000 152.918, 121.809 " />
            <path fill="none" stroke-width="3.0" stroke-linecap="butt" stroke-opacity="1.0" stroke="rgb(0, 0, 0)" stroke-linejoin="round" d=" M 161.869, 137.053 161.870, 127.053 161.871, 117.053 161.872, 113.031 " />
            <path fill="none" stroke-width="3.0" stroke-linecap="butt" stroke-opacity="1.0" stroke="rgb(0, 0, 0)" stroke-linejoin="round" d=" M 162.489, 114.848 162.487, 124.848 162.486, 134.848 162.486, 135.237 " />
        </g>
    </g>
</svg>
