<?xml version='1.0' encoding='ascii'?>
<svg xmlns="http://www.w3.org/2000/svg" version="1.1" width="250" height="250">
    <g id="ViewLayer_LineSet" xmlns:inkscape="http://www.inkscape.org/namespaces/inkscape" inkscape:groupmode="lineset" inkscape:label="ViewLayer_LineSet">
        <g xmlns:inkscape="http://www.inkscape.org/namespaces/inkscape" inkscape:groupmode="layer" id="strokes" inkscape:label="strokes">
            <path fill="none" stroke-width="3.0" stroke-linecap="butt" stroke-opacity="1.0" stroke="rgb(0, 0, 0)" stroke-linejoin="round" d=" M 69.681, 155.232 70.670, 157.237 75.346, 164.237 80.896, 170.568 87.225, 176.121 94.224, 180.801 101.774, 184.527 109.746, 187.238 118.004, 188.885 126.407, 189.440 134.812, 188.894 143.073, 187.256 151.051, 184.553 158.609, 180.831 165.616, 176.155 171.954, 170.604 177.513, 164.272 182.198, 157.268 183.052, 155.538 " />
            <path fill="none" stroke-width="3.0" stroke-linecap="butt" stroke-opacity="1.0" stroke="rgb(0, 0, 0)" stroke-linejoin="round" d=" M 131.450, 163.362 126.407, 163.690 121.365, 163.358 116.409, 162.371 111.625, 160.745 107.094, 158.510 102.893, 155.702 99.095, 152.370 95.764, 148.571 92.957, 144.369 92.370, 143.180 92.096, 142.623 90.723, 139.838 89.596, 136.520 89.386, 135.900 89.098, 135.054 88.740, 133.251 88.112, 130.099 87.781, 125.057 88.111, 120.015 88.737, 116.862 89.096, 115.059 89.383, 114.213 89.593, 113.593 90.719, 110.274 91.988, 107.698 92.603, 106.451 92.767, 106.118 92.953, 105.742 93.372, 105.114 95.759, 101.539 99.090, 97.739 102.888, 94.406 107.089, 91.596 111.621, 89.359 116.407, 87.733 121.364, 86.745 126.408, 86.413 131.452, 86.742 136.411, 87.727 141.198, 89.350 145.733, 91.585 149.937, 94.393 153.739, 97.726 157.073, 101.527 159.110, 104.576 159.266, 104.808 159.882, 105.731 160.068, 106.107 160.076, 106.125 160.108, 106.190 162.118, 110.266 162.508, 111.413 162.721, 112.041 163.367, 113.945 163.744, 115.053 164.730, 120.012 165.060, 125.057 164.728, 130.102 163.741, 135.061 163.364, 136.168 162.717, 138.073 162.504, 138.701 162.114, 139.847 160.739, 142.634 160.307, 143.511 159.877, 144.381 157.067, 148.583 153.733, 152.383 149.932, 155.714 145.728, 158.521 141.194, 160.755 136.407, 162.377 131.450, 163.362 " />
            <path fill="none" stroke-width="3.0" stroke-linecap="butt" stroke-opacity="1.0" stroke="rgb(0, 0, 0)" stroke-linejoin="round" d=" M 181.156, 91.260 177.528, 85.832 171.970, 79.496 165.632, 73.940 158.623, 69.260 151.063, 65.536 143.082, 62.831 134.816, 61.191 126.408, 60.644 118.001, 61.200 109.739, 62.848 101.764, 65.561 94.211, 69.291 87.210, 73.974 80.881, 79.531 75.332, 85.865 71.503, 91.603 " />
            <path fill="none" stroke-width="3.0" stroke-linecap="butt" stroke-opacity="1.0" stroke="rgb(0, 0, 0)" stroke-linejoin="round" d=" M 29.822, 177.787 31.195, 180.574 36.750, 188.889 39.207, 192.569 45.798, 200.089 48.715, 203.417 56.230, 210.014 59.556, 212.933 67.868, 218.494 71.547, 220.955 80.513, 225.384 84.483, 227.345 93.950, 230.567 98.143, 231.994 107.949, 233.953 112.294, 234.821 122.272, 235.484 126.695, 235.778 136.674, 235.134 141.099, 234.848 150.909, 232.907 155.261, 232.046 164.734, 228.841 168.938, 227.419 177.911, 223.006 181.895, 221.046 190.215, 215.499 193.911, 213.035 201.436, 206.449 204.780, 203.522 211.380, 196.010 214.315, 192.671 219.877, 184.361 222.351, 180.665 223.456, 178.430 " />
            <path fill="none" stroke-width="3.0" stroke-linecap="butt" stroke-opacity="1.0" stroke="rgb(0, 0, 0)" stroke-linejoin="round" d=" M 135.275, 190.737 126.674, 191.296 118.075, 190.728 109.624, 189.042 101.466, 186.268 93.739, 182.454 86.577, 177.665 80.101, 171.983 74.422, 165.504 69.636, 158.341 68.636, 156.312 68.510, 156.057 68.103, 155.232 67.330, 153.665 65.826, 150.614 64.170, 145.735 63.056, 142.456 62.504, 139.683 61.375, 134.006 60.809, 125.410 61.371, 116.812 62.498, 111.135 63.049, 108.361 64.160, 105.081 65.815, 100.201 69.027, 93.681 69.083, 93.567 69.623, 92.471 70.574, 91.046 70.576, 91.043 74.407, 85.303 80.086, 78.821 86.562, 73.134 93.726, 68.341 101.455, 64.524 109.617, 61.748 118.072, 60.061 126.675, 59.493 135.280, 60.052 143.738, 61.730 151.906, 64.498 159.643, 68.310 166.815, 73.099 173.302, 78.785 178.990, 85.268 182.827, 91.009 183.066, 91.367 183.783, 92.440 184.114, 93.111 187.598, 100.176 187.998, 101.352 189.665, 106.265 190.370, 108.344 192.052, 116.804 192.614, 125.411 192.048, 134.017 190.362, 142.476 189.656, 144.553 187.986, 149.465 187.587, 150.641 185.831, 154.196 185.305, 155.263 184.897, 156.089 184.501, 156.890 183.769, 158.374 178.974, 165.541 173.285, 172.021 166.799, 177.702 159.628, 182.487 151.894, 186.295 143.730, 189.061 135.275, 190.737 " />
            <path fill="none" stroke-width="3.0" stroke-linecap="butt" stroke-opacity="1.0" stroke="rgb(0, 0, 0)" stroke-linejoin="round" d=" M 220.564, 67.457 215.007, 59.144 214.359, 58.174 207.763, 50.658 204.826, 47.310 197.304, 40.720 193.956, 37.786 185.638, 32.235 181.935, 29.764 172.963, 25.347 168.971, 23.381 159.499, 20.174 155.285, 18.747 145.475, 16.804 141.113, 15.940 131.133, 15.295 126.697, 15.008 116.719, 15.672 112.284, 15.967 102.478, 17.928 98.122, 18.798 88.656, 22.022 84.453, 23.454 75.489, 27.886 71.510, 29.853 63.201, 35.417 59.514, 37.885 52.002, 44.486 48.671, 47.413 42.085, 54.938 39.165, 58.273 33.616, 66.592 32.612, 68.098 " />
            <path fill="none" stroke-width="3.0" stroke-linecap="butt" stroke-opacity="1.0" stroke="rgb(0, 0, 0)" stroke-linejoin="round" d=" M 182.827, 91.009 181.571, 91.010 181.156, 91.260 172.897, 96.249 172.897, 98.798 172.896, 99.184 172.895, 109.184 172.893, 119.184 172.891, 129.184 172.889, 139.184 172.888, 147.781 172.888, 148.135 172.887, 150.468 181.557, 155.262 183.052, 155.262 " />
            <path fill="none" stroke-width="3.0" stroke-linecap="butt" stroke-opacity="1.0" stroke="rgb(0, 0, 0)" stroke-linejoin="round" d=" M 181.557, 155.262 181.559, 145.262 181.561, 135.262 181.563, 125.262 181.566, 115.262 181.568, 105.262 181.570, 95.262 181.570, 91.880 181.571, 91.010 " />
            <path fill="none" stroke-width="3.0" stroke-linecap="butt" stroke-opacity="1.0" stroke="rgb(0, 0, 0)" stroke-linejoin="round" d=" M 69.095, 155.232 69.681, 155.232 70.587, 155.233 79.236, 150.447 79.236, 148.116 79.236, 147.761 79.234, 137.761 79.232, 127.761 79.231, 117.761 79.229, 107.761 79.228, 99.206 79.228, 98.818 79.227, 96.271 71.503, 91.603 70.576, 91.043 " />
            <path fill="none" stroke-width="3.0" stroke-linecap="butt" stroke-opacity="1.0" stroke="rgb(0, 0, 0)" stroke-linejoin="round" d=" M 70.587, 155.233 70.585, 145.233 70.583, 135.233 70.581, 125.233 70.579, 115.233 70.577, 105.233 70.575, 95.233 70.574, 93.038 70.574, 91.046 " />
            <path fill="none" stroke-width="3.0" stroke-linecap="butt" stroke-opacity="1.0" stroke="rgb(0, 0, 0)" stroke-linejoin="round" d=" M 68.636, 156.312 69.095, 156.058 69.095, 155.232 69.095, 154.043 69.095, 152.790 69.093, 142.790 69.091, 132.790 69.089, 122.790 69.087, 112.790 69.085, 102.790 69.083, 96.065 69.083, 93.711 69.083, 93.567 " />
            <path fill="none" stroke-width="3.0" stroke-linecap="butt" stroke-opacity="1.0" stroke="rgb(0, 0, 0)" stroke-linejoin="round" d=" M 183.066, 91.367 183.066, 93.679 183.065, 94.570 183.063, 104.570 183.061, 114.570 183.059, 124.570 183.057, 134.570 183.055, 144.570 183.053, 152.819 183.052, 155.262 183.052, 155.538 183.052, 156.088 184.501, 156.890 " />
            <path fill="none" stroke-width="3.0" stroke-linecap="butt" stroke-opacity="1.0" stroke="rgb(0, 0, 0)" stroke-linejoin="round" d=" M 304.352, 16.849 295.792, 22.019 287.232, 27.189 278.673, 32.360 270.113, 37.530 261.553, 42.700 252.993, 47.870 247.358, 51.274 247.356, 55.240 247.354, 58.875 247.350, 68.875 247.345, 78.875 247.341, 88.875 247.336, 98.875 247.332, 108.875 247.327, 118.875 247.323, 128.875 247.318, 138.875 247.314, 148.875 247.309, 158.875 247.305, 168.875 247.300, 178.875 247.298, 184.660 247.296, 187.984 247.295, 191.612 256.046, 196.451 264.797, 201.290 273.548, 206.129 282.299, 210.968 291.051, 215.807 299.802, 220.646 308.553, 225.485 310.588, 226.611 " />
            <path fill="none" stroke-width="3.0" stroke-linecap="butt" stroke-opacity="1.0" stroke="rgb(0, 0, 0)" stroke-linejoin="round" d=" M -54.874, 224.649 -46.124, 219.807 -37.374, 214.966 -28.624, 210.125 -19.874, 205.284 -11.125, 200.442 -2.375, 195.601 5.086, 191.473 5.084, 187.853 5.083, 184.532 5.079, 174.532 5.074, 164.532 5.070, 154.532 5.065, 144.532 5.061, 134.532 5.056, 124.532 5.052, 114.532 5.048, 104.532 5.043, 94.532 5.039, 84.532 5.034, 74.532 5.030, 64.532 5.028, 59.015 5.026, 55.384 5.024, 51.425 -3.534, 46.253 -12.092, 41.080 -20.651, 35.908 -29.209, 30.735 -37.768, 25.563 -46.326, 20.391 -48.949, 18.805 " />
            <path fill="none" stroke-width="3.0" stroke-linecap="butt" stroke-opacity="1.0" stroke="rgb(0, 0, 0)" stroke-linejoin="round" d=" M 5.084, 187.853 11.623, 187.857 20.373, 183.015 29.123, 178.174 29.822, 177.787 38.572, 172.946 43.212, 170.379 43.209, 160.379 43.206, 150.379 43.203, 140.379 43.200, 130.379 43.197, 120.379 43.194, 110.379 43.191, 100.379 43.188, 90.379 43.185, 80.379 43.183, 74.487 34.625, 69.315 32.612, 68.098 24.053, 62.926 15.495, 57.753 11.568, 55.380 5.026, 55.384 " />
            <path fill="none" stroke-width="3.0" stroke-linecap="butt" stroke-opacity="1.0" stroke="rgb(0, 0, 0)" stroke-linejoin="round" d=" M 11.623, 187.857 11.619, 177.857 11.614, 167.857 11.610, 157.857 11.606, 147.857 11.602, 137.857 11.598, 127.857 11.594, 117.857 11.589, 107.857 11.585, 97.857 11.581, 87.857 11.577, 77.857 11.573, 67.857 11.569, 57.857 11.568, 55.380 " />
            <path fill="none" stroke-width="3.0" stroke-linecap="butt" stroke-opacity="1.0" stroke="rgb(0, 0, 0)" stroke-linejoin="round" d=" M 247.356, 55.240 240.784, 55.244 232.225, 60.414 223.665, 65.585 220.564, 67.457 212.004, 72.627 209.043, 74.416 209.040, 84.416 209.036, 94.416 209.033, 104.416 209.030, 114.416 209.027, 124.416 209.024, 134.416 209.021, 144.416 209.018, 154.416 209.015, 164.416 209.013, 170.444 217.764, 175.283 223.456, 178.430 232.207, 183.269 240.728, 187.981 247.296, 187.984 " />
            <path fill="none" stroke-width="3.0" stroke-linecap="butt" stroke-opacity="1.0" stroke="rgb(0, 0, 0)" stroke-linejoin="round" d=" M 240.728, 187.981 240.732, 177.981 240.736, 167.981 240.740, 157.981 240.745, 147.981 240.749, 137.981 240.753, 127.981 240.758, 117.981 240.762, 107.981 240.766, 97.981 240.770, 87.981 240.775, 77.981 240.779, 67.981 240.783, 57.981 240.784, 55.244 " />
            <path fill="none" stroke-width="3.0" stroke-linecap="butt" stroke-opacity="1.0" stroke="rgb(0, 0, 0)" stroke-linejoin="round" d=" M 129.869, 152.043 126.297, 152.276 122.725, 152.041 119.215, 151.342 115.826, 150.191 112.616, 148.608 109.640, 146.619 106.950, 144.259 104.590, 141.568 102.602, 138.592 102.143, 137.662 101.670, 136.702 101.537, 136.432 101.019, 135.382 100.979, 135.265 99.868, 131.993 99.602, 130.654 99.170, 128.482 98.936, 124.911 99.169, 121.340 99.601, 119.168 99.867, 117.829 100.977, 114.556 101.017, 114.440 101.535, 113.389 101.786, 112.879 102.342, 111.752 102.352, 111.732 102.503, 111.425 102.570, 111.289 102.599, 111.229 102.996, 110.636 104.587, 108.253 106.947, 105.561 109.638, 103.200 112.614, 101.211 115.824, 99.626 119.214, 98.475 122.725, 97.776 126.297, 97.541 129.870, 97.774 133.382, 98.472 136.773, 99.622 139.984, 101.205 142.962, 103.194 145.654, 105.555 148.015, 108.247 149.458, 110.406 149.741, 110.828 150.005, 111.224 150.034, 111.283 150.101, 111.420 150.142, 111.503 150.296, 111.813 150.547, 112.324 151.107, 113.459 151.589, 114.435 152.484, 117.073 152.740, 117.826 153.393, 121.110 153.438, 121.338 153.672, 124.911 153.437, 128.484 153.392, 128.713 152.738, 131.996 152.482, 132.749 151.587, 135.386 151.105, 136.363 150.858, 136.863 150.461, 137.667 150.002, 138.597 148.012, 141.574 145.651, 144.265 142.959, 146.625 139.982, 148.613 136.770, 150.196 133.380, 151.346 129.869, 152.043 " />
            <path fill="none" stroke-width="3.0" stroke-linecap="butt" stroke-opacity="1.0" stroke="rgb(0, 0, 0)" stroke-linejoin="round" d=" M 128.999, 145.815 126.236, 145.995 123.474, 145.814 120.759, 145.273 118.138, 144.383 115.655, 143.158 113.354, 141.620 111.273, 139.795 109.447, 137.713 107.910, 135.412 107.588, 134.760 107.531, 134.644 107.489, 134.558 107.208, 133.989 107.008, 133.582 106.685, 132.929 106.618, 132.730 105.861, 130.500 105.796, 130.308 105.770, 130.178 105.687, 129.763 105.256, 127.593 105.074, 124.831 105.255, 122.069 105.687, 119.899 105.769, 119.483 105.795, 119.354 105.860, 119.161 106.617, 116.932 106.684, 116.732 107.006, 116.079 107.796, 114.476 107.907, 114.253 107.908, 114.249 107.952, 114.184 108.215, 113.790 109.446, 111.947 111.271, 109.865 113.352, 108.040 115.654, 106.501 118.137, 105.276 120.758, 104.386 123.474, 103.845 126.237, 103.663 129.000, 103.844 131.715, 104.384 134.338, 105.273 136.821, 106.498 139.124, 108.036 141.206, 109.862 143.032, 111.943 144.158, 113.628 144.279, 113.809 144.571, 114.246 144.572, 114.250 145.069, 115.256 145.460, 116.049 145.795, 116.730 146.216, 117.969 146.309, 118.242 146.390, 118.482 146.685, 119.352 147.226, 122.068 147.406, 124.831 147.225, 127.594 146.685, 130.310 146.389, 131.180 146.308, 131.420 146.215, 131.692 145.794, 132.932 145.459, 133.612 145.231, 134.074 144.990, 134.561 144.948, 134.647 144.804, 134.939 144.569, 135.415 143.030, 137.717 141.204, 139.799 139.122, 141.624 136.820, 143.162 134.336, 144.386 131.714, 145.275 128.999, 145.815 " />
            <path fill="none" stroke-width="3.0" stroke-linecap="butt" stroke-opacity="1.0" stroke="rgb(0, 0, 0)" stroke-linejoin="round" d=" M 159.110, 104.576 158.725, 104.809 158.725, 106.108 158.725, 106.857 158.724, 111.094 158.723, 121.094 158.722, 131.094 158.721, 138.566 158.720, 140.759 158.720, 141.445 158.720, 142.634 160.307, 143.511 " />
            <path fill="none" stroke-width="3.0" stroke-linecap="butt" stroke-opacity="1.0" stroke="rgb(0, 0, 0)" stroke-linejoin="round" d=" M 92.370, 143.180 93.376, 142.624 93.376, 141.435 93.376, 140.749 93.375, 137.500 93.374, 127.500 93.373, 117.500 93.372, 112.160 93.372, 106.867 93.372, 106.118 93.372, 105.114 " />
            <path fill="none" stroke-width="3.0" stroke-linecap="butt" stroke-opacity="1.0" stroke="rgb(0, 0, 0)" stroke-linejoin="round" d=" M 128.068, 139.150 126.171, 139.274 124.275, 139.149 122.411, 138.778 120.612, 138.167 118.907, 137.327 117.327, 136.271 115.899, 135.018 114.646, 133.589 113.590, 132.009 112.750, 130.304 112.139, 128.505 111.768, 126.641 111.644, 124.745 111.768, 122.849 112.138, 120.985 112.749, 119.185 113.590, 117.481 114.645, 115.900 115.898, 114.471 117.327, 113.218 118.907, 112.162 120.611, 111.321 122.411, 110.710 124.275, 110.339 126.172, 110.215 128.068, 110.339 129.932, 110.709 131.732, 111.320 133.437, 112.161 135.018, 113.217 136.447, 114.470 137.700, 115.899 138.756, 117.479 139.597, 119.184 140.208, 120.984 140.579, 122.848 140.703, 124.745 140.579, 126.642 140.208, 128.506 139.596, 130.306 138.756, 132.010 137.699, 133.591 136.446, 135.019 135.017, 136.272 133.436, 137.328 131.732, 138.169 129.932, 138.779 128.068, 139.150 " />
            <path fill="none" stroke-width="3.0" stroke-linecap="butt" stroke-opacity="1.0" stroke="rgb(0, 0, 0)" stroke-linejoin="round" d=" M 128.443, 141.838 126.198, 141.985 123.952, 141.837 121.745, 141.398 119.614, 140.674 117.596, 139.679 115.725, 138.428 114.033, 136.944 112.549, 135.252 111.299, 133.381 110.304, 131.363 109.580, 129.232 109.141, 127.025 108.994, 124.780 109.141, 122.534 109.580, 120.327 110.303, 118.196 111.298, 116.177 112.548, 114.306 114.032, 112.614 115.724, 111.130 117.595, 109.879 119.613, 108.883 121.744, 108.159 123.952, 107.720 126.198, 107.572 128.444, 107.719 130.652, 108.158 132.783, 108.881 134.802, 109.877 136.674, 111.127 138.366, 112.611 139.851, 114.304 141.101, 116.175 142.097, 118.194 142.820, 120.326 143.093, 121.698 143.260, 122.533 143.407, 124.780 143.259, 127.026 143.093, 127.861 142.820, 129.234 142.096, 131.365 141.100, 133.384 139.849, 135.255 138.365, 136.947 136.673, 138.431 134.801, 139.681 132.782, 140.676 130.651, 141.399 128.443, 141.838 " />
            <path fill="none" stroke-width="3.0" stroke-linecap="butt" stroke-opacity="1.0" stroke="rgb(0, 0, 0)" stroke-linejoin="round" d=" M 88.740, 133.251 88.738, 123.251 88.737, 116.862 " />
            <path fill="none" stroke-width="3.0" stroke-linecap="butt" stroke-opacity="1.0" stroke="rgb(0, 0, 0)" stroke-linejoin="round" d=" M 89.386, 135.900 89.384, 125.900 89.383, 115.900 89.383, 114.213 " />
            <path fill="none" stroke-width="3.0" stroke-linecap="butt" stroke-opacity="1.0" stroke="rgb(0, 0, 0)" stroke-linejoin="round" d=" M 100.979, 135.265 100.978, 125.265 100.977, 115.265 100.977, 114.556 " />
            <path fill="none" stroke-width="3.0" stroke-linecap="butt" stroke-opacity="1.0" stroke="rgb(0, 0, 0)" stroke-linejoin="round" d=" M 105.770, 130.178 105.769, 120.178 105.769, 119.483 " />
            <path fill="none" stroke-width="3.0" stroke-linecap="butt" stroke-opacity="1.0" stroke="rgb(0, 0, 0)" stroke-linejoin="round" d=" M 143.093, 121.698 143.093, 127.861 " />
            <path fill="none" stroke-width="3.0" stroke-linecap="butt" stroke-opacity="1.0" stroke="rgb(0, 0, 0)" stroke-linejoin="round" d=" M 146.309, 118.242 146.308, 128.242 146.308, 131.420 " />
            <path fill="none" stroke-width="3.0" stroke-linecap="butt" stroke-opacity="1.0" stroke="rgb(0, 0, 0)" stroke-linejoin="round" d=" M 151.107, 113.459 151.106, 123.459 151.105, 133.459 151.105, 136.363 " />
            <path fill="none" stroke-width="3.0" stroke-linecap="butt" stroke-opacity="1.0" stroke="rgb(0, 0, 0)" stroke-linejoin="round" d=" M 153.392, 128.713 153.393, 121.110 " />
            <path fill="none" stroke-width="3.0" stroke-linecap="butt" stroke-opacity="1.0" stroke="rgb(0, 0, 0)" stroke-linejoin="round" d=" M 162.717, 138.073 162.719, 128.073 162.720, 118.073 162.721, 112.041 " />
            <path fill="none" stroke-width="3.0" stroke-linecap="butt" stroke-opacity="1.0" stroke="rgb(0, 0, 0)" stroke-linejoin="round" d=" M 163.367, 113.945 163.366, 123.945 163.365, 133.945 163.364, 136.168 " />
        </g>
    </g>
</svg>
