<?xml version='1.0' encoding='ascii'?>
<svg xmlns="http://www.w3.org/2000/svg" version="1.1" width="250" height="250">
    <g id="ViewLayer_LineSet" xmlns:inkscape="http://www.inkscape.org/namespaces/inkscape" inkscape:groupmode="lineset" inkscape:label="ViewLayer_LineSet">
        <g xmlns:inkscape="http://www.inkscape.org/namespaces/inkscape" inkscape:groupmode="layer" id="strokes" inkscape:label="strokes">
            <path fill="none" stroke-width="3.0" stroke-linecap="butt" stroke-opacity="1.0" stroke="rgb(0, 0, 0)" stroke-linejoin="round" d=" M 69.053, 155.691 70.008, 157.628 74.740, 164.712 80.356, 171.118 86.760, 176.737 93.843, 181.473 101.484, 185.245 109.551, 187.987 117.908, 189.654 126.412, 190.216 134.917, 189.664 143.277, 188.006 151.351, 185.271 158.999, 181.505 166.090, 176.773 172.504, 171.155 178.129, 164.747 182.871, 157.660 183.827, 155.722 " />
            <path fill="none" stroke-width="3.0" stroke-linecap="butt" stroke-opacity="1.0" stroke="rgb(0, 0, 0)" stroke-linejoin="round" d=" M 131.515, 163.826 126.412, 164.159 121.309, 163.823 116.294, 162.823 111.452, 161.178 106.867, 158.916 102.616, 156.074 98.772, 152.702 95.402, 148.858 92.561, 144.606 91.968, 143.403 91.661, 142.781 90.300, 140.021 89.277, 137.008 89.025, 136.265 88.657, 135.179 88.367, 133.722 87.659, 130.165 87.324, 125.063 87.657, 119.961 88.364, 116.404 88.654, 114.946 89.022, 113.860 89.274, 113.117 90.296, 110.103 91.710, 107.235 92.203, 106.234 92.335, 105.967 92.557, 105.517 93.086, 104.725 95.397, 101.264 98.767, 97.418 102.611, 94.045 106.863, 91.202 111.449, 88.938 116.292, 87.292 121.308, 86.293 126.412, 85.956 131.517, 86.289 136.535, 87.286 141.380, 88.929 145.969, 91.191 150.223, 94.032 154.071, 97.405 157.445, 101.252 159.506, 104.337 159.706, 104.635 160.287, 105.506 162.550, 110.095 162.827, 110.910 163.082, 111.660 163.741, 113.603 164.195, 114.940 165.193, 119.958 165.527, 125.063 165.191, 130.169 164.192, 135.186 163.738, 136.522 163.078, 138.465 162.823, 139.215 162.546, 140.030 161.183, 142.792 160.717, 143.738 160.282, 144.618 157.439, 148.871 154.065, 152.716 150.218, 156.087 145.964, 158.927 141.375, 161.188 136.532, 162.830 131.515, 163.826 " />
            <path fill="none" stroke-width="3.0" stroke-linecap="butt" stroke-opacity="1.0" stroke="rgb(0, 0, 0)" stroke-linejoin="round" d=" M 181.816, 90.861 178.145, 85.368 172.520, 78.956 166.106, 73.334 159.013, 68.598 151.363, 64.829 143.286, 62.092 134.922, 60.432 126.413, 59.879 117.905, 60.441 109.544, 62.110 101.473, 64.855 93.830, 68.629 86.746, 73.369 80.341, 78.992 74.726, 85.402 70.850, 91.208 " />
            <path fill="none" stroke-width="3.0" stroke-linecap="butt" stroke-opacity="1.0" stroke="rgb(0, 0, 0)" stroke-linejoin="round" d=" M 27.778, 178.918 29.181, 181.764 34.735, 190.079 37.362, 194.014 43.953, 201.534 47.072, 205.093 54.587, 211.689 58.144, 214.811 66.455, 220.372 70.390, 223.004 79.355, 227.433 83.600, 229.530 93.067, 232.751 97.550, 234.277 107.357, 236.237 112.002, 237.165 121.980, 237.828 126.709, 238.143 136.688, 237.499 141.420, 237.193 151.230, 235.253 155.883, 234.332 165.355, 231.128 169.850, 229.607 178.824, 225.194 183.083, 223.099 191.404, 217.552 195.355, 214.917 202.880, 208.331 206.455, 205.202 213.056, 197.690 216.193, 194.120 221.756, 185.810 224.401, 181.859 225.529, 179.577 " />
            <path fill="none" stroke-width="3.0" stroke-linecap="butt" stroke-opacity="1.0" stroke="rgb(0, 0, 0)" stroke-linejoin="round" d=" M 135.465, 192.099 126.688, 192.669 117.911, 192.089 109.286, 190.369 100.960, 187.538 93.075, 183.646 85.765, 178.758 79.156, 172.958 73.360, 166.347 68.476, 159.035 67.455, 156.965 67.246, 156.541 66.827, 155.690 66.123, 154.263 64.588, 151.150 63.245, 147.195 61.761, 142.824 61.529, 141.659 60.045, 134.201 59.468, 125.427 60.040, 116.653 61.521, 109.194 61.753, 108.028 63.235, 103.656 64.576, 99.700 67.854, 93.045 68.208, 92.327 68.462, 91.811 69.310, 90.540 73.345, 84.496 79.140, 77.880 85.750, 72.076 93.061, 67.184 100.949, 63.289 109.279, 60.455 117.908, 58.734 126.689, 58.153 135.470, 58.724 144.103, 60.436 152.439, 63.262 160.335, 67.152 167.655, 72.040 174.275, 77.842 180.081, 84.459 183.943, 90.238 184.123, 90.507 184.972, 91.778 185.311, 92.464 188.866, 99.674 188.926, 99.848 190.644, 104.911 191.696, 108.010 193.412, 116.644 193.986, 125.428 193.407, 134.212 191.687, 142.845 190.634, 145.942 188.913, 151.004 188.854, 151.178 187.063, 154.806 186.610, 155.722 186.190, 156.574 185.705, 157.555 184.958, 159.070 180.064, 166.385 174.258, 172.998 167.639, 178.796 160.320, 183.680 152.426, 187.566 144.094, 190.388 135.465, 192.099 " />
            <path fill="none" stroke-width="3.0" stroke-linecap="butt" stroke-opacity="1.0" stroke="rgb(0, 0, 0)" stroke-linejoin="round" d=" M 222.577, 66.242 217.020, 57.928 216.239, 56.760 209.644, 49.244 206.503, 45.666 198.982, 39.076 195.402, 35.939 187.084, 30.388 183.125, 27.746 174.153, 23.329 169.885, 21.227 160.413, 18.020 155.907, 16.495 146.098, 14.552 141.433, 13.629 131.454, 12.984 126.711, 12.677 116.733, 13.341 111.992, 13.657 102.186, 15.617 97.529, 16.549 88.063, 19.773 83.569, 21.303 74.605, 25.736 70.351, 27.839 62.042, 33.403 58.100, 36.042 50.588, 42.643 47.026, 45.773 40.440, 53.297 37.318, 56.864 31.770, 65.183 30.626, 66.898 " />
            <path fill="none" stroke-width="3.0" stroke-linecap="butt" stroke-opacity="1.0" stroke="rgb(0, 0, 0)" stroke-linejoin="round" d=" M 183.943, 90.507 182.402, 90.507 181.816, 90.861 173.488, 95.892 173.487, 98.503 173.487, 98.865 173.485, 108.865 173.484, 118.865 173.482, 128.865 173.480, 138.865 173.478, 148.074 173.478, 148.405 173.478, 150.794 182.229, 155.633 182.388, 155.721 183.827, 155.722 183.929, 155.722 " />
            <path fill="none" stroke-width="3.0" stroke-linecap="butt" stroke-opacity="1.0" stroke="rgb(0, 0, 0)" stroke-linejoin="round" d=" M 182.388, 155.721 182.390, 145.721 182.392, 135.721 182.395, 125.721 182.397, 115.721 182.399, 105.721 182.401, 95.721 182.402, 91.737 182.402, 90.507 " />
            <path fill="none" stroke-width="3.0" stroke-linecap="butt" stroke-opacity="1.0" stroke="rgb(0, 0, 0)" stroke-linejoin="round" d=" M 68.221, 155.691 69.053, 155.691 69.758, 155.691 78.508, 150.850 78.647, 150.773 78.647, 148.385 78.647, 148.053 78.645, 138.053 78.643, 128.053 78.642, 118.053 78.640, 108.053 78.638, 98.887 78.638, 98.524 78.638, 95.915 70.850, 91.208 69.745, 90.540 69.310, 90.540 " />
            <path fill="none" stroke-width="3.0" stroke-linecap="butt" stroke-opacity="1.0" stroke="rgb(0, 0, 0)" stroke-linejoin="round" d=" M 69.758, 155.691 69.756, 145.691 69.754, 135.691 69.752, 125.691 69.750, 115.691 69.748, 105.691 69.746, 95.691 69.745, 92.997 69.745, 90.540 " />
            <path fill="none" stroke-width="3.0" stroke-linecap="butt" stroke-opacity="1.0" stroke="rgb(0, 0, 0)" stroke-linejoin="round" d=" M 67.455, 156.965 68.221, 156.541 68.221, 155.691 68.220, 154.003 68.220, 153.223 68.218, 143.223 68.216, 133.223 68.214, 123.223 68.212, 113.223 68.210, 103.223 68.208, 96.117 68.208, 93.237 68.208, 92.327 " />
            <path fill="none" stroke-width="3.0" stroke-linecap="butt" stroke-opacity="1.0" stroke="rgb(0, 0, 0)" stroke-linejoin="round" d=" M 183.943, 90.238 183.943, 90.507 183.943, 93.204 183.942, 94.605 183.940, 104.605 183.938, 114.605 183.936, 124.605 183.934, 134.605 183.932, 144.605 183.930, 153.253 183.929, 155.515 183.929, 155.722 183.929, 156.573 185.705, 157.555 " />
            <path fill="none" stroke-width="3.0" stroke-linecap="butt" stroke-opacity="1.0" stroke="rgb(0, 0, 0)" stroke-linejoin="round" d=" M -66.587, 231.129 -57.837, 226.288 -49.087, 221.446 -40.337, 216.605 -31.587, 211.764 -22.837, 206.923 -14.087, 202.081 -5.337, 197.240 1.070, 193.695 1.069, 189.837 1.067, 186.523 1.063, 176.523 1.058, 166.523 1.053, 156.523 1.049, 146.523 1.044, 136.523 1.040, 126.523 1.035, 116.523 1.031, 106.523 1.026, 96.523 1.022, 86.523 1.017, 76.523 1.013, 66.523 1.008, 56.837 1.006, 53.214 1.005, 48.996 -7.554, 43.823 -16.112, 38.651 -24.671, 33.478 -33.229, 28.306 -41.787, 23.134 -50.346, 17.961 -58.904, 12.789 -60.287, 11.953 " />
            <path fill="none" stroke-width="3.0" stroke-linecap="butt" stroke-opacity="1.0" stroke="rgb(0, 0, 0)" stroke-linejoin="round" d=" M 1.069, 189.837 8.036, 189.841 16.786, 185.000 25.536, 180.159 27.778, 178.918 36.527, 174.077 41.349, 171.410 41.346, 161.410 41.342, 151.410 41.339, 141.410 41.336, 131.410 41.333, 121.410 41.330, 111.410 41.327, 101.410 41.324, 91.410 41.321, 81.410 41.319, 73.360 32.760, 68.188 30.626, 66.898 22.068, 61.726 13.509, 56.553 7.977, 53.210 1.006, 53.214 " />
            <path fill="none" stroke-width="3.0" stroke-linecap="butt" stroke-opacity="1.0" stroke="rgb(0, 0, 0)" stroke-linejoin="round" d=" M 8.036, 189.841 8.032, 179.841 8.027, 169.841 8.023, 159.841 8.019, 149.841 8.014, 139.841 8.010, 129.841 8.006, 119.841 8.002, 109.841 7.997, 99.841 7.993, 89.841 7.989, 79.841 7.984, 69.841 7.980, 59.841 7.977, 53.210 " />
            <path fill="none" stroke-width="3.0" stroke-linecap="butt" stroke-opacity="1.0" stroke="rgb(0, 0, 0)" stroke-linejoin="round" d=" M 251.395, 53.062 244.391, 53.066 235.831, 58.236 227.272, 63.406 222.577, 66.242 214.017, 71.412 210.914, 73.286 210.911, 83.286 210.907, 93.286 210.904, 103.286 210.901, 113.286 210.898, 123.286 210.895, 133.286 210.892, 143.286 210.888, 153.286 210.885, 163.286 210.883, 171.478 219.634, 176.317 225.529, 179.577 234.281, 184.416 243.032, 189.255 244.331, 189.973 251.331, 189.977 " />
            <path fill="none" stroke-width="3.0" stroke-linecap="butt" stroke-opacity="1.0" stroke="rgb(0, 0, 0)" stroke-linejoin="round" d=" M 244.331, 189.973 244.335, 179.973 244.340, 169.973 244.344, 159.973 244.348, 149.973 244.353, 139.973 244.357, 129.973 244.362, 119.973 244.366, 109.973 244.370, 99.973 244.375, 89.973 244.379, 79.973 244.384, 69.973 244.388, 59.973 244.391, 53.066 " />
            <path fill="none" stroke-width="3.0" stroke-linecap="butt" stroke-opacity="1.0" stroke="rgb(0, 0, 0)" stroke-linejoin="round" d=" M 129.902, 152.275 126.299, 152.510 122.697, 152.274 119.157, 151.569 115.740, 150.408 112.503, 148.811 109.502, 146.805 106.788, 144.425 104.409, 141.711 102.404, 138.710 101.928, 137.745 101.449, 136.773 101.393, 136.660 100.811, 135.481 100.808, 135.473 99.647, 132.055 99.435, 130.986 98.943, 128.516 98.707, 124.914 98.942, 121.312 99.433, 118.842 99.646, 117.772 100.806, 114.354 100.810, 114.347 101.391, 113.167 101.645, 112.651 102.152, 111.623 102.192, 111.542 102.287, 111.349 102.355, 111.211 102.402, 111.117 102.801, 110.518 104.406, 108.115 106.786, 105.400 109.499, 103.020 112.500, 101.013 115.738, 99.416 119.156, 98.255 122.697, 97.549 126.300, 97.312 129.903, 97.548 133.444, 98.251 136.863, 99.411 140.102, 101.008 143.105, 103.014 145.820, 105.394 148.201, 108.109 149.656, 110.286 149.891, 110.637 150.207, 111.111 150.254, 111.206 150.322, 111.343 150.346, 111.392 150.437, 111.576 150.691, 112.092 151.275, 113.276 151.805, 114.350 152.652, 116.845 152.965, 117.769 153.593, 120.925 153.669, 121.311 153.905, 124.914 153.669, 128.518 153.592, 128.903 152.964, 132.059 152.650, 132.983 151.802, 135.478 151.273, 136.552 151.068, 136.967 150.681, 137.750 150.205, 138.716 148.198, 141.718 145.817, 144.432 143.102, 146.811 140.099, 148.816 136.861, 150.412 133.442, 151.572 129.902, 152.275 " />
            <path fill="none" stroke-width="3.0" stroke-linecap="butt" stroke-opacity="1.0" stroke="rgb(0, 0, 0)" stroke-linejoin="round" d=" M 129.018, 145.953 126.238, 146.135 123.457, 145.952 120.725, 145.408 118.086, 144.512 115.587, 143.279 113.271, 141.731 111.176, 139.894 109.339, 137.799 107.792, 135.483 107.468, 134.826 107.402, 134.693 107.359, 134.606 107.076, 134.032 106.921, 133.717 106.559, 132.984 106.517, 132.859 105.764, 130.640 105.664, 130.345 105.660, 130.328 105.588, 129.966 105.120, 127.613 104.938, 124.833 105.120, 122.052 105.587, 119.699 105.659, 119.338 105.663, 119.320 105.763, 119.025 106.516, 116.806 106.558, 116.681 106.920, 115.948 107.708, 114.349 107.778, 114.206 107.790, 114.182 107.865, 114.070 108.099, 113.720 109.338, 111.865 111.175, 109.770 113.270, 107.932 115.586, 106.383 118.085, 105.150 120.724, 104.254 123.457, 103.710 126.238, 103.527 129.019, 103.709 131.753, 104.252 134.392, 105.148 136.892, 106.380 139.209, 107.928 141.305, 109.766 143.143, 111.861 144.288, 113.575 144.367, 113.694 144.691, 114.179 144.703, 114.203 145.155, 115.119 145.561, 115.941 145.924, 116.678 146.314, 117.826 146.418, 118.134 146.489, 118.343 146.820, 119.318 147.364, 122.052 147.546, 124.833 147.363, 127.614 146.819, 130.347 146.488, 131.322 146.417, 131.531 146.312, 131.840 145.923, 132.987 145.559, 133.723 145.356, 134.136 145.122, 134.609 145.079, 134.696 144.926, 135.006 144.690, 135.486 143.141, 137.803 141.303, 139.898 139.208, 141.735 136.890, 143.283 134.390, 144.515 131.752, 145.410 129.018, 145.953 " />
            <path fill="none" stroke-width="3.0" stroke-linecap="butt" stroke-opacity="1.0" stroke="rgb(0, 0, 0)" stroke-linejoin="round" d=" M 159.506, 104.337 159.011, 104.636 159.011, 105.957 159.011, 106.702 159.010, 111.155 159.009, 121.155 159.008, 131.155 159.007, 138.510 159.007, 140.901 159.007, 141.583 159.006, 142.792 160.717, 143.738 " />
            <path fill="none" stroke-width="3.0" stroke-linecap="butt" stroke-opacity="1.0" stroke="rgb(0, 0, 0)" stroke-linejoin="round" d=" M 91.968, 143.403 93.090, 142.782 93.090, 141.573 93.090, 140.891 93.089, 137.370 93.088, 127.370 93.087, 117.370 93.087, 112.294 93.086, 106.713 93.086, 105.967 93.086, 104.725 " />
            <path fill="none" stroke-width="3.0" stroke-linecap="butt" stroke-opacity="1.0" stroke="rgb(0, 0, 0)" stroke-linejoin="round" d=" M 128.077, 139.215 126.172, 139.340 124.267, 139.214 122.395, 138.842 120.588, 138.228 118.876, 137.384 117.289, 136.323 115.853, 135.064 114.595, 133.629 113.535, 132.042 112.690, 130.330 112.077, 128.523 111.704, 126.650 111.579, 124.746 111.704, 122.841 112.076, 120.969 112.690, 119.161 113.534, 117.449 114.594, 115.862 115.853, 114.426 117.288, 113.168 118.875, 112.107 120.587, 111.262 122.395, 110.648 124.267, 110.276 126.172, 110.151 128.077, 110.275 129.950, 110.647 131.758, 111.261 133.470, 112.105 135.058, 113.166 136.493, 114.425 137.752, 115.860 138.813, 117.448 139.658, 119.160 140.271, 120.968 140.644, 122.841 140.769, 124.746 140.644, 126.651 140.271, 128.524 139.657, 130.331 138.812, 132.044 137.752, 133.631 136.493, 135.066 135.057, 136.325 133.469, 137.385 131.757, 138.229 129.949, 138.843 128.077, 139.215 " />
            <path fill="none" stroke-width="3.0" stroke-linecap="butt" stroke-opacity="1.0" stroke="rgb(0, 0, 0)" stroke-linejoin="round" d=" M 128.456, 141.929 126.199, 142.077 123.941, 141.929 121.722, 141.487 119.580, 140.760 117.551, 139.759 115.670, 138.502 113.969, 137.010 112.478, 135.309 111.221, 133.428 110.220, 131.399 109.493, 129.257 109.052, 127.038 108.904, 124.781 109.052, 122.523 109.493, 120.304 110.220, 118.162 111.220, 116.133 112.477, 114.252 113.968, 112.550 115.669, 111.058 117.550, 109.801 119.579, 108.800 121.722, 108.072 123.941, 107.631 126.199, 107.482 128.457, 107.630 130.676, 108.071 132.819, 108.798 134.849, 109.799 136.730, 111.056 138.432, 112.548 139.924, 114.249 141.181, 116.131 142.182, 118.160 142.909, 120.303 143.171, 121.620 143.351, 122.523 143.499, 124.781 143.350, 127.039 143.171, 127.942 142.909, 129.258 142.181, 131.401 141.180, 133.430 139.923, 135.312 138.430, 137.013 136.729, 138.504 134.847, 139.761 132.818, 140.761 130.675, 141.488 128.456, 141.929 " />
            <path fill="none" stroke-width="3.0" stroke-linecap="butt" stroke-opacity="1.0" stroke="rgb(0, 0, 0)" stroke-linejoin="round" d=" M 88.367, 133.722 88.365, 123.722 88.364, 116.404 " />
            <path fill="none" stroke-width="3.0" stroke-linecap="butt" stroke-opacity="1.0" stroke="rgb(0, 0, 0)" stroke-linejoin="round" d=" M 89.025, 136.265 89.024, 126.265 89.023, 116.265 89.022, 113.860 " />
            <path fill="none" stroke-width="3.0" stroke-linecap="butt" stroke-opacity="1.0" stroke="rgb(0, 0, 0)" stroke-linejoin="round" d=" M 100.811, 135.481 100.811, 125.481 100.810, 115.481 100.810, 114.347 " />
            <path fill="none" stroke-width="3.0" stroke-linecap="butt" stroke-opacity="1.0" stroke="rgb(0, 0, 0)" stroke-linejoin="round" d=" M 105.660, 130.328 105.659, 120.328 105.659, 119.338 " />
            <path fill="none" stroke-width="3.0" stroke-linecap="butt" stroke-opacity="1.0" stroke="rgb(0, 0, 0)" stroke-linejoin="round" d=" M 143.171, 121.620 143.171, 127.942 " />
            <path fill="none" stroke-width="3.0" stroke-linecap="butt" stroke-opacity="1.0" stroke="rgb(0, 0, 0)" stroke-linejoin="round" d=" M 146.418, 118.134 146.418, 128.134 146.417, 131.531 " />
            <path fill="none" stroke-width="3.0" stroke-linecap="butt" stroke-opacity="1.0" stroke="rgb(0, 0, 0)" stroke-linejoin="round" d=" M 151.275, 113.276 151.274, 123.276 151.273, 133.276 151.273, 136.552 " />
            <path fill="none" stroke-width="3.0" stroke-linecap="butt" stroke-opacity="1.0" stroke="rgb(0, 0, 0)" stroke-linejoin="round" d=" M 153.592, 128.903 153.593, 120.925 " />
            <path fill="none" stroke-width="3.0" stroke-linecap="butt" stroke-opacity="1.0" stroke="rgb(0, 0, 0)" stroke-linejoin="round" d=" M 163.078, 138.465 163.080, 128.465 163.081, 118.465 163.082, 111.660 " />
            <path fill="none" stroke-width="3.0" stroke-linecap="butt" stroke-opacity="1.0" stroke="rgb(0, 0, 0)" stroke-linejoin="round" d=" M 163.741, 113.603 163.740, 123.603 163.739, 133.603 163.738, 136.522 " />
        </g>
    </g>
</svg>
