<?xml version='1.0' encoding='ascii'?>
<svg xmlns="http://www.w3.org/2000/svg" version="1.1" width="250" height="250">
    <g id="ViewLayer_LineSet" xmlns:inkscape="http://www.inkscape.org/namespaces/inkscape" inkscape:groupmode="lineset" inkscape:label="ViewLayer_LineSet">
        <g xmlns:inkscape="http://www.inkscape.org/namespaces/inkscape" inkscape:groupmode="layer" id="strokes" inkscape:label="strokes">
            <path fill="none" stroke-width="3.0" stroke-linecap="butt" stroke-opacity="1.0" stroke="rgb(0, 0, 0)" stroke-linejoin="round" d=" M 229.931, 64.731 225.073, 64.734 216.513, 69.904 211.309, 73.047 202.750, 78.217 200.497, 79.578 200.495, 89.578 200.492, 99.578 200.489, 109.578 200.486, 119.578 200.483, 129.578 200.481, 139.578 200.478, 149.578 200.475, 159.578 200.473, 165.722 209.225, 170.561 213.921, 173.158 222.672, 177.997 225.031, 179.301 229.887, 179.303 " />
            <path fill="none" stroke-width="3.0" stroke-linecap="butt" stroke-opacity="1.0" stroke="rgb(0, 0, 0)" stroke-linejoin="round" d=" M 225.031, 179.301 225.035, 169.301 225.038, 159.301 225.042, 149.301 225.045, 140.373 225.049, 130.373 225.053, 120.373 225.056, 110.331 225.060, 100.331 225.064, 90.331 225.067, 80.331 225.071, 70.331 225.073, 64.734 " />
            <path fill="none" stroke-width="3.0" stroke-linecap="butt" stroke-opacity="1.0" stroke="rgb(0, 0, 0)" stroke-linejoin="round" d=" M 22.417, 179.206 27.253, 179.209 36.003, 174.367 39.223, 172.586 47.973, 167.744 51.724, 165.669 51.721, 155.669 51.718, 145.669 51.715, 135.669 51.713, 125.669 51.710, 115.669 51.707, 105.669 51.705, 95.669 51.702, 85.669 51.700, 79.635 43.142, 74.462 41.744, 73.617 33.186, 68.445 27.212, 64.835 22.374, 64.837 " />
            <path fill="none" stroke-width="3.0" stroke-linecap="butt" stroke-opacity="1.0" stroke="rgb(0, 0, 0)" stroke-linejoin="round" d=" M 27.253, 179.209 27.249, 169.209 27.246, 159.209 27.242, 149.209 27.239, 139.209 27.235, 129.209 27.234, 126.997 27.233, 123.705 27.229, 113.705 27.226, 103.705 27.222, 93.705 27.219, 83.705 27.215, 73.705 27.212, 64.835 " />
            <path fill="none" stroke-width="3.0" stroke-linecap="butt" stroke-opacity="1.0" stroke="rgb(0, 0, 0)" stroke-linejoin="round" d=" M -32.263, 212.138 -23.513, 207.297 -14.763, 202.455 -6.013, 197.614 2.737, 192.773 11.487, 187.931 20.237, 183.090 22.418, 181.884 22.417, 179.206 22.416, 175.937 22.412, 165.937 22.408, 155.937 22.405, 145.937 22.401, 135.937 22.397, 125.937 22.393, 115.937 22.390, 105.937 22.386, 95.937 22.382, 85.937 22.378, 75.937 22.375, 68.411 22.374, 64.837 22.373, 61.910 13.815, 56.738 5.256, 51.565 -3.302, 46.393 -11.861, 41.220 -20.419, 36.048 -28.977, 30.876 -32.368, 28.826 " />
            <path fill="none" stroke-width="3.0" stroke-linecap="butt" stroke-opacity="1.0" stroke="rgb(0, 0, 0)" stroke-linejoin="round" d=" M 284.952, 28.567 276.393, 33.737 267.833, 38.907 259.273, 44.077 250.713, 49.247 242.153, 54.417 233.594, 59.587 229.932, 61.799 229.931, 64.731 229.929, 68.308 229.926, 78.308 229.922, 88.308 229.918, 98.308 229.914, 108.308 229.910, 118.308 229.906, 128.308 229.902, 138.308 229.899, 148.308 229.895, 158.308 229.891, 168.308 229.888, 176.031 229.887, 179.303 229.886, 181.985 238.637, 186.824 247.388, 191.664 256.139, 196.503 264.890, 201.342 273.641, 206.181 282.393, 211.020 284.844, 212.375 " />
            <path fill="none" stroke-width="3.0" stroke-linecap="butt" stroke-opacity="1.0" stroke="rgb(0, 0, 0)" stroke-linejoin="round" d=" M 39.223, 172.586 40.463, 175.100 46.017, 183.415 47.691, 185.922 54.283, 193.443 56.270, 195.710 63.786, 202.307 66.053, 204.296 74.365, 209.856 76.872, 211.533 85.838, 215.962 88.544, 217.298 98.011, 220.519 100.869, 221.491 110.676, 223.450 113.637, 224.041 123.615, 224.704 126.630, 224.904 136.609, 224.258 139.626, 224.063 149.435, 222.121 152.402, 221.534 161.874, 218.328 164.741, 217.359 173.714, 212.944 176.430, 211.608 184.750, 206.059 187.270, 204.379 194.794, 197.792 197.075, 195.796 203.674, 188.283 205.675, 186.005 211.238, 177.695 212.925, 175.174 213.921, 173.158 " />
            <path fill="none" stroke-width="3.0" stroke-linecap="butt" stroke-opacity="1.0" stroke="rgb(0, 0, 0)" stroke-linejoin="round" d=" M 134.397, 184.450 126.613, 184.956 118.831, 184.442 111.182, 182.917 103.798, 180.408 96.806, 176.956 90.323, 172.622 84.462, 167.479 79.322, 161.616 74.991, 155.133 73.992, 153.106 73.140, 151.378 72.904, 150.901 71.543, 148.139 69.036, 140.756 68.456, 137.841 67.514, 133.109 67.015, 125.509 67.003, 125.329 67.014, 125.148 67.511, 117.548 68.451, 112.815 69.030, 109.899 71.534, 102.514 73.130, 99.274 74.419, 96.657 74.441, 96.613 74.980, 95.518 75.843, 94.226 79.310, 89.032 84.450, 83.165 90.311, 78.019 96.795, 73.682 103.790, 70.228 111.176, 67.716 118.828, 66.190 126.614, 65.676 134.401, 66.182 142.055, 67.701 149.447, 70.207 156.448, 73.656 162.939, 77.991 168.808, 83.136 173.956, 89.003 177.101, 93.709 177.716, 94.630 178.293, 95.493 178.593, 96.101 179.009, 96.945 181.745, 102.493 183.696, 108.242 184.254, 109.885 185.138, 114.329 185.776, 117.541 186.285, 125.330 185.772, 133.118 185.133, 136.329 184.247, 140.772 183.689, 142.415 181.736, 148.162 180.148, 151.379 179.282, 153.132 178.997, 153.709 178.281, 155.160 173.942, 161.646 168.794, 167.510 162.925, 172.652 156.436, 176.983 149.437, 180.429 142.048, 182.933 134.397, 184.450 " />
            <path fill="none" stroke-width="3.0" stroke-linecap="butt" stroke-opacity="1.0" stroke="rgb(0, 0, 0)" stroke-linejoin="round" d=" M 211.309, 73.047 205.712, 64.673 199.116, 57.156 197.112, 54.872 189.591, 48.282 187.306, 46.280 178.989, 40.728 176.463, 39.042 167.492, 34.625 164.768, 33.284 155.296, 30.076 152.422, 29.102 142.612, 27.159 139.637, 26.569 129.657, 25.923 126.631, 25.727 116.653, 26.390 113.629, 26.591 103.823, 28.550 100.852, 29.144 91.386, 32.367 88.520, 33.343 79.555, 37.774 76.842, 39.115 68.532, 44.678 66.019, 46.361 58.506, 52.961 56.235, 54.956 49.648, 62.480 47.657, 64.753 42.108, 73.072 41.744, 73.617 " />
            <path fill="none" stroke-width="3.0" stroke-linecap="butt" stroke-opacity="1.0" stroke="rgb(0, 0, 0)" stroke-linejoin="round" d=" M 131.145, 161.173 126.386, 161.483 121.628, 161.170 116.952, 160.238 112.437, 158.705 108.161, 156.595 104.198, 153.945 100.613, 150.801 97.470, 147.217 94.822, 143.252 94.268, 142.130 94.102, 141.793 93.567, 140.708 93.546, 140.665 93.458, 140.487 92.713, 138.976 91.270, 134.726 91.265, 134.710 91.181, 134.462 90.684, 131.965 90.250, 129.786 89.938, 125.029 90.249, 120.271 90.682, 118.092 91.178, 115.595 91.262, 115.347 91.268, 115.331 92.710, 111.080 93.455, 109.569 94.488, 107.472 94.764, 106.912 94.818, 106.803 94.873, 106.721 97.466, 102.837 100.609, 99.251 104.193, 96.106 108.157, 93.455 112.434, 91.345 116.950, 89.810 121.627, 88.878 126.387, 88.565 131.146, 88.875 135.825, 89.805 140.342, 91.337 144.621, 93.446 148.588, 96.095 152.175, 99.240 155.321, 102.827 157.244, 105.703 157.253, 105.717 157.972, 106.793 158.026, 106.903 158.155, 107.165 158.640, 108.147 160.082, 111.072 160.830, 113.275 160.838, 113.298 161.419, 115.011 161.615, 115.590 162.546, 120.269 162.857, 125.029 162.545, 129.789 161.613, 134.468 161.416, 135.047 160.835, 136.759 160.827, 136.782 160.079, 138.985 158.688, 141.803 158.373, 142.442 157.968, 143.262 155.316, 147.228 152.170, 150.813 148.583, 153.957 144.617, 156.605 140.339, 158.713 135.822, 160.244 131.145, 161.173 " />
            <path fill="none" stroke-width="3.0" stroke-linecap="butt" stroke-opacity="1.0" stroke="rgb(0, 0, 0)" stroke-linejoin="round" d=" M 73.992, 153.106 74.429, 153.106 82.003, 148.916 82.003, 146.723 82.003, 146.389 82.001, 136.389 82.000, 126.389 81.998, 116.389 81.997, 106.389 81.996, 100.706 81.996, 100.340 81.995, 97.944 75.843, 94.226 " />
            <path fill="none" stroke-width="3.0" stroke-linecap="butt" stroke-opacity="1.0" stroke="rgb(0, 0, 0)" stroke-linejoin="round" d=" M 74.429, 153.106 74.428, 143.106 74.426, 133.106 74.424, 123.106 74.422, 113.106 74.420, 103.106 74.419, 96.657 " />
            <path fill="none" stroke-width="3.0" stroke-linecap="butt" stroke-opacity="1.0" stroke="rgb(0, 0, 0)" stroke-linejoin="round" d=" M 177.705, 153.132 177.707, 143.132 177.709, 133.132 177.711, 123.132 177.713, 113.132 177.715, 103.132 177.716, 94.630 " />
            <path fill="none" stroke-width="3.0" stroke-linecap="butt" stroke-opacity="1.0" stroke="rgb(0, 0, 0)" stroke-linejoin="round" d=" M 177.101, 93.709 170.123, 97.924 170.122, 100.322 170.122, 100.686 170.121, 110.686 170.119, 120.686 170.117, 130.686 170.116, 140.686 170.115, 146.406 170.115, 146.740 170.114, 148.934 177.705, 153.132 178.998, 153.132 " />
            <path fill="none" stroke-width="3.0" stroke-linecap="butt" stroke-opacity="1.0" stroke="rgb(0, 0, 0)" stroke-linejoin="round" d=" M 129.699, 150.822 126.285, 151.045 122.872, 150.820 119.518, 150.152 116.279, 149.052 113.212, 147.539 110.368, 145.639 107.797, 143.383 105.542, 140.812 103.643, 137.968 103.245, 137.163 103.033, 136.732 102.856, 136.374 102.798, 136.256 102.727, 136.112 102.437, 135.523 102.198, 135.040 102.130, 134.901 101.872, 134.141 101.031, 131.662 100.371, 128.346 100.363, 128.308 100.139, 124.895 100.363, 121.483 100.370, 121.445 101.029, 118.128 101.870, 115.649 102.128, 114.889 102.197, 114.750 102.435, 114.267 103.031, 113.057 103.404, 112.301 103.640, 111.821 103.671, 111.776 103.757, 111.647 104.019, 111.255 105.540, 108.977 107.795, 106.405 110.366, 104.149 113.210, 102.248 116.278, 100.734 119.517, 99.634 122.872, 98.966 126.286, 98.741 129.699, 98.964 133.055, 99.631 136.295, 100.730 139.364, 102.243 142.209, 104.144 144.782, 106.399 147.038, 108.972 148.417, 111.035 148.823, 111.642 148.909, 111.771 148.939, 111.817 149.050, 112.042 149.071, 112.083 149.646, 113.250 149.884, 113.733 150.213, 114.399 150.453, 114.885 151.552, 118.125 151.714, 118.936 152.220, 121.481 152.331, 123.184 152.443, 124.896 152.331, 126.607 152.219, 128.310 151.712, 130.855 151.551, 131.665 150.451, 134.905 150.211, 135.392 149.882, 136.057 149.724, 136.379 149.276, 137.285 148.937, 137.973 147.035, 140.818 144.779, 143.389 142.207, 145.644 139.362, 147.544 136.293, 149.057 133.054, 150.155 129.699, 150.822 " />
            <path fill="none" stroke-width="3.0" stroke-linecap="butt" stroke-opacity="1.0" stroke="rgb(0, 0, 0)" stroke-linejoin="round" d=" M 157.244, 105.703 157.221, 105.717 157.221, 106.903 157.221, 107.671 157.221, 110.815 157.219, 120.815 157.218, 130.815 157.217, 138.826 157.217, 140.014 157.217, 140.717 157.217, 141.802 158.373, 142.442 " />
            <path fill="none" stroke-width="3.0" stroke-linecap="butt" stroke-opacity="1.0" stroke="rgb(0, 0, 0)" stroke-linejoin="round" d=" M 94.268, 142.130 94.877, 141.793 94.876, 140.708 94.876, 140.005 94.876, 138.045 94.875, 128.045 94.874, 118.045 94.873, 111.596 94.873, 107.681 94.873, 106.912 94.873, 106.721 " />
            <path fill="none" stroke-width="3.0" stroke-linecap="butt" stroke-opacity="1.0" stroke="rgb(0, 0, 0)" stroke-linejoin="round" d=" M 128.896, 145.077 126.229, 145.251 123.563, 145.076 120.942, 144.554 118.412, 143.695 116.015, 142.513 113.794, 141.028 111.785, 139.266 110.023, 137.257 108.539, 135.035 108.209, 134.366 108.193, 134.334 107.925, 133.790 107.409, 132.745 107.357, 132.639 107.083, 131.832 106.498, 130.108 106.312, 129.173 106.276, 128.993 106.146, 128.338 105.977, 127.488 105.802, 124.821 105.976, 122.155 106.145, 121.304 106.276, 120.649 106.311, 120.470 106.497, 119.534 107.082, 117.811 107.356, 117.004 107.408, 116.898 108.043, 115.611 108.208, 115.276 108.353, 114.982 108.356, 114.974 108.435, 114.814 108.537, 114.607 108.629, 114.470 108.833, 114.164 110.022, 112.385 111.783, 110.375 113.792, 108.613 116.014, 107.128 118.411, 105.945 120.941, 105.086 123.562, 104.564 126.229, 104.389 128.897, 104.563 131.518, 105.084 134.049, 105.943 136.447, 107.125 138.669, 108.610 140.679, 110.372 142.442, 112.381 143.519, 113.993 143.718, 114.292 143.835, 114.467 143.867, 114.514 143.927, 114.604 144.029, 114.811 144.029, 114.812 144.031, 114.816 144.666, 116.104 144.994, 116.768 145.109, 117.001 145.764, 118.933 145.801, 119.042 145.931, 119.422 145.968, 119.533 146.490, 122.154 146.664, 124.821 146.489, 127.489 145.967, 130.110 145.930, 130.221 145.801, 130.601 145.764, 130.710 145.108, 132.641 144.993, 132.874 144.665, 133.539 144.540, 133.793 144.271, 134.337 144.230, 134.420 144.152, 134.578 143.925, 135.038 142.440, 137.260 140.677, 139.269 138.668, 141.031 136.445, 142.516 134.048, 143.697 131.517, 144.556 128.896, 145.077 " />
            <path fill="none" stroke-width="3.0" stroke-linecap="butt" stroke-opacity="1.0" stroke="rgb(0, 0, 0)" stroke-linejoin="round" d=" M 128.026, 138.847 126.169, 138.969 124.311, 138.847 122.486, 138.483 120.724, 137.885 119.055, 137.062 117.508, 136.028 116.109, 134.801 114.882, 133.402 113.848, 131.854 113.627, 131.407 113.493, 131.135 113.475, 131.099 113.353, 130.850 113.338, 130.819 113.286, 130.714 113.025, 130.185 112.837, 129.632 112.763, 129.414 112.720, 129.288 112.636, 129.039 112.427, 128.423 112.215, 127.360 112.064, 126.598 112.010, 125.777 111.942, 124.741 112.010, 123.705 112.064, 122.884 112.215, 122.122 112.426, 121.059 112.636, 120.442 112.720, 120.194 112.763, 120.068 112.837, 119.850 113.025, 119.297 113.285, 118.768 113.337, 118.663 113.641, 118.047 113.648, 118.032 113.719, 117.889 113.739, 117.846 113.821, 117.682 113.847, 117.627 113.992, 117.411 114.019, 117.371 114.053, 117.319 114.881, 116.080 116.108, 114.681 117.507, 113.453 119.055, 112.419 120.724, 111.596 122.486, 110.997 124.311, 110.634 126.169, 110.512 128.026, 110.634 129.852, 110.996 131.614, 111.595 133.284, 112.418 134.831, 113.452 136.231, 114.679 137.458, 116.078 138.208, 117.201 138.321, 117.369 138.348, 117.409 138.420, 117.518 138.492, 117.626 138.519, 117.680 138.731, 118.110 138.784, 118.217 139.232, 119.125 139.306, 119.276 139.316, 119.295 139.350, 119.396 139.434, 119.644 139.854, 120.882 139.914, 121.058 140.060, 121.795 140.259, 122.794 140.277, 122.884 140.399, 124.741 140.277, 126.598 140.259, 126.688 140.060, 127.687 139.914, 128.424 139.854, 128.601 139.433, 129.838 139.349, 130.086 139.315, 130.187 139.305, 130.206 139.231, 130.357 138.937, 130.954 138.865, 131.100 138.846, 131.137 138.783, 131.265 138.712, 131.408 138.492, 131.856 137.457, 133.403 136.230, 134.803 134.830, 136.030 133.283, 137.063 131.613, 137.886 129.851, 138.484 128.026, 138.847 " />
            <path fill="none" stroke-width="3.0" stroke-linecap="butt" stroke-opacity="1.0" stroke="rgb(0, 0, 0)" stroke-linejoin="round" d=" M 128.384, 141.415 126.194, 141.558 124.003, 141.415 121.850, 140.986 119.771, 140.280 117.802, 139.309 115.977, 138.089 114.326, 136.641 112.879, 134.991 111.659, 133.166 111.404, 132.649 111.358, 132.555 111.239, 132.313 111.072, 131.974 110.841, 131.507 110.731, 131.284 110.688, 131.197 110.387, 130.310 109.983, 129.118 109.909, 128.749 109.900, 128.702 109.554, 126.965 109.411, 124.774 109.554, 122.584 109.899, 120.846 109.909, 120.800 109.982, 120.430 110.387, 119.238 110.688, 118.351 110.731, 118.264 110.841, 118.041 111.085, 117.545 111.179, 117.354 111.506, 116.690 111.573, 116.556 111.594, 116.513 111.619, 116.462 111.658, 116.382 111.858, 116.084 112.878, 114.557 114.325, 112.906 115.976, 111.458 117.801, 110.238 119.770, 109.267 121.849, 108.560 124.003, 108.132 126.194, 107.988 128.385, 108.131 130.539, 108.559 132.618, 109.265 134.587, 110.236 136.413, 111.456 138.064, 112.903 139.512, 114.554 140.498, 116.029 140.533, 116.082 140.733, 116.380 140.772, 116.460 140.797, 116.511 140.817, 116.551 140.891, 116.702 140.985, 116.893 141.231, 117.391 141.341, 117.614 141.684, 118.310 141.704, 118.350 142.164, 119.705 142.172, 119.730 142.410, 120.429 142.733, 122.055 142.838, 122.583 142.981, 124.774 142.838, 126.965 142.733, 127.493 142.409, 129.119 142.172, 129.819 142.163, 129.843 141.703, 131.198 141.684, 131.238 141.340, 131.934 141.256, 132.104 141.230, 132.157 141.152, 132.315 141.033, 132.557 140.918, 132.790 140.732, 133.168 139.511, 134.993 138.063, 136.644 136.412, 138.091 134.586, 139.311 132.617, 140.282 130.538, 140.987 128.384, 141.415 " />
            <path fill="none" stroke-width="3.0" stroke-linecap="butt" stroke-opacity="1.0" stroke="rgb(0, 0, 0)" stroke-linejoin="round" d=" M 127.763, 136.965 126.150, 137.071 124.538, 136.965 122.953, 136.650 121.423, 136.130 119.973, 135.415 118.630, 134.517 117.415, 133.452 116.350, 132.237 115.452, 130.893 115.264, 130.513 115.248, 130.481 115.234, 130.451 115.134, 130.249 114.926, 129.828 114.737, 129.444 114.654, 129.200 114.551, 128.896 114.218, 127.914 114.206, 127.853 114.143, 127.540 114.139, 127.519 114.083, 127.238 113.902, 126.329 113.797, 124.717 113.902, 123.104 114.083, 122.195 114.139, 121.914 114.143, 121.893 114.205, 121.580 114.218, 121.519 114.551, 120.537 114.654, 120.234 114.737, 119.989 114.926, 119.606 115.322, 118.802 115.376, 118.692 115.451, 118.540 115.585, 118.339 115.630, 118.272 116.349, 117.196 117.414, 115.981 118.629, 114.915 119.973, 114.017 121.422, 113.303 122.953, 112.783 124.538, 112.467 126.150, 112.362 127.763, 112.467 129.348, 112.782 130.879, 113.302 132.328, 114.016 133.672, 114.914 134.887, 115.980 135.953, 117.195 136.604, 118.169 136.691, 118.299 136.717, 118.338 136.744, 118.379 136.851, 118.539 137.141, 119.127 137.414, 119.680 137.516, 119.887 137.566, 119.988 137.862, 120.862 137.924, 121.043 137.929, 121.058 137.984, 121.221 138.085, 121.519 138.401, 123.104 138.420, 123.401 138.427, 123.502 138.506, 124.717 138.427, 125.932 138.420, 126.032 138.400, 126.330 138.085, 127.915 137.984, 128.213 137.929, 128.376 137.924, 128.390 137.862, 128.571 137.565, 129.445 137.516, 129.546 137.413, 129.754 137.169, 130.250 137.141, 130.306 137.069, 130.452 137.054, 130.482 136.988, 130.616 136.850, 130.895 135.952, 132.238 134.887, 133.453 133.671, 134.519 132.328, 135.416 130.878, 136.131 129.348, 136.650 127.763, 136.965 " />
            <path fill="none" stroke-width="3.0" stroke-linecap="butt" stroke-opacity="1.0" stroke="rgb(0, 0, 0)" stroke-linejoin="round" d=" M 127.560, 135.516 126.136, 135.609 124.712, 135.516 123.312, 135.237 121.961, 134.778 120.681, 134.147 119.494, 133.354 118.421, 132.413 117.480, 131.340 116.687, 130.153 116.056, 128.873 115.742, 127.947 115.597, 127.522 115.376, 126.411 115.323, 126.140 115.319, 126.122 115.226, 124.698 115.319, 123.274 115.322, 123.256 115.376, 122.985 115.597, 121.874 115.742, 121.449 116.056, 120.523 116.687, 119.243 117.480, 118.056 118.421, 116.983 119.494, 116.042 120.680, 115.249 121.961, 114.617 123.312, 114.158 124.712, 113.880 126.136, 113.786 127.560, 113.880 128.960, 114.158 130.312, 114.617 131.592, 115.248 132.779, 116.041 133.852, 116.982 134.794, 118.055 135.587, 119.242 136.218, 120.522 136.325, 120.837 136.677, 121.874 136.690, 121.942 136.744, 122.213 136.955, 123.274 137.049, 124.698 136.955, 126.122 136.744, 127.183 136.690, 127.454 136.677, 127.522 136.324, 128.560 136.218, 128.874 135.586, 130.154 134.793, 131.341 133.852, 132.414 132.779, 133.355 131.592, 134.148 130.312, 134.779 128.960, 135.238 127.560, 135.516 " />
            <path fill="none" stroke-width="3.0" stroke-linecap="butt" stroke-opacity="1.0" stroke="rgb(0, 0, 0)" stroke-linejoin="round" d=" M 127.268, 133.427 126.116, 133.503 124.963, 133.427 123.830, 133.202 122.736, 132.830 121.700, 132.319 120.740, 131.677 119.871, 130.916 119.109, 130.047 118.468, 129.087 117.957, 128.051 117.585, 126.957 117.360, 125.824 117.285, 124.671 117.360, 123.518 117.585, 122.385 117.957, 121.292 118.467, 120.255 119.109, 119.295 119.871, 118.426 120.739, 117.665 121.700, 117.023 122.736, 116.512 123.830, 116.140 124.963, 115.915 126.116, 115.839 127.269, 115.915 128.402, 116.140 129.496, 116.511 130.532, 117.022 131.493, 117.664 132.361, 118.426 133.123, 119.294 133.765, 120.255 134.276, 121.291 134.647, 122.385 134.873, 123.518 134.948, 124.671 134.873, 125.824 134.647, 126.957 134.276, 128.051 133.765, 129.087 133.123, 130.048 132.361, 130.916 131.492, 131.678 130.532, 132.320 129.495, 132.831 128.401, 133.202 127.268, 133.427 " />
            <path fill="none" stroke-width="3.0" stroke-linecap="butt" stroke-opacity="1.0" stroke="rgb(0, 0, 0)" stroke-linejoin="round" d=" M 127.398, 134.354 126.125, 134.437 124.852, 134.353 123.600, 134.104 122.392, 133.694 121.248, 133.130 120.187, 132.421 119.228, 131.580 118.387, 130.621 117.678, 129.560 117.114, 128.416 116.704, 127.207 116.455, 125.956 116.371, 124.683 116.455, 123.410 116.704, 122.159 117.114, 120.951 117.678, 119.806 118.387, 118.745 119.228, 117.786 120.187, 116.945 121.248, 116.236 122.392, 115.671 123.600, 115.261 124.852, 115.012 126.125, 114.929 127.398, 115.012 128.650, 115.261 129.858, 115.671 131.002, 116.235 132.063, 116.944 133.023, 117.785 133.864, 118.745 134.573, 119.806 135.137, 120.950 135.547, 122.158 135.796, 123.410 135.880, 124.683 135.796, 125.956 135.547, 127.208 135.137, 128.416 134.573, 129.561 133.864, 130.621 133.022, 131.581 132.063, 132.422 131.002, 133.131 129.857, 133.695 128.649, 134.105 127.398, 134.354 " />
            <path fill="none" stroke-width="3.0" stroke-linecap="butt" stroke-opacity="1.0" stroke="rgb(0, 0, 0)" stroke-linejoin="round" d=" M 73.140, 151.378 73.140, 150.784 73.138, 140.784 73.136, 130.784 73.134, 120.784 73.132, 110.784 73.130, 100.784 73.130, 99.274 " />
            <path fill="none" stroke-width="3.0" stroke-linecap="butt" stroke-opacity="1.0" stroke="rgb(0, 0, 0)" stroke-linejoin="round" d=" M 90.684, 131.965 90.683, 121.965 90.682, 118.092 " />
            <path fill="none" stroke-width="3.0" stroke-linecap="butt" stroke-opacity="1.0" stroke="rgb(0, 0, 0)" stroke-linejoin="round" d=" M 91.265, 134.710 91.264, 124.710 91.262, 115.347 " />
            <path fill="none" stroke-width="3.0" stroke-linecap="butt" stroke-opacity="1.0" stroke="rgb(0, 0, 0)" stroke-linejoin="round" d=" M 101.872, 134.141 101.871, 124.141 101.870, 115.649 " />
            <path fill="none" stroke-width="3.0" stroke-linecap="butt" stroke-opacity="1.0" stroke="rgb(0, 0, 0)" stroke-linejoin="round" d=" M 106.276, 128.993 106.276, 120.649 " />
            <path fill="none" stroke-width="3.0" stroke-linecap="butt" stroke-opacity="1.0" stroke="rgb(0, 0, 0)" stroke-linejoin="round" d=" M 142.733, 122.055 142.733, 127.493 " />
            <path fill="none" stroke-width="3.0" stroke-linecap="butt" stroke-opacity="1.0" stroke="rgb(0, 0, 0)" stroke-linejoin="round" d=" M 145.801, 119.042 145.801, 129.042 145.801, 130.601 " />
            <path fill="none" stroke-width="3.0" stroke-linecap="butt" stroke-opacity="1.0" stroke="rgb(0, 0, 0)" stroke-linejoin="round" d=" M 150.213, 114.399 150.212, 124.399 150.211, 134.399 150.211, 135.392 " />
            <path fill="none" stroke-width="3.0" stroke-linecap="butt" stroke-opacity="1.0" stroke="rgb(0, 0, 0)" stroke-linejoin="round" d=" M 152.331, 126.607 152.331, 123.184 " />
            <path fill="none" stroke-width="3.0" stroke-linecap="butt" stroke-opacity="1.0" stroke="rgb(0, 0, 0)" stroke-linejoin="round" d=" M 160.835, 136.759 160.836, 126.759 160.837, 116.759 160.838, 113.298 " />
            <path fill="none" stroke-width="3.0" stroke-linecap="butt" stroke-opacity="1.0" stroke="rgb(0, 0, 0)" stroke-linejoin="round" d=" M 161.419, 115.011 161.418, 125.011 161.416, 135.047 " />
            <path fill="none" stroke-width="3.0" stroke-linecap="butt" stroke-opacity="1.0" stroke="rgb(0, 0, 0)" stroke-linejoin="round" d=" M 179.009, 96.945 179.007, 106.945 179.005, 116.945 179.003, 126.945 179.001, 136.945 178.999, 146.945 178.998, 150.809 178.998, 153.132 178.997, 153.709 " />
        </g>
    </g>
</svg>
