<?xml version='1.0' encoding='ascii'?>
<svg xmlns="http://www.w3.org/2000/svg" version="1.1" width="250" height="250">
    <g id="ViewLayer_LineSet" xmlns:inkscape="http://www.inkscape.org/namespaces/inkscape" inkscape:groupmode="lineset" inkscape:label="ViewLayer_LineSet">
        <g xmlns:inkscape="http://www.inkscape.org/namespaces/inkscape" inkscape:groupmode="layer" id="strokes" inkscape:label="strokes">
            <path fill="none" stroke-width="3.0" stroke-linecap="butt" stroke-opacity="1.0" stroke="rgb(0, 0, 0)" stroke-linejoin="round" d=" M 259.951, 228.186 253.347, 235.695 246.743, 243.204 245.540, 244.572 238.012, 251.154 230.484, 257.736 229.116, 258.932 " />
            <path fill="none" stroke-width="3.0" stroke-linecap="butt" stroke-opacity="1.0" stroke="rgb(0, 0, 0)" stroke-linejoin="round" d=" M 229.218, -5.810 236.740, 0.778 244.263, 7.367 245.645, 8.577 252.242, 16.092 258.839, 23.607 260.052, 24.989 " />
            <path fill="none" stroke-width="3.0" stroke-linecap="butt" stroke-opacity="1.0" stroke="rgb(0, 0, 0)" stroke-linejoin="round" d=" M -4.566, 25.214 2.017, 17.686 8.600, 10.159 9.780, 8.810 17.289, 2.206 24.797, -4.399 26.146, -5.585 " />
            <path fill="none" stroke-width="3.0" stroke-linecap="butt" stroke-opacity="1.0" stroke="rgb(0, 0, 0)" stroke-linejoin="round" d=" M 26.242, 258.699 18.728, 252.101 11.214, 245.502 9.879, 244.330 3.289, 236.809 -3.301, 229.287 -4.470, 227.952 " />
            <path fill="none" stroke-width="3.0" stroke-linecap="butt" stroke-opacity="1.0" stroke="rgb(0, 0, 0)" stroke-linejoin="round" d=" M 37.739, 173.407 39.000, 175.964 44.554, 184.279 46.352, 186.972 52.943, 194.492 55.078, 196.927 62.593, 203.523 65.027, 205.660 73.339, 211.220 76.032, 213.021 84.998, 217.449 87.903, 218.884 97.370, 222.105 100.439, 223.149 110.245, 225.108 113.425, 225.743 123.403, 226.405 126.640, 226.620 136.619, 225.975 139.858, 225.766 149.668, 223.824 152.853, 223.193 162.326, 219.988 165.403, 218.947 174.376, 214.532 177.293, 213.097 185.613, 207.549 188.318, 205.745 195.843, 199.159 198.291, 197.016 204.891, 189.503 207.039, 187.057 212.601, 178.747 214.413, 176.041 215.426, 173.990 " />
            <path fill="none" stroke-width="3.0" stroke-linecap="butt" stroke-opacity="1.0" stroke="rgb(0, 0, 0)" stroke-linejoin="round" d=" M 134.536, 185.445 126.623, 185.960 118.711, 185.437 110.936, 183.887 103.429, 181.335 96.320, 177.826 89.731, 173.420 83.772, 168.192 78.546, 162.231 74.143, 155.640 73.088, 153.500 72.391, 152.087 72.022, 151.338 70.638, 148.531 68.090, 141.025 67.661, 138.874 66.542, 133.251 66.180, 127.737 66.022, 125.342 66.179, 122.946 66.539, 117.431 67.656, 111.808 68.083, 109.656 70.629, 102.148 72.381, 98.590 73.584, 96.149 73.707, 95.900 74.132, 95.036 75.009, 93.722 78.534, 88.442 83.759, 82.478 89.718, 77.246 96.309, 72.837 103.420, 69.325 110.930, 66.772 118.708, 65.220 126.624, 64.697 134.540, 65.212 142.322, 66.756 149.836, 69.303 156.953, 72.810 163.552, 77.216 169.519, 82.447 174.752, 88.412 177.950, 93.197 178.431, 93.916 179.162, 95.010 179.466, 95.628 179.759, 96.222 182.672, 102.127 184.493, 107.494 185.222, 109.641 185.975, 113.429 186.769, 117.424 187.287, 125.342 186.766, 133.260 185.970, 137.255 185.215, 141.042 184.486, 143.188 182.662, 148.554 181.047, 151.825 180.207, 153.527 179.844, 154.261 179.824, 154.303 179.150, 155.668 174.739, 162.263 169.505, 168.224 163.538, 173.451 156.941, 177.854 149.825, 181.358 142.314, 183.903 134.536, 185.445 " />
            <path fill="none" stroke-width="3.0" stroke-linecap="butt" stroke-opacity="1.0" stroke="rgb(0, 0, 0)" stroke-linejoin="round" d=" M 212.770, 72.165 207.213, 63.851 207.076, 63.647 200.481, 56.130 198.330, 53.679 190.809, 47.088 188.356, 44.939 180.038, 39.388 177.327, 37.578 168.355, 33.160 165.431, 31.721 155.960, 28.513 152.874, 27.468 143.064, 25.524 139.869, 24.891 129.890, 24.245 126.642, 24.035 116.664, 24.698 113.417, 24.914 103.611, 26.874 100.421, 27.511 90.955, 30.734 87.878, 31.782 78.913, 36.213 76.000, 37.653 67.691, 43.216 64.992, 45.023 57.479, 51.623 55.041, 53.765 48.454, 61.289 46.317, 63.730 40.767, 72.049 40.302, 72.746 " />
            <path fill="none" stroke-width="3.0" stroke-linecap="butt" stroke-opacity="1.0" stroke="rgb(0, 0, 0)" stroke-linejoin="round" d=" M 268.919, 38.251 260.359, 43.421 251.799, 48.591 243.239, 53.761 234.680, 58.932 232.564, 60.209 232.563, 63.288 232.561, 66.884 232.557, 76.884 232.554, 86.884 232.550, 96.884 232.546, 106.884 232.542, 116.884 232.538, 126.884 232.534, 136.884 232.530, 146.884 232.526, 156.884 232.522, 166.884 232.518, 177.335 232.516, 180.623 232.515, 183.440 241.266, 188.279 250.018, 193.118 258.769, 197.957 267.520, 202.796 273.936, 206.344 " />
            <path fill="none" stroke-width="3.0" stroke-linecap="butt" stroke-opacity="1.0" stroke="rgb(0, 0, 0)" stroke-linejoin="round" d=" M -19.039, 204.821 -10.289, 199.980 -1.539, 195.139 7.211, 190.297 15.961, 185.456 19.799, 183.333 19.798, 180.521 19.797, 177.235 19.793, 167.235 19.789, 157.235 19.785, 147.235 19.782, 137.235 19.778, 127.235 19.774, 117.235 19.770, 107.235 19.766, 97.235 19.762, 87.235 19.758, 77.235 19.754, 66.992 19.753, 63.399 19.752, 60.326 11.193, 55.154 2.635, 49.981 -5.923, 44.809 -14.264, 39.768 " />
            <path fill="none" stroke-width="3.0" stroke-linecap="butt" stroke-opacity="1.0" stroke="rgb(0, 0, 0)" stroke-linejoin="round" d=" M 19.798, 180.521 24.876, 180.524 33.626, 175.683 37.739, 173.407 46.489, 168.566 50.386, 166.409 50.383, 156.409 50.381, 146.409 50.378, 136.409 50.375, 126.409 50.372, 116.409 50.370, 106.409 50.367, 96.409 50.364, 86.409 50.362, 78.826 41.804, 73.654 40.302, 72.746 31.744, 67.574 24.833, 63.397 19.753, 63.399 " />
            <path fill="none" stroke-width="3.0" stroke-linecap="butt" stroke-opacity="1.0" stroke="rgb(0, 0, 0)" stroke-linejoin="round" d=" M 24.876, 180.524 24.872, 170.524 24.868, 160.524 24.865, 150.524 24.861, 140.524 24.857, 130.524 24.854, 120.524 24.850, 110.524 24.846, 100.524 24.843, 90.524 24.839, 80.524 24.835, 70.524 24.833, 63.397 " />
            <path fill="none" stroke-width="3.0" stroke-linecap="butt" stroke-opacity="1.0" stroke="rgb(0, 0, 0)" stroke-linejoin="round" d=" M 232.563, 63.288 227.462, 63.291 218.902, 68.461 212.770, 72.165 204.210, 77.335 201.840, 78.767 201.837, 88.767 201.834, 98.767 201.831, 108.767 201.829, 118.767 201.826, 128.767 201.823, 138.767 201.820, 148.767 201.817, 158.767 201.815, 166.463 210.566, 171.303 215.426, 173.990 224.177, 178.829 227.418, 180.621 232.516, 180.623 " />
            <path fill="none" stroke-width="3.0" stroke-linecap="butt" stroke-opacity="1.0" stroke="rgb(0, 0, 0)" stroke-linejoin="round" d=" M 227.418, 180.621 227.422, 170.621 227.425, 160.621 227.429, 150.621 227.433, 140.621 227.435, 134.262 227.439, 124.262 227.442, 116.470 227.446, 106.470 227.450, 96.470 227.453, 86.470 227.457, 76.470 227.461, 66.470 227.462, 63.291 " />
            <path fill="none" stroke-width="3.0" stroke-linecap="butt" stroke-opacity="1.0" stroke="rgb(0, 0, 0)" stroke-linejoin="round" d=" M 129.738, 151.105 126.288, 151.330 122.838, 151.103 119.447, 150.428 116.174, 149.316 113.074, 147.787 110.200, 145.866 107.601, 143.586 105.322, 140.987 103.401, 138.113 103.000, 137.299 102.857, 137.009 102.585, 136.458 102.526, 136.338 102.476, 136.236 102.271, 135.820 102.029, 135.330 101.872, 135.012 101.639, 134.324 100.761, 131.739 100.175, 128.790 100.087, 128.348 99.860, 124.899 100.086, 121.449 100.174, 121.008 100.760, 118.059 101.637, 115.474 101.871, 114.785 102.028, 114.467 102.269, 113.977 102.855, 112.788 103.160, 112.169 103.398, 111.687 103.399, 111.684 103.485, 111.556 103.782, 111.111 105.319, 108.809 107.598, 106.209 110.197, 103.929 113.072, 102.008 116.172, 100.478 119.446, 99.365 122.838, 98.690 126.288, 98.463 129.739, 98.688 133.131, 99.362 136.406, 100.473 139.508, 102.002 142.384, 103.923 144.984, 106.204 147.265, 108.804 148.658, 110.889 149.100, 111.551 149.186, 111.679 149.187, 111.682 149.226, 111.761 149.319, 111.948 149.812, 112.948 150.054, 113.438 150.446, 114.234 150.716, 114.781 151.827, 118.056 151.910, 118.472 152.502, 121.448 152.608, 123.063 152.728, 124.899 152.607, 126.735 152.501, 128.350 151.909, 131.326 151.826, 131.742 150.714, 135.017 150.444, 135.563 150.052, 136.359 150.000, 136.463 149.547, 137.383 149.184, 138.118 147.262, 140.993 144.981, 143.592 142.381, 145.872 139.505, 147.792 136.404, 149.321 133.129, 150.431 129.738, 151.105 " />
            <path fill="none" stroke-width="3.0" stroke-linecap="butt" stroke-opacity="1.0" stroke="rgb(0, 0, 0)" stroke-linejoin="round" d=" M 131.202, 161.583 126.390, 161.897 121.579, 161.580 116.850, 160.638 112.285, 159.087 107.961, 156.954 103.953, 154.275 100.329, 151.095 97.151, 147.470 94.472, 143.462 93.913, 142.327 93.744, 141.985 93.208, 140.897 93.182, 140.845 93.077, 140.633 92.340, 139.138 90.883, 134.845 90.832, 134.694 90.791, 134.573 90.236, 131.787 89.850, 129.845 89.534, 125.034 89.849, 120.223 90.234, 118.281 90.788, 115.495 90.829, 115.373 90.880, 115.223 92.337, 110.929 93.074, 109.434 94.135, 107.281 94.418, 106.706 94.468, 106.604 94.525, 106.519 97.146, 102.594 100.324, 98.968 103.949, 95.787 107.957, 93.107 112.282, 90.973 116.848, 89.421 121.578, 88.478 126.391, 88.162 131.204, 88.476 135.935, 89.415 140.503, 90.965 144.830, 93.097 148.841, 95.776 152.468, 98.957 155.650, 102.583 157.593, 105.492 157.603, 105.507 158.330, 106.594 158.380, 106.696 158.515, 106.970 159.021, 107.996 160.464, 110.921 161.218, 113.144 161.272, 113.301 161.868, 115.057 162.014, 115.489 162.955, 120.221 163.270, 125.034 162.954, 129.848 162.012, 134.579 161.865, 135.011 161.269, 136.766 161.215, 136.924 160.460, 139.146 159.054, 141.995 158.735, 142.642 158.325, 143.472 155.644, 147.482 152.463, 151.107 148.836, 154.286 144.825, 156.964 140.499, 159.095 135.932, 160.644 131.202, 161.583 " />
            <path fill="none" stroke-width="3.0" stroke-linecap="butt" stroke-opacity="1.0" stroke="rgb(0, 0, 0)" stroke-linejoin="round" d=" M 157.593, 105.492 157.569, 105.507 157.569, 106.696 157.569, 107.482 157.569, 110.797 157.567, 120.797 157.566, 130.797 157.565, 138.850 157.565, 140.187 157.565, 140.906 157.565, 141.995 158.735, 142.642 " />
            <path fill="none" stroke-width="3.0" stroke-linecap="butt" stroke-opacity="1.0" stroke="rgb(0, 0, 0)" stroke-linejoin="round" d=" M 93.913, 142.327 94.529, 141.985 94.529, 140.897 94.529, 140.177 94.529, 138.061 94.528, 128.061 94.527, 118.061 94.526, 111.585 94.525, 107.492 94.525, 106.706 94.525, 106.519 " />
            <path fill="none" stroke-width="3.0" stroke-linecap="butt" stroke-opacity="1.0" stroke="rgb(0, 0, 0)" stroke-linejoin="round" d=" M 179.759, 96.222 179.757, 106.222 179.755, 116.222 179.753, 126.222 179.751, 136.222 179.749, 146.222 179.748, 151.181 179.748, 153.527 179.748, 154.261 179.824, 154.303 " />
            <path fill="none" stroke-width="3.0" stroke-linecap="butt" stroke-opacity="1.0" stroke="rgb(0, 0, 0)" stroke-linejoin="round" d=" M 73.088, 153.500 73.717, 153.500 81.486, 149.202 81.486, 147.042 81.486, 146.645 81.484, 136.645 81.482, 126.645 81.481, 116.645 81.479, 106.645 81.478, 100.425 81.478, 99.991 81.478, 97.631 75.009, 93.722 " />
            <path fill="none" stroke-width="3.0" stroke-linecap="butt" stroke-opacity="1.0" stroke="rgb(0, 0, 0)" stroke-linejoin="round" d=" M 73.717, 153.500 73.715, 143.500 73.714, 133.500 73.712, 123.500 73.710, 113.500 73.708, 103.500 73.707, 95.900 " />
            <path fill="none" stroke-width="3.0" stroke-linecap="butt" stroke-opacity="1.0" stroke="rgb(0, 0, 0)" stroke-linejoin="round" d=" M 178.419, 153.526 178.421, 143.526 178.423, 133.526 178.425, 123.526 178.427, 113.526 178.429, 103.526 178.431, 93.916 " />
            <path fill="none" stroke-width="3.0" stroke-linecap="butt" stroke-opacity="1.0" stroke="rgb(0, 0, 0)" stroke-linejoin="round" d=" M 177.950, 93.197 170.641, 97.611 170.641, 99.973 170.641, 100.405 170.639, 110.405 170.638, 120.405 170.636, 130.405 170.634, 140.405 170.633, 146.663 170.633, 147.060 170.633, 149.221 178.419, 153.526 179.748, 153.527 " />
            <path fill="none" stroke-width="3.0" stroke-linecap="butt" stroke-opacity="1.0" stroke="rgb(0, 0, 0)" stroke-linejoin="round" d=" M 128.923, 145.270 126.231, 145.446 123.539, 145.269 120.894, 144.742 118.340, 143.875 115.921, 142.681 113.679, 141.183 111.651, 139.404 111.566, 139.307 109.873, 137.376 108.374, 135.133 108.061, 134.498 108.037, 134.449 107.996, 134.367 107.726, 133.819 107.351, 133.059 107.181, 132.714 107.016, 132.228 106.314, 130.160 106.247, 129.822 106.146, 129.317 106.080, 128.981 105.788, 127.515 105.611, 124.824 105.788, 122.132 106.079, 120.666 106.146, 120.331 106.246, 119.826 106.314, 119.487 107.015, 117.420 107.180, 116.933 107.350, 116.588 108.001, 115.269 108.148, 114.969 108.186, 114.892 108.236, 114.791 108.298, 114.665 108.373, 114.513 108.423, 114.439 108.672, 114.066 109.871, 112.270 111.649, 110.242 113.677, 108.463 115.920, 106.964 118.339, 105.770 120.893, 104.903 123.539, 104.376 126.231, 104.199 128.923, 104.375 131.570, 104.901 134.125, 105.768 136.545, 106.961 138.788, 108.460 140.817, 110.238 142.596, 112.267 143.683, 113.894 143.776, 114.033 143.926, 114.258 144.031, 114.415 144.045, 114.436 144.095, 114.510 144.724, 115.786 145.061, 116.469 145.288, 116.930 145.830, 118.525 145.931, 118.824 145.997, 119.017 146.156, 119.485 146.682, 122.132 146.858, 124.824 146.682, 127.516 146.155, 130.162 145.996, 130.630 145.930, 130.823 145.829, 131.123 145.287, 132.717 145.060, 133.178 144.738, 133.830 144.472, 134.370 144.431, 134.452 144.323, 134.672 144.094, 135.137 142.594, 137.380 140.815, 139.408 138.786, 141.186 136.543, 142.685 134.123, 143.877 131.569, 144.744 128.923, 145.270 " />
            <path fill="none" stroke-width="3.0" stroke-linecap="butt" stroke-opacity="1.0" stroke="rgb(0, 0, 0)" stroke-linejoin="round" d=" M 128.400, 141.523 126.195, 141.668 123.990, 141.523 121.823, 141.092 119.731, 140.381 117.749, 139.404 115.912, 138.176 114.251, 136.719 112.794, 135.058 111.567, 133.221 111.310, 132.701 111.247, 132.572 110.808, 131.682 110.698, 131.458 110.590, 131.239 109.880, 129.147 109.872, 129.107 109.866, 129.080 109.448, 126.980 109.304, 124.776 109.448, 122.571 109.866, 120.471 109.871, 120.443 109.879, 120.404 110.589, 118.312 110.697, 118.093 110.807, 117.869 111.542, 116.378 111.566, 116.330 112.793, 114.492 114.250, 112.831 115.911, 111.374 117.748, 110.146 119.730, 109.168 121.822, 108.458 123.990, 108.026 126.195, 107.881 128.400, 108.026 130.567, 108.456 132.660, 109.167 134.642, 110.144 136.480, 111.372 138.142, 112.829 139.599, 114.490 140.528, 115.881 140.827, 116.328 141.264, 117.214 141.375, 117.438 141.804, 118.310 142.201, 119.479 142.206, 119.492 142.515, 120.403 142.785, 121.761 142.946, 122.570 143.027, 123.804 143.090, 124.776 143.027, 125.747 142.946, 126.981 142.785, 127.790 142.514, 129.148 142.205, 130.059 142.201, 130.072 141.804, 131.241 141.374, 132.113 141.263, 132.336 141.146, 132.574 141.014, 132.843 140.826, 133.223 139.598, 135.060 138.141, 136.722 136.479, 138.178 134.641, 139.406 132.659, 140.383 130.567, 141.093 128.400, 141.523 " />
            <path fill="none" stroke-width="3.0" stroke-linecap="butt" stroke-opacity="1.0" stroke="rgb(0, 0, 0)" stroke-linejoin="round" d=" M 127.766, 136.991 126.150, 137.097 124.535, 136.991 122.946, 136.675 121.413, 136.154 119.961, 135.438 118.615, 134.538 117.397, 133.470 116.330, 132.253 115.430, 130.906 114.714, 129.454 114.194, 127.921 113.878, 126.333 113.772, 124.717 113.877, 123.101 114.193, 121.513 114.714, 119.980 115.430, 118.528 116.329, 117.181 117.397, 115.963 118.614, 114.896 119.961, 113.996 121.413, 113.279 122.946, 112.759 124.535, 112.443 126.151, 112.337 127.767, 112.442 129.355, 112.758 130.889, 113.279 132.341, 113.995 133.688, 114.894 134.906, 115.962 135.973, 117.180 136.873, 118.526 137.590, 119.979 138.110, 121.513 138.426, 123.101 138.532, 124.717 138.426, 126.333 138.110, 127.922 137.589, 129.455 136.873, 130.908 135.973, 132.254 134.905, 133.472 133.687, 134.539 132.341, 135.439 130.888, 136.155 129.355, 136.675 127.766, 136.991 " />
            <path fill="none" stroke-width="3.0" stroke-linecap="butt" stroke-opacity="1.0" stroke="rgb(0, 0, 0)" stroke-linejoin="round" d=" M 128.032, 138.891 126.169, 139.013 124.306, 138.890 122.475, 138.526 120.708, 137.926 119.034, 137.100 117.482, 136.063 116.078, 134.832 114.848, 133.429 113.811, 131.877 112.985, 130.202 112.385, 128.435 112.021, 126.604 111.899, 124.742 112.021, 122.879 112.385, 121.048 112.985, 119.281 113.810, 117.606 114.847, 116.054 116.078, 114.650 117.481, 113.419 119.033, 112.382 120.707, 111.556 122.475, 110.956 124.306, 110.591 126.169, 110.469 128.032, 110.591 129.863, 110.955 131.631, 111.555 133.306, 112.381 134.858, 113.418 136.262, 114.649 137.493, 116.052 138.530, 117.605 139.356, 119.279 139.956, 121.047 140.321, 122.879 140.443, 124.742 140.320, 126.605 139.956, 128.436 139.356, 130.204 138.530, 131.878 137.492, 133.430 136.261, 134.834 134.857, 136.065 133.305, 137.102 131.631, 137.927 129.863, 138.527 128.032, 138.891 " />
            <path fill="none" stroke-width="3.0" stroke-linecap="butt" stroke-opacity="1.0" stroke="rgb(0, 0, 0)" stroke-linejoin="round" d=" M 72.391, 152.087 72.391, 151.155 72.389, 141.155 72.387, 131.155 72.385, 121.155 72.384, 111.155 72.382, 101.155 72.381, 98.590 " />
            <path fill="none" stroke-width="3.0" stroke-linecap="butt" stroke-opacity="1.0" stroke="rgb(0, 0, 0)" stroke-linejoin="round" d=" M 90.236, 131.787 90.235, 121.787 90.234, 118.281 " />
            <path fill="none" stroke-width="3.0" stroke-linecap="butt" stroke-opacity="1.0" stroke="rgb(0, 0, 0)" stroke-linejoin="round" d=" M 90.832, 134.694 90.830, 124.694 90.829, 115.373 " />
            <path fill="none" stroke-width="3.0" stroke-linecap="butt" stroke-opacity="1.0" stroke="rgb(0, 0, 0)" stroke-linejoin="round" d=" M 101.639, 134.324 101.638, 124.324 101.637, 115.474 " />
            <path fill="none" stroke-width="3.0" stroke-linecap="butt" stroke-opacity="1.0" stroke="rgb(0, 0, 0)" stroke-linejoin="round" d=" M 106.146, 129.317 106.146, 120.331 " />
            <path fill="none" stroke-width="3.0" stroke-linecap="butt" stroke-opacity="1.0" stroke="rgb(0, 0, 0)" stroke-linejoin="round" d=" M 142.785, 121.761 142.785, 127.790 " />
            <path fill="none" stroke-width="3.0" stroke-linecap="butt" stroke-opacity="1.0" stroke="rgb(0, 0, 0)" stroke-linejoin="round" d=" M 145.931, 118.824 145.931, 118.924 145.931, 128.924 145.930, 130.510 145.930, 130.823 " />
            <path fill="none" stroke-width="3.0" stroke-linecap="butt" stroke-opacity="1.0" stroke="rgb(0, 0, 0)" stroke-linejoin="round" d=" M 150.446, 114.234 150.445, 124.234 150.444, 134.234 150.444, 135.563 " />
            <path fill="none" stroke-width="3.0" stroke-linecap="butt" stroke-opacity="1.0" stroke="rgb(0, 0, 0)" stroke-linejoin="round" d=" M 152.607, 126.735 152.608, 123.063 " />
            <path fill="none" stroke-width="3.0" stroke-linecap="butt" stroke-opacity="1.0" stroke="rgb(0, 0, 0)" stroke-linejoin="round" d=" M 161.269, 136.766 161.270, 126.766 161.271, 116.766 161.272, 113.301 " />
            <path fill="none" stroke-width="3.0" stroke-linecap="butt" stroke-opacity="1.0" stroke="rgb(0, 0, 0)" stroke-linejoin="round" d=" M 161.868, 115.057 161.866, 125.057 161.865, 135.011 " />
        </g>
    </g>
</svg>
