<?xml version='1.0' encoding='ascii'?>
<svg xmlns="http://www.w3.org/2000/svg" version="1.1" width="250" height="250">
    <g id="ViewLayer_LineSet" xmlns:inkscape="http://www.inkscape.org/namespaces/inkscape" inkscape:groupmode="lineset" inkscape:label="ViewLayer_LineSet">
        <g xmlns:inkscape="http://www.inkscape.org/namespaces/inkscape" inkscape:groupmode="layer" id="strokes" inkscape:label="strokes">
            <path fill="none" stroke-width="3.0" stroke-linecap="butt" stroke-opacity="1.0" stroke="rgb(0, 0, 0)" stroke-linejoin="round" d=" M 27.141, 179.270 28.553, 182.134 34.107, 190.450 36.788, 194.464 43.379, 201.984 46.561, 205.614 54.076, 212.211 57.704, 215.396 66.016, 220.956 70.029, 223.641 78.995, 228.070 83.325, 230.210 92.792, 233.431 97.366, 234.988 107.172, 236.948 111.912, 237.895 121.889, 238.558 126.714, 238.879 136.693, 238.235 141.520, 237.923 151.329, 235.983 156.076, 235.044 165.549, 231.839 170.134, 230.288 179.108, 225.875 183.453, 223.737 191.774, 218.190 195.805, 215.503 203.330, 208.917 206.977, 205.725 213.578, 198.213 216.778, 194.571 222.341, 186.261 225.040, 182.231 226.175, 179.934 " />
            <path fill="none" stroke-width="3.0" stroke-linecap="butt" stroke-opacity="1.0" stroke="rgb(0, 0, 0)" stroke-linejoin="round" d=" M 135.524, 192.523 126.692, 193.096 117.860, 192.513 109.181, 190.781 100.803, 187.933 92.868, 184.016 85.513, 179.098 78.862, 173.262 73.030, 166.609 68.115, 159.252 67.088, 157.168 66.852, 156.691 66.429, 155.832 65.747, 154.450 64.202, 151.316 62.959, 147.655 61.358, 142.939 61.228, 142.283 59.631, 134.261 59.050, 125.433 59.627, 116.603 61.220, 108.580 61.350, 107.924 62.949, 103.206 64.191, 99.544 67.489, 92.848 67.937, 91.938 68.101, 91.605 68.915, 90.385 73.014, 84.244 78.846, 77.587 85.497, 71.747 92.855, 66.825 100.792, 62.904 109.174, 60.053 117.857, 58.321 126.693, 57.736 135.530, 58.311 144.217, 60.034 152.605, 62.877 160.550, 66.791 167.917, 71.710 174.578, 77.549 180.420, 84.208 184.214, 89.885 184.526, 90.352 185.342, 91.573 185.683, 92.262 189.212, 99.419 189.261, 99.517 190.946, 104.484 192.108, 107.906 193.835, 116.594 194.412, 125.434 193.830, 134.273 192.099, 142.959 190.936, 146.380 189.248, 151.345 189.200, 151.444 187.446, 154.996 187.017, 155.864 186.593, 156.724 186.080, 157.762 185.327, 159.286 180.403, 166.647 174.561, 173.302 167.900, 179.136 160.535, 184.050 152.592, 187.961 144.207, 190.801 135.524, 192.523 " />
            <path fill="none" stroke-width="3.0" stroke-linecap="butt" stroke-opacity="1.0" stroke="rgb(0, 0, 0)" stroke-linejoin="round" d=" M 223.204, 65.863 217.646, 57.549 216.825, 56.321 210.229, 48.804 207.025, 45.154 199.504, 38.564 195.852, 35.364 187.534, 29.813 183.496, 27.118 174.524, 22.701 170.169, 20.557 160.697, 17.350 156.101, 15.794 146.292, 13.851 141.533, 12.909 131.554, 12.264 126.715, 11.952 116.737, 12.616 111.901, 12.937 102.095, 14.898 97.344, 15.848 87.878, 19.073 83.293, 20.634 74.329, 25.066 69.990, 27.212 61.681, 32.776 57.660, 35.469 50.148, 42.070 46.515, 45.262 39.928, 52.787 36.743, 56.425 31.195, 64.745 30.008, 66.525 " />
            <path fill="none" stroke-width="3.0" stroke-linecap="butt" stroke-opacity="1.0" stroke="rgb(0, 0, 0)" stroke-linejoin="round" d=" M 252.672, 52.374 245.528, 52.379 236.969, 57.549 228.409, 62.719 223.204, 65.863 214.644, 71.033 211.497, 72.934 211.494, 82.934 211.491, 92.934 211.488, 102.934 211.484, 112.934 211.481, 122.934 211.478, 132.934 211.475, 142.934 211.472, 152.934 211.469, 162.934 211.466, 171.800 220.217, 176.639 226.175, 179.934 234.926, 184.773 243.677, 189.612 245.467, 190.601 252.607, 190.605 " />
            <path fill="none" stroke-width="3.0" stroke-linecap="butt" stroke-opacity="1.0" stroke="rgb(0, 0, 0)" stroke-linejoin="round" d=" M 245.467, 190.601 245.472, 180.601 245.476, 170.601 245.480, 160.601 245.485, 150.601 245.489, 140.601 245.494, 130.601 245.498, 120.601 245.503, 110.601 245.507, 100.601 245.511, 90.601 245.516, 80.601 245.520, 70.601 245.525, 60.601 245.528, 52.379 " />
            <path fill="none" stroke-width="3.0" stroke-linecap="butt" stroke-opacity="1.0" stroke="rgb(0, 0, 0)" stroke-linejoin="round" d=" M -0.201, 190.463 6.905, 190.467 15.655, 185.626 24.405, 180.784 27.141, 179.270 35.891, 174.429 40.768, 171.731 40.765, 161.731 40.762, 151.731 40.758, 141.731 40.755, 131.731 40.752, 121.731 40.749, 111.731 40.746, 101.731 40.743, 91.731 40.740, 81.731 40.737, 73.009 32.179, 67.836 30.008, 66.525 21.450, 61.352 12.891, 56.180 6.845, 52.526 -0.264, 52.530 " />
            <path fill="none" stroke-width="3.0" stroke-linecap="butt" stroke-opacity="1.0" stroke="rgb(0, 0, 0)" stroke-linejoin="round" d=" M 6.905, 190.467 6.901, 180.467 6.896, 170.467 6.892, 160.467 6.888, 150.467 6.883, 140.467 6.879, 130.467 6.875, 120.467 6.870, 110.467 6.866, 100.467 6.862, 90.467 6.857, 80.467 6.853, 70.467 6.849, 60.467 6.845, 52.526 " />
            <path fill="none" stroke-width="3.0" stroke-linecap="butt" stroke-opacity="1.0" stroke="rgb(0, 0, 0)" stroke-linejoin="round" d=" M 68.860, 155.833 69.804, 157.748 74.554, 164.858 80.190, 171.287 86.618, 176.927 93.726, 181.680 101.394, 185.465 109.491, 188.218 117.879, 189.891 126.413, 190.455 134.949, 189.900 143.340, 188.236 151.443, 185.491 159.119, 181.712 166.236, 176.963 172.673, 171.324 178.319, 164.893 183.077, 157.780 184.024, 155.863 " />
            <path fill="none" stroke-width="3.0" stroke-linecap="butt" stroke-opacity="1.0" stroke="rgb(0, 0, 0)" stroke-linejoin="round" d=" M 131.535, 163.969 126.413, 164.303 121.292, 163.965 116.259, 162.963 111.399, 161.312 106.797, 159.041 102.531, 156.189 98.673, 152.805 95.290, 148.946 92.440, 144.679 91.844, 143.471 91.535, 142.844 90.170, 140.077 89.151, 137.073 88.882, 136.282 88.521, 135.218 88.218, 133.696 87.519, 130.185 87.183, 125.065 87.518, 119.944 88.216, 116.433 88.518, 114.911 88.879, 113.847 89.147, 113.055 90.167, 110.051 91.600, 107.143 92.080, 106.168 92.208, 105.907 92.435, 105.447 92.972, 104.643 95.285, 101.179 98.668, 97.319 102.526, 93.934 106.793, 91.081 111.396, 88.809 116.256, 87.157 121.291, 86.154 126.414, 85.816 131.537, 86.150 136.573, 87.150 141.436, 88.799 146.041, 91.069 150.311, 93.921 154.173, 97.307 157.559, 101.167 159.628, 104.263 159.831, 104.567 160.412, 105.436 162.683, 110.042 162.954, 110.841 163.226, 111.640 163.890, 113.598 164.334, 114.905 165.335, 119.941 165.670, 125.065 165.334, 130.189 164.331, 135.225 163.887, 136.532 163.222, 138.489 162.950, 139.288 162.679, 140.087 161.313, 142.855 160.843, 143.808 160.407, 144.691 157.553, 148.959 154.167, 152.818 150.306, 156.202 146.036, 159.052 141.431, 161.321 136.570, 162.969 131.535, 163.969 " />
            <path fill="none" stroke-width="3.0" stroke-linecap="butt" stroke-opacity="1.0" stroke="rgb(0, 0, 0)" stroke-linejoin="round" d=" M 182.019, 90.739 178.335, 85.225 172.689, 78.790 166.252, 73.148 159.133, 68.395 151.455, 64.612 143.349, 61.864 134.954, 60.199 126.414, 59.644 117.875, 60.208 109.484, 61.882 101.384, 64.638 93.713, 68.426 86.603, 73.183 80.175, 78.826 74.539, 85.260 70.650, 91.087 " />
            <path fill="none" stroke-width="3.0" stroke-linecap="butt" stroke-opacity="1.0" stroke="rgb(0, 0, 0)" stroke-linejoin="round" d=" M 184.214, 89.885 184.214, 90.352 184.214, 93.058 184.213, 94.618 184.211, 104.618 184.209, 114.618 184.207, 124.618 184.205, 134.618 184.202, 144.618 184.200, 153.388 184.200, 155.506 184.200, 155.864 184.200, 156.723 186.080, 157.762 " />
            <path fill="none" stroke-width="3.0" stroke-linecap="butt" stroke-opacity="1.0" stroke="rgb(0, 0, 0)" stroke-linejoin="round" d=" M 67.088, 157.168 67.951, 156.691 67.951, 155.832 67.950, 153.988 67.950, 153.357 67.948, 143.357 67.946, 133.357 67.944, 123.357 67.942, 113.357 67.940, 103.357 67.938, 96.135 67.938, 93.091 67.937, 91.938 " />
            <path fill="none" stroke-width="3.0" stroke-linecap="butt" stroke-opacity="1.0" stroke="rgb(0, 0, 0)" stroke-linejoin="round" d=" M 67.951, 155.832 68.860, 155.833 69.502, 155.833 78.252, 150.992 78.466, 150.873 78.465, 148.493 78.465, 148.143 78.464, 138.143 78.462, 128.143 78.460, 118.143 78.458, 108.143 78.457, 98.789 78.457, 98.406 78.456, 95.805 70.650, 91.087 69.488, 90.385 68.915, 90.385 " />
            <path fill="none" stroke-width="3.0" stroke-linecap="butt" stroke-opacity="1.0" stroke="rgb(0, 0, 0)" stroke-linejoin="round" d=" M 69.502, 155.833 69.500, 145.833 69.498, 135.833 69.496, 125.833 69.494, 115.833 69.492, 105.833 69.490, 95.833 69.489, 92.987 69.488, 90.385 " />
            <path fill="none" stroke-width="3.0" stroke-linecap="butt" stroke-opacity="1.0" stroke="rgb(0, 0, 0)" stroke-linejoin="round" d=" M 184.214, 90.352 182.659, 90.352 182.019, 90.739 173.669, 95.782 173.669, 98.385 173.669, 98.766 173.667, 108.766 173.665, 118.766 173.664, 128.766 173.662, 138.766 173.660, 148.164 173.660, 148.513 173.660, 150.895 182.411, 155.734 182.645, 155.863 184.024, 155.863 184.200, 155.864 " />
            <path fill="none" stroke-width="3.0" stroke-linecap="butt" stroke-opacity="1.0" stroke="rgb(0, 0, 0)" stroke-linejoin="round" d=" M 182.645, 155.863 182.647, 145.863 182.649, 135.863 182.651, 125.863 182.653, 115.863 182.655, 105.863 182.658, 95.863 182.658, 91.695 182.659, 90.352 " />
            <path fill="none" stroke-width="3.0" stroke-linecap="butt" stroke-opacity="1.0" stroke="rgb(0, 0, 0)" stroke-linejoin="round" d=" M 129.026, 146.008 126.238, 146.190 123.451, 146.007 120.711, 145.462 118.066, 144.563 115.561, 143.328 113.238, 141.775 111.138, 139.933 109.297, 137.833 107.745, 135.511 107.420, 134.853 107.368, 134.747 107.325, 134.659 107.039, 134.080 106.825, 133.646 106.509, 133.005 106.406, 132.700 105.656, 130.492 105.611, 130.360 105.539, 129.996 105.479, 129.693 105.066, 127.621 104.884, 124.833 105.066, 122.046 105.478, 119.973 105.538, 119.671 105.611, 119.306 105.655, 119.175 106.405, 116.966 106.508, 116.661 106.824, 116.020 107.610, 114.427 107.743, 114.155 107.744, 114.154 107.769, 114.118 108.053, 113.692 109.295, 111.832 111.137, 109.732 113.237, 107.889 115.559, 106.337 118.065, 105.101 120.710, 104.202 123.451, 103.656 126.239, 103.473 129.027, 103.655 131.767, 104.200 134.413, 105.098 136.920, 106.333 139.243, 107.886 141.344, 109.728 143.187, 111.829 144.315, 113.517 144.466, 113.742 144.739, 114.151 144.739, 114.152 145.251, 115.189 145.672, 116.043 145.975, 116.658 146.421, 117.972 146.540, 118.321 146.599, 118.495 146.873, 119.304 147.418, 122.045 147.601, 124.833 147.418, 127.622 146.873, 130.362 146.598, 131.172 146.539, 131.345 146.420, 131.695 145.974, 133.008 145.671, 133.623 145.406, 134.160 145.158, 134.663 145.114, 134.751 144.975, 135.033 144.738, 135.514 143.185, 137.837 141.342, 139.937 139.241, 141.779 136.918, 143.331 134.412, 144.566 131.766, 145.464 129.026, 146.008 " />
            <path fill="none" stroke-width="3.0" stroke-linecap="butt" stroke-opacity="1.0" stroke="rgb(0, 0, 0)" stroke-linejoin="round" d=" M 129.914, 152.368 126.300, 152.604 122.686, 152.366 119.134, 151.658 115.705, 150.494 112.458, 148.891 109.447, 146.879 106.724, 144.491 104.337, 141.768 102.325, 138.757 101.871, 137.837 101.386, 136.852 101.234, 136.544 100.745, 135.552 100.724, 135.509 99.560, 132.080 99.249, 130.520 98.853, 128.529 98.616, 124.915 98.852, 121.302 99.248, 119.310 99.558, 117.750 100.722, 114.320 100.743, 114.277 101.232, 113.286 101.490, 112.763 102.026, 111.675 102.072, 111.580 102.228, 111.264 102.297, 111.125 102.323, 111.072 102.724, 110.472 104.334, 108.060 106.722, 105.337 109.444, 102.948 112.455, 100.935 115.704, 99.332 119.133, 98.167 122.686, 97.459 126.301, 97.222 129.915, 97.458 133.469, 98.164 136.899, 99.328 140.149, 100.929 143.162, 102.942 145.886, 105.330 148.275, 108.054 149.735, 110.239 150.057, 110.721 150.288, 111.066 150.314, 111.119 150.383, 111.259 150.427, 111.349 150.593, 111.684 150.850, 112.207 151.342, 113.203 151.890, 114.316 152.837, 117.105 153.055, 117.747 153.672, 120.852 153.761, 121.300 153.998, 124.916 153.761, 128.531 153.671, 128.979 153.053, 132.084 152.836, 132.725 151.888, 135.514 151.339, 136.627 151.151, 137.008 150.740, 137.842 150.285, 138.763 148.272, 141.775 145.883, 144.498 143.159, 146.886 140.146, 148.897 136.897, 150.498 133.467, 151.662 129.914, 152.368 " />
            <path fill="none" stroke-width="3.0" stroke-linecap="butt" stroke-opacity="1.0" stroke="rgb(0, 0, 0)" stroke-linejoin="round" d=" M 91.844, 143.471 92.977, 142.844 92.976, 141.628 92.976, 140.947 92.976, 137.317 92.975, 127.317 92.974, 117.317 92.973, 112.349 92.972, 106.651 92.972, 105.907 92.972, 104.643 " />
            <path fill="none" stroke-width="3.0" stroke-linecap="butt" stroke-opacity="1.0" stroke="rgb(0, 0, 0)" stroke-linejoin="round" d=" M 159.628, 104.263 159.125, 104.567 159.125, 105.897 159.125, 106.640 159.124, 111.179 159.123, 121.179 159.122, 131.179 159.121, 138.486 159.120, 140.957 159.120, 141.638 159.120, 142.855 160.843, 143.808 " />
            <path fill="none" stroke-width="3.0" stroke-linecap="butt" stroke-opacity="1.0" stroke="rgb(0, 0, 0)" stroke-linejoin="round" d=" M 128.470, 142.031 126.200, 142.179 123.929, 142.030 121.697, 141.586 119.542, 140.854 117.502, 139.847 115.610, 138.583 113.899, 137.082 112.399, 135.372 111.135, 133.480 110.871, 132.944 110.774, 132.749 110.649, 132.495 110.526, 132.245 110.454, 132.100 110.339, 131.866 110.128, 131.439 110.020, 131.120 109.509, 129.615 109.473, 129.507 109.397, 129.284 108.953, 127.053 108.817, 124.980 108.804, 124.782 108.817, 124.584 108.953, 122.511 109.397, 120.280 109.472, 120.057 109.509, 119.949 110.020, 118.443 110.128, 118.125 110.338, 117.698 110.454, 117.464 110.750, 116.862 110.849, 116.663 110.976, 116.403 111.011, 116.334 111.037, 116.281 111.134, 116.084 111.222, 115.951 111.267, 115.885 112.398, 114.192 113.898, 112.481 115.609, 110.980 117.501, 109.715 119.542, 108.708 121.697, 107.977 123.929, 107.532 126.200, 107.383 128.471, 107.532 130.703, 107.975 132.858, 108.707 134.900, 109.713 136.792, 110.977 138.504, 112.478 140.005, 114.189 140.922, 115.562 140.951, 115.606 141.136, 115.883 141.269, 116.082 141.357, 116.259 141.618, 116.789 141.734, 117.024 142.052, 117.669 142.276, 118.123 142.563, 118.969 142.601, 119.080 143.008, 120.279 143.257, 121.532 143.422, 122.361 143.452, 122.511 143.551, 124.024 143.600, 124.782 143.551, 125.541 143.451, 127.053 143.421, 127.203 143.256, 128.032 143.007, 129.286 142.600, 130.484 142.562, 130.595 142.275, 131.441 142.051, 131.895 141.812, 132.379 141.754, 132.497 141.733, 132.540 141.629, 132.751 141.617, 132.774 141.461, 133.090 141.268, 133.482 140.003, 135.374 138.503, 137.085 136.791, 138.585 134.899, 139.850 132.857, 140.856 130.702, 141.587 128.470, 142.031 " />
            <path fill="none" stroke-width="3.0" stroke-linecap="butt" stroke-opacity="1.0" stroke="rgb(0, 0, 0)" stroke-linejoin="round" d=" M 128.087, 139.287 126.173, 139.412 124.259, 139.286 122.377, 138.912 120.561, 138.295 118.841, 137.447 117.246, 136.381 115.804, 135.116 114.539, 133.674 113.473, 132.079 113.015, 131.149 112.625, 130.358 112.424, 129.767 112.336, 129.508 112.008, 128.542 111.681, 126.896 111.634, 126.661 111.509, 124.747 111.634, 122.833 111.681, 122.597 112.008, 120.951 112.336, 119.986 112.424, 119.726 112.624, 119.135 113.014, 118.345 113.473, 117.414 114.538, 115.819 115.803, 114.377 117.245, 113.112 118.840, 112.046 120.560, 111.197 122.377, 110.580 124.259, 110.206 126.173, 110.080 128.087, 110.205 129.969, 110.579 131.786, 111.196 133.507, 112.044 135.102, 113.110 136.545, 114.375 137.810, 115.817 138.876, 117.413 139.055, 117.776 139.646, 118.975 139.725, 119.134 139.734, 119.162 140.341, 120.950 140.390, 121.195 140.562, 122.061 140.715, 122.832 140.841, 124.747 140.715, 126.661 140.562, 127.432 140.389, 128.299 140.341, 128.543 139.734, 130.331 139.724, 130.360 139.645, 130.519 139.054, 131.717 138.875, 132.080 137.809, 133.676 136.544, 135.118 135.101, 136.383 133.506, 137.448 131.785, 138.296 129.969, 138.913 128.087, 139.287 " />
            <path fill="none" stroke-width="3.0" stroke-linecap="butt" stroke-opacity="1.0" stroke="rgb(0, 0, 0)" stroke-linejoin="round" d=" M 127.592, 135.746 126.138, 135.841 124.684, 135.746 123.255, 135.461 121.875, 134.993 120.569, 134.348 119.357, 133.538 118.262, 132.578 117.301, 131.482 116.491, 130.271 115.847, 128.964 115.379, 127.584 115.094, 126.155 114.999, 124.701 115.094, 123.247 115.378, 121.818 115.847, 120.438 116.491, 119.131 117.301, 117.920 118.261, 116.824 119.357, 115.863 120.568, 115.053 121.875, 114.409 123.255, 113.940 124.684, 113.656 126.138, 113.560 127.593, 113.655 129.022, 113.940 130.402, 114.408 131.709, 115.052 132.921, 115.862 134.017, 116.823 134.978, 117.919 135.787, 119.130 136.432, 120.437 136.900, 121.817 137.185, 123.247 137.280, 124.701 137.184, 126.155 136.900, 127.585 136.431, 128.965 135.787, 130.272 134.977, 131.483 134.016, 132.579 132.920, 133.540 131.709, 134.349 130.402, 134.993 129.022, 135.462 127.592, 135.746 " />
            <path fill="none" stroke-width="3.0" stroke-linecap="butt" stroke-opacity="1.0" stroke="rgb(0, 0, 0)" stroke-linejoin="round" d=" M 127.804, 137.261 126.153, 137.369 124.502, 137.261 122.879, 136.938 121.313, 136.406 119.829, 135.674 118.454, 134.755 117.210, 133.664 116.119, 132.420 115.200, 131.044 114.468, 129.561 113.936, 127.994 113.614, 126.371 113.505, 124.721 113.613, 123.070 113.936, 121.447 114.468, 119.880 115.199, 118.397 116.118, 117.021 117.209, 115.777 118.453, 114.686 119.829, 113.766 121.313, 113.034 122.879, 112.502 124.502, 112.179 126.153, 112.071 127.804, 112.179 129.427, 112.502 130.994, 113.033 132.478, 113.765 133.854, 114.684 135.098, 115.775 136.190, 117.020 137.109, 118.395 137.841, 119.880 138.373, 121.446 138.695, 123.069 138.804, 124.721 138.695, 126.372 138.372, 127.995 137.840, 129.562 137.108, 131.046 136.189, 132.421 135.098, 133.665 133.854, 134.756 132.478, 135.675 130.994, 136.407 129.427, 136.938 127.804, 137.261 " />
            <path fill="none" stroke-width="3.0" stroke-linecap="butt" stroke-opacity="1.0" stroke="rgb(0, 0, 0)" stroke-linejoin="round" d=" M 88.218, 133.696 88.217, 123.696 88.216, 116.433 " />
            <path fill="none" stroke-width="3.0" stroke-linecap="butt" stroke-opacity="1.0" stroke="rgb(0, 0, 0)" stroke-linejoin="round" d=" M 88.882, 136.282 88.881, 126.282 88.879, 116.282 88.879, 113.847 " />
            <path fill="none" stroke-width="3.0" stroke-linecap="butt" stroke-opacity="1.0" stroke="rgb(0, 0, 0)" stroke-linejoin="round" d=" M 100.745, 135.552 100.744, 125.552 100.743, 115.552 100.743, 114.277 " />
            <path fill="none" stroke-width="3.0" stroke-linecap="butt" stroke-opacity="1.0" stroke="rgb(0, 0, 0)" stroke-linejoin="round" d=" M 105.539, 129.996 105.539, 128.896 105.538, 120.545 105.538, 119.671 " />
            <path fill="none" stroke-width="3.0" stroke-linecap="butt" stroke-opacity="1.0" stroke="rgb(0, 0, 0)" stroke-linejoin="round" d=" M 108.817, 124.980 108.817, 124.584 " />
            <path fill="none" stroke-width="3.0" stroke-linecap="butt" stroke-opacity="1.0" stroke="rgb(0, 0, 0)" stroke-linejoin="round" d=" M 143.257, 121.532 143.256, 128.032 " />
            <path fill="none" stroke-width="3.0" stroke-linecap="butt" stroke-opacity="1.0" stroke="rgb(0, 0, 0)" stroke-linejoin="round" d=" M 146.540, 118.321 146.540, 119.359 146.539, 129.359 146.539, 130.082 146.539, 131.345 " />
            <path fill="none" stroke-width="3.0" stroke-linecap="butt" stroke-opacity="1.0" stroke="rgb(0, 0, 0)" stroke-linejoin="round" d=" M 151.342, 113.203 151.341, 123.203 151.340, 133.203 151.339, 136.627 " />
            <path fill="none" stroke-width="3.0" stroke-linecap="butt" stroke-opacity="1.0" stroke="rgb(0, 0, 0)" stroke-linejoin="round" d=" M 153.671, 128.979 153.672, 120.852 " />
            <path fill="none" stroke-width="3.0" stroke-linecap="butt" stroke-opacity="1.0" stroke="rgb(0, 0, 0)" stroke-linejoin="round" d=" M 163.222, 138.489 163.223, 128.489 163.225, 118.489 163.226, 111.640 " />
            <path fill="none" stroke-width="3.0" stroke-linecap="butt" stroke-opacity="1.0" stroke="rgb(0, 0, 0)" stroke-linejoin="round" d=" M 163.890, 113.598 163.889, 123.598 163.887, 133.598 163.887, 136.532 " />
        </g>
    </g>
</svg>
