<?xml version='1.0' encoding='ascii'?>
<svg xmlns="http://www.w3.org/2000/svg" version="1.1" width="250" height="250">
    <g id="ViewLayer_LineSet" xmlns:inkscape="http://www.inkscape.org/namespaces/inkscape" inkscape:groupmode="lineset" inkscape:label="ViewLayer_LineSet">
        <g xmlns:inkscape="http://www.inkscape.org/namespaces/inkscape" inkscape:groupmode="layer" id="strokes" inkscape:label="strokes">
            <path fill="none" stroke-width="3.0" stroke-linecap="butt" stroke-opacity="1.0" stroke="rgb(0, 0, 0)" stroke-linejoin="round" d=" M 250.411, 142.319 248.454, 152.126 247.229, 158.260 244.007, 167.727 241.992, 173.648 238.664, 180.381 236.157, 185.453 234.791, 188.218 229.227, 196.527 225.749, 201.721 219.148, 209.232 215.023, 213.926 207.497, 220.511 202.797, 224.624 194.475, 230.170 189.280, 233.633 180.306, 238.045 174.705, 240.799 165.232, 244.003 159.321, 246.001 149.511, 247.941 143.393, 249.151 133.414, 249.794 127.192, 250.195 117.214, 249.530 110.996, 249.116 101.190, 247.156 95.081, 245.935 85.614, 242.712 79.718, 240.705 70.753, 236.276 65.171, 233.517 56.860, 227.957 51.686, 224.495 44.171, 217.898 39.494, 213.792 32.903, 206.271 28.802, 201.591 23.248, 193.275 19.792, 188.101 17.946, 184.358 15.488, 179.372 12.618, 173.552 9.403, 164.083 7.403, 158.191 5.449, 148.384 4.234, 142.282 3.576, 132.303 3.167, 126.094 3.816, 116.115 4.220, 109.905 6.164, 100.095 7.375, 93.989 10.582, 84.518 12.579, 78.620 16.994, 69.648 18.607, 66.370 19.744, 64.059 21.521, 61.395 27.069, 53.075 28.748, 50.556 35.334, 43.031 39.439, 38.341 46.950, 31.739 51.633, 27.623 59.942, 22.058 65.124, 18.588 74.088, 14.155 79.681, 11.388 89.146, 8.163 95.055, 6.150 104.860, 4.189 110.984, 2.963 120.961, 2.299 127.195, 1.884 137.174, 2.527 143.410, 2.930 153.220, 4.872 159.352, 6.085 168.824, 9.292 174.747, 11.297 183.719, 15.713 189.331, 18.475 197.649, 24.026 202.853, 27.498 210.375, 34.088 215.081, 38.212 221.677, 45.728 225.806, 50.431 231.363, 58.745 232.406, 60.305 234.841, 63.948 235.503, 65.291 239.927, 74.259 242.033, 78.530 245.247, 88.000 247.258, 93.927 249.207, 103.735 250.426, 109.874 " />
            <path fill="none" stroke-width="3.0" stroke-linecap="butt" stroke-opacity="1.0" stroke="rgb(0, 0, 0)" stroke-linejoin="round" d=" M 48.084, 167.683 49.186, 169.919 54.741, 178.235 55.677, 179.637 62.269, 187.157 63.380, 188.425 70.896, 195.021 72.164, 196.133 80.476, 201.693 81.879, 202.631 90.845, 207.059 92.358, 207.806 101.826, 211.026 103.425, 211.570 113.231, 213.528 114.889, 213.859 124.867, 214.520 126.554, 214.632 136.533, 213.986 138.222, 213.877 148.031, 211.934 149.693, 211.605 159.165, 208.398 160.770, 207.855 169.742, 203.439 171.264, 202.691 179.583, 197.142 180.995, 196.200 188.519, 189.613 189.797, 188.494 196.396, 180.980 197.518, 179.703 203.079, 171.393 204.025, 169.979 204.915, 168.178 " />
            <path fill="none" stroke-width="3.0" stroke-linecap="butt" stroke-opacity="1.0" stroke="rgb(0, 0, 0)" stroke-linejoin="round" d=" M 133.556, 178.431 126.554, 178.887 119.554, 178.425 112.674, 177.053 106.032, 174.796 99.742, 171.692 93.911, 167.793 88.638, 163.167 84.014, 157.893 80.118, 152.061 79.304, 150.409 78.366, 148.508 78.241, 148.254 77.268, 146.280 77.016, 145.770 74.762, 139.129 73.393, 132.250 72.933, 125.251 73.390, 118.252 74.756, 111.372 77.009, 104.729 77.260, 104.219 78.358, 101.991 79.624, 99.421 80.109, 98.436 80.886, 97.273 84.005, 92.602 88.628, 87.325 93.901, 82.696 99.733, 78.795 106.025, 75.689 112.669, 73.430 119.552, 72.057 126.555, 71.595 133.559, 72.051 140.444, 73.418 147.092, 75.672 153.389, 78.774 159.227, 82.673 164.506, 87.301 169.136, 92.578 171.965, 96.811 173.037, 98.416 173.307, 98.962 173.768, 99.898 174.868, 102.129 176.143, 104.712 178.399, 111.360 179.291, 115.846 179.768, 118.246 180.226, 125.252 179.765, 132.257 179.287, 134.657 178.393, 139.142 176.135, 145.788 174.860, 148.371 174.706, 148.682 173.759, 150.601 173.624, 150.875 173.028, 152.083 169.126, 157.917 164.495, 163.192 159.216, 167.817 153.379, 171.713 147.084, 174.814 140.438, 177.066 133.556, 178.431 " />
            <path fill="none" stroke-width="3.0" stroke-linecap="butt" stroke-opacity="1.0" stroke="rgb(0, 0, 0)" stroke-linejoin="round" d=" M 202.585, 78.317 197.547, 70.779 190.951, 63.262 189.827, 61.981 182.306, 55.390 181.025, 54.267 172.707, 48.715 171.290, 47.769 162.319, 43.351 160.792, 42.598 151.320, 39.390 149.708, 38.844 139.899, 36.900 138.231, 36.569 128.252, 35.922 126.555, 35.812 116.577, 36.474 114.882, 36.586 105.076, 38.545 103.411, 38.878 93.945, 42.100 92.339, 42.646 83.374, 47.076 81.854, 47.827 73.544, 53.390 72.136, 54.332 64.623, 60.931 63.351, 62.048 56.764, 69.571 55.649, 70.844 50.335, 78.809 " />
            <path fill="none" stroke-width="3.0" stroke-linecap="butt" stroke-opacity="1.0" stroke="rgb(0, 0, 0)" stroke-linejoin="round" d=" M 232.406, 60.305 223.846, 65.475 215.286, 70.645 214.917, 70.868 214.916, 73.029 214.915, 76.437 214.912, 86.437 214.909, 96.437 214.905, 106.437 214.904, 111.720 214.900, 121.720 214.897, 131.720 214.895, 138.783 214.891, 148.783 214.888, 158.783 214.885, 168.595 214.884, 171.713 214.883, 173.690 223.634, 178.529 232.385, 183.368 236.157, 185.453 " />
            <path fill="none" stroke-width="3.0" stroke-linecap="butt" stroke-opacity="1.0" stroke="rgb(0, 0, 0)" stroke-linejoin="round" d=" M 17.946, 184.358 26.696, 179.517 35.446, 174.675 37.363, 173.615 37.362, 171.641 37.361, 168.526 37.358, 158.526 37.354, 148.526 37.351, 138.526 37.348, 128.526 37.348, 127.312 37.346, 123.190 37.343, 113.190 37.340, 103.190 37.337, 93.190 37.333, 83.190 37.331, 76.512 37.330, 73.107 37.330, 70.949 28.771, 65.777 21.521, 61.395 " />
            <path fill="none" stroke-width="3.0" stroke-linecap="butt" stroke-opacity="1.0" stroke="rgb(0, 0, 0)" stroke-linejoin="round" d=" M 37.362, 171.641 40.927, 171.643 48.084, 167.683 56.834, 162.842 59.737, 161.236 59.734, 151.236 59.732, 141.236 59.729, 131.236 59.727, 121.236 59.725, 111.236 59.722, 101.236 59.720, 91.236 59.718, 84.480 51.160, 79.308 50.335, 78.809 41.776, 73.637 40.897, 73.105 37.330, 73.107 " />
            <path fill="none" stroke-width="3.0" stroke-linecap="butt" stroke-opacity="1.0" stroke="rgb(0, 0, 0)" stroke-linejoin="round" d=" M 40.927, 171.643 40.924, 161.643 40.921, 151.643 40.921, 150.315 40.918, 140.315 40.915, 130.315 40.911, 120.315 40.908, 110.315 40.905, 100.182 40.902, 90.182 40.899, 80.182 40.897, 73.105 " />
            <path fill="none" stroke-width="3.0" stroke-linecap="butt" stroke-opacity="1.0" stroke="rgb(0, 0, 0)" stroke-linejoin="round" d=" M 214.916, 73.029 211.337, 73.031 202.777, 78.201 202.585, 78.317 194.025, 83.487 192.455, 84.435 192.453, 94.435 192.450, 104.435 192.448, 114.435 192.445, 124.435 192.443, 134.435 192.441, 144.435 192.438, 154.435 192.436, 161.277 201.188, 166.116 204.915, 168.178 211.306, 171.711 214.884, 171.713 " />
            <path fill="none" stroke-width="3.0" stroke-linecap="butt" stroke-opacity="1.0" stroke="rgb(0, 0, 0)" stroke-linejoin="round" d=" M 211.306, 171.711 211.309, 161.711 211.311, 153.300 211.315, 143.300 211.318, 133.300 211.321, 123.300 211.324, 113.300 211.327, 103.300 211.329, 97.198 211.332, 87.198 211.336, 77.198 211.337, 73.031 " />
            <path fill="none" stroke-width="3.0" stroke-linecap="butt" stroke-opacity="1.0" stroke="rgb(0, 0, 0)" stroke-linejoin="round" d=" M 129.539, 149.679 126.274, 149.892 123.010, 149.677 119.801, 149.039 116.703, 147.986 113.770, 146.539 111.050, 144.721 108.591, 142.564 106.434, 140.105 104.617, 137.385 104.237, 136.614 103.933, 135.999 103.879, 135.888 103.817, 135.763 103.741, 135.609 103.178, 134.467 103.170, 134.451 102.955, 133.817 102.700, 133.066 102.118, 131.353 101.480, 128.145 101.266, 124.881 101.479, 121.616 102.117, 118.408 102.698, 116.695 102.953, 115.944 103.168, 115.310 103.176, 115.293 103.815, 113.998 104.388, 112.835 104.615, 112.376 104.747, 112.178 104.827, 112.057 104.977, 111.833 106.432, 109.655 108.588, 107.195 111.048, 105.037 113.768, 103.219 116.702, 101.771 119.800, 100.719 123.009, 100.080 126.274, 99.865 129.540, 100.078 132.749, 100.716 135.848, 101.767 138.784, 103.214 141.505, 105.032 143.966, 107.190 146.124, 109.650 147.442, 111.623 147.729, 112.053 147.810, 112.174 147.942, 112.371 148.068, 112.626 148.265, 113.027 148.903, 114.321 149.127, 114.774 149.384, 115.294 149.389, 115.306 150.441, 118.405 150.838, 120.398 151.080, 121.615 151.293, 124.881 151.079, 128.146 150.837, 129.363 150.440, 131.356 149.388, 134.455 149.382, 134.467 149.125, 134.987 148.901, 135.440 148.722, 135.804 148.678, 135.893 148.624, 136.003 148.263, 136.734 148.218, 136.826 147.940, 137.389 146.121, 140.110 143.963, 142.570 141.502, 144.727 138.781, 146.544 135.846, 147.990 132.748, 149.041 129.539, 149.679 " />
            <path fill="none" stroke-width="3.0" stroke-linecap="butt" stroke-opacity="1.0" stroke="rgb(0, 0, 0)" stroke-linejoin="round" d=" M 130.822, 158.867 126.364, 159.158 121.905, 158.864 117.523, 157.991 113.293, 156.554 109.286, 154.577 105.572, 152.095 102.214, 149.149 99.269, 145.790 96.787, 142.075 96.268, 141.023 96.266, 141.018 95.786, 140.044 95.591, 139.650 94.811, 138.068 94.797, 138.027 93.375, 133.838 92.999, 131.949 92.832, 131.110 92.503, 129.457 92.475, 129.029 92.211, 124.999 92.474, 120.969 92.502, 120.541 92.831, 118.888 92.998, 118.049 93.373, 116.159 94.794, 111.970 94.808, 111.928 96.273, 108.956 96.474, 108.548 96.783, 107.921 96.973, 107.637 99.265, 104.205 102.210, 100.845 105.568, 97.898 109.283, 95.414 113.290, 93.437 117.522, 91.999 121.904, 91.126 126.364, 90.832 130.824, 91.123 135.208, 91.994 139.441, 93.430 143.450, 95.406 147.167, 97.889 150.528, 100.835 153.476, 104.196 155.770, 107.629 155.818, 107.701 155.959, 107.913 156.131, 108.261 157.298, 110.627 157.937, 111.922 159.100, 115.348 159.265, 115.834 159.373, 116.155 159.624, 117.415 160.245, 120.539 160.537, 124.999 160.244, 129.460 159.622, 132.583 159.371, 133.844 159.262, 134.164 159.097, 134.650 157.933, 138.076 157.294, 139.371 157.024, 139.918 156.958, 140.052 156.477, 141.027 156.335, 141.315 155.955, 142.084 153.471, 145.800 150.523, 149.159 147.162, 152.105 143.446, 154.586 139.437, 156.561 135.205, 157.996 130.822, 158.867 " />
            <path fill="none" stroke-width="3.0" stroke-linecap="butt" stroke-opacity="1.0" stroke="rgb(0, 0, 0)" stroke-linejoin="round" d=" M 155.818, 107.701 155.818, 108.430 155.818, 110.544 155.817, 120.544 155.816, 130.544 155.815, 139.080 155.815, 139.319 155.814, 140.052 155.814, 141.027 156.335, 141.315 " />
            <path fill="none" stroke-width="3.0" stroke-linecap="butt" stroke-opacity="1.0" stroke="rgb(0, 0, 0)" stroke-linejoin="round" d=" M 96.268, 141.023 96.277, 141.018 96.277, 140.044 96.277, 139.311 96.277, 138.324 96.275, 128.324 96.274, 118.324 96.274, 111.299 96.273, 108.956 " />
            <path fill="none" stroke-width="3.0" stroke-linecap="butt" stroke-opacity="1.0" stroke="rgb(0, 0, 0)" stroke-linejoin="round" d=" M 79.304, 150.409 84.902, 147.312 84.902, 145.458 84.902, 144.951 84.900, 134.951 84.899, 129.448 84.898, 120.313 84.897, 110.313 84.895, 102.276 84.895, 101.722 84.895, 99.697 80.886, 97.273 " />
            <path fill="none" stroke-width="3.0" stroke-linecap="butt" stroke-opacity="1.0" stroke="rgb(0, 0, 0)" stroke-linejoin="round" d=" M 171.965, 96.811 167.217, 99.679 167.217, 101.706 167.217, 102.259 167.215, 112.259 167.214, 117.384 167.213, 127.384 167.212, 132.377 167.210, 142.377 167.210, 144.967 167.210, 145.473 167.210, 147.328 173.624, 150.875 " />
            <path fill="none" stroke-width="3.0" stroke-linecap="butt" stroke-opacity="1.0" stroke="rgb(0, 0, 0)" stroke-linejoin="round" d=" M 128.800, 144.391 126.223, 144.560 123.645, 144.390 121.112, 143.886 118.666, 143.055 116.350, 141.913 114.202, 140.478 112.261, 138.774 110.558, 136.833 109.123, 134.685 108.811, 134.053 108.726, 133.881 108.558, 133.539 107.981, 132.369 107.917, 132.180 107.667, 131.445 107.150, 129.923 106.880, 128.564 106.857, 128.450 106.723, 127.777 106.646, 127.390 106.477, 124.812 106.646, 122.235 106.723, 121.848 106.857, 121.175 106.879, 121.061 107.150, 119.702 107.666, 118.180 107.916, 117.445 107.980, 117.256 108.528, 116.144 108.725, 115.743 108.866, 115.459 108.943, 115.302 109.054, 115.077 109.122, 114.939 109.251, 114.745 109.408, 114.511 110.556, 112.791 112.259, 110.849 114.201, 109.146 116.349, 107.710 118.665, 106.567 121.111, 105.736 123.645, 105.232 126.223, 105.063 128.801, 105.231 131.335, 105.735 133.781, 106.565 136.099, 107.707 138.247, 109.143 140.190, 110.846 141.893, 112.788 142.934, 114.346 143.199, 114.742 143.208, 114.756 143.329, 114.937 143.349, 114.977 143.397, 115.074 143.428, 115.138 143.545, 115.376 144.158, 116.619 144.409, 117.127 144.471, 117.254 145.196, 119.387 145.220, 119.458 145.302, 119.700 145.352, 119.954 145.806, 122.234 145.975, 124.813 145.805, 127.391 145.352, 129.671 145.301, 129.925 145.219, 130.167 145.195, 130.238 144.470, 132.371 144.408, 132.497 144.157, 133.006 143.893, 133.541 143.639, 134.055 143.601, 134.133 143.547, 134.243 143.327, 134.688 141.892, 136.836 140.188, 138.778 138.245, 140.481 136.097, 141.916 133.780, 143.058 131.334, 143.888 128.800, 144.391 " />
            <path fill="none" stroke-width="3.0" stroke-linecap="butt" stroke-opacity="1.0" stroke="rgb(0, 0, 0)" stroke-linejoin="round" d=" M 128.317, 140.930 126.189, 141.069 124.061, 140.929 121.970, 140.513 119.951, 139.827 118.039, 138.884 116.266, 137.699 114.663, 136.293 113.258, 134.690 112.073, 132.918 111.826, 132.415 111.799, 132.361 111.228, 131.204 111.130, 131.005 111.124, 130.986 110.445, 128.986 110.344, 128.480 110.291, 128.214 110.029, 126.895 109.889, 124.768 110.029, 122.640 110.291, 121.321 110.344, 121.055 110.444, 120.549 111.123, 118.549 111.130, 118.530 111.227, 118.332 111.923, 116.920 112.072, 116.618 113.257, 114.845 114.662, 113.241 116.265, 111.835 118.038, 110.650 119.951, 109.707 121.970, 109.021 124.061, 108.605 126.189, 108.465 128.317, 108.604 130.409, 109.020 132.428, 109.705 134.341, 110.649 136.114, 111.833 137.718, 113.239 139.124, 114.843 140.147, 116.374 140.309, 116.616 140.844, 117.700 140.948, 117.912 141.252, 118.529 141.728, 119.931 141.780, 120.085 141.938, 120.548 142.278, 122.258 142.354, 122.640 142.493, 124.768 142.353, 126.896 142.277, 127.278 141.937, 128.988 141.780, 129.451 141.728, 129.604 141.251, 131.007 140.947, 131.624 140.843, 131.835 140.583, 132.363 140.489, 132.553 140.308, 132.920 139.123, 134.693 137.717, 136.296 136.113, 137.701 134.340, 138.886 132.427, 139.829 130.408, 140.514 128.317, 140.930 " />
            <path fill="none" stroke-width="3.0" stroke-linecap="butt" stroke-opacity="1.0" stroke="rgb(0, 0, 0)" stroke-linejoin="round" d=" M 127.721, 136.669 126.147, 136.772 124.573, 136.669 123.026, 136.361 121.533, 135.854 120.118, 135.156 118.807, 134.279 117.621, 133.239 116.581, 132.053 115.705, 130.742 115.007, 129.327 114.500, 127.834 114.192, 126.287 114.089, 124.713 114.192, 123.139 114.500, 121.592 115.007, 120.098 115.704, 118.684 116.580, 117.372 117.620, 116.186 118.806, 115.146 120.118, 114.269 121.532, 113.571 123.026, 113.064 124.573, 112.756 126.147, 112.653 127.722, 112.756 129.269, 113.064 130.763, 113.571 132.178, 114.268 133.489, 115.145 134.676, 116.185 135.716, 117.371 136.592, 118.683 137.290, 120.098 137.797, 121.591 138.105, 123.139 138.208, 124.713 138.105, 126.287 137.797, 127.835 137.290, 129.328 136.592, 130.743 135.715, 132.055 134.675, 133.241 133.489, 134.281 132.177, 135.157 130.762, 135.854 129.268, 136.361 127.721, 136.669 " />
            <path fill="none" stroke-width="3.0" stroke-linecap="butt" stroke-opacity="1.0" stroke="rgb(0, 0, 0)" stroke-linejoin="round" d=" M 127.972, 138.465 126.165, 138.583 124.357, 138.464 122.581, 138.111 120.866, 137.528 119.242, 136.727 117.736, 135.721 116.374, 134.527 115.180, 133.165 114.174, 131.659 113.373, 130.035 112.791, 128.320 112.438, 126.543 112.319, 124.736 112.437, 122.929 112.791, 121.153 113.373, 119.437 114.174, 117.813 115.180, 116.307 116.374, 114.945 117.735, 113.751 119.241, 112.744 120.866, 111.943 122.581, 111.360 124.357, 111.007 126.165, 110.888 127.972, 111.006 129.749, 111.360 131.465, 111.942 133.089, 112.743 134.596, 113.749 135.958, 114.943 137.152, 116.305 138.159, 117.812 138.960, 119.436 139.542, 121.152 139.896, 122.929 140.014, 124.736 139.895, 126.544 139.542, 128.320 138.959, 130.036 138.158, 131.660 137.151, 133.166 135.957, 134.528 134.595, 135.722 133.089, 136.729 131.464, 137.529 129.749, 138.111 127.972, 138.465 " />
            <path fill="none" stroke-width="3.0" stroke-linecap="butt" stroke-opacity="1.0" stroke="rgb(0, 0, 0)" stroke-linejoin="round" d=" M 77.268, 146.280 77.266, 136.280 77.264, 126.280 77.262, 116.280 77.261, 106.280 77.260, 104.219 " />
            <path fill="none" stroke-width="3.0" stroke-linecap="butt" stroke-opacity="1.0" stroke="rgb(0, 0, 0)" stroke-linejoin="round" d=" M 78.366, 148.508 78.364, 138.508 78.363, 128.508 78.361, 118.508 78.359, 108.508 78.358, 101.991 " />
            <path fill="none" stroke-width="3.0" stroke-linecap="butt" stroke-opacity="1.0" stroke="rgb(0, 0, 0)" stroke-linejoin="round" d=" M 92.475, 129.029 92.474, 120.969 " />
            <path fill="none" stroke-width="3.0" stroke-linecap="butt" stroke-opacity="1.0" stroke="rgb(0, 0, 0)" stroke-linejoin="round" d=" M 92.999, 131.949 92.998, 121.949 92.998, 118.049 " />
            <path fill="none" stroke-width="3.0" stroke-linecap="butt" stroke-opacity="1.0" stroke="rgb(0, 0, 0)" stroke-linejoin="round" d=" M 102.700, 133.066 102.699, 123.066 102.698, 116.695 " />
            <path fill="none" stroke-width="3.0" stroke-linecap="butt" stroke-opacity="1.0" stroke="rgb(0, 0, 0)" stroke-linejoin="round" d=" M 106.857, 128.450 106.857, 121.175 " />
            <path fill="none" stroke-width="3.0" stroke-linecap="butt" stroke-opacity="1.0" stroke="rgb(0, 0, 0)" stroke-linejoin="round" d=" M 142.278, 122.258 142.277, 127.278 " />
            <path fill="none" stroke-width="3.0" stroke-linecap="butt" stroke-opacity="1.0" stroke="rgb(0, 0, 0)" stroke-linejoin="round" d=" M 145.220, 119.458 145.219, 129.458 145.219, 130.167 " />
            <path fill="none" stroke-width="3.0" stroke-linecap="butt" stroke-opacity="1.0" stroke="rgb(0, 0, 0)" stroke-linejoin="round" d=" M 149.384, 115.294 149.383, 125.294 149.382, 134.467 " />
            <path fill="none" stroke-width="3.0" stroke-linecap="butt" stroke-opacity="1.0" stroke="rgb(0, 0, 0)" stroke-linejoin="round" d=" M 159.097, 134.650 159.098, 125.544 159.098, 124.081 159.100, 115.348 " />
            <path fill="none" stroke-width="3.0" stroke-linecap="butt" stroke-opacity="1.0" stroke="rgb(0, 0, 0)" stroke-linejoin="round" d=" M 159.624, 117.415 159.623, 127.415 159.622, 132.583 " />
            <path fill="none" stroke-width="3.0" stroke-linecap="butt" stroke-opacity="1.0" stroke="rgb(0, 0, 0)" stroke-linejoin="round" d=" M 173.759, 150.601 173.761, 140.601 173.763, 130.601 173.764, 120.601 173.766, 110.601 173.768, 100.601 173.768, 99.898 " />
            <path fill="none" stroke-width="3.0" stroke-linecap="butt" stroke-opacity="1.0" stroke="rgb(0, 0, 0)" stroke-linejoin="round" d=" M 174.868, 102.129 174.867, 112.129 174.865, 122.129 174.863, 132.129 174.861, 142.129 174.860, 148.371 " />
        </g>
    </g>
</svg>
