<?xml version='1.0' encoding='ascii'?>
<svg xmlns="http://www.w3.org/2000/svg" version="1.1" width="250" height="250">
    <g id="ViewLayer_LineSet" xmlns:inkscape="http://www.inkscape.org/namespaces/inkscape" inkscape:groupmode="lineset" inkscape:label="ViewLayer_LineSet">
        <g xmlns:inkscape="http://www.inkscape.org/namespaces/inkscape" inkscape:groupmode="layer" id="strokes" inkscape:label="strokes">
            <path fill="none" stroke-width="3.0" stroke-linecap="butt" stroke-opacity="1.0" stroke="rgb(0, 0, 0)" stroke-linejoin="round" d=" M 262.291, 42.254 253.731, 47.425 248.793, 50.407 248.788, 60.407 248.783, 70.407 248.779, 80.407 248.774, 90.407 248.770, 100.407 248.765, 110.407 248.761, 120.407 248.756, 130.407 248.752, 140.407 248.747, 150.407 248.742, 160.407 248.738, 170.407 248.733, 180.407 248.729, 190.407 248.728, 192.404 257.479, 197.244 266.230, 202.083 266.435, 202.196 " />
            <path fill="none" stroke-width="3.0" stroke-linecap="butt" stroke-opacity="1.0" stroke="rgb(0, 0, 0)" stroke-linejoin="round" d=" M -12.519, 201.214 -3.769, 196.372 3.660, 192.263 3.655, 182.263 3.651, 172.263 3.646, 162.263 3.642, 152.263 3.637, 142.263 3.633, 132.263 3.628, 122.263 3.624, 112.263 3.619, 102.263 3.615, 92.263 3.611, 82.263 3.606, 72.263 3.602, 62.263 3.597, 52.263 3.596, 50.562 -4.962, 45.390 -8.526, 43.236 " />
            <path fill="none" stroke-width="3.0" stroke-linecap="butt" stroke-opacity="1.0" stroke="rgb(0, 0, 0)" stroke-linejoin="round" d=" M 173.771, 44.602 182.088, 50.154 183.941, 51.391 191.462, 57.982 193.158, 59.468 199.754, 66.985 201.242, 68.680 206.216, 76.123 208.052, 78.870 208.551, 79.882 212.975, 88.850 213.473, 89.862 216.687, 99.331 217.412, 101.468 219.361, 111.276 219.801, 113.489 220.452, 123.467 220.599, 125.718 219.941, 135.697 219.792, 137.947 217.837, 147.754 217.396, 149.964 214.176, 159.432 213.450, 161.565 210.942, 166.642 209.053, 170.466 208.024, 172.550 202.462, 180.861 201.209, 182.732 194.610, 190.245 193.125, 191.935 185.601, 198.523 183.909, 200.004 175.590, 205.552 173.720, 206.799 164.747, 211.214 162.732, 212.206 153.259, 215.412 151.133, 216.132 141.324, 218.074 139.123, 218.510 129.144, 219.156 126.906, 219.301 116.928, 218.639 114.692, 218.490 104.886, 216.532 102.690, 216.094 93.222, 212.873 91.103, 212.152 82.137, 207.724 80.131, 206.734 71.818, 201.174 69.959, 199.931 62.443, 193.334 60.763, 191.859 54.171, 184.339 52.698, 182.658 47.143, 174.342 45.902, 172.484 44.510, 169.661 42.656, 165.900 40.491, 161.510 37.276, 152.041 36.564, 149.944 " />
            <path fill="none" stroke-width="3.0" stroke-linecap="butt" stroke-opacity="1.0" stroke="rgb(0, 0, 0)" stroke-linejoin="round" d=" M 223.840, 252.045 231.368, 245.462 238.896, 238.879 239.507, 238.344 246.111, 230.835 252.714, 223.325 253.253, 222.713 " />
            <path fill="none" stroke-width="3.0" stroke-linecap="butt" stroke-opacity="1.0" stroke="rgb(0, 0, 0)" stroke-linejoin="round" d=" M 253.345, 28.874 246.748, 21.359 240.151, 13.843 239.602, 13.218 232.080, 6.629 224.557, 0.041 223.932, -0.507 " />
            <path fill="none" stroke-width="3.0" stroke-linecap="butt" stroke-opacity="1.0" stroke="rgb(0, 0, 0)" stroke-linejoin="round" d=" M 36.572, 149.984 36.564, 149.944 34.611, 140.137 34.182, 137.981 33.525, 128.002 33.378, 125.768 34.028, 115.790 34.174, 113.555 36.120, 103.746 36.556, 101.549 39.765, 92.078 40.484, 89.955 44.099, 82.614 45.298, 80.177 45.892, 78.972 47.246, 76.943 52.687, 68.787 59.274, 61.264 60.753, 59.575 68.266, 52.976 69.953, 51.494 78.263, 45.931 80.130, 44.681 89.095, 40.251 91.111, 39.254 100.578, 36.032 102.708, 35.307 112.514, 33.348 114.721, 32.907 124.700, 32.245 126.947, 32.096 136.926, 32.742 139.176, 32.888 148.985, 34.832 151.197, 35.270 160.668, 38.478 162.805, 39.202 171.776, 43.620 173.771, 44.602 173.801, 44.617 " />
            <path fill="none" stroke-width="3.0" stroke-linecap="butt" stroke-opacity="1.0" stroke="rgb(0, 0, 0)" stroke-linejoin="round" d=" M 30.209, -0.300 22.700, 6.304 15.191, 12.907 14.595, 13.431 8.011, 20.958 1.428, 28.486 0.908, 29.080 -4.638, 37.401 -8.526, 43.236 " />
            <path fill="none" stroke-width="3.0" stroke-linecap="butt" stroke-opacity="1.0" stroke="rgb(0, 0, 0)" stroke-linejoin="round" d=" M -10.540, 205.226 -4.987, 213.542 0.567, 221.858 0.996, 222.501 7.586, 230.023 14.176, 237.544 14.686, 238.126 22.200, 244.724 29.714, 251.323 30.297, 251.834 " />
            <path fill="none" stroke-width="3.0" stroke-linecap="butt" stroke-opacity="1.0" stroke="rgb(0, 0, 0)" stroke-linejoin="round" d=" M 57.935, 162.233 58.898, 164.186 64.453, 172.501 64.569, 172.675 71.160, 180.195 71.298, 180.352 78.815, 186.948 78.972, 187.086 87.285, 192.645 87.459, 192.762 96.426, 197.189 96.615, 197.282 106.082, 200.502 106.283, 200.570 116.089, 202.527 116.297, 202.568 126.275, 203.229 126.488, 203.243 136.467, 202.596 136.680, 202.582 146.489, 200.638 146.700, 200.596 156.172, 197.389 156.376, 197.320 165.348, 192.903 165.542, 192.808 173.861, 187.258 174.042, 187.137 181.565, 180.549 181.729, 180.405 188.328, 172.891 188.473, 172.726 194.034, 164.415 194.156, 164.232 194.933, 162.658 " />
            <path fill="none" stroke-width="3.0" stroke-linecap="butt" stroke-opacity="1.0" stroke="rgb(0, 0, 0)" stroke-linejoin="round" d=" M 132.604, 171.618 126.488, 172.017 120.373, 171.613 114.363, 170.416 108.560, 168.444 103.065, 165.732 97.971, 162.327 93.365, 158.286 89.326, 153.679 85.922, 148.584 85.211, 147.141 84.283, 145.258 83.439, 143.548 83.213, 143.089 82.564, 141.179 81.243, 137.287 80.047, 131.277 79.646, 125.163 80.045, 119.049 81.239, 113.039 82.559, 109.146 83.207, 107.236 83.434, 106.776 84.414, 104.788 85.780, 102.015 85.916, 101.739 86.594, 100.723 89.319, 96.642 93.358, 92.033 97.964, 87.990 103.059, 84.583 108.555, 81.869 114.359, 79.896 120.371, 78.698 126.489, 78.295 132.607, 78.693 138.620, 79.887 144.427, 81.856 149.927, 84.567 155.027, 87.972 159.638, 92.015 163.682, 96.625 166.153, 100.322 167.089, 101.723 167.225, 101.999 167.697, 102.956 168.682, 104.953 169.558, 106.729 169.802, 107.223 171.772, 113.030 172.968, 119.045 173.368, 125.164 172.966, 131.283 171.768, 137.297 169.796, 143.102 169.552, 143.596 168.675, 145.372 168.548, 145.630 167.603, 147.545 167.082, 148.600 163.674, 153.697 159.629, 158.305 155.018, 162.345 149.920, 165.749 144.421, 168.457 138.616, 170.425 132.604, 171.618 " />
            <path fill="none" stroke-width="3.0" stroke-linecap="butt" stroke-opacity="1.0" stroke="rgb(0, 0, 0)" stroke-linejoin="round" d=" M 192.896, 84.169 188.495, 77.585 181.900, 70.068 181.753, 69.900 174.232, 63.309 174.064, 63.162 165.748, 57.610 165.563, 57.487 156.592, 53.068 156.393, 52.970 146.922, 49.760 146.712, 49.689 136.903, 47.744 136.687, 47.701 126.708, 47.054 126.489, 47.040 116.511, 47.700 116.292, 47.715 106.486, 49.673 106.272, 49.715 96.805, 52.936 96.600, 53.006 87.634, 57.436 87.441, 57.531 79.130, 63.093 78.951, 63.212 71.437, 69.811 71.277, 69.952 64.688, 77.475 64.548, 77.635 59.904, 84.593 " />
            <path fill="none" stroke-width="3.0" stroke-linecap="butt" stroke-opacity="1.0" stroke="rgb(0, 0, 0)" stroke-linejoin="round" d=" M 206.216, 76.123 199.601, 80.119 199.601, 81.610 199.600, 84.728 199.597, 94.728 199.596, 97.901 199.594, 107.901 199.591, 117.901 199.588, 127.901 199.585, 137.901 199.583, 147.901 199.581, 152.421 199.579, 161.010 199.578, 163.862 199.578, 165.226 208.329, 170.066 209.053, 170.466 " />
            <path fill="none" stroke-width="3.0" stroke-linecap="butt" stroke-opacity="1.0" stroke="rgb(0, 0, 0)" stroke-linejoin="round" d=" M 44.510, 169.661 52.616, 165.175 52.616, 163.813 52.615, 160.962 52.612, 150.962 52.612, 149.813 52.609, 139.813 52.607, 129.813 52.604, 119.813 52.602, 109.813 52.599, 100.509 52.596, 90.509 52.595, 84.780 52.594, 81.664 52.594, 80.175 47.246, 76.943 " />
            <path fill="none" stroke-width="3.0" stroke-linecap="butt" stroke-opacity="1.0" stroke="rgb(0, 0, 0)" stroke-linejoin="round" d=" M 52.616, 163.813 55.077, 163.814 57.935, 162.233 66.685, 157.391 68.650, 156.304 68.648, 146.304 68.646, 136.304 68.644, 126.304 68.642, 116.304 68.640, 106.304 68.638, 96.304 68.637, 89.870 60.078, 84.698 59.904, 84.593 55.056, 81.663 52.594, 81.664 " />
            <path fill="none" stroke-width="3.0" stroke-linecap="butt" stroke-opacity="1.0" stroke="rgb(0, 0, 0)" stroke-linejoin="round" d=" M 55.077, 163.814 55.075, 156.433 55.072, 146.433 55.070, 136.433 55.067, 126.433 55.065, 116.433 55.062, 106.433 55.060, 96.433 55.059, 93.886 55.056, 83.886 55.056, 81.663 " />
            <path fill="none" stroke-width="3.0" stroke-linecap="butt" stroke-opacity="1.0" stroke="rgb(0, 0, 0)" stroke-linejoin="round" d=" M 199.601, 81.610 197.132, 81.611 192.896, 84.169 184.336, 89.339 183.513, 89.837 183.511, 99.837 183.508, 109.837 183.506, 119.837 183.504, 129.837 183.502, 139.837 183.500, 149.837 183.498, 156.335 192.250, 161.174 194.933, 162.658 197.110, 163.862 199.578, 163.862 " />
            <path fill="none" stroke-width="3.0" stroke-linecap="butt" stroke-opacity="1.0" stroke="rgb(0, 0, 0)" stroke-linejoin="round" d=" M 197.110, 163.862 197.111, 158.248 197.114, 148.248 197.116, 138.248 197.119, 128.248 197.122, 118.248 197.124, 108.248 197.127, 98.248 197.129, 92.072 197.131, 82.072 197.132, 81.611 " />
            <path fill="none" stroke-width="3.0" stroke-linecap="butt" stroke-opacity="1.0" stroke="rgb(0, 0, 0)" stroke-linejoin="round" d=" M 130.393, 155.795 126.334, 156.060 122.274, 155.793 118.285, 154.998 114.433, 153.690 110.785, 151.890 107.403, 149.630 107.344, 149.577 104.346, 146.947 101.664, 143.889 99.404, 140.507 98.681, 139.041 98.336, 138.340 98.316, 138.299 97.606, 136.859 96.821, 134.547 96.298, 133.007 95.518, 129.086 95.504, 129.018 95.238, 124.959 95.503, 120.901 95.517, 120.833 96.296, 116.911 96.819, 115.371 97.603, 113.059 98.333, 111.577 99.120, 109.981 99.402, 109.410 99.848, 108.741 99.852, 108.736 101.661, 106.027 104.342, 102.968 107.400, 100.285 110.782, 98.024 114.431, 96.223 118.283, 94.914 122.274, 94.119 126.334, 93.852 130.395, 94.117 134.386, 94.910 138.240, 96.217 141.890, 98.017 145.274, 100.277 148.334, 102.960 151.018, 106.019 152.827, 108.727 153.279, 109.403 153.435, 109.720 153.755, 110.369 155.052, 113.000 155.079, 113.053 155.270, 113.617 156.387, 116.907 156.576, 117.858 156.963, 119.802 157.023, 120.105 157.181, 120.899 157.446, 124.960 157.180, 129.021 157.022, 129.814 156.961, 130.117 156.574, 132.061 156.385, 133.012 155.268, 136.302 155.076, 136.865 154.248, 138.543 153.999, 139.048 153.752, 139.549 153.276, 140.514 151.014, 143.897 148.330, 146.956 145.270, 149.638 141.886, 151.897 138.237, 153.696 134.384, 155.003 130.393, 155.795 " />
            <path fill="none" stroke-width="3.0" stroke-linecap="butt" stroke-opacity="1.0" stroke="rgb(0, 0, 0)" stroke-linejoin="round" d=" M 166.153, 100.322 163.375, 102.000 163.375, 103.679 163.375, 104.339 163.373, 113.429 163.372, 123.429 163.371, 133.429 163.370, 136.289 163.369, 143.063 163.369, 143.668 163.369, 145.204 167.603, 147.545 " />
            <path fill="none" stroke-width="3.0" stroke-linecap="butt" stroke-opacity="1.0" stroke="rgb(0, 0, 0)" stroke-linejoin="round" d=" M 85.211, 147.141 88.735, 145.191 88.735, 143.655 88.735, 143.050 88.734, 135.001 88.733, 125.001 88.731, 115.001 88.731, 114.716 88.730, 104.716 88.730, 104.353 88.730, 103.692 88.730, 102.014 86.594, 100.723 " />
            <path fill="none" stroke-width="3.0" stroke-linecap="butt" stroke-opacity="1.0" stroke="rgb(0, 0, 0)" stroke-linejoin="round" d=" M 129.303, 147.992 126.258, 148.190 123.212, 147.990 120.219, 147.394 117.330, 146.413 114.593, 145.063 112.056, 143.367 109.762, 141.355 107.750, 139.060 106.055, 136.523 105.700, 135.805 105.521, 135.442 105.472, 135.342 105.238, 134.867 104.975, 134.333 104.705, 133.786 104.280, 132.536 104.078, 131.940 103.973, 131.631 103.724, 130.897 103.129, 127.904 102.929, 124.859 103.128, 121.814 103.723, 118.821 103.972, 118.086 104.077, 117.777 104.279, 117.181 104.704, 115.931 104.973, 115.384 105.606, 114.100 105.905, 113.494 106.053, 113.194 106.332, 112.775 106.354, 112.743 107.748, 110.656 109.760, 108.361 112.054, 106.348 114.591, 104.652 117.328, 103.302 120.219, 102.320 123.212, 101.724 126.258, 101.523 129.304, 101.723 132.298, 102.318 135.189, 103.298 137.927, 104.648 140.465, 106.344 142.761, 108.356 144.774, 110.652 146.004, 112.492 146.117, 112.662 146.190, 112.771 146.470, 113.190 146.587, 113.427 147.106, 114.479 147.799, 115.885 147.820, 115.928 148.001, 116.462 148.108, 116.776 148.801, 118.819 149.397, 121.813 149.544, 124.059 149.596, 124.859 149.544, 125.659 149.396, 127.905 148.800, 130.899 148.106, 132.942 148.000, 133.255 147.818, 133.790 147.797, 133.832 147.198, 135.048 147.104, 135.238 147.051, 135.345 147.001, 135.446 146.727, 136.002 146.468, 136.527 144.771, 139.065 142.758, 141.360 140.463, 143.372 137.925, 145.067 135.187, 146.416 132.297, 147.397 129.303, 147.992 " />
            <path fill="none" stroke-width="3.0" stroke-linecap="butt" stroke-opacity="1.0" stroke="rgb(0, 0, 0)" stroke-linejoin="round" d=" M 128.215, 140.202 126.182, 140.335 124.149, 140.202 122.150, 139.804 120.221, 139.149 118.394, 138.248 116.700, 137.116 115.168, 135.772 113.825, 134.240 112.693, 132.546 112.368, 131.887 112.365, 131.882 112.215, 131.576 112.194, 131.535 112.148, 131.440 111.958, 131.055 111.873, 130.884 111.792, 130.719 111.786, 130.702 111.713, 130.487 111.616, 130.200 111.248, 129.117 111.137, 128.790 110.888, 127.538 110.784, 127.013 110.739, 126.792 110.606, 124.759 110.739, 122.725 110.783, 122.504 110.888, 121.979 111.137, 120.727 111.248, 120.400 111.615, 119.317 111.713, 119.030 111.791, 118.798 111.873, 118.632 111.957, 118.461 112.365, 117.635 112.525, 117.310 112.558, 117.242 112.692, 116.970 112.716, 116.934 112.747, 116.889 112.781, 116.837 112.918, 116.633 113.824, 115.276 115.167, 113.744 116.699, 112.400 118.393, 111.268 120.220, 110.367 122.150, 109.711 124.148, 109.314 126.182, 109.180 128.215, 109.313 130.214, 109.710 132.144, 110.365 133.972, 111.266 135.660, 112.394 135.666, 112.398 137.198, 113.742 138.542, 115.274 139.394, 116.548 139.620, 116.887 139.651, 116.933 139.675, 116.969 139.705, 117.031 139.753, 117.127 140.112, 117.856 140.197, 118.027 140.358, 118.354 140.456, 118.552 140.576, 118.796 140.822, 119.523 141.184, 120.588 141.231, 120.726 141.287, 121.010 141.628, 122.725 141.695, 123.743 141.762, 124.759 141.695, 125.775 141.628, 126.792 141.287, 128.507 141.230, 128.791 141.183, 128.930 140.822, 129.994 140.575, 130.721 140.455, 130.965 140.357, 131.162 140.196, 131.490 140.152, 131.578 139.999, 131.888 139.886, 132.119 139.847, 132.197 139.674, 132.548 138.541, 134.242 137.197, 135.774 135.665, 137.118 133.971, 138.249 132.143, 139.150 130.213, 139.805 128.215, 140.202 " />
            <path fill="none" stroke-width="3.0" stroke-linecap="butt" stroke-opacity="1.0" stroke="rgb(0, 0, 0)" stroke-linejoin="round" d=" M 128.652, 143.334 126.212, 143.494 123.772, 143.333 121.374, 142.856 119.058, 142.069 116.866, 140.988 114.833, 139.629 112.994, 138.017 111.382, 136.178 110.024, 134.145 109.740, 133.569 109.566, 133.217 109.516, 133.114 109.427, 132.934 109.386, 132.851 109.369, 132.818 109.136, 132.344 108.942, 131.952 108.566, 130.842 108.408, 130.377 108.156, 129.637 107.726, 127.472 107.679, 127.239 107.604, 126.085 107.519, 124.799 107.604, 123.512 107.679, 122.359 107.726, 122.125 108.156, 119.961 108.407, 119.220 108.565, 118.756 108.942, 117.645 109.135, 117.254 109.385, 116.746 109.515, 116.483 109.854, 115.795 110.023, 115.452 110.054, 115.406 110.260, 115.097 110.294, 115.047 111.381, 113.419 112.993, 111.580 114.831, 109.967 116.865, 108.608 119.058, 107.526 121.373, 106.740 123.772, 106.262 126.212, 106.102 128.653, 106.261 131.052, 106.738 133.368, 107.524 135.562, 108.606 137.596, 109.964 139.435, 111.577 141.047, 113.416 142.033, 114.891 142.169, 115.094 142.375, 115.403 142.406, 115.449 142.500, 115.640 142.558, 115.758 142.688, 116.021 142.938, 116.527 143.488, 117.643 143.508, 117.702 143.667, 118.171 144.274, 119.959 144.350, 120.338 144.471, 120.946 144.616, 121.675 144.751, 122.358 144.911, 124.799 144.751, 127.240 144.615, 127.922 144.470, 128.651 144.349, 129.260 144.274, 129.638 143.666, 131.427 143.507, 131.895 143.487, 131.954 142.863, 133.219 142.687, 133.576 142.628, 133.696 142.405, 134.148 141.046, 136.181 139.433, 138.020 137.594, 139.632 135.560, 140.990 133.367, 142.072 131.051, 142.857 128.652, 143.334 " />
            <path fill="none" stroke-width="3.0" stroke-linecap="butt" stroke-opacity="1.0" stroke="rgb(0, 0, 0)" stroke-linejoin="round" d=" M 127.904, 137.975 126.160, 138.089 124.416, 137.974 122.703, 137.633 121.048, 137.071 119.481, 136.298 118.028, 135.328 116.714, 134.175 115.562, 132.862 114.592, 131.409 114.389, 130.997 114.309, 130.836 114.293, 130.802 114.234, 130.684 114.181, 130.576 113.926, 130.060 113.891, 129.988 113.819, 129.842 113.434, 128.709 113.417, 128.659 113.367, 128.510 113.342, 128.437 113.257, 128.187 112.916, 126.473 112.869, 125.747 112.802, 124.730 112.869, 123.713 112.916, 122.986 113.257, 121.272 113.342, 121.023 113.366, 120.950 113.417, 120.800 113.434, 120.751 113.818, 119.618 113.891, 119.471 113.926, 119.400 114.234, 118.775 114.591, 118.051 114.637, 117.982 114.680, 117.918 114.741, 117.827 114.785, 117.761 115.562, 116.598 116.714, 115.284 118.028, 114.131 119.480, 113.160 121.048, 112.387 122.702, 111.825 124.416, 111.484 126.160, 111.370 127.904, 111.484 129.618, 111.824 131.273, 112.386 132.841, 113.159 134.294, 114.130 135.608, 115.282 136.760, 116.596 137.464, 117.650 137.496, 117.696 137.520, 117.733 137.685, 117.981 137.731, 118.049 137.834, 118.258 138.142, 118.882 138.177, 118.953 138.504, 119.617 138.634, 119.999 138.652, 120.050 138.702, 120.198 138.727, 120.273 139.066, 121.272 139.200, 121.945 139.288, 122.388 139.407, 122.986 139.521, 124.730 139.407, 126.474 139.288, 127.072 139.200, 127.515 139.066, 128.188 138.727, 129.186 138.701, 129.262 138.651, 129.409 138.634, 129.461 138.504, 129.843 138.176, 130.507 138.142, 130.577 138.142, 130.577 138.030, 130.804 138.013, 130.837 137.891, 131.084 137.731, 131.410 136.760, 132.863 135.607, 134.177 134.293, 135.329 132.840, 136.300 131.273, 137.072 129.618, 137.634 127.904, 137.975 " />
            <path fill="none" stroke-width="3.0" stroke-linecap="butt" stroke-opacity="1.0" stroke="rgb(0, 0, 0)" stroke-linejoin="round" d=" M 127.669, 136.296 126.144, 136.395 124.618, 136.295 123.119, 135.997 121.671, 135.505 120.300, 134.829 119.029, 133.980 117.880, 132.972 116.872, 131.822 116.023, 130.551 115.347, 129.180 115.150, 128.602 114.855, 127.733 114.741, 127.158 114.680, 126.853 114.557, 126.234 114.457, 124.708 114.557, 123.183 114.680, 122.563 114.741, 122.259 114.855, 121.683 115.150, 120.814 115.346, 120.236 116.022, 118.865 116.872, 117.593 117.879, 116.444 119.029, 115.436 120.300, 114.586 121.671, 113.910 123.119, 113.418 124.618, 113.120 126.144, 113.020 127.669, 113.120 129.169, 113.418 130.617, 113.909 131.988, 114.585 133.260, 115.435 134.409, 116.443 135.417, 117.592 136.267, 118.864 136.917, 120.182 136.943, 120.235 137.327, 121.365 137.387, 121.544 137.435, 121.683 137.733, 123.182 137.833, 124.708 137.733, 126.234 137.434, 127.733 137.387, 127.873 137.326, 128.051 136.943, 129.181 136.917, 129.234 136.266, 130.552 135.417, 131.824 134.409, 132.973 133.259, 133.981 131.988, 134.830 130.616, 135.506 129.169, 135.998 127.669, 136.296 " />
            <path fill="none" stroke-width="3.0" stroke-linecap="butt" stroke-opacity="1.0" stroke="rgb(0, 0, 0)" stroke-linejoin="round" d=" M 127.339, 133.931 126.121, 134.011 124.902, 133.931 123.705, 133.693 122.549, 133.300 121.454, 132.760 120.439, 132.082 119.521, 131.277 118.716, 130.359 118.038, 129.344 117.498, 128.249 117.106, 127.093 116.868, 125.896 116.788, 124.678 116.867, 123.459 117.106, 122.262 117.498, 121.106 118.038, 120.011 118.716, 118.996 119.521, 118.078 120.439, 117.273 121.454, 116.595 122.549, 116.054 123.705, 115.662 124.902, 115.424 126.121, 115.344 127.339, 115.423 128.537, 115.662 129.693, 116.054 130.788, 116.594 131.803, 117.272 132.721, 118.077 133.526, 118.995 134.205, 120.010 134.745, 121.106 135.137, 122.262 135.375, 123.459 135.455, 124.678 135.375, 125.896 135.137, 127.094 134.744, 128.250 134.204, 129.345 133.526, 130.360 132.721, 131.278 131.803, 132.083 130.788, 132.761 129.692, 133.301 128.536, 133.693 127.339, 133.931 " />
            <path fill="none" stroke-width="3.0" stroke-linecap="butt" stroke-opacity="1.0" stroke="rgb(0, 0, 0)" stroke-linejoin="round" d=" M 127.484, 134.972 126.131, 135.061 124.777, 134.972 123.447, 134.707 122.163, 134.271 120.946, 133.671 119.818, 132.917 118.799, 132.023 117.904, 131.003 117.151, 129.876 116.551, 128.659 116.115, 127.375 115.850, 126.045 115.762, 124.691 115.850, 123.338 116.115, 122.007 116.551, 120.723 117.151, 119.506 117.904, 118.379 118.798, 117.359 119.818, 116.464 120.946, 115.711 122.162, 115.110 123.447, 114.674 124.777, 114.410 126.131, 114.321 127.484, 114.409 128.815, 114.674 130.100, 115.110 131.316, 115.710 132.444, 116.463 133.464, 117.358 134.359, 118.378 135.112, 119.506 135.712, 120.722 136.148, 122.007 136.413, 123.337 136.502, 124.691 136.413, 126.045 136.148, 127.375 135.712, 128.660 135.112, 129.876 134.358, 131.004 133.464, 132.024 132.444, 132.918 131.316, 133.672 130.099, 134.272 128.815, 134.708 127.484, 134.972 " />
            <path fill="none" stroke-width="3.0" stroke-linecap="butt" stroke-opacity="1.0" stroke="rgb(0, 0, 0)" stroke-linejoin="round" d=" M 82.564, 141.179 82.563, 131.179 82.561, 121.179 82.560, 111.179 82.559, 109.146 " />
            <path fill="none" stroke-width="3.0" stroke-linecap="butt" stroke-opacity="1.0" stroke="rgb(0, 0, 0)" stroke-linejoin="round" d=" M 83.439, 143.548 83.438, 133.548 83.436, 123.548 83.435, 113.548 83.434, 106.776 " />
            <path fill="none" stroke-width="3.0" stroke-linecap="butt" stroke-opacity="1.0" stroke="rgb(0, 0, 0)" stroke-linejoin="round" d=" M 95.518, 129.086 95.517, 120.833 " />
            <path fill="none" stroke-width="3.0" stroke-linecap="butt" stroke-opacity="1.0" stroke="rgb(0, 0, 0)" stroke-linejoin="round" d=" M 98.336, 138.340 98.336, 138.289 98.335, 128.289 98.334, 118.289 98.333, 111.577 " />
            <path fill="none" stroke-width="3.0" stroke-linecap="butt" stroke-opacity="1.0" stroke="rgb(0, 0, 0)" stroke-linejoin="round" d=" M 103.973, 131.631 103.973, 125.868 103.973, 123.592 103.972, 118.086 " />
            <path fill="none" stroke-width="3.0" stroke-linecap="butt" stroke-opacity="1.0" stroke="rgb(0, 0, 0)" stroke-linejoin="round" d=" M 107.726, 127.472 107.726, 122.125 " />
            <path fill="none" stroke-width="3.0" stroke-linecap="butt" stroke-opacity="1.0" stroke="rgb(0, 0, 0)" stroke-linejoin="round" d=" M 141.695, 123.743 141.695, 125.775 " />
            <path fill="none" stroke-width="3.0" stroke-linecap="butt" stroke-opacity="1.0" stroke="rgb(0, 0, 0)" stroke-linejoin="round" d=" M 144.350, 120.338 144.349, 129.260 " />
            <path fill="none" stroke-width="3.0" stroke-linecap="butt" stroke-opacity="1.0" stroke="rgb(0, 0, 0)" stroke-linejoin="round" d=" M 148.108, 116.776 148.107, 121.156 148.107, 128.304 148.106, 132.942 " />
            <path fill="none" stroke-width="3.0" stroke-linecap="butt" stroke-opacity="1.0" stroke="rgb(0, 0, 0)" stroke-linejoin="round" d=" M 153.755, 110.369 153.754, 120.369 153.753, 130.369 153.752, 138.297 153.752, 139.048 153.752, 139.268 153.752, 139.549 " />
            <path fill="none" stroke-width="3.0" stroke-linecap="butt" stroke-opacity="1.0" stroke="rgb(0, 0, 0)" stroke-linejoin="round" d=" M 156.574, 132.061 156.574, 131.574 156.576, 121.574 156.576, 118.023 156.576, 117.858 " />
            <path fill="none" stroke-width="3.0" stroke-linecap="butt" stroke-opacity="1.0" stroke="rgb(0, 0, 0)" stroke-linejoin="round" d=" M 157.023, 120.105 157.023, 120.270 157.022, 129.328 157.022, 129.814 " />
            <path fill="none" stroke-width="3.0" stroke-linecap="butt" stroke-opacity="1.0" stroke="rgb(0, 0, 0)" stroke-linejoin="round" d=" M 168.675, 145.372 168.677, 135.372 168.678, 125.372 168.680, 115.372 168.682, 105.372 168.682, 104.953 " />
            <path fill="none" stroke-width="3.0" stroke-linecap="butt" stroke-opacity="1.0" stroke="rgb(0, 0, 0)" stroke-linejoin="round" d=" M 169.558, 106.729 169.556, 116.729 169.555, 126.729 169.553, 136.729 169.552, 143.596 " />
        </g>
    </g>
</svg>
