<?xml version='1.0' encoding='ascii'?>
<svg xmlns="http://www.w3.org/2000/svg" version="1.1" width="250" height="250">
    <g id="ViewLayer_LineSet" xmlns:inkscape="http://www.inkscape.org/namespaces/inkscape" inkscape:groupmode="lineset" inkscape:label="ViewLayer_LineSet">
        <g xmlns:inkscape="http://www.inkscape.org/namespaces/inkscape" inkscape:groupmode="layer" id="strokes" inkscape:label="strokes">
            <path fill="none" stroke-width="3.0" stroke-linecap="butt" stroke-opacity="1.0" stroke="rgb(0, 0, 0)" stroke-linejoin="round" d=" M 18.369, 184.124 19.906, 187.242 25.460, 195.558 28.871, 200.665 35.462, 208.186 39.510, 212.805 47.026, 219.402 51.642, 223.455 59.954, 229.016 65.060, 232.433 74.026, 236.863 79.536, 239.585 89.002, 242.807 94.822, 244.789 104.628, 246.749 110.658, 247.954 120.636, 248.618 126.774, 249.027 136.754, 248.384 142.895, 247.988 152.705, 246.048 158.744, 244.854 168.217, 241.651 174.051, 239.678 183.025, 235.265 188.554, 232.547 196.875, 227.001 202.003, 223.582 209.529, 216.997 214.169, 212.937 220.770, 205.426 224.842, 200.793 230.406, 192.483 233.839, 187.357 235.075, 184.855 " />
            <path fill="none" stroke-width="3.0" stroke-linecap="butt" stroke-opacity="1.0" stroke="rgb(0, 0, 0)" stroke-linejoin="round" d=" M 136.338, 198.345 126.748, 198.967 117.161, 198.333 107.739, 196.453 98.643, 193.360 90.029, 189.107 82.044, 183.768 74.824, 177.432 68.492, 170.209 63.157, 162.222 62.041, 159.960 61.419, 158.698 60.942, 157.730 60.586, 157.009 59.132, 154.061 58.909, 153.608 57.181, 148.518 55.821, 144.512 53.946, 135.092 53.315, 125.508 53.941, 115.922 55.811, 106.500 57.169, 102.494 58.895, 97.402 59.119, 96.949 62.476, 90.132 63.140, 88.783 63.455, 88.311 64.161, 87.254 64.203, 87.191 68.473, 80.792 74.805, 73.564 82.025, 67.223 90.013, 61.879 98.630, 57.622 107.730, 54.526 117.157, 52.645 126.750, 52.010 136.344, 52.633 145.775, 54.504 154.883, 57.590 163.509, 61.839 171.508, 67.179 178.740, 73.519 185.083, 80.748 188.959, 86.547 189.405, 87.214 190.112, 88.272 190.428, 88.745 190.797, 89.494 193.053, 94.068 194.682, 97.371 195.008, 98.333 197.773, 106.478 199.648, 115.912 200.275, 125.509 199.643, 135.105 197.763, 144.537 194.994, 152.680 194.667, 153.641 193.037, 156.942 192.710, 157.605 192.630, 157.767 192.152, 158.736 191.227, 160.609 190.410, 162.263 185.063, 170.255 178.720, 177.479 171.488, 183.813 163.491, 189.148 154.868, 193.393 145.765, 196.476 136.338, 198.345 " />
            <path fill="none" stroke-width="3.0" stroke-linecap="butt" stroke-opacity="1.0" stroke="rgb(0, 0, 0)" stroke-linejoin="round" d=" M 231.843, 60.645 226.286, 52.331 224.897, 50.254 218.301, 42.738 214.226, 38.095 206.705, 31.505 202.059, 27.434 193.741, 21.884 188.604, 18.456 179.632, 14.040 174.092, 11.313 164.620, 8.107 158.774, 6.128 148.964, 4.186 142.911, 2.988 132.932, 2.344 126.776, 1.947 116.798, 2.612 110.646, 3.021 100.840, 4.983 94.796, 6.192 85.330, 9.418 79.498, 11.405 70.534, 15.838 65.013, 18.568 56.705, 24.133 51.590, 27.559 44.078, 34.161 39.456, 38.223 32.870, 45.748 28.818, 50.378 23.271, 58.698 21.486, 61.374 " />
            <path fill="none" stroke-width="3.0" stroke-linecap="butt" stroke-opacity="1.0" stroke="rgb(0, 0, 0)" stroke-linejoin="round" d=" M 261.964, 42.452 253.404, 47.622 244.844, 52.792 236.285, 57.962 231.843, 60.645 223.284, 65.815 219.588, 68.047 219.584, 78.047 219.581, 88.047 219.577, 98.047 219.574, 108.047 219.570, 118.047 219.567, 128.047 219.563, 138.047 219.560, 148.047 219.556, 158.047 219.553, 168.047 219.550, 176.270 228.301, 181.109 235.075, 184.855 243.826, 189.694 252.577, 194.533 261.329, 199.372 261.885, 199.680 " />
            <path fill="none" stroke-width="3.0" stroke-linecap="butt" stroke-opacity="1.0" stroke="rgb(0, 0, 0)" stroke-linejoin="round" d=" M -9.432, 199.506 -0.682, 194.664 8.068, 189.823 16.818, 184.982 18.369, 184.124 27.119, 179.283 32.713, 176.188 32.709, 166.188 32.706, 156.188 32.703, 146.188 32.699, 136.188 32.696, 126.188 32.693, 116.188 32.689, 106.188 32.686, 96.188 32.682, 86.188 32.679, 76.188 32.676, 68.137 24.118, 62.965 21.486, 61.374 12.928, 56.202 4.369, 51.029 -4.189, 45.857 -9.509, 42.642 " />
            <path fill="none" stroke-width="3.0" stroke-linecap="butt" stroke-opacity="1.0" stroke="rgb(0, 0, 0)" stroke-linejoin="round" d=" M 66.264, 157.624 67.110, 159.338 72.087, 166.789 77.994, 173.527 84.729, 179.437 92.178, 184.418 100.214, 188.385 108.699, 191.270 117.488, 193.023 126.432, 193.614 135.377, 193.033 144.170, 191.290 152.662, 188.413 160.706, 184.453 168.164, 179.476 174.910, 173.567 180.827, 166.828 185.814, 159.374 186.608, 157.766 " />
            <path fill="none" stroke-width="3.0" stroke-linecap="butt" stroke-opacity="1.0" stroke="rgb(0, 0, 0)" stroke-linejoin="round" d=" M 131.799, 165.858 126.432, 166.208 121.065, 165.855 115.790, 164.804 110.698, 163.074 105.875, 160.694 101.405, 157.705 97.362, 154.159 93.817, 150.115 90.830, 145.644 90.205, 144.378 89.761, 143.477 88.451, 140.821 87.874, 139.120 87.430, 137.813 86.723, 135.729 86.713, 135.681 85.673, 130.455 85.321, 125.089 85.672, 119.723 86.710, 114.497 86.720, 114.448 87.427, 112.364 87.870, 111.057 88.447, 109.355 90.825, 104.531 91.255, 103.886 91.420, 103.640 93.811, 100.058 97.356, 96.013 101.399, 92.466 105.870, 89.475 110.694, 87.094 115.788, 85.363 121.064, 84.312 126.432, 83.958 131.801, 84.308 137.079, 85.356 142.175, 87.084 147.001, 89.463 151.476, 92.452 155.523, 95.999 159.071, 100.045 161.240, 103.290 161.630, 103.874 162.061, 104.519 164.234, 108.924 164.442, 109.346 164.680, 110.049 165.399, 112.165 166.171, 114.442 167.221, 119.720 167.572, 125.090 167.219, 130.459 166.168, 135.737 165.395, 138.013 164.676, 140.128 164.437, 140.832 164.229, 141.253 163.126, 143.489 162.513, 144.731 162.056, 145.657 159.065, 150.130 155.516, 154.174 151.470, 157.719 146.996, 160.706 142.170, 163.084 137.075, 164.811 131.799, 165.858 " />
            <path fill="none" stroke-width="3.0" stroke-linecap="butt" stroke-opacity="1.0" stroke="rgb(0, 0, 0)" stroke-linejoin="round" d=" M 184.706, 89.116 180.844, 83.338 174.928, 76.594 168.182, 70.681 160.721, 65.700 152.675, 61.736 144.180, 58.857 135.382, 57.112 126.432, 56.530 117.484, 57.122 108.691, 58.877 100.202, 61.764 92.164, 65.735 84.713, 70.720 77.977, 76.634 72.071, 83.376 67.995, 89.483 " />
            <path fill="none" stroke-width="3.0" stroke-linecap="butt" stroke-opacity="1.0" stroke="rgb(0, 0, 0)" stroke-linejoin="round" d=" M 188.959, 86.547 187.854, 87.214 187.854, 88.273 187.853, 91.087 187.852, 94.899 187.850, 104.899 187.848, 114.899 187.845, 124.899 187.843, 134.899 187.841, 144.899 187.838, 155.191 187.838, 155.274 187.838, 157.766 187.838, 158.734 191.227, 160.609 " />
            <path fill="none" stroke-width="3.0" stroke-linecap="butt" stroke-opacity="1.0" stroke="rgb(0, 0, 0)" stroke-linejoin="round" d=" M 62.041, 159.960 64.323, 158.698 64.322, 157.731 64.322, 155.156 64.321, 153.684 64.319, 143.684 64.317, 133.684 64.315, 123.684 64.313, 113.684 64.310, 103.684 64.309, 96.488 64.308, 91.124 64.307, 88.311 64.307, 87.254 64.203, 87.191 " />
            <path fill="none" stroke-width="3.0" stroke-linecap="butt" stroke-opacity="1.0" stroke="rgb(0, 0, 0)" stroke-linejoin="round" d=" M 64.322, 157.731 66.070, 157.731 66.264, 157.624 75.014, 152.783 76.060, 152.204 76.059, 149.589 76.059, 149.336 76.057, 139.336 76.055, 129.336 76.054, 119.336 76.052, 109.336 76.050, 99.336 76.050, 97.485 76.050, 97.208 76.049, 94.350 67.995, 89.483 66.055, 88.311 64.307, 88.311 " />
            <path fill="none" stroke-width="3.0" stroke-linecap="butt" stroke-opacity="1.0" stroke="rgb(0, 0, 0)" stroke-linejoin="round" d=" M 66.070, 157.731 66.070, 157.230 66.068, 147.230 66.066, 137.230 66.064, 127.230 66.062, 117.230 66.060, 107.230 66.057, 97.230 66.056, 92.940 66.055, 88.311 " />
            <path fill="none" stroke-width="3.0" stroke-linecap="butt" stroke-opacity="1.0" stroke="rgb(0, 0, 0)" stroke-linejoin="round" d=" M 187.854, 88.273 186.101, 88.273 184.706, 89.116 176.082, 94.325 176.082, 97.185 176.081, 97.460 176.080, 107.460 176.078, 117.460 176.076, 127.460 176.074, 137.460 176.072, 147.460 176.072, 149.359 176.072, 149.611 176.071, 152.228 184.822, 157.067 186.085, 157.765 186.608, 157.766 187.838, 157.766 " />
            <path fill="none" stroke-width="3.0" stroke-linecap="butt" stroke-opacity="1.0" stroke="rgb(0, 0, 0)" stroke-linejoin="round" d=" M 186.085, 157.765 186.087, 147.765 186.089, 137.765 186.092, 127.765 186.094, 117.765 186.096, 107.765 186.099, 97.765 186.100, 91.346 186.101, 88.273 " />
            <path fill="none" stroke-width="3.0" stroke-linecap="butt" stroke-opacity="1.0" stroke="rgb(0, 0, 0)" stroke-linejoin="round" d=" M 129.103, 146.556 126.244, 146.743 123.385, 146.555 120.575, 145.996 117.862, 145.074 115.293, 143.807 112.912, 142.215 110.758, 140.326 108.869, 138.172 107.278, 135.790 106.945, 135.116 106.859, 134.941 106.814, 134.850 106.518, 134.248 106.485, 134.182 106.011, 133.221 106.008, 133.213 105.272, 131.046 105.105, 130.552 105.090, 130.508 105.088, 130.500 104.531, 127.699 104.344, 124.840 104.531, 121.982 105.088, 119.181 105.089, 119.172 105.104, 119.128 105.272, 118.635 106.007, 116.468 106.010, 116.459 106.484, 115.498 107.237, 113.970 107.260, 113.924 107.276, 113.890 107.425, 113.668 107.594, 113.415 108.868, 111.507 110.756, 109.353 112.910, 107.464 115.292, 105.871 117.861, 104.604 120.574, 103.682 123.385, 103.123 126.244, 102.935 129.103, 103.121 131.914, 103.680 134.627, 104.601 137.198, 105.868 139.581, 107.460 141.735, 109.349 143.625, 111.504 144.816, 113.286 144.832, 113.309 145.217, 113.886 145.257, 113.966 145.592, 114.646 146.070, 115.616 146.485, 116.456 146.805, 117.401 146.974, 117.899 146.990, 117.944 147.406, 119.170 147.965, 121.981 148.152, 124.841 147.964, 127.700 147.405, 130.511 146.989, 131.737 146.973, 131.782 146.804, 132.280 146.483, 133.224 146.069, 134.064 145.901, 134.406 145.680, 134.853 145.635, 134.944 145.459, 135.301 145.216, 135.794 143.623, 138.176 141.733, 140.330 139.579, 142.219 137.196, 143.810 134.626, 145.077 131.913, 145.998 129.103, 146.556 " />
            <path fill="none" stroke-width="3.0" stroke-linecap="butt" stroke-opacity="1.0" stroke="rgb(0, 0, 0)" stroke-linejoin="round" d=" M 130.044, 153.295 126.309, 153.539 122.575, 153.294 118.904, 152.563 115.361, 151.359 112.005, 149.703 108.894, 147.624 106.080, 145.156 103.613, 142.342 101.535, 139.231 101.010, 138.167 100.533, 137.200 100.081, 136.283 99.880, 135.875 98.677, 132.331 98.582, 131.857 97.947, 128.661 97.701, 124.927 97.946, 121.193 98.581, 117.997 98.675, 117.523 99.878, 113.979 100.079, 113.571 100.661, 112.389 100.931, 111.843 101.273, 111.147 101.365, 110.962 101.428, 110.834 101.437, 110.816 101.532, 110.622 101.946, 110.002 103.611, 107.510 106.078, 104.696 108.891, 102.227 112.003, 100.147 115.359, 98.491 118.903, 97.286 122.574, 96.555 126.310, 96.310 130.045, 96.553 133.717, 97.283 137.262, 98.486 140.620, 100.141 143.733, 102.220 146.549, 104.689 149.017, 107.503 150.526, 109.761 150.656, 109.956 151.097, 110.616 151.193, 110.810 151.422, 111.275 152.007, 112.460 152.753, 113.974 153.505, 116.189 153.957, 117.519 154.468, 120.089 154.687, 121.192 154.854, 123.748 154.932, 124.927 154.854, 126.107 154.686, 128.663 154.467, 129.766 153.955, 132.335 153.503, 133.666 152.751, 135.880 152.004, 137.393 151.990, 137.423 151.620, 138.173 151.095, 139.237 149.014, 142.349 146.545, 145.163 143.730, 147.631 140.617, 149.709 137.260, 151.364 133.715, 152.566 130.044, 153.295 " />
            <path fill="none" stroke-width="3.0" stroke-linecap="butt" stroke-opacity="1.0" stroke="rgb(0, 0, 0)" stroke-linejoin="round" d=" M 90.205, 144.378 91.832, 143.478 91.832, 142.178 91.832, 141.515 91.831, 136.757 91.830, 126.757 91.829, 116.757 91.829, 112.922 91.828, 106.031 91.828, 105.306 91.827, 103.886 91.420, 103.640 " />
            <path fill="none" stroke-width="3.0" stroke-linecap="butt" stroke-opacity="1.0" stroke="rgb(0, 0, 0)" stroke-linejoin="round" d=" M 161.240, 103.290 160.272, 103.874 160.271, 105.295 160.271, 106.019 160.271, 111.711 160.269, 121.711 160.268, 131.711 160.267, 137.969 160.267, 141.526 160.267, 142.189 160.266, 143.489 162.513, 144.731 " />
            <path fill="none" stroke-width="3.0" stroke-linecap="butt" stroke-opacity="1.0" stroke="rgb(0, 0, 0)" stroke-linejoin="round" d=" M 128.521, 142.392 126.203, 142.544 123.885, 142.392 121.607, 141.938 119.408, 141.191 117.325, 140.164 115.394, 138.873 113.648, 137.342 112.117, 135.596 110.826, 133.664 110.557, 133.118 110.436, 132.873 110.308, 132.612 110.205, 132.404 110.205, 132.404 110.086, 132.162 109.799, 131.581 109.784, 131.538 109.258, 129.987 109.191, 129.788 109.053, 129.382 108.600, 127.104 108.512, 125.769 108.448, 124.787 108.512, 123.804 108.599, 122.469 109.052, 120.191 109.190, 119.785 109.257, 119.586 109.784, 118.035 109.799, 117.992 110.085, 117.411 110.204, 117.169 110.536, 116.496 110.637, 116.292 110.665, 116.235 110.672, 116.219 110.699, 116.165 110.826, 115.909 110.927, 115.757 110.997, 115.652 112.116, 113.977 113.647, 112.231 115.393, 110.699 117.324, 109.408 119.407, 108.380 121.607, 107.633 123.885, 107.180 126.203, 107.027 128.521, 107.179 130.800, 107.632 133.000, 108.378 135.084, 109.406 137.015, 110.696 138.762, 112.228 140.294, 113.975 141.230, 115.375 141.293, 115.470 141.484, 115.755 141.585, 115.906 141.674, 116.087 141.868, 116.481 141.987, 116.723 142.288, 117.332 142.612, 117.990 142.815, 118.586 142.883, 118.788 143.359, 120.190 143.562, 121.212 143.701, 121.906 143.812, 122.469 143.834, 122.793 143.964, 124.787 143.833, 126.781 143.812, 127.105 143.700, 127.667 143.562, 128.362 143.359, 129.384 142.883, 130.785 142.814, 130.987 142.612, 131.583 142.287, 132.241 142.139, 132.541 142.103, 132.615 141.986, 132.851 141.974, 132.876 141.867, 133.093 141.781, 133.267 141.584, 133.667 140.293, 135.598 138.761, 137.345 137.014, 138.876 135.082, 140.166 132.999, 141.193 130.799, 141.940 128.521, 142.392 " />
            <path fill="none" stroke-width="3.0" stroke-linecap="butt" stroke-opacity="1.0" stroke="rgb(0, 0, 0)" stroke-linejoin="round" d=" M 128.123, 139.543 126.175, 139.670 124.228, 139.543 122.314, 139.162 120.466, 138.534 118.715, 137.671 117.093, 136.586 115.626, 135.300 114.339, 133.832 113.255, 132.210 112.841, 131.370 112.392, 130.459 112.234, 129.995 112.144, 129.728 111.764, 128.611 111.469, 127.129 111.384, 126.697 111.314, 125.634 111.256, 124.750 111.314, 123.866 111.383, 122.803 111.469, 122.371 111.764, 120.889 112.143, 119.771 112.234, 119.505 112.391, 119.040 112.840, 118.130 113.254, 117.290 114.338, 115.667 115.625, 114.200 117.092, 112.913 118.715, 111.828 120.465, 110.965 122.313, 110.337 124.228, 109.956 126.175, 109.828 128.123, 109.955 130.038, 110.336 131.886, 110.963 133.637, 111.826 135.260, 112.911 136.728, 114.198 138.015, 115.665 139.099, 117.288 139.229, 117.551 139.836, 118.783 139.927, 118.966 139.963, 119.039 140.590, 120.888 140.602, 120.945 140.756, 121.722 140.971, 122.802 141.074, 124.369 141.099, 124.750 141.074, 125.131 140.971, 126.698 140.756, 127.778 140.601, 128.555 140.590, 128.612 139.962, 130.461 139.926, 130.534 139.836, 130.717 139.274, 131.855 139.264, 131.875 139.099, 132.211 138.014, 133.834 136.727, 135.302 135.259, 136.588 133.636, 137.672 131.885, 138.535 130.037, 139.163 128.123, 139.543 " />
            <path fill="none" stroke-width="3.0" stroke-linecap="butt" stroke-opacity="1.0" stroke="rgb(0, 0, 0)" stroke-linejoin="round" d=" M 127.613, 135.893 126.140, 135.989 124.667, 135.893 123.219, 135.605 121.821, 135.130 120.497, 134.477 119.269, 133.657 118.159, 132.683 117.186, 131.573 116.366, 130.346 115.713, 129.022 115.238, 127.624 114.950, 126.176 114.854, 124.703 114.950, 123.230 115.238, 121.782 115.713, 120.384 116.366, 119.060 117.186, 117.832 118.159, 116.722 119.269, 115.749 120.496, 114.928 121.820, 114.275 123.218, 113.800 124.667, 113.512 126.140, 113.416 127.613, 113.512 129.061, 113.800 130.459, 114.274 131.784, 114.927 133.012, 115.748 134.122, 116.721 135.095, 117.831 135.916, 119.059 136.569, 120.383 137.043, 121.781 137.331, 123.230 137.428, 124.703 137.331, 126.176 137.043, 127.625 136.568, 129.023 135.915, 130.347 135.095, 131.574 134.121, 132.684 133.011, 133.658 131.783, 134.478 130.459, 135.131 129.061, 135.605 127.613, 135.893 " />
            <path fill="none" stroke-width="3.0" stroke-linecap="butt" stroke-opacity="1.0" stroke="rgb(0, 0, 0)" stroke-linejoin="round" d=" M 127.831, 137.451 126.155, 137.561 124.479, 137.451 122.832, 137.123 121.242, 136.583 119.736, 135.840 118.340, 134.907 117.078, 133.800 115.971, 132.538 115.038, 131.142 114.295, 129.636 113.755, 128.045 113.428, 126.399 113.318, 124.723 113.428, 123.047 113.755, 121.401 114.295, 119.810 115.037, 118.304 115.970, 116.908 117.077, 115.645 118.340, 114.538 119.736, 113.605 121.242, 112.862 122.832, 112.322 124.479, 111.994 126.155, 111.884 127.831, 111.994 129.478, 112.321 131.069, 112.861 132.575, 113.604 133.971, 114.537 135.234, 115.644 136.342, 116.907 137.275, 118.303 138.018, 119.809 138.557, 121.400 138.885, 123.047 138.995, 124.723 138.885, 126.399 138.557, 128.046 138.017, 129.637 137.274, 131.143 136.341, 132.539 135.233, 133.802 133.971, 134.909 132.574, 135.842 131.068, 136.584 129.478, 137.124 127.831, 137.451 " />
            <path fill="none" stroke-width="3.0" stroke-linecap="butt" stroke-opacity="1.0" stroke="rgb(0, 0, 0)" stroke-linejoin="round" d=" M 86.713, 135.681 86.712, 125.681 86.710, 115.681 86.710, 114.497 " />
            <path fill="none" stroke-width="3.0" stroke-linecap="butt" stroke-opacity="1.0" stroke="rgb(0, 0, 0)" stroke-linejoin="round" d=" M 87.430, 137.813 87.429, 127.813 87.428, 117.813 87.427, 112.364 " />
            <path fill="none" stroke-width="3.0" stroke-linecap="butt" stroke-opacity="1.0" stroke="rgb(0, 0, 0)" stroke-linejoin="round" d=" M 100.081, 136.283 100.080, 126.283 100.079, 116.283 100.079, 113.571 " />
            <path fill="none" stroke-width="3.0" stroke-linecap="butt" stroke-opacity="1.0" stroke="rgb(0, 0, 0)" stroke-linejoin="round" d=" M 105.105, 130.552 105.105, 128.320 105.104, 121.125 105.104, 119.128 " />
            <path fill="none" stroke-width="3.0" stroke-linecap="butt" stroke-opacity="1.0" stroke="rgb(0, 0, 0)" stroke-linejoin="round" d=" M 108.512, 125.769 108.512, 123.804 " />
            <path fill="none" stroke-width="3.0" stroke-linecap="butt" stroke-opacity="1.0" stroke="rgb(0, 0, 0)" stroke-linejoin="round" d=" M 141.074, 124.369 141.074, 125.131 " />
            <path fill="none" stroke-width="3.0" stroke-linecap="butt" stroke-opacity="1.0" stroke="rgb(0, 0, 0)" stroke-linejoin="round" d=" M 143.562, 121.212 143.562, 128.362 " />
            <path fill="none" stroke-width="3.0" stroke-linecap="butt" stroke-opacity="1.0" stroke="rgb(0, 0, 0)" stroke-linejoin="round" d=" M 146.974, 117.899 146.974, 119.922 146.973, 129.524 146.973, 131.782 " />
            <path fill="none" stroke-width="3.0" stroke-linecap="butt" stroke-opacity="1.0" stroke="rgb(0, 0, 0)" stroke-linejoin="round" d=" M 152.007, 112.460 152.006, 122.460 152.005, 132.460 152.004, 137.393 " />
            <path fill="none" stroke-width="3.0" stroke-linecap="butt" stroke-opacity="1.0" stroke="rgb(0, 0, 0)" stroke-linejoin="round" d=" M 154.467, 129.766 154.468, 120.089 " />
            <path fill="none" stroke-width="3.0" stroke-linecap="butt" stroke-opacity="1.0" stroke="rgb(0, 0, 0)" stroke-linejoin="round" d=" M 154.854, 123.748 154.854, 126.107 " />
            <path fill="none" stroke-width="3.0" stroke-linecap="butt" stroke-opacity="1.0" stroke="rgb(0, 0, 0)" stroke-linejoin="round" d=" M 164.676, 140.128 164.678, 130.128 164.679, 120.128 164.680, 110.049 " />
            <path fill="none" stroke-width="3.0" stroke-linecap="butt" stroke-opacity="1.0" stroke="rgb(0, 0, 0)" stroke-linejoin="round" d=" M 165.399, 112.165 165.397, 122.165 165.396, 132.165 165.395, 138.013 " />
        </g>
    </g>
</svg>
