<?xml version='1.0' encoding='ascii'?>
<svg xmlns="http://www.w3.org/2000/svg" version="1.1" width="250" height="250">
    <g id="ViewLayer_LineSet" xmlns:inkscape="http://www.inkscape.org/namespaces/inkscape" inkscape:groupmode="lineset" inkscape:label="ViewLayer_LineSet">
        <g xmlns:inkscape="http://www.inkscape.org/namespaces/inkscape" inkscape:groupmode="layer" id="strokes" inkscape:label="strokes">
            <path fill="none" stroke-width="3.0" stroke-linecap="butt" stroke-opacity="1.0" stroke="rgb(0, 0, 0)" stroke-linejoin="round" d=" M 136.647, 200.562 126.770, 201.203 116.894, 200.549 107.189, 198.613 97.820, 195.427 88.948, 191.046 80.723, 185.546 73.286, 179.020 66.764, 171.580 61.269, 163.353 60.120, 161.024 59.241, 159.242 58.749, 158.244 58.621, 157.983 58.096, 156.920 56.893, 154.480 56.083, 152.093 53.713, 145.112 51.781, 135.409 51.132, 125.536 51.776, 115.663 53.702, 105.958 56.069, 98.974 56.879, 96.586 58.081, 94.146 60.567, 89.098 61.231, 87.750 61.251, 87.709 61.952, 86.659 62.346, 86.068 66.744, 79.477 73.266, 72.032 80.703, 65.500 88.930, 59.995 97.806, 55.610 107.180, 52.421 116.890, 50.483 126.771, 49.829 136.654, 50.471 146.369, 52.397 155.750, 55.576 164.636, 59.954 172.875, 65.454 180.325, 71.984 186.859, 79.431 190.851, 85.404 191.662, 86.617 192.364, 87.668 192.384, 87.709 192.745, 88.439 194.094, 91.175 196.111, 95.266 196.746, 96.553 199.930, 105.935 201.862, 115.652 202.507, 125.538 201.856, 135.423 199.920, 145.138 196.731, 154.516 196.096, 155.803 194.377, 159.282 193.187, 161.693 192.345, 163.397 186.838, 171.628 180.304, 179.070 172.854, 185.594 164.617, 191.089 155.734, 195.462 146.358, 198.637 136.647, 200.562 " />
            <path fill="none" stroke-width="3.0" stroke-linecap="butt" stroke-opacity="1.0" stroke="rgb(0, 0, 0)" stroke-linejoin="round" d=" M 143.421, 251.836 153.231, 249.897 159.764, 248.605 169.237, 245.402 175.549, 243.268 184.523, 238.856 190.504, 235.915 198.825, 230.369 204.373, 226.671 211.899, 220.087 216.919, 215.694 223.520, 208.183 227.925, 203.171 233.489, 194.862 237.203, 189.316 238.478, 186.737 " />
            <path fill="none" stroke-width="3.0" stroke-linecap="butt" stroke-opacity="1.0" stroke="rgb(0, 0, 0)" stroke-linejoin="round" d=" M 235.147, 58.649 229.590, 50.336 227.984, 47.934 221.388, 40.418 216.980, 35.395 209.458, 28.806 204.432, 24.403 196.114, 18.852 190.557, 15.144 181.585, 10.728 175.593, 7.779 166.121, 4.573 159.796, 2.432 149.986, 0.490 143.438, -0.805 " />
            <path fill="none" stroke-width="3.0" stroke-linecap="butt" stroke-opacity="1.0" stroke="rgb(0, 0, 0)" stroke-linejoin="round" d=" M 110.166, -0.770 100.360, 1.192 93.822, 2.501 84.356, 5.726 78.047, 7.876 69.083, 12.309 63.111, 15.263 54.803, 20.828 49.269, 24.535 41.758, 31.137 36.757, 35.532 30.172, 43.057 25.789, 48.066 20.241, 56.386 18.228, 59.405 " />
            <path fill="none" stroke-width="3.0" stroke-linecap="butt" stroke-opacity="1.0" stroke="rgb(0, 0, 0)" stroke-linejoin="round" d=" M 15.016, 185.979 16.601, 189.194 22.155, 197.510 25.845, 203.036 32.436, 210.557 36.815, 215.554 44.330, 222.152 49.325, 226.536 57.636, 232.097 63.161, 235.794 72.126, 240.224 78.087, 243.169 87.554, 246.392 93.850, 248.535 103.656, 250.496 110.179, 251.800 " />
            <path fill="none" stroke-width="3.0" stroke-linecap="butt" stroke-opacity="1.0" stroke="rgb(0, 0, 0)" stroke-linejoin="round" d=" M -16.067, 203.177 -7.317, 198.336 1.433, 193.495 10.183, 188.653 15.016, 185.979 23.766, 181.138 29.611, 177.904 29.608, 167.904 29.604, 157.904 29.601, 147.904 29.597, 137.904 29.594, 127.904 29.590, 117.904 29.587, 107.904 29.583, 97.904 29.580, 87.904 29.576, 77.904 29.573, 67.904 29.572, 66.261 21.014, 61.089 18.228, 59.405 9.670, 54.233 1.111, 49.060 -7.447, 43.888 -16.153, 38.626 " />
            <path fill="none" stroke-width="3.0" stroke-linecap="butt" stroke-opacity="1.0" stroke="rgb(0, 0, 0)" stroke-linejoin="round" d=" M 268.643, 38.417 260.083, 43.588 251.524, 48.758 242.964, 53.928 235.147, 58.649 226.587, 63.819 222.704, 66.165 222.700, 76.165 222.697, 86.165 222.693, 96.165 222.689, 106.165 222.686, 116.165 222.682, 126.165 222.679, 136.165 222.675, 146.165 222.672, 156.165 222.668, 166.165 222.664, 176.165 222.664, 177.992 231.415, 182.831 238.478, 186.737 247.229, 191.576 255.981, 196.415 264.732, 201.254 268.556, 203.369 " />
            <path fill="none" stroke-width="3.0" stroke-linecap="butt" stroke-opacity="1.0" stroke="rgb(0, 0, 0)" stroke-linejoin="round" d=" M 65.535, 158.027 66.391, 159.763 71.429, 167.304 77.408, 174.124 84.225, 180.106 91.765, 185.148 99.899, 189.163 108.487, 192.083 117.384, 193.858 126.437, 194.457 135.491, 193.869 144.392, 192.104 152.987, 189.193 161.129, 185.184 168.679, 180.146 175.507, 174.166 181.496, 167.344 186.544, 159.799 187.294, 158.281 " />
            <path fill="none" stroke-width="3.0" stroke-linecap="butt" stroke-opacity="1.0" stroke="rgb(0, 0, 0)" stroke-linejoin="round" d=" M 131.870, 166.363 126.437, 166.717 121.004, 166.359 115.665, 165.295 110.511, 163.544 105.629, 161.135 101.104, 158.110 97.012, 154.520 93.424, 150.427 90.400, 145.901 89.768, 144.620 89.266, 143.600 87.993, 141.020 87.626, 139.939 87.147, 138.528 86.419, 136.384 86.243, 135.865 85.181, 130.527 84.824, 125.096 85.179, 119.664 86.240, 114.325 86.416, 113.807 87.143, 111.662 87.622, 110.251 87.989, 109.170 90.395, 104.287 90.752, 103.752 90.997, 103.385 93.418, 99.759 97.006, 95.665 101.098, 92.074 105.624, 89.047 110.507, 86.637 115.663, 84.885 121.003, 83.821 126.437, 83.462 131.872, 83.817 137.214, 84.878 142.372, 86.627 147.257, 89.035 151.787, 92.060 155.883, 95.651 159.475, 99.746 161.670, 103.030 162.144, 103.739 162.501, 104.275 164.482, 108.292 164.911, 109.160 164.965, 109.319 165.693, 111.466 166.661, 114.318 167.724, 119.661 168.079, 125.096 167.722, 130.531 166.658, 135.873 165.689, 138.725 164.960, 140.872 164.906, 141.030 164.478, 141.898 163.632, 143.612 162.958, 144.977 162.496, 145.914 159.468, 150.442 155.876, 154.535 151.780, 158.124 147.251, 161.148 142.367, 163.554 137.210, 165.302 131.870, 166.363 " />
            <path fill="none" stroke-width="3.0" stroke-linecap="butt" stroke-opacity="1.0" stroke="rgb(0, 0, 0)" stroke-linejoin="round" d=" M 185.422, 88.683 181.514, 82.835 175.525, 76.009 168.696, 70.023 161.145, 64.981 153.000, 60.969 144.401, 58.055 135.496, 56.288 126.437, 55.700 117.380, 56.299 108.479, 58.075 99.887, 60.998 91.750, 65.017 84.209, 70.063 77.391, 76.049 71.412, 82.874 67.287, 89.055 " />
            <path fill="none" stroke-width="3.0" stroke-linecap="butt" stroke-opacity="1.0" stroke="rgb(0, 0, 0)" stroke-linejoin="round" d=" M 188.842, 87.710 187.033, 87.710 185.422, 88.683 176.863, 93.853 176.728, 93.935 176.727, 96.949 176.727, 97.111 176.725, 107.111 176.723, 117.111 176.721, 127.111 176.719, 137.111 176.718, 147.111 176.717, 149.679 176.717, 149.827 176.716, 152.585 185.468, 157.424 187.017, 158.281 187.294, 158.281 188.825, 158.281 " />
            <path fill="none" stroke-width="3.0" stroke-linecap="butt" stroke-opacity="1.0" stroke="rgb(0, 0, 0)" stroke-linejoin="round" d=" M 187.017, 158.281 187.019, 148.281 187.021, 138.281 187.024, 128.281 187.026, 118.281 187.028, 108.281 187.031, 98.281 187.032, 91.343 187.033, 87.710 " />
            <path fill="none" stroke-width="3.0" stroke-linecap="butt" stroke-opacity="1.0" stroke="rgb(0, 0, 0)" stroke-linejoin="round" d=" M 63.338, 158.245 65.141, 158.245 65.535, 158.027 74.285, 153.186 75.416, 152.561 75.415, 149.805 75.415, 149.655 75.413, 139.655 75.412, 129.655 75.410, 119.655 75.408, 109.655 75.406, 99.655 75.406, 97.136 75.406, 96.972 75.405, 93.961 67.287, 89.055 65.126, 87.749 63.322, 87.749 " />
            <path fill="none" stroke-width="3.0" stroke-linecap="butt" stroke-opacity="1.0" stroke="rgb(0, 0, 0)" stroke-linejoin="round" d=" M 65.141, 158.245 65.141, 157.227 65.139, 147.227 65.136, 137.227 65.134, 127.227 65.132, 117.227 65.130, 107.227 65.128, 97.227 65.127, 92.956 65.126, 87.749 " />
            <path fill="none" stroke-width="3.0" stroke-linecap="butt" stroke-opacity="1.0" stroke="rgb(0, 0, 0)" stroke-linejoin="round" d=" M 60.120, 161.024 63.338, 159.243 63.338, 158.245 63.337, 155.645 63.337, 153.568 63.334, 143.568 63.332, 133.568 63.330, 123.568 63.327, 113.568 63.325, 103.568 63.324, 96.617 63.322, 90.591 63.322, 87.749 63.321, 86.658 62.346, 86.068 " />
            <path fill="none" stroke-width="3.0" stroke-linecap="butt" stroke-opacity="1.0" stroke="rgb(0, 0, 0)" stroke-linejoin="round" d=" M 190.851, 85.404 188.842, 86.618 188.842, 87.710 188.841, 90.552 188.840, 95.009 188.838, 105.009 188.835, 115.009 188.833, 125.009 188.831, 135.009 188.828, 145.009 188.826, 155.177 188.826, 155.680 188.825, 158.281 188.825, 159.281 193.187, 161.693 " />
            <path fill="none" stroke-width="3.0" stroke-linecap="butt" stroke-opacity="1.0" stroke="rgb(0, 0, 0)" stroke-linejoin="round" d=" M 130.069, 153.475 126.311, 153.721 122.553, 153.473 118.860, 152.738 115.294, 151.527 111.917, 149.861 108.786, 147.768 105.956, 145.285 103.473, 142.454 101.381, 139.323 100.847, 138.239 100.373, 137.279 99.908, 136.335 99.716, 135.946 98.505, 132.380 98.438, 132.041 97.771, 128.687 97.524, 124.930 97.770, 121.172 98.437, 117.818 98.504, 117.479 99.714, 113.913 99.906, 113.523 100.538, 112.241 100.810, 111.689 101.118, 111.063 101.201, 110.896 101.273, 110.749 101.298, 110.698 101.379, 110.535 101.796, 109.911 103.470, 107.403 105.953, 104.571 108.784, 102.087 111.915, 99.994 115.292, 98.327 118.859, 97.116 122.553, 96.380 126.311, 96.133 130.070, 96.378 133.765, 97.112 137.333, 98.322 140.712, 99.988 143.844, 102.081 146.677, 104.564 149.161, 107.397 150.679, 109.668 150.786, 109.827 151.255, 110.529 151.360, 110.743 151.546, 111.119 152.180, 112.405 152.921, 113.908 153.650, 116.055 154.132, 117.475 154.675, 120.207 154.867, 121.170 155.067, 124.237 155.113, 124.930 155.067, 125.622 154.866, 128.689 154.674, 129.652 154.130, 132.384 153.648, 133.804 152.919, 135.951 152.177, 137.453 152.152, 137.504 151.787, 138.245 151.252, 139.329 149.158, 142.461 146.674, 145.292 143.841, 147.775 140.709, 149.867 137.330, 151.532 133.763, 152.742 130.069, 153.475 " />
            <path fill="none" stroke-width="3.0" stroke-linecap="butt" stroke-opacity="1.0" stroke="rgb(0, 0, 0)" stroke-linejoin="round" d=" M 89.768, 144.620 91.610, 143.601 91.610, 142.322 91.610, 141.625 91.609, 136.832 91.608, 126.832 91.607, 116.832 91.606, 112.851 91.605, 105.911 91.605, 105.149 91.605, 103.752 90.997, 103.385 " />
            <path fill="none" stroke-width="3.0" stroke-linecap="butt" stroke-opacity="1.0" stroke="rgb(0, 0, 0)" stroke-linejoin="round" d=" M 161.670, 103.030 160.494, 103.740 160.494, 105.137 160.494, 105.899 160.493, 111.632 160.492, 121.632 160.491, 131.632 160.490, 138.051 160.489, 141.636 160.489, 142.333 160.489, 143.612 162.958, 144.977 " />
            <path fill="none" stroke-width="3.0" stroke-linecap="butt" stroke-opacity="1.0" stroke="rgb(0, 0, 0)" stroke-linejoin="round" d=" M 128.532, 142.470 126.204, 142.622 123.876, 142.470 121.588, 142.014 119.379, 141.264 117.287, 140.232 115.348, 138.936 113.594, 137.398 112.056, 135.644 110.760, 133.704 110.489, 133.155 110.375, 132.924 110.236, 132.642 110.136, 132.438 110.104, 132.375 109.984, 132.130 109.728, 131.612 109.724, 131.599 109.157, 129.929 109.077, 129.692 108.979, 129.403 108.523, 127.115 108.433, 125.745 108.371, 124.788 108.433, 123.831 108.523, 122.460 108.978, 120.172 109.076, 119.883 109.156, 119.647 109.723, 117.976 109.728, 117.963 109.983, 117.445 110.104, 117.200 110.481, 116.435 110.582, 116.229 110.598, 116.198 110.602, 116.190 110.629, 116.135 110.759, 115.871 110.857, 115.724 110.906, 115.650 112.055, 113.931 113.593, 112.177 115.347, 110.638 117.286, 109.342 119.378, 108.310 121.588, 107.559 123.876, 107.104 126.204, 106.951 128.532, 107.103 130.821, 107.558 133.030, 108.308 135.123, 109.339 137.063, 110.636 138.818, 112.174 140.356, 113.928 141.297, 115.335 141.350, 115.415 141.555, 115.722 141.653, 115.868 141.742, 116.050 141.969, 116.509 142.090, 116.754 142.349, 117.279 142.685, 117.961 142.916, 118.642 142.997, 118.882 143.435, 120.171 143.641, 121.207 143.813, 122.071 143.890, 122.459 143.948, 123.337 144.043, 124.788 143.947, 126.239 143.890, 127.116 143.812, 127.505 143.641, 128.368 143.434, 129.405 142.997, 130.693 142.915, 130.933 142.684, 131.614 142.348, 132.296 142.209, 132.576 142.176, 132.645 142.089, 132.821 142.037, 132.926 141.968, 133.066 141.850, 133.305 141.652, 133.707 140.355, 135.646 138.817, 137.400 137.062, 138.938 135.122, 140.234 133.029, 141.266 130.820, 142.015 128.532, 142.470 " />
            <path fill="none" stroke-width="3.0" stroke-linecap="butt" stroke-opacity="1.0" stroke="rgb(0, 0, 0)" stroke-linejoin="round" d=" M 129.122, 146.698 126.245, 146.886 123.368, 146.697 120.540, 146.134 117.810, 145.207 115.224, 143.931 112.827, 142.329 110.659, 140.428 108.758, 138.260 107.157, 135.863 106.822, 135.184 106.727, 134.991 106.681, 134.899 106.385, 134.298 105.906, 133.326 105.882, 133.277 105.174, 131.192 105.011, 130.714 104.988, 130.644 104.955, 130.547 104.392, 127.719 104.203, 124.842 104.392, 121.965 104.954, 119.137 104.987, 119.040 105.011, 118.971 105.173, 118.492 105.880, 116.407 105.904, 116.358 106.396, 115.361 107.105, 113.922 107.155, 113.821 107.170, 113.799 107.336, 113.550 107.474, 113.343 108.757, 111.423 110.658, 109.255 112.825, 107.353 115.223, 105.751 117.809, 104.475 120.539, 103.547 123.368, 102.984 126.245, 102.795 129.123, 102.983 131.952, 103.545 134.683, 104.472 137.270, 105.747 139.668, 107.349 141.837, 109.251 143.739, 111.419 144.906, 113.166 144.966, 113.256 145.341, 113.817 145.391, 113.919 145.680, 114.503 146.173, 115.504 146.617, 116.404 146.904, 117.250 147.068, 117.733 147.090, 117.798 147.544, 119.135 148.107, 121.964 148.295, 124.842 148.106, 127.720 147.543, 130.549 147.089, 131.886 147.067, 131.951 146.903, 132.434 146.616, 133.280 146.172, 134.180 146.029, 134.469 145.815, 134.902 145.770, 134.994 145.585, 135.370 145.340, 135.867 143.737, 138.264 141.835, 140.432 139.666, 142.333 137.268, 143.935 134.682, 145.210 131.951, 146.136 129.122, 146.698 " />
            <path fill="none" stroke-width="3.0" stroke-linecap="butt" stroke-opacity="1.0" stroke="rgb(0, 0, 0)" stroke-linejoin="round" d=" M 128.132, 139.609 126.176, 139.737 124.220, 139.608 122.297, 139.226 120.441, 138.596 118.683, 137.728 117.054, 136.639 115.580, 135.347 114.288, 133.873 113.199, 132.243 112.919, 131.675 112.796, 131.427 112.774, 131.382 112.755, 131.343 112.674, 131.179 112.344, 130.510 112.332, 130.485 112.264, 130.287 112.186, 130.054 112.094, 129.786 111.702, 128.629 111.674, 128.489 111.415, 127.189 111.319, 126.707 111.264, 125.869 111.191, 124.751 111.264, 123.633 111.319, 122.795 111.415, 122.312 111.674, 121.012 111.701, 120.872 112.094, 119.716 112.185, 119.447 112.264, 119.215 112.331, 119.016 112.344, 118.991 112.796, 118.074 112.881, 117.901 113.111, 117.435 113.163, 117.330 113.198, 117.258 113.274, 117.144 113.303, 117.101 113.415, 116.933 114.287, 115.628 115.579, 114.154 117.053, 112.861 118.683, 111.772 120.441, 110.905 122.297, 110.274 124.220, 109.892 126.176, 109.763 128.132, 109.891 130.055, 110.274 131.912, 110.904 133.670, 111.771 135.301, 112.860 136.775, 114.152 138.068, 115.626 138.858, 116.808 138.906, 116.881 139.052, 117.099 139.081, 117.142 139.157, 117.256 139.232, 117.409 139.274, 117.493 139.725, 118.409 139.805, 118.571 139.885, 118.733 139.976, 118.918 140.024, 119.015 140.396, 120.111 140.654, 120.872 140.656, 120.879 140.806, 121.634 141.037, 122.794 141.164, 124.744 141.165, 124.751 141.164, 124.757 141.036, 126.707 140.806, 127.868 140.655, 128.622 140.654, 128.630 140.396, 129.391 140.023, 130.487 139.976, 130.584 139.884, 130.769 139.804, 130.931 139.725, 131.092 139.625, 131.295 139.600, 131.345 139.581, 131.384 139.436, 131.677 139.336, 131.880 139.323, 131.908 139.156, 132.245 138.067, 133.875 136.774, 135.349 135.300, 136.641 133.670, 137.730 131.911, 138.597 130.055, 139.227 128.132, 139.609 " />
            <path fill="none" stroke-width="3.0" stroke-linecap="butt" stroke-opacity="1.0" stroke="rgb(0, 0, 0)" stroke-linejoin="round" d=" M 127.841, 137.528 126.156, 137.638 124.470, 137.527 122.813, 137.198 121.214, 136.655 119.699, 135.907 118.295, 134.969 117.025, 133.855 115.911, 132.585 114.973, 131.181 114.246, 129.707 114.226, 129.666 113.764, 128.306 113.692, 128.095 113.683, 128.066 113.353, 126.410 113.242, 124.724 113.353, 123.039 113.682, 121.382 113.692, 121.353 113.764, 121.142 114.225, 119.782 114.245, 119.741 114.972, 118.267 115.910, 116.863 117.024, 115.592 118.294, 114.479 119.699, 113.540 121.214, 112.793 122.813, 112.249 124.470, 111.920 126.156, 111.809 127.842, 111.919 129.499, 112.249 131.098, 112.792 132.614, 113.539 134.019, 114.477 135.289, 115.591 136.403, 116.861 137.341, 118.266 137.822, 119.241 138.089, 119.781 138.305, 120.418 138.376, 120.629 138.632, 121.381 138.906, 122.760 138.961, 123.038 139.072, 124.724 138.961, 126.410 138.906, 126.688 138.631, 128.067 138.376, 128.820 138.304, 129.030 138.088, 129.667 137.822, 130.207 137.341, 131.182 136.402, 132.586 135.288, 133.856 134.018, 134.970 132.613, 135.909 131.098, 136.656 129.498, 137.198 127.841, 137.528 " />
            <path fill="none" stroke-width="3.0" stroke-linecap="butt" stroke-opacity="1.0" stroke="rgb(0, 0, 0)" stroke-linejoin="round" d=" M 127.446, 134.701 126.128, 134.787 124.810, 134.701 123.514, 134.443 122.263, 134.018 121.079, 133.434 119.980, 132.700 118.987, 131.829 118.116, 130.835 117.382, 129.737 116.798, 128.552 116.373, 127.301 116.116, 126.006 116.029, 124.688 116.115, 123.369 116.373, 122.074 116.798, 120.823 117.382, 119.638 118.116, 118.539 118.987, 117.546 119.980, 116.675 121.078, 115.941 122.263, 115.357 123.514, 114.932 124.810, 114.674 126.128, 114.587 127.447, 114.674 128.742, 114.931 129.993, 115.356 131.179, 115.940 132.277, 116.674 133.271, 117.545 134.142, 118.539 134.876, 119.637 135.460, 120.822 135.885, 122.073 136.143, 123.369 136.229, 124.688 136.142, 126.006 135.885, 127.302 135.460, 128.553 134.875, 129.738 134.141, 130.836 133.270, 131.830 132.277, 132.701 131.178, 133.434 129.993, 134.019 128.742, 134.443 127.446, 134.701 " />
            <path fill="none" stroke-width="3.0" stroke-linecap="butt" stroke-opacity="1.0" stroke="rgb(0, 0, 0)" stroke-linejoin="round" d=" M 127.618, 135.931 126.140, 136.027 124.662, 135.930 123.209, 135.641 121.807, 135.165 120.478, 134.510 119.247, 133.687 118.133, 132.710 117.157, 131.597 116.334, 130.365 115.679, 129.037 115.203, 127.634 114.914, 126.181 114.817, 124.703 114.914, 123.225 115.202, 121.773 115.678, 120.370 116.333, 119.042 117.156, 117.810 118.133, 116.696 119.246, 115.719 120.478, 114.896 121.806, 114.241 123.209, 113.765 124.662, 113.476 126.140, 113.379 127.618, 113.475 129.071, 113.764 130.474, 114.240 131.803, 114.895 133.035, 115.718 134.149, 116.695 135.125, 117.809 135.948, 119.041 136.604, 120.369 137.080, 121.772 137.369, 123.225 137.466, 124.703 137.369, 126.182 137.080, 127.635 136.603, 129.037 135.948, 130.366 135.125, 131.598 134.148, 132.711 133.034, 133.688 131.802, 134.511 130.474, 135.166 129.071, 135.642 127.618, 135.931 " />
            <path fill="none" stroke-width="3.0" stroke-linecap="butt" stroke-opacity="1.0" stroke="rgb(0, 0, 0)" stroke-linejoin="round" d=" M 86.419, 136.384 86.418, 126.384 86.416, 116.384 86.416, 113.807 " />
            <path fill="none" stroke-width="3.0" stroke-linecap="butt" stroke-opacity="1.0" stroke="rgb(0, 0, 0)" stroke-linejoin="round" d=" M 87.147, 138.528 87.146, 128.528 87.144, 118.528 87.143, 111.662 " />
            <path fill="none" stroke-width="3.0" stroke-linecap="butt" stroke-opacity="1.0" stroke="rgb(0, 0, 0)" stroke-linejoin="round" d=" M 99.908, 136.335 99.907, 126.335 99.906, 116.335 99.906, 113.523 " />
            <path fill="none" stroke-width="3.0" stroke-linecap="butt" stroke-opacity="1.0" stroke="rgb(0, 0, 0)" stroke-linejoin="round" d=" M 105.011, 130.714 105.011, 128.496 105.011, 120.951 105.011, 118.971 " />
            <path fill="none" stroke-width="3.0" stroke-linecap="butt" stroke-opacity="1.0" stroke="rgb(0, 0, 0)" stroke-linejoin="round" d=" M 108.433, 125.745 108.433, 123.831 " />
            <path fill="none" stroke-width="3.0" stroke-linecap="butt" stroke-opacity="1.0" stroke="rgb(0, 0, 0)" stroke-linejoin="round" d=" M 141.164, 124.744 141.164, 124.757 " />
            <path fill="none" stroke-width="3.0" stroke-linecap="butt" stroke-opacity="1.0" stroke="rgb(0, 0, 0)" stroke-linejoin="round" d=" M 143.641, 121.207 143.641, 128.368 " />
            <path fill="none" stroke-width="3.0" stroke-linecap="butt" stroke-opacity="1.0" stroke="rgb(0, 0, 0)" stroke-linejoin="round" d=" M 147.068, 117.733 147.068, 119.741 147.067, 129.707 147.067, 131.951 " />
            <path fill="none" stroke-width="3.0" stroke-linecap="butt" stroke-opacity="1.0" stroke="rgb(0, 0, 0)" stroke-linejoin="round" d=" M 152.180, 112.405 152.179, 122.405 152.178, 132.405 152.177, 137.453 " />
            <path fill="none" stroke-width="3.0" stroke-linecap="butt" stroke-opacity="1.0" stroke="rgb(0, 0, 0)" stroke-linejoin="round" d=" M 154.674, 129.652 154.675, 120.207 " />
            <path fill="none" stroke-width="3.0" stroke-linecap="butt" stroke-opacity="1.0" stroke="rgb(0, 0, 0)" stroke-linejoin="round" d=" M 155.067, 124.237 155.067, 125.622 " />
            <path fill="none" stroke-width="3.0" stroke-linecap="butt" stroke-opacity="1.0" stroke="rgb(0, 0, 0)" stroke-linejoin="round" d=" M 164.960, 140.872 164.961, 130.872 164.963, 120.872 164.964, 110.872 164.965, 109.319 " />
            <path fill="none" stroke-width="3.0" stroke-linecap="butt" stroke-opacity="1.0" stroke="rgb(0, 0, 0)" stroke-linejoin="round" d=" M 165.693, 111.466 165.692, 121.466 165.690, 131.466 165.689, 138.725 " />
        </g>
    </g>
</svg>
