<?xml version='1.0' encoding='ascii'?>
<svg xmlns="http://www.w3.org/2000/svg" version="1.1" width="250" height="250">
    <g id="ViewLayer_LineSet" xmlns:inkscape="http://www.inkscape.org/namespaces/inkscape" inkscape:groupmode="lineset" inkscape:label="ViewLayer_LineSet">
        <g xmlns:inkscape="http://www.inkscape.org/namespaces/inkscape" inkscape:groupmode="layer" id="strokes" inkscape:label="strokes">
            <path fill="none" stroke-width="3.0" stroke-linecap="butt" stroke-opacity="1.0" stroke="rgb(0, 0, 0)" stroke-linejoin="round" d=" M 137.297, 205.214 127.318, 205.861 126.815, 205.894 116.837, 205.233 116.335, 205.200 106.529, 203.243 106.036, 203.145 96.569, 199.925 96.094, 199.763 87.128, 195.336 86.679, 195.115 78.366, 189.555 77.951, 189.278 70.434, 182.682 70.059, 182.352 63.467, 174.832 63.138, 174.457 57.584, 166.142 57.307, 165.727 56.088, 163.255 54.955, 160.958 52.664, 156.311 52.623, 156.191 49.408, 146.722 49.288, 146.369 47.336, 136.562 47.239, 136.073 46.582, 126.094 46.549, 125.596 47.200, 115.617 47.233, 115.119 49.179, 105.310 49.277, 104.820 52.487, 95.349 52.607, 94.994 52.647, 94.875 54.819, 90.465 56.561, 86.928 57.026, 85.984 57.287, 85.454 57.734, 84.783 58.448, 83.713 63.116, 76.718 69.705, 69.195 70.036, 68.817 77.550, 62.218 77.929, 61.886 86.239, 56.324 86.659, 56.043 95.625, 51.613 96.078, 51.389 105.545, 48.168 106.026, 48.005 115.832, 46.047 116.330, 45.947 126.309, 45.286 126.817, 45.253 136.796, 45.900 137.305, 45.933 147.114, 47.878 147.615, 47.977 157.086, 51.187 157.571, 51.351 166.542, 55.770 167.001, 55.996 175.318, 61.548 175.745, 61.833 183.266, 68.424 183.652, 68.763 190.247, 76.280 190.586, 76.666 194.823, 83.005 195.980, 84.737 196.429, 85.408 196.690, 85.938 196.832, 86.226 197.365, 87.307 199.584, 91.806 201.079, 94.837 204.293, 104.307 204.458, 104.794 206.408, 114.602 206.508, 115.106 207.159, 125.085 207.193, 125.598 206.535, 135.576 206.502, 136.088 204.546, 145.895 204.446, 146.398 201.227, 155.866 201.062, 156.351 199.566, 159.381 198.765, 161.003 197.301, 163.967 196.407, 165.776 190.846, 174.087 190.562, 174.511 183.964, 182.025 183.627, 182.408 176.104, 188.996 175.721, 189.332 167.402, 194.881 166.980, 195.163 158.008, 199.579 157.553, 199.803 148.081, 203.010 147.602, 203.172 137.793, 205.116 137.297, 205.214 " />
            <path fill="none" stroke-width="3.0" stroke-linecap="butt" stroke-opacity="1.0" stroke="rgb(0, 0, 0)" stroke-linejoin="round" d=" M 178.702, 250.827 187.676, 246.416 194.610, 243.007 202.932, 237.462 209.364, 233.176 216.890, 226.592 222.709, 221.501 229.311, 213.990 234.418, 208.181 239.982, 199.872 244.288, 193.443 245.644, 190.699 " />
            <path fill="none" stroke-width="3.0" stroke-linecap="butt" stroke-opacity="1.0" stroke="rgb(0, 0, 0)" stroke-linejoin="round" d=" M 242.104, 54.447 236.547, 46.134 234.484, 43.049 227.888, 35.533 222.778, 29.711 215.256, 23.121 209.430, 18.018 201.112, 12.468 194.670, 8.170 185.698, 3.754 178.752, 0.336 169.279, -2.870 161.948, -5.351 " />
            <path fill="none" stroke-width="3.0" stroke-linecap="butt" stroke-opacity="1.0" stroke="rgb(0, 0, 0)" stroke-linejoin="round" d=" M 91.770, -5.273 82.305, -2.047 74.991, 0.446 66.028, 4.880 59.105, 8.305 50.797, 13.870 44.383, 18.168 36.872, 24.770 31.075, 29.866 24.490, 37.392 19.409, 43.198 13.862, 51.518 11.368, 55.259 " />
            <path fill="none" stroke-width="3.0" stroke-linecap="butt" stroke-opacity="1.0" stroke="rgb(0, 0, 0)" stroke-linejoin="round" d=" M 7.955, 189.886 9.641, 193.305 15.195, 201.621 19.473, 208.027 26.064, 215.548 31.141, 221.342 38.656, 227.940 44.446, 233.023 52.757, 238.584 59.162, 242.870 68.127, 247.300 75.037, 250.715 " />
            <path fill="none" stroke-width="3.0" stroke-linecap="butt" stroke-opacity="1.0" stroke="rgb(0, 0, 0)" stroke-linejoin="round" d=" M 283.496, 29.446 274.937, 34.616 266.377, 39.786 257.817, 44.956 249.257, 50.127 242.104, 54.447 233.544, 59.617 229.308, 62.176 229.304, 72.176 229.300, 82.176 229.296, 92.176 229.292, 102.176 229.288, 112.176 229.285, 122.176 229.281, 132.176 229.277, 142.176 229.273, 152.176 229.269, 162.176 229.265, 172.176 229.262, 181.640 238.013, 186.480 245.644, 190.699 254.395, 195.538 263.147, 200.378 271.898, 205.217 280.649, 210.056 283.390, 211.571 " />
            <path fill="none" stroke-width="3.0" stroke-linecap="butt" stroke-opacity="1.0" stroke="rgb(0, 0, 0)" stroke-linejoin="round" d=" M -30.817, 211.338 -22.067, 206.497 -13.317, 201.656 -4.567, 196.814 4.183, 191.973 7.955, 189.886 16.705, 185.044 23.039, 181.540 23.036, 171.540 23.032, 161.540 23.028, 151.540 23.024, 141.540 23.021, 131.540 23.017, 121.540 23.013, 111.540 23.009, 101.540 23.006, 91.540 23.002, 81.540 22.998, 71.540 22.995, 62.286 14.436, 57.113 11.368, 55.259 2.810, 50.087 -5.748, 44.914 -14.307, 39.742 -22.865, 34.570 -30.921, 29.701 " />
            <path fill="none" stroke-width="3.0" stroke-linecap="butt" stroke-opacity="1.0" stroke="rgb(0, 0, 0)" stroke-linejoin="round" d=" M 63.274, 159.278 64.162, 161.078 69.388, 168.902 75.590, 175.977 82.662, 182.183 90.484, 187.413 98.922, 191.579 107.831, 194.608 117.061, 196.449 126.452, 197.070 135.845, 196.461 145.078, 194.630 153.995, 191.610 162.442, 187.452 170.274, 182.226 177.358, 176.022 183.571, 168.945 188.808, 161.117 189.524, 159.667 " />
            <path fill="none" stroke-width="3.0" stroke-linecap="butt" stroke-opacity="1.0" stroke="rgb(0, 0, 0)" stroke-linejoin="round" d=" M 132.088, 167.926 126.452, 168.293 120.816, 167.922 115.278, 166.818 109.931, 165.001 104.867, 162.502 100.172, 159.364 95.927, 155.640 92.205, 151.394 89.068, 146.699 88.413, 145.370 87.812, 144.152 86.571, 141.635 86.514, 141.468 85.870, 139.571 85.093, 137.283 84.756, 136.288 83.654, 130.750 83.284, 125.116 83.652, 119.481 84.753, 113.942 85.090, 112.948 85.866, 110.659 86.510, 108.762 86.566, 108.595 89.063, 103.529 89.316, 103.150 89.688, 102.593 92.199, 98.832 95.921, 94.585 100.166, 90.859 104.861, 87.719 109.926, 85.219 115.275, 83.401 120.815, 82.297 126.452, 81.925 132.090, 82.293 137.632, 83.393 142.983, 85.208 148.052, 87.706 152.751, 90.844 157.000, 94.569 160.726, 98.817 163.003, 102.224 163.612, 103.136 163.866, 103.516 165.597, 107.026 166.244, 108.338 166.366, 108.584 167.022, 110.519 168.182, 113.935 169.284, 119.477 169.653, 125.116 169.282, 130.755 168.178, 136.297 167.018, 139.712 166.360, 141.647 166.239, 141.892 165.592, 143.204 165.118, 144.165 164.340, 145.741 163.860, 146.713 160.719, 151.410 156.993, 155.656 152.744, 159.380 148.045, 162.516 142.978, 165.013 137.628, 166.826 132.088, 167.926 " />
            <path fill="none" stroke-width="3.0" stroke-linecap="butt" stroke-opacity="1.0" stroke="rgb(0, 0, 0)" stroke-linejoin="round" d=" M 187.645, 87.340 183.590, 81.273 177.377, 74.192 170.293, 67.983 162.459, 62.752 154.009, 58.590 145.089, 55.566 135.850, 53.734 126.453, 53.124 117.056, 53.745 107.823, 55.588 98.909, 58.621 90.468, 62.790 82.645, 68.025 75.572, 74.236 69.370, 81.315 65.091, 87.728 " />
            <path fill="none" stroke-width="3.0" stroke-linecap="butt" stroke-opacity="1.0" stroke="rgb(0, 0, 0)" stroke-linejoin="round" d=" M 194.823, 83.005 191.954, 84.738 191.954, 85.939 191.953, 88.868 191.952, 95.445 191.949, 105.445 191.947, 115.445 191.944, 125.445 191.942, 135.445 191.939, 145.445 191.937, 154.781 191.936, 157.222 191.936, 159.901 191.935, 161.000 197.301, 163.967 " />
            <path fill="none" stroke-width="3.0" stroke-linecap="butt" stroke-opacity="1.0" stroke="rgb(0, 0, 0)" stroke-linejoin="round" d=" M 56.088, 163.255 60.236, 160.959 60.236, 159.861 60.235, 157.183 60.234, 153.113 60.232, 143.113 60.230, 133.113 60.227, 123.113 60.225, 113.113 60.222, 103.113 60.221, 97.113 60.219, 88.910 60.218, 85.983 60.218, 84.783 58.448, 83.713 " />
            <path fill="none" stroke-width="3.0" stroke-linecap="butt" stroke-opacity="1.0" stroke="rgb(0, 0, 0)" stroke-linejoin="round" d=" M 60.236, 159.861 62.219, 159.862 63.274, 159.278 72.024, 154.437 73.413, 153.669 73.413, 150.784 73.413, 150.648 73.411, 140.648 73.409, 130.648 73.407, 120.648 73.405, 110.648 73.403, 100.648 73.402, 96.051 73.402, 95.903 73.402, 92.750 65.091, 87.728 62.202, 85.982 60.218, 85.983 " />
            <path fill="none" stroke-width="3.0" stroke-linecap="butt" stroke-opacity="1.0" stroke="rgb(0, 0, 0)" stroke-linejoin="round" d=" M 62.219, 159.862 62.219, 157.138 62.217, 147.138 62.214, 137.138 62.212, 127.138 62.210, 117.138 62.207, 107.138 62.205, 97.138 62.204, 93.086 62.202, 85.982 " />
            <path fill="none" stroke-width="3.0" stroke-linecap="butt" stroke-opacity="1.0" stroke="rgb(0, 0, 0)" stroke-linejoin="round" d=" M 191.954, 85.939 189.964, 85.940 187.645, 87.340 179.086, 92.511 178.736, 92.722 178.735, 95.877 178.735, 96.023 178.733, 106.023 178.731, 116.023 178.729, 126.023 178.727, 136.023 178.725, 146.023 178.724, 150.674 178.724, 150.807 178.724, 153.695 187.475, 158.534 189.524, 159.667 189.946, 159.901 191.936, 159.901 " />
            <path fill="none" stroke-width="3.0" stroke-linecap="butt" stroke-opacity="1.0" stroke="rgb(0, 0, 0)" stroke-linejoin="round" d=" M 189.946, 159.901 189.947, 158.812 189.949, 148.812 189.951, 138.812 189.954, 128.812 189.956, 118.812 189.959, 108.812 189.961, 98.812 189.963, 91.413 189.964, 85.940 " />
            <path fill="none" stroke-width="3.0" stroke-linecap="butt" stroke-opacity="1.0" stroke="rgb(0, 0, 0)" stroke-linejoin="round" d=" M 129.183, 147.129 126.249, 147.321 123.316, 147.128 120.433, 146.554 117.650, 145.609 115.014, 144.308 112.570, 142.675 110.360, 140.737 108.422, 138.527 106.789, 136.083 106.448, 135.391 106.325, 135.141 106.278, 135.046 106.003, 134.488 105.596, 133.663 105.489, 133.447 104.876, 131.641 104.685, 131.078 104.655, 130.988 104.545, 130.663 103.971, 127.781 103.779, 124.848 103.971, 121.915 104.544, 119.032 104.654, 118.707 104.684, 118.618 104.875, 118.054 105.488, 116.248 105.595, 116.032 106.133, 114.941 106.705, 113.780 106.788, 113.612 106.898, 113.447 107.070, 113.190 107.113, 113.125 108.421, 111.167 110.358, 108.957 112.568, 107.018 115.012, 105.385 117.649, 104.084 120.432, 103.138 123.316, 102.564 126.249, 102.371 129.183, 102.563 132.067, 103.136 134.852, 104.081 137.489, 105.381 139.934, 107.014 142.145, 108.953 144.084, 111.163 145.268, 112.936 145.305, 112.991 145.374, 113.094 145.717, 113.608 145.800, 113.776 145.943, 114.066 146.483, 115.160 147.018, 116.245 147.202, 116.788 147.393, 117.352 147.425, 117.446 147.963, 119.030 148.537, 121.914 148.729, 124.848 148.536, 127.782 147.962, 130.666 147.424, 132.250 147.392, 132.344 147.201, 132.907 147.016, 133.450 146.481, 134.535 146.418, 134.662 146.227, 135.050 146.180, 135.145 145.965, 135.581 145.716, 136.087 144.082, 138.531 142.143, 140.741 139.932, 142.679 137.487, 144.312 134.850, 145.612 132.066, 146.556 129.183, 147.129 " />
            <path fill="none" stroke-width="3.0" stroke-linecap="butt" stroke-opacity="1.0" stroke="rgb(0, 0, 0)" stroke-linejoin="round" d=" M 130.182, 154.281 126.319, 154.534 122.456, 154.279 118.660, 153.523 114.995, 152.278 111.524, 150.566 108.306, 148.415 105.396, 145.863 102.845, 142.952 100.694, 139.734 100.092, 138.513 99.659, 137.634 99.385, 137.079 98.983, 136.263 97.886, 133.032 97.738, 132.598 96.983, 128.802 96.786, 125.796 96.730, 124.940 96.786, 124.084 96.982, 121.078 97.737, 117.281 97.884, 116.848 98.980, 113.616 99.383, 112.800 100.067, 111.412 100.349, 110.839 100.424, 110.687 100.444, 110.647 100.519, 110.494 100.692, 110.144 100.803, 109.978 101.120, 109.503 102.842, 106.925 105.393, 104.014 108.303, 101.461 111.521, 99.309 114.993, 97.596 118.659, 96.351 122.456, 95.594 126.319, 95.340 130.183, 95.593 133.981, 96.347 137.648, 97.591 141.121, 99.303 144.341, 101.454 147.253, 104.007 149.806, 106.918 151.401, 109.304 151.958, 110.138 152.107, 110.439 152.704, 111.651 153.671, 113.611 154.203, 115.180 154.915, 117.278 155.305, 119.239 155.671, 121.076 155.715, 121.760 155.790, 122.898 155.923, 124.940 155.789, 126.982 155.715, 128.120 155.670, 128.804 155.304, 130.641 154.914, 132.602 154.201, 134.700 153.668, 136.269 152.881, 137.865 152.701, 138.228 152.558, 138.519 151.955, 139.741 149.803, 142.960 147.249, 145.870 144.338, 148.422 141.118, 150.572 137.645, 152.284 133.979, 153.527 130.182, 154.281 " />
            <path fill="none" stroke-width="3.0" stroke-linecap="butt" stroke-opacity="1.0" stroke="rgb(0, 0, 0)" stroke-linejoin="round" d=" M 88.413, 145.370 90.613, 144.152 90.613, 142.762 90.613, 142.119 90.612, 136.107 90.611, 126.107 90.610, 116.107 90.609, 113.587 90.608, 105.371 90.608, 104.668 90.608, 103.149 89.688, 102.593 " />
            <path fill="none" stroke-width="3.0" stroke-linecap="butt" stroke-opacity="1.0" stroke="rgb(0, 0, 0)" stroke-linejoin="round" d=" M 163.003, 102.224 161.493, 103.136 161.493, 104.656 161.493, 105.358 161.492, 112.346 161.491, 122.346 161.489, 132.346 161.489, 137.349 161.488, 142.131 161.488, 142.773 161.488, 144.164 164.340, 145.741 " />
            <path fill="none" stroke-width="3.0" stroke-linecap="butt" stroke-opacity="1.0" stroke="rgb(0, 0, 0)" stroke-linejoin="round" d=" M 128.573, 142.767 126.207, 142.922 123.840, 142.766 121.514, 142.303 119.269, 141.541 117.142, 140.492 115.171, 139.174 113.388, 137.610 111.824, 135.828 110.507, 133.856 110.232, 133.297 110.085, 133.001 109.953, 132.732 109.949, 132.724 109.872, 132.569 109.826, 132.474 109.543, 131.901 109.458, 131.729 109.000, 130.380 108.900, 130.085 108.696, 129.484 108.233, 127.158 108.198, 126.615 108.087, 124.930 108.078, 124.792 108.087, 124.653 108.197, 122.968 108.233, 122.425 108.695, 120.099 108.900, 119.498 109.000, 119.202 109.457, 117.854 109.542, 117.682 109.825, 117.108 109.948, 116.859 110.316, 116.112 110.349, 116.046 110.506, 115.727 110.573, 115.626 110.766, 115.337 111.823, 113.755 113.387, 111.971 115.170, 110.407 117.141, 109.090 119.268, 108.040 121.514, 107.277 123.840, 106.814 126.207, 106.659 128.574, 106.814 130.900, 107.276 133.146, 108.038 135.274, 109.087 137.246, 110.405 139.030, 111.969 140.594, 113.752 141.550, 115.182 141.648, 115.330 141.845, 115.624 141.912, 115.724 142.003, 115.909 142.125, 116.156 142.248, 116.405 142.530, 116.978 142.961, 117.852 143.073, 118.181 143.174, 118.480 143.724, 120.098 143.877, 120.871 143.987, 121.421 144.124, 122.112 144.186, 122.425 144.341, 124.792 144.186, 127.159 144.124, 127.471 143.986, 128.162 143.877, 128.712 143.723, 129.485 143.173, 131.103 143.072, 131.402 142.960, 131.731 142.529, 132.605 142.478, 132.709 142.465, 132.734 142.333, 133.003 142.247, 133.177 142.123, 133.427 142.112, 133.450 141.911, 133.858 140.593, 135.830 139.029, 137.613 137.245, 139.177 135.273, 140.494 133.145, 141.543 130.899, 142.305 128.573, 142.767 " />
            <path fill="none" stroke-width="3.0" stroke-linecap="butt" stroke-opacity="1.0" stroke="rgb(0, 0, 0)" stroke-linejoin="round" d=" M 128.160, 139.807 126.178, 139.937 124.196, 139.806 122.248, 139.419 120.368, 138.780 118.587, 137.902 116.936, 136.798 115.443, 135.489 114.133, 133.996 113.030, 132.344 112.663, 131.601 112.152, 130.563 112.040, 130.234 111.947, 129.960 111.513, 128.683 111.253, 127.374 111.126, 126.735 111.116, 126.584 110.996, 124.753 111.116, 122.922 111.126, 122.772 111.253, 122.133 111.513, 120.824 111.946, 119.547 112.039, 119.273 112.151, 118.943 112.663, 117.906 113.029, 117.162 114.133, 115.511 115.442, 114.017 116.935, 112.708 118.586, 111.604 120.367, 110.725 122.248, 110.087 124.196, 109.699 126.178, 109.569 128.160, 109.698 130.108, 110.086 131.989, 110.724 133.771, 111.602 135.423, 112.706 136.916, 114.015 138.226, 115.509 139.330, 117.160 139.407, 117.317 140.031, 118.582 140.124, 118.771 140.208, 118.942 140.818, 120.740 140.847, 120.823 140.954, 121.365 141.234, 122.771 141.305, 123.852 141.364, 124.753 141.305, 125.655 141.234, 126.736 140.954, 128.141 140.846, 128.684 140.818, 128.767 140.207, 130.565 140.123, 130.735 140.030, 130.924 139.522, 131.954 139.497, 132.004 139.329, 132.346 138.225, 133.997 136.915, 135.491 135.422, 136.800 133.770, 137.903 131.989, 138.782 130.108, 139.420 128.160, 139.807 " />
            <path fill="none" stroke-width="3.0" stroke-linecap="butt" stroke-opacity="1.0" stroke="rgb(0, 0, 0)" stroke-linejoin="round" d=" M 127.634, 136.043 126.141, 136.141 124.648, 136.043 123.181, 135.751 121.765, 135.270 120.423, 134.608 119.180, 133.777 118.055, 132.791 117.069, 131.666 116.238, 130.423 115.576, 129.081 115.095, 127.665 114.804, 126.198 114.706, 124.705 114.803, 123.212 115.095, 121.745 115.576, 120.329 116.237, 118.987 117.068, 117.743 118.055, 116.618 119.179, 115.632 120.423, 114.801 121.765, 114.139 123.181, 113.658 124.648, 113.366 126.141, 113.268 127.634, 113.366 129.102, 113.657 130.518, 114.138 131.860, 114.800 133.104, 115.631 134.229, 116.617 135.215, 117.742 136.047, 118.986 136.708, 120.328 137.189, 121.745 137.481, 123.212 137.579, 124.705 137.481, 126.198 137.189, 127.665 136.708, 129.082 136.046, 130.424 135.215, 131.667 134.228, 132.792 133.104, 133.778 131.860, 134.609 130.518, 135.271 129.101, 135.752 127.634, 136.043 " />
            <path fill="none" stroke-width="3.0" stroke-linecap="butt" stroke-opacity="1.0" stroke="rgb(0, 0, 0)" stroke-linejoin="round" d=" M 127.858, 137.646 126.157, 137.757 124.456, 137.646 122.784, 137.313 121.170, 136.765 119.641, 136.011 118.224, 135.064 116.943, 133.940 115.819, 132.658 114.872, 131.241 114.118, 129.712 113.570, 128.098 113.237, 126.426 113.126, 124.726 113.237, 123.025 113.570, 121.353 114.117, 119.739 114.871, 118.210 115.818, 116.792 116.942, 115.511 118.223, 114.387 119.641, 113.439 121.170, 112.685 122.784, 112.137 124.456, 111.804 126.157, 111.693 127.858, 111.804 129.530, 112.136 131.145, 112.684 132.674, 113.438 134.091, 114.385 135.373, 115.509 136.497, 116.791 137.445, 118.209 138.199, 119.738 138.747, 121.352 139.079, 123.024 139.191, 124.726 139.079, 126.427 138.746, 128.099 138.198, 129.713 137.444, 131.242 136.497, 132.660 135.373, 133.941 134.091, 135.065 132.673, 136.012 131.144, 136.766 129.530, 137.314 127.858, 137.646 " />
            <path fill="none" stroke-width="3.0" stroke-linecap="butt" stroke-opacity="1.0" stroke="rgb(0, 0, 0)" stroke-linejoin="round" d=" M 85.093, 137.283 85.092, 127.283 85.090, 117.283 85.090, 112.948 " />
            <path fill="none" stroke-width="3.0" stroke-linecap="butt" stroke-opacity="1.0" stroke="rgb(0, 0, 0)" stroke-linejoin="round" d=" M 85.870, 139.571 85.869, 129.571 85.868, 119.571 85.866, 110.659 " />
            <path fill="none" stroke-width="3.0" stroke-linecap="butt" stroke-opacity="1.0" stroke="rgb(0, 0, 0)" stroke-linejoin="round" d=" M 96.786, 125.796 96.786, 124.084 " />
            <path fill="none" stroke-width="3.0" stroke-linecap="butt" stroke-opacity="1.0" stroke="rgb(0, 0, 0)" stroke-linejoin="round" d=" M 99.385, 137.079 99.384, 127.079 99.383, 117.079 99.383, 112.800 " />
            <path fill="none" stroke-width="3.0" stroke-linecap="butt" stroke-opacity="1.0" stroke="rgb(0, 0, 0)" stroke-linejoin="round" d=" M 104.655, 130.988 104.655, 127.703 104.654, 121.748 104.654, 118.707 " />
            <path fill="none" stroke-width="3.0" stroke-linecap="butt" stroke-opacity="1.0" stroke="rgb(0, 0, 0)" stroke-linejoin="round" d=" M 108.198, 126.615 108.197, 122.968 " />
            <path fill="none" stroke-width="3.0" stroke-linecap="butt" stroke-opacity="1.0" stroke="rgb(0, 0, 0)" stroke-linejoin="round" d=" M 141.305, 123.852 141.305, 125.655 " />
            <path fill="none" stroke-width="3.0" stroke-linecap="butt" stroke-opacity="1.0" stroke="rgb(0, 0, 0)" stroke-linejoin="round" d=" M 143.877, 120.871 143.877, 128.712 " />
            <path fill="none" stroke-width="3.0" stroke-linecap="butt" stroke-opacity="1.0" stroke="rgb(0, 0, 0)" stroke-linejoin="round" d=" M 147.425, 117.446 147.425, 120.527 147.424, 128.924 147.424, 132.250 " />
            <path fill="none" stroke-width="3.0" stroke-linecap="butt" stroke-opacity="1.0" stroke="rgb(0, 0, 0)" stroke-linejoin="round" d=" M 152.704, 111.651 152.703, 121.651 152.702, 131.651 152.701, 137.776 152.701, 138.228 " />
            <path fill="none" stroke-width="3.0" stroke-linecap="butt" stroke-opacity="1.0" stroke="rgb(0, 0, 0)" stroke-linejoin="round" d=" M 155.304, 130.641 155.305, 120.641 155.305, 119.239 " />
            <path fill="none" stroke-width="3.0" stroke-linecap="butt" stroke-opacity="1.0" stroke="rgb(0, 0, 0)" stroke-linejoin="round" d=" M 155.715, 121.760 155.715, 128.120 " />
            <path fill="none" stroke-width="3.0" stroke-linecap="butt" stroke-opacity="1.0" stroke="rgb(0, 0, 0)" stroke-linejoin="round" d=" M 166.239, 141.892 166.241, 131.892 166.242, 121.893 166.244, 111.893 166.244, 108.338 " />
            <path fill="none" stroke-width="3.0" stroke-linecap="butt" stroke-opacity="1.0" stroke="rgb(0, 0, 0)" stroke-linejoin="round" d=" M 167.022, 110.519 167.021, 120.519 167.019, 130.519 167.018, 139.712 " />
        </g>
    </g>
</svg>
