<?xml version='1.0' encoding='ascii'?>
<svg xmlns="http://www.w3.org/2000/svg" version="1.1" width="250" height="250">
    <g id="ViewLayer_LineSet" xmlns:inkscape="http://www.inkscape.org/namespaces/inkscape" inkscape:groupmode="lineset" inkscape:label="ViewLayer_LineSet">
        <g xmlns:inkscape="http://www.inkscape.org/namespaces/inkscape" inkscape:groupmode="layer" id="strokes" inkscape:label="strokes">
            <path fill="none" stroke-width="3.0" stroke-linecap="butt" stroke-opacity="1.0" stroke="rgb(0, 0, 0)" stroke-linejoin="round" d=" M 246.896, 55.489 240.372, 55.493 231.813, 60.663 223.253, 65.833 220.332, 67.598 211.772, 72.768 208.827, 74.547 208.824, 84.547 208.821, 94.547 208.818, 104.547 208.815, 114.547 208.811, 124.547 208.808, 134.547 208.805, 144.547 208.802, 154.547 208.799, 164.547 208.797, 170.324 217.549, 175.164 223.216, 178.298 231.968, 183.137 240.316, 187.753 246.836, 187.757 " />
            <path fill="none" stroke-width="3.0" stroke-linecap="butt" stroke-opacity="1.0" stroke="rgb(0, 0, 0)" stroke-linejoin="round" d=" M 240.316, 187.753 240.321, 177.753 240.325, 167.753 240.329, 157.753 240.333, 147.753 240.337, 137.753 240.342, 127.753 240.346, 117.753 240.350, 107.753 240.354, 97.753 240.359, 87.753 240.363, 77.753 240.367, 67.753 240.371, 57.753 240.372, 55.493 " />
            <path fill="none" stroke-width="3.0" stroke-linecap="butt" stroke-opacity="1.0" stroke="rgb(0, 0, 0)" stroke-linejoin="round" d=" M 5.542, 187.626 12.032, 187.630 20.782, 182.789 29.532, 177.947 30.058, 177.657 38.808, 172.815 43.427, 170.260 43.424, 160.260 43.421, 150.260 43.418, 140.260 43.415, 130.260 43.412, 120.260 43.409, 110.260 43.406, 100.260 43.403, 90.260 43.400, 80.260 43.398, 74.617 34.840, 69.445 32.841, 68.237 24.283, 63.064 15.724, 57.892 11.978, 55.627 5.484, 55.631 " />
            <path fill="none" stroke-width="3.0" stroke-linecap="butt" stroke-opacity="1.0" stroke="rgb(0, 0, 0)" stroke-linejoin="round" d=" M 12.032, 187.630 12.028, 177.630 12.024, 167.630 12.020, 157.630 12.016, 147.630 12.012, 137.630 12.007, 127.630 12.003, 117.630 11.999, 107.630 11.995, 97.630 11.991, 87.630 11.987, 77.630 11.982, 67.630 11.978, 57.630 11.978, 55.627 " />
            <path fill="none" stroke-width="3.0" stroke-linecap="butt" stroke-opacity="1.0" stroke="rgb(0, 0, 0)" stroke-linejoin="round" d=" M -75.351, 235.978 -66.602, 231.137 -57.852, 226.296 -49.102, 221.455 -40.352, 216.613 -31.602, 211.772 -22.852, 206.931 -14.102, 202.090 -5.352, 197.248 3.398, 192.407 5.544, 191.220 5.542, 187.626 5.541, 184.305 5.536, 174.305 5.532, 164.305 5.527, 154.305 5.523, 144.305 5.519, 134.305 5.514, 124.305 5.510, 114.305 5.505, 104.305 5.501, 94.305 5.497, 84.305 5.492, 74.305 5.488, 64.305 5.486, 59.263 5.484, 55.631 5.482, 51.702 -3.076, 46.530 -11.634, 41.357 -20.193, 36.185 -28.751, 31.012 -37.310, 25.840 -45.868, 20.667 -54.426, 15.495 -62.985, 10.323 -71.543, 5.150 -75.523, 2.745 " />
            <path fill="none" stroke-width="3.0" stroke-linecap="butt" stroke-opacity="1.0" stroke="rgb(0, 0, 0)" stroke-linejoin="round" d=" M 328.400, 2.324 319.840, 7.494 311.280, 12.664 302.720, 17.835 294.161, 23.005 285.601, 28.175 277.041, 33.345 268.481, 38.515 259.922, 43.685 251.362, 48.855 246.898, 51.552 246.896, 55.489 246.894, 59.124 246.890, 69.124 246.885, 79.124 246.881, 89.124 246.876, 99.124 246.872, 109.124 246.867, 119.124 246.863, 129.124 246.858, 139.124 246.854, 149.124 246.849, 159.124 246.845, 169.124 246.840, 179.124 246.838, 184.432 246.836, 187.757 246.835, 191.358 255.586, 196.197 264.337, 201.036 273.088, 205.875 281.840, 210.714 290.591, 215.553 299.342, 220.392 308.093, 225.231 316.844, 230.070 325.596, 234.909 328.225, 236.363 " />
            <path fill="none" stroke-width="3.0" stroke-linecap="butt" stroke-opacity="1.0" stroke="rgb(0, 0, 0)" stroke-linejoin="round" d=" M 30.058, 177.657 31.428, 180.436 36.982, 188.752 39.420, 192.402 46.011, 199.922 48.904, 203.223 56.420, 209.820 59.720, 212.717 68.031, 218.277 71.681, 220.719 80.647, 225.147 84.585, 227.093 94.052, 230.314 98.212, 231.730 108.018, 233.689 112.328, 234.550 122.306, 235.214 126.693, 235.505 136.673, 234.861 141.062, 234.577 150.872, 232.636 155.189, 231.782 164.662, 228.578 168.832, 227.167 177.805, 222.753 181.758, 220.809 190.078, 215.262 193.744, 212.818 201.269, 206.232 204.586, 203.328 211.187, 195.816 214.098, 192.503 219.661, 184.193 222.115, 180.527 223.216, 178.298 " />
            <path fill="none" stroke-width="3.0" stroke-linecap="butt" stroke-opacity="1.0" stroke="rgb(0, 0, 0)" stroke-linejoin="round" d=" M 135.253, 190.580 126.673, 191.137 118.094, 190.570 109.663, 188.889 101.524, 186.122 93.816, 182.317 86.671, 177.539 80.210, 171.870 74.544, 165.407 69.770, 158.260 68.772, 156.237 68.691, 156.073 68.284, 155.246 67.470, 153.595 65.969, 150.552 64.140, 145.166 63.206, 142.413 62.473, 138.733 61.528, 133.984 60.964, 125.408 61.524, 116.831 62.467, 112.081 63.198, 108.400 64.132, 105.647 65.958, 100.259 69.055, 93.971 69.162, 93.754 69.757, 92.547 70.548, 91.362 70.708, 91.122 74.529, 85.397 80.195, 78.930 86.656, 73.257 93.803, 68.475 101.514, 64.667 109.656, 61.898 118.091, 60.215 126.674, 59.647 135.258, 60.205 143.696, 61.879 151.844, 64.641 159.563, 68.444 166.718, 73.222 173.189, 78.893 178.864, 85.362 182.628, 90.994 183.094, 91.690 183.646, 92.516 183.976, 93.186 187.452, 100.234 188.027, 101.928 189.696, 106.845 190.217, 108.382 191.895, 116.822 192.456, 125.409 191.891, 133.995 190.209, 142.433 189.687, 143.969 188.016, 148.886 187.440, 150.579 185.689, 154.125 185.120, 155.277 184.712, 156.104 184.362, 156.813 183.631, 158.293 178.848, 165.444 173.173, 171.908 166.702, 177.575 159.548, 182.349 151.832, 186.148 143.688, 188.907 135.253, 190.580 " />
            <path fill="none" stroke-width="3.0" stroke-linecap="butt" stroke-opacity="1.0" stroke="rgb(0, 0, 0)" stroke-linejoin="round" d=" M 220.332, 67.598 214.775, 59.284 214.142, 58.337 207.546, 50.821 204.632, 47.500 197.111, 40.910 193.789, 37.999 185.471, 32.448 181.798, 29.997 172.826, 25.580 168.865, 23.630 159.393, 20.422 155.213, 19.007 145.403, 17.064 141.075, 16.207 131.096, 15.562 126.695, 15.278 116.717, 15.941 112.318, 16.234 102.512, 18.194 98.191, 19.058 88.725, 22.282 84.555, 23.702 75.591, 28.134 71.644, 30.085 63.335, 35.649 59.678, 38.098 52.166, 44.699 48.861, 47.602 42.274, 55.127 39.378, 58.436 33.829, 66.755 32.841, 68.237 " />
            <path fill="none" stroke-width="3.0" stroke-linecap="butt" stroke-opacity="1.0" stroke="rgb(0, 0, 0)" stroke-linejoin="round" d=" M 69.662, 155.247 70.649, 157.249 75.327, 164.252 80.879, 170.585 87.210, 176.140 94.212, 180.822 101.765, 184.550 109.740, 187.261 118.001, 188.909 126.407, 189.464 134.815, 188.918 143.080, 187.279 151.061, 184.575 158.621, 180.853 165.631, 176.175 171.971, 170.621 177.533, 164.287 182.219, 157.280 183.080, 155.538 " />
            <path fill="none" stroke-width="3.0" stroke-linecap="butt" stroke-opacity="1.0" stroke="rgb(0, 0, 0)" stroke-linejoin="round" d=" M 131.452, 163.376 126.408, 163.705 121.363, 163.373 116.406, 162.385 111.619, 160.759 107.086, 158.522 102.884, 155.713 99.084, 152.380 95.752, 148.580 92.945, 144.377 92.358, 143.187 92.044, 142.551 90.709, 139.844 89.743, 136.997 89.551, 136.432 89.084, 135.058 88.911, 134.185 88.098, 130.101 87.767, 125.057 88.097, 120.013 88.908, 115.928 89.082, 115.056 89.548, 113.682 89.740, 113.117 90.706, 110.269 92.116, 107.406 92.590, 106.444 92.717, 106.187 92.940, 105.735 93.498, 104.899 93.500, 104.897 95.747, 101.531 99.079, 97.729 102.879, 94.394 107.082, 91.584 111.616, 89.346 116.403, 87.719 121.362, 86.731 126.408, 86.399 131.454, 86.728 136.415, 87.713 141.204, 89.337 145.740, 91.573 149.946, 94.382 153.749, 97.716 157.085, 101.519 159.123, 104.568 159.336, 104.888 159.895, 105.724 162.132, 110.260 162.361, 110.935 162.555, 111.508 163.196, 113.395 163.758, 115.050 164.744, 120.011 165.074, 125.058 164.743, 130.104 163.755, 135.065 163.193, 136.719 162.552, 138.606 162.357, 139.178 162.128, 139.853 160.792, 142.561 160.319, 143.518 159.890, 144.388 157.079, 148.592 153.744, 152.393 149.941, 155.726 145.735, 158.534 141.200, 160.768 136.411, 162.392 131.452, 163.376 " />
            <path fill="none" stroke-width="3.0" stroke-linecap="butt" stroke-opacity="1.0" stroke="rgb(0, 0, 0)" stroke-linejoin="round" d=" M 181.177, 91.247 177.548, 85.817 171.987, 79.479 165.647, 73.921 158.635, 69.239 151.072, 65.514 143.088, 62.807 134.820, 61.167 126.408, 60.620 117.998, 61.176 109.733, 62.825 101.754, 65.538 94.199, 69.270 87.196, 73.955 80.864, 79.514 75.313, 85.851 71.482, 91.590 " />
            <path fill="none" stroke-width="3.0" stroke-linecap="butt" stroke-opacity="1.0" stroke="rgb(0, 0, 0)" stroke-linejoin="round" d=" M 183.094, 91.690 183.093, 93.664 183.093, 94.571 183.091, 104.571 183.089, 114.571 183.086, 124.571 183.084, 134.571 183.082, 144.571 183.080, 152.833 183.080, 155.277 183.080, 155.538 183.080, 156.104 184.362, 156.813 " />
            <path fill="none" stroke-width="3.0" stroke-linecap="butt" stroke-opacity="1.0" stroke="rgb(0, 0, 0)" stroke-linejoin="round" d=" M 68.772, 156.237 69.068, 156.073 69.068, 155.247 69.068, 154.042 69.067, 152.803 69.065, 142.803 69.063, 132.803 69.061, 122.803 69.059, 112.803 69.057, 102.803 69.056, 96.066 69.055, 93.971 " />
            <path fill="none" stroke-width="3.0" stroke-linecap="butt" stroke-opacity="1.0" stroke="rgb(0, 0, 0)" stroke-linejoin="round" d=" M 69.068, 155.247 69.662, 155.247 70.561, 155.247 79.218, 150.457 79.217, 147.993 79.217, 147.770 79.215, 137.770 79.214, 127.770 79.212, 117.770 79.210, 107.770 79.209, 99.196 79.209, 98.953 79.209, 96.260 71.482, 91.590 70.708, 91.122 " />
            <path fill="none" stroke-width="3.0" stroke-linecap="butt" stroke-opacity="1.0" stroke="rgb(0, 0, 0)" stroke-linejoin="round" d=" M 70.561, 155.247 70.559, 145.247 70.557, 135.247 70.555, 125.247 70.553, 115.247 70.551, 105.247 70.549, 95.247 70.548, 93.036 70.548, 91.362 " />
            <path fill="none" stroke-width="3.0" stroke-linecap="butt" stroke-opacity="1.0" stroke="rgb(0, 0, 0)" stroke-linejoin="round" d=" M 182.628, 90.994 181.597, 90.994 181.177, 91.247 172.916, 96.237 172.915, 98.933 172.915, 99.174 172.913, 109.174 172.912, 119.174 172.910, 129.174 172.908, 139.174 172.906, 147.790 172.906, 148.011 172.906, 150.478 181.583, 155.276 183.080, 155.277 " />
            <path fill="none" stroke-width="3.0" stroke-linecap="butt" stroke-opacity="1.0" stroke="rgb(0, 0, 0)" stroke-linejoin="round" d=" M 181.583, 155.276 181.585, 145.276 181.588, 135.276 181.590, 125.276 181.592, 115.276 181.594, 105.276 181.596, 95.276 181.597, 91.875 181.597, 90.994 " />
            <path fill="none" stroke-width="3.0" stroke-linecap="butt" stroke-opacity="1.0" stroke="rgb(0, 0, 0)" stroke-linejoin="round" d=" M 129.854, 151.937 126.296, 152.169 122.738, 151.935 119.241, 151.238 115.865, 150.092 112.668, 148.514 109.704, 146.533 107.024, 144.182 104.673, 141.502 102.693, 138.537 102.274, 137.688 101.799, 136.725 101.490, 136.099 101.116, 135.340 101.057, 135.165 99.970, 131.964 99.548, 129.842 99.274, 128.467 99.041, 124.910 99.273, 121.352 99.547, 119.977 99.969, 117.855 101.055, 114.654 101.114, 114.479 101.488, 113.720 101.740, 113.208 102.293, 112.087 102.444, 111.781 102.632, 111.400 102.690, 111.281 102.702, 111.264 103.085, 110.690 104.671, 108.316 107.021, 105.635 109.701, 103.283 112.666, 101.301 115.864, 99.723 119.240, 98.576 122.738, 97.879 126.296, 97.645 129.855, 97.878 133.353, 98.573 136.731, 99.719 139.930, 101.296 142.896, 103.277 145.578, 105.628 147.930, 108.310 149.367, 110.461 149.789, 111.092 149.900, 111.258 149.912, 111.276 149.971, 111.395 150.049, 111.553 150.341, 112.146 150.594, 112.659 151.029, 113.542 151.489, 114.475 152.538, 117.564 152.636, 117.852 153.300, 121.194 153.332, 121.351 153.565, 124.910 153.331, 128.469 153.300, 128.626 152.634, 131.967 152.537, 132.255 151.487, 135.344 151.027, 136.277 150.762, 136.815 150.328, 137.694 149.909, 138.543 147.927, 141.508 145.575, 144.189 142.893, 146.539 139.927, 148.520 136.729, 150.096 133.352, 151.242 129.854, 151.937 " />
            <path fill="none" stroke-width="3.0" stroke-linecap="butt" stroke-opacity="1.0" stroke="rgb(0, 0, 0)" stroke-linejoin="round" d=" M 159.123, 104.568 158.593, 104.888 158.593, 106.177 158.593, 106.928 158.593, 111.067 158.591, 121.067 158.590, 131.067 158.589, 138.592 158.589, 140.694 158.589, 141.381 158.589, 142.561 160.319, 143.518 " />
            <path fill="none" stroke-width="3.0" stroke-linecap="butt" stroke-opacity="1.0" stroke="rgb(0, 0, 0)" stroke-linejoin="round" d=" M 92.358, 143.187 93.507, 142.551 93.507, 141.372 93.507, 140.684 93.507, 137.559 93.505, 127.559 93.504, 117.559 93.504, 112.100 93.503, 106.939 93.503, 106.187 93.503, 104.899 93.500, 104.897 " />
            <path fill="none" stroke-width="3.0" stroke-linecap="butt" stroke-opacity="1.0" stroke="rgb(0, 0, 0)" stroke-linejoin="round" d=" M 128.990, 145.751 126.236, 145.931 123.482, 145.750 120.775, 145.211 118.161, 144.323 115.686, 143.102 113.392, 141.569 111.317, 139.749 109.497, 137.674 107.964, 135.379 107.644, 134.729 107.609, 134.660 107.567, 134.574 107.286, 134.003 106.979, 133.382 106.744, 132.904 106.585, 132.437 105.856, 130.291 105.829, 130.155 105.734, 129.677 105.655, 129.279 105.318, 127.584 105.137, 124.830 105.317, 122.076 105.654, 120.381 105.734, 119.983 105.829, 119.505 105.856, 119.369 105.865, 119.341 106.584, 117.222 106.742, 116.756 106.978, 116.277 107.642, 114.931 107.768, 114.676 107.772, 114.667 107.807, 114.597 107.924, 114.359 107.963, 114.280 107.991, 114.238 108.268, 113.823 109.496, 111.985 111.315, 109.910 113.390, 108.089 115.685, 106.555 118.160, 105.334 120.774, 104.446 123.481, 103.907 126.216, 103.727 126.236, 103.726 128.991, 103.906 131.698, 104.444 134.313, 105.331 136.789, 106.552 139.085, 108.086 141.160, 109.906 142.981, 111.981 144.093, 113.646 144.151, 113.733 144.307, 113.967 144.486, 114.234 144.515, 114.277 145.097, 115.457 145.493, 116.260 145.736, 116.753 146.248, 118.261 146.344, 118.545 146.422, 118.775 146.623, 119.367 147.162, 122.075 147.342, 124.830 147.161, 127.585 146.622, 130.293 146.421, 130.885 146.343, 131.115 146.247, 131.399 145.735, 132.907 145.491, 133.400 145.173, 134.045 144.911, 134.577 144.868, 134.663 144.748, 134.907 144.513, 135.383 142.979, 137.678 141.159, 139.753 139.083, 141.573 136.787, 143.106 134.311, 144.326 131.697, 145.213 128.990, 145.751 " />
            <path fill="none" stroke-width="3.0" stroke-linecap="butt" stroke-opacity="1.0" stroke="rgb(0, 0, 0)" stroke-linejoin="round" d=" M 128.071, 139.171 126.172, 139.295 124.273, 139.170 122.406, 138.799 120.604, 138.187 118.897, 137.345 117.315, 136.288 115.884, 135.033 114.629, 133.602 113.572, 132.020 113.327, 131.523 113.189, 131.243 113.170, 131.205 113.063, 130.987 113.062, 130.986 112.730, 130.313 112.623, 129.996 112.546, 129.771 112.476, 129.565 112.389, 129.307 112.119, 128.511 111.980, 127.815 111.747, 126.644 111.739, 126.518 111.623, 124.745 111.739, 122.973 111.747, 122.846 111.980, 121.675 112.118, 120.980 112.389, 120.183 112.476, 119.926 112.546, 119.720 112.622, 119.494 112.730, 119.177 113.062, 118.504 113.139, 118.348 113.437, 117.743 113.520, 117.575 113.572, 117.471 113.689, 117.295 113.717, 117.253 113.782, 117.155 114.629, 115.888 115.883, 114.457 117.314, 113.202 118.897, 112.144 120.603, 111.302 122.406, 110.690 124.272, 110.319 126.172, 110.194 128.071, 110.318 129.938, 110.689 131.741, 111.301 133.448, 112.143 135.031, 113.200 136.462, 114.455 137.717, 115.886 138.484, 117.034 138.630, 117.252 138.631, 117.254 138.657, 117.293 138.775, 117.469 138.826, 117.573 138.929, 117.783 139.007, 117.940 139.446, 118.831 139.523, 118.986 139.594, 119.130 139.617, 119.176 139.681, 119.366 140.089, 120.569 140.229, 120.979 140.332, 121.497 140.509, 122.387 140.600, 122.846 140.724, 124.745 140.600, 126.645 140.508, 127.103 140.331, 127.993 140.228, 128.512 140.089, 128.922 139.681, 130.124 139.616, 130.314 139.593, 130.361 139.522, 130.504 139.446, 130.660 139.229, 131.099 139.176, 131.206 139.157, 131.244 139.019, 131.525 139.007, 131.550 138.774, 132.021 137.716, 133.604 136.461, 135.035 135.030, 136.289 133.447, 137.347 131.740, 138.188 129.938, 138.800 128.071, 139.171 " />
            <path fill="none" stroke-width="3.0" stroke-linecap="butt" stroke-opacity="1.0" stroke="rgb(0, 0, 0)" stroke-linejoin="round" d=" M 128.448, 141.868 126.198, 142.015 123.948, 141.867 121.737, 141.427 119.603, 140.702 117.581, 139.705 115.707, 138.452 114.012, 136.966 112.526, 135.271 111.274, 133.396 111.012, 132.866 110.937, 132.714 110.813, 132.463 110.670, 132.173 110.523, 131.874 110.408, 131.642 110.277, 131.375 110.085, 130.811 109.578, 129.318 109.552, 129.240 109.550, 129.230 109.112, 127.029 108.965, 124.780 109.112, 122.531 109.550, 120.330 109.552, 120.320 109.578, 120.242 110.085, 118.749 110.276, 118.185 110.408, 117.918 110.522, 117.686 110.810, 117.103 110.907, 116.905 111.117, 116.479 111.173, 116.366 111.199, 116.313 111.273, 116.163 111.284, 116.146 111.435, 115.920 112.525, 114.288 114.011, 112.593 115.706, 111.106 117.580, 109.854 119.602, 108.856 121.737, 108.131 123.948, 107.691 126.198, 107.543 128.448, 107.690 130.660, 108.130 132.795, 108.854 134.817, 109.852 136.692, 111.104 138.387, 112.591 139.874, 114.286 140.787, 115.651 140.965, 115.918 141.127, 116.161 141.201, 116.311 141.261, 116.432 141.550, 117.018 141.664, 117.250 141.987, 117.904 142.124, 118.183 142.494, 119.272 142.523, 119.358 142.849, 120.318 143.119, 121.673 143.289, 122.530 143.345, 123.387 143.436, 124.780 143.345, 126.173 143.289, 127.030 143.118, 127.887 142.849, 129.242 142.523, 130.202 142.493, 130.288 142.124, 131.377 141.986, 131.656 141.665, 132.306 141.663, 132.310 141.587, 132.465 141.549, 132.542 141.463, 132.717 141.318, 133.011 141.126, 133.399 139.873, 135.273 138.386, 136.968 136.691, 138.455 134.816, 139.707 132.794, 140.704 130.659, 141.428 128.448, 141.868 " />
            <path fill="none" stroke-width="3.0" stroke-linecap="butt" stroke-opacity="1.0" stroke="rgb(0, 0, 0)" stroke-linejoin="round" d=" M 127.797, 137.209 126.153, 137.316 124.508, 137.208 122.892, 136.887 121.332, 136.357 119.855, 135.628 118.485, 134.713 117.246, 133.626 116.160, 132.388 115.244, 131.018 115.053, 130.630 115.022, 130.568 115.007, 130.537 114.905, 130.329 114.757, 130.030 114.516, 129.540 114.477, 129.424 114.389, 129.167 114.014, 128.061 113.986, 127.980 113.970, 127.898 113.945, 127.773 113.908, 127.587 113.665, 126.364 113.557, 124.720 113.665, 123.076 113.908, 121.853 113.945, 121.666 113.970, 121.542 113.986, 121.460 114.013, 121.379 114.389, 120.272 114.476, 120.015 114.515, 119.900 114.757, 119.410 115.165, 118.582 115.221, 118.469 115.244, 118.422 115.358, 118.252 115.426, 118.149 116.159, 117.052 117.246, 115.813 118.484, 114.726 119.854, 113.811 121.332, 113.082 122.892, 112.552 124.508, 112.230 126.153, 112.122 127.797, 112.230 129.413, 112.551 130.974, 113.081 132.452, 113.810 133.822, 114.725 135.061, 115.812 136.148, 117.051 136.812, 118.044 136.846, 118.096 136.902, 118.179 136.950, 118.251 137.063, 118.421 137.311, 118.922 137.591, 119.492 137.678, 119.667 137.792, 119.899 138.055, 120.672 138.098, 120.799 138.123, 120.875 138.160, 120.982 138.322, 121.459 138.616, 122.937 138.631, 123.014 138.643, 123.076 138.751, 124.720 138.643, 126.364 138.631, 126.426 138.615, 126.503 138.322, 127.981 138.159, 128.458 138.123, 128.565 138.097, 128.640 138.054, 128.768 137.792, 129.541 137.678, 129.772 137.591, 129.948 137.403, 130.330 137.310, 130.518 137.300, 130.538 137.285, 130.569 137.203, 130.735 137.063, 131.019 136.147, 132.389 135.060, 133.628 133.821, 134.714 132.451, 135.629 130.973, 136.358 129.413, 136.888 127.797, 137.209 " />
            <path fill="none" stroke-width="3.0" stroke-linecap="butt" stroke-opacity="1.0" stroke="rgb(0, 0, 0)" stroke-linejoin="round" d=" M 127.587, 135.705 126.138, 135.800 124.689, 135.705 123.265, 135.422 121.890, 134.955 120.588, 134.313 119.381, 133.506 118.290, 132.549 117.333, 131.457 116.526, 130.250 115.884, 128.948 115.597, 128.102 115.417, 127.573 115.221, 126.586 115.165, 126.307 115.134, 126.149 115.039, 124.701 115.134, 123.252 115.165, 123.094 115.221, 122.815 115.417, 121.828 115.597, 121.299 115.884, 120.453 116.526, 119.151 117.332, 117.944 118.289, 116.852 119.381, 115.895 120.588, 115.088 121.890, 114.446 123.265, 113.979 124.689, 113.695 126.138, 113.600 127.587, 113.695 129.011, 113.978 130.386, 114.445 131.688, 115.087 132.896, 115.894 133.988, 116.851 134.945, 117.943 135.752, 119.150 136.394, 120.452 136.470, 120.676 136.846, 121.784 136.861, 121.827 136.902, 122.033 137.144, 123.252 137.239, 124.701 137.144, 126.150 136.901, 127.368 136.861, 127.574 136.846, 127.617 136.470, 128.725 136.394, 128.949 135.751, 130.251 134.945, 131.458 133.987, 132.550 132.895, 133.507 131.688, 134.314 130.386, 134.956 129.011, 135.422 127.587, 135.705 " />
            <path fill="none" stroke-width="3.0" stroke-linecap="butt" stroke-opacity="1.0" stroke="rgb(0, 0, 0)" stroke-linejoin="round" d=" M 127.286, 133.551 126.117, 133.627 124.948, 133.551 123.799, 133.322 122.690, 132.946 121.640, 132.427 120.666, 131.777 119.785, 131.004 119.013, 130.124 118.362, 129.150 117.844, 128.099 117.468, 126.990 117.239, 125.842 117.163, 124.673 117.239, 123.504 117.468, 122.355 117.844, 121.246 118.362, 120.196 119.013, 119.222 119.785, 118.341 120.666, 117.568 121.639, 116.918 122.690, 116.399 123.799, 116.023 124.948, 115.794 126.117, 115.718 127.286, 115.794 128.435, 116.023 129.544, 116.399 130.595, 116.917 131.569, 117.568 132.450, 118.340 133.222, 119.221 133.873, 120.195 134.391, 121.246 134.768, 122.355 134.996, 123.504 135.073, 124.673 134.996, 125.842 134.767, 126.991 134.391, 128.100 133.873, 129.151 133.222, 130.124 132.449, 131.005 131.568, 131.777 130.594, 132.428 129.544, 132.946 128.435, 133.323 127.286, 133.551 " />
            <path fill="none" stroke-width="3.0" stroke-linecap="butt" stroke-opacity="1.0" stroke="rgb(0, 0, 0)" stroke-linejoin="round" d=" M 127.419, 134.505 126.126, 134.589 124.833, 134.504 123.563, 134.252 122.336, 133.835 121.174, 133.262 120.097, 132.542 119.123, 131.688 118.269, 130.714 117.549, 129.637 116.976, 128.475 116.560, 127.248 116.307, 125.978 116.222, 124.685 116.307, 123.392 116.560, 122.122 116.976, 120.895 117.549, 119.733 118.269, 118.656 119.123, 117.682 120.097, 116.827 121.174, 116.108 122.336, 115.534 123.563, 115.118 124.833, 114.865 126.126, 114.780 127.419, 114.865 128.690, 115.117 129.917, 115.534 131.079, 116.107 132.156, 116.827 133.130, 117.681 133.985, 118.655 134.705, 119.732 135.278, 120.894 135.694, 122.121 135.947, 123.392 136.032, 124.685 135.947, 125.978 135.694, 127.249 135.277, 128.476 134.704, 129.638 133.984, 130.715 133.130, 131.689 132.156, 132.543 131.079, 133.263 129.917, 133.836 128.690, 134.252 127.419, 134.505 " />
            <path fill="none" stroke-width="3.0" stroke-linecap="butt" stroke-opacity="1.0" stroke="rgb(0, 0, 0)" stroke-linejoin="round" d=" M 88.911, 134.185 88.910, 124.185 88.908, 115.928 " />
            <path fill="none" stroke-width="3.0" stroke-linecap="butt" stroke-opacity="1.0" stroke="rgb(0, 0, 0)" stroke-linejoin="round" d=" M 89.551, 136.432 89.550, 126.432 89.548, 116.432 89.548, 113.682 " />
            <path fill="none" stroke-width="3.0" stroke-linecap="butt" stroke-opacity="1.0" stroke="rgb(0, 0, 0)" stroke-linejoin="round" d=" M 101.057, 135.165 101.056, 125.165 101.055, 115.165 101.055, 114.654 " />
            <path fill="none" stroke-width="3.0" stroke-linecap="butt" stroke-opacity="1.0" stroke="rgb(0, 0, 0)" stroke-linejoin="round" d=" M 105.734, 129.677 105.734, 129.436 105.734, 120.003 105.734, 119.983 " />
            <path fill="none" stroke-width="3.0" stroke-linecap="butt" stroke-opacity="1.0" stroke="rgb(0, 0, 0)" stroke-linejoin="round" d=" M 143.119, 121.673 143.118, 127.887 " />
            <path fill="none" stroke-width="3.0" stroke-linecap="butt" stroke-opacity="1.0" stroke="rgb(0, 0, 0)" stroke-linejoin="round" d=" M 146.344, 118.545 146.344, 119.014 146.343, 129.014 146.343, 130.426 146.343, 131.115 " />
            <path fill="none" stroke-width="3.0" stroke-linecap="butt" stroke-opacity="1.0" stroke="rgb(0, 0, 0)" stroke-linejoin="round" d=" M 151.029, 113.542 151.028, 123.542 151.027, 133.542 151.027, 136.277 " />
            <path fill="none" stroke-width="3.0" stroke-linecap="butt" stroke-opacity="1.0" stroke="rgb(0, 0, 0)" stroke-linejoin="round" d=" M 153.300, 128.626 153.300, 121.194 " />
            <path fill="none" stroke-width="3.0" stroke-linecap="butt" stroke-opacity="1.0" stroke="rgb(0, 0, 0)" stroke-linejoin="round" d=" M 162.552, 138.606 162.553, 128.606 162.555, 118.606 162.555, 111.508 " />
            <path fill="none" stroke-width="3.0" stroke-linecap="butt" stroke-opacity="1.0" stroke="rgb(0, 0, 0)" stroke-linejoin="round" d=" M 163.196, 113.395 163.195, 123.395 163.193, 133.395 163.193, 136.719 " />
        </g>
    </g>
</svg>
