<?xml version='1.0' encoding='ascii'?>
<svg xmlns="http://www.w3.org/2000/svg" version="1.1" width="250" height="250">
    <g id="ViewLayer_LineSet" xmlns:inkscape="http://www.inkscape.org/namespaces/inkscape" inkscape:groupmode="lineset" inkscape:label="ViewLayer_LineSet">
        <g xmlns:inkscape="http://www.inkscape.org/namespaces/inkscape" inkscape:groupmode="layer" id="strokes" inkscape:label="strokes">
            <path fill="none" stroke-width="3.0" stroke-linecap="butt" stroke-opacity="1.0" stroke="rgb(0, 0, 0)" stroke-linejoin="round" d=" M 255.489, 50.861 248.034, 50.865 239.474, 56.036 230.915, 61.206 224.570, 65.038 216.011, 70.208 212.771, 72.164 212.768, 82.164 212.765, 92.164 212.762, 102.164 212.758, 112.164 212.755, 122.164 212.752, 132.164 212.749, 142.164 212.745, 152.164 212.742, 162.164 212.739, 172.504 221.490, 177.343 227.583, 180.712 236.334, 185.551 245.085, 190.390 247.970, 191.986 255.422, 191.990 " />
            <path fill="none" stroke-width="3.0" stroke-linecap="butt" stroke-opacity="1.0" stroke="rgb(0, 0, 0)" stroke-linejoin="round" d=" M 247.970, 191.986 247.975, 181.986 247.979, 171.986 247.984, 161.986 247.988, 151.986 247.993, 141.986 247.997, 131.986 248.002, 121.986 248.006, 111.986 248.011, 101.986 248.016, 91.986 248.020, 81.986 248.025, 71.986 248.029, 61.986 248.034, 50.865 " />
            <path fill="none" stroke-width="3.0" stroke-linecap="butt" stroke-opacity="1.0" stroke="rgb(0, 0, 0)" stroke-linejoin="round" d=" M -3.002, 191.841 4.414, 191.845 13.164, 187.004 21.914, 182.163 25.753, 180.038 34.503, 175.197 39.499, 172.433 39.496, 162.433 39.493, 152.433 39.490, 142.433 39.486, 132.433 39.483, 122.433 39.480, 112.433 39.477, 102.433 39.474, 92.433 39.471, 82.433 39.468, 72.242 30.909, 67.069 28.660, 65.710 20.101, 60.537 11.543, 55.365 4.351, 51.018 -3.068, 51.023 " />
            <path fill="none" stroke-width="3.0" stroke-linecap="butt" stroke-opacity="1.0" stroke="rgb(0, 0, 0)" stroke-linejoin="round" d=" M 4.414, 191.845 4.409, 181.845 4.405, 171.845 4.400, 161.845 4.396, 151.845 4.391, 141.845 4.387, 131.845 4.383, 121.845 4.378, 111.845 4.374, 101.845 4.369, 91.845 4.365, 81.845 4.360, 71.845 4.356, 61.845 4.351, 51.018 " />
            <path fill="none" stroke-width="3.0" stroke-linecap="butt" stroke-opacity="1.0" stroke="rgb(0, 0, 0)" stroke-linejoin="round" d=" M 25.753, 180.038 27.185, 182.942 32.739, 191.258 35.536, 195.445 42.127, 202.965 45.445, 206.752 52.961, 213.349 56.745, 216.671 65.057, 222.232 69.243, 225.032 78.209, 229.461 82.726, 231.693 92.193, 234.915 96.964, 236.539 106.770, 238.498 111.713, 239.486 121.691, 240.150 126.723, 240.484 136.702, 239.840 141.737, 239.516 151.547, 237.575 156.498, 236.596 165.971, 233.391 170.754, 231.774 179.727, 227.360 184.260, 225.131 192.581, 219.584 196.785, 216.781 204.311, 210.196 208.115, 206.866 214.716, 199.354 218.054, 195.555 223.617, 187.246 226.432, 183.042 227.583, 180.712 " />
            <path fill="none" stroke-width="3.0" stroke-linecap="butt" stroke-opacity="1.0" stroke="rgb(0, 0, 0)" stroke-linejoin="round" d=" M 135.653, 193.446 126.701, 194.027 117.749, 193.436 108.953, 191.681 100.460, 188.794 92.418, 184.823 84.963, 179.838 78.222, 173.923 72.310, 167.180 67.329, 159.723 66.288, 157.611 66.031, 157.091 65.597, 156.211 64.929, 154.855 63.363, 151.680 62.195, 148.240 60.480, 143.188 60.421, 142.890 58.729, 134.393 58.141, 125.445 58.725, 116.495 60.412, 107.997 60.472, 107.699 62.185, 102.645 63.351, 99.204 66.694, 92.417 67.213, 91.363 67.314, 91.158 68.106, 89.971 72.294, 83.697 78.205, 76.949 84.947, 71.030 92.404, 66.040 100.449, 62.067 108.945, 59.177 117.746, 57.421 126.702, 56.828 135.659, 57.410 144.464, 59.157 152.966, 62.039 161.019, 66.006 168.486, 70.992 175.238, 76.910 181.160, 83.659 184.940, 89.316 185.355, 89.937 186.149, 91.124 186.494, 91.823 189.979, 98.890 190.120, 99.177 191.756, 103.997 193.006, 107.680 194.757, 116.486 195.342, 125.446 194.752, 134.405 192.997, 143.209 191.746, 146.891 190.108, 151.709 189.966, 151.996 188.281, 155.410 187.869, 156.244 187.434, 157.125 186.896, 158.214 186.133, 159.758 181.142, 167.219 175.220, 173.964 168.469, 179.878 161.004, 184.859 152.953, 188.823 144.454, 191.701 135.653, 193.446 " />
            <path fill="none" stroke-width="3.0" stroke-linecap="butt" stroke-opacity="1.0" stroke="rgb(0, 0, 0)" stroke-linejoin="round" d=" M 224.570, 65.038 219.013, 56.724 218.102, 55.361 211.506, 47.845 208.165, 44.037 200.643, 37.447 196.834, 34.109 188.516, 28.558 184.304, 25.748 175.332, 21.331 170.790, 19.095 161.318, 15.888 156.524, 14.265 146.715, 12.322 141.751, 11.340 131.772, 10.695 126.725, 10.369 116.747, 11.033 111.702, 11.369 101.896, 13.330 96.941, 14.321 87.475, 17.545 82.693, 19.174 73.729, 23.606 69.202, 25.844 60.893, 31.409 56.700, 34.217 49.188, 40.818 45.398, 44.149 38.811, 51.673 35.490, 55.468 29.941, 63.788 28.660, 65.710 " />
            <path fill="none" stroke-width="3.0" stroke-linecap="butt" stroke-opacity="1.0" stroke="rgb(0, 0, 0)" stroke-linejoin="round" d=" M 68.345, 156.212 69.261, 158.068 74.056, 165.247 79.747, 171.739 86.237, 177.433 93.414, 182.232 101.156, 186.054 109.331, 188.833 117.800, 190.522 126.417, 191.092 135.035, 190.532 143.507, 188.852 151.689, 186.081 159.439, 182.265 166.625, 177.469 173.124, 171.777 178.825, 165.284 183.629, 158.101 184.546, 156.243 " />
            <path fill="none" stroke-width="3.0" stroke-linecap="butt" stroke-opacity="1.0" stroke="rgb(0, 0, 0)" stroke-linejoin="round" d=" M 131.588, 164.350 126.417, 164.687 121.246, 164.346 116.164, 163.334 111.258, 161.667 106.611, 159.374 102.304, 156.494 98.409, 153.078 94.993, 149.182 92.115, 144.874 91.514, 143.654 91.131, 142.878 89.824, 140.227 89.082, 138.043 88.805, 137.225 88.158, 135.321 88.138, 135.219 87.147, 130.240 86.808, 125.070 87.146, 119.900 88.135, 114.919 88.156, 114.818 88.801, 112.913 89.079, 112.095 89.820, 109.911 91.540, 106.420 91.752, 105.990 91.809, 105.875 92.110, 105.263 92.592, 104.541 92.684, 104.404 94.988, 100.953 98.404, 97.056 102.299, 93.638 106.607, 90.757 111.254, 88.463 116.162, 86.795 121.245, 85.782 126.418, 85.441 131.590, 85.779 136.675, 86.789 141.585, 88.454 146.235, 90.746 150.546, 93.625 154.445, 97.043 157.864, 100.941 159.953, 104.067 160.262, 104.530 160.745, 105.251 163.023, 109.871 163.038, 109.902 163.303, 110.684 163.971, 112.650 164.704, 114.811 165.715, 119.896 166.054, 125.070 165.714, 130.244 164.701, 135.328 163.967, 137.489 163.299, 139.455 163.034, 140.237 163.019, 140.267 161.725, 142.889 161.180, 143.994 160.739, 144.886 157.858, 149.195 154.439, 153.091 150.540, 156.508 146.230, 159.386 141.580, 161.676 136.672, 163.341 131.588, 164.350 " />
            <path fill="none" stroke-width="3.0" stroke-linecap="butt" stroke-opacity="1.0" stroke="rgb(0, 0, 0)" stroke-linejoin="round" d=" M 182.561, 90.411 178.841, 84.845 173.140, 78.348 166.641, 72.651 159.453, 67.851 151.701, 64.032 143.516, 61.258 135.040, 59.576 126.418, 59.016 117.797, 59.586 109.324, 61.277 101.146, 64.058 93.401, 67.883 86.222, 72.686 79.732, 78.384 74.041, 84.880 70.115, 90.764 " />
            <path fill="none" stroke-width="3.0" stroke-linecap="butt" stroke-opacity="1.0" stroke="rgb(0, 0, 0)" stroke-linejoin="round" d=" M 184.940, 89.316 184.940, 89.937 184.939, 92.665 184.939, 94.658 184.937, 104.658 184.934, 114.658 184.932, 124.658 184.930, 134.658 184.928, 144.658 184.926, 153.747 184.925, 155.476 184.925, 156.243 184.925, 157.124 186.896, 158.214 " />
            <path fill="none" stroke-width="3.0" stroke-linecap="butt" stroke-opacity="1.0" stroke="rgb(0, 0, 0)" stroke-linejoin="round" d=" M 66.288, 157.611 67.227, 157.091 67.227, 156.211 67.227, 153.943 67.227, 153.716 67.224, 143.716 67.222, 133.716 67.220, 123.716 67.218, 113.716 67.216, 103.716 67.214, 96.190 67.214, 92.699 67.213, 91.363 " />
            <path fill="none" stroke-width="3.0" stroke-linecap="butt" stroke-opacity="1.0" stroke="rgb(0, 0, 0)" stroke-linejoin="round" d=" M 67.227, 156.211 68.345, 156.212 68.817, 156.212 77.567, 151.371 77.982, 151.141 77.981, 148.551 77.981, 148.383 77.979, 138.383 77.978, 128.383 77.976, 118.383 77.974, 108.383 77.973, 98.526 77.973, 98.343 77.972, 95.513 70.115, 90.764 68.803, 89.971 68.106, 89.971 " />
            <path fill="none" stroke-width="3.0" stroke-linecap="butt" stroke-opacity="1.0" stroke="rgb(0, 0, 0)" stroke-linejoin="round" d=" M 68.817, 156.212 68.815, 146.212 68.813, 136.212 68.810, 126.212 68.808, 116.212 68.806, 106.212 68.804, 96.212 68.804, 92.964 68.803, 89.971 " />
            <path fill="none" stroke-width="3.0" stroke-linecap="butt" stroke-opacity="1.0" stroke="rgb(0, 0, 0)" stroke-linejoin="round" d=" M 184.940, 89.937 183.346, 89.937 182.561, 90.411 174.155, 95.489 174.154, 98.321 174.154, 98.503 174.152, 108.503 174.151, 118.503 174.149, 128.503 174.147, 138.503 174.145, 148.404 174.145, 148.571 174.145, 151.163 182.896, 156.002 183.332, 156.243 184.546, 156.243 184.925, 156.243 " />
            <path fill="none" stroke-width="3.0" stroke-linecap="butt" stroke-opacity="1.0" stroke="rgb(0, 0, 0)" stroke-linejoin="round" d=" M 183.332, 156.243 183.334, 146.243 183.336, 136.243 183.338, 126.243 183.340, 116.243 183.342, 106.243 183.345, 96.243 183.346, 91.586 183.346, 89.937 " />
            <path fill="none" stroke-width="3.0" stroke-linecap="butt" stroke-opacity="1.0" stroke="rgb(0, 0, 0)" stroke-linejoin="round" d=" M 129.921, 152.417 126.301, 152.654 122.680, 152.415 119.122, 151.707 115.687, 150.540 112.433, 148.935 109.417, 146.919 106.690, 144.527 104.298, 141.799 102.283, 138.783 101.829, 137.862 101.342, 136.874 101.190, 136.566 100.709, 135.591 100.679, 135.529 99.512, 132.094 99.198, 130.513 98.804, 128.536 98.567, 124.916 98.804, 121.296 99.197, 119.319 99.511, 117.738 100.677, 114.302 100.707, 114.240 101.188, 113.265 101.446, 112.740 101.980, 111.659 102.030, 111.557 102.185, 111.241 102.255, 111.101 102.281, 111.048 102.682, 110.447 104.296, 108.031 106.687, 105.302 109.415, 102.909 112.431, 100.893 115.685, 99.287 119.121, 98.120 122.680, 97.411 126.301, 97.173 129.922, 97.409 133.482, 98.117 136.919, 99.283 140.174, 100.887 143.192, 102.903 145.921, 105.296 148.315, 108.025 149.777, 110.213 150.103, 110.701 150.331, 111.042 150.357, 111.095 150.427, 111.236 150.471, 111.325 150.636, 111.660 150.895, 112.185 151.377, 113.164 151.937, 114.298 152.889, 117.102 153.103, 117.735 153.715, 120.812 153.811, 121.294 154.048, 124.916 153.810, 128.538 153.714, 129.021 153.102, 132.097 152.887, 132.729 151.934, 135.534 151.375, 136.667 151.196, 137.030 150.783, 137.868 150.329, 138.788 148.312, 141.806 145.918, 144.533 143.189, 146.925 140.172, 148.941 136.917, 150.545 133.480, 151.710 129.921, 152.417 " />
            <path fill="none" stroke-width="3.0" stroke-linecap="butt" stroke-opacity="1.0" stroke="rgb(0, 0, 0)" stroke-linejoin="round" d=" M 159.953, 104.067 159.186, 104.530 159.186, 105.865 159.186, 106.607 159.185, 111.195 159.184, 121.195 159.183, 131.195 159.182, 138.472 159.182, 140.988 159.182, 141.667 159.181, 142.889 161.180, 143.994 " />
            <path fill="none" stroke-width="3.0" stroke-linecap="butt" stroke-opacity="1.0" stroke="rgb(0, 0, 0)" stroke-linejoin="round" d=" M 91.514, 143.654 92.915, 142.878 92.915, 141.657 92.915, 140.978 92.915, 137.288 92.913, 127.288 92.912, 117.288 92.912, 112.378 92.911, 106.618 92.911, 105.875 92.911, 104.541 92.684, 104.404 " />
            <path fill="none" stroke-width="3.0" stroke-linecap="butt" stroke-opacity="1.0" stroke="rgb(0, 0, 0)" stroke-linejoin="round" d=" M 129.030, 146.038 126.239, 146.220 123.447, 146.037 120.704, 145.490 118.055, 144.591 115.546, 143.353 113.221, 141.799 111.118, 139.955 109.274, 137.851 107.720, 135.526 107.395, 134.867 107.343, 134.762 107.300, 134.674 107.013, 134.093 106.799, 133.659 106.483, 133.017 106.375, 132.700 105.626, 130.495 105.583, 130.368 105.505, 129.976 105.449, 129.691 105.038, 127.625 104.854, 124.834 105.037, 122.042 105.448, 119.976 105.505, 119.691 105.583, 119.299 105.626, 119.172 106.374, 116.967 106.481, 116.650 106.798, 116.008 107.474, 114.637 107.525, 114.534 107.538, 114.506 107.583, 114.416 107.718, 114.141 107.719, 114.140 107.742, 114.106 108.028, 113.677 109.272, 111.815 111.116, 109.711 113.219, 107.866 115.545, 106.312 118.054, 105.074 120.703, 104.174 123.447, 103.628 126.239, 103.444 129.031, 103.627 131.775, 104.172 134.425, 105.071 136.935, 106.308 139.261, 107.863 141.365, 109.707 143.210, 111.811 144.340, 113.501 144.493, 113.730 144.764, 114.137 144.765, 114.138 145.277, 115.176 145.703, 116.039 146.003, 116.647 146.451, 117.968 146.573, 118.328 146.629, 118.492 146.902, 119.297 147.448, 122.042 147.631, 124.834 147.447, 127.626 146.901, 130.370 146.628, 131.175 146.572, 131.339 146.450, 131.700 146.001, 133.020 145.702, 133.628 145.432, 134.173 145.184, 134.677 145.140, 134.766 145.001, 135.048 144.764, 135.529 143.209, 137.855 141.363, 139.959 139.260, 141.803 136.933, 143.357 134.423, 144.594 131.774, 145.492 129.030, 146.038 " />
            <path fill="none" stroke-width="3.0" stroke-linecap="butt" stroke-opacity="1.0" stroke="rgb(0, 0, 0)" stroke-linejoin="round" d=" M 128.090, 139.307 126.173, 139.432 124.256, 139.306 122.372, 138.931 120.553, 138.314 118.831, 137.464 117.234, 136.397 115.790, 135.130 114.523, 133.686 113.456, 132.089 113.201, 131.572 113.061, 131.287 113.042, 131.249 112.969, 131.101 112.942, 131.046 112.607, 130.366 112.534, 130.151 112.456, 129.923 112.375, 129.683 112.286, 129.421 111.989, 128.547 111.882, 128.009 111.626, 126.721 111.615, 126.664 111.489, 124.747 111.614, 122.830 111.626, 122.773 111.882, 121.484 111.989, 120.946 112.286, 120.072 112.374, 119.811 112.456, 119.571 112.533, 119.343 112.606, 119.127 112.969, 118.392 113.056, 118.215 113.350, 117.620 113.394, 117.530 113.456, 117.405 113.561, 117.246 113.589, 117.204 113.668, 117.086 114.523, 115.807 115.789, 114.363 117.233, 113.096 118.830, 112.029 120.553, 111.179 122.372, 110.561 124.256, 110.186 126.173, 110.060 128.090, 110.186 129.974, 110.560 131.794, 111.178 133.517, 112.027 135.114, 113.095 136.559, 114.361 137.826, 115.806 138.600, 116.964 138.719, 117.143 138.759, 117.203 138.788, 117.245 138.893, 117.403 138.955, 117.528 139.012, 117.644 139.100, 117.823 139.535, 118.705 139.613, 118.863 139.696, 119.030 139.743, 119.126 139.784, 119.248 140.187, 120.435 140.361, 120.946 140.445, 121.370 140.613, 122.213 140.735, 122.830 140.861, 124.747 140.735, 126.664 140.612, 127.281 140.444, 128.124 140.360, 128.548 140.187, 129.058 139.784, 130.246 139.742, 130.368 139.695, 130.464 139.612, 130.631 139.535, 130.788 139.352, 131.160 139.307, 131.250 139.288, 131.289 139.148, 131.574 139.100, 131.671 138.892, 132.091 137.825, 133.688 136.558, 135.132 135.114, 136.398 133.516, 137.466 131.793, 138.315 129.974, 138.932 128.090, 139.307 " />
            <path fill="none" stroke-width="3.0" stroke-linecap="butt" stroke-opacity="1.0" stroke="rgb(0, 0, 0)" stroke-linejoin="round" d=" M 128.474, 142.058 126.200, 142.207 123.925, 142.058 121.690, 141.613 119.532, 140.880 117.488, 139.872 115.593, 138.605 113.880, 137.103 112.377, 135.389 111.111, 133.494 110.846, 132.957 110.759, 132.781 110.633, 132.526 110.501, 132.257 110.390, 132.031 110.273, 131.795 110.103, 131.450 109.959, 131.026 109.444, 129.509 109.400, 129.378 109.370, 129.292 108.926, 127.057 108.793, 125.041 108.777, 124.782 108.793, 124.524 108.925, 122.508 109.370, 120.273 109.399, 120.187 109.444, 120.056 109.958, 118.539 110.102, 118.115 110.272, 117.769 110.389, 117.533 110.695, 116.913 110.794, 116.712 110.952, 116.390 110.995, 116.304 111.021, 116.251 111.110, 116.070 111.164, 115.990 111.256, 115.852 112.376, 114.175 113.879, 112.461 115.592, 110.958 117.487, 109.692 119.531, 108.683 121.690, 107.950 123.925, 107.505 126.200, 107.356 128.475, 107.504 130.711, 107.949 132.869, 108.681 134.914, 109.689 136.810, 110.956 138.524, 112.459 140.027, 114.173 140.946, 115.547 140.961, 115.570 141.148, 115.849 141.294, 116.068 141.381, 116.246 141.683, 116.858 141.800, 117.094 142.113, 117.730 142.302, 118.113 142.629, 119.075 142.674, 119.209 143.035, 120.272 143.281, 121.507 143.479, 122.508 143.494, 122.731 143.624, 124.715 143.628, 124.783 143.624, 124.850 143.494, 126.834 143.479, 127.057 143.280, 128.058 143.034, 129.293 142.673, 130.356 142.628, 130.490 142.301, 131.452 142.112, 131.835 141.837, 132.392 141.799, 132.470 141.770, 132.528 141.682, 132.707 141.644, 132.783 141.486, 133.104 141.293, 133.496 140.026, 135.392 138.523, 137.105 136.808, 138.608 134.913, 139.874 132.868, 140.882 130.710, 141.614 128.474, 142.058 " />
            <path fill="none" stroke-width="3.0" stroke-linecap="butt" stroke-opacity="1.0" stroke="rgb(0, 0, 0)" stroke-linejoin="round" d=" M 127.811, 137.310 126.154, 137.419 124.496, 137.310 122.867, 136.986 121.294, 136.452 119.805, 135.717 118.424, 134.794 117.175, 133.699 116.080, 132.451 115.158, 131.070 114.965, 130.679 114.928, 130.604 114.913, 130.573 114.809, 130.362 114.687, 130.115 114.423, 129.580 114.403, 129.520 114.322, 129.282 113.934, 128.138 113.898, 128.032 113.889, 128.007 113.864, 127.881 113.835, 127.735 113.565, 126.378 113.457, 124.721 113.565, 123.064 113.835, 121.708 113.864, 121.561 113.889, 121.435 113.897, 121.410 113.934, 121.304 114.322, 120.160 114.402, 119.923 114.423, 119.862 114.687, 119.327 115.100, 118.489 115.156, 118.375 115.157, 118.373 115.262, 118.215 115.341, 118.097 116.080, 116.991 117.175, 115.743 118.424, 114.647 119.805, 113.724 121.294, 112.990 122.867, 112.455 124.496, 112.131 126.154, 112.022 127.811, 112.131 129.440, 112.455 131.013, 112.989 132.503, 113.723 133.885, 114.646 135.134, 115.741 136.229, 116.990 136.898, 117.992 136.911, 118.011 136.967, 118.095 137.047, 118.214 137.152, 118.371 137.381, 118.836 137.665, 119.412 137.745, 119.574 137.887, 119.861 138.135, 120.592 138.170, 120.696 138.204, 120.797 138.233, 120.881 138.421, 121.434 138.694, 122.809 138.719, 122.934 138.745, 123.064 138.853, 124.721 138.745, 126.379 138.719, 126.509 138.694, 126.633 138.420, 128.008 138.232, 128.562 138.204, 128.646 138.170, 128.747 138.134, 128.851 137.886, 129.581 137.745, 129.868 137.665, 130.030 137.500, 130.363 137.397, 130.574 137.381, 130.605 137.380, 130.607 137.292, 130.785 137.151, 131.071 136.228, 132.452 135.133, 133.701 133.884, 134.796 132.503, 135.718 131.013, 136.453 129.440, 136.987 127.811, 137.310 " />
            <path fill="none" stroke-width="3.0" stroke-linecap="butt" stroke-opacity="1.0" stroke="rgb(0, 0, 0)" stroke-linejoin="round" d=" M 127.598, 135.784 126.139, 135.880 124.680, 135.784 123.246, 135.498 121.861, 135.028 120.550, 134.382 119.334, 133.569 118.235, 132.605 117.271, 131.506 116.459, 130.290 115.812, 128.979 115.537, 128.168 115.342, 127.594 115.156, 126.660 115.100, 126.378 115.057, 126.160 114.961, 124.702 115.057, 123.243 115.100, 123.025 115.156, 122.743 115.342, 121.809 115.536, 121.236 115.812, 120.424 116.458, 119.113 117.271, 117.897 118.235, 116.798 119.334, 115.833 120.550, 115.021 121.861, 114.374 123.245, 113.904 124.680, 113.618 126.139, 113.523 127.598, 113.618 129.032, 113.903 130.417, 114.373 131.728, 115.020 132.944, 115.832 134.044, 116.796 135.008, 117.896 135.821, 119.112 136.467, 120.423 136.530, 120.608 136.911, 121.730 136.937, 121.808 136.967, 121.957 137.223, 123.242 137.318, 124.702 137.223, 126.161 136.967, 127.446 136.937, 127.595 136.911, 127.673 136.530, 128.795 136.467, 128.980 135.820, 130.291 135.008, 131.507 134.043, 132.606 132.944, 133.570 131.728, 134.383 130.416, 135.029 129.032, 135.499 127.598, 135.784 " />
            <path fill="none" stroke-width="3.0" stroke-linecap="butt" stroke-opacity="1.0" stroke="rgb(0, 0, 0)" stroke-linejoin="round" d=" M 127.293, 133.602 126.117, 133.679 124.942, 133.602 123.787, 133.372 122.671, 132.993 121.615, 132.472 120.635, 131.818 119.750, 131.041 118.973, 130.156 118.319, 129.176 117.798, 128.120 117.419, 127.004 117.189, 125.849 117.112, 124.673 117.189, 123.498 117.419, 122.343 117.797, 121.227 118.318, 120.171 118.973, 119.191 119.749, 118.305 120.635, 117.529 121.614, 116.874 122.671, 116.353 123.786, 115.974 124.942, 115.744 126.117, 115.667 127.293, 115.744 128.449, 115.974 129.564, 116.352 130.621, 116.874 131.600, 117.528 132.486, 118.305 133.263, 119.191 133.918, 120.170 134.439, 121.227 134.817, 122.342 135.047, 123.498 135.124, 124.673 135.047, 125.849 134.817, 127.005 134.438, 128.120 133.917, 129.177 133.263, 130.156 132.486, 131.042 131.600, 131.819 130.620, 132.473 129.564, 132.994 128.448, 133.372 127.293, 133.602 " />
            <path fill="none" stroke-width="3.0" stroke-linecap="butt" stroke-opacity="1.0" stroke="rgb(0, 0, 0)" stroke-linejoin="round" d=" M 127.428, 134.567 126.127, 134.653 124.826, 134.567 123.547, 134.313 122.313, 133.894 121.144, 133.317 120.060, 132.593 119.080, 131.733 118.220, 130.753 117.496, 129.669 116.919, 128.500 116.500, 127.265 116.246, 125.987 116.161, 124.686 116.246, 123.385 116.500, 122.106 116.919, 120.872 117.496, 119.703 118.220, 118.619 119.079, 117.638 120.059, 116.779 121.143, 116.054 122.313, 115.478 123.547, 115.058 124.826, 114.804 126.127, 114.718 127.428, 114.804 128.707, 115.058 129.941, 115.477 131.111, 116.054 132.195, 116.778 133.175, 117.638 134.035, 118.618 134.759, 119.702 135.336, 120.871 135.755, 122.106 136.010, 123.385 136.095, 124.686 136.009, 125.987 135.755, 127.266 135.336, 128.500 134.759, 129.670 134.035, 130.754 133.175, 131.734 132.195, 132.593 131.110, 133.318 129.941, 133.894 128.706, 134.313 127.428, 134.567 " />
            <path fill="none" stroke-width="3.0" stroke-linecap="butt" stroke-opacity="1.0" stroke="rgb(0, 0, 0)" stroke-linejoin="round" d=" M 88.138, 135.219 88.137, 125.219 88.135, 115.219 88.135, 114.919 " />
            <path fill="none" stroke-width="3.0" stroke-linecap="butt" stroke-opacity="1.0" stroke="rgb(0, 0, 0)" stroke-linejoin="round" d=" M 88.805, 137.225 88.803, 127.225 88.802, 117.225 88.801, 112.913 " />
            <path fill="none" stroke-width="3.0" stroke-linecap="butt" stroke-opacity="1.0" stroke="rgb(0, 0, 0)" stroke-linejoin="round" d=" M 100.709, 135.591 100.708, 125.591 100.707, 115.591 100.707, 114.240 " />
            <path fill="none" stroke-width="3.0" stroke-linecap="butt" stroke-opacity="1.0" stroke="rgb(0, 0, 0)" stroke-linejoin="round" d=" M 105.505, 129.976 105.505, 129.145 105.505, 120.298 105.505, 119.691 " />
            <path fill="none" stroke-width="3.0" stroke-linecap="butt" stroke-opacity="1.0" stroke="rgb(0, 0, 0)" stroke-linejoin="round" d=" M 108.793, 125.041 108.793, 124.524 " />
            <path fill="none" stroke-width="3.0" stroke-linecap="butt" stroke-opacity="1.0" stroke="rgb(0, 0, 0)" stroke-linejoin="round" d=" M 143.281, 121.507 143.280, 128.058 " />
            <path fill="none" stroke-width="3.0" stroke-linecap="butt" stroke-opacity="1.0" stroke="rgb(0, 0, 0)" stroke-linejoin="round" d=" M 146.573, 118.328 146.573, 119.163 146.572, 129.163 146.572, 130.279 146.572, 131.339 " />
            <path fill="none" stroke-width="3.0" stroke-linecap="butt" stroke-opacity="1.0" stroke="rgb(0, 0, 0)" stroke-linejoin="round" d=" M 151.377, 113.164 151.377, 123.164 151.376, 133.164 151.375, 136.667 " />
            <path fill="none" stroke-width="3.0" stroke-linecap="butt" stroke-opacity="1.0" stroke="rgb(0, 0, 0)" stroke-linejoin="round" d=" M 153.714, 129.021 153.715, 120.812 " />
            <path fill="none" stroke-width="3.0" stroke-linecap="butt" stroke-opacity="1.0" stroke="rgb(0, 0, 0)" stroke-linejoin="round" d=" M 163.299, 139.455 163.301, 129.455 163.302, 119.455 163.303, 110.684 " />
            <path fill="none" stroke-width="3.0" stroke-linecap="butt" stroke-opacity="1.0" stroke="rgb(0, 0, 0)" stroke-linejoin="round" d=" M 163.971, 112.650 163.969, 122.650 163.968, 132.650 163.967, 137.489 " />
        </g>
    </g>
</svg>
