<?xml version='1.0' encoding='ascii'?>
<svg xmlns="http://www.w3.org/2000/svg" version="1.1" width="250" height="250">
    <g id="ViewLayer_LineSet" xmlns:inkscape="http://www.inkscape.org/namespaces/inkscape" inkscape:groupmode="lineset" inkscape:label="ViewLayer_LineSet">
        <g xmlns:inkscape="http://www.inkscape.org/namespaces/inkscape" inkscape:groupmode="layer" id="strokes" inkscape:label="strokes">
            <path fill="none" stroke-width="3.0" stroke-linecap="butt" stroke-opacity="1.0" stroke="rgb(0, 0, 0)" stroke-linejoin="round" d=" M 269.632, 37.820 261.073, 42.990 252.513, 48.160 243.953, 53.330 235.627, 58.359 227.067, 63.530 223.157, 65.891 223.154, 75.891 223.150, 85.891 223.147, 95.891 223.143, 105.891 223.139, 115.891 223.136, 125.891 223.132, 135.891 223.129, 145.891 223.125, 155.891 223.121, 165.891 223.118, 175.891 223.117, 178.243 231.868, 183.082 238.972, 187.010 247.723, 191.849 256.475, 196.688 265.226, 201.527 269.544, 203.915 " />
            <path fill="none" stroke-width="3.0" stroke-linecap="butt" stroke-opacity="1.0" stroke="rgb(0, 0, 0)" stroke-linejoin="round" d=" M -17.050, 203.721 -8.300, 198.880 0.450, 194.038 9.200, 189.197 14.529, 186.249 23.279, 181.407 29.160, 178.154 29.156, 168.154 29.153, 158.154 29.149, 148.154 29.146, 138.154 29.142, 128.154 29.139, 118.154 29.135, 108.154 29.132, 98.154 29.128, 88.154 29.124, 78.154 29.121, 68.154 29.120, 65.988 20.562, 60.816 17.755, 59.119 9.197, 53.947 0.638, 48.774 -7.920, 43.602 -16.479, 38.429 -17.136, 38.032 " />
            <path fill="none" stroke-width="3.0" stroke-linecap="butt" stroke-opacity="1.0" stroke="rgb(0, 0, 0)" stroke-linejoin="round" d=" M 136.692, 200.883 126.773, 201.527 116.856, 200.871 107.110, 198.926 97.701, 195.727 88.791, 191.327 80.531, 185.804 73.063, 179.250 66.513, 171.779 60.995, 163.517 59.841, 161.178 59.080, 159.634 58.577, 158.614 58.336, 158.125 57.350, 156.126 56.601, 154.607 55.291, 150.750 53.407, 145.199 51.467, 135.455 50.815, 125.540 51.462, 115.625 53.396, 105.879 55.278, 100.327 56.586, 96.468 57.335, 94.948 60.290, 88.948 60.977, 87.553 61.115, 87.345 61.860, 86.230 62.076, 85.906 66.494, 79.286 73.042, 71.810 80.511, 65.251 88.773, 59.722 97.687, 55.319 107.100, 52.116 116.851, 50.170 126.774, 49.513 136.699, 50.157 146.455, 52.092 155.876, 55.284 164.800, 59.680 173.074, 65.204 180.555, 71.761 187.117, 79.240 191.126, 85.238 191.760, 86.187 192.506, 87.304 192.645, 87.511 193.027, 88.286 194.842, 91.966 196.905, 96.148 197.046, 96.435 200.243, 105.856 202.183, 115.614 202.831, 125.542 202.177, 135.469 200.232, 145.225 197.030, 154.643 196.889, 154.929 194.545, 159.675 193.471, 161.850 192.626, 163.561 187.095, 171.828 180.533, 179.301 173.052, 185.852 164.780, 191.371 155.860, 195.762 146.444, 198.951 136.692, 200.883 " />
            <path fill="none" stroke-width="3.0" stroke-linecap="butt" stroke-opacity="1.0" stroke="rgb(0, 0, 0)" stroke-linejoin="round" d=" M 143.497, 252.395 153.307, 250.456 159.912, 249.150 169.385, 245.947 175.766, 243.789 184.740, 239.377 190.787, 236.404 199.108, 230.858 204.717, 227.120 212.243, 220.535 217.318, 216.095 223.920, 208.584 228.373, 203.517 233.937, 195.208 237.692, 189.601 238.972, 187.010 " />
            <path fill="none" stroke-width="3.0" stroke-linecap="butt" stroke-opacity="1.0" stroke="rgb(0, 0, 0)" stroke-linejoin="round" d=" M 235.627, 58.359 230.069, 50.046 228.432, 47.597 221.836, 40.081 217.380, 35.003 209.858, 28.414 204.777, 23.962 196.459, 18.412 190.841, 14.663 181.869, 10.247 175.810, 7.266 166.338, 4.059 159.944, 1.895 150.134, -0.046 143.514, -1.356 " />
            <path fill="none" stroke-width="3.0" stroke-linecap="butt" stroke-opacity="1.0" stroke="rgb(0, 0, 0)" stroke-linejoin="round" d=" M 110.096, -1.320 100.291, 0.642 93.680, 1.964 84.215, 5.190 77.836, 7.364 68.873, 11.797 62.835, 14.783 54.526, 20.349 48.932, 24.096 41.421, 30.698 36.365, 35.141 29.780, 42.667 25.349, 47.730 19.801, 56.050 17.755, 59.119 " />
            <path fill="none" stroke-width="3.0" stroke-linecap="butt" stroke-opacity="1.0" stroke="rgb(0, 0, 0)" stroke-linejoin="round" d=" M 14.529, 186.249 16.121, 189.478 21.675, 197.794 25.406, 203.380 31.996, 210.901 36.424, 215.953 43.939, 222.551 48.989, 226.984 57.300, 232.545 62.885, 236.282 71.850, 240.712 77.877, 243.690 87.343, 246.912 93.709, 249.079 103.514, 251.040 110.110, 252.358 " />
            <path fill="none" stroke-width="3.0" stroke-linecap="butt" stroke-opacity="1.0" stroke="rgb(0, 0, 0)" stroke-linejoin="round" d=" M 65.014, 158.316 65.877, 160.066 70.958, 167.673 76.988, 174.552 83.865, 180.585 91.470, 185.671 99.673, 189.720 108.336, 192.666 117.309, 194.456 126.440, 195.059 135.572, 194.467 144.550, 192.687 153.219, 189.750 161.432, 185.707 169.047, 180.626 175.934, 174.594 181.975, 167.714 187.066, 160.103 187.783, 158.651 " />
            <path fill="none" stroke-width="3.0" stroke-linecap="butt" stroke-opacity="1.0" stroke="rgb(0, 0, 0)" stroke-linejoin="round" d=" M 131.920, 166.723 126.440, 167.080 120.961, 166.719 115.576, 165.646 110.377, 163.880 105.454, 161.450 100.889, 158.399 96.762, 154.778 93.143, 150.650 90.093, 146.085 89.456, 144.793 88.896, 143.658 87.665, 141.161 87.509, 140.703 87.013, 139.242 86.280, 137.083 85.900, 135.963 84.829, 130.579 84.469, 125.100 84.827, 119.622 85.897, 114.237 86.277, 113.117 87.009, 110.957 87.505, 109.496 87.661, 109.037 90.088, 104.112 90.370, 103.689 90.695, 103.202 93.137, 99.546 96.756, 95.416 100.883, 91.794 105.448, 88.741 110.373, 86.310 115.573, 84.543 120.960, 83.469 126.441, 83.108 131.922, 83.465 137.310, 84.535 142.513, 86.300 147.441, 88.728 152.009, 91.779 156.140, 95.401 159.763, 99.531 161.977, 102.844 162.533, 103.676 162.816, 104.100 164.600, 107.716 165.099, 108.728 165.246, 109.027 165.833, 110.755 167.012, 114.230 168.083, 119.618 168.442, 125.101 168.082, 130.583 167.009, 135.971 165.828, 139.445 165.241, 141.173 165.094, 141.472 164.595, 142.483 164.009, 143.670 163.277, 145.153 162.810, 146.099 159.757, 150.665 156.134, 154.794 152.003, 158.414 147.434, 161.463 142.508, 163.891 137.307, 165.654 131.920, 166.723 " />
            <path fill="none" stroke-width="3.0" stroke-linecap="butt" stroke-opacity="1.0" stroke="rgb(0, 0, 0)" stroke-linejoin="round" d=" M 185.935, 88.373 181.993, 82.475 175.952, 75.590 169.065, 69.553 161.448, 64.467 153.233, 60.420 144.560, 57.481 135.578, 55.699 126.441, 55.106 117.305, 55.710 108.328, 57.502 99.661, 60.450 91.455, 64.503 83.848, 69.593 76.971, 75.631 70.941, 82.514 66.781, 88.749 " />
            <path fill="none" stroke-width="3.0" stroke-linecap="butt" stroke-opacity="1.0" stroke="rgb(0, 0, 0)" stroke-linejoin="round" d=" M 191.126, 85.238 189.553, 86.188 189.553, 87.305 189.553, 90.167 189.551, 95.096 189.549, 105.096 189.547, 115.096 189.544, 125.096 189.542, 135.096 189.539, 145.096 189.537, 155.099 189.537, 156.032 189.536, 158.652 189.536, 159.674 193.471, 161.850 " />
            <path fill="none" stroke-width="3.0" stroke-linecap="butt" stroke-opacity="1.0" stroke="rgb(0, 0, 0)" stroke-linejoin="round" d=" M 59.841, 161.178 62.629, 159.636 62.629, 158.615 62.628, 155.996 62.627, 153.476 62.625, 143.476 62.623, 133.476 62.621, 123.476 62.618, 113.476 62.616, 103.476 62.614, 96.719 62.613, 90.207 62.612, 87.345 62.612, 86.229 62.076, 85.906 " />
            <path fill="none" stroke-width="3.0" stroke-linecap="butt" stroke-opacity="1.0" stroke="rgb(0, 0, 0)" stroke-linejoin="round" d=" M 62.629, 158.615 64.473, 158.615 65.014, 158.316 73.764, 153.475 74.955, 152.816 74.954, 149.907 74.954, 149.884 74.952, 139.884 74.950, 129.884 74.949, 119.884 74.947, 109.884 74.945, 99.884 74.944, 96.886 74.944, 96.861 74.944, 93.682 66.781, 88.749 64.457, 87.344 62.612, 87.345 " />
            <path fill="none" stroke-width="3.0" stroke-linecap="butt" stroke-opacity="1.0" stroke="rgb(0, 0, 0)" stroke-linejoin="round" d=" M 64.473, 158.615 64.472, 157.217 64.470, 147.217 64.468, 137.217 64.466, 127.217 64.463, 117.217 64.461, 107.217 64.459, 97.217 64.458, 92.976 64.457, 87.344 " />
            <path fill="none" stroke-width="3.0" stroke-linecap="butt" stroke-opacity="1.0" stroke="rgb(0, 0, 0)" stroke-linejoin="round" d=" M 189.553, 87.305 187.704, 87.305 185.935, 88.373 177.375, 93.544 177.190, 93.655 177.189, 96.837 177.189, 96.860 177.188, 106.860 177.186, 116.860 177.184, 126.860 177.182, 136.860 177.180, 146.860 177.179, 149.908 177.179, 149.929 177.179, 152.841 185.930, 157.680 187.687, 158.651 187.783, 158.651 189.536, 158.652 " />
            <path fill="none" stroke-width="3.0" stroke-linecap="butt" stroke-opacity="1.0" stroke="rgb(0, 0, 0)" stroke-linejoin="round" d=" M 187.687, 158.651 187.690, 148.651 187.692, 138.651 187.694, 128.651 187.696, 118.651 187.699, 108.651 187.701, 98.651 187.703, 91.348 187.704, 87.305 " />
            <path fill="none" stroke-width="3.0" stroke-linecap="butt" stroke-opacity="1.0" stroke="rgb(0, 0, 0)" stroke-linejoin="round" d=" M 130.081, 153.560 126.312, 153.806 122.543, 153.558 118.839, 152.821 115.263, 151.606 111.876, 149.935 108.736, 147.836 105.897, 145.346 103.407, 142.506 101.309, 139.366 100.768, 138.269 100.298, 137.316 99.893, 136.494 99.639, 135.979 98.425, 132.403 98.378, 132.167 97.688, 128.699 97.440, 124.931 97.687, 121.162 98.376, 117.694 98.423, 117.458 99.637, 113.881 99.891, 113.366 100.486, 112.158 100.760, 111.603 101.045, 111.024 101.121, 110.869 101.194, 110.721 101.244, 110.620 101.306, 110.494 101.725, 109.868 103.404, 107.353 105.894, 104.513 108.733, 102.021 111.873, 99.922 115.261, 98.250 118.838, 97.035 122.543, 96.297 126.312, 96.049 130.082, 96.295 133.788, 97.032 137.366, 98.245 140.755, 99.916 143.897, 102.015 146.738, 104.506 149.229, 107.346 150.752, 109.624 150.840, 109.756 151.329, 110.488 151.441, 110.715 151.597, 111.032 152.195, 112.245 153.000, 113.877 153.710, 115.970 154.214, 117.455 154.693, 119.864 154.951, 121.161 155.086, 123.225 155.198, 124.931 155.086, 126.636 154.950, 128.701 154.692, 129.997 154.213, 132.407 153.708, 133.892 152.997, 135.984 152.229, 137.542 152.193, 137.615 151.867, 138.275 151.326, 139.372 149.226, 142.513 146.734, 145.353 143.893, 147.843 140.752, 149.941 137.363, 151.611 133.786, 152.824 130.081, 153.560 " />
            <path fill="none" stroke-width="3.0" stroke-linecap="butt" stroke-opacity="1.0" stroke="rgb(0, 0, 0)" stroke-linejoin="round" d=" M 161.977, 102.844 160.599, 103.676 160.599, 105.123 160.599, 105.842 160.598, 111.876 160.597, 121.876 160.596, 131.876 160.595, 137.808 160.594, 141.688 160.594, 142.346 160.594, 143.670 163.277, 145.153 " />
            <path fill="none" stroke-width="3.0" stroke-linecap="butt" stroke-opacity="1.0" stroke="rgb(0, 0, 0)" stroke-linejoin="round" d=" M 89.456, 144.793 91.505, 143.659 91.505, 142.335 91.505, 141.677 91.504, 136.588 91.503, 126.588 91.502, 116.588 91.501, 113.095 91.501, 105.854 91.500, 105.135 91.500, 103.689 90.695, 103.202 " />
            <path fill="none" stroke-width="3.0" stroke-linecap="butt" stroke-opacity="1.0" stroke="rgb(0, 0, 0)" stroke-linejoin="round" d=" M 129.124, 146.711 126.245, 146.899 123.366, 146.710 120.537, 146.146 117.805, 145.219 115.218, 143.942 112.819, 142.339 110.650, 140.437 108.749, 138.268 107.146, 135.869 106.811, 135.190 106.717, 135.000 106.672, 134.908 106.374, 134.304 105.887, 133.316 105.870, 133.282 105.156, 131.177 104.972, 130.637 104.969, 130.629 104.943, 130.550 104.380, 127.721 104.191, 124.842 104.379, 121.964 104.942, 119.134 104.969, 119.056 104.972, 119.047 105.155, 118.507 105.869, 116.402 105.886, 116.368 106.380, 115.365 107.096, 113.914 107.145, 113.815 107.153, 113.802 107.320, 113.552 107.464, 113.337 108.747, 111.416 110.649, 109.246 112.818, 107.343 115.216, 105.740 117.804, 104.463 120.536, 103.535 123.366, 102.972 126.245, 102.782 129.125, 102.971 131.955, 103.533 134.688, 104.460 137.276, 105.736 139.676, 107.339 141.846, 109.242 143.749, 111.412 144.923, 113.168 144.975, 113.246 145.352, 113.811 145.401, 113.910 145.696, 114.507 146.192, 115.514 146.629, 116.399 146.922, 117.265 147.107, 117.809 147.109, 117.813 147.556, 119.132 148.119, 121.963 148.308, 124.843 148.119, 127.722 147.555, 130.553 147.108, 131.871 147.106, 131.876 146.921, 132.420 146.627, 133.285 146.190, 134.171 146.040, 134.475 145.825, 134.911 145.780, 135.003 145.596, 135.376 145.351, 135.873 143.747, 138.272 141.844, 140.441 139.674, 142.343 137.275, 143.946 134.687, 145.222 131.954, 146.149 129.124, 146.711 " />
            <path fill="none" stroke-width="3.0" stroke-linecap="butt" stroke-opacity="1.0" stroke="rgb(0, 0, 0)" stroke-linejoin="round" d=" M 128.134, 139.621 126.176, 139.749 124.218, 139.620 122.294, 139.238 120.437, 138.607 118.677, 137.739 117.046, 136.649 115.572, 135.355 114.278, 133.880 113.188, 132.249 112.909, 131.683 112.765, 131.390 112.756, 131.371 112.745, 131.350 112.663, 131.185 112.329, 130.507 112.321, 130.490 112.249, 130.280 112.141, 129.960 112.049, 129.689 111.690, 128.632 111.658, 128.468 111.365, 127.000 111.308, 126.708 111.219, 125.355 111.179, 124.751 111.219, 124.147 111.307, 122.794 111.365, 122.502 111.657, 121.034 111.690, 120.869 112.049, 119.812 112.140, 119.542 112.249, 119.222 112.320, 119.012 112.329, 118.994 112.755, 118.130 112.868, 117.902 113.101, 117.428 113.148, 117.333 113.188, 117.252 113.266, 117.136 113.295, 117.092 113.405, 116.927 114.278, 115.621 115.571, 114.146 117.046, 112.852 118.677, 111.762 120.436, 110.894 122.294, 110.263 124.218, 109.880 126.176, 109.751 128.134, 109.880 130.059, 110.262 131.917, 110.893 133.676, 111.760 135.308, 112.850 136.783, 114.144 138.077, 115.619 138.868, 116.802 138.921, 116.882 139.061, 117.091 139.090, 117.134 139.167, 117.251 139.243, 117.403 139.314, 117.549 139.740, 118.412 139.820, 118.574 139.930, 118.797 140.022, 118.983 140.035, 119.010 140.412, 120.122 140.666, 120.869 140.706, 121.068 140.851, 121.801 141.049, 122.793 141.177, 124.751 141.048, 126.709 140.851, 127.701 140.705, 128.434 140.665, 128.633 140.412, 129.380 140.035, 130.491 140.021, 130.519 139.929, 130.705 139.819, 130.928 139.739, 131.090 139.636, 131.300 139.610, 131.352 139.591, 131.392 139.446, 131.685 139.338, 131.903 139.333, 131.913 139.167, 132.251 138.076, 133.882 136.782, 135.357 135.307, 136.651 133.676, 137.741 131.916, 138.608 130.058, 139.239 128.134, 139.621 " />
            <path fill="none" stroke-width="3.0" stroke-linecap="butt" stroke-opacity="1.0" stroke="rgb(0, 0, 0)" stroke-linejoin="round" d=" M 128.536, 142.503 126.204, 142.655 123.872, 142.502 121.580, 142.046 119.367, 141.294 117.271, 140.260 115.328, 138.962 113.571, 137.421 112.031, 135.664 110.732, 133.721 110.461, 133.171 110.345, 132.935 110.214, 132.670 110.107, 132.452 110.082, 132.402 109.961, 132.157 109.699, 131.625 109.668, 131.535 109.134, 129.962 109.051, 129.717 108.948, 129.412 108.492, 127.120 108.419, 126.015 108.339, 124.788 108.419, 123.561 108.491, 122.456 108.947, 120.164 109.051, 119.859 109.134, 119.614 109.668, 118.041 109.698, 117.951 109.960, 117.419 110.081, 117.174 110.430, 116.466 110.533, 116.258 110.570, 116.183 110.580, 116.163 110.607, 116.107 110.731, 115.855 110.839, 115.694 110.886, 115.623 112.030, 113.912 113.570, 112.154 115.327, 110.613 117.270, 109.314 119.366, 108.280 121.580, 107.528 123.872, 107.072 126.204, 106.919 128.537, 107.071 130.829, 107.527 133.043, 108.278 135.140, 109.312 137.083, 110.610 138.841, 112.152 140.382, 113.909 141.324, 115.319 141.380, 115.403 141.574, 115.692 141.681, 115.853 141.771, 116.035 141.991, 116.481 142.112, 116.727 142.404, 117.319 142.715, 117.949 142.939, 118.608 143.023, 118.856 143.467, 120.163 143.655, 121.113 143.838, 122.030 143.923, 122.456 143.973, 123.226 144.075, 124.788 143.973, 126.351 143.922, 127.121 143.837, 127.547 143.655, 128.464 143.466, 129.413 143.022, 130.720 142.938, 130.968 142.714, 131.627 142.403, 132.257 142.239, 132.591 142.199, 132.672 142.111, 132.849 142.068, 132.937 141.990, 133.095 141.879, 133.321 141.680, 133.723 140.381, 135.667 138.840, 137.424 137.082, 138.965 135.138, 140.263 133.042, 141.296 130.829, 142.047 128.536, 142.503 " />
            <path fill="none" stroke-width="3.0" stroke-linecap="butt" stroke-opacity="1.0" stroke="rgb(0, 0, 0)" stroke-linejoin="round" d=" M 127.844, 137.545 126.156, 137.655 124.468, 137.544 122.809, 137.214 121.208, 136.670 119.691, 135.922 118.284, 134.982 117.013, 133.867 115.898, 132.596 114.958, 131.189 114.762, 130.791 114.710, 130.686 114.694, 130.654 114.588, 130.438 114.526, 130.313 114.234, 129.720 114.210, 129.672 114.169, 129.551 113.751, 128.319 113.733, 128.267 113.679, 128.108 113.668, 128.077 113.666, 128.071 113.336, 126.412 113.226, 124.724 113.336, 123.037 113.666, 121.378 113.668, 121.371 113.679, 121.341 113.733, 121.182 113.750, 121.129 114.168, 119.898 114.210, 119.776 114.233, 119.728 114.526, 119.135 114.950, 118.273 114.958, 118.259 115.008, 118.183 115.042, 118.132 115.145, 117.979 115.897, 116.852 117.012, 115.581 118.284, 114.465 119.690, 113.525 121.207, 112.777 122.809, 112.233 124.468, 111.903 126.156, 111.792 127.844, 111.903 129.503, 112.232 131.105, 112.776 132.622, 113.524 134.029, 114.464 135.301, 115.579 136.416, 116.851 137.114, 117.895 137.117, 117.899 137.272, 118.131 137.356, 118.258 137.542, 118.634 137.835, 119.228 137.899, 119.358 138.105, 119.775 138.318, 120.404 138.335, 120.454 138.390, 120.615 138.399, 120.644 138.648, 121.377 138.874, 122.511 138.921, 122.746 138.978, 123.036 139.089, 124.724 138.978, 126.412 138.920, 126.703 138.874, 126.937 138.648, 128.072 138.399, 128.805 138.389, 128.833 138.335, 128.994 138.318, 129.045 138.104, 129.673 137.898, 130.090 137.834, 130.221 137.726, 130.439 137.620, 130.656 137.604, 130.688 137.541, 130.814 137.499, 130.899 137.356, 131.191 136.416, 132.597 135.300, 133.869 134.028, 134.984 132.622, 135.923 131.105, 136.671 129.503, 137.215 127.844, 137.545 " />
            <path fill="none" stroke-width="3.0" stroke-linecap="butt" stroke-opacity="1.0" stroke="rgb(0, 0, 0)" stroke-linejoin="round" d=" M 127.623, 135.965 126.140, 136.062 124.658, 135.965 123.201, 135.675 121.794, 135.197 120.461, 134.540 119.226, 133.715 118.109, 132.735 117.130, 131.618 116.304, 130.383 115.647, 129.050 115.399, 128.319 115.170, 127.643 115.008, 126.833 114.951, 126.543 114.880, 126.186 114.783, 124.704 114.880, 123.221 114.951, 122.865 115.008, 122.575 115.170, 121.764 115.399, 121.088 115.647, 120.357 116.304, 119.025 117.129, 117.789 118.109, 116.672 119.226, 115.693 120.461, 114.867 121.794, 114.210 123.201, 113.732 124.658, 113.442 126.141, 113.345 127.623, 113.442 129.081, 113.731 130.488, 114.209 131.820, 114.866 133.056, 115.692 134.173, 116.671 135.153, 117.788 135.979, 119.024 136.636, 120.357 136.668, 120.451 137.059, 121.603 137.113, 121.764 137.117, 121.779 137.403, 123.221 137.500, 124.704 137.403, 126.187 137.116, 127.629 137.113, 127.644 137.059, 127.805 136.667, 128.957 136.635, 129.051 135.978, 130.384 135.153, 131.619 134.173, 132.736 133.055, 133.716 131.820, 134.541 130.487, 135.198 129.080, 135.676 127.623, 135.965 " />
            <path fill="none" stroke-width="3.0" stroke-linecap="butt" stroke-opacity="1.0" stroke="rgb(0, 0, 0)" stroke-linejoin="round" d=" M 127.309, 133.719 126.119, 133.797 124.928, 133.719 123.757, 133.486 122.628, 133.103 121.557, 132.575 120.565, 131.912 119.668, 131.125 118.882, 130.228 118.219, 129.236 117.691, 128.166 117.307, 127.036 117.075, 125.866 116.996, 124.675 117.074, 123.484 117.307, 122.314 117.691, 121.184 118.218, 120.114 118.881, 119.122 119.668, 118.224 120.565, 117.438 121.557, 116.775 122.627, 116.247 123.757, 115.863 124.928, 115.630 126.119, 115.552 127.309, 115.630 128.480, 115.863 129.610, 116.246 130.680, 116.774 131.673, 117.437 132.570, 118.224 133.357, 119.121 134.020, 120.113 134.548, 121.184 134.931, 122.314 135.164, 123.484 135.242, 124.675 135.164, 125.866 134.931, 127.036 134.547, 128.166 134.019, 129.237 133.356, 130.229 132.570, 131.126 131.672, 131.913 130.680, 132.576 129.610, 133.103 128.480, 133.487 127.309, 133.719 " />
            <path fill="none" stroke-width="3.0" stroke-linecap="butt" stroke-opacity="1.0" stroke="rgb(0, 0, 0)" stroke-linejoin="round" d=" M 127.448, 134.711 126.128, 134.798 124.809, 134.711 123.512, 134.453 122.259, 134.028 121.073, 133.443 119.974, 132.708 118.980, 131.836 118.108, 130.842 117.373, 129.742 116.788, 128.556 116.363, 127.304 116.105, 126.007 116.019, 124.688 116.105, 123.368 116.363, 122.071 116.788, 120.819 117.373, 119.633 118.108, 118.533 118.979, 117.539 119.974, 116.667 121.073, 115.932 122.259, 115.347 123.512, 114.922 124.809, 114.664 126.128, 114.577 127.448, 114.664 128.745, 114.921 129.998, 115.346 131.184, 115.931 132.284, 116.666 133.278, 117.538 134.150, 118.532 134.885, 119.632 135.470, 120.818 135.895, 122.071 136.153, 123.368 136.239, 124.688 136.153, 126.008 135.895, 127.305 135.470, 128.557 134.884, 129.743 134.150, 130.843 133.277, 131.837 132.283, 132.709 131.183, 133.444 129.997, 134.028 128.745, 134.453 127.448, 134.711 " />
            <path fill="none" stroke-width="3.0" stroke-linecap="butt" stroke-opacity="1.0" stroke="rgb(0, 0, 0)" stroke-linejoin="round" d=" M 86.280, 137.083 86.279, 127.083 86.278, 117.083 86.277, 113.117 " />
            <path fill="none" stroke-width="3.0" stroke-linecap="butt" stroke-opacity="1.0" stroke="rgb(0, 0, 0)" stroke-linejoin="round" d=" M 87.013, 139.242 87.012, 129.242 87.011, 119.242 87.009, 110.957 " />
            <path fill="none" stroke-width="3.0" stroke-linecap="butt" stroke-opacity="1.0" stroke="rgb(0, 0, 0)" stroke-linejoin="round" d=" M 99.893, 136.494 99.892, 126.494 99.891, 116.494 99.891, 113.366 " />
            <path fill="none" stroke-width="3.0" stroke-linecap="butt" stroke-opacity="1.0" stroke="rgb(0, 0, 0)" stroke-linejoin="round" d=" M 104.972, 130.637 104.972, 128.444 104.972, 121.004 104.972, 119.047 " />
            <path fill="none" stroke-width="3.0" stroke-linecap="butt" stroke-opacity="1.0" stroke="rgb(0, 0, 0)" stroke-linejoin="round" d=" M 108.419, 126.015 108.419, 123.561 " />
            <path fill="none" stroke-width="3.0" stroke-linecap="butt" stroke-opacity="1.0" stroke="rgb(0, 0, 0)" stroke-linejoin="round" d=" M 143.655, 121.113 143.655, 128.464 " />
            <path fill="none" stroke-width="3.0" stroke-linecap="butt" stroke-opacity="1.0" stroke="rgb(0, 0, 0)" stroke-linejoin="round" d=" M 147.107, 117.809 147.107, 119.792 147.106, 129.656 147.106, 131.876 " />
            <path fill="none" stroke-width="3.0" stroke-linecap="butt" stroke-opacity="1.0" stroke="rgb(0, 0, 0)" stroke-linejoin="round" d=" M 152.195, 112.245 152.194, 122.245 152.193, 132.245 152.193, 137.524 152.193, 137.615 " />
            <path fill="none" stroke-width="3.0" stroke-linecap="butt" stroke-opacity="1.0" stroke="rgb(0, 0, 0)" stroke-linejoin="round" d=" M 154.692, 129.997 154.693, 119.997 154.693, 119.864 " />
            <path fill="none" stroke-width="3.0" stroke-linecap="butt" stroke-opacity="1.0" stroke="rgb(0, 0, 0)" stroke-linejoin="round" d=" M 155.086, 123.225 155.086, 126.636 " />
            <path fill="none" stroke-width="3.0" stroke-linecap="butt" stroke-opacity="1.0" stroke="rgb(0, 0, 0)" stroke-linejoin="round" d=" M 165.094, 141.472 165.095, 131.472 165.097, 121.472 165.098, 111.472 165.099, 108.728 " />
            <path fill="none" stroke-width="3.0" stroke-linecap="butt" stroke-opacity="1.0" stroke="rgb(0, 0, 0)" stroke-linejoin="round" d=" M 165.833, 110.755 165.831, 120.755 165.830, 130.755 165.828, 139.445 " />
        </g>
    </g>
</svg>
