<?xml version='1.0' encoding='ascii'?>
<svg xmlns="http://www.w3.org/2000/svg" version="1.1" width="250" height="250">
    <g id="ViewLayer_LineSet" xmlns:inkscape="http://www.inkscape.org/namespaces/inkscape" inkscape:groupmode="lineset" inkscape:label="ViewLayer_LineSet">
        <g xmlns:inkscape="http://www.inkscape.org/namespaces/inkscape" inkscape:groupmode="layer" id="strokes" inkscape:label="strokes">
            <path fill="none" stroke-width="3.0" stroke-linecap="butt" stroke-opacity="1.0" stroke="rgb(0, 0, 0)" stroke-linejoin="round" d=" M 141.727, 237.194 131.748, 237.838 127.081, 238.139 117.103, 237.476 112.438, 237.166 102.632, 235.206 98.050, 234.291 88.583, 231.069 84.161, 229.564 75.195, 225.135 71.008, 223.067 62.696, 217.506 58.816, 214.910 51.301, 208.313 47.793, 205.234 41.201, 197.714 38.125, 194.204 32.571, 185.888 29.980, 182.008 28.311, 178.623 26.088, 174.116 23.494, 168.853 20.278, 159.384 18.778, 154.966 16.825, 145.158 15.914, 140.582 15.256, 130.604 14.950, 125.947 15.599, 115.968 15.902, 111.310 17.847, 101.501 18.756, 96.921 21.964, 87.450 23.462, 83.027 27.878, 74.054 28.912, 71.952 29.940, 69.863 31.547, 67.455 37.095, 59.135 38.082, 57.656 44.669, 50.131 47.748, 46.614 55.260, 40.013 58.773, 36.926 67.082, 31.362 70.970, 28.759 79.934, 24.327 84.130, 22.252 93.596, 19.028 98.029, 17.518 107.834, 15.558 112.428, 14.639 122.406, 13.975 127.083, 13.664 137.062, 14.309 141.741, 14.611 151.550, 16.554 156.151, 17.465 165.623, 20.672 170.067, 22.177 179.039, 26.594 183.249, 28.667 191.567, 34.218 195.472, 36.824 202.993, 43.414 206.525, 46.508 213.120, 54.024 216.218, 57.554 221.775, 65.868 222.184, 66.479 224.385, 69.772 224.984, 70.986 229.407, 79.954 230.886, 82.953 234.100, 92.423 235.609, 96.870 237.558, 106.679 238.473, 111.285 239.123, 121.264 239.429, 125.950 238.770, 135.928 238.461, 140.613 236.504, 150.419 235.585, 155.022 232.364, 164.489 230.853, 168.932 227.845, 175.019 225.579, 179.604 224.344, 182.103 218.781, 190.413 216.172, 194.310 209.571, 201.822 206.477, 205.344 198.952, 211.929 195.425, 215.016 187.105, 220.563 183.207, 223.161 174.234, 227.575 170.032, 229.641 160.560, 232.845 156.126, 234.345 146.316, 236.286 141.727, 237.194 " />
            <path fill="none" stroke-width="3.0" stroke-linecap="butt" stroke-opacity="1.0" stroke="rgb(0, 0, 0)" stroke-linejoin="round" d=" M 51.471, 165.809 52.525, 167.948 58.080, 176.263 58.734, 177.243 65.326, 184.763 66.103, 185.649 73.619, 192.245 74.505, 193.023 82.817, 198.582 83.797, 199.238 92.764, 203.665 93.822, 204.188 103.289, 207.408 104.407, 207.788 114.214, 209.745 115.373, 209.977 125.351, 210.638 126.531, 210.716 136.510, 210.069 137.692, 209.993 147.501, 208.050 148.664, 207.819 158.135, 204.613 159.259, 204.232 168.231, 199.817 169.297, 199.292 177.616, 193.743 178.604, 193.084 186.128, 186.496 187.023, 185.712 193.622, 178.199 194.407, 177.304 199.969, 168.993 200.631, 168.003 201.483, 166.280 " />
            <path fill="none" stroke-width="3.0" stroke-linecap="butt" stroke-opacity="1.0" stroke="rgb(0, 0, 0)" stroke-linejoin="round" d=" M 133.228, 176.089 126.532, 176.525 119.835, 176.083 113.255, 174.771 106.901, 172.612 100.885, 169.642 95.307, 165.913 90.264, 161.489 85.841, 156.444 82.114, 150.865 81.335, 149.286 80.318, 147.224 80.309, 147.206 79.300, 145.158 79.147, 144.848 76.990, 138.495 75.681, 131.916 75.241, 125.221 75.678, 118.526 76.985, 111.945 79.140, 105.591 79.293, 105.281 80.302, 103.233 81.642, 100.514 82.106, 99.572 82.848, 98.460 85.832, 93.991 90.254, 88.944 95.298, 84.517 100.877, 80.785 106.895, 77.814 113.250, 75.653 119.834, 74.341 126.532, 73.899 133.232, 74.335 139.817, 75.642 146.176, 77.798 152.199, 80.766 157.783, 84.495 162.832, 88.922 167.261, 93.970 169.966, 98.019 170.992, 99.553 171.250, 100.076 171.820, 101.232 172.831, 103.283 173.962, 105.576 176.120, 111.935 177.117, 116.948 177.430, 118.521 177.868, 125.222 177.427, 131.922 177.114, 133.495 176.115, 138.507 173.955, 144.865 172.823, 147.157 172.589, 147.633 171.812, 149.207 171.553, 149.730 170.983, 150.885 167.251, 156.466 162.822, 161.512 157.773, 165.936 152.190, 169.662 146.168, 172.628 139.812, 174.782 133.228, 176.089 " />
            <path fill="none" stroke-width="3.0" stroke-linecap="butt" stroke-opacity="1.0" stroke="rgb(0, 0, 0)" stroke-linejoin="round" d=" M 199.253, 80.329 194.434, 73.119 187.839, 65.603 187.050, 64.704 179.530, 58.113 178.631, 57.326 170.314, 51.774 169.321, 51.111 160.350, 46.692 159.279, 46.165 149.808, 42.956 148.678, 42.573 138.869, 40.629 137.700, 40.397 127.721, 39.750 126.532, 39.673 116.554, 40.334 115.367, 40.413 105.561, 42.371 104.395, 42.604 94.928, 45.826 93.804, 46.209 84.839, 50.638 83.775, 51.164 75.465, 56.726 74.480, 57.385 66.966, 63.984 66.077, 64.766 59.488, 72.289 58.709, 73.179 53.625, 80.798 " />
            <path fill="none" stroke-width="3.0" stroke-linecap="butt" stroke-opacity="1.0" stroke="rgb(0, 0, 0)" stroke-linejoin="round" d=" M 222.184, 66.479 213.624, 71.649 209.463, 74.163 209.462, 76.071 209.461, 79.389 209.458, 89.389 209.455, 99.389 209.454, 104.319 209.450, 114.319 209.447, 124.319 209.444, 134.319 209.441, 144.319 209.441, 146.121 209.437, 156.121 209.434, 165.894 209.434, 168.930 209.433, 170.676 218.184, 175.515 225.579, 179.604 " />
            <path fill="none" stroke-width="3.0" stroke-linecap="butt" stroke-opacity="1.0" stroke="rgb(0, 0, 0)" stroke-linejoin="round" d=" M 28.311, 178.623 37.061, 173.782 42.793, 170.610 42.793, 168.867 42.792, 165.833 42.789, 155.833 42.786, 145.833 42.785, 141.291 42.782, 131.291 42.779, 121.291 42.775, 111.291 42.775, 109.148 42.772, 99.148 42.769, 89.148 42.766, 79.456 42.765, 76.140 42.764, 74.234 34.206, 69.062 31.547, 67.455 " />
            <path fill="none" stroke-width="3.0" stroke-linecap="butt" stroke-opacity="1.0" stroke="rgb(0, 0, 0)" stroke-linejoin="round" d=" M 42.793, 168.867 45.943, 168.868 51.471, 165.809 60.221, 160.968 62.820, 159.530 62.818, 149.530 62.816, 139.530 62.813, 129.530 62.811, 119.530 62.809, 109.530 62.806, 99.530 62.804, 89.530 62.803, 86.345 54.245, 81.173 53.625, 80.798 45.916, 76.139 42.765, 76.140 " />
            <path fill="none" stroke-width="3.0" stroke-linecap="butt" stroke-opacity="1.0" stroke="rgb(0, 0, 0)" stroke-linejoin="round" d=" M 45.943, 168.868 45.940, 158.868 45.938, 153.080 45.935, 143.080 45.932, 133.080 45.929, 123.080 45.926, 113.080 45.923, 103.080 45.922, 97.355 45.919, 87.355 45.916, 77.355 45.916, 76.139 " />
            <path fill="none" stroke-width="3.0" stroke-linecap="butt" stroke-opacity="1.0" stroke="rgb(0, 0, 0)" stroke-linejoin="round" d=" M 209.462, 76.071 206.301, 76.072 199.253, 80.329 190.693, 85.499 189.362, 86.304 189.359, 96.304 189.357, 106.304 189.354, 116.304 189.352, 126.304 189.350, 136.304 189.347, 146.304 189.345, 156.304 189.344, 159.568 198.095, 164.407 201.483, 166.280 206.273, 168.929 209.434, 168.930 " />
            <path fill="none" stroke-width="3.0" stroke-linecap="butt" stroke-opacity="1.0" stroke="rgb(0, 0, 0)" stroke-linejoin="round" d=" M 206.273, 168.929 206.276, 158.929 206.277, 155.941 206.280, 145.941 206.283, 135.941 206.286, 125.941 206.289, 115.941 206.292, 105.941 206.295, 95.941 206.295, 94.495 206.298, 84.495 206.301, 76.072 " />
            <path fill="none" stroke-width="3.0" stroke-linecap="butt" stroke-opacity="1.0" stroke="rgb(0, 0, 0)" stroke-linejoin="round" d=" M 130.660, 157.704 126.352, 157.985 122.045, 157.701 117.812, 156.858 113.725, 155.470 109.854, 153.560 106.266, 151.161 103.021, 148.315 100.176, 145.070 97.778, 141.481 97.046, 139.996 96.888, 139.677 96.623, 139.139 95.869, 137.611 95.538, 136.634 94.482, 133.524 93.944, 130.822 93.690, 129.545 93.640, 129.291 93.450, 126.401 93.357, 124.984 93.450, 123.567 93.639, 120.677 93.689, 120.423 93.943, 119.146 94.480, 116.444 95.535, 113.333 95.867, 112.356 97.043, 109.970 97.476, 109.091 97.775, 108.485 98.073, 108.039 100.172, 104.895 103.017, 101.649 106.262, 98.802 109.851, 96.402 113.722, 94.492 117.810, 93.103 122.044, 92.259 126.353, 91.976 130.661, 92.257 134.897, 93.098 138.986, 94.485 142.859, 96.394 146.450, 98.793 149.697, 101.640 152.545, 104.886 154.646, 108.031 154.944, 108.477 155.048, 108.686 155.110, 108.813 156.556, 111.744 156.855, 112.350 158.153, 116.175 158.243, 116.440 158.405, 117.256 158.647, 118.474 159.085, 120.675 159.367, 124.984 159.084, 129.293 158.645, 131.494 158.403, 132.712 158.240, 133.529 158.151, 133.793 156.852, 137.617 156.553, 138.223 155.973, 139.398 155.831, 139.685 155.379, 140.601 155.307, 140.747 154.941, 141.490 152.541, 145.079 149.693, 148.325 146.446, 151.171 142.855, 153.568 138.983, 155.476 134.894, 156.863 130.660, 157.704 " />
            <path fill="none" stroke-width="3.0" stroke-linecap="butt" stroke-opacity="1.0" stroke="rgb(0, 0, 0)" stroke-linejoin="round" d=" M 169.966, 98.019 165.759, 100.560 165.758, 102.451 165.758, 103.049 165.757, 113.049 165.756, 115.422 165.755, 125.422 165.754, 134.323 165.752, 144.244 165.752, 144.791 165.752, 146.522 171.553, 149.730 " />
            <path fill="none" stroke-width="3.0" stroke-linecap="butt" stroke-opacity="1.0" stroke="rgb(0, 0, 0)" stroke-linejoin="round" d=" M 81.335, 149.286 86.357, 146.507 86.357, 144.777 86.357, 144.230 86.355, 134.230 86.355, 132.035 86.354, 122.035 86.353, 117.710 86.352, 107.710 86.351, 103.065 86.351, 102.466 86.351, 100.576 82.848, 98.460 " />
            <path fill="none" stroke-width="3.0" stroke-linecap="butt" stroke-opacity="1.0" stroke="rgb(0, 0, 0)" stroke-linejoin="round" d=" M 129.451, 149.050 126.268, 149.257 123.085, 149.048 119.957, 148.425 116.937, 147.400 114.077, 145.989 111.425, 144.216 109.027, 142.113 106.925, 139.715 105.153, 137.063 104.783, 136.312 104.529, 135.797 104.476, 135.690 104.299, 135.332 104.237, 135.206 103.742, 134.203 103.577, 133.716 103.361, 133.081 103.163, 132.495 102.717, 131.183 102.095, 128.055 101.886, 124.873 102.094, 121.690 102.716, 118.562 103.161, 117.249 103.360, 116.663 103.576, 116.028 103.741, 115.541 104.235, 114.538 104.930, 113.128 105.151, 112.681 105.342, 112.394 105.420, 112.277 105.504, 112.152 106.923, 110.028 109.025, 107.630 111.423, 105.526 114.075, 103.753 116.936, 102.342 119.956, 101.316 123.085, 100.693 126.268, 100.483 129.452, 100.691 132.581, 101.313 135.602, 102.338 138.464, 103.749 141.117, 105.521 143.516, 107.625 145.620, 110.024 146.906, 111.947 147.123, 112.273 147.201, 112.390 147.393, 112.676 147.515, 112.925 147.844, 113.592 148.504, 114.929 148.719, 115.366 148.804, 115.538 148.920, 115.879 149.830, 118.559 150.368, 121.267 150.452, 121.689 150.660, 124.873 150.451, 128.056 150.367, 128.478 149.828, 131.186 148.918, 133.866 148.802, 134.207 148.718, 134.379 148.502, 134.816 148.153, 135.522 148.068, 135.695 148.016, 135.802 147.842, 136.153 147.662, 136.519 147.391, 137.068 145.618, 139.720 143.514, 142.118 141.115, 144.221 138.462, 145.993 135.601, 147.403 132.580, 148.428 129.451, 149.050 " />
            <path fill="none" stroke-width="3.0" stroke-linecap="butt" stroke-opacity="1.0" stroke="rgb(0, 0, 0)" stroke-linejoin="round" d=" M 155.048, 108.686 155.048, 108.847 155.047, 110.423 155.046, 120.423 155.045, 130.423 155.044, 138.937 155.044, 139.191 155.044, 139.685 155.044, 140.601 155.307, 140.747 " />
            <path fill="none" stroke-width="3.0" stroke-linecap="butt" stroke-opacity="1.0" stroke="rgb(0, 0, 0)" stroke-linejoin="round" d=" M 128.280, 140.667 126.186, 140.804 124.093, 140.666 122.035, 140.257 120.048, 139.582 118.167, 138.654 116.423, 137.489 114.846, 136.105 113.462, 134.528 112.297, 132.783 112.053, 132.290 112.052, 132.287 111.933, 132.046 111.774, 131.723 111.752, 131.679 111.735, 131.645 111.667, 131.505 111.579, 131.327 111.376, 130.916 111.369, 130.902 111.274, 130.621 110.927, 129.598 110.695, 128.915 110.510, 127.988 110.441, 127.641 110.285, 126.858 110.148, 124.765 110.285, 122.671 110.441, 121.888 110.510, 121.541 110.694, 120.613 110.926, 119.931 111.273, 118.908 111.368, 118.627 111.375, 118.613 111.578, 118.202 111.666, 118.023 112.058, 117.229 112.151, 117.040 112.281, 116.777 112.296, 116.745 112.307, 116.729 112.493, 116.451 112.528, 116.397 113.462, 115.000 114.845, 113.423 116.422, 112.039 118.166, 110.873 120.048, 109.945 122.035, 109.270 124.093, 108.861 126.186, 108.723 128.280, 108.860 130.338, 109.269 132.325, 109.944 134.208, 110.872 135.952, 112.037 137.530, 113.421 138.914, 114.998 139.833, 116.374 140.012, 116.642 140.069, 116.727 140.080, 116.743 140.095, 116.775 140.160, 116.907 140.404, 117.400 140.492, 117.578 140.696, 117.992 140.798, 118.199 141.008, 118.625 141.144, 119.027 141.562, 120.258 141.630, 120.458 141.682, 120.612 142.092, 122.671 142.100, 122.790 142.229, 124.765 142.099, 126.739 142.092, 126.859 141.682, 128.917 141.630, 129.071 141.562, 129.271 141.144, 130.502 141.007, 130.904 140.797, 131.330 140.695, 131.537 140.580, 131.769 140.443, 132.048 140.324, 132.289 140.257, 132.424 140.079, 132.785 138.913, 134.530 137.529, 136.107 135.951, 137.491 134.207, 138.656 132.325, 139.584 130.338, 140.258 128.280, 140.667 " />
            <path fill="none" stroke-width="3.0" stroke-linecap="butt" stroke-opacity="1.0" stroke="rgb(0, 0, 0)" stroke-linejoin="round" d=" M 128.746, 144.007 126.219, 144.172 123.691, 144.006 121.207, 143.512 118.809, 142.697 116.537, 141.577 114.431, 140.169 112.527, 138.499 110.857, 136.595 109.450, 134.489 109.156, 133.893 109.065, 133.709 108.933, 133.440 108.928, 133.431 108.786, 133.143 108.772, 133.114 108.714, 132.997 108.330, 132.217 108.115, 131.584 107.894, 130.933 107.516, 129.819 107.171, 128.086 107.101, 127.736 107.022, 127.335 106.948, 126.219 106.856, 124.808 106.948, 123.396 107.021, 122.280 107.101, 121.879 107.171, 121.529 107.515, 119.796 107.893, 118.681 108.114, 118.031 108.329, 117.397 108.713, 116.618 108.927, 116.184 109.064, 115.906 109.274, 115.481 109.423, 115.177 109.449, 115.125 109.631, 114.853 109.729, 114.706 110.856, 113.019 112.526, 111.114 114.430, 109.444 116.536, 108.036 118.808, 106.915 121.206, 106.101 123.691, 105.606 126.219, 105.440 128.747, 105.605 131.232, 106.099 133.631, 106.913 135.904, 108.034 138.010, 109.441 139.915, 111.111 141.586, 113.016 142.607, 114.544 142.811, 114.850 142.994, 115.123 143.009, 115.155 143.019, 115.175 143.091, 115.320 143.147, 115.433 143.360, 115.865 143.960, 117.081 144.114, 117.395 144.182, 117.594 144.905, 119.725 144.929, 119.794 144.974, 120.021 145.127, 120.791 145.423, 122.279 145.588, 124.808 145.423, 127.336 145.126, 128.824 144.973, 129.594 144.928, 129.821 144.905, 129.890 144.181, 132.021 144.113, 132.220 143.959, 132.533 143.510, 133.443 143.262, 133.946 143.224, 134.021 143.208, 134.056 142.992, 134.492 141.585, 136.598 139.914, 138.503 138.009, 140.173 135.902, 141.580 133.630, 142.700 131.231, 143.513 128.746, 144.007 " />
            <path fill="none" stroke-width="3.0" stroke-linecap="butt" stroke-opacity="1.0" stroke="rgb(0, 0, 0)" stroke-linejoin="round" d=" M 127.951, 138.315 126.163, 138.432 124.375, 138.315 122.618, 137.965 120.922, 137.389 119.315, 136.596 117.825, 135.601 116.478, 134.419 115.297, 133.072 114.302, 131.583 114.094, 131.161 114.006, 130.983 113.991, 130.953 113.974, 130.918 113.858, 130.683 113.686, 130.335 113.675, 130.312 113.509, 129.976 113.202, 129.069 113.157, 128.937 113.131, 128.863 113.078, 128.705 112.933, 128.279 112.614, 126.676 112.584, 126.522 112.493, 125.140 112.467, 124.734 112.493, 124.329 112.584, 122.946 112.614, 122.793 112.933, 121.189 113.077, 120.764 113.131, 120.605 113.156, 120.532 113.201, 120.399 113.509, 119.492 113.675, 119.156 113.686, 119.133 114.006, 118.485 114.301, 117.886 114.315, 117.865 114.469, 117.634 114.486, 117.608 115.296, 116.396 116.478, 115.048 117.825, 113.867 119.314, 112.871 120.921, 112.079 122.618, 111.502 124.375, 111.153 126.163, 111.035 127.952, 111.152 129.709, 111.502 131.406, 112.077 133.013, 112.870 134.503, 113.865 135.851, 115.047 137.032, 116.394 137.755, 117.475 137.817, 117.569 137.843, 117.607 138.014, 117.863 138.028, 117.884 138.062, 117.954 138.383, 118.603 138.393, 118.624 138.821, 119.491 138.867, 119.628 138.913, 119.763 138.937, 119.834 138.992, 119.995 139.397, 121.188 139.455, 121.479 139.577, 122.093 139.746, 122.946 139.812, 123.944 139.863, 124.734 139.812, 125.524 139.746, 126.522 139.576, 127.375 139.454, 127.989 139.396, 128.280 138.991, 129.473 138.937, 129.634 138.912, 129.706 138.866, 129.841 138.820, 129.977 138.456, 130.716 138.382, 130.865 138.355, 130.919 138.338, 130.954 138.212, 131.210 138.027, 131.584 137.032, 133.074 135.850, 134.421 134.503, 135.602 133.013, 136.598 131.405, 137.390 129.709, 137.966 127.951, 138.315 " />
            <path fill="none" stroke-width="3.0" stroke-linecap="butt" stroke-opacity="1.0" stroke="rgb(0, 0, 0)" stroke-linejoin="round" d=" M 127.705, 136.555 126.146, 136.657 124.587, 136.555 123.054, 136.250 121.575, 135.748 120.174, 135.056 118.874, 134.188 117.700, 133.158 116.670, 131.983 115.801, 130.684 115.110, 129.283 114.957, 128.830 114.608, 127.803 114.532, 127.421 114.469, 127.106 114.303, 126.271 114.201, 124.712 114.303, 123.152 114.469, 122.317 114.532, 122.001 114.608, 121.620 114.956, 120.593 115.110, 120.140 115.801, 118.739 116.669, 117.439 117.699, 116.265 118.874, 115.234 120.173, 114.366 121.575, 113.675 123.054, 113.172 124.587, 112.867 126.146, 112.765 127.706, 112.867 129.238, 113.171 130.718, 113.674 132.120, 114.365 133.419, 115.233 134.594, 116.263 135.625, 117.438 136.493, 118.738 137.111, 119.990 137.184, 120.139 137.536, 121.174 137.598, 121.359 137.687, 121.619 137.992, 123.152 138.062, 124.227 138.094, 124.712 138.062, 125.196 137.992, 126.271 137.687, 127.804 137.598, 128.064 137.535, 128.249 137.184, 129.284 137.110, 129.433 136.493, 130.685 135.624, 131.984 134.594, 133.159 133.419, 134.189 132.119, 135.057 130.718, 135.748 129.238, 136.251 127.705, 136.555 " />
            <path fill="none" stroke-width="3.0" stroke-linecap="butt" stroke-opacity="1.0" stroke="rgb(0, 0, 0)" stroke-linejoin="round" d=" M 127.362, 134.096 126.122, 134.177 124.883, 134.096 123.664, 133.854 122.488, 133.454 121.374, 132.905 120.341, 132.214 119.407, 131.395 118.588, 130.461 117.898, 129.428 117.348, 128.314 116.949, 127.138 116.706, 125.919 116.625, 124.680 116.706, 123.440 116.949, 122.222 117.348, 121.045 117.897, 119.931 118.587, 118.898 119.406, 117.964 120.340, 117.145 121.373, 116.455 122.488, 115.905 123.664, 115.505 124.883, 115.263 126.122, 115.182 127.362, 115.263 128.581, 115.505 129.757, 115.904 130.872, 116.454 131.905, 117.144 132.839, 117.963 133.658, 118.897 134.348, 119.930 134.898, 121.045 135.297, 122.221 135.540, 123.440 135.621, 124.680 135.540, 125.920 135.297, 127.138 134.898, 128.315 134.348, 129.429 133.658, 130.462 132.838, 131.396 131.904, 132.215 130.871, 132.905 129.757, 133.455 128.580, 133.854 127.362, 134.096 " />
            <path fill="none" stroke-width="3.0" stroke-linecap="butt" stroke-opacity="1.0" stroke="rgb(0, 0, 0)" stroke-linejoin="round" d=" M 127.513, 135.176 126.133, 135.266 124.753, 135.176 123.396, 134.906 122.087, 134.461 120.847, 133.849 119.697, 133.081 118.657, 132.169 117.745, 131.130 116.977, 129.980 116.365, 128.739 115.921, 127.430 115.651, 126.074 115.561, 124.694 115.651, 123.314 115.921, 121.957 116.365, 120.648 116.977, 119.408 117.745, 118.258 118.657, 117.218 119.697, 116.306 120.846, 115.537 122.087, 114.926 123.396, 114.481 124.753, 114.211 126.133, 114.120 127.513, 114.211 128.869, 114.480 130.179, 114.925 131.420, 115.537 132.570, 116.305 133.610, 117.217 134.522, 118.257 135.290, 119.407 135.902, 120.647 136.347, 121.957 136.616, 123.314 136.707, 124.694 136.616, 126.074 136.346, 127.430 135.902, 128.740 135.290, 129.981 134.521, 131.131 133.609, 132.170 132.569, 133.082 131.419, 133.850 130.179, 134.462 128.869, 134.906 127.513, 135.176 " />
            <path fill="none" stroke-width="3.0" stroke-linecap="butt" stroke-opacity="1.0" stroke="rgb(0, 0, 0)" stroke-linejoin="round" d=" M 79.300, 145.158 79.298, 135.158 79.296, 125.158 79.295, 115.158 79.293, 105.281 " />
            <path fill="none" stroke-width="3.0" stroke-linecap="butt" stroke-opacity="1.0" stroke="rgb(0, 0, 0)" stroke-linejoin="round" d=" M 80.309, 147.206 80.308, 137.206 80.306, 127.206 80.305, 117.206 80.303, 107.206 80.302, 103.233 " />
            <path fill="none" stroke-width="3.0" stroke-linecap="butt" stroke-opacity="1.0" stroke="rgb(0, 0, 0)" stroke-linejoin="round" d=" M 93.450, 126.401 93.450, 123.567 " />
            <path fill="none" stroke-width="3.0" stroke-linecap="butt" stroke-opacity="1.0" stroke="rgb(0, 0, 0)" stroke-linejoin="round" d=" M 93.944, 130.822 93.943, 120.822 93.943, 119.146 " />
            <path fill="none" stroke-width="3.0" stroke-linecap="butt" stroke-opacity="1.0" stroke="rgb(0, 0, 0)" stroke-linejoin="round" d=" M 97.046, 139.996 97.046, 139.677 97.046, 138.929 97.046, 138.450 97.045, 128.450 97.044, 118.450 97.043, 111.164 97.043, 109.970 " />
            <path fill="none" stroke-width="3.0" stroke-linecap="butt" stroke-opacity="1.0" stroke="rgb(0, 0, 0)" stroke-linejoin="round" d=" M 103.163, 132.495 103.162, 122.495 103.161, 117.249 " />
            <path fill="none" stroke-width="3.0" stroke-linecap="butt" stroke-opacity="1.0" stroke="rgb(0, 0, 0)" stroke-linejoin="round" d=" M 107.171, 128.086 107.171, 121.529 " />
            <path fill="none" stroke-width="3.0" stroke-linecap="butt" stroke-opacity="1.0" stroke="rgb(0, 0, 0)" stroke-linejoin="round" d=" M 142.100, 122.790 142.099, 126.739 " />
            <path fill="none" stroke-width="3.0" stroke-linecap="butt" stroke-opacity="1.0" stroke="rgb(0, 0, 0)" stroke-linejoin="round" d=" M 144.905, 119.725 144.905, 129.725 144.905, 129.890 " />
            <path fill="none" stroke-width="3.0" stroke-linecap="butt" stroke-opacity="1.0" stroke="rgb(0, 0, 0)" stroke-linejoin="round" d=" M 148.920, 115.879 148.919, 123.520 148.919, 125.949 148.918, 133.866 " />
            <path fill="none" stroke-width="3.0" stroke-linecap="butt" stroke-opacity="1.0" stroke="rgb(0, 0, 0)" stroke-linejoin="round" d=" M 158.151, 133.793 158.151, 129.409 158.152, 120.206 158.153, 116.175 " />
            <path fill="none" stroke-width="3.0" stroke-linecap="butt" stroke-opacity="1.0" stroke="rgb(0, 0, 0)" stroke-linejoin="round" d=" M 158.647, 118.474 158.646, 128.474 158.645, 131.494 " />
            <path fill="none" stroke-width="3.0" stroke-linecap="butt" stroke-opacity="1.0" stroke="rgb(0, 0, 0)" stroke-linejoin="round" d=" M 171.812, 149.207 171.813, 139.207 171.815, 129.207 171.817, 119.207 171.818, 109.207 171.820, 101.232 " />
            <path fill="none" stroke-width="3.0" stroke-linecap="butt" stroke-opacity="1.0" stroke="rgb(0, 0, 0)" stroke-linejoin="round" d=" M 172.831, 103.283 172.829, 113.283 172.828, 123.283 172.826, 133.283 172.824, 143.283 172.823, 147.157 " />
        </g>
    </g>
</svg>
