<?xml version='1.0' encoding='ascii'?>
<svg xmlns="http://www.w3.org/2000/svg" version="1.1" width="250" height="250">
    <g id="ViewLayer_LineSet" xmlns:inkscape="http://www.inkscape.org/namespaces/inkscape" inkscape:groupmode="lineset" inkscape:label="ViewLayer_LineSet">
        <g xmlns:inkscape="http://www.inkscape.org/namespaces/inkscape" inkscape:groupmode="layer" id="strokes" inkscape:label="strokes">
            <path fill="none" stroke-width="3.0" stroke-linecap="butt" stroke-opacity="1.0" stroke="rgb(0, 0, 0)" stroke-linejoin="round" d=" M 259.563, 227.886 252.958, 235.395 246.354, 242.904 245.194, 244.223 237.665, 250.806 230.137, 257.388 228.817, 258.542 " />
            <path fill="none" stroke-width="3.0" stroke-linecap="butt" stroke-opacity="1.0" stroke="rgb(0, 0, 0)" stroke-linejoin="round" d=" M 228.918, -5.432 236.441, 1.157 243.964, 7.745 245.298, 8.914 251.895, 16.429 258.492, 23.944 259.663, 25.278 " />
            <path fill="none" stroke-width="3.0" stroke-linecap="butt" stroke-opacity="1.0" stroke="rgb(0, 0, 0)" stroke-linejoin="round" d=" M -4.188, 25.501 2.395, 17.974 8.979, 10.447 10.117, 9.145 17.625, 2.541 25.134, -4.063 26.435, -5.208 " />
            <path fill="none" stroke-width="3.0" stroke-linecap="butt" stroke-opacity="1.0" stroke="rgb(0, 0, 0)" stroke-linejoin="round" d=" M 26.531, 258.311 19.017, 251.712 11.503, 245.114 10.215, 243.983 3.625, 236.462 -2.964, 228.940 -4.092, 227.653 " />
            <path fill="none" stroke-width="3.0" stroke-linecap="butt" stroke-opacity="1.0" stroke="rgb(0, 0, 0)" stroke-linejoin="round" d=" M 37.586, 173.491 38.849, 176.053 44.403, 184.368 46.214, 187.080 52.805, 194.600 54.955, 197.052 62.470, 203.649 64.922, 205.800 73.234, 211.360 75.945, 213.174 84.911, 217.602 87.837, 219.048 97.304, 222.269 100.395, 223.320 110.201, 225.279 113.403, 225.918 123.381, 226.581 126.641, 226.797 136.620, 226.152 139.882, 225.941 149.692, 223.999 152.900, 223.364 162.372, 220.159 165.471, 219.110 174.444, 214.696 177.382, 213.251 185.702, 207.703 188.426, 205.886 195.951, 199.299 198.416, 197.141 205.016, 189.629 207.180, 187.166 212.742, 178.856 214.566, 176.130 215.581, 174.076 " />
            <path fill="none" stroke-width="3.0" stroke-linecap="butt" stroke-opacity="1.0" stroke="rgb(0, 0, 0)" stroke-linejoin="round" d=" M 134.550, 185.548 126.624, 186.063 118.699, 185.540 110.910, 183.987 103.391, 181.431 96.270, 177.916 89.669, 173.502 83.701, 168.265 78.467, 162.295 74.056, 155.693 72.877, 153.302 72.768, 153.081 71.931, 151.383 70.545, 148.571 68.062, 141.258 67.992, 141.053 66.602, 134.067 66.442, 133.266 65.922, 125.343 66.439, 117.419 66.598, 116.618 67.986, 109.631 68.055, 109.426 70.535, 102.110 72.758, 97.599 73.496, 96.101 74.045, 94.986 74.065, 94.956 74.923, 93.670 78.454, 88.381 83.688, 82.407 89.657, 77.167 96.259, 72.750 103.382, 69.232 110.904, 66.674 118.696, 65.120 126.625, 64.596 134.554, 65.112 142.349, 66.659 149.876, 69.210 157.005, 72.723 163.615, 77.137 169.592, 82.376 174.834, 88.351 178.037, 93.144 178.071, 93.195 179.251, 94.960 179.382, 95.225 179.556, 95.579 182.767, 102.089 184.093, 105.995 185.322, 109.616 185.554, 110.785 186.871, 117.412 187.390, 125.344 186.868, 133.275 185.548, 139.900 185.315, 141.070 184.084, 144.690 182.757, 148.595 181.140, 151.871 180.420, 153.328 180.063, 154.052 179.914, 154.353 179.239, 155.721 174.876, 162.243 174.821, 162.326 169.578, 168.298 163.602, 173.533 156.993, 177.944 149.866, 181.453 142.342, 184.003 142.333, 184.004 134.550, 185.548 " />
            <path fill="none" stroke-width="3.0" stroke-linecap="butt" stroke-opacity="1.0" stroke="rgb(0, 0, 0)" stroke-linejoin="round" d=" M 212.921, 72.074 207.364, 63.760 207.217, 63.541 200.621, 56.025 198.455, 53.556 190.934, 46.965 188.464, 44.801 180.146, 39.250 177.416, 37.427 168.444, 33.009 165.500, 31.559 156.028, 28.352 152.920, 27.299 143.111, 25.356 139.893, 24.718 129.914, 24.073 126.643, 23.861 116.665, 24.524 113.395, 24.741 103.589, 26.701 100.377, 27.343 90.911, 30.566 87.812, 31.621 78.847, 36.052 75.914, 37.502 67.604, 43.066 64.886, 44.885 57.374, 51.485 54.918, 53.643 48.331, 61.166 46.178, 63.625 40.629, 71.944 40.154, 72.656 " />
            <path fill="none" stroke-width="3.0" stroke-linecap="butt" stroke-opacity="1.0" stroke="rgb(0, 0, 0)" stroke-linejoin="round" d=" M 268.504, 38.502 259.944, 43.672 251.384, 48.842 242.825, 54.012 234.265, 59.182 232.838, 60.044 232.836, 63.138 232.835, 66.735 232.831, 76.735 232.827, 86.735 232.823, 96.735 232.819, 106.735 232.815, 116.735 232.811, 126.735 232.807, 136.735 232.803, 146.735 232.799, 156.735 232.795, 166.735 232.791, 177.470 232.790, 180.760 232.789, 183.591 241.540, 188.430 250.291, 193.269 259.042, 198.108 267.793, 202.947 273.507, 206.106 " />
            <path fill="none" stroke-width="3.0" stroke-linecap="butt" stroke-opacity="1.0" stroke="rgb(0, 0, 0)" stroke-linejoin="round" d=" M -18.619, 204.589 -9.869, 199.747 -1.119, 194.906 7.631, 190.065 16.381, 185.224 19.527, 183.483 19.526, 180.658 19.525, 177.370 19.521, 167.370 19.517, 157.370 19.513, 147.370 19.509, 137.370 19.505, 127.370 19.502, 117.370 19.498, 107.370 19.494, 97.370 19.490, 87.370 19.486, 77.370 19.482, 66.844 19.481, 63.250 19.479, 60.161 10.921, 54.989 2.363, 49.816 -6.196, 44.644 -13.858, 40.013 " />
            <path fill="none" stroke-width="3.0" stroke-linecap="butt" stroke-opacity="1.0" stroke="rgb(0, 0, 0)" stroke-linejoin="round" d=" M 19.526, 180.658 24.629, 180.660 33.379, 175.819 37.586, 173.491 46.336, 168.650 50.248, 166.486 50.246, 156.486 50.243, 146.486 50.240, 136.486 50.237, 126.486 50.235, 116.486 50.232, 106.486 50.229, 96.486 50.226, 86.486 50.224, 78.743 41.666, 73.570 40.154, 72.656 31.596, 67.484 24.586, 63.247 19.481, 63.250 " />
            <path fill="none" stroke-width="3.0" stroke-linecap="butt" stroke-opacity="1.0" stroke="rgb(0, 0, 0)" stroke-linejoin="round" d=" M 24.629, 180.660 24.625, 170.660 24.622, 160.660 24.618, 150.660 24.614, 140.660 24.611, 130.660 24.607, 120.660 24.603, 110.660 24.599, 100.660 24.596, 90.660 24.592, 80.660 24.588, 70.660 24.586, 63.247 " />
            <path fill="none" stroke-width="3.0" stroke-linecap="butt" stroke-opacity="1.0" stroke="rgb(0, 0, 0)" stroke-linejoin="round" d=" M 232.836, 63.138 227.710, 63.141 219.150, 68.311 212.921, 72.074 204.361, 77.244 201.978, 78.683 201.975, 88.683 201.973, 98.683 201.970, 108.683 201.967, 118.683 201.964, 128.683 201.961, 138.683 201.958, 148.683 201.956, 158.683 201.953, 166.540 210.705, 171.379 215.581, 174.076 224.332, 178.915 227.666, 180.758 232.790, 180.760 " />
            <path fill="none" stroke-width="3.0" stroke-linecap="butt" stroke-opacity="1.0" stroke="rgb(0, 0, 0)" stroke-linejoin="round" d=" M 227.666, 180.758 227.669, 170.758 227.673, 160.758 227.677, 150.758 227.681, 140.758 227.684, 133.182 227.687, 123.182 227.690, 117.553 227.693, 107.553 227.697, 97.553 227.701, 87.553 227.705, 77.553 227.708, 67.553 227.710, 63.141 " />
            <path fill="none" stroke-width="3.0" stroke-linecap="butt" stroke-opacity="1.0" stroke="rgb(0, 0, 0)" stroke-linejoin="round" d=" M 131.173, 161.377 126.388, 161.689 121.604, 161.374 116.901, 160.437 112.361, 158.895 108.062, 156.773 104.076, 154.109 100.472, 150.947 97.311, 147.343 94.648, 143.356 94.091, 142.228 93.936, 141.913 93.410, 140.845 93.365, 140.754 93.182, 140.384 92.528, 139.057 91.028, 134.639 90.994, 134.539 90.987, 134.517 90.404, 131.590 90.051, 129.815 89.737, 125.031 90.050, 120.247 90.403, 118.472 90.984, 115.545 90.992, 115.523 91.026, 115.423 92.525, 111.005 93.179, 109.677 94.312, 107.377 94.615, 106.762 94.644, 106.704 94.656, 106.687 97.307, 102.716 100.467, 99.110 104.072, 95.948 108.058, 93.282 112.358, 91.160 116.899, 89.617 121.603, 88.679 126.389, 88.364 131.175, 88.676 135.880, 89.611 140.422, 91.152 144.725, 93.272 148.714, 95.937 152.321, 99.099 155.485, 102.706 157.439, 105.630 158.150, 106.694 158.179, 106.753 158.334, 107.068 158.916, 108.248 160.272, 110.997 161.073, 113.356 161.109, 113.462 161.699, 115.202 161.814, 115.540 162.749, 120.245 163.063, 125.032 162.748, 129.819 161.811, 134.523 161.697, 134.861 161.106, 136.600 161.070, 136.707 160.268, 139.065 158.858, 141.923 158.553, 142.541 158.146, 143.367 155.480, 147.354 152.316, 150.959 148.709, 154.120 144.720, 156.784 140.418, 158.903 135.877, 160.443 131.173, 161.377 " />
            <path fill="none" stroke-width="3.0" stroke-linecap="butt" stroke-opacity="1.0" stroke="rgb(0, 0, 0)" stroke-linejoin="round" d=" M 142.333, 184.004 149.772, 181.484 156.942, 177.953 163.591, 173.516 169.605, 168.248 174.876, 162.243 " />
            <path fill="none" stroke-width="3.0" stroke-linecap="butt" stroke-opacity="1.0" stroke="rgb(0, 0, 0)" stroke-linejoin="round" d=" M 178.060, 153.328 178.062, 143.328 178.064, 133.328 178.065, 123.328 178.067, 113.328 178.069, 103.328 178.071, 93.195 " />
            <path fill="none" stroke-width="3.0" stroke-linecap="butt" stroke-opacity="1.0" stroke="rgb(0, 0, 0)" stroke-linejoin="round" d=" M 178.037, 93.144 170.381, 97.768 170.380, 100.104 170.380, 100.547 170.378, 110.547 170.377, 120.547 170.375, 130.547 170.373, 140.547 170.372, 146.534 170.372, 146.939 170.372, 149.077 178.060, 153.328 179.370, 153.328 " />
            <path fill="none" stroke-width="3.0" stroke-linecap="butt" stroke-opacity="1.0" stroke="rgb(0, 0, 0)" stroke-linejoin="round" d=" M 72.877, 153.302 74.076, 153.302 81.746, 149.058 81.746, 146.922 81.746, 146.516 81.744, 136.516 81.743, 126.516 81.741, 116.516 81.739, 106.516 81.739, 100.566 81.738, 100.122 81.738, 97.789 74.923, 93.670 " />
            <path fill="none" stroke-width="3.0" stroke-linecap="butt" stroke-opacity="1.0" stroke="rgb(0, 0, 0)" stroke-linejoin="round" d=" M 74.076, 153.302 74.074, 143.302 74.072, 133.302 74.070, 123.302 74.068, 113.302 74.066, 103.302 74.065, 94.956 " />
            <path fill="none" stroke-width="3.0" stroke-linecap="butt" stroke-opacity="1.0" stroke="rgb(0, 0, 0)" stroke-linejoin="round" d=" M 179.382, 95.225 179.382, 95.673 179.380, 105.673 179.378, 115.673 179.376, 125.673 179.374, 135.673 179.372, 145.673 179.371, 150.994 179.370, 153.328 179.370, 154.052 179.914, 154.353 " />
            <path fill="none" stroke-width="3.0" stroke-linecap="butt" stroke-opacity="1.0" stroke="rgb(0, 0, 0)" stroke-linejoin="round" d=" M 129.723, 150.999 126.287, 151.223 122.851, 150.997 119.474, 150.325 116.213, 149.217 113.126, 147.694 110.263, 145.781 107.674, 143.510 105.404, 140.921 103.492, 138.058 103.092, 137.248 102.915, 136.889 102.689, 136.430 102.630, 136.311 102.570, 136.190 102.325, 135.693 102.085, 135.205 101.969, 134.970 101.703, 134.186 100.862, 131.710 100.239, 128.578 100.190, 128.333 99.965, 124.898 100.190, 121.462 100.238, 121.217 100.861, 118.085 101.701, 115.608 101.967, 114.824 102.083, 114.589 102.323, 114.102 102.913, 112.905 103.251, 112.219 103.490, 111.736 103.503, 111.716 103.590, 111.586 103.871, 111.165 105.402, 108.872 107.672, 106.283 110.261, 104.012 113.124, 102.098 116.212, 100.574 119.473, 99.466 122.851, 98.793 126.287, 98.567 129.724, 98.792 133.102, 99.463 136.364, 100.570 139.454, 102.093 142.318, 104.006 144.908, 106.277 147.180, 108.867 148.568, 110.944 148.993, 111.581 149.080, 111.711 149.094, 111.731 149.168, 111.883 149.226, 111.999 149.757, 113.077 149.998, 113.565 150.382, 114.344 150.617, 114.820 151.724, 118.082 151.845, 118.692 152.396, 121.461 152.532, 123.531 152.621, 124.898 152.531, 126.265 152.395, 128.335 151.844, 131.104 151.723, 131.713 150.615, 134.975 150.380, 135.451 149.996, 136.230 149.895, 136.435 149.443, 137.351 149.091, 138.064 147.177, 140.927 144.905, 143.516 142.315, 145.786 139.451, 147.699 136.362, 149.222 133.101, 150.328 129.723, 150.999 " />
            <path fill="none" stroke-width="3.0" stroke-linecap="butt" stroke-opacity="1.0" stroke="rgb(0, 0, 0)" stroke-linejoin="round" d=" M 94.091, 142.228 94.660, 141.913 94.659, 140.845 94.659, 140.113 94.659, 138.128 94.658, 128.128 94.657, 118.128 94.656, 111.517 94.656, 107.563 94.656, 106.762 94.656, 106.687 " />
            <path fill="none" stroke-width="3.0" stroke-linecap="butt" stroke-opacity="1.0" stroke="rgb(0, 0, 0)" stroke-linejoin="round" d=" M 157.439, 105.630 157.438, 106.753 157.438, 107.553 157.438, 110.731 157.437, 120.731 157.436, 130.731 157.435, 138.914 157.434, 140.122 157.434, 140.854 157.434, 141.923 158.553, 142.541 " />
            <path fill="none" stroke-width="3.0" stroke-linecap="butt" stroke-opacity="1.0" stroke="rgb(0, 0, 0)" stroke-linejoin="round" d=" M 128.395, 141.488 126.194, 141.632 123.994, 141.487 121.832, 141.057 119.744, 140.348 117.766, 139.372 115.933, 138.147 114.276, 136.694 112.822, 135.036 111.597, 133.203 111.341, 132.683 111.291, 132.581 111.163, 132.322 111.007, 132.006 110.790, 131.565 110.679, 131.341 110.622, 131.225 110.370, 130.483 109.913, 129.137 109.851, 128.825 109.848, 128.808 109.483, 126.975 109.339, 124.775 109.483, 122.575 109.847, 120.742 109.851, 120.725 109.913, 120.413 110.370, 119.067 110.621, 118.325 110.679, 118.209 110.789, 117.984 111.070, 117.416 111.164, 117.225 111.444, 116.656 111.519, 116.505 111.526, 116.490 111.544, 116.454 111.596, 116.347 111.779, 116.074 112.821, 114.514 114.275, 112.856 115.932, 111.401 117.766, 110.176 119.743, 109.201 121.831, 108.491 123.994, 108.061 126.194, 107.916 128.395, 108.060 130.558, 108.490 132.646, 109.199 134.624, 110.174 136.458, 111.399 138.116, 112.853 139.571, 114.511 140.545, 115.969 140.614, 116.072 140.796, 116.345 140.849, 116.452 140.874, 116.503 140.881, 116.517 140.907, 116.569 141.001, 116.760 141.282, 117.331 141.393, 117.556 141.701, 118.181 141.771, 118.323 142.222, 119.650 142.224, 119.657 142.480, 120.411 142.807, 122.054 142.910, 122.574 143.047, 124.658 143.055, 124.775 143.047, 124.892 142.910, 126.976 142.807, 127.497 142.480, 129.139 142.224, 129.893 142.221, 129.900 141.771, 131.227 141.701, 131.369 141.392, 131.994 141.322, 132.136 141.282, 132.218 141.230, 132.324 141.102, 132.583 140.982, 132.825 140.795, 133.205 139.570, 135.038 138.115, 136.696 136.457, 138.150 134.623, 139.375 132.645, 140.350 130.557, 141.058 128.395, 141.488 " />
            <path fill="none" stroke-width="3.0" stroke-linecap="butt" stroke-opacity="1.0" stroke="rgb(0, 0, 0)" stroke-linejoin="round" d=" M 128.915, 145.217 126.231, 145.392 123.546, 145.216 120.907, 144.690 120.890, 144.684 118.360, 143.825 115.947, 142.635 113.710, 141.140 111.688, 139.366 109.914, 137.343 108.419, 135.106 108.107, 134.473 108.102, 134.463 108.061, 134.380 107.790, 133.831 107.327, 132.891 107.230, 132.694 106.988, 131.981 106.365, 130.146 106.219, 129.416 106.189, 129.263 106.052, 128.573 105.840, 127.508 105.664, 124.823 105.839, 122.139 106.051, 121.073 106.188, 120.383 106.219, 120.230 106.364, 119.500 106.987, 117.665 107.229, 116.952 107.326, 116.755 107.978, 115.432 108.123, 115.137 108.232, 114.917 108.274, 114.832 108.300, 114.779 108.418, 114.539 108.494, 114.426 108.716, 114.093 109.913, 112.302 111.686, 110.279 113.709, 108.504 115.946, 107.009 118.359, 105.818 120.907, 104.953 123.546, 104.428 126.231, 104.251 128.916, 104.427 131.555, 104.951 134.104, 105.816 136.518, 107.006 138.755, 108.501 140.779, 110.275 142.554, 112.298 143.638, 113.921 143.801, 114.165 143.951, 114.390 143.973, 114.423 144.049, 114.536 144.749, 115.955 145.089, 116.646 145.239, 116.950 145.857, 118.770 145.889, 118.863 146.025, 119.264 146.104, 119.498 146.629, 122.138 146.804, 124.815 146.805, 124.823 146.629, 127.509 146.103, 130.148 146.024, 130.382 145.888, 130.783 145.856, 130.876 145.238, 132.696 145.088, 133.000 144.747, 133.690 144.677, 133.834 144.406, 134.383 144.365, 134.466 144.276, 134.647 144.047, 135.110 142.552, 137.347 140.777, 139.370 138.754, 141.144 136.516, 142.638 134.103, 143.828 131.555, 144.692 128.915, 145.217 " />
            <path fill="none" stroke-width="3.0" stroke-linecap="butt" stroke-opacity="1.0" stroke="rgb(0, 0, 0)" stroke-linejoin="round" d=" M 128.034, 138.909 126.169, 139.031 124.304, 138.909 122.471, 138.544 120.701, 137.943 119.025, 137.116 117.471, 136.078 116.066, 134.845 114.833, 133.440 113.795, 131.886 113.568, 131.426 113.433, 131.153 113.415, 131.116 113.295, 130.872 113.273, 130.827 112.968, 130.210 112.802, 129.721 112.728, 129.501 112.706, 129.438 112.622, 129.189 112.368, 128.440 112.177, 127.483 112.003, 126.607 111.995, 126.478 111.881, 124.742 111.994, 123.006 112.003, 122.877 112.177, 122.001 112.367, 121.044 112.622, 120.294 112.706, 120.046 112.728, 119.982 112.802, 119.763 112.968, 119.274 113.273, 118.656 113.305, 118.591 113.614, 117.964 113.761, 117.664 113.795, 117.597 113.932, 117.392 113.959, 117.352 114.001, 117.288 114.833, 116.043 116.065, 114.638 117.470, 113.405 119.024, 112.366 120.701, 111.539 122.471, 110.938 124.304, 110.573 126.169, 110.451 128.035, 110.573 129.868, 110.938 131.638, 111.538 133.315, 112.365 134.870, 113.403 136.275, 114.636 137.508, 116.042 138.261, 117.169 138.382, 117.350 138.409, 117.391 138.455, 117.458 138.547, 117.596 138.580, 117.663 138.763, 118.035 138.796, 118.102 139.267, 119.056 139.341, 119.207 139.363, 119.252 139.373, 119.273 139.448, 119.492 139.892, 120.801 139.974, 121.043 140.076, 121.554 140.273, 122.546 140.339, 122.876 140.461, 124.742 140.339, 126.607 140.273, 126.937 140.075, 127.930 139.974, 128.441 139.892, 128.683 139.447, 129.991 139.373, 130.211 139.363, 130.231 139.341, 130.276 139.266, 130.428 138.993, 130.982 138.926, 131.117 138.908, 131.154 138.796, 131.381 138.773, 131.427 138.546, 131.888 137.507, 133.442 136.274, 134.847 134.869, 136.079 133.314, 137.118 131.638, 137.944 129.868, 138.545 128.034, 138.909 " />
            <path fill="none" stroke-width="3.0" stroke-linecap="butt" stroke-opacity="1.0" stroke="rgb(0, 0, 0)" stroke-linejoin="round" d=" M 127.768, 137.005 126.151, 137.111 124.533, 137.004 122.943, 136.688 121.408, 136.167 119.954, 135.450 118.606, 134.549 117.388, 133.480 116.319, 132.261 115.418, 130.914 114.701, 129.460 114.625, 129.236 114.180, 127.925 114.175, 127.896 114.108, 127.560 113.864, 126.335 113.758, 124.717 113.864, 123.100 114.108, 121.874 114.174, 121.539 114.180, 121.510 114.625, 120.199 114.701, 119.975 115.418, 118.521 116.318, 117.173 117.387, 115.954 118.606, 114.885 119.954, 113.984 121.408, 113.267 122.943, 112.746 124.533, 112.429 126.151, 112.323 127.768, 112.429 129.359, 112.745 130.894, 113.266 132.348, 113.983 133.696, 114.884 134.915, 115.953 135.985, 117.172 136.885, 118.520 137.443, 119.650 137.602, 119.974 137.894, 120.832 137.960, 121.029 138.124, 121.509 138.440, 123.099 138.454, 123.320 138.546, 124.717 138.454, 126.115 138.440, 126.335 138.123, 127.925 137.960, 128.406 137.893, 128.603 137.602, 129.461 137.442, 129.785 136.885, 130.915 135.984, 132.263 134.915, 133.482 133.696, 134.550 132.348, 135.451 130.893, 136.168 129.358, 136.689 127.768, 137.005 " />
            <path fill="none" stroke-width="3.0" stroke-linecap="butt" stroke-opacity="1.0" stroke="rgb(0, 0, 0)" stroke-linejoin="round" d=" M 127.401, 134.378 126.125, 134.462 124.849, 134.378 123.594, 134.128 122.383, 133.717 121.236, 133.151 120.173, 132.441 119.211, 131.597 118.368, 130.636 117.657, 129.572 117.092, 128.425 116.680, 127.214 116.431, 125.960 116.347, 124.683 116.431, 123.407 116.680, 122.153 117.091, 120.942 117.657, 119.794 118.367, 118.731 119.211, 117.769 120.172, 116.926 121.236, 116.215 122.383, 115.649 123.594, 115.238 124.849, 114.988 126.125, 114.905 127.401, 114.988 128.656, 115.238 129.867, 115.649 131.015, 116.214 132.078, 116.925 133.040, 117.768 133.884, 118.730 134.594, 119.794 135.160, 120.941 135.571, 122.152 135.821, 123.407 135.904, 124.683 135.821, 125.960 135.571, 127.215 135.160, 128.426 134.594, 129.573 133.883, 130.637 133.040, 131.598 132.078, 132.442 131.014, 133.152 129.867, 133.718 128.656, 134.129 127.401, 134.378 " />
            <path fill="none" stroke-width="3.0" stroke-linecap="butt" stroke-opacity="1.0" stroke="rgb(0, 0, 0)" stroke-linejoin="round" d=" M 127.562, 135.527 126.136, 135.620 124.711, 135.526 123.309, 135.248 121.957, 134.788 120.676, 134.156 119.488, 133.363 118.414, 132.421 117.472, 131.347 116.678, 130.159 116.046, 128.878 115.587, 127.525 115.309, 126.124 115.215, 124.698 115.308, 123.273 115.587, 121.872 116.046, 120.519 116.678, 119.238 117.472, 118.050 118.413, 116.975 119.487, 116.033 120.675, 115.240 121.957, 114.608 123.309, 114.148 124.711, 113.869 126.136, 113.776 127.562, 113.869 128.963, 114.148 130.316, 114.607 131.598, 115.239 132.786, 116.032 133.860, 116.974 134.802, 118.049 135.596, 119.237 136.228, 120.518 136.687, 121.871 136.966, 123.273 137.059, 124.698 136.966, 126.124 136.687, 127.525 136.228, 128.878 135.596, 130.160 134.802, 131.348 133.860, 132.422 132.785, 133.364 131.597, 134.157 130.316, 134.789 128.963, 135.248 127.562, 135.527 " />
            <path fill="none" stroke-width="3.0" stroke-linecap="butt" stroke-opacity="1.0" stroke="rgb(0, 0, 0)" stroke-linejoin="round" d=" M 72.768, 153.081 72.768, 150.968 72.766, 140.968 72.764, 130.968 72.762, 120.968 72.760, 110.968 72.758, 100.968 72.758, 97.599 " />
            <path fill="none" stroke-width="3.0" stroke-linecap="butt" stroke-opacity="1.0" stroke="rgb(0, 0, 0)" stroke-linejoin="round" d=" M 90.404, 131.590 90.403, 121.590 90.403, 118.472 " />
            <path fill="none" stroke-width="3.0" stroke-linecap="butt" stroke-opacity="1.0" stroke="rgb(0, 0, 0)" stroke-linejoin="round" d=" M 90.994, 134.539 90.993, 124.539 90.992, 115.523 " />
            <path fill="none" stroke-width="3.0" stroke-linecap="butt" stroke-opacity="1.0" stroke="rgb(0, 0, 0)" stroke-linejoin="round" d=" M 101.703, 134.186 101.702, 124.186 101.701, 115.608 " />
            <path fill="none" stroke-width="3.0" stroke-linecap="butt" stroke-opacity="1.0" stroke="rgb(0, 0, 0)" stroke-linejoin="round" d=" M 106.189, 129.263 106.188, 120.383 " />
            <path fill="none" stroke-width="3.0" stroke-linecap="butt" stroke-opacity="1.0" stroke="rgb(0, 0, 0)" stroke-linejoin="round" d=" M 142.807, 122.054 142.807, 127.497 " />
            <path fill="none" stroke-width="3.0" stroke-linecap="butt" stroke-opacity="1.0" stroke="rgb(0, 0, 0)" stroke-linejoin="round" d=" M 145.889, 118.863 145.888, 128.863 145.888, 130.708 145.888, 130.783 " />
            <path fill="none" stroke-width="3.0" stroke-linecap="butt" stroke-opacity="1.0" stroke="rgb(0, 0, 0)" stroke-linejoin="round" d=" M 150.382, 114.344 150.381, 124.344 150.380, 134.344 150.380, 135.451 " />
            <path fill="none" stroke-width="3.0" stroke-linecap="butt" stroke-opacity="1.0" stroke="rgb(0, 0, 0)" stroke-linejoin="round" d=" M 152.531, 126.265 152.532, 123.531 " />
            <path fill="none" stroke-width="3.0" stroke-linecap="butt" stroke-opacity="1.0" stroke="rgb(0, 0, 0)" stroke-linejoin="round" d=" M 161.106, 136.600 161.107, 126.600 161.108, 116.600 161.109, 113.462 " />
            <path fill="none" stroke-width="3.0" stroke-linecap="butt" stroke-opacity="1.0" stroke="rgb(0, 0, 0)" stroke-linejoin="round" d=" M 161.699, 115.202 161.698, 125.202 161.697, 134.861 " />
        </g>
    </g>
</svg>
