<?xml version='1.0' encoding='ascii'?>
<svg xmlns="http://www.w3.org/2000/svg" version="1.1" width="250" height="250">
    <g id="ViewLayer_LineSet" xmlns:inkscape="http://www.inkscape.org/namespaces/inkscape" inkscape:groupmode="lineset" inkscape:label="ViewLayer_LineSet">
        <g xmlns:inkscape="http://www.inkscape.org/namespaces/inkscape" inkscape:groupmode="layer" id="strokes" inkscape:label="strokes">
            <path fill="none" stroke-width="3.0" stroke-linecap="butt" stroke-opacity="1.0" stroke="rgb(0, 0, 0)" stroke-linejoin="round" d=" M 139.758, 223.069 129.779, 223.714 126.949, 223.897 116.971, 223.235 114.142, 223.047 104.336, 221.089 101.557, 220.534 92.090, 217.313 89.409, 216.401 80.443, 211.973 77.904, 210.719 69.593, 205.159 67.240, 203.586 59.724, 196.989 57.598, 195.123 51.006, 187.603 49.142, 185.475 43.587, 177.160 42.016, 174.808 40.557, 171.848 38.613, 167.905 36.343, 163.302 33.128, 153.833 32.219, 151.155 30.266, 141.348 29.714, 138.574 29.057, 128.595 28.871, 125.772 29.521, 115.794 29.705, 112.970 31.651, 103.161 32.202, 100.385 35.410, 90.914 36.319, 88.233 40.736, 79.261 41.087, 78.547 41.987, 76.720 43.392, 74.613 48.941, 66.294 49.109, 66.044 55.696, 58.520 57.563, 56.387 65.076, 49.787 67.207, 47.915 75.517, 42.352 77.875, 40.774 86.840, 36.343 89.385, 35.085 98.852, 31.862 101.541, 30.946 111.347, 28.987 114.135, 28.430 124.113, 27.767 126.950, 27.579 136.930, 28.225 139.769, 28.409 149.578, 30.352 152.371, 30.906 161.842, 34.114 164.539, 35.027 173.511, 39.445 176.067, 40.704 184.384, 46.255 186.754, 47.837 194.275, 54.428 196.419, 56.306 203.015, 63.823 204.895, 65.966 210.112, 73.771 212.037, 76.650 212.560, 77.712 216.984, 86.680 217.721, 88.176 220.935, 97.646 221.852, 100.346 223.801, 110.154 224.356, 112.951 225.007, 122.930 225.193, 125.775 224.535, 135.753 224.347, 138.597 222.391, 148.404 221.833, 151.198 218.613, 160.666 217.696, 163.362 215.066, 168.685 213.085, 172.695 212.005, 174.881 206.443, 183.191 204.860, 185.557 198.260, 193.069 196.383, 195.207 188.858, 201.794 186.719, 203.667 178.399, 209.215 176.035, 210.792 167.062, 215.206 164.513, 216.460 155.041, 219.666 152.351, 220.576 142.542, 222.518 139.758, 223.069 " />
            <path fill="none" stroke-width="3.0" stroke-linecap="butt" stroke-opacity="1.0" stroke="rgb(0, 0, 0)" stroke-linejoin="round" d=" M 229.060, 258.849 236.588, 252.266 244.117, 245.684 245.565, 244.418 252.169, 236.909 258.773, 229.400 260.046, 227.953 " />
            <path fill="none" stroke-width="3.0" stroke-linecap="butt" stroke-opacity="1.0" stroke="rgb(0, 0, 0)" stroke-linejoin="round" d=" M 260.147, 23.762 253.550, 16.247 246.953, 8.732 245.670, 7.270 238.147, 0.681 230.624, -5.907 229.162, -7.188 " />
            <path fill="none" stroke-width="3.0" stroke-linecap="butt" stroke-opacity="1.0" stroke="rgb(0, 0, 0)" stroke-linejoin="round" d=" M 25.100, -6.959 17.591, -0.354 10.082, 6.250 8.654, 7.507 2.071, 15.034 -4.512, 22.562 -5.762, 23.990 " />
            <path fill="none" stroke-width="3.0" stroke-linecap="butt" stroke-opacity="1.0" stroke="rgb(0, 0, 0)" stroke-linejoin="round" d=" M -5.664, 227.718 0.926, 235.240 7.515, 242.762 8.755, 244.176 16.269, 250.774 23.783, 257.373 25.197, 258.615 " />
            <path fill="none" stroke-width="3.0" stroke-linecap="butt" stroke-opacity="1.0" stroke="rgb(0, 0, 0)" stroke-linejoin="round" d=" M 56.400, 163.082 57.385, 165.079 62.940, 173.394 63.184, 173.759 69.775, 181.279 70.065, 181.610 77.581, 188.205 77.912, 188.495 86.224, 194.055 86.590, 194.299 95.557, 198.726 95.952, 198.922 105.419, 202.141 105.837, 202.283 115.644, 204.240 116.078, 204.327 126.056, 204.987 126.498, 205.017 136.477, 204.370 136.920, 204.341 146.730, 202.397 147.166, 202.311 156.638, 199.103 157.060, 198.960 166.032, 194.544 166.433, 194.347 174.752, 188.797 175.125, 188.549 182.648, 181.961 182.986, 181.665 189.584, 174.151 189.881, 173.813 195.442, 165.502 195.693, 165.127 196.488, 163.518 " />
            <path fill="none" stroke-width="3.0" stroke-linecap="butt" stroke-opacity="1.0" stroke="rgb(0, 0, 0)" stroke-linejoin="round" d=" M 132.752, 172.679 126.498, 173.087 120.245, 172.674 114.100, 171.449 108.167, 169.433 102.548, 166.660 97.339, 163.178 92.629, 159.046 88.499, 154.335 85.018, 149.125 84.291, 147.650 83.342, 145.725 82.390, 143.795 82.248, 143.506 81.471, 141.218 80.233, 137.574 79.011, 131.429 78.600, 125.177 79.009, 118.925 80.229, 112.779 81.466, 109.134 82.242, 106.845 82.384, 106.557 83.518, 104.255 84.861, 101.530 85.011, 101.225 85.705, 100.186 88.491, 96.013 92.621, 91.300 97.331, 87.166 102.541, 83.681 108.161, 80.907 114.096, 78.889 120.244, 77.664 126.499, 77.251 132.755, 77.659 138.904, 78.880 144.842, 80.893 150.467, 83.665 155.681, 87.147 160.396, 91.281 164.531, 95.995 167.058, 99.775 168.015, 101.208 168.166, 101.514 168.594, 102.381 169.733, 104.692 170.654, 106.558 170.789, 106.832 172.804, 112.770 174.027, 118.920 174.436, 125.178 174.025, 131.435 172.800, 137.584 170.783, 143.521 170.648, 143.795 169.727, 145.661 169.507, 146.105 168.540, 148.064 168.008, 149.143 164.523, 154.354 160.387, 159.066 155.672, 163.197 150.459, 166.678 144.836, 169.447 138.900, 171.459 132.752, 172.679 " />
            <path fill="none" stroke-width="3.0" stroke-linecap="butt" stroke-opacity="1.0" stroke="rgb(0, 0, 0)" stroke-linejoin="round" d=" M 194.404, 83.258 189.905, 76.525 183.309, 69.008 183.010, 68.667 175.490, 62.076 175.148, 61.777 166.831, 56.225 166.455, 55.973 157.484, 51.555 157.078, 51.355 147.607, 48.145 147.179, 48.000 137.370, 46.055 136.927, 45.968 126.948, 45.320 126.499, 45.291 116.521, 45.952 116.073, 45.982 106.266, 47.940 105.827, 48.027 96.360, 51.249 95.936, 51.393 86.971, 55.822 86.571, 56.020 78.260, 61.581 77.890, 61.829 70.376, 68.428 70.042, 68.721 63.454, 76.244 63.162, 76.577 58.414, 83.692 " />
            <path fill="none" stroke-width="3.0" stroke-linecap="butt" stroke-opacity="1.0" stroke="rgb(0, 0, 0)" stroke-linejoin="round" d=" M 210.112, 73.771 201.880, 78.743 201.880, 80.326 201.879, 83.494 201.876, 93.494 201.874, 99.120 201.872, 109.120 201.869, 119.120 201.866, 129.120 201.863, 139.120 201.860, 149.120 201.860, 151.231 201.857, 161.231 201.857, 162.138 201.856, 165.037 201.855, 166.486 210.607, 171.325 213.085, 172.695 " />
            <path fill="none" stroke-width="3.0" stroke-linecap="butt" stroke-opacity="1.0" stroke="rgb(0, 0, 0)" stroke-linejoin="round" d=" M 40.557, 171.848 49.307, 167.006 50.346, 166.431 50.346, 164.985 50.345, 162.087 50.342, 152.087 50.341, 148.566 50.338, 138.566 50.336, 128.566 50.333, 118.566 50.330, 108.566 50.328, 101.784 50.326, 91.784 50.323, 83.550 50.322, 80.383 50.322, 78.802 43.392, 74.613 " />
            <path fill="none" stroke-width="3.0" stroke-linecap="butt" stroke-opacity="1.0" stroke="rgb(0, 0, 0)" stroke-linejoin="round" d=" M 50.346, 164.985 52.959, 164.986 56.400, 163.082 65.150, 158.240 67.273, 157.066 67.271, 147.066 67.269, 137.066 67.266, 127.066 67.264, 117.066 67.262, 107.066 67.260, 97.066 67.258, 89.038 58.700, 83.865 58.414, 83.692 52.936, 80.382 50.322, 80.383 " />
            <path fill="none" stroke-width="3.0" stroke-linecap="butt" stroke-opacity="1.0" stroke="rgb(0, 0, 0)" stroke-linejoin="round" d=" M 52.959, 164.986 52.956, 156.097 52.954, 146.097 52.951, 136.097 52.948, 126.097 52.946, 116.097 52.943, 106.097 52.940, 96.097 52.940, 94.250 52.937, 84.250 52.936, 80.382 " />
            <path fill="none" stroke-width="3.0" stroke-linecap="butt" stroke-opacity="1.0" stroke="rgb(0, 0, 0)" stroke-linejoin="round" d=" M 201.880, 80.326 199.258, 80.327 194.404, 83.258 185.845, 88.428 184.895, 89.002 184.892, 99.002 184.890, 109.002 184.888, 119.002 184.886, 129.002 184.884, 139.002 184.881, 149.002 184.880, 157.099 193.631, 161.938 196.488, 163.518 199.235, 165.037 201.856, 165.037 " />
            <path fill="none" stroke-width="3.0" stroke-linecap="butt" stroke-opacity="1.0" stroke="rgb(0, 0, 0)" stroke-linejoin="round" d=" M 199.235, 165.037 199.236, 157.952 199.239, 147.952 199.242, 137.952 199.245, 127.952 199.247, 117.952 199.250, 107.952 199.253, 97.952 199.254, 92.396 199.257, 82.396 199.258, 80.327 " />
            <path fill="none" stroke-width="3.0" stroke-linecap="butt" stroke-opacity="1.0" stroke="rgb(0, 0, 0)" stroke-linejoin="round" d=" M 129.354, 148.353 126.261, 148.555 123.169, 148.351 120.130, 147.746 117.196, 146.750 114.417, 145.379 111.840, 143.657 109.511, 141.614 107.468, 139.284 105.747, 136.707 105.387, 135.978 105.180, 135.559 105.130, 135.456 104.918, 135.026 104.732, 134.650 104.376, 133.928 104.049, 132.963 103.842, 132.355 103.707, 131.957 103.380, 130.994 102.776, 127.955 102.573, 124.864 102.775, 121.772 103.379, 118.732 103.706, 117.770 103.841, 117.372 104.048, 116.763 104.375, 115.798 104.731, 115.077 105.402, 113.714 105.565, 113.384 105.745, 113.019 105.992, 112.650 106.066, 112.538 106.088, 112.505 107.466, 110.442 109.509, 108.111 111.839, 106.068 114.415, 104.345 117.194, 102.974 120.129, 101.977 123.169, 101.372 126.261, 101.169 129.354, 101.371 132.394, 101.975 135.330, 102.971 138.110, 104.341 140.688, 106.063 143.018, 108.107 145.062, 110.437 146.311, 112.306 146.463, 112.534 146.538, 112.646 146.785, 113.015 146.904, 113.256 147.348, 114.158 148.031, 115.542 148.156, 115.795 148.238, 116.036 148.374, 116.439 149.152, 118.730 149.757, 121.771 149.815, 122.656 149.959, 124.864 149.814, 127.071 149.756, 127.957 149.151, 130.997 148.373, 133.288 148.236, 133.691 148.154, 133.932 148.029, 134.185 147.524, 135.210 147.400, 135.460 147.350, 135.563 147.347, 135.569 147.046, 136.178 146.783, 136.712 145.060, 139.289 143.016, 141.619 140.685, 143.662 138.108, 145.383 135.328, 146.753 132.393, 147.749 129.354, 148.353 " />
            <path fill="none" stroke-width="3.0" stroke-linecap="butt" stroke-opacity="1.0" stroke="rgb(0, 0, 0)" stroke-linejoin="round" d=" M 130.483, 156.440 126.340, 156.710 122.197, 156.438 118.125, 155.627 114.194, 154.291 110.471, 152.454 107.019, 150.147 103.898, 147.410 101.161, 144.288 98.855, 140.836 98.072, 139.249 97.896, 138.892 97.744, 138.583 97.019, 137.113 96.401, 135.294 95.685, 133.182 94.983, 129.656 94.874, 129.110 94.639, 125.519 94.603, 124.968 94.639, 124.417 94.873, 120.825 94.982, 120.279 95.683, 116.753 96.399, 114.641 97.017, 112.822 97.893, 111.043 98.565, 109.680 98.852, 109.098 99.247, 108.507 101.158, 105.645 103.895, 102.522 107.016, 99.784 110.468, 97.476 114.192, 95.638 118.123, 94.302 122.196, 93.491 126.340, 93.218 130.485, 93.489 134.558, 94.298 138.492, 95.632 142.217, 97.469 145.671, 99.776 148.794, 102.514 151.534, 105.637 153.446, 108.499 153.841, 109.090 154.001, 109.414 154.196, 109.809 155.679, 112.816 155.690, 112.850 157.014, 116.749 157.112, 117.242 157.454, 118.964 157.574, 119.569 157.824, 120.823 158.095, 124.968 157.823, 129.113 157.573, 130.367 157.453, 130.972 157.110, 132.693 157.012, 133.186 155.687, 137.085 155.676, 137.119 154.831, 138.832 154.622, 139.256 154.192, 140.126 153.838, 140.844 151.530, 144.297 148.791, 147.418 145.667, 150.156 142.214, 152.462 138.489, 154.297 134.556, 155.631 130.483, 156.440 " />
            <path fill="none" stroke-width="3.0" stroke-linecap="butt" stroke-opacity="1.0" stroke="rgb(0, 0, 0)" stroke-linejoin="round" d=" M 84.291, 147.650 87.933, 145.635 87.933, 144.035 87.933, 143.448 87.932, 134.074 87.930, 124.074 87.929, 115.653 87.928, 105.653 87.928, 103.919 87.928, 103.277 87.927, 101.529 85.705, 100.186 " />
            <path fill="none" stroke-width="3.0" stroke-linecap="butt" stroke-opacity="1.0" stroke="rgb(0, 0, 0)" stroke-linejoin="round" d=" M 167.058, 99.775 164.179, 101.514 164.179, 103.264 164.178, 103.904 164.177, 113.929 164.176, 123.929 164.174, 133.929 164.174, 135.797 164.173, 143.462 164.173, 144.048 164.172, 145.649 168.540, 148.064 " />
            <path fill="none" stroke-width="3.0" stroke-linecap="butt" stroke-opacity="1.0" stroke="rgb(0, 0, 0)" stroke-linejoin="round" d=" M 128.683, 143.555 126.214, 143.717 123.746, 143.554 121.319, 143.071 118.976, 142.276 116.758, 141.181 114.701, 139.807 112.841, 138.175 111.210, 136.315 109.835, 134.258 109.548, 133.676 109.418, 133.412 109.346, 133.265 109.287, 133.146 109.205, 132.979 109.173, 132.915 109.044, 132.654 108.741, 132.039 108.468, 131.235 108.297, 130.731 107.946, 129.697 107.543, 127.671 107.495, 127.431 107.463, 127.270 107.349, 125.522 107.301, 124.802 107.348, 124.082 107.463, 122.333 107.495, 122.172 107.543, 121.933 107.945, 119.907 108.296, 118.873 108.467, 118.368 108.740, 117.564 109.043, 116.949 109.286, 116.457 109.417, 116.191 109.663, 115.692 109.829, 115.356 109.834, 115.345 110.035, 115.044 110.108, 114.935 111.209, 113.287 112.840, 111.427 114.700, 109.795 116.757, 108.420 118.976, 107.326 121.319, 106.530 123.745, 106.047 126.215, 105.884 128.684, 106.046 131.111, 106.528 133.454, 107.323 135.674, 108.418 137.732, 109.792 139.593, 111.424 141.224, 113.284 142.221, 114.777 142.398, 115.041 142.599, 115.342 142.605, 115.354 142.656, 115.457 142.694, 115.535 142.787, 115.723 143.029, 116.214 143.606, 117.383 143.694, 117.562 143.778, 117.810 144.489, 119.905 144.533, 120.124 144.579, 120.358 144.726, 121.096 144.972, 122.332 145.134, 124.802 144.972, 127.271 144.726, 128.508 144.579, 129.246 144.532, 129.479 144.489, 129.698 143.777, 131.793 143.693, 132.042 143.605, 132.220 143.088, 133.268 142.850, 133.750 142.814, 133.823 142.808, 133.835 142.598, 134.261 141.223, 136.318 139.591, 138.178 137.730, 139.810 135.673, 141.184 133.453, 142.278 131.110, 143.073 128.683, 143.555 " />
            <path fill="none" stroke-width="3.0" stroke-linecap="butt" stroke-opacity="1.0" stroke="rgb(0, 0, 0)" stroke-linejoin="round" d=" M 128.236, 140.356 126.183, 140.490 124.130, 140.355 122.112, 139.953 120.164, 139.292 118.319, 138.382 116.608, 137.239 115.062, 135.882 113.705, 134.335 112.562, 132.624 112.299, 132.090 111.652, 130.779 111.640, 130.743 111.542, 130.453 110.991, 128.831 110.806, 127.902 110.709, 127.415 110.590, 126.813 110.455, 124.760 110.589, 122.708 110.709, 122.106 110.806, 121.619 110.991, 120.690 111.541, 119.068 111.640, 118.778 111.652, 118.741 112.298, 117.430 112.562, 116.896 113.704, 115.185 115.061, 113.638 116.608, 112.281 118.318, 111.138 120.164, 110.228 122.112, 109.566 124.130, 109.164 126.183, 109.029 128.237, 109.164 130.255, 109.565 132.204, 110.226 134.049, 111.136 135.761, 112.279 137.308, 113.636 138.665, 115.183 139.772, 116.840 139.808, 116.894 140.431, 118.157 140.530, 118.357 140.718, 118.740 141.266, 120.352 141.362, 120.635 141.380, 120.689 141.781, 122.707 141.783, 122.727 141.916, 124.761 141.782, 126.794 141.781, 126.814 141.379, 128.832 141.361, 128.886 141.265, 129.169 140.718, 130.781 140.529, 131.164 140.430, 131.363 140.040, 132.155 139.982, 132.272 139.807, 132.626 138.664, 134.337 137.307, 135.884 135.760, 137.241 134.049, 138.384 132.203, 139.293 130.254, 139.955 128.236, 140.356 " />
            <path fill="none" stroke-width="3.0" stroke-linecap="butt" stroke-opacity="1.0" stroke="rgb(0, 0, 0)" stroke-linejoin="round" d=" M 127.677, 136.352 126.144, 136.452 124.611, 136.352 123.105, 136.052 121.650, 135.558 120.273, 134.878 118.996, 134.025 117.841, 133.012 116.828, 131.857 115.975, 130.580 115.295, 129.203 114.802, 127.748 114.502, 126.242 114.402, 124.709 114.502, 123.176 114.801, 121.670 115.295, 120.215 115.974, 118.837 116.828, 117.560 117.840, 116.405 118.995, 115.392 120.272, 114.539 121.650, 113.859 123.105, 113.365 124.611, 113.065 126.144, 112.965 127.677, 113.065 129.184, 113.364 130.639, 113.858 132.017, 114.538 133.294, 115.391 134.449, 116.404 135.462, 117.559 136.316, 118.836 136.995, 120.214 137.489, 121.669 137.789, 123.176 137.889, 124.709 137.789, 126.242 137.489, 127.749 136.995, 129.203 136.315, 130.581 135.462, 131.859 134.449, 133.013 133.294, 134.026 132.016, 134.880 130.638, 135.559 129.184, 136.052 127.677, 136.352 " />
            <path fill="none" stroke-width="3.0" stroke-linecap="butt" stroke-opacity="1.0" stroke="rgb(0, 0, 0)" stroke-linejoin="round" d=" M 127.914, 138.048 126.161, 138.163 124.407, 138.048 122.684, 137.705 121.021, 137.140 119.445, 136.363 117.984, 135.387 116.663, 134.228 115.505, 132.907 114.529, 131.446 113.752, 129.871 113.187, 128.207 112.844, 126.484 112.729, 124.731 112.844, 122.978 113.187, 121.254 113.751, 119.591 114.528, 118.015 115.504, 116.554 116.663, 115.233 117.984, 114.074 119.444, 113.098 121.020, 112.320 122.684, 111.755 124.407, 111.412 126.161, 111.297 127.914, 111.412 129.638, 111.755 131.302, 112.319 132.878, 113.096 134.339, 114.073 135.660, 115.231 136.819, 116.552 137.796, 118.014 138.573, 119.590 139.138, 121.254 139.480, 122.977 139.595, 124.731 139.480, 126.484 139.137, 128.208 138.572, 129.872 137.795, 131.448 136.818, 132.909 135.660, 134.230 134.338, 135.388 132.877, 136.364 131.301, 137.141 129.637, 137.706 127.914, 138.048 " />
            <path fill="none" stroke-width="3.0" stroke-linecap="butt" stroke-opacity="1.0" stroke="rgb(0, 0, 0)" stroke-linejoin="round" d=" M 81.471, 141.218 81.469, 131.218 81.468, 121.218 81.466, 111.218 81.466, 109.134 " />
            <path fill="none" stroke-width="3.0" stroke-linecap="butt" stroke-opacity="1.0" stroke="rgb(0, 0, 0)" stroke-linejoin="round" d=" M 82.390, 143.795 82.388, 133.795 82.387, 123.795 82.385, 113.795 82.384, 106.557 " />
            <path fill="none" stroke-width="3.0" stroke-linecap="butt" stroke-opacity="1.0" stroke="rgb(0, 0, 0)" stroke-linejoin="round" d=" M 94.983, 129.656 94.983, 129.001 94.982, 120.602 94.982, 120.279 " />
            <path fill="none" stroke-width="3.0" stroke-linecap="butt" stroke-opacity="1.0" stroke="rgb(0, 0, 0)" stroke-linejoin="round" d=" M 97.896, 138.892 97.896, 138.508 97.896, 138.486 97.895, 128.486 97.894, 118.486 97.893, 111.116 97.893, 111.043 " />
            <path fill="none" stroke-width="3.0" stroke-linecap="butt" stroke-opacity="1.0" stroke="rgb(0, 0, 0)" stroke-linejoin="round" d=" M 103.707, 131.957 103.706, 121.957 103.706, 117.770 " />
            <path fill="none" stroke-width="3.0" stroke-linecap="butt" stroke-opacity="1.0" stroke="rgb(0, 0, 0)" stroke-linejoin="round" d=" M 107.543, 127.671 107.543, 121.933 " />
            <path fill="none" stroke-width="3.0" stroke-linecap="butt" stroke-opacity="1.0" stroke="rgb(0, 0, 0)" stroke-linejoin="round" d=" M 141.783, 122.727 141.782, 126.794 " />
            <path fill="none" stroke-width="3.0" stroke-linecap="butt" stroke-opacity="1.0" stroke="rgb(0, 0, 0)" stroke-linejoin="round" d=" M 144.533, 120.124 144.532, 129.479 " />
            <path fill="none" stroke-width="3.0" stroke-linecap="butt" stroke-opacity="1.0" stroke="rgb(0, 0, 0)" stroke-linejoin="round" d=" M 148.374, 116.439 148.374, 121.991 148.373, 127.471 148.373, 133.288 " />
            <path fill="none" stroke-width="3.0" stroke-linecap="butt" stroke-opacity="1.0" stroke="rgb(0, 0, 0)" stroke-linejoin="round" d=" M 154.196, 109.809 154.196, 110.392 154.195, 120.392 154.193, 130.392 154.193, 138.515 154.192, 139.210 154.192, 139.256 154.192, 140.126 " />
            <path fill="none" stroke-width="3.0" stroke-linecap="butt" stroke-opacity="1.0" stroke="rgb(0, 0, 0)" stroke-linejoin="round" d=" M 157.110, 132.693 157.110, 130.774 157.111, 120.774 157.112, 118.830 157.112, 117.242 " />
            <path fill="none" stroke-width="3.0" stroke-linecap="butt" stroke-opacity="1.0" stroke="rgb(0, 0, 0)" stroke-linejoin="round" d=" M 157.574, 119.569 157.574, 122.115 157.574, 127.489 157.573, 130.367 " />
            <path fill="none" stroke-width="3.0" stroke-linecap="butt" stroke-opacity="1.0" stroke="rgb(0, 0, 0)" stroke-linejoin="round" d=" M 169.727, 145.661 169.728, 135.661 169.730, 125.661 169.732, 115.661 169.733, 105.661 169.733, 104.692 " />
            <path fill="none" stroke-width="3.0" stroke-linecap="butt" stroke-opacity="1.0" stroke="rgb(0, 0, 0)" stroke-linejoin="round" d=" M 170.654, 106.558 170.652, 116.558 170.650, 126.558 170.649, 136.558 170.648, 143.795 " />
        </g>
    </g>
</svg>
