<?xml version='1.0' encoding='ascii'?>
<svg xmlns="http://www.w3.org/2000/svg" version="1.1" width="250" height="250">
    <g id="ViewLayer_LineSet" xmlns:inkscape="http://www.inkscape.org/namespaces/inkscape" inkscape:groupmode="lineset" inkscape:label="ViewLayer_LineSet">
        <g xmlns:inkscape="http://www.inkscape.org/namespaces/inkscape" inkscape:groupmode="layer" id="strokes" inkscape:label="strokes">
            <path fill="none" stroke-width="3.0" stroke-linecap="butt" stroke-opacity="1.0" stroke="rgb(0, 0, 0)" stroke-linejoin="round" d=" M 223.548, 68.245 219.256, 68.247 210.696, 73.418 207.667, 75.247 199.107, 80.418 197.160, 81.593 197.158, 91.593 197.155, 101.593 197.152, 111.593 197.150, 121.593 197.147, 131.593 197.144, 141.593 197.142, 151.593 197.139, 161.593 197.138, 163.877 205.890, 168.717 210.168, 171.083 218.920, 175.922 219.219, 176.087 223.508, 176.089 " />
            <path fill="none" stroke-width="3.0" stroke-linecap="butt" stroke-opacity="1.0" stroke="rgb(0, 0, 0)" stroke-linejoin="round" d=" M 219.219, 176.087 219.222, 166.087 219.226, 156.087 219.229, 147.660 219.232, 137.660 219.235, 127.660 219.239, 117.660 219.242, 107.660 219.244, 102.973 219.247, 92.973 219.251, 82.973 219.254, 72.973 219.256, 68.247 " />
            <path fill="none" stroke-width="3.0" stroke-linecap="butt" stroke-opacity="1.0" stroke="rgb(0, 0, 0)" stroke-linejoin="round" d=" M 28.770, 176.003 33.043, 176.005 41.793, 171.164 42.924, 170.538 51.674, 165.697 55.048, 163.830 55.046, 153.830 55.043, 143.830 55.041, 133.830 55.038, 123.830 55.035, 113.830 55.033, 103.830 55.030, 93.830 55.028, 83.830 55.027, 81.645 46.469, 76.473 45.339, 75.790 36.781, 70.618 33.007, 68.337 28.732, 68.339 " />
            <path fill="none" stroke-width="3.0" stroke-linecap="butt" stroke-opacity="1.0" stroke="rgb(0, 0, 0)" stroke-linejoin="round" d=" M 33.043, 176.005 33.040, 166.005 33.036, 156.005 33.033, 146.005 33.031, 142.119 33.028, 132.119 33.025, 122.119 33.021, 112.119 33.020, 108.513 33.017, 98.513 33.013, 88.513 33.010, 78.513 33.007, 68.337 " />
            <path fill="none" stroke-width="3.0" stroke-linecap="butt" stroke-opacity="1.0" stroke="rgb(0, 0, 0)" stroke-linejoin="round" d=" M -17.901, 204.192 -9.151, 199.350 -0.401, 194.509 8.349, 189.668 17.099, 184.826 25.849, 179.985 28.770, 178.369 28.770, 176.003 28.769, 172.787 28.765, 162.787 28.761, 152.787 28.758, 142.787 28.754, 132.787 28.751, 122.787 28.747, 112.787 28.744, 102.787 28.740, 92.787 28.737, 82.787 28.733, 71.855 28.732, 68.339 28.731, 65.753 20.172, 60.580 11.614, 55.408 3.056, 50.235 -5.503, 45.063 -14.061, 39.890 -17.988, 37.517 " />
            <path fill="none" stroke-width="3.0" stroke-linecap="butt" stroke-opacity="1.0" stroke="rgb(0, 0, 0)" stroke-linejoin="round" d=" M 270.489, 37.303 261.929, 42.473 253.369, 47.643 244.809, 52.813 236.250, 57.983 227.690, 63.153 223.548, 65.655 223.548, 68.245 223.546, 71.764 223.543, 81.764 223.539, 91.764 223.535, 101.764 223.532, 111.764 223.528, 121.764 223.524, 131.764 223.521, 141.764 223.517, 151.764 223.514, 161.764 223.510, 171.764 223.510, 172.870 223.508, 176.089 223.508, 178.459 232.259, 183.298 241.010, 188.137 249.761, 192.976 258.512, 197.815 267.263, 202.654 270.399, 204.388 " />
            <path fill="none" stroke-width="3.0" stroke-linecap="butt" stroke-opacity="1.0" stroke="rgb(0, 0, 0)" stroke-linejoin="round" d=" M 42.924, 170.538 44.111, 172.945 49.665, 181.260 51.032, 183.306 57.623, 190.826 59.245, 192.676 66.761, 199.273 68.610, 200.896 76.922, 206.456 78.969, 207.824 87.935, 212.252 90.143, 213.343 99.610, 216.563 101.942, 217.357 111.749, 219.315 114.166, 219.798 124.144, 220.460 126.604, 220.623 136.583, 219.977 139.046, 219.818 148.855, 217.876 151.277, 217.396 160.749, 214.190 163.089, 213.398 172.061, 208.983 174.279, 207.892 182.599, 202.344 184.656, 200.972 192.180, 194.385 194.042, 192.755 200.641, 185.242 202.275, 183.382 207.837, 175.071 209.215, 173.013 210.168, 171.083 " />
            <path fill="none" stroke-width="3.0" stroke-linecap="butt" stroke-opacity="1.0" stroke="rgb(0, 0, 0)" stroke-linejoin="round" d=" M 134.049, 181.965 126.589, 182.450 119.129, 181.958 111.798, 180.496 104.721, 178.090 98.018, 174.782 91.805, 170.628 86.187, 165.699 81.260, 160.079 77.108, 153.864 76.240, 152.104 76.055, 151.728 75.108, 149.808 74.846, 149.277 73.803, 147.161 71.400, 140.084 70.269, 134.400 69.941, 132.754 69.451, 125.297 69.938, 117.839 70.265, 116.193 71.394, 110.507 73.795, 103.429 74.837, 101.313 76.045, 98.860 76.581, 97.773 77.098, 96.723 77.925, 95.484 81.249, 90.506 86.175, 84.883 91.794, 79.951 98.008, 75.794 104.713, 72.483 111.793, 70.075 119.127, 68.613 126.590, 68.120 134.053, 68.606 141.390, 70.062 148.474, 72.463 155.185, 75.770 161.406, 79.924 167.032, 84.856 171.965, 90.480 174.980, 94.990 176.086, 96.646 176.122, 96.700 176.410, 97.282 177.297, 99.082 179.432, 103.410 181.836, 110.494 181.877, 110.702 183.228, 117.495 183.295, 117.832 183.783, 125.297 183.292, 132.762 183.224, 133.100 181.871, 139.891 181.830, 140.099 179.423, 147.182 177.901, 150.265 177.287, 151.508 176.930, 152.231 176.112, 153.889 171.953, 160.106 167.019, 165.727 161.394, 170.655 155.173, 174.807 148.465, 178.110 141.383, 180.510 134.049, 181.965 " />
            <path fill="none" stroke-width="3.0" stroke-linecap="butt" stroke-opacity="1.0" stroke="rgb(0, 0, 0)" stroke-linejoin="round" d=" M 207.667, 75.247 202.308, 67.230 195.713, 59.714 194.076, 57.849 186.555, 51.258 184.689, 49.623 176.372, 44.071 174.309, 42.694 165.338, 38.276 163.114, 37.181 153.642, 33.973 151.295, 33.178 141.486, 31.234 139.056, 30.753 129.076, 30.106 126.606, 29.946 116.628, 30.609 114.158, 30.772 104.352, 32.732 101.927, 33.216 92.460, 36.439 90.120, 37.236 81.155, 41.666 78.941, 42.761 70.631, 48.324 68.579, 49.697 61.066, 56.297 59.212, 57.925 52.625, 65.449 51.000, 67.304 45.451, 75.623 45.339, 75.790 " />
            <path fill="none" stroke-width="3.0" stroke-linecap="butt" stroke-opacity="1.0" stroke="rgb(0, 0, 0)" stroke-linejoin="round" d=" M 131.013, 160.229 126.377, 160.531 121.742, 160.226 117.186, 159.319 112.787, 157.824 108.622, 155.769 104.760, 153.188 101.269, 150.125 98.207, 146.632 95.626, 142.770 95.087, 141.677 94.981, 141.461 94.466, 140.416 94.383, 140.249 94.047, 139.567 93.572, 138.605 92.079, 134.207 92.010, 133.860 91.940, 133.506 91.454, 131.066 91.173, 129.651 90.869, 125.017 91.172, 120.382 91.453, 118.967 91.938, 116.527 92.008, 116.172 92.077, 115.826 93.569, 111.427 94.043, 110.465 95.301, 107.913 95.473, 107.564 95.623, 107.261 95.642, 107.231 98.202, 103.397 101.264, 99.904 104.756, 96.840 108.618, 94.257 112.785, 92.201 117.184, 90.706 121.741, 89.798 126.377, 89.493 131.014, 89.796 135.572, 90.701 139.973, 92.194 144.142, 94.248 148.006, 96.830 151.501, 99.893 154.566, 103.387 156.620, 106.461 157.128, 107.222 157.148, 107.252 157.326, 107.613 158.050, 109.080 159.204, 111.420 160.091, 114.033 160.159, 114.235 160.647, 115.673 160.697, 115.821 161.604, 120.379 161.907, 125.017 161.603, 129.654 160.695, 134.212 160.645, 134.360 160.156, 135.798 160.088, 136.000 159.200, 138.613 157.790, 141.470 157.538, 141.980 157.144, 142.780 154.561, 146.643 151.496, 150.136 148.002, 153.198 144.137, 155.778 139.970, 157.832 135.570, 159.324 131.013, 160.229 " />
            <path fill="none" stroke-width="3.0" stroke-linecap="butt" stroke-opacity="1.0" stroke="rgb(0, 0, 0)" stroke-linejoin="round" d=" M 76.240, 152.104 83.192, 148.258 83.192, 146.177 83.192, 145.799 83.190, 135.799 83.189, 125.799 83.187, 115.799 83.186, 105.799 83.185, 101.350 83.185, 100.936 83.185, 98.663 77.925, 95.484 " />
            <path fill="none" stroke-width="3.0" stroke-linecap="butt" stroke-opacity="1.0" stroke="rgb(0, 0, 0)" stroke-linejoin="round" d=" M 176.076, 152.231 176.078, 142.231 176.080, 132.231 176.081, 122.231 176.083, 112.231 176.085, 102.231 176.086, 96.646 " />
            <path fill="none" stroke-width="3.0" stroke-linecap="butt" stroke-opacity="1.0" stroke="rgb(0, 0, 0)" stroke-linejoin="round" d=" M 174.980, 94.990 168.931, 98.644 168.931, 100.919 168.931, 101.331 168.929, 111.331 168.927, 121.331 168.927, 122.694 168.926, 127.085 168.925, 137.085 168.923, 145.816 168.923, 146.193 168.923, 148.275 176.076, 152.231 176.930, 152.231 " />
            <path fill="none" stroke-width="3.0" stroke-linecap="butt" stroke-opacity="1.0" stroke="rgb(0, 0, 0)" stroke-linejoin="round" d=" M 129.630, 150.332 126.280, 150.551 122.931, 150.331 119.639, 149.675 116.461, 148.596 113.451, 147.111 110.660, 145.246 108.137, 143.033 105.924, 140.509 104.060, 137.718 103.670, 136.928 103.362, 136.303 103.319, 136.217 103.263, 136.102 103.161, 135.897 102.747, 135.056 102.575, 134.708 102.515, 134.531 102.234, 133.704 101.496, 131.530 100.841, 128.238 100.737, 126.652 100.622, 124.889 100.737, 123.126 100.841, 121.540 101.495, 118.248 102.233, 116.074 102.513, 115.246 102.574, 115.069 102.745, 114.721 103.360, 113.474 103.825, 112.530 104.058, 112.059 104.134, 111.944 104.218, 111.819 104.429, 111.502 105.922, 109.267 108.135, 106.743 110.658, 104.529 113.449, 102.664 116.459, 101.178 119.638, 100.098 122.931, 99.443 126.281, 99.222 129.631, 99.441 132.924, 100.096 136.104, 101.174 139.116, 102.659 141.908, 104.524 144.432, 106.738 146.647, 109.262 147.999, 111.287 148.352, 111.814 148.436, 111.940 148.512, 112.054 148.641, 112.315 148.721, 112.478 149.335, 113.723 149.567, 114.193 149.850, 114.766 149.997, 115.066 151.077, 118.245 151.346, 119.601 151.732, 121.539 151.902, 124.147 151.951, 124.889 151.902, 125.631 151.731, 128.240 151.345, 130.177 151.075, 131.533 149.996, 134.712 149.848, 135.012 149.565, 135.584 149.333, 136.055 149.313, 136.097 149.308, 136.107 149.251, 136.222 148.816, 137.103 148.510, 137.723 146.644, 140.515 144.430, 143.038 141.905, 145.251 139.113, 147.116 136.102, 148.600 132.923, 149.678 129.630, 150.332 " />
            <path fill="none" stroke-width="3.0" stroke-linecap="butt" stroke-opacity="1.0" stroke="rgb(0, 0, 0)" stroke-linejoin="round" d=" M 156.620, 106.461 156.620, 107.222 156.620, 107.996 156.619, 110.722 156.618, 120.722 156.617, 130.722 156.616, 138.912 156.616, 139.716 156.616, 140.425 156.616, 141.470 157.538, 141.980 " />
            <path fill="none" stroke-width="3.0" stroke-linecap="butt" stroke-opacity="1.0" stroke="rgb(0, 0, 0)" stroke-linejoin="round" d=" M 95.087, 141.677 95.477, 141.461 95.476, 140.417 95.476, 139.707 95.476, 138.142 95.475, 128.142 95.474, 118.142 95.473, 111.492 95.473, 108.006 95.473, 107.564 " />
            <path fill="none" stroke-width="3.0" stroke-linecap="butt" stroke-opacity="1.0" stroke="rgb(0, 0, 0)" stroke-linejoin="round" d=" M 128.854, 144.777 126.226, 144.949 123.599, 144.776 121.016, 144.262 118.523, 143.415 116.162, 142.250 113.972, 140.787 111.993, 139.051 110.257, 137.071 108.794, 134.882 108.471, 134.227 108.407, 134.096 108.209, 133.694 107.630, 132.520 107.603, 132.442 107.307, 131.568 106.783, 130.027 106.529, 128.749 106.519, 128.699 106.367, 127.933 106.270, 127.445 106.097, 124.817 106.269, 122.190 106.366, 121.702 106.519, 120.936 106.529, 120.886 106.783, 119.608 107.306, 118.066 107.602, 117.193 107.629, 117.114 108.223, 115.908 108.406, 115.538 108.551, 115.243 108.611, 115.122 108.714, 114.912 108.793, 114.752 108.911, 114.575 109.085, 114.316 110.256, 112.563 111.992, 110.583 113.971, 108.846 116.160, 107.383 118.522, 106.217 121.016, 105.370 123.599, 104.856 126.227, 104.684 128.855, 104.855 131.438, 105.369 133.932, 106.215 136.294, 107.380 138.484, 108.843 140.465, 110.579 142.202, 112.559 143.263, 114.148 143.523, 114.537 143.547, 114.572 143.665, 114.749 143.669, 114.757 143.744, 114.909 143.766, 114.955 143.850, 115.125 144.472, 116.386 144.770, 116.990 144.830, 117.112 145.547, 119.224 145.558, 119.257 145.677, 119.606 145.709, 119.771 146.190, 122.189 146.362, 124.818 146.190, 127.446 145.709, 129.864 145.676, 130.029 145.557, 130.378 145.546, 130.411 144.829, 132.523 144.769, 132.645 144.471, 133.249 144.250, 133.697 143.987, 134.230 143.947, 134.310 143.887, 134.432 143.664, 134.885 142.200, 137.075 140.463, 139.054 138.483, 140.790 136.293, 142.253 133.931, 143.417 131.437, 144.264 128.854, 144.777 " />
            <path fill="none" stroke-width="3.0" stroke-linecap="butt" stroke-opacity="1.0" stroke="rgb(0, 0, 0)" stroke-linejoin="round" d=" M 128.005, 138.701 126.167, 138.821 124.329, 138.701 122.522, 138.341 120.778, 137.749 119.126, 136.934 117.595, 135.911 116.210, 134.696 114.996, 133.311 113.973, 131.780 113.759, 131.346 113.744, 131.317 113.631, 131.086 113.613, 131.050 113.492, 130.806 113.428, 130.675 113.387, 130.593 113.158, 130.128 112.935, 129.470 112.862, 129.255 112.831, 129.165 112.748, 128.921 112.566, 128.384 112.322, 127.159 112.206, 126.577 112.133, 125.451 112.086, 124.739 112.133, 124.027 112.206, 122.901 112.322, 122.319 112.566, 121.095 112.748, 120.558 112.831, 120.314 112.861, 120.223 112.934, 120.008 113.157, 119.350 113.387, 118.885 113.427, 118.803 113.727, 118.196 113.744, 118.161 113.845, 117.957 113.876, 117.893 113.956, 117.731 113.972, 117.698 114.129, 117.464 114.155, 117.424 114.176, 117.393 114.995, 116.167 116.210, 114.782 117.594, 113.567 119.126, 112.543 120.778, 111.728 122.522, 111.136 124.329, 110.776 126.167, 110.656 128.006, 110.776 129.812, 111.135 131.557, 111.727 133.209, 112.542 134.741, 113.565 136.127, 114.780 137.341, 116.165 138.084, 117.276 138.182, 117.423 138.208, 117.462 138.324, 117.636 138.365, 117.697 138.381, 117.729 138.641, 118.256 138.682, 118.340 139.134, 119.257 139.180, 119.349 139.207, 119.430 139.239, 119.523 139.322, 119.767 139.747, 121.020 139.772, 121.094 139.938, 121.926 140.131, 122.901 140.146, 123.120 140.252, 124.739 140.146, 126.358 140.131, 126.578 139.937, 127.552 139.772, 128.384 139.747, 128.458 139.321, 129.711 139.238, 129.955 139.207, 130.048 139.179, 130.129 139.133, 130.222 138.805, 130.889 138.724, 131.052 138.706, 131.088 138.681, 131.138 138.574, 131.355 138.364, 131.781 137.341, 133.313 136.126, 134.698 134.740, 135.912 133.209, 136.935 131.556, 137.750 129.812, 138.342 128.005, 138.701 " />
            <path fill="none" stroke-width="3.0" stroke-linecap="butt" stroke-opacity="1.0" stroke="rgb(0, 0, 0)" stroke-linejoin="round" d=" M 128.356, 141.212 126.192, 141.354 124.027, 141.212 121.900, 140.788 119.846, 140.091 117.901, 139.131 116.098, 137.926 114.467, 136.496 113.037, 134.865 111.832, 133.062 111.580, 132.551 111.547, 132.483 111.430, 132.245 111.262, 131.905 111.211, 131.802 110.985, 131.344 110.878, 131.126 110.873, 131.117 110.524, 130.090 110.176, 129.063 110.071, 128.538 110.046, 128.408 109.753, 126.936 109.611, 124.772 109.752, 122.607 110.045, 121.135 110.071, 121.005 110.175, 120.480 110.524, 119.453 110.872, 118.426 110.877, 118.417 110.985, 118.198 111.210, 117.741 111.303, 117.553 111.681, 116.785 111.703, 116.741 111.782, 116.580 111.807, 116.530 111.831, 116.481 112.047, 116.158 113.036, 114.677 114.466, 113.046 116.097, 111.616 117.900, 110.410 119.846, 109.451 121.900, 108.753 124.027, 108.330 126.192, 108.187 128.356, 108.329 130.484, 108.752 132.539, 109.449 134.484, 110.408 136.288, 111.613 137.920, 113.044 139.350, 114.675 140.340, 116.156 140.367, 116.197 140.555, 116.479 140.580, 116.528 140.604, 116.578 140.639, 116.648 140.767, 116.909 140.860, 117.096 141.087, 117.556 141.195, 117.775 141.515, 118.424 141.547, 118.519 142.001, 119.858 142.026, 119.931 142.212, 120.479 142.559, 122.222 142.636, 122.607 142.777, 124.772 142.635, 126.936 142.559, 127.321 142.212, 129.064 142.026, 129.612 142.001, 129.685 141.546, 131.024 141.514, 131.118 141.194, 131.768 141.086, 131.987 141.073, 132.013 140.957, 132.247 140.840, 132.485 140.739, 132.691 140.555, 133.064 139.349, 134.868 137.918, 136.498 136.287, 137.928 134.483, 139.133 132.538, 140.092 130.484, 140.789 128.356, 141.212 " />
            <path fill="none" stroke-width="3.0" stroke-linecap="butt" stroke-opacity="1.0" stroke="rgb(0, 0, 0)" stroke-linejoin="round" d=" M 127.747, 136.855 126.149, 136.960 124.551, 136.855 122.980, 136.542 121.464, 136.027 120.027, 135.319 118.696, 134.429 117.492, 133.373 116.436, 132.169 115.546, 130.837 115.360, 130.460 115.350, 130.441 115.336, 130.411 115.238, 130.212 115.004, 129.737 114.838, 129.401 114.735, 129.099 114.625, 128.775 114.323, 127.884 114.293, 127.735 114.228, 127.406 114.223, 127.381 114.163, 127.083 114.010, 126.313 113.905, 124.715 114.010, 123.117 114.163, 122.348 114.223, 122.049 114.228, 122.024 114.293, 121.695 114.323, 121.546 114.625, 120.656 114.735, 120.332 114.837, 120.030 115.003, 119.693 115.394, 118.900 115.447, 118.792 115.545, 118.593 115.688, 118.379 115.723, 118.328 116.435, 117.262 117.491, 116.057 118.695, 115.001 120.027, 114.111 121.463, 113.403 122.980, 112.888 124.551, 112.575 126.149, 112.470 127.748, 112.575 129.319, 112.887 130.836, 113.402 132.272, 114.110 133.604, 115.000 134.809, 116.056 135.865, 117.260 136.510, 118.226 136.612, 118.378 136.619, 118.390 136.673, 118.469 136.755, 118.592 137.064, 119.219 137.333, 119.764 137.442, 119.986 137.463, 120.029 137.775, 120.947 137.840, 121.140 137.845, 121.152 137.904, 121.327 137.978, 121.546 138.291, 123.117 138.324, 123.628 138.340, 123.878 138.395, 124.715 138.340, 125.553 138.324, 125.803 138.290, 126.314 137.978, 127.885 137.904, 128.103 137.844, 128.278 137.840, 128.291 137.775, 128.484 137.463, 129.402 137.442, 129.445 137.332, 129.667 137.063, 130.211 137.063, 130.213 136.964, 130.413 136.950, 130.442 136.890, 130.563 136.754, 130.838 135.864, 132.170 134.808, 133.374 133.604, 134.430 132.272, 135.320 130.835, 136.028 129.318, 136.543 127.747, 136.855 " />
            <path fill="none" stroke-width="3.0" stroke-linecap="butt" stroke-opacity="1.0" stroke="rgb(0, 0, 0)" stroke-linejoin="round" d=" M 127.548, 135.430 126.135, 135.522 124.722, 135.429 123.333, 135.153 121.993, 134.698 120.723, 134.072 119.546, 133.285 118.481, 132.351 117.547, 131.287 116.761, 130.109 116.135, 128.839 115.808, 127.878 115.679, 127.499 115.448, 126.333 115.403, 126.110 115.394, 125.975 115.311, 124.697 115.394, 123.419 115.403, 123.284 115.447, 123.061 115.679, 121.895 115.808, 121.516 116.134, 120.555 116.761, 119.285 117.547, 118.107 118.481, 117.042 119.545, 116.109 120.723, 115.322 121.992, 114.695 123.333, 114.240 124.722, 113.964 126.135, 113.871 127.548, 113.963 128.937, 114.240 130.278, 114.695 131.549, 115.321 132.726, 116.108 133.791, 117.041 134.725, 118.106 135.512, 119.284 136.138, 120.554 136.258, 120.909 136.593, 121.895 136.619, 122.026 136.672, 122.294 136.869, 123.284 136.962, 124.697 136.869, 126.110 136.672, 127.100 136.619, 127.368 136.593, 127.499 136.258, 128.485 136.138, 128.840 135.511, 130.110 134.724, 131.288 133.790, 132.352 132.726, 133.286 131.548, 134.072 130.278, 134.699 128.937, 135.154 127.548, 135.430 " />
            <path fill="none" stroke-width="3.0" stroke-linecap="butt" stroke-opacity="1.0" stroke="rgb(0, 0, 0)" stroke-linejoin="round" d=" M 127.261, 133.371 126.115, 133.446 124.970, 133.371 123.844, 133.147 122.757, 132.778 121.728, 132.270 120.773, 131.632 119.910, 130.875 119.154, 130.012 118.516, 129.058 118.008, 128.028 117.639, 126.942 117.415, 125.816 117.340, 124.670 117.415, 123.525 117.639, 122.399 118.008, 121.312 118.516, 120.283 119.153, 119.328 119.910, 118.465 120.773, 117.708 121.727, 117.071 122.757, 116.563 123.844, 116.194 124.970, 115.970 126.115, 115.895 127.261, 115.970 128.387, 116.193 129.474, 116.562 130.503, 117.070 131.458, 117.708 132.321, 118.465 133.078, 119.328 133.716, 120.282 134.223, 121.312 134.592, 122.399 134.816, 123.525 134.891, 124.670 134.816, 125.816 134.592, 126.942 134.223, 128.029 133.715, 129.058 133.078, 130.013 132.321, 130.876 131.457, 131.633 130.503, 132.270 129.473, 132.778 128.386, 133.147 127.261, 133.371 " />
            <path fill="none" stroke-width="3.0" stroke-linecap="butt" stroke-opacity="1.0" stroke="rgb(0, 0, 0)" stroke-linejoin="round" d=" M 127.388, 134.285 126.124, 134.367 124.860, 134.285 123.617, 134.037 122.418, 133.630 121.282, 133.070 120.228, 132.366 119.276, 131.530 118.441, 130.578 117.737, 129.525 117.176, 128.388 116.769, 127.189 116.522, 125.946 116.439, 124.682 116.522, 123.418 116.769, 122.176 117.176, 120.976 117.737, 119.840 118.440, 118.786 119.276, 117.834 120.228, 116.998 121.281, 116.294 122.418, 115.734 123.617, 115.327 124.860, 115.079 126.124, 114.996 127.388, 115.079 128.631, 115.326 129.831, 115.733 130.967, 116.294 132.021, 116.998 132.973, 117.833 133.809, 118.786 134.513, 119.839 135.073, 120.975 135.481, 122.175 135.728, 123.418 135.811, 124.682 135.728, 125.947 135.480, 127.189 135.073, 128.389 134.512, 129.525 133.809, 130.579 132.973, 131.531 132.020, 132.367 130.967, 133.070 129.831, 133.631 128.631, 134.038 127.388, 134.285 " />
            <path fill="none" stroke-width="3.0" stroke-linecap="butt" stroke-opacity="1.0" stroke="rgb(0, 0, 0)" stroke-linejoin="round" d=" M 74.846, 149.277 74.844, 139.277 74.842, 129.277 74.840, 119.277 74.839, 109.277 74.837, 101.313 " />
            <path fill="none" stroke-width="3.0" stroke-linecap="butt" stroke-opacity="1.0" stroke="rgb(0, 0, 0)" stroke-linejoin="round" d=" M 76.055, 151.728 76.053, 141.728 76.051, 131.728 76.050, 121.728 76.048, 111.728 76.046, 101.728 76.045, 98.860 " />
            <path fill="none" stroke-width="3.0" stroke-linecap="butt" stroke-opacity="1.0" stroke="rgb(0, 0, 0)" stroke-linejoin="round" d=" M 91.454, 131.066 91.453, 121.066 91.453, 118.967 " />
            <path fill="none" stroke-width="3.0" stroke-linecap="butt" stroke-opacity="1.0" stroke="rgb(0, 0, 0)" stroke-linejoin="round" d=" M 92.010, 133.860 92.009, 123.860 92.008, 116.172 " />
            <path fill="none" stroke-width="3.0" stroke-linecap="butt" stroke-opacity="1.0" stroke="rgb(0, 0, 0)" stroke-linejoin="round" d=" M 102.234, 133.704 102.233, 123.704 102.233, 116.074 " />
            <path fill="none" stroke-width="3.0" stroke-linecap="butt" stroke-opacity="1.0" stroke="rgb(0, 0, 0)" stroke-linejoin="round" d=" M 106.519, 128.699 106.519, 120.936 " />
            <path fill="none" stroke-width="3.0" stroke-linecap="butt" stroke-opacity="1.0" stroke="rgb(0, 0, 0)" stroke-linejoin="round" d=" M 142.559, 122.222 142.559, 127.321 " />
            <path fill="none" stroke-width="3.0" stroke-linecap="butt" stroke-opacity="1.0" stroke="rgb(0, 0, 0)" stroke-linejoin="round" d=" M 145.558, 119.257 145.557, 129.257 145.557, 130.378 " />
            <path fill="none" stroke-width="3.0" stroke-linecap="butt" stroke-opacity="1.0" stroke="rgb(0, 0, 0)" stroke-linejoin="round" d=" M 149.850, 114.766 149.849, 124.766 149.848, 134.766 149.848, 135.012 " />
            <path fill="none" stroke-width="3.0" stroke-linecap="butt" stroke-opacity="1.0" stroke="rgb(0, 0, 0)" stroke-linejoin="round" d=" M 151.902, 125.631 151.902, 124.147 " />
            <path fill="none" stroke-width="3.0" stroke-linecap="butt" stroke-opacity="1.0" stroke="rgb(0, 0, 0)" stroke-linejoin="round" d=" M 160.088, 136.000 160.089, 126.000 160.090, 116.000 160.091, 114.033 " />
            <path fill="none" stroke-width="3.0" stroke-linecap="butt" stroke-opacity="1.0" stroke="rgb(0, 0, 0)" stroke-linejoin="round" d=" M 160.647, 115.673 160.646, 125.673 160.645, 134.360 " />
            <path fill="none" stroke-width="3.0" stroke-linecap="butt" stroke-opacity="1.0" stroke="rgb(0, 0, 0)" stroke-linejoin="round" d=" M 177.297, 99.082 177.295, 109.082 177.293, 119.082 177.292, 129.082 177.290, 139.082 177.288, 149.082 177.287, 149.961 177.287, 151.508 " />
        </g>
    </g>
</svg>
