<?xml version='1.0' encoding='ascii'?>
<svg xmlns="http://www.w3.org/2000/svg" version="1.1" width="250" height="250">
    <g id="ViewLayer_LineSet" xmlns:inkscape="http://www.inkscape.org/namespaces/inkscape" inkscape:groupmode="lineset" inkscape:label="ViewLayer_LineSet">
        <g xmlns:inkscape="http://www.inkscape.org/namespaces/inkscape" inkscape:groupmode="layer" id="strokes" inkscape:label="strokes">
            <path fill="none" stroke-width="3.0" stroke-linecap="butt" stroke-opacity="1.0" stroke="rgb(0, 0, 0)" stroke-linejoin="round" d=" M 219.080, 70.717 215.165, 70.719 206.605, 75.889 205.046, 76.830 196.486, 82.000 194.753, 83.047 194.751, 93.047 194.748, 103.047 194.746, 113.047 194.743, 123.047 194.741, 133.047 194.738, 143.047 194.735, 153.047 194.733, 162.547 203.484, 167.386 207.451, 169.580 215.130, 173.826 219.044, 173.828 " />
            <path fill="none" stroke-width="3.0" stroke-linecap="butt" stroke-opacity="1.0" stroke="rgb(0, 0, 0)" stroke-linejoin="round" d=" M 215.130, 173.826 215.134, 163.826 215.137, 153.826 215.138, 151.033 215.141, 141.033 215.145, 131.033 215.148, 121.033 215.151, 111.033 215.155, 101.033 215.155, 99.511 215.158, 89.511 215.162, 79.511 215.165, 70.719 " />
            <path fill="none" stroke-width="3.0" stroke-linecap="butt" stroke-opacity="1.0" stroke="rgb(0, 0, 0)" stroke-linejoin="round" d=" M 33.217, 173.750 37.116, 173.751 45.582, 169.067 54.332, 164.226 57.447, 162.503 57.444, 152.503 57.442, 142.503 57.439, 132.503 57.437, 122.503 57.434, 112.503 57.432, 102.503 57.429, 92.503 57.427, 83.096 48.869, 77.923 47.905, 77.341 39.346, 72.168 37.083, 70.800 33.182, 70.802 " />
            <path fill="none" stroke-width="3.0" stroke-linecap="butt" stroke-opacity="1.0" stroke="rgb(0, 0, 0)" stroke-linejoin="round" d=" M 37.116, 173.751 37.113, 163.751 37.110, 153.751 37.108, 147.122 37.104, 137.122 37.101, 127.122 37.098, 117.122 37.095, 107.122 37.093, 103.420 37.090, 93.420 37.087, 83.420 37.084, 73.420 37.083, 70.800 " />
            <path fill="none" stroke-width="3.0" stroke-linecap="butt" stroke-opacity="1.0" stroke="rgb(0, 0, 0)" stroke-linejoin="round" d=" M -8.371, 198.919 0.379, 194.077 9.129, 189.236 17.879, 184.395 26.629, 179.554 33.218, 175.908 33.217, 173.750 33.216, 170.581 33.212, 160.581 33.209, 150.581 33.206, 140.581 33.202, 130.581 33.199, 120.581 33.196, 110.581 33.192, 100.581 33.189, 90.581 33.186, 80.581 33.183, 74.266 33.182, 70.802 33.181, 68.442 24.623, 63.270 16.065, 58.098 7.506, 52.925 -1.052, 47.753 -8.447, 43.284 " />
            <path fill="none" stroke-width="3.0" stroke-linecap="butt" stroke-opacity="1.0" stroke="rgb(0, 0, 0)" stroke-linejoin="round" d=" M 260.896, 43.097 252.336, 48.267 243.777, 53.437 235.217, 58.607 226.657, 63.777 219.081, 68.353 219.080, 70.717 219.079, 74.183 219.075, 84.183 219.072, 94.183 219.068, 104.183 219.065, 114.183 219.061, 124.183 219.058, 134.183 219.054, 144.183 219.051, 154.183 219.047, 164.183 219.045, 170.657 219.044, 173.828 219.043, 175.990 227.794, 180.829 236.546, 185.668 245.297, 190.507 254.048, 195.346 260.818, 199.090 " />
            <path fill="none" stroke-width="3.0" stroke-linecap="butt" stroke-opacity="1.0" stroke="rgb(0, 0, 0)" stroke-linejoin="round" d=" M 45.582, 169.067 46.720, 171.375 52.274, 179.690 53.419, 181.404 60.011, 188.924 61.369, 190.474 68.885, 197.071 70.435, 198.431 78.747, 203.990 80.461, 205.137 89.428, 209.565 91.278, 210.478 100.745, 213.699 102.699, 214.364 112.506, 216.322 114.531, 216.726 124.509, 217.388 126.571, 217.524 136.550, 216.878 138.613, 216.745 138.626, 216.744 148.435, 214.801 150.462, 214.400 159.934, 211.194 161.893, 210.531 170.865, 206.116 172.722, 205.202 181.041, 199.654 182.763, 198.505 190.287, 191.918 191.846, 190.553 198.445, 183.040 199.813, 181.482 205.375, 173.172 206.528, 171.448 207.451, 169.580 " />
            <path fill="none" stroke-width="3.0" stroke-linecap="butt" stroke-opacity="1.0" stroke="rgb(0, 0, 0)" stroke-linejoin="round" d=" M 133.797, 180.162 126.571, 180.632 119.346, 180.155 112.245, 178.739 105.390, 176.409 98.898, 173.205 92.880, 169.181 87.438, 164.407 82.666, 158.963 78.644, 152.944 77.804, 151.239 77.256, 150.128 76.707, 149.015 76.105, 147.794 75.443, 146.451 73.116, 139.597 71.703, 132.497 71.608, 131.058 71.228, 125.273 71.606, 119.489 71.700, 118.049 73.110, 110.949 75.435, 104.092 76.097, 102.750 77.247, 100.415 78.134, 98.614 78.635, 97.597 79.436, 96.397 82.655, 91.575 87.427, 86.129 92.869, 81.352 98.889, 77.325 105.383, 74.119 112.240, 71.787 119.344, 70.371 126.572, 69.893 133.801, 70.364 140.907, 71.774 147.769, 74.101 154.268, 77.303 160.294, 81.327 165.743, 86.103 170.521, 91.551 173.441, 95.920 174.548, 97.575 174.826, 98.140 174.882, 98.253 176.035, 100.591 177.753, 104.074 180.082, 110.936 180.534, 113.209 181.495, 118.043 181.818, 122.994 181.967, 125.274 181.817, 127.555 181.492, 132.504 180.529, 137.339 180.076, 139.611 177.745, 146.471 176.270, 149.457 176.026, 149.953 175.230, 151.565 174.538, 152.967 170.510, 158.989 165.731, 164.433 160.282, 169.207 154.258, 173.228 147.760, 176.428 140.901, 178.752 133.797, 180.162 " />
            <path fill="none" stroke-width="3.0" stroke-linecap="butt" stroke-opacity="1.0" stroke="rgb(0, 0, 0)" stroke-linejoin="round" d=" M 205.046, 76.830 199.846, 69.050 193.250, 61.533 191.878, 59.969 184.357, 53.378 182.792, 52.007 174.475, 46.455 172.745, 45.301 163.774, 40.883 161.909, 39.964 152.438, 36.756 150.469, 36.089 140.660, 34.145 138.623, 33.741 128.644, 33.095 126.572, 32.961 116.594, 33.623 114.524, 33.760 104.718, 35.719 102.685, 36.125 93.218, 39.348 91.257, 40.015 82.292, 44.446 80.435, 45.363 72.125, 50.926 70.406, 52.077 62.893, 58.676 61.339, 60.041 54.751, 67.564 53.390, 69.119 47.905, 77.341 " />
            <path fill="none" stroke-width="3.0" stroke-linecap="butt" stroke-opacity="1.0" stroke="rgb(0, 0, 0)" stroke-linejoin="round" d=" M 130.914, 159.524 126.370, 159.821 121.826, 159.521 117.360, 158.632 113.049, 157.167 108.966, 155.152 105.180, 152.622 101.758, 149.620 98.756, 146.196 96.227, 142.411 95.698, 141.339 95.635, 141.211 95.135, 140.196 95.008, 139.940 94.492, 138.893 94.213, 138.327 92.750, 134.016 92.571, 133.118 92.445, 132.485 92.033, 130.416 91.861, 129.551 91.563, 125.008 91.860, 120.464 92.032, 119.599 92.443, 117.529 92.569, 116.897 92.748, 115.998 94.210, 111.687 94.489, 111.121 95.908, 108.241 95.926, 108.205 96.223, 107.602 96.310, 107.472 98.752, 103.815 101.754, 100.391 105.176, 97.387 108.962, 94.856 113.046, 92.840 117.359, 91.375 121.825, 90.485 126.370, 90.186 130.916, 90.482 135.384, 91.370 139.698, 92.833 143.784, 94.847 147.572, 97.378 150.998, 100.381 154.002, 103.806 156.166, 107.044 156.446, 107.463 156.533, 107.594 156.708, 107.948 157.604, 109.765 158.548, 111.679 159.529, 114.569 159.653, 114.934 160.012, 115.994 160.067, 116.268 160.901, 120.462 161.198, 125.008 160.900, 129.554 160.065, 133.747 160.010, 134.022 159.650, 135.081 159.526, 135.446 158.545, 138.335 157.121, 141.219 156.916, 141.636 156.529, 142.420 153.997, 146.207 150.993, 149.630 147.567, 152.632 143.780, 155.162 139.694, 157.175 135.381, 158.637 130.914, 159.524 " />
            <path fill="none" stroke-width="3.0" stroke-linecap="butt" stroke-opacity="1.0" stroke="rgb(0, 0, 0)" stroke-linejoin="round" d=" M 77.804, 151.239 84.078, 147.768 84.077, 145.769 84.077, 145.360 84.076, 135.360 84.074, 125.360 84.073, 115.360 84.071, 105.360 84.071, 101.829 84.071, 101.383 84.070, 99.198 79.436, 96.397 " />
            <path fill="none" stroke-width="3.0" stroke-linecap="butt" stroke-opacity="1.0" stroke="rgb(0, 0, 0)" stroke-linejoin="round" d=" M 174.872, 151.565 174.874, 141.565 174.876, 131.565 174.878, 121.565 174.880, 111.565 174.881, 101.565 174.882, 98.253 " />
            <path fill="none" stroke-width="3.0" stroke-linecap="butt" stroke-opacity="1.0" stroke="rgb(0, 0, 0)" stroke-linejoin="round" d=" M 173.441, 95.920 168.043, 99.180 168.043, 101.366 168.043, 101.812 168.041, 111.812 168.040, 119.117 168.039, 129.117 168.038, 130.652 168.037, 140.652 168.036, 145.376 168.036, 145.784 168.036, 147.785 174.872, 151.565 175.230, 151.565 " />
            <path fill="none" stroke-width="3.0" stroke-linecap="butt" stroke-opacity="1.0" stroke="rgb(0, 0, 0)" stroke-linejoin="round" d=" M 129.578, 149.962 126.277, 150.178 122.975, 149.961 119.731, 149.315 116.598, 148.251 113.631, 146.787 110.881, 144.949 108.394, 142.767 106.213, 140.280 104.375, 137.529 103.991, 136.750 103.669, 136.097 103.613, 135.985 103.612, 135.982 103.489, 135.734 102.984, 134.709 102.912, 134.562 102.757, 134.106 102.510, 133.379 101.848, 131.430 101.203, 128.185 101.016, 125.346 100.986, 124.884 101.016, 124.423 101.202, 121.583 101.847, 118.338 102.509, 116.389 102.755, 115.662 102.910, 115.205 102.982, 115.059 103.610, 113.785 104.144, 112.702 104.373, 112.238 104.483, 112.073 104.565, 111.950 104.739, 111.690 106.211, 109.487 108.391, 106.999 110.879, 104.817 113.629, 102.978 116.597, 101.514 119.730, 100.449 122.975, 99.803 126.277, 99.586 129.579, 99.802 132.825, 100.447 135.959, 101.510 138.928, 102.973 141.680, 104.812 144.168, 106.993 146.351, 109.482 147.684, 111.477 147.997, 111.945 148.079, 112.068 148.189, 112.233 148.316, 112.491 148.470, 112.803 149.098, 114.075 149.325, 114.537 149.574, 115.040 149.653, 115.202 150.717, 118.336 151.067, 120.093 151.363, 121.582 151.577, 124.855 151.579, 124.884 151.577, 124.914 151.362, 128.187 151.066, 129.675 150.716, 131.433 149.651, 134.566 149.572, 134.728 149.323, 135.232 149.096, 135.693 148.978, 135.931 148.950, 135.989 148.894, 136.102 148.468, 136.965 148.187, 137.534 146.348, 140.286 144.166, 142.773 141.677, 144.954 138.925, 146.792 135.957, 148.255 132.824, 149.318 129.578, 149.962 " />
            <path fill="none" stroke-width="3.0" stroke-linecap="butt" stroke-opacity="1.0" stroke="rgb(0, 0, 0)" stroke-linejoin="round" d=" M 156.166, 107.044 156.166, 107.463 156.166, 108.242 156.166, 110.659 156.164, 120.659 156.163, 130.659 156.162, 138.969 156.162, 139.491 156.162, 140.204 156.162, 141.219 156.916, 141.636 " />
            <path fill="none" stroke-width="3.0" stroke-linecap="butt" stroke-opacity="1.0" stroke="rgb(0, 0, 0)" stroke-linejoin="round" d=" M 95.698, 141.339 95.930, 141.211 95.930, 140.196 95.929, 139.483 95.929, 138.207 95.928, 128.207 95.927, 118.207 95.927, 111.420 95.926, 108.251 95.926, 108.205 " />
            <path fill="none" stroke-width="3.0" stroke-linecap="butt" stroke-opacity="1.0" stroke="rgb(0, 0, 0)" stroke-linejoin="round" d=" M 128.822, 144.548 126.224, 144.718 123.626, 144.548 121.073, 144.039 118.608, 143.202 116.273, 142.050 114.109, 140.604 112.151, 138.887 110.435, 136.930 108.989, 134.765 108.683, 134.144 108.558, 133.892 108.424, 133.620 107.838, 132.430 107.752, 132.178 107.478, 131.371 107.001, 129.965 106.705, 128.478 106.696, 128.431 106.536, 127.629 106.493, 127.412 106.322, 124.815 106.492, 122.217 106.535, 122.000 106.695, 121.198 106.704, 121.151 107.000, 119.663 107.477, 118.258 107.751, 117.451 107.837, 117.198 108.362, 116.132 108.557, 115.736 108.700, 115.446 108.808, 115.229 108.926, 114.987 108.988, 114.863 109.126, 114.656 109.276, 114.432 110.434, 112.698 112.150, 110.740 114.107, 109.023 116.272, 107.577 118.607, 106.425 121.072, 105.587 123.626, 105.079 126.224, 104.908 128.823, 105.078 131.377, 105.586 133.843, 106.422 136.178, 107.574 138.344, 109.020 140.302, 110.737 142.019, 112.695 143.068, 114.265 143.327, 114.653 143.374, 114.722 143.466, 114.860 143.517, 114.964 143.527, 114.984 143.566, 115.063 143.711, 115.357 144.323, 116.599 144.599, 117.157 144.618, 117.196 145.372, 119.419 145.380, 119.443 145.455, 119.662 145.540, 120.091 145.963, 122.216 146.133, 124.815 145.962, 127.413 145.539, 129.538 145.454, 129.967 145.379, 130.186 145.371, 130.210 144.617, 132.433 144.598, 132.472 144.322, 133.030 144.029, 133.623 143.771, 134.147 143.732, 134.226 143.686, 134.320 143.464, 134.768 142.017, 136.933 140.300, 138.891 138.342, 140.607 136.177, 142.053 133.841, 143.204 131.376, 144.041 128.822, 144.548 " />
            <path fill="none" stroke-width="3.0" stroke-linecap="butt" stroke-opacity="1.0" stroke="rgb(0, 0, 0)" stroke-linejoin="round" d=" M 127.990, 138.589 126.166, 138.708 124.342, 138.588 122.550, 138.232 120.820, 137.644 119.181, 136.836 117.662, 135.821 116.288, 134.616 115.083, 133.242 114.068, 131.722 113.856, 131.292 113.818, 131.216 113.736, 131.049 113.718, 131.013 113.599, 130.771 113.498, 130.565 113.466, 130.501 113.260, 130.084 113.010, 129.347 112.938, 129.135 112.916, 129.071 112.834, 128.830 112.673, 128.353 112.405, 127.007 112.316, 126.561 112.227, 125.205 112.196, 124.738 112.227, 124.270 112.316, 122.914 112.405, 122.468 112.672, 121.122 112.834, 120.645 112.916, 120.404 112.937, 120.341 113.010, 120.128 113.259, 119.392 113.465, 118.975 113.497, 118.910 113.793, 118.309 113.818, 118.259 113.941, 118.009 113.981, 117.929 114.060, 117.769 114.068, 117.753 114.233, 117.504 114.259, 117.465 114.270, 117.450 115.083, 116.233 116.287, 114.859 117.661, 113.654 119.181, 112.639 120.820, 111.830 122.550, 111.242 124.342, 110.886 126.166, 110.766 127.990, 110.885 129.782, 111.242 131.513, 111.829 133.152, 112.637 134.672, 113.652 136.046, 114.857 137.252, 116.232 137.988, 117.334 138.075, 117.464 138.101, 117.503 138.250, 117.726 138.267, 117.751 138.275, 117.767 138.571, 118.367 138.604, 118.434 139.059, 119.356 139.076, 119.391 139.131, 119.554 139.153, 119.620 139.235, 119.861 139.663, 121.121 139.664, 121.128 139.843, 122.026 140.020, 122.914 140.058, 123.506 140.139, 124.738 140.058, 125.970 140.019, 126.562 139.843, 127.449 139.664, 128.347 139.663, 128.354 139.235, 129.614 139.153, 129.855 139.130, 129.921 139.075, 130.085 139.058, 130.119 138.703, 130.838 138.617, 131.014 138.603, 131.042 138.599, 131.050 138.468, 131.314 138.266, 131.724 137.251, 133.243 136.046, 134.617 134.671, 135.822 133.152, 136.837 131.513, 137.645 129.782, 138.233 127.990, 138.589 " />
            <path fill="none" stroke-width="3.0" stroke-linecap="butt" stroke-opacity="1.0" stroke="rgb(0, 0, 0)" stroke-linejoin="round" d=" M 128.334, 141.057 126.190, 141.197 124.046, 141.056 121.938, 140.637 119.904, 139.946 117.977, 138.995 116.190, 137.802 114.575, 136.385 113.158, 134.769 111.965, 132.983 111.715, 132.477 111.691, 132.427 111.575, 132.193 111.410, 131.857 111.307, 131.650 111.096, 131.221 111.014, 131.056 110.990, 130.984 110.630, 129.923 110.324, 129.021 110.196, 128.379 110.158, 128.186 109.904, 126.914 109.764, 124.770 109.904, 122.625 110.157, 121.353 110.195, 121.160 110.323, 120.518 110.629, 119.616 110.989, 118.555 111.014, 118.483 111.095, 118.317 111.307, 117.889 111.398, 117.704 111.804, 116.881 111.815, 116.858 111.927, 116.631 111.951, 116.582 111.964, 116.556 112.191, 116.215 113.157, 114.769 114.574, 113.153 116.189, 111.736 117.976, 110.542 119.903, 109.591 121.938, 108.900 124.046, 108.481 126.190, 108.340 128.335, 108.480 130.443, 108.899 132.478, 109.590 134.406, 110.540 136.193, 111.734 137.809, 113.151 139.226, 114.767 140.192, 116.213 140.267, 116.325 140.420, 116.554 140.433, 116.580 140.457, 116.630 140.503, 116.721 140.672, 117.065 140.763, 117.250 140.976, 117.681 141.082, 117.897 141.371, 118.482 141.442, 118.691 141.877, 119.973 141.914, 120.083 142.061, 120.517 142.426, 122.348 142.481, 122.625 142.621, 124.770 142.480, 126.914 142.425, 127.192 142.061, 129.022 141.914, 129.456 141.876, 129.566 141.441, 130.848 141.370, 131.057 141.081, 131.642 140.975, 131.858 140.933, 131.943 140.809, 132.195 140.693, 132.429 140.602, 132.615 140.419, 132.985 139.225, 134.771 137.808, 136.387 136.192, 137.804 134.405, 138.997 132.477, 139.948 130.442, 140.638 128.334, 141.057 " />
            <path fill="none" stroke-width="3.0" stroke-linecap="butt" stroke-opacity="1.0" stroke="rgb(0, 0, 0)" stroke-linejoin="round" d=" M 127.735, 136.770 126.148, 136.874 124.561, 136.770 123.001, 136.459 121.495, 135.948 120.069, 135.245 118.746, 134.361 117.550, 133.312 116.502, 132.116 115.618, 130.794 115.434, 130.419 115.429, 130.410 115.415, 130.381 115.317, 130.184 115.063, 129.668 114.915, 129.367 114.798, 129.022 114.682, 128.682 114.404, 127.861 114.361, 127.646 114.296, 127.320 114.284, 127.260 114.225, 126.965 114.093, 126.301 113.989, 124.714 114.093, 123.127 114.225, 122.464 114.284, 122.168 114.296, 122.108 114.360, 121.783 114.403, 121.567 114.682, 120.746 114.797, 120.406 114.914, 120.061 115.063, 119.760 115.450, 118.976 115.502, 118.869 115.618, 118.635 115.768, 118.410 115.794, 118.371 116.501, 117.312 117.550, 116.116 118.746, 115.067 120.068, 114.183 121.495, 113.480 123.001, 112.968 124.561, 112.658 126.148, 112.553 127.736, 112.657 129.296, 112.967 130.802, 113.479 132.229, 114.182 133.552, 115.066 134.748, 116.115 135.797, 117.311 136.438, 118.270 136.531, 118.409 136.564, 118.459 136.617, 118.538 136.681, 118.633 137.004, 119.289 137.270, 119.828 137.384, 120.060 137.385, 120.061 137.707, 121.012 137.772, 121.202 137.783, 121.236 137.842, 121.409 137.896, 121.567 138.206, 123.127 138.250, 123.800 138.274, 124.164 138.310, 124.714 138.274, 125.265 138.250, 125.628 138.206, 126.302 137.895, 127.862 137.842, 128.020 137.783, 128.193 137.772, 128.226 137.707, 128.417 137.384, 129.367 137.384, 129.368 137.270, 129.600 137.004, 130.139 136.981, 130.185 136.884, 130.382 136.869, 130.411 136.815, 130.521 136.680, 130.795 135.796, 132.117 134.747, 133.313 133.551, 134.362 132.229, 135.246 130.802, 135.949 129.296, 136.460 127.735, 136.770 " />
            <path fill="none" stroke-width="3.0" stroke-linecap="butt" stroke-opacity="1.0" stroke="rgb(0, 0, 0)" stroke-linejoin="round" d=" M 127.539, 135.363 126.135, 135.455 124.730, 135.363 123.350, 135.088 122.017, 134.636 120.755, 134.013 119.585, 133.232 118.527, 132.304 117.599, 131.245 116.817, 130.075 116.195, 128.813 115.859, 127.825 115.743, 127.481 115.502, 126.273 115.468, 126.100 115.450, 125.821 115.376, 124.696 115.450, 123.571 115.468, 123.292 115.502, 123.119 115.742, 121.912 115.859, 121.568 116.195, 120.579 116.817, 119.317 117.599, 118.146 118.527, 117.088 119.585, 116.160 120.755, 115.378 122.017, 114.756 123.350, 114.303 124.730, 114.028 126.135, 113.936 127.539, 114.028 128.920, 114.303 130.252, 114.755 131.515, 115.377 132.685, 116.159 133.743, 117.087 134.672, 118.146 135.454, 119.316 136.076, 120.578 136.207, 120.964 136.529, 121.911 136.564, 122.091 136.617, 122.356 136.803, 123.292 136.895, 124.696 136.803, 126.101 136.617, 127.037 136.564, 127.302 136.528, 127.481 136.207, 128.428 136.076, 128.814 135.453, 130.076 134.671, 131.246 133.743, 132.305 132.685, 133.232 131.514, 134.014 130.252, 134.637 128.919, 135.089 127.539, 135.363 " />
            <path fill="none" stroke-width="3.0" stroke-linecap="butt" stroke-opacity="1.0" stroke="rgb(0, 0, 0)" stroke-linejoin="round" d=" M 127.254, 133.327 126.115, 133.402 124.975, 133.327 123.855, 133.104 122.773, 132.737 121.749, 132.232 120.799, 131.597 119.941, 130.844 119.188, 129.985 118.553, 129.036 118.048, 128.011 117.681, 126.930 117.458, 125.810 117.383, 124.670 117.458, 123.530 117.681, 122.410 118.048, 121.328 118.553, 120.304 119.187, 119.354 119.940, 118.496 120.799, 117.742 121.749, 117.108 122.773, 116.602 123.855, 116.235 124.975, 116.012 126.115, 115.938 127.255, 116.012 128.375, 116.235 129.457, 116.602 130.481, 117.107 131.431, 117.742 132.290, 118.495 133.043, 119.354 133.678, 120.304 134.183, 121.328 134.550, 122.410 134.773, 123.530 134.848, 124.670 134.773, 125.810 134.550, 126.930 134.183, 128.012 133.677, 129.036 133.043, 129.986 132.289, 130.845 131.431, 131.598 130.481, 132.232 129.456, 132.737 128.375, 133.104 127.254, 133.327 " />
            <path fill="none" stroke-width="3.0" stroke-linecap="butt" stroke-opacity="1.0" stroke="rgb(0, 0, 0)" stroke-linejoin="round" d=" M 127.381, 134.232 126.124, 134.314 124.866, 134.231 123.631, 133.985 122.437, 133.580 121.308, 133.023 120.260, 132.323 119.313, 131.492 118.482, 130.545 117.782, 129.497 117.225, 128.367 116.820, 127.174 116.574, 125.939 116.492, 124.682 116.574, 123.424 116.820, 122.189 117.225, 120.996 117.782, 119.865 118.482, 118.818 119.312, 117.870 120.260, 117.040 121.307, 116.340 122.437, 115.782 123.630, 115.377 124.866, 115.131 126.124, 115.049 127.381, 115.131 128.617, 115.377 129.810, 115.782 130.940, 116.339 131.988, 117.039 132.936, 117.870 133.766, 118.817 134.466, 119.865 135.024, 120.995 135.429, 122.188 135.675, 123.424 135.757, 124.682 135.675, 125.939 135.429, 127.175 135.024, 128.368 134.466, 129.498 133.766, 130.546 132.935, 131.493 131.988, 132.324 130.940, 133.024 129.810, 133.581 128.617, 133.986 127.381, 134.232 " />
            <path fill="none" stroke-width="3.0" stroke-linecap="butt" stroke-opacity="1.0" stroke="rgb(0, 0, 0)" stroke-linejoin="round" d=" M 76.105, 147.794 76.103, 137.794 76.101, 127.794 76.099, 117.794 76.098, 107.794 76.097, 102.750 " />
            <path fill="none" stroke-width="3.0" stroke-linecap="butt" stroke-opacity="1.0" stroke="rgb(0, 0, 0)" stroke-linejoin="round" d=" M 77.256, 150.128 77.254, 140.128 77.252, 130.128 77.250, 120.128 77.249, 110.128 77.247, 100.415 " />
            <path fill="none" stroke-width="3.0" stroke-linecap="butt" stroke-opacity="1.0" stroke="rgb(0, 0, 0)" stroke-linejoin="round" d=" M 92.033, 130.416 92.032, 120.416 92.032, 119.599 " />
            <path fill="none" stroke-width="3.0" stroke-linecap="butt" stroke-opacity="1.0" stroke="rgb(0, 0, 0)" stroke-linejoin="round" d=" M 92.571, 133.118 92.570, 123.118 92.569, 116.897 " />
            <path fill="none" stroke-width="3.0" stroke-linecap="butt" stroke-opacity="1.0" stroke="rgb(0, 0, 0)" stroke-linejoin="round" d=" M 102.510, 133.379 102.509, 123.379 102.509, 116.389 " />
            <path fill="none" stroke-width="3.0" stroke-linecap="butt" stroke-opacity="1.0" stroke="rgb(0, 0, 0)" stroke-linejoin="round" d=" M 106.705, 128.478 106.704, 121.151 " />
            <path fill="none" stroke-width="3.0" stroke-linecap="butt" stroke-opacity="1.0" stroke="rgb(0, 0, 0)" stroke-linejoin="round" d=" M 142.426, 122.348 142.425, 127.192 " />
            <path fill="none" stroke-width="3.0" stroke-linecap="butt" stroke-opacity="1.0" stroke="rgb(0, 0, 0)" stroke-linejoin="round" d=" M 145.372, 119.419 145.371, 129.419 145.371, 130.210 " />
            <path fill="none" stroke-width="3.0" stroke-linecap="butt" stroke-opacity="1.0" stroke="rgb(0, 0, 0)" stroke-linejoin="round" d=" M 149.574, 115.040 149.573, 125.040 149.572, 134.728 " />
            <path fill="none" stroke-width="3.0" stroke-linecap="butt" stroke-opacity="1.0" stroke="rgb(0, 0, 0)" stroke-linejoin="round" d=" M 151.577, 124.914 151.577, 124.855 " />
            <path fill="none" stroke-width="3.0" stroke-linecap="butt" stroke-opacity="1.0" stroke="rgb(0, 0, 0)" stroke-linejoin="round" d=" M 159.526, 135.446 159.527, 125.446 159.529, 115.446 159.529, 114.569 " />
            <path fill="none" stroke-width="3.0" stroke-linecap="butt" stroke-opacity="1.0" stroke="rgb(0, 0, 0)" stroke-linejoin="round" d=" M 160.067, 116.268 160.066, 126.268 160.065, 133.747 " />
            <path fill="none" stroke-width="3.0" stroke-linecap="butt" stroke-opacity="1.0" stroke="rgb(0, 0, 0)" stroke-linejoin="round" d=" M 176.035, 100.591 176.033, 110.591 176.031, 120.591 176.029, 130.591 176.027, 140.591 176.026, 149.336 176.026, 149.953 " />
        </g>
    </g>
</svg>
