<?xml version='1.0' encoding='ascii'?>
<svg xmlns="http://www.w3.org/2000/svg" version="1.1" width="250" height="250">
    <g id="ViewLayer_LineSet" xmlns:inkscape="http://www.inkscape.org/namespaces/inkscape" inkscape:groupmode="lineset" inkscape:label="ViewLayer_LineSet">
        <g xmlns:inkscape="http://www.inkscape.org/namespaces/inkscape" inkscape:groupmode="layer" id="strokes" inkscape:label="strokes">
            <path fill="none" stroke-width="3.0" stroke-linecap="butt" stroke-opacity="1.0" stroke="rgb(0, 0, 0)" stroke-linejoin="round" d=" M 251.668, 142.499 249.711, 152.305 248.454, 158.601 245.232, 168.068 243.164, 174.144 239.802, 180.945 237.270, 186.069 235.890, 188.861 230.326, 197.170 226.757, 202.500 220.155, 210.012 215.922, 214.828 208.396, 221.413 203.572, 225.635 195.251, 231.181 189.918, 234.734 180.945, 239.147 175.196, 241.973 165.723, 245.176 159.658, 247.227 149.847, 249.167 143.568, 250.408 " />
            <path fill="none" stroke-width="3.0" stroke-linecap="butt" stroke-opacity="1.0" stroke="rgb(0, 0, 0)" stroke-linejoin="round" d=" M 110.844, 250.373 101.038, 248.413 94.769, 247.159 85.302, 243.937 79.251, 241.877 70.286, 237.447 64.557, 234.616 56.246, 229.055 50.936, 225.503 43.421, 218.906 38.621, 214.692 32.030, 207.171 27.821, 202.368 22.267, 194.052 18.721, 188.742 16.856, 184.961 14.373, 179.925 11.475, 174.046 8.259, 164.577 6.206, 158.530 4.253, 148.723 3.006, 142.460 2.348, 132.482 1.928, 126.110 2.577, 116.131 2.991, 109.757 4.936, 99.948 6.178, 93.681 9.385, 84.209 11.435, 78.157 15.850, 69.184 17.523, 65.783 18.672, 63.449 20.466, 60.758 26.014, 52.438 27.767, 49.809 34.353, 42.284 38.565, 37.471 46.076, 30.869 50.882, 26.645 59.191, 21.080 64.509, 17.518 73.473, 13.085 79.213, 10.246 88.678, 7.021 94.742, 4.955 104.548, 2.993 110.832, 1.736 120.809, 1.071 127.206, 0.645 137.186, 1.288 143.586, 1.701 153.395, 3.643 159.689, 4.888 169.161, 8.095 175.239, 10.152 184.211, 14.569 189.971, 17.403 198.289, 22.954 203.629, 26.517 211.151, 33.107 215.981, 37.339 222.577, 44.855 226.814, 49.682 232.371, 57.996 233.481, 59.656 235.941, 63.336 236.610, 64.692 241.033, 73.660 243.206, 78.065 246.419, 87.535 248.483, 93.617 250.432, 103.426 251.683, 109.726 " />
            <path fill="none" stroke-width="3.0" stroke-linecap="butt" stroke-opacity="1.0" stroke="rgb(0, 0, 0)" stroke-linejoin="round" d=" M 47.537, 167.986 48.647, 170.237 54.201, 178.553 55.183, 180.023 61.775, 187.543 62.940, 188.873 70.456, 195.469 71.786, 196.636 80.098, 202.195 81.569, 203.179 90.535, 207.607 92.122, 208.391 101.589, 211.611 103.266, 212.181 113.073, 214.139 114.810, 214.486 124.789, 215.147 126.558, 215.265 136.537, 214.618 138.308, 214.504 148.117, 212.561 149.859, 212.216 159.331, 209.010 161.014, 208.440 169.986, 204.025 171.582, 203.239 179.901, 197.691 181.381, 196.703 188.905, 190.116 190.245, 188.943 196.844, 181.430 198.020, 180.091 203.582, 171.780 204.573, 170.298 205.469, 168.484 " />
            <path fill="none" stroke-width="3.0" stroke-linecap="butt" stroke-opacity="1.0" stroke="rgb(0, 0, 0)" stroke-linejoin="round" d=" M 133.609, 178.810 126.558, 179.268 119.508, 178.803 112.580, 177.422 105.892, 175.149 99.557, 172.022 93.685, 168.097 88.376, 163.438 83.719, 158.127 79.796, 152.254 78.976, 150.591 78.464, 149.553 77.906, 148.420 77.370, 147.334 76.672, 145.919 74.402, 139.231 73.023, 132.304 72.956, 131.291 72.560, 125.256 72.954, 119.221 73.020, 118.208 74.396, 111.279 76.665, 104.590 77.362, 103.174 78.456, 100.955 79.298, 99.244 79.787, 98.253 80.569, 97.082 83.710, 92.377 88.365, 87.063 93.675, 82.402 99.549, 78.474 105.885, 75.345 112.575, 73.070 119.506, 71.688 126.559, 71.223 133.612, 71.682 140.545, 73.058 147.240, 75.328 153.581, 78.453 159.460, 82.379 164.777, 87.039 169.439, 92.354 172.288, 96.616 173.368, 98.232 173.639, 98.782 173.671, 98.846 174.766, 101.068 176.495, 104.573 178.767, 111.268 179.182, 113.356 180.146, 118.202 180.403, 122.146 180.607, 125.257 180.402, 128.368 180.143, 132.311 179.177, 137.157 178.761, 139.244 176.487, 145.938 175.048, 148.852 174.757, 149.441 174.039, 150.896 173.358, 152.276 169.428, 158.152 164.766, 163.464 159.449, 168.121 153.571, 172.044 147.232, 175.167 140.539, 177.435 133.609, 178.810 " />
            <path fill="none" stroke-width="3.0" stroke-linecap="butt" stroke-opacity="1.0" stroke="rgb(0, 0, 0)" stroke-linejoin="round" d=" M 203.123, 77.992 198.049, 70.401 191.454, 62.884 190.275, 61.541 182.755, 54.950 181.411, 53.773 173.094, 48.221 171.609, 47.229 162.637, 42.811 161.036, 42.022 151.565, 38.814 149.875, 38.241 140.066, 36.297 138.316, 35.951 128.337, 35.304 126.559, 35.189 116.581, 35.850 114.804, 35.968 104.998, 37.927 103.252, 38.276 93.786, 41.498 92.102, 42.071 83.137, 46.501 81.544, 47.289 73.234, 52.851 71.758, 53.839 64.245, 60.438 62.911, 61.609 56.324, 69.132 55.155, 70.467 49.803, 78.488 " />
            <path fill="none" stroke-width="3.0" stroke-linecap="butt" stroke-opacity="1.0" stroke="rgb(0, 0, 0)" stroke-linejoin="round" d=" M 233.481, 59.656 224.921, 64.826 216.361, 69.996 215.818, 70.324 215.817, 72.528 215.816, 75.949 215.812, 85.949 215.809, 95.949 215.806, 105.949 215.803, 113.013 215.800, 123.013 215.797, 133.013 215.795, 137.500 215.792, 147.500 215.788, 157.500 215.785, 167.500 215.785, 169.041 215.783, 172.171 215.783, 174.187 224.534, 179.026 233.285, 183.865 237.270, 186.069 " />
            <path fill="none" stroke-width="3.0" stroke-linecap="butt" stroke-opacity="1.0" stroke="rgb(0, 0, 0)" stroke-linejoin="round" d=" M 16.856, 184.961 25.606, 180.120 34.356, 175.278 36.466, 174.111 36.465, 172.098 36.464, 168.970 36.461, 158.970 36.458, 148.970 36.455, 138.970 36.451, 128.970 36.448, 118.970 36.445, 108.970 36.442, 98.970 36.438, 88.970 36.435, 78.970 36.434, 76.026 36.433, 72.608 36.432, 70.407 27.874, 65.235 20.466, 60.758 " />
            <path fill="none" stroke-width="3.0" stroke-linecap="butt" stroke-opacity="1.0" stroke="rgb(0, 0, 0)" stroke-linejoin="round" d=" M 36.465, 172.098 40.102, 172.099 47.537, 167.986 56.287, 163.145 59.237, 161.512 59.234, 151.512 59.232, 141.512 59.230, 131.512 59.227, 121.512 59.225, 111.512 59.222, 101.512 59.220, 91.512 59.218, 84.178 50.660, 79.006 49.803, 78.488 41.245, 73.316 40.071, 72.606 36.433, 72.608 " />
            <path fill="none" stroke-width="3.0" stroke-linecap="butt" stroke-opacity="1.0" stroke="rgb(0, 0, 0)" stroke-linejoin="round" d=" M 40.102, 172.099 40.099, 162.099 40.096, 152.099 40.095, 149.823 40.092, 139.823 40.089, 129.823 40.085, 119.823 40.082, 109.823 40.080, 100.684 40.076, 90.684 40.073, 80.684 40.071, 72.606 " />
            <path fill="none" stroke-width="3.0" stroke-linecap="butt" stroke-opacity="1.0" stroke="rgb(0, 0, 0)" stroke-linejoin="round" d=" M 215.817, 72.528 212.166, 72.530 203.606, 77.700 203.123, 77.992 194.563, 83.162 192.957, 84.132 192.954, 94.132 192.952, 104.132 192.949, 114.132 192.947, 124.132 192.944, 134.132 192.942, 144.132 192.939, 154.132 192.938, 161.555 201.689, 166.394 205.469, 168.484 212.134, 172.169 215.783, 172.171 " />
            <path fill="none" stroke-width="3.0" stroke-linecap="butt" stroke-opacity="1.0" stroke="rgb(0, 0, 0)" stroke-linejoin="round" d=" M 212.134, 172.169 212.137, 162.169 212.140, 152.828 212.143, 142.828 212.147, 132.828 212.150, 122.828 212.153, 112.828 212.156, 102.828 212.158, 97.680 212.161, 87.680 212.164, 77.680 212.166, 72.530 " />
            <path fill="none" stroke-width="3.0" stroke-linecap="butt" stroke-opacity="1.0" stroke="rgb(0, 0, 0)" stroke-linejoin="round" d=" M 130.814, 158.809 126.363, 159.099 121.912, 158.806 117.538, 157.935 113.315, 156.500 109.315, 154.527 105.607, 152.048 102.254, 149.107 99.314, 145.754 96.836, 142.045 96.315, 140.988 95.845, 140.036 95.643, 139.625 94.864, 138.046 94.814, 137.898 93.430, 133.823 93.046, 131.891 92.875, 131.030 92.560, 129.449 92.524, 128.895 92.268, 124.998 92.523, 121.102 92.559, 120.548 92.873, 118.966 93.045, 118.105 93.428, 116.173 94.811, 112.097 94.861, 111.950 96.312, 109.007 96.524, 108.575 96.833, 107.949 97.035, 107.647 99.310, 104.240 102.250, 100.885 105.603, 97.943 109.311, 95.464 113.312, 93.489 117.536, 92.054 121.911, 91.182 126.363, 90.889 130.816, 91.180 135.192, 92.049 139.418, 93.482 143.420, 95.455 147.131, 97.934 150.487, 100.876 153.429, 104.230 155.707, 107.638 155.780, 107.748 155.909, 107.941 156.080, 108.288 157.281, 110.723 157.883, 111.943 159.053, 115.390 159.222, 115.890 159.317, 116.169 159.575, 117.469 160.187, 120.546 160.479, 124.999 160.186, 129.451 159.573, 132.528 159.315, 133.828 159.220, 134.107 159.050, 134.606 157.879, 138.053 157.278, 139.272 156.972, 139.893 156.897, 140.044 156.422, 141.006 156.284, 141.286 155.905, 142.054 153.425, 145.764 150.482, 149.117 147.127, 152.058 143.416, 154.535 139.415, 156.507 135.190, 157.940 130.814, 158.809 " />
            <path fill="none" stroke-width="3.0" stroke-linecap="butt" stroke-opacity="1.0" stroke="rgb(0, 0, 0)" stroke-linejoin="round" d=" M 173.661, 150.895 173.663, 140.895 173.665, 130.895 173.667, 120.895 173.668, 110.895 173.670, 100.895 173.671, 98.846 " />
            <path fill="none" stroke-width="3.0" stroke-linecap="butt" stroke-opacity="1.0" stroke="rgb(0, 0, 0)" stroke-linejoin="round" d=" M 172.288, 96.616 167.144, 99.723 167.144, 101.743 167.144, 102.299 167.142, 112.299 167.142, 117.283 167.140, 127.283 167.139, 132.477 167.138, 142.477 167.137, 144.931 167.137, 145.439 167.137, 147.288 173.661, 150.895 174.039, 150.896 " />
            <path fill="none" stroke-width="3.0" stroke-linecap="butt" stroke-opacity="1.0" stroke="rgb(0, 0, 0)" stroke-linejoin="round" d=" M 78.976, 150.591 84.975, 147.272 84.974, 145.425 84.974, 144.915 84.973, 134.915 84.972, 129.774 84.971, 119.986 84.969, 109.986 84.968, 102.316 84.968, 101.759 84.968, 99.741 80.569, 97.082 " />
            <path fill="none" stroke-width="3.0" stroke-linecap="butt" stroke-opacity="1.0" stroke="rgb(0, 0, 0)" stroke-linejoin="round" d=" M 129.534, 149.648 126.274, 149.861 123.013, 149.646 119.809, 149.008 116.715, 147.957 113.785, 146.512 111.068, 144.696 108.612, 142.542 106.458, 140.085 104.643, 137.369 104.264, 136.599 103.965, 135.995 103.911, 135.884 103.826, 135.712 103.769, 135.595 103.198, 134.438 103.187, 134.406 102.964, 133.748 102.710, 133.001 102.148, 131.345 101.510, 128.140 101.296, 124.880 101.510, 121.620 102.147, 118.415 102.709, 116.759 102.962, 116.012 103.185, 115.354 103.197, 115.321 103.825, 114.047 104.415, 112.849 104.641, 112.391 104.780, 112.183 104.861, 112.062 105.003, 111.849 106.456, 109.674 108.610, 107.216 111.066, 105.061 113.783, 103.245 116.714, 101.799 119.808, 100.748 123.013, 100.110 126.274, 99.895 129.535, 100.108 132.741, 100.746 135.836, 101.796 138.768, 103.241 141.486, 105.056 143.943, 107.211 146.099, 109.669 147.416, 111.639 147.695, 112.057 147.776, 112.178 147.915, 112.386 148.040, 112.641 148.256, 113.077 148.894, 114.373 149.118, 114.825 149.360, 115.318 149.373, 115.355 150.411, 118.413 150.827, 120.505 151.049, 121.619 151.262, 124.880 151.048, 128.142 150.826, 129.256 150.410, 131.348 149.371, 134.405 149.359, 134.442 149.116, 134.935 148.892, 135.387 148.694, 135.790 148.645, 135.888 148.591, 135.999 148.254, 136.682 148.190, 136.811 147.913, 137.373 146.096, 140.091 143.941, 142.547 141.483, 144.702 138.766, 146.517 135.834, 147.961 132.740, 149.011 129.534, 149.648 " />
            <path fill="none" stroke-width="3.0" stroke-linecap="butt" stroke-opacity="1.0" stroke="rgb(0, 0, 0)" stroke-linejoin="round" d=" M 155.780, 107.748 155.780, 108.451 155.780, 110.499 155.779, 120.499 155.777, 130.499 155.776, 139.125 155.776, 139.300 155.776, 140.044 155.776, 141.006 156.284, 141.286 " />
            <path fill="none" stroke-width="3.0" stroke-linecap="butt" stroke-opacity="1.0" stroke="rgb(0, 0, 0)" stroke-linejoin="round" d=" M 128.316, 140.924 126.189, 141.063 124.062, 140.923 121.971, 140.507 119.953, 139.822 118.042, 138.879 116.270, 137.694 114.667, 136.289 113.262, 134.687 112.078, 132.915 111.831, 132.413 111.814, 132.379 111.693, 132.133 111.530, 131.802 111.418, 131.576 111.191, 131.116 111.136, 131.003 111.087, 130.859 110.751, 129.870 110.450, 128.985 110.303, 128.244 110.254, 127.998 110.035, 126.895 109.895, 124.768 110.034, 122.641 110.254, 121.538 110.303, 121.292 110.450, 120.551 110.750, 119.665 111.086, 118.677 111.135, 118.532 111.191, 118.419 111.417, 117.959 111.507, 117.777 111.890, 117.001 111.930, 116.920 112.043, 116.691 112.067, 116.642 112.077, 116.621 112.305, 116.281 113.261, 114.848 114.667, 113.246 116.269, 111.840 118.041, 110.655 119.953, 109.712 121.971, 109.027 124.062, 108.611 126.189, 108.471 128.316, 108.610 130.407, 109.026 132.426, 109.711 134.338, 110.654 136.111, 111.838 137.713, 113.243 139.119, 114.846 140.077, 116.279 140.180, 116.434 140.304, 116.619 140.314, 116.640 140.338, 116.689 140.386, 116.785 140.563, 117.144 140.652, 117.326 140.880, 117.788 140.985, 118.001 141.247, 118.531 141.320, 118.748 141.769, 120.071 141.817, 120.212 141.932, 120.550 142.322, 122.510 142.348, 122.641 142.487, 124.768 142.347, 126.895 142.321, 127.026 141.931, 128.986 141.817, 129.323 141.769, 129.465 141.319, 130.788 141.246, 131.005 140.984, 131.535 140.880, 131.747 140.812, 131.884 140.688, 132.135 140.567, 132.381 140.484, 132.550 140.303, 132.917 139.118, 134.689 137.712, 136.291 136.109, 137.697 134.337, 138.881 132.425, 139.823 130.406, 140.508 128.316, 140.924 " />
            <path fill="none" stroke-width="3.0" stroke-linecap="butt" stroke-opacity="1.0" stroke="rgb(0, 0, 0)" stroke-linejoin="round" d=" M 128.799, 144.383 126.222, 144.551 123.646, 144.382 121.114, 143.878 118.669, 143.047 116.354, 141.905 114.207, 140.471 112.267, 138.768 110.564, 136.827 109.130, 134.681 108.830, 134.073 108.817, 134.046 108.676, 133.760 108.579, 133.563 107.988, 132.365 107.867, 132.008 107.611, 131.252 107.159, 129.921 106.864, 128.441 106.825, 128.243 106.667, 127.452 106.655, 127.389 106.486, 124.812 106.654, 122.236 106.667, 122.173 106.824, 121.381 106.864, 121.183 107.158, 119.704 107.610, 118.372 107.866, 117.616 107.987, 117.259 108.482, 116.256 108.675, 115.864 108.816, 115.578 108.950, 115.306 109.076, 115.052 109.129, 114.944 109.279, 114.719 109.415, 114.516 110.563, 112.797 112.265, 110.855 114.206, 109.152 116.353, 107.717 118.668, 106.575 121.113, 105.745 123.646, 105.240 126.223, 105.071 128.800, 105.240 131.332, 105.743 133.778, 106.573 136.094, 107.715 138.242, 109.149 140.183, 110.852 141.886, 112.793 142.927, 114.351 143.171, 114.716 143.258, 114.846 143.321, 114.941 143.375, 115.049 143.399, 115.098 143.420, 115.142 143.591, 115.488 144.207, 116.738 144.463, 117.257 144.466, 117.263 145.212, 119.464 145.251, 119.577 145.294, 119.702 145.408, 120.280 145.797, 122.235 145.966, 124.813 145.797, 127.389 145.408, 129.345 145.293, 129.922 145.250, 130.048 145.212, 130.161 144.465, 132.361 144.462, 132.368 144.206, 132.887 143.871, 133.566 143.616, 134.083 143.578, 134.161 143.539, 134.239 143.320, 134.684 141.885, 136.830 140.182, 138.772 138.240, 140.474 136.093, 141.908 133.777, 143.050 131.331, 143.879 128.799, 144.383 " />
            <path fill="none" stroke-width="3.0" stroke-linecap="butt" stroke-opacity="1.0" stroke="rgb(0, 0, 0)" stroke-linejoin="round" d=" M 127.977, 138.502 126.165, 138.620 124.353, 138.501 122.572, 138.147 120.852, 137.563 119.224, 136.760 117.714, 135.751 116.349, 134.553 115.151, 133.188 114.142, 131.678 113.932, 131.250 113.882, 131.150 113.816, 131.016 113.799, 130.981 113.681, 130.741 113.558, 130.492 113.556, 130.488 113.339, 130.049 113.075, 129.271 113.014, 129.092 113.004, 129.060 112.934, 128.855 112.756, 128.330 112.476, 126.924 112.401, 126.549 112.336, 125.550 112.282, 124.737 112.336, 123.923 112.401, 122.925 112.476, 122.549 112.755, 121.143 112.933, 120.618 113.003, 120.413 113.014, 120.381 113.075, 120.202 113.339, 119.424 113.555, 118.985 113.557, 118.980 113.882, 118.323 114.139, 117.801 114.142, 117.795 114.312, 117.540 114.338, 117.501 114.343, 117.494 115.151, 116.285 116.348, 114.919 117.713, 113.722 119.223, 112.713 120.852, 111.909 122.572, 111.325 124.353, 110.971 126.165, 110.852 127.978, 110.970 129.759, 111.324 131.479, 111.908 133.108, 112.711 134.618, 113.720 135.984, 114.918 137.182, 116.283 137.914, 117.379 137.995, 117.500 138.020, 117.538 138.186, 117.787 138.191, 117.794 138.194, 117.800 138.510, 118.441 138.513, 118.447 138.994, 119.421 138.994, 119.423 139.055, 119.602 139.065, 119.631 139.136, 119.839 139.578, 121.143 139.593, 121.217 139.734, 121.927 139.933, 122.924 139.958, 123.308 140.051, 124.737 139.958, 126.165 139.932, 126.549 139.734, 127.546 139.593, 128.256 139.578, 128.331 139.135, 129.634 139.065, 129.842 139.055, 129.871 138.994, 130.050 138.993, 130.052 138.624, 130.799 138.534, 130.982 138.517, 131.017 138.513, 131.026 138.388, 131.279 138.190, 131.679 137.181, 133.189 135.983, 134.555 134.618, 135.752 133.107, 136.761 131.478, 137.564 129.759, 138.148 127.977, 138.502 " />
            <path fill="none" stroke-width="3.0" stroke-linecap="butt" stroke-opacity="1.0" stroke="rgb(0, 0, 0)" stroke-linejoin="round" d=" M 127.725, 136.697 126.148, 136.800 124.570, 136.697 123.019, 136.388 121.522, 135.880 120.104, 135.180 118.790, 134.302 117.601, 133.260 116.559, 132.071 115.681, 130.756 114.981, 129.338 114.852, 128.956 114.473, 127.841 114.419, 127.569 114.355, 127.247 114.165, 126.291 114.061, 124.713 114.165, 123.136 114.355, 122.180 114.419, 121.858 114.473, 121.585 114.851, 120.470 114.981, 120.088 115.680, 118.670 116.558, 117.355 117.601, 116.167 118.789, 115.124 120.104, 114.245 121.522, 113.546 123.019, 113.038 124.570, 112.729 126.148, 112.625 127.725, 112.729 129.276, 113.037 130.774, 113.545 132.192, 114.244 133.507, 115.123 134.696, 116.165 135.738, 117.354 136.617, 118.669 137.216, 119.884 137.316, 120.087 137.649, 121.067 137.713, 121.256 137.825, 121.585 138.133, 123.135 138.186, 123.947 138.236, 124.713 138.186, 125.480 138.133, 126.291 137.824, 127.842 137.713, 128.171 137.649, 128.359 137.316, 129.339 137.215, 129.543 136.616, 130.758 135.738, 132.072 134.695, 133.261 133.506, 134.303 132.191, 135.182 130.773, 135.881 129.276, 136.389 127.725, 136.697 " />
            <path fill="none" stroke-width="3.0" stroke-linecap="butt" stroke-opacity="1.0" stroke="rgb(0, 0, 0)" stroke-linejoin="round" d=" M 127.374, 134.186 126.123, 134.267 124.872, 134.185 123.642, 133.941 122.455, 133.537 121.330, 132.983 120.287, 132.286 119.345, 131.459 118.518, 130.517 117.821, 129.474 117.267, 128.349 116.864, 127.162 116.619, 125.932 116.537, 124.681 116.619, 123.430 116.864, 122.200 117.267, 121.012 117.821, 119.888 118.518, 118.845 119.344, 117.902 120.287, 117.075 121.330, 116.379 122.454, 115.824 123.642, 115.421 124.872, 115.176 126.123, 115.094 127.375, 115.176 128.605, 115.420 129.792, 115.823 130.917, 116.378 131.960, 117.075 132.903, 117.902 133.730, 118.844 134.426, 119.887 134.981, 121.012 135.384, 122.200 135.629, 123.430 135.711, 124.681 135.629, 125.932 135.384, 127.162 134.981, 128.350 134.426, 129.475 133.729, 130.517 132.902, 131.460 131.959, 132.287 130.917, 132.984 129.792, 133.538 128.604, 133.941 127.374, 134.186 " />
            <path fill="none" stroke-width="3.0" stroke-linecap="butt" stroke-opacity="1.0" stroke="rgb(0, 0, 0)" stroke-linejoin="round" d=" M 127.528, 135.287 126.134, 135.378 124.739, 135.287 123.369, 135.014 122.046, 134.565 120.792, 133.947 119.631, 133.170 118.580, 132.249 117.659, 131.198 116.883, 130.036 116.265, 128.783 115.815, 127.460 115.543, 126.089 115.451, 124.695 115.543, 123.301 115.815, 121.930 116.264, 120.607 116.882, 119.354 117.659, 118.192 118.580, 117.141 119.630, 116.220 120.792, 115.443 122.046, 114.825 123.369, 114.376 124.739, 114.103 126.134, 114.011 127.528, 114.103 128.899, 114.375 130.223, 114.824 131.476, 115.442 132.638, 116.219 133.689, 117.140 134.610, 118.191 135.387, 119.353 136.005, 120.606 136.454, 121.930 136.727, 123.301 136.818, 124.695 136.727, 126.090 136.454, 127.460 136.005, 128.784 135.387, 130.037 134.610, 131.199 133.688, 132.250 132.638, 133.171 131.476, 133.947 130.222, 134.565 128.899, 135.014 127.528, 135.287 " />
            <path fill="none" stroke-width="3.0" stroke-linecap="butt" stroke-opacity="1.0" stroke="rgb(0, 0, 0)" stroke-linejoin="round" d=" M 77.370, 147.334 77.368, 137.334 77.367, 127.334 77.365, 117.334 77.363, 107.334 77.362, 103.174 " />
            <path fill="none" stroke-width="3.0" stroke-linecap="butt" stroke-opacity="1.0" stroke="rgb(0, 0, 0)" stroke-linejoin="round" d=" M 78.464, 149.553 78.462, 139.553 78.460, 129.553 78.459, 119.553 78.457, 109.553 78.456, 100.955 " />
            <path fill="none" stroke-width="3.0" stroke-linecap="butt" stroke-opacity="1.0" stroke="rgb(0, 0, 0)" stroke-linejoin="round" d=" M 92.524, 128.895 92.523, 121.102 " />
            <path fill="none" stroke-width="3.0" stroke-linecap="butt" stroke-opacity="1.0" stroke="rgb(0, 0, 0)" stroke-linejoin="round" d=" M 93.046, 131.891 93.045, 121.891 93.045, 118.105 " />
            <path fill="none" stroke-width="3.0" stroke-linecap="butt" stroke-opacity="1.0" stroke="rgb(0, 0, 0)" stroke-linejoin="round" d=" M 96.315, 140.988 96.315, 140.036 96.315, 139.292 96.315, 138.369 96.314, 128.369 96.312, 118.369 96.312, 111.254 96.312, 109.007 " />
            <path fill="none" stroke-width="3.0" stroke-linecap="butt" stroke-opacity="1.0" stroke="rgb(0, 0, 0)" stroke-linejoin="round" d=" M 102.710, 133.001 102.709, 123.001 102.709, 116.759 " />
            <path fill="none" stroke-width="3.0" stroke-linecap="butt" stroke-opacity="1.0" stroke="rgb(0, 0, 0)" stroke-linejoin="round" d=" M 106.864, 128.441 106.864, 121.183 " />
            <path fill="none" stroke-width="3.0" stroke-linecap="butt" stroke-opacity="1.0" stroke="rgb(0, 0, 0)" stroke-linejoin="round" d=" M 142.322, 122.510 142.321, 127.026 " />
            <path fill="none" stroke-width="3.0" stroke-linecap="butt" stroke-opacity="1.0" stroke="rgb(0, 0, 0)" stroke-linejoin="round" d=" M 145.212, 119.464 145.212, 129.464 145.212, 130.161 " />
            <path fill="none" stroke-width="3.0" stroke-linecap="butt" stroke-opacity="1.0" stroke="rgb(0, 0, 0)" stroke-linejoin="round" d=" M 149.373, 115.355 149.372, 125.355 149.371, 134.405 " />
            <path fill="none" stroke-width="3.0" stroke-linecap="butt" stroke-opacity="1.0" stroke="rgb(0, 0, 0)" stroke-linejoin="round" d=" M 159.050, 134.606 159.051, 126.040 159.052, 123.585 159.053, 115.390 " />
            <path fill="none" stroke-width="3.0" stroke-linecap="butt" stroke-opacity="1.0" stroke="rgb(0, 0, 0)" stroke-linejoin="round" d=" M 159.575, 117.469 159.574, 127.469 159.573, 132.528 " />
            <path fill="none" stroke-width="3.0" stroke-linecap="butt" stroke-opacity="1.0" stroke="rgb(0, 0, 0)" stroke-linejoin="round" d=" M 174.766, 101.068 174.764, 111.068 174.763, 121.068 174.761, 131.068 174.759, 141.068 174.758, 148.708 174.757, 149.441 " />
        </g>
    </g>
</svg>
