<?xml version='1.0' encoding='ascii'?>
<svg xmlns="http://www.w3.org/2000/svg" version="1.1" width="250" height="250">
    <g id="ViewLayer_LineSet" xmlns:inkscape="http://www.inkscape.org/namespaces/inkscape" inkscape:groupmode="lineset" inkscape:label="ViewLayer_LineSet">
        <g xmlns:inkscape="http://www.inkscape.org/namespaces/inkscape" inkscape:groupmode="layer" id="strokes" inkscape:label="strokes">
            <path fill="none" stroke-width="3.0" stroke-linecap="butt" stroke-opacity="1.0" stroke="rgb(0, 0, 0)" stroke-linejoin="round" d=" M 219.960, 70.229 215.972, 70.231 207.412, 75.401 205.557, 76.521 196.998, 81.692 195.232, 82.758 195.229, 92.758 195.227, 102.758 195.224, 112.758 195.222, 122.758 195.219, 132.758 195.217, 142.758 195.214, 152.758 195.211, 162.812 203.963, 167.651 207.992, 169.879 215.937, 174.272 219.923, 174.274 " />
            <path fill="none" stroke-width="3.0" stroke-linecap="butt" stroke-opacity="1.0" stroke="rgb(0, 0, 0)" stroke-linejoin="round" d=" M 215.937, 174.272 215.940, 164.272 215.943, 154.272 215.945, 150.577 215.948, 140.577 215.951, 130.577 215.955, 120.577 215.958, 110.577 215.961, 100.577 215.962, 100.016 215.965, 90.016 215.968, 80.016 215.972, 70.231 " />
            <path fill="none" stroke-width="3.0" stroke-linecap="butt" stroke-opacity="1.0" stroke="rgb(0, 0, 0)" stroke-linejoin="round" d=" M 32.341, 174.194 36.313, 174.196 45.063, 169.355 53.813, 164.513 56.970, 162.767 56.967, 152.767 56.965, 142.767 56.962, 132.767 56.960, 122.767 56.957, 112.767 56.955, 102.767 56.952, 92.767 56.950, 82.807 48.391, 77.635 47.400, 77.036 38.841, 71.863 36.279, 70.314 32.306, 70.316 " />
            <path fill="none" stroke-width="3.0" stroke-linecap="butt" stroke-opacity="1.0" stroke="rgb(0, 0, 0)" stroke-linejoin="round" d=" M 36.313, 174.196 36.309, 164.196 36.306, 154.196 36.304, 146.115 36.300, 136.115 36.297, 126.115 36.294, 116.115 36.291, 106.115 36.290, 104.438 36.287, 94.438 36.283, 84.438 36.280, 74.438 36.279, 70.314 " />
            <path fill="none" stroke-width="3.0" stroke-linecap="butt" stroke-opacity="1.0" stroke="rgb(0, 0, 0)" stroke-linejoin="round" d=" M -10.215, 199.939 -1.465, 195.098 7.285, 190.256 16.035, 185.415 24.785, 180.574 32.342, 176.393 32.341, 174.194 32.340, 171.016 32.337, 161.016 32.333, 151.016 32.330, 141.016 32.326, 131.016 32.323, 121.016 32.320, 111.016 32.316, 101.016 32.313, 91.016 32.309, 81.016 32.307, 73.791 32.306, 70.316 32.305, 67.913 23.747, 62.740 15.188, 57.568 6.630, 52.395 -1.929, 47.223 -10.293, 42.168 " />
            <path fill="none" stroke-width="3.0" stroke-linecap="butt" stroke-opacity="1.0" stroke="rgb(0, 0, 0)" stroke-linejoin="round" d=" M 262.752, 41.976 254.192, 47.146 245.633, 52.316 237.073, 57.486 228.513, 62.656 219.960, 67.822 219.960, 70.229 219.958, 73.707 219.955, 83.707 219.951, 93.707 219.948, 103.707 219.944, 113.707 219.941, 123.707 219.937, 133.707 219.934, 143.707 219.930, 153.707 219.927, 163.707 219.924, 171.093 219.923, 174.274 219.922, 176.476 228.674, 181.315 237.425, 186.154 246.176, 190.993 254.927, 195.832 262.672, 200.115 " />
            <path fill="none" stroke-width="3.0" stroke-linecap="butt" stroke-opacity="1.0" stroke="rgb(0, 0, 0)" stroke-linejoin="round" d=" M 45.063, 169.355 46.208, 171.677 51.762, 179.993 52.950, 181.771 59.542, 189.292 60.952, 190.900 60.970, 190.917 68.486, 197.513 70.093, 198.924 78.406, 204.484 80.184, 205.674 89.150, 210.101 91.070, 211.049 100.537, 214.270 102.565, 214.960 112.371, 216.917 114.472, 217.337 124.450, 217.999 126.589, 218.141 136.569, 217.495 138.709, 217.356 148.519, 215.414 150.624, 214.997 160.096, 211.790 162.131, 211.102 171.103, 206.687 173.032, 205.738 181.351, 200.189 183.140, 198.996 190.664, 192.409 192.283, 190.992 198.883, 183.478 200.303, 181.861 205.865, 173.550 207.063, 171.760 207.992, 169.879 " />
            <path fill="none" stroke-width="3.0" stroke-linecap="butt" stroke-opacity="1.0" stroke="rgb(0, 0, 0)" stroke-linejoin="round" d=" M 133.848, 180.521 126.575, 180.994 119.303, 180.514 112.156, 179.089 105.257, 176.744 98.723, 173.519 92.665, 169.469 87.188, 164.664 82.385, 159.186 78.338, 153.127 77.492, 151.412 77.015, 150.444 76.388, 149.173 75.852, 148.086 75.116, 146.593 72.774, 139.694 71.352, 132.548 71.340, 132.366 70.874, 125.278 71.337, 118.190 71.349, 118.007 72.768, 110.861 75.108, 103.960 75.844, 102.466 77.006, 100.108 77.825, 98.446 78.329, 97.423 79.135, 96.215 82.375, 91.362 87.178, 85.881 92.655, 81.073 98.713, 77.020 105.249, 73.793 112.151, 71.446 119.301, 70.020 126.575, 69.540 133.851, 70.014 141.003, 71.433 147.909, 73.774 154.451, 76.998 160.516, 81.047 166.000, 85.855 170.809, 91.337 173.748, 95.735 174.862, 97.401 175.123, 97.932 175.142, 97.969 176.288, 100.293 178.088, 103.942 180.432, 110.848 180.803, 112.717 181.854, 118.001 182.101, 121.785 182.329, 125.279 182.099, 128.773 181.851, 132.556 180.798, 137.839 180.426, 139.708 178.079, 146.612 176.595, 149.618 176.278, 150.260 175.568, 151.699 174.851, 153.151 170.798, 159.212 165.988, 164.691 160.504, 169.496 154.440, 173.543 147.901, 176.763 140.997, 179.103 133.848, 180.521 " />
            <path fill="none" stroke-width="3.0" stroke-linecap="butt" stroke-opacity="1.0" stroke="rgb(0, 0, 0)" stroke-linejoin="round" d=" M 205.557, 76.521 200.323, 68.691 193.728, 61.174 192.304, 59.551 184.783, 52.961 183.160, 51.538 174.842, 45.986 173.048, 44.788 164.076, 40.370 162.141, 39.417 152.670, 36.209 150.627, 35.517 140.818, 33.573 138.704, 33.154 128.725, 32.508 126.576, 32.368 116.598, 33.030 114.450, 33.173 104.643, 35.132 102.534, 35.553 93.067, 38.776 91.032, 39.469 82.067, 43.899 80.141, 44.851 71.831, 50.414 70.046, 51.608 62.533, 58.208 60.921, 59.624 54.333, 67.147 52.920, 68.761 47.400, 77.036 " />
            <path fill="none" stroke-width="3.0" stroke-linecap="butt" stroke-opacity="1.0" stroke="rgb(0, 0, 0)" stroke-linejoin="round" d=" M 130.934, 159.666 126.371, 159.964 121.809, 159.663 117.325, 158.770 112.996, 157.299 108.897, 155.277 105.096, 152.736 101.659, 149.721 98.646, 146.284 96.106, 142.483 95.575, 141.407 95.504, 141.261 95.000, 140.240 94.883, 140.002 94.402, 139.027 94.084, 138.383 92.615, 134.054 92.458, 133.266 92.343, 132.689 91.917, 130.545 91.723, 129.571 91.423, 125.009 91.722, 120.448 91.915, 119.473 92.341, 117.330 92.456, 116.753 92.613, 115.964 94.081, 111.634 94.399, 110.990 95.786, 108.175 95.835, 108.077 96.102, 107.534 96.176, 107.423 98.641, 103.731 101.655, 100.293 105.092, 97.277 108.893, 94.736 112.994, 92.712 117.323, 91.241 121.808, 90.347 126.372, 90.046 130.936, 90.344 135.422, 91.235 139.753, 92.705 143.856, 94.727 147.659, 97.267 151.099, 100.283 154.115, 103.722 156.258, 106.928 156.583, 107.415 156.657, 107.525 156.832, 107.881 157.694, 109.628 158.680, 111.627 159.642, 114.462 159.755, 114.795 160.150, 115.959 160.184, 116.129 161.042, 120.445 161.341, 125.010 161.041, 129.574 160.182, 133.890 160.148, 134.060 159.752, 135.224 159.639, 135.556 158.677, 138.391 157.256, 141.270 157.041, 141.705 156.653, 142.492 154.111, 146.294 151.094, 149.732 147.655, 152.746 143.852, 155.286 139.750, 157.307 135.419, 158.775 130.934, 159.666 " />
            <path fill="none" stroke-width="3.0" stroke-linecap="butt" stroke-opacity="1.0" stroke="rgb(0, 0, 0)" stroke-linejoin="round" d=" M 77.492, 151.412 83.900, 147.867 83.899, 145.851 83.899, 145.448 83.898, 135.448 83.896, 125.448 83.895, 115.448 83.893, 105.448 83.893, 101.733 83.893, 101.293 83.892, 99.091 79.135, 96.215 " />
            <path fill="none" stroke-width="3.0" stroke-linecap="butt" stroke-opacity="1.0" stroke="rgb(0, 0, 0)" stroke-linejoin="round" d=" M 175.114, 151.699 175.115, 141.699 175.117, 131.699 175.119, 121.699 175.121, 111.699 175.123, 101.699 175.123, 97.932 " />
            <path fill="none" stroke-width="3.0" stroke-linecap="butt" stroke-opacity="1.0" stroke="rgb(0, 0, 0)" stroke-linejoin="round" d=" M 173.748, 95.735 168.222, 99.072 168.222, 101.276 168.221, 101.715 168.220, 111.715 168.219, 119.399 168.217, 129.399 168.217, 130.372 168.215, 140.372 168.214, 145.465 168.214, 145.867 168.214, 147.883 175.114, 151.699 175.568, 151.699 " />
            <path fill="none" stroke-width="3.0" stroke-linecap="butt" stroke-opacity="1.0" stroke="rgb(0, 0, 0)" stroke-linejoin="round" d=" M 129.589, 150.037 126.278, 150.254 122.966, 150.036 119.712, 149.388 116.570, 148.321 113.595, 146.853 110.836, 145.009 108.342, 142.821 106.154, 140.326 104.311, 137.568 103.926, 136.786 103.598, 136.122 103.561, 136.047 103.542, 136.008 103.423, 135.767 102.936, 134.779 102.844, 134.592 102.708, 134.191 102.454, 133.444 101.777, 131.450 101.130, 128.196 100.960, 125.607 100.912, 124.885 100.960, 124.163 101.129, 121.574 101.776, 118.320 102.453, 116.326 102.706, 115.579 102.842, 115.178 102.934, 114.991 103.560, 113.723 104.080, 112.668 104.309, 112.202 104.413, 112.047 104.495, 111.923 104.676, 111.652 106.152, 109.442 108.340, 106.947 110.834, 104.759 113.593, 102.914 116.569, 101.446 119.711, 100.378 122.966, 99.730 126.278, 99.512 129.590, 99.729 132.845, 100.376 135.988, 101.442 138.966, 102.910 141.726, 104.753 144.222, 106.942 146.410, 109.437 147.748, 111.439 148.068, 111.919 148.151, 112.042 148.255, 112.197 148.382, 112.456 148.521, 112.738 149.146, 114.004 149.374, 114.467 149.629, 114.985 149.723, 115.174 150.790, 118.318 151.123, 119.995 151.437, 121.573 151.643, 124.713 151.654, 124.885 151.643, 125.058 151.436, 128.198 151.122, 129.776 150.788, 131.453 149.721, 134.596 149.628, 134.785 149.372, 135.303 149.144, 135.766 149.046, 135.964 149.022, 136.013 148.966, 136.126 148.538, 136.993 148.252, 137.572 146.408, 140.332 144.219, 142.827 141.723, 145.014 138.963, 146.858 135.987, 148.325 132.844, 149.391 129.589, 150.037 " />
            <path fill="none" stroke-width="3.0" stroke-linecap="butt" stroke-opacity="1.0" stroke="rgb(0, 0, 0)" stroke-linejoin="round" d=" M 156.258, 106.928 156.258, 107.415 156.258, 108.192 156.257, 110.671 156.256, 120.671 156.255, 130.671 156.254, 138.958 156.254, 139.537 156.254, 140.248 156.254, 141.270 157.041, 141.705 " />
            <path fill="none" stroke-width="3.0" stroke-linecap="butt" stroke-opacity="1.0" stroke="rgb(0, 0, 0)" stroke-linejoin="round" d=" M 95.575, 141.407 95.838, 141.261 95.838, 140.240 95.838, 139.528 95.838, 138.195 95.837, 128.195 95.836, 118.195 95.835, 111.434 95.835, 108.202 95.835, 108.077 " />
            <path fill="none" stroke-width="3.0" stroke-linecap="butt" stroke-opacity="1.0" stroke="rgb(0, 0, 0)" stroke-linejoin="round" d=" M 128.829, 144.595 126.225, 144.765 123.621, 144.594 121.061, 144.084 118.591, 143.245 116.250, 142.091 114.081, 140.641 112.119, 138.920 110.399, 136.958 108.949, 134.789 108.640, 134.161 108.528, 133.934 108.381, 133.635 107.795, 132.449 107.721, 132.231 107.443, 131.410 106.957, 129.978 106.667, 128.522 106.662, 128.495 106.502, 127.690 106.448, 127.419 106.277, 124.815 106.447, 122.211 106.501, 121.940 106.661, 121.135 106.667, 121.108 106.956, 119.652 107.442, 118.219 107.721, 117.399 107.794, 117.181 108.334, 116.086 108.527, 115.696 108.670, 115.405 108.768, 115.207 108.884, 114.972 108.948, 114.841 109.083, 114.639 109.237, 114.408 110.398, 112.671 112.118, 110.709 114.080, 108.988 116.249, 107.537 118.590, 106.383 121.061, 105.543 123.620, 105.034 126.225, 104.863 128.829, 105.033 131.389, 105.542 133.861, 106.380 136.202, 107.534 138.372, 108.984 140.335, 110.705 142.056, 112.668 143.108, 114.241 143.372, 114.637 143.404, 114.685 143.506, 114.838 143.548, 114.922 143.571, 114.969 143.606, 115.041 143.739, 115.310 144.354, 116.556 144.633, 117.124 144.661, 117.179 145.410, 119.386 145.414, 119.399 145.500, 119.651 145.574, 120.026 146.009, 122.211 146.179, 124.815 146.008, 127.420 145.574, 129.604 145.499, 129.980 145.413, 130.232 145.409, 130.244 144.660, 132.451 144.632, 132.506 144.352, 133.074 144.074, 133.638 143.815, 134.164 143.776, 134.243 143.726, 134.343 143.505, 134.792 142.054, 136.962 140.333, 138.924 138.371, 140.644 136.200, 142.094 133.860, 143.248 131.388, 144.086 128.829, 144.595 " />
            <path fill="none" stroke-width="3.0" stroke-linecap="butt" stroke-opacity="1.0" stroke="rgb(0, 0, 0)" stroke-linejoin="round" d=" M 127.993, 138.612 126.166, 138.731 124.340, 138.611 122.545, 138.254 120.811, 137.665 119.170, 136.856 117.648, 135.839 116.272, 134.632 115.065, 133.256 114.049, 131.734 113.836, 131.303 113.803, 131.237 113.714, 131.056 113.697, 131.020 113.577, 130.778 113.483, 130.588 113.450, 130.519 113.239, 130.093 112.995, 129.372 112.922, 129.159 112.899, 129.090 112.817, 128.848 112.651, 128.359 112.388, 127.038 112.294, 126.564 112.208, 125.255 112.174, 124.738 112.208, 124.221 112.294, 122.912 112.388, 122.438 112.651, 121.117 112.817, 120.627 112.899, 120.386 112.922, 120.317 112.994, 120.104 113.239, 119.383 113.449, 118.957 113.483, 118.888 113.780, 118.286 113.803, 118.239 113.921, 117.999 113.959, 117.922 114.039, 117.761 114.048, 117.742 114.212, 117.496 114.238, 117.457 114.251, 117.438 115.065, 116.220 116.272, 114.843 117.648, 113.636 119.169, 112.619 120.811, 111.809 122.544, 111.221 124.340, 110.863 126.166, 110.743 127.993, 110.863 129.789, 111.220 131.522, 111.808 133.164, 112.618 134.686, 113.635 136.063, 114.842 137.270, 116.218 138.007, 117.322 138.097, 117.456 138.123, 117.495 138.266, 117.708 138.287, 117.740 138.296, 117.760 138.585, 118.344 138.620, 118.415 139.074, 119.336 139.097, 119.382 139.146, 119.529 139.171, 119.600 139.253, 119.842 139.681, 121.104 139.685, 121.116 139.862, 122.006 140.042, 122.911 140.076, 123.428 140.162, 124.738 140.076, 126.048 140.042, 126.565 139.862, 127.470 139.685, 128.360 139.681, 128.372 139.252, 129.634 139.170, 129.876 139.146, 129.947 139.096, 130.094 139.073, 130.140 138.724, 130.849 138.638, 131.022 138.621, 131.058 138.619, 131.061 138.490, 131.323 138.286, 131.736 137.269, 133.258 136.062, 134.634 134.685, 135.840 133.163, 136.857 131.521, 137.667 129.788, 138.255 127.993, 138.612 " />
            <path fill="none" stroke-width="3.0" stroke-linecap="butt" stroke-opacity="1.0" stroke="rgb(0, 0, 0)" stroke-linejoin="round" d=" M 128.339, 141.088 126.190, 141.229 124.042, 141.088 121.931, 140.668 119.892, 139.975 117.961, 139.023 116.171, 137.827 114.553, 136.407 113.134, 134.789 111.938, 132.999 111.688, 132.492 111.661, 132.439 111.546, 132.204 111.380, 131.867 111.288, 131.681 111.073, 131.246 110.986, 131.068 110.967, 131.013 110.608, 129.957 110.294, 129.029 110.171, 128.411 110.135, 128.231 109.874, 126.918 109.733, 124.770 109.873, 122.622 110.134, 121.309 110.170, 121.129 110.293, 120.510 110.608, 119.583 110.966, 118.526 110.985, 118.472 111.073, 118.293 111.287, 117.859 111.378, 117.673 111.783, 116.853 111.788, 116.843 111.897, 116.621 111.922, 116.571 111.937, 116.541 112.162, 116.203 113.133, 114.750 114.552, 113.132 116.171, 111.712 117.961, 110.515 119.891, 109.563 121.930, 108.870 124.042, 108.450 126.191, 108.309 128.339, 108.450 130.451, 108.869 132.490, 109.561 134.422, 110.513 136.212, 111.710 137.831, 113.129 139.251, 114.748 140.222, 116.201 140.287, 116.299 140.448, 116.539 140.463, 116.570 140.487, 116.619 140.530, 116.706 140.692, 117.034 140.783, 117.219 140.998, 117.656 141.105, 117.872 141.400, 118.470 141.463, 118.656 141.902, 119.950 141.937, 120.052 142.092, 120.509 142.453, 122.322 142.512, 122.621 142.653, 124.770 142.512, 126.919 142.452, 127.218 142.092, 129.031 141.936, 129.488 141.902, 129.590 141.462, 130.884 141.399, 131.070 141.104, 131.668 140.998, 131.884 140.961, 131.957 140.839, 132.206 140.723, 132.441 140.629, 132.630 140.447, 133.001 139.250, 134.791 137.830, 136.410 136.211, 137.829 134.421, 139.025 132.489, 139.977 130.450, 140.669 128.339, 141.088 " />
            <path fill="none" stroke-width="3.0" stroke-linecap="butt" stroke-opacity="1.0" stroke="rgb(0, 0, 0)" stroke-linejoin="round" d=" M 127.738, 136.788 126.148, 136.892 124.559, 136.787 122.997, 136.476 121.489, 135.964 120.060, 135.260 118.736, 134.375 117.538, 133.324 116.488, 132.127 115.604, 130.803 115.419, 130.428 115.413, 130.416 115.399, 130.387 115.301, 130.189 115.051, 129.682 114.899, 129.374 114.785, 129.038 114.671, 128.701 114.387, 127.866 114.347, 127.664 114.282, 127.338 114.271, 127.285 114.213, 126.989 114.076, 126.304 113.972, 124.714 114.076, 123.125 114.212, 122.440 114.271, 122.144 114.282, 122.091 114.347, 121.765 114.387, 121.563 114.670, 120.728 114.785, 120.391 114.899, 120.055 115.051, 119.747 115.438, 118.960 115.491, 118.854 115.603, 118.626 115.751, 118.404 115.779, 118.362 116.488, 117.302 117.538, 116.104 118.735, 115.054 120.060, 114.169 121.488, 113.464 122.997, 112.952 124.559, 112.641 126.149, 112.536 127.738, 112.640 129.301, 112.951 130.809, 113.463 132.238, 114.168 133.563, 115.052 134.760, 116.103 135.811, 117.301 136.453, 118.261 136.547, 118.403 136.576, 118.445 136.628, 118.524 136.696, 118.625 137.016, 119.275 137.283, 119.815 137.396, 120.046 137.400, 120.054 137.721, 120.999 137.786, 121.190 137.796, 121.219 137.855, 121.392 137.912, 121.562 138.223, 123.125 138.265, 123.765 138.288, 124.106 138.327, 124.715 138.287, 125.323 138.265, 125.664 138.223, 126.304 137.912, 127.867 137.854, 128.037 137.796, 128.210 137.786, 128.239 137.721, 128.430 137.400, 129.375 137.396, 129.383 137.282, 129.614 137.016, 130.154 136.998, 130.190 136.900, 130.388 136.886, 130.418 136.831, 130.530 136.695, 130.804 135.810, 132.128 134.760, 133.326 133.562, 134.376 132.237, 135.261 130.809, 135.965 129.300, 136.477 127.738, 136.788 " />
            <path fill="none" stroke-width="3.0" stroke-linecap="butt" stroke-opacity="1.0" stroke="rgb(0, 0, 0)" stroke-linejoin="round" d=" M 127.541, 135.377 126.135, 135.469 124.729, 135.377 123.347, 135.102 122.012, 134.649 120.749, 134.025 119.577, 133.242 118.518, 132.313 117.589, 131.254 116.806, 130.082 116.183, 128.819 115.849, 127.835 115.730, 127.484 115.491, 126.285 115.455, 126.102 115.439, 125.853 115.363, 124.696 115.438, 123.540 115.455, 123.290 115.491, 123.107 115.730, 121.908 115.849, 121.557 116.182, 120.574 116.806, 119.310 117.588, 118.138 118.517, 117.079 119.577, 116.150 120.748, 115.367 122.012, 114.743 123.346, 114.290 124.729, 114.015 126.135, 113.923 127.541, 114.015 128.923, 114.290 130.258, 114.743 131.522, 115.366 132.694, 116.149 133.753, 117.078 134.682, 118.138 135.465, 119.309 136.089, 120.573 136.218, 120.953 136.542, 121.908 136.576, 122.078 136.628, 122.343 136.817, 123.290 136.909, 124.696 136.816, 126.103 136.628, 127.050 136.575, 127.315 136.541, 127.485 136.217, 128.440 136.088, 128.819 135.465, 130.083 134.682, 131.255 133.753, 132.314 132.693, 133.243 131.521, 134.026 130.257, 134.649 128.923, 135.102 127.541, 135.377 " />
            <path fill="none" stroke-width="3.0" stroke-linecap="butt" stroke-opacity="1.0" stroke="rgb(0, 0, 0)" stroke-linejoin="round" d=" M 127.256, 133.336 126.115, 133.411 124.974, 133.336 123.853, 133.113 122.770, 132.745 121.745, 132.239 120.794, 131.604 119.934, 130.850 119.181, 129.991 118.546, 129.040 118.040, 128.015 117.672, 126.932 117.449, 125.811 117.374, 124.670 117.449, 123.529 117.672, 122.408 118.040, 121.325 118.545, 120.300 119.180, 119.349 119.934, 118.489 120.794, 117.736 121.744, 117.100 122.770, 116.594 123.853, 116.227 124.974, 116.004 126.115, 115.929 127.256, 116.004 128.377, 116.227 129.460, 116.594 130.486, 117.100 131.436, 117.735 132.296, 118.489 133.050, 119.348 133.685, 120.299 134.191, 121.325 134.559, 122.408 134.782, 123.529 134.856, 124.670 134.782, 125.811 134.558, 126.932 134.191, 128.015 133.685, 129.041 133.050, 129.991 132.296, 130.851 131.436, 131.605 130.485, 132.240 129.460, 132.746 128.377, 133.113 127.256, 133.336 " />
            <path fill="none" stroke-width="3.0" stroke-linecap="butt" stroke-opacity="1.0" stroke="rgb(0, 0, 0)" stroke-linejoin="round" d=" M 127.382, 134.242 126.124, 134.325 124.865, 134.242 123.628, 133.996 122.433, 133.590 121.302, 133.033 120.254, 132.332 119.305, 131.500 118.474, 130.552 117.773, 129.503 117.215, 128.372 116.810, 127.177 116.564, 125.940 116.481, 124.682 116.563, 123.423 116.809, 122.186 117.215, 120.992 117.773, 119.860 118.473, 118.811 119.305, 117.863 120.253, 117.031 121.302, 116.330 122.433, 115.772 123.628, 115.367 124.865, 115.121 126.124, 115.038 127.382, 115.120 128.620, 115.366 129.814, 115.772 130.946, 116.330 131.995, 117.030 132.943, 117.862 133.775, 118.811 134.476, 119.860 135.034, 120.991 135.439, 122.186 135.685, 123.423 135.768, 124.682 135.685, 125.941 135.439, 127.178 135.034, 128.372 134.476, 129.504 133.775, 130.553 132.943, 131.501 131.994, 132.333 130.945, 133.033 129.814, 133.591 128.619, 133.996 127.382, 134.242 " />
            <path fill="none" stroke-width="3.0" stroke-linecap="butt" stroke-opacity="1.0" stroke="rgb(0, 0, 0)" stroke-linejoin="round" d=" M 75.852, 148.086 75.851, 138.086 75.849, 128.086 75.847, 118.086 75.845, 108.086 75.844, 102.466 " />
            <path fill="none" stroke-width="3.0" stroke-linecap="butt" stroke-opacity="1.0" stroke="rgb(0, 0, 0)" stroke-linejoin="round" d=" M 77.015, 150.444 77.013, 140.444 77.011, 130.444 77.010, 120.444 77.008, 110.444 77.006, 100.108 " />
            <path fill="none" stroke-width="3.0" stroke-linecap="butt" stroke-opacity="1.0" stroke="rgb(0, 0, 0)" stroke-linejoin="round" d=" M 91.917, 130.545 91.915, 120.545 91.915, 119.473 " />
            <path fill="none" stroke-width="3.0" stroke-linecap="butt" stroke-opacity="1.0" stroke="rgb(0, 0, 0)" stroke-linejoin="round" d=" M 92.458, 133.266 92.457, 123.266 92.456, 116.753 " />
            <path fill="none" stroke-width="3.0" stroke-linecap="butt" stroke-opacity="1.0" stroke="rgb(0, 0, 0)" stroke-linejoin="round" d=" M 102.454, 133.444 102.453, 123.444 102.453, 116.326 " />
            <path fill="none" stroke-width="3.0" stroke-linecap="butt" stroke-opacity="1.0" stroke="rgb(0, 0, 0)" stroke-linejoin="round" d=" M 106.667, 128.522 106.667, 121.108 " />
            <path fill="none" stroke-width="3.0" stroke-linecap="butt" stroke-opacity="1.0" stroke="rgb(0, 0, 0)" stroke-linejoin="round" d=" M 142.453, 122.322 142.452, 127.218 " />
            <path fill="none" stroke-width="3.0" stroke-linecap="butt" stroke-opacity="1.0" stroke="rgb(0, 0, 0)" stroke-linejoin="round" d=" M 145.410, 119.386 145.409, 129.386 145.409, 130.244 " />
            <path fill="none" stroke-width="3.0" stroke-linecap="butt" stroke-opacity="1.0" stroke="rgb(0, 0, 0)" stroke-linejoin="round" d=" M 149.629, 114.985 149.629, 124.985 149.628, 134.785 " />
            <path fill="none" stroke-width="3.0" stroke-linecap="butt" stroke-opacity="1.0" stroke="rgb(0, 0, 0)" stroke-linejoin="round" d=" M 151.643, 125.058 151.643, 124.713 " />
            <path fill="none" stroke-width="3.0" stroke-linecap="butt" stroke-opacity="1.0" stroke="rgb(0, 0, 0)" stroke-linejoin="round" d=" M 159.639, 135.556 159.641, 125.556 159.642, 115.556 159.642, 114.462 " />
            <path fill="none" stroke-width="3.0" stroke-linecap="butt" stroke-opacity="1.0" stroke="rgb(0, 0, 0)" stroke-linejoin="round" d=" M 160.184, 116.129 160.183, 126.129 160.182, 133.890 " />
            <path fill="none" stroke-width="3.0" stroke-linecap="butt" stroke-opacity="1.0" stroke="rgb(0, 0, 0)" stroke-linejoin="round" d=" M 176.288, 100.293 176.286, 110.293 176.284, 120.293 176.282, 130.293 176.280, 140.293 176.279, 149.461 176.278, 150.260 " />
        </g>
    </g>
</svg>
