<?xml version='1.0' encoding='ascii'?>
<svg xmlns="http://www.w3.org/2000/svg" version="1.1" width="250" height="250">
    <g id="ViewLayer_LineSet" xmlns:inkscape="http://www.inkscape.org/namespaces/inkscape" inkscape:groupmode="lineset" inkscape:label="ViewLayer_LineSet">
        <g xmlns:inkscape="http://www.inkscape.org/namespaces/inkscape" inkscape:groupmode="layer" id="strokes" inkscape:label="strokes">
            <path fill="none" stroke-width="3.0" stroke-linecap="butt" stroke-opacity="1.0" stroke="rgb(0, 0, 0)" stroke-linejoin="round" d=" M 256.972, 201.201 251.406, 209.509 246.083, 217.455 239.480, 224.965 233.167, 232.146 225.640, 238.729 218.445, 245.022 210.122, 250.566 202.171, 255.863 " />
            <path fill="none" stroke-width="3.0" stroke-linecap="butt" stroke-opacity="1.0" stroke="rgb(0, 0, 0)" stroke-linejoin="round" d=" M 202.244, -3.165 210.563, 2.384 218.527, 7.697 226.049, 14.286 233.251, 20.594 239.848, 28.110 246.165, 35.306 251.722, 43.620 254.112, 47.194 " />
            <path fill="none" stroke-width="3.0" stroke-linecap="butt" stroke-opacity="1.0" stroke="rgb(0, 0, 0)" stroke-linejoin="round" d=" M -1.896, 51.742 0.242, 48.535 5.788, 40.214 8.939, 35.487 15.523, 27.960 21.803, 20.781 29.313, 14.178 36.478, 7.878 44.786, 2.311 52.715, -3.003 " />
            <path fill="none" stroke-width="3.0" stroke-linecap="butt" stroke-opacity="1.0" stroke="rgb(0, 0, 0)" stroke-linejoin="round" d=" M 52.783, 255.696 44.473, 250.134 36.555, 244.835 29.041, 238.237 21.883, 231.952 15.293, 224.431 9.016, 217.267 3.463, 208.951 -1.826, 201.032 " />
            <path fill="none" stroke-width="3.0" stroke-linecap="butt" stroke-opacity="1.0" stroke="rgb(0, 0, 0)" stroke-linejoin="round" d=" M 131.068, 160.622 126.381, 160.927 121.694, 160.619 117.088, 159.701 112.642, 158.190 108.430, 156.113 104.526, 153.503 100.996, 150.406 97.900, 146.875 95.292, 142.971 94.747, 141.865 94.650, 141.669 94.122, 140.600 94.035, 140.422 93.677, 139.697 93.215, 138.759 91.706, 134.313 91.543, 133.496 91.520, 133.379 90.972, 130.624 90.789, 129.707 90.482, 125.022 90.788, 120.336 90.970, 119.419 91.518, 116.664 91.541, 116.547 91.703, 115.730 93.212, 111.283 93.674, 110.345 94.963, 107.729 95.097, 107.459 95.288, 107.070 95.314, 107.031 97.896, 103.165 100.992, 99.633 104.522, 96.535 108.427, 93.924 112.639, 91.845 117.086, 90.334 121.693, 89.416 126.381, 89.107 131.069, 89.413 135.677, 90.328 140.127, 91.837 144.341, 93.915 148.248, 96.524 151.781, 99.622 154.880, 103.154 156.997, 106.322 157.464, 107.022 157.491, 107.061 157.671, 107.427 158.420, 108.945 159.569, 111.275 160.559, 114.191 160.580, 114.253 161.079, 115.725 161.131, 115.984 161.996, 120.333 162.302, 125.022 161.994, 129.711 161.128, 134.060 161.077, 134.319 160.577, 135.790 160.556, 135.852 159.566, 138.767 158.129, 141.679 157.885, 142.172 157.486, 142.981 154.875, 146.886 151.776, 150.417 148.243, 153.514 144.337, 156.122 140.123, 158.198 135.675, 159.707 131.068, 160.622 " />
            <path fill="none" stroke-width="3.0" stroke-linecap="butt" stroke-opacity="1.0" stroke="rgb(0, 0, 0)" stroke-linejoin="round" d=" M 41.167, 171.510 42.379, 173.967 47.934, 182.283 49.446, 184.548 56.038, 192.068 57.833, 194.116 65.349, 200.713 67.397, 202.510 75.708, 208.070 77.974, 209.585 86.940, 214.013 89.384, 215.220 98.851, 218.441 101.433, 219.319 111.239, 221.278 113.915, 221.812 123.893, 222.474 126.617, 222.655 136.596, 222.009 139.321, 221.833 149.131, 219.891 151.811, 219.360 161.283, 216.154 163.873, 215.278 172.846, 210.863 175.300, 209.656 183.620, 204.107 185.897, 202.589 193.421, 196.002 195.481, 194.198 202.081, 186.685 203.889, 184.627 209.451, 176.317 210.976, 174.039 211.950, 172.067 " />
            <path fill="none" stroke-width="3.0" stroke-linecap="butt" stroke-opacity="1.0" stroke="rgb(0, 0, 0)" stroke-linejoin="round" d=" M 134.214, 183.145 126.600, 183.641 118.987, 183.138 111.506, 181.646 104.283, 179.191 97.442, 175.815 91.101, 171.575 85.368, 166.544 80.339, 160.809 76.103, 154.467 75.172, 152.580 74.139, 150.485 74.061, 150.327 72.729, 147.626 70.277, 140.403 69.518, 136.586 68.789, 132.923 68.288, 125.312 68.785, 117.700 69.513, 114.037 70.271, 110.219 72.721, 102.994 74.130, 100.134 75.371, 97.614 75.565, 97.222 76.092, 96.151 76.936, 94.887 80.328, 89.806 85.356, 84.067 91.090, 79.033 97.432, 74.791 104.275, 71.412 111.500, 68.955 118.985, 67.462 126.601, 66.959 134.218, 67.455 141.706, 68.941 148.936, 71.392 155.784, 74.766 162.134, 79.006 167.875, 84.039 172.911, 89.778 175.987, 94.382 176.762, 95.541 177.153, 96.127 177.446, 96.721 178.006, 97.856 180.531, 102.975 182.632, 109.165 182.984, 110.205 184.019, 115.409 184.473, 117.694 184.971, 125.313 184.470, 132.931 184.015, 135.215 182.978, 140.419 182.625, 141.459 180.521, 147.647 178.968, 150.794 178.074, 152.604 177.996, 152.763 177.142, 154.492 172.898, 160.838 167.862, 166.574 162.121, 171.604 155.773, 175.840 148.926, 179.212 141.699, 181.661 134.214, 183.145 " />
            <path fill="none" stroke-width="3.0" stroke-linecap="butt" stroke-opacity="1.0" stroke="rgb(0, 0, 0)" stroke-linejoin="round" d=" M 209.396, 74.203 203.924, 66.016 197.328, 58.500 195.517, 56.436 187.996, 49.845 185.931, 48.036 177.614, 42.485 175.331, 40.961 166.360, 36.543 163.899, 35.331 154.427, 32.123 151.830, 31.243 142.020, 29.300 139.331, 28.767 129.352, 28.121 126.618, 27.944 116.640, 28.606 113.907, 28.788 104.101, 30.747 101.417, 31.283 91.950, 34.506 89.361, 35.388 80.396, 39.819 77.945, 41.030 69.635, 46.593 67.364, 48.113 59.851, 54.713 57.799, 56.516 51.212, 64.040 49.414, 66.093 43.864, 74.412 43.633, 74.759 " />
            <path fill="none" stroke-width="3.0" stroke-linecap="butt" stroke-opacity="1.0" stroke="rgb(0, 0, 0)" stroke-linejoin="round" d=" M 176.751, 152.604 176.753, 142.604 176.755, 132.604 176.757, 122.604 176.759, 112.604 176.761, 102.604 176.762, 95.541 " />
            <path fill="none" stroke-width="3.0" stroke-linecap="butt" stroke-opacity="1.0" stroke="rgb(0, 0, 0)" stroke-linejoin="round" d=" M 175.987, 94.382 169.426, 98.345 169.426, 100.545 169.426, 101.063 169.424, 111.063 169.423, 121.063 169.422, 122.428 169.421, 127.359 169.420, 137.359 169.418, 146.061 169.418, 146.536 169.418, 148.549 176.751, 152.604 177.996, 152.604 " />
            <path fill="none" stroke-width="3.0" stroke-linecap="butt" stroke-opacity="1.0" stroke="rgb(0, 0, 0)" stroke-linejoin="round" d=" M 75.172, 152.580 75.381, 152.580 82.698, 148.531 82.698, 146.519 82.698, 146.044 82.696, 136.044 82.695, 126.044 82.693, 116.044 82.692, 106.044 82.691, 101.082 82.691, 100.563 82.690, 98.364 76.936, 94.887 " />
            <path fill="none" stroke-width="3.0" stroke-linecap="butt" stroke-opacity="1.0" stroke="rgb(0, 0, 0)" stroke-linejoin="round" d=" M 75.381, 152.580 75.379, 142.580 75.378, 132.580 75.376, 122.580 75.374, 112.580 75.372, 102.580 75.371, 97.614 " />
            <path fill="none" stroke-width="3.0" stroke-linecap="butt" stroke-opacity="1.0" stroke="rgb(0, 0, 0)" stroke-linejoin="round" d=" M 254.112, 47.194 245.552, 52.364 236.993, 57.535 228.433, 62.705 226.547, 63.844 226.546, 66.592 226.544, 70.141 226.541, 80.141 226.537, 90.141 226.533, 100.141 226.529, 110.141 226.526, 120.141 226.522, 130.141 226.518, 140.141 226.515, 150.141 226.511, 160.141 226.507, 170.141 226.505, 174.355 226.504, 177.601 226.503, 180.115 235.255, 184.954 244.006, 189.793 252.757, 194.632 258.618, 197.873 " />
            <path fill="none" stroke-width="3.0" stroke-linecap="butt" stroke-opacity="1.0" stroke="rgb(0, 0, 0)" stroke-linejoin="round" d=" M -4.047, 196.527 4.702, 191.685 13.452, 186.844 22.202, 182.003 25.787, 180.020 25.786, 177.510 25.784, 174.266 25.781, 164.266 25.777, 154.266 25.774, 144.266 25.770, 134.266 25.766, 124.266 25.763, 114.266 25.759, 104.266 25.755, 94.266 25.752, 84.266 25.748, 74.266 25.747, 70.237 25.745, 66.691 25.744, 63.948 17.186, 58.775 8.628, 53.603 0.242, 48.535 " />
            <path fill="none" stroke-width="3.0" stroke-linecap="butt" stroke-opacity="1.0" stroke="rgb(0, 0, 0)" stroke-linejoin="round" d=" M 25.786, 177.510 30.319, 177.512 39.069, 172.671 41.167, 171.510 49.917, 166.669 53.472, 164.702 53.469, 154.702 53.467, 144.702 53.464, 134.702 53.462, 124.702 53.459, 114.702 53.456, 104.702 53.454, 94.702 53.451, 84.702 53.450, 80.692 44.892, 75.520 43.633, 74.759 35.074, 69.586 30.281, 66.689 25.745, 66.691 " />
            <path fill="none" stroke-width="3.0" stroke-linecap="butt" stroke-opacity="1.0" stroke="rgb(0, 0, 0)" stroke-linejoin="round" d=" M 30.319, 177.512 30.316, 167.512 30.312, 157.512 30.309, 147.512 30.306, 138.673 30.302, 128.673 30.299, 118.673 30.296, 111.992 30.293, 101.992 30.289, 91.992 30.286, 81.992 30.282, 71.992 30.281, 66.689 " />
            <path fill="none" stroke-width="3.0" stroke-linecap="butt" stroke-opacity="1.0" stroke="rgb(0, 0, 0)" stroke-linejoin="round" d=" M 226.546, 66.592 221.993, 66.595 213.433, 71.765 209.396, 74.203 200.836, 79.373 198.742, 80.638 198.740, 90.638 198.737, 100.638 198.734, 110.638 198.731, 120.638 198.729, 130.638 198.726, 140.638 198.723, 150.638 198.721, 160.638 198.719, 164.752 207.471, 169.591 211.950, 172.067 220.701, 176.907 221.953, 177.599 226.504, 177.601 " />
            <path fill="none" stroke-width="3.0" stroke-linecap="butt" stroke-opacity="1.0" stroke="rgb(0, 0, 0)" stroke-linejoin="round" d=" M 221.953, 177.599 221.957, 167.599 221.960, 157.599 221.964, 147.599 221.965, 144.324 221.968, 134.324 221.972, 124.324 221.976, 114.324 221.978, 106.343 221.982, 96.343 221.986, 86.343 221.989, 76.343 221.993, 66.595 " />
            <path fill="none" stroke-width="3.0" stroke-linecap="butt" stroke-opacity="1.0" stroke="rgb(0, 0, 0)" stroke-linejoin="round" d=" M 129.673, 150.639 126.283, 150.861 122.894, 150.638 119.563, 149.975 116.347, 148.882 113.301, 147.380 110.477, 145.492 107.924, 143.253 105.685, 140.699 103.798, 137.875 103.404, 137.075 103.265, 136.793 103.003, 136.264 102.946, 136.148 102.889, 136.032 102.655, 135.558 102.421, 135.084 102.296, 134.829 102.007, 133.977 101.204, 131.613 100.629, 128.723 100.541, 128.282 100.319, 124.893 100.541, 121.504 100.628, 121.063 101.203, 118.173 102.005, 115.808 102.294, 114.956 102.420, 114.702 102.653, 114.228 103.263, 112.992 103.561, 112.387 103.796, 111.910 103.806, 111.895 103.891, 111.768 104.172, 111.347 105.682, 109.085 107.922, 106.531 110.475, 104.291 113.299, 102.403 116.345, 100.900 119.562, 99.807 122.894, 99.143 126.284, 98.920 129.674, 99.142 133.006, 99.804 136.224, 100.896 139.271, 102.398 142.097, 104.285 144.652, 106.525 146.892, 109.080 148.261, 111.129 148.685, 111.763 148.770, 111.890 148.780, 111.905 148.818, 111.983 148.911, 112.170 149.427, 113.217 149.661, 113.691 150.078, 114.536 150.283, 114.952 151.375, 118.170 151.455, 118.572 152.038, 121.503 152.172, 123.547 152.260, 124.893 152.171, 126.240 152.037, 128.284 151.454, 131.214 151.374, 131.616 150.281, 134.833 150.076, 135.249 149.659, 136.094 149.573, 136.268 149.134, 137.157 148.778, 137.880 146.890, 140.705 144.649, 143.259 142.094, 145.498 139.269, 147.385 136.222, 148.886 133.005, 149.978 129.673, 150.639 " />
            <path fill="none" stroke-width="3.0" stroke-linecap="butt" stroke-opacity="1.0" stroke="rgb(0, 0, 0)" stroke-linejoin="round" d=" M 128.880, 144.965 126.228, 145.139 123.576, 144.964 120.969, 144.445 118.453, 143.591 116.070, 142.415 113.860, 140.938 111.862, 139.186 110.110, 137.188 108.634, 134.978 108.325, 134.352 108.319, 134.340 108.279, 134.258 108.015, 133.723 107.546, 132.772 107.458, 132.595 107.240, 131.953 106.604, 130.078 106.465, 129.378 106.447, 129.290 106.301, 128.556 106.085, 127.472 105.912, 124.820 106.085, 122.168 106.301, 121.083 106.447, 120.350 106.464, 120.262 106.603, 119.561 107.239, 117.687 107.457, 117.045 107.545, 116.868 108.347, 115.240 108.493, 114.943 108.632, 114.661 108.710, 114.544 108.927, 114.221 110.109, 112.451 111.861, 110.452 113.859, 108.700 116.068, 107.223 118.452, 106.047 120.969, 105.192 123.576, 104.673 126.228, 104.498 128.881, 104.672 131.488, 105.190 134.006, 106.044 136.390, 107.220 138.601, 108.696 140.599, 110.449 142.352, 112.448 143.424, 114.051 143.581, 114.286 143.727, 114.505 143.751, 114.541 143.829, 114.658 144.530, 116.078 144.836, 116.700 145.005, 117.042 145.611, 118.828 145.630, 118.884 145.775, 119.310 145.860, 119.560 146.378, 122.167 146.552, 124.820 146.378, 127.473 145.859, 130.080 145.774, 130.330 145.629, 130.756 145.611, 130.812 145.004, 132.597 144.835, 132.940 144.528, 133.561 144.448, 133.725 144.183, 134.261 144.143, 134.343 144.054, 134.524 143.828, 134.981 142.351, 137.191 140.598, 139.189 138.599, 140.942 136.389, 142.418 134.004, 143.593 131.487, 144.447 128.880, 144.965 " />
            <path fill="none" stroke-width="3.0" stroke-linecap="butt" stroke-opacity="1.0" stroke="rgb(0, 0, 0)" stroke-linejoin="round" d=" M 156.997, 106.322 156.997, 107.022 156.997, 107.792 156.996, 110.779 156.995, 120.779 156.994, 130.779 156.993, 138.859 156.993, 139.903 156.993, 140.608 156.993, 141.679 157.885, 142.172 " />
            <path fill="none" stroke-width="3.0" stroke-linecap="butt" stroke-opacity="1.0" stroke="rgb(0, 0, 0)" stroke-linejoin="round" d=" M 94.747, 141.865 95.100, 141.669 95.100, 140.600 95.100, 139.894 95.100, 138.082 95.099, 128.082 95.098, 118.082 95.097, 111.556 95.097, 107.802 95.097, 107.459 " />
            <path fill="none" stroke-width="3.0" stroke-linecap="butt" stroke-opacity="1.0" stroke="rgb(0, 0, 0)" stroke-linejoin="round" d=" M 128.011, 138.744 126.167, 138.865 124.324, 138.744 122.512, 138.383 120.762, 137.789 119.105, 136.972 117.569, 135.945 116.180, 134.727 114.962, 133.338 113.936, 131.802 113.118, 130.145 112.525, 128.395 112.164, 126.583 112.043, 124.740 112.164, 122.896 112.524, 121.084 113.118, 119.334 113.935, 117.677 114.961, 116.141 116.179, 114.752 117.569, 113.533 119.105, 112.506 120.762, 111.689 122.511, 111.095 124.324, 110.734 126.168, 110.613 128.012, 110.734 129.824, 111.094 131.574, 111.688 133.231, 112.505 134.768, 113.532 136.157, 114.750 137.376, 116.139 138.403, 117.676 139.220, 119.333 139.814, 121.083 140.175, 122.896 140.295, 124.740 140.174, 126.584 139.814, 128.396 139.219, 130.146 138.402, 131.803 137.375, 133.340 136.157, 134.729 134.767, 135.947 133.231, 136.973 131.573, 137.790 129.824, 138.384 128.011, 138.744 " />
            <path fill="none" stroke-width="3.0" stroke-linecap="butt" stroke-opacity="1.0" stroke="rgb(0, 0, 0)" stroke-linejoin="round" d=" M 128.364, 141.272 126.192, 141.414 124.020, 141.272 121.885, 140.847 119.824, 140.147 117.872, 139.184 116.062, 137.974 114.425, 136.539 112.990, 134.902 111.781, 133.093 110.818, 131.140 110.119, 129.079 109.694, 126.944 109.551, 124.772 109.694, 122.600 110.118, 120.465 110.818, 118.404 111.780, 116.452 112.989, 114.641 114.424, 113.005 116.061, 111.569 117.871, 110.359 119.823, 109.396 121.885, 108.696 124.020, 108.271 126.192, 108.128 128.365, 108.270 130.500, 108.695 132.562, 109.394 134.515, 110.357 136.325, 111.567 137.962, 113.002 139.398, 114.639 140.608, 116.450 141.571, 118.402 142.271, 120.464 142.611, 122.173 142.695, 122.600 142.838, 124.772 142.695, 126.945 142.610, 127.372 142.270, 129.080 141.570, 131.142 140.607, 133.095 139.397, 134.905 137.961, 136.541 136.324, 137.977 134.514, 139.186 132.561, 140.149 130.500, 140.848 128.364, 141.272 " />
            <path fill="none" stroke-width="3.0" stroke-linecap="butt" stroke-opacity="1.0" stroke="rgb(0, 0, 0)" stroke-linejoin="round" d=" M 74.139, 150.485 74.139, 150.288 74.137, 140.288 74.135, 130.288 74.134, 120.288 74.132, 110.288 74.130, 100.134 " />
            <path fill="none" stroke-width="3.0" stroke-linecap="butt" stroke-opacity="1.0" stroke="rgb(0, 0, 0)" stroke-linejoin="round" d=" M 90.972, 130.624 90.970, 120.624 90.970, 119.419 " />
            <path fill="none" stroke-width="3.0" stroke-linecap="butt" stroke-opacity="1.0" stroke="rgb(0, 0, 0)" stroke-linejoin="round" d=" M 91.543, 133.496 91.542, 123.496 91.541, 116.547 " />
            <path fill="none" stroke-width="3.0" stroke-linecap="butt" stroke-opacity="1.0" stroke="rgb(0, 0, 0)" stroke-linejoin="round" d=" M 102.007, 133.977 102.006, 123.977 102.005, 115.808 " />
            <path fill="none" stroke-width="3.0" stroke-linecap="butt" stroke-opacity="1.0" stroke="rgb(0, 0, 0)" stroke-linejoin="round" d=" M 106.447, 129.290 106.447, 120.350 " />
            <path fill="none" stroke-width="3.0" stroke-linecap="butt" stroke-opacity="1.0" stroke="rgb(0, 0, 0)" stroke-linejoin="round" d=" M 142.611, 122.173 142.610, 127.372 " />
            <path fill="none" stroke-width="3.0" stroke-linecap="butt" stroke-opacity="1.0" stroke="rgb(0, 0, 0)" stroke-linejoin="round" d=" M 145.630, 118.884 145.629, 128.884 145.629, 130.756 " />
            <path fill="none" stroke-width="3.0" stroke-linecap="butt" stroke-opacity="1.0" stroke="rgb(0, 0, 0)" stroke-linejoin="round" d=" M 150.078, 114.536 150.077, 124.536 150.076, 134.536 150.076, 135.249 " />
            <path fill="none" stroke-width="3.0" stroke-linecap="butt" stroke-opacity="1.0" stroke="rgb(0, 0, 0)" stroke-linejoin="round" d=" M 152.171, 126.240 152.172, 123.547 " />
            <path fill="none" stroke-width="3.0" stroke-linecap="butt" stroke-opacity="1.0" stroke="rgb(0, 0, 0)" stroke-linejoin="round" d=" M 160.556, 135.852 160.557, 125.852 160.559, 115.852 160.559, 114.191 " />
            <path fill="none" stroke-width="3.0" stroke-linecap="butt" stroke-opacity="1.0" stroke="rgb(0, 0, 0)" stroke-linejoin="round" d=" M 161.131, 115.984 161.129, 125.984 161.128, 134.060 " />
            <path fill="none" stroke-width="3.0" stroke-linecap="butt" stroke-opacity="1.0" stroke="rgb(0, 0, 0)" stroke-linejoin="round" d=" M 178.006, 97.856 178.004, 107.856 178.002, 117.856 178.001, 127.856 177.999, 137.856 177.997, 147.856 177.996, 150.313 177.996, 152.604 177.996, 152.763 " />
        </g>
    </g>
</svg>
