<?xml version="1.0" encoding="UTF-8" standalone="no"?>
<!-- Created with Inkscape (http://www.inkscape.org/) -->

<svg
   width="250"
   height="250"
   viewBox="0 0 250 250"
   version="1.1"
   id="svg1"
   inkscape:version="1.4 (e7c3feb1, 2024-10-09)"
   sodipodi:docname="cardinal.svg"
   xml:space="preserve"
   xmlns:inkscape="http://www.inkscape.org/namespaces/inkscape"
   xmlns:sodipodi="http://sodipodi.sourceforge.net/DTD/sodipodi-0.dtd"
   xmlns="http://www.w3.org/2000/svg"
   xmlns:svg="http://www.w3.org/2000/svg"><sodipodi:namedview
     id="namedview1"
     pagecolor="#ffffff"
     bordercolor="#000000"
     borderopacity="0.25"
     inkscape:showpageshadow="2"
     inkscape:pageopacity="0.0"
     inkscape:pagecheckerboard="0"
     inkscape:deskcolor="#d1d1d1"
     inkscape:document-units="mm"
     inkscape:zoom="3.1376714"
     inkscape:cx="118.87797"
     inkscape:cy="149.63326"
     inkscape:window-width="1440"
     inkscape:window-height="872"
     inkscape:window-x="0"
     inkscape:window-y="28"
     inkscape:window-maximized="0"
     inkscape:current-layer="svg1" /><defs
     id="defs1" /><g
     inkscape:groupmode="layer"
     id="layer1"
     inkscape:label="left"
     style="display:inline"><path
       style="fill:none;stroke:#000000;stroke-width:0.377953;stroke-linejoin:bevel;stroke-opacity:1"
       d="m 40.643091,248.95654 c 0,0 -31.1388397,-61.02351 -17.11899,-106.35689 -4.20134,-2.84993 -11.52816,-4.74103 -18.1121897,-6.57608 -2.2394,1.06656 -1.74148,1.82041 -3.51042,1.34128 3.83963,-10.7274 16.5644697,-18.50431 19.6993397,-23.65942 13.05692,-29.951865 31.53605,-80.186813 31.53605,-80.186813 0,0 1.95333,14.95454 0.42687,27.107689 2.18937,-0.683758 11.80872,-10.233768 11.80872,-10.233768 0,0 -3.3351,3.838023 -4.71883,7.530623 2.24688,1.224022 13.18973,27.781873 34.92674,36.640446 27.254459,8.536113 55.459879,21.105793 59.552589,28.976383 27.72403,22.66879 39.21225,31.37883 44.52076,40.62519 15.72962,19.18128 29.11988,57.99875 29.76197,60.56712 0.64209,2.56837 6.42092,17.33649 3.85255,26.96787"
       id="path1"
       sodipodi:nodetypes="ccccccccccccsc" /><path
       style="fill:none;stroke:#000000;stroke-width:0.377953;stroke-linejoin:bevel;stroke-opacity:1"
       d="m 25.206201,106.76044 c 10.55372,7.26329 20.92061,4.83769 22.65023,7.77688 6.21265,-7.7614 16.53965,-0.0752 18.41539,3.06462 -2.80719,3.83511 -6.02375,9.82968 -10.84942,10.87186 -3.08368,4.48927 -7.40623,11.87176 -3.96033,20.91942 0,0 -3.77289,12.32981 -30.79595,15.61203"
       id="path2"
       sodipodi:nodetypes="cccccc" /><ellipse
       style="fill:none;stroke:#000000;stroke-width:0.448543;stroke-linejoin:bevel;stroke-opacity:1"
       id="path7"
       cx="-54.967892"
       cy="118.88172"
       rx="6.3045597"
       ry="5.9876986"
       transform="scale(-1,1)" /><ellipse
       style="fill:none;stroke:#000000;stroke-width:0.353224;stroke-linejoin:bevel;stroke-opacity:1"
       id="path7-4"
       cx="-54.942104"
       cy="118.92758"
       rx="4.9483624"
       ry="4.7309232"
       transform="scale(-1,1)" /><path
       style="fill:none;stroke:#000000;stroke-width:0.377953;stroke-linejoin:bevel;stroke-opacity:1"
       d="m 32.155231,167.42094 c 0,0 -5.77735,5.99956 -6.66618,8.88824"
       id="path9"
       sodipodi:nodetypes="cc" /><path
       style="fill:none;stroke:#000000;stroke-width:0.377953;stroke-linejoin:bevel;stroke-opacity:1"
       d="m 89.847401,192.43024 9.11044,17.33205 c 0,0 0.44441,-5.55514 0,-7.11058 -0.44442,-1.55544 -0.44442,-1.55544 -0.44442,-1.55544"
       id="path10" /><path
       style="fill:none;stroke:#000000;stroke-width:0.377953;stroke-linejoin:bevel;stroke-opacity:1"
       d="m 160.73105,216.87288 5.33294,13.11014"
       id="path11" /><path
       style="fill:none;stroke:#000000;stroke-width:0.377953;stroke-linejoin:bevel;stroke-opacity:1"
       d="m 172.95237,211.76214 3.5553,5.11074"
       id="path12" /><path
       style="fill:none;stroke:#000000;stroke-width:0.377953;stroke-linejoin:bevel;stroke-opacity:1"
       d="m 172.95237,218.20611 4.66633,6.66618"
       id="path13" /><path
       style="fill:none;stroke:#000000;stroke-width:0.377953;stroke-linejoin:bevel;stroke-opacity:1"
       d="m 96.690211,114.92011 1.457,2.45941 -2.85806,-0.41493 0.25411,2.3242 -1.64583,0.47091 1.92326,3.72992 -2.50139,-1.92091 1.32181,3.66231 -1.65982,-0.65507 0.17718,2.17501 -2.4198,-1.39637 1.76008,2.68087 -1.72742,-0.0536 0.92315,1.79036 -3.984,-0.40111 3.13081,4.24044 -2.19832,-1.69943 -0.0443,2.47806"
       id="path17" /><path
       style="fill:none;stroke:#000000;stroke-width:0.377953;stroke-linejoin:bevel;stroke-opacity:1"
       d="m 49.246471,168.0492 -2.97207,2.05758 0.22862,-3.42931"
       id="path18" /><path
       style="fill:none;stroke:#000000;stroke-width:0.377953;stroke-linejoin:bevel;stroke-opacity:1"
       d="m 137.88019,172.8765 7.26372,6.64111 -6.64111,-4.1507 4.7733,5.18837 -2.49042,-1.66027 2.69795,4.7733 -7.05618,-7.88633 2.07535,4.7733 -2.90549,-2.07534 2.90549,4.7733 -4.1507,-4.35823"
       id="path19" /><path
       style="fill:none;stroke:#000000;stroke-width:0.377953;stroke-linejoin:bevel;stroke-opacity:1"
       d="m 100.45239,197.12297 c 0,0 12.78874,36.60225 31.75135,55.12387"
       id="path37" /><path
       style="fill:none;stroke:#000000;stroke-width:0.377953;stroke-linejoin:bevel;stroke-opacity:1"
       d="m 8.0126313,134.48641 c 0,0 15.0544497,-8.17241 29.6787697,-4.7314"
       id="path38"
       sodipodi:nodetypes="cc" /><path
       style="fill:none;stroke:#000000;stroke-width:0.377953;stroke-linejoin:bevel;stroke-opacity:1"
       d="m 26.938231,141.94194 12.76043,0.86026 4.44465,-9.31942 -3.29764,-1.86389 -3.87114,-8.31579 c 0,0 -5.73503,-4.15789 -7.74229,-4.15789 -2.00726,0 -4.01452,-5.01815 -4.01452,-5.01815 l -2.86752,0.71687"
       id="path39" /></g><g
     inkscape:groupmode="layer"
     id="layer2"
     inkscape:label="close"
     style="display:inline"><path
       style="fill:none;stroke:#000000;stroke-width:0.377953;stroke-linejoin:bevel;stroke-opacity:1"
       d="m 0.77458736,181.57471 c 0,0 45.45330164,-36.3455 57.72619264,-43.70924 12.272891,-7.36373 50.72795,-34.77319 60.13717,-33.5459 9.40921,1.22729 22.0912,-10.227406 22.0912,-10.227406 0,0 2.04548,-4.909157 6.54554,-4.909157 4.50006,0 19.63663,-11.454698 22.0912,-15.954758 2.45458,-4.50006 2.86368,-9.00012 2.86368,-9.00012 l 4.90916,3.681867 c 9.46707,-4.110512 20.64595,-14.803373 26.64285,-24.376521 0,0 13.64409,47.488655 5.36622,78.170885 -8.86511,32.8589 -12.78155,27.61581 -12.78155,27.61581 0,0 -5.72734,10.63651 -8.59102,10.63651 -2.86367,0 -9.40922,4.50006 -11.0456,4.50006 -1.63639,0 -5.72735,17.59114 -5.72735,20.04572 0,2.66351 -0.23827,49.14411 -16.76159,66.78568"
       id="path60"
       sodipodi:nodetypes="csscsscccscsssc" /><path
       style="fill:none;stroke:#000000;stroke-width:0.377953;stroke-linejoin:bevel;stroke-opacity:1"
       d="m 172.88627,145.26866 c 0,0 11.23166,18.29145 -20.64619,41.5931 -1.65901,-2.64712 -1.17172,-4.5855 -1.17172,-4.5855 0,0 -22.37027,-25.68438 -24.57968,-26.51291 -2.20941,-0.82853 -1.38088,-3.03794 -0.27618,-4.69499 1.10471,-1.65706 12.15175,-8.56147 14.63734,-8.56147 2.48558,0 17.12292,-0.27617 17.12292,-0.27617 0,0 1.1047,5.7997 2.48558,5.7997 1.38088,0 3.31412,-3.03794 5.24735,-3.59029 1.93323,-0.55235 7.18058,0.82853 7.18058,0.82853 z"
       id="path61"
       sodipodi:nodetypes="cccssscssc" /><path
       style="display:inline;fill:none;stroke:#000000;stroke-width:0.39091;stroke-linejoin:bevel;stroke-opacity:1"
       d="m 174.86191,163.56975 c 3.59941,-0.97823 7.44187,-3.50509 9.11523,-6.93077 2.79573,-5.72336 -3.36543,-9.16754 -3.36543,-9.16754 0,0 4.51762,-14.6541 -3.82926,-23.1254 -9.2714,-9.40958 -20.71071,-6.56758 -26.87363,-3.44002 -0.48177,-5.49863 -7.07984,-12.90605 -12.59707,-9.47245 -5.25272,3.269 -8.22277,12.36788 -3.47695,17.33172 0.41473,8.9272 -15.2593,18.14959 -18.51793,19.08379 l -10.89903,3.12459 c 0,0 -0.90043,20.51494 20.25803,38.90101 6.24353,3.48407 35.50567,7.36418 39.85366,2.60768 0.20312,-1.88084 0.66274,-3.73401 1.3153,-5.53869 0,0 5.03075,-18.29646 9.01708,-23.37392 z"
       id="path44-3"
       sodipodi:nodetypes="cscscscsccccc" /><ellipse
       style="display:inline;fill:none;stroke:#000000;stroke-width:0.476127;stroke-linejoin:bevel;stroke-opacity:1"
       id="ellipse46-7"
       transform="matrix(0.97459282,0.22398402,-0.22700921,0.97389261,0,0)"
       ry="7.6084194"
       rx="6.1490355"
       cy="87.509491"
       cx="164.70383" /><ellipse
       style="display:inline;fill:none;stroke:#000000;stroke-width:0.374947;stroke-linejoin:bevel;stroke-opacity:1"
       id="ellipse47-2"
       cx="164.68134"
       cy="87.75061"
       rx="4.8230834"
       ry="6.011466"
       transform="matrix(0.97459282,0.22398402,-0.22700921,0.97389261,0,0)" /><path
       id="ellipse48-9"
       style="display:inline;fill:none;stroke:#000000;stroke-width:0.427405;stroke-linejoin:bevel"
       transform="matrix(0.93437086,0.35630198,-0.70341245,0.71078191,0,0)"
       d="m 253.00707,87.675317 c -2e-5,-5.333986 6.57593,-4.609708 6.57593,2.555434 0,2.545249 -0.70217,4.456096 -1.51698,4.959921"
       sodipodi:nodetypes="csc" /><path
       id="ellipse49-7"
       style="display:inline;fill:none;stroke:#000000;stroke-width:0.323133;stroke-linejoin:bevel"
       transform="matrix(0.93334681,0.35897596,-0.70148202,0.71268716,0,0)"
       d="m 253.383,87.868771 c 0,-2.449165 0.83317,-2.992654 2.08076,-2.992651 2.4788,-6e-6 3.07343,7.316352 1.31299,8.202366"
       sodipodi:nodetypes="csc" /><path
       style="fill:none;stroke:#000000;stroke-width:0.377953;stroke-linejoin:bevel;stroke-opacity:1"
       d="m 83.954652,166.43641 -3.577016,2.94578 h 3.787428"
       id="path62" /><path
       style="fill:none;stroke:#000000;stroke-width:0.377953;stroke-linejoin:bevel;stroke-opacity:1"
       d="m 95.316935,205.78358 -5.891554,5.26032 3.787428,-6.31238"
       id="path63" /><path
       style="fill:none;stroke:#000000;stroke-width:0.377953;stroke-linejoin:bevel;stroke-opacity:1"
       d="m 95.527348,118.0415 -1.893714,0.63124 0.210413,1.47289 -1.472889,0.84165 1.683301,2.10413 -2.945777,0.63123 0.841651,1.47289"
       id="path64" /><path
       style="fill:none;stroke:#000000;stroke-width:0.377953;stroke-linejoin:bevel;stroke-opacity:1"
       d="m 92.371158,127.9309 -2.735365,3.57701 h 2.104127 l -0.420825,1.47289"
       id="path65" /></g><g
     inkscape:groupmode="layer"
     id="g59"
     inkscape:label="cardinal"
     style="display:inline"
     transform="matrix(-1,0,0,1,218.08611,0)"><path
       style="fill:none;stroke:#000000;stroke-width:0.377953;stroke-linejoin:bevel;stroke-opacity:1"
       d="m 181.4078,249.33403 c 0,0 21.18905,-51.42786 19.56708,-104.22118 2.29782,-70.199892 4.61829,-95.338183 4.61829,-95.338183 0,0 -56.02975,18.824008 -70.08847,30.781851 -15.35948,2.469901 -51.390612,16.399416 -59.737811,32.451722 -27.724029,22.66879 -35.648548,36.4233 -38.245616,43.70672 -15.729617,22.20003 -30.4582579,65.44897 -31.1003502,68.01734 -0.6420923,2.56837 -5.55842226,13.45524 -7.30255587,25.24287"
       id="path43"
       sodipodi:nodetypes="ccccccsc" /><path
       style="fill:none;stroke:#000000;stroke-width:0.377953;stroke-linejoin:bevel;stroke-opacity:1"
       d="m 143.19949,170.61062 c 5.69921,-1.4795 22.83864,1.54297 25.95091,-3.82931 -1.76274,-14.644 10.17962,-30.14941 11.56356,-31.18737 2.48867,0.64282 10.00671,-5.40667 11.42452,-10.13273 1.41782,-4.72606 -4.80804,-6.49116 -4.80804,-6.49116 0,0 1.11826,-14.61387 -8.69048,-20.670564 -10.89516,-6.727533 -21.19009,-1.588239 -26.38875,2.665214 -1.65733,-5.008489 -9.56585,-10.457423 -14.0818,-6.060267 -4.29946,4.18637 -3.47039,12.911827 2.13868,16.492477 2.34016,8.21162 -11.51736,22.96694 -14.45058,24.49686 l -7.83409,4.08615 c 0,0 0.98452,18.14919 25.17607,30.6307 z"
       id="path44"
       sodipodi:nodetypes="cccscscscscc" /><path
       style="fill:none;stroke:#000000;stroke-width:0.377953;stroke-linejoin:bevel;stroke-opacity:1"
       d="m 152.97499,114.29166 c 0,0 9.02773,-3.68627 10.60964,-4.45392 2.82434,-1.37057 6.97369,-3.45858 8.38035,-3.45858 1.40667,0 8.09959,16.85495 6.31815,20.82332 -2.86874,6.39045 -20.36725,11.07796 -21.77192,9.46333 -0.46163,-0.53063 -5.37745,-13.41753 -5.82206,-16.74749 -1.02178,-7.65274 2.28584,-5.62666 2.28584,-5.62666 z"
       id="path45"
       sodipodi:nodetypes="csssssc" /><path
       style="fill:none;stroke:#000000;stroke-width:0.377953;stroke-linejoin:bevel;stroke-opacity:1"
       d="m 150.0189,116.22179 c 0,0 -1.96477,10.01122 -3.01977,13.00039 -1.055,2.98916 3.6787,12.19485 6.3162,14.12902 2.6375,1.93416 8.0454,0.0432 10.6829,-1.36355 2.6375,-1.40667 14.47102,-12.40792 14.29519,-13.63876"
       id="path46"
       sodipodi:nodetypes="csssc" /><ellipse
       style="fill:none;stroke:#000000;stroke-width:0.377953;stroke-linejoin:bevel;stroke-opacity:1"
       id="ellipse46"
       cx="142.86386"
       cy="102.08399"
       rx="4.4501095"
       ry="6.0229931" /><ellipse
       style="fill:none;stroke:#000000;stroke-width:0.297635;stroke-linejoin:bevel;stroke-opacity:1"
       id="ellipse47"
       cx="142.88206"
       cy="102.13012"
       rx="3.49283"
       ry="4.7588096" /><ellipse
       style="fill:none;stroke:#000000;stroke-width:0.381776;stroke-linejoin:bevel;stroke-opacity:1"
       id="ellipse48"
       cx="224.11215"
       cy="2.7919083"
       rx="3.0063221"
       ry="5.1145067"
       transform="matrix(0.83203224,0.55472728,-0.60126623,0.79904876,0,0)" /><ellipse
       style="fill:none;stroke:#000000;stroke-width:0.288941;stroke-linejoin:bevel;stroke-opacity:1"
       id="ellipse49"
       transform="matrix(0.8303748,0.55720525,-0.59878904,0.80090679,0,0)"
       ry="3.8749578"
       rx="2.0670648"
       cy="2.1111403"
       cx="223.84601" /><path
       style="fill:none;stroke:#000000;stroke-width:0.377953;stroke-linejoin:bevel;stroke-opacity:1"
       d="m 145.98922,192.43024 -9.11044,17.33205 c 0,0 -0.44441,-5.55514 0,-7.11058 0.44442,-1.55544 0.44442,-1.55544 0.44442,-1.55544"
       id="path50" /><path
       style="fill:none;stroke:#000000;stroke-width:0.377953;stroke-linejoin:bevel;stroke-opacity:1"
       d="m 75.105567,216.87288 -5.33294,13.11014"
       id="path51" /><path
       style="fill:none;stroke:#000000;stroke-width:0.377953;stroke-linejoin:bevel;stroke-opacity:1"
       d="m 62.884247,211.76214 -3.555294,5.11074"
       id="path52" /><path
       style="fill:none;stroke:#000000;stroke-width:0.377953;stroke-linejoin:bevel;stroke-opacity:1"
       d="m 62.884247,218.20611 -4.666323,6.66618"
       id="path53" /><path
       style="fill:none;stroke:#000000;stroke-width:0.377953;stroke-linejoin:bevel;stroke-opacity:1"
       d="M 57.401447,207.41699 33.736774,250.2006"
       id="path54"
       sodipodi:nodetypes="cc" /><path
       style="fill:none;stroke:#000000;stroke-width:0.377953;stroke-linejoin:bevel;stroke-opacity:1"
       d="m 95.990655,115.28526 -7.717842,-7.71784"
       id="path55" /><path
       style="fill:none;stroke:#000000;stroke-width:0.377953;stroke-linejoin:bevel;stroke-opacity:1"
       d="m 88.272813,120.59128 -13.506222,-1.4471"
       id="path56" /><path
       style="fill:none;stroke:#000000;stroke-width:0.377953;stroke-linejoin:bevel;stroke-opacity:1"
       d="m 116.80028,94.23827 -2.70118,-0.935515 0.97834,2.717255 -2.32805,0.216014 -0.13213,1.706762 -4.03927,-1.138154 2.3825,2.066515 -3.85271,-0.562392 0.97389,1.495212 -2.16649,0.261533 1.85225,2.09152 -2.97879,-1.18815 0.39812,1.68177 -1.93885,-0.54631 1.1899,3.82327 -4.781074,-2.21918 2.104884,1.81389 -2.419119,0.53916"
       id="path57" /><path
       style="fill:none;stroke:#000000;stroke-width:0.377953;stroke-linejoin:bevel;stroke-opacity:1"
       d="m 184.95428,162.77806 2.97207,2.05758 -0.22862,-3.42931"
       id="path58" /><path
       style="fill:none;stroke:#000000;stroke-width:0.377953;stroke-linejoin:bevel;stroke-opacity:1"
       d="m 97.95643,172.8765 -7.263718,6.64111 6.641113,-4.1507 -4.7733,5.18837 2.490418,-1.66027 -2.697953,4.7733 7.056184,-7.88633 -2.075349,4.7733 2.905485,-2.07534 -2.905485,4.7733 4.150695,-4.35823"
       id="path59" /></g><g
     inkscape:groupmode="layer"
     id="g36"
     inkscape:label="cardinal"
     style="display:inline"><path
       style="fill:none;stroke:#000000;stroke-width:0.377953;stroke-linejoin:bevel;stroke-opacity:1"
       d="m 208.67999,249.7739 c 0,0 21.18905,-57.14622 -7.70511,-104.66105 2.29782,-70.199892 14.29552,-91.819191 14.29552,-91.819191 0,0 -65.69876,1.926277 -77.89851,17.336492 C 122.80911,70.444381 84.114088,96.955934 75.766889,113.00824 48.04286,135.67703 40.549591,156.33154 41.833776,162.75246 26.104159,181.93374 7.0630151,222.16393 6.4209228,224.7323 5.7788305,227.30067 0,242.06879 2.5683691,251.70017"
       id="path20"
       sodipodi:nodetypes="ccccccsc" /><path
       style="fill:none;stroke:#000000;stroke-width:0.377953;stroke-linejoin:bevel;stroke-opacity:1"
       d="m 143.19949,170.61062 c 5.69921,-1.4795 22.83864,1.54297 25.95091,-3.82931 -1.76274,-14.644 10.00099,-32.11432 11.38493,-33.15228 2.48867,0.64282 8.93494,-6.12119 10.35275,-10.84725 1.41782,-4.72606 -3.73627,-2.73996 -3.73627,-2.73996 0,0 0.82305,-16.94922 -6.61648,-20.794647 -11.37512,-5.879694 -23.08546,-2.535926 -28.28412,1.717527 -1.65733,-5.008489 -9.56585,-10.457423 -14.0818,-6.060267 -4.29946,4.18637 -3.47039,12.911827 2.13868,16.492477 2.34016,8.21162 -11.51736,22.96694 -14.45058,24.49686 l -7.83409,4.08615 c 0,0 0.98452,18.14919 25.17607,30.6307 z"
       id="path21"
       sodipodi:nodetypes="cccscscscscc" /><path
       style="fill:none;stroke:#000000;stroke-width:0.377953;stroke-linejoin:bevel;stroke-opacity:1"
       d="m 152.97499,114.29166 c 0,0 9.02773,-3.68627 10.60964,-4.45392 2.82434,-1.37057 6.97369,-3.45858 8.38035,-3.45858 1.40667,0 7.89789,15.00502 6.8503,19.22687 -1.98182,7.9869 -12.51507,14.63434 -13.91974,13.01971 -0.46163,-0.53063 -7.52472,-14.83909 -14.20639,-18.70742 -6.68166,-3.86833 2.28584,-5.62666 2.28584,-5.62666 z"
       id="path22"
       sodipodi:nodetypes="csssssc" /><path
       style="fill:none;stroke:#000000;stroke-width:0.377953;stroke-linejoin:bevel;stroke-opacity:1"
       d="m 147.69999,117.98416 c 0,0 -1.40823,7.97058 -2.46323,10.95975 -1.055,2.98916 5.26244,14.08078 7.89994,16.01495 2.6375,1.93416 10.84513,0.0707 13.48263,-1.33602 2.6375,-1.40667 11.84992,-14.04311 11.67409,-15.27395"
       id="path23"
       sodipodi:nodetypes="csssc" /><ellipse
       style="fill:none;stroke:#000000;stroke-width:0.377953;stroke-linejoin:bevel;stroke-opacity:1"
       id="ellipse23"
       cx="142.86386"
       cy="102.08399"
       rx="4.4501095"
       ry="6.0229931" /><ellipse
       style="fill:none;stroke:#000000;stroke-width:0.297635;stroke-linejoin:bevel;stroke-opacity:1"
       id="ellipse24"
       cx="142.88206"
       cy="102.13012"
       rx="3.49283"
       ry="4.7588096" /><ellipse
       style="fill:none;stroke:#000000;stroke-width:0.381776;stroke-linejoin:bevel;stroke-opacity:1"
       id="ellipse25"
       cx="224.11215"
       cy="2.7919083"
       rx="1.4877189"
       ry="5.1145067"
       transform="matrix(0.83203224,0.55472728,-0.60126623,0.79904876,0,0)" /><ellipse
       style="fill:none;stroke:#000000;stroke-width:0.288941;stroke-linejoin:bevel;stroke-opacity:1"
       id="ellipse26"
       cx="223.84601"
       cy="2.1111403"
       rx="1.124753"
       ry="3.8749578"
       transform="matrix(0.8303748,0.55720525,-0.59878904,0.80090679,0,0)" /><path
       style="fill:none;stroke:#000000;stroke-width:0.377953;stroke-linejoin:bevel;stroke-opacity:1"
       d="m 201.31847,162.87686 c 0,0 5.77735,5.99956 6.66618,8.88824"
       id="path26" /><path
       style="fill:none;stroke:#000000;stroke-width:0.377953;stroke-linejoin:bevel;stroke-opacity:1"
       d="m 145.98922,192.43024 -9.11044,17.33205 c 0,0 -0.44441,-5.55514 0,-7.11058 0.44442,-1.55544 0.44442,-1.55544 0.44442,-1.55544"
       id="path27" /><path
       style="fill:none;stroke:#000000;stroke-width:0.377953;stroke-linejoin:bevel;stroke-opacity:1"
       d="m 75.105567,216.87288 -5.33294,13.11014"
       id="path28" /><path
       style="fill:none;stroke:#000000;stroke-width:0.377953;stroke-linejoin:bevel;stroke-opacity:1"
       d="m 62.884247,211.76214 -3.555294,5.11074"
       id="path29" /><path
       style="fill:none;stroke:#000000;stroke-width:0.377953;stroke-linejoin:bevel;stroke-opacity:1"
       d="m 62.884247,218.20611 -4.666323,6.66618"
       id="path30" /><path
       style="fill:none;stroke:#000000;stroke-width:0.377953;stroke-linejoin:bevel;stroke-opacity:1"
       d="M 57.401447,207.41699 29.424271,257.1006"
       id="path31" /><path
       style="fill:none;stroke:#000000;stroke-width:0.377953;stroke-linejoin:bevel;stroke-opacity:1"
       d="m 95.990655,115.28526 -7.717842,-7.71784"
       id="path32" /><path
       style="fill:none;stroke:#000000;stroke-width:0.377953;stroke-linejoin:bevel;stroke-opacity:1"
       d="m 88.272813,120.59128 -13.506222,-1.4471"
       id="path33" /><path
       style="fill:none;stroke:#000000;stroke-width:0.377953;stroke-linejoin:bevel;stroke-opacity:1"
       d="m 116.49659,87.792098 -2.85366,-0.167862 1.67862,2.350075 -2.18221,0.839312 0.33572,1.678626 h -4.19656 l 2.85366,1.3429 -3.86083,0.503587 1.3429,1.175038 -2.01435,0.839313 2.35007,1.510762 -3.18939,-0.335725 0.83932,1.510763 h -2.01435 l 2.18221,3.357253 -5.20374,-0.83932 2.51794,1.17504 -2.18222,1.17504"
       id="path34" /><path
       style="fill:none;stroke:#000000;stroke-width:0.377953;stroke-linejoin:bevel;stroke-opacity:1"
       d="m 184.95428,162.77806 2.97207,2.05758 -0.22862,-3.42931"
       id="path35" /><path
       style="fill:none;stroke:#000000;stroke-width:0.377953;stroke-linejoin:bevel;stroke-opacity:1"
       d="m 97.95643,172.8765 -7.263718,6.64111 6.641113,-4.1507 -4.7733,5.18837 2.490418,-1.66027 -2.697953,4.7733 7.056184,-7.88633 -2.075349,4.7733 2.905485,-2.07534 -2.905485,4.7733 4.150695,-4.35823"
       id="path36" /></g><g
     inkscape:groupmode="layer"
     id="g42"
     inkscape:label="cardinal"
     style="display:inline"><path
       style="fill:none;stroke:#000000;stroke-width:0.377953;stroke-linejoin:bevel;stroke-opacity:1"
       d="m 195.19353,248.95654 c 0,0 31.13884,-61.02351 17.11899,-106.35689 4.20134,-2.84993 11.52816,-4.74103 18.11219,-6.57608 2.2394,1.06656 1.74148,1.82041 3.51042,1.34128 -3.83963,-10.7274 -16.56447,-18.50431 -19.69934,-23.65942 -13.05692,-29.951865 -31.53605,-80.186813 -31.53605,-80.186813 0,0 -1.95333,14.95454 -0.42687,27.107689 -2.18937,-0.683758 -11.80872,-10.233768 -11.80872,-10.233768 0,0 3.3351,3.838023 4.71883,7.530623 -2.24688,1.224022 -13.18973,27.781873 -34.92674,36.640446 C 113.00178,103.09972 84.796357,115.6694 80.703649,123.53999 52.97962,146.20878 41.491406,154.91882 36.182887,164.16518 20.45327,183.34646 7.0630151,222.16393 6.4209228,224.7323 5.7788305,227.30067 0,242.06879 2.5683691,251.70017"
       id="path3"
       sodipodi:nodetypes="ccccccccccccsc" /><path
       style="fill:none;stroke:#000000;stroke-width:0.377953;stroke-linejoin:bevel;stroke-opacity:1"
       d="m 210.63042,106.76044 c -10.55372,7.26329 -20.92061,4.83769 -22.65023,7.77688 -6.21265,-7.7614 -16.53965,-0.0752 -18.41539,3.06462 2.80719,3.83511 6.02375,9.82968 10.84942,10.87186 3.08368,4.48927 7.40623,11.87176 3.96033,20.91942 0,0 3.77289,12.32981 30.79595,15.61203"
       id="path4"
       sodipodi:nodetypes="cccccc" /><ellipse
       style="fill:none;stroke:#000000;stroke-width:0.448543;stroke-linejoin:bevel;stroke-opacity:1"
       id="ellipse4"
       cx="180.86873"
       cy="118.88172"
       rx="6.3045597"
       ry="5.9876986" /><ellipse
       style="fill:none;stroke:#000000;stroke-width:0.353224;stroke-linejoin:bevel;stroke-opacity:1"
       id="ellipse5"
       cx="180.89452"
       cy="118.92758"
       rx="4.9483624"
       ry="4.7309232" /><path
       style="fill:none;stroke:#000000;stroke-width:0.377953;stroke-linejoin:bevel;stroke-opacity:1"
       d="m 203.68139,167.42094 c 0,0 5.77735,5.99956 6.66618,8.88824"
       id="path5"
       sodipodi:nodetypes="cc" /><path
       style="fill:none;stroke:#000000;stroke-width:0.377953;stroke-linejoin:bevel;stroke-opacity:1"
       d="m 145.98922,192.43024 -9.11044,17.33205 c 0,0 -0.44441,-5.55514 0,-7.11058 0.44442,-1.55544 0.44442,-1.55544 0.44442,-1.55544"
       id="path6" /><path
       style="fill:none;stroke:#000000;stroke-width:0.377953;stroke-linejoin:bevel;stroke-opacity:1"
       d="m 75.105567,216.87288 -5.33294,13.11014"
       id="path8" /><path
       style="fill:none;stroke:#000000;stroke-width:0.377953;stroke-linejoin:bevel;stroke-opacity:1"
       d="m 62.884247,211.76214 -3.555294,5.11074"
       id="path14" /><path
       style="fill:none;stroke:#000000;stroke-width:0.377953;stroke-linejoin:bevel;stroke-opacity:1"
       d="m 62.884247,218.20611 -4.666323,6.66618"
       id="path15" /><path
       style="fill:none;stroke:#000000;stroke-width:0.377953;stroke-linejoin:bevel;stroke-opacity:1"
       d="m 139.14641,114.92011 -1.457,2.45941 2.85806,-0.41493 -0.25411,2.3242 1.64583,0.47091 -1.92326,3.72992 2.50139,-1.92091 -1.32181,3.66231 1.65982,-0.65507 -0.17718,2.17501 2.4198,-1.39637 -1.76008,2.68087 1.72742,-0.0536 -0.92315,1.79036 3.984,-0.40111 -3.13081,4.24044 2.19832,-1.69943 0.0443,2.47806"
       id="path16" /><path
       style="fill:none;stroke:#000000;stroke-width:0.377953;stroke-linejoin:bevel;stroke-opacity:1"
       d="m 186.59015,168.0492 2.97207,2.05758 -0.22862,-3.42931"
       id="path24" /><path
       style="fill:none;stroke:#000000;stroke-width:0.377953;stroke-linejoin:bevel;stroke-opacity:1"
       d="m 97.95643,172.8765 -7.263718,6.64111 6.641113,-4.1507 -4.7733,5.18837 2.490418,-1.66027 -2.697953,4.7733 7.056184,-7.88633 -2.075349,4.7733 2.905485,-2.07534 -2.905485,4.7733 4.150695,-4.35823"
       id="path25" /><path
       style="fill:none;stroke:#000000;stroke-width:0.377953;stroke-linejoin:bevel;stroke-opacity:1"
       d="m 135.38423,197.12297 c 0,0 -12.78874,36.60225 -31.75135,55.12387"
       id="path40" /><path
       style="fill:none;stroke:#000000;stroke-width:0.377953;stroke-linejoin:bevel;stroke-opacity:1"
       d="m 227.82399,134.48641 c 0,0 -15.05445,-8.17241 -29.67877,-4.7314"
       id="path41"
       sodipodi:nodetypes="cc" /><path
       style="fill:none;stroke:#000000;stroke-width:0.377953;stroke-linejoin:bevel;stroke-opacity:1"
       d="m 208.89839,141.94194 -12.76043,0.86026 -4.44465,-9.31942 3.29764,-1.86389 3.87114,-8.31579 c 0,0 5.73503,-4.15789 7.74229,-4.15789 2.00726,0 4.01452,-5.01815 4.01452,-5.01815 l 2.86752,0.71687"
       id="path42" /></g></svg>
