<?xml version="1.0" encoding="UTF-8" standalone="no"?>
<!-- Created with Inkscape (http://www.inkscape.org/) -->

<svg
   width="256"
   height="256"
   viewBox="0 0 256 256"
   version="1.1"
   id="svg1"
   xml:space="preserve"
   sodipodi:docname="owl.svg"
   inkscape:version="1.4 (e7c3feb1, 2024-10-09)"
   inkscape:export-filename="owl-animation-8.svg"
   inkscape:export-xdpi="96"
   inkscape:export-ydpi="96"
   xmlns:inkscape="http://www.inkscape.org/namespaces/inkscape"
   xmlns:sodipodi="http://sodipodi.sourceforge.net/DTD/sodipodi-0.dtd"
   xmlns:xlink="http://www.w3.org/1999/xlink"
   xmlns="http://www.w3.org/2000/svg"
   xmlns:svg="http://www.w3.org/2000/svg"><sodipodi:namedview
     id="namedview1"
     pagecolor="#ffffff"
     bordercolor="#000000"
     borderopacity="0.25"
     inkscape:showpageshadow="2"
     inkscape:pageopacity="0.0"
     inkscape:pagecheckerboard="0"
     inkscape:deskcolor="#d1d1d1"
     inkscape:document-units="px"
     inkscape:zoom="2.0653193"
     inkscape:cx="127.09899"
     inkscape:cy="131.21457"
     inkscape:window-width="1440"
     inkscape:window-height="847"
     inkscape:window-x="0"
     inkscape:window-y="25"
     inkscape:window-maximized="0"
     inkscape:current-layer="g269" /><defs
     id="defs1" /><g
     inkscape:groupmode="layer"
     id="layer5"
     inkscape:label="Layer 15"><path
       style="display:inline;fill:none;stroke:#000000;stroke-width:0.23211;stroke-linejoin:bevel"
       d="m 102.05236,143.08853 c -11.143378,2.49986 -39.176393,8.2548 -39.176393,8.2548 0,0 8.193421,3.44166 10.209154,2.76976 2.015757,-0.67192 8.202239,-1.82801 8.202239,-1.82801 l -3.918151,2.59867 c 0,0 -2.013877,1.00693 -1.006938,2.01387 1.006938,1.00694 3.146688,4.78297 5.034715,4.78297 1.888003,0 0.725321,7.21894 1.858133,7.09307 1.132811,-0.12581 13.120092,-10.61736 17.651311,-11.37256 1.44491,-0.24082 3.75124,-0.20241 5.45307,0.11535 1.49232,4.41754 5.64157,5.29686 6.75607,5.29686 1.63628,0 4.15363,2.89494 13.21609,3.14667 9.06244,0.25174 22.53026,0.25174 25.04761,0 2.51736,-0.25173 7.80378,1.25868 9.31421,0.75521 1.51042,-0.50347 6.79682,-6.79685 6.79682,-6.79685 0,0 1.75004,-7.0946 -0.26384,-9.23432 1.11807,-1.42515 2.12866,-3.29268 2.65534,-7.50605 0.1258,-1.00695 0.68709,-5.98883 -2.23673,-7.39978 l -2e-5,-7e-5 c -1.6726,-0.23893 -7.90805,-3.1941 -7.90805,-3.1941 0,0 -11.94401,-2.25968 -15.92535,-2.36729 -3.98133,-0.1077 -14.68932,3.09569 -14.68932,3.09569"
       id="path245-1-4-5-7"
       sodipodi:nodetypes="ccsccsssscssssccsssccc" /><path
       style="display:inline;fill:none;stroke:#000000;stroke-width:0.23211;stroke-linejoin:bevel"
       d="m 157.35051,147.73258 c -0.2812,-0.72442 -1.267,-1.64961 -2.0142,-1.8069 -0.7472,-0.15737 -2.15018,0.40656 -2.38614,0.76051 -0.23596,0.35391 0.21261,2.02687 1.00974,2.44615 0.86104,0.4529 2.47752,0.74718 2.71349,0.55056 0.23594,-0.19659 0.63776,-1.36043 0.67711,-1.95032 z"
       id="path246-2-7-3-1"
       sodipodi:nodetypes="cssssc" /><path
       style="display:inline;fill:none;stroke:#000000;stroke-width:0.23211;stroke-linejoin:bevel"
       d="M 130.55125,136.34927 C 128.2808,134.0788 111.96604,114.92708 100.45061,106.74583 54.790992,91.504436 17.374274,92.862823 3.8327071,95.059319 8.831107,98.788668 41.184446,111.90584 57.195245,115.23253 c 0.521706,0.1084 -0.622615,1.80171 0.323007,2.54842 1.482355,0.60658 4.311093,0.15298 4.718486,0.43852 0.524584,0.36768 1.417578,1.64815 2.634272,2.75603 1.176828,0.21207 2.887697,-0.0353 3.901423,-0.71562 4.22319,2.56772 7.973421,5.60792 9.63869,8.02287 -1.168981,0.92737 -1.986474,2.60595 -1.881814,2.94098 2.59972,2.76631 3.298869,2.57724 6.802035,2.58036 4.933883,4.71872 20.229936,9.23532 20.229936,9.23532"
       id="path247-0-8-7-8"
       sodipodi:nodetypes="cccscscccccc" /><path
       style="display:inline;fill:none;stroke:#000000;stroke-width:0.23211;stroke-linejoin:bevel"
       d="m 155.29338,130.50859 c 4.91777,-28.47499 43.15771,-46.73891 40.6295,-89.101103 -6.615,0.425596 -7.76952,6.998204 -23.54785,16.926406 -1.02482,0.644847 -8.08641,1.830808 -9.39815,4.348129 -1.73665,3.332787 -1.4471,7.401698 -2.10742,8.321828 -3.99322,2.233477 -5.71478,3.213081 -10.36786,8.769784 -0.35079,0.418904 -3.18861,-0.275189 -3.91238,0.57769 -0.76466,0.901056 0.58356,3.350587 0.21286,3.799324 -5.02074,6.077674 -15.1288,9.337942 -19.349,12.487407 -8.60327,5.230385 -13.8615,19.181575 -13.8615,19.181575"
       id="path248-4-4-6-9"
       sodipodi:nodetypes="ccsscssscc" /><path
       style="display:inline;fill:none;stroke:#000000;stroke-width:0.23211;stroke-linejoin:bevel"
       d="m 168.24744,136.64559 c -8.80733,0.92717 -3.71211,-2.75645 -14.32749,-0.36425 -8.62078,1.94271 -9.71356,8.86361 -9.71356,8.86361"
       id="path249-4-0-8-3"
       sodipodi:nodetypes="csc" /></g><g
     inkscape:groupmode="layer"
     id="layer4"
     inkscape:label="Layer 14"
     style="display:inline"><path
       style="display:inline;fill:none;stroke:#000000;stroke-width:0.23211;stroke-linejoin:bevel"
       d="m 102.05236,143.08853 c -11.143378,2.49986 -35.662244,8.2548 -35.662244,8.2548 0,0 4.679272,3.44166 6.695005,2.76976 2.015757,-0.67192 8.202239,-1.82801 8.202239,-1.82801 l -3.918151,2.59867 c 0,0 -2.013877,1.00693 -1.006938,2.01387 1.006938,1.00694 3.146688,4.78297 5.034715,4.78297 1.888003,0 3.068087,6.04756 4.200899,5.92169 1.132811,-0.12581 10.777326,-9.44598 15.308545,-10.20118 1.44491,-0.24082 3.75124,-0.20241 5.45307,0.11535 1.49232,4.41754 5.64157,5.29686 6.75607,5.29686 1.63628,0 4.15363,2.89494 13.21609,3.14667 9.06244,0.25174 22.53026,0.25174 25.04761,0 2.51736,-0.25173 7.80378,1.25868 9.31421,0.75521 1.51042,-0.50347 6.79682,-6.79685 6.79682,-6.79685 0,0 1.75004,-7.0946 -0.26384,-9.23432 1.11807,-1.42515 2.12866,-3.29268 2.65534,-7.50605 0.1258,-1.00695 0.68709,-5.98883 -2.23673,-7.39978 l -2e-5,-7e-5 c -1.6726,-0.23893 -7.90805,-3.1941 -7.90805,-3.1941 0,0 -11.94401,-2.25968 -15.92535,-2.36729 -3.98133,-0.1077 -14.68932,3.09569 -14.68932,3.09569"
       id="path245-1-4-5"
       sodipodi:nodetypes="ccsccsssscssssccsssccc" /><path
       style="display:inline;fill:none;stroke:#000000;stroke-width:0.23211;stroke-linejoin:bevel"
       d="m 157.35051,147.73258 c -0.2812,-0.72442 -1.267,-1.64961 -2.0142,-1.8069 -0.7472,-0.15737 -2.15018,0.40656 -2.38614,0.76051 -0.23596,0.35391 0.21261,2.02687 1.00974,2.44615 0.86104,0.4529 2.47752,0.74718 2.71349,0.55056 0.23594,-0.19659 0.63776,-1.36043 0.67711,-1.95032 z"
       id="path246-2-7-3"
       sodipodi:nodetypes="cssssc" /><path
       style="display:inline;fill:none;stroke:#000000;stroke-width:0.23211;stroke-linejoin:bevel"
       d="M 130.55125,136.34927 C 128.2808,134.0788 111.96604,114.92708 100.45061,106.74583 57.102176,88.03766 11.981511,99.796376 12.307049,106.23004 c 4.9984,3.72935 28.877397,5.6758 44.888196,9.00249 16.010799,3.32669 21.103077,15.29954 25.781907,21.05091 2.663784,3.16107 20.584128,6.75597 20.584128,6.75597"
       id="path247-0-8-7"
       sodipodi:nodetypes="ccczcc" /><path
       style="display:inline;fill:none;stroke:#000000;stroke-width:0.23211;stroke-linejoin:bevel"
       d="m 155.29338,130.50859 c 4.91777,-28.47499 38.73922,-62.066319 40.91788,-79.983867 -8.78401,0.565146 -30.22487,18.964941 -33.60228,23.671195 -8.91986,4.989032 -15.04543,12.996292 -35.1559,22.442137 -8.60327,5.230385 -13.8615,19.181575 -13.8615,19.181575"
       id="path248-4-4-6"
       sodipodi:nodetypes="ccccc" /><path
       style="display:inline;fill:none;stroke:#000000;stroke-width:0.23211;stroke-linejoin:bevel"
       d="m 168.24744,136.64559 c -8.80733,0.92717 -3.71211,-2.75645 -14.32749,-0.36425 -8.62078,1.94271 -9.71356,8.86361 -9.71356,8.86361"
       id="path249-4-0-8"
       sodipodi:nodetypes="csc" /></g><g
     inkscape:groupmode="layer"
     id="layer3"
     inkscape:label="Layer 13"
     style="display:inline"><path
       style="display:inline;fill:none;stroke:#000000;stroke-width:0.23211;stroke-linejoin:bevel"
       d="m 101.94772,143.02958 c -11.143378,2.49986 -35.662244,8.2548 -35.662244,8.2548 0,0 4.679272,3.44166 6.695005,2.76976 2.015757,-0.67192 8.202239,-1.82802 8.202239,-1.82802 l -3.918151,2.59868 c 0,0 -2.013877,1.00693 -1.006938,2.01387 1.006938,1.00694 3.146688,4.78297 5.034715,4.78297 1.888003,0 3.068087,6.04756 4.200899,5.92169 1.132811,-0.12581 10.777326,-9.44598 15.308545,-10.20119 1.44491,-0.24081 3.75125,-0.2024 5.45307,0.11536 1.49232,4.41754 5.64156,5.29686 6.75606,5.29686 1.63628,0 4.15364,2.89494 13.2161,3.14666 9.06244,0.25175 22.53026,0.25175 25.04761,0 2.51736,-0.25172 7.80378,1.25869 9.31421,0.75522 1.51042,-0.50347 6.79682,-6.79685 6.79682,-6.79685 0,0 1.75004,-7.0946 -0.26384,-9.23432 1.11807,-1.42515 2.12866,-3.29268 2.65534,-7.50606 0.1258,-1.00694 0.68709,-5.98882 -2.23673,-7.39977 l -2e-5,-7e-5 c -1.67261,-0.23893 -7.90805,-3.1941 -7.90805,-3.1941 0,0 -11.94401,-2.25968 -15.92535,-2.36729 -3.98133,-0.1077 -14.68932,3.09569 -14.68932,3.09569"
       id="path245-1-4"
       sodipodi:nodetypes="ccsccsssscssssccsssccc" /><path
       style="display:inline;fill:none;stroke:#000000;stroke-width:0.23211;stroke-linejoin:bevel"
       d="m 157.35051,147.73258 c -0.2812,-0.72442 -1.267,-1.64961 -2.01421,-1.8069 -0.74719,-0.15737 -2.15017,0.40656 -2.38613,0.76051 -0.23596,0.35391 0.21261,2.02687 1.00974,2.44615 0.86104,0.4529 2.47752,0.74718 2.71348,0.55056 0.23595,-0.19659 0.63777,-1.36043 0.67712,-1.95032 z"
       id="path246-2-7"
       sodipodi:nodetypes="cssssc" /><path
       style="display:inline;fill:none;stroke:#000000;stroke-width:0.23211;stroke-linejoin:bevel"
       d="m 130.44661,136.29032 c -2.27045,-2.27047 -18.58521,-21.4222 -30.10063,-29.60344 -42.918663,-11.831684 -83.526631,6.15885 -83.201093,12.59252 4.998399,3.72935 23.720029,-4.20915 39.730828,-0.88247 16.010799,3.32669 21.317967,12.07619 25.996797,17.82756 2.663784,3.16107 25.741488,7.40064 25.741488,7.40064"
       id="path247-0-8"
       sodipodi:nodetypes="ccczcc" /><path
       style="display:inline;fill:none;stroke:#000000;stroke-width:0.257726;stroke-linejoin:bevel"
       d="m 159.72806,130.44882 c 2.35481,-31.668755 42.70675,-62.096923 45.59838,-74.376349 -9.73765,0.628533 -33.50626,21.092056 -37.25032,26.326165 -5.6003,-0.665202 -16.91708,-0.124582 -39.21086,10.380713 -9.5373,5.817032 -15.36638,21.332991 -15.36638,21.332991"
       id="path248-4-4"
       sodipodi:nodetypes="ccccc" /><path
       style="display:inline;fill:none;stroke:#000000;stroke-width:0.23211;stroke-linejoin:bevel"
       d="m 168.24744,136.64558 c -8.80727,0.9272 -3.7121,-2.75644 -14.32749,-0.36424 -8.62078,1.94271 -9.71356,8.86361 -9.71356,8.86361"
       id="path249-4-0"
       sodipodi:nodetypes="csc" /></g><g
     inkscape:groupmode="layer"
     id="layer2"
     inkscape:label="Layer 12"
     style="display:inline"><path
       style="display:inline;fill:none;stroke:#000000;stroke-width:0.23211;stroke-linejoin:bevel"
       d="m 102.05236,143.08854 c -11.143378,2.49986 -30.460314,7.35011 -30.460314,7.35011 0,0 2.086433,2.63694 4.102166,1.96504 2.015757,-0.67192 5.593148,-0.11861 5.593148,-0.11861 l -3.918151,2.59868 c 0,0 -2.013877,1.00693 -1.006938,2.01387 1.006938,1.00694 3.146688,4.78297 5.034715,4.78297 1.888003,0 3.663866,4.9553 4.796677,4.82943 1.132812,-0.12581 10.181548,-8.35372 14.712767,-9.10893 1.44491,-0.24081 3.75124,-0.2024 5.45307,0.11536 1.49232,4.41754 5.64157,5.29686 6.75607,5.29686 1.63628,0 4.15363,2.89494 13.21609,3.14666 9.06244,0.25175 22.53026,0.25175 25.04761,0 2.51736,-0.25172 7.80378,1.25869 9.31421,0.75522 1.51042,-0.50347 6.79682,-6.79685 6.79682,-6.79685 0,0 1.75004,-7.0946 -0.26384,-9.23432 1.11807,-1.42515 2.12866,-3.29268 2.65534,-7.50606 0.1258,-1.00694 0.68709,-5.98882 -2.23673,-7.39977 l -2e-5,-7e-5 c -1.6726,-0.23893 -7.90805,-3.1941 -7.90805,-3.1941 0,0 -11.94401,-2.25968 -15.92535,-2.36729 -3.98133,-0.1077 -14.68932,3.09569 -14.68932,3.09569"
       id="path245-1"
       sodipodi:nodetypes="ccsccsssscssssccsssccc" /><path
       style="display:inline;fill:none;stroke:#000000;stroke-width:0.23211;stroke-linejoin:bevel"
       d="m 157.35051,147.73258 c -0.2812,-0.72442 -1.267,-1.64961 -2.0142,-1.8069 -0.7472,-0.15737 -2.15018,0.40656 -2.38614,0.76051 -0.23596,0.35391 0.21261,2.02687 1.00974,2.44615 0.86104,0.4529 2.47752,0.74718 2.71349,0.55056 0.23594,-0.19659 0.63776,-1.36043 0.67711,-1.95032 z"
       id="path246-2"
       sodipodi:nodetypes="cssssc" /><path
       style="display:inline;fill:none;stroke:#000000;stroke-width:0.23211;stroke-linejoin:bevel"
       d="m 130.55125,136.34928 c -2.27045,-2.27047 -3.88411,-10.33983 -15.39953,-18.52107 -39.299924,-10.47466 -62.040395,14.07483 -61.714856,20.5085 4.9984,3.72935 20.843314,-16.91978 54.884276,-18.74996 M 70.641161,130.1836 c 1.57187,1.57186 18.484288,4.53481 16.633237,6.09985 2.663784,3.16107 14.206782,5.81744 14.206782,5.81744"
       id="path247-0"
       sodipodi:nodetypes="ccccccc" /><path
       style="display:inline;fill:none;stroke:#000000;stroke-width:0.23211;stroke-linejoin:bevel"
       d="m 161.54224,132.14011 c 0,0 6.68974,-5.89564 8.14993,-6.34329 11.47235,-3.51717 21.05386,1.74746 35.13263,10.81839 3.16069,2.03642 21.28062,4.40199 22.36058,-4.00006 1.84603,-14.36213 -27.14767,-37.921203 -28.85268,-37.847277 -18.82001,0.816004 -31.78352,-0.75749 -51.89398,8.688357 -8.60329,5.23038 -16.78901,25.48132 -16.78901,25.48132"
       id="path248-4"
       sodipodi:nodetypes="csssscc" /><path
       style="display:inline;fill:none;stroke:#000000;stroke-width:0.23211;stroke-linejoin:bevel"
       d="m 168.24744,136.64558 c -8.80727,0.9272 -3.7121,-2.75644 -14.32749,-0.36424 -8.62078,1.94271 -9.71356,8.86361 -9.71356,8.86361"
       id="path249-4"
       sodipodi:nodetypes="csc" /><path
       style="fill:none;stroke:#000000;stroke-width:0.348121;stroke-linejoin:bevel"
       d="m 153.19484,126.41637 c 0,0 9.68063,-32.38002 43.06209,-25.36991"
       id="path1" /></g><g
     inkscape:groupmode="layer"
     id="layer1"
     inkscape:label="Layer 11"
     style="display:inline"><path
       style="display:inline;fill:none;stroke:#000000;stroke-width:0.23211;stroke-linejoin:bevel"
       d="m 93.419874,163.82644 c 30.730226,6.19977 55.750596,1.95119 58.267936,1.69943 2.51737,-0.25171 7.80379,1.25869 9.31422,0.75523 1.51041,-0.50347 6.79681,-6.79686 6.79681,-6.79686 0,0 1.75005,-7.09459 -0.26383,-9.23432 1.11807,-1.42515 2.12865,-3.29267 2.65534,-7.50605 0.1258,-1.00694 0.68708,-5.98882 -2.23673,-7.39977 l -3e-5,-8e-5 c -0.50175,-1.50518 -7.90805,-3.19411 -7.90805,-3.19411 0,0 -10.21071,-2.65105 -15.92534,-2.36728 -2.45089,-0.0664 -7.83715,0.78083 -14.63552,2.75334"
       id="path175-5"
       sodipodi:nodetypes="cssccsssccc" /><path
       style="display:inline;fill:none;stroke:#000000;stroke-width:0.23211;stroke-linejoin:bevel"
       d="m 157.35051,147.73257 c -0.2812,-0.72441 -1.267,-1.6496 -2.0142,-1.8069 -0.74719,-0.15736 -2.15017,0.40657 -2.38614,0.76051 -0.23596,0.35392 0.21261,2.02687 1.00975,2.44616 0.86103,0.45289 2.47752,0.74718 2.71348,0.55056 0.23595,-0.19659 0.63776,-1.36044 0.67711,-1.95033 z"
       id="path176-8"
       sodipodi:nodetypes="cssssc" /><path
       style="display:inline;fill:none;stroke:#000000;stroke-width:0.23211;stroke-linejoin:bevel"
       d="m 128.62401,133.42079 c -23.0432,-10.97205 -49.05887,0.24528 -59.26673,5.53748 1.028756,1.06067 -7.594528,4.3658 -13.007172,11.61296 -1.220639,8.03266 2.683919,7.59118 3.04377,10.74557 0.678018,5.94341 -1.196188,12.01393 0.833096,24.22545 -2.513566,3.54453 -1.484768,2.67651 -3.156818,12.42067 1.726953,8.8216 5.7386,9.83939 7.867742,9.75984 0.11443,2.9212 7.093024,-7.68832 11.053289,-21.26657 2.811885,-8.37333 10.944371,-16.65688 15.002956,-19.42433 3.065277,-5.88478 11.560827,-29.07465 22.987167,-33.28111 10.15176,1.10427 16.18328,6.57676 16.18328,6.57676"
       id="path177-6"
       sodipodi:nodetypes="cccsccccccc" /><path
       style="display:inline;fill:none;stroke:#000000;stroke-width:0.23211;stroke-linejoin:bevel"
       d="m 167.69644,161.97732 c 0,0 5.75656,9.50512 16.66657,14.34712 7.91755,3.51389 26.85294,20.37192 27.27731,11.21987 1.59278,2.39914 3.08577,4.70868 7.86604,5.30659 1.88757,-2.00258 1.6418,-4.28512 2.89933,-6.5234 1.90701,2.90527 4.84791,5.90989 6.9072,6.55174 2.56472,0.41462 3.86927,-5.00052 4.34924,-9.12907 1.46851,-5.50306 -1.65987,-15.44009 -6.14418,-20.51259 2.50971,0.64597 4.38019,-0.43308 6.86615,-0.60732 -11.79054,-30.53144 -38.02274,-40.15648 -38.97727,-40.70189 -29.33853,-16.76387 -53.60455,5.32916 -59.06431,8.32888"
       id="path178-2"
       sodipodi:nodetypes="cscccccccsc" /><path
       style="display:inline;fill:none;stroke:#000000;stroke-width:0.23211;stroke-linejoin:bevel"
       d="m 168.24743,136.64558 c -8.80734,0.92717 -3.7121,-2.75646 -14.32748,-0.36425 -8.62079,1.94271 -9.71356,8.86362 -9.71356,8.86362"
       id="path179-5"
       sodipodi:nodetypes="csc" /></g><g
     inkscape:groupmode="layer"
     id="layer10"
     inkscape:label="Layer 10"
     style="display:inline"><path
       style="display:inline;fill:none;stroke:#000000;stroke-width:0.23211;stroke-linejoin:bevel"
       d="m 157.35051,147.73258 c -0.2812,-0.72441 -1.26699,-1.64961 -2.01419,-1.8069 -0.74719,-0.15738 -2.15018,0.40656 -2.38615,0.76051 -0.23596,0.35391 0.21262,2.02687 1.00975,2.44615 0.86103,0.4529 2.47752,0.74719 2.71348,0.55057 0.23594,-0.1966 0.63777,-1.36045 0.67711,-1.95033 z"
       id="path135"
       sodipodi:nodetypes="cssssc" /><path
       style="display:inline;fill:none;stroke:#000000;stroke-width:0.23211;stroke-linejoin:bevel"
       d="m 82.994182,147.8175 c -5.634301,5.22365 -7.547929,10.67347 -10.010497,17.11777 3.052126,2.64134 4.404583,7.36623 5.509148,15.62203 2.430211,4.54078 -0.02901,11.72768 0.391337,15.4267 0.88176,4.18358 1.685139,7.80629 4.523237,15.1125 1.765287,2.5556 8.453436,4.31696 10.582578,4.23742 1.101059,-6.65015 4.599257,-12.12453 14.625575,-38.41387 6.48561,-17.00543 4.43202,-15.39649 8.65002,-27.44129 3.61452,-4.96901 13.33991,-7.79989 13.33991,-7.79989"
       id="path136"
       sodipodi:nodetypes="ccccccscc" /><path
       style="display:inline;fill:none;stroke:#000000;stroke-width:0.23211;stroke-linejoin:bevel"
       d="m 157.84149,167.2953 c 0,0 3.58161,1.47166 7.44983,3.61485 1.7492,7.92222 5.45335,4.74784 7.46455,2.05678 1.48259,8.50244 8.31887,11.33647 11.45029,11.76936 2.33093,5.19715 6.3591,5.61522 9.50247,6.14973 1.59278,1.80434 6.5012,5.35804 11.45143,4.85137 6.57607,12.56006 8.23351,5.76905 9.01733,2.82695 2.56474,0.41462 2.91233,7.62186 5.68647,4.85281 4.06698,-9.33259 3.83557,-16.08875 0.9176,-26.65951 1.25055,0.55599 2.85744,1.31325 4.67128,1.61195 -1.25172,-9.94337 -11.5964,-22.65908 -19.24754,-29.17716 -23.89381,-20.35531 -33.37317,-22.80566 -52.63809,-19.15755"
       id="path137"
       sodipodi:nodetypes="ccccccccccsc" /><path
       style="display:inline;fill:none;stroke:#000000;stroke-width:0.23211;stroke-linejoin:bevel"
       d="m 113.29009,162.57106 c 1.63628,0 4.15363,2.89495 13.21609,3.14667 9.06245,0.25175 22.53027,0.25175 25.04762,0 2.51736,-0.25172 7.80378,1.25868 9.31421,0.75522 1.5104,-0.50347 6.79682,-6.79685 6.79682,-6.79685 0,0 1.75004,-7.09459 -0.26384,-9.23432 1.11807,-1.42515 2.12866,-3.29268 2.65533,-7.50606 0.1258,-1.00694 0.68709,-5.98882 -2.23672,-7.39976 l -2e-5,-8e-5 c -1.67261,-0.23893 -7.90805,-3.1941 -7.90805,-3.1941 0,0 -11.94402,-2.25969 -15.92535,-2.36729 -3.98133,-0.1077 -2.40544,-0.37307 -12.00652,1.3636 -9.60108,1.73666 -26.33907,8.16373 -31.3882,9.93623 -5.049125,1.77248 -29.868338,4.74661 -29.868338,4.74661 l 0.436064,1.31848 c 0,0 3.807528,5.15135 5.823262,4.47943 2.015756,-0.67191 0.561288,2.82266 0.561288,2.82266"
       id="path139"
       sodipodi:nodetypes="csssccssscczzccsc" /><path
       style="display:inline;fill:none;stroke:#000000;stroke-width:0.01;stroke-linejoin:bevel;stroke-dasharray:none"
       d="m 168.2184,136.59264 c -8.85101,0.93183 -3.71301,-2.76222 -14.35133,-0.36485 -8.63513,1.94594 -9.72971,8.87839 -9.72971,8.87839"
       id="path294-5"
       sodipodi:nodetypes="csc" /></g><g
     inkscape:groupmode="layer"
     id="g179"
     inkscape:label="Layer 9"
     style="display:inline"><path
       style="display:inline;fill:none;stroke:#000000;stroke-width:0.23211;stroke-linejoin:bevel"
       d="m 124.85941,165.52587 c 9.06244,0.25176 24.31106,0.25176 26.8284,0 2.51737,-0.25171 7.80379,1.25869 9.31422,0.75523 1.51041,-0.50347 6.79681,-6.79686 6.79681,-6.79686 0,0 1.75005,-7.09459 -0.26383,-9.23432 1.11807,-1.42515 2.12865,-3.29267 2.65534,-7.50605 0.1258,-1.00694 0.68708,-5.98882 -2.23673,-7.39977 l -3e-5,-8e-5 c -0.50175,-1.50518 -7.90805,-3.19411 -7.90805,-3.19411 0,0 -10.21071,-2.65105 -15.92534,-2.36728 -2.45089,-0.0664 -23.21428,5.98192 -35.89214,8.85896 -11.645433,2.64276 -29.715958,9.29012 -29.715958,9.29012"
       id="path175"
       sodipodi:nodetypes="cssccsssccsc" /><path
       style="display:inline;fill:none;stroke:#000000;stroke-width:0.23211;stroke-linejoin:bevel"
       d="m 157.35051,147.73257 c -0.2812,-0.72441 -1.267,-1.6496 -2.0142,-1.8069 -0.74719,-0.15736 -2.15017,0.40657 -2.38614,0.76051 -0.23596,0.35392 0.21261,2.02687 1.00975,2.44616 0.86103,0.45289 2.47752,0.74718 2.71348,0.55056 0.23595,-0.19659 0.63776,-1.36044 0.67711,-1.95033 z"
       id="path176"
       sodipodi:nodetypes="cssssc" /><path
       style="display:inline;fill:none;stroke:#000000;stroke-width:0.23211;stroke-linejoin:bevel"
       d="m 129.04887,142.55526 c -21.76863,-5.02405 -41.836274,5.556 -52.044134,10.8482 1.028756,1.06067 7.275525,-1.58222 14.183783,-1.34522 -11.204818,3.78407 -12.923242,25.87309 -12.463572,29.01449 0.465589,3.18183 3.477258,13.50093 4.019537,13.60399 1.73502,3.75695 1.276812,8.62452 -0.395237,18.36868 0.877236,1.17414 0.852725,3.46651 2.981867,3.38696 0.11443,2.9212 2.632008,4.63259 3.830692,4.43739 -0.374555,9.47073 2.872056,4.58604 4.381489,3.30561 1.064594,-0.90309 1.510013,3.36086 1.956662,4.31887 0.31467,0.6749 0.888377,0.41631 0.888377,0.41631 0,0 3.474728,-2.39308 4.121546,-3.10396 2.89747,-3.18436 8.60698,-5.1192 14.88371,-15.71942 9.27317,-15.66065 7.74048,-41.14384 8.87575,-58.32652 3.61453,-4.969 7.9965,-7.38884 7.9965,-7.38884"
       id="path177"
       sodipodi:nodetypes="cccsccccsccsscc" /><path
       style="display:inline;fill:none;stroke:#000000;stroke-width:0.23211;stroke-linejoin:bevel"
       d="m 158.06321,167.11101 c 0,0 11.14118,17.54205 12.27946,18.56032 6.45609,5.77529 23.70911,15.31629 26.8525,15.85079 1.59279,1.80436 6.31465,7.13039 11.26487,6.62369 5.73654,8.82888 8.71698,3.69557 9.59409,2.15264 2.56472,0.41462 4.12424,7.87273 6.8984,5.10369 1.4685,-5.50306 -1.65987,-15.44009 -6.14419,-20.51259 2.50972,0.64597 4.3802,-0.43308 6.86616,-0.60732 -3.08094,-6.10207 -9.76722,-13.5131 -10.4674,-14.36065 -19.99164,-24.1989 -31.36104,-28.6591 -44.4067,-34.15699"
       id="path178"
       sodipodi:nodetypes="csccccccsc" /><path
       style="display:inline;fill:none;stroke:#000000;stroke-width:0.23211;stroke-linejoin:bevel"
       d="m 168.24743,136.64558 c -8.80734,0.92717 -3.7121,-2.75646 -14.32748,-0.36425 -8.62079,1.94271 -9.71356,8.86362 -9.71356,8.86362"
       id="path179"
       sodipodi:nodetypes="csc" /></g><g
     inkscape:groupmode="layer"
     id="g194"
     inkscape:label="Layer 8"
     style="display:inline"><path
       style="display:inline;fill:none;stroke:#000000;stroke-width:0.23211;stroke-linejoin:bevel"
       d="m 124.91205,165.72962 c 9.06245,0.25175 24.31105,0.25175 26.8284,0 2.51737,-0.25172 7.80379,1.25869 9.31422,0.75522 1.51041,-0.50347 6.79682,-6.79685 6.79682,-6.79685 0,0 1.75004,-7.0946 -0.26384,-9.23433 1.11807,-1.42515 2.12865,-3.29267 2.65534,-7.50605 0.1258,-1.00693 0.68709,-5.98881 -2.23673,-7.39977 l -3e-5,-7e-5 c -0.50172,-1.5052 -7.90804,-3.1941 -7.90804,-3.1941 0,0 -10.21069,-2.65109 -15.92535,-2.36729 -2.45087,-0.0664 -23.12853,6.06761 -35.80641,8.94469 -11.645426,2.64272 -22.998766,4.61648 -22.998766,4.61648"
       id="path185"
       sodipodi:nodetypes="cssccsssccsc" /><path
       style="display:inline;fill:none;stroke:#000000;stroke-width:0.23211;stroke-linejoin:bevel"
       d="m 157.35052,147.73258 c -0.2812,-0.72441 -1.267,-1.6496 -2.01422,-1.8069 -0.74718,-0.15737 -2.15016,0.40656 -2.38612,0.7605 -0.23597,0.35393 0.21261,2.02688 1.00974,2.44617 0.86104,0.45288 2.47751,0.74717 2.71348,0.55056 0.23595,-0.19659 0.63777,-1.36045 0.67712,-1.95033 z"
       id="path186"
       sodipodi:nodetypes="cssssc" /><path
       style="display:inline;fill:none;stroke:#000000;stroke-width:0.23211;stroke-linejoin:bevel"
       d="m 129.10154,142.75898 c -21.76864,-5.02403 -43.875255,4.09962 -52.044147,10.84821 1.028758,1.06067 7.275502,-2.1648 14.183783,-1.92776 -11.204817,3.78406 -20.649036,21.7448 -20.189342,24.88622 0.465588,3.1818 4.375755,3.92965 4.918032,4.03274 -5.317911,3.19271 0.421419,16.26618 -6.946738,20.02568 2.094462,11.2945 15.907102,21.44835 17.242453,21.89505 16.110869,0.14297 23.357449,-12.15338 28.426909,-16.37376 11.15517,-9.28676 6.23305,-35.49084 12.83289,-50.2239 3.99138,-4.02683 7.99648,-9.4616 7.99648,-9.4616"
       id="path187"
       sodipodi:nodetypes="cccscccscc" /><path
       style="display:inline;fill:none;stroke:#000000;stroke-width:0.23211;stroke-linejoin:bevel"
       d="m 162.23172,166.97174 c 0,0 22.96413,14.70498 24.28396,15.47345 8.06828,4.69776 26.11008,13.45347 41.79763,12.50222 7.90486,-0.47933 24.5551,-13.28647 19.22467,-16.52064 -17.15959,8.23035 -28.85611,0.37117 -30.37998,-0.87768 -20.26278,-16.60587 -33.25928,-26.08288 -46.30494,-31.58078"
       id="path188"
       sodipodi:nodetypes="csscsc" /><path
       style="display:inline;fill:none;stroke:#000000;stroke-width:0.23211;stroke-linejoin:bevel"
       d="m 168.24744,136.64559 c -8.8074,0.92714 -3.71211,-2.75645 -14.32749,-0.36426 -8.62079,1.94272 -9.71356,8.86363 -9.71356,8.86363"
       id="path189"
       sodipodi:nodetypes="csc" /></g><g
     inkscape:groupmode="layer"
     id="g209"
     inkscape:label="Layer 7"
     style="display:inline"><path
       style="display:inline;fill:none;stroke:#000000;stroke-width:0.23211;stroke-linejoin:bevel"
       d="m 124.76675,165.58207 c 9.06244,0.25175 24.31106,0.25175 26.82841,0 2.51736,-0.25173 7.80378,1.25868 9.31421,0.75521 1.5104,-0.50346 6.79681,-6.79685 6.79681,-6.79685 0,0 1.75005,-7.09459 -0.26383,-9.23432 1.11807,-1.42515 2.12865,-3.29268 2.65534,-7.50605 0.1258,-1.00694 0.68708,-5.98883 -2.23673,-7.39978 l -3e-5,-7e-5 c -0.50172,-1.50518 -7.90804,-3.1941 -7.90804,-3.1941 0,0 -10.21072,-2.65107 -15.92535,-2.36729 -2.45089,-0.0664 -23.4714,6.49624 -36.14928,9.37328 -11.645433,2.64277 -22.313014,4.61653 -22.313014,4.61653"
       id="path200"
       sodipodi:nodetypes="cssccsssccsc" /><path
       style="display:inline;fill:none;stroke:#000000;stroke-width:0.23211;stroke-linejoin:bevel"
       d="m 157.35051,147.73257 c -0.28119,-0.72442 -1.26699,-1.6496 -2.01419,-1.8069 -0.74719,-0.15737 -2.15018,0.40656 -2.38614,0.7605 -0.23596,0.35393 0.21261,2.02688 1.00975,2.44616 0.86104,0.4529 2.47752,0.74719 2.71348,0.55057 0.23594,-0.19661 0.63776,-1.36045 0.6771,-1.95033 z"
       id="path201"
       sodipodi:nodetypes="cssssc" /><path
       style="display:inline;fill:none;stroke:#000000;stroke-width:0.23211;stroke-linejoin:bevel"
       d="m 128.95624,142.61144 c -24.55897,-1.91174 -45.270417,3.02642 -53.439309,9.77501 1.028757,1.06067 1.749643,1.69839 7.26276,1.72076 -9.54159,6.09114 -12.210875,12.41553 -13.321798,15.38967 -2.270697,6.07907 1.917063,3.83909 2.459318,3.94215 -5.317898,3.19271 -7.578082,15.24831 -8.529096,19.619 1.204247,2.09551 10.565789,18.03581 11.901139,18.48251 12.846692,4.29727 28.698766,-6.66367 33.768246,-10.88405 11.15514,-9.28676 12.01947,-34.74898 18.6193,-49.48205 3.99139,-4.02683 7.69975,-4.86212 7.69975,-4.86212"
       id="path202"
       sodipodi:nodetypes="cccscccscc" /><path
       style="display:inline;fill:none;stroke:#000000;stroke-width:0.23211;stroke-linejoin:bevel"
       d="m 170.02186,149.97361 c 0,0 18.35357,7.07824 19.67343,7.84673 10.74206,6.25455 25.53175,21.86979 40.48017,18.84981 3.68544,-0.74455 18.00867,-3.05609 17.56958,-8.33092 -6.74799,1.31646 -18.49784,0.38686 -20.40407,-0.11118 -26.2436,-6.85567 -45.71482,-22.46727 -55.51302,-24.76151"
       id="path203"
       sodipodi:nodetypes="csccsc" /><path
       style="display:inline;fill:none;stroke:#000000;stroke-width:0.01;stroke-linejoin:bevel;stroke-dasharray:none"
       d="m 168.2184,136.59264 c -8.85101,0.93183 -3.71301,-2.76222 -14.35133,-0.36485 -8.63513,1.94594 -9.72971,8.87839 -9.72971,8.87839"
       id="path294-0"
       sodipodi:nodetypes="csc" /></g><g
     inkscape:groupmode="layer"
     id="g224"
     inkscape:label="Layer 6"
     style="display:inline"><path
       style="display:inline;fill:none;stroke:#000000;stroke-width:0.23211;stroke-linejoin:bevel"
       d="m 110.4242,162.02147 c 1.55397,0.51245 6.80312,3.51029 15.86557,3.76201 9.06245,0.25175 22.53027,0.25175 25.04761,0 2.51737,-0.25172 7.80379,1.25868 9.31422,0.75522 1.51041,-0.50347 6.79682,-6.79685 6.79682,-6.79685 0,0 1.75004,-7.09459 -0.26384,-9.23432 1.11808,-1.42515 2.12866,-3.29269 2.65534,-7.50606 0.12581,-1.00694 0.68709,-5.98883 -2.23673,-7.39977 l -2e-5,-7e-5 c -1.67261,-0.23894 -7.90805,-3.19411 -7.90805,-3.19411 0,0 -11.94402,-2.25968 -15.92535,-2.36729 -20.89964,5.34242 -35.33782,8.22229 -46.56167,11.20159 -13.555261,3.59817 -26.101289,2.65924 -26.101289,2.65924"
       id="path215"
       sodipodi:nodetypes="csssccsssccsc" /><path
       style="display:inline;fill:none;stroke:#000000;stroke-width:0.23211;stroke-linejoin:bevel"
       d="m 157.35051,147.73258 c -0.2812,-0.72441 -1.267,-1.64961 -2.0142,-1.8069 -0.74719,-0.15738 -2.15017,0.40656 -2.38614,0.76051 -0.23596,0.35391 0.21262,2.02687 1.00975,2.44615 0.86104,0.4529 2.47752,0.74719 2.71348,0.55056 0.23595,-0.1966 0.63777,-1.36043 0.67711,-1.95032 z"
       id="path216"
       sodipodi:nodetypes="cssssc" /><path
       style="display:inline;fill:none;stroke:#000000;stroke-width:0.23211;stroke-linejoin:bevel"
       d="m 130.50937,136.17289 c -2.27046,-2.27047 -18.16769,1.23532 -30.08552,5.84314 -18.622906,2.29643 -21.040305,4.12261 -26.041759,4.54554 -7.732441,0.17454 -11.26307,3.92907 -11.088419,4.80154 -1.089723,1.35953 -1.186996,4.63873 -1.186996,4.63873 0,0 -12.642887,2.58572 -14.22355,10.60041 1.204248,2.09553 5.313198,9.32387 6.650971,9.76325 10.633383,3.49244 35.78214,0.0824 37.881549,-0.64828 13.703914,-4.76988 14.195614,-6.86629 18.962064,-16.60613 12.36789,-12.60806 22.63435,-13.4097 22.63435,-13.4097"
       id="path217"
       sodipodi:nodetypes="ccccccsscc" /><path
       style="display:inline;fill:none;stroke:#000000;stroke-width:0.23211;stroke-linejoin:bevel"
       d="m 170.39861,146.26853 c 0,0 8.69199,0.89856 14.20555,-0.0676 10.39573,-1.82148 29.35665,13.18538 45.91522,7.12397 3.53081,-1.29247 15.74762,-6.52295 16.96502,-11.48924 3.44748,-14.06393 1.30745,-11.82683 0.11954,-10.60159 -14.34081,14.79015 -39.88446,-4.8079 -89.92917,-0.30139"
       id="path218"
       sodipodi:nodetypes="cssssc" /><path
       style="display:inline;fill:none;stroke:#000000;stroke-width:0.23211;stroke-linejoin:bevel"
       d="m 168.24743,136.64558 c -8.80725,0.9272 -3.71209,-2.75644 -14.32748,-0.36424 -8.62078,1.94271 -9.71356,8.86361 -9.71356,8.86361"
       id="path219"
       sodipodi:nodetypes="csc" /></g><g
     inkscape:groupmode="layer"
     id="g239"
     inkscape:label="Layer 5"
     style="display:inline"><path
       style="fill:none;stroke:#000000;stroke-width:0.23211;stroke-linejoin:bevel"
       d="m 79.170906,153.61852 -1.766216,1.24845 c 0,0 -2.013877,1.00694 -1.006938,2.01388 1.006938,1.00694 3.146688,4.78297 5.034715,4.78297 1.888003,0 2.061854,4.3145 3.194665,4.18862 1.132811,-0.1258 11.78356,-7.71291 16.314778,-8.46813 1.44491,-0.24081 3.75124,-0.20239 5.45307,0.11537 1.49233,4.41753 5.64157,5.29685 6.75607,5.29685 1.63628,0 4.15362,2.89494 13.21608,3.14666 9.06245,0.25175 22.53027,0.25175 25.04762,0 2.51736,-0.25172 7.80378,1.25869 9.31421,0.75523 1.51041,-0.50348 6.79681,-6.79685 6.79681,-6.79685 0,0 1.75005,-7.0946 -0.26383,-9.23433 1.11807,-1.42515 2.12866,-3.29268 2.65534,-7.50605 0.1258,-1.00694 0.68709,-5.98883 -2.23673,-7.39977 l -2e-5,-7e-5 c -1.67261,-0.23894 -7.90806,-3.19411 -7.90806,-3.19411 0,0 -11.94401,-2.25968 -15.92534,-2.36729 -16.92502,3.40682 -29.08668,6.94435 -29.08668,6.94435"
       id="path230"
       sodipodi:nodetypes="ccsssscssssccsssccc" /><path
       style="fill:none;stroke:#000000;stroke-width:0.23211;stroke-linejoin:bevel"
       d="m 157.35051,147.73258 c -0.2812,-0.72441 -1.267,-1.6496 -2.0142,-1.80691 -0.74719,-0.15736 -2.15017,0.40657 -2.38614,0.76051 -0.23596,0.35392 0.21261,2.02687 1.00975,2.44615 0.86103,0.4529 2.47752,0.74719 2.71348,0.55057 0.23595,-0.1966 0.63776,-1.36044 0.67711,-1.95032 z"
       id="path231"
       sodipodi:nodetypes="cssssc" /><path
       style="fill:none;stroke:#000000;stroke-width:0.23211;stroke-linejoin:bevel"
       d="m 130.58673,136.33259 c -2.27046,-2.27048 -13.13746,-0.67618 -24.65288,-4.01614 -23.451922,-3.23685 -45.292494,1.82455 -50.293948,2.24751 -7.732436,0.17455 -22.301912,-1.56607 -22.127261,-0.69359 0.17464,0.87324 6.427838,4.82926 6.427838,4.82926 l -5.344939,1.02535 c 0,0 4.359763,1.38478 4.883714,2.25802 0.523953,0.87326 7.539699,3.01153 7.539699,3.01153 0,0 4.865878,0.79351 6.731824,0.53632 1.204248,2.09553 3.520963,4.36076 4.858734,4.80014 10.633389,3.49244 18.111616,1.22647 19.683463,2.79833 1.57187,1.57187 18.055814,-6.17697 16.204762,-4.61192 20.088314,-10.26438 35.869334,-4.86215 35.869334,-4.86215"
       id="path232"
       sodipodi:nodetypes="cccccccccsscc" /><path
       style="fill:none;stroke:#000000;stroke-width:0.23211;stroke-linejoin:bevel"
       d="m 171.2727,139.06359 c 0,0 8.71456,-2.67727 10.19136,-3.06663 10.20533,-2.69081 29.82549,-5.86082 46.38409,-11.92222 3.53078,-1.29249 15.47276,-6.52296 16.55271,-14.925 1.84607,-14.362139 -4.00491,-16.305849 -5.10288,-14.999327 -14.34081,17.064677 -73.95387,23.346377 -92.33962,35.722547"
       id="path233"
       sodipodi:nodetypes="cssssc" /><path
       style="fill:none;stroke:#000000;stroke-width:0.23211;stroke-linejoin:bevel"
       d="m 168.24743,136.64558 c -8.80733,0.92717 -3.7121,-2.75645 -14.32748,-0.36424 -8.62078,1.9427 -9.71356,8.86362 -9.71356,8.86362"
       id="path234"
       sodipodi:nodetypes="csc" /></g><g
     inkscape:groupmode="layer"
     id="g254"
     inkscape:label="Layer 4"
     style="display:inline"><path
       style="fill:none;stroke:#000000;stroke-width:0.23211;stroke-linejoin:bevel"
       d="m 100.93097,142.28754 c -11.143381,2.49986 -30.460317,7.35011 -30.460317,7.35011 0,0 3.207826,3.43794 5.223559,2.76604 2.015757,-0.67192 5.593148,-0.11861 5.593148,-0.11861 l -3.918151,2.59868 c 0,0 -2.013877,1.00693 -1.006938,2.01387 1.006938,1.00694 3.146688,4.78297 5.034715,4.78297 1.888003,0 2.061876,4.3145 3.194688,4.18863 1.132811,-0.12581 11.783537,-7.71292 16.314756,-8.46813 1.44491,-0.24081 3.75124,-0.2024 5.45307,0.11536 1.49232,4.41754 5.64157,5.29686 6.75607,5.29686 1.63628,0 4.15363,2.89494 13.21609,3.14666 9.06244,0.25175 22.53026,0.25175 25.04761,0 2.51736,-0.25172 7.80378,1.25869 9.31421,0.75522 1.51042,-0.50347 6.79682,-6.79685 6.79682,-6.79685 0,0 1.75004,-7.0946 -0.26384,-9.23432 1.11807,-1.42515 2.12866,-3.29268 2.65534,-7.50606 0.1258,-1.00694 0.68709,-5.98882 -2.23673,-7.39977 l -2e-5,-7e-5 c -1.6726,-0.23893 -7.90805,-3.1941 -7.90805,-3.1941 0,0 -11.94401,-2.25968 -15.92535,-2.36729 -3.98133,-0.1077 -15.58973,3.51127 -15.58973,3.51127"
       id="path245"
       sodipodi:nodetypes="ccsccsssscssssccsssccc" /><path
       style="fill:none;stroke:#000000;stroke-width:0.23211;stroke-linejoin:bevel"
       d="m 157.35051,147.73258 c -0.2812,-0.72442 -1.267,-1.64961 -2.0142,-1.8069 -0.7472,-0.15737 -2.15018,0.40656 -2.38614,0.76051 -0.23596,0.35391 0.21261,2.02687 1.00974,2.44615 0.86104,0.4529 2.47752,0.74718 2.71349,0.55056 0.23594,-0.19659 0.63776,-1.36043 0.67711,-1.95032 z"
       id="path246"
       sodipodi:nodetypes="cssssc" /><path
       style="fill:none;stroke:#000000;stroke-width:0.23211;stroke-linejoin:bevel"
       d="M 130.55125,136.34928 C 128.2808,134.07881 118.90342,128.59736 107.388,120.41612 72.515586,105.88291 41.985502,104.61339 39.715037,104.78805 c -2.270457,0.17455 -12.743449,-0.44882 -12.568799,0.42365 0.17464,0.87324 6.427836,4.82925 6.427836,4.82925 l -5.344937,1.02537 c 0,0 4.359761,1.38477 4.883712,2.258 0.523952,0.87328 3.658944,3.78769 3.658944,3.78769 0,0 5.64203,1.25917 7.507974,1.002 1.204248,2.09552 1.037283,4.51599 2.375054,4.95537 10.633384,3.49244 22.414493,5.54237 23.98634,7.11422 1.57187,1.57186 18.484288,4.53481 16.633237,6.09985 2.663784,3.16107 14.206782,5.81744 14.206782,5.81744"
       id="path247"
       sodipodi:nodetypes="cccccccccsscc" /><path
       style="fill:none;stroke:#000000;stroke-width:0.23211;stroke-linejoin:bevel"
       d="m 165.17148,134.25879 c 0,0 6.69982,-2.44387 8.01388,-3.22218 6.45802,-3.82493 12.76159,-6.35748 19.34494,-10.91021 7.21362,-4.98862 14.92962,-6.85617 24.08405,-14.07669 2.95213,-2.3285 12.98427,-9.789137 14.06423,-18.19118 1.84603,-14.362137 -3.48397,-15.539351 -5.10289,-14.999348 -17.29594,5.769273 -59.21702,36.011008 -79.32749,45.456848 -8.60328,5.23039 -16.44237,11.30758 -16.44237,11.30758"
       id="path248"
       sodipodi:nodetypes="cssssscc" /><path
       style="fill:none;stroke:#000000;stroke-width:0.23211;stroke-linejoin:bevel"
       d="m 168.24744,136.64558 c -8.80727,0.9272 -3.7121,-2.75644 -14.32749,-0.36424 -8.62078,1.94271 -9.71356,8.86361 -9.71356,8.86361"
       id="path249"
       sodipodi:nodetypes="csc" /></g><g
     inkscape:groupmode="layer"
     id="g269"
     inkscape:label="Layer 3"
     style="display:inline"><path
       style="fill:none;stroke:#000000;stroke-width:0.23211;stroke-linejoin:bevel"
       d="m 100.4382,141.05358 c -11.143379,2.49988 -29.86832,4.74661 -29.86832,4.74661 l 0.436041,1.31847 c 0,0 3.807528,5.15135 5.823262,4.47943 2.015756,-0.67191 4.479439,0.22399 4.479439,0.22399 l -3.918152,2.59868 c 0,0 -2.013876,1.00693 -1.006938,2.01387 1.006938,1.00695 3.146688,4.78298 5.034715,4.78298 1.888003,0 2.061877,4.31449 3.194689,4.18863 1.132811,-0.12581 11.783536,-7.71292 16.314754,-8.46813 1.44491,-0.24081 3.75124,-0.2024 5.45307,0.11536 1.49233,4.41753 5.64157,5.29686 6.75606,5.29686 1.63629,0 4.15363,2.89494 13.2161,3.14666 9.06245,0.25175 22.53026,0.25175 25.0476,0 2.51738,-0.25172 7.80379,1.25868 9.31423,0.75522 1.5104,-0.50347 6.79682,-6.79685 6.79682,-6.79685 0,0 1.75004,-7.09459 -0.26384,-9.23432 1.11807,-1.42515 2.12865,-3.29269 2.65534,-7.50606 0.1258,-1.00694 0.68709,-5.98883 -2.23673,-7.39977 l -3e-5,-7e-5 c -1.67261,-0.23894 -7.90804,-3.19411 -7.90804,-3.19411 0,0 -11.94402,-2.25968 -15.92535,-2.36729 -3.8099,0.49234 -11.45047,2.9331 -11.45047,2.9331"
       id="path260"
       sodipodi:nodetypes="cccsccsssscssssccsssccc" /><path
       style="fill:none;stroke:#000000;stroke-width:0.23211;stroke-linejoin:bevel"
       d="m 157.35051,147.73258 c -0.2812,-0.72441 -1.267,-1.64961 -2.01421,-1.8069 -0.74718,-0.15738 -2.15017,0.40656 -2.38612,0.76051 -0.23597,0.35391 0.21261,2.02687 1.00974,2.44615 0.86104,0.4529 2.47751,0.74719 2.71347,0.55056 0.23594,-0.19659 0.63778,-1.36043 0.67712,-1.95032 z"
       id="path261"
       sodipodi:nodetypes="cssssc" /><path
       style="fill:none;stroke:#000000;stroke-width:0.23211;stroke-linejoin:bevel"
       d="m 133.81283,134.65198 c -2.27045,-2.27048 -17.35695,-8.21483 -26.09495,-18.86491 -34.872442,-14.5332 -65.711112,-22.283364 -67.981577,-22.108702 -2.270458,0.174547 -11.527401,-0.635906 -11.35275,0.23657 0.17464,0.873246 5.211787,5.01633 5.211787,5.01633 l -4.128889,0.838289 c 0,0 3.143712,1.571843 3.667663,2.445093 0.523954,0.87326 3.658945,3.78768 3.658945,3.78768 0,0 5.64203,1.2592 7.507974,1.002 1.204248,2.09552 1.037282,4.51599 2.375053,4.95537 10.633382,3.49244 28.740825,13.25741 30.312672,14.82926 1.57187,1.57187 12.157953,5.30633 10.306902,6.87137 3.280986,1.61807 14.20678,7.97766 14.20678,7.97766"
       id="path262"
       sodipodi:nodetypes="cccccccccsscc" /><path
       style="fill:none;stroke:#000000;stroke-width:0.23211;stroke-linejoin:bevel"
       d="m 162.28127,132.68673 c 0,0 6.14525,-3.2757 7.45934,-4.05401 13.5343,-8.01607 25.78131,-16.44513 43.29032,-30.255291 2.95213,-2.328499 12.66186,-9.795049 13.78694,-18.191177 1.01421,-7.568703 -7.69661,-17.586233 -9.40079,-17.494897 -6.75915,0.362253 -55.19638,43.081725 -75.30686,52.527565 -8.326,7.58729 -12.28313,13.94176 -12.28313,13.94176"
       id="path263"
       sodipodi:nodetypes="csssscc" /><path
       style="fill:none;stroke:#000000;stroke-width:0.23211;stroke-linejoin:bevel"
       d="m 168.24743,136.64558 c -8.8072,0.9272 -3.71209,-2.75645 -14.32749,-0.36425 -8.62078,1.94271 -9.71355,8.86362 -9.71355,8.86362"
       id="path264"
       sodipodi:nodetypes="csc" /></g><g
     inkscape:groupmode="layer"
     id="g284"
     inkscape:label="Layer 2"
     style="display:inline"><path
       style="display:inline;fill:none;stroke:#000000;stroke-width:0.23211;stroke-linejoin:bevel"
       d="m 100.68838,141.13814 c -11.143374,2.49987 -29.868314,4.74663 -29.868314,4.74663 l 0.436042,1.31845 c 0,0 3.807527,5.15135 5.82326,4.47944 2.015757,-0.67191 4.479439,0.22398 4.479439,0.22398 l -3.918151,2.59868 c 0,0 -2.013876,1.00694 -1.006938,2.01388 1.006938,1.00693 3.146688,4.78297 5.034715,4.78297 1.888004,0 2.061877,4.31449 3.194688,4.18863 1.132812,-0.12581 11.783537,-7.71291 16.314759,-8.46813 1.4449,-0.24081 3.75124,-0.2024 5.45307,0.11536 1.49233,4.41753 5.64156,5.29686 6.75606,5.29686 1.63629,0 4.15363,2.89493 13.21609,3.14666 9.06246,0.25175 22.53027,0.25175 25.04761,0 2.51737,-0.25173 7.80378,1.25868 9.31423,0.75522 1.51039,-0.50347 6.79681,-6.79685 6.79681,-6.79685 0,0 1.75005,-7.09459 -0.26384,-9.23432 1.11807,-1.42515 2.12866,-3.29269 2.65534,-7.50606 0.1258,-1.00694 0.68709,-5.98882 -2.23673,-7.39976 l -2e-5,-9e-5 c -1.67261,-0.23892 -7.90805,-3.19409 -7.90805,-3.19409 0,0 -11.94401,-2.25968 -15.92535,-2.36729 -3.98134,-0.1077 -11.53544,2.71916 -11.53544,2.71916"
       id="path275"
       sodipodi:nodetypes="cccsccsssscssssccsssccc" /><path
       style="display:inline;fill:none;stroke:#000000;stroke-width:0.23211;stroke-linejoin:bevel"
       d="m 157.35051,147.73258 c -0.2812,-0.72442 -1.267,-1.64961 -2.0142,-1.8069 -0.74719,-0.15737 -2.15017,0.40656 -2.38613,0.76051 -0.23597,0.35391 0.21261,2.02687 1.00974,2.44615 0.86104,0.4529 2.47752,0.74718 2.71347,0.55056 0.23595,-0.19659 0.63778,-1.36043 0.67712,-1.95032 z"
       id="path276"
       sodipodi:nodetypes="cssssc" /><path
       style="display:inline;fill:none;stroke:#000000;stroke-width:0.23211;stroke-linejoin:bevel"
       d="M 134.06302,134.73654 C 131.79257,132.46607 119.64436,120.378 110.90636,109.72793 82.711858,88.51679 43.058304,78.629685 40.787853,78.804348 38.51738,78.978895 29.260449,78.168437 29.435089,79.040914 c 0.174546,0.873244 5.211791,5.016332 5.211791,5.016332 l -4.128883,0.838287 c 0,0 3.143717,1.571847 3.667658,2.445091 0.523965,0.873263 3.658955,3.787682 3.658955,3.787682 0,0 4.196712,2.543922 0.763154,3.571472 2.007208,2.095512 7.912611,1.661209 9.119868,2.385906 10.633387,6.383056 21.883096,19.014676 33.250971,26.849536 1.830347,1.2615 9.483655,5.35296 7.632603,6.91801 1.074181,2.98778 13.141424,10.86932 13.141424,10.86932"
       id="path277"
       sodipodi:nodetypes="cccccccccsscc" /><path
       style="display:inline;fill:none;stroke:#000000;stroke-width:0.23211;stroke-linejoin:bevel"
       d="m 160.97967,131.99542 c 0,0 3.39922,-4.16338 4.61441,-5.08854 19.87075,-15.12842 28.92498,-28.36441 38.27619,-37.793891 3.67752,-3.708299 10.59283,-10.053691 11.71792,-18.449819 1.0142,-7.56868 -6.79141,-18.232799 -8.49559,-18.141487 -6.75915,0.362254 -47.18527,48.208857 -67.29575,57.654707 -5.61037,8.23388 -11.96267,15.54399 -11.96267,15.54399"
       id="path278"
       sodipodi:nodetypes="csssscc" /><path
       style="display:inline;fill:none;stroke:#000000;stroke-width:0.23211;stroke-linejoin:bevel"
       d="m 168.24743,136.64558 c -8.80719,0.9272 -3.71209,-2.75645 -14.32749,-0.36425 -8.62079,1.94271 -9.71355,8.86362 -9.71355,8.86362"
       id="path279"
       sodipodi:nodetypes="csc" /></g><g
     inkscape:label="Layer 1"
     inkscape:groupmode="layer"
     id="g299"
     style="display:inline"><path
       style="display:inline;fill:none;stroke:#000000;stroke-width:0.01;stroke-linejoin:bevel;stroke-dasharray:none"
       d="m 98.390662,139.63374 c -11.161896,2.50404 -27.444067,2.38525 -27.444067,2.38525 l 0.22445,5.15989 c 0,0 3.813864,5.15994 5.83294,4.4869 2.019122,-0.67303 4.48689,0.22444 4.48689,0.22444 l -3.924674,2.60302 c 0,0 -2.017219,1.00861 -1.008609,2.01723 1.008609,1.00861 3.151934,4.79093 5.043094,4.79093 1.891137,0 1.386832,3.53014 2.521524,3.40405 1.134714,-0.12604 12.481629,-6.93421 17.02037,-7.69069 1.44732,-0.2412 3.75749,-0.20262 5.46214,0.1156 1.49481,4.42489 5.65097,5.30567 6.7673,5.30567 1.63902,0 4.16055,2.89977 13.2381,3.15192 9.07751,0.25217 22.56775,0.25217 25.08927,0 2.52155,-0.25215 7.81677,1.26078 9.32972,0.75646 1.51292,-0.50429 6.80812,-6.80814 6.80812,-6.80814 0,0 1.75295,-7.10641 -0.26428,-9.2497 1.11993,-1.42751 2.13219,-3.29816 2.65975,-7.51854 0.12604,-1.00861 0.68823,-5.99881 -2.24044,-7.4121 l -2e-5,-6e-5 c -1.67539,-0.23933 -7.9212,-3.19942 -7.9212,-3.19942 0,0 -11.96389,-2.26345 -15.95184,-2.37122 -3.98797,-0.10793 -11.75569,2.79128 -11.75569,2.79128"
       id="path290"
       sodipodi:nodetypes="cccsccsssscssssccsssccc" /><path
       style="display:inline;fill:none;stroke:#000000;stroke-width:0.01;stroke-linejoin:bevel;stroke-dasharray:none"
       d="m 157.35312,147.73191 c -0.28166,-0.72562 -1.2691,-1.65233 -2.01756,-1.80992 -0.74842,-0.1576 -2.15375,0.40723 -2.39011,0.76178 -0.23633,0.35451 0.21307,2.03025 1.01144,2.45023 0.86248,0.45366 2.48163,0.74844 2.71798,0.55149 0.23634,-0.19706 0.63884,-1.36271 0.67825,-1.95358 z"
       id="path291"
       sodipodi:nodetypes="cssssc" /><path
       style="display:inline;fill:none;stroke:#000000;stroke-width:0.01;stroke-linejoin:bevel;stroke-dasharray:none"
       d="M 134.08233,134.69147 C 131.80812,132.41722 122.0114,119.29661 115.36361,107.22566 108.71585,95.154716 42.991118,70.875669 40.716875,71.050633 c -2.274235,0.174778 -11.371181,2.973999 -11.196241,3.848704 0.174919,0.874705 4.548471,3.848704 4.548471,3.848704 l -3.673765,1.04967 c 0,0 3.148942,1.574469 3.673765,2.449152 0.524824,0.874728 5.948007,6.297903 5.948007,6.297903 0,0 -3.848707,0.524825 -2.274234,1.224586 1.574469,0.699785 9.918464,4.160778 11.143051,4.860547 1.224595,0.699761 35.688036,25.541441 37.262482,27.115881 1.574493,1.5745 4.373551,7.34756 4.19861,10.14661 -0.174779,2.79908 11.371189,9.79673 11.371189,9.79673"
       id="path292"
       sodipodi:nodetypes="cscccccccsscc" /><path
       style="display:inline;fill:none;stroke:#000000;stroke-width:0.01;stroke-linejoin:bevel;stroke-dasharray:none"
       d="m 160.23892,131.93911 c 0,0 4.09355,-5.91289 5.23064,-6.93631 1.13712,-1.02338 19.78551,-17.625 20.35407,-19.21694 0.56855,-1.59195 13.41775,-13.531471 15.2371,-16.829054 1.81934,-3.297579 11.14356,-14.668541 10.46129,-22.287124 -0.68223,-7.618561 -5.45806,-12.849199 -7.16371,-12.96291 -1.70564,-0.113734 -5.5718,-0.341131 -6.02661,0.568553 -0.45485,0.909685 -44.80165,46.621025 -59.81136,53.671035 -5.79921,10.68871 -11.25727,17.85241 -11.25727,17.85241"
       id="path293"
       sodipodi:nodetypes="csssssscc" /><path
       style="display:inline;fill:none;stroke:#000000;stroke-width:0.01;stroke-linejoin:bevel;stroke-dasharray:none"
       d="m 168.2184,136.59264 c -8.85101,0.93183 -3.71301,-2.76222 -14.35133,-0.36485 -8.63513,1.94594 -9.72971,8.87839 -9.72971,8.87839"
       id="path294"
       sodipodi:nodetypes="csc" /></g></svg>
