<?xml version="1.0" encoding="UTF-8" standalone="no"?>
<svg
   width="256"
   height="256"
   viewBox="0 0 256 269"
   version="1.1"
   id="svg11"
   sodipodi:docname="penguin.svg"
   xml:space="preserve"
   inkscape:version="1.4 (e7c3feb1, 2024-10-09)"
   xmlns:inkscape="http://www.inkscape.org/namespaces/inkscape"
   xmlns:sodipodi="http://sodipodi.sourceforge.net/DTD/sodipodi-0.dtd"
   xmlns="http://www.w3.org/2000/svg"
   xmlns:svg="http://www.w3.org/2000/svg"><defs
     id="defs11" /><sodipodi:namedview
     id="namedview11"
     pagecolor="#ffffff"
     bordercolor="#000000"
     borderopacity="0.25"
     inkscape:showpageshadow="2"
     inkscape:pageopacity="0.0"
     inkscape:pagecheckerboard="0"
     inkscape:deskcolor="#d1d1d1"
     inkscape:zoom="28.845459"
     inkscape:cx="189.52723"
     inkscape:cy="50.995896"
     inkscape:window-width="1440"
     inkscape:window-height="847"
     inkscape:window-x="0"
     inkscape:window-y="25"
     inkscape:window-maximized="0"
     inkscape:current-layer="layer1" /><g
     inkscape:groupmode="layer"
     id="g49"
     inkscape:label="18"
     style="display:inline"
     transform="matrix(0.96862826,0,0,0.96862826,15.890901,-3.6966922)"><path
       style="fill:none;stroke:#000000;stroke-width:0.397146;stroke-linejoin:bevel"
       d="m 189.07336,64.882708 c 0.69873,-4.771907 -6.07233,-9.738584 -6.07233,-9.738584 0,0 -8.15705,-8.59406 -10.16534,-9.932921 -2.00829,-1.338861 -12.48014,-12.743823 -18.00294,-12.911181 -5.5228,-0.167357 -13.47251,-2.775759 -26.63935,6.036003 -13.92994,9.322453 -24.04881,14.898958 -28.265055,17.050715 -6.175293,3.151551 -28.865459,36.085077 -32.086296,71.97778 -3.087917,34.41146 -2.344358,75.01252 -0.874266,87.60469 2.488119,21.31215 -25.756071,32.9101 -29.037211,36.91742 8.732248,-0.046 36.136335,-0.0618 38.166804,-0.90921 6.531922,-2.72616 25.050694,0.23317 41.755434,8.22242 0.95207,0.45533 5.70741,0.85072 10.4464,0.41826 6.32624,-0.5773 12.61329,-0.0956 14.92941,-0.20091 -0.067,-0.74945 -5.58447,-7.07236 -9.95357,-8.45101 -2.64521,-0.83468 -0.39723,-5.9015 1.39335,-9.1974 1.59949,-1.58549 8.1489,-3.30241 23.1688,-4.40493 6.29991,-5.8115 15.62276,-15.05128 19.51047,-17.39477 0.53878,-0.32477 -4.21402,-1.66715 -6.99666,-0.94465 -6.67566,1.73328 -11.65993,5.41599 -14.47158,6.17675 -4.1347,1.11873 -6.14889,-3.95839 -19.72586,-3.52937 -0.56931,-7.28349 18.92315,-47.13482 20.19857,-55.98776 2.84509,-19.74819 9.35886,-61.25289 8.02,-94.891773 -8.92081,-18.561456 24.70122,-5.909569 24.70122,-5.909569 z"
       id="path48"
       sodipodi:nodetypes="ccsssssscssscsccssscscc" /><path
       style="fill:none;stroke:#000000;stroke-width:0.397146;stroke-linejoin:bevel"
       d="m 163.26199,59.775349 c -5.67866,0.597753 -4.48315,-4.483152 -9.56406,-4.483152 h -10.75956 c 0,0 7.7708,-5.678658 6.27641,-8.966302 -1.49438,-3.287643 -8.9663,-11.656193 -18.82923,-2.689891 -9.86294,8.966303 -4.48316,8.36855 -4.48316,8.36855 0,0 10.50098,8.538748 18.17617,8.33801 -18.90126,35.135257 -24.17605,67.856966 -24.17605,67.856966 0,0 2.69548,48.84295 -15.73168,67.61665 -8.840921,9.00718 -16.114757,1.5239 -16.114757,1.5239 0,0 18.282127,-22.23374 6.702323,-69.91043"
       id="path49"
       sodipodi:nodetypes="cscsscccscc" /></g><g
     inkscape:groupmode="layer"
     id="g47"
     inkscape:label="17"
     style="display:inline"
     transform="matrix(0.96862826,0,0,0.96862826,15.890901,-3.6966922)"><path
       style="display:inline;fill:none;stroke:#000000;stroke-width:0.397146;stroke-linejoin:bevel"
       d="m 187.51266,62.939088 c 0,-3.141533 -4.51163,-7.794964 -4.51163,-7.794964 0,0 -8.15705,-8.59406 -10.16534,-9.932921 -2.00829,-1.338861 -12.48014,-12.743823 -18.00294,-12.911181 -5.5228,-0.167357 -13.47251,-2.775759 -26.63935,6.036003 -13.92994,9.322453 -21.31082,15.485669 -25.52707,17.637426 -6.175293,3.151551 -29.843311,47.428159 -34.824281,71.391069 -7.03127,33.82669 -2.344358,75.01252 -0.874266,87.60469 2.488119,21.31215 -25.951641,38.58164 -29.232781,42.58896 8.732248,-0.046 36.331905,-5.73331 38.362374,-6.58075 6.531922,-2.72616 25.050694,0.23317 41.755434,8.22242 0.95207,0.45533 5.70741,0.85072 10.4464,0.41826 6.32624,-0.5773 12.61329,-0.0956 14.92941,-0.20091 -0.067,-0.74945 -5.58447,-7.07236 -9.95357,-8.45101 -2.64521,-0.83468 -0.39723,-5.9015 1.39335,-9.1974 3.72558,-3.69298 11.02744,-9.5405 22.58002,-15.78532 1.2279,-0.66374 -7.51788,-4.74067 -21.09485,-4.31165 -0.56931,-7.28349 18.92315,-47.13482 20.19857,-55.98776 2.84509,-19.74819 9.35886,-61.25289 8.02,-94.891773 -10.48537,-23.059575 23.14052,-7.853189 23.14052,-7.853189 z"
       id="path46"
       sodipodi:nodetypes="ccsssssscssscscscscc" /><path
       style="display:inline;fill:none;stroke:#000000;stroke-width:0.397146;stroke-linejoin:bevel"
       d="m 163.26199,59.775349 c -5.67866,0.597753 -4.48315,-4.483152 -9.56406,-4.483152 h -10.75956 c 0,0 7.7708,-5.678658 6.27641,-8.966302 -1.49438,-3.287643 -8.9663,-11.656193 -18.82923,-2.689891 -9.86294,8.966303 -4.48316,8.36855 -4.48316,8.36855 0,0 17.25392,11.436698 24.92911,11.23596 -19.40525,32.993294 -27.21315,64.959016 -27.21315,64.959016 0,0 2.69548,48.84295 -15.73168,67.61665 -8.840924,9.00718 -16.11476,1.5239 -16.11476,1.5239 0,0 18.28213,-22.23374 6.702323,-69.91043"
       id="path47"
       sodipodi:nodetypes="cscsscccscc" /></g><g
     inkscape:groupmode="layer"
     id="g45"
     inkscape:label="16"
     style="display:inline"
     transform="matrix(0.96862826,0,0,0.96862826,15.890901,-3.6966922)"><path
       style="fill:none;stroke:#000000;stroke-width:0.397146;stroke-linejoin:bevel"
       d="m 187.12063,60.219475 c 0,-3.141533 -7.33622,-8.707016 -7.33622,-8.707016 0,0 -4.94043,-4.962395 -6.94872,-6.301256 -2.00829,-1.338861 -12.48014,-12.743823 -18.00294,-12.911181 -5.5228,-0.167357 -13.47251,-2.775759 -26.63935,6.036003 -13.92994,9.322453 -21.31082,15.485669 -25.52707,17.637426 -6.175293,3.151551 -29.843311,47.428159 -34.824281,71.391069 -7.03127,33.82669 -5.475901,76.45785 -4.005809,89.05002 2.488119,21.31215 -17.690748,41.36048 -20.971888,45.3678 8.732248,-0.046 37.142702,-8.42363 39.267553,-8.99456 9.850913,-4.23479 19.016165,-1.57719 35.720905,6.41206 0.95207,0.45533 5.70741,0.85072 10.4464,0.41826 6.32624,-0.5773 12.61329,-0.0956 14.92941,-0.20091 -0.067,-0.74945 -5.58447,-7.07236 -9.95357,-8.45101 -7.82215,-2.46824 -1.2594,-18.75263 4.16074,-31.47414 3.14789,-11.87075 17.64093,-44.95505 18.91635,-53.80799 2.84509,-19.74819 9.35886,-61.25289 8.02,-94.891773 -10.48537,-23.059575 22.74849,-10.572802 22.74849,-10.572802 z"
       id="path44"
       sodipodi:nodetypes="ccsssssscssscssscc" /><path
       style="fill:none;stroke:#000000;stroke-width:0.397146;stroke-linejoin:bevel"
       d="m 163.26199,59.775349 c -5.67866,0.597753 -4.48315,-4.483152 -9.56406,-4.483152 h -10.75956 c 0,0 7.7708,-5.678658 6.27641,-8.966302 -1.49438,-3.287643 -8.9663,-11.656193 -18.82923,-2.689891 -9.86294,8.966303 -4.48316,8.36855 -4.48316,8.36855 0,0 22.29383,13.326666 29.96902,13.125928 -19.47695,24.911624 -30.44691,62.165978 -30.44691,62.165978 0,0 4.38204,54.68336 -14.04512,73.45706 -8.84093,9.00718 -17.259069,3.81252 -17.259069,3.81252 0,0 14.006629,-38.13167 4.353922,-77.13639"
       id="path45"
       sodipodi:nodetypes="cscsscccscc" /></g><g
     inkscape:groupmode="layer"
     id="g43"
     inkscape:label="15"
     style="display:inline"
     transform="matrix(0.96862826,0,0,0.96862826,15.890901,-3.6966922)"><path
       style="fill:none;stroke:#000000;stroke-width:0.397146;stroke-linejoin:bevel"
       d="m 184.36432,57.713741 c 0,-3.141533 -3.57762,-6.953002 -3.57762,-6.953002 0,0 -5.94272,-4.210675 -7.95101,-5.549536 -2.00829,-1.338861 -12.48014,-12.743823 -18.00294,-12.911181 -5.5228,-0.167357 -13.47251,-2.775759 -26.63935,6.036003 -13.92994,9.322453 -21.31082,15.485669 -25.52707,17.637426 -6.175293,3.151551 -29.843311,47.428159 -34.824281,71.391069 -7.03127,33.82669 -2.900011,79.95312 -20.794224,84.5397 -3.385581,0.86778 -0.972217,10.55307 -1.885986,13.36328 -0.835169,2.56848 9.090806,12.70502 10.612663,14.35766 5.137683,5.57922 7.625001,9.67627 9.72628,3.27803 -2.71596,8.15848 -12.589809,16.62584 -15.870949,20.63316 8.732248,-0.046 30.377221,-10.17764 32.502072,-10.74857 9.850913,-4.23479 19.016165,-1.57719 35.720905,6.41206 0.95207,0.45533 5.70741,0.85072 10.4464,0.41826 6.32624,-0.5773 16.81583,-0.0956 19.13195,-0.20091 -0.067,-0.74945 -5.92418,-7.20282 -10.45787,-7.86265 -11.18419,-1.62773 -4.95764,-19.34099 0.4625,-32.0625 3.14789,-11.87075 17.64093,-44.95505 18.91635,-53.80799 2.84509,-19.74819 9.35886,-61.25289 8.02,-94.891773 -10.48537,-23.059575 19.99218,-13.078536 19.99218,-13.078536 z"
       id="path42"
       sodipodi:nodetypes="ccssssssssccssscssscc" /><path
       style="fill:none;stroke:#000000;stroke-width:0.397146;stroke-linejoin:bevel"
       d="m 163.26199,59.775349 c -5.67866,0.597753 -4.48315,-4.483152 -9.56406,-4.483152 h -10.75956 c 0,0 7.7708,-5.678658 6.27641,-8.966302 -1.49438,-3.287643 -8.9663,-11.656193 -18.82923,-2.689891 -9.86294,8.966303 -4.48316,8.36855 -4.48316,8.36855 0,0 22.29383,13.326666 29.96902,13.125928 -19.47695,24.911624 -28.13047,62.745088 -28.13047,62.745088 0,0 4.96115,53.52514 -13.46601,72.29884 -8.84093,9.00718 -17.259067,3.81252 -17.259067,3.81252 0,0 11.111077,-37.55256 1.45837,-76.55728"
       id="path43"
       sodipodi:nodetypes="cscsscccscc" /></g><g
     inkscape:groupmode="layer"
     id="g41"
     inkscape:label="14"
     style="display:inline"
     transform="matrix(0.96862826,0,0,0.96862826,15.890901,-3.6966922)"><path
       style="fill:none;stroke:#000000;stroke-width:0.397146;stroke-linejoin:bevel"
       d="m 184.36432,57.713741 c 0,-3.141533 -3.57762,-6.953002 -3.57762,-6.953002 0,0 -5.94272,-4.210675 -7.95101,-5.549536 -2.00829,-1.338861 -12.48014,-12.743823 -18.00294,-12.911181 -5.5228,-0.167357 -13.47251,-2.775759 -26.63935,6.036003 -13.92994,9.322453 -21.31082,15.485669 -25.52707,17.637426 -6.175293,3.151551 -29.843311,47.428159 -34.824281,71.391069 -7.03127,33.82669 -2.900011,79.95312 -20.794224,84.5397 -3.385581,0.86778 -0.972217,10.55307 -1.885986,13.36328 -0.835169,2.56848 1.949433,18.11713 3.549111,19.69457 5.006329,4.93671 14.41294,1.94299 16.77385,2.16024 0.795507,0.0732 -5.669391,-5.72545 -4.065181,-7.98635 1.514364,-2.13427 4.984497,-5.73095 5.694968,-2.43311 1.214564,5.63772 0.392802,12.4717 -9.950298,25.26382 8.732248,-0.046 28.807542,-9.8637 30.932393,-10.43463 9.850913,-4.23479 10.690581,2.91808 17.367848,0.47739 7.26902,6.43139 6.04342,-0.014 22.74816,7.97525 0.95207,0.45533 3.98076,-1.18986 8.71975,-1.62232 6.32624,-0.5773 16.81583,-0.0956 19.13195,-0.20091 -0.067,-0.74945 -5.8772,-7.77773 -10.45787,-7.86265 -8.25825,-0.15309 -9.32831,-3.41293 -14.7825,-6.33594 -3.78903,-2.03062 4.94571,-18.18812 6.61177,-24.47082 3.14789,-11.87075 17.64093,-44.95505 18.91635,-53.80799 2.84509,-19.74819 9.35886,-61.25289 8.02,-94.891773 -10.48537,-23.059575 19.99218,-13.078536 19.99218,-13.078536 z"
       id="path40"
       sodipodi:nodetypes="ccssssssssssscscsscsssscc" /><path
       style="fill:none;stroke:#000000;stroke-width:0.397146;stroke-linejoin:bevel"
       d="m 163.26199,59.775349 c -5.67866,0.597753 -4.48315,-4.483152 -9.56406,-4.483152 h -10.75956 c 0,0 7.7708,-5.678658 6.27641,-8.966302 -1.49438,-3.287643 -8.9663,-11.656193 -18.82923,-2.689891 -9.86294,8.966303 -4.48316,8.36855 -4.48316,8.36855 0,0 22.29383,13.326666 29.96902,13.125928 -12.21032,26.164491 -23.62015,62.745088 -23.62015,62.745088 0,0 3.95886,53.52514 -14.4683,72.29884 -8.84093,9.00718 -17.25907,3.81252 -17.25907,3.81252 0,0 11.11108,-39.30657 1.45837,-78.31129"
       id="path41"
       sodipodi:nodetypes="cscsscccscc" /></g><g
     inkscape:groupmode="layer"
     id="g40"
     inkscape:label="13"
     style="display:inline"
     transform="matrix(0.96862826,0,0,0.96862826,15.890901,-3.6966922)"><path
       style="display:inline;fill:none;stroke:#000000;stroke-width:0.397146;stroke-linejoin:bevel"
       d="m 185.59903,61.109188 c 0,-3.141533 -3.57762,-6.953002 -3.57762,-6.953002 0,0 -5.94272,-4.210675 -7.95101,-5.549536 -2.00829,-1.338861 -13.71485,-16.13927 -19.23765,-16.306628 -5.5228,-0.167357 -14.08986,-4.627821 -27.2567,4.183941 -13.92994,9.322453 -20.69347,17.337731 -24.90972,19.489488 -6.175293,3.151551 -32.735135,47.005279 -34.824281,71.391069 -2.897954,33.82669 -4.517396,74.02271 -9.472531,93.34546 -0.868172,3.38548 -5.717848,4.17007 -6.631617,6.98028 -0.835169,2.56848 2.265176,7.2092 1.47246,9.31131 -3.819439,10.12834 -6.699682,14.92208 -4.338771,15.13931 1.473087,0.13555 11.1505,5.37426 20.233444,5.32638 8.732248,-0.046 16.866797,-5.36429 18.991648,-5.93522 9.850913,-4.23479 15.016938,-2.4466 21.694208,-4.88729 3.48993,1.56596 2.40186,4.18634 13.70348,4.19651 14.87307,0.0134 15.35498,8.43143 15.96685,8.10509 0.93119,-0.49664 3.98076,-1.18986 8.71975,-1.62232 6.32624,-0.5773 16.81583,-0.0956 19.13195,-0.20091 -0.067,-0.74945 -5.8772,-7.77773 -10.45787,-7.86265 -8.25825,-0.15309 -9.32831,-3.41293 -14.7825,-6.33594 -3.78903,-2.03062 -1.97646,-16.63063 -2.04095,-21.70195 -0.15617,-12.28005 15.04512,-46.68559 16.32054,-55.53853 2.84509,-19.74819 9.35886,-61.25289 8.02,-94.891773 -10.48537,-23.059575 21.22689,-9.683089 21.22689,-9.683089 z"
       id="path37"
       sodipodi:nodetypes="ccssssssssssscssscsssscc" /><path
       style="display:inline;fill:none;stroke:#000000;stroke-width:0.397146;stroke-linejoin:bevel"
       d="m 163.26199,59.775349 c -5.67866,0.597753 -4.48315,-4.483152 -9.56406,-4.483152 h -10.75956 c 0,0 7.7708,-5.678658 6.27641,-8.966302 -1.49438,-3.287643 -8.9663,-11.656193 -18.82923,-2.689891 -9.86294,8.966303 -4.48316,8.36855 -4.48316,8.36855 0,0 22.29383,13.326666 29.96902,13.125928 -6.92674,25.724193 -16.13508,62.304788 -16.13508,62.304788 0,0 3.95886,53.52514 -14.4683,72.29884 -8.84093,9.00718 -17.25907,3.81252 -17.25907,3.81252 0,0 11.11108,-39.30657 1.45837,-78.31129"
       id="path38"
       sodipodi:nodetypes="cscsscccscc" /></g><g
     inkscape:groupmode="layer"
     id="g32"
     inkscape:label="12"
     style="display:inline"
     transform="matrix(0.96862826,0,0,0.96862826,15.890901,-3.6966922)"><path
       style="display:inline;fill:none;stroke:#000000;stroke-width:0.397146;stroke-linejoin:bevel"
       d="m 185.59903,61.109188 c 0,-3.141533 -3.57762,-6.953002 -3.57762,-6.953002 0,0 -5.94272,-4.210675 -7.95101,-5.549536 -2.00829,-1.338861 -13.71485,-16.13927 -19.23765,-16.306628 -5.5228,-0.167357 -14.08986,-4.627821 -27.2567,4.183941 -13.92994,9.322453 -20.69347,17.337731 -24.90972,19.489488 -6.175293,3.151551 -26.347674,45.996729 -28.43682,70.382519 -0.706232,8.24357 1.126083,20.87463 0.192386,31.8335 -1.141082,13.39297 -5.226556,24.95922 -8.351436,31.31785 6.836516,3.57903 10.747746,-1.53222 10.896443,-0.28084 0.09975,0.83947 0.382217,1.67021 0.300581,2.49789 -0.877774,8.89943 -16.217083,37.9557 -15.562481,45.0568 2.610852,5.99447 13.099297,7.71071 14.334338,8.38896 -3.662866,5.15544 -7.538256,7.0819 -5.718845,7.24931 2.889297,0.26585 14.290626,3.25057 18.625664,2.08577 6.197245,-1.66516 10.189866,0.51464 14.08844,-2.27932 4.55674,-0.95142 6.97993,-0.88369 8.48615,-0.71633 0.86012,0.0956 7.54843,-3.36801 13.77311,-5.71429 3.48993,1.56596 2.40186,4.18634 13.70348,4.19651 14.87307,0.0134 15.35498,8.43143 15.96685,8.10509 0.93119,-0.49664 3.98076,-1.18986 8.71975,-1.62232 6.32624,-0.5773 16.81583,-0.0956 19.13195,-0.20091 -0.067,-0.74945 -5.8772,-7.77773 -10.45787,-7.86265 -8.25825,-0.15309 -9.32831,-3.41293 -14.7825,-6.33594 -3.78903,-2.03062 -1.97646,-16.63063 -2.04095,-21.70195 -0.15617,-12.28005 7.54335,-45.83611 8.81877,-54.68905 2.84509,-19.74819 1.35766,-61.25289 0.0188,-94.891773 -10.48537,-23.059575 21.22689,-9.683089 21.22689,-9.683089 z"
       id="path31"
       sodipodi:nodetypes="ccsssssscssccsscscssscsssscc" /><path
       style="display:inline;fill:none;stroke:#000000;stroke-width:0.397146;stroke-linejoin:bevel"
       d="m 163.26199,59.775349 c -5.67866,0.597753 -4.48315,-4.483152 -9.56406,-4.483152 h -10.75956 c 0,0 7.7708,-5.678658 6.27641,-8.966302 -1.49438,-3.287643 -8.9663,-11.656193 -18.82923,-2.689891 -9.86294,8.966303 -4.48316,8.36855 -4.48316,8.36855 0,0 25.118,13.417768 32.79319,13.21703 -6.92674,25.724193 -10.11582,62.634806 -10.11582,62.634806 0,0 7.89828,47.19481 -5.4755,68.4952 -6.71116,10.68885 -16.82436,5.76872 -16.82436,5.76872 0,0 10.05167,-41.24917 -4.60022,-80.25389"
       id="path32"
       sodipodi:nodetypes="cscsscccscc" /></g><g
     inkscape:groupmode="layer"
     id="g30"
     inkscape:label="11"
     style="display:inline"
     transform="matrix(0.96862826,0,0,0.96862826,15.890901,-3.6966922)"><path
       style="display:inline;fill:none;stroke:#000000;stroke-width:0.397146;stroke-linejoin:bevel"
       d="m 185.59903,61.109188 c 0,-3.141533 -3.57762,-6.953002 -3.57762,-6.953002 0,0 -5.94272,-4.210675 -7.95101,-5.549536 -2.00829,-1.338861 -13.71485,-16.13927 -19.23765,-16.306628 -5.5228,-0.167357 -14.08986,-4.627821 -27.2567,4.183941 -13.92994,9.322453 -20.69347,17.337731 -24.90972,19.489488 -6.175293,3.151551 -26.347674,45.996729 -28.43682,70.382519 -1.50127,17.52374 0.19596,41.21687 2.217317,59.58374 0.1496,1.35932 -6.183335,7.67472 -6.031327,8.97138 0.151896,1.2957 6.788733,-2.4273 6.941432,-1.19261 0.408378,3.30206 0.816764,6.38869 1.209839,9.27479 1.161798,8.53034 -3.396493,19.39878 -2.897719,24.80946 0.373435,4.051 -5.962016,5.77754 -6.597764,8.83015 -0.611073,2.93412 10.093231,3.14006 8.981674,5.25925 -4.008721,7.64266 -9.895644,10.32827 -7.732466,10.52731 2.889297,0.26585 14.290626,3.25057 18.625664,2.08577 6.197245,-1.66516 10.189866,0.51464 14.08844,-2.27932 4.55674,-0.95142 6.97993,-0.88369 8.48615,-0.71633 0.86012,0.0956 7.54843,-3.36801 13.77311,-5.71429 3.48993,1.56596 2.40186,4.18634 13.70348,4.19651 14.87307,0.0134 25.30116,7.06894 25.91303,6.7426 0.93119,-0.49664 4.52118,-0.74492 8.71975,-2.98481 6.18999,-3.30228 16.81583,-3.09309 19.13195,-3.19839 -0.067,-0.74945 -5.6047,-5.4615 -10.18537,-5.54642 -8.25825,-0.15309 -9.60081,-1.36919 -15.055,-4.2922 -3.78903,-2.03062 -4.02662,-13.1897 -5.03843,-18.15948 -2.4724,-12.1438 0.59465,-48.01609 1.87007,-56.86903 2.84509,-19.74819 1.35766,-61.25289 0.0188,-94.891773 -10.48537,-23.059575 21.22689,-9.683089 21.22689,-9.683089 z"
       id="path29"
       sodipodi:nodetypes="ccsssssssssssssscscssscsssscc" /><path
       style="display:inline;fill:none;stroke:#000000;stroke-width:0.397146;stroke-linejoin:bevel"
       d="m 163.26199,59.775349 c -5.67866,0.597753 -4.48315,-4.483152 -9.56406,-4.483152 h -10.75956 c 0,0 7.7708,-5.678658 6.27641,-8.966302 -1.49438,-3.287643 -8.9663,-11.656193 -18.82923,-2.689891 -9.86294,8.966303 -4.48316,8.36855 -4.48316,8.36855 0,0 19.23093,10.838059 26.90612,10.637321 -4.2467,25.724193 -1.74014,65.597375 -1.74014,65.597375 0,0 14.7898,50.25771 -6.24123,69.45236 -9.32214,8.50816 -18.54724,4.4287 -18.54724,4.4287 0,0 10.05167,-41.24917 -4.60022,-80.25389"
       id="path30"
       sodipodi:nodetypes="cscsscccscc" /></g><g
     inkscape:groupmode="layer"
     id="g28"
     inkscape:label="10"
     style="display:inline"
     transform="matrix(0.96862826,0,0,0.96862826,15.890901,-3.6966922)"><path
       style="display:inline;fill:none;stroke:#000000;stroke-width:0.397146;stroke-linejoin:bevel"
       d="m 185.59903,61.109188 c 0,-3.141533 -3.57762,-6.953002 -3.57762,-6.953002 0,0 -5.94272,-4.210675 -7.95101,-5.549536 -2.00829,-1.338861 -13.71485,-16.13927 -19.23765,-16.306628 -5.5228,-0.167357 -13.70073,-4.016583 -27.2567,4.183941 -13.55596,8.200524 -18.07564,12.102062 -22.29189,14.253819 -6.175289,3.151551 -28.965504,41.509014 -31.05465,75.618188 -2.075545,33.88709 8.879802,83.86654 10.526781,101.73289 2.02686,21.98728 -7.320115,29.48909 -3.933085,29.80074 2.889297,0.26585 9.039271,1.28131 13.374309,0.11651 6.197245,-1.66516 4.938511,-2.98626 8.837085,-5.78022 4.55674,-0.95142 5.01067,3.93005 6.51689,4.09741 0.86012,0.0956 9.51769,-8.18175 15.74237,-10.52803 3.48993,1.56596 10.71651,-0.84621 22.01813,-0.83604 14.87307,0.0134 25.30116,7.06894 25.91303,6.7426 0.93119,-0.49664 4.52118,-0.74492 8.71975,-2.98481 6.18999,-3.30228 16.81583,-3.09309 19.13195,-3.19839 -0.067,-0.74945 -5.6047,-5.4615 -10.18537,-5.54642 -8.25825,-0.15309 -11.13246,-0.27516 -16.58665,-3.19817 -3.78903,-2.03062 -3.80781,-9.46999 -5.03843,-11.15767 -7.30167,-10.01351 -6.18835,-51.07938 -4.91293,-59.93232 2.84509,-19.74819 1.35766,-61.25289 0.0188,-94.891773 -10.48537,-23.059575 21.22689,-9.683089 21.22689,-9.683089 z"
       id="path27"
       sodipodi:nodetypes="ccsssssssscscssscsssscc" /><path
       style="display:inline;fill:none;stroke:#000000;stroke-width:0.397146;stroke-linejoin:bevel"
       d="m 163.26199,59.775349 c -5.67866,0.597753 -4.48315,-4.483152 -9.56406,-4.483152 h -10.75956 c 0,0 7.7708,-5.678658 6.27641,-8.966302 -1.49438,-3.287643 -8.9663,-11.656193 -18.82923,-2.689891 -9.86294,8.966303 -4.48316,8.36855 -4.48316,8.36855 0,0 19.23093,10.838059 26.90612,10.637321 -4.2467,25.724193 -1.74014,65.597375 -1.74014,65.597375 0,0 12.17197,45.76999 -8.85906,64.96464 -9.32214,8.50816 -18.54724,4.4287 -18.54724,4.4287 0,0 9.30371,-37.13543 -1.98239,-75.76617"
       id="path28"
       sodipodi:nodetypes="cscsscccscc" /></g><g
     inkscape:groupmode="layer"
     id="g26"
     inkscape:label="9"
     style="display:inline"
     transform="matrix(0.96862826,0,0,0.96862826,15.890901,-3.6966922)"><path
       style="fill:none;stroke:#000000;stroke-width:0.397146;stroke-linejoin:bevel"
       d="m 185.59903,61.109188 c 0,-3.141533 -3.57762,-6.953002 -3.57762,-6.953002 0,0 -5.94272,-4.210675 -7.95101,-5.549536 -2.00829,-1.338861 -13.71485,-16.13927 -19.23765,-16.306628 -5.5228,-0.167357 -13.70073,-4.016583 -27.2567,4.183941 -13.55596,8.200524 -18.07564,12.102062 -22.29189,14.253819 -6.175289,3.151551 -28.965504,41.509014 -31.05465,75.618188 -2.075545,33.88709 8.879802,83.86654 10.526781,101.73289 2.02686,21.98728 -9.530931,31.33144 -6.143901,31.64309 2.889297,0.26585 4.617639,-2.21915 8.952677,-3.38395 6.197245,-1.66516 11.570959,-1.32815 15.469533,-4.12211 4.55674,-0.95142 5.01067,3.93005 6.51689,4.09741 0.86012,0.0956 9.51769,-8.18175 15.74237,-10.52803 3.48993,1.56596 10.71651,-0.84621 22.01813,-0.83604 14.87307,0.0134 34.14442,2.0946 34.75629,1.76826 0.93119,-0.49664 1.90218,-4.9207 5.40353,-8.14338 6.18999,-5.69733 13.86807,-12.30482 16.18419,-12.41012 -0.067,-0.74945 -6.47543,-3.21197 -10.55384,-1.12479 -4.02085,2.05772 -9.10588,8.0154 -14.56007,7.85591 -4.29702,-0.12565 -8.0452,-5.60106 -9.27582,-7.28874 -7.30167,-10.01351 -6.18835,-51.07938 -4.91293,-59.93232 2.84509,-19.74819 1.35766,-61.25289 0.0188,-94.891773 -10.48537,-23.059575 21.22689,-9.683089 21.22689,-9.683089 z"
       id="path25"
       sodipodi:nodetypes="ccsssssssscscssscsssscc" /><path
       style="fill:none;stroke:#000000;stroke-width:0.397146;stroke-linejoin:bevel"
       d="m 163.26199,59.775349 c -5.67866,0.597753 -4.48315,-4.483152 -9.56406,-4.483152 h -10.75956 c 0,0 7.7708,-5.678658 6.27641,-8.966302 -1.49438,-3.287643 -8.9663,-11.656193 -18.82923,-2.689891 -9.86294,8.966303 -4.48316,8.36855 -4.48316,8.36855 0,0 13.24267,6.755155 20.91786,6.554417 -12.14031,23.274451 0.9818,63.692019 0.9818,63.692019 0,0 8.08906,44.95341 -12.94197,64.14806 -9.32214,8.50816 -18.54724,4.4287 -18.54724,4.4287 0,0 11.20907,-30.87498 5.36684,-68.96133"
       id="path26"
       sodipodi:nodetypes="cscsscccscc" /></g><g
     inkscape:groupmode="layer"
     id="g22"
     inkscape:label="8"
     style="display:inline"
     transform="matrix(0.96862826,0,0,0.96862826,15.890901,-3.6966922)"><path
       style="fill:none;stroke:#000000;stroke-width:0.397146;stroke-linejoin:bevel"
       d="m 185.59903,61.109188 c 0,-3.141533 -3.57762,-6.953002 -3.57762,-6.953002 0,0 -5.94272,-4.210675 -7.95101,-5.549536 -2.00829,-1.338861 -13.71485,-16.13927 -19.23765,-16.306628 -5.5228,-0.167357 -13.70073,-4.016583 -27.2567,4.183941 -13.55596,8.200524 -18.07564,12.102062 -22.29189,14.253819 -6.175289,3.151551 -28.965504,41.509014 -31.05465,75.618188 -2.075545,33.88709 8.879802,83.86654 10.526781,101.73289 2.02686,21.98728 -14.55851,32.22922 -11.17148,32.54087 2.889297,0.26585 9.645218,-3.11693 13.980256,-4.28173 6.197245,-1.66516 11.570959,-1.32815 15.469533,-4.12211 4.55674,-0.95142 6.80623,4.46872 8.31245,4.63608 0.86012,0.0956 8.79947,2.23252 15.02415,-0.11376 -0.81942,2.10463 6.58671,-6.2329 17.88833,-6.22273 14.87307,0.0134 16.51533,-0.74013 17.1272,-1.06647 0.93119,-0.49664 1.90218,-4.9207 5.40353,-8.14338 6.18999,-5.69733 13.86807,-12.30482 16.18419,-12.41012 -0.067,-0.74945 -6.47543,-3.21197 -10.55384,-1.12479 -4.02085,2.05772 -9.10588,8.0154 -14.56007,7.85591 -4.29702,-0.12565 -4.63363,-6.49884 -5.86425,-8.18652 -7.30167,-10.01351 11.08163,-52.91312 12.35705,-61.76606 2.84509,-19.74819 1.35766,-61.25289 0.0188,-94.891773 -10.48537,-23.059575 21.22689,-9.683089 21.22689,-9.683089 z"
       id="path20"
       sodipodi:nodetypes="ccsssssssscscssscsssscc" /><path
       style="fill:none;stroke:#000000;stroke-width:0.397146;stroke-linejoin:bevel"
       d="m 163.26199,59.775349 c -5.67866,0.597753 -4.48315,-4.483152 -9.56406,-4.483152 h -10.75956 c 0,0 7.7708,-5.678658 6.27641,-8.966302 -1.49438,-3.287643 -8.9663,-11.656193 -18.82923,-2.689891 -9.86294,8.966303 -4.48316,8.36855 -4.48316,8.36855 0,0 13.24267,6.755155 20.91786,6.554417 -12.14031,23.274451 -1.53199,63.871579 -1.53199,63.871579 0,0 12.39841,44.95341 -8.63262,64.14806 -9.32214,8.50816 -18.54724,4.4287 -18.54724,4.4287 0,0 12.10686,-26.02696 3.57128,-69.14089"
       id="path21"
       sodipodi:nodetypes="cscsscccscc" /></g><g
     inkscape:groupmode="layer"
     id="g18"
     inkscape:label="7"
     style="display:inline"
     transform="matrix(0.96862826,0,0,0.96862826,15.890901,-3.6966922)"><path
       style="fill:none;stroke:#000000;stroke-width:0.397146;stroke-linejoin:bevel"
       d="m 187.92343,61.302888 c 0,-3.141533 -2.99651,-6.953002 -2.99651,-6.953002 0,0 -8.84823,-4.404375 -10.85652,-5.743236 -2.00829,-1.338861 -13.71485,-16.13927 -19.23765,-16.306628 -5.5228,-0.167357 -13.70073,-4.016583 -27.2567,4.183941 -13.55596,8.200524 -18.07564,12.102062 -22.29189,14.253819 -6.175289,3.151551 -30.429901,41.509014 -32.519047,75.618188 -2.075545,33.88709 5.589718,85.61819 7.236697,103.48454 2.02686,21.98728 -20.814424,28.92216 -6.76949,28.26491 2.769424,-0.86545 10.048396,-0.41815 14.332747,-1.75742 1.202376,-0.37586 3.549296,-2.90524 7.057181,-4.16622 3.929304,-1.41247 10.629222,-1.55555 15.669192,-5.71131 4.55674,-0.95142 5.01067,8.55942 6.51689,8.72677 1.50621,0.16736 10.85735,1.4641 13.36771,0.12523 2.51037,-1.33886 8.70131,-0.0392 12.38317,-0.20659 -0.21417,-2.39367 -6.83817,-7.67153 -6.83817,-7.67153 0,0 0.51274,0.70745 -3.5528,-4.86804 -3.80774,-5.22195 0.9297,-15.40723 9.85421,-21.08159 2.62174,-6.59361 7.20212,-20.07134 8.99645,-22.90184 1.13342,-1.78793 10.48937,-13.16063 13.33444,-32.90883 2.84509,-19.74819 1.35766,-61.25289 0.0188,-94.891773 -10.48537,-23.059575 23.55129,-9.489389 23.55129,-9.489389 z"
       id="path17"
       sodipodi:nodetypes="ccssssssssscssccscsscc" /><path
       style="fill:none;stroke:#000000;stroke-width:0.397146;stroke-linejoin:bevel"
       d="m 163.26199,59.775349 c -5.67866,0.597753 -4.48315,-4.483152 -9.56406,-4.483152 h -10.75956 c 0,0 7.7708,-5.678658 6.27641,-8.966302 -1.49438,-3.287643 -8.9663,-11.656193 -18.82923,-2.689891 -9.86294,8.966303 -4.48316,8.36855 -4.48316,8.36855 0,0 13.24267,6.755155 20.91786,6.554417 -12.14031,23.274451 -10.21812,58.714279 -10.21812,58.714279 0,0 8.08906,44.95341 -12.94197,64.14806 -9.32214,8.50816 -18.54724,4.4287 -18.54724,4.4287 0,0 11.20907,-30.87498 5.36684,-68.96133"
       id="path18"
       sodipodi:nodetypes="cscsscccscc" /><path
       style="fill:none;stroke:#000000;stroke-width:0.397146;stroke-linejoin:bevel"
       d="m 130.70359,237.94748 c 0,0 16.5028,-1.72704 20.72445,5.75679 -9.01898,1.15136 -16.5028,2.8784 -16.5028,2.8784"
       id="path19"
       sodipodi:nodetypes="ccc" /></g><g
     inkscape:groupmode="layer"
     id="g16"
     inkscape:label="6"
     style="display:inline"
     transform="matrix(0.96862826,0,0,0.96862826,15.890901,-3.6966922)"><path
       style="fill:none;stroke:#000000;stroke-width:0.397146;stroke-linejoin:bevel"
       d="m 187.92343,61.302888 c 0,-3.141533 -2.99651,-6.953002 -2.99651,-6.953002 0,0 -8.84823,-4.404375 -10.85652,-5.743236 -2.00829,-1.338861 -13.71485,-16.13927 -19.23765,-16.306628 -5.5228,-0.167357 -13.70073,-4.016583 -27.2567,4.183941 -13.55596,8.200524 -19.57112,10.232708 -23.78737,12.384465 -6.175293,3.151551 -28.934421,43.378368 -31.023567,77.487542 -2.075545,33.88709 4.224489,71.31564 0.570162,88.88165 -1.85069,8.89609 -3.89712,12.18593 -0.07079,24.75451 0.08846,3.72238 -9.923376,17.80974 -4.567929,16.13616 2.769424,-0.86545 15.98552,1.75088 20.269868,0.4116 2.549199,-0.79687 -2.196789,-5.77001 -2.196789,-5.77001 0,0 13.982415,3.5664 23.521805,-4.29941 4.55674,-0.95142 5.59218,9.14093 7.0984,9.30828 1.50621,0.16736 15.97462,0.76629 18.48498,-0.57258 2.51037,-1.33886 8.70131,-0.0392 12.38317,-0.20659 -0.21417,-2.39367 -6.83817,-7.67153 -6.83817,-7.67153 0,0 -5.18604,0.82375 -9.25158,-4.75174 -3.80774,-5.22195 0.9297,-15.40723 9.85421,-21.08159 2.62174,-6.59361 0.47244,-22.68844 2.26677,-25.51894 1.13342,-1.78793 12.7326,-10.54353 15.57767,-30.29173 2.84509,-19.74819 5.84411,-61.25289 4.50525,-94.891773 -10.48537,-23.059575 23.55129,-9.489389 23.55129,-9.489389 z"
       id="path15"
       sodipodi:nodetypes="ccsssssssssccssccscsscc" /><path
       style="fill:none;stroke:#000000;stroke-width:0.397146;stroke-linejoin:bevel"
       d="m 163.26199,59.775349 c -5.67866,0.597753 -4.48315,-4.483152 -9.56406,-4.483152 h -10.75956 c 0,0 7.7708,-5.678658 6.27641,-8.966302 -1.49438,-3.287643 -8.9663,-11.656193 -18.82923,-2.689891 -9.86294,8.966303 -4.48316,8.36855 -4.48316,8.36855 0,0 13.24267,6.755155 20.91786,6.554417 -12.14031,23.274451 -10.21812,58.714279 -10.21812,58.714279 0,0 8.08906,44.95341 -12.94197,64.14806 -9.32214,8.50816 -18.54724,4.4287 -18.54724,4.4287 0,0 11.20907,-30.87498 5.36684,-68.96133"
       id="path16"
       sodipodi:nodetypes="cscsscccscc" /></g><g
     inkscape:groupmode="layer"
     id="g14"
     inkscape:label="5"
     style="display:inline"
     transform="matrix(0.96862826,0,0,0.96862826,15.890901,-3.6966922)"><path
       style="fill:none;stroke:#000000;stroke-width:0.397146;stroke-linejoin:bevel"
       d="m 187.92343,61.302888 c 0,-3.141533 -2.99651,-6.953002 -2.99651,-6.953002 0,0 -8.84823,-4.404375 -10.85652,-5.743236 -2.00829,-1.338861 -13.71485,-16.13927 -19.23765,-16.306628 -5.5228,-0.167357 -13.70073,-4.016583 -27.2567,4.183941 -13.55596,8.200524 -19.57112,10.232708 -23.78737,12.384465 -6.175293,3.151551 -30.891397,42.986973 -32.980543,77.096142 -2.075545,33.88709 1.008781,74.52679 -0.426585,92.41138 -0.08283,1.032 -7.105397,6.55559 -8.722646,11.13816 -0.631114,1.7883 -0.117864,6.37309 -0.0247,10.29341 0.08846,3.72238 0.212381,6.93614 0.212381,6.93614 0,0 1.494526,11.05821 6.849973,9.38463 2.769424,-0.86545 15.958275,1.66039 20.269868,0.4116 4.02606,-1.16609 -0.719928,-6.13923 -0.719928,-6.13923 0,0 12.50555,3.93562 22.04494,-3.93019 8.4335,-2.61289 15.00717,6.55642 16.51339,6.72377 1.50621,0.16736 6.74424,2.24315 9.2546,0.90428 2.51037,-1.33886 13.3165,-0.59305 16.99836,-0.76041 -0.21417,-2.39367 -5.54591,-7.30231 -5.54591,-7.30231 0,0 -9.11589,-0.488 -15.34364,-3.45949 -5.94151,-8.1482 7.12465,-38.71896 12.12098,-46.60053 1.11656,-1.79851 6.86167,-10.54353 9.70674,-30.29173 2.84509,-19.74819 11.71504,-61.25289 10.37618,-94.891773 -10.48537,-23.059575 23.55129,-9.489389 23.55129,-9.489389 z"
       id="path13"
       sodipodi:nodetypes="ccsssssssscssccssccssscc" /><path
       style="fill:none;stroke:#000000;stroke-width:0.397146;stroke-linejoin:bevel"
       d="m 163.26199,59.775349 c -5.67866,0.597753 -4.48315,-4.483152 -9.56406,-4.483152 h -10.75956 c 0,0 7.7708,-5.678658 6.27641,-8.966302 -1.49438,-3.287643 -8.9663,-11.656193 -18.82923,-2.689891 -9.86294,8.966303 -4.48316,8.36855 -4.48316,8.36855 0,0 13.24267,6.755155 20.91786,6.554417 -12.14031,23.274451 -17.43537,59.616439 -17.43537,59.616439 0,0 12.44948,50.66706 -23.1664,68.95956 -11.226853,5.76618 -12.683229,2.17331 -12.683229,2.17331 0,0 16.471649,-32.37858 10.629419,-70.46493"
       id="path14"
       sodipodi:nodetypes="cscsscccscc" /></g><g
     inkscape:groupmode="layer"
     id="layer1-5-9-1"
     inkscape:label="4"
     style="display:inline"
     transform="matrix(0.96862826,0,0,0.96862826,15.890901,-3.6966922)"><path
       style="fill:none;stroke:#000000;stroke-width:0.397146;stroke-linejoin:bevel"
       d="m 187.92343,61.302888 c 0,-3.141533 -2.99651,-6.953002 -2.99651,-6.953002 0,0 -8.84823,-4.404375 -10.85652,-5.743236 -2.00829,-1.338861 -13.71485,-16.13927 -19.23765,-16.306628 -5.5228,-0.167357 -13.70073,-4.016583 -27.2567,4.183941 -13.55596,8.200524 -19.57112,10.232708 -23.78737,12.384465 -6.175293,3.151551 -33.223316,40.867047 -35.312462,74.976212 -2.815854,45.97401 2.84508,106.43946 2.510364,110.12132 -0.334715,3.68187 -18.467672,15.32161 -18.467672,15.32161 0,0 18.877925,0.0346 24.233369,-1.63899 5.355445,-1.67358 19.337947,-2.97173 19.337947,-2.97173 0,0 17.593374,3.08765 27.132764,-4.77816 8.4335,-2.61289 10.13134,4.64849 11.63756,4.81584 1.50621,0.16736 6.74424,2.24315 9.2546,0.90428 2.51037,-1.33886 13.3165,-0.59305 16.99836,-0.76041 -0.21417,-2.39367 -5.54591,-7.30231 -5.54591,-7.30231 0,0 -9.11589,-0.488 -15.34364,-3.45949 -3.95664,-1.88787 -4.17177,-13.02728 -4.50649,-15.70501 -0.87474,-7.75015 4.13867,-15.27523 8.57175,-22.41581 1.11656,-1.79851 6.86167,-10.54353 9.70674,-30.29173 2.84509,-19.74819 11.71504,-61.25289 10.37618,-94.891773 -3.30755,-25.406169 23.55129,-9.489389 23.55129,-9.489389 z"
       id="path11-3-2-3"
       sodipodi:nodetypes="ccsssssscsccssccsssscc" /><path
       style="fill:none;stroke:#000000;stroke-width:0.397146;stroke-linejoin:bevel"
       d="m 163.26199,59.775349 c -5.67866,0.597753 -4.48315,-4.483152 -9.56406,-4.483152 h -10.75956 c 0,0 7.7708,-5.678658 6.27641,-8.966302 -1.49438,-3.287643 -8.9663,-11.656193 -18.82923,-2.689891 -9.86294,8.966303 -4.48316,8.36855 -4.48316,8.36855 0,0 6.6709,3.787258 14.34609,3.58652 -27.19179,43.201758 -19.34331,64.704266 -19.34331,64.704266 0,0 -9.38576,62.96263 -23.590378,68.95956 -11.627313,4.90883 -12.683231,2.17331 -12.683231,2.17331 0,0 15.623679,-33.86253 9.569455,-67.92102"
       id="path12-0-4-9"
       sodipodi:nodetypes="cscsscccscc" /></g><g
     inkscape:groupmode="layer"
     id="layer1-5-9"
     inkscape:label="3"
     style="display:inline"
     transform="matrix(0.96862826,0,0,0.96862826,15.890901,-3.6966922)"><path
       style="fill:none;stroke:#000000;stroke-width:0.397146;stroke-linejoin:bevel"
       d="m 187.92343,61.302888 c 0,-3.141533 -2.99651,-6.953002 -2.99651,-6.953002 0,0 -8.84823,-4.404375 -10.85652,-5.743236 -2.00829,-1.338861 -13.71485,-16.13927 -19.23765,-16.306628 -5.5228,-0.167357 -11.71503,-4.016583 -25.271,4.183941 -13.55596,8.200524 -21.08706,11.715034 -25.77307,12.384465 -4.686021,0.669431 -33.471528,28.95287 -35.312462,74.976212 -1.840934,46.02336 2.84508,106.43946 2.510364,110.12132 -0.334715,3.68187 -12.262372,14.08055 -12.262372,14.08055 0,0 18.133289,-0.46184 23.488733,-2.13541 5.355445,-1.67358 13.877283,-1.23425 13.877283,-1.23425 0,0 26.777214,2.34301 36.316604,-5.5228 8.4335,-2.61289 10.13134,4.64849 11.63756,4.81584 1.50621,0.16736 6.74424,2.24315 9.2546,0.90428 2.51037,-1.33886 13.3165,-0.59305 16.99836,-0.76041 -0.21417,-2.39367 -5.54591,-7.30231 -5.54591,-7.30231 0,0 -9.11589,-0.488 -15.34364,-3.45949 -3.95664,-1.88787 -5.66104,-12.77906 -5.99576,-15.45679 -0.87474,-7.75015 -1.5702,-14.28239 0.87718,-21.91939 0.66944,-2.00828 6.86167,-10.54353 9.70674,-30.29173 2.84509,-19.74819 11.71504,-61.25289 10.37618,-94.891773 -3.30755,-25.406169 23.55129,-9.489389 23.55129,-9.489389 z"
       id="path11-3-2"
       sodipodi:nodetypes="ccsssssscsccssccsssscc" /><path
       style="fill:none;stroke:#000000;stroke-width:0.397146;stroke-linejoin:bevel"
       d="m 163.26199,59.775349 c -5.67866,0.597753 -4.48315,-4.483152 -9.56406,-4.483152 h -10.75956 c 0,0 7.7708,-5.678658 6.27641,-8.966302 -1.49438,-3.287643 -8.9663,-11.656193 -18.82923,-2.689891 -9.86294,8.966303 -4.48316,8.36855 -4.48316,8.36855 0,0 6.6709,3.787258 14.34609,3.58652 -24.46146,24.089433 -29.27179,63.959626 -29.27179,63.959626 0,0 -4.17331,65.94118 -18.377926,71.93811 -11.627313,4.90883 -10.201111,-0.0606 -10.201111,-0.0606 0,0 11.155867,-40.81247 5.846275,-61.71572"
       id="path12-0-4"
       sodipodi:nodetypes="cscsscccscc" /></g><g
     inkscape:groupmode="layer"
     id="layer1-5"
     inkscape:label="2"
     style="display:inline"
     transform="matrix(0.96862826,0,0,0.96862826,15.890901,-3.6966922)"
     sodipodi:insensitive="true"><path
       style="fill:none;stroke:#000000;stroke-width:0.397146;stroke-linejoin:bevel"
       d="m 187.92343,61.302888 c 0,-3.141533 -2.99651,-6.953002 -2.99651,-6.953002 0,0 -8.84823,-4.404375 -10.85652,-5.743236 -2.00829,-1.338861 -13.71485,-16.13927 -19.23765,-16.306628 -5.5228,-0.167357 -11.71503,-4.016583 -25.271,4.183941 -13.55596,8.200524 -21.08706,11.715034 -25.77307,12.384465 -4.686021,0.669431 -33.471528,28.95287 -35.312462,74.976212 -1.840934,46.02336 2.84508,106.43946 2.510364,110.12132 -0.334715,3.68187 -10.539558,16.37109 -11.208989,16.53844 -0.66943,0.16736 23.091381,0.19733 28.446825,-1.47624 5.355445,-1.67358 7.865808,-4.35131 7.865808,-4.35131 0,0 26.777214,2.34301 36.316604,-5.5228 8.4335,-2.61289 11.54768,6.69431 13.0539,6.86166 1.50621,0.16736 7.53109,0.66944 10.04145,-0.66943 2.51037,-1.33886 18.23802,-1.06516 21.91988,-1.23252 -0.21417,-2.39367 -1.2969,-6.20071 -1.2969,-6.20071 0,0 -15.14608,-1.5896 -21.37383,-4.56109 -3.95664,-1.88787 -4.10251,-14.78289 -4.43723,-17.46062 -0.33472,-2.67772 -3.68186,-4.68601 -5.02073,-7.02902 -1.33886,-2.343 -1.67358,-10.87825 -1.00415,-12.88654 0.66944,-2.00828 6.86167,-10.54353 9.70674,-30.29173 2.84509,-19.74819 11.71504,-61.25289 10.37618,-94.891773 -3.30755,-25.406169 23.55129,-9.489389 23.55129,-9.489389 z"
       id="path11-3"
       sodipodi:nodetypes="ccssssssssccssccssssscc" /><path
       style="fill:none;stroke:#000000;stroke-width:0.397146;stroke-linejoin:bevel"
       d="m 163.26199,59.775349 c -5.67866,0.597753 -4.48315,-4.483152 -9.56406,-4.483152 h -10.75956 c 0,0 7.7708,-5.678658 6.27641,-8.966302 -1.49438,-3.287643 -8.9663,-11.656193 -18.82923,-2.689891 -9.86294,8.966303 -4.48316,8.36855 -4.48316,8.36855 0,0 6.6709,3.787258 14.34609,3.58652 -14.44233,21.640313 -26.60002,63.959626 -26.60002,63.959626 0,0 -1.48353,66.95435 -15.038221,74.30315 -16.098398,8.72789 -11.702845,1.61154 -11.702845,1.61154 0,0 7.314068,-47.5214 1.336534,-65.75288"
       id="path12-0"
       sodipodi:nodetypes="cscsscccscc" /></g><g
     inkscape:groupmode="layer"
     id="layer1"
     inkscape:label="1"
     style="display:inline"
     transform="matrix(0.96862826,0,0,0.96862826,15.890901,-3.6966922)"><path
       style="display:inline;fill:none;stroke:#000000;stroke-width:0.397146;stroke-linejoin:bevel"
       d="m 189.84579,61.783477 c 0,-3.141533 -2.99651,-6.953002 -2.99651,-6.953002 0,0 -9.08853,-5.125259 -11.09682,-6.46412 -2.00829,-1.338861 -15.39691,-15.898975 -20.91971,-16.066333 -5.5228,-0.167357 -11.71503,-4.016583 -25.271,4.183941 -13.55596,8.200524 -21.08706,11.715034 -25.77307,12.384465 -4.686021,0.669431 -33.471528,28.95287 -35.312462,74.976212 -1.840934,46.02336 2.84508,106.43946 2.510364,110.12132 -0.334715,3.68187 -16.066332,17.57256 -16.735763,17.73991 -0.66943,0.16736 28.618155,-1.00414 33.973599,-2.67771 5.355445,-1.67358 7.865808,-4.35131 7.865808,-4.35131 0,0 26.777214,2.34301 36.316604,-5.5228 8.4335,-2.61289 11.54768,6.69431 13.0539,6.86166 1.50621,0.16736 7.53109,0.66944 10.04145,-0.66943 2.51037,-1.33886 23.76479,-17.40519 27.44665,-17.57255 -0.21417,-2.39367 -5.6222,-4.51865 -5.6222,-4.51865 0,0 -14.29335,1.1715 -20.65294,3.84922 -6.35959,2.67773 -6.02487,-8.53523 -6.35959,-11.21296 -0.33472,-2.67772 -3.68186,-4.68601 -5.02073,-7.02902 -1.33886,-2.343 -1.67358,-10.87825 -1.00415,-12.88654 0.66944,-2.00828 6.86167,-10.54353 9.70674,-30.29173 2.84509,-19.74819 11.71504,-61.25289 10.37618,-94.891773 -3.30755,-25.406169 25.47365,-9.0088 25.47365,-9.0088 z"
       id="path11"
       sodipodi:nodetypes="ccssssssssccssccssssscc" /><path
       style="display:inline;fill:none;stroke:#000000;stroke-width:0.397146;stroke-linejoin:bevel"
       d="m 163.26199,59.775349 c -5.67866,0.597753 -4.48315,-4.483152 -9.56406,-4.483152 h -10.75956 c 0,0 7.7708,-5.678658 6.27641,-8.966302 -1.49438,-3.287643 -8.9663,-11.656193 -18.82923,-2.689891 -9.86294,8.966303 -4.48316,8.36855 -4.48316,8.36855 0,0 6.6709,3.787258 14.34609,3.58652 -14.44233,21.640313 -26.60002,63.959626 -26.60002,63.959626 0,0 8.36854,65.75288 -8.06968,73.82256 -16.438222,8.06966 -14.346085,2.09213 -14.346085,2.09213 0,0 2.988767,-47.5214 -2.988767,-65.75288"
       id="path12"
       sodipodi:nodetypes="cscsscccscc" /></g></svg>
