<?xml version="1.0" encoding="UTF-8" standalone="no"?>
<!-- Created with Inkscape (http://www.inkscape.org/) -->

<svg
   width="250"
   height="250"
   viewBox="0 0 250 250"
   version="1.1"
   id="svg1"
   inkscape:version="1.4 (e7c3feb1, 2024-10-09)"
   sodipodi:docname="pingu.svg"
   xml:space="preserve"
   xmlns:inkscape="http://www.inkscape.org/namespaces/inkscape"
   xmlns:sodipodi="http://sodipodi.sourceforge.net/DTD/sodipodi-0.dtd"
   xmlns="http://www.w3.org/2000/svg"
   xmlns:svg="http://www.w3.org/2000/svg"><sodipodi:namedview
     id="namedview1"
     pagecolor="#ffffff"
     bordercolor="#000000"
     borderopacity="0.25"
     inkscape:showpageshadow="2"
     inkscape:pageopacity="0.0"
     inkscape:pagecheckerboard="0"
     inkscape:deskcolor="#d1d1d1"
     inkscape:document-units="mm"
     inkscape:zoom="1.8106885"
     inkscape:cx="158.50324"
     inkscape:cy="152.98048"
     inkscape:window-width="1440"
     inkscape:window-height="847"
     inkscape:window-x="0"
     inkscape:window-y="25"
     inkscape:window-maximized="0"
     inkscape:current-layer="svg1" /><defs
     id="defs1" /><g
     id="g445"
     inkscape:label="01"
     style="display:none;fill:none;stroke:#00ff00;stroke-width:1.13386;stroke-dasharray:none;stroke-opacity:1"><path
       style="fill:none;stroke:#00ff00;stroke-width:1.13386;stroke-linejoin:bevel;stroke-dasharray:none;stroke-opacity:1"
       d="m 90.946974,152.30879 c 0,0 5.74906,7.19064 17.861276,18.08286 14.86138,13.36446 65.94551,15.11629 86.71373,8.82288 24.10642,-7.30499 26.1841,-35.67172 26.1841,-35.67172 0,0 4.01773,-29.21991 -18.6277,-44.925609 -22.64543,-15.705703 -45.98488,-18.992943 -62.45756,-18.992942 -21.54969,0 -49.658119,21.184431 -51.119115,43.464621"
       id="path437"
       sodipodi:nodetypes="csscssc" /><path
       style="fill:none;stroke:#00ff00;stroke-width:1.13386;stroke-linejoin:bevel;stroke-dasharray:none;stroke-opacity:1"
       d="m 145.603,130.90685 c 0,0 -2.09945,-17.28959 8.76829,-22.10597 12.8782,-5.70737 18.15829,6.07137 15.56063,17.66008 -0.81047,3.61565 -2.98506,15.67193 -12.9672,14.94314 -6.65521,-0.4859 -10.24105,-3.0564 -11.36172,-10.49725 z"
       id="path438"
       sodipodi:nodetypes="csssc" /><path
       style="fill:none;stroke:#00ff00;stroke-width:1.13386;stroke-linejoin:bevel;stroke-dasharray:none;stroke-opacity:1"
       d="m 92.128784,112.3823 c 0,0 -0.493988,3.21092 0.86448,3.45791 1.358467,0.247 8.644796,-4.44589 13.955166,-10.62074 5.31037,-6.174852 9.50927,-13.461177 8.3978,-14.57265 -1.11148,-1.111473 -10.37375,4.939881 -10.37375,4.939881"
       id="path439" /><path
       style="fill:none;stroke:#00ff00;stroke-width:1.13386;stroke-linejoin:bevel;stroke-dasharray:none;stroke-opacity:1"
       d="m 149.18441,122.63255 c 0,0 4.57889,-5.08578 9.76577,-3.72731 5.18687,1.35847 5.68086,8.4867 4.44589,9.59818"
       id="path440"
       sodipodi:nodetypes="csc" /><path
       style="fill:none;stroke:#00ff00;stroke-width:1.13386;stroke-linejoin:bevel;stroke-dasharray:none;stroke-opacity:1"
       d="m 100.95436,102.15623 c 0,0 4.81639,-4.445896 6.05136,-3.334423 1.23497,1.111473 -4.96407,8.521293 -4.96407,8.521293"
       id="path441"
       sodipodi:nodetypes="csc" /><path
       style="fill:none;stroke:#00ff00;stroke-width:1.13386;stroke-linejoin:bevel;stroke-dasharray:none;stroke-opacity:1"
       d="m 78.428097,138.60311 c -0.601751,-7.62217 12.636752,-17.04959 15.244336,-17.45076 2.607583,-0.40116 26.145067,-0.9486 34.500347,7.22101 9.02624,8.82566 11.83441,20.05833 9.22683,24.87233 -2.60759,4.814 -7.02042,10.63092 -9.628,10.63092 -2.60759,0 -17.04959,0.20058 -23.46826,-7.42158 -17.250169,-4.41284 -24.872337,-14.24142 -25.875253,-17.85192 z"
       id="path442"
       sodipodi:nodetypes="csssccc" /><path
       style="fill:none;stroke:#00ff00;stroke-width:1.13386;stroke-linejoin:bevel;stroke-dasharray:none;stroke-opacity:1"
       d="m 204.48899,174.16341 c 0,0 24.76125,8.90292 31.99488,36.72456 7.23362,27.82163 8.06827,43.67996 8.06827,43.67996"
       id="path443" /><path
       style="fill:none;stroke:#00ff00;stroke-width:1.13386;stroke-linejoin:bevel;stroke-dasharray:none;stroke-opacity:1"
       d="m 103.49647,165.53871 c 0,0 -55.086832,43.95817 -55.086832,87.63813"
       id="path444" /><path
       style="fill:none;stroke:#00ff00;stroke-width:1.13386;stroke-linejoin:bevel;stroke-dasharray:none;stroke-opacity:1"
       d="m 69.129522,249.44639 c 0,0 23.204315,-65.26214 70.579788,-62.3616 47.37548,2.90054 69.61295,52.20971 72.03007,70.09637"
       id="path445" /></g><g
     id="g436"
     inkscape:label="01"
     style="display:none;fill:none;stroke:#00ff00;stroke-width:1.13386;stroke-dasharray:none;stroke-opacity:1"><path
       style="fill:none;stroke:#00ff00;stroke-width:1.13386;stroke-linejoin:bevel;stroke-dasharray:none;stroke-opacity:1"
       d="m 90.946974,152.30879 c 0,0 5.74906,7.19064 17.861276,18.08286 14.86138,13.36446 65.94551,15.11629 86.71373,8.82288 24.10642,-7.30499 26.1841,-35.67172 26.1841,-35.67172 0,0 4.01773,-29.21991 -18.6277,-44.925609 -22.64543,-15.705703 -45.98488,-18.992943 -62.45756,-18.992942 -21.54969,0 -49.658119,21.184431 -51.119115,43.464621"
       id="path428"
       sodipodi:nodetypes="csscssc" /><path
       style="fill:none;stroke:#00ff00;stroke-width:1.13386;stroke-linejoin:bevel;stroke-dasharray:none;stroke-opacity:1"
       d="m 145.603,130.90685 c 0,0 -2.09945,-17.28959 8.76829,-22.10597 12.8782,-5.70737 18.15829,6.07137 15.56063,17.66008 -0.81047,3.61565 -2.98506,15.67193 -12.9672,14.94314 -6.65521,-0.4859 -10.24105,-3.0564 -11.36172,-10.49725 z"
       id="path429"
       sodipodi:nodetypes="csssc" /><path
       style="fill:none;stroke:#00ff00;stroke-width:1.13386;stroke-linejoin:bevel;stroke-dasharray:none;stroke-opacity:1"
       d="m 92.128784,112.3823 c 0,0 -0.493988,3.21092 0.86448,3.45791 1.358467,0.247 8.644796,-4.44589 13.955166,-10.62074 5.31037,-6.174852 9.50927,-13.461177 8.3978,-14.57265 -1.11148,-1.111473 -10.37375,4.939881 -10.37375,4.939881"
       id="path430" /><path
       style="fill:none;stroke:#00ff00;stroke-width:1.13386;stroke-linejoin:bevel;stroke-dasharray:none;stroke-opacity:1"
       d="m 149.18441,122.63255 c 0,0 4.57889,-5.08578 9.76577,-3.72731 5.18687,1.35847 5.68086,8.4867 4.44589,9.59818"
       id="path431"
       sodipodi:nodetypes="csc" /><path
       style="fill:none;stroke:#00ff00;stroke-width:1.13386;stroke-linejoin:bevel;stroke-dasharray:none;stroke-opacity:1"
       d="m 100.95436,102.15623 c 0,0 4.81639,-4.445896 6.05136,-3.334423 1.23497,1.111473 -4.96407,8.521293 -4.96407,8.521293"
       id="path432"
       sodipodi:nodetypes="csc" /><path
       style="fill:none;stroke:#00ff00;stroke-width:1.13386;stroke-linejoin:bevel;stroke-dasharray:none;stroke-opacity:1"
       d="m 78.428097,138.60311 c -0.601751,-7.62217 12.636752,-17.04959 15.244336,-17.45076 2.607583,-0.40116 26.145067,-0.9486 34.500347,7.22101 9.02624,8.82566 11.83441,20.05833 9.22683,24.87233 -2.60759,4.814 -7.02042,10.63092 -9.628,10.63092 -2.60759,0 -17.04959,0.20058 -23.46826,-7.42158 -17.250169,-4.41284 -24.872337,-14.24142 -25.875253,-17.85192 z"
       id="path433"
       sodipodi:nodetypes="csssccc" /><path
       style="fill:none;stroke:#00ff00;stroke-width:1.13386;stroke-linejoin:bevel;stroke-dasharray:none;stroke-opacity:1"
       d="m 204.48899,174.16341 c 0,0 24.76125,8.90292 31.99488,36.72456 7.23362,27.82163 8.06827,43.67996 8.06827,43.67996"
       id="path434" /><path
       style="fill:none;stroke:#00ff00;stroke-width:1.13386;stroke-linejoin:bevel;stroke-dasharray:none;stroke-opacity:1"
       d="m 103.49647,165.53871 c 0,0 -55.086832,43.95817 -55.086832,87.63813"
       id="path435" /><path
       style="fill:none;stroke:#00ff00;stroke-width:1.13386;stroke-linejoin:bevel;stroke-dasharray:none;stroke-opacity:1"
       d="m 69.129522,249.44639 c 0,0 23.204315,-65.26214 70.579788,-62.3616 47.37548,2.90054 69.61295,52.20971 72.03007,70.09637"
       id="path436" /></g><g
     id="g427"
     inkscape:label="01"
     style="display:none;fill:none;stroke:#00ff00;stroke-width:1.13386;stroke-dasharray:none;stroke-opacity:1"><path
       style="fill:none;stroke:#00ff00;stroke-width:1.13386;stroke-linejoin:bevel;stroke-dasharray:none;stroke-opacity:1"
       d="m 90.946974,152.30879 c 0,0 5.74906,7.19064 17.861276,18.08286 14.86138,13.36446 65.94551,15.11629 86.71373,8.82288 24.10642,-7.30499 26.1841,-35.67172 26.1841,-35.67172 0,0 4.01773,-29.21991 -18.6277,-44.925609 -22.64543,-15.705703 -45.98488,-18.992943 -62.45756,-18.992942 -21.54969,0 -49.658119,21.184431 -51.119115,43.464621"
       id="path419"
       sodipodi:nodetypes="csscssc" /><path
       style="fill:none;stroke:#00ff00;stroke-width:1.13386;stroke-linejoin:bevel;stroke-dasharray:none;stroke-opacity:1"
       d="m 145.603,130.90685 c 0,0 -2.09945,-17.28959 8.76829,-22.10597 12.8782,-5.70737 18.15829,6.07137 15.56063,17.66008 -0.81047,3.61565 -2.98506,15.67193 -12.9672,14.94314 -6.65521,-0.4859 -10.24105,-3.0564 -11.36172,-10.49725 z"
       id="path420"
       sodipodi:nodetypes="csssc" /><path
       style="fill:none;stroke:#00ff00;stroke-width:1.13386;stroke-linejoin:bevel;stroke-dasharray:none;stroke-opacity:1"
       d="m 92.128784,112.3823 c 0,0 -0.493988,3.21092 0.86448,3.45791 1.358467,0.247 8.644796,-4.44589 13.955166,-10.62074 5.31037,-6.174852 9.50927,-13.461177 8.3978,-14.57265 -1.11148,-1.111473 -10.37375,4.939881 -10.37375,4.939881"
       id="path421" /><path
       style="fill:none;stroke:#00ff00;stroke-width:1.13386;stroke-linejoin:bevel;stroke-dasharray:none;stroke-opacity:1"
       d="m 149.18441,122.63255 c 0,0 4.57889,-5.08578 9.76577,-3.72731 5.18687,1.35847 5.68086,8.4867 4.44589,9.59818"
       id="path422"
       sodipodi:nodetypes="csc" /><path
       style="fill:none;stroke:#00ff00;stroke-width:1.13386;stroke-linejoin:bevel;stroke-dasharray:none;stroke-opacity:1"
       d="m 100.95436,102.15623 c 0,0 4.81639,-4.445896 6.05136,-3.334423 1.23497,1.111473 -4.96407,8.521293 -4.96407,8.521293"
       id="path423"
       sodipodi:nodetypes="csc" /><path
       style="fill:none;stroke:#00ff00;stroke-width:1.13386;stroke-linejoin:bevel;stroke-dasharray:none;stroke-opacity:1"
       d="m 78.428097,138.60311 c -0.601751,-7.62217 12.636752,-17.04959 15.244336,-17.45076 2.607583,-0.40116 26.145067,-0.9486 34.500347,7.22101 9.02624,8.82566 11.83441,20.05833 9.22683,24.87233 -2.60759,4.814 -7.02042,10.63092 -9.628,10.63092 -2.60759,0 -17.04959,0.20058 -23.46826,-7.42158 -17.250169,-4.41284 -24.872337,-14.24142 -25.875253,-17.85192 z"
       id="path424"
       sodipodi:nodetypes="csssccc" /><path
       style="fill:none;stroke:#00ff00;stroke-width:1.13386;stroke-linejoin:bevel;stroke-dasharray:none;stroke-opacity:1"
       d="m 204.48899,174.16341 c 0,0 24.76125,8.90292 31.99488,36.72456 7.23362,27.82163 8.06827,43.67996 8.06827,43.67996"
       id="path425" /><path
       style="fill:none;stroke:#00ff00;stroke-width:1.13386;stroke-linejoin:bevel;stroke-dasharray:none;stroke-opacity:1"
       d="m 103.49647,165.53871 c 0,0 -55.086832,43.95817 -55.086832,87.63813"
       id="path426" /><path
       style="fill:none;stroke:#00ff00;stroke-width:1.13386;stroke-linejoin:bevel;stroke-dasharray:none;stroke-opacity:1"
       d="m 69.129522,249.44639 c 0,0 23.204315,-65.26214 70.579788,-62.3616 47.37548,2.90054 69.61295,52.20971 72.03007,70.09637"
       id="path427" /></g><g
     id="g418"
     inkscape:label="03"
     style="display:none;fill:none;stroke:#00ff00;stroke-width:1.13386;stroke-dasharray:none;stroke-opacity:1"><path
       style="display:inline;fill:none;stroke:#00ff00;stroke-width:1.13386;stroke-linejoin:bevel;stroke-dasharray:none;stroke-opacity:1"
       d="m 96.525541,157.49459 c 31.126729,33.9561 73.045049,27.74347 95.337549,20.98816 24.10642,-7.30499 26.1841,-35.67172 26.1841,-35.67172 0,0 4.01773,-29.21991 -18.6277,-44.925607 C 176.77406,82.17972 153.43461,78.89248 136.96193,78.892481 c -21.54969,0 -45.588952,18.895523 -48.321563,33.037379"
       id="path409"
       sodipodi:nodetypes="cscssc" /><path
       style="display:inline;fill:none;stroke:#00ff00;stroke-width:1.13386;stroke-linejoin:bevel;stroke-dasharray:none;stroke-opacity:1"
       d="m 143.2502,127.24694 c 0,0 -2.09945,-17.28959 8.76829,-22.10597 12.8782,-5.707372 18.15829,6.07137 15.56063,17.66008 -0.81047,3.61565 -2.98506,15.67193 -12.9672,14.94314 -6.65521,-0.4859 -10.24105,-3.0564 -11.36172,-10.49725 z"
       id="path410"
       sodipodi:nodetypes="csssc" /><path
       style="display:inline;fill:none;stroke:#00ff00;stroke-width:1.13386;stroke-linejoin:bevel;stroke-dasharray:none;stroke-opacity:1"
       d="m 90.357845,109.52155 c 0,0 -0.493988,3.21092 0.86448,3.45791 1.358467,0.247 8.644796,-4.44589 13.955165,-10.62074 5.31037,-6.17485 9.50927,-13.461175 8.3978,-14.572648 -1.11148,-1.111473 -10.37375,4.939881 -10.37375,4.939881"
       id="path411" /><path
       style="display:inline;fill:none;stroke:#00ff00;stroke-width:1.13386;stroke-linejoin:bevel;stroke-dasharray:none;stroke-opacity:1"
       d="m 146.83161,118.97264 c 0,0 4.57889,-5.08578 9.76577,-3.72731 5.18687,1.35847 5.68086,8.4867 4.44589,9.59818"
       id="path412"
       sodipodi:nodetypes="csc" /><path
       style="display:inline;fill:none;stroke:#00ff00;stroke-width:1.13386;stroke-linejoin:bevel;stroke-dasharray:none;stroke-opacity:1"
       d="m 99.183421,99.295482 c 0,0 4.816389,-4.445896 6.051359,-3.334423 1.23497,1.111473 -4.96407,8.521291 -4.96407,8.521291"
       id="path413"
       sodipodi:nodetypes="csc" /><path
       style="display:inline;fill:none;stroke:#00ff00;stroke-width:1.13386;stroke-linejoin:bevel;stroke-dasharray:none;stroke-opacity:1"
       d="m 47.143236,131.91937 c 2.340075,-30.59024 29.576451,-20.38792 42.629431,-20.00726 2.63714,0.0769 24.449733,0.91627 32.805013,9.08588 9.02624,8.82566 11.83441,20.05833 9.22683,24.87233 -2.60759,4.814 -5.72488,8.6876 -10.4917,9.87519 -2.60759,0 -37.294694,1.71928 -50.580089,2.23545 -16.24243,-1.92563 -24.50699,-7.44358 -23.589485,-26.06159 z"
       id="path414"
       sodipodi:nodetypes="csssccc" /><path
       style="display:inline;fill:none;stroke:#00ff00;stroke-width:1.13386;stroke-linejoin:bevel;stroke-dasharray:none;stroke-opacity:1"
       d="m 204.48899,174.16341 c 0,0 24.76125,8.90292 31.99488,36.72456 7.23362,27.82163 8.06827,43.67996 8.06827,43.67996"
       id="path415" /><path
       style="display:inline;fill:none;stroke:#00ff00;stroke-width:1.13386;stroke-linejoin:bevel;stroke-dasharray:none;stroke-opacity:1"
       d="m 101.00087,164.12366 c 0,0 -52.591232,45.37322 -52.591232,89.05318"
       id="path416"
       sodipodi:nodetypes="cc" /><path
       style="display:inline;fill:none;stroke:#00ff00;stroke-width:1.13386;stroke-linejoin:bevel;stroke-dasharray:none;stroke-opacity:1"
       d="m 69.129522,249.44639 c 0,0 23.204315,-65.26214 70.579788,-62.3616 47.37548,2.90054 69.61295,52.20971 72.03007,70.09637"
       id="path417" /><path
       style="display:inline;fill:none;stroke:#00ff00;stroke-width:1.13386;stroke-linejoin:bevel;stroke-dasharray:none;stroke-opacity:1"
       d="m 54.956532,124.94379 c 0,0 7.295927,-9.40906 12.573693,-1.46609 5.277766,7.94297 0.390945,17.13189 -0.781891,18.06636 -1.172837,0.93446 -7.818912,7.0085 -13.683096,1.09021"
       id="path418"
       sodipodi:nodetypes="cssc" /></g><g
     id="g398"
     inkscape:label="02"
     style="display:none;fill:none;stroke:#00ff00;stroke-width:1.13386;stroke-dasharray:none;stroke-opacity:1"><path
       style="display:inline;fill:none;stroke:#00ff00;stroke-width:1.13386;stroke-linejoin:bevel;stroke-dasharray:none;stroke-opacity:1"
       d="m 96.525541,157.49459 c 31.126729,33.9561 73.045049,27.74347 95.337549,20.98816 24.10642,-7.30499 26.1841,-35.67172 26.1841,-35.67172 0,0 4.01773,-29.21991 -18.6277,-44.925607 C 176.77406,82.17972 153.43461,78.89248 136.96193,78.892481 c -21.54969,0 -45.588952,18.895523 -48.321563,33.037379"
       id="path389"
       sodipodi:nodetypes="cscssc" /><path
       style="display:inline;fill:none;stroke:#00ff00;stroke-width:1.13386;stroke-linejoin:bevel;stroke-dasharray:none;stroke-opacity:1"
       d="m 143.2502,127.24694 c 0,0 -2.09945,-17.28959 8.76829,-22.10597 12.8782,-5.707372 18.15829,6.07137 15.56063,17.66008 -0.81047,3.61565 -2.98506,15.67193 -12.9672,14.94314 -6.65521,-0.4859 -10.24105,-3.0564 -11.36172,-10.49725 z"
       id="path390"
       sodipodi:nodetypes="csssc" /><path
       style="display:inline;fill:none;stroke:#00ff00;stroke-width:1.13386;stroke-linejoin:bevel;stroke-dasharray:none;stroke-opacity:1"
       d="m 90.357845,109.52155 c 0,0 -0.493988,3.21092 0.86448,3.45791 1.358467,0.247 8.644796,-4.44589 13.955165,-10.62074 5.31037,-6.17485 9.50927,-13.461175 8.3978,-14.572648 -1.11148,-1.111473 -10.37375,4.939881 -10.37375,4.939881"
       id="path391" /><path
       style="display:inline;fill:none;stroke:#00ff00;stroke-width:1.13386;stroke-linejoin:bevel;stroke-dasharray:none;stroke-opacity:1"
       d="m 146.83161,118.97264 c 0,0 4.57889,-5.08578 9.76577,-3.72731 5.18687,1.35847 5.68086,8.4867 4.44589,9.59818"
       id="path392"
       sodipodi:nodetypes="csc" /><path
       style="display:inline;fill:none;stroke:#00ff00;stroke-width:1.13386;stroke-linejoin:bevel;stroke-dasharray:none;stroke-opacity:1"
       d="m 99.183421,99.295482 c 0,0 4.816389,-4.445896 6.051359,-3.334423 1.23497,1.111473 -4.96407,8.521291 -4.96407,8.521291"
       id="path393"
       sodipodi:nodetypes="csc" /><path
       style="display:inline;fill:none;stroke:#00ff00;stroke-width:1.13386;stroke-linejoin:bevel;stroke-dasharray:none;stroke-opacity:1"
       d="m 17.136268,130.71909 c -0.291454,-3.69173 5.02593,-31.301387 22.504358,-33.171103 25.236437,-2.699611 28.288786,10.286723 35.267162,12.220203 7.161709,1.98428 12.497249,4.11222 13.16954,4.00879 2.607582,-0.40117 26.145072,-0.9486 34.500352,7.22101 9.02624,8.82566 11.83441,20.05833 9.22683,24.87233 -2.60759,4.814 -5.72488,8.6876 -10.4917,9.87519 -2.60759,0 -37.294694,1.71928 -50.580089,2.23545 -10.730436,-0.75181 -28.692314,8.5754 -38.045357,4.00292 -13.977075,-6.83305 -14.950249,-29.10174 -15.551096,-31.26479 z"
       id="path394"
       sodipodi:nodetypes="csssssccsc" /><path
       style="display:inline;fill:none;stroke:#00ff00;stroke-width:1.13386;stroke-linejoin:bevel;stroke-dasharray:none;stroke-opacity:1"
       d="m 204.48899,174.16341 c 0,0 24.76125,8.90292 31.99488,36.72456 7.23362,27.82163 8.06827,43.67996 8.06827,43.67996"
       id="path395" /><path
       style="display:inline;fill:none;stroke:#00ff00;stroke-width:1.13386;stroke-linejoin:bevel;stroke-dasharray:none;stroke-opacity:1"
       d="m 101.00087,164.12366 c 0,0 -52.591232,45.37322 -52.591232,89.05318"
       id="path396"
       sodipodi:nodetypes="cc" /><path
       style="display:inline;fill:none;stroke:#00ff00;stroke-width:1.13386;stroke-linejoin:bevel;stroke-dasharray:none;stroke-opacity:1"
       d="m 69.129522,249.44639 c 0,0 23.204315,-65.26214 70.579788,-62.3616 47.37548,2.90054 69.61295,52.20971 72.03007,70.09637"
       id="path397" /><path
       style="display:inline;fill:none;stroke:#00ff00;stroke-width:1.13386;stroke-linejoin:bevel;stroke-dasharray:none;stroke-opacity:1"
       d="m 33.316306,113.42803 c 0,0 11.444532,-11.44453 18.311251,1.52594 6.86672,12.97047 0.508646,27.97552 -1.017291,29.50146 -1.525938,1.52594 -10.172918,11.44453 -17.802606,1.78026"
       id="path398" /></g><g
     id="g408"
     inkscape:label="04"
     style="display:none;fill:none;stroke:#00ff00;stroke-width:1.13386;stroke-dasharray:none;stroke-opacity:1"><path
       style="display:inline;fill:none;stroke:#00ff00;stroke-width:1.13386;stroke-linejoin:bevel;stroke-dasharray:none;stroke-opacity:1"
       d="m 89.914136,147.57748 c 29.560874,36.91384 79.656454,37.66058 101.948954,30.90527 24.10642,-7.30499 26.1841,-35.67172 26.1841,-35.67172 0,0 4.01773,-29.21991 -18.6277,-44.925607 -22.64543,-15.705703 -45.98488,-18.992942 -62.45756,-18.992942 -14.75067,0 -30.66779,8.853202 -40.11968,18.97508"
       id="path399"
       sodipodi:nodetypes="cscssc" /><path
       style="display:inline;fill:none;stroke:#00ff00;stroke-width:1.13386;stroke-linejoin:bevel;stroke-dasharray:none;stroke-opacity:1"
       d="m 140.98945,119.627 c 0,0 -0.0459,-17.41653 11.31397,-20.917711 13.46139,-4.148876 17.31562,8.170341 13.36948,19.371851 -1.2312,3.49485 -4.81236,15.21056 -14.63891,13.30971 -6.55147,-1.26733 -9.80916,-4.24276 -10.04454,-11.76385 z"
       id="path400"
       sodipodi:nodetypes="csssc" /><path
       style="display:inline;fill:none;stroke:#00ff00;stroke-width:1.13386;stroke-linejoin:bevel;stroke-dasharray:none;stroke-opacity:1"
       d="m 98.387992,102.01509 c 1.08137,0.33364 5.373898,-1.60791 10.094288,-6.865646 3.37952,-3.764227 6.33775,-8.096739 7.44405,-10.661247"
       id="path401"
       sodipodi:nodetypes="csc" /><path
       style="display:inline;fill:none;stroke:#00ff00;stroke-width:1.13386;stroke-linejoin:bevel;stroke-dasharray:none;stroke-opacity:1"
       d="m 145.25452,112.86142 c 0,0 4.57889,-5.08578 9.76577,-3.72731 5.18687,1.35847 5.68086,8.4867 4.44589,9.59818"
       id="path402"
       sodipodi:nodetypes="csc" /><path
       style="display:inline;fill:none;stroke:#00ff00;stroke-width:1.13386;stroke-linejoin:bevel;stroke-dasharray:none;stroke-opacity:1"
       d="m 103.84718,93.290685 c 0,0 4.26359,-4.141903 5.18538,-3.023512 0.9218,1.11839 -4.6645,6.448652 -4.6645,6.448652"
       id="path403"
       sodipodi:nodetypes="csc" /><path
       style="display:inline;fill:none;stroke:#00ff00;stroke-width:1.13386;stroke-linejoin:bevel;stroke-dasharray:none;stroke-opacity:1"
       d="m 31.402985,106.36128 c 9.906792,-26.156959 23.098221,-34.759102 41.416991,-32.607852 23.488007,2.758295 25.198107,30.905812 25.870398,30.802382 2.607586,-0.40117 12.922256,1.13921 21.277536,9.30882 9.02624,8.82566 11.83441,20.05833 9.22683,24.87233 -2.60759,4.814 -5.72488,8.6876 -10.4917,9.87519 -1.47392,0 -17.6609,-4.87022 -32.343565,-1.44763 -13.033014,13.41951 -20.985837,13.72375 -26.761752,13.94816 -17.7995,-4.28908 -35.102573,-11.04253 -28.194738,-54.7514 z"
       id="path404"
       sodipodi:nodetypes="cscsscccc" /><path
       style="display:inline;fill:none;stroke:#00ff00;stroke-width:1.13386;stroke-linejoin:bevel;stroke-dasharray:none;stroke-opacity:1"
       d="m 204.48899,174.16341 c 0,0 24.76125,8.90292 31.99488,36.72456 7.23362,27.82163 8.06827,43.67996 8.06827,43.67996"
       id="path405" /><path
       style="display:inline;fill:none;stroke:#00ff00;stroke-width:1.13386;stroke-linejoin:bevel;stroke-dasharray:none;stroke-opacity:1"
       d="m 103.9586,164.12366 c 0,0 -55.548962,45.37322 -55.548962,89.05318"
       id="path406"
       sodipodi:nodetypes="cc" /><path
       style="display:inline;fill:none;stroke:#00ff00;stroke-width:1.13386;stroke-linejoin:bevel;stroke-dasharray:none;stroke-opacity:1"
       d="m 69.129522,249.44639 c 0,0 23.204315,-65.26214 70.579788,-62.3616 47.37548,2.90054 69.61295,52.20971 72.03007,70.09637"
       id="path407" /><path
       style="display:inline;fill:none;stroke:#00ff00;stroke-width:1.13386;stroke-linejoin:bevel;stroke-dasharray:none;stroke-opacity:1"
       d="m 54.064216,93.210574 c 0,0 21.400451,-14.132947 29.105515,6.22141 7.705066,20.354376 -6.422498,40.774736 -9.275891,42.659136 -2.853394,1.8844 -19.351804,14.41096 -29.141926,-1.30451"
       id="path408"
       sodipodi:nodetypes="cssc" /></g><g
     id="g388"
     inkscape:label="05"
     style="display:none;fill:none;stroke:#00ff00;stroke-width:1.13386;stroke-dasharray:none;stroke-opacity:1"><path
       style="fill:none;stroke:#00ff00;stroke-width:1.13386;stroke-linejoin:bevel;stroke-dasharray:none;stroke-opacity:1"
       d="m 93.712478,152.00517 c 29.888662,32.53535 76.786912,32.95143 98.150612,26.47758 24.10642,-7.30498 26.1841,-35.67172 26.1841,-35.67172 0,0 4.01773,-29.21991 -18.6277,-44.925607 -22.64543,-15.705703 -45.98488,-18.992942 -62.45756,-18.992942 -8.40607,0 -17.19096,2.875168 -24.94225,7.22181"
       id="path380"
       sodipodi:nodetypes="cscssc" /><path
       style="fill:none;stroke:#00ff00;stroke-width:1.13386;stroke-linejoin:bevel;stroke-dasharray:none;stroke-opacity:1"
       d="m 140.98945,119.627 c 0,0 -0.0459,-17.41653 11.31397,-20.917711 13.46139,-4.148876 17.31562,8.170341 13.36948,19.371851 -1.2312,3.49485 -4.81236,15.21056 -14.63891,13.30971 -6.55147,-1.26733 -9.80916,-4.24276 -10.04454,-11.76385 z"
       id="path381"
       sodipodi:nodetypes="csssc" /><path
       style="fill:none;stroke:#00ff00;stroke-width:1.13386;stroke-linejoin:bevel;stroke-dasharray:none;stroke-opacity:1"
       d="m 112.57906,90.046311 c 1.52869,-2.133475 2.72806,-4.122731 3.34727,-5.558114"
       id="path382"
       sodipodi:nodetypes="cc" /><path
       style="fill:none;stroke:#00ff00;stroke-width:1.13386;stroke-linejoin:bevel;stroke-dasharray:none;stroke-opacity:1"
       d="m 145.25452,112.86142 c 0,0 4.57889,-5.08578 9.76577,-3.72731 5.18687,1.35847 5.68086,8.4867 4.44589,9.59818"
       id="path383"
       sodipodi:nodetypes="csc" /><path
       style="fill:none;stroke:#00ff00;stroke-width:1.13386;stroke-linejoin:bevel;stroke-dasharray:none;stroke-opacity:1"
       d="m 31.402985,106.36128 c 9.906792,-29.170578 27.719103,-49.023564 55.078729,-45.867774 23.493646,2.709869 27.609006,34.723062 28.482196,47.276834 2.6141,5.76308 18.75899,19.0578 14.23083,30.96662 -2.60759,4.814 -5.72488,8.6876 -10.4917,9.87519 -1.47392,0 -8.62004,-3.06205 -23.302709,0.36054 -9.014856,13.41951 -27.72155,15.21891 -33.994437,14.34998 -17.7995,-4.28908 -40.727994,-18.67703 -30.002909,-56.96139 z"
       id="path384"
       sodipodi:nodetypes="cscscccc" /><path
       style="fill:none;stroke:#00ff00;stroke-width:1.13386;stroke-linejoin:bevel;stroke-dasharray:none;stroke-opacity:1"
       d="m 204.48899,174.16341 c 0,0 24.76125,8.90292 31.99488,36.72456 7.23362,27.82163 8.06827,43.67996 8.06827,43.67996"
       id="path385" /><path
       style="fill:none;stroke:#00ff00;stroke-width:1.13386;stroke-linejoin:bevel;stroke-dasharray:none;stroke-opacity:1"
       d="m 103.9586,164.12366 c 0,0 -55.548962,45.37322 -55.548962,89.05318"
       id="path386"
       sodipodi:nodetypes="cc" /><path
       style="fill:none;stroke:#00ff00;stroke-width:1.13386;stroke-linejoin:bevel;stroke-dasharray:none;stroke-opacity:1"
       d="m 69.129522,249.44639 c 0,0 23.204315,-65.26214 70.579788,-62.3616 47.37548,2.90054 69.61295,52.20971 72.03007,70.09637"
       id="path387" /><path
       style="fill:none;stroke:#00ff00;stroke-width:1.13386;stroke-linejoin:bevel;stroke-dasharray:none;stroke-opacity:1"
       d="m 59.34079,80.982626 c 0,0 23.722301,-20.197064 34.409136,8.86581 8.405194,22.857954 -11.114222,49.649014 -14.625435,51.725854 -3.511215,2.07683 -28.533925,20.09361 -37.367681,-12.3786"
       id="path388"
       sodipodi:nodetypes="cssc" /></g><g
     id="g379"
     inkscape:label="05"
     style="display:none;fill:none;stroke:#00ff00;stroke-width:1.13386;stroke-dasharray:none;stroke-opacity:1"><path
       style="fill:none;stroke:#00ff00;stroke-width:1.13386;stroke-linejoin:bevel;stroke-dasharray:none;stroke-opacity:1"
       d="m 93.712478,152.00517 c 29.888662,32.53535 76.786912,32.95143 98.150612,26.47758 24.10642,-7.30498 26.1841,-35.67172 26.1841,-35.67172 0,0 4.01773,-29.21991 -18.6277,-44.925607 -22.64543,-15.705703 -45.98488,-18.992942 -62.45756,-18.992942 -8.40607,0 -17.19096,2.875168 -24.94225,7.22181"
       id="path371"
       sodipodi:nodetypes="cscssc" /><path
       style="fill:none;stroke:#00ff00;stroke-width:1.13386;stroke-linejoin:bevel;stroke-dasharray:none;stroke-opacity:1"
       d="m 140.98945,119.627 c 0,0 -0.0459,-17.41653 11.31397,-20.917711 13.46139,-4.148876 17.31562,8.170341 13.36948,19.371851 -1.2312,3.49485 -4.81236,15.21056 -14.63891,13.30971 -6.55147,-1.26733 -9.80916,-4.24276 -10.04454,-11.76385 z"
       id="path372"
       sodipodi:nodetypes="csssc" /><path
       style="fill:none;stroke:#00ff00;stroke-width:1.13386;stroke-linejoin:bevel;stroke-dasharray:none;stroke-opacity:1"
       d="m 112.57906,90.046311 c 1.52869,-2.133475 2.72806,-4.122731 3.34727,-5.558114"
       id="path373"
       sodipodi:nodetypes="cc" /><path
       style="fill:none;stroke:#00ff00;stroke-width:1.13386;stroke-linejoin:bevel;stroke-dasharray:none;stroke-opacity:1"
       d="m 145.25452,112.86142 c 0,0 4.57889,-5.08578 9.76577,-3.72731 5.18687,1.35847 5.68086,8.4867 4.44589,9.59818"
       id="path374"
       sodipodi:nodetypes="csc" /><path
       style="fill:none;stroke:#00ff00;stroke-width:1.13386;stroke-linejoin:bevel;stroke-dasharray:none;stroke-opacity:1"
       d="m 31.402985,106.36128 c 9.906792,-29.170578 27.719103,-49.023564 55.078729,-45.867774 23.493646,2.709869 27.609006,34.723062 28.482196,47.276834 2.6141,5.76308 18.75899,19.0578 14.23083,30.96662 -2.60759,4.814 -5.72488,8.6876 -10.4917,9.87519 -1.47392,0 -8.62004,-3.06205 -23.302709,0.36054 -9.014856,13.41951 -27.72155,15.21891 -33.994437,14.34998 -17.7995,-4.28908 -40.727994,-18.67703 -30.002909,-56.96139 z"
       id="path375"
       sodipodi:nodetypes="cscscccc" /><path
       style="fill:none;stroke:#00ff00;stroke-width:1.13386;stroke-linejoin:bevel;stroke-dasharray:none;stroke-opacity:1"
       d="m 204.48899,174.16341 c 0,0 24.76125,8.90292 31.99488,36.72456 7.23362,27.82163 8.06827,43.67996 8.06827,43.67996"
       id="path376" /><path
       style="fill:none;stroke:#00ff00;stroke-width:1.13386;stroke-linejoin:bevel;stroke-dasharray:none;stroke-opacity:1"
       d="m 103.9586,164.12366 c 0,0 -55.548962,45.37322 -55.548962,89.05318"
       id="path377"
       sodipodi:nodetypes="cc" /><path
       style="fill:none;stroke:#00ff00;stroke-width:1.13386;stroke-linejoin:bevel;stroke-dasharray:none;stroke-opacity:1"
       d="m 69.129522,249.44639 c 0,0 23.204315,-65.26214 70.579788,-62.3616 47.37548,2.90054 69.61295,52.20971 72.03007,70.09637"
       id="path378" /><path
       style="fill:none;stroke:#00ff00;stroke-width:1.13386;stroke-linejoin:bevel;stroke-dasharray:none;stroke-opacity:1"
       d="m 59.34079,80.982626 c 0,0 23.722301,-20.197064 34.409136,8.86581 8.405194,22.857954 -11.114222,49.649014 -14.625435,51.725854 -3.511215,2.07683 -28.533925,20.09361 -37.367681,-12.3786"
       id="path379"
       sodipodi:nodetypes="cssc" /></g><g
     id="g370"
     inkscape:label="04"
     style="display:none;fill:none;stroke:#00ff00;stroke-width:1.13386;stroke-dasharray:none;stroke-opacity:1"><path
       style="display:inline;fill:none;stroke:#00ff00;stroke-width:1.13386;stroke-linejoin:bevel;stroke-dasharray:none;stroke-opacity:1"
       d="m 89.914136,147.57748 c 29.560874,36.91384 79.656454,37.66058 101.948954,30.90527 24.10642,-7.30499 26.1841,-35.67172 26.1841,-35.67172 0,0 4.01773,-29.21991 -18.6277,-44.925607 -22.64543,-15.705703 -45.98488,-18.992942 -62.45756,-18.992942 -14.75067,0 -30.66779,8.853202 -40.11968,18.97508"
       id="path361"
       sodipodi:nodetypes="cscssc" /><path
       style="display:inline;fill:none;stroke:#00ff00;stroke-width:1.13386;stroke-linejoin:bevel;stroke-dasharray:none;stroke-opacity:1"
       d="m 140.98945,119.627 c 0,0 -0.0459,-17.41653 11.31397,-20.917711 13.46139,-4.148876 17.31562,8.170341 13.36948,19.371851 -1.2312,3.49485 -4.81236,15.21056 -14.63891,13.30971 -6.55147,-1.26733 -9.80916,-4.24276 -10.04454,-11.76385 z"
       id="path362"
       sodipodi:nodetypes="csssc" /><path
       style="display:inline;fill:none;stroke:#00ff00;stroke-width:1.13386;stroke-linejoin:bevel;stroke-dasharray:none;stroke-opacity:1"
       d="m 98.387992,102.01509 c 1.08137,0.33364 5.373898,-1.60791 10.094288,-6.865646 3.37952,-3.764227 6.33775,-8.096739 7.44405,-10.661247"
       id="path363"
       sodipodi:nodetypes="csc" /><path
       style="display:inline;fill:none;stroke:#00ff00;stroke-width:1.13386;stroke-linejoin:bevel;stroke-dasharray:none;stroke-opacity:1"
       d="m 145.25452,112.86142 c 0,0 4.57889,-5.08578 9.76577,-3.72731 5.18687,1.35847 5.68086,8.4867 4.44589,9.59818"
       id="path364"
       sodipodi:nodetypes="csc" /><path
       style="display:inline;fill:none;stroke:#00ff00;stroke-width:1.13386;stroke-linejoin:bevel;stroke-dasharray:none;stroke-opacity:1"
       d="m 103.84718,93.290685 c 0,0 4.26359,-4.141903 5.18538,-3.023512 0.9218,1.11839 -4.6645,6.448652 -4.6645,6.448652"
       id="path365"
       sodipodi:nodetypes="csc" /><path
       style="display:inline;fill:none;stroke:#00ff00;stroke-width:1.13386;stroke-linejoin:bevel;stroke-dasharray:none;stroke-opacity:1"
       d="m 31.402985,106.36128 c 9.906792,-26.156959 23.098221,-34.759102 41.416991,-32.607852 23.488007,2.758295 25.198107,30.905812 25.870398,30.802382 2.607586,-0.40117 12.922256,1.13921 21.277536,9.30882 9.02624,8.82566 11.83441,20.05833 9.22683,24.87233 -2.60759,4.814 -5.72488,8.6876 -10.4917,9.87519 -1.47392,0 -17.6609,-4.87022 -32.343565,-1.44763 -13.033014,13.41951 -20.985837,13.72375 -26.761752,13.94816 -17.7995,-4.28908 -35.102573,-11.04253 -28.194738,-54.7514 z"
       id="path366"
       sodipodi:nodetypes="cscsscccc" /><path
       style="display:inline;fill:none;stroke:#00ff00;stroke-width:1.13386;stroke-linejoin:bevel;stroke-dasharray:none;stroke-opacity:1"
       d="m 204.48899,174.16341 c 0,0 24.76125,8.90292 31.99488,36.72456 7.23362,27.82163 8.06827,43.67996 8.06827,43.67996"
       id="path367" /><path
       style="display:inline;fill:none;stroke:#00ff00;stroke-width:1.13386;stroke-linejoin:bevel;stroke-dasharray:none;stroke-opacity:1"
       d="m 103.9586,164.12366 c 0,0 -55.548962,45.37322 -55.548962,89.05318"
       id="path368"
       sodipodi:nodetypes="cc" /><path
       style="display:inline;fill:none;stroke:#00ff00;stroke-width:1.13386;stroke-linejoin:bevel;stroke-dasharray:none;stroke-opacity:1"
       d="m 69.129522,249.44639 c 0,0 23.204315,-65.26214 70.579788,-62.3616 47.37548,2.90054 69.61295,52.20971 72.03007,70.09637"
       id="path369" /><path
       style="display:inline;fill:none;stroke:#00ff00;stroke-width:1.13386;stroke-linejoin:bevel;stroke-dasharray:none;stroke-opacity:1"
       d="m 54.064216,93.210574 c 0,0 21.400451,-14.132947 29.105515,6.22141 7.705066,20.354376 -6.422498,40.774736 -9.275891,42.659136 -2.853394,1.8844 -19.351804,14.41096 -29.141926,-1.30451"
       id="path370"
       sodipodi:nodetypes="cssc" /></g><g
     id="g360"
     inkscape:label="02"
     style="display:none;fill:none;stroke:#00ff00;stroke-width:1.13386;stroke-dasharray:none;stroke-opacity:1"><path
       style="display:inline;fill:none;stroke:#00ff00;stroke-width:1.13386;stroke-linejoin:bevel;stroke-dasharray:none;stroke-opacity:1"
       d="m 96.525541,157.49459 c 31.126729,33.9561 73.045049,27.74347 95.337549,20.98816 24.10642,-7.30499 26.1841,-35.67172 26.1841,-35.67172 0,0 4.01773,-29.21991 -18.6277,-44.925607 C 176.77406,82.17972 153.43461,78.89248 136.96193,78.892481 c -21.54969,0 -45.588952,18.895523 -48.321563,33.037379"
       id="path351"
       sodipodi:nodetypes="cscssc" /><path
       style="display:inline;fill:none;stroke:#00ff00;stroke-width:1.13386;stroke-linejoin:bevel;stroke-dasharray:none;stroke-opacity:1"
       d="m 143.2502,127.24694 c 0,0 -2.09945,-17.28959 8.76829,-22.10597 12.8782,-5.707372 18.15829,6.07137 15.56063,17.66008 -0.81047,3.61565 -2.98506,15.67193 -12.9672,14.94314 -6.65521,-0.4859 -10.24105,-3.0564 -11.36172,-10.49725 z"
       id="path352"
       sodipodi:nodetypes="csssc" /><path
       style="display:inline;fill:none;stroke:#00ff00;stroke-width:1.13386;stroke-linejoin:bevel;stroke-dasharray:none;stroke-opacity:1"
       d="m 90.357845,109.52155 c 0,0 -0.493988,3.21092 0.86448,3.45791 1.358467,0.247 8.644796,-4.44589 13.955165,-10.62074 5.31037,-6.17485 9.50927,-13.461175 8.3978,-14.572648 -1.11148,-1.111473 -10.37375,4.939881 -10.37375,4.939881"
       id="path353" /><path
       style="display:inline;fill:none;stroke:#00ff00;stroke-width:1.13386;stroke-linejoin:bevel;stroke-dasharray:none;stroke-opacity:1"
       d="m 146.83161,118.97264 c 0,0 4.57889,-5.08578 9.76577,-3.72731 5.18687,1.35847 5.68086,8.4867 4.44589,9.59818"
       id="path354"
       sodipodi:nodetypes="csc" /><path
       style="display:inline;fill:none;stroke:#00ff00;stroke-width:1.13386;stroke-linejoin:bevel;stroke-dasharray:none;stroke-opacity:1"
       d="m 99.183421,99.295482 c 0,0 4.816389,-4.445896 6.051359,-3.334423 1.23497,1.111473 -4.96407,8.521291 -4.96407,8.521291"
       id="path355"
       sodipodi:nodetypes="csc" /><path
       style="display:inline;fill:none;stroke:#00ff00;stroke-width:1.13386;stroke-linejoin:bevel;stroke-dasharray:none;stroke-opacity:1"
       d="m 17.136268,130.71909 c -0.291454,-3.69173 5.02593,-31.301387 22.504358,-33.171103 25.236437,-2.699611 28.288786,10.286723 35.267162,12.220203 7.161709,1.98428 12.497249,4.11222 13.16954,4.00879 2.607582,-0.40117 26.145072,-0.9486 34.500352,7.22101 9.02624,8.82566 11.83441,20.05833 9.22683,24.87233 -2.60759,4.814 -5.72488,8.6876 -10.4917,9.87519 -2.60759,0 -37.294694,1.71928 -50.580089,2.23545 -10.730436,-0.75181 -28.692314,8.5754 -38.045357,4.00292 -13.977075,-6.83305 -14.950249,-29.10174 -15.551096,-31.26479 z"
       id="path356"
       sodipodi:nodetypes="csssssccsc" /><path
       style="display:inline;fill:none;stroke:#00ff00;stroke-width:1.13386;stroke-linejoin:bevel;stroke-dasharray:none;stroke-opacity:1"
       d="m 204.48899,174.16341 c 0,0 24.76125,8.90292 31.99488,36.72456 7.23362,27.82163 8.06827,43.67996 8.06827,43.67996"
       id="path357" /><path
       style="display:inline;fill:none;stroke:#00ff00;stroke-width:1.13386;stroke-linejoin:bevel;stroke-dasharray:none;stroke-opacity:1"
       d="m 101.00087,164.12366 c 0,0 -52.591232,45.37322 -52.591232,89.05318"
       id="path358"
       sodipodi:nodetypes="cc" /><path
       style="display:inline;fill:none;stroke:#00ff00;stroke-width:1.13386;stroke-linejoin:bevel;stroke-dasharray:none;stroke-opacity:1"
       d="m 69.129522,249.44639 c 0,0 23.204315,-65.26214 70.579788,-62.3616 47.37548,2.90054 69.61295,52.20971 72.03007,70.09637"
       id="path359" /><path
       style="display:inline;fill:none;stroke:#00ff00;stroke-width:1.13386;stroke-linejoin:bevel;stroke-dasharray:none;stroke-opacity:1"
       d="m 33.316306,113.42803 c 0,0 11.444532,-11.44453 18.311251,1.52594 6.86672,12.97047 0.508646,27.97552 -1.017291,29.50146 -1.525938,1.52594 -10.172918,11.44453 -17.802606,1.78026"
       id="path360" /></g><g
     id="g205"
     inkscape:label="03"
     style="display:none;fill:none;stroke:#00ff00;stroke-width:1.13386;stroke-dasharray:none;stroke-opacity:1"><path
       style="display:inline;fill:none;stroke:#00ff00;stroke-width:1.13386;stroke-linejoin:bevel;stroke-dasharray:none;stroke-opacity:1"
       d="m 96.525541,157.49459 c 31.126729,33.9561 73.045049,27.74347 95.337549,20.98816 24.10642,-7.30499 26.1841,-35.67172 26.1841,-35.67172 0,0 4.01773,-29.21991 -18.6277,-44.925607 C 176.77406,82.17972 153.43461,78.89248 136.96193,78.892481 c -21.54969,0 -45.588952,18.895523 -48.321563,33.037379"
       id="path196"
       sodipodi:nodetypes="cscssc" /><path
       style="display:inline;fill:none;stroke:#00ff00;stroke-width:1.13386;stroke-linejoin:bevel;stroke-dasharray:none;stroke-opacity:1"
       d="m 143.2502,127.24694 c 0,0 -2.09945,-17.28959 8.76829,-22.10597 12.8782,-5.707372 18.15829,6.07137 15.56063,17.66008 -0.81047,3.61565 -2.98506,15.67193 -12.9672,14.94314 -6.65521,-0.4859 -10.24105,-3.0564 -11.36172,-10.49725 z"
       id="path197"
       sodipodi:nodetypes="csssc" /><path
       style="display:inline;fill:none;stroke:#00ff00;stroke-width:1.13386;stroke-linejoin:bevel;stroke-dasharray:none;stroke-opacity:1"
       d="m 90.357845,109.52155 c 0,0 -0.493988,3.21092 0.86448,3.45791 1.358467,0.247 8.644796,-4.44589 13.955165,-10.62074 5.31037,-6.17485 9.50927,-13.461175 8.3978,-14.572648 -1.11148,-1.111473 -10.37375,4.939881 -10.37375,4.939881"
       id="path198" /><path
       style="display:inline;fill:none;stroke:#00ff00;stroke-width:1.13386;stroke-linejoin:bevel;stroke-dasharray:none;stroke-opacity:1"
       d="m 146.83161,118.97264 c 0,0 4.57889,-5.08578 9.76577,-3.72731 5.18687,1.35847 5.68086,8.4867 4.44589,9.59818"
       id="path199"
       sodipodi:nodetypes="csc" /><path
       style="display:inline;fill:none;stroke:#00ff00;stroke-width:1.13386;stroke-linejoin:bevel;stroke-dasharray:none;stroke-opacity:1"
       d="m 99.183421,99.295482 c 0,0 4.816389,-4.445896 6.051359,-3.334423 1.23497,1.111473 -4.96407,8.521291 -4.96407,8.521291"
       id="path200"
       sodipodi:nodetypes="csc" /><path
       style="display:inline;fill:none;stroke:#00ff00;stroke-width:1.13386;stroke-linejoin:bevel;stroke-dasharray:none;stroke-opacity:1"
       d="m 47.143236,131.91937 c 2.340075,-30.59024 29.576451,-20.38792 42.629431,-20.00726 2.63714,0.0769 24.449733,0.91627 32.805013,9.08588 9.02624,8.82566 11.83441,20.05833 9.22683,24.87233 -2.60759,4.814 -5.72488,8.6876 -10.4917,9.87519 -2.60759,0 -37.294694,1.71928 -50.580089,2.23545 -16.24243,-1.92563 -24.50699,-7.44358 -23.589485,-26.06159 z"
       id="path201"
       sodipodi:nodetypes="csssccc" /><path
       style="display:inline;fill:none;stroke:#00ff00;stroke-width:1.13386;stroke-linejoin:bevel;stroke-dasharray:none;stroke-opacity:1"
       d="m 204.48899,174.16341 c 0,0 24.76125,8.90292 31.99488,36.72456 7.23362,27.82163 8.06827,43.67996 8.06827,43.67996"
       id="path202" /><path
       style="display:inline;fill:none;stroke:#00ff00;stroke-width:1.13386;stroke-linejoin:bevel;stroke-dasharray:none;stroke-opacity:1"
       d="m 101.00087,164.12366 c 0,0 -52.591232,45.37322 -52.591232,89.05318"
       id="path203"
       sodipodi:nodetypes="cc" /><path
       style="display:inline;fill:none;stroke:#00ff00;stroke-width:1.13386;stroke-linejoin:bevel;stroke-dasharray:none;stroke-opacity:1"
       d="m 69.129522,249.44639 c 0,0 23.204315,-65.26214 70.579788,-62.3616 47.37548,2.90054 69.61295,52.20971 72.03007,70.09637"
       id="path204" /><path
       style="display:inline;fill:none;stroke:#00ff00;stroke-width:1.13386;stroke-linejoin:bevel;stroke-dasharray:none;stroke-opacity:1"
       d="m 54.956532,124.94379 c 0,0 7.295927,-9.40906 12.573693,-1.46609 5.277766,7.94297 0.390945,17.13189 -0.781891,18.06636 -1.172837,0.93446 -7.818912,7.0085 -13.683096,1.09021"
       id="path205"
       sodipodi:nodetypes="cssc" /></g><g
     id="g195"
     inkscape:label="03"
     style="display:none;fill:none;stroke:#00ff00;stroke-width:1.13386;stroke-dasharray:none;stroke-opacity:1"><path
       style="display:inline;fill:none;stroke:#00ff00;stroke-width:1.13386;stroke-linejoin:bevel;stroke-dasharray:none;stroke-opacity:1"
       d="m 96.525541,157.49459 c 31.126729,33.9561 73.045049,27.74347 95.337549,20.98816 24.10642,-7.30499 26.1841,-35.67172 26.1841,-35.67172 0,0 4.01773,-29.21991 -18.6277,-44.925607 C 176.77406,82.17972 153.43461,78.89248 136.96193,78.892481 c -21.54969,0 -45.588952,18.895523 -48.321563,33.037379"
       id="path186"
       sodipodi:nodetypes="cscssc" /><path
       style="display:inline;fill:none;stroke:#00ff00;stroke-width:1.13386;stroke-linejoin:bevel;stroke-dasharray:none;stroke-opacity:1"
       d="m 143.2502,127.24694 c 0,0 -2.09945,-17.28959 8.76829,-22.10597 12.8782,-5.707372 18.15829,6.07137 15.56063,17.66008 -0.81047,3.61565 -2.98506,15.67193 -12.9672,14.94314 -6.65521,-0.4859 -10.24105,-3.0564 -11.36172,-10.49725 z"
       id="path187"
       sodipodi:nodetypes="csssc" /><path
       style="display:inline;fill:none;stroke:#00ff00;stroke-width:1.13386;stroke-linejoin:bevel;stroke-dasharray:none;stroke-opacity:1"
       d="m 90.357845,109.52155 c 0,0 -0.493988,3.21092 0.86448,3.45791 1.358467,0.247 8.644796,-4.44589 13.955165,-10.62074 5.31037,-6.17485 9.50927,-13.461175 8.3978,-14.572648 -1.11148,-1.111473 -10.37375,4.939881 -10.37375,4.939881"
       id="path188" /><path
       style="display:inline;fill:none;stroke:#00ff00;stroke-width:1.13386;stroke-linejoin:bevel;stroke-dasharray:none;stroke-opacity:1"
       d="m 146.83161,118.97264 c 0,0 4.57889,-5.08578 9.76577,-3.72731 5.18687,1.35847 5.68086,8.4867 4.44589,9.59818"
       id="path189"
       sodipodi:nodetypes="csc" /><path
       style="display:inline;fill:none;stroke:#00ff00;stroke-width:1.13386;stroke-linejoin:bevel;stroke-dasharray:none;stroke-opacity:1"
       d="m 99.183421,99.295482 c 0,0 4.816389,-4.445896 6.051359,-3.334423 1.23497,1.111473 -4.96407,8.521291 -4.96407,8.521291"
       id="path190"
       sodipodi:nodetypes="csc" /><path
       style="display:inline;fill:none;stroke:#00ff00;stroke-width:1.13386;stroke-linejoin:bevel;stroke-dasharray:none;stroke-opacity:1"
       d="m 47.143236,131.91937 c 2.340075,-30.59024 29.576451,-20.38792 42.629431,-20.00726 2.63714,0.0769 24.449733,0.91627 32.805013,9.08588 9.02624,8.82566 11.83441,20.05833 9.22683,24.87233 -2.60759,4.814 -5.72488,8.6876 -10.4917,9.87519 -2.60759,0 -37.294694,1.71928 -50.580089,2.23545 -16.24243,-1.92563 -24.50699,-7.44358 -23.589485,-26.06159 z"
       id="path191"
       sodipodi:nodetypes="csssccc" /><path
       style="display:inline;fill:none;stroke:#00ff00;stroke-width:1.13386;stroke-linejoin:bevel;stroke-dasharray:none;stroke-opacity:1"
       d="m 204.48899,174.16341 c 0,0 24.76125,8.90292 31.99488,36.72456 7.23362,27.82163 8.06827,43.67996 8.06827,43.67996"
       id="path192" /><path
       style="display:inline;fill:none;stroke:#00ff00;stroke-width:1.13386;stroke-linejoin:bevel;stroke-dasharray:none;stroke-opacity:1"
       d="m 101.00087,164.12366 c 0,0 -52.591232,45.37322 -52.591232,89.05318"
       id="path193"
       sodipodi:nodetypes="cc" /><path
       style="display:inline;fill:none;stroke:#00ff00;stroke-width:1.13386;stroke-linejoin:bevel;stroke-dasharray:none;stroke-opacity:1"
       d="m 69.129522,249.44639 c 0,0 23.204315,-65.26214 70.579788,-62.3616 47.37548,2.90054 69.61295,52.20971 72.03007,70.09637"
       id="path194" /><path
       style="display:inline;fill:none;stroke:#00ff00;stroke-width:1.13386;stroke-linejoin:bevel;stroke-dasharray:none;stroke-opacity:1"
       d="m 54.956532,124.94379 c 0,0 7.295927,-9.40906 12.573693,-1.46609 5.277766,7.94297 0.390945,17.13189 -0.781891,18.06636 -1.172837,0.93446 -7.818912,7.0085 -13.683096,1.09021"
       id="path195"
       sodipodi:nodetypes="cssc" /></g><g
     id="g176"
     inkscape:label="02"
     style="display:none;fill:none;stroke:#00ff00;stroke-width:1.13386;stroke-dasharray:none;stroke-opacity:1"><path
       style="display:inline;fill:none;stroke:#00ff00;stroke-width:1.13386;stroke-linejoin:bevel;stroke-dasharray:none;stroke-opacity:1"
       d="m 96.525541,157.49459 c 31.126729,33.9561 73.045049,27.74347 95.337549,20.98816 24.10642,-7.30499 26.1841,-35.67172 26.1841,-35.67172 0,0 4.01773,-29.21991 -18.6277,-44.925607 C 176.77406,82.17972 153.43461,78.89248 136.96193,78.892481 c -21.54969,0 -45.588952,18.895523 -48.321563,33.037379"
       id="path167"
       sodipodi:nodetypes="cscssc" /><path
       style="display:inline;fill:none;stroke:#00ff00;stroke-width:1.13386;stroke-linejoin:bevel;stroke-dasharray:none;stroke-opacity:1"
       d="m 143.2502,127.24694 c 0,0 -2.09945,-17.28959 8.76829,-22.10597 12.8782,-5.707372 18.15829,6.07137 15.56063,17.66008 -0.81047,3.61565 -2.98506,15.67193 -12.9672,14.94314 -6.65521,-0.4859 -10.24105,-3.0564 -11.36172,-10.49725 z"
       id="path168"
       sodipodi:nodetypes="csssc" /><path
       style="display:inline;fill:none;stroke:#00ff00;stroke-width:1.13386;stroke-linejoin:bevel;stroke-dasharray:none;stroke-opacity:1"
       d="m 90.357845,109.52155 c 0,0 -0.493988,3.21092 0.86448,3.45791 1.358467,0.247 8.644796,-4.44589 13.955165,-10.62074 5.31037,-6.17485 9.50927,-13.461175 8.3978,-14.572648 -1.11148,-1.111473 -10.37375,4.939881 -10.37375,4.939881"
       id="path169" /><path
       style="display:inline;fill:none;stroke:#00ff00;stroke-width:1.13386;stroke-linejoin:bevel;stroke-dasharray:none;stroke-opacity:1"
       d="m 146.83161,118.97264 c 0,0 4.57889,-5.08578 9.76577,-3.72731 5.18687,1.35847 5.68086,8.4867 4.44589,9.59818"
       id="path170"
       sodipodi:nodetypes="csc" /><path
       style="display:inline;fill:none;stroke:#00ff00;stroke-width:1.13386;stroke-linejoin:bevel;stroke-dasharray:none;stroke-opacity:1"
       d="m 99.183421,99.295482 c 0,0 4.816389,-4.445896 6.051359,-3.334423 1.23497,1.111473 -4.96407,8.521291 -4.96407,8.521291"
       id="path171"
       sodipodi:nodetypes="csc" /><path
       style="display:inline;fill:none;stroke:#00ff00;stroke-width:1.13386;stroke-linejoin:bevel;stroke-dasharray:none;stroke-opacity:1"
       d="m 17.136268,130.71909 c -0.291454,-3.69173 5.02593,-31.301387 22.504358,-33.171103 25.236437,-2.699611 28.288786,10.286723 35.267162,12.220203 7.161709,1.98428 12.497249,4.11222 13.16954,4.00879 2.607582,-0.40117 26.145072,-0.9486 34.500352,7.22101 9.02624,8.82566 11.83441,20.05833 9.22683,24.87233 -2.60759,4.814 -5.72488,8.6876 -10.4917,9.87519 -2.60759,0 -37.294694,1.71928 -50.580089,2.23545 -10.730436,-0.75181 -28.692314,8.5754 -38.045357,4.00292 -13.977075,-6.83305 -14.950249,-29.10174 -15.551096,-31.26479 z"
       id="path172"
       sodipodi:nodetypes="csssssccsc" /><path
       style="display:inline;fill:none;stroke:#00ff00;stroke-width:1.13386;stroke-linejoin:bevel;stroke-dasharray:none;stroke-opacity:1"
       d="m 204.48899,174.16341 c 0,0 24.76125,8.90292 31.99488,36.72456 7.23362,27.82163 8.06827,43.67996 8.06827,43.67996"
       id="path173" /><path
       style="display:inline;fill:none;stroke:#00ff00;stroke-width:1.13386;stroke-linejoin:bevel;stroke-dasharray:none;stroke-opacity:1"
       d="m 101.00087,164.12366 c 0,0 -52.591232,45.37322 -52.591232,89.05318"
       id="path174"
       sodipodi:nodetypes="cc" /><path
       style="display:inline;fill:none;stroke:#00ff00;stroke-width:1.13386;stroke-linejoin:bevel;stroke-dasharray:none;stroke-opacity:1"
       d="m 69.129522,249.44639 c 0,0 23.204315,-65.26214 70.579788,-62.3616 47.37548,2.90054 69.61295,52.20971 72.03007,70.09637"
       id="path175" /><path
       style="display:inline;fill:none;stroke:#00ff00;stroke-width:1.13386;stroke-linejoin:bevel;stroke-dasharray:none;stroke-opacity:1"
       d="m 33.316306,113.42803 c 0,0 11.444532,-11.44453 18.311251,1.52594 6.86672,12.97047 0.508646,27.97552 -1.017291,29.50146 -1.525938,1.52594 -10.172918,11.44453 -17.802606,1.78026"
       id="path176" /></g><g
     id="g166"
     inkscape:label="04"
     style="display:none;fill:none;stroke:#00ff00;stroke-width:1.13386;stroke-dasharray:none;stroke-opacity:1"><path
       style="display:inline;fill:none;stroke:#00ff00;stroke-width:1.13386;stroke-linejoin:bevel;stroke-dasharray:none;stroke-opacity:1"
       d="m 89.914136,147.57748 c 29.560874,36.91384 79.656454,37.66058 101.948954,30.90527 24.10642,-7.30499 26.1841,-35.67172 26.1841,-35.67172 0,0 4.01773,-29.21991 -18.6277,-44.925607 -22.64543,-15.705703 -45.98488,-18.992942 -62.45756,-18.992942 -14.75067,0 -30.66779,8.853202 -40.11968,18.97508"
       id="path157"
       sodipodi:nodetypes="cscssc" /><path
       style="display:inline;fill:none;stroke:#00ff00;stroke-width:1.13386;stroke-linejoin:bevel;stroke-dasharray:none;stroke-opacity:1"
       d="m 140.98945,119.627 c 0,0 -0.0459,-17.41653 11.31397,-20.917711 13.46139,-4.148876 17.31562,8.170341 13.36948,19.371851 -1.2312,3.49485 -4.81236,15.21056 -14.63891,13.30971 -6.55147,-1.26733 -9.80916,-4.24276 -10.04454,-11.76385 z"
       id="path158"
       sodipodi:nodetypes="csssc" /><path
       style="display:inline;fill:none;stroke:#00ff00;stroke-width:1.13386;stroke-linejoin:bevel;stroke-dasharray:none;stroke-opacity:1"
       d="m 98.387992,102.01509 c 1.08137,0.33364 5.373898,-1.60791 10.094288,-6.865646 3.37952,-3.764227 6.33775,-8.096739 7.44405,-10.661247"
       id="path159"
       sodipodi:nodetypes="csc" /><path
       style="display:inline;fill:none;stroke:#00ff00;stroke-width:1.13386;stroke-linejoin:bevel;stroke-dasharray:none;stroke-opacity:1"
       d="m 145.25452,112.86142 c 0,0 4.57889,-5.08578 9.76577,-3.72731 5.18687,1.35847 5.68086,8.4867 4.44589,9.59818"
       id="path160"
       sodipodi:nodetypes="csc" /><path
       style="display:inline;fill:none;stroke:#00ff00;stroke-width:1.13386;stroke-linejoin:bevel;stroke-dasharray:none;stroke-opacity:1"
       d="m 103.84718,93.290685 c 0,0 4.26359,-4.141903 5.18538,-3.023512 0.9218,1.11839 -4.6645,6.448652 -4.6645,6.448652"
       id="path161"
       sodipodi:nodetypes="csc" /><path
       style="display:inline;fill:none;stroke:#00ff00;stroke-width:1.13386;stroke-linejoin:bevel;stroke-dasharray:none;stroke-opacity:1"
       d="m 31.402985,106.36128 c 9.906792,-26.156959 23.098221,-34.759102 41.416991,-32.607852 23.488007,2.758295 25.198107,30.905812 25.870398,30.802382 2.607586,-0.40117 12.922256,1.13921 21.277536,9.30882 9.02624,8.82566 11.83441,20.05833 9.22683,24.87233 -2.60759,4.814 -5.72488,8.6876 -10.4917,9.87519 -1.47392,0 -17.6609,-4.87022 -32.343565,-1.44763 -13.033014,13.41951 -20.985837,13.72375 -26.761752,13.94816 -17.7995,-4.28908 -35.102573,-11.04253 -28.194738,-54.7514 z"
       id="path162"
       sodipodi:nodetypes="cscsscccc" /><path
       style="display:inline;fill:none;stroke:#00ff00;stroke-width:1.13386;stroke-linejoin:bevel;stroke-dasharray:none;stroke-opacity:1"
       d="m 204.48899,174.16341 c 0,0 24.76125,8.90292 31.99488,36.72456 7.23362,27.82163 8.06827,43.67996 8.06827,43.67996"
       id="path163" /><path
       style="display:inline;fill:none;stroke:#00ff00;stroke-width:1.13386;stroke-linejoin:bevel;stroke-dasharray:none;stroke-opacity:1"
       d="m 103.9586,164.12366 c 0,0 -55.548962,45.37322 -55.548962,89.05318"
       id="path164"
       sodipodi:nodetypes="cc" /><path
       style="display:inline;fill:none;stroke:#00ff00;stroke-width:1.13386;stroke-linejoin:bevel;stroke-dasharray:none;stroke-opacity:1"
       d="m 69.129522,249.44639 c 0,0 23.204315,-65.26214 70.579788,-62.3616 47.37548,2.90054 69.61295,52.20971 72.03007,70.09637"
       id="path165" /><path
       style="display:inline;fill:none;stroke:#00ff00;stroke-width:1.13386;stroke-linejoin:bevel;stroke-dasharray:none;stroke-opacity:1"
       d="m 54.064216,93.210574 c 0,0 21.400451,-14.132947 29.105515,6.22141 7.705066,20.354376 -6.422498,40.774736 -9.275891,42.659136 -2.853394,1.8844 -19.351804,14.41096 -29.141926,-1.30451"
       id="path166"
       sodipodi:nodetypes="cssc" /></g><g
     id="g156"
     inkscape:label="05"
     style="display:none;fill:none;stroke:#00ff00;stroke-width:1.13386;stroke-dasharray:none;stroke-opacity:1"><path
       style="fill:none;stroke:#00ff00;stroke-width:1.13386;stroke-linejoin:bevel;stroke-dasharray:none;stroke-opacity:1"
       d="m 93.712478,152.00517 c 29.888662,32.53535 76.786912,32.95143 98.150612,26.47758 24.10642,-7.30498 26.1841,-35.67172 26.1841,-35.67172 0,0 4.01773,-29.21991 -18.6277,-44.925607 -22.64543,-15.705703 -45.98488,-18.992942 -62.45756,-18.992942 -8.40607,0 -17.19096,2.875168 -24.94225,7.22181"
       id="path148"
       sodipodi:nodetypes="cscssc" /><path
       style="fill:none;stroke:#00ff00;stroke-width:1.13386;stroke-linejoin:bevel;stroke-dasharray:none;stroke-opacity:1"
       d="m 140.98945,119.627 c 0,0 -0.0459,-17.41653 11.31397,-20.917711 13.46139,-4.148876 17.31562,8.170341 13.36948,19.371851 -1.2312,3.49485 -4.81236,15.21056 -14.63891,13.30971 -6.55147,-1.26733 -9.80916,-4.24276 -10.04454,-11.76385 z"
       id="path149"
       sodipodi:nodetypes="csssc" /><path
       style="fill:none;stroke:#00ff00;stroke-width:1.13386;stroke-linejoin:bevel;stroke-dasharray:none;stroke-opacity:1"
       d="m 112.57906,90.046311 c 1.52869,-2.133475 2.72806,-4.122731 3.34727,-5.558114"
       id="path150"
       sodipodi:nodetypes="cc" /><path
       style="fill:none;stroke:#00ff00;stroke-width:1.13386;stroke-linejoin:bevel;stroke-dasharray:none;stroke-opacity:1"
       d="m 145.25452,112.86142 c 0,0 4.57889,-5.08578 9.76577,-3.72731 5.18687,1.35847 5.68086,8.4867 4.44589,9.59818"
       id="path151"
       sodipodi:nodetypes="csc" /><path
       style="fill:none;stroke:#00ff00;stroke-width:1.13386;stroke-linejoin:bevel;stroke-dasharray:none;stroke-opacity:1"
       d="m 31.402985,106.36128 c 9.906792,-29.170578 27.719103,-49.023564 55.078729,-45.867774 23.493646,2.709869 27.609006,34.723062 28.482196,47.276834 2.6141,5.76308 18.75899,19.0578 14.23083,30.96662 -2.60759,4.814 -5.72488,8.6876 -10.4917,9.87519 -1.47392,0 -8.62004,-3.06205 -23.302709,0.36054 -9.014856,13.41951 -27.72155,15.21891 -33.994437,14.34998 -17.7995,-4.28908 -40.727994,-18.67703 -30.002909,-56.96139 z"
       id="path152"
       sodipodi:nodetypes="cscscccc" /><path
       style="fill:none;stroke:#00ff00;stroke-width:1.13386;stroke-linejoin:bevel;stroke-dasharray:none;stroke-opacity:1"
       d="m 204.48899,174.16341 c 0,0 24.76125,8.90292 31.99488,36.72456 7.23362,27.82163 8.06827,43.67996 8.06827,43.67996"
       id="path153" /><path
       style="fill:none;stroke:#00ff00;stroke-width:1.13386;stroke-linejoin:bevel;stroke-dasharray:none;stroke-opacity:1"
       d="m 103.9586,164.12366 c 0,0 -55.548962,45.37322 -55.548962,89.05318"
       id="path154"
       sodipodi:nodetypes="cc" /><path
       style="fill:none;stroke:#00ff00;stroke-width:1.13386;stroke-linejoin:bevel;stroke-dasharray:none;stroke-opacity:1"
       d="m 69.129522,249.44639 c 0,0 23.204315,-65.26214 70.579788,-62.3616 47.37548,2.90054 69.61295,52.20971 72.03007,70.09637"
       id="path155" /><path
       style="fill:none;stroke:#00ff00;stroke-width:1.13386;stroke-linejoin:bevel;stroke-dasharray:none;stroke-opacity:1"
       d="m 59.34079,80.982626 c 0,0 23.722301,-20.197064 34.409136,8.86581 8.405194,22.857954 -11.114222,49.649014 -14.625435,51.725854 -3.511215,2.07683 -28.533925,20.09361 -37.367681,-12.3786"
       id="path156"
       sodipodi:nodetypes="cssc" /></g><g
     id="g49"
     inkscape:label="05"
     style="display:none;fill:none;stroke:#00ff00;stroke-width:1.13386;stroke-dasharray:none;stroke-opacity:1"><path
       style="fill:none;stroke:#00ff00;stroke-width:1.13386;stroke-linejoin:bevel;stroke-dasharray:none;stroke-opacity:1"
       d="m 93.712478,152.00517 c 29.888662,32.53535 76.786912,32.95143 98.150612,26.47758 24.10642,-7.30498 26.1841,-35.67172 26.1841,-35.67172 0,0 4.01773,-29.21991 -18.6277,-44.925607 -22.64543,-15.705703 -45.98488,-18.992942 -62.45756,-18.992942 -8.40607,0 -17.19096,2.875168 -24.94225,7.22181"
       id="path40"
       sodipodi:nodetypes="cscssc" /><path
       style="fill:none;stroke:#00ff00;stroke-width:1.13386;stroke-linejoin:bevel;stroke-dasharray:none;stroke-opacity:1"
       d="m 140.98945,119.627 c 0,0 -0.0459,-17.41653 11.31397,-20.917711 13.46139,-4.148876 17.31562,8.170341 13.36948,19.371851 -1.2312,3.49485 -4.81236,15.21056 -14.63891,13.30971 -6.55147,-1.26733 -9.80916,-4.24276 -10.04454,-11.76385 z"
       id="path41"
       sodipodi:nodetypes="csssc" /><path
       style="fill:none;stroke:#00ff00;stroke-width:1.13386;stroke-linejoin:bevel;stroke-dasharray:none;stroke-opacity:1"
       d="m 112.57906,90.046311 c 1.52869,-2.133475 2.72806,-4.122731 3.34727,-5.558114"
       id="path42"
       sodipodi:nodetypes="cc" /><path
       style="fill:none;stroke:#00ff00;stroke-width:1.13386;stroke-linejoin:bevel;stroke-dasharray:none;stroke-opacity:1"
       d="m 145.25452,112.86142 c 0,0 4.57889,-5.08578 9.76577,-3.72731 5.18687,1.35847 5.68086,8.4867 4.44589,9.59818"
       id="path43"
       sodipodi:nodetypes="csc" /><path
       style="fill:none;stroke:#00ff00;stroke-width:1.13386;stroke-linejoin:bevel;stroke-dasharray:none;stroke-opacity:1"
       d="m 31.402985,106.36128 c 9.906792,-29.170578 27.719103,-49.023564 55.078729,-45.867774 23.493646,2.709869 27.609006,34.723062 28.482196,47.276834 2.6141,5.76308 18.75899,19.0578 14.23083,30.96662 -2.60759,4.814 -5.72488,8.6876 -10.4917,9.87519 -1.47392,0 -8.62004,-3.06205 -23.302709,0.36054 -9.014856,13.41951 -27.72155,15.21891 -33.994437,14.34998 -17.7995,-4.28908 -40.727994,-18.67703 -30.002909,-56.96139 z"
       id="path45"
       sodipodi:nodetypes="cscscccc" /><path
       style="fill:none;stroke:#00ff00;stroke-width:1.13386;stroke-linejoin:bevel;stroke-dasharray:none;stroke-opacity:1"
       d="m 204.48899,174.16341 c 0,0 24.76125,8.90292 31.99488,36.72456 7.23362,27.82163 8.06827,43.67996 8.06827,43.67996"
       id="path46" /><path
       style="fill:none;stroke:#00ff00;stroke-width:1.13386;stroke-linejoin:bevel;stroke-dasharray:none;stroke-opacity:1"
       d="m 103.9586,164.12366 c 0,0 -55.548962,45.37322 -55.548962,89.05318"
       id="path47"
       sodipodi:nodetypes="cc" /><path
       style="fill:none;stroke:#00ff00;stroke-width:1.13386;stroke-linejoin:bevel;stroke-dasharray:none;stroke-opacity:1"
       d="m 69.129522,249.44639 c 0,0 23.204315,-65.26214 70.579788,-62.3616 47.37548,2.90054 69.61295,52.20971 72.03007,70.09637"
       id="path48" /><path
       style="fill:none;stroke:#00ff00;stroke-width:1.13386;stroke-linejoin:bevel;stroke-dasharray:none;stroke-opacity:1"
       d="m 59.34079,80.982626 c 0,0 23.722301,-20.197064 34.409136,8.86581 8.405194,22.857954 -11.114222,49.649014 -14.625435,51.725854 -3.511215,2.07683 -28.533925,20.09361 -37.367681,-12.3786"
       id="path49"
       sodipodi:nodetypes="cssc" /></g><g
     id="g39"
     inkscape:label="04"
     style="display:none;fill:none;stroke:#00ff00;stroke-width:1.13386;stroke-dasharray:none;stroke-opacity:1"><path
       style="display:inline;fill:none;stroke:#00ff00;stroke-width:1.13386;stroke-linejoin:bevel;stroke-dasharray:none;stroke-opacity:1"
       d="m 89.914136,147.57748 c 29.560874,36.91384 79.656454,37.66058 101.948954,30.90527 24.10642,-7.30499 26.1841,-35.67172 26.1841,-35.67172 0,0 4.01773,-29.21991 -18.6277,-44.925607 -22.64543,-15.705703 -45.98488,-18.992942 -62.45756,-18.992942 -14.75067,0 -30.66779,8.853202 -40.11968,18.97508"
       id="path30"
       sodipodi:nodetypes="cscssc" /><path
       style="display:inline;fill:none;stroke:#00ff00;stroke-width:1.13386;stroke-linejoin:bevel;stroke-dasharray:none;stroke-opacity:1"
       d="m 140.98945,119.627 c 0,0 -0.0459,-17.41653 11.31397,-20.917711 13.46139,-4.148876 17.31562,8.170341 13.36948,19.371851 -1.2312,3.49485 -4.81236,15.21056 -14.63891,13.30971 -6.55147,-1.26733 -9.80916,-4.24276 -10.04454,-11.76385 z"
       id="path31"
       sodipodi:nodetypes="csssc" /><path
       style="display:inline;fill:none;stroke:#00ff00;stroke-width:1.13386;stroke-linejoin:bevel;stroke-dasharray:none;stroke-opacity:1"
       d="m 98.387992,102.01509 c 1.08137,0.33364 5.373898,-1.60791 10.094288,-6.865646 3.37952,-3.764227 6.33775,-8.096739 7.44405,-10.661247"
       id="path32"
       sodipodi:nodetypes="csc" /><path
       style="display:inline;fill:none;stroke:#00ff00;stroke-width:1.13386;stroke-linejoin:bevel;stroke-dasharray:none;stroke-opacity:1"
       d="m 145.25452,112.86142 c 0,0 4.57889,-5.08578 9.76577,-3.72731 5.18687,1.35847 5.68086,8.4867 4.44589,9.59818"
       id="path33"
       sodipodi:nodetypes="csc" /><path
       style="display:inline;fill:none;stroke:#00ff00;stroke-width:1.13386;stroke-linejoin:bevel;stroke-dasharray:none;stroke-opacity:1"
       d="m 103.84718,93.290685 c 0,0 4.26359,-4.141903 5.18538,-3.023512 0.9218,1.11839 -4.6645,6.448652 -4.6645,6.448652"
       id="path34"
       sodipodi:nodetypes="csc" /><path
       style="display:inline;fill:none;stroke:#00ff00;stroke-width:1.13386;stroke-linejoin:bevel;stroke-dasharray:none;stroke-opacity:1"
       d="m 31.402985,106.36128 c 9.906792,-26.156959 23.098221,-34.759102 41.416991,-32.607852 23.488007,2.758295 25.198107,30.905812 25.870398,30.802382 2.607586,-0.40117 12.922256,1.13921 21.277536,9.30882 9.02624,8.82566 11.83441,20.05833 9.22683,24.87233 -2.60759,4.814 -5.72488,8.6876 -10.4917,9.87519 -1.47392,0 -17.6609,-4.87022 -32.343565,-1.44763 -13.033014,13.41951 -20.985837,13.72375 -26.761752,13.94816 -17.7995,-4.28908 -35.102573,-11.04253 -28.194738,-54.7514 z"
       id="path35"
       sodipodi:nodetypes="cscsscccc" /><path
       style="display:inline;fill:none;stroke:#00ff00;stroke-width:1.13386;stroke-linejoin:bevel;stroke-dasharray:none;stroke-opacity:1"
       d="m 204.48899,174.16341 c 0,0 24.76125,8.90292 31.99488,36.72456 7.23362,27.82163 8.06827,43.67996 8.06827,43.67996"
       id="path36" /><path
       style="display:inline;fill:none;stroke:#00ff00;stroke-width:1.13386;stroke-linejoin:bevel;stroke-dasharray:none;stroke-opacity:1"
       d="m 103.9586,164.12366 c 0,0 -55.548962,45.37322 -55.548962,89.05318"
       id="path37"
       sodipodi:nodetypes="cc" /><path
       style="display:inline;fill:none;stroke:#00ff00;stroke-width:1.13386;stroke-linejoin:bevel;stroke-dasharray:none;stroke-opacity:1"
       d="m 69.129522,249.44639 c 0,0 23.204315,-65.26214 70.579788,-62.3616 47.37548,2.90054 69.61295,52.20971 72.03007,70.09637"
       id="path38" /><path
       style="display:inline;fill:none;stroke:#00ff00;stroke-width:1.13386;stroke-linejoin:bevel;stroke-dasharray:none;stroke-opacity:1"
       d="m 54.064216,93.210574 c 0,0 21.400451,-14.132947 29.105515,6.22141 7.705066,20.354376 -6.422498,40.774736 -9.275891,42.659136 -2.853394,1.8844 -19.351804,14.41096 -29.141926,-1.30451"
       id="path39"
       sodipodi:nodetypes="cssc" /></g><g
     id="g9"
     inkscape:label="02"
     style="display:none;fill:none;stroke:#00ff00;stroke-width:1.13386;stroke-dasharray:none;stroke-opacity:1"><path
       style="display:inline;fill:none;stroke:#00ff00;stroke-width:1.13386;stroke-linejoin:bevel;stroke-dasharray:none;stroke-opacity:1"
       d="m 96.525541,157.49459 c 31.126729,33.9561 73.045049,27.74347 95.337549,20.98816 24.10642,-7.30499 26.1841,-35.67172 26.1841,-35.67172 0,0 4.01773,-29.21991 -18.6277,-44.925607 C 176.77406,82.17972 153.43461,78.89248 136.96193,78.892481 c -21.54969,0 -45.588952,18.895523 -48.321563,33.037379"
       id="path1"
       sodipodi:nodetypes="cscssc" /><path
       style="display:inline;fill:none;stroke:#00ff00;stroke-width:1.13386;stroke-linejoin:bevel;stroke-dasharray:none;stroke-opacity:1"
       d="m 143.2502,127.24694 c 0,0 -2.09945,-17.28959 8.76829,-22.10597 12.8782,-5.707372 18.15829,6.07137 15.56063,17.66008 -0.81047,3.61565 -2.98506,15.67193 -12.9672,14.94314 -6.65521,-0.4859 -10.24105,-3.0564 -11.36172,-10.49725 z"
       id="path2"
       sodipodi:nodetypes="csssc" /><path
       style="display:inline;fill:none;stroke:#00ff00;stroke-width:1.13386;stroke-linejoin:bevel;stroke-dasharray:none;stroke-opacity:1"
       d="m 90.357845,109.52155 c 0,0 -0.493988,3.21092 0.86448,3.45791 1.358467,0.247 8.644796,-4.44589 13.955165,-10.62074 5.31037,-6.17485 9.50927,-13.461175 8.3978,-14.572648 -1.11148,-1.111473 -10.37375,4.939881 -10.37375,4.939881"
       id="path3" /><path
       style="display:inline;fill:none;stroke:#00ff00;stroke-width:1.13386;stroke-linejoin:bevel;stroke-dasharray:none;stroke-opacity:1"
       d="m 146.83161,118.97264 c 0,0 4.57889,-5.08578 9.76577,-3.72731 5.18687,1.35847 5.68086,8.4867 4.44589,9.59818"
       id="path4"
       sodipodi:nodetypes="csc" /><path
       style="display:inline;fill:none;stroke:#00ff00;stroke-width:1.13386;stroke-linejoin:bevel;stroke-dasharray:none;stroke-opacity:1"
       d="m 99.183421,99.295482 c 0,0 4.816389,-4.445896 6.051359,-3.334423 1.23497,1.111473 -4.96407,8.521291 -4.96407,8.521291"
       id="path5"
       sodipodi:nodetypes="csc" /><path
       style="display:inline;fill:none;stroke:#00ff00;stroke-width:1.13386;stroke-linejoin:bevel;stroke-dasharray:none;stroke-opacity:1"
       d="m 17.136268,130.71909 c -0.291454,-3.69173 5.02593,-31.301387 22.504358,-33.171103 25.236437,-2.699611 28.288786,10.286723 35.267162,12.220203 7.161709,1.98428 12.497249,4.11222 13.16954,4.00879 2.607582,-0.40117 26.145072,-0.9486 34.500352,7.22101 9.02624,8.82566 11.83441,20.05833 9.22683,24.87233 -2.60759,4.814 -5.72488,8.6876 -10.4917,9.87519 -2.60759,0 -37.294694,1.71928 -50.580089,2.23545 -10.730436,-0.75181 -28.692314,8.5754 -38.045357,4.00292 -13.977075,-6.83305 -14.950249,-29.10174 -15.551096,-31.26479 z"
       id="path6"
       sodipodi:nodetypes="csssssccsc" /><path
       style="display:inline;fill:none;stroke:#00ff00;stroke-width:1.13386;stroke-linejoin:bevel;stroke-dasharray:none;stroke-opacity:1"
       d="m 204.48899,174.16341 c 0,0 24.76125,8.90292 31.99488,36.72456 7.23362,27.82163 8.06827,43.67996 8.06827,43.67996"
       id="path7" /><path
       style="display:inline;fill:none;stroke:#00ff00;stroke-width:1.13386;stroke-linejoin:bevel;stroke-dasharray:none;stroke-opacity:1"
       d="m 101.00087,164.12366 c 0,0 -52.591232,45.37322 -52.591232,89.05318"
       id="path8"
       sodipodi:nodetypes="cc" /><path
       style="display:inline;fill:none;stroke:#00ff00;stroke-width:1.13386;stroke-linejoin:bevel;stroke-dasharray:none;stroke-opacity:1"
       d="m 69.129522,249.44639 c 0,0 23.204315,-65.26214 70.579788,-62.3616 47.37548,2.90054 69.61295,52.20971 72.03007,70.09637"
       id="path9" /><path
       style="display:inline;fill:none;stroke:#00ff00;stroke-width:1.13386;stroke-linejoin:bevel;stroke-dasharray:none;stroke-opacity:1"
       d="m 33.316306,113.42803 c 0,0 11.444532,-11.44453 18.311251,1.52594 6.86672,12.97047 0.508646,27.97552 -1.017291,29.50146 -1.525938,1.52594 -10.172918,11.44453 -17.802606,1.78026"
       id="path19" /></g><g
     id="g29"
     inkscape:label="03"
     style="display:none;fill:none;stroke:#00ff00;stroke-width:1.13386;stroke-dasharray:none;stroke-opacity:1"><path
       style="display:inline;fill:none;stroke:#00ff00;stroke-width:1.13386;stroke-linejoin:bevel;stroke-dasharray:none;stroke-opacity:1"
       d="m 96.525541,157.49459 c 31.126729,33.9561 73.045049,27.74347 95.337549,20.98816 24.10642,-7.30499 26.1841,-35.67172 26.1841,-35.67172 0,0 4.01773,-29.21991 -18.6277,-44.925607 C 176.77406,82.17972 153.43461,78.89248 136.96193,78.892481 c -21.54969,0 -45.588952,18.895523 -48.321563,33.037379"
       id="path20"
       sodipodi:nodetypes="cscssc" /><path
       style="display:inline;fill:none;stroke:#00ff00;stroke-width:1.13386;stroke-linejoin:bevel;stroke-dasharray:none;stroke-opacity:1"
       d="m 143.2502,127.24694 c 0,0 -2.09945,-17.28959 8.76829,-22.10597 12.8782,-5.707372 18.15829,6.07137 15.56063,17.66008 -0.81047,3.61565 -2.98506,15.67193 -12.9672,14.94314 -6.65521,-0.4859 -10.24105,-3.0564 -11.36172,-10.49725 z"
       id="path21"
       sodipodi:nodetypes="csssc" /><path
       style="display:inline;fill:none;stroke:#00ff00;stroke-width:1.13386;stroke-linejoin:bevel;stroke-dasharray:none;stroke-opacity:1"
       d="m 90.357845,109.52155 c 0,0 -0.493988,3.21092 0.86448,3.45791 1.358467,0.247 8.644796,-4.44589 13.955165,-10.62074 5.31037,-6.17485 9.50927,-13.461175 8.3978,-14.572648 -1.11148,-1.111473 -10.37375,4.939881 -10.37375,4.939881"
       id="path22" /><path
       style="display:inline;fill:none;stroke:#00ff00;stroke-width:1.13386;stroke-linejoin:bevel;stroke-dasharray:none;stroke-opacity:1"
       d="m 146.83161,118.97264 c 0,0 4.57889,-5.08578 9.76577,-3.72731 5.18687,1.35847 5.68086,8.4867 4.44589,9.59818"
       id="path23"
       sodipodi:nodetypes="csc" /><path
       style="display:inline;fill:none;stroke:#00ff00;stroke-width:1.13386;stroke-linejoin:bevel;stroke-dasharray:none;stroke-opacity:1"
       d="m 99.183421,99.295482 c 0,0 4.816389,-4.445896 6.051359,-3.334423 1.23497,1.111473 -4.96407,8.521291 -4.96407,8.521291"
       id="path24"
       sodipodi:nodetypes="csc" /><path
       style="display:inline;fill:none;stroke:#00ff00;stroke-width:1.13386;stroke-linejoin:bevel;stroke-dasharray:none;stroke-opacity:1"
       d="m 47.143236,131.91937 c 2.340075,-30.59024 29.576451,-20.38792 42.629431,-20.00726 2.63714,0.0769 24.449733,0.91627 32.805013,9.08588 9.02624,8.82566 11.83441,20.05833 9.22683,24.87233 -2.60759,4.814 -5.72488,8.6876 -10.4917,9.87519 -2.60759,0 -37.294694,1.71928 -50.580089,2.23545 -16.24243,-1.92563 -24.50699,-7.44358 -23.589485,-26.06159 z"
       id="path25"
       sodipodi:nodetypes="csssccc" /><path
       style="display:inline;fill:none;stroke:#00ff00;stroke-width:1.13386;stroke-linejoin:bevel;stroke-dasharray:none;stroke-opacity:1"
       d="m 204.48899,174.16341 c 0,0 24.76125,8.90292 31.99488,36.72456 7.23362,27.82163 8.06827,43.67996 8.06827,43.67996"
       id="path26" /><path
       style="display:inline;fill:none;stroke:#00ff00;stroke-width:1.13386;stroke-linejoin:bevel;stroke-dasharray:none;stroke-opacity:1"
       d="m 101.00087,164.12366 c 0,0 -52.591232,45.37322 -52.591232,89.05318"
       id="path27"
       sodipodi:nodetypes="cc" /><path
       style="display:inline;fill:none;stroke:#00ff00;stroke-width:1.13386;stroke-linejoin:bevel;stroke-dasharray:none;stroke-opacity:1"
       d="m 69.129522,249.44639 c 0,0 23.204315,-65.26214 70.579788,-62.3616 47.37548,2.90054 69.61295,52.20971 72.03007,70.09637"
       id="path28" /><path
       style="display:inline;fill:none;stroke:#00ff00;stroke-width:1.13386;stroke-linejoin:bevel;stroke-dasharray:none;stroke-opacity:1"
       d="m 54.956532,124.94379 c 0,0 7.295927,-9.40906 12.573693,-1.46609 5.277766,7.94297 0.390945,17.13189 -0.781891,18.06636 -1.172837,0.93446 -7.818912,7.0085 -13.683096,1.09021"
       id="path29"
       sodipodi:nodetypes="cssc" /></g><g
     id="g18"
     inkscape:label="01"
     style="display:none;fill:none;stroke:#00ff00;stroke-width:1.13386;stroke-dasharray:none;stroke-opacity:1"><path
       style="fill:none;stroke:#00ff00;stroke-width:1.13386;stroke-linejoin:bevel;stroke-dasharray:none;stroke-opacity:1"
       d="m 90.946974,152.30879 c 0,0 5.74906,7.19064 17.861276,18.08286 14.86138,13.36446 65.94551,15.11629 86.71373,8.82288 24.10642,-7.30499 26.1841,-35.67172 26.1841,-35.67172 0,0 4.01773,-29.21991 -18.6277,-44.925609 -22.64543,-15.705703 -45.98488,-18.992943 -62.45756,-18.992942 -21.54969,0 -49.658119,21.184431 -51.119115,43.464621"
       id="path10"
       sodipodi:nodetypes="csscssc" /><path
       style="fill:none;stroke:#00ff00;stroke-width:1.13386;stroke-linejoin:bevel;stroke-dasharray:none;stroke-opacity:1"
       d="m 145.603,130.90685 c 0,0 -2.09945,-17.28959 8.76829,-22.10597 12.8782,-5.70737 18.15829,6.07137 15.56063,17.66008 -0.81047,3.61565 -2.98506,15.67193 -12.9672,14.94314 -6.65521,-0.4859 -10.24105,-3.0564 -11.36172,-10.49725 z"
       id="path11"
       sodipodi:nodetypes="csssc" /><path
       style="fill:none;stroke:#00ff00;stroke-width:1.13386;stroke-linejoin:bevel;stroke-dasharray:none;stroke-opacity:1"
       d="m 92.128784,112.3823 c 0,0 -0.493988,3.21092 0.86448,3.45791 1.358467,0.247 8.644796,-4.44589 13.955166,-10.62074 5.31037,-6.174852 9.50927,-13.461177 8.3978,-14.57265 -1.11148,-1.111473 -10.37375,4.939881 -10.37375,4.939881"
       id="path12" /><path
       style="fill:none;stroke:#00ff00;stroke-width:1.13386;stroke-linejoin:bevel;stroke-dasharray:none;stroke-opacity:1"
       d="m 149.18441,122.63255 c 0,0 4.57889,-5.08578 9.76577,-3.72731 5.18687,1.35847 5.68086,8.4867 4.44589,9.59818"
       id="path13"
       sodipodi:nodetypes="csc" /><path
       style="fill:none;stroke:#00ff00;stroke-width:1.13386;stroke-linejoin:bevel;stroke-dasharray:none;stroke-opacity:1"
       d="m 100.95436,102.15623 c 0,0 4.81639,-4.445896 6.05136,-3.334423 1.23497,1.111473 -4.96407,8.521293 -4.96407,8.521293"
       id="path14"
       sodipodi:nodetypes="csc" /><path
       style="fill:none;stroke:#00ff00;stroke-width:1.13386;stroke-linejoin:bevel;stroke-dasharray:none;stroke-opacity:1"
       d="m 78.428097,138.60311 c -0.601751,-7.62217 12.636752,-17.04959 15.244336,-17.45076 2.607583,-0.40116 26.145067,-0.9486 34.500347,7.22101 9.02624,8.82566 11.83441,20.05833 9.22683,24.87233 -2.60759,4.814 -7.02042,10.63092 -9.628,10.63092 -2.60759,0 -17.04959,0.20058 -23.46826,-7.42158 -17.250169,-4.41284 -24.872337,-14.24142 -25.875253,-17.85192 z"
       id="path15"
       sodipodi:nodetypes="csssccc" /><path
       style="fill:none;stroke:#00ff00;stroke-width:1.13386;stroke-linejoin:bevel;stroke-dasharray:none;stroke-opacity:1"
       d="m 204.48899,174.16341 c 0,0 24.76125,8.90292 31.99488,36.72456 7.23362,27.82163 8.06827,43.67996 8.06827,43.67996"
       id="path16" /><path
       style="fill:none;stroke:#00ff00;stroke-width:1.13386;stroke-linejoin:bevel;stroke-dasharray:none;stroke-opacity:1"
       d="m 103.49647,165.53871 c 0,0 -55.086832,43.95817 -55.086832,87.63813"
       id="path17" /><path
       style="fill:none;stroke:#00ff00;stroke-width:1.13386;stroke-linejoin:bevel;stroke-dasharray:none;stroke-opacity:1"
       d="m 69.129522,249.44639 c 0,0 23.204315,-65.26214 70.579788,-62.3616 47.37548,2.90054 69.61295,52.20971 72.03007,70.09637"
       id="path18" /></g><g
     id="g454"
     inkscape:label="01"
     style="display:none;fill:none;stroke:#00ff00;stroke-width:1.13386;stroke-dasharray:none;stroke-opacity:1"><path
       style="fill:none;stroke:#00ff00;stroke-width:1.13386;stroke-linejoin:bevel;stroke-dasharray:none;stroke-opacity:1"
       d="m 90.946974,152.30879 c 0,0 5.74906,7.19064 17.861276,18.08286 14.86138,13.36446 65.94551,15.11629 86.71373,8.82288 24.10642,-7.30499 26.1841,-35.67172 26.1841,-35.67172 0,0 4.01773,-29.21991 -18.6277,-44.925609 -22.64543,-15.705703 -45.98488,-18.992943 -62.45756,-18.992942 -21.54969,0 -49.658119,21.184431 -51.119115,43.464621"
       id="path446"
       sodipodi:nodetypes="csscssc" /><path
       style="fill:none;stroke:#00ff00;stroke-width:1.13386;stroke-linejoin:bevel;stroke-dasharray:none;stroke-opacity:1"
       d="m 145.603,130.90685 c 0,0 -2.09945,-17.28959 8.76829,-22.10597 12.8782,-5.70737 18.15829,6.07137 15.56063,17.66008 -0.81047,3.61565 -2.98506,15.67193 -12.9672,14.94314 -6.65521,-0.4859 -10.24105,-3.0564 -11.36172,-10.49725 z"
       id="path447"
       sodipodi:nodetypes="csssc" /><path
       style="fill:none;stroke:#00ff00;stroke-width:1.13386;stroke-linejoin:bevel;stroke-dasharray:none;stroke-opacity:1"
       d="m 92.128784,112.3823 c 0,0 -0.493988,3.21092 0.86448,3.45791 1.358467,0.247 8.644796,-4.44589 13.955166,-10.62074 5.31037,-6.174852 9.50927,-13.461177 8.3978,-14.57265 -1.11148,-1.111473 -10.37375,4.939881 -10.37375,4.939881"
       id="path448" /><path
       style="fill:none;stroke:#00ff00;stroke-width:1.13386;stroke-linejoin:bevel;stroke-dasharray:none;stroke-opacity:1"
       d="m 149.18441,122.63255 c 0,0 4.57889,-5.08578 9.76577,-3.72731 5.18687,1.35847 5.68086,8.4867 4.44589,9.59818"
       id="path449"
       sodipodi:nodetypes="csc" /><path
       style="fill:none;stroke:#00ff00;stroke-width:1.13386;stroke-linejoin:bevel;stroke-dasharray:none;stroke-opacity:1"
       d="m 100.95436,102.15623 c 0,0 4.81639,-4.445896 6.05136,-3.334423 1.23497,1.111473 -4.96407,8.521293 -4.96407,8.521293"
       id="path450"
       sodipodi:nodetypes="csc" /><path
       style="fill:none;stroke:#00ff00;stroke-width:1.13386;stroke-linejoin:bevel;stroke-dasharray:none;stroke-opacity:1"
       d="m 78.428097,138.60311 c -0.601751,-7.62217 12.636752,-17.04959 15.244336,-17.45076 2.607583,-0.40116 26.145067,-0.9486 34.500347,7.22101 9.02624,8.82566 11.83441,20.05833 9.22683,24.87233 -2.60759,4.814 -7.02042,10.63092 -9.628,10.63092 -2.60759,0 -17.04959,0.20058 -23.46826,-7.42158 -17.250169,-4.41284 -24.872337,-14.24142 -25.875253,-17.85192 z"
       id="path451"
       sodipodi:nodetypes="csssccc" /><path
       style="fill:none;stroke:#00ff00;stroke-width:1.13386;stroke-linejoin:bevel;stroke-dasharray:none;stroke-opacity:1"
       d="m 204.48899,174.16341 c 0,0 24.76125,8.90292 31.99488,36.72456 7.23362,27.82163 8.06827,43.67996 8.06827,43.67996"
       id="path452" /><path
       style="fill:none;stroke:#00ff00;stroke-width:1.13386;stroke-linejoin:bevel;stroke-dasharray:none;stroke-opacity:1"
       d="m 103.49647,165.53871 c 0,0 -55.086832,43.95817 -55.086832,87.63813"
       id="path453" /><path
       style="fill:none;stroke:#00ff00;stroke-width:1.13386;stroke-linejoin:bevel;stroke-dasharray:none;stroke-opacity:1"
       d="m 69.129522,249.44639 c 0,0 23.204315,-65.26214 70.579788,-62.3616 47.37548,2.90054 69.61295,52.20971 72.03007,70.09637"
       id="path454" /></g><g
     id="g463"
     inkscape:label="01"
     style="display:none;fill:none;stroke:#00ff00;stroke-width:1.13386;stroke-dasharray:none;stroke-opacity:1"><path
       style="fill:none;stroke:#00ff00;stroke-width:1.13386;stroke-linejoin:bevel;stroke-dasharray:none;stroke-opacity:1"
       d="m 90.946974,152.30879 c 0,0 5.74906,7.19064 17.861276,18.08286 14.86138,13.36446 65.94551,15.11629 86.71373,8.82288 24.10642,-7.30499 26.1841,-35.67172 26.1841,-35.67172 0,0 4.01773,-29.21991 -18.6277,-44.925609 -22.64543,-15.705703 -45.98488,-18.992943 -62.45756,-18.992942 -21.54969,0 -49.658119,21.184431 -51.119115,43.464621"
       id="path455"
       sodipodi:nodetypes="csscssc" /><path
       style="fill:none;stroke:#00ff00;stroke-width:1.13386;stroke-linejoin:bevel;stroke-dasharray:none;stroke-opacity:1"
       d="m 145.603,130.90685 c 0,0 -2.09945,-17.28959 8.76829,-22.10597 12.8782,-5.70737 18.15829,6.07137 15.56063,17.66008 -0.81047,3.61565 -2.98506,15.67193 -12.9672,14.94314 -6.65521,-0.4859 -10.24105,-3.0564 -11.36172,-10.49725 z"
       id="path456"
       sodipodi:nodetypes="csssc" /><path
       style="fill:none;stroke:#00ff00;stroke-width:1.13386;stroke-linejoin:bevel;stroke-dasharray:none;stroke-opacity:1"
       d="m 92.128784,112.3823 c 0,0 -0.493988,3.21092 0.86448,3.45791 1.358467,0.247 8.644796,-4.44589 13.955166,-10.62074 5.31037,-6.174852 9.50927,-13.461177 8.3978,-14.57265 -1.11148,-1.111473 -10.37375,4.939881 -10.37375,4.939881"
       id="path457" /><path
       style="fill:none;stroke:#00ff00;stroke-width:1.13386;stroke-linejoin:bevel;stroke-dasharray:none;stroke-opacity:1"
       d="m 149.18441,122.63255 c 0,0 4.57889,-5.08578 9.76577,-3.72731 5.18687,1.35847 5.68086,8.4867 4.44589,9.59818"
       id="path458"
       sodipodi:nodetypes="csc" /><path
       style="fill:none;stroke:#00ff00;stroke-width:1.13386;stroke-linejoin:bevel;stroke-dasharray:none;stroke-opacity:1"
       d="m 100.95436,102.15623 c 0,0 4.81639,-4.445896 6.05136,-3.334423 1.23497,1.111473 -4.96407,8.521293 -4.96407,8.521293"
       id="path459"
       sodipodi:nodetypes="csc" /><path
       style="fill:none;stroke:#00ff00;stroke-width:1.13386;stroke-linejoin:bevel;stroke-dasharray:none;stroke-opacity:1"
       d="m 78.428097,138.60311 c -0.601751,-7.62217 12.636752,-17.04959 15.244336,-17.45076 2.607583,-0.40116 26.145067,-0.9486 34.500347,7.22101 9.02624,8.82566 11.83441,20.05833 9.22683,24.87233 -2.60759,4.814 -7.02042,10.63092 -9.628,10.63092 -2.60759,0 -17.04959,0.20058 -23.46826,-7.42158 -17.250169,-4.41284 -24.872337,-14.24142 -25.875253,-17.85192 z"
       id="path460"
       sodipodi:nodetypes="csssccc" /><path
       style="fill:none;stroke:#00ff00;stroke-width:1.13386;stroke-linejoin:bevel;stroke-dasharray:none;stroke-opacity:1"
       d="m 204.48899,174.16341 c 0,0 24.76125,8.90292 31.99488,36.72456 7.23362,27.82163 8.06827,43.67996 8.06827,43.67996"
       id="path461" /><path
       style="fill:none;stroke:#00ff00;stroke-width:1.13386;stroke-linejoin:bevel;stroke-dasharray:none;stroke-opacity:1"
       d="m 103.49647,165.53871 c 0,0 -55.086832,43.95817 -55.086832,87.63813"
       id="path462" /><path
       style="fill:none;stroke:#00ff00;stroke-width:1.13386;stroke-linejoin:bevel;stroke-dasharray:none;stroke-opacity:1"
       d="m 69.129522,249.44639 c 0,0 23.204315,-65.26214 70.579788,-62.3616 47.37548,2.90054 69.61295,52.20971 72.03007,70.09637"
       id="path463" /></g><g
     id="g57"
     inkscape:label="01"
     style="display:none;fill:none;stroke:#00ff00;stroke-width:1.13386;stroke-dasharray:none;stroke-opacity:1"><path
       style="fill:none;stroke:#00ff00;stroke-width:1.13386;stroke-linejoin:bevel;stroke-dasharray:none;stroke-opacity:1"
       d="m 90.946974,152.30879 c 0,0 5.74906,7.19064 17.861276,18.08286 14.86138,13.36446 65.94551,15.11629 86.71373,8.82288 24.10642,-7.30499 26.1841,-35.67172 26.1841,-35.67172 0,0 4.01773,-29.21991 -18.6277,-44.925609 -22.64543,-15.705703 -45.98488,-18.992943 -62.45756,-18.992942 -21.54969,0 -49.658119,21.184431 -51.119115,43.464621"
       id="path44"
       sodipodi:nodetypes="csscssc" /><path
       style="fill:none;stroke:#00ff00;stroke-width:1.13386;stroke-linejoin:bevel;stroke-dasharray:none;stroke-opacity:1"
       d="m 145.603,130.90685 c 0,0 -2.09945,-17.28959 8.76829,-22.10597 12.8782,-5.70737 18.15829,6.07137 15.56063,17.66008 -0.81047,3.61565 -2.98506,15.67193 -12.9672,14.94314 -6.65521,-0.4859 -10.24105,-3.0564 -11.36172,-10.49725 z"
       id="path50"
       sodipodi:nodetypes="csssc" /><path
       style="fill:none;stroke:#00ff00;stroke-width:1.13386;stroke-linejoin:bevel;stroke-dasharray:none;stroke-opacity:1"
       d="m 92.128784,112.3823 c 0,0 -0.493988,3.21092 0.86448,3.45791 1.358467,0.247 8.644796,-4.44589 13.955166,-10.62074 5.31037,-6.174852 9.50927,-13.461177 8.3978,-14.57265 -1.11148,-1.111473 -10.37375,4.939881 -10.37375,4.939881"
       id="path51" /><path
       style="fill:none;stroke:#00ff00;stroke-width:1.13386;stroke-linejoin:bevel;stroke-dasharray:none;stroke-opacity:1"
       d="m 149.18441,122.63255 c 0,0 4.57889,-5.08578 9.76577,-3.72731 5.18687,1.35847 5.68086,8.4867 4.44589,9.59818"
       id="path52"
       sodipodi:nodetypes="csc" /><path
       style="fill:none;stroke:#00ff00;stroke-width:1.13386;stroke-linejoin:bevel;stroke-dasharray:none;stroke-opacity:1"
       d="m 100.95436,102.15623 c 0,0 4.81639,-4.445896 6.05136,-3.334423 1.23497,1.111473 -4.96407,8.521293 -4.96407,8.521293"
       id="path53"
       sodipodi:nodetypes="csc" /><path
       style="fill:none;stroke:#00ff00;stroke-width:1.13386;stroke-linejoin:bevel;stroke-dasharray:none;stroke-opacity:1"
       d="m 78.428097,138.60311 c -0.601751,-7.62217 12.636752,-17.04959 15.244336,-17.45076 2.607583,-0.40116 26.145067,-0.9486 34.500347,7.22101 9.02624,8.82566 11.83441,20.05833 9.22683,24.87233 -2.60759,4.814 -7.02042,10.63092 -9.628,10.63092 -2.60759,0 -17.04959,0.20058 -23.46826,-7.42158 -17.250169,-4.41284 -24.872337,-14.24142 -25.875253,-17.85192 z"
       id="path54"
       sodipodi:nodetypes="csssccc" /><path
       style="fill:none;stroke:#00ff00;stroke-width:1.13386;stroke-linejoin:bevel;stroke-dasharray:none;stroke-opacity:1"
       d="m 204.48899,174.16341 c 0,0 24.76125,8.90292 31.99488,36.72456 7.23362,27.82163 8.06827,43.67996 8.06827,43.67996"
       id="path55" /><path
       style="fill:none;stroke:#00ff00;stroke-width:1.13386;stroke-linejoin:bevel;stroke-dasharray:none;stroke-opacity:1"
       d="m 103.49647,165.53871 c 0,0 -55.086832,43.95817 -55.086832,87.63813"
       id="path56" /><path
       style="fill:none;stroke:#00ff00;stroke-width:1.13386;stroke-linejoin:bevel;stroke-dasharray:none;stroke-opacity:1"
       d="m 69.129522,249.44639 c 0,0 23.204315,-65.26214 70.579788,-62.3616 47.37548,2.90054 69.61295,52.20971 72.03007,70.09637"
       id="path57" /></g><g
     id="g66"
     inkscape:label="01"
     style="display:none;fill:none;stroke:#00ff00;stroke-width:1.13386;stroke-dasharray:none;stroke-opacity:1"><path
       style="fill:none;stroke:#00ff00;stroke-width:1.13386;stroke-linejoin:bevel;stroke-dasharray:none;stroke-opacity:1"
       d="m 90.946974,152.30879 c 0,0 5.74906,7.19064 17.861276,18.08286 14.86138,13.36446 65.94551,15.11629 86.71373,8.82288 24.10642,-7.30499 26.1841,-35.67172 26.1841,-35.67172 0,0 4.01773,-29.21991 -18.6277,-44.925609 -22.64543,-15.705703 -45.98488,-18.992943 -62.45756,-18.992942 -21.54969,0 -49.658119,21.184431 -51.119115,43.464621"
       id="path58"
       sodipodi:nodetypes="csscssc" /><path
       style="fill:none;stroke:#00ff00;stroke-width:1.13386;stroke-linejoin:bevel;stroke-dasharray:none;stroke-opacity:1"
       d="m 145.603,130.90685 c 0,0 -2.09945,-17.28959 8.76829,-22.10597 12.8782,-5.70737 18.15829,6.07137 15.56063,17.66008 -0.81047,3.61565 -2.98506,15.67193 -12.9672,14.94314 -6.65521,-0.4859 -10.24105,-3.0564 -11.36172,-10.49725 z"
       id="path59"
       sodipodi:nodetypes="csssc" /><path
       style="fill:none;stroke:#00ff00;stroke-width:1.13386;stroke-linejoin:bevel;stroke-dasharray:none;stroke-opacity:1"
       d="m 92.128784,112.3823 c 0,0 -0.493988,3.21092 0.86448,3.45791 1.358467,0.247 8.644796,-4.44589 13.955166,-10.62074 5.31037,-6.174852 9.50927,-13.461177 8.3978,-14.57265 -1.11148,-1.111473 -10.37375,4.939881 -10.37375,4.939881"
       id="path60" /><path
       style="fill:none;stroke:#00ff00;stroke-width:1.13386;stroke-linejoin:bevel;stroke-dasharray:none;stroke-opacity:1"
       d="m 149.18441,122.63255 c 0,0 4.57889,-5.08578 9.76577,-3.72731 5.18687,1.35847 5.68086,8.4867 4.44589,9.59818"
       id="path61"
       sodipodi:nodetypes="csc" /><path
       style="fill:none;stroke:#00ff00;stroke-width:1.13386;stroke-linejoin:bevel;stroke-dasharray:none;stroke-opacity:1"
       d="m 100.95436,102.15623 c 0,0 4.81639,-4.445896 6.05136,-3.334423 1.23497,1.111473 -4.96407,8.521293 -4.96407,8.521293"
       id="path62"
       sodipodi:nodetypes="csc" /><path
       style="fill:none;stroke:#00ff00;stroke-width:1.13386;stroke-linejoin:bevel;stroke-dasharray:none;stroke-opacity:1"
       d="m 78.428097,138.60311 c -0.601751,-7.62217 12.636752,-17.04959 15.244336,-17.45076 2.607583,-0.40116 26.145067,-0.9486 34.500347,7.22101 9.02624,8.82566 11.83441,20.05833 9.22683,24.87233 -2.60759,4.814 -7.02042,10.63092 -9.628,10.63092 -2.60759,0 -17.04959,0.20058 -23.46826,-7.42158 -17.250169,-4.41284 -24.872337,-14.24142 -25.875253,-17.85192 z"
       id="path63"
       sodipodi:nodetypes="csssccc" /><path
       style="fill:none;stroke:#00ff00;stroke-width:1.13386;stroke-linejoin:bevel;stroke-dasharray:none;stroke-opacity:1"
       d="m 204.48899,174.16341 c 0,0 24.76125,8.90292 31.99488,36.72456 7.23362,27.82163 8.06827,43.67996 8.06827,43.67996"
       id="path64" /><path
       style="fill:none;stroke:#00ff00;stroke-width:1.13386;stroke-linejoin:bevel;stroke-dasharray:none;stroke-opacity:1"
       d="m 103.49647,165.53871 c 0,0 -55.086832,43.95817 -55.086832,87.63813"
       id="path65" /><path
       style="fill:none;stroke:#00ff00;stroke-width:1.13386;stroke-linejoin:bevel;stroke-dasharray:none;stroke-opacity:1"
       d="m 69.129522,249.44639 c 0,0 23.204315,-65.26214 70.579788,-62.3616 47.37548,2.90054 69.61295,52.20971 72.03007,70.09637"
       id="path66" /></g></svg>
