<?xml version="1.0" encoding="UTF-8" standalone="no"?>
<!-- Created with Inkscape (http://www.inkscape.org/) -->

<svg
   width="250"
   height="250"
   viewBox="0 0 250 250"
   version="1.1"
   id="svg1"
   inkscape:version="1.4 (e7c3feb1, 2024-10-09)"
   sodipodi:docname="powering_up.svg"
   xml:space="preserve"
   xmlns:inkscape="http://www.inkscape.org/namespaces/inkscape"
   xmlns:sodipodi="http://sodipodi.sourceforge.net/DTD/sodipodi-0.dtd"
   xmlns="http://www.w3.org/2000/svg"
   xmlns:svg="http://www.w3.org/2000/svg"><sodipodi:namedview
     id="namedview1"
     pagecolor="#ffffff"
     bordercolor="#000000"
     borderopacity="0.25"
     inkscape:showpageshadow="2"
     inkscape:pageopacity="0.0"
     inkscape:pagecheckerboard="0"
     inkscape:deskcolor="#d1d1d1"
     inkscape:document-units="mm"
     inkscape:zoom="1.8752982"
     inkscape:cx="120.78079"
     inkscape:cy="119.44767"
     inkscape:window-width="1440"
     inkscape:window-height="847"
     inkscape:window-x="0"
     inkscape:window-y="25"
     inkscape:window-maximized="0"
     inkscape:current-layer="g34" /><defs
     id="defs1" /><g
     inkscape:label="Layer 1"
     inkscape:groupmode="layer"
     id="g34"
     style="display:inline"><path
       style="fill:none;stroke:#00ff00;stroke-width:2.08435;stroke-linejoin:bevel"
       id="path23"
       d="M 91.0556 72.0089 L 112.434 59.487 L 114.514 34.2951 L 132.713 51.3141 L 156.678 45.5608 L 146.547 68.6009 L 159.277 90.2369 L 134.817 87.4578 L 118.721 106.583 L 113.735 81.825 Z" /><g
       id="g33"><path
         d="M 5.94884 135.884 L 5.94884 174.259 M 5.94884 135.884 L 22.368 135.884 L 27.8026 137.74 L 29.6526 139.595 L 31.5027 143.188 L 31.5027 148.695 L 29.6526 152.347 L 27.8026 154.203 L 22.368 155.999 L 5.94884 155.999"
         fill="none"
         stroke-linecap="join"
         stroke-width="1"
         stroke="#000000"
         id="path24" /><path
         d="M 51.5063 148.695 L 47.9218 150.492 L 44.2218 154.203 L 42.4295 159.651 L 42.4295 163.303 L 44.2218 168.782 L 47.9218 172.434 L 51.5063 174.259 L 56.9986 174.259 L 60.6408 172.434 L 64.2831 168.782 L 66.0754 163.303 L 66.0754 159.651 L 64.2831 154.203 L 60.6408 150.492 L 56.9986 148.695 Z"
         fill="none"
         stroke-linecap="join"
         stroke-width="1"
         stroke="#000000"
         id="path25" /><path
         d="M 77.0022 148.695 L 84.2868 174.259 M 91.5713 148.695 L 84.2868 174.259 M 91.5713 148.695 L 98.8564 174.259 M 106.141 148.695 L 98.8564 174.259"
         fill="none"
         stroke-linecap="join"
         stroke-width="1"
         stroke="#000000"
         id="path26" /><path
         d="M 117.068 159.651 L 138.921 159.651 L 138.921 155.999 L 137.129 152.347 L 135.279 150.492 L 131.636 148.695 L 126.144 148.695 L 122.56 150.492 L 118.86 154.203 L 117.068 159.651 L 117.068 163.303 L 118.86 168.782 L 122.56 172.434 L 126.144 174.259 L 131.636 174.259 L 135.279 172.434 L 138.921 168.782"
         fill="none"
         stroke-linecap="join"
         stroke-width="1"
         stroke="#000000"
         id="path27" /><path
         d="M 151.641 148.695 L 151.641 174.259 M 151.641 159.651 L 153.49 154.203 L 157.133 150.492 L 160.775 148.695 L 166.209 148.695"
         fill="none"
         stroke-linecap="join"
         stroke-width="1"
         stroke="#000000"
         id="path28" /><path
         d="M 173.552 135.884 L 175.344 137.74 L 177.194 135.884 L 175.344 134.088 Z M 175.344 148.695 L 175.344 174.259"
         fill="none"
         stroke-linecap="join"
         stroke-width="1"
         stroke="#000000"
         id="path29" /><path
         d="M 189.913 148.695 L 189.913 174.259 M 189.913 155.999 L 195.405 150.492 L 199.048 148.695 L 204.482 148.695 L 208.182 150.492 L 209.974 155.999 L 209.974 174.259"
         fill="none"
         stroke-linecap="join"
         stroke-width="1"
         stroke="#000000"
         id="path30" /><path
         d="M 244.547 148.695 L 244.547 177.911 L 242.755 183.418 L 240.905 185.216 L 237.263 187.013 L 231.77 187.013 L 228.185 185.216 M 244.547 154.203 L 240.905 150.492 L 237.263 148.695 L 231.77 148.695 L 228.185 150.492 L 224.486 154.203 L 222.694 159.651 L 222.694 163.303 L 224.486 168.782 L 228.185 172.434 L 231.77 174.259 L 237.263 174.259 L 240.905 172.434 L 244.547 168.782"
         fill="none"
         stroke-linecap="join"
         stroke-width="1"
         stroke="#000000"
         id="path31" /><path
         d="M 108.857 206.664 L 108.857 224.924 L 110.708 230.402 L 114.35 232.228 L 119.842 232.228 L 123.427 230.402 L 128.919 224.924 M 128.919 206.664 L 128.919 232.228"
         fill="none"
         stroke-linecap="join"
         stroke-width="1"
         stroke="#000000"
         id="path32" /><path
         d="M 143.43 206.664 L 143.43 244.982 M 143.43 212.171 L 147.131 208.461 L 150.715 206.664 L 156.207 206.664 L 159.85 208.461 L 163.492 212.171 L 165.284 217.62 L 165.284 221.272 L 163.492 226.75 L 159.85 230.402 L 156.207 232.228 L 150.715 232.228 L 147.131 230.402 L 143.43 226.75"
         fill="none"
         stroke-linecap="join"
         stroke-width="1"
         stroke="#000000"
         id="path33" /></g><path
       id="circle33"
       style="fill:none;stroke:#00ff00;stroke-width:1.74436;stroke-linejoin:bevel"
       d="M 184.51973,68.142975 A 57.367382,58.934036 0 0 1 127.15234,127.07701 57.367382,58.934036 0 0 1 69.784962,68.142975 57.367382,58.934036 0 0 1 127.15234,9.2089386 57.367382,58.934036 0 0 1 184.51973,68.142975 Z" /></g><g
     inkscape:label="Layer 1 copy 2"
     inkscape:groupmode="layer"
     id="g56"
     style="display:inline"><path
       style="fill:none;stroke:#00ff00;stroke-width:2.08435;stroke-linejoin:bevel"
       id="path45"
       d="M 92.7191 80.1355 L 110.983 63.1914 L 107.752 38.1284 L 129.082 50.7378 L 151.287 39.8349 L 146.205 64.572 L 163.159 82.8967 L 138.689 85.5756 L 126.963 107.804 L 116.921 84.7223 Z" /><g
       id="g55"><path
         d="M 5.94884 135.884 L 5.94884 174.259 M 5.94884 135.884 L 22.368 135.884 L 27.8026 137.74 L 29.6526 139.595 L 31.5027 143.188 L 31.5027 148.695 L 29.6526 152.347 L 27.8026 154.203 L 22.368 155.999 L 5.94884 155.999"
         fill="none"
         stroke-linecap="join"
         stroke-width="1"
         stroke="#000000"
         id="path46" /><path
         d="M 51.5063 148.695 L 47.9218 150.492 L 44.2218 154.203 L 42.4295 159.651 L 42.4295 163.303 L 44.2218 168.782 L 47.9218 172.434 L 51.5063 174.259 L 56.9986 174.259 L 60.6408 172.434 L 64.2831 168.782 L 66.0754 163.303 L 66.0754 159.651 L 64.2831 154.203 L 60.6408 150.492 L 56.9986 148.695 Z"
         fill="none"
         stroke-linecap="join"
         stroke-width="1"
         stroke="#000000"
         id="path47" /><path
         d="M 77.0022 148.695 L 84.2868 174.259 M 91.5713 148.695 L 84.2868 174.259 M 91.5713 148.695 L 98.8564 174.259 M 106.141 148.695 L 98.8564 174.259"
         fill="none"
         stroke-linecap="join"
         stroke-width="1"
         stroke="#000000"
         id="path48" /><path
         d="M 117.068 159.651 L 138.921 159.651 L 138.921 155.999 L 137.129 152.347 L 135.279 150.492 L 131.636 148.695 L 126.144 148.695 L 122.56 150.492 L 118.86 154.203 L 117.068 159.651 L 117.068 163.303 L 118.86 168.782 L 122.56 172.434 L 126.144 174.259 L 131.636 174.259 L 135.279 172.434 L 138.921 168.782"
         fill="none"
         stroke-linecap="join"
         stroke-width="1"
         stroke="#000000"
         id="path49" /><path
         d="M 151.641 148.695 L 151.641 174.259 M 151.641 159.651 L 153.49 154.203 L 157.133 150.492 L 160.775 148.695 L 166.209 148.695"
         fill="none"
         stroke-linecap="join"
         stroke-width="1"
         stroke="#000000"
         id="path50" /><path
         d="M 173.552 135.884 L 175.344 137.74 L 177.194 135.884 L 175.344 134.088 Z M 175.344 148.695 L 175.344 174.259"
         fill="none"
         stroke-linecap="join"
         stroke-width="1"
         stroke="#000000"
         id="path51" /><path
         d="M 189.913 148.695 L 189.913 174.259 M 189.913 155.999 L 195.405 150.492 L 199.048 148.695 L 204.482 148.695 L 208.182 150.492 L 209.974 155.999 L 209.974 174.259"
         fill="none"
         stroke-linecap="join"
         stroke-width="1"
         stroke="#000000"
         id="path52" /><path
         d="M 244.547 148.695 L 244.547 177.911 L 242.755 183.418 L 240.905 185.216 L 237.263 187.013 L 231.77 187.013 L 228.185 185.216 M 244.547 154.203 L 240.905 150.492 L 237.263 148.695 L 231.77 148.695 L 228.185 150.492 L 224.486 154.203 L 222.694 159.651 L 222.694 163.303 L 224.486 168.782 L 228.185 172.434 L 231.77 174.259 L 237.263 174.259 L 240.905 172.434 L 244.547 168.782"
         fill="none"
         stroke-linecap="join"
         stroke-width="1"
         stroke="#000000"
         id="path53" /><path
         d="M 108.857 206.664 L 108.857 224.924 L 110.708 230.402 L 114.35 232.228 L 119.842 232.228 L 123.427 230.402 L 128.919 224.924 M 128.919 206.664 L 128.919 232.228"
         fill="none"
         stroke-linecap="join"
         stroke-width="1"
         stroke="#000000"
         id="path54" /><path
         d="M 143.43 206.664 L 143.43 244.982 M 143.43 212.171 L 147.131 208.461 L 150.715 206.664 L 156.207 206.664 L 159.85 208.461 L 163.492 212.171 L 165.284 217.62 L 165.284 221.272 L 163.492 226.75 L 159.85 230.402 L 156.207 232.228 L 150.715 232.228 L 147.131 230.402 L 143.43 226.75"
         fill="none"
         stroke-linecap="join"
         stroke-width="1"
         stroke="#000000"
         id="path55" /></g><path
       id="circle55"
       style="fill:none;stroke:#00ff00;stroke-width:1.74436;stroke-linejoin:bevel"
       d="M 184.51973,68.142975 A 57.367382,58.934036 0 0 1 127.15234,127.07701 57.367382,58.934036 0 0 1 69.784962,68.142975 57.367382,58.934036 0 0 1 127.15234,9.2089386 57.367382,58.934036 0 0 1 184.51973,68.142975 Z" /></g><g
     inkscape:label="Layer 1"
     inkscape:groupmode="layer"
     id="layer1"
     style="display:inline"><path
       style="fill:none;stroke:#00ff00;stroke-width:2.08435;stroke-linejoin:bevel"
       id="path1"
       d="M 99.4038 92.6435 L 110.401 70.0256 L 98.4976 47.8974 L 122.835 51.652 L 139.642 33.1846 L 143.687 58.1229 L 165.978 68.8378 L 144.141 80.4959 L 141.108 105.585 L 123.568 87.8523 Z" /><g
       id="g10"><path
         d="M 5.94884 135.884 L 5.94884 174.259 M 5.94884 135.884 L 22.368 135.884 L 27.8026 137.74 L 29.6526 139.595 L 31.5027 143.188 L 31.5027 148.695 L 29.6526 152.347 L 27.8026 154.203 L 22.368 155.999 L 5.94884 155.999"
         fill="none"
         stroke-linecap="join"
         stroke-width="1"
         stroke="#000000"
         id="path1-5" /><path
         d="M 51.5063 148.695 L 47.9218 150.492 L 44.2218 154.203 L 42.4295 159.651 L 42.4295 163.303 L 44.2218 168.782 L 47.9218 172.434 L 51.5063 174.259 L 56.9986 174.259 L 60.6408 172.434 L 64.2831 168.782 L 66.0754 163.303 L 66.0754 159.651 L 64.2831 154.203 L 60.6408 150.492 L 56.9986 148.695 Z"
         fill="none"
         stroke-linecap="join"
         stroke-width="1"
         stroke="#000000"
         id="path2" /><path
         d="M 77.0022 148.695 L 84.2868 174.259 M 91.5713 148.695 L 84.2868 174.259 M 91.5713 148.695 L 98.8564 174.259 M 106.141 148.695 L 98.8564 174.259"
         fill="none"
         stroke-linecap="join"
         stroke-width="1"
         stroke="#000000"
         id="path3" /><path
         d="M 117.068 159.651 L 138.921 159.651 L 138.921 155.999 L 137.129 152.347 L 135.279 150.492 L 131.636 148.695 L 126.144 148.695 L 122.56 150.492 L 118.86 154.203 L 117.068 159.651 L 117.068 163.303 L 118.86 168.782 L 122.56 172.434 L 126.144 174.259 L 131.636 174.259 L 135.279 172.434 L 138.921 168.782"
         fill="none"
         stroke-linecap="join"
         stroke-width="1"
         stroke="#000000"
         id="path4" /><path
         d="M 151.641 148.695 L 151.641 174.259 M 151.641 159.651 L 153.49 154.203 L 157.133 150.492 L 160.775 148.695 L 166.209 148.695"
         fill="none"
         stroke-linecap="join"
         stroke-width="1"
         stroke="#000000"
         id="path5" /><path
         d="M 173.552 135.884 L 175.344 137.74 L 177.194 135.884 L 175.344 134.088 Z M 175.344 148.695 L 175.344 174.259"
         fill="none"
         stroke-linecap="join"
         stroke-width="1"
         stroke="#000000"
         id="path6" /><path
         d="M 189.913 148.695 L 189.913 174.259 M 189.913 155.999 L 195.405 150.492 L 199.048 148.695 L 204.482 148.695 L 208.182 150.492 L 209.974 155.999 L 209.974 174.259"
         fill="none"
         stroke-linecap="join"
         stroke-width="1"
         stroke="#000000"
         id="path7" /><path
         d="M 244.547 148.695 L 244.547 177.911 L 242.755 183.418 L 240.905 185.216 L 237.263 187.013 L 231.77 187.013 L 228.185 185.216 M 244.547 154.203 L 240.905 150.492 L 237.263 148.695 L 231.77 148.695 L 228.185 150.492 L 224.486 154.203 L 222.694 159.651 L 222.694 163.303 L 224.486 168.782 L 228.185 172.434 L 231.77 174.259 L 237.263 174.259 L 240.905 172.434 L 244.547 168.782"
         fill="none"
         stroke-linecap="join"
         stroke-width="1"
         stroke="#000000"
         id="path8" /><path
         d="M 108.857 206.664 L 108.857 224.924 L 110.708 230.402 L 114.35 232.228 L 119.842 232.228 L 123.427 230.402 L 128.919 224.924 M 128.919 206.664 L 128.919 232.228"
         fill="none"
         stroke-linecap="join"
         stroke-width="1"
         stroke="#000000"
         id="path9" /><path
         d="M 143.43 206.664 L 143.43 244.982 M 143.43 212.171 L 147.131 208.461 L 150.715 206.664 L 156.207 206.664 L 159.85 208.461 L 163.492 212.171 L 165.284 217.62 L 165.284 221.272 L 163.492 226.75 L 159.85 230.402 L 156.207 232.228 L 150.715 232.228 L 147.131 230.402 L 143.43 226.75"
         fill="none"
         stroke-linecap="join"
         stroke-width="1"
         stroke="#000000"
         id="path10" /></g><path
       id="path11"
       style="fill:none;stroke:#00ff00;stroke-width:1.74436;stroke-linejoin:bevel"
       d="M 184.51973,68.142975 A 57.367382,58.934036 0 0 1 127.15234,127.07701 57.367382,58.934036 0 0 1 69.784962,68.142975 57.367382,58.934036 0 0 1 127.15234,9.2089386 57.367382,58.934036 0 0 1 184.51973,68.142975 Z" /></g><g
     inkscape:label="Layer 1 copy"
     inkscape:groupmode="layer"
     id="g23"
     style="display:inline"><path
       style="fill:none;stroke:#00ff00;stroke-width:2.08436;stroke-linejoin:bevel"
       id="path12"
       d="M 107.928 100.467 L 111.77 75.4952 L 93.9228 58.0875 L 118.228 54.1233 L 128.829 31.3068 L 140.009 53.8291 L 164.409 57.1353 L 147.012 75.019 L 151.492 99.879 L 129.559 88.4094 Z" /><g
       id="g22"><path
         d="m 5.94884,135.884 v 38.375 m 0,-38.375 H 22.368 l 5.4346,1.856 1.85,1.855 1.8501,3.593 v 5.507 l -1.8501,3.652 -1.85,1.856 -5.4346,1.796 H 5.94884"
         fill="none"
         stroke-linecap="join"
         stroke-width="1"
         stroke="#000000"
         id="path13" /><path
         d="m 51.5063,148.695 -3.5845,1.797 -3.7,3.711 -1.7923,5.448 v 3.652 l 1.7923,5.479 3.7,3.652 3.5845,1.825 h 5.4923 l 3.6422,-1.825 3.6423,-3.652 1.7923,-5.479 v -3.652 l -1.7923,-5.448 -3.6423,-3.711 -3.6422,-1.797 z"
         fill="none"
         stroke-linecap="join"
         stroke-width="1"
         stroke="#000000"
         id="path14" /><path
         d="m 77.0022,148.695 7.2846,25.564 m 7.2845,-25.564 -7.2845,25.564 m 7.2845,-25.564 7.2851,25.564 m 7.2846,-25.564 -7.2846,25.564"
         fill="none"
         stroke-linecap="join"
         stroke-width="1"
         stroke="#000000"
         id="path15" /><path
         d="m 117.068,159.651 h 21.853 v -3.652 l -1.792,-3.652 -1.85,-1.855 -3.643,-1.797 h -5.492 l -3.584,1.797 -3.7,3.711 -1.792,5.448 v 3.652 l 1.792,5.479 3.7,3.652 3.584,1.825 h 5.492 l 3.643,-1.825 3.642,-3.652"
         fill="none"
         stroke-linecap="join"
         stroke-width="1"
         stroke="#000000"
         id="path16" /><path
         d="m 151.641,148.695 v 25.564 m 0,-14.608 1.849,-5.448 3.643,-3.711 3.642,-1.797 h 5.434"
         fill="none"
         stroke-linecap="join"
         stroke-width="1"
         stroke="#000000"
         id="path17" /><path
         d="m 173.552,135.884 1.792,1.856 1.85,-1.856 -1.85,-1.796 z m 1.792,12.811 v 25.564"
         fill="none"
         stroke-linecap="join"
         stroke-width="1"
         stroke="#000000"
         id="path18" /><path
         d="m 189.913,148.695 v 25.564 m 0,-18.26 5.492,-5.507 3.643,-1.797 h 5.434 l 3.7,1.797 1.792,5.507 v 18.26"
         fill="none"
         stroke-linecap="join"
         stroke-width="1"
         stroke="#000000"
         id="path19" /><path
         d="m 244.547,148.695 v 29.216 l -1.792,5.507 -1.85,1.798 -3.642,1.797 h -5.493 l -3.585,-1.797 m 16.362,-31.013 -3.642,-3.711 -3.642,-1.797 h -5.493 l -3.585,1.797 -3.699,3.711 -1.792,5.448 v 3.652 l 1.792,5.479 3.699,3.652 3.585,1.825 h 5.493 l 3.642,-1.825 3.642,-3.652"
         fill="none"
         stroke-linecap="join"
         stroke-width="1"
         stroke="#000000"
         id="path20" /><path
         d="m 108.857,206.664 v 18.26 l 1.851,5.478 3.642,1.826 h 5.492 l 3.585,-1.826 5.492,-5.478 m 0,-18.26 v 25.564"
         fill="none"
         stroke-linecap="join"
         stroke-width="1"
         stroke="#000000"
         id="path21" /><path
         d="m 143.43,206.664 v 38.318 m 0,-32.811 3.701,-3.71 3.584,-1.797 h 5.492 l 3.643,1.797 3.642,3.71 1.792,5.449 v 3.652 l -1.792,5.478 -3.642,3.652 -3.643,1.826 h -5.492 l -3.584,-1.826 -3.701,-3.652"
         fill="none"
         stroke-linecap="join"
         stroke-width="1"
         stroke="#000000"
         id="path22" /></g><path
       id="circle22"
       style="fill:none;stroke:#00ff00;stroke-width:1.74436;stroke-linejoin:bevel"
       d="M 184.51973,68.142975 A 57.367382,58.934036 0 0 1 127.15234,127.07701 57.367382,58.934036 0 0 1 69.784962,68.142975 57.367382,58.934036 0 0 1 127.15234,9.2089386 57.367382,58.934036 0 0 1 184.51973,68.142975 Z" /></g></svg>
