<?xml version="1.0" encoding="UTF-8" standalone="no"?>
<!-- Created with Inkscape (http://www.inkscape.org/) -->

<svg
   width="250"
   height="250"
   viewBox="0 0 250 250"
   version="1.1"
   id="svg1"
   xml:space="preserve"
   inkscape:version="1.4 (e7c3feb1, 2024-10-09)"
   sodipodi:docname="scissors.svg"
   xmlns:inkscape="http://www.inkscape.org/namespaces/inkscape"
   xmlns:sodipodi="http://sodipodi.sourceforge.net/DTD/sodipodi-0.dtd"
   xmlns="http://www.w3.org/2000/svg"
   xmlns:svg="http://www.w3.org/2000/svg"><sodipodi:namedview
     id="namedview1"
     pagecolor="#ffffff"
     bordercolor="#000000"
     borderopacity="0.25"
     inkscape:showpageshadow="2"
     inkscape:pageopacity="0.0"
     inkscape:pagecheckerboard="0"
     inkscape:deskcolor="#d1d1d1"
     inkscape:document-units="mm"
     inkscape:zoom="1.8350492"
     inkscape:cx="134.05635"
     inkscape:cy="194.00025"
     inkscape:window-width="1440"
     inkscape:window-height="847"
     inkscape:window-x="0"
     inkscape:window-y="25"
     inkscape:window-maximized="0"
     inkscape:current-layer="g265"><inkscape:page
       x="0"
       y="0"
       width="250"
       height="250"
       id="page2"
       margin="0"
       bleed="0" /></sodipodi:namedview><defs
     id="defs1"><clipPath
       clipPathUnits="userSpaceOnUse"
       id="clipPath2"><rect
         style="display:inline;fill:none;stroke:#000000;stroke-width:0.372393;stroke-linejoin:bevel;stroke-opacity:1"
         id="rect3"
         width="250"
         height="250"
         x="0"
         y="0" /></clipPath><clipPath
       clipPathUnits="userSpaceOnUse"
       id="clipPath3"><rect
         style="display:inline;fill:none;stroke:#000000;stroke-width:0.372393;stroke-linejoin:bevel;stroke-opacity:1"
         id="rect4"
         width="250"
         height="250"
         x="0"
         y="0" /></clipPath><clipPath
       clipPathUnits="userSpaceOnUse"
       id="clipPath4"><rect
         style="display:inline;fill:none;stroke:#000000;stroke-width:0.372393;stroke-linejoin:bevel;stroke-opacity:1"
         id="rect5"
         width="250"
         height="250"
         x="0"
         y="0" /></clipPath><clipPath
       clipPathUnits="userSpaceOnUse"
       id="clipPath5"><rect
         style="display:inline;fill:none;stroke:#000000;stroke-width:0.372393;stroke-linejoin:bevel;stroke-opacity:1"
         id="rect6"
         width="250"
         height="250"
         x="0"
         y="0" /></clipPath><clipPath
       clipPathUnits="userSpaceOnUse"
       id="clipPath6"><rect
         style="display:inline;fill:none;stroke:#000000;stroke-width:0.372393;stroke-linejoin:bevel;stroke-opacity:1"
         id="rect7"
         width="250"
         height="250"
         x="0"
         y="0" /></clipPath><clipPath
       clipPathUnits="userSpaceOnUse"
       id="clipPath7"><rect
         style="display:inline;fill:none;stroke:#000000;stroke-width:0.372393;stroke-linejoin:bevel;stroke-opacity:1"
         id="rect8"
         width="250"
         height="250"
         x="0"
         y="0" /></clipPath><clipPath
       clipPathUnits="userSpaceOnUse"
       id="clipPath8"><rect
         style="display:inline;fill:none;stroke:#000000;stroke-width:0.372393;stroke-linejoin:bevel;stroke-opacity:1"
         id="rect9"
         width="250"
         height="250"
         x="0"
         y="0" /></clipPath><clipPath
       clipPathUnits="userSpaceOnUse"
       id="clipPath9"><rect
         style="display:inline;fill:none;stroke:#000000;stroke-width:0.372393;stroke-linejoin:bevel;stroke-opacity:1"
         id="rect10"
         width="250"
         height="250"
         x="0"
         y="0" /></clipPath><clipPath
       clipPathUnits="userSpaceOnUse"
       id="clipPath10"><rect
         style="display:inline;fill:none;stroke:#000000;stroke-width:0.372393;stroke-linejoin:bevel;stroke-opacity:1"
         id="rect11"
         width="250"
         height="250"
         x="0"
         y="0" /></clipPath><clipPath
       clipPathUnits="userSpaceOnUse"
       id="clipPath11"><rect
         style="display:inline;fill:none;stroke:#000000;stroke-width:0.372393;stroke-linejoin:bevel;stroke-opacity:1"
         id="rect12"
         width="250"
         height="250"
         x="0"
         y="0" /></clipPath><clipPath
       clipPathUnits="userSpaceOnUse"
       id="clipPath12"><rect
         style="display:inline;fill:none;stroke:#000000;stroke-width:0.372393;stroke-linejoin:bevel;stroke-opacity:1"
         id="rect13"
         width="250"
         height="250"
         x="0"
         y="0" /></clipPath><clipPath
       clipPathUnits="userSpaceOnUse"
       id="clipPath13"><rect
         style="display:inline;fill:none;stroke:#000000;stroke-width:0.372393;stroke-linejoin:bevel;stroke-opacity:1"
         id="rect14"
         width="250"
         height="250"
         x="0"
         y="0" /></clipPath><clipPath
       clipPathUnits="userSpaceOnUse"
       id="clipPath11-9"><rect
         style="display:inline;fill:none;stroke:#000000;stroke-width:0.372393;stroke-linejoin:bevel;stroke-opacity:1"
         id="rect12-0"
         width="250"
         height="250"
         x="0"
         y="0" /></clipPath></defs><g
     inkscape:groupmode="layer"
     id="g1"
     inkscape:label="Layer 2 copy"
     style="display:none" /><g
     inkscape:groupmode="layer"
     id="g38"
     inkscape:label="Layer 1"
     style="display:none"
     clip-path="url(#clipPath13)"><path
       style="display:inline;fill:none;stroke:#000000;stroke-width:0.377953;stroke-linejoin:bevel;stroke-opacity:1"
       d="m 129.379,279.685 c 0.422,-0.985 -3.593,-15.629 -5.033,-26.873 -1.056,-8.248 1.923,-13.307 4.254,-13.825 2.414,-0.536 10.666,-6.126 20.24,8.516 7.054,10.786 13.549,30.353 13.411,32.425 -0.107,1.607 -1.214,7.921 -0.604,15.181 0.79,9.409 1.929,12.974 2.762,14.78"
       id="path34"
       sodipodi:nodetypes="ccccscc" /><path
       style="display:inline;fill:none;stroke:#000000;stroke-width:0.377953;stroke-linejoin:bevel;stroke-opacity:1"
       d="m 147.564,248.692 c 0,0 3.758,35.279 3.758,37.34 0,2.061 0.485,8.365 -1.697,9.093 m -72.1119,14.622 c -6.1348,-11.567 -5.2955,-21.279 0.3009,-24.473 2.0371,-1.162 5.7146,-3.28 8.4845,-1.733 -5.7554,-18.875 4.4644,-21.676 8.3832,-22.788 2.74,-0.777 5.1752,1.062 7.6983,4.617 0,0 -3.4768,-5.459 -2.4924,-12.597 0.9844,-7.137 8.4214,-9.589 12.9064,-9.569 2.229,0.01 8.307,1.219 9.629,5.275"
       id="path37" /></g><g
     inkscape:groupmode="layer"
     id="g28"
     inkscape:label="Layer 1"
     style="display:none"
     clip-path="url(#clipPath12)"><path
       style="display:inline;fill:none;stroke:#000000;stroke-width:0.377953;stroke-linejoin:bevel;stroke-opacity:1"
       d="m 133.005,254.578 c 0.423,-0.986 -3.592,-15.629 -5.032,-26.873 -1.056,-8.248 1.923,-13.308 4.254,-13.825 2.414,-0.536 10.665,-6.126 20.24,8.515 7.053,10.787 13.549,30.354 13.411,32.425 -0.107,1.608 -1.214,7.922 -0.605,15.181 0.79,9.41 1.929,12.975 2.763,14.781"
       id="path24"
       sodipodi:nodetypes="ccccccc" /><path
       style="display:inline;fill:none;stroke:#000000;stroke-width:0.377953;stroke-linejoin:bevel;stroke-opacity:1"
       d="m 163.88,284.899 c 0,0 -6.902,-8.249 -10.594,-14.647 -3.691,-6.399 -12.419,-9.55 -29.727,-21.252 -5.145,-3.606 -13.333,2.776 -14.275,5.618 -1.098,3.317 -1.28,13.812 2.491,19.289 2.137,3.102 6.19,6.435 9.012,10.667"
       id="path25" /><path
       style="display:inline;fill:none;stroke:#000000;stroke-width:0.377953;stroke-linejoin:bevel;stroke-opacity:1"
       d="m 105.9,240.184 3.547,14.744"
       id="path26" /><path
       style="display:inline;fill:none;stroke:#000000;stroke-width:0.377953;stroke-linejoin:bevel;stroke-opacity:1"
       d="m 151.191,223.585 c 0,0 3.758,35.279 3.758,37.34 0,2.061 0.485,8.365 -1.697,9.092"
       id="path27" /><path
       style="display:inline;fill:none;stroke:#000000;stroke-width:0.377953;stroke-linejoin:bevel;stroke-opacity:1"
       d="m 163.88,284.899 c 0,0 -6.902,-8.249 -10.594,-14.647 -3.691,-6.399 -12.419,-9.55 -29.727,-21.252 -5.145,-3.606 -13.333,2.776 -14.275,5.618 -1.098,3.317 -1.28,13.812 2.491,19.289 2.137,3.102 6.19,6.435 9.012,10.667"
       id="path223" /><path
       style="display:inline;fill:none;stroke:#000000;stroke-width:0.377953;stroke-linejoin:bevel;stroke-opacity:1"
       d="m 105.9,240.184 3.547,14.744"
       id="path224" /><path
       style="display:inline;fill:none;stroke:#000000;stroke-width:0.377953;stroke-linejoin:bevel;stroke-opacity:1"
       d="m 151.191,223.585 c 0,0 3.758,35.279 3.758,37.34 0,2.061 0.485,8.365 -1.697,9.092"
       id="path225" /><path
       d="m 81.1397,284.64 c -6.1347,-11.568 -5.2955,-21.279 0.3009,-24.473 2.0371,-1.163 5.7146,-3.28 8.4845,-1.733 -5.7554,-18.876 4.4644,-21.677 8.3832,-22.788 2.7397,-0.777 5.1747,1.062 7.6987,4.617 0,0 -3.477,-5.46 -2.493,-12.597 0.985,-7.137 8.421,-9.589 12.907,-9.569 2.229,0.01 8.307,1.218 9.629,5.275"
       style="display:inline;fill:none;stroke:#000000;stroke-width:0.377953;stroke-linejoin:bevel;stroke-opacity:1"
       id="path1-5" /></g><g
     inkscape:groupmode="layer"
     id="g33"
     inkscape:label="Layer 1"
     style="display:none"><path
       style="fill:none;stroke:#000000;stroke-width:0.377953;stroke-linejoin:bevel;stroke-opacity:1"
       d="m 133.842,219.149 c 0.423,-0.986 -3.592,-15.629 -5.032,-26.873 -1.056,-8.248 1.923,-13.308 4.253,-13.825 2.415,-0.536 10.666,-6.127 20.241,8.515 7.053,10.787 13.549,30.354 13.411,32.425 -0.108,1.608 -1.214,7.922 -0.605,15.181 0.79,9.41 1.929,12.974 2.763,14.781"
       id="path29"
       sodipodi:nodetypes="ccccccc" /><path
       style="fill:none;stroke:#000000;stroke-width:0.377953;stroke-linejoin:bevel;stroke-opacity:1"
       d="m 164.717,249.47 c 0,0 -6.902,-8.249 -10.594,-14.648 -3.691,-6.399 -12.419,-9.549 -29.727,-21.252 -5.145,-3.605 -13.333,2.777 -14.275,5.619 -1.098,3.317 -1.28,13.812 2.491,19.289 2.137,3.102 6.19,6.434 9.012,10.667"
       id="path30" /><path
       style="fill:none;stroke:#000000;stroke-width:0.377953;stroke-linejoin:bevel;stroke-opacity:1"
       d="m 106.737,204.755 3.547,14.744"
       id="path31" /><path
       style="fill:none;stroke:#000000;stroke-width:0.377953;stroke-linejoin:bevel;stroke-opacity:1"
       d="m 152.028,188.156 c 0,0 3.758,35.279 3.758,37.34 0,2.061 0.485,8.365 -1.697,9.092"
       id="path32" /><path
       style="fill:none;stroke:#000000;stroke-width:0.377953;stroke-linejoin:bevel;stroke-opacity:1"
       d="m 91.287,223.324 c 0,0 6.0925,19.775 6.492,20.274 0.3995,0.5 3.096,4.894 3.596,5.094"
       id="path33" /><path
       d="m 81.9767,249.21 c -6.1348,-11.567 -5.2955,-21.278 0.3008,-24.472 2.0371,-1.163 5.7146,-3.28 8.4845,-1.733 -5.7554,-18.876 4.4644,-21.677 8.3832,-22.788 2.7398,-0.777 5.1748,1.062 7.6988,4.616 0,0 -3.477,-5.459 -2.493,-12.596 0.985,-7.137 8.421,-9.59 12.907,-9.569 2.229,0.01 8.307,1.218 9.628,5.275"
       style="fill:none;stroke:#000000;stroke-width:0.377953;stroke-linejoin:bevel;stroke-opacity:1"
       id="path1-59" /></g><g
     inkscape:groupmode="layer"
     id="g49"
     inkscape:label="Layer 1"
     style="display:none"><path
       style="display:inline;fill:none;stroke:#000000;stroke-width:0.377953;stroke-linejoin:bevel;stroke-opacity:1"
       d="m 129.72804,160.24014 c -0.72834,-9.16657 3.28219,-11.47371 9.29814,-13.24987 2.41456,-0.53613 8.58831,-0.55298 14.58139,6.75598 4.69347,5.724 2.32032,8.6918 4.58849,13.62946 0.52384,1.14035 9.12273,23.43066 8.85474,27.12077 -1.36947,18.8571 3.10256,27.33432 4.57922,30.53374 7.06965,7.39263 14.07718,12.69833 10.92562,27.11998 -2.46108,6.15271 -3.81507,9.10601 -3.81507,11.07488 0,1.96887 -3.44552,9.10602 -3.44552,9.10602"
       id="path242"
       sodipodi:nodetypes="ccsssccsc"
       clip-path="url(#clipPath11)" /><path
       style="display:inline;fill:none;stroke:#000000;stroke-width:0.377953;stroke-linejoin:bevel;stroke-opacity:1"
       d="m 170.12677,225.81658 c 0,0 -13.04376,-12.30544 -16.73539,-18.70426 -3.69163,-6.39882 -12.89936,-8.06476 -28.72396,-19.64153 -5.91887,-3.21865 -13.13748,3.49371 -13.88745,6.3923 -4.13769,15.99188 8.59556,31.25635 23.41494,38.84453 0.90321,0.46249 8.6138,3.93773 9.59824,4.42995 0.98443,0.49222 4.92217,10.82878 11.5671,11.07489"
       id="path243" /><path
       style="display:inline;fill:none;stroke:#000000;stroke-width:0.377953;stroke-linejoin:bevel;stroke-opacity:1"
       d="m 91.253297,198.71792 c 0,0 12.983983,34.66563 14.841053,36.27814 1.50979,1.31096 2.29895,4.06432 11.54305,4.94702 2.35572,-1.41344 7.53832,-5.41817 7.53832,-8.00946 0,-2.5913 -0.94229,-4.00473 -0.94229,-4.00473"
       id="path244" /><path
       style="display:inline;fill:none;stroke:#000000;stroke-width:0.377953;stroke-linejoin:bevel;stroke-opacity:1"
       d="m 109.98922,184.95533 c 0,0 1.81852,5.78027 3.1725,6.26384"
       id="path245" /><path
       style="display:inline;fill:none;stroke:#000000;stroke-width:0.377953;stroke-linejoin:bevel;stroke-opacity:1"
       d="m 110.43009,238.00151 c 1.47057,6.72258 -3.57137,8.19314 -5.88225,9.45362 -6.30654,3.43994 -15.616957,-7.33136 -23.07197,-17.52124 l -1.814705,-7.89353 -3.69343,-8.13006 c -0.941129,-6.2596 0.02051,-17.02708 9.674563,-16.23465 3.272493,0.26862 6.468046,2.29952 6.468046,2.29952 -8.852623,-21.5018 0.519859,-25.15286 8.121586,-27.7142 2.5579,-0.30165 4.41857,0.6437 5.81572,2.27186 2.05988,2.40045 3.11221,6.28509 3.90596,9.84581 0,0 -5.27222,-15.41618 -4.28779,-22.55332 0.98444,-7.13715 7.41019,-11.38687 11.89572,-11.36652 2.22878,0.0101 10.10446,1.44307 11.65061,9.65609 0,0 1.43554,15.46751 1.77255,17.15256 0.33701,1.68506 4.94281,11.23368 4.6058,12.13238 -0.33701,0.89869 -0.89869,4.38113 -0.89869,4.38113"
       id="path246"
       sodipodi:nodetypes="cscccsccscsscssc" /><path
       style="display:inline;fill:none;stroke:#000000;stroke-width:0.377953;stroke-linejoin:bevel;stroke-opacity:1"
       d="m 84.480974,271.83888 c 0,0 -0.826589,-8.73962 -1.78248,-20.12923 -0.557386,-6.64135 -0.31974,-12.91423 -0.29921,-19.48221"
       id="path247"
       clip-path="url(#clipPath10)"
       sodipodi:nodetypes="csc" /><path
       style="display:inline;fill:none;stroke:#000000;stroke-width:0.377953;stroke-linejoin:bevel;stroke-opacity:1"
       d="m 146.94872,242.22974 c 0,0 4.35542,17.90564 8.3479,20.08336"
       id="path248"
       clip-path="url(#clipPath9)" /><path
       style="display:inline;fill:none;stroke:#000000;stroke-width:0.377953;stroke-linejoin:bevel;stroke-opacity:1"
       d="m 143.07722,247.0691 c 0,0 3.33896,16.23438 7.06884,21.14213"
       id="path249"
       clip-path="url(#clipPath8)" /><path
       d="m 152.71907,162.83458 c 0,0 4.54221,32.79904 -4.7013,33.84944 -9.24355,1.05041 -12.91824,-6.89242 -12.91824,-6.89242"
       style="display:inline;fill:none;stroke:#000000;stroke-width:0.377953;stroke-linejoin:bevel;stroke-opacity:1"
       id="path1-703" /></g><g
     inkscape:groupmode="layer"
     id="layer1"
     inkscape:label="Layer 1"
     style="display:none"><path
       style="fill:none;stroke:#000000;stroke-width:0.377953;stroke-linejoin:bevel;stroke-opacity:1"
       d="m 74.140256,190.97531 c -1.02935,-16.95343 8.271867,-15.60354 10.944102,-15.33831 3.267443,0.32432 6.468046,2.29952 6.468046,2.29952 -10.762348,-26.44462 0.519859,-26.72558 8.121584,-29.28692 6.329102,-0.74639 9.175912,4.45676 12.305432,8.85991 0,0 -6.50793,-18.67395 -5.5235,-25.81109 0.98444,-7.13715 8.42122,-9.58948 12.90675,-9.56913 2.22878,0.0101 8.30707,1.2184 9.62855,5.27496 0.48212,1.47998 3.90743,25.18309 8.33738,29.61304 1.98386,2.19474 0.49293,-9.17224 0.49293,-9.17224 m -5.16899,-4.36373 c 0,0 -2.17199,-13.21427 -1.43366,-14.93703 0.73832,-1.72276 2.13793,-6.87636 7.58637,-8.08614 2.41456,-0.53613 12.96944,-2.1257 16.60345,5.96962 3.03145,6.75301 3.33135,12.62359 3.57746,13.85413 0.24611,1.23055 10.33656,27.81028 10.09045,31.50191 -0.24611,3.69163 -0.49222,28.7947 0.98444,31.99412 1.47665,3.19941 10.09045,7.38325 11.32099,8.8599 1.23054,1.47666 5.6605,11.321 3.19941,17.47372 -2.46108,6.15271 -6.39882,9.10601 -6.39882,11.07488 0,1.96887 -3.44552,9.10602 -3.44552,9.10602"
       id="path1"
       sodipodi:nodetypes="cscccssscccsssssssssc" /><path
       style="fill:none;stroke:#000000;stroke-width:0.377953;stroke-linejoin:bevel;stroke-opacity:1"
       d="m 169.56883,203.77793 c 0,0 -13.04376,-12.30544 -16.73539,-18.70426 -3.69163,-6.39882 -14.44675,-9.09635 -30.27135,-20.67312 -5.14517,-3.6055 -13.78209,2.6653 -14.2743,5.6186 -0.49222,2.9533 -3.93774,11.11678 0.2461,16.28506 9.10787,12.18236 11.4336,18.98194 25.10308,24.36476 0.98444,0.2461 8.6138,3.93773 9.59824,4.42995 0.98443,0.49222 4.92217,10.82878 11.5671,11.07489"
       id="path2" /><path
       style="fill:none;stroke:#000000;stroke-width:0.377953;stroke-linejoin:bevel;stroke-opacity:1"
       d="m 90.695357,176.67927 c 0,0 12.983983,34.66563 14.841053,36.27814 1.50979,1.31096 2.29895,4.06432 11.54305,4.94702 2.35572,-1.41344 7.53832,-5.41817 7.53832,-8.00946 0,-2.5913 -0.94229,-4.00473 -0.94229,-4.00473"
       id="path3" /><path
       style="fill:none;stroke:#000000;stroke-width:0.377953;stroke-linejoin:bevel;stroke-opacity:1"
       d="m 108.59886,155.00661 3.06244,9.89404"
       id="path4" /><path
       style="fill:none;stroke:#000000;stroke-width:0.377953;stroke-linejoin:bevel;stroke-opacity:1"
       d="m 127.37141,129.30568 c 3.71457,18.09114 5.28694,27.55472 3.86854,30.36798 -0.4354,0.86358 -4.93238,4.06195 -6.57651,4.25538 -1.64412,0.19343 -2.2244,0.29014 -2.2244,0.29014"
       id="path5" /><path
       style="fill:none;stroke:#000000;stroke-width:0.377953;stroke-linejoin:bevel;stroke-opacity:1"
       d="m 111.90269,157.29984 c 0,0 1.81852,5.78027 3.1725,6.26384"
       id="path6" /><path
       style="fill:none;stroke:#000000;stroke-width:0.377953;stroke-linejoin:bevel;stroke-opacity:1"
       d="m 74.289657,191.72229 4.910729,14.1567 c 7.455013,10.18988 18.482974,22.97743 24.789514,19.53749 2.31088,-1.26048 7.35282,-2.73104 5.88225,-9.45362"
       id="path7" /><path
       style="fill:none;stroke:#000000;stroke-width:0.377953;stroke-linejoin:bevel;stroke-opacity:1"
       d="m 153.2845,127.98954 c 0,0 -0.0636,18.75694 -9.30711,19.80734 -9.24355,1.05041 -11.34552,-4.42101 -11.34552,-4.42101"
       id="path8" /><path
       style="fill:none;stroke:#000000;stroke-width:0.377953;stroke-linejoin:bevel;stroke-opacity:1"
       d="m 146.39078,220.19109 c 0,0 4.35542,17.90564 8.3479,20.08336"
       id="path9" /><path
       style="fill:none;stroke:#000000;stroke-width:0.377953;stroke-linejoin:bevel;stroke-opacity:1"
       d="m 142.51928,225.03045 c 0,0 3.33896,16.23438 7.06884,21.14213"
       id="path10" /><path
       style="fill:none;stroke:#000000;stroke-width:0.377953;stroke-linejoin:bevel;stroke-opacity:1"
       d="m 152.35519,138.09297 c 0,0 2.50552,-2.50553 2.89099,-4.91469"
       id="path11" /><path
       d="m 83.923034,249.80023 c 0,0 -2.222892,-9.3602 -3.178783,-20.74981 -0.557386,-6.64135 -0.08588,-13.97273 -0.06535,-20.54071"
       style="fill:none;stroke:#000000;stroke-width:0.377953;stroke-linejoin:bevel;stroke-opacity:1"
       id="path1-28" /></g><g
     inkscape:groupmode="layer"
     id="g59"
     inkscape:label="Layer 1"
     style="display:none"><path
       style="display:inline;fill:none;stroke:#000000;stroke-width:0.377953;stroke-linejoin:bevel;stroke-opacity:1"
       d="m 160.06976,108.20969 c 0.86896,4.87259 1.07484,13.75185 1.32095,14.98239 0.24611,1.23055 7.70396,27.34017 7.45785,31.0318 -0.24611,3.69163 -0.49222,28.7947 0.98444,31.99412 1.47665,3.19941 10.09045,7.38325 11.32099,8.8599 1.23054,1.47666 5.6605,11.321 3.19941,17.47372 -2.46108,6.15271 -6.39882,9.10601 -6.39882,11.07488 0,1.96887 -10.059,26.43789 -10.059,26.43789 m -7.82582,-141.8547 c -0.1425,-2.17129 -5.31073,-14.000366 -10.76397,-23.684558 -5.45323,-9.684192 -13.44504,-4.889107 -15.13742,-4.889107 -1.69238,0 -5.26519,4.042915 -5.64128,9.026043 -0.37608,4.983128 7.33366,17.017852 7.33366,17.017852 0,0 0.18805,5.64127 0.65815,8.08583 0.17756,0.9233 1.59836,4.04291 1.59836,4.04291 l 1.54469,11.16016 c 0,0 1.02082,13.71751 -0.96304,11.52277 -4.42995,-4.42995 -8.08531,-34.86856 -8.56743,-36.34854 -8.33125,-25.574496 -42.294923,-20.151459 -18.66255,13.98437 1.68623,5.77941 4.15119,12.5864 5.0334,17.96271 1.055,6.42935 -0.68605,11.01105 -0.68605,11.01105 -7.91859,-11.92883 -10.04124,-16.7579 -16.370343,-16.01151 -7.601725,2.56134 -18.883932,2.8423 -8.121584,29.28692 0,0 -3.200603,-1.9752 -6.468046,-2.29952 -2.672235,-0.26523 -12.643973,-1.71091 -11.614623,15.24252 1.464852,5.02195 3.779651,10.04987 5.496587,14.99947 7.455013,10.18988 18.717038,22.97743 25.023579,19.53749 2.31088,-1.26048 7.35282,-2.73104 5.88225,-9.45362"
       id="path49"
       sodipodi:nodetypes="cssssssccssscscccccscccsccsc" /><path
       style="display:inline;fill:none;stroke:#000000;stroke-width:0.377953;stroke-linejoin:bevel;stroke-opacity:1"
       d="m 169.34078,186.218 c 0,0 -13.04376,-12.30544 -16.73539,-18.70426 -3.69163,-6.39882 -19.91997,-6.35974 -37.11288,-16.1121 -5.14517,-3.6055 -13.10261,2.86335 -14.2743,5.6186 -1.17813,2.77039 -3.937739,11.11678 0.2461,16.28506 9.10787,12.18236 18.27513,14.42092 31.94461,19.80374 0.98444,0.2461 8.6138,3.93773 9.59824,4.42995 0.98443,0.49222 4.92217,10.82878 11.5671,11.07489"
       id="path50" /><path
       style="display:inline;fill:none;stroke:#000000;stroke-width:0.377953;stroke-linejoin:bevel;stroke-opacity:1"
       d="m 90.467306,159.11934 c 0,0 12.983984,34.66563 14.841054,36.27814 1.50979,1.31096 2.16115,4.58516 11.43265,4.06385 4.4272,-0.24892 7.75912,-5.97015 7.75912,-8.56144"
       id="path51" /><path
       style="display:inline;fill:none;stroke:#000000;stroke-width:0.377953;stroke-linejoin:bevel;stroke-opacity:1"
       d="m 108.37081,137.44668 3.06244,9.89404"
       id="path52" /><path
       style="display:inline;fill:none;stroke:#000000;stroke-width:0.377953;stroke-linejoin:bevel;stroke-opacity:1"
       d="m 146.16273,202.63116 c 0,0 4.35542,17.90564 8.3479,20.08336"
       id="path57" /><path
       style="display:inline;fill:none;stroke:#000000;stroke-width:0.377953;stroke-linejoin:bevel;stroke-opacity:1"
       d="m 142.29123,207.47052 c 0,0 3.33896,16.23438 7.06884,21.14213"
       id="path58" /><path
       style="display:inline;fill:none;stroke:#000000;stroke-width:0.377953;stroke-linejoin:bevel;stroke-opacity:1"
       d="m 140.51995,117.3661 c 0,0 7.98409,2.39522 15.16977,-2.39523"
       id="path59" /><path
       style="display:inline;fill:none;stroke:#000000;stroke-width:0.377953;stroke-linejoin:bevel;stroke-opacity:1"
       d="m 116.36809,119.56172 c 0,0 6.58687,1.39722 11.37732,-2.99403"
       id="path60" /><path
       d="m 87.343799,249.80023 c 0,0 -6.555861,-15.97368 -7.511752,-27.36329 -0.557386,-6.64135 -0.162436,-24.80215 -0.141906,-31.37013"
       style="display:inline;fill:none;stroke:#000000;stroke-width:0.377953;stroke-linejoin:bevel;stroke-opacity:1"
       id="path1-2" /></g><g
     inkscape:groupmode="layer"
     id="g68"
     inkscape:label="Layer 1"
     style="display:none"><path
       style="fill:none;stroke:#000000;stroke-width:0.377953;stroke-linejoin:bevel;stroke-opacity:1"
       d="m 160.06976,108.20969 c 0.86896,4.87259 1.07484,13.75185 1.32095,14.98239 0.24611,1.23055 7.70396,27.34017 7.45785,31.0318 -0.24611,3.69163 -0.49222,28.7947 0.98444,31.99412 1.47665,3.19941 10.09045,7.38325 11.32099,8.8599 1.23054,1.47666 5.6605,11.321 3.19941,17.47372 -2.46108,6.15271 -6.39882,9.10601 -6.39882,11.07488 0,1.96887 -10.059,26.43789 -10.059,26.43789 m -7.82582,-141.8547 c -0.1425,-2.17129 -5.31073,-14.000366 -10.76397,-23.684558 -5.45323,-9.684192 -13.44504,-4.889107 -15.13742,-4.889107 -1.69238,0 -5.26519,4.042915 -5.64128,9.026043 -0.37608,4.983128 7.33366,17.017852 7.33366,17.017852 0,0 0.18805,5.64127 0.65815,8.08583 0.17756,0.9233 1.59836,4.04291 1.59836,4.04291 l 1.54469,11.16016 c 0,0 1.02082,13.71751 -0.96304,11.52277 -4.42995,-4.42995 -8.08531,-34.86856 -8.56743,-36.34854 -8.33125,-25.574496 -42.294923,-20.151459 -18.66255,13.98437 1.68623,5.77941 4.15119,12.5864 5.0334,17.96271 1.055,6.42935 -0.68605,11.01105 -0.68605,11.01105 -7.91859,-11.92883 -10.04124,-16.7579 -16.370343,-16.01151 -7.601725,2.56134 -18.883932,2.8423 -8.121584,29.28692 0,0 -3.200603,-1.9752 -6.468046,-2.29952 -2.672235,-0.26523 -12.643973,-1.71091 -11.614623,15.24252 1.464852,5.02195 3.779651,10.04987 5.496587,14.99947 7.455013,10.18988 18.717038,22.97743 25.023579,19.53749 2.31088,-1.26048 7.35282,-2.73104 5.88225,-9.45362"
       id="path61"
       sodipodi:nodetypes="cssssssccssscscccccscccsccsc" /><path
       style="fill:none;stroke:#000000;stroke-width:0.377953;stroke-linejoin:bevel;stroke-opacity:1"
       d="m 169.34078,186.218 c 0,0 -13.04376,-12.30544 -16.73539,-18.70426 -3.69163,-6.39882 -19.91997,-6.35974 -37.11288,-16.1121 -5.14517,-3.6055 -13.10261,2.86335 -14.2743,5.6186 -1.17813,2.77039 -3.937739,11.11678 0.2461,16.28506 9.10787,12.18236 18.27513,14.42092 31.94461,19.80374 0.98444,0.2461 8.6138,3.93773 9.59824,4.42995 0.98443,0.49222 4.92217,10.82878 11.5671,11.07489"
       id="path62" /><path
       style="fill:none;stroke:#000000;stroke-width:0.377953;stroke-linejoin:bevel;stroke-opacity:1"
       d="m 90.467306,159.11934 c 0,0 12.983984,34.66563 14.841054,36.27814 1.50979,1.31096 2.16115,4.58516 11.43265,4.06385 4.4272,-0.24892 7.75912,-5.97015 7.75912,-8.56144"
       id="path63" /><path
       style="fill:none;stroke:#000000;stroke-width:0.377953;stroke-linejoin:bevel;stroke-opacity:1"
       d="m 108.37081,137.44668 3.06244,9.89404"
       id="path64" /><path
       style="fill:none;stroke:#000000;stroke-width:0.377953;stroke-linejoin:bevel;stroke-opacity:1"
       d="m 146.16273,202.63116 c 0,0 4.35542,17.90564 8.3479,20.08336"
       id="path65" /><path
       style="fill:none;stroke:#000000;stroke-width:0.377953;stroke-linejoin:bevel;stroke-opacity:1"
       d="m 142.29123,207.47052 c 0,0 3.33896,16.23438 7.06884,21.14213"
       id="path66" /><path
       style="fill:none;stroke:#000000;stroke-width:0.377953;stroke-linejoin:bevel;stroke-opacity:1"
       d="m 140.51995,117.3661 c 0,0 7.98409,2.39522 15.16977,-2.39523"
       id="path67" /><path
       style="fill:none;stroke:#000000;stroke-width:0.377953;stroke-linejoin:bevel;stroke-opacity:1"
       d="m 116.36809,119.56172 c 0,0 6.58687,1.39722 11.37732,-2.99403"
       id="path68" /><path
       d="m 87.343799,249.80023 c 0,0 -6.555861,-15.97368 -7.511752,-27.36329 -0.557386,-6.64135 -0.162436,-24.80215 -0.141906,-31.37013"
       style="fill:none;stroke:#000000;stroke-width:0.377953;stroke-linejoin:bevel;stroke-opacity:1"
       id="path1-7" /></g><g
     inkscape:groupmode="layer"
     id="g76"
     inkscape:label="Layer 1"
     style="display:inline"><path
       style="display:inline;fill:none;stroke:#000000;stroke-width:0.377953;stroke-linejoin:bevel;stroke-opacity:1"
       d="m 166.23461,249.29697 c 0,0 -0.0291,-5.26937 2.04847,-13.56486 0.708,-2.82693 1.51927,-3.12732 2.15645,-4.47347 4.56117,-10.30147 7.92053,-20.12811 11.67432,-29.51061 2.46154,-6.15254 -1.4562,-15.58692 -2.68674,-17.06358 -1.23054,-1.47665 -7.38352,-5.04528 -8.86017,-8.24469 -1.47666,-3.19942 -2.25589,-25.22647 -2.00978,-28.9181 0.24611,-3.69163 -8.66863,-32.40832 -8.91474,-33.63887 -0.98245,-15.762588 -2.46346,-25.45296 -6.54539,-39.277958 -2.6102,-10.818085 -0.96024,-27.436533 -12.74646,-28.34903 -3.71458,-0.287585 -10.2355,3.244813 -10.61159,9.40608 3.61636,17.598917 3.42922,32.70433 7.06391,51.084588 0.10271,2.53238 3.08127,22.98564 1.40046,22.75554 -1.59276,-1.59275 -1.73061,-13.91763 -4.58173,-28.46274 C 130.01449,82.637403 123.4133,60.436521 118.9643,49.203178 113.38088,35.105507 106.62032,38.860975 104.53168,39.302925 c -9.942718,2.103853 -6.797412,14.450997 1.57804,36.711779 2.84621,7.564852 3.28793,15.47805 5.13517,23.415745 5.45797,23.453241 6.09694,33.630201 4.18446,37.624981 -0.86418,1.80509 -4.65615,-6.57503 -7.29929,-9.22838 -3.03892,-3.05066 -5.59055,-3.83879 -8.975524,-3.4396 -7.966434,0.93948 -15.067639,4.17956 -10.228111,23.65054 0,0 -2.346605,-1.4628 -5.614048,-1.78712 -2.672235,-0.26523 -12.131575,0.16788 -11.102225,17.12131 1.464852,5.02195 3.779651,14.43372 5.496587,19.38332 7.455013,10.18988 8.939928,20.15601 19.032677,20.08159 2.632223,-0.0194 7.352824,-2.73104 7.845464,-8.19155"
       id="path69"
       sodipodi:nodetypes="cscssssccsccssssssssscsccsc" /><path
       style="display:inline;fill:none;stroke:#000000;stroke-width:0.377953;stroke-linejoin:bevel;stroke-opacity:1"
       d="m 170.17726,177.7727 c 0,0 -12.74689,-11.63242 -17.86327,-16.96118 -15.44297,-16.08399 -20.17824,-7.00542 -40.47041,-12.23804 -5.14517,-3.6055 -13.619149,0.92632 -14.790839,3.68157 -1.178131,2.77039 -3.93774,11.11678 0.2461,16.28506 9.107869,12.18236 22.149199,12.48389 35.818679,17.86671 0.98444,0.2461 6.97325,6.19348 7.95769,6.6857 0.98443,0.49222 0.71827,3.85646 3.26184,6.15325"
       id="path70" /><path
       style="display:inline;fill:none;stroke:#000000;stroke-width:0.377953;stroke-linejoin:bevel;stroke-opacity:1"
       d="m 89.125082,149.07359 c 0,0 1.054645,6.00752 3.321869,13.30455 3.871137,12.45919 9.996549,29.22664 11.167709,30.24356 1.50979,1.31096 2.16115,4.58516 11.43265,4.06385 4.4272,-0.24892 10.42349,-6.25061 8.32004,-13.32926"
       id="path71" /><path
       style="display:inline;fill:none;stroke:#000000;stroke-width:0.377953;stroke-linejoin:bevel;stroke-opacity:1"
       d="m 108.07941,130.74446 3.06244,9.89404"
       id="path72" /><path
       style="display:inline;fill:none;stroke:#000000;stroke-width:0.377953;stroke-linejoin:bevel;stroke-opacity:1"
       d="m 144.74345,200.44044 c 0,0 6.78431,13.39414 10.77679,15.57186"
       id="path73" /><path
       style="display:inline;fill:none;stroke:#000000;stroke-width:0.377953;stroke-linejoin:bevel;stroke-opacity:1"
       d="m 138.51367,198.51255 c 0,0 5.3224,18.07999 10.5903,23.09028"
       id="path74" /><path
       style="display:inline;fill:none;stroke:#000000;stroke-width:0.377953;stroke-linejoin:bevel;stroke-opacity:1"
       d="m 139.9269,104.23823 c 0,0 7.98409,2.39522 15.16977,-2.39523"
       id="path75"
       sodipodi:nodetypes="cc" /><path
       style="display:inline;fill:none;stroke:#000000;stroke-width:0.377953;stroke-linejoin:bevel;stroke-opacity:1"
       d="m 116.55228,104.21955 c 0,0 7.06246,2.18988 11.85291,-2.20137"
       id="path76" /><path
       style="display:inline;fill:none;stroke:#000000;stroke-width:0.377953;stroke-linejoin:bevel;stroke-opacity:1"
       d="m 136.49995,78.061356 12.38932,-1.65819"
       id="path77"
       sodipodi:nodetypes="cc" /><path
       style="display:inline;fill:none;stroke:#000000;stroke-width:0.377953;stroke-linejoin:bevel;stroke-opacity:1"
       d="m 107.65901,74.871017 c 0,0 6.63931,0.61286 11.95076,-1.532149"
       id="path78" /><path
       d="m 89.893382,249.68393 c 0,0 -8.432964,-21.52994 -10.913656,-32.68714 -1.538995,-6.92181 -1.144045,-27.04583 -1.123515,-33.61381"
       style="display:inline;fill:none;stroke:#000000;stroke-width:0.377953;stroke-linejoin:bevel;stroke-opacity:1"
       id="path1-0" /></g><g
     inkscape:groupmode="layer"
     id="g88"
     inkscape:label="Layer 1"
     style="display:none"><path
       style="display:inline;fill:none;stroke:#000000;stroke-width:0.377953;stroke-linejoin:bevel;stroke-opacity:1"
       d="m 166.23461,249.29697 c 0,0 -0.0291,-5.26937 2.04847,-13.56486 0.708,-2.82693 1.51927,-3.12732 2.15645,-4.47347 4.56117,-10.30147 7.92053,-20.12811 11.67432,-29.51061 2.46154,-6.15254 -1.4562,-15.58692 -2.68674,-17.06358 -1.23054,-1.47665 -7.38352,-5.04528 -8.86017,-8.24469 -1.47666,-3.19942 -2.25589,-25.22647 -2.00978,-28.9181 0.24611,-3.69163 -9.4913,-35.04088 -9.73741,-36.27143 -0.98245,-15.762586 -4.3735,-22.655865 -8.45543,-36.480863 -4.267,-11.084201 -5.44762,-18.098618 -16.50359,-27.792472 -1.27251,-1.115737 -11.19695,1.321898 -11.57304,7.483165 3.61636,17.598917 8.9576,33.906152 12.59229,52.28641 0.17755,0.9233 1.36057,6.42088 1.36057,6.42088 l 1.86175,9.65411 c 0,0 2.19301,8.77251 0.10105,6.68055 -1.59276,-1.59275 -1.73061,-13.91763 -4.58173,-28.46274 -3.60713,-18.401867 -10.20832,-40.602749 -14.65732,-51.836092 -5.58342,-14.097671 -13.00212,-9.684063 -15.09076,-9.242113 -9.942718,2.103853 -6.139272,13.792857 2.23618,36.053639 2.84621,7.564852 3.28793,15.47805 5.13517,23.415745 5.45797,23.453241 6.09694,35.440081 4.18446,39.434861 -0.86418,1.80509 -4.65615,-6.57503 -7.29929,-9.22838 -3.03892,-3.05066 -5.59055,-3.83879 -8.975524,-3.4396 -7.966434,0.93948 -15.067639,2.36968 -10.228111,21.84066 0,0 -2.346605,-1.4628 -5.614048,-1.78712 -2.672235,-0.26523 -12.131575,0.16788 -11.102225,17.12131 1.464852,5.02195 3.779651,14.43372 5.496587,19.38332 7.455013,10.18988 8.939928,20.15601 19.032677,20.08159 2.632223,-0.0194 7.352824,-2.73104 7.845464,-8.19155"
       id="path79"
       sodipodi:nodetypes="cscssssccsccccssssssssscsccsc" /><path
       style="display:inline;fill:none;stroke:#000000;stroke-width:0.377953;stroke-linejoin:bevel;stroke-opacity:1"
       d="m 170.17726,177.7727 c 0,0 -12.74689,-11.63242 -17.86327,-16.96118 -15.44297,-16.08399 -20.17824,-7.00542 -40.47041,-12.23804 -5.14517,-3.6055 -13.619149,0.92632 -14.790839,3.68157 -1.178131,2.77039 -3.93774,11.11678 0.2461,16.28506 9.107869,12.18236 22.149199,12.48389 35.818679,17.86671 0.98444,0.2461 6.97325,6.19348 7.95769,6.6857 0.98443,0.49222 0.71827,3.85646 3.26184,6.15325"
       id="path80" /><path
       style="display:inline;fill:none;stroke:#000000;stroke-width:0.377953;stroke-linejoin:bevel;stroke-opacity:1"
       d="m 89.125082,149.07359 c 0,0 1.054645,6.00752 3.321869,13.30455 3.871137,12.45919 9.996549,29.22664 11.167709,30.24356 1.50979,1.31096 2.16115,4.58516 11.43265,4.06385 4.4272,-0.24892 10.42349,-6.25061 8.32004,-13.32926"
       id="path81" /><path
       style="display:inline;fill:none;stroke:#000000;stroke-width:0.377953;stroke-linejoin:bevel;stroke-opacity:1"
       d="m 108.07941,130.74446 3.06244,9.89404"
       id="path82" /><path
       style="display:inline;fill:none;stroke:#000000;stroke-width:0.377953;stroke-linejoin:bevel;stroke-opacity:1"
       d="m 144.74345,200.44044 c 0,0 6.78431,13.39414 10.77679,15.57186"
       id="path83" /><path
       style="display:inline;fill:none;stroke:#000000;stroke-width:0.377953;stroke-linejoin:bevel;stroke-opacity:1"
       d="m 138.51367,198.51255 c 0,0 5.3224,18.07999 10.5903,23.09028"
       id="path84" /><path
       style="display:inline;fill:none;stroke:#000000;stroke-width:0.377953;stroke-linejoin:bevel;stroke-opacity:1"
       d="m 138.48471,104.71896 c 0,0 7.98409,2.39522 15.16977,-2.39523"
       id="path85" /><path
       style="display:inline;fill:none;stroke:#000000;stroke-width:0.377953;stroke-linejoin:bevel;stroke-opacity:1"
       d="m 116.55228,104.21955 c 0,0 7.06246,2.18988 11.85291,-2.20137"
       id="path86" /><path
       style="display:inline;fill:none;stroke:#000000;stroke-width:0.377953;stroke-linejoin:bevel;stroke-opacity:1"
       d="m 132.17339,79.263178 12.87005,-2.860012"
       id="path87" /><path
       style="display:inline;fill:none;stroke:#000000;stroke-width:0.377953;stroke-linejoin:bevel;stroke-opacity:1"
       d="m 107.65901,74.871017 c 0,0 6.63931,0.61286 11.95076,-1.532149"
       id="path88" /><path
       d="m 89.893382,249.68393 c 0,0 -8.432964,-21.52994 -10.913656,-32.68714 -1.538995,-6.92181 -1.144045,-27.04583 -1.123515,-33.61381"
       style="display:inline;fill:none;stroke:#000000;stroke-width:0.377953;stroke-linejoin:bevel;stroke-opacity:1"
       id="path1-6" /></g><g
     inkscape:groupmode="layer"
     id="g107"
     inkscape:label="Layer 1 copy"
     style="display:none"><path
       style="display:inline;fill:none;stroke:#000000;stroke-width:0.377953;stroke-linejoin:bevel;stroke-opacity:1"
       d="m 166.23461,249.29697 c 0,0 -0.0291,-5.26937 2.04847,-13.56486 0.708,-2.82693 1.51927,-3.12732 2.15645,-4.47347 4.56117,-10.30147 7.92053,-20.12811 11.67432,-29.51061 2.46154,-6.15254 -1.4562,-15.58692 -2.68674,-17.06358 -1.23054,-1.47665 -7.38352,-5.04528 -8.86017,-8.24469 -1.47666,-3.19942 -2.25589,-25.22647 -2.00978,-28.9181 0.10057,-1.50856 -0.21049,-13.59018 -2.53905,-19.07009 -0.87573,-10.6508 -0.47251,-19.29378 -0.61805,-20.02147 -0.98245,-15.762588 -0.29997,-20.775779 -1.71844,-34.600777 -2.23024,-13.434311 -3.09752,-29.535822 -14.62351,-28.732516 -1.68829,0.117665 -9.42302,2.260793 -9.06625,8.423209 0.45011,7.774717 1.6496,15.833342 2.08035,25.740579 0.6311,14.515352 0.98024,29.635765 1.82703,40.427385 0,0 -3.7606,7.98914 -5.85256,8.56064 -2.17288,0.5936 -1.57394,-12.66424 -4.42506,-27.20935 -3.60713,-18.401867 -10.20832,-40.602749 -14.65732,-51.836092 -5.58342,-14.097671 -13.00212,-9.684063 -15.09076,-9.242113 -9.942718,2.103853 -6.139272,13.792857 2.23618,36.053639 2.84621,7.564852 3.28793,15.47805 5.13517,23.415745 5.45797,23.453241 6.09694,35.440081 4.18446,39.434861 -0.86418,1.80509 -4.65615,-6.57503 -7.29929,-9.22838 -3.03892,-3.05066 -5.59055,-3.83879 -8.975524,-3.4396 -7.966434,0.93948 -15.067639,2.36968 -10.228111,21.84066 0,0 -2.346605,-1.4628 -5.614048,-1.78712 -2.672235,-0.26523 -12.131575,0.16788 -11.102225,17.12131 1.464852,5.02195 3.779651,14.43372 5.496587,19.38332 7.455013,10.18988 8.939928,20.15601 19.032677,20.08159 2.632223,-0.0194 7.352824,-2.73104 7.845464,-8.19155"
       id="path98"
       sodipodi:nodetypes="cscsssscccssscssssssssscsccsc" /><path
       style="display:inline;fill:none;stroke:#000000;stroke-width:0.377953;stroke-linejoin:bevel;stroke-opacity:1"
       d="m 170.17726,177.7727 c 0,0 -12.74689,-11.63242 -17.86327,-16.96118 -15.44297,-16.08399 -20.17824,-7.00542 -40.47041,-12.23804 -5.14517,-3.6055 -13.619149,0.92632 -14.790839,3.68157 -1.178131,2.77039 -3.93774,11.11678 0.2461,16.28506 9.107869,12.18236 22.149199,12.48389 35.818679,17.86671 0.98444,0.2461 6.97325,6.19348 7.95769,6.6857 0.98443,0.49222 0.71827,3.85646 3.26184,6.15325"
       id="path99" /><path
       style="display:inline;fill:none;stroke:#000000;stroke-width:0.377953;stroke-linejoin:bevel;stroke-opacity:1"
       d="m 89.125082,149.07359 c 0,0 1.054645,6.00752 3.321869,13.30455 3.871137,12.45919 9.996549,29.22664 11.167709,30.24356 1.50979,1.31096 2.16115,4.58516 11.43265,4.06385 4.4272,-0.24892 10.42349,-6.25061 8.32004,-13.32926"
       id="path100" /><path
       style="display:inline;fill:none;stroke:#000000;stroke-width:0.377953;stroke-linejoin:bevel;stroke-opacity:1"
       d="m 108.07941,130.74446 3.06244,9.89404"
       id="path101" /><path
       style="display:inline;fill:none;stroke:#000000;stroke-width:0.377953;stroke-linejoin:bevel;stroke-opacity:1"
       d="m 144.74345,200.44044 c 0,0 6.78431,13.39414 10.77679,15.57186"
       id="path102" /><path
       style="display:inline;fill:none;stroke:#000000;stroke-width:0.377953;stroke-linejoin:bevel;stroke-opacity:1"
       d="m 138.51367,198.51255 c 0,0 5.3224,18.07999 10.5903,23.09028"
       id="path103" /><path
       style="display:inline;fill:none;stroke:#000000;stroke-width:0.377953;stroke-linejoin:bevel;stroke-opacity:1"
       d="m 146.63176,99.078695 c 0,0 6.99509,1.765865 14.54041,0.212125"
       id="path104" /><path
       style="display:inline;fill:none;stroke:#000000;stroke-width:0.377953;stroke-linejoin:bevel;stroke-opacity:1"
       d="m 115.65319,101.43238 c 0,0 7.06246,2.18988 11.85291,-2.201373"
       id="path105" /><path
       style="display:inline;fill:none;stroke:#000000;stroke-width:0.377953;stroke-linejoin:bevel;stroke-opacity:1"
       d="m 145.64736,77.069742 12.87005,-0.82325"
       id="path106" /><path
       style="display:inline;fill:none;stroke:#000000;stroke-width:0.377953;stroke-linejoin:bevel;stroke-opacity:1"
       d="m 107.65901,74.871017 c 0,0 6.63931,0.61286 11.95076,-1.532149"
       id="path107" /><path
       d="m 89.893382,249.68393 c 0,0 -8.432964,-21.52994 -10.913656,-32.68714 -1.538995,-6.92181 -1.144045,-27.04583 -1.123515,-33.61381"
       style="display:inline;fill:none;stroke:#000000;stroke-width:0.377953;stroke-linejoin:bevel;stroke-opacity:1"
       id="path1-27" /></g><g
     inkscape:groupmode="layer"
     id="g117"
     inkscape:label="Layer 1 copy"
     style="display:none"><path
       style="display:inline;fill:none;stroke:#000000;stroke-width:0.377953;stroke-linejoin:bevel;stroke-opacity:1"
       d="m 166.23461,249.29697 c 0,0 -0.0291,-5.26937 2.04847,-13.56486 0.708,-2.82693 1.51927,-3.12732 2.15645,-4.47347 4.56117,-10.30147 7.92053,-20.12811 11.67432,-29.51061 2.46154,-6.15254 -1.4562,-15.58692 -2.68674,-17.06358 -1.23054,-1.47665 -7.38352,-5.04528 -8.86017,-8.24469 -0.69012,-1.49525 -2.79764,-7.24545 -3.14963,-13.17172 -0.40116,-6.75433 1.00876,-13.78003 1.13985,-15.74638 0.10057,-1.50856 1.82257,-12.57365 -0.50599,-18.05356 -0.23844,-5.47198 1.07522,-16.49567 4.02289,-29.994955 1.6015,-7.334307 0.0157,-14.078238 0.29001,-23.049772 0.81936,-14.111999 -0.89503,-31.90773 -12.42102,-31.104424 -1.68829,0.117665 -9.42302,2.260793 -9.06625,8.423209 0.45011,7.774717 1.46396,25.161392 -0.46098,34.889367 -1.51584,7.660544 -2.31326,35.985865 -12.70798,38.600565 -4.0674,1.02311 -6.88386,-10.44157 -9.19548,-25.08211 C 125.25605,81.526249 111.41765,63.10222 106.96865,51.868877 101.38523,37.771206 93.884078,41.896723 91.877893,42.626764 80.602325,46.729892 88.40432,54.86463 96.779772,77.125412 c 2.84621,7.564852 5.634528,12.182737 8.163448,23.415748 8.94347,22.44428 12.39861,34.32937 10.48613,38.32415 -0.86418,1.80509 -6.86613,-6.57503 -9.50927,-9.22838 -3.03892,-3.05066 -5.59055,-3.83879 -8.975522,-3.4396 -7.966434,0.93948 -15.231088,2.86433 -10.39156,22.33531 1.936215,0.83365 -15.669465,-7.00992 -14.342846,14.83954 1.464852,5.02195 3.779651,14.43372 5.496587,19.38332 7.455013,10.18988 8.939928,20.15601 19.032677,20.08159 2.632223,-0.0194 7.352824,-2.73104 7.845464,-8.19155"
       id="path108"
       sodipodi:nodetypes="cscssssscscsssssssscssscccsc" /><path
       style="display:inline;fill:none;stroke:#000000;stroke-width:0.377953;stroke-linejoin:bevel;stroke-opacity:1"
       d="m 170.17726,177.7727 c 0,0 -13.03848,-9.88287 -18.15486,-15.21163 -15.44297,-16.08399 -19.43827,-7.5593 -39.73044,-12.79192 -5.14517,-3.6055 -14.067529,-0.26935 -15.239219,2.4859 -1.178131,2.77039 -3.93774,11.11678 0.2461,16.28506 9.107869,12.18236 19.458939,17.11711 35.071389,17.26888 1.01468,0.01 7.72054,6.79131 8.70498,7.28353 0.98443,0.49222 0.71827,3.85646 3.26184,6.15325"
       id="path109" /><path
       style="display:inline;fill:none;stroke:#000000;stroke-width:0.377953;stroke-linejoin:bevel;stroke-opacity:1"
       d="m 86.915104,148.85259 c 4.703465,16.78973 14.780316,39.81348 17.976496,44.48739 1.76696,0.93591 0.88421,3.86688 10.15571,3.34557 4.4272,-0.24892 9.52674,-2.81306 10.263,-10.04117"
       id="path110" /><path
       style="display:inline;fill:none;stroke:#000000;stroke-width:0.377953;stroke-linejoin:bevel;stroke-opacity:1"
       d="m 108.07941,133.63872 4.42445,15.08669"
       id="path111" /><path
       style="display:inline;fill:none;stroke:#000000;stroke-width:0.377953;stroke-linejoin:bevel;stroke-opacity:1"
       d="m 144.74345,200.44044 c 0,0 6.78431,13.39414 10.77679,15.57186"
       id="path112" /><path
       style="display:inline;fill:none;stroke:#000000;stroke-width:0.377953;stroke-linejoin:bevel;stroke-opacity:1"
       d="m 138.51367,198.51255 c 0,0 7.1159,16.28649 12.3838,21.29678"
       id="path113" /><path
       style="display:inline;fill:none;stroke:#000000;stroke-width:0.377953;stroke-linejoin:bevel;stroke-opacity:1"
       d="m 154.59459,99.078695 c 0,0 6.65625,3.290665 14.20157,1.736925"
       id="path114" /><path
       style="display:inline;fill:none;stroke:#000000;stroke-width:0.377953;stroke-linejoin:bevel;stroke-opacity:1"
       d="m 110.09965,102.0988 c 0,0 8.61745,0.19061 13.4079,-4.200643"
       id="path115" /><path
       style="display:inline;fill:none;stroke:#000000;stroke-width:0.377953;stroke-linejoin:bevel;stroke-opacity:1"
       d="m 154.96557,76.392054 13.03947,0.87097"
       id="path116" /><path
       style="display:inline;fill:none;stroke:#000000;stroke-width:0.377953;stroke-linejoin:bevel;stroke-opacity:1"
       d="m 101.2169,75.3153 c 0,0 5.52861,-1.386414 10.84006,-3.531423"
       id="path117" /><path
       d="m 89.893382,249.68393 c 0,0 -8.432964,-21.52994 -10.913656,-32.68714 -1.538995,-6.92181 -1.144045,-27.04583 -1.123515,-33.61381"
       style="display:inline;fill:none;stroke:#000000;stroke-width:0.377953;stroke-linejoin:bevel;stroke-opacity:1"
       id="path1-9" /></g><g
     inkscape:groupmode="layer"
     id="g127"
     inkscape:label="Layer 1 copy"
     style="display:none"><path
       style="display:inline;fill:none;stroke:#000000;stroke-width:0.377953;stroke-linejoin:bevel;stroke-opacity:1"
       d="m 165.76245,248.9035 c 0,0 -0.0291,-5.26937 2.04847,-13.56486 0.708,-2.82693 1.51927,-3.12732 2.15645,-4.47347 4.56117,-10.30147 7.92053,-20.12811 11.67432,-29.51061 2.46154,-6.15254 -1.4562,-15.58692 -2.68674,-17.06358 -1.23054,-1.47665 -7.38352,-3.41431 -8.86017,-6.61372 -0.69012,-1.49525 -2.79764,-8.87642 -3.14963,-14.80269 -0.40116,-6.75433 1.00876,-13.78003 1.13985,-15.74638 0.10057,-1.50856 1.00708,-12.41055 -1.32148,-17.89046 -0.23844,-5.47198 0.48598,-16.75892 3.8598,-30.158054 -0.51877,-7.17121 -0.47359,-13.588947 -0.19928,-22.560481 0.81936,-14.111999 -0.89503,-32.560118 -12.42102,-31.756812 -1.68829,0.117665 -9.42302,2.260793 -9.06625,8.423209 0.45011,7.774717 0.64847,25.324489 -1.27647,35.052464 -1.51584,7.660544 -0.0299,35.985864 -10.42462,38.600564 -4.0674,1.02311 -6.88386,-10.44157 -9.19548,-25.08211 C 124.78389,81.13278 111.92407,63.034945 107.47507,51.801602 101.89165,37.703931 93.250928,41.159523 91.405731,42.233295 c -10.133888,5.897196 -3.473573,12.237866 4.901879,34.498648 2.84621,7.564852 5.63453,12.182737 8.16345,23.415747 8.94347,22.44428 11.11215,32.64089 9.19967,36.63567 -0.86418,1.80509 -6.59508,-3.87114 -9.23822,-6.52449 -3.03892,-3.05066 -5.295508,-4.54927 -8.594745,-3.69345 -6.785654,1.76019 -14.795186,4.32021 -10.518486,21.70068 1.936215,0.83365 -15.616151,-5.95645 -14.289532,15.89301 1.464852,5.02195 3.228794,13.41071 4.94573,18.36031 7.455013,10.18988 11.694209,22.98898 21.786958,22.91456 2.632225,-0.0194 9.871025,-3.43928 7.137225,-10.94583"
       id="path118"
       sodipodi:nodetypes="cscssssscccsssssssscssscccsc" /><path
       style="display:inline;fill:none;stroke:#000000;stroke-width:0.377953;stroke-linejoin:bevel;stroke-opacity:1"
       d="m 170.17726,177.7727 c 0,0 -13.03848,-9.88287 -18.15486,-15.21163 -15.44297,-16.08399 -19.43827,-7.5593 -39.73044,-12.79192 -5.14517,-3.6055 -13.906721,0.45429 -15.239219,2.4859 -1.651077,2.51734 -4.917963,11.28015 -0.734123,16.44843 9.107872,12.18236 18.151972,16.30026 35.724872,18.2491 1.00855,0.11185 8.04728,5.64772 9.03172,6.13994 0.98443,0.49222 0.71827,3.85646 3.26184,6.15325"
       id="path119" /><path
       style="display:inline;fill:none;stroke:#000000;stroke-width:0.377953;stroke-linejoin:bevel;stroke-opacity:1"
       d="m 86.524377,149.85732 c 4.703465,16.78973 15.171043,38.80875 18.367223,43.48266 1.76696,0.93591 0.88421,3.86688 10.15571,3.34557 4.4272,-0.24892 9.52674,-2.16067 10.263,-9.38878"
       id="path120" /><path
       style="display:inline;fill:none;stroke:#000000;stroke-width:0.377953;stroke-linejoin:bevel;stroke-opacity:1"
       d="m 108.80305,138.86498 3.70081,9.86043"
       id="path121" /><path
       style="display:inline;fill:none;stroke:#000000;stroke-width:0.377953;stroke-linejoin:bevel;stroke-opacity:1"
       d="m 144.2017,201.09054 c 0,0 5.05071,13.39414 11.31854,14.92176"
       id="path122" /><path
       style="display:inline;fill:none;stroke:#000000;stroke-width:0.377953;stroke-linejoin:bevel;stroke-opacity:1"
       d="m 138.51367,198.51255 c 0,0 2.069,6.54837 5.38985,12.48452 2.05136,3.66687 4.98243,6.89911 6.99395,8.81226"
       id="path123" /><path
       style="display:inline;fill:none;stroke:#000000;stroke-width:0.377953;stroke-linejoin:bevel;stroke-opacity:1"
       d="m 152.8041,99.491885 c 0,0 5.55441,2.739745 13.09973,1.186005"
       id="path124" /><path
       style="display:inline;fill:none;stroke:#000000;stroke-width:0.377953;stroke-linejoin:bevel;stroke-opacity:1"
       d="m 110.09965,102.0988 c 0,0 8.61745,0.19061 13.4079,-4.200643"
       id="path125" /><path
       style="display:inline;fill:none;stroke:#000000;stroke-width:0.377953;stroke-linejoin:bevel;stroke-opacity:1"
       d="m 154.96557,76.392054 13.03947,0.87097"
       id="path126" /><path
       style="display:inline;fill:none;stroke:#000000;stroke-width:0.377953;stroke-linejoin:bevel;stroke-opacity:1"
       d="m 101.2169,75.3153 c 0,0 5.52861,-1.386414 10.84006,-3.531423"
       id="path127" /><path
       d="m 89.42122,249.29046 c 0,0 -8.596061,-18.92039 -11.076753,-30.07759 -1.538995,-6.92181 -1.846579,-28.31759 -1.826049,-34.88557"
       style="display:inline;fill:none;stroke:#000000;stroke-width:0.377953;stroke-linejoin:bevel;stroke-opacity:1"
       id="path1-23" /></g><g
     inkscape:groupmode="layer"
     id="g146"
     inkscape:label="Layer 1 copy"
     style="display:none"><path
       style="display:inline;fill:none;stroke:#000000;stroke-width:0.377953;stroke-linejoin:bevel;stroke-opacity:1"
       d="m 165.12658,249.29697 c 0,0 -1.13593,-5.06802 0.94164,-13.36351 0.708,-2.82693 1.61994,-4.4361 2.25712,-5.78225 4.56117,-10.30147 8.22256,-18.31595 11.97635,-27.69845 2.46154,-6.15254 -0.55012,-15.78827 -1.78066,-17.26493 -1.23054,-1.47665 -6.47744,-5.54866 -7.95409,-8.74807 -1.47666,-3.19942 -3.90102,-25.22647 -3.65491,-28.9181 0.10057,-1.50856 -1.85561,-13.59018 -4.18417,-19.07009 -0.87573,-10.6508 -1.912,-19.08814 -2.05754,-19.81583 -0.98245,-15.762587 -3.17895,-21.18706 -4.59742,-35.012058 -2.23024,-13.434311 -6.18213,-29.12454 -17.70812,-28.321234 -1.68829,0.117665 -9.42302,2.260793 -9.06625,8.423209 0.45011,7.774717 4.73421,15.42206 5.16496,25.329297 0.6311,14.515352 3.85922,30.047046 4.70601,40.838666 0,0 0.96914,7.7835 -1.12282,8.355 -2.17288,0.5936 -1.57394,-12.66424 -4.42506,-27.20935 -3.60713,-18.401867 -10.20832,-40.602749 -14.65732,-51.836092 -5.58342,-14.097671 -13.00212,-9.684063 -15.09076,-9.242113 -9.942718,2.103853 -6.139272,13.792857 2.23618,36.053639 2.84621,7.564852 3.28793,15.47805 5.13517,23.415745 5.45797,23.453241 6.09694,35.440081 4.18446,39.434861 -0.86418,1.80509 -4.65615,-6.57503 -7.29929,-9.22838 -3.03892,-3.05066 -6.8244,-6.10084 -10.20937,-5.70165 -7.966434,0.93948 -15.27328,2.57532 -10.433752,22.0463 0,0 -0.907118,0.59361 -4.174561,0.26929 -2.672235,-0.26523 -13.365421,-1.68289 -12.336071,15.27054 1.464852,5.02195 5.013497,16.28449 6.730433,21.23409 7.455013,10.18988 7.706082,18.71652 17.798831,18.6421 2.632223,-0.0194 8.79231,-1.49719 9.28495,-6.9577"
       id="path137"
       sodipodi:nodetypes="cscsssscccssscssssssssscsccsc" /><path
       style="display:inline;fill:none;stroke:#000000;stroke-width:0.377953;stroke-linejoin:bevel;stroke-opacity:1"
       d="m 170.17726,177.7727 c 0,0 -12.74689,-11.63242 -17.86327,-16.96118 -15.44297,-16.08399 -20.01805,-7.48599 -40.31022,-12.71861 -8.1888,-3.84579 -15.630108,1.20125 -16.801798,3.9565 -1.178131,2.77039 -2.086971,11.32242 2.096869,16.4907 9.107869,12.18236 22.149199,12.48389 35.818679,17.86671 0.98444,0.2461 6.97325,6.19348 7.95769,6.6857 0.98443,0.49222 0.71827,3.85646 3.26184,6.15325"
       id="path138" /><path
       style="display:inline;fill:none;stroke:#000000;stroke-width:0.377953;stroke-linejoin:bevel;stroke-opacity:1"
       d="m 89.125082,149.07359 c 0,0 1.054645,6.00752 3.321869,13.30455 3.871137,12.45919 9.996549,29.22664 11.167709,30.24356 1.50979,1.31096 0.9273,3.14567 10.1988,2.62436 4.4272,-0.24892 11.65734,-4.81112 9.55389,-11.88977"
       id="path139" /><path
       style="display:inline;fill:none;stroke:#000000;stroke-width:0.377953;stroke-linejoin:bevel;stroke-opacity:1"
       d="m 108.07941,130.74446 4.58425,16.46187"
       id="path140" /><path
       style="display:inline;fill:none;stroke:#000000;stroke-width:0.377953;stroke-linejoin:bevel;stroke-opacity:1"
       d="m 143.98264,200.94765 c 0,0 3.48745,9.84368 11.5376,15.06465"
       id="path141" /><path
       style="display:inline;fill:none;stroke:#000000;stroke-width:0.377953;stroke-linejoin:bevel;stroke-opacity:1"
       d="m 138.51367,198.51255 c 0,0 0.50392,14.90994 10.5903,23.09028"
       id="path142" /><path
       style="display:inline;fill:none;stroke:#000000;stroke-width:0.377953;stroke-linejoin:bevel;stroke-opacity:1"
       d="m 140.87381,99.078695 c 0,0 6.99509,1.765865 14.54041,0.212125"
       id="path143" /><path
       style="display:inline;fill:none;stroke:#000000;stroke-width:0.377953;stroke-linejoin:bevel;stroke-opacity:1"
       d="m 115.65319,101.43238 c 0,0 7.06246,2.18988 11.85291,-2.201373"
       id="path144" /><path
       style="display:inline;fill:none;stroke:#000000;stroke-width:0.377953;stroke-linejoin:bevel;stroke-opacity:1"
       d="m 138.03864,76.864101 12.87005,-0.82325"
       id="path145" /><path
       style="display:inline;fill:none;stroke:#000000;stroke-width:0.377953;stroke-linejoin:bevel;stroke-opacity:1"
       d="m 107.65901,74.871017 c 0,0 6.63931,0.61286 11.95076,-1.532149"
       id="path146" /><path
       d="m 89.893382,249.68393 c 0,0 -9.399276,-19.96898 -11.879968,-31.12618 -1.538995,-6.92181 -2.036024,-31.65439 -2.015494,-38.22237"
       style="display:inline;fill:none;stroke:#000000;stroke-width:0.377953;stroke-linejoin:bevel;stroke-opacity:1"
       id="path1-8" /></g><g
     inkscape:groupmode="layer"
     id="g156"
     inkscape:label="Layer 1"
     style="display:none"><path
       style="fill:none;stroke:#000000;stroke-width:0.377953;stroke-linejoin:bevel;stroke-opacity:1"
       d="m 166.23461,249.29697 c 0,0 -0.0291,-5.26937 2.04847,-13.56486 0.708,-2.82693 1.51927,-3.12732 2.15645,-4.47347 4.56117,-10.30147 7.92053,-20.12811 11.67432,-29.51061 2.46154,-6.15254 -1.4562,-15.58692 -2.68674,-17.06358 -1.23054,-1.47665 -7.38352,-5.04528 -8.86017,-8.24469 -1.47666,-3.19942 -2.25589,-25.22647 -2.00978,-28.9181 0.24611,-3.69163 -8.66863,-32.40832 -8.91474,-33.63887 -0.98245,-15.762588 -4.8671,-25.45296 -8.94903,-39.277958 -5.25421,-10.096992 -4.78948,-20.895711 -16.83266,-27.627937 -1.47724,-0.825786 -11.19695,1.321898 -11.57304,7.483165 3.61636,17.598917 8.9576,33.906152 12.59229,52.28641 0.17755,0.9233 1.36057,6.42088 1.36057,6.42088 l 1.86175,9.65411 c 0,0 2.19301,8.77251 0.10105,6.68055 -1.59276,-1.59275 -1.73061,-13.91763 -4.58173,-28.46274 C 130.01449,82.637403 123.4133,60.436521 118.9643,49.203178 113.38088,35.105507 106.62032,38.860975 104.53168,39.302925 c -9.942718,2.103853 -6.797412,14.450997 1.57804,36.711779 2.84621,7.564852 3.28793,15.47805 5.13517,23.415745 5.45797,23.453241 6.09694,33.630201 4.18446,37.624981 -0.86418,1.80509 -4.65615,-6.57503 -7.29929,-9.22838 -3.03892,-3.05066 -5.59055,-3.83879 -8.975524,-3.4396 -7.966434,0.93948 -15.067639,4.17956 -10.228111,23.65054 0,0 -2.346605,-1.4628 -5.614048,-1.78712 -2.672235,-0.26523 -12.131575,0.16788 -11.102225,17.12131 1.464852,5.02195 3.779651,14.43372 5.496587,19.38332 7.455013,10.18988 8.939928,20.15601 19.032677,20.08159 2.632223,-0.0194 7.352824,-2.73104 7.845464,-8.19155"
       id="path147"
       sodipodi:nodetypes="cscssssccsccccssssssssscsccsc" /><path
       style="fill:none;stroke:#000000;stroke-width:0.377953;stroke-linejoin:bevel;stroke-opacity:1"
       d="m 170.17726,177.7727 c 0,0 -12.74689,-11.63242 -17.86327,-16.96118 -15.44297,-16.08399 -20.17824,-7.00542 -40.47041,-12.23804 -5.14517,-3.6055 -13.619149,0.92632 -14.790839,3.68157 -1.178131,2.77039 -3.93774,11.11678 0.2461,16.28506 9.107869,12.18236 22.149199,12.48389 35.818679,17.86671 0.98444,0.2461 6.97325,6.19348 7.95769,6.6857 0.98443,0.49222 0.71827,3.85646 3.26184,6.15325"
       id="path148" /><path
       style="fill:none;stroke:#000000;stroke-width:0.377953;stroke-linejoin:bevel;stroke-opacity:1"
       d="m 89.125082,149.07359 c 0,0 1.054645,6.00752 3.321869,13.30455 3.871137,12.45919 9.996549,29.22664 11.167709,30.24356 1.50979,1.31096 2.16115,4.58516 11.43265,4.06385 4.4272,-0.24892 10.42349,-6.25061 8.32004,-13.32926"
       id="path149" /><path
       style="fill:none;stroke:#000000;stroke-width:0.377953;stroke-linejoin:bevel;stroke-opacity:1"
       d="m 108.07941,130.74446 3.06244,9.89404"
       id="path150" /><path
       style="fill:none;stroke:#000000;stroke-width:0.377953;stroke-linejoin:bevel;stroke-opacity:1"
       d="m 144.74345,200.44044 c 0,0 6.78431,13.39414 10.77679,15.57186"
       id="path151" /><path
       style="fill:none;stroke:#000000;stroke-width:0.377953;stroke-linejoin:bevel;stroke-opacity:1"
       d="m 138.51367,198.51255 c 0,0 5.3224,18.07999 10.5903,23.09028"
       id="path152" /><path
       style="fill:none;stroke:#000000;stroke-width:0.377953;stroke-linejoin:bevel;stroke-opacity:1"
       d="m 138.48471,104.71896 c 0,0 7.98409,2.39522 15.16977,-2.39523"
       id="path153" /><path
       style="fill:none;stroke:#000000;stroke-width:0.377953;stroke-linejoin:bevel;stroke-opacity:1"
       d="m 116.55228,104.21955 c 0,0 7.06246,2.18988 11.85291,-2.20137"
       id="path154" /><path
       style="fill:none;stroke:#000000;stroke-width:0.377953;stroke-linejoin:bevel;stroke-opacity:1"
       d="m 132.17339,79.263178 12.87005,-2.860012"
       id="path155" /><path
       d="m 89.893382,249.68393 c 0,0 -8.432964,-21.52994 -10.913656,-32.68714 -1.538995,-6.92181 -1.144045,-27.04583 -1.123515,-33.61381"
       style="fill:none;stroke:#000000;stroke-width:0.377953;stroke-linejoin:bevel;stroke-opacity:1"
       id="path1-4" /><path
       style="fill:none;stroke:#000000;stroke-width:0.377953;stroke-linejoin:bevel;stroke-opacity:1"
       d="m 107.65901,74.871017 c 0,0 6.63931,0.61286 11.95076,-1.532149"
       id="path156" /></g><g
     inkscape:groupmode="layer"
     id="g166"
     inkscape:label="Layer 1 copy"
     style="display:none"><path
       style="display:inline;fill:none;stroke:#000000;stroke-width:0.377953;stroke-linejoin:bevel;stroke-opacity:1"
       d="m 166.23461,249.29697 c 0,0 -0.0291,-5.26937 2.04847,-13.56486 0.708,-2.82693 1.51927,-3.12732 2.15645,-4.47347 4.56117,-10.30147 6.73519,-20.46678 10.48898,-29.84928 2.46154,-6.15254 -1.79487,-18.12694 -3.02541,-19.6036 -1.23054,-1.47665 -7.72219,-5.21462 -9.19884,-8.41403 -0.72823,-1.57781 -3.03518,-6.65458 -2.92563,-12.1816 0.11259,-5.68043 0.96044,-12.49473 1.08518,-14.36581 0.10057,-1.50856 -0.0616,-12.35122 -2.39016,-17.83113 -0.87573,-10.6508 -1.87656,-19.8554 -2.0221,-20.58309 0.84282,-13.796917 -0.86159,-19.371728 -2.28006,-33.196726 -2.23024,-13.434311 -5.06319,-31.080278 -16.58918,-30.276972 -1.68829,0.117665 -9.42302,2.260793 -9.06625,8.423209 0.45011,7.774717 3.61527,17.377798 4.04602,27.285035 0.6311,14.515352 1.54186,28.231714 2.38865,39.023334 0,0 -0.81209,7.98914 -2.90405,8.56064 -2.17288,0.5936 -2.69718,-22.7734 -4.28465,-37.458919 -3.41938,-16.537384 -8.38306,-30.774395 -12.83206,-42.007738 -5.58342,-14.097671 -13.00212,-9.684063 -15.09076,-9.242113 -9.942717,2.103853 -6.560487,13.652452 1.81497,35.913234 2.84621,7.564852 2.5859,16.741695 4.43314,24.679386 5.45797,23.45325 4.83329,29.54307 2.92081,33.53785 -0.86418,1.80509 -5.68753,-2.55166 -7.5801,-5.78348 -2.83918,-4.84829 -8.117836,-5.31802 -11.50281,-4.91883 -7.966434,0.93948 -13.54787,8.22928 -9.030813,22.19129 0,0 -1.499931,-0.61613 -4.767374,-0.94045 -5.212258,-0.26523 -10.946231,2.1999 -9.916881,19.15333 1.464852,5.02195 3.779651,14.43372 5.496587,19.38332 7.455013,10.18988 8.378308,16.92669 18.471057,16.85227 2.632223,-0.0194 6.510394,-1.18658 8.407084,-4.96223"
       id="path157"
       sodipodi:nodetypes="cscssssscccssscscsssssssccccsc" /><path
       style="display:inline;fill:none;stroke:#000000;stroke-width:0.377953;stroke-linejoin:bevel;stroke-opacity:1"
       d="m 170.17726,177.7727 c 0,0 -12.74885,-11.63054 -17.86327,-16.96118 -15.16216,-15.80318 -20.45905,-10.09433 -40.75122,-15.32695 -10.53807,-3.00629 -14.882795,3.87482 -16.054485,6.63007 -1.178131,2.77039 -0.848828,10.83597 3.335012,16.00425 9.107873,12.18236 20.885553,10.65863 34.555033,16.04145 0.98444,0.2461 6.69244,8.43996 7.67688,8.93218 0.98443,0.49222 0.71827,3.85646 3.26184,6.15325"
       id="path158" /><path
       style="display:inline;fill:none;stroke:#000000;stroke-width:0.377953;stroke-linejoin:bevel;stroke-opacity:1"
       d="m 89.125082,149.07359 c 0,0 1.054645,6.00752 3.321869,13.30455 3.871137,12.45919 11.400599,27.68218 12.571759,28.6991 1.50979,1.31096 2.56195,3.81413 11.71346,2.23859 4.70801,-0.81054 5.79012,-4.98697 6.63518,-9.95954"
       id="path159" /><path
       style="display:inline;fill:none;stroke:#000000;stroke-width:0.377953;stroke-linejoin:bevel;stroke-opacity:1"
       d="m 108.07941,130.74446 4.86007,14.48799"
       id="path160" /><path
       style="display:inline;fill:none;stroke:#000000;stroke-width:0.377953;stroke-linejoin:bevel;stroke-opacity:1"
       d="m 144.74345,200.44044 c 0,0 8.30832,12.54747 12.3008,14.72519"
       id="path161" /><path
       style="display:inline;fill:none;stroke:#000000;stroke-width:0.377953;stroke-linejoin:bevel;stroke-opacity:1"
       d="m 138.51367,198.51255 c 0,0 4.13706,18.07999 11.94498,23.09028"
       id="path162" /><path
       style="display:inline;fill:none;stroke:#000000;stroke-width:0.377953;stroke-linejoin:bevel;stroke-opacity:1"
       d="m 146.63176,99.078695 c 0,0 6.99509,1.765865 14.54041,0.212125"
       id="path163" /><path
       style="display:inline;fill:none;stroke:#000000;stroke-width:0.377953;stroke-linejoin:bevel;stroke-opacity:1"
       d="m 115.65319,101.43238 c 0,0 7.90489,0.92623 13.11656,-2.201373"
       id="path164" /><path
       style="display:inline;fill:none;stroke:#000000;stroke-width:0.377953;stroke-linejoin:bevel;stroke-opacity:1"
       d="m 145.64736,77.069742 12.87005,-0.82325"
       id="path165" /><path
       style="display:inline;fill:none;stroke:#000000;stroke-width:0.377953;stroke-linejoin:bevel;stroke-opacity:1"
       d="m 88.708038,249.68393 c 0,0 -8.37086,-22.23197 -10.851552,-33.38917 -1.538995,-6.92181 -2.447355,-28.4739 -2.426825,-35.04188"
       id="path166"
       sodipodi:nodetypes="csc" /><path
       d="m 110.32671,72.484131 c 0,0 6.63931,0.61286 11.95076,-1.532149"
       style="display:inline;fill:none;stroke:#000000;stroke-width:0.377953;stroke-linejoin:bevel;stroke-opacity:1"
       id="path1-70" /></g><g
     inkscape:groupmode="layer"
     id="g185"
     inkscape:label="Layer 1 copy"
     style="display:none"><path
       style="display:inline;fill:none;stroke:#000000;stroke-width:0.377953;stroke-linejoin:bevel;stroke-opacity:1"
       d="m 166.23461,249.29697 c 0,0 -1.53179,-5.26937 0.54578,-13.56486 0.708,-2.82693 1.51927,-3.55666 2.15645,-4.90281 4.56117,-10.30147 8.88189,-20.68145 12.63568,-30.06395 2.46154,-6.15254 -2.43888,-17.48293 -3.66942,-18.95959 -1.23054,-1.47665 -7.72219,-5.21462 -9.19884,-8.41403 -0.72823,-1.57781 -1.66802,-6.31279 -1.55847,-11.83981 0.11259,-5.68043 0.96044,-12.49473 1.08518,-14.36581 0.10057,-1.50856 1.81824,-12.69301 -0.51032,-18.17292 -0.87573,-10.6508 4.95924,-28.74194 4.8137,-29.469629 0.33014,-11.062597 -0.69069,-15.441144 0.45426,-26.019137 -0.52129,-13.434311 -0.27813,-30.738488 -11.80412,-29.935182 -1.68829,0.117665 -9.42302,2.260793 -9.06625,8.423209 0.45011,7.774717 -1.34068,13.276318 -0.90993,23.183555 0.6311,14.515352 -5.46484,28.060824 -4.61805,38.852444 0,0 -4.36054,11.51451 -8.54358,11.97854 -5.1224,0.56822 -8.90396,-19.31041 -10.49143,-33.995932 C 122.25603,76.006359 113.52551,60.319241 109.07651,49.085898 103.49309,34.988227 95.981195,39.084874 93.985752,39.843785 82.16319,44.340168 89.996647,53.3189 98.372104,75.579682 c 2.846206,7.564852 5.838526,17.235775 7.685766,25.173468 5.45797,23.45325 10.86274,28.92239 8.95026,32.91717 -0.86418,1.80509 -5.68753,-2.55166 -7.5801,-5.78348 -2.83918,-4.84829 -8.117836,-5.31802 -11.50281,-4.91883 -7.966434,0.93948 -13.54787,8.22928 -9.030813,22.19129 0,0 -1.499931,-0.61613 -4.767374,-0.94045 -5.212258,-0.26523 -10.946231,2.1999 -9.916881,19.15333 1.464852,5.02195 3.779651,14.43372 5.496587,19.38332 7.455013,10.18988 8.378308,16.92669 18.471057,16.85227 2.632223,-0.0194 6.510394,-1.18658 8.407084,-4.96223"
       id="path176"
       sodipodi:nodetypes="cscssssscccssscscsssssssccccsc" /><path
       style="display:inline;fill:none;stroke:#000000;stroke-width:0.377953;stroke-linejoin:bevel;stroke-opacity:1"
       d="m 170.17726,177.7727 c 0,0 -12.74885,-11.63054 -17.86327,-16.96118 -15.16216,-15.80318 -20.45905,-10.09433 -40.75122,-15.32695 -10.53807,-3.00629 -14.882795,3.87482 -16.054485,6.63007 -1.178131,2.77039 -0.848828,10.83597 3.335012,16.00425 9.107873,12.18236 20.885553,10.65863 34.555033,16.04145 0.98444,0.2461 6.69244,8.43996 7.67688,8.93218 0.98443,0.49222 0.71827,3.85646 3.26184,6.15325"
       id="path177" /><path
       style="display:inline;fill:none;stroke:#000000;stroke-width:0.377953;stroke-linejoin:bevel;stroke-opacity:1"
       d="m 89.125082,149.07359 c 0,0 1.054645,6.00752 3.321869,13.30455 3.871137,12.45919 11.400599,27.68218 12.571759,28.6991 1.50979,1.31096 2.56195,3.81413 11.71346,2.23859 4.70801,-0.81054 5.79012,-4.98697 6.63518,-9.95954"
       id="path178" /><path
       style="display:inline;fill:none;stroke:#000000;stroke-width:0.377953;stroke-linejoin:bevel;stroke-opacity:1"
       d="m 108.07941,130.74446 4.86007,14.48799"
       id="path179" /><path
       style="display:inline;fill:none;stroke:#000000;stroke-width:0.377953;stroke-linejoin:bevel;stroke-opacity:1"
       d="m 144.74345,200.44044 c 0,0 8.30832,12.54747 12.3008,14.72519"
       id="path180" /><path
       style="display:inline;fill:none;stroke:#000000;stroke-width:0.377953;stroke-linejoin:bevel;stroke-opacity:1"
       d="m 138.51367,198.51255 c 0,0 4.13706,18.07999 11.94498,23.09028"
       id="path181" /><path
       style="display:inline;fill:none;stroke:#000000;stroke-width:0.377953;stroke-linejoin:bevel;stroke-opacity:1"
       d="m 153.12577,99.420485 c 0,0 6.31151,3.133025 13.85683,1.579285"
       id="path182" /><path
       style="display:inline;fill:none;stroke:#000000;stroke-width:0.377953;stroke-linejoin:bevel;stroke-opacity:1"
       d="m 110.86813,100.9197 c 0,0 7.22131,-0.78272 12.43298,-3.910328"
       id="path183" /><path
       style="display:inline;fill:none;stroke:#000000;stroke-width:0.377953;stroke-linejoin:bevel;stroke-opacity:1"
       d="m 88.708038,249.68393 c 0,0 -8.37086,-22.23197 -10.851552,-33.38917 -1.538995,-6.92181 -1.877941,-28.72466 -1.857411,-35.29264"
       id="path184"
       sodipodi:nodetypes="csc" /><path
       style="display:inline;fill:none;stroke:#000000;stroke-width:0.377953;stroke-linejoin:bevel;stroke-opacity:1"
       d="m 102.12047,73.69987 c 0,0 6.28464,-2.04719 11.59609,-4.192199"
       id="path185" /><path
       d="m 155.21748,74.335422 12.01558,0.20212"
       style="display:inline;fill:none;stroke:#000000;stroke-width:0.377953;stroke-linejoin:bevel;stroke-opacity:1"
       id="path1-90" /></g><g
     inkscape:groupmode="layer"
     id="g195"
     inkscape:label="Layer 1 copy"
     style="display:none"
     clip-path="url(#clipPath7)"><path
       style="display:inline;fill:none;stroke:#000000;stroke-width:0.377953;stroke-linejoin:bevel;stroke-opacity:1"
       d="m 165.59105,252.83657 c 0,0 -1.53179,-5.26937 0.54578,-13.56486 0.708,-2.82693 1.51927,-3.55666 2.15645,-4.90281 4.56117,-10.30147 9.04761,-18.52711 12.8014,-27.90961 2.46154,-6.15254 -2.6046,-19.63727 -3.83514,-21.11393 -1.23054,-1.47665 -7.72219,-5.21462 -9.19884,-8.41403 -0.72823,-1.57781 -1.66802,-6.31279 -1.55847,-11.83981 0.11259,-5.68043 0.96044,-12.49473 1.08518,-14.36581 0.10057,-1.50856 1.81824,-12.69301 -0.51032,-18.17292 -0.87573,-10.6508 4.95924,-28.74194 4.8137,-29.46963 0.33014,-11.062599 -0.69069,-15.441146 0.45426,-26.019139 -0.52129,-13.434311 -0.27813,-30.738488 -11.80412,-29.935182 -1.68829,0.117665 -9.42302,2.260793 -9.06625,8.423209 0.45011,7.774717 -1.34068,13.276318 -0.90993,23.183555 0.6311,14.515352 -5.46484,28.060827 -4.61805,38.852447 0,0 -4.36054,11.51451 -8.54358,11.97854 -5.1224,0.56822 -8.90396,-19.31041 -10.49143,-33.995935 -5.29922,-16.024699 -14.02974,-31.711817 -18.47874,-42.94516 -5.58342,-14.097671 -13.095318,-10.001024 -15.090761,-9.242113 -11.822562,4.496383 -3.989105,13.475115 4.386352,35.735897 2.846209,7.564852 5.838529,17.235775 7.685769,25.173471 5.45797,23.45325 10.86274,28.92239 8.95026,32.91717 -0.86418,1.80509 -6.33959,-2.55166 -8.23216,-5.78348 -2.83918,-4.84829 -9.030735,-6.1005 -12.415709,-5.70131 -7.966434,0.93948 -13.678283,9.01176 -9.161226,22.97377 0,0 -2.282408,-0.48572 -5.549851,-0.81004 -5.212258,-0.26523 -11.33747,1.80866 -10.30812,18.76209 1.464852,5.02195 5.214193,14.69455 6.931129,19.64415 7.455013,10.18988 9.481415,18.25244 19.574164,18.17802 2.632223,-0.0194 6.841833,-2.51233 8.738523,-6.28798"
       id="path186"
       sodipodi:nodetypes="cscssssscccssscscsssssssccccsc" /><path
       style="display:inline;fill:none;stroke:#000000;stroke-width:0.377953;stroke-linejoin:bevel;stroke-opacity:1"
       d="m 169.5337,181.3123 c 0,0 -12.74885,-11.63054 -17.86327,-16.96118 -15.16216,-15.80318 -20.62477,-9.26574 -40.91694,-14.49836 -10.53807,-3.00629 -14.717078,3.04623 -15.888768,5.80148 -1.178131,2.77039 -0.848828,10.83597 3.335012,16.00425 9.107876,12.18236 19.394096,16.12733 34.555036,16.04145 1.01472,-0.006 6.69244,8.43996 7.67688,8.93218 0.98443,0.49222 0.71827,3.85646 3.26184,6.15325"
       id="path187" /><path
       style="display:inline;fill:none;stroke:#000000;stroke-width:0.377953;stroke-linejoin:bevel;stroke-opacity:1"
       d="m 85.87326,151.7003 c 0,0 2.489187,7.70289 4.756411,14.99992 3.871137,12.45919 12.574319,26.8997 13.745479,27.91662 1.50979,1.31096 2.56195,3.81413 11.71346,2.23859 4.70801,-0.81054 5.79012,-4.98697 6.63518,-9.95954"
       id="path188" /><path
       style="display:inline;fill:none;stroke:#000000;stroke-width:0.377953;stroke-linejoin:bevel;stroke-opacity:1"
       d="m 108.59588,137.92986 3.70004,10.84219"
       id="path189" /><path
       style="display:inline;fill:none;stroke:#000000;stroke-width:0.377953;stroke-linejoin:bevel;stroke-opacity:1"
       d="m 144.09989,203.98004 c 0,0 8.30832,12.54747 12.3008,14.72519"
       id="path190" /><path
       style="display:inline;fill:none;stroke:#000000;stroke-width:0.377953;stroke-linejoin:bevel;stroke-opacity:1"
       d="m 137.87011,202.05215 c 0,0 4.13706,18.07999 11.94498,23.09028"
       id="path191" /><path
       style="display:inline;fill:none;stroke:#000000;stroke-width:0.377953;stroke-linejoin:bevel;stroke-opacity:1"
       d="m 152.48221,102.96008 c 0,0 6.31151,3.13303 13.85683,1.57929"
       id="path192" /><path
       style="display:inline;fill:none;stroke:#000000;stroke-width:0.377953;stroke-linejoin:bevel;stroke-opacity:1"
       d="m 110.22457,104.4593 c 0,0 7.22131,-0.78272 12.43298,-3.91033"
       id="path193"
       sodipodi:nodetypes="cc" /><path
       style="display:inline;fill:none;stroke:#000000;stroke-width:0.377953;stroke-linejoin:bevel;stroke-opacity:1"
       d="m 154.57392,77.875019 12.01558,0.20212"
       id="path194" /><path
       style="display:inline;fill:none;stroke:#000000;stroke-width:0.377953;stroke-linejoin:bevel;stroke-opacity:1"
       d="m 101.47691,77.239467 c 0,0 6.28464,-2.04719 11.59609,-4.192199"
       id="path195" /><path
       d="m 88.064475,253.22353 c 0,0 -10.028042,-22.23197 -12.508734,-33.38917 -1.538995,-6.92181 -1.222201,-27.40605 -1.201671,-33.97403"
       style="display:inline;fill:none;stroke:#000000;stroke-width:0.377953;stroke-linejoin:bevel;stroke-opacity:1"
       id="path1-52" /></g><g
     inkscape:groupmode="layer"
     id="g205"
     inkscape:label="Layer 1 copy"
     style="display:none"><path
       style="display:inline;fill:none;stroke:#000000;stroke-width:0.377953;stroke-linejoin:bevel;stroke-opacity:1"
       d="m 162.64964,249.61221 c 0.16371,-1.04074 0.38451,-2.14757 0.6767,-3.31427 0.70799,-2.82693 1.51927,-3.55666 2.15645,-4.90281 4.56117,-10.30147 9.04761,-18.52711 12.8014,-27.90961 2.46154,-6.15254 -2.6046,-19.63727 -3.83514,-21.11393 -1.23054,-1.47665 -7.72219,-5.21462 -9.19884,-8.41403 -0.72823,-1.57781 -1.66802,-6.31279 -1.55847,-11.83981 0.11259,-5.68043 0.96044,-12.49473 1.08518,-14.36581 0.10057,-1.50856 1.81824,-12.69301 -0.51032,-18.17292 -0.87573,-10.6508 2.97424,-28.57652 2.8287,-29.30421 0.33014,-11.0626 -1.51777,-15.771981 -0.37282,-26.349974 -0.52129,-13.434311 -0.27813,-30.738488 -11.80412,-29.935182 -1.68829,0.117665 -9.42302,2.260793 -9.06625,8.423209 0.45011,7.774717 -1.34068,13.276318 -0.90993,23.183555 0.6311,14.515352 -2.81818,28.722492 -3.1293,39.514112 0,0 -3.03721,11.01826 -7.22025,11.48229 -5.1224,0.56822 -8.90396,-19.31041 -10.49143,-33.99593 C 118.80198,86.572188 111.72563,73.697155 107.27663,62.463812 101.69321,48.366141 94.181307,52.462788 92.185864,53.221699 c -11.822562,4.496383 -3.658272,17.114284 2.732184,32.923812 3.029002,7.493533 4.832857,17.539329 7.685772,25.173469 8.27005,22.12992 10.86274,28.92239 8.95026,32.91717 -0.86418,1.80509 -6.33959,-2.55166 -8.23216,-5.78348 -2.83918,-4.84829 -9.030738,-6.1005 -12.415712,-5.70131 -7.966434,0.93948 -13.678283,9.01176 -9.161226,22.97377 0,0 -2.282408,-0.48572 -5.549851,-0.81004 -5.212258,-0.26523 -11.33747,1.80866 -10.30812,18.76209 1.464852,5.02195 5.214193,14.69455 6.931129,19.64415 7.455013,10.18988 9.481415,18.25244 19.574164,18.17802 2.632223,-0.0194 6.841833,-2.51233 8.738526,-6.28798"
       id="path196"
       sodipodi:nodetypes="cscssssscccssscscsssssssccccsc" /><path
       style="display:inline;fill:none;stroke:#000000;stroke-width:0.377953;stroke-linejoin:bevel;stroke-opacity:1"
       d="m 166.72321,188.33853 c 0,0 -12.74885,-11.63054 -17.86327,-16.96118 -15.16216,-15.80318 -20.62477,-9.26574 -40.91694,-14.49836 -10.538073,-3.00629 -14.717081,3.04623 -15.888771,5.80148 -1.178131,2.77039 -0.848828,10.83597 3.335012,16.00425 9.107879,12.18236 19.394099,16.12733 34.555039,16.04145 1.01472,-0.006 6.69244,8.43996 7.67688,8.93218 0.98443,0.49222 0.71827,3.85646 3.26184,6.15325"
       id="path197" /><path
       style="display:inline;fill:none;stroke:#000000;stroke-width:0.377953;stroke-linejoin:bevel;stroke-opacity:1"
       d="m 83.062767,158.72653 c 0,0 2.489187,7.70289 4.756411,14.99992 3.871137,12.45919 12.574322,26.8997 13.745482,27.91662 1.50979,1.31096 2.56195,3.81413 11.71346,2.23859 4.70801,-0.81054 5.79012,-4.98697 6.63518,-9.95954"
       id="path198" /><path
       style="display:inline;fill:none;stroke:#000000;stroke-width:0.377953;stroke-linejoin:bevel;stroke-opacity:1"
       d="m 105.78539,144.95609 3.70004,10.84219"
       id="path199" /><path
       style="display:inline;fill:none;stroke:#000000;stroke-width:0.377953;stroke-linejoin:bevel;stroke-opacity:1"
       d="m 141.2894,211.00627 c 0,0 8.30832,12.54747 12.3008,14.72519"
       id="path200" /><path
       style="display:inline;fill:none;stroke:#000000;stroke-width:0.377953;stroke-linejoin:bevel;stroke-opacity:1"
       d="m 135.05962,209.07838 c 0,0 4.13706,18.07999 11.94498,23.09028"
       id="path201" /><path
       style="display:inline;fill:none;stroke:#000000;stroke-width:0.377953;stroke-linejoin:bevel;stroke-opacity:1"
       d="m 149.67172,109.98631 c 0,0 6.31151,3.13303 13.85683,1.57929"
       id="path202" /><path
       style="display:inline;fill:none;stroke:#000000;stroke-width:0.377953;stroke-linejoin:bevel;stroke-opacity:1"
       d="m 107.41408,111.48553 c 0,0 7.22131,-0.78272 12.43298,-3.91033"
       id="path203" /><path
       style="display:inline;fill:none;stroke:#000000;stroke-width:0.377953;stroke-linejoin:bevel;stroke-opacity:1"
       d="m 151.76343,84.901251 12.01558,0.20212"
       id="path204" /><path
       style="display:inline;fill:none;stroke:#000000;stroke-width:0.377953;stroke-linejoin:bevel;stroke-opacity:1"
       d="m 98.666417,84.265699 c 0,0 6.284643,-2.04719 11.596093,-4.192199"
       id="path205" /><path
       d="m 80.878907,250.05864 c -3.027848,-7.33102 -6.751772,-16.98285 -8.133659,-23.19805 -1.538995,-6.92181 -1.222201,-27.40605 -1.201671,-33.97403"
       style="display:inline;fill:none;stroke:#000000;stroke-width:0.377953;stroke-linejoin:bevel;stroke-opacity:1"
       id="path1-24"
       sodipodi:nodetypes="csc" /></g><g
     inkscape:groupmode="layer"
     id="g215"
     inkscape:label="Layer 1 copy"
     style="display:none"
     clip-path="url(#clipPath6)"><path
       style="display:inline;fill:none;stroke:#000000;stroke-width:0.377953;stroke-linejoin:bevel;stroke-opacity:1"
       d="m 158.88538,266.35477 c 0,0 -1.53179,-5.26937 0.54578,-13.56486 0.708,-2.82693 1.51927,-3.55666 2.15645,-4.90281 4.56117,-10.30147 9.04761,-18.52711 12.8014,-27.90961 2.46154,-6.15254 -2.40342,-17.2231 -3.63396,-18.69976 -1.23054,-1.47665 -7.92337,-7.62879 -9.40002,-10.8282 -0.72823,-1.57781 -2.8751,-5.50807 -2.76555,-11.03509 0.11259,-5.68043 0.75926,-11.69 0.884,-13.56108 0.10057,-1.50856 0.81233,-13.29656 -1.51623,-18.77647 -0.87573,-10.6508 1.16362,-19.32221 1.01808,-20.0499 0.33014,-11.0626 -3.73076,-15.16843 -2.58581,-25.74643 -3.3097,-31.889444 -26.325,-25.142056 -25.49753,-10.849393 0.45011,7.774717 2.79739,6.691562 3.91841,16.544593 1.03346,9.08347 0.80307,15.24338 0.49195,26.035 0,0 0.0135,7.06448 -1.51943,10.79659 -0.85153,2.07319 -2.59752,1.72708 -4.09137,1.89279 -3.14756,0.34915 -6.06436,-23.00655 -7.59631,-36.29846 -0.43751,-3.79601 -3.08783,-5.91722 -4.10221,-8.15887 -4.96631,-16.841441 -11.73435,-16.148573 -16.82679,-14.168568 -10.90325,4.239317 -8.065679,16.909008 -2.382502,23.242428 1.726582,1.92413 3.827712,13.25741 4.753232,15.94387 7.69517,22.33633 6.03441,20.4728 4.12193,24.46758 -0.86418,1.80509 -6.33959,-2.55166 -8.232163,-5.78348 -2.83918,-4.84829 -6.415389,-5.0946 -9.800363,-4.69541 -7.966434,0.93948 -16.293632,8.00586 -11.776575,21.96787 -10.453832,-2.16694 -16.783606,3.81934 -15.053248,17.95205 1.464852,5.02195 6.018915,14.69455 7.735851,19.64415 7.455013,10.18988 14.309752,16.84418 21.585971,16.97094 2.631895,0.0459 4.830026,-2.31115 6.726719,-6.0868"
       id="path206"
       sodipodi:nodetypes="cscssssscccsscssscssssssccccc" /><path
       style="display:inline;fill:none;stroke:#000000;stroke-width:0.377953;stroke-linejoin:bevel;stroke-opacity:1"
       d="m 162.82803,194.8305 c 0,0 -12.74885,-11.63054 -17.86327,-16.96118 -15.16216,-15.80318 -20.62477,-9.26574 -40.91694,-14.49836 -10.538076,-3.00629 -14.113542,4.45449 -15.285232,7.20974 -1.178131,2.77039 -1.45237,9.42771 2.73147,14.59599 9.107882,12.18236 19.796462,12.10372 34.555042,16.04145 0.98044,0.26159 6.69244,8.43996 7.67688,8.93218 0.98443,0.49222 0.71827,3.85646 3.26184,6.15325"
       id="path207" /><path
       style="display:inline;fill:none;stroke:#000000;stroke-width:0.377953;stroke-linejoin:bevel;stroke-opacity:1"
       d="m 79.167584,165.2185 c 0,0 2.489187,7.70289 4.756411,14.99992 3.871137,12.45919 12.574322,26.8997 13.745482,27.91662 1.50979,1.31096 2.561953,3.81413 11.713463,2.23859 4.70801,-0.81054 5.79012,-4.98697 6.63518,-9.95954"
       id="path208" /><path
       style="display:inline;fill:none;stroke:#000000;stroke-width:0.377953;stroke-linejoin:bevel;stroke-opacity:1"
       d="m 101.89021,151.44806 3.70004,10.84219"
       id="path209" /><path
       style="display:inline;fill:none;stroke:#000000;stroke-width:0.377953;stroke-linejoin:bevel;stroke-opacity:1"
       d="m 137.39422,217.49824 c 0,0 8.30832,12.54747 12.3008,14.72519"
       id="path210" /><path
       style="display:inline;fill:none;stroke:#000000;stroke-width:0.377953;stroke-linejoin:bevel;stroke-opacity:1"
       d="m 131.16444,215.57035 c 0,0 4.13706,18.07999 11.94498,23.09028"
       id="path211" /><path
       style="display:inline;fill:none;stroke:#000000;stroke-width:0.377953;stroke-linejoin:bevel;stroke-opacity:1"
       d="m 140.74702,123.5196 c 0,0 5.30561,2.52949 12.85093,0.97575"
       id="path212" /><path
       style="display:inline;fill:none;stroke:#000000;stroke-width:0.377953;stroke-linejoin:bevel;stroke-opacity:1"
       d="m 106.33543,125.22 c 0,0 7.22131,-0.78272 12.43298,-3.91033"
       id="path213" /><path
       style="display:inline;fill:none;stroke:#000000;stroke-width:0.377953;stroke-linejoin:bevel;stroke-opacity:1"
       d="m 102.01374,111.07692 c 0,0 7.29054,1.1717 12.60199,-2.98512"
       id="path215" /><path
       style="display:inline;fill:none;stroke:#000000;stroke-width:0.377953;stroke-linejoin:bevel;stroke-opacity:1"
       d="m 139.61939,107.43048 c 0,0 3.21889,3.01771 11.86966,-1.20708"
       id="path216" /><path
       d="m 72.104488,251.25082 c 0,0 -1.980815,-6.74106 -4.461507,-17.89826 -1.538995,-6.92181 -0.81984,-31.63084 -0.79931,-38.19882"
       style="display:inline;fill:none;stroke:#000000;stroke-width:0.377953;stroke-linejoin:bevel;stroke-opacity:1"
       id="path1-00" /></g><g
     inkscape:groupmode="layer"
     id="g276"
     inkscape:label="Layer 1"
     style="display:none"><path
       style="display:inline;fill:none;stroke:#000000;stroke-width:0.377953;stroke-linejoin:bevel;stroke-opacity:1"
       d="m 74.140256,190.97531 c -1.02935,-16.95343 8.271867,-15.60354 10.944102,-15.33831 3.267443,0.32432 6.468046,2.29952 6.468046,2.29952 -10.762348,-26.44462 0.519859,-26.72558 8.121584,-29.28692 6.329102,-0.74639 9.175912,4.45676 12.305432,8.85991 0,0 -6.50793,-18.67395 -5.5235,-25.81109 0.98444,-7.13715 8.42122,-9.58948 12.90675,-9.56913 2.22878,0.0101 8.30707,1.2184 9.62855,5.27496 0.48212,1.47998 3.90743,25.18309 8.33738,29.61304 1.98386,2.19474 0.49293,-9.17224 0.49293,-9.17224 m -5.16899,-4.36373 c 0,0 -2.17199,-13.21427 -1.43366,-14.93703 0.73832,-1.72276 2.13793,-6.87636 7.58637,-8.08614 2.41456,-0.53613 12.96944,-2.1257 16.60345,5.96962 3.03145,6.75301 3.33135,12.62359 3.57746,13.85413 0.24611,1.23055 10.33656,27.81028 10.09045,31.50191 -0.24611,3.69163 -0.49222,28.7947 0.98444,31.99412 1.47665,3.19941 10.09045,7.38325 11.32099,8.8599 1.23054,1.47666 5.6605,11.321 3.19941,17.47372 -2.46108,6.15271 -6.39882,9.10601 -6.39882,11.07488 0,1.96887 -3.44552,9.10602 -3.44552,9.10602"
       id="path266"
       sodipodi:nodetypes="cscccssscccsssssssssc" /><path
       style="display:inline;fill:none;stroke:#000000;stroke-width:0.377953;stroke-linejoin:bevel;stroke-opacity:1"
       d="m 169.56883,203.77793 c 0,0 -13.04376,-12.30544 -16.73539,-18.70426 -3.69163,-6.39882 -14.44675,-9.09635 -30.27135,-20.67312 -5.14517,-3.6055 -13.78209,2.6653 -14.2743,5.6186 -0.49222,2.9533 -3.93774,11.11678 0.2461,16.28506 9.10787,12.18236 11.4336,18.98194 25.10308,24.36476 0.98444,0.2461 8.6138,3.93773 9.59824,4.42995 0.98443,0.49222 4.92217,10.82878 11.5671,11.07489"
       id="path267" /><path
       style="display:inline;fill:none;stroke:#000000;stroke-width:0.377953;stroke-linejoin:bevel;stroke-opacity:1"
       d="m 90.695357,176.67927 c 0,0 12.983983,34.66563 14.841053,36.27814 1.50979,1.31096 2.29895,4.06432 11.54305,4.94702 2.35572,-1.41344 7.53832,-5.41817 7.53832,-8.00946 0,-2.5913 -0.94229,-4.00473 -0.94229,-4.00473"
       id="path268" /><path
       style="display:inline;fill:none;stroke:#000000;stroke-width:0.377953;stroke-linejoin:bevel;stroke-opacity:1"
       d="m 108.59886,155.00661 3.06244,9.89404"
       id="path269" /><path
       style="display:inline;fill:none;stroke:#000000;stroke-width:0.377953;stroke-linejoin:bevel;stroke-opacity:1"
       d="m 127.37141,129.30568 c 3.71457,18.09114 5.28694,27.55472 3.86854,30.36798 -0.4354,0.86358 -4.93238,4.06195 -6.57651,4.25538 -1.64412,0.19343 -2.2244,0.29014 -2.2244,0.29014"
       id="path270" /><path
       style="display:inline;fill:none;stroke:#000000;stroke-width:0.377953;stroke-linejoin:bevel;stroke-opacity:1"
       d="m 111.90269,157.29984 c 0,0 1.81852,5.78027 3.1725,6.26384"
       id="path271" /><path
       style="display:inline;fill:none;stroke:#000000;stroke-width:0.377953;stroke-linejoin:bevel;stroke-opacity:1"
       d="m 74.289657,191.72229 4.910729,14.1567 c 7.455013,10.18988 18.482974,22.97743 24.789514,19.53749 2.31088,-1.26048 7.35282,-2.73104 5.88225,-9.45362"
       id="path272" /><path
       style="display:inline;fill:none;stroke:#000000;stroke-width:0.377953;stroke-linejoin:bevel;stroke-opacity:1"
       d="m 153.2845,127.98954 c 0,0 -0.0636,18.75694 -9.30711,19.80734 -9.24355,1.05041 -11.34552,-4.42101 -11.34552,-4.42101"
       id="path273" /><path
       style="display:inline;fill:none;stroke:#000000;stroke-width:0.377953;stroke-linejoin:bevel;stroke-opacity:1"
       d="m 146.39078,220.19109 c 0,0 4.35542,17.90564 8.3479,20.08336"
       id="path274" /><path
       style="display:inline;fill:none;stroke:#000000;stroke-width:0.377953;stroke-linejoin:bevel;stroke-opacity:1"
       d="m 142.51928,225.03045 c 0,0 3.33896,16.23438 7.06884,21.14213"
       id="path275" /><path
       style="display:inline;fill:none;stroke:#000000;stroke-width:0.377953;stroke-linejoin:bevel;stroke-opacity:1"
       d="m 152.35519,138.09297 c 0,0 2.50552,-2.50553 2.89099,-4.91469"
       id="path276"
       inkscape:label="path276" /><path
       d="m 83.923034,249.80023 c 0,0 -2.222892,-9.3602 -3.178783,-20.74981 -0.557386,-6.64135 -0.08588,-13.97273 -0.06535,-20.54071"
       style="display:inline;fill:none;stroke:#000000;stroke-width:0.377953;stroke-linejoin:bevel;stroke-opacity:1"
       id="path1-3" /></g><g
     inkscape:groupmode="layer"
     id="g265"
     inkscape:label="Layer 1"
     style="display:none"
     clip-path="url(#clipPath5)"><path
       style="fill:none;stroke:#000000;stroke-width:0.377953;stroke-linejoin:bevel;stroke-opacity:1"
       d="m 170.12677,225.81658 c 0,0 -13.04376,-12.30544 -16.73539,-18.70426 -3.69163,-6.39882 -12.89936,-8.06476 -28.72396,-19.64153 -5.91887,-3.21865 -13.13748,3.49371 -13.88745,6.3923 -4.13769,15.99188 8.59556,31.25635 23.41494,38.84453 0.90321,0.46249 8.6138,3.93773 9.59824,4.42995 0.98443,0.49222 4.92217,10.82878 11.5671,11.07489"
       id="path259" /><path
       style="fill:none;stroke:#000000;stroke-width:0.377953;stroke-linejoin:bevel;stroke-opacity:1"
       d="m 91.253297,198.71792 c 0,0 12.983983,34.66563 14.841053,36.27814 1.50979,1.31096 2.29895,4.06432 11.54305,4.94702 2.35572,-1.41344 7.53832,-5.41817 7.53832,-8.00946 0,-2.5913 -0.94229,-4.00473 -0.94229,-4.00473"
       id="path260" /><path
       style="fill:none;stroke:#000000;stroke-width:0.377953;stroke-linejoin:bevel;stroke-opacity:1"
       d="m 109.98922,184.95533 c 0,0 1.2738,4.69084 2.62778,5.17441"
       id="path261"
       sodipodi:nodetypes="cc" /><path
       style="fill:none;stroke:#000000;stroke-width:0.377953;stroke-linejoin:bevel;stroke-opacity:1"
       d="m 110.43009,238.00151 c 1.47057,6.72258 -3.57137,8.19314 -5.88225,9.45362 -6.30654,3.43994 -15.616957,-7.33136 -23.07197,-17.52124 l -1.814705,-7.89353 -3.69343,-8.13006 c -0.941129,-6.2596 0.02051,-17.02708 9.674563,-16.23465 3.272493,0.26862 6.468046,2.29952 6.468046,2.29952 -8.852623,-21.5018 0.519859,-25.15286 8.121586,-27.7142 6.3291,-0.74639 8.38955,6.14181 9.72168,12.11767 0,0 -5.27222,-15.41618 -4.28779,-22.55332 0.98444,-7.13715 7.41019,-11.38687 11.89572,-11.36652 2.22878,0.0101 10.10446,1.44307 11.65061,9.65609 0,0 1.43554,15.46751 1.77255,17.15256 0.33701,1.68506 4.94281,11.23368 4.6058,12.13238 -0.33701,0.89869 -0.89869,4.38113 -0.89869,4.38113"
       id="path262" /><path
       style="fill:none;stroke:#000000;stroke-width:0.377953;stroke-linejoin:bevel;stroke-opacity:1"
       d="m 152.71907,162.83458 c 0,0 4.54221,32.79904 -4.7013,33.84944 -9.24355,1.05041 -12.04089,-6.24903 -12.04089,-6.24903"
       id="path263"
       sodipodi:nodetypes="csc" /><path
       style="fill:none;stroke:#000000;stroke-width:0.377953;stroke-linejoin:bevel;stroke-opacity:1"
       d="m 146.94872,242.22974 c 0,0 4.35542,17.90564 8.3479,20.08336"
       id="path264" /><path
       d="m 82.698494,250.12894 c -0.557386,-6.64135 -0.31974,-11.33352 -0.29921,-17.9015"
       style="fill:none;stroke:#000000;stroke-width:0.377953;stroke-linejoin:bevel;stroke-opacity:1"
       id="path1-01" /><path
       style="display:inline;fill:none;stroke:#000000;stroke-width:0.377953;stroke-linejoin:bevel;stroke-opacity:1"
       d="m 129.72804,160.24014 c -0.72834,-9.16657 3.28219,-11.47371 9.29814,-13.24987 2.41456,-0.53613 8.58831,-0.55298 14.58139,6.75598 4.69347,5.724 2.32032,8.6918 4.58849,13.62946 0.52384,1.14035 9.12273,23.43066 8.85474,27.12077 -1.36947,18.8571 3.10256,27.33432 4.57922,30.53374 7.06965,7.39263 14.07718,12.69833 10.92562,27.11998 -2.46108,6.15271 -3.81507,9.10601 -3.81507,11.07488 0,1.96887 -3.44552,9.10602 -3.44552,9.10602"
       id="path242-2"
       sodipodi:nodetypes="ccsssccsc"
       clip-path="url(#clipPath11-9)" /></g><g
     inkscape:groupmode="layer"
     id="g241"
     inkscape:label="Layer 1"
     style="display:none"><path
       style="fill:none;stroke:#000000;stroke-width:0.377953;stroke-linejoin:bevel;stroke-opacity:1"
       d="m 133.842,219.149 c 0.423,-0.986 -3.592,-15.629 -5.032,-26.873 -1.056,-8.248 1.923,-13.308 4.253,-13.825 2.415,-0.536 10.666,-6.127 20.241,8.515 7.053,10.787 13.549,30.354 13.411,32.425 -0.108,1.608 -1.214,7.922 -0.605,15.181 0.79,9.41 1.929,12.974 2.763,14.781"
       id="path237"
       sodipodi:nodetypes="ccccccc" /><path
       style="fill:none;stroke:#000000;stroke-width:0.377953;stroke-linejoin:bevel;stroke-opacity:1"
       d="m 164.717,249.47 c 0,0 -6.902,-8.249 -10.594,-14.648 -3.691,-6.399 -12.419,-9.549 -29.727,-21.252 -5.145,-3.605 -13.333,2.777 -14.275,5.619 -1.098,3.317 -1.28,13.812 2.491,19.289 2.137,3.102 6.19,6.434 9.012,10.667"
       id="path238" /><path
       style="fill:none;stroke:#000000;stroke-width:0.377953;stroke-linejoin:bevel;stroke-opacity:1"
       d="m 106.737,204.755 3.547,14.744"
       id="path239" /><path
       style="fill:none;stroke:#000000;stroke-width:0.377953;stroke-linejoin:bevel;stroke-opacity:1"
       d="m 81.9767,249.21 c -6.1348,-11.567 -5.2955,-21.278 0.3008,-24.472 2.0371,-1.163 5.7146,-3.28 8.4845,-1.733 -5.7554,-18.876 4.4644,-21.677 8.3832,-22.788 2.7398,-0.777 5.1748,1.062 7.6988,4.616 0,0 -3.477,-5.459 -2.493,-12.596 0.985,-7.137 8.421,-9.59 12.907,-9.569 2.229,0.01 8.307,1.218 9.628,5.275"
       id="path240"
       sodipodi:nodetypes="cccccccc" /><path
       style="fill:none;stroke:#000000;stroke-width:0.377953;stroke-linejoin:bevel;stroke-opacity:1"
       d="m 91.287,223.324 c 0,0 6.0925,19.775 6.492,20.274 0.3995,0.5 3.096,4.894 3.596,5.094"
       id="path241" /><path
       d="m 152.028,188.156 c 0,0 3.758,35.279 3.758,37.34 0,2.061 0.485,8.365 -1.697,9.092"
       style="fill:none;stroke:#000000;stroke-width:0.377953;stroke-linejoin:bevel;stroke-opacity:1"
       id="path1-72" /></g><g
     inkscape:groupmode="layer"
     id="g236"
     inkscape:label="Layer 1"
     style="display:none"
     clip-path="url(#clipPath4)"><path
       style="display:inline;fill:none;stroke:#000000;stroke-width:0.377953;stroke-linejoin:bevel;stroke-opacity:1"
       d="m 133.005,254.578 c 0.423,-0.986 -3.592,-15.629 -5.032,-26.873 -1.056,-8.248 1.923,-13.308 4.254,-13.825 2.414,-0.536 10.665,-6.126 20.24,8.515 7.053,10.787 13.549,30.354 13.411,32.425 -0.107,1.608 -1.214,7.922 -0.605,15.181 0.79,9.41 1.929,12.975 2.763,14.781"
       id="path227"
       sodipodi:nodetypes="ccccccc" /><path
       style="display:inline;fill:none;stroke:#000000;stroke-width:0.377953;stroke-linejoin:bevel;stroke-opacity:1"
       d="m 163.88,284.899 c 0,0 -6.902,-8.249 -10.594,-14.647 -3.691,-6.399 -12.419,-9.55 -29.727,-21.252 -5.145,-3.606 -13.333,2.776 -14.275,5.618 -1.098,3.317 -1.28,13.812 2.491,19.289 2.137,3.102 6.19,6.435 9.012,10.667"
       id="path228" /><path
       style="display:inline;fill:none;stroke:#000000;stroke-width:0.377953;stroke-linejoin:bevel;stroke-opacity:1"
       d="m 105.9,240.184 3.547,14.744"
       id="path229" /><path
       style="display:inline;fill:none;stroke:#000000;stroke-width:0.377953;stroke-linejoin:bevel;stroke-opacity:1"
       d="m 151.191,223.585 c 0,0 3.758,35.279 3.758,37.34 0,2.061 0.485,8.365 -1.697,9.092"
       id="path230" /><path
       style="display:inline;fill:none;stroke:#000000;stroke-width:0.377953;stroke-linejoin:bevel;stroke-opacity:1"
       d="m 133.005,254.578 c 0.423,-0.986 -3.592,-15.629 -5.032,-26.873 -1.056,-8.248 1.923,-13.308 4.254,-13.825 2.414,-0.536 10.665,-6.126 20.24,8.515 7.053,10.787 13.549,30.354 13.411,32.425 -0.107,1.608 -1.214,7.922 -0.605,15.181 0.79,9.41 1.929,12.975 2.763,14.781"
       id="path232"
       sodipodi:nodetypes="ccccccc" /><path
       style="display:inline;fill:none;stroke:#000000;stroke-width:0.377953;stroke-linejoin:bevel;stroke-opacity:1"
       d="m 163.88,284.899 c 0,0 -6.902,-8.249 -10.594,-14.647 -3.691,-6.399 -12.419,-9.55 -29.727,-21.252 -5.145,-3.606 -13.333,2.776 -14.275,5.618 -1.098,3.317 -1.28,13.812 2.491,19.289 2.137,3.102 6.19,6.435 9.012,10.667"
       id="path233" /><path
       style="display:inline;fill:none;stroke:#000000;stroke-width:0.377953;stroke-linejoin:bevel;stroke-opacity:1"
       d="m 105.9,240.184 3.547,14.744"
       id="path234" /><path
       style="display:inline;fill:none;stroke:#000000;stroke-width:0.377953;stroke-linejoin:bevel;stroke-opacity:1"
       d="m 151.191,223.585 c 0,0 3.758,35.279 3.758,37.34 0,2.061 0.485,8.365 -1.697,9.092"
       id="path235" /><path
       d="m 81.1397,284.64 c -6.1347,-11.568 -5.2955,-21.279 0.3009,-24.473 2.0371,-1.163 5.7146,-3.28 8.4845,-1.733 -5.7554,-18.876 4.4644,-21.677 8.3832,-22.788 2.7397,-0.777 5.1747,1.062 7.6987,4.617 0,0 -3.477,-5.46 -2.493,-12.597 0.985,-7.137 8.421,-9.589 12.907,-9.569 2.229,0.01 8.307,1.218 9.629,5.275"
       style="display:inline;fill:none;stroke:#000000;stroke-width:0.377953;stroke-linejoin:bevel;stroke-opacity:1"
       id="path1-88" /></g><g
     inkscape:groupmode="layer"
     id="g221"
     inkscape:label="Layer 1"
     style="display:inline"><path
       style="display:inline;fill:none;stroke:#000000;stroke-width:0.377953;stroke-linejoin:bevel;stroke-opacity:1"
       d="m 129.379,279.685 c 0.422,-0.985 -3.593,-15.629 -5.033,-26.873 -1.056,-8.248 1.923,-13.307 4.254,-13.825 2.414,-0.536 10.666,-6.126 20.24,8.516 7.054,10.786 13.549,30.353 13.411,32.425 -0.107,1.607 -1.214,7.921 -0.604,15.181 0.79,9.409 1.929,12.974 2.762,14.78"
       id="path217"
       sodipodi:nodetypes="ccccscc"
       clip-path="url(#clipPath3)" /><path
       style="display:inline;fill:none;stroke:#000000;stroke-width:0.377953;stroke-linejoin:bevel;stroke-opacity:1"
       d="m 147.564,248.692 c 0,0 3.758,35.279 3.758,37.34 0,2.061 0.485,8.365 -1.697,9.093 m -72.1119,14.622 c -6.1348,-11.567 -5.2955,-21.279 0.3009,-24.473 2.0371,-1.162 5.7146,-3.28 8.4845,-1.733 -5.7554,-18.875 4.4644,-21.676 8.3832,-22.788 2.74,-0.777 5.1752,1.062 7.6983,4.617 0,0 -3.4768,-5.459 -2.4924,-12.597 0.9844,-7.137 8.4214,-9.589 12.9064,-9.569 2.229,0.01 8.307,1.219 9.629,5.275"
       id="path220"
       clip-path="url(#clipPath2)" /></g><g
     inkscape:groupmode="layer"
     id="layer2"
     inkscape:label="Layer 2" /></svg>
