<?xml version="1.0" encoding="UTF-8" standalone="no"?>
<!DOCTYPE svg PUBLIC "-//W3C//DTD SVG 1.1//EN" "http://www.w3.org/Graphics/SVG/1.1/DTD/svg11.dtd">
<svg width="100%" height="100%" viewBox="0 0 250 250" version="1.1" xmlns="http://www.w3.org/2000/svg" xmlns:xlink="http://www.w3.org/1999/xlink" xml:space="preserve" xmlns:serif="http://www.serif.com/" style="fill-rule:evenodd;clip-rule:evenodd;stroke-linecap:round;stroke-linejoin:round;stroke-miterlimit:1.5;">
    <g id="Layer13">
        <path d="M154.021,64.883C154.021,64.883 140.478,68.175 133.661,72.052C126.845,75.93 107.092,85.932 99.243,91.054C91.394,96.175 92.348,96.727 91.354,98.064C90.36,99.401 88.012,107.642 87.558,108.648C87.104,109.655 85.165,119.961 84.026,120.491C82.888,121.02 68.594,134.955 67.655,135.588C66.716,136.221 56.189,146.716 54.518,148.144C52.846,149.572 48.045,155.94 46.033,159.125C44.022,162.31 39.048,174.108 38.21,176.526C37.371,178.944 35.741,182.879 35.17,183.744C34.599,184.608 34.223,185.407 34.223,185.407C34.223,185.407 30.806,189.322 30.081,190.049C29.356,190.775 28.553,191.311 29.412,192.607C30.272,193.904 35.92,202.875 42.578,204.655C42.578,204.655 44.994,205.467 47.442,205.557C49.89,205.647 51.964,206.246 54.254,207.728C56.545,209.21 64.357,212.724 65.763,212.88C65.763,212.88 68.332,212.737 71.624,210.798C74.916,208.859 80.342,205.876 82.18,204.974C84.018,204.072 90.422,201.033 91.999,199.59C93.575,198.148 96.263,195.101 98.74,193.435C101.217,191.769 116.541,180.604 130.189,180.161M75.138,209.108C75.138,209.108 81.275,211.89 83.217,212.173C85.159,212.455 85.822,212.946 87.28,212.257C88.738,211.568 97.317,207.517 98.729,206.438C100.141,205.36 107.837,201.111 109.174,200.237C110.511,199.364 115.844,195.754 116.755,195.124M116.755,195.124C116.755,195.124 118.385,193.956 120.013,193.703C121.642,193.45 145.085,189.427 151.634,191.083M139.822,191.157C139.822,191.157 135.412,204.077 134.152,206.681C132.893,209.285 129.573,215.693 128.512,216.862C127.451,218.03 122.421,223.108 117.862,225.69C113.303,228.272 109.947,230.663 108.205,231.003C108.205,231.003 109.565,232.471 112.192,233.17C114.819,233.869 116.68,234.661 118.859,234.129M118.399,234.775C118.399,234.775 115.681,241.325 114.63,243.182C113.579,245.038 113.614,246.632 113.493,248.307C113.373,249.981 113.249,252.83 113.249,252.83M192.149,199.427C192.149,199.427 199.088,193.5 202.165,188.106C205.242,182.712 206.704,178.701 206.747,177.057C206.747,177.057 210.866,181.858 211.792,183.426C211.792,183.426 212.787,185.924 213.229,185.654C213.671,185.384 214.792,166.75 213.642,161.543C212.491,156.336 206.014,141.968 204.278,139.404M114.71,138.617C114.71,138.617 115.647,141.521 121.265,141.386M64.288,172.25C64.288,172.25 73.749,163.06 77.212,160.176C80.676,157.292 85.61,153.523 85.61,153.523M50.487,202.541C50.487,202.541 49.762,202.721 49.175,201.609C48.587,200.497 48.007,199.308 48.007,199.308C48.007,199.308 49.065,195.747 49.963,195.991C50.86,196.235 52.043,197.606 52.667,197.868C53.291,198.129 55.031,197.113 55.818,195.932C56.606,194.752 58.69,190.657 58.389,188.301C58.089,185.944 55.743,183.847 55.101,183.191C54.459,182.535 53.192,182.946 51.679,183.103C50.166,183.261 38.125,186.786 38.125,186.786M138.338,123.182C138.338,123.182 139.242,126.045 140.925,126.091C142.607,126.137 143.245,124.302 143.055,120.818C142.864,117.334 140.77,108.755 139.504,108.659C138.238,108.562 137.457,111.079 137.205,113.66C136.953,116.242 137.024,119.969 138.338,123.182ZM116.153,128.645C116.153,128.645 118.582,111.799 133.788,106.755C133.788,106.755 142.095,103.146 152.929,110.952C152.929,110.952 160.483,117.434 157.577,122.973C157.577,122.973 156.697,125.721 152.234,126.964C152.234,126.964 144.125,128.759 141.481,129.738C138.837,130.718 134.903,131.447 131.725,133.259C128.548,135.07 126.264,136.493 125.059,136.808C123.853,137.122 114.53,139.389 116.153,128.645ZM129.339,73.677C129.339,73.677 118.887,61.14 115.49,54.435C112.093,47.731 107.994,34.604 107.223,31.978C106.452,29.352 106.285,28.503 106.285,28.503C106.285,28.503 111.366,34.003 114.043,37.35C116.72,40.696 122.031,46.931 124.16,49.739C126.29,52.548 132.714,62.532 134.319,64.67C135.923,66.808 138.059,69.558 138.059,69.558M124.571,76.466C124.571,76.466 115.341,65.033 110.738,53.784C106.136,42.534 100.974,26.575 100.386,24.351C99.798,22.127 98.859,20.799 99.265,20.005C99.671,19.211 101.959,18.819 106.075,20.315C110.192,21.81 117.372,25.828 119.707,28.002C119.707,28.002 121.52,29.327 123.968,29.973C126.416,30.619 136.609,35.231 140.227,38.185C143.845,41.14 148.537,42.997 148.537,42.997L150.612,43.9M157.711,76.632C157.711,76.632 147.488,30.526 146.474,24.564C145.46,18.601 143.701,8.703 143.98,7.808C144.26,6.913 143.988,4.355 147.725,5.476C151.462,6.597 157.326,11.537 159.954,14.437C162.582,17.337 166.291,20.43 168.037,21.316C169.784,22.202 174.772,25.826 176.396,26.847C178.019,27.869 187.198,31.381 194.192,40.966C201.186,50.55 204.354,57.424 204.677,68.276C204.677,68.276 206.153,79.039 201.38,85.43M163.778,80.33C163.778,80.33 164.927,73.366 167.367,73.913C169.807,74.459 168.609,81.831 168.573,83.315C168.573,83.315 169.241,79.67 170.369,79.581C171.496,79.493 172.041,81.449 171.888,83.58L171.912,86.165C171.912,86.165 172.514,86.501 172.836,86.975M162.949,78.305C162.949,78.305 151.534,34.075 150.796,28.215C150.059,22.354 147.834,14.069 149.369,14.154C150.904,14.24 153.57,21.898 156.04,24.661C158.51,27.425 168.35,43.538 171.205,48.201C174.061,52.864 179.704,77.2 177.009,87.217M204.916,65.295C204.916,65.295 223.195,73.761 229.821,76.036C236.447,78.311 239.215,78.63 239.61,79.332C240.004,80.034 239.513,80.814 239.153,81.295C238.793,81.776 237.507,83.674 238.027,84.618C238.547,85.561 249.374,92.517 251.776,93.748" style="fill:none;stroke:black;stroke-width:1.34px;"/>
    </g>
</svg>
