<?xml version="1.0" encoding="UTF-8" standalone="no"?>
<!DOCTYPE svg PUBLIC "-//W3C//DTD SVG 1.1//EN" "http://www.w3.org/Graphics/SVG/1.1/DTD/svg11.dtd">
<svg width="100%" height="100%" viewBox="0 0 250 250" version="1.1" xmlns="http://www.w3.org/2000/svg" xmlns:xlink="http://www.w3.org/1999/xlink" xml:space="preserve" xmlns:serif="http://www.serif.com/" style="fill-rule:evenodd;clip-rule:evenodd;stroke-linecap:round;stroke-linejoin:round;stroke-miterlimit:1.5;">
    <g id="Layer14">
        <path d="M152.69,66.201C152.69,66.201 131.35,73.801 120.281,79.301C109.211,84.801 98.292,91.185 95.625,93.08C95.625,93.08 93.659,94.427 92.904,96.182C92.904,96.182 89.331,105.013 88.281,110.58C87.232,116.146 85.727,120.929 85.727,120.929M85.727,120.929C85.727,120.929 82.719,123.479 79.107,126.564C75.495,129.649 60.366,142.438 56.602,146.379C56.602,146.379 53.843,148.648 52.231,150.108C50.619,151.568 48.472,157.036 46.818,159.918C45.165,162.8 39.426,175.339 37.687,179.24C36.036,182.944 35.402,183.646 34.887,184.546C34.371,185.445 33.076,186.978 31.571,188.411C30.067,189.844 28.412,191.23 28.316,191.584C28.219,191.938 28.882,193.432 29.659,194.471C30.436,195.51 35.408,202.191 40.298,204.215C40.298,204.215 42.572,205.444 45.996,205.373C45.996,205.373 49.217,205.368 50.482,206.151C51.746,206.934 61.928,212.231 62.134,212.356C62.341,212.481 64.354,213.596 65.006,213.699C65.657,213.802 67.483,212.555 69.754,211.256C72.026,209.957 78.621,206.842 80.381,205.939C82.141,205.036 88.854,202.24 90.049,201.406C91.243,200.573 92.229,200.354 93.238,199.063C94.246,197.772 98.88,192.772 99.749,191.883C100.619,190.994 106.618,188.029 108.729,186.776C110.84,185.523 119.283,182.07 119.968,181.857C120.654,181.645 133.631,180.25 133.631,180.25M74.275,209.331C74.275,209.331 79.52,212.095 80.805,212.94C82.091,213.785 83.282,214.122 85.079,213.377C86.875,212.632 92.591,210.163 92.591,210.163C92.591,210.163 101.773,204.62 103.464,203.64C105.155,202.66 112.458,198.743 114.15,197.416C115.842,196.088 118.348,193.607 118.348,193.607C118.348,193.607 128.353,192.098 131.721,191.711C135.088,191.324 146.677,190.718 152.604,191.04M140.581,191.313C140.581,191.313 141.183,194.102 138.259,200.618C135.335,207.134 134.457,210.644 130.368,217.115C130.368,217.115 121.808,223.968 115.398,227.37C108.987,230.772 106.877,232.668 106.877,232.668C106.877,232.668 108.59,233.027 110.986,233.086C113.381,233.145 118.794,233.514 119.616,233.362C120.437,233.209 119.895,234.157 119.201,235.116C118.508,236.074 113.965,243.477 113.895,243.953C113.825,244.428 113.761,246.566 113.338,248.158C112.916,249.751 112.593,251.379 112.418,251.777M36.289,187.773C36.289,187.773 46.909,185.16 55.095,182.134C55.095,182.134 59.367,185.683 59.758,187.278C60.15,188.873 60.159,191.036 58.082,194.29L56.339,197.269C56.339,197.269 52.087,198.571 51.52,198.685C51.52,198.685 50.865,198.979 51.012,197.342C51.158,195.705 51.223,194.688 49.848,196.919L47.785,199.574C47.785,199.574 47.979,201.697 50.167,202.511M61.516,175.235L87.175,153.451M115.399,138.767C115.399,138.767 116.441,141.034 117.913,141.643C119.385,142.251 124.645,143.183 124.645,143.183M141.673,110.386C141.673,110.386 138.912,106.73 138.255,111.557C137.598,116.384 138.875,123.987 140.911,125.722C143.301,127.759 143.931,123.264 143.931,123.264C143.931,123.264 145.21,115.924 141.673,110.386ZM117.189,131.761C117.189,131.761 117.669,116.678 130.047,109.033C142.426,101.389 150.767,109.246 153.171,111.258C155.575,113.27 159.161,117.831 157.426,122.971C157.426,122.971 157.291,125.088 152.191,126.85C147.092,128.612 146.019,127.879 141.026,130.091C141.026,130.091 135.871,131.958 133.474,133.142C131.076,134.325 123.188,137.048 121.19,136.745M121.19,136.745C121.19,136.745 117.13,136.785 117.189,131.761M157.143,78.066C157.143,78.066 149.21,56.155 147.334,45.993C145.457,35.831 142.387,20.347 142.015,18.556C141.644,16.766 139.597,7.08 139.597,7.08L139.365,5.49C139.365,5.49 142.216,5.194 144.147,6.372C146.078,7.55 148.99,8.485 151.102,9.289C153.215,10.093 155.275,11.321 155.873,12.446C156.471,13.572 158.765,16.826 160.15,18.02C161.534,19.215 175.96,28.949 180.036,31.754C184.112,34.56 193.633,40.95 195.427,43.469C197.22,45.988 198.358,48.203 199.268,50.221C200.178,52.239 201.615,54.685 202.543,56.352C203.472,58.02 206.178,73.227 204.993,78.496M203.954,138.485C203.954,138.485 214.617,150.858 216.445,157.086C218.272,163.313 218.342,176.825 215.8,183.841C215.8,183.841 209.224,176.343 208.835,176.14C208.835,176.14 209.472,179.432 208.175,181.498C206.877,183.564 192.926,203.302 192.926,203.302M163.225,80.356C163.225,80.356 156.274,58.395 155.237,54.544C154.2,50.693 150.401,33.685 149.611,30.594C148.822,27.502 147.002,21.068 147.002,21.068L145.591,16.735C145.591,16.735 146.967,15.538 149.575,19.604C152.183,23.671 164.177,39.601 166.314,42.794C168.45,45.988 170.767,49.583 171.692,53.163C172.618,56.743 174.906,73.369 174.905,77.256C174.903,81.144 175.873,89.768 175.873,89.768M163.39,79.958C163.39,79.958 164.677,76.132 165.082,75.068C165.488,74.004 165.985,72.32 166.447,72.723C166.91,73.126 167.472,74.898 167.829,77.466C168.092,79.352 168.108,80.484 168.108,80.484C168.108,80.484 170.016,77.088 170.902,78.458C171.787,79.827 171.56,85.156 171.397,85.326C171.397,85.326 173.346,85.655 173.651,85.891M124.444,77.245C124.444,77.245 112.876,58.09 111.816,55.244C110.757,52.397 101.217,25.471 101.02,24.104C100.824,22.738 99.797,18.789 99.797,18.789C99.797,18.789 98.427,16.941 102.059,18.056C105.69,19.17 107.409,19.895 108.994,20.263C110.578,20.63 114.243,22.504 116.287,24.433C118.331,26.361 119.498,28.106 119.498,28.106L123.34,29.92L134.972,35.178C134.972,35.178 144.846,39.218 145.83,40.458M129.37,74.199C129.37,74.199 117.202,56.414 116.137,54.056C115.072,51.698 112.332,44.476 111.82,42.947C111.308,41.417 107.569,29.29 107.569,29.29C107.569,29.29 108.949,29.985 111.561,33.342C114.173,36.698 121.106,44.439 121.938,45.569C122.769,46.698 131.747,60.226 132.82,61.721C133.893,63.215 138.895,70.823 138.895,70.823M204.468,64.759C204.468,64.759 211.197,68.192 213.798,69.537C216.398,70.882 223.767,73.861 225.845,74.581C227.923,75.302 238.705,78.592 239.524,79.073C239.524,79.073 238.491,80.493 237.906,82.988C237.322,85.484 237.343,85.776 238.815,86.721C240.287,87.666 251.504,93.61 251.35,93.491" style="fill:none;stroke:black;stroke-width:1.34px;"/>
    </g>
</svg>
