<?xml version="1.0" encoding="UTF-8" standalone="no"?>
<!DOCTYPE svg PUBLIC "-//W3C//DTD SVG 1.1//EN" "http://www.w3.org/Graphics/SVG/1.1/DTD/svg11.dtd">
<svg width="100%" height="100%" viewBox="0 0 250 250" version="1.1" xmlns="http://www.w3.org/2000/svg" xmlns:xlink="http://www.w3.org/1999/xlink" xml:space="preserve" xmlns:serif="http://www.serif.com/" style="fill-rule:evenodd;clip-rule:evenodd;stroke-linecap:round;stroke-linejoin:round;stroke-miterlimit:1.5;">
    <g id="Layer12">
        <path d="M155.512,64.229C155.512,64.229 144.234,67.195 138.999,69.091C133.764,70.986 133.033,70.577 131.744,72.294C130.455,74.011 129.998,74.961 128.288,75.621C126.578,76.28 121.656,77.663 118.775,79.335C115.895,81.007 115.667,81.015 114.741,82.051C113.815,83.087 108.728,85.167 104.167,87.806C99.607,90.444 93.543,94.734 92.223,96.11C90.904,97.486 90.843,97.646 88.09,104.768C85.337,111.891 85.124,116.256 83.923,118.369C82.722,120.482 76.029,127.429 73.058,129.895M73.058,129.895C73.058,129.895 66.263,136.574 63.311,139.515C60.359,142.457 57.834,144.667 54.966,147.139C52.098,149.611 46.654,155.78 43.052,164.194C39.45,172.607 38.731,175.106 37.273,178.16C35.815,181.215 34.067,184.7 34.067,184.7C34.067,184.7 30.809,188.555 30.179,189.682C29.549,190.81 29.609,191.525 31.292,194.121C32.976,196.717 38.274,202.624 41.075,203.75C43.876,204.876 47.262,204.49 50.367,205.401C53.472,206.312 57.637,208.425 59.536,209.686C61.435,210.947 62.508,211.624 64.811,211.742C67.114,211.86 69.233,211.781 71.653,210.334C74.074,208.887 81.572,204.716 82.911,203.866C84.251,203.016 94.422,196.594 97.367,194.053C100.312,191.512 111.427,184.085 115.665,182.565C119.902,181.046 125.424,179.246 129.995,179.754M74.2,209.293C74.2,209.293 81.451,211.445 85.166,211.391C88.881,211.337 89.258,210.502 93.242,208.695C97.226,206.889 103.922,203.092 105.412,201.781C106.901,200.469 113.782,195.212 115.432,194.539C117.081,193.866 118.957,193.188 123.093,192.83C127.229,192.471 142.551,190.175 149.344,191.259M138.64,191.438C138.64,191.438 135.539,200.907 134.569,203.369C133.6,205.832 130.372,214.364 126.435,217.95C122.498,221.535 116.791,226.642 114.05,227.831C111.308,229.02 108.596,230.317 108.596,230.317C108.596,230.317 108.345,231.004 111.123,231.956C113.901,232.909 116.039,232.48 117.049,233.477C118.058,234.473 117.78,235.859 117.651,236.865C117.522,237.871 117.307,238.229 115.984,239.95C114.661,241.671 113.957,244.231 113.817,247.064C113.677,249.896 113.822,251.275 113.593,251.949M190.13,199.587C190.13,199.587 200.312,190.428 204.289,176.641C204.289,176.641 204.742,174.998 207.203,179.067C207.203,179.067 209.822,183.29 210.51,184.556C210.51,184.556 214.519,173.216 212.555,164.311C209.844,152.022 204.559,141.39 204.156,140.049M50.079,202.643C50.079,202.643 50.627,201.284 50.092,200.602C49.557,199.919 47.72,199.515 47.858,198.734C47.995,197.952 49.502,195.696 49.502,195.696C49.502,195.696 50.502,196.103 51.028,196.7C51.555,197.296 52.5,198.174 52.933,197.923C53.366,197.671 58.307,191.321 56.96,186.847C55.614,182.372 53.694,182.128 50.158,183.015C46.622,183.902 41.99,185.312 40.091,185.122M65.572,170.324C65.572,170.324 79.665,156.647 84.106,153.987M113.88,138.475C113.88,138.475 115.797,141.714 120.268,141.381M136.463,116.563C136.463,116.563 136.549,110.646 137.846,109.461C139.143,108.276 140.471,109.35 141.027,111.562C141.583,113.774 142.542,119.86 142.433,121.327C142.325,122.795 142.347,125.756 140.22,126.283C138.093,126.81 135.977,121.204 136.463,116.563ZM114.023,130.769C114.023,130.769 112.399,120.715 123.779,110.762C135.158,100.809 149.758,106.374 154.139,112.873C158.519,119.373 158.21,122.277 154.097,126.144C154.097,126.144 151.928,127.184 147.668,128.271C143.408,129.358 139.364,129.13 136.036,131.286C136.036,131.286 131.929,133.292 129.684,134.613C127.439,135.933 115.31,142.186 114.023,130.769ZM164.595,81.513C164.595,81.513 166.393,77.189 167.797,76.27C169.2,75.352 169.832,78.542 169.612,81.815C169.391,85.088 169.167,86.48 169.167,86.48C169.167,86.48 170.963,81.744 172.595,83.702C174.228,85.661 174.496,90.652 174.266,91.689M162.462,78.67C162.462,78.67 159.684,44.224 158.079,38.424C156.473,32.624 153.547,17.195 153.521,15.472C153.496,13.75 154.092,12.464 158.355,17.35C162.617,22.237 168.672,38.169 170.046,40.052C171.421,41.935 183.447,64.424 177.355,89.25M158.521,77.53C158.521,77.53 153.196,44.913 153.206,44.705C153.216,44.498 148.404,15.85 147.961,13.421C147.519,10.991 145.797,6.068 148.682,5.456C151.567,4.845 159.994,8.396 162.826,11.643C165.659,14.889 169.552,20.943 171.953,22.601C174.354,24.259 178.898,28.276 181.236,29.378C183.574,30.481 195.122,38.533 199.505,47.887C203.888,57.241 204.443,64.229 204.652,69.468C204.862,74.706 205.119,83.018 199.556,86.77M127.292,72.636C127.292,72.636 115.293,60.199 110.586,45.246C105.879,30.293 105.895,28.812 105.895,28.812C105.895,28.812 107.504,28.587 110.289,32.963C113.075,37.339 119.052,44.152 120.674,46.293C122.295,48.433 127.954,56.366 128.985,57.647C130.016,58.927 135.687,67.774 135.687,67.774M124.949,76.707C124.949,76.707 113.998,64.855 106.678,45.887C99.358,26.92 98.998,22.292 98.998,22.292C98.998,22.292 98.026,19.805 102.777,20.889C107.528,21.973 111.355,23.057 113.34,24.276C115.324,25.496 118.55,29.482 120.722,30.375C122.895,31.268 143.114,37.734 154.297,50.284M204.49,65.508C204.49,65.508 225.475,74.813 229.933,76.144C234.391,77.474 240.003,78.236 239.935,79.689C239.867,81.143 236.378,83.191 238.468,85.038C240.559,86.885 250.801,93.518 251.555,95.572" style="fill:none;stroke:black;stroke-width:1.34px;"/>
    </g>
</svg>
