<?xml version="1.0" encoding="UTF-8" standalone="no"?>
<!DOCTYPE svg PUBLIC "-//W3C//DTD SVG 1.1//EN" "http://www.w3.org/Graphics/SVG/1.1/DTD/svg11.dtd">
<svg width="100%" height="100%" viewBox="0 0 250 250" version="1.1" xmlns="http://www.w3.org/2000/svg" xmlns:xlink="http://www.w3.org/1999/xlink" xml:space="preserve" xmlns:serif="http://www.serif.com/" style="fill-rule:evenodd;clip-rule:evenodd;stroke-linecap:round;stroke-linejoin:round;stroke-miterlimit:1.5;">
    <g id="Layer11">
        <path d="M158.07,61.32C158.07,61.32 134.773,66.131 129.435,69.584C129.435,69.584 129.047,69.74 128.791,71.806C128.535,73.873 128.213,73.552 125.97,74.59C125.97,74.59 118.744,77.547 116.687,79.706C114.631,81.865 115.253,81.723 114.92,81.859C114.587,81.995 109.104,84.902 105.259,87.125C101.415,89.348 92.175,94.845 88.715,99.895C85.256,104.945 85.73,107.41 83.901,111.215C82.073,115.02 80.368,119.764 79.552,120.583C79.552,120.583 76.883,124.386 74.675,126.206C72.468,128.026 67.294,133.273 64.661,135.478C62.027,137.683 57.584,141.961 55.401,144.107C53.217,146.253 49.819,150.743 47.684,154.533C45.55,158.323 42.033,166.037 40.728,168.323C39.423,170.61 36.075,179.724 35.051,181.572C34.028,183.42 33.192,185.398 32.156,186.632C31.119,187.867 29.658,189.387 30.989,191.551C32.319,193.715 37.476,201.364 40.425,202.88C43.375,204.396 44.943,204.315 46.905,204.453C48.868,204.59 52.222,204.859 55.195,206.601C58.168,208.343 61.815,210.532 65.246,210.636C68.677,210.74 72.495,209.655 76.204,207.438C79.913,205.221 84.458,201.445 87.132,200.146C89.806,198.847 94.177,195.536 96.399,193.687C98.621,191.839 104.103,187.679 105.907,186.556C107.71,185.432 112.641,182.601 115.897,182.593M75.673,208.166C75.673,208.166 78.468,209.48 80.701,209.659C82.934,209.837 85.75,210.081 87.144,209.788C88.537,209.496 93.39,207.59 97.19,205.117C100.991,202.644 108.116,198.204 109.172,197.547C110.228,196.89 112.599,195.322 114.707,194.273C116.815,193.224 118.221,192.969 121.229,192.86C124.237,192.751 130.496,191.679 132.739,191.432C134.983,191.184 143.051,190.888 143.942,190.812M137.235,191.096C137.235,191.096 135.448,197.921 134.291,200.419C133.134,202.916 131.354,209.197 130.188,210.684C129.021,212.171 127.218,215.445 122.51,219.44C117.803,223.436 117.294,224.872 115.188,226.187C113.082,227.503 110.064,229.581 109.166,229.804C108.268,230.027 109.485,230.566 111.961,231.535C114.438,232.504 115.49,232.414 115.899,233.464C116.307,234.514 116.04,234.539 116.444,236.162C116.849,237.786 116.952,238.105 116.805,239.028C116.659,239.952 116.114,240.658 115.258,242.017C114.402,243.376 114.143,245.486 114.024,247.863C113.904,250.24 113.994,251.833 113.878,252.245M200.992,141.204C200.992,141.204 207.761,155.613 207.299,163.249C206.857,170.547 206.007,172.649 206.007,172.649C206.007,172.649 205.691,173.335 204.041,172.233C202.391,171.131 202.133,170.948 201.667,171.363C201.201,171.778 200.962,172.56 200.644,173.348C200.326,174.137 196.672,188.362 181.772,197.276M68.86,166.22C68.86,166.22 74.701,160.176 76.917,158.055C79.132,155.934 81.527,154.413 81.527,154.413M45.183,183.193C45.183,183.193 45.861,184.452 48.89,183.861C51.92,183.269 53.436,182.896 53.849,183.505C54.262,184.114 55.346,186.636 55.036,188.984C54.725,191.331 53.707,192.79 53.317,193.45C52.928,194.109 52.335,195.219 52.335,195.219C52.335,195.219 50.581,194.222 49.68,194.686C48.779,195.149 47.052,198.945 47.928,199.411C48.805,199.876 51.11,199.325 51.139,200.1C51.168,200.874 50.893,201.873 50.893,201.873M112.279,139.26C112.279,139.26 114.614,142.225 118.621,142.166M136.323,111.62C136.323,111.62 135.543,116.996 136.29,121.606C136.976,125.831 138.995,126.24 140.172,126.235C141.472,126.231 142.286,122.983 140.967,116.889C139.648,110.796 139.722,108.255 138.223,108.696C136.724,109.137 136.344,111.544 136.323,111.62ZM111.392,131.046C111.392,131.046 109.176,125.24 114.474,117.853C119.773,110.466 124.065,108.417 129.877,106.565C135.689,104.712 141.298,104.031 148.237,108.613C155.175,113.196 156.024,115.767 156.197,120.681C156.371,125.596 151.805,126.967 147.485,128.44C143.165,129.914 139.182,128.721 132.307,132.315C125.432,135.909 122.288,137.548 119.096,137.352C115.905,137.156 112.328,135.54 111.392,131.046ZM166.283,83.456C166.283,83.456 167.964,78.846 170.521,79.904C173.079,80.961 172.126,84.852 171.524,87.518C171.524,87.518 173.398,84.176 174.98,86.336C176.562,88.496 176.13,95.838 175.38,96.979M165.168,81.966C165.168,81.966 166.466,68.631 163.937,50.428C161.408,32.226 159.839,21.071 159.839,21.071C159.839,21.071 158.25,14.787 159.502,14.943C160.754,15.099 169.279,29.437 170.867,32.204C172.455,34.971 178.275,44.662 179.407,46.851C180.539,49.041 186.075,66.914 178.574,90.149M160.245,80.106C160.245,80.106 158.831,54.521 157.542,46.498C156.254,38.476 153.561,12.457 153.55,11.343C153.539,10.229 151.896,4.32 156.496,5.587C161.096,6.854 167.462,13.046 168.681,14.205C169.9,15.365 185.679,29.643 188.367,32.342C191.056,35.04 204.519,49.609 205.877,65.361C205.877,65.361 209.38,82.419 194.593,91.32M123.073,75.305C123.073,75.305 112.087,61.315 107.266,50.322C102.445,39.328 100.221,27.073 99.926,25.779C99.63,24.484 100.243,21.211 104.031,21.856C107.82,22.501 111.477,25.28 112.943,26.546C114.41,27.811 122.829,32.992 126.265,34.144C129.701,35.297 153.715,45.743 157.447,60.45M119.095,63.065C119.095,63.065 112.72,52.681 109.598,45.397C106.476,38.112 105.308,33.237 105.476,32.028C105.644,30.818 106.139,29.657 110.722,34.972C115.305,40.287 126.37,57.95 128.707,60.155C131.045,62.361 132.467,64.55 132.467,64.55M206.307,66.434C206.307,66.434 220.005,73.028 224.967,74.4C229.928,75.772 232.795,77.519 235.246,78.066C237.697,78.612 239.085,78.991 239.085,78.991C239.085,78.991 239.302,79.485 238.767,81.245C238.232,83.005 238.344,83.863 238.717,84.478C239.09,85.094 242.429,88.131 244.375,89.345C246.322,90.559 249.312,94.193 251.513,97.438" style="fill:none;stroke:black;stroke-width:1.34px;"/>
    </g>
</svg>
