<?xml version="1.0" encoding="UTF-8" standalone="no"?>
<!DOCTYPE svg PUBLIC "-//W3C//DTD SVG 1.1//EN" "http://www.w3.org/Graphics/SVG/1.1/DTD/svg11.dtd">
<svg width="100%" height="100%" viewBox="0 0 250 250" version="1.1" xmlns="http://www.w3.org/2000/svg" xmlns:xlink="http://www.w3.org/1999/xlink" xml:space="preserve" xmlns:serif="http://www.serif.com/" style="fill-rule:evenodd;clip-rule:evenodd;stroke-linecap:round;stroke-linejoin:round;stroke-miterlimit:1.5;">
    <g id="Layer9">
        <path d="M110.173,80.035C110.173,80.035 96.92,88.128 93.525,90.442C90.13,92.756 84.592,97.226 83.338,98.747C82.084,100.268 81.803,100.767 80.331,103.813C78.859,106.859 75.81,114.464 74.144,117.078C72.477,119.693 71.292,121.765 71.292,121.765C71.292,121.765 65.76,127.243 61.896,130.603C58.031,133.963 53.952,139.006 50.802,142.936C47.652,146.866 44.821,152.182 42.076,158.828C39.331,165.473 38.323,169.814 37.487,172.555C36.652,175.296 36.112,178.676 34.779,181.137C33.445,183.598 33.212,185.292 33.013,186.628C32.814,187.963 34.921,192.733 40.258,196.9C45.596,201.067 57.814,206.392 64.332,206.43C70.85,206.468 74.634,200.345 77.319,198.291C80.004,196.237 85.234,193.165 85.234,193.165M52.168,171.106C52.168,171.106 51.58,179.08 51.164,181.706C50.748,184.331 50.381,187.759 49.996,189.545C49.611,191.331 49.363,193.071 49.363,193.071C49.363,193.071 50.132,194.555 49.902,195.815M71.321,204.471C71.321,204.471 76.747,207.673 87.219,204.926C87.219,204.926 92.212,202.797 102.143,196.333C112.074,189.868 133.023,188.756 141.058,189.352M133.681,189.6C133.681,189.6 132.75,193.793 128.561,200.166C124.373,206.539 119.197,212.287 116.961,217.18L115.91,220.235C115.91,220.235 119.509,217.577 120.606,217.883C120.606,217.883 120.151,219.182 118.963,223.11C117.774,227.038 117.647,228.197 117.736,230.553C117.825,232.909 118.3,234.342 118.854,235.898C119.408,237.453 119.27,238.339 118.255,239.512C117.239,240.685 115.93,242.718 114.364,246.975C114.364,246.975 113.505,250.064 112.931,252.54M162.406,192.609C162.406,192.609 163.147,186.482 164.653,183.87C166.159,181.258 171.431,174.428 172.837,171.568C174.243,168.707 174.228,165.817 174.129,162.688C174.03,159.56 174.423,156.511 175.822,154.136M175.822,154.136C175.822,154.136 177.112,152.709 177.368,150.191C177.624,147.674 177.093,144.409 176.407,141.258C175.72,138.108 175.691,130.38 176.086,129.39M102.983,139.963C102.983,139.963 105.455,143.439 109.619,143.763M132.287,126.627C132.287,126.627 135.715,125.831 137.575,120.822C139.435,115.814 138.279,112.115 136.107,111.133C133.935,110.15 132.533,111.349 131.1,113.745C129.667,116.142 129.546,116.902 128.765,118.02C127.985,119.138 125.125,124.476 128.012,126.465C128.012,126.465 129.406,127.787 132.287,126.627ZM100.656,132.446C100.656,132.446 98.205,128.198 100.136,121.065C102.068,113.932 111.328,103.86 123.259,102.764C135.19,101.669 144.21,109.286 147.099,114.717C149.989,120.148 148.589,124.364 147.586,125.545C146.583,126.725 140.746,129.916 136.637,130.964C132.528,132.011 128.157,133.733 126.154,134.555C124.15,135.378 117.574,137.255 115.557,138.039C113.54,138.823 106.368,142.942 100.656,132.446ZM124.521,76.536C124.521,76.536 126.554,78.906 134.334,78.125C134.334,78.125 134.636,84.649 149.002,88.122C149.002,88.122 151.328,92.233 153.519,93.678M110.335,79.627C110.335,79.627 110.498,75.83 115.156,72.832C119.815,69.834 122.018,69.788 122.018,69.788C122.018,69.788 120.185,62.828 125.708,59.6C131.232,56.371 138.046,56.268 144.925,56.118C151.804,55.967 163.91,56.65 163.91,56.65C163.91,56.65 165.678,56.883 166.722,55.588C167.766,54.292 167.955,54.411 170.524,54.457C173.092,54.504 175.215,55.184 175.215,55.184M163.165,82.513C163.165,82.513 165.077,83.727 164.144,88.004C164.144,88.004 166.486,82.36 168.776,83.861C171.066,85.361 170.931,92.69 169.548,95.677C169.548,95.677 172.045,93.304 172.158,96.876C172.271,100.449 170.228,104.494 170.067,104.614M164.384,83.48C164.384,83.48 173.544,64.059 177.418,46.578C181.293,29.097 183.288,19.847 184.919,17.548C186.55,15.249 189.354,10.609 197.055,15.622C204.757,20.635 219.876,39.981 219.056,56.926C218.236,73.87 207.412,103.132 171.897,101.539M189.441,34.746C189.441,34.746 190.919,30.925 191.179,28.541C191.439,26.157 192.253,24.949 195.484,31.309C198.715,37.67 210.694,74.714 175.14,93.861M216.852,72.089C216.852,72.089 234.295,75.763 238.195,80.502C238.195,80.502 239.387,81.522 239.279,83.696C239.171,85.87 237.984,84.741 240.738,86.739C243.493,88.738 250.349,95.977 253.078,103.494M136.043,56.518C136.043,56.518 128.646,48.526 123.531,45.868C118.416,43.21 111.916,39.704 108.876,38.188C105.835,36.671 102.038,34.308 100.626,34.041C99.214,33.775 96.552,33.693 96.352,36.672C96.152,39.651 96.571,42.823 96.571,42.823C96.571,42.823 96.567,46.609 97.27,49.71C97.973,52.811 103.106,67.667 111.63,76.461M103.545,50.14C103.545,50.14 101.677,45.011 102.856,44.568C104.034,44.126 108.547,48.405 110.854,49.958C113.16,51.511 123.469,60.82 123.753,61.327" style="fill:none;stroke:black;stroke-width:1.34px;"/>
    </g>
</svg>
