<?xml version="1.0" encoding="UTF-8" standalone="no"?>
<!DOCTYPE svg PUBLIC "-//W3C//DTD SVG 1.1//EN" "http://www.w3.org/Graphics/SVG/1.1/DTD/svg11.dtd">
<svg width="100%" height="100%" viewBox="0 0 250 250" version="1.1" xmlns="http://www.w3.org/2000/svg" xmlns:xlink="http://www.w3.org/1999/xlink" xml:space="preserve" xmlns:serif="http://www.serif.com/" style="fill-rule:evenodd;clip-rule:evenodd;stroke-linecap:round;stroke-linejoin:round;stroke-miterlimit:1.5;">
    <g id="Layer3">
        <path d="M96.571,80.143C96.571,80.143 54.92,94.302 38.13,134.367C38.13,134.367 25.469,169.241 34.789,184.438C34.789,184.438 41.167,192.861 48.37,192.927C48.37,192.927 60.04,192.626 64.935,189.637C69.831,186.649 73.595,180.197 84.959,177.467C96.324,174.737 101.818,173.412 115.714,173.809M112.643,178.281C112.643,178.281 114.163,171.033 120.383,174.969M130.72,170.818C130.72,170.818 123.235,166.812 119.22,178.1M143.54,157.53C143.54,157.53 131.055,156.852 130.576,172.856M150.239,136.898C150.239,136.898 137.057,141.201 143.796,157.479M145.353,112.531C145.353,112.531 134.593,124.119 150.378,136.84M89.603,133.059C89.603,133.059 82.569,119.274 96.594,109.187C110.619,99.101 128.47,100.243 132.456,110.855C136.441,121.467 126.918,129.984 121.059,133.3C115.201,136.615 95.874,145.25 89.603,133.059ZM140.697,96.006C140.697,96.006 136.675,100.056 141.982,103.412C141.982,103.412 136.532,109.355 145.419,112.792M93.422,74.712C93.422,74.712 96.705,89.474 117.781,79.458M116.562,79.993C116.562,79.993 115.898,85.168 124.111,83.351C124.111,83.351 122.093,98.347 140.841,95.934M88.858,138.535C88.858,138.535 89.282,144.019 96.151,145.319M91.932,128.225C91.932,128.225 91.686,130.246 96.316,129.094C100.945,127.943 108.511,124.505 109.339,122.189C110.168,119.873 105.91,117.875 98.971,121.075C92.031,124.275 91.696,126.697 91.932,128.225ZM53.091,158.043C53.091,158.043 47.451,163.524 48.191,170.686C48.191,170.686 49.7,176.466 52.121,168.667C54.239,161.843 53.108,157.877 53.091,158.043ZM108.279,173.801C108.279,173.801 97.557,185.253 111.338,197.722C111.338,197.722 106.744,204.748 117.429,211.63C117.429,211.63 112.342,213.643 114.057,225.172C115.773,236.7 125.478,239.22 125.397,239.292M122.544,237.722C122.544,237.722 114.035,240.479 112.944,251.461M81.22,87.472C81.22,87.472 72.234,83.026 82.903,67.899C82.903,67.899 87.958,63.005 94.632,60.592M254.243,107.674C253.265,104.69 248.044,100.771 248.044,100.771C246.929,89.757 238.555,89.385 238.555,89.385C238.49,66.033 215.733,65.241 215.733,65.241C215.661,59.635 210.387,60.372 210.387,60.372C203.87,42.46 184.975,48.637 184.975,48.637C179.083,37.672 167.031,43.177 167.031,43.177C148.205,28.888 133.614,41.558 133.614,41.558C133.614,41.558 120.409,36.488 108.881,43.004C97.354,49.519 95.152,58.228 94.925,61.188M172.712,88.505C172.712,88.505 170.593,93.515 166.166,96.274C166.166,96.274 168.357,100.505 164.3,102.588C164.3,102.588 166.758,105.635 164.871,110.25C164.871,110.25 170.375,114.032 169.89,121.957M169.742,117.257C169.742,117.257 175.138,125.314 183.759,140.118C192.38,154.921 204.912,162.328 216.067,161.267C227.222,160.205 229.051,138.125 222.354,124.89C215.656,111.654 196.556,96.626 169.474,93.707M169.899,116.989C169.899,116.989 179.202,127.131 181.584,130.764C183.966,134.397 190.321,143.278 193.228,145.868" style="fill:none;stroke:black;stroke-width:1.34px;"/>
    </g>
</svg>
