<?xml version="1.0" encoding="UTF-8" standalone="no"?>
<!DOCTYPE svg PUBLIC "-//W3C//DTD SVG 1.1//EN" "http://www.w3.org/Graphics/SVG/1.1/DTD/svg11.dtd">
<svg width="100%" height="100%" viewBox="0 0 250 250" version="1.1" xmlns="http://www.w3.org/2000/svg" xmlns:xlink="http://www.w3.org/1999/xlink" xml:space="preserve" xmlns:serif="http://www.serif.com/" style="fill-rule:evenodd;clip-rule:evenodd;stroke-linecap:round;stroke-linejoin:round;stroke-miterlimit:1.5;">
    <g id="Layer6">
        <path d="M97.587,81.709C97.587,81.709 78.944,91.974 72.585,98.793C66.226,105.612 64.352,110.237 58.969,116.418C53.586,122.598 41.279,141.093 38.951,146.126C36.623,151.159 32.551,165.067 33.442,177.316C34.332,189.564 41.973,196.041 52.858,198.276C63.743,200.511 67.947,196.759 72.128,195.179C76.309,193.599 96.526,181.044 126.13,181.202M51.985,168.819C51.985,168.819 49.319,171.171 48.634,175.5C47.95,179.83 48.368,186.09 50.42,185.915C52.471,185.74 52.386,182.702 52.032,180.374C51.678,178.045 51.196,176.937 51.655,174.873C52.114,172.81 53.165,168.08 51.985,168.819ZM92.12,139.06C92.12,139.06 93.791,143.243 100.863,144.56M104.992,79.036C104.992,79.036 110.87,82.62 117.993,79.369M117.719,80.011C117.719,80.011 119.502,83.475 124.776,82.67M124.84,84.063C124.84,84.063 124.509,96.003 144.123,94.834C144.123,94.834 139.88,102.59 151.997,104.448C151.997,104.448 148.98,108.434 153.028,111.552M160.439,111.615C160.439,111.615 150.281,129.715 165.43,140.218C165.43,140.218 146.809,148.76 160.094,168.477C160.094,168.477 143.655,168.682 143.272,184.575M126.393,186.208C126.393,186.208 131.278,178.999 142.64,184.49M120.061,181.269C120.061,181.269 109.948,196.167 117.983,199.099C117.983,199.099 115.214,206.804 119.272,211.761C119.272,211.761 111.165,228.216 123.198,238.352C123.198,238.352 115.852,239.321 113.182,250.625M87.496,87.679C87.496,87.679 85.322,75.284 101.564,68.728C101.564,68.728 96.172,58.321 114.88,50.987C114.88,50.987 119.216,48.868 124.066,49.68C124.066,49.68 123.637,44.636 138.553,45.366C153.468,46.095 156.331,47.141 157.712,47.801C157.712,47.801 162.03,49.763 163.402,46.918C163.402,46.918 164.296,43.659 169.362,44.512C174.428,45.365 182.379,47.73 185.777,49.605C189.174,51.48 196.511,54.92 196.338,55.008C196.165,55.096 202.577,53.91 208.664,59.385C214.752,64.859 215.593,67.12 216.474,67.774C217.355,68.427 222.515,69.799 224.793,70.595C227.07,71.392 235.155,74.995 237.212,81.221C239.268,87.447 239.123,88.058 240.16,89.44C241.197,90.822 246.119,92.464 247.78,98.947C247.78,98.947 250.721,100.967 252.051,103.504M171.557,86.33C171.557,86.33 171.075,90.199 167.176,93.084C167.176,93.084 171.38,93.006 172.117,98.163C172.117,98.163 172.81,101.764 168.57,103.557C168.57,103.557 171.239,106.984 168.559,110.381C168.559,110.381 171.782,112.023 172.068,114.79M169.487,91.217C169.487,91.217 182.382,83.122 196.092,83.459C209.803,83.795 220.939,90.77 226.131,100.039C231.323,109.309 236.727,118.888 236.145,128.11C235.563,137.332 231.957,142.453 224.542,144.409C217.127,146.366 211.238,142.901 203.705,136.122C196.171,129.343 182.787,116.822 180.829,115.938C178.872,115.055 171.184,109.255 169.599,109.081M170.036,106.921C170.036,106.921 200.38,115.154 217.776,134.936M103.731,126.281C103.731,126.281 111.144,124.405 112.765,122.068C114.386,119.732 112.173,117.063 102.916,119.443C102.916,119.443 93.083,122.07 93.543,126.962C93.543,126.962 93.185,128.615 98.054,127.619C103.252,126.556 103.731,126.281 103.731,126.281ZM91.618,131.2C91.618,131.2 93.264,137.781 103.369,138.819C113.474,139.857 123.732,135.575 128.891,133.172C134.051,130.769 143.39,125.369 141.094,115.1C138.799,104.831 126.398,99.069 114.984,102.359C103.569,105.648 95.86,108.945 92.01,118.552C89.288,125.344 91.462,131.223 91.618,131.2Z" style="fill:none;stroke:black;stroke-width:1.34px;"/>
    </g>
</svg>
