<?xml version="1.0" encoding="UTF-8" standalone="no"?>
<!DOCTYPE svg PUBLIC "-//W3C//DTD SVG 1.1//EN" "http://www.w3.org/Graphics/SVG/1.1/DTD/svg11.dtd">
<svg width="100%" height="100%" viewBox="0 0 250 250" version="1.1" xmlns="http://www.w3.org/2000/svg" xmlns:xlink="http://www.w3.org/1999/xlink" xml:space="preserve" xmlns:serif="http://www.serif.com/" style="fill-rule:evenodd;clip-rule:evenodd;stroke-linecap:round;stroke-linejoin:round;stroke-miterlimit:1.5;">
    <g id="Layer2">
        <path d="M95.667,79.632C95.667,79.632 58.341,92.168 40.793,126.519C40.793,126.519 30.718,144.129 31.312,172.029C31.312,172.029 29.337,188.56 44.448,190.939C44.448,190.939 50.86,191.758 55.326,190.747C59.792,189.736 61.923,191.289 67.14,186.385C72.356,181.482 81.36,169.258 118.929,172.862M89.203,132.571C89.203,132.571 91.056,141.068 103.432,139.585C113.593,138.367 131.417,129.092 131.721,116.348C132.025,103.599 118.402,101.115 110.743,102.665C103.085,104.214 83.55,112.977 89.203,132.571ZM107.305,172.455C107.305,172.455 94.829,184.91 110.922,197.367C110.922,197.367 104.592,205.612 116.71,211.545C116.71,211.545 106.371,227.093 122.953,238.246C122.953,238.246 113.722,239.29 113.098,251.444M88.615,138.451C88.615,138.451 90.676,145.434 96.645,146.135M91.682,127.847C91.682,127.847 91.711,131.073 97.441,128.991C103.172,126.909 110.359,124.471 109.268,121.495C108.177,118.52 93.253,119.776 91.682,127.847ZM54.772,155.903C54.772,155.903 50.581,158.414 48.984,163.659C47.386,168.905 48.148,171.736 50.178,171.037C52.208,170.338 53.499,162.678 54.059,160.481C54.618,158.284 54.772,155.903 54.772,155.903ZM168.909,117.099C168.909,117.099 173.182,121.044 176.162,127.988C179.142,134.932 185.788,150.28 194.782,155.991C203.775,161.703 213.461,164.367 217.946,162.139C222.431,159.911 227.482,152.512 224.586,136.227C221.69,119.943 204.431,101.273 169.709,93.312M169.126,124.421C169.126,124.421 171.505,116.916 164.023,110.118C164.023,110.118 166.988,106.886 163.794,103.286C163.794,103.286 167.597,99.377 164.312,95.408C164.312,95.408 171.14,95.311 172.779,87.889M118.167,179.051C118.167,179.051 118.239,166.151 128.414,168.278M113.772,172.837C113.772,172.837 110.554,175.977 111.581,180.151M128.722,171.811C128.722,171.811 126.656,157.794 140.961,155.313M142.271,157.16C142.271,157.16 134.432,142.392 147.331,136.659M144.383,113.4C144.383,113.4 139.031,116.382 139.942,124.88C140.854,133.378 145.813,135.675 149.604,137.548M141.744,103.449C141.744,103.449 134.81,107.768 144.678,113.432M140.181,96.642C140.181,96.642 135.708,100.752 141.722,103.676M123.909,83.296C123.909,83.296 120.558,97.917 140.321,96.908M116.441,80.293C116.441,80.293 117.416,85.075 124.307,83.303M92.253,73.38C92.253,73.38 95.152,90.598 118.713,79.367M80.355,87.423C80.355,87.423 69.215,78.665 81.377,65.581C81.377,65.581 88.685,58.368 94.606,59.409C94.606,59.409 92.634,46.581 107.749,40.842C122.864,35.102 130.71,37.972 132.994,40.254C132.994,40.254 138.275,30.407 159.783,37.753C159.783,37.753 168.4,42.074 171.315,45.631M168.067,42.892C168.067,42.892 177.902,35.768 185.458,47.721M185.382,46.907C185.382,46.907 204.396,39.601 211.341,59.507C211.341,59.507 216.568,58.796 216.313,64.837C216.313,64.837 228.146,62.675 236.947,78.11C236.947,78.11 239.539,84.141 237.889,89.869M237.959,89.492C237.959,89.492 247.648,89.83 247.803,100.068C247.803,100.068 253.407,105.095 251.146,107.714" style="fill:none;stroke:black;stroke-width:1.34px;"/>
    </g>
</svg>
