<?xml version="1.0" encoding="UTF-8" standalone="no"?>
<!DOCTYPE svg PUBLIC "-//W3C//DTD SVG 1.1//EN" "http://www.w3.org/Graphics/SVG/1.1/DTD/svg11.dtd">
<svg width="100%" height="100%" viewBox="0 0 250 250" version="1.1" xmlns="http://www.w3.org/2000/svg" xmlns:xlink="http://www.w3.org/1999/xlink" xml:space="preserve" xmlns:serif="http://www.serif.com/" style="fill-rule:evenodd;clip-rule:evenodd;stroke-linecap:round;stroke-linejoin:round;stroke-miterlimit:1.5;">
    <g id="Layer4">
        <path d="M52.401,159.929C52.401,159.929 49.259,162.965 48.282,167.728C47.304,172.49 48.254,176.351 50.018,175.316C51.782,174.281 51.768,168.547 52.209,166.643C52.649,164.738 53.469,159.374 52.401,159.929ZM89.551,138.967C89.551,138.967 90.701,145.532 97.663,144.965M144.636,121.94C144.636,121.94 144.042,115.204 146.904,112.59C146.904,112.59 139.344,110.767 142.542,103.674C142.542,103.674 138.468,100.691 140.296,96.828C140.296,96.828 125.155,97.965 123.645,83.024C123.645,83.024 119.555,84.725 116.936,80.268M94.211,75.255C94.211,75.255 99.117,90.025 117.56,80.064M145.001,124.328C145.001,124.328 145.899,133.874 151.171,137.288C151.171,137.288 139.814,142.191 145.963,158.187C145.963,158.187 134.816,157.302 131.704,172.571C131.704,172.571 122.205,168.98 119.283,179.901M109.457,175.064C109.457,175.064 99.957,188.307 112.906,198.379C112.906,198.379 107.752,205.135 118.283,212.184M117.167,211.602C117.167,211.602 107.71,226.465 123.503,237.814C123.503,237.814 114.906,238.116 113.64,250.929M111.925,182.298C111.925,182.298 113.735,176.867 116.407,175.115M120.782,175.656C120.782,175.656 100.54,172.899 81.638,180.694C81.638,180.694 75.656,183.432 71.7,187C67.744,190.569 59.431,194.252 51.876,193.801C44.322,193.349 30.727,188.981 31.824,168.588C32.921,148.195 39.243,129.32 54.36,109.404C69.478,89.488 94.116,81.749 95.846,81.582M81.512,87.59C81.512,87.59 74.278,81.723 84.232,69.598C84.232,69.598 88.951,64.007 95.588,63.253C95.588,63.253 97.612,46.267 115.304,42.47C115.304,42.47 123.307,40.083 133.517,42.549C133.517,42.549 150.015,32.226 166.205,43.918C166.205,43.918 177.889,38.398 185.259,48.823M185.259,48.823C185.259,48.823 203.936,45.291 209.791,60.319C209.791,60.319 214.568,60.541 215.424,66.022C215.424,66.022 238.058,65.838 238.366,89.479C238.366,89.479 246.443,89.202 247.97,100.21C247.97,100.21 249.394,100.543 251.526,105.215M91.803,128.268C91.803,128.268 90.461,125.013 95.437,122.339C100.413,119.666 108.733,118.848 110.134,120.312C111.536,121.775 110.77,124.139 107.438,125.234C104.105,126.33 98.866,128.468 97.626,128.837C96.386,129.206 93.213,129.919 91.803,128.268ZM89.246,129.216C89.246,129.216 86.562,116.564 96.748,109.605C106.934,102.646 122.037,101.888 129.467,105.383C136.898,108.879 134.858,121.361 131.803,125.379C128.747,129.398 118.361,139.233 101.6,139.629C101.6,139.629 91.889,140.322 89.246,129.216ZM172.702,88.892C172.702,88.892 170.687,94.462 166.613,94.829C166.613,94.829 170.315,99.808 164.79,103.504C164.79,103.504 168.012,106.595 165.167,110.674M169.707,118.607C169.707,118.607 169.684,113.746 165.689,110.267M169.168,115.398C169.168,115.398 173.919,118.783 175.452,122.495C176.985,126.206 185.509,146.67 199.79,155.698C214.071,164.727 224.779,158.471 226.006,152.016C227.233,145.561 230.466,130.556 216.658,114.51C202.85,98.463 177.097,93.301 170.355,92.986M173.921,119.83C173.921,119.83 183.422,128.456 187.032,133.561C190.642,138.667 197.416,146.695 200.076,148.867" style="fill:none;stroke:black;stroke-width:1.34px;"/>
    </g>
</svg>
