<?xml version="1.0" encoding="UTF-8" standalone="no"?>
<!DOCTYPE svg PUBLIC "-//W3C//DTD SVG 1.1//EN" "http://www.w3.org/Graphics/SVG/1.1/DTD/svg11.dtd">
<svg width="100%" height="100%" viewBox="0 0 250 250" version="1.1" xmlns="http://www.w3.org/2000/svg" xmlns:xlink="http://www.w3.org/1999/xlink" xml:space="preserve" xmlns:serif="http://www.serif.com/" style="fill-rule:evenodd;clip-rule:evenodd;stroke-linecap:round;stroke-linejoin:round;stroke-miterlimit:1.5;">
    <g id="Layer5">
        <path d="M96.762,81.786C96.762,81.786 73.209,92.713 64.039,102.416C54.869,112.119 50.059,120.78 45.036,128.555C40.014,136.33 34.105,147.883 32.393,164.403C30.68,180.923 35.194,189.578 45.555,193.72C45.555,193.72 54.361,195.266 57.91,195.102C61.459,194.938 68.529,192.288 71.704,190.056C74.879,187.823 93.234,174.611 120.883,178.253M112.162,177.691C112.162,177.691 107.594,182.442 108.662,189.353C109.729,196.265 113.13,197.114 114.801,197.852M114.801,197.852C114.801,197.852 110.292,203.625 117.848,211.564C117.848,211.564 110.446,228.082 123.713,237.888C123.713,237.888 115.847,239.569 112.392,250.676M112.747,184.137C112.747,184.137 113.777,179.002 116.129,178.144M119.483,184.31C119.483,184.31 119.184,176.945 126.583,175.316C126.583,175.316 130.569,174.805 133.279,176.356C133.279,176.356 134.015,161.161 148.929,160.953C148.929,160.953 142.373,147.781 155.15,139.471C155.15,139.471 146.478,131.597 152.618,120.947M154.71,117.482C154.71,117.482 148.473,117.757 148.944,110.376C148.944,110.376 142.068,109.501 145.197,103.088C145.197,103.088 139.022,102.798 141.39,95.945C141.39,95.945 125.962,97.299 123.906,83.689C123.906,83.689 118.357,84.08 117.896,80.214M98.48,76.407C98.48,76.407 102.419,86.82 118.641,79.509M82.943,89.097C82.943,89.097 72.981,76.676 97.522,66.045C97.522,66.045 92.978,54.019 116.433,45.135C116.433,45.135 126.092,41.505 133.904,43.75C133.904,43.75 146.264,36.154 165.438,45.223C165.438,45.223 175.317,39.944 185.902,50.391C185.902,50.391 201.505,47.029 209.657,61.002C209.657,61.002 214.973,61.972 215.997,67.031C215.997,67.031 228.828,65.074 236.417,79.252C236.417,79.252 238.973,84.18 238.389,89.539C238.389,89.539 246.035,89.147 247.612,99.207C247.612,99.207 251.161,101.738 252.131,104.507M172.248,88.585C172.248,88.585 171.458,93.717 167.027,94.526C167.027,94.526 173.191,98.802 165.803,103.482C165.803,103.482 168.741,105.925 166.007,109.737C166.007,109.737 169.395,111.177 169.764,116.556M168.95,112.663C168.95,112.663 175.027,116.4 178.084,121.237C181.141,126.074 191.797,139.856 195.841,144.351C199.884,148.846 210.224,157.159 218.921,157.381C227.619,157.604 231.913,143.229 230.221,134.204C228.529,125.179 225.136,112.865 209.301,102.128C193.465,91.392 177.624,91.531 170.629,92.396M203.811,140.942C203.811,140.942 188.784,113.348 167.46,109.259M52.362,162.105C52.362,162.105 51.557,161.067 50.078,163.895C48.6,166.722 46.977,177.297 48.612,179.424C50.247,181.551 50.973,179.466 51.521,176.194C52.068,172.922 51.701,170.087 52.448,168.101C53.195,166.115 53.393,162.951 52.362,162.105ZM89.838,138.697C89.838,138.697 92.282,143.272 96.396,144.169M93.695,126.477C93.695,126.477 92.996,129.137 96.04,128.765C99.084,128.393 107.952,124.473 109.371,124.097C110.789,123.721 113.653,121.465 112.319,119.741C110.985,118.016 98.192,117.873 93.695,126.477ZM90.715,131.793C90.715,131.793 91.923,138.958 100.643,139.774C109.362,140.59 121.775,135.433 129.585,130.069C137.395,124.705 140.499,116.877 133.864,109.362C127.228,101.846 115.926,100.072 101.666,107.56C85.989,115.792 90.561,131.733 90.715,131.793Z" style="fill:none;stroke:black;stroke-width:1.34px;"/>
    </g>
</svg>
