<?xml version="1.0" encoding="UTF-8" standalone="no"?>
<!DOCTYPE svg PUBLIC "-//W3C//DTD SVG 1.1//EN" "http://www.w3.org/Graphics/SVG/1.1/DTD/svg11.dtd">
<svg width="100%" height="100%" viewBox="0 0 250 250" version="1.1" xmlns="http://www.w3.org/2000/svg" xmlns:xlink="http://www.w3.org/1999/xlink" xml:space="preserve" xmlns:serif="http://www.serif.com/" style="fill-rule:evenodd;clip-rule:evenodd;stroke-linecap:round;stroke-linejoin:round;stroke-miterlimit:1.5;">
    <g id="Layer7">
        <path d="M101.789,81.6C101.789,81.6 80.933,93.259 75.664,99.472C70.395,105.685 71.069,107.099 69.2,110.648C67.331,114.196 64.803,119.678 60.117,123.872C55.432,128.065 46.568,138.726 44.399,141.93C42.229,145.134 38.337,154.397 37.475,158.19C36.612,161.984 35.896,168.465 35.146,170.812C34.396,173.159 33.149,181.309 35.24,186.145C37.33,190.981 42.368,198.782 56.861,201.029C68.201,202.787 94.095,191.108 98.112,190.103C102.129,189.098 115.724,184.743 129.286,185.491M133.208,186.098C133.208,186.098 137.216,184.595 143.777,187.187C143.777,187.187 147.013,175.069 153.799,172.106C160.585,169.143 163.459,170.996 163.784,171.391C163.784,171.391 154.993,162.355 157.887,150.087C157.887,150.087 159.51,143.548 166.904,140.099C166.904,140.099 156.688,131.826 161.594,115.847M93.806,139.518C93.806,139.518 96.329,144.413 103.18,144.167M106.275,125.553C106.275,125.553 112.922,123.915 114.261,122.781C115.6,121.647 116.353,120.719 115.227,118.772C114.456,117.439 108.156,118.067 104.141,119.493C100.126,120.919 96.294,121.8 96.569,125.807C96.759,128.596 105.644,125.629 106.275,125.553ZM95.29,133.803C95.29,133.803 97.242,139.327 107.762,138.933C118.281,138.539 123.266,136.12 127.01,134.635C130.753,133.149 141.001,131.001 143.222,122.763C145.443,114.524 139.707,105.214 129.144,102.639C118.58,100.063 106.357,102.696 99.198,110.258C92.039,117.819 92.409,130.842 95.29,133.803ZM52.46,171.102C52.46,171.102 51.288,178.33 50.354,180.591C49.42,182.851 48.093,190.607 50.118,189.558C52.142,188.509 52.194,181.055 52.083,180.805M124.895,185.463C124.895,185.463 120.557,191.993 120.314,196.422C120.314,196.422 120.165,197.42 120.68,199.197C121.195,200.974 121.272,199.782 120.543,201.326C119.813,202.87 116.986,207.694 118.467,211.355C118.467,211.355 118.979,211.917 119.545,212.829C120.111,213.741 119.689,214.449 119.14,216.422C118.591,218.395 114.773,227.886 121.016,237.814C121.016,237.814 114.914,243.085 113.591,250.732M108.098,78.651C108.098,78.651 112.358,80.466 116.523,78.188C116.523,78.188 119.286,82.655 125.279,81.489C125.279,81.489 123.9,89.42 135.456,93.234C135.456,93.234 140.088,94.994 144.906,93.522C144.906,93.522 140.438,100.457 154.174,102.901M157.489,110.479C157.489,110.479 151.6,108.942 153.613,103.181M90.697,87.935C90.697,87.935 92.654,84.979 94.164,83.616C94.164,83.616 94.809,82.528 94.701,80.922C94.592,79.316 95.437,77.252 98.794,74.075C102.151,70.898 109.656,66.646 111.573,66.367C111.573,66.367 107.362,60.24 115.089,53.699C115.089,53.699 123.129,43.859 163.843,51.006C163.843,51.006 164.513,51.32 164.475,49.296C164.475,49.296 164.091,46.564 167.879,46.165C171.667,45.766 179.542,46.361 193.027,55.139C193.027,55.139 197.59,55.284 200.31,56.056C203.03,56.828 212.129,61.415 217.532,68.291M168.438,85.405C168.438,85.405 168.004,88.262 163.126,91.918C163.126,91.918 175.062,94.575 166.278,101.34M166.742,100.988C166.742,100.988 171.46,105.431 167.55,109.138M168.052,108.759C168.052,108.759 170.022,109.561 170.734,111.116M169.403,106.223C169.403,106.223 191.415,112.083 196.331,113.021C201.247,113.959 218.946,116.64 232.926,107.071C246.907,97.501 245.428,85.455 244.253,80.751C244.253,80.751 242.11,78.777 238.842,76.486C235.573,74.195 207.046,53.56 167.205,88.227M169.829,100.328C169.829,100.328 190.49,105.488 207.496,98.757C207.496,98.757 223.028,90.775 225.954,89.173M88.456,89.533C88.456,89.533 80.23,81.071 84.006,68.01C84.006,68.01 84.219,62.592 91.917,63.14C99.615,63.688 105.207,64.836 108.352,67.807" style="fill:none;stroke:black;stroke-width:1.34px;"/>
    </g>
</svg>
