<?xml version="1.0" encoding="UTF-8" standalone="no"?>
<!DOCTYPE svg PUBLIC "-//W3C//DTD SVG 1.1//EN" "http://www.w3.org/Graphics/SVG/1.1/DTD/svg11.dtd">
<svg width="100%" height="100%" viewBox="0 0 250 250" version="1.1" xmlns="http://www.w3.org/2000/svg" xmlns:xlink="http://www.w3.org/1999/xlink" xml:space="preserve" xmlns:serif="http://www.serif.com/" style="fill-rule:evenodd;clip-rule:evenodd;stroke-linecap:round;stroke-linejoin:round;stroke-miterlimit:1.5;">
    <g id="Layer8">
        <path d="M104.055,82.243C104.055,82.243 88.147,91.544 83.271,95.697C78.394,99.85 77.758,102.631 76.235,105.963C74.711,109.295 73,114.212 71.984,115.555C70.969,116.898 64.71,124.559 60.191,128.496C55.672,132.433 49.403,139.197 46.152,145.349C42.9,151.501 39.888,158.807 38.142,167.198C36.396,175.589 35.392,180.651 34.918,183.54C34.445,186.429 34.567,187.04 35.483,188.962C36.399,190.883 43.979,199.056 51.534,201.378C59.088,203.7 60.548,202.592 62.813,202.443C65.077,202.294 68.66,200.295 69.953,200.523M64.634,202.353C64.634,202.353 73.638,207.216 86.185,199.999C97.398,193.549 118.673,189.226 133.601,188.401M133.601,188.401C135.378,188.303 137.065,188.254 138.635,188.258M133.681,188.224C133.681,188.224 133.654,188.287 133.601,188.401M133.601,188.401C133.219,189.235 131.505,192.812 129.358,194.821C126.917,197.105 121.766,203.445 119.995,208.065C119.995,208.065 118.844,209.213 124.252,210.811C124.252,210.811 125.458,210.669 124.48,212.751C123.502,214.834 119.246,222.565 118.512,226.852C117.778,231.14 119.514,235.346 121.037,237.555C121.037,237.555 114.313,241.16 113.007,250.651M145.233,188.189C145.233,188.189 146.138,186.732 147.488,186.841C147.488,186.841 146.544,171.623 161.988,172.562M164.523,168.672C164.523,168.672 151.298,149.802 169.74,140.558C169.74,140.558 159.188,130.781 165.366,116.78M54.345,167.033C54.345,167.033 53.407,171.743 53.341,174.631C53.274,177.519 51.706,180.17 50.181,182.518C48.656,184.866 48.068,192.894 49.811,192.805C51.553,192.717 51.427,187.974 51.301,186.735M95.967,140.738C95.967,140.738 96.967,143.595 106.193,143.647M127.829,112.266C127.829,112.266 120.453,115.44 116.927,116.903C113.4,118.366 110.792,119.228 108.266,120.42C105.739,121.612 104.422,122.055 104.48,123.793C104.538,125.531 107.858,124.671 110.409,124.364C112.96,124.057 119.514,123.977 121.922,124.122C124.329,124.267 130.012,123.133 133.155,118.911C136.298,114.688 136.088,109.383 127.829,112.266ZM95.583,131.294C95.583,131.294 92.152,122.63 98.894,112.277C105.636,101.925 126.29,95.793 138.834,107.777C138.834,107.777 145.259,114.502 144.746,122.725C144.234,130.948 136.221,131.695 129.149,134.353C122.077,137.012 114.186,137.887 111.494,138.68C107.592,139.829 99.186,139.878 95.583,131.294ZM117.354,78.383C117.354,78.383 119.156,80.562 126.376,79.735C126.376,79.735 125.427,92.247 143.355,91.873C143.355,91.873 146.378,91.53 146.24,92.763C146.24,92.763 143.594,97.037 153.64,100.187M162.895,81.689C162.895,81.689 163.737,87.862 160.471,91.019C160.471,91.019 168.803,86.834 168.703,92.252C168.703,92.252 168.897,94.45 165.081,98.366C165.081,98.366 170.053,100.649 168.427,105.995C168.427,105.995 170.011,106.927 170.4,107.547M162.967,85.754C162.967,85.754 175.331,73.119 179.447,67.03C183.564,60.942 189.292,54.998 190.892,52.984C192.492,50.97 197.667,45.55 211.037,44.173C224.406,42.796 227.244,42.65 228.872,44.487C230.463,46.283 236.862,56.347 231.349,77.121M231.349,77.121C231.325,77.211 231.301,77.302 231.276,77.392C226.405,95.489 207.389,110.095 170.551,103.721M170.673,95.204C170.673,95.204 194.169,95.195 205.16,84.894C216.15,74.592 215.2,64.932 214.69,59.596M231.286,77.121C231.286,77.121 231.308,77.121 231.349,77.121M231.349,77.121C232.084,77.119 239.028,77.253 239.741,82.669C239.741,82.669 240.19,85.522 239.067,87.229C239.067,87.229 237.903,87.675 240.619,89.323C243.334,90.97 250.369,95.091 253.409,104.068M189.19,54.519C189.19,54.519 181.098,46.231 172.128,47.043C172.128,47.043 167.349,47.126 169.204,52.947C169.204,52.947 154.796,51.743 150.04,51.305C145.932,50.928 130.059,50.158 123.469,51.709M123.469,51.709C122.428,51.954 121.618,52.257 121.123,52.629C117.499,55.354 116.738,57.625 120.319,63.787L121.672,66.084C121.672,66.084 120.367,66.505 118.289,66.701C116.211,66.897 106.809,69.382 110.023,75.327C110.023,75.327 106.327,79.515 104.689,81.354M104.689,81.354C104.504,81.561 104.346,81.739 104.222,81.877M123.614,51.785C123.614,51.785 123.563,51.758 123.469,51.709M123.469,51.709C122.453,51.173 116.349,47.952 113.634,46.497C110.667,44.907 106.637,42.73 104.749,41.325C102.862,39.921 98.921,35.733 97.603,40.573C96.297,45.373 88.931,74.979 104.689,81.354M104.689,81.354C104.819,81.407 104.951,81.458 105.085,81.508M115.466,66.055C115.466,66.055 112.441,60.457 108.869,57.424C105.297,54.391 103.905,52.435 103.048,51.888C102.191,51.34 102.297,51.956 102.327,53.49" style="fill:none;stroke:black;stroke-width:1.34px;"/>
    </g>
</svg>
