<?xml version="1.0" encoding="UTF-8" standalone="no"?>
<!DOCTYPE svg PUBLIC "-//W3C//DTD SVG 1.1//EN" "http://www.w3.org/Graphics/SVG/1.1/DTD/svg11.dtd">
<svg width="100%" height="100%" viewBox="0 0 250 250" version="1.1" xmlns="http://www.w3.org/2000/svg" xmlns:xlink="http://www.w3.org/1999/xlink" xml:space="preserve" xmlns:serif="http://www.serif.com/" style="fill-rule:evenodd;clip-rule:evenodd;stroke-linecap:round;stroke-linejoin:round;stroke-miterlimit:1.5;">
    <g id="Layer10">
        <path d="M164.309,57.17C164.309,57.17 136.796,59.461 130.767,61.861C130.767,61.861 122.964,62.713 123.114,68.45C123.114,68.45 123.15,70.873 122.813,71.151C122.813,71.151 112.483,76.161 112.646,80.434M114.872,79.385C114.872,79.385 97.228,89.184 93.122,92.21C89.016,95.235 89.279,95.545 87.579,97.524C85.878,99.503 83.64,104.526 82.793,106.444C81.946,108.361 80.143,113.107 79.476,114.61C78.809,116.113 78.334,118.046 77.595,118.746C76.856,119.445 72.129,125.245 70.128,126.644C68.127,128.043 58.993,136.015 56.297,138.961C53.601,141.907 46.719,150.325 44.354,156.637C41.988,162.95 38.033,174.267 35.679,178.709C35.679,178.709 34.381,181.913 33.525,183.14C32.67,184.366 30.922,187.27 32.085,190.22C33.247,193.17 39.276,199.913 40.972,201.091C42.669,202.268 47.602,203.189 49.466,203.583C51.329,203.977 54.723,204.814 55.55,205.832C56.377,206.849 61.748,208.985 63.37,209.353C64.992,209.721 67.734,208.955 72.43,206.651C77.126,204.347 81.295,200.748 83.498,199.019C85.701,197.29 96.345,189.586 99.209,189.273M74.478,206.153C74.478,206.153 78.078,209.488 86.059,206.938C94.04,204.388 94.18,202.942 102.714,197.719C111.248,192.496 118.959,189.152 144.082,189.673M135.188,189.71C135.188,189.71 133.021,202.433 122.2,215.018C111.378,227.603 113.268,225.694 113.268,225.694C113.268,225.694 111.891,227.185 114.214,227.266C114.214,227.266 117.216,226.865 117.45,227.328C117.683,227.79 116.683,227.731 117.002,229.774C117.32,231.817 118.951,236.061 119.221,236.716C119.49,237.371 118.673,237.832 117.741,239.96C116.809,242.088 114.751,244.318 114.796,250.98M177.08,194.083C177.08,194.083 183.421,191.471 186.708,180.902C189.995,170.332 189.482,172.668 189.763,171.455C189.763,171.455 189.59,170.032 191.463,170.364C193.336,170.696 194.816,171.29 195.361,169.722C195.905,168.154 197.701,149.925 194.496,141.236M50.802,176.228C50.802,176.228 48.009,180.034 48.492,182.69C48.975,185.345 49.518,185.289 50.612,187.015C51.706,188.741 52.293,190.766 52.147,192.411C52.002,194.056 50.812,193.335 49.523,193.457C48.233,193.58 48.108,193.745 47.835,195.797C47.563,197.848 47.724,198.629 48.812,198.899C49.9,199.169 51.624,199.47 51.624,199.47M108.049,140.658C108.049,140.658 110.279,143.507 114.934,142.883M137.636,109.159C137.636,109.159 135.91,108.391 134.919,112.206C133.928,116.021 133.817,123.622 135.166,125.62C135.166,125.62 135.881,127.591 137.366,126.83C138.851,126.069 139.653,122.936 139.824,119.675C139.995,116.415 140.526,109.616 137.636,109.159ZM112.168,111.581C112.168,111.581 119.022,103.232 130.507,103.489C141.992,103.746 147.949,107.618 151.207,114.88C154.465,122.143 151.739,125.602 148.768,126.815C145.797,128.027 137.183,129.644 130.683,132.621C124.184,135.597 121.65,135.85 119.289,137.057C116.927,138.265 108.617,140.025 105.381,133.282C102.145,126.539 107.335,116.33 112.168,111.581ZM166.341,88.815C166.341,88.815 168.688,84.737 169.339,83.772C169.991,82.807 172.082,81.655 172.63,84.128C173.178,86.601 171.331,91.699 171.283,91.7C171.283,91.7 179.489,90.747 172.536,101.08M163.07,86.584C163.07,86.584 166.209,63.293 163.91,47.585C163.91,47.585 163.413,35.381 163.437,31.697C163.462,28.014 162.26,17.81 163.068,15.065C163.877,12.319 165.442,7.761 171.186,9.419C176.929,11.076 183.279,18.57 186.061,20.65C188.842,22.73 195.213,28.345 199.299,31.66C203.384,34.975 211.21,46.287 208.937,62.908C208.937,62.908 206.086,86.368 181.096,98.615M169.161,80.326C169.161,80.326 171.806,54.684 171.919,48.354C172.031,42.023 171.709,26.764 171.626,23.914C171.626,23.914 171.054,19.116 173.274,22.316C173.274,22.316 207.694,65.47 181.182,89.751M119.123,72.722C119.123,72.722 112.393,68.981 108.981,60.174C105.569,51.367 101.238,38.683 100.932,36.723C100.626,34.763 99.708,29.787 102.322,27.744C104.936,25.701 108.023,27.188 111.106,29.296C114.188,31.404 125.525,38.096 127.969,39.313C130.412,40.53 148.146,50.303 150.845,57.901M110.446,51.218C110.446,51.218 106.545,44.335 105.994,41.102C105.443,37.869 105.712,36.55 107.669,38.001C109.625,39.453 115.567,49.057 118.395,50.909C118.395,50.909 128.669,60.949 128.567,61.059M207.806,68.606C207.806,68.606 218.941,72.378 223.646,73.727C228.352,75.077 236.81,78.364 237.945,79.363C239.081,80.362 238.957,81.842 238.385,83.454C237.812,85.066 238.21,84.666 239.279,85.738C240.349,86.81 247.826,90.867 251.262,97.969" style="fill:none;stroke:black;stroke-width:1.34px;"/>
    </g>
</svg>
