<?xml version='1.0' encoding='ascii'?>
<svg xmlns="http://www.w3.org/2000/svg" version="1.1" width="250" height="250">
    <g id="ViewLayer_LineSet" xmlns:inkscape="http://www.inkscape.org/namespaces/inkscape" inkscape:groupmode="lineset" inkscape:label="ViewLayer_LineSet">
        <g xmlns:inkscape="http://www.inkscape.org/namespaces/inkscape" inkscape:groupmode="layer" id="strokes" inkscape:label="strokes">
            <path fill="none" stroke-width="3.0" stroke-linecap="butt" stroke-opacity="1.0" stroke="rgb(0, 0, 0)" stroke-linejoin="round" d=" M 224.478, 64.345 214.949, 61.311 205.421, 58.277 195.892, 55.243 186.363, 52.209 176.835, 49.175 167.306, 46.141 157.778, 43.107 148.249, 40.073 138.720, 37.039 128.960, 33.931 119.420, 36.929 109.880, 39.927 100.340, 42.925 90.800, 45.923 81.260, 48.921 71.720, 51.919 62.180, 54.917 52.640, 57.915 43.100, 60.913 33.560, 63.911 32.513, 64.240 34.104, 74.113 35.695, 83.986 37.286, 93.858 38.876, 103.731 40.467, 113.604 42.058, 123.476 43.649, 133.349 45.240, 143.222 46.831, 153.094 48.422, 162.967 49.374, 168.874 57.095, 175.228 64.817, 181.582 72.539, 187.936 80.261, 194.290 87.983, 200.644 95.704, 206.998 103.426, 213.352 111.148, 219.706 118.870, 226.061 127.091, 232.825 134.989, 226.692 142.888, 220.559 150.786, 214.426 158.684, 208.293 166.583, 202.160 174.481, 196.027 182.380, 189.894 190.278, 183.761 198.177, 177.628 206.075, 171.495 208.013, 169.990 209.553, 160.110 211.092, 150.229 212.632, 140.348 214.172, 130.468 215.712, 120.587 217.252, 110.706 218.792, 100.825 220.332, 90.945 221.872, 81.064 223.412, 71.183 224.478, 64.345 " />
            <path fill="none" stroke-width="3.0" stroke-linecap="butt" stroke-opacity="1.0" stroke="rgb(0, 0, 0)" stroke-linejoin="round" d=" M 32.513, 64.240 41.381, 68.863 50.248, 73.485 59.116, 78.107 67.984, 82.729 76.852, 87.351 85.719, 91.973 94.587, 96.595 103.455, 101.217 112.323, 105.839 121.190, 110.461 126.265, 113.106 " />
            <path fill="none" stroke-width="3.0" stroke-linecap="butt" stroke-opacity="1.0" stroke="rgb(0, 0, 0)" stroke-linejoin="round" d=" M 127.091, 232.825 127.022, 222.826 126.953, 212.826 126.884, 202.826 126.815, 192.826 126.746, 182.826 126.677, 172.827 126.608, 162.827 126.539, 152.827 126.470, 142.827 126.401, 132.828 126.332, 122.828 126.265, 113.106 135.222, 108.659 144.179, 104.213 153.136, 99.766 162.093, 95.319 171.049, 90.872 180.006, 86.425 188.963, 81.978 197.920, 77.531 206.877, 73.084 215.834, 68.637 224.478, 64.345 " />
        </g>
    </g>
</svg>
