<?xml version='1.0' encoding='ascii'?>
<svg xmlns="http://www.w3.org/2000/svg" version="1.1" width="250" height="250">
    <g id="ViewLayer_LineSet" xmlns:inkscape="http://www.inkscape.org/namespaces/inkscape" inkscape:groupmode="lineset" inkscape:label="ViewLayer_LineSet">
        <g xmlns:inkscape="http://www.inkscape.org/namespaces/inkscape" inkscape:groupmode="layer" id="strokes" inkscape:label="strokes">
            <path fill="none" stroke-width="3.0" stroke-linecap="butt" stroke-opacity="1.0" stroke="rgb(0, 0, 0)" stroke-linejoin="round" d=" M 223.559, 62.940 214.024, 59.926 204.490, 56.911 194.955, 53.897 185.420, 50.882 175.885, 47.868 166.350, 44.853 156.816, 41.839 147.281, 38.824 137.746, 35.810 127.679, 32.627 118.252, 35.965 108.826, 39.303 99.399, 42.641 89.973, 45.980 80.547, 49.318 71.120, 52.656 61.694, 55.994 52.267, 59.332 42.841, 62.670 33.415, 66.008 30.992, 66.866 32.917, 76.679 34.842, 86.492 36.767, 96.305 38.693, 106.118 40.618, 115.931 42.543, 125.744 44.469, 135.557 46.394, 145.370 48.319, 155.182 50.245, 164.995 51.111, 169.413 58.844, 175.755 66.576, 182.096 74.308, 188.437 82.041, 194.778 89.773, 201.119 97.506, 207.461 105.238, 213.802 112.970, 220.143 120.703, 226.484 128.701, 233.043 136.471, 226.749 144.241, 220.454 152.012, 214.159 159.782, 207.865 167.552, 201.570 175.323, 195.276 183.093, 188.981 190.863, 182.686 198.634, 176.392 206.404, 170.097 209.260, 167.784 210.611, 157.875 211.963, 147.967 213.314, 138.059 214.665, 128.150 216.017, 118.242 217.368, 108.334 218.719, 98.426 220.071, 88.517 221.422, 78.609 222.774, 68.701 223.559, 62.940 " />
            <path fill="none" stroke-width="3.0" stroke-linecap="butt" stroke-opacity="1.0" stroke="rgb(0, 0, 0)" stroke-linejoin="round" d=" M 30.992, 66.866 39.818, 71.567 48.644, 76.269 57.470, 80.970 66.296, 85.671 75.122, 90.372 83.948, 95.073 92.774, 99.774 101.600, 104.475 110.426, 109.177 119.252, 113.878 124.289, 116.561 " />
            <path fill="none" stroke-width="3.0" stroke-linecap="butt" stroke-opacity="1.0" stroke="rgb(0, 0, 0)" stroke-linejoin="round" d=" M 128.701, 233.043 128.322, 223.051 127.944, 213.058 127.565, 203.065 127.187, 193.072 126.809, 183.079 126.430, 173.086 126.052, 163.093 125.673, 153.101 125.295, 143.108 124.916, 133.115 124.538, 123.122 124.289, 116.561 133.088, 111.808 141.886, 107.056 150.685, 102.303 159.483, 97.551 168.282, 92.798 177.080, 88.046 185.879, 83.293 194.677, 78.541 203.476, 73.788 212.274, 69.036 221.073, 64.283 223.559, 62.940 " />
        </g>
    </g>
</svg>
