<?xml version='1.0' encoding='ascii'?>
<svg xmlns="http://www.w3.org/2000/svg" version="1.1" width="250" height="250">
    <g id="ViewLayer_LineSet" xmlns:inkscape="http://www.inkscape.org/namespaces/inkscape" inkscape:groupmode="lineset" inkscape:label="ViewLayer_LineSet">
        <g xmlns:inkscape="http://www.inkscape.org/namespaces/inkscape" inkscape:groupmode="layer" id="strokes" inkscape:label="strokes">
            <path fill="none" stroke-width="3.0" stroke-linecap="butt" stroke-opacity="1.0" stroke="rgb(0, 0, 0)" stroke-linejoin="round" d=" M 219.539, 58.261 209.986, 55.307 200.432, 52.353 190.878, 49.400 181.324, 46.446 171.770, 43.492 162.216, 40.538 152.663, 37.585 143.109, 34.631 133.555, 31.677 124.001, 28.723 122.365, 28.217 113.446, 32.739 104.526, 37.262 95.607, 41.784 86.688, 46.306 77.769, 50.828 68.850, 55.350 59.931, 59.872 51.012, 64.394 42.093, 68.916 33.173, 73.438 25.918, 77.117 29.142, 86.583 32.366, 96.049 35.591, 105.515 38.815, 114.981 42.040, 124.447 45.264, 133.912 48.489, 143.378 51.713, 152.844 54.937, 162.310 57.822, 170.779 65.603, 177.061 73.383, 183.343 81.164, 189.625 88.944, 195.907 96.725, 202.189 104.505, 208.471 112.286, 214.753 120.066, 221.035 127.847, 227.317 134.986, 233.081 142.283, 226.244 149.581, 219.406 156.878, 212.569 164.176, 205.732 171.473, 198.895 178.770, 192.057 186.068, 185.220 193.365, 178.383 200.663, 171.546 207.960, 164.708 213.714, 159.317 214.289, 149.334 214.865, 139.351 215.440, 129.367 216.016, 119.384 216.591, 109.400 217.167, 99.417 217.742, 89.434 218.318, 79.450 218.893, 69.467 219.469, 59.483 219.539, 58.261 " />
            <path fill="none" stroke-width="3.0" stroke-linecap="butt" stroke-opacity="1.0" stroke="rgb(0, 0, 0)" stroke-linejoin="round" d=" M 25.918, 77.117 34.581, 82.113 43.243, 87.108 51.906, 92.104 60.569, 97.099 69.232, 102.095 77.895, 107.090 86.558, 112.086 95.220, 117.081 103.883, 122.077 112.546, 127.072 117.468, 129.911 " />
            <path fill="none" stroke-width="3.0" stroke-linecap="butt" stroke-opacity="1.0" stroke="rgb(0, 0, 0)" stroke-linejoin="round" d=" M 134.986, 233.081 133.312, 223.222 131.638, 213.363 129.964, 203.504 128.290, 193.645 126.616, 183.786 124.942, 173.927 123.268, 164.069 121.594, 154.210 119.920, 144.351 118.246, 134.492 117.468, 129.911 125.653, 124.165 133.838, 118.420 142.023, 112.675 150.207, 106.929 158.392, 101.184 166.577, 95.438 174.762, 89.693 182.947, 83.948 191.131, 78.202 199.316, 72.457 207.501, 66.711 215.686, 60.966 219.539, 58.261 " />
        </g>
    </g>
</svg>
