<?xml version='1.0' encoding='ascii'?>
<svg xmlns="http://www.w3.org/2000/svg" version="1.1" width="250" height="250">
    <g id="ViewLayer_LineSet" xmlns:inkscape="http://www.inkscape.org/namespaces/inkscape" inkscape:groupmode="lineset" inkscape:label="ViewLayer_LineSet">
        <g xmlns:inkscape="http://www.inkscape.org/namespaces/inkscape" inkscape:groupmode="layer" id="strokes" inkscape:label="strokes">
            <path fill="none" stroke-width="3.0" stroke-linecap="butt" stroke-opacity="1.0" stroke="rgb(0, 0, 0)" stroke-linejoin="round" d=" M 216.154, 55.599 206.591, 52.674 197.028, 49.750 187.466, 46.825 177.903, 43.900 168.340, 40.976 158.777, 38.051 149.215, 35.127 139.652, 32.202 130.089, 29.277 120.526, 26.353 118.151, 25.626 109.652, 30.895 101.153, 36.165 92.654, 41.434 84.155, 46.703 75.656, 51.973 67.157, 57.242 58.658, 62.512 50.158, 67.781 41.659, 73.050 33.160, 78.320 24.661, 83.589 23.003, 84.617 27.172, 93.707 31.342, 102.796 35.511, 111.885 39.681, 120.974 43.850, 130.064 48.020, 139.153 52.189, 148.242 56.359, 157.332 60.528, 166.421 62.686, 171.125 70.508, 177.356 78.330, 183.586 86.152, 189.817 93.973, 196.048 101.795, 202.278 109.617, 208.509 117.438, 214.739 125.260, 220.970 133.082, 227.201 139.600, 232.393 146.572, 225.224 153.544, 218.056 160.516, 210.887 167.488, 203.718 174.460, 196.550 181.432, 189.381 188.405, 182.212 195.377, 175.043 202.349, 167.875 209.321, 160.706 216.618, 153.202 216.571, 143.203 216.523, 133.203 216.476, 123.203 216.428, 113.203 216.380, 103.203 216.333, 93.203 216.285, 83.203 216.238, 73.203 216.190, 63.203 216.154, 55.599 " />
            <path fill="none" stroke-width="3.0" stroke-linecap="butt" stroke-opacity="1.0" stroke="rgb(0, 0, 0)" stroke-linejoin="round" d=" M 23.003, 84.617 31.547, 89.813 40.091, 95.010 48.635, 100.206 57.179, 105.402 65.723, 110.598 74.267, 115.794 82.810, 120.991 91.354, 126.187 99.898, 131.383 108.442, 136.579 113.308, 139.538 " />
            <path fill="none" stroke-width="3.0" stroke-linecap="butt" stroke-opacity="1.0" stroke="rgb(0, 0, 0)" stroke-linejoin="round" d=" M 139.600, 232.393 136.876, 222.771 134.151, 213.150 131.427, 203.528 128.702, 193.906 125.978, 184.285 123.253, 174.663 120.529, 165.041 117.804, 155.419 115.080, 145.798 113.308, 139.538 121.055, 133.215 128.802, 126.892 136.549, 120.569 144.296, 114.246 152.044, 107.923 159.791, 101.600 167.538, 95.277 175.285, 88.954 183.033, 82.631 190.780, 76.308 198.527, 69.985 206.274, 63.662 214.022, 57.339 216.154, 55.599 " />
        </g>
    </g>
</svg>
