<?xml version='1.0' encoding='ascii'?>
<svg xmlns="http://www.w3.org/2000/svg" version="1.1" width="250" height="250">
    <g id="ViewLayer_LineSet" xmlns:inkscape="http://www.inkscape.org/namespaces/inkscape" inkscape:groupmode="lineset" inkscape:label="ViewLayer_LineSet">
        <g xmlns:inkscape="http://www.inkscape.org/namespaces/inkscape" inkscape:groupmode="layer" id="strokes" inkscape:label="strokes">
            <path fill="none" stroke-width="3.0" stroke-linecap="butt" stroke-opacity="1.0" stroke="rgb(0, 0, 0)" stroke-linejoin="round" d=" M 211.622, 53.256 202.054, 50.349 192.486, 47.442 182.918, 44.534 173.350, 41.627 163.782, 38.720 154.214, 35.813 144.645, 32.906 135.077, 29.998 125.509, 27.091 115.941, 24.184 112.765, 23.219 104.806, 29.273 96.847, 35.328 88.888, 41.382 80.929, 47.436 72.970, 53.491 65.011, 59.545 57.053, 65.600 49.094, 71.654 41.135, 77.709 33.176, 83.763 25.217, 89.817 20.353, 93.517 25.632, 102.011 30.910, 110.504 36.189, 118.997 41.467, 127.491 46.745, 135.984 52.024, 144.478 57.302, 152.971 62.581, 161.465 67.859, 169.958 68.447, 170.903 76.323, 177.065 84.199, 183.226 92.075, 189.388 99.951, 195.549 107.828, 201.711 115.704, 207.873 123.580, 214.034 131.456, 220.196 139.333, 226.357 145.121, 230.885 151.721, 223.373 158.321, 215.860 164.921, 208.347 171.520, 200.834 178.120, 193.321 184.720, 185.809 191.320, 178.296 197.920, 170.783 204.519, 163.270 211.119, 155.757 217.719, 148.244 219.738, 145.946 218.866, 135.984 217.994, 126.022 217.121, 116.060 216.249, 106.098 215.377, 96.136 214.505, 86.174 213.632, 76.213 212.760, 66.251 211.888, 56.289 211.622, 53.256 " />
            <path fill="none" stroke-width="3.0" stroke-linecap="butt" stroke-opacity="1.0" stroke="rgb(0, 0, 0)" stroke-linejoin="round" d=" M 20.353, 93.517 28.758, 98.935 37.164, 104.353 45.569, 109.771 53.974, 115.188 62.379, 120.606 70.784, 126.024 79.190, 131.442 87.595, 136.860 96.000, 142.277 104.405, 147.695 109.219, 150.798 " />
            <path fill="none" stroke-width="3.0" stroke-linecap="butt" stroke-opacity="1.0" stroke="rgb(0, 0, 0)" stroke-linejoin="round" d=" M 145.121, 230.885 141.030, 221.760 136.940, 212.635 132.849, 203.510 128.759, 194.385 124.668, 185.260 120.577, 176.135 116.487, 167.010 112.396, 157.885 109.219, 150.798 116.460, 143.901 123.701, 137.004 130.942, 130.107 138.183, 123.210 145.423, 116.313 152.664, 109.415 159.905, 102.518 167.146, 95.621 174.387, 88.724 181.628, 81.827 188.868, 74.930 196.109, 68.033 203.350, 61.135 210.591, 54.238 211.622, 53.256 " />
        </g>
    </g>
</svg>
