<?xml version='1.0' encoding='ascii'?>
<svg xmlns="http://www.w3.org/2000/svg" version="1.1" width="250" height="250">
    <g id="ViewLayer_LineSet" xmlns:inkscape="http://www.inkscape.org/namespaces/inkscape" inkscape:groupmode="lineset" inkscape:label="ViewLayer_LineSet">
        <g xmlns:inkscape="http://www.inkscape.org/namespaces/inkscape" inkscape:groupmode="layer" id="strokes" inkscape:label="strokes">
            <path fill="none" stroke-width="3.0" stroke-linecap="butt" stroke-opacity="1.0" stroke="rgb(0, 0, 0)" stroke-linejoin="round" d=" M 205.776, 51.721 196.210, 48.809 186.643, 45.898 177.076, 42.986 167.510, 40.074 157.943, 37.163 148.376, 34.251 138.809, 31.339 129.243, 28.428 119.676, 25.516 110.109, 22.605 106.134, 21.395 98.834, 28.230 91.535, 35.064 84.235, 41.899 76.935, 48.734 69.636, 55.569 62.336, 62.404 55.037, 69.239 47.737, 76.074 40.437, 82.909 33.138, 89.744 25.838, 96.579 18.389, 103.553 24.880, 111.161 31.371, 118.768 37.861, 126.375 44.352, 133.983 50.843, 141.590 57.333, 149.197 63.824, 156.805 70.314, 164.412 74.977, 169.876 82.922, 175.950 90.866, 182.023 98.811, 188.096 106.755, 194.169 114.700, 200.242 122.645, 206.315 130.589, 212.388 138.534, 218.461 146.479, 224.534 151.450, 228.335 157.638, 220.479 163.826, 212.624 170.014, 204.768 176.202, 196.913 182.390, 189.057 188.578, 181.201 194.765, 173.346 200.953, 165.490 207.141, 157.635 213.329, 149.779 219.517, 141.923 222.875, 137.661 220.923, 127.853 218.972, 118.045 217.021, 108.237 215.069, 98.430 213.118, 88.622 211.167, 78.814 209.215, 69.006 207.264, 59.198 205.776, 51.721 " />
            <path fill="none" stroke-width="3.0" stroke-linecap="butt" stroke-opacity="1.0" stroke="rgb(0, 0, 0)" stroke-linejoin="round" d=" M 18.389, 103.553 26.643, 109.199 34.897, 114.845 43.151, 120.490 51.405, 126.136 59.659, 131.781 67.913, 137.427 76.167, 143.073 84.421, 148.718 92.675, 154.364 100.928, 160.009 105.687, 163.264 " />
            <path fill="none" stroke-width="3.0" stroke-linecap="butt" stroke-opacity="1.0" stroke="rgb(0, 0, 0)" stroke-linejoin="round" d=" M 151.450, 228.335 145.698, 220.155 139.945, 211.976 134.192, 203.796 128.440, 195.616 122.687, 187.437 116.935, 179.257 111.182, 171.077 105.687, 163.264 112.366, 155.821 119.044, 148.379 125.723, 140.936 132.402, 133.493 139.080, 126.050 145.759, 118.607 152.437, 111.164 159.116, 103.721 165.795, 96.278 172.473, 88.836 179.152, 81.393 185.830, 73.950 192.509, 66.507 199.187, 59.064 205.776, 51.721 " />
        </g>
    </g>
</svg>
