<?xml version='1.0' encoding='ascii'?>
<svg xmlns="http://www.w3.org/2000/svg" version="1.1" width="250" height="250">
    <g id="ViewLayer_LineSet" xmlns:inkscape="http://www.inkscape.org/namespaces/inkscape" inkscape:groupmode="lineset" inkscape:label="ViewLayer_LineSet">
        <g xmlns:inkscape="http://www.inkscape.org/namespaces/inkscape" inkscape:groupmode="layer" id="strokes" inkscape:label="strokes">
            <path fill="none" stroke-width="3.0" stroke-linecap="butt" stroke-opacity="1.0" stroke="rgb(0, 0, 0)" stroke-linejoin="round" d=" M 198.492, 51.539 188.937, 48.589 179.382, 45.640 169.827, 42.690 160.272, 39.740 150.717, 36.790 141.161, 33.841 131.606, 30.891 122.051, 27.941 112.496, 24.991 102.941, 22.042 98.243, 20.591 91.718, 28.169 85.192, 35.747 78.667, 43.324 72.142, 50.902 65.616, 58.479 59.091, 66.057 52.566, 73.635 46.040, 81.212 39.515, 88.790 32.990, 96.367 26.464, 103.945 19.939, 111.523 17.509, 114.345 25.210, 120.723 32.912, 127.102 40.614, 133.480 48.315, 139.859 56.017, 146.237 63.718, 152.616 71.420, 158.994 79.122, 165.373 82.115, 167.852 90.141, 173.816 98.168, 179.781 106.194, 185.745 114.221, 191.709 122.247, 197.674 130.274, 203.638 138.301, 209.603 146.327, 215.567 154.354, 221.531 158.453, 224.578 164.194, 216.389 169.934, 208.201 175.674, 200.013 181.415, 191.825 187.155, 183.636 192.896, 175.448 198.636, 167.260 204.377, 159.072 210.117, 150.883 215.857, 142.695 221.598, 134.507 225.814, 128.493 222.468, 119.069 219.122, 109.645 215.777, 100.222 212.431, 90.798 209.085, 81.374 205.739, 71.951 202.393, 62.527 199.047, 53.103 198.492, 51.539 " />
            <path fill="none" stroke-width="3.0" stroke-linecap="butt" stroke-opacity="1.0" stroke="rgb(0, 0, 0)" stroke-linejoin="round" d=" M 17.509, 114.345 25.609, 120.208 33.710, 126.072 41.810, 131.935 49.911, 137.799 58.012, 143.662 66.112, 149.526 74.213, 155.389 82.313, 161.253 90.414, 167.117 98.514, 172.980 103.184, 176.360 " />
            <path fill="none" stroke-width="3.0" stroke-linecap="butt" stroke-opacity="1.0" stroke="rgb(0, 0, 0)" stroke-linejoin="round" d=" M 158.453, 224.578 150.918, 218.004 143.382, 211.430 135.847, 204.856 128.311, 198.282 120.776, 191.708 113.241, 185.134 105.705, 178.560 103.184, 176.360 109.253, 168.412 115.322, 160.464 121.390, 152.516 127.459, 144.568 133.528, 136.620 139.597, 128.672 145.665, 120.724 151.734, 112.776 157.803, 104.828 163.871, 96.880 169.940, 88.932 176.009, 80.984 182.078, 73.036 188.146, 65.088 194.215, 57.140 198.492, 51.539 " />
        </g>
    </g>
</svg>
