<?xml version='1.0' encoding='ascii'?>
<svg xmlns="http://www.w3.org/2000/svg" version="1.1" width="250" height="250">
    <g id="ViewLayer_LineSet" xmlns:inkscape="http://www.inkscape.org/namespaces/inkscape" inkscape:groupmode="lineset" inkscape:label="ViewLayer_LineSet">
        <g xmlns:inkscape="http://www.inkscape.org/namespaces/inkscape" inkscape:groupmode="layer" id="strokes" inkscape:label="strokes">
            <path fill="none" stroke-width="3.0" stroke-linecap="butt" stroke-opacity="1.0" stroke="rgb(0, 0, 0)" stroke-linejoin="round" d=" M 189.724, 53.277 180.195, 50.243 170.667, 47.209 161.138, 44.175 151.609, 41.141 142.081, 38.107 132.552, 35.073 123.024, 32.039 113.495, 29.005 103.966, 25.971 94.438, 22.937 89.167, 21.259 83.528, 29.517 77.888, 37.775 72.249, 46.033 66.609, 54.291 60.969, 62.549 55.330, 70.807 49.690, 79.065 44.050, 87.323 38.411, 95.581 32.771, 103.839 27.131, 112.097 21.492, 120.355 18.041, 125.408 25.998, 131.464 33.955, 137.521 41.913, 143.577 49.870, 149.634 57.827, 155.690 65.785, 161.747 73.742, 167.803 81.699, 173.860 89.656, 179.916 97.614, 185.973 102.117, 189.400 111.161, 193.667 120.205, 197.934 129.249, 202.200 138.293, 206.467 147.337, 210.734 156.381, 215.000 165.962, 219.520 171.220, 211.014 176.479, 202.508 181.737, 194.003 186.995, 185.497 192.254, 176.991 197.512, 168.485 202.770, 159.979 208.029, 151.473 213.287, 142.967 218.545, 134.461 223.803, 125.955 228.333, 118.628 223.247, 110.018 218.160, 101.408 213.073, 92.799 207.987, 84.189 202.900, 75.579 197.813, 66.970 192.727, 58.360 189.724, 53.277 " />
            <path fill="none" stroke-width="3.0" stroke-linecap="butt" stroke-opacity="1.0" stroke="rgb(0, 0, 0)" stroke-linejoin="round" d=" M 102.117, 189.400 107.529, 180.991 112.941, 172.582 118.353, 164.173 123.764, 155.764 129.176, 147.355 134.588, 138.946 140.000, 130.537 145.412, 122.128 150.824, 113.719 156.236, 105.310 161.648, 96.901 167.060, 88.492 172.472, 80.083 177.884, 71.674 183.296, 63.265 188.707, 54.856 189.724, 53.277 " />
        </g>
    </g>
</svg>
