<?xml version='1.0' encoding='ascii'?>
<svg xmlns="http://www.w3.org/2000/svg" version="1.1" width="250" height="250">
    <g id="ViewLayer_LineSet" xmlns:inkscape="http://www.inkscape.org/namespaces/inkscape" inkscape:groupmode="lineset" inkscape:label="ViewLayer_LineSet">
        <g xmlns:inkscape="http://www.inkscape.org/namespaces/inkscape" inkscape:groupmode="layer" id="strokes" inkscape:label="strokes">
            <path fill="none" stroke-width="3.0" stroke-linecap="butt" stroke-opacity="1.0" stroke="rgb(0, 0, 0)" stroke-linejoin="round" d=" M 179.553, 57.467 170.071, 54.290 160.589, 51.114 151.107, 47.937 141.624, 44.761 132.142, 41.584 122.660, 38.408 113.178, 35.231 103.696, 32.055 94.214, 28.879 84.732, 25.702 79.101, 23.816 74.459, 32.673 69.816, 41.530 65.174, 50.387 60.532, 59.245 55.890, 68.102 51.248, 76.959 46.606, 85.816 41.964, 94.674 37.322, 103.531 32.679, 112.388 28.037, 121.245 23.395, 130.102 20.201, 136.198 28.037, 142.410 35.873, 148.623 43.709, 154.835 51.545, 161.048 59.381, 167.260 67.217, 173.473 75.053, 179.686 82.889, 185.898 90.725, 192.111 98.561, 198.323 102.768, 201.658 112.640, 203.255 122.511, 204.851 132.383, 206.448 142.255, 208.044 152.127, 209.641 161.998, 211.237 171.870, 212.834 173.787, 213.144 178.526, 204.337 183.264, 195.531 188.002, 186.725 192.741, 177.919 197.479, 169.113 202.218, 160.307 206.956, 151.501 211.694, 142.695 216.433, 133.889 221.171, 125.082 225.910, 116.276 230.202, 108.298 223.144, 101.214 216.086, 94.131 209.027, 87.047 201.969, 79.963 194.910, 72.880 187.852, 65.796 180.794, 58.712 179.553, 57.467 " />
            <path fill="none" stroke-width="3.0" stroke-linecap="butt" stroke-opacity="1.0" stroke="rgb(0, 0, 0)" stroke-linejoin="round" d=" M 102.768, 201.658 107.468, 192.832 112.168, 184.005 116.869, 175.179 121.569, 166.352 126.269, 157.526 130.970, 148.699 135.670, 139.873 140.370, 131.046 145.070, 122.220 149.771, 113.393 154.471, 104.567 159.171, 95.740 163.872, 86.914 168.572, 78.087 173.272, 69.261 177.973, 60.434 179.553, 57.467 " />
        </g>
    </g>
</svg>
