<?xml version='1.0' encoding='ascii'?>
<svg xmlns="http://www.w3.org/2000/svg" version="1.1" width="250" height="250">
    <g id="ViewLayer_LineSet" xmlns:inkscape="http://www.inkscape.org/namespaces/inkscape" inkscape:groupmode="lineset" inkscape:label="ViewLayer_LineSet">
        <g xmlns:inkscape="http://www.inkscape.org/namespaces/inkscape" inkscape:groupmode="layer" id="strokes" inkscape:label="strokes">
            <path fill="none" stroke-width="3.0" stroke-linecap="butt" stroke-opacity="1.0" stroke="rgb(0, 0, 0)" stroke-linejoin="round" d=" M 168.222, 64.524 158.813, 61.138 149.404, 57.752 139.994, 54.366 130.585, 50.980 121.176, 47.594 111.766, 44.208 102.357, 40.822 92.948, 37.436 83.538, 34.050 74.129, 30.664 68.372, 28.592 64.846, 37.950 61.319, 47.307 57.793, 56.665 54.266, 66.022 50.739, 75.380 47.213, 84.737 43.686, 94.095 40.160, 103.452 36.633, 112.810 33.107, 122.168 29.580, 131.525 26.053, 140.883 24.062, 146.167 31.808, 152.491 39.554, 158.815 47.301, 165.140 55.047, 171.464 62.793, 177.788 70.539, 184.113 78.285, 190.437 86.031, 196.761 93.777, 203.086 101.524, 209.410 105.260, 212.460 115.218, 211.553 125.177, 210.647 135.136, 209.740 145.095, 208.833 155.054, 207.926 165.012, 207.020 174.971, 206.113 181.727, 205.498 185.900, 196.410 190.074, 187.323 194.247, 178.235 198.420, 169.148 202.593, 160.060 206.767, 150.973 210.940, 141.885 215.113, 132.798 219.287, 123.710 223.460, 114.622 227.633, 105.535 231.192, 97.786 222.350, 93.116 213.507, 88.445 204.665, 83.774 195.823, 79.104 186.981, 74.433 178.139, 69.762 169.297, 65.091 168.222, 64.524 " />
            <path fill="none" stroke-width="3.0" stroke-linecap="butt" stroke-opacity="1.0" stroke="rgb(0, 0, 0)" stroke-linejoin="round" d=" M 105.260, 212.460 109.176, 203.259 113.092, 194.057 117.008, 184.856 120.924, 175.655 124.840, 166.454 128.756, 157.252 132.673, 148.051 136.589, 138.850 140.505, 129.648 144.421, 120.447 148.337, 111.246 152.253, 102.044 156.169, 92.843 160.085, 83.642 164.002, 74.441 168.222, 64.524 " />
        </g>
    </g>
</svg>
