<?xml version='1.0' encoding='ascii'?>
<svg xmlns="http://www.w3.org/2000/svg" version="1.1" width="250" height="250">
    <g id="ViewLayer_LineSet" xmlns:inkscape="http://www.inkscape.org/namespaces/inkscape" inkscape:groupmode="lineset" inkscape:label="ViewLayer_LineSet">
        <g xmlns:inkscape="http://www.inkscape.org/namespaces/inkscape" inkscape:groupmode="layer" id="strokes" inkscape:label="strokes">
            <path fill="none" stroke-width="3.0" stroke-linecap="butt" stroke-opacity="1.0" stroke="rgb(0, 0, 0)" stroke-linejoin="round" d=" M 156.159, 74.652 146.855, 70.987 137.551, 67.322 128.247, 63.656 118.943, 59.991 109.639, 56.326 100.335, 52.661 91.031, 48.995 81.727, 45.330 72.423, 41.665 63.119, 38.000 57.446, 35.765 " />
            <path fill="none" stroke-width="3.0" stroke-linecap="butt" stroke-opacity="1.0" stroke="rgb(0, 0, 0)" stroke-linejoin="round" d=" M 57.446, 35.765 55.165, 45.501 52.883, 55.238 50.602, 64.974 48.321, 74.710 46.039, 84.447 43.758, 94.183 41.477, 103.919 39.196, 113.655 36.914, 123.392 34.633, 133.128 32.352, 142.864 30.070, 152.601 29.548, 154.829 37.241, 161.217 44.934, 167.606 52.627, 173.995 60.320, 180.384 68.013, 186.773 75.706, 193.162 83.399, 199.551 91.092, 205.940 98.785, 212.329 106.478, 218.718 109.544, 221.264 119.104, 218.329 128.663, 215.394 138.223, 212.459 147.783, 209.525 157.342, 206.590 166.902, 203.655 176.462, 200.720 186.021, 197.785 189.578, 196.693 193.129, 187.345 196.680, 177.997 200.230, 168.648 203.781, 159.300 207.332, 149.952 210.883, 140.603 214.434, 131.255 217.985, 121.907 221.535, 112.558 225.086, 103.210 228.637, 93.862 231.080, 87.429 221.673, 84.039 212.265, 80.648 202.858, 77.257 193.450, 73.866 184.042, 70.476 174.635, 67.085 165.227, 63.694 155.820, 60.303 146.412, 56.913 140.666, 54.842 130.919, 52.607 121.172, 50.373 111.425, 48.139 101.678, 45.904 91.930, 43.670 82.183, 41.436 72.436, 39.201 62.689, 36.967 57.446, 35.765 " />
            <path fill="none" stroke-width="3.0" stroke-linecap="butt" stroke-opacity="1.0" stroke="rgb(0, 0, 0)" stroke-linejoin="round" d=" M 109.544, 221.264 112.574, 211.734 115.604, 202.204 118.634, 192.674 121.664, 183.144 124.694, 173.614 127.724, 164.084 130.754, 154.555 133.784, 145.025 136.814, 135.495 139.844, 125.965 142.875, 116.435 145.905, 106.905 148.935, 97.375 151.965, 87.845 154.995, 78.315 156.159, 74.652 166.017, 76.333 175.875, 78.014 185.732, 79.696 195.590, 81.377 205.448, 83.058 215.306, 84.739 225.163, 86.420 231.080, 87.429 " />
        </g>
    </g>
</svg>
