<?xml version='1.0' encoding='ascii'?>
<svg xmlns="http://www.w3.org/2000/svg" version="1.1" width="250" height="250">
    <g id="ViewLayer_LineSet" xmlns:inkscape="http://www.inkscape.org/namespaces/inkscape" inkscape:groupmode="lineset" inkscape:label="ViewLayer_LineSet">
        <g xmlns:inkscape="http://www.inkscape.org/namespaces/inkscape" inkscape:groupmode="layer" id="strokes" inkscape:label="strokes">
            <path fill="none" stroke-width="3.0" stroke-linecap="butt" stroke-opacity="1.0" stroke="rgb(0, 0, 0)" stroke-linejoin="round" d=" M 143.961, 87.756 134.799, 83.749 125.637, 79.741 116.475, 75.734 107.313, 71.727 98.151, 67.720 88.989, 63.712 79.827, 59.705 70.665, 55.698 61.503, 51.691 52.341, 47.684 46.887, 45.298 " />
            <path fill="none" stroke-width="3.0" stroke-linecap="butt" stroke-opacity="1.0" stroke="rgb(0, 0, 0)" stroke-linejoin="round" d=" M 46.887, 45.298 45.995, 55.258 45.103, 65.218 44.211, 75.179 43.319, 85.139 42.427, 95.099 41.534, 105.059 40.642, 115.019 39.750, 124.979 38.858, 134.939 37.966, 144.899 37.074, 154.860 36.451, 161.810 44.129, 168.217 51.806, 174.625 59.484, 181.032 67.161, 187.440 74.839, 193.847 82.516, 200.255 90.194, 206.662 97.871, 213.070 105.549, 219.477 113.226, 225.885 115.422, 227.718 124.368, 223.248 133.314, 218.779 142.260, 214.310 151.205, 209.841 160.151, 205.372 169.097, 200.902 178.043, 196.433 186.988, 191.964 195.934, 187.495 197.146, 186.889 199.998, 177.305 202.851, 167.720 205.703, 158.136 208.556, 148.551 211.408, 138.967 214.261, 129.382 217.114, 119.798 219.966, 110.213 222.819, 100.629 225.671, 91.044 228.524, 81.460 229.669, 77.613 220.206, 74.380 210.743, 71.146 201.281, 67.912 191.818, 64.678 182.355, 61.444 172.892, 58.211 163.430, 54.977 153.967, 51.743 144.504, 48.509 137.239, 46.026 127.240, 45.946 117.240, 45.865 107.240, 45.785 97.241, 45.704 87.241, 45.623 77.241, 45.543 67.242, 45.462 57.242, 45.382 46.887, 45.298 " />
            <path fill="none" stroke-width="3.0" stroke-linecap="butt" stroke-opacity="1.0" stroke="rgb(0, 0, 0)" stroke-linejoin="round" d=" M 115.422, 227.718 117.420, 217.919 119.418, 208.121 121.416, 198.322 123.414, 188.524 125.412, 178.726 127.410, 168.927 129.408, 159.129 131.406, 149.331 133.404, 139.532 135.402, 129.734 137.400, 119.935 139.398, 110.137 141.396, 100.339 143.393, 90.540 143.961, 87.756 153.892, 86.581 163.823, 85.405 173.753, 84.230 183.684, 83.055 193.615, 81.880 203.545, 80.705 213.476, 79.529 223.407, 78.354 229.669, 77.613 " />
        </g>
    </g>
</svg>
