<?xml version='1.0' encoding='ascii'?>
<svg xmlns="http://www.w3.org/2000/svg" version="1.1" width="250" height="250">
    <g id="ViewLayer_LineSet" xmlns:inkscape="http://www.inkscape.org/namespaces/inkscape" inkscape:groupmode="lineset" inkscape:label="ViewLayer_LineSet">
        <g xmlns:inkscape="http://www.inkscape.org/namespaces/inkscape" inkscape:groupmode="layer" id="strokes" inkscape:label="strokes">
            <path fill="none" stroke-width="3.0" stroke-linecap="butt" stroke-opacity="1.0" stroke="rgb(0, 0, 0)" stroke-linejoin="round" d=" M 132.334, 103.391 123.351, 98.998 114.367, 94.604 105.384, 90.210 96.401, 85.817 87.418, 81.423 78.435, 77.030 69.452, 72.636 60.468, 68.243 51.485, 63.849 42.502, 59.456 37.301, 56.912 " />
            <path fill="none" stroke-width="3.0" stroke-linecap="butt" stroke-opacity="1.0" stroke="rgb(0, 0, 0)" stroke-linejoin="round" d=" M 37.301, 56.912 37.952, 66.891 38.602, 76.870 39.252, 86.849 39.902, 96.828 40.552, 106.806 41.202, 116.785 41.853, 126.764 42.503, 136.743 43.153, 146.722 43.803, 156.701 44.466, 166.881 52.163, 173.265 59.861, 179.649 67.558, 186.033 75.255, 192.417 82.952, 198.801 90.649, 205.185 98.346, 211.569 106.043, 217.953 113.740, 224.337 121.437, 230.721 122.589, 231.677 130.865, 226.063 139.140, 220.449 147.416, 214.836 155.691, 209.222 163.967, 203.608 172.243, 197.994 180.518, 192.380 188.794, 186.767 197.069, 181.153 204.250, 176.282 206.302, 166.495 208.355, 156.708 210.407, 146.921 212.460, 137.134 214.512, 127.346 216.564, 117.559 218.617, 107.772 220.669, 97.985 222.722, 88.198 224.774, 78.411 226.797, 68.765 217.289, 65.667 207.781, 62.569 198.273, 59.471 188.765, 56.373 179.257, 53.274 169.749, 50.176 160.241, 47.078 150.733, 43.980 141.225, 40.882 132.368, 37.995 122.560, 39.947 112.752, 41.898 102.945, 43.850 93.137, 45.802 83.329, 47.753 73.522, 49.705 63.714, 51.657 53.906, 53.608 44.098, 55.560 37.301, 56.912 " />
            <path fill="none" stroke-width="3.0" stroke-linecap="butt" stroke-opacity="1.0" stroke="rgb(0, 0, 0)" stroke-linejoin="round" d=" M 122.589, 231.677 123.347, 221.706 124.104, 211.734 124.861, 201.763 125.619, 191.792 126.376, 181.821 127.134, 171.849 127.891, 161.878 128.648, 151.907 129.406, 141.936 130.163, 131.964 130.921, 121.993 131.678, 112.022 132.334, 103.391 141.723, 99.949 151.112, 96.508 160.501, 93.066 169.890, 89.625 179.279, 86.183 188.668, 82.741 198.057, 79.300 207.447, 75.858 216.836, 72.417 226.797, 68.765 " />
        </g>
    </g>
</svg>
