<?xml version='1.0' encoding='ascii'?>
<svg xmlns="http://www.w3.org/2000/svg" version="1.1" width="250" height="250">
    <g id="ViewLayer_LineSet" xmlns:inkscape="http://www.inkscape.org/namespaces/inkscape" inkscape:groupmode="lineset" inkscape:label="ViewLayer_LineSet">
        <g xmlns:inkscape="http://www.inkscape.org/namespaces/inkscape" inkscape:groupmode="layer" id="strokes" inkscape:label="strokes">
            <path fill="none" stroke-width="3.0" stroke-linecap="butt" stroke-opacity="1.0" stroke="rgb(0, 0, 0)" stroke-linejoin="round" d=" M 121.992, 120.790 113.217, 115.993 104.442, 111.197 95.667, 106.401 86.893, 101.604 78.118, 96.808 69.343, 92.012 60.569, 87.215 51.794, 82.419 43.019, 77.623 34.245, 72.826 29.249, 70.096 " />
            <path fill="none" stroke-width="3.0" stroke-linecap="butt" stroke-opacity="1.0" stroke="rgb(0, 0, 0)" stroke-linejoin="round" d=" M 29.249, 70.096 31.585, 79.819 33.920, 89.542 36.256, 99.266 38.591, 108.989 40.926, 118.713 43.262, 128.436 45.597, 138.160 47.933, 147.883 50.268, 157.607 52.604, 167.330 53.237, 169.965 60.983, 176.289 68.729, 182.613 76.476, 188.937 84.222, 195.261 91.969, 201.585 99.715, 207.909 107.461, 214.233 115.208, 220.557 122.954, 226.881 130.680, 233.188 138.297, 226.709 145.914, 220.230 153.531, 213.751 161.148, 207.271 168.765, 200.792 176.382, 194.313 183.999, 187.833 191.616, 181.354 199.233, 174.875 206.850, 168.395 210.730, 165.095 211.845, 155.157 212.959, 145.219 214.074, 135.282 215.188, 125.344 216.303, 115.406 217.417, 105.468 218.532, 95.531 219.646, 85.593 220.761, 75.655 221.875, 65.718 222.367, 61.331 212.826, 58.339 203.284, 55.346 193.742, 52.353 184.201, 49.361 174.659, 46.368 165.117, 43.375 155.576, 40.382 146.034, 37.390 136.492, 34.397 126.058, 31.124 116.782, 34.859 107.505, 38.593 98.229, 42.327 88.952, 46.062 79.675, 49.796 70.399, 53.530 61.122, 57.265 51.846, 60.999 42.569, 64.733 33.293, 68.468 29.249, 70.096 " />
            <path fill="none" stroke-width="3.0" stroke-linecap="butt" stroke-opacity="1.0" stroke="rgb(0, 0, 0)" stroke-linejoin="round" d=" M 130.680, 233.188 129.910, 223.218 129.139, 213.248 128.368, 203.278 127.597, 193.307 126.827, 183.337 126.056, 173.367 125.285, 163.397 124.514, 153.426 123.744, 143.456 122.973, 133.486 122.202, 123.516 121.992, 120.790 130.595, 115.693 139.199, 110.597 147.803, 105.500 156.407, 100.404 165.011, 95.307 173.614, 90.211 182.218, 85.114 190.822, 80.018 199.426, 74.921 208.030, 69.824 216.633, 64.728 222.367, 61.331 " />
        </g>
    </g>
</svg>
