<?xml version='1.0' encoding='ascii'?>
<svg xmlns="http://www.w3.org/2000/svg" version="1.1" width="250" height="250">
    <g id="ViewLayer_LineSet" xmlns:inkscape="http://www.inkscape.org/namespaces/inkscape" inkscape:groupmode="lineset" inkscape:label="ViewLayer_LineSet">
        <g xmlns:inkscape="http://www.inkscape.org/namespaces/inkscape" inkscape:groupmode="layer" id="strokes" inkscape:label="strokes">
            <path fill="none" stroke-width="3.0" stroke-linecap="butt" stroke-opacity="1.0" stroke="rgb(0, 0, 0)" stroke-linejoin="round" d=" M 113.539, 138.962 104.988, 133.777 96.437, 128.593 87.886, 123.409 79.335, 118.224 70.784, 113.040 62.233, 107.855 53.682, 102.671 45.130, 97.486 36.579, 92.302 28.028, 87.117 23.160, 84.166 " />
            <path fill="none" stroke-width="3.0" stroke-linecap="butt" stroke-opacity="1.0" stroke="rgb(0, 0, 0)" stroke-linejoin="round" d=" M 23.160, 84.166 27.273, 93.281 31.386, 102.396 35.499, 111.511 39.611, 120.626 43.724, 129.741 47.837, 138.856 51.950, 147.971 56.063, 157.086 60.175, 166.201 62.394, 171.118 70.213, 177.352 78.032, 183.586 85.851, 189.820 93.671, 196.054 101.490, 202.288 109.309, 208.522 117.128, 214.756 124.947, 220.990 132.766, 227.224 139.322, 232.450 146.313, 225.300 153.304, 218.150 160.295, 211.000 167.287, 203.850 174.278, 196.700 181.269, 189.550 188.261, 182.400 195.252, 175.250 202.243, 168.100 209.234, 160.950 216.451, 153.570 216.442, 143.570 216.434, 133.570 216.426, 123.570 216.417, 113.570 216.409, 103.570 216.400, 93.570 216.392, 83.570 216.384, 73.570 216.375, 63.570 216.369, 55.742 206.806, 52.816 197.244, 49.889 187.682, 46.963 178.119, 44.037 168.557, 41.111 158.995, 38.185 149.432, 35.259 139.870, 32.333 130.308, 29.407 120.745, 26.481 118.413, 25.767 109.887, 30.994 101.362, 36.221 92.837, 41.448 84.312, 46.675 75.786, 51.901 67.261, 57.128 58.736, 62.355 50.210, 67.582 41.685, 72.808 33.160, 78.035 24.634, 83.262 23.160, 84.166 " />
            <path fill="none" stroke-width="3.0" stroke-linecap="butt" stroke-opacity="1.0" stroke="rgb(0, 0, 0)" stroke-linejoin="round" d=" M 139.322, 232.450 136.663, 222.810 134.004, 213.170 131.346, 203.530 128.687, 193.890 126.029, 184.249 123.370, 174.609 120.712, 164.969 118.053, 155.329 115.394, 145.689 113.539, 138.962 121.312, 132.671 129.086, 126.380 136.859, 120.089 144.632, 113.798 152.406, 107.507 160.179, 101.216 167.952, 94.925 175.725, 88.634 183.499, 82.343 191.272, 76.052 199.045, 69.761 206.819, 63.471 214.592, 57.180 216.369, 55.742 " />
        </g>
    </g>
</svg>
