<?xml version='1.0' encoding='ascii'?>
<svg xmlns="http://www.w3.org/2000/svg" version="1.1" width="250" height="250">
    <g id="ViewLayer_LineSet" xmlns:inkscape="http://www.inkscape.org/namespaces/inkscape" inkscape:groupmode="lineset" inkscape:label="ViewLayer_LineSet">
        <g xmlns:inkscape="http://www.inkscape.org/namespaces/inkscape" inkscape:groupmode="layer" id="strokes" inkscape:label="strokes">
            <path fill="none" stroke-width="3.0" stroke-linecap="butt" stroke-opacity="1.0" stroke="rgb(0, 0, 0)" stroke-linejoin="round" d=" M 107.370, 156.856 99.038, 151.326 90.707, 145.795 82.376, 140.264 74.045, 134.733 65.713, 129.202 57.382, 123.671 49.051, 118.140 40.720, 112.609 32.389, 107.078 24.057, 101.548 19.269, 98.368 " />
            <path fill="none" stroke-width="3.0" stroke-linecap="butt" stroke-opacity="1.0" stroke="rgb(0, 0, 0)" stroke-linejoin="round" d=" M 19.269, 98.368 25.140, 106.463 31.012, 114.558 36.883, 122.653 42.755, 130.748 48.626, 138.842 54.498, 146.937 60.369, 155.032 66.241, 163.127 71.595, 170.508 79.503, 176.629 87.412, 182.749 95.320, 188.869 103.229, 194.989 111.137, 201.110 119.045, 207.230 126.954, 213.350 134.862, 219.470 142.770, 225.590 148.163, 229.764 154.564, 222.081 160.964, 214.397 167.364, 206.714 173.765, 199.030 180.165, 191.347 186.565, 183.663 192.966, 175.980 199.366, 168.296 205.766, 160.613 212.167, 152.929 218.567, 145.246 221.303, 141.961 219.932, 132.056 218.561, 122.150 217.189, 112.245 215.818, 102.339 214.447, 92.434 213.075, 82.528 211.704, 72.623 210.333, 62.717 208.899, 52.361 199.331, 49.456 189.762, 46.550 180.194, 43.644 170.625, 40.738 161.057, 37.832 151.489, 34.926 141.920, 32.020 132.352, 29.114 122.783, 26.208 113.215, 23.302 109.638, 22.216 101.991, 28.660 94.344, 35.103 86.697, 41.547 79.050, 47.991 71.403, 54.435 63.756, 60.879 56.109, 67.323 48.463, 73.767 40.816, 80.211 33.169, 86.655 25.522, 93.099 19.269, 98.368 " />
            <path fill="none" stroke-width="3.0" stroke-linecap="butt" stroke-opacity="1.0" stroke="rgb(0, 0, 0)" stroke-linejoin="round" d=" M 148.163, 229.764 143.281, 221.037 138.398, 212.310 133.515, 203.584 128.632, 194.857 123.749, 186.130 118.866, 177.403 113.983, 168.676 109.100, 159.949 107.370, 156.856 114.338, 149.684 121.307, 142.512 128.275, 135.340 135.244, 128.168 142.212, 120.996 149.181, 113.824 156.150, 106.652 163.118, 99.480 170.087, 92.308 177.055, 85.135 184.024, 77.963 190.992, 70.791 197.961, 63.619 204.930, 56.447 208.899, 52.361 " />
        </g>
    </g>
</svg>
