<?xml version='1.0' encoding='ascii'?>
<svg xmlns="http://www.w3.org/2000/svg" version="1.1" width="250" height="250">
    <g id="ViewLayer_LineSet" xmlns:inkscape="http://www.inkscape.org/namespaces/inkscape" inkscape:groupmode="lineset" inkscape:label="ViewLayer_LineSet">
        <g xmlns:inkscape="http://www.inkscape.org/namespaces/inkscape" inkscape:groupmode="layer" id="strokes" inkscape:label="strokes">
            <path fill="none" stroke-width="3.0" stroke-linecap="butt" stroke-opacity="1.0" stroke="rgb(0, 0, 0)" stroke-linejoin="round" d=" M 103.613, 173.530 95.480, 167.712 87.347, 161.893 79.214, 156.075 71.081, 150.257 62.948, 144.438 54.815, 138.620 46.682, 132.801 38.549, 126.983 30.415, 121.165 22.282, 115.346 17.589, 111.988 " />
            <path fill="none" stroke-width="3.0" stroke-linecap="butt" stroke-opacity="1.0" stroke="rgb(0, 0, 0)" stroke-linejoin="round" d=" M 17.589, 111.988 25.037, 118.660 32.486, 125.332 39.934, 132.005 47.383, 138.677 54.832, 145.349 62.280, 152.021 69.729, 158.693 77.178, 165.365 80.541, 168.378 88.549, 174.368 96.557, 180.357 104.565, 186.346 112.573, 192.336 120.581, 198.325 128.588, 204.315 136.596, 210.304 144.604, 216.294 152.612, 222.283 156.902, 225.492 162.741, 217.373 168.580, 209.255 174.420, 201.137 180.259, 193.019 186.098, 184.901 191.938, 176.783 197.777, 168.665 203.616, 160.547 209.456, 152.429 215.295, 144.311 221.134, 136.193 225.211, 130.526 222.194, 120.992 219.176, 111.458 216.159, 101.924 213.142, 92.390 210.124, 82.856 207.107, 73.322 204.090, 63.788 201.072, 54.254 200.180, 51.436 190.622, 48.498 181.063, 45.560 171.504, 42.621 161.946, 39.683 152.387, 36.745 142.828, 33.807 133.270, 30.869 123.711, 27.931 114.152, 24.993 104.594, 22.055 100.040, 20.655 93.339, 28.078 86.638, 35.500 79.938, 42.923 73.237, 50.346 66.536, 57.769 59.835, 65.191 53.134, 72.614 46.433, 80.037 39.732, 87.460 33.031, 94.882 26.330, 102.305 19.629, 109.728 17.589, 111.988 " />
            <path fill="none" stroke-width="3.0" stroke-linecap="butt" stroke-opacity="1.0" stroke="rgb(0, 0, 0)" stroke-linejoin="round" d=" M 156.902, 225.492 149.742, 218.510 142.582, 211.529 135.423, 204.548 128.263, 197.566 121.103, 190.585 113.943, 183.604 106.784, 176.622 103.613, 173.530 109.816, 165.687 116.020, 157.844 122.223, 150.000 128.427, 142.157 134.630, 134.314 140.833, 126.470 147.037, 118.627 153.240, 110.784 159.444, 102.941 165.647, 95.097 171.851, 87.254 178.054, 79.411 184.258, 71.567 190.461, 63.724 196.664, 55.881 200.180, 51.436 " />
        </g>
    </g>
</svg>
