<?xml version='1.0' encoding='ascii'?>
<svg xmlns="http://www.w3.org/2000/svg" version="1.1" width="250" height="250">
    <g id="ViewLayer_LineSet" xmlns:inkscape="http://www.inkscape.org/namespaces/inkscape" inkscape:groupmode="lineset" inkscape:label="ViewLayer_LineSet">
        <g xmlns:inkscape="http://www.inkscape.org/namespaces/inkscape" inkscape:groupmode="layer" id="strokes" inkscape:label="strokes">
            <path fill="none" stroke-width="3.0" stroke-linecap="butt" stroke-opacity="1.0" stroke="rgb(0, 0, 0)" stroke-linejoin="round" d=" M 17.931, 124.440 25.900, 130.481 33.869, 136.522 41.839, 142.563 49.808, 148.604 57.777, 154.645 65.746, 160.685 73.715, 166.726 81.684, 172.767 89.653, 178.808 97.623, 184.849 102.145, 188.277 111.079, 192.768 120.014, 197.259 128.949, 201.751 137.884, 206.242 146.818, 210.733 155.753, 215.224 165.288, 220.017 170.590, 211.538 175.892, 203.060 181.194, 194.581 186.496, 186.102 191.798, 177.623 197.100, 169.145 202.402, 160.666 207.704, 152.187 213.006, 143.709 218.308, 135.230 223.610, 126.751 228.135, 119.516 223.214, 110.810 218.292, 102.105 213.371, 93.400 208.450, 84.695 203.529, 75.989 198.607, 67.284 193.686, 58.579 190.551, 53.034 181.020, 50.009 171.488, 46.985 161.956, 43.960 152.425, 40.936 142.893, 37.911 133.361, 34.887 123.830, 31.862 114.298, 28.838 104.767, 25.813 95.235, 22.789 90.007, 21.130 84.285, 29.331 78.564, 37.533 72.842, 45.734 67.120, 53.935 61.398, 62.137 55.676, 70.338 49.955, 78.539 44.233, 86.741 38.511, 94.942 32.789, 103.143 27.067, 111.344 21.346, 119.546 17.931, 124.440 " />
            <path fill="none" stroke-width="3.0" stroke-linecap="butt" stroke-opacity="1.0" stroke="rgb(0, 0, 0)" stroke-linejoin="round" d=" M 190.551, 53.034 185.080, 61.404 179.608, 69.774 174.137, 78.145 168.665, 86.515 163.194, 94.885 157.722, 103.256 152.251, 111.626 146.779, 119.996 141.307, 128.367 135.836, 136.737 130.364, 145.107 124.893, 153.478 119.421, 161.848 113.950, 170.218 108.478, 178.588 102.145, 188.277 " />
        </g>
    </g>
</svg>
