<?xml version='1.0' encoding='ascii'?>
<svg xmlns="http://www.w3.org/2000/svg" version="1.1" width="250" height="250">
    <g id="ViewLayer_LineSet" xmlns:inkscape="http://www.inkscape.org/namespaces/inkscape" inkscape:groupmode="lineset" inkscape:label="ViewLayer_LineSet">
        <g xmlns:inkscape="http://www.inkscape.org/namespaces/inkscape" inkscape:groupmode="layer" id="strokes" inkscape:label="strokes">
            <path fill="none" stroke-width="3.0" stroke-linecap="butt" stroke-opacity="1.0" stroke="rgb(0, 0, 0)" stroke-linejoin="round" d=" M 19.957, 135.325 27.802, 141.527 35.647, 147.728 43.492, 153.929 51.337, 160.130 59.182, 166.332 67.027, 172.533 74.872, 178.734 82.717, 184.935 90.562, 191.137 98.407, 197.338 102.644, 200.687 112.477, 202.506 122.311, 204.324 132.144, 206.143 141.977, 207.961 151.811, 209.780 161.644, 211.598 171.477, 213.417 173.130, 213.723 177.913, 204.941 182.697, 196.159 187.480, 187.377 192.263, 178.595 197.046, 169.813 201.829, 161.031 206.612, 152.249 211.395, 143.468 216.179, 134.686 220.962, 125.904 225.745, 117.122 230.078, 109.167 223.184, 101.923 216.290, 94.679 209.396, 87.435 202.502, 80.191 195.609, 72.947 188.715, 65.703 181.821, 58.459 180.446, 57.014 170.959, 53.852 161.472, 50.690 151.986, 47.528 142.499, 44.366 133.012, 41.203 123.525, 38.041 114.038, 34.879 104.551, 31.717 95.064, 28.555 85.578, 25.392 79.967, 23.522 75.238, 32.333 70.509, 41.144 65.779, 49.955 61.050, 58.766 56.321, 67.577 51.591, 76.388 46.862, 85.199 42.133, 94.010 37.403, 102.821 32.674, 111.632 27.945, 120.443 23.215, 129.254 19.957, 135.325 " />
            <path fill="none" stroke-width="3.0" stroke-linecap="butt" stroke-opacity="1.0" stroke="rgb(0, 0, 0)" stroke-linejoin="round" d=" M 180.446, 57.014 175.684, 65.808 170.923, 74.601 166.161, 83.395 161.399, 92.188 156.637, 100.982 151.875, 109.775 147.113, 118.568 142.351, 127.362 137.590, 136.155 132.828, 144.949 128.066, 153.742 123.304, 162.536 118.542, 171.329 113.780, 180.123 109.019, 188.916 104.257, 197.710 102.644, 200.687 " />
        </g>
    </g>
</svg>
