<?xml version='1.0' encoding='ascii'?>
<svg xmlns="http://www.w3.org/2000/svg" version="1.1" width="250" height="250">
    <g id="ViewLayer_LineSet" xmlns:inkscape="http://www.inkscape.org/namespaces/inkscape" inkscape:groupmode="lineset" inkscape:label="ViewLayer_LineSet">
        <g xmlns:inkscape="http://www.inkscape.org/namespaces/inkscape" inkscape:groupmode="layer" id="strokes" inkscape:label="strokes">
            <path fill="none" stroke-width="3.0" stroke-linecap="butt" stroke-opacity="1.0" stroke="rgb(0, 0, 0)" stroke-linejoin="round" d=" M 23.238, 144.445 30.998, 150.752 38.758, 157.060 46.517, 163.367 54.277, 169.675 62.037, 175.983 69.797, 182.290 77.557, 188.598 85.316, 194.905 93.076, 201.213 100.836, 207.520 104.672, 210.638 114.660, 210.154 124.648, 209.670 134.637, 209.186 144.625, 208.701 154.613, 208.217 164.601, 207.733 174.590, 207.249 180.289, 206.973 184.569, 197.935 188.848, 188.897 193.128, 179.859 197.407, 170.821 201.687, 161.783 205.966, 152.745 210.246, 143.707 214.525, 134.669 218.805, 125.631 223.084, 116.593 227.364, 107.554 231.088, 99.690 222.527, 94.522 213.966, 89.354 205.405, 84.185 196.844, 79.017 188.283, 73.849 179.722, 68.681 171.161, 63.513 170.344, 63.020 160.919, 59.677 151.494, 56.334 142.070, 52.992 132.645, 49.649 123.220, 46.306 113.796, 42.963 104.371, 39.620 94.946, 36.277 85.521, 32.935 76.097, 29.592 70.346, 27.552 66.608, 36.827 62.870, 46.102 59.132, 55.377 55.394, 64.652 51.656, 73.928 47.918, 83.203 44.181, 92.478 40.443, 101.753 36.705, 111.028 32.967, 120.303 29.229, 129.579 25.491, 138.854 23.238, 144.445 " />
            <path fill="none" stroke-width="3.0" stroke-linecap="butt" stroke-opacity="1.0" stroke="rgb(0, 0, 0)" stroke-linejoin="round" d=" M 170.344, 63.020 166.279, 72.157 162.215, 81.293 158.150, 90.430 154.085, 99.567 150.020, 108.703 145.956, 117.840 141.891, 126.977 137.826, 136.113 133.762, 145.250 129.697, 154.387 125.632, 163.523 121.567, 172.660 117.503, 181.796 113.438, 190.933 109.373, 200.070 104.672, 210.638 " />
        </g>
    </g>
</svg>
