<?xml version='1.0' encoding='ascii'?>
<svg xmlns="http://www.w3.org/2000/svg" version="1.1" width="250" height="250">
    <g id="ViewLayer_LineSet" xmlns:inkscape="http://www.inkscape.org/namespaces/inkscape" inkscape:groupmode="lineset" inkscape:label="ViewLayer_LineSet">
        <g xmlns:inkscape="http://www.inkscape.org/namespaces/inkscape" inkscape:groupmode="layer" id="strokes" inkscape:label="strokes">
            <path fill="none" stroke-width="3.0" stroke-linecap="butt" stroke-opacity="1.0" stroke="rgb(0, 0, 0)" stroke-linejoin="round" d=" M 27.322, 151.776 35.030, 158.146 42.739, 164.517 50.447, 170.887 58.155, 177.257 65.864, 183.628 73.572, 189.998 81.281, 196.368 88.989, 202.739 96.697, 209.109 104.406, 215.479 107.746, 218.239 117.492, 216.000 127.238, 213.761 136.984, 211.522 146.730, 209.282 156.476, 207.043 166.222, 204.804 175.968, 202.564 185.714, 200.325 186.672, 200.105 190.462, 190.851 194.253, 181.598 198.044, 172.344 201.835, 163.090 205.626, 153.837 209.417, 144.583 213.207, 135.329 216.998, 126.076 220.789, 116.822 224.580, 107.569 228.371, 98.315 231.264, 91.252 221.879, 87.799 212.494, 84.346 203.109, 80.893 193.724, 77.440 184.340, 73.987 174.955, 70.533 165.570, 67.080 156.185, 63.627 146.800, 60.174 141.588, 58.256 132.058, 55.227 122.527, 52.198 112.997, 49.169 103.467, 46.140 93.937, 43.111 84.407, 40.082 74.876, 37.053 65.346, 34.024 61.512, 32.806 58.750, 42.417 55.988, 52.028 53.226, 61.639 50.464, 71.250 47.702, 80.861 44.940, 90.472 42.178, 100.083 39.416, 109.694 36.654, 119.305 33.892, 128.916 31.130, 138.527 28.368, 148.138 27.322, 151.776 " />
            <path fill="none" stroke-width="3.0" stroke-linecap="butt" stroke-opacity="1.0" stroke="rgb(0, 0, 0)" stroke-linejoin="round" d=" M 61.512, 32.806 70.859, 36.359 80.207, 39.912 89.554, 43.465 98.902, 47.018 108.249, 50.571 117.597, 54.124 126.944, 57.677 136.292, 61.230 145.639, 64.784 154.987, 68.337 160.711, 70.513 " />
            <path fill="none" stroke-width="3.0" stroke-linecap="butt" stroke-opacity="1.0" stroke="rgb(0, 0, 0)" stroke-linejoin="round" d=" M 107.746, 218.239 111.121, 208.826 114.496, 199.413 117.871, 190.000 121.246, 180.586 124.621, 171.173 127.996, 161.760 131.371, 152.347 134.746, 142.933 138.121, 133.520 141.496, 124.107 144.871, 114.694 148.246, 105.280 151.621, 95.867 154.996, 86.454 158.371, 77.041 160.711, 70.513 170.305, 73.333 179.899, 76.153 189.493, 78.973 199.088, 81.794 208.682, 84.614 218.276, 87.434 227.870, 90.254 231.264, 91.252 " />
        </g>
    </g>
</svg>
