<?xml version='1.0' encoding='ascii'?>
<svg xmlns="http://www.w3.org/2000/svg" version="1.1" width="250" height="250">
    <g id="ViewLayer_LineSet" xmlns:inkscape="http://www.inkscape.org/namespaces/inkscape" inkscape:groupmode="lineset" inkscape:label="ViewLayer_LineSet">
        <g xmlns:inkscape="http://www.inkscape.org/namespaces/inkscape" inkscape:groupmode="layer" id="strokes" inkscape:label="strokes">
            <path fill="none" stroke-width="3.0" stroke-linecap="butt" stroke-opacity="1.0" stroke="rgb(0, 0, 0)" stroke-linejoin="round" d=" M 31.775, 157.433 39.459, 163.833 47.142, 170.234 54.826, 176.634 62.509, 183.034 70.193, 189.435 77.876, 195.835 85.560, 202.235 93.243, 208.636 100.927, 215.036 108.610, 221.436 111.399, 223.759 120.761, 220.246 130.124, 216.732 139.486, 213.218 148.848, 209.704 158.211, 206.191 167.573, 202.677 176.935, 199.163 186.298, 195.649 192.221, 193.426 195.542, 183.994 198.862, 174.561 202.183, 165.128 205.503, 155.696 208.823, 146.263 212.144, 136.831 215.464, 127.398 218.785, 117.965 222.105, 108.533 225.426, 99.100 228.746, 89.667 230.751, 83.973 221.323, 80.638 211.896, 77.303 202.468, 73.968 193.041, 70.633 183.613, 67.298 174.186, 63.963 164.758, 60.628 155.330, 57.293 145.903, 53.959 139.648, 51.746 129.760, 50.254 119.872, 48.762 109.984, 47.270 100.096, 45.779 90.208, 44.287 80.319, 42.795 70.431, 41.303 60.543, 39.811 53.744, 38.785 51.923, 48.618 50.103, 58.451 48.282, 68.284 46.461, 78.117 44.641, 87.950 42.820, 97.782 41.000, 107.615 39.179, 117.448 37.358, 127.281 35.538, 137.114 33.717, 146.947 31.775, 157.433 " />
            <path fill="none" stroke-width="3.0" stroke-linecap="butt" stroke-opacity="1.0" stroke="rgb(0, 0, 0)" stroke-linejoin="round" d=" M 53.744, 38.785 63.003, 42.562 72.263, 46.338 81.522, 50.114 90.782, 53.891 100.042, 57.667 109.301, 61.444 118.561, 65.220 127.820, 68.997 137.080, 72.773 146.339, 76.549 151.947, 78.837 " />
            <path fill="none" stroke-width="3.0" stroke-linecap="butt" stroke-opacity="1.0" stroke="rgb(0, 0, 0)" stroke-linejoin="round" d=" M 111.399, 223.759 114.093, 214.129 116.788, 204.499 119.482, 194.869 122.177, 185.239 124.871, 175.608 127.565, 165.978 130.260, 156.348 132.954, 146.718 135.649, 137.088 138.343, 127.458 141.038, 117.827 143.732, 108.197 146.426, 98.567 149.121, 88.937 151.947, 78.837 161.926, 79.487 171.904, 80.137 181.883, 80.788 191.862, 81.438 201.841, 82.088 211.820, 82.739 221.799, 83.389 230.751, 83.973 " />
        </g>
    </g>
</svg>
