<?xml version='1.0' encoding='ascii'?>
<svg xmlns="http://www.w3.org/2000/svg" version="1.1" width="250" height="250">
    <g id="ViewLayer_LineSet" xmlns:inkscape="http://www.inkscape.org/namespaces/inkscape" inkscape:groupmode="lineset" inkscape:label="ViewLayer_LineSet">
        <g xmlns:inkscape="http://www.inkscape.org/namespaces/inkscape" inkscape:groupmode="layer" id="strokes" inkscape:label="strokes">
            <path fill="none" stroke-width="3.0" stroke-linecap="butt" stroke-opacity="1.0" stroke="rgb(0, 0, 0)" stroke-linejoin="round" d=" M 36.214, 161.617 43.891, 168.025 51.569, 174.432 59.246, 180.840 66.924, 187.248 74.601, 193.655 82.279, 200.063 89.956, 206.470 97.633, 212.878 105.311, 219.285 112.988, 225.693 115.215, 227.551 124.181, 223.124 133.148, 218.697 142.115, 214.270 151.081, 209.842 160.048, 205.415 169.014, 200.988 177.981, 196.561 186.947, 192.133 195.914, 187.706 196.912, 187.213 199.788, 177.636 202.664, 168.058 205.540, 158.481 208.417, 148.903 211.293, 139.326 214.169, 129.748 217.045, 120.171 219.921, 110.593 222.797, 101.016 225.673, 91.438 228.549, 81.861 229.735, 77.912 220.274, 74.673 210.813, 71.435 201.352, 68.196 191.891, 64.958 182.430, 61.719 172.968, 58.481 163.507, 55.242 154.046, 52.004 144.585, 48.765 137.370, 46.296 127.371, 46.148 117.372, 46.000 107.373, 45.852 97.374, 45.704 87.375, 45.556 77.376, 45.408 67.377, 45.261 57.378, 45.113 47.210, 44.962 46.271, 54.918 45.333, 64.874 44.394, 74.830 43.456, 84.786 42.518, 94.742 41.579, 104.698 40.641, 114.654 39.702, 124.609 38.764, 134.565 37.825, 144.521 36.887, 154.477 36.214, 161.617 " />
            <path fill="none" stroke-width="3.0" stroke-linecap="butt" stroke-opacity="1.0" stroke="rgb(0, 0, 0)" stroke-linejoin="round" d=" M 47.210, 44.962 56.377, 48.958 65.544, 52.954 74.711, 56.949 83.878, 60.945 93.045, 64.940 102.212, 68.936 111.379, 72.932 120.546, 76.927 129.714, 80.923 138.881, 84.918 144.342, 87.299 " />
            <path fill="none" stroke-width="3.0" stroke-linecap="butt" stroke-opacity="1.0" stroke="rgb(0, 0, 0)" stroke-linejoin="round" d=" M 115.215, 227.551 117.248, 217.760 119.282, 207.969 121.315, 198.178 123.348, 188.387 125.382, 178.596 127.415, 168.805 129.449, 159.014 131.482, 149.223 133.516, 139.432 135.549, 129.641 137.582, 119.849 139.616, 110.058 141.649, 100.267 143.683, 90.476 144.342, 87.299 154.283, 86.206 164.223, 85.113 174.163, 84.021 184.103, 82.928 194.043, 81.835 203.983, 80.742 213.923, 79.650 223.863, 78.557 229.735, 77.912 " />
        </g>
    </g>
</svg>
