<?xml version='1.0' encoding='ascii'?>
<svg xmlns="http://www.w3.org/2000/svg" version="1.1" width="250" height="250">
    <g id="ViewLayer_LineSet" xmlns:inkscape="http://www.inkscape.org/namespaces/inkscape" inkscape:groupmode="lineset" inkscape:label="ViewLayer_LineSet">
        <g xmlns:inkscape="http://www.inkscape.org/namespaces/inkscape" inkscape:groupmode="layer" id="strokes" inkscape:label="strokes">
            <path fill="none" stroke-width="3.0" stroke-linecap="butt" stroke-opacity="1.0" stroke="rgb(0, 0, 0)" stroke-linejoin="round" d=" M 40.313, 164.574 47.996, 170.975 55.679, 177.376 63.362, 183.777 71.045, 190.178 78.728, 196.578 86.411, 202.979 94.094, 209.380 101.778, 215.781 109.461, 222.181 117.144, 228.582 118.841, 229.996 127.455, 224.917 136.070, 219.839 144.684, 214.760 153.298, 209.681 161.913, 204.602 170.527, 199.524 179.141, 194.445 187.756, 189.366 196.370, 184.288 200.741, 181.711 203.211, 172.021 205.681, 162.330 208.151, 152.640 210.621, 142.950 213.091, 133.260 215.561, 123.570 218.031, 113.880 220.501, 104.190 222.971, 94.500 225.442, 84.809 227.912, 75.119 228.433, 73.072 218.947, 69.909 209.460, 66.746 199.974, 63.583 190.487, 60.419 181.001, 57.256 171.514, 54.093 162.028, 50.929 152.541, 47.766 143.055, 44.603 135.003, 41.918 125.049, 42.872 115.094, 43.825 105.140, 44.779 95.186, 45.733 85.231, 46.686 75.277, 47.640 65.322, 48.593 55.368, 49.547 45.413, 50.501 41.970, 50.830 41.824, 60.829 41.679, 70.828 41.533, 80.827 41.387, 90.826 41.242, 100.825 41.096, 110.824 40.950, 120.823 40.804, 130.822 40.659, 140.821 40.513, 150.820 40.367, 160.819 40.313, 164.574 " />
            <path fill="none" stroke-width="3.0" stroke-linecap="butt" stroke-opacity="1.0" stroke="rgb(0, 0, 0)" stroke-linejoin="round" d=" M 41.970, 50.830 51.048, 55.025 60.125, 59.220 69.203, 63.415 78.280, 67.610 87.358, 71.805 96.435, 76.001 105.513, 80.195 114.590, 84.391 123.668, 88.586 132.746, 92.781 138.072, 95.242 " />
            <path fill="none" stroke-width="3.0" stroke-linecap="butt" stroke-opacity="1.0" stroke="rgb(0, 0, 0)" stroke-linejoin="round" d=" M 118.841, 229.996 120.254, 220.096 121.667, 210.197 123.079, 200.297 124.492, 190.397 125.905, 180.498 127.318, 170.598 128.731, 160.698 130.143, 150.799 131.556, 140.899 132.969, 130.999 134.382, 121.099 135.795, 111.200 137.207, 101.300 138.072, 95.242 147.784, 92.859 157.496, 90.476 167.208, 88.094 176.920, 85.711 186.632, 83.328 196.344, 80.945 206.056, 78.563 215.768, 76.180 225.480, 73.797 228.433, 73.072 " />
        </g>
    </g>
</svg>
