<?xml version='1.0' encoding='ascii'?>
<svg xmlns="http://www.w3.org/2000/svg" version="1.1" width="250" height="250">
    <g id="ViewLayer_LineSet" xmlns:inkscape="http://www.inkscape.org/namespaces/inkscape" inkscape:groupmode="lineset" inkscape:label="ViewLayer_LineSet">
        <g xmlns:inkscape="http://www.inkscape.org/namespaces/inkscape" inkscape:groupmode="layer" id="strokes" inkscape:label="strokes">
            <path fill="none" stroke-width="3.0" stroke-linecap="butt" stroke-opacity="1.0" stroke="rgb(0, 0, 0)" stroke-linejoin="round" d=" M 43.808, 166.556 51.502, 172.944 59.196, 179.331 66.891, 185.718 74.585, 192.105 82.280, 198.493 89.974, 204.880 97.668, 211.267 105.363, 217.654 113.057, 224.041 120.751, 230.429 121.991, 231.457 130.319, 225.922 138.647, 220.386 146.975, 214.850 155.303, 209.315 163.631, 203.779 171.959, 198.243 180.287, 192.708 188.615, 187.172 196.943, 181.636 203.715, 177.135 205.834, 167.362 207.954, 157.590 210.073, 147.817 212.193, 138.044 214.312, 128.271 216.431, 118.498 218.551, 108.726 220.670, 98.953 222.790, 89.180 224.909, 79.407 227.077, 69.412 217.572, 66.304 208.067, 63.196 198.562, 60.088 189.058, 56.981 179.553, 53.873 170.048, 50.765 160.543, 47.657 151.038, 44.549 141.534, 41.441 132.801, 38.586 122.965, 40.387 113.128, 42.188 103.292, 43.988 93.455, 45.789 83.618, 47.589 73.782, 49.390 63.945, 51.191 54.109, 52.991 44.272, 54.792 38.002, 55.940 38.526, 65.926 39.051, 75.912 39.575, 85.898 40.099, 95.885 40.623, 105.871 41.147, 115.857 41.671, 125.843 42.195, 135.830 42.719, 145.816 43.243, 155.802 43.808, 166.556 " />
            <path fill="none" stroke-width="3.0" stroke-linecap="butt" stroke-opacity="1.0" stroke="rgb(0, 0, 0)" stroke-linejoin="round" d=" M 38.002, 55.940 47.001, 60.302 55.999, 64.664 64.997, 69.027 73.996, 73.389 82.994, 77.751 91.992, 82.114 100.991, 86.476 109.989, 90.838 118.987, 95.201 127.986, 99.563 133.205, 102.093 " />
            <path fill="none" stroke-width="3.0" stroke-linecap="butt" stroke-opacity="1.0" stroke="rgb(0, 0, 0)" stroke-linejoin="round" d=" M 121.991, 231.457 122.854, 221.495 123.718, 211.532 124.582, 201.569 125.445, 191.607 126.309, 181.644 127.173, 171.682 128.036, 161.719 128.900, 151.756 129.764, 141.794 130.627, 131.831 131.491, 121.868 132.355, 111.906 133.205, 102.093 142.649, 98.805 152.093, 95.517 161.537, 92.229 170.981, 88.942 180.425, 85.654 189.869, 82.366 199.313, 79.078 208.758, 75.790 218.202, 72.502 227.077, 69.412 " />
        </g>
    </g>
</svg>
