<?xml version='1.0' encoding='ascii'?>
<svg xmlns="http://www.w3.org/2000/svg" version="1.1" width="250" height="250">
    <g id="ViewLayer_LineSet" xmlns:inkscape="http://www.inkscape.org/namespaces/inkscape" inkscape:groupmode="lineset" inkscape:label="ViewLayer_LineSet">
        <g xmlns:inkscape="http://www.inkscape.org/namespaces/inkscape" inkscape:groupmode="layer" id="strokes" inkscape:label="strokes">
            <path fill="none" stroke-width="3.0" stroke-linecap="butt" stroke-opacity="1.0" stroke="rgb(0, 0, 0)" stroke-linejoin="round" d=" M 46.489, 167.791 54.195, 174.164 61.901, 180.537 69.608, 186.910 77.314, 193.283 85.020, 199.655 92.726, 206.028 100.433, 212.401 108.139, 218.774 115.845, 225.147 123.551, 231.520 124.436, 232.251 132.553, 226.411 140.670, 220.570 148.787, 214.730 156.905, 208.890 165.022, 203.049 173.139, 197.209 181.257, 191.369 189.374, 185.528 197.491, 179.688 205.846, 173.676 207.691, 163.848 209.535, 154.020 211.379, 144.191 213.224, 134.363 215.068, 124.534 216.912, 114.706 218.757, 104.877 220.601, 95.049 222.446, 85.220 224.290, 75.392 225.891, 66.861 216.374, 63.790 206.857, 60.720 197.340, 57.650 187.823, 54.580 178.306, 51.510 168.789, 48.440 159.272, 45.369 149.755, 42.299 140.238, 39.229 131.002, 36.250 121.294, 38.649 111.586, 41.048 101.878, 43.447 92.170, 45.846 82.462, 48.245 72.754, 50.644 63.046, 53.043 53.338, 55.442 43.630, 57.841 35.237, 59.915 36.275, 69.861 37.312, 79.808 38.349, 89.754 39.387, 99.700 40.424, 109.646 41.462, 119.592 42.499, 129.538 43.536, 139.484 44.574, 149.430 45.611, 159.376 46.489, 167.791 " />
            <path fill="none" stroke-width="3.0" stroke-linecap="butt" stroke-opacity="1.0" stroke="rgb(0, 0, 0)" stroke-linejoin="round" d=" M 35.237, 59.915 44.173, 64.404 53.109, 68.893 62.045, 73.381 70.981, 77.870 79.917, 82.358 88.854, 86.847 97.790, 91.336 106.726, 95.824 115.662, 100.313 124.598, 104.801 129.743, 107.386 " />
            <path fill="none" stroke-width="3.0" stroke-linecap="butt" stroke-opacity="1.0" stroke="rgb(0, 0, 0)" stroke-linejoin="round" d=" M 124.436, 232.251 124.860, 222.260 125.285, 212.269 125.710, 202.278 126.134, 192.287 126.559, 182.296 126.984, 172.305 127.408, 162.314 127.833, 152.323 128.258, 142.332 128.683, 132.341 129.107, 122.350 129.532, 112.359 129.743, 107.386 138.958, 103.502 148.173, 99.618 157.388, 95.734 166.603, 91.850 175.818, 87.966 185.033, 84.082 194.248, 80.198 203.463, 76.314 212.678, 72.430 221.892, 68.546 225.891, 66.861 " />
        </g>
    </g>
</svg>
