<?xml version='1.0' encoding='ascii'?>
<svg xmlns="http://www.w3.org/2000/svg" version="1.1" width="250" height="250">
    <g id="ViewLayer_LineSet" xmlns:inkscape="http://www.inkscape.org/namespaces/inkscape" inkscape:groupmode="lineset" inkscape:label="ViewLayer_LineSet">
        <g xmlns:inkscape="http://www.inkscape.org/namespaces/inkscape" inkscape:groupmode="layer" id="strokes" inkscape:label="strokes">
            <path fill="none" stroke-width="3.0" stroke-linecap="butt" stroke-opacity="1.0" stroke="rgb(0, 0, 0)" stroke-linejoin="round" d=" M 48.190, 168.459 55.905, 174.821 63.620, 181.183 71.335, 187.545 79.050, 193.908 86.765, 200.270 94.480, 206.632 102.195, 212.994 109.911, 219.356 117.626, 225.718 125.998, 232.623 133.985, 226.606 141.973, 220.589 149.960, 214.572 157.947, 208.555 165.935, 202.538 173.922, 196.521 181.909, 190.505 189.897, 184.488 197.884, 178.471 205.871, 172.454 207.138, 171.499 208.805, 161.639 210.471, 151.779 212.137, 141.919 213.803, 132.058 215.469, 122.198 217.135, 112.338 218.801, 102.478 220.467, 92.618 222.133, 82.757 223.799, 72.897 225.075, 65.350 215.551, 62.301 206.027, 59.253 196.503, 56.205 186.979, 53.156 177.455, 50.108 167.930, 47.060 158.406, 44.011 148.882, 40.963 139.358, 37.915 129.811, 34.859 120.199, 37.616 110.587, 40.374 100.974, 43.132 91.362, 45.889 81.750, 48.647 72.137, 51.404 62.525, 54.162 52.913, 56.920 43.301, 59.677 33.601, 62.460 34.964, 72.367 36.328, 82.273 37.691, 92.180 39.055, 102.086 40.418, 111.993 41.782, 121.900 43.145, 131.806 44.508, 141.713 45.872, 151.620 47.235, 161.526 48.190, 168.459 " />
            <path fill="none" stroke-width="3.0" stroke-linecap="butt" stroke-opacity="1.0" stroke="rgb(0, 0, 0)" stroke-linejoin="round" d=" M 33.601, 62.460 42.496, 67.028 51.392, 71.595 60.288, 76.163 69.184, 80.730 78.080, 85.298 86.976, 89.866 95.872, 94.433 104.768, 99.001 113.664, 103.568 122.560, 108.136 127.662, 110.756 " />
            <path fill="none" stroke-width="3.0" stroke-linecap="butt" stroke-opacity="1.0" stroke="rgb(0, 0, 0)" stroke-linejoin="round" d=" M 125.998, 232.623 126.135, 222.624 126.271, 212.625 126.408, 202.626 126.544, 192.626 126.681, 182.627 126.817, 172.628 126.954, 162.629 127.091, 152.630 127.227, 142.631 127.364, 132.632 127.500, 122.633 127.637, 112.634 127.662, 110.756 136.726, 106.531 145.790, 102.307 154.854, 98.082 163.917, 93.857 172.981, 89.632 182.045, 85.407 191.108, 81.182 200.172, 76.957 209.236, 72.733 218.299, 68.508 225.075, 65.350 " />
        </g>
    </g>
</svg>
