<?xml version='1.0' encoding='ascii'?>
<svg xmlns="http://www.w3.org/2000/svg" version="1.1" width="250" height="250">
    <g id="ViewLayer_LineSet" xmlns:inkscape="http://www.inkscape.org/namespaces/inkscape" inkscape:groupmode="lineset" inkscape:label="ViewLayer_LineSet">
        <g xmlns:inkscape="http://www.inkscape.org/namespaces/inkscape" inkscape:groupmode="layer" id="strokes" inkscape:label="strokes">
            <path fill="none" stroke-width="3.0" stroke-linecap="butt" stroke-opacity="1.0" stroke="rgb(0, 0, 0)" stroke-linejoin="round" d=" M 48.395, 167.960 56.071, 174.370 63.746, 180.779 71.422, 187.189 79.098, 193.599 86.773, 200.009 94.449, 206.418 102.124, 212.828 109.800, 219.238 117.476, 225.648 125.151, 232.058 126.044, 232.803 133.990, 226.731 141.935, 220.659 149.881, 214.587 157.826, 208.516 165.772, 202.444 173.718, 196.372 181.663, 190.300 189.609, 184.228 197.554, 178.156 205.500, 172.084 207.020, 170.923 208.729, 161.070 210.438, 151.217 212.148, 141.365 213.857, 131.512 215.566, 121.659 217.276, 111.806 218.985, 101.953 220.694, 92.101 222.404, 82.248 224.113, 72.395 225.275, 65.695 215.786, 62.541 206.296, 59.388 196.806, 56.235 187.316, 53.081 177.826, 49.928 168.337, 46.775 158.847, 43.621 149.357, 40.468 139.867, 37.314 129.789, 33.966 120.211, 36.838 110.632, 39.710 101.053, 42.582 91.475, 45.454 81.896, 48.326 72.317, 51.198 62.739, 54.070 53.160, 56.942 43.581, 59.815 33.325, 62.890 34.745, 72.789 36.165, 82.687 37.584, 92.586 39.004, 102.485 40.424, 112.383 41.844, 122.282 43.263, 132.181 44.683, 142.079 46.103, 151.978 47.523, 161.877 48.395, 167.960 " />
            <path fill="none" stroke-width="3.0" stroke-linecap="butt" stroke-opacity="1.0" stroke="rgb(0, 0, 0)" stroke-linejoin="round" d=" M 33.325, 62.890 42.153, 67.587 50.981, 72.284 59.810, 76.981 68.638, 81.679 77.466, 86.376 86.294, 91.073 95.122, 95.770 103.950, 100.468 112.778, 105.165 121.607, 109.862 127.585, 113.043 " />
            <path fill="none" stroke-width="3.0" stroke-linecap="butt" stroke-opacity="1.0" stroke="rgb(0, 0, 0)" stroke-linejoin="round" d=" M 126.044, 232.803 126.173, 222.804 126.301, 212.805 126.430, 202.805 126.559, 192.806 126.687, 182.807 126.816, 172.808 126.945, 162.809 127.073, 152.810 127.202, 142.810 127.331, 132.811 127.459, 122.812 127.585, 113.043 136.584, 108.681 145.582, 104.320 154.581, 99.958 163.580, 95.597 172.579, 91.236 181.577, 86.874 190.576, 82.513 199.575, 78.151 208.574, 73.790 217.572, 69.428 225.275, 65.695 " />
        </g>
    </g>
</svg>
