<?xml version='1.0' encoding='ascii'?>
<svg xmlns="http://www.w3.org/2000/svg" version="1.1" width="250" height="250">
    <g id="ViewLayer_LineSet" xmlns:inkscape="http://www.inkscape.org/namespaces/inkscape" inkscape:groupmode="lineset" inkscape:label="ViewLayer_LineSet">
        <g xmlns:inkscape="http://www.inkscape.org/namespaces/inkscape" inkscape:groupmode="layer" id="strokes" inkscape:label="strokes">
            <path fill="none" stroke-width="3.0" stroke-linecap="butt" stroke-opacity="1.0" stroke="rgb(0, 0, 0)" stroke-linejoin="round" d=" M 47.290, 165.882 54.842, 172.436 62.395, 178.991 69.947, 185.546 77.499, 192.101 85.051, 198.656 92.603, 205.211 100.155, 211.765 107.707, 218.320 115.259, 224.875 122.811, 231.430 124.578, 232.963 132.532, 226.903 140.487, 220.842 148.441, 214.782 156.395, 208.721 164.349, 202.661 172.303, 196.600 180.258, 190.539 188.212, 184.479 196.166, 178.418 204.120, 172.358 205.386, 171.393 207.407, 161.599 209.427, 151.805 211.448, 142.012 213.468, 132.218 215.489, 122.424 217.509, 112.630 219.529, 102.837 221.550, 93.043 223.570, 83.249 225.591, 73.455 226.676, 68.197 217.298, 64.724 207.920, 61.251 198.543, 57.778 189.165, 54.305 179.788, 50.832 170.410, 47.359 161.033, 43.886 151.655, 40.413 142.278, 36.940 132.900, 33.466 130.985, 32.757 121.401, 35.611 111.817, 38.466 102.233, 41.320 92.649, 44.175 83.065, 47.029 73.481, 49.883 63.897, 52.738 54.313, 55.592 44.729, 58.446 35.145, 61.301 34.152, 61.597 35.402, 71.518 36.652, 81.440 37.902, 91.361 39.152, 101.283 40.402, 111.204 41.652, 121.126 42.902, 131.048 44.152, 140.969 45.402, 150.891 46.652, 160.812 47.290, 165.882 " />
            <path fill="none" stroke-width="3.0" stroke-linecap="butt" stroke-opacity="1.0" stroke="rgb(0, 0, 0)" stroke-linejoin="round" d=" M 34.152, 61.597 42.822, 66.579 51.492, 71.562 60.163, 76.544 68.833, 81.527 77.503, 86.509 86.174, 91.492 94.844, 96.474 103.514, 101.457 112.185, 106.439 120.855, 111.422 129.366, 116.313 " />
            <path fill="none" stroke-width="3.0" stroke-linecap="butt" stroke-opacity="1.0" stroke="rgb(0, 0, 0)" stroke-linejoin="round" d=" M 124.578, 232.963 124.988, 222.972 125.398, 212.980 125.808, 202.989 126.218, 192.997 126.629, 183.006 127.039, 173.014 127.449, 163.022 127.859, 153.031 128.269, 143.039 128.679, 133.048 129.089, 123.056 129.366, 116.313 138.330, 111.880 147.294, 107.448 156.258, 103.016 165.222, 98.583 174.186, 94.151 183.150, 89.719 192.114, 85.286 201.078, 80.854 210.042, 76.422 219.006, 71.989 226.676, 68.197 " />
        </g>
    </g>
</svg>
