<?xml version='1.0' encoding='ascii'?>
<svg xmlns="http://www.w3.org/2000/svg" version="1.1" width="250" height="250">
    <g id="ViewLayer_LineSet" xmlns:inkscape="http://www.inkscape.org/namespaces/inkscape" inkscape:groupmode="lineset" inkscape:label="ViewLayer_LineSet">
        <g xmlns:inkscape="http://www.inkscape.org/namespaces/inkscape" inkscape:groupmode="layer" id="strokes" inkscape:label="strokes">
            <path fill="none" stroke-width="3.0" stroke-linecap="butt" stroke-opacity="1.0" stroke="rgb(0, 0, 0)" stroke-linejoin="round" d=" M 45.561, 162.510 52.918, 169.283 60.274, 176.057 67.630, 182.831 74.987, 189.605 82.343, 196.378 89.700, 203.152 97.056, 209.926 104.412, 216.700 111.769, 223.473 119.125, 230.247 122.177, 233.057 130.146, 227.017 138.116, 220.977 146.086, 214.937 154.055, 208.896 162.025, 202.856 169.995, 196.816 177.965, 190.776 185.934, 184.736 193.904, 178.696 201.874, 172.655 202.727, 172.009 205.256, 162.334 207.786, 152.659 210.315, 142.985 212.844, 133.310 215.374, 123.635 217.903, 113.960 220.433, 104.285 222.962, 94.611 225.492, 84.936 228.021, 75.261 228.795, 72.301 219.615, 68.335 210.436, 64.369 201.256, 60.402 192.076, 56.436 182.896, 52.470 173.716, 48.504 164.537, 44.537 155.357, 40.571 146.177, 36.605 136.997, 32.638 133.006, 30.914 123.414, 33.742 113.822, 36.570 104.231, 39.398 94.639, 42.227 85.047, 45.055 75.455, 47.883 65.864, 50.711 56.272, 53.540 46.680, 56.368 37.089, 59.196 35.589, 59.638 36.554, 69.591 37.519, 79.545 38.484, 89.498 39.449, 99.451 40.413, 109.405 41.378, 119.358 42.343, 129.311 43.308, 139.265 44.273, 149.218 45.238, 159.172 45.561, 162.510 " />
            <path fill="none" stroke-width="3.0" stroke-linecap="butt" stroke-opacity="1.0" stroke="rgb(0, 0, 0)" stroke-linejoin="round" d=" M 35.589, 59.638 44.002, 65.043 52.416, 70.448 60.829, 75.854 69.242, 81.259 77.656, 86.664 86.069, 92.069 94.482, 97.474 102.896, 102.880 111.309, 108.285 119.722, 113.690 128.136, 119.095 132.111, 121.650 " />
            <path fill="none" stroke-width="3.0" stroke-linecap="butt" stroke-opacity="1.0" stroke="rgb(0, 0, 0)" stroke-linejoin="round" d=" M 122.177, 233.057 123.065, 223.097 123.953, 213.136 124.841, 203.176 125.729, 193.215 126.618, 183.255 127.506, 173.294 128.394, 163.334 129.282, 153.373 130.171, 143.413 131.059, 133.452 131.947, 123.492 132.111, 121.650 141.018, 117.103 149.925, 112.557 158.832, 108.011 167.739, 103.465 176.646, 98.919 185.553, 94.373 194.460, 89.827 203.366, 85.280 212.273, 80.734 221.180, 76.188 228.795, 72.301 " />
        </g>
    </g>
</svg>
