<?xml version='1.0' encoding='ascii'?>
<svg xmlns="http://www.w3.org/2000/svg" version="1.1" width="250" height="250">
    <g id="ViewLayer_LineSet" xmlns:inkscape="http://www.inkscape.org/namespaces/inkscape" inkscape:groupmode="lineset" inkscape:label="ViewLayer_LineSet">
        <g xmlns:inkscape="http://www.inkscape.org/namespaces/inkscape" inkscape:groupmode="layer" id="strokes" inkscape:label="strokes">
            <path fill="none" stroke-width="3.0" stroke-linecap="butt" stroke-opacity="1.0" stroke="rgb(0, 0, 0)" stroke-linejoin="round" d=" M 43.327, 157.911 50.425, 164.955 57.523, 171.999 64.621, 179.043 71.719, 186.087 78.817, 193.131 85.915, 200.175 93.014, 207.219 100.112, 214.263 107.210, 221.307 114.308, 228.351 118.863, 232.872 126.857, 226.863 134.851, 220.855 142.844, 214.846 150.838, 208.838 158.831, 202.829 166.825, 196.820 174.819, 190.812 182.812, 184.803 190.806, 178.795 199.087, 172.571 202.317, 163.107 205.548, 153.643 208.778, 144.179 212.009, 134.716 215.240, 125.252 218.470, 115.788 221.701, 106.324 224.932, 96.861 228.162, 87.397 231.382, 77.966 222.498, 73.375 213.614, 68.784 204.730, 64.194 195.846, 59.603 186.962, 55.012 178.078, 50.422 169.194, 45.831 160.310, 41.240 151.426, 36.650 142.542, 32.059 135.918, 28.636 126.318, 31.434 116.717, 34.233 107.117, 37.031 97.516, 39.829 87.916, 42.627 78.315, 45.425 68.714, 48.223 59.114, 51.021 49.513, 53.819 39.913, 56.617 37.740, 57.251 38.294, 67.235 38.848, 77.220 39.403, 87.204 39.957, 97.189 40.511, 107.174 41.065, 117.158 41.619, 127.143 42.174, 137.128 42.728, 147.112 43.327, 157.911 " />
            <path fill="none" stroke-width="3.0" stroke-linecap="butt" stroke-opacity="1.0" stroke="rgb(0, 0, 0)" stroke-linejoin="round" d=" M 37.740, 57.251 45.805, 63.163 53.870, 69.075 61.935, 74.987 70.000, 80.899 78.065, 86.812 86.130, 92.724 94.196, 98.636 102.261, 104.548 110.326, 110.460 118.391, 116.373 126.456, 122.285 134.521, 128.197 135.563, 128.961 " />
            <path fill="none" stroke-width="3.0" stroke-linecap="butt" stroke-opacity="1.0" stroke="rgb(0, 0, 0)" stroke-linejoin="round" d=" M 118.863, 232.872 120.450, 222.998 122.037, 213.125 123.624, 203.252 125.210, 193.378 126.797, 183.505 128.384, 173.632 129.970, 163.758 131.557, 153.885 133.144, 144.012 134.731, 134.138 135.563, 128.961 144.390, 124.263 153.218, 119.565 162.046, 114.867 170.873, 110.168 179.701, 105.470 188.529, 100.772 197.356, 96.074 206.184, 91.376 215.012, 86.678 223.840, 81.980 231.382, 77.966 " />
        </g>
    </g>
</svg>
