<?xml version='1.0' encoding='ascii'?>
<svg xmlns="http://www.w3.org/2000/svg" version="1.1" width="250" height="250">
    <g id="ViewLayer_LineSet" xmlns:inkscape="http://www.inkscape.org/namespaces/inkscape" inkscape:groupmode="lineset" inkscape:label="ViewLayer_LineSet">
        <g xmlns:inkscape="http://www.inkscape.org/namespaces/inkscape" inkscape:groupmode="layer" id="strokes" inkscape:label="strokes">
            <path fill="none" stroke-width="3.0" stroke-linecap="butt" stroke-opacity="1.0" stroke="rgb(0, 0, 0)" stroke-linejoin="round" d=" M 40.726, 152.156 47.513, 159.500 54.300, 166.844 61.088, 174.188 67.875, 181.532 74.662, 188.876 81.449, 196.220 88.236, 203.564 95.023, 210.908 101.811, 218.252 108.598, 225.596 114.671, 232.168 122.699, 226.205 130.726, 220.242 138.754, 214.278 146.781, 208.315 154.809, 202.352 162.836, 196.389 170.864, 190.426 178.891, 184.462 186.919, 178.499 194.525, 172.849 198.639, 163.735 202.753, 154.620 206.867, 145.506 210.981, 136.391 215.095, 127.277 219.209, 118.162 223.323, 109.048 227.437, 99.933 231.551, 90.819 234.124, 85.120 225.644, 79.820 217.163, 74.520 208.683, 69.221 200.203, 63.921 191.723, 58.621 183.243, 53.322 174.762, 48.022 166.282, 42.722 157.802, 37.422 149.322, 32.123 140.842, 26.823 139.811, 26.179 130.202, 28.948 120.593, 31.718 110.984, 34.488 101.375, 37.257 91.766, 40.027 82.158, 42.796 72.549, 45.566 62.940, 48.336 53.331, 51.105 43.722, 53.875 40.738, 54.735 40.737, 64.735 40.736, 74.735 40.735, 84.735 40.733, 94.735 40.732, 104.735 40.731, 114.735 40.730, 124.735 40.728, 134.735 40.727, 144.735 40.726, 152.156 " />
            <path fill="none" stroke-width="3.0" stroke-linecap="butt" stroke-opacity="1.0" stroke="rgb(0, 0, 0)" stroke-linejoin="round" d=" M 40.738, 54.735 48.377, 61.189 56.015, 67.644 63.653, 74.098 71.291, 80.553 78.929, 87.007 86.567, 93.462 94.205, 99.916 101.843, 106.370 109.481, 112.825 117.119, 119.279 124.758, 125.734 132.396, 132.188 139.395, 138.102 " />
            <path fill="none" stroke-width="3.0" stroke-linecap="butt" stroke-opacity="1.0" stroke="rgb(0, 0, 0)" stroke-linejoin="round" d=" M 114.671, 232.168 117.213, 222.496 119.755, 212.825 122.297, 203.153 124.839, 193.482 127.381, 183.810 129.923, 174.139 132.465, 164.467 135.007, 154.796 137.549, 145.124 139.395, 138.102 148.122, 133.221 156.850, 128.340 165.578, 123.458 174.305, 118.577 183.033, 113.695 191.761, 108.814 200.488, 103.932 209.216, 99.051 217.943, 94.169 226.671, 89.288 234.124, 85.120 " />
        </g>
    </g>
</svg>
