<?xml version='1.0' encoding='ascii'?>
<svg xmlns="http://www.w3.org/2000/svg" version="1.1" width="250" height="250">
    <g id="ViewLayer_LineSet" xmlns:inkscape="http://www.inkscape.org/namespaces/inkscape" inkscape:groupmode="lineset" inkscape:label="ViewLayer_LineSet">
        <g xmlns:inkscape="http://www.inkscape.org/namespaces/inkscape" inkscape:groupmode="layer" id="strokes" inkscape:label="strokes">
            <path fill="none" stroke-width="3.0" stroke-linecap="butt" stroke-opacity="1.0" stroke="rgb(0, 0, 0)" stroke-linejoin="round" d=" M 37.913, 145.326 44.346, 152.982 50.779, 160.639 57.212, 168.295 63.645, 175.951 70.078, 183.607 76.510, 191.264 82.943, 198.920 89.376, 206.576 95.809, 214.232 102.242, 221.888 108.675, 229.545 109.655, 230.711 117.728, 224.809 125.800, 218.907 133.873, 213.005 141.945, 207.103 150.018, 201.201 158.090, 195.299 166.163, 189.397 174.235, 183.495 182.308, 177.593 189.123, 172.610 194.280, 164.043 199.437, 155.475 204.594, 146.907 209.751, 138.340 214.908, 129.772 220.065, 121.204 225.222, 112.637 230.379, 104.069 235.536, 95.501 236.664, 93.628 228.700, 87.580 220.736, 81.532 212.772, 75.484 204.808, 69.437 196.844, 63.389 188.880, 57.341 180.916, 51.293 172.952, 45.246 164.988, 39.198 157.024, 33.150 149.060, 27.102 144.772, 23.846 135.158, 26.596 125.543, 29.346 115.929, 32.096 106.314, 34.846 96.700, 37.595 87.085, 40.345 77.471, 43.095 67.856, 45.845 58.242, 48.595 48.627, 51.345 44.736, 52.458 44.003, 62.431 43.270, 72.405 42.538, 82.378 41.805, 92.351 41.072, 102.324 40.340, 112.297 39.607, 122.270 38.874, 132.243 38.142, 142.216 37.913, 145.326 " />
            <path fill="none" stroke-width="3.0" stroke-linecap="butt" stroke-opacity="1.0" stroke="rgb(0, 0, 0)" stroke-linejoin="round" d=" M 44.736, 52.458 51.883, 59.452 59.030, 66.446 66.178, 73.440 73.325, 80.434 80.472, 87.428 87.620, 94.422 94.767, 101.416 101.914, 108.410 109.062, 115.404 116.209, 122.398 123.356, 129.392 130.504, 136.386 137.651, 143.380 143.224, 148.833 " />
            <path fill="none" stroke-width="3.0" stroke-linecap="butt" stroke-opacity="1.0" stroke="rgb(0, 0, 0)" stroke-linejoin="round" d=" M 109.655, 230.711 113.449, 221.459 117.242, 212.206 121.035, 202.954 124.829, 193.701 128.622, 184.448 132.416, 175.196 136.209, 165.943 140.003, 156.691 143.224, 148.833 151.834, 143.746 160.443, 138.660 169.053, 133.573 177.663, 128.486 186.272, 123.400 194.882, 118.313 203.491, 113.226 212.101, 108.140 220.711, 103.053 229.320, 97.966 236.664, 93.628 " />
        </g>
    </g>
</svg>
