<?xml version='1.0' encoding='ascii'?>
<svg xmlns="http://www.w3.org/2000/svg" version="1.1" width="250" height="250">
    <g id="ViewLayer_LineSet" xmlns:inkscape="http://www.inkscape.org/namespaces/inkscape" inkscape:groupmode="lineset" inkscape:label="ViewLayer_LineSet">
        <g xmlns:inkscape="http://www.inkscape.org/namespaces/inkscape" inkscape:groupmode="layer" id="strokes" inkscape:label="strokes">
            <path fill="none" stroke-width="3.0" stroke-linecap="butt" stroke-opacity="1.0" stroke="rgb(0, 0, 0)" stroke-linejoin="round" d=" M 35.057, 137.524 41.100, 145.492 47.143, 153.460 53.185, 161.427 59.228, 169.395 65.271, 177.363 71.313, 185.331 77.356, 193.299 83.399, 201.266 89.441, 209.234 95.484, 217.202 101.527, 225.170 103.898, 228.297 112.028, 222.473 120.157, 216.650 128.287, 210.826 136.416, 205.003 144.545, 199.180 152.675, 193.356 160.804, 187.533 168.934, 181.709 177.063, 175.886 182.993, 171.638 189.304, 163.881 195.616, 156.124 201.927, 148.367 208.238, 140.610 214.549, 132.853 220.860, 125.096 227.171, 117.339 233.482, 109.582 238.624, 103.261 231.287, 96.467 223.951, 89.672 216.614, 82.877 209.277, 76.082 201.940, 69.287 194.603, 62.492 187.267, 55.697 179.930, 48.902 172.593, 42.107 165.256, 35.312 157.919, 28.517 150.873, 21.991 141.258, 24.739 131.642, 27.486 122.027, 30.234 112.412, 32.981 102.797, 35.729 93.182, 38.476 83.567, 41.224 73.952, 43.971 64.336, 46.719 54.721, 49.466 49.879, 50.850 48.193, 60.707 46.508, 70.564 44.822, 80.421 43.136, 90.278 41.451, 100.134 39.765, 109.991 38.080, 119.848 36.394, 129.705 35.057, 137.524 " />
            <path fill="none" stroke-width="3.0" stroke-linecap="butt" stroke-opacity="1.0" stroke="rgb(0, 0, 0)" stroke-linejoin="round" d=" M 49.879, 50.850 56.485, 58.357 63.092, 65.863 69.699, 73.370 76.305, 80.877 82.912, 88.384 89.519, 95.891 96.125, 103.397 102.732, 110.904 109.339, 118.411 115.945, 125.918 122.552, 133.425 129.159, 140.931 135.765, 148.438 142.372, 155.945 146.630, 160.783 " />
            <path fill="none" stroke-width="3.0" stroke-linecap="butt" stroke-opacity="1.0" stroke="rgb(0, 0, 0)" stroke-linejoin="round" d=" M 103.898, 228.297 109.246, 219.847 114.594, 211.397 119.942, 202.948 125.291, 194.498 130.639, 186.048 135.987, 177.598 141.335, 169.149 146.630, 160.783 155.109, 155.481 163.588, 150.179 172.067, 144.878 180.545, 139.576 189.024, 134.275 197.503, 128.973 205.982, 123.671 214.461, 118.370 222.940, 113.068 231.419, 107.766 238.624, 103.261 " />
        </g>
    </g>
</svg>
