<?xml version='1.0' encoding='ascii'?>
<svg xmlns="http://www.w3.org/2000/svg" version="1.1" width="250" height="250">
    <g id="ViewLayer_LineSet" xmlns:inkscape="http://www.inkscape.org/namespaces/inkscape" inkscape:groupmode="lineset" inkscape:label="ViewLayer_LineSet">
        <g xmlns:inkscape="http://www.inkscape.org/namespaces/inkscape" inkscape:groupmode="layer" id="strokes" inkscape:label="strokes">
            <path fill="none" stroke-width="3.0" stroke-linecap="butt" stroke-opacity="1.0" stroke="rgb(0, 0, 0)" stroke-linejoin="round" d=" M 32.339, 128.878 37.960, 137.148 43.582, 145.419 49.203, 153.689 54.824, 161.959 60.446, 170.230 66.067, 178.500 71.688, 186.771 77.310, 195.041 82.931, 203.312 88.552, 211.582 94.174, 219.853 97.516, 224.770 105.714, 219.043 113.912, 213.317 122.110, 207.590 130.308, 201.864 138.506, 196.138 146.704, 190.411 154.902, 184.685 163.100, 178.958 171.298, 173.232 176.281, 169.751 183.770, 163.124 191.259, 156.497 198.748, 149.871 206.237, 143.244 213.726, 136.617 221.215, 129.990 228.704, 123.363 236.193, 116.736 239.638, 113.688 233.034, 106.178 226.431, 98.669 219.827, 91.159 213.224, 83.649 206.620, 76.140 200.017, 68.630 193.413, 61.121 186.810, 53.611 180.206, 46.101 173.603, 38.592 166.999, 31.082 160.396, 23.573 158.139, 21.006 148.531, 23.778 138.923, 26.550 129.315, 29.322 119.707, 32.094 110.098, 34.867 100.490, 37.639 90.882, 40.411 81.274, 43.183 71.666, 45.955 62.058, 48.727 56.288, 50.392 53.369, 59.957 50.451, 69.521 47.532, 79.086 44.614, 88.650 41.695, 98.215 38.777, 107.780 35.858, 117.344 32.940, 126.909 32.339, 128.878 " />
            <path fill="none" stroke-width="3.0" stroke-linecap="butt" stroke-opacity="1.0" stroke="rgb(0, 0, 0)" stroke-linejoin="round" d=" M 56.288, 50.392 62.313, 58.373 68.339, 66.354 74.364, 74.335 80.389, 82.316 86.415, 90.296 92.440, 98.277 98.465, 106.258 104.491, 114.239 110.516, 122.220 116.541, 130.201 122.567, 138.182 128.592, 146.163 134.618, 154.144 140.643, 162.125 146.668, 170.106 149.190, 173.446 " />
            <path fill="none" stroke-width="3.0" stroke-linecap="butt" stroke-opacity="1.0" stroke="rgb(0, 0, 0)" stroke-linejoin="round" d=" M 97.516, 224.770 104.611, 217.723 111.706, 210.676 118.801, 203.629 125.896, 196.582 132.991, 189.535 140.086, 182.488 147.181, 175.441 149.190, 173.446 157.534, 167.933 165.877, 162.421 174.220, 156.908 182.564, 151.396 190.907, 145.884 199.251, 140.371 207.594, 134.859 215.938, 129.346 224.281, 123.834 232.624, 118.321 239.638, 113.688 " />
        </g>
    </g>
</svg>
