<?xml version='1.0' encoding='ascii'?>
<svg xmlns="http://www.w3.org/2000/svg" version="1.1" width="250" height="250">
    <g id="ViewLayer_LineSet" xmlns:inkscape="http://www.inkscape.org/namespaces/inkscape" inkscape:groupmode="lineset" inkscape:label="ViewLayer_LineSet">
        <g xmlns:inkscape="http://www.inkscape.org/namespaces/inkscape" inkscape:groupmode="layer" id="strokes" inkscape:label="strokes">
            <path fill="none" stroke-width="3.0" stroke-linecap="butt" stroke-opacity="1.0" stroke="rgb(0, 0, 0)" stroke-linejoin="round" d=" M 29.948, 119.548 35.118, 128.108 40.289, 136.667 45.459, 145.227 50.630, 153.786 55.800, 162.346 60.971, 170.905 66.142, 179.465 71.312, 188.024 76.483, 196.584 81.653, 205.143 86.824, 213.703 90.650, 220.037 99.357, 215.118 108.063, 210.199 116.770, 205.280 125.476, 200.361 134.183, 195.442 142.889, 190.524 150.530, 186.207 158.742, 180.502 166.955, 174.796 175.168, 169.091 183.380, 163.386 191.593, 157.680 199.806, 151.975 208.019, 146.270 216.231, 140.564 224.444, 134.859 232.657, 129.154 239.390, 124.476 233.622, 116.307 227.853, 108.139 222.084, 99.971 216.316, 91.802 210.547, 83.634 204.778, 75.466 199.010, 67.297 193.241, 59.129 187.472, 50.960 181.704, 42.792 175.935, 34.624 170.166, 26.455 166.526, 21.300 156.936, 24.134 147.346, 26.969 137.756, 29.803 128.166, 32.638 118.576, 35.472 108.986, 38.306 99.396, 41.141 89.806, 43.975 80.216, 46.810 70.627, 49.644 64.024, 51.595 59.541, 60.534 55.059, 69.473 50.576, 78.412 46.093, 87.351 41.611, 96.290 37.128, 105.229 32.645, 114.168 29.948, 119.548 " />
            <path fill="none" stroke-width="3.0" stroke-linecap="butt" stroke-opacity="1.0" stroke="rgb(0, 0, 0)" stroke-linejoin="round" d=" M 64.024, 51.595 69.430, 60.008 74.836, 68.421 80.243, 76.833 85.649, 85.246 91.055, 93.659 96.461, 102.071 101.868, 110.484 107.274, 118.897 112.680, 127.309 118.086, 135.722 123.492, 144.135 128.899, 152.547 134.305, 160.960 139.711, 169.373 145.117, 177.785 150.530, 186.207 " />
        </g>
    </g>
</svg>
