<?xml version='1.0' encoding='ascii'?>
<svg xmlns="http://www.w3.org/2000/svg" version="1.1" width="250" height="250">
    <g id="ViewLayer_LineSet" xmlns:inkscape="http://www.inkscape.org/namespaces/inkscape" inkscape:groupmode="lineset" inkscape:label="ViewLayer_LineSet">
        <g xmlns:inkscape="http://www.inkscape.org/namespaces/inkscape" inkscape:groupmode="layer" id="strokes" inkscape:label="strokes">
            <path fill="none" stroke-width="3.0" stroke-linecap="butt" stroke-opacity="1.0" stroke="rgb(0, 0, 0)" stroke-linejoin="round" d=" M 26.927, 99.678 31.097, 108.766 35.268, 117.855 39.439, 126.944 43.610, 136.033 47.781, 145.121 51.951, 154.210 56.122, 163.299 60.293, 172.387 64.464, 181.476 68.634, 190.565 72.805, 199.653 76.134, 206.907 86.128, 207.247 96.122, 207.588 106.116, 207.928 116.111, 208.269 126.105, 208.609 136.099, 208.950 146.093, 209.290 148.549, 209.374 156.554, 203.381 164.559, 197.387 172.563, 191.394 180.568, 185.400 188.573, 179.407 196.578, 173.413 204.583, 167.420 212.588, 161.426 220.593, 155.433 228.598, 149.439 234.346, 145.136 230.550, 135.884 226.755, 126.632 222.959, 117.380 219.164, 108.129 215.368, 98.877 211.573, 89.625 207.778, 80.373 203.982, 71.122 200.187, 61.870 196.391, 52.618 192.596, 43.366 188.800, 34.115 185.982, 27.244 176.479, 30.357 166.975, 33.469 157.472, 36.582 147.969, 39.694 138.466, 42.807 128.962, 45.920 119.459, 49.032 109.956, 52.145 100.453, 55.257 90.949, 58.370 83.222, 60.901 74.987, 66.573 66.751, 72.246 58.516, 77.919 50.281, 83.591 42.045, 89.264 33.810, 94.936 26.927, 99.678 " />
            <path fill="none" stroke-width="3.0" stroke-linecap="butt" stroke-opacity="1.0" stroke="rgb(0, 0, 0)" stroke-linejoin="round" d=" M 83.222, 60.901 87.250, 70.054 91.277, 79.207 95.304, 88.360 99.331, 97.513 103.359, 106.667 107.386, 115.820 111.413, 124.973 115.441, 134.126 119.468, 143.279 123.495, 152.433 127.523, 161.586 131.550, 170.739 135.577, 179.892 139.604, 189.045 143.632, 198.198 147.659, 207.352 148.549, 209.374 " />
        </g>
    </g>
</svg>
