<?xml version='1.0' encoding='ascii'?>
<svg xmlns="http://www.w3.org/2000/svg" version="1.1" width="250" height="250">
    <g id="ViewLayer_LineSet" xmlns:inkscape="http://www.inkscape.org/namespaces/inkscape" inkscape:groupmode="lineset" inkscape:label="ViewLayer_LineSet">
        <g xmlns:inkscape="http://www.inkscape.org/namespaces/inkscape" inkscape:groupmode="layer" id="strokes" inkscape:label="strokes">
            <path fill="none" stroke-width="3.0" stroke-linecap="butt" stroke-opacity="1.0" stroke="rgb(0, 0, 0)" stroke-linejoin="round" d=" M 26.685, 89.663 30.292, 98.990 33.900, 108.316 37.507, 117.643 41.115, 126.970 44.723, 136.296 48.330, 145.623 51.938, 154.949 55.545, 164.276 59.153, 173.603 62.760, 182.929 66.368, 192.256 68.835, 198.634 78.509, 201.166 88.183, 203.698 97.857, 206.230 107.531, 208.762 117.205, 211.294 126.879, 213.827 136.553, 216.359 145.074, 218.589 153.017, 212.513 160.959, 206.437 168.902, 200.362 176.844, 194.286 184.787, 188.210 192.729, 182.134 200.672, 176.058 208.614, 169.982 216.557, 163.906 224.499, 157.830 229.479, 154.021 226.835, 144.376 224.191, 134.732 221.546, 125.088 218.902, 115.444 216.258, 105.800 213.613, 96.156 210.969, 86.512 208.325, 76.868 205.681, 67.224 203.036, 57.580 200.392, 47.936 197.748, 38.292 196.419, 33.448 186.876, 36.436 177.334, 39.425 167.791, 42.414 158.248, 45.402 148.705, 48.391 139.162, 51.380 129.619, 54.368 120.076, 57.357 117.006, 58.319 107.559, 61.597 98.111, 64.876 88.664, 68.154 79.217, 71.433 69.769, 74.711 60.322, 77.990 50.875, 81.268 41.428, 84.547 31.980, 87.825 26.685, 89.663 " />
            <path fill="none" stroke-width="3.0" stroke-linecap="butt" stroke-opacity="1.0" stroke="rgb(0, 0, 0)" stroke-linejoin="round" d=" M 26.685, 89.663 36.274, 86.827 45.864, 83.990 55.453, 81.154 65.042, 78.318 74.632, 75.482 84.221, 72.645 94.213, 69.690 " />
            <path fill="none" stroke-width="3.0" stroke-linecap="butt" stroke-opacity="1.0" stroke="rgb(0, 0, 0)" stroke-linejoin="round" d=" M 145.074, 218.589 141.842, 209.126 138.610, 199.663 135.377, 190.200 132.145, 180.737 128.912, 171.273 125.680, 161.810 122.447, 152.347 119.215, 142.884 115.983, 133.421 112.750, 123.958 109.518, 114.494 106.285, 105.031 103.053, 95.568 99.821, 86.105 96.588, 76.642 94.213, 69.690 103.638, 66.348 113.063, 63.006 122.488, 59.663 131.913, 56.321 141.338, 52.979 150.763, 49.637 160.188, 46.295 169.613, 42.953 179.038, 39.611 188.463, 36.269 196.419, 33.448 " />
        </g>
    </g>
</svg>
