<?xml version='1.0' encoding='ascii'?>
<svg xmlns="http://www.w3.org/2000/svg" version="1.1" width="250" height="250">
    <g id="ViewLayer_LineSet" xmlns:inkscape="http://www.inkscape.org/namespaces/inkscape" inkscape:groupmode="lineset" inkscape:label="ViewLayer_LineSet">
        <g xmlns:inkscape="http://www.inkscape.org/namespaces/inkscape" inkscape:groupmode="layer" id="strokes" inkscape:label="strokes">
            <path fill="none" stroke-width="3.0" stroke-linecap="butt" stroke-opacity="1.0" stroke="rgb(0, 0, 0)" stroke-linejoin="round" d=" M 27.531, 80.020 30.516, 89.564 33.501, 99.108 36.487, 108.652 39.472, 118.196 42.457, 127.740 45.442, 137.284 48.427, 146.828 51.413, 156.372 54.398, 165.916 57.383, 175.460 60.368, 185.004 61.739, 189.386 70.813, 193.587 79.888, 197.789 88.962, 201.991 98.037, 206.192 107.111, 210.394 116.186, 214.596 125.260, 218.797 134.335, 222.999 140.077, 225.657 147.989, 219.542 155.901, 213.427 163.814, 207.312 171.726, 201.197 179.638, 195.081 187.550, 188.966 195.463, 182.851 203.375, 176.736 211.287, 170.621 219.200, 164.506 223.217, 161.401 221.849, 151.495 220.482, 141.589 219.115, 131.683 217.747, 121.777 216.380, 111.870 215.012, 101.964 213.645, 92.058 212.277, 82.152 210.910, 72.246 209.543, 62.340 208.175, 52.434 206.725, 41.927 196.764, 42.810 186.803, 43.694 176.842, 44.578 166.881, 45.462 156.920, 46.346 146.959, 47.229 136.999, 48.113 127.038, 48.997 119.824, 49.637 110.326, 52.764 100.827, 55.891 91.328, 59.018 81.830, 62.145 72.331, 65.272 62.833, 68.399 53.334, 71.526 43.836, 74.653 34.337, 77.779 27.531, 80.020 " />
            <path fill="none" stroke-width="3.0" stroke-linecap="butt" stroke-opacity="1.0" stroke="rgb(0, 0, 0)" stroke-linejoin="round" d=" M 27.531, 80.020 37.529, 80.191 47.528, 80.362 57.526, 80.533 67.525, 80.704 77.524, 80.875 87.522, 81.045 97.521, 81.216 105.565, 81.354 " />
            <path fill="none" stroke-width="3.0" stroke-linecap="butt" stroke-opacity="1.0" stroke="rgb(0, 0, 0)" stroke-linejoin="round" d=" M 140.077, 225.657 137.751, 215.932 135.425, 206.206 133.099, 196.480 130.773, 186.754 128.447, 177.029 126.121, 167.303 123.795, 157.577 121.469, 147.851 119.143, 138.126 116.817, 128.400 114.491, 118.674 112.165, 108.949 109.839, 99.223 107.513, 89.497 105.565, 81.354 114.882, 77.722 124.200, 74.091 133.517, 70.459 142.834, 66.828 152.152, 63.197 161.469, 59.565 170.786, 55.934 180.104, 52.302 189.421, 48.671 198.738, 45.039 206.725, 41.927 " />
        </g>
    </g>
</svg>
