<?xml version='1.0' encoding='ascii'?>
<svg xmlns="http://www.w3.org/2000/svg" version="1.1" width="250" height="250">
    <g id="ViewLayer_LineSet" xmlns:inkscape="http://www.inkscape.org/namespaces/inkscape" inkscape:groupmode="lineset" inkscape:label="ViewLayer_LineSet">
        <g xmlns:inkscape="http://www.inkscape.org/namespaces/inkscape" inkscape:groupmode="layer" id="strokes" inkscape:label="strokes">
            <path fill="none" stroke-width="3.0" stroke-linecap="butt" stroke-opacity="1.0" stroke="rgb(0, 0, 0)" stroke-linejoin="round" d=" M 29.617, 71.117 31.901, 80.853 34.185, 90.588 36.469, 100.324 38.753, 110.060 41.037, 119.795 43.322, 129.531 45.606, 139.267 47.890, 149.002 50.174, 158.738 52.458, 168.474 54.742, 178.209 55.006, 179.333 63.399, 184.771 71.791, 190.208 80.184, 195.645 88.577, 201.082 96.970, 206.519 105.362, 211.956 113.755, 217.393 122.148, 222.830 130.540, 228.268 133.797, 230.377 141.710, 224.264 149.624, 218.150 157.537, 212.036 165.451, 205.923 173.365, 199.809 181.278, 193.696 189.192, 187.582 197.105, 181.468 205.019, 175.355 212.932, 169.241 215.812, 167.017 215.859, 157.017 215.907, 147.017 215.954, 137.017 216.002, 127.017 216.050, 117.017 216.097, 107.017 216.145, 97.017 216.193, 87.018 216.240, 77.018 216.288, 67.018 216.335, 57.018 216.357, 52.519 206.427, 51.340 196.496, 50.161 186.566, 48.982 176.636, 47.804 166.705, 46.625 156.775, 45.446 146.845, 44.267 136.915, 43.089 126.984, 41.910 123.943, 41.549 114.401, 44.540 104.858, 47.531 95.316, 50.522 85.774, 53.514 76.232, 56.505 66.690, 59.496 57.148, 62.487 47.605, 65.478 38.063, 68.469 29.617, 71.117 " />
            <path fill="none" stroke-width="3.0" stroke-linecap="butt" stroke-opacity="1.0" stroke="rgb(0, 0, 0)" stroke-linejoin="round" d=" M 29.617, 71.117 39.243, 73.826 48.869, 76.536 58.495, 79.245 68.121, 81.954 77.747, 84.664 87.373, 87.373 96.999, 90.082 106.625, 92.791 116.693, 95.625 " />
            <path fill="none" stroke-width="3.0" stroke-linecap="butt" stroke-opacity="1.0" stroke="rgb(0, 0, 0)" stroke-linejoin="round" d=" M 133.797, 230.377 132.538, 220.457 131.278, 210.536 130.019, 200.616 128.760, 190.696 127.501, 180.775 126.242, 170.855 124.982, 160.934 123.723, 151.014 122.464, 141.094 121.205, 131.173 119.945, 121.253 118.686, 111.332 117.427, 101.412 116.693, 95.625 125.871, 91.655 135.049, 87.686 144.227, 83.716 153.406, 79.746 162.584, 75.776 171.762, 71.807 180.941, 67.837 190.119, 63.867 199.297, 59.897 208.475, 55.928 216.357, 52.519 " />
        </g>
    </g>
</svg>
