<?xml version='1.0' encoding='ascii'?>
<svg xmlns="http://www.w3.org/2000/svg" version="1.1" width="250" height="250">
    <g id="ViewLayer_LineSet" xmlns:inkscape="http://www.inkscape.org/namespaces/inkscape" inkscape:groupmode="lineset" inkscape:label="ViewLayer_LineSet">
        <g xmlns:inkscape="http://www.inkscape.org/namespaces/inkscape" inkscape:groupmode="layer" id="strokes" inkscape:label="strokes">
            <path fill="none" stroke-width="3.0" stroke-linecap="butt" stroke-opacity="1.0" stroke="rgb(0, 0, 0)" stroke-linejoin="round" d=" M 37.888, 57.107 38.414, 67.093 38.941, 77.079 39.467, 87.065 39.994, 97.051 40.520, 107.037 41.047, 117.023 41.573, 127.009 42.100, 136.996 42.626, 146.982 43.187, 157.611 50.268, 164.672 57.350, 171.732 64.431, 178.793 71.513, 185.854 78.594, 192.914 85.676, 199.975 92.757, 207.035 99.839, 214.096 106.920, 221.156 114.002, 228.217 118.646, 232.848 126.642, 226.841 134.637, 220.835 142.632, 214.829 150.627, 208.822 158.623, 202.816 166.618, 196.810 174.613, 190.803 182.608, 184.797 190.604, 178.791 198.849, 172.597 202.126, 163.149 205.402, 153.701 208.679, 144.253 211.955, 134.805 215.232, 125.357 218.508, 115.909 221.785, 106.461 225.061, 97.013 228.338, 87.565 231.538, 78.337 222.674, 73.707 213.810, 69.078 204.947, 64.448 196.083, 59.819 187.219, 55.189 178.355, 50.560 169.491, 45.930 160.627, 41.301 151.763, 36.671 142.900, 32.042 136.114, 28.498 126.513, 31.294 116.912, 34.090 107.311, 36.887 97.710, 39.683 88.109, 42.479 78.508, 45.276 68.907, 48.072 59.306, 50.868 49.705, 53.665 40.104, 56.461 37.888, 57.107 " />
            <path fill="none" stroke-width="3.0" stroke-linecap="butt" stroke-opacity="1.0" stroke="rgb(0, 0, 0)" stroke-linejoin="round" d=" M 37.888, 57.107 45.930, 63.049 53.973, 68.992 62.015, 74.935 70.058, 80.878 78.101, 86.820 86.143, 92.763 94.186, 98.706 102.228, 104.649 110.271, 110.592 118.313, 116.534 126.356, 122.477 134.399, 128.420 135.776, 129.437 " />
            <path fill="none" stroke-width="3.0" stroke-linecap="butt" stroke-opacity="1.0" stroke="rgb(0, 0, 0)" stroke-linejoin="round" d=" M 118.646, 232.848 120.280, 222.982 121.915, 213.116 123.549, 203.251 125.183, 193.385 126.817, 183.520 128.451, 173.654 130.086, 163.789 131.720, 153.923 133.354, 144.057 134.988, 134.192 135.776, 129.437 144.598, 124.730 153.421, 120.022 162.243, 115.314 171.066, 110.606 179.888, 105.898 188.711, 101.190 197.533, 96.482 206.356, 91.775 215.178, 87.067 224.000, 82.359 231.538, 78.337 " />
        </g>
    </g>
</svg>
