<?xml version='1.0' encoding='ascii'?>
<svg xmlns="http://www.w3.org/2000/svg" version="1.1" width="250" height="250">
    <g id="ViewLayer_LineSet" xmlns:inkscape="http://www.inkscape.org/namespaces/inkscape" inkscape:groupmode="lineset" inkscape:label="ViewLayer_LineSet">
        <g xmlns:inkscape="http://www.inkscape.org/namespaces/inkscape" inkscape:groupmode="layer" id="strokes" inkscape:label="strokes">
            <path fill="none" stroke-width="3.0" stroke-linecap="butt" stroke-opacity="1.0" stroke="rgb(0, 0, 0)" stroke-linejoin="round" d=" M 44.089, 52.757 43.475, 62.739 42.860, 72.720 42.246, 82.701 41.632, 92.682 41.018, 102.663 40.403, 112.644 39.789, 122.625 39.175, 132.606 38.561, 142.587 38.327, 146.378 44.814, 153.989 51.300, 161.600 57.787, 169.211 64.274, 176.821 70.760, 184.432 77.247, 192.043 83.733, 199.654 90.220, 207.265 96.707, 214.875 103.193, 222.486 109.680, 230.097 110.430, 230.977 118.495, 225.065 126.560, 219.153 134.626, 213.241 142.691, 207.329 150.756, 201.417 158.822, 195.505 166.887, 189.593 174.952, 183.682 183.017, 177.770 189.953, 172.686 194.951, 164.024 199.948, 155.362 204.946, 146.701 209.944, 138.039 214.941, 129.377 219.939, 120.716 224.936, 112.054 229.934, 103.392 234.932, 94.731 236.323, 92.319 228.277, 86.380 220.232, 80.442 212.186, 74.503 204.140, 68.565 196.095, 62.626 188.049, 56.687 180.003, 50.749 171.958, 44.810 163.912, 38.872 155.866, 32.933 147.820, 26.995 143.984, 24.163 134.370, 26.915 124.756, 29.667 115.142, 32.419 105.529, 35.171 95.915, 37.923 86.301, 40.674 76.687, 43.426 67.073, 46.178 57.459, 48.930 47.845, 51.682 44.089, 52.757 " />
            <path fill="none" stroke-width="3.0" stroke-linecap="butt" stroke-opacity="1.0" stroke="rgb(0, 0, 0)" stroke-linejoin="round" d=" M 44.089, 52.757 51.311, 59.674 58.533, 66.592 65.754, 73.509 72.976, 80.426 80.198, 87.343 87.420, 94.260 94.642, 101.177 101.863, 108.094 109.085, 115.011 116.307, 121.928 123.529, 128.845 130.751, 135.762 137.972, 142.679 142.685, 147.193 " />
            <path fill="none" stroke-width="3.0" stroke-linecap="butt" stroke-opacity="1.0" stroke="rgb(0, 0, 0)" stroke-linejoin="round" d=" M 110.430, 230.977 114.023, 221.645 117.615, 212.313 121.208, 202.980 124.801, 193.648 128.394, 184.316 131.987, 174.983 135.579, 165.651 139.172, 156.319 142.685, 147.193 151.313, 142.137 159.941, 137.081 168.568, 132.025 177.196, 126.969 185.824, 121.913 194.451, 116.857 203.079, 111.801 211.707, 106.745 220.334, 101.689 228.962, 96.633 236.323, 92.319 " />
        </g>
    </g>
</svg>
