<?xml version='1.0' encoding='ascii'?>
<svg xmlns="http://www.w3.org/2000/svg" version="1.1" width="250" height="250">
    <g id="ViewLayer_LineSet" xmlns:inkscape="http://www.inkscape.org/namespaces/inkscape" inkscape:groupmode="lineset" inkscape:label="ViewLayer_LineSet">
        <g xmlns:inkscape="http://www.inkscape.org/namespaces/inkscape" inkscape:groupmode="layer" id="strokes" inkscape:label="strokes">
            <path fill="none" stroke-width="3.0" stroke-linecap="butt" stroke-opacity="1.0" stroke="rgb(0, 0, 0)" stroke-linejoin="round" d=" M 59.974, 50.751 56.319, 60.060 52.664, 69.368 49.010, 78.676 45.355, 87.985 41.701, 97.293 38.046, 106.601 34.392, 115.910 31.095, 124.306 36.496, 132.722 41.896, 141.138 47.297, 149.555 52.697, 157.971 58.098, 166.387 63.499, 174.804 68.899, 183.220 74.300, 191.636 79.700, 200.052 85.101, 208.469 90.502, 216.885 94.148, 222.567 102.384, 216.896 110.620, 211.225 118.857, 205.554 127.093, 199.882 135.329, 194.211 143.566, 188.540 151.802, 182.869 160.038, 177.197 168.275, 171.526 172.774, 168.428 180.820, 162.490 188.866, 156.552 196.912, 150.614 204.958, 144.676 213.004, 138.738 221.050, 132.800 229.096, 126.862 237.142, 120.923 239.689, 119.044 233.488, 111.199 227.288, 103.353 221.088, 95.507 214.887, 87.661 208.687, 79.815 202.487, 71.970 196.287, 64.124 190.086, 56.278 183.886, 48.432 177.686, 40.586 171.485, 32.741 165.285, 24.895 162.181, 20.967 152.581, 23.765 142.980, 26.563 133.379, 29.360 123.779, 32.158 114.178, 34.956 104.577, 37.753 94.977, 40.551 85.376, 43.349 75.775, 46.147 66.175, 48.944 59.974, 50.751 " />
            <path fill="none" stroke-width="3.0" stroke-linecap="butt" stroke-opacity="1.0" stroke="rgb(0, 0, 0)" stroke-linejoin="round" d=" M 59.974, 50.751 65.695, 58.953 71.417, 67.154 77.139, 75.355 82.861, 83.556 88.583, 91.758 94.305, 99.959 100.027, 108.160 105.749, 116.361 111.471, 124.562 117.193, 132.764 122.915, 140.965 128.636, 149.166 134.358, 157.367 140.080, 165.568 145.802, 173.770 150.030, 179.829 " />
            <path fill="none" stroke-width="3.0" stroke-linecap="butt" stroke-opacity="1.0" stroke="rgb(0, 0, 0)" stroke-linejoin="round" d=" M 94.148, 222.567 102.091, 216.492 110.034, 210.417 117.978, 204.343 125.921, 198.268 133.864, 192.193 141.807, 186.118 150.030, 179.829 158.307, 174.218 166.584, 168.606 174.861, 162.995 183.138, 157.383 191.416, 151.772 199.693, 146.160 207.970, 140.548 216.247, 134.937 224.524, 129.325 232.801, 123.714 239.689, 119.044 " />
        </g>
    </g>
</svg>
