<?xml version='1.0' encoding='ascii'?>
<svg xmlns="http://www.w3.org/2000/svg" version="1.1" width="250" height="250">
    <g id="ViewLayer_LineSet" xmlns:inkscape="http://www.inkscape.org/namespaces/inkscape" inkscape:groupmode="lineset" inkscape:label="ViewLayer_LineSet">
        <g xmlns:inkscape="http://www.inkscape.org/namespaces/inkscape" inkscape:groupmode="layer" id="strokes" inkscape:label="strokes">
            <path fill="none" stroke-width="3.0" stroke-linecap="butt" stroke-opacity="1.0" stroke="rgb(0, 0, 0)" stroke-linejoin="round" d=" M 69.100, 53.249 63.566, 61.578 58.031, 69.906 52.497, 78.235 46.962, 86.564 41.428, 94.893 35.893, 103.222 30.359, 111.551 28.789, 113.913 33.685, 122.632 38.581, 131.352 43.477, 140.072 48.372, 148.791 53.268, 157.511 58.164, 166.231 63.059, 174.950 67.955, 183.670 72.851, 192.389 77.747, 201.109 82.642, 209.829 86.519, 216.734 95.915, 213.311 105.311, 209.887 114.707, 206.464 124.103, 203.041 133.498, 199.617 142.894, 196.194 150.631, 193.375 158.774, 187.571 166.918, 181.767 175.061, 175.963 183.204, 170.159 191.347, 164.355 199.491, 158.551 207.634, 152.747 215.777, 146.943 223.921, 141.139 232.064, 135.335 238.579, 130.691 233.339, 122.174 228.099, 113.657 222.859, 105.140 217.619, 96.622 212.379, 88.105 207.140, 79.588 201.900, 71.071 196.660, 62.554 191.420, 54.036 186.180, 45.519 180.940, 37.002 175.700, 28.485 171.841, 22.211 162.268, 25.103 152.695, 27.995 143.123, 30.887 133.550, 33.779 123.977, 36.671 114.404, 39.563 104.832, 42.454 95.259, 45.346 85.686, 48.238 76.113, 51.130 69.100, 53.249 " />
            <path fill="none" stroke-width="3.0" stroke-linecap="butt" stroke-opacity="1.0" stroke="rgb(0, 0, 0)" stroke-linejoin="round" d=" M 69.100, 53.249 74.129, 61.892 79.158, 70.536 84.187, 79.179 89.216, 87.822 94.246, 96.466 99.275, 105.109 104.304, 113.753 109.333, 122.396 114.362, 131.039 119.391, 139.683 124.420, 148.326 129.449, 156.970 134.478, 165.613 139.507, 174.257 144.536, 182.900 149.565, 191.543 150.631, 193.375 " />
        </g>
    </g>
</svg>
