<?xml version='1.0' encoding='ascii'?>
<svg xmlns="http://www.w3.org/2000/svg" version="1.1" width="250" height="250">
    <g id="ViewLayer_LineSet" xmlns:inkscape="http://www.inkscape.org/namespaces/inkscape" inkscape:groupmode="lineset" inkscape:label="ViewLayer_LineSet">
        <g xmlns:inkscape="http://www.inkscape.org/namespaces/inkscape" inkscape:groupmode="layer" id="strokes" inkscape:label="strokes">
            <path fill="none" stroke-width="3.0" stroke-linecap="butt" stroke-opacity="1.0" stroke="rgb(0, 0, 0)" stroke-linejoin="round" d=" M 78.517, 57.882 71.104, 64.594 63.692, 71.307 56.280, 78.019 48.867, 84.732 41.455, 91.444 34.042, 98.156 27.344, 104.222 31.753, 113.198 36.162, 122.173 40.572, 131.149 44.981, 140.124 49.390, 149.100 53.799, 158.075 58.208, 167.051 62.617, 176.026 67.026, 185.002 71.436, 193.977 75.845, 202.953 79.444, 210.279 89.411, 209.474 99.379, 208.669 109.346, 207.865 119.314, 207.060 129.282, 206.255 139.249, 205.450 149.576, 204.617 157.619, 198.674 165.662, 192.732 173.705, 186.790 181.748, 180.848 189.791, 174.905 197.834, 168.963 205.877, 163.021 213.920, 157.079 221.963, 151.136 230.006, 145.194 236.036, 140.739 231.759, 131.699 227.483, 122.660 223.206, 113.621 218.930, 104.581 214.653, 95.542 210.376, 86.502 206.100, 77.463 201.823, 68.424 197.546, 59.384 193.270, 50.345 188.993, 41.306 184.717, 32.266 181.367, 25.187 171.837, 28.216 162.307, 31.246 152.777, 34.275 143.247, 37.305 133.717, 40.334 124.187, 43.364 114.657, 46.393 105.127, 49.423 95.597, 52.452 86.067, 55.482 78.517, 57.882 " />
            <path fill="none" stroke-width="3.0" stroke-linecap="butt" stroke-opacity="1.0" stroke="rgb(0, 0, 0)" stroke-linejoin="round" d=" M 78.517, 57.882 82.875, 66.882 87.234, 75.882 91.592, 84.882 95.951, 93.883 100.309, 102.883 104.668, 111.883 109.026, 120.883 113.385, 129.883 117.743, 138.883 122.102, 147.884 126.460, 156.884 130.819, 165.884 135.177, 174.884 139.536, 183.884 143.894, 192.885 148.253, 201.885 149.576, 204.617 " />
        </g>
    </g>
</svg>
