<?xml version='1.0' encoding='ascii'?>
<svg xmlns="http://www.w3.org/2000/svg" version="1.1" width="250" height="250">
    <g id="ViewLayer_LineSet" xmlns:inkscape="http://www.inkscape.org/namespaces/inkscape" inkscape:groupmode="lineset" inkscape:label="ViewLayer_LineSet">
        <g xmlns:inkscape="http://www.inkscape.org/namespaces/inkscape" inkscape:groupmode="layer" id="strokes" inkscape:label="strokes">
            <path fill="none" stroke-width="3.0" stroke-linecap="butt" stroke-opacity="1.0" stroke="rgb(0, 0, 0)" stroke-linejoin="round" d=" M 26.766, 87.602 36.522, 85.408 46.279, 83.213 56.035, 81.018 65.791, 78.823 75.547, 76.628 85.303, 74.433 95.059, 72.239 96.577, 71.897 " />
            <path fill="none" stroke-width="3.0" stroke-linecap="butt" stroke-opacity="1.0" stroke="rgb(0, 0, 0)" stroke-linejoin="round" d=" M 144.148, 220.256 141.094, 210.733 138.041, 201.211 134.988, 191.688 131.934, 182.166 128.881, 172.643 125.828, 163.121 122.774, 153.598 119.721, 144.076 116.668, 134.554 113.614, 125.031 110.561, 115.509 107.508, 105.986 104.454, 96.464 101.401, 86.941 98.348, 77.419 96.577, 71.897 105.982, 68.499 115.387, 65.101 124.792, 61.703 134.197, 58.305 143.602, 54.908 153.007, 51.510 162.412, 48.112 171.817, 44.714 181.222, 41.316 190.627, 37.918 198.605, 35.036 " />
            <path fill="none" stroke-width="3.0" stroke-linecap="butt" stroke-opacity="1.0" stroke="rgb(0, 0, 0)" stroke-linejoin="round" d=" M 198.605, 35.036 188.936, 37.591 179.268, 40.145 169.600, 42.700 159.932, 45.255 150.264, 47.809 140.595, 50.364 130.927, 52.919 121.259, 55.473 117.492, 56.469 108.033, 59.715 98.575, 62.961 89.116, 66.206 79.657, 69.452 70.199, 72.698 60.740, 75.944 51.282, 79.190 41.823, 82.436 32.365, 85.681 26.766, 87.602 30.249, 96.976 33.732, 106.350 37.215, 115.724 40.697, 125.098 44.180, 134.472 47.663, 143.846 51.146, 153.220 54.628, 162.594 58.111, 171.968 61.594, 181.342 65.077, 190.716 67.327, 196.774 76.890, 199.697 86.454, 202.620 96.017, 205.543 105.580, 208.466 115.143, 211.390 124.706, 214.313 134.270, 217.236 144.148, 220.256 152.081, 214.168 160.015, 208.080 167.948, 201.993 175.882, 195.905 183.815, 189.817 191.749, 183.730 199.682, 177.642 207.616, 171.554 215.549, 165.467 223.483, 159.379 228.277, 155.700 225.889, 145.990 223.501, 136.279 221.113, 126.568 218.725, 116.857 216.337, 107.147 213.949, 97.436 211.561, 87.725 209.173, 78.015 206.785, 68.304 204.397, 58.593 202.010, 48.883 199.622, 39.172 198.605, 35.036 " />
        </g>
    </g>
</svg>
