<?xml version='1.0' encoding='ascii'?>
<svg xmlns="http://www.w3.org/2000/svg" version="1.1" width="250" height="250">
    <g id="ViewLayer_LineSet" xmlns:inkscape="http://www.inkscape.org/namespaces/inkscape" inkscape:groupmode="lineset" inkscape:label="ViewLayer_LineSet">
        <g xmlns:inkscape="http://www.inkscape.org/namespaces/inkscape" inkscape:groupmode="layer" id="strokes" inkscape:label="strokes">
            <path fill="none" stroke-width="3.0" stroke-linecap="butt" stroke-opacity="1.0" stroke="rgb(0, 0, 0)" stroke-linejoin="round" d=" M 27.401, 80.897 37.401, 80.800 47.400, 80.702 57.400, 80.605 67.399, 80.507 77.399, 80.410 87.398, 80.312 97.398, 80.214 104.502, 80.145 " />
            <path fill="none" stroke-width="3.0" stroke-linecap="butt" stroke-opacity="1.0" stroke="rgb(0, 0, 0)" stroke-linejoin="round" d=" M 140.603, 225.094 138.186, 215.390 135.770, 205.687 133.353, 195.983 130.936, 186.279 128.519, 176.576 126.103, 166.872 123.686, 157.169 121.269, 147.465 118.852, 137.762 116.436, 128.058 114.019, 118.354 111.602, 108.651 109.185, 98.947 106.768, 89.244 104.502, 80.145 113.831, 76.543 123.160, 72.941 132.489, 69.339 141.817, 65.737 151.146, 62.135 160.475, 58.533 169.804, 54.931 179.132, 51.329 188.461, 47.727 197.790, 44.124 205.780, 41.039 " />
            <path fill="none" stroke-width="3.0" stroke-linecap="butt" stroke-opacity="1.0" stroke="rgb(0, 0, 0)" stroke-linejoin="round" d=" M 205.780, 41.039 195.839, 42.121 185.898, 43.203 175.956, 44.285 166.015, 45.367 156.074, 46.449 146.132, 47.531 136.191, 48.613 126.250, 49.696 119.506, 50.430 110.012, 53.570 100.518, 56.711 91.024, 59.851 81.530, 62.992 72.036, 66.132 62.542, 69.273 53.048, 72.413 43.554, 75.554 34.060, 78.695 27.401, 80.897 30.448, 90.422 33.494, 99.947 36.541, 109.471 39.587, 118.996 42.633, 128.521 45.680, 138.045 48.726, 147.570 51.773, 157.095 54.819, 166.619 57.866, 176.144 60.912, 185.668 62.390, 190.288 71.526, 194.354 80.662, 198.420 89.798, 202.485 98.935, 206.551 108.071, 210.617 117.207, 214.682 126.343, 218.748 135.480, 222.814 140.603, 225.094 148.517, 218.980 156.431, 212.867 164.344, 206.754 172.258, 200.641 180.172, 194.527 188.086, 188.414 195.999, 182.301 203.913, 176.187 211.827, 170.074 219.741, 163.961 223.856, 160.782 222.363, 150.894 220.871, 141.006 219.378, 131.118 217.885, 121.230 216.393, 111.342 214.900, 101.454 213.407, 91.566 211.915, 81.678 210.422, 71.790 208.929, 61.902 207.437, 52.014 205.780, 41.039 " />
        </g>
    </g>
</svg>
