<?xml version='1.0' encoding='ascii'?>
<svg xmlns="http://www.w3.org/2000/svg" version="1.1" width="250" height="250">
    <g id="ViewLayer_LineSet" xmlns:inkscape="http://www.inkscape.org/namespaces/inkscape" inkscape:groupmode="lineset" inkscape:label="ViewLayer_LineSet">
        <g xmlns:inkscape="http://www.inkscape.org/namespaces/inkscape" inkscape:groupmode="layer" id="strokes" inkscape:label="strokes">
            <path fill="none" stroke-width="3.0" stroke-linecap="butt" stroke-opacity="1.0" stroke="rgb(0, 0, 0)" stroke-linejoin="round" d=" M 28.439, 75.330 38.318, 76.886 48.196, 78.442 58.074, 79.998 67.952, 81.553 77.830, 83.109 87.709, 84.665 97.587, 86.221 107.465, 87.776 111.349, 88.388 " />
            <path fill="none" stroke-width="3.0" stroke-linecap="butt" stroke-opacity="1.0" stroke="rgb(0, 0, 0)" stroke-linejoin="round" d=" M 136.993, 228.380 135.191, 218.544 133.389, 208.708 131.587, 198.871 129.785, 189.035 127.984, 179.199 126.182, 169.362 124.380, 159.526 122.578, 149.690 120.776, 139.853 118.974, 130.017 117.172, 120.181 115.371, 110.344 113.569, 100.508 111.767, 90.672 111.349, 88.388 120.598, 84.588 129.848, 80.788 139.098, 76.988 148.348, 73.187 157.598, 69.387 166.847, 65.587 176.097, 61.787 185.347, 57.987 194.597, 54.186 203.846, 50.386 211.791, 47.122 " />
            <path fill="none" stroke-width="3.0" stroke-linecap="butt" stroke-opacity="1.0" stroke="rgb(0, 0, 0)" stroke-linejoin="round" d=" M 211.791, 47.122 201.793, 46.930 191.795, 46.737 181.797, 46.544 171.799, 46.351 161.800, 46.159 151.802, 45.966 141.804, 45.773 131.806, 45.581 121.774, 45.387 112.252, 48.442 102.730, 51.497 93.208, 54.552 83.686, 57.606 74.164, 60.661 64.642, 63.716 55.120, 66.771 45.598, 69.826 36.076, 72.880 28.439, 75.330 31.076, 84.976 33.712, 94.623 36.349, 104.269 38.985, 113.915 41.622, 123.561 44.258, 133.207 46.895, 142.854 49.531, 152.500 52.167, 162.146 54.804, 171.792 57.440, 181.438 58.226, 184.311 66.953, 189.194 75.680, 194.076 84.407, 198.959 93.133, 203.842 101.860, 208.724 110.587, 213.607 119.314, 218.489 128.041, 223.372 136.993, 228.380 144.902, 222.261 152.811, 216.142 160.720, 210.023 168.629, 203.903 176.539, 197.784 184.448, 191.665 192.357, 185.546 200.266, 179.426 208.175, 173.307 216.085, 167.188 219.537, 164.517 218.879, 154.538 218.220, 144.560 217.562, 134.582 216.904, 124.604 216.245, 114.625 215.587, 104.647 214.928, 94.669 214.270, 84.690 213.612, 74.712 212.953, 64.734 212.295, 54.755 211.791, 47.122 " />
        </g>
    </g>
</svg>
