<?xml version='1.0' encoding='ascii'?>
<svg xmlns="http://www.w3.org/2000/svg" version="1.1" width="250" height="250">
    <g id="ViewLayer_LineSet" xmlns:inkscape="http://www.inkscape.org/namespaces/inkscape" inkscape:groupmode="lineset" inkscape:label="ViewLayer_LineSet">
        <g xmlns:inkscape="http://www.inkscape.org/namespaces/inkscape" inkscape:groupmode="layer" id="strokes" inkscape:label="strokes">
            <path fill="none" stroke-width="3.0" stroke-linecap="butt" stroke-opacity="1.0" stroke="rgb(0, 0, 0)" stroke-linejoin="round" d=" M 29.691, 70.892 39.300, 73.661 48.909, 76.429 58.519, 79.197 68.128, 81.965 77.737, 84.733 87.346, 87.501 96.955, 90.270 106.565, 93.038 116.982, 96.039 " />
            <path fill="none" stroke-width="3.0" stroke-linecap="butt" stroke-opacity="1.0" stroke="rgb(0, 0, 0)" stroke-linejoin="round" d=" M 133.614, 230.471 132.386, 220.546 131.158, 210.622 129.930, 200.698 128.702, 190.773 127.474, 180.849 126.247, 170.925 125.019, 161.000 123.791, 151.076 122.563, 141.152 121.335, 131.227 120.107, 121.303 118.879, 111.379 117.652, 101.454 116.982, 96.039 126.156, 92.059 135.330, 88.080 144.504, 84.101 153.678, 80.121 162.852, 76.142 172.026, 72.163 181.201, 68.183 190.375, 64.204 199.549, 60.225 208.723, 56.245 216.601, 52.828 " />
            <path fill="none" stroke-width="3.0" stroke-linecap="butt" stroke-opacity="1.0" stroke="rgb(0, 0, 0)" stroke-linejoin="round" d=" M 216.601, 52.828 206.677, 51.597 196.753, 50.365 186.829, 49.133 176.905, 47.901 166.981, 46.670 157.057, 45.438 147.134, 44.206 137.210, 42.974 127.286, 41.742 124.071, 41.343 114.528, 44.331 104.985, 47.319 95.442, 50.307 85.898, 53.295 76.355, 56.283 66.812, 59.270 57.269, 62.258 47.726, 65.246 38.182, 68.234 29.691, 70.892 31.955, 80.633 34.219, 90.373 36.483, 100.113 38.747, 109.854 41.011, 119.594 43.275, 129.334 45.539, 139.075 47.803, 148.815 50.067, 158.555 52.331, 168.296 54.832, 179.055 63.206, 184.520 71.581, 189.986 79.955, 195.451 88.329, 200.916 96.704, 206.382 105.078, 211.847 113.452, 217.313 121.827, 222.778 130.201, 228.243 133.614, 230.471 141.528, 224.358 149.442, 218.245 157.356, 212.132 165.270, 206.019 173.184, 199.906 181.098, 193.793 189.012, 187.680 196.926, 181.567 204.840, 175.453 212.753, 169.340 215.600, 167.141 215.688, 157.142 215.775, 147.142 215.863, 137.143 215.950, 127.143 216.038, 117.143 216.125, 107.144 216.213, 97.144 216.300, 87.144 216.388, 77.145 216.475, 67.145 216.563, 57.146 216.601, 52.828 " />
        </g>
    </g>
</svg>
