<?xml version='1.0' encoding='ascii'?>
<svg xmlns="http://www.w3.org/2000/svg" version="1.1" width="250" height="250">
    <g id="ViewLayer_LineSet" xmlns:inkscape="http://www.inkscape.org/namespaces/inkscape" inkscape:groupmode="lineset" inkscape:label="ViewLayer_LineSet">
        <g xmlns:inkscape="http://www.inkscape.org/namespaces/inkscape" inkscape:groupmode="layer" id="strokes" inkscape:label="strokes">
            <path fill="none" stroke-width="3.0" stroke-linecap="butt" stroke-opacity="1.0" stroke="rgb(0, 0, 0)" stroke-linejoin="round" d=" M 30.957, 67.537 40.280, 71.152 49.604, 74.768 58.928, 78.383 68.251, 81.998 77.575, 85.614 86.899, 89.229 96.222, 92.844 105.546, 96.460 114.869, 100.075 121.351, 102.588 " />
            <path fill="none" stroke-width="3.0" stroke-linecap="butt" stroke-opacity="1.0" stroke="rgb(0, 0, 0)" stroke-linejoin="round" d=" M 130.707, 231.698 129.985, 221.725 129.262, 211.751 128.539, 201.777 127.816, 191.803 127.093, 181.829 126.371, 171.855 125.648, 161.881 124.925, 151.908 124.202, 141.934 123.479, 131.960 122.756, 121.986 122.034, 112.012 121.351, 102.588 130.458, 98.459 139.566, 94.330 148.674, 90.201 157.781, 86.071 166.889, 81.942 175.997, 77.813 185.105, 73.684 194.212, 69.555 203.320, 65.426 212.428, 61.296 220.239, 57.755 " />
            <path fill="none" stroke-width="3.0" stroke-linecap="butt" stroke-opacity="1.0" stroke="rgb(0, 0, 0)" stroke-linejoin="round" d=" M 220.239, 57.755 210.447, 55.726 200.655, 53.697 190.863, 51.669 181.071, 49.640 171.279, 47.611 161.487, 45.583 151.695, 43.554 141.903, 41.525 132.111, 39.497 126.175, 38.267 116.616, 41.205 107.058, 44.143 97.499, 47.082 87.941, 50.020 78.382, 52.958 68.824, 55.897 59.265, 58.835 49.706, 61.773 40.148, 64.712 30.957, 67.537 32.901, 77.346 34.845, 87.156 36.789, 96.965 38.734, 106.774 40.678, 116.583 42.622, 126.392 44.566, 136.201 46.510, 146.011 48.454, 155.820 50.399, 165.629 52.198, 174.708 60.291, 180.582 68.383, 186.457 76.476, 192.331 84.568, 198.206 92.661, 204.080 100.754, 209.955 108.846, 215.829 116.939, 221.704 125.031, 227.578 130.707, 231.698 138.631, 225.597 146.554, 219.496 154.477, 213.395 162.400, 207.294 170.324, 201.193 178.247, 195.092 186.170, 188.991 194.093, 182.890 202.016, 176.789 209.940, 170.688 212.273, 168.891 212.988, 158.917 213.703, 148.943 214.418, 138.968 215.133, 128.994 215.848, 119.019 216.563, 109.045 217.278, 99.071 217.993, 89.096 218.708, 79.122 219.423, 69.147 220.138, 59.173 220.239, 57.755 " />
        </g>
    </g>
</svg>
