<?xml version='1.0' encoding='ascii'?>
<svg xmlns="http://www.w3.org/2000/svg" version="1.1" width="250" height="250">
    <g id="ViewLayer_LineSet" xmlns:inkscape="http://www.inkscape.org/namespaces/inkscape" inkscape:groupmode="lineset" inkscape:label="ViewLayer_LineSet">
        <g xmlns:inkscape="http://www.inkscape.org/namespaces/inkscape" inkscape:groupmode="layer" id="strokes" inkscape:label="strokes">
            <path fill="none" stroke-width="3.0" stroke-linecap="butt" stroke-opacity="1.0" stroke="rgb(0, 0, 0)" stroke-linejoin="round" d=" M 32.045, 65.198 41.133, 69.370 50.221, 73.542 59.309, 77.714 68.397, 81.886 77.485, 86.058 86.574, 90.230 95.662, 94.402 104.750, 98.575 113.838, 102.747 122.926, 106.919 124.460, 107.623 " />
            <path fill="none" stroke-width="3.0" stroke-linecap="butt" stroke-opacity="1.0" stroke="rgb(0, 0, 0)" stroke-linejoin="round" d=" M 128.466, 232.350 128.145, 222.355 127.824, 212.360 127.503, 202.365 127.182, 192.370 126.861, 182.375 126.540, 172.381 126.219, 162.386 125.897, 152.391 125.576, 142.396 125.255, 132.401 124.934, 122.406 124.613, 112.411 124.460, 107.623 133.515, 103.381 142.571, 99.139 151.627, 94.897 160.682, 90.654 169.738, 86.412 178.793, 82.170 187.849, 77.928 196.905, 73.686 205.960, 69.444 215.016, 65.202 222.775, 61.567 " />
            <path fill="none" stroke-width="3.0" stroke-linecap="butt" stroke-opacity="1.0" stroke="rgb(0, 0, 0)" stroke-linejoin="round" d=" M 222.775, 61.567 213.117, 58.976 203.459, 56.385 193.800, 53.794 184.142, 51.203 174.483, 48.612 164.825, 46.021 155.166, 43.430 145.508, 40.839 135.849, 38.247 127.876, 36.109 118.307, 39.013 108.738, 41.918 99.170, 44.822 89.601, 47.727 80.032, 50.632 70.463, 53.536 60.894, 56.441 51.325, 59.345 41.756, 62.250 32.045, 65.198 33.740, 75.053 35.434, 84.908 37.129, 94.764 38.823, 104.619 40.518, 114.475 42.212, 124.330 43.907, 134.185 45.601, 144.041 47.296, 153.896 48.990, 163.752 50.311, 171.435 58.199, 177.582 66.086, 183.730 73.973, 189.877 81.860, 196.025 89.748, 202.172 97.635, 208.320 105.522, 214.467 113.409, 220.614 121.297, 226.762 128.466, 232.350 136.399, 226.261 144.331, 220.173 152.264, 214.085 160.197, 207.996 168.130, 201.908 176.063, 195.819 183.996, 189.731 191.929, 183.643 199.862, 177.554 207.795, 171.466 209.736, 169.976 210.930, 160.048 212.124, 150.120 213.318, 140.191 214.513, 130.263 215.707, 120.334 216.901, 110.406 218.095, 100.477 219.289, 90.549 220.484, 80.620 221.678, 70.692 222.775, 61.567 " />
        </g>
    </g>
</svg>
