<?xml version='1.0' encoding='ascii'?>
<svg xmlns="http://www.w3.org/2000/svg" version="1.1" width="250" height="250">
    <g id="ViewLayer_LineSet" xmlns:inkscape="http://www.inkscape.org/namespaces/inkscape" inkscape:groupmode="lineset" inkscape:label="ViewLayer_LineSet">
        <g xmlns:inkscape="http://www.inkscape.org/namespaces/inkscape" inkscape:groupmode="layer" id="strokes" inkscape:label="strokes">
            <path fill="none" stroke-width="3.0" stroke-linecap="butt" stroke-opacity="1.0" stroke="rgb(0, 0, 0)" stroke-linejoin="round" d=" M 32.786, 63.811 41.722, 68.302 50.657, 72.792 59.592, 77.282 68.527, 81.772 77.462, 86.262 86.398, 90.752 95.333, 95.243 104.268, 99.733 113.203, 104.223 122.139, 108.713 126.329, 110.819 " />
            <path fill="none" stroke-width="3.0" stroke-linecap="butt" stroke-opacity="1.0" stroke="rgb(0, 0, 0)" stroke-linejoin="round" d=" M 127.039, 232.646 126.981, 222.646 126.922, 212.647 126.864, 202.647 126.806, 192.647 126.748, 182.647 126.689, 172.647 126.631, 162.647 126.573, 152.648 126.515, 142.648 126.456, 132.648 126.398, 122.648 126.340, 112.648 126.329, 110.819 135.351, 106.506 144.374, 102.193 153.396, 97.881 162.418, 93.568 171.440, 89.255 180.462, 84.942 189.485, 80.629 198.507, 76.317 207.529, 72.004 216.551, 67.691 224.277, 63.998 " />
            <path fill="none" stroke-width="3.0" stroke-linecap="butt" stroke-opacity="1.0" stroke="rgb(0, 0, 0)" stroke-linejoin="round" d=" M 224.277, 63.998 214.716, 61.070 205.154, 58.143 195.592, 55.215 186.030, 52.287 176.468, 49.359 166.906, 46.432 157.345, 43.504 147.783, 40.576 138.221, 37.648 128.994, 34.823 119.419, 37.708 109.844, 40.593 100.269, 43.478 90.695, 46.363 81.120, 49.248 71.545, 52.133 61.970, 55.018 52.395, 57.903 42.821, 60.788 32.786, 63.811 34.320, 73.693 35.853, 83.575 37.387, 93.457 38.920, 103.338 40.453, 113.220 41.987, 123.102 43.520, 132.984 45.054, 142.865 46.587, 152.747 48.120, 162.629 49.168, 169.381 56.929, 175.686 64.691, 181.992 72.452, 188.298 80.213, 194.603 87.975, 200.909 95.736, 207.215 103.498, 213.520 111.259, 219.826 119.020, 226.132 127.039, 232.646 134.979, 226.567 142.919, 220.488 150.859, 214.409 158.799, 208.330 166.740, 202.251 174.680, 196.172 182.620, 190.093 190.560, 184.014 198.500, 177.935 206.440, 171.856 208.133, 170.561 209.630, 160.674 211.128, 150.787 212.626, 140.899 214.124, 131.012 215.622, 121.125 217.120, 111.238 218.618, 101.351 220.116, 91.464 221.614, 81.576 223.112, 71.689 224.277, 63.998 " />
        </g>
    </g>
</svg>
