<?xml version='1.0' encoding='ascii'?>
<svg xmlns="http://www.w3.org/2000/svg" version="1.1" width="250" height="250">
    <g id="ViewLayer_LineSet" xmlns:inkscape="http://www.inkscape.org/namespaces/inkscape" inkscape:groupmode="lineset" inkscape:label="ViewLayer_LineSet">
        <g xmlns:inkscape="http://www.inkscape.org/namespaces/inkscape" inkscape:groupmode="layer" id="strokes" inkscape:label="strokes">
            <path fill="none" stroke-width="3.0" stroke-linecap="butt" stroke-opacity="1.0" stroke="rgb(0, 0, 0)" stroke-linejoin="round" d=" M 33.053, 63.347 41.935, 67.942 50.816, 72.537 59.698, 77.132 68.580, 81.727 77.462, 86.322 86.344, 90.916 95.226, 95.511 104.108, 100.106 112.990, 104.701 121.871, 109.296 126.960, 111.928 " />
            <path fill="none" stroke-width="3.0" stroke-linecap="butt" stroke-opacity="1.0" stroke="rgb(0, 0, 0)" stroke-linejoin="round" d=" M 126.543, 232.729 126.577, 222.729 126.612, 212.730 126.646, 202.730 126.681, 192.730 126.716, 182.730 126.750, 172.730 126.785, 162.730 126.819, 152.730 126.854, 142.730 126.888, 132.730 126.923, 122.730 126.960, 111.928 135.971, 107.591 144.981, 103.254 153.992, 98.917 163.002, 94.580 172.013, 90.243 181.023, 85.906 190.034, 81.569 199.044, 77.231 208.055, 72.894 217.065, 68.557 224.780, 64.844 " />
            <path fill="none" stroke-width="3.0" stroke-linecap="butt" stroke-opacity="1.0" stroke="rgb(0, 0, 0)" stroke-linejoin="round" d=" M 224.780, 64.844 215.254, 61.803 205.727, 58.762 196.201, 55.720 186.675, 52.679 177.148, 49.638 167.622, 46.597 158.095, 43.556 148.569, 40.515 139.043, 37.474 129.389, 34.392 119.812, 37.270 110.235, 40.149 100.659, 43.027 91.082, 45.906 81.505, 48.784 71.928, 51.663 62.352, 54.541 52.775, 57.420 43.198, 60.298 33.053, 63.347 34.530, 73.238 36.007, 83.128 37.483, 93.018 38.960, 102.909 40.437, 112.799 41.914, 122.689 43.391, 132.580 44.868, 142.470 46.345, 152.360 47.822, 162.251 48.780, 168.671 56.499, 175.029 64.217, 181.387 71.935, 187.746 79.654, 194.104 87.372, 200.462 95.091, 206.820 102.809, 213.178 110.527, 219.536 118.246, 225.895 126.543, 232.729 134.486, 226.654 142.428, 220.578 150.371, 214.503 158.314, 208.427 166.257, 202.352 174.200, 196.276 182.142, 190.201 190.085, 184.126 198.028, 178.050 205.971, 171.975 207.577, 170.746 209.180, 160.875 210.784, 151.005 212.387, 141.134 213.991, 131.264 215.594, 121.393 217.197, 111.522 218.801, 101.652 220.404, 91.781 222.008, 81.910 223.611, 72.040 224.780, 64.844 " />
        </g>
    </g>
</svg>
