<?xml version='1.0' encoding='ascii'?>
<svg xmlns="http://www.w3.org/2000/svg" version="1.1" width="250" height="250">
    <g id="View Layer_LineSet" xmlns:inkscape="http://www.inkscape.org/namespaces/inkscape" inkscape:groupmode="lineset" inkscape:label="View Layer_LineSet">
        <g xmlns:inkscape="http://www.inkscape.org/namespaces/inkscape" inkscape:groupmode="layer" id="strokes" inkscape:label="strokes">
            <path fill="none" stroke-width="3.0" stroke-linecap="butt" stroke-opacity="1.0" stroke="rgb(0, 0, 0)" stroke-linejoin="round" d=" M 129.159, 69.430 129.154, 69.525 128.611, 79.510 128.069, 89.495 127.526, 99.480 126.984, 109.466 126.587, 116.774 126.587, 116.782 " />
            <path fill="none" stroke-width="3.0" stroke-linecap="butt" stroke-opacity="1.0" stroke="rgb(0, 0, 0)" stroke-linejoin="round" d=" M 159.692, 82.379 159.087, 83.266 157.125, 86.142 151.488, 94.402 145.851, 102.661 140.214, 110.921 135.759, 117.450 " />
            <path fill="none" stroke-width="3.0" stroke-linecap="butt" stroke-opacity="1.0" stroke="rgb(0, 0, 0)" stroke-linejoin="round" d=" M 176.128, 113.592 174.946, 113.993 171.304, 115.231 161.836, 118.450 152.369, 121.668 143.638, 124.636 " />
            <path fill="none" stroke-width="3.0" stroke-linecap="butt" stroke-opacity="1.0" stroke="rgb(0, 0, 0)" stroke-linejoin="round" d=" M 176.135, 149.922 174.459, 149.190 170.981, 147.670 161.818, 143.665 152.655, 139.661 145.535, 136.550 " />
            <path fill="none" stroke-width="3.0" stroke-linecap="butt" stroke-opacity="1.0" stroke="rgb(0, 0, 0)" stroke-linejoin="round" d=" M 159.477, 181.982 158.855, 180.828 158.770, 180.670 156.655, 176.750 151.907, 167.949 147.159, 159.148 142.412, 150.348 140.193, 146.236 " />
            <path fill="none" stroke-width="3.0" stroke-linecap="butt" stroke-opacity="1.0" stroke="rgb(0, 0, 0)" stroke-linejoin="round" d=" M 129.172, 198.369 129.278, 196.415 129.376, 194.631 129.922, 184.646 130.468, 174.661 131.014, 164.676 131.560, 154.691 131.809, 150.138 " />
            <path fill="none" stroke-width="3.0" stroke-linecap="butt" stroke-opacity="1.0" stroke="rgb(0, 0, 0)" stroke-linejoin="round" d=" M 96.011, 188.841 96.075, 188.746 101.660, 180.451 107.245, 172.156 112.830, 163.860 118.415, 155.565 122.922, 148.871 123.807, 147.556 " />
            <path fill="none" stroke-width="3.0" stroke-linecap="butt" stroke-opacity="1.0" stroke="rgb(0, 0, 0)" stroke-linejoin="round" d=" M 135.162, 149.418 140.456, 157.902 145.751, 166.385 151.046, 174.868 153.973, 179.560 155.919, 182.677 156.299, 183.286 156.611, 183.786 " />
            <path fill="none" stroke-width="3.0" stroke-linecap="butt" stroke-opacity="1.0" stroke="rgb(0, 0, 0)" stroke-linejoin="round" d=" M 125.672, 149.415 125.656, 159.415 125.640, 169.415 125.625, 179.415 125.609, 189.415 125.599, 195.501 125.598, 196.292 125.595, 198.250 " />
            <path fill="none" stroke-width="3.0" stroke-linecap="butt" stroke-opacity="1.0" stroke="rgb(0, 0, 0)" stroke-linejoin="round" d=" M 82.805, 189.577 88.938, 194.328 98.000, 198.556 99.719, 199.358 103.786, 201.168 107.160, 202.670 109.935, 203.906 113.494, 204.646 117.175, 205.412 121.551, 206.323 131.547, 206.069 133.161, 206.028 138.686, 204.631 142.048, 203.781 144.353, 203.198 147.561, 201.622 150.864, 200.000 154.775, 198.079 162.738, 192.030 164.142, 190.963 170.908, 183.599 170.996, 183.503 172.229, 182.161 173.306, 180.511 174.354, 178.906 176.454, 175.688 178.863, 171.998 182.975, 162.882 183.916, 160.797 186.646, 151.176 187.298, 148.878 187.802, 145.120 187.860, 144.693 188.300, 141.408 188.383, 140.794 188.951, 136.558 188.864, 126.558 188.842, 124.152 187.320, 114.268 186.967, 111.975 185.664, 107.793 184.518, 104.112 184.325, 103.491 183.345, 100.346 183.167, 99.986 178.735, 91.022 178.028, 89.592 172.157, 81.497 171.104, 80.044 167.964, 77.052 165.303, 74.516 162.702, 72.037 161.167, 71.066 158.259, 69.226 153.008, 65.903 143.622, 62.454 142.268, 61.956 137.938, 61.397 134.301, 60.927 130.794, 60.474 127.676, 60.791 124.117, 61.152 118.975, 61.674 109.250, 64.006 108.328, 64.227 102.190, 66.316 " />
            <path fill="none" stroke-width="3.0" stroke-linecap="butt" stroke-opacity="1.0" stroke="rgb(0, 0, 0)" stroke-linejoin="round" d=" M 82.510, 183.727 85.267, 187.047 82.805, 189.577 75.831, 196.744 74.293, 198.324 66.051, 194.153 63.290, 190.974 70.365, 183.908 73.841, 180.437 73.969, 180.309 " />
            <path fill="none" stroke-width="3.0" stroke-linecap="butt" stroke-opacity="1.0" stroke="rgb(0, 0, 0)" stroke-linejoin="round" d=" M 74.293, 198.324 71.431, 195.003 " />
            <path fill="none" stroke-width="3.0" stroke-linecap="butt" stroke-opacity="1.0" stroke="rgb(0, 0, 0)" stroke-linejoin="round" d=" M 63.290, 190.974 71.431, 195.003 78.440, 187.870 79.373, 186.919 80.984, 185.280 82.510, 183.727 73.969, 180.309 " />
            <path fill="none" stroke-width="3.0" stroke-linecap="butt" stroke-opacity="1.0" stroke="rgb(0, 0, 0)" stroke-linejoin="round" d=" M 103.089, 68.079 102.190, 66.316 97.647, 57.407 96.080, 54.334 86.980, 57.129 83.493, 59.151 88.139, 68.006 90.312, 72.148 90.371, 72.260 " />
            <path fill="none" stroke-width="3.0" stroke-linecap="butt" stroke-opacity="1.0" stroke="rgb(0, 0, 0)" stroke-linejoin="round" d=" M 170.996, 183.503 180.660, 186.074 181.296, 186.243 183.339, 183.045 176.454, 175.688 " />
            <path fill="none" stroke-width="3.0" stroke-linecap="butt" stroke-opacity="1.0" stroke="rgb(0, 0, 0)" stroke-linejoin="round" d=" M 118.975, 61.674 109.513, 64.912 107.261, 65.683 98.740, 70.917 96.157, 72.504 88.915, 79.400 86.193, 81.992 80.452, 90.180 77.889, 93.836 73.782, 102.954 71.708, 107.559 71.487, 108.453 70.542, 112.283 68.145, 121.991 68.010, 122.538 67.368, 132.518 67.013, 138.049 68.155, 147.984 68.769, 153.323 69.012, 154.113 70.149, 157.818 73.084, 167.378 73.157, 167.616 77.861, 176.441 79.901, 180.269 86.288, 187.963 88.602, 190.752 96.485, 196.905 98.784, 198.699 103.818, 201.050 109.935, 203.906 " />
            <path fill="none" stroke-width="3.0" stroke-linecap="butt" stroke-opacity="1.0" stroke="rgb(0, 0, 0)" stroke-linejoin="round" d=" M 103.089, 68.079 99.571, 70.239 " />
            <path fill="none" stroke-width="3.0" stroke-linecap="butt" stroke-opacity="1.0" stroke="rgb(0, 0, 0)" stroke-linejoin="round" d=" M 90.371, 72.260 99.571, 70.239 98.943, 69.019 98.243, 67.659 93.668, 58.767 92.472, 56.442 " />
            <path fill="none" stroke-width="3.0" stroke-linecap="butt" stroke-opacity="1.0" stroke="rgb(0, 0, 0)" stroke-linejoin="round" d=" M 83.493, 59.151 92.472, 56.442 96.080, 54.334 " />
            <path fill="none" stroke-width="3.0" stroke-linecap="butt" stroke-opacity="1.0" stroke="rgb(0, 0, 0)" stroke-linejoin="round" d=" M 59.810, 149.499 60.004, 151.152 62.981, 160.699 64.229, 164.702 68.983, 173.500 70.724, 176.723 73.841, 180.437 " />
            <path fill="none" stroke-width="3.0" stroke-linecap="butt" stroke-opacity="1.0" stroke="rgb(0, 0, 0)" stroke-linejoin="round" d=" M 64.900, 103.219 62.790, 107.844 60.368, 117.546 59.251, 122.018 58.609, 131.997 58.307, 136.692 58.901, 141.757 " />
            <path fill="none" stroke-width="3.0" stroke-linecap="butt" stroke-opacity="1.0" stroke="rgb(0, 0, 0)" stroke-linejoin="round" d=" M 90.312, 72.148 86.290, 74.593 79.005, 81.444 76.698, 83.614 70.907, 91.767 68.738, 94.821 " />
            <path fill="none" stroke-width="3.0" stroke-linecap="butt" stroke-opacity="1.0" stroke="rgb(0, 0, 0)" stroke-linejoin="round" d=" M 120.248, 67.450 129.321, 66.434 131.115, 66.232 132.855, 66.439 141.698, 67.488 151.117, 70.847 151.638, 71.032 155.774, 73.601 159.213, 75.737 160.636, 76.620 167.924, 83.468 168.457, 83.969 174.373, 92.031 174.919, 92.775 179.171, 101.287 179.891, 102.728 180.437, 104.465 183.284, 113.515 184.823, 123.396 185.046, 124.828 185.138, 134.828 185.153, 136.362 184.090, 144.242 184.037, 144.637 183.609, 147.814 180.862, 157.430 180.447, 158.885 176.308, 167.988 175.725, 169.271 170.227, 177.616 169.534, 178.670 167.652, 180.695 162.001, 186.778 153.996, 192.772 153.295, 193.297 144.282, 197.629 143.635, 197.941 140.493, 198.703 137.506, 199.428 133.293, 200.450 123.295, 200.601 122.599, 200.611 112.831, 198.471 111.937, 198.276 104.275, 194.605 101.736, 193.389 96.011, 188.841 92.956, 186.414 92.451, 186.012 86.118, 178.273 84.540, 176.344 79.883, 167.495 78.425, 164.727 75.738, 155.864 74.522, 151.856 74.457, 151.641 73.331, 141.704 72.875, 137.679 73.515, 127.700 73.784, 123.508 75.972, 114.577 76.981, 110.458 77.139, 109.813 81.214, 100.681 82.749, 97.242 88.446, 89.023 90.296, 86.356 96.302, 80.555 99.224, 77.734 99.372, 77.591 107.848, 72.285 109.515, 71.241 115.892, 68.989 120.248, 67.450 " />
            <path fill="none" stroke-width="3.0" stroke-linecap="butt" stroke-opacity="1.0" stroke="rgb(0, 0, 0)" stroke-linejoin="round" d=" M 132.847, 70.513 140.058, 73.001 148.620, 78.167 148.836, 78.297 156.216, 85.045 156.479, 85.285 157.125, 86.142 " />
            <path fill="none" stroke-width="3.0" stroke-linecap="butt" stroke-opacity="1.0" stroke="rgb(0, 0, 0)" stroke-linejoin="round" d=" M 187.802, 145.120 196.613, 146.126 197.121, 142.298 188.383, 140.794 " />
            <path fill="none" stroke-width="3.0" stroke-linecap="butt" stroke-opacity="1.0" stroke="rgb(0, 0, 0)" stroke-linejoin="round" d=" M 159.506, 89.300 162.807, 93.679 167.375, 102.575 167.686, 103.179 170.767, 112.693 171.024, 113.487 171.304, 115.231 " />
            <path fill="none" stroke-width="3.0" stroke-linecap="butt" stroke-opacity="1.0" stroke="rgb(0, 0, 0)" stroke-linejoin="round" d=" M 171.909, 118.985 172.765, 124.303 172.873, 134.302 172.885, 135.332 171.529, 145.239 171.387, 146.279 170.981, 147.670 " />
            <path fill="none" stroke-width="3.0" stroke-linecap="butt" stroke-opacity="1.0" stroke="rgb(0, 0, 0)" stroke-linejoin="round" d=" M 169.933, 151.266 168.303, 156.853 164.085, 165.919 163.694, 166.760 158.097, 175.047 157.650, 175.709 156.655, 176.750 " />
            <path fill="none" stroke-width="3.0" stroke-linecap="butt" stroke-opacity="1.0" stroke="rgb(0, 0, 0)" stroke-linejoin="round" d=" M 153.973, 179.560 150.300, 183.407 142.210, 189.284 141.815, 189.571 132.743, 193.778 132.411, 193.932 129.376, 194.631 " />
            <path fill="none" stroke-width="3.0" stroke-linecap="butt" stroke-opacity="1.0" stroke="rgb(0, 0, 0)" stroke-linejoin="round" d=" M 125.599, 195.501 122.359, 196.247 112.359, 196.318 111.981, 196.320 104.275, 194.605 " />
            <path fill="none" stroke-width="3.0" stroke-linecap="butt" stroke-opacity="1.0" stroke="rgb(0, 0, 0)" stroke-linejoin="round" d=" M 115.892, 68.989 120.101, 68.509 129.154, 69.525 " />
            <path fill="none" stroke-width="3.0" stroke-linecap="butt" stroke-opacity="1.0" stroke="rgb(0, 0, 0)" stroke-linejoin="round" d=" M 59.220, 141.703 58.901, 141.757 49.041, 143.426 44.620, 144.174 45.191, 148.878 52.654, 150.801 59.810, 149.499 65.340, 148.492 67.801, 148.044 67.245, 143.208 " />
            <path fill="none" stroke-width="3.0" stroke-linecap="butt" stroke-opacity="1.0" stroke="rgb(0, 0, 0)" stroke-linejoin="round" d=" M 52.063, 145.848 59.235, 144.601 59.553, 144.546 67.245, 143.208 59.220, 141.703 " />
            <path fill="none" stroke-width="3.0" stroke-linecap="butt" stroke-opacity="1.0" stroke="rgb(0, 0, 0)" stroke-linejoin="round" d=" M 75.407, 98.525 73.728, 97.592 68.738, 94.821 61.973, 91.064 54.110, 92.160 52.148, 96.363 60.956, 101.099 64.900, 103.219 65.168, 103.363 73.449, 102.870 " />
            <path fill="none" stroke-width="3.0" stroke-linecap="butt" stroke-opacity="1.0" stroke="rgb(0, 0, 0)" stroke-linejoin="round" d=" M 59.930, 95.487 66.733, 99.202 66.999, 99.348 73.449, 102.870 75.407, 98.525 " />
            <path fill="none" stroke-width="3.0" stroke-linecap="butt" stroke-opacity="1.0" stroke="rgb(0, 0, 0)" stroke-linejoin="round" d=" M 167.964, 77.052 172.812, 68.306 173.647, 66.799 171.043, 64.233 161.207, 66.034 159.941, 66.266 158.259, 69.226 " />
            <path fill="none" stroke-width="3.0" stroke-linecap="butt" stroke-opacity="1.0" stroke="rgb(0, 0, 0)" stroke-linejoin="round" d=" M 185.664, 107.793 194.047, 103.164 192.942, 99.532 183.167, 99.986 " />
            <path fill="none" stroke-width="3.0" stroke-linecap="butt" stroke-opacity="1.0" stroke="rgb(0, 0, 0)" stroke-linejoin="round" d=" M 138.686, 204.631 139.807, 209.577 149.051, 213.391 150.284, 213.900 153.548, 212.213 151.401, 202.446 150.864, 200.000 " />
            <path fill="none" stroke-width="3.0" stroke-linecap="butt" stroke-opacity="1.0" stroke="rgb(0, 0, 0)" stroke-linejoin="round" d=" M 103.786, 201.168 101.159, 210.817 100.233, 214.218 109.104, 218.834 109.617, 219.102 113.345, 219.775 115.922, 210.112 117.175, 205.412 " />
            <path fill="none" stroke-width="3.0" stroke-linecap="butt" stroke-opacity="1.0" stroke="rgb(0, 0, 0)" stroke-linejoin="round" d=" M 44.620, 144.174 52.063, 145.848 52.654, 150.801 " />
            <path fill="none" stroke-width="3.0" stroke-linecap="butt" stroke-opacity="1.0" stroke="rgb(0, 0, 0)" stroke-linejoin="round" d=" M 61.973, 91.064 59.930, 95.487 52.148, 96.363 " />
            <path fill="none" stroke-width="3.0" stroke-linecap="butt" stroke-opacity="1.0" stroke="rgb(0, 0, 0)" stroke-linejoin="round" d=" M 137.938, 61.397 138.175, 51.399 138.273, 47.273 134.636, 46.707 125.029, 49.480 124.380, 49.668 124.151, 59.665 124.117, 61.152 " />
            <path fill="none" stroke-width="3.0" stroke-linecap="butt" stroke-opacity="1.0" stroke="rgb(0, 0, 0)" stroke-linejoin="round" d=" M 134.636, 46.707 134.401, 56.704 134.301, 60.927 " />
            <path fill="none" stroke-width="3.0" stroke-linecap="butt" stroke-opacity="1.0" stroke="rgb(0, 0, 0)" stroke-linejoin="round" d=" M 171.043, 64.233 166.169, 72.964 165.303, 74.516 " />
            <path fill="none" stroke-width="3.0" stroke-linecap="butt" stroke-opacity="1.0" stroke="rgb(0, 0, 0)" stroke-linejoin="round" d=" M 181.296, 186.243 174.354, 178.906 " />
            <path fill="none" stroke-width="3.0" stroke-linecap="butt" stroke-opacity="1.0" stroke="rgb(0, 0, 0)" stroke-linejoin="round" d=" M 192.942, 99.532 184.518, 104.112 " />
            <path fill="none" stroke-width="3.0" stroke-linecap="butt" stroke-opacity="1.0" stroke="rgb(0, 0, 0)" stroke-linejoin="round" d=" M 150.284, 213.900 148.119, 204.137 147.561, 201.622 " />
            <path fill="none" stroke-width="3.0" stroke-linecap="butt" stroke-opacity="1.0" stroke="rgb(0, 0, 0)" stroke-linejoin="round" d=" M 109.617, 219.102 112.208, 209.443 113.494, 204.646 " />
            <path fill="none" stroke-width="3.0" stroke-linecap="butt" stroke-opacity="1.0" stroke="rgb(0, 0, 0)" stroke-linejoin="round" d=" M 145.416, 130.638 145.345, 130.231 144.978, 128.110 143.996, 125.282 143.638, 124.636 142.583, 122.730 140.836, 120.609 140.784, 120.546 138.657, 118.808 136.272, 117.583 135.759, 117.450 133.710, 116.920 132.758, 116.896 131.062, 116.853 128.422, 117.392 126.507, 118.249 125.887, 118.526 124.777, 119.333 123.556, 120.220 121.519, 122.417 120.433, 124.128 119.856, 125.038 119.750, 125.293 119.473, 125.962 118.636, 127.985 117.907, 131.145 117.849, 132.066 117.701, 134.396 117.704, 134.429 118.024, 137.612 118.514, 139.392 118.856, 140.636 118.864, 140.667 119.661, 142.343 120.184, 143.443 121.931, 145.838 123.807, 147.556 124.034, 147.764 125.673, 148.722 126.409, 149.153 128.965, 149.962 131.606, 150.169 131.809, 150.138 134.236, 149.775 135.162, 149.418 136.761, 148.803 139.094, 147.294 140.193, 146.236 141.157, 145.308 142.882, 142.918 143.364, 141.938 144.214, 140.208 144.616, 138.893 " />
            <path fill="none" stroke-width="3.0" stroke-linecap="butt" stroke-opacity="1.0" stroke="rgb(0, 0, 0)" stroke-linejoin="round" d=" M 114.598, 142.140 114.859, 142.685 116.581, 145.023 117.494, 145.853 " />
            <path fill="none" stroke-width="3.0" stroke-linecap="butt" stroke-opacity="1.0" stroke="rgb(0, 0, 0)" stroke-linejoin="round" d=" M 118.038, 120.177 116.162, 122.181 114.827, 124.266 " />
            <path fill="none" stroke-width="3.0" stroke-linecap="butt" stroke-opacity="1.0" stroke="rgb(0, 0, 0)" stroke-linejoin="round" d=" M 122.922, 148.871 123.512, 149.057 125.672, 149.415 128.965, 149.962 " />
            <path fill="none" stroke-width="3.0" stroke-linecap="butt" stroke-opacity="1.0" stroke="rgb(0, 0, 0)" stroke-linejoin="round" d=" M 112.745, 130.111 112.611, 130.690 112.410, 133.860 112.653, 136.240 " />
            <path fill="none" stroke-width="3.0" stroke-linecap="butt" stroke-opacity="1.0" stroke="rgb(0, 0, 0)" stroke-linejoin="round" d=" M 126.587, 116.774 125.560, 116.756 123.455, 117.181 " />
            <path fill="none" stroke-width="3.0" stroke-linecap="butt" stroke-opacity="1.0" stroke="rgb(0, 0, 0)" stroke-linejoin="round" d=" M 132.438, 143.401 130.945, 142.908 130.569, 142.681 129.846, 142.246 129.563, 142.076 128.345, 140.935 127.336, 139.524 126.575, 137.895 126.093, 136.109 125.909, 134.231 126.029, 132.334 126.449, 130.488 127.154, 128.763 128.115, 127.223 129.295, 125.926 130.650, 124.918 131.449, 124.549 132.127, 124.235 132.177, 124.224 133.672, 123.898 135.228, 123.917 " />
            <path fill="none" stroke-width="3.0" stroke-linecap="butt" stroke-opacity="1.0" stroke="rgb(0, 0, 0)" stroke-linejoin="round" d=" M 140.100, 125.179 139.994, 125.093 138.576, 124.380 138.556, 124.375 137.883, 124.209 137.058, 124.005 136.484, 123.998 135.508, 123.986 135.495, 123.986 133.943, 124.326 132.736, 124.887 132.459, 125.015 132.063, 125.311 131.098, 126.031 129.911, 127.339 128.946, 128.891 128.237, 130.630 127.814, 132.491 127.693, 134.404 127.878, 136.297 128.362, 138.097 129.126, 139.739 130.140, 141.161 130.571, 141.565 131.163, 142.122 131.364, 142.310 132.752, 143.148 133.875, 143.520 133.924, 143.537 134.252, 143.645 135.808, 143.787 136.105, 143.745 137.363, 143.570 137.882, 143.375 138.305, 143.216 " />
            <path fill="none" stroke-width="3.0" stroke-linecap="butt" stroke-opacity="1.0" stroke="rgb(0, 0, 0)" stroke-linejoin="round" d=" M 133.254, 141.380 132.373, 140.844 132.227, 140.756 131.679, 140.239 131.230, 139.815 130.406, 138.654 129.785, 137.315 129.392, 135.848 129.242, 134.306 129.340, 132.748 129.684, 131.231 130.260, 129.814 131.046, 128.548 132.011, 127.480 132.911, 126.804 133.119, 126.648 133.686, 126.382 134.329, 126.082 134.547, 126.033 " />
            <path fill="none" stroke-width="3.0" stroke-linecap="butt" stroke-opacity="1.0" stroke="rgb(0, 0, 0)" stroke-linejoin="round" d=" M 137.058, 124.005 136.435, 123.975 135.228, 123.917 " />
            <path fill="none" stroke-width="3.0" stroke-linecap="butt" stroke-opacity="1.0" stroke="rgb(0, 0, 0)" stroke-linejoin="round" d=" M 132.438, 143.401 133.795, 143.584 134.252, 143.645 " />
            <path fill="none" stroke-width="3.0" stroke-linecap="butt" stroke-opacity="1.0" stroke="rgb(0, 0, 0)" stroke-linejoin="round" d=" M 130.455, 132.784 130.344, 134.539 130.513, 136.276 130.586, 136.552 130.954, 137.928 131.651, 139.435 131.956, 139.865 132.515, 140.652 132.577, 140.740 133.254, 141.380 133.696, 141.797 134.965, 142.567 135.225, 142.654 136.337, 143.026 136.342, 143.026 136.604, 143.061 136.835, 143.091 137.988, 143.197 138.261, 143.222 138.305, 143.216 138.546, 143.183 139.687, 143.025 141.062, 142.507 142.338, 141.690 142.423, 141.608 143.470, 140.605 144.420, 139.292 144.616, 138.893 145.155, 137.797 145.535, 136.550 145.651, 136.173 145.890, 134.477 145.865, 132.767 145.577, 131.103 145.416, 130.638 145.283, 130.257 145.035, 129.543 144.257, 128.141 143.268, 126.948 142.104, 126.006 141.097, 125.500 140.803, 125.352 140.100, 125.179 139.412, 125.009 138.909, 124.983 138.313, 124.977 138.106, 124.975 137.478, 124.968 136.058, 125.283 134.700, 125.918 134.547, 126.033 133.804, 126.591 133.456, 126.853 133.108, 127.239 132.372, 128.055 131.489, 129.480 131.166, 130.276 130.842, 131.076 130.455, 132.784 " />
            <path fill="none" stroke-width="3.0" stroke-linecap="butt" stroke-opacity="1.0" stroke="rgb(0, 0, 0)" stroke-linejoin="round" d=" M 136.835, 143.091 136.484, 142.973 135.462, 142.632 135.380, 142.582 134.191, 141.860 133.071, 140.801 132.745, 140.340 132.187, 139.552 132.145, 139.493 131.446, 137.983 131.004, 136.327 130.836, 134.586 130.947, 132.827 131.334, 131.116 131.982, 129.516 132.866, 128.088 133.256, 127.655 133.952, 126.883 133.964, 126.874 135.198, 125.946 136.557, 125.310 137.979, 124.994 138.149, 124.996 139.412, 125.009 " />
            <path fill="none" stroke-width="3.0" stroke-linecap="butt" stroke-opacity="1.0" stroke="rgb(0, 0, 0)" stroke-linejoin="round" d=" M 106.339, 127.405 105.845, 128.169 105.343, 129.356 105.045, 130.626 104.962, 131.932 105.097, 133.226 105.444, 134.458 105.991, 135.584 106.716, 136.562 107.591, 137.356 108.552, 137.919 " />
            <path fill="none" stroke-width="3.0" stroke-linecap="butt" stroke-opacity="1.0" stroke="rgb(0, 0, 0)" stroke-linejoin="round" d=" M 114.508, 135.480 112.653, 136.240 108.552, 137.919 99.298, 141.709 90.044, 145.499 80.790, 149.289 74.522, 151.856 " />
            <path fill="none" stroke-width="3.0" stroke-linecap="butt" stroke-opacity="1.0" stroke="rgb(0, 0, 0)" stroke-linejoin="round" d=" M 75.972, 114.577 85.184, 118.468 94.396, 122.359 103.607, 126.251 106.339, 127.405 112.745, 130.111 114.513, 130.858 " />
            <path fill="none" stroke-width="3.0" stroke-linecap="butt" stroke-opacity="1.0" stroke="rgb(0, 0, 0)" stroke-linejoin="round" d=" M 75.738, 155.864 85.167, 152.534 94.596, 149.204 104.025, 145.874 113.454, 142.544 114.598, 142.140 117.139, 141.243 " />
            <path fill="none" stroke-width="3.0" stroke-linecap="butt" stroke-opacity="1.0" stroke="rgb(0, 0, 0)" stroke-linejoin="round" d=" M 117.494, 145.853 112.318, 154.409 107.142, 162.965 101.966, 171.521 96.790, 180.077 92.956, 186.414 " />
            <path fill="none" stroke-width="3.0" stroke-linecap="butt" stroke-opacity="1.0" stroke="rgb(0, 0, 0)" stroke-linejoin="round" d=" M 117.244, 125.148 116.983, 125.053 114.827, 124.266 105.433, 120.839 96.039, 117.411 86.644, 113.984 76.981, 110.458 " />
            <path fill="none" stroke-width="3.0" stroke-linecap="butt" stroke-opacity="1.0" stroke="rgb(0, 0, 0)" stroke-linejoin="round" d=" M 96.302, 80.555 101.112, 89.323 105.922, 98.090 110.731, 106.857 115.541, 115.625 118.038, 120.177 119.454, 122.758 " />
            <path fill="none" stroke-width="3.0" stroke-linecap="butt" stroke-opacity="1.0" stroke="rgb(0, 0, 0)" stroke-linejoin="round" d=" M 124.777, 119.333 123.455, 117.181 118.221, 108.660 112.987, 100.139 107.753, 91.618 102.519, 83.098 99.224, 77.734 " />
            <path fill="none" stroke-width="3.0" stroke-linecap="butt" stroke-opacity="1.0" stroke="rgb(0, 0, 0)" stroke-linejoin="round" d=" M 132.758, 116.896 132.777, 106.896 132.796, 96.896 132.816, 86.896 132.835, 76.896 132.847, 70.513 132.849, 69.520 " />
            <path fill="none" stroke-width="3.0" stroke-linecap="butt" stroke-opacity="1.0" stroke="rgb(0, 0, 0)" stroke-linejoin="round" d=" M 140.836, 120.609 145.958, 112.020 151.079, 103.431 156.200, 94.842 159.506, 89.300 161.881, 85.315 161.990, 85.134 " />
            <path fill="none" stroke-width="3.0" stroke-linecap="butt" stroke-opacity="1.0" stroke="rgb(0, 0, 0)" stroke-linejoin="round" d=" M 143.364, 141.938 152.799, 145.251 162.235, 148.563 169.933, 151.266 173.495, 152.516 174.839, 152.988 " />
            <path fill="none" stroke-width="3.0" stroke-linecap="butt" stroke-opacity="1.0" stroke="rgb(0, 0, 0)" stroke-linejoin="round" d=" M 145.345, 130.231 154.554, 126.332 163.763, 122.434 171.909, 118.985 175.499, 117.465 177.234, 116.730 " />
            <path fill="none" stroke-width="3.0" stroke-linecap="butt" stroke-opacity="1.0" stroke="rgb(0, 0, 0)" stroke-linejoin="round" d=" M 187.860, 144.693 196.613, 146.126 " />
        </g>
    </g>
</svg>
