<?xml version='1.0' encoding='ascii'?>
<svg xmlns="http://www.w3.org/2000/svg" version="1.1" width="250" height="250">
    <g id="View Layer_LineSet" xmlns:inkscape="http://www.inkscape.org/namespaces/inkscape" inkscape:groupmode="lineset" inkscape:label="View Layer_LineSet">
        <g xmlns:inkscape="http://www.inkscape.org/namespaces/inkscape" inkscape:groupmode="layer" id="strokes" inkscape:label="strokes">
            <path fill="none" stroke-width="3.0" stroke-linecap="butt" stroke-opacity="1.0" stroke="rgb(0, 0, 0)" stroke-linejoin="round" d=" M 131.451, 69.696 131.420, 70.035 130.516, 79.994 129.612, 89.953 128.709, 99.912 127.805, 109.871 127.181, 116.737 127.176, 116.798 " />
            <path fill="none" stroke-width="3.0" stroke-linecap="butt" stroke-opacity="1.0" stroke="rgb(0, 0, 0)" stroke-linejoin="round" d=" M 161.250, 84.236 160.717, 84.953 158.568, 87.846 152.606, 95.875 146.644, 103.903 140.682, 111.931 136.412, 117.681 " />
            <path fill="none" stroke-width="3.0" stroke-linecap="butt" stroke-opacity="1.0" stroke="rgb(0, 0, 0)" stroke-linejoin="round" d=" M 176.665, 116.018 175.421, 116.374 171.751, 117.424 162.137, 120.175 152.522, 122.926 143.989, 125.368 " />
            <path fill="none" stroke-width="3.0" stroke-linecap="butt" stroke-opacity="1.0" stroke="rgb(0, 0, 0)" stroke-linejoin="round" d=" M 175.475, 152.344 173.876, 151.548 170.454, 149.845 161.501, 145.391 152.548, 140.937 145.292, 137.327 " />
            <path fill="none" stroke-width="3.0" stroke-linecap="butt" stroke-opacity="1.0" stroke="rgb(0, 0, 0)" stroke-linejoin="round" d=" M 157.816, 183.844 157.234, 182.653 157.162, 182.506 155.183, 178.453 150.794, 169.468 146.406, 160.482 142.017, 151.497 139.681, 146.713 " />
            <path fill="none" stroke-width="3.0" stroke-linecap="butt" stroke-opacity="1.0" stroke="rgb(0, 0, 0)" stroke-linejoin="round" d=" M 126.813, 198.651 126.991, 196.684 127.127, 195.191 128.029, 185.232 128.932, 175.273 129.835, 165.314 130.738, 155.354 131.209, 150.155 " />
            <path fill="none" stroke-width="3.0" stroke-linecap="butt" stroke-opacity="1.0" stroke="rgb(0, 0, 0)" stroke-linejoin="round" d=" M 125.255, 119.004 124.145, 117.020 119.263, 108.293 114.382, 99.566 109.500, 90.838 104.618, 82.111 101.326, 76.225 101.305, 76.186 " />
            <path fill="none" stroke-width="3.0" stroke-linecap="butt" stroke-opacity="1.0" stroke="rgb(0, 0, 0)" stroke-linejoin="round" d=" M 134.486, 149.638 139.426, 158.333 144.366, 167.028 149.306, 175.722 152.392, 181.154 154.152, 184.251 154.591, 185.023 154.807, 185.404 " />
            <path fill="none" stroke-width="3.0" stroke-linecap="butt" stroke-opacity="1.0" stroke="rgb(0, 0, 0)" stroke-linejoin="round" d=" M 125.087, 149.286 124.709, 159.279 124.331, 169.272 123.952, 179.264 123.574, 189.257 123.323, 195.874 123.302, 196.428 123.227, 198.402 " />
            <path fill="none" stroke-width="3.0" stroke-linecap="butt" stroke-opacity="1.0" stroke="rgb(0, 0, 0)" stroke-linejoin="round" d=" M 80.367, 187.477 86.618, 192.830 95.453, 197.513 97.227, 198.453 101.297, 200.269 104.677, 201.778 107.359, 202.975 110.903, 203.908 114.564, 204.873 118.912, 206.019 128.909, 206.280 130.562, 206.324 135.997, 205.230 139.399, 204.546 141.881, 204.047 145.146, 202.625 148.512, 201.159 152.505, 199.421 160.716, 193.713 162.132, 192.728 168.870, 185.945 170.524, 184.279 171.380, 183.067 172.750, 181.126 174.958, 177.996 177.499, 174.395 181.920, 165.426 182.918, 163.400 185.962, 153.875 186.684, 151.615 187.246, 148.253 187.376, 147.471 187.862, 144.559 188.024, 143.593 188.731, 139.359 188.965, 129.361 189.022, 126.944 187.825, 117.016 187.544, 114.688 186.387, 110.467 185.364, 106.739 185.301, 106.507 184.326, 102.954 184.313, 102.908 180.210, 93.788 179.373, 91.927 173.823, 83.609 172.802, 82.078 169.788, 78.951 167.228, 76.295 164.720, 73.693 163.410, 72.778 160.586, 70.804 155.299, 67.108 146.093, 63.203 144.769, 62.641 140.489, 61.863 136.895, 61.210 133.430, 60.581 130.296, 60.735 126.748, 60.910 121.652, 61.160 111.926, 63.487 110.921, 63.727 105.032, 65.406 " />
            <path fill="none" stroke-width="3.0" stroke-linecap="butt" stroke-opacity="1.0" stroke="rgb(0, 0, 0)" stroke-linejoin="round" d=" M 80.662, 181.229 83.292, 184.716 80.367, 187.477 73.096, 194.343 71.853, 195.516 63.696, 191.465 61.059, 188.120 68.430, 181.362 72.038, 178.054 72.184, 177.921 " />
            <path fill="none" stroke-width="3.0" stroke-linecap="butt" stroke-opacity="1.0" stroke="rgb(0, 0, 0)" stroke-linejoin="round" d=" M 71.853, 195.516 69.119, 192.017 " />
            <path fill="none" stroke-width="3.0" stroke-linecap="butt" stroke-opacity="1.0" stroke="rgb(0, 0, 0)" stroke-linejoin="round" d=" M 61.059, 188.120 69.119, 192.017 76.425, 185.189 77.041, 184.614 78.851, 182.922 80.662, 181.229 72.184, 177.921 " />
            <path fill="none" stroke-width="3.0" stroke-linecap="butt" stroke-opacity="1.0" stroke="rgb(0, 0, 0)" stroke-linejoin="round" d=" M 105.635, 66.716 105.032, 65.406 100.847, 56.324 99.194, 52.736 89.991, 55.592 86.451, 57.419 90.734, 66.455 92.731, 70.667 92.777, 70.764 " />
            <path fill="none" stroke-width="3.0" stroke-linecap="butt" stroke-opacity="1.0" stroke="rgb(0, 0, 0)" stroke-linejoin="round" d=" M 168.870, 185.945 178.506, 188.618 179.462, 188.883 181.611, 185.767 175.108, 178.171 174.958, 177.996 " />
            <path fill="none" stroke-width="3.0" stroke-linecap="butt" stroke-opacity="1.0" stroke="rgb(0, 0, 0)" stroke-linejoin="round" d=" M 121.652, 61.160 112.037, 63.910 109.871, 64.529 101.104, 69.340 98.583, 70.722 91.030, 77.275 88.316, 79.630 82.222, 87.558 79.594, 90.978 75.110, 99.916 72.897, 104.326 72.557, 105.500 71.458, 109.286 68.670, 118.890 68.614, 119.082 67.573, 129.028 66.997, 134.539 67.734, 144.512 68.136, 149.934 68.423, 151.035 69.412, 154.815 71.948, 164.511 76.257, 173.535 78.191, 177.585 84.210, 185.571 86.490, 188.596 94.058, 195.132 96.382, 197.139 101.435, 199.826 107.359, 202.975 " />
            <path fill="none" stroke-width="3.0" stroke-linecap="butt" stroke-opacity="1.0" stroke="rgb(0, 0, 0)" stroke-linejoin="round" d=" M 105.635, 66.716 102.059, 68.678 " />
            <path fill="none" stroke-width="3.0" stroke-linecap="butt" stroke-opacity="1.0" stroke="rgb(0, 0, 0)" stroke-linejoin="round" d=" M 92.777, 70.764 102.059, 68.678 101.582, 67.651 101.064, 66.538 96.849, 57.469 95.533, 54.636 " />
            <path fill="none" stroke-width="3.0" stroke-linecap="butt" stroke-opacity="1.0" stroke="rgb(0, 0, 0)" stroke-linejoin="round" d=" M 86.451, 57.419 95.533, 54.636 99.194, 52.736 " />
            <path fill="none" stroke-width="3.0" stroke-linecap="butt" stroke-opacity="1.0" stroke="rgb(0, 0, 0)" stroke-linejoin="round" d=" M 59.221, 145.678 59.393, 147.942 61.962, 157.607 63.065, 161.755 67.423, 170.756 69.077, 174.170 72.038, 178.054 " />
            <path fill="none" stroke-width="3.0" stroke-linecap="butt" stroke-opacity="1.0" stroke="rgb(0, 0, 0)" stroke-linejoin="round" d=" M 66.228, 100.262 63.931, 104.784 61.112, 114.379 59.829, 118.748 58.781, 128.693 58.288, 133.371 58.673, 138.449 " />
            <path fill="none" stroke-width="3.0" stroke-linecap="butt" stroke-opacity="1.0" stroke="rgb(0, 0, 0)" stroke-linejoin="round" d=" M 92.731, 70.667 88.629, 72.895 81.036, 79.403 78.740, 81.371 72.597, 89.261 70.714, 91.679 " />
            <path fill="none" stroke-width="3.0" stroke-linecap="butt" stroke-opacity="1.0" stroke="rgb(0, 0, 0)" stroke-linejoin="round" d=" M 122.706, 66.952 131.838, 66.407 133.543, 66.305 135.065, 66.566 144.010, 68.096 153.253, 71.915 153.761, 72.125 157.969, 75.016 161.474, 77.423 162.513, 78.136 169.501, 85.289 170.040, 85.841 175.633, 94.131 176.175, 94.934 180.304, 104.016 180.798, 105.102 181.333, 107.036 183.826, 116.035 185.037, 125.961 185.215, 127.424 184.983, 137.422 184.948, 138.966 183.605, 146.961 183.484, 147.680 183.035, 150.358 179.972, 159.878 179.514, 161.301 175.064, 170.256 174.451, 171.490 168.649, 179.635 168.556, 179.766 167.945, 180.624 165.726, 182.832 160.130, 188.399 151.878, 194.047 151.188, 194.519 141.985, 198.432 141.348, 198.702 137.492, 199.439 135.000, 199.915 130.896, 200.698 120.903, 200.332 120.174, 200.305 110.531, 197.657 109.577, 197.395 104.339, 194.545 99.542, 191.936 94.090, 187.148 91.138, 184.555 90.529, 184.019 84.563, 175.994 82.989, 173.876 78.723, 164.832 77.331, 161.881 75.068, 153.123 74.017, 149.055 73.885, 148.542 73.159, 138.568 72.861, 134.473 73.897, 124.527 74.332, 120.350 76.779, 111.854 77.952, 107.778 78.218, 106.854 82.667, 97.898 84.297, 94.618 90.346, 86.655 92.228, 84.178 98.282, 78.848 101.305, 76.186 101.586, 75.939 110.310, 71.051 111.904, 70.159 115.872, 68.981 122.706, 66.952 " />
            <path fill="none" stroke-width="3.0" stroke-linecap="butt" stroke-opacity="1.0" stroke="rgb(0, 0, 0)" stroke-linejoin="round" d=" M 135.071, 71.210 142.128, 74.035 150.444, 79.588 150.668, 79.737 157.753, 86.794 158.029, 87.069 158.568, 87.846 " />
            <path fill="none" stroke-width="3.0" stroke-linecap="butt" stroke-opacity="1.0" stroke="rgb(0, 0, 0)" stroke-linejoin="round" d=" M 187.246, 148.253 196.070, 149.361 196.698, 145.551 188.024, 143.593 " />
            <path fill="none" stroke-width="3.0" stroke-linecap="butt" stroke-opacity="1.0" stroke="rgb(0, 0, 0)" stroke-linejoin="round" d=" M 160.822, 91.097 164.040, 95.738 168.273, 104.798 168.577, 105.447 171.320, 115.064 171.558, 115.896 171.751, 117.424 " />
            <path fill="none" stroke-width="3.0" stroke-linecap="butt" stroke-opacity="1.0" stroke="rgb(0, 0, 0)" stroke-linejoin="round" d=" M 172.227, 121.188 172.934, 126.785 172.710, 136.783 172.687, 137.821 171.004, 147.679 170.828, 148.710 170.454, 149.845 " />
            <path fill="none" stroke-width="3.0" stroke-linecap="butt" stroke-opacity="1.0" stroke="rgb(0, 0, 0)" stroke-linejoin="round" d=" M 169.282, 153.412 167.393, 159.159 162.859, 168.072 162.450, 168.875 156.550, 176.949 156.099, 177.567 155.183, 178.453 " />
            <path fill="none" stroke-width="3.0" stroke-linecap="butt" stroke-opacity="1.0" stroke="rgb(0, 0, 0)" stroke-linejoin="round" d=" M 152.392, 181.154 148.476, 184.943 140.143, 190.471 139.763, 190.723 130.508, 194.510 130.187, 194.641 127.127, 195.191 " />
            <path fill="none" stroke-width="3.0" stroke-linecap="butt" stroke-opacity="1.0" stroke="rgb(0, 0, 0)" stroke-linejoin="round" d=" M 123.323, 195.874 120.031, 196.465 110.041, 196.030 109.630, 196.012 104.339, 194.545 " />
            <path fill="none" stroke-width="3.0" stroke-linecap="butt" stroke-opacity="1.0" stroke="rgb(0, 0, 0)" stroke-linejoin="round" d=" M 115.872, 68.981 122.458, 68.569 131.420, 70.035 " />
            <path fill="none" stroke-width="3.0" stroke-linecap="butt" stroke-opacity="1.0" stroke="rgb(0, 0, 0)" stroke-linejoin="round" d=" M 58.998, 138.410 58.673, 138.449 48.742, 139.621 44.317, 140.144 44.691, 144.886 52.137, 146.598 59.221, 145.678 64.788, 144.955 67.378, 144.618 67.017, 139.744 " />
            <path fill="none" stroke-width="3.0" stroke-linecap="butt" stroke-opacity="1.0" stroke="rgb(0, 0, 0)" stroke-linejoin="round" d=" M 51.750, 141.604 58.847, 140.739 59.171, 140.700 67.017, 139.744 58.998, 138.410 " />
            <path fill="none" stroke-width="3.0" stroke-linecap="butt" stroke-opacity="1.0" stroke="rgb(0, 0, 0)" stroke-linejoin="round" d=" M 76.936, 95.543 75.566, 94.692 70.714, 91.679 63.864, 87.425 55.927, 88.700 53.802, 92.784 62.370, 97.940 66.228, 100.262 66.482, 100.415 74.815, 99.770 " />
            <path fill="none" stroke-width="3.0" stroke-linecap="butt" stroke-opacity="1.0" stroke="rgb(0, 0, 0)" stroke-linejoin="round" d=" M 61.652, 91.721 68.455, 95.880 69.185, 96.327 74.815, 99.770 76.936, 95.543 " />
            <path fill="none" stroke-width="3.0" stroke-linecap="butt" stroke-opacity="1.0" stroke="rgb(0, 0, 0)" stroke-linejoin="round" d=" M 169.788, 78.951 174.968, 70.397 175.764, 69.084 173.263, 66.404 163.410, 68.114 162.117, 68.339 160.586, 70.804 " />
            <path fill="none" stroke-width="3.0" stroke-linecap="butt" stroke-opacity="1.0" stroke="rgb(0, 0, 0)" stroke-linejoin="round" d=" M 186.387, 110.467 194.874, 106.289 193.890, 102.614 184.326, 102.954 " />
            <path fill="none" stroke-width="3.0" stroke-linecap="butt" stroke-opacity="1.0" stroke="rgb(0, 0, 0)" stroke-linejoin="round" d=" M 135.997, 205.230 137.040, 210.792 146.250, 214.686 147.448, 215.193 150.780, 213.657 148.995, 203.818 148.512, 201.159 " />
            <path fill="none" stroke-width="3.0" stroke-linecap="butt" stroke-opacity="1.0" stroke="rgb(0, 0, 0)" stroke-linejoin="round" d=" M 101.297, 200.269 98.315, 209.814 97.173, 213.469 106.028, 218.115 106.463, 218.344 110.178, 219.218 113.102, 209.655 114.564, 204.873 " />
            <path fill="none" stroke-width="3.0" stroke-linecap="butt" stroke-opacity="1.0" stroke="rgb(0, 0, 0)" stroke-linejoin="round" d=" M 44.317, 140.144 51.750, 141.604 52.137, 146.598 " />
            <path fill="none" stroke-width="3.0" stroke-linecap="butt" stroke-opacity="1.0" stroke="rgb(0, 0, 0)" stroke-linejoin="round" d=" M 63.864, 87.425 61.652, 91.721 53.802, 92.784 " />
            <path fill="none" stroke-width="3.0" stroke-linecap="butt" stroke-opacity="1.0" stroke="rgb(0, 0, 0)" stroke-linejoin="round" d=" M 140.489, 61.863 141.082, 51.881 141.317, 47.921 137.729, 47.174 128.107, 49.895 127.392, 50.098 126.798, 60.080 126.748, 60.910 " />
            <path fill="none" stroke-width="3.0" stroke-linecap="butt" stroke-opacity="1.0" stroke="rgb(0, 0, 0)" stroke-linejoin="round" d=" M 137.729, 47.174 137.136, 57.156 136.895, 61.210 " />
            <path fill="none" stroke-width="3.0" stroke-linecap="butt" stroke-opacity="1.0" stroke="rgb(0, 0, 0)" stroke-linejoin="round" d=" M 173.263, 66.404 168.054, 74.941 167.228, 76.295 " />
            <path fill="none" stroke-width="3.0" stroke-linecap="butt" stroke-opacity="1.0" stroke="rgb(0, 0, 0)" stroke-linejoin="round" d=" M 179.462, 188.883 172.919, 181.321 172.750, 181.126 " />
            <path fill="none" stroke-width="3.0" stroke-linecap="butt" stroke-opacity="1.0" stroke="rgb(0, 0, 0)" stroke-linejoin="round" d=" M 193.890, 102.614 185.364, 106.739 " />
            <path fill="none" stroke-width="3.0" stroke-linecap="butt" stroke-opacity="1.0" stroke="rgb(0, 0, 0)" stroke-linejoin="round" d=" M 147.448, 215.193 145.646, 205.356 145.146, 202.625 " />
            <path fill="none" stroke-width="3.0" stroke-linecap="butt" stroke-opacity="1.0" stroke="rgb(0, 0, 0)" stroke-linejoin="round" d=" M 106.463, 218.344 109.403, 208.785 110.903, 203.908 " />
            <path fill="none" stroke-width="3.0" stroke-linecap="butt" stroke-opacity="1.0" stroke="rgb(0, 0, 0)" stroke-linejoin="round" d=" M 145.375, 130.525 145.137, 128.778 144.256, 125.900 143.989, 125.368 142.937, 123.277 141.298, 121.105 141.221, 121.003 139.162, 119.158 136.829, 117.812 136.412, 117.681 134.300, 117.019 133.345, 116.945 131.663, 116.815 129.012, 117.218 127.069, 117.976 126.445, 118.219 125.255, 119.004 124.060, 119.791 121.949, 121.881 120.706, 123.676 120.195, 124.414 119.780, 125.316 119.728, 125.430 118.870, 127.297 118.027, 130.419 117.921, 131.467 117.701, 133.661 117.712, 133.835 117.905, 136.895 118.488, 139.386 118.631, 139.997 118.665, 140.078 119.428, 141.865 119.847, 142.846 121.503, 145.336 123.348, 147.189 123.532, 147.374 125.121, 148.410 125.854, 148.889 128.377, 149.831 131.008, 150.175 131.209, 150.155 133.648, 149.915 134.486, 149.638 136.205, 149.071 138.588, 147.679 139.681, 146.713 140.719, 145.795 142.525, 143.489 142.969, 142.666 143.950, 140.843 144.650, 138.813 " />
            <path fill="none" stroke-width="3.0" stroke-linecap="butt" stroke-opacity="1.0" stroke="rgb(0, 0, 0)" stroke-linejoin="round" d=" M 114.227, 141.407 114.527, 142.102 116.159, 144.533 117.009, 145.380 " />
            <path fill="none" stroke-width="3.0" stroke-linecap="butt" stroke-opacity="1.0" stroke="rgb(0, 0, 0)" stroke-linejoin="round" d=" M 118.574, 119.708 116.585, 121.658 115.267, 123.545 " />
            <path fill="none" stroke-width="3.0" stroke-linecap="butt" stroke-opacity="1.0" stroke="rgb(0, 0, 0)" stroke-linejoin="round" d=" M 122.257, 148.678 122.932, 148.929 125.087, 149.286 128.377, 149.831 " />
            <path fill="none" stroke-width="3.0" stroke-linecap="butt" stroke-opacity="1.0" stroke="rgb(0, 0, 0)" stroke-linejoin="round" d=" M 112.916, 129.293 112.728, 129.982 112.409, 133.143 112.556, 135.418 " />
            <path fill="none" stroke-width="3.0" stroke-linecap="butt" stroke-opacity="1.0" stroke="rgb(0, 0, 0)" stroke-linejoin="round" d=" M 127.181, 116.737 126.152, 116.719 124.145, 117.020 " />
            <path fill="none" stroke-width="3.0" stroke-linecap="butt" stroke-opacity="1.0" stroke="rgb(0, 0, 0)" stroke-linejoin="round" d=" M 133.635, 143.542 132.094, 143.320 130.622, 142.748 130.520, 142.680 129.845, 142.228 129.272, 141.844 128.097, 140.638 127.141, 139.173 126.441, 137.503 126.025, 135.690 125.909, 133.802 126.098, 131.910 126.585, 130.085 127.350, 128.397 128.364, 126.907 129.588, 125.672 130.975, 124.735 131.449, 124.543 132.215, 124.232 132.472, 124.128 134.025, 123.871 " />
            <path fill="none" stroke-width="3.0" stroke-linecap="butt" stroke-opacity="1.0" stroke="rgb(0, 0, 0)" stroke-linejoin="round" d=" M 140.030, 125.149 139.035, 124.585 139.002, 124.566 138.907, 124.512 137.868, 124.198 137.407, 124.059 135.991, 123.968 135.849, 123.959 135.647, 123.993 134.290, 124.218 132.785, 124.830 132.713, 124.878 132.054, 125.325 131.392, 125.775 130.162, 127.021 129.142, 128.522 128.373, 130.224 127.884, 132.064 127.694, 133.971 127.810, 135.875 128.228, 137.702 128.931, 139.385 129.891, 140.862 130.593, 141.584 131.071, 142.077 131.154, 142.133 132.427, 142.988 133.810, 143.527 133.906, 143.564 133.914, 143.565 135.454, 143.786 136.110, 143.729 137.015, 143.650 137.717, 143.425 138.026, 143.326 138.502, 143.173 " />
            <path fill="none" stroke-width="3.0" stroke-linecap="butt" stroke-opacity="1.0" stroke="rgb(0, 0, 0)" stroke-linejoin="round" d=" M 133.212, 141.358 133.092, 141.311 132.375, 140.826 131.988, 140.564 131.687, 140.252 131.028, 139.571 130.247, 138.366 129.676, 136.993 129.336, 135.504 129.242, 133.953 129.397, 132.400 129.795, 130.901 130.420, 129.513 131.249, 128.288 132.250, 127.270 132.897, 126.828 133.385, 126.496 133.681, 126.374 134.612, 125.993 134.648, 125.986 " />
            <path fill="none" stroke-width="3.0" stroke-linecap="butt" stroke-opacity="1.0" stroke="rgb(0, 0, 0)" stroke-linejoin="round" d=" M 133.635, 143.542 133.895, 143.577 135.454, 143.786 " />
            <path fill="none" stroke-width="3.0" stroke-linecap="butt" stroke-opacity="1.0" stroke="rgb(0, 0, 0)" stroke-linejoin="round" d=" M 135.849, 123.959 134.025, 123.871 " />
            <path fill="none" stroke-width="3.0" stroke-linecap="butt" stroke-opacity="1.0" stroke="rgb(0, 0, 0)" stroke-linejoin="round" d=" M 130.519, 132.392 130.345, 134.142 130.450, 135.888 130.598, 136.537 130.831, 137.566 131.473, 139.110 131.977, 139.890 132.350, 140.466 132.521, 140.643 133.212, 141.358 133.428, 141.582 134.668, 142.420 135.553, 142.767 136.020, 142.950 136.432, 143.010 136.654, 143.043 137.437, 143.156 137.802, 143.204 137.937, 143.222 137.974, 143.218 138.502, 143.173 139.367, 143.098 140.758, 142.651 141.660, 142.131 142.061, 141.899 143.229, 140.872 144.223, 139.606 144.650, 138.813 145.009, 138.148 145.292, 137.327 145.561, 136.548 145.859, 134.863 145.894, 133.151 145.665, 131.472 145.521, 131.002 145.375, 130.525 145.179, 129.883 144.452, 128.441 143.508, 127.197 142.380, 126.195 141.950, 125.951 141.107, 125.473 140.030, 125.149 139.731, 125.058 138.304, 124.969 138.259, 124.966 138.013, 124.954 137.802, 124.943 136.375, 125.183 134.999, 125.747 134.648, 125.986 133.785, 126.576 133.725, 126.617 133.111, 127.242 132.600, 127.762 131.669, 129.141 131.157, 130.279 130.966, 130.704 130.519, 132.392 " />
            <path fill="none" stroke-width="3.0" stroke-linecap="butt" stroke-opacity="1.0" stroke="rgb(0, 0, 0)" stroke-linejoin="round" d=" M 137.937, 143.222 136.519, 143.015 136.472, 142.997 135.731, 142.706 135.164, 142.484 133.924, 141.645 132.844, 140.526 132.742, 140.368 132.187, 139.509 131.966, 139.168 131.323, 137.619 130.942, 135.939 130.836, 134.188 131.011, 132.434 131.459, 130.743 132.162, 129.177 133.095, 127.794 133.269, 127.618 133.959, 126.914 134.221, 126.647 135.497, 125.775 136.875, 125.210 138.100, 125.003 138.304, 124.969 " />
            <path fill="none" stroke-width="3.0" stroke-linecap="butt" stroke-opacity="1.0" stroke="rgb(0, 0, 0)" stroke-linejoin="round" d=" M 107.117, 126.494 106.708, 126.892 105.984, 127.917 105.439, 129.079 105.094, 130.335 104.962, 131.637 105.047, 132.937 105.347, 134.188 105.851, 135.341 106.537, 136.356 107.382, 137.195 107.436, 137.230 " />
            <path fill="none" stroke-width="3.0" stroke-linecap="butt" stroke-opacity="1.0" stroke="rgb(0, 0, 0)" stroke-linejoin="round" d=" M 114.418, 134.759 112.556, 135.418 107.436, 137.230 98.009, 140.566 88.581, 143.902 79.154, 147.237 74.017, 149.055 " />
            <path fill="none" stroke-width="3.0" stroke-linecap="butt" stroke-opacity="1.0" stroke="rgb(0, 0, 0)" stroke-linejoin="round" d=" M 76.779, 111.854 85.785, 116.200 94.791, 120.546 103.797, 124.892 107.117, 126.494 112.916, 129.293 114.666, 130.137 " />
            <path fill="none" stroke-width="3.0" stroke-linecap="butt" stroke-opacity="1.0" stroke="rgb(0, 0, 0)" stroke-linejoin="round" d=" M 75.068, 153.123 84.649, 150.257 94.229, 147.390 103.809, 144.523 113.390, 141.657 114.227, 141.407 116.701, 140.666 " />
            <path fill="none" stroke-width="3.0" stroke-linecap="butt" stroke-opacity="1.0" stroke="rgb(0, 0, 0)" stroke-linejoin="round" d=" M 117.009, 145.380 111.499, 153.724 105.988, 162.069 100.477, 170.413 94.967, 178.758 91.138, 184.555 " />
            <path fill="none" stroke-width="3.0" stroke-linecap="butt" stroke-opacity="1.0" stroke="rgb(0, 0, 0)" stroke-linejoin="round" d=" M 117.483, 124.482 115.267, 123.545 106.055, 119.653 96.844, 115.761 87.632, 111.868 78.421, 107.976 77.952, 107.778 " />
            <path fill="none" stroke-width="3.0" stroke-linecap="butt" stroke-opacity="1.0" stroke="rgb(0, 0, 0)" stroke-linejoin="round" d=" M 98.282, 78.848 102.730, 87.804 107.178, 96.760 111.625, 105.717 116.073, 114.673 118.574, 119.708 119.932, 122.444 " />
            <path fill="none" stroke-width="3.0" stroke-linecap="butt" stroke-opacity="1.0" stroke="rgb(0, 0, 0)" stroke-linejoin="round" d=" M 94.090, 187.148 99.998, 179.079 105.906, 171.011 111.813, 162.942 117.721, 154.874 122.257, 148.678 123.348, 147.189 " />
            <path fill="none" stroke-width="3.0" stroke-linecap="butt" stroke-opacity="1.0" stroke="rgb(0, 0, 0)" stroke-linejoin="round" d=" M 133.345, 116.945 133.722, 106.952 134.099, 96.959 134.477, 86.966 134.854, 76.973 135.071, 71.210 135.120, 69.917 " />
            <path fill="none" stroke-width="3.0" stroke-linecap="butt" stroke-opacity="1.0" stroke="rgb(0, 0, 0)" stroke-linejoin="round" d=" M 141.298, 121.105 146.752, 112.723 152.205, 104.341 157.659, 95.959 160.822, 91.097 163.321, 87.256 163.544, 86.913 " />
            <path fill="none" stroke-width="3.0" stroke-linecap="butt" stroke-opacity="1.0" stroke="rgb(0, 0, 0)" stroke-linejoin="round" d=" M 142.969, 142.666 152.227, 146.447 161.484, 150.227 169.282, 153.412 172.798, 154.848 174.078, 155.371 " />
            <path fill="none" stroke-width="3.0" stroke-linecap="butt" stroke-opacity="1.0" stroke="rgb(0, 0, 0)" stroke-linejoin="round" d=" M 145.521, 131.002 154.908, 127.553 164.294, 124.103 172.227, 121.188 175.856, 119.855 177.666, 119.189 " />
            <path fill="none" stroke-width="3.0" stroke-linecap="butt" stroke-opacity="1.0" stroke="rgb(0, 0, 0)" stroke-linejoin="round" d=" M 187.376, 147.471 196.070, 149.361 " />
        </g>
    </g>
</svg>
