<?xml version='1.0' encoding='ascii'?>
<svg xmlns="http://www.w3.org/2000/svg" version="1.1" width="250" height="250">
    <g id="View Layer_LineSet" xmlns:inkscape="http://www.inkscape.org/namespaces/inkscape" inkscape:groupmode="lineset" inkscape:label="View Layer_LineSet">
        <g xmlns:inkscape="http://www.inkscape.org/namespaces/inkscape" inkscape:groupmode="layer" id="strokes" inkscape:label="strokes">
            <path fill="none" stroke-width="3.0" stroke-linecap="butt" stroke-opacity="1.0" stroke="rgb(0, 0, 0)" stroke-linejoin="round" d=" M 126.895, 66.579 126.849, 69.127 126.846, 69.281 126.666, 79.279 126.487, 89.277 126.307, 99.276 126.127, 109.274 125.992, 116.797 " />
            <path fill="none" stroke-width="3.0" stroke-linecap="butt" stroke-opacity="1.0" stroke="rgb(0, 0, 0)" stroke-linejoin="round" d=" M 158.062, 80.582 157.314, 81.777 155.614, 84.491 150.307, 92.967 144.999, 101.442 139.692, 109.917 135.096, 117.257 " />
            <path fill="none" stroke-width="3.0" stroke-linecap="butt" stroke-opacity="1.0" stroke="rgb(0, 0, 0)" stroke-linejoin="round" d=" M 175.509, 111.192 174.398, 111.631 170.791, 113.055 161.490, 116.728 152.189, 120.402 143.258, 123.929 " />
            <path fill="none" stroke-width="3.0" stroke-linecap="butt" stroke-opacity="1.0" stroke="rgb(0, 0, 0)" stroke-linejoin="round" d=" M 176.715, 147.477 174.972, 146.817 171.443, 145.482 162.091, 141.942 152.738, 138.402 145.732, 135.750 " />
            <path fill="none" stroke-width="3.0" stroke-linecap="butt" stroke-opacity="1.0" stroke="rgb(0, 0, 0)" stroke-linejoin="round" d=" M 161.151, 180.193 160.491, 179.082 160.310, 178.777 158.066, 174.997 152.962, 166.397 147.857, 157.798 142.753, 149.199 140.693, 145.728 " />
            <path fill="none" stroke-width="3.0" stroke-linecap="butt" stroke-opacity="1.0" stroke="rgb(0, 0, 0)" stroke-linejoin="round" d=" M 131.511, 197.972 131.547, 196.034 131.586, 193.967 131.774, 183.969 131.962, 173.970 132.150, 163.972 132.338, 153.974 132.411, 150.090 " />
            <path fill="none" stroke-width="3.0" stroke-linecap="butt" stroke-opacity="1.0" stroke="rgb(0, 0, 0)" stroke-linejoin="round" d=" M 97.994, 190.430 98.180, 190.129 103.438, 181.623 108.696, 173.117 113.953, 164.610 119.211, 156.104 123.588, 149.023 124.281, 147.902 " />
            <path fill="none" stroke-width="3.0" stroke-linecap="butt" stroke-opacity="1.0" stroke="rgb(0, 0, 0)" stroke-linejoin="round" d=" M 132.171, 116.836 131.831, 106.842 131.491, 96.847 131.151, 86.853 130.812, 76.859 130.576, 69.924 130.553, 69.238 130.456, 66.405 " />
            <path fill="none" stroke-width="3.0" stroke-linecap="butt" stroke-opacity="1.0" stroke="rgb(0, 0, 0)" stroke-linejoin="round" d=" M 135.832, 149.157 141.477, 157.412 147.122, 165.666 152.768, 173.920 155.495, 177.909 157.627, 181.026 157.942, 181.487 158.356, 182.092 " />
            <path fill="none" stroke-width="3.0" stroke-linecap="butt" stroke-opacity="1.0" stroke="rgb(0, 0, 0)" stroke-linejoin="round" d=" M 126.261, 149.514 126.609, 159.508 126.957, 169.502 127.305, 179.496 127.652, 189.490 127.845, 195.020 127.880, 196.042 127.948, 197.979 " />
            <path fill="none" stroke-width="3.0" stroke-linecap="butt" stroke-opacity="1.0" stroke="rgb(0, 0, 0)" stroke-linejoin="round" d=" M 85.310, 191.507 91.307, 195.694 100.441, 199.764 101.236, 200.118 106.254, 202.151 109.656, 203.529 112.535, 204.695 116.102, 205.244 119.795, 205.812 124.189, 206.488 134.159, 205.724 135.739, 205.603 141.358, 203.888 144.675, 202.876 146.785, 202.232 149.933, 200.506 153.167, 198.733 156.992, 196.636 164.697, 190.262 166.087, 189.111 172.566, 181.494 173.005, 180.978 173.859, 179.974 175.121, 177.882 175.881, 176.621 177.871, 173.320 180.146, 169.548 183.948, 160.299 184.828, 158.156 187.244, 148.452 187.824, 146.119 188.246, 141.969 188.253, 141.899 188.625, 138.243 188.651, 137.986 189.081, 133.753 188.671, 123.761 188.573, 121.371 186.724, 111.543 186.300, 109.289 184.853, 105.153 183.583, 101.525 183.230, 100.515 182.290, 97.830 181.876, 97.065 177.116, 88.271 176.601, 87.319 170.413, 79.464 169.330, 78.089 166.069, 75.240 163.309, 72.828 160.618, 70.477 158.865, 69.479 155.877, 67.778 150.664, 64.810 141.118, 61.831 139.728, 61.397 135.357, 61.060 131.684, 60.777 128.140, 60.504 125.065, 60.979 121.500, 61.529 116.303, 62.331 106.578, 64.663 105.743, 64.863 99.356, 67.399 " />
            <path fill="none" stroke-width="3.0" stroke-linecap="butt" stroke-opacity="1.0" stroke="rgb(0, 0, 0)" stroke-linejoin="round" d=" M 84.448, 186.108 87.325, 189.255 85.310, 191.507 78.641, 198.958 76.835, 200.976 68.504, 196.693 65.627, 193.687 72.399, 186.329 75.732, 182.708 75.843, 182.587 " />
            <path fill="none" stroke-width="3.0" stroke-linecap="butt" stroke-opacity="1.0" stroke="rgb(0, 0, 0)" stroke-linejoin="round" d=" M 76.835, 200.976 73.853, 197.838 " />
            <path fill="none" stroke-width="3.0" stroke-linecap="butt" stroke-opacity="1.0" stroke="rgb(0, 0, 0)" stroke-linejoin="round" d=" M 65.627, 193.687 73.853, 197.838 80.556, 190.417 81.791, 189.050 83.179, 187.514 84.448, 186.108 75.843, 182.587 " />
            <path fill="none" stroke-width="3.0" stroke-linecap="butt" stroke-opacity="1.0" stroke="rgb(0, 0, 0)" stroke-linejoin="round" d=" M 100.583, 69.584 99.356, 67.399 94.456, 58.681 93.011, 56.109 84.014, 58.832 80.589, 61.048 85.594, 69.705 87.939, 73.762 88.012, 73.888 " />
            <path fill="none" stroke-width="3.0" stroke-linecap="butt" stroke-opacity="1.0" stroke="rgb(0, 0, 0)" stroke-linejoin="round" d=" M 173.005, 180.978 182.696, 183.445 183.039, 183.532 184.973, 180.257 177.871, 173.320 " />
            <path fill="none" stroke-width="3.0" stroke-linecap="butt" stroke-opacity="1.0" stroke="rgb(0, 0, 0)" stroke-linejoin="round" d=" M 116.303, 62.331 107.018, 66.045 104.681, 66.980 96.424, 72.621 93.788, 74.422 86.870, 81.642 84.155, 84.475 78.774, 92.904 76.293, 96.791 72.567, 106.071 70.645, 110.857 70.522, 111.459 69.733, 115.319 67.729, 125.117 67.544, 126.022 67.304, 136.019 67.171, 141.546 68.718, 151.426 69.538, 156.662 69.713, 157.157 70.971, 160.709 74.309, 170.136 74.487, 170.638 79.581, 179.243 81.711, 182.841 88.456, 190.224 90.790, 192.778 98.972, 198.528 101.236, 200.118 " />
            <path fill="none" stroke-width="3.0" stroke-linecap="butt" stroke-opacity="1.0" stroke="rgb(0, 0, 0)" stroke-linejoin="round" d=" M 100.583, 69.584 97.132, 71.940 " />
            <path fill="none" stroke-width="3.0" stroke-linecap="butt" stroke-opacity="1.0" stroke="rgb(0, 0, 0)" stroke-linejoin="round" d=" M 88.012, 73.888 97.132, 71.940 96.330, 70.527 95.438, 68.954 90.506, 60.256 89.465, 58.421 " />
            <path fill="none" stroke-width="3.0" stroke-linecap="butt" stroke-opacity="1.0" stroke="rgb(0, 0, 0)" stroke-linejoin="round" d=" M 80.589, 61.048 89.465, 58.421 93.011, 56.109 " />
            <path fill="none" stroke-width="3.0" stroke-linecap="butt" stroke-opacity="1.0" stroke="rgb(0, 0, 0)" stroke-linejoin="round" d=" M 60.576, 153.260 60.744, 154.315 64.127, 163.726 65.509, 167.570 70.653, 176.146 72.467, 179.172 75.732, 182.708 " />
            <path fill="none" stroke-width="3.0" stroke-linecap="butt" stroke-opacity="1.0" stroke="rgb(0, 0, 0)" stroke-linejoin="round" d=" M 63.690, 106.249 61.773, 110.965 59.749, 120.758 58.807, 125.313 58.571, 135.310 58.460, 140.002 59.264, 145.042 " />
            <path fill="none" stroke-width="3.0" stroke-linecap="butt" stroke-opacity="1.0" stroke="rgb(0, 0, 0)" stroke-linejoin="round" d=" M 87.939, 73.762 84.007, 76.419 77.044, 83.595 74.738, 85.972 69.308, 94.369 67.187, 97.648 66.986, 98.142 " />
            <path fill="none" stroke-width="3.0" stroke-linecap="butt" stroke-opacity="1.0" stroke="rgb(0, 0, 0)" stroke-linejoin="round" d=" M 117.797, 68.080 126.895, 66.579 128.672, 66.286 130.456, 66.405 139.352, 66.997 148.927, 69.882 149.466, 70.044 153.529, 72.310 156.832, 74.153 158.700, 75.194 166.278, 81.718 166.804, 82.171 173.039, 89.990 173.586, 90.675 177.936, 98.629 178.903, 100.397 179.447, 101.934 182.659, 111.022 184.527, 120.846 184.792, 122.243 185.210, 132.235 185.273, 133.754 184.482, 141.508 184.476, 141.573 184.101, 145.251 181.671, 154.951 181.300, 156.434 177.473, 165.673 176.923, 167.001 171.814, 175.400 171.054, 176.649 169.499, 178.458 163.811, 185.075 156.064, 191.398 155.353, 191.979 146.546, 196.715 145.887, 197.070 143.359, 197.815 140.000, 198.806 135.672, 200.082 125.694, 200.745 125.026, 200.789 115.159, 199.164 114.321, 199.026 105.090, 195.179 104.138, 194.782 103.976, 194.714 97.994, 190.430 94.845, 188.175 94.444, 187.888 87.753, 180.456 86.184, 178.712 81.138, 170.079 79.630, 167.498 76.505, 158.566 75.151, 154.695 75.140, 154.623 73.613, 144.740 73.015, 140.875 73.259, 130.878 73.361, 126.691 75.261, 117.333 76.104, 113.182 76.175, 112.829 79.872, 103.538 81.299, 99.951 86.639, 91.496 88.442, 88.642 94.383, 82.359 97.196, 79.384 97.212, 79.367 105.422, 73.659 107.156, 72.454 115.844, 68.883 117.797, 68.080 " />
            <path fill="none" stroke-width="3.0" stroke-linecap="butt" stroke-opacity="1.0" stroke="rgb(0, 0, 0)" stroke-linejoin="round" d=" M 130.576, 69.924 137.941, 72.067 146.735, 76.829 146.945, 76.943 154.611, 83.364 154.863, 83.574 155.614, 84.491 " />
            <path fill="none" stroke-width="3.0" stroke-linecap="butt" stroke-opacity="1.0" stroke="rgb(0, 0, 0)" stroke-linejoin="round" d=" M 188.246, 141.969 197.053, 142.875 197.441, 139.033 188.651, 137.986 " />
            <path fill="none" stroke-width="3.0" stroke-linecap="butt" stroke-opacity="1.0" stroke="rgb(0, 0, 0)" stroke-linejoin="round" d=" M 158.121, 87.550 161.501, 91.676 166.401, 100.393 166.716, 100.953 170.134, 110.351 170.408, 111.104 170.791, 113.055 " />
            <path fill="none" stroke-width="3.0" stroke-linecap="butt" stroke-opacity="1.0" stroke="rgb(0, 0, 0)" stroke-linejoin="round" d=" M 171.524, 116.792 172.513, 121.831 172.955, 131.822 172.999, 132.838 171.973, 142.785 171.865, 143.829 171.443, 145.482 " />
            <path fill="none" stroke-width="3.0" stroke-linecap="butt" stroke-opacity="1.0" stroke="rgb(0, 0, 0)" stroke-linejoin="round" d=" M 170.519, 149.100 169.136, 154.513 165.235, 163.721 164.864, 164.596 159.573, 173.082 159.134, 173.787 158.066, 174.997 " />
            <path fill="none" stroke-width="3.0" stroke-linecap="butt" stroke-opacity="1.0" stroke="rgb(0, 0, 0)" stroke-linejoin="round" d=" M 155.495, 177.909 152.066, 181.793 144.229, 188.004 143.820, 188.328 134.946, 192.939 134.602, 193.118 131.586, 193.967 " />
            <path fill="none" stroke-width="3.0" stroke-linecap="butt" stroke-opacity="1.0" stroke="rgb(0, 0, 0)" stroke-linejoin="round" d=" M 127.845, 195.020 124.670, 195.914 114.686, 196.488 114.334, 196.508 104.475, 194.839 104.138, 194.782 " />
            <path fill="none" stroke-width="3.0" stroke-linecap="butt" stroke-opacity="1.0" stroke="rgb(0, 0, 0)" stroke-linejoin="round" d=" M 115.844, 68.883 117.731, 68.570 126.849, 69.127 " />
            <path fill="none" stroke-width="3.0" stroke-linecap="butt" stroke-opacity="1.0" stroke="rgb(0, 0, 0)" stroke-linejoin="round" d=" M 59.575, 144.973 59.264, 145.042 49.500, 147.199 45.090, 148.173 45.856, 152.826 53.344, 154.956 60.576, 153.260 66.056, 151.974 68.361, 151.433 67.611, 146.647 " />
            <path fill="none" stroke-width="3.0" stroke-linecap="butt" stroke-opacity="1.0" stroke="rgb(0, 0, 0)" stroke-linejoin="round" d=" M 52.550, 150.059 59.803, 148.416 60.113, 148.346 67.611, 146.647 59.575, 144.973 " />
            <path fill="none" stroke-width="3.0" stroke-linecap="butt" stroke-opacity="1.0" stroke="rgb(0, 0, 0)" stroke-linejoin="round" d=" M 73.993, 101.592 72.014, 100.618 66.986, 98.142 60.225, 94.812 52.431, 95.722 50.638, 100.035 59.668, 104.334 63.690, 106.249 63.971, 106.383 72.204, 106.045 " />
            <path fill="none" stroke-width="3.0" stroke-linecap="butt" stroke-opacity="1.0" stroke="rgb(0, 0, 0)" stroke-linejoin="round" d=" M 58.357, 99.353 65.158, 102.640 65.437, 102.775 72.204, 106.045 73.993, 101.592 " />
            <path fill="none" stroke-width="3.0" stroke-linecap="butt" stroke-opacity="1.0" stroke="rgb(0, 0, 0)" stroke-linejoin="round" d=" M 166.069, 75.240 170.581, 66.315 171.443, 64.611 168.739, 62.162 158.920, 64.053 157.683, 64.292 155.877, 67.778 " />
            <path fill="none" stroke-width="3.0" stroke-linecap="butt" stroke-opacity="1.0" stroke="rgb(0, 0, 0)" stroke-linejoin="round" d=" M 184.853, 105.153 193.118, 100.075 191.893, 96.492 181.876, 97.065 " />
            <path fill="none" stroke-width="3.0" stroke-linecap="butt" stroke-opacity="1.0" stroke="rgb(0, 0, 0)" stroke-linejoin="round" d=" M 141.358, 203.888 142.519, 208.237 151.797, 211.969 153.062, 212.478 156.254, 210.646 153.746, 200.966 153.167, 198.733 " />
            <path fill="none" stroke-width="3.0" stroke-linecap="butt" stroke-opacity="1.0" stroke="rgb(0, 0, 0)" stroke-linejoin="round" d=" M 106.254, 202.151 103.984, 211.890 103.305, 214.805 112.194, 219.385 112.783, 219.688 116.516, 220.162 118.744, 210.413 119.795, 205.812 " />
            <path fill="none" stroke-width="3.0" stroke-linecap="butt" stroke-opacity="1.0" stroke="rgb(0, 0, 0)" stroke-linejoin="round" d=" M 45.090, 148.173 52.550, 150.059 53.344, 154.956 " />
            <path fill="none" stroke-width="3.0" stroke-linecap="butt" stroke-opacity="1.0" stroke="rgb(0, 0, 0)" stroke-linejoin="round" d=" M 60.225, 94.812 58.357, 99.353 50.638, 100.035 " />
            <path fill="none" stroke-width="3.0" stroke-linecap="butt" stroke-opacity="1.0" stroke="rgb(0, 0, 0)" stroke-linejoin="round" d=" M 135.357, 61.060 135.238, 51.061 135.187, 46.778 131.507, 46.397 121.913, 49.219 121.335, 49.389 121.471, 59.388 121.500, 61.529 " />
            <path fill="none" stroke-width="3.0" stroke-linecap="butt" stroke-opacity="1.0" stroke="rgb(0, 0, 0)" stroke-linejoin="round" d=" M 131.507, 46.397 131.630, 56.396 131.684, 60.777 " />
            <path fill="none" stroke-width="3.0" stroke-linecap="butt" stroke-opacity="1.0" stroke="rgb(0, 0, 0)" stroke-linejoin="round" d=" M 168.739, 62.162 164.202, 71.073 163.309, 72.828 " />
            <path fill="none" stroke-width="3.0" stroke-linecap="butt" stroke-opacity="1.0" stroke="rgb(0, 0, 0)" stroke-linejoin="round" d=" M 183.039, 183.532 175.881, 176.621 " />
            <path fill="none" stroke-width="3.0" stroke-linecap="butt" stroke-opacity="1.0" stroke="rgb(0, 0, 0)" stroke-linejoin="round" d=" M 191.893, 96.492 183.583, 101.525 " />
            <path fill="none" stroke-width="3.0" stroke-linecap="butt" stroke-opacity="1.0" stroke="rgb(0, 0, 0)" stroke-linejoin="round" d=" M 153.062, 212.478 150.533, 202.803 149.933, 200.506 " />
            <path fill="none" stroke-width="3.0" stroke-linecap="butt" stroke-opacity="1.0" stroke="rgb(0, 0, 0)" stroke-linejoin="round" d=" M 112.783, 219.688 115.022, 209.942 116.102, 205.244 " />
            <path fill="none" stroke-width="3.0" stroke-linecap="butt" stroke-opacity="1.0" stroke="rgb(0, 0, 0)" stroke-linejoin="round" d=" M 145.433, 130.627 145.423, 130.430 145.215, 129.442 144.795, 127.452 143.713, 124.678 143.258, 123.929 142.208, 122.202 140.357, 120.142 140.330, 120.112 138.138, 118.484 135.706, 117.382 135.096, 117.257 133.117, 116.852 132.172, 116.877 130.461, 116.922 127.836, 117.597 125.961, 118.547 125.340, 118.861 124.311, 119.682 123.067, 120.675 121.108, 122.975 120.167, 124.597 119.768, 125.285 119.540, 125.679 119.235, 126.502 118.427, 128.684 117.814, 131.876 117.793, 132.667 117.730, 135.025 117.728, 135.130 118.170, 138.320 118.515, 139.407 119.077, 141.181 119.122, 141.322 119.919, 142.835 120.544, 144.021 122.378, 146.317 124.281, 147.902 124.550, 148.126 126.244, 149.007 126.974, 149.387 129.558, 150.061 132.205, 150.132 132.411, 150.090 134.819, 149.605 135.832, 149.157 137.308, 148.507 139.586, 146.885 140.693, 145.728 141.578, 144.801 143.219, 142.331 143.729, 141.189 144.456, 139.561 144.628, 138.919 " />
            <path fill="none" stroke-width="3.0" stroke-linecap="butt" stroke-opacity="1.0" stroke="rgb(0, 0, 0)" stroke-linejoin="round" d=" M 114.999, 142.847 115.214, 143.249 117.021, 145.491 117.995, 146.296 " />
            <path fill="none" stroke-width="3.0" stroke-linecap="butt" stroke-opacity="1.0" stroke="rgb(0, 0, 0)" stroke-linejoin="round" d=" M 117.519, 120.677 115.758, 122.725 114.440, 124.976 114.418, 125.015 " />
            <path fill="none" stroke-width="3.0" stroke-linecap="butt" stroke-opacity="1.0" stroke="rgb(0, 0, 0)" stroke-linejoin="round" d=" M 133.117, 116.852 132.171, 116.836 " />
            <path fill="none" stroke-width="3.0" stroke-linecap="butt" stroke-opacity="1.0" stroke="rgb(0, 0, 0)" stroke-linejoin="round" d=" M 123.588, 149.023 124.096, 149.155 126.261, 149.514 129.558, 150.061 " />
            <path fill="none" stroke-width="3.0" stroke-linecap="butt" stroke-opacity="1.0" stroke="rgb(0, 0, 0)" stroke-linejoin="round" d=" M 112.609, 130.939 112.520, 131.402 112.436, 134.575 112.784, 137.051 " />
            <path fill="none" stroke-width="3.0" stroke-linecap="butt" stroke-opacity="1.0" stroke="rgb(0, 0, 0)" stroke-linejoin="round" d=" M 125.992, 116.797 124.968, 116.823 122.764, 117.384 " />
            <path fill="none" stroke-width="3.0" stroke-linecap="butt" stroke-opacity="1.0" stroke="rgb(0, 0, 0)" stroke-linejoin="round" d=" M 132.785, 143.464 131.275, 143.049 130.547, 142.659 129.863, 142.292 129.853, 142.283 128.603, 141.217 127.543, 139.863 126.724, 138.279 126.177, 136.522 125.924, 134.659 125.975, 132.760 126.329, 130.896 126.971, 129.138 127.877, 127.552 129.012, 126.195 130.331, 125.119 131.456, 124.532 131.786, 124.359 132.193, 124.249 133.320, 123.943 134.879, 123.882 " />
            <path fill="none" stroke-width="3.0" stroke-linecap="butt" stroke-opacity="1.0" stroke="rgb(0, 0, 0)" stroke-linejoin="round" d=" M 140.032, 125.157 139.685, 124.904 138.240, 124.265 137.920, 124.203 136.707, 123.970 135.570, 124.015 135.142, 124.031 133.600, 124.451 132.776, 124.883 132.139, 125.217 132.028, 125.307 130.813, 126.303 129.673, 127.670 128.762, 129.270 128.116, 131.042 127.760, 132.921 127.708, 134.836 127.962, 136.714 128.511, 138.484 129.335, 140.081 130.399, 141.446 130.550, 141.574 131.189, 142.121 131.665, 142.528 133.083, 143.291 133.866, 143.506 133.885, 143.512 134.600, 143.709 136.127, 143.768 136.161, 143.769 137.708, 143.473 137.962, 143.363 138.347, 143.197 " />
            <path fill="none" stroke-width="3.0" stroke-linecap="butt" stroke-opacity="1.0" stroke="rgb(0, 0, 0)" stroke-linejoin="round" d=" M 133.183, 141.319 132.472, 140.934 132.392, 140.866 131.677, 140.251 131.441, 140.048 130.575, 138.933 129.906, 137.631 129.460, 136.188 129.254, 134.658 129.296, 133.098 129.586, 131.567 130.111, 130.123 130.851, 128.818 131.779, 127.701 132.859, 126.813 132.904, 126.789 133.701, 126.369 134.049, 126.185 134.478, 126.067 " />
            <path fill="none" stroke-width="3.0" stroke-linecap="butt" stroke-opacity="1.0" stroke="rgb(0, 0, 0)" stroke-linejoin="round" d=" M 136.707, 123.970 134.879, 123.882 " />
            <path fill="none" stroke-width="3.0" stroke-linecap="butt" stroke-opacity="1.0" stroke="rgb(0, 0, 0)" stroke-linejoin="round" d=" M 132.785, 143.464 133.799, 143.601 134.600, 143.709 " />
            <path fill="none" stroke-width="3.0" stroke-linecap="butt" stroke-opacity="1.0" stroke="rgb(0, 0, 0)" stroke-linejoin="round" d=" M 130.406, 133.178 130.358, 134.935 130.579, 136.587 130.589, 136.658 131.090, 138.283 131.842, 139.749 131.936, 139.870 132.540, 140.648 132.814, 141.002 133.183, 141.319 133.971, 141.997 135.031, 142.571 135.267, 142.699 136.392, 143.011 136.597, 143.068 136.655, 143.084 137.155, 143.149 138.095, 143.187 138.347, 143.197 138.585, 143.206 139.134, 143.101 140.004, 142.935 141.360, 142.348 142.607, 141.467 143.063, 140.992 143.702, 140.327 144.606, 138.968 144.628, 138.919 145.289, 137.439 145.727, 135.794 145.732, 135.750 145.908, 134.090 145.823, 132.385 145.477, 130.740 145.433, 130.627 145.008, 129.541 144.879, 129.211 144.051, 127.852 143.020, 126.712 141.820, 125.832 140.495, 125.246 140.109, 125.172 140.032, 125.157 139.090, 124.977 138.588, 124.951 138.263, 124.964 138.067, 124.973 137.155, 125.011 135.744, 125.399 134.478, 126.067 134.408, 126.104 133.831, 126.579 133.196, 127.102 133.083, 127.237 132.153, 128.359 131.321, 129.827 131.173, 130.237 130.731, 131.454 130.406, 133.178 " />
            <path fill="none" stroke-width="3.0" stroke-linecap="butt" stroke-opacity="1.0" stroke="rgb(0, 0, 0)" stroke-linejoin="round" d=" M 137.155, 143.149 136.496, 142.966 135.765, 142.764 135.208, 142.462 134.467, 142.060 133.309, 141.063 132.748, 140.341 132.335, 139.808 132.182, 139.508 131.583, 138.339 131.081, 136.710 130.849, 134.983 130.897, 133.223 131.223, 131.495 131.814, 129.864 132.648, 128.392 133.253, 127.662 133.691, 127.133 133.974, 126.900 134.905, 126.133 136.243, 125.426 137.655, 125.037 138.128, 125.017 139.090, 124.977 " />
            <path fill="none" stroke-width="3.0" stroke-linecap="butt" stroke-opacity="1.0" stroke="rgb(0, 0, 0)" stroke-linejoin="round" d=" M 105.715, 128.427 105.715, 128.428 105.258, 129.637 105.008, 130.920 104.974, 132.227 105.157, 133.511 105.551, 134.723 106.140, 135.819 106.902, 136.758 107.807, 137.507 108.823, 138.039 109.911, 138.336 110.006, 138.348 " />
            <path fill="none" stroke-width="3.0" stroke-linecap="butt" stroke-opacity="1.0" stroke="rgb(0, 0, 0)" stroke-linejoin="round" d=" M 75.261, 117.333 84.657, 120.756 94.053, 124.179 103.449, 127.602 105.715, 128.427 112.609, 130.939 114.394, 131.589 " />
            <path fill="none" stroke-width="3.0" stroke-linecap="butt" stroke-opacity="1.0" stroke="rgb(0, 0, 0)" stroke-linejoin="round" d=" M 114.637, 136.186 112.784, 137.051 110.021, 138.341 110.006, 138.348 100.945, 142.577 91.884, 146.807 82.822, 151.037 75.140, 154.623 " />
            <path fill="none" stroke-width="3.0" stroke-linecap="butt" stroke-opacity="1.0" stroke="rgb(0, 0, 0)" stroke-linejoin="round" d=" M 117.440, 125.948 116.558, 125.676 114.418, 125.015 114.258, 124.965 104.703, 122.015 95.148, 119.064 85.593, 116.113 76.104, 113.182 " />
            <path fill="none" stroke-width="3.0" stroke-linecap="butt" stroke-opacity="1.0" stroke="rgb(0, 0, 0)" stroke-linejoin="round" d=" M 76.505, 158.566 85.763, 154.785 95.021, 151.005 104.279, 147.224 113.536, 143.444 114.999, 142.847 117.605, 141.782 " />
            <path fill="none" stroke-width="3.0" stroke-linecap="butt" stroke-opacity="1.0" stroke="rgb(0, 0, 0)" stroke-linejoin="round" d=" M 94.383, 82.359 99.552, 90.919 104.721, 99.480 109.889, 108.041 115.058, 116.601 117.519, 120.677 118.984, 123.104 " />
            <path fill="none" stroke-width="3.0" stroke-linecap="butt" stroke-opacity="1.0" stroke="rgb(0, 0, 0)" stroke-linejoin="round" d=" M 117.995, 146.296 113.157, 155.048 108.320, 163.800 103.482, 172.552 98.644, 181.304 94.845, 188.175 " />
            <path fill="none" stroke-width="3.0" stroke-linecap="butt" stroke-opacity="1.0" stroke="rgb(0, 0, 0)" stroke-linejoin="round" d=" M 124.311, 119.682 122.764, 117.384 117.182, 109.087 111.600, 100.790 106.017, 92.494 100.435, 84.197 97.196, 79.384 " />
            <path fill="none" stroke-width="3.0" stroke-linecap="butt" stroke-opacity="1.0" stroke="rgb(0, 0, 0)" stroke-linejoin="round" d=" M 114.440, 124.976 114.258, 124.965 " />
            <path fill="none" stroke-width="3.0" stroke-linecap="butt" stroke-opacity="1.0" stroke="rgb(0, 0, 0)" stroke-linejoin="round" d=" M 140.357, 120.142 145.142, 111.361 149.928, 102.581 154.714, 93.800 158.121, 87.550 160.367, 83.428 160.368, 83.427 " />
            <path fill="none" stroke-width="3.0" stroke-linecap="butt" stroke-opacity="1.0" stroke="rgb(0, 0, 0)" stroke-linejoin="round" d=" M 143.729, 141.189 153.320, 144.021 162.910, 146.853 170.519, 149.100 174.122, 150.164 175.522, 150.578 " />
            <path fill="none" stroke-width="3.0" stroke-linecap="butt" stroke-opacity="1.0" stroke="rgb(0, 0, 0)" stroke-linejoin="round" d=" M 145.215, 129.442 154.227, 125.109 163.239, 120.775 171.524, 116.792 175.069, 115.087 176.720, 114.293 " />
            <path fill="none" stroke-width="3.0" stroke-linecap="butt" stroke-opacity="1.0" stroke="rgb(0, 0, 0)" stroke-linejoin="round" d=" M 188.253, 141.899 197.053, 142.875 " />
        </g>
    </g>
</svg>
