<?xml version='1.0' encoding='ascii'?>
<svg xmlns="http://www.w3.org/2000/svg" version="1.1" width="250" height="250">
    <g id="View Layer_LineSet" xmlns:inkscape="http://www.inkscape.org/namespaces/inkscape" inkscape:groupmode="lineset" inkscape:label="View Layer_LineSet">
        <g xmlns:inkscape="http://www.inkscape.org/namespaces/inkscape" inkscape:groupmode="layer" id="strokes" inkscape:label="strokes">
            <path fill="none" stroke-width="3.0" stroke-linecap="butt" stroke-opacity="1.0" stroke="rgb(0, 0, 0)" stroke-linejoin="round" d=" M 120.600, 67.694 120.686, 68.801 120.749, 69.614 121.523, 79.584 122.296, 89.554 123.070, 99.524 123.844, 109.494 124.421, 116.934 " />
            <path fill="none" stroke-width="3.0" stroke-linecap="butt" stroke-opacity="1.0" stroke="rgb(0, 0, 0)" stroke-linejoin="round" d=" M 153.453, 76.235 152.447, 78.272 151.352, 80.489 146.925, 89.456 142.497, 98.422 138.070, 107.389 133.642, 116.355 133.350, 116.947 " />
            <path fill="none" stroke-width="3.0" stroke-linecap="butt" stroke-opacity="1.0" stroke="rgb(0, 0, 0)" stroke-linejoin="round" d=" M 173.113, 105.284 172.716, 105.501 169.217, 107.413 160.441, 112.206 151.665, 117.000 142.888, 121.793 142.142, 122.201 " />
            <path fill="none" stroke-width="3.0" stroke-linecap="butt" stroke-opacity="1.0" stroke="rgb(0, 0, 0)" stroke-linejoin="round" d=" M 177.729, 140.969 176.087, 140.586 172.416, 139.730 162.678, 137.459 152.939, 135.188 145.906, 133.548 " />
            <path fill="none" stroke-width="3.0" stroke-linecap="butt" stroke-opacity="1.0" stroke="rgb(0, 0, 0)" stroke-linejoin="round" d=" M 164.804, 174.652 164.097, 173.713 161.489, 170.252 155.471, 162.265 149.453, 154.278 143.435, 146.292 141.936, 144.303 " />
            <path fill="none" stroke-width="3.0" stroke-linecap="butt" stroke-opacity="1.0" stroke="rgb(0, 0, 0)" stroke-linejoin="round" d=" M 137.490, 196.187 137.377, 194.685 137.173, 191.989 136.420, 182.017 135.667, 172.046 134.914, 162.074 134.161, 152.102 133.984, 149.767 " />
            <path fill="none" stroke-width="3.0" stroke-linecap="butt" stroke-opacity="1.0" stroke="rgb(0, 0, 0)" stroke-linejoin="round" d=" M 103.444, 194.069 104.058, 192.811 108.443, 183.824 112.829, 174.837 117.214, 165.850 121.599, 156.863 125.285, 149.309 125.329, 149.219 " />
            <path fill="none" stroke-width="3.0" stroke-linecap="butt" stroke-opacity="1.0" stroke="rgb(0, 0, 0)" stroke-linejoin="round" d=" M 139.004, 119.120 142.899, 109.910 146.794, 100.699 150.689, 91.489 154.213, 83.157 155.686, 79.673 156.119, 78.651 " />
            <path fill="none" stroke-width="3.0" stroke-linecap="butt" stroke-opacity="1.0" stroke="rgb(0, 0, 0)" stroke-linejoin="round" d=" M 130.628, 116.780 129.347, 106.863 128.065, 96.945 126.784, 87.027 125.503, 77.110 124.483, 69.217 124.428, 68.785 124.179, 66.857 " />
            <path fill="none" stroke-width="3.0" stroke-linecap="butt" stroke-opacity="1.0" stroke="rgb(0, 0, 0)" stroke-linejoin="round" d=" M 127.831, 149.731 129.132, 159.646 130.433, 169.561 131.735, 179.476 133.036, 189.391 133.543, 193.254 133.775, 195.025 133.971, 196.518 " />
            <path fill="none" stroke-width="3.0" stroke-linecap="butt" stroke-opacity="1.0" stroke="rgb(0, 0, 0)" stroke-linejoin="round" d=" M 119.359, 147.330 115.421, 156.522 111.482, 165.713 107.543, 174.905 103.604, 184.096 100.561, 191.198 100.197, 192.048 " />
            <path fill="none" stroke-width="3.0" stroke-linecap="butt" stroke-opacity="1.0" stroke="rgb(0, 0, 0)" stroke-linejoin="round" d=" M 88.612, 193.735 94.413, 197.252 103.544, 201.330 104.449, 201.734 109.457, 203.381 112.906, 204.514 115.901, 205.499 119.469, 205.805 123.167, 206.123 127.570, 206.500 137.470, 205.090 139.012, 204.870 144.758, 202.725 148.008, 201.511 149.846, 200.825 152.911, 198.911 156.051, 196.951 159.756, 194.637 167.118, 187.870 168.487, 186.611 174.591, 178.690 175.416, 177.620 175.842, 177.067 177.289, 174.402 177.728, 173.595 179.574, 170.195 181.674, 166.327 185.075, 156.924 185.874, 154.716 187.884, 144.920 188.370, 142.551 188.626, 138.293 188.649, 137.902 188.862, 134.368 188.874, 134.165 189.116, 130.147 188.290, 120.182 188.095, 117.820 185.825, 108.081 185.314, 105.886 183.680, 101.818 182.254, 98.266 181.648, 96.758 180.809, 94.667 180.035, 93.390 174.856, 84.836 174.649, 84.494 168.059, 76.973 166.943, 75.699 163.531, 73.043 160.649, 70.799 157.848, 68.618 155.827, 67.625 152.742, 66.110 147.579, 63.575 137.861, 61.218 136.416, 60.868 132.005, 60.823 128.296, 60.785 124.712, 60.748 121.729, 61.414 118.170, 62.209 112.886, 63.388 103.159, 65.709 102.438, 65.881 95.738, 69.048 " />
            <path fill="none" stroke-width="3.0" stroke-linecap="butt" stroke-opacity="1.0" stroke="rgb(0, 0, 0)" stroke-linejoin="round" d=" M 68.285, 151.014 69.279, 155.718 67.254, 156.333 61.814, 157.983 54.479, 160.209 46.950, 157.817 45.938, 153.248 55.546, 150.477 59.928, 149.213 60.226, 149.127 " />
            <path fill="none" stroke-width="3.0" stroke-linecap="butt" stroke-opacity="1.0" stroke="rgb(0, 0, 0)" stroke-linejoin="round" d=" M 54.479, 160.209 53.429, 155.401 " />
            <path fill="none" stroke-width="3.0" stroke-linecap="butt" stroke-opacity="1.0" stroke="rgb(0, 0, 0)" stroke-linejoin="round" d=" M 45.938, 153.248 53.429, 155.401 60.791, 153.227 61.088, 153.139 68.285, 151.014 60.226, 149.127 " />
            <path fill="none" stroke-width="3.0" stroke-linecap="butt" stroke-opacity="1.0" stroke="rgb(0, 0, 0)" stroke-linejoin="round" d=" M 144.758, 202.725 145.917, 206.341 155.238, 209.964 156.541, 210.471 159.634, 208.459 156.661, 198.911 156.051, 196.951 " />
            <path fill="none" stroke-width="3.0" stroke-linecap="butt" stroke-opacity="1.0" stroke="rgb(0, 0, 0)" stroke-linejoin="round" d=" M 112.886, 63.388 103.860, 67.693 101.422, 68.856 93.526, 74.993 90.840, 77.082 84.351, 84.691 81.670, 87.836 76.760, 96.547 74.409, 100.719 71.177, 110.182 69.472, 115.175 68.811, 119.546 68.222, 123.441 67.151, 130.523 67.427, 140.520 67.579, 146.008 69.647, 155.792 70.719, 160.865 72.329, 164.722 73.542, 167.626 76.365, 174.386 81.954, 182.679 84.175, 185.976 91.365, 192.926 93.703, 195.186 102.242, 200.390 104.449, 201.734 " />
            <path fill="none" stroke-width="3.0" stroke-linecap="butt" stroke-opacity="1.0" stroke="rgb(0, 0, 0)" stroke-linejoin="round" d=" M 61.814, 157.983 61.882, 158.299 65.783, 167.506 67.318, 171.130 72.954, 179.391 74.842, 182.158 78.284, 185.453 " />
            <path fill="none" stroke-width="3.0" stroke-linecap="butt" stroke-opacity="1.0" stroke="rgb(0, 0, 0)" stroke-linejoin="round" d=" M 132.005, 60.823 131.427, 50.839 131.168, 46.373 127.442, 46.237 117.864, 49.112 117.382, 49.257 117.989, 59.238 118.170, 62.209 " />
            <path fill="none" stroke-width="3.0" stroke-linecap="butt" stroke-opacity="1.0" stroke="rgb(0, 0, 0)" stroke-linejoin="round" d=" M 62.314, 110.237 60.650, 115.051 59.141, 124.937 58.433, 129.572 58.721, 139.568 58.856, 144.225 59.928, 149.213 " />
            <path fill="none" stroke-width="3.0" stroke-linecap="butt" stroke-opacity="1.0" stroke="rgb(0, 0, 0)" stroke-linejoin="round" d=" M 84.970, 76.029 81.169, 78.949 74.632, 86.517 72.350, 89.160 67.392, 97.844 65.380, 101.368 64.961, 102.581 " />
            <path fill="none" stroke-width="3.0" stroke-linecap="butt" stroke-opacity="1.0" stroke="rgb(0, 0, 0)" stroke-linejoin="round" d=" M 125.518, 66.543 135.518, 66.541 136.296, 66.541 146.038, 68.799 146.609, 68.932 150.581, 70.838 153.581, 72.277 156.127, 73.499 164.065, 79.580 164.581, 79.976 171.219, 87.455 171.763, 88.069 176.205, 95.325 177.518, 97.469 178.036, 98.747 181.735, 107.864 184.026, 117.598 184.343, 118.944 185.179, 128.909 185.305, 130.402 185.094, 133.906 185.082, 134.094 184.610, 141.934 182.589, 151.727 182.278, 153.239 178.854, 162.635 178.351, 164.016 173.727, 172.460 172.905, 173.962 171.752, 175.443 166.046, 182.774 158.642, 189.495 157.921, 190.150 149.399, 195.381 148.723, 195.795 146.866, 196.470 143.180, 197.808 138.696, 199.436 128.782, 200.747 128.139, 200.832 118.185, 199.873 117.409, 199.798 107.942, 196.578 106.914, 196.228 104.308, 194.606 103.444, 194.069 100.197, 192.048 97.099, 190.120 89.964, 183.114 88.423, 181.601 82.886, 173.274 81.333, 170.938 79.038, 165.376 77.447, 161.519 76.219, 158.542 74.176, 148.753 73.383, 144.952 73.114, 134.956 73.003, 130.804 73.921, 124.693 74.550, 120.510 75.111, 116.778 78.318, 107.306 79.590, 103.550 84.462, 94.818 86.183, 91.732 89.713, 87.540 92.367, 84.390 94.526, 81.827 102.373, 75.629 104.177, 74.204 113.163, 69.816 114.665, 69.083 115.779, 68.822 120.600, 67.694 124.179, 66.857 125.518, 66.543 " />
            <path fill="none" stroke-width="3.0" stroke-linecap="butt" stroke-opacity="1.0" stroke="rgb(0, 0, 0)" stroke-linejoin="round" d=" M 154.213, 83.157 159.716, 89.191 165.040, 97.655 165.356, 98.158 169.217, 107.413 " />
            <path fill="none" stroke-width="3.0" stroke-linecap="butt" stroke-opacity="1.0" stroke="rgb(0, 0, 0)" stroke-linejoin="round" d=" M 175.416, 177.620 185.144, 179.953 186.936, 176.586 179.574, 170.195 " />
            <path fill="none" stroke-width="3.0" stroke-linecap="butt" stroke-opacity="1.0" stroke="rgb(0, 0, 0)" stroke-linejoin="round" d=" M 170.235, 111.125 172.068, 118.677 172.939, 128.639 173.026, 129.633 172.423, 139.615 172.416, 139.730 " />
            <path fill="none" stroke-width="3.0" stroke-linecap="butt" stroke-opacity="1.0" stroke="rgb(0, 0, 0)" stroke-linejoin="round" d=" M 171.784, 143.400 170.089, 151.462 166.599, 160.833 166.258, 161.749 161.489, 170.252 " />
            <path fill="none" stroke-width="3.0" stroke-linecap="butt" stroke-opacity="1.0" stroke="rgb(0, 0, 0)" stroke-linejoin="round" d=" M 159.218, 173.385 154.246, 179.609 146.748, 186.225 146.323, 186.599 137.726, 191.707 137.363, 191.923 137.173, 191.989 " />
            <path fill="none" stroke-width="3.0" stroke-linecap="butt" stroke-opacity="1.0" stroke="rgb(0, 0, 0)" stroke-linejoin="round" d=" M 133.543, 193.254 127.608, 195.321 117.682, 196.532 117.354, 196.572 107.406, 195.555 106.950, 195.509 104.308, 194.606 " />
            <path fill="none" stroke-width="3.0" stroke-linecap="butt" stroke-opacity="1.0" stroke="rgb(0, 0, 0)" stroke-linejoin="round" d=" M 124.428, 68.785 125.131, 68.782 134.892, 70.958 135.160, 71.018 144.226, 75.238 144.434, 75.335 151.352, 80.489 " />
            <path fill="none" stroke-width="3.0" stroke-linecap="butt" stroke-opacity="1.0" stroke="rgb(0, 0, 0)" stroke-linejoin="round" d=" M 78.373, 185.345 78.284, 185.453 71.912, 193.161 68.774, 196.958 71.789, 199.736 80.236, 204.147 86.504, 196.355 88.612, 193.735 90.084, 191.905 87.065, 188.988 " />
            <path fill="none" stroke-width="3.0" stroke-linecap="butt" stroke-opacity="1.0" stroke="rgb(0, 0, 0)" stroke-linejoin="round" d=" M 77.114, 201.252 83.415, 193.487 84.994, 191.540 86.087, 190.194 87.065, 188.988 78.373, 185.345 " />
            <path fill="none" stroke-width="3.0" stroke-linecap="butt" stroke-opacity="1.0" stroke="rgb(0, 0, 0)" stroke-linejoin="round" d=" M 72.352, 105.647 70.129, 104.725 64.961, 102.581 58.197, 99.775 50.485, 100.436 48.918, 104.875 58.202, 108.591 62.314, 110.237 62.610, 110.356 70.788, 110.224 " />
            <path fill="none" stroke-width="3.0" stroke-linecap="butt" stroke-opacity="1.0" stroke="rgb(0, 0, 0)" stroke-linejoin="round" d=" M 56.564, 104.449 63.361, 107.209 63.656, 107.328 70.788, 110.224 72.352, 105.647 " />
            <path fill="none" stroke-width="3.0" stroke-linecap="butt" stroke-opacity="1.0" stroke="rgb(0, 0, 0)" stroke-linejoin="round" d=" M 97.432, 71.722 95.738, 69.048 90.385, 60.602 89.145, 58.644 80.280, 61.262 76.948, 63.723 82.409, 72.100 84.970, 76.029 85.061, 76.170 94.079, 74.327 " />
            <path fill="none" stroke-width="3.0" stroke-linecap="butt" stroke-opacity="1.0" stroke="rgb(0, 0, 0)" stroke-linejoin="round" d=" M 85.693, 61.217 91.082, 69.641 91.872, 70.876 93.018, 72.668 94.079, 74.327 97.432, 71.722 " />
            <path fill="none" stroke-width="3.0" stroke-linecap="butt" stroke-opacity="1.0" stroke="rgb(0, 0, 0)" stroke-linejoin="round" d=" M 183.680, 101.818 191.774, 96.168 190.397, 92.654 180.422, 93.362 180.035, 93.390 " />
            <path fill="none" stroke-width="3.0" stroke-linecap="butt" stroke-opacity="1.0" stroke="rgb(0, 0, 0)" stroke-linejoin="round" d=" M 188.626, 138.293 197.469, 138.681 197.700, 134.828 188.874, 134.165 " />
            <path fill="none" stroke-width="3.0" stroke-linecap="butt" stroke-opacity="1.0" stroke="rgb(0, 0, 0)" stroke-linejoin="round" d=" M 109.457, 203.381 107.648, 213.216 107.261, 215.322 116.177, 219.848 116.857, 220.193 120.585, 220.414 122.363, 210.574 123.167, 206.123 " />
            <path fill="none" stroke-width="3.0" stroke-linecap="butt" stroke-opacity="1.0" stroke="rgb(0, 0, 0)" stroke-linejoin="round" d=" M 68.774, 196.958 77.114, 201.252 80.236, 204.147 " />
            <path fill="none" stroke-width="3.0" stroke-linecap="butt" stroke-opacity="1.0" stroke="rgb(0, 0, 0)" stroke-linejoin="round" d=" M 58.197, 99.775 56.564, 104.449 48.918, 104.875 " />
            <path fill="none" stroke-width="3.0" stroke-linecap="butt" stroke-opacity="1.0" stroke="rgb(0, 0, 0)" stroke-linejoin="round" d=" M 89.145, 58.644 85.693, 61.217 76.948, 63.723 " />
            <path fill="none" stroke-width="3.0" stroke-linecap="butt" stroke-opacity="1.0" stroke="rgb(0, 0, 0)" stroke-linejoin="round" d=" M 163.531, 73.043 167.608, 63.912 168.486, 61.945 165.658, 59.656 155.861, 61.660 154.665, 61.905 152.742, 66.110 " />
            <path fill="none" stroke-width="3.0" stroke-linecap="butt" stroke-opacity="1.0" stroke="rgb(0, 0, 0)" stroke-linejoin="round" d=" M 165.658, 59.656 161.558, 68.777 160.649, 70.799 " />
            <path fill="none" stroke-width="3.0" stroke-linecap="butt" stroke-opacity="1.0" stroke="rgb(0, 0, 0)" stroke-linejoin="round" d=" M 190.397, 92.654 182.254, 98.266 " />
            <path fill="none" stroke-width="3.0" stroke-linecap="butt" stroke-opacity="1.0" stroke="rgb(0, 0, 0)" stroke-linejoin="round" d=" M 156.541, 210.471 153.545, 200.930 152.911, 198.911 " />
            <path fill="none" stroke-width="3.0" stroke-linecap="butt" stroke-opacity="1.0" stroke="rgb(0, 0, 0)" stroke-linejoin="round" d=" M 197.700, 134.828 188.862, 134.368 " />
            <path fill="none" stroke-width="3.0" stroke-linecap="butt" stroke-opacity="1.0" stroke="rgb(0, 0, 0)" stroke-linejoin="round" d=" M 116.857, 220.193 118.643, 210.354 119.469, 205.805 " />
            <path fill="none" stroke-width="3.0" stroke-linecap="butt" stroke-opacity="1.0" stroke="rgb(0, 0, 0)" stroke-linejoin="round" d=" M 145.376, 130.466 145.289, 129.551 144.747, 127.466 144.527, 126.622 143.318, 123.925 142.142, 122.201 141.699, 121.552 139.723, 119.589 139.004, 119.120 137.454, 118.108 134.967, 117.168 133.350, 116.947 132.349, 116.810 130.628, 116.780 " />
            <path fill="none" stroke-width="3.0" stroke-linecap="butt" stroke-opacity="1.0" stroke="rgb(0, 0, 0)" stroke-linejoin="round" d=" M 132.349, 116.810 130.652, 116.967 129.692, 117.056 127.095, 117.904 124.653, 119.333 124.610, 119.372 123.152, 120.678 122.463, 121.296 120.609, 123.722 119.801, 125.293 119.497, 125.884 119.167, 126.525 118.717, 127.949 118.196, 129.597 117.734, 132.819 117.764, 134.240 117.802, 136.068 117.894, 136.559 118.395, 139.216 118.464, 139.402 119.488, 142.141 119.747, 142.575 120.708, 144.183 121.037, 144.733 122.977, 146.895 125.231, 148.551 125.580, 148.705 127.711, 149.645 127.822, 149.666 130.324, 150.144 132.971, 150.039 133.984, 149.767 135.558, 149.343 137.566, 148.308 137.994, 148.088 140.197, 146.325 141.936, 144.303 142.093, 144.120 143.622, 141.554 144.550, 139.184 144.734, 138.715 144.739, 138.688 " />
            <path fill="none" stroke-width="3.0" stroke-linecap="butt" stroke-opacity="1.0" stroke="rgb(0, 0, 0)" stroke-linejoin="round" d=" M 112.460, 133.164 112.510, 135.490 112.961, 137.854 113.095, 138.560 113.164, 138.741 113.291, 139.079 " />
            <path fill="none" stroke-width="3.0" stroke-linecap="butt" stroke-opacity="1.0" stroke="rgb(0, 0, 0)" stroke-linejoin="round" d=" M 124.421, 116.934 124.210, 116.953 121.651, 117.781 121.010, 118.153 " />
            <path fill="none" stroke-width="3.0" stroke-linecap="butt" stroke-opacity="1.0" stroke="rgb(0, 0, 0)" stroke-linejoin="round" d=" M 116.239, 144.540 117.611, 146.056 119.359, 147.330 " />
            <path fill="none" stroke-width="3.0" stroke-linecap="butt" stroke-opacity="1.0" stroke="rgb(0, 0, 0)" stroke-linejoin="round" d=" M 116.268, 122.155 115.267, 123.453 114.473, 124.984 114.056, 125.788 113.849, 126.185 113.569, 127.065 " />
            <path fill="none" stroke-width="3.0" stroke-linecap="butt" stroke-opacity="1.0" stroke="rgb(0, 0, 0)" stroke-linejoin="round" d=" M 133.234, 143.519 134.227, 143.652 135.051, 143.763 136.142, 143.733 136.614, 143.719 137.931, 143.378 138.147, 143.322 138.434, 143.177 " />
            <path fill="none" stroke-width="3.0" stroke-linecap="butt" stroke-opacity="1.0" stroke="rgb(0, 0, 0)" stroke-linejoin="round" d=" M 133.234, 143.519 131.705, 143.206 130.517, 142.663 130.259, 142.546 129.848, 142.236 128.950, 141.560 127.828, 140.282 126.934, 138.759 126.306, 137.046 125.966, 135.207 125.929, 133.311 126.196, 131.429 126.756, 129.633 127.589, 127.991 128.662, 126.562 129.932, 125.400 131.353, 124.545 131.459, 124.509 132.226, 124.247 132.870, 124.028 134.427, 123.863 " />
            <path fill="none" stroke-width="3.0" stroke-linecap="butt" stroke-opacity="1.0" stroke="rgb(0, 0, 0)" stroke-linejoin="round" d=" M 139.953, 125.117 139.278, 124.684 138.271, 124.315 137.880, 124.172 137.802, 124.143 136.254, 123.950 135.651, 124.015 134.689, 124.117 133.165, 124.639 132.739, 124.896 132.029, 125.325 131.738, 125.501 130.461, 126.672 129.383, 128.113 128.546, 129.769 127.982, 131.579 127.714, 133.476 127.751, 135.388 128.092, 137.242 128.723, 138.968 129.620, 140.503 130.566, 141.583 130.748, 141.791 131.199, 142.131 132.063, 142.784 133.515, 143.449 133.784, 143.504 134.242, 143.597 135.051, 143.763 " />
            <path fill="none" stroke-width="3.0" stroke-linecap="butt" stroke-opacity="1.0" stroke="rgb(0, 0, 0)" stroke-linejoin="round" d=" M 133.103, 141.285 132.796, 141.143 132.386, 140.832 131.725, 140.330 131.692, 140.292 130.807, 139.278 130.078, 138.025 129.565, 136.618 129.288, 135.107 129.258, 133.550 129.477, 132.005 129.935, 130.530 130.616, 129.179 131.492, 128.003 132.532, 127.045 132.892, 126.827 133.691, 126.341 133.695, 126.339 134.597, 126.027 " />
            <path fill="none" stroke-width="3.0" stroke-linecap="butt" stroke-opacity="1.0" stroke="rgb(0, 0, 0)" stroke-linejoin="round" d=" M 136.254, 123.950 134.427, 123.863 " />
            <path fill="none" stroke-width="3.0" stroke-linecap="butt" stroke-opacity="1.0" stroke="rgb(0, 0, 0)" stroke-linejoin="round" d=" M 131.889, 128.765 131.147, 130.239 131.124, 130.286 130.609, 131.947 130.363, 133.688 130.396, 135.442 130.601, 136.561 130.707, 137.143 131.284, 138.727 131.948, 139.871 132.103, 140.137 132.548, 140.648 133.103, 141.285 133.133, 141.319 134.335, 142.232 134.884, 142.485 135.663, 142.844 136.460, 143.009 136.649, 143.048 137.068, 143.135 137.568, 143.200 138.139, 143.185 138.434, 143.177 139.000, 143.161 140.406, 142.796 140.692, 142.651 141.735, 142.121 142.942, 141.162 143.985, 139.953 144.453, 139.169 144.739, 138.688 144.828, 138.540 145.442, 136.972 145.807, 135.303 145.911, 133.592 145.906, 133.548 145.749, 131.899 145.376, 130.466 145.328, 130.282 144.661, 128.797 144.054, 127.910 143.771, 127.497 142.687, 126.428 141.447, 125.631 140.094, 125.135 139.953, 125.117 139.186, 125.023 138.675, 124.960 138.227, 124.937 138.173, 124.934 138.003, 124.953 137.282, 125.031 136.741, 125.090 135.346, 125.572 134.597, 126.027 134.041, 126.365 133.803, 126.585 133.085, 127.247 132.874, 127.442 131.889, 128.765 " />
            <path fill="none" stroke-width="3.0" stroke-linecap="butt" stroke-opacity="1.0" stroke="rgb(0, 0, 0)" stroke-linejoin="round" d=" M 137.568, 143.200 136.514, 142.982 136.161, 142.909 134.978, 142.364 134.831, 142.296 133.628, 141.381 132.759, 140.384 132.596, 140.196 132.183, 139.485 131.776, 138.784 131.199, 137.196 130.888, 135.491 130.855, 133.733 131.101, 131.989 131.617, 130.324 132.383, 128.800 133.258, 127.623 133.369, 127.474 133.960, 126.928 134.538, 126.394 135.845, 125.599 137.241, 125.116 137.249, 125.115 138.110, 125.022 138.675, 124.960 " />
            <path fill="none" stroke-width="3.0" stroke-linecap="butt" stroke-opacity="1.0" stroke="rgb(0, 0, 0)" stroke-linejoin="round" d=" M 104.977, 131.520 105.001, 132.604 105.247, 133.872 105.699, 135.055 106.341, 136.109 107.147, 136.996 108.089, 137.685 109.129, 138.150 110.231, 138.376 113.164, 138.741 " />
            <path fill="none" stroke-width="3.0" stroke-linecap="butt" stroke-opacity="1.0" stroke="rgb(0, 0, 0)" stroke-linejoin="round" d=" M 114.473, 124.984 111.059, 124.786 109.937, 124.902 108.846, 125.261 107.827, 125.852 107.591, 126.060 " />
            <path fill="none" stroke-width="3.0" stroke-linecap="butt" stroke-opacity="1.0" stroke="rgb(0, 0, 0)" stroke-linejoin="round" d=" M 115.200, 137.885 113.720, 138.811 113.291, 139.079 104.815, 144.386 96.339, 149.692 87.863, 154.998 79.387, 160.304 77.447, 161.519 " />
            <path fill="none" stroke-width="3.0" stroke-linecap="butt" stroke-opacity="1.0" stroke="rgb(0, 0, 0)" stroke-linejoin="round" d=" M 73.921, 124.693 83.688, 126.840 93.455, 128.987 103.222, 131.134 104.977, 131.520 112.460, 133.164 114.350, 133.580 115.350, 133.800 " />
            <path fill="none" stroke-width="3.0" stroke-linecap="butt" stroke-opacity="1.0" stroke="rgb(0, 0, 0)" stroke-linejoin="round" d=" M 116.554, 127.566 115.599, 127.406 115.590, 127.404 113.569, 127.065 107.591, 126.060 97.729, 124.404 87.867, 122.747 78.005, 121.090 74.550, 120.510 " />
            <path fill="none" stroke-width="3.0" stroke-linecap="butt" stroke-opacity="1.0" stroke="rgb(0, 0, 0)" stroke-linejoin="round" d=" M 89.713, 87.540 95.800, 95.475 101.887, 103.409 107.974, 111.343 114.060, 119.277 116.268, 122.155 117.790, 124.139 " />
            <path fill="none" stroke-width="3.0" stroke-linecap="butt" stroke-opacity="1.0" stroke="rgb(0, 0, 0)" stroke-linejoin="round" d=" M 79.038, 165.376 87.763, 160.489 96.487, 155.603 105.212, 150.716 113.937, 145.829 116.239, 144.540 119.068, 142.955 " />
            <path fill="none" stroke-width="3.0" stroke-linecap="butt" stroke-opacity="1.0" stroke="rgb(0, 0, 0)" stroke-linejoin="round" d=" M 123.152, 120.678 121.010, 118.153 114.541, 110.527 108.071, 102.902 101.602, 95.276 95.133, 87.651 92.367, 84.390 " />
            <path fill="none" stroke-width="3.0" stroke-linecap="butt" stroke-opacity="1.0" stroke="rgb(0, 0, 0)" stroke-linejoin="round" d=" M 115.779, 68.822 120.686, 68.801 " />
            <path fill="none" stroke-width="3.0" stroke-linecap="butt" stroke-opacity="1.0" stroke="rgb(0, 0, 0)" stroke-linejoin="round" d=" M 128.296, 60.785 127.710, 50.802 127.442, 46.237 " />
            <path fill="none" stroke-width="3.0" stroke-linecap="butt" stroke-opacity="1.0" stroke="rgb(0, 0, 0)" stroke-linejoin="round" d=" M 125.285, 149.309 127.831, 149.731 130.324, 150.144 " />
            <path fill="none" stroke-width="3.0" stroke-linecap="butt" stroke-opacity="1.0" stroke="rgb(0, 0, 0)" stroke-linejoin="round" d=" M 137.566, 148.308 144.102, 155.877 150.637, 163.446 157.172, 171.015 159.218, 173.385 161.960, 176.561 162.172, 176.807 " />
            <path fill="none" stroke-width="3.0" stroke-linecap="butt" stroke-opacity="1.0" stroke="rgb(0, 0, 0)" stroke-linejoin="round" d=" M 144.747, 127.466 153.165, 122.069 161.584, 116.672 170.235, 111.125 173.660, 108.930 174.954, 108.100 " />
            <path fill="none" stroke-width="3.0" stroke-linecap="butt" stroke-opacity="1.0" stroke="rgb(0, 0, 0)" stroke-linejoin="round" d=" M 144.550, 139.184 154.432, 140.714 164.314, 142.244 171.784, 143.400 175.480, 143.972 177.229, 144.243 " />
            <path fill="none" stroke-width="3.0" stroke-linecap="butt" stroke-opacity="1.0" stroke="rgb(0, 0, 0)" stroke-linejoin="round" d=" M 177.728, 173.595 185.144, 179.953 " />
        </g>
    </g>
</svg>
