<?xml version='1.0' encoding='ascii'?>
<svg xmlns="http://www.w3.org/2000/svg" version="1.1" width="250" height="250">
    <g id="View Layer_LineSet" xmlns:inkscape="http://www.inkscape.org/namespaces/inkscape" inkscape:groupmode="lineset" inkscape:label="View Layer_LineSet">
        <g xmlns:inkscape="http://www.inkscape.org/namespaces/inkscape" inkscape:groupmode="layer" id="strokes" inkscape:label="strokes">
            <path fill="none" stroke-width="3.0" stroke-linecap="butt" stroke-opacity="1.0" stroke="rgb(0, 0, 0)" stroke-linejoin="round" d=" M 115.861, 69.006 116.060, 70.309 117.567, 80.195 119.075, 90.081 120.582, 99.966 122.090, 109.852 123.214, 117.222 " />
            <path fill="none" stroke-width="3.0" stroke-linecap="butt" stroke-opacity="1.0" stroke="rgb(0, 0, 0)" stroke-linejoin="round" d=" M 148.607, 75.760 147.819, 77.713 144.080, 86.987 140.340, 96.262 136.601, 105.536 132.861, 114.811 132.029, 116.875 " />
            <path fill="none" stroke-width="3.0" stroke-linecap="butt" stroke-opacity="1.0" stroke="rgb(0, 0, 0)" stroke-linejoin="round" d=" M 171.233, 100.799 171.045, 100.925 167.663, 103.196 159.362, 108.772 151.061, 114.347 142.759, 119.923 141.162, 120.996 " />
            <path fill="none" stroke-width="3.0" stroke-linecap="butt" stroke-opacity="1.0" stroke="rgb(0, 0, 0)" stroke-linejoin="round" d=" M 178.218, 135.953 176.583, 135.745 172.859, 135.270 162.939, 134.007 153.019, 132.743 145.701, 131.811 " />
            <path fill="none" stroke-width="3.0" stroke-linecap="butt" stroke-opacity="1.0" stroke="rgb(0, 0, 0)" stroke-linejoin="round" d=" M 167.563, 170.592 166.647, 169.575 163.818, 166.433 157.127, 159.002 150.435, 151.571 143.744, 144.139 142.782, 143.070 " />
            <path fill="none" stroke-width="3.0" stroke-linecap="butt" stroke-opacity="1.0" stroke="rgb(0, 0, 0)" stroke-linejoin="round" d=" M 141.916, 194.487 141.699, 193.032 141.227, 189.877 139.749, 179.987 138.271, 170.097 136.793, 160.207 135.315, 150.316 135.180, 149.409 " />
            <path fill="none" stroke-width="3.0" stroke-linecap="butt" stroke-opacity="1.0" stroke="rgb(0, 0, 0)" stroke-linejoin="round" d=" M 107.842, 196.324 108.176, 195.485 108.545, 194.562 112.249, 185.273 115.953, 175.985 119.658, 166.696 123.362, 157.407 126.496, 149.549 " />
            <path fill="none" stroke-width="3.0" stroke-linecap="butt" stroke-opacity="1.0" stroke="rgb(0, 0, 0)" stroke-linejoin="round" d=" M 137.931, 118.439 141.134, 108.966 144.337, 99.493 147.540, 90.019 150.743, 80.546 150.879, 80.144 151.960, 76.947 152.482, 75.405 " />
            <path fill="none" stroke-width="3.0" stroke-linecap="butt" stroke-opacity="1.0" stroke="rgb(0, 0, 0)" stroke-linejoin="round" d=" M 129.436, 116.816 127.432, 107.018 125.428, 97.221 123.424, 87.424 121.420, 77.627 119.785, 69.638 119.573, 68.603 119.406, 67.783 " />
            <path fill="none" stroke-width="3.0" stroke-linecap="butt" stroke-opacity="1.0" stroke="rgb(0, 0, 0)" stroke-linejoin="round" d=" M 129.095, 149.963 131.128, 159.755 133.161, 169.546 135.194, 179.337 137.227, 189.128 137.715, 191.478 138.159, 193.616 138.458, 195.057 " />
            <path fill="none" stroke-width="3.0" stroke-linecap="butt" stroke-opacity="1.0" stroke="rgb(0, 0, 0)" stroke-linejoin="round" d=" M 120.462, 147.962 117.223, 157.423 113.983, 166.883 110.744, 176.344 107.505, 185.805 104.966, 193.218 104.481, 194.634 104.467, 194.676 " />
            <path fill="none" stroke-width="3.0" stroke-linecap="butt" stroke-opacity="1.0" stroke="rgb(0, 0, 0)" stroke-linejoin="round" d=" M 93.897, 196.638 99.360, 199.236 108.495, 203.305 109.564, 203.781 114.582, 204.865 118.078, 205.620 121.172, 206.288 124.722, 206.224 128.404, 206.157 132.790, 206.078 142.502, 203.695 144.001, 203.327 149.948, 200.454 153.080, 198.941 154.453, 198.278 157.376, 196.085 160.355, 193.849 163.858, 191.221 170.664, 183.895 171.989, 182.469 177.498, 174.123 178.672, 172.345 178.758, 172.157 180.299, 168.784 180.337, 168.702 181.953, 165.165 183.778, 161.172 186.553, 151.565 187.216, 149.272 188.591, 139.367 188.925, 136.960 188.907, 132.662 188.903, 131.548 188.891, 128.735 188.887, 127.810 188.874, 124.551 187.398, 114.661 187.055, 112.362 184.129, 102.800 183.489, 100.711 181.568, 96.773 179.901, 93.357 178.792, 91.083 178.226, 89.923 176.752, 87.866 171.352, 80.331 164.155, 73.388 162.996, 72.269 159.364, 69.937 156.304, 67.973 153.340, 66.069 150.942, 65.169 147.722, 63.959 142.629, 62.047 132.721, 60.692 131.174, 60.481 126.729, 60.899 122.985, 61.251 119.358, 61.592 116.570, 62.260 112.999, 63.116 108.700, 64.147 99.210, 67.301 97.362, 67.915 90.204, 72.198 " />
            <path fill="none" stroke-width="3.0" stroke-linecap="butt" stroke-opacity="1.0" stroke="rgb(0, 0, 0)" stroke-linejoin="round" d=" M 69.775, 157.659 71.139, 162.198 69.748, 162.774 64.424, 164.978 56.785, 168.140 49.172, 165.360 47.789, 160.957 57.084, 157.268 61.392, 155.558 61.667, 155.449 " />
            <path fill="none" stroke-width="3.0" stroke-linecap="butt" stroke-opacity="1.0" stroke="rgb(0, 0, 0)" stroke-linejoin="round" d=" M 56.785, 168.140 55.350, 163.511 " />
            <path fill="none" stroke-width="3.0" stroke-linecap="butt" stroke-opacity="1.0" stroke="rgb(0, 0, 0)" stroke-linejoin="round" d=" M 47.789, 160.957 55.350, 163.511 62.886, 160.454 63.899, 160.043 69.775, 157.659 61.667, 155.449 " />
            <path fill="none" stroke-width="3.0" stroke-linecap="butt" stroke-opacity="1.0" stroke="rgb(0, 0, 0)" stroke-linejoin="round" d=" M 149.948, 200.454 150.996, 203.016 160.383, 206.462 161.739, 206.960 164.665, 204.686 160.969, 195.394 160.355, 193.849 " />
            <path fill="none" stroke-width="3.0" stroke-linecap="butt" stroke-opacity="1.0" stroke="rgb(0, 0, 0)" stroke-linejoin="round" d=" M 119.358, 61.592 113.330, 63.605 107.633, 65.508 99.076, 70.683 96.501, 72.240 89.214, 79.088 86.492, 81.646 83.054, 86.485 82.701, 86.982 78.127, 93.420 73.966, 102.513 71.871, 107.091 69.418, 116.786 68.088, 122.041 67.824, 125.807 67.548, 129.744 67.002, 137.546 68.086, 147.487 68.670, 152.840 71.547, 162.417 72.976, 167.176 77.624, 176.031 79.650, 179.890 85.984, 187.628 88.295, 190.451 96.134, 196.660 98.436, 198.484 107.466, 202.782 109.564, 203.781 " />
            <path fill="none" stroke-width="3.0" stroke-linecap="butt" stroke-opacity="1.0" stroke="rgb(0, 0, 0)" stroke-linejoin="round" d=" M 64.424, 164.978 69.121, 173.806 70.481, 176.363 76.858, 184.066 78.814, 186.428 82.501, 189.326 " />
            <path fill="none" stroke-width="3.0" stroke-linecap="butt" stroke-opacity="1.0" stroke="rgb(0, 0, 0)" stroke-linejoin="round" d=" M 126.729, 60.899 125.433, 50.983 124.818, 46.277 121.042, 46.531 111.484, 49.472 111.164, 49.571 112.506, 59.480 112.999, 63.116 " />
            <path fill="none" stroke-width="3.0" stroke-linecap="butt" stroke-opacity="1.0" stroke="rgb(0, 0, 0)" stroke-linejoin="round" d=" M 60.587, 116.622 59.326, 121.547 58.625, 131.522 58.296, 136.217 59.403, 146.155 59.908, 150.695 61.392, 155.558 " />
            <path fill="none" stroke-width="3.0" stroke-linecap="butt" stroke-opacity="1.0" stroke="rgb(0, 0, 0)" stroke-linejoin="round" d=" M 80.552, 79.975 76.985, 83.286 71.144, 91.402 68.947, 94.455 64.742, 103.527 62.946, 107.402 62.329, 109.813 " />
            <path fill="none" stroke-width="3.0" stroke-linecap="butt" stroke-opacity="1.0" stroke="rgb(0, 0, 0)" stroke-linejoin="round" d=" M 120.601, 67.371 130.546, 66.331 131.464, 66.235 141.385, 67.487 142.032, 67.568 145.874, 68.969 148.020, 69.752 151.945, 71.183 160.405, 76.515 160.909, 76.832 168.154, 83.725 168.688, 84.233 173.201, 90.458 175.104, 93.081 175.532, 93.950 179.953, 102.919 180.026, 103.066 182.979, 112.620 183.367, 113.875 184.859, 123.763 185.075, 125.200 185.087, 127.728 185.091, 128.578 185.128, 136.736 183.747, 146.640 183.532, 148.180 180.740, 157.783 180.318, 159.233 176.419, 167.698 175.547, 169.592 174.971, 170.457 169.426, 178.779 169.310, 178.954 162.463, 186.242 161.736, 187.015 153.695, 192.961 152.996, 193.478 151.978, 193.959 148.049, 195.816 143.309, 198.057 133.575, 200.346 132.951, 200.493 122.951, 200.570 122.251, 200.575 112.499, 198.362 111.597, 198.157 107.842, 196.324 104.467, 194.676 104.289, 194.589 101.418, 193.188 93.633, 186.912 92.171, 185.734 85.890, 177.952 84.312, 175.996 81.381, 170.341 79.472, 166.659 78.262, 164.323 75.417, 154.737 74.367, 151.199 73.299, 141.256 72.865, 137.220 73.341, 130.406 73.637, 126.179 73.855, 123.053 76.290, 113.355 77.287, 109.385 81.416, 100.277 82.965, 96.860 86.467, 91.874 88.857, 88.472 90.568, 86.037 97.807, 79.137 99.686, 77.347 108.199, 72.099 109.856, 71.078 115.861, 69.006 115.893, 68.995 119.406, 67.783 120.601, 67.371 " />
            <path fill="none" stroke-width="3.0" stroke-linecap="butt" stroke-opacity="1.0" stroke="rgb(0, 0, 0)" stroke-linejoin="round" d=" M 150.879, 80.144 156.706, 85.537 162.680, 93.556 162.989, 93.971 167.509, 102.891 167.663, 103.196 " />
            <path fill="none" stroke-width="3.0" stroke-linecap="butt" stroke-opacity="1.0" stroke="rgb(0, 0, 0)" stroke-linejoin="round" d=" M 178.758, 172.157 188.111, 174.186 189.678, 170.692 181.953, 165.165 " />
            <path fill="none" stroke-width="3.0" stroke-linecap="butt" stroke-opacity="1.0" stroke="rgb(0, 0, 0)" stroke-linejoin="round" d=" M 168.897, 106.892 171.105, 113.831 172.646, 123.711 172.794, 124.658 172.855, 134.658 172.859, 135.270 " />
            <path fill="none" stroke-width="3.0" stroke-linecap="butt" stroke-opacity="1.0" stroke="rgb(0, 0, 0)" stroke-linejoin="round" d=" M 172.396, 138.971 171.312, 146.629 168.466, 156.215 168.178, 157.186 163.914, 166.231 163.818, 166.433 " />
            <path fill="none" stroke-width="3.0" stroke-linecap="butt" stroke-opacity="1.0" stroke="rgb(0, 0, 0)" stroke-linejoin="round" d=" M 161.747, 169.662 157.432, 175.979 150.486, 183.173 150.042, 183.632 141.916, 189.460 141.523, 189.742 141.227, 189.877 " />
            <path fill="none" stroke-width="3.0" stroke-linecap="butt" stroke-opacity="1.0" stroke="rgb(0, 0, 0)" stroke-linejoin="round" d=" M 137.715, 191.478 132.094, 194.040 122.334, 196.217 122.026, 196.285 112.026, 196.284 111.643, 196.284 108.176, 195.485 " />
            <path fill="none" stroke-width="3.0" stroke-linecap="butt" stroke-opacity="1.0" stroke="rgb(0, 0, 0)" stroke-linejoin="round" d=" M 119.573, 68.603 120.440, 68.510 130.369, 69.697 130.706, 69.737 140.136, 73.065 140.357, 73.143 147.819, 77.713 " />
            <path fill="none" stroke-width="3.0" stroke-linecap="butt" stroke-opacity="1.0" stroke="rgb(0, 0, 0)" stroke-linejoin="round" d=" M 82.560, 189.242 82.501, 189.326 76.775, 197.524 73.964, 201.550 77.164, 203.959 85.798, 208.539 91.424, 200.272 93.897, 196.638 94.606, 195.596 91.393, 193.051 " />
            <path fill="none" stroke-width="3.0" stroke-linecap="butt" stroke-opacity="1.0" stroke="rgb(0, 0, 0)" stroke-linejoin="round" d=" M 82.487, 206.035 88.143, 197.789 90.153, 194.858 90.792, 193.927 91.393, 193.051 82.560, 189.242 " />
            <path fill="none" stroke-width="3.0" stroke-linecap="butt" stroke-opacity="1.0" stroke="rgb(0, 0, 0)" stroke-linejoin="round" d=" M 70.208, 112.179 67.682, 111.421 62.329, 109.813 55.554, 107.779 47.950, 108.037 46.751, 112.635 56.360, 115.404 60.587, 116.622 60.901, 116.712 69.010, 116.912 " />
            <path fill="none" stroke-width="3.0" stroke-linecap="butt" stroke-opacity="1.0" stroke="rgb(0, 0, 0)" stroke-linejoin="round" d=" M 54.303, 112.622 61.103, 114.606 61.417, 114.697 69.010, 116.912 70.208, 112.179 " />
            <path fill="none" stroke-width="3.0" stroke-linecap="butt" stroke-opacity="1.0" stroke="rgb(0, 0, 0)" stroke-linejoin="round" d=" M 92.709, 75.498 90.204, 72.198 84.158, 64.232 83.339, 63.153 74.677, 65.574 71.519, 68.407 77.674, 76.288 80.552, 79.975 80.675, 80.133 89.538, 78.477 " />
            <path fill="none" stroke-width="3.0" stroke-linecap="butt" stroke-opacity="1.0" stroke="rgb(0, 0, 0)" stroke-linejoin="round" d=" M 80.064, 66.118 86.148, 74.055 86.473, 74.479 87.979, 76.443 89.538, 78.477 92.709, 75.498 " />
            <path fill="none" stroke-width="3.0" stroke-linecap="butt" stroke-opacity="1.0" stroke="rgb(0, 0, 0)" stroke-linejoin="round" d=" M 181.568, 96.773 189.228, 90.345 189.352, 90.241 187.740, 86.853 177.782, 87.771 176.752, 87.866 " />
            <path fill="none" stroke-width="3.0" stroke-linecap="butt" stroke-opacity="1.0" stroke="rgb(0, 0, 0)" stroke-linejoin="round" d=" M 188.907, 132.662 197.777, 132.133 197.765, 128.278 188.887, 127.810 " />
            <path fill="none" stroke-width="3.0" stroke-linecap="butt" stroke-opacity="1.0" stroke="rgb(0, 0, 0)" stroke-linejoin="round" d=" M 114.582, 204.865 113.494, 214.805 113.407, 215.604 122.373, 220.033 123.182, 220.433 126.880, 220.271 127.953, 210.329 128.404, 206.157 " />
            <path fill="none" stroke-width="3.0" stroke-linecap="butt" stroke-opacity="1.0" stroke="rgb(0, 0, 0)" stroke-linejoin="round" d=" M 73.964, 201.550 82.487, 206.035 85.798, 208.539 " />
            <path fill="none" stroke-width="3.0" stroke-linecap="butt" stroke-opacity="1.0" stroke="rgb(0, 0, 0)" stroke-linejoin="round" d=" M 55.554, 107.779 54.303, 112.622 46.751, 112.635 " />
            <path fill="none" stroke-width="3.0" stroke-linecap="butt" stroke-opacity="1.0" stroke="rgb(0, 0, 0)" stroke-linejoin="round" d=" M 83.339, 63.153 80.064, 66.118 71.519, 68.407 " />
            <path fill="none" stroke-width="3.0" stroke-linecap="butt" stroke-opacity="1.0" stroke="rgb(0, 0, 0)" stroke-linejoin="round" d=" M 159.364, 69.937 162.757, 60.530 163.616, 58.148 160.604, 56.125 150.842, 58.297 149.718, 58.547 147.722, 63.959 " />
            <path fill="none" stroke-width="3.0" stroke-linecap="butt" stroke-opacity="1.0" stroke="rgb(0, 0, 0)" stroke-linejoin="round" d=" M 160.604, 56.125 157.192, 65.526 156.304, 67.973 " />
            <path fill="none" stroke-width="3.0" stroke-linecap="butt" stroke-opacity="1.0" stroke="rgb(0, 0, 0)" stroke-linejoin="round" d=" M 187.740, 86.853 180.044, 93.239 179.901, 93.357 " />
            <path fill="none" stroke-width="3.0" stroke-linecap="butt" stroke-opacity="1.0" stroke="rgb(0, 0, 0)" stroke-linejoin="round" d=" M 161.739, 206.960 158.015, 197.679 157.376, 196.085 " />
            <path fill="none" stroke-width="3.0" stroke-linecap="butt" stroke-opacity="1.0" stroke="rgb(0, 0, 0)" stroke-linejoin="round" d=" M 197.765, 128.278 188.891, 128.735 " />
            <path fill="none" stroke-width="3.0" stroke-linecap="butt" stroke-opacity="1.0" stroke="rgb(0, 0, 0)" stroke-linejoin="round" d=" M 123.182, 220.433 124.259, 210.492 124.722, 206.224 " />
            <path fill="none" stroke-width="3.0" stroke-linecap="butt" stroke-opacity="1.0" stroke="rgb(0, 0, 0)" stroke-linejoin="round" d=" M 145.407, 130.619 145.002, 128.206 144.257, 126.023 144.034, 125.369 142.635, 122.808 141.162, 120.996 140.848, 120.610 138.730, 118.856 137.931, 118.439 136.352, 117.614 133.795, 116.932 132.029, 116.875 131.148, 116.846 129.436, 116.816 " />
            <path fill="none" stroke-width="3.0" stroke-linecap="butt" stroke-opacity="1.0" stroke="rgb(0, 0, 0)" stroke-linejoin="round" d=" M 131.148, 116.846 129.508, 117.168 128.506, 117.365 125.967, 118.480 123.658, 120.135 123.628, 120.157 122.339, 121.530 121.579, 122.339 119.903, 124.948 119.757, 125.296 119.075, 126.917 118.668, 127.886 118.383, 129.089 117.923, 131.041 117.699, 134.291 117.808, 135.439 118.006, 137.510 118.053, 137.688 118.511, 139.389 118.829, 140.571 120.135, 143.359 120.321, 143.618 121.425, 145.151 121.869, 145.768 123.961, 147.709 126.329, 149.117 126.630, 149.214 128.881, 149.945 129.095, 149.963 131.521, 150.171 134.152, 149.797 135.180, 149.409 136.682, 148.843 138.839, 147.468 139.022, 147.351 141.095, 145.379 142.782, 143.070 142.832, 143.001 144.178, 140.300 144.618, 138.885 " />
            <path fill="none" stroke-width="3.0" stroke-linecap="butt" stroke-opacity="1.0" stroke="rgb(0, 0, 0)" stroke-linejoin="round" d=" M 112.517, 134.884 112.711, 136.896 112.977, 137.874 113.210, 138.729 113.523, 139.883 113.831, 140.533 " />
            <path fill="none" stroke-width="3.0" stroke-linecap="butt" stroke-opacity="1.0" stroke="rgb(0, 0, 0)" stroke-linejoin="round" d=" M 123.214, 117.222 123.042, 117.255 120.541, 118.342 119.709, 118.933 " />
            <path fill="none" stroke-width="3.0" stroke-linecap="butt" stroke-opacity="1.0" stroke="rgb(0, 0, 0)" stroke-linejoin="round" d=" M 117.311, 145.683 118.581, 146.852 120.462, 147.962 " />
            <path fill="none" stroke-width="3.0" stroke-linecap="butt" stroke-opacity="1.0" stroke="rgb(0, 0, 0)" stroke-linejoin="round" d=" M 115.389, 123.389 114.573, 124.648 114.429, 124.988 114.078, 125.815 113.358, 127.512 113.076, 128.699 " />
            <path fill="none" stroke-width="3.0" stroke-linecap="butt" stroke-opacity="1.0" stroke="rgb(0, 0, 0)" stroke-linejoin="round" d=" M 132.389, 143.391 130.898, 142.886 130.562, 142.680 129.845, 142.242 129.521, 142.044 128.309, 140.893 127.307, 139.474 126.555, 137.839 126.082, 136.049 125.908, 134.170 126.038, 132.273 126.468, 130.429 127.181, 128.710 128.150, 127.177 129.337, 125.889 130.696, 124.891 131.449, 124.549 132.176, 124.219 132.176, 124.218 133.723, 123.893 135.278, 123.924 " />
            <path fill="none" stroke-width="3.0" stroke-linecap="butt" stroke-opacity="1.0" stroke="rgb(0, 0, 0)" stroke-linejoin="round" d=" M 140.110, 125.181 140.038, 125.122 139.321, 124.755 138.624, 124.398 137.879, 124.208 137.109, 124.012 136.782, 124.005 135.546, 123.981 135.523, 123.986 133.993, 124.309 132.730, 124.885 132.505, 124.988 132.069, 125.309 131.139, 125.994 129.947, 127.293 128.973, 128.838 128.256, 130.571 127.823, 132.430 127.692, 134.342 127.868, 136.236 128.342, 138.041 129.097, 139.689 130.103, 141.119 130.574, 141.566 131.160, 142.124 131.322, 142.278 132.705, 143.126 133.932, 143.543 134.202, 143.635 135.041, 143.717 135.757, 143.788 136.104, 143.742 137.313, 143.583 137.560, 143.492 138.332, 143.208 " />
            <path fill="none" stroke-width="3.0" stroke-linecap="butt" stroke-opacity="1.0" stroke="rgb(0, 0, 0)" stroke-linejoin="round" d=" M 133.263, 141.390 132.373, 140.840 132.192, 140.729 131.680, 140.240 131.200, 139.781 130.382, 138.613 129.769, 137.269 129.383, 135.799 129.241, 134.255 129.348, 132.698 129.699, 131.184 130.282, 129.770 131.074, 128.510 132.045, 127.449 132.908, 126.809 133.157, 126.625 133.685, 126.383 134.370, 126.068 134.562, 126.027 " />
            <path fill="none" stroke-width="3.0" stroke-linecap="butt" stroke-opacity="1.0" stroke="rgb(0, 0, 0)" stroke-linejoin="round" d=" M 132.389, 143.391 134.202, 143.635 " />
            <path fill="none" stroke-width="3.0" stroke-linecap="butt" stroke-opacity="1.0" stroke="rgb(0, 0, 0)" stroke-linejoin="round" d=" M 137.109, 124.012 136.789, 123.997 135.278, 123.924 " />
            <path fill="none" stroke-width="3.0" stroke-linecap="butt" stroke-opacity="1.0" stroke="rgb(0, 0, 0)" stroke-linejoin="round" d=" M 131.514, 129.431 131.163, 130.283 130.859, 131.022 130.463, 132.727 130.343, 134.482 130.503, 136.220 130.587, 136.544 130.936, 137.877 131.625, 139.389 131.959, 139.866 132.511, 140.655 132.544, 140.702 133.263, 141.390 133.657, 141.767 134.922, 142.547 135.067, 142.597 136.291, 143.016 136.351, 143.024 136.610, 143.057 136.790, 143.081 137.964, 143.198 138.214, 143.223 138.332, 143.208 139.641, 143.036 141.019, 142.529 141.832, 142.016 142.298, 141.721 143.436, 140.644 144.392, 139.338 144.618, 138.885 145.135, 137.848 145.216, 137.587 145.638, 136.227 145.886, 134.532 145.870, 132.822 145.701, 131.811 145.591, 131.156 145.407, 130.619 145.056, 129.591 144.285, 128.184 143.303, 126.983 143.166, 126.870 142.144, 126.032 140.847, 125.368 140.110, 125.181 139.598, 125.051 139.458, 125.015 138.955, 124.989 138.304, 124.978 138.093, 124.974 137.525, 124.963 136.632, 125.154 136.103, 125.267 134.743, 125.893 134.562, 126.027 133.801, 126.591 133.494, 126.818 133.112, 127.237 132.404, 128.012 131.514, 129.431 " />
            <path fill="none" stroke-width="3.0" stroke-linecap="butt" stroke-opacity="1.0" stroke="rgb(0, 0, 0)" stroke-linejoin="round" d=" M 136.790, 143.081 136.482, 142.976 135.419, 142.612 135.123, 142.429 134.153, 141.830 133.038, 140.762 132.744, 140.342 132.193, 139.554 132.118, 139.447 131.428, 137.931 130.995, 136.271 130.835, 134.529 130.955, 132.771 131.351, 131.062 132.007, 129.467 132.898, 128.045 133.257, 127.652 133.962, 126.879 133.990, 126.849 135.240, 125.921 136.603, 125.294 136.654, 125.283 138.026, 124.990 138.128, 124.991 139.458, 125.015 " />
            <path fill="none" stroke-width="3.0" stroke-linecap="butt" stroke-opacity="1.0" stroke="rgb(0, 0, 0)" stroke-linejoin="round" d=" M 105.328, 134.062 105.427, 134.420 105.967, 135.550 106.687, 136.533 107.558, 137.334 108.549, 137.924 109.622, 138.282 113.210, 138.729 " />
            <path fill="none" stroke-width="3.0" stroke-linecap="butt" stroke-opacity="1.0" stroke="rgb(0, 0, 0)" stroke-linejoin="round" d=" M 114.429, 124.988 111.674, 124.828 110.552, 124.808 109.439, 125.035 108.375, 125.500 107.401, 126.189 106.553, 127.078 105.861, 128.133 105.817, 128.235 " />
            <path fill="none" stroke-width="3.0" stroke-linecap="butt" stroke-opacity="1.0" stroke="rgb(0, 0, 0)" stroke-linejoin="round" d=" M 104.481, 194.634 104.289, 194.589 " />
            <path fill="none" stroke-width="3.0" stroke-linecap="butt" stroke-opacity="1.0" stroke="rgb(0, 0, 0)" stroke-linejoin="round" d=" M 115.729, 139.089 113.831, 140.533 105.871, 146.585 97.911, 152.638 89.951, 158.691 81.990, 164.744 79.472, 166.659 " />
            <path fill="none" stroke-width="3.0" stroke-linecap="butt" stroke-opacity="1.0" stroke="rgb(0, 0, 0)" stroke-linejoin="round" d=" M 73.341, 130.406 83.276, 131.542 93.212, 132.677 103.147, 133.813 105.328, 134.062 112.517, 134.884 114.467, 135.107 115.466, 135.221 " />
            <path fill="none" stroke-width="3.0" stroke-linecap="butt" stroke-opacity="1.0" stroke="rgb(0, 0, 0)" stroke-linejoin="round" d=" M 116.007, 128.886 115.002, 128.822 113.076, 128.699 105.817, 128.235 95.838, 127.597 85.858, 126.960 75.878, 126.322 73.637, 126.179 " />
            <path fill="none" stroke-width="3.0" stroke-linecap="butt" stroke-opacity="1.0" stroke="rgb(0, 0, 0)" stroke-linejoin="round" d=" M 86.467, 91.874 93.229, 99.242 99.990, 106.610 106.752, 113.977 113.513, 121.345 115.389, 123.389 116.959, 125.100 " />
            <path fill="none" stroke-width="3.0" stroke-linecap="butt" stroke-opacity="1.0" stroke="rgb(0, 0, 0)" stroke-linejoin="round" d=" M 81.381, 170.341 89.626, 164.683 97.871, 159.025 106.116, 153.366 114.361, 147.708 117.311, 145.683 120.242, 143.672 " />
            <path fill="none" stroke-width="3.0" stroke-linecap="butt" stroke-opacity="1.0" stroke="rgb(0, 0, 0)" stroke-linejoin="round" d=" M 122.985, 61.251 121.676, 51.337 121.042, 46.531 " />
            <path fill="none" stroke-width="3.0" stroke-linecap="butt" stroke-opacity="1.0" stroke="rgb(0, 0, 0)" stroke-linejoin="round" d=" M 122.232, 121.424 119.709, 118.933 112.593, 111.907 105.477, 104.881 98.361, 97.855 91.245, 90.829 88.857, 88.472 " />
            <path fill="none" stroke-width="3.0" stroke-linecap="butt" stroke-opacity="1.0" stroke="rgb(0, 0, 0)" stroke-linejoin="round" d=" M 126.496, 149.549 128.881, 149.945 " />
            <path fill="none" stroke-width="3.0" stroke-linecap="butt" stroke-opacity="1.0" stroke="rgb(0, 0, 0)" stroke-linejoin="round" d=" M 138.839, 147.468 146.021, 154.426 153.203, 161.385 160.385, 168.343 161.747, 169.662 164.688, 172.512 165.094, 172.905 " />
            <path fill="none" stroke-width="3.0" stroke-linecap="butt" stroke-opacity="1.0" stroke="rgb(0, 0, 0)" stroke-linejoin="round" d=" M 144.257, 126.023 152.156, 119.890 160.055, 113.757 167.953, 107.625 168.897, 106.892 172.182, 104.341 173.264, 103.501 " />
            <path fill="none" stroke-width="3.0" stroke-linecap="butt" stroke-opacity="1.0" stroke="rgb(0, 0, 0)" stroke-linejoin="round" d=" M 145.216, 137.587 155.203, 138.096 165.190, 138.604 172.396, 138.971 176.126, 139.161 177.934, 139.253 " />
            <path fill="none" stroke-width="3.0" stroke-linecap="butt" stroke-opacity="1.0" stroke="rgb(0, 0, 0)" stroke-linejoin="round" d=" M 180.337, 168.702 188.111, 174.186 " />
        </g>
    </g>
</svg>
