<?xml version='1.0' encoding='ascii'?>
<svg xmlns="http://www.w3.org/2000/svg" version="1.1" width="250" height="250">
    <g id="View Layer_LineSet" xmlns:inkscape="http://www.inkscape.org/namespaces/inkscape" inkscape:groupmode="lineset" inkscape:label="View Layer_LineSet">
        <g xmlns:inkscape="http://www.inkscape.org/namespaces/inkscape" inkscape:groupmode="layer" id="strokes" inkscape:label="strokes">
            <path fill="none" stroke-width="3.0" stroke-linecap="butt" stroke-opacity="1.0" stroke="rgb(0, 0, 0)" stroke-linejoin="round" d=" M 108.960, 71.863 109.072, 72.279 111.685, 81.932 114.298, 91.584 116.911, 101.237 119.523, 110.890 121.420, 117.898 " />
            <path fill="none" stroke-width="3.0" stroke-linecap="butt" stroke-opacity="1.0" stroke="rgb(0, 0, 0)" stroke-linejoin="round" d=" M 142.472, 72.704 142.070, 74.142 139.380, 83.773 136.691, 93.405 134.001, 103.036 131.312, 112.668 130.165, 116.776 " />
            <path fill="none" stroke-width="3.0" stroke-linecap="butt" stroke-opacity="1.0" stroke="rgb(0, 0, 0)" stroke-linejoin="round" d=" M 167.952, 94.317 167.836, 94.420 164.788, 97.114 157.295, 103.737 149.802, 110.360 142.310, 116.983 139.525, 119.444 " />
            <path fill="none" stroke-width="3.0" stroke-linecap="butt" stroke-opacity="1.0" stroke="rgb(0, 0, 0)" stroke-linejoin="round" d=" M 178.334, 128.405 176.704, 128.450 172.979, 128.551 162.983, 128.823 152.986, 129.095 145.233, 129.305 " />
            <path fill="none" stroke-width="3.0" stroke-linecap="butt" stroke-opacity="1.0" stroke="rgb(0, 0, 0)" stroke-linejoin="round" d=" M 171.163, 164.105 169.897, 163.036 166.840, 160.453 159.202, 153.999 151.563, 147.546 143.852, 141.031 " />
            <path fill="none" stroke-width="3.0" stroke-linecap="butt" stroke-opacity="1.0" stroke="rgb(0, 0, 0)" stroke-linejoin="round" d=" M 148.253, 191.180 148.136, 190.741 147.889, 189.810 146.903, 186.103 144.332, 176.439 141.762, 166.775 139.192, 157.111 136.937, 148.633 " />
            <path fill="none" stroke-width="3.0" stroke-linecap="butt" stroke-opacity="1.0" stroke="rgb(0, 0, 0)" stroke-linejoin="round" d=" M 114.880, 198.242 115.418, 196.299 115.427, 196.265 118.093, 186.627 120.760, 176.989 123.426, 167.351 126.092, 157.713 128.287, 149.782 " />
            <path fill="none" stroke-width="3.0" stroke-linecap="butt" stroke-opacity="1.0" stroke="rgb(0, 0, 0)" stroke-linejoin="round" d=" M 136.251, 117.647 138.404, 107.882 140.557, 98.116 142.709, 88.350 144.862, 78.585 145.397, 76.157 145.972, 73.548 146.507, 71.118 " />
            <path fill="none" stroke-width="3.0" stroke-linecap="butt" stroke-opacity="1.0" stroke="rgb(0, 0, 0)" stroke-linejoin="round" d=" M 127.566, 116.826 127.535, 116.730 124.446, 107.219 121.356, 97.708 118.267, 88.198 115.178, 78.687 112.744, 71.196 112.379, 70.072 " />
            <path fill="none" stroke-width="3.0" stroke-linecap="butt" stroke-opacity="1.0" stroke="rgb(0, 0, 0)" stroke-linejoin="round" d=" M 131.085, 150.136 134.216, 159.633 137.346, 169.130 140.477, 178.628 143.620, 188.165 144.469, 190.739 144.913, 192.087 " />
            <path fill="none" stroke-width="3.0" stroke-linecap="butt" stroke-opacity="1.0" stroke="rgb(0, 0, 0)" stroke-linejoin="round" d=" M 122.174, 148.668 119.997, 158.428 117.821, 168.189 115.644, 177.949 113.468, 187.709 111.768, 195.332 111.614, 196.022 111.321, 197.334 " />
            <path fill="none" stroke-width="3.0" stroke-linecap="butt" stroke-opacity="1.0" stroke="rgb(0, 0, 0)" stroke-linejoin="round" d=" M 101.626, 200.470 105.899, 202.378 115.488, 205.215 117.405, 205.782 122.508, 206.067 126.020, 206.263 129.068, 206.434 132.548, 205.836 136.156, 205.216 140.452, 204.478 149.723, 200.731 151.183, 200.141 157.413, 196.033 160.335, 194.106 160.954, 193.698 163.639, 191.115 166.351, 188.505 169.517, 185.458 175.453, 177.410 176.683, 175.741 181.280, 166.860 182.310, 164.871 182.776, 163.501 183.626, 161.004 183.978, 159.972 184.887, 157.301 186.293, 153.170 188.122, 143.339 188.565, 140.956 188.982, 130.965 189.084, 128.545 188.645, 124.230 188.422, 122.034 188.250, 120.339 188.045, 118.329 187.834, 116.250 185.377, 106.557 184.828, 104.390 180.913, 95.189 180.105, 93.288 177.759, 89.599 175.743, 86.428 173.738, 83.274 173.570, 83.090 171.209, 80.522 165.843, 74.682 157.798, 68.742 156.583, 67.846 152.660, 66.051 149.364, 64.544 146.181, 63.088 143.343, 62.486 139.955, 61.768 134.928, 60.702 124.929, 60.897 123.182, 60.931 118.743, 61.990 " />
            <path fill="none" stroke-width="3.0" stroke-linecap="butt" stroke-opacity="1.0" stroke="rgb(0, 0, 0)" stroke-linejoin="round" d=" M 72.980, 167.151 74.865, 171.364 74.500, 171.579 69.522, 174.525 61.410, 179.326 53.627, 176.010 51.725, 171.937 60.408, 166.977 64.532, 164.620 64.762, 164.489 " />
            <path fill="none" stroke-width="3.0" stroke-linecap="butt" stroke-opacity="1.0" stroke="rgb(0, 0, 0)" stroke-linejoin="round" d=" M 61.410, 179.326 59.435, 175.051 " />
            <path fill="none" stroke-width="3.0" stroke-linecap="butt" stroke-opacity="1.0" stroke="rgb(0, 0, 0)" stroke-linejoin="round" d=" M 51.725, 171.937 59.435, 175.051 67.207, 170.518 69.144, 169.389 72.980, 167.151 64.762, 164.489 " />
            <path fill="none" stroke-width="3.0" stroke-linecap="butt" stroke-opacity="1.0" stroke="rgb(0, 0, 0)" stroke-linejoin="round" d=" M 118.758, 62.049 118.743, 61.990 116.364, 52.277 115.168, 47.392 111.373, 48.254 101.784, 51.263 104.233, 60.959 105.329, 65.300 105.331, 65.307 " />
            <path fill="none" stroke-width="3.0" stroke-linecap="butt" stroke-opacity="1.0" stroke="rgb(0, 0, 0)" stroke-linejoin="round" d=" M 157.413, 196.033 158.088, 197.241 167.573, 200.409 168.990, 200.882 171.644, 198.253 166.872, 189.465 166.351, 188.505 " />
            <path fill="none" stroke-width="3.0" stroke-linecap="butt" stroke-opacity="1.0" stroke="rgb(0, 0, 0)" stroke-linejoin="round" d=" M 69.522, 174.525 75.373, 182.635 75.944, 183.427 83.356, 190.140 85.315, 191.914 89.300, 194.176 " />
            <path fill="none" stroke-width="3.0" stroke-linecap="butt" stroke-opacity="1.0" stroke="rgb(0, 0, 0)" stroke-linejoin="round" d=" M 123.182, 60.931 113.491, 63.397 111.375, 63.935 102.475, 68.495 99.995, 69.766 92.268, 76.115 89.565, 78.335 83.273, 86.107 80.616, 89.389 79.140, 92.163 77.576, 95.101 73.633, 102.510 70.623, 112.046 69.021, 117.122 67.753, 127.041 67.051, 132.531 67.192, 135.316 67.391, 139.237 67.835, 147.977 70.134, 157.709 71.313, 162.700 75.395, 171.829 77.261, 176.002 83.065, 184.145 85.319, 187.306 92.700, 194.053 95.033, 196.185 103.721, 201.137 105.899, 202.378 " />
            <path fill="none" stroke-width="3.0" stroke-linecap="butt" stroke-opacity="1.0" stroke="rgb(0, 0, 0)" stroke-linejoin="round" d=" M 118.758, 62.049 115.017, 63.001 " />
            <path fill="none" stroke-width="3.0" stroke-linecap="butt" stroke-opacity="1.0" stroke="rgb(0, 0, 0)" stroke-linejoin="round" d=" M 105.331, 65.307 115.017, 63.001 115.002, 62.944 114.988, 62.886 112.589, 53.178 111.373, 48.254 " />
            <path fill="none" stroke-width="3.0" stroke-linecap="butt" stroke-opacity="1.0" stroke="rgb(0, 0, 0)" stroke-linejoin="round" d=" M 58.982, 126.476 58.339, 131.471 58.861, 141.458 59.103, 146.089 61.439, 155.813 62.454, 160.038 64.532, 164.620 " />
            <path fill="none" stroke-width="3.0" stroke-linecap="butt" stroke-opacity="1.0" stroke="rgb(0, 0, 0)" stroke-linejoin="round" d=" M 74.485, 86.795 71.337, 90.633 66.592, 99.436 64.636, 103.064 61.593, 112.590 60.218, 116.893 59.662, 121.206 " />
            <path fill="none" stroke-width="3.0" stroke-linecap="butt" stroke-opacity="1.0" stroke="rgb(0, 0, 0)" stroke-linejoin="round" d=" M 105.329, 65.300 100.978, 66.406 92.060, 70.932 89.990, 71.984 82.275, 78.246 " />
            <path fill="none" stroke-width="3.0" stroke-linecap="butt" stroke-opacity="1.0" stroke="rgb(0, 0, 0)" stroke-linejoin="round" d=" M 124.113, 66.727 134.108, 66.427 134.923, 66.403 144.727, 68.377 145.316, 68.496 154.448, 72.571 154.953, 72.796 163.045, 78.671 163.557, 79.042 168.043, 83.860 170.913, 86.944 171.074, 87.193 176.481, 95.605 176.859, 96.193 180.808, 105.380 181.279, 106.477 183.760, 116.165 184.098, 117.486 184.208, 118.557 184.393, 120.354 185.274, 128.912 184.857, 138.903 184.793, 140.451 182.954, 150.281 182.670, 151.803 179.794, 160.189 179.046, 162.372 178.945, 162.665 174.319, 171.530 173.690, 172.735 167.717, 180.756 167.006, 181.711 159.758, 188.601 159.035, 189.289 158.933, 189.354 155.079, 191.855 149.963, 195.174 140.659, 198.839 140.027, 199.088 130.155, 200.683 129.519, 200.785 119.541, 200.123 118.790, 200.073 114.720, 198.823 111.228, 197.750 108.240, 196.833 104.338, 194.559 98.311, 191.048 90.985, 184.242 89.463, 182.829 85.553, 177.269 83.204, 173.929 82.144, 172.422 78.104, 163.275 76.756, 160.222 74.484, 150.484 73.613, 146.752 73.228, 139.004 73.018, 134.792 72.911, 132.638 74.173, 122.718 74.702, 118.558 77.689, 109.015 78.886, 105.191 82.191, 98.917 84.144, 95.212 85.225, 93.160 91.472, 85.351 93.365, 82.984 101.044, 76.578 102.874, 75.050 108.960, 71.863 112.379, 70.072 113.281, 69.599 115.833, 68.922 124.113, 66.727 " />
            <path fill="none" stroke-width="3.0" stroke-linecap="butt" stroke-opacity="1.0" stroke="rgb(0, 0, 0)" stroke-linejoin="round" d=" M 145.397, 76.157 151.689, 80.598 158.602, 87.824 158.884, 88.119 164.395, 96.463 164.710, 96.940 164.788, 97.114 " />
            <path fill="none" stroke-width="3.0" stroke-linecap="butt" stroke-opacity="1.0" stroke="rgb(0, 0, 0)" stroke-linejoin="round" d=" M 182.776, 163.501 191.839, 165.156 193.061, 161.508 184.887, 157.301 " />
            <path fill="none" stroke-width="3.0" stroke-linecap="butt" stroke-opacity="1.0" stroke="rgb(0, 0, 0)" stroke-linejoin="round" d=" M 166.381, 100.721 169.051, 106.761 171.601, 116.430 171.826, 117.283 172.888, 127.226 172.993, 128.208 172.979, 128.551 " />
            <path fill="none" stroke-width="3.0" stroke-linecap="butt" stroke-opacity="1.0" stroke="rgb(0, 0, 0)" stroke-linejoin="round" d=" M 172.825, 132.288 172.537, 139.241 170.667, 149.065 170.472, 150.090 167.165, 159.527 166.840, 160.453 " />
            <path fill="none" stroke-width="3.0" stroke-linecap="butt" stroke-opacity="1.0" stroke="rgb(0, 0, 0)" stroke-linejoin="round" d=" M 165.059, 163.789 161.707, 170.061 155.635, 178.007 155.183, 178.599 147.839, 185.387 147.409, 185.785 146.903, 186.103 " />
            <path fill="none" stroke-width="3.0" stroke-linecap="butt" stroke-opacity="1.0" stroke="rgb(0, 0, 0)" stroke-linejoin="round" d=" M 143.620, 188.165 138.570, 191.339 129.218, 194.880 128.902, 194.999 119.014, 196.490 118.694, 196.538 115.418, 196.299 " />
            <path fill="none" stroke-width="3.0" stroke-linecap="butt" stroke-opacity="1.0" stroke="rgb(0, 0, 0)" stroke-linejoin="round" d=" M 111.614, 196.022 108.288, 195.780 104.338, 194.559 " />
            <path fill="none" stroke-width="3.0" stroke-linecap="butt" stroke-opacity="1.0" stroke="rgb(0, 0, 0)" stroke-linejoin="round" d=" M 115.833, 68.922 123.798, 68.656 133.616, 70.553 133.901, 70.608 142.070, 74.142 " />
            <path fill="none" stroke-width="3.0" stroke-linecap="butt" stroke-opacity="1.0" stroke="rgb(0, 0, 0)" stroke-linejoin="round" d=" M 89.319, 194.140 89.300, 194.176 84.578, 202.991 82.298, 207.248 85.712, 209.084 94.534, 213.793 94.634, 213.847 99.266, 204.985 101.626, 200.470 101.817, 200.105 98.374, 198.143 " />
            <path fill="none" stroke-width="3.0" stroke-linecap="butt" stroke-opacity="1.0" stroke="rgb(0, 0, 0)" stroke-linejoin="round" d=" M 91.106, 211.949 95.764, 203.101 98.001, 198.851 98.190, 198.493 98.374, 198.143 89.319, 194.140 " />
            <path fill="none" stroke-width="3.0" stroke-linecap="butt" stroke-opacity="1.0" stroke="rgb(0, 0, 0)" stroke-linejoin="round" d=" M 67.978, 122.354 65.199, 121.970 59.662, 121.206 52.827, 120.263 45.338, 119.888 44.718, 124.634 54.635, 125.915 58.982, 126.476 59.314, 126.519 67.354, 127.232 " />
            <path fill="none" stroke-width="3.0" stroke-linecap="butt" stroke-opacity="1.0" stroke="rgb(0, 0, 0)" stroke-linejoin="round" d=" M 52.179, 125.264 59.024, 126.152 59.355, 126.195 67.354, 127.232 67.978, 122.354 " />
            <path fill="none" stroke-width="3.0" stroke-linecap="butt" stroke-opacity="1.0" stroke="rgb(0, 0, 0)" stroke-linejoin="round" d=" M 86.137, 82.142 82.275, 78.246 75.238, 71.147 66.869, 73.204 64.037, 76.557 71.180, 83.557 74.485, 86.795 74.658, 86.965 83.301, 85.642 " />
            <path fill="none" stroke-width="3.0" stroke-linecap="butt" stroke-opacity="1.0" stroke="rgb(0, 0, 0)" stroke-linejoin="round" d=" M 72.297, 74.666 78.972, 81.323 80.717, 83.064 83.301, 85.642 86.137, 82.142 " />
            <path fill="none" stroke-width="3.0" stroke-linecap="butt" stroke-opacity="1.0" stroke="rgb(0, 0, 0)" stroke-linejoin="round" d=" M 177.759, 89.599 184.538, 82.247 184.974, 81.774 183.017, 78.612 173.093, 79.837 171.695, 80.010 171.209, 80.522 " />
            <path fill="none" stroke-width="3.0" stroke-linecap="butt" stroke-opacity="1.0" stroke="rgb(0, 0, 0)" stroke-linejoin="round" d=" M 188.645, 124.230 197.464, 122.327 197.087, 118.504 188.045, 118.329 " />
            <path fill="none" stroke-width="3.0" stroke-linecap="butt" stroke-opacity="1.0" stroke="rgb(0, 0, 0)" stroke-linejoin="round" d=" M 122.508, 206.067 122.512, 214.876 131.563, 219.129 132.541, 219.589 136.144, 218.878 136.153, 208.878 136.156, 205.216 " />
            <path fill="none" stroke-width="3.0" stroke-linecap="butt" stroke-opacity="1.0" stroke="rgb(0, 0, 0)" stroke-linejoin="round" d=" M 82.298, 207.248 91.106, 211.949 94.634, 213.847 " />
            <path fill="none" stroke-width="3.0" stroke-linecap="butt" stroke-opacity="1.0" stroke="rgb(0, 0, 0)" stroke-linejoin="round" d=" M 52.827, 120.263 52.179, 125.264 44.718, 124.634 " />
            <path fill="none" stroke-width="3.0" stroke-linecap="butt" stroke-opacity="1.0" stroke="rgb(0, 0, 0)" stroke-linejoin="round" d=" M 75.238, 71.147 72.297, 74.666 64.037, 76.557 " />
            <path fill="none" stroke-width="3.0" stroke-linecap="butt" stroke-opacity="1.0" stroke="rgb(0, 0, 0)" stroke-linejoin="round" d=" M 152.660, 66.051 155.013, 56.332 155.740, 53.326 152.479, 51.744 142.772, 54.146 141.777, 54.392 139.955, 61.768 " />
            <path fill="none" stroke-width="3.0" stroke-linecap="butt" stroke-opacity="1.0" stroke="rgb(0, 0, 0)" stroke-linejoin="round" d=" M 152.479, 51.744 150.114, 61.460 149.364, 64.544 " />
            <path fill="none" stroke-width="3.0" stroke-linecap="butt" stroke-opacity="1.0" stroke="rgb(0, 0, 0)" stroke-linejoin="round" d=" M 183.017, 78.612 176.204, 85.932 175.743, 86.428 " />
            <path fill="none" stroke-width="3.0" stroke-linecap="butt" stroke-opacity="1.0" stroke="rgb(0, 0, 0)" stroke-linejoin="round" d=" M 168.990, 200.882 164.185, 192.112 163.639, 191.115 " />
            <path fill="none" stroke-width="3.0" stroke-linecap="butt" stroke-opacity="1.0" stroke="rgb(0, 0, 0)" stroke-linejoin="round" d=" M 197.087, 118.504 188.250, 120.339 " />
            <path fill="none" stroke-width="3.0" stroke-linecap="butt" stroke-opacity="1.0" stroke="rgb(0, 0, 0)" stroke-linejoin="round" d=" M 132.541, 219.589 132.546, 209.589 132.548, 205.836 " />
            <path fill="none" stroke-width="3.0" stroke-linecap="butt" stroke-opacity="1.0" stroke="rgb(0, 0, 0)" stroke-linejoin="round" d=" M 145.370, 130.485 145.233, 129.305 145.217, 129.163 144.395, 126.259 143.322, 123.999 143.131, 123.598 141.463, 121.274 139.525, 119.444 139.445, 119.369 137.143, 117.955 136.251, 117.647 134.634, 117.088 132.006, 116.808 130.090, 117.041 129.351, 117.132 127.841, 117.673 126.769, 118.057 124.355, 119.558 122.374, 121.423 122.203, 121.584 121.231, 122.921 120.399, 124.065 119.796, 125.303 119.015, 126.909 118.532, 128.557 118.107, 130.007 118.004, 130.849 117.713, 133.240 117.849, 136.483 118.001, 137.205 118.449, 139.328 118.464, 139.395 118.509, 139.608 119.664, 142.497 121.267, 145.038 121.314, 145.088 122.655, 146.507 123.252, 147.139 125.541, 148.724 128.043, 149.743 128.287, 149.782 130.665, 150.164 131.085, 150.136 133.310, 149.982 135.882, 149.212 136.937, 148.633 138.293, 147.888 140.460, 146.064 140.589, 145.907 142.312, 143.808 143.790, 141.201 143.852, 141.031 144.693, 138.746 " />
            <path fill="none" stroke-width="3.0" stroke-linecap="butt" stroke-opacity="1.0" stroke="rgb(0, 0, 0)" stroke-linejoin="round" d=" M 112.881, 137.415 112.974, 137.851 113.163, 138.735 113.207, 138.943 114.346, 141.761 114.847, 142.548 " />
            <path fill="none" stroke-width="3.0" stroke-linecap="butt" stroke-opacity="1.0" stroke="rgb(0, 0, 0)" stroke-linejoin="round" d=" M 121.420, 117.898 121.330, 117.930 118.953, 119.393 117.866, 120.407 " />
            <path fill="none" stroke-width="3.0" stroke-linecap="butt" stroke-opacity="1.0" stroke="rgb(0, 0, 0)" stroke-linejoin="round" d=" M 119.068, 147.109 120.137, 147.844 122.174, 148.668 " />
            <path fill="none" stroke-width="3.0" stroke-linecap="butt" stroke-opacity="1.0" stroke="rgb(0, 0, 0)" stroke-linejoin="round" d=" M 114.254, 125.429 114.079, 125.786 113.699, 126.559 112.807, 129.580 112.605, 131.231 " />
            <path fill="none" stroke-width="3.0" stroke-linecap="butt" stroke-opacity="1.0" stroke="rgb(0, 0, 0)" stroke-linejoin="round" d=" M 132.006, 116.808 130.165, 116.776 127.535, 116.730 " />
            <path fill="none" stroke-width="3.0" stroke-linecap="butt" stroke-opacity="1.0" stroke="rgb(0, 0, 0)" stroke-linejoin="round" d=" M 133.434, 143.533 131.899, 143.266 130.506, 142.678 130.439, 142.650 129.847, 142.228 129.110, 141.704 127.960, 140.462 127.036, 138.968 126.371, 137.276 125.993, 135.449 125.916, 133.556 126.144, 131.669 126.668, 129.858 127.467, 128.192 128.511, 126.733 129.759, 125.533 131.163, 124.637 131.452, 124.529 132.243, 124.234 132.671, 124.075 134.226, 123.864 " />
            <path fill="none" stroke-width="3.0" stroke-linecap="butt" stroke-opacity="1.0" stroke="rgb(0, 0, 0)" stroke-linejoin="round" d=" M 139.926, 125.098 139.679, 124.949 139.093, 124.595 137.870, 124.187 137.605, 124.098 136.052, 123.952 135.783, 123.988 135.686, 124.001 134.489, 124.164 132.974, 124.732 132.725, 124.891 132.041, 125.329 131.563, 125.635 130.309, 126.844 129.261, 128.316 128.457, 129.995 127.931, 131.821 127.701, 133.724 127.778, 135.632 128.157, 137.473 128.825, 139.179 129.754, 140.685 130.586, 141.587 130.908, 141.936 131.176, 142.127 132.244, 142.889 133.710, 143.509 133.746, 143.515 135.253, 143.778 136.123, 143.728 136.815, 143.688 137.342, 143.535 138.340, 143.245 138.475, 143.173 " />
            <path fill="none" stroke-width="3.0" stroke-linecap="butt" stroke-opacity="1.0" stroke="rgb(0, 0, 0)" stroke-linejoin="round" d=" M 133.158, 141.321 132.943, 141.229 132.380, 140.825 131.855, 140.449 131.692, 140.271 130.916, 139.426 130.161, 138.197 129.618, 136.806 129.310, 135.306 129.248, 133.752 129.435, 132.202 129.863, 130.714 130.516, 129.345 131.369, 128.144 132.390, 127.156 132.893, 126.831 133.539, 126.415 133.684, 126.361 134.641, 125.999 " />
            <path fill="none" stroke-width="3.0" stroke-linecap="butt" stroke-opacity="1.0" stroke="rgb(0, 0, 0)" stroke-linejoin="round" d=" M 133.434, 143.533 135.253, 143.778 " />
            <path fill="none" stroke-width="3.0" stroke-linecap="butt" stroke-opacity="1.0" stroke="rgb(0, 0, 0)" stroke-linejoin="round" d=" M 136.052, 123.952 135.765, 123.938 134.226, 123.864 " />
            <path fill="none" stroke-width="3.0" stroke-linecap="butt" stroke-opacity="1.0" stroke="rgb(0, 0, 0)" stroke-linejoin="round" d=" M 131.043, 130.494 130.561, 132.169 130.351, 133.915 130.421, 135.666 130.601, 136.543 130.767, 137.355 131.376, 138.920 131.962, 139.876 132.225, 140.303 132.534, 140.641 133.158, 141.321 133.279, 141.453 134.500, 142.329 135.841, 142.900 136.484, 143.013 136.674, 143.047 136.681, 143.048 137.252, 143.148 137.752, 143.214 138.475, 143.173 139.184, 143.132 140.583, 142.726 141.899, 142.013 143.087, 141.019 143.395, 140.644 144.106, 139.781 144.693, 138.746 144.920, 138.345 145.503, 136.761 145.835, 135.083 145.836, 135.065 145.905, 133.372 145.709, 131.685 145.370, 130.485 145.256, 130.081 144.891, 129.315 144.558, 128.617 143.641, 127.345 142.535, 126.309 141.596, 125.742 141.278, 125.549 139.926, 125.098 139.913, 125.094 139.769, 125.081 138.489, 124.962 138.236, 124.949 137.987, 124.936 137.976, 124.937 136.557, 125.134 136.443, 125.177 135.172, 125.657 134.641, 125.999 133.882, 126.489 133.789, 126.578 133.097, 127.250 132.735, 127.600 131.777, 128.952 131.151, 130.265 131.043, 130.494 " />
            <path fill="none" stroke-width="3.0" stroke-linecap="butt" stroke-opacity="1.0" stroke="rgb(0, 0, 0)" stroke-linejoin="round" d=" M 137.752, 143.214 136.633, 143.017 136.524, 142.997 136.339, 142.965 134.997, 142.393 133.774, 141.515 132.744, 140.391 132.718, 140.363 132.184, 139.492 131.869, 138.977 131.259, 137.409 130.913, 135.715 130.843, 133.961 131.053, 132.211 131.536, 130.532 132.271, 128.987 133.231, 127.632 133.266, 127.597 133.958, 126.926 134.378, 126.518 135.670, 125.685 136.564, 125.347 137.057, 125.160 138.105, 125.015 138.489, 124.962 " />
            <path fill="none" stroke-width="3.0" stroke-linecap="butt" stroke-opacity="1.0" stroke="rgb(0, 0, 0)" stroke-linejoin="round" d=" M 108.006, 137.610 108.220, 137.758 109.270, 138.193 110.377, 138.388 113.163, 138.735 " />
            <path fill="none" stroke-width="3.0" stroke-linecap="butt" stroke-opacity="1.0" stroke="rgb(0, 0, 0)" stroke-linejoin="round" d=" M 113.672, 124.948 110.915, 124.788 109.795, 124.935 108.711, 125.325 107.704, 125.944 106.811, 126.771 106.066, 127.777 105.497, 128.923 105.125, 130.169 104.965, 131.468 104.985, 131.916 " />
            <path fill="none" stroke-width="3.0" stroke-linecap="butt" stroke-opacity="1.0" stroke="rgb(0, 0, 0)" stroke-linejoin="round" d=" M 115.519, 130.969 114.498, 131.060 112.605, 131.231 104.985, 131.916 95.025, 132.812 85.065, 133.708 75.105, 134.604 73.018, 134.792 " />
            <path fill="none" stroke-width="3.0" stroke-linecap="butt" stroke-opacity="1.0" stroke="rgb(0, 0, 0)" stroke-linejoin="round" d=" M 82.191, 98.917 89.898, 105.289 97.605, 111.662 105.311, 118.034 113.018, 124.407 113.672, 124.948 114.254, 125.429 115.907, 126.795 " />
            <path fill="none" stroke-width="3.0" stroke-linecap="butt" stroke-opacity="1.0" stroke="rgb(0, 0, 0)" stroke-linejoin="round" d=" M 73.228, 139.004 83.220, 138.603 93.212, 138.203 103.204, 137.803 108.006, 137.610 112.881, 137.415 113.807, 137.378 114.975, 137.331 " />
            <path fill="none" stroke-width="3.0" stroke-linecap="butt" stroke-opacity="1.0" stroke="rgb(0, 0, 0)" stroke-linejoin="round" d=" M 116.706, 140.705 114.847, 142.548 107.747, 149.590 100.646, 156.631 93.546, 163.673 86.445, 170.714 83.204, 173.929 " />
            <path fill="none" stroke-width="3.0" stroke-linecap="butt" stroke-opacity="1.0" stroke="rgb(0, 0, 0)" stroke-linejoin="round" d=" M 120.298, 122.225 117.866, 120.407 109.855, 114.422 101.844, 108.437 93.833, 102.451 85.822, 96.466 84.144, 95.212 " />
            <path fill="none" stroke-width="3.0" stroke-linecap="butt" stroke-opacity="1.0" stroke="rgb(0, 0, 0)" stroke-linejoin="round" d=" M 85.553, 177.269 92.987, 170.580 100.420, 163.891 107.853, 157.202 115.287, 150.512 119.068, 147.109 121.314, 145.088 " />
            <path fill="none" stroke-width="3.0" stroke-linecap="butt" stroke-opacity="1.0" stroke="rgb(0, 0, 0)" stroke-linejoin="round" d=" M 140.589, 145.907 148.663, 151.807 156.737, 157.707 164.811, 163.607 165.059, 163.789 168.258, 166.126 169.112, 166.750 " />
            <path fill="none" stroke-width="3.0" stroke-linecap="butt" stroke-opacity="1.0" stroke="rgb(0, 0, 0)" stroke-linejoin="round" d=" M 143.322, 123.999 150.359, 116.895 157.397, 109.791 164.434, 102.686 166.381, 100.721 169.414, 97.659 170.144, 96.923 " />
            <path fill="none" stroke-width="3.0" stroke-linecap="butt" stroke-opacity="1.0" stroke="rgb(0, 0, 0)" stroke-linejoin="round" d=" M 145.836, 135.065 155.783, 134.041 165.731, 133.018 172.825, 132.288 176.561, 131.903 178.589, 131.694 " />
            <path fill="none" stroke-width="3.0" stroke-linecap="butt" stroke-opacity="1.0" stroke="rgb(0, 0, 0)" stroke-linejoin="round" d=" M 183.626, 161.004 191.839, 165.156 " />
        </g>
    </g>
</svg>
