<?xml version='1.0' encoding='ascii'?>
<svg xmlns="http://www.w3.org/2000/svg" version="1.1" width="250" height="250">
    <g id="View Layer_LineSet" xmlns:inkscape="http://www.inkscape.org/namespaces/inkscape" inkscape:groupmode="lineset" inkscape:label="View Layer_LineSet">
        <g xmlns:inkscape="http://www.inkscape.org/namespaces/inkscape" inkscape:groupmode="layer" id="strokes" inkscape:label="strokes">
            <path fill="none" stroke-width="3.0" stroke-linecap="butt" stroke-opacity="1.0" stroke="rgb(0, 0, 0)" stroke-linejoin="round" d=" M 133.719, 70.077 133.645, 70.653 132.381, 80.573 131.117, 90.493 129.853, 100.413 128.589, 110.333 127.774, 116.731 127.760, 116.843 " />
            <path fill="none" stroke-width="3.0" stroke-linecap="butt" stroke-opacity="1.0" stroke="rgb(0, 0, 0)" stroke-linejoin="round" d=" M 162.735, 86.150 162.280, 86.714 159.946, 89.605 153.663, 97.386 147.381, 105.166 141.099, 112.946 137.058, 117.951 " />
            <path fill="none" stroke-width="3.0" stroke-linecap="butt" stroke-opacity="1.0" stroke="rgb(0, 0, 0)" stroke-linejoin="round" d=" M 177.121, 118.467 175.823, 118.770 172.130, 119.632 162.392, 121.903 152.653, 124.175 144.309, 126.122 " />
            <path fill="none" stroke-width="3.0" stroke-linecap="butt" stroke-opacity="1.0" stroke="rgb(0, 0, 0)" stroke-linejoin="round" d=" M 174.736, 154.739 173.221, 153.890 169.862, 152.007 161.138, 147.118 152.415, 142.229 145.010, 138.080 " />
            <path fill="none" stroke-width="3.0" stroke-linecap="butt" stroke-opacity="1.0" stroke="rgb(0, 0, 0)" stroke-linejoin="round" d=" M 156.015, 185.479 155.489, 184.283 155.474, 184.248 153.649, 180.102 149.623, 170.948 145.596, 161.795 141.569, 152.642 139.156, 147.157 " />
            <path fill="none" stroke-width="3.0" stroke-linecap="butt" stroke-opacity="1.0" stroke="rgb(0, 0, 0)" stroke-linejoin="round" d=" M 124.439, 198.813 124.690, 196.837 124.841, 195.643 126.100, 185.723 127.358, 175.802 128.616, 165.882 129.875, 155.961 130.613, 150.141 " />
            <path fill="none" stroke-width="3.0" stroke-linecap="butt" stroke-opacity="1.0" stroke="rgb(0, 0, 0)" stroke-linejoin="round" d=" M 125.745, 118.695 124.834, 116.901 120.308, 107.984 115.781, 99.067 111.255, 90.151 106.728, 81.234 103.572, 75.017 103.434, 74.745 " />
            <path fill="none" stroke-width="3.0" stroke-linecap="butt" stroke-opacity="1.0" stroke="rgb(0, 0, 0)" stroke-linejoin="round" d=" M 133.808, 149.818 138.390, 158.706 142.972, 167.595 147.554, 176.483 150.752, 182.688 152.329, 185.746 152.818, 186.696 152.944, 186.940 " />
            <path fill="none" stroke-width="3.0" stroke-linecap="butt" stroke-opacity="1.0" stroke="rgb(0, 0, 0)" stroke-linejoin="round" d=" M 124.506, 149.164 123.766, 159.137 123.026, 169.110 122.286, 179.082 121.545, 189.055 121.020, 196.137 120.997, 196.448 120.849, 198.435 " />
            <path fill="none" stroke-width="3.0" stroke-linecap="butt" stroke-opacity="1.0" stroke="rgb(0, 0, 0)" stroke-linejoin="round" d=" M 78.006, 185.209 84.352, 191.201 92.940, 196.325 94.763, 197.413 98.844, 199.235 102.238, 200.751 104.812, 201.900 108.334, 203.029 111.967, 204.193 116.278, 205.575 126.248, 206.355 127.946, 206.488 133.298, 205.686 136.734, 205.171 139.374, 204.776 142.691, 203.512 146.116, 202.206 150.183, 200.657 158.632, 195.308 160.058, 194.405 166.625, 188.298 168.747, 186.324 169.343, 185.543 171.070, 183.277 173.384, 180.241 176.056, 176.736 180.784, 167.924 181.836, 165.963 185.193, 156.544 185.982, 154.329 186.576, 151.364 186.803, 150.231 187.311, 147.694 187.575, 146.377 188.421, 142.151 188.976, 132.167 189.111, 129.745 188.239, 119.783 188.032, 117.426 187.020, 113.173 186.159, 109.559 186.121, 109.402 185.303, 105.966 185.195, 105.510 181.421, 96.249 180.635, 94.320 175.409, 85.794 174.423, 84.186 171.537, 80.931 169.081, 78.162 166.669, 75.441 165.589, 74.611 162.851, 72.508 157.532, 68.421 148.526, 64.075 147.230, 63.449 143.006, 62.457 139.461, 61.625 136.044, 60.822 132.919, 60.814 129.390, 60.804 124.328, 60.789 114.585, 63.041 112.507, 63.521 107.857, 64.629 " />
            <path fill="none" stroke-width="3.0" stroke-linecap="butt" stroke-opacity="1.0" stroke="rgb(0, 0, 0)" stroke-linejoin="round" d=" M 78.912, 178.617 81.407, 182.265 78.006, 185.209 70.447, 191.755 69.520, 192.557 61.446, 188.636 58.941, 185.130 66.598, 178.697 70.330, 175.562 70.492, 175.426 " />
            <path fill="none" stroke-width="3.0" stroke-linecap="butt" stroke-opacity="1.0" stroke="rgb(0, 0, 0)" stroke-linejoin="round" d=" M 69.520, 192.557 66.923, 188.887 " />
            <path fill="none" stroke-width="3.0" stroke-linecap="butt" stroke-opacity="1.0" stroke="rgb(0, 0, 0)" stroke-linejoin="round" d=" M 58.941, 185.130 66.923, 188.887 74.517, 182.382 74.851, 182.096 76.783, 180.441 78.912, 178.617 70.492, 175.426 " />
            <path fill="none" stroke-width="3.0" stroke-linecap="butt" stroke-opacity="1.0" stroke="rgb(0, 0, 0)" stroke-linejoin="round" d=" M 108.216, 65.496 107.873, 64.667 107.857, 64.629 104.032, 55.390 102.345, 51.314 93.040, 54.223 89.455, 55.853 93.374, 65.053 95.192, 69.320 95.227, 69.402 " />
            <path fill="none" stroke-width="3.0" stroke-linecap="butt" stroke-opacity="1.0" stroke="rgb(0, 0, 0)" stroke-linejoin="round" d=" M 166.625, 188.298 176.233, 191.072 177.539, 191.449 179.793, 188.421 173.626, 180.549 173.384, 180.241 " />
            <path fill="none" stroke-width="3.0" stroke-linecap="butt" stroke-opacity="1.0" stroke="rgb(0, 0, 0)" stroke-linejoin="round" d=" M 112.507, 63.521 103.512, 67.890 101.062, 69.080 93.209, 75.271 90.518, 77.392 84.078, 85.043 81.403, 88.222 76.546, 96.963 74.211, 101.166 73.724, 102.619 72.479, 106.336 69.355, 115.662 67.916, 125.558 67.121, 131.027 67.456, 141.021 67.639, 146.503 67.949, 147.927 68.781, 151.755 70.864, 161.327 74.775, 170.531 76.587, 174.795 82.229, 183.051 84.459, 186.313 91.698, 193.213 94.035, 195.441 101.651, 200.005 104.812, 201.900 " />
            <path fill="none" stroke-width="3.0" stroke-linecap="butt" stroke-opacity="1.0" stroke="rgb(0, 0, 0)" stroke-linejoin="round" d=" M 108.216, 65.496 104.589, 67.257 " />
            <path fill="none" stroke-width="3.0" stroke-linecap="butt" stroke-opacity="1.0" stroke="rgb(0, 0, 0)" stroke-linejoin="round" d=" M 95.227, 69.402 104.589, 67.257 104.242, 66.424 103.887, 65.576 100.034, 56.348 98.639, 53.006 " />
            <path fill="none" stroke-width="3.0" stroke-linecap="butt" stroke-opacity="1.0" stroke="rgb(0, 0, 0)" stroke-linejoin="round" d=" M 89.455, 55.853 98.639, 53.006 102.345, 51.314 " />
            <path fill="none" stroke-width="3.0" stroke-linecap="butt" stroke-opacity="1.0" stroke="rgb(0, 0, 0)" stroke-linejoin="round" d=" M 58.814, 141.810 58.914, 144.694 61.074, 154.457 62.021, 158.737 65.980, 167.920 67.531, 171.518 70.330, 175.562 " />
            <path fill="none" stroke-width="3.0" stroke-linecap="butt" stroke-opacity="1.0" stroke="rgb(0, 0, 0)" stroke-linejoin="round" d=" M 67.670, 97.384 65.190, 101.791 61.979, 111.262 60.537, 115.512 59.086, 125.406 58.405, 130.048 58.581, 135.124 " />
            <path fill="none" stroke-width="3.0" stroke-linecap="butt" stroke-opacity="1.0" stroke="rgb(0, 0, 0)" stroke-linejoin="round" d=" M 95.192, 69.320 91.019, 71.329 83.131, 77.474 80.859, 79.244 74.371, 86.854 72.815, 88.680 " />
            <path fill="none" stroke-width="3.0" stroke-linecap="butt" stroke-opacity="1.0" stroke="rgb(0, 0, 0)" stroke-linejoin="round" d=" M 125.166, 66.585 135.166, 66.509 135.953, 66.503 145.711, 68.690 146.286, 68.819 155.332, 73.083 155.834, 73.319 160.111, 76.553 163.619, 79.205 164.326, 79.739 171.008, 87.179 171.552, 87.784 176.820, 96.284 177.355, 97.147 181.162, 106.394 181.333, 106.811 181.623, 107.515 182.135, 109.643 184.284, 118.578 185.167, 128.539 185.299, 130.028 184.745, 140.013 184.659, 141.562 183.027, 149.660 182.818, 150.697 182.378, 152.880 179.000, 162.292 178.502, 163.678 173.744, 172.473 173.104, 173.656 167.004, 181.580 166.801, 181.844 166.289, 182.509 163.726, 184.863 158.202, 189.936 149.713, 195.221 149.035, 195.643 139.659, 199.119 139.030, 199.352 134.333, 200.008 132.490, 200.265 128.485, 200.824 124.124, 200.437 120.944, 200.154 117.755, 199.871 108.264, 196.722 107.246, 196.384 104.318, 194.592 97.401, 190.357 92.237, 185.356 89.392, 182.600 88.682, 181.912 83.090, 173.622 81.533, 171.313 77.663, 162.092 76.350, 158.965 74.499, 150.347 73.614, 146.230 73.437, 145.405 73.111, 135.410 72.976, 131.264 74.406, 121.366 75.005, 117.223 77.679, 109.170 79.015, 105.148 79.410, 103.960 84.229, 95.198 85.940, 92.087 92.333, 84.398 94.232, 82.114 100.319, 77.239 103.434, 74.745 103.849, 74.412 112.804, 69.961 114.318, 69.208 115.794, 68.851 125.166, 66.585 " />
            <path fill="none" stroke-width="3.0" stroke-linecap="butt" stroke-opacity="1.0" stroke="rgb(0, 0, 0)" stroke-linejoin="round" d=" M 137.246, 72.010 144.149, 75.165 152.206, 81.088 152.440, 81.261 159.222, 88.609 159.509, 88.920 159.946, 89.605 " />
            <path fill="none" stroke-width="3.0" stroke-linecap="butt" stroke-opacity="1.0" stroke="rgb(0, 0, 0)" stroke-linejoin="round" d=" M 186.576, 151.364 195.425, 152.575 196.174, 148.789 187.575, 146.377 " />
            <path fill="none" stroke-width="3.0" stroke-linecap="butt" stroke-opacity="1.0" stroke="rgb(0, 0, 0)" stroke-linejoin="round" d=" M 162.070, 92.941 165.197, 97.851 169.095, 107.059 169.388, 107.753 171.795, 117.459 172.010, 118.327 172.130, 119.632 " />
            <path fill="none" stroke-width="3.0" stroke-linecap="butt" stroke-opacity="1.0" stroke="rgb(0, 0, 0)" stroke-linejoin="round" d=" M 172.478, 123.400 173.020, 129.275 172.465, 139.260 172.407, 140.303 170.397, 150.099 170.188, 151.118 169.862, 152.007 " />
            <path fill="none" stroke-width="3.0" stroke-linecap="butt" stroke-opacity="1.0" stroke="rgb(0, 0, 0)" stroke-linejoin="round" d=" M 168.566, 155.538 166.406, 161.427 161.558, 170.174 161.135, 170.938 154.936, 178.785 154.483, 179.358 153.649, 180.102 " />
            <path fill="none" stroke-width="3.0" stroke-linecap="butt" stroke-opacity="1.0" stroke="rgb(0, 0, 0)" stroke-linejoin="round" d=" M 150.752, 182.688 146.597, 186.398 138.032, 191.559 137.667, 191.779 128.246, 195.133 127.933, 195.244 124.841, 195.643 " />
            <path fill="none" stroke-width="3.0" stroke-linecap="butt" stroke-opacity="1.0" stroke="rgb(0, 0, 0)" stroke-linejoin="round" d=" M 121.020, 196.137 117.691, 196.567 107.735, 195.623 107.285, 195.581 104.318, 194.592 " />
            <path fill="none" stroke-width="3.0" stroke-linecap="butt" stroke-opacity="1.0" stroke="rgb(0, 0, 0)" stroke-linejoin="round" d=" M 115.794, 68.851 124.798, 68.747 133.645, 70.653 " />
            <path fill="none" stroke-width="3.0" stroke-linecap="butt" stroke-opacity="1.0" stroke="rgb(0, 0, 0)" stroke-linejoin="round" d=" M 58.911, 135.102 58.581, 135.124 48.604, 135.795 44.182, 136.092 44.358, 140.860 51.793, 142.358 58.814, 141.810 64.403, 141.374 67.093, 141.164 66.929, 136.264 " />
            <path fill="none" stroke-width="3.0" stroke-linecap="butt" stroke-opacity="1.0" stroke="rgb(0, 0, 0)" stroke-linejoin="round" d=" M 51.613, 137.336 58.641, 136.844 58.970, 136.821 66.929, 136.264 58.911, 135.102 " />
            <path fill="none" stroke-width="3.0" stroke-linecap="butt" stroke-opacity="1.0" stroke="rgb(0, 0, 0)" stroke-linejoin="round" d=" M 78.576, 92.654 77.519, 91.925 72.815, 88.680 65.892, 83.903 57.876, 85.351 55.595, 89.305 63.906, 94.866 67.670, 97.384 67.909, 97.544 76.297, 96.752 " />
            <path fill="none" stroke-width="3.0" stroke-linecap="butt" stroke-opacity="1.0" stroke="rgb(0, 0, 0)" stroke-linejoin="round" d=" M 63.519, 88.061 70.316, 92.684 71.489, 93.482 76.297, 96.752 78.576, 92.654 " />
            <path fill="none" stroke-width="3.0" stroke-linecap="butt" stroke-opacity="1.0" stroke="rgb(0, 0, 0)" stroke-linejoin="round" d=" M 171.537, 80.931 177.047, 72.586 177.791, 71.459 175.395, 68.672 165.526, 70.288 164.209, 70.504 162.851, 72.508 " />
            <path fill="none" stroke-width="3.0" stroke-linecap="butt" stroke-opacity="1.0" stroke="rgb(0, 0, 0)" stroke-linejoin="round" d=" M 187.020, 113.173 195.598, 109.448 194.735, 105.733 185.303, 105.966 " />
            <path fill="none" stroke-width="3.0" stroke-linecap="butt" stroke-opacity="1.0" stroke="rgb(0, 0, 0)" stroke-linejoin="round" d=" M 133.298, 205.686 134.221, 211.879 143.398, 215.851 144.558, 216.353 147.954, 214.973 146.529, 205.075 146.116, 202.206 " />
            <path fill="none" stroke-width="3.0" stroke-linecap="butt" stroke-opacity="1.0" stroke="rgb(0, 0, 0)" stroke-linejoin="round" d=" M 98.844, 199.235 95.509, 208.663 94.133, 212.555 102.974, 217.227 103.327, 217.413 107.021, 218.491 110.291, 209.040 111.967, 204.193 " />
            <path fill="none" stroke-width="3.0" stroke-linecap="butt" stroke-opacity="1.0" stroke="rgb(0, 0, 0)" stroke-linejoin="round" d=" M 44.182, 136.092 51.613, 137.336 51.793, 142.358 " />
            <path fill="none" stroke-width="3.0" stroke-linecap="butt" stroke-opacity="1.0" stroke="rgb(0, 0, 0)" stroke-linejoin="round" d=" M 65.892, 83.903 63.519, 88.061 55.595, 89.305 " />
            <path fill="none" stroke-width="3.0" stroke-linecap="butt" stroke-opacity="1.0" stroke="rgb(0, 0, 0)" stroke-linejoin="round" d=" M 143.006, 62.457 143.953, 52.502 144.314, 48.719 140.781, 47.795 131.143, 50.460 130.365, 50.676 129.407, 60.630 129.390, 60.804 " />
            <path fill="none" stroke-width="3.0" stroke-linecap="butt" stroke-opacity="1.0" stroke="rgb(0, 0, 0)" stroke-linejoin="round" d=" M 140.781, 47.795 139.831, 57.750 139.461, 61.625 " />
            <path fill="none" stroke-width="3.0" stroke-linecap="butt" stroke-opacity="1.0" stroke="rgb(0, 0, 0)" stroke-linejoin="round" d=" M 175.395, 68.672 169.856, 76.998 169.081, 78.162 " />
            <path fill="none" stroke-width="3.0" stroke-linecap="butt" stroke-opacity="1.0" stroke="rgb(0, 0, 0)" stroke-linejoin="round" d=" M 177.539, 191.449 171.333, 183.608 171.070, 183.277 " />
            <path fill="none" stroke-width="3.0" stroke-linecap="butt" stroke-opacity="1.0" stroke="rgb(0, 0, 0)" stroke-linejoin="round" d=" M 194.735, 105.733 186.121, 109.402 " />
            <path fill="none" stroke-width="3.0" stroke-linecap="butt" stroke-opacity="1.0" stroke="rgb(0, 0, 0)" stroke-linejoin="round" d=" M 144.558, 216.353 143.119, 206.457 142.691, 203.512 " />
            <path fill="none" stroke-width="3.0" stroke-linecap="butt" stroke-opacity="1.0" stroke="rgb(0, 0, 0)" stroke-linejoin="round" d=" M 103.327, 217.413 106.614, 207.969 108.334, 203.029 " />
            <path fill="none" stroke-width="3.0" stroke-linecap="butt" stroke-opacity="1.0" stroke="rgb(0, 0, 0)" stroke-linejoin="round" d=" M 145.374, 130.469 145.272, 129.453 144.495, 126.531 144.309, 126.122 143.272, 123.842 141.742, 121.628 141.641, 121.482 139.654, 119.533 137.376, 118.069 137.058, 117.951 134.884, 117.147 133.932, 117.024 132.263, 116.808 129.607, 117.074 127.647, 117.730 127.013, 117.942 125.745, 118.695 124.578, 119.389 122.397, 121.367 120.994, 123.226 120.556, 123.808 119.998, 124.908 119.801, 125.295 119.128, 126.621 118.173, 129.699 118.011, 130.873 117.728, 132.925 117.736, 133.238 117.813, 136.172 118.423, 139.314 118.455, 139.399 118.498, 139.513 119.204, 141.369 119.532, 142.231 121.094, 144.810 122.906, 146.804 123.045, 146.957 124.587, 148.073 125.308, 148.595 127.794, 149.670 130.409, 150.150 130.613, 150.141 133.056, 150.026 133.808, 149.818 135.639, 149.311 138.069, 148.038 139.156, 147.157 140.263, 146.260 142.149, 144.043 142.545, 143.369 143.665, 141.466 144.736, 138.687 " />
            <path fill="none" stroke-width="3.0" stroke-linecap="butt" stroke-opacity="1.0" stroke="rgb(0, 0, 0)" stroke-linejoin="round" d=" M 113.888, 140.648 114.216, 141.502 115.755, 144.019 116.537, 144.872 " />
            <path fill="none" stroke-width="3.0" stroke-linecap="butt" stroke-opacity="1.0" stroke="rgb(0, 0, 0)" stroke-linejoin="round" d=" M 119.124, 119.273 117.027, 121.157 115.735, 122.853 " />
            <path fill="none" stroke-width="3.0" stroke-linecap="butt" stroke-opacity="1.0" stroke="rgb(0, 0, 0)" stroke-linejoin="round" d=" M 121.601, 148.445 122.358, 148.770 124.506, 149.164 " />
            <path fill="none" stroke-width="3.0" stroke-linecap="butt" stroke-opacity="1.0" stroke="rgb(0, 0, 0)" stroke-linejoin="round" d=" M 113.120, 128.486 112.872, 129.280 112.436, 132.425 112.494, 134.588 " />
            <path fill="none" stroke-width="3.0" stroke-linecap="butt" stroke-opacity="1.0" stroke="rgb(0, 0, 0)" stroke-linejoin="round" d=" M 127.774, 116.731 126.743, 116.713 124.834, 116.901 " />
            <path fill="none" stroke-width="3.0" stroke-linecap="butt" stroke-opacity="1.0" stroke="rgb(0, 0, 0)" stroke-linejoin="round" d=" M 133.284, 143.523 131.754, 143.221 130.514, 142.666 130.304, 142.572 129.848, 142.234 128.990, 141.597 127.861, 140.328 126.959, 138.812 126.322, 137.104 125.972, 135.268 125.925, 133.372 126.182, 131.489 126.734, 129.689 127.558, 128.041 128.624, 126.604 129.889, 125.433 131.305, 124.568 131.457, 124.515 132.230, 124.245 132.820, 124.039 134.377, 123.863 " />
            <path fill="none" stroke-width="3.0" stroke-linecap="butt" stroke-opacity="1.0" stroke="rgb(0, 0, 0)" stroke-linejoin="round" d=" M 139.944, 125.112 139.481, 124.819 139.281, 124.693 139.232, 124.661 137.877, 124.176 137.753, 124.131 136.203, 123.950 135.785, 123.998 135.660, 124.012 134.639, 124.128 133.117, 124.662 132.735, 124.896 132.032, 125.327 131.694, 125.534 130.423, 126.715 129.352, 128.163 128.523, 129.825 127.969, 131.640 127.710, 133.538 127.757, 135.449 128.108, 137.300 128.748, 139.021 129.653, 140.549 130.571, 141.583 130.788, 141.828 131.193, 142.129 132.108, 142.811 133.564, 143.464 133.775, 143.506 134.140, 143.578 135.102, 143.767 136.136, 143.731 136.664, 143.712 137.455, 143.501 137.538, 143.479 138.196, 143.303 138.444, 143.175 " />
            <path fill="none" stroke-width="3.0" stroke-linecap="butt" stroke-opacity="1.0" stroke="rgb(0, 0, 0)" stroke-linejoin="round" d=" M 133.117, 141.294 132.833, 141.165 132.384, 140.830 131.757, 140.360 131.696, 140.291 130.834, 139.316 130.099, 138.069 129.578, 136.665 129.293, 135.157 129.256, 133.601 129.466, 132.054 129.917, 130.576 130.590, 129.220 131.461, 128.038 132.496, 127.073 132.892, 126.828 133.656, 126.358 133.689, 126.346 134.608, 126.021 " />
            <path fill="none" stroke-width="3.0" stroke-linecap="butt" stroke-opacity="1.0" stroke="rgb(0, 0, 0)" stroke-linejoin="round" d=" M 133.284, 143.523 134.041, 143.625 135.102, 143.767 " />
            <path fill="none" stroke-width="3.0" stroke-linecap="butt" stroke-opacity="1.0" stroke="rgb(0, 0, 0)" stroke-linejoin="round" d=" M 136.203, 123.950 135.703, 123.926 134.377, 123.863 " />
            <path fill="none" stroke-width="3.0" stroke-linecap="butt" stroke-opacity="1.0" stroke="rgb(0, 0, 0)" stroke-linejoin="round" d=" M 130.596, 132.003 130.360, 133.745 130.402, 135.498 130.602, 136.559 130.722, 137.196 131.306, 138.776 131.952, 139.871 132.133, 140.179 132.545, 140.645 133.117, 141.294 133.169, 141.353 134.376, 142.257 135.707, 142.859 136.101, 142.937 136.468, 143.010 136.657, 143.048 137.114, 143.139 137.396, 143.175 137.614, 143.204 138.444, 143.175 139.046, 143.154 140.450, 142.779 140.847, 142.575 141.777, 142.094 142.979, 141.126 144.016, 139.911 144.736, 138.687 144.851, 138.491 145.010, 138.080 145.458, 136.919 145.814, 135.248 145.909, 133.537 145.740, 131.845 145.720, 131.772 145.374, 130.469 145.310, 130.231 144.636, 128.751 143.739, 127.458 142.742, 126.488 142.649, 126.398 141.405, 125.610 140.048, 125.124 139.944, 125.112 139.324, 125.040 139.290, 125.036 138.628, 124.960 138.228, 124.939 138.126, 124.934 137.996, 124.949 137.371, 125.022 136.695, 125.100 135.302, 125.592 134.608, 126.021 134.001, 126.395 133.799, 126.584 133.088, 127.248 132.839, 127.481 131.860, 128.812 131.150, 130.244 131.103, 130.338 130.596, 132.003 " />
            <path fill="none" stroke-width="3.0" stroke-linecap="butt" stroke-opacity="1.0" stroke="rgb(0, 0, 0)" stroke-linejoin="round" d=" M 137.614, 143.204 137.388, 143.159 136.516, 142.985 136.212, 142.925 136.206, 142.923 134.872, 142.321 133.664, 141.415 132.761, 140.391 132.627, 140.238 132.183, 139.486 131.799, 138.833 131.214, 137.249 130.894, 135.547 130.851, 133.790 131.088, 132.045 131.596, 130.376 132.354, 128.846 133.259, 127.615 133.334, 127.513 133.959, 126.928 134.498, 126.425 135.801, 125.620 137.195, 125.127 137.525, 125.088 138.109, 125.020 138.628, 124.960 " />
            <path fill="none" stroke-width="3.0" stroke-linecap="butt" stroke-opacity="1.0" stroke="rgb(0, 0, 0)" stroke-linejoin="round" d=" M 108.054, 125.725 107.799, 125.875 106.893, 126.683 106.132, 127.672 105.545, 128.807 105.153, 130.046 104.972, 131.341 105.009, 132.646 105.261, 133.912 105.720, 135.092 106.367, 136.141 106.571, 136.362 " />
            <path fill="none" stroke-width="3.0" stroke-linecap="butt" stroke-opacity="1.0" stroke="rgb(0, 0, 0)" stroke-linejoin="round" d=" M 114.362, 134.029 112.494, 134.588 106.571, 136.362 96.991, 139.230 87.411, 142.099 77.831, 144.967 73.614, 146.230 " />
            <path fill="none" stroke-width="3.0" stroke-linecap="butt" stroke-opacity="1.0" stroke="rgb(0, 0, 0)" stroke-linejoin="round" d=" M 77.679, 109.170 86.460, 113.956 95.240, 118.741 104.021, 123.527 108.054, 125.725 113.120, 128.486 114.853, 129.431 " />
            <path fill="none" stroke-width="3.0" stroke-linecap="butt" stroke-opacity="1.0" stroke="rgb(0, 0, 0)" stroke-linejoin="round" d=" M 74.499, 150.347 84.209, 147.956 93.918, 145.565 103.628, 143.174 113.338, 140.783 113.888, 140.648 116.291, 140.056 " />
            <path fill="none" stroke-width="3.0" stroke-linecap="butt" stroke-opacity="1.0" stroke="rgb(0, 0, 0)" stroke-linejoin="round" d=" M 116.537, 144.872 110.697, 152.989 104.857, 161.107 99.016, 169.224 93.176, 177.341 89.392, 182.600 " />
            <path fill="none" stroke-width="3.0" stroke-linecap="butt" stroke-opacity="1.0" stroke="rgb(0, 0, 0)" stroke-linejoin="round" d=" M 118.008, 123.948 115.735, 122.853 106.728, 118.510 97.720, 114.167 88.712, 109.824 79.705, 105.481 79.015, 105.148 " />
            <path fill="none" stroke-width="3.0" stroke-linecap="butt" stroke-opacity="1.0" stroke="rgb(0, 0, 0)" stroke-linejoin="round" d=" M 100.319, 77.239 104.403, 86.367 108.487, 95.495 112.570, 104.624 116.654, 113.752 119.124, 119.273 " />
            <path fill="none" stroke-width="3.0" stroke-linecap="butt" stroke-opacity="1.0" stroke="rgb(0, 0, 0)" stroke-linejoin="round" d=" M 92.237, 185.356 98.463, 177.530 104.688, 169.704 110.914, 161.879 117.139, 154.053 121.601, 148.445 122.906, 146.804 " />
            <path fill="none" stroke-width="3.0" stroke-linecap="butt" stroke-opacity="1.0" stroke="rgb(0, 0, 0)" stroke-linejoin="round" d=" M 133.932, 117.024 134.666, 107.051 135.400, 97.078 136.134, 87.105 136.869, 77.132 137.246, 72.010 137.362, 70.427 " />
            <path fill="none" stroke-width="3.0" stroke-linecap="butt" stroke-opacity="1.0" stroke="rgb(0, 0, 0)" stroke-linejoin="round" d=" M 141.742, 121.628 147.524, 113.469 153.305, 105.310 159.087, 97.151 162.070, 92.941 164.687, 89.247 165.031, 88.762 " />
            <path fill="none" stroke-width="3.0" stroke-linecap="butt" stroke-opacity="1.0" stroke="rgb(0, 0, 0)" stroke-linejoin="round" d=" M 142.545, 143.369 151.603, 147.605 160.662, 151.841 168.566, 155.538 172.031, 157.158 173.238, 157.722 " />
            <path fill="none" stroke-width="3.0" stroke-linecap="butt" stroke-opacity="1.0" stroke="rgb(0, 0, 0)" stroke-linejoin="round" d=" M 145.720, 131.772 155.264, 128.786 164.808, 125.800 172.478, 123.400 176.141, 122.254 178.016, 121.667 " />
            <path fill="none" stroke-width="3.0" stroke-linecap="butt" stroke-opacity="1.0" stroke="rgb(0, 0, 0)" stroke-linejoin="round" d=" M 186.803, 150.231 195.425, 152.575 " />
        </g>
    </g>
</svg>
