<?xml version='1.0' encoding='ascii'?>
<svg xmlns="http://www.w3.org/2000/svg" version="1.1" width="250" height="250">
    <g id="View Layer_LineSet" xmlns:inkscape="http://www.inkscape.org/namespaces/inkscape" inkscape:groupmode="lineset" inkscape:label="View Layer_LineSet">
        <g xmlns:inkscape="http://www.inkscape.org/namespaces/inkscape" inkscape:groupmode="layer" id="strokes" inkscape:label="strokes">
            <path fill="none" stroke-width="3.0" stroke-linecap="butt" stroke-opacity="1.0" stroke="rgb(0, 0, 0)" stroke-linejoin="round" d=" M 106.731, 73.044 106.775, 73.184 109.757, 82.729 112.738, 92.274 115.720, 101.820 118.701, 111.365 120.833, 118.189 " />
            <path fill="none" stroke-width="3.0" stroke-linecap="butt" stroke-opacity="1.0" stroke="rgb(0, 0, 0)" stroke-linejoin="round" d=" M 140.338, 71.886 140.041, 73.126 137.705, 82.849 135.369, 92.572 133.034, 102.296 130.698, 112.019 129.551, 116.795 " />
            <path fill="none" stroke-width="3.0" stroke-linecap="butt" stroke-opacity="1.0" stroke="rgb(0, 0, 0)" stroke-linejoin="round" d=" M 166.757, 92.205 166.554, 92.401 163.678, 95.172 156.476, 102.109 149.274, 109.047 142.072, 115.985 138.940, 119.001 " />
            <path fill="none" stroke-width="3.0" stroke-linecap="butt" stroke-opacity="1.0" stroke="rgb(0, 0, 0)" stroke-linejoin="round" d=" M 178.207, 125.897 176.592, 126.023 172.867, 126.316 162.897, 127.097 152.928, 127.879 145.072, 128.495 " />
            <path fill="none" stroke-width="3.0" stroke-linecap="butt" stroke-opacity="1.0" stroke="rgb(0, 0, 0)" stroke-linejoin="round" d=" M 172.215, 161.851 170.832, 160.790 167.692, 158.379 159.760, 152.290 151.828, 146.201 144.153, 140.308 " />
            <path fill="none" stroke-width="3.0" stroke-linecap="butt" stroke-opacity="1.0" stroke="rgb(0, 0, 0)" stroke-linejoin="round" d=" M 150.273, 189.886 150.072, 189.232 149.862, 188.549 148.680, 184.699 145.745, 175.139 142.810, 165.579 139.875, 156.020 137.507, 148.310 " />
            <path fill="none" stroke-width="3.0" stroke-linecap="butt" stroke-opacity="1.0" stroke="rgb(0, 0, 0)" stroke-linejoin="round" d=" M 117.270, 198.571 117.743, 196.589 117.808, 196.316 120.124, 186.588 122.441, 176.860 124.758, 167.132 127.074, 157.404 128.857, 149.916 " />
            <path fill="none" stroke-width="3.0" stroke-linecap="butt" stroke-opacity="1.0" stroke="rgb(0, 0, 0)" stroke-linejoin="round" d=" M 126.896, 116.786 126.882, 116.749 123.432, 107.363 119.981, 97.977 116.531, 88.591 113.080, 79.205 110.418, 71.964 110.089, 71.069 " />
            <path fill="none" stroke-width="3.0" stroke-linecap="butt" stroke-opacity="1.0" stroke="rgb(0, 0, 0)" stroke-linejoin="round" d=" M 131.764, 150.116 135.259, 159.485 138.754, 168.854 142.249, 178.224 145.487, 186.902 146.489, 189.588 146.979, 190.900 " />
            <path fill="none" stroke-width="3.0" stroke-linecap="butt" stroke-opacity="1.0" stroke="rgb(0, 0, 0)" stroke-linejoin="round" d=" M 122.754, 148.839 120.935, 158.672 119.115, 168.506 117.296, 178.339 115.477, 188.172 114.067, 195.792 113.986, 196.232 113.696, 197.796 " />
            <path fill="none" stroke-width="3.0" stroke-linecap="butt" stroke-opacity="1.0" stroke="rgb(0, 0, 0)" stroke-linejoin="round" d=" M 104.228, 201.504 108.459, 203.391 118.184, 205.721 120.042, 206.166 125.193, 206.187 128.695, 206.201 131.678, 206.213 135.124, 205.444 138.695, 204.646 142.945, 203.698 152.032, 199.525 153.484, 198.859 159.795, 194.299 162.640, 192.244 163.001, 191.983 165.600, 189.277 168.216, 186.553 171.263, 183.381 176.901, 175.121 178.093, 173.375 182.382, 164.342 183.356, 162.290 183.894, 160.522 184.552, 158.358 184.980, 156.950 185.691, 154.610 186.958, 150.446 188.469, 140.560 188.836, 138.160 188.933, 128.160 188.956, 125.747 188.375, 121.438 188.031, 118.884 187.854, 117.570 187.534, 115.200 187.308, 113.523 184.522, 103.919 183.909, 101.805 179.665, 92.751 178.807, 90.920 176.323, 87.328 174.194, 84.249 172.084, 81.197 171.693, 80.806 169.234, 78.346 163.864, 72.973 155.557, 67.405 154.325, 66.579 150.316, 64.976 146.950, 63.631 143.703, 62.332 140.757, 61.864 137.325, 61.317 132.304, 60.518 122.329, 61.232 120.505, 61.363 116.027, 62.436 " />
            <path fill="none" stroke-width="3.0" stroke-linecap="butt" stroke-opacity="1.0" stroke="rgb(0, 0, 0)" stroke-linejoin="round" d=" M 74.293, 170.159 76.340, 174.243 76.324, 174.254 71.480, 177.429 63.241, 182.830 55.392, 179.350 53.329, 175.406 61.775, 170.053 65.817, 167.491 66.031, 167.355 " />
            <path fill="none" stroke-width="3.0" stroke-linecap="butt" stroke-opacity="1.0" stroke="rgb(0, 0, 0)" stroke-linejoin="round" d=" M 63.241, 182.830 61.100, 178.693 " />
            <path fill="none" stroke-width="3.0" stroke-linecap="butt" stroke-opacity="1.0" stroke="rgb(0, 0, 0)" stroke-linejoin="round" d=" M 53.329, 175.406 61.100, 178.693 68.932, 173.627 70.965, 172.312 74.293, 170.159 66.031, 167.355 " />
            <path fill="none" stroke-width="3.0" stroke-linecap="butt" stroke-opacity="1.0" stroke="rgb(0, 0, 0)" stroke-linejoin="round" d=" M 116.101, 62.696 116.027, 62.436 113.286, 52.818 111.944, 48.108 108.158, 49.177 98.669, 52.159 101.486, 61.754 102.762, 66.100 102.770, 66.126 " />
            <path fill="none" stroke-width="3.0" stroke-linecap="butt" stroke-opacity="1.0" stroke="rgb(0, 0, 0)" stroke-linejoin="round" d=" M 159.795, 194.299 160.301, 195.123 169.818, 198.194 171.252, 198.657 173.810, 195.921 168.683, 187.335 168.216, 186.553 " />
            <path fill="none" stroke-width="3.0" stroke-linecap="butt" stroke-opacity="1.0" stroke="rgb(0, 0, 0)" stroke-linejoin="round" d=" M 71.480, 177.429 77.702, 185.258 77.937, 185.554 85.667, 191.897 87.605, 193.487 91.669, 195.529 " />
            <path fill="none" stroke-width="3.0" stroke-linecap="butt" stroke-opacity="1.0" stroke="rgb(0, 0, 0)" stroke-linejoin="round" d=" M 120.505, 61.363 110.953, 64.323 108.750, 65.006 100.086, 69.999 97.537, 71.468 90.116, 78.171 87.397, 80.626 81.453, 88.668 78.851, 92.190 77.707, 94.575 76.156, 97.812 72.373, 105.703 69.752, 115.353 68.338, 120.559 67.469, 130.521 66.986, 136.044 67.210, 138.486 67.567, 142.392 68.390, 151.391 71.094, 161.019 72.451, 165.851 76.930, 174.792 78.911, 178.747 85.088, 186.611 87.385, 189.535 95.090, 195.910 97.404, 197.824 106.336, 202.322 108.459, 203.391 " />
            <path fill="none" stroke-width="3.0" stroke-linecap="butt" stroke-opacity="1.0" stroke="rgb(0, 0, 0)" stroke-linejoin="round" d=" M 116.101, 62.696 112.376, 63.850 " />
            <path fill="none" stroke-width="3.0" stroke-linecap="butt" stroke-opacity="1.0" stroke="rgb(0, 0, 0)" stroke-linejoin="round" d=" M 102.770, 66.126 112.376, 63.850 112.304, 63.600 112.231, 63.345 109.468, 53.734 108.158, 49.177 " />
            <path fill="none" stroke-width="3.0" stroke-linecap="butt" stroke-opacity="1.0" stroke="rgb(0, 0, 0)" stroke-linejoin="round" d=" M 58.694, 130.066 58.279, 134.795 59.211, 144.751 59.639, 149.322 62.383, 158.938 63.549, 163.027 65.817, 167.491 " />
            <path fill="none" stroke-width="3.0" stroke-linecap="butt" stroke-opacity="1.0" stroke="rgb(0, 0, 0)" stroke-linejoin="round" d=" M 72.634, 89.292 69.642, 93.288 65.274, 102.284 63.427, 106.087 60.778, 115.730 59.565, 120.145 59.131, 125.096 " />
            <path fill="none" stroke-width="3.0" stroke-linecap="butt" stroke-opacity="1.0" stroke="rgb(0, 0, 0)" stroke-linejoin="round" d=" M 102.762, 66.100 98.440, 67.433 89.754, 72.389 87.620, 73.606 80.158, 80.263 79.771, 80.608 " />
            <path fill="none" stroke-width="3.0" stroke-linecap="butt" stroke-opacity="1.0" stroke="rgb(0, 0, 0)" stroke-linejoin="round" d=" M 121.653, 67.150 131.620, 66.331 132.505, 66.259 142.397, 67.729 143.024, 67.822 152.345, 71.445 152.858, 71.645 161.211, 77.143 161.716, 77.476 166.164, 81.866 169.371, 85.031 169.401, 85.074 175.133, 93.268 175.647, 94.002 179.927, 103.040 180.419, 104.080 183.231, 113.677 183.604, 114.953 183.686, 115.550 183.971, 117.642 185.153, 126.311 185.060, 136.311 185.046, 137.851 183.527, 147.735 183.291, 149.271 180.739, 157.605 180.152, 159.524 179.923, 160.270 175.606, 169.291 175.006, 170.546 169.332, 178.781 168.634, 179.795 161.665, 186.967 161.040, 187.610 160.939, 187.715 157.329, 190.284 152.096, 194.007 142.973, 198.102 142.332, 198.390 132.551, 200.473 131.925, 200.607 121.926, 200.462 121.212, 200.452 117.070, 199.414 113.560, 198.534 110.585, 197.788 104.321, 194.557 100.476, 192.574 92.825, 186.134 91.343, 184.887 87.110, 179.422 84.626, 176.216 83.642, 174.945 79.208, 165.982 77.786, 163.109 75.113, 153.473 74.115, 149.874 73.393, 141.861 73.015, 137.664 72.851, 135.847 73.718, 125.885 74.082, 121.699 76.684, 112.043 77.742, 108.114 80.932, 101.396 82.734, 97.601 83.622, 95.731 89.521, 87.656 91.391, 85.097 98.764, 78.342 100.631, 76.631 106.731, 73.044 110.089, 71.069 110.877, 70.606 115.888, 68.999 121.653, 67.150 " />
            <path fill="none" stroke-width="3.0" stroke-linecap="butt" stroke-opacity="1.0" stroke="rgb(0, 0, 0)" stroke-linejoin="round" d=" M 143.446, 74.986 149.891, 79.110 157.103, 86.037 157.374, 86.296 163.210, 94.417 163.521, 94.849 163.678, 95.172 " />
            <path fill="none" stroke-width="3.0" stroke-linecap="butt" stroke-opacity="1.0" stroke="rgb(0, 0, 0)" stroke-linejoin="round" d=" M 183.894, 160.522 192.886, 162.060 193.990, 158.371 185.691, 154.610 " />
            <path fill="none" stroke-width="3.0" stroke-linecap="butt" stroke-opacity="1.0" stroke="rgb(0, 0, 0)" stroke-linejoin="round" d=" M 165.406, 98.722 168.205, 104.471 171.093, 114.045 171.339, 114.861 172.736, 124.763 172.872, 125.721 172.867, 126.316 " />
            <path fill="none" stroke-width="3.0" stroke-linecap="butt" stroke-opacity="1.0" stroke="rgb(0, 0, 0)" stroke-linejoin="round" d=" M 172.836, 130.063 172.782, 136.756 171.239, 146.636 171.077, 147.671 168.093, 157.216 167.792, 158.175 167.692, 158.379 " />
            <path fill="none" stroke-width="3.0" stroke-linecap="butt" stroke-opacity="1.0" stroke="rgb(0, 0, 0)" stroke-linejoin="round" d=" M 166.032, 161.768 162.992, 167.976 157.221, 176.142 156.771, 176.779 149.705, 183.854 149.265, 184.295 148.680, 184.699 " />
            <path fill="none" stroke-width="3.0" stroke-linecap="butt" stroke-opacity="1.0" stroke="rgb(0, 0, 0)" stroke-linejoin="round" d=" M 145.487, 186.902 140.647, 190.241 131.469, 194.210 131.144, 194.350 121.340, 196.324 121.030, 196.386 117.808, 196.316 " />
            <path fill="none" stroke-width="3.0" stroke-linecap="butt" stroke-opacity="1.0" stroke="rgb(0, 0, 0)" stroke-linejoin="round" d=" M 113.986, 196.232 110.636, 196.159 104.321, 194.557 " />
            <path fill="none" stroke-width="3.0" stroke-linecap="butt" stroke-opacity="1.0" stroke="rgb(0, 0, 0)" stroke-linejoin="round" d=" M 115.888, 68.999 121.450, 68.529 131.352, 69.930 131.671, 69.975 140.041, 73.126 " />
            <path fill="none" stroke-width="3.0" stroke-linecap="butt" stroke-opacity="1.0" stroke="rgb(0, 0, 0)" stroke-linejoin="round" d=" M 91.678, 195.511 91.669, 195.529 87.290, 204.519 85.193, 208.823 94.098, 213.577 97.681, 215.269 101.976, 206.238 104.228, 201.504 104.312, 201.327 100.809, 199.564 " />
            <path fill="none" stroke-width="3.0" stroke-linecap="butt" stroke-opacity="1.0" stroke="rgb(0, 0, 0)" stroke-linejoin="round" d=" M 94.098, 213.577 98.417, 204.557 100.644, 199.906 100.727, 199.733 100.809, 199.564 91.678, 195.511 " />
            <path fill="none" stroke-width="3.0" stroke-linecap="butt" stroke-opacity="1.0" stroke="rgb(0, 0, 0)" stroke-linejoin="round" d=" M 67.079, 130.714 67.507, 125.812 64.702, 125.572 59.131, 125.096 52.261, 124.508 44.796, 123.917 44.374, 128.687 51.818, 129.535 58.694, 130.066 64.271, 130.497 67.079, 130.714 " />
            <path fill="none" stroke-width="3.0" stroke-linecap="butt" stroke-opacity="1.0" stroke="rgb(0, 0, 0)" stroke-linejoin="round" d=" M 84.107, 84.602 83.982, 84.487 79.771, 80.608 72.730, 74.123 64.455, 76.040 61.749, 79.555 69.202, 86.222 72.634, 89.292 72.824, 89.463 81.399, 88.263 " />
            <path fill="none" stroke-width="3.0" stroke-linecap="butt" stroke-opacity="1.0" stroke="rgb(0, 0, 0)" stroke-linejoin="round" d=" M 69.919, 77.813 76.644, 83.935 78.373, 85.509 81.399, 88.263 84.107, 84.602 " />
            <path fill="none" stroke-width="3.0" stroke-linecap="butt" stroke-opacity="1.0" stroke="rgb(0, 0, 0)" stroke-linejoin="round" d=" M 176.323, 87.328 182.793, 79.703 183.320, 79.082 181.251, 76.006 171.339, 77.331 169.959, 77.515 169.234, 78.346 " />
            <path fill="none" stroke-width="3.0" stroke-linecap="butt" stroke-opacity="1.0" stroke="rgb(0, 0, 0)" stroke-linejoin="round" d=" M 188.375, 121.438 197.153, 119.078 196.654, 115.275 187.534, 115.200 " />
            <path fill="none" stroke-width="3.0" stroke-linecap="butt" stroke-opacity="1.0" stroke="rgb(0, 0, 0)" stroke-linejoin="round" d=" M 125.193, 206.187 125.495, 214.337 134.576, 218.524 135.605, 218.999 139.164, 218.114 138.816, 208.120 138.695, 204.646 " />
            <path fill="none" stroke-width="3.0" stroke-linecap="butt" stroke-opacity="1.0" stroke="rgb(0, 0, 0)" stroke-linejoin="round" d=" M 52.261, 124.508 51.818, 129.535 " />
            <path fill="none" stroke-width="3.0" stroke-linecap="butt" stroke-opacity="1.0" stroke="rgb(0, 0, 0)" stroke-linejoin="round" d=" M 72.730, 74.123 69.919, 77.813 61.749, 79.555 " />
            <path fill="none" stroke-width="3.0" stroke-linecap="butt" stroke-opacity="1.0" stroke="rgb(0, 0, 0)" stroke-linejoin="round" d=" M 150.316, 64.976 152.320, 55.179 152.976, 51.970 149.639, 50.545 139.950, 53.018 139.004, 53.260 137.325, 61.317 " />
            <path fill="none" stroke-width="3.0" stroke-linecap="butt" stroke-opacity="1.0" stroke="rgb(0, 0, 0)" stroke-linejoin="round" d=" M 149.639, 50.545 147.626, 60.340 146.950, 63.631 " />
            <path fill="none" stroke-width="3.0" stroke-linecap="butt" stroke-opacity="1.0" stroke="rgb(0, 0, 0)" stroke-linejoin="round" d=" M 181.251, 76.006 174.748, 83.602 174.194, 84.249 " />
            <path fill="none" stroke-width="3.0" stroke-linecap="butt" stroke-opacity="1.0" stroke="rgb(0, 0, 0)" stroke-linejoin="round" d=" M 171.252, 198.657 166.091, 190.092 165.600, 189.277 " />
            <path fill="none" stroke-width="3.0" stroke-linecap="butt" stroke-opacity="1.0" stroke="rgb(0, 0, 0)" stroke-linejoin="round" d=" M 196.654, 115.275 187.854, 117.570 " />
            <path fill="none" stroke-width="3.0" stroke-linecap="butt" stroke-opacity="1.0" stroke="rgb(0, 0, 0)" stroke-linejoin="round" d=" M 135.605, 218.999 135.251, 209.005 135.124, 205.444 " />
            <path fill="none" stroke-width="3.0" stroke-linecap="butt" stroke-opacity="1.0" stroke="rgb(0, 0, 0)" stroke-linejoin="round" d=" M 145.387, 130.567 145.072, 128.495 145.072, 128.491 144.147, 125.633 142.960, 123.368 142.788, 123.041 141.036, 120.804 138.947, 119.005 138.940, 119.001 136.592, 117.710 135.678, 117.445 134.048, 116.973 131.405, 116.828 129.462, 117.166 128.758, 117.289 127.302, 117.892 126.205, 118.347 123.843, 119.972 121.985, 121.879 121.762, 122.108 120.898, 123.403 120.047, 124.679 119.771, 125.306 118.766, 127.590 118.378, 129.124 117.972, 130.730 117.912, 131.444 117.697, 133.976 117.953, 137.203 118.099, 137.784 118.499, 139.377 118.621, 139.860 118.728, 140.285 119.989, 143.104 121.681, 145.549 121.684, 145.554 123.107, 146.928 123.745, 147.544 126.090, 149.005 128.628, 149.891 128.857, 149.916 131.264, 150.176 131.764, 150.116 133.900, 149.859 136.444, 148.959 137.507, 148.310 138.806, 147.517 140.908, 145.589 141.114, 145.317 142.681, 143.247 144.066, 140.573 144.153, 140.308 144.630, 138.854 " />
            <path fill="none" stroke-width="3.0" stroke-linecap="butt" stroke-opacity="1.0" stroke="rgb(0, 0, 0)" stroke-linejoin="round" d=" M 113.077, 138.242 113.198, 138.717 113.423, 139.604 114.666, 142.354 115.237, 143.171 " />
            <path fill="none" stroke-width="3.0" stroke-linecap="butt" stroke-opacity="1.0" stroke="rgb(0, 0, 0)" stroke-linejoin="round" d=" M 120.833, 118.189 120.776, 118.212 118.449, 119.796 117.297, 120.968 " />
            <path fill="none" stroke-width="3.0" stroke-linecap="butt" stroke-opacity="1.0" stroke="rgb(0, 0, 0)" stroke-linejoin="round" d=" M 119.685, 147.505 120.679, 148.119 122.754, 148.839 " />
            <path fill="none" stroke-width="3.0" stroke-linecap="butt" stroke-opacity="1.0" stroke="rgb(0, 0, 0)" stroke-linejoin="round" d=" M 113.927, 126.160 113.455, 127.224 112.675, 130.284 112.523, 132.074 " />
            <path fill="none" stroke-width="3.0" stroke-linecap="butt" stroke-opacity="1.0" stroke="rgb(0, 0, 0)" stroke-linejoin="round" d=" M 131.405, 116.828 129.551, 116.795 126.882, 116.749 " />
            <path fill="none" stroke-width="3.0" stroke-linecap="butt" stroke-opacity="1.0" stroke="rgb(0, 0, 0)" stroke-linejoin="round" d=" M 132.241, 143.357 130.759, 142.819 130.540, 142.678 129.845, 142.233 129.396, 141.945 128.202, 140.767 127.223, 139.325 126.497, 137.672 126.052, 135.870 125.907, 133.986 126.066, 132.091 126.525, 130.257 127.264, 128.552 128.256, 127.041 129.461, 125.779 130.835, 124.811 131.448, 124.548 132.195, 124.227 132.324, 124.171 133.874, 123.880 135.427, 123.946 " />
            <path fill="none" stroke-width="3.0" stroke-linecap="butt" stroke-opacity="1.0" stroke="rgb(0, 0, 0)" stroke-linejoin="round" d=" M 140.112, 125.179 139.662, 124.936 138.766, 124.453 137.871, 124.205 137.258, 124.034 135.698, 123.968 135.650, 123.977 135.585, 123.990 134.141, 124.262 132.715, 124.877 132.645, 124.907 132.066, 125.317 131.265, 125.883 130.053, 127.155 129.056, 128.679 128.313, 130.397 127.852, 132.246 127.692, 134.157 127.837, 136.056 128.284, 137.873 129.013, 139.538 129.996, 140.991 130.584, 141.573 131.149, 142.133 131.196, 142.179 132.565, 143.059 133.872, 143.535 134.054, 143.601 135.606, 143.789 136.105, 143.734 137.164, 143.618 138.069, 143.307 138.416, 143.187 " />
            <path fill="none" stroke-width="3.0" stroke-linecap="butt" stroke-opacity="1.0" stroke="rgb(0, 0, 0)" stroke-linejoin="round" d=" M 133.250, 141.386 133.205, 141.369 132.373, 140.831 132.089, 140.648 131.683, 140.244 131.113, 139.677 130.314, 138.490 129.721, 137.132 129.359, 135.652 129.241, 134.104 129.371, 132.548 129.746, 131.042 130.350, 129.641 131.161, 128.398 132.147, 127.358 132.902, 126.821 133.271, 126.559 133.682, 126.380 134.491, 126.029 134.606, 126.007 " />
            <path fill="none" stroke-width="3.0" stroke-linecap="butt" stroke-opacity="1.0" stroke="rgb(0, 0, 0)" stroke-linejoin="round" d=" M 132.241, 143.357 134.054, 143.601 " />
            <path fill="none" stroke-width="3.0" stroke-linecap="butt" stroke-opacity="1.0" stroke="rgb(0, 0, 0)" stroke-linejoin="round" d=" M 137.258, 124.034 135.639, 123.956 135.427, 123.946 " />
            <path fill="none" stroke-width="3.0" stroke-linecap="butt" stroke-opacity="1.0" stroke="rgb(0, 0, 0)" stroke-linejoin="round" d=" M 130.911, 130.862 130.490, 132.559 130.343, 134.312 130.475, 136.055 130.593, 136.537 130.882, 137.722 131.548, 139.251 131.968, 139.875 132.446, 140.585 132.512, 140.651 133.250, 141.386 133.542, 141.676 134.794, 142.485 136.155, 142.985 136.389, 143.015 136.631, 143.047 136.654, 143.050 137.914, 143.204 138.076, 143.224 138.416, 143.187 139.504, 143.068 140.889, 142.591 142.180, 141.812 143.333, 140.759 143.851, 140.076 144.309, 139.473 144.630, 138.854 145.073, 137.998 145.601, 136.388 145.874, 134.698 145.877, 134.230 145.884, 132.986 145.629, 131.313 145.387, 130.567 145.119, 129.736 144.490, 128.540 144.370, 128.311 143.407, 127.089 142.263, 126.112 141.054, 125.460 140.977, 125.419 140.112, 125.179 139.751, 125.079 139.595, 125.035 139.092, 125.009 138.281, 124.976 138.054, 124.967 137.663, 124.952 136.536, 125.167 136.239, 125.224 134.870, 125.819 134.606, 126.007 133.792, 126.586 133.609, 126.716 133.122, 127.230 132.501, 127.886 131.590, 129.285 131.160, 130.284 130.911, 130.862 " />
            <path fill="none" stroke-width="3.0" stroke-linecap="butt" stroke-opacity="1.0" stroke="rgb(0, 0, 0)" stroke-linejoin="round" d=" M 136.654, 143.050 136.477, 142.985 135.291, 142.549 134.037, 141.739 132.940, 140.645 132.743, 140.352 132.190, 139.529 132.041, 139.308 131.375, 137.776 130.967, 136.105 130.834, 134.359 130.982, 132.602 131.404, 130.902 132.084, 129.321 132.996, 127.919 133.262, 127.638 133.960, 126.899 134.105, 126.746 135.368, 125.847 136.648, 125.290 136.738, 125.251 138.098, 124.990 138.165, 124.978 139.595, 125.035 " />
            <path fill="none" stroke-width="3.0" stroke-linecap="butt" stroke-opacity="1.0" stroke="rgb(0, 0, 0)" stroke-linejoin="round" d=" M 112.204, 124.867 111.782, 124.843 110.662, 124.800 109.546, 125.002 108.476, 125.445 107.492, 126.114 106.630, 126.984 105.922, 128.025 105.395, 129.198 105.070, 130.460 104.959, 131.764 105.066, 133.061 105.083, 133.127 " />
            <path fill="none" stroke-width="3.0" stroke-linecap="butt" stroke-opacity="1.0" stroke="rgb(0, 0, 0)" stroke-linejoin="round" d=" M 114.410, 131.807 112.523, 132.074 105.083, 133.127 95.181, 134.528 85.280, 135.929 75.379, 137.330 73.015, 137.664 " />
            <path fill="none" stroke-width="3.0" stroke-linecap="butt" stroke-opacity="1.0" stroke="rgb(0, 0, 0)" stroke-linejoin="round" d=" M 80.932, 101.396 88.930, 107.399 96.928, 113.402 104.926, 119.405 112.204, 124.867 112.383, 125.001 113.927, 126.160 115.602, 127.418 115.620, 127.431 " />
            <path fill="none" stroke-width="3.0" stroke-linecap="butt" stroke-opacity="1.0" stroke="rgb(0, 0, 0)" stroke-linejoin="round" d=" M 117.073, 141.188 115.237, 143.171 108.441, 150.507 101.645, 157.843 94.849, 165.179 88.054, 172.515 84.626, 176.216 " />
            <path fill="none" stroke-width="3.0" stroke-linecap="butt" stroke-opacity="1.0" stroke="rgb(0, 0, 0)" stroke-linejoin="round" d=" M 73.393, 141.861 83.352, 140.953 93.310, 140.044 103.269, 139.136 110.941, 138.436 113.077, 138.242 115.249, 138.043 116.158, 137.961 " />
            <path fill="none" stroke-width="3.0" stroke-linecap="butt" stroke-opacity="1.0" stroke="rgb(0, 0, 0)" stroke-linejoin="round" d=" M 119.700, 122.593 117.297, 120.968 109.013, 115.367 100.729, 109.767 92.444, 104.166 84.160, 98.565 82.734, 97.601 " />
            <path fill="none" stroke-width="3.0" stroke-linecap="butt" stroke-opacity="1.0" stroke="rgb(0, 0, 0)" stroke-linejoin="round" d=" M 87.110, 179.422 94.252, 172.424 101.395, 165.425 108.538, 158.426 115.681, 151.428 119.685, 147.505 121.681, 145.549 " />
            <path fill="none" stroke-width="3.0" stroke-linecap="butt" stroke-opacity="1.0" stroke="rgb(0, 0, 0)" stroke-linejoin="round" d=" M 110.941, 138.436 113.198, 138.717 " />
            <path fill="none" stroke-width="3.0" stroke-linecap="butt" stroke-opacity="1.0" stroke="rgb(0, 0, 0)" stroke-linejoin="round" d=" M 135.678, 117.445 137.477, 107.608 139.277, 97.772 141.077, 87.935 142.876, 78.098 143.446, 74.986 143.880, 72.611 " />
            <path fill="none" stroke-width="3.0" stroke-linecap="butt" stroke-opacity="1.0" stroke="rgb(0, 0, 0)" stroke-linejoin="round" d=" M 142.960, 123.368 149.693, 115.975 156.426, 108.581 163.160, 101.188 165.406, 98.722 168.344, 95.496 168.951, 94.829 " />
            <path fill="none" stroke-width="3.0" stroke-linecap="butt" stroke-opacity="1.0" stroke="rgb(0, 0, 0)" stroke-linejoin="round" d=" M 141.114, 145.317 149.460, 150.827 157.805, 156.336 166.032, 161.768 169.306, 163.930 170.256, 164.557 " />
            <path fill="none" stroke-width="3.0" stroke-linecap="butt" stroke-opacity="1.0" stroke="rgb(0, 0, 0)" stroke-linejoin="round" d=" M 145.877, 134.230 155.759, 132.703 165.642, 131.175 172.836, 130.063 176.563, 129.487 178.570, 129.177 " />
            <path fill="none" stroke-width="3.0" stroke-linecap="butt" stroke-opacity="1.0" stroke="rgb(0, 0, 0)" stroke-linejoin="round" d=" M 184.552, 158.358 192.886, 162.060 " />
        </g>
    </g>
</svg>
