<?xml version='1.0' encoding='ascii'?>
<svg xmlns="http://www.w3.org/2000/svg" version="1.1" width="250" height="250">
    <g id="View Layer_LineSet" xmlns:inkscape="http://www.inkscape.org/namespaces/inkscape" inkscape:groupmode="lineset" inkscape:label="View Layer_LineSet">
        <g xmlns:inkscape="http://www.inkscape.org/namespaces/inkscape" inkscape:groupmode="layer" id="strokes" inkscape:label="strokes">
            <path fill="none" stroke-width="3.0" stroke-linecap="butt" stroke-opacity="1.0" stroke="rgb(0, 0, 0)" stroke-linejoin="round" d=" M 113.528, 69.842 113.719, 70.842 115.595, 80.664 117.471, 90.487 119.346, 100.309 121.222, 110.132 122.612, 117.414 " />
            <path fill="none" stroke-width="3.0" stroke-linecap="butt" stroke-opacity="1.0" stroke="rgb(0, 0, 0)" stroke-linejoin="round" d=" M 146.609, 74.643 145.961, 76.439 142.570, 85.847 139.178, 95.254 135.786, 104.661 132.394, 114.068 131.399, 116.829 " />
            <path fill="none" stroke-width="3.0" stroke-linecap="butt" stroke-opacity="1.0" stroke="rgb(0, 0, 0)" stroke-linejoin="round" d=" M 170.176, 98.622 170.097, 98.681 166.782, 101.129 158.739, 107.071 150.696, 113.013 142.652, 118.955 140.636, 120.444 " />
            <path fill="none" stroke-width="3.0" stroke-linecap="butt" stroke-opacity="1.0" stroke="rgb(0, 0, 0)" stroke-linejoin="round" d=" M 178.339, 133.437 176.711, 133.314 172.982, 133.032 163.010, 132.279 153.038, 131.526 145.526, 130.959 " />
            <path fill="none" stroke-width="3.0" stroke-linecap="butt" stroke-opacity="1.0" stroke="rgb(0, 0, 0)" stroke-linejoin="round" d=" M 168.836, 168.479 167.813, 167.440 164.889, 164.471 157.872, 157.346 150.855, 150.222 143.838, 143.097 143.171, 142.419 " />
            <path fill="none" stroke-width="3.0" stroke-linecap="butt" stroke-opacity="1.0" stroke="rgb(0, 0, 0)" stroke-linejoin="round" d=" M 144.072, 193.483 143.804, 192.054 143.175, 188.696 141.333, 178.867 139.492, 169.038 137.650, 159.209 135.772, 149.182 " />
            <path fill="none" stroke-width="3.0" stroke-linecap="butt" stroke-opacity="1.0" stroke="rgb(0, 0, 0)" stroke-linejoin="round" d=" M 110.126, 197.206 110.597, 195.887 110.823, 195.252 114.184, 185.834 117.544, 176.415 120.904, 166.997 124.265, 157.578 127.092, 149.654 " />
            <path fill="none" stroke-width="3.0" stroke-linecap="butt" stroke-opacity="1.0" stroke="rgb(0, 0, 0)" stroke-linejoin="round" d=" M 137.379, 118.144 140.234, 108.560 143.088, 98.976 145.942, 89.392 148.797, 79.808 149.115, 78.740 150.015, 75.719 150.558, 73.894 " />
            <path fill="none" stroke-width="3.0" stroke-linecap="butt" stroke-opacity="1.0" stroke="rgb(0, 0, 0)" stroke-linejoin="round" d=" M 128.817, 116.783 126.451, 107.067 124.085, 97.351 121.719, 87.635 119.353, 77.919 117.433, 70.033 117.110, 68.706 117.042, 68.427 " />
            <path fill="none" stroke-width="3.0" stroke-linecap="butt" stroke-opacity="1.0" stroke="rgb(0, 0, 0)" stroke-linejoin="round" d=" M 129.749, 150.058 132.148, 159.766 134.547, 169.474 136.946, 179.182 139.345, 188.890 139.732, 190.457 140.301, 192.756 140.650, 194.168 " />
            <path fill="none" stroke-width="3.0" stroke-linecap="butt" stroke-opacity="1.0" stroke="rgb(0, 0, 0)" stroke-linejoin="round" d=" M 121.026, 148.229 118.140, 157.804 115.253, 167.378 112.366, 176.952 109.479, 186.526 107.213, 194.045 106.857, 195.226 106.677, 195.819 " />
            <path fill="none" stroke-width="3.0" stroke-linecap="butt" stroke-opacity="1.0" stroke="rgb(0, 0, 0)" stroke-linejoin="round" d=" M 96.500, 197.972 100.881, 199.924 110.122, 203.747 112.161, 204.590 117.197, 205.404 120.705, 205.971 123.811, 206.473 127.343, 206.228 131.006, 205.974 135.371, 205.671 144.955, 202.819 146.439, 202.378 152.484, 199.113 155.550, 197.458 156.677, 196.849 159.524, 194.522 162.418, 192.156 165.813, 189.382 172.333, 181.800 173.630, 180.291 178.837, 171.754 179.967, 169.902 180.208, 169.324 181.518, 166.180 181.637, 165.894 183.017, 162.583 184.703, 158.537 187.163, 148.844 187.754, 146.516 188.811, 136.572 189.068, 134.155 188.911, 129.845 188.857, 128.371 188.769, 125.926 188.722, 124.639 188.617, 121.768 186.815, 111.932 186.401, 109.673 183.146, 100.217 182.447, 98.188 180.383, 94.325 178.598, 90.986 177.181, 88.334 176.811, 87.641 174.915, 85.205 169.589, 78.365 162.100, 71.738 160.921, 70.695 157.187, 68.535 154.044, 66.718 151.004, 64.960 148.440, 64.140 145.159, 63.090 140.094, 61.469 130.130, 60.627 128.522, 60.491 124.075, 61.144 120.324, 61.694 116.685, 62.228 114.016, 62.868 110.427, 63.729 106.113, 64.763 96.793, 68.387 94.866, 69.136 87.502, 74.038 " />
            <path fill="none" stroke-width="3.0" stroke-linecap="butt" stroke-opacity="1.0" stroke="rgb(0, 0, 0)" stroke-linejoin="round" d=" M 70.717, 160.894 72.260, 165.335 71.205, 165.832 65.986, 168.292 58.176, 171.973 50.512, 169.007 48.950, 164.704 58.059, 160.576 62.316, 158.647 62.577, 158.529 " />
            <path fill="none" stroke-width="3.0" stroke-linecap="butt" stroke-opacity="1.0" stroke="rgb(0, 0, 0)" stroke-linejoin="round" d=" M 58.176, 171.973 56.555, 167.451 " />
            <path fill="none" stroke-width="3.0" stroke-linecap="butt" stroke-opacity="1.0" stroke="rgb(0, 0, 0)" stroke-linejoin="round" d=" M 48.950, 164.704 56.555, 167.451 64.176, 163.923 65.630, 163.249 70.717, 160.894 62.577, 158.529 " />
            <path fill="none" stroke-width="3.0" stroke-linecap="butt" stroke-opacity="1.0" stroke="rgb(0, 0, 0)" stroke-linejoin="round" d=" M 152.484, 199.113 153.433, 201.192 162.853, 204.547 164.231, 205.037 167.070, 202.640 163.014, 193.500 162.418, 192.156 " />
            <path fill="none" stroke-width="3.0" stroke-linecap="butt" stroke-opacity="1.0" stroke="rgb(0, 0, 0)" stroke-linejoin="round" d=" M 65.986, 168.292 71.073, 176.901 72.211, 178.827 78.945, 186.220 80.914, 188.382 84.710, 191.073 " />
            <path fill="none" stroke-width="3.0" stroke-linecap="butt" stroke-opacity="1.0" stroke="rgb(0, 0, 0)" stroke-linejoin="round" d=" M 116.685, 62.228 114.251, 63.182 105.049, 66.785 96.753, 72.369 94.124, 74.138 87.158, 81.313 84.442, 84.112 81.971, 87.929 80.716, 89.870 76.515, 96.362 72.734, 105.619 70.790, 110.380 68.730, 120.166 67.602, 125.521 67.499, 128.967 67.382, 132.909 67.139, 141.046 68.628, 150.934 69.419, 156.187 72.699, 165.633 74.289, 170.210 79.327, 178.848 81.445, 182.479 88.140, 189.908 90.472, 192.496 98.612, 198.304 100.881, 199.924 " />
            <path fill="none" stroke-width="3.0" stroke-linecap="butt" stroke-opacity="1.0" stroke="rgb(0, 0, 0)" stroke-linejoin="round" d=" M 124.075, 61.144 122.418, 51.282 121.611, 46.478 117.821, 46.932 108.271, 49.898 108.038, 49.970 109.749, 59.823 110.427, 63.729 " />
            <path fill="none" stroke-width="3.0" stroke-linecap="butt" stroke-opacity="1.0" stroke="rgb(0, 0, 0)" stroke-linejoin="round" d=" M 59.918, 119.878 58.863, 124.839 58.568, 134.835 58.430, 139.528 59.947, 149.413 60.630, 153.865 62.316, 158.647 " />
            <path fill="none" stroke-width="3.0" stroke-linecap="butt" stroke-opacity="1.0" stroke="rgb(0, 0, 0)" stroke-linejoin="round" d=" M 78.449, 82.132 75.014, 85.627 69.531, 93.990 67.400, 97.242 63.578, 106.483 61.911, 110.514 61.265, 113.551 " />
            <path fill="none" stroke-width="3.0" stroke-linecap="butt" stroke-opacity="1.0" stroke="rgb(0, 0, 0)" stroke-linejoin="round" d=" M 118.148, 67.982 128.027, 66.427 129.023, 66.271 138.996, 67.009 139.691, 67.060 143.478, 68.231 144.963, 68.690 149.780, 70.179 158.480, 75.109 158.981, 75.393 166.518, 81.965 167.045, 82.424 171.565, 88.160 173.781, 90.973 174.139, 91.635 178.891, 100.434 179.050, 100.728 182.335, 110.173 182.754, 111.378 184.574, 121.211 184.834, 122.613 184.910, 124.652 184.953, 125.826 185.261, 134.128 184.200, 144.071 184.035, 145.619 181.560, 155.308 181.182, 156.787 177.633, 165.240 176.756, 167.329 176.441, 167.842 171.200, 176.359 170.840, 176.943 164.280, 184.490 163.555, 185.324 155.771, 191.601 155.061, 192.173 154.388, 192.530 150.434, 194.623 145.566, 197.201 135.955, 199.963 135.332, 200.142 125.350, 200.732 124.678, 200.771 114.824, 199.072 113.978, 198.926 110.101, 197.276 106.677, 195.819 104.162, 194.749 103.652, 194.532 95.564, 188.651 94.154, 187.626 87.514, 180.149 85.943, 178.379 82.686, 172.724 80.625, 169.146 79.450, 167.106 76.206, 157.647 75.044, 154.260 73.574, 144.369 72.987, 140.418 73.202, 133.273 73.329, 129.040 73.414, 126.233 75.460, 116.445 76.306, 112.393 80.058, 103.124 81.501, 99.558 84.960, 94.154 87.210, 90.640 88.703, 88.307 95.620, 81.086 97.518, 79.105 105.768, 73.453 107.492, 72.272 113.528, 69.842 115.856, 68.904 117.042, 68.427 118.148, 67.982 " />
            <path fill="none" stroke-width="3.0" stroke-linecap="butt" stroke-opacity="1.0" stroke="rgb(0, 0, 0)" stroke-linejoin="round" d=" M 149.115, 78.740 155.098, 83.815 161.391, 91.587 161.693, 91.960 166.546, 100.703 166.782, 101.129 " />
            <path fill="none" stroke-width="3.0" stroke-linecap="butt" stroke-opacity="1.0" stroke="rgb(0, 0, 0)" stroke-linejoin="round" d=" M 180.208, 169.324 189.451, 171.223 190.904, 167.673 183.017, 162.583 " />
            <path fill="none" stroke-width="3.0" stroke-linecap="butt" stroke-opacity="1.0" stroke="rgb(0, 0, 0)" stroke-linejoin="round" d=" M 168.127, 104.809 170.501, 111.444 172.378, 121.266 172.554, 122.185 172.948, 132.177 172.982, 133.032 " />
            <path fill="none" stroke-width="3.0" stroke-linecap="butt" stroke-opacity="1.0" stroke="rgb(0, 0, 0)" stroke-linejoin="round" d=" M 172.605, 136.746 171.802, 144.181 169.280, 153.858 169.021, 154.850 165.075, 164.039 164.889, 164.471 " />
            <path fill="none" stroke-width="3.0" stroke-linecap="butt" stroke-opacity="1.0" stroke="rgb(0, 0, 0)" stroke-linejoin="round" d=" M 162.916, 167.739 158.925, 174.066 152.266, 181.526 151.817, 182.029 143.942, 188.193 143.535, 188.512 143.175, 188.696 " />
            <path fill="none" stroke-width="3.0" stroke-linecap="butt" stroke-opacity="1.0" stroke="rgb(0, 0, 0)" stroke-linejoin="round" d=" M 139.732, 190.457 134.290, 193.241 124.646, 195.885 124.340, 195.969 114.352, 196.470 113.997, 196.488 110.597, 195.887 " />
            <path fill="none" stroke-width="3.0" stroke-linecap="butt" stroke-opacity="1.0" stroke="rgb(0, 0, 0)" stroke-linejoin="round" d=" M 117.110, 68.706 118.071, 68.554 128.048, 69.236 128.430, 69.263 138.012, 72.124 138.248, 72.194 145.961, 76.439 " />
            <path fill="none" stroke-width="3.0" stroke-linecap="butt" stroke-opacity="1.0" stroke="rgb(0, 0, 0)" stroke-linejoin="round" d=" M 84.755, 191.004 84.710, 191.073 79.314, 199.492 76.676, 203.610 79.956, 205.830 88.685, 210.481 93.983, 202.000 96.500, 197.972 96.586, 197.835 96.959, 197.237 93.660, 194.884 " />
            <path fill="none" stroke-width="3.0" stroke-linecap="butt" stroke-opacity="1.0" stroke="rgb(0, 0, 0)" stroke-linejoin="round" d=" M 85.293, 208.177 90.620, 199.714 92.765, 196.308 93.217, 195.589 93.660, 194.884 84.755, 191.004 " />
            <path fill="none" stroke-width="3.0" stroke-linecap="butt" stroke-opacity="1.0" stroke="rgb(0, 0, 0)" stroke-linejoin="round" d=" M 69.331, 115.529 66.692, 114.882 61.265, 113.551 54.477, 111.887 46.917, 111.937 45.908, 116.597 55.645, 118.877 59.918, 119.878 60.240, 119.953 68.321, 120.323 " />
            <path fill="none" stroke-width="3.0" stroke-linecap="butt" stroke-opacity="1.0" stroke="rgb(0, 0, 0)" stroke-linejoin="round" d=" M 53.423, 116.796 60.231, 118.407 60.553, 118.484 68.321, 120.323 69.331, 115.529 " />
            <path fill="none" stroke-width="3.0" stroke-linecap="butt" stroke-opacity="1.0" stroke="rgb(0, 0, 0)" stroke-linejoin="round" d=" M 90.444, 77.586 87.502, 74.038 81.117, 66.342 80.550, 65.657 71.988, 67.966 68.930, 70.978 75.422, 78.584 78.449, 82.132 78.589, 82.296 87.377, 80.744 " />
            <path fill="none" stroke-width="3.0" stroke-linecap="butt" stroke-opacity="1.0" stroke="rgb(0, 0, 0)" stroke-linejoin="round" d=" M 77.377, 68.813 83.800, 76.477 83.896, 76.591 85.517, 78.526 87.377, 80.744 90.444, 77.586 " />
            <path fill="none" stroke-width="3.0" stroke-linecap="butt" stroke-opacity="1.0" stroke="rgb(0, 0, 0)" stroke-linejoin="round" d=" M 180.383, 94.325 187.758, 87.572 187.991, 87.358 186.263, 84.040 176.315, 85.062 174.915, 85.205 " />
            <path fill="none" stroke-width="3.0" stroke-linecap="butt" stroke-opacity="1.0" stroke="rgb(0, 0, 0)" stroke-linejoin="round" d=" M 188.911, 129.845 197.776, 128.858 197.643, 125.010 188.722, 124.639 " />
            <path fill="none" stroke-width="3.0" stroke-linecap="butt" stroke-opacity="1.0" stroke="rgb(0, 0, 0)" stroke-linejoin="round" d=" M 117.197, 205.404 116.473, 215.378 116.463, 215.512 125.455, 219.887 126.325, 220.309 129.997, 219.960 130.717, 209.986 131.006, 205.974 " />
            <path fill="none" stroke-width="3.0" stroke-linecap="butt" stroke-opacity="1.0" stroke="rgb(0, 0, 0)" stroke-linejoin="round" d=" M 76.676, 203.610 85.293, 208.177 88.685, 210.481 " />
            <path fill="none" stroke-width="3.0" stroke-linecap="butt" stroke-opacity="1.0" stroke="rgb(0, 0, 0)" stroke-linejoin="round" d=" M 54.477, 111.887 53.423, 116.796 45.908, 116.597 " />
            <path fill="none" stroke-width="3.0" stroke-linecap="butt" stroke-opacity="1.0" stroke="rgb(0, 0, 0)" stroke-linejoin="round" d=" M 80.550, 65.657 77.377, 68.813 68.930, 70.978 " />
            <path fill="none" stroke-width="3.0" stroke-linecap="butt" stroke-opacity="1.0" stroke="rgb(0, 0, 0)" stroke-linejoin="round" d=" M 157.187, 68.535 160.235, 59.011 161.064, 56.419 157.965, 54.538 148.221, 56.789 147.137, 57.040 145.159, 63.090 " />
            <path fill="none" stroke-width="3.0" stroke-linecap="butt" stroke-opacity="1.0" stroke="rgb(0, 0, 0)" stroke-linejoin="round" d=" M 157.965, 54.538 154.901, 64.057 154.044, 66.718 " />
            <path fill="none" stroke-width="3.0" stroke-linecap="butt" stroke-opacity="1.0" stroke="rgb(0, 0, 0)" stroke-linejoin="round" d=" M 186.263, 84.040 178.853, 90.755 178.598, 90.986 " />
            <path fill="none" stroke-width="3.0" stroke-linecap="butt" stroke-opacity="1.0" stroke="rgb(0, 0, 0)" stroke-linejoin="round" d=" M 164.231, 205.037 160.146, 195.910 159.524, 194.522 " />
            <path fill="none" stroke-width="3.0" stroke-linecap="butt" stroke-opacity="1.0" stroke="rgb(0, 0, 0)" stroke-linejoin="round" d=" M 197.643, 125.010 188.769, 125.926 " />
            <path fill="none" stroke-width="3.0" stroke-linecap="butt" stroke-opacity="1.0" stroke="rgb(0, 0, 0)" stroke-linejoin="round" d=" M 126.325, 220.309 127.046, 210.335 127.343, 206.228 " />
            <path fill="none" stroke-width="3.0" stroke-linecap="butt" stroke-opacity="1.0" stroke="rgb(0, 0, 0)" stroke-linejoin="round" d=" M 145.441, 130.660 145.435, 130.528 144.823, 127.546 143.971, 125.328 143.755, 124.764 142.263, 122.277 140.636, 120.444 140.396, 120.173 138.213, 118.529 137.379, 118.144 135.788, 117.409 133.202, 116.860 131.376, 116.894 130.547, 116.910 128.945, 117.310 127.920, 117.566 125.418, 118.811 123.211, 120.549 123.136, 120.608 121.954, 121.979 121.165, 122.894 119.761, 125.285 119.584, 125.586 118.881, 127.452 118.455, 128.583 118.240, 129.670 117.826, 131.771 117.722, 135.025 117.856, 136.033 118.147, 138.219 118.153, 138.237 118.517, 139.407 119.083, 141.229 120.491, 143.939 120.634, 144.121 121.814, 145.617 122.313, 146.250 124.475, 148.076 126.892, 149.356 127.172, 149.431 129.473, 150.049 129.749, 150.058 132.119, 150.139 134.735, 149.631 135.772, 149.182 137.230, 148.551 139.453, 146.990 139.516, 146.945 141.519, 144.875 143.171, 142.419 143.172, 142.416 144.423, 139.655 144.623, 138.919 " />
            <path fill="none" stroke-width="3.0" stroke-linecap="butt" stroke-opacity="1.0" stroke="rgb(0, 0, 0)" stroke-linejoin="round" d=" M 112.601, 135.736 112.851, 137.588 112.941, 137.874 113.215, 138.746 113.774, 140.524 114.143, 141.228 " />
            <path fill="none" stroke-width="3.0" stroke-linecap="butt" stroke-opacity="1.0" stroke="rgb(0, 0, 0)" stroke-linejoin="round" d=" M 122.612, 117.414 122.464, 117.451 120.000, 118.665 119.078, 119.385 " />
            <path fill="none" stroke-width="3.0" stroke-linecap="butt" stroke-opacity="1.0" stroke="rgb(0, 0, 0)" stroke-linejoin="round" d=" M 117.879, 146.198 119.087, 147.210 121.026, 148.229 " />
            <path fill="none" stroke-width="3.0" stroke-linecap="butt" stroke-opacity="1.0" stroke="rgb(0, 0, 0)" stroke-linejoin="round" d=" M 114.985, 124.045 114.433, 124.976 114.259, 125.270 114.056, 125.804 113.149, 128.192 112.882, 129.535 " />
            <path fill="none" stroke-width="3.0" stroke-linecap="butt" stroke-opacity="1.0" stroke="rgb(0, 0, 0)" stroke-linejoin="round" d=" M 133.202, 116.860 131.399, 116.829 128.817, 116.783 " />
            <path fill="none" stroke-width="3.0" stroke-linecap="butt" stroke-opacity="1.0" stroke="rgb(0, 0, 0)" stroke-linejoin="round" d=" M 132.735, 143.456 131.227, 143.030 130.551, 142.661 129.851, 142.279 129.820, 142.262 128.566, 141.178 127.513, 139.816 126.701, 138.225 126.164, 136.463 125.921, 134.598 125.982, 132.699 126.345, 130.837 126.997, 129.084 127.911, 127.504 129.052, 126.156 130.377, 125.089 131.454, 124.536 131.834, 124.340 132.190, 124.247 133.371, 123.935 134.929, 123.886 " />
            <path fill="none" stroke-width="3.0" stroke-linecap="butt" stroke-opacity="1.0" stroke="rgb(0, 0, 0)" stroke-linejoin="round" d=" M 140.041, 125.161 139.730, 124.930 139.498, 124.826 138.288, 124.280 137.913, 124.205 136.758, 123.974 136.301, 123.988 135.561, 124.012 135.192, 124.024 133.649, 124.432 132.770, 124.885 132.184, 125.187 132.033, 125.309 130.853, 126.263 129.706, 127.622 128.787, 129.215 128.133, 130.983 127.767, 132.859 127.705, 134.774 127.949, 136.654 128.489, 138.429 129.304, 140.033 130.362, 141.406 130.553, 141.571 131.185, 142.119 131.621, 142.498 133.035, 143.272 133.875, 143.509 134.550, 143.701 135.798, 143.758 136.020, 143.768 136.110, 143.773 136.117, 143.771 137.010, 143.607 137.659, 143.488 138.337, 143.200 " />
            <path fill="none" stroke-width="3.0" stroke-linecap="butt" stroke-opacity="1.0" stroke="rgb(0, 0, 0)" stroke-linejoin="round" d=" M 133.194, 141.327 132.436, 140.909 132.386, 140.866 131.677, 140.248 131.410, 140.015 130.550, 138.894 129.888, 137.586 129.449, 136.139 129.251, 134.607 129.302, 133.048 129.599, 131.519 130.131, 130.078 130.879, 128.779 131.812, 127.669 132.896, 126.789 132.907, 126.783 133.698, 126.372 134.089, 126.169 134.463, 126.069 " />
            <path fill="none" stroke-width="3.0" stroke-linecap="butt" stroke-opacity="1.0" stroke="rgb(0, 0, 0)" stroke-linejoin="round" d=" M 132.735, 143.456 134.550, 143.701 " />
            <path fill="none" stroke-width="3.0" stroke-linecap="butt" stroke-opacity="1.0" stroke="rgb(0, 0, 0)" stroke-linejoin="round" d=" M 136.758, 123.974 136.311, 123.952 134.929, 123.886 " />
            <path fill="none" stroke-width="3.0" stroke-linecap="butt" stroke-opacity="1.0" stroke="rgb(0, 0, 0)" stroke-linejoin="round" d=" M 131.344, 129.777 131.171, 130.248 130.746, 131.400 130.412, 133.122 130.355, 134.878 130.575, 136.586 130.577, 136.604 131.070, 138.233 131.814, 139.705 131.939, 139.868 132.536, 140.647 132.780, 140.965 133.194, 141.327 133.931, 141.969 135.224, 142.681 135.311, 142.706 136.384, 143.013 136.592, 143.072 136.610, 143.077 137.109, 143.142 137.821, 143.176 138.337, 143.200 138.538, 143.210 139.958, 142.949 141.318, 142.371 142.389, 141.625 142.569, 141.500 143.669, 140.368 144.580, 139.015 144.623, 138.919 145.270, 137.491 145.470, 136.757 145.717, 135.849 145.906, 134.145 145.830, 132.440 145.526, 130.959 145.492, 130.791 145.441, 130.660 144.902, 129.258 144.081, 127.893 143.056, 126.745 142.655, 126.447 141.862, 125.856 140.540, 125.260 140.041, 125.161 139.717, 125.096 139.136, 124.981 138.634, 124.955 138.269, 124.967 138.075, 124.974 137.201, 125.003 136.497, 125.192 135.789, 125.381 134.463, 126.069 134.449, 126.076 133.827, 126.582 133.232, 127.066 133.086, 127.239 132.184, 128.314 131.344, 129.777 " />
            <path fill="none" stroke-width="3.0" stroke-linecap="butt" stroke-opacity="1.0" stroke="rgb(0, 0, 0)" stroke-linejoin="round" d=" M 137.109, 143.142 136.494, 142.966 135.721, 142.746 135.326, 142.528 134.427, 142.032 133.274, 141.027 132.748, 140.339 132.307, 139.763 132.181, 139.514 131.562, 138.288 131.069, 136.656 130.846, 134.927 130.904, 133.166 131.238, 131.440 131.838, 129.814 132.678, 128.348 133.253, 127.663 133.728, 127.097 133.976, 126.895 134.947, 126.105 136.288, 125.408 136.552, 125.337 137.702, 125.030 138.131, 125.015 139.136, 124.981 " />
            <path fill="none" stroke-width="3.0" stroke-linecap="butt" stroke-opacity="1.0" stroke="rgb(0, 0, 0)" stroke-linejoin="round" d=" M 105.866, 135.315 106.115, 135.786 106.872, 136.731 107.773, 137.486 108.786, 138.026 109.872, 138.330 113.215, 138.746 " />
            <path fill="none" stroke-width="3.0" stroke-linecap="butt" stroke-opacity="1.0" stroke="rgb(0, 0, 0)" stroke-linejoin="round" d=" M 114.433, 124.976 111.422, 124.802 110.298, 124.838 109.193, 125.120 108.147, 125.637 107.198, 126.374 106.382, 127.303 105.730, 128.390 105.327, 129.440 " />
            <path fill="none" stroke-width="3.0" stroke-linecap="butt" stroke-opacity="1.0" stroke="rgb(0, 0, 0)" stroke-linejoin="round" d=" M 106.857, 195.226 104.162, 194.749 " />
            <path fill="none" stroke-width="3.0" stroke-linecap="butt" stroke-opacity="1.0" stroke="rgb(0, 0, 0)" stroke-linejoin="round" d=" M 116.032, 139.655 114.143, 141.228 106.459, 147.628 98.776, 154.028 91.092, 160.428 83.408, 166.828 80.625, 169.146 " />
            <path fill="none" stroke-width="3.0" stroke-linecap="butt" stroke-opacity="1.0" stroke="rgb(0, 0, 0)" stroke-linejoin="round" d=" M 73.202, 133.273 83.183, 133.897 93.163, 134.521 103.144, 135.145 105.866, 135.315 112.601, 135.736 114.583, 135.860 115.298, 135.905 " />
            <path fill="none" stroke-width="3.0" stroke-linecap="butt" stroke-opacity="1.0" stroke="rgb(0, 0, 0)" stroke-linejoin="round" d=" M 115.803, 129.571 114.790, 129.558 112.882, 129.535 105.327, 129.440 95.328, 129.315 85.329, 129.190 75.329, 129.065 73.329, 129.040 " />
            <path fill="none" stroke-width="3.0" stroke-linecap="butt" stroke-opacity="1.0" stroke="rgb(0, 0, 0)" stroke-linejoin="round" d=" M 84.960, 94.154 92.047, 101.209 99.134, 108.264 106.221, 115.320 113.308, 122.375 114.985, 124.045 116.012, 125.068 " />
            <path fill="none" stroke-width="3.0" stroke-linecap="butt" stroke-opacity="1.0" stroke="rgb(0, 0, 0)" stroke-linejoin="round" d=" M 120.324, 61.694 118.653, 51.835 117.821, 46.932 " />
            <path fill="none" stroke-width="3.0" stroke-linecap="butt" stroke-opacity="1.0" stroke="rgb(0, 0, 0)" stroke-linejoin="round" d=" M 82.686, 172.724 90.672, 166.705 98.658, 160.686 106.643, 154.667 114.629, 148.648 117.879, 146.198 120.634, 144.121 " />
            <path fill="none" stroke-width="3.0" stroke-linecap="butt" stroke-opacity="1.0" stroke="rgb(0, 0, 0)" stroke-linejoin="round" d=" M 121.554, 121.618 119.078, 119.385 111.652, 112.687 104.227, 105.989 96.801, 99.291 89.375, 92.594 87.210, 90.640 " />
            <path fill="none" stroke-width="3.0" stroke-linecap="butt" stroke-opacity="1.0" stroke="rgb(0, 0, 0)" stroke-linejoin="round" d=" M 127.092, 149.654 129.473, 150.049 " />
            <path fill="none" stroke-width="3.0" stroke-linecap="butt" stroke-opacity="1.0" stroke="rgb(0, 0, 0)" stroke-linejoin="round" d=" M 139.453, 146.990 146.944, 153.615 154.435, 160.239 161.926, 166.864 162.916, 167.739 165.948, 170.421 166.451, 170.866 " />
            <path fill="none" stroke-width="3.0" stroke-linecap="butt" stroke-opacity="1.0" stroke="rgb(0, 0, 0)" stroke-linejoin="round" d=" M 143.971, 125.328 151.593, 118.854 159.214, 112.380 166.835, 105.905 168.127, 104.809 171.334, 102.084 172.301, 101.262 " />
            <path fill="none" stroke-width="3.0" stroke-linecap="butt" stroke-opacity="1.0" stroke="rgb(0, 0, 0)" stroke-linejoin="round" d=" M 145.470, 136.757 155.470, 136.753 165.470, 136.749 172.605, 136.746 176.342, 136.744 178.163, 136.743 " />
            <path fill="none" stroke-width="3.0" stroke-linecap="butt" stroke-opacity="1.0" stroke="rgb(0, 0, 0)" stroke-linejoin="round" d=" M 181.518, 166.180 189.451, 171.223 " />
        </g>
    </g>
</svg>
