<?xml version='1.0' encoding='ascii'?>
<svg xmlns="http://www.w3.org/2000/svg" version="1.1" width="250" height="250">
    <g id="View Layer_LineSet" xmlns:inkscape="http://www.inkscape.org/namespaces/inkscape" inkscape:groupmode="lineset" inkscape:label="View Layer_LineSet">
        <g xmlns:inkscape="http://www.inkscape.org/namespaces/inkscape" inkscape:groupmode="layer" id="strokes" inkscape:label="strokes">
            <path fill="none" stroke-width="3.0" stroke-linecap="butt" stroke-opacity="1.0" stroke="rgb(0, 0, 0)" stroke-linejoin="round" d=" M 118.219, 68.290 118.282, 68.836 118.404, 69.900 119.545, 79.835 120.685, 89.770 121.825, 99.705 122.965, 109.639 123.817, 117.062 " />
            <path fill="none" stroke-width="3.0" stroke-linecap="butt" stroke-opacity="1.0" stroke="rgb(0, 0, 0)" stroke-linejoin="round" d=" M 151.578, 74.681 150.554, 76.971 149.617, 79.064 145.532, 88.192 141.447, 97.319 137.362, 106.447 133.277, 115.575 132.688, 116.892 " />
            <path fill="none" stroke-width="3.0" stroke-linecap="butt" stroke-opacity="1.0" stroke="rgb(0, 0, 0)" stroke-linejoin="round" d=" M 172.212, 103.020 171.918, 103.199 168.475, 105.291 159.929, 110.484 151.383, 115.677 142.837, 120.870 141.664, 121.582 " />
            <path fill="none" stroke-width="3.0" stroke-linecap="butt" stroke-opacity="1.0" stroke="rgb(0, 0, 0)" stroke-linejoin="round" d=" M 178.015, 138.465 176.371, 138.169 172.670, 137.503 162.828, 135.733 152.986, 133.963 145.827, 132.675 " />
            <path fill="none" stroke-width="3.0" stroke-linecap="butt" stroke-opacity="1.0" stroke="rgb(0, 0, 0)" stroke-linejoin="round" d=" M 166.219, 172.651 165.406, 171.664 162.685, 168.361 156.327, 160.642 149.969, 152.924 143.611, 145.205 142.370, 143.699 " />
            <path fill="none" stroke-width="3.0" stroke-linecap="butt" stroke-opacity="1.0" stroke="rgb(0, 0, 0)" stroke-linejoin="round" d=" M 139.721, 195.389 139.555, 193.910 139.226, 190.976 138.111, 181.038 136.996, 171.101 135.881, 161.163 134.766, 151.226 134.584, 149.604 " />
            <path fill="none" stroke-width="3.0" stroke-linecap="butt" stroke-opacity="1.0" stroke="rgb(0, 0, 0)" stroke-linejoin="round" d=" M 105.621, 195.254 105.756, 194.949 106.288, 193.748 110.334, 184.603 114.380, 175.458 118.426, 166.313 122.473, 157.168 125.904, 149.414 125.990, 149.218 " />
            <path fill="none" stroke-width="3.0" stroke-linecap="butt" stroke-opacity="1.0" stroke="rgb(0, 0, 0)" stroke-linejoin="round" d=" M 138.473, 118.764 142.023, 109.416 145.573, 100.067 149.123, 90.718 152.579, 81.617 153.852, 78.266 154.335, 76.992 " />
            <path fill="none" stroke-width="3.0" stroke-linecap="butt" stroke-opacity="1.0" stroke="rgb(0, 0, 0)" stroke-linejoin="round" d=" M 130.032, 116.783 128.390, 106.918 126.747, 97.054 125.105, 87.190 123.462, 77.326 122.137, 69.366 122.014, 68.630 121.786, 67.259 " />
            <path fill="none" stroke-width="3.0" stroke-linecap="butt" stroke-opacity="1.0" stroke="rgb(0, 0, 0)" stroke-linejoin="round" d=" M 128.452, 149.832 130.119, 159.692 131.786, 169.552 133.453, 179.412 135.120, 189.272 135.651, 192.412 135.982, 194.373 136.231, 195.841 " />
            <path fill="none" stroke-width="3.0" stroke-linecap="butt" stroke-opacity="1.0" stroke="rgb(0, 0, 0)" stroke-linejoin="round" d=" M 119.906, 147.662 116.316, 156.995 112.726, 166.329 109.135, 175.662 105.545, 184.995 102.747, 192.269 102.305, 193.418 " />
            <path fill="none" stroke-width="3.0" stroke-linecap="butt" stroke-opacity="1.0" stroke="rgb(0, 0, 0)" stroke-linejoin="round" d=" M 91.236, 195.272 96.871, 198.312 106.003, 202.388 106.992, 202.829 112.000, 204.189 115.476, 205.133 118.534, 205.964 122.096, 206.083 125.789, 206.208 130.188, 206.355 140.005, 204.453 141.524, 204.159 147.370, 201.659 150.564, 200.293 152.175, 199.605 155.171, 197.549 158.232, 195.449 161.838, 192.974 168.925, 185.920 170.274, 184.577 176.082, 176.437 177.161, 174.925 177.297, 174.734 178.850, 171.622 179.073, 171.175 180.805, 167.704 182.768, 163.770 185.857, 154.259 186.589, 152.006 188.281, 142.150 188.692, 139.760 188.812, 135.479 188.833, 134.727 188.922, 131.551 188.938, 130.987 189.040, 127.346 187.890, 117.412 187.620, 115.079 185.022, 105.423 184.445, 103.278 182.667, 99.271 181.120, 95.785 180.281, 93.893 179.559, 92.267 178.458, 90.596 173.039, 82.375 166.142, 75.134 165.004, 73.939 161.480, 71.441 158.507, 69.334 155.623, 67.290 153.406, 66.331 150.251, 64.967 145.125, 62.749 135.299, 60.890 133.807, 60.607 129.374, 60.792 125.644, 60.948 122.036, 61.098 119.144, 61.790 115.583, 62.641 111.292, 63.667 101.656, 66.339 99.888, 66.830 92.952, 70.534 " />
            <path fill="none" stroke-width="3.0" stroke-linecap="butt" stroke-opacity="1.0" stroke="rgb(0, 0, 0)" stroke-linejoin="round" d=" M 68.963, 154.363 70.145, 158.990 68.429, 159.605 63.012, 161.544 55.552, 164.215 47.983, 161.627 46.784, 157.135 56.245, 153.899 60.595, 152.411 60.882, 152.313 " />
            <path fill="none" stroke-width="3.0" stroke-linecap="butt" stroke-opacity="1.0" stroke="rgb(0, 0, 0)" stroke-linejoin="round" d=" M 55.552, 164.215 54.306, 159.491 " />
            <path fill="none" stroke-width="3.0" stroke-linecap="butt" stroke-opacity="1.0" stroke="rgb(0, 0, 0)" stroke-linejoin="round" d=" M 46.784, 157.135 54.306, 159.491 61.756, 156.885 62.142, 156.749 68.963, 154.363 60.882, 152.313 " />
            <path fill="none" stroke-width="3.0" stroke-linecap="butt" stroke-opacity="1.0" stroke="rgb(0, 0, 0)" stroke-linejoin="round" d=" M 147.370, 201.659 148.490, 204.734 157.844, 208.269 159.174, 208.772 162.186, 206.627 158.851, 197.199 158.232, 195.449 " />
            <path fill="none" stroke-width="3.0" stroke-linecap="butt" stroke-opacity="1.0" stroke="rgb(0, 0, 0)" stroke-linejoin="round" d=" M 122.036, 61.098 115.607, 62.886 110.248, 64.376 101.447, 69.124 98.936, 70.478 91.338, 76.980 88.627, 79.301 82.483, 87.191 79.847, 90.576 75.309, 99.487 73.078, 103.868 70.235, 113.456 68.712, 118.589 68.262, 122.665 67.829, 126.586 67.006, 134.036 67.686, 144.013 68.056, 149.445 70.528, 159.134 71.785, 164.059 73.496, 167.700 74.481, 169.798 77.955, 177.191 83.920, 185.217 86.194, 188.276 93.715, 194.866 96.042, 196.904 104.837, 201.663 106.992, 202.829 " />
            <path fill="none" stroke-width="3.0" stroke-linecap="butt" stroke-opacity="1.0" stroke="rgb(0, 0, 0)" stroke-linejoin="round" d=" M 63.012, 161.544 67.313, 170.572 68.849, 173.796 74.859, 181.788 76.788, 184.352 80.357, 187.452 " />
            <path fill="none" stroke-width="3.0" stroke-linecap="butt" stroke-opacity="1.0" stroke="rgb(0, 0, 0)" stroke-linejoin="round" d=" M 129.374, 60.792 128.438, 50.836 128.005, 46.243 124.251, 46.300 114.684, 49.211 114.281, 49.334 115.255, 59.286 115.583, 62.641 " />
            <path fill="none" stroke-width="3.0" stroke-linecap="butt" stroke-opacity="1.0" stroke="rgb(0, 0, 0)" stroke-linejoin="round" d=" M 61.386, 113.405 59.922, 118.282 58.817, 128.220 58.297, 132.895 58.994, 142.871 59.316, 147.479 60.595, 152.411 " />
            <path fill="none" stroke-width="3.0" stroke-linecap="butt" stroke-opacity="1.0" stroke="rgb(0, 0, 0)" stroke-linejoin="round" d=" M 82.728, 77.940 79.039, 81.058 72.846, 88.910 70.599, 91.759 66.015, 100.646 64.104, 104.351 63.563, 106.152 " />
            <path fill="none" stroke-width="3.0" stroke-linecap="butt" stroke-opacity="1.0" stroke="rgb(0, 0, 0)" stroke-linejoin="round" d=" M 123.059, 66.892 133.045, 66.370 133.890, 66.326 143.734, 68.085 144.339, 68.193 148.243, 69.838 150.883, 70.951 154.062, 72.290 162.267, 78.006 162.777, 78.361 169.721, 85.556 170.261, 86.116 174.749, 92.848 176.349, 95.248 176.831, 96.322 180.921, 105.446 183.543, 115.096 183.897, 116.398 185.060, 126.330 185.232, 127.797 185.148, 130.815 185.134, 131.335 184.911, 139.339 183.210, 149.193 182.946, 150.721 179.837, 160.226 179.374, 161.644 175.117, 170.106 174.262, 171.804 173.407, 172.992 167.711, 180.899 160.582, 187.912 159.857, 188.625 151.570, 194.222 150.882, 194.686 149.472, 195.275 145.629, 196.878 141.018, 198.802 131.182, 200.608 130.551, 200.724 120.561, 200.283 119.827, 200.251 110.204, 197.530 109.241, 197.258 105.621, 195.254 104.341, 194.545 102.305, 193.418 99.232, 191.717 91.765, 185.066 90.259, 183.724 84.346, 175.659 82.774, 173.514 80.164, 167.890 78.412, 164.115 77.183, 161.467 74.739, 151.770 73.813, 148.094 73.145, 138.116 72.870, 134.013 73.581, 127.545 74.044, 123.334 74.421, 119.899 77.244, 110.306 78.382, 106.435 82.885, 97.506 84.527, 94.249 88.052, 89.668 90.577, 86.387 92.511, 83.875 100.060, 77.317 101.908, 75.712 110.666, 70.886 112.249, 70.014 115.864, 68.970 118.219, 68.290 121.786, 67.259 123.059, 66.892 " />
            <path fill="none" stroke-width="3.0" stroke-linecap="butt" stroke-opacity="1.0" stroke="rgb(0, 0, 0)" stroke-linejoin="round" d=" M 152.579, 81.617 158.245, 87.330 163.896, 95.580 164.210, 96.038 168.396, 105.120 168.475, 105.291 " />
            <path fill="none" stroke-width="3.0" stroke-linecap="butt" stroke-opacity="1.0" stroke="rgb(0, 0, 0)" stroke-linejoin="round" d=" M 177.161, 174.925 186.675, 177.098 188.355, 173.665 180.805, 167.704 " />
            <path fill="none" stroke-width="3.0" stroke-linecap="butt" stroke-opacity="1.0" stroke="rgb(0, 0, 0)" stroke-linejoin="round" d=" M 169.600, 108.998 171.628, 116.243 172.833, 126.170 172.951, 127.142 172.680, 137.138 172.670, 137.503 " />
            <path fill="none" stroke-width="3.0" stroke-linecap="butt" stroke-opacity="1.0" stroke="rgb(0, 0, 0)" stroke-linejoin="round" d=" M 172.123, 141.190 170.741, 149.057 167.572, 158.541 167.256, 159.486 162.685, 168.361 " />
            <path fill="none" stroke-width="3.0" stroke-linecap="butt" stroke-opacity="1.0" stroke="rgb(0, 0, 0)" stroke-linejoin="round" d=" M 160.514, 171.545 155.871, 177.828 148.645, 184.740 148.210, 185.157 139.843, 190.633 139.465, 190.880 139.226, 190.976 " />
            <path fill="none" stroke-width="3.0" stroke-linecap="butt" stroke-opacity="1.0" stroke="rgb(0, 0, 0)" stroke-linejoin="round" d=" M 135.651, 192.412 129.866, 194.734 120.011, 196.433 119.696, 196.487 109.709, 195.979 109.293, 195.957 105.756, 194.949 " />
            <path fill="none" stroke-width="3.0" stroke-linecap="butt" stroke-opacity="1.0" stroke="rgb(0, 0, 0)" stroke-linejoin="round" d=" M 122.014, 68.630 122.794, 68.587 132.651, 70.272 132.950, 70.323 142.208, 74.104 142.421, 74.191 149.617, 79.064 " />
            <path fill="none" stroke-width="3.0" stroke-linecap="butt" stroke-opacity="1.0" stroke="rgb(0, 0, 0)" stroke-linejoin="round" d=" M 80.431, 187.355 80.357, 187.452 74.306, 195.413 71.327, 199.331 74.439, 201.926 82.979, 206.427 88.928, 198.389 91.236, 195.272 92.313, 193.817 89.192, 191.085 " />
            <path fill="none" stroke-width="3.0" stroke-linecap="butt" stroke-opacity="1.0" stroke="rgb(0, 0, 0)" stroke-linejoin="round" d=" M 79.758, 203.726 85.739, 195.712 87.551, 193.284 88.413, 192.128 89.192, 191.085 80.431, 187.355 " />
            <path fill="none" stroke-width="3.0" stroke-linecap="butt" stroke-opacity="1.0" stroke="rgb(0, 0, 0)" stroke-linejoin="round" d=" M 71.216, 108.883 68.830, 108.031 63.563, 106.152 56.796, 103.738 49.140, 104.200 47.755, 108.724 57.213, 111.972 61.386, 113.405 61.692, 113.511 69.833, 113.544 " />
            <path fill="none" stroke-width="3.0" stroke-linecap="butt" stroke-opacity="1.0" stroke="rgb(0, 0, 0)" stroke-linejoin="round" d=" M 55.351, 108.503 62.148, 110.868 62.453, 110.975 69.833, 113.544 71.216, 108.883 " />
            <path fill="none" stroke-width="3.0" stroke-linecap="butt" stroke-opacity="1.0" stroke="rgb(0, 0, 0)" stroke-linejoin="round" d=" M 95.040, 73.543 92.952, 70.534 87.251, 62.319 86.207, 60.814 77.444, 63.338 74.195, 65.987 80.005, 74.126 82.728, 77.940 82.835, 78.090 91.774, 76.337 " />
            <path fill="none" stroke-width="3.0" stroke-linecap="butt" stroke-opacity="1.0" stroke="rgb(0, 0, 0)" stroke-linejoin="round" d=" M 82.839, 63.585 88.577, 71.774 89.137, 72.573 90.479, 74.489 91.774, 76.337 95.040, 73.543 " />
            <path fill="none" stroke-width="3.0" stroke-linecap="butt" stroke-opacity="1.0" stroke="rgb(0, 0, 0)" stroke-linejoin="round" d=" M 182.667, 99.271 190.614, 93.179 189.118, 89.726 179.151, 90.539 178.458, 90.596 " />
            <path fill="none" stroke-width="3.0" stroke-linecap="butt" stroke-opacity="1.0" stroke="rgb(0, 0, 0)" stroke-linejoin="round" d=" M 188.812, 135.479 197.675, 135.409 197.785, 131.553 188.938, 130.987 " />
            <path fill="none" stroke-width="3.0" stroke-linecap="butt" stroke-opacity="1.0" stroke="rgb(0, 0, 0)" stroke-linejoin="round" d=" M 112.000, 204.189 110.551, 214.084 110.338, 215.541 119.278, 220.022 120.024, 220.396 123.740, 220.423 125.167, 210.525 125.789, 206.208 " />
            <path fill="none" stroke-width="3.0" stroke-linecap="butt" stroke-opacity="1.0" stroke="rgb(0, 0, 0)" stroke-linejoin="round" d=" M 71.327, 199.331 79.758, 203.726 82.979, 206.427 " />
            <path fill="none" stroke-width="3.0" stroke-linecap="butt" stroke-opacity="1.0" stroke="rgb(0, 0, 0)" stroke-linejoin="round" d=" M 56.796, 103.738 55.351, 108.503 47.755, 108.724 " />
            <path fill="none" stroke-width="3.0" stroke-linecap="butt" stroke-opacity="1.0" stroke="rgb(0, 0, 0)" stroke-linejoin="round" d=" M 86.207, 60.814 82.839, 63.585 74.195, 65.987 " />
            <path fill="none" stroke-width="3.0" stroke-linecap="butt" stroke-opacity="1.0" stroke="rgb(0, 0, 0)" stroke-linejoin="round" d=" M 161.480, 71.441 165.215, 62.165 166.091, 59.991 163.169, 57.833 153.390, 59.922 152.228, 60.170 150.251, 64.967 " />
            <path fill="none" stroke-width="3.0" stroke-linecap="butt" stroke-opacity="1.0" stroke="rgb(0, 0, 0)" stroke-linejoin="round" d=" M 163.169, 57.833 159.413, 67.101 158.507, 69.334 " />
            <path fill="none" stroke-width="3.0" stroke-linecap="butt" stroke-opacity="1.0" stroke="rgb(0, 0, 0)" stroke-linejoin="round" d=" M 189.118, 89.726 181.120, 95.785 " />
            <path fill="none" stroke-width="3.0" stroke-linecap="butt" stroke-opacity="1.0" stroke="rgb(0, 0, 0)" stroke-linejoin="round" d=" M 159.174, 208.772 155.814, 199.353 155.171, 197.549 " />
            <path fill="none" stroke-width="3.0" stroke-linecap="butt" stroke-opacity="1.0" stroke="rgb(0, 0, 0)" stroke-linejoin="round" d=" M 197.785, 131.553 188.922, 131.551 " />
            <path fill="none" stroke-width="3.0" stroke-linecap="butt" stroke-opacity="1.0" stroke="rgb(0, 0, 0)" stroke-linejoin="round" d=" M 120.024, 220.396 121.457, 210.499 122.096, 206.083 " />
            <path fill="none" stroke-width="3.0" stroke-linecap="butt" stroke-opacity="1.0" stroke="rgb(0, 0, 0)" stroke-linejoin="round" d=" M 145.373, 130.513 145.157, 128.874 144.516, 126.736 144.292, 125.989 142.987, 123.357 141.664, 121.582 141.282, 121.070 139.234, 119.210 138.473, 118.764 136.908, 117.847 134.384, 117.035 132.688, 116.892 131.749, 116.812 130.032, 116.783 " />
            <path fill="none" stroke-width="3.0" stroke-linecap="butt" stroke-opacity="1.0" stroke="rgb(0, 0, 0)" stroke-linejoin="round" d=" M 131.749, 116.812 130.077, 117.054 129.097, 117.195 126.526, 118.178 124.134, 119.732 124.125, 119.741 122.738, 121.096 122.012, 121.806 120.245, 124.326 119.785, 125.312 119.281, 126.394 118.905, 127.199 118.542, 128.515 118.046, 130.316 117.703, 133.555 117.777, 134.841 117.890, 136.792 117.967, 137.128 118.483, 139.389 118.599, 139.900 119.800, 142.759 120.025, 143.102 121.056, 144.672 121.443, 145.262 123.461, 147.315 125.775, 148.848 126.099, 148.972 128.293, 149.810 128.452, 149.832 130.922, 150.173 133.563, 149.933 134.584, 149.604 136.124, 149.107 138.209, 147.908 138.515, 147.732 140.654, 145.863 142.370, 143.699 142.473, 143.569 143.911, 140.933 144.659, 138.798 " />
            <path fill="none" stroke-width="3.0" stroke-linecap="butt" stroke-opacity="1.0" stroke="rgb(0, 0, 0)" stroke-linejoin="round" d=" M 112.470, 134.026 112.597, 136.196 112.979, 137.852 113.182, 138.729 113.297, 139.228 113.547, 139.816 " />
            <path fill="none" stroke-width="3.0" stroke-linecap="butt" stroke-opacity="1.0" stroke="rgb(0, 0, 0)" stroke-linejoin="round" d=" M 123.817, 117.062 123.624, 117.089 121.092, 118.047 120.354, 118.522 " />
            <path fill="none" stroke-width="3.0" stroke-linecap="butt" stroke-opacity="1.0" stroke="rgb(0, 0, 0)" stroke-linejoin="round" d=" M 116.764, 145.130 118.088, 146.467 119.906, 147.662 " />
            <path fill="none" stroke-width="3.0" stroke-linecap="butt" stroke-opacity="1.0" stroke="rgb(0, 0, 0)" stroke-linejoin="round" d=" M 115.817, 122.758 114.909, 124.042 114.457, 125.003 114.082, 125.799 113.592, 126.842 113.305, 127.875 " />
            <path fill="none" stroke-width="3.0" stroke-linecap="butt" stroke-opacity="1.0" stroke="rgb(0, 0, 0)" stroke-linejoin="round" d=" M 133.585, 143.540 134.558, 143.671 135.404, 143.785 136.113, 143.728 136.965, 143.660 137.850, 143.383 138.484, 143.184 138.507, 143.171 " />
            <path fill="none" stroke-width="3.0" stroke-linecap="butt" stroke-opacity="1.0" stroke="rgb(0, 0, 0)" stroke-linejoin="round" d=" M 133.585, 143.540 132.045, 143.307 130.576, 142.724 130.513, 142.682 129.845, 142.227 129.231, 141.809 128.062, 140.594 127.114, 139.122 126.423, 137.446 126.017, 135.630 125.910, 133.740 126.109, 131.849 126.605, 130.028 127.379, 128.345 128.400, 126.863 129.630, 125.637 131.022, 124.710 131.449, 124.540 132.222, 124.233 132.522, 124.114 134.075, 123.869 " />
            <path fill="none" stroke-width="3.0" stroke-linecap="butt" stroke-opacity="1.0" stroke="rgb(0, 0, 0)" stroke-linejoin="round" d=" M 140.004, 125.137 138.954, 124.533 138.726, 124.462 137.868, 124.196 137.651, 124.129 137.533, 124.092 137.457, 124.068 135.900, 123.957 135.668, 123.993 134.340, 124.204 132.832, 124.805 132.716, 124.882 132.051, 125.327 131.434, 125.739 130.198, 126.976 129.172, 128.470 128.394, 130.167 127.895, 132.003 127.695, 133.909 127.801, 135.814 128.210, 137.645 128.904, 139.334 129.856, 140.818 130.596, 141.589 131.030, 142.042 131.160, 142.130 132.381, 142.964 133.790, 143.524 133.857, 143.551 134.556, 143.656 135.404, 143.785 " />
            <path fill="none" stroke-width="3.0" stroke-linecap="butt" stroke-opacity="1.0" stroke="rgb(0, 0, 0)" stroke-linejoin="round" d=" M 133.199, 141.349 133.055, 141.291 132.376, 140.825 131.955, 140.536 131.688, 140.256 130.999, 139.535 130.225, 138.324 129.661, 136.947 129.329, 135.454 129.243, 133.903 129.406, 132.350 129.811, 130.854 130.444, 129.471 131.279, 128.251 132.285, 127.241 132.896, 126.830 133.424, 126.475 133.682, 126.372 134.653, 125.981 134.663, 125.980 " />
            <path fill="none" stroke-width="3.0" stroke-linecap="butt" stroke-opacity="1.0" stroke="rgb(0, 0, 0)" stroke-linejoin="round" d=" M 135.900, 123.957 134.075, 123.869 " />
            <path fill="none" stroke-width="3.0" stroke-linecap="butt" stroke-opacity="1.0" stroke="rgb(0, 0, 0)" stroke-linejoin="round" d=" M 131.696, 129.093 131.154, 130.280 130.985, 130.651 130.529, 132.336 130.346, 134.085 130.442, 135.833 130.598, 136.534 130.815, 137.513 131.448, 139.063 131.973, 139.885 132.318, 140.425 132.524, 140.642 133.199, 141.349 133.391, 141.550 134.625, 142.398 134.935, 142.522 135.975, 142.938 136.445, 143.010 136.662, 143.043 137.391, 143.155 137.891, 143.220 138.059, 143.207 138.507, 143.171 139.321, 143.107 140.714, 142.670 141.265, 142.357 142.020, 141.928 143.194, 140.909 144.194, 139.650 144.659, 138.798 144.879, 138.395 144.987, 138.197 145.547, 136.602 145.853, 134.918 145.897, 133.206 145.827, 132.675 145.677, 131.525 145.373, 130.513 145.198, 129.933 144.479, 128.485 143.636, 127.359 143.542, 127.234 142.419, 126.223 141.150, 125.492 140.004, 125.137 139.777, 125.067 139.454, 125.044 138.350, 124.966 138.252, 124.961 138.000, 124.948 137.849, 124.940 136.876, 125.097 136.421, 125.170 135.042, 125.724 134.663, 125.980 133.783, 126.571 133.764, 126.584 133.107, 127.245 132.634, 127.721 131.696, 129.093 " />
            <path fill="none" stroke-width="3.0" stroke-linecap="butt" stroke-opacity="1.0" stroke="rgb(0, 0, 0)" stroke-linejoin="round" d=" M 137.891, 143.220 136.474, 143.003 136.471, 143.002 135.122, 142.462 135.010, 142.385 133.886, 141.613 132.812, 140.485 132.741, 140.374 132.186, 139.504 131.941, 139.120 131.307, 137.567 130.934, 135.883 130.838, 134.131 131.021, 132.378 131.477, 130.690 132.189, 129.129 133.129, 127.753 133.271, 127.610 133.959, 126.918 134.260, 126.614 135.540, 125.752 136.864, 125.220 136.920, 125.197 138.101, 125.007 138.350, 124.966 " />
            <path fill="none" stroke-width="3.0" stroke-linecap="butt" stroke-opacity="1.0" stroke="rgb(0, 0, 0)" stroke-linejoin="round" d=" M 105.032, 132.786 105.038, 132.896 105.332, 134.148 105.828, 135.306 106.510, 136.326 107.350, 137.170 108.316, 137.810 109.374, 138.222 110.484, 138.393 113.182, 138.729 " />
            <path fill="none" stroke-width="3.0" stroke-linecap="butt" stroke-opacity="1.0" stroke="rgb(0, 0, 0)" stroke-linejoin="round" d=" M 114.457, 125.003 110.805, 124.791 109.687, 124.962 108.609, 125.375 107.611, 126.015 106.731, 126.861 106.564, 127.095 " />
            <path fill="none" stroke-width="3.0" stroke-linecap="butt" stroke-opacity="1.0" stroke="rgb(0, 0, 0)" stroke-linejoin="round" d=" M 114.822, 138.933 113.547, 139.816 105.322, 145.504 97.097, 151.192 88.873, 156.880 80.648, 162.569 78.412, 164.115 " />
            <path fill="none" stroke-width="3.0" stroke-linecap="butt" stroke-opacity="1.0" stroke="rgb(0, 0, 0)" stroke-linejoin="round" d=" M 73.581, 127.545 83.445, 129.188 93.309, 130.832 103.173, 132.476 105.032, 132.786 112.470, 134.026 114.389, 134.346 115.391, 134.512 " />
            <path fill="none" stroke-width="3.0" stroke-linecap="butt" stroke-opacity="1.0" stroke="rgb(0, 0, 0)" stroke-linejoin="round" d=" M 116.032, 128.190 115.283, 128.104 113.305, 127.875 106.564, 127.095 96.630, 125.946 86.696, 124.797 76.763, 123.648 74.044, 123.334 " />
            <path fill="none" stroke-width="3.0" stroke-linecap="butt" stroke-opacity="1.0" stroke="rgb(0, 0, 0)" stroke-linejoin="round" d=" M 88.052, 89.668 94.480, 97.329 100.908, 104.990 107.336, 112.650 113.763, 120.311 115.817, 122.758 117.359, 124.596 " />
            <path fill="none" stroke-width="3.0" stroke-linecap="butt" stroke-opacity="1.0" stroke="rgb(0, 0, 0)" stroke-linejoin="round" d=" M 80.164, 167.890 88.656, 162.610 97.148, 157.329 105.640, 152.048 114.132, 146.767 116.764, 145.130 119.648, 143.336 " />
            <path fill="none" stroke-width="3.0" stroke-linecap="butt" stroke-opacity="1.0" stroke="rgb(0, 0, 0)" stroke-linejoin="round" d=" M 115.864, 68.970 118.282, 68.836 " />
            <path fill="none" stroke-width="3.0" stroke-linecap="butt" stroke-opacity="1.0" stroke="rgb(0, 0, 0)" stroke-linejoin="round" d=" M 122.738, 121.096 120.354, 118.522 113.557, 111.187 106.760, 103.852 99.963, 96.517 93.166, 89.182 90.577, 86.387 " />
            <path fill="none" stroke-width="3.0" stroke-linecap="butt" stroke-opacity="1.0" stroke="rgb(0, 0, 0)" stroke-linejoin="round" d=" M 125.644, 60.948 124.697, 50.993 124.251, 46.300 " />
            <path fill="none" stroke-width="3.0" stroke-linecap="butt" stroke-opacity="1.0" stroke="rgb(0, 0, 0)" stroke-linejoin="round" d=" M 125.904, 149.414 128.293, 149.810 " />
            <path fill="none" stroke-width="3.0" stroke-linecap="butt" stroke-opacity="1.0" stroke="rgb(0, 0, 0)" stroke-linejoin="round" d=" M 138.209, 147.908 145.072, 155.181 151.935, 162.454 158.798, 169.727 160.514, 171.545 163.358, 174.560 163.667, 174.887 " />
            <path fill="none" stroke-width="3.0" stroke-linecap="butt" stroke-opacity="1.0" stroke="rgb(0, 0, 0)" stroke-linejoin="round" d=" M 144.516, 126.736 152.681, 120.963 160.846, 115.189 169.010, 109.415 169.600, 108.998 172.958, 106.624 174.149, 105.782 " />
            <path fill="none" stroke-width="3.0" stroke-linecap="butt" stroke-opacity="1.0" stroke="rgb(0, 0, 0)" stroke-linejoin="round" d=" M 144.879, 138.395 154.827, 139.416 164.775, 140.436 172.123, 141.190 175.838, 141.571 177.622, 141.754 " />
            <path fill="none" stroke-width="3.0" stroke-linecap="butt" stroke-opacity="1.0" stroke="rgb(0, 0, 0)" stroke-linejoin="round" d=" M 179.073, 171.175 186.675, 177.098 " />
        </g>
    </g>
</svg>
