<?xml version='1.0' encoding='ascii'?>
<svg xmlns="http://www.w3.org/2000/svg" version="1.1" width="250" height="250">
    <g id="View Layer_LineSet" xmlns:inkscape="http://www.inkscape.org/namespaces/inkscape" inkscape:groupmode="lineset" inkscape:label="View Layer_LineSet">
        <g xmlns:inkscape="http://www.inkscape.org/namespaces/inkscape" inkscape:groupmode="layer" id="strokes" inkscape:label="strokes">
            <path fill="none" stroke-width="3.0" stroke-linecap="butt" stroke-opacity="1.0" stroke="rgb(0, 0, 0)" stroke-linejoin="round" d=" M 138.166, 71.175 137.958, 72.203 135.978, 82.005 133.998, 91.807 132.018, 101.609 130.038, 111.411 128.948, 116.808 " />
            <path fill="none" stroke-width="3.0" stroke-linecap="butt" stroke-opacity="1.0" stroke="rgb(0, 0, 0)" stroke-linejoin="round" d=" M 165.489, 90.138 165.200, 90.441 162.501, 93.271 155.598, 100.506 148.695, 107.742 141.792, 114.977 138.325, 118.612 " />
            <path fill="none" stroke-width="3.0" stroke-linecap="butt" stroke-opacity="1.0" stroke="rgb(0, 0, 0)" stroke-linejoin="round" d=" M 177.785, 123.421 176.409, 123.599 172.688, 124.082 162.771, 125.368 152.854, 126.654 144.853, 127.692 " />
            <path fill="none" stroke-width="3.0" stroke-linecap="butt" stroke-opacity="1.0" stroke="rgb(0, 0, 0)" stroke-linejoin="round" d=" M 173.023, 159.435 171.699, 158.515 168.480, 156.278 160.268, 150.571 152.057, 144.864 144.428, 139.562 " />
            <path fill="none" stroke-width="3.0" stroke-linecap="butt" stroke-opacity="1.0" stroke="rgb(0, 0, 0)" stroke-linejoin="round" d=" M 152.241, 188.503 151.943, 187.650 151.785, 187.200 150.397, 183.228 147.098, 173.788 143.798, 164.348 140.498, 154.908 138.068, 147.957 " />
            <path fill="none" stroke-width="3.0" stroke-linecap="butt" stroke-opacity="1.0" stroke="rgb(0, 0, 0)" stroke-linejoin="round" d=" M 119.664, 198.775 120.061, 196.791 120.178, 196.209 122.143, 186.404 124.109, 176.599 126.074, 166.794 128.039, 156.989 129.436, 150.020 " />
            <path fill="none" stroke-width="3.0" stroke-linecap="butt" stroke-opacity="1.0" stroke="rgb(0, 0, 0)" stroke-linejoin="round" d=" M 126.216, 116.784 122.405, 107.539 118.594, 98.293 114.784, 89.048 110.973, 79.802 108.111, 72.858 107.832, 72.182 " />
            <path fill="none" stroke-width="3.0" stroke-linecap="butt" stroke-opacity="1.0" stroke="rgb(0, 0, 0)" stroke-linejoin="round" d=" M 132.447, 150.056 136.306, 159.282 140.165, 168.507 144.024, 177.732 147.300, 185.565 148.463, 188.345 148.996, 189.621 " />
            <path fill="none" stroke-width="3.0" stroke-linecap="butt" stroke-opacity="1.0" stroke="rgb(0, 0, 0)" stroke-linejoin="round" d=" M 123.337, 148.979 121.876, 158.872 120.416, 168.764 118.955, 178.657 117.494, 188.550 116.375, 196.131 116.347, 196.319 116.079, 198.133 " />
            <path fill="none" stroke-width="3.0" stroke-linecap="butt" stroke-opacity="1.0" stroke="rgb(0, 0, 0)" stroke-linejoin="round" d=" M 73.553, 180.181 80.006, 187.560 88.039, 193.515 89.947, 194.929 94.073, 196.764 97.514, 198.295 99.828, 199.324 103.286, 200.846 106.841, 202.410 111.046, 204.261 120.880, 206.078 122.681, 206.411 127.890, 206.164 131.377, 205.998 134.268, 205.861 137.676, 204.924 141.204, 203.953 145.400, 202.798 154.288, 198.217 155.731, 197.474 162.115, 192.441 164.593, 190.487 164.919, 190.231 164.984, 190.180 167.493, 187.356 170.012, 184.523 172.936, 181.232 178.273, 172.776 179.422, 170.955 183.402, 161.781 184.317, 159.670 184.900, 157.503 185.390, 155.678 185.870, 153.893 186.408, 151.889 187.534, 147.699 188.728, 137.770 189.018, 135.357 188.792, 125.359 188.738, 122.959 188.014, 118.662 187.523, 115.752 187.367, 114.821 186.907, 112.093 186.692, 110.821 183.578, 101.318 182.904, 99.263 178.331, 90.369 177.427, 88.611 174.807, 85.124 172.566, 82.143 170.353, 79.197 169.735, 78.629 167.180, 76.283 161.818, 71.357 153.263, 66.179 152.011, 65.421 147.924, 64.017 144.493, 62.838 141.184, 61.701 138.155, 61.377 134.684, 61.007 129.660, 60.470 119.736, 61.701 117.829, 61.938 113.303, 63.024 " />
            <path fill="none" stroke-width="3.0" stroke-linecap="butt" stroke-opacity="1.0" stroke="rgb(0, 0, 0)" stroke-linejoin="round" d=" M 75.723, 173.076 77.926, 177.023 73.553, 180.181 65.447, 186.035 65.208, 186.208 57.288, 182.572 55.070, 178.766 63.265, 173.036 67.214, 170.276 67.412, 170.138 " />
            <path fill="none" stroke-width="3.0" stroke-linecap="butt" stroke-opacity="1.0" stroke="rgb(0, 0, 0)" stroke-linejoin="round" d=" M 65.208, 186.208 62.906, 182.218 " />
            <path fill="none" stroke-width="3.0" stroke-linecap="butt" stroke-opacity="1.0" stroke="rgb(0, 0, 0)" stroke-linejoin="round" d=" M 55.070, 178.766 62.906, 182.218 70.787, 176.597 72.841, 175.132 75.723, 173.076 67.412, 170.138 " />
            <path fill="none" stroke-width="3.0" stroke-linecap="butt" stroke-opacity="1.0" stroke="rgb(0, 0, 0)" stroke-linejoin="round" d=" M 113.454, 63.485 113.303, 63.024 110.201, 53.517 108.727, 49.000 99.220, 51.988 95.571, 53.222 98.757, 62.701 100.213, 67.036 100.229, 67.082 " />
            <path fill="none" stroke-width="3.0" stroke-linecap="butt" stroke-opacity="1.0" stroke="rgb(0, 0, 0)" stroke-linejoin="round" d=" M 162.115, 192.441 162.435, 192.915 171.982, 195.889 173.432, 196.341 175.891, 193.502 170.413, 185.136 170.012, 184.523 " />
            <path fill="none" stroke-width="3.0" stroke-linecap="butt" stroke-opacity="1.0" stroke="rgb(0, 0, 0)" stroke-linejoin="round" d=" M 117.829, 61.938 108.441, 65.381 106.152, 66.221 97.742, 71.631 95.135, 73.308 88.030, 80.346 85.309, 83.041 79.722, 91.335 77.192, 95.090 76.315, 97.134 74.830, 100.593 71.237, 108.964 69.008, 118.712 67.793, 124.027 67.323, 134.016 67.063, 139.549 67.342, 141.646 67.858, 145.537 69.082, 154.760 72.190, 164.265 73.712, 168.921 78.584, 177.655 80.664, 181.384 87.206, 188.948 89.531, 191.636 97.544, 197.618 99.770, 199.280 99.828, 199.324 " />
            <path fill="none" stroke-width="3.0" stroke-linecap="butt" stroke-opacity="1.0" stroke="rgb(0, 0, 0)" stroke-linejoin="round" d=" M 113.454, 63.485 109.754, 64.842 " />
            <path fill="none" stroke-width="3.0" stroke-linecap="butt" stroke-opacity="1.0" stroke="rgb(0, 0, 0)" stroke-linejoin="round" d=" M 100.229, 67.082 109.754, 64.842 109.608, 64.399 109.459, 63.946 106.332, 54.447 104.960, 50.276 " />
            <path fill="none" stroke-width="3.0" stroke-linecap="butt" stroke-opacity="1.0" stroke="rgb(0, 0, 0)" stroke-linejoin="round" d=" M 95.571, 53.222 104.960, 50.276 108.727, 49.000 " />
            <path fill="none" stroke-width="3.0" stroke-linecap="butt" stroke-opacity="1.0" stroke="rgb(0, 0, 0)" stroke-linejoin="round" d=" M 58.549, 133.990 58.356, 138.112 59.697, 148.021 60.305, 152.513 63.456, 162.004 64.764, 165.940 67.214, 170.276 " />
            <path fill="none" stroke-width="3.0" stroke-linecap="butt" stroke-opacity="1.0" stroke="rgb(0, 0, 0)" stroke-linejoin="round" d=" M 70.878, 91.893 68.050, 96.037 64.063, 105.208 62.339, 109.174 60.087, 118.917 59.045, 123.426 58.809, 128.462 " />
            <path fill="none" stroke-width="3.0" stroke-linecap="butt" stroke-opacity="1.0" stroke="rgb(0, 0, 0)" stroke-linejoin="round" d=" M 100.213, 67.036 95.931, 68.597 87.495, 73.965 85.305, 75.359 78.157, 82.352 77.353, 83.138 " />
            <path fill="none" stroke-width="3.0" stroke-linecap="butt" stroke-opacity="1.0" stroke="rgb(0, 0, 0)" stroke-linejoin="round" d=" M 119.197, 67.704 129.108, 66.369 130.070, 66.240 140.024, 67.198 140.697, 67.263 150.186, 70.421 150.713, 70.596 159.312, 75.700 159.814, 75.998 164.213, 79.981 167.586, 83.035 167.757, 83.190 173.810, 91.150 174.357, 91.869 178.968, 100.742 179.478, 101.724 182.621, 111.217 183.027, 112.444 183.050, 112.578 183.454, 114.950 184.948, 123.719 185.179, 133.717 185.215, 135.245 184.016, 145.173 183.830, 146.719 181.593, 154.986 181.150, 156.625 180.822, 157.839 176.817, 167.002 176.247, 168.304 170.876, 176.740 170.193, 177.812 163.510, 185.250 163.042, 185.771 162.784, 186.058 159.523, 188.592 154.183, 192.744 145.256, 197.251 144.604, 197.581 134.938, 200.142 134.315, 200.307 124.322, 200.677 123.639, 200.703 119.442, 199.882 115.923, 199.193 112.955, 198.613 104.224, 194.666 102.690, 193.972 94.729, 187.920 93.296, 186.830 88.744, 181.490 86.133, 178.426 85.233, 177.371 80.409, 168.612 78.928, 165.923 75.854, 156.408 74.739, 152.955 73.660, 144.711 73.113, 140.530 72.919, 139.050 73.390, 129.061 73.587, 124.869 75.800, 115.117 76.712, 111.098 79.758, 103.937 81.408, 100.055 82.116, 98.392 87.661, 90.070 89.492, 87.322 96.548, 80.236 98.440, 78.337 104.546, 74.335 107.832, 72.182 108.500, 71.744 115.881, 68.957 119.197, 67.704 " />
            <path fill="none" stroke-width="3.0" stroke-linecap="butt" stroke-opacity="1.0" stroke="rgb(0, 0, 0)" stroke-linejoin="round" d=" M 141.435, 73.902 148.033, 77.706 155.537, 84.316 155.795, 84.543 161.952, 92.424 162.257, 92.814 162.501, 93.271 " />
            <path fill="none" stroke-width="3.0" stroke-linecap="butt" stroke-opacity="1.0" stroke="rgb(0, 0, 0)" stroke-linejoin="round" d=" M 184.900, 157.503 193.833, 158.929 194.819, 155.203 186.408, 151.889 " />
            <path fill="none" stroke-width="3.0" stroke-linecap="butt" stroke-opacity="1.0" stroke="rgb(0, 0, 0)" stroke-linejoin="round" d=" M 164.362, 96.756 167.280, 102.220 170.505, 111.686 170.770, 112.463 172.503, 122.312 172.667, 123.243 172.688, 124.082 " />
            <path fill="none" stroke-width="3.0" stroke-linecap="butt" stroke-opacity="1.0" stroke="rgb(0, 0, 0)" stroke-linejoin="round" d=" M 172.782, 127.839 172.944, 134.264 171.729, 144.190 171.602, 145.232 168.941, 154.871 168.669, 155.854 168.480, 156.278 " />
            <path fill="none" stroke-width="3.0" stroke-linecap="butt" stroke-opacity="1.0" stroke="rgb(0, 0, 0)" stroke-linejoin="round" d=" M 166.941, 159.718 164.204, 165.839 158.738, 174.213 158.294, 174.893 151.511, 182.241 151.064, 182.725 150.397, 183.228 " />
            <path fill="none" stroke-width="3.0" stroke-linecap="butt" stroke-opacity="1.0" stroke="rgb(0, 0, 0)" stroke-linejoin="round" d=" M 147.300, 185.565 142.680, 189.050 133.691, 193.432 133.354, 193.596 123.657, 196.041 123.351, 196.118 120.178, 196.209 " />
            <path fill="none" stroke-width="3.0" stroke-linecap="butt" stroke-opacity="1.0" stroke="rgb(0, 0, 0)" stroke-linejoin="round" d=" M 116.347, 196.319 112.989, 196.415 104.224, 194.666 " />
            <path fill="none" stroke-width="3.0" stroke-linecap="butt" stroke-opacity="1.0" stroke="rgb(0, 0, 0)" stroke-linejoin="round" d=" M 115.881, 68.957 119.087, 68.520 129.046, 69.420 129.408, 69.452 137.958, 72.203 " />
            <path fill="none" stroke-width="3.0" stroke-linecap="butt" stroke-opacity="1.0" stroke="rgb(0, 0, 0)" stroke-linejoin="round" d=" M 59.142, 128.473 58.809, 128.462 48.814, 128.119 44.423, 127.968 44.199, 132.750 51.633, 133.815 58.549, 133.990 64.144, 134.132 66.943, 134.203 67.174, 129.289 " />
            <path fill="none" stroke-width="3.0" stroke-linecap="butt" stroke-opacity="1.0" stroke="rgb(0, 0, 0)" stroke-linejoin="round" d=" M 51.869, 128.777 58.783, 129.008 59.116, 129.019 67.174, 129.289 59.142, 128.473 " />
            <path fill="none" stroke-width="3.0" stroke-linecap="butt" stroke-opacity="1.0" stroke="rgb(0, 0, 0)" stroke-linejoin="round" d=" M 82.166, 87.177 81.736, 86.817 77.353, 83.138 70.332, 77.245 62.146, 79.014 59.575, 82.684 67.327, 89.000 70.878, 91.893 71.085, 92.062 79.594, 90.993 " />
            <path fill="none" stroke-width="3.0" stroke-linecap="butt" stroke-opacity="1.0" stroke="rgb(0, 0, 0)" stroke-linejoin="round" d=" M 67.658, 81.100 74.419, 86.704 76.062, 88.065 79.594, 90.993 82.166, 87.177 " />
            <path fill="none" stroke-width="3.0" stroke-linecap="butt" stroke-opacity="1.0" stroke="rgb(0, 0, 0)" stroke-linejoin="round" d=" M 174.807, 85.124 180.962, 77.242 181.571, 76.462 179.391, 73.477 169.493, 74.901 168.131, 75.097 167.180, 76.283 " />
            <path fill="none" stroke-width="3.0" stroke-linecap="butt" stroke-opacity="1.0" stroke="rgb(0, 0, 0)" stroke-linejoin="round" d=" M 188.014, 118.662 196.738, 115.846 196.117, 112.068 186.907, 112.093 " />
            <path fill="none" stroke-width="3.0" stroke-linecap="butt" stroke-opacity="1.0" stroke="rgb(0, 0, 0)" stroke-linejoin="round" d=" M 127.890, 206.164 128.444, 213.656 137.557, 217.774 138.632, 218.260 142.142, 217.206 141.436, 207.231 141.204, 203.953 " />
            <path fill="none" stroke-width="3.0" stroke-linecap="butt" stroke-opacity="1.0" stroke="rgb(0, 0, 0)" stroke-linejoin="round" d=" M 94.073, 196.764 90.039, 205.914 88.136, 210.232 96.961, 214.935 97.137, 215.030 100.765, 216.517 104.721, 207.332 106.841, 202.410 " />
            <path fill="none" stroke-width="3.0" stroke-linecap="butt" stroke-opacity="1.0" stroke="rgb(0, 0, 0)" stroke-linejoin="round" d=" M 44.423, 127.968 51.869, 128.777 51.633, 133.815 " />
            <path fill="none" stroke-width="3.0" stroke-linecap="butt" stroke-opacity="1.0" stroke="rgb(0, 0, 0)" stroke-linejoin="round" d=" M 70.332, 77.245 67.658, 81.100 59.575, 82.684 " />
            <path fill="none" stroke-width="3.0" stroke-linecap="butt" stroke-opacity="1.0" stroke="rgb(0, 0, 0)" stroke-linejoin="round" d=" M 147.924, 64.017 149.576, 54.154 150.147, 50.748 146.740, 49.485 137.069, 52.026 136.175, 52.260 134.684, 61.007 " />
            <path fill="none" stroke-width="3.0" stroke-linecap="butt" stroke-opacity="1.0" stroke="rgb(0, 0, 0)" stroke-linejoin="round" d=" M 146.740, 49.485 145.080, 59.346 144.493, 62.838 " />
            <path fill="none" stroke-width="3.0" stroke-linecap="butt" stroke-opacity="1.0" stroke="rgb(0, 0, 0)" stroke-linejoin="round" d=" M 179.391, 73.477 173.204, 81.334 172.566, 82.143 " />
            <path fill="none" stroke-width="3.0" stroke-linecap="butt" stroke-opacity="1.0" stroke="rgb(0, 0, 0)" stroke-linejoin="round" d=" M 173.432, 196.341 167.918, 187.998 167.493, 187.356 " />
            <path fill="none" stroke-width="3.0" stroke-linecap="butt" stroke-opacity="1.0" stroke="rgb(0, 0, 0)" stroke-linejoin="round" d=" M 196.117, 112.068 187.367, 114.821 " />
            <path fill="none" stroke-width="3.0" stroke-linecap="butt" stroke-opacity="1.0" stroke="rgb(0, 0, 0)" stroke-linejoin="round" d=" M 138.632, 218.260 137.917, 208.286 137.676, 204.924 " />
            <path fill="none" stroke-width="3.0" stroke-linecap="butt" stroke-opacity="1.0" stroke="rgb(0, 0, 0)" stroke-linejoin="round" d=" M 97.137, 215.030 101.115, 205.855 103.286, 200.846 " />
            <path fill="none" stroke-width="3.0" stroke-linecap="butt" stroke-opacity="1.0" stroke="rgb(0, 0, 0)" stroke-linejoin="round" d=" M 145.447, 130.703 144.903, 127.827 144.853, 127.692 143.877, 125.021 142.574, 122.761 142.425, 122.502 140.591, 120.357 138.436, 118.666 138.325, 118.612 136.031, 117.493 135.099, 117.274 133.457, 116.887 130.804, 116.879 128.844, 117.323 128.170, 117.476 126.773, 118.136 125.652, 118.666 123.345, 120.412 121.621, 122.339 121.340, 122.654 120.583, 123.894 119.732, 125.287 119.718, 125.311 118.543, 128.283 118.240, 129.700 117.864, 131.458 117.836, 132.041 117.709, 134.711 118.083, 137.916 118.215, 138.365 118.518, 139.401 118.804, 140.378 118.971, 140.949 120.336, 143.693 122.074, 145.985 122.120, 146.046 123.580, 147.330 124.253, 147.922 126.650, 149.257 129.219, 150.008 129.436, 150.020 131.863, 150.157 132.447, 150.056 134.486, 149.705 136.996, 148.679 138.068, 147.957 139.307, 147.122 141.340, 145.094 141.616, 144.696 143.029, 142.668 144.321, 139.932 144.428, 139.562 144.616, 138.911 " />
            <path fill="none" stroke-width="3.0" stroke-linecap="butt" stroke-opacity="1.0" stroke="rgb(0, 0, 0)" stroke-linejoin="round" d=" M 113.312, 139.063 113.664, 140.251 115.008, 142.929 115.649, 143.766 " />
            <path fill="none" stroke-width="3.0" stroke-linecap="butt" stroke-opacity="1.0" stroke="rgb(0, 0, 0)" stroke-linejoin="round" d=" M 120.252, 118.513 120.230, 118.523 117.959, 120.225 116.752, 121.563 " />
            <path fill="none" stroke-width="3.0" stroke-linecap="butt" stroke-opacity="1.0" stroke="rgb(0, 0, 0)" stroke-linejoin="round" d=" M 120.314, 147.859 121.230, 148.366 123.337, 148.979 " />
            <path fill="none" stroke-width="3.0" stroke-linecap="butt" stroke-opacity="1.0" stroke="rgb(0, 0, 0)" stroke-linejoin="round" d=" M 113.627, 126.918 113.235, 127.899 112.569, 130.995 112.477, 132.914 " />
            <path fill="none" stroke-width="3.0" stroke-linecap="butt" stroke-opacity="1.0" stroke="rgb(0, 0, 0)" stroke-linejoin="round" d=" M 128.948, 116.808 127.920, 116.790 126.216, 116.784 " />
            <path fill="none" stroke-width="3.0" stroke-linecap="butt" stroke-opacity="1.0" stroke="rgb(0, 0, 0)" stroke-linejoin="round" d=" M 132.586, 143.431 131.086, 142.970 130.563, 142.670 129.848, 142.260 129.691, 142.170 128.454, 141.057 127.423, 139.671 126.637, 138.061 126.127, 136.286 125.913, 134.415 126.004, 132.516 126.396, 130.662 127.074, 128.922 128.012, 127.362 129.173, 126.040 130.513, 125.002 131.451, 124.544 131.980, 124.286 132.183, 124.237 133.521, 123.915 135.079, 123.900 " />
            <path fill="none" stroke-width="3.0" stroke-linecap="butt" stroke-opacity="1.0" stroke="rgb(0, 0, 0)" stroke-linejoin="round" d=" M 140.070, 125.171 139.863, 125.010 139.588, 124.879 138.433, 124.328 137.896, 124.209 136.908, 123.988 135.618, 124.001 135.534, 124.001 135.344, 124.003 133.796, 124.377 132.752, 124.888 132.321, 125.100 132.047, 125.312 130.975, 126.146 129.808, 127.479 128.865, 129.052 128.184, 130.806 127.789, 132.675 127.698, 134.589 127.912, 136.476 128.424, 138.264 129.214, 139.887 130.250, 141.284 130.562, 141.566 131.174, 142.119 131.492, 142.406 132.893, 143.211 133.900, 143.521 134.401, 143.675 135.192, 143.729 135.959, 143.781 136.109, 143.757 136.273, 143.731 137.511, 143.531 138.310, 143.211 " />
            <path fill="none" stroke-width="3.0" stroke-linecap="butt" stroke-opacity="1.0" stroke="rgb(0, 0, 0)" stroke-linejoin="round" d=" M 133.226, 141.352 132.375, 140.859 132.331, 140.834 131.678, 140.241 131.319, 139.916 130.477, 138.775 129.835, 137.451 129.420, 135.994 129.245, 134.457 129.320, 132.897 129.641, 131.375 130.195, 129.945 130.961, 128.662 131.911, 127.573 132.918, 126.786 133.007, 126.717 133.691, 126.379 134.209, 126.124 134.502, 126.052 " />
            <path fill="none" stroke-width="3.0" stroke-linecap="butt" stroke-opacity="1.0" stroke="rgb(0, 0, 0)" stroke-linejoin="round" d=" M 132.586, 143.431 134.401, 143.675 " />
            <path fill="none" stroke-width="3.0" stroke-linecap="butt" stroke-opacity="1.0" stroke="rgb(0, 0, 0)" stroke-linejoin="round" d=" M 136.908, 123.988 135.565, 123.923 135.079, 123.900 " />
            <path fill="none" stroke-width="3.0" stroke-linecap="butt" stroke-opacity="1.0" stroke="rgb(0, 0, 0)" stroke-linejoin="round" d=" M 130.793, 131.237 130.432, 132.953 130.348, 134.709 130.544, 136.440 130.580, 136.568 131.011, 138.081 131.731, 139.571 131.947, 139.863 132.525, 140.647 132.678, 140.854 133.226, 141.352 133.813, 141.885 135.094, 142.626 136.362, 143.019 136.473, 143.053 136.594, 143.069 136.972, 143.118 138.310, 143.211 138.400, 143.218 138.969, 143.126 139.823, 142.988 141.190, 142.441 142.454, 141.596 143.570, 140.488 144.285, 139.463 144.501, 139.154 144.616, 138.911 145.214, 137.645 145.685, 136.011 145.899, 134.311 145.872, 133.400 145.849, 132.603 145.536, 130.947 145.447, 130.703 144.970, 129.400 144.170, 128.016 143.988, 127.804 143.163, 126.845 141.983, 125.930 140.672, 125.305 140.479, 125.262 140.070, 125.171 139.694, 125.087 139.274, 124.993 138.772, 124.967 138.290, 124.973 138.099, 124.975 137.339, 124.984 136.707, 125.139 135.923, 125.330 134.574, 125.996 134.502, 126.052 133.815, 126.589 133.343, 126.958 133.096, 127.242 132.277, 128.183 131.416, 129.628 131.169, 130.266 130.793, 131.237 " />
            <path fill="none" stroke-width="3.0" stroke-linecap="butt" stroke-opacity="1.0" stroke="rgb(0, 0, 0)" stroke-linejoin="round" d=" M 136.972, 143.118 136.489, 142.968 135.591, 142.690 134.308, 141.947 133.172, 140.915 132.746, 140.337 132.225, 139.629 132.180, 139.536 131.503, 138.136 131.035, 136.492 130.840, 134.757 130.924, 132.997 131.285, 131.278 131.909, 129.664 132.771, 128.217 133.254, 127.662 133.839, 126.989 133.984, 126.876 135.072, 126.024 136.422, 125.357 136.841, 125.255 137.840, 125.010 138.139, 125.007 139.274, 124.993 " />
            <path fill="none" stroke-width="3.0" stroke-linecap="butt" stroke-opacity="1.0" stroke="rgb(0, 0, 0)" stroke-linejoin="round" d=" M 110.538, 124.823 110.408, 124.824 109.299, 125.082 108.245, 125.577 107.285, 126.294 106.455, 127.205 105.787, 128.279 105.304, 129.476 105.027, 130.752 104.964, 132.059 105.120, 133.349 105.401, 134.283 " />
            <path fill="none" stroke-width="3.0" stroke-linecap="butt" stroke-opacity="1.0" stroke="rgb(0, 0, 0)" stroke-linejoin="round" d=" M 114.358, 132.550 112.477, 132.914 105.401, 134.283 95.583, 136.183 85.765, 138.082 75.947, 139.981 73.113, 140.530 " />
            <path fill="none" stroke-width="3.0" stroke-linecap="butt" stroke-opacity="1.0" stroke="rgb(0, 0, 0)" stroke-linejoin="round" d=" M 79.758, 103.937 88.032, 109.551 96.307, 115.166 104.582, 120.781 110.538, 124.823 113.627, 126.918 115.322, 128.069 " />
            <path fill="none" stroke-width="3.0" stroke-linecap="butt" stroke-opacity="1.0" stroke="rgb(0, 0, 0)" stroke-linejoin="round" d=" M 117.468, 141.631 115.649, 143.766 109.165, 151.379 102.682, 158.993 96.198, 166.606 89.715, 174.220 86.133, 178.426 " />
            <path fill="none" stroke-width="3.0" stroke-linecap="butt" stroke-opacity="1.0" stroke="rgb(0, 0, 0)" stroke-linejoin="round" d=" M 73.660, 144.711 83.560, 143.301 93.460, 141.891 103.360, 140.480 113.312, 139.063 114.474, 138.897 115.563, 138.742 116.440, 138.617 " />
            <path fill="none" stroke-width="3.0" stroke-linecap="butt" stroke-opacity="1.0" stroke="rgb(0, 0, 0)" stroke-linejoin="round" d=" M 119.119, 123.003 116.752, 121.563 108.210, 116.364 99.667, 111.166 91.124, 105.968 82.582, 100.769 81.408, 100.055 " />
            <path fill="none" stroke-width="3.0" stroke-linecap="butt" stroke-opacity="1.0" stroke="rgb(0, 0, 0)" stroke-linejoin="round" d=" M 104.546, 74.335 107.896, 83.758 111.246, 93.180 114.596, 102.602 117.946, 112.024 120.252, 118.513 " />
            <path fill="none" stroke-width="3.0" stroke-linecap="butt" stroke-opacity="1.0" stroke="rgb(0, 0, 0)" stroke-linejoin="round" d=" M 88.744, 181.490 95.589, 174.199 102.433, 166.908 109.277, 159.617 116.121, 152.326 120.314, 147.859 122.074, 145.985 " />
            <path fill="none" stroke-width="3.0" stroke-linecap="butt" stroke-opacity="1.0" stroke="rgb(0, 0, 0)" stroke-linejoin="round" d=" M 135.099, 117.274 136.545, 107.379 137.990, 97.484 139.436, 87.589 140.881, 77.694 141.435, 73.902 141.746, 71.777 " />
            <path fill="none" stroke-width="3.0" stroke-linecap="butt" stroke-opacity="1.0" stroke="rgb(0, 0, 0)" stroke-linejoin="round" d=" M 142.574, 122.761 148.996, 115.096 155.419, 107.430 161.841, 99.765 164.362, 96.756 167.198, 93.371 167.685, 92.790 " />
            <path fill="none" stroke-width="3.0" stroke-linecap="butt" stroke-opacity="1.0" stroke="rgb(0, 0, 0)" stroke-linejoin="round" d=" M 141.616, 144.696 150.217, 149.798 158.818, 154.900 166.941, 159.718 170.284, 161.701 171.326, 162.319 " />
            <path fill="none" stroke-width="3.0" stroke-linecap="butt" stroke-opacity="1.0" stroke="rgb(0, 0, 0)" stroke-linejoin="round" d=" M 145.872, 133.400 155.666, 131.376 165.459, 129.352 172.782, 127.839 176.494, 127.072 178.468, 126.664 " />
            <path fill="none" stroke-width="3.0" stroke-linecap="butt" stroke-opacity="1.0" stroke="rgb(0, 0, 0)" stroke-linejoin="round" d=" M 185.390, 155.678 193.833, 158.929 " />
        </g>
    </g>
</svg>
