<?xml version='1.0' encoding='ascii'?>
<svg xmlns="http://www.w3.org/2000/svg" version="1.1" width="250" height="250">
    <g id="View Layer_LineSet" xmlns:inkscape="http://www.inkscape.org/namespaces/inkscape" inkscape:groupmode="lineset" inkscape:label="View Layer_LineSet">
        <g xmlns:inkscape="http://www.inkscape.org/namespaces/inkscape" inkscape:groupmode="layer" id="strokes" inkscape:label="strokes">
            <path fill="none" stroke-width="3.0" stroke-linecap="butt" stroke-opacity="1.0" stroke="rgb(0, 0, 0)" stroke-linejoin="round" d=" M 111.227, 70.795 111.389, 71.498 113.633, 81.243 115.877, 90.988 118.121, 100.733 120.365, 110.478 122.014, 117.639 " />
            <path fill="none" stroke-width="3.0" stroke-linecap="butt" stroke-opacity="1.0" stroke="rgb(0, 0, 0)" stroke-linejoin="round" d=" M 144.563, 73.624 144.044, 75.248 141.003, 84.774 137.961, 94.300 134.919, 103.826 131.878, 113.353 130.781, 116.787 " />
            <path fill="none" stroke-width="3.0" stroke-linecap="butt" stroke-opacity="1.0" stroke="rgb(0, 0, 0)" stroke-linejoin="round" d=" M 169.073, 96.471 169.044, 96.495 165.830, 99.096 158.056, 105.387 150.283, 111.677 142.510, 117.968 140.090, 119.926 " />
            <path fill="none" stroke-width="3.0" stroke-linecap="butt" stroke-opacity="1.0" stroke="rgb(0, 0, 0)" stroke-linejoin="round" d=" M 178.378, 130.920 176.744, 130.881 173.025, 130.791 163.028, 130.551 153.031, 130.310 145.361, 130.126 " />
            <path fill="none" stroke-width="3.0" stroke-linecap="butt" stroke-opacity="1.0" stroke="rgb(0, 0, 0)" stroke-linejoin="round" d=" M 170.036, 166.316 168.890, 165.253 165.896, 162.477 158.563, 155.678 151.230, 148.879 143.897, 142.080 143.525, 141.735 " />
            <path fill="none" stroke-width="3.0" stroke-linecap="butt" stroke-opacity="1.0" stroke="rgb(0, 0, 0)" stroke-linejoin="round" d=" M 146.185, 192.380 146.139, 192.174 145.869, 190.979 145.067, 187.436 142.862, 177.683 140.656, 167.929 138.450, 158.175 136.358, 148.923 " />
            <path fill="none" stroke-width="3.0" stroke-linecap="butt" stroke-opacity="1.0" stroke="rgb(0, 0, 0)" stroke-linejoin="round" d=" M 112.497, 197.788 113.012, 196.158 113.119, 195.820 116.133, 186.285 119.148, 176.750 122.162, 167.216 125.176, 157.681 127.690, 149.728 " />
            <path fill="none" stroke-width="3.0" stroke-linecap="butt" stroke-opacity="1.0" stroke="rgb(0, 0, 0)" stroke-linejoin="round" d=" M 136.819, 117.880 139.323, 108.199 141.827, 98.517 144.331, 88.836 146.836, 79.155 147.287, 77.409 148.018, 74.585 148.566, 72.464 " />
            <path fill="none" stroke-width="3.0" stroke-linecap="butt" stroke-opacity="1.0" stroke="rgb(0, 0, 0)" stroke-linejoin="round" d=" M 128.226, 116.903 128.180, 116.742 125.453, 107.121 122.725, 97.500 119.997, 87.879 117.269, 78.259 115.084, 70.552 114.698, 69.190 " />
            <path fill="none" stroke-width="3.0" stroke-linecap="butt" stroke-opacity="1.0" stroke="rgb(0, 0, 0)" stroke-linejoin="round" d=" M 130.413, 150.116 133.178, 159.726 135.943, 169.336 138.708, 178.947 141.473, 188.557 141.702, 189.351 142.405, 191.796 142.802, 193.177 " />
            <path fill="none" stroke-width="3.0" stroke-linecap="butt" stroke-opacity="1.0" stroke="rgb(0, 0, 0)" stroke-linejoin="round" d=" M 121.597, 148.465 119.065, 158.139 116.533, 167.813 114.000, 177.487 111.468, 187.161 109.481, 194.750 109.236, 195.688 108.959, 196.746 " />
            <path fill="none" stroke-width="3.0" stroke-linecap="butt" stroke-opacity="1.0" stroke="rgb(0, 0, 0)" stroke-linejoin="round" d=" M 99.049, 199.292 103.371, 201.222 112.798, 204.557 114.777, 205.257 119.841, 205.806 123.354, 206.186 126.444, 206.521 129.953, 206.098 133.592, 205.660 137.926, 205.137 147.363, 201.830 148.834, 201.315 154.974, 197.639 157.970, 195.845 158.845, 195.321 161.613, 192.864 164.417, 190.374 167.700, 187.459 173.929, 179.637 175.195, 178.047 180.098, 169.332 181.180, 167.409 181.547, 166.437 182.615, 163.613 182.863, 162.955 183.995, 159.960 185.541, 155.868 187.686, 146.101 188.204, 143.743 188.942, 133.770 189.121, 131.349 188.824, 127.033 188.697, 125.198 188.555, 123.126 188.441, 121.477 188.271, 119.000 186.142, 109.229 185.659, 107.014 182.074, 97.679 181.318, 95.712 179.113, 91.932 177.212, 88.674 175.448, 85.652 175.314, 85.423 174.300, 84.224 173.101, 82.805 167.752, 76.480 159.980, 70.188 158.783, 69.219 154.951, 67.239 151.729, 65.574 148.616, 63.965 145.905, 63.245 142.568, 62.359 137.526, 61.020 127.531, 60.695 125.856, 60.641 121.417, 61.529 117.667, 62.280 114.022, 63.009 111.487, 63.616 107.874, 64.479 103.537, 65.516 94.408, 69.598 92.407, 70.493 84.855, 76.055 " />
            <path fill="none" stroke-width="3.0" stroke-linecap="butt" stroke-opacity="1.0" stroke="rgb(0, 0, 0)" stroke-linejoin="round" d=" M 71.787, 164.061 73.503, 168.392 72.792, 168.770 67.688, 171.477 59.720, 175.705 51.999, 172.560 50.264, 168.367 59.168, 163.815 63.364, 161.670 63.610, 161.544 " />
            <path fill="none" stroke-width="3.0" stroke-linecap="butt" stroke-opacity="1.0" stroke="rgb(0, 0, 0)" stroke-linejoin="round" d=" M 59.720, 175.705 57.919, 171.301 " />
            <path fill="none" stroke-width="3.0" stroke-linecap="butt" stroke-opacity="1.0" stroke="rgb(0, 0, 0)" stroke-linejoin="round" d=" M 50.264, 168.367 57.919, 171.301 65.619, 167.281 67.371, 166.366 71.787, 164.061 63.610, 161.544 " />
            <path fill="none" stroke-width="3.0" stroke-linecap="butt" stroke-opacity="1.0" stroke="rgb(0, 0, 0)" stroke-linejoin="round" d=" M 154.974, 197.639 155.798, 199.265 165.251, 202.527 166.649, 203.010 169.397, 200.494 164.982, 191.522 164.417, 190.374 " />
            <path fill="none" stroke-width="3.0" stroke-linecap="butt" stroke-opacity="1.0" stroke="rgb(0, 0, 0)" stroke-linejoin="round" d=" M 67.688, 171.477 73.160, 179.847 74.034, 181.183 81.113, 188.246 83.083, 190.212 86.978, 192.690 " />
            <path fill="none" stroke-width="3.0" stroke-linecap="butt" stroke-opacity="1.0" stroke="rgb(0, 0, 0)" stroke-linejoin="round" d=" M 114.022, 63.009 113.286, 63.341 104.170, 67.452 102.500, 68.205 94.482, 74.180 91.810, 76.171 85.176, 83.654 82.481, 86.695 80.580, 89.929 79.089, 92.465 75.016, 99.394 71.618, 108.799 69.839, 113.726 68.174, 123.587 67.256, 129.021 67.288, 132.139 67.329, 136.076 67.417, 144.526 69.311, 154.345 70.301, 159.476 73.983, 168.773 75.718, 173.155 81.143, 181.555 83.337, 184.953 90.381, 192.051 92.720, 194.408 101.144, 199.797 103.371, 201.222 " />
            <path fill="none" stroke-width="3.0" stroke-linecap="butt" stroke-opacity="1.0" stroke="rgb(0, 0, 0)" stroke-linejoin="round" d=" M 121.417, 61.529 119.399, 51.735 118.393, 46.849 114.596, 47.506 105.052, 50.489 104.909, 50.534 106.989, 60.315 107.874, 64.479 " />
            <path fill="none" stroke-width="3.0" stroke-linecap="butt" stroke-opacity="1.0" stroke="rgb(0, 0, 0)" stroke-linejoin="round" d=" M 59.383, 123.165 58.533, 128.150 58.646, 138.149 58.699, 142.822 60.626, 152.635 61.479, 156.982 63.364, 161.670 " />
            <path fill="none" stroke-width="3.0" stroke-linecap="butt" stroke-opacity="1.0" stroke="rgb(0, 0, 0)" stroke-linejoin="round" d=" M 76.425, 84.407 73.129, 88.078 68.012, 96.670 65.961, 100.114 62.527, 109.506 61.001, 113.681 60.374, 117.354 " />
            <path fill="none" stroke-width="3.0" stroke-linecap="butt" stroke-opacity="1.0" stroke="rgb(0, 0, 0)" stroke-linejoin="round" d=" M 126.571, 66.434 136.568, 66.654 137.320, 66.671 141.060, 67.624 141.670, 67.779 147.569, 69.282 156.494, 73.793 156.995, 74.046 164.815, 80.279 165.334, 80.693 169.844, 85.960 172.384, 88.926 172.653, 89.381 177.734, 97.995 177.994, 98.436 181.611, 107.759 182.058, 108.911 184.208, 118.677 184.508, 120.041 184.617, 121.593 184.721, 123.084 185.310, 131.519 184.571, 141.491 184.456, 143.042 182.298, 152.806 181.966, 154.309 178.758, 162.736 177.889, 165.019 177.814, 165.152 172.879, 173.850 172.301, 174.869 166.032, 182.660 165.313, 183.555 157.793, 190.147 157.075, 190.776 156.706, 190.993 152.779, 193.302 147.785, 196.239 138.318, 199.460 137.692, 199.673 127.753, 200.769 127.102, 200.841 117.172, 199.659 116.377, 199.565 112.395, 198.110 108.933, 196.845 105.928, 195.747 104.265, 194.662 96.202, 189.399 89.213, 182.246 87.661, 180.658 84.078, 175.035 81.870, 171.571 80.746, 169.807 77.102, 160.495 75.841, 157.270 73.970, 147.447 73.237, 143.598 73.164, 136.141 73.123, 131.913 73.099, 129.431 74.753, 119.569 75.444, 115.454 78.815, 106.039 80.140, 102.337 83.534, 96.503 85.637, 92.888 86.920, 90.683 93.507, 83.159 95.409, 80.985 103.380, 74.947 105.163, 73.597 111.227, 70.795 114.698, 69.190 115.706, 68.724 115.730, 68.719 125.515, 66.657 126.571, 66.434 " />
            <path fill="none" stroke-width="3.0" stroke-linecap="butt" stroke-opacity="1.0" stroke="rgb(0, 0, 0)" stroke-linejoin="round" d=" M 147.287, 77.409 153.426, 82.168 160.031, 89.675 160.324, 90.008 165.508, 98.559 165.824, 99.081 165.830, 99.096 " />
            <path fill="none" stroke-width="3.0" stroke-linecap="butt" stroke-opacity="1.0" stroke="rgb(0, 0, 0)" stroke-linejoin="round" d=" M 181.547, 166.437 190.694, 168.211 192.032, 164.610 183.995, 159.960 " />
            <path fill="none" stroke-width="3.0" stroke-linecap="butt" stroke-opacity="1.0" stroke="rgb(0, 0, 0)" stroke-linejoin="round" d=" M 167.288, 102.751 169.816, 109.086 172.030, 118.838 172.231, 119.725 172.959, 129.699 173.032, 130.701 173.025, 130.791 " />
            <path fill="none" stroke-width="3.0" stroke-linecap="butt" stroke-opacity="1.0" stroke="rgb(0, 0, 0)" stroke-linejoin="round" d=" M 172.748, 134.515 172.210, 141.718 170.014, 151.474 169.786, 152.484 166.159, 161.803 165.896, 162.477 " />
            <path fill="none" stroke-width="3.0" stroke-linecap="butt" stroke-opacity="1.0" stroke="rgb(0, 0, 0)" stroke-linejoin="round" d=" M 164.021, 165.779 160.351, 172.092 153.983, 179.803 153.531, 180.350 145.918, 186.834 145.498, 187.191 145.067, 187.436 " />
            <path fill="none" stroke-width="3.0" stroke-linecap="butt" stroke-opacity="1.0" stroke="rgb(0, 0, 0)" stroke-linejoin="round" d=" M 141.702, 189.351 136.450, 192.339 126.942, 195.438 126.633, 195.539 116.683, 196.539 116.349, 196.573 113.012, 196.158 " />
            <path fill="none" stroke-width="3.0" stroke-linecap="butt" stroke-opacity="1.0" stroke="rgb(0, 0, 0)" stroke-linejoin="round" d=" M 109.236, 195.688 105.950, 195.279 104.265, 194.662 " />
            <path fill="none" stroke-width="3.0" stroke-linecap="butt" stroke-opacity="1.0" stroke="rgb(0, 0, 0)" stroke-linejoin="round" d=" M 115.730, 68.719 125.728, 68.895 126.126, 68.902 135.837, 71.285 136.094, 71.349 144.044, 75.248 " />
            <path fill="none" stroke-width="3.0" stroke-linecap="butt" stroke-opacity="1.0" stroke="rgb(0, 0, 0)" stroke-linejoin="round" d=" M 87.010, 192.637 86.978, 192.690 81.918, 201.315 79.456, 205.510 82.807, 207.539 91.633, 212.250 96.600, 203.571 99.049, 199.292 99.295, 198.863 99.364, 198.741 95.990, 196.582 " />
            <path fill="none" stroke-width="3.0" stroke-linecap="butt" stroke-opacity="1.0" stroke="rgb(0, 0, 0)" stroke-linejoin="round" d=" M 88.169, 210.149 93.163, 201.486 95.373, 197.652 95.685, 197.111 95.990, 196.582 87.010, 192.637 " />
            <path fill="none" stroke-width="3.0" stroke-linecap="butt" stroke-opacity="1.0" stroke="rgb(0, 0, 0)" stroke-linejoin="round" d=" M 68.586, 118.923 65.863, 118.403 60.374, 117.354 53.567, 116.053 46.046, 115.891 45.230, 120.600 55.069, 122.383 59.383, 123.165 59.710, 123.225 67.768, 123.765 " />
            <path fill="none" stroke-width="3.0" stroke-linecap="butt" stroke-opacity="1.0" stroke="rgb(0, 0, 0)" stroke-linejoin="round" d=" M 52.714, 121.014 59.537, 122.261 59.864, 122.321 67.768, 123.765 68.586, 118.923 " />
            <path fill="none" stroke-width="3.0" stroke-linecap="butt" stroke-opacity="1.0" stroke="rgb(0, 0, 0)" stroke-linejoin="round" d=" M 88.251, 79.801 84.855, 76.055 78.139, 68.646 77.847, 68.324 69.382, 70.511 66.434, 73.696 73.255, 81.009 76.425, 84.407 76.582, 84.575 85.296, 83.134 " />
            <path fill="none" stroke-width="3.0" stroke-linecap="butt" stroke-opacity="1.0" stroke="rgb(0, 0, 0)" stroke-linejoin="round" d=" M 74.785, 71.664 81.392, 78.874 83.097, 80.734 85.296, 83.134 88.251, 79.801 " />
            <path fill="none" stroke-width="3.0" stroke-linecap="butt" stroke-opacity="1.0" stroke="rgb(0, 0, 0)" stroke-linejoin="round" d=" M 179.113, 91.932 186.194, 84.871 186.532, 84.534 184.688, 81.292 174.752, 82.416 173.338, 82.576 173.101, 82.805 " />
            <path fill="none" stroke-width="3.0" stroke-linecap="butt" stroke-opacity="1.0" stroke="rgb(0, 0, 0)" stroke-linejoin="round" d=" M 188.824, 127.033 197.672, 125.588 197.417, 121.750 188.441, 121.477 " />
            <path fill="none" stroke-width="3.0" stroke-linecap="butt" stroke-opacity="1.0" stroke="rgb(0, 0, 0)" stroke-linejoin="round" d=" M 119.841, 205.806 119.500, 215.268 128.521, 219.584 129.446, 220.027 133.087, 219.495 133.452, 209.502 133.592, 205.660 " />
            <path fill="none" stroke-width="3.0" stroke-linecap="butt" stroke-opacity="1.0" stroke="rgb(0, 0, 0)" stroke-linejoin="round" d=" M 79.456, 205.510 88.169, 210.149 91.633, 212.250 " />
            <path fill="none" stroke-width="3.0" stroke-linecap="butt" stroke-opacity="1.0" stroke="rgb(0, 0, 0)" stroke-linejoin="round" d=" M 53.567, 116.053 52.714, 121.014 45.230, 120.600 " />
            <path fill="none" stroke-width="3.0" stroke-linecap="butt" stroke-opacity="1.0" stroke="rgb(0, 0, 0)" stroke-linejoin="round" d=" M 77.847, 68.324 74.785, 71.664 66.434, 73.696 " />
            <path fill="none" stroke-width="3.0" stroke-linecap="butt" stroke-opacity="1.0" stroke="rgb(0, 0, 0)" stroke-linejoin="round" d=" M 154.951, 67.239 157.652, 57.611 158.438, 54.811 155.255, 53.076 145.530, 55.404 144.489, 55.654 142.568, 62.359 " />
            <path fill="none" stroke-width="3.0" stroke-linecap="butt" stroke-opacity="1.0" stroke="rgb(0, 0, 0)" stroke-linejoin="round" d=" M 155.255, 53.076 152.540, 62.701 151.729, 65.574 " />
            <path fill="none" stroke-width="3.0" stroke-linecap="butt" stroke-opacity="1.0" stroke="rgb(0, 0, 0)" stroke-linejoin="round" d=" M 184.688, 81.292 177.573, 88.318 177.212, 88.674 " />
            <path fill="none" stroke-width="3.0" stroke-linecap="butt" stroke-opacity="1.0" stroke="rgb(0, 0, 0)" stroke-linejoin="round" d=" M 166.649, 203.010 162.203, 194.053 161.613, 192.864 " />
            <path fill="none" stroke-width="3.0" stroke-linecap="butt" stroke-opacity="1.0" stroke="rgb(0, 0, 0)" stroke-linejoin="round" d=" M 197.417, 121.750 188.555, 123.126 " />
            <path fill="none" stroke-width="3.0" stroke-linecap="butt" stroke-opacity="1.0" stroke="rgb(0, 0, 0)" stroke-linejoin="round" d=" M 129.446, 220.027 129.810, 210.033 129.953, 206.098 " />
            <path fill="none" stroke-width="3.0" stroke-linecap="butt" stroke-opacity="1.0" stroke="rgb(0, 0, 0)" stroke-linejoin="round" d=" M 145.388, 130.466 145.361, 130.126 145.338, 129.842 144.621, 126.897 143.659, 124.653 143.453, 124.173 141.873, 121.765 140.090, 119.926 139.928, 119.759 137.684, 118.228 136.819, 117.880 135.215, 117.234 132.605, 116.818 130.729, 116.950 129.948, 117.005 128.389, 117.478 127.341, 117.796 124.880, 119.171 122.783, 120.979 122.661, 121.084 121.585, 122.443 120.772, 123.470 119.797, 125.288 119.287, 126.240 118.700, 127.999 118.268, 129.291 118.114, 130.257 117.756, 132.505 117.772, 135.756 117.921, 136.622 118.292, 138.783 118.315, 138.919 118.488, 139.407 119.362, 141.871 120.869, 144.499 120.966, 144.612 122.224, 146.070 122.774, 146.707 125.002, 148.414 127.464, 149.564 127.724, 149.620 130.068, 150.122 130.413, 150.116 132.716, 150.076 135.313, 149.436 136.358, 148.923 137.767, 148.232 139.996, 146.516 140.040, 146.467 141.925, 144.351 143.491, 141.816 143.525, 141.735 144.645, 138.999 144.697, 138.780 " />
            <path fill="none" stroke-width="3.0" stroke-linecap="butt" stroke-opacity="1.0" stroke="rgb(0, 0, 0)" stroke-linejoin="round" d=" M 112.723, 136.581 112.946, 137.862 113.017, 138.271 113.187, 138.747 114.049, 141.151 114.482, 141.900 " />
            <path fill="none" stroke-width="3.0" stroke-linecap="butt" stroke-opacity="1.0" stroke="rgb(0, 0, 0)" stroke-linejoin="round" d=" M 122.014, 117.639 121.894, 117.676 119.471, 119.016 118.463, 119.876 " />
            <path fill="none" stroke-width="3.0" stroke-linecap="butt" stroke-opacity="1.0" stroke="rgb(0, 0, 0)" stroke-linejoin="round" d=" M 118.466, 146.674 119.606, 147.541 121.597, 148.465 " />
            <path fill="none" stroke-width="3.0" stroke-linecap="butt" stroke-opacity="1.0" stroke="rgb(0, 0, 0)" stroke-linejoin="round" d=" M 114.606, 124.725 114.469, 124.980 114.035, 125.782 113.967, 125.908 112.965, 128.882 112.725, 130.379 " />
            <path fill="none" stroke-width="3.0" stroke-linecap="butt" stroke-opacity="1.0" stroke="rgb(0, 0, 0)" stroke-linejoin="round" d=" M 132.605, 116.818 130.781, 116.787 128.180, 116.742 " />
            <path fill="none" stroke-width="3.0" stroke-linecap="butt" stroke-opacity="1.0" stroke="rgb(0, 0, 0)" stroke-linejoin="round" d=" M 133.084, 143.504 131.561, 143.157 130.526, 142.657 130.126, 142.464 129.850, 142.248 128.833, 141.448 127.731, 140.145 126.862, 138.601 126.260, 136.873 125.949, 135.025 125.941, 133.127 126.237, 131.251 126.826, 129.467 127.683, 127.842 128.777, 126.437 130.064, 125.303 131.464, 124.498 131.496, 124.480 132.214, 124.252 133.020, 123.996 134.578, 123.866 " />
            <path fill="none" stroke-width="3.0" stroke-linecap="butt" stroke-opacity="1.0" stroke="rgb(0, 0, 0)" stroke-linejoin="round" d=" M 139.978, 125.133 139.607, 124.883 139.415, 124.754 137.949, 124.180 137.899, 124.173 136.405, 123.953 135.993, 123.988 135.624, 124.019 134.840, 124.085 133.309, 124.573 132.750, 124.896 132.022, 125.315 131.870, 125.403 130.576, 126.547 129.477, 127.963 128.615, 129.601 128.024, 131.399 127.726, 133.291 127.734, 135.204 128.046, 137.067 128.650, 138.809 129.523, 140.365 130.551, 141.585 130.630, 141.678 131.213, 142.137 131.929, 142.702 133.370, 143.399 133.812, 143.500 134.901, 143.748 136.160, 143.741 136.463, 143.739 136.610, 143.704 138.002, 143.375 138.404, 143.182 " />
            <path fill="none" stroke-width="3.0" stroke-linecap="butt" stroke-opacity="1.0" stroke="rgb(0, 0, 0)" stroke-linejoin="round" d=" M 133.107, 141.281 132.687, 141.076 132.392, 140.843 131.682, 140.280 131.629, 140.238 130.728, 139.165 130.019, 137.895 129.528, 136.475 129.275, 134.958 129.269, 133.399 129.511, 131.858 129.992, 130.393 130.692, 129.057 131.586, 127.901 132.640, 126.966 132.894, 126.818 133.709, 126.345 133.812, 126.285 134.560, 126.044 " />
            <path fill="none" stroke-width="3.0" stroke-linecap="butt" stroke-opacity="1.0" stroke="rgb(0, 0, 0)" stroke-linejoin="round" d=" M 133.084, 143.504 134.901, 143.748 " />
            <path fill="none" stroke-width="3.0" stroke-linecap="butt" stroke-opacity="1.0" stroke="rgb(0, 0, 0)" stroke-linejoin="round" d=" M 136.405, 123.953 135.984, 123.933 134.578, 123.866 " />
            <path fill="none" stroke-width="3.0" stroke-linecap="butt" stroke-opacity="1.0" stroke="rgb(0, 0, 0)" stroke-linejoin="round" d=" M 131.187, 130.132 131.153, 130.235 130.647, 131.782 130.374, 133.518 130.381, 135.273 130.598, 136.581 130.665, 136.982 131.217, 138.581 131.938, 139.874 132.014, 140.010 132.559, 140.660 133.025, 141.216 133.107, 141.281 134.212, 142.157 135.530, 142.799 135.721, 142.843 136.437, 143.007 136.629, 143.052 136.930, 143.121 137.430, 143.186 137.449, 143.186 138.404, 143.182 138.862, 143.179 140.272, 142.846 141.612, 142.199 142.832, 141.266 142.917, 141.171 143.892, 140.080 144.697, 138.780 144.756, 138.684 145.393, 137.129 145.679, 135.912 145.783, 135.467 145.912, 133.758 145.776, 132.060 145.388, 130.466 145.380, 130.433 145.247, 130.123 144.736, 128.933 143.866, 127.613 142.799, 126.520 142.130, 126.070 141.573, 125.695 140.228, 125.169 139.978, 125.133 139.766, 125.102 138.813, 124.963 138.311, 124.937 138.233, 124.943 138.023, 124.962 136.878, 125.060 136.441, 125.201 135.478, 125.511 134.560, 126.044 134.162, 126.275 133.814, 126.584 133.079, 127.238 132.979, 127.326 131.975, 128.628 131.187, 130.132 " />
            <path fill="none" stroke-width="3.0" stroke-linecap="butt" stroke-opacity="1.0" stroke="rgb(0, 0, 0)" stroke-linejoin="round" d=" M 137.430, 143.186 136.507, 142.974 136.028, 142.863 135.690, 142.699 134.708, 142.220 133.520, 141.278 132.755, 140.364 132.507, 140.069 132.183, 139.487 131.709, 138.637 131.157, 137.035 130.872, 135.322 130.866, 133.563 131.139, 131.823 131.680, 130.169 132.469, 128.662 133.256, 127.642 133.475, 127.358 133.963, 126.924 134.659, 126.304 135.977, 125.538 136.528, 125.361 137.379, 125.087 138.115, 125.023 138.813, 124.963 " />
            <path fill="none" stroke-width="3.0" stroke-linecap="butt" stroke-opacity="1.0" stroke="rgb(0, 0, 0)" stroke-linejoin="round" d=" M 106.710, 136.514 107.064, 136.919 107.994, 137.628 109.026, 138.115 110.124, 138.365 113.187, 138.747 " />
            <path fill="none" stroke-width="3.0" stroke-linecap="butt" stroke-opacity="1.0" stroke="rgb(0, 0, 0)" stroke-linejoin="round" d=" M 114.469, 124.980 111.169, 124.789 110.046, 124.880 108.950, 125.216 107.923, 125.785 107.001, 126.568 106.220, 127.536 105.609, 128.654 105.191, 129.881 105.062, 130.676 " />
            <path fill="none" stroke-width="3.0" stroke-linecap="butt" stroke-opacity="1.0" stroke="rgb(0, 0, 0)" stroke-linejoin="round" d=" M 117.667, 62.280 115.632, 52.489 114.596, 47.506 " />
            <path fill="none" stroke-width="3.0" stroke-linecap="butt" stroke-opacity="1.0" stroke="rgb(0, 0, 0)" stroke-linejoin="round" d=" M 73.164, 136.141 83.164, 136.252 93.163, 136.363 103.163, 136.475 106.710, 136.514 112.723, 136.581 114.704, 136.603 114.740, 136.604 115.717, 136.614 " />
            <path fill="none" stroke-width="3.0" stroke-linecap="butt" stroke-opacity="1.0" stroke="rgb(0, 0, 0)" stroke-linejoin="round" d=" M 116.358, 140.194 114.482, 141.900 107.086, 148.630 99.689, 155.359 92.292, 162.089 84.895, 168.818 81.870, 171.571 " />
            <path fill="none" stroke-width="3.0" stroke-linecap="butt" stroke-opacity="1.0" stroke="rgb(0, 0, 0)" stroke-linejoin="round" d=" M 115.644, 130.266 114.626, 130.306 112.725, 130.379 105.062, 130.676 95.070, 131.063 85.077, 131.450 75.085, 131.837 73.123, 131.913 " />
            <path fill="none" stroke-width="3.0" stroke-linecap="butt" stroke-opacity="1.0" stroke="rgb(0, 0, 0)" stroke-linejoin="round" d=" M 83.534, 96.503 90.937, 103.227 98.339, 109.950 105.741, 116.674 113.144, 123.397 114.606, 124.725 114.915, 125.006 116.234, 126.204 " />
            <path fill="none" stroke-width="3.0" stroke-linecap="butt" stroke-opacity="1.0" stroke="rgb(0, 0, 0)" stroke-linejoin="round" d=" M 84.078, 175.035 91.793, 168.672 99.507, 162.310 107.222, 155.947 114.936, 149.584 118.466, 146.674 120.966, 144.612 " />
            <path fill="none" stroke-width="3.0" stroke-linecap="butt" stroke-opacity="1.0" stroke="rgb(0, 0, 0)" stroke-linejoin="round" d=" M 120.918, 121.895 118.463, 119.876 110.738, 113.525 103.014, 107.175 95.290, 100.824 87.565, 94.473 85.637, 92.888 " />
            <path fill="none" stroke-width="3.0" stroke-linecap="butt" stroke-opacity="1.0" stroke="rgb(0, 0, 0)" stroke-linejoin="round" d=" M 127.690, 149.728 130.068, 150.122 " />
            <path fill="none" stroke-width="3.0" stroke-linecap="butt" stroke-opacity="1.0" stroke="rgb(0, 0, 0)" stroke-linejoin="round" d=" M 140.040, 146.467 147.828, 152.739 155.617, 159.011 163.406, 165.283 164.021, 165.779 167.140, 168.290 167.738, 168.771 " />
            <path fill="none" stroke-width="3.0" stroke-linecap="butt" stroke-opacity="1.0" stroke="rgb(0, 0, 0)" stroke-linejoin="round" d=" M 143.659, 124.653 150.993, 117.855 158.327, 111.057 165.661, 104.259 167.288, 102.751 170.411, 99.856 171.261, 99.068 " />
            <path fill="none" stroke-width="3.0" stroke-linecap="butt" stroke-opacity="1.0" stroke="rgb(0, 0, 0)" stroke-linejoin="round" d=" M 145.679, 135.912 155.665, 135.396 165.652, 134.881 172.748, 134.515 176.487, 134.322 178.310, 134.228 " />
            <path fill="none" stroke-width="3.0" stroke-linecap="butt" stroke-opacity="1.0" stroke="rgb(0, 0, 0)" stroke-linejoin="round" d=" M 182.615, 163.613 190.694, 168.211 " />
        </g>
    </g>
</svg>
