<?xml version='1.0' encoding='ascii'?>
<svg xmlns="http://www.w3.org/2000/svg" version="1.1" width="250" height="250">
    <g id="View Layer_LineSet" xmlns:inkscape="http://www.inkscape.org/namespaces/inkscape" inkscape:groupmode="lineset" inkscape:label="View Layer_LineSet">
        <g xmlns:inkscape="http://www.inkscape.org/namespaces/inkscape" inkscape:groupmode="layer" id="strokes" inkscape:label="strokes">
            <path fill="none" stroke-width="3.0" stroke-linecap="butt" stroke-opacity="1.0" stroke="rgb(0, 0, 0)" stroke-linejoin="round" d=" M 135.958, 70.571 135.826, 71.377 134.203, 81.245 132.580, 91.112 130.957, 100.980 129.335, 110.847 128.363, 116.754 " />
            <path fill="none" stroke-width="3.0" stroke-linecap="butt" stroke-opacity="1.0" stroke="rgb(0, 0, 0)" stroke-linejoin="round" d=" M 164.149, 88.119 163.775, 88.545 161.257, 91.414 154.661, 98.930 148.065, 106.447 141.469, 113.963 137.697, 118.262 " />
            <path fill="none" stroke-width="3.0" stroke-linecap="butt" stroke-opacity="1.0" stroke="rgb(0, 0, 0)" stroke-linejoin="round" d=" M 177.494, 120.936 176.152, 121.179 172.443, 121.851 162.603, 123.635 152.763, 125.418 144.597, 126.898 " />
            <path fill="none" stroke-width="3.0" stroke-linecap="butt" stroke-opacity="1.0" stroke="rgb(0, 0, 0)" stroke-linejoin="round" d=" M 173.919, 157.103 172.496, 156.213 169.204, 154.152 160.728, 148.845 152.252, 143.539 144.691, 138.805 " />
            <path fill="none" stroke-width="3.0" stroke-linecap="butt" stroke-opacity="1.0" stroke="rgb(0, 0, 0)" stroke-linejoin="round" d=" M 154.156, 187.033 153.749, 185.999 153.657, 185.765 152.054, 181.694 148.390, 172.390 144.727, 163.085 141.063, 153.780 138.619, 147.572 " />
            <path fill="none" stroke-width="3.0" stroke-linecap="butt" stroke-opacity="1.0" stroke="rgb(0, 0, 0)" stroke-linejoin="round" d=" M 122.055, 198.855 122.378, 196.873 122.524, 195.984 124.136, 186.115 125.749, 176.246 127.362, 166.377 128.974, 156.508 130.022, 150.096 " />
            <path fill="none" stroke-width="3.0" stroke-linecap="butt" stroke-opacity="1.0" stroke="rgb(0, 0, 0)" stroke-linejoin="round" d=" M 126.253, 118.404 125.528, 116.822 121.358, 107.733 117.189, 98.644 113.019, 89.554 108.850, 80.465 105.827, 73.875 105.613, 73.408 " />
            <path fill="none" stroke-width="3.0" stroke-linecap="butt" stroke-opacity="1.0" stroke="rgb(0, 0, 0)" stroke-linejoin="round" d=" M 133.128, 149.957 137.350, 159.022 141.571, 168.088 145.792, 177.153 149.055, 184.159 150.451, 187.158 150.983, 188.301 151.026, 188.393 " />
            <path fill="none" stroke-width="3.0" stroke-linecap="butt" stroke-opacity="1.0" stroke="rgb(0, 0, 0)" stroke-linejoin="round" d=" M 123.921, 149.087 122.820, 159.026 121.719, 168.966 120.618, 178.905 119.518, 188.844 118.693, 196.287 118.686, 196.349 118.465, 198.345 " />
            <path fill="none" stroke-width="3.0" stroke-linecap="butt" stroke-opacity="1.0" stroke="rgb(0, 0, 0)" stroke-linejoin="round" d=" M 75.732, 182.776 82.146, 189.444 90.466, 194.992 92.335, 196.238 96.434, 198.067 99.848, 199.589 102.300, 200.683 105.793, 202.008 109.391, 203.372 113.654, 204.989 123.570, 206.288 125.317, 206.517 130.593, 205.997 134.058, 205.655 136.835, 205.381 140.200, 204.279 143.679, 203.139 147.814, 201.784 156.489, 196.810 157.924, 195.988 164.369, 190.462 165.221, 189.732 166.900, 188.292 167.195, 187.934 169.318, 185.355 171.735, 182.417 174.534, 179.016 179.568, 170.375 180.670, 168.483 184.339, 159.180 185.193, 157.015 185.794, 154.448 186.141, 152.967 186.647, 150.806 187.036, 149.144 188.022, 144.933 188.897, 134.971 189.109, 132.551 188.561, 122.566 188.430, 120.184 187.562, 115.906 186.900, 112.642 186.789, 112.097 186.163, 109.014 185.988, 108.149 182.544, 98.760 181.812, 96.766 176.912, 88.049 175.965, 86.365 173.211, 82.990 170.862, 80.112 168.547, 77.277 167.698, 76.563 165.051, 74.335 159.706, 69.839 150.918, 65.068 149.645, 64.377 145.486, 63.176 141.995, 62.168 138.630, 61.197 135.540, 61.027 132.038, 60.836 126.999, 60.560 117.153, 62.304 115.161, 62.657 110.579, 63.755 " />
            <path fill="none" stroke-width="3.0" stroke-linecap="butt" stroke-opacity="1.0" stroke="rgb(0, 0, 0)" stroke-linejoin="round" d=" M 77.264, 175.898 79.616, 179.699 75.732, 182.776 67.893, 188.985 67.303, 189.452 59.308, 185.669 56.943, 182.010 64.874, 175.920 68.720, 172.968 68.900, 172.830 " />
            <path fill="none" stroke-width="3.0" stroke-linecap="butt" stroke-opacity="1.0" stroke="rgb(0, 0, 0)" stroke-linejoin="round" d=" M 67.303, 189.452 64.850, 185.619 " />
            <path fill="none" stroke-width="3.0" stroke-linecap="butt" stroke-opacity="1.0" stroke="rgb(0, 0, 0)" stroke-linejoin="round" d=" M 56.943, 182.010 64.850, 185.619 72.763, 179.422 74.780, 177.843 77.264, 175.898 68.900, 172.830 " />
            <path fill="none" stroke-width="3.0" stroke-linecap="butt" stroke-opacity="1.0" stroke="rgb(0, 0, 0)" stroke-linejoin="round" d=" M 110.824, 64.419 110.705, 64.096 110.579, 63.755 107.115, 54.374 105.525, 50.068 96.118, 53.022 92.497, 54.454 96.050, 63.801 97.688, 68.110 97.712, 68.174 " />
            <path fill="none" stroke-width="3.0" stroke-linecap="butt" stroke-opacity="1.0" stroke="rgb(0, 0, 0)" stroke-linejoin="round" d=" M 164.369, 190.462 164.487, 190.623 174.065, 193.497 175.528, 193.937 177.886, 191.000 172.061, 182.872 171.735, 182.417 " />
            <path fill="none" stroke-width="3.0" stroke-linecap="butt" stroke-opacity="1.0" stroke="rgb(0, 0, 0)" stroke-linejoin="round" d=" M 115.161, 62.657 105.959, 66.571 103.587, 67.579 95.448, 73.389 92.793, 75.284 86.016, 82.638 83.309, 85.575 78.085, 94.101 75.644, 98.085 74.983, 99.817 73.604, 103.436 70.230, 112.287 68.395, 122.117 67.387, 127.520 67.319, 137.520 67.281, 143.038 67.588, 144.795 68.263, 148.660 69.907, 158.075 73.418, 167.438 75.092, 171.905 80.352, 180.410 82.516, 183.908 89.411, 191.150 91.749, 193.605 100.054, 199.176 101.160, 199.918 102.300, 200.683 " />
            <path fill="none" stroke-width="3.0" stroke-linecap="butt" stroke-opacity="1.0" stroke="rgb(0, 0, 0)" stroke-linejoin="round" d=" M 110.824, 64.419 107.156, 65.978 " />
            <path fill="none" stroke-width="3.0" stroke-linecap="butt" stroke-opacity="1.0" stroke="rgb(0, 0, 0)" stroke-linejoin="round" d=" M 97.712, 68.174 107.156, 65.978 106.919, 65.340 106.676, 64.689 103.186, 55.318 101.784, 51.553 " />
            <path fill="none" stroke-width="3.0" stroke-linecap="butt" stroke-opacity="1.0" stroke="rgb(0, 0, 0)" stroke-linejoin="round" d=" M 92.497, 54.454 101.784, 51.553 105.525, 50.068 " />
            <path fill="none" stroke-width="3.0" stroke-linecap="butt" stroke-opacity="1.0" stroke="rgb(0, 0, 0)" stroke-linejoin="round" d=" M 58.589, 137.910 58.568, 141.414 60.319, 151.260 61.100, 155.654 64.657, 165.000 66.092, 168.773 68.720, 172.968 " />
            <path fill="none" stroke-width="3.0" stroke-linecap="butt" stroke-opacity="1.0" stroke="rgb(0, 0, 0)" stroke-linejoin="round" d=" M 69.222, 94.592 66.564, 98.874 62.963, 108.203 61.375, 112.318 59.522, 122.145 58.658, 126.730 58.627, 131.793 " />
            <path fill="none" stroke-width="3.0" stroke-linecap="butt" stroke-opacity="1.0" stroke="rgb(0, 0, 0)" stroke-linejoin="round" d=" M 97.688, 68.110 93.455, 69.895 85.285, 75.661 83.049, 77.239 76.226, 84.550 75.031, 85.830 " />
            <path fill="none" stroke-width="3.0" stroke-linecap="butt" stroke-opacity="1.0" stroke="rgb(0, 0, 0)" stroke-linejoin="round" d=" M 116.750, 68.390 126.579, 66.544 127.622, 66.348 137.612, 66.791 138.339, 66.823 147.973, 69.501 148.522, 69.653 157.352, 74.346 157.852, 74.611 162.194, 78.209 165.656, 81.077 166.075, 81.425 172.445, 89.133 172.992, 89.795 177.932, 98.489 178.456, 99.412 181.931, 108.789 182.255, 109.664 182.366, 109.964 182.842, 112.282 184.658, 121.141 185.215, 131.125 185.299, 132.636 184.422, 142.598 184.286, 144.148 182.356, 152.337 182.040, 153.680 181.640, 155.374 177.948, 164.668 177.413, 166.014 172.347, 174.636 171.684, 175.765 165.290, 183.453 164.962, 183.847 164.568, 184.322 161.657, 186.784 156.219, 191.386 147.504, 196.290 146.840, 196.664 137.308, 199.690 136.684, 199.888 130.983, 200.392 129.979, 200.481 126.065, 200.826 121.831, 200.226 118.312, 199.727 115.347, 199.307 106.033, 195.667 104.948, 195.242 104.204, 194.734 95.951, 189.087 95.317, 188.654 90.455, 183.469 87.722, 180.556 86.915, 179.695 81.704, 171.160 80.178, 168.660 76.705, 159.283 75.485, 155.988 74.029, 147.541 73.313, 143.387 73.115, 142.238 73.188, 132.238 73.218, 128.060 75.041, 118.227 75.799, 114.137 78.673, 106.529 80.168, 102.573 80.710, 101.137 85.895, 92.586 87.673, 89.653 94.403, 82.256 96.305, 80.165 102.408, 75.734 105.613, 73.408 106.156, 73.014 115.321, 69.014 115.800, 68.805 116.750, 68.390 " />
            <path fill="none" stroke-width="3.0" stroke-linecap="butt" stroke-opacity="1.0" stroke="rgb(0, 0, 0)" stroke-linejoin="round" d=" M 139.368, 72.908 146.118, 76.390 153.904, 82.666 154.150, 82.864 160.622, 90.487 160.919, 90.836 161.257, 91.414 " />
            <path fill="none" stroke-width="3.0" stroke-linecap="butt" stroke-opacity="1.0" stroke="rgb(0, 0, 0)" stroke-linejoin="round" d=" M 185.794, 154.448 194.679, 155.766 195.547, 152.007 187.036, 149.144 " />
            <path fill="none" stroke-width="3.0" stroke-linecap="butt" stroke-opacity="1.0" stroke="rgb(0, 0, 0)" stroke-linejoin="round" d=" M 163.249, 94.827 166.277, 100.012 169.839, 109.357 170.119, 110.093 172.189, 119.876 172.380, 120.777 172.443, 121.851 " />
            <path fill="none" stroke-width="3.0" stroke-linecap="butt" stroke-opacity="1.0" stroke="rgb(0, 0, 0)" stroke-linejoin="round" d=" M 172.663, 125.617 173.023, 131.769 172.138, 141.730 172.045, 142.775 169.709, 152.498 169.468, 153.501 169.204, 154.152 " />
            <path fill="none" stroke-width="3.0" stroke-linecap="butt" stroke-opacity="1.0" stroke="rgb(0, 0, 0)" stroke-linejoin="round" d=" M 167.786, 157.641 165.342, 163.655 160.184, 172.222 159.749, 172.945 153.255, 180.550 152.804, 181.078 152.054, 181.694 " />
            <path fill="none" stroke-width="3.0" stroke-linecap="butt" stroke-opacity="1.0" stroke="rgb(0, 0, 0)" stroke-linejoin="round" d=" M 149.055, 184.159 144.664, 187.768 135.880, 192.547 135.529, 192.738 125.961, 195.644 125.653, 195.737 122.524, 195.984 " />
            <path fill="none" stroke-width="3.0" stroke-linecap="butt" stroke-opacity="1.0" stroke="rgb(0, 0, 0)" stroke-linejoin="round" d=" M 118.693, 196.287 115.342, 196.551 105.448, 195.099 104.953, 195.026 104.204, 194.734 " />
            <path fill="none" stroke-width="3.0" stroke-linecap="butt" stroke-opacity="1.0" stroke="rgb(0, 0, 0)" stroke-linejoin="round" d=" M 115.800, 68.805 116.713, 68.633 126.705, 69.026 127.116, 69.042 135.826, 71.377 " />
            <path fill="none" stroke-width="3.0" stroke-linecap="butt" stroke-opacity="1.0" stroke="rgb(0, 0, 0)" stroke-linejoin="round" d=" M 58.959, 131.787 58.627, 131.793 48.628, 131.957 44.218, 132.030 44.194, 136.811 51.625, 138.093 58.589, 137.910 64.188, 137.762 66.948, 137.689 66.982, 132.776 " />
            <path fill="none" stroke-width="3.0" stroke-linecap="butt" stroke-opacity="1.0" stroke="rgb(0, 0, 0)" stroke-linejoin="round" d=" M 51.653, 133.056 58.620, 132.929 58.952, 132.923 66.982, 132.776 58.959, 131.787 " />
            <path fill="none" stroke-width="3.0" stroke-linecap="butt" stroke-opacity="1.0" stroke="rgb(0, 0, 0)" stroke-linejoin="round" d=" M 80.320, 89.863 79.579, 89.298 75.031, 85.830 68.050, 80.507 59.951, 82.120 57.521, 85.936 65.560, 91.884 69.222, 94.592 69.445, 94.758 77.892, 93.824 " />
            <path fill="none" stroke-width="3.0" stroke-linecap="butt" stroke-opacity="1.0" stroke="rgb(0, 0, 0)" stroke-linejoin="round" d=" M 65.523, 84.518 72.307, 89.622 73.772, 90.725 77.892, 93.824 80.320, 89.863 " />
            <path fill="none" stroke-width="3.0" stroke-linecap="butt" stroke-opacity="1.0" stroke="rgb(0, 0, 0)" stroke-linejoin="round" d=" M 173.211, 82.990 179.045, 74.869 179.727, 73.920 177.438, 71.031 167.554, 72.552 166.214, 72.758 165.051, 74.335 " />
            <path fill="none" stroke-width="3.0" stroke-linecap="butt" stroke-opacity="1.0" stroke="rgb(0, 0, 0)" stroke-linejoin="round" d=" M 187.562, 115.906 196.220, 112.635 195.477, 108.886 186.163, 109.014 " />
            <path fill="none" stroke-width="3.0" stroke-linecap="butt" stroke-opacity="1.0" stroke="rgb(0, 0, 0)" stroke-linejoin="round" d=" M 130.593, 205.997 131.354, 212.835 140.499, 216.882 141.618, 217.377 145.074, 216.157 144.008, 206.214 143.679, 203.139 " />
            <path fill="none" stroke-width="3.0" stroke-linecap="butt" stroke-opacity="1.0" stroke="rgb(0, 0, 0)" stroke-linejoin="round" d=" M 96.434, 198.067 92.749, 207.363 91.118, 211.476 99.950, 216.167 100.216, 216.308 103.881, 217.590 107.495, 208.266 109.391, 203.372 " />
            <path fill="none" stroke-width="3.0" stroke-linecap="butt" stroke-opacity="1.0" stroke="rgb(0, 0, 0)" stroke-linejoin="round" d=" M 44.218, 132.030 51.653, 133.056 51.625, 138.093 " />
            <path fill="none" stroke-width="3.0" stroke-linecap="butt" stroke-opacity="1.0" stroke="rgb(0, 0, 0)" stroke-linejoin="round" d=" M 68.050, 80.507 65.523, 84.518 57.521, 85.936 " />
            <path fill="none" stroke-width="3.0" stroke-linecap="butt" stroke-opacity="1.0" stroke="rgb(0, 0, 0)" stroke-linejoin="round" d=" M 145.486, 63.176 146.786, 53.261 147.258, 49.662 143.786, 48.566 134.131, 51.172 133.294, 51.398 132.038, 60.836 " />
            <path fill="none" stroke-width="3.0" stroke-linecap="butt" stroke-opacity="1.0" stroke="rgb(0, 0, 0)" stroke-linejoin="round" d=" M 143.786, 48.566 142.480, 58.481 141.995, 62.168 " />
            <path fill="none" stroke-width="3.0" stroke-linecap="butt" stroke-opacity="1.0" stroke="rgb(0, 0, 0)" stroke-linejoin="round" d=" M 177.438, 71.031 171.573, 79.130 170.862, 80.112 " />
            <path fill="none" stroke-width="3.0" stroke-linecap="butt" stroke-opacity="1.0" stroke="rgb(0, 0, 0)" stroke-linejoin="round" d=" M 175.528, 193.937 169.665, 185.835 169.318, 185.355 " />
            <path fill="none" stroke-width="3.0" stroke-linecap="butt" stroke-opacity="1.0" stroke="rgb(0, 0, 0)" stroke-linejoin="round" d=" M 195.477, 108.886 186.789, 112.097 " />
            <path fill="none" stroke-width="3.0" stroke-linecap="butt" stroke-opacity="1.0" stroke="rgb(0, 0, 0)" stroke-linejoin="round" d=" M 141.618, 217.377 140.541, 207.435 140.200, 204.279 " />
            <path fill="none" stroke-width="3.0" stroke-linecap="butt" stroke-opacity="1.0" stroke="rgb(0, 0, 0)" stroke-linejoin="round" d=" M 100.216, 216.308 103.849, 206.992 105.793, 202.008 " />
            <path fill="none" stroke-width="3.0" stroke-linecap="butt" stroke-opacity="1.0" stroke="rgb(0, 0, 0)" stroke-linejoin="round" d=" M 145.409, 130.535 145.383, 130.135 144.710, 127.174 144.597, 126.898 143.585, 124.424 142.167, 122.179 142.042, 121.982 140.130, 119.933 137.912, 118.354 137.697, 118.262 135.461, 117.305 134.517, 117.134 132.861, 116.833 130.205, 116.961 128.239, 117.512 127.588, 117.694 126.253, 118.404 125.109, 119.013 122.863, 120.877 121.297, 122.784 120.938, 123.221 120.283, 124.395 119.786, 125.286 119.411, 125.958 118.345, 128.987 118.117, 130.283 117.783, 132.190 117.778, 132.640 117.747, 135.444 118.240, 138.620 118.348, 138.941 118.505, 139.409 118.999, 140.882 119.240, 141.598 120.704, 144.262 122.482, 146.403 122.574, 146.514 124.074, 147.713 124.774, 148.273 127.218, 149.479 129.813, 150.095 130.022, 150.096 132.460, 150.107 133.128, 149.957 135.066, 149.523 137.538, 148.372 138.619, 147.572 139.792, 146.703 141.753, 144.578 142.094, 144.046 143.357, 142.075 144.553, 139.281 144.657, 138.866 " />
            <path fill="none" stroke-width="3.0" stroke-linecap="butt" stroke-opacity="1.0" stroke="rgb(0, 0, 0)" stroke-linejoin="round" d=" M 113.583, 139.866 113.928, 140.884 115.372, 143.485 116.083, 144.333 " />
            <path fill="none" stroke-width="3.0" stroke-linecap="butt" stroke-opacity="1.0" stroke="rgb(0, 0, 0)" stroke-linejoin="round" d=" M 119.682, 118.873 117.485, 120.679 116.231, 122.191 " />
            <path fill="none" stroke-width="3.0" stroke-linecap="butt" stroke-opacity="1.0" stroke="rgb(0, 0, 0)" stroke-linejoin="round" d=" M 120.953, 148.173 121.790, 148.583 123.921, 149.087 " />
            <path fill="none" stroke-width="3.0" stroke-linecap="butt" stroke-opacity="1.0" stroke="rgb(0, 0, 0)" stroke-linejoin="round" d=" M 113.357, 127.694 113.041, 128.585 112.489, 131.708 112.468, 133.753 " />
            <path fill="none" stroke-width="3.0" stroke-linecap="butt" stroke-opacity="1.0" stroke="rgb(0, 0, 0)" stroke-linejoin="round" d=" M 128.363, 116.754 127.333, 116.736 125.528, 116.822 " />
            <path fill="none" stroke-width="3.0" stroke-linecap="butt" stroke-opacity="1.0" stroke="rgb(0, 0, 0)" stroke-linejoin="round" d=" M 132.934, 143.486 131.417, 143.105 130.537, 142.656 129.994, 142.380 129.851, 142.263 128.717, 141.334 127.636, 140.005 126.791, 138.441 126.217, 136.698 125.935, 134.842 125.957, 132.943 126.282, 131.073 126.897, 129.302 127.779, 127.696 128.893, 126.315 130.197, 125.209 131.460, 124.517 131.641, 124.418 132.203, 124.253 133.170, 123.968 134.729, 123.872 " />
            <path fill="none" stroke-width="3.0" stroke-linecap="butt" stroke-opacity="1.0" stroke="rgb(0, 0, 0)" stroke-linejoin="round" d=" M 140.004, 125.146 139.923, 125.089 139.551, 124.828 139.462, 124.791 138.095, 124.221 137.931, 124.193 136.557, 123.960 135.670, 124.015 135.597, 124.019 134.991, 124.057 133.454, 124.511 132.763, 124.891 132.017, 125.301 132.004, 125.309 130.694, 126.423 129.574, 127.816 128.687, 129.435 128.069, 131.220 127.742, 133.106 127.720, 135.020 128.003, 136.891 128.579, 138.647 129.428, 140.224 130.514, 141.563 130.542, 141.586 131.200, 142.127 131.796, 142.616 133.226, 143.347 133.839, 143.501 134.437, 143.651 134.750, 143.730 136.161, 143.753 136.312, 143.756 137.044, 143.599 137.855, 143.426 138.375, 143.188 " />
            <path fill="none" stroke-width="3.0" stroke-linecap="butt" stroke-opacity="1.0" stroke="rgb(0, 0, 0)" stroke-linejoin="round" d=" M 133.147, 141.299 132.579, 141.006 132.398, 140.857 131.679, 140.263 131.534, 140.144 130.651, 139.050 129.961, 137.764 129.493, 136.332 129.263, 134.808 129.281, 133.248 129.547, 131.712 130.050, 130.257 130.771, 128.937 131.682, 127.800 132.749, 126.888 132.898, 126.806 133.710, 126.356 133.931, 126.234 134.520, 126.058 " />
            <path fill="none" stroke-width="3.0" stroke-linecap="butt" stroke-opacity="1.0" stroke="rgb(0, 0, 0)" stroke-linejoin="round" d=" M 132.934, 143.486 134.362, 143.678 134.750, 143.730 " />
            <path fill="none" stroke-width="3.0" stroke-linecap="butt" stroke-opacity="1.0" stroke="rgb(0, 0, 0)" stroke-linejoin="round" d=" M 136.557, 123.960 135.577, 123.913 134.729, 123.872 " />
            <path fill="none" stroke-width="3.0" stroke-linecap="butt" stroke-opacity="1.0" stroke="rgb(0, 0, 0)" stroke-linejoin="round" d=" M 130.688, 131.618 130.389, 133.348 130.368, 135.104 130.590, 136.580 130.626, 136.821 131.152, 138.433 131.927, 139.880 131.928, 139.882 132.552, 140.655 132.919, 141.110 133.147, 141.299 134.091, 142.078 135.398, 142.750 136.414, 143.008 136.611, 143.058 136.793, 143.104 137.292, 143.169 138.375, 143.188 138.723, 143.194 139.977, 142.926 140.138, 142.892 141.486, 142.275 142.721, 141.368 143.798, 140.205 144.657, 138.866 144.682, 138.827 144.691, 138.805 145.342, 137.285 145.756, 135.631 145.911, 133.924 145.824, 132.578 145.801, 132.222 145.429, 130.586 145.409, 130.535 144.809, 129.071 143.959, 127.731 143.383, 127.118 142.910, 126.615 141.697, 125.762 140.362, 125.206 140.004, 125.146 139.894, 125.127 139.557, 125.070 138.952, 124.968 138.449, 124.942 138.247, 124.955 138.045, 124.968 137.016, 125.034 136.927, 125.060 135.611, 125.453 134.520, 126.058 134.284, 126.188 133.827, 126.580 133.087, 127.213 133.075, 127.228 132.063, 128.492 131.253, 129.979 131.163, 130.239 130.688, 131.618 " />
            <path fill="none" stroke-width="3.0" stroke-linecap="butt" stroke-opacity="1.0" stroke="rgb(0, 0, 0)" stroke-linejoin="round" d=" M 137.292, 143.169 136.501, 142.969 135.896, 142.815 134.587, 142.142 133.413, 141.172 132.751, 140.350 132.420, 139.939 132.182, 139.494 131.645, 138.489 131.118, 136.873 130.860, 135.153 130.881, 133.393 131.180, 131.659 131.746, 130.016 132.557, 128.526 133.254, 127.655 133.582, 127.244 133.967, 126.915 134.781, 126.217 136.109, 125.481 137.105, 125.183 137.517, 125.060 138.121, 125.021 138.952, 124.968 " />
            <path fill="none" stroke-width="3.0" stroke-linecap="butt" stroke-opacity="1.0" stroke="rgb(0, 0, 0)" stroke-linejoin="round" d=" M 109.172, 125.140 109.055, 125.173 108.019, 125.721 107.086, 126.484 106.290, 127.435 105.661, 128.540 105.223, 129.759 104.994, 131.046 104.981, 132.353 105.185, 133.632 105.599, 134.835 105.898, 135.369 " />
            <path fill="none" stroke-width="3.0" stroke-linecap="butt" stroke-opacity="1.0" stroke="rgb(0, 0, 0)" stroke-linejoin="round" d=" M 114.342, 133.292 112.468, 133.753 105.898, 135.369 96.188, 137.758 86.477, 140.148 76.767, 142.537 73.313, 143.387 " />
            <path fill="none" stroke-width="3.0" stroke-linecap="butt" stroke-opacity="1.0" stroke="rgb(0, 0, 0)" stroke-linejoin="round" d=" M 78.673, 106.529 87.209, 111.738 95.745, 116.947 104.282, 122.156 109.172, 125.140 113.357, 127.694 115.072, 128.740 " />
            <path fill="none" stroke-width="3.0" stroke-linecap="butt" stroke-opacity="1.0" stroke="rgb(0, 0, 0)" stroke-linejoin="round" d=" M 74.029, 147.541 83.846, 145.636 93.663, 143.731 103.480, 141.826 113.583, 139.866 115.911, 139.414 " />
            <path fill="none" stroke-width="3.0" stroke-linecap="butt" stroke-opacity="1.0" stroke="rgb(0, 0, 0)" stroke-linejoin="round" d=" M 117.884, 142.033 116.083, 144.333 109.918, 152.207 103.753, 160.081 97.589, 167.955 91.424, 175.828 87.722, 180.556 " />
            <path fill="none" stroke-width="3.0" stroke-linecap="butt" stroke-opacity="1.0" stroke="rgb(0, 0, 0)" stroke-linejoin="round" d=" M 118.554, 123.455 116.231, 122.191 107.447, 117.413 98.663, 112.634 89.878, 107.855 81.094, 103.076 80.168, 102.573 " />
            <path fill="none" stroke-width="3.0" stroke-linecap="butt" stroke-opacity="1.0" stroke="rgb(0, 0, 0)" stroke-linejoin="round" d=" M 102.408, 75.734 106.125, 85.018 109.843, 94.301 113.560, 103.585 117.278, 112.868 119.682, 118.873 " />
            <path fill="none" stroke-width="3.0" stroke-linecap="butt" stroke-opacity="1.0" stroke="rgb(0, 0, 0)" stroke-linejoin="round" d=" M 90.455, 183.469 96.993, 175.903 103.531, 168.336 110.069, 160.769 116.607, 153.203 120.953, 148.173 122.482, 146.403 " />
            <path fill="none" stroke-width="3.0" stroke-linecap="butt" stroke-opacity="1.0" stroke="rgb(0, 0, 0)" stroke-linejoin="round" d=" M 134.517, 117.134 135.607, 107.193 136.697, 97.253 137.788, 87.313 138.878, 77.372 139.368, 72.908 139.572, 71.048 " />
            <path fill="none" stroke-width="3.0" stroke-linecap="butt" stroke-opacity="1.0" stroke="rgb(0, 0, 0)" stroke-linejoin="round" d=" M 142.167, 122.179 148.271, 114.258 154.376, 106.338 160.481, 98.418 163.249, 94.827 165.979, 91.285 166.345, 90.810 " />
            <path fill="none" stroke-width="3.0" stroke-linecap="butt" stroke-opacity="1.0" stroke="rgb(0, 0, 0)" stroke-linejoin="round" d=" M 142.094, 144.046 150.933, 148.723 159.772, 153.400 167.786, 157.641 171.193, 159.443 172.320, 160.040 " />
            <path fill="none" stroke-width="3.0" stroke-linecap="butt" stroke-opacity="1.0" stroke="rgb(0, 0, 0)" stroke-linejoin="round" d=" M 145.824, 132.578 155.504, 130.067 165.184, 127.557 172.663, 125.617 176.353, 124.660 178.283, 124.160 " />
            <path fill="none" stroke-width="3.0" stroke-linecap="butt" stroke-opacity="1.0" stroke="rgb(0, 0, 0)" stroke-linejoin="round" d=" M 186.141, 152.967 194.679, 155.766 " />
        </g>
    </g>
</svg>
