<?xml version='1.0' encoding='ascii'?>
<svg xmlns="http://www.w3.org/2000/svg" version="1.1" width="250" height="250">
    <g id="ViewLayer_LineSet" xmlns:inkscape="http://www.inkscape.org/namespaces/inkscape" inkscape:groupmode="lineset" inkscape:label="ViewLayer_LineSet">
        <g xmlns:inkscape="http://www.inkscape.org/namespaces/inkscape" inkscape:groupmode="layer" id="strokes" inkscape:label="strokes">
            <path fill="none" stroke-width="3.0" stroke-linecap="butt" stroke-opacity="1.0" stroke="rgb(0, 0, 0)" stroke-linejoin="round" d=" M 193.858, 126.545 188.537, 121.923 186.665, 119.485 183.287, 117.600 " />
            <path fill="none" stroke-width="3.0" stroke-linecap="butt" stroke-opacity="1.0" stroke="rgb(0, 0, 0)" stroke-linejoin="round" d=" M 170.294, 41.783 161.532, 36.965 161.275, 36.824 151.287, 36.336 146.778, 36.116 136.783, 35.782 133.743, 35.680 123.748, 35.363 117.930, 35.178 107.931, 35.002 100.457, 34.870 95.986, 36.544 87.633, 42.041 79.988, 47.073 71.816, 52.837 70.044, 54.087 66.435, 59.860 58.803, 66.322 58.456, 66.616 52.945, 74.961 50.046, 79.351 48.916, 87.554 45.977, 94.769 48.179, 104.524 48.987, 108.101 55.780, 115.439 57.773, 117.593 58.135, 117.980 " />
            <path fill="none" stroke-width="3.0" stroke-linecap="butt" stroke-opacity="1.0" stroke="rgb(0, 0, 0)" stroke-linejoin="round" d=" M 70.729, 126.126 70.729, 126.126 76.253, 122.487 73.755, 121.562 68.986, 123.162 70.476, 123.560 72.709, 124.598 70.729, 126.126 70.729, 126.126 " />
            <path fill="none" stroke-width="3.0" stroke-linecap="butt" stroke-opacity="1.0" stroke="rgb(0, 0, 0)" stroke-linejoin="round" d=" M 151.556, 167.494 150.657, 166.906 153.646, 172.153 155.325, 179.813 152.809, 181.036 152.250, 185.322 " />
            <path fill="none" stroke-width="3.0" stroke-linecap="butt" stroke-opacity="1.0" stroke="rgb(0, 0, 0)" stroke-linejoin="round" d=" M 149.290, 133.192 144.392, 132.549 141.127, 134.262 " />
            <path fill="none" stroke-width="3.0" stroke-linecap="butt" stroke-opacity="1.0" stroke="rgb(0, 0, 0)" stroke-linejoin="round" d=" M 97.792, 133.804 97.476, 142.947 99.852, 150.063 104.710, 154.413 109.145, 155.973 " />
            <path fill="none" stroke-width="3.0" stroke-linecap="butt" stroke-opacity="1.0" stroke="rgb(0, 0, 0)" stroke-linejoin="round" d=" M 121.081, 132.258 118.687, 126.986 " />
            <path fill="none" stroke-width="3.0" stroke-linecap="butt" stroke-opacity="1.0" stroke="rgb(0, 0, 0)" stroke-linejoin="round" d=" M 150.524, 152.768 154.389, 149.315 154.488, 149.226 155.735, 148.112 158.498, 141.358 159.883, 132.782 157.876, 126.144 " />
            <path fill="none" stroke-width="3.0" stroke-linecap="butt" stroke-opacity="1.0" stroke="rgb(0, 0, 0)" stroke-linejoin="round" d=" M 57.967, 117.880 50.318, 117.584 49.895, 118.138 49.729, 118.398 46.875, 127.122 46.249, 131.103 46.844, 135.132 48.714, 142.048 51.869, 145.338 57.793, 152.779 60.315, 153.438 " />
            <path fill="none" stroke-width="3.0" stroke-linecap="butt" stroke-opacity="1.0" stroke="rgb(0, 0, 0)" stroke-linejoin="round" d=" M 57.316, 118.396 58.966, 120.374 59.237, 121.965 60.679, 129.712 59.150, 135.624 57.120, 144.296 57.694, 148.202 60.315, 153.438 60.976, 154.760 62.876, 156.639 64.053, 159.961 64.515, 167.972 65.351, 171.010 65.547, 171.568 66.260, 173.743 68.272, 176.692 74.068, 184.841 76.959, 188.905 83.975, 190.867 " />
            <path fill="none" stroke-width="3.0" stroke-linecap="butt" stroke-opacity="1.0" stroke="rgb(0, 0, 0)" stroke-linejoin="round" d=" M 107.184, 187.506 106.366, 186.769 106.059, 186.493 106.748, 183.706 107.864, 179.194 106.921, 183.962 106.366, 186.769 106.128, 187.971 105.904, 189.488 104.926, 195.099 105.177, 198.009 105.184, 198.083 105.220, 198.504 105.256, 198.924 105.307, 199.515 105.740, 204.534 105.767, 204.844 105.805, 205.285 106.035, 207.948 106.631, 209.356 115.165, 214.568 115.491, 214.767 120.413, 218.138 124.101, 218.810 129.098, 219.053 139.085, 218.545 145.659, 218.211 149.270, 217.692 151.236, 217.190 157.695, 210.979 163.027, 206.808 166.154, 200.345 167.424, 193.963 166.442, 191.297 166.114, 190.407 166.110, 190.401 162.449, 185.256 159.597, 178.405 157.843, 174.190 154.424, 171.054 151.556, 167.494 " />
            <path fill="none" stroke-width="3.0" stroke-linecap="butt" stroke-opacity="1.0" stroke="rgb(0, 0, 0)" stroke-linejoin="round" d=" M 106.748, 183.706 105.876, 182.422 96.519, 178.894 95.279, 178.426 92.760, 175.825 86.898, 167.627 82.014, 165.623 77.360, 174.118 77.293, 176.139 77.142, 179.192 77.905, 181.739 78.857, 184.399 80.841, 188.889 81.667, 190.085 83.975, 190.867 85.151, 191.266 87.095, 191.926 88.234, 192.646 89.240, 193.282 90.326, 195.127 92.003, 198.408 95.930, 201.895 96.261, 202.177 96.814, 202.258 100.516, 202.436 102.773, 202.545 105.767, 204.844 " />
            <path fill="none" stroke-width="3.0" stroke-linecap="butt" stroke-opacity="1.0" stroke="rgb(0, 0, 0)" stroke-linejoin="round" d=" M 100.516, 202.436 101.722, 203.200 102.226, 203.493 105.805, 205.285 " />
            <path fill="none" stroke-width="3.0" stroke-linecap="butt" stroke-opacity="1.0" stroke="rgb(0, 0, 0)" stroke-linejoin="round" d=" M 109.796, 133.651 109.750, 133.665 107.274, 136.926 105.958, 138.611 105.465, 141.519 104.845, 145.104 105.780, 150.468 105.983, 151.591 109.145, 155.973 109.207, 156.058 109.474, 156.404 113.647, 157.556 114.255, 157.724 115.040, 157.906 " />
            <path fill="none" stroke-width="3.0" stroke-linecap="butt" stroke-opacity="1.0" stroke="rgb(0, 0, 0)" stroke-linejoin="round" d=" M 141.127, 134.262 141.426, 131.491 141.570, 130.353 142.766, 128.083 " />
            <path fill="none" stroke-width="3.0" stroke-linecap="butt" stroke-opacity="1.0" stroke="rgb(0, 0, 0)" stroke-linejoin="round" d=" M 139.580, 156.655 144.437, 157.478 144.795, 157.363 145.421, 157.087 148.745, 154.491 149.480, 154.029 150.203, 152.926 151.855, 150.405 152.426, 149.579 154.043, 144.235 154.205, 143.671 154.174, 143.216 154.156, 139.514 153.917, 137.873 153.862, 137.558 151.579, 135.083 149.899, 133.346 149.330, 133.253 148.772, 133.161 147.932, 133.014 " />
            <path fill="none" stroke-width="3.0" stroke-linecap="butt" stroke-opacity="1.0" stroke="rgb(0, 0, 0)" stroke-linejoin="round" d=" M 166.442, 191.297 166.607, 191.008 167.395, 189.908 174.462, 186.444 174.621, 186.272 176.115, 181.888 176.703, 181.104 178.119, 177.229 178.623, 175.965 178.904, 172.793 179.002, 171.105 178.534, 169.874 175.342, 161.493 170.451, 166.932 164.719, 175.126 164.585, 175.317 161.126, 176.965 159.597, 178.405 " />
            <path fill="none" stroke-width="3.0" stroke-linecap="butt" stroke-opacity="1.0" stroke="rgb(0, 0, 0)" stroke-linejoin="round" d=" M 178.534, 169.874 178.921, 169.164 179.456, 165.374 179.940, 155.385 180.025, 153.636 182.861, 148.752 183.535, 147.150 185.005, 141.358 182.768, 135.093 " />
            <path fill="none" stroke-width="3.0" stroke-linecap="butt" stroke-opacity="1.0" stroke="rgb(0, 0, 0)" stroke-linejoin="round" d=" M 182.768, 135.093 183.053, 133.992 184.309, 128.600 183.982, 126.407 183.240, 121.530 " />
            <path fill="none" stroke-width="3.0" stroke-linecap="butt" stroke-opacity="1.0" stroke="rgb(0, 0, 0)" stroke-linejoin="round" d=" M 182.934, 117.493 185.271, 114.668 188.967, 108.216 192.611, 98.903 194.334, 94.501 195.009, 89.853 196.673, 83.785 193.628, 74.260 190.584, 64.734 190.492, 64.447 188.282, 61.207 185.423, 56.295 178.211, 49.368 176.811, 48.023 170.294, 41.783 " />
            <path fill="none" stroke-width="3.0" stroke-linecap="butt" stroke-opacity="1.0" stroke="rgb(0, 0, 0)" stroke-linejoin="round" d=" M 183.240, 121.530 192.282, 125.801 193.858, 126.545 " />
        </g>
    </g>
</svg>
