<?xml version='1.0' encoding='ascii'?>
<svg xmlns="http://www.w3.org/2000/svg" version="1.1" width="250" height="250">
    <g id="ViewLayer_LineSet" xmlns:inkscape="http://www.inkscape.org/namespaces/inkscape" inkscape:groupmode="lineset" inkscape:label="ViewLayer_LineSet">
        <g xmlns:inkscape="http://www.inkscape.org/namespaces/inkscape" inkscape:groupmode="layer" id="strokes" inkscape:label="strokes">
            <path fill="none" stroke-width="3.0" stroke-linecap="butt" stroke-opacity="1.0" stroke="rgb(0, 0, 0)" stroke-linejoin="round" d=" M 196.490, 126.598 190.566, 121.583 187.705, 119.279 187.084, 118.813 186.928, 118.644 186.874, 118.805 182.735, 116.946 " />
            <path fill="none" stroke-width="3.0" stroke-linecap="butt" stroke-opacity="1.0" stroke="rgb(0, 0, 0)" stroke-linejoin="round" d=" M 172.870, 42.794 164.197, 37.816 163.018, 37.140 153.034, 36.560 149.024, 36.327 139.033, 35.902 136.036, 35.775 126.044, 35.370 120.346, 35.140 110.349, 34.875 102.532, 34.669 98.574, 36.057 90.107, 41.377 81.639, 46.697 81.247, 46.943 72.968, 52.553 72.108, 53.135 67.552, 59.825 59.813, 66.157 57.757, 67.839 51.991, 76.009 50.952, 77.481 49.062, 87.300 49.026, 87.485 45.203, 96.364 47.181, 106.167 47.469, 107.599 54.119, 115.068 55.237, 116.325 57.322, 118.301 57.029, 118.402 " />
            <path fill="none" stroke-width="3.0" stroke-linecap="butt" stroke-opacity="1.0" stroke="rgb(0, 0, 0)" stroke-linejoin="round" d=" M 72.638, 126.031 76.280, 123.542 74.475, 122.873 71.032, 124.079 72.267, 124.309 74.015, 125.021 72.638, 126.031 " />
            <path fill="none" stroke-width="3.0" stroke-linecap="butt" stroke-opacity="1.0" stroke="rgb(0, 0, 0)" stroke-linejoin="round" d=" M 153.316, 167.022 151.876, 166.326 " />
            <path fill="none" stroke-width="3.0" stroke-linecap="butt" stroke-opacity="1.0" stroke="rgb(0, 0, 0)" stroke-linejoin="round" d=" M 150.824, 133.080 146.126, 132.459 143.082, 134.102 " />
            <path fill="none" stroke-width="3.0" stroke-linecap="butt" stroke-opacity="1.0" stroke="rgb(0, 0, 0)" stroke-linejoin="round" d=" M 99.434, 133.913 98.912, 143.088 101.236, 150.213 106.014, 154.542 110.982, 156.224 " />
            <path fill="none" stroke-width="3.0" stroke-linecap="butt" stroke-opacity="1.0" stroke="rgb(0, 0, 0)" stroke-linejoin="round" d=" M 123.225, 132.264 120.892, 127.000 " />
            <path fill="none" stroke-width="3.0" stroke-linecap="butt" stroke-opacity="1.0" stroke="rgb(0, 0, 0)" stroke-linejoin="round" d=" M 151.532, 152.392 156.534, 147.912 159.332, 141.172 160.941, 132.628 159.219, 126.028 " />
            <path fill="none" stroke-width="3.0" stroke-linecap="butt" stroke-opacity="1.0" stroke="rgb(0, 0, 0)" stroke-linejoin="round" d=" M 56.669, 118.232 51.605, 117.817 48.453, 117.717 48.237, 117.989 48.142, 118.120 44.908, 127.254 44.225, 131.506 44.746, 135.317 46.716, 142.539 49.770, 145.659 56.154, 153.392 60.468, 154.495 " />
            <path fill="none" stroke-width="3.0" stroke-linecap="butt" stroke-opacity="1.0" stroke="rgb(0, 0, 0)" stroke-linejoin="round" d=" M 57.795, 119.989 58.295, 120.593 58.373, 121.071 60.079, 130.039 58.427, 136.913 56.738, 144.725 57.285, 148.251 60.468, 154.495 61.119, 155.772 62.468, 157.062 63.358, 159.345 63.620, 164.903 64.904, 169.803 65.172, 170.711 66.294, 174.191 69.375, 178.677 75.272, 186.753 77.110, 189.269 86.761, 191.886 87.196, 192.004 90.847, 193.629 " />
            <path fill="none" stroke-width="3.0" stroke-linecap="butt" stroke-opacity="1.0" stroke="rgb(0, 0, 0)" stroke-linejoin="round" d=" M 108.744, 187.704 108.484, 187.453 109.330, 184.026 109.454, 183.523 109.360, 184.077 108.744, 187.704 108.656, 188.218 108.581, 188.989 108.226, 191.766 108.658, 195.925 108.981, 199.019 109.371, 202.767 109.946, 206.780 109.986, 207.056 110.024, 207.319 110.130, 208.063 110.614, 210.156 118.945, 215.018 123.642, 218.061 127.626, 218.743 132.679, 218.926 142.659, 218.284 149.454, 217.846 152.735, 217.334 154.452, 216.884 161.140, 210.227 165.997, 206.317 168.725, 200.541 170.395, 191.612 169.941, 190.482 168.895, 189.120 168.333, 188.388 165.539, 184.750 162.197, 177.312 161.185, 175.059 156.854, 171.184 153.316, 167.022 " />
            <path fill="none" stroke-width="3.0" stroke-linecap="butt" stroke-opacity="1.0" stroke="rgb(0, 0, 0)" stroke-linejoin="round" d=" M 109.330, 184.026 108.918, 183.320 108.676, 182.905 99.291, 179.452 97.375, 178.747 94.670, 175.980 88.788, 167.773 83.783, 166.208 79.064, 174.468 78.972, 176.314 78.758, 179.575 79.439, 181.955 80.438, 184.811 82.364, 189.131 83.314, 190.506 88.634, 192.256 90.847, 193.629 90.885, 193.653 91.971, 195.598 93.525, 198.743 97.357, 202.135 97.781, 202.496 98.476, 202.589 100.671, 202.666 104.327, 202.794 108.441, 205.892 109.535, 206.716 " />
            <path fill="none" stroke-width="3.0" stroke-linecap="butt" stroke-opacity="1.0" stroke="rgb(0, 0, 0)" stroke-linejoin="round" d=" M 100.671, 202.666 101.917, 203.477 102.218, 203.665 106.451, 205.800 110.024, 207.319 " />
            <path fill="none" stroke-width="3.0" stroke-linecap="butt" stroke-opacity="1.0" stroke="rgb(0, 0, 0)" stroke-linejoin="round" d=" M 111.712, 133.688 111.707, 133.690 109.041, 137.172 107.884, 138.642 107.290, 141.917 106.685, 145.155 107.462, 150.011 107.734, 151.650 110.709, 155.862 110.982, 156.224 111.158, 156.459 114.042, 157.261 115.807, 157.751 116.580, 157.935 " />
            <path fill="none" stroke-width="3.0" stroke-linecap="butt" stroke-opacity="1.0" stroke="rgb(0, 0, 0)" stroke-linejoin="round" d=" M 143.082, 134.102 143.319, 132.343 143.599, 130.143 144.363, 128.741 " />
            <path fill="none" stroke-width="3.0" stroke-linecap="butt" stroke-opacity="1.0" stroke="rgb(0, 0, 0)" stroke-linejoin="round" d=" M 141.058, 156.546 145.790, 157.340 146.014, 157.269 146.360, 157.116 149.825, 154.286 150.653, 153.747 151.532, 152.392 152.869, 150.333 153.535, 149.365 155.071, 144.436 155.332, 143.562 155.299, 142.853 155.373, 137.467 155.360, 137.437 155.343, 137.341 153.065, 134.830 151.551, 133.254 150.862, 133.141 150.299, 133.048 149.430, 132.896 " />
            <path fill="none" stroke-width="3.0" stroke-linecap="butt" stroke-opacity="1.0" stroke="rgb(0, 0, 0)" stroke-linejoin="round" d=" M 168.895, 189.120 174.280, 186.379 175.704, 184.789 176.879, 181.265 177.346, 180.633 178.828, 176.617 179.271, 175.514 179.614, 172.210 179.722, 170.685 178.770, 168.023 176.264, 161.017 170.261, 168.357 165.811, 174.843 163.788, 175.845 162.197, 177.312 " />
            <path fill="none" stroke-width="3.0" stroke-linecap="butt" stroke-opacity="1.0" stroke="rgb(0, 0, 0)" stroke-linejoin="round" d=" M 178.770, 168.023 179.033, 166.210 179.170, 156.211 179.210, 153.275 182.058, 147.931 182.384, 147.123 183.884, 140.992 180.752, 132.470 " />
            <path fill="none" stroke-width="3.0" stroke-linecap="butt" stroke-opacity="1.0" stroke="rgb(0, 0, 0)" stroke-linejoin="round" d=" M 182.223, 116.780 187.366, 108.204 188.155, 106.887 192.034, 97.670 192.592, 96.346 193.783, 90.441 196.076, 82.487 193.415, 72.847 191.670, 66.524 188.625, 61.786 184.837, 54.796 178.165, 48.127 172.870, 42.794 " />
            <path fill="none" stroke-width="3.0" stroke-linecap="butt" stroke-opacity="1.0" stroke="rgb(0, 0, 0)" stroke-linejoin="round" d=" M 180.854, 119.569 189.975, 123.669 196.490, 126.598 " />
        </g>
    </g>
</svg>
