<?xml version='1.0' encoding='ascii'?>
<svg xmlns="http://www.w3.org/2000/svg" version="1.1" width="250" height="250">
    <g id="ViewLayer_LineSet" xmlns:inkscape="http://www.inkscape.org/namespaces/inkscape" inkscape:groupmode="lineset" inkscape:label="ViewLayer_LineSet">
        <g xmlns:inkscape="http://www.inkscape.org/namespaces/inkscape" inkscape:groupmode="layer" id="strokes" inkscape:label="strokes">
            <path fill="none" stroke-width="3.0" stroke-linecap="butt" stroke-opacity="1.0" stroke="rgb(0, 0, 0)" stroke-linejoin="round" d=" M 128.811, 72.380 127.834, 70.494 124.116, 67.845 122.198, 65.568 120.318, 65.234 113.998, 64.256 112.456, 64.518 107.661, 65.055 105.732, 66.102 101.973, 68.758 97.831, 72.146 94.913, 74.267 94.077, 76.020 93.093, 79.023 " />
            <path fill="none" stroke-width="3.0" stroke-linecap="butt" stroke-opacity="1.0" stroke="rgb(0, 0, 0)" stroke-linejoin="round" d=" M 144.376, 74.726 144.495, 74.549 144.622, 74.357 144.624, 74.448 " />
            <path fill="none" stroke-width="3.0" stroke-linecap="butt" stroke-opacity="1.0" stroke="rgb(0, 0, 0)" stroke-linejoin="round" d=" M 182.723, 57.776 182.723, 57.776 182.260, 52.378 174.241, 46.404 168.175, 41.886 162.944, 37.211 152.954, 36.766 152.510, 36.746 142.674, 35.616 132.685, 35.145 130.846, 35.059 121.303, 34.316 113.804, 38.462 107.830, 41.766 98.957, 46.378 97.170, 47.306 92.229, 56.000 89.471, 60.853 84.598, 69.585 79.725, 78.318 79.364, 78.964 78.807, 87.866 " />
            <path fill="none" stroke-width="3.0" stroke-linecap="butt" stroke-opacity="1.0" stroke="rgb(0, 0, 0)" stroke-linejoin="round" d=" M 164.676, 153.066 169.186, 155.421 173.078, 150.663 " />
            <path fill="none" stroke-width="3.0" stroke-linecap="butt" stroke-opacity="1.0" stroke="rgb(0, 0, 0)" stroke-linejoin="round" d=" M 137.448, 144.111 146.013, 147.304 155.344, 145.986 163.541, 140.258 166.116, 138.458 167.465, 138.382 172.927, 140.866 174.631, 141.642 180.649, 144.379 186.744, 144.617 188.879, 140.973 " />
            <path fill="none" stroke-width="3.0" stroke-linecap="butt" stroke-opacity="1.0" stroke="rgb(0, 0, 0)" stroke-linejoin="round" d=" M 92.265, 81.100 94.014, 86.979 97.470, 81.119 101.514, 76.490 109.891, 72.307 119.218, 71.011 125.458, 72.978 131.676, 77.579 " />
            <path fill="none" stroke-width="3.0" stroke-linecap="butt" stroke-opacity="1.0" stroke="rgb(0, 0, 0)" stroke-linejoin="round" d=" M 144.495, 74.549 146.506, 72.988 148.920, 73.718 " />
            <path fill="none" stroke-width="3.0" stroke-linecap="butt" stroke-opacity="1.0" stroke="rgb(0, 0, 0)" stroke-linejoin="round" d=" M 143.334, 68.537 141.568, 71.539 142.102, 77.998 " />
            <path fill="none" stroke-width="3.0" stroke-linecap="butt" stroke-opacity="1.0" stroke="rgb(0, 0, 0)" stroke-linejoin="round" d=" M 116.599, 104.513 119.317, 108.336 " />
            <path fill="none" stroke-width="3.0" stroke-linecap="butt" stroke-opacity="1.0" stroke="rgb(0, 0, 0)" stroke-linejoin="round" d=" M 126.308, 88.389 122.313, 85.428 112.661, 86.582 106.866, 93.045 105.266, 100.143 " />
            <path fill="none" stroke-width="3.0" stroke-linecap="butt" stroke-opacity="1.0" stroke="rgb(0, 0, 0)" stroke-linejoin="round" d=" M 188.997, 140.906 189.035, 140.967 194.562, 139.393 195.725, 136.382 196.235, 135.183 196.492, 134.580 196.197, 130.984 196.179, 129.558 199.407, 128.342 200.283, 127.672 199.597, 124.359 199.686, 123.778 198.413, 119.432 198.389, 119.329 198.105, 118.765 192.589, 113.576 192.046, 112.859 " />
            <path fill="none" stroke-width="3.0" stroke-linecap="butt" stroke-opacity="1.0" stroke="rgb(0, 0, 0)" stroke-linejoin="round" d=" M 130.589, 113.268 125.135, 113.284 120.918, 112.818 111.283, 110.142 108.603, 109.398 107.041, 108.964 103.925, 107.746 101.890, 112.895 99.365, 118.706 99.583, 120.417 99.590, 124.483 99.944, 125.066 102.789, 129.443 102.991, 129.687 108.621, 133.333 109.563, 133.374 117.500, 135.048 122.673, 141.108 122.690, 141.130 122.711, 141.143 128.696, 144.677 129.463, 144.752 122.819, 141.171 119.858, 136.368 " />
            <path fill="none" stroke-width="3.0" stroke-linecap="butt" stroke-opacity="1.0" stroke="rgb(0, 0, 0)" stroke-linejoin="round" d=" M 121.103, 208.198 116.233, 213.799 115.462, 214.685 114.147, 213.093 113.600, 212.431 113.623, 212.203 114.581, 212.788 116.233, 213.799 118.340, 215.089 120.652, 216.390 126.343, 215.880 130.714, 215.488 140.674, 214.595 143.257, 214.364 152.908, 211.744 154.449, 211.325 158.936, 209.172 166.458, 202.583 168.060, 201.180 171.407, 196.751 178.122, 189.341 184.838, 181.931 186.643, 179.940 190.680, 174.767 191.665, 173.565 192.190, 172.167 195.542, 162.745 198.629, 154.069 197.400, 145.532 196.887, 136.795 196.235, 135.183 " />
            <path fill="none" stroke-width="3.0" stroke-linecap="butt" stroke-opacity="1.0" stroke="rgb(0, 0, 0)" stroke-linejoin="round" d=" M 54.259, 145.805 51.243, 149.119 46.974, 154.297 46.874, 154.643 45.621, 158.982 43.252, 167.207 42.240, 174.530 42.401, 174.930 42.737, 175.934 49.785, 181.843 52.763, 183.474 61.391, 183.911 64.320, 184.012 65.951, 183.684 69.958, 182.291 73.344, 181.113 76.548, 184.641 76.927, 185.059 76.668, 185.682 76.032, 187.215 75.508, 188.477 76.890, 187.595 77.122, 187.447 79.169, 186.141 79.373, 186.011 " />
            <path fill="none" stroke-width="3.0" stroke-linecap="butt" stroke-opacity="1.0" stroke="rgb(0, 0, 0)" stroke-linejoin="round" d=" M 143.834, 167.049 141.722, 165.769 141.031, 165.241 140.886, 164.080 139.410, 154.189 138.641, 149.040 138.592, 148.709 138.854, 148.193 139.374, 148.251 141.234, 149.565 " />
            <path fill="none" stroke-width="3.0" stroke-linecap="butt" stroke-opacity="1.0" stroke="rgb(0, 0, 0)" stroke-linejoin="round" d=" M 69.958, 182.291 76.032, 187.215 " />
            <path fill="none" stroke-width="3.0" stroke-linecap="butt" stroke-opacity="1.0" stroke="rgb(0, 0, 0)" stroke-linejoin="round" d=" M 80.395, 187.830 75.717, 194.413 71.303, 199.553 68.814, 207.870 67.835, 210.259 69.154, 213.162 75.223, 219.264 81.931, 220.040 86.373, 220.310 87.478, 219.848 97.292, 217.929 97.702, 217.849 97.990, 217.459 99.552, 215.862 105.613, 209.664 99.363, 214.515 " />
            <path fill="none" stroke-width="3.0" stroke-linecap="butt" stroke-opacity="1.0" stroke="rgb(0, 0, 0)" stroke-linejoin="round" d=" M 99.552, 215.862 99.890, 216.223 104.724, 219.384 109.161, 219.184 110.295, 215.804 114.147, 213.093 " />
            <path fill="none" stroke-width="3.0" stroke-linecap="butt" stroke-opacity="1.0" stroke="rgb(0, 0, 0)" stroke-linejoin="round" d=" M 178.012, 123.910 180.892, 122.001 187.962, 117.314 189.261, 116.452 192.046, 112.859 198.173, 104.956 198.641, 104.352 198.565, 94.591 196.986, 87.267 195.851, 85.146 194.521, 83.647 187.062, 76.987 182.533, 72.943 181.730, 72.599 179.932, 72.433 176.930, 72.371 166.932, 72.166 163.543, 72.096 160.130, 72.026 159.957, 72.043 157.934, 72.249 154.112, 72.637 150.839, 72.969 148.920, 73.718 143.871, 75.687 143.213, 75.944 142.102, 77.998 137.344, 86.794 133.982, 93.010 133.573, 95.506 133.521, 95.824 132.470, 102.253 131.790, 102.926 133.561, 106.459 134.162, 107.657 134.340, 108.012 133.823, 108.052 132.832, 108.130 124.274, 108.797 122.368, 109.012 119.755, 108.952 119.747, 108.952 119.575, 108.700 119.325, 108.333 119.317, 108.336 115.686, 109.633 114.669, 109.325 109.898, 108.014 107.869, 106.887 105.502, 100.689 105.266, 100.143 105.247, 100.098 105.449, 99.332 " />
            <path fill="none" stroke-width="3.0" stroke-linecap="butt" stroke-opacity="1.0" stroke="rgb(0, 0, 0)" stroke-linejoin="round" d=" M 133.573, 95.506 131.774, 93.041 128.889, 91.100 126.509, 90.183 126.053, 90.192 120.915, 90.523 116.300, 92.468 115.820, 92.833 115.737, 93.297 114.754, 98.408 116.591, 104.489 116.597, 104.510 116.598, 104.512 116.602, 104.518 116.613, 104.534 " />
            <path fill="none" stroke-width="3.0" stroke-linecap="butt" stroke-opacity="1.0" stroke="rgb(0, 0, 0)" stroke-linejoin="round" d=" M 113.804, 38.462 109.349, 38.175 99.357, 37.775 93.931, 37.557 85.583, 41.878 76.913, 46.861 75.618, 47.605 69.146, 55.228 65.147, 59.938 58.524, 66.980 54.037, 75.917 51.116, 81.733 47.168, 90.921 43.636, 99.137 43.245, 109.129 43.165, 111.183 42.225, 121.138 41.285, 131.094 40.514, 139.252 43.209, 146.727 46.874, 154.643 " />
            <path fill="none" stroke-width="3.0" stroke-linecap="butt" stroke-opacity="1.0" stroke="rgb(0, 0, 0)" stroke-linejoin="round" d=" M 155.648, 68.548 154.913, 67.935 151.336, 66.565 150.740, 66.595 150.337, 66.599 146.102, 67.851 143.541, 68.436 143.415, 68.539 143.380, 68.568 143.247, 68.684 " />
        </g>
    </g>
</svg>
