<?xml version='1.0' encoding='ascii'?>
<svg xmlns="http://www.w3.org/2000/svg" version="1.1" width="250" height="250">
    <g id="ViewLayer_LineSet" xmlns:inkscape="http://www.inkscape.org/namespaces/inkscape" inkscape:groupmode="lineset" inkscape:label="ViewLayer_LineSet">
        <g xmlns:inkscape="http://www.inkscape.org/namespaces/inkscape" inkscape:groupmode="layer" id="strokes" inkscape:label="strokes">
            <path fill="none" stroke-width="3.0" stroke-linecap="butt" stroke-opacity="1.0" stroke="rgb(0, 0, 0)" stroke-linejoin="round" d=" M 139.869, 198.852 143.115, 195.683 143.624, 195.185 144.643, 194.190 144.645, 194.188 146.804, 194.147 147.708, 194.129 148.727, 194.109 151.801, 193.663 154.430, 190.969 156.161, 189.346 157.719, 185.930 159.261, 182.865 164.852, 180.751 167.233, 179.263 168.470, 175.890 170.248, 173.592 171.097, 170.508 171.669, 168.675 171.993, 167.636 171.865, 164.859 171.626, 161.805 171.070, 160.741 167.076, 153.092 165.604, 150.155 162.665, 152.946 156.296, 160.656 153.404, 164.156 144.069, 167.742 143.026, 168.142 " />
            <path fill="none" stroke-width="3.0" stroke-linecap="butt" stroke-opacity="1.0" stroke="rgb(0, 0, 0)" stroke-linejoin="round" d=" M 133.476, 146.317 137.136, 145.129 139.489, 144.229 140.758, 142.363 143.046, 138.835 143.318, 136.909 143.881, 131.653 143.008, 126.656 142.609, 124.625 140.210, 121.569 138.679, 119.636 136.066, 118.980 132.068, 118.059 132.049, 118.065 131.833, 118.144 " />
            <path fill="none" stroke-width="3.0" stroke-linecap="butt" stroke-opacity="1.0" stroke="rgb(0, 0, 0)" stroke-linejoin="round" d=" M 189.994, 123.151 196.705, 115.737 197.734, 114.600 198.959, 104.675 199.936, 96.763 198.428, 89.718 198.260, 84.845 193.656, 75.968 189.052, 67.091 188.332, 65.703 183.464, 56.968 182.365, 54.995 180.823, 53.454 176.100, 48.014 168.632, 41.363 164.746, 37.902 160.513, 34.089 151.460, 29.842 143.601, 26.155 138.821, 25.969 128.822, 26.088 118.823, 26.206 108.823, 26.325 103.681, 26.386 100.806, 26.466 97.914, 26.627 89.094, 31.339 85.086, 33.481 80.076, 36.765 79.026, 37.611 73.317, 45.822 67.907, 53.603 62.362, 60.446 58.880, 69.820 55.397, 79.194 54.844, 80.682 54.800, 87.224 54.363, 91.046 55.759, 100.948 55.841, 101.534 58.242, 111.242 58.859, 113.736 61.187, 116.656 67.465, 124.441 68.343, 125.529 68.301, 125.535 " />
            <path fill="none" stroke-width="3.0" stroke-linecap="butt" stroke-opacity="1.0" stroke="rgb(0, 0, 0)" stroke-linejoin="round" d=" M 175.259, 104.637 181.208, 106.984 173.296, 100.868 167.092, 96.072 " />
            <path fill="none" stroke-width="3.0" stroke-linecap="butt" stroke-opacity="1.0" stroke="rgb(0, 0, 0)" stroke-linejoin="round" d=" M 132.347, 147.541 135.425, 150.960 138.889, 154.816 141.390, 164.498 142.302, 168.029 142.126, 168.488 " />
            <path fill="none" stroke-width="3.0" stroke-linecap="butt" stroke-opacity="1.0" stroke="rgb(0, 0, 0)" stroke-linejoin="round" d=" M 129.984, 200.976 138.607, 199.970 143.086, 196.003 144.235, 194.986 144.797, 194.488 " />
            <path fill="none" stroke-width="3.0" stroke-linecap="butt" stroke-opacity="1.0" stroke="rgb(0, 0, 0)" stroke-linejoin="round" d=" M 74.467, 113.356 78.802, 106.785 83.336, 101.924 91.530, 98.885 99.196, 99.906 " />
            <path fill="none" stroke-width="3.0" stroke-linecap="butt" stroke-opacity="1.0" stroke="rgb(0, 0, 0)" stroke-linejoin="round" d=" M 109.889, 111.477 107.363, 103.987 103.529, 96.008 97.966, 91.835 " />
            <path fill="none" stroke-width="3.0" stroke-linecap="butt" stroke-opacity="1.0" stroke="rgb(0, 0, 0)" stroke-linejoin="round" d=" M 133.878, 99.921 143.755, 98.776 153.313, 101.858 158.651, 106.858 163.747, 113.639 " />
            <path fill="none" stroke-width="3.0" stroke-linecap="butt" stroke-opacity="1.0" stroke="rgb(0, 0, 0)" stroke-linejoin="round" d=" M 130.945, 94.597 125.385, 101.441 123.396, 111.241 123.368, 111.379 " />
            <path fill="none" stroke-width="3.0" stroke-linecap="butt" stroke-opacity="1.0" stroke="rgb(0, 0, 0)" stroke-linejoin="round" d=" M 132.040, 118.063 131.833, 118.144 128.290, 119.531 " />
            <path fill="none" stroke-width="3.0" stroke-linecap="butt" stroke-opacity="1.0" stroke="rgb(0, 0, 0)" stroke-linejoin="round" d=" M 133.050, 146.877 142.891, 145.101 143.385, 145.012 148.477, 139.710 151.014, 132.264 150.988, 122.264 150.987, 121.773 147.352, 113.312 140.602, 108.151 130.989, 109.858 128.395, 115.156 128.290, 119.531 " />
            <path fill="none" stroke-width="3.0" stroke-linecap="butt" stroke-opacity="1.0" stroke="rgb(0, 0, 0)" stroke-linejoin="round" d=" M 107.676, 116.371 105.379, 111.050 96.982, 109.260 91.575, 114.072 88.666, 121.962 88.887, 131.959 88.891, 132.164 90.942, 139.482 95.794, 144.428 99.184, 145.288 " />
            <path fill="none" stroke-width="3.0" stroke-linecap="butt" stroke-opacity="1.0" stroke="rgb(0, 0, 0)" stroke-linejoin="round" d=" M 61.250, 117.326 65.188, 122.775 65.355, 126.077 65.527, 129.506 66.009, 129.657 65.905, 130.601 64.711, 132.329 60.275, 141.291 59.808, 142.234 59.599, 142.657 59.710, 148.249 60.590, 150.777 60.920, 151.129 63.571, 153.955 63.621, 155.215 63.817, 160.218 63.997, 169.775 65.728, 173.383 66.994, 177.891 72.511, 186.231 73.503, 187.731 82.203, 191.403 " />
            <path fill="none" stroke-width="3.0" stroke-linecap="butt" stroke-opacity="1.0" stroke="rgb(0, 0, 0)" stroke-linejoin="round" d=" M 69.644, 90.192 69.611, 90.113 71.962, 89.282 69.644, 90.192 67.691, 90.959 65.254, 91.886 59.144, 99.802 56.724, 102.938 66.461, 103.780 64.112, 104.773 61.905, 107.833 66.118, 105.848 " />
            <path fill="none" stroke-width="3.0" stroke-linecap="butt" stroke-opacity="1.0" stroke="rgb(0, 0, 0)" stroke-linejoin="round" d=" M 101.695, 145.926 100.981, 144.705 100.940, 144.634 100.908, 144.579 100.850, 144.481 100.747, 144.585 100.732, 144.600 100.783, 144.594 100.908, 144.579 101.466, 144.513 102.511, 144.388 101.643, 144.568 101.111, 144.678 100.981, 144.705 99.582, 144.994 99.184, 145.288 92.362, 150.321 85.503, 154.476 82.821, 160.252 80.190, 162.587 79.825, 162.911 80.427, 165.035 79.713, 166.595 79.037, 175.220 80.422, 183.537 87.516, 190.585 88.931, 191.991 89.544, 192.675 90.962, 194.258 97.285, 196.273 106.660, 198.131 107.330, 198.263 108.146, 198.425 110.320, 198.856 111.469, 198.939 121.418, 197.934 121.762, 197.900 122.767, 197.798 124.172, 197.656 127.673, 197.160 130.772, 195.875 133.484, 193.755 139.245, 186.230 140.016, 185.223 140.837, 184.151 142.839, 176.279 143.681, 171.467 143.247, 168.607 143.026, 168.142 142.380, 166.789 139.909, 157.100 138.966, 153.403 136.272, 151.573 132.347, 147.541 " />
            <path fill="none" stroke-width="3.0" stroke-linecap="butt" stroke-opacity="1.0" stroke="rgb(0, 0, 0)" stroke-linejoin="round" d=" M 60.920, 151.129 61.066, 152.166 63.621, 155.215 " />
            <path fill="none" stroke-width="3.0" stroke-linecap="butt" stroke-opacity="1.0" stroke="rgb(0, 0, 0)" stroke-linejoin="round" d=" M 65.355, 126.077 65.193, 126.138 61.554, 130.664 61.323, 133.542 60.266, 138.220 59.649, 140.745 59.808, 142.234 " />
            <path fill="none" stroke-width="3.0" stroke-linecap="butt" stroke-opacity="1.0" stroke="rgb(0, 0, 0)" stroke-linejoin="round" d=" M 80.190, 162.587 80.010, 162.502 76.793, 158.612 71.876, 151.088 70.163, 148.466 68.479, 152.254 65.444, 158.656 64.981, 159.632 64.849, 163.232 64.719, 165.248 65.608, 169.027 66.145, 171.031 67.487, 175.495 68.261, 176.805 73.197, 178.992 75.247, 180.575 76.406, 182.842 78.227, 187.105 81.381, 190.546 82.203, 191.403 82.335, 191.541 82.727, 191.624 84.521, 192.006 88.899, 192.390 91.169, 194.496 " />
            <path fill="none" stroke-width="3.0" stroke-linecap="butt" stroke-opacity="1.0" stroke="rgb(0, 0, 0)" stroke-linejoin="round" d=" M 92.547, 195.775 93.372, 196.540 94.608, 198.089 94.789, 198.317 " />
            <path fill="none" stroke-width="3.0" stroke-linecap="butt" stroke-opacity="1.0" stroke="rgb(0, 0, 0)" stroke-linejoin="round" d=" M 94.612, 198.130 94.935, 201.077 95.207, 203.046 95.398, 203.394 100.510, 207.403 108.999, 212.688 109.393, 212.934 109.777, 213.160 119.474, 215.600 119.743, 215.668 119.986, 215.715 120.220, 215.692 124.222, 215.086 127.341, 213.388 131.229, 212.956 139.547, 209.166 141.119, 207.609 143.386, 204.879 143.884, 204.279 144.087, 203.977 " />
            <path fill="none" stroke-width="3.0" stroke-linecap="butt" stroke-opacity="1.0" stroke="rgb(0, 0, 0)" stroke-linejoin="round" d=" M 92.260, 195.647 94.612, 198.130 94.987, 198.526 " />
            <path fill="none" stroke-width="3.0" stroke-linecap="butt" stroke-opacity="1.0" stroke="rgb(0, 0, 0)" stroke-linejoin="round" d=" M 99.196, 99.906 99.800, 99.914 99.870, 99.996 100.153, 100.322 103.379, 104.156 106.447, 107.001 " />
            <path fill="none" stroke-width="3.0" stroke-linecap="butt" stroke-opacity="1.0" stroke="rgb(0, 0, 0)" stroke-linejoin="round" d=" M 96.830, 198.895 102.806, 200.126 104.252, 199.772 107.608, 198.611 " />
            <path fill="none" stroke-width="3.0" stroke-linecap="butt" stroke-opacity="1.0" stroke="rgb(0, 0, 0)" stroke-linejoin="round" d=" M 103.608, 117.575 103.301, 117.501 100.199, 118.420 96.922, 119.633 96.425, 120.445 94.265, 123.841 93.843, 124.891 93.779, 125.029 93.542, 131.429 93.527, 131.914 93.625, 132.430 94.844, 138.819 94.955, 138.990 95.604, 140.238 97.962, 143.257 98.701, 144.064 100.747, 144.585 " />
            <path fill="none" stroke-width="3.0" stroke-linecap="butt" stroke-opacity="1.0" stroke="rgb(0, 0, 0)" stroke-linejoin="round" d=" M 107.608, 198.611 109.037, 199.336 118.999, 200.204 121.594, 200.430 126.372, 200.894 128.023, 200.323 " />
            <path fill="none" stroke-width="3.0" stroke-linecap="butt" stroke-opacity="1.0" stroke="rgb(0, 0, 0)" stroke-linejoin="round" d=" M 127.924, 105.460 128.707, 104.552 131.127, 102.371 " />
            <path fill="none" stroke-width="3.0" stroke-linecap="butt" stroke-opacity="1.0" stroke="rgb(0, 0, 0)" stroke-linejoin="round" d=" M 128.023, 200.323 129.747, 200.999 129.973, 200.971 130.599, 200.895 132.416, 200.692 " />
            <path fill="none" stroke-width="3.0" stroke-linecap="butt" stroke-opacity="1.0" stroke="rgb(0, 0, 0)" stroke-linejoin="round" d=" M 143.386, 204.879 146.517, 203.351 148.905, 202.031 158.222, 198.399 158.616, 198.246 158.493, 196.452 168.038, 193.469 169.713, 192.946 173.895, 187.045 179.422, 178.711 180.933, 176.432 182.461, 172.897 182.757, 171.831 184.105, 165.558 184.555, 163.461 184.837, 159.097 185.221, 157.805 185.850, 157.370 190.267, 149.076 190.974, 146.070 188.328, 138.219 186.259, 133.228 187.534, 126.581 187.545, 126.527 187.764, 125.388 " />
            <path fill="none" stroke-width="3.0" stroke-linecap="butt" stroke-opacity="1.0" stroke="rgb(0, 0, 0)" stroke-linejoin="round" d=" M 144.235, 194.986 146.804, 194.147 " />
            <path fill="none" stroke-width="3.0" stroke-linecap="butt" stroke-opacity="1.0" stroke="rgb(0, 0, 0)" stroke-linejoin="round" d=" M 147.708, 194.129 147.167, 197.116 142.575, 196.915 143.086, 196.003 " />
            <path fill="none" stroke-width="3.0" stroke-linecap="butt" stroke-opacity="1.0" stroke="rgb(0, 0, 0)" stroke-linejoin="round" d=" M 163.481, 105.911 163.469, 104.952 161.255, 101.127 " />
            <path fill="none" stroke-width="3.0" stroke-linecap="butt" stroke-opacity="1.0" stroke="rgb(0, 0, 0)" stroke-linejoin="round" d=" M 184.105, 165.558 187.202, 166.330 188.331, 166.102 189.452, 165.419 195.102, 157.869 197.642, 155.557 199.350, 148.050 199.841, 143.831 198.998, 139.827 196.792, 133.091 196.059, 131.051 192.876, 127.752 189.556, 126.822 187.534, 126.581 " />
            <path fill="none" stroke-width="3.0" stroke-linecap="butt" stroke-opacity="1.0" stroke="rgb(0, 0, 0)" stroke-linejoin="round" d=" M 187.545, 126.527 189.994, 123.151 " />
        </g>
    </g>
</svg>
