<?xml version='1.0' encoding='ascii'?>
<svg xmlns="http://www.w3.org/2000/svg" version="1.1" width="250" height="250">
    <g id="ViewLayer_LineSet" xmlns:inkscape="http://www.inkscape.org/namespaces/inkscape" inkscape:groupmode="lineset" inkscape:label="ViewLayer_LineSet">
        <g xmlns:inkscape="http://www.inkscape.org/namespaces/inkscape" inkscape:groupmode="layer" id="strokes" inkscape:label="strokes">
            <path fill="none" stroke-width="3.0" stroke-linecap="butt" stroke-opacity="1.0" stroke="rgb(0, 0, 0)" stroke-linejoin="round" d=" M 124.848, 189.916 127.324, 187.287 127.536, 187.302 129.649, 187.447 129.794, 187.434 134.766, 187.010 136.865, 185.062 139.585, 182.746 140.747, 180.305 142.825, 175.910 147.317, 174.643 151.339, 172.668 152.560, 170.163 155.454, 167.110 156.147, 164.970 157.608, 160.977 157.554, 158.984 157.243, 154.775 152.684, 145.903 150.979, 142.477 145.915, 146.310 138.613, 153.142 136.485, 155.133 126.937, 158.108 122.060, 159.627 115.312, 161.662 " />
            <path fill="none" stroke-width="3.0" stroke-linecap="butt" stroke-opacity="1.0" stroke="rgb(0, 0, 0)" stroke-linejoin="round" d=" M 92.635, 187.650 97.235, 185.629 97.270, 185.636 97.374, 185.656 98.076, 185.956 101.795, 187.491 107.812, 190.697 " />
            <path fill="none" stroke-width="3.0" stroke-linecap="butt" stroke-opacity="1.0" stroke="rgb(0, 0, 0)" stroke-linejoin="round" d=" M 165.416, 97.740 165.807, 96.934 158.253, 90.381 150.699, 83.829 145.631, 79.433 " />
            <path fill="none" stroke-width="3.0" stroke-linecap="butt" stroke-opacity="1.0" stroke="rgb(0, 0, 0)" stroke-linejoin="round" d=" M 69.226, 103.666 70.426, 101.425 " />
            <path fill="none" stroke-width="3.0" stroke-linecap="butt" stroke-opacity="1.0" stroke="rgb(0, 0, 0)" stroke-linejoin="round" d=" M 190.378, 150.648 190.528, 150.061 190.289, 148.573 187.873, 138.870 187.833, 138.707 187.624, 137.867 189.113, 134.451 188.808, 136.786 187.833, 138.707 " />
            <path fill="none" stroke-width="3.0" stroke-linecap="butt" stroke-opacity="1.0" stroke="rgb(0, 0, 0)" stroke-linejoin="round" d=" M 180.538, 167.558 180.525, 167.664 180.023, 171.713 180.053, 171.915 180.076, 172.071 178.725, 175.525 180.009, 172.233 180.053, 171.915 180.532, 168.413 180.740, 167.773 180.824, 167.512 180.538, 167.558 " />
            <path fill="none" stroke-width="3.0" stroke-linecap="butt" stroke-opacity="1.0" stroke="rgb(0, 0, 0)" stroke-linejoin="round" d=" M 115.924, 136.383 115.924, 136.383 117.779, 138.085 120.359, 140.452 120.870, 140.920 121.167, 141.211 121.662, 141.696 121.774, 144.438 121.167, 141.211 121.118, 140.951 120.359, 140.452 120.093, 140.276 117.726, 138.066 115.924, 136.383 115.924, 136.383 " />
            <path fill="none" stroke-width="3.0" stroke-linecap="butt" stroke-opacity="1.0" stroke="rgb(0, 0, 0)" stroke-linejoin="round" d=" M 111.849, 193.005 117.377, 192.932 120.866, 192.885 123.880, 190.638 127.746, 187.755 " />
            <path fill="none" stroke-width="3.0" stroke-linecap="butt" stroke-opacity="1.0" stroke="rgb(0, 0, 0)" stroke-linejoin="round" d=" M 79.436, 188.931 86.017, 190.526 89.624, 188.959 97.270, 185.636 " />
            <path fill="none" stroke-width="3.0" stroke-linecap="butt" stroke-opacity="1.0" stroke="rgb(0, 0, 0)" stroke-linejoin="round" d=" M 70.362, 105.986 74.278, 99.433 78.179, 94.454 84.823, 90.880 91.437, 91.242 " />
            <path fill="none" stroke-width="3.0" stroke-linecap="butt" stroke-opacity="1.0" stroke="rgb(0, 0, 0)" stroke-linejoin="round" d=" M 99.171, 101.859 96.937, 94.300 94.572, 87.137 90.443, 83.677 " />
            <path fill="none" stroke-width="3.0" stroke-linecap="butt" stroke-opacity="1.0" stroke="rgb(0, 0, 0)" stroke-linejoin="round" d=" M 119.922, 85.673 113.984, 92.048 111.959, 101.841 111.919, 102.036 117.004, 95.462 122.759, 91.122 132.745, 90.585 132.950, 90.574 142.326, 94.052 142.817, 94.235 148.176, 99.513 153.263, 106.629 153.389, 98.077 149.654, 91.036 " />
            <path fill="none" stroke-width="3.0" stroke-linecap="butt" stroke-opacity="1.0" stroke="rgb(0, 0, 0)" stroke-linejoin="round" d=" M 121.917, 139.548 128.104, 137.831 " />
            <path fill="none" stroke-width="3.0" stroke-linecap="butt" stroke-opacity="1.0" stroke="rgb(0, 0, 0)" stroke-linejoin="round" d=" M 122.347, 140.235 132.337, 139.782 133.837, 139.714 139.012, 134.364 142.035, 126.958 142.090, 116.958 142.095, 116.007 138.442, 107.074 131.663, 101.487 121.706, 102.559 118.795, 107.630 118.419, 112.004 " />
            <path fill="none" stroke-width="3.0" stroke-linecap="butt" stroke-opacity="1.0" stroke="rgb(0, 0, 0)" stroke-linejoin="round" d=" M 97.956, 103.688 91.342, 102.634 87.154, 108.051 84.413, 116.003 84.021, 126.057 84.559, 129.985 " />
            <path fill="none" stroke-width="3.0" stroke-linecap="butt" stroke-opacity="1.0" stroke="rgb(0, 0, 0)" stroke-linejoin="round" d=" M 71.825, 127.970 71.743, 127.535 71.559, 129.271 69.204, 132.445 " />
            <path fill="none" stroke-width="3.0" stroke-linecap="butt" stroke-opacity="1.0" stroke="rgb(0, 0, 0)" stroke-linejoin="round" d=" M 63.800, 172.285 64.501, 179.005 65.431, 180.528 74.016, 185.656 75.059, 186.279 83.550, 191.561 87.015, 193.717 83.163, 196.569 84.341, 197.919 84.677, 198.238 89.737, 203.362 97.002, 209.394 98.108, 210.021 108.079, 210.786 109.121, 210.866 111.136, 213.159 111.828, 213.946 110.863, 213.032 " />
            <path fill="none" stroke-width="3.0" stroke-linecap="butt" stroke-opacity="1.0" stroke="rgb(0, 0, 0)" stroke-linejoin="round" d=" M 89.003, 69.315 79.013, 69.753 72.303, 70.046 70.142, 70.151 65.144, 73.367 59.848, 76.776 51.027, 81.376 49.898, 88.149 59.068, 92.138 64.949, 94.696 66.681, 95.449 65.164, 97.220 64.671, 97.796 65.953, 103.942 66.095, 103.930 69.226, 103.666 " />
            <path fill="none" stroke-width="3.0" stroke-linecap="butt" stroke-opacity="1.0" stroke="rgb(0, 0, 0)" stroke-linejoin="round" d=" M 123.880, 190.638 125.158, 190.909 126.402, 190.507 128.176, 190.176 128.124, 190.963 128.104, 191.268 126.857, 191.110 128.124, 190.963 128.729, 190.893 127.731, 193.919 " />
            <path fill="none" stroke-width="3.0" stroke-linecap="butt" stroke-opacity="1.0" stroke="rgb(0, 0, 0)" stroke-linejoin="round" d=" M 189.122, 152.361 190.378, 150.648 " />
            <path fill="none" stroke-width="3.0" stroke-linecap="butt" stroke-opacity="1.0" stroke="rgb(0, 0, 0)" stroke-linejoin="round" d=" M 97.336, 129.707 97.791, 129.719 97.920, 129.722 98.348, 129.818 103.050, 130.862 106.931, 131.724 103.030, 130.904 98.343, 129.919 97.776, 129.799 97.336, 129.707 97.215, 129.681 94.438, 129.238 89.127, 129.639 87.316, 129.776 84.559, 129.985 83.477, 130.067 73.522, 131.017 73.361, 131.032 71.394, 131.681 69.204, 132.445 67.162, 133.158 61.768, 138.164 61.748, 139.255 61.657, 144.227 57.713, 151.242 56.513, 155.922 57.348, 162.422 60.998, 168.001 63.800, 172.285 63.827, 172.325 63.877, 172.412 65.853, 175.873 71.371, 179.105 74.696, 179.692 76.343, 179.954 86.219, 181.523 86.538, 181.574 88.193, 181.837 95.917, 181.262 98.864, 180.493 101.047, 179.524 101.635, 179.262 101.872, 179.157 111.011, 175.098 112.990, 174.218 " />
            <path fill="none" stroke-width="3.0" stroke-linecap="butt" stroke-opacity="1.0" stroke="rgb(0, 0, 0)" stroke-linejoin="round" d=" M 63.877, 172.412 65.018, 176.402 67.644, 180.068 68.432, 181.104 70.641, 181.738 74.159, 182.147 77.213, 185.963 79.315, 188.760 " />
            <path fill="none" stroke-width="3.0" stroke-linecap="butt" stroke-opacity="1.0" stroke="rgb(0, 0, 0)" stroke-linejoin="round" d=" M 61.748, 139.255 61.527, 138.812 58.353, 145.486 56.408, 149.258 55.915, 153.759 55.768, 154.817 56.272, 159.360 56.429, 160.518 57.023, 165.136 57.426, 166.027 60.998, 168.001 " />
            <path fill="none" stroke-width="3.0" stroke-linecap="butt" stroke-opacity="1.0" stroke="rgb(0, 0, 0)" stroke-linejoin="round" d=" M 66.095, 103.930 67.415, 113.445 68.272, 116.225 71.786, 122.591 71.430, 124.022 " />
            <path fill="none" stroke-width="3.0" stroke-linecap="butt" stroke-opacity="1.0" stroke="rgb(0, 0, 0)" stroke-linejoin="round" d=" M 76.555, 87.973 75.668, 88.661 71.816, 91.423 69.763, 94.917 69.231, 96.496 69.246, 97.331 70.426, 101.425 70.768, 102.611 " />
            <path fill="none" stroke-width="3.0" stroke-linecap="butt" stroke-opacity="1.0" stroke="rgb(0, 0, 0)" stroke-linejoin="round" d=" M 91.455, 91.243 91.464, 91.258 92.918, 94.237 96.395, 97.626 " />
            <path fill="none" stroke-width="3.0" stroke-linecap="butt" stroke-opacity="1.0" stroke="rgb(0, 0, 0)" stroke-linejoin="round" d=" M 89.624, 188.959 94.866, 192.405 103.619, 194.027 111.021, 195.597 114.656, 194.343 117.377, 192.932 " />
            <path fill="none" stroke-width="3.0" stroke-linecap="butt" stroke-opacity="1.0" stroke="rgb(0, 0, 0)" stroke-linejoin="round" d=" M 98.215, 110.898 95.160, 110.051 93.826, 110.376 92.097, 111.001 90.537, 112.659 89.984, 113.029 88.224, 116.952 87.654, 118.133 87.116, 122.527 86.923, 124.262 87.056, 126.010 87.316, 129.776 " />
            <path fill="none" stroke-width="3.0" stroke-linecap="butt" stroke-opacity="1.0" stroke="rgb(0, 0, 0)" stroke-linejoin="round" d=" M 98.893, 106.839 99.147, 107.284 99.121, 107.603 98.933, 109.875 98.874, 111.073 98.378, 121.061 98.003, 128.622 97.791, 129.719 " />
            <path fill="none" stroke-width="3.0" stroke-linecap="butt" stroke-opacity="1.0" stroke="rgb(0, 0, 0)" stroke-linejoin="round" d=" M 111.136, 213.159 116.476, 215.647 122.759, 213.806 132.716, 212.881 135.914, 212.584 136.082, 212.546 136.423, 212.395 145.368, 207.924 146.682, 207.267 149.455, 206.022 157.443, 200.007 164.420, 194.754 170.567, 188.669 174.246, 185.026 175.019, 183.263 176.428, 181.555 179.967, 172.867 182.447, 173.782 185.163, 173.654 191.591, 173.350 200.687, 169.304 203.174, 166.813 204.394, 166.006 207.279, 156.383 207.713, 153.696 206.665, 148.103 203.507, 139.942 202.445, 137.708 198.438, 133.966 194.176, 132.675 193.364, 132.684 " />
            <path fill="none" stroke-width="3.0" stroke-linecap="butt" stroke-opacity="1.0" stroke="rgb(0, 0, 0)" stroke-linejoin="round" d=" M 128.250, 137.613 130.763, 134.066 131.923, 132.425 132.808, 127.940 133.259, 125.117 132.876, 121.858 132.320, 117.857 130.421, 114.992 128.812, 112.548 125.768, 111.547 122.656, 110.579 118.419, 112.004 " />
            <path fill="none" stroke-width="3.0" stroke-linecap="butt" stroke-opacity="1.0" stroke="rgb(0, 0, 0)" stroke-linejoin="round" d=" M 170.567, 188.669 173.294, 188.899 176.369, 187.747 184.130, 181.441 187.331, 178.840 187.784, 178.170 187.791, 177.779 187.137, 176.779 185.163, 173.654 " />
            <path fill="none" stroke-width="3.0" stroke-linecap="butt" stroke-opacity="1.0" stroke="rgb(0, 0, 0)" stroke-linejoin="round" d=" M 192.429, 133.379 200.184, 127.065 201.679, 125.849 207.017, 121.314 207.026, 119.249 204.504, 109.572 201.983, 99.895 200.855, 95.566 199.339, 85.682 198.984, 83.366 193.902, 74.753 188.820, 66.141 183.738, 57.528 181.648, 53.987 181.179, 53.434 181.021, 53.118 173.547, 46.474 166.073, 39.830 162.502, 36.656 158.275, 32.897 149.241, 28.609 140.207, 24.321 137.998, 23.272 137.622, 23.130 137.543, 23.145 127.619, 24.377 117.695, 25.609 107.772, 26.841 101.585, 27.609 97.632, 28.090 89.627, 34.084 86.261, 36.604 78.767, 43.225 78.218, 43.710 74.307, 50.381 68.629, 58.613 66.044, 62.360 65.186, 64.893 65.144, 73.367 " />
        </g>
    </g>
</svg>
