<?xml version='1.0' encoding='ascii'?>
<svg xmlns="http://www.w3.org/2000/svg" version="1.1" width="250" height="250">
    <g id="ViewLayer_LineSet" xmlns:inkscape="http://www.inkscape.org/namespaces/inkscape" inkscape:groupmode="lineset" inkscape:label="ViewLayer_LineSet">
        <g xmlns:inkscape="http://www.inkscape.org/namespaces/inkscape" inkscape:groupmode="layer" id="strokes" inkscape:label="strokes">
            <path fill="none" stroke-width="3.0" stroke-linecap="butt" stroke-opacity="1.0" stroke="rgb(0, 0, 0)" stroke-linejoin="round" d=" M 94.817, 129.026 92.906, 129.503 90.536, 130.262 90.025, 131.027 89.132, 132.361 88.756, 134.892 88.567, 135.573 89.092, 139.885 89.257, 141.512 89.826, 143.390 91.073, 147.306 91.970, 148.559 93.636, 151.217 94.020, 151.830 94.802, 152.287 97.001, 154.136 98.286, 154.471 99.555, 154.688 99.627, 154.669 100.078, 154.546 " />
            <path fill="none" stroke-width="3.0" stroke-linecap="butt" stroke-opacity="1.0" stroke="rgb(0, 0, 0)" stroke-linejoin="round" d=" M 191.594, 121.585 198.757, 114.607 200.446, 112.962 204.557, 107.780 205.199, 102.258 201.015, 93.176 198.771, 88.304 195.917, 78.720 194.625, 74.383 190.540, 69.210 182.758, 62.930 177.513, 58.696 171.552, 50.796 163.184, 45.321 162.618, 44.950 154.081, 39.743 145.544, 34.535 144.642, 33.985 139.087, 32.241 129.092, 32.577 123.049, 32.781 113.066, 33.359 103.160, 33.933 93.181, 34.592 92.849, 34.614 82.828, 35.385 74.318, 40.636 67.889, 44.603 67.481, 45.079 66.985, 45.626 62.738, 54.679 59.803, 60.935 54.780, 69.582 54.307, 70.396 53.215, 76.718 55.999, 86.323 57.114, 90.170 59.601, 99.024 61.782, 103.945 66.727, 112.177 67.389, 113.163 " />
            <path fill="none" stroke-width="3.0" stroke-linecap="butt" stroke-opacity="1.0" stroke="rgb(0, 0, 0)" stroke-linejoin="round" d=" M 191.353, 148.446 191.920, 146.693 191.109, 142.308 188.569, 132.636 188.391, 131.956 189.104, 128.674 189.946, 124.792 189.581, 127.486 189.104, 128.674 " />
            <path fill="none" stroke-width="3.0" stroke-linecap="butt" stroke-opacity="1.0" stroke="rgb(0, 0, 0)" stroke-linejoin="round" d=" M 132.780, 206.556 137.804, 202.305 " />
            <path fill="none" stroke-width="3.0" stroke-linecap="butt" stroke-opacity="1.0" stroke="rgb(0, 0, 0)" stroke-linejoin="round" d=" M 68.991, 124.628 71.634, 119.297 " />
            <path fill="none" stroke-width="3.0" stroke-linecap="butt" stroke-opacity="1.0" stroke="rgb(0, 0, 0)" stroke-linejoin="round" d=" M 98.323, 127.245 96.122, 123.198 95.953, 122.887 94.780, 120.730 " />
            <path fill="none" stroke-width="3.0" stroke-linecap="butt" stroke-opacity="1.0" stroke="rgb(0, 0, 0)" stroke-linejoin="round" d=" M 111.820, 118.064 111.243, 126.956 " />
            <path fill="none" stroke-width="3.0" stroke-linecap="butt" stroke-opacity="1.0" stroke="rgb(0, 0, 0)" stroke-linejoin="round" d=" M 147.292, 120.049 153.206, 126.180 " />
            <path fill="none" stroke-width="3.0" stroke-linecap="butt" stroke-opacity="1.0" stroke="rgb(0, 0, 0)" stroke-linejoin="round" d=" M 128.768, 131.136 128.619, 131.110 122.591, 130.033 118.848, 131.685 " />
            <path fill="none" stroke-width="3.0" stroke-linecap="butt" stroke-opacity="1.0" stroke="rgb(0, 0, 0)" stroke-linejoin="round" d=" M 120.717, 122.432 118.568, 127.624 118.848, 131.685 " />
            <path fill="none" stroke-width="3.0" stroke-linecap="butt" stroke-opacity="1.0" stroke="rgb(0, 0, 0)" stroke-linejoin="round" d=" M 99.627, 154.669 99.937, 154.847 100.078, 154.546 " />
            <path fill="none" stroke-width="3.0" stroke-linecap="butt" stroke-opacity="1.0" stroke="rgb(0, 0, 0)" stroke-linejoin="round" d=" M 88.988, 120.812 86.048, 123.446 84.684, 130.134 86.161, 139.252 88.481, 146.344 93.293, 151.019 " />
            <path fill="none" stroke-width="3.0" stroke-linecap="butt" stroke-opacity="1.0" stroke="rgb(0, 0, 0)" stroke-linejoin="round" d=" M 130.053, 154.924 137.491, 152.857 141.906, 148.194 143.963, 141.126 " />
            <path fill="none" stroke-width="3.0" stroke-linecap="butt" stroke-opacity="1.0" stroke="rgb(0, 0, 0)" stroke-linejoin="round" d=" M 146.970, 199.499 147.507, 201.516 144.579, 201.775 " />
            <path fill="none" stroke-width="3.0" stroke-linecap="butt" stroke-opacity="1.0" stroke="rgb(0, 0, 0)" stroke-linejoin="round" d=" M 181.110, 168.875 182.821, 159.022 182.906, 158.536 191.847, 158.706 194.748, 158.199 201.520, 150.840 202.785, 149.465 205.328, 147.072 207.760, 138.728 208.109, 135.621 207.204, 130.504 203.223, 121.331 203.011, 120.843 202.950, 120.770 202.817, 120.632 202.133, 120.598 193.975, 121.056 192.853, 121.674 191.594, 121.585 " />
            <path fill="none" stroke-width="3.0" stroke-linecap="butt" stroke-opacity="1.0" stroke="rgb(0, 0, 0)" stroke-linejoin="round" d=" M 64.399, 110.743 62.331, 111.794 54.218, 114.601 51.955, 114.800 43.963, 120.535 53.561, 117.726 63.158, 114.917 65.711, 114.170 " />
            <path fill="none" stroke-width="3.0" stroke-linecap="butt" stroke-opacity="1.0" stroke="rgb(0, 0, 0)" stroke-linejoin="round" d=" M 185.164, 152.078 187.242, 155.641 191.353, 148.446 " />
            <path fill="none" stroke-width="3.0" stroke-linecap="butt" stroke-opacity="1.0" stroke="rgb(0, 0, 0)" stroke-linejoin="round" d=" M 94.202, 159.181 88.744, 161.968 82.173, 168.003 77.217, 171.727 73.477, 174.538 73.111, 175.152 71.066, 178.593 69.103, 180.438 70.004, 183.434 70.738, 185.877 69.532, 191.100 69.565, 196.781 71.288, 200.630 75.629, 204.574 81.936, 211.756 83.730, 212.269 87.731, 213.082 97.667, 214.214 102.676, 214.786 108.968, 214.717 115.396, 213.993 117.875, 212.589 120.134, 211.573 121.290, 211.054 122.699, 208.712 123.686, 207.072 125.682, 203.753 128.301, 199.402 129.413, 193.478 129.856, 191.115 129.866, 191.065 130.272, 188.901 " />
            <path fill="none" stroke-width="3.0" stroke-linecap="butt" stroke-opacity="1.0" stroke="rgb(0, 0, 0)" stroke-linejoin="round" d=" M 72.710, 124.787 72.540, 128.377 67.592, 137.067 67.326, 137.534 66.164, 140.304 66.204, 142.061 67.842, 146.571 68.795, 151.169 69.529, 152.503 69.055, 158.403 " />
            <path fill="none" stroke-width="3.0" stroke-linecap="butt" stroke-opacity="1.0" stroke="rgb(0, 0, 0)" stroke-linejoin="round" d=" M 69.055, 158.403 68.235, 157.064 65.156, 166.578 64.777, 167.748 65.197, 171.706 65.266, 172.643 66.793, 177.000 67.064, 177.745 68.256, 181.380 70.004, 183.434 " />
            <path fill="none" stroke-width="3.0" stroke-linecap="butt" stroke-opacity="1.0" stroke="rgb(0, 0, 0)" stroke-linejoin="round" d=" M 88.988, 120.812 89.019, 120.863 89.568, 121.255 96.580, 125.232 " />
            <path fill="none" stroke-width="3.0" stroke-linecap="butt" stroke-opacity="1.0" stroke="rgb(0, 0, 0)" stroke-linejoin="round" d=" M 96.122, 123.198 96.636, 123.309 98.544, 127.562 98.738, 129.509 " />
            <path fill="none" stroke-width="3.0" stroke-linecap="butt" stroke-opacity="1.0" stroke="rgb(0, 0, 0)" stroke-linejoin="round" d=" M 120.134, 211.573 121.804, 211.993 123.765, 211.939 130.682, 211.395 132.131, 210.887 139.482, 207.813 144.346, 205.722 144.391, 205.686 144.732, 205.491 150.156, 197.907 155.157, 195.143 164.864, 192.737 169.775, 191.520 174.610, 185.203 180.164, 176.887 180.437, 176.477 182.910, 169.974 183.334, 167.555 184.751, 161.409 183.286, 160.901 " />
            <path fill="none" stroke-width="3.0" stroke-linecap="butt" stroke-opacity="1.0" stroke="rgb(0, 0, 0)" stroke-linejoin="round" d=" M 122.699, 208.712 127.124, 207.888 132.560, 206.659 132.697, 206.565 132.971, 206.377 137.524, 202.304 137.804, 202.305 142.624, 202.328 144.172, 202.165 144.579, 201.775 146.811, 199.635 146.970, 199.499 148.316, 198.341 149.539, 195.529 150.617, 193.048 156.240, 191.093 158.406, 189.784 159.595, 186.608 161.479, 184.311 162.137, 181.870 163.178, 178.761 163.040, 177.013 162.663, 173.371 157.399, 164.869 156.406, 163.266 154.647, 163.104 148.325, 170.852 143.214, 177.115 135.968, 179.681 " />
            <path fill="none" stroke-width="3.0" stroke-linecap="butt" stroke-opacity="1.0" stroke="rgb(0, 0, 0)" stroke-linejoin="round" d=" M 130.053, 154.924 132.407, 153.922 133.389, 152.133 135.156, 148.897 135.282, 145.398 135.305, 142.198 134.634, 139.953 133.245, 135.771 132.105, 134.603 128.776, 131.140 128.770, 131.139 128.727, 131.131 128.619, 131.110 " />
            <path fill="none" stroke-width="3.0" stroke-linecap="butt" stroke-opacity="1.0" stroke="rgb(0, 0, 0)" stroke-linejoin="round" d=" M 124.004, 121.606 129.944, 120.500 132.581, 121.661 138.102, 124.706 139.020, 126.086 142.788, 131.867 142.802, 131.888 142.839, 132.267 142.863, 132.513 143.237, 135.402 " />
        </g>
    </g>
</svg>
