<?xml version='1.0' encoding='ascii'?>
<svg xmlns="http://www.w3.org/2000/svg" version="1.1" width="250" height="250">
    <g id="ViewLayer_LineSet" xmlns:inkscape="http://www.inkscape.org/namespaces/inkscape" inkscape:groupmode="lineset" inkscape:label="ViewLayer_LineSet">
        <g xmlns:inkscape="http://www.inkscape.org/namespaces/inkscape" inkscape:groupmode="layer" id="strokes" inkscape:label="strokes">
            <path fill="none" stroke-width="3.0" stroke-linecap="butt" stroke-opacity="1.0" stroke="rgb(0, 0, 0)" stroke-linejoin="round" d=" M 162.078, 189.214 166.968, 183.447 170.575, 183.144 173.302, 182.475 175.872, 179.079 176.929, 177.800 178.398, 173.402 179.396, 171.005 184.680, 168.323 185.421, 167.704 185.842, 167.352 186.322, 164.732 186.572, 163.364 186.869, 162.811 187.349, 161.916 187.970, 157.752 188.262, 156.103 187.842, 151.962 187.642, 150.420 186.573, 148.372 185.067, 145.487 182.556, 140.251 182.310, 139.738 179.141, 143.632 178.328, 145.010 " />
            <path fill="none" stroke-width="3.0" stroke-linecap="butt" stroke-opacity="1.0" stroke="rgb(0, 0, 0)" stroke-linejoin="round" d=" M 123.271, 111.664 117.620, 110.446 114.892, 111.571 111.658, 113.050 110.533, 115.234 108.669, 118.698 108.567, 121.713 108.415, 125.888 109.438, 129.498 110.464, 132.990 112.049, 134.823 115.014, 138.075 115.077, 138.087 115.348, 138.139 115.911, 138.256 " />
            <path fill="none" stroke-width="3.0" stroke-linecap="butt" stroke-opacity="1.0" stroke="rgb(0, 0, 0)" stroke-linejoin="round" d=" M 192.943, 91.889 192.943, 91.888 189.829, 82.385 189.138, 80.276 186.075, 78.830 181.638, 76.737 172.848, 71.969 168.449, 69.582 166.940, 69.533 156.944, 69.240 150.951, 69.065 " />
            <path fill="none" stroke-width="3.0" stroke-linecap="butt" stroke-opacity="1.0" stroke="rgb(0, 0, 0)" stroke-linejoin="round" d=" M 183.178, 117.441 184.345, 115.807 185.920, 108.454 186.839, 98.496 187.213, 94.444 " />
            <path fill="none" stroke-width="3.0" stroke-linecap="butt" stroke-opacity="1.0" stroke="rgb(0, 0, 0)" stroke-linejoin="round" d=" M 110.847, 187.586 113.913, 190.004 114.205, 190.234 114.448, 190.425 117.593, 192.905 125.842, 193.256 126.673, 193.292 " />
            <path fill="none" stroke-width="3.0" stroke-linecap="butt" stroke-opacity="1.0" stroke="rgb(0, 0, 0)" stroke-linejoin="round" d=" M 142.873, 186.735 152.054, 190.700 152.706, 190.982 153.930, 191.511 161.344, 190.096 " />
            <path fill="none" stroke-width="3.0" stroke-linecap="butt" stroke-opacity="1.0" stroke="rgb(0, 0, 0)" stroke-linejoin="round" d=" M 88.832, 97.949 88.832, 97.984 88.741, 106.440 93.866, 99.373 99.265, 94.090 108.624, 90.567 108.981, 90.433 118.889, 90.949 124.524, 95.293 129.795, 101.884 127.768, 94.181 122.808, 86.790 116.234, 83.080 " />
            <path fill="none" stroke-width="3.0" stroke-linecap="butt" stroke-opacity="1.0" stroke="rgb(0, 0, 0)" stroke-linejoin="round" d=" M 150.919, 91.330 158.662, 90.940 166.114, 94.549 170.512, 99.559 174.803, 106.199 " />
            <path fill="none" stroke-width="3.0" stroke-linecap="butt" stroke-opacity="1.0" stroke="rgb(0, 0, 0)" stroke-linejoin="round" d=" M 148.577, 85.939 144.285, 92.126 142.209, 101.908 142.184, 102.025 " />
            <path fill="none" stroke-width="3.0" stroke-linecap="butt" stroke-opacity="1.0" stroke="rgb(0, 0, 0)" stroke-linejoin="round" d=" M 115.092, 138.105 115.911, 138.256 119.866, 138.981 " />
            <path fill="none" stroke-width="3.0" stroke-linecap="butt" stroke-opacity="1.0" stroke="rgb(0, 0, 0)" stroke-linejoin="round" d=" M 146.396, 110.576 143.463, 111.793 " />
            <path fill="none" stroke-width="3.0" stroke-linecap="butt" stroke-opacity="1.0" stroke="rgb(0, 0, 0)" stroke-linejoin="round" d=" M 123.528, 108.831 120.636, 103.774 110.732, 102.728 103.636, 108.442 100.084, 116.883 100.303, 126.880 100.317, 127.504 103.288, 134.699 108.616, 139.559 118.201, 140.140 " />
            <path fill="none" stroke-width="3.0" stroke-linecap="butt" stroke-opacity="1.0" stroke="rgb(0, 0, 0)" stroke-linejoin="round" d=" M 160.032, 131.410 161.368, 125.695 161.420, 115.695 161.423, 115.261 158.504, 106.788 152.938, 101.448 145.268, 102.520 " />
            <path fill="none" stroke-width="3.0" stroke-linecap="butt" stroke-opacity="1.0" stroke="rgb(0, 0, 0)" stroke-linejoin="round" d=" M 179.769, 102.624 184.878, 102.612 184.641, 98.066 182.682, 96.464 187.213, 94.444 192.942, 91.891 192.942, 91.890 " />
            <path fill="none" stroke-width="3.0" stroke-linecap="butt" stroke-opacity="1.0" stroke="rgb(0, 0, 0)" stroke-linejoin="round" d=" M 69.260, 179.545 69.277, 179.690 69.220, 179.505 67.255, 173.077 " />
            <path fill="none" stroke-width="3.0" stroke-linecap="butt" stroke-opacity="1.0" stroke="rgb(0, 0, 0)" stroke-linejoin="round" d=" M 67.375, 157.647 63.489, 161.836 65.473, 169.143 65.930, 171.551 65.985, 171.836 66.680, 173.939 68.174, 178.460 69.231, 181.661 73.556, 187.910 81.449, 194.168 89.185, 200.505 91.652, 202.525 99.818, 206.441 108.722, 210.992 109.305, 211.290 111.439, 211.974 121.304, 213.616 122.122, 213.752 128.233, 215.862 134.677, 212.883 " />
            <path fill="none" stroke-width="3.0" stroke-linecap="butt" stroke-opacity="1.0" stroke="rgb(0, 0, 0)" stroke-linejoin="round" d=" M 186.573, 148.372 186.998, 146.699 187.433, 140.908 184.447, 136.668 178.930, 130.046 178.357, 126.854 179.803, 127.256 179.372, 123.822 183.098, 117.962 179.163, 123.171 183.178, 117.441 " />
            <path fill="none" stroke-width="3.0" stroke-linecap="butt" stroke-opacity="1.0" stroke="rgb(0, 0, 0)" stroke-linejoin="round" d=" M 108.644, 72.124 99.232, 75.503 95.516, 76.837 93.757, 77.423 88.638, 82.417 81.684, 89.604 74.731, 96.791 73.872, 97.679 76.077, 98.765 " />
            <path fill="none" stroke-width="3.0" stroke-linecap="butt" stroke-opacity="1.0" stroke="rgb(0, 0, 0)" stroke-linejoin="round" d=" M 114.205, 190.234 114.714, 191.520 114.448, 190.425 " />
            <path fill="none" stroke-width="3.0" stroke-linecap="butt" stroke-opacity="1.0" stroke="rgb(0, 0, 0)" stroke-linejoin="round" d=" M 60.119, 136.409 59.399, 134.809 58.676, 131.536 60.175, 136.217 60.119, 136.409 58.367, 142.443 57.025, 147.611 57.292, 149.982 61.087, 156.233 66.155, 153.323 67.193, 152.134 " />
            <path fill="none" stroke-width="3.0" stroke-linecap="butt" stroke-opacity="1.0" stroke="rgb(0, 0, 0)" stroke-linejoin="round" d=" M 126.707, 174.084 134.724, 180.061 135.946, 180.972 139.317, 181.881 143.103, 182.217 145.849, 182.460 147.287, 182.588 149.457, 182.262 155.159, 181.405 158.366, 180.923 164.448, 179.664 169.481, 178.622 170.362, 178.221 170.541, 177.944 176.413, 169.849 179.337, 165.819 179.743, 163.087 180.706, 156.612 179.613, 149.048 178.328, 145.010 176.539, 139.386 176.084, 138.517 175.518, 138.022 174.404, 137.047 165.189, 133.163 164.847, 133.019 161.824, 131.639 160.032, 131.410 156.839, 131.003 155.322, 130.809 150.229, 130.160 143.934, 129.541 143.282, 129.477 140.152, 129.958 139.716, 130.050 129.932, 132.116 129.100, 132.292 126.786, 132.781 126.718, 132.843 121.562, 137.597 120.658, 138.430 120.437, 138.584 119.866, 138.981 118.201, 140.140 117.321, 140.752 116.781, 143.486 114.843, 153.296 114.305, 156.021 114.241, 156.441 114.134, 157.166 114.091, 157.454 114.257, 158.185 114.667, 159.132 115.133, 160.208 114.793, 159.173 114.134, 157.166 114.054, 156.922 115.858, 147.086 116.482, 143.685 116.781, 143.486 " />
            <path fill="none" stroke-width="3.0" stroke-linecap="butt" stroke-opacity="1.0" stroke="rgb(0, 0, 0)" stroke-linejoin="round" d=" M 66.680, 173.939 65.465, 175.757 68.174, 178.460 " />
            <path fill="none" stroke-width="3.0" stroke-linecap="butt" stroke-opacity="1.0" stroke="rgb(0, 0, 0)" stroke-linejoin="round" d=" M 90.906, 94.117 88.835, 97.938 88.834, 97.945 88.832, 97.984 " />
            <path fill="none" stroke-width="3.0" stroke-linecap="butt" stroke-opacity="1.0" stroke="rgb(0, 0, 0)" stroke-linejoin="round" d=" M 114.667, 159.132 105.165, 156.014 101.720, 154.884 95.112, 149.403 88.295, 142.086 88.198, 141.982 86.324, 145.748 82.035, 154.016 81.919, 156.627 81.616, 160.143 82.311, 162.603 83.544, 166.252 84.839, 169.068 87.104, 172.033 91.389, 173.290 95.334, 175.401 97.334, 179.358 98.683, 182.263 101.085, 184.495 103.469, 186.644 108.534, 187.191 111.079, 187.085 111.110, 187.084 113.560, 188.604 114.083, 188.928 114.118, 188.950 114.105, 189.018 113.979, 189.663 113.913, 190.004 " />
            <path fill="none" stroke-width="3.0" stroke-linecap="butt" stroke-opacity="1.0" stroke="rgb(0, 0, 0)" stroke-linejoin="round" d=" M 120.299, 139.353 120.097, 139.023 120.046, 138.941 120.437, 138.584 121.654, 137.468 126.701, 132.844 126.718, 132.843 127.129, 132.821 129.026, 132.437 138.826, 130.448 139.754, 130.260 " />
            <path fill="none" stroke-width="3.0" stroke-linecap="butt" stroke-opacity="1.0" stroke="rgb(0, 0, 0)" stroke-linejoin="round" d=" M 125.842, 193.256 126.247, 193.545 129.385, 195.043 135.806, 194.801 145.713, 194.436 152.706, 190.982 " />
            <path fill="none" stroke-width="3.0" stroke-linecap="butt" stroke-opacity="1.0" stroke="rgb(0, 0, 0)" stroke-linejoin="round" d=" M 134.677, 212.883 136.020, 210.869 144.398, 210.106 150.687, 207.029 153.833, 204.775 158.475, 201.153 159.151, 200.192 157.977, 196.762 157.513, 195.454 159.300, 194.438 168.193, 189.866 177.087, 185.293 179.576, 184.014 182.602, 179.233 184.287, 171.443 185.421, 167.704 " />
            <path fill="none" stroke-width="3.0" stroke-linecap="butt" stroke-opacity="1.0" stroke="rgb(0, 0, 0)" stroke-linejoin="round" d=" M 130.758, 191.130 138.665, 187.455 140.590, 186.560 140.986, 186.528 141.747, 186.289 142.056, 186.382 " />
            <path fill="none" stroke-width="3.0" stroke-linecap="butt" stroke-opacity="1.0" stroke="rgb(0, 0, 0)" stroke-linejoin="round" d=" M 142.879, 186.631 143.333, 186.769 146.221, 188.181 " />
            <path fill="none" stroke-width="3.0" stroke-linecap="butt" stroke-opacity="1.0" stroke="rgb(0, 0, 0)" stroke-linejoin="round" d=" M 143.463, 111.793 143.355, 107.705 143.352, 107.476 143.350, 107.397 143.445, 107.235 " />
            <path fill="none" stroke-width="3.0" stroke-linecap="butt" stroke-opacity="1.0" stroke="rgb(0, 0, 0)" stroke-linejoin="round" d=" M 156.839, 131.003 157.033, 130.578 157.368, 124.736 157.444, 123.790 157.238, 122.858 155.994, 117.352 155.570, 116.600 153.298, 112.181 153.100, 112.085 152.548, 111.619 149.221, 110.802 147.000, 110.401 146.460, 110.602 145.247, 111.053 " />
            <path fill="none" stroke-width="3.0" stroke-linecap="butt" stroke-opacity="1.0" stroke="rgb(0, 0, 0)" stroke-linejoin="round" d=" M 145.759, 97.046 147.915, 94.838 150.120, 92.153 " />
            <path fill="none" stroke-width="3.0" stroke-linecap="butt" stroke-opacity="1.0" stroke="rgb(0, 0, 0)" stroke-linejoin="round" d=" M 186.075, 78.830 185.567, 70.999 182.791, 62.345 176.761, 54.367 174.268, 51.070 168.807, 42.693 167.840, 41.209 161.554, 36.149 153.277, 30.537 147.964, 26.935 144.862, 26.732 134.894, 25.933 124.926, 25.135 114.958, 24.336 107.992, 23.778 107.361, 23.695 101.800, 26.145 92.849, 30.604 86.618, 33.708 84.857, 35.347 78.064, 41.559 71.297, 48.921 67.762, 52.768 65.493, 54.909 60.431, 63.533 59.670, 64.829 54.958, 73.650 50.246, 82.470 48.592, 85.565 47.923, 93.380 45.882, 103.170 44.801, 108.352 45.237, 118.342 45.310, 120.014 52.724, 126.724 55.848, 129.552 57.015, 131.377 54.942, 131.912 52.384, 132.774 48.009, 137.108 46.962, 139.791 44.512, 146.883 43.539, 151.552 44.008, 155.168 46.007, 163.713 47.874, 165.067 51.078, 168.944 57.301, 171.885 63.758, 172.488 65.930, 171.551 " />
        </g>
    </g>
</svg>
