<?xml version='1.0' encoding='ascii'?>
<svg xmlns="http://www.w3.org/2000/svg" version="1.1" width="250" height="250">
    <g id="ViewLayer_LineSet" xmlns:inkscape="http://www.inkscape.org/namespaces/inkscape" inkscape:groupmode="lineset" inkscape:label="ViewLayer_LineSet">
        <g xmlns:inkscape="http://www.inkscape.org/namespaces/inkscape" inkscape:groupmode="layer" id="strokes" inkscape:label="strokes">
            <path fill="none" stroke-width="3.0" stroke-linecap="butt" stroke-opacity="1.0" stroke="rgb(0, 0, 0)" stroke-linejoin="round" d=" M 146.948, 185.514 149.945, 182.301 150.176, 182.053 152.852, 182.064 157.644, 181.307 159.945, 178.781 161.995, 176.706 163.430, 173.299 165.135, 169.752 170.117, 167.978 172.900, 166.327 173.946, 163.225 175.711, 160.841 176.446, 157.668 177.174, 154.842 176.900, 151.570 176.577, 148.850 173.059, 142.335 170.603, 137.449 165.769, 141.726 159.251, 149.310 159.126, 149.455 152.214, 151.925 " />
            <path fill="none" stroke-width="3.0" stroke-linecap="butt" stroke-opacity="1.0" stroke="rgb(0, 0, 0)" stroke-linejoin="round" d=" M 116.090, 183.999 119.701, 182.344 119.853, 182.347 121.252, 182.353 121.820, 182.555 122.429, 182.772 124.366, 183.784 " />
            <path fill="none" stroke-width="3.0" stroke-linecap="butt" stroke-opacity="1.0" stroke="rgb(0, 0, 0)" stroke-linejoin="round" d=" M 111.106, 108.569 106.079, 107.361 104.564, 107.896 100.065, 109.800 100.015, 109.890 98.806, 111.941 97.000, 115.244 96.957, 115.322 96.616, 118.244 96.306, 122.319 97.693, 128.054 97.789, 128.427 " />
            <path fill="none" stroke-width="3.0" stroke-linecap="butt" stroke-opacity="1.0" stroke="rgb(0, 0, 0)" stroke-linejoin="round" d=" M 182.590, 92.901 177.159, 84.504 171.729, 76.107 170.080, 73.558 163.947, 71.067 154.813, 66.998 145.738, 62.955 143.646, 62.961 133.646, 62.937 123.646, 62.914 120.176, 62.905 110.176, 63.015 100.177, 63.124 97.268, 63.156 94.800, 63.172 85.790, 67.509 78.493, 71.022 71.431, 74.041 66.720, 82.862 62.009, 91.682 60.600, 94.320 62.453, 95.461 61.745, 95.934 61.200, 97.102 " />
            <path fill="none" stroke-width="3.0" stroke-linecap="butt" stroke-opacity="1.0" stroke="rgb(0, 0, 0)" stroke-linejoin="round" d=" M 188.706, 125.618 194.622, 119.921 195.517, 109.961 196.413, 100.002 197.239, 90.807 197.192, 90.404 197.195, 90.215 196.995, 89.754 192.703, 80.722 188.410, 71.691 184.117, 62.659 182.208, 58.642 175.973, 51.852 169.693, 44.070 164.294, 37.380 160.709, 35.077 151.895, 30.355 143.918, 26.082 140.317, 26.238 130.318, 26.358 120.318, 26.478 110.319, 26.597 106.520, 26.643 102.544, 26.587 93.878, 31.578 87.415, 35.300 82.572, 38.626 76.451, 46.534 72.700, 51.379 66.085, 58.878 65.363, 59.696 61.388, 68.872 57.413, 78.048 54.756, 84.181 53.904, 89.160 53.305, 91.460 53.285, 95.905 54.455, 105.837 55.625, 115.768 56.010, 119.038 60.295, 123.542 63.074, 127.712 " />
            <path fill="none" stroke-width="3.0" stroke-linecap="butt" stroke-opacity="1.0" stroke="rgb(0, 0, 0)" stroke-linejoin="round" d=" M 99.723, 127.184 99.059, 127.611 97.789, 128.427 93.020, 131.491 91.105, 132.722 89.484, 137.314 87.019, 138.901 87.321, 140.673 86.719, 141.594 85.469, 150.038 85.436, 150.264 85.172, 156.887 87.426, 158.401 93.157, 163.709 97.035, 167.401 97.816, 167.924 106.126, 173.487 107.506, 174.411 112.879, 175.692 119.529, 176.623 125.649, 175.835 129.277, 174.941 138.440, 170.937 143.881, 168.558 143.909, 168.530 147.489, 164.822 150.998, 156.237 152.214, 151.925 152.537, 150.781 151.908, 145.087 149.699, 140.336 148.174, 134.812 147.745, 133.259 144.886, 131.411 144.412, 131.105 139.970, 128.234 136.561, 125.872 131.825, 124.918 128.363, 124.221 126.686, 124.004 119.955, 123.134 117.388, 123.409 110.058, 124.193 102.581, 125.502 99.723, 127.184 " />
            <path fill="none" stroke-width="3.0" stroke-linecap="butt" stroke-opacity="1.0" stroke="rgb(0, 0, 0)" stroke-linejoin="round" d=" M 130.889, 186.933 135.018, 188.927 137.964, 188.697 143.869, 188.236 145.680, 186.635 146.412, 185.988 150.123, 182.709 " />
            <path fill="none" stroke-width="3.0" stroke-linecap="butt" stroke-opacity="1.0" stroke="rgb(0, 0, 0)" stroke-linejoin="round" d=" M 91.686, 182.244 94.801, 185.205 97.353, 187.631 97.578, 187.846 106.127, 188.687 " />
            <path fill="none" stroke-width="3.0" stroke-linecap="butt" stroke-opacity="1.0" stroke="rgb(0, 0, 0)" stroke-linejoin="round" d=" M 77.910, 103.412 82.764, 96.561 87.732, 91.358 96.429, 87.526 105.219, 87.680 109.248, 91.030 " />
            <path fill="none" stroke-width="3.0" stroke-linecap="butt" stroke-opacity="1.0" stroke="rgb(0, 0, 0)" stroke-linejoin="round" d=" M 115.086, 98.133 112.873, 90.472 108.973, 83.513 103.296, 80.191 " />
            <path fill="none" stroke-width="3.0" stroke-linecap="butt" stroke-opacity="1.0" stroke="rgb(0, 0, 0)" stroke-linejoin="round" d=" M 133.538, 91.957 138.659, 87.921 148.000, 87.740 157.008, 91.594 162.117, 96.776 167.053, 103.663 " />
            <path fill="none" stroke-width="3.0" stroke-linecap="butt" stroke-opacity="1.0" stroke="rgb(0, 0, 0)" stroke-linejoin="round" d=" M 135.949, 82.478 130.610, 88.501 128.421, 98.258 128.387, 98.410 " />
            <path fill="none" stroke-width="3.0" stroke-linecap="butt" stroke-opacity="1.0" stroke="rgb(0, 0, 0)" stroke-linejoin="round" d=" M 148.174, 134.812 151.586, 131.196 153.982, 123.987 154.006, 113.987 154.008, 113.265 150.557, 104.507 144.104, 98.944 134.918, 99.747 132.394, 104.664 132.273, 108.970 " />
            <path fill="none" stroke-width="3.0" stroke-linecap="butt" stroke-opacity="1.0" stroke="rgb(0, 0, 0)" stroke-linejoin="round" d=" M 111.686, 105.773 109.369, 100.911 100.595, 100.160 94.556, 105.990 91.155, 114.249 90.988, 124.247 90.983, 124.573 93.020, 131.491 " />
            <path fill="none" stroke-width="3.0" stroke-linecap="butt" stroke-opacity="1.0" stroke="rgb(0, 0, 0)" stroke-linejoin="round" d=" M 177.440, 98.831 184.247, 95.798 182.590, 92.901 " />
            <path fill="none" stroke-width="3.0" stroke-linecap="butt" stroke-opacity="1.0" stroke="rgb(0, 0, 0)" stroke-linejoin="round" d=" M 63.049, 127.176 62.011, 125.564 63.037, 126.911 63.049, 127.176 63.074, 127.712 63.248, 131.445 63.282, 132.168 63.310, 132.807 63.222, 132.946 58.108, 141.539 57.249, 142.983 57.272, 147.766 59.231, 152.667 61.215, 153.554 61.551, 156.346 61.126, 165.849 61.567, 169.200 61.744, 169.766 61.746, 169.772 62.593, 172.128 67.728, 180.708 72.864, 189.289 74.185, 191.495 75.511, 192.429 77.787, 194.393 86.519, 199.266 95.251, 204.140 96.563, 204.873 105.063, 210.141 105.299, 210.288 108.651, 211.738 118.215, 214.659 118.993, 214.897 122.623, 216.556 125.783, 215.217 135.517, 212.928 137.986, 212.347 139.786, 211.590 148.220, 206.219 149.254, 205.560 158.091, 200.879 163.774, 197.868 169.920, 193.084 172.983, 190.441 178.227, 181.926 182.813, 174.479 184.087, 171.480 184.498, 170.512 184.778, 169.495 185.954, 162.173 185.967, 156.865 186.233, 155.373 187.039, 155.227 190.594, 148.196 191.093, 144.705 186.612, 136.030 185.362, 133.942 185.695, 131.609 185.954, 129.795 186.191, 128.135 185.369, 130.683 " />
            <path fill="none" stroke-width="3.0" stroke-linecap="butt" stroke-opacity="1.0" stroke="rgb(0, 0, 0)" stroke-linejoin="round" d=" M 146.412, 185.988 146.547, 185.996 147.236, 185.273 145.714, 187.006 145.680, 186.635 " />
            <path fill="none" stroke-width="3.0" stroke-linecap="butt" stroke-opacity="1.0" stroke="rgb(0, 0, 0)" stroke-linejoin="round" d=" M 63.248, 131.445 63.225, 131.454 60.486, 133.764 57.012, 137.777 56.271, 141.666 54.877, 146.557 53.989, 149.593 54.263, 154.745 54.943, 161.425 57.298, 163.526 59.775, 168.788 61.744, 169.766 " />
            <path fill="none" stroke-width="3.0" stroke-linecap="butt" stroke-opacity="1.0" stroke="rgb(0, 0, 0)" stroke-linejoin="round" d=" M 85.469, 150.038 83.016, 149.105 77.795, 143.788 72.555, 136.929 69.962, 142.098 68.031, 145.660 66.678, 148.157 66.333, 151.713 66.024, 154.078 66.691, 157.498 67.278, 160.031 68.299, 163.480 69.590, 165.583 69.646, 165.675 73.966, 167.237 76.923, 169.128 78.415, 172.339 78.795, 173.307 79.878, 176.069 82.364, 178.824 84.139, 180.719 88.799, 181.535 91.486, 181.561 91.857, 181.846 94.270, 183.700 94.801, 185.205 " />
            <path fill="none" stroke-width="3.0" stroke-linecap="butt" stroke-opacity="1.0" stroke="rgb(0, 0, 0)" stroke-linejoin="round" d=" M 107.091, 188.233 108.319, 189.211 112.877, 191.810 118.451, 192.174 128.421, 192.947 129.323, 193.017 133.518, 191.219 137.964, 188.697 " />
            <path fill="none" stroke-width="3.0" stroke-linecap="butt" stroke-opacity="1.0" stroke="rgb(0, 0, 0)" stroke-linejoin="round" d=" M 109.248, 91.030 109.867, 91.517 109.951, 91.615 110.346, 92.070 " />
            <path fill="none" stroke-width="3.0" stroke-linecap="butt" stroke-opacity="1.0" stroke="rgb(0, 0, 0)" stroke-linejoin="round" d=" M 144.886, 131.411 146.708, 128.771 146.992, 127.099 147.703, 121.549 146.703, 114.674 146.661, 114.416 143.400, 109.849 143.013, 109.311 138.687, 108.031 136.584, 107.493 132.630, 108.856 " />
            <path fill="none" stroke-width="3.0" stroke-linecap="butt" stroke-opacity="1.0" stroke="rgb(0, 0, 0)" stroke-linejoin="round" d=" M 184.087, 171.480 186.530, 171.142 190.797, 169.082 193.398, 164.513 195.592, 162.760 196.701, 155.429 197.029, 150.842 196.049, 147.256 194.301, 141.664 193.424, 138.109 189.395, 133.711 187.604, 132.268 185.695, 131.609 " />
            <path fill="none" stroke-width="3.0" stroke-linecap="butt" stroke-opacity="1.0" stroke="rgb(0, 0, 0)" stroke-linejoin="round" d=" M 185.954, 129.795 188.706, 125.618 " />
        </g>
    </g>
</svg>
