<?xml version='1.0' encoding='ascii'?>
<svg xmlns="http://www.w3.org/2000/svg" version="1.1" width="250" height="250">
    <g id="ViewLayer_LineSet" xmlns:inkscape="http://www.inkscape.org/namespaces/inkscape" inkscape:groupmode="lineset" inkscape:label="ViewLayer_LineSet">
        <g xmlns:inkscape="http://www.inkscape.org/namespaces/inkscape" inkscape:groupmode="layer" id="strokes" inkscape:label="strokes">
            <path fill="none" stroke-width="3.0" stroke-linecap="butt" stroke-opacity="1.0" stroke="rgb(0, 0, 0)" stroke-linejoin="round" d=" M 144.207, 192.393 145.503, 191.055 145.759, 190.791 148.114, 188.361 148.296, 188.172 151.690, 188.128 155.609, 187.517 158.093, 184.858 159.908, 183.071 159.964, 183.016 161.489, 179.522 163.119, 176.205 168.432, 174.210 170.972, 172.637 172.112, 169.346 172.594, 168.700 173.848, 167.021 174.654, 163.815 175.447, 161.001 175.252, 157.892 174.979, 155.054 171.088, 147.621 169.054, 143.501 165.044, 147.229 158.655, 154.922 157.312, 156.539 149.454, 159.516 " />
            <path fill="none" stroke-width="3.0" stroke-linecap="butt" stroke-opacity="1.0" stroke="rgb(0, 0, 0)" stroke-linejoin="round" d=" M 105.798, 95.046 107.854, 97.029 109.376, 98.655 " />
            <path fill="none" stroke-width="3.0" stroke-linecap="butt" stroke-opacity="1.0" stroke="rgb(0, 0, 0)" stroke-linejoin="round" d=" M 131.907, 97.918 132.243, 97.523 132.284, 97.474 133.137, 96.767 " />
            <path fill="none" stroke-width="3.0" stroke-linecap="butt" stroke-opacity="1.0" stroke="rgb(0, 0, 0)" stroke-linejoin="round" d=" M 108.712, 112.843 105.350, 112.026 103.053, 112.782 99.176, 114.333 98.854, 114.887 96.180, 119.270 95.944, 119.755 95.927, 119.789 95.350, 126.787 95.347, 126.835 95.355, 126.884 95.451, 127.508 96.773, 133.209 96.944, 133.900 99.704, 137.345 " />
            <path fill="none" stroke-width="3.0" stroke-linecap="butt" stroke-opacity="1.0" stroke="rgb(0, 0, 0)" stroke-linejoin="round" d=" M 182.665, 99.131 176.229, 91.478 169.793, 83.824 167.540, 81.144 164.490, 80.054 155.146, 76.492 151.824, 75.225 " />
            <path fill="none" stroke-width="3.0" stroke-linecap="butt" stroke-opacity="1.0" stroke="rgb(0, 0, 0)" stroke-linejoin="round" d=" M 189.115, 124.101 195.520, 117.363 196.635, 107.425 197.749, 97.488 198.243, 93.084 197.769, 89.866 197.786, 88.044 195.344, 82.695 190.888, 73.743 186.432, 64.790 182.647, 57.185 178.212, 52.472 171.867, 44.742 165.522, 37.013 163.929, 35.073 163.469, 34.779 154.598, 30.163 145.727, 25.548 142.834, 24.043 142.680, 24.054 132.683, 24.282 122.685, 24.510 112.688, 24.738 102.896, 24.962 101.953, 24.953 93.364, 30.074 84.775, 35.195 84.324, 35.464 81.505, 37.501 75.503, 45.499 70.562, 52.082 64.277, 59.359 60.427, 68.588 56.577, 77.817 54.323, 83.221 53.800, 88.071 53.266, 90.596 53.557, 96.294 55.193, 106.160 56.829, 116.025 56.887, 116.377 60.634, 120.766 66.077, 128.345 65.694, 128.474 " />
            <path fill="none" stroke-width="3.0" stroke-linecap="butt" stroke-opacity="1.0" stroke="rgb(0, 0, 0)" stroke-linejoin="round" d=" M 104.582, 207.966 109.690, 210.845 112.236, 211.095 112.542, 211.126 " />
            <path fill="none" stroke-width="3.0" stroke-linecap="butt" stroke-opacity="1.0" stroke="rgb(0, 0, 0)" stroke-linejoin="round" d=" M 97.134, 139.013 96.421, 139.439 89.772, 143.418 87.543, 148.977 84.660, 151.273 84.978, 152.583 84.518, 153.397 84.156, 156.687 83.529, 162.378 83.844, 169.022 83.951, 171.270 84.787, 171.624 86.465, 172.856 93.263, 180.191 94.047, 181.037 94.776, 181.823 94.825, 181.876 96.961, 183.889 100.576, 184.650 105.711, 185.731 112.041, 186.472 116.977, 187.050 126.971, 185.953 131.831, 184.593 132.057, 184.530 138.796, 180.776 140.601, 179.771 142.956, 177.149 145.875, 173.900 148.449, 166.731 149.708, 161.243 149.454, 159.516 149.039, 156.687 147.382, 153.408 144.628, 143.749 140.611, 141.166 139.161, 140.233 138.884, 140.011 138.871, 140.001 133.765, 135.916 126.597, 134.539 119.823, 133.237 119.329, 133.164 119.056, 133.124 118.322, 133.016 116.389, 133.278 115.532, 133.430 105.684, 135.165 102.086, 135.799 100.480, 136.841 99.704, 137.345 97.134, 139.013 " />
            <path fill="none" stroke-width="3.0" stroke-linecap="butt" stroke-opacity="1.0" stroke="rgb(0, 0, 0)" stroke-linejoin="round" d=" M 133.327, 195.217 133.418, 195.208 142.059, 194.322 145.473, 191.256 145.799, 190.963 148.284, 188.731 " />
            <path fill="none" stroke-width="3.0" stroke-linecap="butt" stroke-opacity="1.0" stroke="rgb(0, 0, 0)" stroke-linejoin="round" d=" M 91.113, 187.907 96.853, 193.636 105.121, 194.799 " />
            <path fill="none" stroke-width="3.0" stroke-linecap="butt" stroke-opacity="1.0" stroke="rgb(0, 0, 0)" stroke-linejoin="round" d=" M 76.767, 107.913 81.465, 101.107 86.316, 95.998 94.905, 92.485 103.648, 93.085 " />
            <path fill="none" stroke-width="3.0" stroke-linecap="butt" stroke-opacity="1.0" stroke="rgb(0, 0, 0)" stroke-linejoin="round" d=" M 113.567, 104.117 111.259, 96.450 107.361, 88.944 101.683, 85.194 " />
            <path fill="none" stroke-width="3.0" stroke-linecap="butt" stroke-opacity="1.0" stroke="rgb(0, 0, 0)" stroke-linejoin="round" d=" M 132.243, 97.523 137.405, 93.159 146.953, 92.531 156.147, 96.062 161.313, 101.202 166.267, 108.092 " />
            <path fill="none" stroke-width="3.0" stroke-linecap="butt" stroke-opacity="1.0" stroke="rgb(0, 0, 0)" stroke-linejoin="round" d=" M 134.634, 87.717 129.180, 94.181 127.036, 103.948 126.978, 104.210 " />
            <path fill="none" stroke-width="3.0" stroke-linecap="butt" stroke-opacity="1.0" stroke="rgb(0, 0, 0)" stroke-linejoin="round" d=" M 140.611, 141.166 145.533, 140.610 150.660, 135.194 153.137, 127.811 153.201, 117.811 153.206, 117.110 149.738, 108.420 143.201, 103.000 133.851, 104.234 131.281, 109.377 131.152, 113.754 " />
            <path fill="none" stroke-width="3.0" stroke-linecap="butt" stroke-opacity="1.0" stroke="rgb(0, 0, 0)" stroke-linejoin="round" d=" M 110.497, 110.569 108.180, 105.445 99.483, 104.211 93.616, 109.635 90.365, 117.812 90.332, 127.812 90.331, 128.189 92.387, 135.368 96.421, 139.439 " />
            <path fill="none" stroke-width="3.0" stroke-linecap="butt" stroke-opacity="1.0" stroke="rgb(0, 0, 0)" stroke-linejoin="round" d=" M 177.187, 101.184 184.004, 100.839 182.665, 99.131 " />
            <path fill="none" stroke-width="3.0" stroke-linecap="butt" stroke-opacity="1.0" stroke="rgb(0, 0, 0)" stroke-linejoin="round" d=" M 63.678, 125.119 61.583, 122.230 63.675, 125.055 63.678, 125.119 63.875, 129.088 64.008, 131.751 64.017, 131.956 63.977, 132.026 59.269, 140.849 58.034, 143.162 58.115, 148.166 59.696, 152.337 62.100, 154.085 62.494, 158.104 62.369, 165.573 62.283, 170.735 62.360, 171.266 62.393, 171.353 62.523, 171.696 64.043, 174.115 69.436, 182.536 74.723, 190.793 82.385, 194.196 83.890, 196.650 92.835, 201.121 96.735, 203.070 101.150, 205.633 103.423, 206.781 " />
            <path fill="none" stroke-width="3.0" stroke-linecap="butt" stroke-opacity="1.0" stroke="rgb(0, 0, 0)" stroke-linejoin="round" d=" M 118.193, 213.732 122.505, 215.721 131.494, 211.800 136.366, 210.487 143.157, 207.362 148.990, 203.885 158.054, 199.659 167.117, 195.433 169.439, 194.351 169.433, 194.207 170.099, 193.966 170.613, 193.199 176.017, 184.785 181.421, 176.371 182.119, 175.283 183.550, 171.998 183.811, 171.090 184.129, 169.354 185.081, 164.167 185.271, 158.235 185.652, 156.523 186.506, 156.119 190.275, 148.703 190.893, 145.347 187.159, 136.722 185.551, 133.588 186.226, 129.334 186.446, 127.952 186.667, 126.559 185.966, 128.645 " />
            <path fill="none" stroke-width="3.0" stroke-linecap="butt" stroke-opacity="1.0" stroke="rgb(0, 0, 0)" stroke-linejoin="round" d=" M 89.378, 73.545 80.205, 77.526 74.517, 79.995 69.534, 81.958 64.199, 90.416 59.582, 97.735 64.282, 99.345 62.758, 100.211 61.428, 102.425 67.780, 102.115 " />
            <path fill="none" stroke-width="3.0" stroke-linecap="butt" stroke-opacity="1.0" stroke="rgb(0, 0, 0)" stroke-linejoin="round" d=" M 145.799, 190.963 147.341, 190.484 146.951, 192.098 145.107, 191.849 145.473, 191.256 " />
            <path fill="none" stroke-width="3.0" stroke-linecap="butt" stroke-opacity="1.0" stroke="rgb(0, 0, 0)" stroke-linejoin="round" d=" M 99.422, 202.135 99.637, 202.678 99.855, 202.997 100.165, 203.450 103.423, 206.781 104.582, 207.966 " />
            <path fill="none" stroke-width="3.0" stroke-linecap="butt" stroke-opacity="1.0" stroke="rgb(0, 0, 0)" stroke-linejoin="round" d=" M 63.875, 129.088 63.529, 129.205 62.428, 129.939 58.448, 134.584 57.905, 137.961 56.607, 142.862 55.831, 145.749 56.231, 151.060 57.011, 157.441 59.571, 160.058 62.369, 165.573 " />
            <path fill="none" stroke-width="3.0" stroke-linecap="butt" stroke-opacity="1.0" stroke="rgb(0, 0, 0)" stroke-linejoin="round" d=" M 84.156, 156.687 82.146, 155.843 77.765, 151.004 71.984, 142.845 71.855, 142.663 69.664, 147.236 69.075, 148.383 66.215, 153.948 65.958, 157.496 65.723, 159.781 66.475, 163.342 67.062, 165.717 67.302, 166.514 68.228, 169.593 69.355, 171.467 73.971, 173.306 76.556, 175.110 77.919, 177.954 79.526, 181.919 82.299, 184.967 83.739, 186.489 87.282, 187.151 90.784, 187.299 91.218, 187.662 94.398, 190.321 95.227, 192.013 " />
            <path fill="none" stroke-width="3.0" stroke-linecap="butt" stroke-opacity="1.0" stroke="rgb(0, 0, 0)" stroke-linejoin="round" d=" M 107.571, 193.711 111.561, 195.873 120.537, 196.513 128.468, 197.167 133.418, 195.208 " />
            <path fill="none" stroke-width="3.0" stroke-linecap="butt" stroke-opacity="1.0" stroke="rgb(0, 0, 0)" stroke-linejoin="round" d=" M 108.766, 193.180 118.019, 189.388 118.172, 189.326 118.553, 189.343 119.684, 189.369 123.096, 190.484 128.906, 193.169 " />
            <path fill="none" stroke-width="3.0" stroke-linecap="butt" stroke-opacity="1.0" stroke="rgb(0, 0, 0)" stroke-linejoin="round" d=" M 110.533, 134.779 115.371, 133.740 118.533, 133.061 119.056, 133.124 119.232, 133.145 119.329, 133.164 126.627, 134.584 132.201, 135.669 134.694, 140.866 " />
            <path fill="none" stroke-width="3.0" stroke-linecap="butt" stroke-opacity="1.0" stroke="rgb(0, 0, 0)" stroke-linejoin="round" d=" M 133.815, 210.537 133.856, 210.532 134.275, 210.333 134.718, 210.122 136.405, 209.321 140.373, 206.012 " />
            <path fill="none" stroke-width="3.0" stroke-linecap="butt" stroke-opacity="1.0" stroke="rgb(0, 0, 0)" stroke-linejoin="round" d=" M 138.884, 140.011 140.226, 139.584 141.887, 138.971 143.398, 136.856 145.665, 133.474 145.926, 131.826 146.604, 126.224 145.659, 120.097 145.485, 119.092 142.599, 115.191 141.722, 114.021 138.149, 113.037 135.193, 112.320 134.832, 112.447 132.803, 113.163 " />
            <path fill="none" stroke-width="3.0" stroke-linecap="butt" stroke-opacity="1.0" stroke="rgb(0, 0, 0)" stroke-linejoin="round" d=" M 165.976, 101.336 166.039, 99.244 163.006, 93.867 162.340, 92.851 161.681, 92.475 " />
            <path fill="none" stroke-width="3.0" stroke-linecap="butt" stroke-opacity="1.0" stroke="rgb(0, 0, 0)" stroke-linejoin="round" d=" M 184.129, 169.354 186.832, 168.872 189.610, 167.352 193.431, 161.482 195.817, 159.402 197.169, 152.075 197.590, 147.565 196.689, 143.864 194.824, 137.885 194.032, 134.989 189.675, 130.345 189.020, 130.095 186.226, 129.334 " />
            <path fill="none" stroke-width="3.0" stroke-linecap="butt" stroke-opacity="1.0" stroke="rgb(0, 0, 0)" stroke-linejoin="round" d=" M 186.446, 127.952 189.115, 124.101 " />
        </g>
    </g>
</svg>
