<?xml version='1.0' encoding='ascii'?>
<svg xmlns="http://www.w3.org/2000/svg" version="1.1" width="250" height="250">
    <g id="ViewLayer_LineSet" xmlns:inkscape="http://www.inkscape.org/namespaces/inkscape" inkscape:groupmode="lineset" inkscape:label="ViewLayer_LineSet">
        <g xmlns:inkscape="http://www.inkscape.org/namespaces/inkscape" inkscape:groupmode="layer" id="strokes" inkscape:label="strokes">
            <path fill="none" stroke-width="3.0" stroke-linecap="butt" stroke-opacity="1.0" stroke="rgb(0, 0, 0)" stroke-linejoin="round" d=" M 142.449, 156.428 147.078, 157.196 147.164, 157.170 147.283, 157.118 150.844, 154.079 151.753, 153.464 152.989, 151.542 153.816, 150.254 154.572, 149.151 156.026, 144.609 156.385, 143.448 156.363, 142.500 156.523, 137.496 156.444, 137.301 156.354, 136.683 154.470, 134.573 153.117, 133.159 152.298, 133.024 151.742, 132.932 150.853, 132.775 " />
            <path fill="none" stroke-width="3.0" stroke-linecap="butt" stroke-opacity="1.0" stroke="rgb(0, 0, 0)" stroke-linejoin="round" d=" M 199.153, 126.647 192.558, 121.250 189.118, 119.266 187.144, 117.963 186.552, 117.434 186.121, 117.911 181.953, 116.321 " />
            <path fill="none" stroke-width="3.0" stroke-linecap="butt" stroke-opacity="1.0" stroke="rgb(0, 0, 0)" stroke-linejoin="round" d=" M 175.454, 43.893 166.868, 38.766 164.682, 37.461 154.704, 36.790 151.201, 36.555 141.214, 36.040 138.232, 35.887 128.244, 35.394 122.723, 35.122 112.729, 34.771 104.590, 34.485 101.132, 35.619 92.560, 40.769 83.988, 45.918 82.492, 46.817 74.160, 52.244 68.621, 59.781 60.778, 65.985 56.938, 69.022 51.930, 75.694 49.543, 85.405 49.049, 87.415 44.908, 96.517 44.273, 97.911 45.924, 107.090 52.055, 114.280 56.793, 118.802 56.120, 118.998 55.341, 118.610 46.694, 117.854 46.693, 117.854 43.132, 127.199 43.059, 127.391 42.316, 131.918 42.768, 135.504 44.842, 143.040 47.783, 145.990 54.280, 153.593 54.634, 154.008 59.892, 155.325 60.618, 155.346 " />
            <path fill="none" stroke-width="3.0" stroke-linecap="butt" stroke-opacity="1.0" stroke="rgb(0, 0, 0)" stroke-linejoin="round" d=" M 74.376, 125.929 75.038, 125.462 76.058, 124.742 75.155, 124.402 73.437, 125.036 74.118, 125.124 75.038, 125.462 75.045, 125.464 74.376, 125.929 " />
            <path fill="none" stroke-width="3.0" stroke-linecap="butt" stroke-opacity="1.0" stroke="rgb(0, 0, 0)" stroke-linejoin="round" d=" M 155.051, 166.561 152.989, 165.767 " />
            <path fill="none" stroke-width="3.0" stroke-linecap="butt" stroke-opacity="1.0" stroke="rgb(0, 0, 0)" stroke-linejoin="round" d=" M 152.264, 132.964 147.774, 132.364 " />
            <path fill="none" stroke-width="3.0" stroke-linecap="butt" stroke-opacity="1.0" stroke="rgb(0, 0, 0)" stroke-linejoin="round" d=" M 100.985, 135.645 100.388, 143.219 102.655, 150.351 107.340, 154.660 112.788, 156.441 " />
            <path fill="none" stroke-width="3.0" stroke-linecap="butt" stroke-opacity="1.0" stroke="rgb(0, 0, 0)" stroke-linejoin="round" d=" M 125.335, 132.262 123.069, 127.005 " />
            <path fill="none" stroke-width="3.0" stroke-linecap="butt" stroke-opacity="1.0" stroke="rgb(0, 0, 0)" stroke-linejoin="round" d=" M 157.246, 147.712 160.071, 140.985 161.893, 132.474 160.452, 125.910 " />
            <path fill="none" stroke-width="3.0" stroke-linecap="butt" stroke-opacity="1.0" stroke="rgb(0, 0, 0)" stroke-linejoin="round" d=" M 109.348, 182.579 99.939, 179.193 99.518, 179.041 96.644, 176.124 90.772, 167.936 85.584, 166.823 80.845, 174.798 80.736, 176.465 80.453, 179.936 81.055, 182.146 82.097, 185.200 83.961, 189.349 85.033, 190.904 90.235, 192.568 92.583, 194.000 92.756, 194.329 93.656, 196.044 95.089, 199.055 98.821, 202.352 99.338, 202.792 100.167, 202.893 101.179, 202.915 105.898, 203.020 108.243, 204.756 111.193, 206.939 112.030, 207.559 111.636, 207.477 " />
            <path fill="none" stroke-width="3.0" stroke-linecap="butt" stroke-opacity="1.0" stroke="rgb(0, 0, 0)" stroke-linejoin="round" d=" M 57.824, 121.366 59.571, 130.367 57.831, 138.208 56.456, 145.154 56.968, 148.296 60.618, 155.346 61.364, 156.786 62.119, 157.486 62.646, 158.726 62.758, 161.775 64.450, 168.576 64.757, 169.847 66.280, 174.635 70.350, 180.508 76.358, 188.502 77.208, 189.633 86.880, 192.176 89.361, 192.828 92.756, 194.329 " />
            <path fill="none" stroke-width="3.0" stroke-linecap="butt" stroke-opacity="1.0" stroke="rgb(0, 0, 0)" stroke-linejoin="round" d=" M 114.054, 191.650 111.012, 188.424 110.996, 188.408 111.040, 188.227 111.012, 188.424 111.009, 188.441 111.007, 188.475 110.998, 188.592 111.065, 189.132 111.866, 194.257 112.854, 200.573 113.649, 205.662 114.116, 207.350 114.330, 208.126 114.683, 209.402 115.197, 211.262 122.305, 215.212 126.763, 217.940 131.061, 218.628 136.145, 218.750 146.115, 217.975 153.193, 217.426 156.104, 216.936 157.574, 216.541 164.494, 209.427 168.885, 205.798 171.254, 200.678 172.908, 191.305 173.052, 189.602 171.468, 187.686 169.675, 185.516 168.601, 184.217 164.709, 176.157 164.590, 175.911 159.272, 171.276 155.051, 166.561 " />
            <path fill="none" stroke-width="3.0" stroke-linecap="butt" stroke-opacity="1.0" stroke="rgb(0, 0, 0)" stroke-linejoin="round" d=" M 100.985, 135.645 101.011, 134.659 101.075, 134.207 101.101, 134.169 " />
            <path fill="none" stroke-width="3.0" stroke-linecap="butt" stroke-opacity="1.0" stroke="rgb(0, 0, 0)" stroke-linejoin="round" d=" M 101.179, 202.915 101.422, 203.285 102.111, 203.748 102.232, 203.832 106.514, 206.010 113.263, 208.811 114.683, 209.402 " />
            <path fill="none" stroke-width="3.0" stroke-linecap="butt" stroke-opacity="1.0" stroke="rgb(0, 0, 0)" stroke-linejoin="round" d=" M 108.243, 204.756 110.761, 206.879 " />
            <path fill="none" stroke-width="3.0" stroke-linecap="butt" stroke-opacity="1.0" stroke="rgb(0, 0, 0)" stroke-linejoin="round" d=" M 113.287, 134.180 110.795, 137.412 109.803, 138.664 109.101, 142.300 108.523, 145.195 109.156, 149.548 109.481, 151.695 112.210, 155.648 112.788, 156.441 112.833, 156.502 113.823, 156.779 117.349, 157.767 118.114, 157.953 " />
            <path fill="none" stroke-width="3.0" stroke-linecap="butt" stroke-opacity="1.0" stroke="rgb(0, 0, 0)" stroke-linejoin="round" d=" M 145.067, 133.870 145.183, 133.148 145.593, 129.934 145.646, 129.838 " />
            <path fill="none" stroke-width="3.0" stroke-linecap="butt" stroke-opacity="1.0" stroke="rgb(0, 0, 0)" stroke-linejoin="round" d=" M 171.468, 187.686 174.047, 186.323 176.669, 183.277 177.526, 180.644 177.871, 180.171 179.418, 176.010 179.797, 175.070 180.204, 171.633 180.316, 170.272 178.628, 165.238 177.057, 160.554 171.061, 168.557 168.553, 171.904 166.900, 174.361 166.394, 174.621 164.709, 176.157 " />
            <path fill="none" stroke-width="3.0" stroke-linecap="butt" stroke-opacity="1.0" stroke="rgb(0, 0, 0)" stroke-linejoin="round" d=" M 178.628, 165.238 178.422, 155.240 178.374, 152.929 181.187, 147.132 181.196, 147.108 182.719, 140.640 179.701, 132.630 178.575, 130.617 177.026, 127.847 176.866, 125.441 " />
            <path fill="none" stroke-width="3.0" stroke-linecap="butt" stroke-opacity="1.0" stroke="rgb(0, 0, 0)" stroke-linejoin="round" d=" M 181.016, 115.979 186.319, 107.500 187.535, 105.555 190.904, 98.085 192.738, 91.007 195.656, 81.443 195.737, 81.174 193.462, 71.437 192.808, 68.640 189.003, 62.356 184.509, 53.422 184.458, 53.321 179.545, 48.221 175.454, 43.893 " />
            <path fill="none" stroke-width="3.0" stroke-linecap="butt" stroke-opacity="1.0" stroke="rgb(0, 0, 0)" stroke-linejoin="round" d=" M 179.531, 118.245 188.723, 122.181 197.916, 126.117 199.153, 126.647 " />
        </g>
    </g>
</svg>
