<?xml version='1.0' encoding='ascii'?>
<svg xmlns="http://www.w3.org/2000/svg" version="1.1" width="250" height="250">
    <g id="ViewLayer_LineSet" xmlns:inkscape="http://www.inkscape.org/namespaces/inkscape" inkscape:groupmode="lineset" inkscape:label="ViewLayer_LineSet">
        <g xmlns:inkscape="http://www.inkscape.org/namespaces/inkscape" inkscape:groupmode="layer" id="strokes" inkscape:label="strokes">
            <path fill="none" stroke-width="3.0" stroke-linecap="butt" stroke-opacity="1.0" stroke="rgb(0, 0, 0)" stroke-linejoin="round" d=" M 93.237, 130.562 91.557, 130.977 89.230, 131.716 88.796, 132.357 88.141, 133.334 87.868, 136.209 87.679, 137.042 88.290, 140.882 88.544, 142.743 89.263, 144.909 90.444, 148.310 91.500, 149.755 92.226, 150.884 93.338, 152.613 94.288, 153.200 96.952, 155.477 97.658, 155.657 98.428, 155.775 99.052, 155.605 99.358, 155.521 " />
            <path fill="none" stroke-width="3.0" stroke-linecap="butt" stroke-opacity="1.0" stroke="rgb(0, 0, 0)" stroke-linejoin="round" d=" M 192.024, 121.069 199.151, 114.054 204.251, 109.035 206.311, 106.260 206.673, 103.076 202.096, 94.184 198.762, 87.708 195.245, 78.347 192.782, 71.792 192.691, 71.663 184.674, 65.686 176.657, 59.708 176.083, 59.280 169.612, 51.656 168.176, 49.964 161.362, 45.836 152.623, 40.974 143.885, 36.112 140.355, 34.148 137.037, 33.234 127.051, 33.752 119.084, 34.166 109.110, 34.888 101.522, 35.437 91.550, 36.192 90.378, 36.280 80.418, 37.171 79.559, 37.248 71.173, 42.696 64.721, 46.888 64.613, 47.011 64.527, 47.130 60.714, 56.375 58.036, 62.869 53.382, 71.720 52.193, 73.981 51.921, 76.221 55.218, 85.662 57.320, 91.680 60.965, 100.992 61.260, 101.745 61.281, 101.787 61.330, 101.860 67.010, 110.090 68.879, 112.797 " />
            <path fill="none" stroke-width="3.0" stroke-linecap="butt" stroke-opacity="1.0" stroke="rgb(0, 0, 0)" stroke-linejoin="round" d=" M 191.650, 148.145 192.105, 146.783 192.054, 146.466 191.558, 143.434 191.029, 141.249 188.734, 131.781 189.202, 129.575 190.110, 125.290 189.981, 127.599 189.202, 129.575 187.031, 135.074 " />
            <path fill="none" stroke-width="3.0" stroke-linecap="butt" stroke-opacity="1.0" stroke="rgb(0, 0, 0)" stroke-linejoin="round" d=" M 131.986, 206.999 136.667, 203.044 " />
            <path fill="none" stroke-width="3.0" stroke-linecap="butt" stroke-opacity="1.0" stroke="rgb(0, 0, 0)" stroke-linejoin="round" d=" M 95.795, 129.501 92.995, 124.843 " />
            <path fill="none" stroke-width="3.0" stroke-linecap="butt" stroke-opacity="1.0" stroke="rgb(0, 0, 0)" stroke-linejoin="round" d=" M 126.545, 132.800 120.341, 131.772 116.650, 133.430 " />
            <path fill="none" stroke-width="3.0" stroke-linecap="butt" stroke-opacity="1.0" stroke="rgb(0, 0, 0)" stroke-linejoin="round" d=" M 118.218, 124.327 116.246, 129.447 116.650, 133.430 " />
            <path fill="none" stroke-width="3.0" stroke-linecap="butt" stroke-opacity="1.0" stroke="rgb(0, 0, 0)" stroke-linejoin="round" d=" M 99.052, 155.605 99.270, 155.748 99.358, 155.521 " />
            <path fill="none" stroke-width="3.0" stroke-linecap="butt" stroke-opacity="1.0" stroke="rgb(0, 0, 0)" stroke-linejoin="round" d=" M 85.042, 124.762 84.080, 131.203 84.402, 132.794 85.283, 137.151 85.875, 140.080 88.272, 147.080 " />
            <path fill="none" stroke-width="3.0" stroke-linecap="butt" stroke-opacity="1.0" stroke="rgb(0, 0, 0)" stroke-linejoin="round" d=" M 129.251, 155.847 136.191, 153.860 140.366, 149.338 142.218, 142.380 " />
            <path fill="none" stroke-width="3.0" stroke-linecap="butt" stroke-opacity="1.0" stroke="rgb(0, 0, 0)" stroke-linejoin="round" d=" M 146.565, 199.577 147.515, 201.694 143.854, 202.061 " />
            <path fill="none" stroke-width="3.0" stroke-linecap="butt" stroke-opacity="1.0" stroke="rgb(0, 0, 0)" stroke-linejoin="round" d=" M 181.818, 169.485 183.779, 159.680 184.179, 157.680 193.334, 157.718 196.337, 157.088 203.216, 149.829 204.758, 148.202 207.197, 145.895 209.756, 137.253 210.036, 134.453 209.059, 129.012 204.910, 120.132 203.860, 119.714 195.325, 120.335 " />
            <path fill="none" stroke-width="3.0" stroke-linecap="butt" stroke-opacity="1.0" stroke="rgb(0, 0, 0)" stroke-linejoin="round" d=" M 64.475, 111.638 61.293, 113.572 52.330, 117.335 49.519, 117.895 41.842, 123.128 40.930, 124.063 42.087, 123.555 51.577, 120.401 61.067, 117.248 66.765, 115.354 " />
            <path fill="none" stroke-width="3.0" stroke-linecap="butt" stroke-opacity="1.0" stroke="rgb(0, 0, 0)" stroke-linejoin="round" d=" M 187.097, 150.953 188.454, 153.733 191.650, 148.145 " />
            <path fill="none" stroke-width="3.0" stroke-linecap="butt" stroke-opacity="1.0" stroke="rgb(0, 0, 0)" stroke-linejoin="round" d=" M 93.307, 160.381 87.066, 163.774 80.286, 170.070 76.628, 172.890 73.974, 174.937 70.460, 177.646 68.696, 180.479 68.625, 180.594 67.220, 181.883 69.076, 188.218 67.853, 194.513 67.961, 199.293 69.508, 202.430 73.113, 205.670 79.624, 213.260 80.015, 213.716 81.039, 213.998 83.373, 214.480 93.302, 215.675 100.549, 216.548 106.042, 216.581 112.255, 215.878 115.120, 214.357 118.513, 212.959 120.107, 210.337 120.662, 209.424 122.094, 207.068 123.749, 204.344 126.237, 200.251 127.382, 194.845 128.051, 191.684 128.072, 191.586 128.070, 191.705 " />
            <path fill="none" stroke-width="3.0" stroke-linecap="butt" stroke-opacity="1.0" stroke="rgb(0, 0, 0)" stroke-linejoin="round" d=" M 72.803, 117.730 74.130, 119.177 74.216, 119.347 74.166, 128.229 69.392, 137.016 68.152, 139.300 67.958, 139.777 67.964, 140.057 70.116, 146.005 71.153, 151.917 71.222, 151.872 70.707, 160.637 70.432, 162.327 " />
            <path fill="none" stroke-width="3.0" stroke-linecap="butt" stroke-opacity="1.0" stroke="rgb(0, 0, 0)" stroke-linejoin="round" d=" M 76.628, 172.890 76.058, 171.907 70.994, 163.284 70.432, 162.327 68.136, 158.417 65.380, 168.030 65.265, 168.432 65.847, 172.553 65.915, 173.190 67.624, 177.710 67.796, 178.154 68.489, 180.231 68.696, 180.479 " />
            <path fill="none" stroke-width="3.0" stroke-linecap="butt" stroke-opacity="1.0" stroke="rgb(0, 0, 0)" stroke-linejoin="round" d=" M 92.995, 124.843 94.624, 125.218 96.375, 129.081 96.565, 130.795 96.951, 134.267 98.955, 144.064 100.195, 150.124 100.622, 152.272 100.680, 152.564 100.610, 152.301 " />
            <path fill="none" stroke-width="3.0" stroke-linecap="butt" stroke-opacity="1.0" stroke="rgb(0, 0, 0)" stroke-linejoin="round" d=" M 118.807, 156.082 118.955, 156.230 120.798, 156.590 125.174, 157.520 127.249, 156.721 129.251, 155.847 130.816, 155.164 131.809, 153.225 133.359, 150.208 133.376, 146.160 133.314, 143.609 132.746, 141.905 131.044, 137.314 130.203, 136.490 127.644, 133.926 " />
            <path fill="none" stroke-width="3.0" stroke-linecap="butt" stroke-opacity="1.0" stroke="rgb(0, 0, 0)" stroke-linejoin="round" d=" M 120.107, 210.337 120.330, 210.406 122.763, 211.051 124.912, 211.026 131.353, 210.615 132.973, 210.072 139.918, 207.273 144.519, 205.404 144.585, 205.346 145.170, 205.025 150.484, 197.859 155.873, 194.701 165.596, 192.366 170.050, 191.296 174.627, 185.444 180.182, 177.129 180.796, 176.210 183.658, 168.457 184.111, 165.423 184.120, 165.383 184.178, 165.121 184.628, 163.080 184.207, 162.873 " />
            <path fill="none" stroke-width="3.0" stroke-linecap="butt" stroke-opacity="1.0" stroke="rgb(0, 0, 0)" stroke-linejoin="round" d=" M 120.662, 209.424 120.988, 209.507 126.472, 208.435 131.577, 207.196 131.846, 207.013 132.282, 206.717 136.362, 203.039 136.667, 203.044 141.512, 203.122 142.882, 202.991 143.854, 202.061 145.462, 200.522 146.565, 199.577 146.958, 199.240 148.044, 196.599 148.987, 194.182 154.474, 192.321 156.649, 191.017 157.776, 187.937 159.692, 185.601 160.268, 183.334 161.323, 180.123 161.175, 178.614 160.715, 174.803 155.529, 166.877 151.226, 166.127 144.942, 173.906 141.059, 178.712 136.770, 180.193 " />
            <path fill="none" stroke-width="3.0" stroke-linecap="butt" stroke-opacity="1.0" stroke="rgb(0, 0, 0)" stroke-linejoin="round" d=" M 120.905, 123.627 127.115, 122.543 130.318, 123.856 135.590, 126.615 136.943, 128.420 140.677, 133.580 140.849, 134.898 141.914, 140.601 " />
            <path fill="none" stroke-width="3.0" stroke-linecap="butt" stroke-opacity="1.0" stroke="rgb(0, 0, 0)" stroke-linejoin="round" d=" M 184.178, 165.121 184.208, 165.227 184.120, 165.383 " />
        </g>
    </g>
</svg>
