<?xml version='1.0' encoding='ascii'?>
<svg xmlns="http://www.w3.org/2000/svg" version="1.1" width="250" height="250">
    <g id="ViewLayer_LineSet" xmlns:inkscape="http://www.inkscape.org/namespaces/inkscape" inkscape:groupmode="lineset" inkscape:label="ViewLayer_LineSet">
        <g xmlns:inkscape="http://www.inkscape.org/namespaces/inkscape" inkscape:groupmode="layer" id="strokes" inkscape:label="strokes">
            <path fill="none" stroke-width="3.0" stroke-linecap="butt" stroke-opacity="1.0" stroke="rgb(0, 0, 0)" stroke-linejoin="round" d=" M 194.728, 126.563 189.213, 121.809 186.932, 119.338 183.130, 117.379 " />
            <path fill="none" stroke-width="3.0" stroke-linecap="butt" stroke-opacity="1.0" stroke="rgb(0, 0, 0)" stroke-linejoin="round" d=" M 171.149, 42.109 162.417, 37.237 161.862, 36.928 151.876, 36.409 147.531, 36.184 137.537, 35.820 134.515, 35.710 124.521, 35.363 118.735, 35.163 108.738, 34.958 101.147, 34.802 96.848, 36.377 88.456, 41.815 80.407, 47.030 72.199, 52.742 70.730, 53.764 66.812, 59.850 59.144, 66.269 58.238, 67.027 52.640, 75.314 50.339, 78.721 48.964, 87.531 45.739, 95.304 47.864, 105.076 48.486, 107.935 55.233, 115.316 57.403, 117.689 57.689, 117.959 57.650, 117.975 " />
            <path fill="none" stroke-width="3.0" stroke-linecap="butt" stroke-opacity="1.0" stroke="rgb(0, 0, 0)" stroke-linejoin="round" d=" M 71.381, 126.095 76.285, 122.823 73.996, 121.977 69.626, 123.462 71.063, 123.802 73.170, 124.736 71.381, 126.095 " />
            <path fill="none" stroke-width="3.0" stroke-linecap="butt" stroke-opacity="1.0" stroke="rgb(0, 0, 0)" stroke-linejoin="round" d=" M 152.142, 167.336 151.073, 166.711 154.216, 172.306 155.766, 179.486 153.358, 180.659 152.733, 185.278 " />
            <path fill="none" stroke-width="3.0" stroke-linecap="butt" stroke-opacity="1.0" stroke="rgb(0, 0, 0)" stroke-linejoin="round" d=" M 149.810, 133.155 148.437, 132.975 144.977, 132.520 141.772, 134.217 " />
            <path fill="none" stroke-width="3.0" stroke-linecap="butt" stroke-opacity="1.0" stroke="rgb(0, 0, 0)" stroke-linejoin="round" d=" M 98.333, 133.841 97.948, 142.995 100.307, 150.114 105.140, 154.457 109.755, 156.059 " />
            <path fill="none" stroke-width="3.0" stroke-linecap="butt" stroke-opacity="1.0" stroke="rgb(0, 0, 0)" stroke-linejoin="round" d=" M 121.796, 132.261 119.421, 126.992 " />
            <path fill="none" stroke-width="3.0" stroke-linecap="butt" stroke-opacity="1.0" stroke="rgb(0, 0, 0)" stroke-linejoin="round" d=" M 150.796, 152.707 156.010, 148.046 158.786, 141.297 160.246, 132.731 158.334, 126.106 " />
            <path fill="none" stroke-width="3.0" stroke-linecap="butt" stroke-opacity="1.0" stroke="rgb(0, 0, 0)" stroke-linejoin="round" d=" M 57.598, 117.951 56.686, 117.881 49.688, 117.628 49.332, 118.087 49.187, 118.304 46.209, 127.165 45.565, 131.236 46.135, 135.193 48.037, 142.210 51.160, 145.443 57.236, 152.982 60.355, 153.791 " />
            <path fill="none" stroke-width="3.0" stroke-linecap="butt" stroke-opacity="1.0" stroke="rgb(0, 0, 0)" stroke-linejoin="round" d=" M 57.465, 118.920 58.736, 120.447 58.941, 121.668 60.470, 129.820 58.896, 136.051 56.982, 144.439 57.548, 148.219 60.355, 153.791 61.012, 155.095 62.734, 156.779 63.824, 159.757 64.214, 166.959 65.204, 170.611 65.427, 171.284 66.277, 173.893 68.653, 177.369 74.482, 185.495 77.015, 189.026 85.587, 191.399 89.031, 192.937 " />
            <path fill="none" stroke-width="3.0" stroke-linecap="butt" stroke-opacity="1.0" stroke="rgb(0, 0, 0)" stroke-linejoin="round" d=" M 107.362, 187.280 107.166, 187.100 106.854, 186.812 107.597, 183.803 108.391, 180.592 107.744, 184.030 107.166, 187.100 106.986, 188.056 106.930, 188.481 106.820, 189.324 106.345, 192.316 106.082, 193.974 106.386, 197.281 106.473, 198.227 106.486, 198.370 107.132, 205.414 107.147, 205.575 107.185, 205.989 107.469, 209.078 107.615, 209.422 116.183, 214.578 116.647, 214.857 121.496, 218.118 125.280, 218.793 130.299, 219.017 140.283, 218.464 146.924, 218.096 150.430, 217.578 152.313, 217.093 158.848, 210.735 164.021, 206.648 167.010, 200.417 168.421, 193.182 167.379, 190.436 167.291, 190.316 166.863, 189.730 163.477, 185.091 160.469, 178.049 158.945, 174.481 155.231, 171.102 152.142, 167.336 " />
            <path fill="none" stroke-width="3.0" stroke-linecap="butt" stroke-opacity="1.0" stroke="rgb(0, 0, 0)" stroke-linejoin="round" d=" M 107.597, 183.803 106.811, 182.590 97.445, 179.087 95.969, 178.536 93.386, 175.877 87.514, 167.673 82.597, 165.814 77.916, 174.236 77.840, 176.200 77.669, 179.322 78.405, 181.813 79.372, 184.538 81.338, 188.972 82.205, 190.227 87.599, 192.037 89.031, 192.937 89.780, 193.408 90.866, 195.286 92.503, 198.522 96.399, 201.977 96.761, 202.285 97.362, 202.371 100.563, 202.511 103.287, 202.631 107.147, 205.575 " />
            <path fill="none" stroke-width="3.0" stroke-linecap="butt" stroke-opacity="1.0" stroke="rgb(0, 0, 0)" stroke-linejoin="round" d=" M 100.563, 202.511 101.786, 203.293 102.221, 203.551 106.419, 205.658 107.185, 205.989 " />
            <path fill="none" stroke-width="3.0" stroke-linecap="butt" stroke-opacity="1.0" stroke="rgb(0, 0, 0)" stroke-linejoin="round" d=" M 110.431, 133.665 110.400, 133.674 107.861, 137.008 106.598, 138.622 106.072, 141.653 105.455, 145.122 106.336, 150.317 106.564, 151.612 109.705, 155.995 109.755, 156.059 110.034, 156.424 113.826, 157.473 114.771, 157.734 115.551, 157.917 " />
            <path fill="none" stroke-width="3.0" stroke-linecap="butt" stroke-opacity="1.0" stroke="rgb(0, 0, 0)" stroke-linejoin="round" d=" M 141.772, 134.217 142.057, 131.779 142.247, 130.283 143.348, 128.219 " />
            <path fill="none" stroke-width="3.0" stroke-linecap="butt" stroke-opacity="1.0" stroke="rgb(0, 0, 0)" stroke-linejoin="round" d=" M 140.081, 156.620 144.893, 157.433 145.207, 157.333 145.734, 157.100 149.110, 154.424 149.877, 153.936 150.623, 152.794 152.199, 150.382 152.802, 149.508 154.392, 144.305 154.587, 143.636 154.554, 143.094 154.560, 138.678 154.501, 138.255 154.458, 137.951 154.425, 137.708 154.392, 137.519 152.081, 135.000 150.457, 133.316 150.312, 133.292 150.264, 133.284 149.849, 133.216 149.288, 133.124 148.437, 132.975 " />
            <path fill="none" stroke-width="3.0" stroke-linecap="butt" stroke-opacity="1.0" stroke="rgb(0, 0, 0)" stroke-linejoin="round" d=" M 167.291, 190.316 167.697, 189.752 174.408, 186.421 174.994, 185.783 176.382, 181.681 176.930, 180.947 178.368, 177.026 178.852, 175.815 179.153, 172.599 179.255, 170.965 178.642, 169.322 175.663, 161.334 170.483, 167.283 165.007, 175.161 162.015, 176.604 160.469, 178.049 " />
            <path fill="none" stroke-width="3.0" stroke-linecap="butt" stroke-opacity="1.0" stroke="rgb(0, 0, 0)" stroke-linejoin="round" d=" M 178.642, 169.322 178.838, 168.959 179.310, 165.650 179.678, 155.657 179.757, 153.515 182.603, 148.477 183.157, 147.139 184.638, 141.235 182.107, 134.217 " />
            <path fill="none" stroke-width="3.0" stroke-linecap="butt" stroke-opacity="1.0" stroke="rgb(0, 0, 0)" stroke-linejoin="round" d=" M 182.710, 117.250 184.250, 115.384 188.676, 107.775 192.399, 98.494 193.749, 95.126 194.581, 90.051 196.446, 83.355 193.529, 73.790 190.888, 65.132 188.392, 61.400 185.205, 55.794 178.039, 48.819 177.258, 48.059 171.149, 42.109 " />
            <path fill="none" stroke-width="3.0" stroke-linecap="butt" stroke-opacity="1.0" stroke="rgb(0, 0, 0)" stroke-linejoin="round" d=" M 182.385, 120.829 191.454, 125.042 194.728, 126.563 " />
        </g>
    </g>
</svg>
