<?xml version='1.0' encoding='ascii'?>
<svg xmlns="http://www.w3.org/2000/svg" version="1.1" width="250" height="250">
    <g id="ViewLayer_LineSet" xmlns:inkscape="http://www.inkscape.org/namespaces/inkscape" inkscape:groupmode="lineset" inkscape:label="ViewLayer_LineSet">
        <g xmlns:inkscape="http://www.inkscape.org/namespaces/inkscape" inkscape:groupmode="layer" id="strokes" inkscape:label="strokes">
            <path fill="none" stroke-width="3.0" stroke-linecap="butt" stroke-opacity="1.0" stroke="rgb(0, 0, 0)" stroke-linejoin="round" d=" M 124.248, 136.129 126.040, 133.556 126.743, 132.563 127.880, 127.048 128.183, 125.261 127.969, 123.194 127.307, 117.978 125.850, 115.670 123.940, 112.606 121.277, 111.675 117.983, 110.567 113.842, 111.951 " />
            <path fill="none" stroke-width="3.0" stroke-linecap="butt" stroke-opacity="1.0" stroke="rgb(0, 0, 0)" stroke-linejoin="round" d=" M 158.896, 96.761 158.743, 96.395 150.811, 90.305 148.717, 88.697 " />
            <path fill="none" stroke-width="3.0" stroke-linecap="butt" stroke-opacity="1.0" stroke="rgb(0, 0, 0)" stroke-linejoin="round" d=" M 71.838, 104.731 76.038, 95.656 76.682, 94.265 " />
            <path fill="none" stroke-width="3.0" stroke-linecap="butt" stroke-opacity="1.0" stroke="rgb(0, 0, 0)" stroke-linejoin="round" d=" M 184.178, 146.428 188.710, 148.762 187.522, 140.399 187.383, 139.419 188.519, 137.274 188.452, 138.723 187.522, 140.399 " />
            <path fill="none" stroke-width="3.0" stroke-linecap="butt" stroke-opacity="1.0" stroke="rgb(0, 0, 0)" stroke-linejoin="round" d=" M 134.185, 107.942 137.433, 116.059 137.368, 117.168 137.291, 127.209 134.466, 133.882 133.912, 134.777 129.303, 139.665 128.756, 139.822 128.754, 139.823 127.082, 139.877 " />
            <path fill="none" stroke-width="3.0" stroke-linecap="butt" stroke-opacity="1.0" stroke="rgb(0, 0, 0)" stroke-linejoin="round" d=" M 104.294, 192.574 111.005, 192.671 113.087, 192.701 116.297, 190.396 117.451, 189.567 119.964, 187.762 " />
            <path fill="none" stroke-width="3.0" stroke-linecap="butt" stroke-opacity="1.0" stroke="rgb(0, 0, 0)" stroke-linejoin="round" d=" M 74.462, 187.696 76.878, 188.424 80.000, 189.365 80.230, 189.434 84.467, 187.557 86.784, 186.530 " />
            <path fill="none" stroke-width="3.0" stroke-linecap="butt" stroke-opacity="1.0" stroke="rgb(0, 0, 0)" stroke-linejoin="round" d=" M 69.230, 105.894 69.916, 104.644 70.234, 104.065 72.770, 99.446 76.240, 94.535 76.682, 94.265 82.043, 90.993 87.335, 91.309 " />
            <path fill="none" stroke-width="3.0" stroke-linecap="butt" stroke-opacity="1.0" stroke="rgb(0, 0, 0)" stroke-linejoin="round" d=" M 94.512, 101.846 92.356, 94.352 90.588, 87.259 87.104, 83.850 " />
            <path fill="none" stroke-width="3.0" stroke-linecap="butt" stroke-opacity="1.0" stroke="rgb(0, 0, 0)" stroke-linejoin="round" d=" M 108.609, 92.079 106.687, 101.892 106.661, 102.028 111.558, 95.476 117.338, 91.132 127.321, 90.564 127.481, 90.555 136.857, 94.032 137.323, 94.205 142.598, 99.508 147.584, 106.680 147.903, 98.059 144.267, 90.971 " />
            <path fill="none" stroke-width="3.0" stroke-linecap="butt" stroke-opacity="1.0" stroke="rgb(0, 0, 0)" stroke-linejoin="round" d=" M 116.918, 139.498 123.070, 137.853 " />
            <path fill="none" stroke-width="3.0" stroke-linecap="butt" stroke-opacity="1.0" stroke="rgb(0, 0, 0)" stroke-linejoin="round" d=" M 133.845, 107.099 127.160, 101.489 117.248, 102.556 114.293, 107.614 113.842, 111.951 " />
            <path fill="none" stroke-width="3.0" stroke-linecap="butt" stroke-opacity="1.0" stroke="rgb(0, 0, 0)" stroke-linejoin="round" d=" M 94.819, 103.660 89.104, 102.610 85.614, 107.964 83.132, 115.815 82.649, 125.746 82.928, 129.178 " />
            <path fill="none" stroke-width="3.0" stroke-linecap="butt" stroke-opacity="1.0" stroke="rgb(0, 0, 0)" stroke-linejoin="round" d=" M 117.511, 140.190 127.082, 139.877 " />
            <path fill="none" stroke-width="3.0" stroke-linecap="butt" stroke-opacity="1.0" stroke="rgb(0, 0, 0)" stroke-linejoin="round" d=" M 195.446, 134.349 203.344, 128.216 205.377, 126.638 206.451, 128.334 208.015, 122.835 208.801, 119.664 205.892, 110.096 202.983, 100.528 202.030, 97.391 199.985, 87.602 198.700, 81.451 193.344, 73.006 187.987, 64.562 185.582, 60.770 180.665, 55.123 179.032, 52.118 171.465, 45.581 163.897, 39.044 162.325, 37.686 155.918, 32.216 146.820, 28.065 137.723, 23.913 135.724, 23.001 135.351, 22.978 133.236, 23.035 123.371, 24.674 113.506, 26.313 103.641, 27.953 100.838, 28.418 96.072, 29.248 88.287, 35.524 86.447, 37.007 79.194, 43.891 76.860, 46.107 74.971, 49.710 71.228, 55.660 68.494, 65.279 67.504, 68.763 67.580, 70.475 " />
            <path fill="none" stroke-width="3.0" stroke-linecap="butt" stroke-opacity="1.0" stroke="rgb(0, 0, 0)" stroke-linejoin="round" d=" M 76.074, 121.912 75.686, 121.008 74.032, 117.154 74.018, 117.126 74.019, 117.147 74.022, 117.202 74.023, 117.212 74.004, 117.286 73.251, 127.258 73.064, 129.747 " />
            <path fill="none" stroke-width="3.0" stroke-linecap="butt" stroke-opacity="1.0" stroke="rgb(0, 0, 0)" stroke-linejoin="round" d=" M 82.209, 190.832 78.066, 192.439 81.489, 196.536 82.435, 197.485 86.841, 202.200 93.938, 208.810 94.333, 209.148 97.171, 210.454 101.491, 210.387 107.028, 210.762 110.701, 214.259 110.572, 213.837 114.071, 215.400 120.936, 213.788 130.926, 213.349 132.229, 213.292 135.550, 212.618 144.748, 208.695 145.845, 208.227 146.168, 207.892 147.888, 206.762 155.869, 200.737 163.433, 195.026 169.430, 188.994 169.457, 188.952 174.530, 181.140 177.482, 178.034 178.860, 176.584 179.540, 175.869 180.197, 174.743 180.697, 174.914 189.678, 174.791 192.130, 174.758 201.355, 170.897 204.303, 169.664 205.634, 168.512 206.201, 168.159 209.473, 158.709 209.864, 157.580 210.230, 155.696 209.166, 149.291 205.432, 140.213 204.417, 138.333 200.873, 135.140 198.096, 134.370 195.446, 134.349 " />
            <path fill="none" stroke-width="3.0" stroke-linecap="butt" stroke-opacity="1.0" stroke="rgb(0, 0, 0)" stroke-linejoin="round" d=" M 82.523, 69.601 72.540, 70.185 67.580, 70.475 66.147, 70.559 63.466, 70.732 55.488, 76.762 55.382, 76.843 46.703, 81.812 45.493, 82.505 45.386, 84.957 54.572, 88.908 63.758, 92.859 68.191, 94.766 66.571, 97.567 69.514, 103.793 " />
            <path fill="none" stroke-width="3.0" stroke-linecap="butt" stroke-opacity="1.0" stroke="rgb(0, 0, 0)" stroke-linejoin="round" d=" M 69.916, 104.644 70.087, 105.005 70.392, 104.957 71.838, 104.731 " />
            <path fill="none" stroke-width="3.0" stroke-linecap="butt" stroke-opacity="1.0" stroke="rgb(0, 0, 0)" stroke-linejoin="round" d=" M 116.297, 190.396 118.107, 190.874 119.390, 190.440 121.484, 190.118 121.495, 191.302 121.496, 191.393 120.084, 191.241 121.495, 191.302 122.204, 191.332 121.859, 195.045 " />
            <path fill="none" stroke-width="3.0" stroke-linecap="butt" stroke-opacity="1.0" stroke="rgb(0, 0, 0)" stroke-linejoin="round" d=" M 86.874, 131.666 89.842, 129.469 89.912, 129.416 90.374, 129.381 92.565, 129.916 94.421, 130.369 94.844, 130.472 94.420, 130.387 92.603, 130.023 89.842, 129.469 89.271, 129.354 86.764, 128.957 86.635, 128.964 84.775, 129.071 82.928, 129.178 73.064, 129.747 67.735, 130.054 63.063, 130.370 62.537, 130.505 61.702, 130.728 54.493, 137.659 54.356, 137.791 53.852, 142.800 48.946, 151.600 47.979, 154.911 48.754, 159.567 53.522, 167.526 56.801, 173.795 63.286, 178.025 63.291, 178.028 64.582, 178.583 65.226, 178.692 71.604, 179.768 78.423, 180.918 81.946, 180.714 86.176, 180.470 89.104, 179.790 98.396, 176.095 100.184, 175.384 " />
            <path fill="none" stroke-width="3.0" stroke-linecap="butt" stroke-opacity="1.0" stroke="rgb(0, 0, 0)" stroke-linejoin="round" d=" M 63.286, 178.025 63.882, 178.941 64.420, 179.708 65.951, 180.225 66.469, 180.305 69.476, 180.769 71.290, 183.581 72.262, 185.086 74.155, 187.518 74.410, 187.607 74.916, 187.786 76.878, 188.424 " />
            <path fill="none" stroke-width="3.0" stroke-linecap="butt" stroke-opacity="1.0" stroke="rgb(0, 0, 0)" stroke-linejoin="round" d=" M 68.805, 93.914 68.037, 96.654 68.216, 99.371 69.590, 103.232 " />
            <path fill="none" stroke-width="3.0" stroke-linecap="butt" stroke-opacity="1.0" stroke="rgb(0, 0, 0)" stroke-linejoin="round" d=" M 70.392, 104.957 70.558, 105.888 73.485, 115.450 74.022, 117.202 " />
            <path fill="none" stroke-width="3.0" stroke-linecap="butt" stroke-opacity="1.0" stroke="rgb(0, 0, 0)" stroke-linejoin="round" d=" M 84.467, 187.557 85.185, 188.365 89.367, 191.312 98.350, 193.398 105.098, 195.189 108.124, 194.205 111.005, 192.671 " />
            <path fill="none" stroke-width="3.0" stroke-linecap="butt" stroke-opacity="1.0" stroke="rgb(0, 0, 0)" stroke-linejoin="round" d=" M 87.335, 91.309 87.539, 91.871 87.973, 93.995 92.251, 98.062 " />
            <path fill="none" stroke-width="3.0" stroke-linecap="butt" stroke-opacity="1.0" stroke="rgb(0, 0, 0)" stroke-linejoin="round" d=" M 90.541, 184.865 90.551, 184.868 90.807, 185.255 94.881, 187.092 101.421, 190.773 " />
            <path fill="none" stroke-width="3.0" stroke-linecap="butt" stroke-opacity="1.0" stroke="rgb(0, 0, 0)" stroke-linejoin="round" d=" M 93.657, 110.379 92.117, 109.932 91.026, 110.148 89.943, 110.515 88.137, 112.686 87.411, 113.223 85.990, 116.566 85.295, 118.085 84.829, 121.658 84.547, 123.917 84.652, 126.202 84.775, 129.071 " />
            <path fill="none" stroke-width="3.0" stroke-linecap="butt" stroke-opacity="1.0" stroke="rgb(0, 0, 0)" stroke-linejoin="round" d=" M 95.255, 105.530 95.253, 106.120 94.589, 110.645 94.588, 110.650 94.560, 110.839 93.881, 120.816 93.580, 125.236 92.286, 129.137 92.565, 129.916 " />
            <path fill="none" stroke-width="3.0" stroke-linecap="butt" stroke-opacity="1.0" stroke="rgb(0, 0, 0)" stroke-linejoin="round" d=" M 117.451, 189.567 119.461, 187.338 119.786, 187.370 121.447, 187.532 125.416, 187.287 126.664, 187.210 128.605, 185.482 131.562, 183.079 132.528, 181.049 134.644, 176.282 138.740, 175.220 143.160, 173.164 144.348, 170.924 147.655, 167.660 148.248, 165.943 149.999, 161.520 149.984, 160.039 149.686, 155.262 145.189, 146.330 144.922, 145.801 143.396, 142.711 138.251, 146.447 130.751, 153.062 128.232, 155.283 118.655, 158.161 114.380, 159.446 107.382, 161.414 " />
            <path fill="none" stroke-width="3.0" stroke-linecap="butt" stroke-opacity="1.0" stroke="rgb(0, 0, 0)" stroke-linejoin="round" d=" M 169.457, 188.952 171.421, 189.340 173.401, 189.903 177.016, 190.328 180.883, 189.075 189.028, 183.273 190.018, 182.568 191.770, 180.056 191.876, 178.397 189.678, 174.791 " />
            <path fill="none" stroke-width="3.0" stroke-linecap="butt" stroke-opacity="1.0" stroke="rgb(0, 0, 0)" stroke-linejoin="round" d=" M 178.860, 176.584 178.954, 177.032 177.482, 178.034 " />
        </g>
    </g>
</svg>
