<?xml version='1.0' encoding='ascii'?>
<svg xmlns="http://www.w3.org/2000/svg" version="1.1" width="250" height="250">
    <g id="ViewLayer_LineSet" xmlns:inkscape="http://www.inkscape.org/namespaces/inkscape" inkscape:groupmode="lineset" inkscape:label="ViewLayer_LineSet">
        <g xmlns:inkscape="http://www.inkscape.org/namespaces/inkscape" inkscape:groupmode="layer" id="strokes" inkscape:label="strokes">
            <path fill="none" stroke-width="3.0" stroke-linecap="butt" stroke-opacity="1.0" stroke="rgb(0, 0, 0)" stroke-linejoin="round" d=" M 191.620, 122.978 198.793, 116.011 199.514, 115.311 204.469, 109.233 205.056, 103.354 201.149, 94.149 198.988, 89.058 196.455, 79.384 195.528, 75.843 189.519, 67.850 189.069, 67.252 181.485, 60.734 178.117, 57.839 173.306, 50.947 165.074, 45.270 162.710, 43.639 154.334, 38.177 147.031, 33.416 139.196, 30.770 129.199, 30.973 125.346, 31.051 115.359, 31.559 105.372, 32.067 101.921, 32.242 93.514, 32.799 85.286, 33.397 76.716, 38.549 70.693, 42.170 69.764, 43.053 69.228, 43.676 64.793, 52.639 61.581, 59.130 56.388, 67.676 55.759, 68.711 54.485, 75.439 56.828, 85.161 57.746, 88.971 59.636, 97.619 62.560, 105.098 64.211, 108.104 " />
            <path fill="none" stroke-width="3.0" stroke-linecap="butt" stroke-opacity="1.0" stroke="rgb(0, 0, 0)" stroke-linejoin="round" d=" M 191.212, 148.878 191.758, 147.149 190.935, 142.759 188.368, 133.094 188.252, 132.657 188.915, 129.779 189.848, 125.731 189.436, 128.506 188.915, 129.779 " />
            <path fill="none" stroke-width="3.0" stroke-linecap="butt" stroke-opacity="1.0" stroke="rgb(0, 0, 0)" stroke-linejoin="round" d=" M 125.914, 118.724 130.655, 117.804 132.689, 118.778 138.575, 122.290 139.233, 123.378 143.099, 129.830 143.110, 129.847 143.135, 130.167 143.313, 131.898 " />
            <path fill="none" stroke-width="3.0" stroke-linecap="butt" stroke-opacity="1.0" stroke="rgb(0, 0, 0)" stroke-linejoin="round" d=" M 131.834, 205.875 132.072, 205.674 137.242, 201.304 " />
            <path fill="none" stroke-width="3.0" stroke-linecap="butt" stroke-opacity="1.0" stroke="rgb(0, 0, 0)" stroke-linejoin="round" d=" M 69.163, 122.264 70.624, 119.405 72.094, 116.527 75.349, 112.421 " />
            <path fill="none" stroke-width="3.0" stroke-linecap="butt" stroke-opacity="1.0" stroke="rgb(0, 0, 0)" stroke-linejoin="round" d=" M 98.792, 124.002 95.419, 117.240 " />
            <path fill="none" stroke-width="3.0" stroke-linecap="butt" stroke-opacity="1.0" stroke="rgb(0, 0, 0)" stroke-linejoin="round" d=" M 147.947, 117.298 153.747, 123.641 153.040, 115.128 " />
            <path fill="none" stroke-width="3.0" stroke-linecap="butt" stroke-opacity="1.0" stroke="rgb(0, 0, 0)" stroke-linejoin="round" d=" M 112.578, 114.573 111.772, 123.758 " />
            <path fill="none" stroke-width="3.0" stroke-linecap="butt" stroke-opacity="1.0" stroke="rgb(0, 0, 0)" stroke-linejoin="round" d=" M 129.113, 128.855 127.545, 128.540 122.955, 127.617 119.177, 129.245 " />
            <path fill="none" stroke-width="3.0" stroke-linecap="butt" stroke-opacity="1.0" stroke="rgb(0, 0, 0)" stroke-linejoin="round" d=" M 121.243, 119.825 118.983, 125.081 119.177, 129.245 " />
            <path fill="none" stroke-width="3.0" stroke-linecap="butt" stroke-opacity="1.0" stroke="rgb(0, 0, 0)" stroke-linejoin="round" d=" M 89.932, 117.987 86.271, 121.477 84.694, 128.433 85.930, 137.805 88.103, 144.975 92.844, 149.740 " />
            <path fill="none" stroke-width="3.0" stroke-linecap="butt" stroke-opacity="1.0" stroke="rgb(0, 0, 0)" stroke-linejoin="round" d=" M 127.912, 153.911 137.377, 151.517 141.913, 146.699 144.099, 139.494 143.099, 129.830 " />
            <path fill="none" stroke-width="3.0" stroke-linecap="butt" stroke-opacity="1.0" stroke="rgb(0, 0, 0)" stroke-linejoin="round" d=" M 145.375, 199.402 145.743, 201.427 138.174, 201.900 138.595, 201.314 " />
            <path fill="none" stroke-width="3.0" stroke-linecap="butt" stroke-opacity="1.0" stroke="rgb(0, 0, 0)" stroke-linejoin="round" d=" M 180.528, 170.673 182.308, 160.833 182.407, 160.286 192.443, 160.795 194.187, 160.585 200.968, 153.236 202.410, 151.673 204.874, 149.411 207.310, 140.993 207.681, 137.832 206.770, 132.745 202.866, 123.545 202.585, 123.173 201.918, 122.506 199.133, 122.240 193.615, 122.460 192.717, 122.951 " />
            <path fill="none" stroke-width="3.0" stroke-linecap="butt" stroke-opacity="1.0" stroke="rgb(0, 0, 0)" stroke-linejoin="round" d=" M 186.113, 154.192 187.179, 155.827 191.212, 148.878 " />
            <path fill="none" stroke-width="3.0" stroke-linecap="butt" stroke-opacity="1.0" stroke="rgb(0, 0, 0)" stroke-linejoin="round" d=" M 94.436, 156.336 88.820, 158.623 81.419, 164.851 75.636, 168.851 72.268, 171.182 71.068, 173.154 70.169, 174.633 68.350, 176.179 69.885, 181.820 69.527, 183.131 68.486, 186.947 68.350, 192.791 70.060, 197.039 74.798, 201.541 80.558, 208.219 83.051, 208.983 88.652, 210.191 98.576, 211.424 101.154, 211.744 108.516, 211.622 113.620, 211.137 115.837, 210.926 117.302, 210.093 119.491, 209.102 120.611, 207.396 121.594, 205.900 122.638, 204.313 127.920, 196.274 128.809, 191.755 129.233, 189.597 129.281, 189.352 129.840, 186.513 " />
            <path fill="none" stroke-width="3.0" stroke-linecap="butt" stroke-opacity="1.0" stroke="rgb(0, 0, 0)" stroke-linejoin="round" d=" M 64.211, 108.104 63.942, 108.163 54.084, 109.842 53.784, 109.893 52.814, 109.784 45.039, 115.834 54.818, 113.746 64.598, 111.658 65.076, 111.556 " />
            <path fill="none" stroke-width="3.0" stroke-linecap="butt" stroke-opacity="1.0" stroke="rgb(0, 0, 0)" stroke-linejoin="round" d=" M 67.127, 113.411 66.677, 114.160 66.436, 114.576 68.994, 119.628 " />
            <path fill="none" stroke-width="3.0" stroke-linecap="butt" stroke-opacity="1.0" stroke="rgb(0, 0, 0)" stroke-linejoin="round" d=" M 72.216, 127.012 72.160, 127.790 72.099, 128.637 72.064, 128.696 66.923, 137.273 66.684, 137.671 65.404, 140.508 65.425, 142.561 66.807, 146.780 67.631, 150.755 68.583, 152.482 68.190, 156.471 " />
            <path fill="none" stroke-width="3.0" stroke-linecap="butt" stroke-opacity="1.0" stroke="rgb(0, 0, 0)" stroke-linejoin="round" d=" M 75.636, 168.851 70.482, 160.282 68.190, 156.471 67.477, 155.286 66.969, 156.816 63.725, 166.108 64.028, 170.100 64.075, 171.138 65.461, 175.503 65.756, 176.384 67.196, 181.090 68.357, 182.512 69.527, 183.131 " />
            <path fill="none" stroke-width="3.0" stroke-linecap="butt" stroke-opacity="1.0" stroke="rgb(0, 0, 0)" stroke-linejoin="round" d=" M 83.420, 110.870 86.712, 112.203 89.575, 116.815 89.821, 117.242 92.622, 118.991 " />
            <path fill="none" stroke-width="3.0" stroke-linecap="butt" stroke-opacity="1.0" stroke="rgb(0, 0, 0)" stroke-linejoin="round" d=" M 95.416, 126.683 93.168, 127.240 90.546, 128.097 90.132, 128.727 89.323, 129.951 88.770, 132.797 88.556, 133.491 88.947, 137.980 89.061, 139.563 89.549, 141.357 90.738, 145.531 91.531, 146.693 93.539, 150.108 93.635, 150.271 94.264, 150.635 95.931, 152.106 97.746, 152.584 98.465, 152.716 99.561, 152.917 99.726, 152.873 " />
            <path fill="none" stroke-width="3.0" stroke-linecap="butt" stroke-opacity="1.0" stroke="rgb(0, 0, 0)" stroke-linejoin="round" d=" M 98.174, 123.257 98.950, 125.071 99.126, 127.280 " />
            <path fill="none" stroke-width="3.0" stroke-linecap="butt" stroke-opacity="1.0" stroke="rgb(0, 0, 0)" stroke-linejoin="round" d=" M 115.549, 118.249 116.148, 117.443 121.238, 112.469 121.333, 112.376 " />
            <path fill="none" stroke-width="3.0" stroke-linecap="butt" stroke-opacity="1.0" stroke="rgb(0, 0, 0)" stroke-linejoin="round" d=" M 113.620, 211.137 118.514, 212.618 120.368, 213.091 122.042, 213.042 129.582, 212.432 130.609, 212.062 138.619, 208.644 142.088, 207.042 143.495, 205.198 146.687, 201.231 149.199, 197.846 151.209, 196.821 160.917, 194.422 169.247, 192.364 173.222, 187.281 178.837, 179.007 179.934, 177.390 182.539, 170.673 182.965, 168.262 184.458, 161.984 182.841, 161.490 " />
            <path fill="none" stroke-width="3.0" stroke-linecap="butt" stroke-opacity="1.0" stroke="rgb(0, 0, 0)" stroke-linejoin="round" d=" M 120.611, 207.396 121.502, 207.663 125.735, 206.978 131.135, 205.947 " />
            <path fill="none" stroke-width="3.0" stroke-linecap="butt" stroke-opacity="1.0" stroke="rgb(0, 0, 0)" stroke-linejoin="round" d=" M 127.912, 153.911 129.161, 153.463 132.273, 152.177 133.412, 150.181 135.171, 147.069 135.376, 143.565 135.472, 140.229 134.794, 137.725 133.560, 133.629 132.252, 132.217 129.206, 128.885 129.125, 128.868 128.688, 128.778 127.545, 128.540 " />
            <path fill="none" stroke-width="3.0" stroke-linecap="butt" stroke-opacity="1.0" stroke="rgb(0, 0, 0)" stroke-linejoin="round" d=" M 132.072, 205.674 136.807, 201.301 137.242, 201.304 138.595, 201.314 141.624, 201.337 143.574, 201.134 145.375, 199.402 146.173, 198.635 147.791, 197.230 149.039, 194.381 150.226, 191.680 155.771, 189.754 158.114, 188.349 159.322, 185.193 161.287, 182.806 161.968, 180.325 163.036, 177.134 162.905, 175.286 162.539, 171.613 157.400, 163.034 155.744, 160.272 155.573, 159.985 155.243, 160.305 148.848, 167.993 142.988, 175.039 134.423, 178.096 131.836, 179.019 " />
        </g>
    </g>
</svg>
