<?xml version='1.0' encoding='ascii'?>
<svg xmlns="http://www.w3.org/2000/svg" version="1.1" width="250" height="250">
    <g id="ViewLayer_LineSet" xmlns:inkscape="http://www.inkscape.org/namespaces/inkscape" inkscape:groupmode="lineset" inkscape:label="ViewLayer_LineSet">
        <g xmlns:inkscape="http://www.inkscape.org/namespaces/inkscape" inkscape:groupmode="layer" id="strokes" inkscape:label="strokes">
            <path fill="none" stroke-width="3.0" stroke-linecap="butt" stroke-opacity="1.0" stroke="rgb(0, 0, 0)" stroke-linejoin="round" d=" M 192.422, 118.600 199.481, 111.518 206.541, 104.436 207.583, 103.391 207.962, 102.791 208.096, 101.881 202.944, 93.310 198.383, 85.723 194.045, 77.161 187.303, 69.776 185.369, 67.658 176.925, 62.302 173.871, 60.365 166.659, 53.437 162.266, 49.216 159.840, 47.956 150.762, 43.761 145.194, 41.188 135.717, 37.995 132.636, 36.957 128.124, 36.504 118.164, 37.394 112.398, 37.910 102.447, 38.896 101.596, 38.980 91.631, 39.816 87.317, 40.178 77.383, 41.328 73.586, 41.767 65.464, 47.602 59.865, 51.625 59.431, 52.150 59.070, 52.574 55.957, 62.077 54.137, 67.634 50.097, 76.782 49.292, 78.606 50.443, 83.231 54.612, 92.320 56.292, 95.985 59.378, 101.047 65.240, 109.149 66.708, 111.178 70.095, 113.792 63.765, 115.490 59.210, 119.123 52.361, 123.324 47.349, 125.688 42.536, 129.203 40.915, 133.078 49.591, 128.106 51.459, 127.036 60.573, 122.922 64.775, 121.025 " />
            <path fill="none" stroke-width="3.0" stroke-linecap="butt" stroke-opacity="1.0" stroke="rgb(0, 0, 0)" stroke-linejoin="round" d=" M 192.191, 147.038 192.536, 146.037 192.176, 143.686 192.104, 143.381 189.827, 133.644 189.123, 130.635 189.425, 128.961 189.946, 126.077 190.190, 124.726 190.305, 126.554 190.307, 126.586 189.425, 128.961 " />
            <path fill="none" stroke-width="3.0" stroke-linecap="butt" stroke-opacity="1.0" stroke="rgb(0, 0, 0)" stroke-linejoin="round" d=" M 133.289, 207.335 137.154, 204.062 " />
            <path fill="none" stroke-width="3.0" stroke-linecap="butt" stroke-opacity="1.0" stroke="rgb(0, 0, 0)" stroke-linejoin="round" d=" M 128.971, 140.827 124.422, 136.751 " />
            <path fill="none" stroke-width="3.0" stroke-linecap="butt" stroke-opacity="1.0" stroke="rgb(0, 0, 0)" stroke-linejoin="round" d=" M 85.649, 139.988 86.301, 142.234 88.986, 148.996 " />
            <path fill="none" stroke-width="3.0" stroke-linecap="butt" stroke-opacity="1.0" stroke="rgb(0, 0, 0)" stroke-linejoin="round" d=" M 130.072, 157.691 135.546, 155.938 139.310, 151.766 140.537, 146.129 " />
            <path fill="none" stroke-width="3.0" stroke-linecap="butt" stroke-opacity="1.0" stroke="rgb(0, 0, 0)" stroke-linejoin="round" d=" M 75.951, 125.815 76.151, 127.978 73.613, 133.257 71.826, 139.038 71.261, 139.834 73.413, 145.270 74.235, 150.180 74.378, 150.474 74.013, 156.378 72.865, 164.789 76.779, 173.597 " />
            <path fill="none" stroke-width="3.0" stroke-linecap="butt" stroke-opacity="1.0" stroke="rgb(0, 0, 0)" stroke-linejoin="round" d=" M 93.081, 164.097 86.580, 168.314 80.447, 174.653 78.644, 176.219 78.140, 176.658 72.492, 181.561 69.966, 183.755 68.506, 186.111 67.531, 187.087 69.766, 194.007 68.913, 201.563 69.194, 205.171 70.442, 207.333 72.981, 209.463 79.411, 217.008 81.318, 218.257 83.874, 218.965 93.817, 220.033 101.352, 220.843 105.121, 220.934 109.980, 220.229 114.481, 217.913 118.818, 216.215 122.556, 209.504 123.523, 207.768 123.709, 207.434 125.538, 204.149 125.895, 203.509 127.339, 197.110 127.775, 195.175 128.049, 194.708 " />
            <path fill="none" stroke-width="3.0" stroke-linecap="butt" stroke-opacity="1.0" stroke="rgb(0, 0, 0)" stroke-linejoin="round" d=" M 150.093, 200.986 150.195, 201.097 149.991, 201.125 145.800, 201.695 " />
            <path fill="none" stroke-width="3.0" stroke-linecap="butt" stroke-opacity="1.0" stroke="rgb(0, 0, 0)" stroke-linejoin="round" d=" M 131.251, 208.308 133.990, 208.170 136.145, 207.501 142.043, 205.253 145.951, 203.907 146.166, 203.696 149.119, 202.312 149.991, 201.125 150.093, 200.986 151.853, 198.591 160.058, 192.875 160.547, 192.534 170.269, 190.192 171.229, 189.960 176.447, 183.151 181.882, 174.757 182.137, 174.364 185.309, 165.283 185.378, 164.752 185.400, 164.585 185.424, 164.402 185.368, 164.500 185.400, 164.585 185.434, 164.671 185.378, 164.752 183.398, 167.650 185.382, 157.849 186.033, 154.632 194.452, 154.350 198.475, 153.184 205.385, 145.955 206.964, 144.302 209.361, 141.948 211.969, 133.109 212.147, 130.675 211.071, 124.873 207.607, 118.095 204.182, 116.906 196.830, 117.757 194.626, 119.106 192.422, 118.600 " />
            <path fill="none" stroke-width="3.0" stroke-linecap="butt" stroke-opacity="1.0" stroke="rgb(0, 0, 0)" stroke-linejoin="round" d=" M 188.283, 146.928 189.885, 151.200 192.191, 147.038 " />
            <path fill="none" stroke-width="3.0" stroke-linecap="butt" stroke-opacity="1.0" stroke="rgb(0, 0, 0)" stroke-linejoin="round" d=" M 76.779, 173.597 76.583, 173.291 71.364, 164.761 69.509, 161.731 67.610, 170.420 68.543, 174.712 68.573, 174.888 70.457, 179.037 70.706, 179.514 72.492, 181.561 " />
            <path fill="none" stroke-width="3.0" stroke-linecap="butt" stroke-opacity="1.0" stroke="rgb(0, 0, 0)" stroke-linejoin="round" d=" M 87.776, 142.227 88.146, 143.740 88.598, 145.826 89.614, 148.322 90.468, 150.336 90.732, 150.958 92.077, 152.645 93.634, 154.830 94.873, 155.632 98.008, 158.193 98.402, 158.364 98.855, 158.229 102.363, 157.214 " />
            <path fill="none" stroke-width="3.0" stroke-linecap="butt" stroke-opacity="1.0" stroke="rgb(0, 0, 0)" stroke-linejoin="round" d=" M 94.352, 134.152 95.291, 140.167 98.261, 149.716 99.021, 152.158 100.221, 156.050 100.278, 156.238 " />
            <path fill="none" stroke-width="3.0" stroke-linecap="butt" stroke-opacity="1.0" stroke="rgb(0, 0, 0)" stroke-linejoin="round" d=" M 113.989, 155.098 118.562, 159.275 122.403, 159.906 124.629, 160.331 125.887, 159.805 129.980, 157.898 130.072, 157.691 130.811, 156.033 132.136, 153.108 131.843, 148.450 131.695, 146.800 131.298, 145.837 129.027, 140.878 128.973, 140.832 128.719, 140.609 127.866, 139.836 " />
            <path fill="none" stroke-width="3.0" stroke-linecap="butt" stroke-opacity="1.0" stroke="rgb(0, 0, 0)" stroke-linejoin="round" d=" M 122.556, 209.504 124.249, 210.153 128.284, 209.201 131.251, 208.308 131.978, 208.089 133.027, 207.362 134.046, 206.656 137.023, 204.059 137.154, 204.062 142.516, 204.196 143.271, 204.128 145.800, 201.695 145.832, 201.665 147.196, 200.502 147.858, 198.738 148.105, 198.078 148.779, 195.985 154.184, 194.202 156.152, 193.016 157.169, 190.023 159.003, 187.759 159.463, 185.712 160.480, 182.500 160.324, 181.330 159.747, 177.400 157.135, 173.797 147.725, 171.999 141.596, 179.900 140.114, 181.810 139.853, 181.896 " />
            <path fill="none" stroke-width="3.0" stroke-linecap="butt" stroke-opacity="1.0" stroke="rgb(0, 0, 0)" stroke-linejoin="round" d=" M 140.724, 145.270 140.746, 145.342 140.537, 146.129 " />
        </g>
    </g>
</svg>
