<?xml version='1.0' encoding='ascii'?>
<svg xmlns="http://www.w3.org/2000/svg" version="1.1" width="250" height="250">
    <g id="ViewLayer_LineSet" xmlns:inkscape="http://www.inkscape.org/namespaces/inkscape" inkscape:groupmode="lineset" inkscape:label="ViewLayer_LineSet">
        <g xmlns:inkscape="http://www.inkscape.org/namespaces/inkscape" inkscape:groupmode="layer" id="strokes" inkscape:label="strokes">
            <path fill="none" stroke-width="3.0" stroke-linecap="butt" stroke-opacity="1.0" stroke="rgb(0, 0, 0)" stroke-linejoin="round" d=" M 91.659, 185.997 95.016, 184.485 95.074, 184.498 95.111, 184.506 95.720, 184.816 99.284, 186.338 104.996, 189.477 " />
            <path fill="none" stroke-width="3.0" stroke-linecap="butt" stroke-opacity="1.0" stroke="rgb(0, 0, 0)" stroke-linejoin="round" d=" M 163.988, 97.051 164.130, 96.182 156.559, 89.649 148.988, 83.116 143.630, 78.492 " />
            <path fill="none" stroke-width="3.0" stroke-linecap="butt" stroke-opacity="1.0" stroke="rgb(0, 0, 0)" stroke-linejoin="round" d=" M 90.828, 67.995 91.378, 67.959 90.727, 67.984 80.739, 68.472 71.216, 68.937 68.567, 69.074 66.278, 70.633 59.017, 75.574 50.222, 80.333 49.789, 80.567 49.090, 86.410 58.166, 90.610 66.248, 94.350 67.074, 94.732 66.245, 95.808 65.134, 97.250 66.989, 103.868 67.340, 103.847 69.982, 103.684 70.471, 102.753 " />
            <path fill="none" stroke-width="3.0" stroke-linecap="butt" stroke-opacity="1.0" stroke="rgb(0, 0, 0)" stroke-linejoin="round" d=" M 190.136, 150.865 190.197, 150.632 190.121, 150.044 187.971, 140.278 187.782, 139.419 187.571, 138.460 188.983, 135.497 188.755, 137.573 187.782, 139.419 183.120, 148.266 182.992, 148.509 189.129, 151.296 189.634, 151.525 190.136, 150.865 " />
            <path fill="none" stroke-width="3.0" stroke-linecap="butt" stroke-opacity="1.0" stroke="rgb(0, 0, 0)" stroke-linejoin="round" d=" M 140.844, 121.607 140.789, 126.480 140.789, 126.484 137.755, 133.721 137.747, 133.734 137.645, 133.909 137.642, 133.914 132.605, 139.110 132.601, 139.112 132.304, 139.197 130.976, 139.250 " />
            <path fill="none" stroke-width="3.0" stroke-linecap="butt" stroke-opacity="1.0" stroke="rgb(0, 0, 0)" stroke-linejoin="round" d=" M 115.949, 137.112 115.949, 137.112 116.169, 137.311 118.835, 139.713 119.071, 139.925 119.156, 140.009 119.398, 140.245 119.395, 141.272 119.156, 140.009 119.138, 139.912 118.835, 139.713 118.660, 139.598 116.162, 137.308 115.949, 137.112 115.949, 137.112 " />
            <path fill="none" stroke-width="3.0" stroke-linecap="butt" stroke-opacity="1.0" stroke="rgb(0, 0, 0)" stroke-linejoin="round" d=" M 109.358, 192.051 115.596, 192.036 118.355, 192.030 121.419, 189.792 122.625, 188.911 125.295, 186.961 " />
            <path fill="none" stroke-width="3.0" stroke-linecap="butt" stroke-opacity="1.0" stroke="rgb(0, 0, 0)" stroke-linejoin="round" d=" M 77.536, 187.803 77.663, 187.835 83.910, 189.400 87.506, 187.821 95.074, 184.498 " />
            <path fill="none" stroke-width="3.0" stroke-linecap="butt" stroke-opacity="1.0" stroke="rgb(0, 0, 0)" stroke-linejoin="round" d=" M 70.124, 105.369 73.989, 98.837 77.810, 93.862 84.252, 90.249 90.618, 90.540 " />
            <path fill="none" stroke-width="3.0" stroke-linecap="butt" stroke-opacity="1.0" stroke="rgb(0, 0, 0)" stroke-linejoin="round" d=" M 98.017, 101.046 95.854, 93.505 93.700, 86.435 89.770, 83.050 " />
            <path fill="none" stroke-width="3.0" stroke-linecap="butt" stroke-opacity="1.0" stroke="rgb(0, 0, 0)" stroke-linejoin="round" d=" M 118.684, 84.949 112.706, 91.273 110.649, 101.059 110.611, 101.240 115.688, 94.688 121.476, 90.395 131.464, 89.903 131.660, 89.893 141.021, 93.410 141.505, 93.592 146.819, 98.883 151.851, 106.016 152.067, 97.478 148.388, 90.433 " />
            <path fill="none" stroke-width="3.0" stroke-linecap="butt" stroke-opacity="1.0" stroke="rgb(0, 0, 0)" stroke-linejoin="round" d=" M 120.470, 138.872 126.671, 137.204 " />
            <path fill="none" stroke-width="3.0" stroke-linecap="butt" stroke-opacity="1.0" stroke="rgb(0, 0, 0)" stroke-linejoin="round" d=" M 140.907, 115.496 137.304, 106.535 130.574, 100.922 120.617, 101.939 117.663, 106.979 117.241, 111.325 " />
            <path fill="none" stroke-width="3.0" stroke-linecap="butt" stroke-opacity="1.0" stroke="rgb(0, 0, 0)" stroke-linejoin="round" d=" M 97.203, 103.069 90.838, 102.084 86.799, 107.540 84.070, 115.475 83.581, 125.487 83.909, 128.330 " />
            <path fill="none" stroke-width="3.0" stroke-linecap="butt" stroke-opacity="1.0" stroke="rgb(0, 0, 0)" stroke-linejoin="round" d=" M 193.861, 133.528 201.707, 127.327 207.866, 122.460 207.894, 122.588 208.022, 122.221 208.085, 122.024 205.511, 112.362 202.936, 102.699 201.247, 96.360 199.626, 86.492 199.089, 83.225 193.968, 74.636 188.847, 66.047 183.726, 57.457 182.359, 55.165 181.212, 53.807 180.829, 53.052 173.360, 46.404 165.890, 39.755 162.517, 36.753 158.129, 32.854 149.100, 28.556 140.071, 24.258 139.534, 24.002 137.503, 23.258 137.020, 23.348 127.106, 24.661 117.193, 25.975 107.279, 27.288 102.115, 27.972 97.581, 28.573 89.611, 34.613 86.994, 36.597 79.532, 43.255 78.274, 44.378 75.062, 49.969 69.455, 58.249 68.272, 59.997 66.281, 65.937 66.278, 70.633 " />
            <path fill="none" stroke-width="3.0" stroke-linecap="butt" stroke-opacity="1.0" stroke="rgb(0, 0, 0)" stroke-linejoin="round" d=" M 72.937, 126.113 72.551, 124.502 72.053, 129.123 " />
            <path fill="none" stroke-width="3.0" stroke-linecap="butt" stroke-opacity="1.0" stroke="rgb(0, 0, 0)" stroke-linejoin="round" d=" M 77.663, 187.835 85.724, 193.010 81.464, 195.376 82.984, 197.167 83.417, 197.589 88.333, 202.722 95.656, 209.041 96.481, 209.513 106.442, 210.393 107.438, 210.481 109.460, 212.753 110.222, 213.609 109.445, 212.746 " />
            <path fill="none" stroke-width="3.0" stroke-linecap="butt" stroke-opacity="1.0" stroke="rgb(0, 0, 0)" stroke-linejoin="round" d=" M 121.419, 189.792 123.214, 190.189 124.187, 189.868 125.633, 189.619 125.592, 190.361 125.583, 190.517 124.582, 190.388 125.592, 190.361 126.592, 190.334 125.740, 193.700 " />
            <path fill="none" stroke-width="3.0" stroke-linecap="butt" stroke-opacity="1.0" stroke="rgb(0, 0, 0)" stroke-linejoin="round" d=" M 95.891, 128.575 96.192, 128.575 96.293, 128.598 97.238, 128.813 101.968, 129.890 105.240, 130.635 101.957, 129.912 97.234, 128.871 96.276, 128.659 95.891, 128.575 95.176, 128.417 91.790, 127.854 88.287, 128.066 86.496, 128.174 83.909, 128.330 76.372, 128.786 72.053, 129.123 69.826, 129.296 68.681, 129.633 66.374, 130.365 59.685, 136.486 59.477, 140.410 59.385, 142.125 55.501, 148.903 55.042, 149.704 53.864, 153.956 54.650, 160.064 55.701, 161.754 58.385, 166.066 60.754, 169.874 62.929, 173.878 63.223, 174.061 63.595, 174.293 68.288, 177.214 72.201, 177.936 74.793, 178.373 84.654, 180.038 85.325, 180.151 85.492, 180.179 92.755, 179.689 95.520, 179.039 99.081, 177.575 99.595, 177.363 101.182, 176.711 108.400, 173.743 " />
            <path fill="none" stroke-width="3.0" stroke-linecap="butt" stroke-opacity="1.0" stroke="rgb(0, 0, 0)" stroke-linejoin="round" d=" M 63.701, 175.455 64.030, 179.068 64.051, 179.103 64.332, 179.278 72.748, 184.680 77.474, 187.714 " />
            <path fill="none" stroke-width="3.0" stroke-linecap="butt" stroke-opacity="1.0" stroke="rgb(0, 0, 0)" stroke-linejoin="round" d=" M 63.701, 175.455 66.089, 178.911 66.833, 179.922 68.963, 180.557 72.406, 180.973 75.305, 184.794 77.474, 187.714 77.494, 187.741 " />
            <path fill="none" stroke-width="3.0" stroke-linecap="butt" stroke-opacity="1.0" stroke="rgb(0, 0, 0)" stroke-linejoin="round" d=" M 67.340, 103.847 68.467, 111.896 70.214, 117.723 72.704, 122.452 72.407, 123.452 " />
            <path fill="none" stroke-width="3.0" stroke-linecap="butt" stroke-opacity="1.0" stroke="rgb(0, 0, 0)" stroke-linejoin="round" d=" M 77.521, 86.195 75.402, 87.844 71.351, 90.812 69.969, 93.175 69.062, 95.912 69.093, 97.307 70.547, 102.182 " />
            <path fill="none" stroke-width="3.0" stroke-linecap="butt" stroke-opacity="1.0" stroke="rgb(0, 0, 0)" stroke-linejoin="round" d=" M 77.521, 86.195 77.975, 81.507 74.854, 76.279 75.049, 71.150 84.856, 69.196 90.693, 68.034 90.750, 68.000 90.779, 67.990 90.805, 67.992 90.828, 67.995 " />
            <path fill="none" stroke-width="3.0" stroke-linecap="butt" stroke-opacity="1.0" stroke="rgb(0, 0, 0)" stroke-linejoin="round" d=" M 90.618, 90.540 90.638, 90.579 91.803, 93.388 95.372, 96.889 " />
            <path fill="none" stroke-width="3.0" stroke-linecap="butt" stroke-opacity="1.0" stroke="rgb(0, 0, 0)" stroke-linejoin="round" d=" M 87.506, 187.821 92.977, 191.530 101.466, 193.223 108.958, 194.940 112.122, 193.859 115.596, 192.036 " />
            <path fill="none" stroke-width="3.0" stroke-linecap="butt" stroke-opacity="1.0" stroke="rgb(0, 0, 0)" stroke-linejoin="round" d=" M 97.469, 110.281 94.305, 109.383 93.153, 109.651 91.745, 110.153 89.965, 112.072 89.328, 112.509 87.646, 116.221 87.021, 117.511 86.468, 121.661 86.236, 123.542 86.349, 125.432 86.496, 128.174 " />
            <path fill="none" stroke-width="3.0" stroke-linecap="butt" stroke-opacity="1.0" stroke="rgb(0, 0, 0)" stroke-linejoin="round" d=" M 97.983, 105.900 98.185, 106.300 98.160, 106.538 97.848, 109.438 97.790, 110.367 97.167, 120.347 96.760, 126.859 96.293, 128.598 " />
            <path fill="none" stroke-width="3.0" stroke-linecap="butt" stroke-opacity="1.0" stroke="rgb(0, 0, 0)" stroke-linejoin="round" d=" M 109.460, 212.753 115.627, 215.659 121.408, 214.121 131.385, 213.444 132.774, 213.350 135.683, 212.735 142.947, 209.562 146.335, 207.917 147.096, 207.574 155.081, 201.554 163.065, 195.533 163.891, 194.911 169.291, 189.528 172.240, 186.589 174.362, 182.464 177.655, 178.658 179.919, 173.862 181.472, 174.447 185.842, 174.305 191.640, 174.117 200.835, 170.186 201.858, 169.749 203.882, 167.802 204.870, 167.171 207.857, 157.627 207.973, 157.257 208.397, 154.801 207.341, 148.981 204.063, 140.604 202.987, 138.385 198.946, 134.634 195.167, 133.515 193.866, 133.525 " />
            <path fill="none" stroke-width="3.0" stroke-linecap="butt" stroke-opacity="1.0" stroke="rgb(0, 0, 0)" stroke-linejoin="round" d=" M 122.625, 188.911 124.870, 186.504 125.095, 186.522 126.995, 186.672 128.094, 186.585 132.284, 186.255 134.320, 184.394 137.156, 182.019 138.264, 179.715 140.406, 175.163 144.751, 173.984 148.958, 171.974 150.171, 169.575 153.219, 166.449 153.888, 164.442 155.445, 160.313 155.407, 158.452 155.106, 154.083 150.560, 145.141 148.870, 141.716 143.587, 145.610 136.180, 152.328 134.106, 154.210 124.540, 157.125 120.025, 158.501 112.767, 160.593 " />
            <path fill="none" stroke-width="3.0" stroke-linecap="butt" stroke-opacity="1.0" stroke="rgb(0, 0, 0)" stroke-linejoin="round" d=" M 127.241, 136.368 129.456, 133.259 130.472, 131.841 131.458, 127.062 131.884, 124.536 131.564, 121.568 131.007, 117.265 129.205, 114.479 127.571, 111.928 124.528, 110.897 121.482, 109.916 117.241, 111.325 " />
            <path fill="none" stroke-width="3.0" stroke-linecap="butt" stroke-opacity="1.0" stroke="rgb(0, 0, 0)" stroke-linejoin="round" d=" M 132.601, 139.112 137.645, 133.909 " />
            <path fill="none" stroke-width="3.0" stroke-linecap="butt" stroke-opacity="1.0" stroke="rgb(0, 0, 0)" stroke-linejoin="round" d=" M 169.291, 189.528 170.450, 189.872 174.081, 190.236 177.566, 189.002 185.432, 182.828 187.799, 180.971 188.698, 179.666 188.728, 178.904 187.588, 177.120 185.842, 174.305 " />
        </g>
    </g>
</svg>
