<?xml version='1.0' encoding='ascii'?>
<svg xmlns="http://www.w3.org/2000/svg" version="1.1" width="250" height="250">
    <g id="ViewLayer_LineSet" xmlns:inkscape="http://www.inkscape.org/namespaces/inkscape" inkscape:groupmode="lineset" inkscape:label="ViewLayer_LineSet">
        <g xmlns:inkscape="http://www.inkscape.org/namespaces/inkscape" inkscape:groupmode="layer" id="strokes" inkscape:label="strokes">
            <path fill="none" stroke-width="3.0" stroke-linecap="butt" stroke-opacity="1.0" stroke="rgb(0, 0, 0)" stroke-linejoin="round" d=" M 133.312, 112.684 130.704, 109.840 129.308, 109.567 124.507, 108.629 121.658, 109.982 118.828, 111.426 117.354, 114.672 116.168, 117.177 116.232, 121.952 116.250, 124.376 116.903, 126.396 118.565, 131.438 119.251, 132.194 121.176, 134.289 " />
            <path fill="none" stroke-width="3.0" stroke-linecap="butt" stroke-opacity="1.0" stroke="rgb(0, 0, 0)" stroke-linejoin="round" d=" M 198.013, 84.643 197.525, 78.650 188.820, 73.727 188.148, 73.347 180.019, 67.614 178.984, 66.884 175.688, 66.711 165.703, 66.172 157.066, 65.706 147.074, 65.298 141.897, 65.087 " />
            <path fill="none" stroke-width="3.0" stroke-linecap="butt" stroke-opacity="1.0" stroke="rgb(0, 0, 0)" stroke-linejoin="round" d=" M 119.346, 138.184 116.440, 138.084 115.753, 137.896 110.691, 133.427 110.507, 133.167 110.488, 133.139 107.720, 127.493 " />
            <path fill="none" stroke-width="3.0" stroke-linecap="butt" stroke-opacity="1.0" stroke="rgb(0, 0, 0)" stroke-linejoin="round" d=" M 129.281, 137.946 129.269, 137.925 129.262, 137.915 130.645, 136.705 129.326, 137.887 129.269, 137.925 129.251, 137.937 129.246, 137.967 129.221, 138.135 129.217, 137.986 129.246, 137.967 129.281, 137.946 " />
            <path fill="none" stroke-width="3.0" stroke-linecap="butt" stroke-opacity="1.0" stroke="rgb(0, 0, 0)" stroke-linejoin="round" d=" M 123.935, 185.428 124.773, 186.023 126.097, 186.963 130.980, 190.430 135.959, 190.377 137.567, 190.360 137.885, 190.357 140.003, 190.334 " />
            <path fill="none" stroke-width="3.0" stroke-linecap="butt" stroke-opacity="1.0" stroke="rgb(0, 0, 0)" stroke-linejoin="round" d=" M 154.626, 182.842 163.499, 186.784 165.153, 187.519 171.430, 185.963 " />
            <path fill="none" stroke-width="3.0" stroke-linecap="butt" stroke-opacity="1.0" stroke="rgb(0, 0, 0)" stroke-linejoin="round" d=" M 100.212, 89.099 96.607, 96.152 96.930, 104.660 101.893, 97.497 107.216, 92.146 116.550, 88.558 116.974, 88.396 127.000, 88.800 132.852, 93.016 138.070, 99.523 136.153, 91.852 " />
            <path fill="none" stroke-width="3.0" stroke-linecap="butt" stroke-opacity="1.0" stroke="rgb(0, 0, 0)" stroke-linejoin="round" d=" M 156.392, 89.450 162.795, 89.283 169.068, 92.988 172.975, 97.926 176.874, 104.422 " />
            <path fill="none" stroke-width="3.0" stroke-linecap="butt" stroke-opacity="1.0" stroke="rgb(0, 0, 0)" stroke-linejoin="round" d=" M 154.285, 84.113 150.965, 90.026 149.234, 99.763 " />
            <path fill="none" stroke-width="3.0" stroke-linecap="butt" stroke-opacity="1.0" stroke="rgb(0, 0, 0)" stroke-linejoin="round" d=" M 123.014, 136.324 128.480, 137.153 " />
            <path fill="none" stroke-width="3.0" stroke-linecap="butt" stroke-opacity="1.0" stroke="rgb(0, 0, 0)" stroke-linejoin="round" d=" M 127.653, 138.315 128.480, 137.153 " />
            <path fill="none" stroke-width="3.0" stroke-linecap="butt" stroke-opacity="1.0" stroke="rgb(0, 0, 0)" stroke-linejoin="round" d=" M 107.112, 126.254 107.720, 127.493 " />
            <path fill="none" stroke-width="3.0" stroke-linecap="butt" stroke-opacity="1.0" stroke="rgb(0, 0, 0)" stroke-linejoin="round" d=" M 130.510, 106.914 127.348, 101.972 117.385, 101.121 117.256, 101.110 109.927, 107.021 " />
            <path fill="none" stroke-width="3.0" stroke-linecap="butt" stroke-opacity="1.0" stroke="rgb(0, 0, 0)" stroke-linejoin="round" d=" M 164.298, 123.804 164.132, 113.806 164.127, 113.550 161.450, 105.203 156.540, 99.888 150.147, 100.769 " />
            <path fill="none" stroke-width="3.0" stroke-linecap="butt" stroke-opacity="1.0" stroke="rgb(0, 0, 0)" stroke-linejoin="round" d=" M 136.576, 158.619 128.307, 156.406 118.712, 153.587 114.739, 152.419 106.943, 146.792 99.711, 140.046 97.996, 143.555 93.558, 152.459 93.535, 154.470 93.262, 158.721 93.830, 160.441 95.590, 164.856 96.757, 166.945 99.890, 170.532 103.684, 171.469 108.322, 173.677 110.669, 178.346 111.748, 180.553 113.718, 182.230 116.781, 184.760 121.322, 185.082 122.526, 185.167 124.112, 185.022 124.303, 185.004 125.651, 185.727 126.545, 186.206 126.097, 186.963 " />
            <path fill="none" stroke-width="3.0" stroke-linecap="butt" stroke-opacity="1.0" stroke="rgb(0, 0, 0)" stroke-linejoin="round" d=" M 176.803, 103.436 179.434, 103.377 179.871, 103.367 182.476, 96.237 180.552, 93.794 189.409, 89.152 198.013, 84.643 " />
            <path fill="none" stroke-width="3.0" stroke-linecap="butt" stroke-opacity="1.0" stroke="rgb(0, 0, 0)" stroke-linejoin="round" d=" M 180.019, 67.614 180.002, 66.486 177.080, 58.021 171.494, 49.726 171.333, 49.488 168.645, 44.784 161.132, 38.184 159.197, 36.484 151.191, 30.491 149.295, 29.072 144.019, 28.367 134.107, 27.045 124.194, 25.723 114.282, 24.401 110.674, 23.920 109.277, 23.662 103.805, 25.692 94.822, 30.085 88.785, 33.037 84.904, 36.508 77.451, 43.175 69.998, 49.842 66.136, 53.297 65.882, 53.805 65.103, 54.743 60.022, 63.356 54.940, 71.968 49.859, 80.581 48.014, 83.707 46.416, 93.579 45.836, 97.160 43.320, 106.838 40.803, 116.516 39.209, 122.649 39.494, 123.563 40.074, 125.260 40.221, 124.628 48.193, 130.664 53.263, 134.502 " />
            <path fill="none" stroke-width="3.0" stroke-linecap="butt" stroke-opacity="1.0" stroke="rgb(0, 0, 0)" stroke-linejoin="round" d=" M 53.263, 134.502 52.036, 134.484 48.515, 135.509 44.246, 139.519 43.114, 141.903 39.955, 150.272 38.943, 156.142 39.390, 158.569 42.324, 168.129 42.470, 168.605 43.322, 169.126 44.952, 170.677 54.235, 174.395 56.051, 175.122 62.113, 175.242 66.964, 175.337 67.837, 174.979 68.907, 177.428 73.319, 182.704 76.724, 188.240 80.063, 191.064 84.452, 194.776 92.203, 201.093 99.955, 207.411 100.657, 207.984 101.763, 208.769 102.000, 209.009 111.294, 212.699 112.521, 213.186 118.513, 214.330 127.638, 214.790 132.304, 215.820 140.338, 212.066 139.783, 212.805 142.421, 209.715 152.369, 208.553 154.243, 207.587 160.581, 202.093 165.684, 197.517 166.311, 196.917 169.427, 193.753 165.930, 191.372 174.363, 185.999 181.772, 181.277 184.687, 177.753 185.573, 171.497 " />
            <path fill="none" stroke-width="3.0" stroke-linecap="butt" stroke-opacity="1.0" stroke="rgb(0, 0, 0)" stroke-linejoin="round" d=" M 174.958, 125.906 174.588, 122.643 174.503, 123.027 174.449, 123.271 174.033, 125.147 " />
            <path fill="none" stroke-width="3.0" stroke-linecap="butt" stroke-opacity="1.0" stroke="rgb(0, 0, 0)" stroke-linejoin="round" d=" M 115.587, 70.977 107.842, 73.674 107.558, 73.766 106.973, 74.270 99.535, 80.953 92.096, 87.636 84.657, 94.320 83.909, 94.992 83.941, 96.101 " />
            <path fill="none" stroke-width="3.0" stroke-linecap="butt" stroke-opacity="1.0" stroke="rgb(0, 0, 0)" stroke-linejoin="round" d=" M 124.814, 192.141 124.735, 186.036 124.773, 186.023 " />
            <path fill="none" stroke-width="3.0" stroke-linecap="butt" stroke-opacity="1.0" stroke="rgb(0, 0, 0)" stroke-linejoin="round" d=" M 59.770, 140.189 58.860, 138.522 58.672, 136.768 59.886, 139.126 59.770, 140.189 58.780, 149.291 58.695, 150.523 58.788, 151.104 59.802, 152.475 60.545, 151.959 " />
            <path fill="none" stroke-width="3.0" stroke-linecap="butt" stroke-opacity="1.0" stroke="rgb(0, 0, 0)" stroke-linejoin="round" d=" M 147.381, 173.054 152.037, 175.372 154.299, 176.498 156.674, 176.984 163.031, 177.341 172.860, 175.504 173.571, 175.371 174.581, 175.182 182.357, 173.529 185.347, 171.640 185.573, 171.497 186.310, 171.032 187.821, 168.079 189.772, 164.687 192.323, 160.249 194.259, 156.883 194.971, 150.444 194.031, 145.548 191.597, 139.159 188.422, 133.393 180.878, 126.829 180.152, 126.198 179.925, 126.138 179.815, 126.106 179.089, 126.067 174.958, 125.906 164.965, 125.517 164.048, 125.481 161.615, 125.386 160.049, 125.325 157.504, 125.226 152.895, 126.042 152.293, 126.189 150.402, 126.650 146.622, 127.570 140.561, 129.046 146.661, 127.769 " />
            <path fill="none" stroke-width="3.0" stroke-linecap="butt" stroke-opacity="1.0" stroke="rgb(0, 0, 0)" stroke-linejoin="round" d=" M 62.113, 175.242 59.889, 178.907 58.616, 180.931 58.675, 181.883 59.889, 183.596 67.814, 189.695 69.507, 190.998 73.483, 192.322 77.518, 191.837 79.226, 191.223 80.063, 191.064 " />
            <path fill="none" stroke-width="3.0" stroke-linecap="butt" stroke-opacity="1.0" stroke="rgb(0, 0, 0)" stroke-linejoin="round" d=" M 107.037, 124.871 106.566, 116.087 106.557, 115.543 108.393, 110.890 " />
            <path fill="none" stroke-width="3.0" stroke-linecap="butt" stroke-opacity="1.0" stroke="rgb(0, 0, 0)" stroke-linejoin="round" d=" M 131.830, 86.120 130.879, 84.854 130.760, 84.675 128.613, 83.541 " />
            <path fill="none" stroke-width="3.0" stroke-linecap="butt" stroke-opacity="1.0" stroke="rgb(0, 0, 0)" stroke-linejoin="round" d=" M 135.959, 190.377 138.916, 192.554 140.118, 193.082 143.618, 192.699 153.554, 191.569 155.641, 191.331 163.499, 186.784 " />
            <path fill="none" stroke-width="3.0" stroke-linecap="butt" stroke-opacity="1.0" stroke="rgb(0, 0, 0)" stroke-linejoin="round" d=" M 137.885, 190.357 137.704, 190.594 137.567, 190.360 " />
            <path fill="none" stroke-width="3.0" stroke-linecap="butt" stroke-opacity="1.0" stroke="rgb(0, 0, 0)" stroke-linejoin="round" d=" M 152.293, 126.189 152.339, 126.009 151.076, 124.051 150.291, 114.082 149.922, 109.404 149.782, 107.623 149.266, 103.849 149.514, 102.965 " />
            <path fill="none" stroke-width="3.0" stroke-linecap="butt" stroke-opacity="1.0" stroke="rgb(0, 0, 0)" stroke-linejoin="round" d=" M 144.321, 187.680 148.240, 185.617 150.370, 184.496 153.496, 182.850 153.827, 182.801 153.930, 182.533 " />
            <path fill="none" stroke-width="3.0" stroke-linecap="butt" stroke-opacity="1.0" stroke="rgb(0, 0, 0)" stroke-linejoin="round" d=" M 152.049, 95.300 154.923, 92.389 156.320, 89.540 " />
            <path fill="none" stroke-width="3.0" stroke-linecap="butt" stroke-opacity="1.0" stroke="rgb(0, 0, 0)" stroke-linejoin="round" d=" M 161.615, 125.386 161.620, 123.441 161.663, 121.569 161.211, 119.712 160.201, 115.591 159.521, 114.318 157.823, 110.853 157.210, 110.503 155.707, 109.008 153.995, 108.628 152.322, 108.416 151.551, 108.717 " />
            <path fill="none" stroke-width="3.0" stroke-linecap="butt" stroke-opacity="1.0" stroke="rgb(0, 0, 0)" stroke-linejoin="round" d=" M 174.503, 123.027 174.346, 122.580 176.566, 118.201 178.367, 111.827 179.434, 103.377 " />
            <path fill="none" stroke-width="3.0" stroke-linecap="butt" stroke-opacity="1.0" stroke="rgb(0, 0, 0)" stroke-linejoin="round" d=" M 171.481, 185.884 176.405, 179.074 179.873, 178.648 181.871, 178.031 184.376, 174.113 184.951, 173.296 185.347, 171.640 " />
        </g>
    </g>
</svg>
