<?xml version='1.0' encoding='ascii'?>
<svg xmlns="http://www.w3.org/2000/svg" version="1.1" width="250" height="250">
    <g id="ViewLayer_LineSet" xmlns:inkscape="http://www.inkscape.org/namespaces/inkscape" inkscape:groupmode="lineset" inkscape:label="ViewLayer_LineSet">
        <g xmlns:inkscape="http://www.inkscape.org/namespaces/inkscape" inkscape:groupmode="layer" id="strokes" inkscape:label="strokes">
            <path fill="none" stroke-width="3.0" stroke-linecap="butt" stroke-opacity="1.0" stroke="rgb(0, 0, 0)" stroke-linejoin="round" d=" M 132.862, 79.066 132.706, 78.697 " />
            <path fill="none" stroke-width="3.0" stroke-linecap="butt" stroke-opacity="1.0" stroke="rgb(0, 0, 0)" stroke-linejoin="round" d=" M 148.813, 82.182 150.102, 80.532 150.341, 80.163 " />
            <path fill="none" stroke-width="3.0" stroke-linecap="butt" stroke-opacity="1.0" stroke="rgb(0, 0, 0)" stroke-linejoin="round" d=" M 190.711, 69.082 190.453, 61.643 182.235, 55.946 178.607, 53.430 171.771, 47.537 163.876, 47.157 158.645, 46.690 150.709, 45.980 140.720, 45.522 134.468, 45.235 128.275, 44.834 119.227, 49.093 110.004, 53.434 102.781, 56.588 96.718, 64.540 95.256, 66.458 89.360, 74.535 83.464, 82.612 81.885, 84.775 81.340, 90.090 " />
            <path fill="none" stroke-width="3.0" stroke-linecap="butt" stroke-opacity="1.0" stroke="rgb(0, 0, 0)" stroke-linejoin="round" d=" M 162.720, 160.551 171.750, 164.848 175.028, 166.407 177.387, 166.155 178.881, 165.995 181.174, 165.750 182.527, 163.387 184.012, 160.793 " />
            <path fill="none" stroke-width="3.0" stroke-linecap="butt" stroke-opacity="1.0" stroke="rgb(0, 0, 0)" stroke-linejoin="round" d=" M 132.404, 165.240 134.728, 166.497 136.001, 167.184 136.247, 167.318 139.649, 169.156 140.352, 169.536 149.655, 168.748 " />
            <path fill="none" stroke-width="3.0" stroke-linecap="butt" stroke-opacity="1.0" stroke="rgb(0, 0, 0)" stroke-linejoin="round" d=" M 94.874, 86.403 96.018, 93.749 100.159, 87.031 104.789, 81.871 113.831, 77.705 123.542, 77.124 129.679, 80.201 135.500, 85.887 132.727, 78.716 " />
            <path fill="none" stroke-width="3.0" stroke-linecap="butt" stroke-opacity="1.0" stroke="rgb(0, 0, 0)" stroke-linejoin="round" d=" M 151.742, 78.610 157.807, 79.605 164.305, 83.942 166.448, 86.257 168.762, 88.756 173.478, 94.931 " />
            <path fill="none" stroke-width="3.0" stroke-linecap="butt" stroke-opacity="1.0" stroke="rgb(0, 0, 0)" stroke-linejoin="round" d=" M 149.030, 73.561 146.661, 78.005 146.273, 86.789 " />
            <path fill="none" stroke-width="3.0" stroke-linecap="butt" stroke-opacity="1.0" stroke="rgb(0, 0, 0)" stroke-linejoin="round" d=" M 120.242, 119.384 125.050, 123.397 " />
            <path fill="none" stroke-width="3.0" stroke-linecap="butt" stroke-opacity="1.0" stroke="rgb(0, 0, 0)" stroke-linejoin="round" d=" M 128.970, 95.628 125.296, 91.622 115.366, 91.898 108.822, 98.382 106.750, 105.331 " />
            <path fill="none" stroke-width="3.0" stroke-linecap="butt" stroke-opacity="1.0" stroke="rgb(0, 0, 0)" stroke-linejoin="round" d=" M 157.512, 95.528 153.204, 91.261 147.187, 90.955 " />
            <path fill="none" stroke-width="3.0" stroke-linecap="butt" stroke-opacity="1.0" stroke="rgb(0, 0, 0)" stroke-linejoin="round" d=" M 178.849, 132.097 174.409, 133.922 164.430, 134.569 161.842, 134.736 151.844, 134.963 143.042, 135.162 133.114, 133.966 128.233, 133.378 119.289, 131.543 110.300, 127.163 108.426, 126.251 102.926, 122.751 100.921, 127.412 97.645, 134.665 97.759, 136.620 97.660, 140.840 98.197, 142.035 100.512, 146.554 101.259, 147.633 105.633, 151.475 108.265, 151.871 114.445, 153.979 118.050, 159.596 118.797, 160.824 119.883, 161.637 124.373, 164.851 130.186, 165.300 127.837, 163.964 127.599, 162.524 " />
            <path fill="none" stroke-width="3.0" stroke-linecap="butt" stroke-opacity="1.0" stroke="rgb(0, 0, 0)" stroke-linejoin="round" d=" M 47.228, 146.416 47.312, 141.901 50.713, 142.725 " />
            <path fill="none" stroke-width="3.0" stroke-linecap="butt" stroke-opacity="1.0" stroke="rgb(0, 0, 0)" stroke-linejoin="round" d=" M 53.606, 141.742 53.316, 141.511 51.937, 141.539 50.713, 142.725 50.564, 142.870 47.228, 146.416 46.045, 147.675 45.323, 148.442 43.980, 152.141 41.244, 160.420 40.230, 166.953 40.638, 168.437 42.490, 173.921 45.570, 177.645 46.606, 178.444 49.210, 179.160 59.017, 181.116 60.036, 181.319 66.953, 180.619 70.547, 179.241 73.630, 182.656 74.485, 183.602 75.841, 185.104 74.381, 186.083 73.061, 186.252 74.485, 183.602 " />
            <path fill="none" stroke-width="3.0" stroke-linecap="butt" stroke-opacity="1.0" stroke="rgb(0, 0, 0)" stroke-linejoin="round" d=" M 93.546, 197.944 94.029, 198.736 93.162, 200.047 98.732, 203.775 99.645, 204.386 99.976, 204.607 108.286, 210.170 110.232, 211.472 116.678, 216.226 118.419, 216.849 122.732, 216.716 132.669, 215.592 142.692, 214.459 152.087, 211.034 152.213, 210.988 153.255, 210.160 153.812, 209.752 160.826, 202.624 164.099, 199.298 171.708, 192.810 178.019, 187.428 178.050, 184.236 185.139, 177.183 190.862, 171.487 193.034, 167.170 192.873, 158.302 193.613, 148.754 193.319, 147.543 " />
            <path fill="none" stroke-width="3.0" stroke-linecap="butt" stroke-opacity="1.0" stroke="rgb(0, 0, 0)" stroke-linejoin="round" d=" M 134.065, 179.146 133.370, 169.171 133.296, 168.100 134.374, 166.925 136.001, 167.184 " />
            <path fill="none" stroke-width="3.0" stroke-linecap="butt" stroke-opacity="1.0" stroke="rgb(0, 0, 0)" stroke-linejoin="round" d=" M 136.247, 167.318 142.735, 172.174 139.649, 169.156 " />
            <path fill="none" stroke-width="3.0" stroke-linecap="butt" stroke-opacity="1.0" stroke="rgb(0, 0, 0)" stroke-linejoin="round" d=" M 61.001, 143.863 60.651, 143.394 60.581, 142.822 61.032, 143.122 61.001, 143.863 60.900, 146.296 62.310, 145.612 " />
            <path fill="none" stroke-width="3.0" stroke-linecap="butt" stroke-opacity="1.0" stroke="rgb(0, 0, 0)" stroke-linejoin="round" d=" M 168.908, 149.654 172.230, 148.202 177.089, 146.078 177.096, 146.075 186.259, 142.070 190.625, 140.162 191.365, 139.491 196.552, 134.785 196.872, 133.531 199.341, 123.841 199.416, 123.550 198.901, 116.226 197.567, 112.716 195.483, 109.478 188.949, 101.908 187.954, 100.755 183.074, 97.925 177.122, 96.854 175.061, 96.483 170.483, 95.659 168.825, 95.496 164.330, 95.055 157.512, 95.528 154.236, 95.756 149.953, 97.230 148.730, 97.923 147.633, 98.546 147.566, 98.622 147.539, 98.653 147.416, 98.794 145.406, 101.102 142.957, 103.913 137.698, 109.799 133.325, 114.693 132.439, 119.526 132.324, 120.155 131.781, 118.894 132.439, 119.526 132.756, 119.830 133.884, 120.914 134.588, 121.589 " />
            <path fill="none" stroke-width="3.0" stroke-linecap="butt" stroke-opacity="1.0" stroke="rgb(0, 0, 0)" stroke-linejoin="round" d=" M 148.730, 97.923 148.149, 95.838 146.913, 92.516 146.836, 92.309 146.747, 93.462 " />
            <path fill="none" stroke-width="3.0" stroke-linecap="butt" stroke-opacity="1.0" stroke="rgb(0, 0, 0)" stroke-linejoin="round" d=" M 73.630, 182.656 71.480, 184.644 67.004, 188.772 63.678, 196.167 62.542, 198.303 63.037, 200.151 69.364, 207.458 70.695, 208.513 79.165, 210.114 87.407, 207.859 88.011, 207.174 94.136, 205.232 95.710, 204.733 98.732, 203.775 " />
            <path fill="none" stroke-width="3.0" stroke-linecap="butt" stroke-opacity="1.0" stroke="rgb(0, 0, 0)" stroke-linejoin="round" d=" M 94.136, 205.232 97.014, 207.900 98.048, 208.008 99.976, 204.607 " />
            <path fill="none" stroke-width="3.0" stroke-linecap="butt" stroke-opacity="1.0" stroke="rgb(0, 0, 0)" stroke-linejoin="round" d=" M 99.645, 204.386 95.710, 204.733 93.782, 204.903 " />
            <path fill="none" stroke-width="3.0" stroke-linecap="butt" stroke-opacity="1.0" stroke="rgb(0, 0, 0)" stroke-linejoin="round" d=" M 132.091, 121.059 130.809, 120.786 126.797, 123.445 125.050, 123.397 121.251, 123.293 116.646, 123.583 113.419, 121.575 111.095, 119.754 108.129, 115.996 106.479, 106.898 106.408, 106.477 106.404, 106.457 106.750, 105.331 " />
            <path fill="none" stroke-width="3.0" stroke-linecap="butt" stroke-opacity="1.0" stroke="rgb(0, 0, 0)" stroke-linejoin="round" d=" M 134.313, 116.949 133.752, 116.328 138.082, 112.384 " />
            <path fill="none" stroke-width="3.0" stroke-linecap="butt" stroke-opacity="1.0" stroke="rgb(0, 0, 0)" stroke-linejoin="round" d=" M 136.349, 106.320 134.216, 102.302 132.023, 100.436 129.217, 97.991 123.671, 97.368 122.955, 97.273 122.490, 97.555 117.908, 100.456 117.223, 102.682 116.077, 106.197 116.871, 111.367 117.105, 112.960 117.565, 113.900 118.968, 116.751 " />
            <path fill="none" stroke-width="3.0" stroke-linecap="butt" stroke-opacity="1.0" stroke="rgb(0, 0, 0)" stroke-linejoin="round" d=" M 158.645, 46.690 156.212, 44.250 148.192, 38.277 145.846, 36.530 142.206, 34.175 132.252, 33.224 130.670, 33.073 120.716, 32.118 110.762, 31.163 110.374, 31.126 100.757, 30.120 91.628, 34.202 84.478, 37.399 80.935, 39.234 74.212, 46.637 67.490, 54.040 65.526, 56.203 61.902, 59.717 56.958, 68.409 56.531, 69.162 52.088, 78.121 47.646, 87.080 45.467, 91.473 44.514, 101.428 44.235, 104.348 42.590, 114.212 40.945, 124.076 39.715, 131.456 41.189, 135.943 45.013, 145.183 46.045, 147.675 " />
            <path fill="none" stroke-width="3.0" stroke-linecap="butt" stroke-opacity="1.0" stroke="rgb(0, 0, 0)" stroke-linejoin="round" d=" M 166.448, 86.257 166.965, 92.956 168.825, 95.496 " />
            <path fill="none" stroke-width="3.0" stroke-linecap="butt" stroke-opacity="1.0" stroke="rgb(0, 0, 0)" stroke-linejoin="round" d=" M 177.122, 96.854 180.028, 88.022 177.827, 85.199 184.071, 77.388 190.315, 69.577 190.711, 69.082 " />
            <path fill="none" stroke-width="3.0" stroke-linecap="butt" stroke-opacity="1.0" stroke="rgb(0, 0, 0)" stroke-linejoin="round" d=" M 182.527, 163.387 184.008, 160.783 184.606, 159.730 186.433, 159.703 190.189, 158.606 191.943, 155.089 192.671, 153.762 193.001, 149.420 193.283, 147.562 193.319, 147.543 197.232, 145.448 197.942, 144.754 197.652, 140.939 197.867, 140.141 197.363, 135.580 197.320, 134.946 196.872, 133.531 " />
        </g>
    </g>
</svg>
