<?xml version='1.0' encoding='ascii'?>
<svg xmlns="http://www.w3.org/2000/svg" version="1.1" width="250" height="250">
    <g id="ViewLayer_LineSet" xmlns:inkscape="http://www.inkscape.org/namespaces/inkscape" inkscape:groupmode="lineset" inkscape:label="ViewLayer_LineSet">
        <g xmlns:inkscape="http://www.inkscape.org/namespaces/inkscape" inkscape:groupmode="layer" id="strokes" inkscape:label="strokes">
            <path fill="none" stroke-width="3.0" stroke-linecap="butt" stroke-opacity="1.0" stroke="rgb(0, 0, 0)" stroke-linejoin="round" d=" M 130.986, 75.360 130.636, 74.613 " />
            <path fill="none" stroke-width="3.0" stroke-linecap="butt" stroke-opacity="1.0" stroke="rgb(0, 0, 0)" stroke-linejoin="round" d=" M 186.945, 63.455 186.945, 63.454 186.556, 56.445 178.466, 50.567 173.636, 47.057 167.602, 41.695 158.354, 41.264 148.406, 40.238 146.933, 40.086 143.706, 39.934 133.717, 39.465 133.038, 39.433 125.028, 38.857 116.135, 43.430 109.264, 46.964 100.248, 51.290 100.143, 51.340 94.658, 59.702 92.288, 63.314 86.929, 71.757 81.571, 80.200 80.725, 81.532 80.112, 88.685 " />
            <path fill="none" stroke-width="3.0" stroke-linecap="butt" stroke-opacity="1.0" stroke="rgb(0, 0, 0)" stroke-linejoin="round" d=" M 135.214, 155.077 143.493, 158.876 152.835, 157.813 161.018, 152.065 164.096, 149.903 165.451, 149.807 171.760, 152.775 171.859, 152.822 172.247, 153.004 178.201, 155.805 180.421, 155.725 184.313, 155.585 186.092, 152.445 186.785, 151.223 " />
            <path fill="none" stroke-width="3.0" stroke-linecap="butt" stroke-opacity="1.0" stroke="rgb(0, 0, 0)" stroke-linejoin="round" d=" M 93.684, 83.422 95.144, 90.081 98.937, 83.744 103.272, 78.813 111.985, 74.603 121.516, 73.651 127.721, 76.185 133.756, 81.366 130.644, 74.619 " />
            <path fill="none" stroke-width="3.0" stroke-linecap="butt" stroke-opacity="1.0" stroke="rgb(0, 0, 0)" stroke-linejoin="round" d=" M 149.250, 75.407 155.234, 76.824 161.860, 81.281 164.300, 83.691 " />
            <path fill="none" stroke-width="3.0" stroke-linecap="butt" stroke-opacity="1.0" stroke="rgb(0, 0, 0)" stroke-linejoin="round" d=" M 146.299, 70.623 144.256, 74.362 144.387, 82.497 " />
            <path fill="none" stroke-width="3.0" stroke-linecap="butt" stroke-opacity="1.0" stroke="rgb(0, 0, 0)" stroke-linejoin="round" d=" M 117.069, 108.735 117.924, 110.202 120.369, 114.395 " />
            <path fill="none" stroke-width="3.0" stroke-linecap="butt" stroke-opacity="1.0" stroke="rgb(0, 0, 0)" stroke-linejoin="round" d=" M 127.781, 91.742 123.932, 88.235 114.126, 88.960 107.950, 95.487 106.184, 102.249 " />
            <path fill="none" stroke-width="3.0" stroke-linecap="butt" stroke-opacity="1.0" stroke="rgb(0, 0, 0)" stroke-linejoin="round" d=" M 172.743, 123.674 162.761, 124.270 160.245, 124.420 150.245, 124.375 144.547, 124.349 134.564, 123.764 127.098, 123.328 120.374, 122.252 118.875, 121.677 118.527, 121.544 109.190, 117.962 108.074, 117.534 103.630, 115.254 101.596, 120.203 98.720, 126.737 98.890, 128.592 98.855, 132.740 99.326, 133.647 101.900, 138.113 102.402, 138.773 107.370, 142.562 109.279, 142.753 116.255, 144.688 120.562, 150.566 121.022, 151.241 121.631, 151.664 126.819, 155.067 130.134, 155.351 125.398, 152.699 124.107, 149.455 " />
            <path fill="none" stroke-width="3.0" stroke-linecap="butt" stroke-opacity="1.0" stroke="rgb(0, 0, 0)" stroke-linejoin="round" d=" M 54.343, 144.456 54.372, 144.180 53.113, 143.787 50.793, 146.202 46.415, 151.163 46.065, 151.560 44.700, 155.768 42.145, 164.022 41.134, 170.905 41.458, 171.885 42.469, 174.829 47.572, 180.006 49.506, 181.275 54.714, 182.102 62.076, 182.960 66.476, 182.294 71.887, 180.326 76.418, 185.392 75.694, 186.367 74.526, 187.938 74.193, 188.145 75.694, 186.367 " />
            <path fill="none" stroke-width="3.0" stroke-linecap="butt" stroke-opacity="1.0" stroke="rgb(0, 0, 0)" stroke-linejoin="round" d=" M 110.327, 206.347 107.953, 209.161 107.437, 209.772 106.369, 208.722 104.663, 207.045 103.162, 205.569 102.824, 205.861 104.663, 207.045 106.835, 208.442 107.953, 209.161 114.128, 213.134 119.950, 216.890 128.375, 216.798 138.202, 214.946 148.029, 213.093 148.506, 213.003 156.000, 209.915 160.526, 206.507 167.074, 198.949 167.645, 198.290 174.822, 191.327 181.999, 184.364 186.054, 180.430 185.998, 179.192 190.741, 173.068 194.694, 163.883 196.031, 160.776 195.332, 152.295 195.415, 143.125 194.929, 141.637 " />
            <path fill="none" stroke-width="3.0" stroke-linecap="butt" stroke-opacity="1.0" stroke="rgb(0, 0, 0)" stroke-linejoin="round" d=" M 174.205, 136.538 177.739, 134.638 180.879, 132.950 189.687, 128.214 190.198, 127.939 190.270, 127.901 195.397, 122.381 198.412, 119.134 199.638, 109.176 198.562, 101.684 197.255, 98.830 195.497, 96.524 188.454, 89.425 185.860, 86.810 182.876, 85.326 177.696, 84.626 175.752, 84.364 170.602, 84.061 170.274, 84.042 167.491, 83.879 164.594, 83.709 164.300, 83.691 162.621, 83.593 152.657, 84.438 149.927, 84.669 146.854, 85.700 141.115, 93.890 135.715, 101.595 135.692, 101.628 133.995, 104.049 132.713, 111.201 132.042, 110.843 133.424, 113.014 134.189, 114.215 134.644, 114.931 133.510, 114.871 132.547, 114.821 125.688, 114.463 124.271, 115.533 122.709, 115.470 122.059, 115.605 116.404, 116.785 114.183, 115.738 110.717, 113.904 108.138, 111.525 106.069, 103.615 105.946, 103.159 105.937, 103.127 106.184, 102.249 " />
            <path fill="none" stroke-width="3.0" stroke-linecap="butt" stroke-opacity="1.0" stroke="rgb(0, 0, 0)" stroke-linejoin="round" d=" M 137.980, 174.241 137.877, 174.177 137.835, 174.144 137.829, 174.069 136.775, 164.125 136.215, 158.838 136.398, 158.569 136.871, 157.872 138.012, 158.032 142.269, 161.150 138.857, 158.704 136.398, 158.569 " />
            <path fill="none" stroke-width="3.0" stroke-linecap="butt" stroke-opacity="1.0" stroke="rgb(0, 0, 0)" stroke-linejoin="round" d=" M 77.664, 183.184 78.323, 184.044 73.388, 189.884 68.930, 194.592 66.017, 202.370 64.954, 204.608 65.787, 206.923 72.647, 214.289 81.182, 215.892 82.506, 216.038 82.844, 215.915 86.638, 215.394 92.495, 213.367 92.729, 212.964 97.230, 211.350 98.765, 210.799 103.248, 206.653 95.447, 209.662 " />
            <path fill="none" stroke-width="3.0" stroke-linecap="butt" stroke-opacity="1.0" stroke="rgb(0, 0, 0)" stroke-linejoin="round" d=" M 97.230, 211.350 100.591, 213.965 103.325, 214.051 105.351, 209.332 106.369, 208.722 " />
            <path fill="none" stroke-width="3.0" stroke-linecap="butt" stroke-opacity="1.0" stroke="rgb(0, 0, 0)" stroke-linejoin="round" d=" M 135.715, 101.595 133.178, 97.518 128.684, 94.101 128.019, 93.581 126.150, 93.443 121.987, 93.577 119.829, 94.497 117.008, 96.449 116.631, 97.990 115.550, 102.117 116.774, 107.608 116.982, 108.573 117.066, 108.717 117.258, 109.049 117.924, 110.202 " />
            <path fill="none" stroke-width="3.0" stroke-linecap="butt" stroke-opacity="1.0" stroke="rgb(0, 0, 0)" stroke-linejoin="round" d=" M 134.189, 114.215 135.221, 113.219 137.224, 110.620 134.704, 108.024 137.438, 105.811 " />
            <path fill="none" stroke-width="3.0" stroke-linecap="butt" stroke-opacity="1.0" stroke="rgb(0, 0, 0)" stroke-linejoin="round" d=" M 146.761, 78.044 147.292, 77.305 147.502, 77.013 147.569, 77.037 " />
            <path fill="none" stroke-width="3.0" stroke-linecap="butt" stroke-opacity="1.0" stroke="rgb(0, 0, 0)" stroke-linejoin="round" d=" M 143.706, 39.934 143.329, 39.594 140.252, 37.460 139.309, 36.890 129.341, 36.096 125.423, 35.784 115.455, 34.982 109.864, 34.532 99.890, 33.810 97.299, 33.623 88.288, 37.960 84.970, 39.557 78.238, 43.226 71.643, 50.744 65.345, 57.923 60.199, 63.149 55.485, 71.968 53.589, 75.516 49.396, 84.595 45.204, 93.673 44.510, 95.177 43.833, 105.154 43.662, 107.671 42.369, 117.587 41.075, 127.503 40.054, 135.332 42.097, 141.303 46.109, 150.463 46.415, 151.163 " />
            <path fill="none" stroke-width="3.0" stroke-linecap="butt" stroke-opacity="1.0" stroke="rgb(0, 0, 0)" stroke-linejoin="round" d=" M 170.602, 84.061 170.281, 82.571 169.752, 81.689 " />
            <path fill="none" stroke-width="3.0" stroke-linecap="butt" stroke-opacity="1.0" stroke="rgb(0, 0, 0)" stroke-linejoin="round" d=" M 177.696, 84.626 175.961, 82.533 180.951, 73.867 185.940, 65.201 186.944, 63.457 186.944, 63.456 " />
            <path fill="none" stroke-width="3.0" stroke-linecap="butt" stroke-opacity="1.0" stroke="rgb(0, 0, 0)" stroke-linejoin="round" d=" M 186.092, 152.445 186.754, 151.166 187.074, 150.548 188.049, 150.591 192.715, 149.255 194.171, 145.969 194.925, 144.424 194.929, 141.637 194.931, 140.426 195.062, 138.721 198.642, 137.053 199.430, 136.353 198.928, 132.810 199.081, 132.092 198.210, 127.647 198.149, 127.233 196.883, 124.102 195.397, 122.381 " />
        </g>
    </g>
</svg>
