<?xml version='1.0' encoding='ascii'?>
<svg xmlns="http://www.w3.org/2000/svg" version="1.1" width="250" height="250">
    <g id="ViewLayer_LineSet" xmlns:inkscape="http://www.inkscape.org/namespaces/inkscape" inkscape:groupmode="lineset" inkscape:label="ViewLayer_LineSet">
        <g xmlns:inkscape="http://www.inkscape.org/namespaces/inkscape" inkscape:groupmode="layer" id="strokes" inkscape:label="strokes">
            <path fill="none" stroke-width="3.0" stroke-linecap="butt" stroke-opacity="1.0" stroke="rgb(0, 0, 0)" stroke-linejoin="round" d=" M 129.011, 142.393 129.216, 142.414 126.942, 141.202 129.011, 142.393 " />
            <path fill="none" stroke-width="3.0" stroke-linecap="butt" stroke-opacity="1.0" stroke="rgb(0, 0, 0)" stroke-linejoin="round" d=" M 181.747, 56.486 181.296, 51.653 173.284, 45.669 166.947, 40.936 161.892, 36.427 151.901, 35.987 151.220, 35.957 141.707, 34.843 131.718, 34.374 130.295, 34.307 120.450, 33.530 111.727, 38.420 110.578, 39.064 107.445, 40.821 98.601, 45.489 96.492, 46.602 91.664, 55.359 88.869, 60.428 84.094, 69.214 79.320, 78.001 79.046, 78.505 78.517, 87.766 " />
            <path fill="none" stroke-width="3.0" stroke-linecap="butt" stroke-opacity="1.0" stroke="rgb(0, 0, 0)" stroke-linejoin="round" d=" M 165.342, 151.391 169.595, 153.176 173.125, 148.931 " />
            <path fill="none" stroke-width="3.0" stroke-linecap="butt" stroke-opacity="1.0" stroke="rgb(0, 0, 0)" stroke-linejoin="round" d=" M 137.838, 141.674 146.457, 144.723 155.779, 143.354 163.988, 137.644 166.443, 135.936 167.791, 135.864 176.909, 139.970 181.065, 141.842 187.160, 142.180 189.228, 138.704 " />
            <path fill="none" stroke-width="3.0" stroke-linecap="butt" stroke-opacity="1.0" stroke="rgb(0, 0, 0)" stroke-linejoin="round" d=" M 91.934, 80.690 93.739, 86.391 97.125, 80.645 101.108, 76.089 109.413, 71.921 118.694, 70.555 124.936, 72.397 131.189, 76.866 " />
            <path fill="none" stroke-width="3.0" stroke-linecap="butt" stroke-opacity="1.0" stroke="rgb(0, 0, 0)" stroke-linejoin="round" d=" M 142.672, 68.200 140.959, 71.041 141.426, 75.807 " />
            <path fill="none" stroke-width="3.0" stroke-linecap="butt" stroke-opacity="1.0" stroke="rgb(0, 0, 0)" stroke-linejoin="round" d=" M 116.459, 103.646 119.571, 107.831 " />
            <path fill="none" stroke-width="3.0" stroke-linecap="butt" stroke-opacity="1.0" stroke="rgb(0, 0, 0)" stroke-linejoin="round" d=" M 125.957, 87.743 121.935, 84.904 112.319, 86.147 106.607, 92.583 105.265, 98.742 " />
            <path fill="none" stroke-width="3.0" stroke-linecap="butt" stroke-opacity="1.0" stroke="rgb(0, 0, 0)" stroke-linejoin="round" d=" M 189.604, 138.498 189.738, 138.693 194.859, 137.232 195.960, 134.287 196.330, 133.389 196.729, 132.418 196.373, 128.916 196.326, 127.569 199.478, 126.449 200.376, 125.789 199.655, 122.513 199.731, 121.971 198.364, 117.639 198.359, 117.618 198.302, 117.510 191.852, 111.666 191.289, 110.972 " />
            <path fill="none" stroke-width="3.0" stroke-linecap="butt" stroke-opacity="1.0" stroke="rgb(0, 0, 0)" stroke-linejoin="round" d=" M 132.044, 111.031 130.982, 111.048 124.673, 111.150 124.590, 111.151 120.958, 110.790 111.267, 108.322 107.580, 107.382 106.719, 107.163 103.931, 106.145 101.897, 111.327 99.440, 116.985 99.668, 118.660 99.678, 122.709 99.999, 123.219 102.903, 127.575 103.032, 127.729 108.816, 131.334 109.507, 131.355 117.680, 132.960 120.595, 136.254 118.820, 133.586 " />
            <path fill="none" stroke-width="3.0" stroke-linecap="butt" stroke-opacity="1.0" stroke="rgb(0, 0, 0)" stroke-linejoin="round" d=" M 123.477, 208.445 117.949, 214.738 117.349, 215.421 116.085, 213.837 116.091, 213.801 116.122, 213.635 116.230, 213.700 117.949, 214.738 119.291, 215.550 120.826, 216.389 125.805, 215.855 133.369, 215.045 143.312, 213.980 146.351, 213.655 155.744, 210.926 159.577, 209.018 166.991, 202.307 169.612, 199.933 172.236, 196.352 178.848, 188.850 184.858, 182.030 190.992, 174.011 192.416, 172.221 193.132, 170.242 196.348, 160.773 199.131, 152.579 197.783, 143.975 197.151, 135.344 196.330, 133.389 " />
            <path fill="none" stroke-width="3.0" stroke-linecap="butt" stroke-opacity="1.0" stroke="rgb(0, 0, 0)" stroke-linejoin="round" d=" M 178.152, 121.598 180.808, 119.755 187.251, 115.287 188.956, 114.105 191.289, 110.972 197.263, 102.952 198.496, 101.297 198.143, 91.417 196.480, 84.210 195.403, 82.259 194.179, 80.919 186.641, 74.348 181.649, 69.997 181.355, 69.875 180.705, 69.820 176.935, 69.774 166.935, 69.649 160.734, 69.572 159.484, 69.557 156.852, 69.835 155.985, 69.926 150.920, 70.461 150.307, 70.708 142.401, 73.896 141.426, 75.807 136.882, 84.714 133.883, 90.593 133.255, 94.548 133.194, 94.930 132.330, 100.367 131.664, 101.260 133.526, 105.087 134.107, 106.282 134.219, 106.513 133.889, 106.546 132.858, 106.652 124.582, 107.499 122.095, 107.825 119.571, 107.831 118.649, 107.834 118.018, 107.066 115.460, 108.062 114.730, 107.869 109.659, 106.754 107.771, 105.863 105.367, 100.108 105.092, 99.537 105.069, 99.490 105.265, 98.742 " />
            <path fill="none" stroke-width="3.0" stroke-linecap="butt" stroke-opacity="1.0" stroke="rgb(0, 0, 0)" stroke-linejoin="round" d=" M 54.506, 146.205 51.366, 149.690 47.189, 154.830 47.017, 155.444 45.844, 159.614 43.515, 167.830 42.501, 175.265 42.614, 175.530 42.827, 176.175 50.286, 182.164 53.510, 183.857 63.004, 184.127 64.825, 184.157 65.823, 183.946 69.267, 182.760 73.668, 181.242 77.017, 184.908 75.866, 188.059 75.783, 188.287 76.009, 188.174 77.374, 187.490 79.228, 186.562 79.654, 186.349 " />
            <path fill="none" stroke-width="3.0" stroke-linecap="butt" stroke-opacity="1.0" stroke="rgb(0, 0, 0)" stroke-linejoin="round" d=" M 145.185, 165.423 142.493, 163.810 141.655, 163.176 141.465, 161.787 139.889, 151.912 139.066, 146.753 139.016, 146.440 139.201, 146.052 139.580, 146.092 140.925, 147.033 " />
            <path fill="none" stroke-width="3.0" stroke-linecap="butt" stroke-opacity="1.0" stroke="rgb(0, 0, 0)" stroke-linejoin="round" d=" M 69.267, 182.760 75.866, 188.059 " />
            <path fill="none" stroke-width="3.0" stroke-linecap="butt" stroke-opacity="1.0" stroke="rgb(0, 0, 0)" stroke-linejoin="round" d=" M 80.530, 189.100 76.270, 195.282 71.868, 200.495 69.474, 208.947 68.515, 211.375 69.963, 214.427 75.832, 220.250 82.150, 220.883 87.260, 221.140 88.523, 220.597 98.313, 218.558 98.444, 218.530 99.039, 217.715 100.096, 216.612 106.170, 210.270 100.273, 215.379 " />
            <path fill="none" stroke-width="3.0" stroke-linecap="butt" stroke-opacity="1.0" stroke="rgb(0, 0, 0)" stroke-linejoin="round" d=" M 100.096, 216.612 100.912, 217.445 105.685, 220.452 110.485, 220.154 111.432, 217.179 116.091, 213.801 " />
            <path fill="none" stroke-width="3.0" stroke-linecap="butt" stroke-opacity="1.0" stroke="rgb(0, 0, 0)" stroke-linejoin="round" d=" M 110.578, 39.064 109.250, 38.984 99.256, 38.652 93.223, 38.452 85.747, 42.383 77.102, 47.409 75.070, 48.591 68.623, 56.236 65.111, 60.401 58.295, 67.719 58.172, 67.852 53.733, 76.812 50.637, 83.063 46.740, 92.272 43.462, 100.018 43.134, 110.013 43.070, 111.958 42.207, 121.920 41.343, 131.883 40.631, 140.095 43.478, 147.893 47.017, 155.444 " />
            <path fill="none" stroke-width="3.0" stroke-linecap="butt" stroke-opacity="1.0" stroke="rgb(0, 0, 0)" stroke-linejoin="round" d=" M 128.309, 71.838 127.240, 69.822 123.630, 67.345 121.622, 64.988 120.005, 64.726 113.370, 63.777 112.117, 64.003 107.101, 64.606 105.512, 65.491 101.507, 68.379 97.656, 71.550 94.539, 73.837 93.669, 75.704 92.703, 78.743 " />
            <path fill="none" stroke-width="3.0" stroke-linecap="butt" stroke-opacity="1.0" stroke="rgb(0, 0, 0)" stroke-linejoin="round" d=" M 133.255, 94.548 131.424, 92.125 129.165, 90.648 126.155, 89.547 125.576, 89.565 120.653, 89.916 115.644, 92.021 115.527, 92.112 115.506, 92.242 114.548, 97.666 116.379, 103.377 " />
            <path fill="none" stroke-width="3.0" stroke-linecap="butt" stroke-opacity="1.0" stroke="rgb(0, 0, 0)" stroke-linejoin="round" d=" M 154.953, 68.271 154.212, 67.661 150.148, 66.085 150.057, 66.090 149.995, 66.091 145.453, 67.441 143.066, 67.991 142.805, 68.209 142.762, 68.246 142.514, 68.462 " />
            <path fill="none" stroke-width="3.0" stroke-linecap="butt" stroke-opacity="1.0" stroke="rgb(0, 0, 0)" stroke-linejoin="round" d=" M 176.935, 69.774 180.340, 60.371 181.747, 56.486 " />
        </g>
    </g>
</svg>
