<?xml version='1.0' encoding='ascii'?>
<svg xmlns="http://www.w3.org/2000/svg" version="1.1" width="250" height="250">
    <g id="ViewLayer_LineSet" xmlns:inkscape="http://www.inkscape.org/namespaces/inkscape" inkscape:groupmode="lineset" inkscape:label="ViewLayer_LineSet">
        <g xmlns:inkscape="http://www.inkscape.org/namespaces/inkscape" inkscape:groupmode="layer" id="strokes" inkscape:label="strokes">
            <path fill="none" stroke-width="3.0" stroke-linecap="butt" stroke-opacity="1.0" stroke="rgb(0, 0, 0)" stroke-linejoin="round" d=" M 90.274, 187.227 94.509, 185.339 94.567, 185.352 94.626, 185.366 95.170, 185.702 99.031, 187.350 105.257, 190.736 " />
            <path fill="none" stroke-width="3.0" stroke-linecap="butt" stroke-opacity="1.0" stroke="rgb(0, 0, 0)" stroke-linejoin="round" d=" M 96.885, 110.844 93.920, 110.006 92.680, 110.287 91.231, 110.800 89.553, 112.671 88.925, 113.106 87.302, 116.800 86.679, 118.116 86.168, 122.183 85.941, 124.127 86.067, 126.090 86.266, 129.482 " />
            <path fill="none" stroke-width="3.0" stroke-linecap="butt" stroke-opacity="1.0" stroke="rgb(0, 0, 0)" stroke-linejoin="round" d=" M 162.997, 97.363 163.066, 96.715 155.350, 90.354 147.635, 83.993 146.301, 82.893 " />
            <path fill="none" stroke-width="3.0" stroke-linecap="butt" stroke-opacity="1.0" stroke="rgb(0, 0, 0)" stroke-linejoin="round" d=" M 190.078, 150.941 190.116, 150.801 190.075, 150.445 188.047, 140.653 187.792, 139.420 187.595, 138.469 188.982, 135.540 188.786, 137.533 187.792, 139.420 183.193, 148.152 189.477, 151.193 189.771, 151.345 190.078, 150.941 " />
            <path fill="none" stroke-width="3.0" stroke-linecap="butt" stroke-opacity="1.0" stroke="rgb(0, 0, 0)" stroke-linejoin="round" d=" M 108.848, 192.861 114.860, 192.846 117.795, 192.839 120.887, 190.571 121.938, 189.800 124.689, 187.782 " />
            <path fill="none" stroke-width="3.0" stroke-linecap="butt" stroke-opacity="1.0" stroke="rgb(0, 0, 0)" stroke-linejoin="round" d=" M 77.394, 188.460 79.578, 189.036 83.664, 190.114 87.434, 188.468 94.567, 185.352 " />
            <path fill="none" stroke-width="3.0" stroke-linecap="butt" stroke-opacity="1.0" stroke="rgb(0, 0, 0)" stroke-linejoin="round" d=" M 69.838, 105.950 73.610, 99.438 77.345, 94.486 83.665, 90.924 89.808, 91.270 " />
            <path fill="none" stroke-width="3.0" stroke-linecap="butt" stroke-opacity="1.0" stroke="rgb(0, 0, 0)" stroke-linejoin="round" d=" M 97.291, 101.854 95.084, 94.319 92.952, 87.183 89.073, 83.743 " />
            <path fill="none" stroke-width="3.0" stroke-linecap="butt" stroke-opacity="1.0" stroke="rgb(0, 0, 0)" stroke-linejoin="round" d=" M 117.800, 85.681 111.849, 92.059 109.861, 101.859 109.826, 102.033 114.846, 95.467 120.622, 91.124 130.607, 90.576 130.813, 90.565 140.191, 94.037 140.690, 94.222 146.025, 99.511 151.083, 106.650 151.285, 98.069 147.581, 91.009 " />
            <path fill="none" stroke-width="3.0" stroke-linecap="butt" stroke-opacity="1.0" stroke="rgb(0, 0, 0)" stroke-linejoin="round" d=" M 119.945, 139.535 126.129, 137.847 " />
            <path fill="none" stroke-width="3.0" stroke-linecap="butt" stroke-opacity="1.0" stroke="rgb(0, 0, 0)" stroke-linejoin="round" d=" M 140.305, 116.040 140.204, 115.792 136.658, 107.085 129.904, 101.488 119.947, 102.558 117.013, 107.625 116.607, 111.987 " />
            <path fill="none" stroke-width="3.0" stroke-linecap="butt" stroke-opacity="1.0" stroke="rgb(0, 0, 0)" stroke-linejoin="round" d=" M 96.678, 103.678 90.411, 102.625 86.493, 108.017 83.851, 115.929 83.423, 125.936 83.850, 129.648 " />
            <path fill="none" stroke-width="3.0" stroke-linecap="butt" stroke-opacity="1.0" stroke="rgb(0, 0, 0)" stroke-linejoin="round" d=" M 120.440, 140.224 130.432, 139.822 131.894, 139.763 " />
            <path fill="none" stroke-width="3.0" stroke-linecap="butt" stroke-opacity="1.0" stroke="rgb(0, 0, 0)" stroke-linejoin="round" d=" M 193.959, 133.471 201.774, 127.233 207.609, 122.575 207.716, 122.931 208.076, 121.852 208.260, 121.253 205.584, 111.618 202.907, 101.983 201.325, 96.285 199.596, 86.436 198.926, 82.616 193.732, 74.071 188.537, 65.526 183.342, 56.981 183.126, 56.625 180.975, 54.116 180.252, 52.721 172.740, 46.120 165.228, 39.520 162.432, 37.063 157.355, 32.624 148.297, 28.388 139.238, 24.153 136.849, 23.036 136.746, 23.030 136.045, 23.046 126.142, 24.435 116.239, 25.824 106.336, 27.213 101.281, 27.922 97.022, 28.526 89.104, 34.634 86.341, 36.765 78.941, 43.492 77.695, 44.625 74.601, 50.132 69.060, 58.457 68.235, 59.696 66.101, 66.424 66.169, 71.226 " />
            <path fill="none" stroke-width="3.0" stroke-linecap="butt" stroke-opacity="1.0" stroke="rgb(0, 0, 0)" stroke-linejoin="round" d=" M 73.422, 125.610 72.871, 123.738 72.219, 130.540 " />
            <path fill="none" stroke-width="3.0" stroke-linecap="butt" stroke-opacity="1.0" stroke="rgb(0, 0, 0)" stroke-linejoin="round" d=" M 79.578, 189.036 85.200, 192.626 81.085, 194.957 83.166, 197.382 83.753, 197.949 88.555, 202.914 96.108, 209.467 96.390, 209.712 96.492, 209.792 97.338, 210.146 98.809, 210.146 108.303, 210.836 111.382, 214.081 110.842, 213.395 115.556, 215.560 122.022, 213.812 131.996, 213.082 134.294, 212.914 135.858, 212.571 140.476, 210.553 146.515, 207.655 147.681, 207.138 155.667, 201.119 163.652, 195.099 163.962, 194.866 170.067, 188.760 172.160, 186.666 174.462, 182.289 177.684, 178.680 180.108, 173.612 181.860, 174.236 186.930, 174.064 191.885, 173.897 201.058, 169.914 202.101, 169.461 204.211, 167.467 205.192, 166.834 208.222, 157.304 208.367, 156.847 208.782, 154.463 207.726, 148.562 204.349, 140.049 203.296, 137.950 199.455, 134.416 195.810, 133.349 194.149, 133.355 " />
            <path fill="none" stroke-width="3.0" stroke-linecap="butt" stroke-opacity="1.0" stroke="rgb(0, 0, 0)" stroke-linejoin="round" d=" M 86.437, 69.421 76.449, 69.914 69.786, 70.242 67.418, 70.372 66.169, 71.226 58.013, 76.803 49.218, 81.562 48.789, 81.795 48.194, 86.924 57.370, 90.898 66.523, 94.862 67.242, 95.174 66.543, 96.111 65.354, 97.703 67.438, 104.363 67.795, 104.323 70.076, 104.072 " />
            <path fill="none" stroke-width="3.0" stroke-linecap="butt" stroke-opacity="1.0" stroke="rgb(0, 0, 0)" stroke-linejoin="round" d=" M 120.887, 190.571 122.386, 190.918 123.649, 190.504 125.546, 190.175 125.512, 191.116 125.504, 191.336 124.190, 191.179 125.512, 191.116 126.170, 191.084 125.401, 194.366 " />
            <path fill="none" stroke-width="3.0" stroke-linecap="butt" stroke-opacity="1.0" stroke="rgb(0, 0, 0)" stroke-linejoin="round" d=" M 94.204, 129.601 94.212, 129.597 94.896, 129.595 95.618, 129.761 96.762, 130.023 101.272, 131.057 101.645, 131.143 101.269, 131.065 96.756, 130.130 95.586, 129.888 94.204, 129.601 94.008, 129.561 91.340, 129.135 88.086, 129.358 86.266, 129.482 83.850, 129.648 78.207, 130.035 72.219, 130.540 69.302, 130.786 67.847, 131.222 65.092, 132.092 58.800, 138.029 58.557, 142.807 58.514, 143.669 55.535, 148.988 54.183, 151.401 53.061, 155.539 53.891, 161.315 55.955, 164.586 56.695, 165.758 59.703, 170.525 62.212, 175.080 63.469, 175.850 64.163, 176.276 68.450, 178.905 69.889, 179.155 74.382, 179.887 84.293, 181.502 84.460, 181.490 92.007, 180.977 94.922, 180.245 100.700, 177.781 101.074, 177.621 101.090, 177.615 107.980, 174.676 " />
            <path fill="none" stroke-width="3.0" stroke-linecap="butt" stroke-opacity="1.0" stroke="rgb(0, 0, 0)" stroke-linejoin="round" d=" M 64.231, 176.960 64.430, 178.973 65.103, 179.794 73.532, 185.176 76.119, 186.828 " />
            <path fill="none" stroke-width="3.0" stroke-linecap="butt" stroke-opacity="1.0" stroke="rgb(0, 0, 0)" stroke-linejoin="round" d=" M 64.231, 176.960 66.074, 179.630 66.762, 180.565 68.707, 181.159 72.234, 181.619 75.195, 185.623 76.119, 186.828 77.338, 188.415 77.372, 188.427 77.542, 188.481 78.282, 188.694 " />
            <path fill="none" stroke-width="3.0" stroke-linecap="butt" stroke-opacity="1.0" stroke="rgb(0, 0, 0)" stroke-linejoin="round" d=" M 67.795, 104.323 68.751, 110.529 71.232, 118.589 73.105, 122.178 72.877, 122.965 " />
            <path fill="none" stroke-width="3.0" stroke-linecap="butt" stroke-opacity="1.0" stroke="rgb(0, 0, 0)" stroke-linejoin="round" d=" M 77.184, 86.697 74.869, 88.512 70.869, 91.465 69.626, 93.592 68.692, 96.560 68.751, 98.164 70.229, 102.858 " />
            <path fill="none" stroke-width="3.0" stroke-linecap="butt" stroke-opacity="1.0" stroke="rgb(0, 0, 0)" stroke-linejoin="round" d=" M 89.808, 91.270 89.915, 91.481 90.928, 94.143 94.722, 97.800 " />
            <path fill="none" stroke-width="3.0" stroke-linecap="butt" stroke-opacity="1.0" stroke="rgb(0, 0, 0)" stroke-linejoin="round" d=" M 87.434, 188.468 92.661, 191.997 101.511, 193.796 108.660, 195.458 112.044, 194.317 114.860, 192.846 " />
            <path fill="none" stroke-width="3.0" stroke-linecap="butt" stroke-opacity="1.0" stroke="rgb(0, 0, 0)" stroke-linejoin="round" d=" M 97.391, 106.292 97.591, 106.817 97.575, 106.967 97.220, 110.260 97.182, 110.927 96.613, 120.910 96.249, 127.283 95.618, 129.761 " />
            <path fill="none" stroke-width="3.0" stroke-linecap="butt" stroke-opacity="1.0" stroke="rgb(0, 0, 0)" stroke-linejoin="round" d=" M 121.938, 189.800 124.230, 187.331 124.491, 187.352 126.423, 187.507 128.008, 187.386 131.594, 187.114 133.633, 185.252 136.449, 182.899 137.539, 180.616 139.640, 176.078 143.984, 174.893 148.171, 172.883 149.383, 170.482 152.439, 167.344 153.097, 165.365 154.669, 161.206 154.632, 159.406 154.326, 154.980 149.782, 146.072 149.682, 145.875 148.046, 142.581 142.936, 146.380 135.550, 153.122 133.264, 155.208 123.703, 158.140 119.036, 159.571 112.169, 161.583 " />
            <path fill="none" stroke-width="3.0" stroke-linecap="butt" stroke-opacity="1.0" stroke="rgb(0, 0, 0)" stroke-linejoin="round" d=" M 126.636, 137.097 128.902, 133.878 129.889, 132.485 130.870, 127.600 131.268, 125.178 130.953, 122.379 130.353, 117.908 128.625, 115.253 126.896, 112.573 123.995, 111.596 120.814, 110.576 116.607, 111.987 " />
            <path fill="none" stroke-width="3.0" stroke-linecap="butt" stroke-opacity="1.0" stroke="rgb(0, 0, 0)" stroke-linejoin="round" d=" M 140.204, 115.792 140.305, 116.039 140.305, 116.040 140.304, 116.070 140.240, 126.069 140.234, 127.042 140.234, 127.045 137.236, 134.262 137.232, 134.269 137.104, 134.489 137.100, 134.496 132.089, 139.704 132.086, 139.705 131.894, 139.763 131.889, 139.764 131.068, 139.796 " />
            <path fill="none" stroke-width="3.0" stroke-linecap="butt" stroke-opacity="1.0" stroke="rgb(0, 0, 0)" stroke-linejoin="round" d=" M 132.086, 139.705 137.104, 134.489 " />
            <path fill="none" stroke-width="3.0" stroke-linecap="butt" stroke-opacity="1.0" stroke="rgb(0, 0, 0)" stroke-linejoin="round" d=" M 170.067, 188.760 171.347, 189.110 174.797, 189.447 178.171, 188.251 186.084, 182.136 188.383, 180.360 189.382, 178.900 189.413, 178.004 188.041, 175.847 186.930, 174.064 " />
        </g>
    </g>
</svg>
