<?xml version='1.0' encoding='ascii'?>
<svg xmlns="http://www.w3.org/2000/svg" version="1.1" width="250" height="250">
    <g id="ViewLayer_LineSet" xmlns:inkscape="http://www.inkscape.org/namespaces/inkscape" inkscape:groupmode="lineset" inkscape:label="ViewLayer_LineSet">
        <g xmlns:inkscape="http://www.inkscape.org/namespaces/inkscape" inkscape:groupmode="layer" id="strokes" inkscape:label="strokes">
            <path fill="none" stroke-width="3.0" stroke-linecap="butt" stroke-opacity="1.0" stroke="rgb(0, 0, 0)" stroke-linejoin="round" d=" M 163.809, 188.444 168.679, 182.558 172.247, 182.240 174.890, 181.567 177.443, 178.100 178.428, 176.876 179.853, 172.403 180.783, 170.088 185.539, 167.602 186.010, 167.356 187.062, 166.448 187.726, 162.402 188.424, 161.044 188.998, 156.792 189.250, 155.257 188.789, 151.012 188.595, 149.597 186.675, 145.944 186.180, 145.002 183.293, 139.011 181.499, 141.291 " />
            <path fill="none" stroke-width="3.0" stroke-linecap="butt" stroke-opacity="1.0" stroke="rgb(0, 0, 0)" stroke-linejoin="round" d=" M 146.870, 96.549 149.127, 94.240 151.210, 91.561 " />
            <path fill="none" stroke-width="3.0" stroke-linecap="butt" stroke-opacity="1.0" stroke="rgb(0, 0, 0)" stroke-linejoin="round" d=" M 193.709, 90.582 193.709, 90.581 191.015, 80.951 190.672, 79.723 184.877, 76.898 182.761, 75.866 174.064, 70.929 170.328, 68.809 168.394, 68.740 158.399, 68.408 148.889, 68.091 " />
            <path fill="none" stroke-width="3.0" stroke-linecap="butt" stroke-opacity="1.0" stroke="rgb(0, 0, 0)" stroke-linejoin="round" d=" M 182.478, 116.984 183.323, 115.752 184.546, 110.183 185.506, 100.229 186.090, 94.181 186.087, 94.150 " />
            <path fill="none" stroke-width="3.0" stroke-linecap="butt" stroke-opacity="1.0" stroke="rgb(0, 0, 0)" stroke-linejoin="round" d=" M 112.981, 187.083 115.112, 188.729 115.871, 189.315 115.982, 189.401 119.801, 192.350 127.470, 192.601 128.907, 192.647 " />
            <path fill="none" stroke-width="3.0" stroke-linecap="butt" stroke-opacity="1.0" stroke="rgb(0, 0, 0)" stroke-linejoin="round" d=" M 147.501, 187.039 154.667, 190.146 155.913, 190.686 163.161, 189.251 " />
            <path fill="none" stroke-width="3.0" stroke-linecap="butt" stroke-opacity="1.0" stroke="rgb(0, 0, 0)" stroke-linejoin="round" d=" M 90.057, 97.501 90.029, 105.990 95.144, 98.903 100.545, 93.604 109.899, 90.068 110.292, 89.919 120.242, 90.401 125.927, 94.713 131.201, 101.287 129.188, 93.586 124.140, 86.244 117.517, 82.566 " />
            <path fill="none" stroke-width="3.0" stroke-linecap="butt" stroke-opacity="1.0" stroke="rgb(0, 0, 0)" stroke-linejoin="round" d=" M 151.897, 90.834 159.427, 90.497 166.692, 94.135 171.017, 99.136 175.252, 105.755 " />
            <path fill="none" stroke-width="3.0" stroke-linecap="butt" stroke-opacity="1.0" stroke="rgb(0, 0, 0)" stroke-linejoin="round" d=" M 149.589, 85.450 145.455, 91.579 143.412, 101.451 " />
            <path fill="none" stroke-width="3.0" stroke-linecap="butt" stroke-opacity="1.0" stroke="rgb(0, 0, 0)" stroke-linejoin="round" d=" M 116.394, 137.667 116.666, 137.715 121.508, 138.570 " />
            <path fill="none" stroke-width="3.0" stroke-linecap="butt" stroke-opacity="1.0" stroke="rgb(0, 0, 0)" stroke-linejoin="round" d=" M 147.299, 110.106 146.160, 110.585 " />
            <path fill="none" stroke-width="3.0" stroke-linecap="butt" stroke-opacity="1.0" stroke="rgb(0, 0, 0)" stroke-linejoin="round" d=" M 124.700, 108.351 121.756, 103.320 111.798, 102.320 104.645, 108.082 101.109, 116.546 101.378, 126.543 101.395, 127.180 104.457, 134.354 109.810, 139.200 " />
            <path fill="none" stroke-width="3.0" stroke-linecap="butt" stroke-opacity="1.0" stroke="rgb(0, 0, 0)" stroke-linejoin="round" d=" M 160.905, 129.974 161.943, 125.258 161.955, 115.258 161.955, 114.850 159.069, 106.393 153.603, 101.050 146.134, 102.076 " />
            <path fill="none" stroke-width="3.0" stroke-linecap="butt" stroke-opacity="1.0" stroke="rgb(0, 0, 0)" stroke-linejoin="round" d=" M 175.896, 96.809 179.436, 102.657 184.283, 102.577 184.417, 97.607 182.429, 95.862 186.087, 94.150 193.707, 90.584 193.708, 90.584 " />
            <path fill="none" stroke-width="3.0" stroke-linecap="butt" stroke-opacity="1.0" stroke="rgb(0, 0, 0)" stroke-linejoin="round" d=" M 69.778, 181.433 67.042, 172.616 66.830, 171.936 " />
            <path fill="none" stroke-width="3.0" stroke-linecap="butt" stroke-opacity="1.0" stroke="rgb(0, 0, 0)" stroke-linejoin="round" d=" M 67.001, 159.849 64.184, 163.165 65.821, 168.907 66.339, 171.886 66.414, 172.115 66.733, 173.089 69.750, 182.300 69.873, 182.675 72.696, 186.697 80.485, 192.969 82.051, 194.230 89.786, 200.568 93.857, 203.904 100.152, 206.926 109.087, 211.417 110.261, 212.007 111.434, 212.364 121.331, 213.794 123.248, 214.071 128.877, 215.896 135.946, 212.611 " />
            <path fill="none" stroke-width="3.0" stroke-linecap="butt" stroke-opacity="1.0" stroke="rgb(0, 0, 0)" stroke-linejoin="round" d=" M 186.675, 145.944 187.015, 140.447 184.796, 137.429 178.329, 129.802 178.243, 129.700 177.493, 126.056 179.055, 126.597 178.579, 123.664 182.450, 117.375 179.494, 121.291 182.478, 116.984 " />
            <path fill="none" stroke-width="3.0" stroke-linecap="butt" stroke-opacity="1.0" stroke="rgb(0, 0, 0)" stroke-linejoin="round" d=" M 111.920, 70.876 102.505, 74.247 97.646, 75.988 95.994, 76.537 91.590, 80.757 84.566, 87.875 77.542, 94.992 75.516, 97.044 77.216, 98.241 " />
            <path fill="none" stroke-width="3.0" stroke-linecap="butt" stroke-opacity="1.0" stroke="rgb(0, 0, 0)" stroke-linejoin="round" d=" M 115.112, 188.729 116.389, 191.466 115.982, 189.401 " />
            <path fill="none" stroke-width="3.0" stroke-linecap="butt" stroke-opacity="1.0" stroke="rgb(0, 0, 0)" stroke-linejoin="round" d=" M 59.915, 137.146 59.140, 135.481 58.529, 132.457 60.029, 136.713 59.915, 137.146 58.235, 143.543 57.188, 148.067 57.440, 150.155 60.831, 155.537 64.994, 153.141 " />
            <path fill="none" stroke-width="3.0" stroke-linecap="butt" stroke-opacity="1.0" stroke="rgb(0, 0, 0)" stroke-linejoin="round" d=" M 130.650, 173.932 138.872, 179.624 139.347, 179.952 142.447, 180.764 144.274, 180.918 146.765, 181.128 149.458, 181.355 149.984, 181.400 155.162, 180.585 160.920, 179.680 166.047, 178.615 171.796, 177.422 173.183, 176.747 173.507, 176.222 179.201, 168.001 181.958, 164.023 183.180, 155.230 182.416, 150.294 182.083, 148.144 180.314, 142.796 179.096, 139.114 178.141, 137.318 174.862, 134.458 174.808, 134.410 167.396, 131.497 164.869, 130.428 160.905, 129.974 157.887, 129.629 156.239, 129.441 154.552, 129.248 145.742, 128.478 145.127, 128.574 145.063, 128.584 142.173, 129.040 140.888, 129.320 131.118, 131.451 130.488, 131.589 128.936, 131.927 128.836, 132.021 122.562, 137.834 122.198, 138.089 121.603, 138.503 121.508, 138.570 119.876, 139.708 119.520, 139.957 119.098, 142.224 117.267, 152.055 116.478, 156.294 116.477, 156.300 116.475, 156.316 116.476, 156.319 116.477, 156.328 116.489, 156.361 116.476, 156.319 116.472, 156.309 117.988, 146.424 118.580, 142.562 119.098, 142.224 122.528, 139.986 121.741, 138.724 121.662, 138.597 121.603, 138.503 121.591, 138.483 122.510, 137.654 128.754, 132.026 128.836, 132.021 129.163, 132.001 130.409, 131.746 " />
            <path fill="none" stroke-width="3.0" stroke-linecap="butt" stroke-opacity="1.0" stroke="rgb(0, 0, 0)" stroke-linejoin="round" d=" M 66.733, 173.089 64.164, 177.017 67.368, 180.145 69.750, 182.300 " />
            <path fill="none" stroke-width="3.0" stroke-linecap="butt" stroke-opacity="1.0" stroke="rgb(0, 0, 0)" stroke-linejoin="round" d=" M 125.135, 161.062 118.326, 158.925 108.803, 155.871 103.817, 154.273 96.968, 148.746 90.014, 141.483 88.152, 145.231 83.839, 153.582 83.738, 156.103 83.435, 159.736 84.116, 162.079 85.428, 165.854 86.708, 168.543 89.115, 171.620 93.322, 172.815 97.404, 174.948 99.471, 179.032 100.780, 181.821 103.112, 183.956 105.616, 186.180 110.849, 186.711 113.206, 186.592 113.270, 186.589 114.445, 187.298 115.719, 188.067 116.132, 188.315 115.925, 189.109 115.871, 189.315 " />
            <path fill="none" stroke-width="3.0" stroke-linecap="butt" stroke-opacity="1.0" stroke="rgb(0, 0, 0)" stroke-linejoin="round" d=" M 124.865, 111.284 118.751, 109.988 116.036, 111.137 112.836, 112.629 111.662, 114.956 109.901, 118.297 109.817, 121.590 109.704, 125.490 110.674, 128.828 111.804, 132.587 113.240, 134.232 116.372, 137.657 116.388, 137.661 116.476, 137.677 116.666, 137.715 " />
            <path fill="none" stroke-width="3.0" stroke-linecap="butt" stroke-opacity="1.0" stroke="rgb(0, 0, 0)" stroke-linejoin="round" d=" M 127.470, 192.601 128.508, 193.341 131.219, 194.622 137.068, 194.336 147.056, 193.846 147.414, 193.829 154.667, 190.146 " />
            <path fill="none" stroke-width="3.0" stroke-linecap="butt" stroke-opacity="1.0" stroke="rgb(0, 0, 0)" stroke-linejoin="round" d=" M 135.946, 212.611 137.346, 210.610 145.704, 209.796 151.476, 206.939 155.055, 204.295 160.989, 199.551 160.991, 199.548 161.003, 199.537 158.709, 194.908 165.288, 191.089 174.110, 186.381 180.844, 182.786 182.803, 179.693 184.507, 171.173 185.539, 167.602 " />
            <path fill="none" stroke-width="3.0" stroke-linecap="butt" stroke-opacity="1.0" stroke="rgb(0, 0, 0)" stroke-linejoin="round" d=" M 133.253, 190.291 139.849, 187.155 142.793, 185.755 143.173, 185.720 143.857, 185.470 143.939, 185.495 " />
            <path fill="none" stroke-width="3.0" stroke-linecap="butt" stroke-opacity="1.0" stroke="rgb(0, 0, 0)" stroke-linejoin="round" d=" M 144.519, 111.274 144.388, 107.553 144.364, 106.842 144.357, 106.647 144.587, 106.240 " />
            <path fill="none" stroke-width="3.0" stroke-linecap="butt" stroke-opacity="1.0" stroke="rgb(0, 0, 0)" stroke-linejoin="round" d=" M 157.887, 129.629 158.134, 124.380 158.213, 123.269 157.965, 122.172 156.754, 116.913 156.279, 116.064 154.107, 111.824 153.818, 111.680 153.028, 110.997 150.060, 110.275 147.958, 109.911 147.365, 110.133 146.160, 110.585 " />
            <path fill="none" stroke-width="3.0" stroke-linecap="butt" stroke-opacity="1.0" stroke="rgb(0, 0, 0)" stroke-linejoin="round" d=" M 174.808, 101.723 175.896, 96.809 176.015, 96.272 175.543, 95.477 172.908, 91.065 172.270, 90.633 " />
            <path fill="none" stroke-width="3.0" stroke-linecap="butt" stroke-opacity="1.0" stroke="rgb(0, 0, 0)" stroke-linejoin="round" d=" M 184.877, 76.898 184.397, 68.711 182.584, 62.800 176.625, 54.769 173.680, 50.799 168.296, 42.371 167.954, 41.835 161.059, 36.205 152.827, 30.527 148.196, 27.333 144.633, 27.060 134.673, 26.177 124.712, 25.294 114.751, 24.411 108.522, 23.859 107.655, 23.739 101.312, 26.460 92.358, 30.913 86.950, 33.603 84.938, 35.464 77.547, 42.200 76.689, 42.983 69.873, 50.299 67.485, 52.863 65.562, 54.652 60.763, 62.661 55.986, 71.446 51.208, 80.231 48.449, 85.304 47.583, 94.045 45.466, 103.818 43.879, 111.142 44.191, 120.650 51.705, 127.249 55.498, 130.581 56.312, 131.874 54.659, 132.301 51.676, 133.288 47.270, 137.609 46.194, 140.265 43.633, 147.554 42.646, 152.412 43.117, 155.842 45.269, 164.627 46.989, 165.832 49.963, 169.294 56.963, 172.501 64.196, 173.071 66.414, 172.115 " />
        </g>
    </g>
</svg>
