<?xml version='1.0' encoding='ascii'?>
<svg xmlns="http://www.w3.org/2000/svg" version="1.1" width="250" height="250">
    <g id="ViewLayer_LineSet" xmlns:inkscape="http://www.inkscape.org/namespaces/inkscape" inkscape:groupmode="lineset" inkscape:label="ViewLayer_LineSet">
        <g xmlns:inkscape="http://www.inkscape.org/namespaces/inkscape" inkscape:groupmode="layer" id="strokes" inkscape:label="strokes">
            <path fill="none" stroke-width="3.0" stroke-linecap="butt" stroke-opacity="1.0" stroke="rgb(0, 0, 0)" stroke-linejoin="round" d=" M 158.521, 96.643 158.359, 96.290 150.420, 90.210 148.725, 88.911 " />
            <path fill="none" stroke-width="3.0" stroke-linecap="butt" stroke-opacity="1.0" stroke="rgb(0, 0, 0)" stroke-linejoin="round" d=" M 72.046, 104.766 76.229, 95.683 76.629, 94.814 76.594, 94.204 " />
            <path fill="none" stroke-width="3.0" stroke-linecap="butt" stroke-opacity="1.0" stroke="rgb(0, 0, 0)" stroke-linejoin="round" d=" M 184.264, 146.265 188.556, 148.473 187.476, 140.511 187.344, 139.537 188.448, 137.481 188.390, 138.874 187.476, 140.511 " />
            <path fill="none" stroke-width="3.0" stroke-linecap="butt" stroke-opacity="1.0" stroke="rgb(0, 0, 0)" stroke-linejoin="round" d=" M 133.722, 107.363 137.158, 115.990 137.084, 117.193 136.998, 127.153 134.189, 133.765 133.585, 134.732 129.021, 139.582 128.417, 139.754 126.624, 139.811 " />
            <path fill="none" stroke-width="3.0" stroke-linecap="butt" stroke-opacity="1.0" stroke="rgb(0, 0, 0)" stroke-linejoin="round" d=" M 103.800, 192.432 110.620, 192.545 112.578, 192.577 115.798, 190.272 116.984, 189.422 119.458, 187.651 " />
            <path fill="none" stroke-width="3.0" stroke-linecap="butt" stroke-opacity="1.0" stroke="rgb(0, 0, 0)" stroke-linejoin="round" d=" M 74.125, 187.518 79.799, 189.245 79.844, 189.258 84.104, 187.365 90.116, 184.693 " />
            <path fill="none" stroke-width="3.0" stroke-linecap="butt" stroke-opacity="1.0" stroke="rgb(0, 0, 0)" stroke-linejoin="round" d=" M 69.204, 105.813 70.022, 104.316 70.406, 103.616 72.728, 99.369 76.178, 94.460 76.594, 94.204 81.934, 90.914 87.150, 91.220 " />
            <path fill="none" stroke-width="3.0" stroke-linecap="butt" stroke-opacity="1.0" stroke="rgb(0, 0, 0)" stroke-linejoin="round" d=" M 94.278, 101.740 92.135, 94.250 90.409, 87.171 86.968, 83.773 " />
            <path fill="none" stroke-width="3.0" stroke-linecap="butt" stroke-opacity="1.0" stroke="rgb(0, 0, 0)" stroke-linejoin="round" d=" M 108.335, 91.979 106.411, 101.792 106.385, 101.924 111.274, 95.376 117.056, 91.038 127.040, 90.475 127.190, 90.466 136.564, 93.950 137.022, 94.120 142.285, 99.425 147.256, 106.601 147.593, 97.980 143.970, 90.891 " />
            <path fill="none" stroke-width="3.0" stroke-linecap="butt" stroke-opacity="1.0" stroke="rgb(0, 0, 0)" stroke-linejoin="round" d=" M 116.617, 139.407 122.766, 137.770 " />
            <path fill="none" stroke-width="3.0" stroke-linecap="butt" stroke-opacity="1.0" stroke="rgb(0, 0, 0)" stroke-linejoin="round" d=" M 133.588, 107.029 126.916, 101.415 117.011, 102.475 114.051, 107.529 113.592, 111.860 " />
            <path fill="none" stroke-width="3.0" stroke-linecap="butt" stroke-opacity="1.0" stroke="rgb(0, 0, 0)" stroke-linejoin="round" d=" M 94.670, 103.579 89.010, 102.538 85.555, 107.896 83.080, 115.743 82.582, 125.665 82.836, 128.961 " />
            <path fill="none" stroke-width="3.0" stroke-linecap="butt" stroke-opacity="1.0" stroke="rgb(0, 0, 0)" stroke-linejoin="round" d=" M 195.588, 134.494 203.500, 128.379 205.130, 127.119 206.341, 128.952 208.009, 123.008 208.841, 119.579 205.919, 110.015 202.996, 100.452 202.106, 97.540 200.039, 87.756 198.694, 81.392 193.329, 72.953 187.964, 64.514 185.794, 61.102 180.664, 55.210 178.966, 52.091 171.398, 45.555 163.830, 39.018 162.333, 37.725 155.854, 32.198 146.756, 28.048 137.657, 23.897 135.626, 22.971 135.300, 22.950 133.483, 22.999 123.622, 24.659 113.760, 26.318 103.899, 27.977 100.901, 28.482 96.039, 29.341 88.261, 35.627 86.551, 37.009 79.307, 43.903 76.840, 46.251 75.078, 49.630 71.590, 55.200 68.872, 64.824 67.699, 68.973 67.761, 70.319 " />
            <path fill="none" stroke-width="3.0" stroke-linecap="butt" stroke-opacity="1.0" stroke="rgb(0, 0, 0)" stroke-linejoin="round" d=" M 76.340, 121.551 76.006, 120.786 74.476, 117.283 74.125, 116.578 74.125, 116.593 74.141, 117.092 74.223, 118.721 73.777, 120.554 73.108, 129.498 " />
            <path fill="none" stroke-width="3.0" stroke-linecap="butt" stroke-opacity="1.0" stroke="rgb(0, 0, 0)" stroke-linejoin="round" d=" M 81.900, 190.648 77.747, 192.180 81.259, 196.404 82.228, 197.381 86.599, 202.087 93.636, 208.694 94.045, 209.047 96.935, 210.390 101.301, 210.330 106.760, 210.708 110.467, 214.225 110.362, 213.812 113.892, 215.390 120.723, 213.819 130.715, 213.423 131.818, 213.379 135.485, 212.646 144.688, 208.736 145.652, 208.326 146.070, 207.897 148.303, 206.429 156.283, 200.403 163.364, 195.057 169.125, 189.267 169.253, 189.073 174.566, 181.061 176.943, 178.563 178.968, 176.436 179.759, 175.604 180.170, 174.914 180.483, 175.022 189.861, 174.918 192.111, 174.893 201.345, 171.054 204.538, 169.727 205.751, 168.686 206.264, 168.368 209.561, 158.927 209.981, 157.725 210.342, 155.895 209.277, 149.438 205.513, 140.308 204.500, 138.439 200.968, 135.260 198.273, 134.518 195.588, 134.494 " />
            <path fill="none" stroke-width="3.0" stroke-linecap="butt" stroke-opacity="1.0" stroke="rgb(0, 0, 0)" stroke-linejoin="round" d=" M 82.561, 69.436 72.579, 70.031 67.761, 70.319 65.904, 70.429 63.152, 70.609 55.204, 76.688 46.540, 81.682 45.240, 82.432 45.161, 84.635 54.336, 88.612 63.512, 92.588 68.294, 94.660 66.701, 97.495 69.544, 103.335 " />
            <path fill="none" stroke-width="3.0" stroke-linecap="butt" stroke-opacity="1.0" stroke="rgb(0, 0, 0)" stroke-linejoin="round" d=" M 70.022, 104.316 70.369, 105.027 70.650, 104.983 72.046, 104.766 " />
            <path fill="none" stroke-width="3.0" stroke-linecap="butt" stroke-opacity="1.0" stroke="rgb(0, 0, 0)" stroke-linejoin="round" d=" M 115.798, 190.272 117.678, 190.773 118.932, 190.346 120.996, 190.034 121.011, 191.222 121.012, 191.293 119.625, 191.144 121.011, 191.222 121.765, 191.264 121.463, 195.046 " />
            <path fill="none" stroke-width="3.0" stroke-linecap="butt" stroke-opacity="1.0" stroke="rgb(0, 0, 0)" stroke-linejoin="round" d=" M 86.690, 131.473 89.478, 129.311 89.543, 129.261 89.997, 129.221 92.382, 129.806 94.202, 130.254 94.442, 130.313 94.201, 130.264 92.416, 129.904 89.478, 129.311 88.843, 129.183 86.497, 128.809 86.264, 128.772 84.630, 128.862 82.836, 128.961 73.108, 129.498 65.705, 129.906 62.361, 130.122 62.001, 130.213 61.437, 130.360 54.221, 137.284 53.932, 137.561 53.404, 142.495 48.525, 151.224 48.425, 151.402 47.472, 154.628 48.234, 159.186 52.908, 167.053 56.243, 173.479 62.720, 177.741 63.054, 177.887 64.048, 178.319 65.133, 178.504 71.319, 179.557 77.872, 180.672 81.730, 180.455 85.576, 180.239 88.489, 179.576 97.799, 175.926 99.912, 175.098 " />
            <path fill="none" stroke-width="3.0" stroke-linecap="butt" stroke-opacity="1.0" stroke="rgb(0, 0, 0)" stroke-linejoin="round" d=" M 63.054, 177.887 63.621, 178.764 64.148, 179.521 65.652, 180.032 66.389, 180.147 69.165, 180.581 70.893, 183.297 71.920, 184.913 73.794, 187.327 74.071, 187.426 74.589, 187.610 76.572, 188.263 " />
            <path fill="none" stroke-width="3.0" stroke-linecap="butt" stroke-opacity="1.0" stroke="rgb(0, 0, 0)" stroke-linejoin="round" d=" M 68.994, 93.067 68.016, 96.582 68.206, 99.402 69.564, 103.190 " />
            <path fill="none" stroke-width="3.0" stroke-linecap="butt" stroke-opacity="1.0" stroke="rgb(0, 0, 0)" stroke-linejoin="round" d=" M 70.650, 104.983 70.738, 105.479 73.653, 115.044 74.125, 116.593 " />
            <path fill="none" stroke-width="3.0" stroke-linecap="butt" stroke-opacity="1.0" stroke="rgb(0, 0, 0)" stroke-linejoin="round" d=" M 84.104, 187.365 84.882, 188.243 89.004, 191.165 97.958, 193.273 104.698, 195.087 107.657, 194.127 110.620, 192.545 " />
            <path fill="none" stroke-width="3.0" stroke-linecap="butt" stroke-opacity="1.0" stroke="rgb(0, 0, 0)" stroke-linejoin="round" d=" M 87.150, 91.220 87.352, 91.800 87.738, 93.878 92.045, 97.976 " />
            <path fill="none" stroke-width="3.0" stroke-linecap="butt" stroke-opacity="1.0" stroke="rgb(0, 0, 0)" stroke-linejoin="round" d=" M 90.116, 184.693 90.120, 184.694 90.345, 185.084 94.408, 186.928 100.921, 190.615 " />
            <path fill="none" stroke-width="3.0" stroke-linecap="butt" stroke-opacity="1.0" stroke="rgb(0, 0, 0)" stroke-linejoin="round" d=" M 93.516, 110.298 91.953, 109.842 90.893, 110.049 89.854, 110.400 88.024, 112.610 87.286, 113.159 85.881, 116.463 85.177, 118.002 84.711, 121.527 84.422, 123.816 84.521, 126.130 84.630, 128.862 " />
            <path fill="none" stroke-width="3.0" stroke-linecap="butt" stroke-opacity="1.0" stroke="rgb(0, 0, 0)" stroke-linejoin="round" d=" M 95.084, 105.392 95.053, 105.968 94.359, 110.538 94.358, 110.543 94.319, 110.800 93.618, 120.776 93.325, 124.933 92.014, 128.761 92.382, 129.806 " />
            <path fill="none" stroke-width="3.0" stroke-linecap="butt" stroke-opacity="1.0" stroke="rgb(0, 0, 0)" stroke-linejoin="round" d=" M 116.984, 189.422 118.955, 187.229 119.282, 187.262 120.907, 187.424 125.112, 187.171 126.143, 187.108 128.072, 185.396 131.048, 182.985 132.002, 180.983 134.125, 176.186 138.190, 175.140 142.641, 173.078 143.825, 170.858 147.163, 167.581 147.748, 165.892 149.520, 161.441 149.508, 159.992 149.212, 155.178 144.724, 146.242 144.449, 145.695 142.930, 142.614 137.758, 146.354 130.241, 152.950 127.722, 155.161 118.143, 158.031 113.936, 159.291 106.876, 161.263 " />
            <path fill="none" stroke-width="3.0" stroke-linecap="butt" stroke-opacity="1.0" stroke="rgb(0, 0, 0)" stroke-linejoin="round" d=" M 124.042, 135.907 125.764, 133.436 126.436, 132.489 127.593, 126.911 127.888, 125.188 127.684, 123.191 127.022, 117.903 125.590, 115.622 123.670, 112.527 121.019, 111.595 117.728, 110.480 113.592, 111.860 " />
            <path fill="none" stroke-width="3.0" stroke-linecap="butt" stroke-opacity="1.0" stroke="rgb(0, 0, 0)" stroke-linejoin="round" d=" M 169.253, 189.073 171.545, 189.529 173.524, 190.099 177.180, 190.540 181.123, 189.277 189.291, 183.508 190.127, 182.917 191.959, 180.300 192.077, 178.568 189.861, 174.918 " />
            <path fill="none" stroke-width="3.0" stroke-linecap="butt" stroke-opacity="1.0" stroke="rgb(0, 0, 0)" stroke-linejoin="round" d=" M 178.968, 176.436 179.107, 177.118 176.943, 178.563 " />
        </g>
    </g>
</svg>
