<?xml version='1.0' encoding='ascii'?>
<svg xmlns="http://www.w3.org/2000/svg" version="1.1" width="250" height="250">
    <g id="ViewLayer_LineSet" xmlns:inkscape="http://www.inkscape.org/namespaces/inkscape" inkscape:groupmode="lineset" inkscape:label="ViewLayer_LineSet">
        <g xmlns:inkscape="http://www.inkscape.org/namespaces/inkscape" inkscape:groupmode="layer" id="strokes" inkscape:label="strokes">
            <path fill="none" stroke-width="3.0" stroke-linecap="butt" stroke-opacity="1.0" stroke="rgb(0, 0, 0)" stroke-linejoin="round" d=" M 136.090, 187.279 137.088, 186.238 138.877, 184.372 138.919, 184.328 141.387, 184.416 146.543, 183.789 148.763, 181.572 151.204, 179.329 152.563, 176.390 154.551, 172.387 159.357, 170.885 162.842, 169.041 164.019, 166.249 166.363, 163.506 167.127, 160.832 168.207, 157.422 168.065, 154.735 167.747, 151.306 163.734, 143.662 161.639, 139.447 156.440, 143.598 149.428, 150.728 148.446, 151.727 138.943, 154.838 136.189, 155.740 " />
            <path fill="none" stroke-width="3.0" stroke-linecap="butt" stroke-opacity="1.0" stroke="rgb(0, 0, 0)" stroke-linejoin="round" d=" M 104.645, 185.110 105.855, 184.571 108.034, 183.600 108.163, 183.610 109.385, 183.740 111.500, 184.545 111.673, 184.611 115.370, 186.557 " />
            <path fill="none" stroke-width="3.0" stroke-linecap="butt" stroke-opacity="1.0" stroke="rgb(0, 0, 0)" stroke-linejoin="round" d=" M 104.553, 109.348 100.490, 108.288 99.134, 108.700 96.395, 109.779 95.178, 110.815 94.867, 110.998 92.488, 115.669 92.132, 116.336 91.400, 122.041 91.311, 122.884 91.399, 123.716 91.673, 126.788 " />
            <path fill="none" stroke-width="3.0" stroke-linecap="butt" stroke-opacity="1.0" stroke="rgb(0, 0, 0)" stroke-linejoin="round" d=" M 165.986, 83.657 159.335, 76.190 157.780, 74.445 154.151, 73.138 144.826, 69.524 135.502, 65.910 132.254, 64.652 131.635, 64.664 121.636, 64.819 111.638, 64.974 106.931, 65.046 96.935, 65.318 86.939, 65.589 85.025, 65.641 82.516, 65.705 73.746, 70.509 69.151, 73.027 61.163, 76.782 61.061, 77.077 57.788, 86.526 56.373, 90.609 59.290, 92.189 64.507, 95.015 62.614, 96.587 61.990, 100.603 67.943, 101.350 73.525, 93.053 75.298, 90.418 79.565, 82.470 78.380, 74.444 85.040, 67.649 95.000, 66.762 104.961, 65.875 105.470, 65.830 106.698, 65.457 107.493, 65.289 108.222, 65.358 108.995, 65.461 118.993, 65.261 128.991, 65.061 132.682, 64.987 141.920, 68.815 151.159, 72.643 153.930, 73.791 159.216, 82.280 162.394, 87.382 167.905, 92.244 173.225, 98.011 176.148, 95.954 169.778, 88.245 165.986, 83.657 " />
            <path fill="none" stroke-width="3.0" stroke-linecap="butt" stroke-opacity="1.0" stroke="rgb(0, 0, 0)" stroke-linejoin="round" d=" M 191.097, 129.275 198.626, 122.694 200.616, 120.954 201.083, 110.965 201.318, 105.953 199.544, 96.112 199.040, 93.314 198.667, 87.195 194.158, 78.269 190.988, 71.994 186.127, 63.255 182.210, 56.213 178.588, 52.627 171.970, 45.131 165.352, 37.634 162.608, 34.526 162.376, 34.394 153.305, 30.183 144.235, 25.973 141.566, 24.734 139.321, 24.968 129.340, 25.580 119.359, 26.193 109.378, 26.805 104.678, 27.093 100.590, 27.278 92.209, 32.734 87.501, 35.800 80.940, 40.858 75.260, 49.088 74.124, 50.734 67.910, 58.569 65.408, 61.724 62.104, 71.162 61.471, 72.973 61.061, 77.077 " />
            <path fill="none" stroke-width="3.0" stroke-linecap="butt" stroke-opacity="1.0" stroke="rgb(0, 0, 0)" stroke-linejoin="round" d=" M 190.911, 149.427 191.327, 147.320 189.515, 142.038 186.984, 136.083 186.939, 135.977 188.387, 131.279 187.520, 134.860 186.984, 136.083 " />
            <path fill="none" stroke-width="3.0" stroke-linecap="butt" stroke-opacity="1.0" stroke="rgb(0, 0, 0)" stroke-linejoin="round" d=" M 98.746, 205.931 103.820, 208.917 104.445, 209.003 105.259, 209.115 108.529, 209.564 109.451, 211.285 " />
            <path fill="none" stroke-width="3.0" stroke-linecap="butt" stroke-opacity="1.0" stroke="rgb(0, 0, 0)" stroke-linejoin="round" d=" M 85.511, 128.251 76.518, 132.624 74.058, 133.821 74.057, 133.822 74.056, 133.823 74.601, 141.245 72.025, 145.458 71.859, 146.230 71.049, 149.987 70.593, 152.102 70.946, 162.082 71.614, 163.015 76.386, 169.674 80.950, 173.017 83.710, 174.645 85.407, 175.013 89.211, 175.840 89.893, 175.988 95.145, 177.128 98.099, 177.593 104.047, 178.529 106.102, 178.326 110.573, 177.885 113.480, 177.175 122.632, 173.146 131.784, 169.116 131.985, 169.028 " />
            <path fill="none" stroke-width="3.0" stroke-linecap="butt" stroke-opacity="1.0" stroke="rgb(0, 0, 0)" stroke-linejoin="round" d=" M 121.028, 189.497 123.233, 190.643 127.810, 190.440 132.364, 190.238 135.092, 188.072 137.160, 186.429 139.107, 184.883 " />
            <path fill="none" stroke-width="3.0" stroke-linecap="butt" stroke-opacity="1.0" stroke="rgb(0, 0, 0)" stroke-linejoin="round" d=" M 82.487, 182.341 86.039, 186.376 87.551, 188.095 95.268, 189.301 " />
            <path fill="none" stroke-width="3.0" stroke-linecap="butt" stroke-opacity="1.0" stroke="rgb(0, 0, 0)" stroke-linejoin="round" d=" M 73.667, 104.312 78.178, 97.592 82.727, 92.479 90.558, 88.733 98.412, 88.942 " />
            <path fill="none" stroke-width="3.0" stroke-linecap="butt" stroke-opacity="1.0" stroke="rgb(0, 0, 0)" stroke-linejoin="round" d=" M 107.280, 99.439 105.083, 91.812 101.941, 84.789 96.972, 81.437 " />
            <path fill="none" stroke-width="3.0" stroke-linecap="butt" stroke-opacity="1.0" stroke="rgb(0, 0, 0)" stroke-linejoin="round" d=" M 128.572, 83.530 122.800, 89.706 120.585, 99.457 120.536, 99.670 125.796, 93.152 131.347, 88.986 141.262, 88.658 150.556, 92.349 150.808, 92.449 156.085, 97.689 161.128, 104.698 161.004, 96.927 160.995, 96.386 " />
            <path fill="none" stroke-width="3.0" stroke-linecap="butt" stroke-opacity="1.0" stroke="rgb(0, 0, 0)" stroke-linejoin="round" d=" M 140.522, 137.828 145.788, 132.433 148.580, 125.126 148.691, 115.127 148.700, 114.271 145.159, 105.407 138.485, 99.813 128.768, 100.719 125.974, 105.704 125.692, 110.051 " />
            <path fill="none" stroke-width="3.0" stroke-linecap="butt" stroke-opacity="1.0" stroke="rgb(0, 0, 0)" stroke-linejoin="round" d=" M 105.584, 106.781 103.688, 101.883 95.864, 101.028 90.615, 106.700 87.427, 114.824 87.064, 124.818 87.057, 125.023 87.554, 127.374 " />
            <path fill="none" stroke-width="3.0" stroke-linecap="butt" stroke-opacity="1.0" stroke="rgb(0, 0, 0)" stroke-linejoin="round" d=" M 63.897, 120.124 66.976, 124.803 66.524, 128.597 67.809, 128.113 67.450, 130.502 61.630, 137.228 59.052, 140.790 58.759, 146.872 59.257, 148.769 60.394, 149.603 " />
            <path fill="none" stroke-width="3.0" stroke-linecap="butt" stroke-opacity="1.0" stroke="rgb(0, 0, 0)" stroke-linejoin="round" d=" M 135.092, 188.072 136.605, 188.268 136.997, 188.136 138.052, 187.780 136.522, 190.240 136.997, 188.136 " />
            <path fill="none" stroke-width="3.0" stroke-linecap="butt" stroke-opacity="1.0" stroke="rgb(0, 0, 0)" stroke-linejoin="round" d=" M 186.987, 155.627 190.911, 149.427 " />
            <path fill="none" stroke-width="3.0" stroke-linecap="butt" stroke-opacity="1.0" stroke="rgb(0, 0, 0)" stroke-linejoin="round" d=" M 94.064, 200.575 94.968, 202.021 98.251, 205.419 98.746, 205.931 " />
            <path fill="none" stroke-width="3.0" stroke-linecap="butt" stroke-opacity="1.0" stroke="rgb(0, 0, 0)" stroke-linejoin="round" d=" M 59.290, 92.189 59.106, 93.413 59.671, 103.397 59.811, 105.875 61.581, 115.717 61.805, 116.962 63.580, 119.277 69.191, 127.555 69.446, 127.932 " />
            <path fill="none" stroke-width="3.0" stroke-linecap="butt" stroke-opacity="1.0" stroke="rgb(0, 0, 0)" stroke-linejoin="round" d=" M 70.945, 145.079 70.791, 144.885 66.130, 137.447 63.271, 143.213 61.326, 146.823 60.544, 148.273 60.394, 149.603 60.092, 152.282 59.842, 154.028 60.421, 157.984 60.754, 159.869 60.827, 160.223 61.575, 163.845 62.420, 165.459 66.104, 167.074 66.727, 167.347 68.321, 168.585 68.865, 169.007 69.944, 171.592 71.389, 175.871 73.945, 179.047 75.232, 180.576 78.804, 181.371 81.916, 181.540 82.562, 182.153 84.886, 184.360 86.039, 186.376 " />
            <path fill="none" stroke-width="3.0" stroke-linecap="butt" stroke-opacity="1.0" stroke="rgb(0, 0, 0)" stroke-linejoin="round" d=" M 60.827, 160.223 60.561, 164.985 61.905, 169.380 62.243, 172.627 67.334, 181.235 71.080, 187.570 79.864, 192.349 80.506, 192.698 81.948, 195.730 90.617, 200.716 94.194, 202.774 98.251, 205.419 " />
            <path fill="none" stroke-width="3.0" stroke-linecap="butt" stroke-opacity="1.0" stroke="rgb(0, 0, 0)" stroke-linejoin="round" d=" M 136.189, 155.740 136.408, 154.909 136.772, 153.458 136.634, 152.072 136.128, 150.742 133.996, 140.972 133.371, 138.110 133.066, 136.711 132.838, 136.550 128.076, 133.187 124.393, 130.024 122.994, 128.823 119.929, 128.112 112.210, 126.322 110.367, 126.029 106.573, 125.427 105.010, 125.554 95.317, 126.337 93.483, 126.564 91.673, 126.788 87.802, 127.267 87.554, 127.374 85.511, 128.251 " />
            <path fill="none" stroke-width="3.0" stroke-linecap="butt" stroke-opacity="1.0" stroke="rgb(0, 0, 0)" stroke-linejoin="round" d=" M 100.135, 90.607 101.690, 92.311 103.556, 94.300 " />
            <path fill="none" stroke-width="3.0" stroke-linecap="butt" stroke-opacity="1.0" stroke="rgb(0, 0, 0)" stroke-linejoin="round" d=" M 97.490, 188.308 103.415, 191.950 110.500, 192.824 119.819, 194.157 123.511, 192.732 127.810, 190.440 " />
            <path fill="none" stroke-width="3.0" stroke-linecap="butt" stroke-opacity="1.0" stroke="rgb(0, 0, 0)" stroke-linejoin="round" d=" M 104.445, 209.003 106.440, 210.124 110.291, 211.693 119.265, 216.105 119.477, 216.210 123.534, 214.770 133.425, 213.297 136.723, 212.806 137.001, 212.709 145.678, 207.737 147.439, 206.728 154.700, 203.150 162.660, 197.096 166.534, 194.150 173.521, 187.653 178.460, 180.080 179.056, 178.603 179.665, 177.095 181.498, 172.555 181.911, 171.533 182.404, 169.162 184.588, 160.423 " />
            <path fill="none" stroke-width="3.0" stroke-linecap="butt" stroke-opacity="1.0" stroke="rgb(0, 0, 0)" stroke-linejoin="round" d=" M 134.742, 136.010 135.302, 135.843 135.607, 135.742 135.686, 135.716 137.980, 132.598 139.676, 130.217 140.260, 127.177 140.906, 122.938 140.258, 117.809 139.957, 115.729 137.337, 111.908 136.375, 110.506 132.560, 109.310 130.042, 108.591 125.692, 110.051 " />
            <path fill="none" stroke-width="3.0" stroke-linecap="butt" stroke-opacity="1.0" stroke="rgb(0, 0, 0)" stroke-linejoin="round" d=" M 132.838, 136.550 134.742, 136.010 135.590, 135.769 " />
            <path fill="none" stroke-width="3.0" stroke-linecap="butt" stroke-opacity="1.0" stroke="rgb(0, 0, 0)" stroke-linejoin="round" d=" M 161.004, 96.927 160.984, 96.366 160.978, 96.183 157.661, 90.012 157.267, 89.415 156.828, 89.162 " />
            <path fill="none" stroke-width="3.0" stroke-linecap="butt" stroke-opacity="1.0" stroke="rgb(0, 0, 0)" stroke-linejoin="round" d=" M 179.056, 178.603 179.997, 177.594 179.665, 177.095 " />
            <path fill="none" stroke-width="3.0" stroke-linecap="butt" stroke-opacity="1.0" stroke="rgb(0, 0, 0)" stroke-linejoin="round" d=" M 181.498, 172.555 182.351, 173.005 189.371, 172.403 195.807, 169.454 198.541, 165.893 200.350, 164.612 202.247, 156.200 202.680, 152.494 201.651, 147.977 199.307, 141.193 198.261, 138.224 193.360, 133.280 192.719, 133.050 189.299, 132.084 191.097, 129.275 " />
        </g>
    </g>
</svg>
