<?xml version='1.0' encoding='ascii'?>
<svg xmlns="http://www.w3.org/2000/svg" version="1.1" width="250" height="250">
    <g id="ViewLayer_LineSet" xmlns:inkscape="http://www.inkscape.org/namespaces/inkscape" inkscape:groupmode="lineset" inkscape:label="ViewLayer_LineSet">
        <g xmlns:inkscape="http://www.inkscape.org/namespaces/inkscape" inkscape:groupmode="layer" id="strokes" inkscape:label="strokes">
            <path fill="none" stroke-width="3.0" stroke-linecap="butt" stroke-opacity="1.0" stroke="rgb(0, 0, 0)" stroke-linejoin="round" d=" M 113.467, 191.676 119.622, 189.071 122.122, 188.012 122.480, 188.019 123.654, 187.990 125.934, 188.731 126.441, 188.896 127.166, 189.238 131.201, 191.141 " />
            <path fill="none" stroke-width="3.0" stroke-linecap="butt" stroke-opacity="1.0" stroke="rgb(0, 0, 0)" stroke-linejoin="round" d=" M 109.670, 94.747 111.050, 95.949 111.958, 96.965 " />
            <path fill="none" stroke-width="3.0" stroke-linecap="butt" stroke-opacity="1.0" stroke="rgb(0, 0, 0)" stroke-linejoin="round" d=" M 111.349, 112.010 107.443, 111.081 105.190, 111.861 101.310, 113.460 100.885, 114.207 98.058, 118.943 98.025, 119.382 97.526, 126.039 98.929, 131.840 99.257, 133.114 101.801, 136.229 102.382, 136.858 " />
            <path fill="none" stroke-width="3.0" stroke-linecap="butt" stroke-opacity="1.0" stroke="rgb(0, 0, 0)" stroke-linejoin="round" d=" M 185.836, 99.045 185.835, 99.044 180.007, 90.918 174.179, 82.792 172.043, 79.812 167.608, 78.124 158.361, 74.316 150.412, 71.043 " />
            <path fill="none" stroke-width="3.0" stroke-linecap="butt" stroke-opacity="1.0" stroke="rgb(0, 0, 0)" stroke-linejoin="round" d=" M 188.189, 123.150 193.452, 117.475 194.704, 107.553 195.956, 97.632 196.892, 90.207 196.901, 89.440 196.808, 89.095 196.703, 88.421 192.497, 79.348 188.292, 70.275 184.086, 61.203 182.725, 58.265 177.214, 52.171 171.017, 44.323 164.774, 36.416 162.751, 35.064 153.987, 30.248 145.223, 25.432 144.015, 24.767 142.833, 24.816 132.833, 24.850 122.833, 24.884 112.833, 24.918 104.306, 24.948 102.982, 24.906 94.275, 29.824 85.569, 34.743 84.879, 35.133 82.461, 36.791 76.291, 44.660 70.494, 52.053 64.622, 58.578 60.521, 67.698 56.419, 76.818 52.317, 85.938 51.933, 86.791 51.648, 88.813 51.379, 89.853 51.428, 92.155 52.777, 102.063 54.127, 111.972 54.852, 117.300 59.661, 122.590 62.454, 126.580 " />
            <path fill="none" stroke-width="3.0" stroke-linecap="butt" stroke-opacity="1.0" stroke="rgb(0, 0, 0)" stroke-linejoin="round" d=" M 108.696, 208.854 111.098, 210.205 111.396, 210.243 115.528, 210.762 115.927, 212.277 " />
            <path fill="none" stroke-width="3.0" stroke-linecap="butt" stroke-opacity="1.0" stroke="rgb(0, 0, 0)" stroke-linejoin="round" d=" M 101.851, 137.225 98.681, 139.236 95.109, 141.502 92.675, 148.430 89.971, 151.158 89.441, 151.840 89.026, 156.316 88.672, 160.141 88.742, 166.237 90.773, 167.455 94.964, 171.182 99.173, 175.892 100.114, 176.945 104.557, 180.968 105.902, 182.185 112.660, 183.728 113.674, 183.847 122.536, 184.884 132.033, 183.753 134.205, 183.194 137.558, 182.332 141.046, 180.523 145.635, 178.144 147.059, 176.596 151.644, 171.611 154.010, 166.040 155.707, 159.234 155.354, 156.958 154.772, 153.197 152.428, 148.957 150.093, 141.555 147.096, 139.714 144.168, 137.915 143.846, 137.718 143.364, 137.421 138.577, 133.976 128.752, 132.136 125.849, 131.592 122.743, 131.159 119.427, 131.605 118.335, 131.804 108.498, 133.602 106.595, 133.950 102.908, 136.496 102.382, 136.858 101.851, 137.225 " />
            <path fill="none" stroke-width="3.0" stroke-linecap="butt" stroke-opacity="1.0" stroke="rgb(0, 0, 0)" stroke-linejoin="round" d=" M 137.147, 193.862 137.337, 193.840 145.750, 192.895 147.808, 190.976 148.317, 190.501 149.174, 189.702 151.804, 187.249 " />
            <path fill="none" stroke-width="3.0" stroke-linecap="butt" stroke-opacity="1.0" stroke="rgb(0, 0, 0)" stroke-linejoin="round" d=" M 94.218, 187.199 100.198, 192.859 108.725, 193.852 " />
            <path fill="none" stroke-width="3.0" stroke-linecap="butt" stroke-opacity="1.0" stroke="rgb(0, 0, 0)" stroke-linejoin="round" d=" M 78.640, 107.000 83.481, 100.131 88.488, 94.969 97.361, 91.376 106.384, 91.895 " />
            <path fill="none" stroke-width="3.0" stroke-linecap="butt" stroke-opacity="1.0" stroke="rgb(0, 0, 0)" stroke-linejoin="round" d=" M 116.539, 102.846 114.283, 95.158 110.177, 87.738 104.301, 84.053 " />
            <path fill="none" stroke-width="3.0" stroke-linecap="butt" stroke-opacity="1.0" stroke="rgb(0, 0, 0)" stroke-linejoin="round" d=" M 136.440, 95.166 140.088, 92.041 149.368, 91.519 158.294, 95.117 163.350, 100.248 168.212, 107.105 " />
            <path fill="none" stroke-width="3.0" stroke-linecap="butt" stroke-opacity="1.0" stroke="rgb(0, 0, 0)" stroke-linejoin="round" d=" M 137.386, 86.598 132.097, 92.962 129.931, 102.724 129.876, 102.972 " />
            <path fill="none" stroke-width="3.0" stroke-linecap="butt" stroke-opacity="1.0" stroke="rgb(0, 0, 0)" stroke-linejoin="round" d=" M 147.485, 139.672 152.552, 134.243 154.904, 126.906 154.974, 116.906 154.978, 116.232 151.595, 107.557 145.199, 102.122 136.092, 103.268 133.611, 108.365 133.520, 112.721 " />
            <path fill="none" stroke-width="3.0" stroke-linecap="butt" stroke-opacity="1.0" stroke="rgb(0, 0, 0)" stroke-linejoin="round" d=" M 112.834, 109.569 110.405, 104.485 101.421, 103.353 95.267, 108.895 91.907, 117.141 91.885, 127.141 91.884, 127.568 94.098, 134.725 98.681, 139.236 " />
            <path fill="none" stroke-width="3.0" stroke-linecap="butt" stroke-opacity="1.0" stroke="rgb(0, 0, 0)" stroke-linejoin="round" d=" M 178.352, 101.025 185.632, 100.342 185.171, 99.709 184.735, 99.478 185.834, 99.047 185.835, 99.046 " />
            <path fill="none" stroke-width="3.0" stroke-linecap="butt" stroke-opacity="1.0" stroke="rgb(0, 0, 0)" stroke-linejoin="round" d=" M 62.417, 126.177 61.298, 124.545 62.398, 125.972 62.417, 126.177 62.454, 126.580 62.724, 129.508 62.738, 129.663 63.015, 132.785 62.441, 133.858 57.966, 142.801 57.434, 143.865 57.577, 148.408 59.808, 153.708 61.784, 154.916 62.307, 157.816 62.135, 167.036 62.394, 168.611 62.722, 170.605 62.918, 171.193 63.768, 173.510 69.093, 181.974 73.181, 188.469 75.959, 192.768 78.146, 193.707 78.609, 194.474 87.536, 198.979 96.463, 203.485 97.279, 203.897 103.319, 207.382 110.198, 210.525 114.730, 211.946 123.439, 215.870 132.001, 212.064 137.076, 210.599 143.687, 207.408 149.535, 203.797 158.529, 199.426 167.523, 195.054 168.321, 194.666 168.276, 194.027 171.279, 192.853 174.726, 187.542 180.074, 179.093 183.642, 173.458 184.451, 171.633 184.603, 171.145 184.939, 168.971 185.176, 167.439 185.331, 158.039 185.714, 155.353 186.934, 154.789 189.969, 148.300 190.579, 144.508 186.163, 135.536 185.806, 134.811 184.792, 133.044 185.162, 129.679 185.305, 128.381 185.451, 127.093 185.531, 126.380 185.550, 126.208 186.244, 125.321 185.531, 126.380 " />
            <path fill="none" stroke-width="3.0" stroke-linecap="butt" stroke-opacity="1.0" stroke="rgb(0, 0, 0)" stroke-linejoin="round" d=" M 95.750, 70.763 86.543, 74.666 78.471, 78.088 73.635, 79.953 67.998, 88.213 62.361, 96.473 61.214, 98.153 63.526, 99.054 62.628, 99.547 61.772, 100.779 68.720, 101.158 " />
            <path fill="none" stroke-width="3.0" stroke-linecap="butt" stroke-opacity="1.0" stroke="rgb(0, 0, 0)" stroke-linejoin="round" d=" M 149.174, 189.702 149.699, 189.529 149.387, 190.671 148.317, 190.501 " />
            <path fill="none" stroke-width="3.0" stroke-linecap="butt" stroke-opacity="1.0" stroke="rgb(0, 0, 0)" stroke-linejoin="round" d=" M 105.583, 205.969 108.696, 208.854 " />
            <path fill="none" stroke-width="3.0" stroke-linecap="butt" stroke-opacity="1.0" stroke="rgb(0, 0, 0)" stroke-linejoin="round" d=" M 62.738, 129.663 61.159, 130.178 60.447, 130.679 56.224, 135.441 55.532, 138.770 54.046, 144.039 53.210, 147.231 53.605, 152.253 54.533, 159.019 57.019, 161.352 60.432, 167.540 62.394, 168.611 " />
            <path fill="none" stroke-width="3.0" stroke-linecap="butt" stroke-opacity="1.0" stroke="rgb(0, 0, 0)" stroke-linejoin="round" d=" M 89.026, 156.316 85.203, 154.806 80.294, 149.734 74.298, 141.783 72.104, 146.289 68.506, 153.195 68.452, 153.937 68.258, 156.595 67.994, 159.100 68.737, 162.466 69.416, 165.081 69.658, 165.823 70.605, 168.721 71.935, 170.836 76.492, 172.532 79.376, 174.420 80.876, 177.512 82.439, 181.272 85.130, 184.144 86.772, 185.835 90.778, 186.516 94.035, 186.592 94.370, 186.853 97.471, 189.273 98.040, 190.817 " />
            <path fill="none" stroke-width="3.0" stroke-linecap="butt" stroke-opacity="1.0" stroke="rgb(0, 0, 0)" stroke-linejoin="round" d=" M 110.480, 193.047 114.688, 195.297 122.803, 195.723 131.505, 196.261 137.337, 193.840 " />
            <path fill="none" stroke-width="3.0" stroke-linecap="butt" stroke-opacity="1.0" stroke="rgb(0, 0, 0)" stroke-linejoin="round" d=" M 134.621, 96.895 135.203, 96.227 135.236, 96.188 136.440, 95.166 " />
            <path fill="none" stroke-width="3.0" stroke-linecap="butt" stroke-opacity="1.0" stroke="rgb(0, 0, 0)" stroke-linejoin="round" d=" M 135.589, 210.226 135.652, 210.218 138.479, 208.855 143.731, 204.443 " />
            <path fill="none" stroke-width="3.0" stroke-linecap="butt" stroke-opacity="1.0" stroke="rgb(0, 0, 0)" stroke-linejoin="round" d=" M 144.168, 137.915 144.264, 137.879 145.660, 135.942 148.047, 132.360 148.229, 131.185 148.936, 125.128 147.883, 118.348 147.825, 118.015 144.702, 113.798 144.083, 112.974 140.253, 111.925 137.548, 111.289 137.096, 111.449 135.061, 112.169 " />
            <path fill="none" stroke-width="3.0" stroke-linecap="butt" stroke-opacity="1.0" stroke="rgb(0, 0, 0)" stroke-linejoin="round" d=" M 147.808, 190.976 148.267, 190.493 148.949, 189.776 151.660, 186.924 151.936, 186.634 155.289, 186.560 159.170, 185.901 161.655, 183.147 163.424, 181.345 164.791, 178.098 164.956, 177.705 166.508, 174.496 168.472, 173.729 171.812, 172.424 174.157, 170.917 175.235, 167.541 176.803, 165.335 177.534, 162.203 177.589, 161.970 178.277, 159.341 178.220, 158.551 178.039, 156.027 177.767, 153.424 174.130, 146.501 171.929, 142.027 167.902, 145.891 161.678, 153.717 160.785, 154.840 155.354, 156.958 " />
            <path fill="none" stroke-width="3.0" stroke-linecap="butt" stroke-opacity="1.0" stroke="rgb(0, 0, 0)" stroke-linejoin="round" d=" M 184.939, 168.971 185.521, 168.857 187.967, 167.522 191.447, 161.553 193.872, 159.361 194.979, 152.364 195.362, 147.568 194.476, 144.172 192.825, 138.641 192.104, 135.461 187.728, 130.645 187.299, 130.347 185.162, 129.679 " />
            <path fill="none" stroke-width="3.0" stroke-linecap="butt" stroke-opacity="1.0" stroke="rgb(0, 0, 0)" stroke-linejoin="round" d=" M 185.451, 127.093 188.189, 123.150 " />
        </g>
    </g>
</svg>
