<?xml version='1.0' encoding='ascii'?>
<svg xmlns="http://www.w3.org/2000/svg" version="1.1" width="250" height="250">
    <g id="ViewLayer_LineSet" xmlns:inkscape="http://www.inkscape.org/namespaces/inkscape" inkscape:groupmode="lineset" inkscape:label="ViewLayer_LineSet">
        <g xmlns:inkscape="http://www.inkscape.org/namespaces/inkscape" inkscape:groupmode="layer" id="strokes" inkscape:label="strokes">
            <path fill="none" stroke-width="3.0" stroke-linecap="butt" stroke-opacity="1.0" stroke="rgb(0, 0, 0)" stroke-linejoin="round" d=" M 81.798, 106.765 79.144, 111.239 79.324, 113.272 " />
            <path fill="none" stroke-width="3.0" stroke-linecap="butt" stroke-opacity="1.0" stroke="rgb(0, 0, 0)" stroke-linejoin="round" d=" M 104.569, 107.396 106.990, 107.769 107.057, 107.842 107.950, 108.805 111.527, 112.653 114.478, 115.350 " />
            <path fill="none" stroke-width="3.0" stroke-linecap="butt" stroke-opacity="1.0" stroke="rgb(0, 0, 0)" stroke-linejoin="round" d=" M 134.734, 114.830 137.500, 112.361 141.115, 108.477 142.083, 107.503 142.152, 107.435 144.968, 106.990 " />
            <path fill="none" stroke-width="3.0" stroke-linecap="butt" stroke-opacity="1.0" stroke="rgb(0, 0, 0)" stroke-linejoin="round" d=" M 108.327, 123.700 104.910, 124.726 102.795, 125.469 101.490, 127.483 99.330, 130.711 99.194, 132.077 98.655, 137.587 100.135, 144.083 100.228, 144.477 103.544, 148.742 104.208, 149.504 107.852, 150.427 110.443, 150.990 " />
            <path fill="none" stroke-width="3.0" stroke-linecap="butt" stroke-opacity="1.0" stroke="rgb(0, 0, 0)" stroke-linejoin="round" d=" M 186.220, 112.514 179.759, 107.613 178.490, 107.473 178.120, 107.890 " />
            <path fill="none" stroke-width="3.0" stroke-linecap="butt" stroke-opacity="1.0" stroke="rgb(0, 0, 0)" stroke-linejoin="round" d=" M 188.505, 116.747 188.506, 116.746 192.740, 111.841 195.101, 102.124 197.462, 92.407 198.543, 87.958 198.612, 87.528 198.596, 87.423 198.601, 87.273 194.392, 78.202 190.182, 69.131 185.973, 60.061 184.950, 57.857 182.876, 55.498 178.363, 49.567 170.978, 42.825 168.853, 40.884 164.029, 36.421 155.035, 32.049 150.115, 29.657 141.548, 29.351 131.548, 29.327 121.548, 29.304 115.239, 29.289 106.820, 29.262 98.136, 29.539 89.120, 33.865 84.575, 36.046 79.138, 40.924 71.671, 47.575 68.109, 50.747 64.493, 55.330 62.867, 57.108 58.508, 66.108 54.149, 75.108 51.711, 80.142 48.667, 86.717 48.724, 87.608 48.508, 88.638 50.754, 98.383 53.000, 108.127 53.852, 111.825 58.691, 117.400 63.694, 123.204 63.110, 123.099 " />
            <path fill="none" stroke-width="3.0" stroke-linecap="butt" stroke-opacity="1.0" stroke="rgb(0, 0, 0)" stroke-linejoin="round" d=" M 67.803, 110.072 69.111, 108.748 69.776, 108.357 69.760, 108.005 68.806, 108.043 62.429, 112.678 65.039, 112.088 65.896, 111.895 69.385, 111.106 66.975, 111.301 65.896, 111.895 63.484, 113.222 65.039, 112.088 67.803, 110.072 " />
            <path fill="none" stroke-width="3.0" stroke-linecap="butt" stroke-opacity="1.0" stroke="rgb(0, 0, 0)" stroke-linejoin="round" d=" M 144.743, 114.182 146.398, 113.802 146.402, 113.801 146.561, 113.901 146.836, 114.127 " />
            <path fill="none" stroke-width="3.0" stroke-linecap="butt" stroke-opacity="1.0" stroke="rgb(0, 0, 0)" stroke-linejoin="round" d=" M 142.797, 156.539 143.619, 157.942 147.578, 162.997 150.357, 172.603 150.699, 173.784 150.454, 174.128 " />
            <path fill="none" stroke-width="3.0" stroke-linecap="butt" stroke-opacity="1.0" stroke="rgb(0, 0, 0)" stroke-linejoin="round" d=" M 79.193, 119.707 83.922, 113.346 88.930, 108.743 98.020, 106.224 107.057, 107.842 " />
            <path fill="none" stroke-width="3.0" stroke-linecap="butt" stroke-opacity="1.0" stroke="rgb(0, 0, 0)" stroke-linejoin="round" d=" M 117.833, 119.571 115.549, 112.435 111.224, 104.103 " />
            <path fill="none" stroke-width="3.0" stroke-linecap="butt" stroke-opacity="1.0" stroke="rgb(0, 0, 0)" stroke-linejoin="round" d=" M 142.083, 107.503 151.019, 105.914 159.897, 108.375 164.803, 112.983 169.410, 119.293 " />
            <path fill="none" stroke-width="3.0" stroke-linecap="butt" stroke-opacity="1.0" stroke="rgb(0, 0, 0)" stroke-linejoin="round" d=" M 139.019, 102.560 133.608, 109.599 131.251, 119.163 " />
            <path fill="none" stroke-width="3.0" stroke-linecap="butt" stroke-opacity="1.0" stroke="rgb(0, 0, 0)" stroke-linejoin="round" d=" M 138.142, 123.940 134.598, 125.538 " />
            <path fill="none" stroke-width="3.0" stroke-linecap="butt" stroke-opacity="1.0" stroke="rgb(0, 0, 0)" stroke-linejoin="round" d=" M 137.250, 115.998 134.721, 121.325 134.598, 125.538 " />
            <path fill="none" stroke-width="3.0" stroke-linecap="butt" stroke-opacity="1.0" stroke="rgb(0, 0, 0)" stroke-linejoin="round" d=" M 113.841, 122.748 111.311, 117.328 102.091, 115.029 95.848, 119.195 92.609, 126.778 92.836, 136.759 95.259, 144.143 100.317, 148.939 109.832, 151.729 110.443, 150.990 " />
            <path fill="none" stroke-width="3.0" stroke-linecap="butt" stroke-opacity="1.0" stroke="rgb(0, 0, 0)" stroke-linejoin="round" d=" M 138.496, 151.367 138.874, 151.253 " />
            <path fill="none" stroke-width="3.0" stroke-linecap="butt" stroke-opacity="1.0" stroke="rgb(0, 0, 0)" stroke-linejoin="round" d=" M 142.108, 150.276 147.813, 148.552 152.901, 143.431 155.381, 136.154 155.766, 126.291 152.646, 118.437 146.398, 113.802 " />
            <path fill="none" stroke-width="3.0" stroke-linecap="butt" stroke-opacity="1.0" stroke="rgb(0, 0, 0)" stroke-linejoin="round" d=" M 182.749, 111.783 184.500, 113.088 181.782, 111.579 180.944, 111.114 178.841, 110.960 181.782, 111.579 182.749, 111.783 186.220, 112.514 " />
            <path fill="none" stroke-width="3.0" stroke-linecap="butt" stroke-opacity="1.0" stroke="rgb(0, 0, 0)" stroke-linejoin="round" d=" M 63.110, 123.099 58.897, 118.411 61.847, 122.139 61.957, 122.891 62.511, 126.676 63.079, 130.775 62.171, 133.176 58.882, 142.620 58.371, 144.086 58.779, 148.793 60.827, 153.439 63.484, 156.078 64.209, 159.339 64.551, 160.877 65.034, 170.865 65.161, 173.503 65.174, 173.556 65.177, 173.564 65.189, 173.596 65.242, 173.674 70.959, 181.879 76.160, 189.341 85.615, 192.585 " />
            <path fill="none" stroke-width="3.0" stroke-linecap="butt" stroke-opacity="1.0" stroke="rgb(0, 0, 0)" stroke-linejoin="round" d=" M 160.810, 194.289 169.640, 189.860 173.174, 188.661 176.303, 183.903 180.551, 175.242 182.103, 172.466 182.889, 162.497 182.978, 161.379 183.328, 158.951 183.793, 155.728 185.714, 153.550 188.135, 148.193 189.132, 143.908 185.589, 134.556 184.892, 132.718 183.902, 130.541 184.336, 127.149 184.948, 122.752 185.060, 121.942 188.430, 117.646 183.494, 123.038 " />
            <path fill="none" stroke-width="3.0" stroke-linecap="butt" stroke-opacity="1.0" stroke="rgb(0, 0, 0)" stroke-linejoin="round" d=" M 105.416, 157.150 105.418, 157.028 105.536, 157.013 105.416, 157.150 102.538, 160.455 99.803, 162.515 96.665, 172.010 96.167, 173.515 95.839, 174.508 94.145, 178.108 92.039, 182.970 92.172, 187.436 94.147, 195.786 94.227, 196.127 96.521, 197.908 97.044, 198.313 100.242, 200.796 101.658, 201.895 103.275, 203.150 103.600, 203.429 103.702, 203.515 106.120, 205.585 111.577, 206.771 121.004, 207.923 128.715, 207.874 137.966, 206.636 143.579, 205.412 146.392, 202.867 151.647, 198.780 153.355, 197.452 155.386, 195.872 155.866, 194.700 156.599, 192.908 157.139, 184.243 155.466, 177.554 153.435, 174.231 153.021, 173.012 149.808, 163.542 149.555, 162.798 146.379, 160.423 142.797, 156.539 " />
            <path fill="none" stroke-width="3.0" stroke-linecap="butt" stroke-opacity="1.0" stroke="rgb(0, 0, 0)" stroke-linejoin="round" d=" M 61.957, 122.891 61.597, 122.825 58.413, 123.396 55.950, 126.341 55.512, 128.077 53.893, 134.250 53.271, 137.468 53.954, 142.341 55.315, 148.763 58.311, 152.015 63.181, 159.372 64.209, 159.339 " />
            <path fill="none" stroke-width="3.0" stroke-linecap="butt" stroke-opacity="1.0" stroke="rgb(0, 0, 0)" stroke-linejoin="round" d=" M 96.167, 173.515 87.828, 169.973 84.608, 166.454 78.830, 158.292 76.585, 155.121 75.761, 156.895 71.404, 165.896 71.126, 166.471 71.073, 169.424 70.966, 171.949 71.886, 175.202 72.661, 177.594 74.351, 182.021 75.258, 183.407 80.500, 185.473 82.763, 187.046 84.021, 189.281 85.615, 192.585 85.872, 193.119 89.333, 196.497 90.175, 197.285 91.867, 197.584 96.521, 197.908 " />
            <path fill="none" stroke-width="3.0" stroke-linecap="butt" stroke-opacity="1.0" stroke="rgb(0, 0, 0)" stroke-linejoin="round" d=" M 97.044, 198.313 99.420, 204.265 99.669, 204.464 99.732, 204.508 104.953, 207.962 113.190, 212.320 114.273, 212.875 122.765, 214.452 123.978, 214.615 125.197, 214.438 133.612, 212.774 134.915, 212.177 142.813, 207.936 148.014, 205.158 148.781, 204.652 153.025, 201.966 153.975, 198.632 154.279, 197.565 154.720, 197.344 " />
            <path fill="none" stroke-width="3.0" stroke-linecap="butt" stroke-opacity="1.0" stroke="rgb(0, 0, 0)" stroke-linejoin="round" d=" M 137.021, 150.895 138.665, 151.237 " />
            <path fill="none" stroke-width="3.0" stroke-linecap="butt" stroke-opacity="1.0" stroke="rgb(0, 0, 0)" stroke-linejoin="round" d=" M 137.021, 150.895 138.703, 151.220 138.874, 151.253 139.118, 151.300 141.750, 150.425 142.108, 150.276 145.563, 148.833 145.874, 148.378 148.902, 143.673 148.958, 143.571 148.961, 143.566 148.980, 143.471 149.712, 136.663 148.716, 131.065 148.493, 129.955 146.038, 127.051 144.500, 125.272 142.420, 124.839 140.077, 124.388 " />
            <path fill="none" stroke-width="3.0" stroke-linecap="butt" stroke-opacity="1.0" stroke="rgb(0, 0, 0)" stroke-linejoin="round" d=" M 154.720, 197.344 155.943, 197.247 156.846, 197.176 158.320, 196.890 160.810, 194.289 161.336, 193.739 162.436, 192.699 164.301, 188.810 165.534, 186.615 171.760, 183.880 173.092, 182.929 174.378, 179.035 175.595, 177.355 176.608, 173.831 177.303, 171.677 177.264, 168.623 177.167, 166.215 172.817, 157.210 172.761, 157.093 171.812, 155.043 170.295, 156.646 164.391, 164.716 160.793, 169.634 153.021, 173.012 " />
            <path fill="none" stroke-width="3.0" stroke-linecap="butt" stroke-opacity="1.0" stroke="rgb(0, 0, 0)" stroke-linejoin="round" d=" M 155.943, 197.247 155.496, 198.535 153.975, 198.632 " />
            <path fill="none" stroke-width="3.0" stroke-linecap="butt" stroke-opacity="1.0" stroke="rgb(0, 0, 0)" stroke-linejoin="round" d=" M 169.304, 113.185 169.562, 110.877 166.583, 105.845 " />
            <path fill="none" stroke-width="3.0" stroke-linecap="butt" stroke-opacity="1.0" stroke="rgb(0, 0, 0)" stroke-linejoin="round" d=" M 183.328, 158.951 183.364, 158.952 188.018, 151.771 191.007, 148.498 192.396, 142.155 193.073, 137.257 192.448, 134.099 190.865, 128.035 190.485, 126.304 187.969, 123.267 185.086, 122.724 " />
        </g>
    </g>
</svg>
