<?xml version='1.0' encoding='ascii'?>
<svg xmlns="http://www.w3.org/2000/svg" version="1.1" width="250" height="250">
    <g id="ViewLayer_LineSet" xmlns:inkscape="http://www.inkscape.org/namespaces/inkscape" inkscape:groupmode="lineset" inkscape:label="ViewLayer_LineSet">
        <g xmlns:inkscape="http://www.inkscape.org/namespaces/inkscape" inkscape:groupmode="layer" id="strokes" inkscape:label="strokes">
            <path fill="none" stroke-width="3.0" stroke-linecap="butt" stroke-opacity="1.0" stroke="rgb(0, 0, 0)" stroke-linejoin="round" d=" M 143.537, 186.290 146.504, 183.152 146.672, 182.974 149.310, 183.009 154.215, 182.291 156.502, 179.860 158.674, 177.732 160.101, 174.464 161.904, 170.778 166.858, 169.084 169.861, 167.368 170.960, 164.357 172.902, 161.858 173.658, 158.835 174.493, 155.826 174.267, 152.735 173.944, 149.794 170.255, 142.895 167.926, 138.241 162.976, 142.475 156.290, 149.911 155.877, 150.370 146.859, 153.504 " />
            <path fill="none" stroke-width="3.0" stroke-linecap="butt" stroke-opacity="1.0" stroke="rgb(0, 0, 0)" stroke-linejoin="round" d=" M 112.276, 184.638 115.959, 182.975 116.110, 182.980 117.479, 183.022 118.494, 183.390 119.064, 183.596 121.658, 184.947 " />
            <path fill="none" stroke-width="3.0" stroke-linecap="butt" stroke-opacity="1.0" stroke="rgb(0, 0, 0)" stroke-linejoin="round" d=" M 106.201, 90.960 107.274, 91.888 107.298, 91.914 108.214, 92.942 " />
            <path fill="none" stroke-width="3.0" stroke-linecap="butt" stroke-opacity="1.0" stroke="rgb(0, 0, 0)" stroke-linejoin="round" d=" M 108.938, 108.920 104.278, 107.770 102.792, 108.272 98.728, 109.951 98.395, 110.204 98.328, 110.241 95.526, 115.486 95.378, 115.757 94.576, 122.434 94.560, 122.612 94.584, 122.786 94.754, 124.298 95.527, 127.673 " />
            <path fill="none" stroke-width="3.0" stroke-linecap="butt" stroke-opacity="1.0" stroke="rgb(0, 0, 0)" stroke-linejoin="round" d=" M 177.940, 89.941 172.068, 81.847 166.378, 74.002 161.021, 71.915 151.815, 68.011 142.609, 64.106 141.605, 63.680 140.034, 63.692 130.034, 63.726 120.034, 63.760 116.016, 63.773 106.017, 63.932 96.018, 64.091 93.252, 64.134 90.846, 64.164 81.894, 68.622 75.395, 71.859 68.084, 75.064 63.769, 84.085 59.411, 93.197 63.156, 95.387 61.925, 96.256 61.109, 98.427 " />
            <path fill="none" stroke-width="3.0" stroke-linecap="butt" stroke-opacity="1.0" stroke="rgb(0, 0, 0)" stroke-linejoin="round" d=" M 189.528, 126.677 196.496, 120.178 197.265, 110.208 198.034, 100.237 198.378, 95.786 197.772, 91.344 197.755, 89.229 195.376, 84.008 190.900, 75.066 186.424, 66.124 182.291, 57.866 176.853, 52.120 170.465, 44.426 164.076, 36.733 163.833, 36.441 161.297, 34.869 152.402, 30.300 143.507, 25.731 143.242, 25.595 140.141, 25.789 130.145, 26.059 120.148, 26.330 110.152, 26.600 105.877, 26.716 101.958, 26.730 93.379, 31.867 87.409, 35.442 82.077, 39.242 76.086, 47.248 73.138, 51.187 66.641, 58.790 65.370, 60.277 61.594, 69.537 57.819, 78.796 57.080, 80.608 55.921, 88.417 55.105, 92.034 55.212, 99.058 56.575, 108.965 57.859, 118.294 61.278, 122.136 64.202, 126.485 " />
            <path fill="none" stroke-width="3.0" stroke-linecap="butt" stroke-opacity="1.0" stroke="rgb(0, 0, 0)" stroke-linejoin="round" d=" M 107.026, 208.326 107.402, 208.546 107.540, 208.626 108.189, 208.731 108.291, 209.000 " />
            <path fill="none" stroke-width="3.0" stroke-linecap="butt" stroke-opacity="1.0" stroke="rgb(0, 0, 0)" stroke-linejoin="round" d=" M 95.243, 127.825 91.111, 130.277 85.923, 133.356 84.682, 136.484 82.811, 137.372 83.349, 141.129 82.062, 143.149 80.935, 149.801 80.701, 151.183 80.575, 159.796 82.000, 160.553 85.635, 163.470 92.414, 169.519 93.727, 170.394 100.455, 174.877 107.255, 176.455 108.504, 176.637 109.645, 176.803 114.639, 177.530 120.968, 176.780 124.339, 175.949 133.480, 171.893 139.868, 169.058 140.139, 168.780 142.545, 166.307 145.901, 156.887 146.134, 156.232 146.859, 153.504 147.262, 151.985 146.798, 147.688 145.182, 143.950 143.448, 137.154 142.821, 134.700 141.416, 133.753 141.186, 133.598 135.996, 130.102 132.043, 127.129 129.541, 126.593 124.594, 125.534 122.897, 125.171 115.664, 124.153 115.178, 124.201 105.654, 125.140 97.995, 126.351 97.098, 126.832 95.527, 127.673 95.243, 127.825 " />
            <path fill="none" stroke-width="3.0" stroke-linecap="butt" stroke-opacity="1.0" stroke="rgb(0, 0, 0)" stroke-linejoin="round" d=" M 128.073, 188.104 131.294, 189.689 134.711, 189.456 140.265, 189.078 142.816, 186.904 142.851, 186.875 146.700, 183.595 " />
            <path fill="none" stroke-width="3.0" stroke-linecap="butt" stroke-opacity="1.0" stroke="rgb(0, 0, 0)" stroke-linejoin="round" d=" M 88.640, 182.475 93.920, 187.771 94.283, 188.135 102.595, 189.102 " />
            <path fill="none" stroke-width="3.0" stroke-linecap="butt" stroke-opacity="1.0" stroke="rgb(0, 0, 0)" stroke-linejoin="round" d=" M 76.436, 103.808 81.198, 96.995 86.050, 91.819 94.503, 88.019 103.028, 88.200 " />
            <path fill="none" stroke-width="3.0" stroke-linecap="butt" stroke-opacity="1.0" stroke="rgb(0, 0, 0)" stroke-linejoin="round" d=" M 112.609, 98.687 110.397, 91.031 106.726, 84.035 101.255, 80.692 " />
            <path fill="none" stroke-width="3.0" stroke-linecap="butt" stroke-opacity="1.0" stroke="rgb(0, 0, 0)" stroke-linejoin="round" d=" M 133.696, 82.922 128.197, 89.008 125.987, 98.761 125.946, 98.944 131.154, 92.462 136.433, 88.372 145.988, 88.134 155.193, 91.962 160.368, 97.164 165.348, 104.091 " />
            <path fill="none" stroke-width="3.0" stroke-linecap="butt" stroke-opacity="1.0" stroke="rgb(0, 0, 0)" stroke-linejoin="round" d=" M 144.666, 137.101 149.843, 131.691 152.376, 124.443 152.436, 114.443 152.441, 113.675 148.957, 104.882 142.418, 99.311 133.034, 100.158 130.412, 105.105 130.237, 109.431 " />
            <path fill="none" stroke-width="3.0" stroke-linecap="butt" stroke-opacity="1.0" stroke="rgb(0, 0, 0)" stroke-linejoin="round" d=" M 109.732, 106.209 107.543, 101.326 99.042, 100.531 93.232, 106.304 89.885, 114.522 89.653, 124.519 89.646, 124.813 91.111, 130.277 " />
            <path fill="none" stroke-width="3.0" stroke-linecap="butt" stroke-opacity="1.0" stroke="rgb(0, 0, 0)" stroke-linejoin="round" d=" M 176.412, 98.625 181.876, 95.961 177.940, 89.941 " />
            <path fill="none" stroke-width="3.0" stroke-linecap="butt" stroke-opacity="1.0" stroke="rgb(0, 0, 0)" stroke-linejoin="round" d=" M 64.203, 126.409 62.425, 123.747 64.204, 126.186 64.203, 126.409 64.202, 126.485 64.169, 131.520 64.534, 131.403 64.614, 131.377 64.596, 132.029 63.014, 133.952 58.248, 141.443 57.707, 142.292 57.694, 143.465 57.650, 147.488 59.056, 151.435 61.365, 152.647 61.500, 156.300 61.023, 166.289 61.015, 166.472 60.906, 168.745 60.990, 169.523 61.035, 169.655 61.237, 170.202 66.352, 178.795 68.322, 182.104 73.464, 190.680 74.075, 191.699 75.329, 192.325 75.544, 192.775 84.263, 197.672 92.982, 202.570 95.835, 204.173 103.465, 208.977 108.138, 211.174 116.638, 214.073 121.630, 216.434 125.184, 215.000 134.976, 212.973 137.462, 212.458 138.898, 211.887 147.411, 206.640 148.605, 205.904 157.491, 201.317 160.827, 199.595 168.762, 193.481 172.910, 189.820 178.213, 181.343 181.342, 176.342 183.160, 171.994 183.615, 170.906 183.980, 169.474 185.848, 159.650 185.938, 159.175 185.971, 157.122 186.120, 156.539 186.464, 156.472 190.772, 148.598 191.266, 145.532 187.745, 137.885 185.950, 134.572 186.540, 131.578 186.638, 131.080 187.037, 129.056 " />
            <path fill="none" stroke-width="3.0" stroke-linecap="butt" stroke-opacity="1.0" stroke="rgb(0, 0, 0)" stroke-linejoin="round" d=" M 142.851, 186.875 143.456, 186.925 144.382, 186.243 142.802, 188.197 142.816, 186.904 " />
            <path fill="none" stroke-width="3.0" stroke-linecap="butt" stroke-opacity="1.0" stroke="rgb(0, 0, 0)" stroke-linejoin="round" d=" M 57.694, 143.465 57.052, 145.814 56.212, 148.580 56.453, 153.996 56.983, 160.342 59.383, 162.654 61.015, 166.472 " />
            <path fill="none" stroke-width="3.0" stroke-linecap="butt" stroke-opacity="1.0" stroke="rgb(0, 0, 0)" stroke-linejoin="round" d=" M 64.534, 131.403 62.119, 133.474 58.917, 137.276 58.297, 141.264 58.248, 141.443 " />
            <path fill="none" stroke-width="3.0" stroke-linecap="butt" stroke-opacity="1.0" stroke="rgb(0, 0, 0)" stroke-linejoin="round" d=" M 80.935, 149.801 80.204, 149.507 75.430, 144.321 70.354, 137.260 68.374, 141.221 67.696, 142.577 64.562, 148.366 64.184, 152.063 63.892, 154.235 64.538, 157.827 65.037, 160.157 66.007, 163.781 67.182, 165.793 69.230, 166.580 71.521, 167.460 74.212, 169.286 75.571, 172.297 77.041, 176.204 79.563, 179.098 81.174, 180.875 85.480, 181.689 87.103, 181.728 88.334, 181.757 88.786, 182.128 91.219, 184.120 91.931, 185.776 " />
            <path fill="none" stroke-width="3.0" stroke-linecap="butt" stroke-opacity="1.0" stroke="rgb(0, 0, 0)" stroke-linejoin="round" d=" M 103.940, 188.482 104.356, 188.825 109.828, 192.014 115.997, 192.528 125.949, 193.502 126.304, 193.536 130.401, 191.841 134.711, 189.456 " />
            <path fill="none" stroke-width="3.0" stroke-linecap="butt" stroke-opacity="1.0" stroke="rgb(0, 0, 0)" stroke-linejoin="round" d=" M 141.416, 133.753 142.540, 132.233 144.551, 129.353 144.922, 127.256 145.624, 122.109 144.745, 115.800 144.611, 114.949 141.558, 110.625 140.976, 109.805 136.818, 108.555 134.565, 107.958 130.452, 109.363 " />
            <path fill="none" stroke-width="3.0" stroke-linecap="butt" stroke-opacity="1.0" stroke="rgb(0, 0, 0)" stroke-linejoin="round" d=" M 183.160, 171.994 187.505, 171.466 192.345, 169.156 195.062, 164.851 197.169, 163.232 198.512, 155.575 198.884, 151.255 197.887, 147.386 195.963, 141.419 195.025, 138.063 190.600, 133.360 189.554, 132.544 186.540, 131.578 " />
            <path fill="none" stroke-width="3.0" stroke-linecap="butt" stroke-opacity="1.0" stroke="rgb(0, 0, 0)" stroke-linejoin="round" d=" M 186.638, 131.080 189.528, 126.677 " />
        </g>
    </g>
</svg>
