<?xml version='1.0' encoding='ascii'?>
<svg xmlns="http://www.w3.org/2000/svg" version="1.1" width="250" height="250">
    <g id="ViewLayer_LineSet" xmlns:inkscape="http://www.inkscape.org/namespaces/inkscape" inkscape:groupmode="lineset" inkscape:label="ViewLayer_LineSet">
        <g xmlns:inkscape="http://www.inkscape.org/namespaces/inkscape" inkscape:groupmode="layer" id="strokes" inkscape:label="strokes">
            <path fill="none" stroke-width="3.0" stroke-linecap="butt" stroke-opacity="1.0" stroke="rgb(0, 0, 0)" stroke-linejoin="round" d=" M 139.965, 188.219 140.183, 187.991 143.050, 184.998 143.153, 184.892 145.879, 184.944 150.709, 184.291 153.008, 181.919 155.251, 179.789 156.669, 176.634 158.529, 172.864 163.498, 171.207 166.647, 169.446 167.799, 166.485 169.896, 163.891 170.669, 161.001 171.614, 157.828 171.436, 154.932 171.122, 151.765 167.210, 144.364 165.058, 140.048 160.187, 144.145 153.395, 151.485 152.482, 152.472 143.024, 155.719 141.875, 156.114 " />
            <path fill="none" stroke-width="3.0" stroke-linecap="butt" stroke-opacity="1.0" stroke="rgb(0, 0, 0)" stroke-linejoin="round" d=" M 107.537, 186.883 108.507, 186.457 112.378, 184.759 112.570, 184.770 113.834, 184.858 115.877, 185.601 116.183, 185.713 120.039, 187.679 " />
            <path fill="none" stroke-width="3.0" stroke-linecap="butt" stroke-opacity="1.0" stroke="rgb(0, 0, 0)" stroke-linejoin="round" d=" M 102.869, 91.627 104.444, 93.188 105.990, 94.856 " />
            <path fill="none" stroke-width="3.0" stroke-linecap="butt" stroke-opacity="1.0" stroke="rgb(0, 0, 0)" stroke-linejoin="round" d=" M 106.576, 109.986 102.499, 108.957 100.903, 109.467 97.225, 110.941 96.708, 111.362 96.586, 111.432 94.000, 116.500 93.769, 116.933 93.050, 123.170 93.004, 123.673 93.068, 124.171 93.593, 128.928 93.643, 129.156 " />
            <path fill="none" stroke-width="3.0" stroke-linecap="butt" stroke-opacity="1.0" stroke="rgb(0, 0, 0)" stroke-linejoin="round" d=" M 172.243, 87.720 165.832, 80.045 162.234, 75.738 158.231, 74.271 148.930, 70.595 139.630, 66.920 137.139, 65.935 136.696, 65.941 126.696, 66.037 116.697, 66.133 111.572, 66.183 101.574, 66.381 91.576, 66.579 88.533, 66.639 86.668, 66.675 77.751, 71.201 71.869, 74.187 64.625, 77.402 60.620, 86.566 57.867, 92.867 64.010, 96.003 62.321, 97.243 61.376, 100.376 67.801, 101.145 73.577, 92.982 74.819, 91.227 79.410, 84.043 78.963, 75.183 86.743, 68.901 87.967, 67.913 97.946, 67.274 107.926, 66.635 110.923, 66.443 111.407, 66.322 111.733, 66.263 112.040, 66.296 112.386, 66.346 122.385, 66.272 132.385, 66.199 137.365, 66.163 146.540, 70.138 155.716, 74.113 157.399, 74.842 162.019, 83.711 164.013, 87.540 169.464, 92.590 175.064, 98.852 179.310, 96.926 173.221, 88.994 172.243, 87.720 " />
            <path fill="none" stroke-width="3.0" stroke-linecap="butt" stroke-opacity="1.0" stroke="rgb(0, 0, 0)" stroke-linejoin="round" d=" M 190.283, 127.430 197.611, 120.626 198.388, 119.905 199.066, 109.928 199.718, 100.324 198.375, 92.012 198.239, 87.865 193.893, 78.859 193.107, 77.230 188.426, 68.393 183.745, 59.556 182.291, 56.812 177.980, 52.409 171.475, 44.814 164.970, 37.219 163.159, 35.105 162.239, 34.557 153.254, 30.168 144.269, 25.778 142.226, 24.780 140.198, 24.954 130.207, 25.395 120.217, 25.836 110.227, 26.277 104.546, 26.527 101.155, 26.605 92.679, 31.911 86.742, 35.627 81.286, 39.695 75.454, 47.818 73.054, 51.161 66.695, 58.880 65.090, 60.828 61.546, 70.179 58.818, 77.377 57.675, 87.311 57.639, 87.618 56.753, 92.462 57.185, 102.142 58.823, 112.007 59.686, 117.208 62.274, 120.364 67.935, 128.607 68.366, 129.236 68.180, 129.322 " />
            <path fill="none" stroke-width="3.0" stroke-linecap="butt" stroke-opacity="1.0" stroke="rgb(0, 0, 0)" stroke-linejoin="round" d=" M 102.433, 207.118 106.189, 209.301 106.931, 209.399 110.360, 209.855 111.064, 211.381 " />
            <path fill="none" stroke-width="3.0" stroke-linecap="butt" stroke-opacity="1.0" stroke="rgb(0, 0, 0)" stroke-linejoin="round" d=" M 90.711, 130.625 89.731, 131.155 80.935, 135.912 80.830, 135.969 79.893, 138.042 78.541, 138.568 79.210, 143.728 77.424, 146.671 76.817, 150.043 76.074, 154.172 76.314, 164.169 76.334, 164.999 76.339, 165.001 76.352, 165.009 82.884, 170.444 86.960, 173.836 87.171, 174.011 89.338, 175.482 91.267, 176.791 99.012, 178.466 100.651, 178.820 108.289, 179.926 109.651, 180.123 116.825, 179.350 120.250, 178.473 129.304, 174.227 135.882, 171.143 136.505, 170.511 138.010, 168.984 140.952, 159.427 141.458, 157.783 141.875, 156.114 142.219, 154.738 141.905, 151.874 140.865, 149.371 138.536, 139.646 138.265, 138.514 138.079, 137.736 136.670, 136.772 136.669, 136.771 132.525, 133.936 127.730, 130.016 127.133, 129.887 122.595, 128.905 116.810, 127.653 112.821, 127.056 111.615, 126.875 103.093, 127.719 95.576, 128.821 93.790, 129.082 93.643, 129.156 90.711, 130.625 " />
            <path fill="none" stroke-width="3.0" stroke-linecap="butt" stroke-opacity="1.0" stroke="rgb(0, 0, 0)" stroke-linejoin="round" d=" M 123.659, 189.485 127.683, 191.494 131.092, 191.279 136.708, 190.925 139.340, 188.738 140.177, 188.042 143.266, 185.475 " />
            <path fill="none" stroke-width="3.0" stroke-linecap="butt" stroke-opacity="1.0" stroke="rgb(0, 0, 0)" stroke-linejoin="round" d=" M 85.982, 183.672 89.598, 187.522 91.369, 189.408 99.387, 190.547 " />
            <path fill="none" stroke-width="3.0" stroke-linecap="butt" stroke-opacity="1.0" stroke="rgb(0, 0, 0)" stroke-linejoin="round" d=" M 74.952, 104.937 79.571, 98.167 84.269, 93.033 92.441, 89.319 100.683, 89.606 " />
            <path fill="none" stroke-width="3.0" stroke-linecap="butt" stroke-opacity="1.0" stroke="rgb(0, 0, 0)" stroke-linejoin="round" d=" M 110.003, 100.230 107.762, 92.576 104.300, 85.447 99.029, 82.008 " />
            <path fill="none" stroke-width="3.0" stroke-linecap="butt" stroke-opacity="1.0" stroke="rgb(0, 0, 0)" stroke-linejoin="round" d=" M 131.223, 84.237 125.587, 90.457 123.398, 100.215 123.348, 100.440 128.583, 93.902 134.001, 89.696 143.763, 89.328 153.051, 93.032 153.167, 93.078 158.411, 98.293 163.438, 105.263 " />
            <path fill="none" stroke-width="3.0" stroke-linecap="butt" stroke-opacity="1.0" stroke="rgb(0, 0, 0)" stroke-linejoin="round" d=" M 142.778, 138.262 147.995, 132.853 150.645, 125.537 150.720, 115.537 150.726, 114.727 147.197, 105.910 140.568, 100.353 130.999, 101.314 128.300, 106.328 128.084, 110.686 " />
            <path fill="none" stroke-width="3.0" stroke-linecap="butt" stroke-opacity="1.0" stroke="rgb(0, 0, 0)" stroke-linejoin="round" d=" M 107.701, 107.436 105.625, 102.488 97.414, 101.565 91.879, 107.215 88.639, 115.385 88.394, 125.382 88.387, 125.657 89.731, 131.155 " />
            <path fill="none" stroke-width="3.0" stroke-linecap="butt" stroke-opacity="1.0" stroke="rgb(0, 0, 0)" stroke-linejoin="round" d=" M 62.899, 121.538 65.473, 125.234 65.243, 130.055 66.103, 129.811 65.993, 130.988 65.967, 131.271 62.691, 135.239 60.857, 138.031 58.420, 141.742 58.286, 147.342 58.824, 149.053 59.212, 150.284 61.762, 151.998 61.575, 156.684 61.391, 160.816 61.070, 168.038 61.712, 169.948 61.908, 171.460 67.074, 180.023 72.239, 188.585 72.775, 189.474 79.578, 192.934 80.705, 195.186 89.451, 200.034 95.269, 203.259 101.004, 206.869 107.767, 210.401 112.347, 212.120 120.760, 216.155 125.637, 214.257 135.459, 212.381 136.822, 212.121 138.846, 211.341 147.454, 206.251 148.110, 205.863 157.076, 201.434 159.542, 200.216 167.505, 194.166 167.853, 193.902 172.532, 189.707 177.928, 181.288 180.032, 178.006 182.564, 171.888 182.746, 171.448 183.171, 169.655 185.301, 159.884 185.710, 158.008 181.995, 158.680 183.960, 156.585 186.096, 157.189 190.830, 149.047 191.321, 146.398 188.677, 139.721 186.457, 135.069 187.767, 129.655 " />
            <path fill="none" stroke-width="3.0" stroke-linecap="butt" stroke-opacity="1.0" stroke="rgb(0, 0, 0)" stroke-linejoin="round" d=" M 139.340, 188.738 140.094, 188.821 140.189, 188.832 140.346, 188.781 140.518, 188.737 140.518, 188.737 140.493, 188.854 140.367, 188.832 140.518, 188.737 141.572, 188.078 139.952, 190.152 140.094, 188.821 " />
            <path fill="none" stroke-width="3.0" stroke-linecap="butt" stroke-opacity="1.0" stroke="rgb(0, 0, 0)" stroke-linejoin="round" d=" M 97.030, 201.494 97.044, 201.641 97.104, 201.730 97.131, 201.772 97.220, 201.905 102.433, 207.118 " />
            <path fill="none" stroke-width="3.0" stroke-linecap="butt" stroke-opacity="1.0" stroke="rgb(0, 0, 0)" stroke-linejoin="round" d=" M 58.824, 149.053 58.981, 152.711 59.412, 158.708 61.391, 160.816 " />
            <path fill="none" stroke-width="3.0" stroke-linecap="butt" stroke-opacity="1.0" stroke="rgb(0, 0, 0)" stroke-linejoin="round" d=" M 65.993, 130.988 64.069, 132.620 61.053, 136.307 60.857, 138.031 " />
            <path fill="none" stroke-width="3.0" stroke-linecap="butt" stroke-opacity="1.0" stroke="rgb(0, 0, 0)" stroke-linejoin="round" d=" M 76.817, 150.043 73.441, 146.086 69.440, 140.114 68.394, 138.553 65.748, 143.931 62.746, 149.564 62.362, 153.391 62.102, 155.372 62.747, 159.148 63.176, 161.263 64.119, 165.124 65.111, 166.906 67.782, 168.012 69.506, 168.726 71.895, 170.470 73.116, 173.234 74.615, 177.348 77.215, 180.422 78.625, 182.020 82.400, 182.794 85.534, 182.932 86.086, 183.420 88.631, 185.673 89.598, 187.522 " />
            <path fill="none" stroke-width="3.0" stroke-linecap="butt" stroke-opacity="1.0" stroke="rgb(0, 0, 0)" stroke-linejoin="round" d=" M 101.403, 189.640 106.948, 192.908 114.191, 193.638 123.506, 194.727 127.970, 192.960 131.092, 191.279 " />
            <path fill="none" stroke-width="3.0" stroke-linecap="butt" stroke-opacity="1.0" stroke="rgb(0, 0, 0)" stroke-linejoin="round" d=" M 138.177, 136.287 138.376, 136.219 140.409, 133.440 142.319, 130.706 142.768, 128.212 143.437, 123.436 142.660, 117.763 142.425, 116.250 139.624, 112.272 138.779, 111.078 134.919, 109.914 132.376, 109.227 128.372, 110.593 " />
            <path fill="none" stroke-width="3.0" stroke-linecap="butt" stroke-opacity="1.0" stroke="rgb(0, 0, 0)" stroke-linejoin="round" d=" M 163.217, 98.005 163.204, 96.583 160.109, 90.926 159.506, 90.004 158.656, 89.512 " />
            <path fill="none" stroke-width="3.0" stroke-linecap="butt" stroke-opacity="1.0" stroke="rgb(0, 0, 0)" stroke-linejoin="round" d=" M 182.564, 171.888 182.808, 172.024 188.444, 171.382 193.592, 168.895 196.592, 164.637 198.636, 163.090 200.246, 155.126 200.660, 151.070 199.663, 146.912 197.538, 140.526 196.567, 137.469 191.700, 132.443 191.552, 132.387 187.761, 131.278 190.283, 127.430 " />
        </g>
    </g>
</svg>
