<?xml version='1.0' encoding='ascii'?>
<svg xmlns="http://www.w3.org/2000/svg" version="1.1" width="250" height="250">
    <g id="ViewLayer_LineSet" xmlns:inkscape="http://www.inkscape.org/namespaces/inkscape" inkscape:groupmode="lineset" inkscape:label="ViewLayer_LineSet">
        <g xmlns:inkscape="http://www.inkscape.org/namespaces/inkscape" inkscape:groupmode="layer" id="strokes" inkscape:label="strokes">
            <path fill="none" stroke-width="3.0" stroke-linecap="butt" stroke-opacity="1.0" stroke="rgb(0, 0, 0)" stroke-linejoin="round" d=" M 115.051, 95.014 115.346, 95.245 115.378, 95.283 115.510, 95.439 " />
            <path fill="none" stroke-width="3.0" stroke-linecap="butt" stroke-opacity="1.0" stroke="rgb(0, 0, 0)" stroke-linejoin="round" d=" M 187.794, 96.428 182.795, 87.767 177.758, 79.041 171.995, 76.678 162.880, 72.565 154.843, 68.938 154.253, 68.931 144.254, 68.824 143.073, 68.811 " />
            <path fill="none" stroke-width="3.0" stroke-linecap="butt" stroke-opacity="1.0" stroke="rgb(0, 0, 0)" stroke-linejoin="round" d=" M 186.767, 121.590 190.583, 117.228 192.057, 107.337 193.531, 97.446 193.665, 96.546 193.837, 90.983 193.261, 88.354 192.537, 83.022 188.670, 73.800 184.803, 64.578 182.711, 59.589 176.202, 51.997 176.018, 51.782 170.028, 43.775 165.725, 38.023 162.035, 35.410 153.416, 30.340 145.324, 25.579 143.208, 25.596 133.210, 25.376 123.213, 25.156 113.215, 24.937 105.708, 24.772 104.251, 24.682 95.400, 29.335 86.548, 33.988 85.071, 34.765 83.557, 35.735 77.184, 43.441 70.811, 51.148 69.947, 52.193 64.892, 57.526 60.475, 66.498 56.057, 75.469 51.574, 84.571 49.724, 88.680 49.738, 90.183 49.348, 93.020 50.369, 102.968 51.389, 112.916 51.949, 118.378 58.345, 124.885 61.055, 128.864 " />
            <path fill="none" stroke-width="3.0" stroke-linecap="butt" stroke-opacity="1.0" stroke="rgb(0, 0, 0)" stroke-linejoin="round" d=" M 108.290, 136.257 106.962, 137.157 106.726, 137.317 103.695, 139.371 102.446, 140.217 99.756, 149.412 98.332, 151.626 96.168, 155.416 96.109, 156.425 95.988, 158.516 95.928, 160.753 98.708, 163.446 104.665, 170.375 105.824, 171.707 106.154, 172.086 113.751, 178.588 113.829, 178.655 115.844, 180.379 116.523, 180.960 121.549, 182.193 130.252, 183.161 137.218, 182.246 139.616, 181.931 145.273, 180.580 146.263, 180.343 152.929, 177.161 152.939, 177.156 159.885, 169.961 160.573, 169.249 162.198, 166.156 164.645, 157.482 164.030, 153.861 163.265, 149.351 159.809, 143.993 158.173, 139.521 152.403, 136.289 149.755, 134.806 149.229, 134.478 148.427, 133.979 145.660, 132.257 136.589, 130.704 133.980, 130.257 132.058, 130.016 129.166, 129.654 125.186, 130.208 121.942, 130.844 113.096, 132.577 108.290, 136.257 " />
            <path fill="none" stroke-width="3.0" stroke-linecap="butt" stroke-opacity="1.0" stroke="rgb(0, 0, 0)" stroke-linejoin="round" d=" M 133.743, 188.646 142.407, 192.533 142.554, 192.599 150.885, 191.511 152.653, 189.752 156.628, 185.798 " />
            <path fill="none" stroke-width="3.0" stroke-linecap="butt" stroke-opacity="1.0" stroke="rgb(0, 0, 0)" stroke-linejoin="round" d=" M 99.047, 186.806 102.561, 189.915 105.332, 192.366 114.139, 193.149 " />
            <path fill="none" stroke-width="3.0" stroke-linecap="butt" stroke-opacity="1.0" stroke="rgb(0, 0, 0)" stroke-linejoin="round" d=" M 81.434, 106.327 86.411, 99.388 91.585, 94.174 100.789, 90.522 110.156, 90.990 115.378, 95.283 " />
            <path fill="none" stroke-width="3.0" stroke-linecap="butt" stroke-opacity="1.0" stroke="rgb(0, 0, 0)" stroke-linejoin="round" d=" M 120.622, 101.885 118.421, 94.183 114.021, 86.824 107.886, 83.176 " />
            <path fill="none" stroke-width="3.0" stroke-linecap="butt" stroke-opacity="1.0" stroke="rgb(0, 0, 0)" stroke-linejoin="round" d=" M 143.599, 91.228 152.460, 90.796 160.984, 94.438 165.872, 99.543 170.596, 106.340 " />
            <path fill="none" stroke-width="3.0" stroke-linecap="butt" stroke-opacity="1.0" stroke="rgb(0, 0, 0)" stroke-linejoin="round" d=" M 140.988, 85.793 135.974, 92.062 133.820, 101.827 133.774, 102.037 " />
            <path fill="none" stroke-width="3.0" stroke-linecap="butt" stroke-opacity="1.0" stroke="rgb(0, 0, 0)" stroke-linejoin="round" d=" M 152.403, 136.289 155.015, 133.413 157.165, 126.133 157.221, 116.133 157.224, 115.520 153.956, 106.891 147.772, 101.463 139.052, 102.540 136.724, 107.593 136.699, 111.920 " />
            <path fill="none" stroke-width="3.0" stroke-linecap="butt" stroke-opacity="1.0" stroke="rgb(0, 0, 0)" stroke-linejoin="round" d=" M 116.084, 108.815 113.495, 103.763 104.158, 102.709 97.662, 108.352 94.207, 116.672 94.247, 126.672 94.248, 127.160 96.704, 134.309 101.847, 139.212 " />
            <path fill="none" stroke-width="3.0" stroke-linecap="butt" stroke-opacity="1.0" stroke="rgb(0, 0, 0)" stroke-linejoin="round" d=" M 179.400, 101.220 186.392, 100.533 185.460, 98.646 184.335, 97.963 187.794, 96.428 " />
            <path fill="none" stroke-width="3.0" stroke-linecap="butt" stroke-opacity="1.0" stroke="rgb(0, 0, 0)" stroke-linejoin="round" d=" M 61.533, 129.565 60.812, 127.343 61.055, 128.864 61.277, 130.250 61.859, 133.897 60.663, 136.448 56.946, 144.943 57.161, 148.835 60.457, 155.682 61.627, 156.273 62.070, 157.748 61.993, 162.463 63.470, 169.988 63.590, 170.407 63.829, 171.247 65.541, 176.116 70.925, 184.543 75.799, 192.172 77.875, 193.660 81.045, 196.286 89.978, 200.780 98.133, 204.882 105.775, 209.188 110.627, 211.148 118.075, 213.104 124.864, 215.981 133.918, 211.839 138.151, 210.462 145.224, 206.740 150.489, 203.349 159.407, 198.824 165.651, 195.655 165.509, 194.083 173.300, 190.713 178.640, 182.258 183.980, 173.803 185.112, 172.011 185.336, 171.247 185.601, 170.517 185.590, 167.066 185.558, 157.843 185.663, 153.736 187.230, 152.969 189.343, 147.750 189.924, 143.340 184.980, 134.648 183.606, 132.232 183.544, 132.153 183.543, 132.116 183.567, 132.120 183.653, 129.969 183.820, 125.822 183.821, 125.791 183.828, 125.621 185.604, 123.224 183.821, 125.791 " />
            <path fill="none" stroke-width="3.0" stroke-linecap="butt" stroke-opacity="1.0" stroke="rgb(0, 0, 0)" stroke-linejoin="round" d=" M 102.947, 68.894 93.680, 72.654 84.414, 76.415 83.788, 76.669 79.496, 78.263 73.385, 86.178 67.273, 94.093 64.951, 97.100 63.649, 98.949 70.370, 100.148 " />
            <path fill="none" stroke-width="3.0" stroke-linecap="butt" stroke-opacity="1.0" stroke="rgb(0, 0, 0)" stroke-linejoin="round" d=" M 61.277, 130.250 58.074, 131.224 58.059, 131.235 53.396, 136.272 52.545, 139.464 50.788, 145.264 49.889, 148.893 50.306, 153.498 51.500, 160.803 53.847, 162.795 57.192, 168.148 60.592, 169.906 63.590, 170.407 " />
            <path fill="none" stroke-width="3.0" stroke-linecap="butt" stroke-opacity="1.0" stroke="rgb(0, 0, 0)" stroke-linejoin="round" d=" M 96.109, 156.425 89.913, 154.149 84.363, 148.870 78.143, 141.247 76.006, 145.583 72.199, 152.847 71.984, 156.025 71.696, 158.834 72.436, 161.929 73.264, 164.865 74.496, 168.223 75.647, 169.937 76.111, 170.629 80.594, 172.161 81.195, 172.525 82.189, 173.128 83.746, 174.070 83.861, 174.140 85.542, 177.536 86.114, 178.859 87.050, 181.022 89.649, 183.677 91.075, 185.084 91.548, 185.551 96.044, 186.222 99.029, 186.223 99.241, 186.375 102.280, 188.554 102.561, 189.915 " />
            <path fill="none" stroke-width="3.0" stroke-linecap="butt" stroke-opacity="1.0" stroke="rgb(0, 0, 0)" stroke-linejoin="round" d=" M 114.981, 111.420 110.455, 110.377 108.154, 111.226 104.372, 112.841 103.763, 113.946 101.199, 118.384 101.123, 119.592 100.753, 125.513 102.056, 130.592 102.600, 132.599 104.839, 135.276 106.726, 137.317 " />
            <path fill="none" stroke-width="3.0" stroke-linecap="butt" stroke-opacity="1.0" stroke="rgb(0, 0, 0)" stroke-linejoin="round" d=" M 115.054, 192.711 119.252, 194.893 126.500, 195.077 135.941, 195.379 142.407, 192.533 " />
            <path fill="none" stroke-width="3.0" stroke-linecap="butt" stroke-opacity="1.0" stroke="rgb(0, 0, 0)" stroke-linejoin="round" d=" M 119.430, 190.616 123.066, 189.023 127.836, 186.933 128.188, 186.928 129.332, 186.831 130.600, 187.237 131.509, 187.527 133.835, 188.643 135.270, 189.331 " />
            <path fill="none" stroke-width="3.0" stroke-linecap="butt" stroke-opacity="1.0" stroke="rgb(0, 0, 0)" stroke-linejoin="round" d=" M 137.722, 210.052 138.261, 209.988 142.712, 207.807 147.768, 203.459 148.637, 202.423 148.928, 201.516 " />
            <path fill="none" stroke-width="3.0" stroke-linecap="butt" stroke-opacity="1.0" stroke="rgb(0, 0, 0)" stroke-linejoin="round" d=" M 138.189, 96.293 139.216, 95.154 140.878, 93.647 " />
            <path fill="none" stroke-width="3.0" stroke-linecap="butt" stroke-opacity="1.0" stroke="rgb(0, 0, 0)" stroke-linejoin="round" d=" M 149.229, 134.478 151.253, 131.385 151.322, 130.914 152.040, 124.188 151.667, 121.861 150.615, 117.273 150.497, 117.078 149.266, 114.899 147.501, 112.533 147.193, 112.130 143.114, 111.037 140.650, 110.491 140.118, 110.681 138.252, 111.350 " />
            <path fill="none" stroke-width="3.0" stroke-linecap="butt" stroke-opacity="1.0" stroke="rgb(0, 0, 0)" stroke-linejoin="round" d=" M 152.653, 189.752 153.116, 189.251 153.151, 189.213 156.524, 185.556 156.929, 185.116 160.308, 184.989 163.972, 184.292 166.470, 181.376 168.052, 179.679 169.579, 175.822 170.982, 172.819 176.282, 170.603 178.296, 169.220 179.019, 166.619 179.277, 165.693 180.597, 163.684 181.340, 160.086 181.888, 157.739 181.587, 154.156 181.325, 151.882 178.636, 146.785 178.011, 145.601 175.614, 140.710 171.739, 144.659 165.809, 152.711 165.368, 153.309 164.030, 153.861 " />
            <path fill="none" stroke-width="3.0" stroke-linecap="butt" stroke-opacity="1.0" stroke="rgb(0, 0, 0)" stroke-linejoin="round" d=" M 183.820, 125.822 186.767, 121.590 " />
            <path fill="none" stroke-width="3.0" stroke-linecap="butt" stroke-opacity="1.0" stroke="rgb(0, 0, 0)" stroke-linejoin="round" d=" M 185.590, 167.066 188.494, 161.209 190.957, 158.812 191.762, 152.288 192.083, 147.096 191.239, 144.119 189.852, 139.178 189.271, 135.675 185.558, 131.399 183.653, 129.969 " />
        </g>
    </g>
</svg>
