<?xml version='1.0' encoding='ascii'?>
<svg xmlns="http://www.w3.org/2000/svg" version="1.1" width="250" height="250">
    <g id="ViewLayer_LineSet" xmlns:inkscape="http://www.inkscape.org/namespaces/inkscape" inkscape:groupmode="lineset" inkscape:label="ViewLayer_LineSet">
        <g xmlns:inkscape="http://www.inkscape.org/namespaces/inkscape" inkscape:groupmode="layer" id="strokes" inkscape:label="strokes">
            <path fill="none" stroke-width="3.0" stroke-linecap="butt" stroke-opacity="1.0" stroke="rgb(0, 0, 0)" stroke-linejoin="round" d=" M 87.616, 186.705 91.433, 184.968 91.505, 184.989 91.524, 184.995 91.855, 185.370 95.878, 187.159 102.343, 190.766 " />
            <path fill="none" stroke-width="3.0" stroke-linecap="butt" stroke-opacity="1.0" stroke="rgb(0, 0, 0)" stroke-linejoin="round" d=" M 159.936, 96.910 159.806, 96.471 151.924, 90.318 147.956, 87.221 " />
            <path fill="none" stroke-width="3.0" stroke-linecap="butt" stroke-opacity="1.0" stroke="rgb(0, 0, 0)" stroke-linejoin="round" d=" M 71.375, 104.564 75.425, 96.004 " />
            <path fill="none" stroke-width="3.0" stroke-linecap="butt" stroke-opacity="1.0" stroke="rgb(0, 0, 0)" stroke-linejoin="round" d=" M 183.951, 146.853 189.075, 149.449 187.610, 140.176 187.454, 139.185 188.661, 136.845 188.568, 138.428 187.610, 140.176 " />
            <path fill="none" stroke-width="3.0" stroke-linecap="butt" stroke-opacity="1.0" stroke="rgb(0, 0, 0)" stroke-linejoin="round" d=" M 95.755, 105.708 95.815, 106.288 95.209, 110.700 95.208, 110.718 95.208, 110.719 94.555, 120.698 94.225, 125.733 92.979, 129.693 93.023, 129.811 " />
            <path fill="none" stroke-width="3.0" stroke-linecap="butt" stroke-opacity="1.0" stroke="rgb(0, 0, 0)" stroke-linejoin="round" d=" M 105.394, 192.651 111.941, 192.718 114.230, 192.742 117.411, 190.447 118.543, 189.630 121.115, 187.774 " />
            <path fill="none" stroke-width="3.0" stroke-linecap="butt" stroke-opacity="1.0" stroke="rgb(0, 0, 0)" stroke-linejoin="round" d=" M 75.151, 187.886 79.904, 189.272 81.044, 189.605 85.177, 187.781 91.505, 184.989 " />
            <path fill="none" stroke-width="3.0" stroke-linecap="butt" stroke-opacity="1.0" stroke="rgb(0, 0, 0)" stroke-linejoin="round" d=" M 69.356, 105.908 69.812, 105.088 69.993, 104.763 72.954, 99.444 75.425, 96.004 76.489, 94.523 82.420, 90.976 87.642, 91.283 " />
            <path fill="none" stroke-width="3.0" stroke-linecap="butt" stroke-opacity="1.0" stroke="rgb(0, 0, 0)" stroke-linejoin="round" d=" M 95.175, 101.848 93.006, 94.344 91.148, 87.240 87.567, 83.824 " />
            <path fill="none" stroke-width="3.0" stroke-linecap="butt" stroke-opacity="1.0" stroke="rgb(0, 0, 0)" stroke-linejoin="round" d=" M 115.340, 85.695 109.392, 92.073 107.453, 101.884 107.424, 102.029 112.354, 95.473 118.136, 91.130 128.120, 90.567 128.296, 90.557 137.673, 94.031 138.152, 94.209 143.445, 99.509 148.451, 106.673 148.742, 98.061 145.087, 90.980 " />
            <path fill="none" stroke-width="3.0" stroke-linecap="butt" stroke-opacity="1.0" stroke="rgb(0, 0, 0)" stroke-linejoin="round" d=" M 117.653, 139.509 123.816, 137.853 " />
            <path fill="none" stroke-width="3.0" stroke-linecap="butt" stroke-opacity="1.0" stroke="rgb(0, 0, 0)" stroke-linejoin="round" d=" M 134.537, 107.096 127.831, 101.488 117.903, 102.556 114.952, 107.617 114.511, 111.961 " />
            <path fill="none" stroke-width="3.0" stroke-linecap="butt" stroke-opacity="1.0" stroke="rgb(0, 0, 0)" stroke-linejoin="round" d=" M 95.259, 103.665 89.408, 102.614 85.812, 107.977 83.291, 115.843 82.821, 125.792 83.134, 129.287 " />
            <path fill="none" stroke-width="3.0" stroke-linecap="butt" stroke-opacity="1.0" stroke="rgb(0, 0, 0)" stroke-linejoin="round" d=" M 118.222, 140.201 128.015, 139.862 " />
            <path fill="none" stroke-width="3.0" stroke-linecap="butt" stroke-opacity="1.0" stroke="rgb(0, 0, 0)" stroke-linejoin="round" d=" M 195.113, 134.110 202.992, 127.953 205.930, 125.657 206.696, 127.054 208.017, 122.596 208.685, 120.050 205.832, 110.465 202.980, 100.881 201.861, 97.121 199.892, 87.317 198.771, 81.736 193.452, 73.267 188.134, 64.799 184.963, 59.749 180.741, 54.882 179.334, 52.264 171.779, 45.712 164.225, 39.160 162.351, 37.535 156.270, 32.314 147.182, 28.142 138.094, 23.969 136.002, 23.009 135.693, 22.990 133.863, 23.038 123.988, 24.615 114.113, 26.192 104.238, 27.769 100.943, 28.296 96.305, 29.066 88.488, 35.302 86.423, 36.949 79.135, 43.795 77.067, 45.738 74.891, 49.817 70.541, 56.638 67.736, 66.236 67.163, 68.195 67.247, 70.467 " />
            <path fill="none" stroke-width="3.0" stroke-linecap="butt" stroke-opacity="1.0" stroke="rgb(0, 0, 0)" stroke-linejoin="round" d=" M 75.407, 122.822 74.906, 121.567 73.813, 118.831 73.803, 118.957 72.996, 128.924 72.916, 129.903 " />
            <path fill="none" stroke-width="3.0" stroke-linecap="butt" stroke-opacity="1.0" stroke="rgb(0, 0, 0)" stroke-linejoin="round" d=" M 78.780, 193.056 81.882, 196.744 82.744, 197.600 87.246, 202.377 94.523, 209.035 94.849, 209.309 97.268, 210.397 101.038, 210.350 107.339, 210.783 110.865, 214.218 110.659, 213.740 114.441, 215.442 121.196, 213.797 131.183, 213.289 132.692, 213.212 135.621, 212.606 144.810, 208.661 146.123, 208.097 146.287, 207.926 147.147, 207.361 155.129, 201.337 163.111, 195.313 163.541, 194.988 169.605, 188.890 170.045, 188.447 174.426, 181.386 179.100, 176.422 180.190, 174.469 181.009, 174.752 189.006, 174.604 192.095, 174.546 201.307, 170.656 203.761, 169.620 205.308, 168.253 205.980, 167.831 209.194, 158.361 209.520, 157.400 209.900, 155.390 208.838, 149.111 205.193, 140.174 204.166, 138.239 200.544, 134.960 197.565, 134.122 195.113, 134.110 " />
            <path fill="none" stroke-width="3.0" stroke-linecap="butt" stroke-opacity="1.0" stroke="rgb(0, 0, 0)" stroke-linejoin="round" d=" M 83.469, 69.556 73.485, 70.117 67.247, 70.467 67.006, 70.481 64.400, 70.642 56.351, 76.575 56.001, 76.833 47.294, 81.752 46.281, 82.324 46.092, 85.446 55.275, 89.403 64.459, 93.360 67.950, 94.864 66.256, 97.600 69.402, 104.849 " />
            <path fill="none" stroke-width="3.0" stroke-linecap="butt" stroke-opacity="1.0" stroke="rgb(0, 0, 0)" stroke-linejoin="round" d=" M 117.411, 190.447 119.149, 190.891 120.428, 190.462 122.473, 190.138 122.471, 191.261 122.471, 191.385 121.082, 191.230 122.471, 191.261 123.171, 191.277 122.715, 194.881 " />
            <path fill="none" stroke-width="3.0" stroke-linecap="butt" stroke-opacity="1.0" stroke="rgb(0, 0, 0)" stroke-linejoin="round" d=" M 87.512, 131.768 90.882, 129.504 90.944, 129.463 91.459, 129.435 93.023, 129.811 94.979, 130.280 96.390, 130.619 94.976, 130.333 93.074, 129.948 90.882, 129.504 90.401, 129.407 87.855, 129.002 86.971, 129.055 85.124, 129.167 83.134, 129.287 73.152, 129.889 72.916, 129.903 70.719, 130.036 64.579, 130.475 63.811, 130.681 62.539, 131.035 55.422, 137.852 54.965, 143.012 50.198, 151.556 49.189, 155.068 49.983, 159.997 55.007, 168.283 58.096, 174.115 63.304, 177.465 64.688, 178.355 64.767, 178.388 65.391, 178.650 72.253, 179.798 79.836, 181.067 82.547, 180.904 87.573, 180.601 90.492, 179.909 99.761, 176.156 100.373, 175.909 100.934, 175.681 101.091, 175.618 " />
            <path fill="none" stroke-width="3.0" stroke-linecap="butt" stroke-opacity="1.0" stroke="rgb(0, 0, 0)" stroke-linejoin="round" d=" M 63.304, 177.465 64.390, 179.110 64.965, 179.920 66.408, 180.395 66.597, 180.457 70.124, 180.980 72.341, 184.297 72.956, 185.218 74.918, 187.741 75.103, 187.805 75.547, 187.958 77.298, 188.512 " />
            <path fill="none" stroke-width="3.0" stroke-linecap="butt" stroke-opacity="1.0" stroke="rgb(0, 0, 0)" stroke-linejoin="round" d=" M 68.362, 95.988 68.177, 96.632 68.321, 99.085 69.234, 101.723 " />
            <path fill="none" stroke-width="3.0" stroke-linecap="butt" stroke-opacity="1.0" stroke="rgb(0, 0, 0)" stroke-linejoin="round" d=" M 69.812, 105.088 70.147, 107.037 73.080, 116.597 73.803, 118.957 " />
            <path fill="none" stroke-width="3.0" stroke-linecap="butt" stroke-opacity="1.0" stroke="rgb(0, 0, 0)" stroke-linejoin="round" d=" M 69.993, 104.763 71.375, 104.564 " />
            <path fill="none" stroke-width="3.0" stroke-linecap="butt" stroke-opacity="1.0" stroke="rgb(0, 0, 0)" stroke-linejoin="round" d=" M 66.408, 180.395 72.341, 184.297 " />
            <path fill="none" stroke-width="3.0" stroke-linecap="butt" stroke-opacity="1.0" stroke="rgb(0, 0, 0)" stroke-linejoin="round" d=" M 85.177, 187.781 85.721, 188.392 90.157, 191.485 99.110, 193.499 105.956, 195.260 109.066, 194.240 111.941, 192.718 " />
            <path fill="none" stroke-width="3.0" stroke-linecap="butt" stroke-opacity="1.0" stroke="rgb(0, 0, 0)" stroke-linejoin="round" d=" M 87.930, 91.300 88.117, 91.770 88.680, 94.031 92.840, 97.999 " />
            <path fill="none" stroke-width="3.0" stroke-linecap="butt" stroke-opacity="1.0" stroke="rgb(0, 0, 0)" stroke-linejoin="round" d=" M 94.064, 110.389 92.544, 109.951 91.416, 110.182 90.250, 110.582 88.470, 112.682 87.766, 113.194 86.297, 116.623 85.619, 118.093 85.141, 121.785 84.873, 123.969 84.984, 126.176 85.124, 129.167 " />
            <path fill="none" stroke-width="3.0" stroke-linecap="butt" stroke-opacity="1.0" stroke="rgb(0, 0, 0)" stroke-linejoin="round" d=" M 118.543, 189.630 120.621, 187.343 120.931, 187.372 122.658, 187.533 126.028, 187.314 127.868, 187.194 129.834, 185.433 132.757, 183.041 133.755, 180.948 135.869, 176.238 140.028, 175.147 144.394, 173.102 145.588, 170.822 148.835, 167.588 149.444, 165.806 151.151, 161.448 151.131, 159.886 150.830, 155.197 146.322, 146.271 146.095, 145.823 144.542, 142.683 139.401, 146.436 131.927, 153.079 129.464, 155.270 119.890, 158.159 115.512, 159.480 108.540, 161.460 " />
            <path fill="none" stroke-width="3.0" stroke-linecap="butt" stroke-opacity="1.0" stroke="rgb(0, 0, 0)" stroke-linejoin="round" d=" M 124.815, 136.387 126.736, 133.638 127.510, 132.546 128.608, 127.186 128.936, 125.242 128.697, 122.994 128.050, 117.961 126.526, 115.566 124.660, 112.599 121.937, 111.656 118.671, 110.569 114.511, 111.961 " />
            <path fill="none" stroke-width="3.0" stroke-linecap="butt" stroke-opacity="1.0" stroke="rgb(0, 0, 0)" stroke-linejoin="round" d=" M 135.565, 109.641 138.146, 116.055 138.101, 116.910 138.027, 126.909 138.025, 127.171 135.156, 133.973 134.705, 134.712 129.992, 139.676 129.533, 139.810 129.529, 139.811 128.015, 139.862 " />
            <path fill="none" stroke-width="3.0" stroke-linecap="butt" stroke-opacity="1.0" stroke="rgb(0, 0, 0)" stroke-linejoin="round" d=" M 169.605, 188.890 170.950, 189.153 172.911, 189.706 176.487, 190.110 180.230, 188.869 188.318, 182.989 189.620, 182.043 191.197, 179.771 191.281, 178.297 189.227, 174.962 189.006, 174.604 " />
        </g>
    </g>
</svg>
