<?xml version='1.0' encoding='ascii'?>
<svg xmlns="http://www.w3.org/2000/svg" version="1.1" width="250" height="250">
    <g id="ViewLayer_LineSet" xmlns:inkscape="http://www.inkscape.org/namespaces/inkscape" inkscape:groupmode="lineset" inkscape:label="ViewLayer_LineSet">
        <g xmlns:inkscape="http://www.inkscape.org/namespaces/inkscape" inkscape:groupmode="layer" id="strokes" inkscape:label="strokes">
            <path fill="none" stroke-width="3.0" stroke-linecap="butt" stroke-opacity="1.0" stroke="rgb(0, 0, 0)" stroke-linejoin="round" d=" M 127.899, 140.204 128.953, 139.891 129.323, 139.768 129.380, 139.750 131.783, 136.269 133.104, 134.340 133.852, 130.126 134.288, 127.034 133.823, 123.648 133.212, 119.803 131.297, 117.042 129.573, 114.543 126.762, 113.669 123.333, 112.661 119.167, 114.102 " />
            <path fill="none" stroke-width="3.0" stroke-linecap="butt" stroke-opacity="1.0" stroke="rgb(0, 0, 0)" stroke-linejoin="round" d=" M 192.379, 131.628 197.657, 127.106 205.035, 120.355 206.025, 119.450 206.094, 115.345 203.491, 105.690 200.888, 96.035 200.437, 94.362 198.917, 84.478 198.637, 82.657 193.500, 74.077 188.363, 65.498 183.227, 56.918 181.946, 54.778 180.844, 53.515 180.459, 52.761 172.915, 46.198 165.370, 39.635 162.483, 37.123 157.357, 32.674 148.273, 28.493 139.189, 24.312 138.005, 23.767 136.466, 23.688 126.468, 23.922 123.763, 23.986 113.839, 25.215 103.915, 26.443 99.508, 26.989 96.935, 27.296 88.956, 33.324 84.205, 36.914 77.308, 43.097 72.540, 51.249 66.855, 59.477 63.542, 64.272 63.302, 65.230 63.434, 75.229 63.474, 78.300 " />
            <path fill="none" stroke-width="3.0" stroke-linecap="butt" stroke-opacity="1.0" stroke="rgb(0, 0, 0)" stroke-linejoin="round" d=" M 166.013, 99.319 166.588, 98.963 158.805, 92.683 152.152, 87.315 " />
            <path fill="none" stroke-width="3.0" stroke-linecap="butt" stroke-opacity="1.0" stroke="rgb(0, 0, 0)" stroke-linejoin="round" d=" M 68.335, 104.352 69.793, 101.566 " />
            <path fill="none" stroke-width="3.0" stroke-linecap="butt" stroke-opacity="1.0" stroke="rgb(0, 0, 0)" stroke-linejoin="round" d=" M 190.586, 150.454 190.830, 149.524 190.398, 147.138 187.864, 137.638 187.703, 137.034 189.254, 132.967 188.881, 135.532 187.864, 137.638 " />
            <path fill="none" stroke-width="3.0" stroke-linecap="butt" stroke-opacity="1.0" stroke="rgb(0, 0, 0)" stroke-linejoin="round" d=" M 99.331, 108.926 99.662, 109.594 99.646, 109.903 99.547, 111.873 99.517, 113.076 " />
            <path fill="none" stroke-width="3.0" stroke-linecap="butt" stroke-opacity="1.0" stroke="rgb(0, 0, 0)" stroke-linejoin="round" d=" M 120.045, 141.625 120.046, 141.625 122.821, 144.112 122.900, 144.198 123.082, 144.397 123.493, 144.847 123.747, 148.009 123.082, 144.397 123.065, 144.304 122.900, 144.198 122.277, 143.800 120.046, 141.625 120.045, 141.625 " />
            <path fill="none" stroke-width="3.0" stroke-linecap="butt" stroke-opacity="1.0" stroke="rgb(0, 0, 0)" stroke-linejoin="round" d=" M 92.020, 135.270 97.926, 133.207 98.052, 133.163 98.278, 133.172 98.907, 133.306 99.261, 133.381 100.963, 133.744 99.259, 133.439 98.901, 133.375 98.118, 133.235 97.926, 133.207 97.453, 133.140 95.043, 133.404 90.244, 134.023 " />
            <path fill="none" stroke-width="3.0" stroke-linecap="butt" stroke-opacity="1.0" stroke="rgb(0, 0, 0)" stroke-linejoin="round" d=" M 114.536, 195.582 118.626, 195.460 123.491, 195.314 126.422, 193.055 126.864, 192.714 130.220, 190.126 " />
            <path fill="none" stroke-width="3.0" stroke-linecap="butt" stroke-opacity="1.0" stroke="rgb(0, 0, 0)" stroke-linejoin="round" d=" M 81.896, 191.531 82.791, 191.755 85.088, 192.331 88.600, 193.211 " />
            <path fill="none" stroke-width="3.0" stroke-linecap="butt" stroke-opacity="1.0" stroke="rgb(0, 0, 0)" stroke-linejoin="round" d=" M 70.311, 107.899 74.163, 101.358 78.049, 96.421 84.803, 92.996 91.154, 93.527 " />
            <path fill="none" stroke-width="3.0" stroke-linecap="butt" stroke-opacity="1.0" stroke="rgb(0, 0, 0)" stroke-linejoin="round" d=" M 99.763, 104.442 97.371, 96.883 94.745, 89.485 90.407, 85.831 " />
            <path fill="none" stroke-width="3.0" stroke-linecap="butt" stroke-opacity="1.0" stroke="rgb(0, 0, 0)" stroke-linejoin="round" d=" M 120.411, 88.024 114.565, 94.555 112.677, 104.375 112.641, 104.565 117.660, 97.946 123.350, 93.464 133.326, 92.765 133.562, 92.748 142.987, 96.091 143.501, 96.273 148.948, 101.516 154.142, 108.602 154.132, 99.975 150.290, 92.931 " />
            <path fill="none" stroke-width="3.0" stroke-linecap="butt" stroke-opacity="1.0" stroke="rgb(0, 0, 0)" stroke-linejoin="round" d=" M 123.170, 141.604 129.313, 139.785 " />
            <path fill="none" stroke-width="3.0" stroke-linecap="butt" stroke-opacity="1.0" stroke="rgb(0, 0, 0)" stroke-linejoin="round" d=" M 123.577, 142.207 133.549, 141.467 134.967, 141.362 140.076, 136.019 142.969, 128.564 142.895, 118.565 142.889, 117.669 139.114, 108.803 132.237, 103.292 122.282, 104.534 119.458, 109.686 119.167, 114.102 " />
            <path fill="none" stroke-width="3.0" stroke-linecap="butt" stroke-opacity="1.0" stroke="rgb(0, 0, 0)" stroke-linejoin="round" d=" M 98.274, 105.648 91.455, 104.380 87.231, 109.624 84.599, 117.549 84.432, 127.639 85.590, 134.624 " />
            <path fill="none" stroke-width="3.0" stroke-linecap="butt" stroke-opacity="1.0" stroke="rgb(0, 0, 0)" stroke-linejoin="round" d=" M 85.088, 192.331 87.966, 194.030 84.859, 197.439 86.509, 199.223 86.971, 199.641 92.022, 204.459 99.860, 210.670 100.208, 210.946 100.392, 211.080 102.377, 211.815 107.013, 211.679 113.090, 211.896 115.812, 214.724 116.135, 215.059 115.732, 214.688 115.812, 214.724 117.524, 215.482 125.676, 212.735 135.583, 211.372 135.854, 211.334 138.503, 210.458 147.374, 205.944 153.899, 203.118 161.905, 197.126 165.271, 194.607 172.396, 187.590 174.780, 185.242 175.049, 184.864 176.162, 183.304 179.827, 174.000 180.525, 172.227 180.591, 171.788 180.682, 171.173 180.712, 170.970 181.035, 168.800 181.787, 166.308 180.962, 166.371 180.509, 169.722 180.712, 170.970 180.749, 171.195 180.770, 171.327 180.591, 171.788 176.962, 181.107 176.300, 182.806 179.477, 173.325 180.245, 171.032 180.682, 171.173 " />
            <path fill="none" stroke-width="3.0" stroke-linecap="butt" stroke-opacity="1.0" stroke="rgb(0, 0, 0)" stroke-linejoin="round" d=" M 77.677, 73.697 71.593, 73.926 70.762, 73.966 63.474, 78.300 59.525, 80.648 51.444, 84.644 49.778, 91.510 59.231, 94.773 63.708, 96.319 66.525, 97.291 64.465, 99.406 65.240, 104.989 68.335, 104.352 " />
            <path fill="none" stroke-width="3.0" stroke-linecap="butt" stroke-opacity="1.0" stroke="rgb(0, 0, 0)" stroke-linejoin="round" d=" M 126.422, 193.055 126.457, 193.062 128.650, 192.376 131.396, 191.798 131.638, 191.747 131.544, 193.521 130.748, 193.435 130.705, 193.431 129.394, 193.291 130.960, 192.827 131.031, 192.806 130.748, 193.435 129.936, 195.245 " />
            <path fill="none" stroke-width="3.0" stroke-linecap="butt" stroke-opacity="1.0" stroke="rgb(0, 0, 0)" stroke-linejoin="round" d=" M 188.575, 153.347 190.586, 150.454 " />
            <path fill="none" stroke-width="3.0" stroke-linecap="butt" stroke-opacity="1.0" stroke="rgb(0, 0, 0)" stroke-linejoin="round" d=" M 88.764, 134.214 85.590, 134.624 77.523, 135.665 75.499, 136.465 73.961, 137.072 70.506, 138.428 66.414, 140.034 63.434, 143.011 63.376, 143.070 63.581, 148.860 63.614, 149.773 60.236, 156.196 59.114, 161.323 60.109, 167.795 61.874, 170.260 65.245, 174.965 66.138, 176.211 66.625, 176.891 69.001, 180.689 75.645, 184.171 77.471, 184.776 77.806, 184.822 83.005, 185.531 84.884, 185.787 85.600, 185.885 90.259, 186.520 99.445, 185.759 102.898, 184.639 102.903, 184.636 111.767, 180.007 118.998, 176.231 " />
            <path fill="none" stroke-width="3.0" stroke-linecap="butt" stroke-opacity="1.0" stroke="rgb(0, 0, 0)" stroke-linejoin="round" d=" M 65.245, 174.965 66.022, 180.604 66.634, 181.581 71.194, 184.129 79.806, 189.212 80.202, 189.446 " />
            <path fill="none" stroke-width="3.0" stroke-linecap="butt" stroke-opacity="1.0" stroke="rgb(0, 0, 0)" stroke-linejoin="round" d=" M 63.708, 96.319 65.279, 106.194 66.411, 113.313 67.141, 115.504 71.095, 122.317 70.779, 124.092 72.467, 123.729 71.258, 129.043 67.458, 133.586 63.666, 139.096 62.829, 140.063 62.795, 141.781 " />
            <path fill="none" stroke-width="3.0" stroke-linecap="butt" stroke-opacity="1.0" stroke="rgb(0, 0, 0)" stroke-linejoin="round" d=" M 66.138, 176.211 67.067, 179.143 69.848, 182.845 70.601, 183.792 72.607, 184.357 76.383, 184.823 79.779, 188.923 80.202, 189.446 81.878, 191.517 81.888, 191.520 81.992, 191.549 82.791, 191.755 " />
            <path fill="none" stroke-width="3.0" stroke-linecap="butt" stroke-opacity="1.0" stroke="rgb(0, 0, 0)" stroke-linejoin="round" d=" M 62.795, 141.781 62.545, 141.299 59.737, 147.458 57.556, 151.883 57.183, 156.278 57.050, 157.436 57.681, 161.920 57.885, 163.149 58.640, 167.860 59.049, 168.720 61.874, 170.260 " />
            <path fill="none" stroke-width="3.0" stroke-linecap="butt" stroke-opacity="1.0" stroke="rgb(0, 0, 0)" stroke-linejoin="round" d=" M 74.684, 91.415 71.803, 93.433 69.114, 97.978 68.953, 98.483 68.964, 98.795 69.793, 101.566 70.641, 104.404 " />
            <path fill="none" stroke-width="3.0" stroke-linecap="butt" stroke-opacity="1.0" stroke="rgb(0, 0, 0)" stroke-linejoin="round" d=" M 91.154, 93.527 91.405, 93.430 91.482, 93.555 91.657, 93.836 93.229, 96.802 96.943, 100.288 " />
            <path fill="none" stroke-width="3.0" stroke-linecap="butt" stroke-opacity="1.0" stroke="rgb(0, 0, 0)" stroke-linejoin="round" d=" M 92.542, 191.548 97.010, 194.339 106.786, 196.015 113.438, 197.303 118.157, 195.696 118.626, 195.460 " />
            <path fill="none" stroke-width="3.0" stroke-linecap="butt" stroke-opacity="1.0" stroke="rgb(0, 0, 0)" stroke-linejoin="round" d=" M 96.916, 112.363 95.833, 112.073 94.093, 112.509 91.813, 113.334 90.733, 114.519 90.326, 114.788 88.553, 118.995 88.062, 120.055 87.624, 124.662 87.483, 126.285 87.656, 127.943 88.136, 132.762 88.527, 133.535 88.764, 134.214 " />
            <path fill="none" stroke-width="3.0" stroke-linecap="butt" stroke-opacity="1.0" stroke="rgb(0, 0, 0)" stroke-linejoin="round" d=" M 91.954, 191.793 92.542, 191.548 99.601, 188.618 99.844, 188.669 100.554, 188.978 105.002, 190.714 112.357, 194.388 " />
            <path fill="none" stroke-width="3.0" stroke-linecap="butt" stroke-opacity="1.0" stroke="rgb(0, 0, 0)" stroke-linejoin="round" d=" M 126.864, 192.714 129.758, 189.675 130.006, 189.689 132.012, 189.799 132.480, 189.825 137.150, 189.402 139.346, 187.328 141.872, 185.140 143.082, 182.544 145.016, 178.399 149.720, 176.997 153.447, 175.080 154.676, 172.423 157.373, 169.466 158.083, 167.183 159.441, 163.344 159.367, 161.268 159.044, 157.199 154.410, 148.338 154.315, 148.156 152.691, 144.960 148.212, 148.524 141.089, 155.543 138.546, 158.049 129.033, 161.133 123.353, 162.974 117.825, 164.791 " />
            <path fill="none" stroke-width="3.0" stroke-linecap="butt" stroke-opacity="1.0" stroke="rgb(0, 0, 0)" stroke-linejoin="round" d=" M 175.049, 184.864 175.477, 184.691 183.161, 178.291 187.354, 174.799 187.411, 174.710 187.410, 174.654 187.292, 174.477 185.842, 172.255 " />
            <path fill="none" stroke-width="3.0" stroke-linecap="butt" stroke-opacity="1.0" stroke="rgb(0, 0, 0)" stroke-linejoin="round" d=" M 180.749, 171.195 184.353, 172.362 185.842, 172.255 191.808, 171.826 199.285, 168.230 202.603, 164.812 204.119, 163.742 206.825, 154.419 207.259, 151.521 206.231, 146.124 203.098, 138.050 202.098, 135.991 198.460, 132.601 193.704, 131.180 193.048, 131.188 " />
        </g>
    </g>
</svg>
