<?xml version='1.0' encoding='ascii'?>
<svg xmlns="http://www.w3.org/2000/svg" version="1.1" width="250" height="250">
    <g id="ViewLayer_LineSet" xmlns:inkscape="http://www.inkscape.org/namespaces/inkscape" inkscape:groupmode="lineset" inkscape:label="ViewLayer_LineSet">
        <g xmlns:inkscape="http://www.inkscape.org/namespaces/inkscape" inkscape:groupmode="layer" id="strokes" inkscape:label="strokes">
            <path fill="none" stroke-width="3.0" stroke-linecap="butt" stroke-opacity="1.0" stroke="rgb(0, 0, 0)" stroke-linejoin="round" d=" M 146.986, 189.966 147.254, 189.683 147.563, 189.357 150.641, 186.112 150.892, 185.848 154.093, 185.802 157.800, 185.193 158.200, 185.127 160.641, 182.443 162.496, 180.566 164.004, 177.004 165.608, 173.690 170.837, 171.703 171.624, 171.210 173.322, 170.145 174.404, 166.847 176.049, 164.574 176.825, 161.280 177.541, 158.568 177.302, 155.297 177.017, 152.623 173.365, 145.712 171.127, 141.190 166.904, 145.146 160.583, 152.895 159.797, 153.858 153.678, 156.187 " />
            <path fill="none" stroke-width="3.0" stroke-linecap="butt" stroke-opacity="1.0" stroke="rgb(0, 0, 0)" stroke-linejoin="round" d=" M 113.267, 190.174 116.455, 188.804 120.847, 186.916 121.161, 186.923 122.383, 186.912 124.334, 187.562 124.900, 187.750 127.948, 189.222 129.158, 189.806 " />
            <path fill="none" stroke-width="3.0" stroke-linecap="butt" stroke-opacity="1.0" stroke="rgb(0, 0, 0)" stroke-linejoin="round" d=" M 133.913, 95.789 134.239, 95.407 134.289, 95.348 135.039, 94.736 " />
            <path fill="none" stroke-width="3.0" stroke-linecap="butt" stroke-opacity="1.0" stroke="rgb(0, 0, 0)" stroke-linejoin="round" d=" M 110.830, 111.304 106.736, 110.324 104.655, 111.043 100.625, 112.706 100.307, 113.267 97.372, 118.183 97.357, 118.381 96.831, 125.267 98.244, 131.153 98.546, 132.332 100.768, 135.053 " />
            <path fill="none" stroke-width="3.0" stroke-linecap="butt" stroke-opacity="1.0" stroke="rgb(0, 0, 0)" stroke-linejoin="round" d=" M 185.467, 98.892 185.466, 98.891 179.637, 90.766 173.807, 82.640 170.815, 78.470 166.156, 76.687 156.919, 72.856 147.683, 69.024 146.848, 68.678 146.781, 68.678 144.594, 68.676 " />
            <path fill="none" stroke-width="3.0" stroke-linecap="butt" stroke-opacity="1.0" stroke="rgb(0, 0, 0)" stroke-linejoin="round" d=" M 188.475, 123.922 194.092, 118.036 195.229, 108.101 196.367, 98.166 197.339, 89.679 197.315, 89.478 197.318, 89.371 197.191, 89.079 192.921, 80.036 188.651, 70.994 184.380, 61.952 182.581, 58.141 177.073, 52.117 170.829, 44.305 164.506, 36.394 162.358, 34.983 153.562, 30.226 144.766, 25.469 143.786, 24.939 142.159, 25.014 132.159, 25.103 122.160, 25.192 112.160, 25.281 104.620, 25.348 102.681, 25.302 94.004, 30.274 85.408, 35.199 82.312, 37.342 76.183, 45.244 71.045, 51.869 64.737, 58.964 60.711, 68.117 56.685, 77.271 53.039, 85.562 52.582, 88.757 52.179, 90.362 52.247, 93.801 53.601, 103.709 54.955, 113.617 55.493, 117.554 59.986, 122.511 62.812, 126.579 " />
            <path fill="none" stroke-width="3.0" stroke-linecap="butt" stroke-opacity="1.0" stroke="rgb(0, 0, 0)" stroke-linejoin="round" d=" M 108.410, 208.759 110.194, 209.769 110.279, 209.817 110.373, 209.871 110.409, 209.875 113.687, 210.307 114.041, 211.500 " />
            <path fill="none" stroke-width="3.0" stroke-linecap="butt" stroke-opacity="1.0" stroke="rgb(0, 0, 0)" stroke-linejoin="round" d=" M 100.509, 135.222 96.954, 137.451 93.225, 139.789 91.007, 145.923 88.014, 148.530 88.060, 148.724 87.992, 148.836 87.332, 154.903 86.976, 158.166 87.007, 164.850 88.931, 165.958 93.100, 169.561 98.007, 174.752 98.472, 175.245 103.953, 179.875 104.729, 180.530 111.512, 182.062 112.769, 182.216 120.832, 183.206 129.576, 182.156 134.335, 180.933 134.566, 180.874 137.680, 179.308 144.319, 175.969 145.535, 174.663 149.597, 170.300 152.291, 163.757 153.873, 157.550 153.678, 156.187 153.063, 151.878 150.882, 147.718 148.557, 140.001 146.985, 139.020 143.673, 136.953 143.331, 136.739 141.820, 135.796 137.244, 132.487 132.333, 131.551 127.863, 130.699 125.426, 130.234 121.302, 129.666 117.701, 130.127 116.644, 130.262 106.801, 132.028 104.857, 132.376 101.414, 134.630 100.768, 135.053 100.509, 135.222 " />
            <path fill="none" stroke-width="3.0" stroke-linecap="butt" stroke-opacity="1.0" stroke="rgb(0, 0, 0)" stroke-linejoin="round" d=" M 135.977, 192.977 137.096, 192.863 144.667, 192.088 147.214, 189.757 147.697, 189.315 150.802, 186.473 " />
            <path fill="none" stroke-width="3.0" stroke-linecap="butt" stroke-opacity="1.0" stroke="rgb(0, 0, 0)" stroke-linejoin="round" d=" M 93.053, 186.186 96.758, 189.732 98.973, 191.852 107.465, 192.840 " />
            <path fill="none" stroke-width="3.0" stroke-linecap="butt" stroke-opacity="1.0" stroke="rgb(0, 0, 0)" stroke-linejoin="round" d=" M 78.116, 106.258 82.935, 99.397 87.908, 94.227 96.690, 90.585 105.611, 91.028 " />
            <path fill="none" stroke-width="3.0" stroke-linecap="butt" stroke-opacity="1.0" stroke="rgb(0, 0, 0)" stroke-linejoin="round" d=" M 115.659, 101.883 113.403, 94.195 109.381, 86.866 103.586, 83.256 " />
            <path fill="none" stroke-width="3.0" stroke-linecap="butt" stroke-opacity="1.0" stroke="rgb(0, 0, 0)" stroke-linejoin="round" d=" M 134.239, 95.407 139.273, 91.186 148.619, 90.729 157.615, 94.384 162.705, 99.535 167.604, 106.413 " />
            <path fill="none" stroke-width="3.0" stroke-linecap="butt" stroke-opacity="1.0" stroke="rgb(0, 0, 0)" stroke-linejoin="round" d=" M 136.555, 85.736 131.224, 92.040 129.059, 101.803 129.006, 102.041 " />
            <path fill="none" stroke-width="3.0" stroke-linecap="butt" stroke-opacity="1.0" stroke="rgb(0, 0, 0)" stroke-linejoin="round" d=" M 146.985, 139.020 151.998, 133.672 154.382, 126.350 154.438, 116.351 154.442, 115.648 151.025, 106.941 144.588, 101.470 135.416, 102.548 132.909, 107.615 132.805, 111.967 " />
            <path fill="none" stroke-width="3.0" stroke-linecap="butt" stroke-opacity="1.0" stroke="rgb(0, 0, 0)" stroke-linejoin="round" d=" M 112.139, 108.794 109.756, 103.752 100.871, 102.696 94.793, 108.294 91.442, 116.540 91.384, 126.540 91.382, 126.944 93.527, 134.056 96.954, 137.451 " />
            <path fill="none" stroke-width="3.0" stroke-linecap="butt" stroke-opacity="1.0" stroke="rgb(0, 0, 0)" stroke-linejoin="round" d=" M 177.946, 100.480 185.434, 99.214 185.321, 99.059 185.214, 99.002 185.465, 98.893 185.466, 98.893 " />
            <path fill="none" stroke-width="3.0" stroke-linecap="butt" stroke-opacity="1.0" stroke="rgb(0, 0, 0)" stroke-linejoin="round" d=" M 62.788, 126.261 61.518, 124.397 62.772, 126.042 62.788, 126.261 62.812, 126.579 63.066, 130.008 63.100, 130.458 63.255, 132.663 62.876, 133.336 58.208, 142.180 57.484, 143.551 57.589, 148.227 59.636, 153.241 61.695, 154.465 62.161, 157.526 61.918, 167.400 62.084, 168.484 62.379, 170.405 62.546, 170.903 63.275, 172.886 68.556, 181.377 72.731, 188.091 75.596, 192.596 77.467, 193.426 77.845, 194.086 86.728, 198.678 95.611, 203.271 97.023, 204.000 103.432, 207.768 109.782, 210.682 115.126, 212.377 123.083, 215.985 130.406, 212.777 137.167, 210.939 142.650, 208.400 149.372, 204.241 158.340, 199.816 167.307, 195.390 170.415, 193.856 170.745, 193.606 170.919, 193.463 176.253, 185.005 181.588, 176.547 183.176, 174.029 184.309, 171.442 184.515, 170.752 184.688, 169.675 185.347, 165.572 185.470, 157.792 185.837, 155.574 186.905, 155.150 190.187, 148.360 190.772, 144.718 186.392, 135.729 186.257, 135.453 185.072, 133.369 185.483, 130.099 185.760, 127.885 185.795, 127.608 185.903, 126.760 185.915, 126.665 186.203, 126.301 185.903, 126.760 185.767, 126.967 185.128, 128.808 " />
            <path fill="none" stroke-width="3.0" stroke-linecap="butt" stroke-opacity="1.0" stroke="rgb(0, 0, 0)" stroke-linejoin="round" d=" M 104.889, 68.754 95.988, 68.811 95.591, 68.814 86.437, 72.840 77.787, 76.644 72.330, 78.810 66.984, 87.261 61.638, 95.712 60.779, 97.070 63.373, 98.197 62.401, 98.765 61.530, 100.175 68.548, 100.884 " />
            <path fill="none" stroke-width="3.0" stroke-linecap="butt" stroke-opacity="1.0" stroke="rgb(0, 0, 0)" stroke-linejoin="round" d=" M 147.697, 189.315 148.183, 189.162 147.990, 189.889 147.214, 189.757 " />
            <path fill="none" stroke-width="3.0" stroke-linecap="butt" stroke-opacity="1.0" stroke="rgb(0, 0, 0)" stroke-linejoin="round" d=" M 105.744, 206.303 108.410, 208.759 " />
            <path fill="none" stroke-width="3.0" stroke-linecap="butt" stroke-opacity="1.0" stroke="rgb(0, 0, 0)" stroke-linejoin="round" d=" M 133.463, 210.703 133.595, 210.051 135.338, 209.811 135.877, 209.549 136.458, 209.266 138.572, 207.560 " />
            <path fill="none" stroke-width="3.0" stroke-linecap="butt" stroke-opacity="1.0" stroke="rgb(0, 0, 0)" stroke-linejoin="round" d=" M 63.066, 130.008 62.166, 130.323 60.781, 131.346 56.802, 135.881 56.124, 139.356 54.695, 144.467 53.856, 147.569 54.223, 152.675 55.064, 159.355 57.533, 161.682 60.723, 167.750 62.084, 168.484 " />
            <path fill="none" stroke-width="3.0" stroke-linecap="butt" stroke-opacity="1.0" stroke="rgb(0, 0, 0)" stroke-linejoin="round" d=" M 87.332, 154.903 84.120, 153.631 79.225, 148.526 73.427, 140.773 71.135, 145.463 68.348, 150.775 67.640, 152.126 67.367, 155.593 67.097, 158.028 67.824, 161.445 68.465, 164.001 69.190, 166.305 69.608, 167.636 70.909, 169.733 75.421, 171.423 78.272, 173.302 79.748, 176.384 81.295, 180.176 83.950, 183.052 85.592, 184.766 89.675, 185.477 92.840, 185.550 93.204, 185.837 96.153, 188.160 96.758, 189.732 " />
            <path fill="none" stroke-width="3.0" stroke-linecap="butt" stroke-opacity="1.0" stroke="rgb(0, 0, 0)" stroke-linejoin="round" d=" M 108.896, 93.877 110.196, 95.005 111.104, 96.022 " />
            <path fill="none" stroke-width="3.0" stroke-linecap="butt" stroke-opacity="1.0" stroke="rgb(0, 0, 0)" stroke-linejoin="round" d=" M 109.092, 192.092 113.706, 194.606 121.360, 195.057 130.456, 195.686 136.655, 193.111 137.096, 192.863 " />
            <path fill="none" stroke-width="3.0" stroke-linecap="butt" stroke-opacity="1.0" stroke="rgb(0, 0, 0)" stroke-linejoin="round" d=" M 143.673, 136.953 145.010, 135.107 147.314, 131.681 147.534, 130.298 148.237, 124.442 147.214, 117.750 147.140, 117.314 144.024, 113.067 143.416, 112.248 139.509, 111.156 136.907, 110.528 134.068, 111.526 " />
            <path fill="none" stroke-width="3.0" stroke-linecap="butt" stroke-opacity="1.0" stroke="rgb(0, 0, 0)" stroke-linejoin="round" d=" M 184.688, 169.675 186.007, 169.439 188.960, 167.871 192.272, 162.283 194.638, 160.216 195.788, 153.080 196.163, 148.382 195.251, 144.887 193.540, 139.265 192.768, 136.042 188.393, 131.269 187.782, 130.830 185.483, 130.099 " />
            <path fill="none" stroke-width="3.0" stroke-linecap="butt" stroke-opacity="1.0" stroke="rgb(0, 0, 0)" stroke-linejoin="round" d=" M 185.760, 127.885 188.475, 123.922 " />
        </g>
    </g>
</svg>
