<?xml version='1.0' encoding='ascii'?>
<svg xmlns="http://www.w3.org/2000/svg" version="1.1" width="250" height="250">
    <g id="ViewLayer_LineSet" xmlns:inkscape="http://www.inkscape.org/namespaces/inkscape" inkscape:groupmode="lineset" inkscape:label="ViewLayer_LineSet">
        <g xmlns:inkscape="http://www.inkscape.org/namespaces/inkscape" inkscape:groupmode="layer" id="strokes" inkscape:label="strokes">
            <path fill="none" stroke-width="3.0" stroke-linecap="butt" stroke-opacity="1.0" stroke="rgb(0, 0, 0)" stroke-linejoin="round" d=" M 143.675, 185.588 146.548, 182.541 146.718, 182.361 149.279, 182.400 154.279, 181.669 156.547, 179.257 158.743, 177.104 160.161, 173.853 161.977, 170.141 166.896, 168.473 169.932, 166.749 171.024, 163.762 172.977, 161.254 173.727, 158.243 174.560, 155.228 174.328, 152.128 174.002, 149.192 170.343, 142.368 167.980, 137.654 162.942, 141.931 156.232, 149.346 155.933, 149.676 146.850, 152.807 " />
            <path fill="none" stroke-width="3.0" stroke-linecap="butt" stroke-opacity="1.0" stroke="rgb(0, 0, 0)" stroke-linejoin="round" d=" M 177.982, 89.446 172.186, 81.297 166.498, 73.297 160.888, 71.087 151.699, 67.140 142.511, 63.194 141.704, 62.847 139.831, 62.863 129.831, 62.892 119.831, 62.922 116.140, 62.933 106.142, 63.096 96.143, 63.259 93.661, 63.300 90.988, 63.331 82.055, 67.826 75.680, 71.033 68.186, 74.347 63.933, 83.398 59.681, 92.449 59.490, 92.855 63.024, 95.017 61.848, 95.857 61.085, 97.959 " />
            <path fill="none" stroke-width="3.0" stroke-linecap="butt" stroke-opacity="1.0" stroke="rgb(0, 0, 0)" stroke-linejoin="round" d=" M 189.522, 126.862 196.477, 120.456 197.223, 110.483 197.969, 100.511 198.324, 95.770 197.743, 91.448 197.727, 89.427 195.497, 84.516 191.031, 75.569 186.565, 66.622 182.264, 58.005 176.676, 52.090 170.290, 44.395 163.868, 36.654 161.063, 34.916 152.171, 30.341 143.339, 25.796 139.934, 26.002 129.938, 26.266 119.941, 26.531 109.945, 26.795 106.210, 26.894 102.015, 26.909 93.431, 32.038 87.722, 35.449 82.181, 39.383 76.181, 47.383 73.375, 51.124 66.873, 58.722 65.488, 60.341 61.704, 69.598 57.920, 78.854 57.234, 80.534 56.011, 88.500 55.174, 92.146 55.248, 99.132 56.572, 109.044 57.839, 118.531 61.277, 122.355 64.176, 126.697 " />
            <path fill="none" stroke-width="3.0" stroke-linecap="butt" stroke-opacity="1.0" stroke="rgb(0, 0, 0)" stroke-linejoin="round" d=" M 95.338, 126.578 90.935, 129.211 85.861, 132.244 84.703, 135.200 82.925, 136.008 83.454, 139.933 82.115, 142.007 80.877, 149.109 80.724, 149.986 80.537, 158.471 82.073, 159.320 86.074, 162.596 92.493, 168.292 93.913, 169.212 101.318, 174.006 107.772, 175.529 114.720, 176.558 120.682, 175.845 123.891, 175.063 133.065, 171.083 140.037, 168.059 140.123, 167.970 142.519, 165.516 145.886, 156.099 146.203, 155.213 146.850, 152.807 147.340, 150.988 146.883, 146.621 145.234, 142.752 143.716, 136.749 142.936, 133.668 141.754, 132.867 141.497, 132.692 135.899, 128.896 132.136, 126.086 129.599, 125.537 124.533, 124.439 123.513, 124.217 115.653, 123.117 115.266, 123.154 105.312, 124.103 104.810, 124.151 97.855, 125.245 96.991, 125.702 95.403, 126.544 95.338, 126.578 " />
            <path fill="none" stroke-width="3.0" stroke-linecap="butt" stroke-opacity="1.0" stroke="rgb(0, 0, 0)" stroke-linejoin="round" d=" M 128.202, 187.505 131.310, 189.040 134.981, 188.801 140.298, 188.454 142.858, 186.281 142.886, 186.257 146.744, 182.983 " />
            <path fill="none" stroke-width="3.0" stroke-linecap="butt" stroke-opacity="1.0" stroke="rgb(0, 0, 0)" stroke-linejoin="round" d=" M 88.573, 181.878 94.221, 187.522 97.307, 187.869 102.551, 188.460 " />
            <path fill="none" stroke-width="3.0" stroke-linecap="butt" stroke-opacity="1.0" stroke="rgb(0, 0, 0)" stroke-linejoin="round" d=" M 76.503, 103.393 81.278, 96.582 86.140, 91.401 94.596, 87.574 103.116, 87.713 106.425, 90.567 " />
            <path fill="none" stroke-width="3.0" stroke-linecap="butt" stroke-opacity="1.0" stroke="rgb(0, 0, 0)" stroke-linejoin="round" d=" M 112.679, 98.136 110.479, 90.487 106.817, 83.548 101.354, 80.249 " />
            <path fill="none" stroke-width="3.0" stroke-linecap="butt" stroke-opacity="1.0" stroke="rgb(0, 0, 0)" stroke-linejoin="round" d=" M 133.758, 82.452 128.263, 88.492 126.044, 98.242 126.006, 98.409 131.215, 91.948 136.488, 87.898 146.031, 87.700 155.224, 91.556 160.394, 96.759 165.371, 103.682 " />
            <path fill="none" stroke-width="3.0" stroke-linecap="butt" stroke-opacity="1.0" stroke="rgb(0, 0, 0)" stroke-linejoin="round" d=" M 144.693, 136.713 149.871, 131.308 152.404, 124.080 152.464, 114.081 152.468, 113.317 148.987, 104.522 142.455, 98.941 133.080, 99.746 130.458, 104.669 130.281, 108.985 " />
            <path fill="none" stroke-width="3.0" stroke-linecap="butt" stroke-opacity="1.0" stroke="rgb(0, 0, 0)" stroke-linejoin="round" d=" M 109.786, 105.764 107.603, 100.910 99.103, 100.161 93.283, 105.967 89.921, 114.187 89.670, 124.184 89.663, 124.464 90.935, 129.211 " />
            <path fill="none" stroke-width="3.0" stroke-linecap="butt" stroke-opacity="1.0" stroke="rgb(0, 0, 0)" stroke-linejoin="round" d=" M 176.415, 98.407 181.860, 95.510 177.982, 89.446 " />
            <path fill="none" stroke-width="3.0" stroke-linecap="butt" stroke-opacity="1.0" stroke="rgb(0, 0, 0)" stroke-linejoin="round" d=" M 64.177, 126.583 62.472, 124.003 64.179, 126.340 64.177, 126.583 64.176, 126.697 64.128, 131.562 64.587, 131.404 64.584, 131.554 64.573, 132.060 62.913, 134.060 58.246, 141.291 57.640, 142.229 57.622, 143.690 57.574, 147.424 58.993, 151.404 61.279, 152.536 61.404, 156.102 60.898, 166.089 60.860, 166.839 60.783, 168.349 60.883, 169.306 60.937, 169.468 61.187, 170.148 66.280, 178.754 71.373, 187.360 71.894, 188.239 74.088, 191.925 74.477, 192.121 74.543, 192.262 83.239, 197.199 91.936, 202.135 95.778, 204.315 103.809, 209.409 107.994, 211.353 117.410, 214.545 121.597, 216.530 124.580, 215.332 134.381, 213.347 137.596, 212.696 138.510, 212.336 147.012, 207.070 148.595, 206.089 157.461, 201.463 160.053, 200.111 167.962, 193.992 168.700, 193.422 173.174, 189.455 178.462, 180.968 181.343, 176.343 183.066, 172.206 183.666, 170.767 184.036, 169.308 185.897, 159.483 186.010, 158.886 186.036, 157.000 186.172, 156.466 186.491, 156.413 190.806, 148.553 191.289, 145.490 187.735, 137.878 185.952, 134.625 186.515, 131.796 186.610, 131.317 187.023, 129.238 " />
            <path fill="none" stroke-width="3.0" stroke-linecap="butt" stroke-opacity="1.0" stroke="rgb(0, 0, 0)" stroke-linejoin="round" d=" M 142.886, 186.257 143.503, 186.306 144.399, 185.701 142.843, 187.689 142.858, 186.281 " />
            <path fill="none" stroke-width="3.0" stroke-linecap="butt" stroke-opacity="1.0" stroke="rgb(0, 0, 0)" stroke-linejoin="round" d=" M 57.622, 143.690 56.948, 146.138 56.099, 148.908 56.325, 154.318 56.838, 160.679 59.221, 162.946 60.860, 166.839 " />
            <path fill="none" stroke-width="3.0" stroke-linecap="butt" stroke-opacity="1.0" stroke="rgb(0, 0, 0)" stroke-linejoin="round" d=" M 64.584, 131.554 61.988, 133.812 58.834, 137.559 58.246, 141.291 " />
            <path fill="none" stroke-width="3.0" stroke-linecap="butt" stroke-opacity="1.0" stroke="rgb(0, 0, 0)" stroke-linejoin="round" d=" M 80.877, 149.109 80.185, 148.833 75.346, 143.611 70.343, 136.691 68.272, 140.812 67.643, 142.065 64.529, 147.782 64.140, 151.482 63.841, 153.654 64.477, 157.237 64.973, 159.573 65.926, 163.160 67.115, 165.195 69.633, 166.154 71.425, 166.836 74.143, 168.667 75.508, 171.704 76.963, 175.591 79.459, 178.460 81.095, 180.269 85.501, 181.098 86.046, 181.110 88.278, 181.157 88.724, 181.520 91.083, 183.439 91.770, 185.072 " />
            <path fill="none" stroke-width="3.0" stroke-linecap="butt" stroke-opacity="1.0" stroke="rgb(0, 0, 0)" stroke-linejoin="round" d=" M 103.828, 187.868 104.635, 188.535 109.834, 191.582 115.686, 192.070 125.638, 193.047 126.263, 193.108 130.086, 191.517 134.981, 188.801 " />
            <path fill="none" stroke-width="3.0" stroke-linecap="butt" stroke-opacity="1.0" stroke="rgb(0, 0, 0)" stroke-linejoin="round" d=" M 106.425, 90.567 107.393, 91.387 107.449, 91.450 108.247, 92.351 " />
            <path fill="none" stroke-width="3.0" stroke-linecap="butt" stroke-opacity="1.0" stroke="rgb(0, 0, 0)" stroke-linejoin="round" d=" M 109.094, 108.517 104.291, 107.331 102.884, 107.809 98.979, 109.429 98.488, 109.798 98.392, 109.851 95.583, 115.053 95.427, 115.336 94.601, 122.006 94.585, 122.177 94.607, 122.344 94.759, 123.742 95.403, 126.544 " />
            <path fill="none" stroke-width="3.0" stroke-linecap="butt" stroke-opacity="1.0" stroke="rgb(0, 0, 0)" stroke-linejoin="round" d=" M 112.880, 183.678 115.965, 182.272 116.091, 182.276 117.488, 182.316 118.298, 182.612 118.858, 182.816 121.092, 183.992 " />
            <path fill="none" stroke-width="3.0" stroke-linecap="butt" stroke-opacity="1.0" stroke="rgb(0, 0, 0)" stroke-linejoin="round" d=" M 141.754, 132.867 142.583, 131.751 144.576, 128.907 144.954, 126.795 145.660, 121.668 144.782, 115.309 144.658, 114.512 141.575, 110.130 141.034, 109.366 136.808, 108.085 134.635, 107.506 130.368, 108.958 " />
            <path fill="none" stroke-width="3.0" stroke-linecap="butt" stroke-opacity="1.0" stroke="rgb(0, 0, 0)" stroke-linejoin="round" d=" M 183.066, 172.206 187.504, 171.688 192.507, 169.333 195.118, 165.152 197.200, 163.571 198.528, 155.901 198.894, 151.585 197.889, 147.717 195.971, 141.775 195.021, 138.361 190.666, 133.720 189.423, 132.737 186.515, 131.796 " />
            <path fill="none" stroke-width="3.0" stroke-linecap="butt" stroke-opacity="1.0" stroke="rgb(0, 0, 0)" stroke-linejoin="round" d=" M 186.610, 131.317 189.522, 126.862 " />
        </g>
    </g>
</svg>
