<?xml version='1.0' encoding='ascii'?>
<svg xmlns="http://www.w3.org/2000/svg" version="1.1" width="250" height="250">
    <g id="ViewLayer_LineSet" xmlns:inkscape="http://www.inkscape.org/namespaces/inkscape" inkscape:groupmode="lineset" inkscape:label="ViewLayer_LineSet">
        <g xmlns:inkscape="http://www.inkscape.org/namespaces/inkscape" inkscape:groupmode="layer" id="strokes" inkscape:label="strokes">
            <path fill="none" stroke-width="3.0" stroke-linecap="butt" stroke-opacity="1.0" stroke="rgb(0, 0, 0)" stroke-linejoin="round" d=" M 111.807, 185.783 116.230, 183.807 116.411, 183.813 117.750, 183.855 119.008, 184.305 119.573, 184.507 122.572, 186.047 " />
            <path fill="none" stroke-width="3.0" stroke-linecap="butt" stroke-opacity="1.0" stroke="rgb(0, 0, 0)" stroke-linejoin="round" d=" M 178.273, 90.804 172.335, 82.757 166.511, 74.866 161.420, 72.904 152.197, 69.040 142.973, 65.177 141.799, 64.685 140.579, 64.693 130.579, 64.728 120.579, 64.763 116.178, 64.778 106.179, 64.927 96.180, 65.077 93.032, 65.123 90.967, 65.149 81.988, 69.551 75.268, 72.845 68.213, 75.899 63.784, 84.865 59.409, 93.724 63.275, 95.863 62.008, 96.737 61.136, 98.922 " />
            <path fill="none" stroke-width="3.0" stroke-linecap="butt" stroke-opacity="1.0" stroke="rgb(0, 0, 0)" stroke-linejoin="round" d=" M 189.476, 126.363 196.378, 119.812 197.187, 109.845 197.996, 99.877 198.356, 95.441 197.765, 91.148 197.752, 89.058 195.355, 83.799 190.880, 74.856 186.405, 65.913 182.323, 57.756 177.013, 52.142 170.629, 44.445 164.244, 36.748 163.828, 36.247 161.552, 34.831 152.658, 30.259 143.764, 25.687 143.174, 25.384 140.424, 25.557 130.428, 25.824 120.431, 26.091 110.435, 26.357 105.505, 26.489 101.935, 26.497 93.355, 31.633 87.018, 35.427 81.988, 39.019 75.997, 47.026 72.809, 51.286 66.309, 58.885 65.223, 60.155 61.441, 69.412 57.660, 78.669 56.724, 80.959 55.661, 88.369 54.882, 91.851 55.017, 98.732 56.415, 108.634 57.745, 118.050 61.203, 121.964 64.144, 126.303 " />
            <path fill="none" stroke-width="3.0" stroke-linecap="butt" stroke-opacity="1.0" stroke="rgb(0, 0, 0)" stroke-linejoin="round" d=" M 106.680, 208.250 107.664, 208.821 107.810, 208.906 109.270, 209.128 109.491, 209.713 " />
            <path fill="none" stroke-width="3.0" stroke-linecap="butt" stroke-opacity="1.0" stroke="rgb(0, 0, 0)" stroke-linejoin="round" d=" M 95.464, 129.322 91.467, 131.688 86.396, 134.690 85.022, 138.138 82.991, 139.176 83.524, 142.594 82.348, 144.467 81.342, 150.688 81.030, 152.617 80.969, 161.250 82.325, 161.947 85.690, 164.608 92.682, 170.938 93.789, 171.704 99.931, 175.959 105.997, 177.343 107.031, 177.578 109.920, 177.988 114.906, 178.696 121.683, 177.898 125.273, 177.001 134.370, 172.849 139.945, 170.305 140.449, 169.784 142.937, 167.210 146.308, 157.796 146.406, 157.523 147.261, 154.262 147.552, 153.152 147.065, 148.835 145.448, 145.177 143.488, 137.617 143.038, 135.882 141.257, 134.693 141.044, 134.551 136.404, 131.455 132.259, 128.324 129.645, 127.775 124.824, 126.761 122.524, 126.278 115.997, 125.357 115.238, 125.436 107.041, 126.284 98.514, 127.652 97.374, 128.276 95.843, 129.114 95.464, 129.322 " />
            <path fill="none" stroke-width="3.0" stroke-linecap="butt" stroke-opacity="1.0" stroke="rgb(0, 0, 0)" stroke-linejoin="round" d=" M 128.123, 188.761 131.551, 190.437 134.617, 190.215 140.494, 189.790 142.972, 187.662 143.066, 187.582 143.621, 187.105 146.902, 184.288 " />
            <path fill="none" stroke-width="3.0" stroke-linecap="butt" stroke-opacity="1.0" stroke="rgb(0, 0, 0)" stroke-linejoin="round" d=" M 88.947, 183.201 92.344, 186.607 92.726, 186.991 94.604, 188.875 102.911, 189.868 " />
            <path fill="none" stroke-width="3.0" stroke-linecap="butt" stroke-opacity="1.0" stroke="rgb(0, 0, 0)" stroke-linejoin="round" d=" M 76.460, 104.305 81.212, 97.488 86.064, 92.317 94.531, 88.550 103.083, 88.783 " />
            <path fill="none" stroke-width="3.0" stroke-linecap="butt" stroke-opacity="1.0" stroke="rgb(0, 0, 0)" stroke-linejoin="round" d=" M 112.708, 99.346 110.482, 91.682 106.782, 84.618 101.285, 81.222 " />
            <path fill="none" stroke-width="3.0" stroke-linecap="butt" stroke-opacity="1.0" stroke="rgb(0, 0, 0)" stroke-linejoin="round" d=" M 131.261, 93.078 136.535, 88.944 146.091, 88.657 155.298, 92.452 160.473, 97.650 165.453, 104.578 " />
            <path fill="none" stroke-width="3.0" stroke-linecap="butt" stroke-opacity="1.0" stroke="rgb(0, 0, 0)" stroke-linejoin="round" d=" M 133.792, 83.491 128.299, 89.627 126.101, 99.383 126.056, 99.583 " />
            <path fill="none" stroke-width="3.0" stroke-linecap="butt" stroke-opacity="1.0" stroke="rgb(0, 0, 0)" stroke-linejoin="round" d=" M 144.771, 137.550 149.941, 132.136 152.466, 124.866 152.524, 114.866 152.528, 114.099 149.044, 105.312 142.503, 99.755 133.121, 100.651 130.507, 105.625 130.338, 109.961 " />
            <path fill="none" stroke-width="3.0" stroke-linecap="butt" stroke-opacity="1.0" stroke="rgb(0, 0, 0)" stroke-linejoin="round" d=" M 109.812, 106.740 107.606, 101.824 99.081, 100.974 93.267, 106.707 89.934, 114.926 89.729, 124.924 89.722, 125.235 91.467, 131.688 " />
            <path fill="none" stroke-width="3.0" stroke-linecap="butt" stroke-opacity="1.0" stroke="rgb(0, 0, 0)" stroke-linejoin="round" d=" M 176.497, 98.921 182.086, 96.527 178.273, 90.804 " />
            <path fill="none" stroke-width="3.0" stroke-linecap="butt" stroke-opacity="1.0" stroke="rgb(0, 0, 0)" stroke-linejoin="round" d=" M 64.144, 126.251 62.327, 123.557 64.144, 126.045 64.144, 126.251 64.144, 126.303 64.151, 131.389 64.152, 131.570 64.542, 131.458 64.523, 132.041 63.175, 133.701 57.910, 142.165 57.753, 142.418 57.750, 142.752 57.713, 147.586 59.141, 151.563 61.460, 152.848 61.627, 156.547 61.197, 166.389 61.082, 169.019 61.166, 169.766 61.210, 169.892 61.402, 170.411 66.545, 178.987 66.777, 179.373 71.955, 187.928 74.156, 191.565 76.197, 192.569 76.554, 193.293 85.301, 198.138 94.049, 202.984 95.960, 204.043 103.174, 208.539 108.361, 211.001 115.877, 213.565 121.745, 216.328 125.982, 214.600 135.759, 212.501 137.328, 212.164 139.444, 211.305 147.967, 206.074 148.662, 205.647 157.570, 201.103 162.014, 198.835 168.924, 193.533 172.570, 190.341 177.888, 181.872 181.446, 176.205 183.347, 171.682 183.613, 171.050 183.967, 169.683 185.840, 159.769 185.886, 157.257 186.065, 156.543 186.478, 156.448 190.717, 148.621 191.227, 145.521 187.679, 137.751 185.906, 134.456 186.508, 131.303 186.628, 130.678 186.995, 128.754 " />
            <path fill="none" stroke-width="3.0" stroke-linecap="butt" stroke-opacity="1.0" stroke="rgb(0, 0, 0)" stroke-linejoin="round" d=" M 143.066, 187.582 143.629, 187.630 144.575, 186.842 142.967, 188.733 142.972, 187.662 " />
            <path fill="none" stroke-width="3.0" stroke-linecap="butt" stroke-opacity="1.0" stroke="rgb(0, 0, 0)" stroke-linejoin="round" d=" M 104.871, 206.581 106.680, 208.250 " />
            <path fill="none" stroke-width="3.0" stroke-linecap="butt" stroke-opacity="1.0" stroke="rgb(0, 0, 0)" stroke-linejoin="round" d=" M 57.750, 142.752 57.014, 145.457 56.182, 148.238 56.444, 153.643 57.006, 159.994 59.425, 162.346 61.197, 166.389 " />
            <path fill="none" stroke-width="3.0" stroke-linecap="butt" stroke-opacity="1.0" stroke="rgb(0, 0, 0)" stroke-linejoin="round" d=" M 64.151, 131.389 62.158, 133.062 58.873, 136.953 58.264, 140.865 57.910, 142.165 " />
            <path fill="none" stroke-width="3.0" stroke-linecap="butt" stroke-opacity="1.0" stroke="rgb(0, 0, 0)" stroke-linejoin="round" d=" M 81.342, 150.688 80.435, 150.321 75.709, 145.173 70.529, 137.949 68.469, 142.095 67.929, 143.182 64.758, 149.083 64.396, 152.763 64.111, 154.951 64.771, 158.541 65.282, 160.878 66.275, 164.535 67.445, 166.531 68.747, 167.034 71.819, 168.222 74.498, 170.047 75.859, 173.040 77.346, 176.958 79.900, 179.872 81.490, 181.618 85.699, 182.412 88.197, 182.478 88.636, 182.490 89.089, 182.863 91.614, 184.938 92.344, 186.607 " />
            <path fill="none" stroke-width="3.0" stroke-linecap="butt" stroke-opacity="1.0" stroke="rgb(0, 0, 0)" stroke-linejoin="round" d=" M 106.142, 91.462 107.323, 92.500 108.336, 93.630 " />
            <path fill="none" stroke-width="3.0" stroke-linecap="butt" stroke-opacity="1.0" stroke="rgb(0, 0, 0)" stroke-linejoin="round" d=" M 108.902, 109.405 104.398, 108.295 102.810, 108.830 98.499, 110.605 98.395, 110.684 98.374, 110.696 95.567, 116.014 95.434, 116.257 94.661, 122.977 94.647, 123.139 94.669, 123.298 94.839, 124.742 95.843, 129.114 " />
            <path fill="none" stroke-width="3.0" stroke-linecap="butt" stroke-opacity="1.0" stroke="rgb(0, 0, 0)" stroke-linejoin="round" d=" M 104.314, 189.224 110.046, 192.535 116.569, 193.069 126.579, 194.029 131.027, 192.198 134.617, 190.215 " />
            <path fill="none" stroke-width="3.0" stroke-linecap="butt" stroke-opacity="1.0" stroke="rgb(0, 0, 0)" stroke-linejoin="round" d=" M 141.257, 134.693 142.641, 132.814 144.683, 129.872 145.040, 127.826 145.738, 122.623 144.850, 116.336 144.710, 115.462 141.678, 111.193 141.058, 110.325 136.974, 109.110 134.632, 108.496 130.727, 109.836 " />
            <path fill="none" stroke-width="3.0" stroke-linecap="butt" stroke-opacity="1.0" stroke="rgb(0, 0, 0)" stroke-linejoin="round" d=" M 143.621, 187.105 146.707, 183.849 146.878, 183.668 149.614, 183.695 154.393, 182.991 156.705, 180.530 158.839, 178.437 160.278, 175.138 162.058, 171.496 167.059, 169.764 170.003, 168.063 171.107, 165.015 173.023, 162.535 173.785, 159.488 174.614, 156.501 174.391, 153.406 174.074, 150.476 170.359, 143.510 168.064, 138.918 163.232, 143.098 156.587, 150.570 156.053, 151.170 147.261, 154.262 " />
            <path fill="none" stroke-width="3.0" stroke-linecap="butt" stroke-opacity="1.0" stroke="rgb(0, 0, 0)" stroke-linejoin="round" d=" M 183.347, 171.682 187.434, 171.157 192.021, 168.928 194.869, 164.443 197.013, 162.766 198.357, 155.149 198.735, 150.805 197.749, 146.955 195.832, 140.987 194.911, 137.688 190.428, 132.925 189.584, 132.278 186.508, 131.303 " />
            <path fill="none" stroke-width="3.0" stroke-linecap="butt" stroke-opacity="1.0" stroke="rgb(0, 0, 0)" stroke-linejoin="round" d=" M 186.628, 130.678 189.476, 126.363 " />
        </g>
    </g>
</svg>
