<?xml version='1.0' encoding='ascii'?>
<svg xmlns="http://www.w3.org/2000/svg" version="1.1" width="250" height="250">
    <g id="ViewLayer_LineSet" xmlns:inkscape="http://www.inkscape.org/namespaces/inkscape" inkscape:groupmode="lineset" inkscape:label="ViewLayer_LineSet">
        <g xmlns:inkscape="http://www.inkscape.org/namespaces/inkscape" inkscape:groupmode="layer" id="strokes" inkscape:label="strokes">
            <path fill="none" stroke-width="3.0" stroke-linecap="butt" stroke-opacity="1.0" stroke="rgb(0, 0, 0)" stroke-linejoin="round" d=" M 143.369, 190.224 143.628, 189.954 146.899, 186.546 147.065, 186.373 150.161, 186.370 154.483, 185.723 155.493, 184.649 156.886, 183.168 158.895, 181.202 159.672, 179.428 160.377, 177.817 162.087, 174.326 165.446, 173.117 167.254, 172.466 170.012, 170.818 171.113, 167.738 171.144, 167.651 172.990, 165.231 173.777, 162.121 174.604, 159.194 174.402, 156.121 174.107, 153.199 170.261, 145.910 168.125, 141.610 163.733, 145.547 157.206, 153.124 156.167, 154.330 147.744, 157.406 " />
            <path fill="none" stroke-width="3.0" stroke-linecap="butt" stroke-opacity="1.0" stroke="rgb(0, 0, 0)" stroke-linejoin="round" d=" M 109.428, 190.079 113.205, 188.471 116.651, 187.004 116.944, 187.017 118.161, 187.060 120.657, 187.915 120.939, 188.012 124.208, 189.598 125.596, 190.272 " />
            <path fill="none" stroke-width="3.0" stroke-linecap="butt" stroke-opacity="1.0" stroke="rgb(0, 0, 0)" stroke-linejoin="round" d=" M 105.382, 93.403 107.083, 95.011 108.459, 96.502 " />
            <path fill="none" stroke-width="3.0" stroke-linecap="butt" stroke-opacity="1.0" stroke="rgb(0, 0, 0)" stroke-linejoin="round" d=" M 165.268, 99.730 165.305, 97.749 162.353, 92.457 161.619, 91.331 160.609, 90.747 " />
            <path fill="none" stroke-width="3.0" stroke-linecap="butt" stroke-opacity="1.0" stroke="rgb(0, 0, 0)" stroke-linejoin="round" d=" M 108.398, 111.345 104.567, 110.406 102.595, 111.057 98.447, 112.733 98.299, 112.987 96.894, 115.299 95.487, 118.103 95.400, 118.268 94.741, 125.060 94.729, 125.219 94.754, 125.379 94.990, 127.111 96.023, 131.616 96.183, 132.269 97.433, 133.825 " />
            <path fill="none" stroke-width="3.0" stroke-linecap="butt" stroke-opacity="1.0" stroke="rgb(0, 0, 0)" stroke-linejoin="round" d=" M 178.844, 93.840 172.563, 86.058 166.343, 78.352 162.498, 76.942 153.197, 73.271 143.980, 69.633 " />
            <path fill="none" stroke-width="3.0" stroke-linecap="butt" stroke-opacity="1.0" stroke="rgb(0, 0, 0)" stroke-linejoin="round" d=" M 189.418, 125.326 196.248, 118.472 197.192, 108.517 198.137, 98.561 198.482, 94.924 197.843, 90.575 197.836, 88.267 194.929, 81.964 190.426, 73.036 185.923, 64.107 182.461, 57.243 177.787, 52.323 171.401, 44.628 165.014, 36.933 163.726, 35.382 162.653, 34.710 153.753, 30.150 144.853, 25.591 142.788, 24.533 141.532, 24.620 131.535, 24.898 121.539, 25.176 111.543, 25.454 103.920, 25.666 101.754, 25.666 93.189, 30.826 85.498, 35.460 81.560, 38.312 75.593, 46.336 71.617, 51.683 65.123, 59.288 64.656, 59.834 60.884, 69.095 57.111, 78.356 55.768, 81.654 54.996, 88.086 54.324, 91.284 54.601, 98.064 56.170, 107.940 57.611, 117.011 61.069, 121.052 63.935, 125.141 " />
            <path fill="none" stroke-width="3.0" stroke-linecap="butt" stroke-opacity="1.0" stroke="rgb(0, 0, 0)" stroke-linejoin="round" d=" M 104.832, 207.892 108.580, 210.030 109.560, 210.146 113.713, 210.638 114.392, 212.395 " />
            <path fill="none" stroke-width="3.0" stroke-linecap="butt" stroke-opacity="1.0" stroke="rgb(0, 0, 0)" stroke-linejoin="round" d=" M 95.587, 134.916 93.732, 136.001 87.330, 139.749 85.532, 144.131 83.067, 145.690 83.571, 148.223 82.688, 149.719 82.109, 153.967 81.531, 158.200 81.777, 167.333 82.256, 167.542 82.611, 167.696 82.653, 167.715 84.600, 169.143 91.787, 176.097 92.897, 177.170 93.201, 177.417 96.795, 180.332 100.646, 181.155 105.219, 182.133 110.753, 182.845 115.117, 183.406 123.664, 182.444 128.016, 181.280 136.920, 176.728 139.554, 175.380 141.081, 173.748 143.630, 171.024 146.644, 162.470 147.791, 157.774 147.744, 157.406 147.247, 153.582 145.711, 150.324 143.108, 140.669 143.060, 140.491 141.705, 139.605 139.320, 138.047 139.309, 138.040 137.267, 136.706 132.338, 132.832 125.321, 131.434 120.191, 130.412 116.555, 129.887 115.144, 130.057 111.588, 130.487 101.726, 132.139 99.716, 132.475 98.343, 133.287 97.433, 133.825 95.587, 134.916 " />
            <path fill="none" stroke-width="3.0" stroke-linecap="butt" stroke-opacity="1.0" stroke="rgb(0, 0, 0)" stroke-linejoin="round" d=" M 131.908, 193.283 133.740, 193.123 140.755, 192.513 143.107, 190.453 143.705, 189.929 147.089, 186.964 " />
            <path fill="none" stroke-width="3.0" stroke-linecap="butt" stroke-opacity="1.0" stroke="rgb(0, 0, 0)" stroke-linejoin="round" d=" M 89.632, 185.891 93.457, 189.756 95.296, 191.614 103.539, 192.728 " />
            <path fill="none" stroke-width="3.0" stroke-linecap="butt" stroke-opacity="1.0" stroke="rgb(0, 0, 0)" stroke-linejoin="round" d=" M 76.329, 106.329 81.026, 99.519 85.850, 94.381 94.332, 90.755 102.938, 91.195 " />
            <path fill="none" stroke-width="3.0" stroke-linecap="butt" stroke-opacity="1.0" stroke="rgb(0, 0, 0)" stroke-linejoin="round" d=" M 112.682, 102.034 110.402, 94.360 106.629, 87.039 101.069, 83.442 " />
            <path fill="none" stroke-width="3.0" stroke-linecap="butt" stroke-opacity="1.0" stroke="rgb(0, 0, 0)" stroke-linejoin="round" d=" M 131.271, 95.609 136.550, 91.300 146.142, 90.817 155.383, 94.469 160.572, 99.645 165.554, 106.568 " />
            <path fill="none" stroke-width="3.0" stroke-linecap="butt" stroke-opacity="1.0" stroke="rgb(0, 0, 0)" stroke-linejoin="round" d=" M 133.780, 85.845 128.285, 92.178 126.126, 101.943 126.071, 102.190 " />
            <path fill="none" stroke-width="3.0" stroke-linecap="butt" stroke-opacity="1.0" stroke="rgb(0, 0, 0)" stroke-linejoin="round" d=" M 144.862, 139.336 150.015, 133.916 152.531, 126.569 152.588, 116.570 152.592, 115.818 149.101, 107.069 142.539, 101.578 133.139, 102.667 130.536, 107.744 130.384, 112.111 " />
            <path fill="none" stroke-width="3.0" stroke-linecap="butt" stroke-opacity="1.0" stroke="rgb(0, 0, 0)" stroke-linejoin="round" d=" M 109.799, 108.899 107.551, 103.860 98.983, 102.790 93.190, 108.350 89.922, 116.547 89.810, 126.546 89.806, 126.897 91.758, 133.989 " />
            <path fill="none" stroke-width="3.0" stroke-linecap="butt" stroke-opacity="1.0" stroke="rgb(0, 0, 0)" stroke-linejoin="round" d=" M 176.631, 100.098 182.533, 98.825 178.844, 93.840 " />
            <path fill="none" stroke-width="3.0" stroke-linecap="butt" stroke-opacity="1.0" stroke="rgb(0, 0, 0)" stroke-linejoin="round" d=" M 64.113, 125.480 62.012, 122.507 63.935, 125.141 64.111, 125.381 64.111, 125.391 64.113, 125.480 64.213, 130.144 64.243, 131.528 64.505, 131.485 64.482, 131.907 63.663, 132.964 58.659, 141.622 58.015, 142.738 58.028, 147.881 59.448, 151.794 61.861, 153.416 62.108, 157.454 61.887, 165.126 61.730, 170.543 61.751, 170.707 61.761, 170.734 61.802, 170.843 62.471, 171.930 67.767, 180.412 73.062, 188.895 74.254, 190.804 80.079, 193.527 81.155, 195.464 90.010, 200.110 96.302, 203.411 101.750, 206.682 109.113, 210.354 112.673, 211.599 121.738, 215.820 122.013, 215.948 128.880, 213.055 136.728, 211.167 141.368, 209.167 148.771, 204.718 157.771, 200.359 166.101, 196.325 169.370, 193.863 171.172, 192.322 176.550, 183.891 181.592, 175.985 183.455, 171.626 183.752, 170.524 183.776, 170.437 185.461, 161.558 185.566, 157.805 185.834, 156.729 186.416, 156.517 190.527, 148.746 191.093, 145.582 187.596, 137.525 185.829, 134.094 186.524, 130.223 186.675, 129.385 186.971, 127.733 186.250, 130.013 186.213, 130.131 " />
            <path fill="none" stroke-width="3.0" stroke-linecap="butt" stroke-opacity="1.0" stroke="rgb(0, 0, 0)" stroke-linejoin="round" d=" M 102.206, 69.080 92.207, 69.202 91.434, 69.212 90.805, 69.221 81.729, 73.419 74.258, 76.876 68.214, 79.374 63.382, 88.129 59.202, 95.704 63.888, 97.727 62.407, 98.664 61.268, 101.025 67.856, 101.394 " />
            <path fill="none" stroke-width="3.0" stroke-linecap="butt" stroke-opacity="1.0" stroke="rgb(0, 0, 0)" stroke-linejoin="round" d=" M 143.705, 189.929 143.804, 189.897 144.174, 189.790 144.325, 189.746 145.021, 189.544 144.826, 190.370 143.917, 190.225 144.325, 189.746 144.821, 189.165 " />
            <path fill="none" stroke-width="3.0" stroke-linecap="butt" stroke-opacity="1.0" stroke="rgb(0, 0, 0)" stroke-linejoin="round" d=" M 144.174, 189.790 143.107, 190.821 143.107, 190.453 " />
            <path fill="none" stroke-width="3.0" stroke-linecap="butt" stroke-opacity="1.0" stroke="rgb(0, 0, 0)" stroke-linejoin="round" d=" M 99.540, 202.663 104.832, 207.892 " />
            <path fill="none" stroke-width="3.0" stroke-linecap="butt" stroke-opacity="1.0" stroke="rgb(0, 0, 0)" stroke-linejoin="round" d=" M 64.213, 130.144 62.611, 131.355 59.021, 135.592 58.475, 139.229 57.229, 143.925 56.437, 146.716 56.774, 152.119 57.432, 158.429 59.932, 160.968 61.887, 165.126 " />
            <path fill="none" stroke-width="3.0" stroke-linecap="butt" stroke-opacity="1.0" stroke="rgb(0, 0, 0)" stroke-linejoin="round" d=" M 82.109, 153.967 80.876, 153.452 76.413, 148.494 70.860, 140.612 68.943, 144.559 68.476, 145.523 65.184, 151.815 64.879, 155.452 64.625, 157.660 65.335, 161.269 65.874, 163.593 66.953, 167.403 67.111, 167.671 68.072, 169.300 72.583, 171.096 75.166, 172.901 76.508, 175.781 78.066, 179.761 80.746, 182.776 82.229, 184.378 86.007, 185.098 89.285, 185.223 89.749, 185.613 92.629, 188.033 93.457, 189.756 " />
            <path fill="none" stroke-width="3.0" stroke-linecap="butt" stroke-opacity="1.0" stroke="rgb(0, 0, 0)" stroke-linejoin="round" d=" M 105.612, 191.795 110.375, 194.463 118.337, 195.094 127.122, 195.901 132.875, 193.594 133.740, 193.123 " />
            <path fill="none" stroke-width="3.0" stroke-linecap="butt" stroke-opacity="1.0" stroke="rgb(0, 0, 0)" stroke-linejoin="round" d=" M 140.567, 137.615 140.967, 137.471 142.680, 135.102 144.821, 131.959 145.139, 130.044 145.820, 124.699 144.916, 118.596 144.741, 117.544 141.823, 113.521 141.026, 112.432 137.254, 111.352 134.547, 110.668 131.440, 111.751 " />
            <path fill="none" stroke-width="3.0" stroke-linecap="butt" stroke-opacity="1.0" stroke="rgb(0, 0, 0)" stroke-linejoin="round" d=" M 183.752, 170.524 187.321, 169.980 191.020, 168.062 194.413, 162.890 196.679, 161.017 198.068, 153.500 198.472, 149.110 197.529, 145.290 195.604, 139.247 194.742, 136.205 190.089, 131.287 189.901, 131.213 186.524, 130.223 " />
            <path fill="none" stroke-width="3.0" stroke-linecap="butt" stroke-opacity="1.0" stroke="rgb(0, 0, 0)" stroke-linejoin="round" d=" M 186.675, 129.385 189.418, 125.326 " />
        </g>
    </g>
</svg>
