<?xml version='1.0' encoding='ascii'?>
<svg xmlns="http://www.w3.org/2000/svg" version="1.1" width="250" height="250">
    <g id="ViewLayer_LineSet" xmlns:inkscape="http://www.inkscape.org/namespaces/inkscape" inkscape:groupmode="lineset" inkscape:label="ViewLayer_LineSet">
        <g xmlns:inkscape="http://www.inkscape.org/namespaces/inkscape" inkscape:groupmode="layer" id="strokes" inkscape:label="strokes">
            <path fill="none" stroke-width="3.0" stroke-linecap="butt" stroke-opacity="1.0" stroke="rgb(0, 0, 0)" stroke-linejoin="round" d=" M 136.190, 191.250 145.208, 186.891 146.034, 186.492 146.658, 186.191 147.058, 186.142 147.527, 185.847 " />
            <path fill="none" stroke-width="3.0" stroke-linecap="butt" stroke-opacity="1.0" stroke="rgb(0, 0, 0)" stroke-linejoin="round" d=" M 195.878, 89.586 194.041, 80.984 185.777, 76.787 183.427, 75.370 174.863, 70.206 174.471, 69.969 172.535, 69.885 162.543, 69.494 155.943, 69.235 " />
            <path fill="none" stroke-width="3.0" stroke-linecap="butt" stroke-opacity="1.0" stroke="rgb(0, 0, 0)" stroke-linejoin="round" d=" M 181.243, 115.428 181.433, 115.125 181.762, 113.794 182.980, 103.869 183.686, 98.119 " />
            <path fill="none" stroke-width="3.0" stroke-linecap="butt" stroke-opacity="1.0" stroke="rgb(0, 0, 0)" stroke-linejoin="round" d=" M 124.671, 140.817 124.378, 140.306 124.243, 140.070 125.391, 139.084 131.309, 134.000 126.450, 138.573 125.177, 139.770 124.378, 140.306 123.464, 140.919 123.317, 141.803 122.124, 148.992 122.746, 142.219 123.317, 141.803 124.671, 140.817 " />
            <path fill="none" stroke-width="3.0" stroke-linecap="butt" stroke-opacity="1.0" stroke="rgb(0, 0, 0)" stroke-linejoin="round" d=" M 116.871, 187.786 118.850, 189.280 119.681, 189.908 123.734, 192.969 130.771, 193.115 132.798, 193.158 " />
            <path fill="none" stroke-width="3.0" stroke-linecap="butt" stroke-opacity="1.0" stroke="rgb(0, 0, 0)" stroke-linejoin="round" d=" M 147.527, 185.847 156.712, 189.803 157.354, 190.079 159.050, 190.810 165.911, 189.256 " />
            <path fill="none" stroke-width="3.0" stroke-linecap="butt" stroke-opacity="1.0" stroke="rgb(0, 0, 0)" stroke-linejoin="round" d=" M 92.781, 97.931 92.840, 106.488 97.964, 99.367 103.398, 94.058 112.772, 90.574 113.228, 90.404 123.259, 90.943 129.004, 95.297 134.221, 101.881 132.308, 94.191 127.147, 86.794 120.452, 83.059 " />
            <path fill="none" stroke-width="3.0" stroke-linecap="butt" stroke-opacity="1.0" stroke="rgb(0, 0, 0)" stroke-linejoin="round" d=" M 154.144, 91.390 161.249, 91.019 168.098, 94.607 172.211, 99.567 176.246, 106.128 " />
            <path fill="none" stroke-width="3.0" stroke-linecap="butt" stroke-opacity="1.0" stroke="rgb(0, 0, 0)" stroke-linejoin="round" d=" M 151.963, 86.029 148.080, 92.169 146.056, 102.017 " />
            <path fill="none" stroke-width="3.0" stroke-linecap="butt" stroke-opacity="1.0" stroke="rgb(0, 0, 0)" stroke-linejoin="round" d=" M 118.942, 138.165 124.387, 139.109 " />
            <path fill="none" stroke-width="3.0" stroke-linecap="butt" stroke-opacity="1.0" stroke="rgb(0, 0, 0)" stroke-linejoin="round" d=" M 127.194, 108.828 124.193, 103.775 114.246, 102.745 114.145, 102.735 106.846, 108.477 103.294, 116.969 103.600, 126.964 103.621, 127.643 106.810, 134.850 112.156, 139.682 122.144, 140.178 123.550, 140.248 124.387, 139.109 " />
            <path fill="none" stroke-width="3.0" stroke-linecap="butt" stroke-opacity="1.0" stroke="rgb(0, 0, 0)" stroke-linejoin="round" d=" M 161.978, 130.410 162.974, 125.467 163.025, 115.467 163.026, 115.126 160.309, 106.734 155.107, 101.440 148.040, 102.508 " />
            <path fill="none" stroke-width="3.0" stroke-linecap="butt" stroke-opacity="1.0" stroke="rgb(0, 0, 0)" stroke-linejoin="round" d=" M 176.642, 99.364 178.873, 103.362 182.800, 103.525 183.686, 98.119 183.732, 97.838 183.721, 97.828 181.724, 95.855 184.066, 94.818 193.209, 90.769 195.878, 89.586 " />
            <path fill="none" stroke-width="3.0" stroke-linecap="butt" stroke-opacity="1.0" stroke="rgb(0, 0, 0)" stroke-linejoin="round" d=" M 70.807, 184.029 67.742, 174.510 67.049, 172.358 66.865, 171.786 66.743, 171.406 66.779, 171.188 67.020, 169.755 66.927, 168.849 66.639, 166.040 66.688, 163.915 65.524, 165.742 66.415, 168.655 66.532, 169.465 66.779, 171.188 66.865, 171.786 66.909, 172.093 67.002, 172.377 70.095, 181.886 70.864, 184.248 71.395, 184.975 75.561, 188.411 82.782, 194.369 90.523, 200.700 95.815, 205.027 100.448, 207.194 109.463, 211.522 110.735, 212.132 111.607, 212.381 121.532, 213.603 123.752, 213.876 129.983, 215.746 135.731, 213.146 " />
            <path fill="none" stroke-width="3.0" stroke-linecap="butt" stroke-opacity="1.0" stroke="rgb(0, 0, 0)" stroke-linejoin="round" d=" M 185.753, 141.172 185.819, 139.755 185.027, 138.718 178.543, 131.105 176.826, 129.089 175.686, 124.411 177.365, 125.058 176.933, 122.981 181.260, 115.516 180.537, 116.443 181.243, 115.428 " />
            <path fill="none" stroke-width="3.0" stroke-linecap="butt" stroke-opacity="1.0" stroke="rgb(0, 0, 0)" stroke-linejoin="round" d=" M 101.335, 77.018 101.341, 77.012 104.707, 75.868 101.421, 76.991 101.335, 77.018 101.124, 77.085 100.325, 77.783 92.947, 84.533 85.569, 91.283 79.134, 97.170 79.999, 98.057 " />
            <path fill="none" stroke-width="3.0" stroke-linecap="butt" stroke-opacity="1.0" stroke="rgb(0, 0, 0)" stroke-linejoin="round" d=" M 119.246, 192.609 118.850, 189.280 " />
            <path fill="none" stroke-width="3.0" stroke-linecap="butt" stroke-opacity="1.0" stroke="rgb(0, 0, 0)" stroke-linejoin="round" d=" M 59.663, 138.100 58.757, 136.248 58.337, 133.683 59.806, 137.391 59.663, 138.100 58.162, 145.569 57.589, 148.980 57.809, 150.547 60.471, 154.562 63.149, 152.690 65.371, 149.760 " />
            <path fill="none" stroke-width="3.0" stroke-linecap="butt" stroke-opacity="1.0" stroke="rgb(0, 0, 0)" stroke-linejoin="round" d=" M 136.183, 175.090 144.560, 180.676 144.840, 180.752 145.764, 181.000 146.724, 181.258 147.568, 181.485 155.351, 182.083 159.284, 181.459 167.675, 180.130 169.036, 179.864 173.818, 178.933 177.963, 176.769 179.101, 174.851 184.654, 166.534 186.461, 163.828 186.564, 163.674 186.625, 163.243 187.458, 157.389 187.657, 155.993 186.691, 149.731 185.521, 146.185 183.938, 141.385 183.660, 140.841 182.363, 138.303 178.172, 134.491 177.766, 134.122 172.971, 132.419 172.168, 132.134 169.863, 131.237 161.978, 130.410 159.385, 130.138 158.703, 130.066 157.770, 129.988 149.847, 129.321 147.670, 129.663 147.280, 129.724 147.019, 129.765 143.352, 130.539 134.967, 132.310 143.363, 130.600 147.283, 129.801 147.593, 129.738 148.201, 132.399 " />
            <path fill="none" stroke-width="3.0" stroke-linecap="butt" stroke-opacity="1.0" stroke="rgb(0, 0, 0)" stroke-linejoin="round" d=" M 183.427, 75.370 183.149, 65.374 183.136, 64.922 182.822, 63.770 177.046, 55.607 173.540, 50.652 168.851, 42.892 161.354, 36.488 153.250, 30.629 149.194, 27.697 145.553, 27.321 135.613, 26.227 125.673, 25.132 115.734, 24.037 109.243, 23.322 108.990, 23.281 107.572, 23.847 98.572, 28.207 89.572, 32.566 88.418, 33.126 84.988, 36.200 77.522, 42.854 70.057, 49.507 69.695, 49.830 66.576, 53.067 65.958, 53.619 64.422, 56.049 59.455, 64.728 54.487, 73.406 49.519, 82.085 48.382, 84.072 47.083, 93.987 46.970, 94.850 44.605, 104.566 42.240, 114.282 41.905, 115.660 41.995, 120.893 49.554, 127.439 54.872, 132.045 54.888, 132.072 54.850, 132.081 49.999, 133.602 45.852, 137.565 44.770, 139.991 41.934, 147.746 40.939, 152.973 41.406, 156.052 43.884, 165.261 45.390, 166.286 48.239, 169.331 56.223, 172.930 63.993, 173.423 64.272, 173.441 67.002, 172.377 " />
            <path fill="none" stroke-width="3.0" stroke-linecap="butt" stroke-opacity="1.0" stroke="rgb(0, 0, 0)" stroke-linejoin="round" d=" M 63.993, 173.423 61.362, 177.526 61.961, 178.071 69.583, 184.544 72.917, 187.376 75.561, 188.411 " />
            <path fill="none" stroke-width="3.0" stroke-linecap="butt" stroke-opacity="1.0" stroke="rgb(0, 0, 0)" stroke-linejoin="round" d=" M 129.187, 161.753 122.460, 159.697 112.920, 156.698 107.927, 155.129 100.890, 149.595 93.884, 142.460 93.693, 142.266 91.944, 145.773 87.462, 154.502 87.387, 156.806 87.085, 160.686 87.724, 162.805 89.183, 166.818 90.456, 169.345 93.073, 172.586 97.191, 173.714 101.412, 175.871 103.529, 180.102 104.762, 182.707 107.017, 184.720 109.647, 187.000 114.888, 187.465 116.653, 187.354 117.083, 187.328 117.236, 187.318 118.720, 188.186 120.070, 188.976 119.681, 189.908 " />
            <path fill="none" stroke-width="3.0" stroke-linecap="butt" stroke-opacity="1.0" stroke="rgb(0, 0, 0)" stroke-linejoin="round" d=" M 127.570, 111.798 127.565, 111.792 127.450, 111.768 121.220, 110.466 118.266, 111.751 115.352, 113.135 113.980, 115.902 112.469, 118.826 112.394, 122.725 112.316, 126.035 113.162, 128.911 114.440, 133.133 115.657, 134.527 118.847, 138.054 " />
            <path fill="none" stroke-width="3.0" stroke-linecap="butt" stroke-opacity="1.0" stroke="rgb(0, 0, 0)" stroke-linejoin="round" d=" M 130.771, 193.115 131.750, 193.815 134.221, 194.945 140.209, 194.523 150.266, 193.800 157.354, 190.079 " />
            <path fill="none" stroke-width="3.0" stroke-linecap="butt" stroke-opacity="1.0" stroke="rgb(0, 0, 0)" stroke-linejoin="round" d=" M 135.731, 213.146 137.583, 210.883 147.550, 210.076 147.732, 210.061 150.147, 208.883 156.468, 203.965 161.982, 199.456 162.391, 199.093 164.408, 197.209 161.704, 193.590 170.308, 188.493 178.911, 183.397 181.465, 181.884 182.572, 180.715 184.292, 171.547 185.081, 168.740 " />
            <path fill="none" stroke-width="3.0" stroke-linecap="butt" stroke-opacity="1.0" stroke="rgb(0, 0, 0)" stroke-linejoin="round" d=" M 146.807, 111.588 146.688, 108.701 146.566, 106.771 146.550, 106.529 146.965, 105.617 " />
            <path fill="none" stroke-width="3.0" stroke-linecap="butt" stroke-opacity="1.0" stroke="rgb(0, 0, 0)" stroke-linejoin="round" d=" M 159.385, 130.138 159.603, 125.016 159.694, 123.590 159.383, 122.189 158.308, 117.364 157.771, 116.369 155.817, 112.360 155.441, 112.164 154.503, 111.281 151.916, 110.678 149.804, 110.349 149.270, 110.551 148.315, 110.912 " />
            <path fill="none" stroke-width="3.0" stroke-linecap="butt" stroke-opacity="1.0" stroke="rgb(0, 0, 0)" stroke-linejoin="round" d=" M 149.240, 97.361 151.920, 94.696 153.972, 91.585 " />
            <path fill="none" stroke-width="3.0" stroke-linecap="butt" stroke-opacity="1.0" stroke="rgb(0, 0, 0)" stroke-linejoin="round" d=" M 166.152, 188.933 171.307, 182.493 174.977, 182.092 177.205, 181.474 179.801, 177.804 180.592, 176.784 181.987, 172.113 182.782, 170.036 185.081, 168.740 187.999, 167.095 188.765, 166.379 189.341, 162.136 189.881, 161.007 190.415, 156.552 190.608, 155.267 190.128, 150.849 189.967, 149.672 187.833, 145.555 185.753, 141.172 184.833, 139.234 183.660, 140.841 " />
            <path fill="none" stroke-width="3.0" stroke-linecap="butt" stroke-opacity="1.0" stroke="rgb(0, 0, 0)" stroke-linejoin="round" d=" M 175.829, 102.483 176.642, 99.364 177.362, 96.604 177.362, 96.582 177.346, 96.538 174.400, 91.560 171.673, 89.657 " />
        </g>
    </g>
</svg>
