<?xml version='1.0' encoding='ascii'?>
<svg xmlns="http://www.w3.org/2000/svg" version="1.1" width="250" height="250">
    <g id="ViewLayer_LineSet" xmlns:inkscape="http://www.inkscape.org/namespaces/inkscape" inkscape:groupmode="lineset" inkscape:label="ViewLayer_LineSet">
        <g xmlns:inkscape="http://www.inkscape.org/namespaces/inkscape" inkscape:groupmode="layer" id="strokes" inkscape:label="strokes">
            <path fill="none" stroke-width="3.0" stroke-linecap="butt" stroke-opacity="1.0" stroke="rgb(0, 0, 0)" stroke-linejoin="round" d=" M 85.865, 193.733 89.846, 192.095 95.012, 189.968 95.254, 190.050 95.648, 190.461 100.904, 192.599 109.665, 196.986 " />
            <path fill="none" stroke-width="3.0" stroke-linecap="butt" stroke-opacity="1.0" stroke="rgb(0, 0, 0)" stroke-linejoin="round" d=" M 86.471, 95.192 86.993, 94.919 87.154, 95.271 87.681, 96.426 88.385, 98.496 93.082, 102.639 " />
            <path fill="none" stroke-width="3.0" stroke-linecap="butt" stroke-opacity="1.0" stroke="rgb(0, 0, 0)" stroke-linejoin="round" d=" M 192.318, 133.364 199.934, 126.882 207.549, 120.401 207.735, 120.243 207.980, 120.591 208.388, 119.100 208.648, 118.133 205.569, 108.619 202.491, 99.104 201.178, 95.046 199.065, 85.272 197.953, 80.131 192.466, 71.771 186.979, 63.410 185.546, 61.228 179.823, 55.020 177.790, 51.442 170.079, 45.074 162.368, 38.707 161.899, 38.319 154.137, 32.014 153.949, 31.862 144.757, 27.924 136.175, 24.249 132.998, 24.116 123.003, 24.448 113.336, 24.770 103.473, 26.421 96.877, 27.526 94.498, 27.940 86.789, 34.308 82.594, 37.773 75.450, 44.771 74.965, 45.246 71.698, 51.531 66.377, 59.998 65.696, 61.080 64.071, 67.771 64.792, 77.235 " />
            <path fill="none" stroke-width="3.0" stroke-linecap="butt" stroke-opacity="1.0" stroke="rgb(0, 0, 0)" stroke-linejoin="round" d=" M 160.040, 99.746 160.048, 99.729 159.909, 99.635 158.728, 98.837 " />
            <path fill="none" stroke-width="3.0" stroke-linecap="butt" stroke-opacity="1.0" stroke="rgb(0, 0, 0)" stroke-linejoin="round" d=" M 190.176, 150.920 190.215, 150.786 190.182, 150.443 188.336, 140.615 187.957, 138.599 187.804, 137.784 189.165, 134.549 189.035, 136.459 187.957, 138.599 183.568, 147.306 189.609, 151.114 189.873, 151.337 190.176, 150.920 " />
            <path fill="none" stroke-width="3.0" stroke-linecap="butt" stroke-opacity="1.0" stroke="rgb(0, 0, 0)" stroke-linejoin="round" d=" M 95.791, 108.887 96.104, 110.200 95.790, 114.127 95.769, 114.385 95.602, 124.383 95.492, 130.938 94.657, 136.560 94.066, 141.179 " />
            <path fill="none" stroke-width="3.0" stroke-linecap="butt" stroke-opacity="1.0" stroke="rgb(0, 0, 0)" stroke-linejoin="round" d=" M 134.706, 109.773 135.132, 110.108 135.133, 110.111 135.160, 110.170 139.041, 118.979 139.032, 119.649 139.281, 129.645 139.288, 129.932 139.289, 129.941 136.614, 136.889 " />
            <path fill="none" stroke-width="3.0" stroke-linecap="butt" stroke-opacity="1.0" stroke="rgb(0, 0, 0)" stroke-linejoin="round" d=" M 87.272, 137.258 87.273, 137.257 87.469, 137.173 88.991, 136.520 90.878, 135.711 88.732, 136.000 87.149, 136.213 85.064, 136.493 78.976, 137.313 75.270, 137.811 71.209, 138.358 69.414, 139.023 69.387, 139.033 67.521, 139.723 66.361, 140.133 61.668, 141.791 61.119, 142.398 61.015, 142.512 57.627, 146.252 57.611, 150.250 57.603, 152.316 56.281, 154.999 53.746, 160.144 52.836, 164.204 53.857, 169.083 58.913, 176.298 62.557, 182.289 68.202, 185.340 75.484, 187.982 76.655, 188.407 76.705, 188.426 78.853, 188.695 82.245, 189.120 86.052, 188.816 92.361, 188.313 96.074, 186.963 101.681, 183.945 110.487, 179.206 110.694, 179.095 " />
            <path fill="none" stroke-width="3.0" stroke-linecap="butt" stroke-opacity="1.0" stroke="rgb(0, 0, 0)" stroke-linejoin="round" d=" M 109.668, 196.987 113.610, 196.931 118.423, 196.862 121.608, 194.438 121.750, 194.330 125.045, 191.822 " />
            <path fill="none" stroke-width="3.0" stroke-linecap="butt" stroke-opacity="1.0" stroke="rgb(0, 0, 0)" stroke-linejoin="round" d=" M 68.900, 109.173 69.206, 108.597 72.311, 102.757 75.750, 97.927 81.761, 94.651 87.154, 95.271 " />
            <path fill="none" stroke-width="3.0" stroke-linecap="butt" stroke-opacity="1.0" stroke="rgb(0, 0, 0)" stroke-linejoin="round" d=" M 95.464, 106.302 92.971, 98.816 90.678, 91.330 86.779, 87.590 " />
            <path fill="none" stroke-width="3.0" stroke-linecap="butt" stroke-opacity="1.0" stroke="rgb(0, 0, 0)" stroke-linejoin="round" d=" M 115.317, 89.806 109.554, 96.435 107.926, 106.302 107.909, 106.406 112.672, 99.791 118.332, 95.215 128.297, 94.382 128.552, 94.361 138.019, 97.585 138.591, 97.780 144.088, 103.018 149.339, 110.130 149.350, 101.393 145.453, 94.308 " />
            <path fill="none" stroke-width="3.0" stroke-linecap="butt" stroke-opacity="1.0" stroke="rgb(0, 0, 0)" stroke-linejoin="round" d=" M 128.208, 104.638 118.262, 105.989 115.484, 111.176 115.210, 115.598 " />
            <path fill="none" stroke-width="3.0" stroke-linecap="butt" stroke-opacity="1.0" stroke="rgb(0, 0, 0)" stroke-linejoin="round" d=" M 95.261, 107.045 89.135, 105.625 85.583, 110.674 83.321, 118.468 83.286, 128.450 84.274, 135.487 85.064, 136.493 " />
            <path fill="none" stroke-width="3.0" stroke-linecap="butt" stroke-opacity="1.0" stroke="rgb(0, 0, 0)" stroke-linejoin="round" d=" M 119.940, 143.574 129.907, 142.767 131.516, 142.637 136.438, 137.347 " />
            <path fill="none" stroke-width="3.0" stroke-linecap="butt" stroke-opacity="1.0" stroke="rgb(0, 0, 0)" stroke-linejoin="round" d=" M 74.320, 125.115 73.417, 123.459 73.178, 130.678 68.613, 137.351 66.361, 140.133 " />
            <path fill="none" stroke-width="3.0" stroke-linecap="butt" stroke-opacity="1.0" stroke="rgb(0, 0, 0)" stroke-linejoin="round" d=" M 82.815, 193.302 81.434, 194.366 85.615, 198.834 86.741, 199.857 91.220, 204.134 98.296, 210.130 99.088, 210.758 106.041, 213.628 111.080, 213.074 113.549, 212.192 116.152, 211.648 119.081, 213.780 118.602, 214.525 126.076, 212.124 135.964, 210.892 138.943, 209.960 147.717, 205.793 152.560, 203.808 160.545, 197.787 164.865, 194.529 171.863, 187.386 173.883, 185.325 174.381, 184.320 175.367, 182.328 176.971, 180.755 180.991, 171.599 181.068, 171.424 184.744, 172.433 190.985, 172.088 193.005, 171.977 201.836, 167.721 204.967, 164.827 206.163, 163.994 209.232, 154.476 209.380, 154.017 209.763, 151.690 208.706, 145.697 204.996, 136.820 204.082, 135.215 201.125, 132.571 197.694, 131.629 194.858, 131.627 " />
            <path fill="none" stroke-width="3.0" stroke-linecap="butt" stroke-opacity="1.0" stroke="rgb(0, 0, 0)" stroke-linejoin="round" d=" M 67.458, 77.111 64.797, 77.234 64.792, 77.235 64.318, 77.265 55.945, 82.733 54.708, 83.541 45.782, 88.210 45.165, 91.504 54.777, 94.263 64.389, 97.021 66.583, 97.651 67.531, 97.923 66.842, 98.849 65.824, 100.217 68.242, 106.397 " />
            <path fill="none" stroke-width="3.0" stroke-linecap="butt" stroke-opacity="1.0" stroke="rgb(0, 0, 0)" stroke-linejoin="round" d=" M 121.608, 194.438 124.015, 193.688 127.949, 192.922 127.994, 194.045 128.039, 195.154 127.428, 195.104 126.847, 195.056 125.258, 194.925 126.964, 194.550 126.847, 195.056 126.390, 197.044 " />
            <path fill="none" stroke-width="3.0" stroke-linecap="butt" stroke-opacity="1.0" stroke="rgb(0, 0, 0)" stroke-linejoin="round" d=" M 74.999, 90.686 72.909, 92.380 69.315, 95.048 68.001, 97.298 67.309, 100.090 67.483, 101.819 67.508, 102.061 67.572, 102.229 69.041, 106.078 " />
            <path fill="none" stroke-width="3.0" stroke-linecap="butt" stroke-opacity="1.0" stroke="rgb(0, 0, 0)" stroke-linejoin="round" d=" M 75.484, 187.982 77.034, 190.160 78.725, 192.045 79.916, 192.416 82.815, 193.302 84.568, 193.838 " />
            <path fill="none" stroke-width="3.0" stroke-linecap="butt" stroke-opacity="1.0" stroke="rgb(0, 0, 0)" stroke-linejoin="round" d=" M 89.846, 192.095 90.495, 192.728 93.594, 194.706 103.394, 196.694 104.204, 196.858 109.845, 198.134 113.610, 196.931 " />
            <path fill="none" stroke-width="3.0" stroke-linecap="butt" stroke-opacity="1.0" stroke="rgb(0, 0, 0)" stroke-linejoin="round" d=" M 94.204, 113.669 93.268, 113.419 91.454, 113.814 89.587, 114.459 88.462, 115.900 87.960, 116.264 86.521, 120.086 85.969, 121.398 85.657, 125.347 85.503, 127.401 85.718, 129.524 86.132, 133.634 86.662, 134.751 87.149, 136.213 " />
            <path fill="none" stroke-width="3.0" stroke-linecap="butt" stroke-opacity="1.0" stroke="rgb(0, 0, 0)" stroke-linejoin="round" d=" M 121.750, 194.330 124.430, 191.423 124.858, 191.454 127.105, 191.619 129.378, 191.458 131.615, 191.300 133.728, 189.351 136.334, 187.154 137.394, 184.826 139.243, 180.537 143.732, 179.252 147.631, 177.288 148.840, 174.776 151.758, 171.679 152.389, 169.683 153.909, 165.557 153.855, 163.879 153.501, 159.401 148.832, 150.558 148.371, 149.685 146.967, 146.982 142.867, 150.229 135.679, 157.182 132.456, 160.299 122.931, 163.344 117.269, 165.155 112.291, 166.776 " />
            <path fill="none" stroke-width="3.0" stroke-linecap="butt" stroke-opacity="1.0" stroke="rgb(0, 0, 0)" stroke-linejoin="round" d=" M 124.400, 141.533 125.278, 141.271 125.279, 141.271 125.487, 141.202 125.506, 141.196 128.047, 137.359 129.058, 135.840 129.895, 130.817 130.194, 128.544 129.847, 126.140 129.036, 121.320 127.513, 119.122 125.401, 116.042 123.110, 115.321 119.276, 114.161 115.210, 115.598 " />
            <path fill="none" stroke-width="3.0" stroke-linecap="butt" stroke-opacity="1.0" stroke="rgb(0, 0, 0)" stroke-linejoin="round" d=" M 174.381, 184.320 174.695, 184.368 177.084, 184.534 179.518, 183.606 187.481, 177.557 190.466, 175.290 191.407, 173.836 191.406, 172.750 190.985, 172.088 " />
        </g>
    </g>
</svg>
