<?xml version='1.0' encoding='ascii'?>
<svg xmlns="http://www.w3.org/2000/svg" version="1.1" width="250" height="250">
    <g id="ViewLayer_LineSet" xmlns:inkscape="http://www.inkscape.org/namespaces/inkscape" inkscape:groupmode="lineset" inkscape:label="ViewLayer_LineSet">
        <g xmlns:inkscape="http://www.inkscape.org/namespaces/inkscape" inkscape:groupmode="layer" id="strokes" inkscape:label="strokes">
            <path fill="none" stroke-width="3.0" stroke-linecap="butt" stroke-opacity="1.0" stroke="rgb(0, 0, 0)" stroke-linejoin="round" d=" M 163.072, 174.811 165.224, 172.164 165.642, 171.650 167.742, 171.638 172.651, 170.627 174.733, 167.858 176.359, 165.865 177.529, 162.089 177.812, 161.368 178.719, 159.056 183.305, 157.230 185.341, 155.859 185.957, 152.603 187.024, 150.718 187.248, 148.676 187.278, 148.397 187.428, 147.036 187.553, 146.097 187.700, 144.999 187.007, 140.937 186.669, 139.247 184.192, 135.171 182.440, 131.989 180.809, 129.026 180.783, 128.980 180.759, 128.936 180.672, 128.778 176.123, 133.360 175.726, 133.928 " />
            <path fill="none" stroke-width="3.0" stroke-linecap="butt" stroke-opacity="1.0" stroke="rgb(0, 0, 0)" stroke-linejoin="round" d=" M 117.822, 77.713 117.736, 77.608 117.714, 77.580 117.709, 77.574 111.844, 74.931 111.582, 74.848 " />
            <path fill="none" stroke-width="3.0" stroke-linecap="butt" stroke-opacity="1.0" stroke="rgb(0, 0, 0)" stroke-linejoin="round" d=" M 188.397, 86.497 185.511, 76.922 182.625, 67.348 182.277, 66.193 180.965, 65.505 172.335, 60.987 163.771, 55.823 160.082, 53.599 154.234, 53.500 144.240, 53.152 135.783, 52.858 125.783, 52.773 115.734, 52.688 110.798, 52.577 101.760, 56.857 93.253, 60.887 85.420, 64.247 79.979, 72.638 75.229, 79.965 70.119, 88.560 69.414, 89.746 72.899, 95.081 " />
            <path fill="none" stroke-width="3.0" stroke-linecap="butt" stroke-opacity="1.0" stroke="rgb(0, 0, 0)" stroke-linejoin="round" d=" M 184.345, 123.085 186.693, 120.626 187.717, 110.679 188.297, 105.043 188.011, 95.047 188.003, 94.748 186.572, 88.366 186.563, 88.319 " />
            <path fill="none" stroke-width="3.0" stroke-linecap="butt" stroke-opacity="1.0" stroke="rgb(0, 0, 0)" stroke-linejoin="round" d=" M 136.910, 172.178 138.457, 172.126 143.889, 174.678 152.093, 178.532 154.888, 178.290 160.193, 177.830 165.341, 172.433 " />
            <path fill="none" stroke-width="3.0" stroke-linecap="butt" stroke-opacity="1.0" stroke="rgb(0, 0, 0)" stroke-linejoin="round" d=" M 106.830, 174.469 111.359, 177.787 111.671, 178.015 113.780, 179.560 119.266, 179.590 123.148, 179.611 " />
            <path fill="none" stroke-width="3.0" stroke-linecap="butt" stroke-opacity="1.0" stroke="rgb(0, 0, 0)" stroke-linejoin="round" d=" M 85.130, 98.177 90.065, 91.315 95.222, 86.062 104.368, 82.016 104.494, 81.961 114.007, 81.662 119.499, 85.193 124.886, 91.282 122.561, 83.785 117.720, 77.582 " />
            <path fill="none" stroke-width="3.0" stroke-linecap="butt" stroke-opacity="1.0" stroke="rgb(0, 0, 0)" stroke-linejoin="round" d=" M 142.063, 85.768 146.150, 82.418 154.248, 82.852 162.251, 87.010 167.089, 92.062 171.922, 98.664 " />
            <path fill="none" stroke-width="3.0" stroke-linecap="butt" stroke-opacity="1.0" stroke="rgb(0, 0, 0)" stroke-linejoin="round" d=" M 143.493, 77.120 139.213, 82.384 137.495, 91.844 " />
            <path fill="none" stroke-width="3.0" stroke-linecap="butt" stroke-opacity="1.0" stroke="rgb(0, 0, 0)" stroke-linejoin="round" d=" M 119.677, 100.195 116.800, 95.740 107.217, 95.564 100.563, 101.821 97.214, 110.117 97.533, 120.112 97.538, 120.293 100.423, 126.801 " />
            <path fill="none" stroke-width="3.0" stroke-linecap="butt" stroke-opacity="1.0" stroke="rgb(0, 0, 0)" stroke-linejoin="round" d=" M 159.251, 110.610 159.152, 108.583 155.648, 100.068 149.591, 94.513 141.572, 94.743 139.682, 99.238 " />
            <path fill="none" stroke-width="3.0" stroke-linecap="butt" stroke-opacity="1.0" stroke="rgb(0, 0, 0)" stroke-linejoin="round" d=" M 171.684, 89.947 177.677, 97.952 178.091, 98.506 186.171, 93.646 186.000, 90.882 184.910, 89.962 186.563, 88.319 188.397, 86.497 " />
            <path fill="none" stroke-width="3.0" stroke-linecap="butt" stroke-opacity="1.0" stroke="rgb(0, 0, 0)" stroke-linejoin="round" d=" M 68.853, 180.572 67.688, 175.691 " />
            <path fill="none" stroke-width="3.0" stroke-linecap="butt" stroke-opacity="1.0" stroke="rgb(0, 0, 0)" stroke-linejoin="round" d=" M 62.312, 158.726 64.330, 166.599 64.890, 169.410 66.859, 175.668 68.568, 181.101 70.160, 183.726 70.348, 183.883 78.026, 190.289 82.032, 193.631 88.093, 198.788 95.710, 205.267 98.708, 207.818 100.772, 209.274 101.383, 209.883 110.492, 214.011 111.501, 214.468 121.377, 216.042 123.543, 216.388 130.730, 216.271 140.392, 213.694 142.801, 213.052 143.899, 212.460 151.791, 206.319 153.941, 204.647 162.306, 199.167 170.671, 193.687 172.144, 192.722 175.801, 189.536 177.264, 188.262 181.424, 180.782 186.185, 171.988 188.321, 168.041 188.524, 166.077 188.923, 163.922 189.176, 162.555 188.295, 152.853 187.248, 148.676 " />
            <path fill="none" stroke-width="3.0" stroke-linecap="butt" stroke-opacity="1.0" stroke="rgb(0, 0, 0)" stroke-linejoin="round" d=" M 180.809, 129.026 182.151, 130.010 181.612, 127.609 181.595, 127.533 181.528, 127.236 183.368, 124.558 181.595, 127.533 " />
            <path fill="none" stroke-width="3.0" stroke-linecap="butt" stroke-opacity="1.0" stroke="rgb(0, 0, 0)" stroke-linejoin="round" d=" M 143.889, 174.678 142.853, 184.624 142.821, 184.935 141.129, 184.946 133.994, 185.948 143.216, 185.818 144.822, 184.971 153.154, 179.441 154.888, 178.290 " />
            <path fill="none" stroke-width="3.0" stroke-linecap="butt" stroke-opacity="1.0" stroke="rgb(0, 0, 0)" stroke-linejoin="round" d=" M 112.096, 179.841 111.671, 178.015 " />
            <path fill="none" stroke-width="3.0" stroke-linecap="butt" stroke-opacity="1.0" stroke="rgb(0, 0, 0)" stroke-linejoin="round" d=" M 59.513, 133.630 60.713, 136.685 60.425, 137.304 58.927, 140.527 56.638, 145.747 56.784, 148.559 60.297, 154.169 66.897, 154.132 " />
            <path fill="none" stroke-width="3.0" stroke-linecap="butt" stroke-opacity="1.0" stroke="rgb(0, 0, 0)" stroke-linejoin="round" d=" M 139.913, 164.136 139.245, 164.349 138.227, 164.140 135.700, 163.044 138.095, 163.962 138.651, 164.082 139.660, 164.188 139.913, 164.136 140.923, 163.928 142.437, 163.468 151.766, 159.867 158.716, 157.184 163.411, 155.372 170.519, 148.338 170.944, 147.917 173.513, 143.938 175.679, 139.005 175.726, 133.928 175.726, 133.887 173.575, 126.038 170.008, 118.777 167.917, 116.146 159.490, 110.762 159.251, 110.610 158.246, 109.968 153.020, 109.025 150.822, 108.629 146.017, 107.762 140.164, 107.636 139.973, 107.632 135.751, 108.329 125.885, 109.959 125.337, 110.049 124.754, 110.146 121.838, 111.066 120.172, 112.529 112.894, 119.387 111.222, 120.962 110.047, 126.871 " />
            <path fill="none" stroke-width="3.0" stroke-linecap="butt" stroke-opacity="1.0" stroke="rgb(0, 0, 0)" stroke-linejoin="round" d=" M 70.348, 183.883 69.154, 185.949 72.779, 190.700 78.863, 197.407 83.230, 199.223 88.093, 198.788 " />
            <path fill="none" stroke-width="3.0" stroke-linecap="butt" stroke-opacity="1.0" stroke="rgb(0, 0, 0)" stroke-linejoin="round" d=" M 109.350, 130.380 105.980, 130.568 104.758, 130.522 104.666, 130.519 102.480, 128.567 " />
            <path fill="none" stroke-width="3.0" stroke-linecap="butt" stroke-opacity="1.0" stroke="rgb(0, 0, 0)" stroke-linejoin="round" d=" M 109.844, 144.035 108.057, 143.619 98.429, 140.917 96.795, 140.459 88.967, 134.780 83.704, 129.817 81.153, 134.910 77.684, 141.340 77.488, 144.313 77.132, 147.429 77.828, 149.986 78.903, 153.365 79.939, 155.765 82.334, 158.799 86.106, 159.745 90.504, 161.816 92.758, 166.073 94.036, 168.804 96.049, 170.725 98.867, 173.320 105.851, 174.187 106.881, 174.117 106.958, 174.159 108.073, 174.774 108.063, 175.372 " />
            <path fill="none" stroke-width="3.0" stroke-linecap="butt" stroke-opacity="1.0" stroke="rgb(0, 0, 0)" stroke-linejoin="round" d=" M 109.179, 131.240 108.851, 132.893 108.296, 134.431 107.192, 137.013 108.332, 140.719 109.844, 144.035 110.099, 144.593 " />
            <path fill="none" stroke-width="3.0" stroke-linecap="butt" stroke-opacity="1.0" stroke="rgb(0, 0, 0)" stroke-linejoin="round" d=" M 120.368, 103.399 120.146, 103.177 116.784, 102.520 113.477, 101.852 112.610, 102.239 107.779, 104.628 107.523, 105.174 105.013, 110.230 105.011, 111.988 104.995, 117.202 106.160, 120.749 107.305, 124.085 108.589, 125.435 110.042, 126.898 " />
            <path fill="none" stroke-width="3.0" stroke-linecap="butt" stroke-opacity="1.0" stroke="rgb(0, 0, 0)" stroke-linejoin="round" d=" M 119.266, 179.590 125.726, 184.390 126.229, 182.811 " />
            <path fill="none" stroke-width="3.0" stroke-linecap="butt" stroke-opacity="1.0" stroke="rgb(0, 0, 0)" stroke-linejoin="round" d=" M 141.825, 86.053 142.063, 85.768 142.150, 85.664 142.481, 85.425 " />
            <path fill="none" stroke-width="3.0" stroke-linecap="butt" stroke-opacity="1.0" stroke="rgb(0, 0, 0)" stroke-linejoin="round" d=" M 153.020, 109.025 152.509, 108.245 149.947, 104.321 149.341, 104.032 146.672, 102.285 145.129, 101.844 144.383, 101.680 139.915, 103.309 " />
            <path fill="none" stroke-width="3.0" stroke-linecap="butt" stroke-opacity="1.0" stroke="rgb(0, 0, 0)" stroke-linejoin="round" d=" M 171.222, 94.222 171.684, 89.947 171.765, 89.195 170.984, 87.865 168.539, 83.724 166.403, 82.300 " />
            <path fill="none" stroke-width="3.0" stroke-linecap="butt" stroke-opacity="1.0" stroke="rgb(0, 0, 0)" stroke-linejoin="round" d=" M 180.965, 65.505 179.761, 62.412 173.392, 54.702 169.494, 49.983 164.130, 42.671 155.958, 36.908 154.786, 36.081 146.237, 30.893 144.877, 30.067 137.042, 29.828 127.051, 29.412 117.060, 28.997 110.111, 28.708 103.230, 28.270 94.293, 32.757 88.369, 35.731 83.419, 38.660 76.891, 46.235 71.432, 52.570 64.961, 59.220 60.376, 68.107 55.791, 76.994 52.492, 83.390 48.885, 91.137 48.740, 94.957 47.408, 104.868 47.313, 105.569 47.585, 115.565 47.856, 125.521 56.129, 131.139 56.667, 131.505 59.094, 135.403 56.565, 136.131 54.151, 138.274 50.023, 142.730 48.820, 146.711 46.801, 152.892 45.705, 157.192 46.102, 161.016 47.569, 169.421 49.023, 170.261 50.320, 172.416 58.866, 175.442 66.859, 175.668 " />
            <path fill="none" stroke-width="3.0" stroke-linecap="butt" stroke-opacity="1.0" stroke="rgb(0, 0, 0)" stroke-linejoin="round" d=" M 181.612, 127.609 184.345, 123.085 " />
            <path fill="none" stroke-width="3.0" stroke-linecap="butt" stroke-opacity="1.0" stroke="rgb(0, 0, 0)" stroke-linejoin="round" d=" M 187.278, 148.397 188.426, 149.027 188.765, 149.213 189.846, 145.628 189.997, 140.168 186.751, 136.435 182.440, 131.989 " />
            <path fill="none" stroke-width="3.0" stroke-linecap="butt" stroke-opacity="1.0" stroke="rgb(0, 0, 0)" stroke-linejoin="round" d=" M 188.923, 163.922 189.510, 163.413 189.569, 157.358 189.429, 151.708 188.508, 149.301 188.426, 149.027 " />
        </g>
    </g>
</svg>
