<?xml version='1.0' encoding='ascii'?>
<svg xmlns="http://www.w3.org/2000/svg" version="1.1" width="250" height="250">
    <g id="ViewLayer_LineSet" xmlns:inkscape="http://www.inkscape.org/namespaces/inkscape" inkscape:groupmode="lineset" inkscape:label="ViewLayer_LineSet">
        <g xmlns:inkscape="http://www.inkscape.org/namespaces/inkscape" inkscape:groupmode="layer" id="strokes" inkscape:label="strokes">
            <path fill="none" stroke-width="3.0" stroke-linecap="butt" stroke-opacity="1.0" stroke="rgb(0, 0, 0)" stroke-linejoin="round" d=" M 145.712, 185.545 148.663, 182.396 148.870, 182.174 151.503, 182.196 156.377, 181.449 158.666, 178.967 160.772, 176.861 162.202, 173.513 163.949, 169.903 168.909, 168.170 171.789, 166.491 172.853, 163.432 174.689, 161.001 175.431, 157.889 176.198, 154.990 175.940, 151.784 175.616, 148.982 172.042, 142.348 169.622, 137.528 164.709, 141.806 158.116, 149.325 157.926, 149.541 150.136, 152.287 " />
            <path fill="none" stroke-width="3.0" stroke-linecap="butt" stroke-opacity="1.0" stroke="rgb(0, 0, 0)" stroke-linejoin="round" d=" M 110.333, 108.549 105.393, 107.350 103.919, 107.863 99.447, 109.741 99.397, 109.778 99.388, 109.783 96.456, 115.170 96.369, 115.328 95.640, 121.431 95.574, 122.265 96.863, 127.702 " />
            <path fill="none" stroke-width="3.0" stroke-linecap="butt" stroke-opacity="1.0" stroke="rgb(0, 0, 0)" stroke-linejoin="round" d=" M 180.869, 91.539 175.296, 83.236 169.723, 74.933 168.732, 73.457 162.793, 71.073 153.637, 67.052 144.482, 63.030 144.212, 62.912 142.202, 62.921 132.202, 62.918 122.202, 62.915 118.639, 62.913 108.640, 63.043 98.640, 63.173 95.886, 63.209 93.339, 63.230 84.357, 67.626 77.410, 71.025 70.180, 74.155 65.640, 83.065 61.099, 91.975 60.188, 93.762 62.670, 95.287 61.770, 95.903 61.117, 97.433 " />
            <path fill="none" stroke-width="3.0" stroke-linecap="butt" stroke-opacity="1.0" stroke="rgb(0, 0, 0)" stroke-linejoin="round" d=" M 189.023, 126.088 195.326, 120.123 196.165, 110.158 197.003, 100.193 197.632, 92.708 197.398, 90.805 197.404, 89.914 196.445, 87.741 192.086, 78.741 187.726, 69.741 183.367, 60.741 182.233, 58.399 176.239, 51.943 169.918, 44.194 164.134, 37.103 160.841, 35.016 151.997, 30.350 143.700, 25.972 140.175, 26.148 130.176, 26.323 120.178, 26.497 110.179, 26.672 106.399, 26.738 102.341, 26.708 93.706, 31.752 87.533, 35.357 82.422, 38.913 76.346, 46.855 72.959, 51.283 66.386, 58.820 65.409, 59.941 61.505, 69.148 57.602, 78.354 55.722, 82.790 54.715, 88.907 54.015, 91.723 54.022, 97.148 55.250, 107.073 56.479, 116.997 56.707, 118.844 60.662, 123.089 63.479, 127.312 " />
            <path fill="none" stroke-width="3.0" stroke-linecap="butt" stroke-opacity="1.0" stroke="rgb(0, 0, 0)" stroke-linejoin="round" d=" M 98.063, 126.951 96.863, 127.702 92.202, 130.621 89.131, 132.544 87.674, 136.508 85.449, 137.766 85.860, 140.387 84.969, 141.757 83.713, 149.697 83.640, 150.161 83.397, 157.504 85.408, 158.755 90.562, 163.305 95.354, 167.755 96.326, 168.399 104.662, 173.922 105.189, 174.271 110.940, 175.637 117.698, 176.604 123.754, 175.845 127.210, 174.997 136.376, 170.997 142.382, 168.377 142.464, 168.292 145.558, 165.095 149.150, 155.853 150.136, 152.287 150.530, 150.864 149.969, 145.676 147.980, 141.246 146.546, 135.871 145.891, 133.418 143.706, 131.977 143.313, 131.718 138.402, 128.482 134.862, 125.955 130.983, 125.150 126.504, 124.221 125.863, 124.136 118.316, 123.129 116.579, 123.307 108.080, 124.179 100.793, 125.406 98.249, 126.846 98.063, 126.951 " />
            <path fill="none" stroke-width="3.0" stroke-linecap="butt" stroke-opacity="1.0" stroke="rgb(0, 0, 0)" stroke-linejoin="round" d=" M 129.877, 187.156 133.612, 188.975 136.835, 188.739 142.518, 188.323 144.588, 186.523 145.078, 186.097 148.848, 182.817 " />
            <path fill="none" stroke-width="3.0" stroke-linecap="butt" stroke-opacity="1.0" stroke="rgb(0, 0, 0)" stroke-linejoin="round" d=" M 90.489, 182.109 96.290, 187.727 97.039, 187.805 104.759, 188.605 " />
            <path fill="none" stroke-width="3.0" stroke-linecap="butt" stroke-opacity="1.0" stroke="rgb(0, 0, 0)" stroke-linejoin="round" d=" M 77.360, 103.405 82.185, 96.569 87.114, 91.374 95.722, 87.544 104.412, 87.692 108.158, 90.848 " />
            <path fill="none" stroke-width="3.0" stroke-linecap="butt" stroke-opacity="1.0" stroke="rgb(0, 0, 0)" stroke-linejoin="round" d=" M 114.167, 98.134 111.958, 90.477 108.147, 83.526 102.550, 80.213 " />
            <path fill="none" stroke-width="3.0" stroke-linecap="butt" stroke-opacity="1.0" stroke="rgb(0, 0, 0)" stroke-linejoin="round" d=" M 132.658, 91.953 137.838, 87.911 147.259, 87.724 156.341, 91.579 161.475, 96.769 166.428, 103.670 " />
            <path fill="none" stroke-width="3.0" stroke-linecap="butt" stroke-opacity="1.0" stroke="rgb(0, 0, 0)" stroke-linejoin="round" d=" M 135.119, 82.467 129.720, 88.497 127.519, 98.252 127.483, 98.410 " />
            <path fill="none" stroke-width="3.0" stroke-linecap="butt" stroke-opacity="1.0" stroke="rgb(0, 0, 0)" stroke-linejoin="round" d=" M 146.546, 135.871 150.943, 131.239 153.392, 124.023 153.429, 114.023 153.432, 113.285 149.968, 104.513 143.484, 98.943 134.223, 99.747 131.660, 104.666 131.518, 108.976 " />
            <path fill="none" stroke-width="3.0" stroke-linecap="butt" stroke-opacity="1.0" stroke="rgb(0, 0, 0)" stroke-linejoin="round" d=" M 110.959, 105.770 108.692, 100.911 100.020, 100.161 94.063, 105.982 90.675, 114.225 90.476, 124.223 90.470, 124.532 92.202, 130.621 " />
            <path fill="none" stroke-width="3.0" stroke-linecap="butt" stroke-opacity="1.0" stroke="rgb(0, 0, 0)" stroke-linejoin="round" d=" M 177.077, 98.670 183.349, 95.686 180.869, 91.539 " />
            <path fill="none" stroke-width="3.0" stroke-linecap="butt" stroke-opacity="1.0" stroke="rgb(0, 0, 0)" stroke-linejoin="round" d=" M 63.470, 126.966 62.168, 124.965 63.464, 126.692 63.470, 126.966 63.479, 127.312 63.588, 131.614 63.607, 132.390 63.740, 132.347 63.743, 132.527 63.294, 133.079 58.059, 141.600 57.386, 142.695 57.377, 147.635 59.121, 152.185 61.233, 153.166 61.505, 156.252 61.036, 166.241 61.010, 166.795 61.291, 169.116 61.306, 169.240 61.441, 169.657 62.066, 171.383 67.184, 179.974 72.302, 188.565 74.214, 191.774 74.971, 192.301 76.278, 193.434 84.997, 198.331 93.716, 203.229 96.268, 204.662 104.744, 209.963 108.414, 211.594 117.943, 214.626 118.417, 214.777 122.233, 216.548 125.314, 215.268 135.075, 213.094 137.829, 212.481 139.290, 211.882 147.750, 206.550 148.999, 205.762 157.847, 201.102 162.323, 198.745 169.445, 193.215 173.043, 190.077 178.303, 181.571 182.245, 175.195 183.691, 171.766 184.179, 170.610 184.495, 169.424 185.955, 160.920 185.982, 156.916 186.215, 155.786 186.850, 155.675 190.685, 148.331 191.180, 145.002 187.062, 136.728 185.597, 134.201 186.011, 131.676 186.231, 130.337 186.524, 128.554 185.720, 131.115 " />
            <path fill="none" stroke-width="3.0" stroke-linecap="butt" stroke-opacity="1.0" stroke="rgb(0, 0, 0)" stroke-linejoin="round" d=" M 145.078, 186.097 145.399, 186.118 146.166, 185.439 144.627, 187.268 144.588, 186.523 " />
            <path fill="none" stroke-width="3.0" stroke-linecap="butt" stroke-opacity="1.0" stroke="rgb(0, 0, 0)" stroke-linejoin="round" d=" M 63.588, 131.614 61.049, 133.780 57.697, 137.692 56.994, 141.639 55.656, 146.396 54.782, 149.330 55.038, 154.580 55.653, 161.139 58.021, 163.303 60.459, 168.700 61.291, 169.116 " />
            <path fill="none" stroke-width="3.0" stroke-linecap="butt" stroke-opacity="1.0" stroke="rgb(0, 0, 0)" stroke-linejoin="round" d=" M 83.713, 149.697 81.922, 149.003 76.845, 143.721 71.695, 136.840 69.062, 142.085 68.086, 143.883 65.841, 148.015 65.480, 151.627 65.174, 153.918 65.830, 157.400 66.382, 159.858 67.378, 163.361 68.664, 165.495 70.115, 166.030 72.982, 167.086 75.848, 168.956 77.292, 172.100 78.753, 175.890 81.244, 178.689 82.965, 180.552 84.172, 180.769 87.531, 181.373 90.253, 181.412 90.652, 181.725 93.047, 183.604 93.636, 185.157 " />
            <path fill="none" stroke-width="3.0" stroke-linecap="butt" stroke-opacity="1.0" stroke="rgb(0, 0, 0)" stroke-linejoin="round" d=" M 105.846, 188.097 106.922, 188.966 111.717, 191.728 117.398, 192.138 127.362, 192.988 128.160, 193.056 132.210, 191.340 136.835, 188.739 " />
            <path fill="none" stroke-width="3.0" stroke-linecap="butt" stroke-opacity="1.0" stroke="rgb(0, 0, 0)" stroke-linejoin="round" d=" M 108.158, 90.848 108.923, 91.467 109.010, 91.567 109.545, 92.179 " />
            <path fill="none" stroke-width="3.0" stroke-linecap="butt" stroke-opacity="1.0" stroke="rgb(0, 0, 0)" stroke-linejoin="round" d=" M 114.865, 183.881 118.276, 182.321 118.418, 182.325 119.820, 182.344 120.475, 182.579 121.070, 182.793 123.120, 183.867 " />
            <path fill="none" stroke-width="3.0" stroke-linecap="butt" stroke-opacity="1.0" stroke="rgb(0, 0, 0)" stroke-linejoin="round" d=" M 143.706, 131.977 143.823, 131.820 145.903, 128.824 146.222, 126.984 146.932, 121.595 145.979, 114.916 145.905, 114.453 142.712, 109.955 142.265, 109.332 137.976, 108.052 135.847, 107.498 131.778, 108.894 " />
            <path fill="none" stroke-width="3.0" stroke-linecap="butt" stroke-opacity="1.0" stroke="rgb(0, 0, 0)" stroke-linejoin="round" d=" M 183.691, 171.766 186.912, 171.348 191.452, 169.176 194.062, 164.753 196.216, 163.065 197.406, 155.607 197.749, 151.122 196.760, 147.430 194.947, 141.705 194.042, 138.203 189.889, 133.713 188.307, 132.448 186.011, 131.676 " />
            <path fill="none" stroke-width="3.0" stroke-linecap="butt" stroke-opacity="1.0" stroke="rgb(0, 0, 0)" stroke-linejoin="round" d=" M 186.231, 130.337 189.023, 126.088 " />
        </g>
    </g>
</svg>
