<?xml version='1.0' encoding='ascii'?>
<svg xmlns="http://www.w3.org/2000/svg" version="1.1" width="250" height="250">
    <g id="ViewLayer_LineSet" xmlns:inkscape="http://www.inkscape.org/namespaces/inkscape" inkscape:groupmode="lineset" inkscape:label="ViewLayer_LineSet">
        <g xmlns:inkscape="http://www.inkscape.org/namespaces/inkscape" inkscape:groupmode="layer" id="strokes" inkscape:label="strokes">
            <path fill="none" stroke-width="3.0" stroke-linecap="butt" stroke-opacity="1.0" stroke="rgb(0, 0, 0)" stroke-linejoin="round" d=" M 198.266, 126.630 198.265, 126.629 191.902, 121.360 188.624, 119.270 187.132, 118.244 186.706, 117.843 186.441, 118.211 182.236, 116.525 " />
            <path fill="none" stroke-width="3.0" stroke-linecap="butt" stroke-opacity="1.0" stroke="rgb(0, 0, 0)" stroke-linejoin="round" d=" M 174.594, 43.518 165.980, 38.439 164.138, 37.354 154.159, 36.713 150.486, 36.477 140.498, 35.993 137.514, 35.848 127.525, 35.385 121.939, 35.126 111.944, 34.803 103.910, 34.544 100.287, 35.760 91.749, 40.965 83.210, 46.170 82.080, 46.859 73.734, 52.367 73.481, 52.534 68.271, 59.796 60.462, 66.043 57.223, 68.633 51.598, 76.278 49.372, 86.027 49.050, 87.438 44.971, 96.569 44.598, 97.403 46.440, 107.260 52.984, 114.821 53.103, 114.959 56.966, 118.637 56.418, 118.805 55.772, 118.489 48.104, 117.831 47.265, 117.808 47.193, 117.897 47.159, 117.940 43.659, 127.345 42.937, 131.781 43.411, 135.442 45.450, 142.873 48.430, 145.880 54.884, 153.518 55.125, 153.803 60.594, 155.182 60.619, 155.183 " />
            <path fill="none" stroke-width="3.0" stroke-linecap="butt" stroke-opacity="1.0" stroke="rgb(0, 0, 0)" stroke-linejoin="round" d=" M 73.819, 125.964 73.819, 125.964 76.164, 124.326 74.937, 123.867 72.599, 124.714 73.498, 124.845 74.736, 125.314 73.819, 125.964 73.819, 125.964 " />
            <path fill="none" stroke-width="3.0" stroke-linecap="butt" stroke-opacity="1.0" stroke="rgb(0, 0, 0)" stroke-linejoin="round" d=" M 154.479, 166.713 152.631, 165.950 " />
            <path fill="none" stroke-width="3.0" stroke-linecap="butt" stroke-opacity="1.0" stroke="rgb(0, 0, 0)" stroke-linejoin="round" d=" M 151.797, 133.003 150.389, 132.815 147.237, 132.396 " />
            <path fill="none" stroke-width="3.0" stroke-linecap="butt" stroke-opacity="1.0" stroke="rgb(0, 0, 0)" stroke-linejoin="round" d=" M 100.475, 135.058 99.894, 143.177 102.181, 150.307 106.897, 154.622 112.193, 156.373 " />
            <path fill="none" stroke-width="3.0" stroke-linecap="butt" stroke-opacity="1.0" stroke="rgb(0, 0, 0)" stroke-linejoin="round" d=" M 124.639, 132.263 122.350, 127.004 " />
            <path fill="none" stroke-width="3.0" stroke-linecap="butt" stroke-opacity="1.0" stroke="rgb(0, 0, 0)" stroke-linejoin="round" d=" M 152.514, 151.825 157.019, 147.778 159.836, 141.047 161.588, 132.525 160.055, 125.949 " />
            <path fill="none" stroke-width="3.0" stroke-linecap="butt" stroke-opacity="1.0" stroke="rgb(0, 0, 0)" stroke-linejoin="round" d=" M 109.242, 182.730 99.840, 179.323 98.803, 178.947 95.983, 176.078 90.104, 167.880 84.984, 166.615 80.246, 174.691 80.142, 176.418 79.883, 179.818 80.511, 182.085 81.539, 185.074 83.424, 189.279 84.455, 190.775 89.697, 192.467 92.015, 193.888 92.126, 194.095 93.093, 195.899 94.566, 198.954 98.332, 202.283 98.818, 202.697 99.603, 202.795 100.951, 202.831 105.375, 202.948 108.270, 205.102 110.643, 206.869 111.548, 207.542 111.227, 207.473 " />
            <path fill="none" stroke-width="3.0" stroke-linecap="butt" stroke-opacity="1.0" stroke="rgb(0, 0, 0)" stroke-linejoin="round" d=" M 57.939, 120.971 59.729, 130.258 58.015, 137.778 56.539, 145.012 57.063, 148.282 60.619, 155.183 61.272, 156.449 62.228, 157.345 62.884, 158.932 63.041, 162.821 64.602, 168.986 64.899, 170.135 66.290, 174.488 70.039, 179.916 76.010, 187.938 77.181, 189.512 86.846, 192.079 88.673, 192.565 92.126, 194.095 " />
            <path fill="none" stroke-width="3.0" stroke-linecap="butt" stroke-opacity="1.0" stroke="rgb(0, 0, 0)" stroke-linejoin="round" d=" M 110.272, 188.213 110.153, 188.091 110.514, 186.621 110.272, 188.213 110.249, 188.370 110.230, 188.647 110.134, 189.629 110.640, 193.923 110.777, 194.828 111.561, 199.999 112.538, 206.447 112.727, 207.171 112.913, 207.882 113.131, 208.719 113.706, 210.919 121.201, 215.154 125.740, 217.985 129.932, 218.671 135.008, 218.813 144.982, 218.082 151.959, 217.571 154.997, 217.072 156.549, 216.659 163.392, 209.698 167.936, 205.973 170.420, 200.639 172.189, 190.807 172.245, 190.168 170.631, 188.167 169.308, 186.527 167.589, 184.396 163.886, 176.547 163.454, 175.630 158.472, 171.249 154.479, 166.713 " />
            <path fill="none" stroke-width="3.0" stroke-linecap="butt" stroke-opacity="1.0" stroke="rgb(0, 0, 0)" stroke-linejoin="round" d=" M 100.475, 135.058 100.483, 134.411 100.523, 134.110 100.546, 134.077 " />
            <path fill="none" stroke-width="3.0" stroke-linecap="butt" stroke-opacity="1.0" stroke="rgb(0, 0, 0)" stroke-linejoin="round" d=" M 100.951, 202.831 101.061, 203.004 102.048, 203.659 102.225, 203.777 106.491, 205.940 113.131, 208.719 " />
            <path fill="none" stroke-width="3.0" stroke-linecap="butt" stroke-opacity="1.0" stroke="rgb(0, 0, 0)" stroke-linejoin="round" d=" M 112.790, 133.986 110.215, 137.333 109.167, 138.658 108.502, 142.174 107.914, 145.183 108.593, 149.702 108.902, 151.682 111.713, 155.721 112.193, 156.373 112.278, 156.489 113.991, 156.967 116.839, 157.763 117.606, 157.949 " />
            <path fill="none" stroke-width="3.0" stroke-linecap="butt" stroke-opacity="1.0" stroke="rgb(0, 0, 0)" stroke-linejoin="round" d=" M 144.406, 133.955 144.568, 132.886 144.936, 130.003 145.220, 129.488 " />
            <path fill="none" stroke-width="3.0" stroke-linecap="butt" stroke-opacity="1.0" stroke="rgb(0, 0, 0)" stroke-linejoin="round" d=" M 141.997, 156.468 146.658, 157.244 146.790, 157.203 146.979, 157.120 150.513, 154.148 151.396, 153.558 152.514, 151.825 153.509, 150.281 154.236, 149.222 155.718, 144.554 156.044, 143.486 156.017, 142.616 156.150, 137.488 156.091, 137.346 156.022, 136.897 154.013, 134.658 152.606, 133.191 151.832, 133.063 151.273, 132.971 150.389, 132.815 " />
            <path fill="none" stroke-width="3.0" stroke-linecap="butt" stroke-opacity="1.0" stroke="rgb(0, 0, 0)" stroke-linejoin="round" d=" M 170.631, 188.167 174.130, 186.340 176.361, 183.782 177.324, 180.850 177.709, 180.323 179.235, 176.211 179.635, 175.216 180.021, 171.823 180.132, 170.408 178.778, 166.456 176.808, 160.706 170.703, 168.626 169.408, 170.307 166.554, 174.522 165.536, 175.039 163.886, 176.547 " />
            <path fill="none" stroke-width="3.0" stroke-linecap="butt" stroke-opacity="1.0" stroke="rgb(0, 0, 0)" stroke-linejoin="round" d=" M 178.778, 166.456 178.685, 156.456 178.653, 153.043 181.483, 147.395 181.594, 147.112 183.110, 140.755 179.858, 132.057 179.324, 131.106 " />
            <path fill="none" stroke-width="3.0" stroke-linecap="butt" stroke-opacity="1.0" stroke="rgb(0, 0, 0)" stroke-linejoin="round" d=" M 181.404, 116.235 186.654, 107.724 187.720, 105.998 191.458, 97.519 193.065, 90.822 195.821, 81.612 193.418, 71.905 192.435, 67.933 188.874, 62.167 184.562, 53.808 179.084, 48.191 174.594, 43.518 " />
        </g>
    </g>
</svg>
