<?xml version='1.0' encoding='ascii'?>
<svg xmlns="http://www.w3.org/2000/svg" version="1.1" width="250" height="250">
    <g id="ViewLayer_LineSet" xmlns:inkscape="http://www.inkscape.org/namespaces/inkscape" inkscape:groupmode="lineset" inkscape:label="ViewLayer_LineSet">
        <g xmlns:inkscape="http://www.inkscape.org/namespaces/inkscape" inkscape:groupmode="layer" id="strokes" inkscape:label="strokes">
            <path fill="none" stroke-width="3.0" stroke-linecap="butt" stroke-opacity="1.0" stroke="rgb(0, 0, 0)" stroke-linejoin="round" d=" M 145.819, 76.582 146.137, 76.125 146.352, 75.817 146.381, 75.907 " />
            <path fill="none" stroke-width="3.0" stroke-linecap="butt" stroke-opacity="1.0" stroke="rgb(0, 0, 0)" stroke-linejoin="round" d=" M 185.273, 61.166 184.836, 54.639 176.782, 48.711 171.451, 44.787 165.743, 39.690 155.992, 39.243 146.050, 38.167 145.237, 38.079 135.249, 37.607 132.219, 37.464 123.552, 36.819 123.205, 37.003 114.372, 41.691 108.751, 44.674 99.795, 49.122 98.961, 49.536 93.703, 58.042 91.125, 62.213 85.971, 70.782 80.818, 79.352 80.191, 80.394 79.586, 88.279 " />
            <path fill="none" stroke-width="3.0" stroke-linecap="butt" stroke-opacity="1.0" stroke="rgb(0, 0, 0)" stroke-linejoin="round" d=" M 136.207, 150.663 144.610, 154.226 153.953, 153.055 162.134, 147.304 165.018, 145.277 166.370, 145.189 174.289, 148.873 175.058, 149.230 175.377, 149.379 179.301, 151.204 179.530, 151.203 185.404, 151.171 187.354, 147.753 187.732, 147.089 " />
            <path fill="none" stroke-width="3.0" stroke-linecap="butt" stroke-opacity="1.0" stroke="rgb(0, 0, 0)" stroke-linejoin="round" d=" M 93.128, 82.388 94.710, 88.737 98.363, 82.586 102.578, 77.770 111.153, 73.563 120.603, 72.466 126.827, 74.769 132.940, 79.721 " />
            <path fill="none" stroke-width="3.0" stroke-linecap="butt" stroke-opacity="1.0" stroke="rgb(0, 0, 0)" stroke-linejoin="round" d=" M 148.152, 74.319 154.112, 75.897 158.887, 79.100 " />
            <path fill="none" stroke-width="3.0" stroke-linecap="butt" stroke-opacity="1.0" stroke="rgb(0, 0, 0)" stroke-linejoin="round" d=" M 145.108, 69.664 143.184, 73.103 143.517, 80.938 " />
            <path fill="none" stroke-width="3.0" stroke-linecap="butt" stroke-opacity="1.0" stroke="rgb(0, 0, 0)" stroke-linejoin="round" d=" M 116.911, 106.969 117.421, 107.777 120.330, 112.385 " />
            <path fill="none" stroke-width="3.0" stroke-linecap="butt" stroke-opacity="1.0" stroke="rgb(0, 0, 0)" stroke-linejoin="round" d=" M 127.209, 90.299 123.297, 87.011 113.550, 87.915 107.530, 94.429 105.905, 101.023 " />
            <path fill="none" stroke-width="3.0" stroke-linecap="butt" stroke-opacity="1.0" stroke="rgb(0, 0, 0)" stroke-linejoin="round" d=" M 122.974, 118.713 120.665, 118.390 112.405, 115.578 107.739, 113.990 103.802, 112.168 101.765, 117.208 99.039, 123.446 99.231, 125.246 99.216, 129.361 99.647, 130.139 102.330, 134.570 102.716, 135.060 107.947, 138.801 109.495, 138.922 116.840, 140.761 121.479, 146.722 121.780, 147.143 122.163, 147.400 127.665, 150.864 129.945, 151.069 124.381, 147.993 122.470, 144.071 " />
            <path fill="none" stroke-width="3.0" stroke-linecap="butt" stroke-opacity="1.0" stroke="rgb(0, 0, 0)" stroke-linejoin="round" d=" M 114.692, 207.243 111.396, 211.111 110.581, 212.068 109.318, 210.701 107.320, 208.538 107.231, 208.442 107.098, 208.398 107.320, 208.538 110.025, 210.246 111.396, 211.111 115.815, 213.899 120.215, 216.584 130.205, 216.157 134.570, 215.971 144.334, 213.809 150.927, 212.348 157.191, 209.611 163.676, 204.416 169.165, 197.724 176.157, 190.574 183.148, 183.424 189.056, 177.383 189.034, 177.062 190.282, 175.235 193.995, 165.949 197.146, 158.068 196.233, 149.616 196.063, 140.613 195.623, 139.386 " />
            <path fill="none" stroke-width="3.0" stroke-linecap="butt" stroke-opacity="1.0" stroke="rgb(0, 0, 0)" stroke-linejoin="round" d=" M 175.816, 131.377 177.900, 130.156 180.965, 128.360 189.351, 123.447 189.936, 123.104 194.045, 118.344 198.690, 112.962 199.365, 103.223 198.069, 95.742 196.812, 93.178 195.218, 91.216 187.994, 84.301 184.649, 81.100 182.522, 80.106 177.586, 79.526 176.153, 79.464 167.777, 79.104 167.605, 79.097 163.149, 78.905 162.907, 78.895 161.699, 78.843 158.887, 79.100 150.407, 79.875 145.379, 81.668 140.039, 90.123 134.649, 98.655 134.585, 98.757 134.076, 99.563 132.692, 107.508 132.002, 107.569 133.541, 110.294 134.220, 111.497 134.568, 112.112 133.629, 112.117 132.692, 112.121 123.231, 112.163 123.070, 112.173 122.854, 112.153 122.832, 112.095 120.739, 112.658 116.172, 113.887 114.419, 113.179 110.437, 111.487 108.063, 109.645 105.852, 102.371 105.693, 101.884 105.681, 101.846 105.905, 101.023 " />
            <path fill="none" stroke-width="3.0" stroke-linecap="butt" stroke-opacity="1.0" stroke="rgb(0, 0, 0)" stroke-linejoin="round" d=" M 54.740, 145.240 53.584, 144.644 50.953, 147.450 46.571, 152.553 46.418, 152.731 45.054, 157.139 42.575, 165.382 41.565, 172.432 41.833, 173.183 42.548, 175.272 48.454, 180.826 50.798, 182.258 57.296, 182.994 62.974, 183.465 66.272, 182.898 71.671, 180.971 72.366, 180.723 72.473, 180.685 74.814, 183.294 75.104, 183.617 75.297, 183.832 75.310, 183.847 76.641, 185.329 74.696, 188.660 78.512, 184.750 78.420, 184.569 " />
            <path fill="none" stroke-width="3.0" stroke-linecap="butt" stroke-opacity="1.0" stroke="rgb(0, 0, 0)" stroke-linejoin="round" d=" M 140.304, 171.373 139.498, 170.875 139.196, 170.639 139.148, 170.115 137.929, 160.190 137.276, 154.880 137.264, 154.777 137.752, 153.967 138.645, 154.083 141.919, 156.449 139.297, 154.861 137.276, 154.880 " />
            <path fill="none" stroke-width="3.0" stroke-linecap="butt" stroke-opacity="1.0" stroke="rgb(0, 0, 0)" stroke-linejoin="round" d=" M 78.420, 184.569 79.247, 185.499 74.294, 191.834 69.851, 196.736 67.109, 204.718 66.079, 207.012 67.090, 209.550 73.651, 216.402 81.432, 217.632 84.040, 217.867 84.699, 217.613 92.013, 216.435 94.764, 215.395 94.870, 215.176 97.774, 214.092 98.390, 213.498 104.171, 207.922 96.988, 211.809 " />
            <path fill="none" stroke-width="3.0" stroke-linecap="butt" stroke-opacity="1.0" stroke="rgb(0, 0, 0)" stroke-linejoin="round" d=" M 98.390, 213.498 102.219, 216.273 105.652, 216.275 107.312, 211.991 109.318, 210.701 " />
            <path fill="none" stroke-width="3.0" stroke-linecap="butt" stroke-opacity="1.0" stroke="rgb(0, 0, 0)" stroke-linejoin="round" d=" M 134.649, 98.655 132.647, 95.641 127.984, 92.266 127.430, 92.021 127.326, 92.021 121.577, 92.281 118.265, 93.687 116.555, 94.916 116.301, 96.084 115.255, 100.546 116.700, 106.234 116.855, 106.862 116.905, 106.942 117.032, 107.146 117.421, 107.777 " />
            <path fill="none" stroke-width="3.0" stroke-linecap="butt" stroke-opacity="1.0" stroke="rgb(0, 0, 0)" stroke-linejoin="round" d=" M 123.205, 37.003 113.232, 36.266 109.646, 36.001 99.664, 35.410 95.904, 35.188 86.945, 39.631 85.198, 40.497 77.152, 44.978 70.608, 52.540 65.261, 58.718 59.507, 64.674 54.886, 73.543 52.524, 78.076 48.432, 87.200 44.341, 96.325 44.140, 96.772 43.579, 106.756 43.448, 109.090 42.299, 119.024 41.150, 128.958 40.227, 136.938 42.526, 143.523 46.571, 152.553 " />
            <path fill="none" stroke-width="3.0" stroke-linecap="butt" stroke-opacity="1.0" stroke="rgb(0, 0, 0)" stroke-linejoin="round" d=" M 176.153, 79.464 180.613, 70.514 185.074, 61.565 185.273, 61.166 " />
            <path fill="none" stroke-width="3.0" stroke-linecap="butt" stroke-opacity="1.0" stroke="rgb(0, 0, 0)" stroke-linejoin="round" d=" M 187.354, 147.753 187.706, 147.044 187.891, 146.673 188.457, 146.713 193.560, 145.259 194.896, 142.080 195.656, 140.437 195.623, 139.386 195.536, 136.597 195.604, 134.990 199.039, 133.507 199.860, 132.816 199.279, 129.376 199.406, 128.707 198.375, 124.306 198.321, 124.007 197.444, 122.030 194.217, 118.620 194.045, 118.344 " />
        </g>
    </g>
</svg>
