<?xml version='1.0' encoding='ascii'?>
<svg xmlns="http://www.w3.org/2000/svg" version="1.1" width="250" height="250">
    <g id="ViewLayer_LineSet" xmlns:inkscape="http://www.inkscape.org/namespaces/inkscape" inkscape:groupmode="lineset" inkscape:label="ViewLayer_LineSet">
        <g xmlns:inkscape="http://www.inkscape.org/namespaces/inkscape" inkscape:groupmode="layer" id="strokes" inkscape:label="strokes">
            <path fill="none" stroke-width="3.0" stroke-linecap="butt" stroke-opacity="1.0" stroke="rgb(0, 0, 0)" stroke-linejoin="round" d=" M 124.072, 193.605 126.858, 190.636 127.202, 190.658 129.558, 190.811 130.643, 190.724 134.149, 190.444 136.303, 188.436 138.874, 186.243 140.008, 183.788 141.906, 179.566 146.502, 178.226 150.328, 176.283 151.550, 173.702 154.368, 170.669 155.040, 168.537 156.486, 164.546 156.424, 162.679 156.088, 158.393 151.439, 149.539 151.148, 148.986 149.643, 146.053 145.350, 149.455 138.187, 156.433 135.276, 159.269 125.756, 162.329 120.055, 164.162 114.817, 165.874 " />
            <path fill="none" stroke-width="3.0" stroke-linecap="butt" stroke-opacity="1.0" stroke="rgb(0, 0, 0)" stroke-linejoin="round" d=" M 88.645, 192.839 90.951, 191.887 97.064, 189.365 97.309, 189.431 97.853, 189.795 102.743, 191.744 110.860, 195.801 " />
            <path fill="none" stroke-width="3.0" stroke-linecap="butt" stroke-opacity="1.0" stroke="rgb(0, 0, 0)" stroke-linejoin="round" d=" M 162.980, 99.529 163.149, 99.385 155.298, 93.638 " />
            <path fill="none" stroke-width="3.0" stroke-linecap="butt" stroke-opacity="1.0" stroke="rgb(0, 0, 0)" stroke-linejoin="round" d=" M 190.389, 150.716 190.531, 150.207 190.353, 148.898 188.171, 139.139 187.957, 138.182 187.792, 137.443 189.263, 133.801 189.029, 136.017 187.957, 138.182 " />
            <path fill="none" stroke-width="3.0" stroke-linecap="butt" stroke-opacity="1.0" stroke="rgb(0, 0, 0)" stroke-linejoin="round" d=" M 89.417, 136.345 89.418, 136.345 89.946, 136.143 94.335, 134.462 89.409, 135.108 87.874, 135.310 85.272, 135.651 77.312, 136.696 74.079, 137.120 73.051, 137.511 70.438, 138.506 64.551, 140.683 63.882, 140.930 62.132, 142.778 60.521, 144.478 60.230, 144.786 60.234, 145.123 60.319, 151.146 56.672, 158.325 56.556, 158.846 55.657, 162.884 56.686, 168.486 62.409, 176.581 65.476, 181.558 68.705, 183.283 71.193, 184.613 71.585, 184.822 73.786, 185.589 75.660, 186.242 76.629, 186.580 77.217, 186.785 85.926, 187.926 86.154, 187.907 95.602, 187.146 99.174, 185.912 102.152, 184.330 110.983, 179.637 114.369, 177.838 " />
            <path fill="none" stroke-width="3.0" stroke-linecap="butt" stroke-opacity="1.0" stroke="rgb(0, 0, 0)" stroke-linejoin="round" d=" M 111.857, 196.362 115.998, 196.272 120.717, 196.170 123.777, 193.830 127.402, 191.059 " />
            <path fill="none" stroke-width="3.0" stroke-linecap="butt" stroke-opacity="1.0" stroke="rgb(0, 0, 0)" stroke-linejoin="round" d=" M 80.300, 191.876 84.375, 193.026 85.627, 193.379 86.663, 193.671 " />
            <path fill="none" stroke-width="3.0" stroke-linecap="butt" stroke-opacity="1.0" stroke="rgb(0, 0, 0)" stroke-linejoin="round" d=" M 69.507, 108.583 73.129, 102.107 76.782, 97.226 83.147, 93.880 88.579, 94.419 " />
            <path fill="none" stroke-width="3.0" stroke-linecap="butt" stroke-opacity="1.0" stroke="rgb(0, 0, 0)" stroke-linejoin="round" d=" M 97.441, 105.437 94.997, 97.916 92.552, 90.468 88.447, 86.767 " />
            <path fill="none" stroke-width="3.0" stroke-linecap="butt" stroke-opacity="1.0" stroke="rgb(0, 0, 0)" stroke-linejoin="round" d=" M 117.703, 88.969 111.888, 95.556 110.130, 105.400 110.103, 105.549 114.997, 98.929 120.683, 94.394 130.653, 93.624 130.915, 93.604 140.363, 96.880 140.918, 97.072 146.395, 102.314 151.621, 109.415 151.629, 100.727 147.758, 93.659 " />
            <path fill="none" stroke-width="3.0" stroke-linecap="butt" stroke-opacity="1.0" stroke="rgb(0, 0, 0)" stroke-linejoin="round" d=" M 121.128, 142.374 125.975, 140.935 127.254, 140.555 " />
            <path fill="none" stroke-width="3.0" stroke-linecap="butt" stroke-opacity="1.0" stroke="rgb(0, 0, 0)" stroke-linejoin="round" d=" M 140.860, 118.365 137.013, 109.501 130.104, 104.008 120.139, 105.310 117.332, 110.483 117.047, 114.903 " />
            <path fill="none" stroke-width="3.0" stroke-linecap="butt" stroke-opacity="1.0" stroke="rgb(0, 0, 0)" stroke-linejoin="round" d=" M 96.641, 106.395 90.188, 105.046 86.317, 110.187 83.876, 118.043 83.773, 128.077 84.840, 135.116 85.272, 135.651 " />
            <path fill="none" stroke-width="3.0" stroke-linecap="butt" stroke-opacity="1.0" stroke="rgb(0, 0, 0)" stroke-linejoin="round" d=" M 121.613, 142.947 131.582, 142.171 133.118, 142.051 138.137, 136.735 141.031, 129.262 " />
            <path fill="none" stroke-width="3.0" stroke-linecap="butt" stroke-opacity="1.0" stroke="rgb(0, 0, 0)" stroke-linejoin="round" d=" M 66.909, 105.736 67.672, 109.769 70.599, 118.260 72.517, 121.708 72.334, 122.628 73.997, 122.313 72.689, 127.754 72.519, 127.322 72.391, 129.346 66.730, 137.589 66.358, 138.132 64.556, 140.286 64.551, 140.683 " />
            <path fill="none" stroke-width="3.0" stroke-linecap="butt" stroke-opacity="1.0" stroke="rgb(0, 0, 0)" stroke-linejoin="round" d=" M 85.627, 193.379 82.936, 195.779 85.952, 199.020 86.780, 199.770 91.519, 204.293 99.098, 210.519 99.620, 210.917 104.629, 212.885 113.335, 212.237 113.520, 212.172 113.803, 212.116 117.570, 214.967 117.344, 215.198 125.857, 212.406 135.874, 211.102 138.698, 210.196 147.506, 205.875 153.104, 203.522 161.101, 197.518 164.995, 194.595 172.049, 187.507 174.550, 184.993 175.170, 184.370 175.566, 183.465 176.119, 182.877 179.779, 173.571 180.690, 171.256 184.589, 172.406 188.560, 172.156 192.473, 171.911 200.640, 167.980 203.892, 164.825 205.243, 163.879 208.187, 154.322 208.220, 154.212 208.631, 151.613 207.590, 145.903 204.160, 137.405 203.197, 135.587 199.911, 132.593 195.874, 131.441 194.052, 131.450 " />
            <path fill="none" stroke-width="3.0" stroke-linecap="butt" stroke-opacity="1.0" stroke="rgb(0, 0, 0)" stroke-linejoin="round" d=" M 71.886, 75.522 67.894, 75.690 67.261, 75.726 64.252, 77.603 56.897, 82.193 48.427, 86.508 47.393, 91.466 56.936, 94.454 65.270, 97.064 67.065, 97.626 65.681, 99.242 65.161, 99.850 66.753, 105.783 66.909, 105.736 69.044, 105.098 " />
            <path fill="none" stroke-width="3.0" stroke-linecap="butt" stroke-opacity="1.0" stroke="rgb(0, 0, 0)" stroke-linejoin="round" d=" M 123.777, 193.830 126.126, 193.098 129.640, 192.389 129.638, 192.796 129.631, 194.423 128.883, 194.353 128.615, 194.328 127.123, 194.188 128.806, 193.762 128.615, 194.328 127.969, 196.237 " />
            <path fill="none" stroke-width="3.0" stroke-linecap="butt" stroke-opacity="1.0" stroke="rgb(0, 0, 0)" stroke-linejoin="round" d=" M 189.255, 152.305 190.389, 150.716 " />
            <path fill="none" stroke-width="3.0" stroke-linecap="butt" stroke-opacity="1.0" stroke="rgb(0, 0, 0)" stroke-linejoin="round" d=" M 74.868, 91.033 73.987, 91.736 70.447, 94.290 68.545, 97.529 68.034, 99.343 68.119, 100.553 69.409, 104.325 69.789, 105.436 " />
            <path fill="none" stroke-width="3.0" stroke-linecap="butt" stroke-opacity="1.0" stroke="rgb(0, 0, 0)" stroke-linejoin="round" d=" M 75.660, 186.242 76.319, 187.104 78.224, 189.596 80.126, 191.807 80.284, 191.854 80.840, 192.020 84.375, 193.026 " />
            <path fill="none" stroke-width="3.0" stroke-linecap="butt" stroke-opacity="1.0" stroke="rgb(0, 0, 0)" stroke-linejoin="round" d=" M 73.786, 185.589 76.319, 187.104 " />
            <path fill="none" stroke-width="3.0" stroke-linecap="butt" stroke-opacity="1.0" stroke="rgb(0, 0, 0)" stroke-linejoin="round" d=" M 88.579, 94.419 89.033, 94.217 89.172, 94.478 89.552, 95.190 90.623, 97.702 94.860, 101.548 " />
            <path fill="none" stroke-width="3.0" stroke-linecap="butt" stroke-opacity="1.0" stroke="rgb(0, 0, 0)" stroke-linejoin="round" d=" M 90.951, 191.887 91.051, 191.988 95.110, 194.553 104.937, 196.402 105.351, 196.480 111.451, 197.768 115.998, 196.272 " />
            <path fill="none" stroke-width="3.0" stroke-linecap="butt" stroke-opacity="1.0" stroke="rgb(0, 0, 0)" stroke-linejoin="round" d=" M 95.434, 113.065 94.428, 112.796 92.650, 113.210 90.601, 113.933 89.488, 115.258 89.028, 115.577 87.435, 119.580 86.908, 120.776 86.537, 125.028 86.387, 126.885 86.582, 128.794 87.024, 133.231 87.493, 134.190 87.874, 135.310 " />
            <path fill="none" stroke-width="3.0" stroke-linecap="butt" stroke-opacity="1.0" stroke="rgb(0, 0, 0)" stroke-linejoin="round" d=" M 97.399, 108.895 97.753, 109.903 97.744, 110.034 97.531, 113.210 97.522, 113.658 97.306, 123.655 97.140, 131.371 96.575, 135.686 95.235, 140.681 " />
            <path fill="none" stroke-width="3.0" stroke-linecap="butt" stroke-opacity="1.0" stroke="rgb(0, 0, 0)" stroke-linejoin="round" d=" M 125.975, 140.935 126.971, 140.639 127.261, 140.543 127.296, 140.532 129.774, 136.866 130.933, 135.150 131.733, 130.510 132.097, 127.848 131.695, 124.987 130.981, 120.619 129.274, 118.156 127.345, 115.347 124.806, 114.553 121.163, 113.465 117.047, 114.903 " />
            <path fill="none" stroke-width="3.0" stroke-linecap="butt" stroke-opacity="1.0" stroke="rgb(0, 0, 0)" stroke-linejoin="round" d=" M 174.550, 184.993 175.255, 185.038 177.630, 184.109 185.467, 177.898 188.966, 175.125 189.533, 174.251 189.527, 173.643 188.560, 172.156 " />
            <path fill="none" stroke-width="3.0" stroke-linecap="butt" stroke-opacity="1.0" stroke="rgb(0, 0, 0)" stroke-linejoin="round" d=" M 192.315, 132.614 199.924, 126.126 205.965, 120.976 207.846, 119.240 207.851, 118.258 204.995, 108.674 202.139, 99.091 200.846, 94.753 199.013, 84.922 198.342, 81.326 193.018, 72.861 187.693, 64.397 183.843, 58.276 180.323, 54.356 179.081, 52.060 171.449, 45.599 163.816, 39.138 162.211, 37.779 155.591, 32.231 146.450, 28.176 137.309, 24.121 137.080, 24.019 134.661, 23.907 124.665, 24.192 117.641, 24.392 107.747, 25.840 98.129, 27.248 95.675, 27.610 87.837, 33.819 83.380, 37.350 76.101, 44.188 72.141, 51.380 66.646, 59.735 64.569, 62.893 63.715, 65.990 64.177, 75.979 64.252, 77.603 " />
        </g>
    </g>
</svg>
