<?xml version='1.0' encoding='ascii'?>
<svg xmlns="http://www.w3.org/2000/svg" version="1.1" width="250" height="250">
    <g id="ViewLayer_LineSet" xmlns:inkscape="http://www.inkscape.org/namespaces/inkscape" inkscape:groupmode="lineset" inkscape:label="ViewLayer_LineSet">
        <g xmlns:inkscape="http://www.inkscape.org/namespaces/inkscape" inkscape:groupmode="layer" id="strokes" inkscape:label="strokes">
            <path fill="none" stroke-width="3.0" stroke-linecap="butt" stroke-opacity="1.0" stroke="rgb(0, 0, 0)" stroke-linejoin="round" d=" M 95.668, 190.629 102.543, 187.748 102.778, 187.785 103.654, 188.035 107.604, 189.544 114.111, 192.801 " />
            <path fill="none" stroke-width="3.0" stroke-linecap="butt" stroke-opacity="1.0" stroke="rgb(0, 0, 0)" stroke-linejoin="round" d=" M 94.044, 92.722 96.064, 95.851 99.221, 98.923 " />
            <path fill="none" stroke-width="3.0" stroke-linecap="butt" stroke-opacity="1.0" stroke="rgb(0, 0, 0)" stroke-linejoin="round" d=" M 192.184, 130.474 199.575, 123.737 204.081, 119.630 204.312, 111.978 201.976, 102.255 199.963, 93.875 198.780, 84.044 193.846, 75.346 188.911, 66.648 183.977, 57.950 183.496, 57.103 181.390, 53.727 180.603, 53.005 176.984, 49.174 169.531, 42.506 162.669, 36.367 159.118, 33.169 150.092, 28.864 141.066, 24.559 138.860, 23.507 138.277, 23.474 132.457, 23.581 122.508, 24.590 112.559, 25.598 102.610, 26.607 100.915, 26.779 98.180, 27.030 90.060, 32.866 84.999, 36.504 78.493, 42.058 73.218, 50.554 72.844, 51.157 66.969, 59.249 64.076, 63.233 62.671, 68.165 62.458, 78.163 62.440, 79.013 " />
            <path fill="none" stroke-width="3.0" stroke-linecap="butt" stroke-opacity="1.0" stroke="rgb(0, 0, 0)" stroke-linejoin="round" d=" M 168.880, 99.137 170.120, 98.478 162.690, 91.784 155.261, 85.090 149.626, 80.012 " />
            <path fill="none" stroke-width="3.0" stroke-linecap="butt" stroke-opacity="1.0" stroke="rgb(0, 0, 0)" stroke-linejoin="round" d=" M 67.841, 103.546 70.544, 98.841 " />
            <path fill="none" stroke-width="3.0" stroke-linecap="butt" stroke-opacity="1.0" stroke="rgb(0, 0, 0)" stroke-linejoin="round" d=" M 190.741, 150.141 191.076, 148.767 190.260, 145.254 187.647, 136.980 187.518, 136.573 189.098, 132.096 188.556, 135.034 187.647, 136.980 " />
            <path fill="none" stroke-width="3.0" stroke-linecap="butt" stroke-opacity="1.0" stroke="rgb(0, 0, 0)" stroke-linejoin="round" d=" M 101.511, 108.987 101.725, 109.306 101.717, 109.584 101.690, 110.450 101.639, 112.400 " />
            <path fill="none" stroke-width="3.0" stroke-linecap="butt" stroke-opacity="1.0" stroke="rgb(0, 0, 0)" stroke-linejoin="round" d=" M 118.480, 136.125 122.056, 139.628 125.082, 142.592 126.444, 143.899 127.176, 144.601 128.366, 153.723 126.444, 143.899 126.252, 142.917 124.101, 141.485 122.206, 139.679 118.480, 136.125 " />
            <path fill="none" stroke-width="3.0" stroke-linecap="butt" stroke-opacity="1.0" stroke="rgb(0, 0, 0)" stroke-linejoin="round" d=" M 117.609, 194.666 121.558, 194.514 126.634, 194.319 129.484, 192.093 130.009, 191.683 133.375, 189.054 " />
            <path fill="none" stroke-width="3.0" stroke-linecap="butt" stroke-opacity="1.0" stroke="rgb(0, 0, 0)" stroke-linejoin="round" d=" M 80.954, 187.359 83.886, 191.097 90.945, 192.649 " />
            <path fill="none" stroke-width="3.0" stroke-linecap="butt" stroke-opacity="1.0" stroke="rgb(0, 0, 0)" stroke-linejoin="round" d=" M 71.304, 107.156 75.383, 100.550 79.505, 95.556 86.657, 92.051 93.887, 92.548 " />
            <path fill="none" stroke-width="3.0" stroke-linecap="butt" stroke-opacity="1.0" stroke="rgb(0, 0, 0)" stroke-linejoin="round" d=" M 102.315, 103.369 99.972, 95.777 97.144, 88.439 92.558, 84.836 " />
            <path fill="none" stroke-width="3.0" stroke-linecap="butt" stroke-opacity="1.0" stroke="rgb(0, 0, 0)" stroke-linejoin="round" d=" M 123.272, 87.027 117.428, 93.491 115.425, 103.288 115.380, 103.509 120.503, 96.899 126.168, 92.478 136.149, 91.858 136.322, 91.847 145.718, 95.269 146.164, 95.432 151.570, 100.673 156.725, 107.736 156.679, 99.182 " />
            <path fill="none" stroke-width="3.0" stroke-linecap="butt" stroke-opacity="1.0" stroke="rgb(0, 0, 0)" stroke-linejoin="round" d=" M 125.412, 140.753 130.049, 139.380 131.549, 138.936 " />
            <path fill="none" stroke-width="3.0" stroke-linecap="butt" stroke-opacity="1.0" stroke="rgb(0, 0, 0)" stroke-linejoin="round" d=" M 125.734, 141.388 135.710, 140.689 136.962, 140.602 142.141, 135.235 145.009, 127.806 145.004, 117.806 145.004, 116.920 141.302, 108.057 134.472, 102.529 124.561, 103.705 121.739, 108.829 121.452, 113.237 " />
            <path fill="none" stroke-width="3.0" stroke-linecap="butt" stroke-opacity="1.0" stroke="rgb(0, 0, 0)" stroke-linejoin="round" d=" M 100.083, 104.844 92.885, 103.663 88.296, 109.016 85.478, 117.010 85.263, 127.008 85.260, 127.155 86.404, 133.413 " />
            <path fill="none" stroke-width="3.0" stroke-linecap="butt" stroke-opacity="1.0" stroke="rgb(0, 0, 0)" stroke-linejoin="round" d=" M 61.978, 95.429 63.248, 105.348 64.120, 112.157 64.827, 114.989 65.265, 115.649 66.825, 117.821 65.239, 115.831 69.600, 123.004 69.200, 125.638 70.819, 125.254 69.940, 129.511 63.515, 137.174 61.551, 139.517 61.165, 140.053 60.772, 145.896 60.741, 146.823 60.769, 146.890 " />
            <path fill="none" stroke-width="3.0" stroke-linecap="butt" stroke-opacity="1.0" stroke="rgb(0, 0, 0)" stroke-linejoin="round" d=" M 87.173, 199.274 87.313, 199.426 87.353, 199.462 92.760, 204.615 98.914, 209.306 101.665, 210.848 111.646, 211.456 112.574, 211.513 114.481, 213.870 114.966, 214.470 " />
            <path fill="none" stroke-width="3.0" stroke-linecap="butt" stroke-opacity="1.0" stroke="rgb(0, 0, 0)" stroke-linejoin="round" d=" M 84.944, 71.738 75.725, 72.041 74.658, 72.084 65.960, 77.019 62.484, 78.991 62.440, 79.013 54.711, 82.719 52.142, 91.669 61.482, 95.240 61.978, 95.429 65.930, 96.941 63.796, 98.903 63.856, 104.022 67.841, 103.546 " />
            <path fill="none" stroke-width="3.0" stroke-linecap="butt" stroke-opacity="1.0" stroke="rgb(0, 0, 0)" stroke-linejoin="round" d=" M 129.484, 192.093 129.642, 192.123 131.478, 191.546 133.267, 191.151 133.844, 191.024 133.699, 192.470 133.163, 192.405 132.839, 192.366 131.984, 192.261 133.002, 191.903 133.547, 191.711 133.163, 192.405 132.230, 194.093 132.839, 192.366 " />
            <path fill="none" stroke-width="3.0" stroke-linecap="butt" stroke-opacity="1.0" stroke="rgb(0, 0, 0)" stroke-linejoin="round" d=" M 187.880, 154.400 190.741, 150.141 " />
            <path fill="none" stroke-width="3.0" stroke-linecap="butt" stroke-opacity="1.0" stroke="rgb(0, 0, 0)" stroke-linejoin="round" d=" M 101.122, 132.084 101.199, 132.059 101.786, 131.869 101.893, 131.834 102.521, 131.870 105.892, 132.573 112.323, 133.913 105.858, 132.644 102.318, 131.949 101.786, 131.869 101.207, 131.781 101.130, 131.770 100.643, 131.696 95.810, 132.199 91.377, 132.771 89.786, 132.976 86.404, 133.413 81.404, 134.058 77.952, 135.488 73.703, 137.281 68.967, 139.278 67.473, 140.679 66.933, 141.186 67.009, 142.476 67.287, 147.161 67.352, 148.263 66.922, 149.052 64.302, 153.854 63.084, 159.587 63.987, 167.053 69.877, 175.134 71.396, 177.218 72.990, 179.723 78.581, 182.570 80.124, 182.829 81.480, 183.056 89.732, 184.217 95.041, 184.963 103.710, 184.211 104.037, 184.112 107.086, 183.189 115.991, 178.640 124.585, 174.250 " />
            <path fill="none" stroke-width="3.0" stroke-linecap="butt" stroke-opacity="1.0" stroke="rgb(0, 0, 0)" stroke-linejoin="round" d=" M 66.804, 146.288 63.691, 140.655 60.942, 146.546 60.769, 146.890 58.518, 151.342 58.129, 155.587 57.963, 156.962 58.591, 161.265 58.843, 162.725 59.646, 167.215 60.190, 168.321 63.861, 170.187 64.597, 170.561 66.192, 172.007 67.045, 174.083 68.579, 178.763 71.316, 182.306 72.228, 183.425 74.674, 184.061 78.320, 184.431 80.954, 187.359 81.678, 188.165 83.514, 190.623 " />
            <path fill="none" stroke-width="3.0" stroke-linecap="butt" stroke-opacity="1.0" stroke="rgb(0, 0, 0)" stroke-linejoin="round" d=" M 63.861, 170.187 64.083, 170.866 65.067, 178.169 68.380, 183.538 77.154, 188.336 85.928, 193.134 89.422, 195.044 89.730, 195.564 " />
            <path fill="none" stroke-width="3.0" stroke-linecap="butt" stroke-opacity="1.0" stroke="rgb(0, 0, 0)" stroke-linejoin="round" d=" M 74.478, 91.743 73.326, 92.526 70.563, 97.160 70.250, 97.688 70.544, 98.841 71.680, 103.291 " />
            <path fill="none" stroke-width="3.0" stroke-linecap="butt" stroke-opacity="1.0" stroke="rgb(0, 0, 0)" stroke-linejoin="round" d=" M 94.494, 191.131 99.247, 194.059 108.470, 195.475 115.747, 196.745 120.434, 195.089 121.558, 194.514 " />
            <path fill="none" stroke-width="3.0" stroke-linecap="butt" stroke-opacity="1.0" stroke="rgb(0, 0, 0)" stroke-linejoin="round" d=" M 100.317, 112.057 97.424, 111.290 95.721, 111.747 93.162, 112.697 92.150, 113.720 91.806, 113.938 89.833, 118.363 89.392, 119.273 88.880, 124.271 88.757, 125.632 88.906, 127.012 89.433, 132.253 89.729, 132.816 89.786, 132.976 " />
            <path fill="none" stroke-width="3.0" stroke-linecap="butt" stroke-opacity="1.0" stroke="rgb(0, 0, 0)" stroke-linejoin="round" d=" M 114.481, 213.870 118.292, 215.628 125.562, 213.099 135.455, 211.639 135.936, 211.568 138.402, 210.723 147.242, 206.048 147.361, 205.985 154.970, 202.580 162.977, 196.590 165.713, 194.543 172.920, 187.611 173.628, 186.931 176.928, 182.158 177.007, 181.959 180.706, 172.668 180.903, 172.172 181.067, 171.221 181.314, 169.780 181.418, 169.178 182.845, 164.163 180.813, 164.391 " />
            <path fill="none" stroke-width="3.0" stroke-linecap="butt" stroke-opacity="1.0" stroke="rgb(0, 0, 0)" stroke-linejoin="round" d=" M 130.049, 139.380 131.120, 139.061 131.563, 138.914 131.649, 138.886 133.965, 135.594 135.451, 133.447 136.133, 129.681 136.642, 126.143 136.109, 122.187 135.599, 118.915 133.460, 115.838 131.958, 113.671 128.865, 112.716 125.663, 111.792 121.452, 113.237 " />
            <path fill="none" stroke-width="3.0" stroke-linecap="butt" stroke-opacity="1.0" stroke="rgb(0, 0, 0)" stroke-linejoin="round" d=" M 130.009, 191.683 133.002, 188.570 133.147, 188.577 133.586, 188.597 135.739, 188.694 140.478, 188.212 142.712, 186.064 145.180, 183.885 146.463, 181.141 148.411, 177.083 153.212, 175.615 156.816, 173.730 158.044, 170.993 160.600, 168.122 161.342, 165.680 162.601, 162.006 162.510, 159.713 162.196, 155.875 157.682, 147.232 155.931, 143.752 151.290, 147.475 144.226, 154.553 142.090, 156.694 132.587, 159.808 127.003, 161.639 121.180, 163.570 " />
            <path fill="none" stroke-width="3.0" stroke-linecap="butt" stroke-opacity="1.0" stroke="rgb(0, 0, 0)" stroke-linejoin="round" d=" M 180.810, 171.128 177.242, 180.470 177.077, 180.900 " />
            <path fill="none" stroke-width="3.0" stroke-linecap="butt" stroke-opacity="1.0" stroke="rgb(0, 0, 0)" stroke-linejoin="round" d=" M 177.007, 181.959 182.059, 177.516 184.758, 174.997 182.643, 171.792 " />
            <path fill="none" stroke-width="3.0" stroke-linecap="butt" stroke-opacity="1.0" stroke="rgb(0, 0, 0)" stroke-linejoin="round" d=" M 181.067, 171.221 182.643, 171.792 184.038, 172.299 191.034, 171.726 197.838, 168.452 201.156, 164.786 202.832, 163.587 205.252, 154.623 205.699, 151.416 204.682, 146.347 201.840, 138.715 200.821, 136.400 196.833, 132.591 192.529, 131.233 191.816, 131.064 192.184, 130.474 " />
        </g>
    </g>
</svg>
