<?xml version='1.0' encoding='ascii'?>
<svg xmlns="http://www.w3.org/2000/svg" version="1.1" width="250" height="250">
    <g id="ViewLayer_LineSet" xmlns:inkscape="http://www.inkscape.org/namespaces/inkscape" inkscape:groupmode="lineset" inkscape:label="ViewLayer_LineSet">
        <g xmlns:inkscape="http://www.inkscape.org/namespaces/inkscape" inkscape:groupmode="layer" id="strokes" inkscape:label="strokes">
            <path fill="none" stroke-width="3.0" stroke-linecap="butt" stroke-opacity="1.0" stroke="rgb(0, 0, 0)" stroke-linejoin="round" d=" M 188.298, 143.831 188.408, 143.602 188.471, 143.473 188.662, 143.491 194.164, 141.925 195.401, 138.839 196.092, 137.274 196.165, 137.109 195.944, 133.406 195.963, 131.896 199.279, 130.566 200.130, 129.886 199.488, 126.522 199.593, 125.900 198.427, 121.533 198.386, 121.340 197.843, 120.202 193.356, 115.775 192.922, 115.153 " />
            <path fill="none" stroke-width="3.0" stroke-linecap="butt" stroke-opacity="1.0" stroke="rgb(0, 0, 0)" stroke-linejoin="round" d=" M 145.008, 75.487 145.201, 75.202 145.375, 74.946 145.385, 75.050 " />
            <path fill="none" stroke-width="3.0" stroke-linecap="butt" stroke-opacity="1.0" stroke="rgb(0, 0, 0)" stroke-linejoin="round" d=" M 183.840, 59.252 183.840, 59.251 183.379, 53.300 175.347, 47.342 169.599, 43.078 164.162, 38.217 154.172, 37.765 154.016, 37.758 144.078, 36.644 143.791, 36.611 133.802, 36.140 131.461, 36.030 122.285, 35.328 117.738, 37.800 108.952, 42.576 108.251, 42.958 99.342, 47.501 97.952, 48.210 92.876, 56.826 90.180, 61.403 85.188, 70.068 80.197, 78.733 79.727, 79.548 79.144, 88.019 " />
            <path fill="none" stroke-width="3.0" stroke-linecap="butt" stroke-opacity="1.0" stroke="rgb(0, 0, 0)" stroke-linejoin="round" d=" M 136.944, 146.950 145.442, 150.305 154.780, 149.049 162.968, 143.308 165.679, 141.406 167.030, 141.324 174.472, 144.746 177.562, 146.166 177.879, 146.312 179.457, 147.037 180.106, 147.336 186.203, 147.457 188.419, 143.620 " />
            <path fill="none" stroke-width="3.0" stroke-linecap="butt" stroke-opacity="1.0" stroke="rgb(0, 0, 0)" stroke-linejoin="round" d=" M 92.644, 81.624 94.323, 87.708 97.863, 81.719 101.980, 77.007 110.442, 72.812 119.823, 71.600 126.057, 73.711 132.231, 78.465 " />
            <path fill="none" stroke-width="3.0" stroke-linecap="butt" stroke-opacity="1.0" stroke="rgb(0, 0, 0)" stroke-linejoin="round" d=" M 147.221, 73.525 153.166, 75.230 153.770, 75.633 " />
            <path fill="none" stroke-width="3.0" stroke-linecap="butt" stroke-opacity="1.0" stroke="rgb(0, 0, 0)" stroke-linejoin="round" d=" M 144.103, 68.984 142.272, 72.175 142.764, 79.749 " />
            <path fill="none" stroke-width="3.0" stroke-linecap="butt" stroke-opacity="1.0" stroke="rgb(0, 0, 0)" stroke-linejoin="round" d=" M 116.745, 105.554 119.884, 110.204 " />
            <path fill="none" stroke-width="3.0" stroke-linecap="butt" stroke-opacity="1.0" stroke="rgb(0, 0, 0)" stroke-linejoin="round" d=" M 126.706, 89.184 122.745, 86.081 113.051, 87.130 107.159, 93.619 105.653, 100.046 " />
            <path fill="none" stroke-width="3.0" stroke-linecap="butt" stroke-opacity="1.0" stroke="rgb(0, 0, 0)" stroke-linejoin="round" d=" M 127.467, 115.834 125.718, 115.812 120.834, 115.210 111.269, 112.295 110.328, 112.009 107.373, 111.108 103.891, 109.640 101.854, 114.745 99.245, 120.739 99.453, 122.490 99.452, 126.576 99.841, 127.244 102.617, 131.645 102.900, 131.995 108.355, 135.686 109.572, 135.757 117.244, 137.505 122.179, 143.526 122.327, 143.724 122.509, 143.843 128.282, 147.349 129.703, 147.484 123.507, 144.104 121.019, 139.664 " />
            <path fill="none" stroke-width="3.0" stroke-linecap="butt" stroke-opacity="1.0" stroke="rgb(0, 0, 0)" stroke-linejoin="round" d=" M 118.332, 207.838 114.177, 212.664 113.314, 213.666 111.993, 212.136 110.788, 210.741 110.765, 210.547 112.630, 211.704 114.177, 212.664 117.241, 214.565 120.456, 216.439 130.432, 215.747 139.563, 215.114 149.265, 212.692 152.932, 211.777 158.183, 209.359 165.829, 202.915 166.200, 202.603 170.438, 197.191 177.273, 189.892 184.108, 182.592 188.594, 177.802 190.314, 175.649 190.758, 175.127 191.011, 174.481 194.520, 165.116 198.011, 155.801 196.919, 147.319 196.550, 138.463 196.092, 137.274 " />
            <path fill="none" stroke-width="3.0" stroke-linecap="butt" stroke-opacity="1.0" stroke="rgb(0, 0, 0)" stroke-linejoin="round" d=" M 53.969, 145.318 51.110, 148.421 46.729, 153.642 46.713, 153.694 45.370, 158.211 42.953, 166.444 41.942, 173.644 42.154, 174.198 42.646, 175.648 49.205, 181.431 51.904, 182.981 59.575, 183.574 63.735, 183.803 66.094, 183.359 70.727, 181.730 72.966, 180.942 75.952, 184.250 76.810, 185.201 76.480, 185.888 76.384, 186.087 75.168, 188.616 78.225, 186.161 78.388, 186.031 78.961, 185.571 " />
            <path fill="none" stroke-width="3.0" stroke-linecap="butt" stroke-opacity="1.0" stroke="rgb(0, 0, 0)" stroke-linejoin="round" d=" M 142.289, 168.932 140.784, 168.011 140.263, 167.607 140.165, 166.718 138.802, 156.812 138.088, 151.625 138.050, 151.344 138.407, 150.691 139.089, 150.773 141.555, 152.534 139.583, 151.523 138.088, 151.625 " />
            <path fill="none" stroke-width="3.0" stroke-linecap="butt" stroke-opacity="1.0" stroke="rgb(0, 0, 0)" stroke-linejoin="round" d=" M 79.620, 186.217 80.044, 186.633 75.089, 193.339 70.662, 198.384 68.063, 206.552 67.061, 208.897 68.240, 211.637 74.531, 218.062 81.698, 219.022 85.354, 219.290 86.269, 218.920 96.110, 217.142 96.325, 217.103 96.707, 216.949 96.721, 216.915 97.132, 216.757 98.985, 214.909 104.978, 208.930 98.321, 213.412 " />
            <path fill="none" stroke-width="3.0" stroke-linecap="butt" stroke-opacity="1.0" stroke="rgb(0, 0, 0)" stroke-linejoin="round" d=" M 98.985, 214.909 103.626, 218.081 107.632, 217.979 108.991, 214.173 111.993, 212.136 " />
            <path fill="none" stroke-width="3.0" stroke-linecap="butt" stroke-opacity="1.0" stroke="rgb(0, 0, 0)" stroke-linejoin="round" d=" M 177.982, 126.563 180.951, 124.695 188.582, 119.897 189.579, 119.271 192.922, 115.153 198.725, 108.008 198.970, 98.308 197.506, 90.891 196.310, 88.576 194.863, 86.883 187.501, 80.115 183.496, 76.433 182.112, 75.818 178.966, 75.493 176.735, 75.426 166.740, 75.124 165.526, 75.088 163.856, 75.037 160.839, 74.946 160.168, 75.011 157.987, 75.223 153.770, 75.633 150.691, 75.932 144.152, 78.385 139.143, 87.040 134.053, 95.837 133.917, 96.642 133.875, 96.894 132.593, 104.496 131.904, 104.907 133.573, 108.093 134.203, 109.294 134.456, 109.776 133.740, 109.810 132.783, 109.856 123.861, 110.280 122.676, 110.388 121.061, 110.303 120.843, 109.897 119.884, 110.204 115.917, 111.470 114.576, 111.004 110.150, 109.502 107.966, 108.079 105.656, 101.395 105.458, 100.876 105.442, 100.835 105.653, 100.046 " />
            <path fill="none" stroke-width="3.0" stroke-linecap="butt" stroke-opacity="1.0" stroke="rgb(0, 0, 0)" stroke-linejoin="round" d=" M 133.917, 96.642 132.164, 94.142 128.528, 91.616 126.914, 90.956 126.606, 90.959 121.210, 91.262 117.110, 92.995 116.147, 93.708 115.992, 94.506 114.980, 99.307 116.636, 105.200 116.718, 105.502 116.740, 105.536 116.802, 105.629 116.972, 105.891 " />
            <path fill="none" stroke-width="3.0" stroke-linecap="butt" stroke-opacity="1.0" stroke="rgb(0, 0, 0)" stroke-linejoin="round" d=" M 117.738, 37.800 109.473, 37.234 99.485, 36.751 94.772, 36.524 85.858, 41.054 85.408, 41.283 76.708, 46.215 76.272, 46.462 69.769, 54.060 65.194, 59.404 58.943, 65.975 54.399, 74.883 51.703, 80.166 47.693, 89.327 43.848, 98.112 43.384, 108.101 43.283, 110.278 42.253, 120.224 41.223, 130.171 40.385, 138.259 42.906, 145.351 46.713, 153.694 " />
            <path fill="none" stroke-width="3.0" stroke-linecap="butt" stroke-opacity="1.0" stroke="rgb(0, 0, 0)" stroke-linejoin="round" d=" M 129.387, 73.063 128.515, 71.336 124.674, 68.477 122.862, 66.296 120.671, 65.865 114.724, 64.862 112.842, 65.161 108.308, 65.626 105.979, 66.849 102.509, 69.244 98.026, 72.882 95.341, 74.812 94.547, 76.430 93.547, 79.379 " />
            <path fill="none" stroke-width="3.0" stroke-linecap="butt" stroke-opacity="1.0" stroke="rgb(0, 0, 0)" stroke-linejoin="round" d=" M 156.403, 68.872 155.729, 68.304 152.721, 67.167 151.531, 67.223 150.728, 67.228 146.857, 68.365 144.119, 68.984 " />
        </g>
    </g>
</svg>
