<?xml version='1.0' encoding='ascii'?>
<svg xmlns="http://www.w3.org/2000/svg" version="1.1" width="250" height="250">
    <g id="ViewLayer_LineSet" xmlns:inkscape="http://www.inkscape.org/namespaces/inkscape" inkscape:groupmode="lineset" inkscape:label="ViewLayer_LineSet">
        <g xmlns:inkscape="http://www.inkscape.org/namespaces/inkscape" inkscape:groupmode="layer" id="strokes" inkscape:label="strokes">
            <path fill="none" stroke-width="3.0" stroke-linecap="butt" stroke-opacity="1.0" stroke="rgb(0, 0, 0)" stroke-linejoin="round" d=" M 146.427, 185.528 149.405, 182.341 149.626, 182.105 152.284, 182.120 157.110, 181.367 159.406, 178.860 161.480, 176.772 162.914, 173.390 164.637, 169.817 169.609, 168.059 172.434, 166.397 173.487, 163.313 175.282, 160.909 176.020, 157.762 176.765, 154.905 176.497, 151.660 176.174, 148.906 172.632, 142.341 170.191, 137.482 165.324, 141.760 158.774, 149.316 158.621, 149.492 151.331, 152.082 " />
            <path fill="none" stroke-width="3.0" stroke-linecap="butt" stroke-opacity="1.0" stroke="rgb(0, 0, 0)" stroke-linejoin="round" d=" M 110.778, 108.561 105.788, 107.356 104.291, 107.882 99.774, 109.788 99.749, 109.832 99.191, 110.775 96.770, 115.213 96.708, 115.324 96.207, 119.573 95.996, 122.297 97.387, 128.098 97.393, 128.122 " />
            <path fill="none" stroke-width="3.0" stroke-linecap="butt" stroke-opacity="1.0" stroke="rgb(0, 0, 0)" stroke-linejoin="round" d=" M 181.868, 92.318 176.377, 83.961 170.885, 75.604 169.513, 73.515 163.461, 71.070 154.318, 67.021 145.095, 62.937 143.037, 62.944 133.037, 62.929 123.037, 62.914 119.526, 62.908 109.527, 63.026 99.528, 63.145 96.683, 63.178 94.181, 63.196 85.183, 67.558 78.034, 71.023 70.900, 74.089 66.261, 82.947 61.621, 91.806 60.428, 94.084 62.545, 95.387 61.753, 95.921 61.159, 97.243 " />
            <path fill="none" stroke-width="3.0" stroke-linecap="butt" stroke-opacity="1.0" stroke="rgb(0, 0, 0)" stroke-linejoin="round" d=" M 188.841, 125.816 194.919, 120.006 195.790, 110.044 196.662, 100.082 197.402, 91.612 197.278, 90.574 197.284, 90.088 196.766, 88.900 192.445, 79.882 188.124, 70.864 183.803, 61.845 182.219, 58.539 176.085, 51.891 169.788, 44.123 164.227, 37.263 160.765, 35.051 151.938, 30.353 143.827, 26.035 140.257, 26.200 130.258, 26.343 120.259, 26.486 110.260, 26.629 106.468, 26.683 102.458, 26.638 93.805, 31.651 87.465, 35.324 82.509, 38.747 76.407, 46.669 72.810, 51.339 66.212, 58.854 65.382, 59.799 61.437, 68.988 57.492, 78.177 55.168, 83.592 54.248, 89.053 53.605, 91.571 53.595, 96.433 54.789, 106.361 55.984, 116.290 56.305, 118.956 60.449, 123.350 63.243, 127.541 " />
            <path fill="none" stroke-width="3.0" stroke-linecap="butt" stroke-opacity="1.0" stroke="rgb(0, 0, 0)" stroke-linejoin="round" d=" M 99.023, 127.086 98.713, 127.283 97.393, 128.122 92.671, 131.124 90.274, 132.648 88.721, 136.974 86.354, 138.416 86.706, 140.552 85.980, 141.664 84.726, 149.896 84.677, 150.221 84.420, 157.150 86.576, 158.551 92.075, 163.541 96.332, 167.553 97.186, 168.122 105.506, 173.670 106.532, 174.354 112.060, 175.670 118.755, 176.616 124.848, 175.841 128.401, 174.966 137.565, 170.963 143.243, 168.483 143.298, 168.426 146.667, 164.938 150.214, 156.076 151.331, 152.082 151.685, 150.817 151.085, 145.336 148.970, 140.719 147.485, 135.264 146.958, 133.327 144.390, 131.653 143.949, 131.365 139.305, 128.338 135.841, 125.907 131.470, 125.015 127.576, 124.221 126.339, 124.059 119.263, 123.132 117.046, 123.365 109.225, 124.187 101.828, 125.462 99.023, 127.086 " />
            <path fill="none" stroke-width="3.0" stroke-linecap="butt" stroke-opacity="1.0" stroke="rgb(0, 0, 0)" stroke-linejoin="round" d=" M 123.839, 183.820 130.463, 187.028 134.425, 188.948 137.488, 188.715 143.300, 188.273 145.216, 186.591 145.850, 186.035 149.586, 182.755 " />
            <path fill="none" stroke-width="3.0" stroke-linecap="butt" stroke-opacity="1.0" stroke="rgb(0, 0, 0)" stroke-linejoin="round" d=" M 91.178, 182.187 97.012, 187.777 97.032, 187.796 105.548, 188.653 " />
            <path fill="none" stroke-width="3.0" stroke-linecap="butt" stroke-opacity="1.0" stroke="rgb(0, 0, 0)" stroke-linejoin="round" d=" M 77.675, 103.409 82.517, 96.565 87.469, 91.365 96.129, 87.534 104.877, 87.685 108.785, 90.953 " />
            <path fill="none" stroke-width="3.0" stroke-linecap="butt" stroke-opacity="1.0" stroke="rgb(0, 0, 0)" stroke-linejoin="round" d=" M 114.697, 98.133 112.486, 90.474 108.623, 83.518 102.980, 80.200 " />
            <path fill="none" stroke-width="3.0" stroke-linecap="butt" stroke-opacity="1.0" stroke="rgb(0, 0, 0)" stroke-linejoin="round" d=" M 133.166, 91.956 138.313, 87.917 147.689, 87.733 156.728, 91.588 161.848, 96.773 166.791, 103.666 " />
            <path fill="none" stroke-width="3.0" stroke-linecap="butt" stroke-opacity="1.0" stroke="rgb(0, 0, 0)" stroke-linejoin="round" d=" M 135.599, 82.474 130.235, 88.499 128.040, 98.255 128.006, 98.410 " />
            <path fill="none" stroke-width="3.0" stroke-linecap="butt" stroke-opacity="1.0" stroke="rgb(0, 0, 0)" stroke-linejoin="round" d=" M 147.485, 135.264 151.316, 131.214 153.734, 124.002 153.764, 114.002 153.766, 113.274 150.309, 104.510 143.843, 98.943 134.625, 99.747 132.084, 104.665 131.954, 108.973 " />
            <path fill="none" stroke-width="3.0" stroke-linecap="butt" stroke-opacity="1.0" stroke="rgb(0, 0, 0)" stroke-linejoin="round" d=" M 111.378, 105.772 109.082, 100.911 100.351, 100.161 94.346, 105.987 90.951, 114.239 90.770, 124.237 90.765, 124.556 92.671, 131.124 " />
            <path fill="none" stroke-width="3.0" stroke-linecap="butt" stroke-opacity="1.0" stroke="rgb(0, 0, 0)" stroke-linejoin="round" d=" M 177.291, 98.763 183.869, 95.751 181.868, 92.318 " />
            <path fill="none" stroke-width="3.0" stroke-linecap="butt" stroke-opacity="1.0" stroke="rgb(0, 0, 0)" stroke-linejoin="round" d=" M 63.226, 127.090 62.075, 125.311 63.216, 126.818 63.226, 127.090 63.243, 127.541 63.392, 131.508 63.437, 132.688 63.444, 132.685 63.445, 132.696 63.419, 132.728 58.253, 141.290 57.305, 142.861 57.315, 147.710 59.182, 152.463 61.221, 153.390 61.533, 156.306 61.079, 166.248 61.457, 169.217 61.542, 169.487 61.617, 169.723 62.371, 171.814 67.499, 180.399 72.627, 188.984 74.198, 191.614 75.284, 192.375 77.154, 193.992 85.880, 198.875 94.607, 203.758 96.439, 204.784 104.930, 210.067 105.067, 210.152 108.552, 211.678 118.102, 214.646 118.753, 214.848 122.458, 216.553 125.583, 215.240 135.329, 212.999 137.918, 212.404 139.575, 211.715 148.020, 206.360 149.146, 205.646 157.987, 200.973 163.156, 198.242 169.718, 193.140 173.007, 190.288 178.257, 181.778 182.572, 174.782 183.919, 171.602 184.363, 170.554 184.658, 169.465 185.951, 161.643 185.972, 156.886 186.226, 155.547 186.962, 155.416 190.634, 148.253 191.132, 144.830 186.805, 136.324 185.463, 134.051 185.829, 131.637 186.075, 130.019 186.334, 128.312 185.521, 130.860 " />
            <path fill="none" stroke-width="3.0" stroke-linecap="butt" stroke-opacity="1.0" stroke="rgb(0, 0, 0)" stroke-linejoin="round" d=" M 145.850, 186.035 146.063, 186.048 146.786, 185.344 145.256, 187.117 145.216, 186.591 " />
            <path fill="none" stroke-width="3.0" stroke-linecap="butt" stroke-opacity="1.0" stroke="rgb(0, 0, 0)" stroke-linejoin="round" d=" M 63.392, 131.508 60.723, 133.770 57.300, 137.741 56.575, 141.655 55.204, 146.489 54.323, 149.482 54.589, 154.675 55.241, 161.304 57.602, 163.431 60.063, 168.751 61.542, 169.487 " />
            <path fill="none" stroke-width="3.0" stroke-linecap="butt" stroke-opacity="1.0" stroke="rgb(0, 0, 0)" stroke-linejoin="round" d=" M 84.726, 149.896 82.552, 149.062 77.391, 143.760 72.189, 136.892 69.580, 142.092 68.049, 144.914 66.322, 148.097 65.970, 151.677 65.662, 154.010 66.325, 157.457 66.897, 159.958 67.907, 163.430 69.228, 165.600 69.857, 165.829 70.315, 165.995 70.341, 166.005 73.548, 167.174 76.466, 169.056 77.938, 172.239 78.569, 173.860 78.823, 174.512 79.400, 175.994 81.888, 178.767 82.875, 179.827 83.641, 180.649 88.261, 181.467 90.964, 181.499 91.346, 181.795 93.752, 183.660 94.307, 185.185 " />
            <path fill="none" stroke-width="3.0" stroke-linecap="butt" stroke-opacity="1.0" stroke="rgb(0, 0, 0)" stroke-linejoin="round" d=" M 106.565, 188.176 107.730, 189.109 112.386, 191.776 118.006, 192.160 127.974, 192.965 128.832, 193.034 132.965, 191.271 137.488, 188.715 " />
            <path fill="none" stroke-width="3.0" stroke-linecap="butt" stroke-opacity="1.0" stroke="rgb(0, 0, 0)" stroke-linejoin="round" d=" M 108.785, 90.953 109.468, 91.496 109.555, 91.596 110.008, 92.117 " />
            <path fill="none" stroke-width="3.0" stroke-linecap="butt" stroke-opacity="1.0" stroke="rgb(0, 0, 0)" stroke-linejoin="round" d=" M 115.572, 183.950 119.099, 182.335 119.246, 182.338 120.648, 182.350 121.251, 182.566 121.855, 182.781 123.839, 183.820 " />
            <path fill="none" stroke-width="3.0" stroke-linecap="butt" stroke-opacity="1.0" stroke="rgb(0, 0, 0)" stroke-linejoin="round" d=" M 144.390, 131.653 146.369, 128.794 146.667, 127.050 147.379, 121.568 146.398, 114.776 146.343, 114.432 143.110, 109.894 142.698, 109.320 138.387, 108.040 136.273, 107.496 132.271, 108.872 " />
            <path fill="none" stroke-width="3.0" stroke-linecap="butt" stroke-opacity="1.0" stroke="rgb(0, 0, 0)" stroke-linejoin="round" d=" M 183.919, 171.602 186.693, 171.229 191.075, 169.122 193.680, 164.614 195.858, 162.888 197.000, 155.504 197.335, 150.959 196.351, 147.329 194.575, 141.681 193.687, 138.148 189.606, 133.712 187.903, 132.344 185.829, 131.637 " />
            <path fill="none" stroke-width="3.0" stroke-linecap="butt" stroke-opacity="1.0" stroke="rgb(0, 0, 0)" stroke-linejoin="round" d=" M 186.075, 130.019 188.841, 125.816 " />
        </g>
    </g>
</svg>
