<?xml version='1.0' encoding='ascii'?>
<svg xmlns="http://www.w3.org/2000/svg" version="1.1" width="250" height="250">
    <g id="ViewLayer_LineSet" xmlns:inkscape="http://www.inkscape.org/namespaces/inkscape" inkscape:groupmode="lineset" inkscape:label="ViewLayer_LineSet">
        <g xmlns:inkscape="http://www.inkscape.org/namespaces/inkscape" inkscape:groupmode="layer" id="strokes" inkscape:label="strokes">
            <path fill="none" stroke-width="3.0" stroke-linecap="butt" stroke-opacity="1.0" stroke="rgb(0, 0, 0)" stroke-linejoin="round" d=" M 189.799, 123.356 186.744, 120.907 184.986, 119.497 184.664, 118.179 184.647, 118.113 184.605, 117.938 183.939, 117.661 " />
            <path fill="none" stroke-width="3.0" stroke-linecap="butt" stroke-opacity="1.0" stroke="rgb(0, 0, 0)" stroke-linejoin="round" d=" M 190.095, 111.248 190.548, 110.795 191.587, 108.000 194.586, 98.461 196.975, 90.862 197.038, 88.459 197.703, 85.377 194.040, 76.072 190.377, 66.767 188.107, 61.002 186.829, 59.334 184.917, 56.442 177.527, 49.704 173.867, 46.366 166.497, 39.707 157.586, 35.169 157.191, 34.968 147.198, 34.611 143.406, 34.475 133.408, 34.300 127.636, 34.200 117.638, 34.018 113.196, 33.938 103.196, 33.954 97.855, 33.962 90.960, 36.855 82.907, 42.784 78.480, 46.045 70.562, 52.152 66.185, 55.528 64.459, 58.924 60.253, 62.823 55.267, 71.492 50.282, 80.160 48.746, 82.831 48.565, 87.740 47.005, 92.250 49.444, 101.948 51.289, 109.283 57.787, 116.211 60.904, 119.452 59.691, 118.734 59.033, 118.730 " />
            <path fill="none" stroke-width="3.0" stroke-linecap="butt" stroke-opacity="1.0" stroke="rgb(0, 0, 0)" stroke-linejoin="round" d=" M 67.000, 123.540 74.516, 119.363 71.568, 118.538 66.228, 120.354 67.974, 120.248 70.147, 121.317 67.000, 123.540 " />
            <path fill="none" stroke-width="3.0" stroke-linecap="butt" stroke-opacity="1.0" stroke="rgb(0, 0, 0)" stroke-linejoin="round" d=" M 97.876, 127.258 98.502, 126.015 98.715, 125.615 98.724, 125.611 " />
            <path fill="none" stroke-width="3.0" stroke-linecap="butt" stroke-opacity="1.0" stroke="rgb(0, 0, 0)" stroke-linejoin="round" d=" M 138.927, 127.591 140.389, 124.463 " />
            <path fill="none" stroke-width="3.0" stroke-linecap="butt" stroke-opacity="1.0" stroke="rgb(0, 0, 0)" stroke-linejoin="round" d=" M 148.465, 166.152 148.210, 165.916 150.879, 170.140 153.281, 179.884 150.387, 181.704 150.200, 183.716 " />
            <path fill="none" stroke-width="3.0" stroke-linecap="butt" stroke-opacity="1.0" stroke="rgb(0, 0, 0)" stroke-linejoin="round" d=" M 122.679, 129.441 120.770, 123.042 " />
            <path fill="none" stroke-width="3.0" stroke-linecap="butt" stroke-opacity="1.0" stroke="rgb(0, 0, 0)" stroke-linejoin="round" d=" M 138.680, 119.896 135.864, 128.658 " />
            <path fill="none" stroke-width="3.0" stroke-linecap="butt" stroke-opacity="1.0" stroke="rgb(0, 0, 0)" stroke-linejoin="round" d=" M 146.689, 131.784 145.021, 131.529 141.477, 130.989 138.060, 132.695 " />
            <path fill="none" stroke-width="3.0" stroke-linecap="butt" stroke-opacity="1.0" stroke="rgb(0, 0, 0)" stroke-linejoin="round" d=" M 140.565, 124.348 138.315, 128.803 138.060, 132.695 " />
            <path fill="none" stroke-width="3.0" stroke-linecap="butt" stroke-opacity="1.0" stroke="rgb(0, 0, 0)" stroke-linejoin="round" d=" M 98.724, 125.611 95.252, 132.349 95.275, 141.662 97.730, 148.850 102.715, 153.325 106.603, 154.709 " />
            <path fill="none" stroke-width="3.0" stroke-linecap="butt" stroke-opacity="1.0" stroke="rgb(0, 0, 0)" stroke-linejoin="round" d=" M 117.606, 130.415 115.110, 125.083 " />
            <path fill="none" stroke-width="3.0" stroke-linecap="butt" stroke-opacity="1.0" stroke="rgb(0, 0, 0)" stroke-linejoin="round" d=" M 149.280, 152.237 154.439, 147.492 157.087, 140.598 157.406, 137.581 157.454, 137.133 158.027, 131.707 155.503, 124.766 " />
            <path fill="none" stroke-width="3.0" stroke-linecap="butt" stroke-opacity="1.0" stroke="rgb(0, 0, 0)" stroke-linejoin="round" d=" M 59.033, 118.730 57.215, 116.920 58.718, 118.728 60.205, 120.517 60.766, 123.700 61.815, 129.665 60.541, 133.991 57.947, 143.649 57.868, 143.942 58.435, 148.359 60.966, 153.622 60.979, 153.648 63.519, 156.259 64.888, 160.876 65.572, 170.852 65.656, 172.071 65.867, 172.822 65.923, 172.953 66.102, 173.468 66.658, 174.284 72.373, 182.491 76.697, 188.701 83.056, 190.597 86.850, 192.268 " />
            <path fill="none" stroke-width="3.0" stroke-linecap="butt" stroke-opacity="1.0" stroke="rgb(0, 0, 0)" stroke-linejoin="round" d=" M 184.647, 118.113 190.234, 111.288 188.189, 112.988 190.095, 111.248 " />
            <path fill="none" stroke-width="3.0" stroke-linecap="butt" stroke-opacity="1.0" stroke="rgb(0, 0, 0)" stroke-linejoin="round" d=" M 102.997, 181.109 105.374, 171.396 105.920, 169.162 103.488, 178.861 102.943, 181.038 101.807, 185.567 101.133, 188.278 99.127, 195.964 98.451, 198.553 98.429, 198.638 98.435, 198.696 99.540, 201.607 99.842, 202.404 101.569, 206.954 109.904, 212.479 109.991, 212.536 114.687, 216.039 118.464, 216.771 124.171, 217.193 134.166, 216.881 138.941, 216.732 143.929, 216.081 146.815, 215.382 152.401, 210.264 158.869, 205.355 162.687, 197.468 163.059, 195.553 163.058, 195.550 162.550, 193.943 160.674, 188.010 157.972, 183.822 155.828, 178.063 153.358, 171.428 150.792, 169.126 148.465, 166.152 " />
            <path fill="none" stroke-width="3.0" stroke-linecap="butt" stroke-opacity="1.0" stroke="rgb(0, 0, 0)" stroke-linejoin="round" d=" M 58.718, 118.728 53.819, 118.700 52.786, 120.061 52.481, 120.729 50.262, 128.448 49.690, 132.020 50.394, 136.422 52.084, 142.965 55.298, 146.416 60.605, 153.542 60.966, 153.622 " />
            <path fill="none" stroke-width="3.0" stroke-linecap="butt" stroke-opacity="1.0" stroke="rgb(0, 0, 0)" stroke-linejoin="round" d=" M 102.943, 181.038 102.915, 181.003 93.623, 177.309 92.030, 176.675 89.556, 174.064 83.751, 165.922 82.564, 164.258 79.714, 162.671 75.180, 171.584 74.723, 172.481 74.696, 174.858 74.613, 177.611 75.499, 180.461 76.374, 182.890 78.357, 187.528 79.092, 188.601 84.591, 190.590 86.657, 191.951 86.850, 192.268 87.775, 193.782 89.616, 197.312 93.526, 200.856 93.890, 201.171 94.528, 201.276 98.518, 201.540 99.540, 201.607 " />
            <path fill="none" stroke-width="3.0" stroke-linecap="butt" stroke-opacity="1.0" stroke="rgb(0, 0, 0)" stroke-linejoin="round" d=" M 98.518, 201.540 99.842, 202.404 " />
            <path fill="none" stroke-width="3.0" stroke-linecap="butt" stroke-opacity="1.0" stroke="rgb(0, 0, 0)" stroke-linejoin="round" d=" M 106.769, 132.025 106.535, 132.098 104.479, 134.925 102.851, 137.104 102.532, 139.380 101.927, 143.668 103.156, 149.762 103.256, 150.242 106.603, 154.709 106.743, 154.896 106.913, 155.105 110.188, 155.985 111.587, 156.361 112.831, 156.637 113.269, 156.735 118.734, 155.067 " />
            <path fill="none" stroke-width="3.0" stroke-linecap="butt" stroke-opacity="1.0" stroke="rgb(0, 0, 0)" stroke-linejoin="round" d=" M 137.627, 155.715 142.156, 156.507 143.091, 156.198 145.009, 155.360 147.234, 153.698 147.693, 153.425 148.134, 152.732 150.363, 149.232 150.721, 148.700 152.390, 142.469 152.390, 142.468 152.390, 142.466 152.389, 142.453 151.469, 137.079 151.303, 136.248 149.071, 133.823 147.258, 131.916 146.718, 131.824 146.061, 131.712 145.021, 131.529 " />
            <path fill="none" stroke-width="3.0" stroke-linecap="butt" stroke-opacity="1.0" stroke="rgb(0, 0, 0)" stroke-linejoin="round" d=" M 138.476, 125.707 140.389, 124.463 140.565, 124.348 " />
            <path fill="none" stroke-width="3.0" stroke-linecap="butt" stroke-opacity="1.0" stroke="rgb(0, 0, 0)" stroke-linejoin="round" d=" M 163.058, 195.550 163.154, 195.464 164.954, 192.169 165.387, 191.377 166.336, 189.962 170.385, 188.075 173.253, 186.739 173.693, 186.407 175.147, 182.150 175.976, 181.044 177.235, 177.362 177.836, 175.770 177.936, 173.770 177.988, 172.743 178.034, 170.756 174.105, 161.560 173.593, 160.361 172.190, 161.695 166.383, 169.836 162.762, 174.912 155.828, 178.063 " />
            <path fill="none" stroke-width="3.0" stroke-linecap="butt" stroke-opacity="1.0" stroke="rgb(0, 0, 0)" stroke-linejoin="round" d=" M 164.954, 192.169 170.317, 188.211 170.385, 188.075 " />
            <path fill="none" stroke-width="3.0" stroke-linecap="butt" stroke-opacity="1.0" stroke="rgb(0, 0, 0)" stroke-linejoin="round" d=" M 177.936, 173.770 179.895, 170.333 180.696, 163.784 181.606, 154.432 184.197, 150.545 185.578, 147.405 186.906, 142.244 186.247, 140.375 182.926, 130.943 182.277, 129.102 181.943, 128.319 182.089, 127.299 183.292, 120.433 " />
            <path fill="none" stroke-width="3.0" stroke-linecap="butt" stroke-opacity="1.0" stroke="rgb(0, 0, 0)" stroke-linejoin="round" d=" M 186.247, 140.375 187.431, 135.690 188.447, 130.561 188.027, 127.935 186.861, 122.036 " />
            <path fill="none" stroke-width="3.0" stroke-linecap="butt" stroke-opacity="1.0" stroke="rgb(0, 0, 0)" stroke-linejoin="round" d=" M 180.940, 119.377 183.292, 120.433 186.861, 122.036 189.799, 123.356 " />
        </g>
    </g>
</svg>
