<?xml version='1.0' encoding='ascii'?>
<svg xmlns="http://www.w3.org/2000/svg" version="1.1" width="250" height="250">
    <g id="ViewLayer_LineSet" xmlns:inkscape="http://www.inkscape.org/namespaces/inkscape" inkscape:groupmode="lineset" inkscape:label="ViewLayer_LineSet">
        <g xmlns:inkscape="http://www.inkscape.org/namespaces/inkscape" inkscape:groupmode="layer" id="strokes" inkscape:label="strokes">
            <path fill="none" stroke-width="3.0" stroke-linecap="butt" stroke-opacity="1.0" stroke="rgb(0, 0, 0)" stroke-linejoin="round" d=" M 153.405, 189.717 157.302, 185.472 157.729, 185.006 161.130, 184.866 164.729, 184.168 167.234, 181.219 168.777, 179.549 170.304, 175.652 171.678, 172.692 176.983, 170.444 178.932, 169.088 179.504, 166.981 179.897, 165.528 181.174, 163.558 181.911, 159.918 182.438, 157.621 182.128, 153.996 181.870, 151.776 178.605, 145.586 178.573, 145.520 176.185, 140.641 172.360, 144.588 166.488, 152.682 166.092, 153.228 165.502, 153.474 " />
            <path fill="none" stroke-width="3.0" stroke-linecap="butt" stroke-opacity="1.0" stroke="rgb(0, 0, 0)" stroke-linejoin="round" d=" M 115.943, 95.192 116.056, 95.279 116.069, 95.295 116.117, 95.352 " />
            <path fill="none" stroke-width="3.0" stroke-linecap="butt" stroke-opacity="1.0" stroke="rgb(0, 0, 0)" stroke-linejoin="round" d=" M 138.770, 96.356 139.885, 95.128 141.634, 93.515 " />
            <path fill="none" stroke-width="3.0" stroke-linecap="butt" stroke-opacity="1.0" stroke="rgb(0, 0, 0)" stroke-linejoin="round" d=" M 188.141, 96.092 183.267, 87.359 178.672, 79.125 172.767, 76.680 163.672, 72.524 155.913, 68.979 155.252, 68.970 145.253, 68.849 143.408, 68.827 " />
            <path fill="none" stroke-width="3.0" stroke-linecap="butt" stroke-opacity="1.0" stroke="rgb(0, 0, 0)" stroke-linejoin="round" d=" M 186.518, 121.275 190.106, 117.119 191.627, 107.236 193.124, 97.500 193.348, 91.195 192.720, 88.207 191.925, 82.127 188.116, 72.880 184.307, 63.634 182.723, 59.790 176.248, 52.169 175.878, 51.734 169.925, 43.699 165.888, 38.252 161.995, 35.467 153.401, 30.355 145.529, 25.672 143.343, 25.678 133.347, 25.416 123.350, 25.153 113.354, 24.891 105.866, 24.694 104.474, 24.602 95.599, 29.210 86.724, 33.818 85.019, 34.704 83.733, 35.518 77.329, 43.198 70.924, 50.878 69.791, 52.236 64.922, 57.330 60.453, 66.276 55.983, 75.221 52.096, 83.003 49.611, 88.442 49.615, 90.435 49.078, 94.201 50.053, 104.153 51.028, 114.106 51.459, 118.495 58.135, 125.219 60.862, 129.236 " />
            <path fill="none" stroke-width="3.0" stroke-linecap="butt" stroke-opacity="1.0" stroke="rgb(0, 0, 0)" stroke-linejoin="round" d=" M 109.316, 136.404 107.740, 137.480 107.548, 137.611 104.848, 139.454 103.655, 140.268 100.921, 149.895 99.670, 152.013 97.327, 156.397 97.316, 156.604 97.217, 158.554 97.168, 160.122 99.988, 163.083 106.055, 170.463 106.871, 171.403 107.027, 171.583 114.637, 178.070 115.300, 178.635 116.000, 179.232 118.067, 180.994 122.911, 182.194 131.543, 183.140 137.652, 182.329 141.006, 181.883 146.095, 180.680 147.952, 180.242 153.884, 177.439 154.190, 177.295 161.169, 170.133 162.194, 169.080 163.610, 166.471 166.195, 157.461 165.502, 153.474 164.723, 148.987 161.065, 143.487 159.545, 139.446 153.117, 135.908 150.870, 134.672 149.965, 134.121 149.094, 133.591 146.843, 132.220 137.161, 130.591 135.169, 130.255 132.631, 129.942 130.242, 129.647 126.340, 130.197 122.477, 130.961 114.191, 132.600 109.316, 136.404 " />
            <path fill="none" stroke-width="3.0" stroke-linecap="butt" stroke-opacity="1.0" stroke="rgb(0, 0, 0)" stroke-linejoin="round" d=" M 134.559, 188.567 143.209, 192.431 143.440, 192.535 151.714, 191.420 157.397, 185.696 " />
            <path fill="none" stroke-width="3.0" stroke-linecap="butt" stroke-opacity="1.0" stroke="rgb(0, 0, 0)" stroke-linejoin="round" d=" M 99.898, 186.881 106.226, 192.425 115.068, 193.179 " />
            <path fill="none" stroke-width="3.0" stroke-linecap="butt" stroke-opacity="1.0" stroke="rgb(0, 0, 0)" stroke-linejoin="round" d=" M 81.928, 106.336 86.922, 99.386 92.120, 94.167 101.374, 90.514 110.794, 90.985 116.069, 95.295 " />
            <path fill="none" stroke-width="3.0" stroke-linecap="butt" stroke-opacity="1.0" stroke="rgb(0, 0, 0)" stroke-linejoin="round" d=" M 121.308, 101.885 119.117, 94.182 114.669, 86.820 108.492, 83.166 " />
            <path fill="none" stroke-width="3.0" stroke-linecap="butt" stroke-opacity="1.0" stroke="rgb(0, 0, 0)" stroke-linejoin="round" d=" M 144.176, 91.234 152.964, 90.806 161.416, 94.446 166.272, 99.544 170.968, 106.330 " />
            <path fill="none" stroke-width="3.0" stroke-linecap="butt" stroke-opacity="1.0" stroke="rgb(0, 0, 0)" stroke-linejoin="round" d=" M 141.582, 85.802 136.617, 92.065 134.466, 101.831 134.421, 102.037 " />
            <path fill="none" stroke-width="3.0" stroke-linecap="butt" stroke-opacity="1.0" stroke="rgb(0, 0, 0)" stroke-linejoin="round" d=" M 140.592, 110.667 138.806, 111.327 " />
            <path fill="none" stroke-width="3.0" stroke-linecap="butt" stroke-opacity="1.0" stroke="rgb(0, 0, 0)" stroke-linejoin="round" d=" M 155.404, 133.376 157.521, 126.102 157.576, 116.102 157.580, 115.501 154.334, 106.884 148.190, 101.462 139.539, 102.539 137.238, 107.590 137.223, 111.912 " />
            <path fill="none" stroke-width="3.0" stroke-linecap="butt" stroke-opacity="1.0" stroke="rgb(0, 0, 0)" stroke-linejoin="round" d=" M 116.634, 108.817 114.019, 103.765 104.627, 102.711 98.078, 108.359 94.612, 116.689 94.665, 126.689 94.667, 127.189 97.165, 134.342 102.327, 139.242 " />
            <path fill="none" stroke-width="3.0" stroke-linecap="butt" stroke-opacity="1.0" stroke="rgb(0, 0, 0)" stroke-linejoin="round" d=" M 179.530, 101.322 186.418, 100.702 185.447, 98.595 184.219, 97.835 188.141, 96.092 " />
            <path fill="none" stroke-width="3.0" stroke-linecap="butt" stroke-opacity="1.0" stroke="rgb(0, 0, 0)" stroke-linejoin="round" d=" M 61.295, 129.874 60.589, 127.650 60.862, 129.236 61.044, 130.295 61.693, 134.068 60.410, 136.882 56.904, 145.137 57.128, 148.920 60.618, 156.023 61.634, 156.526 62.036, 157.781 61.975, 161.789 63.620, 169.929 63.810, 170.610 64.000, 171.293 65.837, 176.547 71.238, 184.962 75.695, 191.907 78.181, 193.703 81.940, 196.813 90.880, 201.294 98.276, 205.000 106.071, 209.366 110.717, 211.210 118.427, 213.177 125.110, 215.978 133.080, 212.318 " />
            <path fill="none" stroke-width="3.0" stroke-linecap="butt" stroke-opacity="1.0" stroke="rgb(0, 0, 0)" stroke-linejoin="round" d=" M 143.773, 207.474 145.610, 206.490 150.654, 203.223 159.564, 198.684 164.947, 195.942 164.783, 194.173 173.689, 190.267 179.022, 181.807 184.354, 173.347 184.816, 172.616 185.203, 171.262 185.671, 169.956 185.646, 165.848 185.598, 157.853 185.625, 153.487 187.231, 152.675 189.202, 147.668 189.778, 143.154 184.763, 134.502 183.648, 132.578 183.183, 131.987 183.169, 131.704 183.346, 131.734 183.392, 130.097 183.518, 125.616 183.519, 125.575 183.522, 125.482 184.777, 123.771 185.478, 122.815 183.518, 125.616 " />
            <path fill="none" stroke-width="3.0" stroke-linecap="butt" stroke-opacity="1.0" stroke="rgb(0, 0, 0)" stroke-linejoin="round" d=" M 103.625, 69.049 94.346, 72.776 85.066, 76.503 84.638, 76.675 80.517, 78.193 74.311, 86.035 68.106, 93.877 66.710, 95.641 64.395, 98.840 70.690, 100.046 " />
            <path fill="none" stroke-width="3.0" stroke-linecap="butt" stroke-opacity="1.0" stroke="rgb(0, 0, 0)" stroke-linejoin="round" d=" M 61.044, 130.295 57.730, 131.287 57.609, 131.335 52.952, 136.329 52.081, 139.483 50.277, 145.378 49.370, 149.081 49.793, 153.616 51.040, 161.009 53.363, 162.955 56.718, 168.205 60.300, 170.046 63.810, 170.610 " />
            <path fill="none" stroke-width="3.0" stroke-linecap="butt" stroke-opacity="1.0" stroke="rgb(0, 0, 0)" stroke-linejoin="round" d=" M 97.316, 156.604 90.747, 154.214 85.111, 148.915 78.834, 141.308 76.718, 145.599 72.870, 152.941 72.663, 156.079 72.374, 158.940 73.113, 161.989 73.970, 164.978 75.210, 168.297 75.782, 169.141 76.871, 170.746 80.324, 171.912 81.346, 172.257 84.668, 174.247 86.376, 177.686 87.181, 179.536 87.876, 181.130 90.464, 183.753 91.719, 184.982 92.399, 185.649 96.946, 186.313 99.903, 186.305 100.096, 186.441 103.142, 188.599 103.382, 189.933 " />
            <path fill="none" stroke-width="3.0" stroke-linecap="butt" stroke-opacity="1.0" stroke="rgb(0, 0, 0)" stroke-linejoin="round" d=" M 115.571, 111.436 110.977, 110.383 108.645, 111.251 104.901, 112.858 104.252, 114.041 101.739, 118.410 101.657, 119.755 101.307, 125.545 102.593, 130.514 103.171, 132.633 105.365, 135.248 107.548, 137.611 " />
            <path fill="none" stroke-width="3.0" stroke-linecap="butt" stroke-opacity="1.0" stroke="rgb(0, 0, 0)" stroke-linejoin="round" d=" M 115.883, 192.787 120.015, 194.921 127.204, 195.070 136.688, 195.325 143.209, 192.431 " />
            <path fill="none" stroke-width="3.0" stroke-linecap="butt" stroke-opacity="1.0" stroke="rgb(0, 0, 0)" stroke-linejoin="round" d=" M 120.280, 190.667 124.093, 188.991 128.798, 186.923 129.154, 186.917 130.280, 186.808 131.463, 187.184 132.410, 187.485 134.658, 188.564 136.104, 189.258 " />
            <path fill="none" stroke-width="3.0" stroke-linecap="butt" stroke-opacity="1.0" stroke="rgb(0, 0, 0)" stroke-linejoin="round" d=" M 137.923, 210.095 138.687, 210.006 142.908, 207.937 143.668, 207.565 143.773, 207.474 148.143, 203.690 149.304, 202.285 149.642, 201.063 " />
            <path fill="none" stroke-width="3.0" stroke-linecap="butt" stroke-opacity="1.0" stroke="rgb(0, 0, 0)" stroke-linejoin="round" d=" M 149.965, 134.121 151.776, 131.342 151.825, 130.999 152.544, 124.151 152.368, 123.056 151.044, 117.282 150.900, 117.042 149.428, 114.421 147.962, 112.459 147.697, 112.113 143.595, 111.020 141.150, 110.485 140.617, 110.677 138.806, 111.327 " />
            <path fill="none" stroke-width="3.0" stroke-linecap="butt" stroke-opacity="1.0" stroke="rgb(0, 0, 0)" stroke-linejoin="round" d=" M 183.519, 125.575 184.777, 123.771 186.518, 121.275 " />
            <path fill="none" stroke-width="3.0" stroke-linecap="butt" stroke-opacity="1.0" stroke="rgb(0, 0, 0)" stroke-linejoin="round" d=" M 185.646, 165.848 187.955, 161.069 190.424, 158.626 191.186, 152.184 191.499, 146.926 190.665, 144.018 189.320, 139.172 188.769, 135.629 185.146, 131.423 183.392, 130.097 " />
        </g>
    </g>
</svg>
