<?xml version='1.0' encoding='ascii'?>
<svg xmlns="http://www.w3.org/2000/svg" version="1.1" width="250" height="250">
    <g id="ViewLayer_LineSet" xmlns:inkscape="http://www.inkscape.org/namespaces/inkscape" inkscape:groupmode="lineset" inkscape:label="ViewLayer_LineSet">
        <g xmlns:inkscape="http://www.inkscape.org/namespaces/inkscape" inkscape:groupmode="layer" id="strokes" inkscape:label="strokes">
            <path fill="none" stroke-width="3.0" stroke-linecap="butt" stroke-opacity="1.0" stroke="rgb(0, 0, 0)" stroke-linejoin="round" d=" M 106.851, 197.609 109.877, 196.451 119.259, 192.860 " />
            <path fill="none" stroke-width="3.0" stroke-linecap="butt" stroke-opacity="1.0" stroke="rgb(0, 0, 0)" stroke-linejoin="round" d=" M 184.550, 103.105 184.549, 103.104 177.741, 95.780 170.932, 88.456 168.284, 85.608 166.867, 85.125 166.320, 84.931 162.084, 83.425 166.296, 84.864 166.320, 84.931 " />
            <path fill="none" stroke-width="3.0" stroke-linecap="butt" stroke-opacity="1.0" stroke="rgb(0, 0, 0)" stroke-linejoin="round" d=" M 188.882, 122.499 194.911, 115.827 196.265, 105.919 197.618, 96.011 198.225, 91.568 197.842, 89.098 197.875, 87.552 195.515, 82.376 191.085, 73.410 186.656, 64.445 182.981, 57.007 179.126, 52.882 172.820, 45.122 166.737, 37.637 164.630, 35.633 163.836, 34.851 154.901, 30.361 145.966, 25.870 144.140, 24.953 142.280, 24.855 132.280, 24.887 122.280, 24.920 112.280, 24.953 103.624, 24.981 102.508, 24.993 101.368, 25.058 92.532, 29.698 83.931, 34.798 82.530, 35.629 81.351, 36.486 75.325, 44.466 69.298, 52.447 69.086, 52.728 63.735, 58.863 59.810, 68.061 55.886, 77.259 52.763, 84.579 52.495, 87.900 52.115, 89.755 52.454, 94.408 54.245, 104.246 56.035, 114.084 56.251, 115.267 60.210, 119.954 65.647, 127.224 65.238, 127.327 " />
            <path fill="none" stroke-width="3.0" stroke-linecap="butt" stroke-opacity="1.0" stroke="rgb(0, 0, 0)" stroke-linejoin="round" d=" M 134.474, 198.018 143.051, 196.960 144.558, 195.574 146.074, 194.179 147.861, 192.536 149.156, 191.344 " />
            <path fill="none" stroke-width="3.0" stroke-linecap="butt" stroke-opacity="1.0" stroke="rgb(0, 0, 0)" stroke-linejoin="round" d=" M 92.573, 190.738 98.353, 196.461 106.590, 197.722 " />
            <path fill="none" stroke-width="3.0" stroke-linecap="butt" stroke-opacity="1.0" stroke="rgb(0, 0, 0)" stroke-linejoin="round" d=" M 77.112, 110.496 81.788, 103.737 86.652, 98.702 95.336, 95.387 104.214, 96.240 " />
            <path fill="none" stroke-width="3.0" stroke-linecap="butt" stroke-opacity="1.0" stroke="rgb(0, 0, 0)" stroke-linejoin="round" d=" M 114.311, 107.526 111.969, 99.907 107.946, 92.142 102.148, 88.168 " />
            <path fill="none" stroke-width="3.0" stroke-linecap="butt" stroke-opacity="1.0" stroke="rgb(0, 0, 0)" stroke-linejoin="round" d=" M 138.151, 96.244 147.680, 95.378 156.841, 98.701 161.981, 103.767 166.895, 110.586 " />
            <path fill="none" stroke-width="3.0" stroke-linecap="butt" stroke-opacity="1.0" stroke="rgb(0, 0, 0)" stroke-linejoin="round" d=" M 135.379, 90.846 129.947, 97.498 127.805, 107.266 127.751, 107.513 " />
            <path fill="none" stroke-width="3.0" stroke-linecap="butt" stroke-opacity="1.0" stroke="rgb(0, 0, 0)" stroke-linejoin="round" d=" M 135.448, 115.027 131.806, 116.415 " />
            <path fill="none" stroke-width="3.0" stroke-linecap="butt" stroke-opacity="1.0" stroke="rgb(0, 0, 0)" stroke-linejoin="round" d=" M 138.743, 143.740 146.064, 142.604 151.169, 137.216 153.625, 129.799 153.718, 119.800 153.724, 119.206 150.292, 110.636 143.780, 105.343 134.464, 106.808 131.917, 112.037 131.806, 116.415 " />
            <path fill="none" stroke-width="3.0" stroke-linecap="butt" stroke-opacity="1.0" stroke="rgb(0, 0, 0)" stroke-linejoin="round" d=" M 111.086, 113.281 108.701, 108.044 99.884, 106.553 93.961, 111.730 90.748, 119.834 90.812, 129.834 90.815, 130.200 92.978, 137.483 97.933, 142.433 100.951, 142.975 " />
            <path fill="none" stroke-width="3.0" stroke-linecap="butt" stroke-opacity="1.0" stroke="rgb(0, 0, 0)" stroke-linejoin="round" d=" M 177.757, 102.926 184.481, 104.087 183.862, 103.511 183.384, 103.317 184.549, 103.106 184.550, 103.105 " />
            <path fill="none" stroke-width="3.0" stroke-linecap="butt" stroke-opacity="1.0" stroke="rgb(0, 0, 0)" stroke-linejoin="round" d=" M 61.022, 121.322 63.312, 124.377 63.572, 127.748 63.772, 130.343 63.874, 131.787 63.572, 132.370 59.229, 141.377 58.187, 143.538 58.347, 148.457 60.032, 152.744 62.500, 154.761 63.051, 158.992 63.053, 164.806 63.056, 171.703 63.121, 172.086 63.145, 172.148 63.237, 172.387 64.006, 173.579 69.516, 181.925 75.099, 190.381 84.331, 194.225 86.747, 195.231 89.202, 198.670 97.155, 202.352 99.749, 203.789 100.278, 204.067 " />
            <path fill="none" stroke-width="3.0" stroke-linecap="butt" stroke-opacity="1.0" stroke="rgb(0, 0, 0)" stroke-linejoin="round" d=" M 98.706, 200.856 99.553, 202.963 99.652, 203.114 100.278, 204.067 101.352, 205.702 103.395, 207.942 110.952, 212.159 120.431, 212.800 122.385, 213.373 123.848, 212.811 133.689, 211.863 140.465, 208.741 143.618, 205.793 143.626, 205.784 145.326, 203.747 145.387, 203.639 146.369, 201.899 " />
            <path fill="none" stroke-width="3.0" stroke-linecap="butt" stroke-opacity="1.0" stroke="rgb(0, 0, 0)" stroke-linejoin="round" d=" M 143.626, 205.784 145.604, 204.795 149.141, 202.733 158.313, 198.749 161.630, 197.308 161.454, 195.658 170.816, 192.354 176.418, 184.069 176.482, 183.974 181.932, 175.589 182.520, 174.684 183.446, 172.604 183.629, 172.014 184.469, 167.415 184.470, 167.407 184.823, 158.930 185.326, 156.452 186.448, 155.741 189.906, 148.683 190.602, 145.140 186.745, 135.932 185.258, 132.947 185.982, 127.940 186.165, 126.668 186.240, 126.158 186.339, 125.478 186.355, 125.366 186.916, 124.658 186.339, 125.478 186.112, 125.800 185.722, 126.874 " />
            <path fill="none" stroke-width="3.0" stroke-linecap="butt" stroke-opacity="1.0" stroke="rgb(0, 0, 0)" stroke-linejoin="round" d=" M 82.375, 81.809 74.099, 85.079 70.913, 86.257 64.874, 94.228 59.903, 100.789 65.159, 101.872 63.450, 102.678 61.736, 104.860 67.586, 103.528 " />
            <path fill="none" stroke-width="3.0" stroke-linecap="butt" stroke-opacity="1.0" stroke="rgb(0, 0, 0)" stroke-linejoin="round" d=" M 147.861, 192.536 149.952, 191.830 149.295, 194.476 146.074, 194.179 " />
            <path fill="none" stroke-width="3.0" stroke-linecap="butt" stroke-opacity="1.0" stroke="rgb(0, 0, 0)" stroke-linejoin="round" d=" M 106.594, 140.015 106.683, 139.761 106.771, 139.880 110.178, 139.293 114.023, 138.630 110.137, 139.355 106.594, 140.015 104.422, 140.420 102.824, 141.597 102.603, 141.760 100.951, 142.975 98.349, 144.891 92.100, 148.747 89.367, 155.696 86.125, 159.025 86.148, 159.101 86.121, 159.151 86.015, 160.537 85.388, 168.724 85.392, 168.774 85.646, 171.693 86.192, 177.984 86.616, 178.159 87.332, 178.682 91.471, 184.111 94.275, 186.845 96.577, 189.090 96.861, 189.402 98.630, 189.926 98.973, 190.027 100.531, 190.489 101.976, 190.916 105.011, 191.559 114.961, 192.565 117.862, 192.859 118.568, 192.930 119.259, 192.860 119.956, 192.788 122.171, 192.563 130.867, 191.676 136.949, 189.820 141.156, 187.127 142.321, 185.725 144.994, 182.504 148.060, 178.812 149.970, 173.271 151.279, 166.680 150.638, 162.931 150.453, 161.850 148.747, 158.694 145.870, 149.117 145.749, 148.713 140.940, 145.606 138.743, 143.740 137.908, 143.031 137.907, 143.030 134.753, 140.351 134.244, 140.255 128.633, 139.193 128.570, 139.181 128.632, 139.191 134.144, 140.056 134.244, 140.255 135.088, 141.934 " />
            <path fill="none" stroke-width="3.0" stroke-linecap="butt" stroke-opacity="1.0" stroke="rgb(0, 0, 0)" stroke-linejoin="round" d=" M 63.572, 127.748 62.513, 128.015 62.060, 128.196 58.047, 132.856 57.536, 135.860 56.194, 140.996 55.456, 143.954 55.939, 149.187 56.862, 155.581 59.521, 158.366 63.053, 164.806 " />
            <path fill="none" stroke-width="3.0" stroke-linecap="butt" stroke-opacity="1.0" stroke="rgb(0, 0, 0)" stroke-linejoin="round" d=" M 86.015, 160.537 83.387, 159.417 79.254, 154.835 73.487, 146.665 72.845, 145.756 70.939, 149.808 69.571, 152.536 67.281, 157.104 67.085, 160.542 66.884, 162.887 67.348, 164.916 67.690, 166.407 68.325, 168.797 69.611, 172.814 70.700, 174.591 75.474, 176.513 77.991, 178.283 79.345, 181.006 81.025, 184.977 83.951, 188.109 85.274, 189.471 88.379, 190.046 92.248, 190.244 92.644, 190.577 96.283, 193.638 97.155, 195.274 " />
            <path fill="none" stroke-width="3.0" stroke-linecap="butt" stroke-opacity="1.0" stroke="rgb(0, 0, 0)" stroke-linejoin="round" d=" M 105.602, 97.532 108.405, 100.356 110.270, 102.285 " />
            <path fill="none" stroke-width="3.0" stroke-linecap="butt" stroke-opacity="1.0" stroke="rgb(0, 0, 0)" stroke-linejoin="round" d=" M 106.693, 114.762 106.110, 114.621 103.331, 115.519 99.849, 116.879 99.301, 117.804 96.526, 122.294 96.503, 122.569 95.945, 129.356 97.447, 135.805 97.599, 136.420 100.513, 140.082 101.887, 141.586 102.603, 141.760 " />
            <path fill="none" stroke-width="3.0" stroke-linecap="butt" stroke-opacity="1.0" stroke="rgb(0, 0, 0)" stroke-linejoin="round" d=" M 109.877, 196.451 112.552, 197.832 122.532, 198.471 123.193, 198.513 129.688, 198.990 133.435, 197.558 " />
            <path fill="none" stroke-width="3.0" stroke-linecap="butt" stroke-opacity="1.0" stroke="rgb(0, 0, 0)" stroke-linejoin="round" d=" M 132.330, 101.630 133.224, 100.622 135.334, 98.732 " />
            <path fill="none" stroke-width="3.0" stroke-linecap="butt" stroke-opacity="1.0" stroke="rgb(0, 0, 0)" stroke-linejoin="round" d=" M 137.908, 143.031 140.538, 142.182 142.703, 141.356 143.948, 139.586 146.378, 135.894 146.578, 134.558 147.250, 128.677 146.278, 122.666 146.085, 121.599 143.297, 117.940 142.256, 116.592 139.027, 115.753 135.654, 114.978 135.485, 115.038 134.366, 115.439 " />
            <path fill="none" stroke-width="3.0" stroke-linecap="butt" stroke-opacity="1.0" stroke="rgb(0, 0, 0)" stroke-linejoin="round" d=" M 144.558, 195.574 146.139, 193.978 147.419, 192.685 149.024, 191.064 149.208, 190.878 153.025, 190.770 156.373, 190.224 158.973, 187.440 160.669, 185.776 162.258, 182.168 163.793, 179.091 169.313, 176.922 171.579, 175.459 172.745, 172.015 174.362, 169.813 175.204, 166.516 175.974, 163.833 175.804, 160.726 175.565, 157.966 171.557, 150.203 169.726, 146.458 166.275, 149.799 160.036, 157.614 158.165, 159.957 150.638, 162.931 " />
            <path fill="none" stroke-width="3.0" stroke-linecap="butt" stroke-opacity="1.0" stroke="rgb(0, 0, 0)" stroke-linejoin="round" d=" M 166.622, 103.865 166.711, 101.757 163.440, 96.040 162.978, 95.344 162.827, 95.260 " />
            <path fill="none" stroke-width="3.0" stroke-linecap="butt" stroke-opacity="1.0" stroke="rgb(0, 0, 0)" stroke-linejoin="round" d=" M 184.469, 167.415 184.754, 167.528 186.308, 167.196 187.803, 166.317 192.358, 159.363 194.893, 157.008 196.252, 149.887 196.713, 145.275 195.871, 141.684 194.053, 135.695 193.352, 133.073 189.462, 128.882 188.075, 128.394 185.982, 127.940 " />
            <path fill="none" stroke-width="3.0" stroke-linecap="butt" stroke-opacity="1.0" stroke="rgb(0, 0, 0)" stroke-linejoin="round" d=" M 186.240, 126.158 188.882, 122.499 " />
        </g>
    </g>
</svg>
