<?xml version='1.0' encoding='ascii'?>
<svg xmlns="http://www.w3.org/2000/svg" version="1.1" width="250" height="250">
    <g id="ViewLayer_LineSet" xmlns:inkscape="http://www.inkscape.org/namespaces/inkscape" inkscape:groupmode="lineset" inkscape:label="ViewLayer_LineSet">
        <g xmlns:inkscape="http://www.inkscape.org/namespaces/inkscape" inkscape:groupmode="layer" id="strokes" inkscape:label="strokes">
            <path fill="none" stroke-width="3.0" stroke-linecap="butt" stroke-opacity="1.0" stroke="rgb(0, 0, 0)" stroke-linejoin="round" d=" M 135.866, 119.069 139.309, 116.302 142.328, 112.939 144.009, 111.209 148.498, 110.233 " />
            <path fill="none" stroke-width="3.0" stroke-linecap="butt" stroke-opacity="1.0" stroke="rgb(0, 0, 0)" stroke-linejoin="round" d=" M 108.279, 126.769 105.648, 127.539 103.997, 128.095 102.432, 130.417 100.462, 133.254 100.274, 134.947 99.717, 140.023 101.138, 146.442 101.222, 146.806 104.638, 151.245 105.091, 151.775 109.146, 152.823 111.287, 153.287 111.674, 153.371 114.771, 152.398 " />
            <path fill="none" stroke-width="3.0" stroke-linecap="butt" stroke-opacity="1.0" stroke="rgb(0, 0, 0)" stroke-linejoin="round" d=" M 187.220, 116.376 181.680, 112.370 181.210, 112.274 181.155, 112.242 180.823, 112.049 " />
            <path fill="none" stroke-width="3.0" stroke-linecap="butt" stroke-opacity="1.0" stroke="rgb(0, 0, 0)" stroke-linejoin="round" d=" M 188.726, 114.782 191.993, 111.119 194.744, 101.505 197.445, 92.067 198.252, 88.271 198.177, 87.505 198.285, 86.463 194.219, 77.327 190.152, 68.191 186.086, 59.055 185.921, 58.683 184.291, 56.757 181.192, 52.523 173.782, 45.808 170.542, 42.871 164.579, 37.443 155.595, 33.052 152.494, 31.536 142.500, 31.202 141.858, 31.180 131.859, 31.117 121.859, 31.054 119.561, 31.039 109.561, 30.958 108.809, 30.952 98.812, 31.171 97.638, 31.197 88.555, 35.380 86.492, 36.331 78.836, 42.764 78.617, 42.947 70.997, 49.423 63.378, 55.898 63.161, 56.167 63.054, 56.282 61.825, 58.681 57.367, 67.633 52.910, 76.584 48.455, 85.531 48.538, 87.715 47.949, 90.017 50.303, 99.736 52.657, 109.455 52.994, 110.845 58.252, 116.750 62.848, 121.845 61.839, 121.496 " />
            <path fill="none" stroke-width="3.0" stroke-linecap="butt" stroke-opacity="1.0" stroke="rgb(0, 0, 0)" stroke-linejoin="round" d=" M 63.804, 116.813 71.164, 114.197 68.517, 114.050 66.961, 114.734 64.316, 115.898 67.927, 113.370 68.717, 113.578 66.961, 114.734 63.804, 116.813 " />
            <path fill="none" stroke-width="3.0" stroke-linecap="butt" stroke-opacity="1.0" stroke="rgb(0, 0, 0)" stroke-linejoin="round" d=" M 138.351, 119.108 138.409, 118.969 138.419, 118.967 138.468, 118.959 147.596, 116.665 147.834, 116.805 148.335, 117.101 149.322, 117.871 " />
            <path fill="none" stroke-width="3.0" stroke-linecap="butt" stroke-opacity="1.0" stroke="rgb(0, 0, 0)" stroke-linejoin="round" d=" M 145.045, 160.695 145.046, 160.696 145.368, 161.276 148.726, 165.920 151.387, 175.559 151.614, 176.381 " />
            <path fill="none" stroke-width="3.0" stroke-linecap="butt" stroke-opacity="1.0" stroke="rgb(0, 0, 0)" stroke-linejoin="round" d=" M 80.225, 122.695 85.027, 116.530 90.125, 112.116 " />
            <path fill="none" stroke-width="3.0" stroke-linecap="butt" stroke-opacity="1.0" stroke="rgb(0, 0, 0)" stroke-linejoin="round" d=" M 119.352, 123.421 117.161, 116.536 112.797, 108.136 " />
            <path fill="none" stroke-width="3.0" stroke-linecap="butt" stroke-opacity="1.0" stroke="rgb(0, 0, 0)" stroke-linejoin="round" d=" M 161.143, 111.568 165.913, 115.968 170.353, 122.034 " />
            <path fill="none" stroke-width="3.0" stroke-linecap="butt" stroke-opacity="1.0" stroke="rgb(0, 0, 0)" stroke-linejoin="round" d=" M 135.199, 113.579 132.716, 122.876 " />
            <path fill="none" stroke-width="3.0" stroke-linecap="butt" stroke-opacity="1.0" stroke="rgb(0, 0, 0)" stroke-linejoin="round" d=" M 139.219, 126.720 135.714, 128.368 " />
            <path fill="none" stroke-width="3.0" stroke-linecap="butt" stroke-opacity="1.0" stroke="rgb(0, 0, 0)" stroke-linejoin="round" d=" M 138.419, 118.967 135.871, 124.259 135.714, 128.368 " />
            <path fill="none" stroke-width="3.0" stroke-linecap="butt" stroke-opacity="1.0" stroke="rgb(0, 0, 0)" stroke-linejoin="round" d=" M 96.740, 121.614 93.428, 128.952 93.628, 138.707 96.089, 146.043 101.141, 150.735 110.661, 153.796 110.783, 153.836 " />
            <path fill="none" stroke-width="3.0" stroke-linecap="butt" stroke-opacity="1.0" stroke="rgb(0, 0, 0)" stroke-linejoin="round" d=" M 115.022, 125.745 112.482, 120.333 " />
            <path fill="none" stroke-width="3.0" stroke-linecap="butt" stroke-opacity="1.0" stroke="rgb(0, 0, 0)" stroke-linejoin="round" d=" M 146.600, 150.732 148.344, 150.121 153.448, 145.133 155.973, 137.977 156.523, 128.453 153.578, 120.919 " />
            <path fill="none" stroke-width="3.0" stroke-linecap="butt" stroke-opacity="1.0" stroke="rgb(0, 0, 0)" stroke-linejoin="round" d=" M 177.427, 113.322 186.974, 116.299 187.220, 116.376 " />
            <path fill="none" stroke-width="3.0" stroke-linecap="butt" stroke-opacity="1.0" stroke="rgb(0, 0, 0)" stroke-linejoin="round" d=" M 61.839, 121.496 58.200, 117.641 61.106, 121.242 61.294, 121.476 61.959, 125.596 62.696, 130.352 61.649, 133.395 58.640, 142.931 58.282, 144.064 58.758, 148.698 60.946, 153.495 63.620, 156.216 63.861, 157.184 64.831, 161.081 65.422, 171.063 65.563, 173.441 65.591, 173.554 65.599, 173.572 65.625, 173.642 65.724, 173.787 71.452, 181.984 76.403, 189.071 85.885, 192.151 " />
            <path fill="none" stroke-width="3.0" stroke-linecap="butt" stroke-opacity="1.0" stroke="rgb(0, 0, 0)" stroke-linejoin="round" d=" M 161.412, 195.390 165.636, 193.202 172.704, 188.296 177.170, 179.349 178.565, 176.554 181.339, 171.675 182.224, 162.210 183.106, 155.318 185.271, 152.555 187.181, 148.273 187.339, 147.921 188.449, 143.348 184.998, 133.962 184.089, 131.492 183.302, 129.716 183.640, 127.146 184.546, 121.032 184.553, 120.982 189.046, 115.317 182.751, 121.558 " />
            <path fill="none" stroke-width="3.0" stroke-linecap="butt" stroke-opacity="1.0" stroke="rgb(0, 0, 0)" stroke-linejoin="round" d=" M 99.810, 177.141 102.302, 167.456 102.905, 165.112 103.648, 164.159 105.363, 161.957 105.494, 161.463 105.520, 161.770 103.835, 164.006 103.648, 164.159 102.172, 165.364 99.271, 174.934 98.737, 176.693 97.969, 179.226 96.684, 182.636 94.240, 189.368 94.424, 192.270 95.554, 196.175 96.517, 199.504 96.854, 200.668 98.515, 201.881 105.595, 207.052 106.701, 207.947 109.179, 209.952 111.686, 210.465 113.952, 210.929 121.842, 211.752 131.841, 211.594 132.395, 211.586 134.564, 211.300 140.000, 210.584 144.554, 209.550 148.470, 206.018 156.405, 199.933 156.503, 199.858 157.134, 198.430 157.607, 197.361 159.241, 193.663 159.302, 189.581 157.184, 181.849 154.975, 178.299 153.943, 175.350 150.804, 166.379 147.976, 164.112 145.045, 160.694 145.045, 160.694 " />
            <path fill="none" stroke-width="3.0" stroke-linecap="butt" stroke-opacity="1.0" stroke="rgb(0, 0, 0)" stroke-linejoin="round" d=" M 61.106, 121.242 61.026, 121.215 56.928, 121.648 54.981, 124.045 54.572, 125.377 52.793, 132.023 52.199, 135.344 52.912, 140.067 54.399, 146.506 57.492, 149.864 62.489, 157.075 63.861, 157.184 " />
            <path fill="none" stroke-width="3.0" stroke-linecap="butt" stroke-opacity="1.0" stroke="rgb(0, 0, 0)" stroke-linejoin="round" d=" M 98.737, 176.693 89.508, 172.843 89.309, 172.759 86.392, 169.607 80.602, 161.454 77.906, 157.659 77.511, 158.497 73.127, 167.485 72.408, 168.960 72.376, 171.719 72.288, 174.308 73.215, 177.434 74.027, 179.822 75.839, 184.353 76.675, 185.606 82.037, 187.669 84.216, 189.160 85.425, 191.230 85.885, 192.151 87.297, 194.976 90.933, 198.424 91.596, 199.025 92.863, 199.244 96.517, 199.504 " />
            <path fill="none" stroke-width="3.0" stroke-linecap="butt" stroke-opacity="1.0" stroke="rgb(0, 0, 0)" stroke-linejoin="round" d=" M 101.754, 118.635 102.929, 117.943 103.047, 117.868 103.124, 117.818 103.128, 117.819 104.136, 118.080 " />
            <path fill="none" stroke-width="3.0" stroke-linecap="butt" stroke-opacity="1.0" stroke="rgb(0, 0, 0)" stroke-linejoin="round" d=" M 104.283, 110.864 108.339, 111.680 109.784, 113.250 113.035, 116.752 116.272, 119.591 " />
            <path fill="none" stroke-width="3.0" stroke-linecap="butt" stroke-opacity="1.0" stroke="rgb(0, 0, 0)" stroke-linejoin="round" d=" M 111.686, 210.465 113.334, 211.297 114.854, 212.045 122.602, 213.384 124.215, 213.583 125.848, 213.336 133.450, 211.806 134.564, 211.300 " />
            <path fill="none" stroke-width="3.0" stroke-linecap="butt" stroke-opacity="1.0" stroke="rgb(0, 0, 0)" stroke-linejoin="round" d=" M 137.053, 152.862 139.315, 153.282 140.187, 153.445 142.179, 152.780 146.403, 150.980 146.478, 150.923 146.495, 150.913 146.600, 150.732 149.428, 145.874 149.553, 145.677 150.186, 142.755 150.604, 139.008 149.624, 133.528 149.409, 132.472 147.052, 129.777 145.384, 127.918 143.659, 127.586 141.882, 127.259 " />
            <path fill="none" stroke-width="3.0" stroke-linecap="butt" stroke-opacity="1.0" stroke="rgb(0, 0, 0)" stroke-linejoin="round" d=" M 157.134, 198.430 157.817, 198.365 158.700, 198.183 161.412, 195.390 161.868, 194.920 162.766, 194.089 164.750, 190.131 165.883, 188.228 172.353, 185.318 173.369, 184.576 174.709, 180.552 175.792, 179.071 176.883, 175.493 177.549, 173.535 177.570, 170.502 177.526, 168.235 173.297, 159.174 172.978, 158.491 172.399, 157.200 171.531, 158.128 165.679, 166.237 161.525, 171.993 153.943, 175.350 " />
            <path fill="none" stroke-width="3.0" stroke-linecap="butt" stroke-opacity="1.0" stroke="rgb(0, 0, 0)" stroke-linejoin="round" d=" M 170.335, 116.328 170.698, 113.876 168.013, 109.362 " />
            <path fill="none" stroke-width="3.0" stroke-linecap="butt" stroke-opacity="1.0" stroke="rgb(0, 0, 0)" stroke-linejoin="round" d=" M 187.181, 148.273 189.426, 145.718 190.825, 139.659 191.606, 134.682 191.055, 131.695 189.583, 125.590 189.308, 124.120 187.157, 121.336 184.546, 121.032 " />
        </g>
    </g>
</svg>
