<?xml version='1.0' encoding='ascii'?>
<svg xmlns="http://www.w3.org/2000/svg" version="1.1" width="250" height="250">
    <g id="ViewLayer_LineSet" xmlns:inkscape="http://www.inkscape.org/namespaces/inkscape" inkscape:groupmode="lineset" inkscape:label="ViewLayer_LineSet">
        <g xmlns:inkscape="http://www.inkscape.org/namespaces/inkscape" inkscape:groupmode="layer" id="strokes" inkscape:label="strokes">
            <path fill="none" stroke-width="3.0" stroke-linecap="butt" stroke-opacity="1.0" stroke="rgb(0, 0, 0)" stroke-linejoin="round" d=" M 162.764, 189.168 167.698, 183.298 171.318, 182.980 173.965, 182.317 176.539, 178.879 177.553, 177.639 179.013, 173.197 179.978, 170.851 185.254, 168.129 185.266, 168.118 186.350, 167.197 187.057, 163.169 187.794, 161.770 188.402, 157.560 188.677, 155.969 188.247, 151.783 188.053, 150.300 186.570, 147.456 185.545, 145.490 182.752, 139.657 181.997, 140.602 179.642, 143.544 179.213, 144.286 " />
            <path fill="none" stroke-width="3.0" stroke-linecap="butt" stroke-opacity="1.0" stroke="rgb(0, 0, 0)" stroke-linejoin="round" d=" M 131.646, 191.155 139.770, 187.357 141.584, 186.508 141.982, 186.473 142.700, 186.225 142.950, 186.300 " />
            <path fill="none" stroke-width="3.0" stroke-linecap="butt" stroke-opacity="1.0" stroke="rgb(0, 0, 0)" stroke-linejoin="round" d=" M 193.400, 91.522 190.450, 81.967 189.962, 80.385 185.616, 78.311 182.336, 76.744 173.579, 71.916 169.455, 69.642 167.877, 69.588 157.881, 69.279 151.740, 69.090 " />
            <path fill="none" stroke-width="3.0" stroke-linecap="butt" stroke-opacity="1.0" stroke="rgb(0, 0, 0)" stroke-linejoin="round" d=" M 182.872, 117.115 183.865, 115.696 185.261, 109.336 186.229, 99.383 186.703, 94.505 " />
            <path fill="none" stroke-width="3.0" stroke-linecap="butt" stroke-opacity="1.0" stroke="rgb(0, 0, 0)" stroke-linejoin="round" d=" M 111.815, 187.627 114.673, 189.863 115.120, 190.213 118.585, 192.924 126.645, 193.239 127.669, 193.279 " />
            <path fill="none" stroke-width="3.0" stroke-linecap="butt" stroke-opacity="1.0" stroke="rgb(0, 0, 0)" stroke-linejoin="round" d=" M 147.064, 188.075 153.478, 190.842 154.782, 191.405 162.111, 189.966 " />
            <path fill="none" stroke-width="3.0" stroke-linecap="butt" stroke-opacity="1.0" stroke="rgb(0, 0, 0)" stroke-linejoin="round" d=" M 89.450, 97.946 89.383, 106.448 94.512, 99.372 99.920, 94.085 109.282, 90.570 109.660, 90.428 119.594, 90.947 125.252, 95.293 130.517, 101.884 128.507, 94.182 123.511, 86.790 116.913, 83.076 " />
            <path fill="none" stroke-width="3.0" stroke-linecap="butt" stroke-opacity="1.0" stroke="rgb(0, 0, 0)" stroke-linejoin="round" d=" M 151.459, 91.339 159.102, 90.952 166.459, 94.558 170.813, 99.560 175.064, 106.188 " />
            <path fill="none" stroke-width="3.0" stroke-linecap="butt" stroke-opacity="1.0" stroke="rgb(0, 0, 0)" stroke-linejoin="round" d=" M 149.141, 85.953 144.914, 92.133 142.846, 101.917 142.824, 102.024 " />
            <path fill="none" stroke-width="3.0" stroke-linecap="butt" stroke-opacity="1.0" stroke="rgb(0, 0, 0)" stroke-linejoin="round" d=" M 115.711, 138.117 116.402, 138.243 120.797, 139.041 " />
            <path fill="none" stroke-width="3.0" stroke-linecap="butt" stroke-opacity="1.0" stroke="rgb(0, 0, 0)" stroke-linejoin="round" d=" M 146.863, 110.567 143.999, 111.770 " />
            <path fill="none" stroke-width="3.0" stroke-linecap="butt" stroke-opacity="1.0" stroke="rgb(0, 0, 0)" stroke-linejoin="round" d=" M 124.123, 108.831 121.211, 103.775 111.277, 102.729 104.145, 108.448 100.590, 116.897 100.824, 126.895 100.839, 127.528 103.847, 134.725 109.181, 139.581 119.251, 140.173 " />
            <path fill="none" stroke-width="3.0" stroke-linecap="butt" stroke-opacity="1.0" stroke="rgb(0, 0, 0)" stroke-linejoin="round" d=" M 160.373, 131.237 161.649, 125.659 161.701, 115.659 161.703, 115.240 158.815, 106.780 153.306, 101.447 145.730, 102.518 " />
            <path fill="none" stroke-width="3.0" stroke-linecap="butt" stroke-opacity="1.0" stroke="rgb(0, 0, 0)" stroke-linejoin="round" d=" M 179.672, 102.741 184.597, 102.764 184.517, 98.027 182.535, 96.361 186.703, 94.505 193.400, 91.522 " />
            <path fill="none" stroke-width="3.0" stroke-linecap="butt" stroke-opacity="1.0" stroke="rgb(0, 0, 0)" stroke-linejoin="round" d=" M 69.463, 180.390 67.064, 172.624 " />
            <path fill="none" stroke-width="3.0" stroke-linecap="butt" stroke-opacity="1.0" stroke="rgb(0, 0, 0)" stroke-linejoin="round" d=" M 67.176, 158.613 63.796, 162.458 65.629, 169.068 66.104, 171.671 66.142, 171.879 66.612, 173.307 68.807, 179.973 69.503, 182.085 73.271, 187.485 81.085, 193.724 81.684, 194.202 89.421, 200.538 92.370, 202.952 99.930, 206.563 108.851, 211.080 109.548, 211.433 111.474, 212.040 121.350, 213.612 122.398, 213.779 128.511, 215.846 134.847, 212.924 " />
            <path fill="none" stroke-width="3.0" stroke-linecap="butt" stroke-opacity="1.0" stroke="rgb(0, 0, 0)" stroke-linejoin="round" d=" M 186.570, 147.456 186.772, 146.621 187.188, 140.720 184.535, 137.005 178.583, 129.888 177.930, 126.454 179.433, 126.893 178.988, 123.684 182.826, 117.561 179.412, 122.056 182.872, 117.115 " />
            <path fill="none" stroke-width="3.0" stroke-linecap="butt" stroke-opacity="1.0" stroke="rgb(0, 0, 0)" stroke-linejoin="round" d=" M 108.543, 72.561 99.122, 75.914 96.470, 76.858 94.937, 77.365 90.531, 81.583 83.502, 88.696 76.473, 95.810 74.712, 97.593 76.662, 98.652 " />
            <path fill="none" stroke-width="3.0" stroke-linecap="butt" stroke-opacity="1.0" stroke="rgb(0, 0, 0)" stroke-linejoin="round" d=" M 114.673, 189.863 115.450, 191.696 115.120, 190.213 " />
            <path fill="none" stroke-width="3.0" stroke-linecap="butt" stroke-opacity="1.0" stroke="rgb(0, 0, 0)" stroke-linejoin="round" d=" M 60.014, 136.695 59.258, 135.038 58.588, 131.878 60.094, 136.405 60.014, 136.695 58.291, 142.940 57.093, 147.830 57.356, 150.073 60.985, 155.962 65.626, 153.219 66.884, 151.748 " />
            <path fill="none" stroke-width="3.0" stroke-linecap="butt" stroke-opacity="1.0" stroke="rgb(0, 0, 0)" stroke-linejoin="round" d=" M 128.315, 174.291 136.380, 180.203 137.380, 180.936 140.677, 181.827 143.556, 182.077 145.456, 182.242 148.609, 182.516 148.696, 182.503 155.834, 181.420 159.867, 180.809 165.227, 179.710 170.054, 178.722 171.614, 177.994 171.948, 177.468 177.766, 169.335 180.527, 165.475 181.690, 157.587 181.848, 156.517 180.774, 149.168 179.213, 144.286 177.751, 139.715 177.111, 138.487 175.169, 136.776 174.844, 136.489 166.043, 132.877 163.125, 131.578 160.373, 131.237 157.274, 130.853 155.740, 130.663 151.563, 130.146 144.510, 129.468 144.485, 129.466 144.366, 129.455 141.288, 129.930 140.317, 130.135 130.533, 132.204 129.672, 132.386 127.769, 132.789 127.719, 132.836 121.478, 138.629 121.432, 138.661 120.865, 139.054 120.732, 139.146 119.251, 140.173 118.371, 140.782 117.913, 143.170 116.031, 152.991 115.345, 156.568 115.316, 156.795 115.260, 157.259 115.251, 157.331 115.324, 157.723 115.778, 158.839 115.260, 157.259 115.191, 157.049 116.858, 147.189 117.489, 143.456 117.913, 143.170 121.646, 140.647 120.892, 139.409 120.732, 139.146 120.714, 139.117 120.797, 139.041 121.835, 138.103 127.659, 132.839 127.719, 132.836 128.005, 132.821 129.617, 132.494 139.418, 130.507 140.350, 130.318 " />
            <path fill="none" stroke-width="3.0" stroke-linecap="butt" stroke-opacity="1.0" stroke="rgb(0, 0, 0)" stroke-linejoin="round" d=" M 66.612, 173.307 64.803, 176.035 68.747, 179.918 68.807, 179.973 " />
            <path fill="none" stroke-width="3.0" stroke-linecap="butt" stroke-opacity="1.0" stroke="rgb(0, 0, 0)" stroke-linejoin="round" d=" M 123.857, 161.798 117.417, 159.718 107.908, 156.622 102.710, 154.929 96.028, 149.437 89.178, 142.152 89.065, 142.031 87.211, 145.756 82.889, 154.099 82.780, 156.661 82.477, 160.236 83.165, 162.642 84.433, 166.349 85.727, 169.119 88.048, 172.129 92.308, 173.365 96.301, 175.484 98.322, 179.485 99.654, 182.343 102.034, 184.539 104.458, 186.710 109.556, 187.244 112.044, 187.133 112.096, 187.130 114.013, 188.308 114.804, 188.793 115.078, 188.962 114.958, 189.486 114.841, 189.995 " />
            <path fill="none" stroke-width="3.0" stroke-linecap="butt" stroke-opacity="1.0" stroke="rgb(0, 0, 0)" stroke-linejoin="round" d=" M 123.970, 111.687 118.201, 110.449 115.437, 111.599 112.253, 113.064 111.087, 115.340 109.279, 118.720 109.181, 121.877 109.042, 125.914 110.038, 129.406 111.104, 133.015 112.632, 134.779 115.650, 138.093 115.698, 138.102 115.923, 138.144 116.402, 138.243 " />
            <path fill="none" stroke-width="3.0" stroke-linecap="butt" stroke-opacity="1.0" stroke="rgb(0, 0, 0)" stroke-linejoin="round" d=" M 126.645, 193.239 127.154, 193.601 130.177, 195.035 136.528, 194.762 146.462, 194.341 153.478, 190.842 " />
            <path fill="none" stroke-width="3.0" stroke-linecap="butt" stroke-opacity="1.0" stroke="rgb(0, 0, 0)" stroke-linejoin="round" d=" M 134.847, 212.924 136.264, 210.877 144.924, 210.104 150.542, 207.356 154.273, 204.648 160.049, 200.108 160.143, 199.973 159.935, 199.456 158.160, 195.166 163.814, 191.930 172.683, 187.312 180.194, 183.401 182.515, 179.743 184.266, 171.460 185.266, 168.118 " />
            <path fill="none" stroke-width="3.0" stroke-linecap="butt" stroke-opacity="1.0" stroke="rgb(0, 0, 0)" stroke-linejoin="round" d=" M 143.999, 111.770 143.886, 107.870 143.876, 107.396 143.872, 107.252 144.049, 106.939 " />
            <path fill="none" stroke-width="3.0" stroke-linecap="butt" stroke-opacity="1.0" stroke="rgb(0, 0, 0)" stroke-linejoin="round" d=" M 143.405, 186.437 144.242, 186.690 147.064, 188.075 " />
            <path fill="none" stroke-width="3.0" stroke-linecap="butt" stroke-opacity="1.0" stroke="rgb(0, 0, 0)" stroke-linejoin="round" d=" M 157.274, 130.853 157.429, 130.508 157.744, 124.785 157.824, 123.758 157.600, 122.748 156.384, 117.355 155.941, 116.563 153.721, 112.211 153.492, 112.098 152.867, 111.561 149.672, 110.782 147.469, 110.393 146.930, 110.594 145.761, 111.030 " />
            <path fill="none" stroke-width="3.0" stroke-linecap="butt" stroke-opacity="1.0" stroke="rgb(0, 0, 0)" stroke-linejoin="round" d=" M 146.334, 97.098 148.577, 94.814 150.774, 92.055 " />
            <path fill="none" stroke-width="3.0" stroke-linecap="butt" stroke-opacity="1.0" stroke="rgb(0, 0, 0)" stroke-linejoin="round" d=" M 185.616, 78.311 185.128, 70.028 182.794, 62.571 176.805, 54.564 174.143, 51.006 168.728, 42.599 168.004, 41.475 161.520, 36.205 153.271, 30.552 148.165, 27.053 144.979, 26.826 135.015, 25.980 125.050, 25.134 115.086, 24.288 108.189, 23.703 107.620, 23.625 103.016, 25.622 94.057, 30.066 86.908, 33.611 84.879, 35.488 77.485, 42.221 76.877, 42.774 70.081, 50.110 67.576, 52.814 65.560, 54.700 60.408, 63.370 55.653, 72.167 50.898, 80.964 48.542, 85.323 47.770, 93.622 45.675, 103.400 44.360, 109.539 44.752, 119.531 44.777, 120.152 52.216, 126.834 55.679, 129.945 56.659, 131.487 54.841, 131.952 51.979, 132.905 47.637, 137.180 46.581, 139.822 44.071, 147.019 43.093, 151.777 43.564, 155.308 45.636, 163.958 47.451, 165.259 50.612, 169.008 57.101, 172.051 63.808, 172.644 66.104, 171.671 " />
        </g>
    </g>
</svg>
