<?xml version='1.0' encoding='ascii'?>
<svg xmlns="http://www.w3.org/2000/svg" version="1.1" width="250" height="250">
    <g id="ViewLayer_LineSet" xmlns:inkscape="http://www.inkscape.org/namespaces/inkscape" inkscape:groupmode="lineset" inkscape:label="ViewLayer_LineSet">
        <g xmlns:inkscape="http://www.inkscape.org/namespaces/inkscape" inkscape:groupmode="layer" id="strokes" inkscape:label="strokes">
            <path fill="none" stroke-width="3.0" stroke-linecap="butt" stroke-opacity="1.0" stroke="rgb(0, 0, 0)" stroke-linejoin="round" d=" M 157.809, 187.341 161.504, 183.137 162.033, 182.535 165.305, 182.375 168.854, 181.627 171.314, 178.567 172.727, 176.952 174.188, 172.906 175.425, 170.084 179.686, 168.186 180.620, 167.770 182.342, 166.508 183.182, 162.863 184.268, 161.050 184.921, 157.233 185.330, 155.166 184.928, 151.301 184.670, 149.366 181.732, 143.898 179.036, 138.452 178.083, 139.488 175.266, 142.548 171.943, 147.459 " />
            <path fill="none" stroke-width="3.0" stroke-linecap="butt" stroke-opacity="1.0" stroke="rgb(0, 0, 0)" stroke-linejoin="round" d=" M 141.540, 94.704 142.843, 93.280 144.526, 91.648 " />
            <path fill="none" stroke-width="3.0" stroke-linecap="butt" stroke-opacity="1.0" stroke="rgb(0, 0, 0)" stroke-linejoin="round" d=" M 189.639, 92.973 189.638, 92.972 185.688, 83.786 182.812, 77.099 175.604, 73.864 166.682, 69.347 160.729, 66.333 158.753, 66.294 148.755, 66.086 138.757, 65.879 135.858, 65.818 125.858, 65.716 115.859, 65.614 110.879, 65.563 110.298, 65.555 101.014, 69.270 91.729, 72.985 89.509, 73.874 85.303, 75.417 78.922, 83.116 74.738, 88.164 68.680, 96.120 68.185, 96.770 72.487, 98.692 78.103, 92.418 83.605, 87.308 88.272, 78.464 90.353, 74.521 99.504, 70.488 108.655, 66.456 110.003, 65.863 120.002, 65.942 130.002, 66.022 134.691, 66.059 135.186, 65.988 135.627, 65.941 136.096, 66.027 136.789, 66.203 146.767, 66.860 156.745, 67.517 159.356, 67.689 167.155, 73.947 168.403, 74.949 167.900, 83.764 172.554, 91.071 178.309, 99.249 179.626, 101.121 186.282, 100.118 185.510, 97.057 183.984, 95.961 189.637, 92.975 189.638, 92.975 " />
            <path fill="none" stroke-width="3.0" stroke-linecap="butt" stroke-opacity="1.0" stroke="rgb(0, 0, 0)" stroke-linejoin="round" d=" M 185.140, 120.412 187.716, 117.275 189.329, 107.406 190.181, 102.194 190.583, 92.526 189.714, 87.645 188.497, 77.719 188.428, 77.156 184.885, 67.805 182.277, 60.922 175.956, 53.173 174.317, 51.164 168.521, 43.015 166.239, 39.807 160.651, 35.669 152.161, 30.386 146.240, 26.701 142.744, 26.618 132.754, 26.165 122.764, 25.713 112.774, 25.261 107.325, 25.014 105.156, 24.828 96.181, 29.238 87.206, 33.648 85.423, 34.523 84.399, 35.137 77.856, 42.700 71.314, 50.262 69.506, 52.353 65.101, 56.799 60.423, 65.637 55.744, 74.475 54.231, 77.333 49.887, 86.341 49.126, 87.919 48.993, 92.068 47.649, 100.436 48.324, 110.413 48.978, 120.065 56.326, 126.848 57.127, 127.588 59.646, 131.426 55.846, 132.550 55.699, 132.606 50.824, 137.690 49.828, 140.840 47.799, 147.142 46.836, 151.233 47.271, 155.387 48.767, 163.289 50.853, 164.870 53.820, 169.131 58.989, 171.586 64.516, 172.228 65.000, 171.950 " />
            <path fill="none" stroke-width="3.0" stroke-linecap="butt" stroke-opacity="1.0" stroke="rgb(0, 0, 0)" stroke-linejoin="round" d=" M 139.575, 186.350 148.001, 190.113 148.202, 190.203 156.212, 189.050 161.575, 183.310 " />
            <path fill="none" stroke-width="3.0" stroke-linecap="butt" stroke-opacity="1.0" stroke="rgb(0, 0, 0)" stroke-linejoin="round" d=" M 104.329, 185.324 110.913, 190.755 119.829, 191.277 119.956, 191.285 " />
            <path fill="none" stroke-width="3.0" stroke-linecap="butt" stroke-opacity="1.0" stroke="rgb(0, 0, 0)" stroke-linejoin="round" d=" M 84.459, 104.915 89.507, 97.914 94.783, 92.646 104.076, 88.953 104.219, 88.897 113.841, 89.248 119.286, 93.455 124.573, 99.987 122.407, 92.283 117.720, 85.080 111.370, 81.539 " />
            <path fill="none" stroke-width="3.0" stroke-linecap="butt" stroke-opacity="1.0" stroke="rgb(0, 0, 0)" stroke-linejoin="round" d=" M 146.715, 89.626 155.087, 89.359 163.173, 93.096 167.895, 98.180 172.498, 104.917 " />
            <path fill="none" stroke-width="3.0" stroke-linecap="butt" stroke-opacity="1.0" stroke="rgb(0, 0, 0)" stroke-linejoin="round" d=" M 144.183, 84.206 139.525, 90.299 137.451, 100.082 137.425, 100.206 " />
            <path fill="none" stroke-width="3.0" stroke-linecap="butt" stroke-opacity="1.0" stroke="rgb(0, 0, 0)" stroke-linejoin="round" d=" M 119.288, 107.298 116.536, 102.325 106.920, 101.422 100.158, 107.219 96.667, 115.611 96.807, 125.610 96.815, 126.137 99.526, 133.224 104.794, 138.088 " />
            <path fill="none" stroke-width="3.0" stroke-linecap="butt" stroke-opacity="1.0" stroke="rgb(0, 0, 0)" stroke-linejoin="round" d=" M 157.643, 130.665 159.193, 124.770 159.165, 114.770 159.163, 114.222 155.972, 105.632 150.008, 100.191 141.744, 101.124 139.614, 106.090 " />
            <path fill="none" stroke-width="3.0" stroke-linecap="butt" stroke-opacity="1.0" stroke="rgb(0, 0, 0)" stroke-linejoin="round" d=" M 59.658, 129.868 60.950, 135.190 59.325, 139.204 56.761, 146.042 57.002, 149.235 61.577, 157.597 62.131, 157.376 61.630, 157.731 63.879, 167.475 64.282, 169.220 64.755, 171.224 65.000, 171.950 67.336, 178.875 72.787, 187.258 74.121, 189.310 79.924, 193.722 87.620, 200.107 88.524, 200.856 97.436, 205.392 99.095, 206.236 107.855, 211.059 108.784, 211.570 110.720, 212.245 120.527, 214.203 121.854, 214.468 126.436, 216.206 135.060, 212.135 139.842, 210.396 146.075, 206.859 " />
            <path fill="none" stroke-width="3.0" stroke-linecap="butt" stroke-opacity="1.0" stroke="rgb(0, 0, 0)" stroke-linejoin="round" d=" M 146.906, 206.352 151.803, 203.021 160.595, 198.257 165.149, 195.789 164.986, 193.637 173.983, 189.272 175.648, 188.464 180.893, 179.950 184.571, 173.980 185.370, 170.555 186.560, 166.731 186.378, 160.655 186.273, 157.180 185.702, 151.835 187.365, 151.088 188.706, 147.092 188.729, 146.860 189.187, 142.056 186.626, 138.182 184.265, 134.609 181.470, 131.240 181.451, 131.053 181.325, 129.755 182.201, 130.015 181.958, 125.264 184.496, 121.610 " />
            <path fill="none" stroke-width="3.0" stroke-linecap="butt" stroke-opacity="1.0" stroke="rgb(0, 0, 0)" stroke-linejoin="round" d=" M 116.651, 170.418 124.745, 176.291 127.170, 178.051 130.767, 178.940 137.859, 179.678 140.716, 179.248 145.287, 178.562 146.399, 178.394 154.171, 176.586 158.113, 174.914 160.714, 173.810 161.027, 173.511 164.391, 170.304 170.245, 164.723 170.814, 163.838 171.934, 160.551 172.888, 153.461 171.943, 147.459 171.478, 144.509 169.666, 139.174 167.638, 136.473 167.159, 135.327 158.179, 130.928 157.643, 130.665 156.467, 130.089 154.216, 128.929 153.570, 128.596 152.419, 128.432 144.548, 127.311 139.934, 126.853 135.928, 126.456 135.198, 126.563 130.414, 127.269 125.525, 128.334 119.512, 129.645 114.744, 133.582 110.785, 136.435 110.735, 136.470 109.379, 137.447 109.169, 138.317 106.819, 148.037 106.587, 148.996 105.981, 150.539 104.342, 154.751 104.819, 155.595 106.101, 157.866 110.001, 164.092 " />
            <path fill="none" stroke-width="3.0" stroke-linecap="butt" stroke-opacity="1.0" stroke="rgb(0, 0, 0)" stroke-linejoin="round" d=" M 104.819, 155.595 95.349, 152.383 95.021, 152.272 88.714, 146.791 82.386, 139.688 80.258, 143.980 76.332, 151.459 76.154, 154.422 75.846, 157.533 76.571, 160.335 77.572, 163.603 78.805, 166.619 80.766, 169.341 85.092, 170.683 88.788, 172.744 90.678, 176.495 92.106, 179.673 94.551, 182.065 96.769, 184.166 101.883, 184.830 104.435, 184.766 104.547, 184.839 107.312, 186.647 107.353, 187.818 " />
            <path fill="none" stroke-width="3.0" stroke-linecap="butt" stroke-opacity="1.0" stroke="rgb(0, 0, 0)" stroke-linejoin="round" d=" M 118.984, 110.151 113.439, 108.925 111.224, 109.804 107.451, 111.496 106.716, 112.896 104.401, 117.099 104.317, 119.035 104.086, 124.245 105.281, 128.563 106.082, 131.324 107.950, 133.487 110.725, 136.468 110.735, 136.470 " />
            <path fill="none" stroke-width="3.0" stroke-linecap="butt" stroke-opacity="1.0" stroke="rgb(0, 0, 0)" stroke-linejoin="round" d=" M 119.829, 191.277 120.844, 192.016 124.170, 193.707 129.827, 193.691 139.827, 193.701 140.592, 193.702 147.539, 190.414 148.001, 190.113 " />
            <path fill="none" stroke-width="3.0" stroke-linecap="butt" stroke-opacity="1.0" stroke="rgb(0, 0, 0)" stroke-linejoin="round" d=" M 126.496, 187.973 133.811, 184.584 134.118, 184.572 135.194, 184.429 135.478, 184.521 136.408, 184.820 138.530, 185.883 " />
            <path fill="none" stroke-width="3.0" stroke-linecap="butt" stroke-opacity="1.0" stroke="rgb(0, 0, 0)" stroke-linejoin="round" d=" M 140.752, 209.308 141.418, 209.219 146.075, 206.859 146.658, 206.563 146.906, 206.352 150.706, 203.119 152.205, 201.262 152.279, 199.768 " />
            <path fill="none" stroke-width="3.0" stroke-linecap="butt" stroke-opacity="1.0" stroke="rgb(0, 0, 0)" stroke-linejoin="round" d=" M 154.216, 128.929 154.578, 122.906 154.611, 122.544 154.527, 122.181 153.006, 115.896 152.705, 115.391 150.034, 110.635 149.968, 110.605 149.744, 110.443 145.693, 109.372 143.598, 108.936 142.897, 109.191 141.044, 109.866 " />
            <path fill="none" stroke-width="3.0" stroke-linecap="butt" stroke-opacity="1.0" stroke="rgb(0, 0, 0)" stroke-linejoin="round" d=" M 186.626, 138.182 186.422, 136.354 183.427, 132.738 181.451, 131.053 " />
            <path fill="none" stroke-width="3.0" stroke-linecap="butt" stroke-opacity="1.0" stroke="rgb(0, 0, 0)" stroke-linejoin="round" d=" M 186.378, 160.655 188.121, 158.832 188.617, 152.754 188.826, 147.171 188.729, 146.860 " />
        </g>
    </g>
</svg>
