<?xml version='1.0' encoding='ascii'?>
<svg xmlns="http://www.w3.org/2000/svg" version="1.1" width="250" height="250">
    <g id="ViewLayer_LineSet" xmlns:inkscape="http://www.inkscape.org/namespaces/inkscape" inkscape:groupmode="lineset" inkscape:label="ViewLayer_LineSet">
        <g xmlns:inkscape="http://www.inkscape.org/namespaces/inkscape" inkscape:groupmode="layer" id="strokes" inkscape:label="strokes">
            <path fill="none" stroke-width="3.0" stroke-linecap="butt" stroke-opacity="1.0" stroke="rgb(0, 0, 0)" stroke-linejoin="round" d=" M 105.540, 93.312 107.200, 94.871 108.541, 96.328 " />
            <path fill="none" stroke-width="3.0" stroke-linecap="butt" stroke-opacity="1.0" stroke="rgb(0, 0, 0)" stroke-linejoin="round" d=" M 165.332, 99.640 165.372, 97.631 162.444, 92.381 161.690, 91.222 160.608, 90.596 " />
            <path fill="none" stroke-width="3.0" stroke-linecap="butt" stroke-opacity="1.0" stroke="rgb(0, 0, 0)" stroke-linejoin="round" d=" M 179.058, 93.850 172.811, 86.042 166.508, 78.164 162.563, 76.711 153.268, 73.024 143.972, 69.337 143.509, 69.153 " />
            <path fill="none" stroke-width="3.0" stroke-linecap="butt" stroke-opacity="1.0" stroke="rgb(0, 0, 0)" stroke-linejoin="round" d=" M 189.391, 125.335 196.182, 118.528 197.125, 108.573 198.069, 98.618 198.432, 94.778 197.820, 90.569 197.815, 88.346 195.035, 82.301 190.541, 73.368 186.047, 64.435 182.458, 57.300 177.720, 52.304 171.339, 44.605 164.957, 36.906 163.759, 35.461 162.582, 34.724 153.686, 30.157 144.789, 25.589 142.843, 24.590 141.491, 24.683 131.495, 24.954 121.498, 25.225 111.502, 25.496 104.031, 25.698 101.794, 25.697 93.224, 30.849 85.578, 35.447 81.608, 38.316 75.634, 46.335 71.663, 51.666 65.163, 59.266 64.689, 59.820 60.907, 69.078 57.126, 78.335 55.731, 81.750 54.952, 88.123 54.282, 91.283 54.542, 97.958 56.095, 107.837 57.548, 117.085 61.039, 121.151 63.442, 124.586 " />
            <path fill="none" stroke-width="3.0" stroke-linecap="butt" stroke-opacity="1.0" stroke="rgb(0, 0, 0)" stroke-linejoin="round" d=" M 105.055, 207.940 108.601, 209.963 109.424, 210.063 113.473, 210.552 114.119, 212.237 " />
            <path fill="none" stroke-width="3.0" stroke-linecap="butt" stroke-opacity="1.0" stroke="rgb(0, 0, 0)" stroke-linejoin="round" d=" M 95.747, 134.634 93.708, 135.831 87.483, 139.485 85.690, 143.876 83.224, 145.435 83.720, 147.938 82.848, 149.410 82.243, 153.827 81.686, 157.901 81.905, 166.923 82.851, 167.342 84.963, 168.907 92.154, 175.856 93.082, 176.753 93.398, 177.007 97.237, 180.099 100.813, 180.867 105.530, 181.881 110.774, 182.558 115.297, 183.142 123.754, 182.186 128.085, 181.034 137.000, 176.505 139.730, 175.119 141.193, 173.558 143.786, 170.791 146.817, 162.248 147.978, 157.520 147.936, 157.194 147.429, 153.272 145.868, 149.963 143.240, 140.233 142.074, 139.472 139.606, 137.860 139.595, 137.852 137.372, 136.401 132.496, 132.589 129.767, 132.044 125.382, 131.169 120.492, 130.194 116.685, 129.646 115.233, 129.820 111.515, 130.267 101.653, 131.919 99.827, 132.224 98.348, 133.098 97.442, 133.633 95.747, 134.634 " />
            <path fill="none" stroke-width="3.0" stroke-linecap="butt" stroke-opacity="1.0" stroke="rgb(0, 0, 0)" stroke-linejoin="round" d=" M 132.027, 193.126 133.900, 192.963 140.875, 192.359 143.203, 190.318 143.506, 190.053 143.768, 189.823 147.207, 186.809 " />
            <path fill="none" stroke-width="3.0" stroke-linecap="butt" stroke-opacity="1.0" stroke="rgb(0, 0, 0)" stroke-linejoin="round" d=" M 89.708, 185.762 95.380, 191.481 103.636, 192.584 " />
            <path fill="none" stroke-width="3.0" stroke-linecap="butt" stroke-opacity="1.0" stroke="rgb(0, 0, 0)" stroke-linejoin="round" d=" M 76.392, 106.215 81.098, 99.402 85.928, 94.261 94.420, 90.627 103.034, 91.055 " />
            <path fill="none" stroke-width="3.0" stroke-linecap="butt" stroke-opacity="1.0" stroke="rgb(0, 0, 0)" stroke-linejoin="round" d=" M 112.782, 101.881 110.506, 94.206 106.729, 86.898 101.163, 83.311 " />
            <path fill="none" stroke-width="3.0" stroke-linecap="butt" stroke-opacity="1.0" stroke="rgb(0, 0, 0)" stroke-linejoin="round" d=" M 131.368, 95.464 136.641, 91.166 146.224, 90.694 155.456, 94.354 160.641, 99.531 165.620, 106.453 " />
            <path fill="none" stroke-width="3.0" stroke-linecap="butt" stroke-opacity="1.0" stroke="rgb(0, 0, 0)" stroke-linejoin="round" d=" M 133.875, 85.710 128.385, 92.032 126.224, 101.796 126.169, 102.042 " />
            <path fill="none" stroke-width="3.0" stroke-linecap="butt" stroke-opacity="1.0" stroke="rgb(0, 0, 0)" stroke-linejoin="round" d=" M 144.928, 139.233 150.080, 133.812 152.592, 126.470 152.649, 116.470 152.653, 115.719 149.164, 106.968 142.608, 101.474 133.215, 102.552 130.615, 107.624 130.463, 111.989 " />
            <path fill="none" stroke-width="3.0" stroke-linecap="butt" stroke-opacity="1.0" stroke="rgb(0, 0, 0)" stroke-linejoin="round" d=" M 109.878, 108.777 107.627, 103.744 99.050, 102.687 93.246, 108.257 89.971, 116.458 89.856, 126.458 89.852, 126.809 91.807, 133.895 " />
            <path fill="none" stroke-width="3.0" stroke-linecap="butt" stroke-opacity="1.0" stroke="rgb(0, 0, 0)" stroke-linejoin="round" d=" M 176.673, 100.044 182.615, 98.707 179.058, 93.850 " />
            <path fill="none" stroke-width="3.0" stroke-linecap="butt" stroke-opacity="1.0" stroke="rgb(0, 0, 0)" stroke-linejoin="round" d=" M 64.068, 125.551 62.010, 122.627 63.442, 124.586 64.066, 125.439 64.067, 125.479 64.068, 125.551 64.172, 130.195 64.203, 131.588 64.450, 131.546 64.430, 131.942 63.656, 132.939 58.648, 141.595 57.980, 142.750 57.994, 147.878 59.434, 151.832 61.832, 153.422 62.085, 157.409 61.850, 165.379 61.703, 170.354 61.741, 170.648 61.758, 170.696 61.832, 170.892 63.044, 172.863 68.336, 181.348 73.628, 189.833 74.296, 190.904 79.780, 193.471 80.793, 195.305 89.644, 199.960 96.310, 203.466 101.886, 206.819 109.098, 210.396 112.932, 211.730 122.035, 215.968 128.774, 213.130 136.773, 211.209 141.306, 209.256 148.784, 204.752 157.778, 200.381 166.018, 196.376 169.390, 193.834 171.241, 192.251 176.614, 183.817 181.636, 175.932 183.492, 171.590 183.770, 170.561 183.811, 170.408 185.475, 161.595 185.578, 157.776 185.848, 156.681 186.440, 156.468 190.528, 148.728 191.092, 145.550 187.559, 137.468 185.810, 134.089 186.490, 130.277 186.646, 129.398 186.941, 127.747 186.216, 130.035 186.169, 130.182 " />
            <path fill="none" stroke-width="3.0" stroke-linecap="butt" stroke-opacity="1.0" stroke="rgb(0, 0, 0)" stroke-linejoin="round" d=" M 103.893, 68.824 93.894, 68.945 91.675, 68.972 90.971, 68.982 81.898, 73.186 74.429, 76.646 68.346, 79.163 63.520, 87.921 59.268, 95.637 63.836, 97.639 62.381, 98.562 61.262, 100.884 67.893, 101.318 " />
            <path fill="none" stroke-width="3.0" stroke-linecap="butt" stroke-opacity="1.0" stroke="rgb(0, 0, 0)" stroke-linejoin="round" d=" M 143.768, 189.823 143.908, 189.778 144.236, 189.683 144.387, 189.639 145.026, 189.454 144.845, 190.215 144.010, 190.080 144.387, 189.639 144.913, 189.024 " />
            <path fill="none" stroke-width="3.0" stroke-linecap="butt" stroke-opacity="1.0" stroke="rgb(0, 0, 0)" stroke-linejoin="round" d=" M 144.236, 189.683 143.205, 190.686 143.203, 190.318 " />
            <path fill="none" stroke-width="3.0" stroke-linecap="butt" stroke-opacity="1.0" stroke="rgb(0, 0, 0)" stroke-linejoin="round" d=" M 100.024, 202.998 105.055, 207.940 " />
            <path fill="none" stroke-width="3.0" stroke-linecap="butt" stroke-opacity="1.0" stroke="rgb(0, 0, 0)" stroke-linejoin="round" d=" M 64.172, 130.195 62.522, 131.450 58.937, 135.677 58.383, 139.323 57.131, 144.027 56.335, 146.828 56.669, 152.222 57.328, 158.546 59.823, 161.068 61.850, 165.379 " />
            <path fill="none" stroke-width="3.0" stroke-linecap="butt" stroke-opacity="1.0" stroke="rgb(0, 0, 0)" stroke-linejoin="round" d=" M 82.243, 153.827 80.957, 153.291 76.466, 148.317 70.925, 140.475 68.904, 144.630 68.532, 145.396 65.240, 151.680 64.932, 155.314 64.676, 157.529 65.384, 161.131 65.925, 163.463 67.002, 167.259 67.225, 167.638 68.130, 169.169 72.634, 170.956 75.231, 172.765 76.579, 175.658 78.132, 179.629 80.805, 182.633 82.299, 184.248 86.111, 184.971 89.368, 185.092 89.828, 185.477 92.691, 187.875 93.506, 189.591 " />
            <path fill="none" stroke-width="3.0" stroke-linecap="butt" stroke-opacity="1.0" stroke="rgb(0, 0, 0)" stroke-linejoin="round" d=" M 108.506, 111.238 104.630, 110.288 102.674, 110.935 98.513, 112.620 98.369, 112.868 96.960, 115.188 95.548, 117.993 95.463, 118.154 94.797, 124.961 94.786, 125.108 94.808, 125.255 95.022, 126.832 96.089, 131.479 96.257, 132.157 97.442, 133.633 " />
            <path fill="none" stroke-width="3.0" stroke-linecap="butt" stroke-opacity="1.0" stroke="rgb(0, 0, 0)" stroke-linejoin="round" d=" M 105.659, 191.672 110.469, 194.369 118.344, 194.988 127.206, 195.798 132.904, 193.507 133.900, 192.963 " />
            <path fill="none" stroke-width="3.0" stroke-linecap="butt" stroke-opacity="1.0" stroke="rgb(0, 0, 0)" stroke-linejoin="round" d=" M 109.683, 189.859 113.027, 188.431 116.769, 186.833 117.057, 186.846 118.281, 186.887 120.683, 187.711 120.999, 187.820 124.573, 189.559 125.554, 190.036 " />
            <path fill="none" stroke-width="3.0" stroke-linecap="butt" stroke-opacity="1.0" stroke="rgb(0, 0, 0)" stroke-linejoin="round" d=" M 140.644, 137.494 141.041, 137.351 142.758, 134.979 144.899, 131.837 145.216, 129.933 145.898, 124.578 144.991, 118.445 144.821, 117.423 141.891, 113.379 141.109, 112.311 137.316, 111.224 134.632, 110.545 131.490, 111.639 " />
            <path fill="none" stroke-width="3.0" stroke-linecap="butt" stroke-opacity="1.0" stroke="rgb(0, 0, 0)" stroke-linejoin="round" d=" M 143.506, 190.053 143.707, 189.843 147.017, 186.391 147.186, 186.215 150.267, 186.212 154.606, 185.561 155.340, 184.780 157.006, 183.006 159.017, 181.036 159.672, 179.537 160.497, 177.650 162.208, 174.156 166.908, 172.464 167.369, 172.298 170.127, 170.650 171.094, 167.940 171.256, 167.485 173.099, 165.067 173.884, 161.953 174.708, 159.030 174.503, 155.949 174.207, 153.035 170.375, 145.776 168.226, 141.452 163.816, 145.405 157.290, 152.981 156.287, 154.146 147.936, 157.194 " />
            <path fill="none" stroke-width="3.0" stroke-linecap="butt" stroke-opacity="1.0" stroke="rgb(0, 0, 0)" stroke-linejoin="round" d=" M 183.770, 170.561 187.285, 170.027 191.006, 168.102 194.367, 162.954 196.631, 161.086 198.008, 153.576 198.411, 149.178 197.466, 145.367 195.548, 139.343 194.686, 136.281 190.007, 131.328 189.891, 131.283 186.490, 130.277 " />
            <path fill="none" stroke-width="3.0" stroke-linecap="butt" stroke-opacity="1.0" stroke="rgb(0, 0, 0)" stroke-linejoin="round" d=" M 186.646, 129.398 189.391, 125.335 " />
        </g>
    </g>
</svg>
