<?xml version='1.0' encoding='ascii'?>
<svg xmlns="http://www.w3.org/2000/svg" version="1.1" width="250" height="250">
    <g id="ViewLayer_LineSet" xmlns:inkscape="http://www.inkscape.org/namespaces/inkscape" inkscape:groupmode="lineset" inkscape:label="ViewLayer_LineSet">
        <g xmlns:inkscape="http://www.inkscape.org/namespaces/inkscape" inkscape:groupmode="layer" id="strokes" inkscape:label="strokes">
            <path fill="none" stroke-width="3.0" stroke-linecap="butt" stroke-opacity="1.0" stroke="rgb(0, 0, 0)" stroke-linejoin="round" d=" M 114.282, 154.820 118.423, 158.678 121.904, 159.274 124.510, 159.785 125.956, 159.190 129.912, 157.370 129.954, 157.278 130.790, 155.449 132.135, 152.546 131.904, 147.951 131.766, 146.174 131.343, 145.106 129.168, 140.171 128.960, 139.985 128.768, 139.813 127.629, 138.759 " />
            <path fill="none" stroke-width="3.0" stroke-linecap="butt" stroke-opacity="1.0" stroke="rgb(0, 0, 0)" stroke-linejoin="round" d=" M 192.397, 119.188 199.465, 112.114 206.532, 105.039 207.338, 104.233 207.850, 103.448 208.002, 102.340 202.934, 93.719 198.490, 86.160 194.127, 77.162 193.799, 76.486 187.221, 68.954 186.647, 68.297 178.278, 62.824 174.205, 60.160 167.120, 53.103 163.264, 49.263 160.000, 47.518 150.980, 43.201 141.959, 38.884 139.856, 37.878 134.015, 35.827 131.916, 35.595 121.950, 36.416 113.499, 37.113 103.543, 38.053 101.191, 38.275 91.226, 39.106 87.672, 39.403 77.733, 40.504 74.631, 40.848 66.458, 46.610 60.410, 50.873 60.266, 51.048 60.141, 51.195 56.916, 60.660 54.870, 66.664 50.728, 75.766 49.775, 77.859 50.562, 81.365 54.587, 90.519 56.577, 95.044 59.901, 100.885 65.695, 109.036 67.975, 112.244 70.152, 113.826 64.083, 114.480 59.614, 117.888 51.995, 122.248 47.502, 124.103 42.623, 127.551 40.750, 131.174 49.535, 126.397 49.809, 126.248 59.012, 122.335 65.060, 119.764 " />
            <path fill="none" stroke-width="3.0" stroke-linecap="butt" stroke-opacity="1.0" stroke="rgb(0, 0, 0)" stroke-linejoin="round" d=" M 192.089, 147.291 192.440, 146.268 192.146, 144.329 192.071, 143.840 189.805, 134.100 189.067, 130.924 189.375, 129.281 189.654, 127.798 190.182, 124.990 190.269, 126.903 189.829, 128.074 189.375, 129.281 " />
            <path fill="none" stroke-width="3.0" stroke-linecap="butt" stroke-opacity="1.0" stroke="rgb(0, 0, 0)" stroke-linejoin="round" d=" M 132.793, 207.346 136.821, 203.934 " />
            <path fill="none" stroke-width="3.0" stroke-linecap="butt" stroke-opacity="1.0" stroke="rgb(0, 0, 0)" stroke-linejoin="round" d=" M 128.960, 139.985 124.586, 135.956 118.367, 135.102 114.778, 136.767 " />
            <path fill="none" stroke-width="3.0" stroke-linecap="butt" stroke-opacity="1.0" stroke="rgb(0, 0, 0)" stroke-linejoin="round" d=" M 83.846, 133.379 86.142, 141.789 87.063, 144.185 88.762, 148.602 " />
            <path fill="none" stroke-width="3.0" stroke-linecap="butt" stroke-opacity="1.0" stroke="rgb(0, 0, 0)" stroke-linejoin="round" d=" M 129.954, 157.278 135.478, 155.551 139.307, 151.307 140.637, 145.422 " />
            <path fill="none" stroke-width="3.0" stroke-linecap="butt" stroke-opacity="1.0" stroke="rgb(0, 0, 0)" stroke-linejoin="round" d=" M 75.707, 125.307 75.906, 128.031 72.952, 134.026 71.305, 139.139 70.793, 139.853 72.928, 145.383 73.749, 150.394 73.908, 150.558 73.493, 156.693 72.331, 164.737 74.915, 170.685 " />
            <path fill="none" stroke-width="3.0" stroke-linecap="butt" stroke-opacity="1.0" stroke="rgb(0, 0, 0)" stroke-linejoin="round" d=" M 92.991, 163.282 86.411, 167.398 80.059, 173.785 77.987, 175.534 77.280, 176.131 71.472, 181.033 69.515, 182.685 68.085, 184.970 67.105, 185.926 69.271, 192.846 68.317, 200.248 68.565, 204.016 69.859, 206.318 72.559, 208.622 79.038, 216.239 79.660, 216.970 80.496, 217.526 81.595, 217.835 91.533, 218.949 100.741, 219.981 104.845, 220.072 110.050, 219.362 114.163, 217.254 118.247, 215.660 121.741, 209.554 122.488, 208.249 122.996, 207.362 124.767, 204.266 125.647, 202.729 127.008, 196.742 127.487, 194.636 127.736, 194.314 " />
            <path fill="none" stroke-width="3.0" stroke-linecap="butt" stroke-opacity="1.0" stroke="rgb(0, 0, 0)" stroke-linejoin="round" d=" M 147.446, 198.853 149.387, 201.237 149.459, 201.325 149.307, 201.345 145.115, 201.883 " />
            <path fill="none" stroke-width="3.0" stroke-linecap="butt" stroke-opacity="1.0" stroke="rgb(0, 0, 0)" stroke-linejoin="round" d=" M 128.034, 209.004 133.404, 208.728 135.441, 208.087 141.552, 205.736 145.602, 204.287 145.784, 204.108 148.099, 202.976 149.307, 201.345 149.387, 201.237 151.550, 198.315 159.400, 193.048 169.125, 190.720 170.970, 190.278 175.973, 183.817 181.446, 175.447 181.852, 174.825 185.017, 165.868 185.115, 165.124 185.148, 164.870 185.193, 164.529 185.099, 164.736 185.148, 164.870 185.194, 164.999 185.115, 165.124 183.085, 168.299 185.104, 158.505 185.758, 155.331 194.406, 155.108 198.174, 154.077 205.093, 146.857 206.716, 145.163 209.103, 142.840 211.720, 133.995 211.914, 131.518 210.850, 125.754 207.243, 118.622 204.230, 117.535 196.652, 118.341 " />
            <path fill="none" stroke-width="3.0" stroke-linecap="butt" stroke-opacity="1.0" stroke="rgb(0, 0, 0)" stroke-linejoin="round" d=" M 188.294, 147.867 189.720, 151.532 192.089, 147.291 " />
            <path fill="none" stroke-width="3.0" stroke-linecap="butt" stroke-opacity="1.0" stroke="rgb(0, 0, 0)" stroke-linejoin="round" d=" M 77.987, 175.534 77.764, 175.333 76.294, 172.980 74.915, 170.685 69.764, 162.114 69.133, 161.064 67.071, 170.003 67.938, 174.280 67.978, 174.528 70.016, 179.182 70.040, 179.236 70.123, 179.465 71.472, 181.033 " />
            <path fill="none" stroke-width="3.0" stroke-linecap="butt" stroke-opacity="1.0" stroke="rgb(0, 0, 0)" stroke-linejoin="round" d=" M 88.259, 134.814 87.988, 135.199 87.454, 135.986 87.435, 138.890 87.293, 139.842 87.356, 140.120 88.041, 143.130 88.456, 145.196 89.418, 147.653 90.429, 150.134 90.542, 150.409 91.835, 152.065 93.433, 154.361 94.620, 155.128 97.874, 157.827 98.030, 157.896 98.216, 157.841 99.445, 157.491 " />
            <path fill="none" stroke-width="3.0" stroke-linecap="butt" stroke-opacity="1.0" stroke="rgb(0, 0, 0)" stroke-linejoin="round" d=" M 94.558, 133.443 95.374, 139.042 98.158, 148.646 99.018, 151.616 100.087, 155.371 100.142, 155.567 " />
            <path fill="none" stroke-width="3.0" stroke-linecap="butt" stroke-opacity="1.0" stroke="rgb(0, 0, 0)" stroke-linejoin="round" d=" M 121.741, 209.554 123.168, 210.128 127.671, 209.108 128.034, 209.004 131.699, 207.949 132.538, 207.371 133.442, 206.749 136.633, 203.929 136.821, 203.934 142.035, 204.063 142.930, 203.982 145.115, 201.883 145.484, 201.529 146.883, 200.335 147.446, 198.853 147.814, 197.882 148.534, 195.710 153.932, 193.923 155.959, 192.703 156.994, 189.704 158.856, 187.411 159.331, 185.336 160.360, 182.104 160.205, 180.885 159.642, 176.956 156.564, 172.633 148.056, 170.922 141.894, 178.798 139.970, 181.258 139.158, 181.528 " />
            <path fill="none" stroke-width="3.0" stroke-linecap="butt" stroke-opacity="1.0" stroke="rgb(0, 0, 0)" stroke-linejoin="round" d=" M 140.799, 144.703 140.816, 144.763 140.637, 145.422 " />
        </g>
    </g>
</svg>
