<?xml version='1.0' encoding='ascii'?>
<svg xmlns="http://www.w3.org/2000/svg" version="1.1" width="250" height="250">
    <g id="ViewLayer_LineSet" xmlns:inkscape="http://www.inkscape.org/namespaces/inkscape" inkscape:groupmode="lineset" inkscape:label="ViewLayer_LineSet">
        <g xmlns:inkscape="http://www.inkscape.org/namespaces/inkscape" inkscape:groupmode="layer" id="strokes" inkscape:label="strokes">
            <path fill="none" stroke-width="3.0" stroke-linecap="butt" stroke-opacity="1.0" stroke="rgb(0, 0, 0)" stroke-linejoin="round" d=" M 143.504, 195.261 145.388, 193.357 146.039, 192.700 147.854, 190.865 148.008, 190.710 151.742, 190.628 155.224, 190.080 157.795, 187.351 159.557, 185.636 161.123, 182.097 162.319, 179.694 162.696, 178.938 163.205, 178.742 168.167, 176.833 170.547, 175.325 171.721, 171.941 173.410, 169.677 174.245, 166.446 175.049, 163.682 174.881, 160.634 174.632, 157.789 170.570, 149.956 168.737, 146.229 165.183, 149.613 158.870, 157.368 156.980, 159.690 148.759, 162.882 " />
            <path fill="none" stroke-width="3.0" stroke-linecap="butt" stroke-opacity="1.0" stroke="rgb(0, 0, 0)" stroke-linejoin="round" d=" M 131.388, 101.106 132.095, 100.293 133.822, 98.781 " />
            <path fill="none" stroke-width="3.0" stroke-linecap="butt" stroke-opacity="1.0" stroke="rgb(0, 0, 0)" stroke-linejoin="round" d=" M 137.200, 142.739 139.791, 141.907 141.829, 141.138 143.165, 139.237 145.519, 135.674 145.754, 134.125 146.412, 128.446 145.470, 122.592 145.247, 121.352 142.502, 117.730 141.422, 116.322 138.194, 115.471 134.840, 114.686 134.651, 114.754 133.351, 115.218 " />
            <path fill="none" stroke-width="3.0" stroke-linecap="butt" stroke-opacity="1.0" stroke="rgb(0, 0, 0)" stroke-linejoin="round" d=" M 184.034, 103.250 177.147, 95.999 170.260, 88.749 166.700, 85.001 165.392, 84.559 164.955, 84.405 160.668, 82.893 164.928, 84.341 164.955, 84.405 " />
            <path fill="none" stroke-width="3.0" stroke-linecap="butt" stroke-opacity="1.0" stroke="rgb(0, 0, 0)" stroke-linejoin="round" d=" M 189.182, 123.142 195.645, 116.100 196.898, 106.179 198.150, 96.258 198.541, 93.161 197.943, 89.480 197.962, 87.207 194.477, 79.742 189.961, 70.820 185.445, 61.897 182.810, 56.690 179.167, 52.848 172.803, 45.135 167.138, 38.267 164.374, 35.655 163.364, 34.669 154.420, 30.197 145.475, 25.726 143.631, 24.804 141.883, 24.712 131.883, 24.759 121.884, 24.807 111.884, 24.855 102.711, 24.899 101.958, 24.910 101.191, 24.955 95.810, 27.804 87.252, 32.976 82.705, 35.723 81.016, 36.971 75.052, 44.998 69.383, 52.627 63.692, 59.255 59.869, 68.495 56.046, 77.735 53.725, 83.344 53.385, 87.771 52.919, 90.211 53.384, 96.213 55.232, 106.041 56.971, 115.288 60.568, 119.602 66.290, 127.256 65.923, 127.356 " />
            <path fill="none" stroke-width="3.0" stroke-linecap="butt" stroke-opacity="1.0" stroke="rgb(0, 0, 0)" stroke-linejoin="round" d=" M 133.191, 197.773 141.835, 196.774 145.203, 193.721 146.494, 192.551 148.004, 191.182 " />
            <path fill="none" stroke-width="3.0" stroke-linecap="butt" stroke-opacity="1.0" stroke="rgb(0, 0, 0)" stroke-linejoin="round" d=" M 91.439, 190.293 97.146, 196.037 105.312, 197.326 " />
            <path fill="none" stroke-width="3.0" stroke-linecap="butt" stroke-opacity="1.0" stroke="rgb(0, 0, 0)" stroke-linejoin="round" d=" M 76.481, 110.179 81.109, 103.430 85.914, 98.395 94.483, 95.061 103.244, 95.882 " />
            <path fill="none" stroke-width="3.0" stroke-linecap="butt" stroke-opacity="1.0" stroke="rgb(0, 0, 0)" stroke-linejoin="round" d=" M 113.242, 107.135 110.882, 99.513 106.940, 91.781 101.225, 87.838 " />
            <path fill="none" stroke-width="3.0" stroke-linecap="butt" stroke-opacity="1.0" stroke="rgb(0, 0, 0)" stroke-linejoin="round" d=" M 137.138, 95.887 146.746, 95.045 155.995, 98.396 161.179, 103.481 166.137, 110.325 " />
            <path fill="none" stroke-width="3.0" stroke-linecap="butt" stroke-opacity="1.0" stroke="rgb(0, 0, 0)" stroke-linejoin="round" d=" M 134.340, 90.480 128.866, 97.118 126.744, 106.890 126.690, 107.139 " />
            <path fill="none" stroke-width="3.0" stroke-linecap="butt" stroke-opacity="1.0" stroke="rgb(0, 0, 0)" stroke-linejoin="round" d=" M 134.615, 114.742 130.941, 116.123 " />
            <path fill="none" stroke-width="3.0" stroke-linecap="butt" stroke-opacity="1.0" stroke="rgb(0, 0, 0)" stroke-linejoin="round" d=" M 137.575, 143.576 145.382, 142.431 150.500, 137.043 152.986, 129.621 153.056, 119.622 153.061, 118.997 149.586, 110.397 143.022, 105.081 133.631, 106.518 131.062, 111.740 130.941, 116.123 " />
            <path fill="none" stroke-width="3.0" stroke-linecap="butt" stroke-opacity="1.0" stroke="rgb(0, 0, 0)" stroke-linejoin="round" d=" M 110.251, 112.966 107.908, 107.742 99.205, 106.278 93.390, 111.475 90.214, 119.574 90.267, 129.573 90.269, 129.926 92.370, 137.191 97.286, 142.144 " />
            <path fill="none" stroke-width="3.0" stroke-linecap="butt" stroke-opacity="1.0" stroke="rgb(0, 0, 0)" stroke-linejoin="round" d=" M 177.191, 102.608 184.036, 103.588 183.817, 103.390 183.650, 103.323 184.034, 103.250 " />
            <path fill="none" stroke-width="3.0" stroke-linecap="butt" stroke-opacity="1.0" stroke="rgb(0, 0, 0)" stroke-linejoin="round" d=" M 61.247, 120.861 63.778, 124.280 63.999, 127.880 64.201, 131.161 64.225, 131.600 64.132, 131.773 59.649, 140.712 58.369, 143.264 58.495, 148.333 59.983, 152.262 62.541, 154.398 63.000, 158.925 62.990, 163.436 62.972, 171.690 63.152, 172.083 63.262, 172.518 68.738, 180.885 74.214, 189.252 74.672, 189.951 83.871, 193.872 86.998, 195.205 89.508, 198.807 96.951, 202.300 99.346, 203.641 " />
            <path fill="none" stroke-width="3.0" stroke-linecap="butt" stroke-opacity="1.0" stroke="rgb(0, 0, 0)" stroke-linejoin="round" d=" M 98.007, 200.481 98.794, 202.779 98.796, 202.786 99.346, 203.641 100.762, 205.839 102.438, 207.701 110.286, 212.078 120.265, 212.722 120.777, 212.755 121.903, 213.047 122.620, 212.764 130.543, 211.918 130.685, 211.903 133.247, 211.630 138.962, 208.983 140.700, 207.401 " />
            <path fill="none" stroke-width="3.0" stroke-linecap="butt" stroke-opacity="1.0" stroke="rgb(0, 0, 0)" stroke-linejoin="round" d=" M 140.700, 207.401 144.950, 205.342 149.008, 202.986 158.174, 198.988 163.685, 196.583 163.585, 195.324 170.348, 192.980 174.301, 187.176 179.755, 178.794 182.047, 175.271 183.257, 172.521 183.490, 171.738 184.255, 167.704 184.644, 165.653 184.943, 158.781 185.402, 156.774 186.353, 156.205 190.093, 148.792 190.769, 145.414 187.206, 136.647 185.548, 133.232 186.356, 128.151 186.571, 126.800 186.697, 126.007 186.744, 125.711 186.750, 125.672 186.895, 125.492 186.744, 125.711 186.693, 125.785 186.121, 127.431 " />
            <path fill="none" stroke-width="3.0" stroke-linecap="butt" stroke-opacity="1.0" stroke="rgb(0, 0, 0)" stroke-linejoin="round" d=" M 82.370, 80.701 73.027, 84.502 69.347, 85.894 63.546, 94.039 59.255, 100.066 65.126, 101.388 63.321, 102.286 61.607, 104.702 67.351, 103.474 " />
            <path fill="none" stroke-width="3.0" stroke-linecap="butt" stroke-opacity="1.0" stroke="rgb(0, 0, 0)" stroke-linejoin="round" d=" M 146.494, 192.551 148.713, 191.826 148.122, 194.343 145.037, 194.047 145.203, 193.721 " />
            <path fill="none" stroke-width="3.0" stroke-linecap="butt" stroke-opacity="1.0" stroke="rgb(0, 0, 0)" stroke-linejoin="round" d=" M 105.664, 139.397 105.717, 139.192 105.753, 139.333 109.502, 138.662 113.949, 137.865 109.484, 138.691 105.664, 139.397 102.684, 139.948 101.641, 140.683 100.978, 141.151 99.104, 142.471 96.764, 144.121 90.066, 148.171 87.496, 154.435 84.395, 157.281 84.640, 158.159 84.332, 158.747 84.244, 159.750 83.734, 165.524 83.519, 167.959 83.545, 168.259 84.411, 178.041 84.427, 178.047 84.454, 178.066 84.685, 178.351 91.738, 185.440 92.986, 186.694 94.483, 188.199 94.854, 188.620 97.691, 189.507 98.097, 189.634 99.629, 190.113 99.877, 190.190 103.079, 190.840 113.026, 191.872 116.580, 192.241 117.305, 192.167 120.093, 191.883 128.481, 191.027 134.192, 189.251 139.548, 185.852 140.894, 184.251 143.339, 181.343 145.926, 178.267 148.057, 171.842 149.253, 165.944 148.759, 162.882 148.551, 161.594 147.038, 158.677 144.273, 149.066 144.010, 148.152 139.411, 145.159 137.575, 143.576 136.780, 142.890 133.260, 139.855 132.868, 139.781 127.666, 138.802 126.635, 138.608 127.646, 138.772 132.776, 139.608 132.868, 139.781 133.676, 141.291 " />
            <path fill="none" stroke-width="3.0" stroke-linecap="butt" stroke-opacity="1.0" stroke="rgb(0, 0, 0)" stroke-linejoin="round" d=" M 63.999, 127.880 63.131, 128.116 62.906, 128.210 58.822, 133.010 58.351, 136.112 57.076, 141.085 56.348, 143.939 56.821, 149.271 57.675, 155.553 60.327, 158.384 62.990, 163.436 " />
            <path fill="none" stroke-width="3.0" stroke-linecap="butt" stroke-opacity="1.0" stroke="rgb(0, 0, 0)" stroke-linejoin="round" d=" M 84.244, 159.750 82.279, 158.900 78.238, 154.342 72.531, 146.130 71.959, 145.306 69.995, 149.494 69.462, 150.559 66.434, 156.605 66.227, 160.111 66.028, 162.378 66.700, 165.386 66.829, 165.963 67.429, 168.280 68.684, 172.334 69.726, 174.061 74.480, 176.008 76.929, 177.759 78.249, 180.438 79.929, 184.467 82.846, 187.632 84.139, 188.979 87.210, 189.564 91.063, 189.777 91.500, 190.151 95.050, 193.192 96.001, 194.884 " />
            <path fill="none" stroke-width="3.0" stroke-linecap="butt" stroke-opacity="1.0" stroke="rgb(0, 0, 0)" stroke-linejoin="round" d=" M 104.504, 97.067 107.296, 99.937 109.269, 101.961 " />
            <path fill="none" stroke-width="3.0" stroke-linecap="butt" stroke-opacity="1.0" stroke="rgb(0, 0, 0)" stroke-linejoin="round" d=" M 105.949, 114.467 105.321, 114.315 102.638, 115.173 99.068, 116.565 98.600, 117.352 95.742, 121.970 95.738, 122.017 95.606, 123.607 95.262, 128.929 95.258, 129.023 95.275, 129.120 95.555, 130.756 96.680, 135.630 96.792, 136.083 99.749, 139.810 100.978, 141.151 " />
            <path fill="none" stroke-width="3.0" stroke-linecap="butt" stroke-opacity="1.0" stroke="rgb(0, 0, 0)" stroke-linejoin="round" d=" M 108.598, 196.032 111.503, 197.553 121.478, 198.260 121.990, 198.297 128.610, 198.833 132.371, 197.404 " />
            <path fill="none" stroke-width="3.0" stroke-linecap="butt" stroke-opacity="1.0" stroke="rgb(0, 0, 0)" stroke-linejoin="round" d=" M 105.965, 197.046 108.598, 196.032 117.930, 192.439 118.124, 192.365 118.612, 192.392 119.620, 192.423 123.999, 193.781 131.580, 197.049 " />
            <path fill="none" stroke-width="3.0" stroke-linecap="butt" stroke-opacity="1.0" stroke="rgb(0, 0, 0)" stroke-linejoin="round" d=" M 144.353, 203.876 144.443, 203.772 145.037, 202.813 " />
            <path fill="none" stroke-width="3.0" stroke-linecap="butt" stroke-opacity="1.0" stroke="rgb(0, 0, 0)" stroke-linejoin="round" d=" M 165.865, 103.414 165.920, 101.514 162.554, 95.614 162.171, 95.040 162.075, 94.986 " />
            <path fill="none" stroke-width="3.0" stroke-linecap="butt" stroke-opacity="1.0" stroke="rgb(0, 0, 0)" stroke-linejoin="round" d=" M 184.255, 167.704 184.896, 167.955 186.844, 167.565 188.710, 166.485 193.208, 159.802 195.698, 157.543 197.123, 150.280 197.581, 145.773 196.720, 142.068 194.821, 135.948 194.082, 133.347 190.170, 129.185 188.651, 128.655 186.356, 128.151 " />
            <path fill="none" stroke-width="3.0" stroke-linecap="butt" stroke-opacity="1.0" stroke="rgb(0, 0, 0)" stroke-linejoin="round" d=" M 186.571, 126.800 189.182, 123.142 " />
        </g>
    </g>
</svg>
