<?xml version='1.0' encoding='ascii'?>
<svg xmlns="http://www.w3.org/2000/svg" version="1.1" width="250" height="250">
    <g id="ViewLayer_LineSet" xmlns:inkscape="http://www.inkscape.org/namespaces/inkscape" inkscape:groupmode="lineset" inkscape:label="ViewLayer_LineSet">
        <g xmlns:inkscape="http://www.inkscape.org/namespaces/inkscape" inkscape:groupmode="layer" id="strokes" inkscape:label="strokes">
            <path fill="none" stroke-width="3.0" stroke-linecap="butt" stroke-opacity="1.0" stroke="rgb(0, 0, 0)" stroke-linejoin="round" d=" M 102.614, 195.794 104.641, 195.005 113.637, 191.506 114.068, 191.543 115.076, 191.645 119.453, 193.077 126.933, 196.406 " />
            <path fill="none" stroke-width="3.0" stroke-linecap="butt" stroke-opacity="1.0" stroke="rgb(0, 0, 0)" stroke-linejoin="round" d=" M 163.290, 102.290 163.277, 101.138 159.566, 94.572 159.482, 94.448 159.476, 94.445 " />
            <path fill="none" stroke-width="3.0" stroke-linecap="butt" stroke-opacity="1.0" stroke="rgb(0, 0, 0)" stroke-linejoin="round" d=" M 128.303, 99.924 128.432, 99.766 128.453, 99.740 128.866, 99.399 " />
            <path fill="none" stroke-width="3.0" stroke-linecap="butt" stroke-opacity="1.0" stroke="rgb(0, 0, 0)" stroke-linejoin="round" d=" M 166.319, 88.536 161.349, 83.727 160.724, 83.523 160.636, 83.494 157.952, 82.579 160.604, 83.441 160.636, 83.494 " />
            <path fill="none" stroke-width="3.0" stroke-linecap="butt" stroke-opacity="1.0" stroke="rgb(0, 0, 0)" stroke-linejoin="round" d=" M 190.137, 125.089 197.065, 117.877 198.073, 116.828 199.034, 106.874 199.856, 98.365 198.403, 90.659 198.246, 86.026 193.760, 77.089 190.917, 71.425 186.129, 62.646 182.307, 55.637 179.531, 52.843 172.993, 45.277 169.637, 41.393 163.755, 35.961 161.796, 34.109 152.816, 29.710 143.836, 25.311 142.186, 24.503 140.497, 24.416 130.497, 24.512 120.498, 24.608 110.498, 24.705 103.604, 24.771 100.500, 24.926 100.369, 24.929 91.953, 30.330 83.537, 35.732 83.032, 36.056 79.958, 38.446 74.203, 46.625 70.164, 52.364 63.844, 60.114 63.540, 60.487 60.049, 69.858 56.544, 79.266 56.084, 87.278 55.464, 91.549 56.440, 101.593 58.504, 111.378 59.299, 115.148 61.780, 118.281 67.774, 126.285 68.430, 127.161 68.312, 127.201 " />
            <path fill="none" stroke-width="3.0" stroke-linecap="butt" stroke-opacity="1.0" stroke="rgb(0, 0, 0)" stroke-linejoin="round" d=" M 128.614, 139.249 131.202, 142.533 " />
            <path fill="none" stroke-width="3.0" stroke-linecap="butt" stroke-opacity="1.0" stroke="rgb(0, 0, 0)" stroke-linejoin="round" d=" M 128.894, 197.326 137.701, 196.503 139.814, 194.672 140.730, 193.879 142.010, 192.769 144.055, 190.996 " />
            <path fill="none" stroke-width="3.0" stroke-linecap="butt" stroke-opacity="1.0" stroke="rgb(0, 0, 0)" stroke-linejoin="round" d=" M 87.877, 189.195 92.434, 194.059 93.314, 194.999 101.201, 196.394 " />
            <path fill="none" stroke-width="3.0" stroke-linecap="butt" stroke-opacity="1.0" stroke="rgb(0, 0, 0)" stroke-linejoin="round" d=" M 74.577, 109.554 79.031, 102.851 83.632, 97.835 91.806, 94.472 100.163, 95.228 " />
            <path fill="none" stroke-width="3.0" stroke-linecap="butt" stroke-opacity="1.0" stroke="rgb(0, 0, 0)" stroke-linejoin="round" d=" M 109.805, 106.398 107.398, 98.780 103.732, 91.126 98.304, 87.254 " />
            <path fill="none" stroke-width="3.0" stroke-linecap="butt" stroke-opacity="1.0" stroke="rgb(0, 0, 0)" stroke-linejoin="round" d=" M 128.866, 99.399 133.816, 95.218 143.655, 94.414 153.160, 97.819 158.465, 102.950 163.539, 109.862 " />
            <path fill="none" stroke-width="3.0" stroke-linecap="butt" stroke-opacity="1.0" stroke="rgb(0, 0, 0)" stroke-linejoin="round" d=" M 130.945, 89.794 125.346, 96.408 123.287, 106.193 123.236, 106.438 " />
            <path fill="none" stroke-width="3.0" stroke-linecap="butt" stroke-opacity="1.0" stroke="rgb(0, 0, 0)" stroke-linejoin="round" d=" M 131.871, 114.217 130.093, 114.862 " />
            <path fill="none" stroke-width="3.0" stroke-linecap="butt" stroke-opacity="1.0" stroke="rgb(0, 0, 0)" stroke-linejoin="round" d=" M 133.357, 143.384 143.061, 142.162 148.208, 136.779 150.794, 129.343 150.807, 119.343 150.807, 118.642 147.211, 109.967 140.503, 104.594 130.899, 105.979 128.257, 111.186 128.104, 115.583 " />
            <path fill="none" stroke-width="3.0" stroke-linecap="butt" stroke-opacity="1.0" stroke="rgb(0, 0, 0)" stroke-linejoin="round" d=" M 107.582, 112.360 105.384, 107.170 97.077, 105.756 91.627, 110.973 88.579, 119.036 88.598, 129.036 88.599, 129.332 90.496, 136.548 94.376, 140.582 " />
            <path fill="none" stroke-width="3.0" stroke-linecap="butt" stroke-opacity="1.0" stroke="rgb(0, 0, 0)" stroke-linejoin="round" d=" M 179.870, 102.149 172.815, 95.062 166.319, 88.536 " />
            <path fill="none" stroke-width="3.0" stroke-linecap="butt" stroke-opacity="1.0" stroke="rgb(0, 0, 0)" stroke-linejoin="round" d=" M 62.078, 119.169 65.373, 123.831 65.420, 128.505 65.432, 129.720 66.094, 129.744 65.961, 131.014 63.951, 133.712 60.227, 140.373 59.106, 142.379 59.106, 147.949 59.966, 150.546 60.011, 150.681 62.783, 153.248 62.809, 157.829 62.815, 158.808 62.727, 168.807 62.724, 169.114 63.930, 171.989 64.561, 174.913 69.958, 183.332 73.146, 188.307 82.244, 192.458 88.494, 195.309 91.338, 199.584 95.858, 201.780 " />
            <path fill="none" stroke-width="3.0" stroke-linecap="butt" stroke-opacity="1.0" stroke="rgb(0, 0, 0)" stroke-linejoin="round" d=" M 95.858, 201.780 95.899, 202.135 98.611, 206.678 98.657, 206.733 107.397, 211.594 108.106, 211.988 118.093, 212.508 119.950, 212.604 121.505, 215.503 121.506, 215.504 121.497, 215.499 121.505, 215.503 121.511, 215.506 130.689, 211.535 131.683, 211.105 135.579, 210.102 143.209, 206.731 148.580, 203.677 157.743, 199.672 166.906, 195.668 168.501, 194.971 168.950, 194.643 169.232, 194.399 174.723, 186.041 180.214, 177.684 180.545, 177.180 182.590, 172.376 182.950, 170.984 183.502, 168.415 185.247, 160.291 185.343, 158.436 185.513, 157.894 185.805, 157.745 190.532, 149.166 191.141, 146.333 188.510, 139.002 186.366, 134.108 187.779, 127.341 " />
            <path fill="none" stroke-width="3.0" stroke-linecap="butt" stroke-opacity="1.0" stroke="rgb(0, 0, 0)" stroke-linejoin="round" d=" M 80.780, 78.403 71.637, 82.455 69.439, 83.429 64.505, 85.419 59.453, 94.049 57.087, 98.091 65.243, 100.238 63.180, 101.437 61.617, 104.626 66.853, 103.577 " />
            <path fill="none" stroke-width="3.0" stroke-linecap="butt" stroke-opacity="1.0" stroke="rgb(0, 0, 0)" stroke-linejoin="round" d=" M 142.010, 192.769 144.798, 191.945 144.367, 194.206 141.572, 193.922 142.498, 192.775 140.709, 194.154 140.730, 193.879 " />
            <path fill="none" stroke-width="3.0" stroke-linecap="butt" stroke-opacity="1.0" stroke="rgb(0, 0, 0)" stroke-linejoin="round" d=" M 121.193, 212.498 131.104, 211.164 131.438, 211.119 131.785, 211.072 134.833, 209.650 138.748, 206.358 " />
            <path fill="none" stroke-width="3.0" stroke-linecap="butt" stroke-opacity="1.0" stroke="rgb(0, 0, 0)" stroke-linejoin="round" d=" M 102.641, 138.169 102.633, 138.045 102.279, 138.241 102.641, 138.169 107.130, 137.273 111.324, 136.436 107.191, 137.170 98.385, 138.731 97.052, 138.968 96.959, 138.984 94.376, 140.582 91.434, 142.402 83.278, 146.973 81.322, 151.138 78.893, 152.728 79.613, 156.030 78.778, 157.628 78.474, 158.210 77.480, 166.350 78.428, 175.640 85.168, 183.027 87.666, 185.764 88.476, 186.772 88.812, 186.894 92.497, 188.234 94.683, 189.029 94.756, 189.042 95.081, 189.101 96.067, 189.279 96.366, 189.333 96.653, 189.364 106.592, 190.466 110.116, 190.856 120.067, 189.863 121.143, 189.756 121.998, 189.474 125.970, 188.165 129.129, 186.200 134.618, 182.786 136.212, 180.974 138.141, 178.782 139.441, 177.305 142.087, 168.154 142.890, 164.387 142.712, 163.071 142.515, 161.613 141.592, 159.607 139.156, 149.908 138.445, 147.077 134.636, 144.551 133.357, 143.384 132.783, 142.861 128.407, 138.869 128.366, 138.861 124.650, 138.172 124.211, 138.090 124.647, 138.167 128.335, 138.813 128.366, 138.861 128.614, 139.249 " />
            <path fill="none" stroke-width="3.0" stroke-linecap="butt" stroke-opacity="1.0" stroke="rgb(0, 0, 0)" stroke-linejoin="round" d=" M 59.966, 150.546 60.474, 155.141 62.809, 157.829 " />
            <path fill="none" stroke-width="3.0" stroke-linecap="butt" stroke-opacity="1.0" stroke="rgb(0, 0, 0)" stroke-linejoin="round" d=" M 78.778, 157.628 75.187, 153.307 70.476, 146.121 69.272, 144.285 67.149, 148.866 63.888, 155.419 63.649, 159.138 63.632, 159.322 63.463, 161.146 64.245, 164.946 64.737, 167.010 65.894, 171.217 66.773, 172.750 71.473, 174.796 73.670, 176.468 74.863, 178.968 76.543, 183.194 79.444, 186.483 80.612, 187.749 83.475, 188.350 87.324, 188.621 87.897, 189.146 91.201, 192.174 92.434, 194.059 " />
            <path fill="none" stroke-width="3.0" stroke-linecap="butt" stroke-opacity="1.0" stroke="rgb(0, 0, 0)" stroke-linejoin="round" d=" M 65.420, 128.505 65.213, 128.614 61.442, 133.235 61.128, 136.610 60.227, 140.373 " />
            <path fill="none" stroke-width="3.0" stroke-linecap="butt" stroke-opacity="1.0" stroke="rgb(0, 0, 0)" stroke-linejoin="round" d=" M 100.916, 95.964 103.705, 99.097 106.096, 101.481 " />
            <path fill="none" stroke-width="3.0" stroke-linecap="butt" stroke-opacity="1.0" stroke="rgb(0, 0, 0)" stroke-linejoin="round" d=" M 103.576, 113.899 102.842, 113.718 100.401, 114.466 96.605, 115.926 96.376, 116.307 95.077, 118.388 93.820, 121.190 93.685, 121.462 93.233, 127.816 93.205, 128.314 93.288, 128.826 94.298, 135.322 94.329, 135.372 94.465, 135.665 97.052, 138.968 " />
            <path fill="none" stroke-width="3.0" stroke-linecap="butt" stroke-opacity="1.0" stroke="rgb(0, 0, 0)" stroke-linejoin="round" d=" M 104.641, 195.005 108.051, 196.863 118.007, 197.796 118.310, 197.824 125.064, 198.541 128.653, 197.213 " />
            <path fill="none" stroke-width="3.0" stroke-linecap="butt" stroke-opacity="1.0" stroke="rgb(0, 0, 0)" stroke-linejoin="round" d=" M 134.844, 142.159 137.257, 141.396 138.933, 140.783 140.534, 138.498 142.652, 135.325 142.999, 133.117 143.609, 128.068 142.774, 122.775 142.447, 120.934 139.875, 117.486 138.639, 115.842 135.479, 114.977 132.120, 114.144 131.893, 114.224 130.093, 114.862 " />
            <path fill="none" stroke-width="3.0" stroke-linecap="butt" stroke-opacity="1.0" stroke="rgb(0, 0, 0)" stroke-linejoin="round" d=" M 139.814, 194.672 140.740, 193.735 141.565, 192.900 143.855, 190.583 143.914, 190.524 147.422, 190.513 151.252, 189.977 153.739, 187.413 155.694, 185.563 157.190, 182.241 158.014, 180.573 158.868, 178.846 164.194, 176.924 166.913, 175.294 168.115, 172.088 170.035, 169.642 170.850, 166.627 171.342, 165.012 171.770, 163.605 171.755, 163.317 171.692, 162.133 171.619, 160.767 171.345, 157.644 167.090, 149.519 165.293, 145.917 161.487, 149.369 154.953, 156.940 152.910, 159.307 143.529, 162.770 142.712, 163.071 " />
            <path fill="none" stroke-width="3.0" stroke-linecap="butt" stroke-opacity="1.0" stroke="rgb(0, 0, 0)" stroke-linejoin="round" d=" M 183.502, 168.415 185.298, 169.073 188.426, 168.561 191.417, 166.901 195.793, 160.965 198.126, 158.987 199.799, 151.265 200.254, 147.111 199.343, 143.029 197.169, 136.457 196.328, 133.974 192.433, 129.982 190.254, 129.252 187.660, 128.683 190.137, 125.089 " />
        </g>
    </g>
</svg>
