<?xml version='1.0' encoding='ascii'?>
<svg xmlns="http://www.w3.org/2000/svg" version="1.1" width="250" height="250">
    <g id="ViewLayer_LineSet" xmlns:inkscape="http://www.inkscape.org/namespaces/inkscape" inkscape:groupmode="lineset" inkscape:label="ViewLayer_LineSet">
        <g xmlns:inkscape="http://www.inkscape.org/namespaces/inkscape" inkscape:groupmode="layer" id="strokes" inkscape:label="strokes">
            <path fill="none" stroke-width="3.0" stroke-linecap="butt" stroke-opacity="1.0" stroke="rgb(0, 0, 0)" stroke-linejoin="round" d=" M 143.009, 156.208 147.524, 156.953 147.626, 156.922 147.761, 156.862 151.252, 153.823 152.170, 153.193 153.445, 151.187 154.188, 150.018 154.962, 148.877 156.379, 144.432 156.764, 143.182 156.744, 142.159 156.911, 137.261 156.810, 137.007 156.693, 136.195 154.938, 134.211 153.659, 132.868 152.767, 132.719 152.202, 132.625 151.274, 132.463 " />
            <path fill="none" stroke-width="3.0" stroke-linecap="butt" stroke-opacity="1.0" stroke="rgb(0, 0, 0)" stroke-linejoin="round" d=" M 200.009, 126.071 193.175, 120.607 189.695, 118.911 186.953, 117.226 186.125, 116.537 185.546, 117.281 181.706, 115.999 " />
            <path fill="none" stroke-width="3.0" stroke-linecap="butt" stroke-opacity="1.0" stroke="rgb(0, 0, 0)" stroke-linejoin="round" d=" M 176.307, 44.154 167.743, 38.990 164.969, 37.317 154.994, 36.620 151.904, 36.404 141.918, 35.867 138.515, 35.684 128.528, 35.161 123.293, 34.886 113.300, 34.520 105.326, 34.227 101.747, 35.382 93.159, 40.505 84.570, 45.628 82.941, 46.600 74.676, 51.945 68.926, 59.651 61.071, 65.840 56.797, 69.207 52.185, 75.258 49.671, 84.937 49.014, 87.468 44.839, 96.555 43.928, 98.538 45.376, 107.043 51.070, 113.838 56.605, 119.142 55.819, 119.349 54.936, 118.902 46.245, 118.155 46.206, 118.166 42.574, 127.483 42.485, 127.710 41.718, 132.332 42.149, 135.846 44.259, 143.504 47.149, 146.380 53.689, 153.945 54.183, 154.516 59.127, 155.714 60.738, 155.751 " />
            <path fill="none" stroke-width="3.0" stroke-linecap="butt" stroke-opacity="1.0" stroke="rgb(0, 0, 0)" stroke-linejoin="round" d=" M 74.813, 125.501 75.163, 125.255 75.671, 124.896 75.196, 124.724 74.300, 125.061 74.679, 125.087 75.163, 125.255 75.179, 125.260 74.813, 125.501 " />
            <path fill="none" stroke-width="3.0" stroke-linecap="butt" stroke-opacity="1.0" stroke="rgb(0, 0, 0)" stroke-linejoin="round" d=" M 155.649, 166.056 153.332, 165.284 " />
            <path fill="none" stroke-width="3.0" stroke-linecap="butt" stroke-opacity="1.0" stroke="rgb(0, 0, 0)" stroke-linejoin="round" d=" M 152.737, 132.666 151.274, 132.463 148.314, 132.053 " />
            <path fill="none" stroke-width="3.0" stroke-linecap="butt" stroke-opacity="1.0" stroke="rgb(0, 0, 0)" stroke-linejoin="round" d=" M 101.504, 135.958 100.904, 143.087 103.162, 150.237 107.823, 154.555 " />
            <path fill="none" stroke-width="3.0" stroke-linecap="butt" stroke-opacity="1.0" stroke="rgb(0, 0, 0)" stroke-linejoin="round" d=" M 126.032, 131.956 123.779, 126.694 " />
            <path fill="none" stroke-width="3.0" stroke-linecap="butt" stroke-opacity="1.0" stroke="rgb(0, 0, 0)" stroke-linejoin="round" d=" M 157.519, 147.494 160.336, 140.752 162.205, 132.207 160.839, 125.615 " />
            <path fill="none" stroke-width="3.0" stroke-linecap="butt" stroke-opacity="1.0" stroke="rgb(0, 0, 0)" stroke-linejoin="round" d=" M 109.628, 182.274 100.303, 178.936 97.329, 175.927 91.492, 167.807 91.308, 167.550 86.338, 166.670 81.499, 174.735 81.385, 176.359 81.077, 179.902 81.654, 182.062 82.713, 185.195 84.546, 189.268 85.678, 190.909 90.827, 192.545 93.226, 194.002 93.554, 194.641 94.304, 196.105 95.695, 199.076 99.369, 202.324 99.947, 202.818 100.873, 202.926 101.433, 202.936 106.524, 203.024 108.099, 204.183 111.916, 206.992 112.582, 207.482 112.097, 207.406 115.999, 208.325 " />
            <path fill="none" stroke-width="3.0" stroke-linecap="butt" stroke-opacity="1.0" stroke="rgb(0, 0, 0)" stroke-linejoin="round" d=" M 57.729, 121.904 59.429, 130.569 57.670, 138.724 56.396, 145.365 56.892, 148.366 60.738, 155.751 61.504, 157.221 62.025, 157.698 62.395, 158.542 62.465, 160.631 64.317, 168.219 64.633, 169.630 66.310, 174.905 70.793, 181.339 76.851, 189.295 77.280, 189.857 86.957, 192.379 90.493, 193.300 93.554, 194.641 " />
            <path fill="none" stroke-width="3.0" stroke-linecap="butt" stroke-opacity="1.0" stroke="rgb(0, 0, 0)" stroke-linejoin="round" d=" M 114.702, 191.618 112.233, 188.784 113.035, 193.604 114.268, 201.013 114.831, 204.392 115.757, 207.511 115.999, 208.325 116.479, 209.940 116.909, 211.386 123.526, 215.003 127.787, 217.555 132.296, 218.251 137.513, 218.358 147.478, 217.528 154.401, 216.952 157.347, 216.440 158.815, 216.041 165.739, 208.831 170.027, 205.240 172.287, 200.286 173.791, 191.390 174.002, 188.594 172.634, 186.988 170.312, 184.261 169.780, 183.636 165.951, 175.922 165.556, 175.584 160.199, 171.003 155.649, 166.056 " />
            <path fill="none" stroke-width="3.0" stroke-linecap="butt" stroke-opacity="1.0" stroke="rgb(0, 0, 0)" stroke-linejoin="round" d=" M 101.504, 135.958 101.557, 134.654 101.643, 134.073 101.665, 134.041 " />
            <path fill="none" stroke-width="3.0" stroke-linecap="butt" stroke-opacity="1.0" stroke="rgb(0, 0, 0)" stroke-linejoin="round" d=" M 101.433, 202.936 102.019, 203.806 102.238, 203.957 102.276, 203.984 106.621, 206.225 113.470, 209.054 115.342, 209.832 116.479, 209.940 " />
            <path fill="none" stroke-width="3.0" stroke-linecap="butt" stroke-opacity="1.0" stroke="rgb(0, 0, 0)" stroke-linejoin="round" d=" M 108.099, 204.183 111.341, 206.914 " />
            <path fill="none" stroke-width="3.0" stroke-linecap="butt" stroke-opacity="1.0" stroke="rgb(0, 0, 0)" stroke-linejoin="round" d=" M 113.871, 134.011 111.396, 137.232 110.446, 138.434 109.718, 142.188 109.155, 144.988 109.751, 149.169 110.098, 151.508 112.729, 155.339 113.440, 156.320 117.856, 157.555 118.703, 157.762 " />
            <path fill="none" stroke-width="3.0" stroke-linecap="butt" stroke-opacity="1.0" stroke="rgb(0, 0, 0)" stroke-linejoin="round" d=" M 145.734, 133.502 145.807, 133.060 146.236, 129.622 " />
            <path fill="none" stroke-width="3.0" stroke-linecap="butt" stroke-opacity="1.0" stroke="rgb(0, 0, 0)" stroke-linejoin="round" d=" M 172.634, 186.988 174.234, 186.129 177.082, 182.755 177.863, 180.319 178.176, 179.885 179.730, 175.670 180.089, 174.772 180.508, 171.280 180.617, 169.968 178.556, 163.736 177.358, 160.114 171.492, 168.213 168.297, 172.622 167.365, 174.022 167.136, 174.142 165.556, 175.584 " />
            <path fill="none" stroke-width="3.0" stroke-linecap="butt" stroke-opacity="1.0" stroke="rgb(0, 0, 0)" stroke-linejoin="round" d=" M 178.556, 163.736 178.212, 153.742 178.181, 152.833 180.632, 147.598 180.778, 147.036 180.981, 146.650 182.381, 140.562 179.583, 133.254 177.896, 130.242 176.594, 127.916 176.484, 126.038 " />
            <path fill="none" stroke-width="3.0" stroke-linecap="butt" stroke-opacity="1.0" stroke="rgb(0, 0, 0)" stroke-linejoin="round" d=" M 180.745, 115.604 186.059, 107.133 187.276, 105.191 190.337, 98.465 192.356, 91.032 195.276, 81.467 195.554, 80.557 193.398, 70.792 193.047, 69.201 188.947, 62.329 184.525, 53.360 184.042, 52.381 179.835, 47.956 176.307, 44.154 " />
        </g>
    </g>
</svg>
