<?xml version='1.0' encoding='ascii'?>
<svg xmlns="http://www.w3.org/2000/svg" version="1.1" width="250" height="250">
    <g id="ViewLayer_LineSet" xmlns:inkscape="http://www.inkscape.org/namespaces/inkscape" inkscape:groupmode="lineset" inkscape:label="ViewLayer_LineSet">
        <g xmlns:inkscape="http://www.inkscape.org/namespaces/inkscape" inkscape:groupmode="layer" id="strokes" inkscape:label="strokes">
            <path fill="none" stroke-width="3.0" stroke-linecap="butt" stroke-opacity="1.0" stroke="rgb(0, 0, 0)" stroke-linejoin="round" d=" M 106.149, 189.503 109.835, 187.933 112.737, 186.697 112.998, 186.715 114.189, 186.809 117.079, 187.832 117.111, 187.843 121.263, 189.888 121.961, 190.231 " />
            <path fill="none" stroke-width="3.0" stroke-linecap="butt" stroke-opacity="1.0" stroke="rgb(0, 0, 0)" stroke-linejoin="round" d=" M 102.372, 92.809 104.245, 94.741 106.015, 96.613 " />
            <path fill="none" stroke-width="3.0" stroke-linecap="butt" stroke-opacity="1.0" stroke="rgb(0, 0, 0)" stroke-linejoin="round" d=" M 136.124, 138.270 137.506, 137.842 137.581, 137.816 138.268, 137.577 138.542, 137.481 140.453, 134.836 142.422, 131.980 142.840, 129.562 143.494, 124.704 142.699, 119.129 142.440, 117.523 139.701, 113.691 138.749, 112.368 135.080, 111.289 132.314, 110.559 128.826, 111.762 " />
            <path fill="none" stroke-width="3.0" stroke-linecap="butt" stroke-opacity="1.0" stroke="rgb(0, 0, 0)" stroke-linejoin="round" d=" M 171.729, 88.849 165.114, 81.350 162.051, 77.879 158.874, 76.751 149.528, 73.194 141.051, 69.968 " />
            <path fill="none" stroke-width="3.0" stroke-linecap="butt" stroke-opacity="1.0" stroke="rgb(0, 0, 0)" stroke-linejoin="round" d=" M 190.238, 126.787 197.442, 119.851 198.289, 119.036 199.041, 109.065 199.744, 99.748 198.376, 91.615 198.236, 87.340 193.856, 78.351 192.618, 75.810 187.911, 66.988 183.203, 58.165 182.294, 56.461 178.389, 52.488 171.876, 44.900 165.363, 37.312 162.987, 34.544 162.843, 34.458 153.849, 30.085 144.855, 25.713 141.871, 24.262 140.785, 24.360 130.796, 24.815 120.806, 25.269 110.816, 25.724 103.478, 26.058 100.933, 26.115 92.472, 31.444 85.734, 35.688 80.922, 39.314 75.111, 47.452 72.257, 51.450 65.908, 59.176 64.665, 60.689 61.137, 70.046 58.155, 77.955 57.197, 87.503 56.389, 92.172 56.957, 101.899 58.709, 111.745 59.576, 116.624 62.152, 119.810 67.900, 127.992 68.380, 128.675 68.208, 128.751 " />
            <path fill="none" stroke-width="3.0" stroke-linecap="butt" stroke-opacity="1.0" stroke="rgb(0, 0, 0)" stroke-linejoin="round" d=" M 101.351, 206.951 106.724, 210.031 108.632, 210.241 108.798, 210.259 112.904, 210.711 113.772, 212.525 " />
            <path fill="none" stroke-width="3.0" stroke-linecap="butt" stroke-opacity="1.0" stroke="rgb(0, 0, 0)" stroke-linejoin="round" d=" M 90.910, 134.051 90.648, 134.193 81.856, 138.958 81.526, 139.137 80.293, 141.823 78.588, 142.607 79.298, 147.182 77.710, 149.903 77.341, 152.161 76.453, 157.591 76.899, 167.581 76.917, 167.977 80.252, 172.040 87.209, 178.044 88.945, 179.334 89.174, 179.505 91.656, 180.013 97.315, 181.172 97.903, 181.292 99.504, 181.620 108.784, 182.877 109.793, 183.014 118.013, 182.143 121.851, 181.096 130.774, 176.581 135.594, 174.142 136.917, 172.768 138.427, 171.200 141.352, 161.638 141.653, 160.654 142.285, 158.035 142.428, 157.442 142.096, 154.609 141.088, 152.267 138.718, 142.552 138.201, 140.430 137.231, 139.777 135.350, 138.511 133.158, 137.035 127.938, 132.669 122.890, 131.628 115.644, 130.133 112.785, 129.706 112.105, 129.605 106.310, 130.253 96.427, 131.778 95.981, 131.847 94.696, 132.046 94.280, 132.266 90.910, 134.051 " />
            <path fill="none" stroke-width="3.0" stroke-linecap="butt" stroke-opacity="1.0" stroke="rgb(0, 0, 0)" stroke-linejoin="round" d=" M 128.037, 193.217 130.671, 193.029 137.004, 192.576 139.704, 190.301 139.936, 190.106 140.331, 189.773 143.505, 187.099 " />
            <path fill="none" stroke-width="3.0" stroke-linecap="butt" stroke-opacity="1.0" stroke="rgb(0, 0, 0)" stroke-linejoin="round" d=" M 86.512, 185.297 91.915, 191.063 99.900, 192.275 " />
            <path fill="none" stroke-width="3.0" stroke-linecap="butt" stroke-opacity="1.0" stroke="rgb(0, 0, 0)" stroke-linejoin="round" d=" M 74.843, 106.172 79.418, 99.408 84.090, 94.297 92.265, 90.671 100.541, 91.086 " />
            <path fill="none" stroke-width="3.0" stroke-linecap="butt" stroke-opacity="1.0" stroke="rgb(0, 0, 0)" stroke-linejoin="round" d=" M 109.951, 101.878 107.664, 94.220 104.145, 86.935 98.830, 83.373 " />
            <path fill="none" stroke-width="3.0" stroke-linecap="butt" stroke-opacity="1.0" stroke="rgb(0, 0, 0)" stroke-linejoin="round" d=" M 131.153, 85.690 125.527, 92.028 123.377, 101.794 123.323, 102.042 128.543, 95.460 133.957, 91.149 143.741, 90.663 153.063, 94.283 153.173, 94.326 158.435, 99.527 163.476, 106.492 " />
            <path fill="none" stroke-width="3.0" stroke-linecap="butt" stroke-opacity="1.0" stroke="rgb(0, 0, 0)" stroke-linejoin="round" d=" M 137.231, 139.777 142.866, 139.354 148.063, 133.943 150.695, 126.583 150.752, 116.583 150.756, 115.785 147.208, 106.993 140.556, 101.477 130.977, 102.555 128.294, 107.630 128.096, 112.006 " />
            <path fill="none" stroke-width="3.0" stroke-linecap="butt" stroke-opacity="1.0" stroke="rgb(0, 0, 0)" stroke-linejoin="round" d=" M 107.670, 108.758 105.560, 103.735 97.321, 102.677 91.807, 108.219 88.620, 116.373 88.448, 126.371 88.443, 126.669 90.204, 133.727 " />
            <path fill="none" stroke-width="3.0" stroke-linecap="butt" stroke-opacity="1.0" stroke="rgb(0, 0, 0)" stroke-linejoin="round" d=" M 175.088, 99.605 179.449, 98.294 173.121, 90.552 171.729, 88.849 " />
            <path fill="none" stroke-width="3.0" stroke-linecap="butt" stroke-opacity="1.0" stroke="rgb(0, 0, 0)" stroke-linejoin="round" d=" M 62.690, 120.910 65.443, 124.852 65.288, 129.979 66.090, 129.819 66.047, 130.254 65.951, 131.242 63.078, 134.827 60.845, 138.386 58.604, 141.959 58.508, 147.537 59.081, 149.335 59.434, 150.440 62.038, 152.392 61.911, 157.301 61.815, 160.070 61.527, 168.385 62.301, 170.539 62.583, 172.365 67.820, 180.883 72.882, 189.117 81.852, 193.538 81.949, 193.585 83.504, 196.463 92.320, 201.184 95.553, 202.916 100.200, 205.771 100.238, 205.792 " />
            <path fill="none" stroke-width="3.0" stroke-linecap="butt" stroke-opacity="1.0" stroke="rgb(0, 0, 0)" stroke-linejoin="round" d=" M 113.772, 212.525 120.979, 215.936 127.346, 213.385 136.489, 211.475 140.075, 210.037 148.249, 205.255 157.268, 200.936 162.013, 198.664 168.154, 194.045 171.713, 190.892 177.140, 182.493 180.191, 177.771 182.711, 171.733 182.896, 170.973 183.119, 170.055 185.235, 160.282 185.762, 157.850 184.829, 157.990 185.481, 157.603 185.822, 157.720 190.749, 149.101 191.273, 146.400 188.626, 139.531 186.430, 134.817 187.765, 129.026 " />
            <path fill="none" stroke-width="3.0" stroke-linecap="butt" stroke-opacity="1.0" stroke="rgb(0, 0, 0)" stroke-linejoin="round" d=" M 101.701, 68.896 91.702, 69.076 87.498, 69.151 86.494, 69.171 77.514, 73.572 71.216, 76.658 64.544, 79.540 60.286, 88.589 57.645, 94.202 64.311, 97.133 62.520, 98.381 61.424, 101.549 67.543, 101.757 " />
            <path fill="none" stroke-width="3.0" stroke-linecap="butt" stroke-opacity="1.0" stroke="rgb(0, 0, 0)" stroke-linejoin="round" d=" M 139.704, 190.301 140.299, 190.111 140.576, 190.022 141.454, 189.788 141.610, 189.746 141.796, 189.696 141.629, 190.504 141.025, 190.411 140.724, 190.364 141.454, 189.788 141.846, 189.478 141.610, 189.746 " />
            <path fill="none" stroke-width="3.0" stroke-linecap="butt" stroke-opacity="1.0" stroke="rgb(0, 0, 0)" stroke-linejoin="round" d=" M 141.025, 190.411 140.177, 191.374 140.299, 190.111 " />
            <path fill="none" stroke-width="3.0" stroke-linecap="butt" stroke-opacity="1.0" stroke="rgb(0, 0, 0)" stroke-linejoin="round" d=" M 96.647, 200.888 96.734, 201.700 97.600, 203.042 100.238, 205.792 101.351, 206.951 " />
            <path fill="none" stroke-width="3.0" stroke-linecap="butt" stroke-opacity="1.0" stroke="rgb(0, 0, 0)" stroke-linejoin="round" d=" M 59.081, 149.335 59.210, 151.791 59.705, 157.768 61.815, 160.070 " />
            <path fill="none" stroke-width="3.0" stroke-linecap="butt" stroke-opacity="1.0" stroke="rgb(0, 0, 0)" stroke-linejoin="round" d=" M 77.341, 152.161 73.914, 148.108 69.713, 141.793 68.630, 140.164 66.126, 145.342 63.053, 151.221 62.710, 155.021 62.470, 157.014 63.152, 160.800 63.600, 162.907 64.211, 165.324 64.600, 166.863 65.565, 168.583 70.044, 170.469 72.383, 172.199 73.600, 174.898 75.148, 179.047 77.829, 182.180 79.177, 183.691 82.699, 184.418 86.034, 184.589 86.596, 185.091 89.348, 187.554 90.387, 189.432 " />
            <path fill="none" stroke-width="3.0" stroke-linecap="butt" stroke-opacity="1.0" stroke="rgb(0, 0, 0)" stroke-linejoin="round" d=" M 66.047, 130.254 64.353, 131.591 61.158, 135.492 60.845, 138.386 " />
            <path fill="none" stroke-width="3.0" stroke-linecap="butt" stroke-opacity="1.0" stroke="rgb(0, 0, 0)" stroke-linejoin="round" d=" M 106.271, 111.172 102.592, 110.249 100.761, 110.827 96.667, 112.452 96.546, 112.553 96.516, 112.570 93.946, 117.778 93.744, 118.166 93.097, 124.448 93.056, 124.946 93.125, 125.445 93.777, 130.753 94.008, 131.806 94.046, 131.969 94.280, 132.266 " />
            <path fill="none" stroke-width="3.0" stroke-linecap="butt" stroke-opacity="1.0" stroke="rgb(0, 0, 0)" stroke-linejoin="round" d=" M 102.297, 191.212 107.266, 194.081 115.346, 194.879 123.955, 195.859 129.184, 193.822 130.671, 193.029 " />
            <path fill="none" stroke-width="3.0" stroke-linecap="butt" stroke-opacity="1.0" stroke="rgb(0, 0, 0)" stroke-linejoin="round" d=" M 139.936, 190.106 140.340, 189.688 143.290, 186.630 143.384, 186.532 146.333, 186.569 150.881, 185.949 153.234, 183.520 155.396, 181.466 156.836, 178.258 158.645, 174.587 163.716, 172.853 166.744, 171.124 167.910, 168.090 169.956, 165.534 170.741, 162.603 171.678, 159.469 171.507, 156.585 171.204, 153.428 167.203, 145.833 165.141, 141.696 160.560, 145.639 153.847, 153.051 152.620, 154.405 143.185, 157.719 142.285, 158.035 " />
            <path fill="none" stroke-width="3.0" stroke-linecap="butt" stroke-opacity="1.0" stroke="rgb(0, 0, 0)" stroke-linejoin="round" d=" M 163.246, 99.143 163.233, 97.789 159.988, 91.911 159.509, 91.186 159.050, 90.924 " />
            <path fill="none" stroke-width="3.0" stroke-linecap="butt" stroke-opacity="1.0" stroke="rgb(0, 0, 0)" stroke-linejoin="round" d=" M 182.896, 170.973 183.495, 171.272 188.436, 170.640 193.005, 168.342 196.356, 163.657 198.484, 161.989 200.111, 154.093 200.535, 150.004 199.562, 145.868 197.426, 139.438 196.490, 136.536 191.896, 131.810 191.109, 131.518 187.723, 130.575 190.238, 126.787 " />
        </g>
    </g>
</svg>
