<?xml version='1.0' encoding='ascii'?>
<svg xmlns="http://www.w3.org/2000/svg" version="1.1" width="250" height="250">
    <g id="ViewLayer_LineSet" xmlns:inkscape="http://www.inkscape.org/namespaces/inkscape" inkscape:groupmode="lineset" inkscape:label="ViewLayer_LineSet">
        <g xmlns:inkscape="http://www.inkscape.org/namespaces/inkscape" inkscape:groupmode="layer" id="strokes" inkscape:label="strokes">
            <path fill="none" stroke-width="3.0" stroke-linecap="butt" stroke-opacity="1.0" stroke="rgb(0, 0, 0)" stroke-linejoin="round" d=" M 93.448, 131.162 91.838, 131.564 89.611, 132.269 89.113, 132.999 88.371, 134.101 88.137, 136.766 87.959, 137.555 88.603, 141.434 88.861, 143.250 89.584, 145.376 90.800, 148.793 91.865, 150.224 92.538, 151.249 93.729, 153.060 94.700, 153.652 97.493, 155.980 98.113, 156.138 98.767, 156.238 99.502, 156.035 99.745, 155.967 " />
            <path fill="none" stroke-width="3.0" stroke-linecap="butt" stroke-opacity="1.0" stroke="rgb(0, 0, 0)" stroke-linejoin="round" d=" M 191.907, 120.540 199.042, 113.533 203.542, 109.114 205.856, 106.014 206.310, 102.330 201.722, 93.445 198.645, 87.485 195.146, 78.118 192.809, 71.861 192.660, 71.653 184.617, 65.711 176.574, 59.768 176.177, 59.475 169.684, 51.869 168.211, 50.144 161.639, 46.185 152.884, 41.353 144.129, 36.522 140.339, 34.431 137.524, 33.658 127.538, 34.192 119.068, 34.644 109.094, 35.364 102.559, 35.836 92.586, 36.564 90.740, 36.699 80.779, 37.585 79.306, 37.716 70.923, 43.169 64.979, 47.035 64.479, 47.628 63.945, 48.231 60.111, 57.466 57.704, 63.263 53.041, 72.109 52.071, 73.947 51.674, 77.055 55.022, 86.477 56.979, 91.987 60.647, 101.290 60.863, 101.836 60.966, 102.034 61.195, 102.373 66.936, 110.561 69.015, 113.527 " />
            <path fill="none" stroke-width="3.0" stroke-linecap="butt" stroke-opacity="1.0" stroke="rgb(0, 0, 0)" stroke-linejoin="round" d=" M 191.658, 147.992 192.151, 146.514 191.900, 145.027 191.539, 142.894 191.096, 141.110 188.713, 131.492 189.258, 128.858 190.111, 124.735 189.945, 127.108 189.258, 128.858 186.955, 134.719 " />
            <path fill="none" stroke-width="3.0" stroke-linecap="butt" stroke-opacity="1.0" stroke="rgb(0, 0, 0)" stroke-linejoin="round" d=" M 132.705, 207.049 137.298, 203.170 " />
            <path fill="none" stroke-width="3.0" stroke-linecap="butt" stroke-opacity="1.0" stroke="rgb(0, 0, 0)" stroke-linejoin="round" d=" M 96.300, 130.333 93.382, 125.547 " />
            <path fill="none" stroke-width="3.0" stroke-linecap="butt" stroke-opacity="1.0" stroke="rgb(0, 0, 0)" stroke-linejoin="round" d=" M 127.016, 133.359 120.811, 132.373 117.123, 134.037 " />
            <path fill="none" stroke-width="3.0" stroke-linecap="butt" stroke-opacity="1.0" stroke="rgb(0, 0, 0)" stroke-linejoin="round" d=" M 116.711, 130.086 117.123, 134.037 " />
            <path fill="none" stroke-width="3.0" stroke-linecap="butt" stroke-opacity="1.0" stroke="rgb(0, 0, 0)" stroke-linejoin="round" d=" M 99.502, 156.035 99.672, 156.146 99.745, 155.967 " />
            <path fill="none" stroke-width="3.0" stroke-linecap="butt" stroke-opacity="1.0" stroke="rgb(0, 0, 0)" stroke-linejoin="round" d=" M 85.233, 125.285 84.262, 131.660 84.497, 132.795 85.091, 135.671 86.084, 140.472 88.531, 147.450 " />
            <path fill="none" stroke-width="3.0" stroke-linecap="butt" stroke-opacity="1.0" stroke="rgb(0, 0, 0)" stroke-linejoin="round" d=" M 130.403, 155.974 136.632, 154.139 140.814, 149.657 142.658, 142.743 " />
            <path fill="none" stroke-width="3.0" stroke-linecap="butt" stroke-opacity="1.0" stroke="rgb(0, 0, 0)" stroke-linejoin="round" d=" M 147.444, 199.537 148.321, 201.461 148.357, 201.539 148.257, 201.549 144.818, 201.921 " />
            <path fill="none" stroke-width="3.0" stroke-linecap="butt" stroke-opacity="1.0" stroke="rgb(0, 0, 0)" stroke-linejoin="round" d=" M 181.933, 168.465 183.790, 158.639 184.082, 157.091 192.781, 157.053 196.185, 156.293 203.027, 149.000 204.416, 147.519 206.916, 145.133 209.433, 136.607 209.719, 133.751 208.762, 128.382 204.729, 119.665 203.544, 119.215 195.134, 119.868 " />
            <path fill="none" stroke-width="3.0" stroke-linecap="butt" stroke-opacity="1.0" stroke="rgb(0, 0, 0)" stroke-linejoin="round" d=" M 63.786, 112.826 60.908, 114.713 53.195, 118.306 49.908, 119.157 41.861, 124.758 41.304, 125.384 42.203, 124.966 51.623, 121.612 61.044, 118.258 66.951, 116.155 " />
            <path fill="none" stroke-width="3.0" stroke-linecap="butt" stroke-opacity="1.0" stroke="rgb(0, 0, 0)" stroke-linejoin="round" d=" M 188.189, 154.103 191.658, 147.992 " />
            <path fill="none" stroke-width="3.0" stroke-linecap="butt" stroke-opacity="1.0" stroke="rgb(0, 0, 0)" stroke-linejoin="round" d=" M 93.519, 161.251 87.600, 164.640 81.220, 170.774 77.421, 173.793 74.718, 175.941 71.914, 178.169 69.804, 181.643 69.780, 181.681 68.167, 183.234 70.020, 189.255 68.894, 195.332 69.050, 200.254 70.634, 203.419 74.265, 206.627 80.821, 214.178 81.239, 214.659 82.160, 214.907 84.243, 215.323 94.179, 216.453 101.872, 217.327 107.129, 217.347 112.985, 216.632 116.207, 214.887 120.051, 213.264 121.754, 210.341 122.170, 209.629 123.459, 207.417 125.457, 203.990 127.015, 201.318 128.260, 195.120 128.864, 192.120 128.873, 192.072 128.933, 191.773 128.873, 192.072 " />
            <path fill="none" stroke-width="3.0" stroke-linecap="butt" stroke-opacity="1.0" stroke="rgb(0, 0, 0)" stroke-linejoin="round" d=" M 73.068, 118.400 73.803, 119.188 73.961, 119.503 73.933, 128.158 69.202, 136.968 68.227, 138.785 67.823, 139.805 67.839, 140.387 69.974, 146.048 71.120, 152.194 71.126, 152.191 70.753, 161.565 70.590, 162.648 " />
            <path fill="none" stroke-width="3.0" stroke-linecap="butt" stroke-opacity="1.0" stroke="rgb(0, 0, 0)" stroke-linejoin="round" d=" M 77.421, 173.793 77.263, 173.655 76.496, 172.382 71.309, 163.832 70.590, 162.648 68.441, 159.106 65.706, 168.725 65.657, 168.898 66.252, 172.963 66.326, 173.629 68.056, 178.099 68.238, 178.560 68.956, 180.655 69.804, 181.643 " />
            <path fill="none" stroke-width="3.0" stroke-linecap="butt" stroke-opacity="1.0" stroke="rgb(0, 0, 0)" stroke-linejoin="round" d=" M 93.382, 125.547 94.988, 125.914 96.799, 129.794 96.991, 131.422 97.396, 134.848 99.444, 144.636 100.753, 150.891 101.115, 152.632 101.176, 152.927 " />
            <path fill="none" stroke-width="3.0" stroke-linecap="butt" stroke-opacity="1.0" stroke="rgb(0, 0, 0)" stroke-linejoin="round" d=" M 119.310, 156.506 119.480, 156.673 121.535, 157.065 125.712, 157.935 127.627, 157.194 130.403, 155.974 131.345, 155.561 132.267, 153.758 133.875, 150.626 133.880, 146.721 133.809, 144.071 133.221, 142.334 131.525, 137.826 130.684, 137.015 128.238, 134.597 " />
            <path fill="none" stroke-width="3.0" stroke-linecap="butt" stroke-opacity="1.0" stroke="rgb(0, 0, 0)" stroke-linejoin="round" d=" M 121.754, 210.341 123.207, 210.718 125.425, 210.684 131.733, 210.262 133.479, 209.678 140.255, 206.946 144.740, 205.164 144.894, 205.037 146.257, 204.310 148.257, 201.549 148.321, 201.461 150.803, 198.034 157.310, 194.126 167.026, 191.762 170.227, 190.983 175.210, 184.495 180.727, 176.154 180.951, 175.816 183.656, 168.463 184.106, 165.571 184.816, 162.331 184.209, 162.050 " />
            <path fill="none" stroke-width="3.0" stroke-linecap="butt" stroke-opacity="1.0" stroke="rgb(0, 0, 0)" stroke-linejoin="round" d=" M 122.170, 209.629 127.333, 208.573 132.093, 207.363 132.522, 207.069 133.162, 206.628 137.075, 203.168 137.298, 203.170 142.338, 203.231 143.577, 203.109 144.818, 201.921 146.190, 200.609 147.444, 199.537 147.639, 199.371 148.748, 196.705 149.680, 194.371 155.236, 192.477 157.329, 191.215 158.462, 188.105 160.332, 185.822 160.918, 183.529 161.956, 180.383 161.808, 178.855 161.363, 175.106 156.431, 167.581 151.593, 166.931 145.330, 174.727 141.813, 179.106 137.292, 180.667 " />
        </g>
    </g>
</svg>
