<?xml version='1.0' encoding='ascii'?>
<svg xmlns="http://www.w3.org/2000/svg" version="1.1" width="250" height="250">
    <g id="ViewLayer_LineSet" xmlns:inkscape="http://www.inkscape.org/namespaces/inkscape" inkscape:groupmode="lineset" inkscape:label="ViewLayer_LineSet">
        <g xmlns:inkscape="http://www.inkscape.org/namespaces/inkscape" inkscape:groupmode="layer" id="strokes" inkscape:label="strokes">
            <path fill="none" stroke-width="3.0" stroke-linecap="butt" stroke-opacity="1.0" stroke="rgb(0, 0, 0)" stroke-linejoin="round" d=" M 117.712, 189.583 119.738, 187.340 120.060, 187.371 121.736, 187.533 125.561, 187.294 126.952, 187.207 128.900, 185.471 131.848, 183.070 132.822, 181.025 134.938, 176.272 139.049, 175.203 143.456, 173.150 144.646, 170.900 147.938, 167.644 148.535, 165.910 150.275, 161.503 150.260, 160.002 149.960, 155.246 145.460, 146.316 145.204, 145.806 143.671, 142.705 138.527, 146.445 131.033, 153.066 128.527, 155.280 118.951, 158.161 114.651, 159.454 107.659, 161.425 " />
            <path fill="none" stroke-width="3.0" stroke-linecap="butt" stroke-opacity="1.0" stroke="rgb(0, 0, 0)" stroke-linejoin="round" d=" M 124.383, 136.192 126.207, 133.576 126.927, 132.559 128.054, 127.081 128.363, 125.257 128.143, 123.146 127.485, 117.974 126.012, 115.645 124.112, 112.604 121.435, 111.671 118.147, 110.567 114.002, 111.953 " />
            <path fill="none" stroke-width="3.0" stroke-linecap="butt" stroke-opacity="1.0" stroke="rgb(0, 0, 0)" stroke-linejoin="round" d=" M 159.147, 96.797 158.998, 96.413 151.078, 90.308 148.524, 88.340 " />
            <path fill="none" stroke-width="3.0" stroke-linecap="butt" stroke-opacity="1.0" stroke="rgb(0, 0, 0)" stroke-linejoin="round" d=" M 71.725, 104.691 75.943, 95.624 76.512, 94.402 " />
            <path fill="none" stroke-width="3.0" stroke-linecap="butt" stroke-opacity="1.0" stroke="rgb(0, 0, 0)" stroke-linejoin="round" d=" M 184.124, 146.530 188.796, 148.926 187.545, 140.347 187.401, 139.363 188.555, 137.171 188.482, 138.652 187.545, 140.347 " />
            <path fill="none" stroke-width="3.0" stroke-linecap="butt" stroke-opacity="1.0" stroke="rgb(0, 0, 0)" stroke-linejoin="round" d=" M 95.373, 105.572 95.387, 106.160 94.736, 110.663 94.736, 110.666 94.716, 110.806 94.042, 120.783 93.734, 125.355 92.451, 129.271 92.675, 129.891 " />
            <path fill="none" stroke-width="3.0" stroke-linecap="butt" stroke-opacity="1.0" stroke="rgb(0, 0, 0)" stroke-linejoin="round" d=" M 134.511, 108.338 137.604, 116.058 137.544, 117.107 137.468, 127.200 134.632, 133.903 134.103, 134.761 129.468, 139.668 128.943, 139.819 128.940, 139.820 127.303, 139.874 " />
            <path fill="none" stroke-width="3.0" stroke-linecap="butt" stroke-opacity="1.0" stroke="rgb(0, 0, 0)" stroke-linejoin="round" d=" M 104.557, 192.593 111.229, 192.683 113.360, 192.712 116.563, 190.409 120.240, 187.765 " />
            <path fill="none" stroke-width="3.0" stroke-linecap="butt" stroke-opacity="1.0" stroke="rgb(0, 0, 0)" stroke-linejoin="round" d=" M 74.625, 187.742 76.981, 188.446 79.977, 189.342 80.423, 189.475 84.636, 187.610 86.982, 186.572 " />
            <path fill="none" stroke-width="3.0" stroke-linecap="butt" stroke-opacity="1.0" stroke="rgb(0, 0, 0)" stroke-linejoin="round" d=" M 69.259, 105.898 69.852, 104.820 70.134, 104.308 72.813, 99.445 76.298, 94.532 76.512, 94.402 82.132, 90.989 87.185, 91.289 " />
            <path fill="none" stroke-width="3.0" stroke-linecap="butt" stroke-opacity="1.0" stroke="rgb(0, 0, 0)" stroke-linejoin="round" d=" M 94.670, 101.846 92.510, 94.350 90.721, 87.254 87.214, 83.844 " />
            <path fill="none" stroke-width="3.0" stroke-linecap="butt" stroke-opacity="1.0" stroke="rgb(0, 0, 0)" stroke-linejoin="round" d=" M 108.796, 92.077 106.870, 101.890 106.843, 102.028 111.748, 95.475 117.528, 91.132 127.512, 90.565 127.676, 90.555 137.052, 94.031 137.522, 94.206 142.802, 99.508 147.792, 106.678 148.105, 98.059 144.464, 90.973 " />
            <path fill="none" stroke-width="3.0" stroke-linecap="butt" stroke-opacity="1.0" stroke="rgb(0, 0, 0)" stroke-linejoin="round" d=" M 117.094, 139.501 123.248, 137.853 " />
            <path fill="none" stroke-width="3.0" stroke-linecap="butt" stroke-opacity="1.0" stroke="rgb(0, 0, 0)" stroke-linejoin="round" d=" M 134.011, 107.099 127.321, 101.489 117.404, 102.556 114.450, 107.615 114.002, 111.953 " />
            <path fill="none" stroke-width="3.0" stroke-linecap="butt" stroke-opacity="1.0" stroke="rgb(0, 0, 0)" stroke-linejoin="round" d=" M 94.924, 103.661 89.176, 102.611 85.660, 107.967 83.169, 115.822 82.690, 125.757 82.976, 129.204 " />
            <path fill="none" stroke-width="3.0" stroke-linecap="butt" stroke-opacity="1.0" stroke="rgb(0, 0, 0)" stroke-linejoin="round" d=" M 117.681, 140.193 127.303, 139.874 " />
            <path fill="none" stroke-width="3.0" stroke-linecap="butt" stroke-opacity="1.0" stroke="rgb(0, 0, 0)" stroke-linejoin="round" d=" M 195.366, 134.292 203.260, 128.153 205.510, 126.404 206.506, 128.030 208.015, 122.778 208.774, 119.756 205.879, 110.184 202.983, 100.613 201.989, 97.326 199.963, 87.534 198.718, 81.519 193.370, 73.069 188.023, 64.619 185.432, 60.525 180.683, 55.066 179.105, 52.153 171.540, 45.612 163.976, 39.072 162.331, 37.650 156.002, 32.240 146.907, 28.083 137.812, 23.926 135.791, 23.003 135.433, 22.980 133.383, 23.036 123.515, 24.660 113.648, 26.284 103.781, 27.909 100.863, 28.389 96.128, 29.204 88.335, 35.470 86.442, 36.993 79.180, 43.868 76.910, 46.018 74.953, 49.736 71.066, 55.894 68.315, 65.508 67.422, 68.627 67.501, 70.474 " />
            <path fill="none" stroke-width="3.0" stroke-linecap="butt" stroke-opacity="1.0" stroke="rgb(0, 0, 0)" stroke-linejoin="round" d=" M 75.913, 122.131 75.497, 121.145 73.973, 117.535 73.967, 117.609 73.201, 127.580 73.032, 129.783 " />
            <path fill="none" stroke-width="3.0" stroke-linecap="butt" stroke-opacity="1.0" stroke="rgb(0, 0, 0)" stroke-linejoin="round" d=" M 82.389, 190.940 78.235, 192.587 81.582, 196.586 82.508, 197.512 86.937, 202.243 94.077, 208.864 94.456, 209.187 97.197, 210.441 101.391, 210.379 107.102, 210.767 110.740, 214.249 110.594, 213.814 114.160, 215.411 120.998, 213.790 130.987, 213.335 132.338, 213.273 135.567, 212.615 144.763, 208.686 145.911, 208.196 146.195, 207.900 147.708, 206.907 155.689, 200.882 163.457, 195.017 169.500, 188.939 169.574, 188.864 174.501, 181.197 177.738, 177.784 178.779, 176.687 179.435, 175.995 180.196, 174.678 180.773, 174.875 189.517, 174.746 192.123, 174.707 201.345, 170.839 204.173, 169.653 205.557, 168.449 206.149, 168.080 209.408, 158.626 209.783, 157.537 210.152, 155.623 209.089, 149.248 205.376, 140.204 204.358, 138.310 200.795, 135.096 197.970, 134.311 195.366, 134.292 " />
            <path fill="none" stroke-width="3.0" stroke-linecap="butt" stroke-opacity="1.0" stroke="rgb(0, 0, 0)" stroke-linejoin="round" d=" M 82.749, 69.590 72.766, 70.169 67.501, 70.474 66.351, 70.540 63.688, 70.710 55.693, 76.717 55.528, 76.841 46.843, 81.797 45.681, 82.461 45.556, 85.075 54.742, 89.027 63.927, 92.980 68.133, 94.789 66.494, 97.575 69.505, 104.071 " />
            <path fill="none" stroke-width="3.0" stroke-linecap="butt" stroke-opacity="1.0" stroke="rgb(0, 0, 0)" stroke-linejoin="round" d=" M 69.852, 104.820 69.921, 104.967 70.242, 104.918 71.725, 104.691 " />
            <path fill="none" stroke-width="3.0" stroke-linecap="butt" stroke-opacity="1.0" stroke="rgb(0, 0, 0)" stroke-linejoin="round" d=" M 116.563, 190.409 118.356, 190.878 119.638, 190.445 121.720, 190.123 121.728, 191.292 121.729, 191.392 120.322, 191.239 121.728, 191.292 122.435, 191.320 122.063, 195.006 " />
            <path fill="none" stroke-width="3.0" stroke-linecap="butt" stroke-opacity="1.0" stroke="rgb(0, 0, 0)" stroke-linejoin="round" d=" M 86.978, 131.727 90.089, 129.478 90.158, 129.428 90.632, 129.394 92.675, 129.891 94.554, 130.348 95.208, 130.507 94.552, 130.375 92.716, 130.006 90.089, 129.478 89.540, 129.367 87.024, 128.968 86.714, 128.986 84.857, 129.094 82.976, 129.204 73.032, 129.783 68.486, 130.048 63.425, 130.395 62.841, 130.548 61.902, 130.801 54.691, 137.729 54.610, 137.806 54.117, 142.851 49.244, 151.590 48.267, 154.949 49.047, 159.670 53.876, 167.709 57.110, 173.872 63.289, 177.890 63.624, 178.107 64.776, 178.600 65.153, 178.663 71.758, 179.775 78.760, 180.954 82.089, 180.760 86.509, 180.502 89.434, 179.819 98.721, 176.110 100.228, 175.509 " />
            <path fill="none" stroke-width="3.0" stroke-linecap="butt" stroke-opacity="1.0" stroke="rgb(0, 0, 0)" stroke-linejoin="round" d=" M 63.289, 177.890 64.002, 178.981 64.549, 179.759 66.104, 180.280 66.444, 180.332 69.630, 180.820 71.536, 183.749 72.427, 185.118 74.337, 187.571 74.574, 187.654 75.066, 187.827 76.981, 188.446 " />
            <path fill="none" stroke-width="3.0" stroke-linecap="butt" stroke-opacity="1.0" stroke="rgb(0, 0, 0)" stroke-linejoin="round" d=" M 68.703, 94.402 68.069, 96.649 68.240, 99.303 69.621, 103.210 " />
            <path fill="none" stroke-width="3.0" stroke-linecap="butt" stroke-opacity="1.0" stroke="rgb(0, 0, 0)" stroke-linejoin="round" d=" M 70.242, 104.918 70.461, 106.164 73.390, 115.725 73.967, 117.609 " />
            <path fill="none" stroke-width="3.0" stroke-linecap="butt" stroke-opacity="1.0" stroke="rgb(0, 0, 0)" stroke-linejoin="round" d=" M 84.636, 187.610 85.312, 188.371 89.555, 191.354 98.531, 193.422 105.303, 195.206 108.348, 194.214 111.229, 192.683 " />
            <path fill="none" stroke-width="3.0" stroke-linecap="butt" stroke-opacity="1.0" stroke="rgb(0, 0, 0)" stroke-linejoin="round" d=" M 87.477, 91.307 87.677, 91.846 88.141, 94.004 92.391, 98.047 " />
            <path fill="none" stroke-width="3.0" stroke-linecap="butt" stroke-opacity="1.0" stroke="rgb(0, 0, 0)" stroke-linejoin="round" d=" M 90.771, 184.895 90.782, 184.898 91.057, 185.283 95.118, 187.108 101.641, 190.771 " />
            <path fill="none" stroke-width="3.0" stroke-linecap="butt" stroke-opacity="1.0" stroke="rgb(0, 0, 0)" stroke-linejoin="round" d=" M 93.754, 110.382 92.218, 109.936 91.119, 110.156 90.016, 110.531 88.216, 112.685 87.495, 113.216 86.063, 116.580 85.372, 118.087 84.903, 121.688 84.624, 123.929 84.731, 126.195 84.857, 129.094 " />
            <path fill="none" stroke-width="3.0" stroke-linecap="butt" stroke-opacity="1.0" stroke="rgb(0, 0, 0)" stroke-linejoin="round" d=" M 169.500, 188.939 171.309, 189.295 173.284, 189.855 176.890, 190.276 180.727, 189.026 188.858, 183.205 189.923, 182.443 191.634, 179.987 191.734, 178.373 189.534, 174.773 189.517, 174.746 " />
        </g>
    </g>
</svg>
