<?xml version='1.0' encoding='ascii'?>
<svg xmlns="http://www.w3.org/2000/svg" version="1.1" width="250" height="250">
    <g id="ViewLayer_LineSet" xmlns:inkscape="http://www.inkscape.org/namespaces/inkscape" inkscape:groupmode="lineset" inkscape:label="ViewLayer_LineSet">
        <g xmlns:inkscape="http://www.inkscape.org/namespaces/inkscape" inkscape:groupmode="layer" id="strokes" inkscape:label="strokes">
            <path fill="none" stroke-width="3.0" stroke-linecap="butt" stroke-opacity="1.0" stroke="rgb(0, 0, 0)" stroke-linejoin="round" d=" M 117.527, 190.492 120.890, 189.029 125.681, 186.944 126.022, 186.943 127.200, 186.873 128.667, 187.347 129.480, 187.610 132.003, 188.821 133.394, 189.489 " />
            <path fill="none" stroke-width="3.0" stroke-linecap="butt" stroke-opacity="1.0" stroke="rgb(0, 0, 0)" stroke-linejoin="round" d=" M 187.040, 97.183 181.769, 88.685 176.498, 80.187 175.674, 78.859 170.237, 76.677 161.081, 72.656 152.418, 68.851 151.988, 68.847 142.637, 68.775 " />
            <path fill="none" stroke-width="3.0" stroke-linecap="butt" stroke-opacity="1.0" stroke="rgb(0, 0, 0)" stroke-linejoin="round" d=" M 187.312, 122.300 191.657, 117.473 193.026, 107.568 194.396, 97.662 194.852, 94.364 194.933, 90.499 194.500, 88.687 193.963, 85.037 189.969, 75.869 185.975, 66.701 182.680, 59.140 176.337, 51.888 170.266, 43.941 165.356, 37.515 162.128, 35.280 153.454, 30.305 144.859, 25.375 142.896, 25.414 132.897, 25.289 122.898, 25.165 112.899, 25.040 105.361, 24.947 103.759, 24.867 94.960, 29.619 86.162, 34.372 85.183, 34.900 83.167, 36.224 76.867, 43.990 70.566, 51.756 70.291, 52.096 64.833, 57.967 60.533, 66.995 56.233, 76.023 51.933, 85.052 50.459, 88.146 49.991, 89.219 50.001, 89.610 49.909, 90.345 51.031, 100.282 52.154, 110.219 53.046, 118.121 58.830, 124.145 61.537, 128.091 " />
            <path fill="none" stroke-width="3.0" stroke-linecap="butt" stroke-opacity="1.0" stroke="rgb(0, 0, 0)" stroke-linejoin="round" d=" M 111.982, 209.543 112.048, 209.580 112.317, 209.730 113.079, 209.840 113.142, 210.129 " />
            <path fill="none" stroke-width="3.0" stroke-linecap="butt" stroke-opacity="1.0" stroke="rgb(0, 0, 0)" stroke-linejoin="round" d=" M 105.949, 135.932 105.229, 136.410 104.880, 136.642 101.080, 139.169 99.683, 140.097 97.110, 148.335 95.247, 150.739 93.605, 153.242 93.401, 155.998 93.221, 158.422 93.156, 162.104 95.781, 164.242 101.383, 170.159 103.447, 172.497 104.023, 173.149 110.579, 178.784 112.999, 180.864 115.015, 181.347 118.480, 182.176 127.355, 183.195 136.248, 182.057 136.509, 182.024 142.557, 180.545 143.152, 180.255 150.190, 176.824 150.665, 176.323 157.041, 169.604 159.075, 165.438 161.231, 157.520 160.772, 154.666 160.046, 150.152 157.016, 145.130 155.140, 139.681 150.773, 137.142 147.558, 135.273 147.273, 135.107 146.892, 134.858 143.029, 132.336 135.295, 130.961 131.326, 130.256 130.767, 130.184 126.749, 129.664 122.581, 130.231 120.631, 130.604 110.809, 132.484 110.607, 132.523 105.949, 135.932 " />
            <path fill="none" stroke-width="3.0" stroke-linecap="butt" stroke-opacity="1.0" stroke="rgb(0, 0, 0)" stroke-linejoin="round" d=" M 133.394, 189.489 140.552, 192.732 140.672, 192.717 149.005, 191.704 150.944, 189.826 151.363, 189.420 151.685, 189.108 154.875, 186.019 " />
            <path fill="none" stroke-width="3.0" stroke-linecap="butt" stroke-opacity="1.0" stroke="rgb(0, 0, 0)" stroke-linejoin="round" d=" M 97.164, 186.629 103.344, 192.224 112.066, 193.071 " />
            <path fill="none" stroke-width="3.0" stroke-linecap="butt" stroke-opacity="1.0" stroke="rgb(0, 0, 0)" stroke-linejoin="round" d=" M 80.361, 106.306 85.295, 99.390 90.412, 94.190 99.496, 90.540 108.737, 91.000 113.094, 94.636 " />
            <path fill="none" stroke-width="3.0" stroke-linecap="butt" stroke-opacity="1.0" stroke="rgb(0, 0, 0)" stroke-linejoin="round" d=" M 119.087, 101.885 116.866, 94.186 112.577, 86.835 106.540, 83.198 " />
            <path fill="none" stroke-width="3.0" stroke-linecap="butt" stroke-opacity="1.0" stroke="rgb(0, 0, 0)" stroke-linejoin="round" d=" M 142.289, 91.214 151.310, 90.774 159.988, 94.421 164.944, 99.541 169.726, 106.363 " />
            <path fill="none" stroke-width="3.0" stroke-linecap="butt" stroke-opacity="1.0" stroke="rgb(0, 0, 0)" stroke-linejoin="round" d=" M 139.642, 85.774 134.525, 92.054 132.365, 101.818 132.316, 102.039 " />
            <path fill="none" stroke-width="3.0" stroke-linecap="butt" stroke-opacity="1.0" stroke="rgb(0, 0, 0)" stroke-linejoin="round" d=" M 150.773, 137.142 154.120, 133.495 156.344, 126.202 156.400, 116.202 156.403, 115.560 153.086, 106.907 146.818, 101.465 137.949, 102.543 135.563, 107.601 135.513, 111.936 " />
            <path fill="none" stroke-width="3.0" stroke-linecap="butt" stroke-opacity="1.0" stroke="rgb(0, 0, 0)" stroke-linejoin="round" d=" M 114.858, 108.810 112.330, 103.760 103.121, 102.705 96.748, 108.334 93.321, 116.633 93.331, 126.633 93.331, 127.096 95.693, 134.234 100.786, 139.142 " />
            <path fill="none" stroke-width="3.0" stroke-linecap="butt" stroke-opacity="1.0" stroke="rgb(0, 0, 0)" stroke-linejoin="round" d=" M 179.047, 100.992 186.243, 100.144 185.460, 98.764 184.598, 98.262 187.040, 97.183 " />
            <path fill="none" stroke-width="3.0" stroke-linecap="butt" stroke-opacity="1.0" stroke="rgb(0, 0, 0)" stroke-linejoin="round" d=" M 61.370, 126.835 61.189, 126.558 61.362, 126.775 61.370, 126.835 61.436, 127.330 61.537, 128.091 61.811, 130.159 62.255, 133.516 61.276, 135.481 57.070, 144.511 57.256, 148.646 60.139, 154.924 61.626, 155.711 62.127, 157.677 62.008, 163.976 63.099, 169.930 63.133, 170.118 63.441, 171.143 64.866, 175.141 70.214, 183.591 75.561, 192.041 76.006, 192.743 77.168, 193.561 78.976, 195.064 87.895, 199.587 96.814, 204.111 97.805, 204.614 105.089, 208.774 110.404, 211.007 117.247, 212.918 124.314, 215.987 132.707, 212.187 137.800, 210.612 144.390, 207.281 150.130, 203.628 159.063, 199.134 167.282, 195.000 167.192, 193.896 172.464, 191.687 177.827, 183.246 181.990, 176.692 185.123, 171.693 185.317, 171.262 185.354, 171.150 185.462, 170.301 185.468, 168.173 185.493, 158.173 185.494, 157.824 185.737, 154.297 187.191, 153.633 189.638, 147.935 190.225, 143.760 185.445, 134.976 184.440, 133.130 184.061, 132.527 184.171, 130.790 184.227, 129.959 184.466, 126.404 184.483, 126.153 184.498, 125.937 185.849, 124.153 184.483, 126.153 " />
            <path fill="none" stroke-width="3.0" stroke-linecap="butt" stroke-opacity="1.0" stroke="rgb(0, 0, 0)" stroke-linejoin="round" d=" M 102.262, 68.647 101.213, 68.647 101.182, 68.647 91.947, 72.484 82.713, 76.321 81.905, 76.657 77.240, 78.425 71.348, 86.505 65.456, 94.585 62.406, 98.768 62.810, 98.940 62.628, 99.037 62.444, 99.275 69.713, 100.375 " />
            <path fill="none" stroke-width="3.0" stroke-linecap="butt" stroke-opacity="1.0" stroke="rgb(0, 0, 0)" stroke-linejoin="round" d=" M 111.546, 209.172 111.982, 209.543 " />
            <path fill="none" stroke-width="3.0" stroke-linecap="butt" stroke-opacity="1.0" stroke="rgb(0, 0, 0)" stroke-linejoin="round" d=" M 61.811, 130.159 59.286, 130.957 58.863, 131.261 54.413, 136.146 53.610, 139.424 51.957, 145.012 51.075, 148.477 51.478, 153.238 52.557, 160.347 54.952, 162.443 58.264, 168.021 61.271, 169.598 63.099, 169.930 " />
            <path fill="none" stroke-width="3.0" stroke-linecap="butt" stroke-opacity="1.0" stroke="rgb(0, 0, 0)" stroke-linejoin="round" d=" M 93.401, 155.998 88.077, 153.998 82.723, 148.767 76.630, 141.106 74.448, 145.546 70.732, 152.630 70.500, 155.898 70.217, 158.592 70.955, 161.787 71.724, 164.606 72.931, 168.050 74.447, 170.362 75.931, 170.884 78.945, 171.942 82.086, 173.893 83.706, 177.193 85.230, 180.774 87.850, 183.497 89.622, 185.276 89.669, 185.323 94.045, 186.008 97.088, 186.031 97.345, 186.221 100.364, 188.445 100.740, 189.867 " />
            <path fill="none" stroke-width="3.0" stroke-linecap="butt" stroke-opacity="1.0" stroke="rgb(0, 0, 0)" stroke-linejoin="round" d=" M 113.677, 111.384 109.293, 110.362 107.060, 111.169 103.199, 112.801 102.679, 113.736 100.000, 118.324 99.939, 119.225 99.524, 125.441 100.864, 130.766 101.332, 132.521 103.669, 135.335 104.880, 136.642 " />
            <path fill="none" stroke-width="3.0" stroke-linecap="butt" stroke-opacity="1.0" stroke="rgb(0, 0, 0)" stroke-linejoin="round" d=" M 113.094, 94.636 113.756, 95.169 113.815, 95.238 114.150, 95.628 " />
            <path fill="none" stroke-width="3.0" stroke-linecap="butt" stroke-opacity="1.0" stroke="rgb(0, 0, 0)" stroke-linejoin="round" d=" M 113.205, 192.533 117.541, 194.820 124.918, 195.083 134.260, 195.489 140.672, 192.717 " />
            <path fill="none" stroke-width="3.0" stroke-linecap="butt" stroke-opacity="1.0" stroke="rgb(0, 0, 0)" stroke-linejoin="round" d=" M 137.196, 209.958 137.328, 209.941 140.660, 208.311 147.021, 202.932 147.166, 202.766 147.199, 202.728 147.208, 202.717 147.288, 202.526 " />
            <path fill="none" stroke-width="3.0" stroke-linecap="butt" stroke-opacity="1.0" stroke="rgb(0, 0, 0)" stroke-linejoin="round" d=" M 136.879, 96.147 137.709, 95.211 139.144, 93.956 " />
            <path fill="none" stroke-width="3.0" stroke-linecap="butt" stroke-opacity="1.0" stroke="rgb(0, 0, 0)" stroke-linejoin="round" d=" M 147.558, 135.273 147.580, 135.242 150.064, 131.480 150.177, 130.724 150.894, 124.269 150.106, 119.288 149.638, 117.251 149.583, 117.160 148.968, 116.086 146.452, 112.699 146.051, 112.168 142.022, 111.074 139.516, 110.503 138.988, 110.691 136.990, 111.403 " />
            <path fill="none" stroke-width="3.0" stroke-linecap="butt" stroke-opacity="1.0" stroke="rgb(0, 0, 0)" stroke-linejoin="round" d=" M 151.685, 189.108 151.581, 189.460 151.363, 189.420 " />
            <path fill="none" stroke-width="3.0" stroke-linecap="butt" stroke-opacity="1.0" stroke="rgb(0, 0, 0)" stroke-linejoin="round" d=" M 150.944, 189.826 151.328, 189.414 151.719, 188.994 154.753, 185.737 155.109, 185.356 158.436, 185.255 162.243, 184.562 164.725, 181.719 166.392, 179.963 167.918, 176.197 169.384, 173.097 174.669, 170.953 176.828, 169.513 177.842, 166.057 177.898, 165.975 179.261, 163.965 180.016, 160.460 180.614, 158.000 180.332, 154.512 180.063, 152.115 179.050, 150.197 176.640, 145.634 174.294, 140.862 170.308, 144.815 164.252, 152.773 163.709, 153.486 160.772, 154.666 " />
            <path fill="none" stroke-width="3.0" stroke-linecap="butt" stroke-opacity="1.0" stroke="rgb(0, 0, 0)" stroke-linejoin="round" d=" M 185.468, 168.173 186.490, 167.616 189.685, 161.531 192.128, 159.235 193.033, 152.525 193.372, 147.484 192.506, 144.349 191.022, 139.198 190.377, 135.783 186.462, 131.350 184.903, 130.197 184.227, 129.959 " />
            <path fill="none" stroke-width="3.0" stroke-linecap="butt" stroke-opacity="1.0" stroke="rgb(0, 0, 0)" stroke-linejoin="round" d=" M 184.466, 126.404 187.312, 122.300 " />
        </g>
    </g>
</svg>
