<?xml version='1.0' encoding='ascii'?>
<svg xmlns="http://www.w3.org/2000/svg" version="1.1" width="250" height="250">
    <g id="ViewLayer_LineSet" xmlns:inkscape="http://www.inkscape.org/namespaces/inkscape" inkscape:groupmode="lineset" inkscape:label="ViewLayer_LineSet">
        <g xmlns:inkscape="http://www.inkscape.org/namespaces/inkscape" inkscape:groupmode="layer" id="strokes" inkscape:label="strokes">
            <path fill="none" stroke-width="3.0" stroke-linecap="butt" stroke-opacity="1.0" stroke="rgb(0, 0, 0)" stroke-linejoin="round" d=" M 146.278, 185.663 149.269, 182.466 149.487, 182.232 152.155, 182.247 156.972, 181.498 159.271, 178.991 161.346, 176.905 162.781, 173.525 164.506, 169.950 169.483, 168.192 172.311, 166.528 173.367, 163.444 175.167, 161.037 175.907, 157.894 176.657, 155.031 176.392, 151.794 176.069, 149.031 172.517, 142.440 170.086, 137.600 165.226, 141.869 158.673, 149.423 158.494, 149.629 151.133, 152.245 " />
            <path fill="none" stroke-width="3.0" stroke-linecap="butt" stroke-opacity="1.0" stroke="rgb(0, 0, 0)" stroke-linejoin="round" d=" M 108.640, 91.009 109.358, 91.584 109.445, 91.684 109.928, 92.237 " />
            <path fill="none" stroke-width="3.0" stroke-linecap="butt" stroke-opacity="1.0" stroke="rgb(0, 0, 0)" stroke-linejoin="round" d=" M 110.675, 108.634 105.721, 107.437 104.212, 107.966 99.703, 109.865 99.678, 109.910 99.135, 110.827 96.707, 115.286 96.642, 115.403 96.108, 119.955 95.919, 122.373 97.313, 128.198 97.327, 128.254 " />
            <path fill="none" stroke-width="3.0" stroke-linecap="butt" stroke-opacity="1.0" stroke="rgb(0, 0, 0)" stroke-linejoin="round" d=" M 181.721, 92.302 176.201, 83.963 170.682, 75.624 169.366, 73.636 163.378, 71.224 154.229, 67.188 144.935, 63.087 142.940, 63.094 132.940, 63.082 122.940, 63.070 119.360, 63.066 109.361, 63.185 99.362, 63.304 96.477, 63.338 94.018, 63.357 85.019, 67.717 77.879, 71.178 70.765, 74.233 66.130, 83.094 61.495, 91.955 60.379, 94.089 62.594, 95.440 61.772, 95.994 61.156, 97.368 " />
            <path fill="none" stroke-width="3.0" stroke-linecap="butt" stroke-opacity="1.0" stroke="rgb(0, 0, 0)" stroke-linejoin="round" d=" M 188.873, 125.827 194.991, 119.976 195.861, 110.014 196.732, 100.052 197.452, 91.811 197.306, 90.596 197.312, 90.024 196.700, 88.624 192.371, 79.610 188.042, 70.595 183.713, 61.581 182.230, 58.492 176.147, 51.906 169.845, 44.142 164.210, 37.198 160.825, 35.038 151.994, 30.345 143.793, 25.987 140.287, 26.152 130.288, 26.301 120.289, 26.450 110.290, 26.599 106.399, 26.657 102.433, 26.615 93.784, 31.635 87.422, 35.326 82.480, 38.746 76.383, 46.672 72.794, 51.340 66.201, 58.859 65.368, 59.808 61.431, 69.001 57.494, 78.193 55.236, 83.465 54.311, 89.010 53.661, 91.573 53.658, 96.531 54.865, 106.458 56.072, 116.385 56.376, 118.890 60.486, 123.266 63.286, 127.460 " />
            <path fill="none" stroke-width="3.0" stroke-linecap="butt" stroke-opacity="1.0" stroke="rgb(0, 0, 0)" stroke-linejoin="round" d=" M 98.841, 127.296 98.655, 127.413 97.327, 128.254 92.625, 131.231 90.092, 132.834 88.541, 137.129 86.183, 138.556 86.545, 140.746 85.799, 141.892 84.565, 149.994 84.498, 150.434 84.252, 157.453 86.369, 158.810 91.750, 163.653 96.162, 167.805 97.010, 168.373 105.318, 173.939 106.160, 174.503 111.780, 175.838 118.564, 176.795 124.722, 176.016 128.292, 175.136 137.450, 171.121 143.068, 168.657 143.161, 168.561 146.486, 165.119 150.022, 156.236 151.133, 152.245 151.475, 151.017 150.879, 145.601 148.792, 141.043 147.281, 135.482 146.753, 133.541 144.211, 131.882 143.781, 131.602 139.167, 128.591 135.653, 126.114 131.379, 125.242 127.269, 124.402 126.271, 124.271 119.101, 123.327 116.952, 123.553 109.176, 124.371 101.675, 125.658 98.841, 127.296 " />
            <path fill="none" stroke-width="3.0" stroke-linecap="butt" stroke-opacity="1.0" stroke="rgb(0, 0, 0)" stroke-linejoin="round" d=" M 130.337, 187.164 134.281, 189.074 137.324, 188.843 143.158, 188.399 145.099, 186.697 145.709, 186.162 149.451, 182.881 " />
            <path fill="none" stroke-width="3.0" stroke-linecap="butt" stroke-opacity="1.0" stroke="rgb(0, 0, 0)" stroke-linejoin="round" d=" M 91.071, 182.287 94.220, 185.312 96.765, 187.757 96.914, 187.900 105.419, 188.766 " />
            <path fill="none" stroke-width="3.0" stroke-linecap="butt" stroke-opacity="1.0" stroke="rgb(0, 0, 0)" stroke-linejoin="round" d=" M 77.611, 103.486 82.448, 96.643 87.396, 91.444 96.046, 87.618 104.786, 87.777 109.445, 91.684 " />
            <path fill="none" stroke-width="3.0" stroke-linecap="butt" stroke-opacity="1.0" stroke="rgb(0, 0, 0)" stroke-linejoin="round" d=" M 114.598, 98.236 112.385, 90.576 108.530, 83.610 102.893, 80.285 " />
            <path fill="none" stroke-width="3.0" stroke-linecap="butt" stroke-opacity="1.0" stroke="rgb(0, 0, 0)" stroke-linejoin="round" d=" M 133.073, 92.051 138.227, 88.004 147.613, 87.812 156.661, 91.661 161.784, 96.848 166.729, 103.742 " />
            <path fill="none" stroke-width="3.0" stroke-linecap="butt" stroke-opacity="1.0" stroke="rgb(0, 0, 0)" stroke-linejoin="round" d=" M 135.511, 82.560 130.140, 88.595 127.945, 98.351 127.910, 98.509 " />
            <path fill="none" stroke-width="3.0" stroke-linecap="butt" stroke-opacity="1.0" stroke="rgb(0, 0, 0)" stroke-linejoin="round" d=" M 147.281, 135.482 151.249, 131.290 153.673, 124.073 153.705, 114.073 153.707, 113.342 150.249, 104.577 143.779, 99.012 134.552, 99.823 132.007, 104.746 131.875, 109.056 " />
            <path fill="none" stroke-width="3.0" stroke-linecap="butt" stroke-opacity="1.0" stroke="rgb(0, 0, 0)" stroke-linejoin="round" d=" M 111.300, 105.855 109.008, 100.989 100.286, 100.230 94.290, 106.049 90.898, 114.299 90.718, 124.298 90.712, 124.617 92.625, 131.231 " />
            <path fill="none" stroke-width="3.0" stroke-linecap="butt" stroke-opacity="1.0" stroke="rgb(0, 0, 0)" stroke-linejoin="round" d=" M 177.259, 98.787 183.792, 95.825 181.721, 92.302 " />
            <path fill="none" stroke-width="3.0" stroke-linecap="butt" stroke-opacity="1.0" stroke="rgb(0, 0, 0)" stroke-linejoin="round" d=" M 63.271, 127.039 62.081, 125.205 63.261, 126.767 63.271, 127.039 63.286, 127.460 63.431, 131.482 63.472, 132.632 63.498, 132.624 63.499, 132.659 63.414, 132.764 58.246, 141.325 57.329, 142.844 57.338, 147.709 59.180, 152.422 61.238, 153.371 61.545, 156.331 61.088, 166.410 61.449, 169.259 61.482, 169.364 61.604, 169.745 62.327, 171.748 67.457, 180.331 72.588, 188.915 74.261, 191.715 75.218, 192.384 76.863, 193.806 85.592, 198.684 94.321, 203.563 96.418, 204.735 104.946, 210.039 108.556, 211.627 118.101, 214.610 118.564, 214.755 122.425, 216.534 125.655, 215.178 135.402, 212.942 137.876, 212.374 139.597, 211.659 148.047, 206.311 149.119, 205.633 157.966, 200.970 163.161, 198.231 169.682, 193.166 172.961, 190.324 178.216, 181.816 182.514, 174.856 183.897, 171.589 184.319, 170.592 184.618, 169.492 185.936, 161.581 185.960, 156.918 186.214, 155.604 186.937, 155.471 190.635, 148.275 191.135, 144.868 186.852, 136.395 185.484, 134.068 185.863, 131.603 186.105, 130.030 186.368, 128.318 185.559, 130.860 " />
            <path fill="none" stroke-width="3.0" stroke-linecap="butt" stroke-opacity="1.0" stroke="rgb(0, 0, 0)" stroke-linejoin="round" d=" M 145.709, 186.162 145.940, 186.177 146.675, 185.462 145.138, 187.240 145.099, 186.697 " />
            <path fill="none" stroke-width="3.0" stroke-linecap="butt" stroke-opacity="1.0" stroke="rgb(0, 0, 0)" stroke-linejoin="round" d=" M 63.431, 131.482 60.800, 133.708 57.380, 137.679 56.661, 141.588 55.297, 146.412 54.418, 149.395 54.686, 154.599 55.334, 161.212 57.700, 163.354 60.174, 168.711 61.482, 169.364 " />
            <path fill="none" stroke-width="3.0" stroke-linecap="butt" stroke-opacity="1.0" stroke="rgb(0, 0, 0)" stroke-linejoin="round" d=" M 84.565, 149.994 82.447, 149.179 77.314, 143.886 72.106, 136.990 69.501, 142.188 68.073, 144.821 66.245, 148.194 65.893, 151.778 65.587, 154.104 66.250, 157.559 66.819, 160.052 67.830, 163.535 69.143, 165.695 69.967, 165.996 70.194, 166.079 70.243, 166.097 73.467, 167.276 76.372, 169.156 77.837, 172.327 79.302, 176.092 81.796, 178.874 83.538, 180.747 83.820, 180.797 88.131, 181.563 90.851, 181.597 91.237, 181.897 93.655, 183.779 94.220, 185.312 " />
            <path fill="none" stroke-width="3.0" stroke-linecap="butt" stroke-opacity="1.0" stroke="rgb(0, 0, 0)" stroke-linejoin="round" d=" M 106.462, 188.278 107.539, 189.141 112.268, 191.849 117.960, 192.241 127.927, 193.054 128.723, 193.119 132.894, 191.343 137.324, 188.843 " />
            <path fill="none" stroke-width="3.0" stroke-linecap="butt" stroke-opacity="1.0" stroke="rgb(0, 0, 0)" stroke-linejoin="round" d=" M 115.339, 184.118 118.956, 182.465 119.108, 182.469 120.504, 182.481 121.149, 182.712 121.759, 182.930 123.823, 184.007 " />
            <path fill="none" stroke-width="3.0" stroke-linecap="butt" stroke-opacity="1.0" stroke="rgb(0, 0, 0)" stroke-linejoin="round" d=" M 144.211, 131.882 146.287, 128.882 146.587, 127.126 147.298, 121.655 146.323, 114.892 146.262, 114.517 143.042, 109.997 142.616, 109.404 138.322, 108.129 136.191, 107.580 132.205, 108.951 " />
            <path fill="none" stroke-width="3.0" stroke-linecap="butt" stroke-opacity="1.0" stroke="rgb(0, 0, 0)" stroke-linejoin="round" d=" M 183.897, 171.589 186.727, 171.208 191.106, 169.099 193.731, 164.582 195.909, 162.856 197.063, 155.461 197.401, 150.926 196.417, 147.285 194.635, 141.619 193.745, 138.103 189.640, 133.646 187.991, 132.326 185.863, 131.603 " />
            <path fill="none" stroke-width="3.0" stroke-linecap="butt" stroke-opacity="1.0" stroke="rgb(0, 0, 0)" stroke-linejoin="round" d=" M 186.105, 130.030 188.873, 125.827 " />
        </g>
    </g>
</svg>
