<?xml version='1.0' encoding='ascii'?>
<svg xmlns="http://www.w3.org/2000/svg" version="1.1" width="250" height="250">
    <g id="ViewLayer_LineSet" xmlns:inkscape="http://www.inkscape.org/namespaces/inkscape" inkscape:groupmode="lineset" inkscape:label="ViewLayer_LineSet">
        <g xmlns:inkscape="http://www.inkscape.org/namespaces/inkscape" inkscape:groupmode="layer" id="strokes" inkscape:label="strokes">
            <path fill="none" stroke-width="3.0" stroke-linecap="butt" stroke-opacity="1.0" stroke="rgb(0, 0, 0)" stroke-linejoin="round" d=" M 108.389, 129.405 106.464, 129.956 105.254, 130.348 103.435, 132.940 101.643, 135.424 101.394, 137.419 100.812, 142.083 102.148, 148.369 102.234, 148.755 105.711, 153.330 105.913, 153.572 105.993, 153.667 106.856, 153.895 110.400, 154.829 112.074, 155.195 112.453, 155.278 116.825, 153.924 " />
            <path fill="none" stroke-width="3.0" stroke-linecap="butt" stroke-opacity="1.0" stroke="rgb(0, 0, 0)" stroke-linejoin="round" d=" M 188.420, 120.121 185.699, 118.099 184.883, 117.492 184.720, 117.371 183.507, 116.470 183.397, 116.388 183.179, 115.573 184.188, 116.736 183.507, 116.470 178.837, 114.645 176.200, 115.328 183.775, 118.299 183.925, 118.357 185.115, 118.824 188.420, 120.121 " />
            <path fill="none" stroke-width="3.0" stroke-linecap="butt" stroke-opacity="1.0" stroke="rgb(0, 0, 0)" stroke-linejoin="round" d=" M 189.254, 112.922 191.262, 110.786 194.395, 101.289 195.259, 98.669 197.717, 89.413 197.661, 87.873 197.993, 85.856 194.111, 76.640 190.229, 67.425 186.994, 59.747 185.647, 58.078 183.391, 54.847 175.979, 48.134 172.248, 44.756 165.403, 38.580 156.447, 34.132 154.902, 33.365 144.908, 33.031 142.482, 32.950 132.482, 32.836 123.784, 32.737 113.785, 32.606 110.975, 32.569 100.976, 32.685 97.535, 32.725 88.664, 36.630 80.800, 42.807 78.393, 44.697 70.620, 50.987 64.516, 55.925 63.699, 57.728 61.577, 59.810 56.851, 68.624 52.126, 77.437 48.479, 84.237 48.493, 87.765 47.449, 91.205 49.871, 100.907 52.140, 109.999 57.937, 116.328 61.916, 120.573 60.379, 119.820 60.276, 119.825 " />
            <path fill="none" stroke-width="3.0" stroke-linecap="butt" stroke-opacity="1.0" stroke="rgb(0, 0, 0)" stroke-linejoin="round" d=" M 65.360, 120.542 65.360, 120.542 72.937, 117.003 70.096, 116.495 67.763, 117.367 65.237, 118.311 67.529, 117.271 67.763, 117.367 " />
            <path fill="none" stroke-width="3.0" stroke-linecap="butt" stroke-opacity="1.0" stroke="rgb(0, 0, 0)" stroke-linejoin="round" d=" M 138.443, 124.031 139.462, 121.713 139.596, 121.690 140.627, 121.519 148.862, 119.260 149.700, 119.723 150.052, 119.918 151.273, 120.814 " />
            <path fill="none" stroke-width="3.0" stroke-linecap="butt" stroke-opacity="1.0" stroke="rgb(0, 0, 0)" stroke-linejoin="round" d=" M 146.913, 163.906 146.903, 163.979 149.823, 168.316 152.353, 177.990 152.405, 178.185 " />
            <path fill="none" stroke-width="3.0" stroke-linecap="butt" stroke-opacity="1.0" stroke="rgb(0, 0, 0)" stroke-linejoin="round" d=" M 81.390, 125.338 86.293, 119.368 " />
            <path fill="none" stroke-width="3.0" stroke-linecap="butt" stroke-opacity="1.0" stroke="rgb(0, 0, 0)" stroke-linejoin="round" d=" M 120.979, 126.786 118.916, 120.159 " />
            <path fill="none" stroke-width="3.0" stroke-linecap="butt" stroke-opacity="1.0" stroke="rgb(0, 0, 0)" stroke-linejoin="round" d=" M 136.904, 117.098 134.264, 126.114 " />
            <path fill="none" stroke-width="3.0" stroke-linecap="butt" stroke-opacity="1.0" stroke="rgb(0, 0, 0)" stroke-linejoin="round" d=" M 167.048, 118.583 171.296, 124.401 " />
            <path fill="none" stroke-width="3.0" stroke-linecap="butt" stroke-opacity="1.0" stroke="rgb(0, 0, 0)" stroke-linejoin="round" d=" M 145.666, 130.054 140.337, 129.121 136.875, 130.804 " />
            <path fill="none" stroke-width="3.0" stroke-linecap="butt" stroke-opacity="1.0" stroke="rgb(0, 0, 0)" stroke-linejoin="round" d=" M 139.596, 121.690 137.077, 126.808 136.875, 130.804 " />
            <path fill="none" stroke-width="3.0" stroke-linecap="butt" stroke-opacity="1.0" stroke="rgb(0, 0, 0)" stroke-linejoin="round" d=" M 97.733, 123.749 94.314, 130.846 94.443, 140.367 96.914, 147.631 101.941, 152.211 105.913, 153.572 " />
            <path fill="none" stroke-width="3.0" stroke-linecap="butt" stroke-opacity="1.0" stroke="rgb(0, 0, 0)" stroke-linejoin="round" d=" M 116.286, 128.357 113.759, 122.979 " />
            <path fill="none" stroke-width="3.0" stroke-linecap="butt" stroke-opacity="1.0" stroke="rgb(0, 0, 0)" stroke-linejoin="round" d=" M 147.350, 151.943 148.828, 151.360 153.958, 146.503 156.541, 139.483 157.280, 130.296 154.537, 123.079 " />
            <path fill="none" stroke-width="3.0" stroke-linecap="butt" stroke-opacity="1.0" stroke="rgb(0, 0, 0)" stroke-linejoin="round" d=" M 60.276, 119.825 57.616, 117.115 59.855, 119.842 60.742, 120.923 61.372, 124.599 62.270, 129.962 61.104, 133.648 58.325, 143.254 58.111, 143.996 58.641, 148.537 60.989, 153.538 62.649, 155.245 63.630, 156.253 64.948, 161.069 65.606, 171.047 65.733, 172.970 65.823, 173.300 65.848, 173.355 65.925, 173.572 66.188, 173.957 71.910, 182.159 76.578, 188.850 84.550, 191.322 86.291, 192.077 " />
            <path fill="none" stroke-width="3.0" stroke-linecap="butt" stroke-opacity="1.0" stroke="rgb(0, 0, 0)" stroke-linejoin="round" d=" M 185.699, 118.099 189.673, 113.166 184.883, 117.492 " />
            <path fill="none" stroke-width="3.0" stroke-linecap="butt" stroke-opacity="1.0" stroke="rgb(0, 0, 0)" stroke-linejoin="round" d=" M 67.763, 117.367 69.263, 117.976 65.362, 120.541 65.361, 120.542 " />
            <path fill="none" stroke-width="3.0" stroke-linecap="butt" stroke-opacity="1.0" stroke="rgb(0, 0, 0)" stroke-linejoin="round" d=" M 101.443, 179.378 103.848, 169.671 104.507, 167.011 104.527, 166.932 105.550, 165.525 105.652, 165.341 105.658, 165.581 105.001, 166.577 104.507, 167.011 104.305, 167.188 101.644, 176.827 100.990, 179.193 99.962, 182.916 99.015, 186.021 96.381, 194.612 96.394, 194.757 96.514, 196.032 97.264, 198.250 98.112, 200.755 98.361, 201.492 99.310, 204.298 107.530, 209.993 107.835, 210.204 112.049, 213.465 116.248, 214.295 122.885, 214.880 132.883, 214.641 135.814, 214.571 141.979, 213.767 145.613, 212.912 150.460, 208.518 157.646, 203.054 160.070, 197.868 161.127, 195.606 161.566, 194.667 161.557, 194.344 158.902, 185.363 156.471, 181.520 154.855, 177.038 152.046, 169.246 149.432, 167.013 146.913, 163.906 " />
            <path fill="none" stroke-width="3.0" stroke-linecap="butt" stroke-opacity="1.0" stroke="rgb(0, 0, 0)" stroke-linejoin="round" d=" M 59.855, 119.842 55.377, 120.032 53.916, 121.895 53.551, 122.866 51.570, 130.038 50.993, 133.477 51.713, 138.040 53.309, 144.516 56.478, 147.943 61.617, 155.076 62.649, 155.245 " />
            <path fill="none" stroke-width="3.0" stroke-linecap="butt" stroke-opacity="1.0" stroke="rgb(0, 0, 0)" stroke-linejoin="round" d=" M 100.990, 179.193 91.731, 175.417 90.710, 175.001 88.053, 172.163 82.252, 164.017 79.460, 160.095 79.112, 159.883 74.667, 168.841 73.610, 170.971 73.587, 173.534 73.507, 176.198 74.422, 179.186 75.267, 181.584 77.179, 186.188 77.954, 187.330 83.403, 189.365 85.513, 190.783 86.291, 192.077 86.673, 192.713 88.542, 196.353 92.333, 199.858 92.829, 200.297 93.736, 200.450 98.029, 200.750 " />
            <path fill="none" stroke-width="3.0" stroke-linecap="butt" stroke-opacity="1.0" stroke="rgb(0, 0, 0)" stroke-linejoin="round" d=" M 98.209, 123.498 103.377, 120.889 104.266, 120.372 108.293, 121.418 " />
            <path fill="none" stroke-width="3.0" stroke-linecap="butt" stroke-opacity="1.0" stroke="rgb(0, 0, 0)" stroke-linejoin="round" d=" M 137.251, 154.494 141.201, 155.204 142.617, 154.732 145.599, 153.442 146.829, 152.521 147.089, 152.369 147.350, 151.943 149.890, 147.789 150.135, 147.415 151.305, 142.602 151.498, 140.977 150.543, 135.573 150.347, 134.610 148.067, 132.079 146.304, 130.177 145.672, 130.064 144.882, 129.922 143.540, 129.682 " />
            <path fill="none" stroke-width="3.0" stroke-linecap="butt" stroke-opacity="1.0" stroke="rgb(0, 0, 0)" stroke-linejoin="round" d=" M 160.070, 197.868 162.277, 195.627 162.982, 194.988 163.579, 193.850 165.091, 190.967 166.129, 189.328 172.287, 186.506 172.834, 186.255 173.548, 185.724 174.946, 181.580 175.898, 180.294 176.749, 177.664 177.073, 176.665 177.708, 174.898 177.794, 171.877 177.799, 169.753 173.712, 160.626 173.111, 159.284 172.917, 158.835 172.647, 159.125 166.824, 167.255 162.168, 173.756 154.855, 177.038 " />
            <path fill="none" stroke-width="3.0" stroke-linecap="butt" stroke-opacity="1.0" stroke="rgb(0, 0, 0)" stroke-linejoin="round" d=" M 163.579, 193.850 171.419, 188.233 172.287, 186.506 " />
            <path fill="none" stroke-width="3.0" stroke-linecap="butt" stroke-opacity="1.0" stroke="rgb(0, 0, 0)" stroke-linejoin="round" d=" M 176.749, 177.664 180.585, 170.958 181.446, 163.017 182.363, 154.870 184.756, 151.526 186.474, 147.645 187.509, 143.526 187.698, 142.776 184.322, 133.363 183.213, 130.269 182.645, 128.961 182.890, 127.176 184.015, 120.190 184.555, 119.519 " />
            <path fill="none" stroke-width="3.0" stroke-linecap="butt" stroke-opacity="1.0" stroke="rgb(0, 0, 0)" stroke-linejoin="round" d=" M 187.509, 143.526 187.758, 143.234 189.159, 137.455 190.056, 132.403 189.575, 129.595 188.228, 123.463 188.050, 122.205 186.186, 119.591 184.555, 119.519 " />
            <path fill="none" stroke-width="3.0" stroke-linecap="butt" stroke-opacity="1.0" stroke="rgb(0, 0, 0)" stroke-linejoin="round" d=" M 184.720, 117.371 189.254, 112.922 " />
        </g>
    </g>
</svg>
