<?xml version='1.0' encoding='ascii'?>
<svg xmlns="http://www.w3.org/2000/svg" version="1.1" width="250" height="250">
    <g id="ViewLayer_LineSet" xmlns:inkscape="http://www.inkscape.org/namespaces/inkscape" inkscape:groupmode="lineset" inkscape:label="ViewLayer_LineSet">
        <g xmlns:inkscape="http://www.inkscape.org/namespaces/inkscape" inkscape:groupmode="layer" id="strokes" inkscape:label="strokes">
            <path fill="none" stroke-width="3.0" stroke-linecap="butt" stroke-opacity="1.0" stroke="rgb(0, 0, 0)" stroke-linejoin="round" d=" M 143.875, 189.441 147.311, 185.845 147.489, 185.659 150.510, 185.659 154.199, 185.103 154.920, 184.994 157.305, 182.446 159.327, 180.459 159.539, 179.971 160.802, 177.073 162.516, 173.564 167.652, 171.720 168.067, 171.472 170.423, 170.068 170.981, 168.495 171.542, 166.915 173.380, 164.497 174.160, 161.379 174.974, 158.462 174.762, 155.359 174.463, 152.464 170.672, 145.301 168.483, 140.899 164.001, 144.904 157.470, 152.476 156.586, 153.501 148.427, 156.469 " />
            <path fill="none" stroke-width="3.0" stroke-linecap="butt" stroke-opacity="1.0" stroke="rgb(0, 0, 0)" stroke-linejoin="round" d=" M 179.526, 93.669 173.384, 85.777 167.242, 77.885 166.932, 77.487 162.666, 75.895 153.391, 72.157 144.116, 68.418 142.428, 67.738 142.319, 67.739 136.496, 67.761 " />
            <path fill="none" stroke-width="3.0" stroke-linecap="butt" stroke-opacity="1.0" stroke="rgb(0, 0, 0)" stroke-linejoin="round" d=" M 189.322, 125.415 196.020, 118.746 196.952, 108.789 197.885, 98.833 198.298, 94.423 197.754, 90.582 197.754, 88.587 195.319, 83.252 190.850, 74.306 186.381, 65.360 182.439, 57.469 177.503, 52.244 171.134, 44.535 164.764, 36.826 163.842, 35.710 162.335, 34.763 153.449, 30.177 144.562, 25.591 143.001, 24.785 141.321, 24.894 131.324, 25.147 121.327, 25.400 111.331, 25.653 104.398, 25.828 101.902, 25.822 93.319, 30.954 85.864, 35.412 81.750, 38.366 75.758, 46.372 71.843, 51.602 65.329, 59.189 64.802, 59.804 60.997, 69.052 57.192, 78.300 55.685, 81.962 54.877, 88.234 54.205, 91.313 54.417, 97.732 55.918, 107.619 57.392, 117.333 60.970, 121.454 62.329, 123.411 63.957, 125.756 " />
            <path fill="none" stroke-width="3.0" stroke-linecap="butt" stroke-opacity="1.0" stroke="rgb(0, 0, 0)" stroke-linejoin="round" d=" M 105.726, 208.082 108.612, 209.733 108.983, 209.781 112.600, 210.244 113.135, 211.676 " />
            <path fill="none" stroke-width="3.0" stroke-linecap="butt" stroke-opacity="1.0" stroke="rgb(0, 0, 0)" stroke-linejoin="round" d=" M 96.151, 133.603 93.510, 135.166 87.821, 138.531 86.067, 142.897 83.620, 144.427 84.098, 146.897 83.239, 148.327 82.548, 153.285 82.054, 156.825 82.190, 165.539 83.335, 166.075 85.942, 168.059 93.157, 174.982 93.536, 175.346 93.933, 175.657 98.530, 179.259 101.303, 179.865 106.423, 180.982 110.781, 181.554 115.746, 182.205 123.871, 181.272 128.103, 180.165 137.061, 175.719 140.201, 174.160 141.444, 172.842 144.147, 169.976 147.246, 161.394 148.444, 156.606 148.427, 156.469 147.886, 152.210 146.257, 148.746 143.702, 139.311 143.246, 139.013 140.476, 137.205 140.465, 137.198 137.598, 135.326 132.902, 131.713 129.988, 131.128 125.508, 130.229 121.403, 129.406 116.990, 128.777 115.465, 128.956 111.091, 129.470 101.228, 131.119 100.049, 131.316 98.258, 132.367 97.359, 132.895 96.151, 133.603 " />
            <path fill="none" stroke-width="3.0" stroke-linecap="butt" stroke-opacity="1.0" stroke="rgb(0, 0, 0)" stroke-linejoin="round" d=" M 125.761, 189.428 132.316, 192.565 134.361, 192.391 141.170, 191.812 143.445, 189.818 143.851, 189.462 147.500, 186.264 " />
            <path fill="none" stroke-width="3.0" stroke-linecap="butt" stroke-opacity="1.0" stroke="rgb(0, 0, 0)" stroke-linejoin="round" d=" M 89.867, 185.280 93.573, 188.994 95.562, 190.987 103.854, 192.056 " />
            <path fill="none" stroke-width="3.0" stroke-linecap="butt" stroke-opacity="1.0" stroke="rgb(0, 0, 0)" stroke-linejoin="round" d=" M 76.562, 105.811 81.288, 98.991 86.137, 93.840 94.653, 90.175 103.285, 90.564 " />
            <path fill="none" stroke-width="3.0" stroke-linecap="butt" stroke-opacity="1.0" stroke="rgb(0, 0, 0)" stroke-linejoin="round" d=" M 113.039, 101.339 110.774, 93.664 106.988, 86.403 101.414, 82.854 " />
            <path fill="none" stroke-width="3.0" stroke-linecap="butt" stroke-opacity="1.0" stroke="rgb(0, 0, 0)" stroke-linejoin="round" d=" M 131.613, 94.953 136.872, 90.690 146.428, 90.259 155.634, 93.948 160.809, 99.128 165.782, 106.049 " />
            <path fill="none" stroke-width="3.0" stroke-linecap="butt" stroke-opacity="1.0" stroke="rgb(0, 0, 0)" stroke-linejoin="round" d=" M 134.114, 85.234 128.638, 91.517 126.470, 101.279 126.417, 101.517 " />
            <path fill="none" stroke-width="3.0" stroke-linecap="butt" stroke-opacity="1.0" stroke="rgb(0, 0, 0)" stroke-linejoin="round" d=" M 145.091, 138.869 150.241, 133.448 152.743, 126.121 152.799, 116.121 152.803, 115.368 149.321, 106.612 142.778, 101.105 133.407, 102.145 130.813, 107.197 130.662, 111.555 " />
            <path fill="none" stroke-width="3.0" stroke-linecap="butt" stroke-opacity="1.0" stroke="rgb(0, 0, 0)" stroke-linejoin="round" d=" M 110.077, 108.345 107.823, 103.335 99.225, 102.321 93.392, 107.930 90.098, 116.141 89.970, 126.140 89.966, 126.491 91.925, 133.556 " />
            <path fill="none" stroke-width="3.0" stroke-linecap="butt" stroke-opacity="1.0" stroke="rgb(0, 0, 0)" stroke-linejoin="round" d=" M 176.770, 99.842 182.790, 98.275 179.526, 93.669 " />
            <path fill="none" stroke-width="3.0" stroke-linecap="butt" stroke-opacity="1.0" stroke="rgb(0, 0, 0)" stroke-linejoin="round" d=" M 63.958, 125.775 62.023, 122.994 62.329, 123.411 63.954, 125.625 63.957, 125.756 63.958, 125.775 64.065, 130.395 64.097, 131.741 64.314, 131.699 64.300, 132.040 63.613, 132.919 58.580, 141.561 57.880, 142.763 57.892, 147.855 59.385, 151.917 61.738, 153.410 62.001, 157.245 61.718, 166.092 61.600, 169.790 61.683, 170.447 61.722, 170.555 61.888, 170.996 64.775, 175.709 70.050, 184.205 74.397, 191.206 78.800, 193.277 79.611, 194.776 88.443, 199.465 96.312, 203.643 102.314, 207.272 109.018, 210.541 113.760, 212.169 122.078, 216.040 128.337, 213.410 136.925, 211.368 141.044, 209.603 148.817, 204.890 157.790, 200.476 165.578, 196.645 169.417, 193.738 171.497, 191.957 176.854, 183.513 181.745, 175.805 183.598, 171.464 183.799, 170.721 183.915, 170.291 185.534, 161.588 185.628, 157.666 185.897, 156.544 186.505, 156.341 190.542, 148.672 191.097, 145.466 187.469, 137.333 185.765, 134.098 186.401, 130.476 186.571, 129.502 186.863, 127.839 186.126, 130.164 186.060, 130.373 " />
            <path fill="none" stroke-width="3.0" stroke-linecap="butt" stroke-opacity="1.0" stroke="rgb(0, 0, 0)" stroke-linejoin="round" d=" M 110.023, 67.917 100.024, 68.038 92.378, 68.131 91.402, 68.143 82.340, 72.372 74.923, 75.833 68.682, 78.430 63.891, 87.207 59.442, 95.360 63.665, 97.310 62.290, 98.192 61.238, 100.401 68.006, 101.067 " />
            <path fill="none" stroke-width="3.0" stroke-linecap="butt" stroke-opacity="1.0" stroke="rgb(0, 0, 0)" stroke-linejoin="round" d=" M 143.851, 189.462 144.167, 189.360 144.375, 189.300 144.501, 189.263 144.928, 189.140 144.801, 189.664 144.234, 189.568 144.501, 189.263 145.139, 188.535 " />
            <path fill="none" stroke-width="3.0" stroke-linecap="butt" stroke-opacity="1.0" stroke="rgb(0, 0, 0)" stroke-linejoin="round" d=" M 144.375, 189.300 143.450, 190.225 143.445, 189.818 " />
            <path fill="none" stroke-width="3.0" stroke-linecap="butt" stroke-opacity="1.0" stroke="rgb(0, 0, 0)" stroke-linejoin="round" d=" M 101.552, 204.060 105.726, 208.082 " />
            <path fill="none" stroke-width="3.0" stroke-linecap="butt" stroke-opacity="1.0" stroke="rgb(0, 0, 0)" stroke-linejoin="round" d=" M 64.065, 130.395 62.271, 131.789 58.716, 135.969 58.138, 139.655 56.870, 144.375 56.062, 147.201 56.385, 152.569 57.040, 158.934 59.518, 161.402 61.718, 166.092 " />
            <path fill="none" stroke-width="3.0" stroke-linecap="butt" stroke-opacity="1.0" stroke="rgb(0, 0, 0)" stroke-linejoin="round" d=" M 82.548, 153.285 81.144, 152.706 76.563, 147.680 71.073, 139.977 68.779, 144.671 68.646, 144.943 65.360, 151.183 65.044, 154.811 64.781, 157.042 65.482, 160.624 66.025, 162.980 67.091, 166.731 67.581, 167.558 68.245, 168.678 72.723, 170.436 75.363, 172.257 76.727, 175.190 78.266, 179.134 80.913, 182.107 82.442, 183.759 86.364, 184.496 89.546, 184.603 89.996, 184.977 92.796, 187.299 93.573, 188.994 " />
            <path fill="none" stroke-width="3.0" stroke-linecap="butt" stroke-opacity="1.0" stroke="rgb(0, 0, 0)" stroke-linejoin="round" d=" M 105.984, 92.971 107.509, 94.373 108.739, 95.721 " />
            <path fill="none" stroke-width="3.0" stroke-linecap="butt" stroke-opacity="1.0" stroke="rgb(0, 0, 0)" stroke-linejoin="round" d=" M 108.810, 110.856 104.779, 109.869 102.889, 110.500 98.677, 112.214 98.550, 112.434 97.207, 114.653 95.708, 117.595 95.625, 117.751 94.934, 124.594 94.926, 124.708 94.943, 124.823 95.100, 126.004 96.253, 131.001 96.440, 131.755 97.359, 132.895 " />
            <path fill="none" stroke-width="3.0" stroke-linecap="butt" stroke-opacity="1.0" stroke="rgb(0, 0, 0)" stroke-linejoin="round" d=" M 105.710, 191.215 110.695, 194.020 118.265, 194.607 127.393, 195.429 132.876, 193.206 134.361, 192.391 " />
            <path fill="none" stroke-width="3.0" stroke-linecap="butt" stroke-opacity="1.0" stroke="rgb(0, 0, 0)" stroke-linejoin="round" d=" M 110.469, 189.057 112.288, 188.273 117.050, 186.218 117.319, 186.229 118.568, 186.265 120.662, 186.988 121.081, 187.133 125.279, 189.198 " />
            <path fill="none" stroke-width="3.0" stroke-linecap="butt" stroke-opacity="1.0" stroke="rgb(0, 0, 0)" stroke-linejoin="round" d=" M 140.836, 137.065 141.216, 136.929 142.953, 134.536 145.090, 131.409 145.405, 129.524 146.093, 124.152 145.178, 117.932 145.024, 116.997 142.054, 112.886 141.322, 111.884 137.456, 110.769 134.853, 110.109 131.579, 111.246 " />
            <path fill="none" stroke-width="3.0" stroke-linecap="butt" stroke-opacity="1.0" stroke="rgb(0, 0, 0)" stroke-linejoin="round" d=" M 165.488, 99.305 165.533, 97.219 162.680, 92.095 161.864, 90.835 160.539, 90.063 " />
            <path fill="none" stroke-width="3.0" stroke-linecap="butt" stroke-opacity="1.0" stroke="rgb(0, 0, 0)" stroke-linejoin="round" d=" M 183.799, 170.721 187.202, 170.212 191.029, 168.252 194.276, 163.206 196.527, 161.358 197.874, 153.863 198.269, 149.446 197.318, 145.658 195.421, 139.685 194.554, 136.557 189.884, 131.597 189.729, 131.485 186.401, 130.476 " />
            <path fill="none" stroke-width="3.0" stroke-linecap="butt" stroke-opacity="1.0" stroke="rgb(0, 0, 0)" stroke-linejoin="round" d=" M 186.571, 129.502 189.322, 125.415 " />
        </g>
    </g>
</svg>
