<?xml version='1.0' encoding='ascii'?>
<svg xmlns="http://www.w3.org/2000/svg" version="1.1" width="250" height="250">
    <g id="ViewLayer_LineSet" xmlns:inkscape="http://www.inkscape.org/namespaces/inkscape" inkscape:groupmode="lineset" inkscape:label="ViewLayer_LineSet">
        <g xmlns:inkscape="http://www.inkscape.org/namespaces/inkscape" inkscape:groupmode="layer" id="strokes" inkscape:label="strokes">
            <path fill="none" stroke-width="3.0" stroke-linecap="butt" stroke-opacity="1.0" stroke="rgb(0, 0, 0)" stroke-linejoin="round" d=" M 192.639, 117.777 199.653, 110.649 206.667, 103.522 208.452, 101.708 208.567, 101.536 208.428, 101.215 208.278, 100.602 202.924, 92.156 198.283, 84.835 194.803, 78.684 187.704, 71.640 182.111, 66.091 173.510, 60.989 172.835, 60.589 165.347, 53.961 159.567, 48.846 158.989, 48.565 155.402, 47.036 145.858, 44.048 136.315, 41.061 129.253, 38.851 120.673, 38.119 110.729, 39.174 109.529, 39.301 101.111, 40.244 91.151, 41.131 85.861, 41.601 75.945, 42.891 71.219, 43.506 63.228, 49.518 57.425, 53.883 57.227, 54.124 57.082, 54.297 54.287, 63.899 52.610, 69.662 48.842, 78.925 48.609, 79.498 51.417, 89.096 51.467, 89.266 55.858, 98.043 58.118, 101.205 63.043, 107.856 69.865, 113.418 64.515, 115.882 58.759, 120.719 52.118, 125.106 46.466, 128.137 42.146, 131.396 40.727, 136.172 49.254, 130.947 55.129, 127.347 63.872, 123.090 " />
            <path fill="none" stroke-width="3.0" stroke-linecap="butt" stroke-opacity="1.0" stroke="rgb(0, 0, 0)" stroke-linejoin="round" d=" M 192.424, 146.576 192.690, 145.810 192.428, 144.045 192.163, 142.897 189.917, 133.153 189.253, 130.275 189.465, 129.007 190.160, 124.831 190.376, 126.469 189.465, 129.007 " />
            <path fill="none" stroke-width="3.0" stroke-linecap="butt" stroke-opacity="1.0" stroke="rgb(0, 0, 0)" stroke-linejoin="round" d=" M 133.674, 207.304 137.237, 204.275 " />
            <path fill="none" stroke-width="3.0" stroke-linecap="butt" stroke-opacity="1.0" stroke="rgb(0, 0, 0)" stroke-linejoin="round" d=" M 128.006, 141.994 127.782, 141.803 " />
            <path fill="none" stroke-width="3.0" stroke-linecap="butt" stroke-opacity="1.0" stroke="rgb(0, 0, 0)" stroke-linejoin="round" d=" M 129.597, 158.400 135.135, 156.574 138.709, 152.532 139.615, 147.840 " />
            <path fill="none" stroke-width="3.0" stroke-linecap="butt" stroke-opacity="1.0" stroke="rgb(0, 0, 0)" stroke-linejoin="round" d=" M 93.098, 165.021 86.351, 169.561 80.256, 176.028 79.459, 176.742 79.310, 176.876 73.950, 181.687 69.115, 186.025 68.085, 187.677 67.433, 188.338 69.839, 195.665 69.146, 203.914 69.440, 206.918 70.506, 208.679 72.592, 210.391 77.680, 216.411 81.734, 219.080 86.968, 220.562 96.915, 221.593 101.235, 222.041 104.462, 222.142 108.912, 221.448 113.946, 218.904 118.394, 217.208 122.822, 209.153 123.865, 207.255 124.214, 206.621 125.565, 204.163 125.665, 203.982 127.152, 197.718 127.503, 196.238 127.851, 195.600 " />
            <path fill="none" stroke-width="3.0" stroke-linecap="butt" stroke-opacity="1.0" stroke="rgb(0, 0, 0)" stroke-linejoin="round" d=" M 150.916, 200.720 151.013, 200.800 150.838, 200.826 146.346, 201.481 " />
            <path fill="none" stroke-width="3.0" stroke-linecap="butt" stroke-opacity="1.0" stroke="rgb(0, 0, 0)" stroke-linejoin="round" d=" M 143.275, 204.390 146.617, 203.310 146.797, 203.096 150.302, 201.549 150.838, 200.826 150.916, 200.720 152.244, 198.925 160.279, 192.972 161.685, 191.931 171.406, 189.585 171.726, 189.508 176.992, 182.630 182.392, 174.213 182.738, 173.674 185.602, 165.312 184.039, 167.401 186.056, 157.606 186.874, 153.635 195.249, 153.279 199.434, 151.967 206.362, 144.755 208.037, 143.012 210.370, 140.689 213.006, 131.691 213.138, 129.451 211.995, 123.443 208.775, 117.399 204.445, 115.953 197.491, 116.870 195.052, 118.404 192.639, 117.777 " />
            <path fill="none" stroke-width="3.0" stroke-linecap="butt" stroke-opacity="1.0" stroke="rgb(0, 0, 0)" stroke-linejoin="round" d=" M 189.271, 145.596 189.305, 145.643 190.685, 149.760 192.424, 146.576 " />
            <path fill="none" stroke-width="3.0" stroke-linecap="butt" stroke-opacity="1.0" stroke="rgb(0, 0, 0)" stroke-linejoin="round" d=" M 93.242, 135.080 94.493, 142.271 97.886, 151.678 98.208, 152.571 99.977, 157.485 100.270, 156.283 " />
            <path fill="none" stroke-width="3.0" stroke-linecap="butt" stroke-opacity="1.0" stroke="rgb(0, 0, 0)" stroke-linejoin="round" d=" M 75.831, 131.795 73.819, 138.796 72.931, 140.099 74.884, 144.962 75.590, 149.314 75.607, 149.959 75.283, 154.526 73.970, 164.440 73.953, 164.569 78.074, 173.680 79.459, 176.742 " />
            <path fill="none" stroke-width="3.0" stroke-linecap="butt" stroke-opacity="1.0" stroke="rgb(0, 0, 0)" stroke-linejoin="round" d=" M 79.310, 176.876 78.852, 176.460 76.907, 173.509 71.660, 164.996 70.155, 162.555 68.559, 170.908 69.542, 174.871 69.730, 175.268 72.110, 179.594 73.950, 181.687 " />
            <path fill="none" stroke-width="3.0" stroke-linecap="butt" stroke-opacity="1.0" stroke="rgb(0, 0, 0)" stroke-linejoin="round" d=" M 87.152, 137.869 87.312, 140.638 87.217, 141.670 88.029, 144.577 88.578, 146.771 89.735, 149.417 90.127, 150.280 90.787, 151.733 92.253, 153.518 93.675, 155.449 95.013, 156.336 97.879, 158.660 98.690, 159.026 99.529, 158.766 102.429, 157.905 " />
            <path fill="none" stroke-width="3.0" stroke-linecap="butt" stroke-opacity="1.0" stroke="rgb(0, 0, 0)" stroke-linejoin="round" d=" M 122.822, 209.153 125.469, 210.133 128.780, 209.309 132.074, 208.255 133.388, 207.340 133.401, 207.331 134.495, 206.571 137.133, 204.271 137.237, 204.275 142.697, 204.446 143.255, 204.397 143.270, 204.396 143.275, 204.390 145.802, 201.945 146.346, 201.481 147.140, 200.803 147.819, 198.878 147.957, 198.486 148.515, 196.484 153.832, 194.754 155.757, 193.593 156.718, 190.656 158.538, 188.391 158.941, 186.452 159.948, 183.199 159.795, 182.184 159.150, 178.164 157.614, 176.137 147.840, 174.024 146.376, 173.707 140.711, 181.143 139.493, 182.741 129.977, 185.813 128.825, 186.185 128.547, 190.184 126.408, 192.451 " />
            <path fill="none" stroke-width="3.0" stroke-linecap="butt" stroke-opacity="1.0" stroke="rgb(0, 0, 0)" stroke-linejoin="round" d=" M 129.597, 158.400 130.263, 156.799 131.454, 153.997 130.988, 148.955 130.850, 147.790 130.561, 147.142 128.016, 142.005 128.009, 141.999 127.953, 141.953 127.782, 141.803 " />
            <path fill="none" stroke-width="3.0" stroke-linecap="butt" stroke-opacity="1.0" stroke="rgb(0, 0, 0)" stroke-linejoin="round" d=" M 133.388, 207.340 135.070, 207.267 137.359, 206.579 142.926, 204.504 143.255, 204.397 " />
            <path fill="none" stroke-width="3.0" stroke-linecap="butt" stroke-opacity="1.0" stroke="rgb(0, 0, 0)" stroke-linejoin="round" d=" M 139.906, 146.338 139.942, 146.438 139.615, 147.840 " />
        </g>
    </g>
</svg>
