<?xml version='1.0' encoding='ascii'?>
<svg xmlns="http://www.w3.org/2000/svg" version="1.1" width="250" height="250">
    <g id="ViewLayer_LineSet" xmlns:inkscape="http://www.inkscape.org/namespaces/inkscape" inkscape:groupmode="lineset" inkscape:label="ViewLayer_LineSet">
        <g xmlns:inkscape="http://www.inkscape.org/namespaces/inkscape" inkscape:groupmode="layer" id="strokes" inkscape:label="strokes">
            <path fill="none" stroke-width="3.0" stroke-linecap="butt" stroke-opacity="1.0" stroke="rgb(0, 0, 0)" stroke-linejoin="round" d=" M 192.388, 134.213 200.000, 127.728 206.253, 122.401 207.367, 123.228 208.313, 118.892 208.935, 115.909 205.564, 106.495 202.192, 97.080 201.579, 95.368 199.092, 85.682 197.252, 78.513 191.553, 70.295 187.868, 64.981 180.960, 57.751 179.097, 55.801 175.966, 50.625 168.151, 44.386 161.385, 38.986 153.497, 32.839 151.656, 31.405 142.394, 27.634 134.857, 24.565 130.695, 24.419 120.703, 24.817 110.710, 25.216 108.701, 25.296 98.891, 27.234 95.169, 27.968 92.846, 28.460 85.314, 35.039 81.473, 38.394 74.529, 45.589 73.358, 46.803 70.973, 51.782 66.794, 58.866 64.835, 68.673 64.521, 70.243 65.678, 80.176 65.849, 81.642 " />
            <path fill="none" stroke-width="3.0" stroke-linecap="butt" stroke-opacity="1.0" stroke="rgb(0, 0, 0)" stroke-linejoin="round" d=" M 71.298, 106.588 73.702, 100.056 " />
            <path fill="none" stroke-width="3.0" stroke-linecap="butt" stroke-opacity="1.0" stroke="rgb(0, 0, 0)" stroke-linejoin="round" d=" M 184.414, 145.754 189.306, 149.207 187.884, 139.308 187.848, 139.055 187.727, 138.211 188.889, 135.565 188.867, 137.069 187.848, 139.055 " />
            <path fill="none" stroke-width="3.0" stroke-linecap="butt" stroke-opacity="1.0" stroke="rgb(0, 0, 0)" stroke-linejoin="round" d=" M 128.614, 107.771 132.554, 110.880 132.867, 111.564 136.570, 119.795 136.544, 121.317 136.923, 130.847 134.283, 137.888 134.064, 138.289 134.048, 138.318 131.985, 140.579 " />
            <path fill="none" stroke-width="3.0" stroke-linecap="butt" stroke-opacity="1.0" stroke="rgb(0, 0, 0)" stroke-linejoin="round" d=" M 107.007, 197.735 110.657, 197.719 115.596, 197.697 118.871, 195.208 118.909, 195.180 122.103, 192.753 " />
            <path fill="none" stroke-width="3.0" stroke-linecap="butt" stroke-opacity="1.0" stroke="rgb(0, 0, 0)" stroke-linejoin="round" d=" M 68.238, 109.937 70.001, 106.357 70.376, 105.595 71.358, 103.603 73.702, 100.056 74.502, 98.844 80.036, 95.664 83.898, 96.199 " />
            <path fill="none" stroke-width="3.0" stroke-linecap="butt" stroke-opacity="1.0" stroke="rgb(0, 0, 0)" stroke-linejoin="round" d=" M 92.951, 107.429 90.389, 99.997 88.286, 92.466 84.659, 88.677 " />
            <path fill="none" stroke-width="3.0" stroke-linecap="butt" stroke-opacity="1.0" stroke="rgb(0, 0, 0)" stroke-linejoin="round" d=" M 112.167, 90.919 106.507, 97.595 105.070, 107.527 109.631, 100.926 115.228, 96.303 125.186, 95.389 125.394, 95.370 134.881, 98.533 135.448, 98.722 140.961, 103.951 146.241, 111.072 146.238, 102.280 142.306, 95.179 " />
            <path fill="none" stroke-width="3.0" stroke-linecap="butt" stroke-opacity="1.0" stroke="rgb(0, 0, 0)" stroke-linejoin="round" d=" M 125.682, 105.469 115.797, 106.881 113.077, 112.083 112.827, 116.501 " />
            <path fill="none" stroke-width="3.0" stroke-linecap="butt" stroke-opacity="1.0" stroke="rgb(0, 0, 0)" stroke-linejoin="round" d=" M 93.522, 107.893 87.835, 106.382 84.712, 111.308 82.700, 119.017 82.770, 128.926 83.667, 135.957 84.848, 137.518 " />
            <path fill="none" stroke-width="3.0" stroke-linecap="butt" stroke-opacity="1.0" stroke="rgb(0, 0, 0)" stroke-linejoin="round" d=" M 117.809, 144.371 127.773, 143.525 129.440, 143.384 131.985, 140.579 " />
            <path fill="none" stroke-width="3.0" stroke-linecap="butt" stroke-opacity="1.0" stroke="rgb(0, 0, 0)" stroke-linejoin="round" d=" M 70.844, 106.855 72.378, 110.985 75.043, 116.899 76.562, 119.493 77.019, 119.446 76.611, 121.076 74.881, 118.635 73.904, 117.513 73.991, 118.647 74.168, 120.572 73.839, 121.559 74.020, 131.558 74.039, 132.574 71.439, 136.401 68.845, 139.770 " />
            <path fill="none" stroke-width="3.0" stroke-linecap="butt" stroke-opacity="1.0" stroke="rgb(0, 0, 0)" stroke-linejoin="round" d=" M 72.233, 135.756 69.640, 139.658 " />
            <path fill="none" stroke-width="3.0" stroke-linecap="butt" stroke-opacity="1.0" stroke="rgb(0, 0, 0)" stroke-linejoin="round" d=" M 65.849, 81.642 61.790, 79.290 62.383, 79.186 60.936, 79.262 60.629, 79.286 52.424, 85.003 51.985, 85.308 43.191, 90.070 42.218, 90.597 42.029, 91.659 51.719, 94.130 61.409, 96.601 67.079, 98.047 " />
            <path fill="none" stroke-width="3.0" stroke-linecap="butt" stroke-opacity="1.0" stroke="rgb(0, 0, 0)" stroke-linejoin="round" d=" M 70.001, 106.357 70.425, 107.102 70.844, 106.855 71.298, 106.588 " />
            <path fill="none" stroke-width="3.0" stroke-linecap="butt" stroke-opacity="1.0" stroke="rgb(0, 0, 0)" stroke-linejoin="round" d=" M 118.909, 195.180 121.382, 194.407 125.813, 193.583 126.012, 195.515 126.066, 196.040 125.714, 196.016 124.660, 195.944 122.978, 195.830 124.690, 195.520 124.660, 195.944 124.516, 198.027 " />
            <path fill="none" stroke-width="3.0" stroke-linecap="butt" stroke-opacity="1.0" stroke="rgb(0, 0, 0)" stroke-linejoin="round" d=" M 84.645, 138.417 85.271, 138.076 86.333, 137.498 86.801, 137.243 86.275, 137.318 84.848, 137.518 81.261, 138.023 78.118, 138.465 70.136, 139.588 69.640, 139.658 68.845, 139.770 67.630, 139.941 63.925, 141.272 58.855, 142.974 54.428, 148.130 54.277, 153.807 50.177, 162.479 49.415, 165.877 50.377, 169.851 54.579, 175.900 58.957, 183.210 63.982, 185.947 73.327, 189.508 75.301, 190.261 75.761, 190.436 76.657, 190.541 77.562, 190.646 81.170, 190.355 85.909, 189.972 88.282, 189.781 92.231, 188.258 101.010, 183.468 101.320, 183.299 106.307, 180.577 " />
            <path fill="none" stroke-width="3.0" stroke-linecap="butt" stroke-opacity="1.0" stroke="rgb(0, 0, 0)" stroke-linejoin="round" d=" M 67.844, 96.156 67.257, 97.166 67.079, 98.047 66.469, 101.064 66.890, 104.001 68.421, 107.507 " />
            <path fill="none" stroke-width="3.0" stroke-linecap="butt" stroke-opacity="1.0" stroke="rgb(0, 0, 0)" stroke-linejoin="round" d=" M 75.301, 190.261 75.699, 190.877 77.066, 192.339 78.829, 192.911 80.580, 193.490 83.386, 194.417 83.418, 194.410 83.632, 194.362 83.672, 194.353 88.539, 192.348 92.546, 190.697 92.778, 190.803 92.972, 191.274 98.680, 193.662 106.690, 197.691 106.942, 197.697 107.198, 197.703 107.727, 197.732 " />
            <path fill="none" stroke-width="3.0" stroke-linecap="butt" stroke-opacity="1.0" stroke="rgb(0, 0, 0)" stroke-linejoin="round" d=" M 83.898, 96.199 84.369, 95.858 84.521, 96.285 85.182, 98.132 85.508, 99.548 90.814, 104.056 " />
            <path fill="none" stroke-width="3.0" stroke-linecap="butt" stroke-opacity="1.0" stroke="rgb(0, 0, 0)" stroke-linejoin="round" d=" M 80.580, 193.490 85.377, 198.578 86.867, 199.941 91.022, 203.910 97.470, 209.602 98.582, 210.528 107.415, 214.408 107.638, 214.374 113.552, 212.224 117.740, 211.285 120.093, 212.834 120.017, 213.778 126.449, 211.761 136.182, 210.606 139.362, 209.642 148.127, 205.657 152.049, 204.102 160.008, 198.048 164.857, 194.360 171.797, 187.161 172.566, 186.364 174.275, 183.316 175.646, 180.871 178.070, 178.658 181.542, 171.611 184.869, 172.450 193.634, 172.053 193.903, 171.923 202.906, 167.571 203.444, 167.311 206.305, 164.816 207.281, 164.139 210.498, 154.671 210.815, 153.738 211.151, 151.785 210.067, 145.408 206.056, 136.248 205.955, 136.018 205.133, 134.698 202.641, 132.523 199.972, 131.822 195.812, 131.798 " />
            <path fill="none" stroke-width="3.0" stroke-linecap="butt" stroke-opacity="1.0" stroke="rgb(0, 0, 0)" stroke-linejoin="round" d=" M 88.539, 192.348 89.907, 193.638 91.801, 194.862 101.563, 197.031 102.848, 197.317 107.918, 198.561 110.657, 197.719 " />
            <path fill="none" stroke-width="3.0" stroke-linecap="butt" stroke-opacity="1.0" stroke="rgb(0, 0, 0)" stroke-linejoin="round" d=" M 92.681, 114.449 91.846, 114.227 89.976, 114.596 88.325, 115.148 87.206, 116.739 86.656, 117.162 85.411, 120.744 84.838, 122.204 84.600, 125.763 84.447, 128.068 84.692, 130.465 85.071, 134.153 85.674, 135.471 86.275, 137.318 " />
            <path fill="none" stroke-width="3.0" stroke-linecap="butt" stroke-opacity="1.0" stroke="rgb(0, 0, 0)" stroke-linejoin="round" d=" M 93.793, 108.902 93.973, 110.621 93.585, 114.696 93.467, 115.939 93.386, 125.938 93.351, 130.378 92.289, 137.024 92.407, 137.366 92.436, 137.627 88.369, 138.039 " />
            <path fill="none" stroke-width="3.0" stroke-linecap="butt" stroke-opacity="1.0" stroke="rgb(0, 0, 0)" stroke-linejoin="round" d=" M 118.871, 195.208 118.892, 195.185 121.398, 192.384 121.935, 192.430 124.029, 192.609 127.877, 192.384 128.420, 192.352 130.473, 190.478 133.117, 188.278 134.072, 186.122 135.833, 181.747 140.163, 180.534 144.141, 178.546 145.321, 176.126 148.360, 172.947 148.933, 171.134 150.542, 166.832 150.496, 165.412 150.113, 160.676 145.406, 151.853 144.718, 150.564 143.449, 148.162 139.640, 151.188 132.434, 158.122 128.818, 161.600 119.290, 164.633 113.755, 166.395 109.126, 167.899 " />
            <path fill="none" stroke-width="3.0" stroke-linecap="butt" stroke-opacity="1.0" stroke="rgb(0, 0, 0)" stroke-linejoin="round" d=" M 122.624, 142.219 123.120, 142.070 123.124, 142.069 123.201, 142.043 123.206, 142.041 125.826, 137.963 126.633, 136.720 127.504, 131.178 127.719, 129.436 127.447, 127.634 126.494, 122.226 125.217, 120.384 122.863, 116.942 120.909, 116.323 116.819, 115.067 112.827, 116.501 " />
            <path fill="none" stroke-width="3.0" stroke-linecap="butt" stroke-opacity="1.0" stroke="rgb(0, 0, 0)" stroke-linejoin="round" d=" M 174.275, 183.316 174.752, 183.387 177.193, 183.710 179.486, 183.881 182.004, 182.951 190.122, 177.112 192.533, 175.378 193.889, 173.274 193.903, 171.923 " />
        </g>
    </g>
</svg>
