<?xml version='1.0' encoding='ascii'?>
<svg xmlns="http://www.w3.org/2000/svg" version="1.1" width="250" height="250">
    <g id="ViewLayer_LineSet" xmlns:inkscape="http://www.inkscape.org/namespaces/inkscape" inkscape:groupmode="lineset" inkscape:label="ViewLayer_LineSet">
        <g xmlns:inkscape="http://www.inkscape.org/namespaces/inkscape" inkscape:groupmode="layer" id="strokes" inkscape:label="strokes">
            <path fill="none" stroke-width="3.0" stroke-linecap="butt" stroke-opacity="1.0" stroke="rgb(0, 0, 0)" stroke-linejoin="round" d=" M 126.693, 111.784 120.411, 110.462 117.509, 111.710 114.520, 113.117 113.203, 115.749 111.612, 118.799 111.530, 122.499 111.437, 126.004 112.325, 129.046 113.546, 133.104 114.848, 134.598 118.067, 138.151 118.072, 138.152 118.105, 138.158 118.184, 138.173 " />
            <path fill="none" stroke-width="3.0" stroke-linecap="butt" stroke-opacity="1.0" stroke="rgb(0, 0, 0)" stroke-linejoin="round" d=" M 195.196, 90.109 195.195, 90.108 192.980, 80.819 184.885, 76.775 183.982, 76.244 175.363, 71.173 173.163, 69.879 171.321, 69.803 161.328, 69.435 154.806, 69.194 " />
            <path fill="none" stroke-width="3.0" stroke-linecap="butt" stroke-opacity="1.0" stroke="rgb(0, 0, 0)" stroke-linejoin="round" d=" M 181.685, 115.879 182.075, 115.278 182.712, 112.618 183.863, 102.684 184.785, 94.728 " />
            <path fill="none" stroke-width="3.0" stroke-linecap="butt" stroke-opacity="1.0" stroke="rgb(0, 0, 0)" stroke-linejoin="round" d=" M 123.850, 140.768 123.419, 140.033 123.287, 139.807 123.994, 139.193 131.213, 132.926 124.821, 138.942 124.286, 139.445 123.419, 140.033 122.160, 140.886 121.948, 142.122 120.310, 151.637 121.335, 142.559 121.948, 142.122 123.850, 140.768 " />
            <path fill="none" stroke-width="3.0" stroke-linecap="butt" stroke-opacity="1.0" stroke="rgb(0, 0, 0)" stroke-linejoin="round" d=" M 115.513, 187.752 115.953, 188.087 117.817, 189.507 118.382, 189.938 122.356, 192.966 129.673, 193.154 131.433, 193.199 " />
            <path fill="none" stroke-width="3.0" stroke-linecap="butt" stroke-opacity="1.0" stroke="rgb(0, 0, 0)" stroke-linejoin="round" d=" M 146.301, 185.968 155.486, 189.922 156.338, 190.289 157.933, 190.976 164.923, 189.452 " />
            <path fill="none" stroke-width="3.0" stroke-linecap="butt" stroke-opacity="1.0" stroke="rgb(0, 0, 0)" stroke-linejoin="round" d=" M 91.870, 97.935 91.894, 106.478 97.023, 99.369 102.454, 94.065 111.825, 90.574 112.266, 90.410 122.278, 90.944 128.003, 95.295 133.237, 101.882 131.297, 94.188 126.177, 86.792 119.503, 83.062 " />
            <path fill="none" stroke-width="3.0" stroke-linecap="butt" stroke-opacity="1.0" stroke="rgb(0, 0, 0)" stroke-linejoin="round" d=" M 153.444, 91.376 160.697, 91.001 167.684, 94.594 171.864, 99.565 175.958, 106.144 " />
            <path fill="none" stroke-width="3.0" stroke-linecap="butt" stroke-opacity="1.0" stroke="rgb(0, 0, 0)" stroke-linejoin="round" d=" M 151.226, 86.008 147.249, 92.159 145.206, 102.019 " />
            <path fill="none" stroke-width="3.0" stroke-linecap="butt" stroke-opacity="1.0" stroke="rgb(0, 0, 0)" stroke-linejoin="round" d=" M 118.074, 138.154 123.512, 139.109 " />
            <path fill="none" stroke-width="3.0" stroke-linecap="butt" stroke-opacity="1.0" stroke="rgb(0, 0, 0)" stroke-linejoin="round" d=" M 126.375, 108.829 123.396, 103.775 113.372, 102.733 106.113, 108.470 102.558, 116.951 102.845, 126.946 102.864, 127.614 106.007, 134.818 111.353, 139.657 121.339, 140.177 122.680, 140.247 123.512, 139.109 " />
            <path fill="none" stroke-width="3.0" stroke-linecap="butt" stroke-opacity="1.0" stroke="rgb(0, 0, 0)" stroke-linejoin="round" d=" M 161.576, 130.619 162.641, 125.519 162.692, 115.519 162.693, 115.157 159.929, 106.746 154.643, 101.442 147.436, 102.511 " />
            <path fill="none" stroke-width="3.0" stroke-linecap="butt" stroke-opacity="1.0" stroke="rgb(0, 0, 0)" stroke-linejoin="round" d=" M 176.486, 98.561 179.135, 103.192 183.336, 103.324 183.964, 97.887 181.950, 95.986 184.785, 94.728 193.926, 90.673 195.194, 90.111 195.195, 90.110 " />
            <path fill="none" stroke-width="3.0" stroke-linecap="butt" stroke-opacity="1.0" stroke="rgb(0, 0, 0)" stroke-linejoin="round" d=" M 70.385, 183.055 67.346, 173.527 66.898, 172.122 66.563, 171.072 66.544, 171.011 66.549, 170.981 66.662, 170.346 " />
            <path fill="none" stroke-width="3.0" stroke-linecap="butt" stroke-opacity="1.0" stroke="rgb(0, 0, 0)" stroke-linejoin="round" d=" M 66.726, 162.445 65.039, 164.852 66.209, 168.770 66.492, 170.609 66.549, 170.981 66.563, 171.072 66.712, 172.038 66.758, 172.178 69.858, 181.685 70.507, 183.674 71.824, 185.499 71.971, 185.703 73.530, 186.979 73.772, 187.177 81.511, 193.510 82.509, 194.326 90.249, 200.658 94.938, 204.494 100.319, 207.025 109.309, 211.406 110.429, 211.952 111.579, 212.289 121.492, 213.604 123.401, 213.857 129.583, 215.776 135.497, 213.084 " />
            <path fill="none" stroke-width="3.0" stroke-linecap="butt" stroke-opacity="1.0" stroke="rgb(0, 0, 0)" stroke-linejoin="round" d=" M 186.044, 142.990 186.201, 140.012 184.890, 138.265 178.422, 130.637 177.289, 129.300 176.290, 124.953 177.942, 125.543 177.493, 123.167 181.704, 116.058 180.263, 117.919 181.685, 115.879 " />
            <path fill="none" stroke-width="3.0" stroke-linecap="butt" stroke-opacity="1.0" stroke="rgb(0, 0, 0)" stroke-linejoin="round" d=" M 99.955, 76.997 99.956, 76.996 106.469, 74.752 100.097, 76.952 99.955, 76.997 99.458, 77.157 97.709, 78.721 90.418, 85.565 83.127, 92.409 77.939, 97.279 79.056, 98.218 " />
            <path fill="none" stroke-width="3.0" stroke-linecap="butt" stroke-opacity="1.0" stroke="rgb(0, 0, 0)" stroke-linejoin="round" d=" M 118.234, 192.364 117.817, 189.507 " />
            <path fill="none" stroke-width="3.0" stroke-linecap="butt" stroke-opacity="1.0" stroke="rgb(0, 0, 0)" stroke-linejoin="round" d=" M 59.726, 137.737 58.852, 135.920 58.370, 133.195 59.861, 137.125 59.726, 137.737 58.152, 144.856 57.432, 148.669 57.667, 150.420 60.606, 154.936 63.767, 152.831 65.761, 150.291 " />
            <path fill="none" stroke-width="3.0" stroke-linecap="butt" stroke-opacity="1.0" stroke="rgb(0, 0, 0)" stroke-linejoin="round" d=" M 134.149, 174.916 142.400, 180.566 142.680, 180.758 144.663, 181.293 145.203, 181.439 145.751, 181.587 147.149, 181.698 153.566, 182.208 158.371, 181.455 165.580, 180.325 168.054, 179.837 172.716, 178.918 176.289, 177.105 177.212, 175.577 182.833, 167.306 184.971, 164.159 186.122, 156.139 185.595, 152.674 185.126, 149.590 184.832, 148.691 182.548, 141.703 182.300, 140.943 180.972, 138.357 179.306, 136.853 176.903, 134.684 173.609, 133.467 170.543, 132.333 168.063, 131.333 161.576, 130.619 158.846, 130.319 157.250, 130.144 156.746, 130.088 148.404, 129.360 146.734, 129.621 146.546, 129.651 145.512, 129.812 142.554, 130.438 132.770, 132.508 131.847, 132.703 131.624, 132.750 131.846, 132.705 141.645, 130.714 142.570, 130.526 146.251, 129.778 146.580, 130.511 " />
            <path fill="none" stroke-width="3.0" stroke-linecap="butt" stroke-opacity="1.0" stroke="rgb(0, 0, 0)" stroke-linejoin="round" d=" M 183.982, 76.244 183.622, 66.302 182.812, 63.445 176.978, 55.323 173.693, 50.751 168.624, 42.507 161.397, 36.413 153.254, 30.609 148.921, 27.520 145.405, 27.187 135.457, 26.160 125.510, 25.133 115.563, 24.105 108.955, 23.423 108.619, 23.370 106.558, 24.212 97.569, 28.594 88.581, 32.976 88.013, 33.253 84.959, 36.013 77.512, 42.687 71.808, 47.800 66.850, 52.997 65.844, 53.909 63.319, 57.968 58.406, 66.678 53.493, 75.388 48.581, 84.098 48.407, 84.406 47.207, 94.333 47.184, 94.524 44.891, 104.258 42.589, 114.025 42.742, 120.690 50.271, 127.271 55.077, 131.472 55.349, 131.913 54.747, 132.063 50.509, 133.412 46.305, 137.460 45.227, 139.945 42.480, 147.548 41.489, 152.648 41.959, 155.851 44.324, 164.907 45.919, 166.007 48.868, 169.247 56.431, 172.692 64.114, 173.229 65.035, 172.863 66.758, 172.178 " />
            <path fill="none" stroke-width="3.0" stroke-linecap="butt" stroke-opacity="1.0" stroke="rgb(0, 0, 0)" stroke-linejoin="round" d=" M 65.035, 172.863 62.283, 177.119 63.945, 178.665 71.499, 185.218 71.824, 185.499 " />
            <path fill="none" stroke-width="3.0" stroke-linecap="butt" stroke-opacity="1.0" stroke="rgb(0, 0, 0)" stroke-linejoin="round" d=" M 127.765, 161.771 121.108, 159.707 111.576, 156.685 106.518, 155.081 99.571, 149.557 92.604, 142.383 92.434, 142.207 90.657, 145.772 86.216, 154.399 86.132, 156.773 85.829, 160.571 86.483, 162.768 87.890, 166.699 89.171, 169.292 91.707, 172.471 95.866, 173.627 100.030, 175.775 102.123, 179.944 103.384, 182.617 105.675, 184.680 108.249, 186.931 113.457, 187.415 115.730, 187.284 115.857, 187.276 115.881, 187.291 117.646, 188.336 118.733, 188.980 118.382, 189.938 " />
            <path fill="none" stroke-width="3.0" stroke-linecap="butt" stroke-opacity="1.0" stroke="rgb(0, 0, 0)" stroke-linejoin="round" d=" M 129.673, 193.154 130.537, 193.770 133.149, 194.976 139.235, 194.593 149.262, 193.952 156.338, 190.289 " />
            <path fill="none" stroke-width="3.0" stroke-linecap="butt" stroke-opacity="1.0" stroke="rgb(0, 0, 0)" stroke-linejoin="round" d=" M 135.497, 213.084 137.223, 210.886 146.968, 210.077 150.201, 208.499 155.896, 204.151 161.532, 199.591 161.832, 199.328 163.299, 197.968 160.724, 194.026 169.348, 188.964 177.972, 183.901 182.061, 181.501 182.399, 181.151 184.263, 171.523 185.102, 168.587 " />
            <path fill="none" stroke-width="3.0" stroke-linecap="butt" stroke-opacity="1.0" stroke="rgb(0, 0, 0)" stroke-linejoin="round" d=" M 134.984, 191.230 143.798, 187.010 145.314, 186.284 145.333, 186.282 " />
            <path fill="none" stroke-width="3.0" stroke-linecap="butt" stroke-opacity="1.0" stroke="rgb(0, 0, 0)" stroke-linejoin="round" d=" M 146.052, 111.647 145.932, 108.483 145.852, 106.971 145.839, 106.718 146.218, 105.940 " />
            <path fill="none" stroke-width="3.0" stroke-linecap="butt" stroke-opacity="1.0" stroke="rgb(0, 0, 0)" stroke-linejoin="round" d=" M 158.846, 130.319 158.878, 130.242 159.121, 124.957 159.210, 123.635 158.922, 122.337 157.809, 117.363 157.296, 116.421 155.273, 112.321 154.934, 112.147 154.069, 111.353 151.331, 110.706 149.195, 110.361 148.659, 110.563 147.649, 110.943 " />
            <path fill="none" stroke-width="3.0" stroke-linecap="butt" stroke-opacity="1.0" stroke="rgb(0, 0, 0)" stroke-linejoin="round" d=" M 148.476, 97.292 151.040, 94.727 153.148, 91.705 " />
            <path fill="none" stroke-width="3.0" stroke-linecap="butt" stroke-opacity="1.0" stroke="rgb(0, 0, 0)" stroke-linejoin="round" d=" M 165.273, 188.994 170.371, 182.714 174.029, 182.335 176.370, 181.704 178.961, 178.097 179.812, 177.016 181.226, 172.407 182.067, 170.257 185.102, 168.587 187.302, 167.376 188.155, 166.599 188.767, 162.416 189.358, 161.212 189.913, 156.824 190.127, 155.456 189.661, 151.100 189.490, 149.841 187.251, 145.529 186.044, 142.990 184.311, 139.348 182.548, 141.703 " />
            <path fill="none" stroke-width="3.0" stroke-linecap="butt" stroke-opacity="1.0" stroke="rgb(0, 0, 0)" stroke-linejoin="round" d=" M 175.537, 102.370 176.486, 98.561 176.968, 96.625 176.805, 96.352 173.949, 91.542 171.992, 90.192 " />
        </g>
    </g>
</svg>
