<?xml version='1.0' encoding='ascii'?>
<svg xmlns="http://www.w3.org/2000/svg" version="1.1" width="250" height="250">
    <g id="ViewLayer_LineSet" xmlns:inkscape="http://www.inkscape.org/namespaces/inkscape" inkscape:groupmode="lineset" inkscape:label="ViewLayer_LineSet">
        <g xmlns:inkscape="http://www.inkscape.org/namespaces/inkscape" inkscape:groupmode="layer" id="strokes" inkscape:label="strokes">
            <path fill="none" stroke-width="3.0" stroke-linecap="butt" stroke-opacity="1.0" stroke="rgb(0, 0, 0)" stroke-linejoin="round" d=" M 95.424, 188.106 100.446, 185.928 100.446, 185.928 100.611, 185.955 101.469, 186.212 105.021, 187.625 110.792, 190.635 " />
            <path fill="none" stroke-width="3.0" stroke-linecap="butt" stroke-opacity="1.0" stroke="rgb(0, 0, 0)" stroke-linejoin="round" d=" M 99.815, 110.959 96.647, 110.099 95.206, 110.476 93.108, 111.252 91.727, 112.642 91.267, 112.938 89.346, 117.127 88.842, 118.149 88.276, 122.927 88.120, 124.414 88.254, 125.910 88.597, 130.145 " />
            <path fill="none" stroke-width="3.0" stroke-linecap="butt" stroke-opacity="1.0" stroke="rgb(0, 0, 0)" stroke-linejoin="round" d=" M 129.868, 137.940 130.215, 137.839 130.356, 137.793 130.378, 137.786 132.889, 134.262 134.240, 132.347 135.017, 128.314 135.524, 125.041 135.058, 121.267 134.558, 117.795 132.467, 114.702 130.997, 112.516 127.800, 111.491 124.765, 110.580 120.507, 112.017 " />
            <path fill="none" stroke-width="3.0" stroke-linecap="butt" stroke-opacity="1.0" stroke="rgb(0, 0, 0)" stroke-linejoin="round" d=" M 147.965, 77.873 147.099, 77.110 146.854, 77.032 146.769, 77.005 143.047, 75.738 146.850, 77.028 146.854, 77.032 " />
            <path fill="none" stroke-width="3.0" stroke-linecap="butt" stroke-opacity="1.0" stroke="rgb(0, 0, 0)" stroke-linejoin="round" d=" M 192.468, 131.752 200.018, 125.194 205.095, 120.784 205.200, 115.051 202.860, 105.329 200.520, 95.606 200.311, 94.737 199.043, 84.818 198.967, 84.221 194.021, 75.530 189.076, 66.838 184.130, 58.147 183.401, 56.865 181.470, 53.792 180.704, 53.094 176.882, 49.072 169.454, 42.376 162.581, 36.181 159.317, 33.220 150.312, 28.872 141.306, 24.525 140.263, 24.021 138.584, 23.349 138.296, 23.395 128.352, 24.452 118.408, 25.510 108.464, 26.567 101.952, 27.259 98.330, 27.618 90.225, 33.476 86.160, 36.414 78.805, 42.700 73.926, 50.645 68.095, 58.769 64.648, 63.572 64.069, 65.664 63.804, 75.702 " />
            <path fill="none" stroke-width="3.0" stroke-linecap="butt" stroke-opacity="1.0" stroke="rgb(0, 0, 0)" stroke-linejoin="round" d=" M 68.439, 103.226 70.711, 99.243 " />
            <path fill="none" stroke-width="3.0" stroke-linecap="butt" stroke-opacity="1.0" stroke="rgb(0, 0, 0)" stroke-linejoin="round" d=" M 190.632, 150.311 190.894, 149.235 190.317, 146.503 187.743, 137.828 187.554, 137.189 189.108, 133.233 188.654, 135.953 187.743, 137.828 " />
            <path fill="none" stroke-width="3.0" stroke-linecap="butt" stroke-opacity="1.0" stroke="rgb(0, 0, 0)" stroke-linejoin="round" d=" M 115.317, 133.005 115.317, 133.005 115.514, 133.197 120.877, 138.406 123.362, 140.820 124.503, 141.858 125.288, 142.570 125.969, 149.444 124.503, 141.858 124.312, 140.868 122.175, 139.429 121.204, 138.520 115.503, 133.180 115.317, 133.005 115.317, 133.005 " />
            <path fill="none" stroke-width="3.0" stroke-linecap="butt" stroke-opacity="1.0" stroke="rgb(0, 0, 0)" stroke-linejoin="round" d=" M 115.322, 193.131 120.265, 193.003 124.387, 192.897 127.310, 190.671 128.169, 190.017 131.229, 187.686 " />
            <path fill="none" stroke-width="3.0" stroke-linecap="butt" stroke-opacity="1.0" stroke="rgb(0, 0, 0)" stroke-linejoin="round" d=" M 81.484, 188.891 81.904, 189.446 88.825, 190.968 92.218, 189.497 100.446, 185.928 " />
            <path fill="none" stroke-width="3.0" stroke-linecap="butt" stroke-opacity="1.0" stroke="rgb(0, 0, 0)" stroke-linejoin="round" d=" M 71.087, 106.027 75.161, 99.427 79.245, 94.419 86.249, 90.832 93.275, 91.205 " />
            <path fill="none" stroke-width="3.0" stroke-linecap="butt" stroke-opacity="1.0" stroke="rgb(0, 0, 0)" stroke-linejoin="round" d=" M 101.391, 101.864 99.133, 94.279 96.507, 87.087 92.100, 83.604 " />
            <path fill="none" stroke-width="3.0" stroke-linecap="butt" stroke-opacity="1.0" stroke="rgb(0, 0, 0)" stroke-linejoin="round" d=" M 122.359, 85.668 116.456, 92.039 114.393, 101.824 114.348, 102.038 119.492, 95.459 125.206, 91.123 135.192, 90.597 135.366, 90.588 144.736, 94.081 145.194, 94.251 150.561, 99.516 155.668, 106.602 155.708, 98.086 " />
            <path fill="none" stroke-width="3.0" stroke-linecap="butt" stroke-opacity="1.0" stroke="rgb(0, 0, 0)" stroke-linejoin="round" d=" M 124.177, 139.551 130.349, 137.803 " />
            <path fill="none" stroke-width="3.0" stroke-linecap="butt" stroke-opacity="1.0" stroke="rgb(0, 0, 0)" stroke-linejoin="round" d=" M 124.532, 140.236 134.519, 139.724 135.868, 139.655 141.077, 134.289 144.029, 126.889 144.085, 116.889 144.090, 115.966 140.440, 107.060 133.652, 101.485 123.724, 102.559 120.847, 107.633 120.507, 112.017 " />
            <path fill="none" stroke-width="3.0" stroke-linecap="butt" stroke-opacity="1.0" stroke="rgb(0, 0, 0)" stroke-linejoin="round" d=" M 99.485, 103.700 92.489, 102.644 87.997, 108.089 85.147, 116.086 84.804, 126.080 84.800, 126.194 85.494, 130.482 " />
            <path fill="none" stroke-width="3.0" stroke-linecap="butt" stroke-opacity="1.0" stroke="rgb(0, 0, 0)" stroke-linejoin="round" d=" M 168.882, 97.196 161.536, 90.410 154.191, 83.625 147.965, 77.873 " />
            <path fill="none" stroke-width="3.0" stroke-linecap="butt" stroke-opacity="1.0" stroke="rgb(0, 0, 0)" stroke-linejoin="round" d=" M 63.108, 94.476 63.090, 94.856 64.293, 104.783 65.336, 113.392 65.778, 115.195 66.039, 115.605 66.995, 116.976 66.019, 115.723 70.319, 123.068 69.880, 125.253 71.554, 124.625 70.470, 129.174 65.088, 135.346 62.314, 139.181 61.709, 139.861 61.569, 141.621 " />
            <path fill="none" stroke-width="3.0" stroke-linecap="butt" stroke-opacity="1.0" stroke="rgb(0, 0, 0)" stroke-linejoin="round" d=" M 85.650, 198.394 85.765, 198.524 85.799, 198.555 91.156, 203.860 96.143, 207.804 100.107, 210.063 110.039, 210.881 111.735, 213.014 " />
            <path fill="none" stroke-width="3.0" stroke-linecap="butt" stroke-opacity="1.0" stroke="rgb(0, 0, 0)" stroke-linejoin="round" d=" M 180.377, 168.913 180.716, 170.894 180.746, 171.071 180.647, 171.329 180.304, 172.224 176.722, 181.560 176.227, 182.849 179.303, 173.334 179.733, 172.003 180.304, 172.224 " />
            <path fill="none" stroke-width="3.0" stroke-linecap="butt" stroke-opacity="1.0" stroke="rgb(0, 0, 0)" stroke-linejoin="round" d=" M 91.938, 69.205 81.945, 69.582 75.331, 69.831 73.412, 69.912 64.847, 75.073 63.804, 75.702 62.073, 76.745 53.704, 80.929 51.746, 89.511 60.909, 93.515 63.108, 94.476 66.087, 95.777 63.995, 97.907 64.487, 103.453 68.439, 103.226 " />
            <path fill="none" stroke-width="3.0" stroke-linecap="butt" stroke-opacity="1.0" stroke="rgb(0, 0, 0)" stroke-linejoin="round" d=" M 127.310, 190.671 128.315, 190.863 129.535, 190.473 131.174, 190.141 131.114, 190.753 131.074, 191.160 129.904, 191.004 131.114, 190.753 131.568, 190.659 131.637, 190.644 130.420, 193.396 " />
            <path fill="none" stroke-width="3.0" stroke-linecap="butt" stroke-opacity="1.0" stroke="rgb(0, 0, 0)" stroke-linejoin="round" d=" M 188.390, 153.512 190.632, 150.311 " />
            <path fill="none" stroke-width="3.0" stroke-linecap="butt" stroke-opacity="1.0" stroke="rgb(0, 0, 0)" stroke-linejoin="round" d=" M 100.034, 129.966 100.213, 129.899 100.461, 129.805 101.178, 129.843 101.456, 129.857 105.138, 130.652 114.591, 132.692 105.124, 130.681 101.178, 129.843 101.006, 129.806 100.222, 129.681 100.047, 129.654 98.096, 129.343 90.415, 129.986 88.880, 130.115 88.597, 130.145 85.494, 130.482 78.011, 131.292 75.534, 132.200 74.256, 132.698 69.267, 134.641 68.666, 135.186 65.230, 138.298 65.338, 143.938 65.356, 144.864 62.999, 149.032 61.871, 151.029 60.605, 156.336 60.663, 156.868 61.345, 163.028 61.416, 163.666 61.637, 163.989 67.280, 172.245 68.656, 174.257 70.136, 176.741 74.674, 179.247 78.748, 179.984 80.134, 180.235 88.985, 181.599 92.739, 182.178 100.509, 181.544 100.690, 181.496 102.581, 180.986 102.994, 180.875 103.537, 180.728 112.612, 176.528 119.246, 173.457 " />
            <path fill="none" stroke-width="3.0" stroke-linecap="butt" stroke-opacity="1.0" stroke="rgb(0, 0, 0)" stroke-linejoin="round" d=" M 61.569, 141.621 59.781, 145.372 57.546, 149.693 57.086, 154.035 56.915, 155.304 57.467, 159.678 57.676, 161.049 58.369, 165.519 58.881, 166.599 63.092, 168.783 63.173, 168.825 64.692, 170.240 65.484, 172.279 66.935, 177.009 69.582, 180.556 70.487, 181.704 72.994, 182.374 76.492, 182.726 79.040, 185.656 79.635, 186.340 81.484, 188.891 " />
            <path fill="none" stroke-width="3.0" stroke-linecap="butt" stroke-opacity="1.0" stroke="rgb(0, 0, 0)" stroke-linejoin="round" d=" M 63.092, 168.783 63.493, 170.104 64.339, 177.668 67.345, 182.616 76.018, 187.594 84.691, 192.572 87.945, 194.439 88.523, 195.480 " />
            <path fill="none" stroke-width="3.0" stroke-linecap="butt" stroke-opacity="1.0" stroke="rgb(0, 0, 0)" stroke-linejoin="round" d=" M 75.787, 89.430 72.987, 91.375 70.033, 96.363 69.988, 96.439 70.711, 99.243 71.506, 102.323 " />
            <path fill="none" stroke-width="3.0" stroke-linecap="butt" stroke-opacity="1.0" stroke="rgb(0, 0, 0)" stroke-linejoin="round" d=" M 93.551, 91.516 95.261, 94.345 98.374, 97.422 " />
            <path fill="none" stroke-width="3.0" stroke-linecap="butt" stroke-opacity="1.0" stroke="rgb(0, 0, 0)" stroke-linejoin="round" d=" M 92.218, 189.497 97.451, 192.837 106.081, 194.265 113.765, 195.722 117.706, 194.327 120.265, 193.003 " />
            <path fill="none" stroke-width="3.0" stroke-linecap="butt" stroke-opacity="1.0" stroke="rgb(0, 0, 0)" stroke-linejoin="round" d=" M 100.731, 107.526 100.962, 107.837 100.943, 108.178 100.876, 109.423 100.803, 111.208 " />
            <path fill="none" stroke-width="3.0" stroke-linecap="butt" stroke-opacity="1.0" stroke="rgb(0, 0, 0)" stroke-linejoin="round" d=" M 111.735, 213.014 117.496, 215.734 123.641, 213.776 133.574, 212.620 136.113, 212.325 136.798, 212.106 145.667, 207.487 146.930, 206.829 151.706, 204.650 159.698, 198.640 165.046, 194.618 171.564, 188.274 174.931, 184.996 176.129, 183.282 179.794, 173.978 180.461, 172.284 180.518, 172.139 180.647, 171.329 180.716, 170.894 180.901, 169.727 181.046, 168.810 182.092, 165.341 180.757, 165.547 " />
            <path fill="none" stroke-width="3.0" stroke-linecap="butt" stroke-opacity="1.0" stroke="rgb(0, 0, 0)" stroke-linejoin="round" d=" M 128.169, 190.017 130.857, 187.198 131.005, 187.206 131.863, 187.254 133.327, 187.336 138.362, 186.853 140.524, 184.803 143.131, 182.534 144.369, 179.920 146.408, 175.684 151.054, 174.322 154.878, 172.389 156.101, 169.769 158.809, 166.816 159.535, 164.496 160.874, 160.691 160.798, 158.489 160.485, 154.520 156.031, 145.916 154.247, 142.339 149.254, 146.207 142.058, 153.150 140.118, 155.022 130.589, 158.054 125.517, 159.668 118.936, 161.723 " />
            <path fill="none" stroke-width="3.0" stroke-linecap="butt" stroke-opacity="1.0" stroke="rgb(0, 0, 0)" stroke-linejoin="round" d=" M 171.564, 188.274 174.268, 187.200 181.855, 180.686 184.773, 178.181 185.757, 177.274 183.160, 173.239 " />
            <path fill="none" stroke-width="3.0" stroke-linecap="butt" stroke-opacity="1.0" stroke="rgb(0, 0, 0)" stroke-linejoin="round" d=" M 180.461, 172.284 182.963, 173.251 183.160, 173.239 191.130, 172.736 199.065, 169.109 201.882, 166.087 203.350, 165.085 205.925, 155.863 206.371, 152.846 205.334, 147.592 202.417, 139.822 201.357, 137.438 197.185, 133.469 192.643, 132.037 192.340, 131.962 192.468, 131.752 " />
        </g>
    </g>
</svg>
