<?xml version='1.0' encoding='ascii'?>
<svg xmlns="http://www.w3.org/2000/svg" version="1.1" width="250" height="250">
    <g id="ViewLayer_LineSet" xmlns:inkscape="http://www.inkscape.org/namespaces/inkscape" inkscape:groupmode="lineset" inkscape:label="ViewLayer_LineSet">
        <g xmlns:inkscape="http://www.inkscape.org/namespaces/inkscape" inkscape:groupmode="layer" id="strokes" inkscape:label="strokes">
            <path fill="none" stroke-width="3.0" stroke-linecap="butt" stroke-opacity="1.0" stroke="rgb(0, 0, 0)" stroke-linejoin="round" d=" M 99.557, 109.991 96.140, 109.044 94.924, 109.357 93.185, 109.998 91.499, 111.680 90.950, 112.037 89.058, 116.045 88.504, 117.149 87.890, 121.766 87.703, 123.339 87.818, 124.911 87.995, 127.672 " />
            <path fill="none" stroke-width="3.0" stroke-linecap="butt" stroke-opacity="1.0" stroke="rgb(0, 0, 0)" stroke-linejoin="round" d=" M 148.179, 77.174 146.137, 75.329 145.250, 75.039 135.809, 71.743 133.148, 70.813 " />
            <path fill="none" stroke-width="3.0" stroke-linecap="butt" stroke-opacity="1.0" stroke="rgb(0, 0, 0)" stroke-linejoin="round" d=" M 96.425, 67.120 102.210, 66.826 95.727, 67.027 85.735, 67.444 75.744, 67.860 75.340, 67.877 72.748, 67.988 64.922, 72.927 62.005, 74.768 53.206, 79.315 51.633, 87.702 60.627, 92.073 64.090, 93.756 66.237, 94.799 64.226, 97.000 64.174, 97.056 64.500, 99.428 64.982, 102.942 68.950, 102.934 70.963, 99.418 " />
            <path fill="none" stroke-width="3.0" stroke-linecap="butt" stroke-opacity="1.0" stroke="rgb(0, 0, 0)" stroke-linejoin="round" d=" M 190.520, 150.428 190.725, 149.580 190.306, 147.445 187.767, 138.477 187.542, 137.682 189.064, 134.124 188.667, 136.681 187.767, 138.477 " />
            <path fill="none" stroke-width="3.0" stroke-linecap="butt" stroke-opacity="1.0" stroke="rgb(0, 0, 0)" stroke-linejoin="round" d=" M 180.600, 166.332 180.186, 169.656 180.141, 170.018 180.333, 171.210 180.382, 171.516 180.226, 171.920 179.766, 173.112 176.356, 181.940 179.802, 173.127 180.197, 172.116 180.226, 171.920 180.333, 171.210 180.519, 169.966 180.734, 168.530 181.484, 166.155 180.600, 166.332 " />
            <path fill="none" stroke-width="3.0" stroke-linecap="butt" stroke-opacity="1.0" stroke="rgb(0, 0, 0)" stroke-linejoin="round" d=" M 113.579, 191.690 119.343, 191.599 122.675, 191.547 125.628, 189.346 126.809, 188.465 129.604, 186.381 " />
            <path fill="none" stroke-width="3.0" stroke-linecap="butt" stroke-opacity="1.0" stroke="rgb(0, 0, 0)" stroke-linejoin="round" d=" M 77.436, 183.965 80.366, 187.955 87.191, 189.437 90.427, 188.017 95.564, 185.763 " />
            <path fill="none" stroke-width="3.0" stroke-linecap="butt" stroke-opacity="1.0" stroke="rgb(0, 0, 0)" stroke-linejoin="round" d=" M 71.025, 105.042 75.115, 98.449 79.187, 93.428 86.097, 89.769 92.979, 90.034 " />
            <path fill="none" stroke-width="3.0" stroke-linecap="butt" stroke-opacity="1.0" stroke="rgb(0, 0, 0)" stroke-linejoin="round" d=" M 100.846, 100.541 98.670, 92.968 96.203, 85.909 91.932, 82.534 " />
            <path fill="none" stroke-width="3.0" stroke-linecap="butt" stroke-opacity="1.0" stroke="rgb(0, 0, 0)" stroke-linejoin="round" d=" M 121.847, 84.488 115.892, 90.770 113.762, 100.541 113.718, 100.744 118.891, 94.197 124.642, 89.940 134.633, 89.499 134.798, 89.491 144.144, 93.048 144.597, 93.221 149.922, 98.499 154.976, 105.597 155.092, 97.125 " />
            <path fill="none" stroke-width="3.0" stroke-linecap="butt" stroke-opacity="1.0" stroke="rgb(0, 0, 0)" stroke-linejoin="round" d=" M 123.300, 138.460 129.499, 136.772 " />
            <path fill="none" stroke-width="3.0" stroke-linecap="butt" stroke-opacity="1.0" stroke="rgb(0, 0, 0)" stroke-linejoin="round" d=" M 136.063, 137.781 140.324, 133.423 143.350, 126.056 143.470, 116.057 143.481, 115.113 139.890, 106.178 133.150, 100.569 123.216, 101.552 120.290, 106.579 119.904, 110.930 " />
            <path fill="none" stroke-width="3.0" stroke-linecap="butt" stroke-opacity="1.0" stroke="rgb(0, 0, 0)" stroke-linejoin="round" d=" M 99.153, 102.697 92.301, 101.753 87.859, 107.279 84.965, 115.276 84.498, 125.349 84.864, 127.877 " />
            <path fill="none" stroke-width="3.0" stroke-linecap="butt" stroke-opacity="1.0" stroke="rgb(0, 0, 0)" stroke-linejoin="round" d=" M 64.500, 99.428 65.622, 109.365 66.164, 114.161 66.460, 115.405 66.629, 115.680 67.267, 116.619 66.615, 115.763 70.819, 123.165 70.357, 125.058 72.059, 124.205 70.807, 128.878 69.661, 130.148 68.262, 132.002 " />
            <path fill="none" stroke-width="3.0" stroke-linecap="butt" stroke-opacity="1.0" stroke="rgb(0, 0, 0)" stroke-linejoin="round" d=" M 87.379, 195.536 84.488, 197.710 84.487, 197.710 84.487, 197.711 84.487, 197.711 89.817, 203.163 93.737, 206.352 98.871, 209.330 107.901, 210.263 109.446, 212.261 " />
            <path fill="none" stroke-width="3.0" stroke-linecap="butt" stroke-opacity="1.0" stroke="rgb(0, 0, 0)" stroke-linejoin="round" d=" M 167.389, 97.348 168.117, 96.106 160.865, 89.220 153.614, 82.334 148.179, 77.174 " />
            <path fill="none" stroke-width="3.0" stroke-linecap="butt" stroke-opacity="1.0" stroke="rgb(0, 0, 0)" stroke-linejoin="round" d=" M 125.628, 189.346 127.365, 189.677 128.062, 189.451 129.026, 189.269 128.981, 189.712 128.964, 189.878 128.285, 189.781 128.981, 189.712 130.161, 189.594 129.009, 192.672 " />
            <path fill="none" stroke-width="3.0" stroke-linecap="butt" stroke-opacity="1.0" stroke="rgb(0, 0, 0)" stroke-linejoin="round" d=" M 188.761, 152.855 190.520, 150.428 " />
            <path fill="none" stroke-width="3.0" stroke-linecap="butt" stroke-opacity="1.0" stroke="rgb(0, 0, 0)" stroke-linejoin="round" d=" M 99.560, 128.059 99.588, 128.047 100.862, 128.104 104.538, 128.915 113.583, 130.910 113.755, 130.948 114.066, 131.356 114.345, 131.724 114.753, 132.119 120.143, 137.333 122.081, 139.208 123.150, 140.116 123.968, 140.812 124.389, 146.527 123.150, 140.116 122.938, 139.021 120.832, 137.579 120.713, 137.498 114.569, 131.821 114.066, 131.356 113.583, 130.910 113.549, 130.879 104.550, 128.815 100.168, 127.810 99.579, 127.711 99.318, 127.667 96.155, 127.138 89.762, 127.556 87.995, 127.672 84.864, 127.877 82.601, 128.025 75.376, 128.676 73.787, 129.200 69.800, 130.654 68.262, 132.002 64.073, 135.676 64.047, 137.590 63.996, 141.404 63.990, 141.846 61.606, 145.927 60.148, 148.423 58.846, 153.420 59.571, 160.692 61.151, 163.133 66.582, 171.530 66.727, 171.755 68.056, 174.112 71.727, 176.280 77.737, 177.449 79.550, 177.802 88.605, 179.309 91.193, 179.739 98.187, 179.205 98.301, 179.177 98.825, 179.052 100.921, 178.550 102.336, 177.951 111.545, 174.055 115.205, 172.506 " />
            <path fill="none" stroke-width="3.0" stroke-linecap="butt" stroke-opacity="1.0" stroke="rgb(0, 0, 0)" stroke-linejoin="round" d=" M 62.421, 167.610 62.921, 169.373 63.633, 177.032 66.558, 181.921 75.142, 187.050 83.727, 192.179 86.487, 193.828 87.379, 195.536 " />
            <path fill="none" stroke-width="3.0" stroke-linecap="butt" stroke-opacity="1.0" stroke="rgb(0, 0, 0)" stroke-linejoin="round" d=" M 62.799, 139.102 62.098, 137.754 58.911, 144.298 56.825, 148.240 56.300, 152.651 56.123, 153.844 56.606, 158.264 56.784, 159.572 57.387, 164.009 57.880, 165.083 62.075, 167.282 62.421, 167.610 63.545, 168.676 64.293, 170.696 65.666, 175.451 68.233, 178.990 69.141, 180.172 71.728, 180.875 75.092, 181.205 77.436, 183.965 78.051, 184.689 79.880, 187.293 " />
            <path fill="none" stroke-width="3.0" stroke-linecap="butt" stroke-opacity="1.0" stroke="rgb(0, 0, 0)" stroke-linejoin="round" d=" M 76.912, 87.494 76.755, 87.614 72.864, 90.358 70.247, 94.796 70.017, 95.420 70.014, 95.716 70.963, 99.418 71.483, 101.446 " />
            <path fill="none" stroke-width="3.0" stroke-linecap="butt" stroke-opacity="1.0" stroke="rgb(0, 0, 0)" stroke-linejoin="round" d=" M 93.375, 90.484 94.846, 93.039 97.881, 96.089 " />
            <path fill="none" stroke-width="3.0" stroke-linecap="butt" stroke-opacity="1.0" stroke="rgb(0, 0, 0)" stroke-linejoin="round" d=" M 90.427, 188.017 96.073, 191.727 104.173, 193.142 112.227, 194.763 115.548, 193.585 119.343, 191.599 " />
            <path fill="none" stroke-width="3.0" stroke-linecap="butt" stroke-opacity="1.0" stroke="rgb(0, 0, 0)" stroke-linejoin="round" d=" M 95.564, 185.763 98.890, 184.279 98.930, 184.286 98.996, 184.296 99.841, 184.548 100.980, 185.016 103.020, 185.854 108.122, 188.608 " />
            <path fill="none" stroke-width="3.0" stroke-linecap="butt" stroke-opacity="1.0" stroke="rgb(0, 0, 0)" stroke-linejoin="round" d=" M 100.284, 106.339 100.504, 106.589 100.476, 106.959 100.366, 108.455 100.273, 110.166 " />
            <path fill="none" stroke-width="3.0" stroke-linecap="butt" stroke-opacity="1.0" stroke="rgb(0, 0, 0)" stroke-linejoin="round" d=" M 109.446, 212.261 116.848, 215.844 121.993, 214.333 131.953, 213.431 133.790, 213.264 135.933, 212.793 139.182, 211.349 146.532, 207.567 149.076, 206.387 157.059, 200.365 164.519, 194.736 169.494, 189.856 175.166, 184.293 175.394, 183.704 175.943, 182.961 179.432, 173.590 179.631, 173.056 179.766, 173.112 " />
            <path fill="none" stroke-width="3.0" stroke-linecap="butt" stroke-opacity="1.0" stroke="rgb(0, 0, 0)" stroke-linejoin="round" d=" M 126.809, 188.465 129.246, 185.896 129.388, 185.905 130.499, 185.977 131.487, 186.041 136.773, 185.554 138.877, 183.584 141.600, 181.242 142.804, 178.731 144.926, 174.352 149.443, 173.073 153.446, 171.108 154.663, 168.583 157.494, 165.571 158.208, 163.347 159.612, 159.445 159.548, 157.309 159.242, 153.246 154.857, 144.702 153.042, 141.030 147.737, 145.019 140.431, 151.847 138.693, 153.471 129.142, 156.434 124.509, 157.872 117.170, 160.047 " />
            <path fill="none" stroke-width="3.0" stroke-linecap="butt" stroke-opacity="1.0" stroke="rgb(0, 0, 0)" stroke-linejoin="round" d=" M 129.684, 136.497 132.147, 133.085 133.393, 131.349 134.253, 127.129 134.762, 124.048 134.349, 120.394 133.868, 116.792 131.806, 113.664 130.379, 111.487 127.075, 110.396 124.199, 109.503 119.904, 110.930 " />
            <path fill="none" stroke-width="3.0" stroke-linecap="butt" stroke-opacity="1.0" stroke="rgb(0, 0, 0)" stroke-linejoin="round" d=" M 136.063, 137.781 135.119, 138.756 135.107, 138.760 135.030, 138.782 134.470, 138.806 " />
            <path fill="none" stroke-width="3.0" stroke-linecap="butt" stroke-opacity="1.0" stroke="rgb(0, 0, 0)" stroke-linejoin="round" d=" M 169.494, 189.856 171.781, 190.048 174.962, 188.841 182.602, 182.388 186.263, 179.297 186.319, 179.215 186.320, 179.171 186.249, 179.065 183.031, 173.955 " />
            <path fill="none" stroke-width="3.0" stroke-linecap="butt" stroke-opacity="1.0" stroke="rgb(0, 0, 0)" stroke-linejoin="round" d=" M 179.802, 173.127 181.951, 174.007 183.031, 173.955 191.096, 173.566 199.959, 169.695 202.349, 167.182 203.636, 166.337 206.330, 156.919 206.776, 154.046 205.727, 148.657 202.769, 140.799 201.677, 138.338 197.323, 134.196 192.674, 132.741 192.656, 132.741 " />
            <path fill="none" stroke-width="3.0" stroke-linecap="butt" stroke-opacity="1.0" stroke="rgb(0, 0, 0)" stroke-linejoin="round" d=" M 192.651, 132.744 192.885, 132.555 200.575, 126.162 205.808, 121.812 205.851, 117.538 203.530, 107.811 201.209, 98.084 200.582, 95.458 199.283, 85.542 199.147, 84.507 194.212, 75.810 189.276, 67.113 184.340, 58.416 183.648, 57.198 181.617, 53.968 180.771, 53.198 176.238, 48.437 168.840, 41.709 162.571, 36.007 159.660, 33.341 150.678, 28.945 144.461, 25.903 138.917, 23.694 137.868, 23.862 127.926, 24.942 117.985, 26.022 108.043, 27.102 102.955, 27.654 98.603, 28.103 90.498, 33.961 87.228, 36.324 79.616, 42.809 79.199, 43.164 74.889, 50.209 69.078, 58.348 65.270, 63.681 65.224, 63.804 64.922, 72.927 " />
        </g>
    </g>
</svg>
