<?xml version='1.0' encoding='ascii'?>
<svg xmlns="http://www.w3.org/2000/svg" version="1.1" width="250" height="250">
    <g id="ViewLayer_LineSet" xmlns:inkscape="http://www.inkscape.org/namespaces/inkscape" inkscape:groupmode="lineset" inkscape:label="ViewLayer_LineSet">
        <g xmlns:inkscape="http://www.inkscape.org/namespaces/inkscape" inkscape:groupmode="layer" id="strokes" inkscape:label="strokes">
            <path fill="none" stroke-width="3.0" stroke-linecap="butt" stroke-opacity="1.0" stroke="rgb(0, 0, 0)" stroke-linejoin="round" d=" M 140.381, 186.639 143.264, 183.614 143.377, 183.496 145.935, 183.554 150.973, 182.871 153.233, 180.536 155.527, 178.352 156.931, 175.225 158.821, 171.398 163.717, 169.791 166.936, 168.016 168.073, 165.102 170.188, 162.494 170.952, 159.620 171.890, 156.438 171.701, 153.515 171.379, 150.368 167.552, 143.156 165.320, 138.684 160.237, 142.892 153.399, 150.189 152.762, 150.868 143.288, 154.069 142.116, 154.465 " />
            <path fill="none" stroke-width="3.0" stroke-linecap="butt" stroke-opacity="1.0" stroke="rgb(0, 0, 0)" stroke-linejoin="round" d=" M 109.053, 184.731 112.520, 183.175 112.658, 183.182 113.985, 183.260 115.396, 183.782 115.844, 183.947 118.867, 185.529 " />
            <path fill="none" stroke-width="3.0" stroke-linecap="butt" stroke-opacity="1.0" stroke="rgb(0, 0, 0)" stroke-linejoin="round" d=" M 103.566, 90.735 104.899, 91.995 106.224, 93.450 " />
            <path fill="none" stroke-width="3.0" stroke-linecap="butt" stroke-opacity="1.0" stroke="rgb(0, 0, 0)" stroke-linejoin="round" d=" M 173.124, 87.083 166.909, 79.249 162.811, 74.084 158.117, 72.314 148.859, 68.534 139.601, 64.753 137.676, 63.967 136.460, 63.983 126.460, 64.068 116.460, 64.153 112.153, 64.189 102.155, 64.397 92.157, 64.604 89.744, 64.654 87.260, 64.698 78.382, 69.300 72.709, 72.241 65.081, 75.687 61.201, 84.903 58.205, 92.020 63.723, 95.162 62.148, 96.349 61.304, 99.346 " />
            <path fill="none" stroke-width="3.0" stroke-linecap="butt" stroke-opacity="1.0" stroke="rgb(0, 0, 0)" stroke-linejoin="round" d=" M 190.235, 127.791 197.656, 121.087 198.250, 120.550 198.888, 110.571 199.525, 100.591 199.548, 100.243 198.309, 92.228 198.193, 88.393 193.891, 79.366 193.677, 78.916 189.036, 70.058 184.395, 61.200 182.294, 57.190 177.577, 52.340 171.090, 44.730 164.603, 37.120 163.355, 35.656 161.725, 34.682 152.755, 30.261 143.786, 25.839 142.585, 25.247 139.806, 25.469 129.814, 25.882 119.823, 26.294 109.831, 26.707 105.421, 26.890 101.403, 26.974 92.906, 32.245 87.517, 35.589 81.629, 39.926 75.764, 48.025 73.622, 50.982 67.241, 58.681 65.417, 60.883 61.835, 70.219 59.118, 77.301 57.841, 87.219 57.767, 87.795 56.826, 92.633 57.126, 102.005 58.655, 111.888 59.561, 117.741 62.240, 120.938 67.832, 129.229 68.165, 129.721 67.947, 129.825 " />
            <path fill="none" stroke-width="3.0" stroke-linecap="butt" stroke-opacity="1.0" stroke="rgb(0, 0, 0)" stroke-linejoin="round" d=" M 103.745, 207.414 105.968, 208.720 106.149, 208.748 108.406, 209.092 108.830, 210.054 " />
            <path fill="none" stroke-width="3.0" stroke-linecap="butt" stroke-opacity="1.0" stroke="rgb(0, 0, 0)" stroke-linejoin="round" d=" M 91.081, 127.831 89.429, 128.736 80.913, 133.404 80.151, 135.138 79.010, 135.536 79.627, 141.001 77.745, 144.005 76.876, 148.559 76.329, 151.429 76.385, 161.429 76.387, 161.789 76.811, 161.976 77.916, 162.766 85.630, 169.130 87.734, 170.866 90.035, 172.338 93.819, 174.757 102.181, 176.654 104.090, 176.943 108.114, 177.552 110.104, 177.854 116.459, 177.155 119.574, 176.391 128.719, 172.345 136.485, 168.908 136.641, 168.752 137.597, 167.792 137.700, 167.688 138.199, 167.187 141.186, 157.644 141.823, 155.608 142.116, 154.465 142.612, 152.533 142.295, 149.485 141.169, 146.709 138.990, 137.526 138.501, 135.466 138.263, 135.301 138.235, 135.282 132.431, 131.256 128.047, 127.744 127.389, 127.597 122.601, 126.524 118.285, 125.556 113.127, 124.785 111.713, 124.574 101.754, 125.471 101.116, 125.528 95.447, 126.336 93.614, 126.598 93.553, 126.628 91.081, 127.831 " />
            <path fill="none" stroke-width="3.0" stroke-linecap="butt" stroke-opacity="1.0" stroke="rgb(0, 0, 0)" stroke-linejoin="round" d=" M 125.467, 188.850 127.829, 190.039 131.791, 189.811 136.891, 189.518 139.531, 187.340 140.352, 186.663 143.475, 184.087 " />
            <path fill="none" stroke-width="3.0" stroke-linecap="butt" stroke-opacity="1.0" stroke="rgb(0, 0, 0)" stroke-linejoin="round" d=" M 85.899, 182.360 89.297, 185.946 91.301, 188.061 99.376, 189.129 " />
            <path fill="none" stroke-width="3.0" stroke-linecap="butt" stroke-opacity="1.0" stroke="rgb(0, 0, 0)" stroke-linejoin="round" d=" M 75.191, 103.969 79.857, 97.195 84.591, 92.044 92.793, 88.262 101.044, 88.449 " />
            <path fill="none" stroke-width="3.0" stroke-linecap="butt" stroke-opacity="1.0" stroke="rgb(0, 0, 0)" stroke-linejoin="round" d=" M 110.329, 98.933 108.124, 91.289 104.678, 84.288 99.416, 80.946 " />
            <path fill="none" stroke-width="3.0" stroke-linecap="butt" stroke-opacity="1.0" stroke="rgb(0, 0, 0)" stroke-linejoin="round" d=" M 131.550, 83.112 125.922, 89.232 123.700, 98.982 123.655, 99.180 128.899, 92.684 134.305, 88.566 144.030, 88.294 153.290, 92.069 153.393, 92.111 158.617, 97.330 163.629, 104.292 " />
            <path fill="none" stroke-width="3.0" stroke-linecap="butt" stroke-opacity="1.0" stroke="rgb(0, 0, 0)" stroke-linejoin="round" d=" M 142.928, 137.364 148.154, 131.960 150.805, 124.688 150.892, 114.688 150.899, 113.881 147.389, 105.057 140.785, 99.474 131.243, 100.340 128.540, 105.301 128.316, 109.639 " />
            <path fill="none" stroke-width="3.0" stroke-linecap="butt" stroke-opacity="1.0" stroke="rgb(0, 0, 0)" stroke-linejoin="round" d=" M 107.948, 106.394 105.884, 101.508 97.660, 100.693 92.078, 106.428 88.788, 114.608 88.492, 124.604 88.485, 124.859 89.429, 128.736 " />
            <path fill="none" stroke-width="3.0" stroke-linecap="butt" stroke-opacity="1.0" stroke="rgb(0, 0, 0)" stroke-linejoin="round" d=" M 175.210, 98.329 179.510, 95.894 173.641, 87.797 173.124, 87.083 " />
            <path fill="none" stroke-width="3.0" stroke-linecap="butt" stroke-opacity="1.0" stroke="rgb(0, 0, 0)" stroke-linejoin="round" d=" M 65.345, 125.666 62.976, 122.210 65.348, 125.603 65.345, 125.666 65.086, 130.263 65.948, 129.967 65.833, 131.352 65.395, 131.872 62.439, 135.378 60.599, 138.097 58.208, 141.631 58.058, 147.208 58.340, 148.100 59.029, 150.282 61.525, 151.772 61.339, 156.194 61.053, 161.720 60.726, 168.031 61.190, 169.485 61.313, 170.580 66.421, 179.177 71.529, 187.774 72.849, 189.996 77.491, 192.406 78.242, 194.000 86.937, 198.940 95.126, 203.592 101.841, 207.892 107.480, 210.743 114.434, 213.325 120.699, 216.357 124.368, 214.952 134.209, 213.177 137.117, 212.653 137.974, 212.330 146.555, 207.195 148.060, 206.295 156.980, 201.775 157.940, 201.289 165.879, 195.208 167.739, 193.783 173.102, 188.939 178.464, 180.498 180.054, 177.995 182.305, 172.525 182.860, 171.175 183.291, 169.341 185.406, 159.567 185.772, 157.875 182.227, 158.605 183.625, 156.273 186.240, 156.885 190.883, 148.949 191.353, 146.289 188.621, 139.642 186.425, 135.183 187.697, 130.021 " />
            <path fill="none" stroke-width="3.0" stroke-linecap="butt" stroke-opacity="1.0" stroke="rgb(0, 0, 0)" stroke-linejoin="round" d=" M 139.531, 187.340 140.274, 187.416 140.547, 187.444 141.688, 186.850 140.106, 189.025 140.274, 187.416 " />
            <path fill="none" stroke-width="3.0" stroke-linecap="butt" stroke-opacity="1.0" stroke="rgb(0, 0, 0)" stroke-linejoin="round" d=" M 99.857, 203.673 103.745, 207.414 " />
            <path fill="none" stroke-width="3.0" stroke-linecap="butt" stroke-opacity="1.0" stroke="rgb(0, 0, 0)" stroke-linejoin="round" d=" M 58.340, 148.100 58.533, 153.477 58.929, 159.524 61.053, 161.720 " />
            <path fill="none" stroke-width="3.0" stroke-linecap="butt" stroke-opacity="1.0" stroke="rgb(0, 0, 0)" stroke-linejoin="round" d=" M 65.395, 131.872 63.659, 133.403 60.737, 136.968 60.599, 138.097 " />
            <path fill="none" stroke-width="3.0" stroke-linecap="butt" stroke-opacity="1.0" stroke="rgb(0, 0, 0)" stroke-linejoin="round" d=" M 76.876, 148.559 73.329, 144.466 69.073, 138.201 68.442, 137.272 65.697, 142.775 62.730, 148.257 62.317, 152.087 62.040, 154.078 62.658, 157.825 63.081, 159.967 63.988, 163.735 65.018, 165.583 68.678, 167.068 69.348, 167.339 71.805, 169.100 73.044, 171.934 74.505, 175.997 77.042, 179.009 78.515, 180.686 82.527, 181.499 85.488, 181.606 86.019, 182.068 88.410, 184.148 89.297, 185.946 " />
            <path fill="none" stroke-width="3.0" stroke-linecap="butt" stroke-opacity="1.0" stroke="rgb(0, 0, 0)" stroke-linejoin="round" d=" M 101.038, 188.373 107.038, 191.953 113.576, 192.609 123.494, 193.770 127.375, 192.211 131.791, 189.811 " />
            <path fill="none" stroke-width="3.0" stroke-linecap="butt" stroke-opacity="1.0" stroke="rgb(0, 0, 0)" stroke-linejoin="round" d=" M 107.044, 109.049 102.633, 107.934 101.213, 108.393 97.813, 109.771 97.006, 110.412 96.826, 110.514 94.207, 115.503 93.964, 115.950 93.187, 122.198 93.140, 122.670 93.197, 123.133 93.553, 126.628 " />
            <path fill="none" stroke-width="3.0" stroke-linecap="butt" stroke-opacity="1.0" stroke="rgb(0, 0, 0)" stroke-linejoin="round" d=" M 138.352, 135.242 138.503, 135.191 140.615, 132.332 142.495, 129.668 142.957, 127.166 143.641, 122.408 142.866, 116.599 142.658, 115.226 139.786, 111.106 139.045, 110.047 135.019, 108.813 132.664, 108.168 128.316, 109.639 " />
            <path fill="none" stroke-width="3.0" stroke-linecap="butt" stroke-opacity="1.0" stroke="rgb(0, 0, 0)" stroke-linejoin="round" d=" M 163.406, 97.165 163.396, 95.622 160.445, 90.194 159.724, 89.079 158.392, 88.299 " />
            <path fill="none" stroke-width="3.0" stroke-linecap="butt" stroke-opacity="1.0" stroke="rgb(0, 0, 0)" stroke-linejoin="round" d=" M 182.305, 172.525 188.350, 171.891 193.858, 169.311 196.596, 165.330 198.587, 163.859 200.155, 155.882 200.558, 151.821 199.544, 147.680 197.449, 141.370 196.456, 138.171 191.684, 133.213 191.254, 132.884 187.635, 131.789 190.235, 127.791 " />
        </g>
    </g>
</svg>
