<?xml version='1.0' encoding='ascii'?>
<svg xmlns="http://www.w3.org/2000/svg" version="1.1" width="250" height="250">
    <g id="ViewLayer_LineSet" xmlns:inkscape="http://www.inkscape.org/namespaces/inkscape" inkscape:groupmode="lineset" inkscape:label="ViewLayer_LineSet">
        <g xmlns:inkscape="http://www.inkscape.org/namespaces/inkscape" inkscape:groupmode="layer" id="strokes" inkscape:label="strokes">
            <path fill="none" stroke-width="3.0" stroke-linecap="butt" stroke-opacity="1.0" stroke="rgb(0, 0, 0)" stroke-linejoin="round" d=" M 128.933, 142.984 129.284, 143.019 125.551, 141.023 128.933, 142.984 " />
            <path fill="none" stroke-width="3.0" stroke-linecap="butt" stroke-opacity="1.0" stroke="rgb(0, 0, 0)" stroke-linejoin="round" d=" M 182.001, 56.821 182.001, 56.820 181.546, 51.835 173.532, 45.853 167.265, 41.176 162.165, 36.623 152.174, 36.182 151.554, 36.155 141.958, 35.036 131.969, 34.567 130.440, 34.495 120.672, 33.726 111.942, 38.603 111.401, 38.906 107.547, 41.059 98.696, 45.713 96.669, 46.778 91.811, 55.519 89.025, 60.534 84.225, 69.306 79.425, 78.079 79.129, 78.620 78.592, 87.789 " />
            <path fill="none" stroke-width="3.0" stroke-linecap="butt" stroke-opacity="1.0" stroke="rgb(0, 0, 0)" stroke-linejoin="round" d=" M 165.172, 151.828 169.493, 153.754 173.115, 149.379 " />
            <path fill="none" stroke-width="3.0" stroke-linecap="butt" stroke-opacity="1.0" stroke="rgb(0, 0, 0)" stroke-linejoin="round" d=" M 137.741, 142.305 146.346, 145.392 155.671, 144.036 163.876, 138.320 166.363, 136.588 167.711, 136.515 176.825, 140.631 180.962, 142.499 187.057, 142.811 189.142, 139.291 " />
            <path fill="none" stroke-width="3.0" stroke-linecap="butt" stroke-opacity="1.0" stroke="rgb(0, 0, 0)" stroke-linejoin="round" d=" M 92.020, 80.792 93.811, 86.540 97.215, 80.764 101.214, 76.189 109.537, 72.017 118.830, 70.669 125.072, 72.543 131.316, 77.046 " />
            <path fill="none" stroke-width="3.0" stroke-linecap="butt" stroke-opacity="1.0" stroke="rgb(0, 0, 0)" stroke-linejoin="round" d=" M 142.843, 68.283 142.703, 68.517 141.117, 71.166 141.606, 76.365 " />
            <path fill="none" stroke-width="3.0" stroke-linecap="butt" stroke-opacity="1.0" stroke="rgb(0, 0, 0)" stroke-linejoin="round" d=" M 116.496, 103.868 119.623, 108.123 " />
            <path fill="none" stroke-width="3.0" stroke-linecap="butt" stroke-opacity="1.0" stroke="rgb(0, 0, 0)" stroke-linejoin="round" d=" M 126.049, 87.907 122.033, 85.037 112.408, 86.257 106.675, 92.700 105.313, 98.893 " />
            <path fill="none" stroke-width="3.0" stroke-linecap="butt" stroke-opacity="1.0" stroke="rgb(0, 0, 0)" stroke-linejoin="round" d=" M 189.452, 139.119 189.561, 139.281 194.786, 137.791 195.903, 134.828 196.308, 133.853 196.672, 132.977 196.331, 129.451 196.292, 128.083 199.463, 126.937 200.355, 126.275 199.643, 122.990 199.722, 122.438 198.380, 118.103 198.369, 118.059 198.253, 117.837 192.050, 112.163 191.486, 111.454 " />
            <path fill="none" stroke-width="3.0" stroke-linecap="butt" stroke-opacity="1.0" stroke="rgb(0, 0, 0)" stroke-linejoin="round" d=" M 131.636, 111.612 130.884, 111.622 125.137, 111.695 124.735, 111.700 120.950, 111.313 111.274, 108.791 107.696, 107.858 106.806, 107.626 103.932, 106.558 101.898, 111.731 99.423, 117.428 99.649, 119.113 99.658, 123.166 99.988, 123.695 102.877, 128.057 103.025, 128.234 108.769, 131.850 109.526, 131.876 117.637, 133.498 121.280, 137.655 119.093, 134.302 " />
            <path fill="none" stroke-width="3.0" stroke-linecap="butt" stroke-opacity="1.0" stroke="rgb(0, 0, 0)" stroke-linejoin="round" d=" M 122.863, 208.386 117.509, 214.498 116.856, 215.243 115.565, 213.638 115.435, 213.477 115.471, 213.263 115.805, 213.465 117.509, 214.498 119.044, 215.429 120.780, 216.385 125.938, 215.856 132.694, 215.163 142.642, 214.143 145.556, 213.844 155.172, 211.098 155.409, 211.030 159.412, 209.057 166.853, 202.378 169.214, 200.259 172.022, 196.457 178.661, 188.979 185.332, 181.463 190.911, 174.207 192.224, 172.569 192.894, 170.735 196.145, 161.279 199.004, 152.965 197.687, 144.380 197.085, 135.721 196.308, 133.853 " />
            <path fill="none" stroke-width="3.0" stroke-linecap="butt" stroke-opacity="1.0" stroke="rgb(0, 0, 0)" stroke-linejoin="round" d=" M 178.024, 122.256 180.833, 120.331 187.432, 115.808 189.038, 114.707 191.486, 111.454 197.499, 103.464 198.540, 102.081 198.259, 92.238 196.617, 84.997 195.524, 83.002 194.272, 81.621 186.754, 75.027 181.884, 70.755 181.457, 70.577 180.510, 70.496 176.947, 70.444 166.948, 70.299 161.466, 70.219 159.655, 70.193 157.640, 70.403 156.493, 70.523 151.085, 71.088 150.903, 71.107 146.573, 72.839 144.955, 73.485 142.612, 74.422 141.606, 76.365 137.007, 85.244 133.912, 91.219 133.339, 94.794 133.281, 95.159 132.369, 100.852 131.699, 101.688 133.537, 105.440 134.123, 106.635 134.253, 106.900 133.873, 106.936 132.853, 107.034 124.507, 107.837 122.167, 108.133 119.623, 108.123 118.931, 108.120 118.357, 107.387 115.521, 108.468 114.716, 108.248 109.723, 107.079 107.798, 106.128 105.402, 100.256 105.138, 99.692 105.116, 99.646 105.313, 98.893 " />
            <path fill="none" stroke-width="3.0" stroke-linecap="butt" stroke-opacity="1.0" stroke="rgb(0, 0, 0)" stroke-linejoin="round" d=" M 54.442, 146.103 51.333, 149.545 47.133, 154.694 46.979, 155.238 45.786, 159.453 43.446, 167.672 42.433, 175.077 42.559, 175.377 42.803, 176.113 50.156, 182.084 53.316, 183.761 62.581, 184.077 64.694, 184.122 65.857, 183.880 69.448, 182.639 73.585, 181.210 76.914, 184.861 76.995, 184.949 76.943, 185.087 75.904, 187.836 75.713, 188.343 76.205, 188.079 77.251, 187.518 79.226, 186.460 79.584, 186.268 " />
            <path fill="none" stroke-width="3.0" stroke-linecap="butt" stroke-opacity="1.0" stroke="rgb(0, 0, 0)" stroke-linejoin="round" d=" M 144.833, 165.845 142.296, 164.320 141.496, 163.714 141.319, 162.383 139.769, 152.504 138.961, 147.351 138.910, 147.028 139.115, 146.606 139.531, 146.650 141.008, 147.687 " />
            <path fill="none" stroke-width="3.0" stroke-linecap="butt" stroke-opacity="1.0" stroke="rgb(0, 0, 0)" stroke-linejoin="round" d=" M 69.448, 182.639 75.904, 187.836 " />
            <path fill="none" stroke-width="3.0" stroke-linecap="butt" stroke-opacity="1.0" stroke="rgb(0, 0, 0)" stroke-linejoin="round" d=" M 80.489, 188.779 76.126, 195.061 71.721, 200.256 69.302, 208.673 68.337, 211.091 69.752, 214.104 75.673, 219.999 82.092, 220.668 87.029, 220.929 88.252, 220.407 98.048, 218.399 98.251, 218.358 98.767, 217.652 99.954, 216.420 106.025, 210.116 100.036, 215.163 " />
            <path fill="none" stroke-width="3.0" stroke-linecap="butt" stroke-opacity="1.0" stroke="rgb(0, 0, 0)" stroke-linejoin="round" d=" M 99.954, 216.420 100.645, 217.133 105.434, 220.180 110.141, 219.909 111.136, 216.825 115.565, 213.638 " />
            <path fill="none" stroke-width="3.0" stroke-linecap="butt" stroke-opacity="1.0" stroke="rgb(0, 0, 0)" stroke-linejoin="round" d=" M 111.401, 38.906 109.275, 38.774 99.281, 38.425 93.405, 38.219 85.703, 42.253 77.051, 47.268 75.211, 48.335 68.758, 55.974 65.119, 60.281 58.262, 67.625 53.811, 76.580 50.759, 82.720 46.849, 91.923 43.506, 99.790 43.162, 109.784 43.094, 111.757 42.211, 121.718 41.328, 131.679 40.600, 139.877 43.407, 147.593 46.979, 155.238 " />
            <path fill="none" stroke-width="3.0" stroke-linecap="butt" stroke-opacity="1.0" stroke="rgb(0, 0, 0)" stroke-linejoin="round" d=" M 128.440, 71.975 127.395, 69.992 123.756, 67.471 121.772, 65.135 120.087, 64.855 113.533, 63.897 112.206, 64.133 107.247, 64.718 105.570, 65.647 101.629, 68.474 97.702, 71.702 94.637, 73.945 93.775, 75.783 92.804, 78.813 " />
            <path fill="none" stroke-width="3.0" stroke-linecap="butt" stroke-opacity="1.0" stroke="rgb(0, 0, 0)" stroke-linejoin="round" d=" M 133.339, 94.794 131.516, 92.359 129.097, 90.766 126.247, 89.709 125.700, 89.725 120.722, 90.071 115.811, 92.136 115.604, 92.296 115.567, 92.518 114.602, 97.855 116.439, 103.672 " />
            <path fill="none" stroke-width="3.0" stroke-linecap="butt" stroke-opacity="1.0" stroke="rgb(0, 0, 0)" stroke-linejoin="round" d=" M 155.137, 68.342 154.394, 67.728 150.456, 66.206 150.234, 66.218 150.084, 66.220 145.621, 67.545 143.190, 68.103 142.965, 68.290 142.922, 68.326 142.703, 68.517 " />
        </g>
    </g>
</svg>
