<?xml version='1.0' encoding='ascii'?>
<svg xmlns="http://www.w3.org/2000/svg" version="1.1" width="250" height="250">
    <g id="ViewLayer_LineSet" xmlns:inkscape="http://www.inkscape.org/namespaces/inkscape" inkscape:groupmode="lineset" inkscape:label="ViewLayer_LineSet">
        <g xmlns:inkscape="http://www.inkscape.org/namespaces/inkscape" inkscape:groupmode="layer" id="strokes" inkscape:label="strokes">
            <path fill="none" stroke-width="3.0" stroke-linecap="butt" stroke-opacity="1.0" stroke="rgb(0, 0, 0)" stroke-linejoin="round" d=" M 169.817, 114.781 170.124, 112.407 167.314, 107.674 " />
            <path fill="none" stroke-width="3.0" stroke-linecap="butt" stroke-opacity="1.0" stroke="rgb(0, 0, 0)" stroke-linejoin="round" d=" M 186.694, 114.437 180.754, 110.079 179.953, 110.085 179.499, 110.028 " />
            <path fill="none" stroke-width="3.0" stroke-linecap="butt" stroke-opacity="1.0" stroke="rgb(0, 0, 0)" stroke-linejoin="round" d=" M 188.581, 115.756 192.365, 111.432 194.921, 101.764 197.476, 92.096 198.098, 89.741 198.451, 87.847 198.397, 87.426 198.439, 86.840 194.296, 77.738 190.153, 68.637 186.010, 59.536 185.419, 58.237 183.584, 56.113 179.853, 51.120 172.454, 44.393 169.690, 41.880 164.270, 36.911 155.279, 32.534 151.293, 30.593 141.664, 30.262 131.664, 30.220 121.664, 30.178 117.397, 30.161 107.786, 30.106 97.840, 30.374 88.792, 34.631 85.496, 36.181 78.842, 41.961 71.299, 48.527 65.673, 53.424 63.806, 55.766 62.925, 56.720 58.468, 65.672 55.333, 71.967 51.006, 80.983 48.533, 86.136 48.613, 87.667 48.221, 89.354 50.526, 99.085 52.830, 108.816 53.423, 111.319 58.459, 117.051 63.282, 122.517 62.516, 122.314 " />
            <path fill="none" stroke-width="3.0" stroke-linecap="butt" stroke-opacity="1.0" stroke="rgb(0, 0, 0)" stroke-linejoin="round" d=" M 143.971, 158.732 144.518, 159.677 148.158, 164.520 150.880, 174.142 151.197, 175.264 151.197, 175.264 " />
            <path fill="none" stroke-width="3.0" stroke-linecap="butt" stroke-opacity="1.0" stroke="rgb(0, 0, 0)" stroke-linejoin="round" d=" M 79.691, 121.233 84.452, 114.968 89.503, 110.459 98.673, 108.082 104.407, 109.175 " />
            <path fill="none" stroke-width="3.0" stroke-linecap="butt" stroke-opacity="1.0" stroke="rgb(0, 0, 0)" stroke-linejoin="round" d=" M 118.576, 121.541 116.334, 114.529 111.985, 106.155 " />
            <path fill="none" stroke-width="3.0" stroke-linecap="butt" stroke-opacity="1.0" stroke="rgb(0, 0, 0)" stroke-linejoin="round" d=" M 151.711, 107.703 160.511, 110.004 165.353, 114.509 169.880, 120.699 " />
            <path fill="none" stroke-width="3.0" stroke-linecap="butt" stroke-opacity="1.0" stroke="rgb(0, 0, 0)" stroke-linejoin="round" d=" M 134.386, 111.630 131.971, 121.065 " />
            <path fill="none" stroke-width="3.0" stroke-linecap="butt" stroke-opacity="1.0" stroke="rgb(0, 0, 0)" stroke-linejoin="round" d=" M 138.673, 125.367 135.149, 126.992 " />
            <path fill="none" stroke-width="3.0" stroke-linecap="butt" stroke-opacity="1.0" stroke="rgb(0, 0, 0)" stroke-linejoin="round" d=" M 137.825, 117.514 135.287, 122.829 135.149, 126.992 " />
            <path fill="none" stroke-width="3.0" stroke-linecap="butt" stroke-opacity="1.0" stroke="rgb(0, 0, 0)" stroke-linejoin="round" d=" M 102.600, 116.448 96.280, 120.430 93.009, 127.893 93.228, 137.764 95.673, 145.128 100.731, 149.874 110.310, 152.826 110.872, 152.181 " />
            <path fill="none" stroke-width="3.0" stroke-linecap="butt" stroke-opacity="1.0" stroke="rgb(0, 0, 0)" stroke-linejoin="round" d=" M 114.420, 124.284 111.882, 118.864 " />
            <path fill="none" stroke-width="3.0" stroke-linecap="butt" stroke-opacity="1.0" stroke="rgb(0, 0, 0)" stroke-linejoin="round" d=" M 138.875, 152.382 139.099, 152.309 " />
            <path fill="none" stroke-width="3.0" stroke-linecap="butt" stroke-opacity="1.0" stroke="rgb(0, 0, 0)" stroke-linejoin="round" d=" M 144.825, 150.439 148.084, 149.375 153.179, 144.319 155.680, 137.100 156.143, 127.404 153.107, 119.709 147.020, 115.272 " />
            <path fill="none" stroke-width="3.0" stroke-linecap="butt" stroke-opacity="1.0" stroke="rgb(0, 0, 0)" stroke-linejoin="round" d=" M 183.777, 113.668 184.450, 114.219 182.911, 113.440 180.400, 112.168 178.117, 112.175 182.911, 113.440 183.777, 113.668 186.694, 114.437 " />
            <path fill="none" stroke-width="3.0" stroke-linecap="butt" stroke-opacity="1.0" stroke="rgb(0, 0, 0)" stroke-linejoin="round" d=" M 62.516, 122.314 58.539, 118.001 61.572, 121.796 61.615, 122.076 62.241, 126.127 62.894, 130.563 61.913, 133.284 58.770, 142.777 58.337, 144.084 58.781, 148.756 60.896, 153.473 63.567, 156.163 64.055, 158.228 64.710, 161.007 65.252, 170.993 65.389, 173.522 65.405, 173.587 65.409, 173.598 65.425, 173.638 65.486, 173.728 71.211, 181.927 76.290, 189.201 85.743, 192.354 " />
            <path fill="none" stroke-width="3.0" stroke-linecap="butt" stroke-opacity="1.0" stroke="rgb(0, 0, 0)" stroke-linejoin="round" d=" M 161.375, 194.646 170.285, 190.106 172.376, 189.040 173.387, 188.349 177.828, 179.389 179.567, 175.880 181.723, 172.063 182.581, 162.100 182.607, 161.797 183.334, 156.446 183.458, 155.531 185.503, 153.061 187.747, 148.060 188.801, 143.632 185.305, 134.263 184.501, 132.108 183.610, 130.123 183.995, 127.147 184.752, 121.854 184.811, 121.443 188.733, 116.466 183.153, 122.273 " />
            <path fill="none" stroke-width="3.0" stroke-linecap="butt" stroke-opacity="1.0" stroke="rgb(0, 0, 0)" stroke-linejoin="round" d=" M 68.730, 110.963 68.778, 110.941 68.771, 110.959 68.730, 110.963 68.655, 110.971 63.089, 114.776 63.985, 114.514 64.109, 114.477 70.266, 112.676 67.734, 112.706 64.109, 114.477 63.887, 114.586 63.985, 114.514 68.045, 111.513 " />
            <path fill="none" stroke-width="3.0" stroke-linecap="butt" stroke-opacity="1.0" stroke="rgb(0, 0, 0)" stroke-linejoin="round" d=" M 98.967, 175.809 101.529, 166.142 102.098, 163.994 105.353, 159.994 105.402, 159.634 105.447, 159.304 105.506, 159.506 105.402, 159.634 103.202, 162.353 101.014, 164.069 97.993, 173.602 97.491, 175.187 96.919, 176.992 95.438, 180.513 93.143, 186.307 93.315, 189.980 94.894, 195.980 95.558, 198.504 95.842, 198.718 97.806, 200.195 104.442, 205.187 107.669, 207.867 112.772, 208.940 121.398, 209.916 130.584, 209.813 138.989, 208.697 141.686, 208.097 144.058, 207.569 145.905, 205.902 147.443, 204.515 154.891, 198.766 155.092, 198.611 155.938, 197.958 155.943, 197.955 156.237, 197.265 157.418, 194.494 157.973, 193.193 158.210, 186.975 156.327, 179.792 154.212, 176.364 153.486, 174.260 150.227, 164.806 150.183, 164.678 147.196, 162.364 143.971, 158.732 " />
            <path fill="none" stroke-width="3.0" stroke-linecap="butt" stroke-opacity="1.0" stroke="rgb(0, 0, 0)" stroke-linejoin="round" d=" M 61.615, 122.076 61.323, 121.999 57.682, 122.514 55.480, 125.184 55.055, 126.714 53.361, 133.115 52.753, 136.383 53.455, 141.183 54.880, 147.612 57.928, 150.921 62.859, 158.196 64.055, 158.228 " />
            <path fill="none" stroke-width="3.0" stroke-linecap="butt" stroke-opacity="1.0" stroke="rgb(0, 0, 0)" stroke-linejoin="round" d=" M 81.840, 109.224 79.673, 112.857 79.815, 114.655 " />
            <path fill="none" stroke-width="3.0" stroke-linecap="butt" stroke-opacity="1.0" stroke="rgb(0, 0, 0)" stroke-linejoin="round" d=" M 97.491, 175.187 88.577, 171.431 85.512, 168.099 79.728, 159.942 77.248, 156.445 76.635, 157.757 72.269, 166.754 71.775, 167.772 71.735, 170.629 71.638, 173.185 72.564, 176.376 73.358, 178.765 75.111, 183.248 75.982, 184.566 81.287, 186.633 83.507, 188.165 84.741, 190.315 85.743, 192.354 86.606, 194.110 90.156, 197.524 90.908, 198.216 92.381, 198.474 95.842, 198.718 " />
            <path fill="none" stroke-width="3.0" stroke-linecap="butt" stroke-opacity="1.0" stroke="rgb(0, 0, 0)" stroke-linejoin="round" d=" M 97.806, 200.195 99.256, 203.730 100.101, 204.381 100.310, 204.523 105.353, 207.727 113.287, 211.828 114.599, 212.487 122.703, 213.940 124.126, 214.123 125.561, 213.910 133.554, 212.315 135.166, 211.580 141.686, 208.097 " />
            <path fill="none" stroke-width="3.0" stroke-linecap="butt" stroke-opacity="1.0" stroke="rgb(0, 0, 0)" stroke-linejoin="round" d=" M 104.407, 109.175 107.633, 109.753 107.675, 109.798 108.847, 111.068 112.256, 114.742 115.359, 117.518 " />
            <path fill="none" stroke-width="3.0" stroke-linecap="butt" stroke-opacity="1.0" stroke="rgb(0, 0, 0)" stroke-linejoin="round" d=" M 108.284, 125.279 105.269, 126.173 103.387, 126.820 101.952, 128.992 99.888, 132.021 99.727, 133.554 99.180, 138.845 100.634, 145.309 100.722, 145.683 104.092, 150.039 104.646, 150.682 108.502, 151.667 110.872, 152.181 111.297, 152.273 111.686, 152.150 " />
            <path fill="none" stroke-width="3.0" stroke-linecap="butt" stroke-opacity="1.0" stroke="rgb(0, 0, 0)" stroke-linejoin="round" d=" M 135.283, 116.999 138.387, 114.367 141.698, 110.740 143.046, 109.368 143.065, 109.349 146.752, 108.656 " />
            <path fill="none" stroke-width="3.0" stroke-linecap="butt" stroke-opacity="1.0" stroke="rgb(0, 0, 0)" stroke-linejoin="round" d=" M 137.016, 151.915 139.065, 152.310 " />
            <path fill="none" stroke-width="3.0" stroke-linecap="butt" stroke-opacity="1.0" stroke="rgb(0, 0, 0)" stroke-linejoin="round" d=" M 137.016, 151.915 139.077, 152.305 139.099, 152.309 139.659, 152.415 141.964, 151.647 144.825, 150.439 146.044, 149.924 146.189, 149.712 147.846, 147.145 149.194, 144.765 149.258, 144.662 149.599, 142.992 150.157, 137.876 149.168, 132.340 148.947, 131.253 146.543, 128.458 144.937, 126.634 143.040, 126.255 140.996, 125.871 " />
            <path fill="none" stroke-width="3.0" stroke-linecap="butt" stroke-opacity="1.0" stroke="rgb(0, 0, 0)" stroke-linejoin="round" d=" M 141.630, 116.540 146.987, 115.253 147.020, 115.272 147.452, 115.535 148.156, 116.100 " />
            <path fill="none" stroke-width="3.0" stroke-linecap="butt" stroke-opacity="1.0" stroke="rgb(0, 0, 0)" stroke-linejoin="round" d=" M 156.532, 197.906 157.355, 197.835 158.528, 197.600 161.375, 194.646 161.620, 194.392 162.618, 193.458 164.541, 189.533 165.724, 187.487 172.072, 184.663 173.245, 183.815 174.558, 179.855 175.707, 178.274 176.758, 174.722 177.439, 172.666 177.429, 169.624 177.359, 167.286 173.067, 158.254 172.882, 157.866 172.115, 156.183 170.926, 157.448 165.052, 165.541 161.172, 170.886 153.486, 174.260 " />
            <path fill="none" stroke-width="3.0" stroke-linecap="butt" stroke-opacity="1.0" stroke="rgb(0, 0, 0)" stroke-linejoin="round" d=" M 183.334, 156.446 187.170, 150.501 190.230, 147.081 191.624, 140.880 192.351, 135.942 191.764, 132.868 190.234, 126.783 189.908, 125.188 187.583, 122.287 184.752, 121.854 " />
        </g>
    </g>
</svg>
