<?xml version='1.0' encoding='ascii'?>
<svg xmlns="http://www.w3.org/2000/svg" version="1.1" width="250" height="250">
    <g id="ViewLayer_LineSet" xmlns:inkscape="http://www.inkscape.org/namespaces/inkscape" inkscape:groupmode="lineset" inkscape:label="ViewLayer_LineSet">
        <g xmlns:inkscape="http://www.inkscape.org/namespaces/inkscape" inkscape:groupmode="layer" id="strokes" inkscape:label="strokes">
            <path fill="none" stroke-width="3.0" stroke-linecap="butt" stroke-opacity="1.0" stroke="rgb(0, 0, 0)" stroke-linejoin="round" d=" M 177.642, 107.046 178.388, 104.982 179.410, 102.157 179.508, 101.090 179.143, 99.679 177.018, 96.068 173.751, 93.737 173.691, 93.689 " />
            <path fill="none" stroke-width="3.0" stroke-linecap="butt" stroke-opacity="1.0" stroke="rgb(0, 0, 0)" stroke-linejoin="round" d=" M 152.552, 103.514 156.390, 100.152 157.882, 97.288 158.466, 96.502 158.699, 96.189 159.445, 96.383 " />
            <path fill="none" stroke-width="3.0" stroke-linecap="butt" stroke-opacity="1.0" stroke="rgb(0, 0, 0)" stroke-linejoin="round" d=" M 129.341, 116.036 124.529, 114.975 120.562, 116.625 118.571, 117.524 116.671, 121.089 115.529, 123.162 115.300, 127.774 115.155, 130.379 115.810, 132.917 117.018, 137.479 118.216, 138.942 121.200, 142.471 121.283, 142.487 121.860, 142.600 123.875, 143.003 " />
            <path fill="none" stroke-width="3.0" stroke-linecap="butt" stroke-opacity="1.0" stroke="rgb(0, 0, 0)" stroke-linejoin="round" d=" M 200.579, 94.326 199.300, 89.463 191.484, 85.543 184.019, 81.148 181.639, 79.747 179.773, 83.624 174.316, 88.786 " />
            <path fill="none" stroke-width="3.0" stroke-linecap="butt" stroke-opacity="1.0" stroke="rgb(0, 0, 0)" stroke-linejoin="round" d=" M 106.053, 125.589 106.026, 121.288 106.035, 121.069 106.054, 120.626 109.703, 112.600 109.920, 112.155 109.929, 112.136 111.527, 111.028 " />
            <path fill="none" stroke-width="3.0" stroke-linecap="butt" stroke-opacity="1.0" stroke="rgb(0, 0, 0)" stroke-linejoin="round" d=" M 66.194, 168.128 66.195, 168.129 66.265, 168.363 66.400, 169.642 66.256, 168.138 66.264, 167.939 66.195, 168.125 66.194, 168.126 " />
            <path fill="none" stroke-width="3.0" stroke-linecap="butt" stroke-opacity="1.0" stroke="rgb(0, 0, 0)" stroke-linejoin="round" d=" M 119.057, 192.942 119.929, 193.617 125.632, 198.039 133.616, 198.264 134.426, 198.287 " />
            <path fill="none" stroke-width="3.0" stroke-linecap="butt" stroke-opacity="1.0" stroke="rgb(0, 0, 0)" stroke-linejoin="round" d=" M 100.710, 95.313 96.732, 102.397 96.642, 111.167 101.980, 104.075 107.614, 98.854 117.100, 95.690 117.667, 95.500 127.625, 96.420 127.780, 96.435 133.433, 101.090 138.328, 107.747 136.827, 100.159 131.816, 92.340 125.161, 88.240 " />
            <path fill="none" stroke-width="3.0" stroke-linecap="butt" stroke-opacity="1.0" stroke="rgb(0, 0, 0)" stroke-linejoin="round" d=" M 159.445, 96.383 164.478, 95.770 170.710, 98.960 174.360, 103.757 177.858, 110.155 " />
            <path fill="none" stroke-width="3.0" stroke-linecap="butt" stroke-opacity="1.0" stroke="rgb(0, 0, 0)" stroke-linejoin="round" d=" M 156.005, 91.323 152.132, 97.794 149.745, 107.505 149.718, 107.613 " />
            <path fill="none" stroke-width="3.0" stroke-linecap="butt" stroke-opacity="1.0" stroke="rgb(0, 0, 0)" stroke-linejoin="round" d=" M 121.286, 142.491 123.875, 143.003 126.686, 143.558 " />
            <path fill="none" stroke-width="3.0" stroke-linecap="butt" stroke-opacity="1.0" stroke="rgb(0, 0, 0)" stroke-linejoin="round" d=" M 106.075, 131.292 109.159, 138.688 114.293, 143.508 124.244, 144.491 125.784, 144.643 126.686, 143.558 " />
            <path fill="none" stroke-width="3.0" stroke-linecap="butt" stroke-opacity="1.0" stroke="rgb(0, 0, 0)" stroke-linejoin="round" d=" M 130.470, 113.524 127.596, 108.287 117.696, 106.872 117.498, 106.843 111.527, 111.028 " />
            <path fill="none" stroke-width="3.0" stroke-linecap="butt" stroke-opacity="1.0" stroke="rgb(0, 0, 0)" stroke-linejoin="round" d=" M 159.951, 138.692 162.197, 135.882 163.793, 128.689 164.339, 118.704 164.348, 118.543 162.197, 110.382 157.526, 105.342 150.864, 106.839 " />
            <path fill="none" stroke-width="3.0" stroke-linecap="butt" stroke-opacity="1.0" stroke="rgb(0, 0, 0)" stroke-linejoin="round" d=" M 131.853, 168.394 127.307, 166.849 117.798, 163.752 111.533, 161.712 105.141, 156.422 98.343, 149.088 97.336, 148.002 95.963, 150.620 91.280, 159.455 90.809, 160.343 90.732, 162.283 90.387, 166.451 90.936, 168.341 92.458, 172.556 93.784, 175.154 96.358, 178.406 100.559, 179.589 104.534, 181.697 106.413, 185.736 107.561, 188.265 109.921, 190.348 112.333, 192.419 116.732, 192.746 117.819, 192.679 119.240, 192.592 119.644, 192.567 119.913, 192.730 123.150, 194.696 122.460, 195.580 " />
            <path fill="none" stroke-width="3.0" stroke-linecap="butt" stroke-opacity="1.0" stroke="rgb(0, 0, 0)" stroke-linejoin="round" d=" M 180.732, 106.712 180.757, 106.723 182.596, 101.135 182.038, 100.558 180.779, 99.255 182.401, 98.851 192.105, 96.435 200.579, 94.326 " />
            <path fill="none" stroke-width="3.0" stroke-linecap="butt" stroke-opacity="1.0" stroke="rgb(0, 0, 0)" stroke-linejoin="round" d=" M 53.295, 130.452 51.208, 130.421 47.071, 131.542 44.114, 134.242 43.188, 135.928 39.814, 144.416 38.824, 149.989 39.249, 152.769 42.011, 162.237 43.595, 163.394 47.597, 167.332 54.586, 170.852 57.656, 171.099 61.154, 171.380 66.435, 169.991 69.279, 179.578 69.934, 181.786 70.519, 183.760 70.569, 183.929 69.844, 181.715 68.615, 177.963 69.849, 181.718 70.519, 183.760 70.647, 184.149 71.246, 184.924 78.821, 191.452 82.137, 194.309 89.870, 200.650 91.510, 201.994 99.302, 205.275 107.010, 208.779 111.981, 210.314 119.408, 211.572 125.911, 213.801 " />
            <path fill="none" stroke-width="3.0" stroke-linecap="butt" stroke-opacity="1.0" stroke="rgb(0, 0, 0)" stroke-linejoin="round" d=" M 124.606, 212.466 126.350, 211.302 131.664, 212.450 135.739, 214.182 138.079, 214.472 146.289, 211.311 147.172, 210.714 154.357, 205.044 159.089, 201.416 160.430, 200.277 167.515, 194.186 166.475, 192.838 " />
            <path fill="none" stroke-width="3.0" stroke-linecap="butt" stroke-opacity="1.0" stroke="rgb(0, 0, 0)" stroke-linejoin="round" d=" M 87.148, 99.442 85.346, 100.653 85.008, 100.880 85.091, 100.870 " />
            <path fill="none" stroke-width="3.0" stroke-linecap="butt" stroke-opacity="1.0" stroke="rgb(0, 0, 0)" stroke-linejoin="round" d=" M 119.979, 196.543 119.929, 193.617 " />
            <path fill="none" stroke-width="3.0" stroke-linecap="butt" stroke-opacity="1.0" stroke="rgb(0, 0, 0)" stroke-linejoin="round" d=" M 59.383, 137.630 58.309, 135.398 58.073, 133.218 59.473, 136.984 59.383, 137.630 58.099, 146.921 57.813, 149.638 58.019, 150.843 60.221, 154.215 61.876, 152.005 64.255, 147.751 " />
            <path fill="none" stroke-width="3.0" stroke-linecap="butt" stroke-opacity="1.0" stroke="rgb(0, 0, 0)" stroke-linejoin="round" d=" M 136.634, 180.950 142.883, 186.381 146.210, 189.271 150.105, 190.845 160.071, 191.670 160.449, 191.701 161.111, 191.756 164.572, 191.355 165.818, 190.941 168.040, 190.201 168.791, 189.952 168.872, 189.925 173.610, 188.349 174.681, 187.992 180.433, 185.250 183.631, 180.306 189.406, 172.503 190.617, 166.602 190.084, 161.032 189.958, 160.538 187.771, 151.969 186.481, 148.675 183.894, 145.787 183.817, 145.701 182.897, 145.342 180.205, 144.292 180.149, 144.270 175.638, 142.510 174.970, 142.209 171.150, 140.488 169.910, 140.289 159.951, 138.692 158.979, 138.537 157.581, 138.312 154.623, 137.838 151.381, 138.114 " />
            <path fill="none" stroke-width="3.0" stroke-linecap="butt" stroke-opacity="1.0" stroke="rgb(0, 0, 0)" stroke-linejoin="round" d=" M 133.616, 198.264 134.483, 198.255 134.684, 198.253 134.802, 198.208 135.614, 197.897 144.736, 193.800 148.577, 192.075 149.118, 191.972 149.330, 191.558 150.567, 191.876 152.277, 192.315 156.346, 194.136 158.073, 194.908 " />
            <path fill="none" stroke-width="3.0" stroke-linecap="butt" stroke-opacity="1.0" stroke="rgb(0, 0, 0)" stroke-linejoin="round" d=" M 134.802, 198.208 134.853, 198.229 144.815, 197.364 144.975, 197.350 151.059, 196.818 156.281, 194.184 " />
            <path fill="none" stroke-width="3.0" stroke-linecap="butt" stroke-opacity="1.0" stroke="rgb(0, 0, 0)" stroke-linejoin="round" d=" M 149.854, 115.801 149.853, 114.426 149.652, 110.534 150.516, 107.838 " />
            <path fill="none" stroke-width="3.0" stroke-linecap="butt" stroke-opacity="1.0" stroke="rgb(0, 0, 0)" stroke-linejoin="round" d=" M 156.281, 194.184 158.073, 194.908 159.342, 195.421 " />
            <path fill="none" stroke-width="3.0" stroke-linecap="butt" stroke-opacity="1.0" stroke="rgb(0, 0, 0)" stroke-linejoin="round" d=" M 158.979, 138.537 160.071, 135.196 160.541, 134.106 160.956, 129.536 161.140, 127.762 160.857, 126.083 160.143, 121.645 159.651, 120.598 158.046, 116.547 157.790, 116.407 157.304, 115.827 154.517, 115.240 151.672, 114.853 " />
            <path fill="none" stroke-width="3.0" stroke-linecap="butt" stroke-opacity="1.0" stroke="rgb(0, 0, 0)" stroke-linejoin="round" d=" M 160.565, 195.055 165.984, 193.482 166.475, 192.838 166.862, 192.329 167.266, 191.800 167.726, 191.243 168.791, 189.952 " />
            <path fill="none" stroke-width="3.0" stroke-linecap="butt" stroke-opacity="1.0" stroke="rgb(0, 0, 0)" stroke-linejoin="round" d=" M 166.862, 192.329 173.322, 188.652 173.610, 188.349 " />
            <path fill="none" stroke-width="3.0" stroke-linecap="butt" stroke-opacity="1.0" stroke="rgb(0, 0, 0)" stroke-linejoin="round" d=" M 182.897, 145.342 183.343, 139.721 183.225, 139.566 179.916, 135.167 174.944, 128.793 173.566, 122.272 175.246, 122.212 175.112, 121.346 176.763, 118.458 180.202, 109.068 180.273, 108.874 180.732, 106.712 " />
            <path fill="none" stroke-width="3.0" stroke-linecap="butt" stroke-opacity="1.0" stroke="rgb(0, 0, 0)" stroke-linejoin="round" d=" M 184.019, 81.148 184.665, 71.169 184.987, 66.198 184.496, 64.178 179.082, 55.771 176.789, 52.211 172.498, 44.189 165.912, 37.878 158.124, 31.604 152.620, 27.170 151.307, 26.967 141.424, 25.442 141.208, 25.409 131.211, 25.145 121.215, 24.882 117.259, 24.778 114.150, 24.499 110.340, 24.639 101.156, 28.596 93.209, 32.020 85.427, 38.293 77.687, 44.624 69.946, 50.955 69.145, 51.611 67.464, 54.619 62.839, 59.603 57.415, 68.004 51.991, 76.405 49.387, 80.440 47.458, 90.252 46.728, 93.965 43.737, 103.507 40.746, 113.049 39.760, 116.193 39.781, 117.857 42.504, 120.503 50.030, 127.088 55.089, 131.516 " />
            <path fill="none" stroke-width="3.0" stroke-linecap="butt" stroke-opacity="1.0" stroke="rgb(0, 0, 0)" stroke-linejoin="round" d=" M 189.958, 160.538 190.098, 159.774 189.833, 155.284 189.745, 154.322 187.791, 150.087 185.169, 143.921 183.894, 145.787 " />
        </g>
    </g>
</svg>
