<?xml version='1.0' encoding='ascii'?>
<svg xmlns="http://www.w3.org/2000/svg" version="1.1" width="250" height="250">
    <g id="ViewLayer_LineSet" xmlns:inkscape="http://www.inkscape.org/namespaces/inkscape" inkscape:groupmode="lineset" inkscape:label="ViewLayer_LineSet">
        <g xmlns:inkscape="http://www.inkscape.org/namespaces/inkscape" inkscape:groupmode="layer" id="strokes" inkscape:label="strokes">
            <path fill="none" stroke-width="3.0" stroke-linecap="butt" stroke-opacity="1.0" stroke="rgb(0, 0, 0)" stroke-linejoin="round" d=" M 138.748, 193.735 147.736, 189.350 151.076, 187.721 151.513, 187.645 151.684, 187.277 " />
            <path fill="none" stroke-width="3.0" stroke-linecap="butt" stroke-opacity="1.0" stroke="rgb(0, 0, 0)" stroke-linejoin="round" d=" M 152.414, 99.341 155.762, 96.180 157.257, 93.207 157.478, 92.910 157.633, 92.701 157.944, 92.875 " />
            <path fill="none" stroke-width="3.0" stroke-linecap="butt" stroke-opacity="1.0" stroke="rgb(0, 0, 0)" stroke-linejoin="round" d=" M 199.427, 89.370 198.625, 83.972 189.973, 79.383 182.297, 74.413 179.979, 72.912 178.430, 72.826 168.440, 72.367 167.951, 72.344 " />
            <path fill="none" stroke-width="3.0" stroke-linecap="butt" stroke-opacity="1.0" stroke="rgb(0, 0, 0)" stroke-linejoin="round" d=" M 121.495, 189.484 122.318, 190.097 124.315, 191.586 128.300, 194.556 134.750, 194.613 137.213, 194.635 " />
            <path fill="none" stroke-width="3.0" stroke-linecap="butt" stroke-opacity="1.0" stroke="rgb(0, 0, 0)" stroke-linejoin="round" d=" M 156.651, 189.392 159.871, 190.763 162.254, 191.778 166.566, 190.590 168.572, 190.037 " />
            <path fill="none" stroke-width="3.0" stroke-linecap="butt" stroke-opacity="1.0" stroke="rgb(0, 0, 0)" stroke-linejoin="round" d=" M 100.543, 92.118 96.743, 99.213 96.855, 107.885 102.014, 100.731 107.500, 95.425 116.909, 92.041 117.414, 91.859 127.492, 92.531 133.246, 96.984 138.300, 103.592 136.598, 95.932 131.382, 88.400 124.659, 84.536 " />
            <path fill="none" stroke-width="3.0" stroke-linecap="butt" stroke-opacity="1.0" stroke="rgb(0, 0, 0)" stroke-linejoin="round" d=" M 157.944, 92.875 163.732, 92.440 169.976, 95.900 173.749, 100.786 177.441, 107.256 " />
            <path fill="none" stroke-width="3.0" stroke-linecap="butt" stroke-opacity="1.0" stroke="rgb(0, 0, 0)" stroke-linejoin="round" d=" M 155.252, 87.612 151.656, 93.828 149.576, 103.644 " />
            <path fill="none" stroke-width="3.0" stroke-linecap="butt" stroke-opacity="1.0" stroke="rgb(0, 0, 0)" stroke-linejoin="round" d=" M 122.193, 139.495 127.628, 140.447 " />
            <path fill="none" stroke-width="3.0" stroke-linecap="butt" stroke-opacity="1.0" stroke="rgb(0, 0, 0)" stroke-linejoin="round" d=" M 106.633, 128.815 109.916, 136.092 115.179, 140.907 125.162, 141.483 126.762, 141.575 127.628, 140.447 " />
            <path fill="none" stroke-width="3.0" stroke-linecap="butt" stroke-opacity="1.0" stroke="rgb(0, 0, 0)" stroke-linejoin="round" d=" M 130.567, 110.199 127.549, 105.090 117.614, 103.951 117.447, 103.932 109.958, 109.579 " />
            <path fill="none" stroke-width="3.0" stroke-linecap="butt" stroke-opacity="1.0" stroke="rgb(0, 0, 0)" stroke-linejoin="round" d=" M 162.922, 132.578 164.093, 126.278 164.291, 116.280 164.296, 116.043 161.891, 107.761 157.107, 102.565 150.585, 103.759 " />
            <path fill="none" stroke-width="3.0" stroke-linecap="butt" stroke-opacity="1.0" stroke="rgb(0, 0, 0)" stroke-linejoin="round" d=" M 133.974, 163.694 127.864, 161.833 118.316, 158.862 113.182, 157.264 106.108, 151.768 99.063, 144.670 98.567, 144.170 97.003, 147.258 92.432, 156.152 92.215, 156.574 92.163, 158.557 91.851, 162.775 92.410, 164.588 94.046, 168.915 95.295, 171.262 98.141, 174.697 102.151, 175.763 106.446, 177.932 108.544, 182.293 109.662, 184.676 111.830, 186.561 114.560, 188.867 118.658, 189.163 119.615, 189.232 121.690, 189.073 121.980, 189.051 122.702, 189.465 124.896, 190.723 124.315, 191.586 " />
            <path fill="none" stroke-width="3.0" stroke-linecap="butt" stroke-opacity="1.0" stroke="rgb(0, 0, 0)" stroke-linejoin="round" d=" M 177.826, 104.601 180.167, 105.000 180.376, 105.036 182.643, 98.672 181.470, 97.288 180.779, 96.472 181.665, 96.135 191.010, 92.576 199.427, 89.370 " />
            <path fill="none" stroke-width="3.0" stroke-linecap="butt" stroke-opacity="1.0" stroke="rgb(0, 0, 0)" stroke-linejoin="round" d=" M 53.321, 132.481 51.632, 132.459 47.737, 133.596 44.141, 136.910 43.104, 138.943 39.836, 147.361 38.833, 153.079 39.271, 155.695 42.134, 165.276 42.183, 165.441 43.435, 166.282 46.200, 168.949 55.258, 173.049 59.803, 173.279 63.964, 173.489 67.079, 172.456 70.254, 181.316 71.997, 183.315 73.404, 186.027 74.822, 187.232 82.442, 193.708 83.265, 194.407 91.001, 200.743 96.824, 205.512 100.389, 207.102 109.511, 211.200 110.412, 211.605 111.745, 211.966 121.685, 213.064 123.395, 213.252 131.283, 215.478 133.481, 214.558 133.241, 214.887 136.702, 211.528 141.911, 211.298 146.726, 211.474 149.463, 210.359 149.800, 210.123 157.406, 203.829 162.335, 199.739 163.320, 198.848 168.367, 194.126 166.085, 191.911 174.661, 186.768 177.763, 184.907 182.443, 179.671 182.600, 178.810 " />
            <path fill="none" stroke-width="3.0" stroke-linecap="butt" stroke-opacity="1.0" stroke="rgb(0, 0, 0)" stroke-linejoin="round" d=" M 179.687, 135.393 175.123, 129.854 174.829, 125.763 174.505, 126.787 173.272, 122.220 174.918, 122.849 174.702, 121.957 176.686, 118.274 179.273, 110.290 180.167, 105.000 " />
            <path fill="none" stroke-width="3.0" stroke-linecap="butt" stroke-opacity="1.0" stroke="rgb(0, 0, 0)" stroke-linejoin="round" d=" M 96.903, 88.205 89.024, 94.363 84.373, 97.998 84.534, 98.344 " />
            <path fill="none" stroke-width="3.0" stroke-linecap="butt" stroke-opacity="1.0" stroke="rgb(0, 0, 0)" stroke-linejoin="round" d=" M 122.363, 194.599 122.318, 190.097 " />
            <path fill="none" stroke-width="3.0" stroke-linecap="butt" stroke-opacity="1.0" stroke="rgb(0, 0, 0)" stroke-linejoin="round" d=" M 59.550, 138.948 58.551, 136.991 58.339, 135.010 59.660, 138.059 59.550, 138.948 58.414, 148.114 58.238, 150.112 58.389, 151.019 60.018, 153.369 61.221, 152.135 63.986, 147.635 " />
            <path fill="none" stroke-width="3.0" stroke-linecap="butt" stroke-opacity="1.0" stroke="rgb(0, 0, 0)" stroke-linejoin="round" d=" M 141.855, 177.256 143.658, 178.462 144.241, 178.851 146.900, 180.629 150.353, 182.938 153.523, 183.883 162.207, 184.502 164.339, 184.181 172.206, 182.998 175.294, 182.534 176.794, 181.978 181.036, 179.664 182.600, 178.810 183.484, 178.328 185.878, 174.207 191.377, 165.855 191.976, 164.945 192.952, 158.776 192.202, 153.542 189.796, 145.951 187.604, 141.290 182.541, 136.320 179.687, 135.393 177.872, 134.804 175.459, 133.918 174.780, 133.846 170.121, 133.347 162.922, 132.578 " />
            <path fill="none" stroke-width="3.0" stroke-linecap="butt" stroke-opacity="1.0" stroke="rgb(0, 0, 0)" stroke-linejoin="round" d=" M 160.659, 132.336 159.517, 132.213 159.468, 132.209 154.257, 131.723 153.106, 131.889 153.020, 131.904 151.714, 132.144 150.009, 132.456 149.593, 132.532 150.008, 132.447 151.700, 132.098 153.101, 131.808 153.020, 131.904 151.255, 133.982 " />
            <path fill="none" stroke-width="3.0" stroke-linecap="butt" stroke-opacity="1.0" stroke="rgb(0, 0, 0)" stroke-linejoin="round" d=" M 59.803, 173.279 59.311, 174.052 58.034, 176.036 58.044, 176.769 58.797, 177.895 66.678, 184.049 69.633, 186.357 72.519, 187.427 74.822, 187.232 " />
            <path fill="none" stroke-width="3.0" stroke-linecap="butt" stroke-opacity="1.0" stroke="rgb(0, 0, 0)" stroke-linejoin="round" d=" M 106.506, 124.251 106.347, 118.687 106.348, 118.593 106.356, 118.085 109.931, 109.639 109.958, 109.579 109.962, 109.571 110.150, 109.435 " />
            <path fill="none" stroke-width="3.0" stroke-linecap="butt" stroke-opacity="1.0" stroke="rgb(0, 0, 0)" stroke-linejoin="round" d=" M 130.769, 113.112 130.755, 113.096 130.412, 113.022 124.586, 111.807 121.169, 113.327 118.763, 114.482 117.075, 117.904 115.906, 120.187 115.817, 124.882 115.753, 127.413 116.414, 129.698 117.837, 134.513 118.789, 135.621 121.961, 139.224 " />
            <path fill="none" stroke-width="3.0" stroke-linecap="butt" stroke-opacity="1.0" stroke="rgb(0, 0, 0)" stroke-linejoin="round" d=" M 134.750, 194.613 135.017, 194.806 137.463, 195.872 144.452, 195.189 153.342, 194.299 159.871, 190.763 " />
            <path fill="none" stroke-width="3.0" stroke-linecap="butt" stroke-opacity="1.0" stroke="rgb(0, 0, 0)" stroke-linejoin="round" d=" M 151.700, 132.098 150.553, 128.443 150.175, 118.450 149.953, 112.593 149.893, 111.004 149.540, 107.170 150.028, 105.511 " />
            <path fill="none" stroke-width="3.0" stroke-linecap="butt" stroke-opacity="1.0" stroke="rgb(0, 0, 0)" stroke-linejoin="round" d=" M 160.659, 132.336 160.721, 132.110 161.135, 131.053 161.350, 126.524 161.467, 124.700 161.105, 122.931 160.238, 118.633 159.658, 117.471 157.996, 113.713 157.558, 113.467 156.607, 112.437 154.337, 111.944 152.068, 111.647 151.714, 111.780 " />
            <path fill="none" stroke-width="3.0" stroke-linecap="butt" stroke-opacity="1.0" stroke="rgb(0, 0, 0)" stroke-linejoin="round" d=" M 166.566, 190.590 168.611, 189.980 168.715, 189.949 169.306, 189.159 173.900, 183.210 177.759, 182.657 179.339, 182.163 181.036, 179.664 " />
            <path fill="none" stroke-width="3.0" stroke-linecap="butt" stroke-opacity="1.0" stroke="rgb(0, 0, 0)" stroke-linejoin="round" d=" M 177.301, 103.512 178.662, 99.324 178.731, 97.970 178.049, 95.705 176.421, 92.926 172.675, 90.193 171.466, 89.237 " />
            <path fill="none" stroke-width="3.0" stroke-linecap="butt" stroke-opacity="1.0" stroke="rgb(0, 0, 0)" stroke-linejoin="round" d=" M 182.297, 74.413 182.495, 66.277 181.003, 61.221 175.508, 52.866 174.128, 50.768 170.620, 44.411 163.251, 37.651 162.606, 37.059 154.708, 30.926 151.028, 28.069 147.657, 27.583 137.759, 26.161 127.860, 24.739 120.155, 23.632 112.643, 23.490 111.664, 23.397 110.463, 23.462 101.375, 27.633 92.287, 31.804 91.041, 32.376 85.226, 37.317 77.628, 43.819 70.030, 50.320 67.672, 52.339 66.725, 54.130 63.978, 57.260 58.724, 65.769 53.470, 74.277 48.706, 81.992 46.941, 91.835 46.284, 95.502 43.530, 105.116 40.777, 114.729 39.128, 120.485 39.128, 120.574 39.322, 120.744 47.042, 127.101 54.761, 133.457 55.065, 133.707 " />
        </g>
    </g>
</svg>
