<?xml version='1.0' encoding='ascii'?>
<svg xmlns="http://www.w3.org/2000/svg" version="1.1" width="250" height="250">
    <g id="ViewLayer_LineSet" xmlns:inkscape="http://www.inkscape.org/namespaces/inkscape" inkscape:groupmode="lineset" inkscape:label="ViewLayer_LineSet">
        <g xmlns:inkscape="http://www.inkscape.org/namespaces/inkscape" inkscape:groupmode="layer" id="strokes" inkscape:label="strokes">
            <path fill="none" stroke-width="3.0" stroke-linecap="butt" stroke-opacity="1.0" stroke="rgb(0, 0, 0)" stroke-linejoin="round" d=" M 115.623, 184.241 119.351, 182.538 119.506, 182.541 120.900, 182.550 121.536, 182.777 122.155, 182.997 124.222, 184.075 " />
            <path fill="none" stroke-width="3.0" stroke-linecap="butt" stroke-opacity="1.0" stroke="rgb(0, 0, 0)" stroke-linejoin="round" d=" M 110.876, 108.678 105.912, 107.481 104.384, 108.019 99.893, 109.913 99.848, 109.994 98.849, 111.684 96.854, 115.347 96.802, 115.441 96.378, 119.086 96.121, 122.428 97.512, 128.214 97.600, 128.555 " />
            <path fill="none" stroke-width="3.0" stroke-linecap="butt" stroke-opacity="1.0" stroke="rgb(0, 0, 0)" stroke-linejoin="round" d=" M 182.213, 92.746 176.726, 84.386 171.239, 76.026 169.734, 73.731 163.714, 71.300 154.569, 67.254 145.354, 63.177 143.364, 63.183 133.364, 63.166 123.364, 63.149 119.781, 63.142 109.781, 63.255 99.782, 63.369 96.827, 63.402 94.416, 63.419 85.407, 67.760 78.156, 71.254 71.108, 74.268 66.419, 83.101 61.731, 91.934 60.490, 94.273 62.549, 95.524 61.774, 96.042 61.183, 97.324 " />
            <path fill="none" stroke-width="3.0" stroke-linecap="butt" stroke-opacity="1.0" stroke="rgb(0, 0, 0)" stroke-linejoin="round" d=" M 188.786, 125.679 194.797, 119.895 195.686, 109.935 196.575, 99.974 197.350, 91.292 197.253, 90.476 197.258, 90.091 196.847, 89.148 192.537, 80.124 188.226, 71.101 183.915, 62.078 182.228, 58.548 176.091, 51.885 169.801, 44.111 164.255, 37.257 160.812, 35.051 151.990, 30.344 143.849, 26.000 140.349, 26.158 130.350, 26.292 120.351, 26.426 110.352, 26.560 106.405, 26.613 102.488, 26.564 93.831, 31.569 87.362, 35.309 82.515, 38.651 76.407, 46.568 72.702, 51.371 66.097, 58.880 65.347, 59.732 61.390, 68.916 57.434, 78.100 54.954, 83.855 54.077, 89.071 53.457, 91.487 53.448, 96.172 54.642, 106.100 55.837, 116.029 56.184, 118.920 60.384, 123.372 63.176, 127.551 " />
            <path fill="none" stroke-width="3.0" stroke-linecap="butt" stroke-opacity="1.0" stroke="rgb(0, 0, 0)" stroke-linejoin="round" d=" M 99.291, 127.477 98.893, 127.731 97.600, 128.555 92.870, 131.568 90.644, 132.985 89.041, 137.470 86.612, 138.999 86.941, 140.938 86.280, 141.952 85.057, 150.155 84.995, 150.575 84.748, 157.403 86.924, 158.822 92.433, 163.838 96.625, 167.815 97.409, 168.343 105.702, 173.931 106.731, 174.624 112.274, 175.940 119.068, 176.891 125.279, 176.100 128.915, 175.204 138.070, 171.180 143.473, 168.806 143.566, 168.710 147.029, 165.121 150.530, 156.443 151.714, 152.208 152.026, 151.091 151.410, 145.543 149.265, 140.911 147.710, 135.246 147.257, 133.598 144.504, 131.812 144.055, 131.521 139.611, 128.639 136.114, 126.192 131.609, 125.280 127.721, 124.493 126.506, 124.334 119.555, 123.426 117.170, 123.681 109.794, 124.467 102.181, 125.788 99.291, 127.477 " />
            <path fill="none" stroke-width="3.0" stroke-linecap="butt" stroke-opacity="1.0" stroke="rgb(0, 0, 0)" stroke-linejoin="round" d=" M 124.222, 184.075 130.604, 187.159 134.667, 189.122 137.610, 188.893 143.528, 188.433 145.398, 186.786 146.073, 186.191 146.606, 185.721 149.798, 182.908 " />
            <path fill="none" stroke-width="3.0" stroke-linecap="butt" stroke-opacity="1.0" stroke="rgb(0, 0, 0)" stroke-linejoin="round" d=" M 91.408, 182.381 96.899, 187.631 97.276, 187.992 105.801, 188.850 " />
            <path fill="none" stroke-width="3.0" stroke-linecap="butt" stroke-opacity="1.0" stroke="rgb(0, 0, 0)" stroke-linejoin="round" d=" M 77.760, 103.528 82.604, 96.679 87.562, 91.479 96.237, 87.655 105.005, 87.819 108.925, 91.097 " />
            <path fill="none" stroke-width="3.0" stroke-linecap="butt" stroke-opacity="1.0" stroke="rgb(0, 0, 0)" stroke-linejoin="round" d=" M 114.849, 98.288 112.635, 90.625 108.754, 83.652 103.095, 80.321 " />
            <path fill="none" stroke-width="3.0" stroke-linecap="butt" stroke-opacity="1.0" stroke="rgb(0, 0, 0)" stroke-linejoin="round" d=" M 133.315, 92.100 138.452, 88.051 147.817, 87.857 156.846, 91.703 161.962, 96.887 166.902, 103.778 " />
            <path fill="none" stroke-width="3.0" stroke-linecap="butt" stroke-opacity="1.0" stroke="rgb(0, 0, 0)" stroke-linejoin="round" d=" M 135.739, 82.607 130.384, 88.644 128.193, 98.401 128.158, 98.560 " />
            <path fill="none" stroke-width="3.0" stroke-linecap="butt" stroke-opacity="1.0" stroke="rgb(0, 0, 0)" stroke-linejoin="round" d=" M 147.710, 135.246 151.425, 131.314 153.835, 124.097 153.863, 114.097 153.865, 113.370 150.411, 104.609 143.950, 99.047 134.743, 99.862 132.209, 104.787 132.082, 109.096 " />
            <path fill="none" stroke-width="3.0" stroke-linecap="butt" stroke-opacity="1.0" stroke="rgb(0, 0, 0)" stroke-linejoin="round" d=" M 111.499, 105.897 109.192, 101.028 100.442, 100.264 94.425, 106.083 91.029, 114.338 90.859, 124.336 90.853, 124.661 92.870, 131.568 " />
            <path fill="none" stroke-width="3.0" stroke-linecap="butt" stroke-opacity="1.0" stroke="rgb(0, 0, 0)" stroke-linejoin="round" d=" M 177.361, 98.852 184.048, 95.900 182.213, 92.746 " />
            <path fill="none" stroke-width="3.0" stroke-linecap="butt" stroke-opacity="1.0" stroke="rgb(0, 0, 0)" stroke-linejoin="round" d=" M 63.156, 127.081 62.033, 125.347 63.145, 126.813 63.156, 127.081 63.176, 127.551 63.338, 131.411 63.382, 132.454 63.393, 132.730 63.354, 132.791 58.225, 141.376 57.297, 142.929 57.315, 147.751 59.216, 152.559 61.240, 153.488 61.565, 156.373 61.130, 166.183 61.529, 169.267 61.610, 169.520 61.696, 169.792 62.476, 171.956 67.613, 180.536 72.751, 189.116 74.283, 191.675 75.361, 192.430 77.208, 194.024 85.943, 198.893 94.678, 203.761 96.503, 204.779 105.066, 210.088 108.635, 211.648 118.188, 214.603 118.658, 214.748 122.535, 216.526 125.847, 215.129 135.585, 212.858 137.906, 212.316 139.769, 211.535 148.214, 206.179 149.189, 205.560 158.034, 200.895 163.640, 197.939 169.820, 193.137 172.918, 190.461 178.170, 181.951 182.670, 174.660 184.016, 171.488 184.402, 170.580 184.689, 169.529 185.928, 161.960 185.949, 156.917 186.213, 155.498 186.984, 155.352 190.605, 148.242 191.107, 144.790 186.727, 136.202 185.418, 133.991 185.776, 131.565 186.028, 129.860 186.276, 128.184 185.462, 130.720 " />
            <path fill="none" stroke-width="3.0" stroke-linecap="butt" stroke-opacity="1.0" stroke="rgb(0, 0, 0)" stroke-linejoin="round" d=" M 146.073, 186.191 146.253, 186.202 146.968, 185.467 145.432, 187.216 145.398, 186.786 " />
            <path fill="none" stroke-width="3.0" stroke-linecap="butt" stroke-opacity="1.0" stroke="rgb(0, 0, 0)" stroke-linejoin="round" d=" M 63.338, 131.411 60.655, 133.671 57.196, 137.675 56.468, 141.564 55.089, 146.426 54.207, 149.436 54.481, 154.614 55.149, 161.260 57.513, 163.388 60.007, 168.720 61.610, 169.520 " />
            <path fill="none" stroke-width="3.0" stroke-linecap="butt" stroke-opacity="1.0" stroke="rgb(0, 0, 0)" stroke-linejoin="round" d=" M 85.057, 150.155 82.753, 149.272 77.586, 143.972 72.347, 137.069 69.756, 142.240 68.070, 145.354 66.481, 148.288 66.134, 151.857 65.828, 154.204 66.495, 157.642 67.074, 160.155 68.093, 163.627 69.421, 165.802 69.825, 165.948 70.249, 166.103 70.294, 166.120 73.749, 167.377 76.676, 169.263 78.154, 172.450 78.604, 173.599 79.147, 174.988 79.621, 176.200 82.115, 178.972 82.574, 179.463 83.870, 180.851 88.479, 181.664 91.197, 181.696 91.576, 181.988 94.007, 183.870 94.557, 185.392 " />
            <path fill="none" stroke-width="3.0" stroke-linecap="butt" stroke-opacity="1.0" stroke="rgb(0, 0, 0)" stroke-linejoin="round" d=" M 106.818, 188.373 107.900, 189.237 112.588, 191.912 118.281, 192.294 128.250, 193.085 129.047, 193.148 133.286, 191.339 137.610, 188.893 " />
            <path fill="none" stroke-width="3.0" stroke-linecap="butt" stroke-opacity="1.0" stroke="rgb(0, 0, 0)" stroke-linejoin="round" d=" M 108.925, 91.097 109.612, 91.645 109.698, 91.744 110.150, 92.263 " />
            <path fill="none" stroke-width="3.0" stroke-linecap="butt" stroke-opacity="1.0" stroke="rgb(0, 0, 0)" stroke-linejoin="round" d=" M 144.504, 131.812 146.509, 128.910 146.799, 127.202 147.510, 121.684 146.522, 114.871 146.469, 114.548 143.233, 110.014 142.819, 109.440 138.522, 108.168 136.390, 107.621 132.451, 108.979 " />
            <path fill="none" stroke-width="3.0" stroke-linecap="butt" stroke-opacity="1.0" stroke="rgb(0, 0, 0)" stroke-linejoin="round" d=" M 146.606, 185.721 149.618, 182.497 149.844, 182.255 152.531, 182.268 157.316, 181.517 159.620, 178.996 161.677, 176.921 163.114, 173.523 164.827, 169.968 169.813, 168.196 172.611, 166.541 173.663, 163.442 175.443, 161.049 176.181, 157.888 176.920, 155.046 176.652, 151.792 176.330, 149.051 172.790, 142.486 170.353, 137.632 165.523, 141.898 158.992, 149.471 158.821, 149.670 151.714, 152.208 " />
            <path fill="none" stroke-width="3.0" stroke-linecap="butt" stroke-opacity="1.0" stroke="rgb(0, 0, 0)" stroke-linejoin="round" d=" M 184.016, 171.488 186.619, 171.130 190.907, 169.057 193.539, 164.488 195.730, 162.740 196.863, 155.381 197.197, 150.818 196.218, 147.206 194.453, 141.576 193.572, 138.049 189.496, 133.612 187.805, 132.258 185.776, 131.565 " />
            <path fill="none" stroke-width="3.0" stroke-linecap="butt" stroke-opacity="1.0" stroke="rgb(0, 0, 0)" stroke-linejoin="round" d=" M 186.028, 129.860 188.786, 125.679 " />
        </g>
    </g>
</svg>
