<?xml version='1.0' encoding='ascii'?>
<svg xmlns="http://www.w3.org/2000/svg" version="1.1" width="250" height="250">
    <g id="ViewLayer_LineSet" xmlns:inkscape="http://www.inkscape.org/namespaces/inkscape" inkscape:groupmode="lineset" inkscape:label="ViewLayer_LineSet">
        <g xmlns:inkscape="http://www.inkscape.org/namespaces/inkscape" inkscape:groupmode="layer" id="strokes" inkscape:label="strokes">
            <path fill="none" stroke-width="3.0" stroke-linecap="butt" stroke-opacity="1.0" stroke="rgb(0, 0, 0)" stroke-linejoin="round" d=" M 83.549, 96.342 83.999, 95.994 84.148, 96.427 84.821, 98.384 85.104, 99.699 90.498, 104.257 " />
            <path fill="none" stroke-width="3.0" stroke-linecap="butt" stroke-opacity="1.0" stroke="rgb(0, 0, 0)" stroke-linejoin="round" d=" M 192.403, 134.323 200.014, 127.836 206.042, 122.699 207.315, 123.570 208.307, 118.855 208.960, 115.584 205.546, 106.185 202.133, 96.785 201.633, 95.408 199.093, 85.736 197.134, 78.277 191.405, 70.080 188.209, 65.507 181.283, 58.295 178.987, 55.905 175.694, 50.508 167.863, 44.288 161.303, 39.078 153.397, 32.954 151.316, 31.342 142.044, 27.596 134.657, 24.612 130.355, 24.465 120.364, 24.873 110.372, 25.282 108.113, 25.375 98.311, 27.354 94.920, 28.039 92.600, 28.544 85.094, 35.152 81.305, 38.488 74.390, 45.712 73.118, 47.041 70.856, 51.823 66.916, 58.563 65.015, 68.381 64.584, 70.609 65.799, 80.535 65.985, 82.055 " />
            <path fill="none" stroke-width="3.0" stroke-linecap="butt" stroke-opacity="1.0" stroke="rgb(0, 0, 0)" stroke-linejoin="round" d=" M 71.535, 106.708 74.286, 99.049 " />
            <path fill="none" stroke-width="3.0" stroke-linecap="butt" stroke-opacity="1.0" stroke="rgb(0, 0, 0)" stroke-linejoin="round" d=" M 184.527, 145.527 189.163, 148.853 187.823, 139.112 187.707, 138.270 188.836, 135.713 188.826, 137.159 187.823, 139.112 " />
            <path fill="none" stroke-width="3.0" stroke-linecap="butt" stroke-opacity="1.0" stroke="rgb(0, 0, 0)" stroke-linejoin="round" d=" M 106.647, 197.836 107.457, 197.833 110.253, 197.825 115.210, 197.810 118.477, 195.327 118.538, 195.281 121.698, 192.879 " />
            <path fill="none" stroke-width="3.0" stroke-linecap="butt" stroke-opacity="1.0" stroke="rgb(0, 0, 0)" stroke-linejoin="round" d=" M 68.156, 110.045 70.089, 106.072 70.519, 105.189 71.233, 103.723 74.286, 99.049 74.334, 98.975 79.798, 95.809 " />
            <path fill="none" stroke-width="3.0" stroke-linecap="butt" stroke-opacity="1.0" stroke="rgb(0, 0, 0)" stroke-linejoin="round" d=" M 92.601, 107.590 90.029, 100.166 87.951, 92.629 84.363, 88.833 " />
            <path fill="none" stroke-width="3.0" stroke-linecap="butt" stroke-opacity="1.0" stroke="rgb(0, 0, 0)" stroke-linejoin="round" d=" M 111.717, 91.080 106.075, 97.761 104.669, 107.686 109.199, 101.088 114.784, 96.459 124.741, 95.533 124.939, 95.515 134.428, 98.670 134.993, 98.858 140.506, 104.086 145.790, 111.206 145.783, 102.407 141.846, 95.305 " />
            <path fill="none" stroke-width="3.0" stroke-linecap="butt" stroke-opacity="1.0" stroke="rgb(0, 0, 0)" stroke-linejoin="round" d=" M 125.319, 105.588 115.446, 107.009 112.736, 112.212 112.491, 116.630 " />
            <path fill="none" stroke-width="3.0" stroke-linecap="butt" stroke-opacity="1.0" stroke="rgb(0, 0, 0)" stroke-linejoin="round" d=" M 93.280, 108.014 87.657, 106.490 84.596, 111.397 82.622, 119.094 82.708, 128.993 83.592, 136.023 84.823, 137.657 " />
            <path fill="none" stroke-width="3.0" stroke-linecap="butt" stroke-opacity="1.0" stroke="rgb(0, 0, 0)" stroke-linejoin="round" d=" M 117.511, 144.482 127.475, 143.631 129.146, 143.488 " />
            <path fill="none" stroke-width="3.0" stroke-linecap="butt" stroke-opacity="1.0" stroke="rgb(0, 0, 0)" stroke-linejoin="round" d=" M 71.172, 106.935 72.069, 109.336 75.155, 116.215 76.937, 119.242 77.258, 119.213 76.952, 120.436 75.642, 118.636 73.982, 116.791 74.122, 118.678 74.401, 121.846 73.894, 123.386 74.146, 132.858 71.830, 136.272 69.066, 139.889 " />
            <path fill="none" stroke-width="3.0" stroke-linecap="butt" stroke-opacity="1.0" stroke="rgb(0, 0, 0)" stroke-linejoin="round" d=" M 72.619, 135.318 69.633, 139.809 " />
            <path fill="none" stroke-width="3.0" stroke-linecap="butt" stroke-opacity="1.0" stroke="rgb(0, 0, 0)" stroke-linejoin="round" d=" M 65.985, 82.055 61.234, 79.571 61.719, 79.481 60.405, 79.552 60.119, 79.574 51.940, 85.328 51.610, 85.560 42.826, 90.340 41.692, 90.956 41.562, 91.690 51.262, 94.122 60.962, 96.553 66.974, 98.060 " />
            <path fill="none" stroke-width="3.0" stroke-linecap="butt" stroke-opacity="1.0" stroke="rgb(0, 0, 0)" stroke-linejoin="round" d=" M 70.089, 106.072 70.757, 107.194 71.172, 106.935 71.535, 106.708 " />
            <path fill="none" stroke-width="3.0" stroke-linecap="butt" stroke-opacity="1.0" stroke="rgb(0, 0, 0)" stroke-linejoin="round" d=" M 118.538, 195.281 121.019, 194.505 125.517, 193.674 125.746, 195.712 125.796, 196.159 125.488, 196.139 124.361, 196.065 122.668, 195.954 124.379, 195.653 124.361, 196.065 124.267, 198.161 " />
            <path fill="none" stroke-width="3.0" stroke-linecap="butt" stroke-opacity="1.0" stroke="rgb(0, 0, 0)" stroke-linejoin="round" d=" M 84.288, 138.579 85.147, 138.088 86.169, 137.504 86.258, 137.453 86.157, 137.468 84.823, 137.657 81.623, 138.110 81.597, 138.114 81.588, 138.115 78.527, 138.549 70.231, 139.724 69.633, 139.809 69.066, 139.889 67.136, 140.163 63.433, 141.489 58.467, 143.145 53.992, 148.394 53.825, 154.015 49.693, 162.808 48.953, 166.111 49.903, 169.958 53.984, 175.841 58.464, 183.337 63.400, 186.027 72.737, 189.609 75.278, 190.584 75.608, 190.710 76.663, 190.832 76.907, 190.860 81.329, 190.502 85.887, 190.133 87.717, 189.985 91.705, 188.435 100.479, 183.638 101.291, 183.195 105.718, 180.775 " />
            <path fill="none" stroke-width="3.0" stroke-linecap="butt" stroke-opacity="1.0" stroke="rgb(0, 0, 0)" stroke-linejoin="round" d=" M 68.015, 95.962 67.705, 96.203 67.150, 97.160 66.974, 98.060 66.359, 101.203 66.819, 104.274 68.331, 107.675 " />
            <path fill="none" stroke-width="3.0" stroke-linecap="butt" stroke-opacity="1.0" stroke="rgb(0, 0, 0)" stroke-linejoin="round" d=" M 75.278, 190.584 75.529, 190.978 76.845, 192.379 78.686, 192.980 80.769, 193.675 83.145, 194.468 83.189, 194.458 83.449, 194.400 83.497, 194.390 88.366, 192.383 92.216, 190.796 92.445, 190.906 92.610, 191.384 98.381, 193.809 106.281, 197.786 106.576, 197.793 106.861, 197.800 107.457, 197.833 " />
            <path fill="none" stroke-width="3.0" stroke-linecap="butt" stroke-opacity="1.0" stroke="rgb(0, 0, 0)" stroke-linejoin="round" d=" M 80.769, 193.675 85.361, 198.540 86.901, 199.950 91.011, 203.876 97.373, 209.526 98.527, 210.494 107.367, 214.410 107.392, 214.419 107.414, 214.420 107.535, 214.420 113.551, 212.229 117.896, 211.245 120.191, 212.732 120.205, 213.681 126.510, 211.710 136.222, 210.564 139.431, 209.596 148.198, 205.635 151.994, 204.137 159.949, 198.078 164.871, 194.328 171.805, 187.123 172.410, 186.495 174.296, 183.180 175.728, 180.665 178.225, 178.402 181.608, 171.634 184.879, 172.451 193.716, 172.063 194.261, 171.799 203.264, 167.445 203.678, 167.245 206.489, 164.813 207.432, 164.159 210.669, 154.698 211.012, 153.696 211.340, 151.798 210.251, 145.365 206.218, 136.215 206.079, 135.900 205.273, 134.622 202.850, 132.514 200.287, 131.845 195.938, 131.817 " />
            <path fill="none" stroke-width="3.0" stroke-linecap="butt" stroke-opacity="1.0" stroke="rgb(0, 0, 0)" stroke-linejoin="round" d=" M 88.366, 192.383 89.836, 193.763 91.563, 194.881 101.319, 197.075 102.669, 197.379 107.660, 198.618 110.253, 197.825 " />
            <path fill="none" stroke-width="3.0" stroke-linecap="butt" stroke-opacity="1.0" stroke="rgb(0, 0, 0)" stroke-linejoin="round" d=" M 92.473, 114.559 91.652, 114.342 89.774, 114.706 88.151, 115.246 87.035, 116.858 86.479, 117.290 85.261, 120.837 84.687, 122.319 84.458, 125.822 84.307, 128.162 84.555, 130.598 84.931, 134.227 85.543, 135.573 86.157, 137.468 " />
            <path fill="none" stroke-width="3.0" stroke-linecap="butt" stroke-opacity="1.0" stroke="rgb(0, 0, 0)" stroke-linejoin="round" d=" M 93.518, 108.907 93.672, 110.684 93.275, 114.772 93.140, 116.162 93.074, 126.161 93.047, 130.299 91.979, 136.954 92.136, 137.416 92.174, 137.764 88.250, 138.170 " />
            <path fill="none" stroke-width="3.0" stroke-linecap="butt" stroke-opacity="1.0" stroke="rgb(0, 0, 0)" stroke-linejoin="round" d=" M 118.477, 195.327 118.510, 195.289 120.980, 192.515 121.532, 192.563 123.604, 192.744 127.678, 192.512 127.977, 192.495 130.021, 190.632 132.669, 188.432 133.609, 186.301 135.355, 181.914 139.661, 180.711 143.648, 178.720 144.824, 176.314 147.879, 173.122 148.442, 171.337 150.064, 167.009 150.019, 165.627 149.631, 160.854 144.917, 152.034 144.197, 150.686 142.948, 148.327 139.183, 151.320 131.976, 158.252 128.306, 161.781 118.777, 164.813 113.267, 166.567 108.689, 168.054 " />
            <path fill="none" stroke-width="3.0" stroke-linecap="butt" stroke-opacity="1.0" stroke="rgb(0, 0, 0)" stroke-linejoin="round" d=" M 122.420, 142.301 122.818, 142.181 122.822, 142.180 122.879, 142.161 122.883, 142.160 125.513, 138.045 126.291, 136.844 127.165, 131.226 127.368, 129.562 127.108, 127.846 126.133, 122.353 124.892, 120.564 122.502, 117.070 120.599, 116.466 116.471, 115.195 112.491, 116.630 " />
            <path fill="none" stroke-width="3.0" stroke-linecap="butt" stroke-opacity="1.0" stroke="rgb(0, 0, 0)" stroke-linejoin="round" d=" M 127.851, 107.574 132.178, 110.992 132.532, 111.761 136.210, 119.912 136.183, 121.550 136.579, 130.976 133.972, 137.964 133.714, 138.435 133.702, 138.457 131.483, 140.903 " />
            <path fill="none" stroke-width="3.0" stroke-linecap="butt" stroke-opacity="1.0" stroke="rgb(0, 0, 0)" stroke-linejoin="round" d=" M 174.296, 183.180 175.086, 183.298 177.548, 183.618 179.829, 183.789 182.359, 182.858 190.498, 177.048 192.835, 175.380 194.244, 173.192 194.261, 171.799 " />
        </g>
    </g>
</svg>
