<?xml version='1.0' encoding='ascii'?>
<svg xmlns="http://www.w3.org/2000/svg" version="1.1" width="250" height="250">
    <g id="ViewLayer_LineSet" xmlns:inkscape="http://www.inkscape.org/namespaces/inkscape" inkscape:groupmode="lineset" inkscape:label="ViewLayer_LineSet">
        <g xmlns:inkscape="http://www.inkscape.org/namespaces/inkscape" inkscape:groupmode="layer" id="strokes" inkscape:label="strokes">
            <path fill="none" stroke-width="3.0" stroke-linecap="butt" stroke-opacity="1.0" stroke="rgb(0, 0, 0)" stroke-linejoin="round" d=" M 192.688, 117.399 199.689, 110.258 206.689, 103.117 208.183, 101.592 208.422, 101.234 208.125, 100.576 207.759, 99.266 202.344, 90.859 198.226, 84.468 195.078, 79.093 187.856, 72.176 180.959, 65.571 172.500, 60.678 164.917, 54.160 158.980, 49.058 158.513, 48.864 158.373, 48.783 148.804, 45.880 139.235, 42.977 129.665, 40.074 128.115, 39.603 118.146, 38.818 118.032, 38.809 108.558, 39.872 101.181, 40.733 91.222, 41.632 85.458, 42.152 75.548, 43.494 70.384, 44.193 62.442, 50.270 56.712, 54.655 56.484, 54.932 56.325, 55.123 53.635, 64.755 52.042, 70.460 48.367, 79.760 48.278, 79.985 51.234, 89.538 51.832, 91.471 55.648, 98.885 57.567, 101.432 61.664, 106.901 69.380, 113.262 69.710, 113.534 64.719, 116.161 58.573, 121.436 52.227, 125.766 46.277, 129.137 42.033, 132.403 40.762, 137.452 49.222, 132.119 56.437, 127.571 63.587, 123.977 " />
            <path fill="none" stroke-width="3.0" stroke-linecap="butt" stroke-opacity="1.0" stroke="rgb(0, 0, 0)" stroke-linejoin="round" d=" M 192.510, 146.379 192.756, 145.673 192.517, 144.060 192.155, 142.495 189.906, 132.752 189.294, 130.097 189.486, 128.903 190.149, 124.774 190.391, 126.348 189.486, 128.903 " />
            <path fill="none" stroke-width="3.0" stroke-linecap="butt" stroke-opacity="1.0" stroke="rgb(0, 0, 0)" stroke-linejoin="round" d=" M 133.957, 207.258 134.350, 206.924 137.402, 204.325 " />
            <path fill="none" stroke-width="3.0" stroke-linecap="butt" stroke-opacity="1.0" stroke="rgb(0, 0, 0)" stroke-linejoin="round" d=" M 129.555, 158.664 135.092, 156.814 138.603, 152.824 " />
            <path fill="none" stroke-width="3.0" stroke-linecap="butt" stroke-opacity="1.0" stroke="rgb(0, 0, 0)" stroke-linejoin="round" d=" M 93.174, 165.445 86.407, 170.078 80.386, 176.557 80.003, 176.907 79.702, 177.182 74.587, 181.846 69.114, 186.837 68.181, 188.335 67.603, 188.929 70.071, 196.342 69.456, 204.800 69.755, 207.616 70.760, 209.249 72.700, 210.825 77.341, 216.322 82.124, 219.459 88.286, 221.202 98.235, 222.207 101.456, 222.532 104.471, 222.632 108.711, 221.947 113.994, 219.281 118.536, 217.554 123.158, 209.048 124.161, 207.202 124.705, 206.200 125.752, 204.275 125.784, 204.137 127.270, 197.922 127.591, 196.577 127.955, 195.875 " />
            <path fill="none" stroke-width="3.0" stroke-linecap="butt" stroke-opacity="1.0" stroke="rgb(0, 0, 0)" stroke-linejoin="round" d=" M 151.361, 200.561 151.451, 200.628 151.294, 200.651 146.739, 201.336 " />
            <path fill="none" stroke-width="3.0" stroke-linecap="butt" stroke-opacity="1.0" stroke="rgb(0, 0, 0)" stroke-linejoin="round" d=" M 143.931, 203.968 146.903, 203.034 147.073, 202.817 150.906, 201.176 151.294, 200.651 151.361, 200.561 152.415, 199.135 160.376, 193.084 162.279, 191.637 171.930, 189.300 177.271, 182.294 182.650, 173.864 182.976, 173.353 185.693, 165.357 184.286, 167.126 186.294, 157.330 187.142, 153.188 195.443, 152.802 199.731, 151.415 206.657, 144.203 208.338, 142.453 210.658, 140.128 213.295, 131.097 213.412, 128.913 212.249, 122.846 209.128, 117.058 204.477, 115.538 197.678, 116.482 195.161, 118.074 192.688, 117.399 " />
            <path fill="none" stroke-width="3.0" stroke-linecap="butt" stroke-opacity="1.0" stroke="rgb(0, 0, 0)" stroke-linejoin="round" d=" M 189.444, 145.150 189.673, 145.469 190.918, 149.314 192.510, 146.379 " />
            <path fill="none" stroke-width="3.0" stroke-linecap="butt" stroke-opacity="1.0" stroke="rgb(0, 0, 0)" stroke-linejoin="round" d=" M 92.950, 135.478 94.328, 143.069 97.880, 152.417 98.035, 152.825 99.986, 157.944 100.323, 156.631 " />
            <path fill="none" stroke-width="3.0" stroke-linecap="butt" stroke-opacity="1.0" stroke="rgb(0, 0, 0)" stroke-linejoin="round" d=" M 76.168, 132.392 74.404, 138.728 73.443, 140.155 75.353, 144.861 76.036, 149.058 76.005, 149.854 75.707, 154.084 74.426, 164.001 74.355, 164.553 78.513, 173.647 80.003, 176.907 " />
            <path fill="none" stroke-width="3.0" stroke-linecap="butt" stroke-opacity="1.0" stroke="rgb(0, 0, 0)" stroke-linejoin="round" d=" M 79.702, 177.182 79.181, 176.707 77.122, 173.629 71.842, 165.136 70.454, 162.902 68.964, 171.124 69.858, 174.568 70.282, 175.440 72.661, 179.669 74.587, 181.846 " />
            <path fill="none" stroke-width="3.0" stroke-linecap="butt" stroke-opacity="1.0" stroke="rgb(0, 0, 0)" stroke-linejoin="round" d=" M 90.066, 150.304 90.884, 152.057 92.394, 153.872 93.771, 155.715 95.146, 156.631 97.919, 158.864 98.885, 159.304 99.854, 158.998 102.555, 158.187 " />
            <path fill="none" stroke-width="3.0" stroke-linecap="butt" stroke-opacity="1.0" stroke="rgb(0, 0, 0)" stroke-linejoin="round" d=" M 123.158, 209.048 126.078, 210.103 129.120, 209.327 132.221, 208.308 133.688, 207.285 134.195, 206.930 134.817, 206.497 137.322, 204.323 137.402, 204.325 142.425, 204.490 142.929, 204.507 143.419, 204.464 143.931, 203.968 145.948, 202.012 146.739, 201.336 147.269, 200.883 147.962, 198.879 148.059, 198.598 148.578, 196.641 153.877, 194.925 155.774, 193.779 156.715, 190.858 158.523, 188.601 158.909, 186.695 159.909, 183.438 159.758, 182.472 159.094, 178.431 157.949, 176.944 148.178, 174.815 146.049, 174.351 141.095, 180.901 139.447, 183.080 129.923, 186.129 129.112, 186.389 128.866, 190.479 126.653, 192.762 " />
            <path fill="none" stroke-width="3.0" stroke-linecap="butt" stroke-opacity="1.0" stroke="rgb(0, 0, 0)" stroke-linejoin="round" d=" M 129.555, 158.664 130.180, 157.124 131.333, 154.345 130.801, 149.190 130.671, 148.181 130.626, 148.082 130.621, 148.072 130.419, 147.630 127.941, 142.773 " />
            <path fill="none" stroke-width="3.0" stroke-linecap="butt" stroke-opacity="1.0" stroke="rgb(0, 0, 0)" stroke-linejoin="round" d=" M 134.350, 206.924 135.518, 206.874 137.868, 206.177 142.425, 204.490 " />
            <path fill="none" stroke-width="3.0" stroke-linecap="butt" stroke-opacity="1.0" stroke="rgb(0, 0, 0)" stroke-linejoin="round" d=" M 139.725, 146.743 139.765, 146.845 139.423, 148.378 " />
        </g>
    </g>
</svg>
