<?xml version='1.0' encoding='ascii'?>
<svg xmlns="http://www.w3.org/2000/svg" version="1.1" width="250" height="250">
    <g id="ViewLayer_LineSet" xmlns:inkscape="http://www.inkscape.org/namespaces/inkscape" inkscape:groupmode="lineset" inkscape:label="ViewLayer_LineSet">
        <g xmlns:inkscape="http://www.inkscape.org/namespaces/inkscape" inkscape:groupmode="layer" id="strokes" inkscape:label="strokes">
            <path fill="none" stroke-width="3.0" stroke-linecap="butt" stroke-opacity="1.0" stroke="rgb(0, 0, 0)" stroke-linejoin="round" d=" M 138.216, 156.465 143.070, 157.300 143.654, 157.108 144.797, 156.607 147.731, 154.398 148.340, 154.028 148.947, 153.098 150.883, 150.134 151.341, 149.468 153.017, 143.647 153.081, 143.414 153.063, 143.225 153.018, 141.648 152.415, 137.937 152.288, 137.278 150.067, 134.891 148.259, 133.019 147.758, 132.937 147.184, 132.842 146.313, 132.689 " />
            <path fill="none" stroke-width="3.0" stroke-linecap="butt" stroke-opacity="1.0" stroke="rgb(0, 0, 0)" stroke-linejoin="round" d=" M 191.337, 125.643 186.471, 121.467 185.650, 119.334 184.674, 118.682 183.744, 118.061 183.667, 118.010 " />
            <path fill="none" stroke-width="3.0" stroke-linecap="butt" stroke-opacity="1.0" stroke="rgb(0, 0, 0)" stroke-linejoin="round" d=" M 167.853, 40.704 159.184, 36.152 149.192, 35.750 144.603, 35.566 134.606, 35.326 130.805, 35.235 120.808, 35.001 115.310, 34.873 105.310, 34.798 98.605, 34.748 93.190, 36.911 84.984, 42.626 78.877, 46.880 70.835, 52.823 67.856, 55.025 65.263, 59.642 59.262, 64.949 54.040, 73.477 49.208, 81.368 48.708, 87.656 46.598, 93.223 48.993, 102.932 50.415, 108.695 57.293, 115.954 57.779, 116.467 59.821, 118.574 " />
            <path fill="none" stroke-width="3.0" stroke-linecap="butt" stroke-opacity="1.0" stroke="rgb(0, 0, 0)" stroke-linejoin="round" d=" M 68.609, 125.498 75.683, 121.128 72.765, 120.116 67.277, 121.919 68.831, 122.304 71.186, 123.521 68.609, 125.498 " />
            <path fill="none" stroke-width="3.0" stroke-linecap="butt" stroke-opacity="1.0" stroke="rgb(0, 0, 0)" stroke-linejoin="round" d=" M 139.586, 130.066 141.162, 126.893 " />
            <path fill="none" stroke-width="3.0" stroke-linecap="butt" stroke-opacity="1.0" stroke="rgb(0, 0, 0)" stroke-linejoin="round" d=" M 149.784, 167.418 149.307, 166.986 151.936, 171.376 154.030, 180.395 151.250, 181.842 150.898, 185.003 " />
            <path fill="none" stroke-width="3.0" stroke-linecap="butt" stroke-opacity="1.0" stroke="rgb(0, 0, 0)" stroke-linejoin="round" d=" M 124.429, 131.178 122.689, 124.942 " />
            <path fill="none" stroke-width="3.0" stroke-linecap="butt" stroke-opacity="1.0" stroke="rgb(0, 0, 0)" stroke-linejoin="round" d=" M 147.720, 132.882 142.630, 132.186 139.263, 133.904 " />
            <path fill="none" stroke-width="3.0" stroke-linecap="butt" stroke-opacity="1.0" stroke="rgb(0, 0, 0)" stroke-linejoin="round" d=" M 96.234, 133.356 96.125, 142.528 98.550, 149.659 103.484, 154.055 107.467, 155.491 " />
            <path fill="none" stroke-width="3.0" stroke-linecap="butt" stroke-opacity="1.0" stroke="rgb(0, 0, 0)" stroke-linejoin="round" d=" M 118.969, 131.764 116.514, 126.472 " />
            <path fill="none" stroke-width="3.0" stroke-linecap="butt" stroke-opacity="1.0" stroke="rgb(0, 0, 0)" stroke-linejoin="round" d=" M 149.734, 152.733 154.922, 148.063 157.631, 141.264 157.937, 138.923 158.019, 138.301 158.767, 132.584 156.462, 125.844 " />
            <path fill="none" stroke-width="3.0" stroke-linecap="butt" stroke-opacity="1.0" stroke="rgb(0, 0, 0)" stroke-linejoin="round" d=" M 57.924, 118.007 57.057, 117.145 57.774, 118.002 59.692, 120.295 60.153, 122.917 61.351, 129.523 59.973, 134.486 57.577, 143.972 58.161, 148.222 60.449, 152.891 60.950, 153.915 63.305, 156.314 64.658, 160.554 65.325, 170.532 65.339, 170.741 65.744, 172.167 65.848, 172.423 66.189, 173.436 67.190, 174.908 72.914, 183.108 76.789, 188.659 82.774, 190.390 " />
            <path fill="none" stroke-width="3.0" stroke-linecap="butt" stroke-opacity="1.0" stroke="rgb(0, 0, 0)" stroke-linejoin="round" d=" M 103.984, 185.277 103.825, 185.133 104.379, 182.876 106.461, 174.396 104.496, 183.031 103.984, 185.277 103.543, 187.213 103.085, 189.467 101.437, 196.856 101.183, 197.996 101.260, 198.941 101.423, 200.921 101.482, 201.648 101.540, 202.348 101.605, 203.142 101.652, 203.722 103.654, 208.623 112.120, 214.031 117.098, 217.622 120.654, 218.300 125.791, 218.619 135.784, 218.237 141.786, 218.007 145.930, 217.454 148.276, 216.873 154.382, 211.189 160.280, 206.689 163.835, 199.454 164.611, 195.667 164.141, 194.271 163.604, 192.674 162.609, 189.717 159.575, 185.150 157.156, 178.894 154.868, 172.978 152.146, 170.465 149.784, 167.418 " />
            <path fill="none" stroke-width="3.0" stroke-linecap="butt" stroke-opacity="1.0" stroke="rgb(0, 0, 0)" stroke-linejoin="round" d=" M 57.774, 118.002 52.322, 117.814 51.625, 118.748 51.388, 119.188 48.909, 127.408 48.327, 131.131 48.997, 135.377 50.765, 142.029 53.986, 145.456 59.500, 152.649 60.449, 152.891 " />
            <path fill="none" stroke-width="3.0" stroke-linecap="butt" stroke-opacity="1.0" stroke="rgb(0, 0, 0)" stroke-linejoin="round" d=" M 104.379, 182.876 103.534, 181.754 94.211, 178.136 93.302, 177.784 90.906, 175.280 85.099, 167.139 84.796, 166.715 80.464, 164.538 75.823, 173.396 75.773, 173.492 75.733, 175.704 75.633, 178.563 76.476, 181.282 77.380, 183.774 79.395, 188.396 80.129, 189.461 82.774, 190.390 82.792, 190.396 85.633, 191.393 86.980, 192.264 87.695, 192.727 88.784, 194.513 90.574, 197.936 94.546, 201.489 94.836, 201.737 95.330, 201.815 99.933, 202.093 101.322, 202.177 101.540, 202.348 " />
            <path fill="none" stroke-width="3.0" stroke-linecap="butt" stroke-opacity="1.0" stroke="rgb(0, 0, 0)" stroke-linejoin="round" d=" M 99.933, 202.093 101.543, 203.107 101.605, 203.142 " />
            <path fill="none" stroke-width="3.0" stroke-linecap="butt" stroke-opacity="1.0" stroke="rgb(0, 0, 0)" stroke-linejoin="round" d=" M 107.943, 133.199 107.820, 133.236 105.560, 136.262 104.077, 138.194 103.685, 140.732 103.064, 144.695 104.172, 150.537 104.303, 151.202 107.467, 155.491 107.736, 155.856 107.875, 156.030 112.345, 157.250 112.698, 157.347 113.620, 157.555 114.148, 157.675 120.476, 155.765 " />
            <path fill="none" stroke-width="3.0" stroke-linecap="butt" stroke-opacity="1.0" stroke="rgb(0, 0, 0)" stroke-linejoin="round" d=" M 141.254, 126.838 139.573, 130.091 " />
            <path fill="none" stroke-width="3.0" stroke-linecap="butt" stroke-opacity="1.0" stroke="rgb(0, 0, 0)" stroke-linejoin="round" d=" M 164.141, 194.271 165.737, 191.437 166.304, 190.626 166.607, 190.192 167.324, 189.852 173.693, 186.833 173.902, 186.673 175.404, 182.311 176.122, 181.359 177.458, 177.613 178.021, 176.174 178.233, 173.113 178.293, 171.667 178.311, 171.255 174.544, 161.992 174.337, 161.484 170.762, 165.095 164.972, 173.248 163.385, 175.481 158.205, 177.869 157.156, 178.894 " />
            <path fill="none" stroke-width="3.0" stroke-linecap="butt" stroke-opacity="1.0" stroke="rgb(0, 0, 0)" stroke-linejoin="round" d=" M 178.293, 171.667 179.341, 169.808 180.051, 164.491 180.853, 154.523 180.891, 154.050 183.633, 149.690 184.701, 147.236 186.112, 141.800 184.773, 137.974 181.471, 128.535 181.298, 128.040 181.210, 127.834 181.249, 127.572 182.411, 121.362 " />
            <path fill="none" stroke-width="3.0" stroke-linecap="butt" stroke-opacity="1.0" stroke="rgb(0, 0, 0)" stroke-linejoin="round" d=" M 184.674, 118.682 184.058, 117.682 " />
            <path fill="none" stroke-width="3.0" stroke-linecap="butt" stroke-opacity="1.0" stroke="rgb(0, 0, 0)" stroke-linejoin="round" d=" M 184.773, 137.974 185.673, 134.506 186.802, 129.287 186.430, 126.841 185.742, 122.960 " />
            <path fill="none" stroke-width="3.0" stroke-linecap="butt" stroke-opacity="1.0" stroke="rgb(0, 0, 0)" stroke-linejoin="round" d=" M 183.744, 118.061 184.058, 117.682 188.510, 112.306 189.891, 109.739 193.234, 100.314 196.029, 92.433 196.303, 89.119 197.370, 84.889 193.949, 75.493 190.529, 66.096 189.177, 62.381 187.715, 60.371 185.707, 57.162 178.369, 50.368 175.283, 47.510 167.853, 40.704 " />
            <path fill="none" stroke-width="3.0" stroke-linecap="butt" stroke-opacity="1.0" stroke="rgb(0, 0, 0)" stroke-linejoin="round" d=" M 180.564, 120.476 182.411, 121.362 185.742, 122.960 191.337, 125.643 " />
        </g>
    </g>
</svg>
