<?xml version='1.0' encoding='ascii'?>
<svg xmlns="http://www.w3.org/2000/svg" version="1.1" width="250" height="250">
    <g id="ViewLayer_LineSet" xmlns:inkscape="http://www.inkscape.org/namespaces/inkscape" inkscape:groupmode="lineset" inkscape:label="ViewLayer_LineSet">
        <g xmlns:inkscape="http://www.inkscape.org/namespaces/inkscape" inkscape:groupmode="layer" id="strokes" inkscape:label="strokes">
            <path fill="none" stroke-width="3.0" stroke-linecap="butt" stroke-opacity="1.0" stroke="rgb(0, 0, 0)" stroke-linejoin="round" d=" M 119.987, 111.778 120.476, 111.152 123.135, 108.687 " />
            <path fill="none" stroke-width="3.0" stroke-linecap="butt" stroke-opacity="1.0" stroke="rgb(0, 0, 0)" stroke-linejoin="round" d=" M 98.417, 122.182 95.338, 122.984 92.351, 124.007 91.978, 124.592 90.996, 126.100 90.173, 128.923 89.964, 129.469 90.075, 134.632 90.094, 135.879 90.398, 137.249 91.544, 142.244 92.072, 143.062 94.449, 147.480 94.670, 147.598 95.203, 148.084 95.213, 148.093 95.249, 148.102 98.376, 148.932 100.807, 149.440 " />
            <path fill="none" stroke-width="3.0" stroke-linecap="butt" stroke-opacity="1.0" stroke="rgb(0, 0, 0)" stroke-linejoin="round" d=" M 125.617, 150.230 127.859, 150.766 128.053, 150.813 131.633, 149.602 134.257, 148.572 135.556, 146.488 137.490, 143.319 137.804, 140.308 138.098, 136.268 137.356, 132.856 136.516, 129.408 134.758, 127.327 132.379, 124.501 130.879, 124.151 127.877, 123.473 " />
            <path fill="none" stroke-width="3.0" stroke-linecap="butt" stroke-opacity="1.0" stroke="rgb(0, 0, 0)" stroke-linejoin="round" d=" M 191.380, 124.473 192.701, 123.199 199.277, 115.665 202.396, 112.092 203.286, 102.790 200.136, 93.299 199.042, 90.003 197.443, 80.131 197.377, 79.720 191.932, 71.332 186.487, 62.944 185.186, 60.939 179.991, 55.827 177.899, 52.165 170.003, 46.029 163.682, 41.117 155.705, 35.086 153.178, 33.176 143.886, 29.480 140.983, 28.326 131.398, 28.242 121.403, 28.569 111.408, 28.896 101.996, 29.204 96.501, 29.507 91.071, 29.848 82.372, 34.780 78.009, 37.254 74.916, 39.746 73.675, 40.970 68.684, 49.635 65.015, 56.004 59.343, 64.239 59.036, 64.683 56.522, 74.362 56.160, 75.753 57.443, 85.670 57.664, 87.377 58.151, 94.485 59.666, 100.000 " />
            <path fill="none" stroke-width="3.0" stroke-linecap="butt" stroke-opacity="1.0" stroke="rgb(0, 0, 0)" stroke-linejoin="round" d=" M 64.954, 109.506 65.836, 107.615 " />
            <path fill="none" stroke-width="3.0" stroke-linecap="butt" stroke-opacity="1.0" stroke="rgb(0, 0, 0)" stroke-linejoin="round" d=" M 190.856, 149.320 191.462, 147.219 190.218, 141.773 187.654, 133.395 188.499, 129.830 189.343, 126.271 188.622, 129.532 188.499, 129.830 " />
            <path fill="none" stroke-width="3.0" stroke-linecap="butt" stroke-opacity="1.0" stroke="rgb(0, 0, 0)" stroke-linejoin="round" d=" M 132.749, 203.702 133.595, 202.984 138.016, 199.227 138.826, 198.539 " />
            <path fill="none" stroke-width="3.0" stroke-linecap="butt" stroke-opacity="1.0" stroke="rgb(0, 0, 0)" stroke-linejoin="round" d=" M 70.688, 117.922 74.230, 111.762 78.021, 107.271 85.161, 104.753 88.964, 105.543 " />
            <path fill="none" stroke-width="3.0" stroke-linecap="butt" stroke-opacity="1.0" stroke="rgb(0, 0, 0)" stroke-linejoin="round" d=" M 102.408, 117.928 99.439, 110.763 95.803, 102.565 " />
            <path fill="none" stroke-width="3.0" stroke-linecap="butt" stroke-opacity="1.0" stroke="rgb(0, 0, 0)" stroke-linejoin="round" d=" M 125.813, 106.216 135.700, 104.717 136.040, 104.665 145.712, 107.209 146.168, 107.329 151.874, 112.160 157.364, 118.790 156.931, 110.152 152.766, 103.393 " />
            <path fill="none" stroke-width="3.0" stroke-linecap="butt" stroke-opacity="1.0" stroke="rgb(0, 0, 0)" stroke-linejoin="round" d=" M 122.527, 101.094 117.056, 108.112 115.652, 117.748 " />
            <path fill="none" stroke-width="3.0" stroke-linecap="butt" stroke-opacity="1.0" stroke="rgb(0, 0, 0)" stroke-linejoin="round" d=" M 125.978, 123.016 122.154, 124.582 " />
            <path fill="none" stroke-width="3.0" stroke-linecap="butt" stroke-opacity="1.0" stroke="rgb(0, 0, 0)" stroke-linejoin="round" d=" M 124.624, 114.955 122.138, 120.276 122.154, 124.582 " />
            <path fill="none" stroke-width="3.0" stroke-linecap="butt" stroke-opacity="1.0" stroke="rgb(0, 0, 0)" stroke-linejoin="round" d=" M 92.248, 113.712 87.908, 117.857 85.731, 125.290 86.442, 135.098 88.439, 142.373 93.153, 147.258 95.203, 148.084 " />
            <path fill="none" stroke-width="3.0" stroke-linecap="butt" stroke-opacity="1.0" stroke="rgb(0, 0, 0)" stroke-linejoin="round" d=" M 128.162, 150.946 137.941, 148.855 139.033, 148.621 143.876, 143.541 146.318, 136.157 145.813, 126.170 145.803, 125.972 141.669, 117.799 " />
            <path fill="none" stroke-width="3.0" stroke-linecap="butt" stroke-opacity="1.0" stroke="rgb(0, 0, 0)" stroke-linejoin="round" d=" M 146.426, 202.140 148.819, 201.009 149.539, 200.632 153.364, 199.386 153.939, 197.243 163.610, 194.702 168.765, 193.347 171.897, 189.270 177.525, 181.005 179.551, 178.029 181.951, 172.110 182.362, 170.143 184.049, 163.196 184.670, 160.639 182.095, 160.247 181.353, 160.134 " />
            <path fill="none" stroke-width="3.0" stroke-linecap="butt" stroke-opacity="1.0" stroke="rgb(0, 0, 0)" stroke-linejoin="round" d=" M 184.049, 163.196 191.771, 164.127 192.010, 164.084 192.266, 163.918 198.868, 156.407 199.958, 155.167 202.408, 152.979 204.645, 144.794 205.087, 141.271 204.206, 136.539 201.080, 128.404 200.463, 127.315 198.610, 125.489 192.306, 124.365 191.687, 124.376 191.561, 124.440 191.380, 124.473 " />
            <path fill="none" stroke-width="3.0" stroke-linecap="butt" stroke-opacity="1.0" stroke="rgb(0, 0, 0)" stroke-linejoin="round" d=" M 67.461, 102.179 59.666, 100.000 58.939, 99.797 58.874, 100.030 57.778, 100.484 56.318, 101.140 49.727, 108.287 59.701, 107.571 61.707, 107.427 66.069, 107.114 68.126, 106.967 65.836, 107.615 65.660, 107.665 63.957, 111.120 64.954, 109.506 " />
            <path fill="none" stroke-width="3.0" stroke-linecap="butt" stroke-opacity="1.0" stroke="rgb(0, 0, 0)" stroke-linejoin="round" d=" M 144.568, 198.322 144.570, 200.138 138.293, 200.233 139.090, 199.158 138.016, 199.227 " />
            <path fill="none" stroke-width="3.0" stroke-linecap="butt" stroke-opacity="1.0" stroke="rgb(0, 0, 0)" stroke-linejoin="round" d=" M 186.126, 157.477 190.856, 149.320 " />
            <path fill="none" stroke-width="3.0" stroke-linecap="butt" stroke-opacity="1.0" stroke="rgb(0, 0, 0)" stroke-linejoin="round" d=" M 96.542, 151.332 92.009, 151.993 84.023, 158.012 83.751, 158.218 75.253, 163.488 75.138, 163.559 74.649, 164.406 72.960, 167.331 70.818, 168.997 72.053, 173.881 70.750, 177.526 70.615, 177.901 70.371, 181.651 70.172, 184.713 71.864, 190.361 77.931, 196.440 82.279, 201.505 86.392, 202.872 95.493, 204.889 99.344, 205.355 102.781, 205.770 112.445, 205.342 120.883, 204.586 120.912, 204.568 120.970, 204.538 121.178, 204.249 121.739, 203.473 122.037, 203.061 127.892, 194.954 130.887, 190.807 131.643, 186.977 133.154, 179.314 133.345, 178.346 133.034, 179.283 " />
            <path fill="none" stroke-width="3.0" stroke-linecap="butt" stroke-opacity="1.0" stroke="rgb(0, 0, 0)" stroke-linejoin="round" d=" M 61.707, 107.427 62.464, 110.181 64.547, 114.762 68.591, 120.543 68.719, 123.541 69.981, 124.563 70.415, 124.914 69.917, 129.271 68.024, 132.163 65.439, 136.113 62.908, 141.234 62.921, 146.344 63.294, 147.692 63.569, 148.699 66.206, 152.798 65.994, 155.468 " />
            <path fill="none" stroke-width="3.0" stroke-linecap="butt" stroke-opacity="1.0" stroke="rgb(0, 0, 0)" stroke-linejoin="round" d=" M 74.649, 164.406 74.557, 164.282 69.421, 155.702 67.282, 152.129 66.053, 155.322 65.994, 155.468 62.903, 163.025 62.967, 166.916 62.951, 168.328 64.065, 172.521 64.446, 173.840 65.940, 179.079 66.203, 179.535 70.371, 181.651 " />
            <path fill="none" stroke-width="3.0" stroke-linecap="butt" stroke-opacity="1.0" stroke="rgb(0, 0, 0)" stroke-linejoin="round" d=" M 69.981, 124.563 67.973, 127.458 68.337, 130.170 68.024, 132.163 " />
            <path fill="none" stroke-width="3.0" stroke-linecap="butt" stroke-opacity="1.0" stroke="rgb(0, 0, 0)" stroke-linejoin="round" d=" M 73.291, 103.359 72.280, 103.979 70.152, 107.454 68.947, 109.520 70.661, 114.275 " />
            <path fill="none" stroke-width="3.0" stroke-linecap="butt" stroke-opacity="1.0" stroke="rgb(0, 0, 0)" stroke-linejoin="round" d=" M 88.964, 105.543 91.433, 105.984 91.490, 106.067 93.277, 108.657 94.586, 110.696 99.837, 114.650 " />
            <path fill="none" stroke-width="3.0" stroke-linecap="butt" stroke-opacity="1.0" stroke="rgb(0, 0, 0)" stroke-linejoin="round" d=" M 95.249, 148.102 100.416, 150.183 " />
            <path fill="none" stroke-width="3.0" stroke-linecap="butt" stroke-opacity="1.0" stroke="rgb(0, 0, 0)" stroke-linejoin="round" d=" M 99.344, 205.355 100.896, 206.460 107.867, 211.009 109.554, 212.066 117.573, 214.421 118.722, 214.697 119.781, 214.644 128.648, 213.739 128.914, 213.636 138.019, 209.501 138.142, 209.446 138.985, 209.008 142.617, 204.627 146.297, 200.039 147.722, 201.381 " />
            <path fill="none" stroke-width="3.0" stroke-linecap="butt" stroke-opacity="1.0" stroke="rgb(0, 0, 0)" stroke-linejoin="round" d=" M 100.861, 118.478 101.905, 120.845 101.915, 121.015 101.992, 122.325 102.047, 123.188 " />
            <path fill="none" stroke-width="3.0" stroke-linecap="butt" stroke-opacity="1.0" stroke="rgb(0, 0, 0)" stroke-linejoin="round" d=" M 100.861, 118.478 99.822, 115.977 " />
            <path fill="none" stroke-width="3.0" stroke-linecap="butt" stroke-opacity="1.0" stroke="rgb(0, 0, 0)" stroke-linejoin="round" d=" M 121.178, 204.249 123.089, 204.912 125.829, 204.557 129.882, 203.994 " />
            <path fill="none" stroke-width="3.0" stroke-linecap="butt" stroke-opacity="1.0" stroke="rgb(0, 0, 0)" stroke-linejoin="round" d=" M 132.349, 113.354 134.386, 112.941 135.099, 113.340 141.669, 117.799 141.669, 117.799 141.672, 117.806 141.705, 117.872 " />
            <path fill="none" stroke-width="3.0" stroke-linecap="butt" stroke-opacity="1.0" stroke="rgb(0, 0, 0)" stroke-linejoin="round" d=" M 133.595, 202.984 137.524, 199.251 138.278, 198.534 138.824, 198.535 142.693, 198.539 144.568, 198.322 145.281, 198.239 147.876, 195.707 149.624, 194.156 151.007, 191.108 152.418, 188.124 157.958, 186.161 160.464, 184.658 161.717, 181.450 163.704, 179.020 164.470, 176.329 165.524, 173.170 165.407, 170.968 165.108, 167.453 160.243, 158.716 159.421, 157.240 158.576, 155.694 156.834, 157.334 150.359, 164.955 145.797, 170.325 136.404, 173.757 127.011, 177.189 126.713, 177.298 125.866, 177.680 " />
        </g>
    </g>
</svg>
