<?xml version='1.0' encoding='ascii'?>
<svg xmlns="http://www.w3.org/2000/svg" version="1.1" width="250" height="250">
    <g id="ViewLayer_LineSet" xmlns:inkscape="http://www.inkscape.org/namespaces/inkscape" inkscape:groupmode="lineset" inkscape:label="ViewLayer_LineSet">
        <g xmlns:inkscape="http://www.inkscape.org/namespaces/inkscape" inkscape:groupmode="layer" id="strokes" inkscape:label="strokes">
            <path fill="none" stroke-width="3.0" stroke-linecap="butt" stroke-opacity="1.0" stroke="rgb(0, 0, 0)" stroke-linejoin="round" d=" M 157.323, 81.482 153.071, 77.387 151.546, 76.880 142.121, 73.540 139.238, 72.518 " />
            <path fill="none" stroke-width="3.0" stroke-linecap="butt" stroke-opacity="1.0" stroke="rgb(0, 0, 0)" stroke-linejoin="round" d=" M 191.678, 129.734 199.109, 123.043 202.409, 120.072 202.807, 110.080 202.845, 109.114 200.768, 99.332 199.539, 93.544 198.801, 85.433 194.063, 76.627 189.325, 67.821 187.265, 63.992 182.173, 55.385 181.850, 54.840 179.755, 52.849 173.007, 45.469 170.169, 42.366 162.811, 35.594 162.697, 35.489 160.778, 33.694 151.812, 29.266 144.869, 25.837 139.906, 23.683 139.314, 23.762 129.348, 24.579 119.381, 25.395 109.415, 26.212 102.510, 26.778 99.330, 26.995 91.084, 32.653 86.004, 36.138 79.629, 41.331 74.159, 49.702 73.320, 50.985 67.280, 58.955 64.656, 62.416 62.085, 70.550 61.640, 78.501 " />
            <path fill="none" stroke-width="3.0" stroke-linecap="butt" stroke-opacity="1.0" stroke="rgb(0, 0, 0)" stroke-linejoin="round" d=" M 190.828, 149.835 191.217, 148.099 189.978, 143.688 187.361, 136.490 187.273, 136.248 188.822, 131.555 188.123, 134.809 187.361, 136.490 " />
            <path fill="none" stroke-width="3.0" stroke-linecap="butt" stroke-opacity="1.0" stroke="rgb(0, 0, 0)" stroke-linejoin="round" d=" M 103.557, 108.639 103.578, 108.661 103.578, 108.695 103.577, 108.757 103.503, 111.347 " />
            <path fill="none" stroke-width="3.0" stroke-linecap="butt" stroke-opacity="1.0" stroke="rgb(0, 0, 0)" stroke-linejoin="round" d=" M 81.506, 132.928 72.382, 137.023 72.165, 137.121 71.281, 137.518 70.209, 138.449 70.737, 145.764 69.604, 147.749 67.942, 150.660 66.631, 156.874 66.833, 159.255 67.353, 165.385 73.253, 173.459 75.675, 176.774 76.392, 177.900 79.067, 179.242 82.461, 179.882 87.756, 180.881 92.456, 181.572 98.583, 182.473 99.312, 182.581 101.835, 182.350 105.073, 182.054 107.205, 181.859 110.439, 180.967 119.436, 176.602 128.433, 172.236 128.887, 172.016 " />
            <path fill="none" stroke-width="3.0" stroke-linecap="butt" stroke-opacity="1.0" stroke="rgb(0, 0, 0)" stroke-linejoin="round" d=" M 120.283, 193.233 124.353, 193.057 129.361, 192.839 132.152, 190.637 132.832, 190.101 135.318, 188.140 136.106, 187.518 " />
            <path fill="none" stroke-width="3.0" stroke-linecap="butt" stroke-opacity="1.0" stroke="rgb(0, 0, 0)" stroke-linejoin="round" d=" M 80.825, 184.327 84.776, 189.100 85.627, 190.127 92.998, 191.536 " />
            <path fill="none" stroke-width="3.0" stroke-linecap="butt" stroke-opacity="1.0" stroke="rgb(0, 0, 0)" stroke-linejoin="round" d=" M 72.345, 106.085 76.629, 99.420 80.958, 94.370 88.446, 90.766 95.990, 91.155 " />
            <path fill="none" stroke-width="3.0" stroke-linecap="butt" stroke-opacity="1.0" stroke="rgb(0, 0, 0)" stroke-linejoin="round" d=" M 104.650, 101.870 102.369, 94.253 99.382, 87.022 94.601, 83.507 " />
            <path fill="none" stroke-width="3.0" stroke-linecap="butt" stroke-opacity="1.0" stroke="rgb(0, 0, 0)" stroke-linejoin="round" d=" M 125.814, 85.669 119.990, 92.030 117.884, 101.806 117.833, 102.041 123.033, 95.457 128.657, 91.128 138.719, 90.613 148.076, 94.141 148.438, 94.278 153.790, 99.520 158.896, 106.562 158.815, 98.100 " />
            <path fill="none" stroke-width="3.0" stroke-linecap="butt" stroke-opacity="1.0" stroke="rgb(0, 0, 0)" stroke-linejoin="round" d=" M 128.512, 140.164 138.494, 139.564 138.678, 139.553 143.907, 134.167 146.746, 126.779 146.802, 116.779 146.807, 115.901 143.180, 107.036 136.415, 101.482 126.578, 102.558 123.763, 107.635 123.477, 112.026 " />
            <path fill="none" stroke-width="3.0" stroke-linecap="butt" stroke-opacity="1.0" stroke="rgb(0, 0, 0)" stroke-linejoin="round" d=" M 101.765, 103.715 94.254, 102.658 89.347, 108.141 86.355, 116.201 86.077, 126.197 86.072, 126.384 87.041, 131.310 " />
            <path fill="none" stroke-width="3.0" stroke-linecap="butt" stroke-opacity="1.0" stroke="rgb(0, 0, 0)" stroke-linejoin="round" d=" M 173.118, 97.594 166.118, 90.453 159.117, 83.312 157.323, 81.482 " />
            <path fill="none" stroke-width="3.0" stroke-linecap="butt" stroke-opacity="1.0" stroke="rgb(0, 0, 0)" stroke-linejoin="round" d=" M 60.501, 94.151 61.461, 104.105 61.938, 109.044 63.403, 115.750 64.460, 117.247 68.103, 122.436 64.513, 117.712 68.326, 123.754 67.887, 127.044 69.373, 126.617 68.755, 129.959 62.295, 137.592 61.669, 138.331 60.148, 140.456 59.782, 146.904 59.985, 147.787 60.485, 148.289 " />
            <path fill="none" stroke-width="3.0" stroke-linecap="butt" stroke-opacity="1.0" stroke="rgb(0, 0, 0)" stroke-linejoin="round" d=" M 90.479, 199.864 90.463, 199.897 92.838, 204.114 93.279, 204.537 93.791, 204.916 102.468, 209.888 102.811, 210.084 111.275, 210.862 112.601, 212.833 " />
            <path fill="none" stroke-width="3.0" stroke-linecap="butt" stroke-opacity="1.0" stroke="rgb(0, 0, 0)" stroke-linejoin="round" d=" M 96.009, 69.067 86.014, 69.364 79.875, 69.546 78.306, 69.598 69.554, 74.436 65.449, 76.705 61.640, 78.501 57.723, 80.348 54.676, 89.872 54.193, 91.382 60.501, 94.151 65.330, 96.271 63.234, 98.078 62.855, 102.738 67.725, 102.633 " />
            <path fill="none" stroke-width="3.0" stroke-linecap="butt" stroke-opacity="1.0" stroke="rgb(0, 0, 0)" stroke-linejoin="round" d=" M 132.152, 190.637 132.739, 190.732 133.922, 190.357 134.979, 190.117 135.382, 190.026 135.332, 190.376 135.249, 190.952 134.756, 190.882 134.189, 190.802 134.851, 190.555 135.332, 190.376 135.701, 190.238 134.245, 192.632 134.756, 190.882 " />
            <path fill="none" stroke-width="3.0" stroke-linecap="butt" stroke-opacity="1.0" stroke="rgb(0, 0, 0)" stroke-linejoin="round" d=" M 187.370, 155.138 190.828, 149.835 " />
            <path fill="none" stroke-width="3.0" stroke-linecap="butt" stroke-opacity="1.0" stroke="rgb(0, 0, 0)" stroke-linejoin="round" d=" M 65.329, 140.440 64.800, 139.535 62.034, 145.307 60.485, 148.289 59.440, 150.301 59.027, 154.426 58.825, 155.984 59.436, 160.126 59.729, 161.790 60.552, 166.055 61.230, 167.394 62.472, 167.985 65.614, 169.481 67.451, 171.033 68.409, 173.338 69.912, 177.838 72.582, 181.221 73.657, 182.518 76.575, 183.223 80.025, 183.501 80.825, 184.327 83.262, 186.846 84.776, 189.100 " />
            <path fill="none" stroke-width="3.0" stroke-linecap="butt" stroke-opacity="1.0" stroke="rgb(0, 0, 0)" stroke-linejoin="round" d=" M 62.472, 167.985 63.208, 170.265 63.890, 175.696 69.078, 184.246 69.738, 185.333 78.530, 190.096 85.759, 194.012 88.249, 198.623 90.479, 199.864 " />
            <path fill="none" stroke-width="3.0" stroke-linecap="butt" stroke-opacity="1.0" stroke="rgb(0, 0, 0)" stroke-linejoin="round" d=" M 129.303, 171.778 131.594, 162.044 132.299, 159.050 132.714, 157.290 132.744, 157.168 132.741, 157.132 132.734, 157.064 132.697, 156.968 130.669, 147.176 129.869, 143.314 129.334, 140.727 128.512, 140.164 127.527, 139.490 125.931, 138.396 120.069, 133.030 119.834, 132.815 119.783, 132.768 118.136, 132.418 108.355, 130.336 108.095, 130.281 106.576, 129.958 103.451, 129.469 102.983, 129.513 95.943, 130.182 92.426, 130.628 90.563, 130.864 87.041, 131.310 84.582, 131.622 81.506, 132.928 " />
            <path fill="none" stroke-width="3.0" stroke-linecap="butt" stroke-opacity="1.0" stroke="rgb(0, 0, 0)" stroke-linejoin="round" d=" M 96.778, 91.976 98.690, 94.498 101.281, 97.120 " />
            <path fill="none" stroke-width="3.0" stroke-linecap="butt" stroke-opacity="1.0" stroke="rgb(0, 0, 0)" stroke-linejoin="round" d=" M 96.039, 190.212 101.213, 193.383 109.647, 194.553 117.712, 195.835 122.123, 194.215 124.353, 193.057 " />
            <path fill="none" stroke-width="3.0" stroke-linecap="butt" stroke-opacity="1.0" stroke="rgb(0, 0, 0)" stroke-linejoin="round" d=" M 102.220, 111.043 98.871, 110.162 97.278, 110.615 94.546, 111.656 93.521, 112.614 93.212, 112.802 91.049, 117.378 90.652, 118.164 90.050, 123.506 89.942, 124.625 90.064, 125.749 90.563, 130.864 " />
            <path fill="none" stroke-width="3.0" stroke-linecap="butt" stroke-opacity="1.0" stroke="rgb(0, 0, 0)" stroke-linejoin="round" d=" M 99.513, 188.700 104.721, 186.469 105.142, 186.289 105.345, 186.313 106.376, 186.507 109.685, 187.761 114.767, 190.344 115.101, 190.514 " />
            <path fill="none" stroke-width="3.0" stroke-linecap="butt" stroke-opacity="1.0" stroke="rgb(0, 0, 0)" stroke-linejoin="round" d=" M 102.948, 130.696 105.360, 129.927 106.580, 130.029 108.088, 130.346 117.874, 132.403 118.166, 132.464 119.834, 132.815 119.934, 132.836 120.069, 133.030 121.383, 134.917 124.882, 138.691 " />
            <path fill="none" stroke-width="3.0" stroke-linecap="butt" stroke-opacity="1.0" stroke="rgb(0, 0, 0)" stroke-linejoin="round" d=" M 112.601, 212.833 118.891, 215.832 124.978, 213.683 134.865, 212.189 136.182, 211.990 137.976, 211.363 146.746, 206.557 147.372, 206.214 155.321, 202.516 163.316, 196.509 166.110, 194.410 173.256, 187.672 177.630, 181.176 178.025, 180.192 180.771, 173.353 181.318, 171.991 181.386, 171.634 181.826, 169.326 183.701, 162.352 180.386, 162.850 " />
            <path fill="none" stroke-width="3.0" stroke-linecap="butt" stroke-opacity="1.0" stroke="rgb(0, 0, 0)" stroke-linejoin="round" d=" M 129.869, 143.314 130.371, 143.734 132.118, 153.580 132.745, 157.115 132.741, 157.132 132.289, 159.054 130.003, 168.789 129.304, 171.761 129.303, 171.778 " />
            <path fill="none" stroke-width="3.0" stroke-linecap="butt" stroke-opacity="1.0" stroke="rgb(0, 0, 0)" stroke-linejoin="round" d=" M 132.175, 138.129 133.079, 137.859 133.507, 137.718 133.603, 137.686 135.881, 134.510 137.487, 132.219 138.118, 128.819 138.692, 124.921 138.103, 120.433 137.689, 117.697 135.337, 114.301 134.066, 112.464 130.669, 111.413 127.741, 110.576 123.477, 112.026 " />
            <path fill="none" stroke-width="3.0" stroke-linecap="butt" stroke-opacity="1.0" stroke="rgb(0, 0, 0)" stroke-linejoin="round" d=" M 127.527, 139.490 132.175, 138.129 133.489, 137.744 " />
            <path fill="none" stroke-width="3.0" stroke-linecap="butt" stroke-opacity="1.0" stroke="rgb(0, 0, 0)" stroke-linejoin="round" d=" M 132.832, 190.101 135.161, 187.684 135.820, 187.000 135.866, 187.002 138.487, 187.104 143.365, 186.560 145.610, 184.365 148.049, 182.172 149.380, 179.319 151.345, 175.306 156.182, 173.802 159.707, 171.941 160.920, 169.158 163.366, 166.353 164.127, 163.788 165.301, 160.247 165.190, 157.765 164.878, 154.123 160.587, 145.905 158.694, 142.114 153.836, 146.019 146.809, 153.134 145.145, 154.820 135.646, 157.948 132.299, 159.050 " />
            <path fill="none" stroke-width="3.0" stroke-linecap="butt" stroke-opacity="1.0" stroke="rgb(0, 0, 0)" stroke-linejoin="round" d=" M 178.025, 180.192 178.334, 179.907 182.428, 175.844 180.771, 173.353 " />
            <path fill="none" stroke-width="3.0" stroke-linecap="butt" stroke-opacity="1.0" stroke="rgb(0, 0, 0)" stroke-linejoin="round" d=" M 181.386, 171.634 183.415, 172.485 190.260, 171.891 196.739, 168.814 199.873, 165.100 201.642, 163.831 203.815, 155.148 204.263, 151.692 203.247, 146.894 200.651, 139.660 199.620, 137.070 195.252, 132.795 192.585, 131.903 190.620, 131.401 191.678, 129.734 " />
        </g>
    </g>
</svg>
