<?xml version='1.0' encoding='ascii'?>
<svg xmlns="http://www.w3.org/2000/svg" version="1.1" width="250" height="250">
    <g id="ViewLayer_LineSet" xmlns:inkscape="http://www.inkscape.org/namespaces/inkscape" inkscape:groupmode="lineset" inkscape:label="ViewLayer_LineSet">
        <g xmlns:inkscape="http://www.inkscape.org/namespaces/inkscape" inkscape:groupmode="layer" id="strokes" inkscape:label="strokes">
            <path fill="none" stroke-width="3.0" stroke-linecap="butt" stroke-opacity="1.0" stroke="rgb(0, 0, 0)" stroke-linejoin="round" d=" M 141.533, 156.508 146.228, 157.292 146.406, 157.237 146.671, 157.119 150.173, 154.217 151.029, 153.653 152.028, 152.109 153.193, 150.307 153.890, 149.294 155.399, 144.497 155.692, 143.524 155.662, 142.734 155.766, 137.478 155.729, 137.391 155.685, 137.116 153.544, 134.744 152.084, 133.223 151.353, 133.102 150.791, 133.010 149.915, 132.856 " />
            <path fill="none" stroke-width="3.0" stroke-linecap="butt" stroke-opacity="1.0" stroke="rgb(0, 0, 0)" stroke-linejoin="round" d=" M 197.377, 126.614 197.377, 126.613 191.237, 121.471 188.153, 119.275 187.112, 118.528 186.831, 118.246 186.692, 118.509 182.498, 116.734 " />
            <path fill="none" stroke-width="3.0" stroke-linecap="butt" stroke-opacity="1.0" stroke="rgb(0, 0, 0)" stroke-linejoin="round" d=" M 173.733, 43.151 165.089, 38.122 163.583, 37.246 153.602, 36.636 149.760, 36.401 139.770, 35.947 136.781, 35.811 126.791, 35.377 121.145, 35.132 111.150, 34.838 103.223, 34.605 99.434, 35.906 90.930, 41.168 82.426, 46.430 81.665, 46.901 73.352, 52.459 72.796, 52.831 67.915, 59.811 60.140, 66.100 57.496, 68.239 51.649, 76.351 51.271, 76.874 49.212, 86.660 49.043, 87.462 45.026, 96.620 44.909, 96.887 46.815, 106.704 46.956, 107.430 53.553, 114.945 54.165, 115.641 57.143, 118.470 56.722, 118.607 56.216, 118.363 49.721, 117.817 47.853, 117.762 47.708, 117.943 47.642, 118.029 44.276, 127.299 43.573, 131.643 44.071, 135.380 46.075, 142.706 49.093, 145.769 55.504, 153.444 55.633, 153.597 60.540, 154.844 " />
            <path fill="none" stroke-width="3.0" stroke-linecap="butt" stroke-opacity="1.0" stroke="rgb(0, 0, 0)" stroke-linejoin="round" d=" M 73.239, 125.998 73.239, 125.998 76.237, 123.926 74.709, 123.358 71.796, 124.395 72.880, 124.573 74.392, 125.167 73.239, 125.998 73.239, 125.998 " />
            <path fill="none" stroke-width="3.0" stroke-linecap="butt" stroke-opacity="1.0" stroke="rgb(0, 0, 0)" stroke-linejoin="round" d=" M 153.899, 166.866 153.898, 166.866 152.260, 166.137 " />
            <path fill="none" stroke-width="3.0" stroke-linecap="butt" stroke-opacity="1.0" stroke="rgb(0, 0, 0)" stroke-linejoin="round" d=" M 151.316, 133.042 146.687, 132.428 143.744, 134.032 " />
            <path fill="none" stroke-width="3.0" stroke-linecap="butt" stroke-opacity="1.0" stroke="rgb(0, 0, 0)" stroke-linejoin="round" d=" M 99.959, 134.464 99.402, 143.133 101.707, 150.260 106.455, 154.583 111.590, 156.301 " />
            <path fill="none" stroke-width="3.0" stroke-linecap="butt" stroke-opacity="1.0" stroke="rgb(0, 0, 0)" stroke-linejoin="round" d=" M 123.935, 132.264 121.623, 127.002 " />
            <path fill="none" stroke-width="3.0" stroke-linecap="butt" stroke-opacity="1.0" stroke="rgb(0, 0, 0)" stroke-linejoin="round" d=" M 152.028, 152.109 156.782, 147.845 159.590, 141.110 161.271, 132.577 159.644, 125.989 " />
            <path fill="none" stroke-width="3.0" stroke-linecap="butt" stroke-opacity="1.0" stroke="rgb(0, 0, 0)" stroke-linejoin="round" d=" M 57.974, 120.531 58.086, 120.666 58.103, 120.773 59.899, 130.149 58.214, 137.346 56.633, 144.869 57.169, 148.267 60.540, 154.844 61.190, 156.111 62.345, 157.204 63.122, 159.138 63.328, 163.864 64.753, 169.395 65.038, 170.423 66.295, 174.340 69.714, 179.305 75.648, 187.355 77.148, 189.391 86.807, 191.983 87.952, 192.290 91.500, 193.866 " />
            <path fill="none" stroke-width="3.0" stroke-linecap="butt" stroke-opacity="1.0" stroke="rgb(0, 0, 0)" stroke-linejoin="round" d=" M 109.516, 187.972 109.315, 187.773 109.985, 185.052 109.516, 187.972 109.464, 188.296 109.420, 188.819 109.210, 190.688 109.727, 195.359 110.071, 198.462 110.208, 199.395 111.325, 206.979 111.365, 207.248 111.457, 207.624 111.554, 208.015 112.177, 210.550 120.080, 215.089 124.698, 218.025 128.786, 218.710 133.852, 218.872 143.828, 218.185 150.711, 217.712 153.873, 217.205 155.508, 216.773 162.273, 209.965 166.972, 206.146 169.576, 200.593 171.367, 190.828 171.231, 190.498 169.772, 188.645 168.923, 187.566 166.567, 184.574 163.048, 176.932 162.318, 175.346 157.665, 171.218 153.901, 166.868 153.901, 166.867 " />
            <path fill="none" stroke-width="3.0" stroke-linecap="butt" stroke-opacity="1.0" stroke="rgb(0, 0, 0)" stroke-linejoin="round" d=" M 109.131, 182.881 99.738, 179.451 98.088, 178.849 95.324, 176.030 89.442, 167.826 84.383, 166.410 79.652, 174.581 79.554, 176.368 79.317, 179.698 79.971, 182.022 80.985, 184.944 82.891, 189.206 83.882, 190.642 89.163, 192.363 91.448, 193.772 91.500, 193.866 92.530, 195.750 94.044, 198.850 97.843, 202.210 98.298, 202.598 99.039, 202.694 100.732, 202.746 104.851, 202.873 108.335, 205.480 110.090, 206.795 " />
            <path fill="none" stroke-width="3.0" stroke-linecap="butt" stroke-opacity="1.0" stroke="rgb(0, 0, 0)" stroke-linejoin="round" d=" M 99.959, 134.464 99.957, 134.156 99.976, 134.010 99.989, 133.990 " />
            <path fill="none" stroke-width="3.0" stroke-linecap="butt" stroke-opacity="1.0" stroke="rgb(0, 0, 0)" stroke-linejoin="round" d=" M 100.732, 202.746 101.983, 203.569 102.221, 203.722 106.470, 205.870 111.554, 208.015 " />
            <path fill="none" stroke-width="3.0" stroke-linecap="butt" stroke-opacity="1.0" stroke="rgb(0, 0, 0)" stroke-linejoin="round" d=" M 112.283, 133.796 109.630, 137.253 108.527, 138.650 107.897, 142.047 107.301, 145.170 108.028, 149.857 108.319, 151.666 111.212, 155.792 111.590, 156.301 111.719, 156.475 114.057, 157.126 116.324, 157.758 117.094, 157.943 " />
            <path fill="none" stroke-width="3.0" stroke-linecap="butt" stroke-opacity="1.0" stroke="rgb(0, 0, 0)" stroke-linejoin="round" d=" M 143.744, 134.032 143.946, 132.618 144.271, 130.073 144.793, 129.121 " />
            <path fill="none" stroke-width="3.0" stroke-linecap="butt" stroke-opacity="1.0" stroke="rgb(0, 0, 0)" stroke-linejoin="round" d=" M 169.772, 188.645 174.208, 186.359 176.040, 184.286 177.108, 181.057 177.534, 180.478 179.039, 176.413 179.460, 175.364 179.825, 172.016 179.934, 170.546 178.789, 167.275 176.544, 160.861 170.327, 168.693 169.942, 169.179 166.190, 174.682 164.666, 175.447 163.048, 176.932 " />
            <path fill="none" stroke-width="3.0" stroke-linecap="butt" stroke-opacity="1.0" stroke="rgb(0, 0, 0)" stroke-linejoin="round" d=" M 178.789, 167.275 178.904, 166.493 178.925, 156.493 178.932, 153.158 181.774, 147.661 181.990, 147.117 183.498, 140.873 180.073, 131.632 " />
            <path fill="none" stroke-width="3.0" stroke-linecap="butt" stroke-opacity="1.0" stroke="rgb(0, 0, 0)" stroke-linejoin="round" d=" M 181.807, 116.502 187.004, 107.959 187.927, 106.442 191.883, 97.258 192.021, 96.938 193.413, 90.632 195.934, 82.049 193.402, 72.375 192.055, 67.227 188.747, 61.977 184.688, 54.300 178.623, 48.160 173.733, 43.151 " />
        </g>
    </g>
</svg>
