<?xml version='1.0' encoding='ascii'?>
<svg xmlns="http://www.w3.org/2000/svg" version="1.1" width="250" height="250">
    <g id="ViewLayer_LineSet" xmlns:inkscape="http://www.inkscape.org/namespaces/inkscape" inkscape:groupmode="lineset" inkscape:label="ViewLayer_LineSet">
        <g xmlns:inkscape="http://www.inkscape.org/namespaces/inkscape" inkscape:groupmode="layer" id="strokes" inkscape:label="strokes">
            <path fill="none" stroke-width="3.0" stroke-linecap="butt" stroke-opacity="1.0" stroke="rgb(0, 0, 0)" stroke-linejoin="round" d=" M 144.974, 200.062 147.998, 197.150 150.392, 194.844 150.569, 194.674 153.449, 194.520 155.058, 194.433 157.473, 194.007 160.271, 191.034 161.675, 189.673 163.387, 185.909 164.771, 183.258 170.633, 180.804 172.443, 179.567 173.661, 175.890 175.081, 173.927 175.997, 170.502 176.730, 168.065 176.615, 164.977 176.442, 162.375 172.241, 154.011 170.802, 151.005 168.292, 153.566 166.840, 155.482 166.548, 155.867 160.507, 163.836 159.524, 165.133 151.908, 168.313 " />
            <path fill="none" stroke-width="3.0" stroke-linecap="butt" stroke-opacity="1.0" stroke="rgb(0, 0, 0)" stroke-linejoin="round" d=" M 103.482, 200.836 109.098, 201.857 111.405, 201.278 113.929, 200.431 " />
            <path fill="none" stroke-width="3.0" stroke-linecap="butt" stroke-opacity="1.0" stroke="rgb(0, 0, 0)" stroke-linejoin="round" d=" M 185.130, 107.200 185.130, 107.199 177.684, 100.524 175.584, 98.642 172.750, 96.723 " />
            <path fill="none" stroke-width="3.0" stroke-linecap="butt" stroke-opacity="1.0" stroke="rgb(0, 0, 0)" stroke-linejoin="round" d=" M 188.574, 119.724 193.862, 113.585 195.673, 103.751 197.484, 93.916 198.341, 89.261 198.134, 88.059 198.178, 87.173 196.375, 83.190 192.022, 74.187 187.669, 65.184 183.775, 57.129 180.848, 53.929 174.635, 46.093 173.051, 44.095 166.531, 38.030 163.690, 35.318 154.713, 30.912 146.845, 27.051 141.644, 26.827 131.644, 26.842 121.644, 26.857 111.644, 26.872 109.039, 26.876 104.331, 26.896 99.507, 27.115 90.581, 31.625 82.318, 35.800 80.402, 37.674 76.187, 41.663 70.094, 49.592 66.738, 53.959 63.085, 58.062 58.982, 67.181 54.878, 76.301 50.775, 85.420 50.260, 86.565 50.231, 87.651 50.098, 88.333 50.332, 90.459 52.363, 100.251 54.395, 110.042 55.113, 113.500 59.461, 118.634 64.789, 125.281 64.318, 125.311 " />
            <path fill="none" stroke-width="3.0" stroke-linecap="butt" stroke-opacity="1.0" stroke="rgb(0, 0, 0)" stroke-linejoin="round" d=" M 138.640, 148.683 138.641, 148.684 140.704, 152.188 145.802, 157.845 148.740, 167.403 149.060, 168.444 148.405, 169.776 " />
            <path fill="none" stroke-width="3.0" stroke-linecap="butt" stroke-opacity="1.0" stroke="rgb(0, 0, 0)" stroke-linejoin="round" d=" M 144.507, 200.504 148.051, 197.151 150.423, 194.907 " />
            <path fill="none" stroke-width="3.0" stroke-linecap="butt" stroke-opacity="1.0" stroke="rgb(0, 0, 0)" stroke-linejoin="round" d=" M 77.950, 114.980 82.625, 108.372 87.538, 103.517 96.405, 100.574 105.223, 101.801 " />
            <path fill="none" stroke-width="3.0" stroke-linecap="butt" stroke-opacity="1.0" stroke="rgb(0, 0, 0)" stroke-linejoin="round" d=" M 115.846, 113.414 113.494, 105.973 109.295, 97.864 103.308, 93.558 " />
            <path fill="none" stroke-width="3.0" stroke-linecap="butt" stroke-opacity="1.0" stroke="rgb(0, 0, 0)" stroke-linejoin="round" d=" M 139.682, 101.704 149.150, 100.441 158.208, 103.366 163.264, 108.246 168.062, 114.865 " />
            <path fill="none" stroke-width="3.0" stroke-linecap="butt" stroke-opacity="1.0" stroke="rgb(0, 0, 0)" stroke-linejoin="round" d=" M 136.946, 96.450 131.537, 103.344 129.326, 113.096 129.299, 113.213 " />
            <path fill="none" stroke-width="3.0" stroke-linecap="butt" stroke-opacity="1.0" stroke="rgb(0, 0, 0)" stroke-linejoin="round" d=" M 136.665, 119.425 133.068, 120.927 " />
            <path fill="none" stroke-width="3.0" stroke-linecap="butt" stroke-opacity="1.0" stroke="rgb(0, 0, 0)" stroke-linejoin="round" d=" M 137.322, 147.899 146.943, 145.714 152.028, 140.427 154.476, 133.031 154.671, 123.033 154.677, 122.730 151.360, 114.455 144.934, 109.441 135.694, 111.283 133.170, 116.598 133.068, 120.927 " />
            <path fill="none" stroke-width="3.0" stroke-linecap="butt" stroke-opacity="1.0" stroke="rgb(0, 0, 0)" stroke-linejoin="round" d=" M 112.291, 117.930 109.816, 112.562 100.797, 110.656 94.744, 115.365 91.552, 123.262 91.732, 133.261 91.737, 133.503 94.051, 140.886 99.077, 145.794 108.399, 148.031 " />
            <path fill="none" stroke-width="3.0" stroke-linecap="butt" stroke-opacity="1.0" stroke="rgb(0, 0, 0)" stroke-linejoin="round" d=" M 60.005, 119.832 62.635, 123.253 62.882, 125.401 63.231, 128.427 63.547, 131.361 62.902, 132.820 59.115, 142.075 58.351, 143.940 58.639, 148.747 60.498, 153.209 63.072, 155.592 63.883, 160.146 63.959, 163.022 64.219, 172.909 64.252, 173.072 64.263, 173.098 64.301, 173.197 64.520, 173.525 70.168, 181.777 75.672, 189.820 85.030, 193.345 94.277, 196.828 97.313, 200.082 " />
            <path fill="none" stroke-width="3.0" stroke-linecap="butt" stroke-opacity="1.0" stroke="rgb(0, 0, 0)" stroke-linejoin="round" d=" M 97.172, 198.200 99.484, 203.680 101.309, 206.646 103.364, 208.174 112.066, 213.100 112.595, 213.399 112.888, 213.558 122.695, 215.570 123.174, 215.643 123.649, 215.578 133.503, 213.689 133.745, 213.577 142.532, 208.803 143.022, 208.537 147.871, 205.683 148.461, 204.820 149.560, 202.203 151.284, 197.751 152.377, 197.225 152.743, 197.048 154.386, 196.257 163.841, 193.003 171.976, 190.204 177.570, 181.915 182.789, 174.181 183.088, 173.726 183.149, 173.595 183.162, 173.556 183.220, 173.247 183.797, 163.418 183.991, 160.120 184.667, 156.197 186.197, 154.834 189.146, 148.518 189.982, 144.633 186.284, 135.341 185.931, 134.453 184.668, 131.798 185.287, 127.072 185.501, 125.500 185.757, 123.607 187.602, 121.248 184.915, 124.625 184.577, 125.440 " />
            <path fill="none" stroke-width="3.0" stroke-linecap="butt" stroke-opacity="1.0" stroke="rgb(0, 0, 0)" stroke-linejoin="round" d=" M 72.931, 95.167 71.960, 95.710 64.752, 102.642 60.848, 106.395 66.994, 106.321 64.953, 106.909 62.455, 108.976 67.485, 106.359 " />
            <path fill="none" stroke-width="3.0" stroke-linecap="butt" stroke-opacity="1.0" stroke="rgb(0, 0, 0)" stroke-linejoin="round" d=" M 105.985, 148.321 100.428, 153.406 95.954, 156.409 92.523, 165.739 91.373, 167.457 90.088, 169.376 89.633, 170.172 88.834, 171.568 88.815, 172.369 88.672, 178.565 90.152, 187.961 95.792, 192.833 96.630, 193.557 97.805, 194.571 99.778, 196.275 101.380, 197.808 107.993, 199.453 112.787, 200.176 113.672, 200.309 114.099, 200.374 115.351, 200.562 120.166, 201.289 122.890, 201.319 124.839, 201.052 131.214, 200.177 131.919, 200.080 134.878, 199.674 138.485, 198.934 142.257, 198.162 143.150, 197.336 143.247, 197.258 145.596, 195.371 147.851, 193.561 148.974, 191.944 152.044, 187.527 152.769, 185.012 154.056, 175.526 152.887, 169.989 151.908, 168.313 151.055, 166.853 147.993, 157.333 147.631, 156.207 143.730, 153.551 138.640, 148.682 138.640, 148.682 " />
            <path fill="none" stroke-width="3.0" stroke-linecap="butt" stroke-opacity="1.0" stroke="rgb(0, 0, 0)" stroke-linejoin="round" d=" M 62.882, 125.401 62.229, 125.442 60.417, 125.977 57.165, 129.767 56.693, 132.147 55.246, 137.733 54.568, 140.812 55.168, 145.887 56.316, 152.297 59.143, 155.333 63.841, 163.052 63.959, 163.022 " />
            <path fill="none" stroke-width="3.0" stroke-linecap="butt" stroke-opacity="1.0" stroke="rgb(0, 0, 0)" stroke-linejoin="round" d=" M 91.373, 167.457 85.544, 164.952 84.448, 163.740 81.849, 160.866 80.231, 158.572 74.623, 150.621 73.217, 153.658 71.184, 157.825 69.303, 161.681 69.145, 162.006 69.034, 165.226 68.883, 167.662 69.760, 171.075 70.470, 173.472 71.957, 177.706 72.966, 179.300 77.985, 181.320 80.381, 183.008 81.700, 185.500 83.481, 189.435 86.668, 192.695 87.769, 193.778 90.164, 194.212 94.621, 194.492 94.944, 194.764 99.334, 198.456 100.224, 199.882 " />
            <path fill="none" stroke-width="3.0" stroke-linecap="butt" stroke-opacity="1.0" stroke="rgb(0, 0, 0)" stroke-linejoin="round" d=" M 94.944, 194.764 100.724, 200.367 " />
            <path fill="none" stroke-width="3.0" stroke-linecap="butt" stroke-opacity="1.0" stroke="rgb(0, 0, 0)" stroke-linejoin="round" d=" M 105.223, 101.801 105.465, 101.816 105.486, 101.838 105.576, 101.933 109.685, 106.266 112.108, 108.630 " />
            <path fill="none" stroke-width="3.0" stroke-linecap="butt" stroke-opacity="1.0" stroke="rgb(0, 0, 0)" stroke-linejoin="round" d=" M 107.737, 119.020 107.577, 118.982 103.986, 120.103 101.168, 121.153 100.250, 122.644 97.789, 126.502 97.715, 127.334 97.182, 133.503 98.697, 140.020 98.818, 140.513 101.940, 144.480 102.958, 145.619 105.929, 146.352 109.099, 147.057 " />
            <path fill="none" stroke-width="3.0" stroke-linecap="butt" stroke-opacity="1.0" stroke="rgb(0, 0, 0)" stroke-linejoin="round" d=" M 133.324, 108.069 135.109, 106.247 139.605, 101.777 " />
            <path fill="none" stroke-width="3.0" stroke-linecap="butt" stroke-opacity="1.0" stroke="rgb(0, 0, 0)" stroke-linejoin="round" d=" M 133.122, 200.868 135.973, 201.901 137.293, 201.679 141.310, 201.010 " />
            <path fill="none" stroke-width="3.0" stroke-linecap="butt" stroke-opacity="1.0" stroke="rgb(0, 0, 0)" stroke-linejoin="round" d=" M 137.295, 147.549 137.432, 147.583 " />
            <path fill="none" stroke-width="3.0" stroke-linecap="butt" stroke-opacity="1.0" stroke="rgb(0, 0, 0)" stroke-linejoin="round" d=" M 137.295, 147.549 137.442, 147.579 137.464, 147.584 141.114, 146.385 144.099, 145.188 144.894, 144.035 147.625, 139.808 147.728, 139.074 148.413, 132.708 147.416, 126.900 147.199, 125.777 144.578, 122.505 143.278, 120.911 140.621, 120.290 137.199, 119.572 " />
            <path fill="none" stroke-width="3.0" stroke-linecap="butt" stroke-opacity="1.0" stroke="rgb(0, 0, 0)" stroke-linejoin="round" d=" M 153.449, 194.520 152.743, 197.048 152.692, 197.230 152.377, 197.225 148.051, 197.151 " />
            <path fill="none" stroke-width="3.0" stroke-linecap="butt" stroke-opacity="1.0" stroke="rgb(0, 0, 0)" stroke-linejoin="round" d=" M 167.850, 108.340 168.002, 106.168 164.251, 99.742 164.218, 99.692 164.213, 99.690 " />
            <path fill="none" stroke-width="3.0" stroke-linecap="butt" stroke-opacity="1.0" stroke="rgb(0, 0, 0)" stroke-linejoin="round" d=" M 183.797, 163.418 185.125, 163.699 190.373, 155.680 193.138, 152.868 194.511, 146.113 195.061, 141.350 194.323, 137.959 192.604, 131.943 192.060, 129.770 188.888, 126.218 186.605, 125.572 185.501, 125.500 " />
        </g>
    </g>
</svg>
