<?xml version='1.0' encoding='ascii'?>
<svg xmlns="http://www.w3.org/2000/svg" version="1.1" width="250" height="250">
    <g id="ViewLayer_LineSet" xmlns:inkscape="http://www.inkscape.org/namespaces/inkscape" inkscape:groupmode="lineset" inkscape:label="ViewLayer_LineSet">
        <g xmlns:inkscape="http://www.inkscape.org/namespaces/inkscape" inkscape:groupmode="layer" id="strokes" inkscape:label="strokes">
            <path fill="none" stroke-width="3.0" stroke-linecap="butt" stroke-opacity="1.0" stroke="rgb(0, 0, 0)" stroke-linejoin="round" d=" M 144.034, 190.865 144.160, 190.734 144.644, 190.230 147.693, 187.059 147.874, 186.871 151.072, 186.852 155.249, 186.212 157.028, 184.309 157.681, 183.611 159.632, 181.692 161.013, 178.521 161.130, 178.253 162.804, 174.834 164.412, 174.244 168.024, 172.919 170.685, 171.302 171.663, 168.514 171.814, 168.083 173.604, 165.707 174.396, 162.547 175.200, 159.677 174.996, 156.570 174.708, 153.701 170.870, 146.411 168.752, 142.139 164.494, 146.018 158.032, 153.650 156.929, 154.952 148.914, 157.926 " />
            <path fill="none" stroke-width="3.0" stroke-linecap="butt" stroke-opacity="1.0" stroke="rgb(0, 0, 0)" stroke-linejoin="round" d=" M 165.712, 100.252 165.765, 98.164 162.829, 92.924 162.081, 91.777 161.099, 91.210 " />
            <path fill="none" stroke-width="3.0" stroke-linecap="butt" stroke-opacity="1.0" stroke="rgb(0, 0, 0)" stroke-linejoin="round" d=" M 108.761, 111.791 105.041, 110.884 102.958, 111.574 98.905, 113.211 98.685, 113.591 96.623, 116.985 95.813, 118.612 95.761, 118.711 95.124, 125.628 95.118, 125.712 95.132, 125.796 95.268, 126.751 96.493, 132.045 96.672, 132.769 98.502, 135.046 " />
            <path fill="none" stroke-width="3.0" stroke-linecap="butt" stroke-opacity="1.0" stroke="rgb(0, 0, 0)" stroke-linejoin="round" d=" M 180.672, 95.883 174.394, 88.100 168.116, 80.316 167.215, 79.199 163.507, 77.844 154.199, 74.187 146.684, 71.235 " />
            <path fill="none" stroke-width="3.0" stroke-linecap="butt" stroke-opacity="1.0" stroke="rgb(0, 0, 0)" stroke-linejoin="round" d=" M 189.224, 124.799 195.786, 118.084 196.802, 108.136 197.819, 98.187 198.268, 93.784 197.757, 90.237 197.765, 88.317 195.319, 82.961 190.856, 74.012 186.392, 65.064 182.529, 57.320 177.831, 52.339 171.472, 44.621 165.114, 36.903 163.873, 35.396 162.859, 34.754 153.979, 30.156 145.099, 25.558 142.912, 24.425 141.941, 24.490 131.943, 24.732 121.946, 24.974 111.949, 25.216 103.690, 25.416 101.911, 25.406 93.326, 30.534 85.134, 35.427 81.623, 37.956 75.627, 45.959 71.234, 51.821 64.711, 59.400 64.547, 59.590 60.723, 68.830 56.899, 78.070 55.036, 82.570 54.371, 88.154 53.765, 90.973 54.018, 97.067 55.583, 106.944 57.158, 116.879 60.814, 121.129 63.144, 124.432 " />
            <path fill="none" stroke-width="3.0" stroke-linecap="butt" stroke-opacity="1.0" stroke="rgb(0, 0, 0)" stroke-linejoin="round" d=" M 105.167, 208.013 107.419, 209.292 109.123, 210.259 109.449, 210.296 110.365, 210.400 114.831, 210.908 115.504, 212.741 " />
            <path fill="none" stroke-width="3.0" stroke-linecap="butt" stroke-opacity="1.0" stroke="rgb(0, 0, 0)" stroke-linejoin="round" d=" M 96.609, 136.210 94.909, 137.220 88.740, 140.882 86.756, 145.816 84.086, 147.695 84.500, 149.602 83.833, 150.744 83.311, 154.907 82.739, 159.468 83.007, 168.254 84.009, 168.699 86.164, 170.307 93.205, 177.409 93.995, 178.205 94.124, 178.335 97.745, 181.424 100.982, 182.116 106.072, 183.204 111.362, 183.862 116.314, 184.479 125.314, 183.465 129.951, 182.214 133.010, 180.611 135.387, 179.366 140.383, 176.748 142.134, 174.851 144.950, 171.803 147.805, 163.897 149.033, 158.801 148.914, 157.926 148.425, 154.337 146.785, 150.970 144.136, 141.435 141.940, 140.014 139.676, 138.550 139.658, 138.538 138.343, 137.688 133.312, 133.751 125.941, 132.306 120.669, 131.273 117.621, 130.833 115.644, 131.083 113.618, 131.339 103.762, 133.029 101.017, 133.500 99.336, 134.533 98.502, 135.046 96.609, 136.210 " />
            <path fill="none" stroke-width="3.0" stroke-linecap="butt" stroke-opacity="1.0" stroke="rgb(0, 0, 0)" stroke-linejoin="round" d=" M 132.797, 193.850 134.213, 193.718 141.595, 193.029 144.803, 190.183 145.430, 189.627 147.875, 187.458 " />
            <path fill="none" stroke-width="3.0" stroke-linecap="butt" stroke-opacity="1.0" stroke="rgb(0, 0, 0)" stroke-linejoin="round" d=" M 90.456, 186.548 94.356, 190.449 96.173, 192.268 104.454, 193.383 " />
            <path fill="none" stroke-width="3.0" stroke-linecap="butt" stroke-opacity="1.0" stroke="rgb(0, 0, 0)" stroke-linejoin="round" d=" M 76.649, 106.794 81.361, 99.978 86.210, 94.845 94.760, 91.250 103.443, 91.738 " />
            <path fill="none" stroke-width="3.0" stroke-linecap="butt" stroke-opacity="1.0" stroke="rgb(0, 0, 0)" stroke-linejoin="round" d=" M 113.277, 102.639 110.990, 94.964 107.151, 87.585 101.527, 83.940 " />
            <path fill="none" stroke-width="3.0" stroke-linecap="butt" stroke-opacity="1.0" stroke="rgb(0, 0, 0)" stroke-linejoin="round" d=" M 131.883, 96.167 137.112, 91.840 146.666, 91.317 155.868, 94.933 161.040, 100.097 166.006, 107.006 " />
            <path fill="none" stroke-width="3.0" stroke-linecap="butt" stroke-opacity="1.0" stroke="rgb(0, 0, 0)" stroke-linejoin="round" d=" M 134.348, 86.388 128.882, 92.759 126.728, 102.524 126.672, 102.777 " />
            <path fill="none" stroke-width="3.0" stroke-linecap="butt" stroke-opacity="1.0" stroke="rgb(0, 0, 0)" stroke-linejoin="round" d=" M 145.299, 139.697 150.438, 134.276 152.927, 126.920 152.985, 116.920 152.989, 116.187 149.512, 107.458 142.970, 101.990 133.609, 103.121 131.026, 108.218 130.887, 112.588 " />
            <path fill="none" stroke-width="3.0" stroke-linecap="butt" stroke-opacity="1.0" stroke="rgb(0, 0, 0)" stroke-linejoin="round" d=" M 110.267, 109.387 107.982, 104.321 99.338, 103.203 93.490, 108.727 90.218, 116.926 90.136, 126.926 90.133, 127.293 92.139, 134.414 " />
            <path fill="none" stroke-width="3.0" stroke-linecap="butt" stroke-opacity="1.0" stroke="rgb(0, 0, 0)" stroke-linejoin="round" d=" M 176.960, 100.461 183.317, 99.452 180.672, 95.883 " />
            <path fill="none" stroke-width="3.0" stroke-linecap="butt" stroke-opacity="1.0" stroke="rgb(0, 0, 0)" stroke-linejoin="round" d=" M 63.830, 125.467 61.819, 122.634 63.144, 124.432 63.826, 125.356 63.827, 125.400 63.830, 125.467 63.984, 129.740 64.061, 131.867 64.159, 131.854 64.151, 132.011 63.860, 132.394 58.982, 141.123 57.955, 142.961 58.000, 148.009 59.534, 152.124 61.911, 153.740 62.236, 157.663 62.034, 165.863 61.925, 170.250 62.007, 170.848 62.042, 170.946 62.191, 171.340 64.291, 174.724 69.623, 183.184 74.552, 191.002 80.482, 193.716 81.609, 195.679 90.495, 200.267 96.519, 203.377 101.766, 206.488 107.419, 209.292 " />
            <path fill="none" stroke-width="3.0" stroke-linecap="butt" stroke-opacity="1.0" stroke="rgb(0, 0, 0)" stroke-linejoin="round" d=" M 115.504, 212.741 122.283, 215.880 129.830, 212.650 136.663, 210.923 142.048, 208.536 148.904, 204.412 157.919, 200.085 166.935, 195.759 167.887, 195.302 169.739, 193.912 170.760, 193.050 176.140, 184.621 181.520, 176.191 181.926, 175.556 183.579, 171.720 183.871, 170.671 183.979, 170.086 185.326, 162.788 185.461, 157.933 185.784, 156.538 186.511, 156.247 190.421, 148.692 191.005, 145.416 187.327, 137.051 185.667, 133.861 186.322, 129.941 186.518, 128.766 186.773, 127.240 186.055, 129.445 " />
            <path fill="none" stroke-width="3.0" stroke-linecap="butt" stroke-opacity="1.0" stroke="rgb(0, 0, 0)" stroke-linejoin="round" d=" M 95.804, 70.061 91.953, 70.101 91.734, 70.104 82.620, 74.218 74.723, 77.782 69.052, 80.082 64.011, 88.718 59.494, 96.458 63.943, 98.260 62.498, 99.138 61.320, 101.353 67.893, 101.546 " />
            <path fill="none" stroke-width="3.0" stroke-linecap="butt" stroke-opacity="1.0" stroke="rgb(0, 0, 0)" stroke-linejoin="round" d=" M 144.803, 190.183 145.082, 190.100 146.092, 189.798 145.836, 190.863 144.654, 190.682 145.082, 190.100 145.430, 189.627 " />
            <path fill="none" stroke-width="3.0" stroke-linecap="butt" stroke-opacity="1.0" stroke="rgb(0, 0, 0)" stroke-linejoin="round" d=" M 99.774, 202.670 105.167, 208.013 " />
            <path fill="none" stroke-width="3.0" stroke-linecap="butt" stroke-opacity="1.0" stroke="rgb(0, 0, 0)" stroke-linejoin="round" d=" M 132.505, 210.660 132.571, 210.163 133.925, 209.974 134.385, 209.752 134.596, 209.651 135.702, 208.773 135.703, 208.772 " />
            <path fill="none" stroke-width="3.0" stroke-linecap="butt" stroke-opacity="1.0" stroke="rgb(0, 0, 0)" stroke-linejoin="round" d=" M 63.984, 129.740 62.344, 130.935 58.598, 135.324 58.037, 138.864 56.755, 143.668 55.963, 146.522 56.322, 151.865 57.038, 158.238 59.553, 160.777 62.034, 165.863 " />
            <path fill="none" stroke-width="3.0" stroke-linecap="butt" stroke-opacity="1.0" stroke="rgb(0, 0, 0)" stroke-linejoin="round" d=" M 83.311, 154.907 81.611, 154.200 77.124, 149.259 71.436, 141.253 69.120, 146.038 68.995, 146.279 65.758, 152.500 65.471, 156.091 65.221, 158.348 65.947, 161.922 66.511, 164.288 67.352, 167.167 67.624, 168.098 68.766, 170.012 73.309, 171.810 75.924, 173.623 77.288, 176.516 78.860, 180.471 81.566, 183.481 83.054, 185.072 86.796, 185.774 90.130, 185.900 90.574, 186.270 93.553, 188.751 94.356, 190.449 " />
            <path fill="none" stroke-width="3.0" stroke-linecap="butt" stroke-opacity="1.0" stroke="rgb(0, 0, 0)" stroke-linejoin="round" d=" M 105.893, 93.947 107.659, 95.610 109.026, 97.091 " />
            <path fill="none" stroke-width="3.0" stroke-linecap="butt" stroke-opacity="1.0" stroke="rgb(0, 0, 0)" stroke-linejoin="round" d=" M 106.593, 192.422 111.107, 194.918 119.341, 195.532 127.905, 196.272 134.045, 193.809 134.213, 193.718 " />
            <path fill="none" stroke-width="3.0" stroke-linecap="butt" stroke-opacity="1.0" stroke="rgb(0, 0, 0)" stroke-linejoin="round" d=" M 109.652, 191.048 115.091, 188.756 117.579, 187.708 117.902, 187.721 119.095, 187.754 121.805, 188.666 122.036, 188.744 123.881, 189.626 126.997, 191.115 " />
            <path fill="none" stroke-width="3.0" stroke-linecap="butt" stroke-opacity="1.0" stroke="rgb(0, 0, 0)" stroke-linejoin="round" d=" M 131.761, 96.313 131.883, 96.167 131.909, 96.136 132.237, 95.874 " />
            <path fill="none" stroke-width="3.0" stroke-linecap="butt" stroke-opacity="1.0" stroke="rgb(0, 0, 0)" stroke-linejoin="round" d=" M 141.069, 138.063 141.530, 137.896 143.161, 135.633 145.358, 132.386 145.648, 130.610 146.330, 125.130 145.401, 118.954 145.237, 117.984 142.306, 113.973 141.505, 112.889 137.778, 111.837 135.008, 111.149 132.146, 112.150 " />
            <path fill="none" stroke-width="3.0" stroke-linecap="butt" stroke-opacity="1.0" stroke="rgb(0, 0, 0)" stroke-linejoin="round" d=" M 183.979, 170.086 187.035, 169.588 190.370, 167.825 193.883, 162.399 196.199, 160.442 197.549, 153.025 197.955, 148.564 197.028, 144.816 195.145, 138.840 194.314, 135.822 189.740, 130.960 189.475, 130.856 186.322, 129.941 " />
            <path fill="none" stroke-width="3.0" stroke-linecap="butt" stroke-opacity="1.0" stroke="rgb(0, 0, 0)" stroke-linejoin="round" d=" M 186.518, 128.766 189.224, 124.799 " />
        </g>
    </g>
</svg>
