<?xml version='1.0' encoding='ascii'?>
<svg xmlns="http://www.w3.org/2000/svg" version="1.1" width="250" height="250">
    <g id="ViewLayer_LineSet" xmlns:inkscape="http://www.inkscape.org/namespaces/inkscape" inkscape:groupmode="lineset" inkscape:label="ViewLayer_LineSet">
        <g xmlns:inkscape="http://www.inkscape.org/namespaces/inkscape" inkscape:groupmode="layer" id="strokes" inkscape:label="strokes">
            <path fill="none" stroke-width="3.0" stroke-linecap="butt" stroke-opacity="1.0" stroke="rgb(0, 0, 0)" stroke-linejoin="round" d=" M 147.150, 185.509 150.153, 182.285 150.389, 182.032 153.072, 182.041 157.850, 181.283 160.153, 178.750 162.194, 176.681 163.630, 173.263 165.328, 169.727 170.312, 167.946 173.080, 166.300 174.123, 163.190 175.876, 160.815 176.610, 157.632 177.332, 154.817 177.055, 151.535 176.732, 148.828 173.223, 142.333 170.761, 137.436 165.941, 141.713 159.435, 149.307 159.321, 149.440 152.559, 151.863 " />
            <path fill="none" stroke-width="3.0" stroke-linecap="butt" stroke-opacity="1.0" stroke="rgb(0, 0, 0)" stroke-linejoin="round" d=" M 116.292, 184.018 119.935, 182.347 120.088, 182.350 121.487, 182.354 122.041, 182.551 122.651, 182.768 124.570, 183.770 " />
            <path fill="none" stroke-width="3.0" stroke-linecap="butt" stroke-opacity="1.0" stroke="rgb(0, 0, 0)" stroke-linejoin="round" d=" M 182.867, 93.130 177.461, 84.718 172.054, 76.306 170.299, 73.575 164.135, 71.067 155.004, 66.989 145.988, 62.963 143.882, 62.968 133.882, 62.941 123.882, 62.914 120.428, 62.904 110.428, 63.011 100.429, 63.117 97.496, 63.148 95.041, 63.162 86.026, 67.491 78.671, 71.022 71.637, 74.022 66.899, 82.828 62.161, 91.634 60.666, 94.412 62.418, 95.490 61.742, 95.939 61.219, 97.046 " />
            <path fill="none" stroke-width="3.0" stroke-linecap="butt" stroke-opacity="1.0" stroke="rgb(0, 0, 0)" stroke-linejoin="round" d=" M 188.653, 125.542 194.507, 119.888 195.411, 109.929 196.316, 99.970 197.177, 90.494 197.159, 90.338 197.160, 90.265 197.083, 90.086 192.801, 81.049 188.520, 72.012 184.238, 62.975 182.204, 58.681 175.929, 51.837 169.656, 44.050 164.321, 37.426 160.688, 35.087 151.878, 30.356 143.954, 26.100 140.340, 26.253 130.340, 26.364 120.341, 26.475 110.342, 26.585 106.540, 26.627 102.578, 26.568 93.907, 31.549 87.396, 35.290 82.597, 38.579 76.469, 46.481 72.658, 51.395 66.035, 58.888 65.356, 59.656 61.369, 68.827 57.382, 77.998 54.595, 84.409 53.769, 89.201 53.188, 91.416 53.165, 95.700 54.326, 105.632 55.486, 115.565 55.896, 119.070 60.236, 123.617 63.009, 127.779 " />
            <path fill="none" stroke-width="3.0" stroke-linecap="butt" stroke-opacity="1.0" stroke="rgb(0, 0, 0)" stroke-linejoin="round" d=" M 99.994, 127.223 99.194, 127.739 97.944, 128.546 93.214, 131.598 91.426, 132.751 89.779, 137.447 87.277, 139.091 87.559, 140.721 87.005, 141.566 85.758, 150.093 85.730, 150.280 85.464, 156.784 87.754, 158.342 93.571, 163.773 97.304, 167.342 98.060, 167.849 106.366, 173.417 107.882, 174.433 113.196, 175.700 119.829, 176.625 125.960, 175.833 129.618, 174.931 138.781, 170.926 144.131, 168.587 144.146, 168.572 147.810, 164.776 151.304, 156.299 152.559, 151.863 152.869, 150.767 152.229, 144.990 149.983, 140.188 148.441, 134.636 148.052, 133.233 145.078, 131.317 144.591, 131.004 140.229, 128.194 136.841, 125.858 131.962, 124.880 128.669, 124.220 126.821, 123.983 120.224, 123.135 117.521, 123.426 110.380, 124.195 102.873, 125.517 99.994, 127.223 " />
            <path fill="none" stroke-width="3.0" stroke-linecap="butt" stroke-opacity="1.0" stroke="rgb(0, 0, 0)" stroke-linejoin="round" d=" M 131.054, 186.896 135.248, 188.918 138.148, 188.689 144.089, 188.221 145.861, 186.651 146.630, 185.969 147.241, 185.428 147.277, 185.396 150.331, 182.690 " />
            <path fill="none" stroke-width="3.0" stroke-linecap="butt" stroke-opacity="1.0" stroke="rgb(0, 0, 0)" stroke-linejoin="round" d=" M 91.884, 182.266 97.488, 187.578 97.790, 187.865 106.352, 188.700 " />
            <path fill="none" stroke-width="3.0" stroke-linecap="butt" stroke-opacity="1.0" stroke="rgb(0, 0, 0)" stroke-linejoin="round" d=" M 78.002, 103.414 82.860, 96.560 87.835, 91.355 96.545, 87.523 105.352, 87.678 109.429, 91.061 " />
            <path fill="none" stroke-width="3.0" stroke-linecap="butt" stroke-opacity="1.0" stroke="rgb(0, 0, 0)" stroke-linejoin="round" d=" M 115.237, 98.133 113.023, 90.471 109.109, 83.511 103.420, 80.188 " />
            <path fill="none" stroke-width="3.0" stroke-linecap="butt" stroke-opacity="1.0" stroke="rgb(0, 0, 0)" stroke-linejoin="round" d=" M 133.681, 91.958 138.792, 87.922 148.121, 87.742 157.116, 91.596 162.221, 96.777 167.154, 103.661 " />
            <path fill="none" stroke-width="3.0" stroke-linecap="butt" stroke-opacity="1.0" stroke="rgb(0, 0, 0)" stroke-linejoin="round" d=" M 136.084, 82.480 130.756, 88.502 128.569, 98.260 128.535, 98.410 " />
            <path fill="none" stroke-width="3.0" stroke-linecap="butt" stroke-opacity="1.0" stroke="rgb(0, 0, 0)" stroke-linejoin="round" d=" M 151.691, 131.189 154.078, 123.981 154.100, 113.981 154.101, 113.262 150.652, 104.506 144.205, 98.944 135.032, 99.747 132.514, 104.664 132.396, 108.969 " />
            <path fill="none" stroke-width="3.0" stroke-linecap="butt" stroke-opacity="1.0" stroke="rgb(0, 0, 0)" stroke-linejoin="round" d=" M 111.806, 105.774 109.480, 100.911 100.690, 100.160 94.638, 105.992 91.235, 114.253 91.073, 124.251 91.068, 124.579 93.119, 131.504 " />
            <path fill="none" stroke-width="3.0" stroke-linecap="butt" stroke-opacity="1.0" stroke="rgb(0, 0, 0)" stroke-linejoin="round" d=" M 177.497, 98.858 184.393, 95.817 182.867, 93.130 " />
            <path fill="none" stroke-width="3.0" stroke-linecap="butt" stroke-opacity="1.0" stroke="rgb(0, 0, 0)" stroke-linejoin="round" d=" M 62.981, 127.208 61.987, 125.663 62.968, 126.947 62.981, 127.208 63.009, 127.779 63.194, 131.449 63.218, 131.943 63.262, 132.850 63.137, 133.048 58.043, 141.653 57.228, 143.030 57.256, 147.787 59.251, 152.746 61.212, 153.618 61.557, 156.361 61.144, 165.695 61.609, 169.194 61.796, 169.791 61.827, 169.875 62.678, 172.249 67.817, 180.827 72.955, 189.406 74.179, 191.449 75.599, 192.450 78.030, 194.547 86.765, 199.417 95.499, 204.287 96.611, 204.907 105.114, 210.170 105.389, 210.340 108.688, 211.762 118.258, 214.664 119.085, 214.915 122.687, 216.557 125.861, 215.208 135.591, 212.900 138.013, 212.325 139.868, 211.542 148.299, 206.164 149.296, 205.527 158.131, 200.842 164.016, 197.722 169.999, 193.063 172.974, 190.499 178.216, 181.983 182.907, 174.360 184.153, 171.432 184.551, 170.496 184.824, 169.506 185.957, 162.379 185.966, 156.857 186.235, 155.305 187.067, 155.154 190.578, 148.174 191.077, 144.656 186.536, 135.916 185.322, 133.899 185.643, 131.599 185.905, 129.709 186.134, 128.067 " />
            <path fill="none" stroke-width="3.0" stroke-linecap="butt" stroke-opacity="1.0" stroke="rgb(0, 0, 0)" stroke-linejoin="round" d=" M 145.891, 186.963 145.861, 186.651 " />
            <path fill="none" stroke-width="3.0" stroke-linecap="butt" stroke-opacity="1.0" stroke="rgb(0, 0, 0)" stroke-linejoin="round" d=" M 63.194, 131.449 63.097, 131.487 60.395, 133.762 56.901, 137.791 56.154, 141.671 54.750, 146.584 53.860, 149.637 54.138, 154.772 54.828, 161.473 57.180, 163.563 59.663, 168.803 61.827, 169.875 " />
            <path fill="none" stroke-width="3.0" stroke-linecap="butt" stroke-opacity="1.0" stroke="rgb(0, 0, 0)" stroke-linejoin="round" d=" M 85.758, 150.093 83.198, 149.121 77.953, 143.799 72.698, 136.944 70.112, 142.100 68.027, 145.947 66.817, 148.180 66.475, 151.727 66.166, 154.104 66.834, 157.514 67.427, 160.059 68.452, 163.500 69.560, 165.300 69.809, 165.705 74.130, 167.261 77.101, 169.156 78.601, 172.378 78.881, 173.091 80.064, 176.098 82.549, 178.846 84.333, 180.746 89.008, 181.561 91.587, 181.584 91.690, 181.585 91.739, 181.623 92.056, 181.865 94.472, 183.715 94.993, 185.213 " />
            <path fill="none" stroke-width="3.0" stroke-linecap="butt" stroke-opacity="1.0" stroke="rgb(0, 0, 0)" stroke-linejoin="round" d=" M 107.296, 188.255 108.547, 189.250 113.067, 191.823 118.623, 192.180 128.594, 192.940 129.514, 193.010 133.732, 191.198 138.148, 188.689 " />
            <path fill="none" stroke-width="3.0" stroke-linecap="butt" stroke-opacity="1.0" stroke="rgb(0, 0, 0)" stroke-linejoin="round" d=" M 109.429, 91.061 110.022, 91.525 110.104, 91.621 110.478, 92.052 " />
            <path fill="none" stroke-width="3.0" stroke-linecap="butt" stroke-opacity="1.0" stroke="rgb(0, 0, 0)" stroke-linejoin="round" d=" M 111.234, 108.572 106.192, 107.362 104.670, 107.902 100.179, 109.805 100.119, 109.912 98.631, 112.439 97.090, 115.256 97.054, 115.321 96.773, 117.736 96.427, 122.328 97.812, 128.038 97.944, 128.546 " />
            <path fill="none" stroke-width="3.0" stroke-linecap="butt" stroke-opacity="1.0" stroke="rgb(0, 0, 0)" stroke-linejoin="round" d=" M 146.630, 185.969 146.734, 185.975 147.241, 185.428 " />
            <path fill="none" stroke-width="3.0" stroke-linecap="butt" stroke-opacity="1.0" stroke="rgb(0, 0, 0)" stroke-linejoin="round" d=" M 145.078, 131.317 146.839, 128.763 147.117, 127.118 147.829, 121.541 146.821, 114.634 146.784, 114.410 143.512, 109.831 143.134, 109.308 138.802, 108.028 136.704, 107.493 132.769, 108.850 " />
            <path fill="none" stroke-width="3.0" stroke-linecap="butt" stroke-opacity="1.0" stroke="rgb(0, 0, 0)" stroke-linejoin="round" d=" M 184.153, 171.432 186.466, 171.109 190.690, 169.067 193.288, 164.474 195.488, 162.710 196.584, 155.400 196.909, 150.796 195.932, 147.228 194.193, 141.658 193.322, 138.093 189.313, 133.711 187.487, 132.238 185.643, 131.599 " />
            <path fill="none" stroke-width="3.0" stroke-linecap="butt" stroke-opacity="1.0" stroke="rgb(0, 0, 0)" stroke-linejoin="round" d=" M 185.905, 129.709 188.653, 125.542 " />
        </g>
    </g>
</svg>
