<?xml version='1.0' encoding='ascii'?>
<svg xmlns="http://www.w3.org/2000/svg" version="1.1" width="250" height="250">
    <g id="ViewLayer_LineSet" xmlns:inkscape="http://www.inkscape.org/namespaces/inkscape" inkscape:groupmode="lineset" inkscape:label="ViewLayer_LineSet">
        <g xmlns:inkscape="http://www.inkscape.org/namespaces/inkscape" inkscape:groupmode="layer" id="strokes" inkscape:label="strokes">
            <path fill="none" stroke-width="3.0" stroke-linecap="butt" stroke-opacity="1.0" stroke="rgb(0, 0, 0)" stroke-linejoin="round" d=" M 192.588, 117.873 199.613, 110.756 206.638, 103.639 208.655, 101.595 208.670, 101.573 208.652, 101.532 208.634, 101.455 203.316, 92.987 198.287, 84.978 194.651, 78.426 187.611, 71.325 182.694, 66.365 174.119, 61.221 173.037, 60.572 165.595, 53.893 160.066, 48.932 159.179, 48.496 153.738, 46.144 144.203, 43.128 134.669, 40.112 129.852, 38.588 121.827, 37.887 111.880, 38.913 110.051, 39.102 101.324, 40.059 91.362, 40.933 86.168, 41.389 76.248, 42.652 71.622, 43.241 63.608, 49.222 57.963, 53.434 57.636, 53.833 57.390, 54.124 54.536, 63.708 52.861, 69.331 49.044, 78.574 48.697, 79.417 51.178, 88.087 55.602, 97.055 55.920, 97.701 58.352, 101.199 63.749, 108.503 69.929, 113.515 64.219, 116.021 58.793, 120.554 52.255, 124.846 46.662, 127.818 42.234, 131.154 40.813, 135.754 49.357, 130.557 54.528, 127.411 63.533, 123.062 64.043, 122.815 " />
            <path fill="none" stroke-width="3.0" stroke-linecap="butt" stroke-opacity="1.0" stroke="rgb(0, 0, 0)" stroke-linejoin="round" d=" M 192.385, 146.645 192.671, 145.822 192.385, 143.921 192.135, 142.840 189.879, 133.097 189.233, 130.310 189.465, 128.936 190.171, 124.750 190.368, 126.435 189.465, 128.936 " />
            <path fill="none" stroke-width="3.0" stroke-linecap="butt" stroke-opacity="1.0" stroke="rgb(0, 0, 0)" stroke-linejoin="round" d=" M 133.671, 207.306 137.280, 204.242 " />
            <path fill="none" stroke-width="3.0" stroke-linecap="butt" stroke-opacity="1.0" stroke="rgb(0, 0, 0)" stroke-linejoin="round" d=" M 128.231, 141.835 127.846, 141.505 " />
            <path fill="none" stroke-width="3.0" stroke-linecap="butt" stroke-opacity="1.0" stroke="rgb(0, 0, 0)" stroke-linejoin="round" d=" M 129.743, 158.298 135.255, 156.485 138.865, 152.425 " />
            <path fill="none" stroke-width="3.0" stroke-linecap="butt" stroke-opacity="1.0" stroke="rgb(0, 0, 0)" stroke-linejoin="round" d=" M 93.110, 164.943 86.443, 169.418 80.380, 175.841 79.290, 176.817 79.264, 176.840 73.775, 181.752 69.427, 185.642 68.275, 187.494 67.541, 188.241 69.917, 195.464 69.202, 203.565 69.499, 206.693 70.603, 208.529 72.774, 210.316 78.082, 216.581 81.787, 219.009 86.634, 220.370 96.581, 221.402 101.383, 221.901 104.684, 221.999 109.170, 221.304 114.144, 218.778 118.611, 217.062 122.908, 209.229 123.960, 207.310 124.231, 206.817 125.699, 204.141 125.767, 204.017 127.261, 197.631 127.626, 196.071 127.962, 195.446 " />
            <path fill="none" stroke-width="3.0" stroke-linecap="butt" stroke-opacity="1.0" stroke="rgb(0, 0, 0)" stroke-linejoin="round" d=" M 150.846, 200.740 150.947, 200.827 150.762, 200.854 146.351, 201.493 " />
            <path fill="none" stroke-width="3.0" stroke-linecap="butt" stroke-opacity="1.0" stroke="rgb(0, 0, 0)" stroke-linejoin="round" d=" M 133.217, 207.462 134.906, 207.385 137.183, 206.698 142.793, 204.598 146.513, 203.385 146.708, 203.167 150.200, 201.615 150.762, 200.854 150.846, 200.740 152.201, 198.902 160.260, 192.981 161.614, 191.986 171.335, 189.639 171.647, 189.563 176.941, 182.634 182.343, 174.219 182.637, 173.761 185.626, 165.058 183.937, 167.334 185.939, 157.537 186.712, 153.753 195.056, 153.404 199.248, 152.102 206.169, 144.885 207.811, 143.173 210.163, 140.836 212.790, 131.881 212.930, 129.599 211.803, 123.636 208.546, 117.472 204.370, 116.073 197.359, 116.983 194.959, 118.482 192.588, 117.873 " />
            <path fill="none" stroke-width="3.0" stroke-linecap="butt" stroke-opacity="1.0" stroke="rgb(0, 0, 0)" stroke-linejoin="round" d=" M 189.029, 145.741 190.512, 150.068 192.385, 146.645 " />
            <path fill="none" stroke-width="3.0" stroke-linecap="butt" stroke-opacity="1.0" stroke="rgb(0, 0, 0)" stroke-linejoin="round" d=" M 93.488, 134.983 94.682, 141.952 98.003, 151.385 98.421, 152.570 100.076, 157.282 100.081, 157.295 100.336, 156.160 " />
            <path fill="none" stroke-width="3.0" stroke-linecap="butt" stroke-opacity="1.0" stroke="rgb(0, 0, 0)" stroke-linejoin="round" d=" M 75.583, 131.361 73.412, 138.836 72.593, 140.025 74.601, 145.018 75.335, 149.492 75.388, 150.071 75.059, 154.934 73.780, 164.633 77.901, 173.744 79.290, 176.817 " />
            <path fill="none" stroke-width="3.0" stroke-linecap="butt" stroke-opacity="1.0" stroke="rgb(0, 0, 0)" stroke-linejoin="round" d=" M 79.264, 176.840 78.775, 176.396 76.876, 173.511 71.623, 165.002 70.061, 162.472 68.419, 170.862 69.460, 175.146 69.504, 175.239 71.894, 179.615 73.775, 181.752 " />
            <path fill="none" stroke-width="3.0" stroke-linecap="butt" stroke-opacity="1.0" stroke="rgb(0, 0, 0)" stroke-linejoin="round" d=" M 87.291, 138.978 87.369, 140.506 87.268, 141.520 88.079, 144.481 88.610, 146.652 89.742, 149.266 90.222, 150.334 90.810, 151.641 92.255, 153.407 93.703, 155.381 95.026, 156.253 97.937, 158.612 98.689, 158.948 99.482, 158.703 102.467, 157.820 " />
            <path fill="none" stroke-width="3.0" stroke-linecap="butt" stroke-opacity="1.0" stroke="rgb(0, 0, 0)" stroke-linejoin="round" d=" M 122.908, 209.229 125.367, 210.139 128.772, 209.296 132.102, 208.238 133.217, 207.462 133.402, 207.334 134.497, 206.572 137.180, 204.239 137.280, 204.242 142.744, 204.405 143.336, 204.353 145.878, 201.897 146.351, 201.493 147.215, 200.756 147.900, 198.840 148.051, 198.417 148.631, 196.407 153.973, 194.665 155.897, 193.503 156.869, 190.554 158.687, 188.294 159.101, 186.334 160.109, 183.095 159.955, 182.050 159.325, 178.053 157.594, 175.751 147.804, 173.715 146.659, 173.478 140.618, 181.383 139.682, 182.608 130.169, 185.690 128.916, 186.096 128.589, 190.079 126.464, 192.345 " />
            <path fill="none" stroke-width="3.0" stroke-linecap="butt" stroke-opacity="1.0" stroke="rgb(0, 0, 0)" stroke-linejoin="round" d=" M 129.743, 158.298 130.409, 156.717 131.629, 153.879 131.197, 148.924 131.054, 147.659 130.742, 146.950 128.249, 141.855 128.235, 141.843 128.141, 141.764 127.846, 141.505 " />
            <path fill="none" stroke-width="3.0" stroke-linecap="butt" stroke-opacity="1.0" stroke="rgb(0, 0, 0)" stroke-linejoin="round" d=" M 140.102, 146.172 140.137, 146.270 139.831, 147.542 " />
        </g>
    </g>
</svg>
