<?xml version='1.0' encoding='ascii'?>
<svg xmlns="http://www.w3.org/2000/svg" version="1.1" width="250" height="250">
    <g id="ViewLayer_LineSet" xmlns:inkscape="http://www.inkscape.org/namespaces/inkscape" inkscape:groupmode="lineset" inkscape:label="ViewLayer_LineSet">
        <g xmlns:inkscape="http://www.inkscape.org/namespaces/inkscape" inkscape:groupmode="layer" id="strokes" inkscape:label="strokes">
            <path fill="none" stroke-width="3.0" stroke-linecap="butt" stroke-opacity="1.0" stroke="rgb(0, 0, 0)" stroke-linejoin="round" d=" M 108.971, 108.513 104.181, 107.329 102.781, 107.803 98.929, 109.400 98.398, 109.800 98.293, 109.858 95.496, 115.042 95.333, 115.336 94.508, 121.978 94.490, 122.168 94.515, 122.354 94.683, 123.916 95.260, 126.437 " />
            <path fill="none" stroke-width="3.0" stroke-linecap="butt" stroke-opacity="1.0" stroke="rgb(0, 0, 0)" stroke-linejoin="round" d=" M 177.686, 89.244 171.869, 81.110 166.271, 73.281 160.695, 71.089 151.503, 67.149 142.312, 63.210 141.451, 62.841 139.591, 62.857 129.591, 62.890 119.591, 62.923 115.890, 62.935 105.891, 63.102 95.892, 63.269 93.440, 63.309 90.754, 63.342 81.826, 67.846 75.508, 71.034 67.988, 74.367 63.765, 83.432 59.542, 92.496 59.418, 92.763 63.059, 94.991 61.859, 95.853 61.088, 98.011 " />
            <path fill="none" stroke-width="3.0" stroke-linecap="butt" stroke-opacity="1.0" stroke="rgb(0, 0, 0)" stroke-linejoin="round" d=" M 189.570, 126.940 196.593, 120.489 197.330, 110.517 198.066, 100.544 198.396, 96.075 197.778, 91.511 197.759, 89.378 195.398, 84.196 190.921, 75.254 186.445, 66.312 182.267, 57.966 176.720, 52.105 170.328, 44.415 163.841, 36.609 161.086, 34.906 152.190, 30.340 143.303, 25.778 139.909, 25.987 129.913, 26.261 119.917, 26.534 109.921, 26.807 106.191, 26.910 101.983, 26.930 93.404, 32.067 87.740, 35.458 82.157, 39.431 76.164, 47.437 73.416, 51.108 66.922, 58.712 65.496, 60.382 61.725, 69.643 57.953, 78.904 57.381, 80.308 56.139, 88.459 55.291, 92.188 55.373, 99.329 56.706, 109.239 57.952, 118.500 61.340, 122.282 64.248, 126.638 " />
            <path fill="none" stroke-width="3.0" stroke-linecap="butt" stroke-opacity="1.0" stroke="rgb(0, 0, 0)" stroke-linejoin="round" d=" M 95.063, 126.541 90.812, 129.070 85.529, 132.214 84.403, 135.068 82.674, 135.837 83.211, 139.888 81.829, 142.031 80.594, 149.047 80.432, 149.967 80.252, 158.565 81.734, 159.376 85.604, 162.521 92.197, 168.344 93.672, 169.296 100.922, 173.977 107.453, 175.517 114.422, 176.553 120.374, 175.844 123.561, 175.068 132.736, 171.091 139.808, 168.026 139.889, 167.943 142.221, 165.556 145.563, 156.131 145.912, 155.147 146.527, 152.855 147.025, 150.999 146.578, 146.715 144.963, 142.905 143.416, 136.762 142.643, 133.692 141.558, 132.954 141.313, 132.788 135.651, 128.939 131.865, 126.099 129.460, 125.576 124.400, 124.475 123.215, 124.217 115.386, 123.116 115.135, 123.140 105.179, 124.081 104.478, 124.147 97.558, 125.228 96.868, 125.591 95.260, 126.437 95.063, 126.541 " />
            <path fill="none" stroke-width="3.0" stroke-linecap="butt" stroke-opacity="1.0" stroke="rgb(0, 0, 0)" stroke-linejoin="round" d=" M 120.888, 184.004 128.032, 187.539 131.078, 189.046 134.793, 188.806 140.073, 188.466 142.665, 186.271 142.688, 186.252 143.468, 185.591 146.530, 182.999 " />
            <path fill="none" stroke-width="3.0" stroke-linecap="butt" stroke-opacity="1.0" stroke="rgb(0, 0, 0)" stroke-linejoin="round" d=" M 88.383, 181.854 91.584, 185.064 94.015, 187.500 97.342, 187.878 102.331, 188.444 " />
            <path fill="none" stroke-width="3.0" stroke-linecap="butt" stroke-opacity="1.0" stroke="rgb(0, 0, 0)" stroke-linejoin="round" d=" M 76.419, 103.392 81.190, 96.583 86.044, 91.404 94.484, 87.577 102.987, 87.715 106.254, 90.539 " />
            <path fill="none" stroke-width="3.0" stroke-linecap="butt" stroke-opacity="1.0" stroke="rgb(0, 0, 0)" stroke-linejoin="round" d=" M 112.531, 98.136 110.331, 90.488 106.685, 83.551 101.235, 80.252 " />
            <path fill="none" stroke-width="3.0" stroke-linecap="butt" stroke-opacity="1.0" stroke="rgb(0, 0, 0)" stroke-linejoin="round" d=" M 133.621, 82.450 128.117, 88.491 125.896, 98.242 125.858, 98.409 131.070, 91.947 136.352, 87.896 145.906, 87.698 155.110, 91.554 160.283, 96.758 165.263, 103.683 " />
            <path fill="none" stroke-width="3.0" stroke-linecap="butt" stroke-opacity="1.0" stroke="rgb(0, 0, 0)" stroke-linejoin="round" d=" M 144.580, 136.720 149.762, 131.315 152.303, 124.086 152.365, 114.086 152.370, 113.320 148.887, 104.523 142.351, 98.940 132.964, 99.746 130.337, 104.669 130.156, 108.986 " />
            <path fill="none" stroke-width="3.0" stroke-linecap="butt" stroke-opacity="1.0" stroke="rgb(0, 0, 0)" stroke-linejoin="round" d=" M 109.669, 105.763 107.494, 100.910 99.013, 100.161 93.207, 105.966 89.848, 114.183 89.591, 124.180 89.584, 124.458 90.812, 129.070 " />
            <path fill="none" stroke-width="3.0" stroke-linecap="butt" stroke-opacity="1.0" stroke="rgb(0, 0, 0)" stroke-linejoin="round" d=" M 176.344, 98.380 181.709, 95.492 177.686, 89.244 " />
            <path fill="none" stroke-width="3.0" stroke-linecap="butt" stroke-opacity="1.0" stroke="rgb(0, 0, 0)" stroke-linejoin="round" d=" M 64.250, 126.542 62.506, 123.907 64.253, 126.305 64.250, 126.542 64.248, 126.638 64.183, 131.480 64.673, 131.310 64.666, 131.565 64.655, 132.014 62.872, 134.158 58.406, 141.046 57.668, 142.183 57.642, 144.064 57.596, 147.403 58.984, 151.326 61.284, 152.473 61.392, 156.087 60.882, 166.074 60.858, 166.537 60.758, 168.507 60.840, 169.313 60.886, 169.449 61.097, 170.022 66.188, 178.629 70.521, 185.956 74.009, 191.819 74.599, 192.117 74.698, 192.331 83.393, 197.271 92.087, 202.212 95.728, 204.280 103.712, 209.352 107.950, 211.329 117.303, 214.518 121.533, 216.528 124.508, 215.338 134.313, 213.371 137.574, 212.717 138.434, 212.380 146.939, 207.121 148.556, 206.121 157.423, 201.499 159.831, 200.244 167.742, 194.127 168.627, 193.443 173.189, 189.390 178.480, 180.905 181.253, 176.458 183.005, 172.249 183.615, 170.782 183.990, 169.296 185.868, 159.474 186.020, 158.682 186.043, 157.009 186.166, 156.535 186.451, 156.488 190.816, 148.576 191.298, 145.540 187.799, 137.994 185.985, 134.668 186.564, 131.809 186.642, 131.423 187.071, 129.307 " />
            <path fill="none" stroke-width="3.0" stroke-linecap="butt" stroke-opacity="1.0" stroke="rgb(0, 0, 0)" stroke-linejoin="round" d=" M 142.665, 186.271 142.687, 186.273 143.311, 186.324 144.220, 185.726 142.663, 187.731 142.687, 186.273 " />
            <path fill="none" stroke-width="3.0" stroke-linecap="butt" stroke-opacity="1.0" stroke="rgb(0, 0, 0)" stroke-linejoin="round" d=" M 57.642, 144.064 57.079, 146.112 56.233, 148.866 56.456, 154.292 56.959, 160.633 59.342, 162.911 60.858, 166.537 " />
            <path fill="none" stroke-width="3.0" stroke-linecap="butt" stroke-opacity="1.0" stroke="rgb(0, 0, 0)" stroke-linejoin="round" d=" M 64.666, 131.565 62.084, 133.816 58.950, 137.546 58.406, 141.046 " />
            <path fill="none" stroke-width="3.0" stroke-linecap="butt" stroke-opacity="1.0" stroke="rgb(0, 0, 0)" stroke-linejoin="round" d=" M 80.594, 149.047 80.014, 148.816 75.199, 143.600 70.210, 136.676 68.297, 140.483 67.503, 142.064 64.401, 147.758 64.009, 151.468 63.711, 153.628 64.345, 157.220 64.835, 159.544 65.784, 163.140 66.963, 165.165 69.592, 166.169 71.272, 166.811 73.975, 168.637 75.332, 171.663 76.786, 175.560 79.282, 178.437 80.910, 180.240 85.299, 181.070 86.192, 181.089 88.081, 181.131 88.532, 181.499 90.888, 183.422 91.584, 185.064 " />
            <path fill="none" stroke-width="3.0" stroke-linecap="butt" stroke-opacity="1.0" stroke="rgb(0, 0, 0)" stroke-linejoin="round" d=" M 103.626, 187.845 104.404, 188.490 109.645, 191.566 115.514, 192.063 125.465, 193.052 126.072, 193.113 129.874, 191.534 134.793, 188.806 " />
            <path fill="none" stroke-width="3.0" stroke-linecap="butt" stroke-opacity="1.0" stroke="rgb(0, 0, 0)" stroke-linejoin="round" d=" M 106.254, 90.539 107.240, 91.379 107.290, 91.435 108.117, 92.368 " />
            <path fill="none" stroke-width="3.0" stroke-linecap="butt" stroke-opacity="1.0" stroke="rgb(0, 0, 0)" stroke-linejoin="round" d=" M 112.682, 183.657 115.733, 182.266 115.858, 182.270 117.254, 182.312 118.080, 182.615 118.636, 182.818 120.888, 184.004 " />
            <path fill="none" stroke-width="3.0" stroke-linecap="butt" stroke-opacity="1.0" stroke="rgb(0, 0, 0)" stroke-linejoin="round" d=" M 141.558, 132.954 142.457, 131.744 144.442, 128.916 144.826, 126.775 145.531, 121.676 144.660, 115.348 144.531, 114.517 141.460, 110.147 140.910, 109.369 136.690, 108.089 134.512, 107.507 130.225, 108.964 " />
            <path fill="none" stroke-width="3.0" stroke-linecap="butt" stroke-opacity="1.0" stroke="rgb(0, 0, 0)" stroke-linejoin="round" d=" M 143.468, 185.591 146.334, 182.555 146.500, 182.379 149.054, 182.419 154.066, 181.691 156.332, 179.285 158.536, 177.128 159.954, 173.886 161.776, 170.165 166.691, 168.502 169.742, 166.775 170.837, 163.795 172.801, 161.279 173.552, 158.278 174.392, 155.251 174.163, 152.162 173.836, 149.213 170.169, 142.370 167.812, 137.666 162.761, 141.943 156.041, 149.348 155.730, 149.690 146.527, 152.855 " />
            <path fill="none" stroke-width="3.0" stroke-linecap="butt" stroke-opacity="1.0" stroke="rgb(0, 0, 0)" stroke-linejoin="round" d=" M 183.005, 172.249 187.561, 171.722 192.612, 169.349 195.222, 165.193 197.297, 163.622 198.639, 155.931 199.007, 151.632 198.000, 147.747 196.071, 141.782 195.118, 138.377 190.742, 133.721 189.533, 132.766 186.564, 131.809 " />
            <path fill="none" stroke-width="3.0" stroke-linecap="butt" stroke-opacity="1.0" stroke="rgb(0, 0, 0)" stroke-linejoin="round" d=" M 186.642, 131.423 189.570, 126.940 " />
        </g>
    </g>
</svg>
