<?xml version='1.0' encoding='ascii'?>
<svg xmlns="http://www.w3.org/2000/svg" version="1.1" width="250" height="250">
    <g id="ViewLayer_LineSet" xmlns:inkscape="http://www.inkscape.org/namespaces/inkscape" inkscape:groupmode="lineset" inkscape:label="ViewLayer_LineSet">
        <g xmlns:inkscape="http://www.inkscape.org/namespaces/inkscape" inkscape:groupmode="layer" id="strokes" inkscape:label="strokes">
            <path fill="none" stroke-width="3.0" stroke-linecap="butt" stroke-opacity="1.0" stroke="rgb(0, 0, 0)" stroke-linejoin="round" d=" M 136.980, 201.741 140.955, 197.970 141.769, 197.198 141.922, 197.053 142.186, 197.049 142.226, 197.048 146.316, 196.987 146.872, 196.912 148.982, 196.630 151.642, 193.977 153.327, 192.447 154.838, 189.172 156.304, 186.232 161.966, 184.134 164.319, 182.680 165.584, 179.338 167.423, 177.024 168.254, 174.097 169.219, 171.142 169.192, 170.548 169.106, 168.634 168.858, 165.401 168.412, 164.569 163.741, 155.841 162.641, 153.727 160.440, 155.823 154.045, 163.511 150.177, 168.162 140.823, 171.699 138.534, 172.564 " />
            <path fill="none" stroke-width="3.0" stroke-linecap="butt" stroke-opacity="1.0" stroke="rgb(0, 0, 0)" stroke-linejoin="round" d=" M 124.375, 109.841 125.212, 108.853 128.578, 105.738 " />
            <path fill="none" stroke-width="3.0" stroke-linecap="butt" stroke-opacity="1.0" stroke="rgb(0, 0, 0)" stroke-linejoin="round" d=" M 190.626, 123.204 197.262, 115.724 199.683, 112.995 200.868, 103.065 201.322, 99.255 198.720, 89.707 198.075, 82.372 193.064, 73.718 188.054, 65.063 183.044, 56.409 182.748, 55.899 181.407, 54.481 180.896, 53.443 173.207, 47.050 165.518, 40.656 164.679, 39.959 157.107, 33.724 147.933, 29.744 143.021, 27.614 135.266, 27.436 125.268, 27.646 115.270, 27.855 105.273, 28.064 104.101, 28.089 99.189, 28.281 94.303, 28.557 85.524, 33.345 78.792, 37.018 77.082, 38.251 76.565, 38.710 71.161, 47.124 66.124, 54.968 60.680, 62.170 57.596, 71.683 55.306, 78.745 55.874, 87.196 55.729, 92.372 57.773, 102.074 " />
            <path fill="none" stroke-width="3.0" stroke-linecap="butt" stroke-opacity="1.0" stroke="rgb(0, 0, 0)" stroke-linejoin="round" d=" M 172.457, 107.183 174.385, 108.341 172.254, 107.012 171.397, 106.478 171.836, 106.738 172.100, 106.883 172.254, 107.012 " />
            <path fill="none" stroke-width="3.0" stroke-linecap="butt" stroke-opacity="1.0" stroke="rgb(0, 0, 0)" stroke-linejoin="round" d=" M 65.107, 108.208 66.039, 106.668 " />
            <path fill="none" stroke-width="3.0" stroke-linecap="butt" stroke-opacity="1.0" stroke="rgb(0, 0, 0)" stroke-linejoin="round" d=" M 137.838, 111.295 138.033, 111.255 138.034, 111.256 138.066, 111.275 138.086, 111.287 138.404, 111.517 " />
            <path fill="none" stroke-width="3.0" stroke-linecap="butt" stroke-opacity="1.0" stroke="rgb(0, 0, 0)" stroke-linejoin="round" d=" M 132.762, 155.124 134.012, 156.074 134.996, 157.347 135.004, 157.357 135.212, 157.626 137.383, 167.387 138.534, 172.564 138.771, 173.630 138.707, 173.789 " />
            <path fill="none" stroke-width="3.0" stroke-linecap="butt" stroke-opacity="1.0" stroke="rgb(0, 0, 0)" stroke-linejoin="round" d=" M 136.122, 202.488 141.402, 197.895 142.249, 197.159 " />
            <path fill="none" stroke-width="3.0" stroke-linecap="butt" stroke-opacity="1.0" stroke="rgb(0, 0, 0)" stroke-linejoin="round" d=" M 72.671, 116.457 76.647, 110.112 80.858, 105.463 88.621, 102.748 93.965, 103.685 " />
            <path fill="none" stroke-width="3.0" stroke-linecap="butt" stroke-opacity="1.0" stroke="rgb(0, 0, 0)" stroke-linejoin="round" d=" M 106.611, 115.762 103.868, 108.462 100.084, 100.306 94.661, 95.935 " />
            <path fill="none" stroke-width="3.0" stroke-linecap="butt" stroke-opacity="1.0" stroke="rgb(0, 0, 0)" stroke-linejoin="round" d=" M 130.444, 104.036 140.346, 102.639 140.519, 102.615 150.137, 105.351 150.363, 105.415 155.873, 110.296 161.144, 116.964 160.806, 108.361 " />
            <path fill="none" stroke-width="3.0" stroke-linecap="butt" stroke-opacity="1.0" stroke="rgb(0, 0, 0)" stroke-linejoin="round" d=" M 127.344, 98.836 121.797, 105.816 120.042, 115.584 " />
            <path fill="none" stroke-width="3.0" stroke-linecap="butt" stroke-opacity="1.0" stroke="rgb(0, 0, 0)" stroke-linejoin="round" d=" M 129.460, 121.326 125.667, 122.864 " />
            <path fill="none" stroke-width="3.0" stroke-linecap="butt" stroke-opacity="1.0" stroke="rgb(0, 0, 0)" stroke-linejoin="round" d=" M 138.034, 111.256 128.272, 113.204 125.718, 118.532 125.667, 122.864 " />
            <path fill="none" stroke-width="3.0" stroke-linecap="butt" stroke-opacity="1.0" stroke="rgb(0, 0, 0)" stroke-linejoin="round" d=" M 105.203, 119.703 102.914, 114.327 94.836, 112.226 89.888, 116.624 87.316, 124.254 87.789, 134.242 89.845, 141.560 94.660, 146.469 102.616, 149.111 " />
            <path fill="none" stroke-width="3.0" stroke-linecap="butt" stroke-opacity="1.0" stroke="rgb(0, 0, 0)" stroke-linejoin="round" d=" M 130.984, 149.590 140.771, 147.535 141.559, 147.369 146.555, 142.193 149.063, 134.780 148.845, 124.782 148.839, 124.494 144.987, 116.230 " />
            <path fill="none" stroke-width="3.0" stroke-linecap="butt" stroke-opacity="1.0" stroke="rgb(0, 0, 0)" stroke-linejoin="round" d=" M 58.695, 106.452 59.081, 108.281 60.460, 112.683 61.333, 113.783 64.278, 117.143 61.215, 113.978 66.584, 121.469 66.785, 125.177 66.879, 126.902 67.927, 127.519 67.655, 129.807 65.148, 133.579 63.039, 137.954 61.066, 142.045 61.172, 148.166 61.535, 149.276 64.846, 153.553 64.789, 160.808 " />
            <path fill="none" stroke-width="3.0" stroke-linecap="butt" stroke-opacity="1.0" stroke="rgb(0, 0, 0)" stroke-linejoin="round" d=" M 145.589, 202.805 148.313, 201.464 149.155, 201.014 153.007, 199.678 152.991, 197.460 162.603, 194.702 169.367, 192.761 173.721, 186.806 179.291, 178.501 180.272, 177.039 182.063, 172.782 182.405, 171.431 184.196, 163.667 184.845, 160.850 184.991, 159.032 185.181, 158.491 185.448, 158.288 190.284, 149.535 190.489, 149.163 191.195, 146.497 189.236, 139.549 186.909, 133.066 188.577, 125.201 " />
            <path fill="none" stroke-width="3.0" stroke-linecap="butt" stroke-opacity="1.0" stroke="rgb(0, 0, 0)" stroke-linejoin="round" d=" M 69.304, 100.834 63.619, 96.891 63.472, 96.789 63.825, 96.812 63.619, 96.891 62.679, 97.253 61.673, 97.658 57.773, 102.074 53.771, 106.606 58.695, 106.452 66.315, 106.213 67.613, 106.173 66.039, 106.668 65.019, 106.990 62.630, 110.265 65.107, 108.208 " />
            <path fill="none" stroke-width="3.0" stroke-linecap="butt" stroke-opacity="1.0" stroke="rgb(0, 0, 0)" stroke-linejoin="round" d=" M 99.142, 150.121 96.343, 149.848 88.888, 155.662 88.711, 155.800 88.496, 155.935 81.537, 160.310 78.798, 165.676 78.738, 165.729 75.971, 168.182 76.871, 171.326 75.882, 173.826 75.381, 181.784 76.906, 188.048 77.034, 188.573 77.051, 188.643 77.076, 188.667 82.296, 193.767 84.264, 195.691 87.671, 199.478 92.695, 201.075 93.255, 201.189 103.055, 203.179 103.312, 203.232 108.414, 203.698 118.387, 202.963 119.132, 202.908 123.298, 202.412 123.802, 202.352 124.696, 202.246 125.987, 202.092 127.393, 201.925 127.464, 201.874 127.649, 201.761 127.820, 201.518 133.580, 193.344 136.496, 189.207 136.815, 187.640 137.333, 185.102 138.607, 178.860 139.119, 175.748 138.933, 174.309 138.707, 173.789 138.561, 173.450 138.378, 172.623 136.220, 162.859 135.004, 157.357 135.003, 157.351 134.996, 157.347 134.040, 156.678 132.762, 155.124 " />
            <path fill="none" stroke-width="3.0" stroke-linecap="butt" stroke-opacity="1.0" stroke="rgb(0, 0, 0)" stroke-linejoin="round" d=" M 73.181, 157.983 68.937, 151.216 67.932, 153.638 67.578, 154.489 64.789, 160.808 64.152, 162.252 64.123, 165.938 64.062, 167.692 65.071, 171.641 65.549, 173.326 67.008, 178.195 67.522, 179.070 69.964, 180.221 72.636, 181.481 74.318, 182.867 75.324, 184.731 76.771, 187.983 " />
            <path fill="none" stroke-width="3.0" stroke-linecap="butt" stroke-opacity="1.0" stroke="rgb(0, 0, 0)" stroke-linejoin="round" d=" M 66.785, 125.177 64.330, 128.455 64.355, 131.118 63.512, 135.493 63.004, 137.695 " />
            <path fill="none" stroke-width="3.0" stroke-linecap="butt" stroke-opacity="1.0" stroke="rgb(0, 0, 0)" stroke-linejoin="round" d=" M 69.964, 180.221 71.212, 184.303 72.400, 186.082 75.578, 187.409 76.771, 187.983 " />
            <path fill="none" stroke-width="3.0" stroke-linecap="butt" stroke-opacity="1.0" stroke="rgb(0, 0, 0)" stroke-linejoin="round" d=" M 93.255, 201.189 95.289, 202.909 96.027, 203.445 100.985, 207.074 108.762, 211.961 109.947, 212.671 118.719, 215.015 119.559, 215.193 120.352, 215.133 129.753, 213.916 129.871, 213.868 138.884, 209.535 139.365, 209.304 140.528, 208.670 143.655, 204.738 147.240, 199.681 147.625, 201.674 " />
            <path fill="none" stroke-width="3.0" stroke-linecap="butt" stroke-opacity="1.0" stroke="rgb(0, 0, 0)" stroke-linejoin="round" d=" M 93.965, 103.685 95.975, 103.902 96.097, 104.059 97.249, 105.536 99.442, 108.485 103.646, 111.964 " />
            <path fill="none" stroke-width="3.0" stroke-linecap="butt" stroke-opacity="1.0" stroke="rgb(0, 0, 0)" stroke-linejoin="round" d=" M 101.491, 120.562 101.472, 120.558 97.954, 121.534 94.949, 122.594 94.434, 123.414 92.762, 125.993 92.182, 127.692 92.060, 127.979 92.039, 133.822 92.034, 134.654 92.225, 135.560 93.461, 141.280 93.789, 141.780 96.011, 145.876 96.506, 146.513 96.653, 146.673 100.440, 147.662 103.131, 148.248 " />
            <path fill="none" stroke-width="3.0" stroke-linecap="butt" stroke-opacity="1.0" stroke="rgb(0, 0, 0)" stroke-linejoin="round" d=" M 123.298, 202.412 126.859, 203.680 128.954, 203.399 132.660, 202.890 " />
            <path fill="none" stroke-width="3.0" stroke-linecap="butt" stroke-opacity="1.0" stroke="rgb(0, 0, 0)" stroke-linejoin="round" d=" M 129.699, 149.072 130.810, 149.347 " />
            <path fill="none" stroke-width="3.0" stroke-linecap="butt" stroke-opacity="1.0" stroke="rgb(0, 0, 0)" stroke-linejoin="round" d=" M 129.699, 149.072 130.837, 149.336 130.949, 149.362 134.665, 148.130 137.326, 147.091 138.522, 145.258 140.715, 141.780 140.999, 139.472 141.433, 134.683 140.606, 130.476 140.009, 127.764 137.934, 125.241 135.954, 122.841 133.971, 122.371 130.554, 121.604 " />
            <path fill="none" stroke-width="3.0" stroke-linecap="butt" stroke-opacity="1.0" stroke="rgb(0, 0, 0)" stroke-linejoin="round" d=" M 146.872, 196.912 146.634, 199.102 140.808, 199.099 141.541, 197.871 141.402, 197.895 " />
            <path fill="none" stroke-width="3.0" stroke-linecap="butt" stroke-opacity="1.0" stroke="rgb(0, 0, 0)" stroke-linejoin="round" d=" M 184.196, 163.667 189.756, 164.545 189.937, 164.509 190.124, 164.389 196.416, 156.617 197.071, 155.809 199.642, 153.457 201.594, 145.722 202.082, 141.790 201.247, 137.496 198.662, 130.105 197.983, 128.605 195.550, 126.123 190.391, 125.017 189.315, 125.000 190.626, 123.204 " />
        </g>
    </g>
</svg>
