<?xml version='1.0' encoding='ascii'?>
<svg xmlns="http://www.w3.org/2000/svg" version="1.1" width="250" height="250">
    <g id="ViewLayer_LineSet" xmlns:inkscape="http://www.inkscape.org/namespaces/inkscape" inkscape:groupmode="lineset" inkscape:label="ViewLayer_LineSet">
        <g xmlns:inkscape="http://www.inkscape.org/namespaces/inkscape" inkscape:groupmode="layer" id="strokes" inkscape:label="strokes">
            <path fill="none" stroke-width="3.0" stroke-linecap="butt" stroke-opacity="1.0" stroke="rgb(0, 0, 0)" stroke-linejoin="round" d=" M 140.574, 156.584 145.344, 157.386 145.614, 157.301 146.047, 157.110 149.471, 154.355 150.268, 153.842 151.040, 152.656 152.537, 150.358 153.172, 149.437 154.735, 144.372 154.963, 143.599 154.930, 142.973 154.931, 142.801 154.937, 141.959 154.953, 139.777 154.955, 139.546 154.968, 137.851 154.927, 137.540 154.916, 137.479 152.577, 134.915 151.008, 133.285 150.360, 133.179 149.797, 133.087 148.937, 132.935 " />
            <path fill="none" stroke-width="3.0" stroke-linecap="butt" stroke-opacity="1.0" stroke="rgb(0, 0, 0)" stroke-linejoin="round" d=" M 195.606, 126.581 189.891, 121.696 187.282, 119.284 187.049, 119.100 186.994, 119.036 186.986, 119.098 182.946, 117.161 " />
            <path fill="none" stroke-width="3.0" stroke-linecap="butt" stroke-opacity="1.0" stroke="rgb(0, 0, 0)" stroke-linejoin="round" d=" M 172.009, 42.446 163.306, 37.521 162.443, 37.033 152.459, 36.484 148.280, 36.254 138.288, 35.860 135.279, 35.741 125.286, 35.366 119.541, 35.150 109.544, 34.915 101.840, 34.734 97.712, 36.215 89.281, 41.593 80.827, 46.986 72.584, 52.647 71.419, 53.447 67.185, 59.838 59.481, 66.214 58.005, 67.435 52.322, 75.663 50.641, 78.097 49.000, 87.508 45.480, 95.837 47.531, 105.624 47.980, 107.768 54.679, 115.192 56.318, 117.008 57.505, 118.130 57.339, 118.191 " />
            <path fill="none" stroke-width="3.0" stroke-linecap="butt" stroke-opacity="1.0" stroke="rgb(0, 0, 0)" stroke-linejoin="round" d=" M 72.018, 126.063 72.018, 126.063 76.295, 123.175 74.237, 122.413 70.308, 123.768 71.660, 124.051 73.606, 124.877 72.018, 126.063 72.018, 126.063 " />
            <path fill="none" stroke-width="3.0" stroke-linecap="butt" stroke-opacity="1.0" stroke="rgb(0, 0, 0)" stroke-linejoin="round" d=" M 152.729, 167.178 151.480, 166.518 " />
            <path fill="none" stroke-width="3.0" stroke-linecap="butt" stroke-opacity="1.0" stroke="rgb(0, 0, 0)" stroke-linejoin="round" d=" M 150.321, 133.118 148.937, 132.935 145.556, 132.490 142.425, 134.163 " />
            <path fill="none" stroke-width="3.0" stroke-linecap="butt" stroke-opacity="1.0" stroke="rgb(0, 0, 0)" stroke-linejoin="round" d=" M 98.880, 133.877 98.427, 143.042 100.769, 150.164 105.575, 154.500 110.369, 156.144 " />
            <path fill="none" stroke-width="3.0" stroke-linecap="butt" stroke-opacity="1.0" stroke="rgb(0, 0, 0)" stroke-linejoin="round" d=" M 122.511, 132.263 120.157, 126.996 " />
            <path fill="none" stroke-width="3.0" stroke-linecap="butt" stroke-opacity="1.0" stroke="rgb(0, 0, 0)" stroke-linejoin="round" d=" M 151.061, 152.645 156.277, 147.979 159.064, 141.234 160.599, 132.680 158.782, 126.067 " />
            <path fill="none" stroke-width="3.0" stroke-linecap="butt" stroke-opacity="1.0" stroke="rgb(0, 0, 0)" stroke-linejoin="round" d=" M 57.131, 118.095 53.865, 117.835 49.066, 117.672 48.779, 118.038 48.658, 118.211 45.553, 127.209 44.889, 131.371 45.434, 135.255 47.371, 142.374 50.460, 145.551 56.690, 153.186 60.406, 154.144 " />
            <path fill="none" stroke-width="3.0" stroke-linecap="butt" stroke-opacity="1.0" stroke="rgb(0, 0, 0)" stroke-linejoin="round" d=" M 57.625, 119.451 58.512, 120.519 58.652, 121.370 60.269, 129.930 58.655, 136.481 56.855, 144.582 57.411, 148.235 60.406, 154.144 61.059, 155.433 62.598, 156.920 63.593, 159.551 63.916, 165.935 65.055, 170.209 65.302, 170.998 66.289, 174.042 69.021, 178.031 74.884, 186.133 77.066, 189.147 86.407, 191.707 89.902, 193.265 " />
            <path fill="none" stroke-width="3.0" stroke-linecap="butt" stroke-opacity="1.0" stroke="rgb(0, 0, 0)" stroke-linejoin="round" d=" M 107.960, 187.412 107.663, 187.132 108.027, 185.659 108.459, 183.909 108.922, 182.035 108.558, 184.070 108.528, 184.238 107.960, 187.412 107.830, 188.139 107.713, 189.158 107.183, 192.863 107.544, 196.564 107.754, 198.707 108.492, 206.256 108.493, 206.266 108.528, 206.627 108.550, 206.853 108.835, 208.890 109.018, 209.736 117.621, 214.835 117.799, 214.940 122.573, 218.092 126.456, 218.771 131.494, 218.974 141.476, 218.376 148.191, 217.974 151.587, 217.459 153.387, 216.990 159.997, 210.484 165.012, 206.484 167.868, 200.483 169.412, 192.398 168.656, 190.461 168.002, 189.588 167.605, 189.058 164.508, 184.922 161.337, 177.685 160.060, 174.770 156.042, 171.145 152.729, 167.178 " />
            <path fill="none" stroke-width="3.0" stroke-linecap="butt" stroke-opacity="1.0" stroke="rgb(0, 0, 0)" stroke-linejoin="round" d=" M 108.459, 183.909 107.745, 182.751 98.369, 179.274 96.668, 178.643 94.023, 175.929 88.144, 167.722 83.187, 166.010 78.485, 174.353 78.401, 176.258 78.208, 179.449 78.917, 181.885 79.900, 184.676 81.846, 189.052 82.755, 190.367 88.112, 192.148 89.902, 193.265 90.329, 193.532 91.415, 195.444 93.011, 198.634 96.875, 202.057 97.268, 202.392 97.916, 202.481 100.615, 202.588 103.805, 202.714 108.493, 206.266 " />
            <path fill="none" stroke-width="3.0" stroke-linecap="butt" stroke-opacity="1.0" stroke="rgb(0, 0, 0)" stroke-linejoin="round" d=" M 100.615, 202.588 101.851, 203.385 102.218, 203.608 106.434, 205.729 108.528, 206.627 " />
            <path fill="none" stroke-width="3.0" stroke-linecap="butt" stroke-opacity="1.0" stroke="rgb(0, 0, 0)" stroke-linejoin="round" d=" M 111.070, 133.677 111.053, 133.683 108.451, 137.090 107.240, 138.633 106.680, 141.785 106.070, 145.139 106.897, 150.165 107.148, 151.632 110.206, 155.929 110.369, 156.144 110.595, 156.442 113.961, 157.375 115.289, 157.743 116.065, 157.927 " />
            <path fill="none" stroke-width="3.0" stroke-linecap="butt" stroke-opacity="1.0" stroke="rgb(0, 0, 0)" stroke-linejoin="round" d=" M 142.425, 134.163 142.688, 132.064 142.924, 130.213 143.929, 128.350 " />
            <path fill="none" stroke-width="3.0" stroke-linecap="butt" stroke-opacity="1.0" stroke="rgb(0, 0, 0)" stroke-linejoin="round" d=" M 168.002, 189.588 174.347, 186.400 175.355, 185.288 176.637, 181.473 177.144, 180.790 178.605, 176.821 179.068, 175.664 179.390, 172.404 179.495, 170.825 178.748, 168.779 175.970, 161.175 170.428, 167.745 165.416, 175.002 162.904, 176.230 161.337, 177.685 " />
            <path fill="none" stroke-width="3.0" stroke-linecap="butt" stroke-opacity="1.0" stroke="rgb(0, 0, 0)" stroke-linejoin="round" d=" M 178.748, 168.779 178.762, 168.753 179.169, 165.929 179.421, 155.932 179.485, 153.394 182.335, 148.203 182.773, 147.130 184.264, 141.113 181.432, 133.335 " />
            <path fill="none" stroke-width="3.0" stroke-linecap="butt" stroke-opacity="1.0" stroke="rgb(0, 0, 0)" stroke-linejoin="round" d=" M 182.475, 117.013 183.225, 116.101 188.311, 107.492 188.406, 107.332 192.206, 98.082 193.168, 95.741 194.172, 90.247 196.247, 82.922 193.458, 73.319 191.281, 65.825 188.506, 61.593 185.010, 55.294 177.890, 48.272 177.709, 48.093 172.009, 42.446 " />
            <path fill="none" stroke-width="3.0" stroke-linecap="butt" stroke-opacity="1.0" stroke="rgb(0, 0, 0)" stroke-linejoin="round" d=" M 181.762, 120.254 190.858, 124.410 195.606, 126.581 " />
        </g>
    </g>
</svg>
