<?xml version='1.0' encoding='ascii'?>
<svg xmlns="http://www.w3.org/2000/svg" version="1.1" width="250" height="250">
    <g id="ViewLayer_LineSet" xmlns:inkscape="http://www.inkscape.org/namespaces/inkscape" inkscape:groupmode="lineset" inkscape:label="ViewLayer_LineSet">
        <g xmlns:inkscape="http://www.inkscape.org/namespaces/inkscape" inkscape:groupmode="layer" id="strokes" inkscape:label="strokes">
            <path fill="none" stroke-width="3.0" stroke-linecap="butt" stroke-opacity="1.0" stroke="rgb(0, 0, 0)" stroke-linejoin="round" d=" M 138.607, 156.647 143.522, 157.487 143.991, 157.334 144.880, 156.943 148.031, 154.550 148.694, 154.142 149.361, 153.127 151.178, 150.362 151.679, 149.637 153.344, 143.994 153.441, 143.647 153.418, 143.368 153.375, 141.092 152.903, 138.089 152.799, 137.534 150.567, 135.136 148.786, 133.298 148.280, 133.215 147.724, 133.124 146.890, 132.978 " />
            <path fill="none" stroke-width="3.0" stroke-linecap="butt" stroke-opacity="1.0" stroke="rgb(0, 0, 0)" stroke-linejoin="round" d=" M 192.155, 126.288 187.179, 121.945 186.057, 119.631 183.791, 118.148 183.535, 117.981 " />
            <path fill="none" stroke-width="3.0" stroke-linecap="butt" stroke-opacity="1.0" stroke="rgb(0, 0, 0)" stroke-linejoin="round" d=" M 168.622, 41.121 160.009, 36.525 150.018, 36.096 145.289, 35.894 135.293, 35.621 132.033, 35.532 122.036, 35.271 116.268, 35.121 106.269, 35.007 99.138, 34.926 94.211, 36.849 85.945, 42.477 79.188, 47.077 71.095, 52.951 68.640, 54.732 65.664, 59.817 58.908, 65.683 53.580, 74.146 49.482, 80.656 48.786, 87.610 46.398, 93.715 48.746, 103.435 49.958, 108.456 56.826, 115.724 57.796, 116.750 59.261, 118.271 " />
            <path fill="none" stroke-width="3.0" stroke-linecap="butt" stroke-opacity="1.0" stroke="rgb(0, 0, 0)" stroke-linejoin="round" d=" M 69.363, 126.002 76.037, 121.746 73.206, 120.713 67.824, 122.481 69.349, 122.953 71.716, 124.157 69.363, 126.002 " />
            <path fill="none" stroke-width="3.0" stroke-linecap="butt" stroke-opacity="1.0" stroke="rgb(0, 0, 0)" stroke-linejoin="round" d=" M 150.388, 167.670 149.788, 167.169 152.484, 171.768 154.431, 180.364 151.727, 181.700 151.298, 185.294 " />
            <path fill="none" stroke-width="3.0" stroke-linecap="butt" stroke-opacity="1.0" stroke="rgb(0, 0, 0)" stroke-linejoin="round" d=" M 148.240, 133.156 146.890, 132.978 143.213, 132.490 139.873, 134.212 " />
            <path fill="none" stroke-width="3.0" stroke-linecap="butt" stroke-opacity="1.0" stroke="rgb(0, 0, 0)" stroke-linejoin="round" d=" M 96.741, 133.642 96.563, 142.780 98.970, 149.896 103.878, 154.266 107.974, 155.739 " />
            <path fill="none" stroke-width="3.0" stroke-linecap="butt" stroke-opacity="1.0" stroke="rgb(0, 0, 0)" stroke-linejoin="round" d=" M 119.664, 132.126 117.231, 126.846 " />
            <path fill="none" stroke-width="3.0" stroke-linecap="butt" stroke-opacity="1.0" stroke="rgb(0, 0, 0)" stroke-linejoin="round" d=" M 149.979, 152.833 155.178, 148.180 157.911, 141.410 158.140, 139.800 158.226, 139.194 159.138, 132.793 156.937, 126.114 " />
            <path fill="none" stroke-width="3.0" stroke-linecap="butt" stroke-opacity="1.0" stroke="rgb(0, 0, 0)" stroke-linejoin="round" d=" M 57.465, 117.829 57.081, 117.444 57.401, 117.826 59.445, 120.267 59.847, 122.573 61.121, 129.531 59.692, 134.812 57.423, 144.040 58.007, 148.188 60.316, 152.863 60.944, 154.135 63.171, 156.385 64.485, 160.364 65.101, 169.912 65.633, 171.793 65.765, 172.136 66.214, 173.484 67.507, 175.384 73.246, 183.572 76.837, 188.696 81.145, 189.926 " />
            <path fill="none" stroke-width="3.0" stroke-linecap="butt" stroke-opacity="1.0" stroke="rgb(0, 0, 0)" stroke-linejoin="round" d=" M 106.893, 187.829 104.768, 185.959 104.535, 185.754 105.120, 183.383 106.860, 176.322 105.280, 183.602 104.768, 185.959 104.397, 187.670 104.027, 189.682 102.477, 197.207 102.469, 197.246 102.618, 199.133 102.680, 199.926 102.896, 202.656 102.943, 203.247 102.986, 203.796 103.111, 205.384 104.654, 209.083 113.120, 214.406 113.208, 214.461 118.231, 218.025 121.769, 218.692 126.771, 218.978 136.762, 218.557 143.117, 218.289 146.988, 217.763 149.152, 217.222 155.429, 211.322 161.102, 206.967 164.515, 200.017 165.476, 195.350 164.803, 193.411 164.305, 191.976 163.685, 190.187 160.459, 185.425 157.901, 178.953 155.753, 173.521 152.859, 170.839 150.388, 167.670 " />
            <path fill="none" stroke-width="3.0" stroke-linecap="butt" stroke-opacity="1.0" stroke="rgb(0, 0, 0)" stroke-linejoin="round" d=" M 57.401, 117.826 51.618, 117.591 51.043, 118.360 50.836, 118.719 48.228, 127.144 47.634, 130.950 48.281, 135.121 50.085, 141.849 53.294, 145.242 58.930, 152.499 60.316, 152.863 " />
            <path fill="none" stroke-width="3.0" stroke-linecap="butt" stroke-opacity="1.0" stroke="rgb(0, 0, 0)" stroke-linejoin="round" d=" M 105.120, 183.383 104.130, 182.035 94.794, 178.451 93.942, 178.124 91.536, 175.620 85.727, 167.480 85.632, 167.346 80.917, 165.114 76.291, 173.810 76.243, 175.950 76.129, 178.870 76.946, 181.528 77.866, 184.067 79.879, 188.659 80.632, 189.748 81.145, 189.926 84.340, 191.033 86.121, 191.650 87.053, 192.248 88.198, 192.983 89.282, 194.773 91.038, 198.145 95.013, 201.687 95.296, 201.929 95.774, 202.003 100.320, 202.261 101.783, 202.344 102.943, 203.247 " />
            <path fill="none" stroke-width="3.0" stroke-linecap="butt" stroke-opacity="1.0" stroke="rgb(0, 0, 0)" stroke-linejoin="round" d=" M 100.320, 202.261 101.602, 203.063 102.233, 203.418 102.986, 203.796 " />
            <path fill="none" stroke-width="3.0" stroke-linecap="butt" stroke-opacity="1.0" stroke="rgb(0, 0, 0)" stroke-linejoin="round" d=" M 108.550, 133.516 108.463, 133.542 106.118, 136.654 104.697, 138.489 104.269, 141.151 103.645, 144.975 104.693, 150.669 104.845, 151.465 107.974, 155.739 108.224, 156.081 108.383, 156.283 113.035, 157.559 113.228, 157.612 114.055, 157.801 " />
            <path fill="none" stroke-width="3.0" stroke-linecap="butt" stroke-opacity="1.0" stroke="rgb(0, 0, 0)" stroke-linejoin="round" d=" M 140.028, 132.464 140.180, 130.766 140.227, 130.388 140.229, 130.371 141.642, 127.598 " />
            <path fill="none" stroke-width="3.0" stroke-linecap="butt" stroke-opacity="1.0" stroke="rgb(0, 0, 0)" stroke-linejoin="round" d=" M 164.803, 193.411 165.971, 191.354 166.810, 190.171 173.956, 186.750 174.071, 186.661 175.589, 182.249 176.260, 181.362 177.628, 177.577 178.171, 176.203 178.410, 173.114 178.497, 171.315 178.362, 170.976 174.674, 161.689 170.402, 166.139 164.625, 174.301 163.742, 175.550 159.285, 177.624 157.901, 178.953 " />
            <path fill="none" stroke-width="3.0" stroke-linecap="butt" stroke-opacity="1.0" stroke="rgb(0, 0, 0)" stroke-linejoin="round" d=" M 178.362, 170.976 179.141, 169.581 179.797, 164.811 180.504, 154.836 180.571, 153.891 183.363, 149.331 184.288, 147.186 185.728, 141.623 184.078, 136.918 " />
            <path fill="none" stroke-width="3.0" stroke-linecap="butt" stroke-opacity="1.0" stroke="rgb(0, 0, 0)" stroke-linejoin="round" d=" M 184.078, 136.918 184.795, 134.172 185.972, 128.901 185.619, 126.542 184.994, 122.823 " />
            <path fill="none" stroke-width="3.0" stroke-linecap="butt" stroke-opacity="1.0" stroke="rgb(0, 0, 0)" stroke-linejoin="round" d=" M 183.556, 117.757 187.351, 113.185 189.586, 109.140 193.057, 99.762 195.492, 93.186 195.894, 89.417 197.167, 84.587 193.872, 75.145 190.577, 65.704 189.663, 63.085 188.007, 60.753 185.797, 57.130 178.496, 50.297 175.876, 47.845 168.622, 41.121 " />
            <path fill="none" stroke-width="3.0" stroke-linecap="butt" stroke-opacity="1.0" stroke="rgb(0, 0, 0)" stroke-linejoin="round" d=" M 182.038, 121.393 184.994, 122.823 192.155, 126.288 " />
        </g>
    </g>
</svg>
