<?xml version='1.0' encoding='ascii'?>
<svg xmlns="http://www.w3.org/2000/svg" version="1.1" width="250" height="250">
    <g id="ViewLayer_LineSet" xmlns:inkscape="http://www.inkscape.org/namespaces/inkscape" inkscape:groupmode="lineset" inkscape:label="ViewLayer_LineSet">
        <g xmlns:inkscape="http://www.inkscape.org/namespaces/inkscape" inkscape:groupmode="layer" id="strokes" inkscape:label="strokes">
            <path fill="none" stroke-width="3.0" stroke-linecap="butt" stroke-opacity="1.0" stroke="rgb(0, 0, 0)" stroke-linejoin="round" d=" M 144.384, 193.977 145.873, 192.456 146.433, 191.883 148.561, 189.709 148.745, 189.521 152.346, 189.447 155.987, 188.867 158.527, 186.147 160.313, 184.390 161.763, 181.082 161.869, 180.839 163.452, 177.636 165.789, 176.739 168.866, 175.557 171.273, 174.034 172.425, 170.668 174.103, 168.401 174.926, 165.149 175.708, 162.397 175.525, 159.288 175.267, 156.486 171.319, 148.896 169.381, 144.951 165.641, 148.500 159.328, 156.255 157.727, 158.221 150.034, 161.198 " />
            <path fill="none" stroke-width="3.0" stroke-linecap="butt" stroke-opacity="1.0" stroke="rgb(0, 0, 0)" stroke-linejoin="round" d=" M 107.827, 195.388 108.657, 195.059 117.952, 191.370 118.816, 191.027 119.261, 191.047 120.325, 191.066 124.235, 192.302 130.965, 195.293 " />
            <path fill="none" stroke-width="3.0" stroke-linecap="butt" stroke-opacity="1.0" stroke="rgb(0, 0, 0)" stroke-linejoin="round" d=" M 132.095, 99.699 132.711, 98.987 132.722, 98.975 134.169, 97.727 " />
            <path fill="none" stroke-width="3.0" stroke-linecap="butt" stroke-opacity="1.0" stroke="rgb(0, 0, 0)" stroke-linejoin="round" d=" M 184.461, 102.074 177.848, 94.574 171.234, 87.073 167.900, 83.293 165.611, 82.494 157.001, 79.319 " />
            <path fill="none" stroke-width="3.0" stroke-linecap="butt" stroke-opacity="1.0" stroke="rgb(0, 0, 0)" stroke-linejoin="round" d=" M 188.999, 123.331 195.228, 116.604 196.454, 106.679 197.681, 96.755 198.227, 92.339 197.796, 89.482 197.822, 87.784 195.404, 82.487 190.960, 73.529 186.515, 64.571 182.797, 57.076 178.644, 52.651 172.316, 44.908 165.988, 37.164 164.514, 35.360 164.107, 34.970 163.961, 34.825 155.043, 30.301 146.124, 25.778 143.386, 24.389 142.569, 24.343 132.570, 24.378 122.570, 24.413 112.570, 24.448 102.570, 24.483 102.055, 24.484 102.043, 24.485 102.031, 24.485 101.934, 24.537 93.340, 29.648 84.745, 34.760 83.451, 35.530 81.411, 37.010 75.398, 45.000 69.842, 52.385 64.002, 59.115 60.119, 68.330 56.236, 77.546 53.561, 83.895 53.172, 87.985 52.714, 90.188 53.035, 95.411 54.747, 105.263 56.459, 115.116 56.584, 115.836 60.432, 120.372 65.877, 127.807 65.482, 127.925 " />
            <path fill="none" stroke-width="3.0" stroke-linecap="butt" stroke-opacity="1.0" stroke="rgb(0, 0, 0)" stroke-linejoin="round" d=" M 133.891, 196.621 142.549, 195.646 145.710, 192.772 146.827, 191.756 148.715, 190.039 " />
            <path fill="none" stroke-width="3.0" stroke-linecap="butt" stroke-opacity="1.0" stroke="rgb(0, 0, 0)" stroke-linejoin="round" d=" M 91.824, 189.317 97.585, 195.048 105.838, 196.260 " />
            <path fill="none" stroke-width="3.0" stroke-linecap="butt" stroke-opacity="1.0" stroke="rgb(0, 0, 0)" stroke-linejoin="round" d=" M 76.920, 109.152 81.606, 102.365 86.462, 97.288 95.095, 93.869 103.903, 94.591 " />
            <path fill="none" stroke-width="3.0" stroke-linecap="butt" stroke-opacity="1.0" stroke="rgb(0, 0, 0)" stroke-linejoin="round" d=" M 113.911, 105.753 111.584, 98.104 107.624, 90.468 101.887, 86.608 " />
            <path fill="none" stroke-width="3.0" stroke-linecap="butt" stroke-opacity="1.0" stroke="rgb(0, 0, 0)" stroke-linejoin="round" d=" M 134.169, 97.727 137.750, 94.632 147.291, 93.890 156.471, 97.323 161.627, 102.431 166.564, 109.291 " />
            <path fill="none" stroke-width="3.0" stroke-linecap="butt" stroke-opacity="1.0" stroke="rgb(0, 0, 0)" stroke-linejoin="round" d=" M 134.977, 89.208 129.535, 95.767 127.395, 105.535 127.338, 105.796 " />
            <path fill="none" stroke-width="3.0" stroke-linecap="butt" stroke-opacity="1.0" stroke="rgb(0, 0, 0)" stroke-linejoin="round" d=" M 135.113, 113.686 131.459, 115.036 " />
            <path fill="none" stroke-width="3.0" stroke-linecap="butt" stroke-opacity="1.0" stroke="rgb(0, 0, 0)" stroke-linejoin="round" d=" M 139.467, 142.429 145.790, 141.586 150.906, 136.181 153.371, 128.777 153.446, 118.777 153.451, 118.121 149.998, 109.484 143.471, 104.122 134.136, 105.468 131.578, 110.655 131.459, 115.036 " />
            <path fill="none" stroke-width="3.0" stroke-linecap="butt" stroke-opacity="1.0" stroke="rgb(0, 0, 0)" stroke-linejoin="round" d=" M 110.770, 111.873 108.419, 106.691 99.664, 105.332 93.772, 110.640 90.542, 118.787 90.558, 128.787 90.558, 129.164 92.668, 136.398 97.594, 141.347 " />
            <path fill="none" stroke-width="3.0" stroke-linecap="butt" stroke-opacity="1.0" stroke="rgb(0, 0, 0)" stroke-linejoin="round" d=" M 177.452, 102.007 184.450, 102.433 184.253, 102.236 184.096, 102.167 184.461, 102.074 " />
            <path fill="none" stroke-width="3.0" stroke-linecap="butt" stroke-opacity="1.0" stroke="rgb(0, 0, 0)" stroke-linejoin="round" d=" M 63.504, 124.735 61.316, 121.791 63.503, 124.727 63.504, 124.735 63.739, 128.446 63.903, 131.031 63.952, 131.883 63.779, 132.200 59.251, 141.116 58.112, 143.357 58.232, 148.317 59.863, 152.546 62.298, 154.429 62.768, 158.551 62.713, 165.221 62.663, 171.225 62.735, 171.684 62.763, 171.758 62.875, 172.050 63.966, 173.762 69.418, 182.145 74.907, 190.584 84.093, 194.537 84.482, 194.704 86.430, 197.657 95.438, 201.998 96.950, 202.727 100.475, 204.727 101.396, 205.201 " />
            <path fill="none" stroke-width="3.0" stroke-linecap="butt" stroke-opacity="1.0" stroke="rgb(0, 0, 0)" stroke-linejoin="round" d=" M 99.093, 201.547 99.591, 202.800 99.851, 203.187 100.729, 204.496 101.396, 205.201 103.987, 207.942 110.304, 211.481 114.616, 211.839 114.625, 211.839 " />
            <path fill="none" stroke-width="3.0" stroke-linecap="butt" stroke-opacity="1.0" stroke="rgb(0, 0, 0)" stroke-linejoin="round" d=" M 138.474, 208.921 144.348, 206.106 149.071, 203.321 158.187, 199.209 165.689, 195.826 165.622, 194.875 170.449, 193.154 173.742, 188.265 179.169, 179.866 182.319, 174.990 183.506, 172.294 183.731, 171.539 184.286, 168.505 184.796, 165.711 185.058, 158.570 185.500, 156.496 186.486, 155.951 190.104, 148.701 190.759, 145.256 186.965, 136.348 185.415, 133.282 186.113, 128.665 186.353, 127.078 186.453, 126.411 186.518, 125.984 186.526, 125.930 186.718, 125.689 186.518, 125.984 186.444, 126.092 185.856, 127.781 " />
            <path fill="none" stroke-width="3.0" stroke-linecap="butt" stroke-opacity="1.0" stroke="rgb(0, 0, 0)" stroke-linejoin="round" d=" M 85.929, 77.615 76.694, 81.449 74.308, 82.440 70.147, 84.029 64.477, 92.266 59.716, 99.183 64.686, 100.554 63.074, 101.397 61.566, 103.599 67.675, 102.775 " />
            <path fill="none" stroke-width="3.0" stroke-linecap="butt" stroke-opacity="1.0" stroke="rgb(0, 0, 0)" stroke-linejoin="round" d=" M 146.827, 191.756 148.637, 191.170 148.114, 193.318 145.578, 193.028 145.710, 192.772 " />
            <path fill="none" stroke-width="3.0" stroke-linecap="butt" stroke-opacity="1.0" stroke="rgb(0, 0, 0)" stroke-linejoin="round" d=" M 124.775, 212.176 132.276, 211.332 132.469, 211.310 133.778, 211.163 138.370, 209.013 138.474, 208.921 144.167, 203.906 144.353, 203.696 144.412, 203.629 144.569, 203.375 " />
            <path fill="none" stroke-width="3.0" stroke-linecap="butt" stroke-opacity="1.0" stroke="rgb(0, 0, 0)" stroke-linejoin="round" d=" M 110.387, 136.940 115.244, 135.996 118.466, 135.369 115.268, 135.949 110.463, 136.820 103.229, 138.131 101.653, 139.217 101.000, 139.668 98.382, 141.472 97.717, 141.931 90.898, 146.064 88.418, 152.296 85.341, 155.077 85.529, 155.773 85.284, 156.222 85.064, 158.578 84.416, 165.486 84.641, 168.874 84.866, 172.270 85.015, 174.530 85.659, 174.795 86.853, 175.664 93.327, 183.285 94.055, 184.143 95.645, 186.014 96.212, 186.613 100.204, 187.449 105.354, 188.528 115.295, 189.615 117.730, 189.881 121.587, 189.471 128.827, 188.701 130.940, 188.086 134.397, 187.078 140.859, 183.229 141.047, 183.012 143.910, 179.710 146.914, 176.245 149.172, 169.864 150.460, 163.886 150.034, 161.198 149.718, 159.209 148.040, 156.001 145.230, 146.404 145.169, 146.194 140.032, 142.893 139.467, 142.429 138.337, 141.499 138.329, 141.493 134.249, 138.138 133.196, 137.938 127.626, 136.881 120.100, 135.453 127.558, 136.778 133.111, 137.765 133.196, 137.938 " />
            <path fill="none" stroke-width="3.0" stroke-linecap="butt" stroke-opacity="1.0" stroke="rgb(0, 0, 0)" stroke-linejoin="round" d=" M 63.739, 128.446 62.526, 128.809 62.516, 128.814 58.265, 133.759 57.739, 136.956 56.421, 141.968 55.664, 144.889 56.105, 150.164 56.955, 156.552 59.562, 159.252 62.713, 165.221 " />
            <path fill="none" stroke-width="3.0" stroke-linecap="butt" stroke-opacity="1.0" stroke="rgb(0, 0, 0)" stroke-linejoin="round" d=" M 85.064, 158.578 82.741, 157.594 78.478, 152.876 72.705, 144.711 72.326, 144.175 70.272, 148.503 69.056, 150.901 66.725, 155.494 66.499, 158.991 66.280, 161.306 67.059, 164.849 67.293, 165.760 67.670, 167.232 68.894, 171.177 70.004, 173.005 74.696, 174.887 77.249, 176.676 78.609, 179.463 80.252, 183.434 83.099, 186.524 84.484, 187.969 87.814, 188.588 91.495, 188.760 91.913, 189.111 95.314, 191.965 96.166, 193.636 " />
            <path fill="none" stroke-width="3.0" stroke-linecap="butt" stroke-opacity="1.0" stroke="rgb(0, 0, 0)" stroke-linejoin="round" d=" M 105.701, 96.248 108.101, 98.617 109.789, 100.394 " />
            <path fill="none" stroke-width="3.0" stroke-linecap="butt" stroke-opacity="1.0" stroke="rgb(0, 0, 0)" stroke-linejoin="round" d=" M 108.666, 113.994 105.707, 113.279 103.177, 114.104 99.491, 115.562 99.059, 116.299 96.181, 120.990 96.173, 121.082 95.679, 127.101 95.611, 128.048 95.611, 128.057 95.612, 128.066 95.634, 128.198 97.092, 134.470 97.254, 135.124 100.101, 138.690 101.000, 139.668 " />
            <path fill="none" stroke-width="3.0" stroke-linecap="butt" stroke-opacity="1.0" stroke="rgb(0, 0, 0)" stroke-linejoin="round" d=" M 108.657, 195.059 112.047, 196.854 121.829, 197.518 129.067, 198.082 133.396, 196.397 " />
            <path fill="none" stroke-width="3.0" stroke-linecap="butt" stroke-opacity="1.0" stroke="rgb(0, 0, 0)" stroke-linejoin="round" d=" M 138.337, 141.499 140.373, 140.847 142.279, 140.132 143.661, 138.182 146.006, 134.650 146.238, 133.149 146.912, 127.413 145.953, 121.342 145.769, 120.304 142.930, 116.521 141.973, 115.262 138.567, 114.349 135.409, 113.603 135.145, 113.697 133.544, 114.266 " />
            <path fill="none" stroke-width="3.0" stroke-linecap="butt" stroke-opacity="1.0" stroke="rgb(0, 0, 0)" stroke-linejoin="round" d=" M 166.280, 102.545 166.355, 100.446 163.210, 94.911 162.639, 94.045 162.264, 93.834 " />
            <path fill="none" stroke-width="3.0" stroke-linecap="butt" stroke-opacity="1.0" stroke="rgb(0, 0, 0)" stroke-linejoin="round" d=" M 184.286, 168.505 184.312, 168.516 186.590, 168.071 188.753, 166.846 192.922, 160.466 195.381, 158.253 196.736, 151.024 197.176, 146.464 196.302, 142.815 194.459, 136.831 193.712, 134.068 189.583, 129.651 188.552, 129.271 186.113, 128.665 " />
            <path fill="none" stroke-width="3.0" stroke-linecap="butt" stroke-opacity="1.0" stroke="rgb(0, 0, 0)" stroke-linejoin="round" d=" M 186.353, 127.078 188.999, 123.331 " />
        </g>
    </g>
</svg>
