<?xml version='1.0' encoding='ascii'?>
<svg xmlns="http://www.w3.org/2000/svg" version="1.1" width="250" height="250">
    <g id="ViewLayer_LineSet" xmlns:inkscape="http://www.inkscape.org/namespaces/inkscape" inkscape:groupmode="lineset" inkscape:label="ViewLayer_LineSet">
        <g xmlns:inkscape="http://www.inkscape.org/namespaces/inkscape" inkscape:groupmode="layer" id="strokes" inkscape:label="strokes">
            <path fill="none" stroke-width="3.0" stroke-linecap="butt" stroke-opacity="1.0" stroke="rgb(0, 0, 0)" stroke-linejoin="round" d=" M 145.099, 186.302 148.132, 183.079 148.330, 182.868 151.028, 182.889 155.830, 182.159 158.135, 179.673 160.237, 177.583 161.675, 174.239 163.426, 170.633 168.414, 168.886 171.295, 167.206 172.373, 164.137 174.225, 161.698 174.975, 158.597 175.761, 155.679 175.515, 152.504 175.195, 149.667 171.571, 142.910 169.201, 138.179 164.349, 142.411 157.753, 149.927 157.420, 150.307 149.402, 153.143 " />
            <path fill="none" stroke-width="3.0" stroke-linecap="butt" stroke-opacity="1.0" stroke="rgb(0, 0, 0)" stroke-linejoin="round" d=" M 113.775, 184.854 117.740, 183.060 117.904, 183.064 119.278, 183.089 120.170, 183.408 120.784, 183.627 123.261, 184.911 " />
            <path fill="none" stroke-width="3.0" stroke-linecap="butt" stroke-opacity="1.0" stroke="rgb(0, 0, 0)" stroke-linejoin="round" d=" M 109.889, 108.971 105.135, 107.812 103.592, 108.344 99.103, 110.216 99.100, 110.222 99.040, 110.322 96.202, 115.604 96.107, 115.777 95.302, 122.685 95.300, 122.708 95.303, 122.729 95.325, 122.919 96.660, 128.604 " />
            <path fill="none" stroke-width="3.0" stroke-linecap="butt" stroke-opacity="1.0" stroke="rgb(0, 0, 0)" stroke-linejoin="round" d=" M 180.280, 91.662 174.574, 83.450 168.869, 75.237 168.127, 74.170 162.523, 71.956 153.340, 67.996 144.158, 64.035 143.567, 63.781 141.905, 63.790 131.905, 63.798 121.905, 63.807 117.966, 63.810 107.967, 63.943 97.968, 64.076 94.963, 64.115 92.676, 64.137 83.685, 68.516 76.727, 71.905 69.639, 74.959 65.094, 83.866 60.548, 92.774 59.970, 93.907 62.902, 95.621 61.871, 96.323 61.126, 98.069 " />
            <path fill="none" stroke-width="3.0" stroke-linecap="butt" stroke-opacity="1.0" stroke="rgb(0, 0, 0)" stroke-linejoin="round" d=" M 189.145, 126.064 195.604, 119.909 196.448, 109.945 197.292, 99.981 197.845, 93.455 197.511, 90.848 197.516, 89.602 196.142, 86.518 191.750, 77.534 187.357, 68.551 182.965, 59.567 182.282, 58.171 176.534, 52.013 170.197, 44.278 164.056, 36.782 161.150, 34.949 152.292, 30.308 143.536, 25.721 140.358, 25.892 130.360, 26.092 120.362, 26.292 110.364, 26.493 106.017, 26.579 102.226, 26.560 93.606, 31.630 87.256, 35.365 82.275, 38.860 76.224, 46.821 72.811, 51.310 66.258, 58.864 65.313, 59.954 61.443, 69.175 57.572, 78.395 55.917, 82.339 54.917, 88.720 54.202, 91.691 54.250, 97.492 55.540, 107.409 56.829, 117.325 56.984, 118.514 60.802, 122.692 63.656, 126.939 " />
            <path fill="none" stroke-width="3.0" stroke-linecap="butt" stroke-opacity="1.0" stroke="rgb(0, 0, 0)" stroke-linejoin="round" d=" M 97.341, 128.186 96.660, 128.604 92.098, 131.407 88.461, 133.643 86.985, 137.554 84.768, 138.794 85.213, 141.551 84.269, 143.023 83.128, 150.308 82.958, 151.392 82.782, 159.120 84.593, 160.173 89.147, 164.042 94.666, 169.154 95.593, 169.786 103.461, 175.144 109.696, 176.601 110.174, 176.668 110.465, 176.710 116.949, 177.628 123.380, 176.840 126.959, 175.955 136.092, 171.881 141.674, 169.391 141.958, 169.097 144.897, 166.054 148.407, 156.817 149.402, 153.143 149.719, 151.971 149.171, 147.048 147.297, 142.890 145.701, 136.895 145.087, 134.588 142.894, 133.141 142.567, 132.925 137.924, 129.863 134.128, 127.102 130.617, 126.374 125.629, 125.339 125.139, 125.238 117.713, 124.227 116.195, 124.385 108.195, 125.218 100.267, 126.536 98.079, 127.769 97.341, 128.186 " />
            <path fill="none" stroke-width="3.0" stroke-linecap="butt" stroke-opacity="1.0" stroke="rgb(0, 0, 0)" stroke-linejoin="round" d=" M 129.354, 187.875 133.064, 189.680 136.122, 189.452 141.973, 189.016 144.140, 187.135 144.532, 186.794 148.320, 183.505 " />
            <path fill="none" stroke-width="3.0" stroke-linecap="butt" stroke-opacity="1.0" stroke="rgb(0, 0, 0)" stroke-linejoin="round" d=" M 90.112, 182.694 95.282, 187.756 95.873, 188.335 104.293, 189.257 " />
            <path fill="none" stroke-width="3.0" stroke-linecap="butt" stroke-opacity="1.0" stroke="rgb(0, 0, 0)" stroke-linejoin="round" d=" M 77.098, 103.844 81.900, 97.012 86.807, 91.825 95.379, 88.024 104.038, 88.215 107.534, 91.203 " />
            <path fill="none" stroke-width="3.0" stroke-linecap="butt" stroke-opacity="1.0" stroke="rgb(0, 0, 0)" stroke-linejoin="round" d=" M 113.767, 98.720 111.550, 91.058 107.764, 84.048 102.188, 80.692 " />
            <path fill="none" stroke-width="3.0" stroke-linecap="butt" stroke-opacity="1.0" stroke="rgb(0, 0, 0)" stroke-linejoin="round" d=" M 132.282, 92.498 137.491, 88.412 146.954, 88.179 156.073, 92.004 161.219, 97.196 166.178, 104.106 " />
            <path fill="none" stroke-width="3.0" stroke-linecap="butt" stroke-opacity="1.0" stroke="rgb(0, 0, 0)" stroke-linejoin="round" d=" M 134.764, 82.964 129.336, 89.044 127.138, 98.799 127.098, 98.977 " />
            <path fill="none" stroke-width="3.0" stroke-linecap="butt" stroke-opacity="1.0" stroke="rgb(0, 0, 0)" stroke-linejoin="round" d=" M 145.701, 136.895 150.676, 131.662 153.146, 124.420 153.191, 114.420 153.195, 113.673 149.726, 104.897 143.225, 99.335 133.928, 100.184 131.351, 105.130 131.201, 109.451 " />
            <path fill="none" stroke-width="3.0" stroke-linecap="butt" stroke-opacity="1.0" stroke="rgb(0, 0, 0)" stroke-linejoin="round" d=" M 110.644, 106.242 108.391, 101.353 99.754, 100.554 93.836, 106.336 90.468, 114.574 90.274, 124.572 90.268, 124.888 92.098, 131.407 " />
            <path fill="none" stroke-width="3.0" stroke-linecap="butt" stroke-opacity="1.0" stroke="rgb(0, 0, 0)" stroke-linejoin="round" d=" M 176.946, 98.840 183.059, 96.132 180.280, 91.662 " />
            <path fill="none" stroke-width="3.0" stroke-linecap="butt" stroke-opacity="1.0" stroke="rgb(0, 0, 0)" stroke-linejoin="round" d=" M 63.652, 126.705 62.180, 124.475 63.646, 126.445 63.652, 126.705 63.656, 126.939 63.746, 131.436 63.761, 132.166 63.953, 132.108 63.953, 132.378 63.307, 133.177 58.085, 141.705 57.505, 142.653 57.493, 147.653 59.146, 152.041 61.328, 153.133 61.582, 156.417 61.136, 166.408 61.085, 167.552 61.213, 168.617 61.316, 169.478 61.423, 169.804 61.916, 171.150 67.051, 179.731 72.186, 188.312 74.574, 192.304 74.690, 192.383 74.889, 192.555 83.626, 197.420 92.363, 202.285 96.209, 204.427 104.166, 209.381 108.475, 211.342 117.420, 214.254 122.119, 216.442 125.802, 214.917 135.563, 212.745 137.626, 212.286 139.515, 211.509 147.997, 206.213 148.906, 205.646 157.779, 201.035 162.631, 198.515 169.337, 193.334 172.779, 190.338 178.061, 181.847 182.030, 175.469 183.647, 171.636 183.999, 170.802 184.323, 169.584 185.878, 160.787 185.918, 157.075 186.149, 156.025 186.740, 155.904 190.674, 148.430 191.180, 145.159 187.232, 136.997 185.675, 134.243 186.148, 131.472 186.347, 130.305 186.654, 128.511 185.864, 131.038 " />
            <path fill="none" stroke-width="3.0" stroke-linecap="butt" stroke-opacity="1.0" stroke="rgb(0, 0, 0)" stroke-linejoin="round" d=" M 144.532, 186.794 144.915, 186.822 145.741, 186.075 144.168, 187.907 144.140, 187.135 " />
            <path fill="none" stroke-width="3.0" stroke-linecap="butt" stroke-opacity="1.0" stroke="rgb(0, 0, 0)" stroke-linejoin="round" d=" M 63.746, 131.436 61.391, 133.423 58.031, 137.358 57.359, 141.269 56.046, 145.990 55.187, 148.883 55.451, 154.177 56.060, 160.674 58.452, 162.908 60.973, 168.495 61.213, 168.617 " />
            <path fill="none" stroke-width="3.0" stroke-linecap="butt" stroke-opacity="1.0" stroke="rgb(0, 0, 0)" stroke-linejoin="round" d=" M 83.128, 150.308 81.542, 149.684 76.589, 144.452 71.395, 137.413 68.791, 142.626 68.229, 143.665 65.571, 148.586 65.214, 152.213 64.917, 154.478 65.578, 157.993 66.121, 160.417 67.124, 163.977 68.373, 166.065 69.523, 166.496 72.720, 167.694 75.525, 169.551 76.943, 172.644 78.418, 176.476 80.938, 179.317 82.613, 181.134 85.895, 181.733 87.036, 181.942 89.854, 181.994 90.269, 182.325 92.737, 184.292 93.371, 185.885 " />
            <path fill="none" stroke-width="3.0" stroke-linecap="butt" stroke-opacity="1.0" stroke="rgb(0, 0, 0)" stroke-linejoin="round" d=" M 105.503, 188.695 106.106, 189.184 111.273, 192.155 117.337, 192.608 127.298, 193.483 127.764, 193.524 132.058, 191.723 136.122, 189.452 " />
            <path fill="none" stroke-width="3.0" stroke-linecap="butt" stroke-opacity="1.0" stroke="rgb(0, 0, 0)" stroke-linejoin="round" d=" M 107.534, 91.203 108.466, 91.981 108.534, 92.058 109.231, 92.848 " />
            <path fill="none" stroke-width="3.0" stroke-linecap="butt" stroke-opacity="1.0" stroke="rgb(0, 0, 0)" stroke-linejoin="round" d=" M 142.894, 133.141 143.502, 132.318 145.582, 129.317 145.907, 127.433 146.614, 122.080 145.679, 115.528 145.583, 114.931 142.446, 110.521 141.934, 109.807 137.732, 108.558 135.508, 107.981 131.556, 109.338 " />
            <path fill="none" stroke-width="3.0" stroke-linecap="butt" stroke-opacity="1.0" stroke="rgb(0, 0, 0)" stroke-linejoin="round" d=" M 183.647, 171.636 187.040, 171.189 191.510, 169.027 194.234, 164.525 196.398, 162.821 197.636, 155.328 197.992, 150.877 197.007, 147.144 195.166, 141.345 194.263, 137.925 189.993, 133.334 188.689, 132.309 186.148, 131.472 " />
            <path fill="none" stroke-width="3.0" stroke-linecap="butt" stroke-opacity="1.0" stroke="rgb(0, 0, 0)" stroke-linejoin="round" d=" M 186.347, 130.305 189.145, 126.064 " />
        </g>
    </g>
</svg>
