<?xml version='1.0' encoding='ascii'?>
<svg xmlns="http://www.w3.org/2000/svg" version="1.1" width="250" height="250">
    <g id="ViewLayer_LineSet" xmlns:inkscape="http://www.inkscape.org/namespaces/inkscape" inkscape:groupmode="lineset" inkscape:label="ViewLayer_LineSet">
        <g xmlns:inkscape="http://www.inkscape.org/namespaces/inkscape" inkscape:groupmode="layer" id="strokes" inkscape:label="strokes">
            <path fill="none" stroke-width="3.0" stroke-linecap="butt" stroke-opacity="1.0" stroke="rgb(0, 0, 0)" stroke-linejoin="round" d=" M 181.084, 151.973 181.482, 151.320 181.645, 151.052 182.183, 151.084 182.767, 150.937 187.932, 149.643 189.387, 146.868 190.541, 144.854 190.858, 141.196 191.254, 139.044 193.017, 138.374 194.862, 137.672 196.231, 136.701 196.075, 133.586 196.456, 132.385 195.942, 128.374 195.857, 127.430 194.027, 122.504 193.934, 122.268 193.511, 121.756 190.681, 117.879 " />
            <path fill="none" stroke-width="3.0" stroke-linecap="butt" stroke-opacity="1.0" stroke="rgb(0, 0, 0)" stroke-linejoin="round" d=" M 185.861, 69.828 185.861, 69.828 184.653, 59.901 184.112, 55.457 175.845, 49.831 171.075, 46.586 163.930, 40.817 154.447, 40.488 144.568, 39.645 142.193, 39.442 132.198, 39.126 127.947, 38.991 119.401, 38.493 110.554, 43.154 104.506, 46.340 95.522, 50.731 94.290, 51.333 89.156, 59.914 85.663, 65.751 80.659, 74.409 76.508, 81.590 76.894, 89.882 " />
            <path fill="none" stroke-width="3.0" stroke-linecap="butt" stroke-opacity="1.0" stroke="rgb(0, 0, 0)" stroke-linejoin="round" d=" M 126.361, 154.503 134.465, 158.399 144.070, 157.457 152.512, 152.097 156.342, 149.665 157.793, 149.587 166.869, 153.788 171.306, 155.842 175.865, 155.776 178.230, 155.742 181.522, 151.395 " />
            <path fill="none" stroke-width="3.0" stroke-linecap="butt" stroke-opacity="1.0" stroke="rgb(0, 0, 0)" stroke-linejoin="round" d=" M 90.335, 83.395 91.306, 89.948 95.451, 83.673 100.026, 78.767 108.886, 74.523 118.400, 73.484 124.415, 75.941 130.330, 81.059 127.468, 74.590 127.362, 74.349 " />
            <path fill="none" stroke-width="3.0" stroke-linecap="butt" stroke-opacity="1.0" stroke="rgb(0, 0, 0)" stroke-linejoin="round" d=" M 144.882, 77.134 147.549, 75.067 154.214, 76.480 161.368, 80.942 163.676, 83.148 " />
            <path fill="none" stroke-width="3.0" stroke-linecap="butt" stroke-opacity="1.0" stroke="rgb(0, 0, 0)" stroke-linejoin="round" d=" M 144.595, 70.295 141.930, 74.024 141.634, 82.155 " />
            <path fill="none" stroke-width="3.0" stroke-linecap="butt" stroke-opacity="1.0" stroke="rgb(0, 0, 0)" stroke-linejoin="round" d=" M 124.731, 91.505 121.131, 88.041 111.374, 88.825 105.083, 95.340 102.677, 103.039 " />
            <path fill="none" stroke-width="3.0" stroke-linecap="butt" stroke-opacity="1.0" stroke="rgb(0, 0, 0)" stroke-linejoin="round" d=" M 174.852, 122.288 170.110, 123.066 160.119, 123.495 152.253, 123.832 142.253, 123.782 136.495, 123.753 126.513, 123.148 119.175, 122.704 112.506, 121.640 103.239, 117.884 100.685, 116.849 96.726, 114.687 94.366, 119.945 91.470, 125.853 91.546, 128.076 91.345, 131.771 91.951, 133.103 93.974, 137.138 94.614, 138.105 98.877, 141.682 101.036, 141.918 107.653, 143.796 111.524, 149.229 112.213, 150.304 113.117, 150.984 117.796, 154.313 121.618, 154.695 118.334, 152.476 116.655, 149.447 " />
            <path fill="none" stroke-width="3.0" stroke-linecap="butt" stroke-opacity="1.0" stroke="rgb(0, 0, 0)" stroke-linejoin="round" d=" M 47.891, 149.435 46.624, 142.840 48.072, 140.407 55.075, 141.857 55.803, 143.004 54.111, 142.732 50.969, 145.915 47.891, 149.435 47.517, 149.863 46.784, 150.702 45.354, 155.282 43.013, 162.679 41.845, 168.692 42.298, 170.489 43.696, 175.659 46.810, 178.919 48.241, 179.859 52.728, 180.631 60.658, 181.701 65.008, 181.120 70.678, 179.413 75.984, 185.208 75.379, 186.953 75.253, 187.314 74.879, 187.659 74.530, 187.981 74.808, 187.759 " />
            <path fill="none" stroke-width="3.0" stroke-linecap="butt" stroke-opacity="1.0" stroke="rgb(0, 0, 0)" stroke-linejoin="round" d=" M 103.262, 206.710 100.013, 208.748 99.401, 209.796 98.765, 210.886 102.356, 213.741 105.176, 213.819 106.382, 209.511 106.889, 209.164 " />
            <path fill="none" stroke-width="3.0" stroke-linecap="butt" stroke-opacity="1.0" stroke="rgb(0, 0, 0)" stroke-linejoin="round" d=" M 107.201, 209.374 107.174, 209.396 106.948, 209.203 106.896, 209.159 103.712, 206.443 103.702, 206.434 99.460, 202.816 97.721, 202.962 103.262, 206.710 103.319, 206.748 106.889, 209.164 106.948, 209.203 107.201, 209.374 112.026, 212.639 118.084, 216.974 125.813, 216.900 135.692, 215.344 145.570, 213.788 146.155, 213.696 152.152, 211.533 160.196, 205.591 160.324, 205.497 164.292, 201.186 171.657, 194.421 177.275, 189.260 183.995, 181.854 184.561, 181.231 186.698, 178.929 188.357, 175.136 192.168, 165.891 194.706, 159.737 194.178, 153.854 194.199, 143.854 194.204, 141.740 193.017, 138.374 " />
            <path fill="none" stroke-width="3.0" stroke-linecap="butt" stroke-opacity="1.0" stroke="rgb(0, 0, 0)" stroke-linejoin="round" d=" M 168.860, 135.525 171.996, 133.853 175.495, 131.988 181.203, 128.945 185.833, 123.539 190.681, 117.879 192.558, 115.688 192.904, 112.942 191.384, 103.058 191.205, 101.895 189.384, 97.856 187.102, 94.779 180.234, 87.990 178.409, 86.186 174.665, 84.294 173.629, 84.161 170.580, 83.768 167.419, 83.361 166.862, 83.290 164.491, 83.185 163.676, 83.148 153.957, 82.718 143.999, 83.632 141.897, 83.826 136.304, 85.929 130.901, 94.343 129.254, 96.907 129.075, 97.186 127.584, 99.506 126.118, 109.398 125.651, 112.545 125.591, 112.951 125.282, 112.144 125.651, 112.545 " />
            <path fill="none" stroke-width="3.0" stroke-linecap="butt" stroke-opacity="1.0" stroke="rgb(0, 0, 0)" stroke-linejoin="round" d=" M 125.996, 168.685 129.740, 166.839 128.630, 157.932 128.730, 157.793 129.070, 157.319 129.920, 157.455 130.792, 158.083 133.253, 159.855 131.540, 158.188 130.792, 158.083 " />
            <path fill="none" stroke-width="3.0" stroke-linecap="butt" stroke-opacity="1.0" stroke="rgb(0, 0, 0)" stroke-linejoin="round" d=" M 60.236, 142.548 60.854, 142.592 60.603, 143.742 59.940, 146.779 62.835, 146.603 " />
            <path fill="none" stroke-width="3.0" stroke-linecap="butt" stroke-opacity="1.0" stroke="rgb(0, 0, 0)" stroke-linejoin="round" d=" M 74.808, 187.759 73.334, 189.843 69.928, 193.615 66.637, 202.514 66.036, 203.691 66.453, 204.947 73.079, 212.437 73.949, 213.421 81.834, 214.917 83.265, 215.060 83.689, 214.906 90.035, 214.014 93.777, 212.905 93.875, 212.714 97.216, 211.497 99.401, 209.796 103.319, 206.748 " />
            <path fill="none" stroke-width="3.0" stroke-linecap="butt" stroke-opacity="1.0" stroke="rgb(0, 0, 0)" stroke-linejoin="round" d=" M 127.736, 115.328 118.711, 114.216 118.239, 114.792 117.299, 114.825 117.179, 114.859 111.464, 116.517 109.189, 115.579 106.628, 114.129 104.252, 111.725 104.242, 111.714 103.571, 107.968 " />
            <path fill="none" stroke-width="3.0" stroke-linecap="butt" stroke-opacity="1.0" stroke="rgb(0, 0, 0)" stroke-linejoin="round" d=" M 127.468, 74.590 127.338, 74.332 " />
            <path fill="none" stroke-width="3.0" stroke-linecap="butt" stroke-opacity="1.0" stroke="rgb(0, 0, 0)" stroke-linejoin="round" d=" M 129.254, 96.907 126.263, 94.545 124.828, 93.389 122.859, 93.198 118.786, 93.477 114.181, 95.581 113.509, 96.012 113.438, 96.257 111.771, 101.591 112.477, 105.613 112.889, 108.031 113.513, 109.194 114.935, 111.824 " />
            <path fill="none" stroke-width="3.0" stroke-linecap="butt" stroke-opacity="1.0" stroke="rgb(0, 0, 0)" stroke-linejoin="round" d=" M 144.702, 77.317 144.776, 77.217 144.838, 77.132 144.882, 77.134 " />
            <path fill="none" stroke-width="3.0" stroke-linecap="butt" stroke-opacity="1.0" stroke="rgb(0, 0, 0)" stroke-linejoin="round" d=" M 144.568, 39.645 142.016, 37.917 140.187, 36.828 130.207, 36.203 126.505, 35.970 116.524, 35.349 110.776, 34.991 100.790, 34.443 98.044, 34.293 89.098, 38.763 87.658, 39.483 79.259, 44.234 72.687, 51.770 68.434, 56.648 61.493, 63.803 56.869, 72.670 52.245, 81.537 52.138, 81.742 47.974, 90.834 45.597, 96.027 45.080, 105.048 43.891, 114.977 42.702, 124.906 41.513, 134.835 41.336, 136.311 42.289, 138.854 46.579, 147.887 47.517, 149.863 " />
            <path fill="none" stroke-width="3.0" stroke-linecap="butt" stroke-opacity="1.0" stroke="rgb(0, 0, 0)" stroke-linejoin="round" d=" M 180.234, 87.990 180.964, 84.616 179.073, 82.629 183.758, 73.794 185.860, 69.830 185.860, 69.829 " />
        </g>
    </g>
</svg>
