<?xml version='1.0' encoding='ascii'?>
<svg xmlns="http://www.w3.org/2000/svg" version="1.1" width="250" height="250">
    <g id="ViewLayer_LineSet" xmlns:inkscape="http://www.inkscape.org/namespaces/inkscape" inkscape:groupmode="lineset" inkscape:label="ViewLayer_LineSet">
        <g xmlns:inkscape="http://www.inkscape.org/namespaces/inkscape" inkscape:groupmode="layer" id="strokes" inkscape:label="strokes">
            <path fill="none" stroke-width="3.0" stroke-linecap="butt" stroke-opacity="1.0" stroke="rgb(0, 0, 0)" stroke-linejoin="round" d=" M 189.088, 121.829 186.138, 119.558 185.189, 118.827 184.811, 118.536 184.205, 118.070 184.032, 117.260 183.950, 116.872 184.068, 117.273 184.032, 117.260 178.386, 115.217 175.690, 116.151 182.288, 118.946 183.917, 119.637 187.122, 120.995 189.088, 121.829 " />
            <path fill="none" stroke-width="3.0" stroke-linecap="butt" stroke-opacity="1.0" stroke="rgb(0, 0, 0)" stroke-linejoin="round" d=" M 189.640, 112.056 190.903, 110.753 193.617, 103.026 196.409, 93.424 197.373, 90.108 197.363, 88.146 197.850, 85.608 194.074, 76.348 190.297, 67.089 187.551, 60.354 186.267, 58.723 184.241, 55.743 176.837, 49.022 173.075, 45.607 165.916, 39.153 156.981, 34.663 156.072, 34.207 146.078, 33.864 142.908, 33.755 132.909, 33.612 125.775, 33.509 115.777, 33.354 112.088, 33.296 102.088, 33.361 97.641, 33.390 89.807, 36.758 81.845, 42.808 78.398, 45.428 70.550, 51.626 65.342, 55.739 64.070, 58.384 60.876, 61.428 56.018, 70.169 51.161, 78.910 48.584, 83.547 48.516, 87.762 47.221, 91.742 49.659, 101.440 51.715, 109.625 57.841, 116.227 61.420, 119.989 60.038, 119.233 59.646, 119.239 " />
            <path fill="none" stroke-width="3.0" stroke-linecap="butt" stroke-opacity="1.0" stroke="rgb(0, 0, 0)" stroke-linejoin="round" d=" M 66.177, 122.153 73.764, 118.248 70.855, 117.572 65.725, 119.385 67.682, 118.871 69.675, 119.782 66.177, 122.153 " />
            <path fill="none" stroke-width="3.0" stroke-linecap="butt" stroke-opacity="1.0" stroke="rgb(0, 0, 0)" stroke-linejoin="round" d=" M 147.724, 165.151 147.584, 165.050 150.354, 169.301 152.816, 178.993 152.905, 179.343 149.972, 181.428 149.868, 182.677 " />
            <path fill="none" stroke-width="3.0" stroke-linecap="butt" stroke-opacity="1.0" stroke="rgb(0, 0, 0)" stroke-linejoin="round" d=" M 82.014, 126.474 86.977, 120.594 " />
            <path fill="none" stroke-width="3.0" stroke-linecap="butt" stroke-opacity="1.0" stroke="rgb(0, 0, 0)" stroke-linejoin="round" d=" M 121.822, 128.216 119.833, 121.708 " />
            <path fill="none" stroke-width="3.0" stroke-linecap="butt" stroke-opacity="1.0" stroke="rgb(0, 0, 0)" stroke-linejoin="round" d=" M 137.785, 118.603 135.059, 127.485 " />
            <path fill="none" stroke-width="3.0" stroke-linecap="butt" stroke-opacity="1.0" stroke="rgb(0, 0, 0)" stroke-linejoin="round" d=" M 167.615, 119.692 171.761, 125.395 " />
            <path fill="none" stroke-width="3.0" stroke-linecap="butt" stroke-opacity="1.0" stroke="rgb(0, 0, 0)" stroke-linejoin="round" d=" M 146.177, 130.990 144.303, 130.685 140.905, 130.131 137.465, 131.827 " />
            <path fill="none" stroke-width="3.0" stroke-linecap="butt" stroke-opacity="1.0" stroke="rgb(0, 0, 0)" stroke-linejoin="round" d=" M 138.654, 125.958 137.693, 127.885 137.465, 131.827 " />
            <path fill="none" stroke-width="3.0" stroke-linecap="butt" stroke-opacity="1.0" stroke="rgb(0, 0, 0)" stroke-linejoin="round" d=" M 97.838, 125.512 94.777, 131.653 94.857, 141.064 97.323, 148.289 102.330, 152.815 106.231, 154.181 " />
            <path fill="none" stroke-width="3.0" stroke-linecap="butt" stroke-opacity="1.0" stroke="rgb(0, 0, 0)" stroke-linejoin="round" d=" M 116.940, 129.465 114.427, 124.110 " />
            <path fill="none" stroke-width="3.0" stroke-linecap="butt" stroke-opacity="1.0" stroke="rgb(0, 0, 0)" stroke-linejoin="round" d=" M 147.738, 152.391 149.056, 151.845 154.200, 147.047 156.816, 140.093 157.096, 137.080 157.116, 136.862 157.655, 131.062 155.020, 123.990 " />
            <path fill="none" stroke-width="3.0" stroke-linecap="butt" stroke-opacity="1.0" stroke="rgb(0, 0, 0)" stroke-linejoin="round" d=" M 59.646, 119.239 57.389, 116.970 59.269, 119.245 60.471, 120.700 61.070, 124.136 62.045, 129.798 60.824, 133.804 58.143, 143.438 57.997, 143.963 58.548, 148.446 60.988, 153.579 61.749, 154.362 63.589, 156.255 64.940, 160.992 65.617, 170.969 65.725, 172.574 65.868, 173.087 65.906, 173.174 66.027, 173.518 66.420, 174.093 72.137, 182.298 76.643, 188.765 83.655, 190.895 86.552, 192.161 " />
            <path fill="none" stroke-width="3.0" stroke-linecap="butt" stroke-opacity="1.0" stroke="rgb(0, 0, 0)" stroke-linejoin="round" d=" M 184.811, 118.536 189.968, 112.187 184.472, 116.941 189.640, 112.056 " />
            <path fill="none" stroke-width="3.0" stroke-linecap="butt" stroke-opacity="1.0" stroke="rgb(0, 0, 0)" stroke-linejoin="round" d=" M 102.235, 180.281 104.619, 170.569 105.324, 167.700 105.343, 167.622 105.725, 167.083 105.771, 167.018 105.774, 167.125 105.537, 167.507 105.324, 167.700 105.278, 167.742 102.733, 177.412 102.003, 180.187 100.902, 184.370 100.099, 187.287 97.805, 195.400 97.413, 196.788 97.489, 197.487 97.823, 198.416 98.835, 201.225 99.206, 202.255 100.464, 205.749 108.745, 211.355 108.921, 211.475 113.398, 214.873 117.364, 215.648 123.493, 216.144 133.489, 215.867 137.414, 215.759 142.954, 215.038 146.190, 214.265 151.432, 209.490 158.242, 204.321 162.146, 196.135 162.175, 196.073 162.340, 195.180 162.145, 194.542 159.776, 186.799 157.216, 182.789 155.327, 177.632 152.686, 170.419 150.119, 168.166 147.724, 165.151 " />
            <path fill="none" stroke-width="3.0" stroke-linecap="butt" stroke-opacity="1.0" stroke="rgb(0, 0, 0)" stroke-linejoin="round" d=" M 59.269, 119.245 54.595, 119.320 53.357, 120.927 53.020, 121.737 50.924, 129.184 50.351, 132.688 51.066, 137.170 52.711, 143.674 55.907, 147.119 61.126, 154.240 61.749, 154.362 " />
            <path fill="none" stroke-width="3.0" stroke-linecap="butt" stroke-opacity="1.0" stroke="rgb(0, 0, 0)" stroke-linejoin="round" d=" M 102.003, 180.187 92.727, 176.452 91.379, 175.909 88.825, 173.198 83.021, 165.054 81.132, 162.402 79.397, 161.391 74.910, 170.328 74.177, 171.789 74.153, 174.257 74.073, 176.964 74.976, 179.882 75.836, 182.292 77.788, 186.918 78.539, 188.020 84.018, 190.033 86.102, 191.420 86.552, 192.161 87.240, 193.295 89.098, 196.880 92.955, 200.407 93.379, 200.778 94.138, 200.905 98.232, 201.184 " />
            <path fill="none" stroke-width="3.0" stroke-linecap="butt" stroke-opacity="1.0" stroke="rgb(0, 0, 0)" stroke-linejoin="round" d=" M 97.838, 125.512 98.121, 124.919 98.215, 124.731 98.231, 124.724 103.704, 122.159 104.893, 121.497 109.947, 122.803 " />
            <path fill="none" stroke-width="3.0" stroke-linecap="butt" stroke-opacity="1.0" stroke="rgb(0, 0, 0)" stroke-linejoin="round" d=" M 98.232, 201.184 98.511, 201.789 99.206, 202.255 " />
            <path fill="none" stroke-width="3.0" stroke-linecap="butt" stroke-opacity="1.0" stroke="rgb(0, 0, 0)" stroke-linejoin="round" d=" M 106.749, 131.021 106.205, 131.194 105.893, 131.293 103.952, 134.007 102.245, 136.331 101.961, 138.470 101.367, 142.940 102.652, 149.137 102.743, 149.561 106.231, 154.181 106.233, 154.184 106.450, 154.447 108.697, 155.045 111.003, 155.659 112.453, 155.978 112.855, 156.067 117.799, 154.547 " />
            <path fill="none" stroke-width="3.0" stroke-linecap="butt" stroke-opacity="1.0" stroke="rgb(0, 0, 0)" stroke-linejoin="round" d=" M 138.654, 125.958 140.035, 122.905 140.188, 122.879 " />
            <path fill="none" stroke-width="3.0" stroke-linecap="butt" stroke-opacity="1.0" stroke="rgb(0, 0, 0)" stroke-linejoin="round" d=" M 137.415, 155.160 141.685, 155.916 142.847, 155.530 145.267, 154.478 147.023, 153.166 147.388, 152.950 147.738, 152.391 150.124, 148.574 150.426, 148.118 151.850, 142.552 151.944, 141.787 151.005, 136.400 150.822, 135.498 148.571, 133.028 146.776, 131.119 146.196, 131.018 145.478, 130.893 144.303, 130.685 " />
            <path fill="none" stroke-width="3.0" stroke-linecap="butt" stroke-opacity="1.0" stroke="rgb(0, 0, 0)" stroke-linejoin="round" d=" M 162.146, 196.135 162.454, 195.825 163.068, 195.274 164.299, 192.976 165.239, 191.220 166.231, 189.699 171.263, 187.374 173.047, 186.550 173.619, 186.121 175.047, 181.919 175.936, 180.726 177.153, 177.071 177.771, 175.394 177.791, 174.897 177.890, 172.372 177.917, 170.318 173.908, 161.157 173.164, 159.458 173.160, 159.448 173.154, 159.454 167.340, 167.590 162.467, 174.409 155.327, 177.632 " />
            <path fill="none" stroke-width="3.0" stroke-linecap="butt" stroke-opacity="1.0" stroke="rgb(0, 0, 0)" stroke-linejoin="round" d=" M 164.299, 192.976 170.840, 188.218 171.263, 187.374 " />
            <path fill="none" stroke-width="3.0" stroke-linecap="butt" stroke-opacity="1.0" stroke="rgb(0, 0, 0)" stroke-linejoin="round" d=" M 177.791, 174.897 180.228, 170.633 181.063, 163.406 181.983, 154.647 184.479, 151.025 186.027, 147.518 187.304, 142.502 187.016, 141.691 183.671, 132.267 182.751, 129.675 182.299, 128.623 182.495, 127.222 183.733, 119.865 183.917, 119.637 " />
            <path fill="none" stroke-width="3.0" stroke-linecap="butt" stroke-opacity="1.0" stroke="rgb(0, 0, 0)" stroke-linejoin="round" d=" M 187.016, 141.691 188.301, 136.509 189.257, 131.419 188.808, 128.701 187.529, 122.570 187.396, 121.396 187.122, 120.995 " />
        </g>
    </g>
</svg>
