<?xml version='1.0' encoding='ascii'?>
<svg xmlns="http://www.w3.org/2000/svg" version="1.1" width="250" height="250">
    <g id="ViewLayer_LineSet" xmlns:inkscape="http://www.inkscape.org/namespaces/inkscape" inkscape:groupmode="lineset" inkscape:label="ViewLayer_LineSet">
        <g xmlns:inkscape="http://www.inkscape.org/namespaces/inkscape" inkscape:groupmode="layer" id="strokes" inkscape:label="strokes">
            <path fill="none" stroke-width="3.0" stroke-linecap="butt" stroke-opacity="1.0" stroke="rgb(0, 0, 0)" stroke-linejoin="round" d=" M 89.529, 187.086 93.648, 185.240 93.711, 185.255 93.758, 185.267 94.246, 185.614 98.153, 187.300 104.445, 190.746 " />
            <path fill="none" stroke-width="3.0" stroke-linecap="butt" stroke-opacity="1.0" stroke="rgb(0, 0, 0)" stroke-linejoin="round" d=" M 96.471, 110.826 93.532, 109.991 92.323, 110.259 90.956, 110.738 89.246, 112.674 88.597, 113.131 87.017, 116.751 86.378, 118.110 85.876, 122.072 85.638, 124.084 85.760, 126.114 85.942, 129.392 " />
            <path fill="none" stroke-width="3.0" stroke-linecap="butt" stroke-opacity="1.0" stroke="rgb(0, 0, 0)" stroke-linejoin="round" d=" M 126.125, 136.914 128.303, 133.814 129.232, 132.503 130.246, 127.488 130.624, 125.196 130.331, 122.548 129.717, 117.923 128.045, 115.338 126.278, 112.580 123.426, 111.613 120.221, 110.574 116.026, 111.980 " />
            <path fill="none" stroke-width="3.0" stroke-linecap="butt" stroke-opacity="1.0" stroke="rgb(0, 0, 0)" stroke-linejoin="round" d=" M 162.177, 97.239 162.172, 96.647 154.408, 90.344 146.658, 84.053 " />
            <path fill="none" stroke-width="3.0" stroke-linecap="butt" stroke-opacity="1.0" stroke="rgb(0, 0, 0)" stroke-linejoin="round" d=" M 183.410, 147.796 189.955, 151.002 188.055, 141.184 187.756, 139.638 187.568, 138.666 188.911, 135.896 188.747, 137.777 187.756, 139.638 " />
            <path fill="none" stroke-width="3.0" stroke-linecap="butt" stroke-opacity="1.0" stroke="rgb(0, 0, 0)" stroke-linejoin="round" d=" M 96.927, 106.126 97.096, 106.669 97.088, 106.736 96.666, 110.382 96.637, 110.873 96.044, 120.856 95.687, 126.854 94.892, 129.774 " />
            <path fill="none" stroke-width="3.0" stroke-linecap="butt" stroke-opacity="1.0" stroke="rgb(0, 0, 0)" stroke-linejoin="round" d=" M 138.863, 113.943 139.717, 116.044 139.717, 116.045 139.707, 116.307 139.640, 126.307 139.635, 127.081 136.671, 134.182 136.450, 134.557 131.517, 139.697 131.250, 139.777 131.245, 139.778 130.197, 139.818 " />
            <path fill="none" stroke-width="3.0" stroke-linecap="butt" stroke-opacity="1.0" stroke="rgb(0, 0, 0)" stroke-linejoin="round" d=" M 107.888, 192.807 114.052, 192.814 116.808, 192.817 119.925, 190.542 121.000, 189.757 123.702, 187.784 " />
            <path fill="none" stroke-width="3.0" stroke-linecap="butt" stroke-opacity="1.0" stroke="rgb(0, 0, 0)" stroke-linejoin="round" d=" M 76.760, 188.304 78.074, 188.660 79.673, 189.094 82.927, 189.977 86.801, 188.280 93.711, 185.255 " />
            <path fill="none" stroke-width="3.0" stroke-linecap="butt" stroke-opacity="1.0" stroke="rgb(0, 0, 0)" stroke-linejoin="round" d=" M 69.691, 105.939 73.416, 99.439 77.096, 94.496 83.310, 90.938 89.285, 91.279 " />
            <path fill="none" stroke-width="3.0" stroke-linecap="butt" stroke-opacity="1.0" stroke="rgb(0, 0, 0)" stroke-linejoin="round" d=" M 96.699, 101.852 94.501, 94.326 92.445, 87.198 88.647, 83.765 " />
            <path fill="none" stroke-width="3.0" stroke-linecap="butt" stroke-opacity="1.0" stroke="rgb(0, 0, 0)" stroke-linejoin="round" d=" M 117.119, 85.684 111.166, 92.062 109.191, 101.865 109.158, 102.032 114.155, 95.468 119.934, 91.126 129.919, 90.573 130.120, 90.562 139.498, 94.034 139.994, 94.218 145.320, 99.510 150.365, 106.657 150.592, 98.067 146.900, 91.001 " />
            <path fill="none" stroke-width="3.0" stroke-linecap="butt" stroke-opacity="1.0" stroke="rgb(0, 0, 0)" stroke-linejoin="round" d=" M 119.311, 139.529 125.491, 137.850 " />
            <path fill="none" stroke-width="3.0" stroke-linecap="butt" stroke-opacity="1.0" stroke="rgb(0, 0, 0)" stroke-linejoin="round" d=" M 139.717, 116.045 136.076, 107.088 129.333, 101.488 119.381, 102.557 116.442, 107.623 116.026, 111.980 " />
            <path fill="none" stroke-width="3.0" stroke-linecap="butt" stroke-opacity="1.0" stroke="rgb(0, 0, 0)" stroke-linejoin="round" d=" M 96.278, 103.674 90.125, 102.622 86.295, 108.006 83.686, 115.906 83.246, 125.896 83.641, 129.545 " />
            <path fill="none" stroke-width="3.0" stroke-linecap="butt" stroke-opacity="1.0" stroke="rgb(0, 0, 0)" stroke-linejoin="round" d=" M 119.826, 140.219 129.819, 139.832 131.250, 139.777 " />
            <path fill="none" stroke-width="3.0" stroke-linecap="butt" stroke-opacity="1.0" stroke="rgb(0, 0, 0)" stroke-linejoin="round" d=" M 194.358, 133.583 202.192, 127.367 207.151, 123.432 207.394, 124.093 208.052, 122.058 208.387, 120.920 205.662, 111.298 202.936, 101.677 201.474, 96.516 199.679, 86.679 198.893, 82.373 193.663, 73.850 188.434, 65.326 183.621, 57.481 180.910, 54.330 180.001, 52.594 172.477, 46.007 164.953, 39.420 162.410, 37.194 157.057, 32.537 147.990, 28.319 138.923, 24.101 136.618, 23.028 136.457, 23.018 135.402, 23.044 125.507, 24.484 115.611, 25.924 105.715, 27.365 101.186, 28.024 96.825, 28.672 88.935, 34.815 86.365, 36.816 78.996, 43.577 77.524, 44.927 74.687, 50.048 69.191, 58.402 68.898, 58.847 66.395, 66.914 66.468, 70.514 " />
            <path fill="none" stroke-width="3.0" stroke-linecap="butt" stroke-opacity="1.0" stroke="rgb(0, 0, 0)" stroke-linejoin="round" d=" M 73.957, 124.844 73.175, 122.440 72.447, 130.343 " />
            <path fill="none" stroke-width="3.0" stroke-linecap="butt" stroke-opacity="1.0" stroke="rgb(0, 0, 0)" stroke-linejoin="round" d=" M 80.436, 194.434 82.802, 197.207 83.467, 197.854 88.185, 202.767 95.692, 209.374 95.866, 209.528 96.032, 209.661 97.360, 210.228 99.583, 210.219 108.037, 210.823 111.239, 214.120 110.806, 213.498 115.253, 215.529 121.791, 213.810 131.768, 213.142 133.824, 213.005 135.790, 212.580 142.478, 209.670 146.471, 207.781 147.147, 207.483 155.131, 201.462 163.116, 195.441 163.833, 194.900 169.952, 188.767 171.544, 187.171 174.392, 182.016 178.081, 177.960 180.140, 173.849 181.643, 174.380 187.502, 174.207 191.958, 174.075 201.141, 170.118 202.557, 169.508 204.526, 167.682 205.425, 167.106 208.506, 157.592 208.698, 156.999 209.105, 154.716 208.047, 148.712 204.597, 140.083 203.550, 138.029 199.766, 134.564 196.311, 133.563 194.384, 133.566 " />
            <path fill="none" stroke-width="3.0" stroke-linecap="butt" stroke-opacity="1.0" stroke="rgb(0, 0, 0)" stroke-linejoin="round" d=" M 85.613, 69.457 75.626, 69.968 69.001, 70.307 66.567, 70.445 66.468, 70.514 58.268, 76.237 57.444, 76.812 48.673, 81.615 48.086, 81.936 47.626, 86.521 56.805, 90.491 65.983, 94.461 67.023, 94.910 67.432, 95.087 67.041, 95.637 65.592, 97.674 67.955, 104.497 68.340, 104.452 69.906, 104.265 " />
            <path fill="none" stroke-width="3.0" stroke-linecap="butt" stroke-opacity="1.0" stroke="rgb(0, 0, 0)" stroke-linejoin="round" d=" M 119.925, 190.542 121.492, 190.915 122.760, 190.497 124.697, 190.169 124.671, 191.159 124.666, 191.353 123.330, 191.196 124.671, 191.159 125.343, 191.141 124.655, 194.509 " />
            <path fill="none" stroke-width="3.0" stroke-linecap="butt" stroke-opacity="1.0" stroke="rgb(0, 0, 0)" stroke-linejoin="round" d=" M 93.272, 129.576 93.299, 129.562 93.937, 129.552 94.892, 129.774 96.263, 130.092 100.114, 130.986 96.257, 130.191 94.857, 129.903 93.272, 129.576 92.997, 129.520 90.363, 129.099 87.768, 129.271 85.942, 129.392 83.641, 129.545 76.329, 130.029 72.447, 130.343 67.996, 130.703 66.721, 131.073 64.397, 131.782 57.857, 137.982 57.520, 143.488 53.068, 151.447 51.974, 155.411 52.798, 160.954 58.092, 169.438 58.393, 169.922 61.061, 174.818 63.401, 176.272 64.176, 176.755 67.511, 178.828 68.325, 178.969 73.777, 179.864 83.052, 181.386 83.925, 181.329 90.768, 180.878 93.680, 180.157 100.476, 177.299 100.872, 177.132 101.081, 177.044 106.442, 174.789 " />
            <path fill="none" stroke-width="3.0" stroke-linecap="butt" stroke-opacity="1.0" stroke="rgb(0, 0, 0)" stroke-linejoin="round" d=" M 64.251, 177.519 64.355, 178.587 65.445, 179.934 73.853, 185.347 75.013, 186.094 " />
            <path fill="none" stroke-width="3.0" stroke-linecap="butt" stroke-opacity="1.0" stroke="rgb(0, 0, 0)" stroke-linejoin="round" d=" M 64.251, 177.519 65.593, 179.488 66.250, 180.389 68.108, 180.968 71.637, 181.445 74.564, 185.512 75.013, 186.094 76.662, 188.232 76.728, 188.254 76.986, 188.339 78.074, 188.660 " />
            <path fill="none" stroke-width="3.0" stroke-linecap="butt" stroke-opacity="1.0" stroke="rgb(0, 0, 0)" stroke-linejoin="round" d=" M 68.340, 104.452 69.155, 109.575 72.095, 119.133 72.168, 119.370 73.538, 122.045 73.361, 122.627 " />
            <path fill="none" stroke-width="3.0" stroke-linecap="butt" stroke-opacity="1.0" stroke="rgb(0, 0, 0)" stroke-linejoin="round" d=" M 77.379, 86.351 77.004, 86.592 74.624, 88.464 70.579, 91.478 69.580, 93.191 68.537, 96.580 68.617, 98.423 70.077, 102.936 " />
            <path fill="none" stroke-width="3.0" stroke-linecap="butt" stroke-opacity="1.0" stroke="rgb(0, 0, 0)" stroke-linejoin="round" d=" M 86.801, 188.280 86.946, 188.443 91.962, 191.860 100.842, 193.717 107.908, 195.407 111.214, 194.300 114.052, 192.814 " />
            <path fill="none" stroke-width="3.0" stroke-linecap="butt" stroke-opacity="1.0" stroke="rgb(0, 0, 0)" stroke-linejoin="round" d=" M 89.285, 91.279 89.418, 91.558 90.299, 94.112 94.194, 97.856 " />
            <path fill="none" stroke-width="3.0" stroke-linecap="butt" stroke-opacity="1.0" stroke="rgb(0, 0, 0)" stroke-linejoin="round" d=" M 121.000, 189.757 123.233, 187.339 123.508, 187.362 125.383, 187.519 127.449, 187.368 130.567, 187.140 132.587, 185.307 135.432, 182.942 136.497, 180.711 138.604, 176.126 142.898, 174.968 147.136, 172.947 148.344, 170.579 151.453, 167.415 152.098, 165.489 153.707, 161.276 153.675, 159.540 153.370, 155.043 148.835, 146.130 148.700, 145.863 147.086, 142.611 141.966, 146.398 134.555, 153.112 132.219, 155.228 122.654, 158.147 118.061, 159.549 111.162, 161.552 " />
            <path fill="none" stroke-width="3.0" stroke-linecap="butt" stroke-opacity="1.0" stroke="rgb(0, 0, 0)" stroke-linejoin="round" d=" M 169.952, 188.767 171.785, 189.273 175.271, 189.628 178.744, 188.419 186.706, 182.367 188.724, 180.833 189.888, 179.139 189.932, 178.082 188.357, 175.582 187.502, 174.207 " />
        </g>
    </g>
</svg>
