<?xml version='1.0' encoding='ascii'?>
<svg xmlns="http://www.w3.org/2000/svg" version="1.1" width="250" height="250">
    <g id="ViewLayer_LineSet" xmlns:inkscape="http://www.inkscape.org/namespaces/inkscape" inkscape:groupmode="lineset" inkscape:label="ViewLayer_LineSet">
        <g xmlns:inkscape="http://www.inkscape.org/namespaces/inkscape" inkscape:groupmode="layer" id="strokes" inkscape:label="strokes">
            <path fill="none" stroke-width="3.0" stroke-linecap="butt" stroke-opacity="1.0" stroke="rgb(0, 0, 0)" stroke-linejoin="round" d=" M 119.990, 194.869 122.580, 192.012 123.073, 192.052 125.230, 192.226 128.451, 192.021 129.670, 191.944 131.747, 190.040 134.376, 187.841 135.374, 185.617 137.174, 181.276 141.569, 180.034 145.518, 178.056 146.711, 175.599 149.703, 172.451 150.300, 170.565 151.874, 166.334 151.825, 164.810 151.455, 160.177 146.765, 151.345 146.168, 150.221 144.845, 147.699 140.915, 150.816 133.714, 157.755 130.252, 161.091 120.725, 164.128 115.129, 165.911 110.361, 167.462 " />
            <path fill="none" stroke-width="3.0" stroke-linecap="butt" stroke-opacity="1.0" stroke="rgb(0, 0, 0)" stroke-linejoin="round" d=" M 84.893, 95.801 85.402, 95.483 85.562, 95.887 86.180, 97.443 86.641, 99.130 91.704, 103.496 " />
            <path fill="none" stroke-width="3.0" stroke-linecap="butt" stroke-opacity="1.0" stroke="rgb(0, 0, 0)" stroke-linejoin="round" d=" M 123.270, 141.966 123.967, 141.757 123.971, 141.756 124.101, 141.713 124.112, 141.710 126.700, 137.730 127.590, 136.375 128.449, 131.041 128.697, 129.085 128.395, 127.044 127.500, 121.869 126.125, 119.885 123.868, 116.587 121.778, 115.926 117.791, 114.708 113.768, 116.144 " />
            <path fill="none" stroke-width="3.0" stroke-linecap="butt" stroke-opacity="1.0" stroke="rgb(0, 0, 0)" stroke-linejoin="round" d=" M 70.686, 106.254 72.041, 102.797 " />
            <path fill="none" stroke-width="3.0" stroke-linecap="butt" stroke-opacity="1.0" stroke="rgb(0, 0, 0)" stroke-linejoin="round" d=" M 184.088, 146.377 189.720, 150.176 188.133, 140.302 187.906, 138.887 187.770, 138.044 189.018, 135.157 188.958, 136.823 187.906, 138.887 " />
            <path fill="none" stroke-width="3.0" stroke-linecap="butt" stroke-opacity="1.0" stroke="rgb(0, 0, 0)" stroke-linejoin="round" d=" M 130.859, 108.421 133.589, 110.571 133.789, 111.014 137.561, 119.470 137.542, 120.664 137.871, 130.488 135.141, 137.679 135.023, 137.898 135.006, 137.929 133.537, 139.518 " />
            <path fill="none" stroke-width="3.0" stroke-linecap="butt" stroke-opacity="1.0" stroke="rgb(0, 0, 0)" stroke-linejoin="round" d=" M 108.034, 197.448 111.804, 197.417 116.692, 197.376 119.959, 194.893 123.250, 192.393 " />
            <path fill="none" stroke-width="3.0" stroke-linecap="butt" stroke-opacity="1.0" stroke="rgb(0, 0, 0)" stroke-linejoin="round" d=" M 68.482, 109.635 69.947, 106.754 70.035, 106.581 71.719, 103.268 72.041, 102.797 74.982, 98.481 80.707, 95.263 85.562, 95.887 " />
            <path fill="none" stroke-width="3.0" stroke-linecap="butt" stroke-opacity="1.0" stroke="rgb(0, 0, 0)" stroke-linejoin="round" d=" M 93.937, 106.983 91.403, 99.529 89.225, 92.015 85.490, 88.245 " />
            <path fill="none" stroke-width="3.0" stroke-linecap="butt" stroke-opacity="1.0" stroke="rgb(0, 0, 0)" stroke-linejoin="round" d=" M 113.418, 90.476 107.713, 97.134 106.190, 107.083 110.835, 100.475 116.461, 95.870 126.422, 94.988 126.654, 94.968 136.133, 98.154 136.706, 98.346 142.214, 103.580 147.483, 110.697 147.488, 101.926 143.570, 94.831 " />
            <path fill="none" stroke-width="3.0" stroke-linecap="butt" stroke-opacity="1.0" stroke="rgb(0, 0, 0)" stroke-linejoin="round" d=" M 126.688, 105.139 116.774, 106.527 114.029, 111.724 113.768, 116.144 " />
            <path fill="none" stroke-width="3.0" stroke-linecap="butt" stroke-opacity="1.0" stroke="rgb(0, 0, 0)" stroke-linejoin="round" d=" M 94.202, 107.557 88.339, 106.082 85.045, 111.057 82.932, 118.800 82.958, 128.739 83.889, 135.773 84.926, 137.123 " />
            <path fill="none" stroke-width="3.0" stroke-linecap="butt" stroke-opacity="1.0" stroke="rgb(0, 0, 0)" stroke-linejoin="round" d=" M 118.645, 144.058 128.611, 143.228 130.260, 143.090 133.537, 139.518 " />
            <path fill="none" stroke-width="3.0" stroke-linecap="butt" stroke-opacity="1.0" stroke="rgb(0, 0, 0)" stroke-linejoin="round" d=" M 192.353, 133.893 199.968, 127.411 206.841, 121.560 207.556, 122.235 208.336, 118.987 208.845, 116.804 205.590, 107.348 202.335, 97.893 201.425, 95.249 199.087, 85.526 197.556, 79.161 191.941, 70.887 186.933, 63.507 180.077, 56.227 179.395, 55.503 176.708, 50.949 168.934, 44.659 161.602, 38.727 153.764, 32.517 152.585, 31.582 143.351, 27.743 135.397, 24.437 131.624, 24.294 121.631, 24.666 111.638, 25.038 110.425, 25.083 100.593, 26.904 95.855, 27.782 93.516, 28.241 85.913, 34.736 81.930, 38.139 74.905, 45.256 74.012, 46.161 71.281, 51.675 66.409, 59.724 64.345, 69.244 65.343, 79.194 65.438, 80.145 " />
            <path fill="none" stroke-width="3.0" stroke-linecap="butt" stroke-opacity="1.0" stroke="rgb(0, 0, 0)" stroke-linejoin="round" d=" M 75.683, 122.767 73.767, 119.819 73.728, 129.819 73.720, 131.801 70.336, 136.768 68.054, 139.671 " />
            <path fill="none" stroke-width="3.0" stroke-linecap="butt" stroke-opacity="1.0" stroke="rgb(0, 0, 0)" stroke-linejoin="round" d=" M 69.920, 139.195 70.433, 138.399 71.185, 136.933 69.662, 139.230 " />
            <path fill="none" stroke-width="3.0" stroke-linecap="butt" stroke-opacity="1.0" stroke="rgb(0, 0, 0)" stroke-linejoin="round" d=" M 65.438, 80.145 63.354, 78.513 64.306, 78.365 62.439, 78.458 62.068, 78.484 53.793, 84.100 53.045, 84.608 44.224, 89.319 43.652, 89.624 43.302, 91.584 52.963, 94.167 62.624, 96.750 67.373, 98.020 " />
            <path fill="none" stroke-width="3.0" stroke-linecap="butt" stroke-opacity="1.0" stroke="rgb(0, 0, 0)" stroke-linejoin="round" d=" M 119.959, 194.893 122.408, 194.129 126.649, 193.326 126.775, 194.951 126.833, 195.698 126.367, 195.664 125.510, 195.601 123.859, 195.479 125.572, 195.143 125.510, 195.601 125.232, 197.647 " />
            <path fill="none" stroke-width="3.0" stroke-linecap="butt" stroke-opacity="1.0" stroke="rgb(0, 0, 0)" stroke-linejoin="round" d=" M 85.661, 137.962 86.783, 137.416 88.249, 136.703 88.360, 136.649 88.232, 136.666 86.611, 136.890 84.926, 137.123 80.341, 137.756 76.974, 138.221 69.920, 139.195 69.662, 139.230 69.025, 139.318 68.054, 139.671 65.320, 140.664 59.954, 142.500 55.668, 147.391 55.563, 153.221 51.556, 161.560 50.733, 165.221 51.726, 169.549 56.264, 176.062 60.354, 182.850 65.627, 185.716 74.993, 189.219 75.368, 189.359 76.165, 189.657 76.649, 189.715 79.399, 190.046 80.693, 189.943 85.968, 189.520 89.876, 189.207 93.725, 187.756 101.429, 183.573 107.992, 180.010 " />
            <path fill="none" stroke-width="3.0" stroke-linecap="butt" stroke-opacity="1.0" stroke="rgb(0, 0, 0)" stroke-linejoin="round" d=" M 67.468, 97.591 67.373, 98.020 67.055, 99.461 66.787, 100.679 66.893, 101.520 67.110, 103.236 68.688, 107.042 " />
            <path fill="none" stroke-width="3.0" stroke-linecap="butt" stroke-opacity="1.0" stroke="rgb(0, 0, 0)" stroke-linejoin="round" d=" M 70.035, 106.581 70.686, 106.254 " />
            <path fill="none" stroke-width="3.0" stroke-linecap="butt" stroke-opacity="1.0" stroke="rgb(0, 0, 0)" stroke-linejoin="round" d=" M 75.368, 189.359 76.198, 190.596 77.700, 192.225 79.242, 192.718 80.548, 193.137 84.080, 194.272 84.088, 194.270 84.167, 194.252 84.182, 194.249 89.038, 192.250 93.494, 190.416 93.731, 190.512 94.004, 190.959 99.536, 193.248 107.848, 197.420 107.990, 197.423 108.155, 197.426 108.486, 197.444 " />
            <path fill="none" stroke-width="3.0" stroke-linecap="butt" stroke-opacity="1.0" stroke="rgb(0, 0, 0)" stroke-linejoin="round" d=" M 80.548, 193.137 80.358, 193.270 85.444, 198.681 86.793, 199.911 91.075, 204.001 97.768, 209.814 98.757, 210.622 106.920, 214.121 109.073, 213.830 113.553, 212.211 117.233, 211.408 119.773, 213.155 119.480, 214.059 126.289, 211.904 136.082, 210.720 139.183, 209.769 147.946, 205.715 152.225, 203.996 160.195, 197.956 164.837, 194.439 171.799, 187.259 173.041, 185.978 174.264, 183.698 175.471, 181.445 177.637, 179.419 181.357, 171.541 184.831, 172.445 192.910, 172.048 193.394, 172.024 202.400, 167.677 202.800, 167.484 205.785, 164.822 206.850, 164.082 210.010, 154.595 210.258, 153.852 210.614, 151.748 209.542, 145.526 205.594, 136.341 204.732, 134.908 202.050, 132.545 199.084, 131.752 195.448, 131.738 " />
            <path fill="none" stroke-width="3.0" stroke-linecap="butt" stroke-opacity="1.0" stroke="rgb(0, 0, 0)" stroke-linejoin="round" d=" M 89.038, 192.250 90.121, 193.285 92.486, 194.806 102.263, 196.903 103.366, 197.140 108.658, 198.399 111.804, 197.417 " />
            <path fill="none" stroke-width="3.0" stroke-linecap="butt" stroke-opacity="1.0" stroke="rgb(0, 0, 0)" stroke-linejoin="round" d=" M 93.272, 114.141 92.396, 113.908 90.550, 114.287 88.815, 114.875 87.692, 116.407 87.160, 116.806 85.839, 120.484 85.273, 121.886 85.006, 125.599 84.852, 127.805 85.084, 130.094 85.477, 133.948 86.052, 135.188 86.611, 136.890 " />
            <path fill="none" stroke-width="3.0" stroke-linecap="butt" stroke-opacity="1.0" stroke="rgb(0, 0, 0)" stroke-linejoin="round" d=" M 94.570, 108.893 94.813, 110.450 94.453, 114.479 94.378, 115.320 94.260, 125.320 94.198, 130.600 93.163, 137.197 93.173, 137.222 93.175, 137.243 88.715, 137.670 " />
            <path fill="none" stroke-width="3.0" stroke-linecap="butt" stroke-opacity="1.0" stroke="rgb(0, 0, 0)" stroke-linejoin="round" d=" M 174.264, 183.698 176.203, 183.969 178.533, 184.139 181.017, 183.210 189.075, 177.289 191.702, 175.358 192.902, 173.499 192.910, 172.048 " />
        </g>
    </g>
</svg>
