<?xml version='1.0' encoding='ascii'?>
<svg xmlns="http://www.w3.org/2000/svg" version="1.1" width="250" height="250">
    <g id="ViewLayer_LineSet" xmlns:inkscape="http://www.inkscape.org/namespaces/inkscape" inkscape:groupmode="lineset" inkscape:label="ViewLayer_LineSet">
        <g xmlns:inkscape="http://www.inkscape.org/namespaces/inkscape" inkscape:groupmode="layer" id="strokes" inkscape:label="strokes">
            <path fill="none" stroke-width="3.0" stroke-linecap="butt" stroke-opacity="1.0" stroke="rgb(0, 0, 0)" stroke-linejoin="round" d=" M 178.020, 109.995 179.393, 106.546 179.998, 105.026 180.101, 104.254 179.924, 103.438 177.422, 99.210 176.201, 98.363 " />
            <path fill="none" stroke-width="3.0" stroke-linecap="butt" stroke-opacity="1.0" stroke="rgb(0, 0, 0)" stroke-linejoin="round" d=" M 152.463, 107.704 156.795, 104.195 158.243, 101.528 159.298, 100.124 159.508, 99.844 160.765, 99.883 " />
            <path fill="none" stroke-width="3.0" stroke-linecap="butt" stroke-opacity="1.0" stroke="rgb(0, 0, 0)" stroke-linejoin="round" d=" M 127.099, 118.689 124.344, 118.053 119.850, 119.802 118.261, 120.475 116.157, 124.153 115.049, 126.029 114.696, 130.552 114.472, 133.202 115.113, 135.980 116.131, 140.269 117.556, 142.087 120.138, 145.255 121.497, 145.544 125.684, 146.422 " />
            <path fill="none" stroke-width="3.0" stroke-linecap="butt" stroke-opacity="1.0" stroke="rgb(0, 0, 0)" stroke-linejoin="round" d=" M 201.440, 99.409 201.440, 99.408 199.462, 94.914 192.682, 91.629 186.077, 88.100 185.082, 88.561 184.006, 89.060 176.920, 93.487 " />
            <path fill="none" stroke-width="3.0" stroke-linecap="butt" stroke-opacity="1.0" stroke="rgb(0, 0, 0)" stroke-linejoin="round" d=" M 156.646, 28.538 154.609, 27.372 153.644, 27.305 143.649, 26.974 133.655, 26.643 123.660, 26.312 121.586, 26.244 116.422, 25.810 110.101, 25.939 100.833, 29.693 95.238, 31.959 87.293, 38.031 85.493, 39.407 77.616, 45.568 70.520, 51.117 68.085, 55.241 61.711, 61.738 56.125, 70.032 50.539, 78.327 50.038, 79.070 47.951, 88.850 47.158, 92.569 43.934, 102.035 40.709, 111.501 40.389, 112.440 40.475, 115.380 44.380, 119.502 51.762, 126.248 55.175, 129.367 " />
            <path fill="none" stroke-width="3.0" stroke-linecap="butt" stroke-opacity="1.0" stroke="rgb(0, 0, 0)" stroke-linejoin="round" d=" M 105.564, 127.429 105.612, 123.822 105.634, 123.484 105.660, 123.103 109.346, 115.554 109.774, 114.741 113.369, 112.384 " />
            <path fill="none" stroke-width="3.0" stroke-linecap="butt" stroke-opacity="1.0" stroke="rgb(0, 0, 0)" stroke-linejoin="round" d=" M 149.565, 142.246 149.323, 140.889 149.016, 136.542 149.363, 126.548 149.626, 118.949 149.665, 117.805 149.603, 113.859 150.987, 109.926 " />
            <path fill="none" stroke-width="3.0" stroke-linecap="butt" stroke-opacity="1.0" stroke="rgb(0, 0, 0)" stroke-linejoin="round" d=" M 116.691, 195.774 116.700, 195.781 117.664, 196.552 120.606, 198.905 123.050, 200.859 129.267, 201.148 131.720, 201.262 " />
            <path fill="none" stroke-width="3.0" stroke-linecap="butt" stroke-opacity="1.0" stroke="rgb(0, 0, 0)" stroke-linejoin="round" d=" M 100.709, 98.593 96.570, 105.616 96.296, 114.419 101.791, 107.439 107.554, 102.340 117.114, 99.405 117.724, 99.218 127.656, 100.380 127.858, 100.404 133.409, 105.223 138.157, 111.879 136.836, 104.418 132.026, 96.376 125.444, 92.074 " />
            <path fill="none" stroke-width="3.0" stroke-linecap="butt" stroke-opacity="1.0" stroke="rgb(0, 0, 0)" stroke-linejoin="round" d=" M 160.765, 99.883 165.017, 99.183 171.257, 102.085 174.798, 106.762 178.122, 113.047 " />
            <path fill="none" stroke-width="3.0" stroke-linecap="butt" stroke-opacity="1.0" stroke="rgb(0, 0, 0)" stroke-linejoin="round" d=" M 156.527, 95.142 152.384, 101.816 149.696, 111.448 149.663, 111.565 " />
            <path fill="none" stroke-width="3.0" stroke-linecap="butt" stroke-opacity="1.0" stroke="rgb(0, 0, 0)" stroke-linejoin="round" d=" M 105.454, 133.629 108.353, 141.091 113.368, 145.883 123.273, 147.254 124.751, 147.458 125.684, 146.422 " />
            <path fill="none" stroke-width="3.0" stroke-linecap="butt" stroke-opacity="1.0" stroke="rgb(0, 0, 0)" stroke-linejoin="round" d=" M 130.226, 116.803 127.488, 111.479 117.629, 109.804 117.406, 109.766 " />
            <path fill="none" stroke-width="3.0" stroke-linecap="butt" stroke-opacity="1.0" stroke="rgb(0, 0, 0)" stroke-linejoin="round" d=" M 157.053, 143.554 161.563, 138.196 163.412, 130.983 164.289, 120.990 162.367, 113.000 157.789, 108.146 " />
            <path fill="none" stroke-width="3.0" stroke-linecap="butt" stroke-opacity="1.0" stroke="rgb(0, 0, 0)" stroke-linejoin="round" d=" M 129.875, 172.548 126.688, 171.360 117.211, 168.166 109.841, 165.681 104.085, 160.659 97.507, 153.127 96.055, 151.464 94.914, 153.568 90.121, 162.345 89.381, 163.698 89.284, 165.583 88.914, 169.689 89.454, 171.636 90.875, 175.721 92.272, 178.559 94.592, 181.606 98.963, 182.891 102.642, 184.921 104.333, 188.635 105.505, 191.277 108.052, 193.549 110.161, 195.378 113.945, 195.673 116.591, 195.547 116.827, 195.535 117.360, 195.510 117.628, 195.680 121.382, 198.074 120.606, 198.905 " />
            <path fill="none" stroke-width="3.0" stroke-linecap="butt" stroke-opacity="1.0" stroke="rgb(0, 0, 0)" stroke-linejoin="round" d=" M 181.025, 108.374 182.340, 103.556 180.554, 102.067 182.834, 101.777 192.754, 100.515 201.439, 99.410 201.440, 99.410 " />
            <path fill="none" stroke-width="3.0" stroke-linecap="butt" stroke-opacity="1.0" stroke="rgb(0, 0, 0)" stroke-linejoin="round" d=" M 53.327, 128.457 50.744, 128.408 46.524, 129.410 44.163, 131.568 43.363, 132.923 39.887, 141.506 38.914, 146.939 39.327, 149.862 41.955, 159.058 43.818, 160.519 49.138, 165.880 54.046, 168.592 58.555, 169.083 59.930, 168.804 65.486, 167.678 " />
            <path fill="none" stroke-width="3.0" stroke-linecap="butt" stroke-opacity="1.0" stroke="rgb(0, 0, 0)" stroke-linejoin="round" d=" M 67.808, 175.258 69.205, 180.909 67.114, 174.689 66.019, 171.431 65.901, 171.078 65.949, 170.802 66.007, 170.471 65.723, 167.630 65.651, 166.906 65.746, 165.572 65.260, 166.868 65.486, 167.678 65.677, 168.363 65.949, 170.802 66.019, 171.431 66.037, 171.585 67.041, 174.629 69.644, 182.523 74.169, 188.423 81.073, 194.515 86.409, 198.880 95.714, 202.544 98.381, 203.595 103.897, 206.131 112.317, 209.040 115.719, 209.811 118.649, 210.987 " />
            <path fill="none" stroke-width="3.0" stroke-linecap="butt" stroke-opacity="1.0" stroke="rgb(0, 0, 0)" stroke-linejoin="round" d=" M 116.543, 209.028 118.119, 210.201 119.964, 211.191 127.315, 212.956 130.900, 214.940 133.730, 215.086 134.139, 215.087 134.598, 214.948 143.341, 211.763 144.727, 210.862 151.504, 205.764 156.025, 202.567 157.712, 201.225 164.113, 196.177 " />
            <path fill="none" stroke-width="3.0" stroke-linecap="butt" stroke-opacity="1.0" stroke="rgb(0, 0, 0)" stroke-linejoin="round" d=" M 181.275, 151.378 180.533, 148.717 181.074, 150.207 182.178, 146.748 182.548, 144.668 182.973, 140.073 182.340, 139.060 176.449, 130.980 174.971, 128.953 173.866, 122.285 175.630, 121.514 175.567, 120.765 176.802, 118.727 180.587, 109.471 181.337, 107.636 182.834, 101.777 " />
            <path fill="none" stroke-width="3.0" stroke-linecap="butt" stroke-opacity="1.0" stroke="rgb(0, 0, 0)" stroke-linejoin="round" d=" M 117.722, 197.967 117.664, 196.552 " />
            <path fill="none" stroke-width="3.0" stroke-linecap="butt" stroke-opacity="1.0" stroke="rgb(0, 0, 0)" stroke-linejoin="round" d=" M 59.274, 136.268 58.137, 133.781 57.870, 131.428 59.327, 135.918 59.274, 136.268 57.842, 145.718 57.433, 149.104 57.688, 150.584 60.426, 155.001 " />
            <path fill="none" stroke-width="3.0" stroke-linecap="butt" stroke-opacity="1.0" stroke="rgb(0, 0, 0)" stroke-linejoin="round" d=" M 59.930, 168.804 67.041, 174.629 " />
            <path fill="none" stroke-width="3.0" stroke-linecap="butt" stroke-opacity="1.0" stroke="rgb(0, 0, 0)" stroke-linejoin="round" d=" M 129.267, 201.148 131.756, 201.244 132.483, 201.272 135.268, 200.292 136.407, 199.823 144.302, 196.576 " />
            <path fill="none" stroke-width="3.0" stroke-linecap="butt" stroke-opacity="1.0" stroke="rgb(0, 0, 0)" stroke-linejoin="round" d=" M 132.704, 185.137 139.416, 192.550 141.946, 195.344 142.454, 195.609 144.302, 196.576 146.427, 197.687 146.497, 197.688 151.352, 197.702 154.640, 197.712 154.803, 197.713 158.160, 197.722 159.721, 197.397 160.792, 197.174 163.406, 196.389 164.113, 196.177 172.350, 193.704 177.245, 191.638 181.177, 186.085 186.645, 179.411 188.059, 173.765 187.765, 167.857 187.637, 167.204 185.709, 157.391 185.623, 156.950 185.131, 155.393 184.210, 154.213 181.752, 153.087 180.649, 152.582 173.909, 149.493 173.308, 149.217 166.980, 145.810 166.445, 145.696 156.809, 143.648 156.607, 143.604 156.498, 143.581 155.582, 143.279 153.582, 142.619 " />
            <path fill="none" stroke-width="3.0" stroke-linecap="butt" stroke-opacity="1.0" stroke="rgb(0, 0, 0)" stroke-linejoin="round" d=" M 136.407, 199.823 145.301, 199.140 148.857, 198.870 151.352, 197.702 " />
            <path fill="none" stroke-width="3.0" stroke-linecap="butt" stroke-opacity="1.0" stroke="rgb(0, 0, 0)" stroke-linejoin="round" d=" M 154.803, 197.713 156.553, 198.402 156.679, 198.452 157.928, 198.091 163.292, 196.536 163.406, 196.389 " />
            <path fill="none" stroke-width="3.0" stroke-linecap="butt" stroke-opacity="1.0" stroke="rgb(0, 0, 0)" stroke-linejoin="round" d=" M 156.607, 143.604 157.380, 142.515 157.770, 142.207 159.324, 138.104 159.853, 136.983 160.457, 132.407 160.699, 130.688 160.484, 129.098 159.926, 124.554 159.512, 123.625 157.981, 119.280 157.915, 119.244 157.807, 119.100 154.544, 118.436 152.052, 118.085 " />
            <path fill="none" stroke-width="3.0" stroke-linecap="butt" stroke-opacity="1.0" stroke="rgb(0, 0, 0)" stroke-linejoin="round" d=" M 187.637, 167.204 188.245, 164.005 188.454, 163.061 188.354, 158.715 188.297, 157.682 186.136, 152.650 183.967, 147.194 182.032, 149.922 181.275, 151.378 180.649, 152.582 " />
            <path fill="none" stroke-width="3.0" stroke-linecap="butt" stroke-opacity="1.0" stroke="rgb(0, 0, 0)" stroke-linejoin="round" d=" M 185.082, 88.561 185.351, 86.065 186.398, 76.120 187.357, 67.009 187.231, 66.373 181.888, 57.920 179.269, 53.775 174.650, 44.905 174.221, 44.081 169.052, 38.905 161.378, 32.493 156.646, 28.538 " />
        </g>
    </g>
</svg>
