<?xml version='1.0' encoding='ascii'?>
<svg xmlns="http://www.w3.org/2000/svg" version="1.1" width="250" height="250">
    <g id="ViewLayer_LineSet" xmlns:inkscape="http://www.inkscape.org/namespaces/inkscape" inkscape:groupmode="lineset" inkscape:label="ViewLayer_LineSet">
        <g xmlns:inkscape="http://www.inkscape.org/namespaces/inkscape" inkscape:groupmode="layer" id="strokes" inkscape:label="strokes">
            <path fill="none" stroke-width="3.0" stroke-linecap="butt" stroke-opacity="1.0" stroke="rgb(0, 0, 0)" stroke-linejoin="round" d=" M 152.637, 186.058 155.939, 182.422 156.302, 182.022 159.250, 181.964 163.022, 181.278 163.507, 181.190 165.878, 178.421 167.628, 176.540 168.629, 173.985 168.903, 173.282 169.081, 172.828 170.560, 169.620 175.654, 167.608 177.364, 166.492 177.387, 166.477 177.481, 166.415 177.928, 166.123 178.877, 162.774 180.298, 160.650 180.994, 157.166 181.550, 154.704 181.203, 151.131 180.902, 148.802 179.290, 145.832 177.653, 142.815 175.058, 137.645 170.710, 141.868 164.674, 149.709 162.717, 150.471 " />
            <path fill="none" stroke-width="3.0" stroke-linecap="butt" stroke-opacity="1.0" stroke="rgb(0, 0, 0)" stroke-linejoin="round" d=" M 137.496, 92.930 137.942, 92.414 138.010, 92.335 138.824, 91.671 " />
            <path fill="none" stroke-width="3.0" stroke-linecap="butt" stroke-opacity="1.0" stroke="rgb(0, 0, 0)" stroke-linejoin="round" d=" M 114.908, 109.102 109.569, 107.876 107.762, 108.556 103.565, 110.389 103.191, 111.081 100.432, 115.932 100.381, 116.783 100.015, 123.028 101.329, 128.048 101.892, 130.077 103.776, 132.291 " />
            <path fill="none" stroke-width="3.0" stroke-linecap="butt" stroke-opacity="1.0" stroke="rgb(0, 0, 0)" stroke-linejoin="round" d=" M 187.188, 94.842 187.187, 94.841 182.457, 86.031 177.726, 77.220 176.448, 74.841 169.654, 71.938 160.620, 67.650 153.117, 64.089 150.926, 64.072 140.927, 63.954 130.928, 63.837 127.754, 63.800 117.754, 63.806 107.754, 63.812 103.911, 63.814 102.150, 63.808 93.001, 67.845 83.795, 71.908 77.872, 74.267 72.321, 82.586 66.771, 90.904 64.659, 94.070 63.328, 96.315 " />
            <path fill="none" stroke-width="3.0" stroke-linecap="butt" stroke-opacity="1.0" stroke="rgb(0, 0, 0)" stroke-linejoin="round" d=" M 187.032, 123.155 191.196, 118.700 192.411, 108.774 193.627, 98.849 193.960, 96.122 193.963, 91.411 193.367, 89.001 192.481, 83.789 188.531, 74.603 184.581, 65.416 182.142, 59.742 175.581, 52.195 174.938, 51.456 168.874, 43.504 165.124, 38.586 160.411, 35.346 151.746, 30.355 144.963, 26.449 141.278, 26.492 131.279, 26.341 121.280, 26.190 111.282, 26.038 106.910, 25.972 103.635, 25.816 94.820, 30.539 86.547, 34.971 83.331, 37.045 77.000, 44.786 71.206, 51.872 65.134, 58.382 60.815, 67.401 56.496, 76.420 52.177, 85.439 50.606, 88.719 50.081, 89.922 50.088, 90.406 49.967, 91.415 50.884, 101.373 51.801, 111.331 52.574, 119.719 58.624, 125.592 61.373, 129.733 " />
            <path fill="none" stroke-width="3.0" stroke-linecap="butt" stroke-opacity="1.0" stroke="rgb(0, 0, 0)" stroke-linejoin="round" d=" M 107.521, 129.664 104.174, 132.012 103.776, 132.291 100.459, 134.618 100.073, 135.937 98.144, 142.530 96.353, 144.740 94.707, 147.099 94.262, 151.964 94.242, 152.271 94.078, 154.841 96.958, 157.740 103.411, 165.380 104.037, 166.121 104.376, 166.476 105.039, 166.941 113.225, 172.684 117.703, 175.825 121.894, 176.833 128.510, 177.642 135.451, 176.655 140.464, 175.424 149.622, 171.408 150.954, 170.824 151.720, 170.488 157.834, 164.266 160.428, 159.242 162.845, 151.450 162.717, 150.471 161.782, 143.355 158.388, 137.447 157.104, 133.611 154.085, 131.887 150.107, 129.614 148.989, 128.975 147.974, 128.396 144.959, 126.594 136.869, 125.219 135.856, 125.107 130.806, 124.546 127.956, 124.230 121.356, 125.084 120.137, 125.241 111.208, 127.057 107.521, 129.664 " />
            <path fill="none" stroke-width="3.0" stroke-linecap="butt" stroke-opacity="1.0" stroke="rgb(0, 0, 0)" stroke-linejoin="round" d=" M 135.488, 186.383 141.738, 189.281 143.061, 189.140 150.235, 188.374 151.304, 187.344 156.076, 182.741 " />
            <path fill="none" stroke-width="3.0" stroke-linecap="butt" stroke-opacity="1.0" stroke="rgb(0, 0, 0)" stroke-linejoin="round" d=" M 97.799, 183.481 100.832, 186.146 104.084, 189.003 112.943, 189.684 " />
            <path fill="none" stroke-width="3.0" stroke-linecap="butt" stroke-opacity="1.0" stroke="rgb(0, 0, 0)" stroke-linejoin="round" d=" M 80.859, 103.895 85.822, 96.968 90.956, 91.728 100.048, 87.920 109.287, 88.147 114.457, 92.244 " />
            <path fill="none" stroke-width="3.0" stroke-linecap="butt" stroke-opacity="1.0" stroke="rgb(0, 0, 0)" stroke-linejoin="round" d=" M 119.649, 98.715 117.432, 91.029 113.113, 83.978 107.075, 80.571 " />
            <path fill="none" stroke-width="3.0" stroke-linecap="butt" stroke-opacity="1.0" stroke="rgb(0, 0, 0)" stroke-linejoin="round" d=" M 138.824, 91.671 142.617, 88.473 151.525, 88.276 160.128, 92.094 165.082, 97.234 169.894, 104.050 " />
            <path fill="none" stroke-width="3.0" stroke-linecap="butt" stroke-opacity="1.0" stroke="rgb(0, 0, 0)" stroke-linejoin="round" d=" M 139.969, 83.038 134.953, 89.073 132.830, 98.845 132.801, 98.978 " />
            <path fill="none" stroke-width="3.0" stroke-linecap="butt" stroke-opacity="1.0" stroke="rgb(0, 0, 0)" stroke-linejoin="round" d=" M 154.556, 131.370 156.695, 124.178 156.668, 114.178 156.666, 113.538 153.305, 104.855 147.051, 99.341 138.278, 100.183 135.947, 105.113 135.927, 109.405 " />
            <path fill="none" stroke-width="3.0" stroke-linecap="butt" stroke-opacity="1.0" stroke="rgb(0, 0, 0)" stroke-linejoin="round" d=" M 115.323, 106.261 112.772, 101.356 103.544, 100.555 97.133, 106.390 93.684, 114.719 93.681, 124.719 93.681, 125.139 96.068, 132.131 100.073, 135.937 " />
            <path fill="none" stroke-width="3.0" stroke-linecap="butt" stroke-opacity="1.0" stroke="rgb(0, 0, 0)" stroke-linejoin="round" d=" M 178.828, 99.840 186.525, 97.563 186.007, 96.374 185.335, 95.940 187.186, 94.844 187.187, 94.843 " />
            <path fill="none" stroke-width="3.0" stroke-linecap="butt" stroke-opacity="1.0" stroke="rgb(0, 0, 0)" stroke-linejoin="round" d=" M 61.916, 130.550 61.131, 128.094 61.373, 129.733 61.625, 131.441 62.008, 134.030 60.977, 136.005 56.828, 144.464 56.984, 148.470 60.141, 155.099 61.299, 155.564 61.685, 156.963 61.540, 161.623 62.916, 169.179 63.275, 170.474 63.617, 171.462 65.063, 175.629 70.326, 184.132 74.205, 190.398 77.899, 193.102 83.893, 198.167 92.707, 202.890 97.941, 205.695 106.562, 210.763 107.425, 211.270 109.759, 212.170 119.466, 214.574 120.855, 214.918 124.531, 216.459 129.154, 214.348 138.782, 211.455 142.783, 209.523 150.533, 204.386 159.335, 199.640 168.137, 194.895 172.430, 192.580 172.490, 192.534 172.518, 192.511 177.731, 183.977 182.943, 175.443 185.720, 170.896 186.017, 170.228 186.070, 170.061 186.182, 169.034 186.203, 168.838 186.047, 158.839 186.016, 156.830 186.136, 153.501 187.559, 153.131 189.892, 147.601 190.396, 143.336 185.272, 134.749 184.043, 132.689 184.005, 132.634 184.014, 132.425 184.066, 131.200 184.230, 127.341 184.248, 126.920 184.259, 126.656 185.423, 125.114 184.248, 126.920 " />
            <path fill="none" stroke-width="3.0" stroke-linecap="butt" stroke-opacity="1.0" stroke="rgb(0, 0, 0)" stroke-linejoin="round" d=" M 61.625, 131.441 59.476, 132.174 57.995, 133.349 53.846, 137.905 52.955, 141.460 51.271, 147.028 50.334, 150.572 50.697, 155.239 51.746, 162.516 53.998, 164.344 56.712, 169.062 60.830, 171.052 63.617, 171.462 " />
            <path fill="none" stroke-width="3.0" stroke-linecap="butt" stroke-opacity="1.0" stroke="rgb(0, 0, 0)" stroke-linejoin="round" d=" M 94.242, 152.271 88.693, 150.293 82.863, 144.865 77.112, 137.963 74.742, 142.722 71.145, 149.457 70.886, 152.733 70.572, 155.460 71.283, 158.581 72.063, 161.474 73.200, 164.699 74.848, 167.165 79.181, 168.606 82.537, 170.593 84.247, 174.091 85.709, 177.544 88.179, 180.109 90.190, 182.127 95.169, 182.885 97.754, 182.863 97.995, 183.032 100.552, 184.829 100.832, 186.146 " />
            <path fill="none" stroke-width="3.0" stroke-linecap="butt" stroke-opacity="1.0" stroke="rgb(0, 0, 0)" stroke-linejoin="round" d=" M 113.356, 189.483 114.770, 190.551 118.533, 192.582 123.926, 192.754 133.919, 193.149 134.990, 193.191 140.276, 190.807 143.061, 189.140 " />
            <path fill="none" stroke-width="3.0" stroke-linecap="butt" stroke-opacity="1.0" stroke="rgb(0, 0, 0)" stroke-linejoin="round" d=" M 121.532, 185.504 126.700, 183.120 126.920, 183.118 128.220, 183.057 128.570, 183.176 129.280, 183.417 131.071, 184.336 " />
            <path fill="none" stroke-width="3.0" stroke-linecap="butt" stroke-opacity="1.0" stroke="rgb(0, 0, 0)" stroke-linejoin="round" d=" M 150.107, 129.614 150.540, 128.964 150.661, 128.162 151.363, 121.772 150.915, 118.946 149.902, 114.873 149.762, 114.646 147.743, 111.266 146.704, 109.849 146.567, 109.666 142.146, 108.423 140.092, 107.943 136.795, 109.111 " />
            <path fill="none" stroke-width="3.0" stroke-linecap="butt" stroke-opacity="1.0" stroke="rgb(0, 0, 0)" stroke-linejoin="round" d=" M 184.230, 127.341 187.032, 123.155 " />
            <path fill="none" stroke-width="3.0" stroke-linecap="butt" stroke-opacity="1.0" stroke="rgb(0, 0, 0)" stroke-linejoin="round" d=" M 186.182, 169.034 187.280, 168.473 189.864, 163.076 192.212, 160.966 192.977, 154.258 193.236, 149.176 192.328, 146.099 190.876, 141.138 190.181, 137.372 186.689, 133.377 184.066, 131.200 " />
        </g>
    </g>
</svg>
