<?xml version='1.0' encoding='ascii'?>
<svg xmlns="http://www.w3.org/2000/svg" version="1.1" width="250" height="250">
    <g id="ViewLayer_LineSet" xmlns:inkscape="http://www.inkscape.org/namespaces/inkscape" inkscape:groupmode="lineset" inkscape:label="ViewLayer_LineSet">
        <g xmlns:inkscape="http://www.inkscape.org/namespaces/inkscape" inkscape:groupmode="layer" id="strokes" inkscape:label="strokes">
            <path fill="none" stroke-width="3.0" stroke-linecap="butt" stroke-opacity="1.0" stroke="rgb(0, 0, 0)" stroke-linejoin="round" d=" M 133.360, 190.552 135.692, 188.137 136.438, 187.365 136.479, 187.366 139.179, 187.463 143.971, 186.920 146.235, 184.696 148.635, 182.529 149.978, 179.639 151.917, 175.675 156.797, 174.140 160.258, 172.293 161.471, 169.476 163.875, 166.696 164.639, 164.096 165.793, 160.593 165.678, 158.085 165.367, 154.480 161.067, 146.258 159.182, 142.489 154.419, 146.357 147.432, 153.510 145.719, 155.264 136.230, 158.418 133.010, 159.488 " />
            <path fill="none" stroke-width="3.0" stroke-linecap="butt" stroke-opacity="1.0" stroke="rgb(0, 0, 0)" stroke-linejoin="round" d=" M 99.637, 189.387 105.257, 187.000 105.768, 186.783 105.991, 186.809 107.022, 187.000 110.437, 188.280 113.301, 189.719 116.050, 191.100 " />
            <path fill="none" stroke-width="3.0" stroke-linecap="butt" stroke-opacity="1.0" stroke="rgb(0, 0, 0)" stroke-linejoin="round" d=" M 159.113, 98.405 159.112, 98.390 159.112, 98.387 158.642, 97.522 " />
            <path fill="none" stroke-width="3.0" stroke-linecap="butt" stroke-opacity="1.0" stroke="rgb(0, 0, 0)" stroke-linejoin="round" d=" M 102.404, 111.340 99.127, 110.483 97.461, 110.960 94.573, 112.061 93.673, 112.902 93.400, 113.067 91.217, 117.715 90.840, 118.466 90.252, 123.878 90.153, 124.956 90.276, 126.042 90.855, 131.670 " />
            <path fill="none" stroke-width="3.0" stroke-linecap="butt" stroke-opacity="1.0" stroke="rgb(0, 0, 0)" stroke-linejoin="round" d=" M 132.298, 138.507 133.361, 138.188 133.865, 138.019 133.985, 137.979 136.208, 134.871 137.852, 132.513 138.458, 129.194 139.034, 125.215 138.424, 120.672 138.012, 117.997 135.645, 114.603 134.369, 112.773 130.999, 111.741 128.027, 110.901 123.903, 112.310 " />
            <path fill="none" stroke-width="3.0" stroke-linecap="butt" stroke-opacity="1.0" stroke="rgb(0, 0, 0)" stroke-linejoin="round" d=" M 157.726, 81.903 153.598, 77.943 152.193, 77.478 142.762, 74.154 141.427, 73.684 " />
            <path fill="none" stroke-width="3.0" stroke-linecap="butt" stroke-opacity="1.0" stroke="rgb(0, 0, 0)" stroke-linejoin="round" d=" M 191.579, 129.372 198.965, 122.630 202.102, 119.767 202.538, 109.776 202.604, 108.250 200.535, 98.467 199.442, 93.303 198.748, 85.413 194.020, 76.602 189.292, 67.790 187.400, 64.264 182.322, 55.650 181.848, 54.846 179.733, 52.830 172.995, 45.441 170.263, 42.446 162.901, 35.678 162.745, 35.534 160.771, 33.690 151.801, 29.270 143.277, 25.071 139.898, 23.597 139.521, 23.647 129.553, 24.446 119.584, 25.245 109.616, 26.043 102.266, 26.632 99.331, 26.825 91.077, 32.471 85.707, 36.145 79.580, 41.127 74.095, 49.488 73.030, 51.112 66.973, 59.070 64.519, 62.295 61.660, 71.252 61.213, 79.369 " />
            <path fill="none" stroke-width="3.0" stroke-linecap="butt" stroke-opacity="1.0" stroke="rgb(0, 0, 0)" stroke-linejoin="round" d=" M 190.834, 149.788 191.242, 147.968 189.913, 143.334 187.294, 136.236 187.235, 136.076 188.783, 131.230 188.051, 134.548 187.294, 136.236 " />
            <path fill="none" stroke-width="3.0" stroke-linecap="butt" stroke-opacity="1.0" stroke="rgb(0, 0, 0)" stroke-linejoin="round" d=" M 121.816, 135.250 125.302, 139.038 " />
            <path fill="none" stroke-width="3.0" stroke-linecap="butt" stroke-opacity="1.0" stroke="rgb(0, 0, 0)" stroke-linejoin="round" d=" M 82.228, 133.829 73.135, 137.990 72.051, 138.486 71.037, 138.950 70.724, 139.224 71.351, 146.696 70.264, 148.616 68.684, 151.407 67.392, 157.755 67.808, 162.523 68.138, 166.308 74.110, 174.329 76.513, 177.557 77.259, 178.707 80.172, 180.133 82.886, 180.637 88.239, 181.631 92.672, 182.268 100.038, 183.326 105.423, 182.827 108.188, 182.571 111.535, 181.624 120.488, 177.170 129.498, 172.688 129.571, 172.619 " />
            <path fill="none" stroke-width="3.0" stroke-linecap="butt" stroke-opacity="1.0" stroke="rgb(0, 0, 0)" stroke-linejoin="round" d=" M 120.944, 193.646 124.729, 193.468 130.005, 193.219 132.773, 191.018 135.846, 188.576 136.720, 187.882 " />
            <path fill="none" stroke-width="3.0" stroke-linecap="butt" stroke-opacity="1.0" stroke="rgb(0, 0, 0)" stroke-linejoin="round" d=" M 81.357, 184.777 86.212, 190.584 93.621, 191.998 " />
            <path fill="none" stroke-width="3.0" stroke-linecap="butt" stroke-opacity="1.0" stroke="rgb(0, 0, 0)" stroke-linejoin="round" d=" M 72.451, 106.390 76.741, 99.722 81.084, 94.674 88.618, 91.092 96.221, 91.514 " />
            <path fill="none" stroke-width="3.0" stroke-linecap="butt" stroke-opacity="1.0" stroke="rgb(0, 0, 0)" stroke-linejoin="round" d=" M 104.965, 102.274 102.666, 94.655 99.623, 87.383 94.792, 83.836 " />
            <path fill="none" stroke-width="3.0" stroke-linecap="butt" stroke-opacity="1.0" stroke="rgb(0, 0, 0)" stroke-linejoin="round" d=" M 126.125, 86.032 120.318, 92.419 118.225, 102.197 118.174, 102.435 123.369, 95.842 128.978, 91.490 139.031, 90.948 148.394, 94.461 148.745, 94.592 154.102, 99.828 159.215, 106.863 159.113, 98.391 " />
            <path fill="none" stroke-width="3.0" stroke-linecap="butt" stroke-opacity="1.0" stroke="rgb(0, 0, 0)" stroke-linejoin="round" d=" M 128.743, 140.477 138.722, 139.823 138.999, 139.805 144.219, 134.419 147.035, 127.022 147.079, 117.022 147.083, 116.155 143.448, 107.302 136.678, 101.761 126.852, 102.864 124.053, 107.955 123.780, 112.350 " />
            <path fill="none" stroke-width="3.0" stroke-linecap="butt" stroke-opacity="1.0" stroke="rgb(0, 0, 0)" stroke-linejoin="round" d=" M 101.978, 104.022 94.409, 102.931 89.469, 108.392 86.481, 116.452 86.236, 126.449 86.231, 126.647 87.341, 132.134 " />
            <path fill="none" stroke-width="3.0" stroke-linecap="butt" stroke-opacity="1.0" stroke="rgb(0, 0, 0)" stroke-linejoin="round" d=" M 173.528, 97.956 166.513, 90.830 159.497, 83.703 157.726, 81.903 " />
            <path fill="none" stroke-width="3.0" stroke-linecap="butt" stroke-opacity="1.0" stroke="rgb(0, 0, 0)" stroke-linejoin="round" d=" M 60.174, 94.426 61.147, 104.378 61.559, 108.598 63.113, 115.690 64.249, 117.283 68.136, 122.781 64.310, 117.772 68.115, 123.743 67.699, 127.191 69.149, 126.822 68.577, 130.054 62.158, 137.722 61.908, 138.021 60.087, 140.615 59.753, 146.998 59.992, 148.004 60.770, 148.782 " />
            <path fill="none" stroke-width="3.0" stroke-linecap="butt" stroke-opacity="1.0" stroke="rgb(0, 0, 0)" stroke-linejoin="round" d=" M 93.809, 69.747 83.813, 70.031 80.084, 70.136 78.755, 70.179 69.968, 74.955 65.639, 77.308 61.213, 79.369 58.098, 80.820 54.901, 90.295 54.341, 91.955 60.174, 94.426 65.299, 96.597 63.199, 98.357 62.714, 102.901 67.600, 102.717 " />
            <path fill="none" stroke-width="3.0" stroke-linecap="butt" stroke-opacity="1.0" stroke="rgb(0, 0, 0)" stroke-linejoin="round" d=" M 132.773, 191.018 133.107, 191.072 134.476, 190.639 135.413, 190.422 136.145, 190.252 136.098, 190.579 136.068, 190.785 135.993, 191.307 135.753, 191.274 135.201, 191.197 134.776, 191.138 135.275, 190.928 136.098, 190.579 136.239, 190.520 136.068, 190.785 " />
            <path fill="none" stroke-width="3.0" stroke-linecap="butt" stroke-opacity="1.0" stroke="rgb(0, 0, 0)" stroke-linejoin="round" d=" M 135.753, 191.274 134.757, 192.820 135.201, 191.197 " />
            <path fill="none" stroke-width="3.0" stroke-linecap="butt" stroke-opacity="1.0" stroke="rgb(0, 0, 0)" stroke-linejoin="round" d=" M 187.213, 155.414 190.834, 149.788 " />
            <path fill="none" stroke-width="3.0" stroke-linecap="butt" stroke-opacity="1.0" stroke="rgb(0, 0, 0)" stroke-linejoin="round" d=" M 70.264, 148.616 69.986, 148.241 65.101, 139.960 65.090, 139.983 62.395, 145.636 60.770, 148.782 59.749, 150.757 59.353, 154.855 59.153, 156.445 59.783, 160.564 60.090, 162.256 60.942, 166.524 61.633, 167.872 62.635, 168.347 66.046, 169.962 67.907, 171.523 68.883, 173.841 70.406, 178.325 73.099, 181.705 74.178, 182.995 77.081, 183.691 80.571, 183.971 81.357, 184.777 83.865, 187.346 85.369, 189.576 " />
            <path fill="none" stroke-width="3.0" stroke-linecap="butt" stroke-opacity="1.0" stroke="rgb(0, 0, 0)" stroke-linejoin="round" d=" M 62.635, 168.347 63.332, 170.457 64.035, 175.764 69.241, 184.302 70.013, 185.568 78.833, 190.280 86.103, 194.163 88.637, 198.770 90.906, 200.018 " />
            <path fill="none" stroke-width="3.0" stroke-linecap="butt" stroke-opacity="1.0" stroke="rgb(0, 0, 0)" stroke-linejoin="round" d=" M 90.906, 200.018 90.868, 200.106 93.209, 204.255 93.727, 204.749 94.367, 205.218 103.053, 210.174 103.242, 210.282 111.977, 211.039 113.329, 213.056 " />
            <path fill="none" stroke-width="3.0" stroke-linecap="butt" stroke-opacity="1.0" stroke="rgb(0, 0, 0)" stroke-linejoin="round" d=" M 129.986, 172.117 132.315, 162.392 133.010, 159.488 133.332, 158.144 133.419, 157.790 133.406, 157.655 133.393, 157.529 133.390, 157.495 133.384, 157.480 133.287, 157.228 131.240, 147.439 130.504, 143.921 129.957, 141.305 128.743, 140.477 127.806, 139.839 126.558, 138.987 120.638, 133.559 120.427, 133.366 120.412, 133.352 118.632, 132.980 108.843, 130.936 108.402, 130.844 106.982, 130.548 104.198, 130.117 103.293, 130.207 97.686, 130.769 92.738, 131.422 90.855, 131.670 87.341, 132.134 85.552, 132.370 82.228, 133.829 " />
            <path fill="none" stroke-width="3.0" stroke-linecap="butt" stroke-opacity="1.0" stroke="rgb(0, 0, 0)" stroke-linejoin="round" d=" M 96.991, 92.312 98.979, 94.901 101.573, 97.518 " />
            <path fill="none" stroke-width="3.0" stroke-linecap="butt" stroke-opacity="1.0" stroke="rgb(0, 0, 0)" stroke-linejoin="round" d=" M 96.702, 190.660 101.736, 193.716 110.334, 194.879 118.284, 196.110 122.915, 194.409 124.729, 193.468 " />
            <path fill="none" stroke-width="3.0" stroke-linecap="butt" stroke-opacity="1.0" stroke="rgb(0, 0, 0)" stroke-linejoin="round" d=" M 103.266, 131.260 105.842, 130.469 106.953, 130.562 108.400, 130.863 118.191, 132.900 118.641, 132.994 120.427, 133.366 120.516, 133.384 120.638, 133.559 121.816, 135.250 " />
            <path fill="none" stroke-width="3.0" stroke-linecap="butt" stroke-opacity="1.0" stroke="rgb(0, 0, 0)" stroke-linejoin="round" d=" M 113.329, 213.056 119.109, 215.797 125.525, 213.483 135.400, 211.904 136.132, 211.787 138.425, 210.969 147.188, 206.151 147.488, 205.986 156.308, 201.904 164.308, 195.904 166.316, 194.398 172.932, 188.192 177.861, 180.857 178.809, 178.506 180.866, 173.400 181.425, 172.013 181.555, 171.348 181.926, 169.445 183.893, 162.002 180.313, 162.506 " />
            <path fill="none" stroke-width="3.0" stroke-linecap="butt" stroke-opacity="1.0" stroke="rgb(0, 0, 0)" stroke-linejoin="round" d=" M 130.504, 143.921 130.940, 144.291 132.762, 154.124 133.384, 157.480 133.393, 157.529 133.412, 157.630 133.406, 157.655 132.964, 159.504 130.636, 169.229 130.009, 171.852 129.986, 172.117 " />
            <path fill="none" stroke-width="3.0" stroke-linecap="butt" stroke-opacity="1.0" stroke="rgb(0, 0, 0)" stroke-linejoin="round" d=" M 127.806, 139.839 133.847, 138.047 " />
            <path fill="none" stroke-width="3.0" stroke-linecap="butt" stroke-opacity="1.0" stroke="rgb(0, 0, 0)" stroke-linejoin="round" d=" M 178.809, 178.506 182.096, 175.233 180.866, 173.400 " />
            <path fill="none" stroke-width="3.0" stroke-linecap="butt" stroke-opacity="1.0" stroke="rgb(0, 0, 0)" stroke-linejoin="round" d=" M 181.555, 171.348 183.658, 172.218 190.184, 171.615 196.364, 168.637 199.618, 164.747 201.440, 163.422 203.573, 154.813 204.020, 151.303 203.011, 146.557 200.441, 139.367 199.423, 136.793 195.105, 132.559 192.450, 131.671 190.438, 131.160 191.579, 129.372 " />
        </g>
    </g>
</svg>
