<?xml version='1.0' encoding='ascii'?>
<svg xmlns="http://www.w3.org/2000/svg" version="1.1" width="250" height="250">
    <g id="ViewLayer_LineSet" xmlns:inkscape="http://www.inkscape.org/namespaces/inkscape" inkscape:groupmode="lineset" inkscape:label="ViewLayer_LineSet">
        <g xmlns:inkscape="http://www.inkscape.org/namespaces/inkscape" inkscape:groupmode="layer" id="strokes" inkscape:label="strokes">
            <path fill="none" stroke-width="3.0" stroke-linecap="butt" stroke-opacity="1.0" stroke="rgb(0, 0, 0)" stroke-linejoin="round" d=" M 164.515, 189.047 169.564, 182.897 173.211, 182.537 175.647, 181.895 178.233, 178.342 179.134, 177.211 180.564, 172.653 181.443, 170.442 185.136, 168.450 186.692, 167.611 187.619, 166.785 188.261, 162.650 188.897, 161.385 189.469, 157.052 189.700, 155.614 189.246, 151.311 189.067, 149.983 186.743, 145.512 186.265, 144.509 183.851, 139.444 181.528, 142.483 " />
            <path fill="none" stroke-width="3.0" stroke-linecap="butt" stroke-opacity="1.0" stroke="rgb(0, 0, 0)" stroke-linejoin="round" d=" M 147.823, 97.234 150.289, 94.754 152.434, 91.810 " />
            <path fill="none" stroke-width="3.0" stroke-linecap="butt" stroke-opacity="1.0" stroke="rgb(0, 0, 0)" stroke-linejoin="round" d=" M 194.631, 90.547 194.630, 90.546 192.116, 80.868 192.068, 80.682 184.469, 76.939 184.116, 76.765 175.452, 71.771 172.039, 69.804 170.278, 69.735 160.284, 69.386 153.852, 69.161 " />
            <path fill="none" stroke-width="3.0" stroke-linecap="butt" stroke-opacity="1.0" stroke="rgb(0, 0, 0)" stroke-linejoin="round" d=" M 182.055, 116.260 182.622, 115.407 183.506, 111.616 184.601, 101.676 185.374, 94.661 " />
            <path fill="none" stroke-width="3.0" stroke-linecap="butt" stroke-opacity="1.0" stroke="rgb(0, 0, 0)" stroke-linejoin="round" d=" M 114.369, 187.718 115.653, 188.704 116.963, 189.711 117.287, 189.959 121.193, 192.959 128.743, 193.184 130.276, 193.229 " />
            <path fill="none" stroke-width="3.0" stroke-linecap="butt" stroke-opacity="1.0" stroke="rgb(0, 0, 0)" stroke-linejoin="round" d=" M 149.252, 187.786 155.469, 190.463 156.976, 191.112 164.073, 189.614 " />
            <path fill="none" stroke-width="3.0" stroke-linecap="butt" stroke-opacity="1.0" stroke="rgb(0, 0, 0)" stroke-linejoin="round" d=" M 91.112, 97.938 91.108, 106.469 96.239, 99.370 101.665, 94.071 111.033, 90.574 111.458, 90.415 121.450, 90.944 127.157, 95.294 132.402, 101.882 130.440, 94.186 125.356, 86.791 118.703, 83.066 " />
            <path fill="none" stroke-width="3.0" stroke-linecap="butt" stroke-opacity="1.0" stroke="rgb(0, 0, 0)" stroke-linejoin="round" d=" M 152.843, 91.364 160.218, 90.986 167.321, 94.583 171.555, 99.563 175.699, 106.157 " />
            <path fill="none" stroke-width="3.0" stroke-linecap="butt" stroke-opacity="1.0" stroke="rgb(0, 0, 0)" stroke-linejoin="round" d=" M 150.593, 85.991 146.538, 92.151 144.480, 102.020 " />
            <path fill="none" stroke-width="3.0" stroke-linecap="butt" stroke-opacity="1.0" stroke="rgb(0, 0, 0)" stroke-linejoin="round" d=" M 117.343, 138.144 117.651, 138.199 122.773, 139.107 " />
            <path fill="none" stroke-width="3.0" stroke-linecap="butt" stroke-opacity="1.0" stroke="rgb(0, 0, 0)" stroke-linejoin="round" d=" M 125.682, 108.830 122.722, 103.775 112.722, 102.732 105.500, 108.463 101.944, 116.935 102.214, 126.931 102.232, 127.588 105.334, 134.791 110.679, 139.635 120.664, 140.175 121.923, 140.243 " />
            <path fill="none" stroke-width="3.0" stroke-linecap="butt" stroke-opacity="1.0" stroke="rgb(0, 0, 0)" stroke-linejoin="round" d=" M 161.221, 130.803 162.347, 125.562 162.398, 115.562 162.400, 115.183 159.598, 106.757 154.241, 101.443 146.919, 102.513 " />
            <path fill="none" stroke-width="3.0" stroke-linecap="butt" stroke-opacity="1.0" stroke="rgb(0, 0, 0)" stroke-linejoin="round" d=" M 176.321, 97.901 179.329, 103.051 183.757, 103.154 184.148, 97.929 182.136, 96.099 185.374, 94.661 194.512, 90.601 194.629, 90.549 194.630, 90.549 " />
            <path fill="none" stroke-width="3.0" stroke-linecap="butt" stroke-opacity="1.0" stroke="rgb(0, 0, 0)" stroke-linejoin="round" d=" M 70.064, 182.232 67.050, 172.697 66.803, 171.915 66.616, 171.322 " />
            <path fill="none" stroke-width="3.0" stroke-linecap="butt" stroke-opacity="1.0" stroke="rgb(0, 0, 0)" stroke-linejoin="round" d=" M 66.812, 161.234 64.643, 164.108 66.032, 168.864 66.469, 171.547 66.541, 171.990 66.550, 172.017 69.657, 181.522 70.202, 183.187 70.308, 183.336 72.412, 186.283 80.173, 192.589 82.266, 194.289 90.006, 200.622 94.173, 204.032 100.205, 206.883 109.173, 211.307 110.165, 211.797 111.551, 212.212 121.454, 213.605 123.098, 213.836 129.249, 215.799 135.298, 213.033 " />
            <path fill="none" stroke-width="3.0" stroke-linecap="butt" stroke-opacity="1.0" stroke="rgb(0, 0, 0)" stroke-linejoin="round" d=" M 186.265, 144.509 186.515, 140.229 184.777, 137.879 178.325, 130.239 177.684, 129.480 176.799, 125.413 178.416, 125.955 177.960, 123.326 182.065, 116.518 180.017, 119.179 182.055, 116.260 " />
            <path fill="none" stroke-width="3.0" stroke-linecap="butt" stroke-opacity="1.0" stroke="rgb(0, 0, 0)" stroke-linejoin="round" d=" M 107.464, 73.964 98.978, 76.921 98.057, 77.219 95.498, 79.556 88.284, 86.481 81.070, 93.406 76.937, 97.373 78.288, 98.353 " />
            <path fill="none" stroke-width="3.0" stroke-linecap="butt" stroke-opacity="1.0" stroke="rgb(0, 0, 0)" stroke-linejoin="round" d=" M 117.378, 192.158 116.963, 189.711 " />
            <path fill="none" stroke-width="3.0" stroke-linecap="butt" stroke-opacity="1.0" stroke="rgb(0, 0, 0)" stroke-linejoin="round" d=" M 59.796, 137.423 58.955, 135.646 58.418, 132.786 59.920, 136.902 59.796, 137.423 58.169, 144.259 57.314, 148.409 57.559, 150.314 60.722, 155.252 64.315, 152.950 66.098, 150.739 " />
            <path fill="none" stroke-width="3.0" stroke-linecap="butt" stroke-opacity="1.0" stroke="rgb(0, 0, 0)" stroke-linejoin="round" d=" M 132.393, 174.748 140.586, 180.482 141.070, 180.820 144.201, 181.667 144.636, 181.702 144.709, 181.708 147.615, 181.946 152.048, 182.309 157.594, 181.448 163.815, 180.483 167.204, 179.806 171.831, 178.883 174.861, 177.384 175.602, 176.175 181.282, 167.944 183.613, 164.567 184.815, 156.259 183.794, 149.465 181.528, 142.483 180.906, 140.568 179.996, 138.803 179.788, 138.400 176.213, 135.195 174.121, 134.396 169.163, 132.501 166.541, 131.411 161.221, 130.803 158.375, 130.478 156.797, 130.298 155.124, 130.107 147.172, 129.391 146.045, 129.567 145.918, 129.586 144.225, 129.850 141.872, 130.348 132.088, 132.420 131.176, 132.613 130.265, 132.806 130.252, 132.817 123.475, 139.183 123.418, 139.222 122.600, 139.780 121.967, 140.213 121.923, 140.243 121.026, 140.856 120.748, 142.419 118.998, 152.264 118.690, 153.996 119.984, 144.080 120.145, 142.840 120.748, 142.419 123.163, 140.729 122.600, 139.780 122.487, 139.589 122.992, 139.146 130.202, 132.820 130.252, 132.817 130.305, 132.815 131.162, 132.641 140.962, 130.652 141.892, 130.464 145.109, 129.811 145.976, 131.168 " />
            <path fill="none" stroke-width="3.0" stroke-linecap="butt" stroke-opacity="1.0" stroke="rgb(0, 0, 0)" stroke-linejoin="round" d=" M 184.469, 76.939 184.059, 67.459 182.806, 63.173 176.923, 55.087 173.828, 50.831 168.534, 42.347 168.433, 42.185 161.434, 36.350 153.258, 30.591 148.689, 27.373 145.276, 27.075 135.324, 26.104 125.371, 25.133 115.418, 24.162 108.716, 23.508 108.309, 23.447 105.605, 24.572 96.626, 28.973 87.672, 33.362 84.934, 35.853 77.504, 42.545 73.475, 46.173 67.078, 52.940 65.752, 54.153 62.403, 59.611 57.538, 68.347 52.673, 77.084 48.439, 84.688 47.365, 94.248 45.132, 103.995 43.151, 112.644 43.371, 120.522 50.874, 127.133 55.256, 130.995 55.746, 131.780 54.722, 132.037 50.950, 133.254 46.702, 137.373 45.629, 139.906 42.956, 147.384 41.969, 152.376 42.440, 155.682 44.712, 164.611 46.379, 165.774 49.402, 169.174 56.623, 172.493 64.000, 173.050 66.024, 172.230 66.550, 172.017 " />
            <path fill="none" stroke-width="3.0" stroke-linecap="butt" stroke-opacity="1.0" stroke="rgb(0, 0, 0)" stroke-linejoin="round" d=" M 66.024, 172.230 63.061, 176.780 65.513, 179.103 70.308, 183.336 " />
            <path fill="none" stroke-width="3.0" stroke-linecap="butt" stroke-opacity="1.0" stroke="rgb(0, 0, 0)" stroke-linejoin="round" d=" M 126.562, 161.784 119.968, 159.714 110.442, 156.669 105.336, 155.037 98.467, 149.522 91.535, 142.314 91.382, 142.155 89.581, 145.769 85.176, 154.309 85.085, 156.742 84.782, 160.471 85.447, 162.733 86.811, 166.594 88.097, 169.243 90.566, 172.369 94.758, 173.550 98.871, 175.689 100.942, 179.807 102.227, 182.537 104.546, 184.642 107.074, 186.868 112.251, 187.368 114.590, 187.242 114.695, 187.236 115.132, 187.498 116.753, 188.469 117.605, 188.979 117.287, 189.959 " />
            <path fill="none" stroke-width="3.0" stroke-linecap="butt" stroke-opacity="1.0" stroke="rgb(0, 0, 0)" stroke-linejoin="round" d=" M 125.841, 111.752 119.729, 110.458 116.870, 111.675 113.819, 113.101 112.549, 115.622 110.891, 118.775 110.802, 122.307 110.696, 125.977 111.618, 129.159 112.791, 133.078 114.164, 134.656 117.321, 138.134 117.338, 138.138 117.433, 138.155 117.651, 138.199 " />
            <path fill="none" stroke-width="3.0" stroke-linecap="butt" stroke-opacity="1.0" stroke="rgb(0, 0, 0)" stroke-linejoin="round" d=" M 128.743, 193.184 129.504, 193.725 132.238, 194.999 138.406, 194.649 148.407, 194.077 155.469, 190.463 " />
            <path fill="none" stroke-width="3.0" stroke-linecap="butt" stroke-opacity="1.0" stroke="rgb(0, 0, 0)" stroke-linejoin="round" d=" M 135.298, 213.033 136.923, 210.886 146.330, 210.088 150.274, 208.161 155.404, 204.306 161.145, 199.704 161.349, 199.526 162.348, 198.606 159.915, 194.386 168.556, 189.352 177.197, 184.319 178.402, 183.617 181.922, 181.724 182.353, 181.051 184.251, 171.503 185.136, 168.450 " />
            <path fill="none" stroke-width="3.0" stroke-linecap="butt" stroke-opacity="1.0" stroke="rgb(0, 0, 0)" stroke-linejoin="round" d=" M 133.960, 191.210 142.583, 187.113 144.171, 186.358 144.572, 186.316 144.745, 186.237 " />
            <path fill="none" stroke-width="3.0" stroke-linecap="butt" stroke-opacity="1.0" stroke="rgb(0, 0, 0)" stroke-linejoin="round" d=" M 145.416, 111.690 145.296, 108.296 145.246, 107.121 145.235, 106.880 145.570, 106.229 " />
            <path fill="none" stroke-width="3.0" stroke-linecap="butt" stroke-opacity="1.0" stroke="rgb(0, 0, 0)" stroke-linejoin="round" d=" M 158.375, 130.478 158.441, 130.324 158.705, 124.906 158.792, 123.674 158.523, 122.462 157.380, 117.361 156.887, 116.464 154.804, 112.288 154.498, 112.133 153.700, 111.415 150.828, 110.730 148.672, 110.371 148.135, 110.573 147.078, 110.970 " />
            <path fill="none" stroke-width="3.0" stroke-linecap="butt" stroke-opacity="1.0" stroke="rgb(0, 0, 0)" stroke-linejoin="round" d=" M 175.275, 102.274 176.321, 97.901 176.617, 96.666 176.311, 96.151 173.557, 91.527 172.265, 90.645 " />
        </g>
    </g>
</svg>
