<?xml version='1.0' encoding='ascii'?>
<svg xmlns="http://www.w3.org/2000/svg" version="1.1" width="250" height="250">
    <g id="ViewLayer_LineSet" xmlns:inkscape="http://www.inkscape.org/namespaces/inkscape" inkscape:groupmode="lineset" inkscape:label="ViewLayer_LineSet">
        <g xmlns:inkscape="http://www.inkscape.org/namespaces/inkscape" inkscape:groupmode="layer" id="strokes" inkscape:label="strokes">
            <path fill="none" stroke-width="3.0" stroke-linecap="butt" stroke-opacity="1.0" stroke="rgb(0, 0, 0)" stroke-linejoin="round" d=" M 150.713, 88.001 152.719, 85.692 153.354, 84.417 " />
            <path fill="none" stroke-width="3.0" stroke-linecap="butt" stroke-opacity="1.0" stroke="rgb(0, 0, 0)" stroke-linejoin="round" d=" M 194.575, 76.138 194.575, 76.138 194.354, 69.112 185.921, 63.738 183.691, 62.317 175.844, 56.023 170.056, 55.736 169.861, 55.726 159.887, 55.007 154.344, 54.608 144.354, 54.172 134.819, 53.756 131.320, 53.560 122.081, 57.387 112.842, 61.214 109.770, 62.486 105.384, 64.166 99.415, 70.636 92.816, 78.149 86.217, 85.662 82.981, 89.346 82.664, 92.509 " />
            <path fill="none" stroke-width="3.0" stroke-linecap="butt" stroke-opacity="1.0" stroke="rgb(0, 0, 0)" stroke-linejoin="round" d=" M 128.548, 175.849 129.143, 176.223 130.302, 176.951 136.070, 180.574 138.031, 180.477 139.845, 180.388 145.268, 180.120 " />
            <path fill="none" stroke-width="3.0" stroke-linecap="butt" stroke-opacity="1.0" stroke="rgb(0, 0, 0)" stroke-linejoin="round" d=" M 159.488, 172.295 168.234, 176.393 170.574, 177.490 176.777, 176.365 " />
            <path fill="none" stroke-width="3.0" stroke-linecap="butt" stroke-opacity="1.0" stroke="rgb(0, 0, 0)" stroke-linejoin="round" d=" M 95.932, 90.686 96.684, 98.690 101.231, 91.668 106.204, 86.347 115.398, 82.414 115.610, 82.324 125.496, 82.207 131.515, 85.873 137.056, 92.034 134.696, 84.520 " />
            <path fill="none" stroke-width="3.0" stroke-linecap="butt" stroke-opacity="1.0" stroke="rgb(0, 0, 0)" stroke-linejoin="round" d=" M 154.262, 83.317 160.464, 83.772 166.834, 87.865 168.036, 89.281 171.023, 92.802 175.345, 99.212 " />
            <path fill="none" stroke-width="3.0" stroke-linecap="butt" stroke-opacity="1.0" stroke="rgb(0, 0, 0)" stroke-linejoin="round" d=" M 151.841, 78.063 149.038, 83.268 148.009, 92.631 " />
            <path fill="none" stroke-width="3.0" stroke-linecap="butt" stroke-opacity="1.0" stroke="rgb(0, 0, 0)" stroke-linejoin="round" d=" M 119.708, 125.287 119.967, 125.538 124.319, 129.760 " />
            <path fill="none" stroke-width="3.0" stroke-linecap="butt" stroke-opacity="1.0" stroke="rgb(0, 0, 0)" stroke-linejoin="round" d=" M 129.964, 100.779 126.525, 96.267 116.492, 95.998 109.545, 102.289 107.305, 108.804 " />
            <path fill="none" stroke-width="3.0" stroke-linecap="butt" stroke-opacity="1.0" stroke="rgb(0, 0, 0)" stroke-linejoin="round" d=" M 163.458, 108.815 160.216, 100.514 155.027, 95.076 148.853, 95.336 " />
            <path fill="none" stroke-width="3.0" stroke-linecap="butt" stroke-opacity="1.0" stroke="rgb(0, 0, 0)" stroke-linejoin="round" d=" M 171.567, 145.385 162.761, 145.991 152.774, 146.493 142.786, 146.995 140.484, 147.110 130.664, 145.221 128.678, 144.839 118.981, 142.396 117.403, 141.998 108.844, 136.827 108.085, 136.368 101.624, 131.325 99.711, 135.517 95.908, 143.585 95.954, 145.601 95.770, 149.865 96.338, 151.346 98.371, 155.860 99.345, 157.429 103.091, 161.215 106.363, 161.875 111.746, 164.084 114.678, 169.295 115.632, 171.057 117.180, 172.302 120.943, 175.223 126.922, 175.653 128.173, 175.743 128.605, 175.689 128.643, 175.684 129.266, 175.968 129.143, 176.223 " />
            <path fill="none" stroke-width="3.0" stroke-linecap="butt" stroke-opacity="1.0" stroke="rgb(0, 0, 0)" stroke-linejoin="round" d=" M 174.659, 101.635 177.541, 100.641 178.501, 100.309 181.546, 91.724 179.485, 88.991 187.098, 82.507 194.574, 76.139 194.574, 76.138 " />
            <path fill="none" stroke-width="3.0" stroke-linecap="butt" stroke-opacity="1.0" stroke="rgb(0, 0, 0)" stroke-linejoin="round" d=" M 170.056, 55.736 167.856, 50.729 165.555, 47.491 164.649, 46.024 156.867, 39.743 152.332, 36.083 145.663, 31.445 136.998, 30.460 127.062, 29.329 117.126, 28.198 110.777, 27.475 104.867, 26.632 95.612, 30.420 86.357, 34.207 84.943, 34.785 84.217, 35.187 83.984, 35.416 82.061, 37.287 75.184, 44.548 68.308, 51.808 65.623, 54.642 63.881, 56.241 60.787, 61.305 56.042, 70.107 51.297, 78.910 46.666, 87.500 45.400, 97.419 44.978, 100.720 42.919, 110.505 40.859, 120.291 39.435, 127.059 40.315, 129.827 42.903, 136.571 43.248, 133.227 51.943, 138.166 52.378, 138.413 " />
            <path fill="none" stroke-width="3.0" stroke-linecap="butt" stroke-opacity="1.0" stroke="rgb(0, 0, 0)" stroke-linejoin="round" d=" M 52.378, 138.413 50.363, 138.704 44.673, 144.361 43.403, 147.436 40.461, 155.747 39.443, 161.938 39.890, 163.924 42.971, 173.437 43.017, 173.578 43.503, 174.292 43.643, 174.419 43.967, 174.557 53.554, 177.399 57.935, 178.698 67.543, 178.289 69.163, 177.624 69.486, 177.964 72.608, 181.255 75.194, 183.980 74.747, 184.024 71.987, 183.038 72.608, 181.255 " />
            <path fill="none" stroke-width="3.0" stroke-linecap="butt" stroke-opacity="1.0" stroke="rgb(0, 0, 0)" stroke-linejoin="round" d=" M 79.225, 186.887 79.528, 188.645 84.093, 193.700 86.967, 196.158 89.491, 198.174 92.284, 200.405 100.504, 206.100 106.002, 209.910 109.242, 212.698 115.374, 215.014 125.345, 215.775 131.058, 216.212 136.001, 216.059 138.749, 215.154 147.315, 209.994 150.679, 207.967 155.643, 203.935 " />
            <path fill="none" stroke-width="3.0" stroke-linecap="butt" stroke-opacity="1.0" stroke="rgb(0, 0, 0)" stroke-linejoin="round" d=" M 152.002, 182.845 151.678, 183.558 150.736, 185.632 160.016, 184.293 165.355, 180.820 166.283, 179.021 168.234, 176.393 " />
            <path fill="none" stroke-width="3.0" stroke-linecap="butt" stroke-opacity="1.0" stroke="rgb(0, 0, 0)" stroke-linejoin="round" d=" M 129.662, 185.958 129.363, 177.618 130.302, 176.951 " />
            <path fill="none" stroke-width="3.0" stroke-linecap="butt" stroke-opacity="1.0" stroke="rgb(0, 0, 0)" stroke-linejoin="round" d=" M 138.031, 180.477 142.709, 183.997 139.845, 180.388 " />
            <path fill="none" stroke-width="3.0" stroke-linecap="butt" stroke-opacity="1.0" stroke="rgb(0, 0, 0)" stroke-linejoin="round" d=" M 60.341, 142.324 59.665, 141.258 59.528, 140.047 60.427, 141.187 60.341, 142.324 59.763, 149.913 63.091, 146.661 " />
            <path fill="none" stroke-width="3.0" stroke-linecap="butt" stroke-opacity="1.0" stroke="rgb(0, 0, 0)" stroke-linejoin="round" d=" M 131.608, 130.229 129.232, 131.293 128.857, 131.461 119.107, 131.208 116.434, 130.932 112.236, 127.701 111.046, 126.407 107.805, 121.052 106.696, 111.145 106.657, 110.691 106.657, 110.685 107.305, 108.804 " />
            <path fill="none" stroke-width="3.0" stroke-linecap="butt" stroke-opacity="1.0" stroke="rgb(0, 0, 0)" stroke-linejoin="round" d=" M 162.409, 163.996 161.779, 164.327 160.521, 164.129 159.126, 163.448 161.372, 163.959 162.034, 163.990 162.409, 163.996 163.763, 164.017 167.059, 163.144 173.686, 161.049 175.860, 160.361 177.397, 159.875 181.670, 158.524 190.223, 155.547 191.121, 154.864 191.824, 154.329 195.614, 145.075 195.667, 144.946 197.689, 140.006 197.804, 133.063 196.589, 128.857 194.254, 124.305 188.946, 116.848 182.166, 112.105 177.091, 110.899 168.912, 108.954 163.594, 109.328 163.508, 109.350 159.917, 110.263 158.321, 110.669 151.900, 112.302 151.094, 112.616 149.908, 113.078 145.884, 114.646 143.492, 115.578 138.171, 120.632 134.696, 123.933 132.711, 125.636 131.753, 126.459 131.575, 127.484 131.425, 128.348 131.141, 129.987 130.913, 128.560 130.866, 128.266 131.075, 128.297 131.425, 128.348 133.602, 128.669 133.623, 128.672 133.615, 128.661 132.062, 126.692 131.992, 126.602 132.288, 126.324 138.183, 120.794 " />
            <path fill="none" stroke-width="3.0" stroke-linecap="butt" stroke-opacity="1.0" stroke="rgb(0, 0, 0)" stroke-linejoin="round" d=" M 154.819, 204.159 155.643, 203.935 156.979, 203.573 165.463, 198.280 166.401, 197.695 166.989, 197.138 170.264, 193.737 171.661, 191.900 167.571, 191.167 " />
            <path fill="none" stroke-width="3.0" stroke-linecap="butt" stroke-opacity="1.0" stroke="rgb(0, 0, 0)" stroke-linejoin="round" d=" M 69.486, 177.964 65.351, 180.986 61.524, 188.171 60.311, 190.240 60.541, 191.630 63.365, 195.208 69.805, 200.148 76.023, 201.755 82.219, 200.539 83.328, 199.774 89.491, 198.174 " />
            <path fill="none" stroke-width="3.0" stroke-linecap="butt" stroke-opacity="1.0" stroke="rgb(0, 0, 0)" stroke-linejoin="round" d=" M 134.989, 108.255 134.966, 108.202 134.570, 107.821 130.188, 103.544 126.666, 103.000 123.947, 102.550 122.275, 103.452 118.580, 105.564 117.521, 108.362 116.335, 111.345 116.741, 116.291 116.899, 118.379 117.490, 119.852 119.691, 125.265 119.705, 125.278 119.780, 125.352 119.967, 125.538 " />
            <path fill="none" stroke-width="3.0" stroke-linecap="butt" stroke-opacity="1.0" stroke="rgb(0, 0, 0)" stroke-linejoin="round" d=" M 151.094, 112.616 149.516, 103.388 149.515, 103.378 149.155, 101.275 148.300, 97.737 148.271, 97.619 148.267, 97.881 " />
            <path fill="none" stroke-width="3.0" stroke-linecap="butt" stroke-opacity="1.0" stroke="rgb(0, 0, 0)" stroke-linejoin="round" d=" M 154.697, 173.889 157.724, 172.071 157.743, 172.059 157.802, 172.023 157.919, 172.014 157.890, 172.045 " />
            <path fill="none" stroke-width="3.0" stroke-linecap="butt" stroke-opacity="1.0" stroke="rgb(0, 0, 0)" stroke-linejoin="round" d=" M 159.917, 110.263 159.728, 109.705 158.823, 108.230 157.115, 105.345 156.169, 104.793 153.329, 102.345 152.841, 102.235 152.380, 102.182 149.515, 103.378 " />
            <path fill="none" stroke-width="3.0" stroke-linecap="butt" stroke-opacity="1.0" stroke="rgb(0, 0, 0)" stroke-linejoin="round" d=" M 167.571, 191.167 167.646, 189.984 175.541, 183.847 177.135, 182.608 185.200, 176.696 188.559, 174.234 189.082, 173.456 189.612, 164.462 190.774, 157.067 " />
            <path fill="none" stroke-width="3.0" stroke-linecap="butt" stroke-opacity="1.0" stroke="rgb(0, 0, 0)" stroke-linejoin="round" d=" M 177.091, 110.899 177.529, 100.908 177.541, 100.641 " />
            <path fill="none" stroke-width="3.0" stroke-linecap="butt" stroke-opacity="1.0" stroke="rgb(0, 0, 0)" stroke-linejoin="round" d=" M 177.564, 175.052 180.981, 169.687 183.645, 169.494 186.504, 168.634 188.617, 164.895 189.289, 163.812 190.019, 159.154 190.462, 157.252 190.774, 157.067 194.876, 154.643 195.484, 154.013 195.472, 149.882 195.752, 149.046 195.667, 144.946 " />
        </g>
    </g>
</svg>
