<?xml version='1.0' encoding='ascii'?>
<svg xmlns="http://www.w3.org/2000/svg" version="1.1" width="250" height="250">
    <g id="ViewLayer_LineSet" xmlns:inkscape="http://www.inkscape.org/namespaces/inkscape" inkscape:groupmode="lineset" inkscape:label="ViewLayer_LineSet">
        <g xmlns:inkscape="http://www.inkscape.org/namespaces/inkscape" inkscape:groupmode="layer" id="strokes" inkscape:label="strokes">
            <path fill="none" stroke-width="3.0" stroke-linecap="butt" stroke-opacity="1.0" stroke="rgb(0, 0, 0)" stroke-linejoin="round" d=" M 144.205, 185.578 147.100, 182.504 147.279, 182.314 149.859, 182.349 154.827, 181.613 157.100, 179.183 159.273, 177.043 160.695, 173.766 162.493, 170.081 167.423, 168.395 170.419, 166.683 171.504, 163.677 173.426, 161.189 174.175, 158.152 174.991, 155.167 174.752, 152.039 174.426, 149.138 170.789, 142.363 168.411, 137.622 163.405, 141.899 156.725, 149.341 156.454, 149.642 147.691, 152.680 " />
            <path fill="none" stroke-width="3.0" stroke-linecap="butt" stroke-opacity="1.0" stroke="rgb(0, 0, 0)" stroke-linejoin="round" d=" M 113.393, 183.732 116.562, 182.286 116.693, 182.290 118.093, 182.325 118.861, 182.604 119.431, 182.811 121.617, 183.960 " />
            <path fill="none" stroke-width="3.0" stroke-linecap="butt" stroke-opacity="1.0" stroke="rgb(0, 0, 0)" stroke-linejoin="round" d=" M 106.869, 90.638 107.788, 91.407 107.858, 91.486 108.583, 92.307 " />
            <path fill="none" stroke-width="3.0" stroke-linecap="butt" stroke-opacity="1.0" stroke="rgb(0, 0, 0)" stroke-linejoin="round" d=" M 109.413, 108.525 104.575, 107.336 103.151, 107.823 99.107, 109.506 98.722, 109.793 98.648, 109.834 95.807, 115.083 95.669, 115.334 94.842, 122.081 94.831, 122.200 94.846, 122.316 94.954, 123.290 95.776, 126.838 " />
            <path fill="none" stroke-width="3.0" stroke-linecap="butt" stroke-opacity="1.0" stroke="rgb(0, 0, 0)" stroke-linejoin="round" d=" M 178.740, 89.975 173.001, 81.785 167.262, 73.596 167.081, 73.338 161.385, 71.083 152.204, 67.117 143.024, 63.152 142.356, 62.863 140.447, 62.877 130.447, 62.898 120.447, 62.919 116.787, 62.927 106.788, 63.081 96.790, 63.236 94.234, 63.276 91.594, 63.304 82.648, 67.773 76.125, 71.031 68.698, 74.297 64.369, 83.312 60.041, 92.326 59.674, 93.090 62.932, 95.086 61.824, 95.869 61.081, 97.824 " />
            <path fill="none" stroke-width="3.0" stroke-linecap="butt" stroke-opacity="1.0" stroke="rgb(0, 0, 0)" stroke-linejoin="round" d=" M 189.395, 126.660 196.179, 120.369 196.948, 110.399 197.718, 100.428 198.139, 94.980 197.652, 91.282 197.645, 89.552 195.749, 85.346 191.310, 76.385 186.872, 67.424 182.433, 58.463 182.257, 58.107 176.562, 52.052 170.193, 44.343 163.937, 36.770 161.005, 34.942 152.125, 30.343 143.434, 25.841 139.997, 26.040 130.000, 26.281 120.003, 26.522 110.006, 26.763 106.258, 26.853 102.099, 26.857 93.502, 31.963 87.673, 35.425 82.243, 39.261 76.223, 47.246 73.268, 51.166 66.748, 58.748 65.467, 60.237 61.652, 69.481 57.837, 78.725 56.849, 81.118 55.678, 88.605 54.874, 92.037 54.927, 98.622 56.226, 108.538 57.546, 118.612 61.115, 122.545 63.991, 126.853 " />
            <path fill="none" stroke-width="3.0" stroke-linecap="butt" stroke-opacity="1.0" stroke="rgb(0, 0, 0)" stroke-linejoin="round" d=" M 96.046, 126.674 95.776, 126.838 91.255, 129.575 86.715, 132.323 85.476, 135.538 83.575, 136.453 84.080, 140.049 82.855, 141.944 81.609, 149.265 81.479, 150.032 81.274, 158.224 82.943, 159.175 87.270, 162.786 93.248, 168.157 94.536, 168.997 102.334, 174.079 108.594, 175.559 115.492, 176.572 121.477, 175.847 124.746, 175.048 133.917, 171.062 140.633, 168.144 140.728, 168.046 143.294, 165.409 146.727, 156.017 146.959, 155.381 147.691, 152.680 148.157, 150.957 147.674, 146.378 145.939, 142.359 144.492, 136.715 143.694, 133.604 142.260, 132.638 141.970, 132.443 136.541, 128.787 132.837, 126.053 129.959, 125.436 124.876, 124.346 124.284, 124.219 116.342, 123.121 115.606, 123.192 105.664, 124.159 98.620, 125.287 97.311, 125.993 96.046, 126.674 " />
            <path fill="none" stroke-width="3.0" stroke-linecap="butt" stroke-opacity="1.0" stroke="rgb(0, 0, 0)" stroke-linejoin="round" d=" M 121.617, 183.960 128.639, 187.416 131.908, 189.025 135.463, 188.786 140.876, 188.421 143.300, 186.351 143.457, 186.217 147.292, 182.942 " />
            <path fill="none" stroke-width="3.0" stroke-linecap="butt" stroke-opacity="1.0" stroke="rgb(0, 0, 0)" stroke-linejoin="round" d=" M 89.065, 181.939 92.250, 185.095 94.753, 187.576 97.223, 187.849 103.121, 188.499 " />
            <path fill="none" stroke-width="3.0" stroke-linecap="butt" stroke-opacity="1.0" stroke="rgb(0, 0, 0)" stroke-linejoin="round" d=" M 76.720, 103.396 81.509, 96.579 86.389, 91.394 94.884, 87.566 103.450, 87.707 107.858, 91.486 " />
            <path fill="none" stroke-width="3.0" stroke-linecap="butt" stroke-opacity="1.0" stroke="rgb(0, 0, 0)" stroke-linejoin="round" d=" M 113.064, 98.135 110.861, 90.485 107.160, 83.542 101.662, 80.239 " />
            <path fill="none" stroke-width="3.0" stroke-linecap="butt" stroke-opacity="1.0" stroke="rgb(0, 0, 0)" stroke-linejoin="round" d=" M 134.112, 82.455 128.642, 88.493 126.427, 98.245 126.390, 98.409 131.590, 91.949 136.840, 87.901 146.352, 87.706 155.517, 91.562 160.678, 96.761 165.650, 103.679 " />
            <path fill="none" stroke-width="3.0" stroke-linecap="butt" stroke-opacity="1.0" stroke="rgb(0, 0, 0)" stroke-linejoin="round" d=" M 144.984, 136.697 150.152, 131.291 152.663, 124.066 152.717, 114.066 152.721, 113.309 149.244, 104.520 142.724, 98.941 133.377, 99.746 130.771, 104.668 130.602, 108.983 " />
            <path fill="none" stroke-width="3.0" stroke-linecap="butt" stroke-opacity="1.0" stroke="rgb(0, 0, 0)" stroke-linejoin="round" d=" M 110.089, 105.765 107.883, 100.910 99.339, 100.161 93.482, 105.971 90.114, 114.197 89.876, 124.194 89.869, 124.482 91.255, 129.575 " />
            <path fill="none" stroke-width="3.0" stroke-linecap="butt" stroke-opacity="1.0" stroke="rgb(0, 0, 0)" stroke-linejoin="round" d=" M 176.595, 98.475 182.249, 95.555 178.740, 89.975 " />
            <path fill="none" stroke-width="3.0" stroke-linecap="butt" stroke-opacity="1.0" stroke="rgb(0, 0, 0)" stroke-linejoin="round" d=" M 63.991, 126.687 62.388, 124.251 63.991, 126.431 63.991, 126.687 63.991, 126.853 63.987, 131.775 64.149, 131.720 64.366, 131.647 64.360, 132.180 63.016, 133.807 57.759, 142.054 57.571, 142.350 57.567, 142.749 57.520, 147.479 59.021, 151.606 61.265, 152.699 61.433, 156.141 60.937, 166.129 60.863, 167.599 60.846, 167.944 60.993, 169.289 61.068, 169.517 61.417, 170.471 66.517, 179.073 71.616, 187.675 74.239, 192.101 74.301, 192.144 74.409, 192.238 83.112, 197.164 91.814, 202.090 95.906, 204.406 104.055, 209.556 108.107, 211.417 117.680, 214.610 121.762, 216.535 124.767, 215.318 134.558, 213.284 137.654, 212.640 138.709, 212.221 147.200, 206.937 148.699, 206.004 157.560, 201.370 160.630, 199.764 168.537, 193.642 168.890, 193.369 173.136, 189.620 178.416, 181.127 181.574, 176.048 183.226, 172.095 183.798, 170.726 184.155, 169.339 185.989, 159.412 186.018, 156.978 186.185, 156.289 186.590, 156.221 190.778, 148.496 191.265, 145.363 187.568, 137.578 185.863, 134.515 186.386, 131.763 186.521, 131.050 186.899, 129.060 " />
            <path fill="none" stroke-width="3.0" stroke-linecap="butt" stroke-opacity="1.0" stroke="rgb(0, 0, 0)" stroke-linejoin="round" d=" M 143.457, 186.217 143.997, 186.258 144.860, 185.634 143.307, 187.581 143.300, 186.351 " />
            <path fill="none" stroke-width="3.0" stroke-linecap="butt" stroke-opacity="1.0" stroke="rgb(0, 0, 0)" stroke-linejoin="round" d=" M 57.567, 142.749 56.610, 146.204 55.755, 149.017 55.989, 154.385 56.527, 160.797 58.907, 163.038 60.863, 167.599 " />
            <path fill="none" stroke-width="3.0" stroke-linecap="butt" stroke-opacity="1.0" stroke="rgb(0, 0, 0)" stroke-linejoin="round" d=" M 64.149, 131.720 61.742, 133.803 58.537, 137.593 57.882, 141.610 57.759, 142.054 " />
            <path fill="none" stroke-width="3.0" stroke-linecap="butt" stroke-opacity="1.0" stroke="rgb(0, 0, 0)" stroke-linejoin="round" d=" M 81.609, 149.265 80.630, 148.878 75.729, 143.640 70.687, 136.730 68.215, 141.653 68.005, 142.070 64.863, 147.843 64.481, 151.520 64.181, 153.723 64.822, 157.279 65.332, 159.647 66.297, 163.213 67.511, 165.274 69.746, 166.118 71.823, 166.902 74.579, 168.742 75.965, 171.807 77.422, 175.670 79.917, 178.521 81.575, 180.343 85.619, 181.096 86.023, 181.171 88.786, 181.224 89.219, 181.574 91.589, 183.483 92.250, 185.095 " />
            <path fill="none" stroke-width="3.0" stroke-linecap="butt" stroke-opacity="1.0" stroke="rgb(0, 0, 0)" stroke-linejoin="round" d=" M 104.350, 187.929 105.229, 188.651 110.321, 191.621 116.130, 192.089 126.085, 193.033 126.755, 193.096 130.636, 191.474 135.463, 188.786 " />
            <path fill="none" stroke-width="3.0" stroke-linecap="butt" stroke-opacity="1.0" stroke="rgb(0, 0, 0)" stroke-linejoin="round" d=" M 142.260, 132.638 142.906, 131.769 144.922, 128.886 145.284, 126.844 145.992, 121.650 145.094, 115.207 144.983, 114.497 141.872, 110.084 141.355, 109.357 137.112, 108.076 134.950, 107.504 130.736, 108.941 " />
            <path fill="none" stroke-width="3.0" stroke-linecap="butt" stroke-opacity="1.0" stroke="rgb(0, 0, 0)" stroke-linejoin="round" d=" M 183.226, 172.095 187.354, 171.599 192.235, 169.292 194.847, 165.048 196.949, 163.439 198.241, 155.824 198.601, 151.464 197.599, 147.642 195.709, 141.756 194.771, 138.320 190.468, 133.718 189.138, 132.663 186.386, 131.763 " />
            <path fill="none" stroke-width="3.0" stroke-linecap="butt" stroke-opacity="1.0" stroke="rgb(0, 0, 0)" stroke-linejoin="round" d=" M 186.521, 131.050 189.395, 126.660 " />
        </g>
    </g>
</svg>
