<?xml version='1.0' encoding='ascii'?>
<svg xmlns="http://www.w3.org/2000/svg" version="1.1" width="250" height="250">
    <g id="ViewLayer_LineSet" xmlns:inkscape="http://www.inkscape.org/namespaces/inkscape" inkscape:groupmode="lineset" inkscape:label="ViewLayer_LineSet">
        <g xmlns:inkscape="http://www.inkscape.org/namespaces/inkscape" inkscape:groupmode="layer" id="strokes" inkscape:label="strokes">
            <path fill="none" stroke-width="3.0" stroke-linecap="butt" stroke-opacity="1.0" stroke="rgb(0, 0, 0)" stroke-linejoin="round" d=" M 128.510, 142.943 128.880, 142.981 124.701, 140.726 128.510, 142.943 " />
            <path fill="none" stroke-width="3.0" stroke-linecap="butt" stroke-opacity="1.0" stroke="rgb(0, 0, 0)" stroke-linejoin="round" d=" M 128.306, 71.947 127.275, 69.995 123.626, 67.462 121.648, 65.134 119.956, 64.851 113.414, 63.894 112.094, 64.128 107.126, 64.711 105.478, 65.622 101.513, 68.465 97.630, 71.649 94.516, 73.925 93.639, 75.794 92.644, 78.885 " />
            <path fill="none" stroke-width="3.0" stroke-linecap="butt" stroke-opacity="1.0" stroke="rgb(0, 0, 0)" stroke-linejoin="round" d=" M 181.982, 57.210 181.475, 51.795 173.453, 45.824 167.185, 41.159 162.042, 36.588 152.052, 36.152 151.415, 36.124 141.787, 35.010 131.798, 34.549 130.253, 34.477 120.459, 33.713 111.730, 38.592 111.161, 38.910 107.365, 41.032 98.514, 45.686 96.436, 46.779 91.591, 55.527 88.762, 60.636 83.974, 69.415 79.186, 78.194 78.952, 78.623 78.454, 87.850 " />
            <path fill="none" stroke-width="3.0" stroke-linecap="butt" stroke-opacity="1.0" stroke="rgb(0, 0, 0)" stroke-linejoin="round" d=" M 164.993, 151.822 169.218, 153.725 172.869, 149.387 " />
            <path fill="none" stroke-width="3.0" stroke-linecap="butt" stroke-opacity="1.0" stroke="rgb(0, 0, 0)" stroke-linejoin="round" d=" M 137.327, 142.272 145.926, 145.361 155.267, 144.009 163.488, 138.315 166.014, 136.565 167.367, 136.493 176.483, 140.604 180.655, 142.486 186.789, 142.803 188.913, 139.284 " />
            <path fill="none" stroke-width="3.0" stroke-linecap="butt" stroke-opacity="1.0" stroke="rgb(0, 0, 0)" stroke-linejoin="round" d=" M 91.881, 80.793 93.647, 86.535 97.071, 80.763 101.085, 76.189 109.418, 72.015 118.713, 70.663 124.946, 72.533 131.184, 77.032 " />
            <path fill="none" stroke-width="3.0" stroke-linecap="butt" stroke-opacity="1.0" stroke="rgb(0, 0, 0)" stroke-linejoin="round" d=" M 142.795, 68.270 142.644, 68.517 141.039, 71.152 141.460, 75.778 " />
            <path fill="none" stroke-width="3.0" stroke-linecap="butt" stroke-opacity="1.0" stroke="rgb(0, 0, 0)" stroke-linejoin="round" d=" M 116.325, 103.853 119.441, 108.113 " />
            <path fill="none" stroke-width="3.0" stroke-linecap="butt" stroke-opacity="1.0" stroke="rgb(0, 0, 0)" stroke-linejoin="round" d=" M 125.927, 87.896 121.924, 85.029 112.298, 86.252 106.554, 92.694 104.991, 99.706 " />
            <path fill="none" stroke-width="3.0" stroke-linecap="butt" stroke-opacity="1.0" stroke="rgb(0, 0, 0)" stroke-linejoin="round" d=" M 189.255, 139.097 189.372, 139.273 194.583, 137.796 195.698, 134.866 196.183, 133.710 196.487, 132.986 196.164, 129.476 196.135, 128.088 199.304, 126.958 200.225, 126.283 199.533, 123.024 199.619, 122.443 198.300, 118.131 198.282, 118.060 198.092, 117.694 192.006, 112.170 191.280, 111.266 " />
            <path fill="none" stroke-width="3.0" stroke-linecap="butt" stroke-opacity="1.0" stroke="rgb(0, 0, 0)" stroke-linejoin="round" d=" M 131.470, 111.574 130.694, 111.584 124.907, 111.659 124.371, 111.666 120.592, 111.280 110.917, 108.754 107.536, 107.871 106.464, 107.591 103.615, 106.529 101.564, 111.716 99.087, 117.383 99.309, 119.085 99.308, 123.116 99.648, 123.665 102.505, 128.007 102.665, 128.198 108.369, 131.807 109.139, 131.833 117.235, 133.452 121.186, 137.964 118.767, 134.299 " />
            <path fill="none" stroke-width="3.0" stroke-linecap="butt" stroke-opacity="1.0" stroke="rgb(0, 0, 0)" stroke-linejoin="round" d=" M 122.914, 208.383 117.422, 214.488 116.756, 215.228 115.524, 213.721 115.274, 213.415 115.297, 213.195 115.815, 213.510 117.422, 214.488 118.937, 215.411 120.691, 216.383 125.968, 215.844 132.836, 215.144 142.784, 214.129 145.550, 213.847 155.170, 211.118 155.290, 211.084 159.209, 209.164 166.654, 202.489 169.188, 200.217 171.849, 196.626 178.499, 189.157 184.406, 182.522 190.514, 174.604 190.679, 174.391 192.154, 172.551 192.909, 170.484 196.153, 161.025 198.926, 152.939 197.621, 144.474 197.005, 135.679 196.183, 133.710 " />
            <path fill="none" stroke-width="3.0" stroke-linecap="butt" stroke-opacity="1.0" stroke="rgb(0, 0, 0)" stroke-linejoin="round" d=" M 177.806, 122.207 180.618, 120.280 187.243, 115.740 188.646, 114.778 191.280, 111.266 197.280, 103.265 198.275, 101.938 198.000, 92.452 196.305, 85.000 195.185, 82.954 193.907, 81.542 186.388, 74.949 181.556, 70.711 181.101, 70.521 180.100, 70.435 177.116, 70.392 167.117, 70.249 161.582, 70.170 159.276, 70.137 157.548, 70.318 156.458, 70.432 150.961, 71.006 150.562, 71.048 146.304, 72.756 145.340, 73.143 142.160, 74.419 141.460, 75.778 136.879, 84.667 133.657, 90.920 133.072, 94.618 133.014, 94.985 132.081, 100.881 131.410, 101.744 133.299, 105.544 133.862, 106.677 133.976, 106.906 133.646, 106.937 132.658, 107.030 124.270, 107.823 121.897, 108.120 119.441, 108.113 118.622, 108.110 118.096, 107.366 115.286, 108.450 114.480, 108.233 109.532, 107.080 107.612, 106.137 105.218, 100.198 104.991, 99.706 104.971, 99.662 105.147, 99.008 " />
            <path fill="none" stroke-width="3.0" stroke-linecap="butt" stroke-opacity="1.0" stroke="rgb(0, 0, 0)" stroke-linejoin="round" d=" M 54.458, 146.052 51.311, 149.527 47.133, 154.649 46.996, 155.134 45.780, 159.427 43.447, 167.603 42.422, 174.961 42.563, 175.303 42.837, 176.138 50.080, 182.029 53.221, 183.697 62.502, 184.019 64.585, 184.066 65.726, 183.828 69.481, 182.541 73.496, 181.164 76.933, 184.929 75.913, 187.727 75.677, 188.373 76.307, 188.045 77.295, 187.531 79.342, 186.465 79.657, 186.302 74.690, 177.622 74.028, 176.465 68.554, 168.741 " />
            <path fill="none" stroke-width="3.0" stroke-linecap="butt" stroke-opacity="1.0" stroke="rgb(0, 0, 0)" stroke-linejoin="round" d=" M 144.363, 165.747 141.909, 164.270 141.141, 163.688 140.972, 162.414 139.423, 152.534 138.602, 147.291 138.552, 146.977 138.747, 146.577 139.145, 146.620 140.557, 147.610 " />
            <path fill="none" stroke-width="3.0" stroke-linecap="butt" stroke-opacity="1.0" stroke="rgb(0, 0, 0)" stroke-linejoin="round" d=" M 69.481, 182.541 75.913, 187.727 " />
            <path fill="none" stroke-width="3.0" stroke-linecap="butt" stroke-opacity="1.0" stroke="rgb(0, 0, 0)" stroke-linejoin="round" d=" M 80.453, 188.728 76.080, 195.057 71.720, 200.202 69.290, 208.667 68.340, 211.042 69.729, 214.010 75.684, 219.956 82.084, 220.625 87.016, 220.886 88.246, 220.362 98.042, 218.355 98.210, 218.320 98.761, 217.579 99.944, 216.361 106.021, 210.105 100.072, 215.205 " />
            <path fill="none" stroke-width="3.0" stroke-linecap="butt" stroke-opacity="1.0" stroke="rgb(0, 0, 0)" stroke-linejoin="round" d=" M 99.944, 216.361 100.666, 217.108 105.474, 220.172 110.201, 219.901 111.166, 216.868 115.524, 213.721 " />
            <path fill="none" stroke-width="3.0" stroke-linecap="butt" stroke-opacity="1.0" stroke="rgb(0, 0, 0)" stroke-linejoin="round" d=" M 111.161, 38.910 109.340, 38.799 99.346, 38.455 93.466, 38.253 85.849, 42.246 77.199, 47.264 75.283, 48.376 68.829, 56.014 65.284, 60.208 58.460, 67.517 58.340, 67.646 53.890, 76.601 50.721, 82.978 46.807, 92.180 43.559, 99.819 43.215, 109.813 43.153, 111.623 42.270, 121.584 41.388, 131.545 40.647, 139.909 43.406, 147.470 46.996, 155.134 " />
            <path fill="none" stroke-width="3.0" stroke-linecap="butt" stroke-opacity="1.0" stroke="rgb(0, 0, 0)" stroke-linejoin="round" d=" M 133.072, 94.618 131.384, 92.357 128.925, 90.734 126.114, 89.696 125.569, 89.712 120.590, 90.065 115.581, 92.177 115.456, 92.273 115.433, 92.405 114.440, 97.828 116.294, 103.747 " />
            <path fill="none" stroke-width="3.0" stroke-linecap="butt" stroke-opacity="1.0" stroke="rgb(0, 0, 0)" stroke-linejoin="round" d=" M 155.166, 68.359 154.375, 67.708 150.429, 66.192 150.199, 66.204 150.045, 66.206 145.577, 67.528 143.156, 68.081 142.921, 68.278 142.876, 68.316 142.644, 68.517 " />
            <path fill="none" stroke-width="3.0" stroke-linecap="butt" stroke-opacity="1.0" stroke="rgb(0, 0, 0)" stroke-linejoin="round" d=" M 177.116, 70.392 180.579, 61.011 181.982, 57.210 " />
        </g>
    </g>
</svg>
