<?xml version='1.0' encoding='ascii'?>
<svg xmlns="http://www.w3.org/2000/svg" version="1.1" width="250" height="250">
    <g id="ViewLayer_LineSet" xmlns:inkscape="http://www.inkscape.org/namespaces/inkscape" inkscape:groupmode="lineset" inkscape:label="ViewLayer_LineSet">
        <g xmlns:inkscape="http://www.inkscape.org/namespaces/inkscape" inkscape:groupmode="layer" id="strokes" inkscape:label="strokes">
            <path fill="none" stroke-width="3.0" stroke-linecap="butt" stroke-opacity="1.0" stroke="rgb(0, 0, 0)" stroke-linejoin="round" d=" M 136.478, 121.006 140.257, 118.130 142.999, 115.033 144.977, 112.980 150.187, 111.699 " />
            <path fill="none" stroke-width="3.0" stroke-linecap="butt" stroke-opacity="1.0" stroke="rgb(0, 0, 0)" stroke-linejoin="round" d=" M 108.314, 128.150 106.047, 128.806 104.621, 129.277 102.928, 131.738 101.048, 134.393 100.831, 136.241 100.261, 141.106 101.643, 147.466 101.727, 147.834 105.179, 152.346 105.540, 152.774 109.780, 153.880 111.687, 154.295 112.059, 154.376 115.814, 153.205 " />
            <path fill="none" stroke-width="3.0" stroke-linecap="butt" stroke-opacity="1.0" stroke="rgb(0, 0, 0)" stroke-linejoin="round" d=" M 187.796, 118.286 186.728, 117.510 186.246, 117.160 185.921, 116.923 183.088, 114.866 182.557, 114.480 182.278, 114.085 182.068, 113.916 182.150, 113.932 182.425, 114.216 183.088, 114.866 184.293, 116.048 179.334, 113.943 176.784, 114.379 185.414, 117.441 185.802, 117.579 186.481, 117.819 187.796, 118.286 " />
            <path fill="none" stroke-width="3.0" stroke-linecap="butt" stroke-opacity="1.0" stroke="rgb(0, 0, 0)" stroke-linejoin="round" d=" M 188.949, 113.834 191.625, 110.905 194.570, 101.348 196.519, 95.021 198.009, 88.796 197.932, 87.656 198.137, 86.137 194.158, 76.963 190.179, 67.789 186.448, 59.188 184.983, 57.417 182.373, 53.769 174.959, 47.058 171.399, 43.837 164.957, 38.005 155.984, 33.590 153.703, 32.467 143.709, 32.136 142.131, 32.084 132.132, 31.996 122.132, 31.909 121.701, 31.905 111.701, 31.800 109.877, 31.780 99.878, 31.948 97.535, 31.987 88.418, 36.095 87.553, 36.484 79.791, 42.789 78.467, 43.864 70.770, 50.248 63.725, 56.090 63.352, 56.962 62.351, 57.975 57.760, 66.858 53.169, 75.742 48.577, 84.626 48.436, 84.899 48.499, 87.749 47.692, 90.632 50.085, 100.342 52.479, 110.051 52.566, 110.405 58.076, 116.505 62.392, 121.195 61.063, 120.634 " />
            <path fill="none" stroke-width="3.0" stroke-linecap="butt" stroke-opacity="1.0" stroke="rgb(0, 0, 0)" stroke-linejoin="round" d=" M 64.566, 118.748 64.567, 118.748 72.062, 115.646 69.310, 115.317 68.341, 115.707 64.767, 117.144 67.575, 115.447 68.341, 115.707 " />
            <path fill="none" stroke-width="3.0" stroke-linecap="butt" stroke-opacity="1.0" stroke="rgb(0, 0, 0)" stroke-linejoin="round" d=" M 146.023, 162.420 146.163, 162.716 149.281, 167.187 151.878, 176.844 152.012, 177.340 " />
            <path fill="none" stroke-width="3.0" stroke-linecap="butt" stroke-opacity="1.0" stroke="rgb(0, 0, 0)" stroke-linejoin="round" d=" M 80.793, 124.071 85.642, 118.005 " />
            <path fill="none" stroke-width="3.0" stroke-linecap="butt" stroke-opacity="1.0" stroke="rgb(0, 0, 0)" stroke-linejoin="round" d=" M 120.154, 125.178 118.023, 118.424 " />
            <path fill="none" stroke-width="3.0" stroke-linecap="butt" stroke-opacity="1.0" stroke="rgb(0, 0, 0)" stroke-linejoin="round" d=" M 136.040, 115.413 133.482, 124.568 " />
            <path fill="none" stroke-width="3.0" stroke-linecap="butt" stroke-opacity="1.0" stroke="rgb(0, 0, 0)" stroke-linejoin="round" d=" M 166.479, 117.334 170.826, 123.275 " />
            <path fill="none" stroke-width="3.0" stroke-linecap="butt" stroke-opacity="1.0" stroke="rgb(0, 0, 0)" stroke-linejoin="round" d=" M 139.774, 127.978 136.291, 129.645 " />
            <path fill="none" stroke-width="3.0" stroke-linecap="butt" stroke-opacity="1.0" stroke="rgb(0, 0, 0)" stroke-linejoin="round" d=" M 138.327, 121.772 136.469, 125.592 136.291, 129.645 " />
            <path fill="none" stroke-width="3.0" stroke-linecap="butt" stroke-opacity="1.0" stroke="rgb(0, 0, 0)" stroke-linejoin="round" d=" M 97.225, 122.726 93.864, 129.941 94.033, 139.578 96.503, 146.880 101.544, 151.516 " />
            <path fill="none" stroke-width="3.0" stroke-linecap="butt" stroke-opacity="1.0" stroke="rgb(0, 0, 0)" stroke-linejoin="round" d=" M 115.646, 127.110 113.110, 121.713 " />
            <path fill="none" stroke-width="3.0" stroke-linecap="butt" stroke-opacity="1.0" stroke="rgb(0, 0, 0)" stroke-linejoin="round" d=" M 146.970, 151.389 148.591, 150.784 153.708, 145.863 156.260, 138.775 156.902, 129.422 154.056, 122.049 " />
            <path fill="none" stroke-width="3.0" stroke-linecap="butt" stroke-opacity="1.0" stroke="rgb(0, 0, 0)" stroke-linejoin="round" d=" M 61.063, 120.634 57.890, 117.342 60.463, 120.503 61.017, 121.183 61.669, 125.086 62.488, 130.150 61.379, 133.514 58.491, 143.088 58.206, 144.032 58.711, 148.623 60.976, 153.513 63.619, 156.221 63.641, 156.243 64.911, 161.100 65.541, 171.080 65.678, 173.258 65.731, 173.457 65.746, 173.490 65.792, 173.617 65.958, 173.859 71.683, 182.058 76.498, 188.954 85.738, 191.883 86.067, 192.024 " />
            <path fill="none" stroke-width="3.0" stroke-linecap="butt" stroke-opacity="1.0" stroke="rgb(0, 0, 0)" stroke-linejoin="round" d=" M 186.728, 117.510 189.362, 114.213 186.246, 117.160 " />
            <path fill="none" stroke-width="3.0" stroke-linecap="butt" stroke-opacity="1.0" stroke="rgb(0, 0, 0)" stroke-linejoin="round" d=" M 68.341, 115.707 68.933, 115.908 64.567, 118.748 64.566, 118.748 " />
            <path fill="none" stroke-width="3.0" stroke-linecap="butt" stroke-opacity="1.0" stroke="rgb(0, 0, 0)" stroke-linejoin="round" d=" M 100.635, 178.331 103.075, 168.634 103.714, 166.094 103.860, 165.900 105.429, 163.809 105.561, 163.483 105.572, 163.796 104.435, 165.413 103.860, 165.900 103.270, 166.401 100.489, 176.006 99.903, 178.029 98.985, 181.202 97.877, 184.472 95.322, 192.138 95.487, 194.232 95.492, 194.291 96.140, 196.351 96.186, 196.497 97.346, 200.185 98.106, 202.602 106.258, 208.395 106.726, 208.728 110.642, 211.822 115.112, 212.719 122.337, 213.413 132.335, 213.212 134.140, 213.176 140.996, 212.279 145.070, 211.337 149.475, 207.357 157.069, 201.562 158.351, 198.750 158.911, 197.521 160.431, 194.186 160.416, 192.043 158.041, 183.710 155.727, 180.021 154.397, 176.277 151.422, 167.902 148.719, 165.662 146.023, 162.420 " />
            <path fill="none" stroke-width="3.0" stroke-linecap="butt" stroke-opacity="1.0" stroke="rgb(0, 0, 0)" stroke-linejoin="round" d=" M 60.463, 120.503 56.157, 120.814 54.459, 122.942 54.070, 124.087 52.195, 130.991 51.610, 134.369 52.330, 139.012 53.873, 145.467 57.008, 148.865 62.073, 156.028 63.619, 156.221 " />
            <path fill="none" stroke-width="3.0" stroke-linecap="butt" stroke-opacity="1.0" stroke="rgb(0, 0, 0)" stroke-linejoin="round" d=" M 99.903, 178.029 90.660, 174.214 90.021, 173.951 87.241, 170.964 81.445, 162.815 78.556, 158.752 78.382, 159.116 73.972, 168.091 73.020, 170.028 72.994, 172.688 72.912, 175.313 73.835, 178.371 74.664, 180.762 76.530, 185.333 77.333, 186.527 82.743, 188.578 84.885, 190.031 86.067, 192.024 86.068, 192.028 87.943, 195.722 91.660, 199.200 92.236, 199.716 93.313, 199.900 97.346, 200.185 " />
            <path fill="none" stroke-width="3.0" stroke-linecap="butt" stroke-opacity="1.0" stroke="rgb(0, 0, 0)" stroke-linejoin="round" d=" M 99.847, 121.259 103.118, 119.475 103.674, 119.136 106.370, 119.836 " />
            <path fill="none" stroke-width="3.0" stroke-linecap="butt" stroke-opacity="1.0" stroke="rgb(0, 0, 0)" stroke-linejoin="round" d=" M 138.327, 121.772 138.919, 120.391 139.006, 120.376 139.558, 120.286 148.223, 118.011 148.745, 118.309 149.205, 118.571 150.355, 119.442 " />
            <path fill="none" stroke-width="3.0" stroke-linecap="butt" stroke-opacity="1.0" stroke="rgb(0, 0, 0)" stroke-linejoin="round" d=" M 137.131, 153.725 140.702, 154.377 142.396, 153.812 145.983, 152.271 146.648, 151.770 146.792, 151.687 146.970, 151.389 149.659, 146.885 149.845, 146.598 150.753, 142.650 151.051, 140.046 150.083, 134.610 149.876, 133.597 147.561, 130.990 145.840, 129.105 144.275, 128.814 142.732, 128.535 " />
            <path fill="none" stroke-width="3.0" stroke-linecap="butt" stroke-opacity="1.0" stroke="rgb(0, 0, 0)" stroke-linejoin="round" d=" M 158.351, 198.750 158.841, 198.645 162.085, 195.329 162.306, 195.126 162.885, 194.596 164.931, 190.606 166.016, 188.840 172.605, 185.847 173.468, 185.211 174.837, 181.126 175.853, 179.743 176.985, 176.140 177.637, 174.278 177.690, 171.253 177.671, 169.058 173.510, 159.965 173.052, 158.964 172.665, 158.085 172.105, 158.686 166.270, 166.807 161.856, 172.951 154.397, 176.277 " />
            <path fill="none" stroke-width="3.0" stroke-linecap="butt" stroke-opacity="1.0" stroke="rgb(0, 0, 0)" stroke-linejoin="round" d=" M 162.306, 195.126 170.478, 189.362 172.044, 188.258 176.526, 179.318 177.560, 177.256 180.957, 171.306 181.835, 162.618 182.739, 155.096 185.021, 152.040 186.913, 147.781 187.398, 145.821 188.081, 143.060 184.669, 133.660 183.659, 130.877 182.980, 129.327 183.271, 127.153 184.288, 120.564 184.531, 120.259 186.481, 117.819 " />
            <path fill="none" stroke-width="3.0" stroke-linecap="butt" stroke-opacity="1.0" stroke="rgb(0, 0, 0)" stroke-linejoin="round" d=" M 187.398, 145.821 188.601, 144.429 190.002, 138.511 190.839, 133.496 190.325, 130.598 188.913, 124.477 188.688, 123.120 186.692, 120.432 184.531, 120.259 " />
            <path fill="none" stroke-width="3.0" stroke-linecap="butt" stroke-opacity="1.0" stroke="rgb(0, 0, 0)" stroke-linejoin="round" d=" M 185.921, 116.923 188.949, 113.834 " />
        </g>
    </g>
</svg>
