<?xml version='1.0' encoding='ascii'?>
<svg xmlns="http://www.w3.org/2000/svg" version="1.1" width="250" height="250">
    <g id="ViewLayer_LineSet" xmlns:inkscape="http://www.inkscape.org/namespaces/inkscape" inkscape:groupmode="lineset" inkscape:label="ViewLayer_LineSet">
        <g xmlns:inkscape="http://www.inkscape.org/namespaces/inkscape" inkscape:groupmode="layer" id="strokes" inkscape:label="strokes">
            <path fill="none" stroke-width="3.0" stroke-linecap="butt" stroke-opacity="1.0" stroke="rgb(0, 0, 0)" stroke-linejoin="round" d=" M 159.891, 189.356 163.988, 184.643 164.639, 183.894 168.202, 183.637 171.171, 182.953 173.727, 179.682 174.915, 178.289 176.410, 174.025 177.510, 171.474 182.814, 168.913 184.182, 167.829 184.981, 163.960 185.884, 162.364 186.331, 159.631 186.542, 158.341 186.891, 156.516 186.501, 152.512 186.283, 150.789 186.136, 150.508 185.782, 149.832 183.509, 145.493 180.853, 139.985 177.506, 143.898 176.221, 145.952 " />
            <path fill="none" stroke-width="3.0" stroke-linecap="butt" stroke-opacity="1.0" stroke="rgb(0, 0, 0)" stroke-linejoin="round" d=" M 127.990, 191.038 135.119, 187.781 137.486, 186.700 137.875, 186.675 138.757, 186.468 139.266, 186.624 140.483, 186.996 141.178, 187.333 143.579, 188.497 " />
            <path fill="none" stroke-width="3.0" stroke-linecap="butt" stroke-opacity="1.0" stroke="rgb(0, 0, 0)" stroke-linejoin="round" d=" M 143.946, 96.876 145.832, 94.911 148.019, 92.474 " />
            <path fill="none" stroke-width="3.0" stroke-linecap="butt" stroke-opacity="1.0" stroke="rgb(0, 0, 0)" stroke-linejoin="round" d=" M 191.574, 93.020 187.962, 83.695 187.809, 83.302 186.510, 79.948 179.409, 76.716 170.524, 72.127 165.254, 69.405 163.966, 69.370 153.969, 69.124 148.584, 68.992 " />
            <path fill="none" stroke-width="3.0" stroke-linecap="butt" stroke-opacity="1.0" stroke="rgb(0, 0, 0)" stroke-linejoin="round" d=" M 184.110, 118.452 185.848, 116.151 187.790, 106.342 187.923, 105.671 188.691, 95.701 188.803, 94.258 " />
            <path fill="none" stroke-width="3.0" stroke-linecap="butt" stroke-opacity="1.0" stroke="rgb(0, 0, 0)" stroke-linejoin="round" d=" M 143.579, 188.497 150.265, 191.401 151.237, 191.823 158.904, 190.483 163.998, 184.670 " />
            <path fill="none" stroke-width="3.0" stroke-linecap="butt" stroke-opacity="1.0" stroke="rgb(0, 0, 0)" stroke-linejoin="round" d=" M 107.870, 187.440 114.529, 192.823 123.345, 193.296 123.580, 193.309 " />
            <path fill="none" stroke-width="3.0" stroke-linecap="butt" stroke-opacity="1.0" stroke="rgb(0, 0, 0)" stroke-linejoin="round" d=" M 86.970, 97.959 86.961, 98.439 86.806, 106.414 91.913, 99.376 97.275, 94.109 106.623, 90.556 106.898, 90.451 116.708, 90.955 122.268, 95.293 127.547, 101.885 125.469, 94.179 120.629, 86.793 114.139, 83.098 " />
            <path fill="none" stroke-width="3.0" stroke-linecap="butt" stroke-opacity="1.0" stroke="rgb(0, 0, 0)" stroke-linejoin="round" d=" M 149.204, 91.302 157.247, 90.902 164.984, 94.521 169.516, 99.555 173.925, 106.235 " />
            <path fill="none" stroke-width="3.0" stroke-linecap="butt" stroke-opacity="1.0" stroke="rgb(0, 0, 0)" stroke-linejoin="round" d=" M 146.788, 85.899 142.304, 92.107 140.201, 101.884 140.170, 102.029 " />
            <path fill="none" stroke-width="3.0" stroke-linecap="butt" stroke-opacity="1.0" stroke="rgb(0, 0, 0)" stroke-linejoin="round" d=" M 113.187, 138.063 116.680, 138.724 " />
            <path fill="none" stroke-width="3.0" stroke-linecap="butt" stroke-opacity="1.0" stroke="rgb(0, 0, 0)" stroke-linejoin="round" d=" M 144.915, 110.603 143.615, 111.124 141.845, 111.833 " />
            <path fill="none" stroke-width="3.0" stroke-linecap="butt" stroke-opacity="1.0" stroke="rgb(0, 0, 0)" stroke-linejoin="round" d=" M 121.685, 108.830 118.858, 103.773 109.060, 102.724 102.089, 108.422 98.549, 116.835 98.725, 126.834 98.735, 127.426 101.588, 134.613 106.887, 139.485 114.840, 140.013 " />
            <path fill="none" stroke-width="3.0" stroke-linecap="butt" stroke-opacity="1.0" stroke="rgb(0, 0, 0)" stroke-linejoin="round" d=" M 158.822, 132.321 160.447, 125.807 160.501, 115.807 160.503, 115.327 157.490, 106.815 151.756, 101.452 143.804, 102.526 141.762, 107.552 " />
            <path fill="none" stroke-width="3.0" stroke-linecap="butt" stroke-opacity="1.0" stroke="rgb(0, 0, 0)" stroke-linejoin="round" d=" M 179.953, 102.269 185.607, 102.132 184.973, 98.192 183.118, 96.796 188.803, 94.258 191.574, 93.020 " />
            <path fill="none" stroke-width="3.0" stroke-linecap="butt" stroke-opacity="1.0" stroke="rgb(0, 0, 0)" stroke-linejoin="round" d=" M 68.189, 154.756 62.592, 159.930 64.985, 169.366 65.381, 171.222 65.483, 171.698 68.372, 180.334 73.971, 188.620 74.316, 189.130 80.674, 194.056 88.405, 200.399 89.311, 201.142 98.308, 205.508 99.450, 206.062 108.303, 210.711 108.518, 210.824 111.307, 211.771 121.133, 213.630 121.234, 213.649 127.384, 215.906 134.163, 212.757 " />
            <path fill="none" stroke-width="3.0" stroke-linecap="butt" stroke-opacity="1.0" stroke="rgb(0, 0, 0)" stroke-linejoin="round" d=" M 186.136, 150.508 186.757, 150.053 187.663, 146.948 188.151, 141.496 184.192, 135.612 184.020, 135.403 180.622, 131.270 180.024, 130.543 179.669, 128.107 180.886, 128.399 180.537, 124.253 183.875, 119.218 " />
            <path fill="none" stroke-width="3.0" stroke-linecap="butt" stroke-opacity="1.0" stroke="rgb(0, 0, 0)" stroke-linejoin="round" d=" M 178.328, 126.693 184.110, 118.452 " />
            <path fill="none" stroke-width="3.0" stroke-linecap="butt" stroke-opacity="1.0" stroke="rgb(0, 0, 0)" stroke-linejoin="round" d=" M 108.206, 71.011 98.824, 74.472 92.572, 76.778 90.138, 77.610 83.198, 84.811 82.777, 85.248 76.074, 92.670 71.297, 97.959 74.387, 99.112 " />
            <path fill="none" stroke-width="3.0" stroke-linecap="butt" stroke-opacity="1.0" stroke="rgb(0, 0, 0)" stroke-linejoin="round" d=" M 60.274, 134.918 59.926, 134.108 59.027, 130.484 60.274, 134.918 60.476, 135.638 58.707, 140.926 56.873, 146.940 57.146, 149.698 61.407, 157.080 67.895, 153.651 " />
            <path fill="none" stroke-width="3.0" stroke-linecap="butt" stroke-opacity="1.0" stroke="rgb(0, 0, 0)" stroke-linejoin="round" d=" M 121.503, 173.309 129.381, 179.469 131.402, 181.050 135.048, 182.022 141.652, 182.645 143.155, 182.787 146.883, 182.243 151.823, 181.523 153.050, 181.344 153.724, 181.245 161.949, 179.484 164.630, 178.910 166.094, 178.306 168.783, 175.866 174.831, 167.902 175.610, 166.876 176.141, 163.406 177.138, 156.890 176.078, 149.309 175.986, 148.650 175.501, 147.103 173.096, 139.435 172.658, 138.945 172.518, 138.655 163.419, 134.506 161.126, 133.460 158.822, 132.321 157.798, 131.816 155.489, 131.495 153.976, 131.285 146.147, 130.198 142.193, 129.782 139.881, 129.538 137.842, 129.846 136.576, 130.038 127.331, 131.973 123.630, 132.748 121.954, 134.249 117.937, 137.843 116.680, 138.724 114.840, 140.013 113.935, 140.647 111.814, 150.419 110.961, 154.352 110.732, 155.321 110.128, 157.836 110.445, 158.682 110.776, 159.570 113.092, 164.000 " />
            <path fill="none" stroke-width="3.0" stroke-linecap="butt" stroke-opacity="1.0" stroke="rgb(0, 0, 0)" stroke-linejoin="round" d=" M 86.980, 97.941 86.961, 98.439 " />
            <path fill="none" stroke-width="3.0" stroke-linecap="butt" stroke-opacity="1.0" stroke="rgb(0, 0, 0)" stroke-linejoin="round" d=" M 110.445, 158.682 100.966, 155.495 98.696, 154.731 92.326, 149.287 85.570, 141.819 83.633, 145.720 79.452, 153.750 79.312, 156.506 79.011, 159.845 79.726, 162.467 80.853, 165.938 82.145, 168.892 84.242, 171.720 88.593, 173.043 92.384, 175.128 94.314, 178.947 95.713, 181.998 98.175, 184.336 100.438, 186.420 105.388, 187.002 108.073, 186.919 108.101, 186.938 111.155, 188.894 111.056, 190.016 " />
            <path fill="none" stroke-width="3.0" stroke-linecap="butt" stroke-opacity="1.0" stroke="rgb(0, 0, 0)" stroke-linejoin="round" d=" M 121.145, 111.597 115.828, 110.432 113.209, 111.484 109.828, 113.003 108.828, 114.910 106.788, 118.627 106.683, 121.200 106.486, 125.805 107.587, 129.778 108.491, 132.906 110.248, 134.952 113.051, 138.014 113.165, 138.036 113.566, 138.116 114.348, 138.283 " />
            <path fill="none" stroke-width="3.0" stroke-linecap="butt" stroke-opacity="1.0" stroke="rgb(0, 0, 0)" stroke-linejoin="round" d=" M 123.345, 193.296 123.403, 193.338 126.915, 195.051 133.548, 194.906 143.360, 194.713 150.265, 191.401 " />
            <path fill="none" stroke-width="3.0" stroke-linecap="butt" stroke-opacity="1.0" stroke="rgb(0, 0, 0)" stroke-linejoin="round" d=" M 121.144, 135.391 123.776, 132.853 124.418, 132.819 " />
            <path fill="none" stroke-width="3.0" stroke-linecap="butt" stroke-opacity="1.0" stroke="rgb(0, 0, 0)" stroke-linejoin="round" d=" M 134.163, 212.757 135.295, 210.833 142.803, 210.103 151.315, 205.933 152.435, 205.161 153.858, 204.075 156.230, 200.827 156.098, 200.019 " />
            <path fill="none" stroke-width="3.0" stroke-linecap="butt" stroke-opacity="1.0" stroke="rgb(0, 0, 0)" stroke-linejoin="round" d=" M 155.489, 131.495 155.611, 131.123 155.766, 130.796 156.168, 124.578 156.230, 123.887 156.080, 123.205 154.748, 117.341 154.390, 116.717 151.949, 112.086 151.851, 112.041 151.565, 111.811 147.789, 110.862 145.511, 110.426 144.971, 110.625 143.615, 111.124 " />
            <path fill="none" stroke-width="3.0" stroke-linecap="butt" stroke-opacity="1.0" stroke="rgb(0, 0, 0)" stroke-linejoin="round" d=" M 156.098, 200.019 159.070, 198.445 158.799, 195.206 167.765, 190.777 176.731, 186.349 177.788, 185.827 182.962, 177.602 184.407, 171.395 186.488, 164.809 186.331, 159.631 " />
            <path fill="none" stroke-width="3.0" stroke-linecap="butt" stroke-opacity="1.0" stroke="rgb(0, 0, 0)" stroke-linejoin="round" d=" M 187.809, 83.302 187.037, 73.984 183.774, 64.531 182.780, 61.651 176.628, 53.767 174.671, 51.260 169.072, 42.975 167.330, 40.397 161.663, 35.973 153.300, 30.490 147.333, 26.578 144.486, 26.444 134.508, 25.791 124.529, 25.137 114.550, 24.483 107.396, 24.014 106.569, 23.920 97.488, 28.110 96.621, 28.510 87.694, 33.016 85.719, 34.013 84.787, 34.898 81.416, 38.023 74.740, 45.469 68.323, 52.624 65.303, 55.553 60.390, 64.263 57.464, 69.450 52.891, 78.343 48.789, 86.320 48.395, 92.623 46.519, 102.446 46.097, 104.653 46.673, 114.636 46.958, 119.594 54.287, 126.397 56.399, 128.358 58.148, 131.042 55.418, 131.769 53.686, 132.376 49.218, 136.889 48.205, 139.698 45.937, 146.466 44.977, 150.869 45.440, 154.739 47.220, 162.966 49.237, 164.481 52.539, 168.745 57.981, 171.378 63.682, 172.003 65.381, 171.222 " />
        </g>
    </g>
</svg>
