<?xml version='1.0' encoding='ascii'?>
<svg xmlns="http://www.w3.org/2000/svg" version="1.1" width="250" height="250">
    <g id="ViewLayer_LineSet" xmlns:inkscape="http://www.inkscape.org/namespaces/inkscape" inkscape:groupmode="lineset" inkscape:label="ViewLayer_LineSet">
        <g xmlns:inkscape="http://www.inkscape.org/namespaces/inkscape" inkscape:groupmode="layer" id="strokes" inkscape:label="strokes">
            <path fill="none" stroke-width="3.0" stroke-linecap="butt" stroke-opacity="1.0" stroke="rgb(0, 0, 0)" stroke-linejoin="round" d=" M 133.701, 190.109 135.846, 187.886 136.745, 186.954 136.771, 186.955 139.449, 187.051 144.292, 186.496 146.551, 184.274 148.958, 182.096 150.304, 179.199 152.253, 175.227 157.122, 173.697 160.589, 171.849 161.798, 169.036 164.196, 166.260 164.961, 163.650 166.106, 160.158 165.988, 157.626 165.677, 154.044 161.418, 145.900 159.504, 142.068 154.675, 145.979 147.683, 153.128 146.071, 154.776 136.580, 157.924 133.406, 158.977 " />
            <path fill="none" stroke-width="3.0" stroke-linecap="butt" stroke-opacity="1.0" stroke="rgb(0, 0, 0)" stroke-linejoin="round" d=" M 100.298, 188.805 105.205, 186.706 106.042, 186.348 106.253, 186.372 107.310, 186.554 110.572, 187.780 115.785, 190.417 115.921, 190.486 " />
            <path fill="none" stroke-width="3.0" stroke-linecap="butt" stroke-opacity="1.0" stroke="rgb(0, 0, 0)" stroke-linejoin="round" d=" M 159.376, 98.193 159.371, 98.094 159.369, 98.074 155.607, 91.141 155.602, 91.134 " />
            <path fill="none" stroke-width="3.0" stroke-linecap="butt" stroke-opacity="1.0" stroke="rgb(0, 0, 0)" stroke-linejoin="round" d=" M 159.076, 82.246 154.177, 77.442 152.441, 76.860 143.023, 73.496 139.123, 72.103 " />
            <path fill="none" stroke-width="3.0" stroke-linecap="butt" stroke-opacity="1.0" stroke="rgb(0, 0, 0)" stroke-linejoin="round" d=" M 191.518, 129.367 198.925, 122.649 201.908, 119.943 202.347, 109.952 202.434, 107.994 200.406, 98.202 199.395, 93.317 198.751, 85.662 194.054, 76.834 189.357, 68.005 187.956, 65.371 182.908, 56.738 181.913, 55.036 179.584, 52.804 172.863, 45.400 169.083, 41.236 162.719, 35.355 161.052, 33.786 152.093, 29.343 146.067, 26.355 140.149, 23.749 139.499, 23.833 129.529, 24.605 119.559, 25.377 109.589, 26.149 102.620, 26.689 99.520, 26.883 91.248, 32.502 85.974, 36.085 79.784, 41.080 74.270, 49.423 73.199, 51.045 67.120, 58.986 64.656, 62.204 61.664, 71.455 61.201, 78.989 " />
            <path fill="none" stroke-width="3.0" stroke-linecap="butt" stroke-opacity="1.0" stroke="rgb(0, 0, 0)" stroke-linejoin="round" d=" M 190.843, 149.746 191.253, 147.890 189.867, 143.172 187.255, 136.227 187.197, 136.073 188.734, 131.245 187.984, 134.598 187.255, 136.227 " />
            <path fill="none" stroke-width="3.0" stroke-linecap="butt" stroke-opacity="1.0" stroke="rgb(0, 0, 0)" stroke-linejoin="round" d=" M 82.638, 133.064 73.553, 137.245 71.831, 138.038 71.449, 138.213 71.149, 138.471 71.763, 145.934 70.432, 148.259 69.104, 150.581 67.791, 156.969 68.490, 165.703 69.283, 166.774 75.233, 174.811 77.017, 177.220 77.589, 178.109 79.821, 179.206 83.196, 179.848 89.182, 180.987 93.108, 181.559 97.867, 182.253 100.563, 182.646 101.452, 182.563 105.499, 182.186 108.486, 181.907 111.774, 180.999 120.759, 176.608 129.881, 172.149 " />
            <path fill="none" stroke-width="3.0" stroke-linecap="butt" stroke-opacity="1.0" stroke="rgb(0, 0, 0)" stroke-linejoin="round" d=" M 121.219, 193.243 125.120, 193.060 130.292, 192.819 133.058, 190.620 135.990, 188.291 137.014, 187.477 " />
            <path fill="none" stroke-width="3.0" stroke-linecap="butt" stroke-opacity="1.0" stroke="rgb(0, 0, 0)" stroke-linejoin="round" d=" M 81.453, 184.421 86.355, 190.249 93.806, 191.635 " />
            <path fill="none" stroke-width="3.0" stroke-linecap="butt" stroke-opacity="1.0" stroke="rgb(0, 0, 0)" stroke-linejoin="round" d=" M 72.611, 106.095 76.933, 99.418 81.306, 94.361 88.882, 90.754 96.519, 91.146 " />
            <path fill="none" stroke-width="3.0" stroke-linecap="butt" stroke-opacity="1.0" stroke="rgb(0, 0, 0)" stroke-linejoin="round" d=" M 105.276, 101.871 102.993, 94.249 99.939, 87.010 95.091, 83.490 " />
            <path fill="none" stroke-width="3.0" stroke-linecap="butt" stroke-opacity="1.0" stroke="rgb(0, 0, 0)" stroke-linejoin="round" d=" M 126.462, 85.670 120.657, 92.029 118.544, 101.804 118.493, 102.041 123.700, 95.457 129.303, 91.130 139.339, 90.618 148.693, 94.155 149.031, 94.283 154.376, 99.520 159.478, 106.554 159.375, 98.103 " />
            <path fill="none" stroke-width="3.0" stroke-linecap="butt" stroke-opacity="1.0" stroke="rgb(0, 0, 0)" stroke-linejoin="round" d=" M 129.513, 140.131 139.196, 139.531 144.425, 134.142 147.241, 126.757 147.297, 116.757 147.302, 115.888 143.682, 107.031 136.926, 101.482 127.113, 102.558 124.312, 107.635 124.036, 112.025 " />
            <path fill="none" stroke-width="3.0" stroke-linecap="butt" stroke-opacity="1.0" stroke="rgb(0, 0, 0)" stroke-linejoin="round" d=" M 104.064, 108.719 102.208, 103.717 94.605, 102.660 89.621, 108.151 86.604, 116.222 86.339, 126.218 86.333, 126.420 87.361, 131.477 " />
            <path fill="none" stroke-width="3.0" stroke-linecap="butt" stroke-opacity="1.0" stroke="rgb(0, 0, 0)" stroke-linejoin="round" d=" M 173.899, 97.673 166.971, 90.462 160.042, 83.251 159.076, 82.246 " />
            <path fill="none" stroke-width="3.0" stroke-linecap="butt" stroke-opacity="1.0" stroke="rgb(0, 0, 0)" stroke-linejoin="round" d=" M 60.019, 94.094 60.934, 104.052 61.316, 108.209 62.949, 115.855 64.171, 117.556 68.340, 123.489 64.258, 118.091 67.964, 123.884 67.539, 127.388 68.969, 126.996 68.425, 130.109 61.988, 137.762 61.857, 137.917 59.939, 140.636 59.610, 146.978 59.881, 148.106 60.649, 148.845 " />
            <path fill="none" stroke-width="3.0" stroke-linecap="butt" stroke-opacity="1.0" stroke="rgb(0, 0, 0)" stroke-linejoin="round" d=" M 91.306, 200.139 91.489, 200.460 93.798, 204.494 94.048, 204.777 102.723, 209.751 103.303, 210.083 111.495, 210.852 112.759, 212.800 " />
            <path fill="none" stroke-width="3.0" stroke-linecap="butt" stroke-opacity="1.0" stroke="rgb(0, 0, 0)" stroke-linejoin="round" d=" M 96.752, 69.044 86.756, 69.326 80.762, 69.495 79.259, 69.543 70.476, 74.323 66.113, 76.698 61.201, 78.989 58.510, 80.244 55.311, 89.719 54.633, 91.728 60.019, 94.094 65.197, 96.369 63.117, 98.112 62.608, 102.600 67.643, 102.525 " />
            <path fill="none" stroke-width="3.0" stroke-linecap="butt" stroke-opacity="1.0" stroke="rgb(0, 0, 0)" stroke-linejoin="round" d=" M 133.058, 190.620 133.562, 190.700 134.738, 190.326 135.596, 190.128 136.166, 189.996 136.121, 190.292 136.045, 190.796 136.029, 190.906 135.979, 190.899 135.411, 190.818 134.988, 190.757 135.482, 190.555 136.121, 190.292 136.456, 190.154 136.045, 190.796 " />
            <path fill="none" stroke-width="3.0" stroke-linecap="butt" stroke-opacity="1.0" stroke="rgb(0, 0, 0)" stroke-linejoin="round" d=" M 135.979, 190.899 134.964, 192.485 135.411, 190.818 " />
            <path fill="none" stroke-width="3.0" stroke-linecap="butt" stroke-opacity="1.0" stroke="rgb(0, 0, 0)" stroke-linejoin="round" d=" M 187.180, 155.446 190.843, 149.746 " />
            <path fill="none" stroke-width="3.0" stroke-linecap="butt" stroke-opacity="1.0" stroke="rgb(0, 0, 0)" stroke-linejoin="round" d=" M 70.432, 148.259 70.069, 147.773 65.219, 139.613 64.630, 140.842 62.490, 145.304 60.649, 148.845 59.833, 150.414 59.428, 154.500 59.221, 156.111 59.843, 160.209 60.153, 161.927 60.999, 166.155 61.710, 167.541 62.322, 167.828 66.108, 169.603 68.006, 171.178 68.995, 173.533 70.506, 177.990 73.179, 181.342 74.286, 182.666 77.280, 183.376 80.719, 183.640 81.463, 184.395 83.969, 186.938 85.423, 189.140 " />
            <path fill="none" stroke-width="3.0" stroke-linecap="butt" stroke-opacity="1.0" stroke="rgb(0, 0, 0)" stroke-linejoin="round" d=" M 62.322, 167.828 63.129, 170.296 63.774, 175.313 68.964, 183.861 70.151, 185.817 78.966, 190.539 85.325, 193.945 87.705, 198.364 91.489, 200.460 " />
            <path fill="none" stroke-width="3.0" stroke-linecap="butt" stroke-opacity="1.0" stroke="rgb(0, 0, 0)" stroke-linejoin="round" d=" M 130.340, 171.639 132.694, 161.920 133.406, 158.977 133.711, 157.719 133.837, 157.209 133.815, 156.990 133.814, 156.976 133.793, 156.775 133.757, 156.679 133.641, 156.378 131.581, 146.593 130.961, 143.649 130.339, 140.696 129.513, 140.131 128.436, 139.392 126.724, 138.219 120.868, 132.898 120.797, 132.834 120.715, 132.760 118.667, 132.324 108.886, 130.246 108.653, 130.197 107.647, 129.983 104.478, 129.489 103.512, 129.583 97.225, 130.193 92.829, 130.765 90.952, 131.010 87.361, 131.477 85.813, 131.678 82.638, 133.064 " />
            <path fill="none" stroke-width="3.0" stroke-linecap="butt" stroke-opacity="1.0" stroke="rgb(0, 0, 0)" stroke-linejoin="round" d=" M 97.417, 92.068 99.347, 94.527 101.841, 97.061 " />
            <path fill="none" stroke-width="3.0" stroke-linecap="butt" stroke-opacity="1.0" stroke="rgb(0, 0, 0)" stroke-linejoin="round" d=" M 96.776, 190.340 101.932, 193.477 110.327, 194.600 118.461, 195.848 122.965, 194.182 125.120, 193.060 " />
            <path fill="none" stroke-width="3.0" stroke-linecap="butt" stroke-opacity="1.0" stroke="rgb(0, 0, 0)" stroke-linejoin="round" d=" M 102.690, 111.059 99.304, 110.173 97.683, 110.641 94.814, 111.740 93.872, 112.607 93.594, 112.776 91.384, 117.425 91.008, 118.166 90.400, 123.616 90.301, 124.664 90.419, 125.716 90.952, 131.010 " />
            <path fill="none" stroke-width="3.0" stroke-linecap="butt" stroke-opacity="1.0" stroke="rgb(0, 0, 0)" stroke-linejoin="round" d=" M 103.480, 130.820 106.296, 129.947 107.556, 130.059 108.644, 130.287 118.431, 132.338 118.714, 132.397 120.797, 132.834 120.829, 132.840 120.868, 132.898 122.536, 135.350 125.595, 138.727 " />
            <path fill="none" stroke-width="3.0" stroke-linecap="butt" stroke-opacity="1.0" stroke="rgb(0, 0, 0)" stroke-linejoin="round" d=" M 112.759, 212.800 119.147, 215.848 125.243, 213.658 135.120, 212.098 136.205, 211.927 138.211, 211.214 146.963, 206.376 147.466, 206.099 156.058, 202.087 164.053, 196.081 166.332, 194.369 173.012, 188.113 177.924, 180.774 178.798, 178.607 180.689, 173.917 181.477, 171.962 181.563, 171.527 181.978, 169.419 183.979, 161.800 180.233, 162.362 " />
            <path fill="none" stroke-width="3.0" stroke-linecap="butt" stroke-opacity="1.0" stroke="rgb(0, 0, 0)" stroke-linejoin="round" d=" M 130.961, 143.649 131.317, 143.944 133.199, 153.765 133.757, 156.679 133.814, 156.976 133.816, 156.987 133.815, 156.990 133.332, 159.002 130.995, 168.725 130.365, 171.346 130.340, 171.639 " />
            <path fill="none" stroke-width="3.0" stroke-linecap="butt" stroke-opacity="1.0" stroke="rgb(0, 0, 0)" stroke-linejoin="round" d=" M 132.636, 138.154 133.617, 137.860 134.092, 137.702 134.205, 137.664 136.440, 134.553 138.091, 132.193 138.696, 128.911 139.282, 124.897 138.668, 120.276 138.272, 117.678 135.872, 114.226 134.639, 112.453 131.207, 111.398 128.298, 110.575 124.083, 112.010 " />
            <path fill="none" stroke-width="3.0" stroke-linecap="butt" stroke-opacity="1.0" stroke="rgb(0, 0, 0)" stroke-linejoin="round" d=" M 128.436, 139.392 132.636, 138.154 134.073, 137.731 " />
            <path fill="none" stroke-width="3.0" stroke-linecap="butt" stroke-opacity="1.0" stroke="rgb(0, 0, 0)" stroke-linejoin="round" d=" M 178.798, 178.607 181.805, 175.584 180.689, 173.917 " />
            <path fill="none" stroke-width="3.0" stroke-linecap="butt" stroke-opacity="1.0" stroke="rgb(0, 0, 0)" stroke-linejoin="round" d=" M 181.563, 171.527 183.464, 172.340 190.069, 171.736 196.296, 168.757 199.472, 164.919 201.292, 163.602 203.395, 155.017 203.841, 151.482 202.829, 146.766 200.292, 139.631 199.268, 137.003 194.869, 132.672 192.482, 131.865 190.285, 131.298 191.518, 129.367 " />
        </g>
    </g>
</svg>
