<?xml version='1.0' encoding='ascii'?>
<svg xmlns="http://www.w3.org/2000/svg" version="1.1" width="250" height="250">
    <g id="ViewLayer_LineSet" xmlns:inkscape="http://www.inkscape.org/namespaces/inkscape" inkscape:groupmode="lineset" inkscape:label="ViewLayer_LineSet">
        <g xmlns:inkscape="http://www.inkscape.org/namespaces/inkscape" inkscape:groupmode="layer" id="strokes" inkscape:label="strokes">
            <path fill="none" stroke-width="3.0" stroke-linecap="butt" stroke-opacity="1.0" stroke="rgb(0, 0, 0)" stroke-linejoin="round" d=" M 132.567, 112.897 132.771, 113.088 132.773, 113.091 132.805, 113.135 " />
            <path fill="none" stroke-width="3.0" stroke-linecap="butt" stroke-opacity="1.0" stroke="rgb(0, 0, 0)" stroke-linejoin="round" d=" M 121.723, 124.296 118.198, 125.504 117.353, 125.821 114.883, 129.636 113.856, 131.176 113.300, 135.500 112.938, 138.181 113.539, 141.399 114.254, 145.104 116.089, 147.613 117.959, 150.051 120.535, 150.674 123.507, 151.347 124.094, 151.480 128.882, 149.712 " />
            <path fill="none" stroke-width="3.0" stroke-linecap="butt" stroke-opacity="1.0" stroke="rgb(0, 0, 0)" stroke-linejoin="round" d=" M 202.251, 109.437 197.417, 104.355 194.274, 102.745 192.749, 102.042 191.879, 101.378 184.749, 102.156 " />
            <path fill="none" stroke-width="3.0" stroke-linecap="butt" stroke-opacity="1.0" stroke="rgb(0, 0, 0)" stroke-linejoin="round" d=" M 169.918, 37.133 161.304, 32.055 159.524, 31.006 154.017, 30.605 144.027, 30.163 134.037, 29.720 129.126, 29.502 120.148, 28.842 110.148, 28.776 109.214, 28.770 99.811, 32.175 98.684, 32.583 90.451, 38.258 85.208, 41.872 77.089, 47.710 72.841, 50.765 68.940, 56.721 61.568, 63.478 59.602, 65.280 53.738, 73.380 51.179, 76.916 48.815, 86.632 47.933, 90.256 44.281, 99.565 41.592, 106.418 41.935, 111.318 46.736, 116.986 53.955, 123.906 55.492, 125.379 54.396, 125.202 " />
            <path fill="none" stroke-width="3.0" stroke-linecap="butt" stroke-opacity="1.0" stroke="rgb(0, 0, 0)" stroke-linejoin="round" d=" M 158.327, 153.300 154.507, 155.110 " />
            <path fill="none" stroke-width="3.0" stroke-linecap="butt" stroke-opacity="1.0" stroke="rgb(0, 0, 0)" stroke-linejoin="round" d=" M 95.829, 111.779 95.261, 120.482 100.988, 113.837 106.942, 109.057 " />
            <path fill="none" stroke-width="3.0" stroke-linecap="butt" stroke-opacity="1.0" stroke="rgb(0, 0, 0)" stroke-linejoin="round" d=" M 137.284, 119.619 136.239, 112.536 131.789, 104.235 " />
            <path fill="none" stroke-width="3.0" stroke-linecap="butt" stroke-opacity="1.0" stroke="rgb(0, 0, 0)" stroke-linejoin="round" d=" M 117.271, 106.429 127.144, 108.018 127.412, 108.061 132.773, 113.091 " />
            <path fill="none" stroke-width="3.0" stroke-linecap="butt" stroke-opacity="1.0" stroke="rgb(0, 0, 0)" stroke-linejoin="round" d=" M 165.478, 105.839 171.790, 108.155 175.175, 112.530 177.738, 117.544 178.226, 118.499 " />
            <path fill="none" stroke-width="3.0" stroke-linecap="butt" stroke-opacity="1.0" stroke="rgb(0, 0, 0)" stroke-linejoin="round" d=" M 156.877, 102.628 152.243, 109.552 149.017, 118.986 " />
            <path fill="none" stroke-width="3.0" stroke-linecap="butt" stroke-opacity="1.0" stroke="rgb(0, 0, 0)" stroke-linejoin="round" d=" M 104.447, 131.189 104.099, 137.699 106.687, 145.154 111.508, 149.820 121.295, 151.876 122.647, 152.160 123.507, 151.347 " />
            <path fill="none" stroke-width="3.0" stroke-linecap="butt" stroke-opacity="1.0" stroke="rgb(0, 0, 0)" stroke-linejoin="round" d=" M 129.356, 122.886 126.853, 117.496 117.813, 115.529 " />
            <path fill="none" stroke-width="3.0" stroke-linecap="butt" stroke-opacity="1.0" stroke="rgb(0, 0, 0)" stroke-linejoin="round" d=" M 155.987, 146.709 160.207, 142.173 162.493, 135.042 163.893, 125.488 162.326, 117.944 157.869, 113.513 " />
            <path fill="none" stroke-width="3.0" stroke-linecap="butt" stroke-opacity="1.0" stroke="rgb(0, 0, 0)" stroke-linejoin="round" d=" M 126.150, 178.955 125.463, 178.659 116.027, 175.347 106.530, 172.013 101.886, 167.636 95.660, 159.811 93.489, 157.082 92.926, 158.061 87.939, 166.728 86.619, 169.022 86.498, 170.782 86.108, 174.734 86.634, 176.756 87.895, 180.548 89.428, 183.828 91.297, 186.424 95.957, 187.864 99.123, 189.706 100.522, 192.802 101.740, 195.596 104.657, 198.216 106.207, 199.568 108.883, 199.802 112.495, 199.718 113.179, 199.702 118.042, 203.028 117.173, 203.604 " />
            <path fill="none" stroke-width="3.0" stroke-linecap="butt" stroke-opacity="1.0" stroke="rgb(0, 0, 0)" stroke-linejoin="round" d=" M 180.638, 107.797 181.296, 110.178 181.321, 110.270 181.347, 110.363 181.295, 111.383 181.296, 110.321 181.296, 110.178 181.298, 107.991 180.638, 107.797 179.516, 107.467 180.572, 107.559 182.572, 107.732 192.535, 108.595 202.251, 109.437 " />
            <path fill="none" stroke-width="3.0" stroke-linecap="butt" stroke-opacity="1.0" stroke="rgb(0, 0, 0)" stroke-linejoin="round" d=" M 53.553, 124.740 49.612, 124.600 45.797, 125.183 44.475, 126.441 43.956, 127.204 40.297, 136.066 39.374, 141.237 39.768, 144.384 42.180, 153.063 44.474, 155.069 51.342, 162.337 52.587, 163.655 53.376, 164.160 54.070, 164.271 63.952, 163.237 " />
            <path fill="none" stroke-width="3.0" stroke-linecap="butt" stroke-opacity="1.0" stroke="rgb(0, 0, 0)" stroke-linejoin="round" d=" M 65.348, 159.620 64.148, 162.730 63.952, 163.237 63.715, 163.852 64.775, 168.085 64.785, 168.125 64.831, 168.472 65.127, 170.682 68.049, 179.558 74.030, 187.572 78.024, 192.922 79.252, 194.349 83.893, 195.526 87.103, 197.492 96.579, 200.686 97.041, 200.842 98.562, 201.558 103.173, 203.459 105.879, 203.351 105.907, 203.352 105.918, 203.363 105.930, 203.376 112.116, 209.195 118.380, 213.022 119.672, 213.566 119.809, 213.626 128.357, 214.216 129.590, 214.238 130.962, 213.862 138.332, 211.454 140.586, 210.108 145.438, 206.784 " />
            <path fill="none" stroke-width="3.0" stroke-linecap="butt" stroke-opacity="1.0" stroke="rgb(0, 0, 0)" stroke-linejoin="round" d=" M 58.849, 132.678 57.984, 130.633 57.637, 127.999 58.849, 132.678 59.165, 133.896 57.511, 143.349 56.838, 147.906 57.180, 149.892 59.672, 154.255 60.893, 156.392 " />
            <path fill="none" stroke-width="3.0" stroke-linecap="butt" stroke-opacity="1.0" stroke="rgb(0, 0, 0)" stroke-linejoin="round" d=" M 64.831, 168.472 64.743, 168.241 64.775, 168.085 " />
            <path fill="none" stroke-width="3.0" stroke-linecap="butt" stroke-opacity="1.0" stroke="rgb(0, 0, 0)" stroke-linejoin="round" d=" M 104.447, 131.189 104.565, 128.419 104.625, 127.858 104.650, 127.628 108.308, 121.102 109.124, 119.763 116.500, 115.564 116.892, 115.329 116.944, 115.297 117.813, 115.529 " />
            <path fill="none" stroke-width="3.0" stroke-linecap="butt" stroke-opacity="1.0" stroke="rgb(0, 0, 0)" stroke-linejoin="round" d=" M 112.495, 199.718 117.173, 203.604 118.396, 204.621 " />
            <path fill="none" stroke-width="3.0" stroke-linecap="butt" stroke-opacity="1.0" stroke="rgb(0, 0, 0)" stroke-linejoin="round" d=" M 121.553, 204.873 128.371, 205.731 132.454, 204.531 " />
            <path fill="none" stroke-width="3.0" stroke-linecap="butt" stroke-opacity="1.0" stroke="rgb(0, 0, 0)" stroke-linejoin="round" d=" M 131.245, 202.467 131.596, 203.066 132.454, 204.531 133.138, 205.699 133.421, 206.172 133.433, 206.178 133.441, 206.182 141.801, 206.746 145.438, 206.784 150.780, 206.841 159.855, 205.445 167.426, 203.568 170.847, 202.387 176.048, 195.985 180.958, 190.893 182.691, 185.686 182.923, 179.060 182.772, 177.387 182.039, 169.260 180.854, 168.239 180.448, 167.890 179.234, 165.948 175.002, 163.424 168.687, 159.656 160.573, 153.811 159.380, 152.951 159.181, 152.890 159.085, 152.817 158.327, 153.300 " />
            <path fill="none" stroke-width="3.0" stroke-linecap="butt" stroke-opacity="1.0" stroke="rgb(0, 0, 0)" stroke-linejoin="round" d=" M 148.830, 124.755 148.894, 124.075 149.074, 120.067 150.099, 117.629 " />
            <path fill="none" stroke-width="3.0" stroke-linecap="butt" stroke-opacity="1.0" stroke="rgb(0, 0, 0)" stroke-linejoin="round" d=" M 155.215, 147.436 155.299, 147.341 155.639, 147.083 155.905, 146.881 155.987, 146.709 157.671, 143.169 158.310, 142.002 159.245, 137.488 159.580, 135.886 159.467, 134.469 159.207, 129.802 158.920, 129.099 158.114, 126.127 157.411, 125.245 156.990, 124.758 154.209, 124.232 152.346, 123.949 " />
            <path fill="none" stroke-width="3.0" stroke-linecap="butt" stroke-opacity="1.0" stroke="rgb(0, 0, 0)" stroke-linejoin="round" d=" M 152.103, 115.359 156.945, 112.019 158.205, 109.902 160.350, 107.143 162.829, 106.462 " />
            <path fill="none" stroke-width="3.0" stroke-linecap="butt" stroke-opacity="1.0" stroke="rgb(0, 0, 0)" stroke-linejoin="round" d=" M 174.864, 125.889 174.495, 122.244 176.569, 119.968 176.576, 119.758 176.837, 119.371 177.738, 117.544 " />
            <path fill="none" stroke-width="3.0" stroke-linecap="butt" stroke-opacity="1.0" stroke="rgb(0, 0, 0)" stroke-linejoin="round" d=" M 182.772, 177.387 183.460, 174.426 183.794, 173.862 184.990, 169.288 185.256, 168.377 185.418, 164.323 185.423, 163.189 182.817, 156.308 181.505, 152.608 180.253, 154.243 180.163, 154.401 175.198, 163.082 175.002, 163.424 " />
            <path fill="none" stroke-width="3.0" stroke-linecap="butt" stroke-opacity="1.0" stroke="rgb(0, 0, 0)" stroke-linejoin="round" d=" M 178.307, 115.657 180.713, 110.480 180.741, 110.350 180.729, 110.259 177.661, 105.127 175.754, 103.886 " />
            <path fill="none" stroke-width="3.0" stroke-linecap="butt" stroke-opacity="1.0" stroke="rgb(0, 0, 0)" stroke-linejoin="round" d=" M 180.163, 154.401 179.688, 151.899 180.620, 149.218 181.129, 147.077 181.526, 145.871 182.311, 140.512 180.696, 137.383 175.252, 128.995 175.165, 128.861 175.115, 128.368 " />
            <path fill="none" stroke-width="3.0" stroke-linecap="butt" stroke-opacity="1.0" stroke="rgb(0, 0, 0)" stroke-linejoin="round" d=" M 184.749, 102.156 186.525, 96.896 188.169, 87.726 189.975, 77.890 190.993, 72.342 190.138, 67.819 184.914, 59.292 183.528, 57.029 179.057, 48.084 176.990, 43.948 174.604, 41.346 169.918, 37.133 " />
        </g>
    </g>
</svg>
