<?xml version='1.0' encoding='ascii'?>
<svg xmlns="http://www.w3.org/2000/svg" version="1.1" width="250" height="250">
    <g id="ViewLayer_LineSet" xmlns:inkscape="http://www.inkscape.org/namespaces/inkscape" inkscape:groupmode="lineset" inkscape:label="ViewLayer_LineSet">
        <g xmlns:inkscape="http://www.inkscape.org/namespaces/inkscape" inkscape:groupmode="layer" id="strokes" inkscape:label="strokes">
            <path fill="none" stroke-width="3.0" stroke-linecap="butt" stroke-opacity="1.0" stroke="rgb(0, 0, 0)" stroke-linejoin="round" d=" M 146.090, 186.832 149.240, 183.480 149.460, 183.246 152.257, 183.251 154.858, 182.845 156.912, 182.524 157.603, 181.771 159.244, 179.983 161.278, 177.941 162.730, 174.530 164.435, 171.002 169.472, 169.197 172.240, 167.549 173.309, 164.422 175.089, 162.033 175.840, 158.867 176.592, 156.020 176.338, 152.793 176.023, 150.026 172.426, 143.315 170.054, 138.574 165.338, 142.770 158.825, 150.358 158.463, 150.780 151.285, 153.368 " />
            <path fill="none" stroke-width="3.0" stroke-linecap="butt" stroke-opacity="1.0" stroke="rgb(0, 0, 0)" stroke-linejoin="round" d=" M 114.399, 185.718 119.008, 183.645 119.200, 183.649 120.552, 183.661 121.513, 184.000 122.165, 184.230 124.835, 185.598 " />
            <path fill="none" stroke-width="3.0" stroke-linecap="butt" stroke-opacity="1.0" stroke="rgb(0, 0, 0)" stroke-linejoin="round" d=" M 110.465, 109.316 105.755, 108.177 104.110, 108.749 99.713, 110.588 99.628, 110.738 98.161, 113.207 96.656, 116.019 96.605, 116.111 96.130, 120.371 95.916, 123.107 97.319, 129.000 97.599, 130.094 " />
            <path fill="none" stroke-width="3.0" stroke-linecap="butt" stroke-opacity="1.0" stroke="rgb(0, 0, 0)" stroke-linejoin="round" d=" M 182.025, 93.462 176.384, 85.205 170.743, 76.948 169.300, 74.834 163.708, 72.620 154.529, 68.651 145.351, 64.681 144.918, 64.494 143.423, 64.499 133.423, 64.493 123.423, 64.487 119.302, 64.485 109.303, 64.596 99.303, 64.706 95.909, 64.744 93.922, 64.760 84.891, 69.055 77.495, 72.572 70.724, 75.434 65.967, 84.230 61.210, 93.027 60.324, 94.666 62.838, 96.082 61.918, 96.687 61.207, 98.183 " />
            <path fill="none" stroke-width="3.0" stroke-linecap="butt" stroke-opacity="1.0" stroke="rgb(0, 0, 0)" stroke-linejoin="round" d=" M 188.868, 125.485 194.979, 119.518 195.897, 109.560 196.815, 99.602 197.532, 91.823 197.359, 90.417 197.367, 89.734 196.615, 88.019 192.278, 79.009 187.941, 69.998 183.604, 60.988 182.309, 58.298 176.454, 51.967 170.153, 44.202 164.210, 36.878 161.241, 34.979 152.408, 30.290 143.695, 25.664 140.690, 25.812 130.691, 25.965 120.692, 26.118 110.693, 26.270 105.886, 26.344 102.400, 26.304 93.755, 31.329 86.922, 35.301 82.360, 38.472 76.272, 46.405 72.407, 51.441 65.816, 58.962 65.199, 59.666 61.266, 68.860 57.332, 78.054 54.954, 83.613 54.119, 88.868 53.502, 91.347 53.534, 96.259 54.800, 106.179 56.065, 116.099 56.370, 118.486 60.471, 122.927 63.296, 127.113 " />
            <path fill="none" stroke-width="3.0" stroke-linecap="butt" stroke-opacity="1.0" stroke="rgb(0, 0, 0)" stroke-linejoin="round" d=" M 98.756, 129.371 97.599, 130.094 93.322, 132.768 90.296, 134.660 88.609, 139.256 86.121, 140.859 86.464, 142.758 85.812, 143.782 84.746, 151.184 84.565, 152.441 84.402, 159.605 86.388, 160.806 91.252, 165.059 96.200, 169.788 96.805, 170.216 104.978, 175.991 109.712, 177.092 111.072, 177.408 111.158, 177.420 118.559, 178.434 125.354, 177.590 129.231, 176.625 138.335, 172.488 142.898, 170.415 143.291, 170.007 146.662, 166.495 150.017, 158.033 151.285, 153.368 151.457, 152.733 150.834, 147.417 148.795, 143.080 146.963, 136.456 146.643, 135.299 143.683, 133.385 143.305, 133.140 139.387, 130.607 135.550, 127.869 131.349, 127.023 126.424, 126.032 126.251, 125.998 119.176, 125.051 116.870, 125.305 110.575, 125.998 101.969, 127.479 98.893, 129.290 98.756, 129.371 " />
            <path fill="none" stroke-width="3.0" stroke-linecap="butt" stroke-opacity="1.0" stroke="rgb(0, 0, 0)" stroke-linejoin="round" d=" M 130.152, 188.155 134.300, 190.150 136.911, 189.938 143.147, 189.432 145.067, 187.736 145.677, 187.197 149.421, 183.891 " />
            <path fill="none" stroke-width="3.0" stroke-linecap="butt" stroke-opacity="1.0" stroke="rgb(0, 0, 0)" stroke-linejoin="round" d=" M 91.220, 183.295 95.281, 187.216 97.058, 188.932 105.536, 189.843 " />
            <path fill="none" stroke-width="3.0" stroke-linecap="butt" stroke-opacity="1.0" stroke="rgb(0, 0, 0)" stroke-linejoin="round" d=" M 77.549, 104.190 82.371, 97.342 87.310, 92.151 95.965, 88.371 104.721, 88.601 108.350, 91.687 " />
            <path fill="none" stroke-width="3.0" stroke-linecap="butt" stroke-opacity="1.0" stroke="rgb(0, 0, 0)" stroke-linejoin="round" d=" M 114.563, 99.167 112.337, 91.495 108.464, 84.434 102.810, 81.035 " />
            <path fill="none" stroke-width="3.0" stroke-linecap="butt" stroke-opacity="1.0" stroke="rgb(0, 0, 0)" stroke-linejoin="round" d=" M 133.058, 92.918 138.219, 88.806 147.621, 88.544 156.683, 92.346 161.808, 97.529 166.750, 104.428 " />
            <path fill="none" stroke-width="3.0" stroke-linecap="butt" stroke-opacity="1.0" stroke="rgb(0, 0, 0)" stroke-linejoin="round" d=" M 135.497, 83.356 130.118, 89.466 127.933, 99.224 127.891, 99.411 " />
            <path fill="none" stroke-width="3.0" stroke-linecap="butt" stroke-opacity="1.0" stroke="rgb(0, 0, 0)" stroke-linejoin="round" d=" M 146.963, 136.456 151.242, 131.929 153.670, 124.678 153.708, 114.678 153.711, 113.943 150.255, 105.183 143.780, 99.637 134.542, 100.517 131.997, 105.481 131.867, 109.806 " />
            <path fill="none" stroke-width="3.0" stroke-linecap="butt" stroke-opacity="1.0" stroke="rgb(0, 0, 0)" stroke-linejoin="round" d=" M 111.273, 106.606 108.971, 101.692 100.239, 100.856 94.250, 106.618 90.877, 114.868 90.722, 124.866 90.716, 125.208 92.736, 132.182 " />
            <path fill="none" stroke-width="3.0" stroke-linecap="butt" stroke-opacity="1.0" stroke="rgb(0, 0, 0)" stroke-linejoin="round" d=" M 177.311, 99.160 183.944, 96.613 182.025, 93.462 " />
            <path fill="none" stroke-width="3.0" stroke-linecap="butt" stroke-opacity="1.0" stroke="rgb(0, 0, 0)" stroke-linejoin="round" d=" M 63.282, 126.773 61.986, 124.808 63.272, 126.513 63.282, 126.773 63.296, 127.113 63.456, 131.078 63.512, 132.468 63.517, 132.593 63.498, 132.624 58.426, 141.242 57.418, 142.954 57.442, 147.815 59.271, 152.497 61.368, 153.556 61.698, 156.637 61.294, 166.629 61.280, 166.989 61.536, 168.948 61.621, 169.597 61.764, 170.037 62.421, 171.841 67.587, 180.403 72.754, 188.965 74.811, 192.374 75.121, 192.588 75.649, 193.042 84.415, 197.854 93.181, 202.667 96.502, 204.490 104.385, 209.334 108.808, 211.318 117.415, 214.044 122.484, 216.375 126.733, 214.580 136.464, 212.276 137.646, 211.996 140.251, 210.890 148.723, 205.576 149.120, 205.327 158.001, 200.729 164.562, 197.333 169.806, 193.288 172.484, 190.990 177.764, 182.498 182.520, 174.851 184.077, 171.196 184.229, 170.842 184.516, 169.796 185.794, 162.190 185.840, 157.149 186.119, 155.724 186.885, 155.542 190.559, 148.345 191.079, 144.928 186.846, 136.374 185.460, 133.970 185.874, 131.236 186.118, 129.626 186.367, 127.981 185.571, 130.449 " />
            <path fill="none" stroke-width="3.0" stroke-linecap="butt" stroke-opacity="1.0" stroke="rgb(0, 0, 0)" stroke-linejoin="round" d=" M 145.887, 187.211 145.901, 187.212 146.676, 186.354 145.887, 187.211 145.090, 188.078 145.067, 187.736 " />
            <path fill="none" stroke-width="3.0" stroke-linecap="butt" stroke-opacity="1.0" stroke="rgb(0, 0, 0)" stroke-linejoin="round" d=" M 63.456, 131.078 60.973, 133.124 57.458, 137.199 56.763, 141.014 55.401, 145.868 54.537, 148.850 54.827, 154.061 55.506, 160.654 57.903, 162.865 60.541, 168.439 61.536, 168.948 " />
            <path fill="none" stroke-width="3.0" stroke-linecap="butt" stroke-opacity="1.0" stroke="rgb(0, 0, 0)" stroke-linejoin="round" d=" M 84.746, 151.184 82.533, 150.320 77.504, 145.083 72.171, 137.954 69.635, 143.050 68.249, 145.629 66.339, 149.185 66.004, 152.758 65.708, 155.091 66.386, 158.557 66.963, 161.044 68.001, 164.584 69.293, 166.710 69.391, 166.746 73.666, 168.331 76.530, 170.205 77.985, 173.335 79.472, 177.129 82.009, 179.950 83.710, 181.772 85.786, 182.142 88.140, 182.562 90.989, 182.610 91.381, 182.918 93.930, 184.922 94.527, 186.488 " />
            <path fill="none" stroke-width="3.0" stroke-linecap="butt" stroke-opacity="1.0" stroke="rgb(0, 0, 0)" stroke-linejoin="round" d=" M 106.703, 189.300 107.137, 189.648 112.293, 192.572 118.526, 192.999 128.494, 193.803 128.826, 193.830 133.478, 191.868 136.911, 189.938 " />
            <path fill="none" stroke-width="3.0" stroke-linecap="butt" stroke-opacity="1.0" stroke="rgb(0, 0, 0)" stroke-linejoin="round" d=" M 108.350, 91.687 109.252, 92.432 109.325, 92.515 109.955, 93.232 " />
            <path fill="none" stroke-width="3.0" stroke-linecap="butt" stroke-opacity="1.0" stroke="rgb(0, 0, 0)" stroke-linejoin="round" d=" M 143.683, 133.385 144.155, 132.744 146.298, 129.628 146.588, 127.911 147.294, 122.393 146.319, 115.708 146.245, 115.251 143.072, 110.825 142.579, 110.144 138.398, 108.917 136.135, 108.341 132.409, 109.629 " />
            <path fill="none" stroke-width="3.0" stroke-linecap="butt" stroke-opacity="1.0" stroke="rgb(0, 0, 0)" stroke-linejoin="round" d=" M 145.677, 187.197 145.887, 187.211 " />
            <path fill="none" stroke-width="3.0" stroke-linecap="butt" stroke-opacity="1.0" stroke="rgb(0, 0, 0)" stroke-linejoin="round" d=" M 184.077, 171.196 186.680, 170.823 190.773, 168.805 193.576, 164.067 195.794, 162.273 196.971, 154.906 197.321, 150.359 196.353, 146.722 194.567, 141.026 193.698, 137.602 189.489, 133.043 188.145, 131.994 185.874, 131.236 " />
            <path fill="none" stroke-width="3.0" stroke-linecap="butt" stroke-opacity="1.0" stroke="rgb(0, 0, 0)" stroke-linejoin="round" d=" M 186.118, 129.626 188.868, 125.485 " />
        </g>
    </g>
</svg>
