<?xml version='1.0' encoding='ascii'?>
<svg xmlns="http://www.w3.org/2000/svg" version="1.1" width="250" height="250">
    <g id="ViewLayer_LineSet" xmlns:inkscape="http://www.inkscape.org/namespaces/inkscape" inkscape:groupmode="lineset" inkscape:label="ViewLayer_LineSet">
        <g xmlns:inkscape="http://www.inkscape.org/namespaces/inkscape" inkscape:groupmode="layer" id="strokes" inkscape:label="strokes">
            <path fill="none" stroke-width="3.0" stroke-linecap="butt" stroke-opacity="1.0" stroke="rgb(0, 0, 0)" stroke-linejoin="round" d=" M 122.773, 186.607 128.798, 183.837 129.054, 183.833 130.288, 183.746 130.671, 183.873 131.475, 184.141 133.501, 185.168 " />
            <path fill="none" stroke-width="3.0" stroke-linecap="butt" stroke-opacity="1.0" stroke="rgb(0, 0, 0)" stroke-linejoin="round" d=" M 116.029, 109.564 110.699, 108.353 108.742, 109.100 104.691, 110.880 104.197, 111.801 101.578, 116.441 101.513, 117.628 101.190, 123.556 102.475, 128.384 103.102, 130.618 105.174, 133.043 105.981, 133.905 " />
            <path fill="none" stroke-width="3.0" stroke-linecap="butt" stroke-opacity="1.0" stroke="rgb(0, 0, 0)" stroke-linejoin="round" d=" M 187.859, 94.398 183.316, 85.489 178.773, 76.581 178.358, 75.768 171.519, 72.817 162.508, 68.483 155.392, 65.060 153.375, 65.037 143.376, 64.895 133.377, 64.753 130.132, 64.707 120.132, 64.680 110.132, 64.652 105.807, 64.640 104.498, 64.632 95.300, 68.555 86.102, 72.479 85.356, 72.797 80.000, 74.871 74.163, 82.991 68.327, 91.111 67.278, 92.570 64.654, 96.630 " />
            <path fill="none" stroke-width="3.0" stroke-linecap="butt" stroke-opacity="1.0" stroke="rgb(0, 0, 0)" stroke-linejoin="round" d=" M 186.495, 122.267 190.165, 118.176 191.508, 108.267 192.851, 98.357 192.919, 97.856 193.005, 91.682 192.297, 88.554 191.259, 81.837 187.424, 72.602 183.589, 63.366 182.208, 60.040 175.715, 52.435 174.821, 51.388 168.834, 43.379 165.458, 38.864 160.575, 35.429 151.959, 30.352 145.325, 26.442 141.813, 26.448 131.816, 26.210 121.818, 25.972 111.821, 25.733 106.906, 25.616 104.067, 25.448 95.206, 30.082 86.344, 34.715 86.117, 34.834 83.612, 36.417 77.219, 44.107 70.826, 51.796 70.627, 52.035 65.076, 57.882 60.649, 66.849 56.222, 75.816 51.795, 84.783 51.572, 85.233 49.754, 89.274 49.756, 90.876 49.321, 94.162 50.179, 104.125 51.038, 114.088 51.523, 119.721 58.161, 126.088 60.958, 130.301 " />
            <path fill="none" stroke-width="3.0" stroke-linecap="butt" stroke-opacity="1.0" stroke="rgb(0, 0, 0)" stroke-linejoin="round" d=" M 136.681, 186.622 143.663, 189.815 144.350, 189.734 152.021, 188.825 153.646, 187.209 154.148, 186.709 157.724, 183.152 " />
            <path fill="none" stroke-width="3.0" stroke-linecap="butt" stroke-opacity="1.0" stroke="rgb(0, 0, 0)" stroke-linejoin="round" d=" M 99.714, 184.268 102.784, 186.917 106.093, 189.771 115.012, 190.419 " />
            <path fill="none" stroke-width="3.0" stroke-linecap="butt" stroke-opacity="1.0" stroke="rgb(0, 0, 0)" stroke-linejoin="round" d=" M 81.853, 104.355 86.844, 97.405 92.023, 92.158 101.228, 88.376 110.594, 88.656 115.854, 92.801 " />
            <path fill="none" stroke-width="3.0" stroke-linecap="butt" stroke-opacity="1.0" stroke="rgb(0, 0, 0)" stroke-linejoin="round" d=" M 121.084, 99.300 118.876, 91.605 114.440, 84.486 108.299, 81.023 " />
            <path fill="none" stroke-width="3.0" stroke-linecap="butt" stroke-opacity="1.0" stroke="rgb(0, 0, 0)" stroke-linejoin="round" d=" M 140.614, 91.793 143.844, 88.992 152.607, 88.759 161.070, 92.543 165.961, 97.666 170.715, 104.461 " />
            <path fill="none" stroke-width="3.0" stroke-linecap="butt" stroke-opacity="1.0" stroke="rgb(0, 0, 0)" stroke-linejoin="round" d=" M 141.226, 83.559 136.307, 89.629 134.198, 99.404 134.168, 99.544 " />
            <path fill="none" stroke-width="3.0" stroke-linecap="butt" stroke-opacity="1.0" stroke="rgb(0, 0, 0)" stroke-linejoin="round" d=" M 155.395, 131.690 157.463, 124.491 157.438, 114.491 157.436, 113.876 154.123, 105.221 147.947, 99.732 139.312, 100.617 137.037, 105.567 137.043, 109.861 " />
            <path fill="none" stroke-width="3.0" stroke-linecap="butt" stroke-opacity="1.0" stroke="rgb(0, 0, 0)" stroke-linejoin="round" d=" M 116.473, 106.737 113.858, 101.801 104.503, 100.952 97.984, 106.764 94.523, 115.111 94.567, 125.111 94.569, 125.569 97.057, 132.601 102.225, 137.469 " />
            <path fill="none" stroke-width="3.0" stroke-linecap="butt" stroke-opacity="1.0" stroke="rgb(0, 0, 0)" stroke-linejoin="round" d=" M 179.166, 100.298 186.565, 98.547 185.860, 96.737 184.867, 96.081 187.859, 94.398 " />
            <path fill="none" stroke-width="3.0" stroke-linecap="butt" stroke-opacity="1.0" stroke="rgb(0, 0, 0)" stroke-linejoin="round" d=" M 61.393, 130.957 60.645, 128.531 60.958, 130.301 61.136, 131.311 61.672, 134.352 60.422, 136.932 56.786, 144.947 56.976, 148.717 60.532, 155.870 61.394, 156.220 61.718, 157.229 61.633, 160.553 63.354, 169.270 63.751, 170.762 64.055, 171.644 65.767, 176.615 71.090, 185.081 74.348, 190.265 78.504, 193.332 85.064, 198.836 93.916, 203.489 98.310, 205.799 106.977, 210.787 107.724, 211.216 110.126, 212.120 119.862, 214.402 120.943, 214.656 125.098, 216.352 130.949, 213.643 138.983, 211.064 144.004, 208.512 150.888, 203.922 159.696, 199.187 168.504, 194.452 169.913, 193.695 169.859, 192.901 173.383, 191.288 178.622, 182.770 183.861, 174.252 185.941, 170.870 186.076, 170.339 186.266, 169.757 186.227, 167.701 186.039, 157.703 186.025, 156.985 186.005, 153.039 187.547, 152.543 189.558, 147.466 190.065, 142.972 184.836, 134.449 184.007, 133.097 183.268, 132.191 183.259, 131.807 183.521, 131.881 183.531, 131.223 183.601, 126.553 183.603, 126.414 183.607, 126.179 185.230, 123.978 183.603, 126.414 " />
            <path fill="none" stroke-width="3.0" stroke-linecap="butt" stroke-opacity="1.0" stroke="rgb(0, 0, 0)" stroke-linejoin="round" d=" M 107.453, 167.570 115.560, 173.425 120.302, 176.849 124.363, 177.831 131.261, 178.632 138.798, 177.546 138.914, 177.518 139.338, 177.415 144.574, 176.147 153.139, 172.382 154.247, 171.894 161.356, 164.755 163.414, 161.020 166.122, 152.462 165.827, 150.416 164.859, 143.702 161.073, 137.633 159.962, 134.535 155.185, 131.923 151.351, 129.826 150.492, 129.356 150.019, 129.084 147.428, 127.596 138.849, 126.210 137.065, 126.017 132.131, 125.483 130.321, 125.287 123.492, 126.215 122.560, 126.409 113.763, 128.241 109.690, 131.278 106.253, 133.712 105.981, 133.905 103.201, 135.873 102.750, 137.496 100.695, 144.899 99.338, 146.969 97.128, 150.696 96.943, 153.307 96.937, 153.403 96.838, 154.923 99.736, 158.255 105.904, 166.126 106.216, 166.524 " />
            <path fill="none" stroke-width="3.0" stroke-linecap="butt" stroke-opacity="1.0" stroke="rgb(0, 0, 0)" stroke-linejoin="round" d=" M 137.723, 209.656 137.918, 209.115 139.247, 208.913 139.532, 208.768 140.621, 208.213 145.127, 204.556 " />
            <path fill="none" stroke-width="3.0" stroke-linecap="butt" stroke-opacity="1.0" stroke="rgb(0, 0, 0)" stroke-linejoin="round" d=" M 61.136, 131.311 58.297, 132.232 57.353, 132.962 52.943, 137.727 52.021, 141.142 50.240, 146.931 49.297, 150.632 49.688, 155.153 50.868, 162.605 53.090, 164.377 55.931, 169.017 60.275, 171.117 64.055, 171.644 " />
            <path fill="none" stroke-width="3.0" stroke-linecap="butt" stroke-opacity="1.0" stroke="rgb(0, 0, 0)" stroke-linejoin="round" d=" M 96.937, 153.403 90.520, 151.144 84.569, 145.708 78.617, 138.696 76.334, 143.291 72.628, 150.277 72.397, 153.461 72.086, 156.301 72.807, 159.333 73.651, 162.334 74.826, 165.512 76.558, 168.046 80.906, 169.466 84.356, 171.476 86.118, 175.040 87.579, 178.419 90.055, 180.944 91.790, 182.653 92.019, 182.879 92.117, 182.975 97.105, 183.701 99.714, 183.669 99.916, 183.809 102.572, 185.638 102.784, 186.917 " />
            <path fill="none" stroke-width="3.0" stroke-linecap="butt" stroke-opacity="1.0" stroke="rgb(0, 0, 0)" stroke-linejoin="round" d=" M 115.321, 190.267 116.476, 191.127 120.191, 193.093 125.791, 193.215 135.787, 193.495 136.666, 193.520 142.537, 190.841 144.350, 189.734 " />
            <path fill="none" stroke-width="3.0" stroke-linecap="butt" stroke-opacity="1.0" stroke="rgb(0, 0, 0)" stroke-linejoin="round" d=" M 138.673, 93.677 139.422, 92.827 139.449, 92.797 140.614, 91.793 " />
            <path fill="none" stroke-width="3.0" stroke-linecap="butt" stroke-opacity="1.0" stroke="rgb(0, 0, 0)" stroke-linejoin="round" d=" M 151.351, 129.826 151.672, 129.339 151.745, 128.834 152.443, 122.156 152.301, 121.275 150.842, 115.338 150.655, 115.033 148.294, 110.999 147.710, 110.210 147.622, 110.093 143.225, 108.881 141.129, 108.409 138.115, 109.486 " />
            <path fill="none" stroke-width="3.0" stroke-linecap="butt" stroke-opacity="1.0" stroke="rgb(0, 0, 0)" stroke-linejoin="round" d=" M 154.148, 186.709 157.606, 182.874 158.016, 182.419 160.117, 182.358 161.092, 182.330 165.110, 181.565 167.516, 178.706 169.159, 176.909 170.622, 173.092 172.027, 170.006 177.170, 167.897 178.499, 166.998 179.268, 166.477 180.191, 163.033 181.507, 161.001 182.196, 157.415 182.707, 155.071 182.347, 151.414 182.060, 149.199 179.064, 143.658 178.887, 143.330 176.279, 138.108 172.130, 142.279 166.222, 150.257 165.827, 150.416 " />
            <path fill="none" stroke-width="3.0" stroke-linecap="butt" stroke-opacity="1.0" stroke="rgb(0, 0, 0)" stroke-linejoin="round" d=" M 183.601, 126.553 186.495, 122.267 " />
            <path fill="none" stroke-width="3.0" stroke-linecap="butt" stroke-opacity="1.0" stroke="rgb(0, 0, 0)" stroke-linejoin="round" d=" M 186.227, 167.701 188.631, 162.448 191.018, 160.199 191.704, 153.684 191.953, 148.452 191.076, 145.527 189.713, 140.746 189.092, 136.954 185.724, 133.043 183.531, 131.223 " />
        </g>
    </g>
</svg>
