<?xml version='1.0' encoding='ascii'?>
<svg xmlns="http://www.w3.org/2000/svg" version="1.1" width="250" height="250">
    <g id="ViewLayer_LineSet" xmlns:inkscape="http://www.inkscape.org/namespaces/inkscape" inkscape:groupmode="lineset" inkscape:label="ViewLayer_LineSet">
        <g xmlns:inkscape="http://www.inkscape.org/namespaces/inkscape" inkscape:groupmode="layer" id="strokes" inkscape:label="strokes">
            <path fill="none" stroke-width="3.0" stroke-linecap="butt" stroke-opacity="1.0" stroke="rgb(0, 0, 0)" stroke-linejoin="round" d=" M 145.053, 201.361 148.736, 197.883 150.982, 195.763 154.389, 195.551 155.692, 195.470 157.091, 195.216 157.791, 195.088 158.166, 194.692 160.660, 192.054 161.963, 190.800 163.722, 186.991 165.056, 184.491 171.038, 181.942 172.689, 180.795 173.928, 177.042 175.281, 175.170 176.226, 171.710 176.947, 169.364 176.855, 166.287 176.706, 163.746 172.438, 155.149 171.153, 152.437 168.972, 154.694 168.145, 155.800 166.078, 158.565 160.090, 166.575 159.966, 166.741 152.200, 170.034 " />
            <path fill="none" stroke-width="3.0" stroke-linecap="butt" stroke-opacity="1.0" stroke="rgb(0, 0, 0)" stroke-linejoin="round" d=" M 104.981, 103.680 105.904, 103.768 105.963, 103.831 106.308, 104.198 110.238, 108.382 112.845, 110.872 " />
            <path fill="none" stroke-width="3.0" stroke-linecap="butt" stroke-opacity="1.0" stroke="rgb(0, 0, 0)" stroke-linejoin="round" d=" M 168.316, 109.942 168.497, 107.734 165.005, 101.784 " />
            <path fill="none" stroke-width="3.0" stroke-linecap="butt" stroke-opacity="1.0" stroke="rgb(0, 0, 0)" stroke-linejoin="round" d=" M 185.437, 108.865 177.789, 102.422 177.340, 102.043 174.895, 100.822 175.285, 103.416 " />
            <path fill="none" stroke-width="3.0" stroke-linecap="butt" stroke-opacity="1.0" stroke="rgb(0, 0, 0)" stroke-linejoin="round" d=" M 188.512, 118.741 193.492, 112.929 195.478, 103.128 197.464, 93.327 198.435, 88.538 198.299, 87.783 198.335, 87.196 196.972, 84.169 192.658, 75.147 188.344, 66.125 184.125, 57.301 181.498, 54.399 175.330, 46.528 174.953, 46.047 167.608, 39.261 167.266, 38.944 163.742, 35.617 154.755, 31.230 147.881, 27.873 141.542, 27.619 131.542, 27.624 121.542, 27.628 111.542, 27.633 111.039, 27.634 105.087, 27.644 98.979, 27.895 90.025, 32.348 82.984, 35.850 79.925, 38.764 73.378, 44.845 67.254, 52.751 65.966, 54.414 62.953, 57.770 58.772, 66.854 54.592, 75.938 50.411, 85.022 49.418, 87.180 49.415, 87.567 49.367, 87.820 49.473, 88.683 51.581, 98.458 53.690, 108.233 54.701, 112.921 59.199, 118.201 64.449, 124.593 63.950, 124.586 " />
            <path fill="none" stroke-width="3.0" stroke-linecap="butt" stroke-opacity="1.0" stroke="rgb(0, 0, 0)" stroke-linejoin="round" d=" M 140.134, 151.500 140.134, 151.501 141.703, 154.167 146.395, 159.641 149.282, 169.215 149.625, 170.353 149.068, 171.361 " />
            <path fill="none" stroke-width="3.0" stroke-linecap="butt" stroke-opacity="1.0" stroke="rgb(0, 0, 0)" stroke-linejoin="round" d=" M 78.321, 116.558 83.006, 110.023 87.946, 105.245 96.883, 102.440 105.963, 103.831 " />
            <path fill="none" stroke-width="3.0" stroke-linecap="butt" stroke-opacity="1.0" stroke="rgb(0, 0, 0)" stroke-linejoin="round" d=" M 116.463, 115.476 114.124, 108.124 109.875, 99.925 103.830, 95.518 " />
            <path fill="none" stroke-width="3.0" stroke-linecap="butt" stroke-opacity="1.0" stroke="rgb(0, 0, 0)" stroke-linejoin="round" d=" M 141.370, 103.495 149.733, 102.254 158.740, 105.029 163.754, 109.827 168.497, 116.353 " />
            <path fill="none" stroke-width="3.0" stroke-linecap="butt" stroke-opacity="1.0" stroke="rgb(0, 0, 0)" stroke-linejoin="round" d=" M 137.585, 98.469 132.178, 105.423 129.911, 115.207 " />
            <path fill="none" stroke-width="3.0" stroke-linecap="butt" stroke-opacity="1.0" stroke="rgb(0, 0, 0)" stroke-linejoin="round" d=" M 137.133, 120.946 133.553, 122.484 " />
            <path fill="none" stroke-width="3.0" stroke-linecap="butt" stroke-opacity="1.0" stroke="rgb(0, 0, 0)" stroke-linejoin="round" d=" M 136.181, 112.859 133.659, 118.186 133.553, 122.484 " />
            <path fill="none" stroke-width="3.0" stroke-linecap="butt" stroke-opacity="1.0" stroke="rgb(0, 0, 0)" stroke-linejoin="round" d=" M 112.773, 119.548 110.274, 114.153 101.188, 112.111 95.078, 116.644 91.879, 124.446 92.084, 134.444 92.087, 134.615 94.444, 142.009 99.486, 146.887 108.872, 149.317 109.552, 148.411 " />
            <path fill="none" stroke-width="3.0" stroke-linecap="butt" stroke-opacity="1.0" stroke="rgb(0, 0, 0)" stroke-linejoin="round" d=" M 137.716, 149.112 147.239, 146.710 152.323, 141.472 154.776, 134.105 155.025, 124.108 155.029, 123.936 151.768, 115.790 145.387, 110.890 " />
            <path fill="none" stroke-width="3.0" stroke-linecap="butt" stroke-opacity="1.0" stroke="rgb(0, 0, 0)" stroke-linejoin="round" d=" M 181.162, 108.473 181.419, 108.622 184.546, 110.436 182.004, 108.744 181.419, 108.622 180.352, 108.398 181.162, 108.473 185.437, 108.865 " />
            <path fill="none" stroke-width="3.0" stroke-linecap="butt" stroke-opacity="1.0" stroke="rgb(0, 0, 0)" stroke-linejoin="round" d=" M 59.638, 119.337 62.381, 122.873 62.596, 124.567 63.008, 127.827 63.407, 131.179 62.665, 132.947 59.053, 142.272 58.377, 144.017 58.706, 148.790 60.627, 153.311 63.233, 155.795 64.132, 160.444 64.176, 161.730 64.519, 171.724 64.569, 173.189 64.592, 173.296 64.599, 173.313 64.624, 173.378 64.753, 173.570 70.432, 181.801 75.849, 189.652 85.244, 193.077 87.353, 193.847 " />
            <path fill="none" stroke-width="3.0" stroke-linecap="butt" stroke-opacity="1.0" stroke="rgb(0, 0, 0)" stroke-linejoin="round" d=" M 158.166, 194.692 159.675, 193.956 169.137, 190.720 172.373, 189.613 177.943, 181.308 181.522, 175.972 182.421, 174.083 182.840, 173.312 183.490, 163.333 183.580, 161.949 183.672, 160.537 184.399, 156.064 186.062, 154.443 188.836, 148.425 189.723, 144.412 186.079, 135.100 185.608, 133.897 184.432, 131.384 184.981, 127.120 185.320, 124.616 185.535, 123.031 187.862, 120.050 184.453, 124.146 184.244, 124.624 " />
            <path fill="none" stroke-width="3.0" stroke-linecap="butt" stroke-opacity="1.0" stroke="rgb(0, 0, 0)" stroke-linejoin="round" d=" M 71.833, 100.151 70.203, 100.740 62.646, 107.290 61.305, 108.453 66.719, 107.993 67.738, 107.906 66.365, 108.209 65.575, 108.383 62.765, 110.401 66.365, 108.209 66.719, 107.993 67.534, 107.497 " />
            <path fill="none" stroke-width="3.0" stroke-linecap="butt" stroke-opacity="1.0" stroke="rgb(0, 0, 0)" stroke-linejoin="round" d=" M 97.668, 171.591 96.740, 169.830 99.622, 160.255 99.718, 159.934 105.688, 153.716 105.420, 152.237 105.766, 151.399 101.143, 155.963 97.260, 158.665 93.904, 168.085 93.629, 168.856 93.155, 169.655 91.458, 172.514 89.868, 175.566 89.837, 181.694 91.510, 190.823 96.219, 194.741 97.036, 195.421 97.152, 195.517 100.930, 198.660 102.960, 200.524 109.176, 201.994 111.192, 202.279 112.542, 202.469 120.383, 203.575 124.852, 203.598 134.263, 202.316 135.048, 202.209 135.902, 202.093 142.675, 200.676 144.238, 199.245 147.273, 196.837 147.952, 196.298 150.135, 194.566 151.897, 193.169 153.522, 190.652 153.835, 189.450 154.944, 179.512 155.058, 178.492 153.741, 172.625 152.200, 170.034 151.851, 169.448 148.736, 159.946 148.276, 158.545 144.641, 155.999 140.135, 151.501 140.134, 151.500 " />
            <path fill="none" stroke-width="3.0" stroke-linecap="butt" stroke-opacity="1.0" stroke="rgb(0, 0, 0)" stroke-linejoin="round" d=" M 62.596, 124.567 62.053, 124.559 59.785, 125.142 56.796, 128.647 56.334, 130.810 54.838, 136.576 54.180, 139.699 54.812, 144.711 56.034, 151.124 58.919, 154.238 63.672, 161.817 64.176, 161.730 " />
            <path fill="none" stroke-width="3.0" stroke-linecap="butt" stroke-opacity="1.0" stroke="rgb(0, 0, 0)" stroke-linejoin="round" d=" M 93.155, 169.655 87.149, 167.079 86.304, 166.716 86.241, 166.647 82.766, 162.816 80.975, 160.278 79.038, 157.536 75.266, 152.192 74.045, 154.832 71.686, 159.694 71.314, 160.459 69.804, 163.572 69.715, 166.708 69.581, 169.173 70.476, 172.538 71.208, 174.934 72.765, 179.237 73.742, 180.762 78.839, 182.805 81.191, 184.457 82.492, 186.864 84.301, 190.773 87.353, 193.847 87.579, 194.074 88.597, 195.058 90.752, 195.446 91.957, 195.525 95.405, 195.752 96.408, 196.593 100.342, 199.894 101.223, 201.218 " />
            <path fill="none" stroke-width="3.0" stroke-linecap="butt" stroke-opacity="1.0" stroke="rgb(0, 0, 0)" stroke-linejoin="round" d=" M 91.957, 195.525 96.264, 197.096 96.605, 197.246 96.814, 197.797 99.476, 203.976 100.550, 205.759 103.952, 208.195 112.701, 213.040 112.842, 213.118 113.413, 213.422 122.759, 215.279 123.499, 215.387 124.237, 215.284 133.586, 213.472 134.202, 213.188 142.995, 208.426 148.741, 205.146 148.922, 205.018 149.880, 204.361 152.159, 197.850 152.256, 197.572 154.048, 196.699 157.091, 195.216 " />
            <path fill="none" stroke-width="3.0" stroke-linecap="butt" stroke-opacity="1.0" stroke="rgb(0, 0, 0)" stroke-linejoin="round" d=" M 96.408, 196.593 101.223, 201.218 101.488, 201.472 " />
            <path fill="none" stroke-width="3.0" stroke-linecap="butt" stroke-opacity="1.0" stroke="rgb(0, 0, 0)" stroke-linejoin="round" d=" M 108.192, 120.487 108.142, 120.475 104.266, 121.670 101.680, 122.615 100.635, 124.287 98.276, 127.932 98.183, 128.947 97.652, 134.898 99.162, 141.420 99.272, 141.875 102.463, 145.944 103.360, 146.956 106.560, 147.752 109.552, 148.411 " />
            <path fill="none" stroke-width="3.0" stroke-linecap="butt" stroke-opacity="1.0" stroke="rgb(0, 0, 0)" stroke-linejoin="round" d=" M 102.845, 201.710 109.927, 203.098 112.542, 202.469 " />
            <path fill="none" stroke-width="3.0" stroke-linecap="butt" stroke-opacity="1.0" stroke="rgb(0, 0, 0)" stroke-linejoin="round" d=" M 133.751, 110.331 135.855, 108.269 140.112, 103.912 140.391, 103.640 140.449, 103.584 141.370, 103.495 " />
            <path fill="none" stroke-width="3.0" stroke-linecap="butt" stroke-opacity="1.0" stroke="rgb(0, 0, 0)" stroke-linejoin="round" d=" M 134.263, 202.316 136.420, 203.049 138.319, 202.702 144.154, 201.604 " />
            <path fill="none" stroke-width="3.0" stroke-linecap="butt" stroke-opacity="1.0" stroke="rgb(0, 0, 0)" stroke-linejoin="round" d=" M 137.158, 148.695 137.844, 148.859 " />
            <path fill="none" stroke-width="3.0" stroke-linecap="butt" stroke-opacity="1.0" stroke="rgb(0, 0, 0)" stroke-linejoin="round" d=" M 137.158, 148.695 137.885, 148.842 138.016, 148.868 141.323, 147.777 144.586, 146.449 145.223, 145.522 148.068, 141.104 148.137, 140.604 148.836, 134.061 147.837, 128.325 147.615, 127.197 145.051, 124.053 143.667, 122.389 141.205, 121.835 138.171, 121.217 " />
            <path fill="none" stroke-width="3.0" stroke-linecap="butt" stroke-opacity="1.0" stroke="rgb(0, 0, 0)" stroke-linejoin="round" d=" M 154.389, 195.551 154.048, 196.699 153.710, 197.835 152.159, 197.850 148.736, 197.883 " />
            <path fill="none" stroke-width="3.0" stroke-linecap="butt" stroke-opacity="1.0" stroke="rgb(0, 0, 0)" stroke-linejoin="round" d=" M 183.580, 161.949 184.581, 162.104 189.624, 154.379 192.465, 151.412 193.843, 144.790 194.431, 139.980 193.730, 136.663 192.052, 130.633 191.564, 128.612 188.621, 125.248 186.104, 124.610 185.320, 124.616 " />
        </g>
    </g>
</svg>
