<?xml version='1.0' encoding='ascii'?>
<svg xmlns="http://www.w3.org/2000/svg" version="1.1" width="250" height="250">
    <g id="ViewLayer_LineSet" xmlns:inkscape="http://www.inkscape.org/namespaces/inkscape" inkscape:groupmode="lineset" inkscape:label="ViewLayer_LineSet">
        <g xmlns:inkscape="http://www.inkscape.org/namespaces/inkscape" inkscape:groupmode="layer" id="strokes" inkscape:label="strokes">
            <path fill="none" stroke-width="3.0" stroke-linecap="butt" stroke-opacity="1.0" stroke="rgb(0, 0, 0)" stroke-linejoin="round" d=" M 124.804, 190.906 130.578, 188.314 133.903, 186.821 134.281, 186.805 135.280, 186.637 136.047, 186.875 137.171, 187.224 139.095, 188.150 140.510, 188.832 " />
            <path fill="none" stroke-width="3.0" stroke-linecap="butt" stroke-opacity="1.0" stroke="rgb(0, 0, 0)" stroke-linejoin="round" d=" M 118.787, 111.527 113.799, 110.414 111.301, 111.386 107.762, 112.946 106.907, 114.546 104.669, 118.541 104.568, 120.607 104.312, 125.703 105.495, 130.089 106.262, 132.800 108.206, 135.085 110.824, 137.932 111.012, 137.971 111.541, 138.080 112.515, 138.294 " />
            <path fill="none" stroke-width="3.0" stroke-linecap="butt" stroke-opacity="1.0" stroke="rgb(0, 0, 0)" stroke-linejoin="round" d=" M 190.091, 94.298 185.932, 85.204 183.367, 79.593 176.743, 76.696 167.762, 72.297 161.473, 69.217 160.442, 69.195 150.444, 69.002 146.111, 68.918 " />
            <path fill="none" stroke-width="3.0" stroke-linecap="butt" stroke-opacity="1.0" stroke="rgb(0, 0, 0)" stroke-linejoin="round" d=" M 185.138, 119.614 187.594, 116.549 189.362, 106.706 190.138, 102.384 190.735, 92.402 190.741, 92.300 189.953, 87.436 188.927, 77.489 188.914, 77.365 185.421, 67.995 182.764, 60.871 176.475, 53.096 175.156, 51.465 169.405, 43.284 166.740, 39.493 161.794, 35.767 153.334, 30.435 146.598, 26.189 144.032, 26.122 134.044, 25.632 124.056, 25.141 114.068, 24.651 106.742, 24.291 105.684, 24.192 96.688, 28.557 87.691, 32.923 84.704, 34.373 84.694, 34.378 78.127, 41.919 71.560, 49.461 68.944, 52.464 65.120, 56.288 60.386, 65.097 55.651, 73.905 55.107, 74.917 50.701, 83.893 49.082, 87.191 48.919, 91.736 47.442, 100.376 48.181, 110.349 48.831, 119.129 56.051, 126.047 57.080, 127.032 59.496, 130.670 56.219, 131.580 55.254, 131.935 50.697, 136.649 49.733, 139.601 47.664, 146.005 46.724, 150.111 47.174, 154.263 48.721, 162.137 50.884, 163.832 54.243, 168.519 58.865, 170.813 63.741, 171.445 64.743, 170.944 " />
            <path fill="none" stroke-width="3.0" stroke-linecap="butt" stroke-opacity="1.0" stroke="rgb(0, 0, 0)" stroke-linejoin="round" d=" M 138.957, 188.151 147.396, 191.851 148.067, 192.145 156.003, 190.896 157.282, 189.514 161.352, 185.115 " />
            <path fill="none" stroke-width="3.0" stroke-linecap="butt" stroke-opacity="1.0" stroke="rgb(0, 0, 0)" stroke-linejoin="round" d=" M 104.519, 187.235 111.057, 192.688 120.044, 193.286 " />
            <path fill="none" stroke-width="3.0" stroke-linecap="butt" stroke-opacity="1.0" stroke="rgb(0, 0, 0)" stroke-linejoin="round" d=" M 84.701, 106.383 89.772, 99.380 95.077, 94.132 104.408, 90.536 104.567, 90.475 114.237, 90.966 119.694, 95.295 124.965, 101.886 122.836, 94.179 118.147, 86.801 111.773, 83.122 " />
            <path fill="none" stroke-width="3.0" stroke-linecap="butt" stroke-opacity="1.0" stroke="rgb(0, 0, 0)" stroke-linejoin="round" d=" M 147.172, 91.272 155.538, 90.861 163.586, 94.489 168.259, 99.550 172.795, 106.275 " />
            <path fill="none" stroke-width="3.0" stroke-linecap="butt" stroke-opacity="1.0" stroke="rgb(0, 0, 0)" stroke-linejoin="round" d=" M 144.677, 85.856 139.984, 92.088 137.857, 101.859 137.820, 102.032 " />
            <path fill="none" stroke-width="3.0" stroke-linecap="butt" stroke-opacity="1.0" stroke="rgb(0, 0, 0)" stroke-linejoin="round" d=" M 143.164, 110.631 141.675, 111.207 139.965, 111.868 " />
            <path fill="none" stroke-width="3.0" stroke-linecap="butt" stroke-opacity="1.0" stroke="rgb(0, 0, 0)" stroke-linejoin="round" d=" M 119.584, 108.827 116.838, 103.770 107.189, 102.719 100.380, 108.397 96.863, 116.777 96.988, 126.776 96.995, 127.332 99.705, 134.506 104.959, 139.392 110.818, 139.821 " />
            <path fill="none" stroke-width="3.0" stroke-linecap="butt" stroke-opacity="1.0" stroke="rgb(0, 0, 0)" stroke-linejoin="round" d=" M 157.370, 133.170 159.303, 125.932 159.357, 115.932 159.360, 115.401 156.246, 106.844 150.331, 101.456 142.075, 102.531 139.922, 107.569 " />
            <path fill="none" stroke-width="3.0" stroke-linecap="butt" stroke-opacity="1.0" stroke="rgb(0, 0, 0)" stroke-linejoin="round" d=" M 179.943, 101.872 186.164, 101.561 185.248, 98.349 183.587, 97.202 190.091, 94.298 " />
            <path fill="none" stroke-width="3.0" stroke-linecap="butt" stroke-opacity="1.0" stroke="rgb(0, 0, 0)" stroke-linejoin="round" d=" M 59.570, 129.300 60.914, 134.983 59.279, 139.227 56.807, 146.185 57.071, 149.374 61.672, 157.858 61.739, 157.888 61.770, 157.962 61.768, 158.198 64.033, 167.938 64.421, 169.607 64.743, 170.944 64.884, 171.534 67.352, 178.790 72.861, 187.136 74.996, 190.371 79.704, 193.918 86.423, 199.445 95.397, 203.858 98.991, 205.625 107.556, 210.253 111.108, 211.540 120.145, 213.492 126.432, 215.944 133.631, 212.600 " />
            <path fill="none" stroke-width="3.0" stroke-linecap="butt" stroke-opacity="1.0" stroke="rgb(0, 0, 0)" stroke-linejoin="round" d=" M 152.867, 201.869 161.402, 197.423 161.148, 194.731 170.195, 190.471 175.957, 187.757 181.271, 179.286 183.562, 175.635 184.651, 171.340 186.108, 166.953 185.954, 159.328 185.925, 157.914 185.359, 152.174 187.055, 151.128 188.226, 147.629 188.356, 147.241 188.889, 142.176 186.291, 138.085 183.935, 134.377 181.307, 131.127 181.216, 130.276 181.141, 129.569 182.003, 129.746 181.816, 124.754 184.637, 120.683 " />
            <path fill="none" stroke-width="3.0" stroke-linecap="butt" stroke-opacity="1.0" stroke="rgb(0, 0, 0)" stroke-linejoin="round" d=" M 106.745, 70.050 97.402, 73.614 89.245, 76.726 86.081, 77.840 79.421, 85.300 76.100, 89.019 69.718, 96.718 68.405, 98.302 72.684, 99.502 " />
            <path fill="none" stroke-width="3.0" stroke-linecap="butt" stroke-opacity="1.0" stroke="rgb(0, 0, 0)" stroke-linejoin="round" d=" M 115.071, 172.116 122.811, 178.448 126.025, 181.078 130.079, 182.132 138.376, 182.969 139.971, 182.744 148.439, 181.554 149.602, 181.294 150.312, 181.136 155.480, 179.984 157.379, 179.560 158.823, 178.925 161.059, 177.941 168.265, 171.007 171.198, 168.186 171.291, 168.070 172.859, 158.194 173.020, 157.180 171.980, 149.448 171.805, 148.144 170.641, 144.386 167.828, 140.818 167.042, 139.007 158.082, 134.566 156.863, 133.962 156.736, 133.893 153.734, 132.273 153.224, 131.998 152.311, 131.860 142.424, 130.362 141.559, 130.231 140.147, 130.072 135.926, 129.594 135.663, 129.633 132.396, 130.115 125.316, 131.571 119.840, 132.698 114.539, 137.221 112.897, 138.369 110.818, 139.821 109.837, 140.507 107.481, 150.225 106.933, 152.485 106.392, 153.993 105.011, 157.892 104.876, 158.274 106.504, 161.077 110.711, 167.675 " />
            <path fill="none" stroke-width="3.0" stroke-linecap="butt" stroke-opacity="1.0" stroke="rgb(0, 0, 0)" stroke-linejoin="round" d=" M 105.011, 157.892 95.563, 154.616 95.327, 154.534 89.249, 149.142 82.684, 141.618 80.674, 145.676 76.624, 153.427 76.458, 156.344 76.160, 159.484 76.890, 162.287 77.901, 165.556 79.179, 168.664 81.090, 171.336 85.503, 172.735 89.107, 174.784 90.950, 178.447 92.397, 181.662 94.919, 184.120 97.045, 186.127 101.843, 186.747 104.645, 186.693 104.739, 186.755 107.802, 188.797 107.835, 190.001 " />
            <path fill="none" stroke-width="3.0" stroke-linecap="butt" stroke-opacity="1.0" stroke="rgb(0, 0, 0)" stroke-linejoin="round" d=" M 120.316, 193.150 124.068, 195.024 130.936, 194.996 140.625, 194.993 147.396, 191.851 " />
            <path fill="none" stroke-width="3.0" stroke-linecap="butt" stroke-opacity="1.0" stroke="rgb(0, 0, 0)" stroke-linejoin="round" d=" M 138.531, 210.342 138.702, 210.324 141.045, 210.078 149.229, 206.066 150.560, 204.881 152.867, 201.869 153.165, 201.480 153.245, 198.629 " />
            <path fill="none" stroke-width="3.0" stroke-linecap="butt" stroke-opacity="1.0" stroke="rgb(0, 0, 0)" stroke-linejoin="round" d=" M 141.830, 96.671 143.401, 94.999 145.480, 92.874 " />
            <path fill="none" stroke-width="3.0" stroke-linecap="butt" stroke-opacity="1.0" stroke="rgb(0, 0, 0)" stroke-linejoin="round" d=" M 153.734, 132.273 153.895, 132.020 154.183, 131.185 154.253, 131.045 154.740, 124.380 154.778, 123.995 154.695, 123.614 153.259, 117.321 152.983, 116.851 150.509, 112.282 150.342, 112.061 150.306, 112.014 146.093, 110.929 143.747, 110.452 143.208, 110.648 141.675, 111.207 " />
            <path fill="none" stroke-width="3.0" stroke-linecap="butt" stroke-opacity="1.0" stroke="rgb(0, 0, 0)" stroke-linejoin="round" d=" M 157.282, 189.514 161.305, 185.000 161.860, 184.377 165.362, 184.171 168.600, 183.475 171.137, 180.343 172.474, 178.827 173.989, 174.716 175.205, 171.993 180.519, 169.565 182.125, 168.361 182.698, 165.908 182.998, 164.624 183.768, 163.341 184.052, 162.867 184.118, 162.500 184.747, 159.004 185.165, 156.981 184.809, 153.133 184.573, 151.204 181.586, 145.521 179.034, 140.262 177.589, 141.863 175.486, 144.192 171.980, 149.448 " />
            <path fill="none" stroke-width="3.0" stroke-linecap="butt" stroke-opacity="1.0" stroke="rgb(0, 0, 0)" stroke-linejoin="round" d=" M 186.291, 138.085 186.023, 135.402 182.874, 131.588 181.216, 130.276 " />
            <path fill="none" stroke-width="3.0" stroke-linecap="butt" stroke-opacity="1.0" stroke="rgb(0, 0, 0)" stroke-linejoin="round" d=" M 185.954, 159.328 187.485, 157.666 188.034, 151.653 188.226, 147.629 " />
        </g>
    </g>
</svg>
