<?xml version='1.0' encoding='ascii'?>
<svg xmlns="http://www.w3.org/2000/svg" version="1.1" width="250" height="250">
    <g id="ViewLayer_LineSet" xmlns:inkscape="http://www.inkscape.org/namespaces/inkscape" inkscape:groupmode="lineset" inkscape:label="ViewLayer_LineSet">
        <g xmlns:inkscape="http://www.inkscape.org/namespaces/inkscape" inkscape:groupmode="layer" id="strokes" inkscape:label="strokes">
            <path fill="none" stroke-width="3.0" stroke-linecap="butt" stroke-opacity="1.0" stroke="rgb(0, 0, 0)" stroke-linejoin="round" d=" M 98.885, 92.283 100.836, 94.592 103.107, 96.928 " />
            <path fill="none" stroke-width="3.0" stroke-linecap="butt" stroke-opacity="1.0" stroke="rgb(0, 0, 0)" stroke-linejoin="round" d=" M 160.609, 98.502 160.592, 98.090 160.587, 97.984 156.981, 91.375 156.829, 91.148 156.772, 91.116 " />
            <path fill="none" stroke-width="3.0" stroke-linecap="butt" stroke-opacity="1.0" stroke="rgb(0, 0, 0)" stroke-linejoin="round" d=" M 103.762, 111.094 100.292, 110.197 98.606, 110.699 95.405, 111.938 94.673, 112.592 94.467, 112.715 92.149, 117.533 91.824, 118.168 91.203, 123.867 91.123, 124.752 91.229, 125.639 91.843, 131.348 " />
            <path fill="none" stroke-width="3.0" stroke-linecap="butt" stroke-opacity="1.0" stroke="rgb(0, 0, 0)" stroke-linejoin="round" d=" M 133.688, 138.202 134.820, 137.860 135.394, 137.666 135.551, 137.613 137.686, 134.646 139.438, 132.131 139.984, 129.115 140.594, 124.840 139.925, 119.924 139.570, 117.633 137.063, 114.060 135.916, 112.428 132.407, 111.365 129.542, 110.571 125.575, 111.927 " />
            <path fill="none" stroke-width="3.0" stroke-linecap="butt" stroke-opacity="1.0" stroke="rgb(0, 0, 0)" stroke-linejoin="round" d=" M 162.994, 84.071 156.637, 77.570 154.438, 76.820 145.041, 73.401 139.278, 71.304 " />
            <path fill="none" stroke-width="3.0" stroke-linecap="butt" stroke-opacity="1.0" stroke="rgb(0, 0, 0)" stroke-linejoin="round" d=" M 191.145, 128.556 198.494, 121.774 200.788, 119.657 201.322, 109.671 201.547, 105.475 199.632, 95.660 199.074, 92.802 198.622, 86.175 194.019, 77.298 189.462, 68.509 184.516, 59.818 182.045, 55.475 179.207, 52.706 172.548, 45.245 166.816, 38.823 162.771, 35.051 161.663, 33.994 152.721, 29.519 149.456, 27.885 140.689, 23.901 139.907, 23.992 129.930, 24.666 119.952, 25.339 109.975, 26.012 102.874, 26.492 99.949, 26.638 91.618, 32.170 85.903, 35.964 80.132, 40.526 74.524, 48.806 72.919, 51.176 66.755, 59.050 64.657, 61.731 61.438, 71.199 60.667, 73.469 60.154, 80.431 " />
            <path fill="none" stroke-width="3.0" stroke-linecap="butt" stroke-opacity="1.0" stroke="rgb(0, 0, 0)" stroke-linejoin="round" d=" M 190.853, 149.547 191.303, 147.425 189.564, 142.031 187.001, 135.683 187.096, 135.357 188.495, 130.555 187.627, 134.131 187.096, 135.357 " />
            <path fill="none" stroke-width="3.0" stroke-linecap="butt" stroke-opacity="1.0" stroke="rgb(0, 0, 0)" stroke-linejoin="round" d=" M 85.182, 133.369 76.186, 137.737 74.265, 138.670 73.886, 139.393 73.366, 139.555 74.074, 146.315 72.331, 149.345 71.786, 150.292 71.729, 150.392 70.419, 157.173 70.893, 164.030 71.058, 166.411 77.125, 174.360 80.047, 178.189 80.297, 178.565 81.376, 179.071 84.888, 179.754 92.370, 181.208 94.568, 181.521 96.261, 181.763 100.870, 182.420 103.383, 182.779 106.477, 182.478 111.384, 182.001 114.809, 181.054 123.769, 176.613 131.436, 172.812 132.012, 172.248 132.479, 171.790 132.622, 171.650 132.682, 171.591 135.190, 161.911 136.007, 158.759 136.033, 158.656 136.365, 157.294 136.241, 156.120 135.831, 155.081 133.688, 145.313 132.660, 140.623 131.812, 140.042 130.513, 139.153 128.589, 137.836 122.861, 132.737 119.954, 132.123 110.073, 130.035 109.915, 130.011 106.799, 129.531 104.716, 129.743 100.063, 130.216 93.758, 131.085 91.843, 131.348 88.564, 131.800 88.140, 131.997 85.182, 133.369 " />
            <path fill="none" stroke-width="3.0" stroke-linecap="butt" stroke-opacity="1.0" stroke="rgb(0, 0, 0)" stroke-linejoin="round" d=" M 123.319, 193.252 126.835, 193.062 132.372, 192.761 135.082, 190.571 135.640, 190.120 137.299, 188.779 139.036, 187.376 " />
            <path fill="none" stroke-width="3.0" stroke-linecap="butt" stroke-opacity="1.0" stroke="rgb(0, 0, 0)" stroke-linejoin="round" d=" M 82.958, 184.702 88.020, 190.512 95.645, 191.847 " />
            <path fill="none" stroke-width="3.0" stroke-linecap="butt" stroke-opacity="1.0" stroke="rgb(0, 0, 0)" stroke-linejoin="round" d=" M 73.244, 106.119 77.648, 99.415 82.117, 94.341 89.884, 90.728 97.726, 91.127 " />
            <path fill="none" stroke-width="3.0" stroke-linecap="butt" stroke-opacity="1.0" stroke="rgb(0, 0, 0)" stroke-linejoin="round" d=" M 106.695, 101.873 104.407, 94.239 101.207, 86.986 96.210, 83.452 " />
            <path fill="none" stroke-width="3.0" stroke-linecap="butt" stroke-opacity="1.0" stroke="rgb(0, 0, 0)" stroke-linejoin="round" d=" M 127.912, 85.675 122.155, 92.028 120.029, 101.799 119.976, 102.042 125.193, 95.457 130.746, 91.135 140.716, 90.631 150.062, 94.190 150.340, 94.296 155.666, 99.522 160.755, 106.535 160.602, 98.109 " />
            <path fill="none" stroke-width="3.0" stroke-linecap="butt" stroke-opacity="1.0" stroke="rgb(0, 0, 0)" stroke-linejoin="round" d=" M 131.812, 140.042 140.346, 139.481 145.572, 134.084 148.334, 126.705 148.390, 116.706 148.395, 115.858 144.793, 107.020 138.061, 101.481 128.309, 102.557 125.541, 107.635 125.289, 112.021 " />
            <path fill="none" stroke-width="3.0" stroke-linecap="butt" stroke-opacity="1.0" stroke="rgb(0, 0, 0)" stroke-linejoin="round" d=" M 105.153, 108.732 103.217, 103.723 95.410, 102.666 90.259, 108.173 87.186, 116.269 86.950, 126.266 86.944, 126.498 88.140, 131.997 " />
            <path fill="none" stroke-width="3.0" stroke-linecap="butt" stroke-opacity="1.0" stroke="rgb(0, 0, 0)" stroke-linejoin="round" d=" M 175.633, 97.855 168.875, 90.485 162.994, 84.071 " />
            <path fill="none" stroke-width="3.0" stroke-linecap="butt" stroke-opacity="1.0" stroke="rgb(0, 0, 0)" stroke-linejoin="round" d=" M 58.935, 93.965 59.747, 103.932 59.941, 106.311 61.922, 116.090 63.534, 118.248 68.902, 125.882 63.722, 118.947 67.165, 124.179 66.794, 128.169 68.071, 127.852 67.678, 130.451 62.261, 136.980 59.492, 141.040 59.241, 147.147 59.684, 148.821 61.077, 150.053 " />
            <path fill="none" stroke-width="3.0" stroke-linecap="butt" stroke-opacity="1.0" stroke="rgb(0, 0, 0)" stroke-linejoin="round" d=" M 93.561, 198.775 93.106, 200.656 93.782, 201.796 95.113, 204.039 96.452, 205.523 104.386, 210.076 111.970, 210.823 113.103, 212.724 " />
            <path fill="none" stroke-width="3.0" stroke-linecap="butt" stroke-opacity="1.0" stroke="rgb(0, 0, 0)" stroke-linejoin="round" d=" M 98.375, 68.994 88.378, 69.244 82.784, 69.384 81.432, 69.422 72.583, 74.079 67.634, 76.684 60.310, 80.019 60.154, 80.431 56.619, 89.786 55.595, 92.496 58.935, 93.965 64.911, 96.593 62.885, 98.190 62.127, 102.285 67.520, 102.285 " />
            <path fill="none" stroke-width="3.0" stroke-linecap="butt" stroke-opacity="1.0" stroke="rgb(0, 0, 0)" stroke-linejoin="round" d=" M 135.082, 190.571 135.394, 190.617 136.555, 190.248 137.007, 190.138 137.916, 189.919 137.888, 190.084 137.838, 190.377 137.768, 190.795 137.562, 190.765 136.894, 190.667 136.771, 190.649 136.913, 190.577 137.888, 190.084 138.136, 189.959 137.838, 190.377 " />
            <path fill="none" stroke-width="3.0" stroke-linecap="butt" stroke-opacity="1.0" stroke="rgb(0, 0, 0)" stroke-linejoin="round" d=" M 137.562, 190.765 136.575, 192.150 136.894, 190.667 " />
            <path fill="none" stroke-width="3.0" stroke-linecap="butt" stroke-opacity="1.0" stroke="rgb(0, 0, 0)" stroke-linejoin="round" d=" M 186.758, 156.138 190.853, 149.547 " />
            <path fill="none" stroke-width="3.0" stroke-linecap="butt" stroke-opacity="1.0" stroke="rgb(0, 0, 0)" stroke-linejoin="round" d=" M 61.328, 163.075 61.236, 165.350 62.923, 170.369 63.475, 174.437 68.674, 182.980 71.043, 186.872 79.906, 191.503 84.326, 193.812 86.458, 197.783 93.782, 201.796 " />
            <path fill="none" stroke-width="3.0" stroke-linecap="butt" stroke-opacity="1.0" stroke="rgb(0, 0, 0)" stroke-linejoin="round" d=" M 71.597, 148.402 71.185, 147.872 66.203, 139.785 63.549, 145.306 62.170, 147.953 61.077, 150.053 60.758, 150.665 60.372, 154.662 60.154, 156.392 60.796, 160.394 61.146, 162.233 61.328, 163.075 62.043, 166.377 62.829, 167.867 67.257, 169.874 69.290, 171.500 70.350, 173.962 71.876, 178.324 74.554, 181.609 75.734, 182.992 78.895, 183.710 82.306, 183.944 82.992, 184.613 85.582, 187.136 86.904, 189.231 " />
            <path fill="none" stroke-width="3.0" stroke-linecap="butt" stroke-opacity="1.0" stroke="rgb(0, 0, 0)" stroke-linejoin="round" d=" M 98.447, 190.620 103.557, 193.679 111.860, 194.698 120.145, 195.867 124.863, 194.094 126.835, 193.062 " />
            <path fill="none" stroke-width="3.0" stroke-linecap="butt" stroke-opacity="1.0" stroke="rgb(0, 0, 0)" stroke-linejoin="round" d=" M 102.075, 189.032 106.339, 187.213 108.079, 186.471 108.305, 186.493 109.414, 186.649 112.572, 187.813 117.452, 190.259 117.768, 190.417 " />
            <path fill="none" stroke-width="3.0" stroke-linecap="butt" stroke-opacity="1.0" stroke="rgb(0, 0, 0)" stroke-linejoin="round" d=" M 104.688, 131.076 108.408, 129.987 109.756, 130.123 109.900, 130.153 119.689, 132.196 119.974, 132.255 122.809, 132.847 125.052, 136.336 " />
            <path fill="none" stroke-width="3.0" stroke-linecap="butt" stroke-opacity="1.0" stroke="rgb(0, 0, 0)" stroke-linejoin="round" d=" M 113.103, 212.724 119.718, 215.880 125.855, 213.592 135.709, 211.885 136.270, 211.788 138.757, 210.870 147.470, 205.963 147.689, 205.840 156.737, 201.582 157.781, 201.091 165.776, 195.084 166.855, 194.273 172.529, 189.044 178.044, 180.702 178.598, 179.864 181.844, 171.894 181.967, 171.313 182.323, 169.621 184.573, 160.571 179.797, 161.285 " />
            <path fill="none" stroke-width="3.0" stroke-linecap="butt" stroke-opacity="1.0" stroke="rgb(0, 0, 0)" stroke-linejoin="round" d=" M 130.513, 139.153 135.374, 137.697 " />
            <path fill="none" stroke-width="3.0" stroke-linecap="butt" stroke-opacity="1.0" stroke="rgb(0, 0, 0)" stroke-linejoin="round" d=" M 135.640, 190.120 137.401, 188.297 138.794, 186.856 138.809, 186.840 141.591, 186.920 146.352, 186.343 148.641, 184.058 150.974, 181.916 152.353, 178.922 154.262, 175.043 159.201, 173.451 162.535, 171.637 163.734, 168.756 166.023, 166.046 166.797, 163.336 167.876, 159.954 167.742, 157.311 167.432, 153.861 163.249, 145.884 161.290, 141.960 156.531, 145.883 149.620, 153.110 148.126, 154.672 138.650, 157.867 136.007, 158.759 " />
            <path fill="none" stroke-width="3.0" stroke-linecap="butt" stroke-opacity="1.0" stroke="rgb(0, 0, 0)" stroke-linejoin="round" d=" M 181.967, 171.313 183.535, 172.012 189.611, 171.392 195.296, 168.629 198.550, 164.521 200.475, 163.094 202.424, 154.727 202.867, 151.016 201.865, 146.483 199.455, 139.568 198.454, 136.855 193.987, 132.401 192.169, 131.769 189.518, 131.071 191.145, 128.556 " />
        </g>
    </g>
</svg>
