<?xml version='1.0' encoding='ascii'?>
<svg xmlns="http://www.w3.org/2000/svg" version="1.1" width="250" height="250">
    <g id="ViewLayer_LineSet" xmlns:inkscape="http://www.inkscape.org/namespaces/inkscape" inkscape:groupmode="lineset" inkscape:label="ViewLayer_LineSet">
        <g xmlns:inkscape="http://www.inkscape.org/namespaces/inkscape" inkscape:groupmode="layer" id="strokes" inkscape:label="strokes">
            <path fill="none" stroke-width="3.0" stroke-linecap="butt" stroke-opacity="1.0" stroke="rgb(0, 0, 0)" stroke-linejoin="round" d=" M 171.446, 92.449 171.595, 91.077 172.067, 86.747 171.778, 86.270 168.971, 81.462 163.738, 77.888 162.029, 76.680 162.002, 76.663 " />
            <path fill="none" stroke-width="3.0" stroke-linecap="butt" stroke-opacity="1.0" stroke="rgb(0, 0, 0)" stroke-linejoin="round" d=" M 188.281, 82.335 186.045, 72.588 183.774, 62.683 175.085, 57.733 172.779, 56.419 171.730, 55.723 163.398, 50.193 162.177, 49.383 155.059, 49.229 145.070, 48.754 138.525, 48.443 128.526, 48.302 120.177, 48.184 114.036, 47.987 105.050, 52.375 97.090, 56.263 88.470, 60.097 83.090, 68.526 78.785, 75.272 73.670, 83.865 71.726, 87.132 74.126, 93.452 " />
            <path fill="none" stroke-width="3.0" stroke-linecap="butt" stroke-opacity="1.0" stroke="rgb(0, 0, 0)" stroke-linejoin="round" d=" M 182.890, 122.993 184.543, 121.299 185.418, 111.338 185.661, 108.573 185.190, 98.584 185.076, 96.160 184.383, 93.027 " />
            <path fill="none" stroke-width="3.0" stroke-linecap="butt" stroke-opacity="1.0" stroke="rgb(0, 0, 0)" stroke-linejoin="round" d=" M 73.226, 181.555 71.278, 183.658 67.367, 191.307 69.274, 193.933 76.058, 201.280 76.702, 201.978 82.382, 204.034 90.037, 202.957 90.583, 202.421 92.682, 201.746 " />
            <path fill="none" stroke-width="3.0" stroke-linecap="butt" stroke-opacity="1.0" stroke="rgb(0, 0, 0)" stroke-linejoin="round" d=" M 63.971, 160.734 65.445, 165.451 66.078, 169.051 68.496, 177.027 68.691, 177.670 68.516, 177.022 " />
            <path fill="none" stroke-width="3.0" stroke-linecap="butt" stroke-opacity="1.0" stroke="rgb(0, 0, 0)" stroke-linejoin="round" d=" M 111.880, 169.439 112.089, 169.577 115.761, 172.004 115.991, 172.157 119.161, 174.252 122.397, 174.169 126.335, 174.068 128.684, 174.008 137.389, 169.085 142.234, 166.345 143.768, 166.281 151.786, 170.050 157.405, 172.692 159.184, 172.564 165.235, 172.127 168.224, 168.833 169.938, 166.943 " />
            <path fill="none" stroke-width="3.0" stroke-linecap="butt" stroke-opacity="1.0" stroke="rgb(0, 0, 0)" stroke-linejoin="round" d=" M 86.931, 88.203 87.034, 95.674 91.837, 88.919 96.906, 83.720 106.016, 79.597 106.149, 79.537 115.720, 79.012 121.366, 82.253 126.881, 88.107 124.428, 80.776 " />
            <path fill="none" stroke-width="3.0" stroke-linecap="butt" stroke-opacity="1.0" stroke="rgb(0, 0, 0)" stroke-linejoin="round" d=" M 143.381, 83.027 147.129, 79.994 154.825, 80.717 162.567, 84.994 167.385, 89.960 172.275, 96.404 " />
            <path fill="none" stroke-width="3.0" stroke-linecap="butt" stroke-opacity="1.0" stroke="rgb(0, 0, 0)" stroke-linejoin="round" d=" M 144.420, 74.811 140.558, 79.666 139.165, 88.818 " />
            <path fill="none" stroke-width="3.0" stroke-linecap="butt" stroke-opacity="1.0" stroke="rgb(0, 0, 0)" stroke-linejoin="round" d=" M 121.421, 97.548 118.357, 93.345 108.669, 93.452 102.020, 99.837 98.843, 108.031 99.447, 117.986 102.252, 123.458 " />
            <path fill="none" stroke-width="3.0" stroke-linecap="butt" stroke-opacity="1.0" stroke="rgb(0, 0, 0)" stroke-linejoin="round" d=" M 158.054, 102.157 156.261, 98.051 150.261, 92.526 142.628, 92.467 " />
            <path fill="none" stroke-width="3.0" stroke-linecap="butt" stroke-opacity="1.0" stroke="rgb(0, 0, 0)" stroke-linejoin="round" d=" M 171.595, 91.077 177.083, 98.279 184.383, 93.027 185.033, 92.560 185.221, 88.750 183.930, 87.563 188.281, 82.335 " />
            <path fill="none" stroke-width="3.0" stroke-linecap="butt" stroke-opacity="1.0" stroke="rgb(0, 0, 0)" stroke-linejoin="round" d=" M 147.768, 181.290 155.713, 175.217 159.184, 172.564 " />
            <path fill="none" stroke-width="3.0" stroke-linecap="butt" stroke-opacity="1.0" stroke="rgb(0, 0, 0)" stroke-linejoin="round" d=" M 116.488, 176.152 115.864, 172.593 " />
            <path fill="none" stroke-width="3.0" stroke-linecap="butt" stroke-opacity="1.0" stroke="rgb(0, 0, 0)" stroke-linejoin="round" d=" M 122.397, 174.169 126.405, 177.127 126.335, 174.068 " />
            <path fill="none" stroke-width="3.0" stroke-linecap="butt" stroke-opacity="1.0" stroke="rgb(0, 0, 0)" stroke-linejoin="round" d=" M 59.201, 136.179 60.439, 138.094 59.932, 139.305 58.408, 142.949 57.004, 146.508 57.119, 148.606 59.670, 152.145 63.868, 152.850 66.333, 151.639 " />
            <path fill="none" stroke-width="3.0" stroke-linecap="butt" stroke-opacity="1.0" stroke="rgb(0, 0, 0)" stroke-linejoin="round" d=" M 149.000, 156.030 158.277, 152.296 162.541, 150.580 168.727, 148.091 175.737, 140.959 177.565, 139.100 177.567, 139.097 179.644, 136.035 179.839, 135.636 180.929, 133.411 180.890, 132.439 180.866, 131.835 180.781, 129.751 180.743, 128.814 180.732, 128.526 180.667, 126.919 180.666, 126.903 180.666, 126.901 180.653, 126.584 180.594, 125.119 178.409, 118.363 175.126, 112.456 171.215, 107.883 163.185, 103.027 158.054, 102.157 148.816, 100.590 147.231, 100.321 144.980, 100.191 144.677, 100.174 142.229, 100.426 141.763, 100.474 141.388, 100.513 131.440, 101.536 130.272, 101.656 127.831, 102.156 127.416, 102.324 127.110, 102.639 125.739, 104.142 118.999, 111.530 116.195, 114.603 114.512, 124.460 114.312, 125.636 " />
            <path fill="none" stroke-width="3.0" stroke-linecap="butt" stroke-opacity="1.0" stroke="rgb(0, 0, 0)" stroke-linejoin="round" d=" M 113.894, 128.086 113.443, 130.727 113.283, 131.437 113.070, 132.205 113.206, 133.211 113.235, 133.429 113.238, 133.448 113.611, 134.573 113.235, 133.429 113.186, 133.277 113.206, 133.211 114.840, 127.988 " />
            <path fill="none" stroke-width="3.0" stroke-linecap="butt" stroke-opacity="1.0" stroke="rgb(0, 0, 0)" stroke-linejoin="round" d=" M 73.448, 181.181 73.610, 183.357 74.396, 186.012 81.916, 192.603 84.090, 194.509 91.738, 200.952 92.682, 201.746 94.232, 203.052 102.384, 208.842 103.789, 209.840 106.660, 212.488 113.131, 215.415 121.711, 216.254 131.702, 215.828 134.866, 215.693 144.507, 213.039 144.863, 212.941 148.497, 210.819 156.128, 204.356 156.255, 204.249 164.378, 198.417 172.502, 192.585 172.752, 192.405 177.847, 187.703 179.730, 185.980 182.978, 179.803 187.491, 170.880 189.762, 166.389 189.883, 163.356 190.742, 156.573 189.883, 150.014 189.040, 148.073 " />
            <path fill="none" stroke-width="3.0" stroke-linecap="butt" stroke-opacity="1.0" stroke="rgb(0, 0, 0)" stroke-linejoin="round" d=" M 86.952, 88.162 86.939, 88.850 " />
            <path fill="none" stroke-width="3.0" stroke-linecap="butt" stroke-opacity="1.0" stroke="rgb(0, 0, 0)" stroke-linejoin="round" d=" M 114.202, 126.277 108.835, 126.655 106.355, 126.857 102.626, 124.150 102.569, 124.076 102.484, 123.964 102.252, 123.458 " />
            <path fill="none" stroke-width="3.0" stroke-linecap="butt" stroke-opacity="1.0" stroke="rgb(0, 0, 0)" stroke-linejoin="round" d=" M 163.350, 138.128 159.379, 139.381 149.384, 139.683 144.501, 139.830 134.503, 139.985 124.504, 140.140 123.696, 140.152 113.854, 138.383 111.131, 137.893 101.419, 135.508 101.048, 135.417 92.590, 130.083 92.178, 129.823 87.195, 125.715 84.637, 130.901 81.287, 137.187 81.152, 139.981 80.809, 143.264 81.502, 145.514 82.775, 149.095 83.744, 151.099 86.572, 154.341 89.995, 155.066 94.949, 157.124 97.548, 161.722 98.719, 164.050 100.483, 165.642 103.743, 168.477 111.722, 169.388 111.893, 169.372 111.904, 169.377 112.099, 169.472 112.089, 169.577 " />
            <path fill="none" stroke-width="3.0" stroke-linecap="butt" stroke-opacity="1.0" stroke="rgb(0, 0, 0)" stroke-linejoin="round" d=" M 124.941, 103.397 121.697, 100.305 116.291, 99.374 115.119, 99.158 114.740, 99.342 109.600, 102.053 109.402, 102.519 107.072, 107.661 107.157, 109.925 107.318, 114.522 108.390, 117.390 109.894, 121.278 110.717, 122.088 111.835, 123.176 " />
            <path fill="none" stroke-width="3.0" stroke-linecap="butt" stroke-opacity="1.0" stroke="rgb(0, 0, 0)" stroke-linejoin="round" d=" M 143.212, 83.234 143.381, 83.027 143.462, 82.927 143.663, 82.798 " />
            <path fill="none" stroke-width="3.0" stroke-linecap="butt" stroke-opacity="1.0" stroke="rgb(0, 0, 0)" stroke-linejoin="round" d=" M 148.816, 100.590 146.298, 98.937 146.127, 98.889 146.037, 98.871 141.763, 100.474 " />
            <path fill="none" stroke-width="3.0" stroke-linecap="butt" stroke-opacity="1.0" stroke="rgb(0, 0, 0)" stroke-linejoin="round" d=" M 168.224, 168.833 169.836, 166.717 170.226, 166.205 171.904, 166.216 177.080, 165.090 178.400, 163.189 178.998, 162.328 180.525, 160.304 181.503, 156.536 182.499, 153.672 186.815, 151.960 187.357, 151.589 188.694, 150.676 189.040, 148.073 189.120, 147.473 189.998, 145.739 190.205, 141.972 190.347, 140.188 189.418, 135.897 189.091, 134.561 187.046, 131.433 182.980, 124.513 180.693, 126.873 " />
            <path fill="none" stroke-width="3.0" stroke-linecap="butt" stroke-opacity="1.0" stroke="rgb(0, 0, 0)" stroke-linejoin="round" d=" M 171.730, 55.723 166.439, 49.244 163.011, 44.550 154.837, 38.790 151.622, 36.525 144.066, 31.901 134.499, 31.477 124.511, 30.975 114.524, 30.472 110.839, 30.287 102.312, 29.730 93.350, 34.166 88.611, 36.512 82.767, 39.885 76.191, 47.419 71.012, 53.353 64.370, 60.123 59.725, 68.979 55.079, 77.834 52.770, 82.236 48.512, 91.284 48.094, 92.174 47.818, 97.472 46.473, 107.381 45.496, 114.574 45.552, 124.574 45.575, 128.758 54.376, 133.506 55.925, 134.342 57.855, 137.476 55.521, 137.997 52.807, 140.496 48.664, 144.995 47.355, 149.163 45.211, 155.658 44.064, 160.364 44.499, 163.708 46.275, 172.746 47.092, 173.135 47.705, 174.166 57.304, 176.972 58.671, 177.371 67.830, 177.181 68.496, 177.027 " />
        </g>
    </g>
</svg>
