<?xml version='1.0' encoding='ascii'?>
<svg xmlns="http://www.w3.org/2000/svg" version="1.1" width="250" height="250">
    <g id="ViewLayer_LineSet" xmlns:inkscape="http://www.inkscape.org/namespaces/inkscape" inkscape:groupmode="lineset" inkscape:label="ViewLayer_LineSet">
        <g xmlns:inkscape="http://www.inkscape.org/namespaces/inkscape" inkscape:groupmode="layer" id="strokes" inkscape:label="strokes">
            <path fill="none" stroke-width="3.0" stroke-linecap="butt" stroke-opacity="1.0" stroke="rgb(0, 0, 0)" stroke-linejoin="round" d=" M 175.563, 102.275 176.472, 98.638 177.008, 96.493 176.880, 96.279 173.999, 91.423 171.835, 89.926 " />
            <path fill="none" stroke-width="3.0" stroke-linecap="butt" stroke-opacity="1.0" stroke="rgb(0, 0, 0)" stroke-linejoin="round" d=" M 148.593, 97.139 151.157, 94.570 153.230, 91.575 " />
            <path fill="none" stroke-width="3.0" stroke-linecap="butt" stroke-opacity="1.0" stroke="rgb(0, 0, 0)" stroke-linejoin="round" d=" M 195.261, 89.855 195.261, 89.854 193.126, 80.632 184.963, 76.533 183.805, 75.847 175.203, 70.748 173.347, 69.648 171.413, 69.568 161.421, 69.193 154.098, 68.919 " />
            <path fill="none" stroke-width="3.0" stroke-linecap="butt" stroke-opacity="1.0" stroke="rgb(0, 0, 0)" stroke-linejoin="round" d=" M 181.583, 115.856 181.945, 115.294 182.541, 112.801 183.688, 102.867 184.625, 94.754 184.619, 94.641 " />
            <path fill="none" stroke-width="3.0" stroke-linecap="butt" stroke-opacity="1.0" stroke="rgb(0, 0, 0)" stroke-linejoin="round" d=" M 115.806, 187.599 115.987, 187.736 118.051, 189.304 118.639, 189.750 122.661, 192.805 129.875, 192.979 131.741, 193.024 " />
            <path fill="none" stroke-width="3.0" stroke-linecap="butt" stroke-opacity="1.0" stroke="rgb(0, 0, 0)" stroke-linejoin="round" d=" M 150.303, 187.371 156.634, 190.101 158.211, 190.781 165.181, 189.260 " />
            <path fill="none" stroke-width="3.0" stroke-linecap="butt" stroke-opacity="1.0" stroke="rgb(0, 0, 0)" stroke-linejoin="round" d=" M 92.015, 97.812 92.050, 106.351 97.174, 99.239 102.600, 93.932 111.969, 90.435 112.411, 90.270 122.424, 90.793 128.155, 95.135 133.391, 101.717 131.449, 94.024 126.316, 86.642 119.637, 82.922 " />
            <path fill="none" stroke-width="3.0" stroke-linecap="butt" stroke-opacity="1.0" stroke="rgb(0, 0, 0)" stroke-linejoin="round" d=" M 153.534, 91.237 160.758, 90.875 167.724, 94.477 171.897, 99.448 175.989, 106.026 " />
            <path fill="none" stroke-width="3.0" stroke-linecap="butt" stroke-opacity="1.0" stroke="rgb(0, 0, 0)" stroke-linejoin="round" d=" M 151.317, 85.869 147.364, 92.007 145.335, 101.861 " />
            <path fill="none" stroke-width="3.0" stroke-linecap="butt" stroke-opacity="1.0" stroke="rgb(0, 0, 0)" stroke-linejoin="round" d=" M 118.240, 138.029 123.681, 138.977 " />
            <path fill="none" stroke-width="3.0" stroke-linecap="butt" stroke-opacity="1.0" stroke="rgb(0, 0, 0)" stroke-linejoin="round" d=" M 148.679, 110.405 147.733, 110.822 " />
            <path fill="none" stroke-width="3.0" stroke-linecap="butt" stroke-opacity="1.0" stroke="rgb(0, 0, 0)" stroke-linejoin="round" d=" M 126.507, 108.697 123.520, 103.650 113.492, 102.620 106.232, 108.368 102.683, 116.853 102.981, 126.848 103.000, 127.516 106.157, 134.714 111.508, 139.551 121.495, 140.049 122.849, 140.117 123.681, 138.977 " />
            <path fill="none" stroke-width="3.0" stroke-linecap="butt" stroke-opacity="1.0" stroke="rgb(0, 0, 0)" stroke-linejoin="round" d=" M 161.698, 130.286 162.704, 125.410 162.743, 115.410 162.744, 115.051 159.979, 106.640 154.702, 101.333 147.522, 102.389 " />
            <path fill="none" stroke-width="3.0" stroke-linecap="butt" stroke-opacity="1.0" stroke="rgb(0, 0, 0)" stroke-linejoin="round" d=" M 176.472, 98.638 179.059, 103.167 183.242, 103.273 183.932, 97.775 181.919, 95.855 184.619, 94.641 193.740, 90.540 195.260, 89.857 195.261, 89.856 " />
            <path fill="none" stroke-width="3.0" stroke-linecap="butt" stroke-opacity="1.0" stroke="rgb(0, 0, 0)" stroke-linejoin="round" d=" M 70.494, 183.317 67.453, 173.791 66.961, 172.250 66.643, 171.254 66.593, 171.098 66.607, 171.018 66.743, 170.241 " />
            <path fill="none" stroke-width="3.0" stroke-linecap="butt" stroke-opacity="1.0" stroke="rgb(0, 0, 0)" stroke-linejoin="round" d=" M 66.721, 162.753 65.145, 165.025 66.259, 168.732 66.537, 170.561 66.607, 171.018 66.643, 171.254 66.763, 172.042 66.846, 172.296 69.943, 181.805 70.601, 183.824 71.807, 185.493 74.596, 187.779 82.330, 194.118 82.596, 194.336 90.336, 200.668 95.304, 204.733 100.378, 207.123 109.371, 211.496 110.616, 212.102 111.568, 212.378 121.486, 213.656 123.621, 213.930 129.678, 215.788 135.797, 212.996 " />
            <path fill="none" stroke-width="3.0" stroke-linecap="butt" stroke-opacity="1.0" stroke="rgb(0, 0, 0)" stroke-linejoin="round" d=" M 186.030, 142.521 186.160, 139.943 184.965, 138.363 178.484, 130.747 177.213, 129.252 176.186, 124.862 177.845, 125.481 177.392, 123.166 181.602, 116.024 180.257, 117.765 181.583, 115.856 " />
            <path fill="none" stroke-width="3.0" stroke-linecap="butt" stroke-opacity="1.0" stroke="rgb(0, 0, 0)" stroke-linejoin="round" d=" M 100.307, 76.737 107.383, 74.290 100.382, 76.712 100.307, 76.737 99.699, 76.932 97.866, 78.575 90.580, 85.424 83.294, 92.274 78.123, 97.135 79.193, 98.106 " />
            <path fill="none" stroke-width="3.0" stroke-linecap="butt" stroke-opacity="1.0" stroke="rgb(0, 0, 0)" stroke-linejoin="round" d=" M 118.472, 192.298 118.051, 189.304 " />
            <path fill="none" stroke-width="3.0" stroke-linecap="butt" stroke-opacity="1.0" stroke="rgb(0, 0, 0)" stroke-linejoin="round" d=" M 59.715, 137.847 58.839, 136.034 58.370, 133.342 59.854, 137.205 59.715, 137.847 58.155, 145.007 57.466, 148.729 57.697, 150.441 60.571, 154.833 63.631, 152.811 65.682, 150.197 " />
            <path fill="none" stroke-width="3.0" stroke-linecap="butt" stroke-opacity="1.0" stroke="rgb(0, 0, 0)" stroke-linejoin="round" d=" M 134.702, 174.792 142.994, 180.382 143.148, 180.486 145.147, 181.019 145.372, 181.079 146.174, 181.293 147.389, 181.389 153.886, 181.901 158.173, 181.223 165.805, 180.015 168.247, 179.530 173.185, 178.551 176.666, 176.766 177.582, 175.237 183.172, 166.945 185.313, 163.769 186.442, 155.786 186.183, 154.110 185.440, 149.299 185.094, 148.251 182.816, 141.345 182.622, 140.758 181.216, 138.035 179.199, 136.220 176.917, 134.167 173.516, 132.925 170.871, 131.960 168.500, 131.016 161.698, 130.286 158.984, 129.995 157.592, 129.845 157.363, 129.826 148.743, 129.094 146.884, 129.387 146.679, 129.419 145.717, 129.570 142.686, 130.217 132.906, 132.305 132.043, 132.490 131.612, 132.582 131.612, 132.582 124.977, 138.815 124.529, 139.236 123.634, 139.843 122.423, 140.665 122.214, 141.885 120.657, 150.979 121.598, 142.319 122.214, 141.885 124.067, 140.579 123.634, 139.843 123.505, 139.625 124.156, 139.060 131.611, 132.582 131.612, 132.582 131.612, 132.582 132.041, 132.495 141.839, 130.498 142.705, 130.322 146.463, 129.556 146.710, 130.163 " />
            <path fill="none" stroke-width="3.0" stroke-linecap="butt" stroke-opacity="1.0" stroke="rgb(0, 0, 0)" stroke-linejoin="round" d=" M 183.805, 75.847 183.446, 65.964 182.749, 63.495 176.922, 55.368 173.568, 50.692 168.597, 42.592 161.266, 36.408 153.126, 30.599 148.913, 27.591 145.297, 27.246 135.350, 26.210 125.404, 25.175 115.458, 24.140 109.034, 23.471 108.611, 23.404 106.065, 24.441 97.078, 28.828 88.005, 33.256 84.967, 36.003 77.522, 42.679 71.746, 47.859 66.826, 53.012 65.838, 53.907 63.373, 57.863 58.457, 66.571 53.541, 75.279 48.625, 83.987 48.384, 84.414 47.172, 94.340 47.137, 94.634 44.840, 104.366 42.543, 114.099 42.464, 114.435 42.601, 120.827 50.149, 127.386 55.038, 131.635 55.274, 132.017 54.739, 132.151 50.450, 133.515 46.229, 137.578 45.146, 140.068 42.388, 147.693 41.395, 152.817 41.865, 155.994 44.251, 165.085 45.820, 166.160 48.712, 169.324 56.414, 172.811 64.237, 173.340 64.923, 173.065 66.846, 172.296 " />
            <path fill="none" stroke-width="3.0" stroke-linecap="butt" stroke-opacity="1.0" stroke="rgb(0, 0, 0)" stroke-linejoin="round" d=" M 64.923, 173.065 62.139, 177.385 63.582, 178.725 71.148, 185.264 73.597, 187.381 74.596, 187.779 " />
            <path fill="none" stroke-width="3.0" stroke-linecap="butt" stroke-opacity="1.0" stroke="rgb(0, 0, 0)" stroke-linejoin="round" d=" M 128.080, 161.567 121.327, 159.489 111.791, 156.476 106.792, 154.897 99.803, 149.364 92.820, 142.206 92.670, 142.053 90.890, 145.626 86.454, 154.252 86.373, 156.617 86.071, 160.429 86.722, 162.610 88.141, 166.557 89.417, 169.129 91.976, 172.325 96.121, 173.472 100.306, 175.622 102.411, 179.813 103.666, 182.469 105.944, 184.516 108.540, 186.780 113.781, 187.264 116.021, 187.131 116.104, 187.127 116.150, 187.124 117.888, 188.149 118.993, 188.801 118.639, 189.750 " />
            <path fill="none" stroke-width="3.0" stroke-linecap="butt" stroke-opacity="1.0" stroke="rgb(0, 0, 0)" stroke-linejoin="round" d=" M 126.918, 111.673 126.918, 111.673 126.917, 111.673 120.539, 110.335 117.651, 111.582 114.657, 112.996 113.339, 115.641 111.759, 118.682 111.682, 122.414 111.595, 125.887 112.477, 128.891 113.714, 132.985 114.993, 134.449 118.228, 138.015 " />
            <path fill="none" stroke-width="3.0" stroke-linecap="butt" stroke-opacity="1.0" stroke="rgb(0, 0, 0)" stroke-linejoin="round" d=" M 129.875, 192.979 130.874, 193.692 133.409, 194.862 139.355, 194.478 149.334, 193.824 149.498, 193.813 156.634, 190.101 " />
            <path fill="none" stroke-width="3.0" stroke-linecap="butt" stroke-opacity="1.0" stroke="rgb(0, 0, 0)" stroke-linejoin="round" d=" M 135.797, 212.996 137.511, 210.813 147.170, 209.988 150.477, 208.368 156.097, 204.057 161.725, 199.484 162.025, 199.219 163.497, 197.848 160.862, 193.954 169.477, 188.878 178.093, 183.802 182.117, 181.431 182.511, 181.022 184.340, 171.438 185.190, 168.435 " />
            <path fill="none" stroke-width="3.0" stroke-linecap="butt" stroke-opacity="1.0" stroke="rgb(0, 0, 0)" stroke-linejoin="round" d=" M 135.392, 190.992 143.787, 186.954 145.534, 186.113 145.610, 186.077 146.006, 186.032 146.538, 185.748 146.545, 185.751 " />
            <path fill="none" stroke-width="3.0" stroke-linecap="butt" stroke-opacity="1.0" stroke="rgb(0, 0, 0)" stroke-linejoin="round" d=" M 146.173, 111.509 146.049, 108.386 145.962, 106.812 145.947, 106.557 146.327, 105.776 " />
            <path fill="none" stroke-width="3.0" stroke-linecap="butt" stroke-opacity="1.0" stroke="rgb(0, 0, 0)" stroke-linejoin="round" d=" M 158.984, 129.995 159.209, 124.843 159.297, 123.502 159.003, 122.184 157.890, 117.240 157.370, 116.285 155.356, 112.213 155.003, 112.031 154.101, 111.202 151.414, 110.568 149.305, 110.229 148.755, 110.437 147.733, 110.822 " />
            <path fill="none" stroke-width="3.0" stroke-linecap="butt" stroke-opacity="1.0" stroke="rgb(0, 0, 0)" stroke-linejoin="round" d=" M 165.532, 188.798 170.610, 182.515 174.253, 182.138 176.595, 181.503 179.179, 177.890 180.023, 176.813 181.428, 172.197 182.259, 170.054 185.190, 168.435 187.481, 167.171 188.324, 166.400 188.925, 162.212 189.507, 161.019 190.052, 156.621 190.260, 155.266 189.786, 150.896 189.615, 149.653 187.401, 145.398 186.030, 142.521 184.434, 139.174 182.816, 141.345 " />
        </g>
    </g>
</svg>
