<?xml version='1.0' encoding='ascii'?>
<svg xmlns="http://www.w3.org/2000/svg" version="1.1" width="250" height="250">
    <g id="ViewLayer_LineSet" xmlns:inkscape="http://www.inkscape.org/namespaces/inkscape" inkscape:groupmode="lineset" inkscape:label="ViewLayer_LineSet">
        <g xmlns:inkscape="http://www.inkscape.org/namespaces/inkscape" inkscape:groupmode="layer" id="strokes" inkscape:label="strokes">
            <path fill="none" stroke-width="3.0" stroke-linecap="butt" stroke-opacity="1.0" stroke="rgb(0, 0, 0)" stroke-linejoin="round" d=" M 180.211, 169.231 182.933, 164.699 185.181, 164.600 188.485, 163.621 190.413, 159.989 191.117, 158.781 191.640, 154.274 192.003, 152.378 192.410, 152.147 196.174, 150.018 196.837, 149.347 196.678, 145.376 196.926, 144.552 196.623, 139.932 196.603, 139.203 196.448, 138.633 " />
            <path fill="none" stroke-width="3.0" stroke-linecap="butt" stroke-opacity="1.0" stroke="rgb(0, 0, 0)" stroke-linejoin="round" d=" M 133.776, 81.477 133.746, 81.401 " />
            <path fill="none" stroke-width="3.0" stroke-linecap="butt" stroke-opacity="1.0" stroke="rgb(0, 0, 0)" stroke-linejoin="round" d=" M 149.810, 84.885 151.437, 82.905 151.838, 82.159 " />
            <path fill="none" stroke-width="3.0" stroke-linecap="butt" stroke-opacity="1.0" stroke="rgb(0, 0, 0)" stroke-linejoin="round" d=" M 192.665, 72.426 192.450, 65.094 184.135, 59.539 181.185, 57.568 173.873, 51.450 166.854, 51.107 164.644, 50.928 154.677, 50.120 152.594, 49.952 142.605, 49.503 134.845, 49.155 129.868, 48.854 120.728, 52.911 111.588, 56.968 110.055, 57.649 104.115, 60.090 97.708, 67.768 97.129, 68.463 90.901, 76.287 84.673, 84.111 82.452, 86.901 82.000, 91.159 " />
            <path fill="none" stroke-width="3.0" stroke-linecap="butt" stroke-opacity="1.0" stroke="rgb(0, 0, 0)" stroke-linejoin="round" d=" M 162.761, 47.033 162.700, 46.891 162.672, 46.879 162.637, 46.816 162.505, 46.675 154.600, 40.551 149.009, 36.220 143.886, 32.784 133.940, 31.746 133.722, 31.724 123.776, 30.683 113.831, 29.642 110.610, 29.305 102.751, 28.339 93.559, 32.276 84.196, 36.287 82.490, 37.147 75.693, 44.482 68.896, 51.816 65.594, 55.380 62.869, 57.952 58.470, 65.422 53.882, 74.307 49.294, 83.192 46.041, 89.490 44.935, 99.429 44.588, 102.547 42.742, 112.376 40.897, 122.204 39.566, 129.293 40.744, 132.943 44.456, 142.228 44.825, 143.150 45.147, 137.589 51.192, 140.194 " />
            <path fill="none" stroke-width="3.0" stroke-linecap="butt" stroke-opacity="1.0" stroke="rgb(0, 0, 0)" stroke-linejoin="round" d=" M 94.908, 203.882 94.909, 203.882 95.223, 204.205 95.297, 204.216 95.418, 204.040 94.909, 203.881 94.908, 203.881 " />
            <path fill="none" stroke-width="3.0" stroke-linecap="butt" stroke-opacity="1.0" stroke="rgb(0, 0, 0)" stroke-linejoin="round" d=" M 130.595, 170.588 132.680, 171.806 138.339, 175.113 138.791, 175.083 140.025, 174.999 147.599, 174.487 " />
            <path fill="none" stroke-width="3.0" stroke-linecap="butt" stroke-opacity="1.0" stroke="rgb(0, 0, 0)" stroke-linejoin="round" d=" M 160.892, 166.274 167.864, 169.580 170.306, 170.738 172.949, 171.991 179.121, 171.099 " />
            <path fill="none" stroke-width="3.0" stroke-linecap="butt" stroke-opacity="1.0" stroke="rgb(0, 0, 0)" stroke-linejoin="round" d=" M 95.436, 88.383 96.392, 96.070 100.731, 89.184 105.530, 83.930 114.752, 79.820 124.553, 79.462 130.638, 82.833 136.326, 88.768 133.752, 81.407 " />
            <path fill="none" stroke-width="3.0" stroke-linecap="butt" stroke-opacity="1.0" stroke="rgb(0, 0, 0)" stroke-linejoin="round" d=" M 153.026, 80.773 159.152, 81.511 165.584, 85.743 167.299, 87.681 169.911, 90.631 174.436, 96.938 " />
            <path fill="none" stroke-width="3.0" stroke-linecap="butt" stroke-opacity="1.0" stroke="rgb(0, 0, 0)" stroke-linejoin="round" d=" M 150.454, 75.609 147.881, 80.434 147.185, 89.525 " />
            <path fill="none" stroke-width="3.0" stroke-linecap="butt" stroke-opacity="1.0" stroke="rgb(0, 0, 0)" stroke-linejoin="round" d=" M 120.033, 122.254 124.779, 126.531 " />
            <path fill="none" stroke-width="3.0" stroke-linecap="butt" stroke-opacity="1.0" stroke="rgb(0, 0, 0)" stroke-linejoin="round" d=" M 129.509, 98.057 125.946, 93.794 115.960, 93.806 109.215, 100.216 106.569, 108.486 " />
            <path fill="none" stroke-width="3.0" stroke-linecap="butt" stroke-opacity="1.0" stroke="rgb(0, 0, 0)" stroke-linejoin="round" d=" M 160.922, 101.865 159.467, 98.473 154.137, 93.031 148.049, 92.998 " />
            <path fill="none" stroke-width="3.0" stroke-linecap="butt" stroke-opacity="1.0" stroke="rgb(0, 0, 0)" stroke-linejoin="round" d=" M 171.288, 139.740 162.398, 140.336 152.405, 140.702 142.412, 141.068 141.898, 141.087 132.017, 139.550 128.558, 139.012 118.809, 136.782 118.451, 136.700 109.669, 131.916 108.355, 131.200 102.354, 126.960 100.385, 131.412 96.860, 139.065 96.941, 141.058 96.802, 145.306 97.359, 146.647 99.534, 151.174 100.398, 152.491 104.458, 156.322 107.424, 156.845 113.202, 159.015 116.462, 164.448 117.324, 165.950 118.645, 166.977 122.771, 170.057 129.567, 170.561 130.018, 170.594 129.627, 170.372 129.355, 170.218 129.352, 169.848 " />
            <path fill="none" stroke-width="3.0" stroke-linecap="butt" stroke-opacity="1.0" stroke="rgb(0, 0, 0)" stroke-linejoin="round" d=" M 173.585, 101.017 176.455, 99.612 177.666, 99.019 180.840, 89.753 178.708, 86.956 185.636, 79.744 192.665, 72.426 " />
            <path fill="none" stroke-width="3.0" stroke-linecap="butt" stroke-opacity="1.0" stroke="rgb(0, 0, 0)" stroke-linejoin="round" d=" M 53.965, 140.143 53.217, 140.119 52.330, 140.019 51.222, 140.166 51.192, 140.194 50.544, 140.791 44.977, 146.513 43.663, 149.911 40.826, 158.204 39.810, 164.564 40.243, 166.304 42.666, 173.613 44.528, 176.089 45.109, 176.577 46.515, 177.062 56.224, 179.457 58.974, 180.135 67.230, 179.535 69.847, 178.499 71.714, 180.529 73.507, 182.479 75.515, 184.662 74.477, 185.049 72.499, 184.817 73.507, 182.479 " />
            <path fill="none" stroke-width="3.0" stroke-linecap="butt" stroke-opacity="1.0" stroke="rgb(0, 0, 0)" stroke-linejoin="round" d=" M 86.347, 192.518 87.865, 196.733 88.115, 196.956 88.263, 197.084 88.521, 197.288 94.206, 201.163 102.468, 206.795 108.135, 210.658 112.968, 214.501 116.892, 215.944 126.753, 216.157 136.727, 215.433 139.428, 215.237 145.945, 212.989 151.970, 208.820 154.869, 206.591 162.196, 199.648 170.038, 193.444 172.998, 191.103 173.151, 187.042 180.670, 180.450 188.189, 173.857 190.596, 171.746 191.154, 170.719 191.332, 161.409 192.410, 152.147 " />
            <path fill="none" stroke-width="3.0" stroke-linecap="butt" stroke-opacity="1.0" stroke="rgb(0, 0, 0)" stroke-linejoin="round" d=" M 160.475, 179.743 157.992, 179.640 157.640, 181.125 161.970, 180.427 164.651, 178.593 164.935, 177.939 170.306, 170.738 " />
            <path fill="none" stroke-width="3.0" stroke-linecap="butt" stroke-opacity="1.0" stroke="rgb(0, 0, 0)" stroke-linejoin="round" d=" M 131.940, 182.513 131.442, 172.919 132.680, 171.806 " />
            <path fill="none" stroke-width="3.0" stroke-linecap="butt" stroke-opacity="1.0" stroke="rgb(0, 0, 0)" stroke-linejoin="round" d=" M 138.791, 175.083 142.789, 178.091 140.025, 174.999 " />
            <path fill="none" stroke-width="3.0" stroke-linecap="butt" stroke-opacity="1.0" stroke="rgb(0, 0, 0)" stroke-linejoin="round" d=" M 60.668, 143.174 60.142, 142.410 60.036, 141.509 60.727, 142.171 60.668, 143.174 60.391, 147.861 62.723, 146.161 " />
            <path fill="none" stroke-width="3.0" stroke-linecap="butt" stroke-opacity="1.0" stroke="rgb(0, 0, 0)" stroke-linejoin="round" d=" M 170.453, 154.100 164.873, 157.508 171.333, 154.989 176.571, 152.947 177.797, 152.469 " />
            <path fill="none" stroke-width="3.0" stroke-linecap="butt" stroke-opacity="1.0" stroke="rgb(0, 0, 0)" stroke-linejoin="round" d=" M 138.089, 115.199 132.660, 120.524 132.063, 123.840 132.048, 123.923 131.839, 125.080 131.696, 124.535 131.415, 123.473 132.063, 123.840 132.088, 123.854 133.775, 124.810 134.291, 125.102 134.427, 125.179 " />
            <path fill="none" stroke-width="3.0" stroke-linecap="butt" stroke-opacity="1.0" stroke="rgb(0, 0, 0)" stroke-linejoin="round" d=" M 150.196, 105.212 149.189, 100.691 149.174, 100.620 148.684, 98.423 147.644, 94.996 147.593, 94.827 147.531, 95.555 " />
            <path fill="none" stroke-width="3.0" stroke-linecap="butt" stroke-opacity="1.0" stroke="rgb(0, 0, 0)" stroke-linejoin="round" d=" M 71.714, 180.529 70.586, 181.381 66.117, 185.111 62.553, 192.367 61.378, 194.465 61.729, 196.082 65.954, 201.180 70.192, 204.471 77.541, 206.109 84.783, 204.406 85.625, 203.652 94.206, 201.163 " />
            <path fill="none" stroke-width="3.0" stroke-linecap="butt" stroke-opacity="1.0" stroke="rgb(0, 0, 0)" stroke-linejoin="round" d=" M 131.009, 125.728 129.025, 126.863 127.897, 127.509 120.259, 127.316 116.602, 127.248 112.879, 124.648 111.133, 123.024 108.012, 118.479 106.623, 108.913 106.569, 108.486 106.567, 108.472 107.021, 107.074 " />
            <path fill="none" stroke-width="3.0" stroke-linecap="butt" stroke-opacity="1.0" stroke="rgb(0, 0, 0)" stroke-linejoin="round" d=" M 133.338, 121.680 132.988, 121.269 134.258, 120.081 138.221, 116.375 " />
            <path fill="none" stroke-width="3.0" stroke-linecap="butt" stroke-opacity="1.0" stroke="rgb(0, 0, 0)" stroke-linejoin="round" d=" M 134.743, 105.344 134.643, 105.137 133.422, 104.033 129.748, 100.645 125.191, 100.038 123.493, 99.784 122.423, 100.398 118.287, 102.890 117.421, 105.416 116.252, 108.657 116.845, 113.705 117.052, 115.565 117.587, 116.767 119.464, 120.951 " />
            <path fill="none" stroke-width="3.0" stroke-linecap="butt" stroke-opacity="1.0" stroke="rgb(0, 0, 0)" stroke-linejoin="round" d=" M 191.515, 146.691 194.645, 144.097 196.448, 138.633 198.764, 131.617 198.562, 124.462 197.268, 120.606 195.044, 116.764 188.848, 108.916 188.625, 108.634 182.781, 104.927 176.434, 103.612 166.902, 101.637 164.989, 101.404 161.829, 101.595 160.922, 101.865 156.784, 103.099 155.072, 103.609 151.045, 104.809 150.196, 105.212 148.901, 105.827 145.671, 107.362 145.372, 107.670 " />
            <path fill="none" stroke-width="3.0" stroke-linecap="butt" stroke-opacity="1.0" stroke="rgb(0, 0, 0)" stroke-linejoin="round" d=" M 156.784, 103.099 156.607, 102.825 155.503, 102.180 152.163, 99.473 151.986, 99.401 151.826, 99.479 149.174, 100.620 " />
            <path fill="none" stroke-width="3.0" stroke-linecap="butt" stroke-opacity="1.0" stroke="rgb(0, 0, 0)" stroke-linejoin="round" d=" M 158.790, 201.191 159.154, 201.062 162.746, 198.610 168.503, 193.989 171.249, 190.498 " />
            <path fill="none" stroke-width="3.0" stroke-linecap="butt" stroke-opacity="1.0" stroke="rgb(0, 0, 0)" stroke-linejoin="round" d=" M 159.278, 166.570 159.555, 166.393 159.574, 166.381 159.585, 166.381 " />
            <path fill="none" stroke-width="3.0" stroke-linecap="butt" stroke-opacity="1.0" stroke="rgb(0, 0, 0)" stroke-linejoin="round" d=" M 164.644, 50.928 162.761, 47.033 " />
            <path fill="none" stroke-width="3.0" stroke-linecap="butt" stroke-opacity="1.0" stroke="rgb(0, 0, 0)" stroke-linejoin="round" d=" M 176.434, 103.612 176.455, 99.612 " />
        </g>
    </g>
</svg>
