<?xml version='1.0' encoding='ascii'?>
<svg xmlns="http://www.w3.org/2000/svg" version="1.1" width="250" height="250">
    <g id="ViewLayer_LineSet" xmlns:inkscape="http://www.inkscape.org/namespaces/inkscape" inkscape:groupmode="lineset" inkscape:label="ViewLayer_LineSet">
        <g xmlns:inkscape="http://www.inkscape.org/namespaces/inkscape" inkscape:groupmode="layer" id="strokes" inkscape:label="strokes">
            <path fill="none" stroke-width="3.0" stroke-linecap="butt" stroke-opacity="1.0" stroke="rgb(0, 0, 0)" stroke-linejoin="round" d=" M 96.599, 126.534 94.279, 127.122 91.732, 127.957 91.211, 128.751 90.125, 130.387 89.626, 132.735 89.441, 133.295 89.812, 138.085 89.898, 139.487 90.325, 141.077 91.584, 145.550 92.301, 146.589 94.508, 150.291 94.555, 150.368 95.103, 150.672 96.602, 151.942 98.705, 152.497 99.117, 152.575 100.637, 152.862 100.689, 152.848 " />
            <path fill="none" stroke-width="3.0" stroke-linecap="butt" stroke-opacity="1.0" stroke="rgb(0, 0, 0)" stroke-linejoin="round" d=" M 191.297, 122.548 196.438, 117.563 202.834, 109.876 203.098, 109.559 203.980, 101.822 200.272, 92.534 198.852, 88.977 196.681, 79.216 196.215, 77.119 190.387, 68.994 188.070, 65.764 180.580, 59.139 178.876, 57.631 174.882, 51.571 166.732, 45.776 163.521, 43.493 155.235, 37.894 149.010, 33.688 140.625, 30.714 130.626, 30.853 127.206, 30.901 117.216, 31.343 107.226, 31.786 103.707, 31.942 95.061, 32.445 86.606, 33.013 77.984, 38.078 70.838, 42.276 70.629, 42.515 70.339, 42.828 65.678, 51.675 61.975, 58.706 56.558, 67.187 54.415, 76.827 56.547, 86.597 57.007, 88.706 58.326, 96.427 61.745, 105.824 62.046, 106.652 63.105, 108.645 " />
            <path fill="none" stroke-width="3.0" stroke-linecap="butt" stroke-opacity="1.0" stroke="rgb(0, 0, 0)" stroke-linejoin="round" d=" M 191.045, 148.818 191.677, 146.775 190.595, 141.570 187.982, 132.396 188.877, 128.377 189.653, 124.892 189.056, 127.938 188.877, 128.377 " />
            <path fill="none" stroke-width="3.0" stroke-linecap="butt" stroke-opacity="1.0" stroke="rgb(0, 0, 0)" stroke-linejoin="round" d=" M 127.716, 118.467 132.554, 117.516 134.417, 118.423 140.312, 121.968 140.779, 122.781 144.054, 128.471 " />
            <path fill="none" stroke-width="3.0" stroke-linecap="butt" stroke-opacity="1.0" stroke="rgb(0, 0, 0)" stroke-linejoin="round" d=" M 133.291, 205.697 133.427, 205.582 138.757, 201.049 " />
            <path fill="none" stroke-width="3.0" stroke-linecap="butt" stroke-opacity="1.0" stroke="rgb(0, 0, 0)" stroke-linejoin="round" d=" M 69.919, 122.150 70.173, 121.683 73.069, 116.355 76.541, 112.203 " />
            <path fill="none" stroke-width="3.0" stroke-linecap="butt" stroke-opacity="1.0" stroke="rgb(0, 0, 0)" stroke-linejoin="round" d=" M 100.745, 123.738 97.476, 116.941 " />
            <path fill="none" stroke-width="3.0" stroke-linecap="butt" stroke-opacity="1.0" stroke="rgb(0, 0, 0)" stroke-linejoin="round" d=" M 150.067, 116.984 155.759, 123.316 155.133, 114.819 " />
            <path fill="none" stroke-width="3.0" stroke-linecap="butt" stroke-opacity="1.0" stroke="rgb(0, 0, 0)" stroke-linejoin="round" d=" M 114.888, 114.244 113.881, 123.467 " />
            <path fill="none" stroke-width="3.0" stroke-linecap="butt" stroke-opacity="1.0" stroke="rgb(0, 0, 0)" stroke-linejoin="round" d=" M 130.789, 128.609 124.659, 127.377 120.875, 129.006 " />
            <path fill="none" stroke-width="3.0" stroke-linecap="butt" stroke-opacity="1.0" stroke="rgb(0, 0, 0)" stroke-linejoin="round" d=" M 123.043, 119.571 120.724, 124.838 120.875, 129.006 " />
            <path fill="none" stroke-width="3.0" stroke-linecap="butt" stroke-opacity="1.0" stroke="rgb(0, 0, 0)" stroke-linejoin="round" d=" M 100.480, 153.250 100.689, 152.848 " />
            <path fill="none" stroke-width="3.0" stroke-linecap="butt" stroke-opacity="1.0" stroke="rgb(0, 0, 0)" stroke-linejoin="round" d=" M 91.070, 117.817 87.097, 121.362 85.321, 128.375 86.443, 137.803 88.646, 144.997 93.444, 149.763 " />
            <path fill="none" stroke-width="3.0" stroke-linecap="butt" stroke-opacity="1.0" stroke="rgb(0, 0, 0)" stroke-linejoin="round" d=" M 129.553, 153.639 138.594, 151.304 143.235, 146.457 145.487, 139.245 144.657, 129.531 " />
            <path fill="none" stroke-width="3.0" stroke-linecap="butt" stroke-opacity="1.0" stroke="rgb(0, 0, 0)" stroke-linejoin="round" d=" M 183.974, 160.151 190.979, 160.508 193.187, 160.257 199.852, 152.802 200.978, 151.542 203.549, 149.150 205.862, 140.999 206.270, 137.626 205.404, 132.775 201.825, 123.924 201.469, 123.414 200.574, 122.499 196.431, 122.090 192.632, 122.227 192.028, 122.542 191.297, 122.548 " />
            <path fill="none" stroke-width="3.0" stroke-linecap="butt" stroke-opacity="1.0" stroke="rgb(0, 0, 0)" stroke-linejoin="round" d=" M 146.671, 199.415 146.867, 201.182 139.240, 201.673 139.639, 201.047 " />
            <path fill="none" stroke-width="3.0" stroke-linecap="butt" stroke-opacity="1.0" stroke="rgb(0, 0, 0)" stroke-linejoin="round" d=" M 184.087, 153.968 186.314, 157.106 191.045, 148.818 " />
            <path fill="none" stroke-width="3.0" stroke-linecap="butt" stroke-opacity="1.0" stroke="rgb(0, 0, 0)" stroke-linejoin="round" d=" M 95.327, 156.640 90.497, 158.658 83.673, 164.614 76.743, 169.512 75.552, 170.355 72.943, 174.894 72.025, 175.736 70.646, 177.002 72.051, 181.775 71.402, 184.079 70.831, 186.107 70.704, 192.568 72.508, 197.240 77.672, 202.061 83.180, 208.262 85.949, 209.094 92.029, 210.341 101.968, 211.446 103.995, 211.671 111.532, 211.454 113.450, 211.248 118.556, 210.700 120.253, 209.679 123.032, 208.324 123.570, 207.466 124.277, 206.337 126.115, 203.401 130.251, 196.796 131.239, 191.272 131.322, 190.806 131.460, 190.037 132.393, 184.819 " />
            <path fill="none" stroke-width="3.0" stroke-linecap="butt" stroke-opacity="1.0" stroke="rgb(0, 0, 0)" stroke-linejoin="round" d=" M 63.105, 108.645 55.914, 109.857 54.654, 109.689 47.233, 115.609 57.002, 113.475 64.373, 111.865 " />
            <path fill="none" stroke-width="3.0" stroke-linecap="butt" stroke-opacity="1.0" stroke="rgb(0, 0, 0)" stroke-linejoin="round" d=" M 65.393, 112.949 65.092, 113.360 64.189, 112.499 " />
            <path fill="none" stroke-width="3.0" stroke-linecap="butt" stroke-opacity="1.0" stroke="rgb(0, 0, 0)" stroke-linejoin="round" d=" M 65.393, 112.949 68.037, 117.924 69.164, 119.462 69.264, 120.518 69.873, 121.299 " />
            <path fill="none" stroke-width="3.0" stroke-linecap="butt" stroke-opacity="1.0" stroke="rgb(0, 0, 0)" stroke-linejoin="round" d=" M 76.743, 169.512 76.438, 169.104 71.222, 160.572 68.076, 155.426 67.650, 156.659 67.554, 156.936 64.149, 166.284 64.401, 170.144 64.445, 171.355 65.777, 175.589 66.128, 176.639 67.875, 182.192 68.001, 182.341 71.402, 184.079 " />
            <path fill="none" stroke-width="3.0" stroke-linecap="butt" stroke-opacity="1.0" stroke="rgb(0, 0, 0)" stroke-linejoin="round" d=" M 70.173, 121.683 70.920, 122.641 71.456, 123.328 71.006, 128.712 69.748, 130.799 66.483, 136.219 64.429, 140.855 64.494, 144.248 65.509, 147.191 66.162, 149.908 67.900, 152.826 67.650, 156.659 " />
            <path fill="none" stroke-width="3.0" stroke-linecap="butt" stroke-opacity="1.0" stroke="rgb(0, 0, 0)" stroke-linejoin="round" d=" M 71.606, 108.338 70.962, 108.726 68.686, 112.480 67.586, 114.370 69.757, 119.148 " />
            <path fill="none" stroke-width="3.0" stroke-linecap="butt" stroke-opacity="1.0" stroke="rgb(0, 0, 0)" stroke-linejoin="round" d=" M 70.920, 122.641 69.650, 124.663 70.234, 126.928 69.782, 130.629 69.748, 130.799 " />
            <path fill="none" stroke-width="3.0" stroke-linecap="butt" stroke-opacity="1.0" stroke="rgb(0, 0, 0)" stroke-linejoin="round" d=" M 85.240, 110.664 88.780, 111.922 91.539, 116.101 92.070, 116.958 96.277, 119.671 " />
            <path fill="none" stroke-width="3.0" stroke-linecap="butt" stroke-opacity="1.0" stroke="rgb(0, 0, 0)" stroke-linejoin="round" d=" M 99.069, 121.721 100.564, 125.111 100.743, 127.243 100.781, 127.688 101.882, 137.628 102.646, 144.521 " />
            <path fill="none" stroke-width="3.0" stroke-linecap="butt" stroke-opacity="1.0" stroke="rgb(0, 0, 0)" stroke-linejoin="round" d=" M 117.603, 118.203 118.470, 117.109 123.430, 112.274 123.663, 112.045 " />
            <path fill="none" stroke-width="3.0" stroke-linecap="butt" stroke-opacity="1.0" stroke="rgb(0, 0, 0)" stroke-linejoin="round" d=" M 113.450, 211.248 118.817, 212.798 120.617, 213.231 122.262, 213.163 129.896, 212.453 130.977, 212.055 138.983, 208.563 143.265, 206.569 143.988, 205.582 145.678, 203.353 149.488, 197.925 152.620, 196.324 162.308, 193.845 169.442, 192.019 174.120, 185.858 179.698, 177.558 180.096, 176.966 182.344, 171.257 182.745, 169.246 184.852, 160.367 183.974, 160.151 182.217, 159.718 " />
            <path fill="none" stroke-width="3.0" stroke-linecap="butt" stroke-opacity="1.0" stroke="rgb(0, 0, 0)" stroke-linejoin="round" d=" M 123.570, 207.466 127.260, 206.847 132.870, 205.744 " />
            <path fill="none" stroke-width="3.0" stroke-linecap="butt" stroke-opacity="1.0" stroke="rgb(0, 0, 0)" stroke-linejoin="round" d=" M 129.553, 153.639 130.526, 153.293 133.758, 151.961 134.807, 150.169 136.731, 146.839 136.945, 143.745 137.092, 139.994 136.356, 137.165 135.260, 133.385 133.812, 131.812 130.929, 128.649 130.801, 128.622 130.235, 128.506 128.849, 128.219 " />
            <path fill="none" stroke-width="3.0" stroke-linecap="butt" stroke-opacity="1.0" stroke="rgb(0, 0, 0)" stroke-linejoin="round" d=" M 133.427, 205.582 138.416, 201.050 138.757, 201.049 139.639, 201.047 143.318, 201.038 145.212, 200.822 146.671, 199.415 147.872, 198.255 149.437, 196.892 150.771, 193.926 151.995, 191.289 157.665, 189.276 159.903, 187.916 161.138, 184.677 163.024, 182.368 163.753, 179.768 164.786, 176.700 164.661, 174.712 164.342, 171.190 159.289, 162.560 157.812, 160.035 157.566, 159.612 157.098, 160.066 150.731, 167.776 145.060, 174.644 135.659, 178.053 134.776, 178.374 132.003, 179.380 " />
        </g>
    </g>
</svg>
