<?xml version='1.0' encoding='ascii'?>
<svg xmlns="http://www.w3.org/2000/svg" version="1.1" width="250" height="250">
    <g id="ViewLayer_LineSet" xmlns:inkscape="http://www.inkscape.org/namespaces/inkscape" inkscape:groupmode="lineset" inkscape:label="ViewLayer_LineSet">
        <g xmlns:inkscape="http://www.inkscape.org/namespaces/inkscape" inkscape:groupmode="layer" id="strokes" inkscape:label="strokes">
            <path fill="none" stroke-width="3.0" stroke-linecap="butt" stroke-opacity="1.0" stroke="rgb(0, 0, 0)" stroke-linejoin="round" d=" M 96.633, 90.522 98.237, 92.669 100.689, 95.204 " />
            <path fill="none" stroke-width="3.0" stroke-linecap="butt" stroke-opacity="1.0" stroke="rgb(0, 0, 0)" stroke-linejoin="round" d=" M 157.434, 80.248 152.064, 74.870 149.729, 74.069 140.342, 70.621 130.955, 67.174 126.991, 65.718 " />
            <path fill="none" stroke-width="3.0" stroke-linecap="butt" stroke-opacity="1.0" stroke="rgb(0, 0, 0)" stroke-linejoin="round" d=" M 191.924, 130.966 199.545, 124.492 203.202, 121.386 203.471, 111.869 201.425, 102.080 199.823, 94.420 199.007, 85.866 194.280, 77.054 189.554, 68.241 187.573, 64.548 182.478, 55.944 181.985, 55.111 179.676, 52.920 172.919, 45.549 168.172, 40.371 162.554, 35.141 161.223, 33.880 152.289, 29.388 152.054, 29.270 142.874, 25.305 140.316, 24.200 138.663, 24.417 128.698, 25.257 118.733, 26.097 108.769, 26.937 103.834, 27.353 99.635, 27.660 91.389, 33.317 87.405, 36.051 80.114, 41.959 74.654, 50.337 74.567, 50.470 68.548, 58.456 65.341, 62.710 63.589, 68.321 63.138, 75.042 " />
            <path fill="none" stroke-width="3.0" stroke-linecap="butt" stroke-opacity="1.0" stroke="rgb(0, 0, 0)" stroke-linejoin="round" d=" M 102.666, 66.244 112.660, 65.890 122.653, 65.536 123.690, 65.499 113.693, 65.731 103.695, 65.962 101.288, 66.018 91.294, 66.361 81.299, 66.703 80.071, 66.746 77.527, 66.832 68.898, 71.886 65.471, 73.893 63.138, 75.042 57.089, 78.020 54.520, 87.684 54.134, 89.134 61.700, 93.014 65.362, 94.892 63.302, 96.830 63.241, 101.834 68.240, 102.136 71.815, 96.403 " />
            <path fill="none" stroke-width="3.0" stroke-linecap="butt" stroke-opacity="1.0" stroke="rgb(0, 0, 0)" stroke-linejoin="round" d=" M 190.792, 149.935 191.120, 148.446 190.112, 144.704 187.508, 137.333 187.331, 136.832 188.870, 132.680 188.253, 135.752 187.508, 137.333 " />
            <path fill="none" stroke-width="3.0" stroke-linecap="butt" stroke-opacity="1.0" stroke="rgb(0, 0, 0)" stroke-linejoin="round" d=" M 102.983, 106.903 103.058, 106.963 103.053, 107.104 103.043, 107.384 102.934, 109.885 " />
            <path fill="none" stroke-width="3.0" stroke-linecap="butt" stroke-opacity="1.0" stroke="rgb(0, 0, 0)" stroke-linejoin="round" d=" M 118.336, 191.212 123.533, 191.056 127.481, 190.937 130.317, 188.762 131.429, 187.909 133.661, 186.197 134.344, 185.673 " />
            <path fill="none" stroke-width="3.0" stroke-linecap="butt" stroke-opacity="1.0" stroke="rgb(0, 0, 0)" stroke-linejoin="round" d=" M 79.105, 182.257 83.787, 188.060 91.075, 189.408 93.841, 188.187 100.010, 185.464 101.482, 184.814 " />
            <path fill="none" stroke-width="3.0" stroke-linecap="butt" stroke-opacity="1.0" stroke="rgb(0, 0, 0)" stroke-linejoin="round" d=" M 72.229, 104.680 76.543, 98.022 80.866, 92.954 88.255, 89.249 95.640, 89.485 " />
            <path fill="none" stroke-width="3.0" stroke-linecap="butt" stroke-opacity="1.0" stroke="rgb(0, 0, 0)" stroke-linejoin="round" d=" M 104.022, 99.990 101.834, 92.388 99.028, 85.345 94.400, 81.980 " />
            <path fill="none" stroke-width="3.0" stroke-linecap="butt" stroke-opacity="1.0" stroke="rgb(0, 0, 0)" stroke-linejoin="round" d=" M 125.244, 84.000 119.358, 90.233 117.173, 99.991 117.125, 100.206 122.362, 93.670 128.034, 89.457 138.099, 89.068 147.423, 92.683 147.797, 92.829 153.110, 98.089 158.168, 105.145 158.165, 96.750 " />
            <path fill="none" stroke-width="3.0" stroke-linecap="butt" stroke-opacity="1.0" stroke="rgb(0, 0, 0)" stroke-linejoin="round" d=" M 137.832, 138.316 143.105, 132.935 146.027, 125.596 146.150, 115.596 146.161, 114.693 142.591, 105.792 135.869, 100.189 126.015, 101.134 123.143, 106.142 122.805, 110.493 " />
            <path fill="none" stroke-width="3.0" stroke-linecap="butt" stroke-opacity="1.0" stroke="rgb(0, 0, 0)" stroke-linejoin="round" d=" M 101.375, 102.291 94.021, 101.392 89.162, 106.991 86.109, 115.053 85.688, 125.044 85.682, 125.191 86.092, 127.500 " />
            <path fill="none" stroke-width="3.0" stroke-linecap="butt" stroke-opacity="1.0" stroke="rgb(0, 0, 0)" stroke-linejoin="round" d=" M 170.571, 97.676 172.250, 96.027 165.405, 88.737 158.560, 81.447 157.434, 80.248 " />
            <path fill="none" stroke-width="3.0" stroke-linecap="butt" stroke-opacity="1.0" stroke="rgb(0, 0, 0)" stroke-linejoin="round" d=" M 61.700, 93.014 61.573, 94.280 62.413, 104.245 62.900, 110.032 64.177, 116.161 65.087, 117.479 68.288, 122.188 65.140, 117.917 68.849, 123.968 68.327, 126.816 69.905, 126.143 69.154, 129.655 62.523, 137.140 60.689, 139.210 60.155, 139.904 59.720, 146.002 " />
            <path fill="none" stroke-width="3.0" stroke-linecap="butt" stroke-opacity="1.0" stroke="rgb(0, 0, 0)" stroke-linejoin="round" d=" M 89.634, 199.206 90.162, 200.130 91.955, 203.267 92.591, 203.971 101.219, 209.026 101.390, 209.127 108.313, 209.959 109.492, 211.771 " />
            <path fill="none" stroke-width="3.0" stroke-linecap="butt" stroke-opacity="1.0" stroke="rgb(0, 0, 0)" stroke-linejoin="round" d=" M 180.161, 172.550 179.870, 173.338 176.929, 181.294 179.192, 172.285 " />
            <path fill="none" stroke-width="3.0" stroke-linecap="butt" stroke-opacity="1.0" stroke="rgb(0, 0, 0)" stroke-linejoin="round" d=" M 130.317, 188.762 132.003, 189.031 132.322, 188.928 132.731, 188.843 132.708, 189.000 132.692, 189.108 132.400, 189.062 132.708, 189.000 133.652, 188.811 134.094, 188.723 132.707, 191.490 " />
            <path fill="none" stroke-width="3.0" stroke-linecap="butt" stroke-opacity="1.0" stroke="rgb(0, 0, 0)" stroke-linejoin="round" d=" M 187.852, 154.255 190.792, 149.935 " />
            <path fill="none" stroke-width="3.0" stroke-linecap="butt" stroke-opacity="1.0" stroke="rgb(0, 0, 0)" stroke-linejoin="round" d=" M 128.295, 140.877 128.920, 141.348 130.464, 151.228 130.693, 152.689 128.704, 142.889 128.295, 140.877 127.851, 138.690 127.698, 137.932 127.390, 137.715 123.975, 135.314 117.985, 129.900 117.008, 129.672 107.416, 127.429 105.988, 127.095 102.247, 126.478 102.208, 126.471 101.219, 126.308 91.533, 127.009 89.762, 127.137 89.010, 127.192 86.092, 127.500 81.539, 127.981 79.561, 128.723 72.891, 131.542 72.411, 131.940 69.011, 134.763 69.215, 141.540 67.668, 144.129 65.970, 146.973 64.840, 151.688 64.577, 152.787 65.159, 161.378 70.774, 169.653 73.496, 173.663 73.881, 174.319 75.119, 174.999 81.368, 176.286 87.402, 177.528 92.225, 178.312 94.820, 178.734 96.433, 178.996 97.552, 179.178 104.049, 178.612 104.295, 178.591 107.071, 177.918 116.246, 173.940 123.758, 170.683 " />
            <path fill="none" stroke-width="3.0" stroke-linecap="butt" stroke-opacity="1.0" stroke="rgb(0, 0, 0)" stroke-linejoin="round" d=" M 65.965, 141.150 63.942, 137.612 60.938, 143.723 59.720, 146.002 58.508, 148.268 58.017, 152.474 57.801, 153.947 58.334, 158.133 58.583, 159.734 59.299, 163.937 59.960, 165.287 61.531, 166.039 64.222, 167.326 66.019, 168.862 66.929, 171.169 68.345, 175.684 70.911, 179.040 72.004, 180.401 75.087, 181.158 78.338, 181.404 79.118, 182.224 81.323, 184.544 82.796, 186.832 " />
            <path fill="none" stroke-width="3.0" stroke-linecap="butt" stroke-opacity="1.0" stroke="rgb(0, 0, 0)" stroke-linejoin="round" d=" M 61.531, 166.039 62.501, 169.339 63.036, 174.831 68.135, 183.434 68.955, 184.817 77.639, 189.775 83.596, 193.176 85.752, 197.557 90.162, 200.130 " />
            <path fill="none" stroke-width="3.0" stroke-linecap="butt" stroke-opacity="1.0" stroke="rgb(0, 0, 0)" stroke-linejoin="round" d=" M 76.204, 88.814 74.646, 89.872 71.963, 94.376 71.536, 95.094 71.815, 96.403 72.714, 100.635 " />
            <path fill="none" stroke-width="3.0" stroke-linecap="butt" stroke-opacity="1.0" stroke="rgb(0, 0, 0)" stroke-linejoin="round" d=" M 93.841, 188.187 99.646, 191.875 107.268, 193.008 115.947, 194.499 119.447, 193.205 123.533, 191.056 " />
            <path fill="none" stroke-width="3.0" stroke-linecap="butt" stroke-opacity="1.0" stroke="rgb(0, 0, 0)" stroke-linejoin="round" d=" M 101.980, 109.671 98.258, 108.669 96.971, 109.031 94.791, 109.863 93.283, 111.250 92.846, 111.520 90.715, 115.856 90.253, 116.747 89.577, 121.894 89.439, 123.114 89.547, 124.325 89.762, 127.137 " />
            <path fill="none" stroke-width="3.0" stroke-linecap="butt" stroke-opacity="1.0" stroke="rgb(0, 0, 0)" stroke-linejoin="round" d=" M 100.010, 185.464 101.473, 184.813 102.645, 184.293 103.348, 183.980 103.366, 183.982 103.419, 183.988 103.466, 183.994 104.523, 184.184 107.265, 185.266 111.677, 187.612 " />
            <path fill="none" stroke-width="3.0" stroke-linecap="butt" stroke-opacity="1.0" stroke="rgb(0, 0, 0)" stroke-linejoin="round" d=" M 109.492, 211.771 118.162, 216.034 122.717, 214.557 132.648, 213.384 135.386, 213.061 136.314, 212.848 137.205, 212.445 145.987, 207.663 146.907, 207.163 151.653, 204.894 159.628, 198.860 165.420, 194.478 170.968, 189.167 174.406, 185.877 176.889, 182.198 180.199, 173.849 180.629, 172.765 180.988, 171.859 181.519, 168.892 183.121, 163.252 180.471, 163.781 " />
            <path fill="none" stroke-width="3.0" stroke-linecap="butt" stroke-opacity="1.0" stroke="rgb(0, 0, 0)" stroke-linejoin="round" d=" M 117.053, 129.986 118.404, 130.281 120.857, 133.916 123.813, 137.078 " />
            <path fill="none" stroke-width="3.0" stroke-linecap="butt" stroke-opacity="1.0" stroke="rgb(0, 0, 0)" stroke-linejoin="round" d=" M 132.236, 136.371 132.460, 136.306 132.568, 136.271 132.588, 136.265 135.074, 132.859 136.554, 130.793 137.275, 127.168 137.860, 123.501 137.336, 119.108 136.942, 116.266 134.600, 112.784 133.403, 111.000 129.834, 109.852 127.138, 109.049 122.805, 110.493 " />
            <path fill="none" stroke-width="3.0" stroke-linecap="butt" stroke-opacity="1.0" stroke="rgb(0, 0, 0)" stroke-linejoin="round" d=" M 127.390, 137.715 132.236, 136.371 132.562, 136.281 " />
            <path fill="none" stroke-width="3.0" stroke-linecap="butt" stroke-opacity="1.0" stroke="rgb(0, 0, 0)" stroke-linejoin="round" d=" M 131.429, 187.909 133.509, 185.737 134.067, 185.154 134.111, 185.156 136.427, 185.272 141.669, 184.712 143.837, 182.620 146.424, 180.323 147.716, 177.594 149.785, 173.402 154.462, 172.014 158.217, 170.104 159.423, 167.445 162.013, 164.564 162.760, 162.111 164.000, 158.455 163.902, 156.036 163.588, 152.295 159.385, 144.195 157.432, 140.253 152.154, 144.330 144.982, 151.299 143.621, 152.622 134.091, 155.651 129.427, 157.133 122.062, 159.394 " />
            <path fill="none" stroke-width="3.0" stroke-linecap="butt" stroke-opacity="1.0" stroke="rgb(0, 0, 0)" stroke-linejoin="round" d=" M 170.968, 189.167 172.109, 188.701 179.496, 181.961 180.289, 181.237 183.134, 178.405 180.199, 173.849 " />
            <path fill="none" stroke-width="3.0" stroke-linecap="butt" stroke-opacity="1.0" stroke="rgb(0, 0, 0)" stroke-linejoin="round" d=" M 180.629, 172.765 182.258, 173.513 190.323, 172.977 197.894, 169.590 200.522, 166.527 202.092, 165.460 204.373, 156.555 204.822, 153.255 203.780, 148.312 201.143, 140.999 200.062, 138.282 195.412, 133.732 193.091, 132.957 191.024, 132.408 191.924, 130.966 " />
        </g>
    </g>
</svg>
