<?xml version='1.0' encoding='ascii'?>
<svg xmlns="http://www.w3.org/2000/svg" version="1.1" width="250" height="250">
    <g id="ViewLayer_LineSet" xmlns:inkscape="http://www.inkscape.org/namespaces/inkscape" inkscape:groupmode="lineset" inkscape:label="ViewLayer_LineSet">
        <g xmlns:inkscape="http://www.inkscape.org/namespaces/inkscape" inkscape:groupmode="layer" id="strokes" inkscape:label="strokes">
            <path fill="none" stroke-width="3.0" stroke-linecap="butt" stroke-opacity="1.0" stroke="rgb(0, 0, 0)" stroke-linejoin="round" d=" M 158.756, 189.427 162.821, 184.802 163.430, 184.110 166.967, 183.876 170.056, 183.186 172.604, 179.977 173.858, 178.529 175.363, 174.332 176.514, 171.705 181.824, 169.203 183.297, 168.065 184.129, 164.255 185.098, 162.587 185.773, 158.635 185.968, 157.648 186.028, 157.349 186.152, 156.722 185.776, 152.786 185.604, 151.405 185.550, 150.973 182.681, 145.503 180.072, 140.108 176.827, 143.810 176.636, 144.029 174.034, 148.071 " />
            <path fill="none" stroke-width="3.0" stroke-linecap="butt" stroke-opacity="1.0" stroke="rgb(0, 0, 0)" stroke-linejoin="round" d=" M 126.589, 190.983 133.260, 187.960 135.911, 186.758 136.296, 186.737 137.233, 186.548 137.852, 186.738 139.030, 187.101 140.282, 187.705 142.233, 188.648 " />
            <path fill="none" stroke-width="3.0" stroke-linecap="butt" stroke-opacity="1.0" stroke="rgb(0, 0, 0)" stroke-linejoin="round" d=" M 190.909, 93.584 190.909, 93.583 189.271, 89.663 185.414, 80.436 185.144, 79.789 178.250, 76.706 169.321, 72.203 163.605, 69.320 162.429, 69.291 152.432, 69.069 147.456, 68.958 " />
            <path fill="none" stroke-width="3.0" stroke-linecap="butt" stroke-opacity="1.0" stroke="rgb(0, 0, 0)" stroke-linejoin="round" d=" M 184.568, 118.963 186.613, 116.326 188.479, 106.501 188.909, 104.238 189.608, 94.166 " />
            <path fill="none" stroke-width="3.0" stroke-linecap="butt" stroke-opacity="1.0" stroke="rgb(0, 0, 0)" stroke-linejoin="round" d=" M 142.233, 188.648 149.011, 191.604 149.852, 191.970 157.640, 190.669 162.848, 184.869 " />
            <path fill="none" stroke-width="3.0" stroke-linecap="butt" stroke-opacity="1.0" stroke="rgb(0, 0, 0)" stroke-linejoin="round" d=" M 106.386, 187.355 112.995, 192.769 122.022, 193.304 " />
            <path fill="none" stroke-width="3.0" stroke-linecap="butt" stroke-opacity="1.0" stroke="rgb(0, 0, 0)" stroke-linejoin="round" d=" M 86.065, 97.964 86.049, 98.657 85.864, 106.400 90.957, 99.378 96.296, 94.119 105.637, 90.548 105.864, 90.462 115.616, 90.959 121.133, 95.294 126.411, 101.885 124.309, 94.179 119.534, 86.796 113.093, 83.108 " />
            <path fill="none" stroke-width="3.0" stroke-linecap="butt" stroke-opacity="1.0" stroke="rgb(0, 0, 0)" stroke-linejoin="round" d=" M 148.318, 91.288 156.506, 90.884 164.382, 94.507 168.978, 99.553 173.443, 106.252 " />
            <path fill="none" stroke-width="3.0" stroke-linecap="butt" stroke-opacity="1.0" stroke="rgb(0, 0, 0)" stroke-linejoin="round" d=" M 145.866, 85.879 141.289, 92.099 139.175, 101.873 139.141, 102.030 " />
            <path fill="none" stroke-width="3.0" stroke-linecap="butt" stroke-opacity="1.0" stroke="rgb(0, 0, 0)" stroke-linejoin="round" d=" M 112.236, 138.038 113.545, 138.290 115.031, 138.575 " />
            <path fill="none" stroke-width="3.0" stroke-linecap="butt" stroke-opacity="1.0" stroke="rgb(0, 0, 0)" stroke-linejoin="round" d=" M 144.151, 110.616 142.770, 111.161 141.023, 111.849 " />
            <path fill="none" stroke-width="3.0" stroke-linecap="butt" stroke-opacity="1.0" stroke="rgb(0, 0, 0)" stroke-linejoin="round" d=" M 120.758, 108.829 117.966, 103.772 108.230, 102.722 101.328, 108.411 97.797, 116.810 97.950, 126.809 97.959, 127.386 100.750, 134.567 106.031, 139.445 113.090, 139.935 " />
            <path fill="none" stroke-width="3.0" stroke-linecap="butt" stroke-opacity="1.0" stroke="rgb(0, 0, 0)" stroke-linejoin="round" d=" M 158.096, 133.086 159.955, 125.862 160.009, 115.862 160.012, 115.360 156.953, 106.828 151.138, 101.454 143.049, 102.528 140.958, 107.560 " />
            <path fill="none" stroke-width="3.0" stroke-linecap="butt" stroke-opacity="1.0" stroke="rgb(0, 0, 0)" stroke-linejoin="round" d=" M 179.977, 102.093 185.889, 101.884 185.108, 98.260 183.328, 96.971 189.608, 94.166 190.908, 93.585 190.909, 93.585 " />
            <path fill="none" stroke-width="3.0" stroke-linecap="butt" stroke-opacity="1.0" stroke="rgb(0, 0, 0)" stroke-linejoin="round" d=" M 60.242, 133.763 60.241, 133.760 59.248, 129.960 60.242, 133.763 60.657, 135.349 58.935, 140.173 56.830, 146.606 57.101, 149.555 61.572, 157.510 67.217, 154.640 62.173, 158.981 64.547, 168.695 64.737, 169.473 65.100, 171.085 65.222, 171.627 67.928, 179.658 73.485, 187.971 74.638, 189.695 80.258, 193.996 87.985, 200.343 88.067, 200.411 97.054, 204.797 99.253, 205.870 108.103, 210.578 111.226, 211.669 120.765, 213.586 126.963, 215.924 133.919, 212.690 " />
            <path fill="none" stroke-width="3.0" stroke-linecap="butt" stroke-opacity="1.0" stroke="rgb(0, 0, 0)" stroke-linejoin="round" d=" M 185.604, 151.405 186.786, 150.606 186.906, 150.525 187.978, 147.076 188.487, 141.794 184.993, 136.472 184.074, 135.072 180.585, 130.798 180.552, 130.546 180.321, 128.747 181.394, 128.987 181.108, 124.473 184.227, 119.859 " />
            <path fill="none" stroke-width="3.0" stroke-linecap="butt" stroke-opacity="1.0" stroke="rgb(0, 0, 0)" stroke-linejoin="round" d=" M 107.663, 70.555 98.297, 74.060 91.101, 76.753 88.339, 77.710 81.519, 85.023 79.832, 86.832 73.266, 94.374 70.017, 98.106 73.607, 99.285 " />
            <path fill="none" stroke-width="3.0" stroke-linecap="butt" stroke-opacity="1.0" stroke="rgb(0, 0, 0)" stroke-linejoin="round" d=" M 118.741, 172.830 126.555, 179.071 129.058, 181.071 132.870, 182.077 140.896, 182.857 141.056, 182.873 148.046, 181.869 151.393, 181.389 151.906, 181.277 153.283, 180.977 160.643, 179.373 161.363, 179.216 163.861, 178.154 169.281, 173.101 173.714, 167.403 175.250, 157.522 175.327, 157.021 174.147, 148.434 174.034, 148.071 171.982, 141.489 170.528, 139.769 170.089, 138.814 161.051, 134.535 159.247, 133.681 158.094, 133.088 155.778, 131.898 154.786, 131.755 153.269, 131.536 144.118, 130.214 141.299, 129.908 138.146, 129.565 136.887, 129.753 134.746, 130.073 126.442, 131.800 122.010, 132.722 121.983, 132.728 116.475, 137.563 115.031, 138.575 113.090, 139.935 112.159, 140.588 109.938, 150.338 109.211, 153.525 108.863, 154.743 107.913, 158.029 108.060, 158.348 108.931, 160.244 112.047, 165.695 " />
            <path fill="none" stroke-width="3.0" stroke-linecap="butt" stroke-opacity="1.0" stroke="rgb(0, 0, 0)" stroke-linejoin="round" d=" M 86.068, 97.959 86.049, 98.657 " />
            <path fill="none" stroke-width="3.0" stroke-linecap="butt" stroke-opacity="1.0" stroke="rgb(0, 0, 0)" stroke-linejoin="round" d=" M 108.060, 158.348 98.594, 155.123 97.199, 154.647 90.956, 149.225 84.283, 141.732 82.313, 145.702 78.189, 153.610 78.038, 156.437 77.738, 159.688 78.460, 162.391 79.535, 165.773 80.822, 168.795 82.837, 171.554 87.217, 172.911 90.927, 174.980 92.820, 178.730 94.241, 181.855 96.731, 184.246 98.933, 186.296 103.819, 186.895 106.556, 186.824 106.613, 186.861 109.673, 188.856 109.631, 190.013 " />
            <path fill="none" stroke-width="3.0" stroke-linecap="butt" stroke-opacity="1.0" stroke="rgb(0, 0, 0)" stroke-linejoin="round" d=" M 120.098, 111.565 114.931, 110.424 112.366, 111.440 108.914, 112.978 107.977, 114.749 105.851, 118.590 105.746, 120.940 105.524, 125.761 106.662, 129.916 107.505, 132.861 109.346, 135.012 112.067, 137.980 112.212, 138.009 112.672, 138.101 113.545, 138.290 " />
            <path fill="none" stroke-width="3.0" stroke-linecap="butt" stroke-opacity="1.0" stroke="rgb(0, 0, 0)" stroke-linejoin="round" d=" M 122.077, 193.276 125.664, 195.043 132.401, 194.950 142.161, 194.841 149.011, 191.604 " />
            <path fill="none" stroke-width="3.0" stroke-linecap="butt" stroke-opacity="1.0" stroke="rgb(0, 0, 0)" stroke-linejoin="round" d=" M 138.807, 210.418 138.895, 210.409 142.020, 210.095 150.999, 205.693 151.675, 205.362 151.707, 205.334 154.844, 201.124 154.817, 200.764 " />
            <path fill="none" stroke-width="3.0" stroke-linecap="butt" stroke-opacity="1.0" stroke="rgb(0, 0, 0)" stroke-linejoin="round" d=" M 154.786, 131.755 154.988, 131.151 155.108, 130.906 155.547, 124.493 155.599, 123.935 155.478, 123.384 154.101, 117.333 153.777, 116.776 151.249, 112.037 151.206, 112.017 151.075, 111.915 147.050, 110.891 144.741, 110.438 144.202, 110.635 142.770, 111.161 " />
            <path fill="none" stroke-width="3.0" stroke-linecap="butt" stroke-opacity="1.0" stroke="rgb(0, 0, 0)" stroke-linejoin="round" d=" M 143.019, 96.787 144.767, 94.950 146.919, 92.645 " />
            <path fill="none" stroke-width="3.0" stroke-linecap="butt" stroke-opacity="1.0" stroke="rgb(0, 0, 0)" stroke-linejoin="round" d=" M 154.817, 200.764 160.082, 197.996 159.812, 194.988 168.814, 190.633 176.955, 186.695 182.273, 178.226 183.200, 176.750 184.500, 171.371 186.313, 165.756 186.111, 157.944 186.056, 157.549 " />
            <path fill="none" stroke-width="3.0" stroke-linecap="butt" stroke-opacity="1.0" stroke="rgb(0, 0, 0)" stroke-linejoin="round" d=" M 184.993, 136.472 184.904, 135.321 181.941, 131.670 180.552, 130.546 " />
            <path fill="none" stroke-width="3.0" stroke-linecap="butt" stroke-opacity="1.0" stroke="rgb(0, 0, 0)" stroke-linejoin="round" d=" M 186.056, 157.549 186.278, 157.299 186.749, 151.453 186.786, 150.606 " />
            <path fill="none" stroke-width="3.0" stroke-linecap="butt" stroke-opacity="1.0" stroke="rgb(0, 0, 0)" stroke-linejoin="round" d=" M 189.271, 89.663 188.909, 87.135 187.994, 77.177 187.838, 75.477 184.473, 66.060 182.774, 61.306 176.561, 53.470 174.881, 51.352 169.215, 43.113 167.071, 39.996 161.719, 35.882 153.314, 30.466 147.011, 26.404 144.290, 26.302 134.307, 25.720 124.323, 25.139 114.340, 24.557 107.104, 24.135 106.176, 24.038 97.133, 28.305 92.602, 30.443 85.266, 34.171 84.750, 34.666 82.938, 36.358 76.309, 43.845 69.681, 51.332 68.599, 52.553 65.218, 55.877 60.383, 64.630 56.404, 71.834 51.903, 80.763 48.909, 86.703 48.628, 92.236 46.836, 102.074 46.708, 102.776 47.355, 112.755 47.785, 119.387 55.067, 126.240 56.692, 127.769 58.735, 130.876 55.740, 131.689 54.366, 132.180 49.857, 136.782 48.864, 139.654 46.685, 146.261 45.734, 150.532 46.191, 154.528 47.866, 162.598 49.951, 164.192 53.285, 168.645 58.357, 171.127 63.689, 171.758 65.100, 171.085 " />
        </g>
    </g>
</svg>
