<?xml version='1.0' encoding='ascii'?>
<svg xmlns="http://www.w3.org/2000/svg" version="1.1" width="250" height="250">
    <g id="ViewLayer_LineSet" xmlns:inkscape="http://www.inkscape.org/namespaces/inkscape" inkscape:groupmode="lineset" inkscape:label="ViewLayer_LineSet">
        <g xmlns:inkscape="http://www.inkscape.org/namespaces/inkscape" inkscape:groupmode="layer" id="strokes" inkscape:label="strokes">
            <path fill="none" stroke-width="3.0" stroke-linecap="butt" stroke-opacity="1.0" stroke="rgb(0, 0, 0)" stroke-linejoin="round" d=" M 137.892, 156.152 142.616, 156.971 143.357, 156.727 144.846, 156.075 147.468, 154.111 148.008, 153.786 148.538, 152.967 150.614, 149.755 151.024, 149.153 152.701, 143.135 152.732, 143.017 152.723, 142.921 152.688, 142.081 151.938, 137.596 151.791, 136.845 149.569, 134.449 147.751, 132.554 147.238, 132.468 146.630, 132.367 145.691, 132.202 " />
            <path fill="none" stroke-width="3.0" stroke-linecap="butt" stroke-opacity="1.0" stroke="rgb(0, 0, 0)" stroke-linejoin="round" d=" M 190.550, 124.646 186.083, 120.925 185.741, 120.640 185.180, 118.803 185.168, 118.763 185.146, 118.750 184.153, 118.125 183.803, 117.905 " />
            <path fill="none" stroke-width="3.0" stroke-linecap="butt" stroke-opacity="1.0" stroke="rgb(0, 0, 0)" stroke-linejoin="round" d=" M 167.142, 40.228 167.141, 40.228 158.237, 35.625 148.244, 35.247 143.973, 35.086 133.975, 34.879 129.326, 34.783 119.328, 34.576 114.277, 34.471 104.277, 34.440 98.176, 34.421 92.097, 36.910 83.962, 42.726 78.640, 46.532 70.657, 52.554 67.030, 55.290 64.859, 59.344 59.713, 63.996 54.605, 72.593 49.498, 81.191 48.958, 82.100 48.631, 87.703 46.799, 92.740 49.224, 102.442 50.857, 108.972 57.770, 116.289 60.370, 118.975 59.341, 118.334 58.452, 118.313 " />
            <path fill="none" stroke-width="3.0" stroke-linecap="butt" stroke-opacity="1.0" stroke="rgb(0, 0, 0)" stroke-linejoin="round" d=" M 67.816, 124.667 67.816, 124.667 75.166, 120.328 72.212, 119.388 66.745, 121.204 68.366, 121.397 70.657, 122.569 67.816, 124.667 67.816, 124.667 " />
            <path fill="none" stroke-width="3.0" stroke-linecap="butt" stroke-opacity="1.0" stroke="rgb(0, 0, 0)" stroke-linejoin="round" d=" M 149.147, 166.909 148.783, 166.565 151.404, 170.832 153.651, 180.234 150.809, 181.842 150.538, 184.482 " />
            <path fill="none" stroke-width="3.0" stroke-linecap="butt" stroke-opacity="1.0" stroke="rgb(0, 0, 0)" stroke-linejoin="round" d=" M 123.549, 130.437 121.723, 124.130 " />
            <path fill="none" stroke-width="3.0" stroke-linecap="butt" stroke-opacity="1.0" stroke="rgb(0, 0, 0)" stroke-linejoin="round" d=" M 147.203, 132.419 142.052, 131.680 138.659, 133.393 " />
            <path fill="none" stroke-width="3.0" stroke-linecap="butt" stroke-opacity="1.0" stroke="rgb(0, 0, 0)" stroke-linejoin="round" d=" M 95.738, 132.920 95.697, 142.152 98.138, 149.309 103.098, 153.740 107.012, 155.146 " />
            <path fill="none" stroke-width="3.0" stroke-linecap="butt" stroke-opacity="1.0" stroke="rgb(0, 0, 0)" stroke-linejoin="round" d=" M 118.283, 131.187 115.807, 125.877 " />
            <path fill="none" stroke-width="3.0" stroke-linecap="butt" stroke-opacity="1.0" stroke="rgb(0, 0, 0)" stroke-linejoin="round" d=" M 149.504, 152.534 154.678, 147.831 157.358, 140.991 157.690, 138.189 157.758, 137.613 158.398, 132.218 155.983, 125.390 " />
            <path fill="none" stroke-width="3.0" stroke-linecap="butt" stroke-opacity="1.0" stroke="rgb(0, 0, 0)" stroke-linejoin="round" d=" M 58.452, 118.313 57.102, 116.974 58.215, 118.308 59.945, 120.381 60.460, 123.293 61.583, 129.570 60.257, 134.215 57.727, 143.942 58.305, 148.282 60.670, 153.152 60.964, 153.756 63.423, 156.275 64.794, 160.728 65.474, 170.704 65.525, 171.460 65.825, 172.513 65.903, 172.700 66.154, 173.436 66.912, 174.549 72.628, 182.754 76.744, 188.663 82.762, 190.429 87.190, 192.392 " />
            <path fill="none" stroke-width="3.0" stroke-linecap="butt" stroke-opacity="1.0" stroke="rgb(0, 0, 0)" stroke-linejoin="round" d=" M 103.194, 184.381 103.134, 184.325 103.675, 182.115 106.053, 172.402 106.144, 172.028 103.821, 181.754 103.721, 182.175 103.194, 184.381 102.684, 186.513 102.125, 189.002 100.329, 196.445 99.841, 198.467 99.867, 198.749 100.128, 201.591 100.256, 201.915 100.540, 202.631 102.629, 207.912 111.053, 213.389 115.919, 216.957 119.557, 217.657 124.931, 218.021 134.925, 217.674 140.396, 217.484 144.916, 216.890 147.504, 216.255 153.378, 210.833 159.542, 206.148 163.233, 198.599 163.811, 195.725 163.574, 194.999 163.028, 193.325 161.612, 188.986 158.753, 184.611 156.463, 178.573 154.078, 172.280 151.462, 169.892 149.147, 166.909 " />
            <path fill="none" stroke-width="3.0" stroke-linecap="butt" stroke-opacity="1.0" stroke="rgb(0, 0, 0)" stroke-linejoin="round" d=" M 58.215, 118.308 53.059, 118.191 52.207, 119.325 51.936, 119.869 49.589, 127.849 49.014, 131.495 49.703, 135.818 51.433, 142.409 54.656, 145.854 60.060, 153.004 60.670, 153.152 " />
            <path fill="none" stroke-width="3.0" stroke-linecap="butt" stroke-opacity="1.0" stroke="rgb(0, 0, 0)" stroke-linejoin="round" d=" M 103.675, 182.115 103.135, 181.410 93.827, 177.755 92.668, 177.300 90.248, 174.759 84.442, 166.618 83.779, 165.689 80.067, 163.721 75.481, 172.607 75.253, 173.049 75.221, 175.340 75.131, 178.144 75.997, 180.927 76.886, 183.383 78.890, 188.020 79.619, 189.080 85.126, 191.041 87.185, 192.385 87.190, 192.392 88.286, 194.185 90.105, 197.660 94.054, 201.214 94.372, 201.487 94.921, 201.576 99.325, 201.856 100.256, 201.915 " />
            <path fill="none" stroke-width="3.0" stroke-linecap="butt" stroke-opacity="1.0" stroke="rgb(0, 0, 0)" stroke-linejoin="round" d=" M 99.325, 201.856 100.540, 202.631 " />
            <path fill="none" stroke-width="3.0" stroke-linecap="butt" stroke-opacity="1.0" stroke="rgb(0, 0, 0)" stroke-linejoin="round" d=" M 107.349, 132.697 107.177, 132.750 105.015, 135.681 103.462, 137.729 103.106, 140.137 102.492, 144.256 103.661, 150.232 103.775, 150.792 107.012, 155.146 107.244, 155.457 107.387, 155.635 111.395, 156.721 112.152, 156.926 113.216, 157.165 113.698, 157.273 119.627, 155.475 " />
            <path fill="none" stroke-width="3.0" stroke-linecap="butt" stroke-opacity="1.0" stroke="rgb(0, 0, 0)" stroke-linejoin="round" d=" M 139.243, 128.956 140.745, 125.841 " />
            <path fill="none" stroke-width="3.0" stroke-linecap="butt" stroke-opacity="1.0" stroke="rgb(0, 0, 0)" stroke-linejoin="round" d=" M 140.878, 125.759 139.243, 128.956 " />
            <path fill="none" stroke-width="3.0" stroke-linecap="butt" stroke-opacity="1.0" stroke="rgb(0, 0, 0)" stroke-linejoin="round" d=" M 139.192, 126.806 140.745, 125.841 " />
            <path fill="none" stroke-width="3.0" stroke-linecap="butt" stroke-opacity="1.0" stroke="rgb(0, 0, 0)" stroke-linejoin="round" d=" M 163.574, 194.999 165.548, 191.447 165.558, 191.431 166.455, 190.123 168.739, 189.051 173.464, 186.831 173.782, 186.589 175.262, 182.279 176.033, 181.254 177.332, 177.542 177.914, 176.029 178.098, 172.989 178.108, 172.682 178.161, 171.068 174.314, 161.838 173.982, 161.041 171.372, 163.600 165.572, 171.746 163.064, 175.269 156.991, 178.046 156.463, 178.573 " />
            <path fill="none" stroke-width="3.0" stroke-linecap="butt" stroke-opacity="1.0" stroke="rgb(0, 0, 0)" stroke-linejoin="round" d=" M 165.558, 191.431 168.739, 189.051 " />
            <path fill="none" stroke-width="3.0" stroke-linecap="butt" stroke-opacity="1.0" stroke="rgb(0, 0, 0)" stroke-linejoin="round" d=" M 184.153, 118.125 184.490, 117.716 189.754, 111.327 190.205, 110.462 193.390, 100.982 196.526, 91.647 196.684, 88.791 197.545, 85.145 194.002, 75.794 190.458, 66.442 188.654, 61.681 187.317, 59.890 185.409, 56.922 178.041, 50.160 174.608, 47.009 167.145, 40.230 167.144, 40.229 " />
            <path fill="none" stroke-width="3.0" stroke-linecap="butt" stroke-opacity="1.0" stroke="rgb(0, 0, 0)" stroke-linejoin="round" d=" M 178.108, 172.682 179.596, 170.058 180.355, 164.146 181.240, 154.231 183.913, 150.097 185.133, 147.309 186.506, 142.008 185.498, 139.131 182.191, 129.694 181.792, 128.555 181.579, 128.055 181.673, 127.413 182.832, 121.035 " />
            <path fill="none" stroke-width="3.0" stroke-linecap="butt" stroke-opacity="1.0" stroke="rgb(0, 0, 0)" stroke-linejoin="round" d=" M 185.146, 118.750 184.490, 117.716 " />
            <path fill="none" stroke-width="3.0" stroke-linecap="butt" stroke-opacity="1.0" stroke="rgb(0, 0, 0)" stroke-linejoin="round" d=" M 185.498, 139.131 186.554, 135.017 187.628, 129.845 187.233, 127.310 186.369, 122.690 " />
            <path fill="none" stroke-width="3.0" stroke-linecap="butt" stroke-opacity="1.0" stroke="rgb(0, 0, 0)" stroke-linejoin="round" d=" M 180.581, 119.982 182.832, 121.035 186.369, 122.690 190.550, 124.646 " />
        </g>
    </g>
</svg>
