<?xml version='1.0' encoding='ascii'?>
<svg xmlns="http://www.w3.org/2000/svg" version="1.1" width="250" height="250">
    <g id="ViewLayer_LineSet" xmlns:inkscape="http://www.inkscape.org/namespaces/inkscape" inkscape:groupmode="lineset" inkscape:label="ViewLayer_LineSet">
        <g xmlns:inkscape="http://www.inkscape.org/namespaces/inkscape" inkscape:groupmode="layer" id="strokes" inkscape:label="strokes">
            <path fill="none" stroke-width="3.0" stroke-linecap="butt" stroke-opacity="1.0" stroke="rgb(0, 0, 0)" stroke-linejoin="round" d=" M 144.107, 80.849 144.228, 80.696 144.301, 80.603 144.420, 80.542 " />
            <path fill="none" stroke-width="3.0" stroke-linecap="butt" stroke-opacity="1.0" stroke="rgb(0, 0, 0)" stroke-linejoin="round" d=" M 187.759, 78.160 186.000, 68.316 184.468, 59.744 175.939, 54.523 172.645, 52.507 164.525, 46.670 163.422, 45.876 160.971, 45.812 155.309, 45.663 145.327, 45.058 140.437, 44.761 130.439, 44.561 123.634, 44.425 116.508, 44.130 107.571, 48.617 100.234, 52.300 91.149, 56.480 90.955, 56.570 85.647, 65.045 81.652, 71.425 76.555, 80.029 73.660, 84.915 75.209, 92.045 " />
            <path fill="none" stroke-width="3.0" stroke-linecap="butt" stroke-opacity="1.0" stroke="rgb(0, 0, 0)" stroke-linejoin="round" d=" M 65.982, 162.454 66.728, 164.416 67.433, 168.810 67.458, 168.896 67.939, 170.527 67.443, 168.958 67.458, 168.896 67.684, 167.968 67.452, 163.495 67.121, 162.276 65.982, 162.454 " />
            <path fill="none" stroke-width="3.0" stroke-linecap="butt" stroke-opacity="1.0" stroke="rgb(0, 0, 0)" stroke-linejoin="round" d=" M 116.972, 164.298 120.446, 166.362 120.544, 166.420 124.563, 168.808 125.599, 168.752 127.560, 168.648 134.172, 168.296 142.785, 163.214 147.376, 160.506 148.888, 160.434 157.942, 164.678 161.622, 166.402 162.503, 166.815 163.065, 166.785 170.033, 166.403 173.046, 162.893 174.260, 161.478 " />
            <path fill="none" stroke-width="3.0" stroke-linecap="butt" stroke-opacity="1.0" stroke="rgb(0, 0, 0)" stroke-linejoin="round" d=" M 88.330, 86.290 88.347, 86.619 88.713, 93.457 93.326, 86.846 98.257, 81.729 107.410, 77.500 116.995, 76.776 122.782, 79.736 128.433, 85.341 125.820, 78.207 " />
            <path fill="none" stroke-width="3.0" stroke-linecap="butt" stroke-opacity="1.0" stroke="rgb(0, 0, 0)" stroke-linejoin="round" d=" M 144.420, 80.542 147.632, 77.977 154.949, 78.961 162.461, 83.326 167.278, 88.189 172.246, 94.455 " />
            <path fill="none" stroke-width="3.0" stroke-linecap="butt" stroke-opacity="1.0" stroke="rgb(0, 0, 0)" stroke-linejoin="round" d=" M 144.851, 72.925 141.411, 77.380 140.379, 86.194 " />
            <path fill="none" stroke-width="3.0" stroke-linecap="butt" stroke-opacity="1.0" stroke="rgb(0, 0, 0)" stroke-linejoin="round" d=" M 112.409, 118.811 113.063, 119.400 " />
            <path fill="none" stroke-width="3.0" stroke-linecap="butt" stroke-opacity="1.0" stroke="rgb(0, 0, 0)" stroke-linejoin="round" d=" M 122.837, 95.208 119.585, 91.261 109.838, 91.623 103.263, 98.089 100.315, 106.140 101.250, 115.829 " />
            <path fill="none" stroke-width="3.0" stroke-linecap="butt" stroke-opacity="1.0" stroke="rgb(0, 0, 0)" stroke-linejoin="round" d=" M 154.257, 94.219 150.569, 90.838 143.308, 90.511 " />
            <path fill="none" stroke-width="3.0" stroke-linecap="butt" stroke-opacity="1.0" stroke="rgb(0, 0, 0)" stroke-linejoin="round" d=" M 166.452, 132.726 163.474, 133.536 153.480, 133.889 147.442, 134.101 137.442, 134.212 128.403, 134.312 118.491, 132.987 114.096, 132.400 105.190, 130.500 96.410, 125.715 95.284, 125.101 90.617, 121.751 88.095, 126.990 84.889, 133.138 84.825, 135.743 84.515, 139.177 85.197, 141.113 86.700, 144.869 87.581, 146.498 90.873, 149.897 93.903, 150.426 99.423, 152.443 102.414, 157.350 103.454, 159.259 104.948, 160.530 108.673, 163.567 115.477, 164.296 114.529, 163.551 114.051, 162.544 " />
            <path fill="none" stroke-width="3.0" stroke-linecap="butt" stroke-opacity="1.0" stroke="rgb(0, 0, 0)" stroke-linejoin="round" d=" M 171.968, 93.420 175.800, 98.288 181.431, 93.658 183.398, 92.041 184.037, 87.016 182.545, 85.556 187.759, 78.160 " />
            <path fill="none" stroke-width="3.0" stroke-linecap="butt" stroke-opacity="1.0" stroke="rgb(0, 0, 0)" stroke-linejoin="round" d=" M 80.521, 189.747 82.488, 192.374 86.128, 195.687 90.046, 198.930 97.561, 204.234 101.468, 206.992 101.892, 207.291 106.680, 210.670 111.718, 214.950 114.979, 216.392 119.782, 216.564 129.752, 215.798 138.845, 215.099 147.191, 212.635 152.782, 209.095 158.846, 203.502 166.717, 197.334 173.854, 191.742 180.057, 185.666 182.177, 183.618 184.774, 178.374 189.042, 169.330 191.396, 164.343 191.341, 160.318 192.110, 150.348 192.198, 149.210 191.751, 146.582 191.316, 145.901 " />
            <path fill="none" stroke-width="3.0" stroke-linecap="butt" stroke-opacity="1.0" stroke="rgb(0, 0, 0)" stroke-linejoin="round" d=" M 152.591, 175.480 160.285, 169.093 163.065, 166.785 " />
            <path fill="none" stroke-width="3.0" stroke-linecap="butt" stroke-opacity="1.0" stroke="rgb(0, 0, 0)" stroke-linejoin="round" d=" M 121.012, 172.480 120.290, 167.418 " />
            <path fill="none" stroke-width="3.0" stroke-linecap="butt" stroke-opacity="1.0" stroke="rgb(0, 0, 0)" stroke-linejoin="round" d=" M 125.599, 168.752 128.253, 170.695 127.560, 168.648 " />
            <path fill="none" stroke-width="3.0" stroke-linecap="butt" stroke-opacity="1.0" stroke="rgb(0, 0, 0)" stroke-linejoin="round" d=" M 59.241, 138.537 60.397, 139.555 59.846, 141.081 58.245, 145.523 57.605, 147.425 57.673, 148.672 59.117, 150.421 61.215, 151.169 65.047, 149.795 " />
            <path fill="none" stroke-width="3.0" stroke-linecap="butt" stroke-opacity="1.0" stroke="rgb(0, 0, 0)" stroke-linejoin="round" d=" M 157.790, 148.041 166.107, 144.405 169.567, 142.893 173.518, 141.166 176.520, 137.981 178.221, 136.177 181.870, 132.306 182.322, 131.826 183.587, 130.485 184.097, 129.943 185.212, 128.338 185.743, 127.329 185.212, 121.007 184.851, 116.713 183.192, 112.223 182.723, 110.954 179.759, 106.171 174.126, 99.990 167.640, 96.289 157.761, 94.739 154.557, 94.236 154.257, 94.219 148.211, 93.877 142.004, 94.469 141.966, 94.473 132.925, 95.336 130.704, 96.188 126.785, 101.109 126.758, 101.144 120.649, 108.814 119.118, 118.696 118.745, 121.101 118.456, 122.967 118.152, 124.924 118.024, 125.755 118.220, 124.914 118.672, 122.980 119.061, 121.313 122.590, 122.854 " />
            <path fill="none" stroke-width="3.0" stroke-linecap="butt" stroke-opacity="1.0" stroke="rgb(0, 0, 0)" stroke-linejoin="round" d=" M 74.123, 182.733 72.810, 184.698 70.321, 187.382 66.180, 196.483 66.108, 196.641 66.420, 197.096 73.271, 204.381 75.119, 206.346 82.141, 208.501 90.946, 206.800 91.299, 206.347 97.561, 204.234 " />
            <path fill="none" stroke-width="3.0" stroke-linecap="butt" stroke-opacity="1.0" stroke="rgb(0, 0, 0)" stroke-linejoin="round" d=" M 88.356, 86.241 88.347, 86.619 " />
            <path fill="none" stroke-width="3.0" stroke-linecap="butt" stroke-opacity="1.0" stroke="rgb(0, 0, 0)" stroke-linejoin="round" d=" M 118.745, 121.101 117.164, 120.381 116.261, 122.282 116.261, 122.282 111.794, 122.594 108.131, 123.219 104.852, 121.272 103.956, 120.389 103.955, 120.387 102.603, 118.108 " />
            <path fill="none" stroke-width="3.0" stroke-linecap="butt" stroke-opacity="1.0" stroke="rgb(0, 0, 0)" stroke-linejoin="round" d=" M 126.785, 101.109 123.002, 97.693 116.895, 96.792 116.535, 96.819 115.061, 97.552 111.171, 99.743 111.024, 100.128 108.902, 105.345 109.131, 108.157 109.436, 112.073 110.387, 114.312 112.294, 118.686 112.397, 118.780 112.629, 118.994 113.063, 119.400 " />
            <path fill="none" stroke-width="3.0" stroke-linecap="butt" stroke-opacity="1.0" stroke="rgb(0, 0, 0)" stroke-linejoin="round" d=" M 160.971, 45.812 152.775, 40.083 148.356, 36.994 142.921, 33.675 132.936, 33.137 131.811, 33.076 121.827, 32.513 111.843, 31.950 111.116, 31.909 101.057, 31.266 92.088, 35.688 88.509, 37.452 81.778, 41.280 75.183, 48.797 70.316, 54.343 63.536, 61.245 58.870, 70.089 54.203, 78.934 52.745, 81.698 48.489, 90.748 47.247, 93.389 46.855, 100.050 45.533, 109.962 44.211, 119.874 43.509, 125.139 43.441, 132.103 52.684, 135.919 55.410, 137.045 56.901, 139.464 54.778, 139.740 51.852, 142.526 47.691, 147.104 46.311, 151.436 44.072, 158.242 42.895, 163.374 43.362, 166.209 45.496, 175.868 45.528, 175.909 45.544, 175.921 45.594, 175.936 55.330, 178.219 58.963, 179.070 66.322, 178.601 69.461, 177.788 74.123, 182.733 " />
            <path fill="none" stroke-width="3.0" stroke-linecap="butt" stroke-opacity="1.0" stroke="rgb(0, 0, 0)" stroke-linejoin="round" d=" M 173.046, 162.893 174.176, 161.301 174.508, 160.833 175.779, 160.860 178.347, 160.273 181.182, 159.624 182.936, 156.867 184.345, 154.831 185.110, 151.088 185.238, 150.659 185.899, 148.437 189.954, 146.844 191.316, 145.901 191.664, 145.660 191.892, 142.504 192.587, 140.938 192.570, 137.091 192.605, 135.578 191.400, 131.066 191.117, 130.098 189.558, 127.893 185.212, 121.007 " />
            <path fill="none" stroke-width="3.0" stroke-linecap="butt" stroke-opacity="1.0" stroke="rgb(0, 0, 0)" stroke-linejoin="round" d=" M 183.192, 112.223 183.233, 111.645 182.557, 101.668 182.269, 97.409 181.431, 93.658 " />
        </g>
    </g>
</svg>
