<?xml version='1.0' encoding='ascii'?>
<svg xmlns="http://www.w3.org/2000/svg" version="1.1" width="250" height="250">
    <g id="ViewLayer_LineSet" xmlns:inkscape="http://www.inkscape.org/namespaces/inkscape" inkscape:groupmode="lineset" inkscape:label="ViewLayer_LineSet">
        <g xmlns:inkscape="http://www.inkscape.org/namespaces/inkscape" inkscape:groupmode="layer" id="strokes" inkscape:label="strokes">
            <path fill="none" stroke-width="3.0" stroke-linecap="butt" stroke-opacity="1.0" stroke="rgb(0, 0, 0)" stroke-linejoin="round" d=" M 144.720, 197.143 146.601, 195.269 148.449, 193.428 149.491, 192.391 149.674, 192.208 153.713, 192.061 156.756, 191.552 159.419, 188.705 161.021, 187.138 162.647, 183.475 164.132, 180.533 169.763, 178.270 171.881, 176.875 173.063, 173.352 174.616, 171.224 175.480, 167.882 176.238, 165.275 176.084, 162.172 175.865, 159.460 171.794, 151.512 170.082, 147.989 166.935, 151.095 160.767, 158.966 158.616, 161.711 151.255, 164.678 " />
            <path fill="none" stroke-width="3.0" stroke-linecap="butt" stroke-opacity="1.0" stroke="rgb(0, 0, 0)" stroke-linejoin="round" d=" M 105.478, 198.847 107.375, 199.140 107.412, 199.146 108.097, 198.960 111.173, 197.829 116.483, 195.877 " />
            <path fill="none" stroke-width="3.0" stroke-linecap="butt" stroke-opacity="1.0" stroke="rgb(0, 0, 0)" stroke-linejoin="round" d=" M 105.500, 98.873 108.769, 102.226 110.817, 104.307 " />
            <path fill="none" stroke-width="3.0" stroke-linecap="butt" stroke-opacity="1.0" stroke="rgb(0, 0, 0)" stroke-linejoin="round" d=" M 132.612, 103.688 133.790, 102.398 136.629, 99.759 " />
            <path fill="none" stroke-width="3.0" stroke-linecap="butt" stroke-opacity="1.0" stroke="rgb(0, 0, 0)" stroke-linejoin="round" d=" M 137.681, 144.552 140.719, 143.566 143.151, 142.621 144.252, 141.045 146.775, 137.182 146.943, 136.030 147.616, 129.995 146.633, 124.049 146.430, 122.957 143.697, 119.426 142.569, 117.991 139.526, 117.226 135.927, 116.423 135.847, 116.452 135.261, 116.663 " />
            <path fill="none" stroke-width="3.0" stroke-linecap="butt" stroke-opacity="1.0" stroke="rgb(0, 0, 0)" stroke-linejoin="round" d=" M 184.690, 104.307 177.673, 97.183 170.656, 90.058 168.676, 88.047 168.249, 87.905 168.094, 87.852 166.971, 87.468 168.074, 87.795 168.094, 87.852 " />
            <path fill="none" stroke-width="3.0" stroke-linecap="butt" stroke-opacity="1.0" stroke="rgb(0, 0, 0)" stroke-linejoin="round" d=" M 188.767, 121.613 194.576, 115.052 196.069, 105.164 197.562, 95.276 198.240, 90.788 197.910, 88.725 197.951, 87.364 195.695, 82.409 191.285, 73.434 186.875, 64.458 183.204, 56.988 179.657, 53.171 173.376, 45.390 168.921, 39.871 165.209, 36.367 163.744, 34.937 154.793, 30.479 145.842, 26.020 144.970, 25.586 142.022, 25.440 132.022, 25.469 122.022, 25.498 112.022, 25.527 105.319, 25.546 103.043, 25.566 100.716, 25.690 91.841, 30.298 83.453, 34.652 81.576, 35.761 81.339, 35.933 75.295, 43.900 69.251, 51.866 68.308, 53.108 63.485, 58.604 59.511, 67.781 55.536, 76.957 51.940, 85.258 51.775, 87.815 51.476, 89.300 51.812, 93.269 53.684, 103.092 55.555, 112.915 55.892, 114.682 59.972, 119.519 65.389, 126.604 64.962, 126.688 " />
            <path fill="none" stroke-width="3.0" stroke-linecap="butt" stroke-opacity="1.0" stroke="rgb(0, 0, 0)" stroke-linejoin="round" d=" M 135.332, 142.558 136.727, 144.914 136.966, 145.318 " />
            <path fill="none" stroke-width="3.0" stroke-linecap="butt" stroke-opacity="1.0" stroke="rgb(0, 0, 0)" stroke-linejoin="round" d=" M 135.061, 199.371 135.505, 199.311 143.553, 198.228 146.726, 195.277 148.876, 193.278 149.595, 192.609 " />
            <path fill="none" stroke-width="3.0" stroke-linecap="butt" stroke-opacity="1.0" stroke="rgb(0, 0, 0)" stroke-linejoin="round" d=" M 93.347, 192.133 99.143, 197.838 107.361, 199.146 " />
            <path fill="none" stroke-width="3.0" stroke-linecap="butt" stroke-opacity="1.0" stroke="rgb(0, 0, 0)" stroke-linejoin="round" d=" M 77.347, 111.928 82.017, 105.209 86.893, 100.224 95.633, 97.024 104.585, 98.013 " />
            <path fill="none" stroke-width="3.0" stroke-linecap="butt" stroke-opacity="1.0" stroke="rgb(0, 0, 0)" stroke-linejoin="round" d=" M 114.768, 109.411 112.415, 101.836 108.331, 93.947 102.469, 89.859 " />
            <path fill="none" stroke-width="3.0" stroke-linecap="butt" stroke-opacity="1.0" stroke="rgb(0, 0, 0)" stroke-linejoin="round" d=" M 138.607, 97.974 148.120, 96.980 157.255, 100.180 162.374, 105.195 167.257, 111.960 " />
            <path fill="none" stroke-width="3.0" stroke-linecap="butt" stroke-opacity="1.0" stroke="rgb(0, 0, 0)" stroke-linejoin="round" d=" M 135.842, 92.613 130.419, 99.354 128.265, 109.119 128.216, 109.339 " />
            <path fill="none" stroke-width="3.0" stroke-linecap="butt" stroke-opacity="1.0" stroke="rgb(0, 0, 0)" stroke-linejoin="round" d=" M 135.819, 116.443 132.191, 117.871 " />
            <path fill="none" stroke-width="3.0" stroke-linecap="butt" stroke-opacity="1.0" stroke="rgb(0, 0, 0)" stroke-linejoin="round" d=" M 138.212, 145.095 146.351, 143.644 151.447, 138.282 153.897, 130.861 154.015, 120.862 154.021, 120.347 150.619, 111.860 144.128, 106.649 134.833, 108.237 132.297, 113.501 132.191, 117.871 " />
            <path fill="none" stroke-width="3.0" stroke-linecap="butt" stroke-opacity="1.0" stroke="rgb(0, 0, 0)" stroke-linejoin="round" d=" M 111.446, 114.774 109.028, 109.487 100.145, 107.858 94.186, 112.892 90.986, 120.940 91.094, 130.939 91.098, 131.279 93.314, 138.606 98.296, 143.549 103.197, 144.529 " />
            <path fill="none" stroke-width="3.0" stroke-linecap="butt" stroke-opacity="1.0" stroke="rgb(0, 0, 0)" stroke-linejoin="round" d=" M 178.102, 103.936 184.510, 105.746 183.439, 104.824 182.645, 104.534 184.690, 104.307 " />
            <path fill="none" stroke-width="3.0" stroke-linecap="butt" stroke-opacity="1.0" stroke="rgb(0, 0, 0)" stroke-linejoin="round" d=" M 60.702, 120.834 63.102, 124.011 63.373, 127.001 63.615, 129.682 63.780, 131.667 63.356, 132.531 59.200, 141.626 58.253, 143.698 58.456, 148.577 60.197, 152.924 62.700, 155.070 63.336, 159.412 63.381, 164.335 63.453, 172.153 63.508, 172.459 63.528, 172.508 63.600, 172.696 64.129, 173.505 69.691, 181.816 75.293, 190.185 84.570, 193.921 89.154, 195.766 92.181, 199.665 97.342, 201.951 98.980, 202.836 99.501, 203.116 " />
            <path fill="none" stroke-width="3.0" stroke-linecap="butt" stroke-opacity="1.0" stroke="rgb(0, 0, 0)" stroke-linejoin="round" d=" M 146.457, 203.689 146.909, 203.453 149.198, 202.135 157.305, 198.757 156.961, 196.562 166.401, 193.261 171.196, 191.585 176.804, 183.306 178.873, 180.251 182.717, 174.369 183.367, 172.924 183.501, 172.509 184.101, 169.239 184.247, 166.119 184.567, 159.312 185.130, 156.390 186.389, 155.485 189.681, 148.648 190.421, 144.997 186.613, 135.751 186.499, 135.475 185.082, 132.585 185.834, 127.167 185.877, 126.857 186.110, 125.204 186.152, 124.900 186.169, 124.784 187.129, 123.565 186.152, 124.900 " />
            <path fill="none" stroke-width="3.0" stroke-linecap="butt" stroke-opacity="1.0" stroke="rgb(0, 0, 0)" stroke-linejoin="round" d=" M 75.133, 87.404 75.136, 87.333 78.769, 86.043 75.133, 87.404 73.888, 87.871 71.853, 88.599 65.423, 96.258 60.150, 102.539 65.701, 103.285 63.888, 104.036 61.940, 106.188 67.519, 104.375 " />
            <path fill="none" stroke-width="3.0" stroke-linecap="butt" stroke-opacity="1.0" stroke="rgb(0, 0, 0)" stroke-linejoin="round" d=" M 148.876, 193.278 151.257, 192.440 150.467, 195.533 146.726, 195.277 " />
            <path fill="none" stroke-width="3.0" stroke-linecap="butt" stroke-opacity="1.0" stroke="rgb(0, 0, 0)" stroke-linejoin="round" d=" M 105.976, 143.810 105.997, 143.750 106.447, 142.445 106.520, 142.233 106.555, 142.302 109.415, 141.876 106.447, 142.445 105.641, 142.600 104.654, 143.379 104.531, 143.476 103.197, 144.529 99.020, 147.826 93.356, 151.404 90.377, 159.110 87.377, 162.607 87.335, 162.668 86.950, 163.224 86.596, 169.237 86.485, 171.107 86.431, 172.024 87.475, 181.592 87.646, 181.666 87.904, 181.860 88.847, 183.265 94.810, 188.843 96.180, 190.125 97.586, 191.440 98.312, 192.200 98.504, 192.253 103.389, 193.615 105.728, 194.267 113.609, 195.610 115.328, 195.769 116.483, 195.877 119.483, 196.155 125.332, 195.588 126.126, 195.511 130.041, 195.132 132.900, 194.735 134.193, 194.480 139.690, 192.719 141.495, 191.473 143.734, 188.634 146.205, 185.499 149.303, 181.570 150.837, 176.934 152.158, 169.581 151.255, 164.678 151.233, 164.559 149.492, 161.433 146.551, 151.875 146.359, 151.252 141.868, 148.318 138.212, 145.095 137.621, 144.575 135.332, 142.558 " />
            <path fill="none" stroke-width="3.0" stroke-linecap="butt" stroke-opacity="1.0" stroke="rgb(0, 0, 0)" stroke-linejoin="round" d=" M 63.373, 127.001 62.460, 127.182 61.557, 127.513 57.791, 131.883 57.294, 134.685 55.923, 139.957 55.205, 142.954 55.729, 148.139 56.727, 154.540 59.440, 157.410 63.381, 164.335 " />
            <path fill="none" stroke-width="3.0" stroke-linecap="butt" stroke-opacity="1.0" stroke="rgb(0, 0, 0)" stroke-linejoin="round" d=" M 87.335, 162.668 84.076, 161.273 82.884, 159.951 82.833, 159.895 80.081, 156.843 74.318, 148.671 73.405, 147.377 71.657, 151.121 70.133, 154.192 67.875, 158.746 67.709, 162.118 67.566, 163.966 67.525, 164.493 68.357, 167.984 69.017, 170.378 70.369, 174.468 71.434, 176.189 76.289, 178.148 78.769, 179.895 80.114, 182.547 81.830, 186.512 84.839, 189.688 86.094, 190.960 88.966, 191.489 93.030, 191.714 93.396, 192.023 97.288, 195.300 98.173, 196.884 " />
            <path fill="none" stroke-width="3.0" stroke-linecap="butt" stroke-opacity="1.0" stroke="rgb(0, 0, 0)" stroke-linejoin="round" d=" M 99.390, 202.843 99.501, 203.116 99.522, 203.167 102.031, 207.068 102.817, 207.964 111.625, 212.868 116.108, 213.108 122.471, 215.221 127.641, 213.095 133.588, 212.627 142.665, 208.518 143.049, 208.136 146.309, 203.976 146.457, 203.689 146.799, 203.021 " />
            <path fill="none" stroke-width="3.0" stroke-linecap="butt" stroke-opacity="1.0" stroke="rgb(0, 0, 0)" stroke-linejoin="round" d=" M 106.988, 116.136 106.558, 116.033 103.517, 117.005 100.249, 118.264 99.581, 119.379 96.911, 123.662 96.871, 124.122 96.326, 130.711 97.836, 137.190 97.978, 137.765 100.960, 141.526 102.218, 142.913 104.531, 143.476 " />
            <path fill="none" stroke-width="3.0" stroke-linecap="butt" stroke-opacity="1.0" stroke="rgb(0, 0, 0)" stroke-linejoin="round" d=" M 111.173, 197.829 113.064, 198.779 123.046, 199.378 124.607, 199.472 130.318, 199.863 133.405, 198.708 " />
            <path fill="none" stroke-width="3.0" stroke-linecap="butt" stroke-opacity="1.0" stroke="rgb(0, 0, 0)" stroke-linejoin="round" d=" M 125.332, 195.588 126.663, 195.975 133.405, 198.708 135.039, 199.370 135.055, 199.368 135.156, 199.354 135.505, 199.311 " />
            <path fill="none" stroke-width="3.0" stroke-linecap="butt" stroke-opacity="1.0" stroke="rgb(0, 0, 0)" stroke-linejoin="round" d=" M 166.999, 105.283 167.106, 103.159 163.693, 97.236 163.355, 96.731 163.291, 96.695 " />
            <path fill="none" stroke-width="3.0" stroke-linecap="butt" stroke-opacity="1.0" stroke="rgb(0, 0, 0)" stroke-linejoin="round" d=" M 184.247, 166.119 185.182, 166.442 185.984, 166.255 186.766, 165.779 191.744, 158.188 194.355, 155.685 195.718, 148.679 196.205, 144.016 195.395, 140.486 193.606, 134.491 192.956, 132.015 189.307, 128.047 187.591, 127.477 185.834, 127.167 " />
            <path fill="none" stroke-width="3.0" stroke-linecap="butt" stroke-opacity="1.0" stroke="rgb(0, 0, 0)" stroke-linejoin="round" d=" M 186.110, 125.204 188.767, 121.613 " />
        </g>
    </g>
</svg>
