<?xml version='1.0' encoding='ascii'?>
<svg xmlns="http://www.w3.org/2000/svg" version="1.1" width="250" height="250">
    <g id="ViewLayer_LineSet" xmlns:inkscape="http://www.inkscape.org/namespaces/inkscape" inkscape:groupmode="lineset" inkscape:label="ViewLayer_LineSet">
        <g xmlns:inkscape="http://www.inkscape.org/namespaces/inkscape" inkscape:groupmode="layer" id="strokes" inkscape:label="strokes">
            <path fill="none" stroke-width="3.0" stroke-linecap="butt" stroke-opacity="1.0" stroke="rgb(0, 0, 0)" stroke-linejoin="round" d=" M 144.928, 185.563 147.850, 182.453 148.043, 182.248 150.648, 182.277 155.571, 181.535 157.852, 179.080 159.993, 176.957 161.419, 173.646 163.193, 169.997 168.138, 168.288 171.079, 166.592 172.154, 163.561 174.035, 161.099 174.780, 158.026 175.573, 155.083 175.325, 151.917 174.999, 149.064 171.392, 142.356 168.994, 137.577 164.032, 141.855 157.394, 149.333 157.162, 149.594 148.853, 152.497 " />
            <path fill="none" stroke-width="3.0" stroke-linecap="butt" stroke-opacity="1.0" stroke="rgb(0, 0, 0)" stroke-linejoin="round" d=" M 179.766, 90.713 174.106, 82.469 168.445, 74.226 167.874, 73.394 162.061, 71.078 152.892, 67.086 143.724, 63.094 143.246, 62.886 141.288, 62.898 131.288, 62.907 121.288, 62.916 117.673, 62.920 107.674, 63.063 97.675, 63.205 95.022, 63.243 92.426, 63.268 83.463, 67.702 76.737, 71.028 69.404, 74.229 64.973, 83.194 60.542, 92.158 59.923, 93.412 62.807, 95.181 61.795, 95.885 61.089, 97.639 " />
            <path fill="none" stroke-width="3.0" stroke-linecap="butt" stroke-opacity="1.0" stroke="rgb(0, 0, 0)" stroke-linejoin="round" d=" M 189.219, 126.385 195.771, 120.251 196.573, 110.283 197.375, 100.315 197.892, 93.896 197.530, 91.055 197.531, 89.725 196.086, 86.487 191.685, 77.508 187.285, 68.528 182.884, 59.548 182.246, 58.247 176.407, 52.000 170.061, 44.272 164.032, 36.929 160.926, 34.978 152.063, 30.346 143.562, 25.903 140.083, 26.091 130.085, 26.301 120.087, 26.510 110.090, 26.719 106.325, 26.798 102.215, 26.785 93.599, 31.862 87.606, 35.393 82.328, 39.094 76.282, 47.058 73.120, 51.222 66.575, 58.783 65.439, 60.095 61.581, 69.321 57.724, 78.547 56.315, 81.917 55.220, 88.749 54.463, 91.887 54.492, 97.921 55.757, 107.840 57.022, 117.760 57.145, 118.723 60.897, 122.805 63.743, 127.069 " />
            <path fill="none" stroke-width="3.0" stroke-linecap="butt" stroke-opacity="1.0" stroke="rgb(0, 0, 0)" stroke-linejoin="round" d=" M 97.013, 126.806 96.293, 127.249 91.703, 130.075 87.876, 132.430 86.530, 136.002 84.469, 137.074 84.934, 140.210 83.867, 141.856 82.614, 149.474 82.512, 150.095 82.287, 157.883 84.126, 158.975 88.868, 163.039 94.266, 167.968 95.391, 168.707 103.709, 174.174 109.717, 175.598 116.547, 176.589 122.565, 175.848 125.921, 175.026 135.089, 171.032 141.461, 168.257 141.558, 168.158 144.369, 165.261 147.891, 155.902 148.002, 155.608 148.853, 152.497 149.286, 150.914 148.766, 146.043 146.911, 141.824 145.525, 136.522 144.740, 133.515 142.952, 132.324 142.615, 132.099 137.428, 128.640 133.803, 126.006 130.450, 125.298 125.345, 124.221 125.343, 124.220 117.286, 123.125 116.071, 123.246 106.824, 124.169 99.662, 125.344 97.755, 126.397 97.013, 126.806 " />
            <path fill="none" stroke-width="3.0" stroke-linecap="butt" stroke-opacity="1.0" stroke="rgb(0, 0, 0)" stroke-linejoin="round" d=" M 122.336, 183.916 129.234, 187.293 132.724, 189.002 136.121, 188.764 141.663, 188.375 143.912, 186.438 144.234, 186.161 148.039, 182.883 " />
            <path fill="none" stroke-width="3.0" stroke-linecap="butt" stroke-opacity="1.0" stroke="rgb(0, 0, 0)" stroke-linejoin="round" d=" M 89.743, 182.021 95.486, 187.649 97.126, 187.825 103.903, 188.551 " />
            <path fill="none" stroke-width="3.0" stroke-linecap="butt" stroke-opacity="1.0" stroke="rgb(0, 0, 0)" stroke-linejoin="round" d=" M 77.023, 103.400 81.829, 96.574 86.733, 91.385 95.283, 87.556 103.909, 87.700 107.482, 90.738 " />
            <path fill="none" stroke-width="3.0" stroke-linecap="butt" stroke-opacity="1.0" stroke="rgb(0, 0, 0)" stroke-linejoin="round" d=" M 113.591, 98.135 111.385, 90.481 107.631, 83.534 102.085, 80.226 " />
            <path fill="none" stroke-width="3.0" stroke-linecap="butt" stroke-opacity="1.0" stroke="rgb(0, 0, 0)" stroke-linejoin="round" d=" M 132.102, 91.951 137.319, 87.906 146.788, 87.715 155.914, 91.570 161.062, 96.765 166.025, 103.675 " />
            <path fill="none" stroke-width="3.0" stroke-linecap="butt" stroke-opacity="1.0" stroke="rgb(0, 0, 0)" stroke-linejoin="round" d=" M 134.595, 82.461 129.158, 88.495 126.950, 98.248 126.913, 98.410 " />
            <path fill="none" stroke-width="3.0" stroke-linecap="butt" stroke-opacity="1.0" stroke="rgb(0, 0, 0)" stroke-linejoin="round" d=" M 145.525, 136.522 150.533, 131.266 153.014, 124.045 153.060, 114.045 153.064, 113.297 149.593, 104.516 143.089, 98.942 133.783, 99.747 131.197, 104.667 131.041, 108.980 " />
            <path fill="none" stroke-width="3.0" stroke-linecap="butt" stroke-opacity="1.0" stroke="rgb(0, 0, 0)" stroke-linejoin="round" d=" M 110.504, 105.768 108.269, 100.911 99.663, 100.161 93.758, 105.976 90.380, 114.211 90.161, 124.208 90.154, 124.506 91.703, 130.075 " />
            <path fill="none" stroke-width="3.0" stroke-linecap="butt" stroke-opacity="1.0" stroke="rgb(0, 0, 0)" stroke-linejoin="round" d=" M 176.831, 98.569 182.778, 95.617 179.766, 90.713 " />
            <path fill="none" stroke-width="3.0" stroke-linecap="butt" stroke-opacity="1.0" stroke="rgb(0, 0, 0)" stroke-linejoin="round" d=" M 63.740, 126.824 62.279, 124.592 63.737, 126.555 63.740, 126.824 63.743, 127.069 63.798, 131.738 63.802, 132.068 64.065, 131.980 64.066, 132.346 63.152, 133.460 57.843, 141.935 57.480, 142.515 57.450, 147.554 59.064, 151.882 61.248, 152.922 61.469, 156.194 60.986, 166.182 60.928, 167.393 61.082, 168.741 61.143, 169.266 61.247, 169.584 61.730, 170.909 66.838, 179.506 71.946, 188.103 74.228, 191.945 74.624, 192.219 75.310, 192.816 84.020, 197.728 92.731, 202.640 96.080, 204.529 104.388, 209.753 108.257, 211.502 117.764, 214.604 118.038, 214.693 121.988, 216.541 125.026, 215.295 134.803, 213.195 137.735, 212.565 138.985, 212.060 147.461, 206.753 148.841, 205.889 157.696, 201.242 161.432, 199.281 169.153, 193.295 173.089, 189.841 178.359, 181.342 181.893, 175.642 183.447, 171.940 183.980, 170.671 184.317, 169.380 185.968, 160.133 185.998, 156.948 186.201, 156.048 186.719, 155.959 190.736, 148.417 191.227, 145.190 187.330, 137.170 185.738, 134.365 186.208, 131.720 186.389, 130.701 186.723, 128.818 185.926, 131.406 " />
            <path fill="none" stroke-width="3.0" stroke-linecap="butt" stroke-opacity="1.0" stroke="rgb(0, 0, 0)" stroke-linejoin="round" d=" M 144.234, 186.161 144.670, 186.192 145.487, 185.542 143.940, 187.432 143.912, 186.438 " />
            <path fill="none" stroke-width="3.0" stroke-linecap="butt" stroke-opacity="1.0" stroke="rgb(0, 0, 0)" stroke-linejoin="round" d=" M 63.798, 131.738 61.408, 133.791 58.133, 137.640 57.455, 141.624 56.151, 146.296 55.287, 149.166 55.532, 154.478 56.106, 160.960 58.482, 163.164 60.892, 168.645 61.082, 168.741 " />
            <path fill="none" stroke-width="3.0" stroke-linecap="butt" stroke-opacity="1.0" stroke="rgb(0, 0, 0)" stroke-linejoin="round" d=" M 82.614, 149.474 81.245, 148.939 76.259, 143.679 71.165, 136.783 68.507, 142.077 68.145, 142.742 65.327, 147.926 64.955, 151.572 64.652, 153.817 65.300, 157.338 65.830, 159.749 66.810, 163.284 68.058, 165.380 69.915, 166.073 72.373, 166.991 75.182, 168.845 76.596, 171.948 78.055, 175.776 80.548, 178.602 82.237, 180.444 84.926, 180.936 86.741, 181.269 89.485, 181.315 89.902, 181.646 92.284, 183.542 92.910, 185.125 " />
            <path fill="none" stroke-width="3.0" stroke-linecap="butt" stroke-opacity="1.0" stroke="rgb(0, 0, 0)" stroke-linejoin="round" d=" M 105.065, 188.010 106.040, 188.804 110.988, 191.673 116.737, 192.113 126.696, 193.012 127.427, 193.078 131.389, 191.412 136.121, 188.764 " />
            <path fill="none" stroke-width="3.0" stroke-linecap="butt" stroke-opacity="1.0" stroke="rgb(0, 0, 0)" stroke-linejoin="round" d=" M 107.482, 90.738 108.331, 91.436 108.412, 91.528 109.043, 92.246 " />
            <path fill="none" stroke-width="3.0" stroke-linecap="butt" stroke-opacity="1.0" stroke="rgb(0, 0, 0)" stroke-linejoin="round" d=" M 109.851, 108.536 104.965, 107.342 103.517, 107.842 99.274, 109.616 99.044, 109.786 99.001, 109.810 96.117, 115.125 96.003, 115.331 95.173, 122.184 95.169, 122.231 95.175, 122.278 95.219, 122.666 96.293, 127.249 " />
            <path fill="none" stroke-width="3.0" stroke-linecap="butt" stroke-opacity="1.0" stroke="rgb(0, 0, 0)" stroke-linejoin="round" d=" M 114.096, 183.804 117.382, 182.304 117.518, 182.308 118.919, 182.335 119.632, 182.593 120.215, 182.803 122.336, 183.916 " />
            <path fill="none" stroke-width="3.0" stroke-linecap="butt" stroke-opacity="1.0" stroke="rgb(0, 0, 0)" stroke-linejoin="round" d=" M 142.952, 132.324 143.346, 131.793 145.393, 128.857 145.734, 126.911 146.443, 121.624 145.519, 115.068 145.425, 114.476 142.275, 110.023 141.792, 109.345 137.527, 108.065 135.380, 107.501 131.236, 108.918 " />
            <path fill="none" stroke-width="3.0" stroke-linecap="butt" stroke-opacity="1.0" stroke="rgb(0, 0, 0)" stroke-linejoin="round" d=" M 183.447, 171.940 187.145, 171.478 191.861, 169.237 194.473, 164.906 196.601, 163.259 197.844, 155.720 198.196, 151.300 197.200, 147.540 195.347, 141.731 194.424, 138.264 190.193, 133.715 188.743, 132.560 186.208, 131.720 " />
            <path fill="none" stroke-width="3.0" stroke-linecap="butt" stroke-opacity="1.0" stroke="rgb(0, 0, 0)" stroke-linejoin="round" d=" M 186.389, 130.701 189.219, 126.385 " />
        </g>
    </g>
</svg>
