<?xml version='1.0' encoding='ascii'?>
<svg xmlns="http://www.w3.org/2000/svg" version="1.1" width="250" height="250">
    <g id="ViewLayer_LineSet" xmlns:inkscape="http://www.inkscape.org/namespaces/inkscape" inkscape:groupmode="lineset" inkscape:label="ViewLayer_LineSet">
        <g xmlns:inkscape="http://www.inkscape.org/namespaces/inkscape" inkscape:groupmode="layer" id="strokes" inkscape:label="strokes">
            <path fill="none" stroke-width="3.0" stroke-linecap="butt" stroke-opacity="1.0" stroke="rgb(0, 0, 0)" stroke-linejoin="round" d=" M 108.409, 109.419 103.963, 108.317 102.396, 108.839 98.287, 110.523 98.033, 110.720 97.979, 110.749 95.220, 115.997 95.062, 116.288 94.293, 122.893 94.272, 123.133 94.304, 123.370 94.550, 125.514 95.292, 128.784 " />
            <path fill="none" stroke-width="3.0" stroke-linecap="butt" stroke-opacity="1.0" stroke="rgb(0, 0, 0)" stroke-linejoin="round" d=" M 177.005, 89.963 170.978, 81.983 165.592, 74.852 160.661, 72.967 151.424, 69.135 142.188, 65.303 140.778, 64.718 139.638, 64.728 129.638, 64.776 119.638, 64.823 115.167, 64.845 105.169, 65.007 95.170, 65.168 92.122, 65.218 90.023, 65.247 81.062, 69.686 74.567, 72.905 67.415, 76.025 63.100, 85.046 59.100, 93.408 63.411, 95.782 62.048, 96.739 61.152, 99.136 " />
            <path fill="none" stroke-width="3.0" stroke-linecap="butt" stroke-opacity="1.0" stroke="rgb(0, 0, 0)" stroke-linejoin="round" d=" M 189.666, 126.659 196.833, 119.918 197.605, 109.948 198.378, 99.977 198.640, 96.595 197.898, 91.384 197.868, 88.845 194.922, 82.462 190.403, 73.541 185.885, 64.620 182.321, 57.583 177.188, 52.196 170.777, 44.522 164.366, 36.847 163.700, 36.050 161.645, 34.784 152.731, 30.250 143.818, 25.716 143.003, 25.301 140.324, 25.482 130.328, 25.786 120.333, 26.090 110.337, 26.393 105.394, 26.544 101.784, 26.568 93.226, 31.740 87.057, 35.468 81.869, 39.205 75.910, 47.236 72.945, 51.233 66.474, 58.857 65.235, 60.318 61.503, 69.596 57.772, 78.873 57.278, 80.102 56.153, 88.213 55.332, 92.018 55.512, 99.526 56.952, 109.422 58.188, 117.920 61.447, 121.661 62.612, 123.379 64.433, 126.063 " />
            <path fill="none" stroke-width="3.0" stroke-linecap="butt" stroke-opacity="1.0" stroke="rgb(0, 0, 0)" stroke-linejoin="round" d=" M 105.878, 208.035 107.406, 208.924 107.407, 208.924 109.305, 209.210 109.602, 209.962 " />
            <path fill="none" stroke-width="3.0" stroke-linecap="butt" stroke-opacity="1.0" stroke="rgb(0, 0, 0)" stroke-linejoin="round" d=" M 94.393, 129.264 90.998, 131.237 85.109, 134.659 83.851, 137.735 81.991, 138.614 82.565, 142.502 81.227, 144.642 80.247, 150.489 79.888, 152.627 79.868, 161.722 80.989, 162.271 83.788, 164.417 91.268, 171.054 91.493, 171.254 92.823, 172.166 98.271, 175.900 104.927, 177.410 105.732, 177.592 109.513, 178.134 113.724, 178.739 120.485, 177.957 123.987, 177.081 133.086, 172.931 139.032, 170.218 139.531, 169.705 141.768, 167.401 145.041, 157.952 145.264, 157.308 145.993, 154.502 146.320, 153.243 145.875, 149.246 144.386, 145.816 142.326, 137.704 141.901, 136.028 140.484, 135.074 140.316, 134.961 135.456, 131.689 131.215, 128.431 129.089, 127.979 124.301, 126.959 121.355, 126.332 114.971, 125.418 114.713, 125.444 105.857, 126.341 97.382, 127.668 96.896, 127.927 95.292, 128.784 94.393, 129.264 " />
            <path fill="none" stroke-width="3.0" stroke-linecap="butt" stroke-opacity="1.0" stroke="rgb(0, 0, 0)" stroke-linejoin="round" d=" M 127.463, 188.930 130.659, 190.501 133.880, 190.278 139.629, 189.879 142.216, 187.678 142.316, 187.593 142.818, 187.165 146.078, 184.391 " />
            <path fill="none" stroke-width="3.0" stroke-linecap="butt" stroke-opacity="1.0" stroke="rgb(0, 0, 0)" stroke-linejoin="round" d=" M 88.223, 183.145 91.644, 186.619 93.820, 188.829 102.069, 189.848 " />
            <path fill="none" stroke-width="3.0" stroke-linecap="butt" stroke-opacity="1.0" stroke="rgb(0, 0, 0)" stroke-linejoin="round" d=" M 76.124, 104.327 80.852, 97.520 85.673, 92.355 94.078, 88.591 102.559, 88.824 " />
            <path fill="none" stroke-width="3.0" stroke-linecap="butt" stroke-opacity="1.0" stroke="rgb(0, 0, 0)" stroke-linejoin="round" d=" M 112.110, 99.383 109.885, 91.723 106.242, 84.660 100.799, 81.267 " />
            <path fill="none" stroke-width="3.0" stroke-linecap="butt" stroke-opacity="1.0" stroke="rgb(0, 0, 0)" stroke-linejoin="round" d=" M 130.675, 93.112 135.982, 88.972 145.585, 88.679 154.835, 92.472 160.026, 97.675 165.016, 104.612 " />
            <path fill="none" stroke-width="3.0" stroke-linecap="butt" stroke-opacity="1.0" stroke="rgb(0, 0, 0)" stroke-linejoin="round" d=" M 133.234, 83.518 127.706, 89.661 125.505, 99.416 125.459, 99.619 " />
            <path fill="none" stroke-width="3.0" stroke-linecap="butt" stroke-opacity="1.0" stroke="rgb(0, 0, 0)" stroke-linejoin="round" d=" M 144.327, 137.601 149.510, 132.189 152.066, 124.913 152.130, 114.913 152.134, 114.136 148.641, 105.341 142.081, 99.780 132.656, 100.679 130.021, 105.656 129.840, 109.994 " />
            <path fill="none" stroke-width="3.0" stroke-linecap="butt" stroke-opacity="1.0" stroke="rgb(0, 0, 0)" stroke-linejoin="round" d=" M 109.343, 106.768 107.169, 101.852 98.714, 100.998 92.958, 106.724 89.640, 114.933 89.418, 124.930 89.411, 125.231 90.998, 131.237 " />
            <path fill="none" stroke-width="3.0" stroke-linecap="butt" stroke-opacity="1.0" stroke="rgb(0, 0, 0)" stroke-linejoin="round" d=" M 176.203, 98.835 181.468, 96.483 177.005, 89.963 " />
            <path fill="none" stroke-width="3.0" stroke-linecap="butt" stroke-opacity="1.0" stroke="rgb(0, 0, 0)" stroke-linejoin="round" d=" M 64.433, 126.073 62.458, 123.166 62.612, 123.379 64.435, 125.900 64.433, 126.063 64.433, 126.073 64.374, 131.237 64.877, 131.089 64.885, 131.086 64.850, 131.867 63.037, 134.085 58.754, 140.851 57.872, 142.243 57.849, 144.206 57.810, 147.510 59.117, 151.260 61.495, 152.617 61.591, 156.513 61.202, 165.189 61.002, 169.671 61.017, 169.815 61.025, 169.839 61.063, 169.939 62.212, 171.860 67.378, 180.422 72.544, 188.984 73.848, 191.147 76.731, 192.579 77.226, 193.590 85.966, 198.448 94.707, 203.306 95.781, 203.902 102.782, 208.287 108.196, 210.903 115.361, 213.403 121.505, 216.314 125.727, 214.614 135.518, 212.581 137.240, 212.224 139.181, 211.449 147.719, 206.244 148.520, 205.756 157.435, 201.227 161.194, 199.318 168.647, 193.606 172.623, 190.102 177.954, 181.642 181.108, 176.635 183.115, 171.839 183.420, 171.110 183.793, 169.638 185.713, 159.824 185.880, 158.971 185.915, 157.286 186.044, 156.807 186.328, 156.742 190.759, 148.709 191.263, 145.713 187.925, 138.202 186.040, 134.615 186.708, 131.337 186.763, 131.066 187.182, 129.013 " />
            <path fill="none" stroke-width="3.0" stroke-linecap="butt" stroke-opacity="1.0" stroke="rgb(0, 0, 0)" stroke-linejoin="round" d=" M 142.216, 187.678 142.313, 187.686 142.886, 187.738 143.887, 186.977 142.277, 188.924 142.313, 187.686 " />
            <path fill="none" stroke-width="3.0" stroke-linecap="butt" stroke-opacity="1.0" stroke="rgb(0, 0, 0)" stroke-linejoin="round" d=" M 103.401, 205.716 105.878, 208.035 " />
            <path fill="none" stroke-width="3.0" stroke-linecap="butt" stroke-opacity="1.0" stroke="rgb(0, 0, 0)" stroke-linejoin="round" d=" M 57.849, 144.206 57.544, 145.337 56.723, 148.054 56.975, 153.522 57.500, 159.796 59.923, 162.191 61.202, 165.189 " />
            <path fill="none" stroke-width="3.0" stroke-linecap="butt" stroke-opacity="1.0" stroke="rgb(0, 0, 0)" stroke-linejoin="round" d=" M 64.877, 131.089 62.548, 133.058 59.338, 136.886 58.759, 140.832 58.754, 140.851 " />
            <path fill="none" stroke-width="3.0" stroke-linecap="butt" stroke-opacity="1.0" stroke="rgb(0, 0, 0)" stroke-linejoin="round" d=" M 80.247, 150.489 79.773, 150.295 75.143, 145.176 70.016, 137.925 68.571, 140.834 67.393, 143.207 64.264, 149.027 63.893, 152.742 63.612, 154.882 64.265, 158.513 64.755, 160.801 65.733, 164.494 66.865, 166.449 68.603, 167.130 71.237, 168.161 73.856, 169.971 75.186, 172.919 76.672, 176.877 79.229, 179.820 80.785, 181.542 84.924, 182.338 87.886, 182.425 88.359, 182.820 90.447, 184.562 90.871, 184.915 91.082, 185.379 91.644, 186.619 " />
            <path fill="none" stroke-width="3.0" stroke-linecap="butt" stroke-opacity="1.0" stroke="rgb(0, 0, 0)" stroke-linejoin="round" d=" M 105.449, 91.380 106.702, 92.505 107.812, 93.736 " />
            <path fill="none" stroke-width="3.0" stroke-linecap="butt" stroke-opacity="1.0" stroke="rgb(0, 0, 0)" stroke-linejoin="round" d=" M 103.573, 189.160 109.322, 192.503 115.925, 193.073 125.851, 194.073 130.225, 192.286 133.880, 190.278 " />
            <path fill="none" stroke-width="3.0" stroke-linecap="butt" stroke-opacity="1.0" stroke="rgb(0, 0, 0)" stroke-linejoin="round" d=" M 110.993, 185.766 115.335, 183.829 115.512, 183.836 116.844, 183.887 118.197, 184.374 118.727, 184.565 121.819, 186.155 " />
            <path fill="none" stroke-width="3.0" stroke-linecap="butt" stroke-opacity="1.0" stroke="rgb(0, 0, 0)" stroke-linejoin="round" d=" M 140.484, 135.074 142.145, 132.817 144.153, 129.934 144.533, 127.780 145.227, 122.680 144.366, 116.521 144.207, 115.514 141.220, 111.294 140.560, 110.368 136.506, 109.155 134.142, 108.530 130.169, 109.889 " />
            <path fill="none" stroke-width="3.0" stroke-linecap="butt" stroke-opacity="1.0" stroke="rgb(0, 0, 0)" stroke-linejoin="round" d=" M 142.818, 187.165 145.878, 183.943 146.034, 183.779 148.747, 183.813 153.567, 183.116 155.871, 180.681 158.038, 178.572 159.472, 175.310 161.275, 171.630 166.261, 169.923 169.262, 168.205 170.377, 165.184 172.337, 162.675 173.102, 159.666 173.957, 156.634 173.743, 153.582 173.426, 150.599 169.675, 143.554 167.403, 139.007 162.533, 143.183 155.845, 150.618 155.259, 151.269 145.993, 154.502 " />
            <path fill="none" stroke-width="3.0" stroke-linecap="butt" stroke-opacity="1.0" stroke="rgb(0, 0, 0)" stroke-linejoin="round" d=" M 183.115, 171.839 187.669, 171.276 192.429, 168.974 195.283, 164.578 197.399, 162.942 198.799, 155.242 199.184, 150.964 198.193, 147.045 196.231, 140.988 195.295, 137.728 190.724, 132.901 190.036, 132.376 186.708, 131.337 " />
            <path fill="none" stroke-width="3.0" stroke-linecap="butt" stroke-opacity="1.0" stroke="rgb(0, 0, 0)" stroke-linejoin="round" d=" M 186.763, 131.066 189.666, 126.659 " />
        </g>
    </g>
</svg>
