<?xml version='1.0' encoding='ascii'?>
<svg xmlns="http://www.w3.org/2000/svg" version="1.1" width="250" height="250">
    <g id="ViewLayer_LineSet" xmlns:inkscape="http://www.inkscape.org/namespaces/inkscape" inkscape:groupmode="lineset" inkscape:label="ViewLayer_LineSet">
        <g xmlns:inkscape="http://www.inkscape.org/namespaces/inkscape" inkscape:groupmode="layer" id="strokes" inkscape:label="strokes">
            <path fill="none" stroke-width="3.0" stroke-linecap="butt" stroke-opacity="1.0" stroke="rgb(0, 0, 0)" stroke-linejoin="round" d=" M 192.191, 119.515 199.290, 112.471 205.882, 105.930 206.996, 104.321 207.285, 102.165 202.374, 93.454 198.507, 86.594 194.444, 77.457 193.383, 75.071 188.767, 69.430 180.501, 63.802 174.940, 60.015 168.047, 52.770 165.048, 49.619 160.684, 47.187 151.748, 42.699 142.811, 38.211 136.337, 34.959 136.077, 34.897 126.103, 35.619 116.129, 36.341 115.457, 36.390 105.494, 37.249 102.015, 37.549 92.046, 38.336 88.863, 38.587 78.915, 39.605 76.183, 39.885 67.934, 45.538 62.255, 49.430 61.753, 50.033 61.282, 50.576 57.835, 59.963 55.783, 65.551 51.454, 74.566 49.965, 77.666 49.962, 77.706 53.773, 86.952 56.676, 93.996 60.341, 101.235 66.103, 109.408 69.613, 114.386 69.672, 114.467 " />
            <path fill="none" stroke-width="3.0" stroke-linecap="butt" stroke-opacity="1.0" stroke="rgb(0, 0, 0)" stroke-linejoin="round" d=" M 191.943, 147.506 192.360, 146.282 192.018, 144.131 191.893, 143.348 189.570, 133.622 188.954, 131.040 189.032, 130.636 189.360, 128.945 190.180, 124.716 190.177, 126.808 189.360, 128.945 188.833, 130.324 " />
            <path fill="none" stroke-width="3.0" stroke-linecap="butt" stroke-opacity="1.0" stroke="rgb(0, 0, 0)" stroke-linejoin="round" d=" M 132.923, 207.277 137.122, 203.729 " />
            <path fill="none" stroke-width="3.0" stroke-linecap="butt" stroke-opacity="1.0" stroke="rgb(0, 0, 0)" stroke-linejoin="round" d=" M 125.562, 135.241 119.344, 134.354 115.718, 136.022 " />
            <path fill="none" stroke-width="3.0" stroke-linecap="butt" stroke-opacity="1.0" stroke="rgb(0, 0, 0)" stroke-linejoin="round" d=" M 115.182, 132.179 115.718, 136.022 " />
            <path fill="none" stroke-width="3.0" stroke-linecap="butt" stroke-opacity="1.0" stroke="rgb(0, 0, 0)" stroke-linejoin="round" d=" M 84.015, 132.935 86.012, 140.905 86.152, 141.464 88.725, 148.329 " />
            <path fill="none" stroke-width="3.0" stroke-linecap="butt" stroke-opacity="1.0" stroke="rgb(0, 0, 0)" stroke-linejoin="round" d=" M 130.569, 156.836 135.994, 155.161 139.954, 150.845 141.586, 144.084 " />
            <path fill="none" stroke-width="3.0" stroke-linecap="butt" stroke-opacity="1.0" stroke="rgb(0, 0, 0)" stroke-linejoin="round" d=" M 74.933, 123.231 75.149, 128.034 70.627, 136.953 70.270, 137.659 69.701, 139.365 69.522, 139.608 71.851, 145.615 72.804, 151.091 72.970, 151.139 72.581, 158.515 71.648, 165.053 71.752, 165.293 " />
            <path fill="none" stroke-width="3.0" stroke-linecap="butt" stroke-opacity="1.0" stroke="rgb(0, 0, 0)" stroke-linejoin="round" d=" M 93.181, 162.878 86.924, 166.737 80.688, 172.976 77.974, 175.240 76.571, 176.410 70.834, 181.197 70.772, 181.248 68.968, 184.179 67.693, 185.434 69.749, 191.950 68.750, 198.817 68.987, 203.035 70.403, 205.640 73.432, 208.244 79.950, 215.829 80.955, 216.998 81.115, 217.039 81.479, 217.110 91.418, 218.215 101.473, 219.332 105.892, 219.400 111.218, 218.689 115.124, 216.638 119.260, 214.968 122.171, 209.846 122.667, 208.974 123.504, 207.500 125.430, 204.112 126.262, 202.648 127.623, 196.300 128.161, 193.791 128.312, 193.619 " />
            <path fill="none" stroke-width="3.0" stroke-linecap="butt" stroke-opacity="1.0" stroke="rgb(0, 0, 0)" stroke-linejoin="round" d=" M 147.711, 199.032 149.213, 201.245 149.294, 201.365 149.109, 201.387 145.270, 201.863 " />
            <path fill="none" stroke-width="3.0" stroke-linecap="butt" stroke-opacity="1.0" stroke="rgb(0, 0, 0)" stroke-linejoin="round" d=" M 125.437, 209.499 127.079, 209.490 132.887, 209.156 134.866, 208.520 141.155, 206.063 145.320, 204.528 145.526, 204.345 147.764, 203.227 149.109, 201.387 149.213, 201.245 151.380, 198.279 159.107, 193.254 168.828, 190.909 170.734, 190.449 175.847, 183.791 181.323, 175.423 181.547, 175.080 184.490, 166.849 184.783, 164.766 184.840, 164.362 184.972, 163.423 185.029, 163.145 184.989, 163.121 184.661, 163.823 184.840, 164.362 184.908, 164.568 184.783, 164.766 " />
            <path fill="none" stroke-width="3.0" stroke-linecap="butt" stroke-opacity="1.0" stroke="rgb(0, 0, 0)" stroke-linejoin="round" d=" M 182.713, 168.041 184.654, 158.231 185.142, 155.767 193.675, 155.584 197.442, 154.601 204.328, 147.349 205.822, 145.774 208.271, 143.402 210.845, 134.710 211.072, 132.081 210.056, 126.480 206.328, 118.854 203.907, 117.977 196.089, 118.743 " />
            <path fill="none" stroke-width="3.0" stroke-linecap="butt" stroke-opacity="1.0" stroke="rgb(0, 0, 0)" stroke-linejoin="round" d=" M 63.585, 114.428 59.890, 117.167 52.632, 121.170 48.403, 122.791 42.759, 126.781 41.079, 129.567 47.318, 126.291 56.574, 122.506 65.755, 118.751 " />
            <path fill="none" stroke-width="3.0" stroke-linecap="butt" stroke-opacity="1.0" stroke="rgb(0, 0, 0)" stroke-linejoin="round" d=" M 187.340, 148.447 189.091, 152.586 191.943, 147.506 " />
            <path fill="none" stroke-width="3.0" stroke-linecap="butt" stroke-opacity="1.0" stroke="rgb(0, 0, 0)" stroke-linejoin="round" d=" M 77.974, 175.240 77.653, 174.956 76.392, 172.931 71.752, 165.293 68.921, 160.632 66.647, 169.775 67.417, 173.955 67.476, 174.363 69.408, 178.935 69.494, 179.138 69.806, 180.009 70.834, 181.197 " />
            <path fill="none" stroke-width="3.0" stroke-linecap="butt" stroke-opacity="1.0" stroke="rgb(0, 0, 0)" stroke-linejoin="round" d=" M 92.438, 132.933 91.049, 133.286 88.931, 133.955 88.448, 134.648 87.821, 135.570 87.732, 138.337 87.576, 139.219 88.304, 142.722 88.661, 144.691 89.537, 147.023 90.708, 150.009 91.122, 150.546 91.924, 151.585 93.622, 154.058 94.744, 154.766 98.029, 157.476 98.120, 157.499 98.222, 157.512 99.567, 157.133 " />
            <path fill="none" stroke-width="3.0" stroke-linecap="butt" stroke-opacity="1.0" stroke="rgb(0, 0, 0)" stroke-linejoin="round" d=" M 95.525, 132.969 96.186, 137.777 98.719, 147.451 99.805, 151.599 100.549, 154.480 100.626, 154.780 " />
            <path fill="none" stroke-width="3.0" stroke-linecap="butt" stroke-opacity="1.0" stroke="rgb(0, 0, 0)" stroke-linejoin="round" d=" M 115.495, 154.885 118.928, 158.134 122.037, 158.683 125.067, 159.287 126.625, 158.659 130.547, 156.882 130.569, 156.836 131.419, 155.053 132.875, 152.027 132.735, 147.728 132.609, 145.605 132.115, 144.297 130.118, 139.533 129.559, 139.022 127.981, 137.533 " />
            <path fill="none" stroke-width="3.0" stroke-linecap="butt" stroke-opacity="1.0" stroke="rgb(0, 0, 0)" stroke-linejoin="round" d=" M 125.437, 209.499 127.763, 208.984 131.938, 207.817 132.685, 207.302 133.563, 206.697 136.950, 203.726 137.122, 203.729 142.343, 203.828 143.315, 203.737 145.270, 201.863 145.901, 201.259 147.302, 200.065 147.711, 199.032 148.304, 197.530 149.098, 195.327 154.578, 193.492 156.604, 192.272 157.677, 189.224 159.529, 186.952 160.047, 184.793 161.076, 181.613 160.921, 180.279 160.408, 176.434 156.705, 171.080 149.331, 169.850 143.136, 177.700 140.802, 180.656 138.628, 181.389 " />
        </g>
    </g>
</svg>
