<?xml version='1.0' encoding='ascii'?>
<svg xmlns="http://www.w3.org/2000/svg" version="1.1" width="250" height="250">
    <g id="ViewLayer_LineSet" xmlns:inkscape="http://www.inkscape.org/namespaces/inkscape" inkscape:groupmode="lineset" inkscape:label="ViewLayer_LineSet">
        <g xmlns:inkscape="http://www.inkscape.org/namespaces/inkscape" inkscape:groupmode="layer" id="strokes" inkscape:label="strokes">
            <path fill="none" stroke-width="3.0" stroke-linecap="butt" stroke-opacity="1.0" stroke="rgb(0, 0, 0)" stroke-linejoin="round" d=" M 143.786, 155.642 148.030, 156.336 148.266, 156.265 148.560, 156.134 151.817, 153.207 152.715, 152.581 153.886, 150.686 154.692, 149.382 155.466, 148.217 156.826, 143.816 157.225, 142.486 157.202, 141.387 157.338, 136.564 157.211, 136.239 157.046, 135.173 155.437, 133.325 154.272, 132.086 153.249, 131.913 152.655, 131.813 151.631, 131.637 " />
            <path fill="none" stroke-width="3.0" stroke-linecap="butt" stroke-opacity="1.0" stroke="rgb(0, 0, 0)" stroke-linejoin="round" d=" M 200.787, 124.383 193.723, 118.930 190.461, 117.798 186.399, 115.632 185.255, 114.791 " />
            <path fill="none" stroke-width="3.0" stroke-linecap="butt" stroke-opacity="1.0" stroke="rgb(0, 0, 0)" stroke-linejoin="round" d=" M 177.120, 44.184 168.566, 39.004 164.770, 36.706 154.795, 35.989 152.569, 35.829 142.584, 35.284 137.985, 35.033 128.000, 34.476 123.449, 34.221 113.455, 33.865 106.144, 33.605 101.917, 34.966 93.345, 40.116 84.773, 45.267 83.443, 46.066 75.055, 51.509 74.873, 51.627 69.144, 59.321 61.318, 65.546 56.935, 69.033 52.274, 75.105 49.695, 84.767 48.917, 87.682 44.761, 96.777 43.548, 99.433 44.766, 107.261 50.170, 113.827 56.392, 119.820 55.512, 120.010 54.573, 119.527 46.387, 118.874 45.853, 118.876 45.782, 118.957 45.748, 118.999 42.050, 128.290 41.948, 128.547 41.152, 133.268 41.566, 136.715 43.717, 144.529 46.532, 147.295 53.122, 154.816 53.807, 155.598 58.218, 156.577 61.087, 156.606 " />
            <path fill="none" stroke-width="3.0" stroke-linecap="butt" stroke-opacity="1.0" stroke="rgb(0, 0, 0)" stroke-linejoin="round" d=" M 156.317, 164.862 153.664, 164.232 " />
            <path fill="none" stroke-width="3.0" stroke-linecap="butt" stroke-opacity="1.0" stroke="rgb(0, 0, 0)" stroke-linejoin="round" d=" M 134.222, 130.194 133.334, 123.905 " />
            <path fill="none" stroke-width="3.0" stroke-linecap="butt" stroke-opacity="1.0" stroke="rgb(0, 0, 0)" stroke-linejoin="round" d=" M 153.231, 131.880 148.869, 131.217 " />
            <path fill="none" stroke-width="3.0" stroke-linecap="butt" stroke-opacity="1.0" stroke="rgb(0, 0, 0)" stroke-linejoin="round" d=" M 102.054, 135.776 101.468, 142.620 103.740, 149.816 108.395, 154.173 117.952, 157.115 119.086, 157.464 " />
            <path fill="none" stroke-width="3.0" stroke-linecap="butt" stroke-opacity="1.0" stroke="rgb(0, 0, 0)" stroke-linejoin="round" d=" M 126.738, 131.081 124.478, 125.795 " />
            <path fill="none" stroke-width="3.0" stroke-linecap="butt" stroke-opacity="1.0" stroke="rgb(0, 0, 0)" stroke-linejoin="round" d=" M 157.894, 146.985 160.672, 140.193 162.543, 131.536 161.215, 124.841 " />
            <path fill="none" stroke-width="3.0" stroke-linecap="butt" stroke-opacity="1.0" stroke="rgb(0, 0, 0)" stroke-linejoin="round" d=" M 110.260, 181.660 101.239, 178.439 98.078, 175.256 92.212, 167.157 91.611, 166.327 87.422, 165.787 82.269, 174.343 82.150, 175.952 81.817, 179.572 82.374, 181.693 83.456, 184.929 85.242, 188.891 86.468, 190.666 91.547, 192.274 94.034, 193.777 94.708, 195.133 95.135, 195.992 96.486, 198.930 100.056, 202.095 100.753, 202.693 101.759, 202.805 101.876, 202.818 107.373, 202.881 107.833, 203.218 112.995, 206.988 113.295, 207.207 112.678, 207.179 115.812, 207.880 118.246, 208.478 " />
            <path fill="none" stroke-width="3.0" stroke-linecap="butt" stroke-opacity="1.0" stroke="rgb(0, 0, 0)" stroke-linejoin="round" d=" M 57.656, 122.711 59.312, 130.949 57.543, 139.403 56.376, 145.707 56.849, 148.541 61.087, 156.606 61.735, 157.840 61.964, 158.044 62.128, 158.405 62.155, 159.309 64.238, 167.984 64.562, 169.567 66.430, 175.419 71.523, 182.658 77.449, 190.294 87.131, 192.799 92.499, 194.187 94.708, 195.133 " />
            <path fill="none" stroke-width="3.0" stroke-linecap="butt" stroke-opacity="1.0" stroke="rgb(0, 0, 0)" stroke-linejoin="round" d=" M 115.584, 191.278 113.692, 188.747 114.423, 192.687 116.038, 201.400 116.194, 202.243 117.965, 207.622 118.246, 208.478 118.956, 210.634 119.113, 211.113 125.009, 214.281 128.849, 216.523 133.768, 217.233 139.353, 217.333 149.312, 216.424 155.587, 215.851 158.880, 215.250 160.497, 214.801 167.288, 207.597 171.565, 203.932 173.724, 199.060 175.018, 190.663 175.245, 186.696 174.482, 185.838 171.519, 182.502 171.304, 182.260 167.765, 175.377 166.671, 174.477 161.396, 170.132 156.317, 164.862 " />
            <path fill="none" stroke-width="3.0" stroke-linecap="butt" stroke-opacity="1.0" stroke="rgb(0, 0, 0)" stroke-linejoin="round" d=" M 102.054, 135.776 102.135, 134.184 102.235, 133.508 102.250, 133.486 " />
            <path fill="none" stroke-width="3.0" stroke-linecap="butt" stroke-opacity="1.0" stroke="rgb(0, 0, 0)" stroke-linejoin="round" d=" M 101.759, 202.805 102.618, 203.878 103.183, 204.713 106.910, 206.700 114.001, 209.629 115.701, 210.339 118.956, 210.634 " />
            <path fill="none" stroke-width="3.0" stroke-linecap="butt" stroke-opacity="1.0" stroke="rgb(0, 0, 0)" stroke-linejoin="round" d=" M 107.833, 203.218 112.184, 206.884 " />
            <path fill="none" stroke-width="3.0" stroke-linecap="butt" stroke-opacity="1.0" stroke="rgb(0, 0, 0)" stroke-linejoin="round" d=" M 114.640, 133.131 112.044, 136.560 111.112, 137.757 110.377, 141.629 109.838, 144.368 110.412, 148.366 110.796, 150.937 113.302, 154.584 114.157, 155.766 118.372, 156.932 119.450, 157.196 " />
            <path fill="none" stroke-width="3.0" stroke-linecap="butt" stroke-opacity="1.0" stroke="rgb(0, 0, 0)" stroke-linejoin="round" d=" M 146.404, 132.613 146.452, 132.318 146.888, 128.624 " />
            <path fill="none" stroke-width="3.0" stroke-linecap="butt" stroke-opacity="1.0" stroke="rgb(0, 0, 0)" stroke-linejoin="round" d=" M 146.477, 128.939 146.373, 129.184 " />
            <path fill="none" stroke-width="3.0" stroke-linecap="butt" stroke-opacity="1.0" stroke="rgb(0, 0, 0)" stroke-linejoin="round" d=" M 174.482, 185.838 174.940, 185.588 177.724, 182.181 178.480, 179.751 178.778, 179.329 180.313, 175.050 180.654, 174.175 181.064, 170.604 181.163, 169.333 178.636, 161.699 177.782, 159.117 172.091, 167.340 170.511, 169.623 168.084, 173.332 167.677, 173.550 166.671, 174.477 " />
            <path fill="none" stroke-width="3.0" stroke-linecap="butt" stroke-opacity="1.0" stroke="rgb(0, 0, 0)" stroke-linejoin="round" d=" M 177.317, 126.096 177.321, 126.103 " />
            <path fill="none" stroke-width="3.0" stroke-linecap="butt" stroke-opacity="1.0" stroke="rgb(0, 0, 0)" stroke-linejoin="round" d=" M 177.341, 130.064 177.679, 128.727 177.426, 127.160 177.317, 126.096 " />
            <path fill="none" stroke-width="3.0" stroke-linecap="butt" stroke-opacity="1.0" stroke="rgb(0, 0, 0)" stroke-linejoin="round" d=" M 178.636, 161.699 178.157, 152.753 180.279, 148.028 180.530, 147.019 180.875, 146.335 182.152, 140.543 179.554, 133.975 177.341, 130.064 176.207, 128.060 175.957, 123.583 " />
            <path fill="none" stroke-width="3.0" stroke-linecap="butt" stroke-opacity="1.0" stroke="rgb(0, 0, 0)" stroke-linejoin="round" d=" M 180.661, 114.986 185.911, 106.474 186.838, 104.970 189.734, 98.510 191.838, 90.748 194.670, 81.158 195.137, 79.576 193.086, 69.789 193.015, 69.452 188.528, 61.890 184.144, 52.902 182.998, 50.554 179.785, 47.125 177.120, 44.184 " />
            <path fill="none" stroke-width="3.0" stroke-linecap="butt" stroke-opacity="1.0" stroke="rgb(0, 0, 0)" stroke-linejoin="round" d=" M 179.684, 116.445 189.044, 119.966 198.404, 123.487 200.787, 124.383 " />
        </g>
    </g>
</svg>
