<?xml version='1.0' encoding='ascii'?>
<svg xmlns="http://www.w3.org/2000/svg" version="1.1" width="250" height="250">
    <g id="ViewLayer_LineSet" xmlns:inkscape="http://www.inkscape.org/namespaces/inkscape" inkscape:groupmode="lineset" inkscape:label="ViewLayer_LineSet">
        <g xmlns:inkscape="http://www.inkscape.org/namespaces/inkscape" inkscape:groupmode="layer" id="strokes" inkscape:label="strokes">
            <path fill="none" stroke-width="3.0" stroke-linecap="butt" stroke-opacity="1.0" stroke="rgb(0, 0, 0)" stroke-linejoin="round" d=" M 177.371, 157.206 177.743, 156.641 178.094, 156.107 178.347, 155.723 179.235, 155.758 184.827, 154.416 185.148, 153.863 186.425, 151.657 187.707, 149.625 188.248, 145.921 188.832, 143.513 192.647, 142.036 192.750, 141.964 194.184, 140.958 194.216, 137.833 194.743, 136.446 194.482, 132.519 194.440, 131.289 192.931, 126.566 192.726, 125.968 191.710, 124.641 189.582, 121.509 " />
            <path fill="none" stroke-width="3.0" stroke-linecap="butt" stroke-opacity="1.0" stroke="rgb(0, 0, 0)" stroke-linejoin="round" d=" M 144.574, 78.886 144.664, 78.767 144.730, 78.680 144.802, 78.659 " />
            <path fill="none" stroke-width="3.0" stroke-linecap="butt" stroke-opacity="1.0" stroke="rgb(0, 0, 0)" stroke-linejoin="round" d=" M 186.918, 73.975 185.490, 64.077 184.520, 57.350 176.133, 51.905 172.030, 49.241 164.096, 43.154 163.949, 43.041 155.062, 42.768 152.532, 42.583 142.559, 41.851 141.613, 41.781 131.617, 41.522 126.182, 41.380 118.263, 40.982 109.372, 45.560 102.688, 49.002 93.655, 53.292 92.880, 53.660 87.655, 62.187 83.922, 68.280 78.863, 76.907 75.246, 83.075 76.133, 90.857 " />
            <path fill="none" stroke-width="3.0" stroke-linecap="butt" stroke-opacity="1.0" stroke="rgb(0, 0, 0)" stroke-linejoin="round" d=" M 121.869, 159.250 126.992, 161.983 129.636, 163.394 129.738, 163.448 139.370, 162.702 147.895, 157.474 152.132, 154.876 153.616, 154.799 162.679, 159.024 167.187, 161.126 174.410, 160.872 177.772, 156.709 178.157, 156.232 " />
            <path fill="none" stroke-width="3.0" stroke-linecap="butt" stroke-opacity="1.0" stroke="rgb(0, 0, 0)" stroke-linejoin="round" d=" M 89.460, 84.691 90.139, 91.547 94.526, 85.099 99.287, 80.084 108.305, 75.837 117.867, 74.942 123.778, 77.638 129.566, 82.994 126.776, 76.072 " />
            <path fill="none" stroke-width="3.0" stroke-linecap="butt" stroke-opacity="1.0" stroke="rgb(0, 0, 0)" stroke-linejoin="round" d=" M 144.802, 78.659 147.739, 76.346 154.710, 77.561 162.026, 81.986 164.834, 84.748 166.855, 86.737 169.292, 89.668 " />
            <path fill="none" stroke-width="3.0" stroke-linecap="butt" stroke-opacity="1.0" stroke="rgb(0, 0, 0)" stroke-linejoin="round" d=" M 144.874, 71.435 141.838, 75.509 141.180, 83.976 " />
            <path fill="none" stroke-width="3.0" stroke-linecap="butt" stroke-opacity="1.0" stroke="rgb(0, 0, 0)" stroke-linejoin="round" d=" M 123.932, 93.192 120.498, 89.495 110.731, 90.084 104.282, 96.589 101.598, 104.470 102.890, 113.865 " />
            <path fill="none" stroke-width="3.0" stroke-linecap="butt" stroke-opacity="1.0" stroke="rgb(0, 0, 0)" stroke-linejoin="round" d=" M 171.595, 127.045 167.074, 128.045 157.081, 128.439 150.051, 128.717 140.051, 128.757 132.715, 128.786 122.759, 127.850 116.811, 127.291 109.055, 125.860 100.003, 121.609 98.153, 120.740 93.832, 118.040 91.381, 123.300 88.330, 129.320 88.339, 131.732 88.079, 135.303 88.733, 136.929 90.489, 140.836 91.259, 142.116 95.036, 145.626 97.639, 145.991 103.719, 147.945 107.139, 153.130 108.018, 154.616 109.224, 155.580 113.426, 158.782 118.658, 159.318 116.536, 157.770 115.452, 155.664 " />
            <path fill="none" stroke-width="3.0" stroke-linecap="butt" stroke-opacity="1.0" stroke="rgb(0, 0, 0)" stroke-linejoin="round" d=" M 152.532, 42.583 145.110, 37.466 141.584, 35.334 131.602, 34.737 129.104, 34.588 119.122, 33.986 111.057, 33.500 101.075, 32.900 99.591, 32.811 90.628, 37.246 88.158, 38.468 80.569, 42.759 73.977, 50.278 69.427, 55.468 62.547, 62.502 57.891, 71.351 53.234, 80.201 52.506, 81.583 48.285, 90.649 46.399, 94.701 45.923, 102.606 44.656, 112.525 43.389, 122.445 42.122, 132.364 41.782, 135.033 41.961, 135.496 42.974, 137.593 42.656, 136.196 43.144, 135.949 52.718, 138.838 55.133, 139.567 56.226, 141.321 54.321, 141.328 51.257, 144.340 47.081, 149.017 45.662, 153.487 43.358, 160.597 42.175, 166.167 42.651, 168.480 44.421, 175.668 46.033, 177.522 46.789, 178.058 49.196, 178.614 59.035, 180.402 59.664, 180.516 65.414, 179.933 69.963, 178.651 75.136, 184.241 76.057, 185.236 75.769, 186.094 75.664, 186.406 74.617, 187.111 75.769, 186.094 " />
            <path fill="none" stroke-width="3.0" stroke-linecap="butt" stroke-opacity="1.0" stroke="rgb(0, 0, 0)" stroke-linejoin="round" d=" M 101.516, 206.142 99.790, 209.144 101.778, 210.856 103.538, 210.951 104.230, 208.025 " />
            <path fill="none" stroke-width="3.0" stroke-linecap="butt" stroke-opacity="1.0" stroke="rgb(0, 0, 0)" stroke-linejoin="round" d=" M 90.276, 198.344 98.492, 204.044 101.437, 206.087 101.516, 206.142 104.230, 208.025 109.440, 211.639 116.523, 217.163 116.962, 217.350 117.679, 217.332 127.612, 216.179 137.546, 215.026 142.634, 214.436 149.667, 212.152 156.743, 207.301 161.577, 202.453 169.192, 195.972 175.395, 190.694 182.332, 183.480 184.527, 181.239 186.607, 176.769 190.638, 167.618 193.082, 162.071 192.802, 157.097 193.161, 147.104 193.286, 143.629 192.750, 141.964 " />
            <path fill="none" stroke-width="3.0" stroke-linecap="butt" stroke-opacity="1.0" stroke="rgb(0, 0, 0)" stroke-linejoin="round" d=" M 122.908, 169.402 125.476, 169.177 124.587, 162.200 " />
            <path fill="none" stroke-width="3.0" stroke-linecap="butt" stroke-opacity="1.0" stroke="rgb(0, 0, 0)" stroke-linejoin="round" d=" M 124.604, 162.131 125.043, 161.602 125.127, 161.501 126.206, 161.699 126.450, 161.877 130.669, 164.941 129.636, 163.394 " />
            <path fill="none" stroke-width="3.0" stroke-linecap="butt" stroke-opacity="1.0" stroke="rgb(0, 0, 0)" stroke-linejoin="round" d=" M 164.116, 141.292 169.287, 138.796 172.841, 137.080 177.693, 134.737 184.377, 127.300 184.779, 126.853 189.582, 121.509 189.736, 121.337 189.844, 120.797 188.636, 110.870 188.397, 108.904 186.397, 104.053 183.772, 100.204 178.875, 95.121 178.484, 94.716 176.536, 92.694 171.486, 89.981 170.946, 89.904 169.292, 89.668 166.832, 89.316 161.135, 88.501 151.338, 87.994 141.380, 88.910 137.796, 89.240 133.635, 90.804 128.004, 98.752 127.908, 98.887 124.465, 103.747 122.994, 113.639 122.557, 116.580 122.333, 118.085 122.244, 118.681 122.292, 118.075 122.418, 116.476 122.557, 116.580 " />
            <path fill="none" stroke-width="3.0" stroke-linecap="butt" stroke-opacity="1.0" stroke="rgb(0, 0, 0)" stroke-linejoin="round" d=" M 60.107, 142.578 58.435, 148.288 58.362, 148.566 58.372, 148.772 58.595, 149.009 58.883, 149.169 63.891, 148.102 " />
            <path fill="none" stroke-width="3.0" stroke-linecap="butt" stroke-opacity="1.0" stroke="rgb(0, 0, 0)" stroke-linejoin="round" d=" M 75.136, 184.241 72.879, 187.472 69.901, 190.718 66.137, 199.940 65.804, 200.537 65.966, 201.119 71.906, 208.148 74.084, 210.419 80.685, 212.084 82.369, 212.457 82.456, 212.467 82.484, 212.458 82.981, 212.399 92.231, 210.126 92.438, 209.794 99.851, 207.188 101.437, 206.087 " />
            <path fill="none" stroke-width="3.0" stroke-linecap="butt" stroke-opacity="1.0" stroke="rgb(0, 0, 0)" stroke-linejoin="round" d=" M 89.466, 84.679 89.465, 84.739 " />
            <path fill="none" stroke-width="3.0" stroke-linecap="butt" stroke-opacity="1.0" stroke="rgb(0, 0, 0)" stroke-linejoin="round" d=" M 122.292, 118.075 118.268, 117.047 117.350, 118.434 117.033, 118.452 114.668, 118.587 109.868, 119.732 107.084, 118.366 105.362, 117.082 102.901, 113.881 " />
            <path fill="none" stroke-width="3.0" stroke-linecap="butt" stroke-opacity="1.0" stroke="rgb(0, 0, 0)" stroke-linejoin="round" d=" M 128.004, 98.752 127.548, 98.367 124.043, 95.378 119.881, 94.870 117.796, 95.017 113.892, 96.870 112.474, 97.724 112.370, 98.033 110.473, 103.315 110.909, 106.716 111.303, 109.899 112.103, 111.568 114.091, 115.639 " />
            <path fill="none" stroke-width="3.0" stroke-linecap="butt" stroke-opacity="1.0" stroke="rgb(0, 0, 0)" stroke-linejoin="round" d=" M 178.730, 94.491 181.418, 92.035 182.572, 85.652 180.878, 83.921 186.068, 75.374 186.918, 73.975 " />
        </g>
    </g>
</svg>
