<?xml version='1.0' encoding='ascii'?>
<svg xmlns="http://www.w3.org/2000/svg" version="1.1" width="250" height="250">
    <g id="ViewLayer_LineSet" xmlns:inkscape="http://www.inkscape.org/namespaces/inkscape" inkscape:groupmode="lineset" inkscape:label="ViewLayer_LineSet">
        <g xmlns:inkscape="http://www.inkscape.org/namespaces/inkscape" inkscape:groupmode="layer" id="strokes" inkscape:label="strokes">
            <path fill="none" stroke-width="3.0" stroke-linecap="butt" stroke-opacity="1.0" stroke="rgb(0, 0, 0)" stroke-linejoin="round" d=" M 128.179, 72.809 127.432, 71.364 123.506, 68.392 121.751, 66.285 119.502, 65.828 113.656, 64.831 111.832, 65.114 107.224, 65.566 105.146, 66.648 101.473, 69.180 97.356, 72.461 94.268, 74.653 93.346, 76.527 92.105, 80.056 " />
            <path fill="none" stroke-width="3.0" stroke-linecap="butt" stroke-opacity="1.0" stroke="rgb(0, 0, 0)" stroke-linejoin="round" d=" M 144.362, 75.215 144.425, 75.122 144.493, 75.023 144.508, 75.060 " />
            <path fill="none" stroke-width="3.0" stroke-linecap="butt" stroke-opacity="1.0" stroke="rgb(0, 0, 0)" stroke-linejoin="round" d=" M 183.585, 62.206 183.585, 62.205 182.662, 52.945 174.561, 47.081 168.813, 42.920 162.998, 37.902 153.006, 37.496 152.734, 37.485 142.788, 36.443 142.217, 36.383 132.226, 35.974 129.751, 35.872 120.358, 35.204 115.644, 37.782 106.871, 42.581 106.608, 42.725 97.707, 47.282 95.886, 48.215 90.926, 56.898 87.848, 62.288 82.969, 71.017 78.188, 79.570 77.950, 88.516 " />
            <path fill="none" stroke-width="3.0" stroke-linecap="butt" stroke-opacity="1.0" stroke="rgb(0, 0, 0)" stroke-linejoin="round" d=" M 55.410, 145.522 55.514, 145.678 55.229, 145.509 54.190, 144.893 51.015, 148.286 47.012, 153.059 46.828, 153.278 45.431, 157.998 43.077, 165.884 41.981, 172.712 42.289, 173.604 42.998, 175.899 48.689, 180.981 51.213, 182.433 58.853, 183.065 62.944, 183.318 65.185, 182.911 71.070, 180.976 72.319, 180.565 76.417, 185.064 76.319, 185.335 75.026, 188.936 79.750, 185.803 " />
            <path fill="none" stroke-width="3.0" stroke-linecap="butt" stroke-opacity="1.0" stroke="rgb(0, 0, 0)" stroke-linejoin="round" d=" M 133.468, 146.699 141.907, 150.084 151.373, 148.865 159.676, 143.292 162.709, 141.256 164.101, 141.181 173.200, 145.328 176.244, 146.715 177.482, 147.279 180.912, 147.367 183.903, 147.444 186.448, 143.614 " />
            <path fill="none" stroke-width="3.0" stroke-linecap="butt" stroke-opacity="1.0" stroke="rgb(0, 0, 0)" stroke-linejoin="round" d=" M 91.429, 81.625 92.902, 87.666 96.601, 81.702 100.830, 77.001 109.371, 72.793 118.760, 71.546 124.922, 73.624 131.045, 78.349 " />
            <path fill="none" stroke-width="3.0" stroke-linecap="butt" stroke-opacity="1.0" stroke="rgb(0, 0, 0)" stroke-linejoin="round" d=" M 144.425, 75.122 146.719, 73.402 152.612, 75.019 " />
            <path fill="none" stroke-width="3.0" stroke-linecap="butt" stroke-opacity="1.0" stroke="rgb(0, 0, 0)" stroke-linejoin="round" d=" M 143.609, 68.869 143.539, 68.977 141.532, 72.051 141.768, 77.812 " />
            <path fill="none" stroke-width="3.0" stroke-linecap="butt" stroke-opacity="1.0" stroke="rgb(0, 0, 0)" stroke-linejoin="round" d=" M 115.275, 105.437 115.924, 106.435 118.140, 109.850 " />
            <path fill="none" stroke-width="3.0" stroke-linecap="butt" stroke-opacity="1.0" stroke="rgb(0, 0, 0)" stroke-linejoin="round" d=" M 125.626, 89.094 121.765, 86.011 112.075, 87.083 106.113, 93.567 104.211, 100.926 " />
            <path fill="none" stroke-width="3.0" stroke-linecap="butt" stroke-opacity="1.0" stroke="rgb(0, 0, 0)" stroke-linejoin="round" d=" M 186.483, 143.595 186.491, 143.612 192.394, 142.016 193.627, 139.169 194.553, 137.222 194.491, 134.378 194.475, 133.655 194.586, 131.974 197.895, 130.764 198.981, 129.978 198.495, 126.810 198.672, 125.971 197.675, 121.788 197.598, 121.372 196.472, 118.941 193.183, 115.921 191.291, 113.349 " />
            <path fill="none" stroke-width="3.0" stroke-linecap="butt" stroke-opacity="1.0" stroke="rgb(0, 0, 0)" stroke-linejoin="round" d=" M 126.172, 115.586 122.643, 115.544 117.800, 114.954 109.183, 112.280 104.497, 110.826 101.215, 109.411 99.042, 114.632 96.412, 120.377 96.588, 122.274 96.509, 126.176 96.973, 127.014 99.500, 131.245 99.861, 131.715 105.008, 135.336 106.326, 135.416 113.866, 137.138 118.599, 142.965 118.863, 143.328 119.187, 143.546 124.731, 147.033 126.330, 147.192 120.916, 144.006 118.210, 139.655 " />
            <path fill="none" stroke-width="3.0" stroke-linecap="butt" stroke-opacity="1.0" stroke="rgb(0, 0, 0)" stroke-linejoin="round" d=" M 118.734, 207.790 113.649, 212.653 112.738, 213.525 111.872, 212.618 109.384, 210.014 109.114, 209.765 112.690, 212.042 113.649, 212.653 116.374, 214.388 119.713, 216.433 129.691, 215.776 139.240, 215.147 148.975, 212.863 151.958, 212.163 156.549, 210.156 164.223, 203.745 166.022, 202.241 169.029, 198.500 175.951, 191.283 181.391, 185.610 187.733, 177.878 188.404, 177.060 190.200, 174.938 191.257, 172.237 194.708, 162.851 197.402, 155.526 196.401, 148.049 195.943, 138.051 194.491, 134.378 " />
            <path fill="none" stroke-width="3.0" stroke-linecap="butt" stroke-opacity="1.0" stroke="rgb(0, 0, 0)" stroke-linejoin="round" d=" M 138.258, 168.013 137.560, 167.578 137.332, 167.402 137.290, 167.022 135.912, 157.118 135.091, 151.215 135.054, 150.952 135.330, 150.464 135.871, 150.532 137.852, 151.934 136.475, 151.184 135.091, 151.215 " />
            <path fill="none" stroke-width="3.0" stroke-linecap="butt" stroke-opacity="1.0" stroke="rgb(0, 0, 0)" stroke-linejoin="round" d=" M 79.863, 185.810 79.996, 185.952 74.833, 193.307 70.794, 197.951 68.091, 206.531 67.227, 208.501 68.211, 210.851 74.767, 217.707 81.742, 218.655 85.384, 218.917 86.352, 218.528 96.193, 216.755 96.657, 216.671 96.853, 216.437 98.985, 214.455 105.034, 208.831 98.765, 213.748 " />
            <path fill="none" stroke-width="3.0" stroke-linecap="butt" stroke-opacity="1.0" stroke="rgb(0, 0, 0)" stroke-linejoin="round" d=" M 98.985, 214.455 99.020, 214.495 104.081, 218.003 108.218, 217.904 109.306, 214.424 111.872, 212.618 " />
            <path fill="none" stroke-width="3.0" stroke-linecap="butt" stroke-opacity="1.0" stroke="rgb(0, 0, 0)" stroke-linejoin="round" d=" M 131.575, 94.953 131.012, 94.132 127.119, 91.380 125.753, 90.839 125.468, 90.844 120.051, 91.217 115.081, 93.369 114.862, 93.526 114.828, 93.685 113.578, 99.087 114.949, 104.347 115.186, 105.276 115.268, 105.405 115.431, 105.661 115.924, 106.435 " />
            <path fill="none" stroke-width="3.0" stroke-linecap="butt" stroke-opacity="1.0" stroke="rgb(0, 0, 0)" stroke-linejoin="round" d=" M 131.732, 109.889 131.061, 109.909 121.844, 110.181 120.419, 110.291 118.507, 110.208 118.504, 109.721 118.140, 109.850 113.960, 111.338 112.600, 110.913 108.546, 109.548 106.417, 108.162 104.302, 101.269 " />
            <path fill="none" stroke-width="3.0" stroke-linecap="butt" stroke-opacity="1.0" stroke="rgb(0, 0, 0)" stroke-linejoin="round" d=" M 115.644, 37.782 109.956, 37.427 99.965, 36.998 95.210, 36.795 86.571, 41.230 77.893, 46.201 76.812, 46.820 70.304, 54.413 66.516, 58.832 59.632, 66.085 59.546, 66.175 55.018, 75.092 51.300, 82.415 47.280, 91.571 44.288, 98.384 43.838, 108.374 43.801, 109.186 42.791, 119.135 41.780, 129.084 40.817, 138.563 42.931, 144.346 47.012, 153.059 " />
            <path fill="none" stroke-width="3.0" stroke-linecap="butt" stroke-opacity="1.0" stroke="rgb(0, 0, 0)" stroke-linejoin="round" d=" M 175.881, 126.278 179.036, 124.300 186.201, 119.809 186.946, 118.863 191.291, 113.349 196.471, 106.773 196.624, 99.986 194.799, 90.948 193.386, 88.191 191.723, 86.220 184.347, 79.467 180.691, 76.119 179.049, 75.378 178.056, 75.276 175.514, 75.016 166.638, 74.777 163.648, 74.696 159.980, 74.597 157.587, 74.533 157.368, 74.554 152.612, 75.019 147.724, 75.496 143.192, 77.258 141.768, 77.812 140.240, 78.406 135.381, 87.146 131.780, 93.623 131.575, 94.953 131.534, 95.221 130.048, 104.885 129.398, 105.397 131.510, 108.939 " />
            <path fill="none" stroke-width="3.0" stroke-linecap="butt" stroke-opacity="1.0" stroke="rgb(0, 0, 0)" stroke-linejoin="round" d=" M 156.356, 68.831 155.488, 68.122 152.496, 67.049 151.171, 67.098 150.342, 67.095 146.420, 68.224 143.735, 68.810 143.665, 68.869 143.633, 68.895 143.539, 68.977 " />
        </g>
    </g>
</svg>
