<?xml version='1.0' encoding='ascii'?>
<svg xmlns="http://www.w3.org/2000/svg" version="1.1" width="250" height="250">
    <g id="ViewLayer_LineSet" xmlns:inkscape="http://www.inkscape.org/namespaces/inkscape" inkscape:groupmode="lineset" inkscape:label="ViewLayer_LineSet">
        <g xmlns:inkscape="http://www.inkscape.org/namespaces/inkscape" inkscape:groupmode="layer" id="strokes" inkscape:label="strokes">
            <path fill="none" stroke-width="3.0" stroke-linecap="butt" stroke-opacity="1.0" stroke="rgb(0, 0, 0)" stroke-linejoin="round" d=" M 119.242, 189.230 121.325, 186.952 121.612, 186.978 123.348, 187.137 126.259, 186.939 128.613, 186.779 130.587, 185.008 133.509, 182.609 134.528, 180.483 136.665, 175.787 140.849, 174.687 145.207, 172.645 146.406, 170.352 149.628, 167.135 150.250, 165.315 151.934, 160.995 151.913, 159.375 151.616, 154.745 147.111, 145.817 146.940, 145.479 145.352, 142.258 140.124, 146.064 132.648, 152.705 130.305, 154.787 120.730, 157.672 116.379, 158.983 109.227, 161.004 " />
            <path fill="none" stroke-width="3.0" stroke-linecap="butt" stroke-opacity="1.0" stroke="rgb(0, 0, 0)" stroke-linejoin="round" d=" M 125.302, 136.142 127.251, 133.374 128.065, 132.231 129.154, 126.981 129.504, 124.928 129.254, 122.534 128.635, 117.647 127.052, 115.157 125.247, 112.286 122.434, 111.312 119.243, 110.253 115.061, 111.646 " />
            <path fill="none" stroke-width="3.0" stroke-linecap="butt" stroke-opacity="1.0" stroke="rgb(0, 0, 0)" stroke-linejoin="round" d=" M 160.839, 96.808 160.725, 96.246 152.926, 89.988 146.274, 84.651 " />
            <path fill="none" stroke-width="3.0" stroke-linecap="butt" stroke-opacity="1.0" stroke="rgb(0, 0, 0)" stroke-linejoin="round" d=" M 71.119, 104.321 74.503, 97.364 " />
            <path fill="none" stroke-width="3.0" stroke-linecap="butt" stroke-opacity="1.0" stroke="rgb(0, 0, 0)" stroke-linejoin="round" d=" M 183.775, 147.184 189.300, 149.882 187.643, 140.103 187.473, 139.101 188.724, 136.666 188.607, 138.338 187.643, 140.103 " />
            <path fill="none" stroke-width="3.0" stroke-linecap="butt" stroke-opacity="1.0" stroke="rgb(0, 0, 0)" stroke-linejoin="round" d=" M 136.825, 111.103 138.705, 115.792 138.672, 116.431 138.571, 126.431 138.566, 126.884 135.659, 133.743 135.256, 134.404 130.483, 139.394 130.003, 139.531 128.340, 139.590 " />
            <path fill="none" stroke-width="3.0" stroke-linecap="butt" stroke-opacity="1.0" stroke="rgb(0, 0, 0)" stroke-linejoin="round" d=" M 106.005, 192.294 112.600, 192.352 114.883, 192.373 118.040, 190.097 121.798, 187.388 " />
            <path fill="none" stroke-width="3.0" stroke-linecap="butt" stroke-opacity="1.0" stroke="rgb(0, 0, 0)" stroke-linejoin="round" d=" M 75.433, 187.643 77.073, 188.104 78.952, 188.633 81.421, 189.328 85.408, 187.567 92.066, 184.627 " />
            <path fill="none" stroke-width="3.0" stroke-linecap="butt" stroke-opacity="1.0" stroke="rgb(0, 0, 0)" stroke-linejoin="round" d=" M 69.530, 105.635 70.215, 104.425 73.196, 99.155 74.503, 97.364 76.799, 94.219 82.838, 90.645 88.307, 90.935 " />
            <path fill="none" stroke-width="3.0" stroke-linecap="butt" stroke-opacity="1.0" stroke="rgb(0, 0, 0)" stroke-linejoin="round" d=" M 95.764, 101.460 93.612, 93.949 91.714, 86.872 88.073, 83.480 " />
            <path fill="none" stroke-width="3.0" stroke-linecap="butt" stroke-opacity="1.0" stroke="rgb(0, 0, 0)" stroke-linejoin="round" d=" M 116.063, 85.339 110.095, 91.692 108.112, 101.493 108.081, 101.648 113.054, 95.097 118.846, 90.776 128.832, 90.242 129.013, 90.232 138.383, 93.726 138.861, 93.905 144.150, 99.205 149.149, 106.364 149.440, 97.775 145.792, 90.704 " />
            <path fill="none" stroke-width="3.0" stroke-linecap="butt" stroke-opacity="1.0" stroke="rgb(0, 0, 0)" stroke-linejoin="round" d=" M 118.165, 139.195 124.342, 137.545 " />
            <path fill="none" stroke-width="3.0" stroke-linecap="butt" stroke-opacity="1.0" stroke="rgb(0, 0, 0)" stroke-linejoin="round" d=" M 135.108, 106.830 128.407, 101.215 118.469, 102.258 115.506, 107.307 115.061, 111.646 " />
            <path fill="none" stroke-width="3.0" stroke-linecap="butt" stroke-opacity="1.0" stroke="rgb(0, 0, 0)" stroke-linejoin="round" d=" M 95.670, 103.374 89.721, 102.355 86.026, 107.753 83.445, 115.636 82.948, 125.595 83.235, 128.707 " />
            <path fill="none" stroke-width="3.0" stroke-linecap="butt" stroke-opacity="1.0" stroke="rgb(0, 0, 0)" stroke-linejoin="round" d=" M 194.890, 134.115 202.779, 127.969 206.246, 125.267 206.821, 126.498 207.994, 122.703 208.577, 120.577 205.795, 110.972 203.012, 101.367 201.768, 97.071 199.881, 87.251 198.899, 82.142 193.631, 73.642 188.362, 65.143 184.370, 58.701 180.896, 54.662 179.742, 52.481 172.213, 45.900 164.685, 39.318 162.422, 37.340 156.796, 32.460 147.726, 28.248 138.656, 24.036 136.274, 22.930 136.246, 22.921 136.238, 22.922 126.354, 24.438 116.470, 25.954 106.585, 27.470 101.399, 28.265 96.681, 29.012 88.826, 35.200 86.747, 36.837 79.414, 43.637 77.443, 45.464 75.106, 49.768 70.360, 57.106 67.453, 66.675 67.132, 67.732 67.190, 69.871 " />
            <path fill="none" stroke-width="3.0" stroke-linecap="butt" stroke-opacity="1.0" stroke="rgb(0, 0, 0)" stroke-linejoin="round" d=" M 74.916, 123.453 74.390, 122.002 73.634, 119.914 73.599, 120.298 72.787, 129.303 " />
            <path fill="none" stroke-width="3.0" stroke-linecap="butt" stroke-opacity="1.0" stroke="rgb(0, 0, 0)" stroke-linejoin="round" d=" M 79.185, 193.468 81.906, 196.714 82.668, 197.470 87.255, 202.347 94.711, 209.109 94.931, 209.291 96.591, 210.028 99.234, 210.027 107.034, 210.625 110.361, 213.994 110.062, 213.423 114.602, 215.501 120.983, 213.942 130.970, 213.436 132.153, 213.376 135.545, 212.683 144.732, 208.734 146.025, 208.178 146.189, 208.007 147.032, 207.456 155.015, 201.433 162.998, 195.411 163.527, 195.012 169.290, 189.225 170.267, 188.245 174.300, 181.592 178.943, 176.592 180.091, 174.497 180.930, 174.794 188.219, 174.651 191.961, 174.578 201.180, 170.703 203.441, 169.752 205.032, 168.325 205.745, 167.878 208.919, 158.395 209.207, 157.536 209.598, 155.446 208.537, 149.252 204.977, 140.432 203.931, 138.419 200.182, 135.004 197.066, 134.120 194.890, 134.115 " />
            <path fill="none" stroke-width="3.0" stroke-linecap="butt" stroke-opacity="1.0" stroke="rgb(0, 0, 0)" stroke-linejoin="round" d=" M 85.818, 68.840 75.833, 69.391 67.994, 69.823 67.190, 69.871 65.288, 69.984 57.205, 75.871 56.701, 76.238 47.984, 81.138 47.061, 81.656 46.810, 85.353 55.947, 89.418 65.084, 93.483 67.791, 94.687 66.035, 97.399 68.920, 104.574 69.321, 104.528 " />
            <path fill="none" stroke-width="3.0" stroke-linecap="butt" stroke-opacity="1.0" stroke="rgb(0, 0, 0)" stroke-linejoin="round" d=" M 118.040, 190.097 119.885, 190.553 121.039, 190.167 122.860, 189.876 122.845, 190.880 122.843, 190.994 121.603, 190.849 122.845, 190.880 123.699, 190.901 123.155, 194.512 " />
            <path fill="none" stroke-width="3.0" stroke-linecap="butt" stroke-opacity="1.0" stroke="rgb(0, 0, 0)" stroke-linejoin="round" d=" M 91.837, 128.991 91.840, 128.989 92.461, 128.961 93.585, 129.228 95.401, 129.658 98.402, 130.370 95.395, 129.739 93.546, 129.350 91.837, 128.991 91.323, 128.883 88.423, 128.411 87.184, 128.482 85.355, 128.586 83.235, 128.707 73.252, 129.277 72.787, 129.303 70.544, 129.431 65.348, 129.793 64.645, 129.981 63.430, 130.325 56.210, 137.133 55.764, 142.349 51.035, 150.725 49.984, 154.366 50.771, 159.544 55.945, 168.101 56.021, 168.226 58.887, 173.651 62.780, 176.162 63.903, 176.886 65.394, 177.847 66.004, 177.955 72.642, 179.083 80.914, 180.489 83.142, 180.354 88.429, 180.033 91.268, 179.378 100.196, 175.806 100.388, 175.729 100.469, 175.697 103.342, 174.547 " />
            <path fill="none" stroke-width="3.0" stroke-linecap="butt" stroke-opacity="1.0" stroke="rgb(0, 0, 0)" stroke-linejoin="round" d=" M 62.780, 176.162 64.550, 178.828 65.163, 179.690 65.595, 179.829 66.919, 180.256 70.410, 180.749 73.232, 184.868 73.239, 184.878 75.273, 187.532 75.389, 187.572 75.734, 187.690 77.073, 188.104 " />
            <path fill="none" stroke-width="3.0" stroke-linecap="butt" stroke-opacity="1.0" stroke="rgb(0, 0, 0)" stroke-linejoin="round" d=" M 69.321, 104.528 69.901, 108.085 72.799, 117.656 73.599, 120.298 " />
            <path fill="none" stroke-width="3.0" stroke-linecap="butt" stroke-opacity="1.0" stroke="rgb(0, 0, 0)" stroke-linejoin="round" d=" M 70.215, 104.425 71.119, 104.321 " />
            <path fill="none" stroke-width="3.0" stroke-linecap="butt" stroke-opacity="1.0" stroke="rgb(0, 0, 0)" stroke-linejoin="round" d=" M 77.973, 85.399 76.431, 86.398 74.358, 88.032 70.195, 91.192 69.660, 92.110 68.400, 96.312 68.510, 98.568 69.918, 102.783 " />
            <path fill="none" stroke-width="3.0" stroke-linecap="butt" stroke-opacity="1.0" stroke="rgb(0, 0, 0)" stroke-linejoin="round" d=" M 85.408, 187.567 85.787, 187.999 90.566, 191.325 99.342, 193.261 106.383, 195.041 109.423, 194.034 112.600, 192.352 " />
            <path fill="none" stroke-width="3.0" stroke-linecap="butt" stroke-opacity="1.0" stroke="rgb(0, 0, 0)" stroke-linejoin="round" d=" M 88.547, 90.947 88.693, 91.289 89.359, 93.679 93.368, 97.539 " />
            <path fill="none" stroke-width="3.0" stroke-linecap="butt" stroke-opacity="1.0" stroke="rgb(0, 0, 0)" stroke-linejoin="round" d=" M 92.066, 184.627 92.083, 184.631 92.471, 184.989 96.337, 186.700 102.532, 190.163 " />
            <path fill="none" stroke-width="3.0" stroke-linecap="butt" stroke-opacity="1.0" stroke="rgb(0, 0, 0)" stroke-linejoin="round" d=" M 96.217, 105.585 96.307, 106.094 95.750, 110.249 95.734, 110.483 95.734, 110.483 95.060, 120.460 94.705, 125.707 93.585, 129.228 " />
            <path fill="none" stroke-width="3.0" stroke-linecap="butt" stroke-opacity="1.0" stroke="rgb(0, 0, 0)" stroke-linejoin="round" d=" M 95.734, 110.483 92.877, 109.658 91.779, 109.890 90.602, 110.297 88.783, 112.393 88.082, 112.896 86.568, 116.365 85.893, 117.805 85.391, 121.580 85.124, 123.706 85.231, 125.851 85.355, 128.586 " />
            <path fill="none" stroke-width="3.0" stroke-linecap="butt" stroke-opacity="1.0" stroke="rgb(0, 0, 0)" stroke-linejoin="round" d=" M 169.290, 189.225 170.377, 189.441 172.293, 190.001 175.940, 190.411 179.692, 189.159 187.740, 183.223 189.165, 182.172 190.647, 180.042 190.722, 178.699 188.851, 175.679 188.219, 174.651 " />
        </g>
    </g>
</svg>
