<?xml version='1.0' encoding='ascii'?>
<svg xmlns="http://www.w3.org/2000/svg" version="1.1" width="250" height="250">
    <g id="ViewLayer_LineSet" xmlns:inkscape="http://www.inkscape.org/namespaces/inkscape" inkscape:groupmode="lineset" inkscape:label="ViewLayer_LineSet">
        <g xmlns:inkscape="http://www.inkscape.org/namespaces/inkscape" inkscape:groupmode="layer" id="strokes" inkscape:label="strokes">
            <path fill="none" stroke-width="3.0" stroke-linecap="butt" stroke-opacity="1.0" stroke="rgb(0, 0, 0)" stroke-linejoin="round" d=" M 148.320, 97.278 150.861, 94.734 152.978, 91.730 " />
            <path fill="none" stroke-width="3.0" stroke-linecap="butt" stroke-opacity="1.0" stroke="rgb(0, 0, 0)" stroke-linejoin="round" d=" M 195.060, 90.215 192.763, 80.786 184.702, 76.773 184.097, 76.419 175.467, 71.366 172.895, 69.861 171.073, 69.787 161.080, 69.423 154.577, 69.186 " />
            <path fill="none" stroke-width="3.0" stroke-linecap="butt" stroke-opacity="1.0" stroke="rgb(0, 0, 0)" stroke-linejoin="round" d=" M 181.774, 115.971 182.206, 115.309 182.903, 112.379 184.040, 102.443 184.926, 94.712 " />
            <path fill="none" stroke-width="3.0" stroke-linecap="butt" stroke-opacity="1.0" stroke="rgb(0, 0, 0)" stroke-linejoin="round" d=" M 115.239, 187.744 115.890, 188.241 117.611, 189.555 118.120, 189.943 122.078, 192.965 129.451, 193.161 131.156, 193.207 " />
            <path fill="none" stroke-width="3.0" stroke-linecap="butt" stroke-opacity="1.0" stroke="rgb(0, 0, 0)" stroke-linejoin="round" d=" M 146.056, 185.993 155.241, 189.948 156.131, 190.331 157.705, 191.009 164.721, 189.491 " />
            <path fill="none" stroke-width="3.0" stroke-linecap="butt" stroke-opacity="1.0" stroke="rgb(0, 0, 0)" stroke-linejoin="round" d=" M 91.687, 97.935 91.705, 106.476 96.835, 99.369 102.264, 94.066 111.635, 90.574 112.073, 90.411 122.080, 90.944 127.801, 95.295 133.038, 101.882 131.092, 94.187 125.980, 86.792 119.311, 83.063 " />
            <path fill="none" stroke-width="3.0" stroke-linecap="butt" stroke-opacity="1.0" stroke="rgb(0, 0, 0)" stroke-linejoin="round" d=" M 153.301, 91.373 160.583, 90.997 167.598, 94.591 171.791, 99.564 175.897, 106.147 " />
            <path fill="none" stroke-width="3.0" stroke-linecap="butt" stroke-opacity="1.0" stroke="rgb(0, 0, 0)" stroke-linejoin="round" d=" M 151.075, 86.004 147.079, 92.157 145.033, 102.019 " />
            <path fill="none" stroke-width="3.0" stroke-linecap="butt" stroke-opacity="1.0" stroke="rgb(0, 0, 0)" stroke-linejoin="round" d=" M 117.899, 138.152 123.336, 139.108 " />
            <path fill="none" stroke-width="3.0" stroke-linecap="butt" stroke-opacity="1.0" stroke="rgb(0, 0, 0)" stroke-linejoin="round" d=" M 148.460, 110.535 147.513, 110.950 " />
            <path fill="none" stroke-width="3.0" stroke-linecap="butt" stroke-opacity="1.0" stroke="rgb(0, 0, 0)" stroke-linejoin="round" d=" M 126.209, 108.829 123.234, 103.775 113.216, 102.733 105.966, 108.468 102.410, 116.947 102.693, 126.943 102.712, 127.608 105.845, 134.812 111.191, 139.652 121.177, 140.177 122.504, 140.246 " />
            <path fill="none" stroke-width="3.0" stroke-linecap="butt" stroke-opacity="1.0" stroke="rgb(0, 0, 0)" stroke-linejoin="round" d=" M 161.492, 130.663 162.572, 125.529 162.622, 115.529 162.624, 115.163 159.851, 106.749 154.547, 101.442 147.313, 102.511 " />
            <path fill="none" stroke-width="3.0" stroke-linecap="butt" stroke-opacity="1.0" stroke="rgb(0, 0, 0)" stroke-linejoin="round" d=" M 176.449, 98.401 179.184, 103.158 183.439, 103.284 184.009, 97.897 181.995, 96.013 184.926, 94.712 194.066, 90.656 195.060, 90.215 " />
            <path fill="none" stroke-width="3.0" stroke-linecap="butt" stroke-opacity="1.0" stroke="rgb(0, 0, 0)" stroke-linejoin="round" d=" M 70.305, 182.858 67.272, 173.329 66.873, 172.073 66.510, 170.932 66.543, 170.748 " />
            <path fill="none" stroke-width="3.0" stroke-linecap="butt" stroke-opacity="1.0" stroke="rgb(0, 0, 0)" stroke-linejoin="round" d=" M 66.742, 162.153 64.944, 164.674 66.167, 168.793 66.486, 170.836 66.671, 172.027 66.708, 172.139 69.810, 181.646 70.434, 183.558 71.467, 184.993 72.080, 185.845 79.824, 192.171 82.451, 194.318 90.192, 200.649 94.757, 204.384 100.292, 206.991 109.277, 211.383 110.366, 211.915 111.573, 212.271 121.483, 213.604 123.329, 213.852 129.503, 215.781 135.450, 213.071 " />
            <path fill="none" stroke-width="3.0" stroke-linecap="butt" stroke-opacity="1.0" stroke="rgb(0, 0, 0)" stroke-linejoin="round" d=" M 186.099, 143.355 186.277, 140.064 184.862, 138.172 178.399, 130.542 177.383, 129.343 176.412, 125.063 178.057, 125.641 177.605, 123.205 181.792, 116.168 180.206, 118.219 181.774, 115.971 " />
            <path fill="none" stroke-width="3.0" stroke-linecap="butt" stroke-opacity="1.0" stroke="rgb(0, 0, 0)" stroke-linejoin="round" d=" M 99.718, 76.980 106.743, 74.552 99.829, 76.944 99.718, 76.980 99.122, 77.172 97.180, 78.917 89.907, 85.781 82.634, 92.644 77.699, 97.302 78.870, 98.250 " />
            <path fill="none" stroke-width="3.0" stroke-linecap="butt" stroke-opacity="1.0" stroke="rgb(0, 0, 0)" stroke-linejoin="round" d=" M 118.030, 192.315 117.611, 189.555 " />
            <path fill="none" stroke-width="3.0" stroke-linecap="butt" stroke-opacity="1.0" stroke="rgb(0, 0, 0)" stroke-linejoin="round" d=" M 59.741, 137.663 58.875, 135.854 58.380, 133.097 59.874, 137.072 59.741, 137.663 58.154, 144.712 57.403, 148.607 57.640, 150.395 60.634, 155.011 63.896, 152.859 65.841, 150.398 " />
            <path fill="none" stroke-width="3.0" stroke-linecap="butt" stroke-opacity="1.0" stroke="rgb(0, 0, 0)" stroke-linejoin="round" d=" M 133.732, 174.878 141.969, 180.548 142.296, 180.773 144.630, 181.403 145.086, 181.527 145.381, 181.606 147.260, 181.757 153.204, 182.233 158.185, 181.454 165.157, 180.364 167.853, 179.831 172.500, 178.911 175.948, 177.172 176.828, 175.721 182.462, 167.460 184.647, 164.257 185.810, 156.168 185.039, 151.083 184.808, 149.560 184.642, 149.051 182.306, 141.892 181.967, 140.854 180.689, 138.367 179.468, 137.267 176.734, 134.803 173.734, 133.685 170.213, 132.374 167.699, 131.352 161.492, 130.663 158.734, 130.357 157.143, 130.180 156.355, 130.093 148.110, 129.367 146.569, 129.608 146.396, 129.635 145.205, 129.821 142.391, 130.417 132.608, 132.487 131.686, 132.682 131.081, 132.810 131.080, 132.812 124.478, 139.022 124.097, 139.381 123.224, 139.974 121.892, 140.879 121.664, 142.191 119.955, 152.044 119.929, 152.191 121.050, 142.627 121.664, 142.191 123.685, 140.759 123.224, 139.974 123.095, 139.754 123.753, 139.182 131.073, 132.812 131.080, 132.812 131.084, 132.811 131.682, 132.690 141.482, 130.700 142.408, 130.512 145.979, 129.786 146.438, 130.717 " />
            <path fill="none" stroke-width="3.0" stroke-linecap="butt" stroke-opacity="1.0" stroke="rgb(0, 0, 0)" stroke-linejoin="round" d=" M 184.097, 76.419 183.724, 66.580 182.811, 63.380 176.965, 55.266 173.725, 50.770 168.578, 42.429 161.406, 36.398 153.255, 30.604 148.865, 27.484 145.374, 27.160 135.426, 26.147 125.477, 25.133 115.529, 24.119 108.898, 23.443 108.545, 23.388 106.339, 24.293 97.352, 28.680 88.366, 33.067 87.931, 33.279 84.953, 35.975 77.510, 42.653 72.216, 47.403 66.905, 52.984 65.822, 53.968 63.098, 58.360 58.197, 67.076 53.295, 75.792 48.414, 84.473 47.227, 94.458 44.948, 104.195 42.725, 113.695 42.893, 120.650 50.416, 127.238 55.119, 131.357 55.444, 131.881 54.736, 132.057 50.613, 133.374 46.399, 137.439 45.322, 139.936 42.593, 147.509 41.603, 152.582 42.073, 155.810 44.416, 164.836 46.028, 165.951 48.995, 169.229 56.476, 172.644 64.085, 173.186 65.270, 172.713 66.708, 172.139 " />
            <path fill="none" stroke-width="3.0" stroke-linecap="butt" stroke-opacity="1.0" stroke="rgb(0, 0, 0)" stroke-linejoin="round" d=" M 65.270, 172.713 62.470, 177.038 64.328, 178.775 71.467, 184.993 " />
            <path fill="none" stroke-width="3.0" stroke-linecap="butt" stroke-opacity="1.0" stroke="rgb(0, 0, 0)" stroke-linejoin="round" d=" M 127.477, 161.775 120.835, 159.709 111.304, 156.681 106.234, 155.071 99.306, 149.548 92.347, 142.367 92.181, 142.195 90.398, 145.771 85.966, 154.377 85.880, 156.766 85.578, 160.547 86.234, 162.760 87.631, 166.674 88.913, 169.280 91.433, 172.447 95.600, 173.609 99.751, 175.755 101.840, 179.912 103.106, 182.599 105.404, 184.671 107.968, 186.916 113.168, 187.404 115.457, 187.274 115.579, 187.267 115.703, 187.341 117.431, 188.367 118.463, 188.981 118.120, 189.943 " />
            <path fill="none" stroke-width="3.0" stroke-linecap="butt" stroke-opacity="1.0" stroke="rgb(0, 0, 0)" stroke-linejoin="round" d=" M 126.488, 111.776 120.248, 110.461 117.356, 111.702 114.352, 113.113 113.047, 115.719 111.439, 118.793 111.355, 122.453 111.259, 125.998 112.156, 129.073 113.365, 133.098 114.684, 134.612 117.888, 138.147 117.896, 138.149 117.945, 138.157 118.058, 138.180 " />
            <path fill="none" stroke-width="3.0" stroke-linecap="butt" stroke-opacity="1.0" stroke="rgb(0, 0, 0)" stroke-linejoin="round" d=" M 129.451, 193.161 130.291, 193.760 132.932, 194.982 139.037, 194.607 149.058, 193.983 156.131, 190.331 " />
            <path fill="none" stroke-width="3.0" stroke-linecap="butt" stroke-opacity="1.0" stroke="rgb(0, 0, 0)" stroke-linejoin="round" d=" M 135.450, 213.071 137.151, 210.886 146.814, 210.080 150.216, 208.419 155.779, 204.188 161.440, 199.618 161.717, 199.376 163.073, 198.121 160.529, 194.113 169.157, 189.057 177.785, 184.002 182.188, 181.422 182.365, 181.239 184.260, 171.518 185.109, 168.555 " />
            <path fill="none" stroke-width="3.0" stroke-linecap="butt" stroke-opacity="1.0" stroke="rgb(0, 0, 0)" stroke-linejoin="round" d=" M 134.740, 191.226 143.510, 187.034 145.041, 186.302 145.193, 186.285 " />
            <path fill="none" stroke-width="3.0" stroke-linecap="butt" stroke-opacity="1.0" stroke="rgb(0, 0, 0)" stroke-linejoin="round" d=" M 145.899, 111.658 145.779, 108.438 145.707, 107.008 145.695, 106.757 146.065, 106.008 " />
            <path fill="none" stroke-width="3.0" stroke-linecap="butt" stroke-opacity="1.0" stroke="rgb(0, 0, 0)" stroke-linejoin="round" d=" M 158.734, 130.357 158.774, 130.262 159.022, 124.945 159.111, 123.645 158.827, 122.367 157.707, 117.362 157.199, 116.431 155.161, 112.313 154.830, 112.144 153.981, 111.367 151.211, 110.712 149.071, 110.363 148.535, 110.565 147.513, 110.950 " />
            <path fill="none" stroke-width="3.0" stroke-linecap="butt" stroke-opacity="1.0" stroke="rgb(0, 0, 0)" stroke-linejoin="round" d=" M 165.093, 189.007 170.179, 182.758 173.835, 182.384 176.199, 181.750 178.788, 178.156 179.651, 177.063 181.070, 172.466 181.919, 170.302 185.109, 168.555 187.158, 167.432 188.028, 166.644 188.648, 162.472 189.250, 161.254 189.808, 156.879 190.026, 155.494 189.563, 151.151 189.390, 149.875 187.131, 145.524 186.099, 143.355 184.203, 139.371 182.306, 141.892 " />
            <path fill="none" stroke-width="3.0" stroke-linecap="butt" stroke-opacity="1.0" stroke="rgb(0, 0, 0)" stroke-linejoin="round" d=" M 175.476, 102.347 176.449, 98.401 176.885, 96.635 176.687, 96.303 173.857, 91.539 172.057, 90.301 " />
        </g>
    </g>
</svg>
