<?xml version='1.0' encoding='ascii'?>
<svg xmlns="http://www.w3.org/2000/svg" version="1.1" width="250" height="250">
    <g id="ViewLayer_LineSet" xmlns:inkscape="http://www.inkscape.org/namespaces/inkscape" inkscape:groupmode="lineset" inkscape:label="ViewLayer_LineSet">
        <g xmlns:inkscape="http://www.inkscape.org/namespaces/inkscape" inkscape:groupmode="layer" id="strokes" inkscape:label="strokes">
            <path fill="none" stroke-width="3.0" stroke-linecap="butt" stroke-opacity="1.0" stroke="rgb(0, 0, 0)" stroke-linejoin="round" d=" M 106.068, 92.138 107.399, 93.333 108.510, 94.562 " />
            <path fill="none" stroke-width="3.0" stroke-linecap="butt" stroke-opacity="1.0" stroke="rgb(0, 0, 0)" stroke-linejoin="round" d=" M 108.858, 110.055 104.565, 109.000 102.840, 109.579 98.491, 111.361 98.447, 111.438 97.913, 112.323 95.626, 116.723 95.516, 116.927 94.780, 123.703 94.769, 123.844 94.789, 123.984 94.956, 125.322 96.055, 130.099 96.248, 130.879 96.319, 130.966 " />
            <path fill="none" stroke-width="3.0" stroke-linecap="butt" stroke-opacity="1.0" stroke="rgb(0, 0, 0)" stroke-linejoin="round" d=" M 178.778, 92.027 172.750, 84.048 166.696, 76.035 161.969, 74.240 152.722, 70.432 143.476, 66.624 142.072, 66.046 141.339, 66.050 131.339, 66.086 121.339, 66.122 116.412, 66.140 106.413, 66.277 96.414, 66.413 92.739, 66.464 91.149, 66.483 82.133, 70.808 75.107, 74.179 68.407, 77.028 63.821, 85.914 59.416, 94.446 63.444, 96.507 62.128, 97.387 61.178, 99.585 " />
            <path fill="none" stroke-width="3.0" stroke-linecap="butt" stroke-opacity="1.0" stroke="rgb(0, 0, 0)" stroke-linejoin="round" d=" M 189.407, 125.939 196.218, 119.328 197.082, 109.366 197.945, 99.403 198.328, 94.981 197.758, 90.890 197.751, 88.839 195.333, 83.540 190.861, 74.596 186.388, 65.652 182.371, 57.619 177.230, 52.181 170.852, 44.479 164.474, 36.777 163.829, 35.998 161.899, 34.792 153.008, 30.215 144.117, 25.637 143.091, 25.109 140.817, 25.255 130.820, 25.516 120.824, 25.776 110.827, 26.037 105.007, 26.189 101.913, 26.190 93.332, 31.325 86.498, 35.415 81.875, 38.724 75.884, 46.731 72.373, 51.424 65.867, 59.018 65.030, 59.995 61.239, 69.248 57.448, 78.502 56.254, 81.418 55.310, 88.307 54.580, 91.608 54.751, 98.288 56.196, 108.183 57.589, 117.726 61.100, 121.735 64.063, 126.059 " />
            <path fill="none" stroke-width="3.0" stroke-linecap="butt" stroke-opacity="1.0" stroke="rgb(0, 0, 0)" stroke-linejoin="round" d=" M 106.238, 208.164 108.171, 209.278 108.213, 209.284 110.744, 209.642 111.115, 210.625 " />
            <path fill="none" stroke-width="3.0" stroke-linecap="butt" stroke-opacity="1.0" stroke="rgb(0, 0, 0)" stroke-linejoin="round" d=" M 95.768, 131.277 92.271, 133.345 87.034, 136.440 85.486, 140.307 83.257, 141.557 83.773, 144.538 82.742, 146.214 81.885, 151.864 81.482, 154.519 81.509, 163.184 82.772, 163.806 85.788, 166.148 93.056, 172.882 93.862, 173.471 99.273, 177.428 103.072, 178.276 106.748, 179.097 110.299, 179.584 115.276, 180.266 122.655, 179.406 126.536, 178.416 135.572, 174.134 140.056, 172.010 140.883, 171.145 143.474, 168.439 146.778, 159.257 147.807, 155.258 147.948, 154.707 147.430, 150.359 145.808, 146.795 143.544, 138.234 143.334, 137.439 141.060, 135.939 140.869, 135.812 136.945, 133.223 132.548, 129.878 129.793, 129.311 125.132, 128.353 122.023, 127.714 116.443, 126.925 115.331, 127.047 108.876, 127.756 99.207, 129.336 97.747, 130.160 96.319, 130.966 95.768, 131.277 " />
            <path fill="none" stroke-width="3.0" stroke-linecap="butt" stroke-opacity="1.0" stroke="rgb(0, 0, 0)" stroke-linejoin="round" d=" M 127.347, 189.208 131.896, 191.411 134.499, 191.208 140.799, 190.716 143.184, 188.649 143.341, 188.513 143.735, 188.171 147.172, 185.192 " />
            <path fill="none" stroke-width="3.0" stroke-linecap="butt" stroke-opacity="1.0" stroke="rgb(0, 0, 0)" stroke-linejoin="round" d=" M 89.360, 184.150 92.897, 187.696 95.035, 189.840 103.335, 190.869 " />
            <path fill="none" stroke-width="3.0" stroke-linecap="butt" stroke-opacity="1.0" stroke="rgb(0, 0, 0)" stroke-linejoin="round" d=" M 76.501, 104.977 81.241, 98.157 86.090, 92.994 94.580, 89.272 103.167, 89.575 " />
            <path fill="none" stroke-width="3.0" stroke-linecap="butt" stroke-opacity="1.0" stroke="rgb(0, 0, 0)" stroke-linejoin="round" d=" M 112.850, 100.235 110.606, 92.565 106.867, 85.411 101.335, 81.945 " />
            <path fill="none" stroke-width="3.0" stroke-linecap="butt" stroke-opacity="1.0" stroke="rgb(0, 0, 0)" stroke-linejoin="round" d=" M 131.413, 93.914 136.680, 89.720 146.237, 89.369 155.444, 93.117 160.620, 98.309 165.598, 105.235 " />
            <path fill="none" stroke-width="3.0" stroke-linecap="butt" stroke-opacity="1.0" stroke="rgb(0, 0, 0)" stroke-linejoin="round" d=" M 133.930, 84.264 128.445, 90.468 126.261, 100.227 126.212, 100.446 " />
            <path fill="none" stroke-width="3.0" stroke-linecap="butt" stroke-opacity="1.0" stroke="rgb(0, 0, 0)" stroke-linejoin="round" d=" M 144.914, 138.146 150.075, 132.728 152.589, 125.430 152.645, 115.431 152.649, 114.667 149.165, 105.892 142.622, 100.357 133.245, 101.317 130.640, 106.328 130.480, 110.674 " />
            <path fill="none" stroke-width="3.0" stroke-linecap="butt" stroke-opacity="1.0" stroke="rgb(0, 0, 0)" stroke-linejoin="round" d=" M 109.926, 107.457 107.698, 102.498 99.141, 101.574 93.319, 107.253 90.004, 115.470 89.834, 125.469 89.829, 125.799 91.747, 132.812 " />
            <path fill="none" stroke-width="3.0" stroke-linecap="butt" stroke-opacity="1.0" stroke="rgb(0, 0, 0)" stroke-linejoin="round" d=" M 176.616, 99.327 182.387, 97.299 178.778, 92.027 " />
            <path fill="none" stroke-width="3.0" stroke-linecap="butt" stroke-opacity="1.0" stroke="rgb(0, 0, 0)" stroke-linejoin="round" d=" M 64.063, 126.038 62.193, 123.304 64.061, 125.856 64.063, 126.038 64.063, 126.059 64.119, 130.946 64.127, 131.643 64.442, 131.566 64.424, 132.047 63.380, 133.356 58.211, 141.916 57.811, 142.579 57.795, 147.711 59.252, 151.726 61.586, 153.107 61.796, 156.868 61.436, 166.265 61.316, 169.373 61.400, 170.080 61.442, 170.198 61.622, 170.681 65.580, 177.217 70.803, 185.745 74.264, 191.397 77.363, 192.890 77.918, 193.970 86.703, 198.746 95.489, 203.522 96.122, 203.866 102.787, 207.963 108.657, 210.784 114.899, 212.918 121.897, 216.193 127.044, 214.065 136.800, 211.869 137.148, 211.791 140.168, 210.535 148.734, 205.305 157.671, 200.819 163.609, 197.838 169.144, 193.615 172.099, 191.054 177.435, 182.597 181.582, 176.024 183.602, 171.252 183.608, 171.238 183.946, 169.959 185.705, 160.577 185.770, 157.439 185.991, 156.545 186.493, 156.406 190.641, 148.647 191.171, 145.500 187.587, 137.567 185.845, 134.297 186.462, 130.933 186.607, 130.146 186.937, 128.346 186.182, 130.784 186.164, 130.840 " />
            <path fill="none" stroke-width="3.0" stroke-linecap="butt" stroke-opacity="1.0" stroke="rgb(0, 0, 0)" stroke-linejoin="round" d=" M 143.341, 188.513 143.835, 188.557 143.861, 188.548 143.875, 188.544 143.887, 188.541 143.882, 188.559 143.863, 188.556 143.875, 188.544 144.831, 187.619 " />
            <path fill="none" stroke-width="3.0" stroke-linecap="butt" stroke-opacity="1.0" stroke="rgb(0, 0, 0)" stroke-linejoin="round" d=" M 143.186, 189.422 143.184, 188.649 " />
            <path fill="none" stroke-width="3.0" stroke-linecap="butt" stroke-opacity="1.0" stroke="rgb(0, 0, 0)" stroke-linejoin="round" d=" M 103.287, 205.388 106.238, 208.164 " />
            <path fill="none" stroke-width="3.0" stroke-linecap="butt" stroke-opacity="1.0" stroke="rgb(0, 0, 0)" stroke-linejoin="round" d=" M 64.119, 130.946 62.209, 132.498 58.807, 136.515 58.212, 140.326 56.954, 144.974 56.133, 147.775 56.423, 153.165 57.027, 159.522 59.473, 161.927 61.436, 166.265 " />
            <path fill="none" stroke-width="3.0" stroke-linecap="butt" stroke-opacity="1.0" stroke="rgb(0, 0, 0)" stroke-linejoin="round" d=" M 81.885, 151.864 80.750, 151.400 76.089, 146.305 70.769, 138.865 68.603, 143.258 68.248, 143.980 65.025, 150.033 64.684, 153.690 64.409, 155.898 65.087, 159.485 65.613, 161.831 66.639, 165.531 67.802, 167.505 68.009, 167.586 72.223, 169.227 74.885, 171.051 76.247, 174.018 77.758, 177.948 80.353, 180.889 81.917, 182.593 85.996, 183.362 89.044, 183.453 89.497, 183.826 90.818, 184.917 92.118, 185.990 92.145, 186.012 92.897, 187.696 " />
            <path fill="none" stroke-width="3.0" stroke-linecap="butt" stroke-opacity="1.0" stroke="rgb(0, 0, 0)" stroke-linejoin="round" d=" M 104.943, 190.134 110.338, 193.215 117.333, 193.774 126.947, 194.670 131.861, 192.660 134.499, 191.208 " />
            <path fill="none" stroke-width="3.0" stroke-linecap="butt" stroke-opacity="1.0" stroke="rgb(0, 0, 0)" stroke-linejoin="round" d=" M 111.196, 187.279 116.597, 184.902 116.818, 184.911 118.117, 184.950 119.730, 185.519 120.252, 185.703 123.791, 187.486 " />
            <path fill="none" stroke-width="3.0" stroke-linecap="butt" stroke-opacity="1.0" stroke="rgb(0, 0, 0)" stroke-linejoin="round" d=" M 141.060, 135.939 142.779, 133.588 144.864, 130.564 145.202, 128.589 145.895, 123.310 144.994, 117.053 144.848, 116.151 141.844, 111.953 141.173, 111.023 137.188, 109.854 134.728, 109.219 131.104, 110.469 " />
            <path fill="none" stroke-width="3.0" stroke-linecap="butt" stroke-opacity="1.0" stroke="rgb(0, 0, 0)" stroke-linejoin="round" d=" M 143.735, 188.171 146.979, 184.760 147.153, 184.577 150.019, 184.593 154.483, 183.928 154.631, 183.906 156.933, 181.451 156.976, 181.406 159.059, 179.360 160.514, 176.021 162.265, 172.438 167.326, 170.656 170.192, 168.976 170.285, 168.716 170.290, 168.705 171.303, 165.880 173.184, 163.427 173.954, 160.347 174.777, 157.392 174.558, 154.292 174.249, 151.378 170.500, 144.323 168.252, 139.814 163.578, 143.919 156.984, 151.437 156.292, 152.227 147.807, 155.258 " />
            <path fill="none" stroke-width="3.0" stroke-linecap="butt" stroke-opacity="1.0" stroke="rgb(0, 0, 0)" stroke-linejoin="round" d=" M 183.602, 171.252 187.334, 170.737 191.581, 168.623 194.606, 163.891 196.799, 162.137 198.144, 154.575 198.529, 150.197 197.559, 146.375 195.650, 140.404 194.754, 137.183 190.189, 132.335 189.637, 131.922 186.462, 130.933 " />
            <path fill="none" stroke-width="3.0" stroke-linecap="butt" stroke-opacity="1.0" stroke="rgb(0, 0, 0)" stroke-linejoin="round" d=" M 186.607, 130.146 189.407, 125.939 " />
        </g>
    </g>
</svg>
