<?xml version='1.0' encoding='ascii'?>
<svg xmlns="http://www.w3.org/2000/svg" version="1.1" width="250" height="250">
    <g id="ViewLayer_LineSet" xmlns:inkscape="http://www.inkscape.org/namespaces/inkscape" inkscape:groupmode="lineset" inkscape:label="ViewLayer_LineSet">
        <g xmlns:inkscape="http://www.inkscape.org/namespaces/inkscape" inkscape:groupmode="layer" id="strokes" inkscape:label="strokes">
            <path fill="none" stroke-width="3.0" stroke-linecap="butt" stroke-opacity="1.0" stroke="rgb(0, 0, 0)" stroke-linejoin="round" d=" M 192.722, 117.232 199.713, 110.082 206.704, 102.931 208.017, 101.589 208.339, 101.107 207.937, 100.231 207.409, 98.448 201.960, 90.062 198.205, 84.283 195.234, 79.302 187.950, 72.450 180.665, 65.599 180.347, 65.299 172.312, 60.711 164.680, 54.249 159.505, 49.868 157.652, 49.107 157.093, 48.794 147.511, 45.931 137.930, 43.067 128.349, 40.203 127.515, 39.954 117.543, 39.199 116.744, 39.138 108.037, 40.143 101.138, 40.966 91.180, 41.873 85.214, 42.417 75.309, 43.787 69.954, 44.528 62.039, 50.639 56.266, 55.095 56.080, 55.322 55.953, 55.474 53.322, 65.121 51.755, 70.864 48.125, 80.193 51.151, 89.725 52.098, 92.711 55.547, 99.315 57.269, 101.539 60.898, 106.360 68.604, 112.734 69.616, 113.571 64.947, 116.160 58.504, 121.738 52.224, 126.079 46.151, 129.591 41.965, 132.838 40.747, 138.044 49.177, 132.665 57.095, 127.614 63.430, 124.386 " />
            <path fill="none" stroke-width="3.0" stroke-linecap="butt" stroke-opacity="1.0" stroke="rgb(0, 0, 0)" stroke-linejoin="round" d=" M 192.554, 146.283 192.786, 145.619 192.562, 144.107 192.163, 142.375 189.915, 132.631 189.313, 130.022 189.492, 128.888 190.139, 124.784 190.396, 126.319 189.492, 128.888 " />
            <path fill="none" stroke-width="3.0" stroke-linecap="butt" stroke-opacity="1.0" stroke="rgb(0, 0, 0)" stroke-linejoin="round" d=" M 134.064, 207.236 134.647, 206.739 137.453, 204.349 " />
            <path fill="none" stroke-width="3.0" stroke-linecap="butt" stroke-opacity="1.0" stroke="rgb(0, 0, 0)" stroke-linejoin="round" d=" M 129.493, 158.789 135.039, 156.925 138.514, 152.960 " />
            <path fill="none" stroke-width="3.0" stroke-linecap="butt" stroke-opacity="1.0" stroke="rgb(0, 0, 0)" stroke-linejoin="round" d=" M 93.204, 165.613 86.404, 170.301 80.397, 176.801 80.257, 176.929 79.862, 177.292 74.870, 181.874 69.010, 187.253 68.157, 188.622 67.634, 189.161 70.135, 196.640 69.557, 205.224 69.855, 207.930 70.825, 209.494 72.684, 210.997 77.100, 216.234 82.249, 219.611 88.846, 221.481 98.796, 222.476 101.491, 222.745 104.408, 222.846 108.560, 222.164 113.953, 219.448 118.519, 217.718 123.250, 208.983 124.238, 207.159 124.875, 205.984 125.758, 204.353 125.810, 204.134 127.283, 198.017 127.590, 196.742 127.962, 196.018 " />
            <path fill="none" stroke-width="3.0" stroke-linecap="butt" stroke-opacity="1.0" stroke="rgb(0, 0, 0)" stroke-linejoin="round" d=" M 151.547, 200.495 151.631, 200.554 151.487, 200.576 146.880, 201.277 " />
            <path fill="none" stroke-width="3.0" stroke-linecap="butt" stroke-opacity="1.0" stroke="rgb(0, 0, 0)" stroke-linejoin="round" d=" M 144.176, 203.798 147.044, 202.908 147.204, 202.692 151.156, 201.024 151.487, 200.576 151.547, 200.495 152.488, 199.223 160.415, 193.126 162.509, 191.515 172.031, 189.206 177.389, 182.173 182.759, 173.738 183.098, 173.206 185.726, 165.444 184.409, 167.053 186.418, 157.257 187.292, 152.990 195.578, 152.591 199.898, 151.176 206.826, 143.964 208.520, 142.201 210.829, 139.881 213.467, 130.823 213.577, 128.674 212.400, 122.570 209.328, 116.911 204.512, 115.351 197.785, 116.305 195.230, 117.930 192.722, 117.232 " />
            <path fill="none" stroke-width="3.0" stroke-linecap="butt" stroke-opacity="1.0" stroke="rgb(0, 0, 0)" stroke-linejoin="round" d=" M 189.663, 145.063 189.905, 145.404 191.062, 149.044 192.554, 146.283 " />
            <path fill="none" stroke-width="3.0" stroke-linecap="butt" stroke-opacity="1.0" stroke="rgb(0, 0, 0)" stroke-linejoin="round" d=" M 92.779, 135.723 94.211, 143.456 97.844, 152.772 97.900, 152.914 99.958, 158.166 100.325, 156.789 " />
            <path fill="none" stroke-width="3.0" stroke-linecap="butt" stroke-opacity="1.0" stroke="rgb(0, 0, 0)" stroke-linejoin="round" d=" M 76.382, 132.732 74.747, 138.695 73.739, 140.202 75.615, 144.807 76.281, 148.907 76.217, 149.785 75.930, 153.798 74.659, 163.717 74.555, 164.528 78.725, 173.617 80.069, 176.545 80.257, 176.929 " />
            <path fill="none" stroke-width="3.0" stroke-linecap="butt" stroke-opacity="1.0" stroke="rgb(0, 0, 0)" stroke-linejoin="round" d=" M 79.862, 177.292 79.331, 176.808 77.217, 173.665 71.928, 165.179 70.598, 163.046 69.159, 171.211 69.999, 174.377 70.555, 175.507 72.930, 179.686 74.870, 181.874 " />
            <path fill="none" stroke-width="3.0" stroke-linecap="butt" stroke-opacity="1.0" stroke="rgb(0, 0, 0)" stroke-linejoin="round" d=" M 90.012, 150.288 90.915, 152.199 92.447, 154.030 93.800, 155.829 95.192, 156.760 97.918, 158.950 98.956, 159.425 99.980, 159.100 102.590, 158.311 " />
            <path fill="none" stroke-width="3.0" stroke-linecap="butt" stroke-opacity="1.0" stroke="rgb(0, 0, 0)" stroke-linejoin="round" d=" M 113.454, 156.583 113.531, 156.728 115.051, 158.051 118.187, 160.768 122.882, 161.452 124.160, 161.679 124.986, 161.314 129.327, 159.203 129.493, 158.789 130.104, 157.261 131.234, 154.503 130.665, 149.276 130.542, 148.359 130.502, 148.274 130.472, 148.209 130.311, 147.863 128.096, 143.580 " />
            <path fill="none" stroke-width="3.0" stroke-linecap="butt" stroke-opacity="1.0" stroke="rgb(0, 0, 0)" stroke-linejoin="round" d=" M 123.250, 208.983 126.326, 210.085 129.248, 209.332 132.269, 208.329 133.795, 207.262 134.538, 206.743 134.934, 206.467 137.379, 204.346 137.453, 204.349 142.140, 204.508 143.001, 204.537 143.455, 204.498 144.176, 203.798 145.980, 202.046 146.880, 201.277 147.296, 200.921 147.989, 198.888 148.069, 198.655 148.567, 196.717 153.850, 195.010 155.737, 193.870 156.668, 190.958 158.472, 188.702 158.848, 186.815 159.846, 183.551 159.696, 182.614 159.019, 178.556 158.085, 177.352 148.321, 175.191 145.848, 174.644 141.266, 180.725 139.372, 183.239 129.844, 186.276 129.184, 186.486 128.968, 190.612 126.726, 192.898 " />
            <path fill="none" stroke-width="3.0" stroke-linecap="butt" stroke-opacity="1.0" stroke="rgb(0, 0, 0)" stroke-linejoin="round" d=" M 134.647, 206.739 135.736, 206.694 138.111, 205.994 142.140, 204.508 " />
            <path fill="none" stroke-width="3.0" stroke-linecap="butt" stroke-opacity="1.0" stroke="rgb(0, 0, 0)" stroke-linejoin="round" d=" M 139.597, 146.941 139.638, 147.044 139.288, 148.660 " />
        </g>
    </g>
</svg>
