<?xml version='1.0' encoding='ascii'?>
<svg xmlns="http://www.w3.org/2000/svg" version="1.1" width="250" height="250">
    <g id="ViewLayer_LineSet" xmlns:inkscape="http://www.inkscape.org/namespaces/inkscape" inkscape:groupmode="lineset" inkscape:label="ViewLayer_LineSet">
        <g xmlns:inkscape="http://www.inkscape.org/namespaces/inkscape" inkscape:groupmode="layer" id="strokes" inkscape:label="strokes">
            <path fill="none" stroke-width="3.0" stroke-linecap="butt" stroke-opacity="1.0" stroke="rgb(0, 0, 0)" stroke-linejoin="round" d=" M 118.298, 205.877 126.566, 207.230 128.334, 206.756 " />
            <path fill="none" stroke-width="3.0" stroke-linecap="butt" stroke-opacity="1.0" stroke="rgb(0, 0, 0)" stroke-linejoin="round" d=" M 128.579, 113.098 132.154, 116.559 132.662, 117.248 " />
            <path fill="none" stroke-width="3.0" stroke-linecap="butt" stroke-opacity="1.0" stroke="rgb(0, 0, 0)" stroke-linejoin="round" d=" M 151.031, 119.184 152.531, 118.227 154.357, 117.062 156.721, 115.554 157.855, 113.734 160.407, 110.520 163.565, 109.354 " />
            <path fill="none" stroke-width="3.0" stroke-linecap="butt" stroke-opacity="1.0" stroke="rgb(0, 0, 0)" stroke-linejoin="round" d=" M 202.221, 114.069 194.679, 107.670 194.307, 107.730 184.355, 106.759 183.778, 106.703 182.936, 106.621 181.082, 106.501 " />
            <path fill="none" stroke-width="3.0" stroke-linecap="butt" stroke-opacity="1.0" stroke="rgb(0, 0, 0)" stroke-linejoin="round" d=" M 175.057, 40.865 175.056, 40.865 166.467, 35.743 161.454, 32.754 153.909, 32.199 143.921, 31.714 133.932, 31.228 132.215, 31.145 122.239, 30.461 121.529, 30.412 111.531, 30.240 108.568, 30.188 100.011, 33.148 91.657, 38.646 84.878, 43.107 76.660, 48.806 73.720, 50.845 69.171, 57.485 61.643, 64.066 58.688, 66.650 52.721, 74.674 51.632, 76.139 49.159, 85.828 48.260, 89.352 44.428, 98.589 42.146, 104.088 42.674, 109.789 47.643, 115.832 54.830, 122.785 55.702, 123.628 54.639, 123.584 " />
            <path fill="none" stroke-width="3.0" stroke-linecap="butt" stroke-opacity="1.0" stroke="rgb(0, 0, 0)" stroke-linejoin="round" d=" M 158.573, 157.014 154.440, 158.051 " />
            <path fill="none" stroke-width="3.0" stroke-linecap="butt" stroke-opacity="1.0" stroke="rgb(0, 0, 0)" stroke-linejoin="round" d=" M 95.282, 114.532 94.610, 123.126 100.409, 116.679 " />
            <path fill="none" stroke-width="3.0" stroke-linecap="butt" stroke-opacity="1.0" stroke="rgb(0, 0, 0)" stroke-linejoin="round" d=" M 136.635, 123.012 135.680, 116.150 131.375, 107.800 " />
            <path fill="none" stroke-width="3.0" stroke-linecap="butt" stroke-opacity="1.0" stroke="rgb(0, 0, 0)" stroke-linejoin="round" d=" M 171.801, 110.908 175.142, 115.121 177.157, 119.061 178.103, 120.911 " />
            <path fill="none" stroke-width="3.0" stroke-linecap="butt" stroke-opacity="1.0" stroke="rgb(0, 0, 0)" stroke-linejoin="round" d=" M 151.890, 113.026 148.478, 122.248 " />
            <path fill="none" stroke-width="3.0" stroke-linecap="butt" stroke-opacity="1.0" stroke="rgb(0, 0, 0)" stroke-linejoin="round" d=" M 103.844, 132.813 103.406, 139.362 105.875, 146.765 110.626, 151.347 120.347, 153.690 121.640, 154.001 " />
            <path fill="none" stroke-width="3.0" stroke-linecap="butt" stroke-opacity="1.0" stroke="rgb(0, 0, 0)" stroke-linejoin="round" d=" M 128.774, 125.530 126.363, 120.149 116.580, 117.826 " />
            <path fill="none" stroke-width="3.0" stroke-linecap="butt" stroke-opacity="1.0" stroke="rgb(0, 0, 0)" stroke-linejoin="round" d=" M 155.369, 148.066 159.542, 143.785 162.001, 136.735 163.593, 127.433 162.146, 120.133 157.713, 115.917 " />
            <path fill="none" stroke-width="3.0" stroke-linecap="butt" stroke-opacity="1.0" stroke="rgb(0, 0, 0)" stroke-linejoin="round" d=" M 123.572, 181.154 123.545, 180.931 114.119, 177.592 104.998, 174.360 100.823, 170.322 94.728, 162.394 92.270, 159.198 92.041, 159.588 86.979, 168.212 85.353, 170.982 85.228, 172.683 84.842, 176.551 85.368, 178.597 86.568, 182.238 88.167, 185.716 89.841, 188.083 94.624, 189.580 97.576, 191.324 98.867, 194.145 100.112, 196.986 103.210, 199.765 104.507, 200.893 106.701, 201.098 110.869, 201.044 111.372, 201.038 116.574, 204.683 115.696, 205.092 " />
            <path fill="none" stroke-width="3.0" stroke-linecap="butt" stroke-opacity="1.0" stroke="rgb(0, 0, 0)" stroke-linejoin="round" d=" M 53.740, 123.100 48.898, 122.874 45.619, 123.232 44.726, 124.115 44.352, 124.631 40.620, 133.672 39.726, 138.722 40.118, 141.956 42.445, 150.392 44.906, 152.633 51.692, 159.978 53.277, 161.693 54.389, 161.805 63.485, 161.203 " />
            <path fill="none" stroke-width="3.0" stroke-linecap="butt" stroke-opacity="1.0" stroke="rgb(0, 0, 0)" stroke-linejoin="round" d=" M 65.481, 156.167 64.493, 158.659 63.485, 161.203 63.093, 162.192 64.497, 167.981 64.834, 170.251 67.456, 178.260 73.376, 186.319 75.752, 189.553 78.619, 192.972 88.310, 195.438 90.293, 195.943 96.778, 199.524 101.993, 200.273 104.878, 203.289 107.863, 206.961 109.592, 208.751 111.271, 209.834 117.699, 212.532 118.369, 212.823 126.241, 213.418 127.795, 213.456 129.516, 213.007 136.343, 210.888 137.595, 210.171 " />
            <path fill="none" stroke-width="3.0" stroke-linecap="butt" stroke-opacity="1.0" stroke="rgb(0, 0, 0)" stroke-linejoin="round" d=" M 58.585, 130.618 57.993, 129.182 57.592, 126.431 58.585, 130.618 59.147, 132.988 57.436, 142.226 56.632, 147.289 57.012, 149.508 58.623, 152.414 59.728, 154.408 61.171, 157.012 61.598, 156.077 " />
            <path fill="none" stroke-width="3.0" stroke-linecap="butt" stroke-opacity="1.0" stroke="rgb(0, 0, 0)" stroke-linejoin="round" d=" M 119.845, 188.033 120.950, 192.122 125.455, 201.050 126.619, 203.356 127.570, 205.241 128.334, 206.756 128.942, 207.960 131.004, 208.997 132.292, 209.686 137.595, 210.171 139.535, 210.348 147.407, 210.447 157.320, 209.129 158.945, 208.913 165.017, 207.535 167.832, 206.635 173.562, 199.931 178.237, 195.381 180.093, 190.338 180.600, 183.318 180.478, 180.539 180.245, 175.252 177.936, 173.100 177.784, 172.959 175.796, 169.604 172.533, 167.441 166.543, 163.469 158.772, 157.175 158.573, 157.014 " />
            <path fill="none" stroke-width="3.0" stroke-linecap="butt" stroke-opacity="1.0" stroke="rgb(0, 0, 0)" stroke-linejoin="round" d=" M 104.052, 129.700 104.069, 129.563 107.673, 123.531 108.655, 122.023 115.591, 118.384 116.580, 117.826 116.626, 117.800 118.698, 118.329 " />
            <path fill="none" stroke-width="3.0" stroke-linecap="butt" stroke-opacity="1.0" stroke="rgb(0, 0, 0)" stroke-linejoin="round" d=" M 110.869, 201.044 115.696, 205.092 116.421, 205.699 " />
            <path fill="none" stroke-width="3.0" stroke-linecap="butt" stroke-opacity="1.0" stroke="rgb(0, 0, 0)" stroke-linejoin="round" d=" M 117.137, 127.971 116.859, 128.069 116.795, 128.092 114.172, 131.937 113.185, 133.345 112.555, 137.561 112.135, 140.244 112.718, 143.665 113.319, 147.073 115.340, 149.906 116.902, 151.989 119.994, 152.775 122.399, 153.335 " />
            <path fill="none" stroke-width="3.0" stroke-linecap="butt" stroke-opacity="1.0" stroke="rgb(0, 0, 0)" stroke-linejoin="round" d=" M 148.297, 127.273 148.354, 126.791 148.632, 122.791 149.361, 121.188 " />
            <path fill="none" stroke-width="3.0" stroke-linecap="butt" stroke-opacity="1.0" stroke="rgb(0, 0, 0)" stroke-linejoin="round" d=" M 148.699, 152.204 149.834, 152.374 151.049, 152.004 152.263, 151.456 154.295, 149.304 154.997, 148.783 155.369, 148.066 156.834, 145.246 157.522, 144.066 158.594, 139.600 158.962, 138.061 158.884, 136.726 158.755, 132.024 158.518, 131.427 157.973, 129.106 156.971, 127.874 156.328, 127.146 153.895, 126.702 152.299, 126.451 " />
            <path fill="none" stroke-width="3.0" stroke-linecap="butt" stroke-opacity="1.0" stroke="rgb(0, 0, 0)" stroke-linejoin="round" d=" M 174.940, 123.661 174.826, 122.229 176.967, 119.363 177.095, 119.157 177.157, 119.061 " />
            <path fill="none" stroke-width="3.0" stroke-linecap="butt" stroke-opacity="1.0" stroke="rgb(0, 0, 0)" stroke-linejoin="round" d=" M 183.778, 106.703 184.524, 105.300 187.488, 97.387 189.341, 88.617 191.483, 78.849 192.414, 74.602 191.256, 68.506 186.081, 59.949 185.248, 58.571 180.826, 49.602 177.952, 43.771 176.916, 42.594 175.059, 40.867 175.058, 40.866 " />
            <path fill="none" stroke-width="3.0" stroke-linecap="butt" stroke-opacity="1.0" stroke="rgb(0, 0, 0)" stroke-linejoin="round" d=" M 180.478, 180.539 180.990, 179.796 181.890, 176.300 182.208, 175.791 183.526, 171.289 183.814, 170.397 184.072, 166.483 184.106, 165.313 181.237, 157.343 180.343, 154.706 179.572, 155.676 179.486, 155.785 174.363, 164.373 172.533, 167.441 " />
            <path fill="none" stroke-width="3.0" stroke-linecap="butt" stroke-opacity="1.0" stroke="rgb(0, 0, 0)" stroke-linejoin="round" d=" M 179.572, 155.676 179.077, 152.277 180.355, 148.875 180.766, 147.105 181.195, 145.997 182.115, 140.576 180.178, 136.496 175.343, 128.687 175.241, 127.411 " />
            <path fill="none" stroke-width="3.0" stroke-linecap="butt" stroke-opacity="1.0" stroke="rgb(0, 0, 0)" stroke-linejoin="round" d=" M 178.249, 118.200 180.752, 113.108 180.574, 112.802 180.554, 112.767 178.839, 109.907 " />
            <path fill="none" stroke-width="3.0" stroke-linecap="butt" stroke-opacity="1.0" stroke="rgb(0, 0, 0)" stroke-linejoin="round" d=" M 181.848, 110.442 182.131, 111.894 181.350, 112.672 181.098, 111.743 180.690, 110.236 " />
            <path fill="none" stroke-width="3.0" stroke-linecap="butt" stroke-opacity="1.0" stroke="rgb(0, 0, 0)" stroke-linejoin="round" d=" M 181.848, 110.442 191.694, 112.195 201.539, 113.947 202.221, 114.069 " />
        </g>
    </g>
</svg>
