<?xml version='1.0' encoding='ascii'?>
<svg xmlns="http://www.w3.org/2000/svg" version="1.1" width="250" height="250">
    <g id="ViewLayer_LineSet" xmlns:inkscape="http://www.inkscape.org/namespaces/inkscape" inkscape:groupmode="lineset" inkscape:label="ViewLayer_LineSet">
        <g xmlns:inkscape="http://www.inkscape.org/namespaces/inkscape" inkscape:groupmode="layer" id="strokes" inkscape:label="strokes">
            <path fill="none" stroke-width="3.0" stroke-linecap="butt" stroke-opacity="1.0" stroke="rgb(0, 0, 0)" stroke-linejoin="round" d=" M 116.161, 189.488 118.091, 187.326 118.431, 187.361 120.016, 187.524 124.710, 187.254 125.238, 187.224 127.150, 185.534 130.146, 183.118 131.075, 181.163 133.190, 176.329 137.210, 175.301 141.692, 173.233 142.870, 171.040 146.250, 167.741 146.821, 166.102 148.626, 161.602 148.616, 160.217 148.321, 155.335 143.838, 146.396 143.525, 145.772 142.032, 142.742 136.884, 146.457 129.354, 153.038 126.771, 155.295 117.190, 158.161 113.044, 159.401 106.021, 161.354 " />
            <path fill="none" stroke-width="3.0" stroke-linecap="butt" stroke-opacity="1.0" stroke="rgb(0, 0, 0)" stroke-linejoin="round" d=" M 85.815, 186.319 89.342, 184.686 89.416, 184.713 89.416, 184.714 89.579, 185.115 93.712, 187.008 100.341, 190.779 " />
            <path fill="none" stroke-width="3.0" stroke-linecap="butt" stroke-opacity="1.0" stroke="rgb(0, 0, 0)" stroke-linejoin="round" d=" M 107.723, 92.049 107.690, 92.085 107.690, 92.085 107.688, 92.094 " />
            <path fill="none" stroke-width="3.0" stroke-linecap="butt" stroke-opacity="1.0" stroke="rgb(0, 0, 0)" stroke-linejoin="round" d=" M 157.630, 96.582 157.477, 96.306 149.777, 90.506 " />
            <path fill="none" stroke-width="3.0" stroke-linecap="butt" stroke-opacity="1.0" stroke="rgb(0, 0, 0)" stroke-linejoin="round" d=" M 72.421, 104.933 76.457, 95.984 76.346, 94.309 " />
            <path fill="none" stroke-width="3.0" stroke-linecap="butt" stroke-opacity="1.0" stroke="rgb(0, 0, 0)" stroke-linejoin="round" d=" M 184.435, 145.921 188.301, 147.951 187.401, 140.649 187.284, 139.697 188.326, 137.787 188.286, 139.075 187.401, 140.649 " />
            <path fill="none" stroke-width="3.0" stroke-linecap="butt" stroke-opacity="1.0" stroke="rgb(0, 0, 0)" stroke-linejoin="round" d=" M 132.605, 106.751 133.012, 107.090 133.015, 107.097 133.055, 107.196 136.578, 116.064 136.487, 117.467 136.410, 127.252 133.638, 133.774 132.960, 134.851 128.479, 139.650 127.829, 139.835 126.004, 139.891 " />
            <path fill="none" stroke-width="3.0" stroke-linecap="butt" stroke-opacity="1.0" stroke="rgb(0, 0, 0)" stroke-linejoin="round" d=" M 103.003, 192.477 109.903, 192.611 111.741, 192.647 114.983, 190.330 118.604, 187.742 " />
            <path fill="none" stroke-width="3.0" stroke-linecap="butt" stroke-opacity="1.0" stroke="rgb(0, 0, 0)" stroke-linejoin="round" d=" M 73.667, 187.468 79.286, 189.229 79.550, 189.111 83.636, 187.290 89.416, 184.714 " />
            <path fill="none" stroke-width="3.0" stroke-linecap="butt" stroke-opacity="1.0" stroke="rgb(0, 0, 0)" stroke-linejoin="round" d=" M 69.099, 105.878 70.215, 103.811 70.717, 102.882 72.570, 99.448 75.962, 94.549 76.346, 94.309 81.613, 91.014 86.638, 91.319 " />
            <path fill="none" stroke-width="3.0" stroke-linecap="butt" stroke-opacity="1.0" stroke="rgb(0, 0, 0)" stroke-linejoin="round" d=" M 93.740, 101.843 91.600, 94.362 89.938, 87.282 86.571, 83.882 " />
            <path fill="none" stroke-width="3.0" stroke-linecap="butt" stroke-opacity="1.0" stroke="rgb(0, 0, 0)" stroke-linejoin="round" d=" M 105.765, 102.026 110.621, 95.479 116.396, 91.135 126.379, 90.561 126.514, 90.553 135.889, 94.034 136.336, 94.201 141.588, 99.507 146.546, 106.688 146.900, 98.056 143.287, 90.962 " />
            <path fill="none" stroke-width="3.0" stroke-linecap="butt" stroke-opacity="1.0" stroke="rgb(0, 0, 0)" stroke-linejoin="round" d=" M 116.051, 139.483 122.187, 137.851 " />
            <path fill="none" stroke-width="3.0" stroke-linecap="butt" stroke-opacity="1.0" stroke="rgb(0, 0, 0)" stroke-linejoin="round" d=" M 133.015, 107.097 126.364, 101.489 116.475, 102.555 113.517, 107.610 113.054, 111.939 " />
            <path fill="none" stroke-width="3.0" stroke-linecap="butt" stroke-opacity="1.0" stroke="rgb(0, 0, 0)" stroke-linejoin="round" d=" M 94.310, 103.655 88.758, 102.606 85.392, 107.949 82.958, 115.782 82.460, 125.691 82.701, 129.054 " />
            <path fill="none" stroke-width="3.0" stroke-linecap="butt" stroke-opacity="1.0" stroke="rgb(0, 0, 0)" stroke-linejoin="round" d=" M 86.530, 90.980 86.638, 91.319 86.852, 91.995 87.148, 93.952 91.565, 98.137 " />
            <path fill="none" stroke-width="3.0" stroke-linecap="butt" stroke-opacity="1.0" stroke="rgb(0, 0, 0)" stroke-linejoin="round" d=" M 195.844, 134.630 203.764, 128.525 204.716, 127.791 206.211, 129.820 208.021, 123.115 208.924, 119.207 205.950, 109.660 202.975, 100.112 202.227, 97.710 200.094, 87.940 198.603, 81.112 193.203, 72.696 187.802, 64.279 186.333, 61.990 180.574, 55.406 178.672, 51.947 171.089, 45.427 163.507, 38.908 162.294, 37.865 155.499, 32.102 146.390, 27.975 137.281, 23.848 135.392, 22.992 134.944, 22.964 132.533, 23.032 122.681, 24.745 112.829, 26.458 102.976, 28.172 100.716, 28.565 95.795, 29.469 88.046, 35.791 86.473, 37.074 79.262, 44.003 76.610, 46.552 75.056, 49.579 72.007, 54.507 69.358, 64.150 67.906, 69.435 67.961, 70.482 " />
            <path fill="none" stroke-width="3.0" stroke-linecap="butt" stroke-opacity="1.0" stroke="rgb(0, 0, 0)" stroke-linejoin="round" d=" M 76.630, 120.287 75.391, 117.606 74.773, 116.422 74.333, 115.579 74.367, 117.071 74.558, 121.753 73.396, 126.545 73.189, 129.572 " />
            <path fill="none" stroke-width="3.0" stroke-linecap="butt" stroke-opacity="1.0" stroke="rgb(0, 0, 0)" stroke-linejoin="round" d=" M 81.302, 190.288 77.240, 191.706 81.037, 196.289 82.080, 197.347 86.372, 201.990 93.257, 208.539 93.732, 208.955 97.019, 210.509 101.914, 210.419 106.660, 210.735 110.508, 214.305 110.455, 213.944 113.626, 215.348 120.632, 213.774 130.626, 213.416 131.709, 213.378 135.469, 212.633 144.679, 208.737 145.529, 208.377 146.039, 207.855 148.810, 206.030 156.790, 200.003 163.323, 195.069 168.741, 189.625 169.165, 189.004 174.717, 180.876 176.466, 179.047 179.278, 176.105 180.048, 175.300 180.191, 175.066 180.302, 175.103 190.302, 175.024 190.468, 175.023 192.152, 175.010 201.392, 171.184 204.949, 169.711 206.004, 168.821 206.440, 168.551 209.781, 159.126 210.254, 157.794 210.601, 156.063 209.535, 149.506 205.694, 140.260 204.695, 138.445 201.247, 135.355 198.701, 134.661 195.844, 134.630 " />
            <path fill="none" stroke-width="3.0" stroke-linecap="butt" stroke-opacity="1.0" stroke="rgb(0, 0, 0)" stroke-linejoin="round" d=" M 81.412, 69.657 71.431, 70.269 67.961, 70.482 65.154, 70.654 62.384, 70.840 54.667, 76.853 46.024, 81.882 44.572, 82.727 44.531, 84.370 53.721, 88.315 62.910, 92.259 68.441, 94.633 " />
            <path fill="none" stroke-width="3.0" stroke-linecap="butt" stroke-opacity="1.0" stroke="rgb(0, 0, 0)" stroke-linejoin="round" d=" M 70.215, 103.811 70.930, 105.189 71.210, 105.141 72.421, 104.933 " />
            <path fill="none" stroke-width="3.0" stroke-linecap="butt" stroke-opacity="1.0" stroke="rgb(0, 0, 0)" stroke-linejoin="round" d=" M 114.983, 190.330 116.875, 190.848 118.162, 190.407 120.314, 190.089 120.343, 191.346 120.344, 191.399 118.905, 191.250 120.343, 191.346 121.059, 191.394 120.853, 195.239 " />
            <path fill="none" stroke-width="3.0" stroke-linecap="butt" stroke-opacity="1.0" stroke="rgb(0, 0, 0)" stroke-linejoin="round" d=" M 86.416, 131.292 88.630, 129.424 88.707, 129.359 89.105, 129.315 92.019, 130.042 93.088, 130.309 92.039, 130.100 88.630, 129.424 87.957, 129.291 86.262, 129.023 85.495, 128.901 84.374, 128.962 82.701, 129.054 73.189, 129.572 63.569, 130.097 61.271, 130.242 61.048, 130.297 60.709, 130.383 53.514, 137.327 53.111, 137.716 52.555, 142.548 47.690, 151.284 47.487, 151.648 46.571, 154.722 47.320, 159.053 51.782, 166.608 55.290, 173.411 61.656, 177.630 62.961, 178.206 63.619, 178.497 65.570, 178.829 70.861, 179.730 76.765, 180.735 81.244, 180.490 84.543, 180.309 87.488, 179.643 96.807, 176.017 98.732, 175.269 " />
            <path fill="none" stroke-width="3.0" stroke-linecap="butt" stroke-opacity="1.0" stroke="rgb(0, 0, 0)" stroke-linejoin="round" d=" M 62.961, 178.206 63.302, 178.739 63.797, 179.456 65.209, 179.946 66.586, 180.169 68.729, 180.516 70.132, 182.785 71.457, 184.930 73.264, 187.249 73.614, 187.376 74.177, 187.579 76.342, 188.307 " />
            <path fill="none" stroke-width="3.0" stroke-linecap="butt" stroke-opacity="1.0" stroke="rgb(0, 0, 0)" stroke-linejoin="round" d=" M 68.388, 94.831 66.957, 97.529 68.176, 99.879 " />
            <path fill="none" stroke-width="3.0" stroke-linecap="butt" stroke-opacity="1.0" stroke="rgb(0, 0, 0)" stroke-linejoin="round" d=" M 68.441, 94.633 68.388, 94.831 67.889, 96.680 68.112, 99.705 68.176, 99.879 69.449, 103.339 " />
            <path fill="none" stroke-width="3.0" stroke-linecap="butt" stroke-opacity="1.0" stroke="rgb(0, 0, 0)" stroke-linejoin="round" d=" M 71.210, 105.141 74.131, 114.705 74.277, 115.183 74.773, 116.422 " />
            <path fill="none" stroke-width="3.0" stroke-linecap="butt" stroke-opacity="1.0" stroke="rgb(0, 0, 0)" stroke-linejoin="round" d=" M 83.636, 187.290 84.559, 188.330 88.443, 191.102 97.460, 193.274 104.091, 195.100 107.020, 194.157 109.903, 192.611 " />
            <path fill="none" stroke-width="3.0" stroke-linecap="butt" stroke-opacity="1.0" stroke="rgb(0, 0, 0)" stroke-linejoin="round" d=" M 93.188, 110.367 91.622, 109.909 90.576, 110.107 89.585, 110.439 87.753, 112.690 87.002, 113.256 85.637, 116.499 84.924, 118.075 84.471, 121.508 84.173, 123.856 84.270, 126.232 84.374, 128.962 " />
            <path fill="none" stroke-width="3.0" stroke-linecap="butt" stroke-opacity="1.0" stroke="rgb(0, 0, 0)" stroke-linejoin="round" d=" M 94.680, 105.325 94.596, 105.924 93.863, 110.555 93.861, 110.564 93.792, 111.004 93.082, 120.979 92.820, 124.648 91.482, 128.470 92.019, 130.042 " />
            <path fill="none" stroke-width="3.0" stroke-linecap="butt" stroke-opacity="1.0" stroke="rgb(0, 0, 0)" stroke-linejoin="round" d=" M 123.591, 135.800 125.219, 133.455 125.837, 132.583 127.020, 126.882 127.294, 125.283 127.106, 123.433 126.428, 117.996 125.051, 115.795 123.089, 112.615 120.500, 111.699 117.171, 110.563 113.054, 111.939 " />
            <path fill="none" stroke-width="3.0" stroke-linecap="butt" stroke-opacity="1.0" stroke="rgb(0, 0, 0)" stroke-linejoin="round" d=" M 169.165, 189.004 171.969, 189.564 173.973, 190.138 177.632, 190.590 181.648, 189.323 189.859, 183.616 190.487, 183.180 192.440, 180.396 192.575, 178.521 190.468, 175.023 " />
            <path fill="none" stroke-width="3.0" stroke-linecap="butt" stroke-opacity="1.0" stroke="rgb(0, 0, 0)" stroke-linejoin="round" d=" M 179.278, 176.105 179.460, 177.085 176.466, 179.047 " />
        </g>
    </g>
</svg>
