<?xml version='1.0' encoding='ascii'?>
<svg xmlns="http://www.w3.org/2000/svg" version="1.1" width="250" height="250">
    <g id="ViewLayer_LineSet" xmlns:inkscape="http://www.inkscape.org/namespaces/inkscape" inkscape:groupmode="lineset" inkscape:label="ViewLayer_LineSet">
        <g xmlns:inkscape="http://www.inkscape.org/namespaces/inkscape" inkscape:groupmode="layer" id="strokes" inkscape:label="strokes">
            <path fill="none" stroke-width="3.0" stroke-linecap="butt" stroke-opacity="1.0" stroke="rgb(0, 0, 0)" stroke-linejoin="round" d=" M 143.903, 186.070 146.853, 182.944 147.028, 182.758 149.654, 182.792 154.568, 182.067 156.853, 179.631 159.019, 177.503 160.446, 174.224 162.242, 170.547 167.192, 168.850 170.180, 167.139 171.273, 164.124 173.200, 161.634 173.953, 158.599 174.777, 155.606 174.545, 152.495 174.222, 149.577 170.555, 142.731 168.207, 138.042 163.249, 142.289 156.573, 149.735 156.213, 150.137 147.370, 153.213 " />
            <path fill="none" stroke-width="3.0" stroke-linecap="butt" stroke-opacity="1.0" stroke="rgb(0, 0, 0)" stroke-linejoin="round" d=" M 112.774, 184.378 116.325, 182.769 116.471, 182.774 117.850, 182.812 118.773, 183.146 119.351, 183.355 121.806, 184.637 " />
            <path fill="none" stroke-width="3.0" stroke-linecap="butt" stroke-opacity="1.0" stroke="rgb(0, 0, 0)" stroke-linejoin="round" d=" M 178.431, 90.121 172.617, 81.985 166.775, 73.810 161.286, 71.658 152.091, 67.729 142.895, 63.800 142.038, 63.433 140.351, 63.446 130.351, 63.473 120.351, 63.501 116.453, 63.511 106.454, 63.666 96.455, 63.821 93.730, 63.863 91.262, 63.891 82.309, 68.345 75.756, 71.604 68.431, 74.813 64.088, 83.821 59.746, 92.829 59.551, 93.233 63.061, 95.316 61.886, 96.141 61.098, 98.204 " />
            <path fill="none" stroke-width="3.0" stroke-linecap="butt" stroke-opacity="1.0" stroke="rgb(0, 0, 0)" stroke-linejoin="round" d=" M 189.448, 126.610 196.307, 120.211 197.084, 110.241 197.861, 100.271 198.248, 95.304 197.708, 91.276 197.698, 89.367 195.573, 84.678 191.117, 75.726 186.661, 66.773 182.280, 57.972 176.730, 52.088 170.353, 44.385 163.889, 36.578 161.191, 34.900 152.305, 30.314 143.333, 25.684 140.118, 25.877 130.122, 26.132 120.125, 26.386 110.128, 26.640 106.011, 26.745 102.030, 26.752 93.440, 31.873 87.477, 35.428 82.150, 39.209 76.143, 47.204 73.146, 51.192 66.637, 58.783 65.395, 60.231 61.597, 69.482 57.800, 78.733 56.894, 80.940 55.746, 88.505 54.942, 92.000 55.026, 98.765 56.361, 108.676 57.674, 118.415 61.179, 122.319 64.080, 126.644 " />
            <path fill="none" stroke-width="3.0" stroke-linecap="butt" stroke-opacity="1.0" stroke="rgb(0, 0, 0)" stroke-linejoin="round" d=" M 107.485, 208.447 107.603, 208.516 107.670, 208.555 107.908, 208.594 107.945, 208.694 " />
            <path fill="none" stroke-width="3.0" stroke-linecap="butt" stroke-opacity="1.0" stroke="rgb(0, 0, 0)" stroke-linejoin="round" d=" M 95.704, 127.503 91.253, 130.171 86.426, 133.063 85.161, 136.297 83.244, 137.225 83.765, 140.834 82.531, 142.761 81.364, 149.686 81.169, 150.845 81.013, 159.238 82.556, 160.084 86.508, 163.312 92.905, 169.054 94.167, 169.891 101.348, 174.655 107.919, 176.190 109.694, 176.448 109.774, 176.460 115.137, 177.240 121.368, 176.494 124.728, 175.668 133.877, 171.633 140.285, 168.806 140.504, 168.580 143.011, 166.002 146.411, 156.598 146.617, 156.026 147.370, 153.213 147.785, 151.664 147.306, 147.216 145.628, 143.349 144.001, 137.008 143.318, 134.349 141.826, 133.346 141.569, 133.173 136.357, 129.669 132.498, 126.793 129.780, 126.213 124.786, 125.146 123.552, 124.883 116.080, 123.840 115.413, 123.906 105.911, 124.844 98.418, 126.040 97.261, 126.663 95.716, 127.497 95.704, 127.503 " />
            <path fill="none" stroke-width="3.0" stroke-linecap="butt" stroke-opacity="1.0" stroke="rgb(0, 0, 0)" stroke-linejoin="round" d=" M 128.378, 187.868 131.663, 189.482 135.087, 189.248 140.627, 188.868 143.098, 186.757 143.209, 186.663 147.048, 183.383 " />
            <path fill="none" stroke-width="3.0" stroke-linecap="butt" stroke-opacity="1.0" stroke="rgb(0, 0, 0)" stroke-linejoin="round" d=" M 88.918, 182.331 94.588, 187.982 94.865, 188.014 102.928, 188.931 " />
            <path fill="none" stroke-width="3.0" stroke-linecap="butt" stroke-opacity="1.0" stroke="rgb(0, 0, 0)" stroke-linejoin="round" d=" M 76.590, 103.682 81.364, 96.866 86.231, 91.686 94.709, 87.877 103.261, 88.047 106.542, 90.883 " />
            <path fill="none" stroke-width="3.0" stroke-linecap="butt" stroke-opacity="1.0" stroke="rgb(0, 0, 0)" stroke-linejoin="round" d=" M 112.867, 98.517 110.657, 90.863 106.965, 83.882 101.475, 80.550 " />
            <path fill="none" stroke-width="3.0" stroke-linecap="butt" stroke-opacity="1.0" stroke="rgb(0, 0, 0)" stroke-linejoin="round" d=" M 131.404, 92.304 136.667, 88.228 146.200, 88.004 155.384, 91.841 160.552, 97.041 165.527, 103.963 " />
            <path fill="none" stroke-width="3.0" stroke-linecap="butt" stroke-opacity="1.0" stroke="rgb(0, 0, 0)" stroke-linejoin="round" d=" M 133.934, 82.780 128.451, 88.850 126.240, 98.602 126.200, 98.780 " />
            <path fill="none" stroke-width="3.0" stroke-linecap="butt" stroke-opacity="1.0" stroke="rgb(0, 0, 0)" stroke-linejoin="round" d=" M 144.853, 136.972 150.024, 131.563 152.544, 124.323 152.601, 114.323 152.605, 113.560 149.125, 104.770 142.595, 99.197 133.231, 100.031 130.619, 104.970 130.448, 109.292 " />
            <path fill="none" stroke-width="3.0" stroke-linecap="butt" stroke-opacity="1.0" stroke="rgb(0, 0, 0)" stroke-linejoin="round" d=" M 109.935, 106.073 107.734, 101.199 99.205, 100.417 93.370, 106.203 90.014, 114.426 89.784, 124.423 89.777, 124.717 91.253, 130.171 " />
            <path fill="none" stroke-width="3.0" stroke-linecap="butt" stroke-opacity="1.0" stroke="rgb(0, 0, 0)" stroke-linejoin="round" d=" M 176.526, 98.599 182.113, 95.850 178.431, 90.121 " />
            <path fill="none" stroke-width="3.0" stroke-linecap="butt" stroke-opacity="1.0" stroke="rgb(0, 0, 0)" stroke-linejoin="round" d=" M 64.081, 126.527 62.388, 123.977 64.081, 126.288 64.081, 126.527 64.080, 126.644 64.070, 131.664 64.197, 131.623 64.470, 131.534 64.458, 132.111 63.045, 133.829 57.928, 141.898 57.643, 142.347 57.637, 142.954 57.593, 147.502 59.052, 151.549 61.329, 152.712 61.488, 156.262 61.008, 166.250 60.970, 167.052 60.906, 168.374 61.023, 169.445 61.084, 169.627 61.362, 170.381 66.474, 178.976 71.126, 186.798 74.204, 191.934 74.874, 192.268 74.990, 192.510 83.705, 197.413 92.421, 202.316 95.895, 204.271 103.720, 209.199 108.164, 211.266 117.046, 214.260 121.720, 216.466 125.116, 215.091 134.905, 213.047 137.537, 212.497 138.900, 211.953 147.403, 206.690 148.663, 205.910 157.541, 201.306 160.943, 199.541 168.858, 193.431 172.966, 189.810 178.260, 181.327 181.482, 176.164 183.228, 171.991 183.710, 170.840 184.069, 169.444 185.908, 159.614 185.946, 159.411 185.979, 157.073 186.144, 156.410 186.533, 156.337 190.765, 148.549 191.258, 145.442 187.640, 137.700 185.896, 134.522 186.453, 131.625 186.575, 130.990 186.957, 129.002 " />
            <path fill="none" stroke-width="3.0" stroke-linecap="butt" stroke-opacity="1.0" stroke="rgb(0, 0, 0)" stroke-linejoin="round" d=" M 143.209, 186.663 143.772, 186.707 144.668, 186.037 143.096, 187.977 143.098, 186.757 " />
            <path fill="none" stroke-width="3.0" stroke-linecap="butt" stroke-opacity="1.0" stroke="rgb(0, 0, 0)" stroke-linejoin="round" d=" M 57.637, 142.954 56.812, 145.953 55.966, 148.747 56.207, 154.136 56.747, 160.518 59.140, 162.800 60.970, 167.052 " />
            <path fill="none" stroke-width="3.0" stroke-linecap="butt" stroke-opacity="1.0" stroke="rgb(0, 0, 0)" stroke-linejoin="round" d=" M 64.197, 131.623 61.927, 133.572 58.708, 137.383 58.072, 141.373 57.928, 141.898 " />
            <path fill="none" stroke-width="3.0" stroke-linecap="butt" stroke-opacity="1.0" stroke="rgb(0, 0, 0)" stroke-linejoin="round" d=" M 81.364, 149.686 80.469, 149.329 75.637, 144.122 70.560, 137.110 68.307, 141.613 67.900, 142.424 64.755, 148.225 64.378, 151.909 64.082, 154.100 64.729, 157.673 65.236, 160.025 66.207, 163.624 67.402, 165.659 69.419, 166.428 71.733, 167.310 74.456, 169.144 75.830, 172.180 77.296, 176.066 79.809, 178.941 81.441, 180.736 85.803, 181.554 86.546, 181.570 88.625, 181.616 89.068, 181.975 91.485, 183.939 92.173, 185.575 " />
            <path fill="none" stroke-width="3.0" stroke-linecap="butt" stroke-opacity="1.0" stroke="rgb(0, 0, 0)" stroke-linejoin="round" d=" M 104.224, 188.331 104.804, 188.808 110.126, 191.907 116.172, 192.400 126.127, 193.354 126.590, 193.399 130.640, 191.716 135.087, 189.248 " />
            <path fill="none" stroke-width="3.0" stroke-linecap="butt" stroke-opacity="1.0" stroke="rgb(0, 0, 0)" stroke-linejoin="round" d=" M 106.542, 90.883 107.555, 91.746 107.601, 91.798 108.431, 92.734 " />
            <path fill="none" stroke-width="3.0" stroke-linecap="butt" stroke-opacity="1.0" stroke="rgb(0, 0, 0)" stroke-linejoin="round" d=" M 109.181, 108.802 104.456, 107.638 102.984, 108.139 98.883, 109.839 98.567, 110.076 98.505, 110.111 95.681, 115.372 95.541, 115.627 94.731, 122.349 94.718, 122.493 94.737, 122.634 94.874, 123.844 95.716, 127.497 " />
            <path fill="none" stroke-width="3.0" stroke-linecap="butt" stroke-opacity="1.0" stroke="rgb(0, 0, 0)" stroke-linejoin="round" d=" M 141.826, 133.346 142.751, 132.097 144.771, 129.204 145.135, 127.145 145.839, 121.962 144.948, 115.588 144.825, 114.806 141.746, 110.446 141.191, 109.665 137.002, 108.405 134.780, 107.818 130.652, 109.228 " />
            <path fill="none" stroke-width="3.0" stroke-linecap="butt" stroke-opacity="1.0" stroke="rgb(0, 0, 0)" stroke-linejoin="round" d=" M 183.228, 171.991 187.412, 171.480 192.227, 169.186 194.913, 164.880 197.024, 163.256 198.340, 155.628 198.707, 151.283 197.710, 147.442 195.805, 141.517 194.870, 138.130 190.499, 133.469 189.337, 132.558 186.453, 131.625 " />
            <path fill="none" stroke-width="3.0" stroke-linecap="butt" stroke-opacity="1.0" stroke="rgb(0, 0, 0)" stroke-linejoin="round" d=" M 186.575, 130.990 189.448, 126.610 " />
        </g>
    </g>
</svg>
