<?xml version='1.0' encoding='ascii'?>
<svg xmlns="http://www.w3.org/2000/svg" version="1.1" width="250" height="250">
    <g id="ViewLayer_LineSet" xmlns:inkscape="http://www.inkscape.org/namespaces/inkscape" inkscape:groupmode="lineset" inkscape:label="ViewLayer_LineSet">
        <g xmlns:inkscape="http://www.inkscape.org/namespaces/inkscape" inkscape:groupmode="layer" id="strokes" inkscape:label="strokes">
            <path fill="none" stroke-width="3.0" stroke-linecap="butt" stroke-opacity="1.0" stroke="rgb(0, 0, 0)" stroke-linejoin="round" d=" M 108.914, 214.913 112.192, 215.276 113.207, 215.389 117.716, 215.585 122.239, 215.490 126.573, 215.111 126.862, 215.064 130.529, 214.467 136.856, 213.062 141.899, 211.761 145.869, 210.190 154.665, 206.022 158.118, 203.792 163.310, 200.013 166.802, 197.472 173.752, 190.281 174.422, 189.588 175.698, 187.749 " />
            <path fill="none" stroke-width="3.0" stroke-linecap="butt" stroke-opacity="1.0" stroke="rgb(0, 0, 0)" stroke-linejoin="round" d=" M 59.441, 98.993 57.981, 100.828 53.747, 107.939 49.938, 116.609 49.346, 118.525 48.412, 121.549 48.308, 121.886 47.270, 125.246 46.018, 131.399 45.473, 137.775 45.248, 142.273 45.360, 145.029 45.477, 147.925 45.957, 152.426 46.226, 153.876 46.817, 157.064 47.664, 161.017 48.950, 165.322 50.614, 169.789 52.583, 174.225 54.771, 178.437 57.087, 182.241 59.428, 185.462 59.528, 185.595 " />
            <path fill="none" stroke-width="3.0" stroke-linecap="butt" stroke-opacity="1.0" stroke="rgb(0, 0, 0)" stroke-linejoin="round" d=" M 190.737, 130.370 188.837, 121.478 188.648, 120.991 " />
            <path fill="none" stroke-width="3.0" stroke-linecap="butt" stroke-opacity="1.0" stroke="rgb(0, 0, 0)" stroke-linejoin="round" d=" M 77.110, 150.672 77.664, 152.072 79.028, 154.142 80.922, 155.802 83.117, 157.032 84.224, 157.273 84.229, 157.275 84.257, 157.281 85.159, 157.477 87.253, 157.407 89.627, 156.582 91.676, 155.255 93.225, 153.409 93.941, 152.094 " />
            <path fill="none" stroke-width="3.0" stroke-linecap="butt" stroke-opacity="1.0" stroke="rgb(0, 0, 0)" stroke-linejoin="round" d=" M 117.433, 101.501 117.665, 102.282 118.023, 103.484 118.475, 106.873 118.516, 110.698 118.532, 110.767 117.416, 119.164 117.413, 119.183 117.386, 119.277 116.186, 123.397 114.682, 127.687 112.927, 131.684 110.986, 135.195 108.926, 138.048 108.446, 138.515 108.059, 138.891 106.817, 140.099 104.732, 141.245 102.743, 141.429 101.455, 140.868 100.923, 140.636 99.345, 138.901 98.463, 137.090 98.210, 136.571 98.079, 136.303 97.186, 132.963 96.714, 129.041 96.692, 124.727 97.127, 120.225 97.984, 115.814 98.128, 115.315 98.172, 115.162 99.187, 111.651 100.707, 107.748 102.486, 104.247 104.454, 101.271 105.405, 100.199 " />
            <path fill="none" stroke-width="3.0" stroke-linecap="butt" stroke-opacity="1.0" stroke="rgb(0, 0, 0)" stroke-linejoin="round" d=" M 77.311, 119.139 76.333, 123.433 75.249, 127.542 74.244, 130.727 74.112, 131.143 74.074, 131.266 72.812, 134.419 71.473, 136.840 70.070, 138.412 68.912, 138.933 68.631, 139.059 67.220, 139.053 65.844, 137.516 64.636, 135.413 63.661, 132.553 62.999, 129.082 62.908, 127.829 62.873, 127.353 62.715, 125.174 62.853, 121.017 63.088, 119.272 63.412, 116.869 64.278, 112.870 65.396, 109.027 66.721, 105.475 67.300, 104.244 67.541, 103.732 68.198, 102.337 69.771, 99.720 70.627, 98.649 " />
            <path fill="none" stroke-width="3.0" stroke-linecap="butt" stroke-opacity="1.0" stroke="rgb(0, 0, 0)" stroke-linejoin="round" d=" M 67.220, 139.053 70.424, 140.442 " />
            <path fill="none" stroke-width="3.0" stroke-linecap="butt" stroke-opacity="1.0" stroke="rgb(0, 0, 0)" stroke-linejoin="round" d=" M 77.870, 98.427 77.875, 98.435 78.527, 100.740 78.887, 103.653 78.996, 107.141 78.831, 109.146 78.807, 109.438 78.687, 110.883 " />
            <path fill="none" stroke-width="3.0" stroke-linecap="butt" stroke-opacity="1.0" stroke="rgb(0, 0, 0)" stroke-linejoin="round" d=" M 80.418, 121.093 77.311, 119.139 77.440, 118.477 78.135, 114.935 78.687, 110.883 81.754, 112.930 " />
            <path fill="none" stroke-width="3.0" stroke-linecap="butt" stroke-opacity="1.0" stroke="rgb(0, 0, 0)" stroke-linejoin="round" d=" M 172.323, 200.327 176.922, 203.960 " />
            <path fill="none" stroke-width="3.0" stroke-linecap="butt" stroke-opacity="1.0" stroke="rgb(0, 0, 0)" stroke-linejoin="round" d=" M 163.310, 200.013 166.186, 200.573 171.042, 202.925 174.465, 205.731 " />
            <path fill="none" stroke-width="3.0" stroke-linecap="butt" stroke-opacity="1.0" stroke="rgb(0, 0, 0)" stroke-linejoin="round" d=" M 126.862, 215.064 126.871, 215.236 127.480, 217.845 129.153, 222.494 130.181, 225.021 131.979, 227.029 135.733, 230.609 140.285, 233.120 145.687, 234.505 150.518, 234.994 155.859, 234.555 162.658, 233.046 168.279, 230.961 173.795, 228.002 177.102, 224.937 178.690, 222.797 182.210, 216.459 182.796, 214.876 186.360, 205.532 187.206, 203.316 189.527, 193.589 189.873, 192.141 189.922, 190.971 " />
            <path fill="none" stroke-width="3.0" stroke-linecap="butt" stroke-opacity="1.0" stroke="rgb(0, 0, 0)" stroke-linejoin="round" d=" M 107.383, 220.616 110.762, 217.638 112.192, 215.276 " />
            <path fill="none" stroke-width="3.0" stroke-linecap="butt" stroke-opacity="1.0" stroke="rgb(0, 0, 0)" stroke-linejoin="round" d=" M 59.528, 185.595 54.119, 187.652 48.894, 190.361 43.757, 193.567 40.394, 196.522 37.339, 201.252 36.411, 202.810 34.376, 206.945 33.233, 210.980 32.962, 214.824 33.513, 218.860 34.595, 221.048 35.109, 221.797 37.122, 224.727 " />
            <path fill="none" stroke-width="3.0" stroke-linecap="butt" stroke-opacity="1.0" stroke="rgb(0, 0, 0)" stroke-linejoin="round" d=" M 35.109, 221.797 35.539, 222.587 37.122, 224.727 39.863, 226.525 44.611, 228.391 49.235, 229.487 53.600, 230.188 58.580, 230.881 65.371, 231.125 69.867, 230.788 75.588, 230.319 82.257, 229.033 89.514, 227.282 95.956, 225.463 100.126, 224.383 103.380, 223.258 104.732, 222.610 106.733, 221.247 107.383, 220.616 109.942, 218.130 " />
            <path fill="none" stroke-width="3.0" stroke-linecap="butt" stroke-opacity="1.0" stroke="rgb(0, 0, 0)" stroke-linejoin="round" d=" M 170.125, 184.359 174.028, 186.940 175.698, 187.749 177.834, 188.783 181.081, 189.907 184.863, 190.950 188.169, 191.082 189.922, 190.971 191.715, 190.858 194.392, 190.367 197.175, 189.430 199.315, 188.426 201.350, 187.136 203.520, 185.553 204.843, 184.196 207.204, 181.647 208.772, 178.738 209.954, 176.315 210.729, 173.272 211.480, 170.073 211.615, 166.195 211.353, 164.038 210.602, 159.851 209.280, 155.332 206.816, 149.663 203.756, 144.697 200.864, 140.568 200.553, 140.124 199.126, 138.086 195.767, 134.183 191.985, 131.025 190.737, 130.370 186.470, 128.130 " />
            <path fill="none" stroke-width="3.0" stroke-linecap="butt" stroke-opacity="1.0" stroke="rgb(0, 0, 0)" stroke-linejoin="round" d=" M 45.360, 145.029 45.187, 146.679 45.746, 151.907 46.211, 153.846 46.226, 153.876 " />
            <path fill="none" stroke-width="3.0" stroke-linecap="butt" stroke-opacity="1.0" stroke="rgb(0, 0, 0)" stroke-linejoin="round" d=" M 116.264, 71.180 119.342, 68.821 119.513, 68.690 119.672, 68.367 119.709, 68.292 121.365, 64.918 122.351, 62.329 122.331, 58.647 121.314, 55.977 119.410, 52.269 117.671, 50.999 " />
            <path fill="none" stroke-width="3.0" stroke-linecap="butt" stroke-opacity="1.0" stroke="rgb(0, 0, 0)" stroke-linejoin="round" d=" M 56.094, 54.495 56.000, 54.761 54.479, 59.057 52.840, 65.145 52.270, 72.993 52.560, 74.260 54.212, 79.545 56.701, 80.792 59.972, 81.550 61.565, 81.920 61.846, 81.985 65.730, 82.436 71.741, 81.379 77.305, 79.957 82.750, 77.786 82.819, 77.758 " />
            <path fill="none" stroke-width="3.0" stroke-linecap="butt" stroke-opacity="1.0" stroke="rgb(0, 0, 0)" stroke-linejoin="round" d=" M 33.809, 111.115 31.607, 106.581 32.787, 105.430 37.488, 100.849 41.840, 99.737 49.763, 97.713 53.180, 96.841 56.855, 96.711 59.066, 96.632 61.384, 96.550 71.378, 96.196 73.601, 96.117 75.950, 96.034 75.960, 96.034 79.966, 95.892 89.935, 96.670 99.905, 97.447 107.660, 98.052 113.685, 98.522 116.257, 98.971 116.314, 98.981 126.165, 100.700 136.016, 102.420 145.867, 104.140 147.678, 104.456 157.340, 107.035 167.001, 109.615 176.663, 112.194 177.093, 112.309 178.195, 112.765 178.840, 113.032 183.074, 114.784 " />
            <path fill="none" stroke-width="3.0" stroke-linecap="butt" stroke-opacity="1.0" stroke="rgb(0, 0, 0)" stroke-linejoin="round" d=" M 200.553, 140.124 206.673, 136.534 206.304, 130.167 200.078, 125.407 197.919, 123.757 " />
            <path fill="none" stroke-width="3.0" stroke-linecap="butt" stroke-opacity="1.0" stroke="rgb(0, 0, 0)" stroke-linejoin="round" d=" M 39.006, 107.222 40.874, 105.581 44.975, 101.979 54.740, 99.821 58.331, 99.027 " />
            <path fill="none" stroke-width="3.0" stroke-linecap="butt" stroke-opacity="1.0" stroke="rgb(0, 0, 0)" stroke-linejoin="round" d=" M 38.862, 116.010 47.139, 121.408 48.308, 121.886 " />
            <path fill="none" stroke-width="3.0" stroke-linecap="butt" stroke-opacity="1.0" stroke="rgb(0, 0, 0)" stroke-linejoin="round" d=" M 55.978, 99.099 46.217, 101.272 45.563, 101.417 41.089, 102.413 39.815, 102.697 33.807, 108.216 34.551, 109.794 " />
            <path fill="none" stroke-width="3.0" stroke-linecap="butt" stroke-opacity="1.0" stroke="rgb(0, 0, 0)" stroke-linejoin="round" d=" M 55.978, 99.099 58.331, 99.027 59.441, 98.993 59.530, 98.990 61.377, 98.933 70.627, 98.649 76.181, 98.479 77.870, 98.427 79.193, 98.386 81.512, 98.315 91.481, 99.101 101.450, 99.887 105.405, 100.199 110.225, 100.579 113.439, 100.832 117.433, 101.501 117.990, 101.594 127.853, 103.245 134.462, 104.351 144.324, 106.002 146.748, 106.408 156.417, 108.959 166.086, 111.511 175.702, 114.048 179.324, 115.527 184.365, 117.586 " />
            <path fill="none" stroke-width="3.0" stroke-linecap="butt" stroke-opacity="1.0" stroke="rgb(0, 0, 0)" stroke-linejoin="round" d=" M 41.015, 93.194 36.212, 97.110 33.044, 100.324 31.232, 103.175 30.061, 106.213 30.054, 108.682 30.518, 110.858 34.846, 115.003 37.526, 116.477 38.862, 116.010 38.887, 116.002 40.787, 115.338 42.049, 114.477 43.644, 113.390 45.230, 108.309 " />
            <path fill="none" stroke-width="3.0" stroke-linecap="butt" stroke-opacity="1.0" stroke="rgb(0, 0, 0)" stroke-linejoin="round" d=" M 33.249, 112.450 30.518, 110.858 " />
            <path fill="none" stroke-width="3.0" stroke-linecap="butt" stroke-opacity="1.0" stroke="rgb(0, 0, 0)" stroke-linejoin="round" d=" M 43.644, 113.390 39.914, 111.026 " />
            <path fill="none" stroke-width="3.0" stroke-linecap="butt" stroke-opacity="1.0" stroke="rgb(0, 0, 0)" stroke-linejoin="round" d=" M 40.797, 108.684 39.914, 111.026 36.493, 111.989 " />
            <path fill="none" stroke-width="3.0" stroke-linecap="butt" stroke-opacity="1.0" stroke="rgb(0, 0, 0)" stroke-linejoin="round" d=" M 57.454, 83.610 50.502, 86.923 42.160, 92.437 41.015, 93.194 47.274, 89.133 48.475, 88.481 57.265, 83.713 57.454, 83.610 59.066, 82.948 61.565, 81.920 " />
            <path fill="none" stroke-width="3.0" stroke-linecap="butt" stroke-opacity="1.0" stroke="rgb(0, 0, 0)" stroke-linejoin="round" d=" M 47.274, 89.133 49.619, 88.178 49.778, 88.113 53.237, 86.705 55.743, 85.685 57.662, 85.113 67.244, 82.252 67.369, 82.215 77.318, 81.213 78.429, 81.101 80.460, 80.896 81.796, 80.862 87.693, 80.711 88.871, 80.764 89.536, 80.793 " />
            <path fill="none" stroke-width="3.0" stroke-linecap="butt" stroke-opacity="1.0" stroke="rgb(0, 0, 0)" stroke-linejoin="round" d=" M 179.324, 115.527 180.000, 117.182 182.406, 118.321 183.017, 118.610 183.663, 118.883 188.648, 120.991 196.862, 124.465 197.005, 124.370 197.919, 123.757 198.719, 123.222 199.065, 122.990 199.318, 121.890 199.900, 119.358 196.998, 114.798 192.330, 110.280 190.503, 108.511 183.960, 103.795 182.946, 103.065 178.630, 99.859 177.700, 99.168 176.730, 98.448 171.706, 95.481 168.197, 93.408 161.079, 90.431 158.509, 89.356 157.018, 88.732 147.473, 85.749 144.310, 84.761 134.697, 82.007 131.519, 81.097 121.662, 79.416 118.664, 78.904 109.254, 77.368 107.475, 77.077 " />
            <path fill="none" stroke-width="3.0" stroke-linecap="butt" stroke-opacity="1.0" stroke="rgb(0, 0, 0)" stroke-linejoin="round" d=" M 102.810, 81.831 107.721, 82.340 111.441, 82.726 112.203, 82.913 121.915, 85.295 128.087, 86.809 137.691, 89.596 141.964, 90.836 142.486, 90.987 151.813, 94.594 155.321, 95.950 164.480, 99.965 166.469, 100.837 174.837, 104.905 181.288, 108.512 184.847, 111.180 186.360, 112.314 187.418, 113.985 187.764, 114.532 188.247, 115.295 188.452, 116.730 188.613, 117.849 187.664, 118.452 187.204, 118.744 186.078, 119.460 " />
            <path fill="none" stroke-width="3.0" stroke-linecap="butt" stroke-opacity="1.0" stroke="rgb(0, 0, 0)" stroke-linejoin="round" d=" M 99.113, 78.509 100.313, 76.792 102.908, 73.079 103.671, 70.463 103.980, 69.403 104.328, 68.207 104.564, 67.400 105.000, 65.905 105.246, 65.059 105.327, 64.783 105.863, 58.362 105.849, 56.183 105.843, 55.209 105.834, 53.791 105.832, 53.575 " />
            <path fill="none" stroke-width="3.0" stroke-linecap="butt" stroke-opacity="1.0" stroke="rgb(0, 0, 0)" stroke-linejoin="round" d=" M 76.872, 73.224 80.420, 75.558 83.044, 76.838 83.198, 76.912 84.287, 77.443 85.573, 78.070 93.090, 79.648 99.113, 78.509 99.123, 78.521 100.317, 79.953 101.981, 81.253 102.140, 81.303 103.433, 81.707 " />
            <path fill="none" stroke-width="3.0" stroke-linecap="butt" stroke-opacity="1.0" stroke="rgb(0, 0, 0)" stroke-linejoin="round" d=" M 54.212, 79.545 53.890, 78.177 " />
            <path fill="none" stroke-width="3.0" stroke-linecap="butt" stroke-opacity="1.0" stroke="rgb(0, 0, 0)" stroke-linejoin="round" d=" M 79.894, 76.057 77.628, 74.532 76.872, 73.224 72.527, 75.524 66.651, 77.938 61.720, 78.854 59.026, 79.355 53.890, 78.177 52.270, 72.993 " />
            <path fill="none" stroke-width="3.0" stroke-linecap="butt" stroke-opacity="1.0" stroke="rgb(0, 0, 0)" stroke-linejoin="round" d=" M 110.666, 60.946 110.900, 60.617 110.965, 60.526 111.199, 60.197 114.180, 56.012 114.497, 55.557 117.671, 50.999 118.857, 49.296 122.526, 43.643 122.857, 42.425 124.068, 37.983 124.119, 34.824 122.935, 32.576 119.456, 28.304 114.182, 25.850 111.248, 24.733 105.511, 23.610 103.085, 23.344 101.126, 23.130 " />
            <path fill="none" stroke-width="3.0" stroke-linecap="butt" stroke-opacity="1.0" stroke="rgb(0, 0, 0)" stroke-linejoin="round" d=" M 56.000, 54.761 53.316, 50.934 50.324, 45.857 48.902, 40.437 49.372, 34.918 53.725, 30.701 60.763, 27.159 66.455, 25.544 70.769, 24.655 73.360, 20.653 77.249, 15.460 83.327, 9.669 88.736, 6.975 93.349, 9.013 97.618, 14.244 99.837, 19.213 101.126, 23.130 " />
            <path fill="none" stroke-width="3.0" stroke-linecap="butt" stroke-opacity="1.0" stroke="rgb(0, 0, 0)" stroke-linejoin="round" d=" M 108.964, 56.656 107.707, 55.183 107.171, 54.554 105.903, 53.626 105.832, 53.575 105.977, 53.450 106.806, 52.731 110.359, 49.654 110.996, 48.996 115.812, 44.018 116.590, 42.802 119.649, 38.025 121.325, 32.030 117.920, 27.840 111.248, 24.733 " />
            <path fill="none" stroke-width="3.0" stroke-linecap="butt" stroke-opacity="1.0" stroke="rgb(0, 0, 0)" stroke-linejoin="round" d=" M 103.085, 23.344 102.166, 20.988 99.683, 16.151 98.259, 13.865 94.378, 9.118 89.675, 7.043 88.736, 6.975 " />
            <path fill="none" stroke-width="3.0" stroke-linecap="butt" stroke-opacity="1.0" stroke="rgb(0, 0, 0)" stroke-linejoin="round" d=" M 53.316, 50.934 56.094, 54.495 " />
            <path fill="none" stroke-width="3.0" stroke-linecap="butt" stroke-opacity="1.0" stroke="rgb(0, 0, 0)" stroke-linejoin="round" d=" M 191.354, 105.415 188.456, 95.844 186.344, 88.868 185.340, 87.796 184.132, 83.450 179.288, 74.702 178.024, 72.420 171.497, 64.843 170.381, 63.547 164.703, 58.063 156.750, 52.001 156.392, 51.727 149.173, 47.884 142.912, 45.708 138.141, 44.155 137.094, 43.814 130.647, 42.664 126.583, 42.488 124.293, 42.388 122.857, 42.425 " />
            <path fill="none" stroke-width="3.0" stroke-linecap="butt" stroke-opacity="1.0" stroke="rgb(0, 0, 0)" stroke-linejoin="round" d=" M 79.894, 76.057 81.680, 77.096 82.768, 77.728 82.819, 77.758 83.318, 78.048 84.563, 78.772 84.768, 78.892 87.693, 80.058 89.382, 80.732 89.536, 80.793 90.064, 81.004 90.789, 81.293 93.655, 81.912 97.844, 82.817 101.145, 82.161 102.810, 81.831 103.433, 81.707 103.642, 81.409 104.380, 80.353 106.691, 77.046 107.208, 76.306 107.374, 76.069 108.690, 72.154 108.817, 71.775 109.233, 69.595 109.487, 68.261 109.595, 67.696 110.235, 64.336 110.666, 60.946 110.747, 60.311 110.773, 60.110 110.850, 59.507 110.885, 59.232 " />
            <path fill="none" stroke-width="3.0" stroke-linecap="butt" stroke-opacity="1.0" stroke="rgb(0, 0, 0)" stroke-linejoin="round" d=" M 186.697, 102.438 183.059, 99.398 174.857, 95.697 166.787, 92.056 161.079, 90.431 " />
            <path fill="none" stroke-width="3.0" stroke-linecap="butt" stroke-opacity="1.0" stroke="rgb(0, 0, 0)" stroke-linejoin="round" d=" M 121.261, 68.383 119.709, 68.292 " />
            <path fill="none" stroke-width="3.0" stroke-linecap="butt" stroke-opacity="1.0" stroke="rgb(0, 0, 0)" stroke-linejoin="round" d=" M 121.261, 68.383 130.255, 69.797 132.515, 70.152 142.394, 71.705 145.025, 72.119 " />
            <path fill="none" stroke-width="3.0" stroke-linecap="butt" stroke-opacity="1.0" stroke="rgb(0, 0, 0)" stroke-linejoin="round" d=" M 138.141, 44.155 137.556, 43.369 134.220, 41.980 130.163, 41.529 126.997, 42.194 126.583, 42.488 " />
            <path fill="none" stroke-width="3.0" stroke-linecap="butt" stroke-opacity="1.0" stroke="rgb(0, 0, 0)" stroke-linejoin="round" d=" M 200.864, 140.568 208.923, 135.883 209.789, 132.176 209.630, 125.318 205.802, 119.820 200.026, 112.715 192.376, 106.275 191.354, 105.415 190.477, 104.677 186.697, 102.438 185.048, 101.462 176.406, 97.588 171.706, 95.481 " />
            <path fill="none" stroke-width="3.0" stroke-linecap="butt" stroke-opacity="1.0" stroke="rgb(0, 0, 0)" stroke-linejoin="round" d=" M 199.318, 121.890 207.195, 128.051 208.701, 129.229 208.923, 135.883 " />
            <path fill="none" stroke-width="3.0" stroke-linecap="butt" stroke-opacity="1.0" stroke="rgb(0, 0, 0)" stroke-linejoin="round" d=" M 44.372, 92.199 43.568, 92.806 38.106, 96.874 32.044, 102.924 31.607, 106.581 " />
            <path fill="none" stroke-width="3.0" stroke-linecap="butt" stroke-opacity="1.0" stroke="rgb(0, 0, 0)" stroke-linejoin="round" d=" M 209.630, 125.318 201.867, 119.014 199.363, 116.981 " />
            <path fill="none" stroke-width="3.0" stroke-linecap="butt" stroke-opacity="1.0" stroke="rgb(0, 0, 0)" stroke-linejoin="round" d=" M 59.972, 81.550 59.066, 82.948 " />
            <path fill="none" stroke-width="3.0" stroke-linecap="butt" stroke-opacity="1.0" stroke="rgb(0, 0, 0)" stroke-linejoin="round" d=" M 107.256, 77.069 107.507, 76.224 108.717, 72.153 " />
            <path fill="none" stroke-width="3.0" stroke-linecap="butt" stroke-opacity="1.0" stroke="rgb(0, 0, 0)" stroke-linejoin="round" d=" M 108.690, 72.154 108.717, 72.153 110.884, 72.084 " />
            <path fill="none" stroke-width="3.0" stroke-linecap="butt" stroke-opacity="1.0" stroke="rgb(0, 0, 0)" stroke-linejoin="round" d=" M 197.005, 124.370 201.591, 127.840 " />
        </g>
    </g>
</svg>
