<?xml version='1.0' encoding='ascii'?>
<svg xmlns="http://www.w3.org/2000/svg" version="1.1" width="250" height="250">
    <g id="ViewLayer_LineSet" xmlns:inkscape="http://www.inkscape.org/namespaces/inkscape" inkscape:groupmode="lineset" inkscape:label="ViewLayer_LineSet">
        <g xmlns:inkscape="http://www.inkscape.org/namespaces/inkscape" inkscape:groupmode="layer" id="strokes" inkscape:label="strokes">
            <path fill="none" stroke-width="3.0" stroke-linecap="butt" stroke-opacity="1.0" stroke="rgb(0, 0, 0)" stroke-linejoin="round" d=" M 176.136, 187.161 179.757, 181.869 182.022, 178.560 " />
            <path fill="none" stroke-width="3.0" stroke-linecap="butt" stroke-opacity="1.0" stroke="rgb(0, 0, 0)" stroke-linejoin="round" d=" M 58.840, 99.113 58.279, 100.016 58.229, 100.099 53.836, 107.274 49.885, 116.132 48.740, 120.125 48.010, 122.669 47.881, 123.119 47.816, 123.348 47.354, 124.957 45.844, 134.842 45.559, 136.709 45.620, 142.338 45.736, 147.988 46.772, 154.405 47.369, 157.930 48.924, 163.606 51.110, 169.460 51.641, 170.589 53.830, 175.248 56.971, 180.731 60.407, 185.677 63.996, 189.868 65.537, 191.578 66.961, 193.158 71.369, 197.136 75.540, 200.512 82.211, 204.812 86.382, 207.057 91.859, 209.505 96.261, 211.040 103.614, 212.826 107.251, 213.667 111.376, 214.269 115.811, 214.602 117.170, 214.616 117.616, 214.621 " />
            <path fill="none" stroke-width="3.0" stroke-linecap="butt" stroke-opacity="1.0" stroke="rgb(0, 0, 0)" stroke-linejoin="round" d=" M 190.239, 124.889 189.150, 119.797 187.805, 116.331 " />
            <path fill="none" stroke-width="3.0" stroke-linecap="butt" stroke-opacity="1.0" stroke="rgb(0, 0, 0)" stroke-linejoin="round" d=" M 84.663, 150.220 85.272, 151.625 86.743, 153.691 88.777, 155.331 91.135, 156.530 93.315, 156.939 95.536, 156.828 98.039, 155.950 100.201, 154.574 101.828, 152.687 102.569, 151.350 " />
            <path fill="none" stroke-width="3.0" stroke-linecap="butt" stroke-opacity="1.0" stroke="rgb(0, 0, 0)" stroke-linejoin="round" d=" M 125.234, 99.885 126.089, 102.310 126.095, 102.341 126.151, 102.644 126.254, 103.199 126.719, 105.697 126.953, 109.521 126.961, 109.590 126.233, 118.014 125.732, 120.095 125.694, 120.251 125.215, 122.239 123.868, 126.547 122.229, 130.568 120.362, 134.109 118.337, 136.995 116.231, 139.081 114.949, 139.798 114.376, 140.119 114.121, 140.261 112.087, 140.474 110.206, 139.705 109.981, 139.471 109.526, 138.998 108.969, 138.419 108.552, 137.985 107.195, 135.391 106.194, 132.046 105.593, 128.109 105.421, 123.772 105.686, 119.243 105.939, 117.569 105.963, 117.410 106.357, 114.802 107.380, 110.610 108.736, 106.679 110.370, 103.154 111.482, 101.353 112.221, 100.158 113.297, 98.883 " />
            <path fill="none" stroke-width="3.0" stroke-linecap="butt" stroke-opacity="1.0" stroke="rgb(0, 0, 0)" stroke-linejoin="round" d=" M 108.552, 137.985 109.133, 138.940 " />
            <path fill="none" stroke-width="3.0" stroke-linecap="butt" stroke-opacity="1.0" stroke="rgb(0, 0, 0)" stroke-linejoin="round" d=" M 126.121, 102.384 125.235, 99.886 " />
            <path fill="none" stroke-width="3.0" stroke-linecap="butt" stroke-opacity="1.0" stroke="rgb(0, 0, 0)" stroke-linejoin="round" d=" M 126.719, 105.697 126.268, 103.199 " />
            <path fill="none" stroke-width="3.0" stroke-linecap="butt" stroke-opacity="1.0" stroke="rgb(0, 0, 0)" stroke-linejoin="round" d=" M 84.690, 118.342 83.860, 122.689 82.870, 126.855 82.260, 128.879 81.731, 130.634 80.522, 133.663 80.452, 133.840 80.332, 134.050 79.047, 136.310 77.536, 137.922 75.955, 138.600 75.385, 138.606 74.385, 138.616 72.808, 137.080 71.393, 134.967 70.200, 132.082 70.022, 131.380 69.914, 130.953 69.312, 128.573 68.803, 124.614 68.719, 120.398 68.898, 118.249 69.069, 116.187 69.757, 112.127 70.733, 108.223 70.884, 107.775 71.113, 107.100 71.955, 104.615 73.374, 101.427 74.934, 98.769 75.767, 97.731 " />
            <path fill="none" stroke-width="3.0" stroke-linecap="butt" stroke-opacity="1.0" stroke="rgb(0, 0, 0)" stroke-linejoin="round" d=" M 74.385, 138.616 77.030, 139.991 " />
            <path fill="none" stroke-width="3.0" stroke-linecap="butt" stroke-opacity="1.0" stroke="rgb(0, 0, 0)" stroke-linejoin="round" d=" M 83.866, 97.466 84.745, 99.752 85.356, 102.691 85.714, 106.213 85.651, 109.992 " />
            <path fill="none" stroke-width="3.0" stroke-linecap="butt" stroke-opacity="1.0" stroke="rgb(0, 0, 0)" stroke-linejoin="round" d=" M 87.229, 120.300 84.690, 118.342 85.321, 114.088 85.415, 112.921 85.445, 112.548 85.651, 109.992 88.158, 112.050 " />
            <path fill="none" stroke-width="3.0" stroke-linecap="butt" stroke-opacity="1.0" stroke="rgb(0, 0, 0)" stroke-linejoin="round" d=" M 117.670, 213.636 117.616, 214.621 117.518, 216.383 117.864, 219.665 118.963, 222.973 120.888, 225.929 123.259, 228.794 127.935, 231.586 133.328, 233.689 139.589, 234.827 145.050, 235.327 150.946, 235.106 158.286, 234.097 158.438, 234.062 164.153, 232.719 169.719, 230.717 172.389, 229.151 177.317, 222.873 181.401, 215.591 182.797, 212.404 185.077, 205.605 185.627, 202.426 185.168, 193.162 183.951, 189.437 181.692, 185.164 179.757, 181.869 " />
            <path fill="none" stroke-width="3.0" stroke-linecap="butt" stroke-opacity="1.0" stroke="rgb(0, 0, 0)" stroke-linejoin="round" d=" M 65.537, 191.578 63.620, 194.689 62.179, 198.083 58.819, 207.250 57.824, 211.160 56.353, 215.173 55.659, 218.993 55.724, 222.449 55.911, 224.731 56.613, 228.309 58.554, 231.430 61.133, 233.923 64.575, 235.901 69.778, 237.745 74.503, 238.699 79.491, 238.940 85.913, 238.696 88.691, 238.618 94.793, 237.180 97.114, 236.621 100.940, 235.330 103.611, 233.481 110.322, 226.067 111.172, 225.129 112.591, 223.465 117.170, 214.616 " />
            <path fill="none" stroke-width="3.0" stroke-linecap="butt" stroke-opacity="1.0" stroke="rgb(0, 0, 0)" stroke-linejoin="round" d=" M 192.892, 125.977 190.252, 124.948 187.713, 123.958 " />
            <path fill="none" stroke-width="3.0" stroke-linecap="butt" stroke-opacity="1.0" stroke="rgb(0, 0, 0)" stroke-linejoin="round" d=" M 179.973, 177.405 182.022, 178.560 185.957, 180.778 190.739, 182.544 195.241, 183.612 199.771, 183.967 203.616, 183.548 207.115, 182.632 210.266, 181.182 213.128, 179.240 213.870, 178.629 216.388, 176.290 218.449, 173.447 220.029, 170.377 221.072, 166.976 221.504, 163.338 221.506, 162.613 221.355, 159.467 221.313, 158.797 220.231, 154.446 218.450, 150.231 215.927, 145.852 211.611, 140.553 207.185, 135.994 205.682, 134.591 205.413, 134.340 202.913, 132.007 198.437, 128.721 193.575, 126.118 190.239, 124.889 " />
            <path fill="none" stroke-width="3.0" stroke-linecap="butt" stroke-opacity="1.0" stroke="rgb(0, 0, 0)" stroke-linejoin="round" d=" M 48.010, 122.669 47.507, 122.952 47.251, 123.096 45.967, 123.818 42.439, 126.616 39.182, 129.986 35.895, 133.791 32.834, 138.154 31.524, 140.470 29.987, 143.843 29.073, 146.994 28.577, 151.657 28.814, 153.869 29.136, 155.840 30.150, 159.009 30.649, 160.005 32.348, 163.037 34.500, 165.497 36.806, 167.385 38.333, 168.381 40.781, 169.590 45.289, 170.843 48.357, 171.026 51.216, 170.646 51.641, 170.589 " />
            <path fill="none" stroke-width="3.0" stroke-linecap="butt" stroke-opacity="1.0" stroke="rgb(0, 0, 0)" stroke-linejoin="round" d=" M 124.949, 68.166 125.884, 67.509 126.064, 67.193 126.100, 67.130 128.036, 63.739 128.755, 61.156 128.759, 57.473 128.043, 54.792 126.104, 51.447 125.985, 51.242 " />
            <path fill="none" stroke-width="3.0" stroke-linecap="butt" stroke-opacity="1.0" stroke="rgb(0, 0, 0)" stroke-linejoin="round" d=" M 63.815, 52.798 63.643, 53.321 62.299, 57.425 60.833, 63.606 60.617, 71.586 60.708, 72.878 62.042, 76.362 62.766, 78.253 64.844, 79.529 66.778, 79.946 70.458, 80.741 72.603, 81.043 73.065, 81.108 73.787, 81.209 75.421, 80.934 76.857, 80.692 77.390, 80.602 77.758, 80.540 80.139, 80.139 82.986, 79.429 85.893, 78.705 88.009, 77.889 89.801, 77.199 91.928, 76.380 96.168, 78.320 96.927, 78.667 97.231, 78.806 " />
            <path fill="none" stroke-width="3.0" stroke-linecap="butt" stroke-opacity="1.0" stroke="rgb(0, 0, 0)" stroke-linejoin="round" d=" M 31.968, 107.605 31.825, 106.003 32.542, 105.533 40.156, 100.544 40.890, 100.062 48.246, 98.444 55.335, 96.883 57.296, 96.452 59.928, 95.872 61.412, 95.818 71.405, 95.454 78.716, 95.187 81.639, 95.081 89.469, 94.795 99.443, 95.515 109.417, 96.234 115.605, 96.681 123.730, 97.267 124.421, 97.317 134.273, 99.031 144.125, 100.745 153.977, 102.459 157.659, 103.099 167.287, 105.802 176.915, 108.505 184.827, 110.726 185.809, 111.190 186.258, 111.402 187.412, 111.946 189.182, 112.781 189.729, 113.039 " />
            <path fill="none" stroke-width="3.0" stroke-linecap="butt" stroke-opacity="1.0" stroke="rgb(0, 0, 0)" stroke-linejoin="round" d=" M 205.413, 134.340 207.708, 128.121 202.026, 122.038 " />
            <path fill="none" stroke-width="3.0" stroke-linecap="butt" stroke-opacity="1.0" stroke="rgb(0, 0, 0)" stroke-linejoin="round" d=" M 39.258, 106.620 47.791, 101.406 48.143, 101.191 57.564, 99.361 58.840, 99.113 59.525, 98.979 63.961, 98.118 " />
            <path fill="none" stroke-width="3.0" stroke-linecap="butt" stroke-opacity="1.0" stroke="rgb(0, 0, 0)" stroke-linejoin="round" d=" M 35.898, 115.825 41.202, 120.134 42.835, 121.127 47.251, 123.096 " />
            <path fill="none" stroke-width="3.0" stroke-linecap="butt" stroke-opacity="1.0" stroke="rgb(0, 0, 0)" stroke-linejoin="round" d=" M 62.553, 98.164 59.355, 98.787 58.999, 98.856 57.392, 99.170 47.577, 101.083 44.626, 101.658 43.172, 101.942 39.511, 104.235 34.035, 107.664 34.112, 108.763 34.114, 108.794 34.145, 109.235 " />
            <path fill="none" stroke-width="3.0" stroke-linecap="butt" stroke-opacity="1.0" stroke="rgb(0, 0, 0)" stroke-linejoin="round" d=" M 62.553, 98.164 63.961, 98.118 73.955, 97.791 75.767, 97.731 80.770, 97.568 83.866, 97.466 84.381, 97.449 84.576, 97.443 90.656, 97.244 100.630, 97.966 110.604, 98.688 113.297, 98.883 117.370, 99.178 123.745, 99.639 124.250, 99.723 125.234, 99.885 125.235, 99.886 135.100, 101.518 144.966, 103.151 149.568, 103.913 156.427, 105.048 166.065, 107.714 175.703, 110.380 181.789, 112.064 183.208, 112.456 " />
            <path fill="none" stroke-width="3.0" stroke-linecap="butt" stroke-opacity="1.0" stroke="rgb(0, 0, 0)" stroke-linejoin="round" d=" M 66.778, 79.946 59.895, 82.474 57.773, 83.368 51.856, 85.860 45.817, 89.820 37.886, 95.911 37.405, 96.280 33.446, 99.589 30.992, 102.525 29.305, 105.651 29.075, 108.183 29.460, 110.410 32.284, 114.650 35.019, 116.137 35.898, 115.825 36.198, 115.719 38.374, 114.947 38.843, 114.629 41.340, 112.935 43.153, 107.736 " />
            <path fill="none" stroke-width="3.0" stroke-linecap="butt" stroke-opacity="1.0" stroke="rgb(0, 0, 0)" stroke-linejoin="round" d=" M 32.292, 112.020 29.460, 110.410 " />
            <path fill="none" stroke-width="3.0" stroke-linecap="butt" stroke-opacity="1.0" stroke="rgb(0, 0, 0)" stroke-linejoin="round" d=" M 41.340, 112.935 39.202, 110.517 " />
            <path fill="none" stroke-width="3.0" stroke-linecap="butt" stroke-opacity="1.0" stroke="rgb(0, 0, 0)" stroke-linejoin="round" d=" M 40.219, 107.977 39.202, 110.517 35.667, 111.525 " />
            <path fill="none" stroke-width="3.0" stroke-linecap="butt" stroke-opacity="1.0" stroke="rgb(0, 0, 0)" stroke-linejoin="round" d=" M 37.405, 96.280 43.246, 92.252 50.682, 88.084 51.109, 87.929 56.096, 86.119 60.411, 84.553 61.222, 84.332 70.870, 81.705 73.065, 81.108 " />
            <path fill="none" stroke-width="3.0" stroke-linecap="butt" stroke-opacity="1.0" stroke="rgb(0, 0, 0)" stroke-linejoin="round" d=" M 76.857, 80.692 77.634, 80.620 78.511, 80.538 87.591, 79.690 87.741, 79.676 91.865, 79.577 95.468, 79.490 96.147, 79.519 99.913, 79.679 " />
            <path fill="none" stroke-width="3.0" stroke-linecap="butt" stroke-opacity="1.0" stroke="rgb(0, 0, 0)" stroke-linejoin="round" d=" M 185.131, 113.612 185.742, 115.072 185.939, 115.540 187.805, 116.331 189.186, 116.917 198.225, 121.194 198.608, 121.375 200.489, 122.265 201.149, 122.577 202.026, 122.038 203.550, 121.102 203.775, 120.250 204.492, 117.529 201.873, 113.074 195.691, 106.939 191.942, 104.133 190.252, 102.868 188.575, 101.614 183.419, 97.632 182.710, 97.085 175.698, 92.787 174.623, 92.128 173.331, 91.574 172.800, 91.346 170.867, 90.518 163.863, 87.514 154.326, 84.505 151.575, 83.637 151.390, 83.578 141.779, 80.813 138.692, 79.925 128.833, 78.248 125.735, 77.721 116.756, 76.274 " />
            <path fill="none" stroke-width="3.0" stroke-linecap="butt" stroke-opacity="1.0" stroke="rgb(0, 0, 0)" stroke-linejoin="round" d=" M 112.489, 80.743 114.555, 80.952 120.189, 81.521 122.030, 81.965 131.750, 84.312 137.081, 85.600 146.687, 88.381 151.403, 89.746 152.867, 90.320 162.179, 93.967 163.919, 94.648 173.045, 98.735 174.646, 99.452 181.323, 102.796 182.601, 103.436 186.305, 105.610 188.534, 106.919 188.608, 106.962 190.432, 108.414 191.589, 109.336 193.273, 110.677 193.573, 111.206 194.500, 112.845 194.927, 113.600 195.013, 114.529 195.160, 116.112 193.127, 117.317 192.445, 117.722 " />
            <path fill="none" stroke-width="3.0" stroke-linecap="butt" stroke-opacity="1.0" stroke="rgb(0, 0, 0)" stroke-linejoin="round" d=" M 111.076, 77.232 112.067, 75.788 113.880, 73.149 114.817, 71.784 115.045, 70.896 115.791, 67.997 116.032, 67.060 116.170, 66.523 116.957, 63.467 117.047, 61.090 117.202, 57.028 116.930, 52.225 " />
            <path fill="none" stroke-width="3.0" stroke-linecap="butt" stroke-opacity="1.0" stroke="rgb(0, 0, 0)" stroke-linejoin="round" d=" M 87.136, 71.873 89.127, 73.076 90.246, 73.752 91.049, 74.238 93.914, 75.532 96.674, 76.779 99.523, 77.341 104.749, 78.373 111.076, 77.232 112.123, 78.687 113.246, 80.001 113.859, 80.422 113.928, 80.470 " />
            <path fill="none" stroke-width="3.0" stroke-linecap="butt" stroke-opacity="1.0" stroke="rgb(0, 0, 0)" stroke-linejoin="round" d=" M 62.766, 78.253 62.638, 76.858 " />
            <path fill="none" stroke-width="3.0" stroke-linecap="butt" stroke-opacity="1.0" stroke="rgb(0, 0, 0)" stroke-linejoin="round" d=" M 91.928, 76.380 90.776, 75.620 89.465, 74.754 88.952, 74.297 88.862, 74.217 87.718, 73.200 87.136, 71.873 82.596, 74.191 76.404, 76.627 68.254, 78.059 62.638, 76.858 62.291, 75.953 60.617, 71.586 " />
            <path fill="none" stroke-width="3.0" stroke-linecap="butt" stroke-opacity="1.0" stroke="rgb(0, 0, 0)" stroke-linejoin="round" d=" M 89.465, 74.754 90.288, 75.193 91.073, 75.611 92.080, 76.148 94.840, 77.619 96.221, 78.305 96.948, 78.666 97.231, 78.806 99.050, 79.398 99.913, 79.679 102.008, 80.360 104.048, 80.774 108.053, 81.585 110.185, 81.180 112.489, 80.743 113.113, 80.624 113.928, 80.470 113.956, 80.429 114.648, 79.402 115.033, 78.831 116.756, 76.274 117.739, 74.816 118.626, 71.763 118.947, 70.659 118.989, 70.515 119.375, 67.733 119.463, 67.105 119.515, 66.727 119.815, 64.573 119.930, 63.744 120.024, 63.065 120.409, 58.287 120.436, 57.952 122.094, 55.960 125.114, 52.331 125.845, 51.416 125.985, 51.242 128.531, 48.057 131.153, 44.014 132.175, 42.437 132.264, 42.066 132.471, 41.199 133.523, 36.797 134.228, 33.635 133.565, 31.369 129.710, 27.052 124.053, 24.522 121.201, 23.358 115.095, 22.147 111.405, 21.713 110.435, 21.599 " />
            <path fill="none" stroke-width="3.0" stroke-linecap="butt" stroke-opacity="1.0" stroke="rgb(0, 0, 0)" stroke-linejoin="round" d=" M 60.623, 49.157 58.168, 45.522 57.117, 43.965 56.777, 43.034 55.288, 39.105 55.294, 38.432 55.522, 32.816 60.032, 28.580 67.471, 25.078 73.530, 23.521 78.128, 22.683 80.709, 18.671 84.618, 13.480 90.830, 7.736 96.465, 5.120 101.477, 7.262 106.273, 12.606 108.874, 17.641 110.435, 21.599 " />
            <path fill="none" stroke-width="3.0" stroke-linecap="butt" stroke-opacity="1.0" stroke="rgb(0, 0, 0)" stroke-linejoin="round" d=" M 119.279, 55.348 118.087, 53.220 116.930, 52.225 121.361, 48.452 121.507, 48.328 126.205, 43.505 126.959, 42.731 127.722, 41.513 128.324, 40.550 130.687, 36.775 132.146, 30.800 128.369, 26.565 121.201, 23.358 " />
            <path fill="none" stroke-width="3.0" stroke-linecap="butt" stroke-opacity="1.0" stroke="rgb(0, 0, 0)" stroke-linejoin="round" d=" M 57.117, 43.965 56.857, 43.176 56.846, 43.143 55.294, 38.432 " />
            <path fill="none" stroke-width="3.0" stroke-linecap="butt" stroke-opacity="1.0" stroke="rgb(0, 0, 0)" stroke-linejoin="round" d=" M 58.168, 45.522 59.503, 47.909 63.643, 53.321 " />
            <path fill="none" stroke-width="3.0" stroke-linecap="butt" stroke-opacity="1.0" stroke="rgb(0, 0, 0)" stroke-linejoin="round" d=" M 111.405, 21.713 110.410, 19.469 109.158, 16.742 106.649, 12.237 102.294, 7.389 97.188, 5.208 96.465, 5.120 " />
            <path fill="none" stroke-width="3.0" stroke-linecap="butt" stroke-opacity="1.0" stroke="rgb(0, 0, 0)" stroke-linejoin="round" d=" M 60.623, 49.157 63.815, 52.798 " />
            <path fill="none" stroke-width="3.0" stroke-linecap="butt" stroke-opacity="1.0" stroke="rgb(0, 0, 0)" stroke-linejoin="round" d=" M 185.147, 86.511 183.816, 82.374 178.652, 73.810 177.253, 71.491 172.133, 65.112 165.311, 57.801 164.774, 57.226 156.564, 51.516 155.668, 50.893 149.209, 47.007 140.344, 43.880 136.353, 42.847 135.346, 42.655 132.264, 42.066 " />
            <path fill="none" stroke-width="3.0" stroke-linecap="butt" stroke-opacity="1.0" stroke="rgb(0, 0, 0)" stroke-linejoin="round" d=" M 173.331, 91.574 172.736, 91.269 171.850, 90.815 170.867, 90.518 " />
            <path fill="none" stroke-width="3.0" stroke-linecap="butt" stroke-opacity="1.0" stroke="rgb(0, 0, 0)" stroke-linejoin="round" d=" M 127.421, 67.211 126.100, 67.130 " />
            <path fill="none" stroke-width="3.0" stroke-linecap="butt" stroke-opacity="1.0" stroke="rgb(0, 0, 0)" stroke-linejoin="round" d=" M 127.421, 67.211 137.287, 68.839 147.154, 70.468 150.533, 71.026 " />
            <path fill="none" stroke-width="3.0" stroke-linecap="butt" stroke-opacity="1.0" stroke="rgb(0, 0, 0)" stroke-linejoin="round" d=" M 191.068, 101.615 187.790, 92.168 186.242, 87.707 185.147, 86.511 180.984, 81.959 179.855, 80.886 " />
            <path fill="none" stroke-width="3.0" stroke-linecap="butt" stroke-opacity="1.0" stroke="rgb(0, 0, 0)" stroke-linejoin="round" d=" M 175.698, 92.787 184.598, 97.348 185.958, 98.045 187.395, 99.659 " />
            <path fill="none" stroke-width="3.0" stroke-linecap="butt" stroke-opacity="1.0" stroke="rgb(0, 0, 0)" stroke-linejoin="round" d=" M 135.346, 42.655 135.155, 42.423 132.471, 41.199 " />
            <path fill="none" stroke-width="3.0" stroke-linecap="butt" stroke-opacity="1.0" stroke="rgb(0, 0, 0)" stroke-linejoin="round" d=" M 205.682, 134.591 207.493, 133.746 210.051, 127.176 210.826, 123.339 206.823, 117.995 200.816, 111.079 194.276, 103.514 194.002, 103.196 191.068, 101.615 188.194, 100.066 187.395, 99.659 183.419, 97.632 " />
            <path fill="none" stroke-width="3.0" stroke-linecap="butt" stroke-opacity="1.0" stroke="rgb(0, 0, 0)" stroke-linejoin="round" d=" M 32.082, 102.261 31.825, 106.003 " />
            <path fill="none" stroke-width="3.0" stroke-linecap="butt" stroke-opacity="1.0" stroke="rgb(0, 0, 0)" stroke-linejoin="round" d=" M 210.051, 127.176 203.775, 120.250 " />
            <path fill="none" stroke-width="3.0" stroke-linecap="butt" stroke-opacity="1.0" stroke="rgb(0, 0, 0)" stroke-linejoin="round" d=" M 210.826, 123.339 204.261, 115.796 203.748, 115.206 " />
            <path fill="none" stroke-width="3.0" stroke-linecap="butt" stroke-opacity="1.0" stroke="rgb(0, 0, 0)" stroke-linejoin="round" d=" M 36.198, 115.719 42.835, 121.127 " />
            <path fill="none" stroke-width="3.0" stroke-linecap="butt" stroke-opacity="1.0" stroke="rgb(0, 0, 0)" stroke-linejoin="round" d=" M 62.042, 76.362 57.773, 83.368 " />
            <path fill="none" stroke-width="3.0" stroke-linecap="butt" stroke-opacity="1.0" stroke="rgb(0, 0, 0)" stroke-linejoin="round" d=" M 120.409, 58.287 122.094, 55.960 " />
            <path fill="none" stroke-width="3.0" stroke-linecap="butt" stroke-opacity="1.0" stroke="rgb(0, 0, 0)" stroke-linejoin="round" d=" M 126.215, 103.196 126.953, 109.521 " />
            <path fill="none" stroke-width="3.0" stroke-linecap="butt" stroke-opacity="1.0" stroke="rgb(0, 0, 0)" stroke-linejoin="round" d=" M 181.789, 112.064 185.029, 113.565 185.131, 113.612 " />
            <path fill="none" stroke-width="3.0" stroke-linecap="butt" stroke-opacity="1.0" stroke="rgb(0, 0, 0)" stroke-linejoin="round" d=" M 187.015, 114.224 186.981, 114.208 185.260, 113.409 184.994, 113.285 183.208, 112.456 " />
            <path fill="none" stroke-width="3.0" stroke-linecap="butt" stroke-opacity="1.0" stroke="rgb(0, 0, 0)" stroke-linejoin="round" d=" M 198.608, 121.375 202.936, 125.895 " />
        </g>
    </g>
</svg>
