<?xml version='1.0' encoding='ascii'?>
<svg xmlns="http://www.w3.org/2000/svg" version="1.1" width="250" height="250">
    <g id="ViewLayer_LineSet" xmlns:inkscape="http://www.inkscape.org/namespaces/inkscape" inkscape:groupmode="lineset" inkscape:label="ViewLayer_LineSet">
        <g xmlns:inkscape="http://www.inkscape.org/namespaces/inkscape" inkscape:groupmode="layer" id="strokes" inkscape:label="strokes">
            <path fill="none" stroke-width="3.0" stroke-linecap="butt" stroke-opacity="1.0" stroke="rgb(0, 0, 0)" stroke-linejoin="round" d=" M 128.642, 210.135 129.477, 210.031 133.074, 209.286 140.304, 207.569 144.668, 206.178 152.931, 202.175 157.012, 200.140 165.077, 194.229 165.388, 194.001 168.131, 191.488 175.056, 184.273 175.725, 183.576 178.278, 179.834 181.988, 174.396 186.192, 165.322 186.725, 164.171 189.046, 155.804 " />
            <path fill="none" stroke-width="3.0" stroke-linecap="butt" stroke-opacity="1.0" stroke="rgb(0, 0, 0)" stroke-linejoin="round" d=" M 47.763, 129.103 47.191, 133.269 47.014, 140.675 47.295, 144.010 47.660, 148.297 49.397, 156.937 50.622, 161.185 52.239, 165.595 54.178, 169.974 56.354, 174.134 58.673, 177.891 60.720, 180.741 63.813, 184.906 64.898, 186.065 " />
            <path fill="none" stroke-width="3.0" stroke-linecap="butt" stroke-opacity="1.0" stroke="rgb(0, 0, 0)" stroke-linejoin="round" d=" M 53.055, 104.556 50.570, 110.479 48.969, 113.921 48.563, 115.041 47.706, 117.408 46.720, 120.622 46.010, 123.411 45.554, 125.639 45.314, 127.196 45.250, 128.006 " />
            <path fill="none" stroke-width="3.0" stroke-linecap="butt" stroke-opacity="1.0" stroke="rgb(0, 0, 0)" stroke-linejoin="round" d=" M 45.250, 128.006 47.763, 129.103 " />
            <path fill="none" stroke-width="3.0" stroke-linecap="butt" stroke-opacity="1.0" stroke="rgb(0, 0, 0)" stroke-linejoin="round" d=" M 48.563, 115.041 48.822, 114.171 50.073, 110.555 51.497, 107.016 52.659, 104.315 " />
            <path fill="none" stroke-width="3.0" stroke-linecap="butt" stroke-opacity="1.0" stroke="rgb(0, 0, 0)" stroke-linejoin="round" d=" M 64.898, 186.065 56.665, 189.392 48.416, 191.279 41.119, 193.847 39.796, 194.528 33.836, 198.605 30.549, 202.326 28.555, 206.468 27.801, 208.194 27.435, 212.708 28.733, 217.355 29.852, 219.160 33.107, 223.223 35.643, 225.097 39.982, 227.083 47.367, 230.487 57.304, 231.610 59.224, 231.826 69.213, 231.367 73.300, 231.179 83.271, 230.414 87.660, 230.077 97.576, 228.787 98.597, 228.655 105.150, 227.255 108.978, 226.255 112.371, 224.953 117.769, 222.784 120.219, 220.548 120.371, 220.427 124.943, 216.774 126.541, 214.577 128.624, 210.250 128.642, 210.135 128.837, 208.866 " />
            <path fill="none" stroke-width="3.0" stroke-linecap="butt" stroke-opacity="1.0" stroke="rgb(0, 0, 0)" stroke-linejoin="round" d=" M 120.371, 220.427 130.102, 218.120 130.202, 218.097 139.600, 214.678 141.946, 213.825 151.286, 210.253 153.924, 209.244 163.112, 205.478 166.589, 203.747 168.993, 202.491 171.103, 200.907 175.425, 197.554 178.471, 193.296 179.462, 191.385 180.292, 187.264 180.248, 185.453 179.320, 181.706 178.278, 179.834 " />
            <path fill="none" stroke-width="3.0" stroke-linecap="butt" stroke-opacity="1.0" stroke="rgb(0, 0, 0)" stroke-linejoin="round" d=" M 86.049, 150.532 85.850, 155.497 86.425, 160.628 87.513, 166.123 88.674, 171.445 90.662, 176.912 92.989, 180.472 93.088, 180.624 95.343, 184.031 97.594, 186.807 102.254, 190.599 104.927, 192.030 105.095, 192.120 106.905, 192.854 111.302, 194.164 116.517, 194.536 121.413, 193.889 124.900, 192.677 125.825, 192.356 128.390, 191.002 132.186, 188.164 134.447, 185.464 136.674, 182.729 138.413, 179.652 140.419, 175.092 141.938, 170.928 142.051, 170.044 142.681, 165.147 142.581, 159.748 142.271, 154.235 141.780, 149.249 " />
            <path fill="none" stroke-width="3.0" stroke-linecap="butt" stroke-opacity="1.0" stroke="rgb(0, 0, 0)" stroke-linejoin="round" d=" M 41.683, 78.813 43.337, 79.312 47.667, 79.664 52.644, 77.987 53.903, 77.428 57.914, 73.201 61.299, 67.653 " />
            <path fill="none" stroke-width="3.0" stroke-linecap="butt" stroke-opacity="1.0" stroke="rgb(0, 0, 0)" stroke-linejoin="round" d=" M 67.487, 48.018 67.488, 47.085 67.708, 44.100 67.708, 38.372 66.903, 32.151 66.138, 27.603 63.349, 21.795 60.029, 18.663 56.878, 17.056 55.234, 17.300 53.338, 18.628 50.408, 22.753 48.204, 26.658 48.105, 26.834 46.274, 30.090 " />
            <path fill="none" stroke-width="3.0" stroke-linecap="butt" stroke-opacity="1.0" stroke="rgb(0, 0, 0)" stroke-linejoin="round" d=" M 79.846, 55.985 78.726, 56.108 78.165, 56.590 77.658, 57.025 77.507, 57.155 " />
            <path fill="none" stroke-width="3.0" stroke-linecap="butt" stroke-opacity="1.0" stroke="rgb(0, 0, 0)" stroke-linejoin="round" d=" M 83.060, 57.902 82.932, 57.857 82.278, 58.101 81.567, 58.365 79.353, 60.297 78.052, 61.715 77.717, 62.081 " />
            <path fill="none" stroke-width="3.0" stroke-linecap="butt" stroke-opacity="1.0" stroke="rgb(0, 0, 0)" stroke-linejoin="round" d=" M 50.486, 81.401 47.381, 83.034 44.310, 84.651 39.282, 88.580 37.381, 92.111 42.921, 97.884 45.156, 99.741 52.659, 104.315 53.055, 104.556 54.990, 105.736 55.754, 106.202 58.528, 107.893 59.128, 108.260 59.871, 108.712 59.984, 108.767 61.358, 109.431 65.276, 111.325 " />
            <path fill="none" stroke-width="3.0" stroke-linecap="butt" stroke-opacity="1.0" stroke="rgb(0, 0, 0)" stroke-linejoin="round" d=" M 42.921, 97.884 51.472, 103.069 52.839, 103.898 53.231, 104.136 55.192, 105.325 55.955, 105.788 57.810, 106.912 58.756, 107.368 59.372, 107.665 60.287, 108.106 61.677, 108.776 64.746, 110.256 " />
            <path fill="none" stroke-width="3.0" stroke-linecap="butt" stroke-opacity="1.0" stroke="rgb(0, 0, 0)" stroke-linejoin="round" d=" M 87.177, 121.676 96.415, 125.505 99.592, 126.821 101.476, 127.602 110.714, 131.430 113.888, 132.745 123.299, 136.128 132.709, 139.511 139.436, 141.929 139.460, 141.937 145.319, 144.044 154.895, 146.924 164.471, 149.805 172.751, 152.296 182.527, 154.401 189.046, 155.804 192.300, 156.505 195.525, 156.657 205.524, 156.800 205.765, 156.804 " />
            <path fill="none" stroke-width="3.0" stroke-linecap="butt" stroke-opacity="1.0" stroke="rgb(0, 0, 0)" stroke-linejoin="round" d=" M 77.772, 63.374 77.747, 62.805 77.738, 62.593 77.717, 62.081 77.644, 60.378 77.586, 59.013 77.564, 58.491 77.507, 57.155 77.472, 56.317 77.445, 55.697 77.433, 55.404 76.490, 54.512 76.070, 54.115 76.062, 54.107 76.039, 54.085 73.650, 51.825 71.351, 49.649 67.485, 49.800 67.156, 49.813 67.145, 49.813 66.507, 49.838 65.455, 49.879 65.295, 49.885 65.058, 49.895 64.064, 49.934 63.133, 49.970 62.508, 50.390 57.363, 56.162 57.735, 64.001 58.017, 64.551 61.299, 67.653 64.064, 70.266 66.487, 70.182 66.816, 70.170 67.211, 70.156 68.605, 70.108 68.815, 70.100 " />
            <path fill="none" stroke-width="3.0" stroke-linecap="butt" stroke-opacity="1.0" stroke="rgb(0, 0, 0)" stroke-linejoin="round" d=" M 63.469, 74.784 53.899, 77.687 52.525, 78.104 50.879, 79.201 50.486, 81.401 50.294, 82.471 51.067, 86.075 51.473, 88.151 " />
            <path fill="none" stroke-width="3.0" stroke-linecap="butt" stroke-opacity="1.0" stroke="rgb(0, 0, 0)" stroke-linejoin="round" d=" M 64.244, 74.549 63.770, 75.863 64.102, 77.531 64.183, 77.740 64.242, 77.892 64.377, 78.242 64.397, 78.293 64.613, 78.851 65.103, 80.115 65.315, 80.663 65.897, 81.845 66.173, 82.406 66.252, 82.565 66.324, 82.712 66.473, 83.015 67.093, 84.274 67.287, 84.579 68.774, 86.909 69.996, 88.824 73.077, 93.985 74.256, 96.427 74.913, 97.787 75.436, 98.870 77.964, 104.092 78.338, 104.867 " />
            <path fill="none" stroke-width="3.0" stroke-linecap="butt" stroke-opacity="1.0" stroke="rgb(0, 0, 0)" stroke-linejoin="round" d=" M 87.177, 121.676 85.663, 122.723 76.467, 118.793 68.170, 115.247 66.174, 113.568 65.470, 111.809 65.276, 111.325 65.091, 110.863 64.324, 109.402 63.401, 107.643 62.727, 106.590 61.806, 105.151 61.484, 104.649 60.988, 103.875 60.745, 103.495 60.578, 103.264 58.729, 100.717 58.260, 100.070 57.936, 99.624 56.335, 96.856 56.139, 96.518 55.518, 95.443 54.222, 92.913 53.070, 90.661 52.434, 89.205 51.120, 86.196 51.067, 86.075 " />
            <path fill="none" stroke-width="3.0" stroke-linecap="butt" stroke-opacity="1.0" stroke="rgb(0, 0, 0)" stroke-linejoin="round" d=" M 64.229, 109.345 64.746, 110.256 65.091, 110.863 " />
            <path fill="none" stroke-width="3.0" stroke-linecap="butt" stroke-opacity="1.0" stroke="rgb(0, 0, 0)" stroke-linejoin="round" d=" M 83.336, 121.057 82.997, 119.891 82.183, 117.089 80.082, 111.881 79.493, 109.514 78.338, 104.867 " />
            <path fill="none" stroke-width="3.0" stroke-linecap="butt" stroke-opacity="1.0" stroke="rgb(0, 0, 0)" stroke-linejoin="round" d=" M 85.663, 122.723 83.336, 121.057 83.138, 119.959 " />
            <path fill="none" stroke-width="3.0" stroke-linecap="butt" stroke-opacity="1.0" stroke="rgb(0, 0, 0)" stroke-linejoin="round" d=" M 82.241, 57.217 82.237, 57.122 76.522, 51.714 75.415, 51.756 " />
            <path fill="none" stroke-width="3.0" stroke-linecap="butt" stroke-opacity="1.0" stroke="rgb(0, 0, 0)" stroke-linejoin="round" d=" M 35.168, 48.497 35.004, 49.474 33.033, 56.917 31.399, 63.459 29.987, 69.005 29.963, 69.193 " />
            <path fill="none" stroke-width="3.0" stroke-linecap="butt" stroke-opacity="1.0" stroke="rgb(0, 0, 0)" stroke-linejoin="round" d=" M 46.414, 30.083 46.365, 30.085 46.274, 30.090 45.672, 30.120 45.072, 30.150 43.127, 30.665 40.211, 32.836 37.814, 36.213 37.144, 38.456 36.887, 39.314 36.236, 41.493 35.288, 46.834 35.168, 48.497 34.924, 51.871 34.879, 55.350 33.293, 59.286 31.342, 64.549 29.963, 69.193 29.330, 71.324 28.645, 75.751 29.713, 76.884 31.024, 77.930 34.495, 78.953 39.580, 79.348 41.683, 78.813 44.036, 78.215 46.342, 77.628 49.052, 76.340 53.743, 72.449 55.707, 71.251 " />
            <path fill="none" stroke-width="3.0" stroke-linecap="butt" stroke-opacity="1.0" stroke="rgb(0, 0, 0)" stroke-linejoin="round" d=" M 51.930, 31.918 47.962, 30.159 46.414, 30.083 46.682, 29.568 48.105, 26.834 " />
            <path fill="none" stroke-width="3.0" stroke-linecap="butt" stroke-opacity="1.0" stroke="rgb(0, 0, 0)" stroke-linejoin="round" d=" M 37.144, 38.456 37.016, 38.660 36.887, 39.314 " />
            <path fill="none" stroke-width="3.0" stroke-linecap="butt" stroke-opacity="1.0" stroke="rgb(0, 0, 0)" stroke-linejoin="round" d=" M 40.226, 57.517 36.150, 56.026 34.879, 55.350 " />
            <path fill="none" stroke-width="3.0" stroke-linecap="butt" stroke-opacity="1.0" stroke="rgb(0, 0, 0)" stroke-linejoin="round" d=" M 144.338, 40.331 142.799, 40.126 132.887, 38.805 132.480, 38.751 122.522, 39.665 119.129, 39.977 109.550, 42.847 105.461, 44.073 96.510, 48.531 93.417, 50.072 85.440, 56.102 83.199, 57.797 83.060, 57.902 82.293, 58.481 82.293, 58.482 82.074, 58.647 77.772, 63.374 77.258, 63.938 75.724, 65.623 75.269, 66.123 74.836, 66.148 74.297, 66.179 73.429, 66.228 73.078, 66.248 72.992, 66.253 72.338, 66.291 72.086, 66.305 71.082, 66.362 70.377, 67.525 70.245, 67.743 69.998, 68.150 69.974, 68.190 69.949, 68.230 68.815, 70.100 68.736, 70.231 68.277, 70.989 68.029, 71.397 66.171, 74.462 64.183, 77.740 " />
            <path fill="none" stroke-width="3.0" stroke-linecap="butt" stroke-opacity="1.0" stroke="rgb(0, 0, 0)" stroke-linejoin="round" d=" M 162.728, 47.782 162.465, 45.360 161.077, 41.585 159.854, 40.678 155.142, 37.535 149.173, 36.669 148.007, 36.679 144.470, 38.599 142.799, 40.126 " />
            <path fill="none" stroke-width="3.0" stroke-linecap="butt" stroke-opacity="1.0" stroke="rgb(0, 0, 0)" stroke-linejoin="round" d=" M 39.160, 36.418 42.754, 37.947 47.292, 40.341 " />
            <path fill="none" stroke-width="3.0" stroke-linecap="butt" stroke-opacity="1.0" stroke="rgb(0, 0, 0)" stroke-linejoin="round" d=" M 38.325, 78.333 33.243, 77.931 29.713, 76.884 " />
            <path fill="none" stroke-width="3.0" stroke-linecap="butt" stroke-opacity="1.0" stroke="rgb(0, 0, 0)" stroke-linejoin="round" d=" M 160.868, 46.545 162.728, 47.782 170.854, 53.187 177.660, 60.514 179.830, 62.851 180.788, 63.964 186.032, 72.479 188.215, 76.025 191.955, 85.299 193.145, 88.248 195.123, 98.051 195.870, 101.755 196.828, 105.300 198.276, 106.901 197.419, 116.865 196.562, 126.828 196.536, 127.133 195.522, 128.096 195.339, 128.270 190.571, 127.352 190.449, 127.329 186.930, 126.652 186.691, 126.582 177.097, 123.763 171.276, 122.052 161.803, 118.846 152.331, 115.640 149.749, 114.766 140.368, 111.303 130.987, 107.839 125.217, 105.709 115.925, 102.014 106.633, 98.318 101.824, 96.406 101.450, 96.257 99.173, 95.273 89.994, 91.304 82.012, 87.853 73.038, 83.442 72.764, 83.308 70.903, 82.393 69.269, 81.590 69.136, 81.499 68.334, 80.950 67.360, 80.283 65.775, 79.198 64.837, 78.556 64.468, 78.304 64.377, 78.242 " />
            <path fill="none" stroke-width="3.0" stroke-linecap="butt" stroke-opacity="1.0" stroke="rgb(0, 0, 0)" stroke-linejoin="round" d=" M 69.269, 81.590 72.318, 83.357 " />
            <path fill="none" stroke-width="3.0" stroke-linecap="butt" stroke-opacity="1.0" stroke="rgb(0, 0, 0)" stroke-linejoin="round" d=" M 72.318, 83.357 72.566, 83.479 81.537, 87.897 84.478, 89.346 93.655, 93.320 99.894, 96.021 102.564, 97.178 102.867, 97.309 112.158, 101.006 121.450, 104.704 125.262, 106.221 134.644, 109.683 144.025, 113.145 148.371, 114.749 157.845, 117.950 167.318, 121.152 168.715, 121.623 178.311, 124.435 183.618, 125.989 " />
            <path fill="none" stroke-width="3.0" stroke-linecap="butt" stroke-opacity="1.0" stroke="rgb(0, 0, 0)" stroke-linejoin="round" d=" M 71.082, 66.362 72.055, 66.689 72.623, 66.880 74.480, 67.503 74.794, 67.609 77.815, 68.623 78.282, 68.780 " />
            <path fill="none" stroke-width="3.0" stroke-linecap="butt" stroke-opacity="1.0" stroke="rgb(0, 0, 0)" stroke-linejoin="round" d=" M 197.064, 106.969 198.276, 106.901 " />
            <path fill="none" stroke-width="3.0" stroke-linecap="butt" stroke-opacity="1.0" stroke="rgb(0, 0, 0)" stroke-linejoin="round" d=" M 183.618, 125.989 186.930, 126.652 " />
            <path fill="none" stroke-width="3.0" stroke-linecap="butt" stroke-opacity="1.0" stroke="rgb(0, 0, 0)" stroke-linejoin="round" d=" M 160.868, 46.545 155.739, 44.235 149.363, 41.838 144.338, 40.331 " />
            <path fill="none" stroke-width="3.0" stroke-linecap="butt" stroke-opacity="1.0" stroke="rgb(0, 0, 0)" stroke-linejoin="round" d=" M 206.808, 153.201 206.712, 153.635 205.765, 156.804 206.688, 153.615 206.808, 153.201 206.882, 152.946 207.530, 149.950 206.795, 144.246 203.397, 135.845 199.311, 130.638 195.522, 128.096 " />
            <path fill="none" stroke-width="3.0" stroke-linecap="butt" stroke-opacity="1.0" stroke="rgb(0, 0, 0)" stroke-linejoin="round" d=" M 82.640, 118.881 88.007, 121.103 97.247, 124.927 100.521, 126.282 101.817, 126.818 111.057, 130.643 114.051, 131.882 123.460, 135.267 132.870, 138.652 138.965, 140.845 139.756, 141.130 146.830, 143.675 156.404, 146.564 165.977, 149.454 175.348, 152.283 185.121, 154.401 189.191, 155.284 195.525, 156.657 " />
            <path fill="none" stroke-width="3.0" stroke-linecap="butt" stroke-opacity="1.0" stroke="rgb(0, 0, 0)" stroke-linejoin="round" d=" M 148.274, 139.338 140.593, 136.563 135.866, 134.855 126.461, 131.457 117.056, 128.059 115.646, 127.549 107.092, 124.032 103.724, 122.646 94.475, 118.843 89.996, 117.001 84.336, 114.674 " />
            <path fill="none" stroke-width="3.0" stroke-linecap="butt" stroke-opacity="1.0" stroke="rgb(0, 0, 0)" stroke-linejoin="round" d=" M 83.199, 57.797 82.241, 57.217 82.240, 57.217 80.735, 56.307 75.415, 51.756 71.759, 48.629 70.831, 48.246 68.294, 47.536 67.487, 48.018 67.366, 48.090 67.361, 48.093 66.032, 48.886 " />
            <path fill="none" stroke-width="3.0" stroke-linecap="butt" stroke-opacity="1.0" stroke="rgb(0, 0, 0)" stroke-linejoin="round" d=" M 70.831, 48.246 74.941, 51.775 79.846, 55.985 " />
            <path fill="none" stroke-width="3.0" stroke-linecap="butt" stroke-opacity="1.0" stroke="rgb(0, 0, 0)" stroke-linejoin="round" d=" M 48.204, 26.658 45.672, 30.120 " />
            <path fill="none" stroke-width="3.0" stroke-linecap="butt" stroke-opacity="1.0" stroke="rgb(0, 0, 0)" stroke-linejoin="round" d=" M 64.064, 49.934 64.252, 49.385 65.336, 49.830 65.455, 49.879 " />
            <path fill="none" stroke-width="3.0" stroke-linecap="butt" stroke-opacity="1.0" stroke="rgb(0, 0, 0)" stroke-linejoin="round" d=" M 66.487, 70.182 66.691, 70.342 " />
            <path fill="none" stroke-width="3.0" stroke-linecap="butt" stroke-opacity="1.0" stroke="rgb(0, 0, 0)" stroke-linejoin="round" d=" M 66.816, 70.170 66.691, 70.342 63.469, 74.784 " />
            <path fill="none" stroke-width="3.0" stroke-linecap="butt" stroke-opacity="1.0" stroke="rgb(0, 0, 0)" stroke-linejoin="round" d=" M 82.240, 57.217 82.237, 57.122 " />
        </g>
    </g>
</svg>
