<?xml version='1.0' encoding='ascii'?>
<svg xmlns="http://www.w3.org/2000/svg" version="1.1" width="250" height="250">
    <g id="ViewLayer_LineSet" xmlns:inkscape="http://www.inkscape.org/namespaces/inkscape" inkscape:groupmode="lineset" inkscape:label="ViewLayer_LineSet">
        <g xmlns:inkscape="http://www.inkscape.org/namespaces/inkscape" inkscape:groupmode="layer" id="strokes" inkscape:label="strokes">
            <path fill="none" stroke-width="3.0" stroke-linecap="butt" stroke-opacity="1.0" stroke="rgb(0, 0, 0)" stroke-linejoin="round" d=" M 108.300, 215.953 110.711, 216.245 112.548, 216.468 117.037, 216.703 121.567, 216.646 125.935, 216.300 129.948, 215.684 131.707, 215.300 136.029, 214.355 141.197, 213.085 145.316, 211.532 153.982, 207.443 157.656, 205.217 165.751, 199.345 166.283, 198.959 173.232, 191.768 173.862, 191.117 173.959, 190.995 " />
            <path fill="none" stroke-width="3.0" stroke-linecap="butt" stroke-opacity="1.0" stroke="rgb(0, 0, 0)" stroke-linejoin="round" d=" M 59.374, 100.235 58.020, 101.941 57.597, 102.596 53.846, 109.008 53.320, 110.159 50.436, 116.812 49.662, 118.597 " />
            <path fill="none" stroke-width="3.0" stroke-linecap="butt" stroke-opacity="1.0" stroke="rgb(0, 0, 0)" stroke-linejoin="round" d=" M 50.436, 116.812 50.080, 117.626 49.662, 118.597 49.556, 118.953 48.644, 122.002 48.534, 122.370 47.384, 126.216 46.023, 132.344 45.365, 138.695 45.294, 143.152 45.378, 148.787 45.953, 153.256 46.641, 157.889 47.536, 161.819 48.842, 166.105 49.577, 168.086 50.708, 171.130 52.030, 174.157 52.429, 174.983 54.554, 179.192 56.783, 182.998 59.017, 186.227 60.346, 187.925 " />
            <path fill="none" stroke-width="3.0" stroke-linecap="butt" stroke-opacity="1.0" stroke="rgb(0, 0, 0)" stroke-linejoin="round" d=" M 75.285, 151.796 75.825, 153.195 77.157, 155.266 79.011, 156.932 81.159, 158.172 83.159, 158.628 85.216, 158.571 87.030, 157.941 87.550, 157.761 89.564, 156.450 91.089, 154.618 91.796, 153.309 " />
            <path fill="none" stroke-width="3.0" stroke-linecap="butt" stroke-opacity="1.0" stroke="rgb(0, 0, 0)" stroke-linejoin="round" d=" M 115.440, 103.022 115.953, 104.840 116.358, 108.232 116.349, 112.057 116.367, 112.126 115.295, 119.544 115.281, 119.644 115.151, 120.541 113.875, 124.752 112.334, 129.037 110.554, 133.026 108.600, 136.528 106.892, 138.882 106.599, 139.285 106.537, 139.370 104.435, 141.410 102.362, 142.546 100.390, 142.721 99.450, 142.303 98.591, 141.922 97.038, 140.183 95.799, 137.584 95.640, 136.969 95.509, 136.461 94.936, 134.246 94.498, 130.329 94.514, 126.021 94.992, 121.527 95.893, 117.123 96.388, 115.472 96.427, 115.341 97.138, 112.967 98.697, 109.071 100.508, 105.576 102.500, 102.606 103.369, 101.636 " />
            <path fill="none" stroke-width="3.0" stroke-linecap="butt" stroke-opacity="1.0" stroke="rgb(0, 0, 0)" stroke-linejoin="round" d=" M 75.530, 120.373 74.518, 124.652 73.414, 128.746 72.803, 130.665 72.664, 131.101 72.232, 132.454 70.979, 135.591 69.660, 137.998 68.287, 139.557 67.364, 139.977 66.888, 140.193 65.521, 140.179 64.200, 138.639 63.047, 136.536 62.129, 133.681 61.525, 130.219 61.367, 127.492 61.343, 127.086 61.299, 126.322 61.415, 123.825 61.492, 122.179 61.548, 121.797 62.102, 118.044 63.010, 114.061 64.161, 110.232 65.508, 106.694 66.623, 104.354 66.876, 103.823 66.996, 103.569 68.568, 100.963 69.375, 99.951 " />
            <path fill="none" stroke-width="3.0" stroke-linecap="butt" stroke-opacity="1.0" stroke="rgb(0, 0, 0)" stroke-linejoin="round" d=" M 65.521, 140.179 68.857, 141.559 " />
            <path fill="none" stroke-width="3.0" stroke-linecap="butt" stroke-opacity="1.0" stroke="rgb(0, 0, 0)" stroke-linejoin="round" d=" M 76.457, 99.751 77.037, 102.013 77.332, 104.922 77.378, 108.404 77.325, 108.943 77.278, 109.419 77.008, 112.138 " />
            <path fill="none" stroke-width="3.0" stroke-linecap="butt" stroke-opacity="1.0" stroke="rgb(0, 0, 0)" stroke-linejoin="round" d=" M 78.772, 122.312 75.530, 120.373 75.880, 118.687 76.401, 116.180 77.008, 112.138 80.208, 114.169 " />
            <path fill="none" stroke-width="3.0" stroke-linecap="butt" stroke-opacity="1.0" stroke="rgb(0, 0, 0)" stroke-linejoin="round" d=" M 185.390, 212.575 186.206, 210.438 189.794, 201.050 191.908, 192.327 " />
            <path fill="none" stroke-width="3.0" stroke-linecap="butt" stroke-opacity="1.0" stroke="rgb(0, 0, 0)" stroke-linejoin="round" d=" M 160.499, 234.472 166.899, 232.372 172.260, 229.485 177.533, 225.467 181.910, 219.634 184.897, 214.004 186.206, 210.438 " />
            <path fill="none" stroke-width="3.0" stroke-linecap="butt" stroke-opacity="1.0" stroke="rgb(0, 0, 0)" stroke-linejoin="round" d=" M 133.108, 219.554 134.152, 223.117 135.417, 225.001 139.097, 229.573 144.583, 233.291 149.843, 235.039 154.668, 235.401 159.964, 234.666 160.499, 234.472 166.350, 232.341 " />
            <path fill="none" stroke-width="3.0" stroke-linecap="butt" stroke-opacity="1.0" stroke="rgb(0, 0, 0)" stroke-linejoin="round" d=" M 106.061, 222.487 108.587, 220.215 110.562, 216.890 110.711, 216.245 " />
            <path fill="none" stroke-width="3.0" stroke-linecap="butt" stroke-opacity="1.0" stroke="rgb(0, 0, 0)" stroke-linejoin="round" d=" M 60.346, 187.925 56.616, 188.839 50.126, 191.739 45.000, 194.431 39.382, 198.300 36.119, 201.243 33.176, 205.992 31.864, 208.050 29.882, 212.249 28.801, 216.325 28.619, 220.165 29.273, 224.175 29.984, 226.850 32.722, 230.346 35.227, 232.452 39.769, 234.582 44.278, 235.821 49.425, 236.377 53.942, 236.815 60.715, 237.067 66.225, 236.210 67.705, 235.980 " />
            <path fill="none" stroke-width="3.0" stroke-linecap="butt" stroke-opacity="1.0" stroke="rgb(0, 0, 0)" stroke-linejoin="round" d=" M 66.225, 236.210 71.253, 235.824 78.404, 233.884 82.761, 232.550 90.571, 230.095 97.296, 227.888 100.914, 226.290 102.472, 225.373 104.246, 224.276 106.061, 222.487 107.444, 221.123 " />
            <path fill="none" stroke-width="3.0" stroke-linecap="butt" stroke-opacity="1.0" stroke="rgb(0, 0, 0)" stroke-linejoin="round" d=" M 190.336, 132.828 185.307, 129.827 181.257, 128.100 " />
            <path fill="none" stroke-width="3.0" stroke-linecap="butt" stroke-opacity="1.0" stroke="rgb(0, 0, 0)" stroke-linejoin="round" d=" M 206.190, 157.760 205.956, 157.075 204.209, 151.957 201.585, 146.862 199.010, 142.587 198.959, 142.503 198.859, 142.337 195.943, 138.254 192.550, 134.741 190.843, 133.265 190.336, 132.828 190.854, 133.321 193.751, 136.077 195.943, 138.254 " />
            <path fill="none" stroke-width="3.0" stroke-linecap="butt" stroke-opacity="1.0" stroke="rgb(0, 0, 0)" stroke-linejoin="round" d=" M 164.246, 184.271 166.348, 186.108 169.865, 188.810 173.339, 190.773 173.959, 190.995 176.995, 192.079 180.539, 193.175 183.546, 193.405 187.530, 193.296 189.875, 192.876 191.908, 192.327 193.043, 192.020 197.310, 189.824 200.967, 186.947 203.106, 184.424 204.637, 182.339 206.068, 179.087 207.187, 176.156 207.669, 172.784 208.196, 168.850 207.972, 164.811 207.113, 160.391 205.956, 157.075 " />
            <path fill="none" stroke-width="3.0" stroke-linecap="butt" stroke-opacity="1.0" stroke="rgb(0, 0, 0)" stroke-linejoin="round" d=" M 114.709, 72.522 117.759, 70.130 117.875, 70.039 118.031, 69.708 118.068, 69.631 119.645, 66.277 120.697, 63.682 120.672, 60.004 119.580, 57.346 117.746, 53.637 115.549, 51.996 " />
            <path fill="none" stroke-width="3.0" stroke-linecap="butt" stroke-opacity="1.0" stroke="rgb(0, 0, 0)" stroke-linejoin="round" d=" M 54.290, 56.022 54.218, 56.224 52.656, 60.567 50.978, 66.631 50.322, 74.448 50.661, 75.702 52.206, 80.968 54.790, 82.196 59.758, 83.382 59.803, 83.392 60.306, 83.447 63.814, 83.825 69.721, 82.778 75.221, 81.363 80.475, 79.249 " />
            <path fill="none" stroke-width="3.0" stroke-linecap="butt" stroke-opacity="1.0" stroke="rgb(0, 0, 0)" stroke-linejoin="round" d=" M 31.719, 107.646 32.981, 106.253 36.803, 102.030 42.321, 100.578 49.425, 98.709 51.626, 98.130 57.764, 97.926 59.714, 97.861 61.299, 97.808 71.293, 97.476 72.192, 97.446 74.695, 97.362 74.732, 97.361 77.643, 97.264 87.611, 98.067 97.579, 98.870 105.570, 99.514 110.943, 99.947 114.377, 100.548 114.540, 100.576 124.390, 102.300 134.241, 104.024 144.091, 105.749 145.024, 105.912 154.694, 108.459 164.364, 111.006 174.034, 113.553 174.937, 113.791 176.620, 114.464 177.826, 114.946 181.197, 116.294 " />
            <path fill="none" stroke-width="3.0" stroke-linecap="butt" stroke-opacity="1.0" stroke="rgb(0, 0, 0)" stroke-linejoin="round" d=" M 199.010, 142.587 199.662, 142.463 206.843, 137.984 205.755, 131.655 200.047, 127.613 196.660, 125.215 " />
            <path fill="none" stroke-width="3.0" stroke-linecap="butt" stroke-opacity="1.0" stroke="rgb(0, 0, 0)" stroke-linejoin="round" d=" M 44.331, 103.150 54.084, 100.945 56.916, 100.304 " />
            <path fill="none" stroke-width="3.0" stroke-linecap="butt" stroke-opacity="1.0" stroke="rgb(0, 0, 0)" stroke-linejoin="round" d=" M 39.673, 116.941 48.181, 122.195 48.339, 122.292 48.534, 122.370 " />
            <path fill="none" stroke-width="3.0" stroke-linecap="butt" stroke-opacity="1.0" stroke="rgb(0, 0, 0)" stroke-linejoin="round" d=" M 54.459, 100.374 45.058, 102.517 41.523, 103.322 39.136, 103.866 33.913, 109.272 34.695, 110.625 " />
            <path fill="none" stroke-width="3.0" stroke-linecap="butt" stroke-opacity="1.0" stroke="rgb(0, 0, 0)" stroke-linejoin="round" d=" M 54.459, 100.374 56.916, 100.304 59.374, 100.235 60.604, 100.200 62.340, 100.151 69.375, 99.951 74.883, 99.795 76.457, 99.751 78.065, 99.705 79.275, 99.671 89.242, 100.484 99.209, 101.297 103.369, 101.636 108.317, 102.040 110.808, 102.243 115.440, 103.022 116.341, 103.173 126.202, 104.832 136.063, 106.491 144.175, 107.856 153.852, 110.377 163.529, 112.898 173.206, 115.420 173.610, 115.525 177.704, 117.141 183.523, 119.439 " />
            <path fill="none" stroke-width="3.0" stroke-linecap="butt" stroke-opacity="1.0" stroke="rgb(0, 0, 0)" stroke-linejoin="round" d=" M 106.265, 73.084 106.473, 73.534 107.074, 73.512 109.379, 73.428 " />
            <path fill="none" stroke-width="3.0" stroke-linecap="butt" stroke-opacity="1.0" stroke="rgb(0, 0, 0)" stroke-linejoin="round" d=" M 56.961, 84.859 49.301, 88.928 47.969, 89.635 46.564, 90.381 40.612, 94.392 36.075, 98.260 33.109, 101.434 31.458, 104.251 30.417, 107.257 30.464, 109.704 30.947, 111.864 35.636, 115.950 38.297, 117.420 39.673, 116.941 39.780, 116.903 41.530, 116.294 42.983, 115.300 44.355, 114.362 45.882, 109.317 " />
            <path fill="none" stroke-width="3.0" stroke-linecap="butt" stroke-opacity="1.0" stroke="rgb(0, 0, 0)" stroke-linejoin="round" d=" M 33.648, 113.450 30.947, 111.864 " />
            <path fill="none" stroke-width="3.0" stroke-linecap="butt" stroke-opacity="1.0" stroke="rgb(0, 0, 0)" stroke-linejoin="round" d=" M 44.355, 114.362 40.239, 112.047 " />
            <path fill="none" stroke-width="3.0" stroke-linecap="butt" stroke-opacity="1.0" stroke="rgb(0, 0, 0)" stroke-linejoin="round" d=" M 41.096, 109.736 40.239, 112.047 36.852, 112.998 " />
            <path fill="none" stroke-width="3.0" stroke-linecap="butt" stroke-opacity="1.0" stroke="rgb(0, 0, 0)" stroke-linejoin="round" d=" M 60.306, 83.447 59.489, 83.792 56.961, 84.859 50.295, 88.132 47.969, 89.635 " />
            <path fill="none" stroke-width="3.0" stroke-linecap="butt" stroke-opacity="1.0" stroke="rgb(0, 0, 0)" stroke-linejoin="round" d=" M 46.564, 90.381 47.274, 90.085 49.462, 89.170 49.837, 89.013 51.960, 88.126 54.700, 86.980 58.068, 85.954 65.953, 83.553 75.902, 82.547 78.296, 82.305 78.697, 82.265 80.393, 82.223 85.784, 82.090 86.669, 82.131 " />
            <path fill="none" stroke-width="3.0" stroke-linecap="butt" stroke-opacity="1.0" stroke="rgb(0, 0, 0)" stroke-linejoin="round" d=" M 177.704, 117.141 178.310, 118.640 181.258, 120.088 181.319, 120.113 182.667, 120.666 188.681, 123.136 195.566, 125.964 195.951, 125.700 196.660, 125.215 197.710, 124.496 197.829, 123.957 197.964, 123.344 198.514, 120.855 195.544, 116.274 192.909, 113.734 192.900, 113.726 192.891, 113.717 188.984, 109.952 188.046, 109.281 181.331, 104.479 179.488, 103.122 175.611, 100.266 175.040, 99.846 168.773, 96.174 166.412, 94.791 161.427, 92.715 158.347, 91.433 155.155, 90.103 145.610, 87.120 142.422, 86.124 132.810, 83.365 129.642, 82.456 119.786, 80.765 116.848, 80.261 107.632, 78.742 105.757, 78.433 " />
            <path fill="none" stroke-width="3.0" stroke-linecap="butt" stroke-opacity="1.0" stroke="rgb(0, 0, 0)" stroke-linejoin="round" d=" M 100.514, 83.203 105.977, 83.780 109.217, 84.121 109.407, 84.168 119.115, 86.570 125.749, 88.212 135.350, 91.009 138.060, 91.798 140.124, 92.399 149.452, 96.002 153.005, 97.375 162.168, 101.378 164.229, 102.278 172.680, 106.362 179.229, 109.984 184.393, 113.801 185.364, 115.295 186.281, 116.705 186.337, 116.791 186.352, 116.891 186.441, 117.456 186.737, 119.353 186.490, 119.513 185.436, 120.194 184.258, 120.955 " />
            <path fill="none" stroke-width="3.0" stroke-linecap="butt" stroke-opacity="1.0" stroke="rgb(0, 0, 0)" stroke-linejoin="round" d=" M 96.106, 79.996 97.440, 78.091 99.902, 74.575 100.544, 72.432 101.060, 70.710 101.414, 69.527 101.674, 68.660 102.091, 67.266 102.385, 66.286 102.994, 59.869 103.012, 57.122 103.015, 56.619 103.025, 55.086 " />
            <path fill="none" stroke-width="3.0" stroke-linecap="butt" stroke-opacity="1.0" stroke="rgb(0, 0, 0)" stroke-linejoin="round" d=" M 74.368, 74.698 77.813, 77.030 80.549, 78.400 81.494, 78.874 82.758, 79.507 82.829, 79.542 90.181, 81.126 96.106, 79.996 96.476, 80.424 97.347, 81.432 98.923, 82.558 99.142, 82.715 100.787, 83.149 " />
            <path fill="none" stroke-width="3.0" stroke-linecap="butt" stroke-opacity="1.0" stroke="rgb(0, 0, 0)" stroke-linejoin="round" d=" M 52.206, 80.968 51.837, 79.612 " />
            <path fill="none" stroke-width="3.0" stroke-linecap="butt" stroke-opacity="1.0" stroke="rgb(0, 0, 0)" stroke-linejoin="round" d=" M 77.555, 77.500 75.166, 75.996 74.368, 74.698 70.086, 76.988 64.307, 79.389 62.110, 79.802 56.837, 80.792 51.837, 79.612 50.322, 74.448 " />
            <path fill="none" stroke-width="3.0" stroke-linecap="butt" stroke-opacity="1.0" stroke="rgb(0, 0, 0)" stroke-linejoin="round" d=" M 107.989, 64.048 108.318, 62.558 108.837, 61.826 109.211, 61.297 109.328, 61.132 109.540, 60.832 111.938, 57.444 112.818, 56.117 115.549, 51.996 116.373, 50.751 120.037, 45.096 120.429, 43.697 121.625, 39.432 121.507, 36.293 120.193, 34.064 116.821, 29.797 111.663, 27.354 108.717, 26.251 103.091, 25.142 101.089, 24.923 98.791, 24.671 " />
            <path fill="none" stroke-width="3.0" stroke-linecap="butt" stroke-opacity="1.0" stroke="rgb(0, 0, 0)" stroke-linejoin="round" d=" M 54.218, 56.224 51.624, 52.477 48.768, 47.422 47.450, 42.026 47.979, 36.529 52.281, 32.322 59.200, 28.780 64.784, 27.158 69.015, 26.262 71.601, 22.266 75.474, 17.076 81.502, 11.279 86.838, 8.574 91.337, 10.593 95.459, 15.804 97.575, 20.762 98.791, 24.671 " />
            <path fill="none" stroke-width="3.0" stroke-linecap="butt" stroke-opacity="1.0" stroke="rgb(0, 0, 0)" stroke-linejoin="round" d=" M 106.347, 58.136 105.885, 57.641 105.295, 57.009 104.900, 56.586 104.405, 56.056 103.760, 55.603 103.025, 55.086 104.598, 53.715 104.849, 53.496 107.525, 51.165 108.365, 50.293 112.959, 45.525 113.715, 44.348 116.812, 39.527 118.539, 33.527 115.241, 29.343 108.717, 26.251 " />
            <path fill="none" stroke-width="3.0" stroke-linecap="butt" stroke-opacity="1.0" stroke="rgb(0, 0, 0)" stroke-linejoin="round" d=" M 101.089, 24.923 100.098, 22.503 97.707, 17.678 96.166, 15.416 92.417, 10.688 87.830, 8.631 86.838, 8.574 " />
            <path fill="none" stroke-width="3.0" stroke-linecap="butt" stroke-opacity="1.0" stroke="rgb(0, 0, 0)" stroke-linejoin="round" d=" M 51.624, 52.477 54.290, 56.022 " />
            <path fill="none" stroke-width="3.0" stroke-linecap="butt" stroke-opacity="1.0" stroke="rgb(0, 0, 0)" stroke-linejoin="round" d=" M 185.338, 89.111 184.089, 84.649 179.342, 75.847 178.113, 73.569 171.661, 65.929 170.594, 64.664 164.596, 59.205 156.735, 53.025 156.509, 52.847 149.106, 49.031 143.134, 46.837 138.971, 45.510 137.251, 44.962 130.791, 43.829 127.098, 43.675 124.479, 43.566 120.429, 43.697 " />
            <path fill="none" stroke-width="3.0" stroke-linecap="butt" stroke-opacity="1.0" stroke="rgb(0, 0, 0)" stroke-linejoin="round" d=" M 77.555, 77.500 79.419, 78.617 80.475, 79.249 81.223, 79.698 81.853, 80.075 82.287, 80.335 83.125, 80.679 85.034, 81.461 86.669, 82.131 86.705, 82.145 88.073, 82.706 88.157, 82.740 90.814, 83.312 93.209, 83.828 95.287, 84.249 99.220, 83.462 100.514, 83.203 100.787, 83.149 101.092, 82.714 101.848, 81.639 104.150, 78.367 104.174, 78.333 104.748, 77.517 106.236, 73.225 106.265, 73.084 106.691, 70.988 106.975, 69.587 107.099, 68.981 107.453, 67.236 107.453, 67.236 107.748, 65.788 107.972, 64.172 107.989, 64.048 108.456, 60.685 " />
            <path fill="none" stroke-width="3.0" stroke-linecap="butt" stroke-opacity="1.0" stroke="rgb(0, 0, 0)" stroke-linejoin="round" d=" M 187.538, 104.922 182.167, 100.730 175.685, 97.902 166.520, 93.902 165.365, 93.398 160.294, 91.978 158.347, 91.433 " />
            <path fill="none" stroke-width="3.0" stroke-linecap="butt" stroke-opacity="1.0" stroke="rgb(0, 0, 0)" stroke-linejoin="round" d=" M 119.673, 69.726 118.068, 69.631 " />
            <path fill="none" stroke-width="3.0" stroke-linecap="butt" stroke-opacity="1.0" stroke="rgb(0, 0, 0)" stroke-linejoin="round" d=" M 119.673, 69.726 124.402, 70.460 134.284, 71.995 135.938, 72.252 143.543, 73.433 " />
            <path fill="none" stroke-width="3.0" stroke-linecap="butt" stroke-opacity="1.0" stroke="rgb(0, 0, 0)" stroke-linejoin="round" d=" M 186.240, 90.093 185.338, 89.111 185.249, 89.015 " />
            <path fill="none" stroke-width="3.0" stroke-linecap="butt" stroke-opacity="1.0" stroke="rgb(0, 0, 0)" stroke-linejoin="round" d=" M 190.473, 104.665 188.205, 96.198 186.240, 90.093 189.030, 99.696 190.473, 104.665 191.313, 107.557 " />
            <path fill="none" stroke-width="3.0" stroke-linecap="butt" stroke-opacity="1.0" stroke="rgb(0, 0, 0)" stroke-linejoin="round" d=" M 138.971, 45.510 138.142, 44.472 134.755, 43.096 130.706, 42.655 127.603, 43.322 127.098, 43.675 " />
            <path fill="none" stroke-width="3.0" stroke-linecap="butt" stroke-opacity="1.0" stroke="rgb(0, 0, 0)" stroke-linejoin="round" d=" M 199.662, 142.463 201.560, 142.006 209.126, 137.337 210.023, 133.612 209.128, 126.791 205.356, 121.247 199.655, 114.084 191.780, 107.922 191.313, 107.557 191.230, 107.492 191.112, 107.399 189.401, 106.060 187.538, 104.922 184.086, 102.812 177.301, 99.871 168.773, 96.174 " />
            <path fill="none" stroke-width="3.0" stroke-linecap="butt" stroke-opacity="1.0" stroke="rgb(0, 0, 0)" stroke-linejoin="round" d=" M 197.964, 123.344 206.066, 129.206 208.160, 130.721 209.126, 137.337 " />
            <path fill="none" stroke-width="3.0" stroke-linecap="butt" stroke-opacity="1.0" stroke="rgb(0, 0, 0)" stroke-linejoin="round" d=" M 45.258, 92.315 42.972, 94.025 37.457, 98.076 32.200, 104.009 31.719, 107.646 " />
            <path fill="none" stroke-width="3.0" stroke-linecap="butt" stroke-opacity="1.0" stroke="rgb(0, 0, 0)" stroke-linejoin="round" d=" M 209.128, 126.791 201.131, 120.786 198.034, 118.461 " />
            <path fill="none" stroke-width="3.0" stroke-linecap="butt" stroke-opacity="1.0" stroke="rgb(0, 0, 0)" stroke-linejoin="round" d=" M 59.758, 83.382 59.489, 83.792 " />
            <path fill="none" stroke-width="3.0" stroke-linecap="butt" stroke-opacity="1.0" stroke="rgb(0, 0, 0)" stroke-linejoin="round" d=" M 105.519, 78.423 105.677, 77.925 107.074, 73.512 " />
            <path fill="none" stroke-width="3.0" stroke-linecap="butt" stroke-opacity="1.0" stroke="rgb(0, 0, 0)" stroke-linejoin="round" d=" M 131.707, 215.300 133.108, 219.554 133.583, 220.996 " />
            <path fill="none" stroke-width="3.0" stroke-linecap="butt" stroke-opacity="1.0" stroke="rgb(0, 0, 0)" stroke-linejoin="round" d=" M 190.843, 133.265 188.755, 123.486 188.681, 123.136 " />
            <path fill="none" stroke-width="3.0" stroke-linecap="butt" stroke-opacity="1.0" stroke="rgb(0, 0, 0)" stroke-linejoin="round" d=" M 195.951, 125.700 201.068, 129.296 " />
        </g>
    </g>
</svg>
