<?xml version='1.0' encoding='ascii'?>
<svg xmlns="http://www.w3.org/2000/svg" version="1.1" width="250" height="250">
    <g id="ViewLayer_LineSet" xmlns:inkscape="http://www.inkscape.org/namespaces/inkscape" inkscape:groupmode="lineset" inkscape:label="ViewLayer_LineSet">
        <g xmlns:inkscape="http://www.inkscape.org/namespaces/inkscape" inkscape:groupmode="layer" id="strokes" inkscape:label="strokes">
            <path fill="none" stroke-width="3.0" stroke-linecap="butt" stroke-opacity="1.0" stroke="rgb(0, 0, 0)" stroke-linejoin="round" d=" M 175.135, 188.479 175.276, 188.332 180.918, 180.075 181.624, 179.041 182.094, 178.068 " />
            <path fill="none" stroke-width="3.0" stroke-linecap="butt" stroke-opacity="1.0" stroke="rgb(0, 0, 0)" stroke-linejoin="round" d=" M 59.266, 98.751 58.884, 99.230 58.029, 100.302 53.695, 107.480 49.818, 116.235 48.976, 119.047 48.074, 122.061 47.987, 122.351 47.895, 122.659 47.207, 124.957 46.151, 131.165 45.560, 136.573 45.311, 142.144 45.688, 147.734 46.106, 152.381 47.098, 157.587 48.034, 161.029 49.281, 165.361 50.957, 169.851 51.735, 171.556 52.987, 174.302 55.284, 178.523 57.750, 182.327 59.709, 185.226 63.014, 189.433 66.230, 192.740 69.707, 196.217 70.245, 196.754 74.610, 200.173 79.139, 203.353 85.046, 206.856 90.674, 209.386 94.756, 210.989 99.899, 212.329 106.009, 213.801 109.744, 214.430 " />
            <path fill="none" stroke-width="3.0" stroke-linecap="butt" stroke-opacity="1.0" stroke="rgb(0, 0, 0)" stroke-linejoin="round" d=" M 190.036, 125.068 189.069, 120.554 188.367, 118.746 " />
            <path fill="none" stroke-width="3.0" stroke-linecap="butt" stroke-opacity="1.0" stroke="rgb(0, 0, 0)" stroke-linejoin="round" d=" M 80.441, 150.301 80.523, 150.498 81.022, 151.704 82.437, 153.773 84.397, 155.424 86.671, 156.641 88.778, 157.070 90.934, 156.981 93.371, 156.131 95.476, 154.781 97.063, 152.916 97.791, 151.591 " />
            <path fill="none" stroke-width="3.0" stroke-linecap="butt" stroke-opacity="1.0" stroke="rgb(0, 0, 0)" stroke-linejoin="round" d=" M 120.961, 100.579 120.990, 100.669 121.652, 102.719 121.669, 102.770 122.202, 106.159 122.331, 109.984 122.343, 110.053 121.400, 118.475 121.085, 119.644 121.049, 119.778 120.265, 122.695 118.829, 126.994 117.123, 131.004 115.211, 134.529 113.162, 137.398 111.506, 139.019 111.134, 139.384 111.050, 139.466 108.949, 140.628 106.935, 140.825 105.084, 140.043 105.030, 139.986 103.468, 138.314 103.406, 138.191 103.175, 137.732 102.159, 135.717 101.214, 132.374 100.683, 128.445 100.593, 124.119 100.953, 119.604 101.528, 116.315 101.561, 116.128 101.727, 115.177 102.851, 111.000 104.301, 107.084 106.018, 103.572 107.937, 100.586 108.957, 99.412 " />
            <path fill="none" stroke-width="3.0" stroke-linecap="butt" stroke-opacity="1.0" stroke="rgb(0, 0, 0)" stroke-linejoin="round" d=" M 80.564, 118.604 79.651, 122.922 79.109, 125.069 78.607, 127.058 77.445, 130.808 76.934, 132.087 76.782, 132.465 76.174, 133.985 74.802, 136.430 73.348, 138.021 71.842, 138.682 71.780, 138.682 70.357, 138.686 68.888, 137.149 67.585, 135.041 66.510, 132.170 65.861, 129.207 65.759, 128.744 65.746, 128.681 65.360, 124.750 65.399, 120.566 65.653, 118.297 65.866, 116.389 66.654, 112.362 67.710, 108.491 68.761, 105.555 68.983, 104.934 68.991, 104.913 70.445, 101.752 72.015, 99.116 72.871, 98.048 " />
            <path fill="none" stroke-width="3.0" stroke-linecap="butt" stroke-opacity="1.0" stroke="rgb(0, 0, 0)" stroke-linejoin="round" d=" M 70.357, 138.686 73.317, 140.071 " />
            <path fill="none" stroke-width="3.0" stroke-linecap="butt" stroke-opacity="1.0" stroke="rgb(0, 0, 0)" stroke-linejoin="round" d=" M 80.499, 97.805 81.261, 100.117 81.734, 103.041 81.956, 106.545 81.757, 110.304 " />
            <path fill="none" stroke-width="3.0" stroke-linecap="butt" stroke-opacity="1.0" stroke="rgb(0, 0, 0)" stroke-linejoin="round" d=" M 83.422, 120.561 80.564, 118.604 81.303, 114.376 81.699, 110.818 81.737, 110.479 81.757, 110.304 82.237, 110.653 83.160, 111.325 " />
            <path fill="none" stroke-width="3.0" stroke-linecap="butt" stroke-opacity="1.0" stroke="rgb(0, 0, 0)" stroke-linejoin="round" d=" M 111.572, 206.698 110.262, 210.726 109.744, 214.430 109.723, 214.581 109.787, 218.113 110.641, 221.770 112.424, 225.297 112.570, 225.442 115.137, 227.983 118.959, 230.213 124.503, 232.101 131.120, 233.610 136.734, 234.399 142.914, 234.846 150.851, 234.920 156.784, 234.671 162.444, 233.720 166.390, 231.904 169.083, 229.879 174.106, 225.656 177.399, 222.385 180.605, 218.161 182.284, 214.745 183.011, 211.170 183.419, 207.794 183.404, 203.680 182.289, 199.332 179.505, 194.158 178.406, 192.160 175.892, 189.048 175.135, 188.479 " />
            <path fill="none" stroke-width="3.0" stroke-linecap="butt" stroke-opacity="1.0" stroke="rgb(0, 0, 0)" stroke-linejoin="round" d=" M 64.632, 223.594 66.494, 226.611 68.695, 228.979 " />
            <path fill="none" stroke-width="3.0" stroke-linecap="butt" stroke-opacity="1.0" stroke="rgb(0, 0, 0)" stroke-linejoin="round" d=" M 69.707, 196.217 67.217, 203.651 66.161, 207.341 64.746, 211.141 64.069, 214.769 64.029, 216.856 63.972, 220.172 64.632, 223.594 66.572, 226.183 68.695, 228.979 71.758, 230.883 76.509, 232.699 80.887, 233.676 85.575, 233.993 88.546, 233.948 94.558, 233.924 100.433, 232.682 102.841, 232.236 106.476, 231.070 109.008, 229.344 112.570, 225.442 " />
            <path fill="none" stroke-width="3.0" stroke-linecap="butt" stroke-opacity="1.0" stroke="rgb(0, 0, 0)" stroke-linejoin="round" d=" M 181.106, 177.560 182.094, 178.068 187.117, 180.650 191.852, 182.185 196.267, 183.035 200.659, 183.177 204.357, 182.587 207.721, 181.527 210.787, 179.963 213.597, 177.935 216.090, 175.530 218.171, 172.601 219.719, 169.528 220.705, 166.336 221.070, 162.997 221.108, 162.034 220.961, 158.258 219.943, 153.950 218.154, 149.794 215.554, 145.462 211.255, 140.200 206.800, 135.697 206.716, 135.622 206.226, 135.184 202.419, 131.782 197.790, 128.584 192.760, 126.062 190.036, 125.068 " />
            <path fill="none" stroke-width="3.0" stroke-linecap="butt" stroke-opacity="1.0" stroke="rgb(0, 0, 0)" stroke-linejoin="round" d=" M 47.895, 122.659 46.706, 123.281 42.811, 126.117 39.168, 129.583 37.691, 131.092 33.966, 135.049 30.432, 139.584 28.474, 143.284 27.175, 146.816 26.516, 150.430 26.401, 151.898 26.397, 154.615 26.811, 157.064 26.876, 157.302 27.420, 159.087 27.578, 159.527 28.642, 161.921 28.862, 162.304 30.699, 165.091 32.904, 167.337 35.296, 169.155 37.486, 170.387 39.681, 171.200 41.021, 171.613 44.009, 172.269 47.582, 172.294 51.222, 171.683 51.735, 171.556 " />
            <path fill="none" stroke-width="3.0" stroke-linecap="butt" stroke-opacity="1.0" stroke="rgb(0, 0, 0)" stroke-linejoin="round" d=" M 121.883, 68.345 122.393, 67.969 122.562, 67.650 122.598, 67.581 124.384, 64.196 125.251, 61.610 125.242, 57.926 124.360, 55.249 122.336, 51.535 121.436, 50.897 " />
            <path fill="none" stroke-width="3.0" stroke-linecap="butt" stroke-opacity="1.0" stroke="rgb(0, 0, 0)" stroke-linejoin="round" d=" M 59.455, 53.531 59.326, 53.907 57.881, 58.123 56.316, 64.254 55.904, 72.163 56.105, 73.442 57.942, 78.768 60.249, 80.028 60.253, 80.030 63.835, 80.831 65.619, 81.231 69.263, 81.692 69.346, 81.678 70.910, 81.408 70.995, 81.394 75.439, 80.628 77.731, 80.049 80.145, 79.440 81.100, 79.199 85.032, 77.658 87.010, 76.883 87.144, 76.947 87.147, 76.948 " />
            <path fill="none" stroke-width="3.0" stroke-linecap="butt" stroke-opacity="1.0" stroke="rgb(0, 0, 0)" stroke-linejoin="round" d=" M 32.726, 109.890 31.580, 106.158 32.576, 105.362 38.887, 100.322 40.988, 99.822 49.160, 97.875 55.800, 96.293 56.101, 96.222 58.102, 96.149 61.439, 96.029 71.432, 95.668 75.870, 95.507 78.421, 95.415 84.179, 95.207 94.151, 95.955 104.123, 96.703 111.248, 97.237 118.531, 97.784 119.619, 97.973 129.471, 99.687 139.323, 101.401 149.175, 103.115 152.258, 103.651 161.906, 106.281 171.554, 108.912 180.709, 111.408 181.586, 111.791 186.202, 113.811 186.503, 113.943 186.593, 113.982 188.567, 114.846 " />
            <path fill="none" stroke-width="3.0" stroke-linecap="butt" stroke-opacity="1.0" stroke="rgb(0, 0, 0)" stroke-linejoin="round" d=" M 206.226, 135.184 207.065, 129.071 199.920, 122.800 " />
            <path fill="none" stroke-width="3.0" stroke-linecap="butt" stroke-opacity="1.0" stroke="rgb(0, 0, 0)" stroke-linejoin="round" d=" M 39.005, 106.789 46.283, 101.454 56.073, 99.416 58.540, 98.902 59.266, 98.751 60.261, 98.544 60.790, 98.434 " />
            <path fill="none" stroke-width="3.0" stroke-linecap="butt" stroke-opacity="1.0" stroke="rgb(0, 0, 0)" stroke-linejoin="round" d=" M 37.450, 115.765 43.571, 120.144 45.120, 121.134 47.987, 122.351 " />
            <path fill="none" stroke-width="3.0" stroke-linecap="butt" stroke-opacity="1.0" stroke="rgb(0, 0, 0)" stroke-linejoin="round" d=" M 58.827, 98.496 58.243, 98.619 48.455, 100.667 44.996, 101.390 41.198, 102.185 40.372, 102.812 33.788, 107.805 34.263, 109.440 " />
            <path fill="none" stroke-width="3.0" stroke-linecap="butt" stroke-opacity="1.0" stroke="rgb(0, 0, 0)" stroke-linejoin="round" d=" M 58.827, 98.496 59.486, 98.475 60.168, 98.454 60.790, 98.434 70.785, 98.115 72.871, 98.048 78.222, 97.878 80.499, 97.805 81.443, 97.775 81.510, 97.773 85.567, 97.644 95.539, 98.397 105.510, 99.151 108.957, 99.412 113.460, 99.752 118.089, 100.102 120.880, 100.566 120.961, 100.579 121.097, 100.602 130.962, 102.242 140.826, 103.881 144.697, 104.524 151.189, 105.603 160.845, 108.202 170.502, 110.801 179.211, 113.144 182.008, 114.351 184.662, 115.495 186.615, 116.337 " />
            <path fill="none" stroke-width="3.0" stroke-linecap="butt" stroke-opacity="1.0" stroke="rgb(0, 0, 0)" stroke-linejoin="round" d=" M 41.898, 92.600 36.625, 96.571 33.101, 99.830 31.001, 102.721 29.599, 105.800 29.493, 108.298 29.923, 110.498 33.588, 114.690 36.296, 116.170 37.450, 115.765 37.567, 115.724 39.603, 115.009 40.532, 114.377 42.512, 113.032 44.201, 107.897 " />
            <path fill="none" stroke-width="3.0" stroke-linecap="butt" stroke-opacity="1.0" stroke="rgb(0, 0, 0)" stroke-linejoin="round" d=" M 32.703, 112.098 29.923, 110.498 " />
            <path fill="none" stroke-width="3.0" stroke-linecap="butt" stroke-opacity="1.0" stroke="rgb(0, 0, 0)" stroke-linejoin="round" d=" M 42.512, 113.032 39.486, 110.638 " />
            <path fill="none" stroke-width="3.0" stroke-linecap="butt" stroke-opacity="1.0" stroke="rgb(0, 0, 0)" stroke-linejoin="round" d=" M 40.433, 108.197 39.486, 110.638 36.009, 111.621 " />
            <path fill="none" stroke-width="3.0" stroke-linecap="butt" stroke-opacity="1.0" stroke="rgb(0, 0, 0)" stroke-linejoin="round" d=" M 58.458, 82.929 58.399, 82.955 51.010, 86.279 42.794, 91.979 41.898, 92.600 43.585, 91.579 43.693, 91.514 45.137, 90.640 48.693, 88.487 57.384, 83.540 58.392, 82.966 58.458, 82.929 63.835, 80.831 " />
            <path fill="none" stroke-width="3.0" stroke-linecap="butt" stroke-opacity="1.0" stroke="rgb(0, 0, 0)" stroke-linejoin="round" d=" M 48.693, 88.487 49.426, 88.204 50.495, 87.792 56.051, 85.648 56.906, 85.319 57.739, 84.997 67.354, 82.247 69.346, 81.678 " />
            <path fill="none" stroke-width="3.0" stroke-linecap="butt" stroke-opacity="1.0" stroke="rgb(0, 0, 0)" stroke-linejoin="round" d=" M 70.995, 81.394 78.198, 80.692 83.675, 80.158 84.348, 80.141 91.145, 79.971 91.591, 79.990 92.144, 80.014 94.439, 80.113 " />
            <path fill="none" stroke-width="3.0" stroke-linecap="butt" stroke-opacity="1.0" stroke="rgb(0, 0, 0)" stroke-linejoin="round" d=" M 182.008, 114.351 182.799, 116.260 183.362, 116.513 184.941, 117.221 185.928, 117.664 188.367, 118.746 197.508, 122.801 197.903, 122.977 198.934, 123.434 199.791, 122.884 199.920, 122.800 201.232, 121.958 201.478, 120.958 202.118, 118.351 199.340, 113.838 192.977, 107.619 192.098, 106.975 185.608, 102.226 179.541, 97.648 176.963, 96.102 175.231, 95.064 171.196, 92.644 165.549, 90.260 160.186, 87.995 155.447, 86.510 147.560, 84.039 137.947, 81.285 134.787, 80.380 124.928, 78.704 121.860, 78.183 112.128, 76.607 111.237, 76.463 " />
            <path fill="none" stroke-width="3.0" stroke-linecap="butt" stroke-opacity="1.0" stroke="rgb(0, 0, 0)" stroke-linejoin="round" d=" M 107.129, 81.146 110.795, 81.521 115.382, 81.989 116.686, 82.306 126.404, 84.668 132.175, 86.070 141.781, 88.849 146.569, 90.234 147.177, 90.470 156.499, 94.089 159.286, 95.171 168.434, 99.212 170.266, 100.022 178.462, 104.053 183.108, 106.703 184.723, 107.625 188.651, 110.645 189.619, 111.389 190.715, 113.205 190.771, 113.297 191.403, 114.344 191.708, 116.881 190.127, 117.852 189.085, 118.492 " />
            <path fill="none" stroke-width="3.0" stroke-linecap="butt" stroke-opacity="1.0" stroke="rgb(0, 0, 0)" stroke-linejoin="round" d=" M 104.479, 77.726 105.571, 76.153 105.652, 76.036 108.258, 72.285 109.186, 68.933 109.582, 67.501 109.672, 67.176 109.771, 66.815 110.233, 65.147 110.238, 65.129 110.557, 63.977 110.962, 57.546 110.922, 56.177 110.823, 52.751 " />
            <path fill="none" stroke-width="3.0" stroke-linecap="butt" stroke-opacity="1.0" stroke="rgb(0, 0, 0)" stroke-linejoin="round" d=" M 81.420, 72.412 85.140, 74.759 85.752, 75.046 86.890, 75.581 88.003, 76.103 90.517, 77.284 96.726, 78.546 98.304, 78.867 104.479, 77.726 105.615, 79.176 107.038, 80.485 107.638, 80.736 108.146, 80.949 " />
            <path fill="none" stroke-width="3.0" stroke-linecap="butt" stroke-opacity="1.0" stroke="rgb(0, 0, 0)" stroke-linejoin="round" d=" M 57.942, 78.768 57.707, 77.386 " />
            <path fill="none" stroke-width="3.0" stroke-linecap="butt" stroke-opacity="1.0" stroke="rgb(0, 0, 0)" stroke-linejoin="round" d=" M 87.010, 76.883 85.741, 76.171 85.638, 76.113 85.482, 76.025 84.137, 75.271 82.099, 73.730 81.420, 72.412 76.977, 74.721 70.946, 77.148 63.068, 78.574 61.401, 78.204 57.707, 77.386 55.904, 72.163 " />
            <path fill="none" stroke-width="3.0" stroke-linecap="butt" stroke-opacity="1.0" stroke="rgb(0, 0, 0)" stroke-linejoin="round" d=" M 115.074, 59.512 117.040, 56.777 118.143, 55.242 121.436, 50.897 122.421, 49.597 123.232, 48.527 126.084, 44.138 126.898, 42.887 127.155, 41.888 127.309, 41.290 128.355, 37.234 128.703, 34.070 127.753, 31.809 124.095, 27.518 118.636, 25.031 115.732, 23.892 109.815, 22.731 106.813, 22.393 105.297, 22.221 " />
            <path fill="none" stroke-width="3.0" stroke-linecap="butt" stroke-opacity="1.0" stroke="rgb(0, 0, 0)" stroke-linejoin="round" d=" M 51.654, 39.337 52.017, 33.773 56.449, 29.546 63.680, 26.019 69.548, 24.428 73.998, 23.560 76.589, 19.552 80.495, 14.358 86.646, 8.586 92.168, 5.925 96.970, 8.008 101.486, 13.288 103.882, 18.287 105.297, 22.221 " />
            <path fill="none" stroke-width="3.0" stroke-linecap="butt" stroke-opacity="1.0" stroke="rgb(0, 0, 0)" stroke-linejoin="round" d=" M 113.608, 55.856 112.082, 53.739 110.823, 52.751 115.382, 48.839 115.692, 48.520 120.847, 43.218 121.759, 41.782 124.644, 37.240 126.225, 31.252 122.644, 27.042 115.732, 23.892 " />
            <path fill="none" stroke-width="3.0" stroke-linecap="butt" stroke-opacity="1.0" stroke="rgb(0, 0, 0)" stroke-linejoin="round" d=" M 56.487, 49.935 55.037, 47.632 53.258, 44.807 52.298, 41.532 51.654, 39.337 51.775, 40.001 52.298, 41.532 " />
            <path fill="none" stroke-width="3.0" stroke-linecap="butt" stroke-opacity="1.0" stroke="rgb(0, 0, 0)" stroke-linejoin="round" d=" M 55.037, 47.632 55.589, 48.701 59.326, 53.907 " />
            <path fill="none" stroke-width="3.0" stroke-linecap="butt" stroke-opacity="1.0" stroke="rgb(0, 0, 0)" stroke-linejoin="round" d=" M 106.813, 22.393 105.858, 20.091 103.220, 15.224 102.008, 12.915 97.905, 8.124 93.012, 6.003 92.168, 5.925 " />
            <path fill="none" stroke-width="3.0" stroke-linecap="butt" stroke-opacity="1.0" stroke="rgb(0, 0, 0)" stroke-linejoin="round" d=" M 56.487, 49.935 59.455, 53.531 " />
            <path fill="none" stroke-width="3.0" stroke-linecap="butt" stroke-opacity="1.0" stroke="rgb(0, 0, 0)" stroke-linejoin="round" d=" M 191.277, 103.316 188.200, 93.801 186.382, 88.179 185.356, 87.116 184.069, 82.800 179.071, 74.139 177.744, 71.839 171.106, 64.361 169.903, 63.006 164.790, 57.521 156.709, 51.631 156.106, 51.191 149.223, 47.324 140.070, 44.238 136.826, 43.234 136.776, 43.219 130.364, 42.039 127.155, 41.888 " />
            <path fill="none" stroke-width="3.0" stroke-linecap="butt" stroke-opacity="1.0" stroke="rgb(0, 0, 0)" stroke-linejoin="round" d=" M 89.247, 78.118 91.085, 78.824 91.332, 78.919 92.132, 79.227 93.051, 79.580 93.906, 79.908 94.226, 80.031 94.439, 80.113 95.519, 80.528 96.599, 80.842 97.871, 81.109 102.415, 82.063 105.138, 81.533 107.129, 81.146 108.146, 80.949 108.263, 80.780 108.980, 79.738 109.751, 78.619 111.237, 76.463 112.037, 75.302 112.405, 74.137 113.280, 71.368 113.396, 71.004 113.801, 68.586 113.974, 67.552 114.055, 67.071 114.643, 63.558 114.704, 62.988 115.074, 59.512 115.187, 58.449 " />
            <path fill="none" stroke-width="3.0" stroke-linecap="butt" stroke-opacity="1.0" stroke="rgb(0, 0, 0)" stroke-linejoin="round" d=" M 84.137, 75.271 85.483, 76.021 85.644, 76.110 85.752, 76.170 87.016, 76.875 87.144, 76.946 87.147, 76.948 89.247, 78.118 91.935, 79.238 92.073, 79.295 92.971, 79.602 93.872, 79.910 94.226, 80.031 " />
            <path fill="none" stroke-width="3.0" stroke-linecap="butt" stroke-opacity="1.0" stroke="rgb(0, 0, 0)" stroke-linejoin="round" d=" M 186.715, 100.736 184.469, 98.612 175.442, 94.310 174.076, 93.658 169.159, 91.315 165.549, 90.260 " />
            <path fill="none" stroke-width="3.0" stroke-linecap="butt" stroke-opacity="1.0" stroke="rgb(0, 0, 0)" stroke-linejoin="round" d=" M 124.048, 67.667 122.598, 67.581 " />
            <path fill="none" stroke-width="3.0" stroke-linecap="butt" stroke-opacity="1.0" stroke="rgb(0, 0, 0)" stroke-linejoin="round" d=" M 124.048, 67.667 133.922, 69.252 143.796, 70.836 147.561, 71.440 " />
            <path fill="none" stroke-width="3.0" stroke-linecap="butt" stroke-opacity="1.0" stroke="rgb(0, 0, 0)" stroke-linejoin="round" d=" M 136.826, 43.234 136.485, 42.792 133.244, 41.387 129.180, 40.917 127.309, 41.290 " />
            <path fill="none" stroke-width="3.0" stroke-linecap="butt" stroke-opacity="1.0" stroke="rgb(0, 0, 0)" stroke-linejoin="round" d=" M 206.716, 135.622 208.381, 134.752 209.193, 131.076 210.300, 124.251 206.385, 118.824 200.494, 111.806 193.280, 104.881 192.187, 103.831 191.277, 103.316 186.715, 100.736 186.574, 100.656 177.538, 96.374 176.963, 96.102 " />
            <path fill="none" stroke-width="3.0" stroke-linecap="butt" stroke-opacity="1.0" stroke="rgb(0, 0, 0)" stroke-linejoin="round" d=" M 201.478, 120.958 208.909, 127.650 209.440, 128.129 208.381, 134.752 " />
            <path fill="none" stroke-width="3.0" stroke-linecap="butt" stroke-opacity="1.0" stroke="rgb(0, 0, 0)" stroke-linejoin="round" d=" M 44.793, 92.199 41.905, 94.416 39.439, 96.309 31.937, 102.463 31.580, 106.158 " />
            <path fill="none" stroke-width="3.0" stroke-linecap="butt" stroke-opacity="1.0" stroke="rgb(0, 0, 0)" stroke-linejoin="round" d=" M 210.300, 124.251 203.000, 117.417 201.484, 115.999 " />
            <path fill="none" stroke-width="3.0" stroke-linecap="butt" stroke-opacity="1.0" stroke="rgb(0, 0, 0)" stroke-linejoin="round" d=" M 37.567, 115.724 45.120, 121.134 " />
            <path fill="none" stroke-width="3.0" stroke-linecap="butt" stroke-opacity="1.0" stroke="rgb(0, 0, 0)" stroke-linejoin="round" d=" M 60.249, 80.028 58.399, 82.955 " />
            <path fill="none" stroke-width="3.0" stroke-linecap="butt" stroke-opacity="1.0" stroke="rgb(0, 0, 0)" stroke-linejoin="round" d=" M 113.280, 71.368 113.551, 71.359 " />
            <path fill="none" stroke-width="3.0" stroke-linecap="butt" stroke-opacity="1.0" stroke="rgb(0, 0, 0)" stroke-linejoin="round" d=" M 122.236, 102.805 121.097, 100.602 " />
            <path fill="none" stroke-width="3.0" stroke-linecap="butt" stroke-opacity="1.0" stroke="rgb(0, 0, 0)" stroke-linejoin="round" d=" M 197.903, 122.977 202.317, 126.790 " />
        </g>
    </g>
</svg>
