<?xml version='1.0' encoding='ascii'?>
<svg xmlns="http://www.w3.org/2000/svg" version="1.1" width="250" height="250">
    <g id="ViewLayer_LineSet" xmlns:inkscape="http://www.inkscape.org/namespaces/inkscape" inkscape:groupmode="lineset" inkscape:label="ViewLayer_LineSet">
        <g xmlns:inkscape="http://www.inkscape.org/namespaces/inkscape" inkscape:groupmode="layer" id="strokes" inkscape:label="strokes">
            <path fill="none" stroke-width="3.0" stroke-linecap="butt" stroke-opacity="1.0" stroke="rgb(0, 0, 0)" stroke-linejoin="round" d=" M 108.907, 215.827 111.281, 216.092 113.198, 216.306 117.706, 216.503 122.228, 216.408 126.561, 216.026 130.374, 215.400 130.516, 215.377 136.842, 213.994 141.883, 212.684 145.852, 211.101 154.646, 206.948 158.099, 204.702 166.189, 198.823 166.781, 198.392 173.734, 191.206 174.399, 190.519 175.054, 189.565 " />
            <path fill="none" stroke-width="3.0" stroke-linecap="butt" stroke-opacity="1.0" stroke="rgb(0, 0, 0)" stroke-linejoin="round" d=" M 59.327, 100.080 57.985, 101.766 53.752, 108.871 49.944, 117.537 49.382, 119.360 48.447, 122.387 48.341, 122.729 47.277, 126.175 46.025, 132.335 45.481, 138.719 45.256, 143.201 45.485, 148.863 45.964, 153.353 46.825, 158.003 47.671, 161.949 48.957, 166.250 50.620, 170.714 52.589, 175.149 54.777, 179.363 57.091, 183.171 59.432, 186.398 61.071, 188.566 " />
            <path fill="none" stroke-width="3.0" stroke-linecap="butt" stroke-opacity="1.0" stroke="rgb(0, 0, 0)" stroke-linejoin="round" d=" M 190.824, 131.841 188.810, 122.420 188.676, 122.075 " />
            <path fill="none" stroke-width="3.0" stroke-linecap="butt" stroke-opacity="1.0" stroke="rgb(0, 0, 0)" stroke-linejoin="round" d=" M 77.110, 151.735 77.664, 153.136 79.027, 155.206 80.921, 156.868 83.116, 158.101 84.870, 158.485 85.156, 158.548 87.250, 158.480 89.624, 157.657 91.672, 156.333 93.221, 154.490 93.936, 153.176 " />
            <path fill="none" stroke-width="3.0" stroke-linecap="butt" stroke-opacity="1.0" stroke="rgb(0, 0, 0)" stroke-linejoin="round" d=" M 117.438, 102.648 117.554, 103.039 118.012, 104.577 118.464, 107.969 118.504, 111.796 118.520, 111.865 117.447, 119.942 117.433, 120.052 117.402, 120.286 116.175, 124.501 114.671, 128.793 112.917, 132.790 110.976, 136.301 108.917, 139.153 108.758, 139.308 108.367, 139.687 106.809, 141.203 104.724, 142.349 102.735, 142.531 101.461, 141.975 100.916, 141.738 99.339, 140.002 98.266, 137.798 98.073, 137.403 98.041, 137.282 97.180, 134.063 96.708, 130.140 96.686, 125.824 97.122, 121.322 97.978, 116.908 98.208, 116.111 98.250, 115.964 99.180, 112.743 100.701, 108.838 102.479, 105.336 104.447, 102.359 105.354, 101.335 " />
            <path fill="none" stroke-width="3.0" stroke-linecap="butt" stroke-opacity="1.0" stroke="rgb(0, 0, 0)" stroke-linejoin="round" d=" M 77.310, 120.215 76.333, 124.509 75.250, 128.619 74.333, 131.524 74.200, 131.944 74.074, 132.343 72.813, 135.493 71.474, 137.913 70.071, 139.483 68.924, 139.997 68.633, 140.127 67.222, 140.118 65.847, 138.578 64.639, 136.471 63.664, 133.609 63.002, 130.135 62.892, 128.616 62.858, 128.136 62.719, 126.225 62.857, 122.065 63.085, 120.368 63.416, 117.913 64.282, 113.912 65.399, 110.067 66.723, 106.514 67.382, 105.114 67.620, 104.610 68.201, 103.376 69.773, 100.759 70.576, 99.755 " />
            <path fill="none" stroke-width="3.0" stroke-linecap="butt" stroke-opacity="1.0" stroke="rgb(0, 0, 0)" stroke-linejoin="round" d=" M 67.222, 140.118 70.426, 141.493 " />
            <path fill="none" stroke-width="3.0" stroke-linecap="butt" stroke-opacity="1.0" stroke="rgb(0, 0, 0)" stroke-linejoin="round" d=" M 77.890, 99.544 78.527, 101.799 78.886, 104.716 78.996, 108.207 78.851, 109.962 78.828, 110.247 78.687, 111.953 " />
            <path fill="none" stroke-width="3.0" stroke-linecap="butt" stroke-opacity="1.0" stroke="rgb(0, 0, 0)" stroke-linejoin="round" d=" M 80.417, 122.153 77.310, 120.215 77.533, 119.078 78.134, 116.008 78.687, 111.953 81.753, 113.985 " />
            <path fill="none" stroke-width="3.0" stroke-linecap="butt" stroke-opacity="1.0" stroke="rgb(0, 0, 0)" stroke-linejoin="round" d=" M 130.374, 215.400 130.957, 217.075 133.025, 223.315 134.246, 225.258 138.075, 229.747 143.704, 233.391 149.061, 235.089 153.947, 235.416 154.507, 235.360 159.282, 234.658 159.627, 234.598 166.108, 232.463 171.446, 229.588 176.662, 225.603 180.994, 219.782 183.893, 214.242 184.472, 212.716 187.981, 203.352 188.745, 201.313 190.869, 192.184 " />
            <path fill="none" stroke-width="3.0" stroke-linecap="butt" stroke-opacity="1.0" stroke="rgb(0, 0, 0)" stroke-linejoin="round" d=" M 61.071, 188.566 57.371, 189.802 51.873, 192.887 46.123, 196.350 40.979, 201.032 37.779, 203.982 34.983, 208.745 33.952, 211.336 32.130, 215.586 31.206, 219.671 31.160, 223.456 31.955, 227.370 32.978, 230.500 35.781, 233.690 38.505, 236.027 43.255, 238.292 47.885, 239.552 53.086, 240.029 60.100, 240.020 64.230, 239.985 71.141, 238.636 74.546, 238.067 78.626, 236.805 85.801, 233.826 93.211, 230.282 99.563, 227.068 102.847, 224.962 106.175, 222.738 109.248, 219.539 110.182, 218.069 111.281, 216.092 " />
            <path fill="none" stroke-width="3.0" stroke-linecap="butt" stroke-opacity="1.0" stroke="rgb(0, 0, 0)" stroke-linejoin="round" d=" M 166.745, 183.698 168.607, 185.497 172.323, 188.139 175.054, 189.565 175.969, 190.042 179.483, 191.219 183.089, 192.323 186.251, 192.506 190.016, 192.337 190.869, 192.184 192.533, 191.885 195.508, 190.986 197.495, 190.009 199.733, 188.744 201.781, 187.183 203.310, 185.838 205.564, 183.306 206.861, 181.218 208.421, 177.978 209.326, 175.058 209.986, 171.712 210.314, 167.807 209.889, 163.809 208.816, 159.438 208.138, 156.842 205.909, 151.109 203.060, 146.081 200.140, 141.628 200.131, 141.615 200.117, 141.596 199.921, 141.343 197.028, 137.587 195.141, 135.443 191.536, 132.239 190.824, 131.841 186.257, 129.291 182.478, 127.600 " />
            <path fill="none" stroke-width="3.0" stroke-linecap="butt" stroke-opacity="1.0" stroke="rgb(0, 0, 0)" stroke-linejoin="round" d=" M 116.254, 72.245 119.502, 69.763 119.512, 69.743 119.664, 69.434 119.700, 69.360 121.353, 66.000 122.338, 63.406 122.319, 59.727 121.302, 57.065 119.398, 53.353 117.692, 52.104 " />
            <path fill="none" stroke-width="3.0" stroke-linecap="butt" stroke-opacity="1.0" stroke="rgb(0, 0, 0)" stroke-linejoin="round" d=" M 56.100, 55.621 56.007, 55.883 54.485, 60.184 52.846, 66.273 52.277, 74.126 52.567, 75.387 54.219, 80.678 56.707, 81.913 59.866, 82.650 61.377, 83.003 61.851, 83.113 65.733, 83.550 71.540, 82.534 71.742, 82.498 74.129, 81.889 77.305, 81.079 82.723, 78.923 82.794, 78.895 " />
            <path fill="none" stroke-width="3.0" stroke-linecap="butt" stroke-opacity="1.0" stroke="rgb(0, 0, 0)" stroke-linejoin="round" d=" M 33.816, 112.021 31.617, 107.534 32.798, 106.397 37.498, 101.869 41.767, 100.796 49.591, 98.829 53.187, 97.925 57.099, 97.794 59.111, 97.726 61.257, 97.654 71.251, 97.318 73.390, 97.246 76.047, 97.157 76.067, 97.156 79.965, 97.025 89.934, 97.810 99.903, 98.594 107.575, 99.198 113.674, 99.678 116.286, 100.133 116.354, 100.145 126.206, 101.862 136.057, 103.579 145.909, 105.296 147.658, 105.601 157.322, 108.169 166.987, 110.738 176.651, 113.307 177.065, 113.417 178.187, 113.878 178.957, 114.194 183.049, 115.877 185.910, 117.053 " />
            <path fill="none" stroke-width="3.0" stroke-linecap="butt" stroke-opacity="1.0" stroke="rgb(0, 0, 0)" stroke-linejoin="round" d=" M 199.921, 141.343 206.643, 137.449 206.272, 131.147 200.104, 126.470 197.894, 124.795 " />
            <path fill="none" stroke-width="3.0" stroke-linecap="butt" stroke-opacity="1.0" stroke="rgb(0, 0, 0)" stroke-linejoin="round" d=" M 39.015, 108.169 40.879, 106.552 44.983, 102.988 54.755, 100.864 58.209, 100.113 " />
            <path fill="none" stroke-width="3.0" stroke-linecap="butt" stroke-opacity="1.0" stroke="rgb(0, 0, 0)" stroke-linejoin="round" d=" M 38.877, 116.893 47.145, 122.243 48.341, 122.729 " />
            <path fill="none" stroke-width="3.0" stroke-linecap="butt" stroke-opacity="1.0" stroke="rgb(0, 0, 0)" stroke-linejoin="round" d=" M 55.983, 100.177 46.215, 102.315 45.426, 102.487 41.090, 103.437 39.825, 103.713 33.817, 109.167 34.555, 110.717 " />
            <path fill="none" stroke-width="3.0" stroke-linecap="butt" stroke-opacity="1.0" stroke="rgb(0, 0, 0)" stroke-linejoin="round" d=" M 55.983, 100.177 58.209, 100.113 59.327, 100.080 59.785, 100.067 61.623, 100.014 70.576, 99.755 75.980, 99.599 77.890, 99.544 79.298, 99.503 81.510, 99.439 91.479, 100.232 101.447, 101.024 105.354, 101.335 110.126, 101.715 113.428, 101.977 117.438, 102.648 118.024, 102.746 127.887, 104.394 130.419, 104.818 140.283, 106.466 146.728, 107.544 156.400, 110.085 166.072, 112.626 175.674, 115.149 179.308, 116.623 184.176, 118.597 " />
            <path fill="none" stroke-width="3.0" stroke-linecap="butt" stroke-opacity="1.0" stroke="rgb(0, 0, 0)" stroke-linejoin="round" d=" M 41.024, 94.189 36.222, 98.085 33.055, 101.283 31.243, 104.120 30.073, 107.147 30.065, 109.610 30.529, 111.783 34.855, 115.889 37.535, 117.362 38.877, 116.893 38.911, 116.881 40.795, 116.222 42.081, 115.346 43.651, 114.275 45.237, 109.200 " />
            <path fill="none" stroke-width="3.0" stroke-linecap="butt" stroke-opacity="1.0" stroke="rgb(0, 0, 0)" stroke-linejoin="round" d=" M 33.260, 113.374 30.529, 111.783 " />
            <path fill="none" stroke-width="3.0" stroke-linecap="butt" stroke-opacity="1.0" stroke="rgb(0, 0, 0)" stroke-linejoin="round" d=" M 43.651, 114.275 39.923, 111.950 " />
            <path fill="none" stroke-width="3.0" stroke-linecap="butt" stroke-opacity="1.0" stroke="rgb(0, 0, 0)" stroke-linejoin="round" d=" M 40.820, 109.573 39.923, 111.950 36.502, 112.913 " />
            <path fill="none" stroke-width="3.0" stroke-linecap="butt" stroke-opacity="1.0" stroke="rgb(0, 0, 0)" stroke-linejoin="round" d=" M 57.459, 84.604 50.508, 87.896 42.176, 93.425 41.024, 94.189 47.281, 90.152 48.246, 89.626 57.026, 84.840 57.459, 84.604 59.011, 83.970 61.377, 83.003 " />
            <path fill="none" stroke-width="3.0" stroke-linecap="butt" stroke-opacity="1.0" stroke="rgb(0, 0, 0)" stroke-linejoin="round" d=" M 47.281, 90.152 49.452, 89.274 49.722, 89.165 53.415, 87.672 55.749, 86.728 57.574, 86.187 67.162, 83.345 67.371, 83.283 77.323, 82.298 78.150, 82.216 80.459, 81.988 81.784, 81.955 87.690, 81.812 88.594, 81.853 89.367, 81.888 " />
            <path fill="none" stroke-width="3.0" stroke-linecap="butt" stroke-opacity="1.0" stroke="rgb(0, 0, 0)" stroke-linejoin="round" d=" M 179.308, 116.623 179.972, 118.248 182.100, 119.260 182.988, 119.683 183.322, 119.823 188.676, 122.075 196.830, 125.504 196.999, 125.391 197.894, 124.795 198.721, 124.244 199.033, 124.036 199.286, 122.933 199.867, 120.410 196.965, 115.856 192.330, 111.371 190.472, 109.573 184.948, 105.595 182.917, 104.133 178.373, 100.760 177.943, 100.441 176.703, 99.522 171.472, 96.436 168.172, 94.489 160.845, 91.427 159.104, 90.699 156.996, 89.818 147.451, 86.835 144.292, 85.848 134.679, 83.094 131.505, 82.184 121.647, 80.500 118.652, 79.988 109.242, 78.446 107.467, 78.156 " />
            <path fill="none" stroke-width="3.0" stroke-linecap="butt" stroke-opacity="1.0" stroke="rgb(0, 0, 0)" stroke-linejoin="round" d=" M 102.951, 82.960 107.700, 83.455 111.432, 83.845 111.897, 83.959 121.608, 86.345 128.073, 87.934 137.676, 90.722 141.479, 91.825 142.467, 92.112 151.795, 95.717 155.299, 97.072 164.459, 101.084 166.444, 101.953 174.809, 106.015 181.258, 109.615 184.907, 112.345 186.329, 113.410 187.345, 115.012 187.654, 115.500 188.216, 116.385 188.394, 117.629 188.582, 118.936 187.681, 119.506 187.187, 119.818 186.048, 120.539 " />
            <path fill="none" stroke-width="3.0" stroke-linecap="butt" stroke-opacity="1.0" stroke="rgb(0, 0, 0)" stroke-linejoin="round" d=" M 99.106, 79.703 99.322, 79.394 100.390, 77.867 102.900, 74.275 103.743, 71.380 104.008, 70.474 104.362, 69.257 104.595, 68.460 105.030, 66.967 105.239, 66.247 105.318, 65.976 105.854, 59.552 105.840, 57.225 105.834, 56.292 105.825, 54.900 105.824, 54.762 " />
            <path fill="none" stroke-width="3.0" stroke-linecap="butt" stroke-opacity="1.0" stroke="rgb(0, 0, 0)" stroke-linejoin="round" d=" M 76.872, 74.387 80.419, 76.727 82.961, 77.971 83.010, 77.995 84.068, 78.512 85.570, 79.247 93.085, 80.835 96.256, 80.239 99.106, 79.703 100.310, 81.143 101.897, 82.370 101.973, 82.429 103.426, 82.866 " />
            <path fill="none" stroke-width="3.0" stroke-linecap="butt" stroke-opacity="1.0" stroke="rgb(0, 0, 0)" stroke-linejoin="round" d=" M 54.219, 80.678 53.897, 79.314 " />
            <path fill="none" stroke-width="3.0" stroke-linecap="butt" stroke-opacity="1.0" stroke="rgb(0, 0, 0)" stroke-linejoin="round" d=" M 79.893, 77.202 77.628, 75.690 76.872, 74.387 72.528, 76.683 66.654, 79.092 61.562, 80.032 59.031, 80.500 53.897, 79.314 52.277, 74.126 " />
            <path fill="none" stroke-width="3.0" stroke-linecap="butt" stroke-opacity="1.0" stroke="rgb(0, 0, 0)" stroke-linejoin="round" d=" M 110.660, 62.071 110.905, 61.728 110.993, 61.603 111.215, 61.292 114.170, 57.146 114.507, 56.662 117.692, 52.104 118.845, 50.454 122.512, 44.804 122.907, 43.355 124.054, 39.143 124.105, 36.001 122.922, 33.766 119.443, 29.487 114.171, 27.025 111.238, 25.910 105.502, 24.779 103.088, 24.511 101.119, 24.293 " />
            <path fill="none" stroke-width="3.0" stroke-linecap="butt" stroke-opacity="1.0" stroke="rgb(0, 0, 0)" stroke-linejoin="round" d=" M 56.007, 55.883 53.323, 52.055 50.331, 46.971 48.910, 41.546 49.380, 36.023 53.732, 31.809 60.768, 28.274 66.458, 26.665 70.770, 25.781 73.361, 21.780 77.249, 16.588 83.326, 10.801 88.732, 8.113 93.344, 10.157 97.612, 15.397 99.831, 20.372 101.119, 24.293 " />
            <path fill="none" stroke-width="3.0" stroke-linecap="butt" stroke-opacity="1.0" stroke="rgb(0, 0, 0)" stroke-linejoin="round" d=" M 108.955, 57.824 107.778, 56.454 107.162, 55.737 105.869, 54.795 105.824, 54.762 105.916, 54.683 106.833, 53.889 110.349, 50.845 111.086, 50.083 115.800, 45.212 116.748, 43.731 119.636, 39.221 121.312, 33.224 117.908, 29.027 111.238, 25.910 " />
            <path fill="none" stroke-width="3.0" stroke-linecap="butt" stroke-opacity="1.0" stroke="rgb(0, 0, 0)" stroke-linejoin="round" d=" M 103.088, 24.511 102.159, 22.128 99.677, 17.286 98.253, 15.012 94.373, 10.258 89.672, 8.175 88.732, 8.113 " />
            <path fill="none" stroke-width="3.0" stroke-linecap="butt" stroke-opacity="1.0" stroke="rgb(0, 0, 0)" stroke-linejoin="round" d=" M 53.323, 52.055 56.100, 55.621 " />
            <path fill="none" stroke-width="3.0" stroke-linecap="butt" stroke-opacity="1.0" stroke="rgb(0, 0, 0)" stroke-linejoin="round" d=" M 191.353, 106.459 188.458, 96.887 186.318, 89.813 185.314, 88.740 184.106, 84.391 179.266, 75.641 178.000, 73.351 171.479, 65.770 170.360, 64.468 164.682, 59.012 156.739, 52.936 156.373, 52.657 149.156, 48.829 142.897, 46.628 138.168, 45.093 137.080, 44.740 130.634, 43.591 126.522, 43.410 124.282, 43.312 122.907, 43.355 " />
            <path fill="none" stroke-width="3.0" stroke-linecap="butt" stroke-opacity="1.0" stroke="rgb(0, 0, 0)" stroke-linejoin="round" d=" M 79.893, 77.202 81.550, 78.169 82.741, 78.864 82.794, 78.895 83.137, 79.095 84.531, 79.908 84.766, 80.045 87.465, 81.126 89.190, 81.817 89.367, 81.888 89.736, 82.036 90.785, 82.456 93.257, 82.986 97.838, 83.969 101.501, 83.246 102.951, 82.960 103.426, 82.866 103.683, 82.497 104.430, 81.429 106.737, 78.126 107.365, 77.227 107.383, 77.173 108.704, 73.241 108.707, 73.232 108.808, 72.932 108.829, 72.818 109.265, 70.529 109.496, 69.317 109.603, 68.758 110.225, 65.488 110.660, 62.071 110.750, 61.362 110.771, 61.195 110.850, 60.575 110.875, 60.381 " />
            <path fill="none" stroke-width="3.0" stroke-linecap="butt" stroke-opacity="1.0" stroke="rgb(0, 0, 0)" stroke-linejoin="round" d=" M 186.802, 103.535 183.032, 100.405 174.939, 96.773 166.763, 93.105 160.845, 91.427 " />
            <path fill="none" stroke-width="3.0" stroke-linecap="butt" stroke-opacity="1.0" stroke="rgb(0, 0, 0)" stroke-linejoin="round" d=" M 121.249, 69.452 119.700, 69.360 " />
            <path fill="none" stroke-width="3.0" stroke-linecap="butt" stroke-opacity="1.0" stroke="rgb(0, 0, 0)" stroke-linejoin="round" d=" M 121.249, 69.452 128.350, 70.565 133.764, 71.414 143.643, 72.963 145.007, 73.177 " />
            <path fill="none" stroke-width="3.0" stroke-linecap="butt" stroke-opacity="1.0" stroke="rgb(0, 0, 0)" stroke-linejoin="round" d=" M 138.168, 45.093 137.543, 44.257 134.207, 42.873 130.152, 42.421 126.986, 43.080 126.522, 43.410 " />
            <path fill="none" stroke-width="3.0" stroke-linecap="butt" stroke-opacity="1.0" stroke="rgb(0, 0, 0)" stroke-linejoin="round" d=" M 200.140, 141.628 200.740, 141.479 208.892, 136.797 209.757, 133.090 209.597, 126.299 205.770, 120.795 199.996, 113.682 192.323, 107.269 191.353, 106.459 190.448, 105.702 186.802, 103.535 185.020, 102.476 176.497, 98.676 171.472, 96.436 " />
            <path fill="none" stroke-width="3.0" stroke-linecap="butt" stroke-opacity="1.0" stroke="rgb(0, 0, 0)" stroke-linejoin="round" d=" M 199.286, 122.933 207.188, 129.063 208.668, 130.211 208.892, 136.797 " />
            <path fill="none" stroke-width="3.0" stroke-linecap="butt" stroke-opacity="1.0" stroke="rgb(0, 0, 0)" stroke-linejoin="round" d=" M 44.257, 93.301 43.577, 93.816 38.116, 97.893 32.054, 103.875 31.617, 107.534 " />
            <path fill="none" stroke-width="3.0" stroke-linecap="butt" stroke-opacity="1.0" stroke="rgb(0, 0, 0)" stroke-linejoin="round" d=" M 209.597, 126.299 201.809, 120.025 199.330, 118.028 " />
            <path fill="none" stroke-width="3.0" stroke-linecap="butt" stroke-opacity="1.0" stroke="rgb(0, 0, 0)" stroke-linejoin="round" d=" M 59.866, 82.650 59.011, 83.970 " />
            <path fill="none" stroke-width="3.0" stroke-linecap="butt" stroke-opacity="1.0" stroke="rgb(0, 0, 0)" stroke-linejoin="round" d=" M 107.248, 78.147 107.551, 77.127 108.704, 73.241 " />
            <path fill="none" stroke-width="3.0" stroke-linecap="butt" stroke-opacity="1.0" stroke="rgb(0, 0, 0)" stroke-linejoin="round" d=" M 108.707, 73.232 110.873, 73.150 " />
            <path fill="none" stroke-width="3.0" stroke-linecap="butt" stroke-opacity="1.0" stroke="rgb(0, 0, 0)" stroke-linejoin="round" d=" M 196.999, 125.391 201.560, 128.814 " />
        </g>
    </g>
</svg>
