<?xml version='1.0' encoding='ascii'?>
<svg xmlns="http://www.w3.org/2000/svg" version="1.1" width="250" height="250">
    <g id="ViewLayer_LineSet" xmlns:inkscape="http://www.inkscape.org/namespaces/inkscape" inkscape:groupmode="lineset" inkscape:label="ViewLayer_LineSet">
        <g xmlns:inkscape="http://www.inkscape.org/namespaces/inkscape" inkscape:groupmode="layer" id="strokes" inkscape:label="strokes">
            <path fill="none" stroke-width="3.0" stroke-linecap="butt" stroke-opacity="1.0" stroke="rgb(0, 0, 0)" stroke-linejoin="round" d=" M 166.840, 195.838 173.783, 188.641 174.464, 187.935 176.461, 185.100 177.551, 183.499 " />
            <path fill="none" stroke-width="3.0" stroke-linecap="butt" stroke-opacity="1.0" stroke="rgb(0, 0, 0)" stroke-linejoin="round" d=" M 59.645, 97.061 59.410, 97.357 57.973, 99.164 53.737, 106.284 49.927, 114.962 49.284, 117.042 48.351, 120.062 48.249, 120.390 47.258, 123.598 46.004, 129.737 45.914, 130.799 45.460, 136.099 45.235, 140.625 45.464, 146.259 45.943, 150.779 46.804, 155.397 47.652, 159.361 48.938, 163.676 48.981, 163.792 50.603, 168.148 52.572, 172.584 54.762, 176.794 57.078, 180.591 59.420, 183.801 60.643, 185.434 62.354, 187.716 " />
            <path fill="none" stroke-width="3.0" stroke-linecap="butt" stroke-opacity="1.0" stroke="rgb(0, 0, 0)" stroke-linejoin="round" d=" M 190.486, 127.302 188.884, 119.807 188.598, 119.067 " />
            <path fill="none" stroke-width="3.0" stroke-linecap="butt" stroke-opacity="1.0" stroke="rgb(0, 0, 0)" stroke-linejoin="round" d=" M 108.928, 213.288 112.861, 213.720 113.223, 213.760 117.733, 213.954 120.303, 213.901 122.258, 213.861 " />
            <path fill="none" stroke-width="3.0" stroke-linecap="butt" stroke-opacity="1.0" stroke="rgb(0, 0, 0)" stroke-linejoin="round" d=" M 77.110, 148.784 77.665, 150.184 79.029, 152.252 80.924, 153.909 82.785, 154.949 83.120, 155.136 85.163, 155.577 87.258, 155.503 89.633, 154.672 91.684, 153.340 93.233, 151.491 93.949, 150.173 " />
            <path fill="none" stroke-width="3.0" stroke-linecap="butt" stroke-opacity="1.0" stroke="rgb(0, 0, 0)" stroke-linejoin="round" d=" M 117.424, 99.465 117.863, 100.938 118.043, 101.542 118.496, 104.928 118.536, 108.748 118.552, 108.817 117.433, 117.226 117.275, 117.769 117.239, 117.892 116.206, 121.435 114.701, 125.723 112.945, 129.720 111.003, 133.231 108.942, 136.085 107.892, 137.107 107.512, 137.477 106.832, 138.138 104.746, 139.287 102.756, 139.472 101.443, 138.901 100.935, 138.681 99.357, 136.947 98.814, 135.834 98.565, 135.323 98.090, 134.350 97.196, 131.011 96.723, 127.090 96.701, 122.778 97.137, 118.279 97.988, 113.902 97.994, 113.871 98.033, 113.739 99.198, 109.712 100.719, 105.812 102.499, 102.314 104.468, 99.341 105.497, 98.182 " />
            <path fill="none" stroke-width="3.0" stroke-linecap="butt" stroke-opacity="1.0" stroke="rgb(0, 0, 0)" stroke-linejoin="round" d=" M 77.311, 117.230 77.247, 117.511 76.333, 121.521 75.249, 125.630 74.086, 129.311 74.072, 129.355 73.929, 129.713 72.810, 132.510 71.470, 134.936 70.066, 136.512 68.891, 137.045 68.627, 137.164 67.215, 137.163 65.839, 135.631 64.630, 133.533 63.654, 130.678 62.992, 127.213 62.935, 126.432 62.901, 125.964 62.708, 123.310 62.846, 119.158 63.100, 117.276 63.406, 115.014 64.272, 111.020 65.391, 107.180 66.716, 103.630 67.155, 102.699 67.402, 102.173 68.194, 100.493 69.768, 97.875 70.718, 96.686 " />
            <path fill="none" stroke-width="3.0" stroke-linecap="butt" stroke-opacity="1.0" stroke="rgb(0, 0, 0)" stroke-linejoin="round" d=" M 67.215, 137.163 70.421, 138.578 " />
            <path fill="none" stroke-width="3.0" stroke-linecap="butt" stroke-opacity="1.0" stroke="rgb(0, 0, 0)" stroke-linejoin="round" d=" M 77.808, 96.446 77.875, 96.563 78.528, 98.861 78.888, 101.767 78.997, 105.249 78.795, 107.699 78.769, 108.003 78.688, 108.984 " />
            <path fill="none" stroke-width="3.0" stroke-linecap="butt" stroke-opacity="1.0" stroke="rgb(0, 0, 0)" stroke-linejoin="round" d=" M 78.791, 118.173 77.311, 117.230 78.135, 113.030 78.688, 108.984 81.757, 111.056 " />
            <path fill="none" stroke-width="3.0" stroke-linecap="butt" stroke-opacity="1.0" stroke="rgb(0, 0, 0)" stroke-linejoin="round" d=" M 168.368, 202.721 173.026, 206.907 " />
            <path fill="none" stroke-width="3.0" stroke-linecap="butt" stroke-opacity="1.0" stroke="rgb(0, 0, 0)" stroke-linejoin="round" d=" M 158.428, 201.977 161.950, 202.834 166.924, 205.577 170.390, 208.746 " />
            <path fill="none" stroke-width="3.0" stroke-linecap="butt" stroke-opacity="1.0" stroke="rgb(0, 0, 0)" stroke-linejoin="round" d=" M 121.856, 224.146 123.095, 227.759 124.872, 230.295 128.669, 233.569 133.359, 235.978 139.004, 237.354 144.084, 237.948 149.738, 237.721 156.964, 236.584 162.957, 234.946 168.852, 232.549 172.403, 230.254 174.161, 227.773 178.039, 221.916 181.962, 212.718 182.782, 210.795 183.679, 208.708 186.445, 199.099 186.766, 197.983 186.929, 195.641 187.367, 187.360 " />
            <path fill="none" stroke-width="3.0" stroke-linecap="butt" stroke-opacity="1.0" stroke="rgb(0, 0, 0)" stroke-linejoin="round" d=" M 120.303, 213.901 120.097, 214.965 120.099, 218.195 120.596, 221.102 121.856, 224.146 122.152, 224.860 " />
            <path fill="none" stroke-width="3.0" stroke-linecap="butt" stroke-opacity="1.0" stroke="rgb(0, 0, 0)" stroke-linejoin="round" d=" M 60.643, 185.434 59.768, 185.931 54.447, 189.472 50.314, 193.457 46.748, 196.926 44.096, 201.526 42.580, 205.679 41.616, 208.127 40.782, 212.054 40.779, 215.685 41.582, 219.433 42.781, 222.421 45.457, 225.457 48.220, 227.668 52.915, 229.793 57.437, 230.959 62.469, 231.375 69.212, 231.313 73.064, 231.257 79.676, 229.916 82.857, 229.352 86.786, 228.113 93.586, 225.119 100.506, 221.518 106.436, 218.244 109.591, 216.200 112.662, 213.931 112.861, 213.720 " />
            <path fill="none" stroke-width="3.0" stroke-linecap="butt" stroke-opacity="1.0" stroke="rgb(0, 0, 0)" stroke-linejoin="round" d=" M 169.697, 178.090 174.885, 182.056 177.551, 183.499 179.278, 184.433 181.704, 185.480 185.800, 187.047 187.367, 187.360 190.036, 187.891 193.702, 187.858 196.464, 187.478 199.570, 186.862 202.433, 185.624 204.235, 184.728 206.712, 182.986 208.076, 181.724 210.480, 179.360 212.271, 176.545 213.183, 174.832 214.310, 171.938 214.778, 170.078 215.243, 167.723 215.438, 164.399 214.944, 160.386 214.790, 159.236 213.610, 154.884 211.714, 150.273 208.272, 144.650 204.535, 139.736 202.960, 137.834 202.591, 137.389 200.914, 135.363 197.086, 131.611 192.841, 128.590 190.486, 127.302 190.454, 127.284 184.138, 124.264 " />
            <path fill="none" stroke-width="3.0" stroke-linecap="butt" stroke-opacity="1.0" stroke="rgb(0, 0, 0)" stroke-linejoin="round" d=" M 45.914, 130.799 45.114, 132.060 43.390, 135.349 42.222, 138.512 41.145, 141.976 40.857, 144.624 40.699, 148.824 41.063, 150.839 42.185, 155.295 42.899, 156.615 44.951, 159.971 47.531, 162.727 48.981, 163.792 " />
            <path fill="none" stroke-width="3.0" stroke-linecap="butt" stroke-opacity="1.0" stroke="rgb(0, 0, 0)" stroke-linejoin="round" d=" M 119.012, 67.187 119.533, 66.786 119.686, 66.473 119.724, 66.397 121.386, 62.998 122.372, 60.416 122.353, 56.730 121.336, 54.047 119.430, 50.345 117.633, 49.039 " />
            <path fill="none" stroke-width="3.0" stroke-linecap="butt" stroke-opacity="1.0" stroke="rgb(0, 0, 0)" stroke-linejoin="round" d=" M 56.083, 52.496 55.987, 52.768 54.468, 57.057 52.827, 63.141 52.258, 70.983 52.548, 72.258 54.201, 77.534 56.691, 78.801 60.161, 79.597 61.839, 79.982 61.909, 79.990 65.725, 80.458 71.738, 79.392 77.305, 77.965 82.799, 75.767 82.865, 75.740 " />
            <path fill="none" stroke-width="3.0" stroke-linecap="butt" stroke-opacity="1.0" stroke="rgb(0, 0, 0)" stroke-linejoin="round" d=" M 33.795, 109.508 31.587, 104.888 32.768, 103.714 37.469, 99.037 41.968, 97.856 49.992, 95.749 53.169, 94.915 56.431, 94.789 58.987, 94.691 61.611, 94.589 71.603, 94.203 73.978, 94.111 75.682, 94.046 79.967, 93.880 89.938, 94.645 99.909, 95.411 107.812, 96.018 113.704, 96.470 116.206, 96.908 116.245, 96.915 126.095, 98.639 135.945, 100.363 145.795, 102.088 147.715, 102.424 157.371, 105.022 167.028, 107.621 176.684, 110.220 177.143, 110.343 178.211, 110.790 178.612, 110.958 183.119, 112.845 " />
            <path fill="none" stroke-width="3.0" stroke-linecap="butt" stroke-opacity="1.0" stroke="rgb(0, 0, 0)" stroke-linejoin="round" d=" M 202.591, 137.389 206.727, 134.910 206.362, 128.429 200.029, 123.516 197.964, 121.914 " />
            <path fill="none" stroke-width="3.0" stroke-linecap="butt" stroke-opacity="1.0" stroke="rgb(0, 0, 0)" stroke-linejoin="round" d=" M 44.961, 100.188 54.712, 97.970 58.542, 97.099 " />
            <path fill="none" stroke-width="3.0" stroke-linecap="butt" stroke-opacity="1.0" stroke="rgb(0, 0, 0)" stroke-linejoin="round" d=" M 38.837, 114.444 47.127, 119.926 48.249, 120.390 " />
            <path fill="none" stroke-width="3.0" stroke-linecap="butt" stroke-opacity="1.0" stroke="rgb(0, 0, 0)" stroke-linejoin="round" d=" M 55.968, 97.186 46.220, 99.420 45.695, 99.540 41.087, 100.597 39.798, 100.892 33.788, 106.528 34.544, 108.156 " />
            <path fill="none" stroke-width="3.0" stroke-linecap="butt" stroke-opacity="1.0" stroke="rgb(0, 0, 0)" stroke-linejoin="round" d=" M 55.968, 97.186 58.542, 97.099 59.088, 97.080 59.645, 97.061 60.950, 97.017 70.718, 96.686 76.591, 96.487 77.808, 96.446 79.006, 96.405 81.514, 96.320 91.484, 97.094 101.454, 97.868 105.497, 98.182 110.400, 98.563 113.458, 98.800 117.424, 99.465 117.929, 99.550 127.791, 101.204 137.654, 102.859 141.503, 103.504 146.784, 104.390 156.448, 106.961 166.112, 109.531 175.751, 112.095 179.352, 113.583 184.696, 115.790 " />
            <path fill="none" stroke-width="3.0" stroke-linecap="butt" stroke-opacity="1.0" stroke="rgb(0, 0, 0)" stroke-linejoin="round" d=" M 40.999, 91.426 36.194, 95.379 33.025, 98.621 31.212, 101.496 30.042, 104.556 30.035, 107.035 30.499, 109.217 34.829, 113.430 37.510, 114.907 38.837, 114.444 38.844, 114.442 40.773, 113.769 41.993, 112.936 43.630, 111.819 45.217, 106.728 " />
            <path fill="none" stroke-width="3.0" stroke-linecap="butt" stroke-opacity="1.0" stroke="rgb(0, 0, 0)" stroke-linejoin="round" d=" M 33.231, 110.810 30.499, 109.217 " />
            <path fill="none" stroke-width="3.0" stroke-linecap="butt" stroke-opacity="1.0" stroke="rgb(0, 0, 0)" stroke-linejoin="round" d=" M 43.630, 111.819 39.899, 109.386 " />
            <path fill="none" stroke-width="3.0" stroke-linecap="butt" stroke-opacity="1.0" stroke="rgb(0, 0, 0)" stroke-linejoin="round" d=" M 40.758, 107.105 39.899, 109.386 36.476, 110.349 " />
            <path fill="none" stroke-width="3.0" stroke-linecap="butt" stroke-opacity="1.0" stroke="rgb(0, 0, 0)" stroke-linejoin="round" d=" M 57.445, 81.847 50.490, 85.197 42.130, 90.684 40.999, 91.426 47.260, 87.324 48.849, 86.469 57.445, 81.847 59.164, 81.132 61.909, 79.990 " />
            <path fill="none" stroke-width="3.0" stroke-linecap="butt" stroke-opacity="1.0" stroke="rgb(0, 0, 0)" stroke-linejoin="round" d=" M 47.260, 87.324 49.882, 86.244 49.929, 86.225 52.916, 84.995 55.733, 83.834 57.818, 83.204 67.364, 80.318 77.311, 79.286 78.906, 79.120 80.461, 78.958 81.818, 78.921 87.698, 78.758 89.354, 78.828 89.835, 78.848 " />
            <path fill="none" stroke-width="3.0" stroke-linecap="butt" stroke-opacity="1.0" stroke="rgb(0, 0, 0)" stroke-linejoin="round" d=" M 179.352, 113.583 180.050, 115.290 182.948, 116.648 183.069, 116.705 184.255, 117.212 188.598, 119.067 196.919, 122.620 197.015, 122.556 197.964, 121.914 198.715, 121.408 199.123, 121.132 199.374, 120.039 199.959, 117.491 197.055, 112.921 192.331, 108.345 190.557, 106.626 182.997, 101.168 182.289, 100.641 179.093, 98.264 177.267, 96.905 176.779, 96.542 172.135, 93.794 168.241, 91.490 161.501, 88.667 157.410, 86.953 157.057, 86.805 147.512, 83.822 144.343, 82.831 134.729, 80.079 131.546, 79.168 121.688, 77.491 118.684, 76.981 109.275, 75.453 107.490, 75.163 " />
            <path fill="none" stroke-width="3.0" stroke-linecap="butt" stroke-opacity="1.0" stroke="rgb(0, 0, 0)" stroke-linejoin="round" d=" M 102.560, 79.827 107.758, 80.360 111.459, 80.739 112.746, 81.054 122.459, 83.430 128.113, 84.813 137.717, 87.597 142.519, 88.990 142.675, 89.050 152.001, 92.659 155.361, 93.960 164.517, 97.980 166.514, 98.856 174.886, 102.934 181.340, 106.554 184.742, 109.111 186.414, 110.368 187.546, 112.162 187.956, 112.811 188.302, 113.358 188.555, 115.133 188.668, 115.920 187.635, 116.581 187.233, 116.838 186.131, 117.543 " />
            <path fill="none" stroke-width="3.0" stroke-linecap="butt" stroke-opacity="1.0" stroke="rgb(0, 0, 0)" stroke-linejoin="round" d=" M 99.125, 76.390 100.177, 74.884 102.922, 70.957 103.542, 68.833 103.930, 67.503 104.268, 66.343 104.509, 65.517 104.946, 64.020 105.259, 62.950 105.342, 62.664 105.878, 56.248 105.866, 54.332 105.859, 53.287 105.850, 51.822 105.848, 51.467 " />
            <path fill="none" stroke-width="3.0" stroke-linecap="butt" stroke-opacity="1.0" stroke="rgb(0, 0, 0)" stroke-linejoin="round" d=" M 76.872, 71.158 80.422, 73.483 83.105, 74.783 83.619, 75.032 84.677, 75.545 85.577, 75.981 93.099, 77.540 99.125, 76.390 99.453, 76.785 100.330, 77.841 101.994, 79.164 102.759, 79.420 103.447, 79.650 " />
            <path fill="none" stroke-width="3.0" stroke-linecap="butt" stroke-opacity="1.0" stroke="rgb(0, 0, 0)" stroke-linejoin="round" d=" M 54.201, 77.534 53.879, 76.157 " />
            <path fill="none" stroke-width="3.0" stroke-linecap="butt" stroke-opacity="1.0" stroke="rgb(0, 0, 0)" stroke-linejoin="round" d=" M 79.896, 74.023 77.629, 72.475 76.872, 71.158 72.525, 73.466 66.645, 75.890 62.002, 76.762 59.017, 77.323 53.879, 76.157 52.258, 70.983 " />
            <path fill="none" stroke-width="3.0" stroke-linecap="butt" stroke-opacity="1.0" stroke="rgb(0, 0, 0)" stroke-linejoin="round" d=" M 110.678, 58.947 110.892, 58.646 110.916, 58.613 111.172, 58.253 114.199, 53.999 114.479, 53.595 117.633, 49.039 118.879, 47.240 122.549, 41.582 122.769, 40.774 124.092, 35.924 124.143, 32.736 122.960, 30.465 119.478, 26.205 114.201, 23.765 111.266, 22.644 105.525, 21.535 103.081, 21.273 101.139, 21.065 " />
            <path fill="none" stroke-width="3.0" stroke-linecap="butt" stroke-opacity="1.0" stroke="rgb(0, 0, 0)" stroke-linejoin="round" d=" M 55.987, 52.768 53.304, 48.945 50.311, 43.881 48.888, 38.470 49.359, 32.955 53.714, 28.733 60.755, 25.180 66.450, 23.554 70.766, 22.656 73.358, 18.653 77.249, 13.457 83.331, 7.659 88.742, 4.956 93.357, 6.981 97.628, 12.197 99.849, 17.156 101.139, 21.065 " />
            <path fill="none" stroke-width="3.0" stroke-linecap="butt" stroke-opacity="1.0" stroke="rgb(0, 0, 0)" stroke-linejoin="round" d=" M 108.981, 54.582 107.582, 52.923 107.187, 52.455 105.963, 51.552 105.848, 51.467 106.086, 51.260 106.735, 50.697 110.377, 47.540 110.839, 47.062 115.832, 41.898 116.309, 41.153 119.672, 35.903 121.348, 29.910 117.942, 25.733 111.266, 22.644 " />
            <path fill="none" stroke-width="3.0" stroke-linecap="butt" stroke-opacity="1.0" stroke="rgb(0, 0, 0)" stroke-linejoin="round" d=" M 103.081, 21.273 102.178, 18.965 99.694, 14.136 98.270, 11.828 94.387, 7.096 89.682, 5.033 88.742, 4.956 " />
            <path fill="none" stroke-width="3.0" stroke-linecap="butt" stroke-opacity="1.0" stroke="rgb(0, 0, 0)" stroke-linejoin="round" d=" M 53.304, 48.945 56.083, 52.496 " />
            <path fill="none" stroke-width="3.0" stroke-linecap="butt" stroke-opacity="1.0" stroke="rgb(0, 0, 0)" stroke-linejoin="round" d=" M 191.357, 103.562 188.454, 93.992 186.391, 87.190 185.386, 86.121 184.177, 81.779 179.325, 73.035 178.066, 70.767 171.530, 63.198 170.420, 61.913 164.740, 56.379 156.769, 50.339 156.424, 50.078 149.203, 46.206 142.939, 44.076 138.095, 42.491 137.119, 42.171 130.669, 41.018 126.693, 40.850 124.312, 40.749 122.769, 40.774 " />
            <path fill="none" stroke-width="3.0" stroke-linecap="butt" stroke-opacity="1.0" stroke="rgb(0, 0, 0)" stroke-linejoin="round" d=" M 79.896, 74.023 81.912, 75.190 82.816, 75.712 82.865, 75.740 83.619, 76.176 84.620, 76.755 84.772, 76.843 88.098, 78.160 89.723, 78.804 89.835, 78.848 90.653, 79.172 90.796, 79.228 92.247, 79.566 94.292, 80.006 97.854, 80.771 100.517, 80.237 102.560, 79.827 103.447, 79.650 103.569, 79.476 104.291, 78.442 106.608, 75.130 106.855, 74.776 107.390, 74.011 108.659, 70.240 108.833, 69.721 109.175, 67.933 109.470, 66.387 109.580, 65.810 110.252, 62.291 110.678, 58.947 110.742, 58.444 110.776, 58.184 110.849, 57.610 110.902, 57.191 " />
            <path fill="none" stroke-width="3.0" stroke-linecap="butt" stroke-opacity="1.0" stroke="rgb(0, 0, 0)" stroke-linejoin="round" d=" M 186.530, 100.505 183.107, 97.610 174.710, 93.784 166.829, 90.194 161.501, 88.667 " />
            <path fill="none" stroke-width="3.0" stroke-linecap="butt" stroke-opacity="1.0" stroke="rgb(0, 0, 0)" stroke-linejoin="round" d=" M 121.282, 66.487 119.724, 66.397 " />
            <path fill="none" stroke-width="3.0" stroke-linecap="butt" stroke-opacity="1.0" stroke="rgb(0, 0, 0)" stroke-linejoin="round" d=" M 121.282, 66.487 131.159, 68.046 141.037, 69.606 145.057, 70.241 " />
            <path fill="none" stroke-width="3.0" stroke-linecap="butt" stroke-opacity="1.0" stroke="rgb(0, 0, 0)" stroke-linejoin="round" d=" M 138.095, 42.491 137.580, 41.793 134.243, 40.395 130.184, 39.946 127.017, 40.621 126.693, 40.850 " />
            <path fill="none" stroke-width="3.0" stroke-linecap="butt" stroke-opacity="1.0" stroke="rgb(0, 0, 0)" stroke-linejoin="round" d=" M 202.960, 137.834 208.977, 134.261 209.844, 130.554 209.689, 123.578 205.859, 118.090 200.080, 110.998 192.470, 104.511 191.357, 103.562 190.530, 102.857 186.530, 100.505 185.097, 99.663 176.241, 95.654 172.135, 93.794 " />
            <path fill="none" stroke-width="3.0" stroke-linecap="butt" stroke-opacity="1.0" stroke="rgb(0, 0, 0)" stroke-linejoin="round" d=" M 199.374, 120.039 207.207, 126.256 208.759, 127.488 208.977, 134.261 " />
            <path fill="none" stroke-width="3.0" stroke-linecap="butt" stroke-opacity="1.0" stroke="rgb(0, 0, 0)" stroke-linejoin="round" d=" M 44.568, 90.247 43.553, 91.012 38.088, 95.066 32.024, 101.236 31.587, 104.888 " />
            <path fill="none" stroke-width="3.0" stroke-linecap="butt" stroke-opacity="1.0" stroke="rgb(0, 0, 0)" stroke-linejoin="round" d=" M 209.689, 123.578 201.970, 117.220 199.421, 115.121 " />
            <path fill="none" stroke-width="3.0" stroke-linecap="butt" stroke-opacity="1.0" stroke="rgb(0, 0, 0)" stroke-linejoin="round" d=" M 60.161, 79.597 59.164, 81.132 " />
            <path fill="none" stroke-width="3.0" stroke-linecap="butt" stroke-opacity="1.0" stroke="rgb(0, 0, 0)" stroke-linejoin="round" d=" M 107.269, 75.155 107.429, 74.621 108.735, 70.238 " />
            <path fill="none" stroke-width="3.0" stroke-linecap="butt" stroke-opacity="1.0" stroke="rgb(0, 0, 0)" stroke-linejoin="round" d=" M 108.659, 70.240 108.735, 70.238 110.903, 70.192 " />
            <path fill="none" stroke-width="3.0" stroke-linecap="butt" stroke-opacity="1.0" stroke="rgb(0, 0, 0)" stroke-linejoin="round" d=" M 197.015, 122.556 201.646, 126.110 " />
        </g>
    </g>
</svg>
