<?xml version='1.0' encoding='ascii'?>
<svg xmlns="http://www.w3.org/2000/svg" version="1.1" width="250" height="250">
    <g id="ViewLayer_LineSet" xmlns:inkscape="http://www.inkscape.org/namespaces/inkscape" inkscape:groupmode="lineset" inkscape:label="ViewLayer_LineSet">
        <g xmlns:inkscape="http://www.inkscape.org/namespaces/inkscape" inkscape:groupmode="layer" id="strokes" inkscape:label="strokes">
            <path fill="none" stroke-width="3.0" stroke-linecap="butt" stroke-opacity="1.0" stroke="rgb(0, 0, 0)" stroke-linejoin="round" d=" M 56.457, 157.203 58.196, 164.073 60.588, 169.574 62.639, 174.292 64.001, 177.149 65.765, 179.865 " />
            <path fill="none" stroke-width="3.0" stroke-linecap="butt" stroke-opacity="1.0" stroke="rgb(0, 0, 0)" stroke-linejoin="round" d=" M 122.485, 213.686 124.848, 213.818 129.301, 213.785 132.018, 213.588 132.220, 213.573 132.223, 213.573 133.593, 213.473 137.532, 212.899 143.568, 211.549 148.637, 210.351 152.674, 208.876 161.247, 204.843 164.843, 202.717 172.952, 196.866 173.378, 196.559 180.346, 189.386 180.880, 188.836 181.218, 188.419 183.136, 186.052 188.352, 178.462 " />
            <path fill="none" stroke-width="3.0" stroke-linecap="butt" stroke-opacity="1.0" stroke="rgb(0, 0, 0)" stroke-linejoin="round" d=" M 70.841, 176.485 68.112, 178.156 66.496, 179.332 65.765, 179.865 63.355, 181.626 60.376, 185.409 57.869, 189.790 55.938, 193.848 55.182, 197.938 55.108, 203.200 55.224, 206.788 56.328, 210.404 58.716, 216.147 62.639, 221.616 64.957, 224.906 66.924, 226.958 70.123, 229.064 74.879, 230.579 79.928, 231.506 86.718, 232.408 92.085, 232.806 97.091, 232.883 103.221, 232.533 108.533, 231.713 112.343, 230.330 115.098, 228.349 120.381, 221.808 121.698, 218.768 122.306, 215.718 122.485, 213.686 " />
            <path fill="none" stroke-width="3.0" stroke-linecap="butt" stroke-opacity="1.0" stroke="rgb(0, 0, 0)" stroke-linejoin="round" d=" M 133.776, 215.324 135.396, 216.550 137.364, 217.383 " />
            <path fill="none" stroke-width="3.0" stroke-linecap="butt" stroke-opacity="1.0" stroke="rgb(0, 0, 0)" stroke-linejoin="round" d=" M 132.018, 213.588 133.776, 215.324 137.364, 217.383 138.098, 217.804 143.582, 219.398 143.762, 219.441 149.779, 220.206 154.795, 220.406 160.012, 220.421 165.755, 220.002 166.563, 219.943 " />
            <path fill="none" stroke-width="3.0" stroke-linecap="butt" stroke-opacity="1.0" stroke="rgb(0, 0, 0)" stroke-linejoin="round" d=" M 176.035, 216.717 178.425, 214.871 181.543, 211.604 183.145, 208.612 184.427, 205.747 185.038, 202.733 184.970, 198.935 184.090, 194.824 183.078, 191.973 181.218, 188.419 " />
            <path fill="none" stroke-width="3.0" stroke-linecap="butt" stroke-opacity="1.0" stroke="rgb(0, 0, 0)" stroke-linejoin="round" d=" M 165.755, 220.002 166.514, 219.966 171.541, 218.731 173.456, 217.873 176.035, 216.717 174.013, 217.667 173.456, 217.873 " />
            <path fill="none" stroke-width="3.0" stroke-linecap="butt" stroke-opacity="1.0" stroke="rgb(0, 0, 0)" stroke-linejoin="round" d=" M 39.558, 140.558 39.249, 141.302 38.218, 144.167 37.664, 146.788 37.253, 149.399 37.447, 151.637 37.912, 155.233 39.266, 159.105 39.778, 159.908 41.925, 163.097 44.321, 165.489 46.164, 166.878 46.974, 167.315 49.180, 168.483 52.243, 169.344 54.587, 169.839 57.078, 169.734 60.588, 169.574 " />
            <path fill="none" stroke-width="3.0" stroke-linecap="butt" stroke-opacity="1.0" stroke="rgb(0, 0, 0)" stroke-linejoin="round" d=" M 187.730, 178.044 188.352, 178.462 189.107, 178.971 193.331, 181.138 197.383, 182.621 201.555, 183.435 205.176, 183.435 208.486, 182.917 210.154, 182.544 213.117, 181.450 215.765, 179.847 216.974, 178.981 219.337, 176.979 221.367, 174.387 222.135, 173.126 223.595, 170.337 224.503, 167.666 225.053, 164.677 225.165, 161.253 224.583, 157.250 223.360, 153.215 221.453, 148.922 221.072, 148.125 217.467, 142.604 215.146, 139.667 " />
            <path fill="none" stroke-width="3.0" stroke-linecap="butt" stroke-opacity="1.0" stroke="rgb(0, 0, 0)" stroke-linejoin="round" d=" M 157.221, 49.110 155.378, 47.085 151.213, 45.064 149.508, 44.482 146.368, 43.673 145.059, 43.401 141.930, 42.806 139.827, 38.726 137.576, 35.154 133.854, 31.169 129.751, 29.214 125.637, 31.107 121.895, 35.031 120.070, 37.868 " />
            <path fill="none" stroke-width="3.0" stroke-linecap="butt" stroke-opacity="1.0" stroke="rgb(0, 0, 0)" stroke-linejoin="round" d=" M 116.434, 41.984 114.407, 42.219 109.214, 43.406 105.569, 44.963 96.395, 48.943 94.110, 49.934 86.044, 55.844 83.905, 57.411 79.709, 61.522 72.907, 68.852 70.839, 71.080 65.600, 79.598 63.878, 82.398 62.451, 86.727 61.388, 87.761 58.051, 97.188 57.149, 99.738 56.461, 101.680 55.442, 104.557 55.223, 106.828 55.107, 108.026 54.983, 109.310 54.864, 110.544 54.760, 111.621 54.660, 112.655 54.600, 113.272 54.570, 113.579 54.564, 113.643 58.294, 118.695 59.848, 120.801 61.333, 122.812 70.092, 127.636 76.046, 130.914 85.707, 133.495 90.186, 134.691 97.644, 136.683 107.601, 137.599 117.559, 138.516 123.500, 139.063 133.484, 138.500 143.468, 137.937 149.838, 137.578 159.603, 135.423 167.634, 133.651 172.740, 132.525 181.806, 128.305 189.232, 124.850 190.809, 123.200 194.620, 119.215 197.877, 115.808 198.072, 113.598 198.094, 113.358 198.100, 113.292 198.141, 112.822 198.235, 111.766 198.247, 111.631 198.384, 110.073 198.397, 109.928 198.397, 109.926 198.442, 109.425 198.593, 107.714 198.692, 106.602 198.383, 105.731 196.708, 101.009 196.440, 100.254 193.098, 90.829 192.603, 89.431 191.370, 87.917 " />
            <path fill="none" stroke-width="3.0" stroke-linecap="butt" stroke-opacity="1.0" stroke="rgb(0, 0, 0)" stroke-linejoin="round" d=" M 191.516, 88.357 191.370, 87.917 190.057, 83.942 184.834, 75.414 182.948, 72.335 178.781, 66.968 171.965, 59.651 170.682, 58.274 162.604, 52.378 160.090, 50.544 157.221, 49.110 156.187, 48.593 154.876, 47.938 145.684, 44.001 145.016, 43.715 141.918, 42.905 141.768, 42.865 141.684, 42.843 141.651, 42.835 140.137, 42.439 136.979, 42.006 " />
            <path fill="none" stroke-width="3.0" stroke-linecap="butt" stroke-opacity="1.0" stroke="rgb(0, 0, 0)" stroke-linejoin="round" d=" M 129.751, 29.214 129.659, 30.243 129.544, 32.608 " />
            <path fill="none" stroke-width="3.0" stroke-linecap="butt" stroke-opacity="1.0" stroke="rgb(0, 0, 0)" stroke-linejoin="round" d=" M 141.930, 42.806 141.918, 42.905 " />
            <path fill="none" stroke-width="3.0" stroke-linecap="butt" stroke-opacity="1.0" stroke="rgb(0, 0, 0)" stroke-linejoin="round" d=" M 169.178, 109.848 159.329, 111.581 149.486, 113.313 149.308, 113.344 148.052, 113.566 138.063, 114.038 136.379, 114.117 135.831, 114.143 125.842, 114.615 123.736, 114.715 120.846, 114.488 120.090, 114.429 110.120, 113.648 107.331, 113.429 107.077, 113.409 99.870, 112.844 " />
            <path fill="none" stroke-width="3.0" stroke-linecap="butt" stroke-opacity="1.0" stroke="rgb(0, 0, 0)" stroke-linejoin="round" d=" M 137.671, 43.366 137.587, 45.198 133.217, 46.685 126.182, 47.215 119.324, 46.561 115.401, 45.003 115.836, 43.178 " />
            <path fill="none" stroke-width="3.0" stroke-linecap="butt" stroke-opacity="1.0" stroke="rgb(0, 0, 0)" stroke-linejoin="round" d=" M 137.671, 43.366 136.979, 42.006 136.532, 41.128 133.848, 38.139 131.214, 37.215 126.885, 36.839 126.615, 36.846 122.457, 37.144 120.477, 37.744 120.070, 37.868 119.560, 38.023 116.945, 40.963 116.434, 41.984 115.993, 42.864 115.966, 42.917 115.836, 43.178 " />
            <path fill="none" stroke-width="3.0" stroke-linecap="butt" stroke-opacity="1.0" stroke="rgb(0, 0, 0)" stroke-linejoin="round" d=" M 57.149, 99.738 56.095, 100.302 49.298, 107.637 47.388, 109.699 41.940, 115.696 38.434, 120.226 36.681, 130.071 36.223, 132.646 37.109, 136.280 39.558, 140.558 44.526, 149.236 44.628, 149.415 52.981, 154.914 56.457, 157.203 62.703, 161.315 72.245, 164.305 73.115, 164.577 82.658, 167.567 90.304, 169.963 100.242, 171.069 110.181, 172.175 120.119, 173.281 122.545, 173.551 132.522, 172.862 142.498, 172.174 152.474, 171.486 155.469, 171.279 165.153, 168.784 174.079, 166.484 183.762, 163.988 184.911, 163.692 193.666, 158.860 196.893, 157.079 205.419, 152.373 211.498, 144.432 215.146, 139.667 215.390, 139.347 216.314, 135.685 216.219, 125.686 216.194, 123.022 210.221, 115.002 207.764, 111.703 204.483, 107.542 199.764, 102.296 196.440, 100.254 " />
        </g>
    </g>
</svg>
