<?xml version='1.0' encoding='ascii'?>
<svg xmlns="http://www.w3.org/2000/svg" version="1.1" width="250" height="250">
    <g id="ViewLayer_LineSet" xmlns:inkscape="http://www.inkscape.org/namespaces/inkscape" inkscape:groupmode="lineset" inkscape:label="ViewLayer_LineSet">
        <g xmlns:inkscape="http://www.inkscape.org/namespaces/inkscape" inkscape:groupmode="layer" id="strokes" inkscape:label="strokes">
            <path fill="none" stroke-width="3.0" stroke-linecap="butt" stroke-opacity="1.0" stroke="rgb(0, 0, 0)" stroke-linejoin="round" d=" M 143.740, 210.491 145.100, 209.945 153.856, 205.784 154.429, 205.407 157.225, 203.566 165.304, 197.673 165.849, 197.276 172.178, 190.720 " />
            <path fill="none" stroke-width="3.0" stroke-linecap="butt" stroke-opacity="1.0" stroke="rgb(0, 0, 0)" stroke-linejoin="round" d=" M 45.497, 134.752 45.448, 135.054 45.049, 143.333 45.412, 148.283 45.701, 152.211 46.389, 156.502 47.457, 161.106 48.848, 165.758 50.480, 170.189 52.259, 174.144 54.189, 177.630 56.602, 181.952 60.113, 186.720 63.083, 190.521 " />
            <path fill="none" stroke-width="3.0" stroke-linecap="butt" stroke-opacity="1.0" stroke="rgb(0, 0, 0)" stroke-linejoin="round" d=" M 48.955, 144.352 49.079, 145.313 49.117, 145.576 49.246, 146.471 49.661, 148.074 49.751, 148.393 50.450, 149.881 51.236, 151.016 51.746, 151.606 " />
            <path fill="none" stroke-width="3.0" stroke-linecap="butt" stroke-opacity="1.0" stroke="rgb(0, 0, 0)" stroke-linejoin="round" d=" M 51.746, 151.606 52.601, 152.154 53.540, 152.235 54.671, 151.638 55.633, 150.548 56.397, 148.939 56.678, 148.115 " />
            <path fill="none" stroke-width="3.0" stroke-linecap="butt" stroke-opacity="1.0" stroke="rgb(0, 0, 0)" stroke-linejoin="round" d=" M 56.634, 147.253 56.766, 147.698 56.678, 148.115 56.626, 148.362 " />
            <path fill="none" stroke-width="3.0" stroke-linecap="butt" stroke-opacity="1.0" stroke="rgb(0, 0, 0)" stroke-linejoin="round" d=" M 77.011, 103.649 76.523, 106.362 75.564, 110.013 75.612, 110.081 74.639, 112.862 73.600, 115.832 73.372, 116.483 72.821, 118.057 72.191, 119.346 70.895, 121.999 69.027, 125.993 67.196, 129.682 65.445, 132.889 63.803, 135.456 63.412, 135.922 62.289, 137.257 60.921, 138.204 59.720, 138.252 58.718, 137.400 57.959, 135.688 57.496, 133.198 57.389, 130.224 57.383, 130.048 57.668, 126.386 58.383, 122.384 59.532, 118.227 61.063, 114.164 61.531, 113.144 61.820, 112.513 61.846, 112.457 62.015, 112.088 62.294, 111.480 62.822, 110.330 62.896, 110.191 63.751, 108.588 64.492, 107.200 64.743, 106.731 64.947, 106.403 66.754, 103.497 68.189, 101.542 " />
            <path fill="none" stroke-width="3.0" stroke-linecap="butt" stroke-opacity="1.0" stroke="rgb(0, 0, 0)" stroke-linejoin="round" d=" M 50.513, 116.580 49.086, 120.439 47.839, 124.122 47.246, 125.991 46.785, 127.447 45.915, 130.247 45.210, 132.381 44.648, 133.743 44.215, 134.268 43.881, 134.206 43.761, 132.772 43.791, 130.841 44.047, 128.247 44.570, 125.122 45.389, 121.623 46.512, 117.914 47.898, 114.220 49.388, 110.658 50.913, 107.228 50.922, 107.209 50.951, 107.149 51.203, 106.615 51.369, 106.263 52.415, 104.051 53.834, 101.236 55.058, 98.988 " />
            <path fill="none" stroke-width="3.0" stroke-linecap="butt" stroke-opacity="1.0" stroke="rgb(0, 0, 0)" stroke-linejoin="round" d=" M 44.215, 134.268 45.023, 134.573 45.497, 134.752 49.172, 136.140 " />
            <path fill="none" stroke-width="3.0" stroke-linecap="butt" stroke-opacity="1.0" stroke="rgb(0, 0, 0)" stroke-linejoin="round" d=" M 43.881, 134.206 45.023, 134.573 " />
            <path fill="none" stroke-width="3.0" stroke-linecap="butt" stroke-opacity="1.0" stroke="rgb(0, 0, 0)" stroke-linejoin="round" d=" M 57.075, 99.316 56.901, 99.885 55.987, 102.546 54.895, 105.727 54.317, 107.140 54.175, 107.486 54.021, 107.862 53.775, 108.464 53.505, 109.124 " />
            <path fill="none" stroke-width="3.0" stroke-linecap="butt" stroke-opacity="1.0" stroke="rgb(0, 0, 0)" stroke-linejoin="round" d=" M 52.275, 117.296 50.513, 116.580 52.041, 112.791 53.181, 109.935 53.505, 109.124 55.373, 109.906 " />
            <path fill="none" stroke-width="3.0" stroke-linecap="butt" stroke-opacity="1.0" stroke="rgb(0, 0, 0)" stroke-linejoin="round" d=" M 131.940, 243.220 135.305, 242.802 140.651, 240.093 144.080, 236.782 146.247, 233.197 147.660, 227.932 147.934, 222.398 146.516, 215.558 146.109, 214.814 143.740, 210.491 141.890, 207.114 " />
            <path fill="none" stroke-width="3.0" stroke-linecap="butt" stroke-opacity="1.0" stroke="rgb(0, 0, 0)" stroke-linejoin="round" d=" M 78.940, 188.133 71.791, 188.343 65.742, 189.329 63.083, 190.521 59.838, 191.976 58.756, 192.778 55.044, 196.003 52.093, 199.467 50.353, 203.288 49.344, 207.592 49.447, 208.913 50.408, 214.027 54.265, 218.077 57.100, 220.306 63.204, 224.579 66.424, 226.662 70.548, 228.800 76.474, 231.306 81.250, 232.992 89.533, 235.354 99.239, 237.758 103.069, 238.706 112.835, 240.859 115.575, 241.463 124.726, 243.133 130.604, 243.497 131.940, 243.220 134.383, 242.715 " />
            <path fill="none" stroke-width="3.0" stroke-linecap="butt" stroke-opacity="1.0" stroke="rgb(0, 0, 0)" stroke-linejoin="round" d=" M 160.507, 184.845 166.666, 188.575 166.967, 188.696 171.625, 190.572 172.178, 190.720 176.318, 191.823 181.070, 192.317 185.119, 191.969 188.800, 191.082 192.086, 189.620 193.386, 188.931 196.312, 186.938 198.911, 184.510 201.038, 181.528 201.636, 180.494 203.240, 177.268 204.301, 173.761 204.751, 169.967 204.628, 165.876 203.582, 161.196 201.790, 156.653 199.218, 151.926 198.553, 151.069 198.341, 150.796 194.771, 146.195 190.454, 141.544 190.195, 141.265 189.316, 140.408 " />
            <path fill="none" stroke-width="3.0" stroke-linecap="butt" stroke-opacity="1.0" stroke="rgb(0, 0, 0)" stroke-linejoin="round" d=" M 146.109, 214.814 152.723, 207.382 154.429, 205.407 " />
            <path fill="none" stroke-width="3.0" stroke-linecap="butt" stroke-opacity="1.0" stroke="rgb(0, 0, 0)" stroke-linejoin="round" d=" M 88.353, 69.230 90.977, 66.035 90.688, 57.582 88.454, 55.082 85.267, 51.515 83.348, 50.937 77.133, 50.857 75.247, 50.832 74.934, 51.201 74.840, 51.310 74.259, 51.993 " />
            <path fill="none" stroke-width="3.0" stroke-linecap="butt" stroke-opacity="1.0" stroke="rgb(0, 0, 0)" stroke-linejoin="round" d=" M 37.065, 74.553 37.934, 76.622 39.412, 78.852 41.744, 80.617 43.584, 81.571 43.974, 81.695 47.302, 82.756 49.225, 82.926 52.252, 83.193 57.174, 81.421 59.934, 80.427 60.979, 78.967 63.480, 75.473 64.719, 73.524 66.386, 70.901 66.493, 70.733 66.648, 70.319 66.963, 69.479 67.079, 69.169 67.483, 68.092 67.601, 67.777 67.644, 67.662 67.815, 67.206 68.782, 64.624 69.155, 63.629 69.854, 62.069 70.958, 59.606 71.212, 59.040 71.919, 57.492 72.977, 55.179 73.055, 55.008 73.476, 54.087 73.495, 54.036 74.132, 52.333 74.259, 51.993 74.565, 51.173 74.659, 50.923 75.347, 49.080 75.398, 48.945 76.530, 44.216 76.361, 40.877 74.277, 36.456 72.926, 34.710 72.306, 34.150 69.165, 31.311 65.587, 29.098 63.208, 28.054 60.874, 27.565 59.080, 27.392 " />
            <path fill="none" stroke-width="3.0" stroke-linecap="butt" stroke-opacity="1.0" stroke="rgb(0, 0, 0)" stroke-linejoin="round" d=" M 30.308, 65.750 29.575, 67.734 27.587, 74.673 27.031, 79.224 28.113, 80.437 29.840, 81.471 33.510, 82.576 38.878, 82.994 43.974, 81.695 " />
            <path fill="none" stroke-width="3.0" stroke-linecap="butt" stroke-opacity="1.0" stroke="rgb(0, 0, 0)" stroke-linejoin="round" d=" M 72.958, 74.607 70.602, 74.660 70.238, 74.335 69.438, 73.622 69.218, 73.426 67.621, 72.003 67.246, 71.668 66.386, 70.901 " />
            <path fill="none" stroke-width="3.0" stroke-linecap="butt" stroke-opacity="1.0" stroke="rgb(0, 0, 0)" stroke-linejoin="round" d=" M 50.922, 107.209 48.561, 106.170 39.883, 101.202 39.715, 101.105 37.662, 99.420 35.227, 95.860 42.713, 95.165 46.173, 95.709 46.206, 95.714 46.425, 95.748 56.089, 97.267 57.607, 97.505 59.621, 97.822 60.418, 97.947 60.750, 97.999 61.636, 98.213 62.685, 98.465 69.378, 100.074 76.190, 101.713 77.187, 101.952 82.982, 103.346 87.826, 104.511 97.443, 107.252 107.060, 109.993 116.678, 112.733 119.981, 113.675 129.489, 116.775 130.637, 117.150 131.140, 117.314 " />
            <path fill="none" stroke-width="3.0" stroke-linecap="butt" stroke-opacity="1.0" stroke="rgb(0, 0, 0)" stroke-linejoin="round" d=" M 203.340, 151.230 204.618, 148.910 196.685, 143.690 190.421, 140.900 189.316, 140.408 180.181, 136.340 178.785, 135.719 169.411, 132.236 160.037, 128.754 154.996, 126.882 154.212, 126.590 " />
            <path fill="none" stroke-width="3.0" stroke-linecap="butt" stroke-opacity="1.0" stroke="rgb(0, 0, 0)" stroke-linejoin="round" d=" M 43.488, 97.583 45.562, 97.444 " />
            <path fill="none" stroke-width="3.0" stroke-linecap="butt" stroke-opacity="1.0" stroke="rgb(0, 0, 0)" stroke-linejoin="round" d=" M 38.119, 97.933 39.715, 101.105 " />
            <path fill="none" stroke-width="3.0" stroke-linecap="butt" stroke-opacity="1.0" stroke="rgb(0, 0, 0)" stroke-linejoin="round" d=" M 45.482, 97.431 45.562, 97.444 46.721, 97.633 46.900, 97.662 55.058, 98.988 57.075, 99.316 59.162, 99.655 59.601, 99.727 60.034, 99.797 60.512, 99.875 62.297, 100.165 62.689, 100.229 68.189, 101.542 74.894, 103.144 77.011, 103.649 82.693, 105.006 88.797, 106.464 98.413, 109.209 108.029, 111.954 117.645, 114.700 120.353, 115.473 129.862, 118.568 132.080, 119.290 " />
            <path fill="none" stroke-width="3.0" stroke-linecap="butt" stroke-opacity="1.0" stroke="rgb(0, 0, 0)" stroke-linejoin="round" d=" M 69.854, 62.069 69.955, 64.541 70.043, 66.725 70.448, 67.154 70.675, 67.394 70.953, 67.690 72.114, 68.921 72.344, 69.165 72.529, 69.361 72.625, 69.463 73.068, 69.934 73.170, 70.042 73.271, 70.149 73.325, 70.206 73.367, 70.251 73.455, 70.344 73.698, 70.602 74.792, 71.762 76.116, 73.167 78.307, 73.119 82.743, 73.023 " />
            <path fill="none" stroke-width="3.0" stroke-linecap="butt" stroke-opacity="1.0" stroke="rgb(0, 0, 0)" stroke-linejoin="round" d=" M 57.174, 81.421 59.964, 81.631 61.203, 81.837 61.248, 81.845 61.455, 81.879 68.042, 82.975 69.036, 83.140 70.499, 83.682 71.592, 84.087 73.552, 84.814 74.517, 85.171 79.573, 87.045 88.858, 90.760 89.975, 91.208 98.970, 95.577 100.490, 96.315 109.343, 100.966 110.360, 101.500 118.321, 105.925 125.195, 109.921 130.956, 114.147 131.178, 114.422 133.591, 117.410 134.604, 120.112 134.621, 120.157 133.986, 121.790 " />
            <path fill="none" stroke-width="3.0" stroke-linecap="butt" stroke-opacity="1.0" stroke="rgb(0, 0, 0)" stroke-linejoin="round" d=" M 75.252, 77.824 69.149, 77.500 68.028, 77.602 " />
            <path fill="none" stroke-width="3.0" stroke-linecap="butt" stroke-opacity="1.0" stroke="rgb(0, 0, 0)" stroke-linejoin="round" d=" M 132.080, 119.290 133.090, 120.801 133.986, 121.790 143.514, 124.828 152.390, 127.658 153.931, 128.149 154.147, 126.971 154.212, 126.617 154.212, 126.590 154.176, 124.876 154.131, 122.695 153.049, 121.203 152.907, 121.007 151.535, 119.115 150.744, 118.025 150.422, 117.581 149.705, 116.783 149.629, 116.698 144.104, 110.550 136.295, 104.498 129.964, 99.480 121.489, 94.084 113.653, 90.300 111.341, 89.184 103.159, 85.959 101.106, 85.150 91.737, 81.653 91.480, 81.557 88.362, 80.829 82.695, 79.505 81.872, 79.308 78.959, 78.611 75.790, 77.853 " />
            <path fill="none" stroke-width="3.0" stroke-linecap="butt" stroke-opacity="1.0" stroke="rgb(0, 0, 0)" stroke-linejoin="round" d=" M 44.840, 79.133 45.543, 77.896 47.725, 74.060 50.749, 66.290 52.535, 60.272 53.686, 55.788 " />
            <path fill="none" stroke-width="3.0" stroke-linecap="butt" stroke-opacity="1.0" stroke="rgb(0, 0, 0)" stroke-linejoin="round" d=" M 39.412, 78.852 42.090, 80.231 44.840, 79.133 46.411, 80.466 47.220, 80.731 50.126, 81.684 52.233, 81.885 54.828, 82.132 " />
            <path fill="none" stroke-width="3.0" stroke-linecap="butt" stroke-opacity="1.0" stroke="rgb(0, 0, 0)" stroke-linejoin="round" d=" M 37.065, 74.553 34.815, 76.680 31.967, 78.902 28.713, 80.225 27.031, 79.224 " />
            <path fill="none" stroke-width="3.0" stroke-linecap="butt" stroke-opacity="1.0" stroke="rgb(0, 0, 0)" stroke-linejoin="round" d=" M 34.017, 50.925 33.849, 51.598 33.392, 53.429 32.979, 55.085 32.099, 58.606 31.187, 62.416 30.308, 65.750 28.516, 72.541 " />
            <path fill="none" stroke-width="3.0" stroke-linecap="butt" stroke-opacity="1.0" stroke="rgb(0, 0, 0)" stroke-linejoin="round" d=" M 49.243, 24.562 50.786, 21.825 54.713, 16.031 57.662, 13.105 59.151, 14.656 59.726, 19.258 59.477, 23.785 59.080, 27.392 " />
            <path fill="none" stroke-width="3.0" stroke-linecap="butt" stroke-opacity="1.0" stroke="rgb(0, 0, 0)" stroke-linejoin="round" d=" M 60.874, 27.565 63.125, 28.264 64.259, 29.578 65.327, 30.815 65.810, 34.633 63.560, 40.473 60.368, 46.373 56.595, 51.937 53.686, 55.788 55.488, 56.646 57.621, 57.608 59.655, 58.526 " />
            <path fill="none" stroke-width="3.0" stroke-linecap="butt" stroke-opacity="1.0" stroke="rgb(0, 0, 0)" stroke-linejoin="round" d=" M 44.004, 31.724 43.998, 31.727 41.344, 33.509 37.752, 37.065 35.097, 41.041 33.663, 45.967 32.980, 50.721 32.979, 55.085 " />
            <path fill="none" stroke-width="3.0" stroke-linecap="butt" stroke-opacity="1.0" stroke="rgb(0, 0, 0)" stroke-linejoin="round" d=" M 72.306, 34.150 72.287, 34.048 71.305, 29.305 67.857, 21.149 64.218, 16.803 62.665, 15.221 59.387, 13.035 57.662, 13.105 " />
            <path fill="none" stroke-width="3.0" stroke-linecap="butt" stroke-opacity="1.0" stroke="rgb(0, 0, 0)" stroke-linejoin="round" d=" M 53.316, 18.901 50.150, 23.323 49.243, 24.562 44.004, 31.724 43.869, 31.909 42.212, 34.039 41.972, 34.347 40.367, 36.411 " />
            <path fill="none" stroke-width="3.0" stroke-linecap="butt" stroke-opacity="1.0" stroke="rgb(0, 0, 0)" stroke-linejoin="round" d=" M 37.915, 37.835 35.070, 41.763 34.105, 46.959 33.883, 48.293 33.392, 53.429 " />
            <path fill="none" stroke-width="3.0" stroke-linecap="butt" stroke-opacity="1.0" stroke="rgb(0, 0, 0)" stroke-linejoin="round" d=" M 193.146, 102.392 191.925, 100.916 191.299, 96.912 188.256, 87.386 187.229, 84.171 182.403, 75.413 181.204, 73.236 174.891, 65.481 172.917, 63.057 169.479, 59.310 161.533, 53.239 161.052, 52.871 156.985, 50.213 153.798, 48.708 151.523, 47.633 145.252, 45.423 138.875, 43.834 138.007, 43.714 133.105, 43.039 128.562, 43.108 118.575, 43.618 117.489, 43.673 107.895, 46.492 105.877, 47.085 100.414, 48.882 91.480, 53.373 89.149, 54.545 88.454, 55.082 " />
            <path fill="none" stroke-width="3.0" stroke-linecap="butt" stroke-opacity="1.0" stroke="rgb(0, 0, 0)" stroke-linejoin="round" d=" M 153.798, 48.708 152.711, 46.404 151.763, 44.870 148.688, 43.163 144.677, 41.959 141.326, 41.737 138.573, 43.376 138.007, 43.714 " />
            <path fill="none" stroke-width="3.0" stroke-linecap="butt" stroke-opacity="1.0" stroke="rgb(0, 0, 0)" stroke-linejoin="round" d=" M 67.869, 35.026 71.297, 37.035 74.559, 39.991 " />
            <path fill="none" stroke-width="3.0" stroke-linecap="butt" stroke-opacity="1.0" stroke="rgb(0, 0, 0)" stroke-linejoin="round" d=" M 194.435, 123.300 194.599, 122.224 193.968, 121.711 193.939, 121.687 187.826, 116.710 185.019, 115.266 178.124, 111.719 173.515, 109.348 164.243, 105.602 154.971, 101.856 152.787, 100.974 143.303, 97.804 133.818, 94.635 128.321, 92.797 118.676, 90.158 109.030, 87.519 103.840, 86.099 103.159, 85.959 " />
            <path fill="none" stroke-width="3.0" stroke-linecap="butt" stroke-opacity="1.0" stroke="rgb(0, 0, 0)" stroke-linejoin="round" d=" M 89.307, 69.287 88.353, 69.230 87.296, 69.167 " />
            <path fill="none" stroke-width="3.0" stroke-linecap="butt" stroke-opacity="1.0" stroke="rgb(0, 0, 0)" stroke-linejoin="round" d=" M 89.307, 69.287 99.189, 70.821 102.705, 71.366 110.192, 72.528 " />
            <path fill="none" stroke-width="3.0" stroke-linecap="butt" stroke-opacity="1.0" stroke="rgb(0, 0, 0)" stroke-linejoin="round" d=" M 194.599, 122.224 193.868, 112.251 193.464, 106.733 193.146, 102.392 193.443, 106.106 193.464, 106.733 " />
            <path fill="none" stroke-width="3.0" stroke-linecap="butt" stroke-opacity="1.0" stroke="rgb(0, 0, 0)" stroke-linejoin="round" d=" M 113.653, 90.300 123.297, 92.946 128.047, 94.249 137.533, 97.414 147.019, 100.579 151.109, 101.944 160.388, 105.673 169.667, 109.402 170.718, 109.824 179.630, 114.361 181.853, 115.492 184.367, 116.772 " />
            <path fill="none" stroke-width="3.0" stroke-linecap="butt" stroke-opacity="1.0" stroke="rgb(0, 0, 0)" stroke-linejoin="round" d=" M 198.553, 151.069 203.340, 151.230 205.874, 151.034 207.382, 148.615 208.701, 144.761 206.282, 138.643 201.906, 130.282 196.929, 125.251 194.435, 123.300 194.011, 122.968 193.991, 122.953 189.828, 119.698 185.927, 117.608 184.367, 116.772 " />
            <path fill="none" stroke-width="3.0" stroke-linecap="butt" stroke-opacity="1.0" stroke="rgb(0, 0, 0)" stroke-linejoin="round" d=" M 154.176, 124.876 158.543, 126.508 167.910, 130.008 177.278, 133.509 180.843, 134.841 185.983, 137.157 190.330, 139.115 199.331, 143.171 199.578, 143.338 207.382, 148.615 " />
            <path fill="none" stroke-width="3.0" stroke-linecap="butt" stroke-opacity="1.0" stroke="rgb(0, 0, 0)" stroke-linejoin="round" d=" M 200.795, 139.087 197.364, 137.490 190.073, 134.097 182.520, 130.582 173.173, 127.028 163.826, 123.473 155.061, 120.140 " />
            <path fill="none" stroke-width="3.0" stroke-linecap="butt" stroke-opacity="1.0" stroke="rgb(0, 0, 0)" stroke-linejoin="round" d=" M 50.568, 83.887 46.542, 86.016 42.117, 88.356 37.109, 92.307 35.227, 95.860 " />
            <path fill="none" stroke-width="3.0" stroke-linecap="butt" stroke-opacity="1.0" stroke="rgb(0, 0, 0)" stroke-linejoin="round" d=" M 42.212, 34.039 38.641, 37.286 " />
            <path fill="none" stroke-width="3.0" stroke-linecap="butt" stroke-opacity="1.0" stroke="rgb(0, 0, 0)" stroke-linejoin="round" d=" M 49.225, 82.926 46.542, 86.016 " />
            <path fill="none" stroke-width="3.0" stroke-linecap="butt" stroke-opacity="1.0" stroke="rgb(0, 0, 0)" stroke-linejoin="round" d=" M 63.699, 78.060 63.513, 78.122 60.979, 78.967 " />
            <path fill="none" stroke-width="3.0" stroke-linecap="butt" stroke-opacity="1.0" stroke="rgb(0, 0, 0)" stroke-linejoin="round" d=" M 66.191, 73.492 63.513, 78.122 " />
            <path fill="none" stroke-width="3.0" stroke-linecap="butt" stroke-opacity="1.0" stroke="rgb(0, 0, 0)" stroke-linejoin="round" d=" M 67.621, 72.003 66.664, 73.482 63.699, 78.060 63.629, 78.168 " />
            <path fill="none" stroke-width="3.0" stroke-linecap="butt" stroke-opacity="1.0" stroke="rgb(0, 0, 0)" stroke-linejoin="round" d=" M 64.719, 73.524 66.191, 73.492 66.664, 73.482 " />
            <path fill="none" stroke-width="3.0" stroke-linecap="butt" stroke-opacity="1.0" stroke="rgb(0, 0, 0)" stroke-linejoin="round" d=" M 66.963, 69.479 68.000, 70.365 68.439, 70.741 68.646, 70.918 71.438, 73.307 71.476, 73.339 72.958, 74.607 74.792, 71.762 " />
            <path fill="none" stroke-width="3.0" stroke-linecap="butt" stroke-opacity="1.0" stroke="rgb(0, 0, 0)" stroke-linejoin="round" d=" M 67.483, 68.092 69.641, 68.884 71.196, 69.454 72.213, 69.827 72.282, 69.853 72.606, 69.972 73.087, 70.148 73.271, 70.216 73.367, 70.251 " />
            <path fill="none" stroke-width="3.0" stroke-linecap="butt" stroke-opacity="1.0" stroke="rgb(0, 0, 0)" stroke-linejoin="round" d=" M 67.815, 67.206 70.130, 68.129 72.114, 68.921 " />
            <path fill="none" stroke-width="3.0" stroke-linecap="butt" stroke-opacity="1.0" stroke="rgb(0, 0, 0)" stroke-linejoin="round" d=" M 74.840, 51.310 74.565, 51.173 " />
            <path fill="none" stroke-width="3.0" stroke-linecap="butt" stroke-opacity="1.0" stroke="rgb(0, 0, 0)" stroke-linejoin="round" d=" M 75.252, 77.824 78.307, 73.119 " />
            <path fill="none" stroke-width="3.0" stroke-linecap="butt" stroke-opacity="1.0" stroke="rgb(0, 0, 0)" stroke-linejoin="round" d=" M 77.133, 50.857 75.347, 49.080 " />
            <path fill="none" stroke-width="3.0" stroke-linecap="butt" stroke-opacity="1.0" stroke="rgb(0, 0, 0)" stroke-linejoin="round" d=" M 190.454, 141.544 190.421, 140.900 " />
        </g>
    </g>
</svg>
