<?xml version='1.0' encoding='ascii'?>
<svg xmlns="http://www.w3.org/2000/svg" version="1.1" width="250" height="250">
    <g id="ViewLayer_LineSet" xmlns:inkscape="http://www.inkscape.org/namespaces/inkscape" inkscape:groupmode="lineset" inkscape:label="ViewLayer_LineSet">
        <g xmlns:inkscape="http://www.inkscape.org/namespaces/inkscape" inkscape:groupmode="layer" id="strokes" inkscape:label="strokes">
            <path fill="none" stroke-width="3.0" stroke-linecap="butt" stroke-opacity="1.0" stroke="rgb(0, 0, 0)" stroke-linejoin="round" d=" M 65.994, 185.130 68.215, 187.722 70.113, 189.806 75.158, 194.562 80.716, 198.807 83.239, 200.353 " />
            <path fill="none" stroke-width="3.0" stroke-linecap="butt" stroke-opacity="1.0" stroke="rgb(0, 0, 0)" stroke-linejoin="round" d=" M 152.582, 204.133 156.856, 202.086 160.231, 199.973 160.265, 199.948 168.341, 194.050 168.769, 193.737 175.710, 186.539 176.260, 185.970 178.207, 183.243 183.764, 174.929 185.096, 172.936 188.939, 164.409 " />
            <path fill="none" stroke-width="3.0" stroke-linecap="butt" stroke-opacity="1.0" stroke="rgb(0, 0, 0)" stroke-linejoin="round" d=" M 51.948, 120.981 51.731, 121.701 50.432, 127.913 49.858, 133.385 " />
            <path fill="none" stroke-width="3.0" stroke-linecap="butt" stroke-opacity="1.0" stroke="rgb(0, 0, 0)" stroke-linejoin="round" d=" M 70.214, 217.396 70.438, 221.450 71.739, 225.539 72.353, 227.269 75.743, 231.083 78.000, 232.903 83.491, 235.348 85.403, 236.189 95.313, 234.850 99.127, 234.335 102.865, 233.598 107.744, 232.018 111.311, 230.451 114.565, 228.646 123.247, 223.684 124.603, 222.909 133.191, 217.786 134.852, 216.796 140.051, 213.334 146.300, 209.174 151.847, 205.009 152.546, 204.176 152.582, 204.133 155.729, 200.305 157.795, 194.972 " />
            <path fill="none" stroke-width="3.0" stroke-linecap="butt" stroke-opacity="1.0" stroke="rgb(0, 0, 0)" stroke-linejoin="round" d=" M 86.656, 199.140 86.011, 200.041 85.161, 201.530 83.413, 204.590 81.770, 210.238 81.569, 216.292 " />
            <path fill="none" stroke-width="3.0" stroke-linecap="butt" stroke-opacity="1.0" stroke="rgb(0, 0, 0)" stroke-linejoin="round" d=" M 74.090, 206.893 72.810, 209.153 71.489, 212.187 71.335, 212.542 71.014, 213.280 " />
            <path fill="none" stroke-width="3.0" stroke-linecap="butt" stroke-opacity="1.0" stroke="rgb(0, 0, 0)" stroke-linejoin="round" d=" M 83.239, 200.353 80.758, 201.452 78.557, 202.663 74.090, 206.893 71.798, 210.928 71.014, 213.280 70.784, 214.465 70.214, 217.396 70.597, 215.115 70.784, 214.465 " />
            <path fill="none" stroke-width="3.0" stroke-linecap="butt" stroke-opacity="1.0" stroke="rgb(0, 0, 0)" stroke-linejoin="round" d=" M 140.051, 213.334 142.937, 213.144 146.745, 212.177 149.750, 210.995 154.118, 208.779 155.894, 207.564 158.227, 204.521 159.509, 202.341 160.265, 199.948 " />
            <path fill="none" stroke-width="3.0" stroke-linecap="butt" stroke-opacity="1.0" stroke="rgb(0, 0, 0)" stroke-linejoin="round" d=" M 59.600, 126.414 59.534, 126.452 55.358, 128.845 50.889, 132.353 49.858, 133.385 46.621, 136.624 42.190, 141.532 37.885, 147.262 37.390, 148.187 35.013, 152.703 33.393, 156.996 32.467, 161.305 32.334, 165.039 32.707, 168.337 33.489, 171.324 34.859, 174.485 35.608, 175.894 37.611, 178.886 40.019, 181.256 41.281, 182.272 44.028, 184.228 47.153, 185.650 48.957, 186.164 52.505, 186.978 56.430, 187.247 61.007, 186.666 65.502, 185.344 65.994, 185.130 70.228, 183.288 71.859, 182.339 77.702, 178.633 " />
            <path fill="none" stroke-width="3.0" stroke-linecap="butt" stroke-opacity="1.0" stroke="rgb(0, 0, 0)" stroke-linejoin="round" d=" M 75.796, 52.850 76.692, 53.050 " />
            <path fill="none" stroke-width="3.0" stroke-linecap="butt" stroke-opacity="1.0" stroke="rgb(0, 0, 0)" stroke-linejoin="round" d=" M 43.994, 91.173 39.872, 93.899 39.097, 97.409 38.530, 101.338 " />
            <path fill="none" stroke-width="3.0" stroke-linecap="butt" stroke-opacity="1.0" stroke="rgb(0, 0, 0)" stroke-linejoin="round" d=" M 46.433, 117.065 46.768, 117.303 50.914, 120.247 51.948, 120.981 56.617, 124.296 57.875, 125.189 59.600, 126.414 60.257, 126.881 65.425, 130.551 66.836, 131.428 72.795, 134.332 81.785, 138.712 90.774, 143.093 93.671, 144.505 99.559, 146.550 109.006, 149.830 118.453, 153.110 125.214, 155.458 134.972, 157.647 144.729, 159.836 154.487, 162.025 156.209, 162.411 158.635, 162.859 160.930, 163.043 170.898, 163.844 172.575, 163.979 182.543, 164.780 185.094, 164.985 188.939, 164.409 198.829, 162.928 201.966, 162.458 209.004, 156.131 210.003, 152.484 208.416, 143.824 207.329, 138.544 204.081, 130.884 199.777, 126.102 198.331, 124.631 " />
            <path fill="none" stroke-width="3.0" stroke-linecap="butt" stroke-opacity="1.0" stroke="rgb(0, 0, 0)" stroke-linejoin="round" d=" M 82.935, 59.362 82.915, 58.719 82.895, 58.090 81.615, 56.594 81.291, 56.215 80.367, 55.134 80.298, 55.053 79.241, 53.818 78.806, 53.309 78.437, 52.877 76.692, 53.050 76.287, 53.091 75.707, 53.148 72.498, 53.467 70.151, 53.902 68.633, 55.695 65.824, 59.930 66.021, 65.511 66.757, 66.620 70.198, 70.787 " />
            <path fill="none" stroke-width="3.0" stroke-linecap="butt" stroke-opacity="1.0" stroke="rgb(0, 0, 0)" stroke-linejoin="round" d=" M 85.351, 57.287 84.637, 56.154 84.078, 55.912 82.207, 55.102 82.029, 55.025 80.755, 54.473 79.241, 53.818 " />
            <path fill="none" stroke-width="3.0" stroke-linecap="butt" stroke-opacity="1.0" stroke="rgb(0, 0, 0)" stroke-linejoin="round" d=" M 83.777, 58.639 83.780, 58.592 83.590, 58.276 82.210, 55.989 80.298, 55.053 " />
            <path fill="none" stroke-width="3.0" stroke-linecap="butt" stroke-opacity="1.0" stroke="rgb(0, 0, 0)" stroke-linejoin="round" d=" M 65.245, 78.559 64.712, 78.722 63.688, 79.034 54.519, 83.025 53.156, 83.618 47.969, 86.849 44.141, 90.964 43.994, 91.173 41.124, 95.259 40.400, 96.629 39.135, 99.023 38.530, 101.338 38.218, 102.531 37.752, 106.308 38.090, 109.262 38.726, 111.753 46.006, 118.609 46.522, 119.095 49.598, 120.776 50.914, 120.247 " />
            <path fill="none" stroke-width="3.0" stroke-linecap="butt" stroke-opacity="1.0" stroke="rgb(0, 0, 0)" stroke-linejoin="round" d=" M 46.768, 117.303 46.522, 119.095 45.181, 115.381 45.175, 115.363 45.180, 110.524 45.890, 108.453 47.390, 104.080 49.091, 98.561 49.630, 96.691 49.866, 95.874 50.386, 94.070 52.104, 89.338 54.995, 85.184 55.096, 85.106 59.002, 82.071 59.227, 81.895 61.905, 80.177 62.551, 79.763 63.688, 79.034 " />
            <path fill="none" stroke-width="3.0" stroke-linecap="butt" stroke-opacity="1.0" stroke="rgb(0, 0, 0)" stroke-linejoin="round" d=" M 86.121, 44.683 85.476, 42.613 85.461, 42.564 85.348, 42.200 85.007, 41.108 83.557, 36.519 80.915, 30.018 78.353, 26.950 76.046, 24.423 73.787, 23.145 72.611, 23.482 69.232, 24.898 65.044, 28.936 62.177, 32.840 60.206, 35.917 57.460, 36.094 53.701, 36.723 48.771, 38.901 45.490, 42.088 44.753, 46.887 45.310, 51.692 46.906, 56.199 48.427, 59.308 47.047, 62.884 45.551, 67.640 44.634, 73.728 45.298, 77.692 45.795, 78.696 48.230, 79.613 51.337, 80.535 55.100, 80.871 58.909, 80.087 62.554, 79.044 64.344, 78.510 64.871, 78.353 65.496, 78.166 " />
            <path fill="none" stroke-width="3.0" stroke-linecap="butt" stroke-opacity="1.0" stroke="rgb(0, 0, 0)" stroke-linejoin="round" d=" M 63.950, 37.307 61.131, 35.908 60.206, 35.917 " />
            <path fill="none" stroke-width="3.0" stroke-linecap="butt" stroke-opacity="1.0" stroke="rgb(0, 0, 0)" stroke-linejoin="round" d=" M 51.879, 61.119 49.039, 59.883 48.427, 59.308 " />
            <path fill="none" stroke-width="3.0" stroke-linecap="butt" stroke-opacity="1.0" stroke="rgb(0, 0, 0)" stroke-linejoin="round" d=" M 139.911, 40.326 129.942, 39.546 129.481, 39.510 119.594, 41.009 116.506, 41.477 114.735, 42.066 105.355, 45.531 101.013, 47.135 92.352, 52.132 91.444, 52.657 89.300, 53.893 88.319, 54.736 87.981, 55.026 87.702, 55.267 87.528, 55.416 87.058, 55.820 86.971, 55.895 85.351, 57.287 83.777, 58.639 83.611, 58.782 83.458, 58.913 82.935, 59.362 81.299, 60.768 80.286, 61.639 80.203, 61.710 78.945, 62.791 78.672, 63.025 77.124, 65.035 76.339, 66.054 75.586, 67.032 75.181, 67.558 75.108, 67.653 75.091, 67.674 74.417, 68.550 74.410, 68.559 74.402, 68.569 74.287, 68.719 73.331, 69.960 " />
            <path fill="none" stroke-width="3.0" stroke-linecap="butt" stroke-opacity="1.0" stroke="rgb(0, 0, 0)" stroke-linejoin="round" d=" M 76.046, 24.423 78.440, 27.119 " />
            <path fill="none" stroke-width="3.0" stroke-linecap="butt" stroke-opacity="1.0" stroke="rgb(0, 0, 0)" stroke-linejoin="round" d=" M 46.018, 42.219 48.579, 43.431 52.421, 45.384 " />
            <path fill="none" stroke-width="3.0" stroke-linecap="butt" stroke-opacity="1.0" stroke="rgb(0, 0, 0)" stroke-linejoin="round" d=" M 48.230, 79.613 52.080, 79.948 " />
            <path fill="none" stroke-width="3.0" stroke-linecap="butt" stroke-opacity="1.0" stroke="rgb(0, 0, 0)" stroke-linejoin="round" d=" M 86.713, 43.403 85.461, 42.564 " />
            <path fill="none" stroke-width="3.0" stroke-linecap="butt" stroke-opacity="1.0" stroke="rgb(0, 0, 0)" stroke-linejoin="round" d=" M 91.444, 52.657 91.590, 52.228 91.141, 50.059 90.322, 46.873 88.409, 44.634 86.414, 42.930 85.348, 42.200 " />
            <path fill="none" stroke-width="3.0" stroke-linecap="butt" stroke-opacity="1.0" stroke="rgb(0, 0, 0)" stroke-linejoin="round" d=" M 74.417, 68.550 74.254, 68.564 74.100, 68.646 71.334, 70.135 70.238, 70.725 70.198, 70.787 66.020, 77.344 65.496, 78.166 65.295, 78.481 65.245, 78.559 65.067, 78.840 65.026, 78.903 64.986, 78.966 64.253, 80.116 63.848, 80.751 62.578, 82.744 62.607, 83.341 62.761, 86.522 62.815, 87.631 62.857, 88.512 65.044, 90.749 66.124, 91.852 66.642, 92.382 66.730, 92.472 66.864, 92.610 66.892, 92.638 67.877, 93.645 69.857, 95.670 70.691, 96.523 72.696, 97.755 78.549, 101.353 81.691, 103.285 86.159, 106.031 87.825, 106.782 91.097, 108.256 100.215, 112.364 107.868, 115.812 117.329, 119.051 126.790, 122.289 132.893, 124.378 139.334, 125.958 149.046, 128.341 157.412, 130.394 167.326, 131.701 177.240, 133.009 177.820, 133.085 182.435, 132.851 189.399, 132.498 191.694, 132.381 191.808, 132.317 192.903, 131.705 195.614, 130.190 198.128, 128.785 198.331, 124.631 198.821, 114.643 199.144, 108.052 198.255, 104.123 196.747, 102.515 " />
            <path fill="none" stroke-width="3.0" stroke-linecap="butt" stroke-opacity="1.0" stroke="rgb(0, 0, 0)" stroke-linejoin="round" d=" M 199.144, 108.052 193.469, 110.274 186.958, 110.158 180.613, 110.045 " />
            <path fill="none" stroke-width="3.0" stroke-linecap="butt" stroke-opacity="1.0" stroke="rgb(0, 0, 0)" stroke-linejoin="round" d=" M 197.345, 106.326 196.747, 102.515 196.174, 98.868 193.880, 89.135 193.111, 85.872 189.019, 76.748 187.830, 74.098 182.222, 65.818 179.954, 62.470 172.813, 55.470 170.257, 52.964 168.510, 51.789 160.913, 47.131 160.525, 44.586 158.924, 40.771 152.603, 36.907 146.242, 36.445 145.165, 36.415 141.597, 38.609 139.911, 40.326 139.772, 40.468 " />
            <path fill="none" stroke-width="3.0" stroke-linecap="butt" stroke-opacity="1.0" stroke="rgb(0, 0, 0)" stroke-linejoin="round" d=" M 139.772, 40.468 142.106, 41.785 147.736, 43.926 154.436, 46.037 159.477, 47.257 160.913, 47.131 " />
            <path fill="none" stroke-width="3.0" stroke-linecap="butt" stroke-opacity="1.0" stroke="rgb(0, 0, 0)" stroke-linejoin="round" d=" M 65.425, 130.551 74.415, 134.930 83.406, 139.309 92.396, 143.688 93.394, 144.175 99.594, 146.327 109.041, 149.607 118.488, 152.887 126.326, 155.608 136.083, 157.798 145.840, 159.988 155.598, 162.177 158.635, 162.859 " />
            <path fill="none" stroke-width="3.0" stroke-linecap="butt" stroke-opacity="1.0" stroke="rgb(0, 0, 0)" stroke-linejoin="round" d=" M 94.088, 139.926 85.081, 135.582 76.074, 131.238 67.067, 126.894 66.174, 126.463 64.770, 125.483 63.652, 124.702 60.523, 122.517 60.228, 122.311 55.693, 119.145 54.507, 118.316 53.056, 117.303 47.194, 113.210 " />
            <path fill="none" stroke-width="3.0" stroke-linecap="butt" stroke-opacity="1.0" stroke="rgb(0, 0, 0)" stroke-linejoin="round" d=" M 88.319, 54.736 85.477, 51.813 84.463, 51.506 83.579, 51.238 80.995, 50.943 79.368, 52.290 " />
            <path fill="none" stroke-width="3.0" stroke-linecap="butt" stroke-opacity="1.0" stroke="rgb(0, 0, 0)" stroke-linejoin="round" d=" M 80.995, 50.943 82.832, 51.514 85.328, 54.155 86.971, 55.895 " />
            <path fill="none" stroke-width="3.0" stroke-linecap="butt" stroke-opacity="1.0" stroke="rgb(0, 0, 0)" stroke-linejoin="round" d=" M 64.344, 78.510 64.712, 78.722 " />
            <path fill="none" stroke-width="3.0" stroke-linecap="butt" stroke-opacity="1.0" stroke="rgb(0, 0, 0)" stroke-linejoin="round" d=" M 75.707, 53.148 75.796, 52.850 76.287, 53.091 " />
        </g>
    </g>
</svg>
