<?xml version='1.0' encoding='ascii'?>
<svg xmlns="http://www.w3.org/2000/svg" version="1.1" width="250" height="250">
    <g id="ViewLayer_LineSet" xmlns:inkscape="http://www.inkscape.org/namespaces/inkscape" inkscape:groupmode="lineset" inkscape:label="ViewLayer_LineSet">
        <g xmlns:inkscape="http://www.inkscape.org/namespaces/inkscape" inkscape:groupmode="layer" id="strokes" inkscape:label="strokes">
            <path fill="none" stroke-width="3.0" stroke-linecap="butt" stroke-opacity="1.0" stroke="rgb(0, 0, 0)" stroke-linejoin="round" d=" M 108.902, 216.400 109.644, 216.483 113.193, 216.880 117.700, 217.078 122.221, 216.982 126.554, 216.598 130.508, 215.946 132.435, 215.529 136.832, 214.576 141.873, 213.261 145.842, 211.671 154.634, 207.527 158.087, 205.270 162.185, 202.297 166.767, 198.968 167.253, 198.466 174.276, 191.212 " />
            <path fill="none" stroke-width="3.0" stroke-linecap="butt" stroke-opacity="1.0" stroke="rgb(0, 0, 0)" stroke-linejoin="round" d=" M 59.255, 100.760 57.988, 102.352 53.756, 109.454 49.948, 118.117 49.404, 119.882 48.469, 122.911 48.362, 123.257 47.282, 126.756 46.030, 132.921 45.486, 139.309 45.260, 143.782 45.489, 149.450 45.969, 153.933 46.829, 158.591 47.675, 162.533 48.961, 166.830 50.624, 171.293 52.592, 175.727 54.780, 179.942 57.094, 183.752 59.394, 186.927 " />
            <path fill="none" stroke-width="3.0" stroke-linecap="butt" stroke-opacity="1.0" stroke="rgb(0, 0, 0)" stroke-linejoin="round" d=" M 190.979, 133.235 188.888, 123.456 188.793, 123.009 188.693, 122.752 " />
            <path fill="none" stroke-width="3.0" stroke-linecap="butt" stroke-opacity="1.0" stroke="rgb(0, 0, 0)" stroke-linejoin="round" d=" M 77.110, 152.400 77.664, 153.801 79.027, 155.872 80.920, 157.535 83.115, 158.769 85.155, 159.217 86.110, 159.187 87.249, 159.151 89.621, 158.330 91.670, 157.008 93.218, 155.166 93.933, 153.852 " />
            <path fill="none" stroke-width="3.0" stroke-linecap="butt" stroke-opacity="1.0" stroke="rgb(0, 0, 0)" stroke-linejoin="round" d=" M 117.441, 103.365 117.485, 103.513 118.005, 105.261 118.456, 108.654 118.497, 112.483 118.513, 112.551 117.467, 120.428 117.453, 120.536 117.394, 120.975 116.168, 125.192 114.664, 129.484 112.910, 133.482 110.970, 136.993 108.942, 139.802 108.911, 139.844 108.560, 140.186 106.804, 141.894 104.719, 143.038 102.731, 143.220 101.466, 142.668 100.912, 142.426 99.335, 140.690 98.143, 138.241 98.070, 138.091 97.975, 137.735 97.177, 134.750 96.705, 130.827 96.683, 126.511 97.118, 122.007 97.974, 117.592 98.258, 116.609 98.299, 116.465 99.176, 113.426 100.697, 109.520 102.475, 106.017 104.442, 103.039 105.322, 102.046 " />
            <path fill="none" stroke-width="3.0" stroke-linecap="butt" stroke-opacity="1.0" stroke="rgb(0, 0, 0)" stroke-linejoin="round" d=" M 77.310, 120.887 76.333, 125.183 75.250, 129.293 74.389, 132.022 74.255, 132.445 74.075, 133.016 72.814, 136.166 71.475, 138.584 70.073, 140.152 68.931, 140.662 68.634, 140.794 67.224, 140.783 65.849, 139.241 64.642, 137.133 63.667, 134.269 63.005, 130.794 62.883, 129.109 62.848, 128.626 62.721, 126.881 62.859, 122.720 63.063, 121.203 63.418, 118.566 64.284, 114.564 65.401, 110.718 66.725, 107.164 67.434, 105.658 67.669, 105.158 68.202, 104.025 69.774, 101.408 70.544, 100.446 " />
            <path fill="none" stroke-width="3.0" stroke-linecap="butt" stroke-opacity="1.0" stroke="rgb(0, 0, 0)" stroke-linejoin="round" d=" M 67.224, 140.783 70.427, 142.149 " />
            <path fill="none" stroke-width="3.0" stroke-linecap="butt" stroke-opacity="1.0" stroke="rgb(0, 0, 0)" stroke-linejoin="round" d=" M 77.900, 100.242 78.526, 102.461 78.886, 105.380 78.995, 108.874 78.864, 110.472 78.841, 110.752 78.687, 112.622 " />
            <path fill="none" stroke-width="3.0" stroke-linecap="butt" stroke-opacity="1.0" stroke="rgb(0, 0, 0)" stroke-linejoin="round" d=" M 80.416, 122.817 77.310, 120.887 77.612, 119.348 78.134, 116.678 78.687, 112.622 81.752, 114.645 " />
            <path fill="none" stroke-width="3.0" stroke-linecap="butt" stroke-opacity="1.0" stroke="rgb(0, 0, 0)" stroke-linejoin="round" d=" M 175.198, 198.469 179.734, 201.717 " />
            <path fill="none" stroke-width="3.0" stroke-linecap="butt" stroke-opacity="1.0" stroke="rgb(0, 0, 0)" stroke-linejoin="round" d=" M 167.253, 198.466 169.262, 198.791 174.019, 200.873 177.395, 203.422 " />
            <path fill="none" stroke-width="3.0" stroke-linecap="butt" stroke-opacity="1.0" stroke="rgb(0, 0, 0)" stroke-linejoin="round" d=" M 132.435, 215.529 134.091, 220.334 135.157, 222.603 138.876, 226.448 140.673, 227.986 145.126, 230.530 150.360, 231.905 155.017, 232.328 160.138, 231.771 166.639, 230.060 171.999, 227.735 177.245, 224.475 180.372, 220.977 181.855, 219.074 185.127, 212.516 185.657, 211.233 188.931, 201.784 189.700, 199.565 191.110, 192.844 " />
            <path fill="none" stroke-width="3.0" stroke-linecap="butt" stroke-opacity="1.0" stroke="rgb(0, 0, 0)" stroke-linejoin="round" d=" M 59.394, 186.927 56.299, 187.585 50.371, 188.800 44.109, 191.120 39.472, 193.585 35.890, 196.576 35.295, 197.277 31.541, 202.168 29.247, 206.286 27.864, 210.356 27.377, 214.320 27.721, 218.533 29.587, 222.553 31.129, 224.220 33.871, 225.682 37.251, 227.238 42.819, 228.977 47.768, 229.900 52.748, 230.645 57.801, 231.275 64.391, 231.519 70.858, 231.595 78.657, 231.194 85.713, 230.620 91.005, 230.242 95.282, 229.728 100.037, 228.746 102.811, 226.924 106.408, 224.073 108.586, 220.767 109.598, 217.214 109.644, 216.483 " />
            <path fill="none" stroke-width="3.0" stroke-linecap="butt" stroke-opacity="1.0" stroke="rgb(0, 0, 0)" stroke-linejoin="round" d=" M 164.542, 184.430 166.693, 186.272 170.151, 188.983 173.573, 190.955 174.276, 191.212 177.181, 192.273 180.768, 193.383 183.730, 193.624 187.752, 193.533 190.050, 193.122 191.110, 192.844 193.255, 192.281 197.519, 190.104 201.184, 187.245 203.289, 184.731 204.873, 182.654 206.269, 179.410 207.438, 176.484 207.996, 172.868 208.450, 169.185 208.276, 165.148 207.472, 160.727 205.578, 155.089 204.580, 152.290 202.019, 147.191 199.350, 142.662 199.168, 142.402 199.121, 142.334 199.107, 142.315 196.488, 138.576 193.146, 135.057 190.979, 133.235 190.871, 133.143 185.917, 130.135 181.815, 128.404 " />
            <path fill="none" stroke-width="3.0" stroke-linecap="butt" stroke-opacity="1.0" stroke="rgb(0, 0, 0)" stroke-linejoin="round" d=" M 116.247, 72.911 119.494, 70.434 119.548, 70.324 119.659, 70.101 119.695, 70.027 121.345, 66.677 122.331, 64.080 122.311, 60.402 121.295, 57.745 119.391, 54.030 117.706, 52.794 " />
            <path fill="none" stroke-width="3.0" stroke-linecap="butt" stroke-opacity="1.0" stroke="rgb(0, 0, 0)" stroke-linejoin="round" d=" M 56.103, 56.325 56.011, 56.585 54.489, 60.889 52.851, 66.979 52.282, 74.834 52.572, 76.092 54.223, 81.386 56.711, 82.614 59.800, 83.338 61.260, 83.680 61.853, 83.819 65.735, 84.246 67.295, 83.974 67.495, 83.939 70.871, 83.350 71.743, 83.198 74.407, 82.519 77.305, 81.781 82.706, 79.633 82.778, 79.605 " />
            <path fill="none" stroke-width="3.0" stroke-linecap="butt" stroke-opacity="1.0" stroke="rgb(0, 0, 0)" stroke-linejoin="round" d=" M 33.821, 112.587 31.624, 108.131 32.805, 107.002 37.504, 102.508 41.722, 101.458 49.482, 99.526 53.191, 98.603 57.254, 98.471 59.140, 98.410 61.178, 98.344 71.172, 98.020 73.258, 97.952 76.107, 97.859 76.134, 97.859 79.964, 97.734 89.933, 98.523 99.902, 99.311 107.522, 99.914 113.667, 100.400 116.304, 100.859 116.380, 100.873 126.232, 102.588 136.083, 104.303 145.935, 106.019 147.645, 106.316 157.311, 108.878 166.977, 111.440 176.644, 114.002 177.047, 114.109 178.181, 114.573 179.025, 114.919 183.034, 116.560 185.794, 117.690 " />
            <path fill="none" stroke-width="3.0" stroke-linecap="butt" stroke-opacity="1.0" stroke="rgb(0, 0, 0)" stroke-linejoin="round" d=" M 199.121, 142.334 206.624, 138.021 206.252, 131.759 200.119, 127.134 197.878, 125.444 " />
            <path fill="none" stroke-width="3.0" stroke-linecap="butt" stroke-opacity="1.0" stroke="rgb(0, 0, 0)" stroke-linejoin="round" d=" M 39.021, 108.762 40.881, 107.159 44.989, 103.619 54.765, 101.516 58.132, 100.791 " />
            <path fill="none" stroke-width="3.0" stroke-linecap="butt" stroke-opacity="1.0" stroke="rgb(0, 0, 0)" stroke-linejoin="round" d=" M 38.886, 117.444 47.149, 122.765 48.362, 123.257 " />
            <path fill="none" stroke-width="3.0" stroke-linecap="butt" stroke-opacity="1.0" stroke="rgb(0, 0, 0)" stroke-linejoin="round" d=" M 55.987, 100.851 46.214, 102.967 45.342, 103.156 41.091, 104.076 39.831, 104.349 33.824, 109.762 34.558, 111.294 " />
            <path fill="none" stroke-width="3.0" stroke-linecap="butt" stroke-opacity="1.0" stroke="rgb(0, 0, 0)" stroke-linejoin="round" d=" M 55.987, 100.851 58.132, 100.791 59.255, 100.760 59.946, 100.741 61.779, 100.690 70.544, 100.446 75.915, 100.297 77.900, 100.242 79.364, 100.201 81.510, 100.142 91.478, 100.939 101.446, 101.736 105.322, 102.046 110.065, 102.425 113.422, 102.693 117.441, 103.365 118.045, 103.465 124.749, 104.585 134.612, 106.233 144.475, 107.880 146.716, 108.254 156.389, 110.789 166.063, 113.323 175.657, 115.836 179.298, 117.307 184.032, 119.220 " />
            <path fill="none" stroke-width="3.0" stroke-linecap="butt" stroke-opacity="1.0" stroke="rgb(0, 0, 0)" stroke-linejoin="round" d=" M 41.030, 94.812 36.228, 98.695 33.061, 101.883 31.250, 104.711 30.080, 107.731 30.072, 110.190 30.536, 112.361 34.861, 116.443 37.540, 117.915 38.886, 117.444 38.927, 117.430 40.800, 116.775 42.101, 115.889 43.656, 114.828 45.241, 109.758 " />
            <path fill="none" stroke-width="3.0" stroke-linecap="butt" stroke-opacity="1.0" stroke="rgb(0, 0, 0)" stroke-linejoin="round" d=" M 33.266, 113.951 30.536, 112.361 " />
            <path fill="none" stroke-width="3.0" stroke-linecap="butt" stroke-opacity="1.0" stroke="rgb(0, 0, 0)" stroke-linejoin="round" d=" M 43.656, 114.828 39.928, 112.528 " />
            <path fill="none" stroke-width="3.0" stroke-linecap="butt" stroke-opacity="1.0" stroke="rgb(0, 0, 0)" stroke-linejoin="round" d=" M 40.834, 110.130 39.928, 112.528 36.508, 113.490 " />
            <path fill="none" stroke-width="3.0" stroke-linecap="butt" stroke-opacity="1.0" stroke="rgb(0, 0, 0)" stroke-linejoin="round" d=" M 57.462, 85.225 50.513, 88.504 42.187, 94.043 41.030, 94.812 47.286, 90.789 48.095, 90.346 56.869, 85.549 57.462, 85.225 58.976, 84.609 61.260, 83.680 " />
            <path fill="none" stroke-width="3.0" stroke-linecap="butt" stroke-opacity="1.0" stroke="rgb(0, 0, 0)" stroke-linejoin="round" d=" M 47.286, 90.789 49.352, 89.957 49.687, 89.822 53.544, 88.269 55.752, 87.380 57.519, 86.859 67.111, 84.029 67.295, 83.974 " />
            <path fill="none" stroke-width="3.0" stroke-linecap="butt" stroke-opacity="1.0" stroke="rgb(0, 0, 0)" stroke-linejoin="round" d=" M 67.495, 83.939 71.627, 83.535 71.742, 83.523 77.978, 82.913 80.458, 82.670 81.777, 82.639 87.688, 82.500 88.420, 82.534 89.263, 82.573 " />
            <path fill="none" stroke-width="3.0" stroke-linecap="butt" stroke-opacity="1.0" stroke="rgb(0, 0, 0)" stroke-linejoin="round" d=" M 179.298, 117.307 179.954, 118.914 181.908, 119.847 182.970, 120.354 183.106, 120.411 188.693, 122.752 196.810, 126.154 196.996, 126.030 197.878, 125.444 198.722, 124.883 199.012, 124.691 199.267, 123.585 199.847, 121.067 196.945, 116.517 192.330, 112.053 190.453, 110.237 185.623, 106.761 182.899, 104.801 178.213, 101.325 178.101, 101.242 176.686, 100.193 171.329, 97.035 168.156, 95.164 160.700, 92.050 159.468, 91.535 156.982, 90.497 147.437, 87.514 144.280, 86.528 134.667, 83.773 131.495, 82.864 121.638, 81.177 118.645, 80.665 109.235, 79.121 107.462, 78.830 " />
            <path fill="none" stroke-width="3.0" stroke-linecap="butt" stroke-opacity="1.0" stroke="rgb(0, 0, 0)" stroke-linejoin="round" d=" M 103.039, 83.666 107.687, 84.153 111.426, 84.545 111.705, 84.613 121.415, 87.002 128.064, 88.637 137.667, 91.426 141.175, 92.444 142.455, 92.816 151.783, 96.420 155.285, 97.773 164.446, 101.783 166.428, 102.650 174.792, 106.709 181.240, 110.305 184.944, 113.074 186.310, 114.095 187.300, 115.655 187.585, 116.105 188.196, 117.067 188.358, 118.191 188.562, 119.616 187.691, 120.165 187.177, 120.490 186.029, 121.214 " />
            <path fill="none" stroke-width="3.0" stroke-linecap="butt" stroke-opacity="1.0" stroke="rgb(0, 0, 0)" stroke-linejoin="round" d=" M 99.102, 80.450 99.461, 79.936 100.438, 78.539 102.895, 75.022 103.789, 71.954 104.025, 71.143 104.383, 69.914 104.614, 69.123 105.047, 67.637 105.235, 66.990 105.313, 66.722 105.849, 60.296 105.834, 57.877 105.828, 56.969 105.819, 55.594 105.818, 55.505 " />
            <path fill="none" stroke-width="3.0" stroke-linecap="butt" stroke-opacity="1.0" stroke="rgb(0, 0, 0)" stroke-linejoin="round" d=" M 76.872, 75.114 80.419, 77.458 82.813, 78.632 82.989, 78.719 83.932, 79.181 85.569, 79.983 93.082, 81.578 94.452, 81.321 99.102, 80.450 100.306, 81.886 101.809, 83.042 101.968, 83.165 103.421, 83.591 " />
            <path fill="none" stroke-width="3.0" stroke-linecap="butt" stroke-opacity="1.0" stroke="rgb(0, 0, 0)" stroke-linejoin="round" d=" M 54.223, 81.386 53.901, 80.026 " />
            <path fill="none" stroke-width="3.0" stroke-linecap="butt" stroke-opacity="1.0" stroke="rgb(0, 0, 0)" stroke-linejoin="round" d=" M 79.893, 77.918 77.628, 76.414 76.872, 75.114 72.529, 77.408 66.656, 79.813 61.464, 80.769 59.034, 81.216 53.901, 80.026 52.282, 74.834 " />
            <path fill="none" stroke-width="3.0" stroke-linecap="butt" stroke-opacity="1.0" stroke="rgb(0, 0, 0)" stroke-linejoin="round" d=" M 110.656, 62.775 110.908, 62.422 111.011, 62.277 111.225, 61.977 114.163, 57.854 114.514, 57.354 117.706, 52.794 118.837, 51.178 122.504, 45.530 122.938, 43.936 124.046, 39.868 124.096, 36.736 122.913, 34.509 119.435, 30.226 114.164, 27.759 111.232, 26.645 105.497, 25.510 103.089, 25.241 101.115, 25.020 " />
            <path fill="none" stroke-width="3.0" stroke-linecap="butt" stroke-opacity="1.0" stroke="rgb(0, 0, 0)" stroke-linejoin="round" d=" M 56.011, 56.585 53.327, 52.755 50.336, 47.667 48.914, 42.239 49.385, 36.715 53.736, 32.502 60.771, 28.971 66.460, 27.366 70.771, 26.485 73.361, 22.484 77.249, 17.294 83.325, 11.509 88.730, 8.824 93.341, 10.873 97.608, 16.118 99.827, 21.097 101.115, 25.020 " />
            <path fill="none" stroke-width="3.0" stroke-linecap="butt" stroke-opacity="1.0" stroke="rgb(0, 0, 0)" stroke-linejoin="round" d=" M 108.949, 58.554 107.822, 57.248 107.156, 56.477 105.847, 55.526 105.818, 55.505 105.877, 55.454 106.850, 54.612 110.343, 51.589 111.143, 50.763 115.793, 45.958 116.846, 44.313 119.628, 39.968 121.303, 33.970 117.901, 29.769 111.232, 26.645 " />
            <path fill="none" stroke-width="3.0" stroke-linecap="butt" stroke-opacity="1.0" stroke="rgb(0, 0, 0)" stroke-linejoin="round" d=" M 103.089, 25.241 102.154, 22.841 99.673, 17.995 98.249, 15.729 94.370, 10.970 89.670, 8.883 88.730, 8.824 " />
            <path fill="none" stroke-width="3.0" stroke-linecap="butt" stroke-opacity="1.0" stroke="rgb(0, 0, 0)" stroke-linejoin="round" d=" M 53.327, 52.755 56.103, 56.325 " />
            <path fill="none" stroke-width="3.0" stroke-linecap="butt" stroke-opacity="1.0" stroke="rgb(0, 0, 0)" stroke-linejoin="round" d=" M 191.352, 107.111 188.458, 97.539 186.302, 90.405 185.298, 89.331 184.090, 84.980 179.253, 76.228 177.985, 73.933 171.468, 66.349 170.346, 65.044 164.669, 59.605 156.732, 53.522 156.362, 53.238 149.145, 49.420 142.887, 47.203 138.184, 45.679 137.071, 45.319 130.627, 44.170 126.483, 43.987 124.275, 43.890 122.938, 43.936 " />
            <path fill="none" stroke-width="3.0" stroke-linecap="butt" stroke-opacity="1.0" stroke="rgb(0, 0, 0)" stroke-linejoin="round" d=" M 79.893, 77.918 81.468, 78.839 82.725, 79.574 82.778, 79.605 83.024, 79.749 84.511, 80.619 84.764, 80.767 87.322, 81.793 89.070, 82.495 89.263, 82.573 89.533, 82.681 90.783, 83.183 93.004, 83.657 97.834, 84.690 101.723, 83.925 103.039, 83.666 103.421, 83.591 103.709, 83.178 104.461, 82.102 106.767, 78.801 107.360, 77.952 107.434, 77.731 108.569, 74.348 108.718, 73.906 108.802, 73.655 108.851, 73.399 109.286, 71.113 109.502, 69.977 109.608, 69.422 110.219, 66.209 110.656, 62.775 110.752, 62.020 110.770, 61.873 110.851, 61.242 110.869, 61.100 " />
            <path fill="none" stroke-width="3.0" stroke-linecap="butt" stroke-opacity="1.0" stroke="rgb(0, 0, 0)" stroke-linejoin="round" d=" M 186.873, 104.224 183.015, 101.035 174.994, 97.448 166.748, 93.761 160.700, 92.050 " />
            <path fill="none" stroke-width="3.0" stroke-linecap="butt" stroke-opacity="1.0" stroke="rgb(0, 0, 0)" stroke-linejoin="round" d=" M 121.241, 70.120 119.695, 70.027 " />
            <path fill="none" stroke-width="3.0" stroke-linecap="butt" stroke-opacity="1.0" stroke="rgb(0, 0, 0)" stroke-linejoin="round" d=" M 121.241, 70.120 127.115, 71.039 134.528, 72.200 144.408, 73.746 144.995, 73.838 " />
            <path fill="none" stroke-width="3.0" stroke-linecap="butt" stroke-opacity="1.0" stroke="rgb(0, 0, 0)" stroke-linejoin="round" d=" M 138.184, 45.679 137.534, 44.812 134.199, 43.431 130.144, 42.979 126.979, 43.634 126.483, 43.987 " />
            <path fill="none" stroke-width="3.0" stroke-linecap="butt" stroke-opacity="1.0" stroke="rgb(0, 0, 0)" stroke-linejoin="round" d=" M 199.168, 142.402 200.723, 142.013 208.872, 137.369 209.738, 133.662 209.576, 126.912 205.750, 121.405 199.977, 114.286 192.289, 107.891 191.352, 107.111 190.429, 106.343 186.873, 104.224 185.003, 103.109 176.558, 99.358 171.329, 97.035 " />
            <path fill="none" stroke-width="3.0" stroke-linecap="butt" stroke-opacity="1.0" stroke="rgb(0, 0, 0)" stroke-linejoin="round" d=" M 199.267, 123.585 207.184, 129.695 208.647, 130.824 208.872, 137.369 " />
            <path fill="none" stroke-width="3.0" stroke-linecap="butt" stroke-opacity="1.0" stroke="rgb(0, 0, 0)" stroke-linejoin="round" d=" M 44.184, 93.992 43.582, 94.448 38.122, 98.530 32.061, 104.470 31.624, 108.131 " />
            <path fill="none" stroke-width="3.0" stroke-linecap="butt" stroke-opacity="1.0" stroke="rgb(0, 0, 0)" stroke-linejoin="round" d=" M 209.576, 126.912 201.773, 120.657 199.310, 118.683 " />
            <path fill="none" stroke-width="3.0" stroke-linecap="butt" stroke-opacity="1.0" stroke="rgb(0, 0, 0)" stroke-linejoin="round" d=" M 59.800, 83.338 58.976, 84.609 " />
            <path fill="none" stroke-width="3.0" stroke-linecap="butt" stroke-opacity="1.0" stroke="rgb(0, 0, 0)" stroke-linejoin="round" d=" M 107.243, 78.821 107.578, 77.692 108.569, 74.348 " />
            <path fill="none" stroke-width="3.0" stroke-linecap="butt" stroke-opacity="1.0" stroke="rgb(0, 0, 0)" stroke-linejoin="round" d=" M 108.718, 73.906 110.866, 73.817 " />
            <path fill="none" stroke-width="3.0" stroke-linecap="butt" stroke-opacity="1.0" stroke="rgb(0, 0, 0)" stroke-linejoin="round" d=" M 196.996, 126.030 201.540, 129.423 " />
        </g>
    </g>
</svg>
