<?xml version='1.0' encoding='ascii'?>
<svg xmlns="http://www.w3.org/2000/svg" version="1.1" width="250" height="250">
    <g id="ViewLayer_LineSet" xmlns:inkscape="http://www.inkscape.org/namespaces/inkscape" inkscape:groupmode="lineset" inkscape:label="ViewLayer_LineSet">
        <g xmlns:inkscape="http://www.inkscape.org/namespaces/inkscape" inkscape:groupmode="layer" id="strokes" inkscape:label="strokes">
            <path fill="none" stroke-width="3.0" stroke-linecap="butt" stroke-opacity="1.0" stroke="rgb(0, 0, 0)" stroke-linejoin="round" d=" M 142.931, 211.018 144.389, 210.690 148.935, 209.268 157.653, 205.226 159.507, 204.303 164.801, 201.150 171.541, 196.010 175.328, 192.417 175.394, 192.354 176.850, 190.972 176.903, 190.921 181.737, 185.310 185.990, 179.238 186.203, 178.857 189.709, 172.602 189.926, 172.101 192.576, 165.972 192.595, 165.914 194.783, 159.158 194.842, 158.923 196.389, 151.697 197.207, 144.373 197.288, 137.028 196.675, 130.147 196.638, 129.740 195.394, 123.091 193.854, 117.486 192.590, 114.134 192.433, 113.719 192.263, 113.267 191.345, 110.833 191.297, 110.706 191.295, 110.702 189.209, 106.501 189.165, 106.413 188.087, 104.242 187.309, 102.975 186.227, 101.255 " />
            <path fill="none" stroke-width="3.0" stroke-linecap="butt" stroke-opacity="1.0" stroke="rgb(0, 0, 0)" stroke-linejoin="round" d=" M 63.386, 182.603 64.781, 184.736 69.768, 190.133 " />
            <path fill="none" stroke-width="3.0" stroke-linecap="butt" stroke-opacity="1.0" stroke="rgb(0, 0, 0)" stroke-linejoin="round" d=" M 168.644, 148.698 169.214, 149.978 170.416, 151.762 172.004, 153.022 173.865, 153.780 175.489, 153.804 177.048, 153.327 178.705, 152.083 180.154, 150.429 181.196, 148.390 181.605, 147.019 " />
            <path fill="none" stroke-width="3.0" stroke-linecap="butt" stroke-opacity="1.0" stroke="rgb(0, 0, 0)" stroke-linejoin="round" d=" M 183.303, 96.001 184.095, 97.161 185.508, 99.716 186.227, 101.255 186.935, 102.771 188.320, 106.222 188.272, 106.286 189.497, 110.233 189.829, 111.303 189.848, 111.367 189.888, 111.495 190.639, 113.913 190.785, 114.451 190.902, 114.881 191.685, 117.762 192.285, 121.724 192.515, 125.468 192.515, 125.470 192.398, 128.822 191.982, 131.623 191.330, 133.729 190.509, 135.025 189.583, 135.438 188.601, 134.933 187.591, 133.520 186.568, 131.258 186.567, 131.256 185.528, 128.252 184.464, 124.647 183.369, 120.623 182.962, 119.082 182.799, 118.464 182.688, 118.045 182.248, 116.380 181.881, 114.999 181.134, 112.189 180.170, 108.209 179.422, 104.458 178.921, 101.081 178.900, 100.817 178.688, 98.204 178.727, 96.247 " />
            <path fill="none" stroke-width="3.0" stroke-linecap="butt" stroke-opacity="1.0" stroke="rgb(0, 0, 0)" stroke-linejoin="round" d=" M 167.545, 117.198 168.094, 119.811 168.453, 121.519 168.599, 122.901 168.656, 123.442 168.895, 125.693 168.868, 129.525 168.396, 132.835 167.521, 135.462 166.299, 137.279 164.792, 138.193 163.147, 138.454 162.948, 138.324 161.172, 137.163 159.178, 135.256 157.135, 132.525 155.098, 129.101 154.426, 127.754 154.173, 127.246 153.825, 126.550 153.128, 125.154 151.284, 120.879 149.652, 116.554 148.350, 112.341 147.422, 108.262 147.365, 107.849 147.357, 107.792 146.902, 104.472 146.809, 101.112 147.014, 99.388 " />
            <path fill="none" stroke-width="3.0" stroke-linecap="butt" stroke-opacity="1.0" stroke="rgb(0, 0, 0)" stroke-linejoin="round" d=" M 160.987, 139.918 164.792, 138.193 " />
            <path fill="none" stroke-width="3.0" stroke-linecap="butt" stroke-opacity="1.0" stroke="rgb(0, 0, 0)" stroke-linejoin="round" d=" M 157.528, 97.827 158.513, 98.865 160.670, 101.762 161.212, 102.681 161.301, 102.832 162.713, 105.229 164.604, 108.952 " />
            <path fill="none" stroke-width="3.0" stroke-linecap="butt" stroke-opacity="1.0" stroke="rgb(0, 0, 0)" stroke-linejoin="round" d=" M 163.763, 119.151 167.545, 117.198 167.394, 116.715 166.230, 112.990 164.604, 108.952 160.873, 110.995 " />
            <path fill="none" stroke-width="3.0" stroke-linecap="butt" stroke-opacity="1.0" stroke="rgb(0, 0, 0)" stroke-linejoin="round" d=" M 177.768, 193.931 177.399, 191.920 176.850, 190.972 " />
            <path fill="none" stroke-width="3.0" stroke-linecap="butt" stroke-opacity="1.0" stroke="rgb(0, 0, 0)" stroke-linejoin="round" d=" M 185.442, 220.299 186.588, 217.314 186.926, 216.435 187.562, 214.224 187.642, 210.444 187.158, 207.928 186.748, 206.285 186.107, 204.281 184.566, 200.422 180.617, 195.913 177.768, 193.931 177.243, 193.566 175.394, 192.354 " />
            <path fill="none" stroke-width="3.0" stroke-linecap="butt" stroke-opacity="1.0" stroke="rgb(0, 0, 0)" stroke-linejoin="round" d=" M 147.366, 224.471 151.080, 226.594 153.831, 227.169 160.731, 227.378 166.367, 227.515 171.972, 226.871 176.970, 225.852 180.100, 224.700 182.190, 222.984 185.442, 220.299 186.462, 217.714 186.588, 217.314 " />
            <path fill="none" stroke-width="3.0" stroke-linecap="butt" stroke-opacity="1.0" stroke="rgb(0, 0, 0)" stroke-linejoin="round" d=" M 69.768, 190.133 68.440, 191.128 65.722, 195.512 63.770, 198.939 62.534, 203.395 62.055, 207.561 62.598, 211.106 63.843, 214.876 65.513, 218.293 69.206, 222.933 72.178, 226.214 79.254, 231.508 87.792, 236.713 88.422, 237.097 97.519, 241.249 97.774, 241.365 100.888, 242.499 105.597, 243.449 114.102, 244.675 121.602, 245.038 129.256, 244.572 134.423, 243.512 138.191, 241.734 141.153, 239.718 144.278, 236.817 145.899, 232.496 147.103, 228.924 147.504, 225.269 147.366, 224.471 146.786, 221.104 145.931, 218.100 144.672, 213.901 142.931, 211.018 141.927, 209.357 " />
            <path fill="none" stroke-width="3.0" stroke-linecap="butt" stroke-opacity="1.0" stroke="rgb(0, 0, 0)" stroke-linejoin="round" d=" M 192.595, 165.914 193.608, 165.533 195.156, 164.739 195.862, 164.269 197.004, 163.455 197.248, 163.248 199.515, 161.236 201.780, 158.409 203.385, 154.975 203.714, 153.641 204.145, 151.884 204.562, 150.107 204.620, 147.866 204.452, 145.292 203.986, 143.406 203.229, 140.442 201.899, 137.286 199.317, 133.391 197.364, 130.963 196.675, 130.147 " />
            <path fill="none" stroke-width="3.0" stroke-linecap="butt" stroke-opacity="1.0" stroke="rgb(0, 0, 0)" stroke-linejoin="round" d=" M 52.994, 125.607 51.026, 126.757 48.033, 128.505 43.485, 132.117 39.169, 136.470 35.676, 140.361 35.482, 140.577 34.705, 141.443 30.388, 147.205 27.922, 151.934 26.232, 156.463 25.292, 161.109 25.262, 165.150 25.799, 168.882 26.945, 172.313 28.628, 175.452 29.215, 176.460 31.415, 179.342 34.073, 181.666 37.043, 183.551 38.316, 184.200 41.628, 185.552 45.315, 186.328 49.351, 186.565 54.065, 185.957 58.701, 184.607 63.386, 182.603 63.582, 182.519 69.615, 178.702 " />
            <path fill="none" stroke-width="3.0" stroke-linecap="butt" stroke-opacity="1.0" stroke="rgb(0, 0, 0)" stroke-linejoin="round" d=" M 145.338, 34.748 145.830, 39.243 147.424, 44.525 148.518, 46.480 149.283, 47.848 150.819, 50.594 151.907, 52.538 152.070, 52.829 152.332, 53.297 152.512, 53.600 154.170, 56.382 154.493, 56.924 154.990, 57.758 155.463, 58.552 155.981, 60.429 156.082, 60.794 156.567, 62.550 156.906, 63.672 156.940, 63.784 157.295, 64.960 157.437, 65.431 157.642, 66.111 157.924, 67.047 157.930, 67.067 158.606, 69.306 158.816, 70.002 159.379, 70.925 159.614, 71.311 159.637, 71.349 161.539, 74.470 163.289, 77.342 163.600, 77.537 165.251, 78.570 165.888, 78.969 166.191, 79.158 170.585, 80.408 172.472, 80.201 174.301, 79.999 175.489, 79.715 176.129, 79.561 177.657, 79.195 178.118, 79.084 178.333, 78.996 180.807, 77.989 180.950, 77.930 180.964, 77.925 181.084, 77.876 181.867, 77.483 182.322, 77.254 185.531, 75.641 189.113, 72.877 " />
            <path fill="none" stroke-width="3.0" stroke-linecap="butt" stroke-opacity="1.0" stroke="rgb(0, 0, 0)" stroke-linejoin="round" d=" M 174.029, 76.083 173.735, 76.348 172.487, 77.475 169.535, 78.726 169.533, 78.726 166.191, 79.158 " />
            <path fill="none" stroke-width="3.0" stroke-linecap="butt" stroke-opacity="1.0" stroke="rgb(0, 0, 0)" stroke-linejoin="round" d=" M 159.580, 71.347 159.379, 70.925 " />
            <path fill="none" stroke-width="3.0" stroke-linecap="butt" stroke-opacity="1.0" stroke="rgb(0, 0, 0)" stroke-linejoin="round" d=" M 200.020, 109.913 205.321, 106.333 206.306, 105.613 207.424, 104.797 209.594, 99.176 208.736, 95.403 203.547, 91.818 203.031, 91.462 " />
            <path fill="none" stroke-width="3.0" stroke-linecap="butt" stroke-opacity="1.0" stroke="rgb(0, 0, 0)" stroke-linejoin="round" d=" M 59.848, 120.870 51.542, 124.588 46.006, 127.065 43.183, 128.329 40.054, 130.877 34.529, 135.375 35.583, 140.332 35.676, 140.361 " />
            <path fill="none" stroke-width="3.0" stroke-linecap="butt" stroke-opacity="1.0" stroke="rgb(0, 0, 0)" stroke-linejoin="round" d=" M 39.150, 132.598 46.006, 127.065 " />
            <path fill="none" stroke-width="3.0" stroke-linecap="butt" stroke-opacity="1.0" stroke="rgb(0, 0, 0)" stroke-linejoin="round" d=" M 82.000, 113.545 90.338, 110.907 100.076, 108.632 109.813, 106.358 119.551, 104.083 123.474, 103.167 133.348, 101.582 143.221, 99.997 143.796, 99.904 147.014, 99.388 152.405, 98.522 156.055, 97.936 157.528, 97.827 167.500, 97.083 173.418, 96.642 173.751, 96.618 174.514, 96.561 175.572, 96.482 178.727, 96.247 182.641, 95.955 182.768, 95.964 183.303, 96.001 193.279, 96.695 195.107, 96.822 195.201, 96.829 196.594, 96.926 198.046, 97.027 199.979, 97.161 " />
            <path fill="none" stroke-width="3.0" stroke-linecap="butt" stroke-opacity="1.0" stroke="rgb(0, 0, 0)" stroke-linejoin="round" d=" M 205.321, 106.333 206.708, 102.438 207.252, 100.909 " />
            <path fill="none" stroke-width="3.0" stroke-linecap="butt" stroke-opacity="1.0" stroke="rgb(0, 0, 0)" stroke-linejoin="round" d=" M 154.044, 74.545 152.927, 74.557 150.747, 74.886 144.619, 75.811 143.115, 76.038 133.233, 77.572 131.331, 77.868 121.687, 80.513 119.052, 81.237 109.467, 84.090 108.764, 84.299 106.445, 84.989 97.133, 88.634 95.877, 89.125 94.864, 89.522 94.709, 89.582 85.924, 94.359 85.332, 94.681 78.393, 99.430 73.793, 102.494 69.896, 105.090 62.735, 111.707 59.062, 116.557 59.297, 118.934 59.308, 119.041 59.370, 119.670 59.445, 120.430 59.848, 120.870 60.892, 122.011 65.396, 120.519 66.673, 120.097 76.166, 116.952 77.244, 116.595 79.546, 115.724 81.733, 114.252 82.000, 113.545 " />
            <path fill="none" stroke-width="3.0" stroke-linecap="butt" stroke-opacity="1.0" stroke="rgb(0, 0, 0)" stroke-linejoin="round" d=" M 77.244, 116.595 76.026, 115.435 75.442, 114.880 76.232, 112.181 77.934, 110.052 78.740, 109.044 84.729, 105.080 92.089, 101.367 101.132, 97.244 110.358, 93.388 112.766, 92.382 122.133, 88.881 125.667, 87.561 135.283, 84.816 135.678, 84.703 139.316, 83.664 149.027, 81.278 153.585, 80.157 154.193, 80.008 156.182, 79.831 159.907, 79.500 165.114, 79.037 165.888, 78.969 " />
            <path fill="none" stroke-width="3.0" stroke-linecap="butt" stroke-opacity="1.0" stroke="rgb(0, 0, 0)" stroke-linejoin="round" d=" M 178.333, 78.996 179.280, 79.063 183.257, 79.784 186.351, 80.345 187.285, 80.514 188.369, 80.711 195.809, 84.364 200.634, 87.878 203.547, 91.818 " />
            <path fill="none" stroke-width="3.0" stroke-linecap="butt" stroke-opacity="1.0" stroke="rgb(0, 0, 0)" stroke-linejoin="round" d=" M 188.369, 80.711 184.559, 79.283 184.304, 79.187 182.485, 78.506 180.950, 77.930 " />
            <path fill="none" stroke-width="3.0" stroke-linecap="butt" stroke-opacity="1.0" stroke="rgb(0, 0, 0)" stroke-linejoin="round" d=" M 184.559, 79.283 184.231, 79.135 182.471, 78.483 180.964, 77.925 " />
            <path fill="none" stroke-width="3.0" stroke-linecap="butt" stroke-opacity="1.0" stroke="rgb(0, 0, 0)" stroke-linejoin="round" d=" M 192.263, 113.267 192.904, 113.510 193.495, 113.734 195.018, 114.310 202.925, 110.408 205.325, 108.913 206.002, 106.850 206.306, 105.613 " />
            <path fill="none" stroke-width="3.0" stroke-linecap="butt" stroke-opacity="1.0" stroke="rgb(0, 0, 0)" stroke-linejoin="round" d=" M 197.177, 109.021 200.020, 109.913 200.151, 109.955 " />
            <path fill="none" stroke-width="3.0" stroke-linecap="butt" stroke-opacity="1.0" stroke="rgb(0, 0, 0)" stroke-linejoin="round" d=" M 196.645, 107.061 196.744, 107.427 197.177, 109.021 191.345, 110.833 " />
            <path fill="none" stroke-width="3.0" stroke-linecap="butt" stroke-opacity="1.0" stroke="rgb(0, 0, 0)" stroke-linejoin="round" d=" M 147.837, 69.482 151.490, 69.617 152.470, 69.653 154.390, 67.064 154.422, 67.021 155.118, 66.083 155.194, 65.981 155.926, 64.993 156.305, 64.482 156.828, 63.778 156.906, 63.672 " />
            <path fill="none" stroke-width="3.0" stroke-linecap="butt" stroke-opacity="1.0" stroke="rgb(0, 0, 0)" stroke-linejoin="round" d=" M 148.518, 46.480 147.182, 46.518 147.047, 46.541 143.864, 47.078 141.410, 49.330 138.082, 54.190 137.789, 60.947 140.430, 65.374 140.498, 65.489 140.678, 65.790 142.898, 68.407 " />
            <path fill="none" stroke-width="3.0" stroke-linecap="butt" stroke-opacity="1.0" stroke="rgb(0, 0, 0)" stroke-linejoin="round" d=" M 182.322, 77.254 190.187, 79.724 194.896, 80.905 199.881, 80.549 203.526, 79.545 206.863, 78.403 207.661, 77.098 208.296, 72.202 207.073, 64.693 205.255, 58.815 203.610, 54.382 205.257, 51.101 206.897, 46.393 207.364, 41.294 206.454, 36.004 202.863, 31.727 197.353, 27.912 192.991, 26.006 189.699, 24.876 187.346, 20.831 183.885, 15.523 178.686, 9.442 174.287, 6.401 172.858, 6.390 169.469, 8.074 166.747, 10.493 163.601, 15.181 161.753, 18.129 160.044, 22.121 " />
            <path fill="none" stroke-width="3.0" stroke-linecap="butt" stroke-opacity="1.0" stroke="rgb(0, 0, 0)" stroke-linejoin="round" d=" M 190.276, 71.627 193.747, 73.991 198.336, 76.498 204.059, 78.078 207.661, 77.098 " />
            <path fill="none" stroke-width="3.0" stroke-linecap="butt" stroke-opacity="1.0" stroke="rgb(0, 0, 0)" stroke-linejoin="round" d=" M 189.113, 72.877 190.276, 71.627 188.676, 73.059 187.873, 73.777 184.271, 76.063 181.420, 76.743 181.250, 76.783 179.201, 77.272 179.196, 77.273 179.150, 77.284 178.750, 77.380 174.029, 76.083 173.666, 75.516 171.719, 72.477 170.526, 70.615 170.464, 70.431 170.127, 69.421 169.334, 67.049 169.291, 66.921 169.283, 66.897 169.276, 66.875 169.172, 66.564 168.775, 65.378 167.759, 62.339 167.576, 61.290 166.648, 55.971 166.647, 55.956 166.427, 53.860 166.153, 51.239 " />
            <path fill="none" stroke-width="3.0" stroke-linecap="butt" stroke-opacity="1.0" stroke="rgb(0, 0, 0)" stroke-linejoin="round" d=" M 166.504, 21.416 163.152, 21.600 160.044, 22.121 158.791, 22.332 153.875, 24.989 151.637, 28.960 153.626, 35.056 157.313, 41.250 159.548, 43.940 162.203, 47.136 163.752, 48.745 165.999, 51.079 166.153, 51.239 165.706, 51.475 164.428, 52.148 162.183, 53.528 161.159, 54.156 " />
            <path fill="none" stroke-width="3.0" stroke-linecap="butt" stroke-opacity="1.0" stroke="rgb(0, 0, 0)" stroke-linejoin="round" d=" M 174.287, 6.401 170.975, 8.054 168.254, 12.891 167.077, 17.637 166.504, 21.416 " />
            <path fill="none" stroke-width="3.0" stroke-linecap="butt" stroke-opacity="1.0" stroke="rgb(0, 0, 0)" stroke-linejoin="round" d=" M 158.791, 22.332 155.842, 23.246 151.936, 25.350 149.387, 27.584 " />
            <path fill="none" stroke-width="3.0" stroke-linecap="butt" stroke-opacity="1.0" stroke="rgb(0, 0, 0)" stroke-linejoin="round" d=" M 147.047, 46.541 144.186, 44.869 134.715, 41.659 132.975, 41.069 125.949, 39.579 117.544, 39.151 111.745, 39.071 111.009, 39.163 105.257, 39.879 98.805, 41.492 97.360, 42.059 93.111, 43.726 86.551, 46.968 79.732, 51.078 72.346, 57.820 71.492, 58.600 66.546, 64.003 60.631, 72.066 59.328, 73.842 55.141, 82.923 53.843, 85.736 52.819, 89.983 51.627, 91.176 49.602, 100.969 47.808, 109.646 " />
            <path fill="none" stroke-width="3.0" stroke-linecap="butt" stroke-opacity="1.0" stroke="rgb(0, 0, 0)" stroke-linejoin="round" d=" M 149.635, 29.405 147.148, 31.545 147.107, 31.581 145.338, 34.748 147.295, 31.102 149.387, 27.584 147.107, 31.581 " />
            <path fill="none" stroke-width="3.0" stroke-linecap="butt" stroke-opacity="1.0" stroke="rgb(0, 0, 0)" stroke-linejoin="round" d=" M 140.430, 65.374 138.484, 65.421 129.334, 66.530 119.407, 67.734 114.328, 68.349 " />
            <path fill="none" stroke-width="3.0" stroke-linecap="butt" stroke-opacity="1.0" stroke="rgb(0, 0, 0)" stroke-linejoin="round" d=" M 49.975, 108.082 55.156, 103.342 61.443, 100.193 70.408, 95.702 74.755, 94.217 84.217, 90.983 92.178, 88.263 101.904, 85.938 108.764, 84.299 " />
            <path fill="none" stroke-width="3.0" stroke-linecap="butt" stroke-opacity="1.0" stroke="rgb(0, 0, 0)" stroke-linejoin="round" d=" M 111.009, 39.163 110.455, 38.800 108.019, 37.945 104.098, 38.171 100.239, 39.398 97.969, 41.135 97.360, 42.059 " />
            <path fill="none" stroke-width="3.0" stroke-linecap="butt" stroke-opacity="1.0" stroke="rgb(0, 0, 0)" stroke-linejoin="round" d=" M 59.003, 114.043 53.512, 116.607 53.444, 116.639 51.642, 117.481 46.718, 119.780 39.503, 123.149 31.975, 129.731 30.830, 130.732 " />
            <path fill="none" stroke-width="3.0" stroke-linecap="butt" stroke-opacity="1.0" stroke="rgb(0, 0, 0)" stroke-linejoin="round" d=" M 95.877, 89.125 92.352, 89.966 82.883, 93.183 73.414, 96.399 70.673, 97.330 69.199, 97.831 62.064, 101.377 60.112, 102.347 53.074, 105.845 49.975, 108.082 47.808, 109.646 47.724, 109.707 40.355, 116.468 39.589, 117.172 34.234, 124.913 30.830, 130.732 32.162, 136.139 33.209, 139.883 35.482, 140.577 " />
            <path fill="none" stroke-width="3.0" stroke-linecap="butt" stroke-opacity="1.0" stroke="rgb(0, 0, 0)" stroke-linejoin="round" d=" M 33.209, 139.883 31.943, 134.708 39.616, 128.296 40.763, 127.338 42.273, 126.653 51.380, 122.523 52.113, 122.191 58.075, 119.488 59.120, 119.014 59.297, 118.934 " />
            <path fill="none" stroke-width="3.0" stroke-linecap="butt" stroke-opacity="1.0" stroke="rgb(0, 0, 0)" stroke-linejoin="round" d=" M 80.838, 111.905 81.688, 111.634 82.865, 111.259 89.738, 109.068 99.473, 106.784 109.209, 104.500 118.945, 102.216 123.491, 101.150 133.357, 99.520 143.224, 97.891 144.921, 97.610 147.532, 97.179 149.789, 96.806 155.421, 95.876 157.011, 95.614 166.985, 94.898 177.009, 94.179 178.347, 94.083 178.829, 94.049 179.260, 94.018 181.142, 93.883 181.478, 93.859 185.027, 93.604 194.249, 94.332 194.766, 94.373 203.059, 95.028 203.578, 95.358 205.963, 96.872 209.594, 99.176 " />
            <path fill="none" stroke-width="3.0" stroke-linecap="butt" stroke-opacity="1.0" stroke="rgb(0, 0, 0)" stroke-linejoin="round" d=" M 159.637, 71.349 159.580, 71.347 159.614, 71.311 " />
            <path fill="none" stroke-width="3.0" stroke-linecap="butt" stroke-opacity="1.0" stroke="rgb(0, 0, 0)" stroke-linejoin="round" d=" M 51.542, 124.588 51.026, 126.757 " />
            <path fill="none" stroke-width="3.0" stroke-linecap="butt" stroke-opacity="1.0" stroke="rgb(0, 0, 0)" stroke-linejoin="round" d=" M 151.490, 69.617 152.925, 72.385 154.044, 74.545 " />
            <path fill="none" stroke-width="3.0" stroke-linecap="butt" stroke-opacity="1.0" stroke="rgb(0, 0, 0)" stroke-linejoin="round" d=" M 154.390, 67.064 157.538, 67.066 157.930, 67.067 " />
            <path fill="none" stroke-width="3.0" stroke-linecap="butt" stroke-opacity="1.0" stroke="rgb(0, 0, 0)" stroke-linejoin="round" d=" M 158.606, 69.306 157.538, 67.066 " />
            <path fill="none" stroke-width="3.0" stroke-linecap="butt" stroke-opacity="1.0" stroke="rgb(0, 0, 0)" stroke-linejoin="round" d=" M 157.437, 65.431 156.317, 66.022 154.422, 67.021 " />
            <path fill="none" stroke-width="3.0" stroke-linecap="butt" stroke-opacity="1.0" stroke="rgb(0, 0, 0)" stroke-linejoin="round" d=" M 161.539, 74.470 157.442, 74.511 " />
            <path fill="none" stroke-width="3.0" stroke-linecap="butt" stroke-opacity="1.0" stroke="rgb(0, 0, 0)" stroke-linejoin="round" d=" M 182.471, 78.483 181.867, 77.483 " />
            <path fill="none" stroke-width="3.0" stroke-linecap="butt" stroke-opacity="1.0" stroke="rgb(0, 0, 0)" stroke-linejoin="round" d=" M 192.590, 114.134 193.495, 113.734 " />
            <path fill="none" stroke-width="3.0" stroke-linecap="butt" stroke-opacity="1.0" stroke="rgb(0, 0, 0)" stroke-linejoin="round" d=" M 195.201, 96.829 196.732, 97.590 201.947, 100.183 " />
        </g>
    </g>
</svg>
