<?xml version='1.0' encoding='ascii'?>
<svg xmlns="http://www.w3.org/2000/svg" version="1.1" width="250" height="250">
    <g id="ViewLayer_LineSet" xmlns:inkscape="http://www.inkscape.org/namespaces/inkscape" inkscape:groupmode="lineset" inkscape:label="ViewLayer_LineSet">
        <g xmlns:inkscape="http://www.inkscape.org/namespaces/inkscape" inkscape:groupmode="layer" id="strokes" inkscape:label="strokes">
            <path fill="none" stroke-width="3.0" stroke-linecap="butt" stroke-opacity="1.0" stroke="rgb(0, 0, 0)" stroke-linejoin="round" d=" M 164.338, 200.129 166.782, 198.353 173.735, 191.166 174.400, 190.479 176.397, 187.576 182.028, 179.312 182.729, 178.284 182.731, 178.280 " />
            <path fill="none" stroke-width="3.0" stroke-linecap="butt" stroke-opacity="1.0" stroke="rgb(0, 0, 0)" stroke-linejoin="round" d=" M 59.332, 100.034 57.985, 101.726 53.752, 108.831 49.944, 117.497 49.380, 119.324 48.445, 122.351 48.340, 122.693 48.005, 123.778 47.277, 126.135 46.025, 132.295 45.481, 138.679 45.255, 143.162 45.484, 148.823 45.964, 153.313 46.824, 157.963 47.671, 161.910 48.956, 166.210 50.620, 170.675 52.319, 174.502 52.588, 175.110 54.776, 179.324 57.091, 183.131 59.432, 186.358 62.363, 190.237 65.347, 193.526 69.458, 197.599 72.903, 200.319 78.079, 204.285 79.402, 205.074 84.042, 207.842 89.777, 210.430 93.585, 212.100 96.618, 212.979 " />
            <path fill="none" stroke-width="3.0" stroke-linecap="butt" stroke-opacity="1.0" stroke="rgb(0, 0, 0)" stroke-linejoin="round" d=" M 189.579, 125.975 188.811, 122.380 188.675, 122.028 " />
            <path fill="none" stroke-width="3.0" stroke-linecap="butt" stroke-opacity="1.0" stroke="rgb(0, 0, 0)" stroke-linejoin="round" d=" M 77.110, 151.690 77.664, 153.090 78.353, 154.136 79.027, 155.161 80.921, 156.822 83.116, 158.055 85.156, 158.502 87.250, 158.434 89.624, 157.612 91.672, 156.287 93.221, 154.444 93.936, 153.129 " />
            <path fill="none" stroke-width="3.0" stroke-linecap="butt" stroke-opacity="1.0" stroke="rgb(0, 0, 0)" stroke-linejoin="round" d=" M 117.438, 102.599 117.559, 103.007 118.012, 104.531 118.464, 107.922 118.504, 111.749 118.520, 111.818 117.446, 119.909 117.431, 120.020 117.402, 120.239 116.176, 124.454 114.672, 128.746 112.917, 132.743 110.977, 136.254 108.917, 139.106 108.744, 139.274 108.354, 139.654 106.809, 141.156 104.725, 142.301 102.736, 142.484 101.461, 141.928 100.916, 141.691 99.339, 139.955 98.274, 137.768 98.074, 137.356 98.046, 137.251 97.181, 134.016 96.708, 130.093 96.686, 125.778 97.122, 121.275 97.978, 116.861 98.205, 116.077 98.247, 115.930 99.181, 112.696 100.701, 108.792 102.480, 105.289 104.447, 102.313 105.356, 101.287 " />
            <path fill="none" stroke-width="3.0" stroke-linecap="butt" stroke-opacity="1.0" stroke="rgb(0, 0, 0)" stroke-linejoin="round" d=" M 77.310, 120.169 76.333, 124.463 76.144, 125.181 75.250, 128.573 74.329, 131.490 74.196, 131.910 74.074, 132.297 72.813, 135.448 71.474, 137.868 70.071, 139.437 68.923, 139.951 68.633, 140.081 67.222, 140.072 65.847, 138.532 64.639, 136.426 63.664, 133.564 63.002, 130.090 62.893, 128.583 62.858, 128.103 62.719, 126.180 62.857, 122.020 63.147, 119.866 63.415, 117.869 64.282, 113.868 65.399, 110.023 66.723, 106.470 67.379, 105.077 67.616, 104.572 68.200, 103.331 69.773, 100.714 70.578, 99.708 " />
            <path fill="none" stroke-width="3.0" stroke-linecap="butt" stroke-opacity="1.0" stroke="rgb(0, 0, 0)" stroke-linejoin="round" d=" M 67.222, 140.072 70.426, 141.448 " />
            <path fill="none" stroke-width="3.0" stroke-linecap="butt" stroke-opacity="1.0" stroke="rgb(0, 0, 0)" stroke-linejoin="round" d=" M 77.889, 99.496 78.527, 101.754 78.886, 104.670 78.996, 108.162 78.850, 109.927 78.827, 110.212 78.687, 111.907 " />
            <path fill="none" stroke-width="3.0" stroke-linecap="butt" stroke-opacity="1.0" stroke="rgb(0, 0, 0)" stroke-linejoin="round" d=" M 80.417, 122.108 77.310, 120.169 78.134, 115.962 78.687, 111.907 81.753, 113.940 " />
            <path fill="none" stroke-width="3.0" stroke-linecap="butt" stroke-opacity="1.0" stroke="rgb(0, 0, 0)" stroke-linejoin="round" d=" M 111.434, 195.997 106.473, 198.621 102.221, 202.066 99.285, 206.074 97.398, 210.054 96.618, 212.979 96.353, 213.970 95.982, 217.612 96.445, 221.485 97.977, 225.539 100.534, 228.467 104.292, 230.783 107.692, 232.036 113.410, 234.143 120.022, 236.085 126.331, 237.429 132.018, 238.493 137.846, 239.480 143.895, 240.263 153.876, 240.868 155.396, 240.960 160.408, 241.053 164.873, 240.434 168.656, 238.860 172.870, 234.914 175.202, 231.251 176.585, 227.331 176.983, 222.699 176.224, 217.709 173.774, 211.542 172.769, 209.795 168.324, 203.608 164.338, 200.129 162.739, 198.734 157.035, 195.762 " />
            <path fill="none" stroke-width="3.0" stroke-linecap="butt" stroke-opacity="1.0" stroke="rgb(0, 0, 0)" stroke-linejoin="round" d=" M 79.402, 205.074 78.866, 208.115 78.956, 210.997 79.022, 216.038 79.620, 218.463 81.654, 223.311 82.854, 225.539 86.255, 229.015 90.506, 231.724 94.674, 232.960 96.735, 233.118 100.956, 233.286 106.436, 232.519 107.692, 232.036 " />
            <path fill="none" stroke-width="3.0" stroke-linecap="butt" stroke-opacity="1.0" stroke="rgb(0, 0, 0)" stroke-linejoin="round" d=" M 182.731, 178.280 185.909, 179.698 188.708, 180.479 192.885, 181.597 196.711, 182.068 200.437, 181.849 205.175, 180.622 207.403, 179.610 207.899, 179.342 209.623, 178.272 212.237, 176.230 214.707, 173.549 216.698, 170.223 217.894, 167.111 218.406, 165.159 218.665, 163.517 218.801, 162.226 218.830, 159.351 218.155, 155.991 217.672, 153.802 216.280, 150.075 214.185, 146.184 210.405, 141.443 206.952, 137.873 206.554, 137.462 206.413, 137.316 202.488, 133.668 200.463, 131.932 196.291, 129.003 191.716, 126.727 189.579, 125.975 " />
            <path fill="none" stroke-width="3.0" stroke-linecap="butt" stroke-opacity="1.0" stroke="rgb(0, 0, 0)" stroke-linejoin="round" d=" M 48.005, 123.778 44.312, 125.755 40.096, 128.831 36.116, 132.568 32.067, 136.858 28.173, 141.853 25.839, 145.943 24.256, 149.848 23.396, 153.871 23.337, 157.373 23.805, 160.664 24.826, 163.742 26.333, 166.524 26.601, 167.001 28.597, 169.636 30.964, 171.769 33.621, 173.538 36.519, 174.865 39.702, 175.709 43.188, 176.104 47.294, 175.798 51.386, 174.843 52.319, 174.502 " />
            <path fill="none" stroke-width="3.0" stroke-linecap="butt" stroke-opacity="1.0" stroke="rgb(0, 0, 0)" stroke-linejoin="round" d=" M 116.254, 72.200 119.502, 69.717 119.509, 69.703 119.664, 69.388 119.700, 69.314 121.353, 65.954 122.339, 63.360 122.319, 59.681 121.303, 57.019 119.399, 53.306 117.691, 52.057 " />
            <path fill="none" stroke-width="3.0" stroke-linecap="butt" stroke-opacity="1.0" stroke="rgb(0, 0, 0)" stroke-linejoin="round" d=" M 56.099, 55.573 56.006, 55.835 54.485, 60.136 52.846, 66.225 52.277, 74.078 52.567, 75.339 54.218, 80.629 56.707, 81.865 59.870, 82.603 61.386, 82.957 61.850, 83.065 65.733, 83.502 71.584, 82.478 71.742, 82.450 74.110, 81.846 77.305, 81.031 82.724, 78.874 82.795, 78.846 " />
            <path fill="none" stroke-width="3.0" stroke-linecap="butt" stroke-opacity="1.0" stroke="rgb(0, 0, 0)" stroke-linejoin="round" d=" M 33.816, 111.982 31.617, 107.494 32.798, 106.356 37.497, 101.826 41.770, 100.751 49.598, 98.782 53.186, 97.879 57.089, 97.747 59.110, 97.679 61.262, 97.607 71.257, 97.270 73.399, 97.198 76.043, 97.109 76.062, 97.109 79.965, 96.977 89.934, 97.761 99.903, 98.545 107.579, 99.149 113.674, 99.628 116.285, 100.083 116.353, 100.095 126.204, 101.812 136.056, 103.529 145.907, 105.246 147.659, 105.552 157.323, 108.121 166.987, 110.690 176.652, 113.259 177.066, 113.369 178.187, 113.830 178.952, 114.145 183.050, 115.830 185.918, 117.009 " />
            <path fill="none" stroke-width="3.0" stroke-linecap="butt" stroke-opacity="1.0" stroke="rgb(0, 0, 0)" stroke-linejoin="round" d=" M 206.554, 137.462 206.644, 137.410 206.273, 131.105 200.103, 126.425 197.895, 124.751 " />
            <path fill="none" stroke-width="3.0" stroke-linecap="butt" stroke-opacity="1.0" stroke="rgb(0, 0, 0)" stroke-linejoin="round" d=" M 39.015, 108.129 40.878, 106.510 44.983, 102.945 54.754, 100.819 58.214, 100.066 " />
            <path fill="none" stroke-width="3.0" stroke-linecap="butt" stroke-opacity="1.0" stroke="rgb(0, 0, 0)" stroke-linejoin="round" d=" M 38.876, 116.855 47.145, 122.208 48.340, 122.693 " />
            <path fill="none" stroke-width="3.0" stroke-linecap="butt" stroke-opacity="1.0" stroke="rgb(0, 0, 0)" stroke-linejoin="round" d=" M 55.983, 100.131 46.215, 102.270 45.432, 102.442 41.090, 103.393 39.824, 103.670 33.817, 109.126 34.555, 110.678 " />
            <path fill="none" stroke-width="3.0" stroke-linecap="butt" stroke-opacity="1.0" stroke="rgb(0, 0, 0)" stroke-linejoin="round" d=" M 55.983, 100.131 58.214, 100.066 59.332, 100.034 59.774, 100.021 61.613, 99.968 70.578, 99.708 75.985, 99.551 77.889, 99.496 79.294, 99.455 81.510, 99.391 91.479, 100.184 101.447, 100.976 105.356, 101.287 110.131, 101.666 113.429, 101.928 117.438, 102.599 118.022, 102.696 127.886, 104.345 130.593, 104.798 140.456, 106.447 146.729, 107.495 156.401, 110.037 166.072, 112.578 175.675, 115.102 179.309, 116.576 184.184, 118.554 " />
            <path fill="none" stroke-width="3.0" stroke-linecap="butt" stroke-opacity="1.0" stroke="rgb(0, 0, 0)" stroke-linejoin="round" d=" M 41.024, 94.147 36.221, 98.044 33.054, 101.242 31.242, 104.080 30.072, 107.108 30.065, 109.570 30.529, 111.744 34.855, 115.851 37.534, 117.324 38.876, 116.855 38.910, 116.843 40.795, 116.185 42.080, 115.309 43.651, 114.237 45.236, 109.162 " />
            <path fill="none" stroke-width="3.0" stroke-linecap="butt" stroke-opacity="1.0" stroke="rgb(0, 0, 0)" stroke-linejoin="round" d=" M 33.259, 113.334 30.529, 111.744 " />
            <path fill="none" stroke-width="3.0" stroke-linecap="butt" stroke-opacity="1.0" stroke="rgb(0, 0, 0)" stroke-linejoin="round" d=" M 43.651, 114.237 39.923, 111.910 " />
            <path fill="none" stroke-width="3.0" stroke-linecap="butt" stroke-opacity="1.0" stroke="rgb(0, 0, 0)" stroke-linejoin="round" d=" M 40.819, 109.536 39.923, 111.910 36.502, 112.873 " />
            <path fill="none" stroke-width="3.0" stroke-linecap="butt" stroke-opacity="1.0" stroke="rgb(0, 0, 0)" stroke-linejoin="round" d=" M 57.459, 84.562 50.508, 87.854 42.175, 93.383 41.024, 94.147 47.281, 90.108 48.256, 89.577 57.036, 84.792 57.459, 84.562 59.013, 83.926 61.386, 82.957 " />
            <path fill="none" stroke-width="3.0" stroke-linecap="butt" stroke-opacity="1.0" stroke="rgb(0, 0, 0)" stroke-linejoin="round" d=" M 47.281, 90.108 49.459, 89.227 49.724, 89.120 53.408, 87.630 55.749, 86.684 57.578, 86.141 67.165, 83.299 67.371, 83.237 77.322, 82.252 78.162, 82.169 80.459, 81.941 81.785, 81.909 87.690, 81.765 88.606, 81.807 89.375, 81.841 " />
            <path fill="none" stroke-width="3.0" stroke-linecap="butt" stroke-opacity="1.0" stroke="rgb(0, 0, 0)" stroke-linejoin="round" d=" M 179.309, 116.576 179.973, 118.203 182.113, 119.220 182.989, 119.637 183.336, 119.783 188.675, 122.028 196.832, 125.460 197.000, 125.348 197.895, 124.751 198.721, 124.201 199.034, 123.992 199.288, 122.889 199.869, 120.365 196.967, 115.810 192.330, 111.324 190.473, 109.528 184.904, 105.517 182.919, 104.087 178.383, 100.722 177.932, 100.387 176.704, 99.476 171.482, 96.395 168.173, 94.443 160.855, 91.384 159.079, 90.642 156.997, 89.772 147.452, 86.789 144.293, 85.802 134.679, 83.047 131.505, 82.138 121.648, 80.453 118.653, 79.942 109.243, 78.400 107.468, 78.110 " />
            <path fill="none" stroke-width="3.0" stroke-linecap="butt" stroke-opacity="1.0" stroke="rgb(0, 0, 0)" stroke-linejoin="round" d=" M 102.945, 82.912 107.701, 83.408 111.432, 83.797 111.910, 83.915 121.621, 86.301 128.073, 87.886 137.677, 90.674 141.499, 91.783 142.468, 92.064 151.795, 95.669 155.300, 97.024 164.460, 101.036 166.445, 101.905 174.810, 105.968 181.260, 109.568 184.904, 112.296 186.330, 113.363 187.348, 114.969 187.659, 115.458 188.217, 116.339 188.397, 117.591 188.583, 118.890 187.680, 119.461 187.188, 119.773 186.049, 120.493 " />
            <path fill="none" stroke-width="3.0" stroke-linecap="butt" stroke-opacity="1.0" stroke="rgb(0, 0, 0)" stroke-linejoin="round" d=" M 99.106, 79.652 99.313, 79.357 100.386, 77.821 102.900, 74.224 103.740, 71.341 104.006, 70.428 104.361, 69.213 104.593, 68.415 105.028, 66.922 105.240, 66.196 105.319, 65.925 105.855, 59.501 105.840, 57.181 105.834, 56.246 105.825, 54.853 105.824, 54.712 " />
            <path fill="none" stroke-width="3.0" stroke-linecap="butt" stroke-opacity="1.0" stroke="rgb(0, 0, 0)" stroke-linejoin="round" d=" M 76.872, 74.337 80.419, 76.677 82.971, 77.926 83.012, 77.946 84.077, 78.467 85.570, 79.197 93.086, 80.785 96.381, 80.165 99.106, 79.652 100.311, 81.092 101.903, 82.324 101.973, 82.379 103.426, 82.817 " />
            <path fill="none" stroke-width="3.0" stroke-linecap="butt" stroke-opacity="1.0" stroke="rgb(0, 0, 0)" stroke-linejoin="round" d=" M 54.218, 80.629 53.897, 79.266 " />
            <path fill="none" stroke-width="3.0" stroke-linecap="butt" stroke-opacity="1.0" stroke="rgb(0, 0, 0)" stroke-linejoin="round" d=" M 79.893, 77.153 77.628, 75.641 76.872, 74.337 72.528, 76.633 66.654, 79.042 61.569, 79.982 59.031, 80.451 53.897, 79.266 52.277, 74.078 " />
            <path fill="none" stroke-width="3.0" stroke-linecap="butt" stroke-opacity="1.0" stroke="rgb(0, 0, 0)" stroke-linejoin="round" d=" M 110.660, 62.023 110.905, 61.680 110.992, 61.557 111.214, 61.246 114.170, 57.097 114.507, 56.615 117.691, 52.057 118.846, 50.404 122.513, 44.754 122.905, 43.315 124.055, 39.093 124.106, 35.951 122.922, 33.715 119.444, 29.436 114.172, 26.975 111.238, 25.860 105.503, 24.729 103.088, 24.461 101.119, 24.243 " />
            <path fill="none" stroke-width="3.0" stroke-linecap="butt" stroke-opacity="1.0" stroke="rgb(0, 0, 0)" stroke-linejoin="round" d=" M 56.006, 55.835 53.323, 52.007 50.331, 46.923 48.909, 41.499 49.380, 35.976 53.731, 31.762 60.768, 28.227 66.458, 26.617 70.770, 25.733 73.360, 21.732 77.249, 16.540 83.326, 10.753 88.733, 8.064 93.344, 10.108 97.612, 15.348 99.831, 20.323 101.119, 24.243 " />
            <path fill="none" stroke-width="3.0" stroke-linecap="butt" stroke-opacity="1.0" stroke="rgb(0, 0, 0)" stroke-linejoin="round" d=" M 108.955, 57.774 107.775, 56.400 107.162, 55.687 105.870, 54.745 105.824, 54.712 105.918, 54.630 106.832, 53.839 110.350, 50.794 111.082, 50.037 115.800, 45.161 116.741, 43.692 119.637, 39.170 121.312, 33.173 117.909, 28.977 111.238, 25.860 " />
            <path fill="none" stroke-width="3.0" stroke-linecap="butt" stroke-opacity="1.0" stroke="rgb(0, 0, 0)" stroke-linejoin="round" d=" M 103.088, 24.461 102.159, 22.079 99.677, 17.237 98.253, 14.963 94.373, 10.209 89.672, 8.127 88.733, 8.064 " />
            <path fill="none" stroke-width="3.0" stroke-linecap="butt" stroke-opacity="1.0" stroke="rgb(0, 0, 0)" stroke-linejoin="round" d=" M 53.323, 52.007 56.099, 55.573 " />
            <path fill="none" stroke-width="3.0" stroke-linecap="butt" stroke-opacity="1.0" stroke="rgb(0, 0, 0)" stroke-linejoin="round" d=" M 191.353, 106.414 188.458, 96.842 186.319, 89.773 185.315, 88.700 184.107, 84.351 179.267, 75.601 178.001, 73.311 171.480, 65.730 170.361, 64.429 164.683, 58.972 156.739, 52.897 156.374, 52.617 149.157, 48.789 142.898, 46.589 138.167, 45.053 137.080, 44.700 130.635, 43.551 126.524, 43.371 124.282, 43.273 122.905, 43.315 " />
            <path fill="none" stroke-width="3.0" stroke-linecap="butt" stroke-opacity="1.0" stroke="rgb(0, 0, 0)" stroke-linejoin="round" d=" M 79.893, 77.153 81.555, 78.123 82.742, 78.816 82.795, 78.846 83.145, 79.050 84.532, 79.860 84.766, 79.996 87.474, 81.080 89.198, 81.771 89.375, 81.841 89.750, 81.992 90.785, 82.406 93.274, 82.940 97.838, 83.920 101.485, 83.200 102.945, 82.912 103.426, 82.817 103.681, 82.451 104.428, 81.383 106.735, 78.080 107.366, 77.178 107.380, 77.135 108.706, 73.186 108.713, 73.166 108.808, 72.883 108.828, 72.779 109.264, 70.489 109.496, 69.272 109.602, 68.713 110.226, 65.439 110.660, 62.023 110.750, 61.317 110.771, 61.149 110.850, 60.529 110.875, 60.332 " />
            <path fill="none" stroke-width="3.0" stroke-linecap="butt" stroke-opacity="1.0" stroke="rgb(0, 0, 0)" stroke-linejoin="round" d=" M 186.797, 103.488 183.033, 100.362 174.935, 96.728 166.764, 93.060 160.855, 91.384 " />
            <path fill="none" stroke-width="3.0" stroke-linecap="butt" stroke-opacity="1.0" stroke="rgb(0, 0, 0)" stroke-linejoin="round" d=" M 121.249, 69.406 119.700, 69.314 " />
            <path fill="none" stroke-width="3.0" stroke-linecap="butt" stroke-opacity="1.0" stroke="rgb(0, 0, 0)" stroke-linejoin="round" d=" M 121.249, 69.406 128.433, 70.533 133.711, 71.360 143.591, 72.909 145.008, 73.131 " />
            <path fill="none" stroke-width="3.0" stroke-linecap="butt" stroke-opacity="1.0" stroke="rgb(0, 0, 0)" stroke-linejoin="round" d=" M 138.167, 45.053 137.543, 44.219 134.208, 42.835 130.152, 42.383 126.986, 43.042 126.524, 43.371 " />
            <path fill="none" stroke-width="3.0" stroke-linecap="butt" stroke-opacity="1.0" stroke="rgb(0, 0, 0)" stroke-linejoin="round" d=" M 206.952, 137.873 208.893, 136.758 209.759, 133.051 209.598, 126.257 205.771, 120.754 199.997, 113.640 192.325, 107.227 191.353, 106.414 190.449, 105.658 186.797, 103.488 185.021, 102.432 176.493, 98.629 171.482, 96.395 " />
            <path fill="none" stroke-width="3.0" stroke-linecap="butt" stroke-opacity="1.0" stroke="rgb(0, 0, 0)" stroke-linejoin="round" d=" M 199.288, 122.889 207.188, 129.020 208.669, 130.169 208.893, 136.758 " />
            <path fill="none" stroke-width="3.0" stroke-linecap="butt" stroke-opacity="1.0" stroke="rgb(0, 0, 0)" stroke-linejoin="round" d=" M 44.262, 93.254 43.576, 93.773 38.115, 97.850 32.054, 103.835 31.617, 107.494 " />
            <path fill="none" stroke-width="3.0" stroke-linecap="butt" stroke-opacity="1.0" stroke="rgb(0, 0, 0)" stroke-linejoin="round" d=" M 209.598, 126.257 201.812, 119.982 199.332, 117.984 " />
            <path fill="none" stroke-width="3.0" stroke-linecap="butt" stroke-opacity="1.0" stroke="rgb(0, 0, 0)" stroke-linejoin="round" d=" M 59.870, 82.603 59.013, 83.926 " />
            <path fill="none" stroke-width="3.0" stroke-linecap="butt" stroke-opacity="1.0" stroke="rgb(0, 0, 0)" stroke-linejoin="round" d=" M 107.248, 78.101 107.549, 77.088 108.707, 73.186 " />
            <path fill="none" stroke-width="3.0" stroke-linecap="butt" stroke-opacity="1.0" stroke="rgb(0, 0, 0)" stroke-linejoin="round" d=" M 108.706, 73.186 108.707, 73.186 110.874, 73.105 " />
            <path fill="none" stroke-width="3.0" stroke-linecap="butt" stroke-opacity="1.0" stroke="rgb(0, 0, 0)" stroke-linejoin="round" d=" M 197.000, 125.348 201.561, 128.772 " />
        </g>
    </g>
</svg>
