<?xml version='1.0' encoding='ascii'?>
<svg xmlns="http://www.w3.org/2000/svg" version="1.1" width="250" height="250">
    <g id="ViewLayer_LineSet" xmlns:inkscape="http://www.inkscape.org/namespaces/inkscape" inkscape:groupmode="lineset" inkscape:label="ViewLayer_LineSet">
        <g xmlns:inkscape="http://www.inkscape.org/namespaces/inkscape" inkscape:groupmode="layer" id="strokes" inkscape:label="strokes">
            <path fill="none" stroke-width="3.0" stroke-linecap="butt" stroke-opacity="1.0" stroke="rgb(0, 0, 0)" stroke-linejoin="round" d=" M 165.355, 199.428 166.781, 198.392 173.734, 191.205 174.399, 190.518 176.396, 187.614 182.028, 179.351 182.692, 178.376 " />
            <path fill="none" stroke-width="3.0" stroke-linecap="butt" stroke-opacity="1.0" stroke="rgb(0, 0, 0)" stroke-linejoin="round" d=" M 59.327, 100.080 57.985, 101.766 53.752, 108.871 49.944, 117.536 49.382, 119.359 48.447, 122.387 48.341, 122.729 48.007, 123.810 47.277, 126.175 46.025, 132.335 45.481, 138.718 45.256, 143.201 45.485, 148.862 45.964, 153.352 46.825, 158.003 47.671, 161.949 48.957, 166.250 50.620, 170.714 52.280, 174.454 52.589, 175.149 54.777, 179.363 57.091, 183.170 59.432, 186.397 62.363, 190.276 65.347, 193.565 69.458, 197.638 72.903, 200.359 78.079, 204.324 78.909, 204.819 84.042, 207.881 89.777, 210.468 93.585, 212.139 97.511, 213.277 " />
            <path fill="none" stroke-width="3.0" stroke-linecap="butt" stroke-opacity="1.0" stroke="rgb(0, 0, 0)" stroke-linejoin="round" d=" M 189.585, 126.046 188.810, 122.420 188.676, 122.074 " />
            <path fill="none" stroke-width="3.0" stroke-linecap="butt" stroke-opacity="1.0" stroke="rgb(0, 0, 0)" stroke-linejoin="round" d=" M 77.110, 151.734 77.664, 153.135 78.355, 154.185 79.027, 155.206 80.921, 156.867 83.116, 158.100 85.156, 158.547 87.250, 158.480 89.624, 157.657 91.672, 156.333 93.221, 154.490 93.936, 153.175 " />
            <path fill="none" stroke-width="3.0" stroke-linecap="butt" stroke-opacity="1.0" stroke="rgb(0, 0, 0)" stroke-linejoin="round" d=" M 117.438, 102.647 117.554, 103.039 118.012, 104.577 118.464, 107.968 118.504, 111.795 118.520, 111.864 117.447, 119.942 117.433, 120.052 117.402, 120.285 116.175, 124.501 114.671, 128.792 112.917, 132.790 110.976, 136.301 108.917, 139.152 108.758, 139.307 108.367, 139.687 106.809, 141.202 104.724, 142.348 102.735, 142.530 101.461, 141.975 100.916, 141.737 99.339, 140.001 98.266, 137.798 98.073, 137.402 98.041, 137.281 97.180, 134.062 96.708, 130.139 96.686, 125.824 97.122, 121.321 97.978, 116.907 98.208, 116.111 98.250, 115.963 99.180, 112.742 100.701, 108.838 102.479, 105.335 104.447, 102.358 105.354, 101.335 " />
            <path fill="none" stroke-width="3.0" stroke-linecap="butt" stroke-opacity="1.0" stroke="rgb(0, 0, 0)" stroke-linejoin="round" d=" M 77.310, 120.214 76.333, 124.509 76.166, 125.143 75.250, 128.619 74.333, 131.523 74.200, 131.944 74.074, 132.342 72.813, 135.493 71.474, 137.913 70.071, 139.482 68.923, 139.996 68.633, 140.126 67.222, 140.117 65.847, 138.577 64.639, 136.471 63.664, 133.608 63.002, 130.135 62.892, 128.616 62.858, 128.136 62.719, 126.224 62.857, 122.064 63.152, 119.874 63.416, 117.913 64.282, 113.912 65.399, 110.067 66.723, 106.513 67.382, 105.114 67.620, 104.609 68.201, 103.375 69.773, 100.758 70.576, 99.754 " />
            <path fill="none" stroke-width="3.0" stroke-linecap="butt" stroke-opacity="1.0" stroke="rgb(0, 0, 0)" stroke-linejoin="round" d=" M 67.222, 140.117 70.426, 141.492 " />
            <path fill="none" stroke-width="3.0" stroke-linecap="butt" stroke-opacity="1.0" stroke="rgb(0, 0, 0)" stroke-linejoin="round" d=" M 77.890, 99.543 78.527, 101.798 78.886, 104.715 78.996, 108.207 78.851, 109.962 78.828, 110.246 78.687, 111.952 " />
            <path fill="none" stroke-width="3.0" stroke-linecap="butt" stroke-opacity="1.0" stroke="rgb(0, 0, 0)" stroke-linejoin="round" d=" M 80.417, 122.153 77.310, 120.214 78.134, 116.007 78.687, 111.952 81.753, 113.985 " />
            <path fill="none" stroke-width="3.0" stroke-linecap="butt" stroke-opacity="1.0" stroke="rgb(0, 0, 0)" stroke-linejoin="round" d=" M 113.255, 194.026 108.202, 196.434 103.870, 199.671 100.859, 203.510 98.899, 207.365 97.772, 211.194 97.511, 213.277 97.323, 214.779 97.696, 218.629 99.089, 222.713 101.592, 225.702 105.349, 228.112 109.168, 230.303 109.354, 230.409 114.455, 232.700 121.031, 234.615 127.251, 236.092 133.074, 237.235 138.659, 238.256 144.678, 239.024 154.654, 239.710 156.089, 239.808 161.081, 239.879 165.527, 239.247 169.290, 237.684 173.483, 233.773 175.803, 230.141 177.180, 226.253 177.579, 221.654 176.829, 216.697 174.398, 210.570 173.426, 208.742 169.010, 202.605 165.355, 199.428 163.459, 197.781 159.421, 195.836 153.085, 192.861 " />
            <path fill="none" stroke-width="3.0" stroke-linecap="butt" stroke-opacity="1.0" stroke="rgb(0, 0, 0)" stroke-linejoin="round" d=" M 78.909, 204.819 78.211, 207.737 78.070, 210.858 77.981, 214.978 78.380, 217.687 79.455, 220.366 81.274, 224.446 84.584, 227.551 88.788, 230.017 90.920, 230.874 94.939, 232.026 99.217, 232.245 104.799, 231.688 109.168, 230.303 " />
            <path fill="none" stroke-width="3.0" stroke-linecap="butt" stroke-opacity="1.0" stroke="rgb(0, 0, 0)" stroke-linejoin="round" d=" M 182.692, 178.376 185.943, 179.831 188.645, 180.621 192.860, 181.757 196.723, 182.243 200.490, 182.040 205.212, 180.827 207.475, 179.822 207.945, 179.555 209.677, 178.489 212.306, 176.453 214.794, 173.775 216.805, 170.449 218.019, 167.334 218.541, 165.379 218.779, 163.734 218.953, 162.441 218.960, 159.560 217.854, 153.996 216.439, 150.257 214.316, 146.352 210.497, 141.593 206.930, 137.923 206.531, 137.513 206.468, 137.448 202.511, 133.786 200.590, 132.046 196.386, 129.105 191.778, 126.817 189.585, 126.046 " />
            <path fill="none" stroke-width="3.0" stroke-linecap="butt" stroke-opacity="1.0" stroke="rgb(0, 0, 0)" stroke-linejoin="round" d=" M 48.007, 123.810 44.398, 125.735 40.186, 128.799 36.210, 132.522 32.168, 136.796 28.283, 141.772 25.954, 145.848 24.375, 149.740 23.516, 153.752 23.458, 157.246 23.924, 160.531 24.943, 163.606 25.162, 164.076 26.657, 166.865 28.649, 169.501 31.011, 171.638 33.663, 173.414 36.552, 174.749 39.723, 175.603 43.195, 176.011 47.289, 175.721 51.371, 174.783 52.280, 174.454 " />
            <path fill="none" stroke-width="3.0" stroke-linecap="butt" stroke-opacity="1.0" stroke="rgb(0, 0, 0)" stroke-linejoin="round" d=" M 116.254, 72.245 119.502, 69.763 119.512, 69.742 119.664, 69.433 119.700, 69.359 121.353, 66.000 122.338, 63.405 122.319, 59.726 121.302, 57.065 119.398, 53.352 117.692, 52.103 " />
            <path fill="none" stroke-width="3.0" stroke-linecap="butt" stroke-opacity="1.0" stroke="rgb(0, 0, 0)" stroke-linejoin="round" d=" M 56.100, 55.620 56.007, 55.883 54.485, 60.183 52.846, 66.273 52.277, 74.125 52.567, 75.387 54.219, 80.677 56.707, 81.912 59.866, 82.650 61.378, 83.002 61.851, 83.113 65.733, 83.549 71.540, 82.533 71.742, 82.498 74.129, 81.889 77.305, 81.079 82.723, 78.922 82.794, 78.894 " />
            <path fill="none" stroke-width="3.0" stroke-linecap="butt" stroke-opacity="1.0" stroke="rgb(0, 0, 0)" stroke-linejoin="round" d=" M 33.816, 112.021 31.617, 107.534 32.798, 106.396 37.498, 101.869 41.767, 100.796 49.591, 98.829 53.187, 97.925 57.099, 97.793 59.111, 97.725 61.257, 97.653 71.251, 97.318 73.390, 97.246 76.047, 97.157 76.067, 97.156 79.965, 97.025 89.934, 97.809 99.903, 98.594 107.575, 99.197 113.674, 99.677 116.286, 100.132 116.354, 100.144 126.206, 101.861 136.057, 103.578 145.909, 105.295 147.658, 105.600 157.322, 108.169 166.987, 110.737 176.651, 113.306 177.065, 113.416 178.187, 113.877 178.957, 114.194 183.049, 115.876 185.910, 117.052 " />
            <path fill="none" stroke-width="3.0" stroke-linecap="butt" stroke-opacity="1.0" stroke="rgb(0, 0, 0)" stroke-linejoin="round" d=" M 206.531, 137.513 206.643, 137.448 206.272, 131.146 200.104, 126.470 197.894, 124.794 " />
            <path fill="none" stroke-width="3.0" stroke-linecap="butt" stroke-opacity="1.0" stroke="rgb(0, 0, 0)" stroke-linejoin="round" d=" M 39.015, 108.169 40.879, 106.551 44.983, 102.988 54.755, 100.863 58.209, 100.112 " />
            <path fill="none" stroke-width="3.0" stroke-linecap="butt" stroke-opacity="1.0" stroke="rgb(0, 0, 0)" stroke-linejoin="round" d=" M 38.877, 116.892 47.145, 122.243 48.341, 122.729 " />
            <path fill="none" stroke-width="3.0" stroke-linecap="butt" stroke-opacity="1.0" stroke="rgb(0, 0, 0)" stroke-linejoin="round" d=" M 55.983, 100.176 46.215, 102.314 45.426, 102.487 41.090, 103.436 39.825, 103.713 33.817, 109.166 34.555, 110.717 " />
            <path fill="none" stroke-width="3.0" stroke-linecap="butt" stroke-opacity="1.0" stroke="rgb(0, 0, 0)" stroke-linejoin="round" d=" M 55.983, 100.176 58.209, 100.112 59.327, 100.080 59.785, 100.066 61.623, 100.013 70.576, 99.754 75.980, 99.598 77.890, 99.543 79.298, 99.502 81.510, 99.438 91.479, 100.231 101.447, 101.024 105.354, 101.335 110.126, 101.714 113.428, 101.977 117.438, 102.647 118.024, 102.745 127.887, 104.394 130.422, 104.817 140.285, 106.466 146.728, 107.543 156.400, 110.084 166.072, 112.625 175.674, 115.148 179.308, 116.622 184.176, 118.597 " />
            <path fill="none" stroke-width="3.0" stroke-linecap="butt" stroke-opacity="1.0" stroke="rgb(0, 0, 0)" stroke-linejoin="round" d=" M 41.024, 94.189 36.222, 98.085 33.055, 101.282 31.243, 104.120 30.073, 107.147 30.065, 109.609 30.529, 111.782 34.855, 115.889 37.535, 117.361 38.877, 116.892 38.911, 116.880 40.795, 116.222 42.081, 115.345 43.651, 114.274 45.237, 109.200 " />
            <path fill="none" stroke-width="3.0" stroke-linecap="butt" stroke-opacity="1.0" stroke="rgb(0, 0, 0)" stroke-linejoin="round" d=" M 33.260, 113.373 30.529, 111.782 " />
            <path fill="none" stroke-width="3.0" stroke-linecap="butt" stroke-opacity="1.0" stroke="rgb(0, 0, 0)" stroke-linejoin="round" d=" M 43.651, 114.274 39.923, 111.949 " />
            <path fill="none" stroke-width="3.0" stroke-linecap="butt" stroke-opacity="1.0" stroke="rgb(0, 0, 0)" stroke-linejoin="round" d=" M 40.820, 109.573 39.923, 111.949 36.502, 112.912 " />
            <path fill="none" stroke-width="3.0" stroke-linecap="butt" stroke-opacity="1.0" stroke="rgb(0, 0, 0)" stroke-linejoin="round" d=" M 57.459, 84.603 50.508, 87.895 42.176, 93.425 41.024, 94.189 47.281, 90.151 48.246, 89.625 57.026, 84.839 57.459, 84.603 59.011, 83.969 61.378, 83.002 " />
            <path fill="none" stroke-width="3.0" stroke-linecap="butt" stroke-opacity="1.0" stroke="rgb(0, 0, 0)" stroke-linejoin="round" d=" M 47.281, 90.151 49.453, 89.273 49.722, 89.164 53.415, 87.671 55.749, 86.727 57.574, 86.186 67.162, 83.345 67.371, 83.282 77.323, 82.297 78.150, 82.215 80.459, 81.987 81.784, 81.955 87.690, 81.811 88.595, 81.852 89.367, 81.887 " />
            <path fill="none" stroke-width="3.0" stroke-linecap="butt" stroke-opacity="1.0" stroke="rgb(0, 0, 0)" stroke-linejoin="round" d=" M 179.308, 116.622 179.972, 118.247 182.100, 119.260 182.988, 119.682 183.322, 119.823 188.676, 122.074 196.830, 125.504 196.999, 125.391 197.894, 124.794 198.721, 124.244 199.033, 124.036 199.286, 122.933 199.867, 120.409 196.965, 115.855 192.330, 111.370 190.472, 109.573 184.947, 105.594 182.917, 104.132 178.373, 100.760 177.943, 100.441 176.703, 99.521 171.472, 96.435 168.172, 94.488 160.845, 91.426 159.104, 90.698 156.996, 89.817 147.451, 86.835 144.292, 85.848 134.679, 83.093 131.505, 82.184 121.647, 80.499 118.652, 79.987 109.242, 78.446 107.467, 78.155 " />
            <path fill="none" stroke-width="3.0" stroke-linecap="butt" stroke-opacity="1.0" stroke="rgb(0, 0, 0)" stroke-linejoin="round" d=" M 102.951, 82.959 107.700, 83.455 111.432, 83.844 111.897, 83.959 121.608, 86.345 128.073, 87.933 137.676, 90.721 141.479, 91.825 142.467, 92.112 151.795, 95.717 155.299, 97.071 164.459, 101.083 166.444, 101.952 174.809, 106.014 181.258, 109.615 184.907, 112.345 186.329, 113.409 187.345, 115.012 187.654, 115.499 188.216, 116.385 188.394, 117.629 188.582, 118.936 187.681, 119.506 187.187, 119.818 186.048, 120.539 " />
            <path fill="none" stroke-width="3.0" stroke-linecap="butt" stroke-opacity="1.0" stroke="rgb(0, 0, 0)" stroke-linejoin="round" d=" M 99.106, 79.703 99.322, 79.394 100.390, 77.866 102.900, 74.274 103.743, 71.380 104.008, 70.473 104.362, 69.257 104.595, 68.459 105.030, 66.967 105.239, 66.246 105.318, 65.975 105.854, 59.551 105.840, 57.225 105.834, 56.291 105.825, 54.900 105.824, 54.762 " />
            <path fill="none" stroke-width="3.0" stroke-linecap="butt" stroke-opacity="1.0" stroke="rgb(0, 0, 0)" stroke-linejoin="round" d=" M 76.872, 74.386 80.419, 76.726 82.961, 77.970 83.010, 77.994 84.068, 78.512 85.570, 79.247 93.085, 80.835 96.257, 80.238 99.106, 79.703 100.310, 81.142 101.897, 82.370 101.973, 82.429 103.426, 82.865 " />
            <path fill="none" stroke-width="3.0" stroke-linecap="butt" stroke-opacity="1.0" stroke="rgb(0, 0, 0)" stroke-linejoin="round" d=" M 54.219, 80.677 53.897, 79.314 " />
            <path fill="none" stroke-width="3.0" stroke-linecap="butt" stroke-opacity="1.0" stroke="rgb(0, 0, 0)" stroke-linejoin="round" d=" M 79.893, 77.201 77.628, 75.689 76.872, 74.386 72.528, 76.682 66.654, 79.091 61.562, 80.032 59.031, 80.499 53.897, 79.314 52.277, 74.125 " />
            <path fill="none" stroke-width="3.0" stroke-linecap="butt" stroke-opacity="1.0" stroke="rgb(0, 0, 0)" stroke-linejoin="round" d=" M 110.660, 62.071 110.905, 61.727 110.993, 61.603 111.215, 61.292 114.170, 57.145 114.507, 56.662 117.692, 52.103 118.845, 50.453 122.512, 44.803 122.907, 43.354 124.054, 39.142 124.105, 36.000 122.922, 33.765 119.443, 29.486 114.171, 27.024 111.238, 25.909 105.502, 24.778 103.088, 24.510 101.119, 24.292 " />
            <path fill="none" stroke-width="3.0" stroke-linecap="butt" stroke-opacity="1.0" stroke="rgb(0, 0, 0)" stroke-linejoin="round" d=" M 56.007, 55.883 53.323, 52.054 50.331, 46.970 48.910, 41.545 49.380, 36.023 53.732, 31.809 60.768, 28.274 66.458, 26.664 70.770, 25.780 73.361, 21.779 77.249, 16.588 83.326, 10.800 88.732, 8.112 93.344, 10.157 97.612, 15.396 99.831, 20.372 101.119, 24.292 " />
            <path fill="none" stroke-width="3.0" stroke-linecap="butt" stroke-opacity="1.0" stroke="rgb(0, 0, 0)" stroke-linejoin="round" d=" M 108.955, 57.823 107.778, 56.453 107.162, 55.736 105.869, 54.794 105.824, 54.762 105.916, 54.682 106.833, 53.888 110.349, 50.844 111.086, 50.083 115.800, 45.211 116.748, 43.731 119.636, 39.220 121.312, 33.223 117.908, 29.027 111.238, 25.909 " />
            <path fill="none" stroke-width="3.0" stroke-linecap="butt" stroke-opacity="1.0" stroke="rgb(0, 0, 0)" stroke-linejoin="round" d=" M 103.088, 24.510 102.159, 22.127 99.677, 17.285 98.253, 15.011 94.373, 10.257 89.672, 8.175 88.732, 8.112 " />
            <path fill="none" stroke-width="3.0" stroke-linecap="butt" stroke-opacity="1.0" stroke="rgb(0, 0, 0)" stroke-linejoin="round" d=" M 53.323, 52.054 56.100, 55.620 " />
            <path fill="none" stroke-width="3.0" stroke-linecap="butt" stroke-opacity="1.0" stroke="rgb(0, 0, 0)" stroke-linejoin="round" d=" M 191.353, 106.458 188.458, 96.886 186.318, 89.813 185.314, 88.740 184.106, 84.391 179.266, 75.640 178.000, 73.350 171.479, 65.769 170.360, 64.468 164.682, 59.011 156.739, 52.936 156.373, 52.656 149.156, 48.829 142.897, 46.627 138.168, 45.092 137.080, 44.739 130.634, 43.590 126.522, 43.410 124.282, 43.311 122.907, 43.354 " />
            <path fill="none" stroke-width="3.0" stroke-linecap="butt" stroke-opacity="1.0" stroke="rgb(0, 0, 0)" stroke-linejoin="round" d=" M 79.893, 77.201 81.550, 78.168 82.741, 78.863 82.794, 78.894 83.137, 79.094 84.531, 79.908 84.766, 80.045 87.465, 81.125 89.190, 81.816 89.367, 81.887 89.736, 82.035 90.785, 82.455 93.257, 82.986 97.838, 83.968 101.500, 83.245 102.951, 82.959 103.426, 82.865 103.683, 82.497 104.430, 81.428 106.737, 78.125 107.365, 77.227 107.383, 77.173 108.704, 73.240 108.707, 73.231 108.808, 72.931 108.829, 72.818 109.265, 70.528 109.496, 69.316 109.603, 68.758 110.225, 65.488 110.660, 62.071 110.750, 61.362 110.771, 61.194 110.850, 60.574 110.875, 60.381 " />
            <path fill="none" stroke-width="3.0" stroke-linecap="butt" stroke-opacity="1.0" stroke="rgb(0, 0, 0)" stroke-linejoin="round" d=" M 186.802, 103.534 183.032, 100.404 174.939, 96.773 166.763, 93.104 160.845, 91.426 " />
            <path fill="none" stroke-width="3.0" stroke-linecap="butt" stroke-opacity="1.0" stroke="rgb(0, 0, 0)" stroke-linejoin="round" d=" M 121.249, 69.451 119.700, 69.359 " />
            <path fill="none" stroke-width="3.0" stroke-linecap="butt" stroke-opacity="1.0" stroke="rgb(0, 0, 0)" stroke-linejoin="round" d=" M 121.249, 69.451 128.351, 70.565 133.763, 71.413 143.643, 72.962 145.007, 73.176 " />
            <path fill="none" stroke-width="3.0" stroke-linecap="butt" stroke-opacity="1.0" stroke="rgb(0, 0, 0)" stroke-linejoin="round" d=" M 138.168, 45.092 137.543, 44.256 134.207, 42.872 130.152, 42.421 126.986, 43.080 126.522, 43.410 " />
            <path fill="none" stroke-width="3.0" stroke-linecap="butt" stroke-opacity="1.0" stroke="rgb(0, 0, 0)" stroke-linejoin="round" d=" M 206.930, 137.923 208.892, 136.797 209.757, 133.090 209.597, 126.298 205.770, 120.795 199.996, 113.681 192.323, 107.269 191.353, 106.458 190.448, 105.702 186.802, 103.534 185.020, 102.475 176.497, 98.675 171.472, 96.435 " />
            <path fill="none" stroke-width="3.0" stroke-linecap="butt" stroke-opacity="1.0" stroke="rgb(0, 0, 0)" stroke-linejoin="round" d=" M 199.286, 122.933 207.188, 129.062 208.668, 130.210 208.892, 136.797 " />
            <path fill="none" stroke-width="3.0" stroke-linecap="butt" stroke-opacity="1.0" stroke="rgb(0, 0, 0)" stroke-linejoin="round" d=" M 44.257, 93.301 43.577, 93.816 38.116, 97.893 32.054, 103.875 31.617, 107.534 " />
            <path fill="none" stroke-width="3.0" stroke-linecap="butt" stroke-opacity="1.0" stroke="rgb(0, 0, 0)" stroke-linejoin="round" d=" M 209.597, 126.298 201.809, 120.025 199.330, 118.028 " />
            <path fill="none" stroke-width="3.0" stroke-linecap="butt" stroke-opacity="1.0" stroke="rgb(0, 0, 0)" stroke-linejoin="round" d=" M 59.866, 82.650 59.011, 83.969 " />
            <path fill="none" stroke-width="3.0" stroke-linecap="butt" stroke-opacity="1.0" stroke="rgb(0, 0, 0)" stroke-linejoin="round" d=" M 107.248, 78.146 107.551, 77.126 108.704, 73.240 " />
            <path fill="none" stroke-width="3.0" stroke-linecap="butt" stroke-opacity="1.0" stroke="rgb(0, 0, 0)" stroke-linejoin="round" d=" M 108.707, 73.231 110.873, 73.150 " />
            <path fill="none" stroke-width="3.0" stroke-linecap="butt" stroke-opacity="1.0" stroke="rgb(0, 0, 0)" stroke-linejoin="round" d=" M 196.999, 125.391 201.560, 128.813 " />
        </g>
    </g>
</svg>
