<?xml version='1.0' encoding='ascii'?>
<svg xmlns="http://www.w3.org/2000/svg" version="1.1" width="250" height="250">
    <g id="ViewLayer_LineSet" xmlns:inkscape="http://www.inkscape.org/namespaces/inkscape" inkscape:groupmode="lineset" inkscape:label="ViewLayer_LineSet">
        <g xmlns:inkscape="http://www.inkscape.org/namespaces/inkscape" inkscape:groupmode="layer" id="strokes" inkscape:label="strokes">
            <path fill="none" stroke-width="3.0" stroke-linecap="butt" stroke-opacity="1.0" stroke="rgb(0, 0, 0)" stroke-linejoin="round" d=" M 137.208, 211.892 137.967, 211.742 140.556, 211.158 145.199, 210.109 149.780, 208.706 156.139, 205.873 162.541, 202.581 169.659, 197.719 175.792, 192.412 180.599, 187.196 182.165, 185.371 183.668, 183.329 186.025, 180.126 187.507, 177.705 190.212, 172.926 191.327, 170.717 192.496, 168.053 193.653, 165.076 194.735, 161.951 195.681, 158.850 196.441, 155.944 196.973, 153.392 197.694, 148.275 198.109, 145.218 198.239, 138.936 198.262, 136.173 197.835, 131.377 " />
            <path fill="none" stroke-width="3.0" stroke-linecap="butt" stroke-opacity="1.0" stroke="rgb(0, 0, 0)" stroke-linejoin="round" d=" M 51.551, 130.900 50.973, 138.751 50.976, 139.535 " />
            <path fill="none" stroke-width="3.0" stroke-linecap="butt" stroke-opacity="1.0" stroke="rgb(0, 0, 0)" stroke-linejoin="round" d=" M 180.903, 146.634 181.358, 147.868 182.278, 149.574 183.476, 150.759 184.892, 151.445 186.105, 151.422 187.246, 150.913 188.155, 149.952 188.433, 149.658 " />
            <path fill="none" stroke-width="3.0" stroke-linecap="butt" stroke-opacity="1.0" stroke="rgb(0, 0, 0)" stroke-linejoin="round" d=" M 188.433, 149.658 188.811, 149.202 189.778, 147.713 190.410, 145.896 190.724, 144.630 190.793, 144.170 190.964, 143.705 " />
            <path fill="none" stroke-width="3.0" stroke-linecap="butt" stroke-opacity="1.0" stroke="rgb(0, 0, 0)" stroke-linejoin="round" d=" M 188.235, 95.655 188.570, 96.214 189.391, 97.804 189.847, 98.686 190.149, 99.339 191.211, 101.640 192.484, 104.684 192.606, 104.975 192.555, 105.037 193.495, 107.701 193.655, 108.156 193.756, 108.441 194.198, 109.694 195.153, 112.399 196.434, 116.110 197.315, 119.933 197.868, 123.549 198.109, 126.793 198.073, 129.508 197.835, 131.377 197.812, 131.556 197.383, 132.826 196.833, 133.244 196.198, 132.774 195.492, 131.427 194.714, 129.256 193.848, 126.362 192.874, 122.885 191.779, 118.999 190.565, 114.897 189.499, 111.554 189.271, 110.841 189.122, 110.365 189.099, 110.292 188.979, 109.911 188.730, 109.121 188.469, 108.290 188.058, 106.984 188.000, 106.782 187.763, 105.968 187.318, 104.437 187.000, 103.344 186.140, 100.063 185.695, 98.063 185.516, 97.263 185.302, 95.945 " />
            <path fill="none" stroke-width="3.0" stroke-linecap="butt" stroke-opacity="1.0" stroke="rgb(0, 0, 0)" stroke-linejoin="round" d=" M 179.809, 115.898 180.939, 120.103 181.618, 124.168 181.629, 124.351 181.844, 127.908 181.639, 131.147 181.045, 133.730 180.117, 135.530 178.911, 136.458 177.562, 136.752 176.285, 135.831 175.874, 135.534 174.128, 133.712 172.279, 131.079 170.364, 127.762 168.424, 123.923 166.511, 119.754 166.233, 119.101 165.982, 118.510 164.753, 115.624 164.710, 115.524 164.428, 114.766 163.173, 111.395 161.957, 107.386 161.112, 103.655 160.671, 100.343 160.664, 99.450 " />
            <path fill="none" stroke-width="3.0" stroke-linecap="butt" stroke-opacity="1.0" stroke="rgb(0, 0, 0)" stroke-linejoin="round" d=" M 174.301, 138.248 178.911, 136.458 " />
            <path fill="none" stroke-width="3.0" stroke-linecap="butt" stroke-opacity="1.0" stroke="rgb(0, 0, 0)" stroke-linejoin="round" d=" M 170.039, 97.719 170.343, 98.045 172.470, 100.871 174.530, 104.251 176.523, 107.875 " />
            <path fill="none" stroke-width="3.0" stroke-linecap="butt" stroke-opacity="1.0" stroke="rgb(0, 0, 0)" stroke-linejoin="round" d=" M 175.261, 117.869 179.809, 115.898 179.232, 114.336 179.022, 113.769 178.296, 111.805 177.846, 110.807 176.523, 107.875 172.021, 109.922 " />
            <path fill="none" stroke-width="3.0" stroke-linecap="butt" stroke-opacity="1.0" stroke="rgb(0, 0, 0)" stroke-linejoin="round" d=" M 188.428, 188.871 186.609, 185.957 183.668, 183.329 " />
            <path fill="none" stroke-width="3.0" stroke-linecap="butt" stroke-opacity="1.0" stroke="rgb(0, 0, 0)" stroke-linejoin="round" d=" M 140.556, 211.158 145.243, 214.149 153.748, 219.409 155.713, 220.624 165.121, 224.013 171.720, 226.391 174.124, 226.800 180.969, 226.298 186.291, 226.000 192.374, 224.818 196.803, 223.423 199.326, 222.057 202.651, 219.055 204.007, 217.212 205.440, 213.169 205.340, 208.928 204.918, 207.172 203.769, 203.051 201.607, 198.807 200.227, 197.431 195.933, 193.195 192.236, 190.931 188.428, 188.871 186.944, 188.068 " />
            <path fill="none" stroke-width="3.0" stroke-linecap="butt" stroke-opacity="1.0" stroke="rgb(0, 0, 0)" stroke-linejoin="round" d=" M 57.965, 190.602 56.427, 193.502 55.418, 197.643 54.949, 202.113 55.033, 205.479 56.230, 208.768 58.977, 213.797 61.517, 217.203 66.413, 222.820 74.226, 229.061 75.195, 229.836 83.456, 235.472 85.763, 237.045 94.659, 241.612 96.860, 242.742 99.207, 243.525 104.949, 245.190 113.073, 246.486 119.966, 246.802 126.635, 246.133 130.919, 244.853 134.496, 243.452 137.457, 241.415 139.833, 237.944 141.217, 234.765 142.056, 231.095 142.109, 226.773 141.826, 222.917 140.841, 218.761 138.115, 213.518 137.208, 211.892 " />
            <path fill="none" stroke-width="3.0" stroke-linecap="butt" stroke-opacity="1.0" stroke="rgb(0, 0, 0)" stroke-linejoin="round" d=" M 66.857, 125.372 60.990, 128.513 56.965, 131.894 53.388, 136.045 50.976, 139.535 50.059, 140.863 48.689, 142.850 47.498, 144.764 47.370, 144.970 45.414, 148.113 42.753, 154.111 41.303, 158.887 40.455, 163.307 40.324, 165.421 40.380, 169.532 41.083, 172.927 42.001, 175.982 43.122, 178.600 44.841, 181.531 46.352, 183.298 48.640, 185.610 52.983, 188.619 55.307, 189.558 57.965, 190.602 58.086, 190.649 60.966, 191.059 64.519, 191.440 68.035, 191.226 71.091, 190.374 71.504, 190.246 75.268, 189.085 79.303, 187.104 83.449, 184.348 88.225, 179.885 " />
            <path fill="none" stroke-width="3.0" stroke-linecap="butt" stroke-opacity="1.0" stroke="rgb(0, 0, 0)" stroke-linejoin="round" d=" M 161.081, 39.306 162.797, 44.550 163.662, 46.394 164.069, 47.261 164.341, 47.841 164.973, 49.190 165.132, 49.528 165.177, 49.625 166.222, 51.820 166.849, 53.136 167.383, 54.258 167.632, 54.782 167.636, 54.789 168.615, 56.911 169.545, 58.927 169.837, 59.561 170.122, 60.430 170.184, 60.618 170.379, 61.214 171.209, 63.746 171.313, 64.065 171.502, 64.639 171.590, 64.907 171.933, 65.955 172.127, 66.548 172.155, 66.630 172.188, 66.733 172.246, 66.909 172.345, 67.130 172.404, 67.260 172.405, 67.261 173.251, 69.135 173.525, 69.741 173.727, 70.076 176.443, 74.575 177.878, 76.953 181.242, 78.327 181.504, 78.433 182.269, 78.746 182.885, 78.974 183.978, 79.380 185.565, 79.969 186.625, 79.880 186.959, 79.853 190.191, 79.582 190.799, 79.383 191.216, 79.246 193.762, 78.411 194.877, 78.035 196.367, 77.532 199.094, 75.781 201.413, 73.575 202.891, 71.500 " />
            <path fill="none" stroke-width="3.0" stroke-linecap="butt" stroke-opacity="1.0" stroke="rgb(0, 0, 0)" stroke-linejoin="round" d=" M 191.766, 75.781 190.890, 76.511 190.145, 77.130 187.644, 77.981 186.597, 78.338 182.735, 78.702 182.269, 78.746 " />
            <path fill="none" stroke-width="3.0" stroke-linecap="butt" stroke-opacity="1.0" stroke="rgb(0, 0, 0)" stroke-linejoin="round" d=" M 168.187, 71.018 165.766, 66.796 " />
            <path fill="none" stroke-width="3.0" stroke-linecap="butt" stroke-opacity="1.0" stroke="rgb(0, 0, 0)" stroke-linejoin="round" d=" M 173.251, 69.135 172.351, 69.971 172.296, 70.022 171.046, 71.184 168.187, 71.018 170.006, 69.398 170.836, 68.659 172.405, 67.261 " />
            <path fill="none" stroke-width="3.0" stroke-linecap="butt" stroke-opacity="1.0" stroke="rgb(0, 0, 0)" stroke-linejoin="round" d=" M 193.655, 108.156 199.061, 105.521 200.292, 104.922 202.233, 103.422 209.080, 97.998 208.394, 94.053 206.592, 90.326 201.622, 86.120 199.184, 84.733 193.171, 81.312 " />
            <path fill="none" stroke-width="3.0" stroke-linecap="butt" stroke-opacity="1.0" stroke="rgb(0, 0, 0)" stroke-linejoin="round" d=" M 76.677, 121.070 67.313, 124.580 57.949, 128.090 54.513, 129.378 51.551, 130.900 42.980, 135.304 40.869, 136.388 39.794, 136.941 35.314, 142.125 39.773, 144.766 " />
            <path fill="none" stroke-width="3.0" stroke-linecap="butt" stroke-opacity="1.0" stroke="rgb(0, 0, 0)" stroke-linejoin="round" d=" M 66.213, 103.991 64.598, 104.666 61.422, 105.992 57.776, 108.138 49.158, 113.210 48.937, 113.340 48.800, 113.421 47.046, 114.902 43.478, 117.914 39.167, 123.780 34.320, 131.896 31.453, 137.848 32.642, 141.725 37.432, 144.482 39.773, 144.766 47.370, 144.970 " />
            <path fill="none" stroke-width="3.0" stroke-linecap="butt" stroke-opacity="1.0" stroke="rgb(0, 0, 0)" stroke-linejoin="round" d=" M 39.695, 139.012 42.980, 135.304 " />
            <path fill="none" stroke-width="3.0" stroke-linecap="butt" stroke-opacity="1.0" stroke="rgb(0, 0, 0)" stroke-linejoin="round" d=" M 98.882, 114.201 98.917, 114.190 99.447, 114.030 99.458, 114.027 109.032, 111.140 110.488, 110.701 120.202, 108.327 129.916, 105.952 139.630, 103.578 143.731, 102.575 153.565, 100.760 155.960, 100.318 156.100, 100.292 156.146, 100.284 156.234, 100.267 160.664, 99.450 164.541, 98.734 170.039, 97.719 173.092, 97.156 178.884, 96.582 180.809, 96.391 184.327, 96.042 185.302, 95.945 188.235, 95.655 189.561, 95.523 190.340, 95.446 194.081, 95.075 194.219, 95.061 " />
            <path fill="none" stroke-width="3.0" stroke-linecap="butt" stroke-opacity="1.0" stroke="rgb(0, 0, 0)" stroke-linejoin="round" d=" M 200.292, 104.922 206.865, 99.681 " />
            <path fill="none" stroke-width="3.0" stroke-linecap="butt" stroke-opacity="1.0" stroke="rgb(0, 0, 0)" stroke-linejoin="round" d=" M 165.697, 66.795 165.766, 66.796 166.794, 66.805 168.022, 66.319 168.176, 66.258 168.245, 66.231 168.847, 65.992 169.559, 65.711 169.973, 65.547 170.037, 65.522 170.994, 65.143 171.590, 64.907 " />
            <path fill="none" stroke-width="3.0" stroke-linecap="butt" stroke-opacity="1.0" stroke="rgb(0, 0, 0)" stroke-linejoin="round" d=" M 176.443, 74.575 175.182, 74.436 171.976, 74.082 164.777, 74.146 163.730, 74.156 161.013, 74.631 160.417, 74.735 155.543, 75.588 151.061, 76.374 145.370, 77.373 135.804, 80.290 134.421, 80.712 129.988, 82.162 122.927, 84.472 116.799, 87.031 111.795, 89.120 103.098, 94.056 102.635, 94.318 95.799, 99.187 87.586, 104.893 87.385, 105.032 80.427, 111.886 76.541, 116.914 76.569, 119.209 76.580, 120.085 76.581, 120.106 76.590, 120.883 76.677, 121.070 77.189, 122.175 77.332, 122.483 79.167, 121.927 88.738, 119.027 92.551, 117.871 93.162, 117.686 96.552, 116.659 98.052, 115.740 " />
            <path fill="none" stroke-width="3.0" stroke-linecap="butt" stroke-opacity="1.0" stroke="rgb(0, 0, 0)" stroke-linejoin="round" d=" M 96.552, 116.659 95.613, 115.186 95.454, 114.938 96.460, 112.181 98.686, 109.539 99.176, 108.957 105.271, 104.868 112.609, 101.042 121.302, 96.819 130.414, 92.699 132.227, 91.879 141.476, 88.079 144.034, 87.028 153.547, 83.945 156.016, 83.145 162.164, 81.373 164.809, 80.611 167.108, 79.948 168.032, 79.682 168.513, 79.543 170.809, 79.298 178.863, 78.439 179.541, 78.366 181.242, 78.327 " />
            <path fill="none" stroke-width="3.0" stroke-linecap="butt" stroke-opacity="1.0" stroke="rgb(0, 0, 0)" stroke-linejoin="round" d=" M 98.917, 114.190 98.846, 114.318 98.052, 115.740 99.389, 114.215 99.458, 114.027 " />
            <path fill="none" stroke-width="3.0" stroke-linecap="butt" stroke-opacity="1.0" stroke="rgb(0, 0, 0)" stroke-linejoin="round" d=" M 199.184, 84.733 198.507, 83.774 194.038, 80.244 191.216, 79.246 " />
            <path fill="none" stroke-width="3.0" stroke-linecap="butt" stroke-opacity="1.0" stroke="rgb(0, 0, 0)" stroke-linejoin="round" d=" M 194.198, 109.694 196.253, 108.881 198.347, 107.412 199.061, 105.521 " />
            <path fill="none" stroke-width="3.0" stroke-linecap="butt" stroke-opacity="1.0" stroke="rgb(0, 0, 0)" stroke-linejoin="round" d=" M 157.504, 69.105 161.802, 69.266 163.417, 69.326 165.697, 66.795 165.739, 66.749 165.863, 66.611 166.378, 66.040 166.757, 65.619 167.272, 65.047 167.390, 64.916 167.393, 64.913 167.748, 64.518 168.285, 63.922 168.369, 63.829 168.707, 63.454 169.195, 62.912 169.317, 62.777 169.414, 61.128 169.449, 60.551 169.495, 59.774 169.545, 58.927 " />
            <path fill="none" stroke-width="3.0" stroke-linecap="butt" stroke-opacity="1.0" stroke="rgb(0, 0, 0)" stroke-linejoin="round" d=" M 163.662, 46.394 157.077, 46.438 154.576, 46.945 152.904, 48.921 149.350, 53.118 148.876, 53.900 148.525, 60.595 148.895, 61.767 151.245, 65.009 " />
            <path fill="none" stroke-width="3.0" stroke-linecap="butt" stroke-opacity="1.0" stroke="rgb(0, 0, 0)" stroke-linejoin="round" d=" M 214.522, 69.862 212.080, 60.164 211.856, 59.278 211.213, 56.876 210.584, 54.526 209.973, 52.247 210.328, 44.667 " />
            <path fill="none" stroke-width="3.0" stroke-linecap="butt" stroke-opacity="1.0" stroke="rgb(0, 0, 0)" stroke-linejoin="round" d=" M 194.877, 78.035 195.791, 78.367 203.239, 80.457 208.588, 80.125 212.221, 79.041 214.699, 78.071 215.720, 76.821 215.648, 72.118 213.999, 64.893 212.103, 59.222 211.213, 56.876 " />
            <path fill="none" stroke-width="3.0" stroke-linecap="butt" stroke-opacity="1.0" stroke="rgb(0, 0, 0)" stroke-linejoin="round" d=" M 202.891, 71.500 205.601, 73.798 209.108, 76.228 213.300, 77.759 215.720, 76.821 " />
            <path fill="none" stroke-width="3.0" stroke-linecap="butt" stroke-opacity="1.0" stroke="rgb(0, 0, 0)" stroke-linejoin="round" d=" M 199.094, 75.781 195.292, 77.051 191.766, 75.781 191.243, 74.882 188.656, 70.441 186.439, 64.233 185.764, 62.345 184.271, 56.110 183.400, 51.477 " />
            <path fill="none" stroke-width="3.0" stroke-linecap="butt" stroke-opacity="1.0" stroke="rgb(0, 0, 0)" stroke-linejoin="round" d=" M 180.421, 22.278 178.003, 22.379 174.900, 22.997 171.591, 25.501 170.887, 27.749 170.382, 29.365 172.508, 35.408 175.882, 41.561 180.088, 47.409 181.370, 48.984 183.400, 51.477 181.567, 52.338 178.615, 53.759 177.598, 54.249 " />
            <path fill="none" stroke-width="3.0" stroke-linecap="butt" stroke-opacity="1.0" stroke="rgb(0, 0, 0)" stroke-linejoin="round" d=" M 202.643, 30.478 198.945, 27.967 " />
            <path fill="none" stroke-width="3.0" stroke-linecap="butt" stroke-opacity="1.0" stroke="rgb(0, 0, 0)" stroke-linejoin="round" d=" M 210.584, 54.526 211.288, 51.793 211.942, 47.278 211.731, 42.374 210.532, 37.262 207.551, 33.073 203.251, 29.277 199.952, 27.340 197.666, 26.259 " />
            <path fill="none" stroke-width="3.0" stroke-linecap="butt" stroke-opacity="1.0" stroke="rgb(0, 0, 0)" stroke-linejoin="round" d=" M 197.086, 25.418 195.375, 22.192 192.328, 16.944 187.938, 10.877 184.435, 7.780 182.781, 7.713 180.501, 9.265 177.313, 11.528 173.709, 16.008 170.085, 24.386 169.737, 25.436 " />
            <path fill="none" stroke-width="3.0" stroke-linecap="butt" stroke-opacity="1.0" stroke="rgb(0, 0, 0)" stroke-linejoin="round" d=" M 184.435, 7.780 182.217, 9.302 180.767, 13.966 180.427, 18.587 180.421, 22.278 " />
            <path fill="none" stroke-width="3.0" stroke-linecap="butt" stroke-opacity="1.0" stroke="rgb(0, 0, 0)" stroke-linejoin="round" d=" M 178.003, 22.379 175.499, 22.853 174.900, 22.997 172.182, 23.816 169.737, 25.436 168.744, 26.094 166.334, 27.920 163.211, 31.317 " />
            <path fill="none" stroke-width="3.0" stroke-linecap="butt" stroke-opacity="1.0" stroke="rgb(0, 0, 0)" stroke-linejoin="round" d=" M 202.469, 32.109 199.129, 28.184 198.945, 27.967 198.420, 27.350 197.666, 26.259 197.086, 25.418 192.258, 18.422 " />
            <path fill="none" stroke-width="3.0" stroke-linecap="butt" stroke-opacity="1.0" stroke="rgb(0, 0, 0)" stroke-linejoin="round" d=" M 152.904, 48.921 145.004, 44.630 135.491, 41.547 132.644, 40.625 127.228, 39.019 117.247, 38.405 116.976, 38.388 111.854, 38.197 108.253, 38.596 105.672, 38.881 99.107, 40.380 93.381, 42.361 92.899, 42.528 87.737, 45.077 80.255, 49.796 74.684, 53.959 67.812, 61.223 66.258, 62.866 60.940, 71.335 59.926, 72.950 56.516, 78.453 52.917, 87.783 51.673, 91.006 50.919, 94.473 " />
            <path fill="none" stroke-width="3.0" stroke-linecap="butt" stroke-opacity="1.0" stroke="rgb(0, 0, 0)" stroke-linejoin="round" d=" M 168.282, 29.750 165.070, 31.820 162.268, 34.853 162.239, 34.885 " />
            <path fill="none" stroke-width="3.0" stroke-linecap="butt" stroke-opacity="1.0" stroke="rgb(0, 0, 0)" stroke-linejoin="round" d=" M 163.211, 31.317 162.239, 34.885 161.081, 39.306 161.939, 35.940 163.211, 31.317 " />
            <path fill="none" stroke-width="3.0" stroke-linecap="butt" stroke-opacity="1.0" stroke="rgb(0, 0, 0)" stroke-linejoin="round" d=" M 151.245, 65.009 149.672, 65.042 139.744, 66.239 136.526, 66.628 126.964, 67.781 " />
            <path fill="none" stroke-width="3.0" stroke-linecap="butt" stroke-opacity="1.0" stroke="rgb(0, 0, 0)" stroke-linejoin="round" d=" M 48.937, 113.340 51.064, 110.525 58.661, 106.007 63.061, 103.391 68.677, 101.065 77.916, 97.238 82.277, 95.432 91.813, 92.419 101.348, 89.406 106.481, 87.784 116.207, 85.458 125.933, 83.132 129.988, 82.162 " />
            <path fill="none" stroke-width="3.0" stroke-linecap="butt" stroke-opacity="1.0" stroke="rgb(0, 0, 0)" stroke-linejoin="round" d=" M 66.213, 103.991 75.463, 100.190 84.430, 96.505 93.968, 93.502 103.506, 90.498 107.260, 89.316 116.799, 87.031 " />
            <path fill="none" stroke-width="3.0" stroke-linecap="butt" stroke-opacity="1.0" stroke="rgb(0, 0, 0)" stroke-linejoin="round" d=" M 54.684, 89.612 53.600, 90.849 50.919, 94.473 49.496, 96.396 48.183, 106.309 47.046, 114.902 " />
            <path fill="none" stroke-width="3.0" stroke-linecap="butt" stroke-opacity="1.0" stroke="rgb(0, 0, 0)" stroke-linejoin="round" d=" M 108.253, 38.596 107.062, 37.843 105.247, 36.939 101.603, 37.087 97.556, 38.244 94.714, 39.949 93.381, 42.361 " />
            <path fill="none" stroke-width="3.0" stroke-linecap="butt" stroke-opacity="1.0" stroke="rgb(0, 0, 0)" stroke-linejoin="round" d=" M 75.970, 114.336 66.643, 117.943 60.030, 120.500 58.602, 121.052 52.764, 123.309 50.754, 124.087 45.481, 126.945 36.690, 131.711 35.796, 132.196 " />
            <path fill="none" stroke-width="3.0" stroke-linecap="butt" stroke-opacity="1.0" stroke="rgb(0, 0, 0)" stroke-linejoin="round" d=" M 32.642, 141.725 37.102, 136.313 42.063, 133.723 50.927, 129.094 51.715, 128.683 52.252, 128.403 61.606, 124.866 70.960, 121.330 73.020, 120.551 73.343, 120.429 76.569, 119.209 " />
            <path fill="none" stroke-width="3.0" stroke-linecap="butt" stroke-opacity="1.0" stroke="rgb(0, 0, 0)" stroke-linejoin="round" d=" M 100.063, 112.012 100.085, 112.005 100.143, 111.987 100.213, 111.966 109.784, 109.070 110.514, 108.849 120.228, 106.474 129.941, 104.100 139.655, 101.725 144.393, 100.567 154.221, 98.724 156.515, 98.293 160.660, 97.516 162.756, 97.123 163.432, 96.996 163.842, 96.919 168.481, 96.049 174.749, 94.873 181.689, 94.216 182.905, 94.100 185.094, 93.893 186.979, 93.715 189.568, 93.469 196.254, 92.836 196.945, 92.771 201.215, 93.249 201.920, 93.328 207.779, 93.984 207.930, 94.001 208.394, 94.053 " />
            <path fill="none" stroke-width="3.0" stroke-linecap="butt" stroke-opacity="1.0" stroke="rgb(0, 0, 0)" stroke-linejoin="round" d=" M 161.802, 69.266 164.777, 74.146 " />
            <path fill="none" stroke-width="3.0" stroke-linecap="butt" stroke-opacity="1.0" stroke="rgb(0, 0, 0)" stroke-linejoin="round" d=" M 171.209, 63.746 170.589, 64.007 170.208, 64.167 168.136, 65.039 168.062, 65.070 167.598, 65.265 167.440, 65.331 166.757, 65.619 " />
            <path fill="none" stroke-width="3.0" stroke-linecap="butt" stroke-opacity="1.0" stroke="rgb(0, 0, 0)" stroke-linejoin="round" d=" M 193.756, 108.441 193.857, 108.474 " />
            <path fill="none" stroke-width="3.0" stroke-linecap="butt" stroke-opacity="1.0" stroke="rgb(0, 0, 0)" stroke-linejoin="round" d=" M 190.799, 79.383 194.038, 80.244 " />
            <path fill="none" stroke-width="3.0" stroke-linecap="butt" stroke-opacity="1.0" stroke="rgb(0, 0, 0)" stroke-linejoin="round" d=" M 194.081, 95.075 199.941, 95.630 " />
        </g>
    </g>
</svg>
