<?xml version='1.0' encoding='ascii'?>
<svg xmlns="http://www.w3.org/2000/svg" version="1.1" width="250" height="250">
    <g id="ViewLayer_LineSet" xmlns:inkscape="http://www.inkscape.org/namespaces/inkscape" inkscape:groupmode="lineset" inkscape:label="ViewLayer_LineSet">
        <g xmlns:inkscape="http://www.inkscape.org/namespaces/inkscape" inkscape:groupmode="layer" id="strokes" inkscape:label="strokes">
            <path fill="none" stroke-width="3.0" stroke-linecap="butt" stroke-opacity="1.0" stroke="rgb(0, 0, 0)" stroke-linejoin="round" d=" M 48.425, 119.541 46.980, 124.258 45.985, 129.047 45.112, 136.222 45.025, 140.478 44.965, 143.423 44.972, 144.617 45.552, 151.428 45.798, 152.936 46.971, 158.831 47.155, 159.646 47.210, 159.889 47.550, 161.178 47.974, 162.634 48.460, 164.178 48.981, 165.732 49.512, 167.211 50.023, 168.539 50.488, 169.648 52.877, 174.697 53.655, 176.335 54.247, 177.325 57.974, 183.353 62.338, 189.012 67.302, 194.235 74.225, 200.003 79.887, 203.930 80.488, 204.346 81.030, 204.613 " />
            <path fill="none" stroke-width="3.0" stroke-linecap="butt" stroke-opacity="1.0" stroke="rgb(0, 0, 0)" stroke-linejoin="round" d=" M 163.821, 198.117 166.072, 196.473 173.015, 189.277 173.661, 188.607 174.634, 187.177 " />
            <path fill="none" stroke-width="3.0" stroke-linecap="butt" stroke-opacity="1.0" stroke="rgb(0, 0, 0)" stroke-linejoin="round" d=" M 56.736, 149.875 57.916, 151.544 59.271, 152.823 60.576, 153.352 61.961, 153.395 63.579, 152.731 64.967, 151.566 66.044, 149.875 66.575, 148.649 " />
            <path fill="none" stroke-width="3.0" stroke-linecap="butt" stroke-opacity="1.0" stroke="rgb(0, 0, 0)" stroke-linejoin="round" d=" M 55.217, 145.538 55.409, 146.008 55.484, 146.470 55.825, 147.746 56.529, 149.580 56.736, 149.875 " />
            <path fill="none" stroke-width="3.0" stroke-linecap="butt" stroke-opacity="1.0" stroke="rgb(0, 0, 0)" stroke-linejoin="round" d=" M 89.357, 101.924 89.386, 102.401 89.243, 104.298 89.241, 104.331 89.136, 105.721 88.474, 109.458 88.514, 109.527 86.147, 117.713 85.576, 119.003 84.635, 121.131 84.349, 121.778 83.384, 123.924 83.140, 124.466 82.495, 125.902 80.577, 129.723 78.650, 133.055 76.760, 135.734 74.945, 137.628 74.109, 138.126 73.242, 138.643 71.693, 138.730 70.345, 137.885 69.256, 136.148 68.486, 133.599 68.096, 130.359 68.136, 126.582 68.638, 122.447 69.288, 119.562 69.423, 118.965 69.608, 118.147 69.777, 117.633 70.327, 115.966 70.995, 113.941 72.663, 109.973 74.556, 106.251 76.602, 102.909 78.722, 100.065 78.856, 99.922 78.931, 99.843 " />
            <path fill="none" stroke-width="3.0" stroke-linecap="butt" stroke-opacity="1.0" stroke="rgb(0, 0, 0)" stroke-linejoin="round" d=" M 56.412, 116.639 55.060, 120.660 53.801, 124.500 52.649, 127.971 51.996, 129.799 51.838, 130.241 51.603, 130.898 50.650, 133.133 49.779, 134.565 48.991, 135.126 48.283, 135.076 48.177, 134.787 47.741, 133.594 47.365, 131.593 47.228, 128.896 47.387, 125.642 47.884, 121.994 48.425, 119.541 48.737, 118.124 49.919, 114.269 50.450, 112.814 50.621, 112.347 50.699, 112.132 50.869, 111.668 51.014, 111.271 51.275, 110.554 51.730, 109.443 52.220, 108.246 52.715, 107.038 52.739, 106.980 53.337, 105.673 54.253, 103.672 55.759, 100.744 57.198, 98.298 57.918, 97.268 " />
            <path fill="none" stroke-width="3.0" stroke-linecap="butt" stroke-opacity="1.0" stroke="rgb(0, 0, 0)" stroke-linejoin="round" d=" M 48.991, 135.126 51.955, 136.286 " />
            <path fill="none" stroke-width="3.0" stroke-linecap="butt" stroke-opacity="1.0" stroke="rgb(0, 0, 0)" stroke-linejoin="round" d=" M 48.283, 135.076 51.955, 136.286 " />
            <path fill="none" stroke-width="3.0" stroke-linecap="butt" stroke-opacity="1.0" stroke="rgb(0, 0, 0)" stroke-linejoin="round" d=" M 61.576, 97.696 61.398, 99.308 60.978, 101.477 60.865, 102.062 60.121, 105.358 59.020, 108.883 " />
            <path fill="none" stroke-width="3.0" stroke-linecap="butt" stroke-opacity="1.0" stroke="rgb(0, 0, 0)" stroke-linejoin="round" d=" M 61.032, 118.648 56.412, 116.639 57.157, 114.500 57.339, 113.977 57.786, 112.694 58.355, 110.935 59.020, 108.883 63.591, 110.954 " />
            <path fill="none" stroke-width="3.0" stroke-linecap="butt" stroke-opacity="1.0" stroke="rgb(0, 0, 0)" stroke-linejoin="round" d=" M 90.764, 195.712 86.916, 198.070 82.941, 201.703 81.030, 204.613 80.359, 205.635 78.601, 209.554 77.780, 212.930 77.802, 216.627 77.800, 216.760 77.798, 216.960 77.796, 217.171 77.787, 217.970 79.408, 222.514 81.507, 224.522 84.771, 226.999 89.274, 229.091 94.267, 231.149 98.669, 232.830 103.917, 234.355 111.084, 235.901 116.672, 236.789 122.173, 236.900 128.960, 236.319 138.892, 235.153 140.121, 235.009 149.976, 233.404 155.669, 231.832 158.848, 230.641 161.522, 228.892 165.748, 225.382 168.028, 221.977 169.181, 218.240 169.350, 213.579 168.787, 208.477 168.328, 206.413 166.014, 200.682 163.821, 198.117 162.203, 196.225 " />
            <path fill="none" stroke-width="3.0" stroke-linecap="butt" stroke-opacity="1.0" stroke="rgb(0, 0, 0)" stroke-linejoin="round" d=" M 79.887, 203.930 79.389, 204.566 78.066, 208.286 77.152, 211.785 77.373, 215.087 77.796, 217.171 " />
            <path fill="none" stroke-width="3.0" stroke-linecap="butt" stroke-opacity="1.0" stroke="rgb(0, 0, 0)" stroke-linejoin="round" d=" M 166.502, 182.568 172.542, 186.310 174.634, 187.177 177.420, 188.332 182.046, 189.616 186.741, 190.151 190.748, 189.845 194.394, 189.001 197.644, 187.580 199.056, 186.938 201.944, 184.983 204.514, 182.591 205.277, 181.535 207.326, 178.650 208.919, 175.457 209.986, 171.982 210.455, 168.219 210.364, 164.157 209.362, 159.505 207.617, 154.985 205.100, 150.280 202.593, 147.005 202.270, 146.583 200.731, 144.572 196.229, 139.660 191.885, 135.371 190.400, 134.218 187.324, 131.830 182.607, 129.148 " />
            <path fill="none" stroke-width="3.0" stroke-linecap="butt" stroke-opacity="1.0" stroke="rgb(0, 0, 0)" stroke-linejoin="round" d=" M 45.025, 140.478 44.733, 141.172 43.967, 144.139 43.627, 145.941 43.426, 148.521 43.575, 150.684 43.938, 152.475 44.775, 155.471 46.446, 158.791 47.155, 159.646 " />
            <path fill="none" stroke-width="3.0" stroke-linecap="butt" stroke-opacity="1.0" stroke="rgb(0, 0, 0)" stroke-linejoin="round" d=" M 95.007, 70.787 96.807, 68.284 97.023, 67.978 97.111, 67.854 100.143, 63.565 99.969, 56.923 96.365, 52.116 94.631, 50.087 94.422, 49.842 91.599, 49.216 87.362, 49.076 " />
            <path fill="none" stroke-width="3.0" stroke-linecap="butt" stroke-opacity="1.0" stroke="rgb(0, 0, 0)" stroke-linejoin="round" d=" M 78.940, 26.256 77.224, 21.282 75.821, 18.362 72.526, 13.779 69.598, 11.419 66.891, 9.714 65.336, 9.727 61.392, 12.629 56.531, 18.483 53.195, 23.603 50.893, 27.505 48.055, 28.543 44.266, 30.315 39.371, 33.919 36.037, 38.004 34.843, 43.127 34.806, 48.093 35.773, 52.707 36.864, 55.936 35.132, 60.203 33.139, 65.866 31.503, 73.123 31.622, 77.892 32.519, 79.165 35.483, 80.251 38.950, 81.410 44.133, 81.851 48.232, 80.832 51.573, 79.921 53.827, 79.263 " />
            <path fill="none" stroke-width="3.0" stroke-linecap="butt" stroke-opacity="1.0" stroke="rgb(0, 0, 0)" stroke-linejoin="round" d=" M 79.589, 73.280 76.259, 73.322 76.085, 73.141 " />
            <path fill="none" stroke-width="3.0" stroke-linecap="butt" stroke-opacity="1.0" stroke="rgb(0, 0, 0)" stroke-linejoin="round" d=" M 47.043, 109.495 41.145, 106.146 40.844, 105.975 38.870, 104.425 34.135, 99.018 37.392, 95.289 40.152, 95.136 41.375, 95.067 48.917, 94.647 51.652, 94.494 51.989, 94.533 59.457, 95.380 61.384, 95.599 61.577, 95.621 63.471, 95.835 72.838, 96.898 73.442, 96.967 76.218, 97.282 80.518, 98.156 87.183, 99.510 89.236, 99.928 93.405, 100.775 103.205, 102.767 107.653, 103.671 117.323, 106.220 126.993, 108.769 136.662, 111.318 141.051, 112.475 149.863, 115.385 150.388, 115.558 150.690, 115.658 " />
            <path fill="none" stroke-width="3.0" stroke-linecap="butt" stroke-opacity="1.0" stroke="rgb(0, 0, 0)" stroke-linejoin="round" d=" M 202.270, 146.583 205.727, 145.293 203.758, 140.407 199.574, 137.808 199.561, 137.800 191.975, 133.086 190.306, 132.384 182.607, 129.148 180.923, 128.440 172.639, 124.957 " />
            <path fill="none" stroke-width="3.0" stroke-linecap="butt" stroke-opacity="1.0" stroke="rgb(0, 0, 0)" stroke-linejoin="round" d=" M 40.403, 97.434 39.689, 98.021 36.364, 100.759 40.844, 105.975 " />
            <path fill="none" stroke-width="3.0" stroke-linecap="butt" stroke-opacity="1.0" stroke="rgb(0, 0, 0)" stroke-linejoin="round" d=" M 40.403, 97.434 41.017, 97.407 50.492, 96.992 51.568, 96.945 54.178, 96.831 57.918, 97.268 59.787, 97.487 61.576, 97.696 63.493, 97.920 66.053, 98.220 75.986, 99.381 77.521, 99.561 78.544, 99.765 78.931, 99.843 79.307, 99.917 85.244, 101.103 89.357, 101.924 93.881, 102.826 103.687, 104.784 107.993, 105.643 117.664, 108.188 127.335, 110.732 137.006, 113.277 140.771, 114.267 150.271, 117.389 150.526, 117.473 " />
            <path fill="none" stroke-width="3.0" stroke-linecap="butt" stroke-opacity="1.0" stroke="rgb(0, 0, 0)" stroke-linejoin="round" d=" M 79.821, 63.485 79.836, 63.940 79.877, 65.190 80.489, 65.952 80.514, 65.982 80.516, 65.985 81.338, 67.007 82.261, 68.155 82.376, 68.298 82.469, 68.413 82.759, 68.774 83.092, 69.188 85.213, 71.826 86.940, 71.793 90.823, 71.719 " />
            <path fill="none" stroke-width="3.0" stroke-linecap="butt" stroke-opacity="1.0" stroke="rgb(0, 0, 0)" stroke-linejoin="round" d=" M 78.274, 67.882 79.137, 68.277 79.176, 68.295 79.186, 68.299 80.993, 69.126 81.898, 69.153 83.092, 69.188 " />
            <path fill="none" stroke-width="3.0" stroke-linecap="butt" stroke-opacity="1.0" stroke="rgb(0, 0, 0)" stroke-linejoin="round" d=" M 41.145, 106.146 41.229, 106.421 41.903, 108.441 44.091, 109.966 50.450, 112.814 " />
            <path fill="none" stroke-width="3.0" stroke-linecap="butt" stroke-opacity="1.0" stroke="rgb(0, 0, 0)" stroke-linejoin="round" d=" M 49.434, 108.792 47.043, 109.495 46.654, 109.610 " />
            <path fill="none" stroke-width="3.0" stroke-linecap="butt" stroke-opacity="1.0" stroke="rgb(0, 0, 0)" stroke-linejoin="round" d=" M 50.368, 105.219 49.434, 108.792 51.730, 109.443 " />
            <path fill="none" stroke-width="3.0" stroke-linecap="butt" stroke-opacity="1.0" stroke="rgb(0, 0, 0)" stroke-linejoin="round" d=" M 56.542, 80.329 52.194, 81.733 46.391, 85.048 42.895, 88.293 42.687, 88.717 " />
            <path fill="none" stroke-width="3.0" stroke-linecap="butt" stroke-opacity="1.0" stroke="rgb(0, 0, 0)" stroke-linejoin="round" d=" M 84.270, 76.596 75.553, 76.231 74.037, 76.322 " />
            <path fill="none" stroke-width="3.0" stroke-linecap="butt" stroke-opacity="1.0" stroke="rgb(0, 0, 0)" stroke-linejoin="round" d=" M 150.526, 117.473 150.635, 117.815 152.284, 119.362 154.087, 120.316 162.171, 123.013 162.344, 123.071 167.871, 124.916 171.758, 126.213 172.201, 125.581 172.639, 124.957 172.823, 124.695 172.878, 123.937 172.893, 123.727 172.937, 123.114 173.100, 120.846 169.461, 115.890 162.647, 109.068 156.578, 104.728 154.416, 103.182 147.711, 98.265 139.087, 93.202 138.659, 92.950 134.920, 91.327 127.466, 88.091 121.353, 85.999 115.668, 84.054 106.143, 81.009 104.299, 80.420 94.626, 78.533 93.538, 78.321 87.661, 77.183 84.866, 76.642 84.731, 76.615 " />
            <path fill="none" stroke-width="3.0" stroke-linecap="butt" stroke-opacity="1.0" stroke="rgb(0, 0, 0)" stroke-linejoin="round" d=" M 69.430, 80.481 76.526, 81.394 76.568, 81.400 79.147, 81.732 81.334, 82.013 84.347, 82.910 88.584, 84.172 94.705, 85.995 104.187, 89.169 107.242, 90.192 116.454, 94.081 119.329, 95.295 128.396, 99.511 130.363, 100.425 139.038, 104.768 146.235, 108.667 152.136, 112.783 152.639, 113.417 154.666, 115.976 155.510, 118.680 155.219, 119.015 154.087, 120.316 " />
            <path fill="none" stroke-width="3.0" stroke-linecap="butt" stroke-opacity="1.0" stroke="rgb(0, 0, 0)" stroke-linejoin="round" d=" M 59.680, 77.844 63.073, 72.602 63.939, 70.301 65.408, 66.399 65.552, 66.017 66.090, 64.588 67.560, 58.389 68.375, 53.773 " />
            <path fill="none" stroke-width="3.0" stroke-linecap="butt" stroke-opacity="1.0" stroke="rgb(0, 0, 0)" stroke-linejoin="round" d=" M 46.499, 73.052 48.319, 75.212 51.128, 77.538 55.234, 78.851 55.625, 78.977 59.680, 77.844 60.891, 78.924 61.233, 79.229 61.765, 79.436 64.493, 80.495 65.598, 80.628 65.968, 80.673 68.384, 80.964 " />
            <path fill="none" stroke-width="3.0" stroke-linecap="butt" stroke-opacity="1.0" stroke="rgb(0, 0, 0)" stroke-linejoin="round" d=" M 46.499, 73.052 43.415, 75.259 39.396, 77.569 34.521, 78.944 31.622, 77.892 " />
            <path fill="none" stroke-width="3.0" stroke-linecap="butt" stroke-opacity="1.0" stroke="rgb(0, 0, 0)" stroke-linejoin="round" d=" M 48.319, 75.212 50.480, 77.075 51.128, 77.538 53.827, 79.263 54.007, 79.378 56.542, 80.329 57.265, 80.601 57.692, 80.738 57.879, 80.798 59.724, 81.391 60.333, 81.587 60.382, 81.603 61.587, 81.733 64.603, 82.059 64.837, 81.991 68.384, 80.964 69.090, 80.638 69.430, 80.481 70.027, 80.206 71.267, 79.634 72.173, 79.216 74.037, 76.322 76.085, 73.141 76.728, 72.143 77.176, 70.909 77.922, 68.853 78.104, 68.350 78.274, 67.882 78.325, 67.742 78.462, 67.365 78.732, 66.621 78.945, 66.034 79.360, 64.891 79.593, 64.179 79.821, 63.485 79.933, 63.145 80.044, 62.806 80.638, 60.997 81.717, 59.142 81.855, 58.905 82.314, 58.116 82.899, 57.110 83.589, 55.924 83.879, 55.397 84.431, 54.395 85.291, 52.834 85.796, 51.919 86.042, 51.473 87.362, 49.076 88.267, 47.434 90.042, 42.277 89.689, 37.935 88.386, 34.306 85.790, 30.874 82.925, 28.685 79.802, 26.543 78.940, 26.256 77.015, 25.614 73.405, 24.812 70.602, 24.569 " />
            <path fill="none" stroke-width="3.0" stroke-linecap="butt" stroke-opacity="1.0" stroke="rgb(0, 0, 0)" stroke-linejoin="round" d=" M 65.336, 9.727 67.975, 11.400 69.852, 16.185 70.440, 20.855 70.602, 24.569 " />
            <path fill="none" stroke-width="3.0" stroke-linecap="butt" stroke-opacity="1.0" stroke="rgb(0, 0, 0)" stroke-linejoin="round" d=" M 73.754, 56.673 73.168, 56.351 73.089, 56.307 72.686, 56.086 71.081, 55.202 70.207, 54.721 70.137, 54.683 68.375, 53.773 71.403, 50.533 72.041, 49.850 76.656, 44.195 80.290, 38.201 81.735, 34.294 81.816, 34.076 82.487, 32.260 80.935, 28.317 79.261, 27.162 77.015, 25.614 " />
            <path fill="none" stroke-width="3.0" stroke-linecap="butt" stroke-opacity="1.0" stroke="rgb(0, 0, 0)" stroke-linejoin="round" d=" M 54.631, 22.814 51.204, 27.590 50.067, 29.174 " />
            <path fill="none" stroke-width="3.0" stroke-linecap="butt" stroke-opacity="1.0" stroke="rgb(0, 0, 0)" stroke-linejoin="round" d=" M 37.906, 53.298 37.086, 56.125 35.870, 60.320 " />
            <path fill="none" stroke-width="3.0" stroke-linecap="butt" stroke-opacity="1.0" stroke="rgb(0, 0, 0)" stroke-linejoin="round" d=" M 190.183, 96.328 189.987, 95.417 187.950, 89.864 184.390, 80.519 183.347, 77.781 177.972, 69.349 176.948, 67.743 170.073, 60.481 168.431, 58.747 163.755, 54.587 155.797, 49.637 151.102, 47.005 149.221, 46.270 145.223, 44.708 138.803, 43.009 134.722, 42.414 132.563, 42.099 127.194, 42.069 117.789, 42.428 111.695, 43.743 102.127, 46.650 99.809, 47.354 94.631, 50.087 " />
            <path fill="none" stroke-width="3.0" stroke-linecap="butt" stroke-opacity="1.0" stroke="rgb(0, 0, 0)" stroke-linejoin="round" d=" M 84.528, 32.713 87.390, 34.848 89.689, 37.935 " />
            <path fill="none" stroke-width="3.0" stroke-linecap="butt" stroke-opacity="1.0" stroke="rgb(0, 0, 0)" stroke-linejoin="round" d=" M 193.172, 116.386 192.429, 114.583 184.299, 108.761 182.668, 107.594 182.061, 107.310 173.002, 103.076 172.199, 102.701 165.536, 99.587 156.094, 96.293 146.652, 92.999 142.779, 91.647 133.109, 89.098 123.440, 86.549 121.353, 85.999 " />
            <path fill="none" stroke-width="3.0" stroke-linecap="butt" stroke-opacity="1.0" stroke="rgb(0, 0, 0)" stroke-linejoin="round" d=" M 99.093, 67.961 97.111, 67.854 " />
            <path fill="none" stroke-width="3.0" stroke-linecap="butt" stroke-opacity="1.0" stroke="rgb(0, 0, 0)" stroke-linejoin="round" d=" M 99.093, 67.961 108.701, 69.381 118.594, 70.842 122.207, 71.376 " />
            <path fill="none" stroke-width="3.0" stroke-linecap="butt" stroke-opacity="1.0" stroke="rgb(0, 0, 0)" stroke-linejoin="round" d=" M 194.245, 117.147 192.946, 107.232 192.091, 100.705 190.183, 96.328 189.774, 95.390 188.686, 94.157 " />
            <path fill="none" stroke-width="3.0" stroke-linecap="butt" stroke-opacity="1.0" stroke="rgb(0, 0, 0)" stroke-linejoin="round" d=" M 134.920, 91.327 141.632, 93.096 151.078, 96.377 160.525, 99.658 163.123, 100.560 " />
            <path fill="none" stroke-width="3.0" stroke-linecap="butt" stroke-opacity="1.0" stroke="rgb(0, 0, 0)" stroke-linejoin="round" d=" M 149.221, 46.270 148.080, 44.253 145.546, 42.509 141.644, 41.237 137.922, 40.945 135.841, 41.736 134.722, 42.414 " />
            <path fill="none" stroke-width="3.0" stroke-linecap="butt" stroke-opacity="1.0" stroke="rgb(0, 0, 0)" stroke-linejoin="round" d=" M 202.593, 147.005 208.239, 144.930 209.433, 141.196 207.669, 135.870 204.742, 129.882 199.964, 121.901 194.655, 117.438 194.245, 117.147 193.172, 116.386 185.017, 110.599 184.415, 110.172 183.479, 109.738 176.563, 106.533 175.136, 105.871 166.265, 101.760 163.123, 100.560 " />
            <path fill="none" stroke-width="3.0" stroke-linecap="butt" stroke-opacity="1.0" stroke="rgb(0, 0, 0)" stroke-linejoin="round" d=" M 172.937, 123.114 174.565, 123.805 175.129, 124.045 184.334, 127.953 189.875, 130.306 194.292, 132.181 198.176, 134.641 206.377, 139.834 208.239, 144.930 " />
            <path fill="none" stroke-width="3.0" stroke-linecap="butt" stroke-opacity="1.0" stroke="rgb(0, 0, 0)" stroke-linejoin="round" d=" M 207.669, 135.870 199.321, 130.365 195.762, 128.019 195.125, 127.741 188.731, 124.958 185.641, 123.613 184.433, 123.087 175.264, 119.096 173.504, 118.330 " />
            <path fill="none" stroke-width="3.0" stroke-linecap="butt" stroke-opacity="1.0" stroke="rgb(0, 0, 0)" stroke-linejoin="round" d=" M 52.670, 82.787 44.232, 87.438 42.687, 88.717 39.240, 91.570 35.166, 95.379 34.135, 99.018 " />
            <path fill="none" stroke-width="3.0" stroke-linecap="butt" stroke-opacity="1.0" stroke="rgb(0, 0, 0)" stroke-linejoin="round" d=" M 57.692, 80.738 52.194, 81.733 " />
            <path fill="none" stroke-width="3.0" stroke-linecap="butt" stroke-opacity="1.0" stroke="rgb(0, 0, 0)" stroke-linejoin="round" d=" M 77.176, 70.909 77.484, 71.211 79.589, 73.280 81.898, 69.153 " />
            <path fill="none" stroke-width="3.0" stroke-linecap="butt" stroke-opacity="1.0" stroke="rgb(0, 0, 0)" stroke-linejoin="round" d=" M 78.732, 66.621 79.802, 67.134 79.839, 67.152 79.843, 67.154 81.960, 68.170 82.469, 68.413 " />
            <path fill="none" stroke-width="3.0" stroke-linecap="butt" stroke-opacity="1.0" stroke="rgb(0, 0, 0)" stroke-linejoin="round" d=" M 84.040, 77.010 84.270, 76.596 86.940, 71.793 " />
            <path fill="none" stroke-width="3.0" stroke-linecap="butt" stroke-opacity="1.0" stroke="rgb(0, 0, 0)" stroke-linejoin="round" d=" M 190.400, 134.218 190.306, 132.384 " />
            <path fill="none" stroke-width="3.0" stroke-linecap="butt" stroke-opacity="1.0" stroke="rgb(0, 0, 0)" stroke-linejoin="round" d=" M 199.561, 137.800 201.526, 142.231 " />
        </g>
    </g>
</svg>
