<?xml version='1.0' encoding='ascii'?>
<svg xmlns="http://www.w3.org/2000/svg" version="1.1" width="250" height="250">
    <g id="ViewLayer_LineSet" xmlns:inkscape="http://www.inkscape.org/namespaces/inkscape" inkscape:groupmode="lineset" inkscape:label="ViewLayer_LineSet">
        <g xmlns:inkscape="http://www.inkscape.org/namespaces/inkscape" inkscape:groupmode="layer" id="strokes" inkscape:label="strokes">
            <path fill="none" stroke-width="3.0" stroke-linecap="butt" stroke-opacity="1.0" stroke="rgb(0, 0, 0)" stroke-linejoin="round" d=" M 175.691, 187.721 177.568, 184.977 182.051, 178.422 182.106, 178.303 " />
            <path fill="none" stroke-width="3.0" stroke-linecap="butt" stroke-opacity="1.0" stroke="rgb(0, 0, 0)" stroke-linejoin="round" d=" M 59.114, 98.820 58.572, 99.509 58.116, 100.090 53.731, 107.305 49.818, 116.107 48.838, 119.444 47.956, 122.449 47.889, 122.677 47.878, 122.712 47.243, 124.875 46.298, 131.115 45.528, 136.554 45.419, 142.150 45.678, 147.768 46.261, 152.433 47.190, 157.662 48.782, 163.315 49.534, 165.459 51.216, 169.961 51.691, 170.989 53.278, 174.420 55.633, 178.645 56.686, 180.403 59.998, 185.351 63.433, 189.550 66.537, 192.851 67.274, 193.553 70.732, 196.848 75.011, 200.248 79.766, 203.401 81.656, 204.593 85.635, 206.869 91.198, 209.363 95.426, 210.934 100.693, 212.234 106.566, 213.663 110.625, 214.305 113.776, 214.574 " />
            <path fill="none" stroke-width="3.0" stroke-linecap="butt" stroke-opacity="1.0" stroke="rgb(0, 0, 0)" stroke-linejoin="round" d=" M 190.167, 124.957 189.134, 120.129 188.132, 117.548 " />
            <path fill="none" stroke-width="3.0" stroke-linecap="butt" stroke-opacity="1.0" stroke="rgb(0, 0, 0)" stroke-linejoin="round" d=" M 82.331, 150.176 82.924, 151.580 84.366, 153.647 86.361, 155.294 88.674, 156.503 90.815, 156.922 93.002, 156.823 95.471, 155.960 97.602, 154.599 99.208, 152.723 99.943, 151.392 " />
            <path fill="none" stroke-width="3.0" stroke-linecap="butt" stroke-opacity="1.0" stroke="rgb(0, 0, 0)" stroke-linejoin="round" d=" M 122.898, 100.166 123.289, 101.327 123.673, 102.468 123.765, 103.007 124.177, 105.423 124.251, 105.856 124.427, 109.681 124.438, 109.749 123.592, 118.173 123.150, 119.897 123.111, 120.047 122.509, 122.395 121.112, 126.699 119.436, 130.714 117.543, 134.247 115.504, 137.123 113.393, 139.200 113.158, 139.330 112.572, 139.656 111.287, 140.370 109.262, 140.575 107.396, 139.799 106.808, 139.178 106.374, 138.719 105.915, 138.235 105.762, 138.074 104.430, 135.478 103.459, 132.133 102.896, 128.200 102.769, 123.869 103.086, 119.347 103.480, 116.950 103.513, 116.747 103.814, 114.914 104.893, 110.730 106.301, 106.807 107.982, 103.289 109.473, 100.928 109.871, 100.298 110.922, 99.074 " />
            <path fill="none" stroke-width="3.0" stroke-linecap="butt" stroke-opacity="1.0" stroke="rgb(0, 0, 0)" stroke-linejoin="round" d=" M 105.762, 138.074 105.875, 138.229 106.214, 138.695 " />
            <path fill="none" stroke-width="3.0" stroke-linecap="butt" stroke-opacity="1.0" stroke="rgb(0, 0, 0)" stroke-linejoin="round" d=" M 124.008, 102.542 122.960, 100.177 " />
            <path fill="none" stroke-width="3.0" stroke-linecap="butt" stroke-opacity="1.0" stroke="rgb(0, 0, 0)" stroke-linejoin="round" d=" M 124.251, 105.856 124.045, 103.048 " />
            <path fill="none" stroke-width="3.0" stroke-linecap="butt" stroke-opacity="1.0" stroke="rgb(0, 0, 0)" stroke-linejoin="round" d=" M 82.410, 118.393 81.534, 122.725 80.641, 126.356 80.514, 126.875 79.361, 130.639 78.501, 132.791 78.339, 133.197 78.086, 133.829 76.698, 136.285 75.217, 137.886 73.677, 138.555 73.385, 138.557 72.152, 138.564 70.634, 137.028 69.280, 134.918 68.151, 132.040 67.696, 130.103 67.592, 129.656 67.330, 128.542 66.889, 124.599 66.872, 120.400 67.092, 118.173 67.287, 116.207 68.030, 112.165 69.051, 108.279 69.683, 106.468 69.918, 105.796 70.306, 104.688 71.745, 101.515 73.311, 98.868 74.162, 97.809 " />
            <path fill="none" stroke-width="3.0" stroke-linecap="butt" stroke-opacity="1.0" stroke="rgb(0, 0, 0)" stroke-linejoin="round" d=" M 72.152, 138.564 74.973, 139.946 " />
            <path fill="none" stroke-width="3.0" stroke-linecap="butt" stroke-opacity="1.0" stroke="rgb(0, 0, 0)" stroke-linejoin="round" d=" M 82.000, 97.555 82.817, 99.860 83.353, 102.791 83.636, 106.302 83.499, 110.071 " />
            <path fill="none" stroke-width="3.0" stroke-linecap="butt" stroke-opacity="1.0" stroke="rgb(0, 0, 0)" stroke-linejoin="round" d=" M 85.126, 120.352 82.410, 118.393 83.100, 114.154 83.341, 111.688 83.377, 111.320 83.499, 110.071 86.180, 112.128 " />
            <path fill="none" stroke-width="3.0" stroke-linecap="butt" stroke-opacity="1.0" stroke="rgb(0, 0, 0)" stroke-linejoin="round" d=" M 156.900, 234.032 160.337, 233.742 165.790, 232.607 169.572, 230.773 174.924, 224.969 179.634, 219.138 182.377, 213.509 183.935, 210.248 184.562, 206.848 184.643, 202.282 184.540, 198.412 183.357, 194.349 179.240, 186.805 177.568, 184.977 " />
            <path fill="none" stroke-width="3.0" stroke-linecap="butt" stroke-opacity="1.0" stroke="rgb(0, 0, 0)" stroke-linejoin="round" d=" M 114.036, 211.851 113.776, 214.574 113.676, 215.624 113.890, 219.056 114.710, 221.963 114.879, 222.563 116.749, 225.827 118.862, 227.921 119.512, 228.347 123.511, 230.732 128.797, 232.910 135.388, 234.072 140.943, 234.512 147.036, 234.760 154.792, 234.372 156.900, 234.032 161.172, 233.343 " />
            <path fill="none" stroke-width="3.0" stroke-linecap="butt" stroke-opacity="1.0" stroke="rgb(0, 0, 0)" stroke-linejoin="round" d=" M 67.274, 193.553 66.333, 195.932 63.019, 205.375 61.996, 209.047 60.525, 212.948 59.811, 216.673 59.839, 222.111 60.491, 225.631 62.367, 228.740 64.730, 231.088 67.960, 232.970 72.914, 234.764 77.452, 235.720 82.283, 236.014 85.202, 236.040 91.376, 235.985 97.371, 234.703 99.742, 234.297 103.479, 233.078 106.089, 231.289 112.891, 223.960 114.177, 222.575 114.710, 221.963 " />
            <path fill="none" stroke-width="3.0" stroke-linecap="butt" stroke-opacity="1.0" stroke="rgb(0, 0, 0)" stroke-linejoin="round" d=" M 180.525, 177.454 182.106, 178.303 186.554, 180.689 191.338, 182.340 195.819, 183.300 200.303, 183.548 204.094, 183.043 207.543, 182.054 210.667, 180.546 213.517, 178.560 216.042, 176.184 218.151, 173.265 218.458, 172.704 220.029, 169.636 221.066, 166.254 221.494, 162.650 221.345, 158.825 220.310, 154.448 218.492, 150.215 215.853, 145.796 211.496, 140.422 206.987, 135.822 206.202, 135.111 205.875, 134.815 202.569, 131.825 197.913, 128.556 192.866, 125.970 190.167, 124.957 " />
            <path fill="none" stroke-width="3.0" stroke-linecap="butt" stroke-opacity="1.0" stroke="rgb(0, 0, 0)" stroke-linejoin="round" d=" M 47.889, 122.677 47.848, 122.699 47.640, 122.809 45.540, 124.177 41.804, 127.031 38.330, 130.464 34.807, 134.342 31.495, 138.788 29.691, 142.424 28.521, 145.899 27.910, 147.768 27.411, 150.914 27.589, 154.717 27.906, 156.269 28.384, 158.046 29.494, 160.876 31.334, 163.898 33.614, 166.331 36.025, 168.181 37.615, 169.149 38.149, 169.454 40.132, 170.310 41.796, 170.751 44.574, 171.471 47.911, 171.578 51.334, 171.052 51.691, 170.989 " />
            <path fill="none" stroke-width="3.0" stroke-linecap="butt" stroke-opacity="1.0" stroke="rgb(0, 0, 0)" stroke-linejoin="round" d=" M 123.262, 68.181 123.977, 67.666 124.150, 67.349 124.187, 67.282 126.042, 63.893 126.842, 61.309 126.839, 57.625 126.032, 54.946 123.946, 51.227 123.496, 50.914 " />
            <path fill="none" stroke-width="3.0" stroke-linecap="butt" stroke-opacity="1.0" stroke="rgb(0, 0, 0)" stroke-linejoin="round" d=" M 61.392, 53.098 61.243, 53.542 59.844, 57.706 58.323, 63.860 57.998, 71.801 58.150, 73.087 60.088, 78.435 60.732, 78.805 62.296, 79.705 65.150, 80.332 67.777, 80.910 70.937, 81.330 70.968, 81.334 71.281, 81.376 73.580, 80.984 77.541, 80.308 78.869, 79.975 80.052, 79.678 83.247, 78.876 86.354, 77.669 88.342, 76.896 89.218, 76.556 91.170, 77.468 " />
            <path fill="none" stroke-width="3.0" stroke-linecap="butt" stroke-opacity="1.0" stroke="rgb(0, 0, 0)" stroke-linejoin="round" d=" M 32.281, 109.015 31.652, 106.004 32.528, 105.367 39.752, 100.115 40.574, 99.927 48.780, 98.041 55.592, 96.476 57.614, 96.011 57.797, 95.969 61.501, 95.834 71.495, 95.470 77.154, 95.264 79.846, 95.166 86.553, 94.922 96.526, 95.656 106.499, 96.390 113.225, 96.886 121.200, 97.473 121.466, 97.519 131.319, 99.232 141.171, 100.945 151.023, 102.659 154.728, 103.303 164.368, 105.965 174.007, 108.627 182.613, 111.004 183.752, 111.520 186.225, 112.638 186.945, 112.964 187.838, 113.368 188.827, 113.815 " />
            <path fill="none" stroke-width="3.0" stroke-linecap="butt" stroke-opacity="1.0" stroke="rgb(0, 0, 0)" stroke-linejoin="round" d=" M 205.875, 134.815 207.395, 128.555 200.919, 122.365 " />
            <path fill="none" stroke-width="3.0" stroke-linecap="butt" stroke-opacity="1.0" stroke="rgb(0, 0, 0)" stroke-linejoin="round" d=" M 39.084, 106.629 47.088, 101.247 56.891, 99.269 58.097, 99.025 59.114, 98.820 59.926, 98.656 62.206, 98.196 " />
            <path fill="none" stroke-width="3.0" stroke-linecap="butt" stroke-opacity="1.0" stroke="rgb(0, 0, 0)" stroke-linejoin="round" d=" M 36.720, 115.713 42.475, 120.065 44.062, 121.055 47.848, 122.699 " />
            <path fill="none" stroke-width="3.0" stroke-linecap="butt" stroke-opacity="1.0" stroke="rgb(0, 0, 0)" stroke-linejoin="round" d=" M 60.479, 98.252 59.690, 98.412 59.387, 98.473 57.859, 98.783 48.058, 100.769 44.790, 101.431 42.052, 101.986 39.966, 103.430 33.863, 107.658 34.169, 109.268 " />
            <path fill="none" stroke-width="3.0" stroke-linecap="butt" stroke-opacity="1.0" stroke="rgb(0, 0, 0)" stroke-linejoin="round" d=" M 60.479, 98.252 62.206, 98.196 72.201, 97.872 74.162, 97.809 79.375, 97.640 82.000, 97.555 82.742, 97.531 82.872, 97.527 87.851, 97.365 97.824, 98.104 107.797, 98.842 110.922, 99.074 115.237, 99.393 120.652, 99.794 122.403, 100.084 122.898, 100.166 122.960, 100.177 132.825, 101.812 142.690, 103.448 147.102, 104.180 153.584, 105.255 163.233, 107.883 172.881, 110.511 180.381, 112.554 181.059, 112.739 " />
            <path fill="none" stroke-width="3.0" stroke-linecap="butt" stroke-opacity="1.0" stroke="rgb(0, 0, 0)" stroke-linejoin="round" d=" M 36.940, 96.353 33.219, 99.637 30.959, 102.549 29.429, 105.650 29.267, 108.164 29.677, 110.376 32.966, 114.593 35.687, 116.077 36.720, 115.713 36.918, 115.643 39.017, 114.902 39.745, 114.408 41.953, 112.909 43.698, 107.745 " />
            <path fill="none" stroke-width="3.0" stroke-linecap="butt" stroke-opacity="1.0" stroke="rgb(0, 0, 0)" stroke-linejoin="round" d=" M 32.482, 111.981 29.677, 110.376 " />
            <path fill="none" stroke-width="3.0" stroke-linecap="butt" stroke-opacity="1.0" stroke="rgb(0, 0, 0)" stroke-linejoin="round" d=" M 41.953, 112.909 39.324, 110.502 " />
            <path fill="none" stroke-width="3.0" stroke-linecap="butt" stroke-opacity="1.0" stroke="rgb(0, 0, 0)" stroke-linejoin="round" d=" M 40.302, 108.020 39.324, 110.502 35.820, 111.496 " />
            <path fill="none" stroke-width="3.0" stroke-linecap="butt" stroke-opacity="1.0" stroke="rgb(0, 0, 0)" stroke-linejoin="round" d=" M 65.150, 80.332 59.079, 82.636 58.077, 83.073 51.362, 86.004 45.623, 89.939 37.580, 95.881 36.940, 96.353 42.471, 92.355 45.211, 90.398 51.362, 86.004 " />
            <path fill="none" stroke-width="3.0" stroke-linecap="butt" stroke-opacity="1.0" stroke="rgb(0, 0, 0)" stroke-linejoin="round" d=" M 42.471, 92.355 42.689, 92.228 49.557, 88.215 50.869, 87.723 56.499, 85.611 57.816, 85.117 58.916, 84.704 68.547, 82.011 70.968, 81.334 " />
            <path fill="none" stroke-width="3.0" stroke-linecap="butt" stroke-opacity="1.0" stroke="rgb(0, 0, 0)" stroke-linejoin="round" d=" M 73.580, 80.984 74.876, 80.860 75.829, 80.768 77.946, 80.566 85.495, 79.844 85.799, 79.836 91.815, 79.688 93.086, 79.657 93.964, 79.694 96.929, 79.821 " />
            <path fill="none" stroke-width="3.0" stroke-linecap="butt" stroke-opacity="1.0" stroke="rgb(0, 0, 0)" stroke-linejoin="round" d=" M 183.458, 113.924 183.967, 115.145 184.258, 115.843 185.337, 116.314 187.442, 117.233 188.132, 117.548 197.229, 121.701 198.203, 122.145 199.979, 122.956 200.297, 122.756 200.919, 122.365 202.326, 121.480 202.564, 120.543 203.238, 117.888 200.531, 113.400 194.247, 107.219 192.194, 105.702 186.990, 101.857 181.011, 97.300 180.174, 96.793 173.908, 93.001 172.779, 92.317 167.982, 90.278 161.876, 87.683 153.782, 85.140 149.312, 83.736 139.700, 80.978 136.565, 80.078 126.707, 78.404 123.617, 77.879 113.727, 76.282 " />
            <path fill="none" stroke-width="3.0" stroke-linecap="butt" stroke-opacity="1.0" stroke="rgb(0, 0, 0)" stroke-linejoin="round" d=" M 109.538, 80.865 112.496, 81.165 117.558, 81.679 119.132, 82.060 128.852, 84.414 134.407, 85.759 144.013, 88.537 148.778, 89.915 149.797, 90.312 159.114, 93.942 161.411, 94.837 170.550, 98.897 172.283, 99.667 180.374, 103.678 182.284, 104.781 186.523, 107.230 188.488, 108.764 189.853, 109.830 190.287, 110.168 191.317, 110.972 191.409, 111.130 191.755, 111.718 191.815, 111.821 192.512, 113.010 193.042, 113.913 193.315, 116.439 191.531, 117.518 190.648, 118.051 " />
            <path fill="none" stroke-width="3.0" stroke-linecap="butt" stroke-opacity="1.0" stroke="rgb(0, 0, 0)" stroke-linejoin="round" d=" M 107.458, 77.397 108.498, 75.893 109.335, 74.682 111.223, 71.953 112.117, 68.617 112.168, 68.425 112.495, 67.207 112.661, 66.588 113.133, 64.826 113.133, 64.824 113.451, 63.639 113.780, 57.294 113.784, 57.204 113.585, 52.406 " />
            <path fill="none" stroke-width="3.0" stroke-linecap="butt" stroke-opacity="1.0" stroke="rgb(0, 0, 0)" stroke-linejoin="round" d=" M 83.984, 72.065 87.269, 74.095 87.794, 74.420 88.364, 74.682 90.680, 75.750 93.287, 76.951 98.052, 77.906 101.210, 78.539 107.458, 77.397 108.555, 78.850 109.843, 80.163 110.510, 80.503 110.759, 80.630 " />
            <path fill="none" stroke-width="3.0" stroke-linecap="butt" stroke-opacity="1.0" stroke="rgb(0, 0, 0)" stroke-linejoin="round" d=" M 60.088, 78.435 59.901, 77.047 " />
            <path fill="none" stroke-width="3.0" stroke-linecap="butt" stroke-opacity="1.0" stroke="rgb(0, 0, 0)" stroke-linejoin="round" d=" M 89.218, 76.556 88.009, 75.828 87.038, 75.243 86.984, 75.210 86.528, 74.936 84.620, 73.387 83.984, 72.065 79.494, 74.379 73.386, 76.810 65.381, 78.240 61.596, 77.416 59.901, 77.047 57.998, 71.801 " />
            <path fill="none" stroke-width="3.0" stroke-linecap="butt" stroke-opacity="1.0" stroke="rgb(0, 0, 0)" stroke-linejoin="round" d=" M 117.494, 58.848 118.345, 57.668 120.328, 54.920 123.496, 50.914 123.908, 50.394 125.636, 48.210 128.514, 43.779 129.294, 42.578 129.503, 41.740 129.742, 40.785 130.703, 36.931 131.213, 33.765 130.393, 31.501 126.643, 27.198 121.090, 24.692 118.208, 23.542 112.201, 22.359 108.885, 21.978 107.616, 21.832 " />
            <path fill="none" stroke-width="3.0" stroke-linecap="butt" stroke-opacity="1.0" stroke="rgb(0, 0, 0)" stroke-linejoin="round" d=" M 53.262, 38.827 53.565, 33.240 58.035, 29.008 65.364, 25.492 71.322, 23.915 75.841, 23.060 78.429, 19.050 82.339, 13.857 88.521, 8.096 94.098, 5.455 98.998, 7.564 103.643, 12.873 106.134, 17.888 107.616, 21.832 " />
            <path fill="none" stroke-width="3.0" stroke-linecap="butt" stroke-opacity="1.0" stroke="rgb(0, 0, 0)" stroke-linejoin="round" d=" M 116.174, 55.521 114.799, 53.397 113.585, 52.406 118.155, 48.500 118.259, 48.394 120.367, 46.228 121.046, 45.531 121.999, 44.552 123.618, 42.889 124.012, 42.265 124.500, 41.492 127.387, 36.920 128.913, 30.938 125.241, 26.717 118.208, 23.542 " />
            <path fill="none" stroke-width="3.0" stroke-linecap="butt" stroke-opacity="1.0" stroke="rgb(0, 0, 0)" stroke-linejoin="round" d=" M 58.322, 49.482 56.426, 46.568 54.966, 44.326 54.377, 42.426 53.262, 38.827 53.327, 39.496 54.377, 42.426 " />
            <path fill="none" stroke-width="3.0" stroke-linecap="butt" stroke-opacity="1.0" stroke="rgb(0, 0, 0)" stroke-linejoin="round" d=" M 56.426, 46.568 57.323, 48.243 61.243, 53.542 " />
            <path fill="none" stroke-width="3.0" stroke-linecap="butt" stroke-opacity="1.0" stroke="rgb(0, 0, 0)" stroke-linejoin="round" d=" M 108.885, 21.978 107.912, 19.704 106.509, 16.987 104.100, 12.502 99.880, 7.686 94.887, 5.539 94.098, 5.455 " />
            <path fill="none" stroke-width="3.0" stroke-linecap="butt" stroke-opacity="1.0" stroke="rgb(0, 0, 0)" stroke-linejoin="round" d=" M 58.322, 49.482 61.392, 53.098 " />
            <path fill="none" stroke-width="3.0" stroke-linecap="butt" stroke-opacity="1.0" stroke="rgb(0, 0, 0)" stroke-linejoin="round" d=" M 186.344, 87.883 185.308, 86.824 183.979, 82.525 178.903, 73.909 177.543, 71.601 171.950, 65.204 165.240, 57.790 164.800, 57.305 156.657, 51.500 155.920, 50.975 149.228, 47.098 140.202, 43.992 136.590, 42.970 136.158, 42.889 130.202, 41.775 129.503, 41.740 " />
            <path fill="none" stroke-width="3.0" stroke-linecap="butt" stroke-opacity="1.0" stroke="rgb(0, 0, 0)" stroke-linejoin="round" d=" M 99.035, 80.523 100.463, 80.818 104.958, 81.746 107.386, 81.279 109.538, 80.865 110.759, 80.630 110.830, 80.525 111.057, 80.193 111.536, 79.492 113.715, 76.300 113.727, 76.282 114.616, 74.980 115.219, 73.001 115.821, 71.027 115.926, 70.680 116.323, 68.116 116.456, 67.255 116.524, 66.820 117.079, 63.232 117.494, 58.848 117.563, 58.122 " />
            <path fill="none" stroke-width="3.0" stroke-linecap="butt" stroke-opacity="1.0" stroke="rgb(0, 0, 0)" stroke-linejoin="round" d=" M 91.761, 77.791 92.275, 77.985 92.993, 78.255 94.601, 78.862 94.646, 78.879 96.421, 79.549 97.169, 79.831 98.162, 80.205 99.035, 80.523 96.929, 79.821 96.160, 79.564 94.393, 78.974 94.362, 78.960 94.194, 78.885 91.761, 77.791 91.170, 77.468 89.296, 76.446 88.568, 76.049 88.155, 75.823 87.068, 75.230 86.989, 75.187 86.528, 74.936 " />
            <path fill="none" stroke-width="3.0" stroke-linecap="butt" stroke-opacity="1.0" stroke="rgb(0, 0, 0)" stroke-linejoin="round" d=" M 187.013, 100.141 185.175, 98.268 176.203, 93.851 173.523, 92.532 170.405, 90.997 167.982, 90.278 " />
            <path fill="none" stroke-width="3.0" stroke-linecap="butt" stroke-opacity="1.0" stroke="rgb(0, 0, 0)" stroke-linejoin="round" d=" M 125.579, 67.366 124.187, 67.282 " />
            <path fill="none" stroke-width="3.0" stroke-linecap="butt" stroke-opacity="1.0" stroke="rgb(0, 0, 0)" stroke-linejoin="round" d=" M 125.579, 67.366 135.449, 68.970 145.320, 70.574 148.923, 71.160 " />
            <path fill="none" stroke-width="3.0" stroke-linecap="butt" stroke-opacity="1.0" stroke="rgb(0, 0, 0)" stroke-linejoin="round" d=" M 191.210, 102.440 188.040, 92.956 186.344, 87.883 180.467, 82.109 179.366, 81.032 " />
            <path fill="none" stroke-width="3.0" stroke-linecap="butt" stroke-opacity="1.0" stroke="rgb(0, 0, 0)" stroke-linejoin="round" d=" M 136.158, 42.889 135.887, 42.548 132.700, 41.135 129.742, 40.785 " />
            <path fill="none" stroke-width="3.0" stroke-linecap="butt" stroke-opacity="1.0" stroke="rgb(0, 0, 0)" stroke-linejoin="round" d=" M 206.202, 135.111 208.011, 134.215 209.756, 127.611 210.578, 123.752 206.621, 118.363 200.674, 111.392 193.745, 104.182 193.046, 103.455 191.210, 102.440 187.340, 100.301 187.013, 100.141 180.174, 96.793 " />
            <path fill="none" stroke-width="3.0" stroke-linecap="butt" stroke-opacity="1.0" stroke="rgb(0, 0, 0)" stroke-linejoin="round" d=" M 31.965, 102.288 31.652, 106.004 " />
            <path fill="none" stroke-width="3.0" stroke-linecap="butt" stroke-opacity="1.0" stroke="rgb(0, 0, 0)" stroke-linejoin="round" d=" M 209.756, 127.611 202.564, 120.543 " />
            <path fill="none" stroke-width="3.0" stroke-linecap="butt" stroke-opacity="1.0" stroke="rgb(0, 0, 0)" stroke-linejoin="round" d=" M 210.578, 123.752 203.585, 116.604 202.553, 115.549 " />
            <path fill="none" stroke-width="3.0" stroke-linecap="butt" stroke-opacity="1.0" stroke="rgb(0, 0, 0)" stroke-linejoin="round" d=" M 36.918, 115.643 44.062, 121.055 " />
            <path fill="none" stroke-width="3.0" stroke-linecap="butt" stroke-opacity="1.0" stroke="rgb(0, 0, 0)" stroke-linejoin="round" d=" M 60.732, 78.805 58.077, 83.073 " />
            <path fill="none" stroke-width="3.0" stroke-linecap="butt" stroke-opacity="1.0" stroke="rgb(0, 0, 0)" stroke-linejoin="round" d=" M 124.177, 105.423 124.427, 109.681 " />
            <path fill="none" stroke-width="3.0" stroke-linecap="butt" stroke-opacity="1.0" stroke="rgb(0, 0, 0)" stroke-linejoin="round" d=" M 180.381, 112.554 183.458, 113.924 " />
            <path fill="none" stroke-width="3.0" stroke-linecap="butt" stroke-opacity="1.0" stroke="rgb(0, 0, 0)" stroke-linejoin="round" d=" M 187.353, 115.543 186.774, 115.285 184.910, 114.454 183.399, 113.781 181.059, 112.739 " />
            <path fill="none" stroke-width="3.0" stroke-linecap="butt" stroke-opacity="1.0" stroke="rgb(0, 0, 0)" stroke-linejoin="round" d=" M 198.203, 122.145 202.633, 126.300 " />
        </g>
    </g>
</svg>
