<?xml version='1.0' encoding='ascii'?>
<svg xmlns="http://www.w3.org/2000/svg" version="1.1" width="250" height="250">
    <g id="ViewLayer_LineSet" xmlns:inkscape="http://www.inkscape.org/namespaces/inkscape" inkscape:groupmode="lineset" inkscape:label="ViewLayer_LineSet">
        <g xmlns:inkscape="http://www.inkscape.org/namespaces/inkscape" inkscape:groupmode="layer" id="strokes" inkscape:label="strokes">
            <path fill="none" stroke-width="3.0" stroke-linecap="butt" stroke-opacity="1.0" stroke="rgb(0, 0, 0)" stroke-linejoin="round" d=" M 120.348, 214.366 121.710, 214.430 124.881, 214.579 129.425, 214.502 133.774, 214.140 137.737, 213.511 143.767, 212.185 143.844, 212.168 143.930, 212.149 144.171, 212.096 149.216, 210.818 153.176, 209.265 161.038, 205.629 168.214, 201.271 169.612, 200.221 175.483, 195.478 181.326, 189.431 182.998, 187.556 188.713, 179.350 189.543, 178.158 190.470, 176.374 192.939, 171.619 195.599, 164.892 197.329, 159.177 " />
            <path fill="none" stroke-width="3.0" stroke-linecap="butt" stroke-opacity="1.0" stroke="rgb(0, 0, 0)" stroke-linejoin="round" d=" M 52.446, 143.688 52.736, 147.018 52.802, 147.772 53.252, 152.930 55.716, 162.621 56.091, 164.098 60.093, 173.262 60.663, 174.567 60.870, 174.919 62.385, 177.493 " />
            <path fill="none" stroke-width="3.0" stroke-linecap="butt" stroke-opacity="1.0" stroke="rgb(0, 0, 0)" stroke-linejoin="round" d=" M 197.761, 156.881 197.521, 158.203 197.329, 159.177 197.761, 156.881 199.230, 149.069 199.519, 145.429 199.609, 137.302 199.140, 133.190 " />
            <path fill="none" stroke-width="3.0" stroke-linecap="butt" stroke-opacity="1.0" stroke="rgb(0, 0, 0)" stroke-linejoin="round" d=" M 195.585, 149.470 196.104, 149.938 196.622, 149.860 " />
            <path fill="none" stroke-width="3.0" stroke-linecap="butt" stroke-opacity="1.0" stroke="rgb(0, 0, 0)" stroke-linejoin="round" d=" M 195.843, 150.002 195.585, 149.470 195.295, 148.870 194.863, 147.260 194.623, 146.128 194.558, 145.669 " />
            <path fill="none" stroke-width="3.0" stroke-linecap="butt" stroke-opacity="1.0" stroke="rgb(0, 0, 0)" stroke-linejoin="round" d=" M 194.609, 146.492 194.558, 145.669 194.544, 145.448 194.630, 145.039 194.741, 144.634 " />
            <path fill="none" stroke-width="3.0" stroke-linecap="butt" stroke-opacity="1.0" stroke="rgb(0, 0, 0)" stroke-linejoin="round" d=" M 196.622, 149.860 197.656, 148.740 198.317, 147.164 198.641, 145.862 198.843, 144.295 198.926, 143.164 198.978, 142.224 199.114, 141.431 " />
            <path fill="none" stroke-width="3.0" stroke-linecap="butt" stroke-opacity="1.0" stroke="rgb(0, 0, 0)" stroke-linejoin="round" d=" M 197.517, 115.179 197.874, 116.009 199.067, 119.605 200.020, 123.011 200.731, 126.071 201.221, 128.638 201.522, 130.583 201.668, 131.799 201.686, 132.215 201.588, 131.797 201.367, 130.551 201.001, 128.528 200.457, 125.822 199.700, 122.563 198.708, 118.914 197.517, 115.179 197.477, 115.056 196.053, 111.233 194.603, 107.588 193.205, 104.138 192.824, 103.214 192.528, 102.497 191.919, 101.020 191.259, 99.446 " />
            <path fill="none" stroke-width="3.0" stroke-linecap="butt" stroke-opacity="1.0" stroke="rgb(0, 0, 0)" stroke-linejoin="round" d=" M 193.309, 116.320 194.636, 120.301 195.579, 124.154 196.134, 127.707 196.324, 130.796 196.188, 133.274 195.913, 134.426 195.771, 135.022 195.118, 135.952 194.331, 136.283 194.293, 136.245 194.268, 136.220 193.232, 135.187 192.031, 133.513 191.025, 131.711 190.663, 131.063 189.133, 127.952 187.452, 124.335 185.652, 120.387 183.807, 116.364 182.096, 112.421 180.851, 109.230 180.596, 108.577 180.349, 107.854 180.090, 107.096 179.369, 104.986 179.368, 104.983 178.756, 102.813 " />
            <path fill="none" stroke-width="3.0" stroke-linecap="butt" stroke-opacity="1.0" stroke="rgb(0, 0, 0)" stroke-linejoin="round" d=" M 195.118, 135.952 194.268, 136.220 " />
            <path fill="none" stroke-width="3.0" stroke-linecap="butt" stroke-opacity="1.0" stroke="rgb(0, 0, 0)" stroke-linejoin="round" d=" M 185.329, 101.043 186.054, 102.084 186.215, 102.360 186.506, 102.857 187.433, 104.440 187.853, 105.158 187.931, 105.291 189.869, 108.726 " />
            <path fill="none" stroke-width="3.0" stroke-linecap="butt" stroke-opacity="1.0" stroke="rgb(0, 0, 0)" stroke-linejoin="round" d=" M 190.720, 117.305 190.960, 117.214 193.309, 116.320 191.670, 112.447 189.869, 108.726 187.928, 109.486 187.739, 109.560 " />
            <path fill="none" stroke-width="3.0" stroke-linecap="butt" stroke-opacity="1.0" stroke="rgb(0, 0, 0)" stroke-linejoin="round" d=" M 218.591, 189.724 217.241, 187.802 212.083, 184.219 208.216, 182.619 205.745, 181.596 " />
            <path fill="none" stroke-width="3.0" stroke-linecap="butt" stroke-opacity="1.0" stroke="rgb(0, 0, 0)" stroke-linejoin="round" d=" M 143.844, 212.168 144.089, 212.307 145.580, 213.151 150.177, 213.823 159.963, 215.102 169.911, 216.123 172.757, 216.416 182.722, 217.254 185.892, 217.520 195.841, 218.533 197.620, 218.714 199.274, 218.742 205.029, 217.471 209.325, 216.297 215.420, 214.105 218.503, 212.053 221.583, 208.708 222.897, 206.917 223.885, 202.492 223.923, 200.869 223.405, 196.833 221.342, 192.918 218.591, 189.724 218.175, 189.241 " />
            <path fill="none" stroke-width="3.0" stroke-linecap="butt" stroke-opacity="1.0" stroke="rgb(0, 0, 0)" stroke-linejoin="round" d=" M 208.216, 182.619 205.815, 181.552 199.329, 179.347 191.951, 176.740 190.470, 176.374 " />
            <path fill="none" stroke-width="3.0" stroke-linecap="butt" stroke-opacity="1.0" stroke="rgb(0, 0, 0)" stroke-linejoin="round" d=" M 60.870, 174.919 59.652, 175.179 53.851, 177.790 50.815, 179.568 47.349, 182.590 44.394, 185.646 42.333, 189.136 41.363, 193.080 40.589, 196.944 40.933, 200.833 42.322, 205.776 44.134, 209.596 47.877, 215.446 54.383, 222.732 61.917, 229.308 64.678, 231.718 72.559, 237.874 76.091, 240.633 84.837, 245.480 89.472, 248.048 90.596, 248.428 97.428, 250.515 " />
            <path fill="none" stroke-width="3.0" stroke-linecap="butt" stroke-opacity="1.0" stroke="rgb(0, 0, 0)" stroke-linejoin="round" d=" M 115.222, 250.504 119.610, 249.627 122.538, 247.940 125.831, 244.798 127.198, 242.576 128.872, 238.860 129.112, 234.423 129.042, 231.543 128.593, 226.952 126.006, 221.087 124.478, 218.488 122.056, 214.839 121.710, 214.430 " />
            <path fill="none" stroke-width="3.0" stroke-linecap="butt" stroke-opacity="1.0" stroke="rgb(0, 0, 0)" stroke-linejoin="round" d=" M 85.160, 133.815 81.706, 138.517 81.418, 139.034 80.886, 139.994 79.495, 142.502 77.739, 147.284 76.827, 152.338 76.162, 157.657 75.897, 163.020 76.164, 168.804 77.333, 174.984 77.609, 175.710 79.145, 179.740 80.848, 183.731 82.917, 187.032 85.396, 190.015 87.498, 192.446 91.472, 195.310 94.037, 196.589 98.520, 198.040 103.512, 198.607 108.124, 198.210 108.821, 198.151 113.314, 196.789 115.839, 195.560 117.835, 194.324 119.961, 192.776 122.444, 190.391 127.066, 184.198 129.211, 180.244 130.609, 175.725 132.382, 169.534 133.217, 163.689 " />
            <path fill="none" stroke-width="3.0" stroke-linecap="butt" stroke-opacity="1.0" stroke="rgb(0, 0, 0)" stroke-linejoin="round" d=" M 185.158, 65.938 185.188, 65.988 185.535, 66.569 185.724, 66.885 185.810, 67.029 186.234, 67.737 186.310, 67.864 187.281, 69.486 187.316, 69.545 190.191, 74.350 194.925, 79.291 196.268, 80.123 202.343, 82.192 207.204, 81.901 207.742, 81.868 211.694, 80.793 213.190, 79.521 214.217, 78.277 214.539, 76.169 214.629, 74.234 214.761, 71.370 " />
            <path fill="none" stroke-width="3.0" stroke-linecap="butt" stroke-opacity="1.0" stroke="rgb(0, 0, 0)" stroke-linejoin="round" d=" M 211.715, 78.358 210.166, 79.621 206.184, 80.728 203.693, 80.890 200.953, 81.067 " />
            <path fill="none" stroke-width="3.0" stroke-linecap="butt" stroke-opacity="1.0" stroke="rgb(0, 0, 0)" stroke-linejoin="round" d=" M 178.250, 49.717 179.989, 48.981 180.598, 51.160 180.747, 51.693 181.116, 53.014 " />
            <path fill="none" stroke-width="3.0" stroke-linecap="butt" stroke-opacity="1.0" stroke="rgb(0, 0, 0)" stroke-linejoin="round" d=" M 179.688, 43.427 179.913, 47.575 179.931, 47.909 179.989, 48.981 " />
            <path fill="none" stroke-width="3.0" stroke-linecap="butt" stroke-opacity="1.0" stroke="rgb(0, 0, 0)" stroke-linejoin="round" d=" M 196.996, 17.305 196.499, 16.350 194.592, 13.298 192.777, 13.133 189.267, 15.101 185.561, 18.734 182.389, 25.226 181.190, 28.526 180.215, 35.962 179.855, 41.411 179.688, 43.427 " />
            <path fill="none" stroke-width="3.0" stroke-linecap="butt" stroke-opacity="1.0" stroke="rgb(0, 0, 0)" stroke-linejoin="round" d=" M 180.275, 38.001 179.688, 43.427 179.935, 47.588 179.943, 47.720 179.983, 47.939 180.200, 49.141 180.342, 49.927 180.498, 50.792 " />
            <path fill="none" stroke-width="3.0" stroke-linecap="butt" stroke-opacity="1.0" stroke="rgb(0, 0, 0)" stroke-linejoin="round" d=" M 180.738, 36.829 180.275, 38.001 180.621, 37.569 184.156, 33.149 " />
            <path fill="none" stroke-width="3.0" stroke-linecap="butt" stroke-opacity="1.0" stroke="rgb(0, 0, 0)" stroke-linejoin="round" d=" M 177.591, 73.303 176.887, 72.252 176.539, 71.731 " />
            <path fill="none" stroke-width="3.0" stroke-linecap="butt" stroke-opacity="1.0" stroke="rgb(0, 0, 0)" stroke-linejoin="round" d=" M 186.234, 67.737 185.905, 67.992 180.806, 71.950 180.221, 72.405 179.595, 72.890 178.881, 73.444 177.591, 73.303 178.382, 72.699 178.850, 72.342 179.151, 72.112 180.309, 71.228 183.582, 68.729 185.810, 67.029 " />
            <path fill="none" stroke-width="3.0" stroke-linecap="butt" stroke-opacity="1.0" stroke="rgb(0, 0, 0)" stroke-linejoin="round" d=" M 162.017, 58.873 162.125, 59.207 " />
            <path fill="none" stroke-width="3.0" stroke-linecap="butt" stroke-opacity="1.0" stroke="rgb(0, 0, 0)" stroke-linejoin="round" d=" M 192.824, 103.214 200.458, 100.225 206.920, 97.053 209.670, 95.086 207.896, 91.597 204.702, 88.965 " />
            <path fill="none" stroke-width="3.0" stroke-linecap="butt" stroke-opacity="1.0" stroke="rgb(0, 0, 0)" stroke-linejoin="round" d=" M 206.319, 90.446 204.702, 88.965 201.639, 86.158 196.976, 83.654 193.012, 81.525 " />
            <path fill="none" stroke-width="3.0" stroke-linecap="butt" stroke-opacity="1.0" stroke="rgb(0, 0, 0)" stroke-linejoin="round" d=" M 37.955, 150.413 38.553, 150.042 42.124, 147.834 51.403, 144.107 52.446, 143.688 56.301, 142.139 65.719, 138.779 75.138, 135.420 80.174, 133.623 88.611, 130.812 98.098, 127.650 105.582, 125.156 108.741, 124.103 109.509, 123.847 " />
            <path fill="none" stroke-width="3.0" stroke-linecap="butt" stroke-opacity="1.0" stroke="rgb(0, 0, 0)" stroke-linejoin="round" d=" M 55.045, 119.514 49.139, 122.885 48.322, 123.589 44.882, 126.557 39.968, 131.757 35.933, 140.257 34.269, 146.333 35.045, 150.233 37.955, 150.413 42.471, 150.145 52.217, 147.907 52.802, 147.772 " />
            <path fill="none" stroke-width="3.0" stroke-linecap="butt" stroke-opacity="1.0" stroke="rgb(0, 0, 0)" stroke-linejoin="round" d=" M 132.011, 116.729 141.549, 113.723 143.821, 113.007 153.409, 110.167 162.997, 107.327 166.356, 106.332 168.152, 105.799 170.044, 105.239 172.613, 104.478 172.982, 104.369 173.315, 104.279 174.156, 104.053 178.756, 102.813 179.767, 102.541 184.393, 101.295 184.525, 101.259 185.329, 101.043 187.663, 100.414 187.711, 100.401 188.755, 100.120 191.207, 99.459 191.259, 99.446 194.140, 98.669 203.928, 96.621 205.346, 96.324 " />
            <path fill="none" stroke-width="3.0" stroke-linecap="butt" stroke-opacity="1.0" stroke="rgb(0, 0, 0)" stroke-linejoin="round" d=" M 181.148, 72.447 183.928, 72.575 187.281, 69.486 " />
            <path fill="none" stroke-width="3.0" stroke-linecap="butt" stroke-opacity="1.0" stroke="rgb(0, 0, 0)" stroke-linejoin="round" d=" M 183.928, 72.575 184.751, 71.907 187.316, 69.545 " />
            <path fill="none" stroke-width="3.0" stroke-linecap="butt" stroke-opacity="1.0" stroke="rgb(0, 0, 0)" stroke-linejoin="round" d=" M 183.644, 61.385 185.158, 65.938 181.673, 67.103 " />
            <path fill="none" stroke-width="3.0" stroke-linecap="butt" stroke-opacity="1.0" stroke="rgb(0, 0, 0)" stroke-linejoin="round" d=" M 108.741, 124.103 108.902, 125.619 108.916, 125.749 108.958, 125.627 109.469, 124.150 109.509, 123.847 109.716, 122.255 109.917, 120.715 109.997, 120.103 112.898, 116.035 113.727, 114.873 114.699, 113.657 118.886, 108.425 119.252, 107.967 119.430, 107.744 126.621, 101.682 132.426, 96.688 140.103, 91.391 148.940, 86.686 150.153, 86.142 156.611, 83.250 157.379, 82.906 163.870, 80.113 165.091, 79.588 166.425, 79.235 171.784, 77.814 173.709, 77.264 176.758, 76.395 " />
            <path fill="none" stroke-width="3.0" stroke-linecap="butt" stroke-opacity="1.0" stroke="rgb(0, 0, 0)" stroke-linejoin="round" d=" M 130.368, 119.308 130.571, 117.620 130.793, 117.113 131.798, 114.825 132.525, 113.932 134.485, 111.527 139.933, 107.307 146.265, 103.363 153.275, 99.041 161.716, 94.034 170.421, 89.171 175.821, 86.591 178.521, 85.301 179.275, 84.950 179.829, 84.692 181.703, 83.818 183.599, 82.935 183.777, 82.852 186.168, 81.737 187.378, 81.497 190.174, 80.941 192.246, 80.529 194.228, 80.386 195.780, 80.702 196.984, 82.120 196.976, 83.654 " />
            <path fill="none" stroke-width="3.0" stroke-linecap="butt" stroke-opacity="1.0" stroke="rgb(0, 0, 0)" stroke-linejoin="round" d=" M 108.916, 125.749 109.206, 125.661 118.784, 122.786 128.361, 119.910 130.368, 119.308 132.011, 116.729 " />
            <path fill="none" stroke-width="3.0" stroke-linecap="butt" stroke-opacity="1.0" stroke="rgb(0, 0, 0)" stroke-linejoin="round" d=" M 195.780, 80.702 186.230, 77.734 184.395, 77.164 " />
            <path fill="none" stroke-width="3.0" stroke-linecap="butt" stroke-opacity="1.0" stroke="rgb(0, 0, 0)" stroke-linejoin="round" d=" M 181.629, 76.445 180.908, 76.272 179.532, 76.312 " />
            <path fill="none" stroke-width="3.0" stroke-linecap="butt" stroke-opacity="1.0" stroke="rgb(0, 0, 0)" stroke-linejoin="round" d=" M 169.469, 71.410 173.914, 71.612 174.305, 71.629 175.270, 71.673 176.220, 71.716 176.539, 71.731 176.691, 71.737 177.337, 71.137 178.156, 70.375 178.932, 69.653 179.110, 69.487 179.319, 69.293 180.695, 68.013 181.286, 67.463 181.673, 67.103 183.358, 65.536 183.386, 65.125 183.469, 63.930 183.644, 61.385 183.804, 59.072 " />
            <path fill="none" stroke-width="3.0" stroke-linecap="butt" stroke-opacity="1.0" stroke="rgb(0, 0, 0)" stroke-linejoin="round" d=" M 181.116, 53.014 180.184, 51.942 179.950, 51.673 179.781, 51.478 178.910, 50.477 178.250, 49.717 178.175, 49.632 175.483, 49.568 173.743, 49.527 169.439, 49.426 168.396, 49.907 162.341, 55.757 162.222, 57.661 162.153, 58.757 162.153, 58.764 162.151, 58.785 162.125, 59.207 161.813, 64.187 164.596, 67.456 " />
            <path fill="none" stroke-width="3.0" stroke-linecap="butt" stroke-opacity="1.0" stroke="rgb(0, 0, 0)" stroke-linejoin="round" d=" M 219.541, 76.942 219.541, 76.862 219.497, 71.831 218.677, 65.634 216.783, 58.913 214.604, 51.396 212.359, 43.054 209.232, 37.007 206.856, 32.439 203.451, 26.025 199.633, 20.299 196.996, 17.305 196.916, 17.213 196.292, 16.505 " />
            <path fill="none" stroke-width="3.0" stroke-linecap="butt" stroke-opacity="1.0" stroke="rgb(0, 0, 0)" stroke-linejoin="round" d=" M 207.204, 81.901 209.073, 82.438 214.431, 82.152 218.175, 81.162 219.431, 79.978 220.046, 79.071 219.541, 76.862 " />
            <path fill="none" stroke-width="3.0" stroke-linecap="butt" stroke-opacity="1.0" stroke="rgb(0, 0, 0)" stroke-linejoin="round" d=" M 214.629, 74.234 216.007, 76.337 217.701, 78.588 219.431, 79.978 " />
            <path fill="none" stroke-width="3.0" stroke-linecap="butt" stroke-opacity="1.0" stroke="rgb(0, 0, 0)" stroke-linejoin="round" d=" M 213.190, 79.521 211.715, 78.358 210.703, 76.045 209.511, 73.318 206.784, 65.628 204.932, 59.682 203.636, 55.253 " />
            <path fill="none" stroke-width="3.0" stroke-linecap="butt" stroke-opacity="1.0" stroke="rgb(0, 0, 0)" stroke-linejoin="round" d=" M 196.303, 27.199 195.468, 27.263 195.455, 27.270 194.499, 27.816 193.864, 30.192 194.272, 33.915 196.339, 39.771 198.864, 45.721 201.603, 51.353 203.636, 55.253 201.855, 56.028 197.334, 57.734 " />
            <path fill="none" stroke-width="3.0" stroke-linecap="butt" stroke-opacity="1.0" stroke="rgb(0, 0, 0)" stroke-linejoin="round" d=" M 194.592, 13.298 194.134, 14.720 194.628, 19.192 195.507, 23.642 196.303, 27.199 " />
            <path fill="none" stroke-width="3.0" stroke-linecap="butt" stroke-opacity="1.0" stroke="rgb(0, 0, 0)" stroke-linejoin="round" d=" M 195.468, 27.263 194.386, 27.359 193.392, 27.623 189.216, 29.705 184.190, 33.126 184.156, 33.149 184.710, 32.478 " />
            <path fill="none" stroke-width="3.0" stroke-linecap="butt" stroke-opacity="1.0" stroke="rgb(0, 0, 0)" stroke-linejoin="round" d=" M 162.222, 57.661 156.275, 52.930 153.210, 50.652 144.338, 46.039 141.822, 44.731 132.263, 41.794 129.012, 40.796 119.048, 39.946 116.589, 39.736 112.937, 39.437 107.725, 39.966 105.985, 40.336 101.486, 41.292 94.907, 43.279 88.730, 45.703 88.093, 46.027 83.643, 48.288 80.172, 50.748 72.489, 57.149 71.014, 58.377 64.942, 66.322 63.141, 68.679 60.397, 72.527 55.807, 81.411 54.397, 84.139 51.552, 93.726 50.458, 97.413 49.707, 101.140 47.944, 102.883 47.746, 112.881 47.548, 122.879 47.540, 123.283 48.322, 123.589 " />
            <path fill="none" stroke-width="3.0" stroke-linecap="butt" stroke-opacity="1.0" stroke="rgb(0, 0, 0)" stroke-linejoin="round" d=" M 192.278, 34.204 188.447, 36.036 184.387, 38.825 " />
            <path fill="none" stroke-width="3.0" stroke-linecap="butt" stroke-opacity="1.0" stroke="rgb(0, 0, 0)" stroke-linejoin="round" d=" M 47.540, 123.283 51.385, 119.719 56.246, 117.267 61.608, 114.563 62.949, 113.887 72.217, 110.132 81.486, 106.377 81.715, 106.284 91.148, 102.964 100.580, 99.643 105.557, 97.891 115.106, 94.922 124.655, 91.953 130.963, 89.992 140.620, 87.397 150.277, 84.801 153.976, 83.807 156.611, 83.250 " />
            <path fill="none" stroke-width="3.0" stroke-linecap="butt" stroke-opacity="1.0" stroke="rgb(0, 0, 0)" stroke-linejoin="round" d=" M 166.610, 67.401 164.716, 67.460 164.670, 67.462 164.608, 67.470 164.447, 67.493 154.544, 68.883 146.531, 70.007 " />
            <path fill="none" stroke-width="3.0" stroke-linecap="butt" stroke-opacity="1.0" stroke="rgb(0, 0, 0)" stroke-linejoin="round" d=" M 55.045, 119.514 55.605, 119.235 58.663, 117.713 66.135, 113.996 75.412, 110.262 83.930, 106.833 93.366, 103.520 102.801, 100.207 106.418, 98.937 115.967, 95.967 125.515, 92.996 130.347, 91.493 140.000, 88.885 149.654, 86.277 150.153, 86.142 " />
            <path fill="none" stroke-width="3.0" stroke-linecap="butt" stroke-opacity="1.0" stroke="rgb(0, 0, 0)" stroke-linejoin="round" d=" M 164.670, 67.462 164.596, 67.456 160.961, 67.183 " />
            <path fill="none" stroke-width="3.0" stroke-linecap="butt" stroke-opacity="1.0" stroke="rgb(0, 0, 0)" stroke-linejoin="round" d=" M 105.985, 40.336 105.218, 39.563 102.113, 37.762 99.177, 37.820 95.100, 38.863 91.500, 40.483 89.795, 42.032 88.198, 45.450 88.093, 46.027 " />
            <path fill="none" stroke-width="3.0" stroke-linecap="butt" stroke-opacity="1.0" stroke="rgb(0, 0, 0)" stroke-linejoin="round" d=" M 108.639, 117.475 99.165, 120.675 89.691, 123.876 80.217, 127.077 76.755, 128.246 67.372, 131.706 57.990, 135.166 52.554, 137.170 52.214, 137.295 " />
            <path fill="none" stroke-width="3.0" stroke-linecap="butt" stroke-opacity="1.0" stroke="rgb(0, 0, 0)" stroke-linejoin="round" d=" M 35.045, 150.233 39.160, 147.544 42.346, 146.243 51.604, 142.463 52.314, 142.173 53.719, 141.599 63.130, 138.216 72.540, 134.833 78.482, 132.697 87.966, 129.527 97.450, 126.356 106.934, 123.185 108.820, 122.555 109.716, 122.255 " />
            <path fill="none" stroke-width="3.0" stroke-linecap="butt" stroke-opacity="1.0" stroke="rgb(0, 0, 0)" stroke-linejoin="round" d=" M 133.562, 114.729 143.101, 111.726 144.843, 111.177 154.435, 108.349 164.027, 105.521 173.012, 102.872 173.327, 102.780 174.534, 102.424 178.387, 101.389 178.844, 101.266 183.831, 99.928 183.951, 99.895 184.439, 99.764 186.742, 99.146 190.338, 98.180 190.635, 98.101 190.687, 98.087 196.614, 96.495 200.428, 95.730 208.276, 94.155 209.670, 95.086 " />
            <path fill="none" stroke-width="3.0" stroke-linecap="butt" stroke-opacity="1.0" stroke="rgb(0, 0, 0)" stroke-linejoin="round" d=" M 179.913, 47.575 179.675, 47.435 178.431, 47.030 175.677, 47.850 173.743, 49.527 " />
            <path fill="none" stroke-width="3.0" stroke-linecap="butt" stroke-opacity="1.0" stroke="rgb(0, 0, 0)" stroke-linejoin="round" d=" M 143.767, 212.185 144.089, 212.307 " />
            <path fill="none" stroke-width="3.0" stroke-linecap="butt" stroke-opacity="1.0" stroke="rgb(0, 0, 0)" stroke-linejoin="round" d=" M 162.153, 58.757 162.017, 58.873 162.153, 58.764 " />
            <path fill="none" stroke-width="3.0" stroke-linecap="butt" stroke-opacity="1.0" stroke="rgb(0, 0, 0)" stroke-linejoin="round" d=" M 179.931, 47.909 178.431, 47.030 " />
            <path fill="none" stroke-width="3.0" stroke-linecap="butt" stroke-opacity="1.0" stroke="rgb(0, 0, 0)" stroke-linejoin="round" d=" M 174.305, 71.629 177.588, 76.370 " />
            <path fill="none" stroke-width="3.0" stroke-linecap="butt" stroke-opacity="1.0" stroke="rgb(0, 0, 0)" stroke-linejoin="round" d=" M 180.695, 68.013 185.535, 66.569 " />
            <path fill="none" stroke-width="3.0" stroke-linecap="butt" stroke-opacity="1.0" stroke="rgb(0, 0, 0)" stroke-linejoin="round" d=" M 184.395, 77.164 181.148, 72.447 180.806, 71.950 " />
            <path fill="none" stroke-width="3.0" stroke-linecap="butt" stroke-opacity="1.0" stroke="rgb(0, 0, 0)" stroke-linejoin="round" d=" M 185.905, 67.992 186.310, 67.864 " />
            <path fill="none" stroke-width="3.0" stroke-linecap="butt" stroke-opacity="1.0" stroke="rgb(0, 0, 0)" stroke-linejoin="round" d=" M 190.014, 137.578 193.379, 136.569 194.331, 136.283 " />
            <path fill="none" stroke-width="3.0" stroke-linecap="butt" stroke-opacity="1.0" stroke="rgb(0, 0, 0)" stroke-linejoin="round" d=" M 199.140, 133.190 201.686, 132.215 " />
        </g>
    </g>
</svg>
