<?xml version='1.0' encoding='ascii'?>
<svg xmlns="http://www.w3.org/2000/svg" version="1.1" width="250" height="250">
    <g id="ViewLayer_LineSet" xmlns:inkscape="http://www.inkscape.org/namespaces/inkscape" inkscape:groupmode="lineset" inkscape:label="ViewLayer_LineSet">
        <g xmlns:inkscape="http://www.inkscape.org/namespaces/inkscape" inkscape:groupmode="layer" id="strokes" inkscape:label="strokes">
            <path fill="none" stroke-width="3.0" stroke-linecap="butt" stroke-opacity="1.0" stroke="rgb(0, 0, 0)" stroke-linejoin="round" d=" M 60.549, 176.867 61.857, 179.275 66.156, 185.494 69.861, 189.770 76.987, 196.785 77.345, 197.138 83.906, 201.975 87.668, 204.160 90.008, 205.334 " />
            <path fill="none" stroke-width="3.0" stroke-linecap="butt" stroke-opacity="1.0" stroke="rgb(0, 0, 0)" stroke-linejoin="round" d=" M 161.157, 202.671 167.996, 197.698 171.210, 195.161 178.169, 187.980 178.765, 187.365 184.422, 179.119 185.011, 178.261 187.908, 172.026 189.709, 168.149 " />
            <path fill="none" stroke-width="3.0" stroke-linecap="butt" stroke-opacity="1.0" stroke="rgb(0, 0, 0)" stroke-linejoin="round" d=" M 87.162, 214.492 84.224, 218.808 83.191, 223.045 82.562, 227.169 83.166, 231.149 84.361, 235.252 84.845, 236.554 87.492, 240.122 90.784, 241.861 93.758, 243.109 97.270, 243.276 100.774, 242.758 110.548, 240.644 117.595, 239.119 122.641, 237.932 127.191, 236.420 132.368, 234.129 136.914, 231.134 139.776, 228.305 146.614, 221.232 153.283, 214.188 157.412, 209.187 159.453, 206.363 161.120, 202.773 161.157, 202.671 162.891, 197.882 162.862, 193.816 162.121, 190.862 160.916, 186.761 158.216, 182.467 " />
            <path fill="none" stroke-width="3.0" stroke-linecap="butt" stroke-opacity="1.0" stroke="rgb(0, 0, 0)" stroke-linejoin="round" d=" M 97.244, 193.858 96.592, 194.635 91.265, 202.451 90.008, 205.334 88.793, 208.119 87.162, 214.492 86.907, 215.490 85.923, 221.350 85.545, 225.804 86.786, 229.881 " />
            <path fill="none" stroke-width="3.0" stroke-linecap="butt" stroke-opacity="1.0" stroke="rgb(0, 0, 0)" stroke-linejoin="round" d=" M 44.608, 128.907 42.171, 130.492 37.825, 134.180 33.387, 138.452 29.103, 143.453 26.489, 147.600 24.666, 151.603 24.062, 152.948 23.008, 156.891 22.827, 160.358 23.178, 163.645 24.072, 166.976 25.393, 170.025 27.258, 172.981 29.787, 175.634 32.475, 177.692 34.985, 179.090 38.536, 180.405 42.026, 181.180 46.206, 181.271 50.457, 180.667 55.062, 179.402 60.549, 176.867 " />
            <path fill="none" stroke-width="3.0" stroke-linecap="butt" stroke-opacity="1.0" stroke="rgb(0, 0, 0)" stroke-linejoin="round" d=" M 187.908, 172.026 190.631, 172.168 193.754, 171.714 196.618, 170.847 199.145, 169.611 199.270, 169.529 201.617, 167.962 203.983, 165.780 205.785, 163.292 207.216, 160.637 208.190, 157.898 208.241, 157.590 " />
            <path fill="none" stroke-width="3.0" stroke-linecap="butt" stroke-opacity="1.0" stroke="rgb(0, 0, 0)" stroke-linejoin="round" d=" M 88.684, 56.198 89.612, 56.340 " />
            <path fill="none" stroke-width="3.0" stroke-linecap="butt" stroke-opacity="1.0" stroke="rgb(0, 0, 0)" stroke-linejoin="round" d=" M 37.373, 113.205 37.311, 113.638 37.185, 117.226 37.412, 117.582 39.218, 120.425 44.608, 128.907 45.544, 130.380 51.753, 134.986 59.785, 140.943 64.486, 144.431 73.582, 148.587 82.677, 152.744 85.441, 154.007 92.581, 157.270 102.210, 159.971 111.838, 162.672 119.505, 164.824 125.900, 166.618 130.035, 167.146 139.955, 168.412 149.874, 169.679 158.893, 170.830 168.883, 170.383 178.873, 169.936 179.631, 169.902 185.311, 169.648 189.709, 168.149 199.175, 164.923 202.840, 163.674 208.241, 157.590 211.183, 154.276 211.972, 150.675 211.470, 140.688 211.421, 139.729 209.431, 134.786 205.541, 127.593 199.314, 119.768 198.661, 118.947 " />
            <path fill="none" stroke-width="3.0" stroke-linecap="butt" stroke-opacity="1.0" stroke="rgb(0, 0, 0)" stroke-linejoin="round" d=" M 88.882, 56.836 88.630, 56.418 88.504, 56.209 85.129, 56.748 81.468, 57.367 79.182, 59.132 77.331, 63.228 77.020, 64.152 77.085, 67.066 77.142, 67.301 " />
            <path fill="none" stroke-width="3.0" stroke-linecap="butt" stroke-opacity="1.0" stroke="rgb(0, 0, 0)" stroke-linejoin="round" d=" M 44.304, 96.801 40.323, 100.294 37.614, 103.548 35.599, 107.051 35.175, 109.801 35.730, 115.603 36.927, 119.121 39.218, 120.425 " />
            <path fill="none" stroke-width="3.0" stroke-linecap="butt" stroke-opacity="1.0" stroke="rgb(0, 0, 0)" stroke-linejoin="round" d=" M 35.730, 115.603 36.871, 111.094 37.900, 109.536 38.704, 108.319 40.818, 105.119 44.708, 99.976 45.457, 98.945 47.400, 96.271 47.762, 95.773 51.281, 91.898 51.344, 91.828 51.552, 91.599 51.745, 91.387 51.798, 91.329 57.389, 87.410 64.134, 84.357 " />
            <path fill="none" stroke-width="3.0" stroke-linecap="butt" stroke-opacity="1.0" stroke="rgb(0, 0, 0)" stroke-linejoin="round" d=" M 51.798, 91.329 50.986, 91.922 49.996, 92.645 49.960, 92.671 44.304, 96.801 49.740, 92.800 50.986, 91.922 " />
            <path fill="none" stroke-width="3.0" stroke-linecap="butt" stroke-opacity="1.0" stroke="rgb(0, 0, 0)" stroke-linejoin="round" d=" M 101.703, 45.163 101.022, 43.462 100.898, 43.153 99.998, 40.905 98.159, 36.710 96.454, 33.893 94.626, 31.013 93.116, 29.885 89.927, 27.549 85.957, 29.119 85.251, 29.450 80.785, 33.512 77.897, 37.362 75.971, 40.371 72.757, 40.651 68.432, 41.398 62.980, 43.643 59.601, 46.757 59.373, 51.285 59.414, 51.520 59.601, 52.095 60.465, 54.759 62.373, 58.737 63.069, 59.980 " />
            <path fill="none" stroke-width="3.0" stroke-linecap="butt" stroke-opacity="1.0" stroke="rgb(0, 0, 0)" stroke-linejoin="round" d=" M 78.370, 41.593 76.467, 40.338 75.971, 40.371 " />
            <path fill="none" stroke-width="3.0" stroke-linecap="butt" stroke-opacity="1.0" stroke="rgb(0, 0, 0)" stroke-linejoin="round" d=" M 65.183, 63.037 64.101, 66.274 62.986, 70.778 62.716, 76.521 62.839, 77.383 64.153, 81.200 65.630, 81.985 " />
            <path fill="none" stroke-width="3.0" stroke-linecap="butt" stroke-opacity="1.0" stroke="rgb(0, 0, 0)" stroke-linejoin="round" d=" M 59.601, 52.095 60.638, 55.782 63.069, 59.980 65.183, 63.037 65.444, 63.415 " />
            <path fill="none" stroke-width="3.0" stroke-linecap="butt" stroke-opacity="1.0" stroke="rgb(0, 0, 0)" stroke-linejoin="round" d=" M 107.217, 46.478 106.751, 46.135 105.157, 44.986 101.413, 43.319 100.898, 43.153 " />
            <path fill="none" stroke-width="3.0" stroke-linecap="butt" stroke-opacity="1.0" stroke="rgb(0, 0, 0)" stroke-linejoin="round" d=" M 134.682, 42.176 131.420, 42.010 126.753, 41.822 123.658, 42.247 113.864, 44.267 110.835, 44.892 107.217, 46.478 106.554, 46.769 98.568, 50.269 90.291, 55.880 89.612, 56.340 89.250, 56.586 88.882, 56.836 88.460, 57.122 88.455, 57.125 84.153, 60.273 81.929, 62.503 77.142, 67.301 74.360, 70.091 71.184, 74.984 70.402, 76.190 " />
            <path fill="none" stroke-width="3.0" stroke-linecap="butt" stroke-opacity="1.0" stroke="rgb(0, 0, 0)" stroke-linejoin="round" d=" M 89.927, 27.549 91.466, 28.697 93.096, 31.216 " />
            <path fill="none" stroke-width="3.0" stroke-linecap="butt" stroke-opacity="1.0" stroke="rgb(0, 0, 0)" stroke-linejoin="round" d=" M 59.648, 46.873 61.379, 47.954 64.409, 49.700 " />
            <path fill="none" stroke-width="3.0" stroke-linecap="butt" stroke-opacity="1.0" stroke="rgb(0, 0, 0)" stroke-linejoin="round" d=" M 65.444, 63.415 67.340, 64.548 " />
            <path fill="none" stroke-width="3.0" stroke-linecap="butt" stroke-opacity="1.0" stroke="rgb(0, 0, 0)" stroke-linejoin="round" d=" M 198.912, 128.001 198.858, 125.695 198.737, 120.461 198.680, 119.606 " />
            <path fill="none" stroke-width="3.0" stroke-linecap="butt" stroke-opacity="1.0" stroke="rgb(0, 0, 0)" stroke-linejoin="round" d=" M 71.184, 74.984 68.579, 77.308 66.375, 80.803 65.630, 81.985 64.134, 84.357 64.115, 84.386 64.112, 84.391 62.956, 86.225 62.823, 86.436 61.314, 88.829 60.194, 90.603 60.193, 90.817 60.164, 94.463 60.161, 94.902 60.136, 98.115 60.135, 98.289 63.261, 102.103 67.763, 107.595 69.909, 108.975 73.492, 111.279 78.972, 114.803 82.526, 117.089 83.199, 117.522 92.422, 121.388 93.977, 122.039 95.329, 122.606 97.964, 123.711 101.100, 125.025 105.102, 126.702 114.746, 129.346 124.390, 131.990 130.581, 133.687 140.475, 135.136 150.370, 136.585 152.914, 136.957 155.795, 137.379 165.795, 137.374 175.795, 137.368 177.046, 137.368 186.790, 135.118 191.766, 133.969 194.330, 131.828 196.160, 130.299 196.204, 130.262 196.426, 130.077 197.771, 128.954 198.165, 128.625 198.912, 128.001 198.848, 125.688 198.702, 120.417 198.680, 119.606 198.661, 118.947 198.385, 108.951 198.355, 107.867 197.512, 102.041 196.326, 100.640 195.733, 96.774 192.685, 87.250 191.694, 84.153 186.862, 75.398 185.462, 72.861 179.170, 65.089 176.569, 61.877 173.827, 59.129 166.042, 52.853 164.344, 51.483 160.881, 49.577 155.336, 47.152 " />
            <path fill="none" stroke-width="3.0" stroke-linecap="butt" stroke-opacity="1.0" stroke="rgb(0, 0, 0)" stroke-linejoin="round" d=" M 198.355, 107.867 197.918, 108.150 197.844, 108.198 191.950, 112.020 190.624, 112.234 189.150, 112.472 188.716, 112.542 186.494, 112.901 178.552, 114.184 170.463, 113.939 169.192, 113.900 167.869, 113.860 158.896, 113.588 " />
            <path fill="none" stroke-width="3.0" stroke-linecap="butt" stroke-opacity="1.0" stroke="rgb(0, 0, 0)" stroke-linejoin="round" d=" M 155.649, 48.588 155.336, 47.152 155.083, 45.991 154.712, 44.799 152.971, 41.308 146.692, 38.423 141.869, 38.158 139.374, 38.202 136.060, 40.549 134.682, 42.176 134.421, 42.485 " />
            <path fill="none" stroke-width="3.0" stroke-linecap="butt" stroke-opacity="1.0" stroke="rgb(0, 0, 0)" stroke-linejoin="round" d=" M 134.421, 42.485 134.506, 43.784 138.682, 45.799 145.393, 47.736 151.923, 48.805 155.649, 48.588 " />
            <path fill="none" stroke-width="3.0" stroke-linecap="butt" stroke-opacity="1.0" stroke="rgb(0, 0, 0)" stroke-linejoin="round" d=" M 64.558, 140.357 56.487, 134.454 52.286, 131.382 46.902, 127.444 45.658, 126.535 41.544, 120.178 37.311, 113.638 " />
            <path fill="none" stroke-width="3.0" stroke-linecap="butt" stroke-opacity="1.0" stroke="rgb(0, 0, 0)" stroke-linejoin="round" d=" M 37.412, 117.582 36.927, 119.121 " />
            <path fill="none" stroke-width="3.0" stroke-linecap="butt" stroke-opacity="1.0" stroke="rgb(0, 0, 0)" stroke-linejoin="round" d=" M 88.630, 56.418 88.684, 56.198 89.250, 56.586 " />
        </g>
    </g>
</svg>
