<?xml version='1.0' encoding='ascii'?>
<svg xmlns="http://www.w3.org/2000/svg" version="1.1" width="250" height="250">
    <g id="ViewLayer_LineSet" xmlns:inkscape="http://www.inkscape.org/namespaces/inkscape" inkscape:groupmode="lineset" inkscape:label="ViewLayer_LineSet">
        <g xmlns:inkscape="http://www.inkscape.org/namespaces/inkscape" inkscape:groupmode="layer" id="strokes" inkscape:label="strokes">
            <path fill="none" stroke-width="3.0" stroke-linecap="butt" stroke-opacity="1.0" stroke="rgb(0, 0, 0)" stroke-linejoin="round" d=" M 164.483, 200.234 166.777, 198.568 173.731, 191.381 174.394, 190.696 176.391, 187.787 182.023, 179.524 182.723, 178.497 182.749, 178.442 " />
            <path fill="none" stroke-width="3.0" stroke-linecap="butt" stroke-opacity="1.0" stroke="rgb(0, 0, 0)" stroke-linejoin="round" d=" M 59.305, 100.287 57.986, 101.944 53.753, 109.049 49.946, 117.713 49.388, 119.519 48.454, 122.546 48.348, 122.890 48.008, 123.990 47.279, 126.352 46.026, 132.514 45.483, 138.898 45.257, 143.378 45.486, 149.041 45.965, 153.529 46.826, 158.182 47.672, 162.127 48.958, 166.427 50.622, 170.890 52.348, 174.781 52.590, 175.325 54.778, 179.539 57.092, 183.348 59.433, 186.576 62.364, 190.452 65.348, 193.743 69.459, 197.814 72.903, 200.537 78.079, 204.501 79.754, 205.500 84.042, 208.057 89.776, 210.642 93.584, 212.315 96.672, 213.211 " />
            <path fill="none" stroke-width="3.0" stroke-linecap="butt" stroke-opacity="1.0" stroke="rgb(0, 0, 0)" stroke-linejoin="round" d=" M 189.568, 126.169 188.805, 122.599 188.681, 122.281 " />
            <path fill="none" stroke-width="3.0" stroke-linecap="butt" stroke-opacity="1.0" stroke="rgb(0, 0, 0)" stroke-linejoin="round" d=" M 77.110, 151.937 77.664, 153.338 78.333, 154.354 79.027, 155.409 80.921, 157.071 83.115, 158.304 85.156, 158.752 87.250, 158.684 89.623, 157.862 91.671, 156.538 93.220, 154.696 93.935, 153.381 " />
            <path fill="none" stroke-width="3.0" stroke-linecap="butt" stroke-opacity="1.0" stroke="rgb(0, 0, 0)" stroke-linejoin="round" d=" M 117.439, 102.866 117.533, 103.183 118.009, 104.785 118.461, 108.178 118.502, 112.005 118.518, 112.074 117.453, 120.090 117.439, 120.199 117.399, 120.495 116.173, 124.712 114.669, 129.003 112.915, 133.001 110.974, 136.512 108.915, 139.363 108.817, 139.459 108.426, 139.839 106.807, 141.413 104.723, 142.558 102.734, 142.741 101.463, 142.186 100.915, 141.947 99.338, 140.211 98.228, 137.933 98.072, 137.612 98.021, 137.420 97.179, 134.272 96.707, 130.349 96.685, 126.033 97.120, 121.530 97.977, 117.116 98.223, 116.263 98.265, 116.116 99.179, 112.951 100.700, 109.046 102.478, 105.543 104.445, 102.566 105.344, 101.551 " />
            <path fill="none" stroke-width="3.0" stroke-linecap="butt" stroke-opacity="1.0" stroke="rgb(0, 0, 0)" stroke-linejoin="round" d=" M 77.310, 120.419 76.333, 124.714 76.137, 125.458 75.250, 128.824 74.350, 131.675 74.217, 132.097 74.075, 132.547 72.814, 135.698 71.474, 138.117 70.072, 139.686 68.926, 140.199 68.633, 140.330 67.223, 140.320 65.848, 138.780 64.640, 136.673 63.665, 133.810 63.003, 130.336 62.889, 128.766 62.855, 128.285 62.720, 126.424 62.858, 122.264 63.149, 120.097 63.416, 118.112 64.282, 114.111 65.400, 110.265 66.724, 106.712 67.398, 105.280 67.635, 104.777 68.201, 103.573 69.773, 100.956 70.566, 99.965 " />
            <path fill="none" stroke-width="3.0" stroke-linecap="butt" stroke-opacity="1.0" stroke="rgb(0, 0, 0)" stroke-linejoin="round" d=" M 67.223, 140.320 70.426, 141.692 " />
            <path fill="none" stroke-width="3.0" stroke-linecap="butt" stroke-opacity="1.0" stroke="rgb(0, 0, 0)" stroke-linejoin="round" d=" M 77.893, 99.756 78.527, 102.000 78.886, 104.918 78.996, 108.410 78.855, 110.117 78.832, 110.401 78.687, 112.156 " />
            <path fill="none" stroke-width="3.0" stroke-linecap="butt" stroke-opacity="1.0" stroke="rgb(0, 0, 0)" stroke-linejoin="round" d=" M 80.416, 122.355 77.310, 120.419 78.134, 116.212 78.687, 112.156 81.753, 114.186 " />
            <path fill="none" stroke-width="3.0" stroke-linecap="butt" stroke-opacity="1.0" stroke="rgb(0, 0, 0)" stroke-linejoin="round" d=" M 112.492, 194.260 107.408, 196.690 103.047, 199.941 100.011, 203.792 98.032, 207.657 96.890, 211.498 96.672, 213.211 96.432, 215.095 96.800, 218.959 98.195, 223.068 100.709, 226.063 104.486, 228.467 108.335, 230.853 109.089, 231.187 113.455, 233.120 119.582, 235.103 125.466, 236.779 132.106, 238.568 137.726, 239.604 142.298, 240.208 147.938, 240.935 155.258, 241.496 160.292, 241.528 164.585, 240.924 164.781, 240.858 168.585, 239.304 172.834, 235.406 175.195, 231.778 176.606, 227.886 177.039, 223.263 176.318, 218.275 173.916, 212.093 172.975, 209.955 168.577, 203.793 164.483, 200.234 163.030, 198.972 159.016, 196.645 152.671, 193.671 " />
            <path fill="none" stroke-width="3.0" stroke-linecap="butt" stroke-opacity="1.0" stroke="rgb(0, 0, 0)" stroke-linejoin="round" d=" M 79.754, 205.500 79.280, 207.909 79.297, 210.864 79.319, 215.610 79.852, 218.122 81.840, 222.734 82.976, 225.091 86.342, 228.445 90.569, 231.074 94.732, 232.283 96.756, 232.657 100.985, 232.839 106.482, 232.136 109.089, 231.187 " />
            <path fill="none" stroke-width="3.0" stroke-linecap="butt" stroke-opacity="1.0" stroke="rgb(0, 0, 0)" stroke-linejoin="round" d=" M 192.895, 181.712 196.688, 182.168 200.379, 181.936 205.129, 180.698 207.326, 179.679 207.845, 179.411 209.562, 178.338 212.163, 176.292 214.618, 173.608 216.591, 170.282 217.772, 167.172 218.274, 165.222 218.551, 163.584 218.655, 162.293 218.702, 159.426 218.051, 156.076 217.502, 153.887 216.129, 150.172 214.057, 146.294 210.312, 141.571 206.951, 138.080 206.556, 137.670 206.352, 137.458 202.456, 133.823 200.343, 132.088 196.199, 129.170 191.654, 126.904 189.568, 126.169 " />
            <path fill="none" stroke-width="3.0" stroke-linecap="butt" stroke-opacity="1.0" stroke="rgb(0, 0, 0)" stroke-linejoin="round" d=" M 185.872, 179.832 188.750, 180.610 192.895, 181.712 190.239, 181.015 185.872, 179.832 182.749, 178.442 " />
            <path fill="none" stroke-width="3.0" stroke-linecap="butt" stroke-opacity="1.0" stroke="rgb(0, 0, 0)" stroke-linejoin="round" d=" M 48.008, 123.990 44.246, 126.011 40.029, 129.098 36.045, 132.847 31.991, 137.151 28.092, 142.161 25.754, 146.263 24.168, 150.178 23.306, 154.210 23.248, 157.719 23.716, 161.015 24.740, 164.095 26.249, 166.877 26.566, 167.355 28.564, 169.988 30.934, 172.117 33.595, 173.880 36.499, 175.199 39.692, 176.033 43.188, 176.417 47.305, 176.098 51.404, 175.129 52.348, 174.781 " />
            <path fill="none" stroke-width="3.0" stroke-linecap="butt" stroke-opacity="1.0" stroke="rgb(0, 0, 0)" stroke-linejoin="round" d=" M 116.252, 72.448 119.499, 69.967 119.523, 69.920 119.662, 69.637 119.698, 69.563 121.351, 66.206 122.336, 63.611 122.317, 59.932 121.300, 57.272 119.396, 53.559 117.696, 52.314 " />
            <path fill="none" stroke-width="3.0" stroke-linecap="butt" stroke-opacity="1.0" stroke="rgb(0, 0, 0)" stroke-linejoin="round" d=" M 56.101, 55.835 56.008, 56.097 54.487, 60.398 52.848, 66.488 52.279, 74.341 52.569, 75.602 54.220, 80.893 56.708, 82.126 59.846, 82.859 61.342, 83.209 61.851, 83.328 65.734, 83.762 71.339, 82.782 71.742, 82.711 74.214, 82.081 77.305, 81.293 82.718, 79.139 82.789, 79.111 " />
            <path fill="none" stroke-width="3.0" stroke-linecap="butt" stroke-opacity="1.0" stroke="rgb(0, 0, 0)" stroke-linejoin="round" d=" M 33.818, 112.193 31.620, 107.716 32.800, 106.581 37.500, 102.064 41.753, 100.997 49.558, 99.041 53.188, 98.131 57.146, 98.000 59.120, 97.934 61.233, 97.864 71.227, 97.532 73.350, 97.461 76.065, 97.371 76.087, 97.370 79.965, 97.241 89.934, 98.027 99.903, 98.812 107.559, 99.416 113.672, 99.897 116.291, 100.354 116.362, 100.366 126.214, 102.083 136.065, 103.799 145.917, 105.516 147.654, 105.818 157.319, 108.385 166.984, 110.951 176.649, 113.518 177.060, 113.627 178.185, 114.089 178.978, 114.415 183.044, 116.085 185.875, 117.247 " />
            <path fill="none" stroke-width="3.0" stroke-linecap="butt" stroke-opacity="1.0" stroke="rgb(0, 0, 0)" stroke-linejoin="round" d=" M 206.556, 137.670 206.637, 137.623 206.266, 131.333 200.109, 126.672 197.889, 124.993 " />
            <path fill="none" stroke-width="3.0" stroke-linecap="butt" stroke-opacity="1.0" stroke="rgb(0, 0, 0)" stroke-linejoin="round" d=" M 39.017, 108.350 40.879, 106.736 44.985, 103.180 54.758, 101.062 58.186, 100.319 " />
            <path fill="none" stroke-width="3.0" stroke-linecap="butt" stroke-opacity="1.0" stroke="rgb(0, 0, 0)" stroke-linejoin="round" d=" M 38.880, 117.060 47.146, 122.402 48.348, 122.890 " />
            <path fill="none" stroke-width="3.0" stroke-linecap="butt" stroke-opacity="1.0" stroke="rgb(0, 0, 0)" stroke-linejoin="round" d=" M 55.985, 100.382 46.214, 102.513 45.401, 102.691 41.090, 103.631 39.827, 103.907 33.819, 109.348 34.556, 110.893 " />
            <path fill="none" stroke-width="3.0" stroke-linecap="butt" stroke-opacity="1.0" stroke="rgb(0, 0, 0)" stroke-linejoin="round" d=" M 55.985, 100.382 58.186, 100.319 59.305, 100.287 59.834, 100.272 61.670, 100.220 70.566, 99.965 75.960, 99.811 77.893, 99.756 79.318, 99.715 81.510, 99.653 91.479, 100.447 101.447, 101.241 105.344, 101.551 110.108, 101.931 113.426, 102.195 117.439, 102.866 118.030, 102.965 127.894, 104.613 129.644, 104.906 139.507, 106.554 146.724, 107.760 156.397, 110.299 166.069, 112.838 175.669, 115.358 179.305, 116.831 184.139, 118.790 " />
            <path fill="none" stroke-width="3.0" stroke-linecap="butt" stroke-opacity="1.0" stroke="rgb(0, 0, 0)" stroke-linejoin="round" d=" M 41.026, 94.379 36.224, 98.271 33.057, 101.465 31.245, 104.300 30.075, 107.325 30.067, 109.786 30.531, 111.959 34.857, 116.058 37.536, 117.530 38.880, 117.060 38.916, 117.048 40.797, 116.391 42.087, 115.511 43.653, 114.443 45.238, 109.370 " />
            <path fill="none" stroke-width="3.0" stroke-linecap="butt" stroke-opacity="1.0" stroke="rgb(0, 0, 0)" stroke-linejoin="round" d=" M 33.262, 113.549 30.531, 111.959 " />
            <path fill="none" stroke-width="3.0" stroke-linecap="butt" stroke-opacity="1.0" stroke="rgb(0, 0, 0)" stroke-linejoin="round" d=" M 43.653, 114.443 39.925, 112.126 " />
            <path fill="none" stroke-width="3.0" stroke-linecap="butt" stroke-opacity="1.0" stroke="rgb(0, 0, 0)" stroke-linejoin="round" d=" M 40.824, 109.743 39.925, 112.126 36.504, 113.088 " />
            <path fill="none" stroke-width="3.0" stroke-linecap="butt" stroke-opacity="1.0" stroke="rgb(0, 0, 0)" stroke-linejoin="round" d=" M 57.460, 84.793 50.510, 88.081 42.179, 93.613 41.026, 94.379 47.283, 90.345 48.200, 89.845 56.979, 85.055 57.460, 84.793 59.000, 84.164 61.342, 83.209 " />
            <path fill="none" stroke-width="3.0" stroke-linecap="butt" stroke-opacity="1.0" stroke="rgb(0, 0, 0)" stroke-linejoin="round" d=" M 47.283, 90.345 49.422, 89.482 49.711, 89.365 53.454, 87.854 55.750, 86.926 57.557, 86.391 67.146, 83.553 67.372, 83.486 77.323, 82.505 78.098, 82.428 80.459, 82.195 81.782, 82.163 87.689, 82.021 88.541, 82.060 89.336, 82.096 " />
            <path fill="none" stroke-width="3.0" stroke-linecap="butt" stroke-opacity="1.0" stroke="rgb(0, 0, 0)" stroke-linejoin="round" d=" M 179.305, 116.831 179.966, 118.451 182.041, 119.439 182.983, 119.887 183.256, 120.002 188.681, 122.281 196.824, 125.702 196.998, 125.586 197.889, 124.993 198.721, 124.439 199.026, 124.235 199.280, 123.132 199.861, 120.610 196.959, 116.057 192.330, 111.578 190.466, 109.775 185.148, 105.946 182.912, 104.336 178.324, 100.932 177.989, 100.684 176.698, 99.726 171.428, 96.618 168.167, 94.694 160.801, 91.616 159.215, 90.954 156.992, 90.025 147.447, 87.042 144.288, 86.055 134.675, 83.300 131.502, 82.391 121.645, 80.706 118.650, 80.194 109.240, 78.652 107.466, 78.361 " />
            <path fill="none" stroke-width="3.0" stroke-linecap="butt" stroke-opacity="1.0" stroke="rgb(0, 0, 0)" stroke-linejoin="round" d=" M 102.977, 83.175 107.696, 83.668 111.430, 84.058 111.838, 84.158 121.549, 86.545 128.070, 88.148 137.673, 90.936 141.386, 92.014 142.463, 92.326 151.791, 95.931 155.295, 97.285 164.455, 101.296 166.439, 102.165 174.804, 106.226 181.253, 109.825 184.918, 112.567 186.323, 113.618 187.331, 115.208 187.633, 115.684 188.210, 116.593 188.383, 117.800 188.576, 119.143 187.684, 119.707 187.184, 120.023 186.042, 120.745 " />
            <path fill="none" stroke-width="3.0" stroke-linecap="butt" stroke-opacity="1.0" stroke="rgb(0, 0, 0)" stroke-linejoin="round" d=" M 99.105, 79.930 99.364, 79.559 100.404, 78.071 102.899, 74.502 103.757, 71.555 104.013, 70.678 104.369, 69.457 104.600, 68.662 105.035, 67.170 105.238, 66.473 105.317, 66.203 105.853, 59.778 105.838, 57.424 105.832, 56.498 105.823, 55.111 105.822, 54.988 " />
            <path fill="none" stroke-width="3.0" stroke-linecap="butt" stroke-opacity="1.0" stroke="rgb(0, 0, 0)" stroke-linejoin="round" d=" M 76.872, 74.608 80.419, 76.950 82.916, 78.172 83.004, 78.215 84.026, 78.716 85.570, 79.471 93.084, 81.061 95.700, 80.570 99.105, 79.930 100.309, 81.369 101.870, 82.575 101.972, 82.653 103.424, 83.087 " />
            <path fill="none" stroke-width="3.0" stroke-linecap="butt" stroke-opacity="1.0" stroke="rgb(0, 0, 0)" stroke-linejoin="round" d=" M 54.220, 80.893 53.898, 79.531 " />
            <path fill="none" stroke-width="3.0" stroke-linecap="butt" stroke-opacity="1.0" stroke="rgb(0, 0, 0)" stroke-linejoin="round" d=" M 79.893, 77.420 77.628, 75.910 76.872, 74.608 72.529, 76.903 66.654, 79.311 61.532, 80.256 59.032, 80.718 53.898, 79.531 52.279, 74.341 " />
            <path fill="none" stroke-width="3.0" stroke-linecap="butt" stroke-opacity="1.0" stroke="rgb(0, 0, 0)" stroke-linejoin="round" d=" M 110.659, 62.286 110.906, 61.939 110.999, 61.808 111.218, 61.501 114.168, 57.361 114.509, 56.873 117.696, 52.314 118.843, 50.674 122.510, 45.025 122.916, 43.532 124.052, 39.363 124.102, 36.225 122.919, 33.992 119.441, 29.712 114.169, 27.248 111.236, 26.134 105.501, 25.001 103.088, 24.733 101.118, 24.514 " />
            <path fill="none" stroke-width="3.0" stroke-linecap="butt" stroke-opacity="1.0" stroke="rgb(0, 0, 0)" stroke-linejoin="round" d=" M 56.008, 56.097 53.324, 52.268 50.333, 47.183 48.911, 41.757 49.381, 36.234 53.733, 32.020 60.769, 28.486 66.459, 26.878 70.771, 25.995 73.361, 21.994 77.249, 16.803 83.325, 11.016 88.732, 8.329 93.343, 10.375 97.611, 15.616 99.829, 20.593 101.118, 24.514 " />
            <path fill="none" stroke-width="3.0" stroke-linecap="butt" stroke-opacity="1.0" stroke="rgb(0, 0, 0)" stroke-linejoin="round" d=" M 108.953, 58.046 107.791, 56.696 107.160, 55.962 105.862, 55.017 105.822, 54.988 105.904, 54.917 106.838, 54.109 110.347, 51.071 111.103, 50.290 115.798, 45.439 116.778, 43.908 119.634, 39.448 121.309, 33.451 117.906, 29.253 111.236, 26.134 " />
            <path fill="none" stroke-width="3.0" stroke-linecap="butt" stroke-opacity="1.0" stroke="rgb(0, 0, 0)" stroke-linejoin="round" d=" M 103.088, 24.733 102.157, 22.345 99.675, 17.502 98.252, 15.230 94.372, 10.474 89.671, 8.391 88.732, 8.329 " />
            <path fill="none" stroke-width="3.0" stroke-linecap="butt" stroke-opacity="1.0" stroke="rgb(0, 0, 0)" stroke-linejoin="round" d=" M 53.324, 52.268 56.101, 55.835 " />
            <path fill="none" stroke-width="3.0" stroke-linecap="butt" stroke-opacity="1.0" stroke="rgb(0, 0, 0)" stroke-linejoin="round" d=" M 191.353, 106.657 188.458, 97.085 186.313, 89.993 185.309, 88.920 184.101, 84.570 179.262, 75.819 177.996, 73.528 171.476, 65.946 170.356, 64.643 164.678, 59.193 156.737, 53.115 156.370, 52.833 149.153, 49.009 142.894, 46.803 138.173, 45.271 137.077, 44.916 130.632, 43.767 126.510, 43.586 124.280, 43.488 122.916, 43.532 " />
            <path fill="none" stroke-width="3.0" stroke-linecap="butt" stroke-opacity="1.0" stroke="rgb(0, 0, 0)" stroke-linejoin="round" d=" M 79.893, 77.420 81.525, 78.373 82.736, 79.080 82.789, 79.111 83.103, 79.294 84.525, 80.124 84.765, 80.265 87.421, 81.329 89.154, 82.023 89.336, 82.096 89.674, 82.232 90.784, 82.677 93.180, 83.190 97.836, 84.188 101.568, 83.452 102.977, 83.175 103.424, 83.087 103.691, 82.705 104.439, 81.634 106.746, 78.331 107.363, 77.448 107.399, 77.343 108.663, 73.578 108.710, 73.437 108.806, 73.152 108.836, 72.995 109.272, 70.707 109.498, 69.517 109.604, 68.960 110.223, 65.708 110.659, 62.286 110.751, 61.562 110.771, 61.401 110.850, 60.778 110.873, 60.600 " />
            <path fill="none" stroke-width="3.0" stroke-linecap="butt" stroke-opacity="1.0" stroke="rgb(0, 0, 0)" stroke-linejoin="round" d=" M 186.823, 103.744 183.027, 100.596 174.954, 96.978 166.758, 93.305 160.801, 91.616 " />
            <path fill="none" stroke-width="3.0" stroke-linecap="butt" stroke-opacity="1.0" stroke="rgb(0, 0, 0)" stroke-linejoin="round" d=" M 121.246, 69.655 119.698, 69.563 " />
            <path fill="none" stroke-width="3.0" stroke-linecap="butt" stroke-opacity="1.0" stroke="rgb(0, 0, 0)" stroke-linejoin="round" d=" M 121.246, 69.655 127.978, 70.710 133.998, 71.653 143.877, 73.201 145.003, 73.378 " />
            <path fill="none" stroke-width="3.0" stroke-linecap="butt" stroke-opacity="1.0" stroke="rgb(0, 0, 0)" stroke-linejoin="round" d=" M 138.173, 45.271 137.540, 44.426 134.205, 43.043 130.149, 42.591 126.984, 43.249 126.510, 43.586 " />
            <path fill="none" stroke-width="3.0" stroke-linecap="butt" stroke-opacity="1.0" stroke="rgb(0, 0, 0)" stroke-linejoin="round" d=" M 206.951, 138.080 208.886, 136.971 209.752, 133.264 209.590, 126.485 205.764, 120.981 199.990, 113.866 192.313, 107.458 191.353, 106.657 190.442, 105.897 186.823, 103.744 185.015, 102.668 176.514, 98.883 171.428, 96.618 " />
            <path fill="none" stroke-width="3.0" stroke-linecap="butt" stroke-opacity="1.0" stroke="rgb(0, 0, 0)" stroke-linejoin="round" d=" M 199.280, 123.132 207.187, 129.255 208.661, 130.397 208.886, 136.971 " />
            <path fill="none" stroke-width="3.0" stroke-linecap="butt" stroke-opacity="1.0" stroke="rgb(0, 0, 0)" stroke-linejoin="round" d=" M 44.235, 93.511 43.578, 94.009 38.118, 98.087 32.057, 104.056 31.620, 107.716 " />
            <path fill="none" stroke-width="3.0" stroke-linecap="butt" stroke-opacity="1.0" stroke="rgb(0, 0, 0)" stroke-linejoin="round" d=" M 209.590, 126.485 201.798, 120.218 199.324, 118.228 " />
            <path fill="none" stroke-width="3.0" stroke-linecap="butt" stroke-opacity="1.0" stroke="rgb(0, 0, 0)" stroke-linejoin="round" d=" M 59.846, 82.859 59.000, 84.164 " />
            <path fill="none" stroke-width="3.0" stroke-linecap="butt" stroke-opacity="1.0" stroke="rgb(0, 0, 0)" stroke-linejoin="round" d=" M 107.247, 78.352 107.559, 77.299 108.663, 73.578 " />
            <path fill="none" stroke-width="3.0" stroke-linecap="butt" stroke-opacity="1.0" stroke="rgb(0, 0, 0)" stroke-linejoin="round" d=" M 108.710, 73.437 110.871, 73.353 " />
            <path fill="none" stroke-width="3.0" stroke-linecap="butt" stroke-opacity="1.0" stroke="rgb(0, 0, 0)" stroke-linejoin="round" d=" M 196.998, 125.586 201.554, 128.999 " />
        </g>
    </g>
</svg>
