<?xml version='1.0' encoding='ascii'?>
<svg xmlns="http://www.w3.org/2000/svg" version="1.1" width="250" height="250">
    <g id="ViewLayer_LineSet" xmlns:inkscape="http://www.inkscape.org/namespaces/inkscape" inkscape:groupmode="lineset" inkscape:label="ViewLayer_LineSet">
        <g xmlns:inkscape="http://www.inkscape.org/namespaces/inkscape" inkscape:groupmode="layer" id="strokes" inkscape:label="strokes">
            <path fill="none" stroke-width="3.0" stroke-linecap="butt" stroke-opacity="1.0" stroke="rgb(0, 0, 0)" stroke-linejoin="round" d=" M 108.905, 215.957 110.530, 216.138 113.197, 216.436 117.705, 216.633 122.227, 216.538 126.560, 216.155 130.514, 215.505 130.854, 215.431 136.840, 214.125 141.881, 212.814 145.850, 211.230 154.643, 207.079 158.096, 204.830 166.228, 198.922 166.778, 198.523 173.732, 191.336 174.395, 190.650 174.654, 190.273 " />
            <path fill="none" stroke-width="3.0" stroke-linecap="butt" stroke-opacity="1.0" stroke="rgb(0, 0, 0)" stroke-linejoin="round" d=" M 59.311, 100.234 57.986, 101.899 53.753, 109.003 49.945, 117.668 49.387, 119.478 48.452, 122.505 48.346, 122.849 47.278, 126.306 46.026, 132.468 45.482, 138.852 45.257, 143.333 45.486, 148.996 45.965, 153.484 46.826, 158.136 47.672, 162.081 48.958, 166.381 50.621, 170.845 52.589, 175.280 54.777, 179.494 57.092, 183.302 59.432, 186.530 59.434, 186.532 " />
            <path fill="none" stroke-width="3.0" stroke-linecap="butt" stroke-opacity="1.0" stroke="rgb(0, 0, 0)" stroke-linejoin="round" d=" M 190.897, 132.335 188.806, 122.553 188.680, 122.228 " />
            <path fill="none" stroke-width="3.0" stroke-linecap="butt" stroke-opacity="1.0" stroke="rgb(0, 0, 0)" stroke-linejoin="round" d=" M 77.110, 151.885 77.664, 153.286 79.027, 155.357 80.921, 157.019 83.115, 158.252 85.156, 158.699 85.515, 158.688 87.250, 158.632 89.623, 157.810 91.672, 156.486 93.220, 154.643 93.935, 153.329 " />
            <path fill="none" stroke-width="3.0" stroke-linecap="butt" stroke-opacity="1.0" stroke="rgb(0, 0, 0)" stroke-linejoin="round" d=" M 117.439, 102.810 117.539, 103.146 118.010, 104.732 118.462, 108.124 118.502, 111.951 118.518, 112.020 117.452, 120.052 117.437, 120.162 117.400, 120.442 116.174, 124.658 114.670, 128.949 112.915, 132.947 110.975, 136.458 108.916, 139.309 108.802, 139.420 108.411, 139.800 106.808, 141.359 104.723, 142.504 102.734, 142.687 101.462, 142.132 100.915, 141.893 99.338, 140.158 98.238, 137.898 98.073, 137.559 98.026, 137.384 97.180, 134.218 96.707, 130.295 96.685, 125.980 97.121, 121.476 97.977, 117.062 98.219, 116.224 98.262, 116.077 99.179, 112.897 100.700, 108.992 102.478, 105.490 104.446, 102.513 105.347, 101.496 " />
            <path fill="none" stroke-width="3.0" stroke-linecap="butt" stroke-opacity="1.0" stroke="rgb(0, 0, 0)" stroke-linejoin="round" d=" M 77.310, 120.367 76.333, 124.662 75.250, 128.771 74.346, 131.636 74.213, 132.057 74.075, 132.495 72.814, 135.645 71.474, 138.065 70.072, 139.634 68.925, 140.147 68.633, 140.278 67.223, 140.268 65.847, 138.728 64.640, 136.621 63.665, 133.758 63.003, 130.284 62.890, 128.728 62.855, 128.247 62.720, 126.373 62.857, 122.213 63.068, 120.650 63.416, 118.061 64.282, 114.060 65.400, 110.214 66.724, 106.661 67.394, 105.237 67.631, 104.734 68.201, 103.523 69.773, 100.906 70.569, 99.911 " />
            <path fill="none" stroke-width="3.0" stroke-linecap="butt" stroke-opacity="1.0" stroke="rgb(0, 0, 0)" stroke-linejoin="round" d=" M 67.223, 140.268 70.426, 141.641 " />
            <path fill="none" stroke-width="3.0" stroke-linecap="butt" stroke-opacity="1.0" stroke="rgb(0, 0, 0)" stroke-linejoin="round" d=" M 77.892, 99.701 78.527, 101.948 78.886, 104.866 78.996, 108.358 78.854, 110.077 78.831, 110.361 78.687, 112.104 " />
            <path fill="none" stroke-width="3.0" stroke-linecap="butt" stroke-opacity="1.0" stroke="rgb(0, 0, 0)" stroke-linejoin="round" d=" M 80.417, 122.303 77.310, 120.367 77.574, 119.021 78.134, 116.159 78.687, 112.104 81.753, 114.134 " />
            <path fill="none" stroke-width="3.0" stroke-linecap="butt" stroke-opacity="1.0" stroke="rgb(0, 0, 0)" stroke-linejoin="round" d=" M 174.401, 198.991 178.956, 202.343 " />
            <path fill="none" stroke-width="3.0" stroke-linecap="butt" stroke-opacity="1.0" stroke="rgb(0, 0, 0)" stroke-linejoin="round" d=" M 166.228, 198.922 168.409, 199.293 173.195, 201.448 176.585, 204.068 " />
            <path fill="none" stroke-width="3.0" stroke-linecap="butt" stroke-opacity="1.0" stroke="rgb(0, 0, 0)" stroke-linejoin="round" d=" M 130.854, 215.431 130.992, 215.948 132.735, 220.963 133.793, 223.302 137.518, 227.101 139.321, 228.744 143.801, 231.282 149.080, 232.661 153.785, 233.102 158.967, 232.575 165.549, 230.914 170.980, 228.649 176.300, 225.464 179.477, 222.075 180.988, 220.108 184.327, 213.600 184.871, 212.237 188.221, 202.815 189.013, 200.586 190.787, 192.427 " />
            <path fill="none" stroke-width="3.0" stroke-linecap="butt" stroke-opacity="1.0" stroke="rgb(0, 0, 0)" stroke-linejoin="round" d=" M 44.456, 229.039 49.380, 229.969 54.433, 230.699 59.365, 231.080 65.910, 231.299 72.379, 231.055 78.447, 230.443 85.835, 229.730 92.395, 228.889 96.647, 228.101 101.361, 227.011 104.096, 225.144 107.638, 222.251 109.764, 218.947 110.530, 216.138 " />
            <path fill="none" stroke-width="3.0" stroke-linecap="butt" stroke-opacity="1.0" stroke="rgb(0, 0, 0)" stroke-linejoin="round" d=" M 59.434, 186.532 57.555, 186.989 51.408, 188.427 45.228, 191.086 40.649, 193.536 37.129, 196.520 36.449, 197.508 " />
            <path fill="none" stroke-width="3.0" stroke-linecap="butt" stroke-opacity="1.0" stroke="rgb(0, 0, 0)" stroke-linejoin="round" d=" M 29.319, 218.605 31.232, 222.546 32.783, 224.348 " />
            <path fill="none" stroke-width="3.0" stroke-linecap="butt" stroke-opacity="1.0" stroke="rgb(0, 0, 0)" stroke-linejoin="round" d=" M 36.542, 197.383 36.449, 197.508 32.878, 202.314 30.656, 206.440 29.341, 210.505 28.916, 214.439 29.319, 218.605 30.363, 220.337 32.783, 224.348 35.523, 225.906 " />
            <path fill="none" stroke-width="3.0" stroke-linecap="butt" stroke-opacity="1.0" stroke="rgb(0, 0, 0)" stroke-linejoin="round" d=" M 35.523, 225.906 40.305, 227.618 44.456, 229.039 38.906, 227.271 35.523, 225.906 " />
            <path fill="none" stroke-width="3.0" stroke-linecap="butt" stroke-opacity="1.0" stroke="rgb(0, 0, 0)" stroke-linejoin="round" d=" M 191.218, 132.521 190.897, 132.335 186.101, 129.544 182.154, 127.832 " />
            <path fill="none" stroke-width="3.0" stroke-linecap="butt" stroke-opacity="1.0" stroke="rgb(0, 0, 0)" stroke-linejoin="round" d=" M 193.941, 135.045 193.325, 134.422 191.218, 132.521 193.941, 135.045 194.701, 135.749 196.778, 137.912 199.548, 141.679 199.641, 141.806 199.683, 141.863 199.761, 141.969 202.561, 146.466 205.266, 151.529 207.336, 157.298 208.168, 159.914 209.105, 164.309 209.403, 168.327 208.950, 172.245 208.402, 175.603 207.363, 178.525 205.885, 181.769 204.441, 183.851 202.260, 186.375 200.601, 187.708 198.635, 189.257 196.270, 190.503 194.387, 191.467 191.292, 192.336 190.787, 192.427 188.885, 192.768 184.986, 192.898 181.923, 192.686 178.468, 191.612 174.758, 190.330 174.654, 190.273 171.223, 188.392 167.636, 185.716 165.625, 183.894 " />
            <path fill="none" stroke-width="3.0" stroke-linecap="butt" stroke-opacity="1.0" stroke="rgb(0, 0, 0)" stroke-linejoin="round" d=" M 116.252, 72.396 119.500, 69.915 119.520, 69.874 119.663, 69.584 119.699, 69.511 121.351, 66.153 122.337, 63.558 122.317, 59.879 121.301, 57.219 119.396, 53.506 117.695, 52.260 " />
            <path fill="none" stroke-width="3.0" stroke-linecap="butt" stroke-opacity="1.0" stroke="rgb(0, 0, 0)" stroke-linejoin="round" d=" M 56.100, 55.780 56.008, 56.042 54.486, 60.343 52.847, 66.433 52.278, 74.286 52.568, 75.547 54.219, 80.838 56.708, 82.071 59.851, 82.806 61.351, 83.156 61.851, 83.273 65.734, 83.707 71.390, 82.718 71.742, 82.656 74.192, 82.032 77.305, 81.238 82.719, 79.083 82.790, 79.055 " />
            <path fill="none" stroke-width="3.0" stroke-linecap="butt" stroke-opacity="1.0" stroke="rgb(0, 0, 0)" stroke-linejoin="round" d=" M 33.817, 112.149 31.619, 107.669 32.800, 106.534 37.499, 102.014 41.757, 100.946 49.566, 98.987 53.188, 98.078 57.134, 97.947 59.118, 97.881 61.239, 97.810 71.233, 97.477 73.360, 97.406 76.060, 97.316 76.082, 97.315 79.965, 97.186 89.934, 97.971 99.903, 98.756 107.563, 99.360 113.673, 99.841 116.290, 100.297 116.360, 100.309 126.212, 102.026 136.063, 103.743 145.915, 105.459 147.655, 105.762 157.320, 108.330 166.985, 110.897 176.649, 113.464 177.061, 113.573 178.185, 114.035 178.972, 114.358 183.046, 116.031 185.884, 117.197 " />
            <path fill="none" stroke-width="3.0" stroke-linecap="butt" stroke-opacity="1.0" stroke="rgb(0, 0, 0)" stroke-linejoin="round" d=" M 199.548, 141.679 206.639, 137.578 206.267, 131.285 200.107, 126.620 197.891, 124.942 " />
            <path fill="none" stroke-width="3.0" stroke-linecap="butt" stroke-opacity="1.0" stroke="rgb(0, 0, 0)" stroke-linejoin="round" d=" M 39.017, 108.303 40.879, 106.689 44.985, 103.131 54.757, 101.011 58.192, 100.266 " />
            <path fill="none" stroke-width="3.0" stroke-linecap="butt" stroke-opacity="1.0" stroke="rgb(0, 0, 0)" stroke-linejoin="round" d=" M 38.879, 117.017 47.146, 122.361 48.346, 122.849 " />
            <path fill="none" stroke-width="3.0" stroke-linecap="butt" stroke-opacity="1.0" stroke="rgb(0, 0, 0)" stroke-linejoin="round" d=" M 55.984, 100.329 46.214, 102.462 45.407, 102.639 41.090, 103.581 39.826, 103.857 33.819, 109.301 34.556, 110.848 " />
            <path fill="none" stroke-width="3.0" stroke-linecap="butt" stroke-opacity="1.0" stroke="rgb(0, 0, 0)" stroke-linejoin="round" d=" M 55.984, 100.329 58.192, 100.266 59.311, 100.234 59.821, 100.219 61.658, 100.167 70.569, 99.911 75.966, 99.757 77.892, 99.701 79.313, 99.661 81.510, 99.598 91.479, 100.392 101.447, 101.185 105.347, 101.496 110.112, 101.875 113.427, 102.139 117.439, 102.810 118.029, 102.908 127.892, 104.557 129.843, 104.883 139.707, 106.531 146.725, 107.705 156.398, 110.244 166.070, 112.783 175.670, 115.304 179.306, 116.777 184.149, 118.740 " />
            <path fill="none" stroke-width="3.0" stroke-linecap="butt" stroke-opacity="1.0" stroke="rgb(0, 0, 0)" stroke-linejoin="round" d=" M 41.026, 94.330 36.223, 98.223 33.056, 101.419 31.244, 104.254 30.074, 107.279 30.067, 109.741 30.531, 111.914 34.857, 116.014 37.536, 117.487 38.879, 117.017 38.915, 117.005 40.796, 116.347 42.086, 115.468 43.652, 114.400 45.238, 109.326 " />
            <path fill="none" stroke-width="3.0" stroke-linecap="butt" stroke-opacity="1.0" stroke="rgb(0, 0, 0)" stroke-linejoin="round" d=" M 33.261, 113.504 30.531, 111.914 " />
            <path fill="none" stroke-width="3.0" stroke-linecap="butt" stroke-opacity="1.0" stroke="rgb(0, 0, 0)" stroke-linejoin="round" d=" M 43.652, 114.400 39.924, 112.080 " />
            <path fill="none" stroke-width="3.0" stroke-linecap="butt" stroke-opacity="1.0" stroke="rgb(0, 0, 0)" stroke-linejoin="round" d=" M 40.823, 109.699 39.924, 112.080 36.504, 113.043 " />
            <path fill="none" stroke-width="3.0" stroke-linecap="butt" stroke-opacity="1.0" stroke="rgb(0, 0, 0)" stroke-linejoin="round" d=" M 57.460, 84.744 50.509, 88.033 42.179, 93.565 41.026, 94.330 47.282, 90.296 48.212, 89.789 56.991, 85.000 57.460, 84.744 59.003, 84.114 61.351, 83.156 " />
            <path fill="none" stroke-width="3.0" stroke-linecap="butt" stroke-opacity="1.0" stroke="rgb(0, 0, 0)" stroke-linejoin="round" d=" M 47.282, 90.296 49.430, 89.428 49.714, 89.314 53.443, 87.807 55.750, 86.875 57.562, 86.339 67.150, 83.500 67.372, 83.434 77.323, 82.452 78.111, 82.374 80.459, 82.142 81.782, 82.110 87.689, 81.968 88.555, 82.007 89.344, 82.043 " />
            <path fill="none" stroke-width="3.0" stroke-linecap="butt" stroke-opacity="1.0" stroke="rgb(0, 0, 0)" stroke-linejoin="round" d=" M 179.306, 116.777 179.968, 118.399 182.056, 119.393 182.984, 119.834 183.273, 119.956 188.680, 122.228 196.826, 125.651 196.999, 125.536 197.891, 124.942 198.721, 124.389 199.028, 124.184 199.282, 123.081 199.863, 120.558 196.961, 116.005 192.330, 111.525 190.468, 109.723 185.096, 105.856 182.913, 104.284 178.336, 100.888 177.977, 100.621 176.699, 99.674 171.440, 96.571 168.168, 94.642 160.812, 91.568 159.187, 90.888 156.993, 89.971 147.448, 86.989 144.289, 86.002 134.676, 83.247 131.502, 82.338 121.645, 80.653 118.651, 80.141 109.241, 78.599 107.466, 78.308 " />
            <path fill="none" stroke-width="3.0" stroke-linecap="butt" stroke-opacity="1.0" stroke="rgb(0, 0, 0)" stroke-linejoin="round" d=" M 102.971, 83.119 107.697, 83.613 111.430, 84.003 111.853, 84.107 121.564, 86.494 128.071, 88.093 137.674, 90.881 141.410, 91.965 142.464, 92.271 151.792, 95.876 155.296, 97.230 164.456, 101.242 166.440, 102.111 174.805, 106.172 181.254, 109.771 184.915, 112.510 186.325, 113.565 187.335, 115.158 187.639, 115.636 188.211, 116.540 188.386, 117.756 188.577, 119.090 187.683, 119.655 187.185, 119.970 186.043, 120.692 " />
            <path fill="none" stroke-width="3.0" stroke-linecap="butt" stroke-opacity="1.0" stroke="rgb(0, 0, 0)" stroke-linejoin="round" d=" M 99.105, 79.872 99.354, 79.517 100.401, 78.019 102.899, 74.444 103.754, 71.510 104.012, 70.625 104.367, 69.406 104.599, 68.610 105.034, 67.117 105.238, 66.415 105.317, 66.145 105.853, 59.720 105.838, 57.373 105.832, 56.445 105.823, 55.057 105.822, 54.930 " />
            <path fill="none" stroke-width="3.0" stroke-linecap="butt" stroke-opacity="1.0" stroke="rgb(0, 0, 0)" stroke-linejoin="round" d=" M 76.872, 74.551 80.419, 76.892 82.927, 78.120 83.006, 78.159 84.037, 78.663 85.570, 79.414 93.085, 81.003 95.842, 80.485 99.105, 79.872 100.309, 81.311 101.877, 82.522 101.972, 82.596 103.424, 83.030 " />
            <path fill="none" stroke-width="3.0" stroke-linecap="butt" stroke-opacity="1.0" stroke="rgb(0, 0, 0)" stroke-linejoin="round" d=" M 54.219, 80.838 53.898, 79.475 " />
            <path fill="none" stroke-width="3.0" stroke-linecap="butt" stroke-opacity="1.0" stroke="rgb(0, 0, 0)" stroke-linejoin="round" d=" M 79.893, 77.364 77.628, 75.854 76.872, 74.551 72.529, 76.847 66.654, 79.255 61.540, 80.199 59.032, 80.662 53.898, 79.475 52.278, 74.286 " />
            <path fill="none" stroke-width="3.0" stroke-linecap="butt" stroke-opacity="1.0" stroke="rgb(0, 0, 0)" stroke-linejoin="round" d=" M 110.659, 62.231 110.905, 61.885 110.997, 61.756 111.217, 61.447 114.168, 57.306 114.509, 56.819 117.695, 52.260 118.843, 50.617 122.510, 44.968 122.914, 43.486 124.053, 39.306 124.103, 36.167 122.920, 33.934 119.442, 29.654 114.170, 27.191 111.236, 26.076 105.501, 24.944 103.088, 24.676 101.118, 24.457 " />
            <path fill="none" stroke-width="3.0" stroke-linecap="butt" stroke-opacity="1.0" stroke="rgb(0, 0, 0)" stroke-linejoin="round" d=" M 56.008, 56.042 53.324, 52.213 50.333, 47.128 48.911, 41.702 49.381, 36.180 53.733, 31.966 60.769, 28.432 66.458, 26.824 70.771, 25.940 73.361, 21.939 77.249, 16.748 83.325, 10.961 88.732, 8.273 93.344, 10.319 97.611, 15.560 99.830, 20.536 101.118, 24.457 " />
            <path fill="none" stroke-width="3.0" stroke-linecap="butt" stroke-opacity="1.0" stroke="rgb(0, 0, 0)" stroke-linejoin="round" d=" M 108.954, 57.989 107.788, 56.634 107.160, 55.904 105.864, 54.960 105.822, 54.930 105.907, 54.857 106.837, 54.052 110.348, 51.013 111.099, 50.237 115.798, 45.381 116.770, 43.863 119.634, 39.390 121.310, 33.392 117.907, 29.195 111.236, 26.076 " />
            <path fill="none" stroke-width="3.0" stroke-linecap="butt" stroke-opacity="1.0" stroke="rgb(0, 0, 0)" stroke-linejoin="round" d=" M 103.088, 24.676 102.158, 22.289 99.676, 17.446 98.252, 15.174 94.372, 10.419 89.671, 8.336 88.732, 8.273 " />
            <path fill="none" stroke-width="3.0" stroke-linecap="butt" stroke-opacity="1.0" stroke="rgb(0, 0, 0)" stroke-linejoin="round" d=" M 53.324, 52.213 56.100, 55.780 " />
            <path fill="none" stroke-width="3.0" stroke-linecap="butt" stroke-opacity="1.0" stroke="rgb(0, 0, 0)" stroke-linejoin="round" d=" M 191.353, 106.606 188.458, 97.034 186.314, 89.947 185.310, 88.874 184.103, 84.524 179.263, 75.773 177.997, 73.483 171.477, 65.901 170.357, 64.598 164.679, 59.146 156.737, 53.069 156.370, 52.788 149.154, 48.963 142.895, 46.758 138.171, 45.225 137.078, 44.871 130.633, 43.722 126.513, 43.541 124.280, 43.443 122.914, 43.486 " />
            <path fill="none" stroke-width="3.0" stroke-linecap="butt" stroke-opacity="1.0" stroke="rgb(0, 0, 0)" stroke-linejoin="round" d=" M 79.893, 77.364 81.531, 78.320 82.738, 79.024 82.790, 79.055 83.112, 79.243 84.527, 80.069 84.765, 80.208 87.432, 81.277 89.163, 81.970 89.344, 82.043 89.690, 82.182 90.785, 82.620 93.200, 83.138 97.837, 84.132 101.551, 83.399 102.971, 83.119 103.424, 83.030 103.689, 82.651 104.437, 81.581 106.744, 78.279 107.364, 77.391 107.395, 77.299 108.673, 73.492 108.709, 73.384 108.806, 73.096 108.834, 72.950 109.270, 70.661 109.498, 69.466 109.604, 68.908 110.224, 65.651 110.659, 62.231 110.750, 61.511 110.771, 61.348 110.850, 60.726 110.873, 60.544 " />
            <path fill="none" stroke-width="3.0" stroke-linecap="butt" stroke-opacity="1.0" stroke="rgb(0, 0, 0)" stroke-linejoin="round" d=" M 186.818, 103.690 183.028, 100.547 174.950, 96.926 166.760, 93.253 160.812, 91.568 " />
            <path fill="none" stroke-width="3.0" stroke-linecap="butt" stroke-opacity="1.0" stroke="rgb(0, 0, 0)" stroke-linejoin="round" d=" M 121.247, 69.603 119.699, 69.511 " />
            <path fill="none" stroke-width="3.0" stroke-linecap="butt" stroke-opacity="1.0" stroke="rgb(0, 0, 0)" stroke-linejoin="round" d=" M 121.247, 69.603 128.074, 70.673 133.938, 71.592 143.817, 73.140 145.004, 73.326 " />
            <path fill="none" stroke-width="3.0" stroke-linecap="butt" stroke-opacity="1.0" stroke="rgb(0, 0, 0)" stroke-linejoin="round" d=" M 138.171, 45.225 137.541, 44.382 134.206, 42.999 130.150, 42.548 126.984, 43.205 126.513, 43.541 " />
            <path fill="none" stroke-width="3.0" stroke-linecap="butt" stroke-opacity="1.0" stroke="rgb(0, 0, 0)" stroke-linejoin="round" d=" M 199.683, 141.863 200.736, 141.600 208.887, 136.927 209.753, 133.219 209.592, 126.437 205.765, 120.933 199.992, 113.818 192.315, 107.410 191.353, 106.606 190.444, 105.847 186.818, 103.690 185.016, 102.619 176.510, 98.830 171.440, 96.571 " />
            <path fill="none" stroke-width="3.0" stroke-linecap="butt" stroke-opacity="1.0" stroke="rgb(0, 0, 0)" stroke-linejoin="round" d=" M 199.282, 123.081 207.187, 129.206 208.663, 130.349 208.887, 136.927 " />
            <path fill="none" stroke-width="3.0" stroke-linecap="butt" stroke-opacity="1.0" stroke="rgb(0, 0, 0)" stroke-linejoin="round" d=" M 44.241, 93.457 43.578, 93.959 38.117, 98.037 32.056, 104.010 31.619, 107.669 " />
            <path fill="none" stroke-width="3.0" stroke-linecap="butt" stroke-opacity="1.0" stroke="rgb(0, 0, 0)" stroke-linejoin="round" d=" M 209.592, 126.437 201.801, 120.168 199.326, 118.176 " />
            <path fill="none" stroke-width="3.0" stroke-linecap="butt" stroke-opacity="1.0" stroke="rgb(0, 0, 0)" stroke-linejoin="round" d=" M 59.851, 82.806 59.003, 84.114 " />
            <path fill="none" stroke-width="3.0" stroke-linecap="butt" stroke-opacity="1.0" stroke="rgb(0, 0, 0)" stroke-linejoin="round" d=" M 107.247, 78.299 107.557, 77.255 108.673, 73.492 " />
            <path fill="none" stroke-width="3.0" stroke-linecap="butt" stroke-opacity="1.0" stroke="rgb(0, 0, 0)" stroke-linejoin="round" d=" M 108.709, 73.384 110.872, 73.301 " />
            <path fill="none" stroke-width="3.0" stroke-linecap="butt" stroke-opacity="1.0" stroke="rgb(0, 0, 0)" stroke-linejoin="round" d=" M 196.999, 125.536 201.555, 128.952 " />
        </g>
    </g>
</svg>
