<?xml version='1.0' encoding='ascii'?>
<svg xmlns="http://www.w3.org/2000/svg" version="1.1" width="250" height="250">
    <g id="ViewLayer_LineSet" xmlns:inkscape="http://www.inkscape.org/namespaces/inkscape" inkscape:groupmode="lineset" inkscape:label="ViewLayer_LineSet">
        <g xmlns:inkscape="http://www.inkscape.org/namespaces/inkscape" inkscape:groupmode="layer" id="strokes" inkscape:label="strokes">
            <path fill="none" stroke-width="3.0" stroke-linecap="butt" stroke-opacity="1.0" stroke="rgb(0, 0, 0)" stroke-linejoin="round" d=" M 59.872, 96.825 58.616, 98.418 54.772, 104.477 51.534, 110.950 50.783, 112.895 49.818, 115.400 49.658, 115.833 49.545, 116.139 48.945, 117.771 47.895, 121.398 47.311, 123.419 " />
            <path fill="none" stroke-width="3.0" stroke-linecap="butt" stroke-opacity="1.0" stroke="rgb(0, 0, 0)" stroke-linejoin="round" d=" M 47.895, 121.398 47.020, 124.128 45.560, 131.777 44.996, 138.737 45.064, 141.602 45.163, 145.796 45.275, 147.603 46.141, 154.053 46.473, 155.810 46.582, 156.241 47.045, 158.057 48.205, 162.481 48.603, 163.812 49.091, 165.280 49.646, 166.815 50.241, 168.342 50.848, 169.790 51.438, 171.088 51.983, 172.174 54.473, 177.106 55.422, 178.755 58.966, 184.040 60.140, 185.654 64.633, 190.989 65.690, 192.003 69.611, 195.763 71.170, 196.995 75.014, 199.934 77.983, 202.095 82.876, 205.198 89.783, 208.427 93.702, 210.045 98.702, 211.412 105.041, 212.949 108.971, 213.648 112.626, 214.024 " />
            <path fill="none" stroke-width="3.0" stroke-linecap="butt" stroke-opacity="1.0" stroke="rgb(0, 0, 0)" stroke-linejoin="round" d=" M 65.694, 147.839 66.137, 149.221 67.271, 151.280 68.866, 152.954 70.709, 154.215 72.445, 154.705 74.250, 154.692 76.320, 153.944 78.104, 152.692 79.465, 150.915 80.111, 149.637 " />
            <path fill="none" stroke-width="3.0" stroke-linecap="butt" stroke-opacity="1.0" stroke="rgb(0, 0, 0)" stroke-linejoin="round" d=" M 104.002, 100.593 104.266, 101.964 104.393, 105.332 104.098, 109.129 104.126, 109.198 103.359, 112.848 103.346, 112.909 102.373, 117.538 100.834, 121.698 99.115, 125.928 97.229, 129.859 96.000, 131.980 95.732, 132.444 95.236, 133.300 93.613, 135.513 93.196, 136.082 91.166, 138.066 89.204, 139.154 88.132, 139.234 87.369, 139.291 85.724, 138.469 84.338, 136.724 83.276, 134.137 82.601, 130.830 82.468, 128.647 82.434, 128.099 82.365, 126.960 82.597, 122.714 83.273, 118.495 83.306, 118.291 84.446, 113.961 85.910, 109.876 86.919, 107.663 86.973, 107.545 87.656, 106.047 89.615, 102.610 91.712, 99.687 92.488, 98.857 " />
            <path fill="none" stroke-width="3.0" stroke-linecap="butt" stroke-opacity="1.0" stroke="rgb(0, 0, 0)" stroke-linejoin="round" d=" M 66.186, 116.996 66.007, 117.626 65.557, 119.205 64.997, 121.173 64.693, 122.186 64.556, 122.643 63.798, 125.167 62.602, 128.782 61.414, 131.837 60.230, 134.176 59.329, 135.331 59.053, 135.685 57.898, 136.292 56.799, 136.263 55.801, 134.746 54.975, 132.684 54.391, 129.893 54.119, 126.516 54.157, 125.062 54.216, 122.722 54.703, 118.779 54.713, 118.693 54.768, 118.446 55.455, 115.315 55.595, 114.675 56.726, 110.805 58.043, 107.082 59.493, 103.640 61.020, 100.597 62.565, 98.056 63.614, 96.691 " />
            <path fill="none" stroke-width="3.0" stroke-linecap="butt" stroke-opacity="1.0" stroke="rgb(0, 0, 0)" stroke-linejoin="round" d=" M 56.799, 136.263 60.809, 137.729 " />
            <path fill="none" stroke-width="3.0" stroke-linecap="butt" stroke-opacity="1.0" stroke="rgb(0, 0, 0)" stroke-linejoin="round" d=" M 69.031, 96.716 69.063, 96.813 69.095, 97.129 69.285, 98.993 69.292, 99.063 69.275, 99.765 69.222, 101.905 68.914, 105.309 68.207, 108.956 " />
            <path fill="none" stroke-width="3.0" stroke-linecap="butt" stroke-opacity="1.0" stroke="rgb(0, 0, 0)" stroke-linejoin="round" d=" M 66.925, 117.370 66.186, 116.996 67.303, 112.904 68.207, 108.956 72.098, 111.029 " />
            <path fill="none" stroke-width="3.0" stroke-linecap="butt" stroke-opacity="1.0" stroke="rgb(0, 0, 0)" stroke-linejoin="round" d=" M 112.626, 214.024 112.574, 216.071 112.546, 217.781 112.508, 220.089 112.696, 223.124 113.712, 226.152 116.018, 229.672 118.286, 232.428 122.074, 235.182 127.113, 236.964 131.973, 237.922 137.728, 238.090 145.451, 237.440 152.246, 236.190 159.302, 234.148 160.585, 233.670 163.957, 232.202 168.233, 227.978 170.202, 225.878 177.030, 218.572 177.959, 217.578 183.667, 209.521 184.778, 206.677 187.408, 199.932 187.858, 196.732 187.943, 191.572 187.583, 189.915 " />
            <path fill="none" stroke-width="3.0" stroke-linecap="butt" stroke-opacity="1.0" stroke="rgb(0, 0, 0)" stroke-linejoin="round" d=" M 65.690, 192.003 62.587, 196.074 60.139, 199.224 57.566, 202.719 56.121, 204.741 53.212, 209.358 51.585, 213.085 50.753, 216.691 50.252, 219.336 50.468, 222.961 51.234, 226.570 53.098, 229.298 55.586, 231.791 58.968, 234.137 62.537, 235.542 66.813, 236.252 72.849, 236.593 77.328, 236.637 83.522, 235.746 87.235, 235.297 90.701, 234.379 99.300, 229.274 102.533, 227.355 104.486, 226.071 111.457, 218.901 112.543, 217.784 112.546, 217.781 " />
            <path fill="none" stroke-width="3.0" stroke-linecap="butt" stroke-opacity="1.0" stroke="rgb(0, 0, 0)" stroke-linejoin="round" d=" M 165.363, 180.084 170.674, 184.097 175.159, 186.496 175.246, 186.533 177.537, 187.509 181.719, 189.089 186.040, 189.933 187.583, 189.915 189.776, 189.889 192.506, 189.463 195.680, 188.835 198.604, 187.578 200.373, 186.640 202.903, 184.875 206.673, 181.173 208.498, 178.323 209.365, 176.566 210.520, 173.639 211.003, 171.759 211.446, 169.367 211.606, 165.992 210.965, 160.777 209.735, 156.366 207.777, 151.696 204.246, 146.003 201.616, 142.583 201.557, 142.507 200.421, 141.029 196.717, 136.602 192.807, 132.804 190.745, 131.348 188.478, 129.746 186.151, 128.451 179.698, 125.391 " />
            <path fill="none" stroke-width="3.0" stroke-linecap="butt" stroke-opacity="1.0" stroke="rgb(0, 0, 0)" stroke-linejoin="round" d=" M 45.064, 141.602 45.003, 141.789 44.573, 144.409 44.578, 148.553 44.790, 150.545 46.039, 154.931 46.580, 156.237 46.582, 156.241 " />
            <path fill="none" stroke-width="3.0" stroke-linecap="butt" stroke-opacity="1.0" stroke="rgb(0, 0, 0)" stroke-linejoin="round" d=" M 107.301, 68.673 108.640, 67.399 108.810, 67.086 108.863, 66.989 111.232, 62.654 111.324, 61.032 111.266, 57.359 111.126, 55.944 108.367, 51.039 105.626, 48.695 103.387, 48.268 " />
            <path fill="none" stroke-width="3.0" stroke-linecap="butt" stroke-opacity="1.0" stroke="rgb(0, 0, 0)" stroke-linejoin="round" d=" M 90.686, 22.986 88.914, 19.210 86.901, 15.621 84.128, 11.366 81.787, 8.851 77.931, 6.970 76.663, 6.929 71.826, 9.748 66.183, 15.600 62.463, 20.779 59.946, 24.748 56.250, 25.726 51.356, 27.439 45.208, 31.040 41.254, 35.213 40.409, 40.548 41.135, 45.751 43.190, 50.603 45.197, 54.003 43.479, 58.436 41.617, 64.335 40.496, 71.918 41.406, 76.912 42.028, 78.244 45.089, 79.467 49.279, 80.602 53.925, 81.063 59.153, 80.015 59.492, 79.920 59.916, 79.802 60.614, 79.608 64.197, 78.611 67.786, 77.465 67.952, 77.344 68.218, 77.151 " />
            <path fill="none" stroke-width="3.0" stroke-linecap="butt" stroke-opacity="1.0" stroke="rgb(0, 0, 0)" stroke-linejoin="round" d=" M 33.559, 104.701 33.463, 104.615 33.500, 104.299 33.863, 101.215 34.124, 98.995 34.508, 98.841 37.648, 97.587 43.945, 95.071 46.428, 94.965 48.368, 94.882 58.359, 94.455 61.001, 94.342 61.857, 94.305 63.016, 94.256 65.235, 94.161 66.575, 94.280 67.773, 94.387 67.803, 94.390 77.763, 95.280 87.724, 96.169 94.650, 96.788 95.512, 96.865 101.310, 97.923 103.357, 98.297 104.858, 98.571 114.696, 100.367 124.533, 102.163 129.397, 103.051 139.077, 105.557 148.758, 108.064 158.439, 110.570 161.643, 111.399 166.446, 113.130 168.006, 113.692 169.437, 114.208 " />
            <path fill="none" stroke-width="3.0" stroke-linecap="butt" stroke-opacity="1.0" stroke="rgb(0, 0, 0)" stroke-linejoin="round" d=" M 201.557, 142.507 203.393, 142.076 207.009, 137.381 201.565, 130.582 199.835, 129.652 197.246, 128.260 189.153, 123.908 188.154, 123.371 " />
            <path fill="none" stroke-width="3.0" stroke-linecap="butt" stroke-opacity="1.0" stroke="rgb(0, 0, 0)" stroke-linejoin="round" d=" M 41.766, 100.159 42.501, 99.917 44.703, 99.194 50.947, 97.143 " />
            <path fill="none" stroke-width="3.0" stroke-linecap="butt" stroke-opacity="1.0" stroke="rgb(0, 0, 0)" stroke-linejoin="round" d=" M 46.925, 97.286 45.169, 97.875 44.228, 98.191 36.455, 100.797 35.687, 105.610 35.591, 106.212 " />
            <path fill="none" stroke-width="3.0" stroke-linecap="butt" stroke-opacity="1.0" stroke="rgb(0, 0, 0)" stroke-linejoin="round" d=" M 46.925, 97.286 50.947, 97.143 59.872, 96.825 63.614, 96.691 64.377, 96.664 65.561, 96.622 67.314, 96.559 69.031, 96.716 69.687, 96.776 71.950, 96.982 81.908, 97.891 91.867, 98.800 92.488, 98.857 96.013, 99.179 98.277, 99.580 104.002, 100.593 106.556, 101.045 116.402, 102.789 126.249, 104.533 129.040, 105.027 138.725, 107.517 148.410, 110.007 158.095, 112.498 160.723, 113.174 167.354, 115.541 " />
            <path fill="none" stroke-width="3.0" stroke-linecap="butt" stroke-opacity="1.0" stroke="rgb(0, 0, 0)" stroke-linejoin="round" d=" M 94.109, 66.407 94.517, 67.068 95.124, 68.051 96.888, 70.909 97.432, 70.899 98.002, 70.888 101.055, 70.831 " />
            <path fill="none" stroke-width="3.0" stroke-linecap="butt" stroke-opacity="1.0" stroke="rgb(0, 0, 0)" stroke-linejoin="round" d=" M 93.586, 68.212 94.443, 68.238 95.124, 68.051 " />
            <path fill="none" stroke-width="3.0" stroke-linecap="butt" stroke-opacity="1.0" stroke="rgb(0, 0, 0)" stroke-linejoin="round" d=" M 33.559, 104.701 33.845, 106.680 34.424, 108.782 41.043, 112.910 43.580, 114.368 45.073, 113.850 45.504, 113.700 46.626, 113.311 48.743, 111.817 49.250, 111.460 50.438, 106.551 " />
            <path fill="none" stroke-width="3.0" stroke-linecap="butt" stroke-opacity="1.0" stroke="rgb(0, 0, 0)" stroke-linejoin="round" d=" M 33.863, 101.215 33.824, 101.359 33.500, 104.295 33.500, 104.299 " />
            <path fill="none" stroke-width="3.0" stroke-linecap="butt" stroke-opacity="1.0" stroke="rgb(0, 0, 0)" stroke-linejoin="round" d=" M 36.930, 110.343 34.424, 108.782 " />
            <path fill="none" stroke-width="3.0" stroke-linecap="butt" stroke-opacity="1.0" stroke="rgb(0, 0, 0)" stroke-linejoin="round" d=" M 49.250, 111.460 43.051, 109.043 " />
            <path fill="none" stroke-width="3.0" stroke-linecap="butt" stroke-opacity="1.0" stroke="rgb(0, 0, 0)" stroke-linejoin="round" d=" M 43.655, 107.201 43.051, 109.043 39.890, 109.934 " />
            <path fill="none" stroke-width="3.0" stroke-linecap="butt" stroke-opacity="1.0" stroke="rgb(0, 0, 0)" stroke-linejoin="round" d=" M 59.492, 79.920 50.401, 84.087 49.793, 84.366 43.614, 87.743 39.423, 91.695 38.627, 92.696 " />
            <path fill="none" stroke-width="3.0" stroke-linecap="butt" stroke-opacity="1.0" stroke="rgb(0, 0, 0)" stroke-linejoin="round" d=" M 49.793, 84.366 58.808, 80.936 59.896, 80.797 69.401, 79.583 73.059, 79.457 " />
            <path fill="none" stroke-width="3.0" stroke-linecap="butt" stroke-opacity="1.0" stroke="rgb(0, 0, 0)" stroke-linejoin="round" d=" M 167.354, 115.541 167.723, 116.521 170.203, 118.006 178.451, 121.110 179.544, 121.522 187.026, 124.338 188.154, 123.371 188.779, 122.836 188.841, 122.452 189.000, 121.471 189.385, 119.092 189.212, 118.843 188.409, 117.694 186.115, 114.411 186.061, 114.335 179.226, 107.782 171.136, 102.114 164.510, 97.341 157.888, 93.536 155.537, 92.185 155.481, 92.153 146.245, 88.320 144.500, 87.595 143.964, 87.372 134.432, 84.347 131.311, 83.357 121.715, 80.543 118.825, 79.696 108.977, 77.962 106.608, 77.545 101.065, 76.599 98.672, 76.190 96.260, 75.778 " />
            <path fill="none" stroke-width="3.0" stroke-linecap="butt" stroke-opacity="1.0" stroke="rgb(0, 0, 0)" stroke-linejoin="round" d=" M 86.203, 80.120 95.695, 81.164 96.425, 81.245 96.772, 81.283 106.450, 83.797 112.344, 85.327 119.897, 87.601 126.304, 89.530 135.614, 93.179 139.193, 94.582 148.351, 98.600 150.645, 99.607 159.425, 103.822 166.429, 107.582 172.045, 111.546 172.905, 112.731 174.288, 114.638 174.885, 117.273 174.039, 117.928 172.781, 118.904 " />
            <path fill="none" stroke-width="3.0" stroke-linecap="butt" stroke-opacity="1.0" stroke="rgb(0, 0, 0)" stroke-linejoin="round" d=" M 79.485, 76.994 80.505, 75.523 83.209, 71.624 83.489, 70.802 84.418, 68.070 84.693, 67.264 85.001, 66.359 85.482, 64.947 85.497, 64.902 85.574, 64.677 86.001, 63.423 87.011, 57.082 87.026, 56.890 87.226, 54.423 87.347, 52.926 87.392, 52.359 " />
            <path fill="none" stroke-width="3.0" stroke-linecap="butt" stroke-opacity="1.0" stroke="rgb(0, 0, 0)" stroke-linejoin="round" d=" M 61.014, 71.960 63.539, 73.993 63.813, 74.213 63.857, 74.239 67.966, 76.637 68.687, 76.810 69.441, 76.992 73.835, 78.048 74.233, 78.143 79.485, 76.994 80.744, 78.262 80.903, 78.421 82.765, 79.390 83.408, 79.724 85.813, 80.154 86.105, 80.206 " />
            <path fill="none" stroke-width="3.0" stroke-linecap="butt" stroke-opacity="1.0" stroke="rgb(0, 0, 0)" stroke-linejoin="round" d=" M 62.028, 73.243 61.014, 71.960 57.165, 74.230 52.038, 76.612 45.566, 78.025 41.406, 76.912 " />
            <path fill="none" stroke-width="3.0" stroke-linecap="butt" stroke-opacity="1.0" stroke="rgb(0, 0, 0)" stroke-linejoin="round" d=" M 62.028, 73.243 63.736, 74.440 66.176, 76.151 68.218, 77.151 68.397, 77.239 68.908, 77.489 72.726, 79.299 73.059, 79.457 73.193, 79.520 73.808, 79.812 73.997, 79.857 75.696, 80.266 77.057, 80.594 78.127, 80.852 79.271, 81.025 80.971, 81.282 81.226, 81.321 83.997, 80.687 86.105, 80.206 86.203, 80.120 86.293, 80.042 86.708, 79.680 87.891, 78.647 88.156, 78.416 89.978, 75.538 91.621, 72.942 92.719, 71.208 93.586, 68.212 93.714, 67.770 93.918, 67.068 94.109, 66.407 94.171, 66.191 94.579, 64.783 94.856, 63.827 95.217, 62.503 95.413, 61.782 95.934, 59.870 97.560, 57.432 97.604, 57.367 99.019, 55.245 99.253, 54.894 99.279, 54.854 99.350, 54.748 102.738, 49.310 103.387, 48.268 104.671, 46.207 105.203, 44.491 105.885, 42.289 107.705, 36.625 106.622, 33.457 103.973, 29.362 101.903, 27.071 97.504, 24.775 94.549, 23.741 90.686, 22.986 89.670, 22.788 85.924, 22.434 " />
            <path fill="none" stroke-width="3.0" stroke-linecap="butt" stroke-opacity="1.0" stroke="rgb(0, 0, 0)" stroke-linejoin="round" d=" M 76.663, 6.929 80.438, 8.776 83.659, 13.785 85.147, 18.612 85.924, 22.434 " />
            <path fill="none" stroke-width="3.0" stroke-linecap="butt" stroke-opacity="1.0" stroke="rgb(0, 0, 0)" stroke-linejoin="round" d=" M 91.726, 55.396 91.643, 55.333 90.299, 54.314 90.093, 54.158 88.983, 53.317 88.111, 52.792 87.851, 52.636 87.392, 52.359 87.760, 52.018 90.831, 49.169 91.646, 48.413 92.084, 47.936 92.400, 47.593 96.869, 42.734 100.733, 36.710 102.716, 30.716 100.097, 26.642 94.549, 23.741 " />
            <path fill="none" stroke-width="3.0" stroke-linecap="butt" stroke-opacity="1.0" stroke="rgb(0, 0, 0)" stroke-linejoin="round" d=" M 188.608, 92.558 187.693, 88.932 183.440, 79.881 182.186, 77.213 178.148, 71.051 172.170, 63.034 171.446, 62.064 163.966, 55.427 162.812, 54.404 156.956, 50.200 149.587, 46.723 144.337, 44.346 143.561, 44.119 138.135, 42.533 131.669, 41.494 130.690, 41.469 125.663, 41.340 118.377, 41.531 110.652, 42.703 105.203, 44.491 " />
            <path fill="none" stroke-width="3.0" stroke-linecap="butt" stroke-opacity="1.0" stroke="rgb(0, 0, 0)" stroke-linejoin="round" d=" M 104.588, 31.228 106.622, 33.457 " />
            <path fill="none" stroke-width="3.0" stroke-linecap="butt" stroke-opacity="1.0" stroke="rgb(0, 0, 0)" stroke-linejoin="round" d=" M 190.581, 108.277 188.982, 106.140 180.410, 100.991 178.672, 99.947 176.277, 98.509 166.958, 94.881 165.252, 94.217 156.593, 90.845 146.936, 88.250 144.500, 87.595 " />
            <path fill="none" stroke-width="3.0" stroke-linecap="butt" stroke-opacity="1.0" stroke="rgb(0, 0, 0)" stroke-linejoin="round" d=" M 110.692, 67.089 108.863, 66.989 " />
            <path fill="none" stroke-width="3.0" stroke-linecap="butt" stroke-opacity="1.0" stroke="rgb(0, 0, 0)" stroke-linejoin="round" d=" M 110.692, 67.089 116.547, 67.965 126.437, 69.444 129.680, 69.929 133.005, 70.427 134.787, 70.693 " />
            <path fill="none" stroke-width="3.0" stroke-linecap="butt" stroke-opacity="1.0" stroke="rgb(0, 0, 0)" stroke-linejoin="round" d=" M 193.386, 110.185 191.258, 100.414 189.920, 94.272 188.608, 92.558 185.016, 87.866 184.121, 86.767 " />
            <path fill="none" stroke-width="3.0" stroke-linecap="butt" stroke-opacity="1.0" stroke="rgb(0, 0, 0)" stroke-linejoin="round" d=" M 143.561, 44.119 143.416, 43.902 141.517, 42.131 137.865, 40.790 133.899, 40.415 131.189, 41.148 130.690, 41.469 " />
            <path fill="none" stroke-width="3.0" stroke-linecap="butt" stroke-opacity="1.0" stroke="rgb(0, 0, 0)" stroke-linejoin="round" d=" M 201.616, 142.583 205.567, 141.658 209.470, 136.762 210.542, 132.935 207.151, 127.272 201.889, 119.710 196.640, 112.467 193.386, 110.185 191.145, 108.614 190.581, 108.277 181.992, 103.155 179.772, 101.832 177.745, 100.623 169.735, 97.524 160.409, 93.916 156.833, 92.533 155.537, 92.185 " />
            <path fill="none" stroke-width="3.0" stroke-linecap="butt" stroke-opacity="1.0" stroke="rgb(0, 0, 0)" stroke-linejoin="round" d=" M 189.000, 121.471 197.777, 126.263 198.127, 126.455 203.988, 129.655 209.470, 136.762 " />
            <path fill="none" stroke-width="3.0" stroke-linecap="butt" stroke-opacity="1.0" stroke="rgb(0, 0, 0)" stroke-linejoin="round" d=" M 210.542, 132.935 205.180, 125.621 196.469, 120.710 192.163, 118.283 191.533, 117.928 189.257, 116.644 " />
            <path fill="none" stroke-width="3.0" stroke-linecap="butt" stroke-opacity="1.0" stroke="rgb(0, 0, 0)" stroke-linejoin="round" d=" M 40.692, 91.297 38.627, 92.696 34.963, 95.178 34.124, 98.995 " />
            <path fill="none" stroke-width="3.0" stroke-linecap="butt" stroke-opacity="1.0" stroke="rgb(0, 0, 0)" stroke-linejoin="round" d=" M 45.073, 113.850 49.545, 116.139 " />
            <path fill="none" stroke-width="3.0" stroke-linecap="butt" stroke-opacity="1.0" stroke="rgb(0, 0, 0)" stroke-linejoin="round" d=" M 68.397, 77.239 67.952, 77.344 " />
            <path fill="none" stroke-width="3.0" stroke-linecap="butt" stroke-opacity="1.0" stroke="rgb(0, 0, 0)" stroke-linejoin="round" d=" M 93.714, 67.770 94.443, 68.238 " />
            <path fill="none" stroke-width="3.0" stroke-linecap="butt" stroke-opacity="1.0" stroke="rgb(0, 0, 0)" stroke-linejoin="round" d=" M 95.915, 75.765 98.002, 70.888 " />
            <path fill="none" stroke-width="3.0" stroke-linecap="butt" stroke-opacity="1.0" stroke="rgb(0, 0, 0)" stroke-linejoin="round" d=" M 190.745, 131.348 189.153, 123.908 " />
            <path fill="none" stroke-width="3.0" stroke-linecap="butt" stroke-opacity="1.0" stroke="rgb(0, 0, 0)" stroke-linejoin="round" d=" M 197.246, 128.260 202.504, 134.648 " />
        </g>
    </g>
</svg>
