<?xml version='1.0' encoding='ascii'?>
<svg xmlns="http://www.w3.org/2000/svg" version="1.1" width="250" height="250">
    <g id="ViewLayer_LineSet" xmlns:inkscape="http://www.inkscape.org/namespaces/inkscape" inkscape:groupmode="lineset" inkscape:label="ViewLayer_LineSet">
        <g xmlns:inkscape="http://www.inkscape.org/namespaces/inkscape" inkscape:groupmode="layer" id="strokes" inkscape:label="strokes">
            <path fill="none" stroke-width="3.0" stroke-linecap="butt" stroke-opacity="1.0" stroke="rgb(0, 0, 0)" stroke-linejoin="round" d=" M 166.207, 196.635 166.832, 196.180 173.776, 188.984 174.455, 188.280 176.452, 185.436 182.079, 177.169 182.349, 176.773 " />
            <path fill="none" stroke-width="3.0" stroke-linecap="butt" stroke-opacity="1.0" stroke="rgb(0, 0, 0)" stroke-linejoin="round" d=" M 59.602, 97.465 59.424, 97.689 57.975, 99.512 53.739, 106.629 49.929, 115.306 49.297, 117.351 48.363, 120.373 48.262, 120.703 47.910, 121.840 47.260, 123.942 46.007, 130.084 45.463, 136.450 45.237, 140.969 45.466, 146.607 45.946, 151.123 46.807, 155.745 47.654, 159.707 48.941, 164.020 50.605, 168.491 51.961, 171.545 52.575, 172.927 54.764, 177.137 57.080, 180.936 59.422, 184.148 62.355, 188.058 65.341, 191.324 69.454, 195.423 72.900, 198.110 74.226, 199.130 78.080, 202.096 84.046, 205.669 89.784, 208.277 93.595, 209.920 98.505, 211.320 100.597, 211.827 " />
            <path fill="none" stroke-width="3.0" stroke-linecap="butt" stroke-opacity="1.0" stroke="rgb(0, 0, 0)" stroke-linejoin="round" d=" M 189.727, 124.144 188.874, 120.156 188.608, 119.469 " />
            <path fill="none" stroke-width="3.0" stroke-linecap="butt" stroke-opacity="1.0" stroke="rgb(0, 0, 0)" stroke-linejoin="round" d=" M 77.110, 149.179 77.665, 150.579 78.812, 152.318 79.028, 152.647 80.924, 154.305 83.120, 155.532 85.162, 155.974 87.257, 155.901 89.632, 155.071 91.682, 153.740 93.232, 151.892 93.947, 150.574 " />
            <path fill="none" stroke-width="3.0" stroke-linecap="butt" stroke-opacity="1.0" stroke="rgb(0, 0, 0)" stroke-linejoin="round" d=" M 117.426, 99.891 117.822, 101.219 118.039, 101.948 118.491, 105.334 118.532, 109.156 118.548, 109.225 117.429, 117.635 117.305, 118.061 117.270, 118.181 116.202, 121.845 114.697, 126.134 112.941, 130.130 110.999, 133.642 108.939, 136.495 108.008, 137.401 107.626, 137.772 106.829, 138.548 104.743, 139.696 102.753, 139.881 101.445, 139.312 100.932, 139.089 99.354, 137.355 98.741, 136.097 98.491, 135.584 98.088, 134.758 97.194, 131.419 96.721, 127.498 96.699, 123.185 97.135, 118.686 97.992, 114.277 98.015, 114.197 98.062, 114.036 99.195, 110.117 100.717, 106.217 102.496, 102.718 104.465, 99.744 105.477, 98.603 " />
            <path fill="none" stroke-width="3.0" stroke-linecap="butt" stroke-opacity="1.0" stroke="rgb(0, 0, 0)" stroke-linejoin="round" d=" M 77.311, 117.629 76.333, 121.921 76.232, 122.301 75.249, 126.030 74.119, 129.607 74.073, 129.755 73.969, 130.012 72.811, 132.909 71.471, 135.334 70.067, 136.909 68.895, 137.439 68.627, 137.560 67.216, 137.558 65.840, 136.025 64.631, 133.926 63.656, 131.070 62.993, 127.604 62.929, 126.724 62.895, 126.254 62.710, 123.700 62.848, 119.547 63.131, 117.449 63.407, 115.402 64.274, 111.407 65.392, 107.566 66.717, 104.015 67.185, 103.022 67.431, 102.499 68.195, 100.878 69.768, 98.260 70.699, 97.096 " />
            <path fill="none" stroke-width="3.0" stroke-linecap="butt" stroke-opacity="1.0" stroke="rgb(0, 0, 0)" stroke-linejoin="round" d=" M 67.216, 137.558 70.422, 138.968 " />
            <path fill="none" stroke-width="3.0" stroke-linecap="butt" stroke-opacity="1.0" stroke="rgb(0, 0, 0)" stroke-linejoin="round" d=" M 77.821, 96.860 77.875, 96.954 78.528, 99.254 78.888, 102.161 78.997, 105.644 78.802, 108.001 78.777, 108.303 78.688, 109.381 " />
            <path fill="none" stroke-width="3.0" stroke-linecap="butt" stroke-opacity="1.0" stroke="rgb(0, 0, 0)" stroke-linejoin="round" d=" M 80.419, 119.603 77.311, 117.629 78.135, 113.428 78.688, 109.381 81.756, 111.448 " />
            <path fill="none" stroke-width="3.0" stroke-linecap="butt" stroke-opacity="1.0" stroke="rgb(0, 0, 0)" stroke-linejoin="round" d=" M 106.846, 202.471 103.163, 206.702 100.597, 211.827 100.128, 212.762 97.862, 217.232 96.580, 221.565 96.356, 223.239 95.658, 227.784 95.681, 231.478 96.255, 233.702 96.658, 235.265 98.982, 239.109 101.098, 241.286 104.921, 243.148 107.725, 244.361 113.728, 245.534 119.238, 246.000 125.682, 246.314 129.207, 246.466 137.553, 246.333 143.888, 245.895 149.924, 244.696 154.445, 243.405 158.608, 241.751 165.012, 237.843 169.081, 234.338 172.948, 230.377 174.815, 226.711 175.836, 223.616 176.915, 219.666 176.968, 215.197 175.848, 210.441 172.304, 202.874 169.614, 199.390 166.207, 196.635 166.150, 196.590 164.011, 195.078 " />
            <path fill="none" stroke-width="3.0" stroke-linecap="butt" stroke-opacity="1.0" stroke="rgb(0, 0, 0)" stroke-linejoin="round" d=" M 74.226, 199.130 72.973, 204.665 72.431, 207.891 72.471, 213.031 72.491, 216.073 73.135, 218.569 75.117, 223.588 76.394, 225.878 79.827, 229.477 84.152, 232.284 88.418, 233.565 90.612, 233.711 92.949, 233.813 94.952, 233.885 96.255, 233.702 " />
            <path fill="none" stroke-width="3.0" stroke-linecap="butt" stroke-opacity="1.0" stroke="rgb(0, 0, 0)" stroke-linejoin="round" d=" M 182.349, 176.773 187.860, 179.363 192.398, 180.692 196.591, 181.353 200.721, 181.313 204.173, 180.579 205.219, 180.225 207.815, 179.308 210.314, 177.946 212.998, 175.947 215.454, 173.473 217.489, 170.400 218.888, 167.337 219.671, 164.625 220.184, 160.729 220.111, 157.257 219.191, 153.288 217.559, 149.410 215.182, 145.350 214.174, 143.687 210.071, 138.620 207.168, 135.663 206.713, 135.200 205.813, 134.284 201.598, 130.512 197.121, 127.439 192.234, 125.032 189.727, 124.144 " />
            <path fill="none" stroke-width="3.0" stroke-linecap="butt" stroke-opacity="1.0" stroke="rgb(0, 0, 0)" stroke-linejoin="round" d=" M 47.910, 121.840 45.569, 123.057 41.453, 126.003 37.585, 129.593 33.676, 133.712 29.922, 138.509 27.679, 142.448 26.161, 146.220 25.826, 147.408 24.985, 151.118 24.933, 154.344 25.374, 157.374 26.345, 160.267 27.800, 163.050 27.840, 163.123 29.812, 165.887 32.160, 168.083 34.715, 169.829 37.331, 171.144 40.331, 172.101 43.617, 172.630 47.516, 172.494 51.442, 171.717 51.961, 171.545 " />
            <path fill="none" stroke-width="3.0" stroke-linecap="butt" stroke-opacity="1.0" stroke="rgb(0, 0, 0)" stroke-linejoin="round" d=" M 119.080, 67.529 119.529, 67.184 119.683, 66.869 119.721, 66.793 121.382, 63.399 122.368, 60.816 122.348, 57.131 121.331, 54.450 119.426, 50.747 117.641, 49.448 " />
            <path fill="none" stroke-width="3.0" stroke-linecap="butt" stroke-opacity="1.0" stroke="rgb(0, 0, 0)" stroke-linejoin="round" d=" M 56.085, 52.913 55.989, 53.185 54.470, 57.475 52.830, 63.560 52.260, 71.403 52.551, 72.677 54.203, 77.955 56.693, 79.217 60.122, 80.005 61.828, 80.398 61.840, 80.400 65.726, 80.872 71.739, 79.807 77.305, 78.381 82.789, 76.189 82.855, 76.162 " />
            <path fill="none" stroke-width="3.0" stroke-linecap="butt" stroke-opacity="1.0" stroke="rgb(0, 0, 0)" stroke-linejoin="round" d=" M 33.798, 109.844 31.591, 105.242 32.772, 104.072 37.473, 99.416 41.941, 98.250 49.953, 96.158 53.171, 95.318 56.519, 95.191 59.003, 95.096 61.563, 94.999 71.556, 94.620 73.899, 94.531 75.813, 94.458 75.814, 94.458 79.967, 94.300 89.937, 95.068 99.908, 95.836 107.780, 96.443 113.700, 96.899 116.217, 97.339 116.259, 97.346 126.109, 99.070 135.960, 100.793 145.810, 102.517 147.707, 102.848 157.365, 105.443 167.022, 108.038 176.680, 110.633 177.133, 110.754 178.207, 111.203 178.662, 111.393 183.109, 113.250 " />
            <path fill="none" stroke-width="3.0" stroke-linecap="butt" stroke-opacity="1.0" stroke="rgb(0, 0, 0)" stroke-linejoin="round" d=" M 206.713, 135.200 206.350, 128.792 200.039, 123.912 197.955, 122.300 " />
            <path fill="none" stroke-width="3.0" stroke-linecap="butt" stroke-opacity="1.0" stroke="rgb(0, 0, 0)" stroke-linejoin="round" d=" M 44.964, 100.562 54.717, 98.357 58.498, 97.502 " />
            <path fill="none" stroke-width="3.0" stroke-linecap="butt" stroke-opacity="1.0" stroke="rgb(0, 0, 0)" stroke-linejoin="round" d=" M 38.842, 114.772 47.130, 120.235 48.262, 120.703 " />
            <path fill="none" stroke-width="3.0" stroke-linecap="butt" stroke-opacity="1.0" stroke="rgb(0, 0, 0)" stroke-linejoin="round" d=" M 55.970, 97.586 46.219, 99.807 45.680, 99.930 41.087, 100.976 39.802, 101.269 33.792, 106.881 34.546, 108.498 " />
            <path fill="none" stroke-width="3.0" stroke-linecap="butt" stroke-opacity="1.0" stroke="rgb(0, 0, 0)" stroke-linejoin="round" d=" M 55.970, 97.586 58.498, 97.502 59.180, 97.479 59.602, 97.465 61.038, 97.417 70.699, 97.096 76.505, 96.904 77.821, 96.860 79.045, 96.819 81.513, 96.737 91.483, 97.514 101.453, 98.290 105.477, 98.603 110.364, 98.984 113.454, 99.225 117.426, 99.891 117.942, 99.977 127.804, 101.631 137.667, 103.284 140.046, 103.683 146.777, 104.812 156.442, 107.378 166.107, 109.945 175.741, 112.504 179.346, 113.989 184.627, 116.165 " />
            <path fill="none" stroke-width="3.0" stroke-linecap="butt" stroke-opacity="1.0" stroke="rgb(0, 0, 0)" stroke-linejoin="round" d=" M 41.003, 91.795 36.198, 95.741 33.029, 98.977 31.216, 101.847 30.046, 104.902 30.039, 107.379 30.503, 109.560 34.832, 113.759 37.513, 115.235 38.842, 114.772 38.853, 114.768 40.776, 114.097 42.005, 113.258 43.633, 112.147 45.219, 107.058 " />
            <path fill="none" stroke-width="3.0" stroke-linecap="butt" stroke-opacity="1.0" stroke="rgb(0, 0, 0)" stroke-linejoin="round" d=" M 33.235, 111.153 30.503, 109.560 " />
            <path fill="none" stroke-width="3.0" stroke-linecap="butt" stroke-opacity="1.0" stroke="rgb(0, 0, 0)" stroke-linejoin="round" d=" M 43.633, 112.147 39.902, 109.729 " />
            <path fill="none" stroke-width="3.0" stroke-linecap="butt" stroke-opacity="1.0" stroke="rgb(0, 0, 0)" stroke-linejoin="round" d=" M 40.766, 107.435 39.902, 109.729 36.479, 110.692 " />
            <path fill="none" stroke-width="3.0" stroke-linecap="butt" stroke-opacity="1.0" stroke="rgb(0, 0, 0)" stroke-linejoin="round" d=" M 57.447, 82.215 50.493, 85.558 42.136, 91.050 41.003, 91.795 47.263, 87.702 48.774, 86.888 57.447, 82.215 59.143, 81.512 61.828, 80.398 " />
            <path fill="none" stroke-width="3.0" stroke-linecap="butt" stroke-opacity="1.0" stroke="rgb(0, 0, 0)" stroke-linejoin="round" d=" M 47.263, 87.702 49.860, 86.635 49.863, 86.634 52.983, 85.352 55.735, 84.221 57.786, 83.603 67.365, 80.714 77.312, 79.688 78.806, 79.534 80.461, 79.363 81.814, 79.326 87.697, 79.166 89.254, 79.232 89.773, 79.255 " />
            <path fill="none" stroke-width="3.0" stroke-linecap="butt" stroke-opacity="1.0" stroke="rgb(0, 0, 0)" stroke-linejoin="round" d=" M 179.346, 113.989 180.039, 115.685 182.835, 116.998 183.058, 117.103 184.133, 117.561 188.608, 119.469 196.907, 123.006 197.012, 122.935 197.955, 122.300 198.715, 121.787 199.111, 121.520 199.362, 120.426 199.947, 117.881 197.043, 113.313 192.331, 108.749 190.546, 107.020 182.987, 101.565 182.666, 101.326 178.996, 98.597 177.358, 97.378 176.769, 96.940 172.044, 94.146 168.232, 91.891 161.412, 89.035 157.644, 87.457 157.049, 87.208 147.504, 84.224 144.336, 83.234 134.723, 80.482 131.541, 79.571 121.682, 77.893 118.680, 77.383 109.271, 75.853 107.487, 75.563 " />
            <path fill="none" stroke-width="3.0" stroke-linecap="butt" stroke-opacity="1.0" stroke="rgb(0, 0, 0)" stroke-linejoin="round" d=" M 102.612, 80.246 107.750, 80.774 111.455, 81.154 112.632, 81.443 122.346, 83.820 128.108, 85.230 137.712, 88.015 142.512, 89.407 142.580, 89.433 151.906, 93.042 155.353, 94.376 164.510, 98.395 166.505, 99.270 174.876, 103.346 181.329, 106.963 184.764, 109.544 186.402, 110.775 187.519, 112.543 187.916, 113.171 188.290, 113.763 188.534, 115.467 188.656, 116.323 187.641, 116.972 187.227, 117.236 186.120, 117.943 " />
            <path fill="none" stroke-width="3.0" stroke-linecap="butt" stroke-opacity="1.0" stroke="rgb(0, 0, 0)" stroke-linejoin="round" d=" M 99.122, 76.833 100.205, 75.283 102.919, 71.400 103.569, 69.174 103.940, 67.900 104.281, 66.732 104.521, 65.911 104.957, 64.414 105.256, 63.390 105.339, 63.107 105.875, 56.690 105.863, 54.719 105.856, 53.689 105.846, 52.234 105.844, 51.907 " />
            <path fill="none" stroke-width="3.0" stroke-linecap="butt" stroke-opacity="1.0" stroke="rgb(0, 0, 0)" stroke-linejoin="round" d=" M 76.872, 71.590 80.422, 73.916 83.092, 75.212 83.531, 75.425 84.589, 75.939 85.576, 76.418 93.097, 77.981 99.122, 76.833 99.384, 77.147 100.327, 78.283 101.991, 79.600 102.638, 79.814 103.444, 80.080 " />
            <path fill="none" stroke-width="3.0" stroke-linecap="butt" stroke-opacity="1.0" stroke="rgb(0, 0, 0)" stroke-linejoin="round" d=" M 54.203, 77.955 53.881, 76.579 " />
            <path fill="none" stroke-width="3.0" stroke-linecap="butt" stroke-opacity="1.0" stroke="rgb(0, 0, 0)" stroke-linejoin="round" d=" M 79.895, 74.448 77.629, 72.905 76.872, 71.590 72.525, 73.896 66.646, 76.318 61.943, 77.199 59.018, 77.747 53.881, 76.579 52.260, 71.403 " />
            <path fill="none" stroke-width="3.0" stroke-linecap="butt" stroke-opacity="1.0" stroke="rgb(0, 0, 0)" stroke-linejoin="round" d=" M 110.676, 59.365 110.894, 59.058 110.926, 59.013 111.178, 58.659 114.195, 54.419 114.483, 54.005 117.641, 49.448 118.874, 47.669 122.544, 42.013 122.788, 41.119 124.087, 36.354 124.138, 33.172 122.954, 30.906 119.473, 26.644 114.197, 24.201 111.262, 23.081 105.522, 21.969 103.082, 21.706 101.136, 21.496 " />
            <path fill="none" stroke-width="3.0" stroke-linecap="butt" stroke-opacity="1.0" stroke="rgb(0, 0, 0)" stroke-linejoin="round" d=" M 55.989, 53.185 53.307, 49.361 50.314, 44.294 48.891, 38.881 49.362, 33.366 53.716, 29.144 60.757, 25.594 66.451, 23.970 70.766, 23.074 73.358, 19.071 77.249, 13.876 83.330, 8.079 88.740, 5.378 93.355, 7.406 97.626, 12.625 99.847, 17.586 101.136, 21.496 " />
            <path fill="none" stroke-width="3.0" stroke-linecap="butt" stroke-opacity="1.0" stroke="rgb(0, 0, 0)" stroke-linejoin="round" d=" M 108.978, 55.016 107.608, 53.396 107.183, 52.893 105.951, 51.986 105.844, 51.907 106.063, 51.718 106.756, 51.118 110.373, 47.982 110.872, 47.466 115.828, 42.341 116.368, 41.497 119.667, 36.347 121.343, 30.353 117.937, 26.173 111.262, 23.081 " />
            <path fill="none" stroke-width="3.0" stroke-linecap="butt" stroke-opacity="1.0" stroke="rgb(0, 0, 0)" stroke-linejoin="round" d=" M 103.082, 21.706 102.176, 19.388 99.692, 14.557 98.268, 12.254 94.385, 7.518 89.680, 5.453 88.740, 5.378 " />
            <path fill="none" stroke-width="3.0" stroke-linecap="butt" stroke-opacity="1.0" stroke="rgb(0, 0, 0)" stroke-linejoin="round" d=" M 53.307, 49.361 56.085, 52.913 " />
            <path fill="none" stroke-width="3.0" stroke-linecap="butt" stroke-opacity="1.0" stroke="rgb(0, 0, 0)" stroke-linejoin="round" d=" M 191.356, 103.949 188.455, 94.379 186.381, 87.540 185.376, 86.471 184.168, 82.128 179.317, 73.384 178.057, 71.112 171.523, 63.542 170.412, 62.255 164.732, 56.731 156.765, 50.687 156.418, 50.423 149.197, 46.556 142.933, 44.417 138.104, 42.838 137.113, 42.514 130.664, 41.362 126.670, 41.192 124.308, 41.092 122.788, 41.119 " />
            <path fill="none" stroke-width="3.0" stroke-linecap="butt" stroke-opacity="1.0" stroke="rgb(0, 0, 0)" stroke-linejoin="round" d=" M 79.895, 74.448 81.864, 75.588 82.806, 76.134 82.855, 76.162 83.556, 76.568 84.608, 77.177 84.771, 77.271 88.013, 78.557 89.652, 79.207 89.773, 79.255 90.529, 79.555 90.795, 79.660 92.246, 79.991 94.164, 80.404 97.852, 81.198 100.648, 80.639 102.612, 80.246 103.444, 80.080 103.584, 79.880 104.310, 78.841 106.625, 75.530 106.928, 75.096 107.387, 74.441 108.665, 70.640 108.830, 70.151 109.186, 68.283 109.474, 66.778 109.583, 66.204 110.248, 62.718 110.676, 59.365 110.743, 58.834 110.775, 58.586 110.849, 58.007 110.898, 57.618 " />
            <path fill="none" stroke-width="3.0" stroke-linecap="butt" stroke-opacity="1.0" stroke="rgb(0, 0, 0)" stroke-linejoin="round" d=" M 186.563, 100.908 183.097, 97.984 174.741, 94.184 166.820, 90.583 161.412, 89.035 " />
            <path fill="none" stroke-width="3.0" stroke-linecap="butt" stroke-opacity="1.0" stroke="rgb(0, 0, 0)" stroke-linejoin="round" d=" M 121.277, 66.883 119.721, 66.793 " />
            <path fill="none" stroke-width="3.0" stroke-linecap="butt" stroke-opacity="1.0" stroke="rgb(0, 0, 0)" stroke-linejoin="round" d=" M 121.277, 66.883 131.155, 68.441 141.033, 69.999 145.050, 70.633 " />
            <path fill="none" stroke-width="3.0" stroke-linecap="butt" stroke-opacity="1.0" stroke="rgb(0, 0, 0)" stroke-linejoin="round" d=" M 138.104, 42.838 137.575, 42.122 134.238, 40.727 130.180, 40.277 127.012, 40.950 126.670, 41.192 " />
            <path fill="none" stroke-width="3.0" stroke-linecap="butt" stroke-opacity="1.0" stroke="rgb(0, 0, 0)" stroke-linejoin="round" d=" M 207.168, 135.663 208.966, 134.600 209.832, 130.893 209.676, 123.941 205.847, 118.451 200.069, 111.357 192.450, 104.879 191.356, 103.949 190.519, 103.237 186.563, 100.908 185.087, 100.039 176.276, 96.058 172.044, 94.146 " />
            <path fill="none" stroke-width="3.0" stroke-linecap="butt" stroke-opacity="1.0" stroke="rgb(0, 0, 0)" stroke-linejoin="round" d=" M 199.362, 120.426 207.204, 126.631 208.747, 127.852 208.966, 134.600 " />
            <path fill="none" stroke-width="3.0" stroke-linecap="butt" stroke-opacity="1.0" stroke="rgb(0, 0, 0)" stroke-linejoin="round" d=" M 44.528, 90.654 43.556, 91.387 38.092, 95.444 32.028, 101.589 31.591, 105.242 " />
            <path fill="none" stroke-width="3.0" stroke-linecap="butt" stroke-opacity="1.0" stroke="rgb(0, 0, 0)" stroke-linejoin="round" d=" M 209.676, 123.941 201.948, 117.595 199.409, 115.510 " />
            <path fill="none" stroke-width="3.0" stroke-linecap="butt" stroke-opacity="1.0" stroke="rgb(0, 0, 0)" stroke-linejoin="round" d=" M 60.122, 80.005 59.143, 81.512 " />
            <path fill="none" stroke-width="3.0" stroke-linecap="butt" stroke-opacity="1.0" stroke="rgb(0, 0, 0)" stroke-linejoin="round" d=" M 107.267, 75.555 107.445, 74.956 108.731, 70.638 " />
            <path fill="none" stroke-width="3.0" stroke-linecap="butt" stroke-opacity="1.0" stroke="rgb(0, 0, 0)" stroke-linejoin="round" d=" M 108.665, 70.640 108.731, 70.638 110.899, 70.587 " />
            <path fill="none" stroke-width="3.0" stroke-linecap="butt" stroke-opacity="1.0" stroke="rgb(0, 0, 0)" stroke-linejoin="round" d=" M 197.012, 122.935 201.634, 126.472 " />
        </g>
    </g>
</svg>
