<?xml version='1.0' encoding='ascii'?>
<svg xmlns="http://www.w3.org/2000/svg" version="1.1" width="250" height="250">
    <g id="ViewLayer_LineSet" xmlns:inkscape="http://www.inkscape.org/namespaces/inkscape" inkscape:groupmode="lineset" inkscape:label="ViewLayer_LineSet">
        <g xmlns:inkscape="http://www.inkscape.org/namespaces/inkscape" inkscape:groupmode="layer" id="strokes" inkscape:label="strokes">
            <path fill="none" stroke-width="3.0" stroke-linecap="butt" stroke-opacity="1.0" stroke="rgb(0, 0, 0)" stroke-linejoin="round" d=" M 132.136, 209.060 138.114, 207.626 142.984, 206.376 146.784, 204.876 155.528, 200.657 158.773, 198.542 166.834, 192.624 167.356, 192.241 174.288, 185.034 174.879, 184.418 175.357, 183.715 180.976, 175.442 181.106, 175.250 182.859, 172.532 187.059, 163.457 187.556, 162.382 188.980, 157.262 " />
            <path fill="none" stroke-width="3.0" stroke-linecap="butt" stroke-opacity="1.0" stroke="rgb(0, 0, 0)" stroke-linejoin="round" d=" M 52.912, 110.757 50.472, 117.487 48.334, 126.621 48.235, 127.675 47.438, 136.122 47.448, 138.984 47.614, 142.484 48.119, 148.048 48.674, 151.367 49.733, 155.866 50.379, 158.475 51.266, 161.339 52.353, 164.324 53.590, 167.295 54.920, 170.117 56.283, 172.661 58.282, 176.005 60.258, 179.182 62.114, 181.639 65.881, 186.296 67.292, 187.677 " />
            <path fill="none" stroke-width="3.0" stroke-linecap="butt" stroke-opacity="1.0" stroke="rgb(0, 0, 0)" stroke-linejoin="round" d=" M 51.903, 106.086 50.471, 109.563 48.982, 112.936 47.852, 116.354 47.017, 119.506 46.471, 122.242 46.186, 124.429 46.117, 125.959 46.221, 126.759 " />
            <path fill="none" stroke-width="3.0" stroke-linecap="butt" stroke-opacity="1.0" stroke="rgb(0, 0, 0)" stroke-linejoin="round" d=" M 46.221, 126.759 48.235, 127.675 " />
            <path fill="none" stroke-width="3.0" stroke-linecap="butt" stroke-opacity="1.0" stroke="rgb(0, 0, 0)" stroke-linejoin="round" d=" M 37.126, 204.265 35.284, 208.487 35.040, 212.902 36.412, 217.436 37.200, 219.306 40.455, 223.262 42.662, 225.182 46.616, 227.206 54.039, 230.576 64.022, 231.161 65.756, 231.262 75.674, 229.980 78.981, 229.553 88.857, 227.983 92.647, 227.381 102.439, 225.350 103.277, 225.177 106.233, 224.460 113.872, 222.136 117.632, 220.689 122.698, 218.096 125.750, 215.839 126.256, 215.328 129.894, 211.655 131.938, 209.460 132.136, 209.060 132.514, 208.294 " />
            <path fill="none" stroke-width="3.0" stroke-linecap="butt" stroke-opacity="1.0" stroke="rgb(0, 0, 0)" stroke-linejoin="round" d=" M 62.962, 189.933 55.380, 191.675 48.360, 194.169 46.855, 194.928 41.175, 198.968 " />
            <path fill="none" stroke-width="3.0" stroke-linecap="butt" stroke-opacity="1.0" stroke="rgb(0, 0, 0)" stroke-linejoin="round" d=" M 41.175, 198.968 40.145, 200.254 37.126, 204.265 38.084, 202.634 41.175, 198.968 " />
            <path fill="none" stroke-width="3.0" stroke-linecap="butt" stroke-opacity="1.0" stroke="rgb(0, 0, 0)" stroke-linejoin="round" d=" M 126.256, 215.328 134.342, 213.397 144.030, 210.919 146.607, 210.260 156.131, 207.589 162.339, 205.297 164.994, 203.957 169.641, 201.108 171.069, 199.520 174.757, 195.391 175.470, 193.549 176.513, 189.527 175.780, 184.674 175.357, 183.715 " />
            <path fill="none" stroke-width="3.0" stroke-linecap="butt" stroke-opacity="1.0" stroke="rgb(0, 0, 0)" stroke-linejoin="round" d=" M 81.502, 134.798 79.580, 138.844 77.577, 143.330 76.237, 148.001 75.606, 152.975 75.255, 158.580 75.020, 164.055 75.619, 169.888 77.036, 174.085 78.988, 178.452 80.645, 181.544 80.846, 181.802 82.794, 184.299 85.055, 187.011 88.801, 189.872 91.358, 191.243 95.756, 192.801 96.103, 192.846 100.937, 193.477 105.835, 193.119 110.211, 191.840 112.059, 191.131 114.886, 189.633 119.582, 185.904 121.902, 183.173 122.664, 182.046 126.648, 176.156 127.494, 174.006 128.768, 170.767 130.063, 165.511 131.173, 159.982 131.308, 159.032 " />
            <path fill="none" stroke-width="3.0" stroke-linecap="butt" stroke-opacity="1.0" stroke="rgb(0, 0, 0)" stroke-linejoin="round" d=" M 44.658, 78.134 47.554, 79.035 51.006, 79.323 " />
            <path fill="none" stroke-width="3.0" stroke-linecap="butt" stroke-opacity="1.0" stroke="rgb(0, 0, 0)" stroke-linejoin="round" d=" M 58.384, 76.429 61.245, 72.993 63.608, 69.145 63.639, 69.077 " />
            <path fill="none" stroke-width="3.0" stroke-linecap="butt" stroke-opacity="1.0" stroke="rgb(0, 0, 0)" stroke-linejoin="round" d=" M 70.617, 47.197 70.252, 44.240 70.133, 42.442 69.876, 38.580 69.257, 32.455 67.976, 27.970 65.301, 22.283 62.120, 19.247 59.106, 17.714 57.534, 17.980 55.280, 19.308 52.020, 23.398 49.548, 27.435 47.763, 30.643 46.082, 30.719 43.690, 31.240 40.259, 33.392 37.609, 36.721 36.188, 41.909 35.561, 47.151 35.636, 52.093 35.804, 53.959 35.828, 54.214 35.831, 54.253 35.945, 55.507 34.373, 59.367 34.059, 60.225 32.486, 64.525 30.683, 71.161 30.292, 75.496 31.251, 76.601 33.006, 77.633 36.302, 78.629 41.190, 79.012 44.658, 78.134 47.170, 77.498 47.872, 77.320 51.105, 76.064 55.568, 72.227 57.965, 71.055 " />
            <path fill="none" stroke-width="3.0" stroke-linecap="butt" stroke-opacity="1.0" stroke="rgb(0, 0, 0)" stroke-linejoin="round" d=" M 70.605, 47.822 70.617, 47.197 70.611, 45.866 70.357, 43.240 70.133, 42.442 " />
            <path fill="none" stroke-width="3.0" stroke-linecap="butt" stroke-opacity="1.0" stroke="rgb(0, 0, 0)" stroke-linejoin="round" d=" M 80.942, 55.865 79.833, 55.957 79.480, 55.986 79.202, 56.202 77.687, 57.382 " />
            <path fill="none" stroke-width="3.0" stroke-linecap="butt" stroke-opacity="1.0" stroke="rgb(0, 0, 0)" stroke-linejoin="round" d=" M 80.382, 59.652 80.352, 59.675 79.788, 60.121 77.883, 62.112 " />
            <path fill="none" stroke-width="3.0" stroke-linecap="butt" stroke-opacity="1.0" stroke="rgb(0, 0, 0)" stroke-linejoin="round" d=" M 49.650, 81.470 44.494, 84.181 39.586, 88.029 37.749, 91.486 40.241, 97.090 42.522, 98.922 50.470, 104.991 51.903, 106.086 52.779, 106.755 54.072, 107.742 54.225, 107.825 57.118, 109.398 57.747, 109.741 " />
            <path fill="none" stroke-width="3.0" stroke-linecap="butt" stroke-opacity="1.0" stroke="rgb(0, 0, 0)" stroke-linejoin="round" d=" M 40.241, 97.090 48.201, 103.143 51.898, 105.954 51.946, 105.980 52.883, 106.489 54.457, 107.343 57.298, 108.884 57.379, 108.927 " />
            <path fill="none" stroke-width="3.0" stroke-linecap="butt" stroke-opacity="1.0" stroke="rgb(0, 0, 0)" stroke-linejoin="round" d=" M 75.255, 119.261 78.641, 120.761 87.784, 124.811 91.015, 126.243 100.158, 130.293 103.872, 131.938 108.282, 133.573 117.658, 137.050 127.034, 140.527 130.063, 141.650 135.497, 143.665 145.073, 146.545 146.343, 146.927 155.920, 149.806 164.745, 152.460 174.534, 154.506 184.322, 156.552 187.141, 157.141 188.980, 157.262 190.321, 157.350 200.316, 157.665 203.837, 157.776 207.644, 154.645 208.486, 150.896 207.729, 145.061 204.239, 136.442 200.049, 131.084 196.788, 127.612 " />
            <path fill="none" stroke-width="3.0" stroke-linecap="butt" stroke-opacity="1.0" stroke="rgb(0, 0, 0)" stroke-linejoin="round" d=" M 77.895, 62.414 77.883, 62.119 77.883, 62.112 77.804, 60.205 77.750, 58.893 77.698, 57.643 77.687, 57.382 77.600, 55.287 75.214, 52.990 74.897, 52.684 74.113, 51.931 71.740, 49.646 70.567, 49.703 68.584, 49.799 67.008, 49.876 66.533, 49.899 66.415, 49.905 65.289, 49.960 63.847, 50.030 62.835, 50.441 57.913, 56.163 58.267, 63.876 63.635, 69.073 63.636, 69.074 63.639, 69.077 63.671, 69.108 64.738, 70.030 67.451, 69.923 68.002, 69.901 68.387, 69.886 " />
            <path fill="none" stroke-width="3.0" stroke-linecap="butt" stroke-opacity="1.0" stroke="rgb(0, 0, 0)" stroke-linejoin="round" d=" M 64.213, 74.506 58.384, 76.429 54.265, 77.788 52.315, 78.482 51.312, 78.838 51.006, 79.323 49.650, 81.470 49.304, 82.019 48.759, 85.530 49.489, 89.937 49.501, 90.011 " />
            <path fill="none" stroke-width="3.0" stroke-linecap="butt" stroke-opacity="1.0" stroke="rgb(0, 0, 0)" stroke-linejoin="round" d=" M 64.976, 74.254 63.536, 75.528 62.708, 77.146 62.707, 77.721 62.702, 80.206 62.752, 80.564 62.910, 81.690 63.028, 82.530 63.194, 83.715 63.197, 83.737 64.211, 86.400 64.897, 88.202 65.689, 90.109 66.743, 92.650 66.820, 92.835 67.004, 93.279 67.293, 94.137 68.584, 97.976 68.600, 98.024 68.624, 98.095 " />
            <path fill="none" stroke-width="3.0" stroke-linecap="butt" stroke-opacity="1.0" stroke="rgb(0, 0, 0)" stroke-linejoin="round" d=" M 50.783, 94.691 51.437, 96.489 51.472, 96.585 52.275, 98.790 52.826, 100.298 " />
            <path fill="none" stroke-width="3.0" stroke-linecap="butt" stroke-opacity="1.0" stroke="rgb(0, 0, 0)" stroke-linejoin="round" d=" M 49.850, 91.361 49.651, 90.589 49.501, 90.011 49.658, 90.584 49.871, 91.360 49.894, 91.444 49.973, 91.732 49.985, 91.776 50.154, 92.395 50.783, 94.691 51.579, 96.942 " />
            <path fill="none" stroke-width="3.0" stroke-linecap="butt" stroke-opacity="1.0" stroke="rgb(0, 0, 0)" stroke-linejoin="round" d=" M 78.641, 120.761 77.037, 121.712 67.987, 117.458 66.639, 116.825 62.511, 114.884 61.071, 114.208 60.520, 113.797 58.819, 112.530 58.221, 110.962 57.800, 109.858 57.785, 109.823 57.747, 109.741 57.379, 108.927 57.325, 108.808 56.360, 106.680 55.898, 105.752 55.555, 105.063 54.405, 102.753 54.327, 102.596 53.744, 101.516 52.280, 98.801 52.275, 98.790 " />
            <path fill="none" stroke-width="3.0" stroke-linecap="butt" stroke-opacity="1.0" stroke="rgb(0, 0, 0)" stroke-linejoin="round" d=" M 68.624, 98.095 69.316, 100.172 70.596, 104.012 71.082, 107.664 71.167, 108.301 71.518, 110.937 73.224, 116.094 74.006, 118.582 74.462, 120.034 " />
            <path fill="none" stroke-width="3.0" stroke-linecap="butt" stroke-opacity="1.0" stroke="rgb(0, 0, 0)" stroke-linejoin="round" d=" M 77.037, 121.712 74.462, 120.034 74.307, 118.746 " />
            <path fill="none" stroke-width="3.0" stroke-linecap="butt" stroke-opacity="1.0" stroke="rgb(0, 0, 0)" stroke-linejoin="round" d=" M 84.084, 56.451 79.134, 51.691 77.175, 51.785 " />
            <path fill="none" stroke-width="3.0" stroke-linecap="butt" stroke-opacity="1.0" stroke="rgb(0, 0, 0)" stroke-linejoin="round" d=" M 35.828, 54.214 35.443, 55.516 34.128, 59.971 34.059, 60.225 " />
            <path fill="none" stroke-width="3.0" stroke-linecap="butt" stroke-opacity="1.0" stroke="rgb(0, 0, 0)" stroke-linejoin="round" d=" M 52.996, 32.376 49.203, 30.697 47.984, 30.651 47.766, 30.643 47.763, 30.643 " />
            <path fill="none" stroke-width="3.0" stroke-linecap="butt" stroke-opacity="1.0" stroke="rgb(0, 0, 0)" stroke-linejoin="round" d=" M 40.977, 57.593 37.094, 56.158 35.986, 55.530 35.945, 55.507 " />
            <path fill="none" stroke-width="3.0" stroke-linecap="butt" stroke-opacity="1.0" stroke="rgb(0, 0, 0)" stroke-linejoin="round" d=" M 143.872, 39.681 142.903, 39.561 132.978, 38.338 132.062, 38.225 122.112, 39.226 118.496, 39.590 108.935, 42.520 104.729, 43.808 95.800, 48.310 92.698, 49.874 84.750, 55.942 84.084, 56.451 83.462, 56.925 82.759, 57.462 81.462, 58.452 80.382, 59.652 80.352, 59.686 79.411, 60.730 79.116, 61.059 77.895, 62.414 77.790, 62.531 76.977, 63.434 75.044, 65.581 74.775, 65.881 74.726, 65.884 74.397, 65.904 74.079, 65.923 73.811, 65.939 73.014, 65.988 70.625, 66.133 70.003, 67.176 69.996, 67.188 69.891, 67.363 69.755, 67.592 69.732, 67.629 69.635, 67.792 69.513, 67.998 68.624, 69.489 68.387, 69.886 68.255, 70.106 65.794, 74.234 63.785, 77.603 " />
            <path fill="none" stroke-width="3.0" stroke-linecap="butt" stroke-opacity="1.0" stroke="rgb(0, 0, 0)" stroke-linejoin="round" d=" M 179.711, 126.069 182.827, 126.768 191.102, 128.136 191.407, 128.187 193.691, 128.565 196.788, 127.612 197.208, 127.483 198.070, 117.520 198.932, 107.557 198.990, 106.893 197.508, 105.255 196.528, 101.641 194.543, 91.840 193.744, 87.891 189.992, 78.621 188.717, 75.468 183.458, 66.963 181.165, 63.255 174.350, 55.937 171.870, 53.275 163.648, 47.583 162.925, 47.083 162.653, 44.571 161.258, 40.775 155.301, 36.757 148.920, 35.948 148.162, 35.979 144.632, 37.950 142.903, 39.561 " />
            <path fill="none" stroke-width="3.0" stroke-linecap="butt" stroke-opacity="1.0" stroke="rgb(0, 0, 0)" stroke-linejoin="round" d=" M 38.800, 36.905 42.243, 38.365 46.729, 40.668 " />
            <path fill="none" stroke-width="3.0" stroke-linecap="butt" stroke-opacity="1.0" stroke="rgb(0, 0, 0)" stroke-linejoin="round" d=" M 39.513, 78.007 34.606, 77.619 31.251, 76.601 " />
            <path fill="none" stroke-width="3.0" stroke-linecap="butt" stroke-opacity="1.0" stroke="rgb(0, 0, 0)" stroke-linejoin="round" d=" M 63.767, 77.634 64.913, 79.032 65.325, 79.535 66.279, 80.698 66.449, 80.906 66.624, 81.119 67.970, 81.917 69.204, 82.649 71.449, 83.981 71.692, 84.125 76.984, 87.263 79.718, 88.751 " />
            <path fill="none" stroke-width="3.0" stroke-linecap="butt" stroke-opacity="1.0" stroke="rgb(0, 0, 0)" stroke-linejoin="round" d=" M 70.625, 66.133 72.931, 67.215 73.026, 67.259 74.252, 67.834 74.908, 68.141 75.566, 68.450 " />
            <path fill="none" stroke-width="3.0" stroke-linecap="butt" stroke-opacity="1.0" stroke="rgb(0, 0, 0)" stroke-linejoin="round" d=" M 76.984, 87.263 78.121, 87.804 84.886, 91.024 93.916, 95.321 94.498, 95.599 103.728, 99.447 109.043, 101.663 114.202, 103.814 114.404, 103.898 117.284, 105.099 117.443, 105.158 126.812, 108.653 136.182, 112.149 142.062, 114.342 151.560, 117.473 161.057, 120.604 164.994, 121.901 174.641, 124.534 181.129, 126.304 182.827, 126.768 " />
            <path fill="none" stroke-width="3.0" stroke-linecap="butt" stroke-opacity="1.0" stroke="rgb(0, 0, 0)" stroke-linejoin="round" d=" M 195.649, 106.903 198.990, 106.893 " />
            <path fill="none" stroke-width="3.0" stroke-linecap="butt" stroke-opacity="1.0" stroke="rgb(0, 0, 0)" stroke-linejoin="round" d=" M 79.718, 88.751 85.759, 91.628 94.788, 95.928 96.321, 96.659 105.550, 100.509 107.955, 101.513 114.338, 104.175 114.662, 104.310 117.526, 105.505 117.809, 105.623 127.178, 109.118 136.547, 112.613 141.142, 114.327 150.640, 117.455 160.138, 120.584 162.783, 121.455 172.431, 124.084 179.711, 126.069 " />
            <path fill="none" stroke-width="3.0" stroke-linecap="butt" stroke-opacity="1.0" stroke="rgb(0, 0, 0)" stroke-linejoin="round" d=" M 143.872, 39.681 148.488, 41.135 154.868, 43.482 160.414, 45.770 162.925, 47.083 " />
            <path fill="none" stroke-width="3.0" stroke-linecap="butt" stroke-opacity="1.0" stroke="rgb(0, 0, 0)" stroke-linejoin="round" d=" M 73.876, 117.877 79.392, 120.317 88.537, 124.362 91.796, 125.803 100.942, 129.849 103.701, 131.069 108.265, 132.762 117.641, 136.239 127.017, 139.717 129.858, 140.770 136.697, 143.307 146.272, 146.193 146.650, 146.306 156.225, 149.192 165.799, 152.077 167.144, 152.482 176.930, 154.538 186.717, 156.593 189.031, 157.079 190.321, 157.350 " />
            <path fill="none" stroke-width="3.0" stroke-linecap="butt" stroke-opacity="1.0" stroke="rgb(0, 0, 0)" stroke-linejoin="round" d=" M 138.040, 138.965 128.665, 135.485 127.090, 134.900 117.715, 131.420 109.194, 128.257 105.172, 126.764 97.660, 123.471 88.501, 119.456 82.111, 116.655 75.422, 113.723 " />
            <path fill="none" stroke-width="3.0" stroke-linecap="butt" stroke-opacity="1.0" stroke="rgb(0, 0, 0)" stroke-linejoin="round" d=" M 83.462, 56.925 82.251, 56.186 77.175, 51.785 73.575, 48.663 72.264, 48.285 70.605, 47.822 69.829, 47.606 67.661, 48.958 " />
            <path fill="none" stroke-width="3.0" stroke-linecap="butt" stroke-opacity="1.0" stroke="rgb(0, 0, 0)" stroke-linejoin="round" d=" M 72.264, 48.285 76.318, 51.826 80.942, 55.865 " />
            <path fill="none" stroke-width="3.0" stroke-linecap="butt" stroke-opacity="1.0" stroke="rgb(0, 0, 0)" stroke-linejoin="round" d=" M 35.804, 53.959 35.443, 55.516 " />
            <path fill="none" stroke-width="3.0" stroke-linecap="butt" stroke-opacity="1.0" stroke="rgb(0, 0, 0)" stroke-linejoin="round" d=" M 65.289, 49.960 65.461, 49.455 66.533, 49.899 " />
            <path fill="none" stroke-width="3.0" stroke-linecap="butt" stroke-opacity="1.0" stroke="rgb(0, 0, 0)" stroke-linejoin="round" d=" M 67.292, 187.677 62.962, 189.933 61.801, 190.538 " />
            <path fill="none" stroke-width="3.0" stroke-linecap="butt" stroke-opacity="1.0" stroke="rgb(0, 0, 0)" stroke-linejoin="round" d=" M 67.451, 69.923 64.213, 74.506 " />
        </g>
    </g>
</svg>
