<?xml version='1.0' encoding='ascii'?>
<svg xmlns="http://www.w3.org/2000/svg" version="1.1" width="250" height="250">
    <g id="ViewLayer_LineSet" xmlns:inkscape="http://www.inkscape.org/namespaces/inkscape" inkscape:groupmode="lineset" inkscape:label="ViewLayer_LineSet">
        <g xmlns:inkscape="http://www.inkscape.org/namespaces/inkscape" inkscape:groupmode="layer" id="strokes" inkscape:label="strokes">
            <path fill="none" stroke-width="3.0" stroke-linecap="butt" stroke-opacity="1.0" stroke="rgb(0, 0, 0)" stroke-linejoin="round" d=" M 145.871, 210.055 154.667, 205.885 158.121, 203.657 166.206, 197.772 166.805, 197.336 173.754, 190.144 174.426, 189.450 176.423, 186.574 176.692, 186.178 " />
            <path fill="none" stroke-width="3.0" stroke-linecap="butt" stroke-opacity="1.0" stroke="rgb(0, 0, 0)" stroke-linejoin="round" d=" M 59.458, 98.832 57.980, 100.689 53.746, 107.801 49.937, 116.471 49.341, 118.401 48.407, 121.425 48.303, 121.761 47.269, 125.109 46.017, 131.260 45.668, 135.345 45.472, 137.635 45.247, 142.135 45.476, 147.786 45.955, 152.288 46.816, 156.925 47.663, 160.879 47.940, 161.805 48.949, 165.185 50.613, 169.652 52.582, 174.088 54.771, 178.300 57.086, 182.103 59.427, 185.323 62.198, 189.003 62.359, 189.217 65.344, 192.495 " />
            <path fill="none" stroke-width="3.0" stroke-linecap="butt" stroke-opacity="1.0" stroke="rgb(0, 0, 0)" stroke-linejoin="round" d=" M 190.595, 129.546 188.841, 121.339 188.644, 120.830 " />
            <path fill="none" stroke-width="3.0" stroke-linecap="butt" stroke-opacity="1.0" stroke="rgb(0, 0, 0)" stroke-linejoin="round" d=" M 108.915, 214.777 112.598, 215.185 113.208, 215.253 117.718, 215.449 122.241, 215.354 125.241, 215.092 126.575, 214.976 130.530, 214.332 136.858, 212.923 141.901, 211.624 " />
            <path fill="none" stroke-width="3.0" stroke-linecap="butt" stroke-opacity="1.0" stroke="rgb(0, 0, 0)" stroke-linejoin="round" d=" M 77.110, 150.514 77.664, 151.915 79.028, 153.984 80.922, 155.644 83.118, 156.874 83.189, 156.889 85.159, 157.319 87.254, 157.248 89.628, 156.422 91.677, 155.095 93.226, 153.249 93.941, 151.933 " />
            <path fill="none" stroke-width="3.0" stroke-linecap="butt" stroke-opacity="1.0" stroke="rgb(0, 0, 0)" stroke-linejoin="round" d=" M 117.432, 101.331 117.682, 102.170 118.025, 103.322 118.477, 106.711 118.517, 110.535 118.533, 110.604 117.415, 119.020 117.406, 119.048 117.373, 119.162 116.188, 123.233 114.683, 127.523 112.928, 131.520 110.987, 135.031 108.927, 137.884 108.399, 138.397 108.013, 138.773 106.819, 139.935 104.733, 141.082 102.744, 141.265 101.454, 140.704 100.924, 140.473 99.346, 138.738 98.492, 136.985 98.240, 136.467 98.080, 136.140 97.187, 132.800 96.714, 128.878 96.692, 124.564 97.128, 120.063 97.985, 115.651 98.116, 115.197 98.160, 115.043 99.187, 111.489 100.708, 107.586 102.487, 104.086 104.455, 101.110 105.413, 100.031 " />
            <path fill="none" stroke-width="3.0" stroke-linecap="butt" stroke-opacity="1.0" stroke="rgb(0, 0, 0)" stroke-linejoin="round" d=" M 77.311, 118.980 76.333, 123.273 75.249, 127.382 74.231, 130.608 74.099, 131.024 74.074, 131.107 72.812, 134.259 71.472, 136.681 70.069, 138.254 68.910, 138.775 68.630, 138.901 67.219, 138.895 65.844, 137.359 64.636, 135.256 63.660, 132.396 62.998, 128.926 62.910, 127.712 62.876, 127.237 62.715, 125.019 62.853, 120.862 63.134, 118.772 63.411, 116.714 64.278, 112.716 65.396, 108.873 66.720, 105.321 67.288, 104.115 67.530, 103.602 68.198, 102.183 69.771, 99.566 70.635, 98.486 " />
            <path fill="none" stroke-width="3.0" stroke-linecap="butt" stroke-opacity="1.0" stroke="rgb(0, 0, 0)" stroke-linejoin="round" d=" M 67.219, 138.895 70.424, 140.287 " />
            <path fill="none" stroke-width="3.0" stroke-linecap="butt" stroke-opacity="1.0" stroke="rgb(0, 0, 0)" stroke-linejoin="round" d=" M 77.865, 98.262 77.875, 98.279 78.527, 100.584 78.887, 103.496 78.996, 106.983 78.828, 109.026 78.804, 109.318 78.687, 110.724 " />
            <path fill="none" stroke-width="3.0" stroke-linecap="butt" stroke-opacity="1.0" stroke="rgb(0, 0, 0)" stroke-linejoin="round" d=" M 80.418, 120.936 77.311, 118.980 77.364, 118.706 78.135, 114.776 78.687, 110.724 81.755, 112.773 " />
            <path fill="none" stroke-width="3.0" stroke-linecap="butt" stroke-opacity="1.0" stroke="rgb(0, 0, 0)" stroke-linejoin="round" d=" M 125.241, 215.092 125.323, 216.134 126.006, 218.739 127.938, 224.273 129.088, 226.608 132.905, 230.781 134.847, 232.297 139.471, 235.043 144.927, 236.537 149.800, 236.995 155.173, 236.393 162.006, 234.542 167.655, 232.018 173.193, 228.482 176.300, 224.995 177.855, 222.890 180.977, 217.893 184.941, 208.712 185.544, 207.315 186.443, 205.224 189.230, 195.620 189.403, 195.024 189.585, 192.701 189.714, 190.115 " />
            <path fill="none" stroke-width="3.0" stroke-linecap="butt" stroke-opacity="1.0" stroke="rgb(0, 0, 0)" stroke-linejoin="round" d=" M 62.198, 189.003 56.548, 193.130 52.992, 197.138 47.612, 203.084 44.611, 207.745 42.141, 212.312 40.788, 216.454 39.771, 219.787 39.090, 223.714 39.241, 227.263 40.207, 230.883 41.391, 234.623 44.612, 237.722 47.006, 239.898 51.709, 242.359 56.235, 243.675 61.267, 244.093 68.015, 243.873 71.967, 243.084 74.922, 242.412 78.558, 241.486 85.680, 239.118 88.304, 237.317 96.311, 231.714 103.540, 225.004 109.264, 219.248 111.708, 216.403 112.598, 215.185 " />
            <path fill="none" stroke-width="3.0" stroke-linecap="butt" stroke-opacity="1.0" stroke="rgb(0, 0, 0)" stroke-linejoin="round" d=" M 189.674, 129.157 188.392, 128.495 183.677, 126.058 " />
            <path fill="none" stroke-width="3.0" stroke-linecap="butt" stroke-opacity="1.0" stroke="rgb(0, 0, 0)" stroke-linejoin="round" d=" M 167.954, 179.852 172.864, 183.927 176.692, 186.178 177.069, 186.400 181.128, 188.135 183.848, 189.156 187.912, 190.093 189.714, 190.115 191.443, 190.136 194.551, 189.810 197.490, 189.256 199.893, 188.247 202.287, 187.201 204.630, 185.496 206.300, 184.249 208.594, 181.911 209.764, 180.296 211.493, 177.391 212.524, 174.490 213.294, 171.952 213.732, 168.777 213.895, 166.893 213.605, 162.829 212.563, 158.711 212.134, 157.254 210.425, 152.569 207.219, 146.846 203.694, 141.841 202.076, 139.738 201.739, 139.301 200.267, 137.389 196.621, 133.567 192.554, 130.481 190.595, 129.546 188.392, 128.495 " />
            <path fill="none" stroke-width="3.0" stroke-linecap="butt" stroke-opacity="1.0" stroke="rgb(0, 0, 0)" stroke-linejoin="round" d=" M 45.668, 135.345 45.220, 136.265 43.935, 139.408 43.186, 142.817 42.544, 147.261 42.710, 149.596 43.611, 154.489 44.165, 156.027 46.373, 159.913 46.978, 160.700 47.940, 161.805 " />
            <path fill="none" stroke-width="3.0" stroke-linecap="butt" stroke-opacity="1.0" stroke="rgb(0, 0, 0)" stroke-linejoin="round" d=" M 116.266, 71.023 119.314, 68.685 119.515, 68.531 119.673, 68.209 119.710, 68.134 121.367, 64.758 122.352, 62.169 122.333, 58.487 121.316, 55.816 119.411, 52.108 117.668, 50.835 " />
            <path fill="none" stroke-width="3.0" stroke-linecap="butt" stroke-opacity="1.0" stroke="rgb(0, 0, 0)" stroke-linejoin="round" d=" M 56.093, 54.328 55.998, 54.594 54.478, 58.890 52.839, 64.978 52.269, 72.825 52.559, 74.093 54.211, 79.377 56.701, 80.625 59.988, 81.387 61.593, 81.759 61.846, 81.818 65.730, 82.271 71.740, 81.213 77.305, 79.791 82.754, 77.617 82.823, 77.590 " />
            <path fill="none" stroke-width="3.0" stroke-linecap="butt" stroke-opacity="1.0" stroke="rgb(0, 0, 0)" stroke-linejoin="round" d=" M 33.807, 110.981 31.605, 106.440 32.786, 105.287 37.486, 100.698 41.850, 99.580 49.789, 97.548 53.179, 96.680 56.819, 96.550 59.059, 96.470 61.403, 96.386 71.397, 96.030 73.633, 95.950 75.935, 95.868 75.945, 95.868 79.966, 95.724 89.936, 96.501 99.905, 97.277 107.673, 97.882 113.686, 98.351 116.253, 98.799 116.308, 98.808 126.159, 100.528 136.010, 102.248 145.861, 103.968 147.681, 104.286 157.342, 106.867 167.004, 109.448 176.665, 112.030 177.097, 112.145 178.197, 112.600 178.822, 112.860 183.078, 114.622 " />
            <path fill="none" stroke-width="3.0" stroke-linecap="butt" stroke-opacity="1.0" stroke="rgb(0, 0, 0)" stroke-linejoin="round" d=" M 201.739, 139.301 206.678, 136.398 206.309, 130.022 200.074, 125.250 197.923, 123.603 " />
            <path fill="none" stroke-width="3.0" stroke-linecap="butt" stroke-opacity="1.0" stroke="rgb(0, 0, 0)" stroke-linejoin="round" d=" M 39.005, 107.082 40.874, 105.437 44.974, 101.830 54.737, 99.666 58.349, 98.866 " />
            <path fill="none" stroke-width="3.0" stroke-linecap="butt" stroke-opacity="1.0" stroke="rgb(0, 0, 0)" stroke-linejoin="round" d=" M 38.860, 115.880 47.138, 121.284 48.303, 121.761 " />
            <path fill="none" stroke-width="3.0" stroke-linecap="butt" stroke-opacity="1.0" stroke="rgb(0, 0, 0)" stroke-linejoin="round" d=" M 55.977, 98.939 46.217, 101.117 45.583, 101.259 41.089, 102.262 39.814, 102.546 33.805, 108.075 34.551, 109.657 " />
            <path fill="none" stroke-width="3.0" stroke-linecap="butt" stroke-opacity="1.0" stroke="rgb(0, 0, 0)" stroke-linejoin="round" d=" M 55.977, 98.939 58.349, 98.866 59.458, 98.832 59.493, 98.831 61.341, 98.773 70.635, 98.486 76.215, 98.313 77.865, 98.262 79.178, 98.221 81.512, 98.149 91.481, 98.934 101.450, 99.719 105.413, 100.031 110.239, 100.411 113.440, 100.663 117.432, 101.331 117.985, 101.423 127.848, 103.075 135.056, 104.281 144.919, 105.932 146.751, 106.239 156.420, 108.792 166.088, 111.346 175.706, 113.885 179.326, 115.365 184.393, 117.436 " />
            <path fill="none" stroke-width="3.0" stroke-linecap="butt" stroke-opacity="1.0" stroke="rgb(0, 0, 0)" stroke-linejoin="round" d=" M 41.014, 93.046 36.210, 96.966 33.042, 100.182 31.230, 103.035 30.060, 106.075 30.053, 108.545 30.517, 110.721 34.844, 114.872 37.524, 116.346 38.860, 115.880 38.883, 115.872 40.786, 115.207 42.045, 114.349 43.643, 113.259 45.228, 108.177 " />
            <path fill="none" stroke-width="3.0" stroke-linecap="butt" stroke-opacity="1.0" stroke="rgb(0, 0, 0)" stroke-linejoin="round" d=" M 33.248, 112.313 30.517, 110.721 " />
            <path fill="none" stroke-width="3.0" stroke-linecap="butt" stroke-opacity="1.0" stroke="rgb(0, 0, 0)" stroke-linejoin="round" d=" M 43.643, 113.259 39.913, 110.889 " />
            <path fill="none" stroke-width="3.0" stroke-linecap="butt" stroke-opacity="1.0" stroke="rgb(0, 0, 0)" stroke-linejoin="round" d=" M 40.794, 108.552 39.913, 110.889 36.491, 111.852 " />
            <path fill="none" stroke-width="3.0" stroke-linecap="butt" stroke-opacity="1.0" stroke="rgb(0, 0, 0)" stroke-linejoin="round" d=" M 57.453, 83.463 50.501, 86.779 42.157, 92.291 41.014, 93.046 47.273, 88.982 48.507, 88.312 57.299, 83.547 57.453, 83.463 59.074, 82.796 61.593, 81.759 " />
            <path fill="none" stroke-width="3.0" stroke-linecap="butt" stroke-opacity="1.0" stroke="rgb(0, 0, 0)" stroke-linejoin="round" d=" M 47.273, 88.982 49.644, 88.015 49.786, 87.957 53.211, 86.562 55.742, 85.531 57.675, 84.953 67.256, 82.090 67.368, 82.056 77.318, 81.052 78.470, 80.935 80.460, 80.734 81.798, 80.700 87.693, 80.548 88.912, 80.602 89.560, 80.631 " />
            <path fill="none" stroke-width="3.0" stroke-linecap="butt" stroke-opacity="1.0" stroke="rgb(0, 0, 0)" stroke-linejoin="round" d=" M 179.326, 115.365 180.004, 117.024 182.451, 118.181 183.021, 118.451 183.713, 118.743 188.644, 120.830 196.867, 124.311 197.005, 124.218 197.923, 123.603 198.718, 123.070 199.070, 122.835 199.323, 121.736 199.905, 119.202 197.003, 114.641 192.330, 110.118 190.507, 108.354 183.822, 103.535 182.950, 102.906 178.668, 99.725 177.664, 98.979 176.734, 98.289 171.741, 95.340 168.201, 93.248 161.114, 90.284 158.419, 89.156 157.021, 88.571 147.476, 85.588 144.313, 84.600 134.700, 81.846 131.522, 80.936 121.664, 79.255 118.665, 78.744 109.256, 77.208 107.477, 76.918 " />
            <path fill="none" stroke-width="3.0" stroke-linecap="butt" stroke-opacity="1.0" stroke="rgb(0, 0, 0)" stroke-linejoin="round" d=" M 102.789, 81.664 107.724, 82.175 111.443, 82.560 112.248, 82.758 121.961, 85.139 128.089, 86.643 137.693, 89.429 142.036, 90.689 142.488, 90.820 151.815, 94.427 155.325, 95.784 164.483, 99.799 166.473, 100.672 174.841, 104.740 181.292, 108.349 184.839, 111.008 186.364, 112.151 187.428, 113.833 187.780, 114.388 188.251, 115.133 188.461, 116.597 188.617, 117.688 187.662, 118.296 187.206, 118.585 186.082, 119.300 " />
            <path fill="none" stroke-width="3.0" stroke-linecap="butt" stroke-opacity="1.0" stroke="rgb(0, 0, 0)" stroke-linejoin="round" d=" M 99.114, 78.332 100.302, 76.633 102.909, 72.902 103.660, 70.326 103.976, 69.245 104.323, 68.051 104.559, 67.243 104.995, 65.748 105.247, 64.883 105.328, 64.606 105.864, 58.185 105.850, 56.028 105.844, 55.049 105.835, 53.627 105.834, 53.399 " />
            <path fill="none" stroke-width="3.0" stroke-linecap="butt" stroke-opacity="1.0" stroke="rgb(0, 0, 0)" stroke-linejoin="round" d=" M 76.872, 73.051 80.421, 75.385 83.049, 76.666 83.233, 76.755 84.319, 77.285 85.573, 77.896 93.091, 79.472 99.114, 78.332 99.150, 78.376 100.318, 79.777 101.982, 81.078 102.196, 81.146 103.434, 81.535 " />
            <path fill="none" stroke-width="3.0" stroke-linecap="butt" stroke-opacity="1.0" stroke="rgb(0, 0, 0)" stroke-linejoin="round" d=" M 54.211, 79.377 53.889, 78.008 " />
            <path fill="none" stroke-width="3.0" stroke-linecap="butt" stroke-opacity="1.0" stroke="rgb(0, 0, 0)" stroke-linejoin="round" d=" M 79.894, 75.887 77.629, 74.360 76.872, 73.051 72.527, 75.352 66.650, 77.767 61.744, 78.680 59.025, 79.186 53.889, 78.008 52.269, 72.825 " />
            <path fill="none" stroke-width="3.0" stroke-linecap="butt" stroke-opacity="1.0" stroke="rgb(0, 0, 0)" stroke-linejoin="round" d=" M 110.667, 60.779 110.900, 60.453 110.961, 60.366 111.197, 60.035 114.182, 55.844 114.495, 55.393 117.668, 50.835 118.859, 49.124 122.528, 43.471 122.850, 42.288 124.070, 37.811 124.121, 34.650 122.937, 32.400 119.458, 28.129 114.184, 25.676 111.249, 24.559 105.512, 23.437 103.085, 23.172 101.127, 22.957 " />
            <path fill="none" stroke-width="3.0" stroke-linecap="butt" stroke-opacity="1.0" stroke="rgb(0, 0, 0)" stroke-linejoin="round" d=" M 55.998, 54.594 53.315, 50.768 50.323, 45.692 48.901, 40.273 49.371, 34.754 53.724, 30.537 60.763, 26.994 66.455, 25.378 70.768, 24.488 73.359, 20.486 77.249, 15.293 83.328, 9.501 88.736, 6.807 93.350, 8.843 97.619, 14.073 99.838, 19.041 101.127, 22.957 " />
            <path fill="none" stroke-width="3.0" stroke-linecap="butt" stroke-opacity="1.0" stroke="rgb(0, 0, 0)" stroke-linejoin="round" d=" M 108.966, 56.483 107.697, 54.995 107.172, 54.379 105.908, 53.453 105.834, 53.399 105.986, 53.267 106.802, 52.560 110.361, 49.478 110.983, 48.834 115.813, 43.841 116.567, 42.664 119.651, 37.848 121.327, 31.853 117.922, 27.664 111.249, 24.559 " />
            <path fill="none" stroke-width="3.0" stroke-linecap="butt" stroke-opacity="1.0" stroke="rgb(0, 0, 0)" stroke-linejoin="round" d=" M 103.085, 23.172 102.167, 20.819 99.684, 15.983 98.260, 13.695 94.379, 8.949 89.676, 6.876 88.736, 6.807 " />
            <path fill="none" stroke-width="3.0" stroke-linecap="butt" stroke-opacity="1.0" stroke="rgb(0, 0, 0)" stroke-linejoin="round" d=" M 53.315, 50.768 56.093, 54.328 " />
            <path fill="none" stroke-width="3.0" stroke-linecap="butt" stroke-opacity="1.0" stroke="rgb(0, 0, 0)" stroke-linejoin="round" d=" M 191.355, 105.261 188.456, 95.690 186.348, 88.728 185.344, 87.657 184.136, 83.311 179.291, 74.563 178.027, 72.282 171.500, 64.706 170.385, 63.411 164.706, 57.922 156.752, 51.862 156.394, 51.590 149.176, 47.744 142.914, 45.572 138.137, 44.016 137.096, 43.677 130.649, 42.526 126.592, 42.351 124.294, 42.252 122.850, 42.288 " />
            <path fill="none" stroke-width="3.0" stroke-linecap="butt" stroke-opacity="1.0" stroke="rgb(0, 0, 0)" stroke-linejoin="round" d=" M 79.894, 75.887 81.700, 76.937 82.772, 77.560 82.823, 77.590 83.345, 77.893 84.568, 78.604 84.768, 78.721 87.727, 79.900 89.411, 80.571 89.560, 80.631 90.113, 80.851 90.790, 81.121 93.713, 81.753 97.844, 82.646 101.093, 82.001 102.789, 81.664 103.434, 81.535 103.636, 81.247 104.373, 80.193 106.684, 76.886 107.179, 76.178 107.375, 75.897 108.687, 71.994 108.818, 71.604 109.228, 69.456 109.485, 68.104 109.593, 67.539 110.236, 64.166 110.667, 60.779 110.747, 60.155 110.773, 59.949 110.850, 59.348 110.886, 59.061 " />
            <path fill="none" stroke-width="3.0" stroke-linecap="butt" stroke-opacity="1.0" stroke="rgb(0, 0, 0)" stroke-linejoin="round" d=" M 186.682, 102.276 183.063, 99.248 174.845, 95.538 166.790, 91.901 161.114, 90.284 " />
            <path fill="none" stroke-width="3.0" stroke-linecap="butt" stroke-opacity="1.0" stroke="rgb(0, 0, 0)" stroke-linejoin="round" d=" M 121.262, 68.225 119.710, 68.134 " />
            <path fill="none" stroke-width="3.0" stroke-linecap="butt" stroke-opacity="1.0" stroke="rgb(0, 0, 0)" stroke-linejoin="round" d=" M 121.262, 68.225 130.530, 69.682 132.327, 69.965 142.206, 71.518 145.028, 71.962 " />
            <path fill="none" stroke-width="3.0" stroke-linecap="butt" stroke-opacity="1.0" stroke="rgb(0, 0, 0)" stroke-linejoin="round" d=" M 138.137, 44.016 137.558, 43.237 134.222, 41.848 130.165, 41.397 126.998, 42.063 126.592, 42.351 " />
            <path fill="none" stroke-width="3.0" stroke-linecap="butt" stroke-opacity="1.0" stroke="rgb(0, 0, 0)" stroke-linejoin="round" d=" M 202.076, 139.738 208.927, 135.748 209.793, 132.041 209.635, 125.173 205.807, 119.676 200.031, 112.571 192.384, 106.128 191.355, 105.261 190.482, 104.525 186.682, 102.276 185.052, 101.312 176.392, 97.426 171.741, 95.340 " />
            <path fill="none" stroke-width="3.0" stroke-linecap="butt" stroke-opacity="1.0" stroke="rgb(0, 0, 0)" stroke-linejoin="round" d=" M 199.323, 121.736 207.196, 127.902 208.706, 129.084 208.927, 135.748 " />
            <path fill="none" stroke-width="3.0" stroke-linecap="butt" stroke-opacity="1.0" stroke="rgb(0, 0, 0)" stroke-linejoin="round" d=" M 44.388, 92.035 43.567, 92.656 38.104, 96.723 32.042, 102.783 31.605, 106.440 " />
            <path fill="none" stroke-width="3.0" stroke-linecap="butt" stroke-opacity="1.0" stroke="rgb(0, 0, 0)" stroke-linejoin="round" d=" M 209.635, 125.173 201.876, 118.864 199.368, 116.826 " />
            <path fill="none" stroke-width="3.0" stroke-linecap="butt" stroke-opacity="1.0" stroke="rgb(0, 0, 0)" stroke-linejoin="round" d=" M 59.988, 81.387 59.074, 82.796 " />
            <path fill="none" stroke-width="3.0" stroke-linecap="butt" stroke-opacity="1.0" stroke="rgb(0, 0, 0)" stroke-linejoin="round" d=" M 107.257, 76.909 107.500, 76.090 108.718, 71.993 " />
            <path fill="none" stroke-width="3.0" stroke-linecap="butt" stroke-opacity="1.0" stroke="rgb(0, 0, 0)" stroke-linejoin="round" d=" M 108.687, 71.994 108.718, 71.993 110.885, 71.926 " />
            <path fill="none" stroke-width="3.0" stroke-linecap="butt" stroke-opacity="1.0" stroke="rgb(0, 0, 0)" stroke-linejoin="round" d=" M 197.005, 124.218 201.595, 127.695 " />
        </g>
    </g>
</svg>
