<?xml version='1.0' encoding='ascii'?>
<svg xmlns="http://www.w3.org/2000/svg" version="1.1" width="250" height="250">
    <g id="ViewLayer_LineSet" xmlns:inkscape="http://www.inkscape.org/namespaces/inkscape" inkscape:groupmode="lineset" inkscape:label="ViewLayer_LineSet">
        <g xmlns:inkscape="http://www.inkscape.org/namespaces/inkscape" inkscape:groupmode="layer" id="strokes" inkscape:label="strokes">
            <path fill="none" stroke-width="3.0" stroke-linecap="butt" stroke-opacity="1.0" stroke="rgb(0, 0, 0)" stroke-linejoin="round" d=" M 59.844, 95.189 59.344, 95.818 57.965, 97.552 53.728, 104.681 49.916, 113.367 49.224, 115.605 48.291, 118.622 48.192, 118.940 47.381, 121.565 47.246, 122.001 45.992, 128.127 45.447, 134.477 45.222, 139.029 45.451, 144.646 45.931, 149.186 46.792, 153.782 47.639, 157.759 48.927, 162.081 50.592, 166.558 51.348, 168.261 52.562, 170.996 54.753, 175.202 57.070, 178.993 59.413, 182.193 62.348, 186.130 65.335, 189.375 66.853, 190.896 69.450, 193.497 73.964, 196.987 78.080, 200.158 84.050, 203.746 89.790, 206.371 93.603, 207.991 98.516, 209.371 105.049, 210.999 106.801, 211.322 " />
            <path fill="none" stroke-width="3.0" stroke-linecap="butt" stroke-opacity="1.0" stroke="rgb(0, 0, 0)" stroke-linejoin="round" d=" M 190.033, 123.349 188.931, 118.188 188.549, 117.202 " />
            <path fill="none" stroke-width="3.0" stroke-linecap="butt" stroke-opacity="1.0" stroke="rgb(0, 0, 0)" stroke-linejoin="round" d=" M 173.789, 187.078 174.504, 186.335 176.501, 183.543 180.935, 177.022 " />
            <path fill="none" stroke-width="3.0" stroke-linecap="butt" stroke-opacity="1.0" stroke="rgb(0, 0, 0)" stroke-linejoin="round" d=" M 77.110, 146.956 77.665, 148.356 79.030, 150.422 79.953, 151.228 80.926, 152.077 83.123, 153.299 85.167, 153.736 87.263, 153.658 89.639, 152.823 91.691, 151.486 93.241, 149.632 93.957, 148.313 " />
            <path fill="none" stroke-width="3.0" stroke-linecap="butt" stroke-opacity="1.0" stroke="rgb(0, 0, 0)" stroke-linejoin="round" d=" M 117.415, 97.494 118.056, 99.638 118.063, 99.662 118.516, 103.044 118.556, 106.860 118.572, 106.930 117.453, 115.331 117.135, 116.418 117.097, 116.550 116.225, 119.536 114.719, 123.822 112.963, 127.817 111.019, 131.330 108.958, 134.185 107.356, 135.744 106.982, 136.108 106.847, 136.239 104.760, 137.390 102.768, 137.577 101.431, 136.997 100.947, 136.787 99.367, 135.054 99.155, 134.620 98.910, 134.116 98.100, 132.458 97.206, 129.120 96.733, 125.201 96.711, 120.891 97.147, 116.395 97.896, 112.544 97.931, 112.368 98.004, 111.990 99.208, 107.834 100.730, 103.938 102.511, 100.442 104.481, 97.471 105.585, 96.228 " />
            <path fill="none" stroke-width="3.0" stroke-linecap="butt" stroke-opacity="1.0" stroke="rgb(0, 0, 0)" stroke-linejoin="round" d=" M 77.311, 115.382 76.597, 118.512 76.332, 119.670 75.248, 123.778 74.071, 127.505 73.901, 127.931 73.743, 128.324 72.808, 130.662 71.467, 133.092 70.063, 134.672 68.870, 135.216 68.623, 135.329 67.210, 135.333 65.833, 133.806 64.624, 131.713 63.648, 128.863 62.985, 125.403 62.962, 125.079 62.928, 124.619 62.702, 121.505 62.840, 117.358 63.105, 115.395 63.399, 113.219 64.267, 109.228 65.386, 105.391 66.711, 101.843 67.014, 101.202 67.268, 100.662 68.190, 98.707 69.764, 96.089 70.807, 94.784 " />
            <path fill="none" stroke-width="3.0" stroke-linecap="butt" stroke-opacity="1.0" stroke="rgb(0, 0, 0)" stroke-linejoin="round" d=" M 67.210, 135.333 70.418, 136.772 " />
            <path fill="none" stroke-width="3.0" stroke-linecap="butt" stroke-opacity="1.0" stroke="rgb(0, 0, 0)" stroke-linejoin="round" d=" M 77.748, 94.528 77.875, 94.750 78.528, 97.042 78.889, 99.941 78.998, 103.416 78.759, 106.296 78.733, 106.613 78.689, 107.145 " />
            <path fill="none" stroke-width="3.0" stroke-linecap="butt" stroke-opacity="1.0" stroke="rgb(0, 0, 0)" stroke-linejoin="round" d=" M 80.421, 117.386 77.311, 115.382 78.136, 111.186 78.689, 107.145 81.759, 109.242 " />
            <path fill="none" stroke-width="3.0" stroke-linecap="butt" stroke-opacity="1.0" stroke="rgb(0, 0, 0)" stroke-linejoin="round" d=" M 107.234, 210.000 106.801, 211.322 104.925, 217.053 103.907, 221.114 103.660, 224.933 103.751, 225.928 103.976, 228.403 104.265, 231.358 105.247, 234.819 107.375, 238.112 110.300, 241.203 114.611, 243.667 120.268, 245.195 125.659, 246.038 131.975, 246.167 134.280, 246.080 142.473, 245.690 149.920, 244.372 150.762, 244.251 156.437, 243.143 160.230, 241.365 167.365, 234.342 173.242, 226.251 173.491, 225.908 177.484, 217.860 178.936, 214.693 179.426, 211.364 180.528, 204.660 180.206, 200.904 177.387, 191.897 174.799, 188.208 173.789, 187.078 " />
            <path fill="none" stroke-width="3.0" stroke-linecap="butt" stroke-opacity="1.0" stroke="rgb(0, 0, 0)" stroke-linejoin="round" d=" M 66.853, 190.896 65.424, 193.246 63.693, 197.284 61.332, 203.154 60.509, 206.791 60.126, 211.221 59.907, 214.653 60.394, 217.598 62.081, 222.083 63.261, 224.957 66.619, 228.351 70.999, 231.053 73.508, 231.972 77.777, 233.235 82.386, 233.478 88.463, 232.869 94.552, 230.946 101.156, 227.720 103.751, 225.928 " />
            <path fill="none" stroke-width="3.0" stroke-linecap="butt" stroke-opacity="1.0" stroke="rgb(0, 0, 0)" stroke-linejoin="round" d=" M 178.862, 175.883 180.935, 177.022 184.926, 179.216 189.756, 180.940 194.292, 181.962 198.845, 182.267 202.701, 181.801 206.211, 180.839 209.379, 179.344 212.262, 177.360 214.814, 174.974 215.381, 174.367 217.457, 171.489 219.047, 168.389 220.096, 164.964 220.529, 161.307 220.378, 157.422 219.328, 152.970 217.486, 148.659 214.814, 144.157 214.601, 143.814 210.407, 138.680 206.233, 134.385 205.850, 133.992 205.794, 133.940 201.393, 129.922 196.921, 126.714 196.704, 126.592 192.009, 124.122 191.627, 123.957 190.033, 123.349 " />
            <path fill="none" stroke-width="3.0" stroke-linecap="butt" stroke-opacity="1.0" stroke="rgb(0, 0, 0)" stroke-linejoin="round" d=" M 47.381, 121.565 43.770, 124.369 40.414, 127.752 37.017, 131.573 33.835, 135.954 32.116, 139.540 31.219, 141.621 30.205, 144.781 29.778, 147.893 29.776, 149.428 29.909, 151.644 30.326, 153.595 30.716, 154.944 31.765, 157.744 33.530, 160.742 35.736, 163.165 38.083, 165.016 39.632, 165.988 40.228, 166.305 42.099, 167.162 46.531, 168.368 49.730, 168.497 51.348, 168.261 " />
            <path fill="none" stroke-width="3.0" stroke-linecap="butt" stroke-opacity="1.0" stroke="rgb(0, 0, 0)" stroke-linejoin="round" d=" M 118.698, 65.603 119.553, 64.941 119.700, 64.639 119.738, 64.561 121.407, 61.138 122.394, 58.565 122.374, 54.874 121.357, 52.177 119.450, 48.483 117.597, 47.141 " />
            <path fill="none" stroke-width="3.0" stroke-linecap="butt" stroke-opacity="1.0" stroke="rgb(0, 0, 0)" stroke-linejoin="round" d=" M 56.073, 50.560 55.974, 50.838 54.457, 55.119 52.816, 61.201 52.246, 69.035 52.536, 70.320 54.189, 75.587 56.681, 76.873 60.346, 77.705 61.831, 78.042 62.286, 78.101 65.719, 78.543 71.735, 77.467 77.305, 76.035 82.846, 73.811 82.909, 73.786 " />
            <path fill="none" stroke-width="3.0" stroke-linecap="butt" stroke-opacity="1.0" stroke="rgb(0, 0, 0)" stroke-linejoin="round" d=" M 33.782, 107.952 31.568, 103.249 32.749, 102.051 37.452, 97.283 42.091, 96.033 50.179, 93.854 53.157, 93.051 56.032, 92.931 58.912, 92.811 61.831, 92.689 71.823, 92.271 74.344, 92.166 74.716, 92.151 79.969, 91.931 89.940, 92.685 99.912, 93.439 107.959, 94.047 113.722, 94.483 116.156, 94.910 116.179, 94.914 126.029, 96.643 135.878, 98.372 145.728, 100.101 147.750, 100.456 157.402, 103.073 167.053, 105.690 176.704, 108.308 177.192, 108.440 178.225, 108.877 178.360, 108.934 183.162, 110.966 " />
            <path fill="none" stroke-width="3.0" stroke-linecap="butt" stroke-opacity="1.0" stroke="rgb(0, 0, 0)" stroke-linejoin="round" d=" M 205.794, 133.940 206.780, 133.338 206.418, 126.745 199.978, 121.680 198.008, 120.130 " />
            <path fill="none" stroke-width="3.0" stroke-linecap="butt" stroke-opacity="1.0" stroke="rgb(0, 0, 0)" stroke-linejoin="round" d=" M 44.947, 98.454 54.684, 96.178 58.684, 95.243 58.739, 95.230 " />
            <path fill="none" stroke-width="3.0" stroke-linecap="butt" stroke-opacity="1.0" stroke="rgb(0, 0, 0)" stroke-linejoin="round" d=" M 38.802, 112.931 45.636, 117.508 47.116, 118.490 48.192, 118.940 " />
            <path fill="none" stroke-width="3.0" stroke-linecap="butt" stroke-opacity="1.0" stroke="rgb(0, 0, 0)" stroke-linejoin="round" d=" M 55.958, 95.333 46.224, 97.626 45.765, 97.734 41.084, 98.837 39.782, 99.144 33.770, 104.893 34.536, 106.568 " />
            <path fill="none" stroke-width="3.0" stroke-linecap="butt" stroke-opacity="1.0" stroke="rgb(0, 0, 0)" stroke-linejoin="round" d=" M 55.958, 95.333 58.672, 95.232 58.739, 95.230 59.844, 95.189 60.548, 95.163 70.541, 94.794 70.807, 94.784 76.990, 94.556 77.748, 94.528 78.801, 94.489 78.823, 94.488 81.516, 94.388 91.487, 95.150 101.458, 95.913 105.585, 96.228 110.571, 96.609 113.476, 96.831 117.415, 97.494 117.819, 97.562 117.862, 97.569 127.724, 99.227 137.585, 100.884 146.819, 102.436 146.842, 102.443 156.502, 105.032 166.161, 107.621 175.798, 110.204 179.379, 111.699 185.008, 114.049 " />
            <path fill="none" stroke-width="3.0" stroke-linecap="butt" stroke-opacity="1.0" stroke="rgb(0, 0, 0)" stroke-linejoin="round" d=" M 57.437, 80.139 49.178, 84.543 47.749, 85.305 47.247, 85.572 40.984, 89.714 36.177, 93.703 33.007, 96.972 31.193, 99.871 30.022, 102.951 30.016, 105.440 30.480, 107.627 34.813, 111.907 37.495, 113.387 38.802, 112.931 38.812, 112.928 40.759, 112.249 41.940, 111.443 43.617, 110.297 45.204, 105.196 " />
            <path fill="none" stroke-width="3.0" stroke-linecap="butt" stroke-opacity="1.0" stroke="rgb(0, 0, 0)" stroke-linejoin="round" d=" M 33.213, 109.223 30.480, 107.627 " />
            <path fill="none" stroke-width="3.0" stroke-linecap="butt" stroke-opacity="1.0" stroke="rgb(0, 0, 0)" stroke-linejoin="round" d=" M 43.617, 110.297 39.884, 107.798 " />
            <path fill="none" stroke-width="3.0" stroke-linecap="butt" stroke-opacity="1.0" stroke="rgb(0, 0, 0)" stroke-linejoin="round" d=" M 40.720, 105.576 39.884, 107.798 36.459, 108.761 " />
            <path fill="none" stroke-width="3.0" stroke-linecap="butt" stroke-opacity="1.0" stroke="rgb(0, 0, 0)" stroke-linejoin="round" d=" M 62.286, 78.101 59.261, 79.372 57.437, 80.139 50.479, 83.525 47.749, 85.305 " />
            <path fill="none" stroke-width="3.0" stroke-linecap="butt" stroke-opacity="1.0" stroke="rgb(0, 0, 0)" stroke-linejoin="round" d=" M 47.247, 85.572 47.500, 85.467 49.987, 84.431 50.250, 84.322 52.598, 83.344 55.724, 82.042 57.972, 81.354 67.360, 78.481 77.303, 77.419 79.371, 77.199 80.463, 77.082 81.840, 77.041 87.703, 76.865 89.813, 76.951 90.128, 76.964 " />
            <path fill="none" stroke-width="3.0" stroke-linecap="butt" stroke-opacity="1.0" stroke="rgb(0, 0, 0)" stroke-linejoin="round" d=" M 179.379, 111.699 180.098, 113.457 183.118, 114.861 183.486, 115.019 184.815, 115.592 188.549, 117.202 196.973, 120.834 197.025, 120.799 198.008, 120.130 198.711, 119.652 199.179, 119.333 199.428, 118.246 200.016, 115.683 197.111, 111.102 192.334, 106.472 190.610, 104.801 183.047, 99.332 180.742, 97.615 179.551, 96.727 176.844, 94.710 176.825, 94.696 172.569, 92.173 168.284, 89.633 161.917, 86.962 157.095, 84.938 156.570, 84.774 147.025, 81.791 144.375, 80.962 134.761, 78.211 131.572, 77.299 121.712, 75.628 118.704, 75.118 109.296, 73.599 107.504, 73.310 " />
            <path fill="none" stroke-width="3.0" stroke-linecap="butt" stroke-opacity="1.0" stroke="rgb(0, 0, 0)" stroke-linejoin="round" d=" M 102.320, 77.888 107.794, 78.442 111.475, 78.815 113.269, 79.253 122.985, 81.622 128.138, 82.879 137.743, 85.662 142.551, 87.055 143.095, 87.266 152.420, 90.878 155.399, 92.032 164.554, 96.057 166.558, 96.938 174.933, 101.026 181.390, 104.658 184.605, 107.081 186.466, 108.484 187.671, 110.397 188.141, 111.143 188.355, 111.483 188.654, 113.585 188.721, 114.052 187.607, 114.769 187.263, 114.991 186.183, 115.687 " />
            <path fill="none" stroke-width="3.0" stroke-linecap="butt" stroke-opacity="1.0" stroke="rgb(0, 0, 0)" stroke-linejoin="round" d=" M 99.136, 74.337 100.045, 73.037 102.935, 68.901 103.416, 67.256 103.881, 65.662 104.210, 64.537 104.456, 63.695 104.894, 62.195 105.270, 60.907 105.357, 60.612 105.893, 54.202 105.883, 52.540 105.875, 51.426 105.866, 49.915 105.862, 49.425 " />
            <path fill="none" stroke-width="3.0" stroke-linecap="butt" stroke-opacity="1.0" stroke="rgb(0, 0, 0)" stroke-linejoin="round" d=" M 76.872, 69.158 80.424, 71.472 83.164, 72.793 84.029, 73.210 85.131, 73.740 85.582, 73.957 93.107, 75.499 99.136, 74.337 99.771, 75.105 100.342, 75.796 102.007, 77.141 103.268, 77.589 103.460, 77.657 " />
            <path fill="none" stroke-width="3.0" stroke-linecap="butt" stroke-opacity="1.0" stroke="rgb(0, 0, 0)" stroke-linejoin="round" d=" M 54.189, 75.587 53.867, 74.200 " />
            <path fill="none" stroke-width="3.0" stroke-linecap="butt" stroke-opacity="1.0" stroke="rgb(0, 0, 0)" stroke-linejoin="round" d=" M 79.897, 72.054 77.629, 70.483 76.872, 69.158 72.522, 71.472 66.640, 73.907 62.278, 74.734 59.008, 75.354 53.867, 74.200 52.246, 69.035 " />
            <path fill="none" stroke-width="3.0" stroke-linecap="butt" stroke-opacity="1.0" stroke="rgb(0, 0, 0)" stroke-linejoin="round" d=" M 110.690, 57.011 110.867, 56.762 110.884, 56.738 111.146, 56.369 114.217, 52.049 114.462, 51.695 117.597, 47.141 118.900, 45.249 122.572, 39.586 122.685, 39.173 124.116, 33.930 124.167, 30.713 122.983, 28.420 119.500, 24.172 114.220, 21.746 111.283, 20.621 105.540, 19.526 103.077, 19.267 101.151, 19.065 " />
            <path fill="none" stroke-width="3.0" stroke-linecap="butt" stroke-opacity="1.0" stroke="rgb(0, 0, 0)" stroke-linejoin="round" d=" M 53.293, 47.019 52.553, 45.771 50.298, 41.966 48.875, 36.564 49.346, 31.055 53.703, 26.828 60.748, 23.263 66.445, 21.627 70.763, 20.720 73.356, 16.716 77.249, 11.517 83.334, 5.712 88.747, 3.001 93.365, 5.013 97.639, 10.214 99.860, 15.163 101.151, 19.065 " />
            <path fill="none" stroke-width="3.0" stroke-linecap="butt" stroke-opacity="1.0" stroke="rgb(0, 0, 0)" stroke-linejoin="round" d=" M 108.997, 52.574 107.459, 50.729 107.202, 50.421 106.022, 49.544 105.862, 49.425 106.194, 49.137 106.640, 48.750 110.394, 45.493 110.691, 45.186 115.852, 39.845 116.036, 39.558 119.694, 33.848 121.371, 27.858 117.963, 23.692 111.283, 20.621 " />
            <path fill="none" stroke-width="3.0" stroke-linecap="butt" stroke-opacity="1.0" stroke="rgb(0, 0, 0)" stroke-linejoin="round" d=" M 52.553, 45.771 52.578, 45.823 53.293, 47.019 55.974, 50.838 " />
            <path fill="none" stroke-width="3.0" stroke-linecap="butt" stroke-opacity="1.0" stroke="rgb(0, 0, 0)" stroke-linejoin="round" d=" M 103.077, 19.267 102.191, 17.005 99.705, 12.185 98.280, 9.856 94.395, 5.137 89.688, 3.087 88.747, 3.001 " />
            <path fill="none" stroke-width="3.0" stroke-linecap="butt" stroke-opacity="1.0" stroke="rgb(0, 0, 0)" stroke-linejoin="round" d=" M 53.293, 47.019 56.073, 50.560 " />
            <path fill="none" stroke-width="3.0" stroke-linecap="butt" stroke-opacity="1.0" stroke="rgb(0, 0, 0)" stroke-linejoin="round" d=" M 191.358, 101.765 188.451, 92.197 186.436, 85.565 185.430, 84.498 184.221, 80.162 179.361, 71.422 178.107, 69.166 171.561, 61.606 170.457, 60.331 164.776, 54.748 156.788, 48.731 156.456, 48.481 149.233, 44.581 142.965, 42.495 138.051, 40.879 137.143, 40.580 130.690, 39.425 126.800, 39.264 124.331, 39.162 122.685, 39.173 " />
            <path fill="none" stroke-width="3.0" stroke-linecap="butt" stroke-opacity="1.0" stroke="rgb(0, 0, 0)" stroke-linejoin="round" d=" M 79.897, 72.054 82.137, 73.342 82.863, 73.760 82.909, 73.786 83.909, 74.361 84.675, 74.802 84.776, 74.860 88.491, 76.320 90.054, 76.934 90.128, 76.964 90.803, 77.229 91.347, 77.368 92.255, 77.600 94.886, 78.158 97.865, 78.790 99.912, 78.375 102.320, 77.888 103.460, 77.657 103.497, 77.604 104.205, 76.592 106.513, 73.294 106.527, 73.274 107.405, 72.018 108.629, 68.385 108.849, 67.732 109.122, 66.308 109.454, 64.572 109.566, 63.984 110.269, 60.310 110.690, 57.011 110.738, 56.636 110.778, 56.318 110.848, 55.774 110.919, 55.215 " />
            <path fill="none" stroke-width="3.0" stroke-linecap="butt" stroke-opacity="1.0" stroke="rgb(0, 0, 0)" stroke-linejoin="round" d=" M 186.390, 98.648 183.154, 95.879 174.565, 91.929 166.870, 88.391 161.917, 86.962 " />
            <path fill="none" stroke-width="3.0" stroke-linecap="butt" stroke-opacity="1.0" stroke="rgb(0, 0, 0)" stroke-linejoin="round" d=" M 121.302, 64.650 119.738, 64.561 " />
            <path fill="none" stroke-width="3.0" stroke-linecap="butt" stroke-opacity="1.0" stroke="rgb(0, 0, 0)" stroke-linejoin="round" d=" M 121.302, 64.650 131.179, 66.216 141.055, 67.783 145.088, 68.422 " />
            <path fill="none" stroke-width="3.0" stroke-linecap="butt" stroke-opacity="1.0" stroke="rgb(0, 0, 0)" stroke-linejoin="round" d=" M 138.051, 40.879 137.603, 40.267 134.265, 38.861 130.205, 38.413 127.036, 39.098 126.800, 39.264 " />
            <path fill="none" stroke-width="3.0" stroke-linecap="butt" stroke-opacity="1.0" stroke="rgb(0, 0, 0)" stroke-linejoin="round" d=" M 206.233, 134.385 209.031, 132.690 209.897, 128.983 209.746, 121.892 205.914, 116.414 200.132, 109.336 192.561, 102.803 191.358, 101.765 190.581, 101.095 186.390, 98.648 185.145, 97.921 176.080, 93.778 172.569, 92.173 " />
            <path fill="none" stroke-width="3.0" stroke-linecap="butt" stroke-opacity="1.0" stroke="rgb(0, 0, 0)" stroke-linejoin="round" d=" M 199.428, 118.246 207.219, 124.516 208.816, 125.801 209.031, 132.690 " />
            <path fill="none" stroke-width="3.0" stroke-linecap="butt" stroke-opacity="1.0" stroke="rgb(0, 0, 0)" stroke-linejoin="round" d=" M 44.751, 88.364 43.538, 89.275 38.071, 93.315 32.006, 99.602 31.568, 103.249 " />
            <path fill="none" stroke-width="3.0" stroke-linecap="butt" stroke-opacity="1.0" stroke="rgb(0, 0, 0)" stroke-linejoin="round" d=" M 209.746, 121.892 202.069, 115.484 199.477, 113.321 " />
            <path fill="none" stroke-width="3.0" stroke-linecap="butt" stroke-opacity="1.0" stroke="rgb(0, 0, 0)" stroke-linejoin="round" d=" M 38.812, 112.928 47.116, 118.490 " />
            <path fill="none" stroke-width="3.0" stroke-linecap="butt" stroke-opacity="1.0" stroke="rgb(0, 0, 0)" stroke-linejoin="round" d=" M 60.346, 77.705 59.261, 79.372 " />
            <path fill="none" stroke-width="3.0" stroke-linecap="butt" stroke-opacity="1.0" stroke="rgb(0, 0, 0)" stroke-linejoin="round" d=" M 107.283, 73.302 107.352, 73.068 108.752, 68.384 " />
            <path fill="none" stroke-width="3.0" stroke-linecap="butt" stroke-opacity="1.0" stroke="rgb(0, 0, 0)" stroke-linejoin="round" d=" M 108.629, 68.385 108.752, 68.384 110.921, 68.359 " />
            <path fill="none" stroke-width="3.0" stroke-linecap="butt" stroke-opacity="1.0" stroke="rgb(0, 0, 0)" stroke-linejoin="round" d=" M 197.025, 120.799 201.699, 124.435 " />
        </g>
    </g>
</svg>
