<?xml version='1.0' encoding='ascii'?>
<svg xmlns="http://www.w3.org/2000/svg" version="1.1" width="250" height="250">
    <g id="ViewLayer_LineSet" xmlns:inkscape="http://www.inkscape.org/namespaces/inkscape" inkscape:groupmode="lineset" inkscape:label="ViewLayer_LineSet">
        <g xmlns:inkscape="http://www.inkscape.org/namespaces/inkscape" inkscape:groupmode="layer" id="strokes" inkscape:label="strokes">
            <path fill="none" stroke-width="3.0" stroke-linecap="butt" stroke-opacity="1.0" stroke="rgb(0, 0, 0)" stroke-linejoin="round" d=" M 169.627, 194.717 174.645, 189.529 180.277, 181.266 180.967, 180.254 182.395, 178.018 " />
            <path fill="none" stroke-width="3.0" stroke-linecap="butt" stroke-opacity="1.0" stroke="rgb(0, 0, 0)" stroke-linejoin="round" d=" M 59.408, 99.166 59.334, 99.258 57.981, 100.958 53.721, 108.084 49.895, 116.775 49.248, 118.883 48.322, 121.906 48.222, 122.234 47.965, 123.072 47.241, 125.434 46.038, 131.603 45.545, 137.995 45.250, 142.501 45.545, 148.166 45.981, 152.675 46.919, 157.324 47.744, 161.282 49.020, 165.593 50.688, 170.065 51.963, 172.917 52.672, 174.504 54.888, 178.719 57.242, 182.525 59.630, 185.745 62.514, 189.633 65.568, 192.911 69.645, 196.986 74.120, 200.425 74.642, 200.824 78.338, 203.647 84.289, 207.194 89.999, 209.770 93.878, 211.419 98.846, 212.816 102.600, 213.706 " />
            <path fill="none" stroke-width="3.0" stroke-linecap="butt" stroke-opacity="1.0" stroke="rgb(0, 0, 0)" stroke-linejoin="round" d=" M 189.756, 125.500 188.902, 121.506 188.603, 120.735 " />
            <path fill="none" stroke-width="3.0" stroke-linecap="butt" stroke-opacity="1.0" stroke="rgb(0, 0, 0)" stroke-linejoin="round" d=" M 77.943, 150.878 78.504, 152.280 79.027, 153.065 79.881, 154.349 81.793, 156.008 84.008, 157.235 86.067, 157.677 88.178, 157.603 90.568, 156.772 92.632, 155.440 94.191, 153.590 94.910, 152.272 " />
            <path fill="none" stroke-width="3.0" stroke-linecap="butt" stroke-opacity="1.0" stroke="rgb(0, 0, 0)" stroke-linejoin="round" d=" M 118.331, 101.588 118.640, 102.606 118.946, 103.609 119.418, 106.999 119.481, 110.825 119.496, 110.894 118.422, 119.313 118.366, 119.509 118.333, 119.625 117.218, 123.529 115.731, 127.822 113.988, 131.823 112.054, 135.338 109.996, 138.195 109.304, 138.869 108.919, 139.243 107.886, 140.250 105.797, 141.400 103.800, 141.587 102.365, 140.966 101.972, 140.796 100.385, 139.063 99.683, 137.635 99.430, 137.122 99.107, 136.465 98.201, 133.124 97.713, 129.199 97.674, 124.881 98.090, 120.376 98.926, 115.960 98.977, 115.783 99.022, 115.624 100.109, 111.793 101.612, 107.886 103.376, 104.381 105.332, 101.403 106.289, 100.317 " />
            <path fill="none" stroke-width="3.0" stroke-linecap="butt" stroke-opacity="1.0" stroke="rgb(0, 0, 0)" stroke-linejoin="round" d=" M 78.124, 119.306 77.163, 123.606 76.947, 124.432 76.089, 127.723 74.966, 131.297 74.916, 131.454 74.817, 131.702 73.652, 134.612 72.304, 137.039 70.888, 138.615 69.632, 139.176 69.432, 139.265 68.001, 139.261 66.602, 137.722 65.370, 135.617 64.369, 132.753 63.681, 129.277 63.610, 128.385 63.573, 127.915 63.372, 125.363 63.485, 121.198 63.779, 118.915 64.020, 117.041 64.867, 113.034 65.970, 109.183 67.283, 105.624 67.671, 104.797 67.919, 104.266 68.755, 102.480 70.328, 99.858 71.169, 98.807 " />
            <path fill="none" stroke-width="3.0" stroke-linecap="butt" stroke-opacity="1.0" stroke="rgb(0, 0, 0)" stroke-linejoin="round" d=" M 68.001, 139.261 71.145, 140.644 " />
            <path fill="none" stroke-width="3.0" stroke-linecap="butt" stroke-opacity="1.0" stroke="rgb(0, 0, 0)" stroke-linejoin="round" d=" M 78.532, 98.582 79.209, 100.879 79.598, 103.796 79.736, 107.290 79.555, 109.701 79.532, 110.004 79.455, 111.037 " />
            <path fill="none" stroke-width="3.0" stroke-linecap="butt" stroke-opacity="1.0" stroke="rgb(0, 0, 0)" stroke-linejoin="round" d=" M 81.169, 121.256 78.124, 119.306 78.927, 115.095 79.455, 111.037 82.460, 113.081 " />
            <path fill="none" stroke-width="3.0" stroke-linecap="butt" stroke-opacity="1.0" stroke="rgb(0, 0, 0)" stroke-linejoin="round" d=" M 178.170, 223.164 179.028, 221.669 180.197, 217.827 180.398, 213.390 179.469, 208.646 176.857, 202.873 173.175, 197.749 169.627, 194.717 " />
            <path fill="none" stroke-width="3.0" stroke-linecap="butt" stroke-opacity="1.0" stroke="rgb(0, 0, 0)" stroke-linejoin="round" d=" M 107.975, 200.577 105.255, 204.572 103.564, 208.542 102.683, 212.424 102.600, 213.706 102.449, 216.027 103.024, 219.838 104.592, 223.728 107.179, 226.625 110.503, 228.715 110.949, 228.996 116.538, 231.035 123.290, 232.748 129.077, 233.795 135.501, 234.613 138.248, 234.894 143.808, 235.234 150.049, 235.416 152.840, 235.153 156.049, 234.828 159.071, 234.318 164.326, 233.238 168.311, 231.987 172.530, 230.286 176.481, 226.290 178.170, 223.164 178.422, 222.698 " />
            <path fill="none" stroke-width="3.0" stroke-linecap="butt" stroke-opacity="1.0" stroke="rgb(0, 0, 0)" stroke-linejoin="round" d=" M 74.642, 200.824 74.636, 200.842 73.500, 205.210 72.340, 208.820 71.879, 212.237 71.683, 215.118 71.809, 218.187 72.629, 221.310 74.377, 224.487 76.626, 226.739 79.487, 228.958 83.970, 230.989 88.114, 232.048 92.569, 232.343 98.401, 232.082 104.242, 230.768 106.951, 229.979 110.503, 228.715 " />
            <path fill="none" stroke-width="3.0" stroke-linecap="butt" stroke-opacity="1.0" stroke="rgb(0, 0, 0)" stroke-linejoin="round" d=" M 182.395, 178.018 187.999, 180.653 192.522, 181.973 196.702, 182.626 200.817, 182.579 204.256, 181.841 205.317, 181.499 207.901, 180.578 210.391, 179.216 213.066, 177.218 215.515, 174.747 217.544, 171.680 218.939, 168.622 219.721, 165.917 220.220, 162.021 220.150, 158.559 219.236, 154.604 217.613, 150.739 215.245, 146.692 214.209, 145.010 210.119, 139.957 207.049, 136.830 206.558, 136.330 205.875, 135.635 201.672, 131.874 197.207, 128.810 192.334, 126.412 189.756, 125.500 " />
            <path fill="none" stroke-width="3.0" stroke-linecap="butt" stroke-opacity="1.0" stroke="rgb(0, 0, 0)" stroke-linejoin="round" d=" M 47.965, 123.072 45.334, 124.440 41.211, 127.392 37.335, 130.987 33.419, 135.112 29.658, 139.917 27.410, 143.862 25.889, 147.640 25.571, 148.847 24.726, 152.560 24.672, 155.787 25.113, 158.818 26.085, 161.712 27.543, 164.497 27.593, 164.581 29.569, 167.346 31.923, 169.541 34.482, 171.287 37.094, 172.591 40.102, 173.547 43.396, 174.075 47.304, 173.938 51.239, 173.157 51.963, 172.917 " />
            <path fill="none" stroke-width="3.0" stroke-linecap="butt" stroke-opacity="1.0" stroke="rgb(0, 0, 0)" stroke-linejoin="round" d=" M 116.957, 71.295 120.064, 68.941 120.241, 68.807 120.403, 68.483 120.440, 68.409 122.129, 65.037 123.084, 62.447 123.068, 58.765 122.085, 56.096 120.149, 52.385 118.636, 51.288 " />
            <path fill="none" stroke-width="3.0" stroke-linecap="butt" stroke-opacity="1.0" stroke="rgb(0, 0, 0)" stroke-linejoin="round" d=" M 56.929, 54.565 56.827, 54.858 55.325, 59.136 53.704, 65.235 53.174, 73.100 53.442, 74.369 55.140, 79.666 57.585, 80.913 60.005, 81.470 62.070, 81.945 62.787, 82.110 66.611, 82.560 71.919, 81.633 72.665, 81.502 74.822, 80.953 78.255, 80.079 83.307, 78.075 83.616, 77.952 83.868, 77.853 " />
            <path fill="none" stroke-width="3.0" stroke-linecap="butt" stroke-opacity="1.0" stroke="rgb(0, 0, 0)" stroke-linejoin="round" d=" M 33.508, 111.101 31.584, 106.742 32.722, 105.695 37.825, 101.002 41.589, 100.063 49.567, 98.071 53.904, 96.989 56.627, 96.893 58.822, 96.816 61.350, 96.727 71.344, 96.376 74.106, 96.279 76.592, 96.192 76.598, 96.192 81.023, 96.036 90.993, 96.808 100.963, 97.579 108.545, 98.166 114.911, 98.659 117.120, 99.043 117.151, 99.049 127.002, 100.766 136.854, 102.482 146.705, 104.199 148.846, 104.572 158.505, 107.160 168.164, 109.748 178.022, 112.390 178.876, 112.747 179.256, 112.906 183.880, 114.842 186.146, 115.791 " />
            <path fill="none" stroke-width="3.0" stroke-linecap="butt" stroke-opacity="1.0" stroke="rgb(0, 0, 0)" stroke-linejoin="round" d=" M 206.558, 136.330 206.508, 130.161 200.034, 125.057 198.443, 123.803 " />
            <path fill="none" stroke-width="3.0" stroke-linecap="butt" stroke-opacity="1.0" stroke="rgb(0, 0, 0)" stroke-linejoin="round" d=" M 38.991, 107.378 40.643, 106.002 45.291, 102.130 55.064, 100.013 58.904, 99.182 " />
            <path fill="none" stroke-width="3.0" stroke-linecap="butt" stroke-opacity="1.0" stroke="rgb(0, 0, 0)" stroke-linejoin="round" d=" M 38.516, 116.188 45.120, 120.583 46.617, 121.572 48.222, 122.234 " />
            <path fill="none" stroke-width="3.0" stroke-linecap="butt" stroke-opacity="1.0" stroke="rgb(0, 0, 0)" stroke-linejoin="round" d=" M 56.684, 99.249 46.914, 101.379 45.355, 101.718 40.908, 102.687 40.149, 102.853 33.786, 108.379 34.487, 110.020 " />
            <path fill="none" stroke-width="3.0" stroke-linecap="butt" stroke-opacity="1.0" stroke="rgb(0, 0, 0)" stroke-linejoin="round" d=" M 56.684, 99.249 58.904, 99.182 59.235, 99.171 59.408, 99.166 61.126, 99.114 71.169, 98.807 76.623, 98.641 78.532, 98.582 79.783, 98.544 82.529, 98.460 92.499, 99.240 102.468, 100.019 106.289, 100.317 111.017, 100.687 114.615, 100.968 118.331, 101.588 118.752, 101.659 128.615, 103.305 136.495, 104.621 146.359, 106.268 147.880, 106.522 157.547, 109.081 167.214, 111.640 176.603, 114.126 180.020, 115.537 184.363, 117.331 " />
            <path fill="none" stroke-width="3.0" stroke-linecap="butt" stroke-opacity="1.0" stroke="rgb(0, 0, 0)" stroke-linejoin="round" d=" M 41.223, 93.323 36.301, 97.247 33.043, 100.468 31.158, 103.325 29.929, 106.371 29.897, 108.845 30.353, 111.027 34.514, 115.172 37.201, 116.647 38.516, 116.188 38.523, 116.185 40.474, 115.503 41.663, 114.693 43.344, 113.547 44.956, 108.455 " />
            <path fill="none" stroke-width="3.0" stroke-linecap="butt" stroke-opacity="1.0" stroke="rgb(0, 0, 0)" stroke-linejoin="round" d=" M 33.096, 112.620 30.353, 111.027 " />
            <path fill="none" stroke-width="3.0" stroke-linecap="butt" stroke-opacity="1.0" stroke="rgb(0, 0, 0)" stroke-linejoin="round" d=" M 43.344, 113.547 39.792, 111.187 " />
            <path fill="none" stroke-width="3.0" stroke-linecap="butt" stroke-opacity="1.0" stroke="rgb(0, 0, 0)" stroke-linejoin="round" d=" M 40.696, 108.807 39.792, 111.187 36.356, 112.155 " />
            <path fill="none" stroke-width="3.0" stroke-linecap="butt" stroke-opacity="1.0" stroke="rgb(0, 0, 0)" stroke-linejoin="round" d=" M 57.695, 83.716 50.617, 87.033 42.308, 92.597 41.223, 93.323 47.618, 89.255 47.786, 89.163 56.549, 84.346 57.695, 83.716 58.861, 83.244 62.070, 81.945 " />
            <path fill="none" stroke-width="3.0" stroke-linecap="butt" stroke-opacity="1.0" stroke="rgb(0, 0, 0)" stroke-linejoin="round" d=" M 47.618, 89.255 49.472, 88.512 49.915, 88.335 53.961, 86.714 56.234, 85.803 57.442, 85.448 67.034, 82.622 68.023, 82.331 77.974, 81.342 78.278, 81.311 81.264, 81.015 82.430, 80.985 88.559, 80.832 89.615, 80.878 90.723, 80.927 " />
            <path fill="none" stroke-width="3.0" stroke-linecap="butt" stroke-opacity="1.0" stroke="rgb(0, 0, 0)" stroke-linejoin="round" d=" M 180.020, 115.537 180.720, 117.246 182.675, 118.159 183.767, 118.669 183.886, 118.720 188.603, 120.735 197.400, 124.493 197.446, 124.462 198.443, 123.803 199.010, 123.428 199.628, 123.019 199.880, 121.943 200.476, 119.395 197.605, 114.849 192.192, 109.599 191.142, 108.581 183.632, 103.149 180.910, 101.121 179.832, 100.317 177.453, 98.544 176.973, 98.260 172.915, 95.855 168.966, 93.516 162.149, 90.659 157.827, 88.848 157.538, 88.758 147.994, 85.774 145.138, 84.881 135.525, 82.128 132.349, 81.219 122.491, 79.538 119.472, 79.024 109.978, 77.476 108.246, 77.194 " />
            <path fill="none" stroke-width="3.0" stroke-linecap="butt" stroke-opacity="1.0" stroke="rgb(0, 0, 0)" stroke-linejoin="round" d=" M 103.941, 81.973 108.493, 82.444 112.437, 82.852 113.254, 83.052 122.968, 85.429 129.124, 86.936 138.729, 89.720 143.382, 91.069 143.525, 91.110 152.852, 94.718 156.334, 96.066 165.491, 100.085 167.442, 100.942 175.767, 104.998 182.171, 108.595 184.565, 110.399 187.199, 112.385 188.214, 114.006 188.268, 114.093 189.060, 115.358 189.138, 115.919 189.411, 117.907 187.963, 118.817 187.880, 118.869 186.853, 119.515 " />
            <path fill="none" stroke-width="3.0" stroke-linecap="butt" stroke-opacity="1.0" stroke="rgb(0, 0, 0)" stroke-linejoin="round" d=" M 100.467, 78.644 100.813, 78.148 101.663, 76.931 104.259, 73.212 105.126, 70.198 105.317, 69.536 105.667, 68.321 105.889, 67.547 106.332, 66.009 106.341, 65.978 106.648, 64.911 106.791, 63.085 107.151, 58.486 107.135, 57.161 107.125, 56.350 107.112, 55.306 107.093, 53.697 " />
            <path fill="none" stroke-width="3.0" stroke-linecap="butt" stroke-opacity="1.0" stroke="rgb(0, 0, 0)" stroke-linejoin="round" d=" M 78.013, 73.343 81.606, 75.683 83.720, 76.704 84.339, 77.003 84.805, 77.229 86.816, 78.200 94.404, 79.782 95.940, 79.494 100.467, 78.644 101.654, 80.089 103.257, 81.387 103.474, 81.459 104.623, 81.839 " />
            <path fill="none" stroke-width="3.0" stroke-linecap="butt" stroke-opacity="1.0" stroke="rgb(0, 0, 0)" stroke-linejoin="round" d=" M 55.140, 79.666 54.840, 78.295 " />
            <path fill="none" stroke-width="3.0" stroke-linecap="butt" stroke-opacity="1.0" stroke="rgb(0, 0, 0)" stroke-linejoin="round" d=" M 80.958, 76.178 78.750, 74.652 78.013, 73.343 73.642, 75.645 67.725, 78.061 61.457, 79.216 60.034, 79.478 54.840, 78.295 53.174, 73.100 " />
            <path fill="none" stroke-width="3.0" stroke-linecap="butt" stroke-opacity="1.0" stroke="rgb(0, 0, 0)" stroke-linejoin="round" d=" M 111.784, 60.890 111.948, 60.661 115.182, 56.132 115.244, 56.046 118.636, 51.288 119.965, 49.423 123.633, 43.774 123.979, 42.487 125.155, 38.115 125.281, 34.959 124.156, 32.711 120.631, 28.432 115.308, 25.968 112.381, 24.846 106.597, 23.712 104.028, 23.427 102.177, 23.222 " />
            <path fill="none" stroke-width="3.0" stroke-linecap="butt" stroke-opacity="1.0" stroke="rgb(0, 0, 0)" stroke-linejoin="round" d=" M 54.103, 50.994 53.236, 49.548 51.051, 45.902 49.582, 40.468 50.026, 34.937 54.400, 30.718 61.488, 27.181 67.225, 25.573 71.574, 24.691 74.166, 20.688 78.060, 15.494 84.159, 9.709 89.597, 7.024 94.259, 9.075 98.591, 14.321 100.856, 19.300 102.177, 23.222 " />
            <path fill="none" stroke-width="3.0" stroke-linecap="butt" stroke-opacity="1.0" stroke="rgb(0, 0, 0)" stroke-linejoin="round" d=" M 110.138, 56.778 108.411, 54.677 107.986, 54.360 107.093, 53.697 107.593, 53.265 111.629, 49.779 112.235, 49.154 117.086, 44.146 117.986, 42.739 120.915, 38.158 122.567, 32.163 119.116, 27.967 112.381, 24.846 " />
            <path fill="none" stroke-width="3.0" stroke-linecap="butt" stroke-opacity="1.0" stroke="rgb(0, 0, 0)" stroke-linejoin="round" d=" M 53.236, 49.548 53.342, 49.766 54.103, 50.994 56.827, 54.858 " />
            <path fill="none" stroke-width="3.0" stroke-linecap="butt" stroke-opacity="1.0" stroke="rgb(0, 0, 0)" stroke-linejoin="round" d=" M 104.028, 23.427 103.096, 21.077 100.573, 16.231 99.203, 13.942 95.265, 9.182 90.512, 7.094 89.597, 7.024 " />
            <path fill="none" stroke-width="3.0" stroke-linecap="butt" stroke-opacity="1.0" stroke="rgb(0, 0, 0)" stroke-linejoin="round" d=" M 54.103, 50.994 56.929, 54.565 " />
            <path fill="none" stroke-width="3.0" stroke-linecap="butt" stroke-opacity="1.0" stroke="rgb(0, 0, 0)" stroke-linejoin="round" d=" M 191.333, 105.105 188.389, 95.548 186.359, 88.956 185.349, 87.886 184.121, 83.547 179.237, 74.821 177.956, 72.532 171.402, 64.980 170.262, 63.667 164.727, 58.190 156.743, 52.169 156.320, 51.851 149.186, 48.006 142.799, 45.820 137.805, 44.182 137.011, 43.922 130.572, 42.764 126.310, 42.575 124.202, 42.481 123.979, 42.487 " />
            <path fill="none" stroke-width="3.0" stroke-linecap="butt" stroke-opacity="1.0" stroke="rgb(0, 0, 0)" stroke-linejoin="round" d=" M 80.958, 76.178 82.622, 77.135 83.447, 77.610 83.819, 77.825 83.868, 77.853 85.208, 78.624 85.893, 79.018 88.746, 80.146 90.467, 80.826 90.723, 80.927 90.734, 80.932 91.980, 81.424 93.336, 81.726 94.639, 82.007 98.996, 82.948 102.254, 82.306 103.941, 81.973 104.623, 81.839 104.821, 81.554 105.557, 80.498 107.869, 77.179 108.155, 76.767 108.552, 76.198 108.620, 75.992 109.857, 72.255 109.974, 71.902 110.400, 69.599 110.626, 68.375 110.719, 67.868 110.726, 67.834 111.349, 64.460 111.715, 61.459 111.784, 60.898 111.784, 60.890 111.839, 60.440 111.972, 59.354 " />
            <path fill="none" stroke-width="3.0" stroke-linecap="butt" stroke-opacity="1.0" stroke="rgb(0, 0, 0)" stroke-linejoin="round" d=" M 186.633, 102.236 183.425, 99.479 174.710, 95.500 167.395, 92.160 162.149, 90.659 " />
            <path fill="none" stroke-width="3.0" stroke-linecap="butt" stroke-opacity="1.0" stroke="rgb(0, 0, 0)" stroke-linejoin="round" d=" M 121.966, 68.500 120.440, 68.409 " />
            <path fill="none" stroke-width="3.0" stroke-linecap="butt" stroke-opacity="1.0" stroke="rgb(0, 0, 0)" stroke-linejoin="round" d=" M 121.966, 68.500 131.843, 70.059 141.721, 71.618 145.671, 72.242 " />
            <path fill="none" stroke-width="3.0" stroke-linecap="butt" stroke-opacity="1.0" stroke="rgb(0, 0, 0)" stroke-linejoin="round" d=" M 137.805, 44.182 137.282, 43.471 133.970, 42.079 129.911, 41.624 126.717, 42.283 126.310, 42.575 " />
            <path fill="none" stroke-width="3.0" stroke-linecap="butt" stroke-opacity="1.0" stroke="rgb(0, 0, 0)" stroke-linejoin="round" d=" M 207.049, 136.830 208.792, 135.849 209.645, 132.150 209.810, 125.319 205.960, 119.838 200.153, 112.753 192.598, 106.202 191.333, 105.105 190.921, 104.748 186.633, 102.236 185.444, 101.540 176.337, 97.408 176.238, 97.363 172.915, 95.855 " />
            <path fill="none" stroke-width="3.0" stroke-linecap="butt" stroke-opacity="1.0" stroke="rgb(0, 0, 0)" stroke-linejoin="round" d=" M 199.880, 121.943 207.661, 128.223 208.899, 129.222 208.792, 135.849 " />
            <path fill="none" stroke-width="3.0" stroke-linecap="butt" stroke-opacity="1.0" stroke="rgb(0, 0, 0)" stroke-linejoin="round" d=" M 43.862, 92.936 43.816, 92.971 38.426, 97.017 32.001, 103.075 31.584, 106.742 " />
            <path fill="none" stroke-width="3.0" stroke-linecap="butt" stroke-opacity="1.0" stroke="rgb(0, 0, 0)" stroke-linejoin="round" d=" M 209.810, 125.319 202.147, 118.895 199.914, 117.023 " />
            <path fill="none" stroke-width="3.0" stroke-linecap="butt" stroke-opacity="1.0" stroke="rgb(0, 0, 0)" stroke-linejoin="round" d=" M 38.523, 116.185 46.617, 121.572 " />
            <path fill="none" stroke-width="3.0" stroke-linecap="butt" stroke-opacity="1.0" stroke="rgb(0, 0, 0)" stroke-linejoin="round" d=" M 60.005, 81.470 58.861, 83.244 " />
            <path fill="none" stroke-width="3.0" stroke-linecap="butt" stroke-opacity="1.0" stroke="rgb(0, 0, 0)" stroke-linejoin="round" d=" M 108.035, 77.186 108.155, 76.767 " />
            <path fill="none" stroke-width="3.0" stroke-linecap="butt" stroke-opacity="1.0" stroke="rgb(0, 0, 0)" stroke-linejoin="round" d=" M 109.857, 72.255 111.556, 72.198 " />
            <path fill="none" stroke-width="3.0" stroke-linecap="butt" stroke-opacity="1.0" stroke="rgb(0, 0, 0)" stroke-linejoin="round" d=" M 197.446, 124.462 201.785, 127.844 " />
        </g>
    </g>
</svg>
