<?xml version='1.0' encoding='ascii'?>
<svg xmlns="http://www.w3.org/2000/svg" version="1.1" width="250" height="250">
    <g id="ViewLayer_LineSet" xmlns:inkscape="http://www.inkscape.org/namespaces/inkscape" inkscape:groupmode="lineset" inkscape:label="ViewLayer_LineSet">
        <g xmlns:inkscape="http://www.inkscape.org/namespaces/inkscape" inkscape:groupmode="layer" id="strokes" inkscape:label="strokes">
            <path fill="none" stroke-width="3.0" stroke-linecap="butt" stroke-opacity="1.0" stroke="rgb(0, 0, 0)" stroke-linejoin="round" d=" M 59.578, 97.698 59.432, 97.881 57.976, 99.712 53.740, 106.829 49.930, 115.504 49.305, 117.530 48.371, 120.552 48.269, 120.883 47.262, 124.141 46.960, 125.621 46.009, 130.284 45.464, 136.651 45.239, 141.167 45.468, 146.808 45.948, 151.322 46.809, 155.946 47.656, 159.907 48.942, 164.218 50.607, 168.689 50.686, 168.867 52.576, 173.125 54.765, 177.335 57.081, 181.134 59.423, 184.348 62.356, 188.255 65.341, 191.523 65.591, 191.772 69.454, 195.620 72.900, 198.310 78.080, 202.294 84.046, 205.866 " />
            <path fill="none" stroke-width="3.0" stroke-linecap="butt" stroke-opacity="1.0" stroke="rgb(0, 0, 0)" stroke-linejoin="round" d=" M 190.140, 126.307 188.869, 120.357 188.614, 119.701 " />
            <path fill="none" stroke-width="3.0" stroke-linecap="butt" stroke-opacity="1.0" stroke="rgb(0, 0, 0)" stroke-linejoin="round" d=" M 176.447, 185.630 179.595, 181.006 " />
            <path fill="none" stroke-width="3.0" stroke-linecap="butt" stroke-opacity="1.0" stroke="rgb(0, 0, 0)" stroke-linejoin="round" d=" M 93.594, 210.117 98.503, 211.519 105.034, 213.096 108.923, 213.823 113.218, 214.296 115.404, 214.391 " />
            <path fill="none" stroke-width="3.0" stroke-linecap="butt" stroke-opacity="1.0" stroke="rgb(0, 0, 0)" stroke-linejoin="round" d=" M 77.110, 149.406 77.665, 150.806 79.028, 152.875 80.685, 154.324 80.923, 154.533 83.119, 155.760 85.161, 156.203 87.257, 156.130 89.631, 155.301 91.681, 153.971 93.231, 152.123 93.946, 150.806 " />
            <path fill="none" stroke-width="3.0" stroke-linecap="butt" stroke-opacity="1.0" stroke="rgb(0, 0, 0)" stroke-linejoin="round" d=" M 117.427, 100.136 117.798, 101.381 118.037, 102.182 118.489, 105.569 118.529, 109.390 118.545, 109.460 117.426, 117.871 117.322, 118.229 117.287, 118.348 116.200, 122.081 114.695, 126.370 112.939, 130.367 110.997, 133.878 108.937, 136.732 108.074, 137.571 107.692, 137.943 106.827, 138.784 104.741, 139.932 102.751, 140.116 101.447, 139.549 100.931, 139.325 99.353, 137.591 98.698, 136.248 98.448, 135.734 98.087, 134.993 97.193, 131.654 96.720, 127.733 96.698, 123.420 97.134, 118.920 97.991, 114.511 98.032, 114.367 98.079, 114.207 99.194, 110.350 100.715, 106.450 102.495, 102.951 104.463, 99.977 105.466, 98.846 " />
            <path fill="none" stroke-width="3.0" stroke-linecap="butt" stroke-opacity="1.0" stroke="rgb(0, 0, 0)" stroke-linejoin="round" d=" M 77.311, 117.859 76.933, 119.518 76.333, 122.151 75.249, 126.260 74.138, 129.778 74.073, 129.985 73.993, 130.185 72.811, 133.139 71.471, 135.563 70.067, 137.138 68.898, 137.667 68.628, 137.789 67.216, 137.786 65.840, 136.252 64.632, 134.152 63.657, 131.296 62.994, 127.829 62.926, 126.892 62.892, 126.422 62.711, 123.924 62.849, 119.771 63.182, 117.298 63.408, 115.625 64.274, 111.629 65.393, 107.788 66.718, 104.238 67.203, 103.208 67.448, 102.687 68.195, 101.100 69.769, 98.483 70.688, 97.333 " />
            <path fill="none" stroke-width="3.0" stroke-linecap="butt" stroke-opacity="1.0" stroke="rgb(0, 0, 0)" stroke-linejoin="round" d=" M 67.216, 137.786 70.422, 139.192 " />
            <path fill="none" stroke-width="3.0" stroke-linecap="butt" stroke-opacity="1.0" stroke="rgb(0, 0, 0)" stroke-linejoin="round" d=" M 77.829, 97.098 77.875, 97.180 78.528, 99.480 78.888, 102.389 78.997, 105.872 78.806, 108.175 78.782, 108.476 78.688, 109.609 " />
            <path fill="none" stroke-width="3.0" stroke-linecap="butt" stroke-opacity="1.0" stroke="rgb(0, 0, 0)" stroke-linejoin="round" d=" M 80.419, 119.830 77.311, 117.859 78.135, 113.657 78.688, 109.609 81.756, 111.673 " />
            <path fill="none" stroke-width="3.0" stroke-linecap="butt" stroke-opacity="1.0" stroke="rgb(0, 0, 0)" stroke-linejoin="round" d=" M 115.404, 214.391 115.311, 216.365 115.311, 216.368 115.675, 219.571 116.787, 222.810 118.350, 226.135 120.128, 228.969 123.998, 232.116 128.826, 234.501 134.678, 235.897 139.961, 236.563 145.858, 236.458 153.410, 235.525 159.677, 234.122 165.848, 232.012 169.272, 230.205 174.739, 223.846 180.224, 216.001 183.751, 208.494 185.108, 205.537 185.562, 202.437 186.420, 196.161 186.115, 192.663 183.329, 184.246 182.153, 182.582 " />
            <path fill="none" stroke-width="3.0" stroke-linecap="butt" stroke-opacity="1.0" stroke="rgb(0, 0, 0)" stroke-linejoin="round" d=" M 65.591, 191.772 64.037, 193.747 59.812, 202.049 58.326, 205.871 56.256, 209.815 54.794, 213.754 54.167, 216.161 53.364, 219.887 53.329, 223.332 54.051, 226.889 55.448, 229.793 57.866, 232.664 60.647, 234.811 65.233, 236.878 69.589, 238.019 74.383, 238.442 80.755, 238.412 84.209, 238.336 90.435, 237.084 93.305, 236.530 97.052, 235.376 99.638, 233.624 107.258, 227.149 108.776, 225.859 110.005, 224.154 115.311, 216.368 " />
            <path fill="none" stroke-width="3.0" stroke-linecap="butt" stroke-opacity="1.0" stroke="rgb(0, 0, 0)" stroke-linejoin="round" d=" M 176.183, 178.870 179.595, 181.006 182.026, 182.528 182.153, 182.582 186.754, 184.516 191.243, 185.787 195.805, 186.334 199.705, 186.061 203.256, 185.261 204.667, 184.704 207.855, 183.320 210.667, 181.428 213.170, 179.110 213.972, 178.123 215.972, 175.321 217.531, 172.218 218.581, 168.841 219.056, 165.183 218.988, 161.235 218.035, 156.709 216.357, 152.310 213.927, 147.727 209.695, 142.165 205.332, 137.380 205.051, 137.100 204.630, 136.683 201.122, 133.201 196.698, 129.751 191.892, 127.005 190.140, 126.307 " />
            <path fill="none" stroke-width="3.0" stroke-linecap="butt" stroke-opacity="1.0" stroke="rgb(0, 0, 0)" stroke-linejoin="round" d=" M 46.960, 125.621 44.631, 127.943 41.862, 131.212 39.103, 134.799 36.706, 138.813 35.526, 142.056 34.905, 144.228 34.278, 146.956 34.137, 149.512 34.226, 151.836 34.994, 155.374 35.512, 156.774 37.084, 160.219 39.342, 163.055 41.874, 165.281 43.771, 166.578 45.428, 167.398 46.963, 167.978 49.859, 168.777 50.686, 168.867 " />
            <path fill="none" stroke-width="3.0" stroke-linecap="butt" stroke-opacity="1.0" stroke="rgb(0, 0, 0)" stroke-linejoin="round" d=" M 119.120, 67.726 119.527, 67.413 119.682, 67.097 119.719, 67.021 121.379, 63.631 122.365, 61.046 122.346, 57.362 121.329, 54.683 119.423, 50.979 117.646, 49.684 " />
            <path fill="none" stroke-width="3.0" stroke-linecap="butt" stroke-opacity="1.0" stroke="rgb(0, 0, 0)" stroke-linejoin="round" d=" M 56.087, 53.154 55.991, 53.424 54.472, 57.716 52.831, 63.801 52.262, 71.645 52.552, 72.918 54.204, 78.197 56.695, 79.456 60.099, 80.240 61.788, 80.629 61.841, 80.642 65.726, 81.110 71.739, 80.046 77.305, 78.621 82.783, 76.432 82.850, 76.405 " />
            <path fill="none" stroke-width="3.0" stroke-linecap="butt" stroke-opacity="1.0" stroke="rgb(0, 0, 0)" stroke-linejoin="round" d=" M 33.799, 110.037 31.593, 105.446 32.774, 104.279 37.475, 99.634 41.925, 98.476 49.931, 96.393 53.172, 95.550 56.570, 95.422 59.013, 95.330 61.536, 95.235 71.529, 94.860 73.854, 94.772 75.834, 94.698 75.836, 94.698 79.967, 94.543 89.937, 95.312 99.907, 96.082 107.762, 96.688 113.698, 97.146 116.223, 97.587 116.267, 97.595 126.118, 99.318 135.968, 101.041 145.819, 102.764 147.703, 103.093 157.361, 105.686 167.019, 108.278 176.677, 110.870 177.127, 110.991 178.206, 111.441 178.690, 111.643 183.104, 113.483 " />
            <path fill="none" stroke-width="3.0" stroke-linecap="butt" stroke-opacity="1.0" stroke="rgb(0, 0, 0)" stroke-linejoin="round" d=" M 204.630, 136.683 206.710, 135.445 206.343, 129.001 200.045, 124.140 197.949, 122.521 " />
            <path fill="none" stroke-width="3.0" stroke-linecap="butt" stroke-opacity="1.0" stroke="rgb(0, 0, 0)" stroke-linejoin="round" d=" M 44.965, 100.778 54.721, 98.579 58.473, 97.734 " />
            <path fill="none" stroke-width="3.0" stroke-linecap="butt" stroke-opacity="1.0" stroke="rgb(0, 0, 0)" stroke-linejoin="round" d=" M 38.845, 114.960 47.131, 120.414 48.269, 120.883 " />
            <path fill="none" stroke-width="3.0" stroke-linecap="butt" stroke-opacity="1.0" stroke="rgb(0, 0, 0)" stroke-linejoin="round" d=" M 55.971, 97.816 46.219, 100.030 45.672, 100.154 41.087, 101.195 39.804, 101.486 33.794, 107.084 34.546, 108.695 " />
            <path fill="none" stroke-width="3.0" stroke-linecap="butt" stroke-opacity="1.0" stroke="rgb(0, 0, 0)" stroke-linejoin="round" d=" M 55.971, 97.816 58.473, 97.734 59.232, 97.709 59.578, 97.698 61.089, 97.648 70.688, 97.333 76.456, 97.143 77.829, 97.098 79.068, 97.058 81.513, 96.977 91.483, 97.755 101.453, 98.533 105.466, 98.846 110.343, 99.227 113.451, 99.469 117.427, 100.136 117.949, 100.223 127.812, 101.876 137.674, 103.530 139.203, 103.786 146.772, 105.055 156.438, 107.619 166.104, 110.184 175.735, 112.739 179.343, 114.223 184.588, 116.381 " />
            <path fill="none" stroke-width="3.0" stroke-linecap="butt" stroke-opacity="1.0" stroke="rgb(0, 0, 0)" stroke-linejoin="round" d=" M 41.004, 92.008 36.200, 95.949 33.031, 99.182 31.219, 102.049 30.048, 105.102 30.041, 107.577 30.505, 109.757 34.834, 113.948 37.515, 115.424 38.845, 114.960 38.858, 114.956 40.777, 114.286 42.012, 113.444 43.635, 112.336 45.221, 107.249 " />
            <path fill="none" stroke-width="3.0" stroke-linecap="butt" stroke-opacity="1.0" stroke="rgb(0, 0, 0)" stroke-linejoin="round" d=" M 33.237, 111.350 30.505, 109.757 " />
            <path fill="none" stroke-width="3.0" stroke-linecap="butt" stroke-opacity="1.0" stroke="rgb(0, 0, 0)" stroke-linejoin="round" d=" M 43.635, 112.336 39.904, 109.926 " />
            <path fill="none" stroke-width="3.0" stroke-linecap="butt" stroke-opacity="1.0" stroke="rgb(0, 0, 0)" stroke-linejoin="round" d=" M 40.771, 107.625 39.904, 109.926 36.481, 110.889 " />
            <path fill="none" stroke-width="3.0" stroke-linecap="butt" stroke-opacity="1.0" stroke="rgb(0, 0, 0)" stroke-linejoin="round" d=" M 57.448, 82.428 50.494, 85.766 42.140, 91.261 41.004, 92.008 47.265, 87.920 48.730, 87.129 57.448, 82.428 59.131, 81.730 61.788, 80.629 " />
            <path fill="none" stroke-width="3.0" stroke-linecap="butt" stroke-opacity="1.0" stroke="rgb(0, 0, 0)" stroke-linejoin="round" d=" M 47.265, 87.920 49.825, 86.869 49.847, 86.860 53.022, 85.558 55.737, 84.444 57.767, 83.833 67.366, 80.943 77.313, 79.920 78.749, 79.773 80.461, 79.597 81.811, 79.560 87.696, 79.401 89.196, 79.466 89.736, 79.489 " />
            <path fill="none" stroke-width="3.0" stroke-linecap="butt" stroke-opacity="1.0" stroke="rgb(0, 0, 0)" stroke-linejoin="round" d=" M 179.343, 114.223 180.033, 115.913 182.770, 117.200 183.052, 117.332 184.062, 117.763 188.614, 119.701 196.900, 123.228 197.011, 123.153 197.949, 122.521 198.716, 122.005 199.104, 121.744 199.356, 120.649 199.940, 118.106 197.036, 113.539 192.331, 108.982 190.539, 107.247 182.980, 101.793 182.891, 101.726 178.940, 98.788 177.410, 97.651 176.763, 97.170 171.992, 94.349 168.227, 92.122 161.361, 89.247 157.778, 87.747 157.044, 87.440 147.499, 84.457 144.332, 83.467 134.719, 80.714 131.537, 79.803 121.679, 78.125 118.677, 77.614 109.268, 76.084 107.485, 75.794 " />
            <path fill="none" stroke-width="3.0" stroke-linecap="butt" stroke-opacity="1.0" stroke="rgb(0, 0, 0)" stroke-linejoin="round" d=" M 102.642, 80.487 107.746, 81.012 111.453, 81.394 112.567, 81.666 122.280, 84.044 128.104, 85.470 137.709, 88.256 142.508, 89.648 142.526, 89.654 151.852, 93.263 155.348, 94.615 164.505, 98.634 166.499, 99.509 174.870, 103.583 181.322, 107.199 184.777, 109.793 186.396, 111.009 187.504, 112.762 187.893, 113.378 188.283, 113.996 188.521, 115.659 188.649, 116.556 187.645, 117.197 187.224, 117.466 186.114, 118.174 " />
            <path fill="none" stroke-width="3.0" stroke-linecap="butt" stroke-opacity="1.0" stroke="rgb(0, 0, 0)" stroke-linejoin="round" d=" M 99.121, 77.088 100.222, 75.512 102.917, 71.656 103.584, 69.370 103.946, 68.129 104.288, 66.957 104.527, 66.137 104.964, 64.641 105.255, 63.644 105.337, 63.362 105.873, 56.944 105.860, 54.942 105.854, 53.920 105.845, 52.471 105.843, 52.161 " />
            <path fill="none" stroke-width="3.0" stroke-linecap="butt" stroke-opacity="1.0" stroke="rgb(0, 0, 0)" stroke-linejoin="round" d=" M 76.872, 71.839 80.422, 74.166 83.085, 75.460 83.480, 75.652 84.540, 76.166 85.576, 76.669 93.096, 78.235 99.121, 77.088 99.344, 77.356 100.326, 78.537 101.989, 79.852 102.567, 80.041 103.443, 80.327 " />
            <path fill="none" stroke-width="3.0" stroke-linecap="butt" stroke-opacity="1.0" stroke="rgb(0, 0, 0)" stroke-linejoin="round" d=" M 54.204, 78.197 53.882, 76.822 " />
            <path fill="none" stroke-width="3.0" stroke-linecap="butt" stroke-opacity="1.0" stroke="rgb(0, 0, 0)" stroke-linejoin="round" d=" M 79.895, 74.693 77.629, 73.152 76.872, 71.839 72.525, 74.143 66.647, 76.565 61.909, 77.451 59.020, 77.992 53.882, 76.822 52.262, 71.645 " />
            <path fill="none" stroke-width="3.0" stroke-linecap="butt" stroke-opacity="1.0" stroke="rgb(0, 0, 0)" stroke-linejoin="round" d=" M 110.674, 59.605 110.895, 59.295 110.932, 59.243 111.181, 58.893 114.193, 54.662 114.485, 54.241 117.646, 49.684 118.872, 47.917 122.541, 42.261 122.798, 41.318 124.084, 36.602 124.135, 33.424 122.952, 31.160 119.471, 26.896 114.195, 24.452 111.260, 23.332 105.520, 22.219 103.083, 21.956 101.135, 21.745 " />
            <path fill="none" stroke-width="3.0" stroke-linecap="butt" stroke-opacity="1.0" stroke="rgb(0, 0, 0)" stroke-linejoin="round" d=" M 55.991, 53.424 53.308, 49.601 50.315, 44.532 48.892, 39.118 49.363, 33.602 53.718, 29.381 60.758, 25.832 66.452, 24.209 70.767, 23.314 73.358, 19.312 77.249, 14.117 83.330, 8.321 88.740, 5.621 93.354, 7.650 97.625, 12.871 99.845, 17.833 101.135, 21.745 " />
            <path fill="none" stroke-width="3.0" stroke-linecap="butt" stroke-opacity="1.0" stroke="rgb(0, 0, 0)" stroke-linejoin="round" d=" M 108.976, 55.265 107.623, 53.668 107.181, 53.146 105.943, 52.235 105.843, 52.161 106.050, 51.981 106.768, 51.360 110.371, 48.237 110.891, 47.699 115.825, 42.596 116.402, 41.696 119.664, 36.602 121.341, 30.609 117.935, 26.427 111.260, 23.332 " />
            <path fill="none" stroke-width="3.0" stroke-linecap="butt" stroke-opacity="1.0" stroke="rgb(0, 0, 0)" stroke-linejoin="round" d=" M 103.083, 21.956 102.174, 19.631 99.691, 14.800 98.266, 12.499 94.384, 7.762 89.680, 5.695 88.740, 5.621 " />
            <path fill="none" stroke-width="3.0" stroke-linecap="butt" stroke-opacity="1.0" stroke="rgb(0, 0, 0)" stroke-linejoin="round" d=" M 53.308, 49.601 56.087, 53.154 " />
            <path fill="none" stroke-width="3.0" stroke-linecap="butt" stroke-opacity="1.0" stroke="rgb(0, 0, 0)" stroke-linejoin="round" d=" M 191.356, 104.172 188.455, 94.602 186.375, 87.743 185.371, 86.673 184.162, 82.330 179.313, 73.584 178.052, 71.311 171.519, 63.740 170.407, 62.451 164.728, 56.934 156.763, 50.887 156.414, 50.621 149.193, 46.758 142.930, 44.613 138.110, 43.039 137.110, 42.712 130.662, 41.560 126.656, 41.389 124.306, 41.289 122.798, 41.318 " />
            <path fill="none" stroke-width="3.0" stroke-linecap="butt" stroke-opacity="1.0" stroke="rgb(0, 0, 0)" stroke-linejoin="round" d=" M 79.895, 74.693 81.836, 75.818 82.800, 76.376 82.850, 76.405 83.520, 76.793 84.601, 77.420 84.771, 77.518 87.964, 78.786 89.611, 79.439 89.736, 79.489 90.458, 79.775 90.794, 79.908 92.245, 80.235 94.091, 80.634 97.851, 81.445 100.724, 80.871 102.642, 80.487 103.443, 80.327 103.593, 80.112 104.321, 79.071 106.635, 75.761 106.971, 75.280 107.385, 74.689 108.669, 70.871 108.828, 70.398 109.194, 68.483 109.476, 67.004 109.585, 66.432 110.246, 62.965 110.674, 59.605 110.744, 59.059 110.775, 58.818 110.849, 58.235 110.896, 57.863 " />
            <path fill="none" stroke-width="3.0" stroke-linecap="butt" stroke-opacity="1.0" stroke="rgb(0, 0, 0)" stroke-linejoin="round" d=" M 186.582, 101.140 183.092, 98.199 174.759, 94.415 166.815, 90.808 161.361, 89.247 " />
            <path fill="none" stroke-width="3.0" stroke-linecap="butt" stroke-opacity="1.0" stroke="rgb(0, 0, 0)" stroke-linejoin="round" d=" M 121.275, 67.111 119.719, 67.021 " />
            <path fill="none" stroke-width="3.0" stroke-linecap="butt" stroke-opacity="1.0" stroke="rgb(0, 0, 0)" stroke-linejoin="round" d=" M 121.275, 67.111 131.153, 68.669 141.031, 70.226 145.047, 70.859 " />
            <path fill="none" stroke-width="3.0" stroke-linecap="butt" stroke-opacity="1.0" stroke="rgb(0, 0, 0)" stroke-linejoin="round" d=" M 138.110, 43.039 137.572, 42.312 134.235, 40.917 130.178, 40.467 127.010, 41.139 126.656, 41.389 " />
            <path fill="none" stroke-width="3.0" stroke-linecap="butt" stroke-opacity="1.0" stroke="rgb(0, 0, 0)" stroke-linejoin="round" d=" M 205.051, 137.100 208.959, 134.795 209.826, 131.088 209.669, 124.151 205.840, 118.660 200.062, 111.563 192.439, 105.092 191.356, 104.172 190.513, 103.456 186.582, 101.140 185.081, 100.256 176.296, 96.291 171.992, 94.349 " />
            <path fill="none" stroke-width="3.0" stroke-linecap="butt" stroke-opacity="1.0" stroke="rgb(0, 0, 0)" stroke-linejoin="round" d=" M 199.356, 120.649 207.203, 126.847 208.740, 128.061 208.959, 134.795 " />
            <path fill="none" stroke-width="3.0" stroke-linecap="butt" stroke-opacity="1.0" stroke="rgb(0, 0, 0)" stroke-linejoin="round" d=" M 44.504, 90.889 43.558, 91.603 38.094, 95.662 32.031, 101.792 31.593, 105.446 " />
            <path fill="none" stroke-width="3.0" stroke-linecap="butt" stroke-opacity="1.0" stroke="rgb(0, 0, 0)" stroke-linejoin="round" d=" M 209.669, 124.151 201.936, 117.811 199.402, 115.734 " />
            <path fill="none" stroke-width="3.0" stroke-linecap="butt" stroke-opacity="1.0" stroke="rgb(0, 0, 0)" stroke-linejoin="round" d=" M 60.099, 80.240 59.131, 81.730 " />
            <path fill="none" stroke-width="3.0" stroke-linecap="butt" stroke-opacity="1.0" stroke="rgb(0, 0, 0)" stroke-linejoin="round" d=" M 107.265, 75.785 107.454, 75.149 108.729, 70.869 " />
            <path fill="none" stroke-width="3.0" stroke-linecap="butt" stroke-opacity="1.0" stroke="rgb(0, 0, 0)" stroke-linejoin="round" d=" M 108.669, 70.871 108.729, 70.869 110.896, 70.815 " />
            <path fill="none" stroke-width="3.0" stroke-linecap="butt" stroke-opacity="1.0" stroke="rgb(0, 0, 0)" stroke-linejoin="round" d=" M 197.011, 123.153 201.628, 126.680 " />
        </g>
    </g>
</svg>
