<?xml version='1.0' encoding='ascii'?>
<svg xmlns="http://www.w3.org/2000/svg" version="1.1" width="250" height="250">
    <g id="ViewLayer_LineSet" xmlns:inkscape="http://www.inkscape.org/namespaces/inkscape" inkscape:groupmode="lineset" inkscape:label="ViewLayer_LineSet">
        <g xmlns:inkscape="http://www.inkscape.org/namespaces/inkscape" inkscape:groupmode="layer" id="strokes" inkscape:label="strokes">
            <path fill="none" stroke-width="3.0" stroke-linecap="butt" stroke-opacity="1.0" stroke="rgb(0, 0, 0)" stroke-linejoin="round" d=" M 108.630, 216.361 109.766, 216.494 112.901, 216.858 117.401, 217.073 121.926, 216.994 126.275, 216.627 130.256, 215.990 132.943, 215.407 136.471, 214.643 141.569, 213.345 145.605, 211.770 154.342, 207.654 157.894, 205.408 165.988, 199.535 166.551, 199.127 173.505, 191.941 173.941, 191.490 " />
            <path fill="none" stroke-width="3.0" stroke-linecap="butt" stroke-opacity="1.0" stroke="rgb(0, 0, 0)" stroke-linejoin="round" d=" M 59.283, 100.716 57.998, 102.333 53.792, 109.418 50.003, 118.060 49.515, 119.628 48.572, 122.658 48.462, 123.014 47.322, 126.677 46.022, 132.827 45.426, 139.199 45.270, 143.662 45.434, 149.318 45.956, 153.792 46.739, 158.441 47.608, 162.377 48.902, 166.668 50.562, 171.126 52.514, 175.556 54.674, 179.769 56.949, 183.578 59.242, 186.809 59.641, 187.327 " />
            <path fill="none" stroke-width="3.0" stroke-linecap="butt" stroke-opacity="1.0" stroke="rgb(0, 0, 0)" stroke-linejoin="round" d=" M 76.286, 152.317 76.834, 153.718 78.183, 155.789 80.059, 157.453 82.232, 158.690 84.255, 159.143 86.332, 159.081 86.665, 158.966 88.688, 158.266 90.721, 156.949 92.259, 155.112 92.970, 153.801 " />
            <path fill="none" stroke-width="3.0" stroke-linecap="butt" stroke-opacity="1.0" stroke="rgb(0, 0, 0)" stroke-linejoin="round" d=" M 116.544, 103.414 117.082, 105.266 117.513, 108.659 117.531, 112.486 117.548, 112.555 116.497, 120.171 116.483, 120.274 116.386, 120.976 115.137, 125.191 113.617, 129.480 111.851, 133.474 109.904, 136.981 108.059, 139.529 107.843, 139.828 107.742, 139.926 105.738, 141.873 103.659, 143.013 101.677, 143.192 100.561, 142.700 99.867, 142.395 98.301, 140.658 97.047, 138.058 96.978, 137.796 96.846, 137.293 96.168, 134.719 95.711, 130.798 95.706, 126.485 96.160, 121.986 97.037, 117.575 97.429, 116.239 97.469, 116.102 98.259, 113.413 99.796, 109.511 101.589, 106.011 103.568, 103.037 104.435, 102.062 " />
            <path fill="none" stroke-width="3.0" stroke-linecap="butt" stroke-opacity="1.0" stroke="rgb(0, 0, 0)" stroke-linejoin="round" d=" M 76.507, 120.846 75.514, 125.135 74.421, 129.238 73.687, 131.553 73.551, 131.982 73.243, 132.954 71.985, 136.098 70.655, 138.511 69.266, 140.074 68.224, 140.543 67.845, 140.713 66.454, 140.700 65.103, 139.159 63.920, 137.052 62.971, 134.191 62.335, 130.722 62.190, 128.530 62.164, 128.136 62.077, 126.816 62.154, 124.855 62.240, 122.662 62.384, 121.632 62.822, 118.516 63.707, 114.522 64.839, 110.683 66.174, 107.136 67.080, 105.221 67.307, 104.740 67.656, 104.004 69.228, 101.392 70.005, 100.419 " />
            <path fill="none" stroke-width="3.0" stroke-linecap="butt" stroke-opacity="1.0" stroke="rgb(0, 0, 0)" stroke-linejoin="round" d=" M 66.454, 140.700 69.717, 142.070 " />
            <path fill="none" stroke-width="3.0" stroke-linecap="butt" stroke-opacity="1.0" stroke="rgb(0, 0, 0)" stroke-linejoin="round" d=" M 77.251, 100.219 77.853, 102.446 78.184, 105.362 78.265, 108.851 78.160, 110.023 78.135, 110.293 77.929, 112.594 " />
            <path fill="none" stroke-width="3.0" stroke-linecap="butt" stroke-opacity="1.0" stroke="rgb(0, 0, 0)" stroke-linejoin="round" d=" M 79.674, 122.778 76.507, 120.846 76.845, 119.162 77.351, 116.644 77.929, 112.594 81.055, 114.618 " />
            <path fill="none" stroke-width="3.0" stroke-linecap="butt" stroke-opacity="1.0" stroke="rgb(0, 0, 0)" stroke-linejoin="round" d=" M 165.944, 232.135 167.916, 231.452 173.157, 228.482 178.285, 224.367 182.528, 218.493 185.389, 212.745 185.893, 211.442 189.252, 202.023 190.044, 199.802 191.592, 192.757 " />
            <path fill="none" stroke-width="3.0" stroke-linecap="butt" stroke-opacity="1.0" stroke="rgb(0, 0, 0)" stroke-linejoin="round" d=" M 134.129, 218.806 135.327, 222.631 136.583, 224.418 140.354, 229.019 145.886, 232.726 151.142, 234.440 155.931, 234.761 161.160, 233.969 165.944, 232.135 167.431, 231.564 " />
            <path fill="none" stroke-width="3.0" stroke-linecap="butt" stroke-opacity="1.0" stroke="rgb(0, 0, 0)" stroke-linejoin="round" d=" M 30.864, 226.091 33.495, 227.741 38.180, 229.539 42.478, 230.847 47.356, 231.821 52.382, 232.579 59.286, 232.957 64.005, 233.073 70.652, 232.671 76.711, 232.079 84.339, 231.214 91.128, 230.226 95.547, 229.328 98.859, 228.556 100.319, 228.207 103.085, 226.321 106.658, 223.406 108.794, 220.089 109.764, 216.538 109.766, 216.494 " />
            <path fill="none" stroke-width="3.0" stroke-linecap="butt" stroke-opacity="1.0" stroke="rgb(0, 0, 0)" stroke-linejoin="round" d=" M 59.641, 187.327 56.211, 188.153 49.871, 189.719 43.446, 192.550 38.907, 194.986 35.414, 197.968 34.696, 198.938 31.018, 203.907 28.795, 208.056 27.484, 212.138 27.075, 216.078 27.498, 220.246 28.375, 222.117 28.616, 222.502 30.864, 226.091 29.445, 224.175 28.616, 222.502 " />
            <path fill="none" stroke-width="3.0" stroke-linecap="butt" stroke-opacity="1.0" stroke="rgb(0, 0, 0)" stroke-linejoin="round" d=" M 163.915, 184.558 166.108, 186.407 169.532, 189.129 172.924, 191.112 173.941, 191.490 176.506, 192.441 180.133, 193.562 183.068, 193.810 187.128, 193.729 189.395, 193.324 191.592, 192.757 192.634, 192.489 196.905, 190.319 200.583, 187.462 202.668, 184.948 204.292, 182.871 205.666, 179.622 206.871, 176.693 207.470, 173.070 207.887, 169.381 207.747, 165.334 206.980, 160.903 205.133, 155.249 204.088, 152.443 201.566, 147.330 198.932, 142.788 198.864, 142.690 198.798, 142.594 196.103, 138.691 192.790, 135.162 190.972, 133.660 190.465, 133.241 185.555, 130.223 181.405, 128.485 " />
            <path fill="none" stroke-width="3.0" stroke-linecap="butt" stroke-opacity="1.0" stroke="rgb(0, 0, 0)" stroke-linejoin="round" d=" M 115.555, 72.924 118.766, 70.446 118.789, 70.399 118.927, 70.113 118.963, 70.038 120.581, 66.688 121.596, 64.091 121.574, 60.414 120.524, 57.758 118.651, 54.045 116.743, 52.634 " />
            <path fill="none" stroke-width="3.0" stroke-linecap="butt" stroke-opacity="1.0" stroke="rgb(0, 0, 0)" stroke-linejoin="round" d=" M 55.283, 56.387 55.200, 56.620 53.660, 60.942 52.003, 67.021 51.395, 74.860 51.707, 76.115 53.311, 81.398 55.842, 82.624 59.759, 83.550 60.747, 83.784 60.927, 83.826 64.867, 84.253 70.830, 83.207 76.365, 81.791 81.736, 79.645 " />
            <path fill="none" stroke-width="3.0" stroke-linecap="butt" stroke-opacity="1.0" stroke="rgb(0, 0, 0)" stroke-linejoin="round" d=" M 34.138, 112.686 31.661, 108.081 32.881, 106.842 37.183, 102.473 41.973, 101.255 49.511, 99.338 52.482, 98.582 57.527, 98.418 59.406, 98.357 61.204, 98.299 71.199, 97.974 72.738, 97.924 75.485, 97.835 75.521, 97.834 78.918, 97.723 88.886, 98.520 98.854, 99.316 106.630, 99.937 112.443, 100.401 115.444, 100.925 115.560, 100.945 125.411, 102.664 135.262, 104.382 145.113, 106.101 146.470, 106.338 156.138, 108.891 165.807, 111.444 175.475, 113.997 176.104, 114.163 177.487, 114.723 178.531, 115.145 182.213, 116.635 " />
            <path fill="none" stroke-width="3.0" stroke-linecap="butt" stroke-opacity="1.0" stroke="rgb(0, 0, 0)" stroke-linejoin="round" d=" M 198.864, 142.690 199.228, 142.621 206.724, 138.166 206.031, 131.886 200.112, 127.556 197.337, 125.526 " />
            <path fill="none" stroke-width="3.0" stroke-linecap="butt" stroke-opacity="1.0" stroke="rgb(0, 0, 0)" stroke-linejoin="round" d=" M 44.687, 103.586 54.455, 101.445 57.559, 100.764 " />
            <path fill="none" stroke-width="3.0" stroke-linecap="butt" stroke-opacity="1.0" stroke="rgb(0, 0, 0)" stroke-linejoin="round" d=" M 39.236, 117.373 47.679, 122.700 48.462, 123.014 " />
            <path fill="none" stroke-width="3.0" stroke-linecap="butt" stroke-opacity="1.0" stroke="rgb(0, 0, 0)" stroke-linejoin="round" d=" M 55.295, 100.827 45.530, 102.983 45.320, 103.029 41.281, 103.921 39.513, 104.311 33.858, 109.709 34.621, 111.164 " />
            <path fill="none" stroke-width="3.0" stroke-linecap="butt" stroke-opacity="1.0" stroke="rgb(0, 0, 0)" stroke-linejoin="round" d=" M 55.295, 100.827 57.559, 100.764 59.283, 100.716 60.287, 100.688 62.075, 100.639 70.005, 100.419 75.428, 100.269 77.251, 100.219 78.794, 100.176 80.502, 100.129 90.469, 100.934 100.437, 101.739 104.435, 102.062 109.263, 102.452 112.247, 102.694 116.544, 103.414 117.287, 103.538 127.149, 105.190 137.012, 106.842 145.577, 108.277 155.252, 110.803 164.928, 113.330 174.741, 115.892 178.588, 117.428 183.740, 119.485 " />
            <path fill="none" stroke-width="3.0" stroke-linecap="butt" stroke-opacity="1.0" stroke="rgb(0, 0, 0)" stroke-linejoin="round" d=" M 40.836, 94.799 36.154, 98.671 33.077, 101.850 31.337, 104.671 30.225, 107.682 30.243, 110.135 30.715, 112.301 35.204, 116.377 37.875, 117.848 39.236, 117.373 39.309, 117.348 41.123, 116.714 42.498, 115.776 43.965, 114.774 45.524, 109.716 " />
            <path fill="none" stroke-width="3.0" stroke-linecap="butt" stroke-opacity="1.0" stroke="rgb(0, 0, 0)" stroke-linejoin="round" d=" M 33.432, 113.889 30.715, 112.301 " />
            <path fill="none" stroke-width="3.0" stroke-linecap="butt" stroke-opacity="1.0" stroke="rgb(0, 0, 0)" stroke-linejoin="round" d=" M 43.965, 114.774 40.063, 112.474 " />
            <path fill="none" stroke-width="3.0" stroke-linecap="butt" stroke-opacity="1.0" stroke="rgb(0, 0, 0)" stroke-linejoin="round" d=" M 40.948, 110.110 40.063, 112.474 36.657, 113.432 " />
            <path fill="none" stroke-width="3.0" stroke-linecap="butt" stroke-opacity="1.0" stroke="rgb(0, 0, 0)" stroke-linejoin="round" d=" M 57.232, 85.236 50.409, 88.508 42.052, 94.000 40.836, 94.799 46.956, 90.785 48.680, 89.854 57.232, 85.236 59.186, 84.428 60.747, 83.784 " />
            <path fill="none" stroke-width="3.0" stroke-linecap="butt" stroke-opacity="1.0" stroke="rgb(0, 0, 0)" stroke-linejoin="round" d=" M 46.956, 90.785 49.503, 89.744 49.560, 89.720 52.851, 88.375 55.274, 87.384 57.740, 86.647 66.730, 83.961 76.682, 82.976 78.080, 82.837 79.663, 82.681 81.149, 82.645 86.829, 82.510 87.652, 82.548 88.066, 82.567 " />
            <path fill="none" stroke-width="3.0" stroke-linecap="butt" stroke-opacity="1.0" stroke="rgb(0, 0, 0)" stroke-linejoin="round" d=" M 178.588, 117.428 179.219, 118.981 181.592, 120.128 182.205, 120.425 182.844, 120.690 188.721, 123.128 196.255, 126.253 196.538, 126.063 197.337, 125.526 198.418, 124.798 198.431, 124.790 198.686, 123.662 199.253, 121.159 196.320, 116.596 192.546, 112.952 192.410, 112.821 192.407, 112.817 189.797, 110.298 188.010, 109.016 182.198, 104.846 178.779, 102.319 177.000, 101.004 175.950, 100.228 170.136, 96.811 167.376, 95.188 160.493, 92.318 159.607, 91.949 156.163, 90.513 146.618, 87.530 143.447, 86.539 133.834, 83.783 130.663, 82.873 120.807, 81.184 117.837, 80.675 108.513, 79.141 106.694, 78.842 " />
            <path fill="none" stroke-width="3.0" stroke-linecap="butt" stroke-opacity="1.0" stroke="rgb(0, 0, 0)" stroke-linejoin="round" d=" M 101.929, 83.658 106.915, 84.182 110.432, 84.552 110.619, 84.598 120.328, 86.993 127.024, 88.645 136.626, 91.437 139.696, 92.330 141.410, 92.828 150.738, 96.431 154.263, 97.793 163.426, 101.799 165.443, 102.681 173.847, 106.751 180.341, 110.357 185.175, 113.950 185.454, 114.158 186.428, 115.676 187.133, 116.775 187.366, 117.138 187.668, 119.160 187.747, 119.691 187.466, 119.870 186.402, 120.548 185.237, 121.290 " />
            <path fill="none" stroke-width="3.0" stroke-linecap="butt" stroke-opacity="1.0" stroke="rgb(0, 0, 0)" stroke-linejoin="round" d=" M 97.754, 80.457 97.784, 80.415 99.104, 78.527 101.549, 75.032 102.346, 72.329 102.698, 71.137 103.056, 69.925 103.298, 69.102 103.724, 67.659 103.996, 66.737 104.326, 63.014 104.565, 60.314 104.563, 57.833 104.563, 57.002 104.562, 56.567 104.562, 55.526 " />
            <path fill="none" stroke-width="3.0" stroke-linecap="butt" stroke-opacity="1.0" stroke="rgb(0, 0, 0)" stroke-linejoin="round" d=" M 75.743, 75.132 79.244, 77.472 81.726, 78.701 82.311, 78.991 83.384, 79.522 84.335, 79.993 91.776, 81.584 97.357, 80.532 97.754, 80.457 98.975, 81.893 100.487, 83.015 100.697, 83.171 102.236, 83.597 " />
            <path fill="none" stroke-width="3.0" stroke-linecap="butt" stroke-opacity="1.0" stroke="rgb(0, 0, 0)" stroke-linejoin="round" d=" M 53.311, 81.398 52.968, 80.040 " />
            <path fill="none" stroke-width="3.0" stroke-linecap="butt" stroke-opacity="1.0" stroke="rgb(0, 0, 0)" stroke-linejoin="round" d=" M 78.839, 77.932 76.518, 76.430 75.743, 75.132 71.427, 77.423 65.595, 79.826 61.717, 80.545 58.041, 81.227 52.968, 80.040 51.395, 74.860 " />
            <path fill="none" stroke-width="3.0" stroke-linecap="butt" stroke-opacity="1.0" stroke="rgb(0, 0, 0)" stroke-linejoin="round" d=" M 109.538, 62.969 109.636, 62.832 110.194, 62.047 110.205, 62.031 110.475, 61.652 113.163, 57.870 113.761, 56.996 116.743, 52.634 117.730, 51.190 121.395, 45.540 121.822, 43.995 122.958, 39.876 122.933, 36.744 121.691, 34.518 118.261, 30.241 113.040, 27.783 110.101, 26.675 104.415, 25.550 102.157, 25.299 100.069, 25.068 " />
            <path fill="none" stroke-width="3.0" stroke-linecap="butt" stroke-opacity="1.0" stroke="rgb(0, 0, 0)" stroke-linejoin="round" d=" M 55.200, 56.620 52.556, 52.827 49.626, 47.753 48.250, 42.338 48.747, 36.825 53.077, 32.616 60.060, 29.081 65.702, 27.469 69.977, 26.582 72.566, 22.584 76.447, 17.394 82.502, 11.604 87.877, 8.911 92.438, 10.948 96.640, 16.179 98.813, 21.150 100.069, 25.068 " />
            <path fill="none" stroke-width="3.0" stroke-linecap="butt" stroke-opacity="1.0" stroke="rgb(0, 0, 0)" stroke-linejoin="round" d=" M 107.779, 58.572 107.396, 58.145 107.353, 58.097 106.376, 57.006 106.347, 56.974 105.919, 56.496 104.904, 55.771 104.562, 55.526 105.275, 54.907 106.008, 54.271 109.076, 51.608 109.912, 50.743 114.519, 45.974 115.472, 44.488 118.363, 39.981 120.061, 33.981 116.705, 29.787 110.101, 26.675 " />
            <path fill="none" stroke-width="3.0" stroke-linecap="butt" stroke-opacity="1.0" stroke="rgb(0, 0, 0)" stroke-linejoin="round" d=" M 102.157, 25.299 101.228, 22.889 98.787, 18.052 97.311, 15.790 93.490, 11.043 88.840, 8.969 87.877, 8.911 " />
            <path fill="none" stroke-width="3.0" stroke-linecap="butt" stroke-opacity="1.0" stroke="rgb(0, 0, 0)" stroke-linejoin="round" d=" M 52.556, 52.827 55.283, 56.387 " />
            <path fill="none" stroke-width="3.0" stroke-linecap="butt" stroke-opacity="1.0" stroke="rgb(0, 0, 0)" stroke-linejoin="round" d=" M 191.347, 107.510 188.500, 97.924 186.275, 90.432 185.277, 89.357 184.090, 84.998 179.294, 76.224 178.043, 73.935 171.555, 66.325 170.457, 65.037 164.636, 59.594 156.734, 53.465 156.427, 53.227 149.127, 49.413 142.997, 47.202 138.541, 45.769 137.150, 45.322 130.699, 44.181 126.748, 44.010 124.364, 43.908 121.822, 43.995 " />
            <path fill="none" stroke-width="3.0" stroke-linecap="butt" stroke-opacity="1.0" stroke="rgb(0, 0, 0)" stroke-linejoin="round" d=" M 78.839, 77.932 80.521, 78.927 81.736, 79.645 82.045, 79.828 82.481, 80.086 83.648, 80.776 83.874, 80.868 86.251, 81.832 87.971, 82.529 88.066, 82.567 88.824, 82.874 89.600, 83.189 91.950, 83.691 94.713, 84.281 96.687, 84.695 100.661, 83.909 101.929, 83.658 102.236, 83.597 102.540, 83.162 103.296, 82.084 105.600, 78.797 106.058, 78.143 106.185, 77.961 107.556, 73.936 107.648, 73.666 108.127, 71.221 108.369, 69.988 108.482, 69.412 109.108, 66.223 109.175, 65.716 109.328, 64.560 109.538, 62.969 109.630, 62.277 109.727, 61.548 109.784, 61.116 " />
            <path fill="none" stroke-width="3.0" stroke-linecap="butt" stroke-opacity="1.0" stroke="rgb(0, 0, 0)" stroke-linejoin="round" d=" M 187.105, 104.670 182.636, 101.077 175.333, 97.850 166.129, 93.784 160.159, 92.104 159.607, 91.949 " />
            <path fill="none" stroke-width="3.0" stroke-linecap="butt" stroke-opacity="1.0" stroke="rgb(0, 0, 0)" stroke-linejoin="round" d=" M 120.536, 70.132 118.963, 70.038 " />
            <path fill="none" stroke-width="3.0" stroke-linecap="butt" stroke-opacity="1.0" stroke="rgb(0, 0, 0)" stroke-linejoin="round" d=" M 120.536, 70.132 125.544, 70.913 135.383, 72.446 144.344, 73.843 " />
            <path fill="none" stroke-width="3.0" stroke-linecap="butt" stroke-opacity="1.0" stroke="rgb(0, 0, 0)" stroke-linejoin="round" d=" M 138.541, 45.769 137.805, 44.817 134.447, 43.439 130.394, 42.992 127.257, 43.651 126.748, 44.010 " />
            <path fill="none" stroke-width="3.0" stroke-linecap="butt" stroke-opacity="1.0" stroke="rgb(0, 0, 0)" stroke-linejoin="round" d=" M 199.228, 142.621 201.098, 142.161 208.988, 137.517 209.867, 133.801 209.377, 127.031 205.575, 121.507 199.834, 114.368 192.056, 108.083 191.347, 107.510 190.857, 107.115 190.841, 107.102 189.970, 106.398 187.105, 104.670 184.593, 103.156 176.922, 99.789 170.136, 96.811 " />
            <path fill="none" stroke-width="3.0" stroke-linecap="butt" stroke-opacity="1.0" stroke="rgb(0, 0, 0)" stroke-linejoin="round" d=" M 198.686, 123.662 206.694, 129.652 208.431, 130.952 208.988, 137.517 " />
            <path fill="none" stroke-width="3.0" stroke-linecap="butt" stroke-opacity="1.0" stroke="rgb(0, 0, 0)" stroke-linejoin="round" d=" M 44.684, 93.394 43.302, 94.436 37.817, 98.505 32.118, 104.430 31.661, 108.081 " />
            <path fill="none" stroke-width="3.0" stroke-linecap="butt" stroke-opacity="1.0" stroke="rgb(0, 0, 0)" stroke-linejoin="round" d=" M 209.377, 127.031 201.480, 120.897 198.741, 118.770 " />
            <path fill="none" stroke-width="3.0" stroke-linecap="butt" stroke-opacity="1.0" stroke="rgb(0, 0, 0)" stroke-linejoin="round" d=" M 59.759, 83.550 59.186, 84.428 " />
            <path fill="none" stroke-width="3.0" stroke-linecap="butt" stroke-opacity="1.0" stroke="rgb(0, 0, 0)" stroke-linejoin="round" d=" M 106.467, 78.833 106.734, 77.958 107.968, 73.920 " />
            <path fill="none" stroke-width="3.0" stroke-linecap="butt" stroke-opacity="1.0" stroke="rgb(0, 0, 0)" stroke-linejoin="round" d=" M 107.556, 73.936 107.968, 73.920 110.196, 73.830 " />
            <path fill="none" stroke-width="3.0" stroke-linecap="butt" stroke-opacity="1.0" stroke="rgb(0, 0, 0)" stroke-linejoin="round" d=" M 132.943, 215.407 134.129, 218.806 134.753, 220.594 " />
            <path fill="none" stroke-width="3.0" stroke-linecap="butt" stroke-opacity="1.0" stroke="rgb(0, 0, 0)" stroke-linejoin="round" d=" M 190.972, 133.660 188.882, 123.881 188.721, 123.128 " />
            <path fill="none" stroke-width="3.0" stroke-linecap="butt" stroke-opacity="1.0" stroke="rgb(0, 0, 0)" stroke-linejoin="round" d=" M 196.538, 126.063 201.331, 129.539 " />
        </g>
    </g>
</svg>
