<?xml version='1.0' encoding='ascii'?>
<svg xmlns="http://www.w3.org/2000/svg" version="1.1" width="250" height="250">
    <g id="ViewLayer_LineSet" xmlns:inkscape="http://www.inkscape.org/namespaces/inkscape" inkscape:groupmode="lineset" inkscape:label="ViewLayer_LineSet">
        <g xmlns:inkscape="http://www.inkscape.org/namespaces/inkscape" inkscape:groupmode="layer" id="strokes" inkscape:label="strokes">
            <path fill="none" stroke-width="3.0" stroke-linecap="butt" stroke-opacity="1.0" stroke="rgb(0, 0, 0)" stroke-linejoin="round" d=" M 57.590, 160.019 58.780, 164.718 60.300, 168.200 63.269, 175.005 64.633, 177.106 " />
            <path fill="none" stroke-width="3.0" stroke-linecap="butt" stroke-opacity="1.0" stroke="rgb(0, 0, 0)" stroke-linejoin="round" d=" M 120.372, 213.099 122.660, 213.316 127.120, 213.451 131.173, 213.317 131.537, 213.305 135.711, 212.886 " />
            <path fill="none" stroke-width="3.0" stroke-linecap="butt" stroke-opacity="1.0" stroke="rgb(0, 0, 0)" stroke-linejoin="round" d=" M 163.409, 203.611 171.507, 197.743 171.649, 197.640 175.010, 195.117 181.923, 188.016 182.615, 187.305 188.137, 179.287 " />
            <path fill="none" stroke-width="3.0" stroke-linecap="butt" stroke-opacity="1.0" stroke="rgb(0, 0, 0)" stroke-linejoin="round" d=" M 67.677, 175.222 64.633, 177.106 64.232, 177.354 60.396, 180.143 57.036, 184.086 53.653, 191.546 52.686, 195.616 52.824, 199.493 53.899, 203.427 54.852, 206.818 57.416, 211.088 60.843, 214.949 65.653, 219.076 68.676, 221.193 71.362, 222.667 75.971, 224.208 80.894, 225.188 87.516, 226.194 92.735, 226.710 97.573, 226.938 103.463, 226.822 108.576, 226.234 112.278, 225.037 115.029, 223.192 116.955, 220.374 118.354, 218.178 119.831, 215.183 120.372, 213.099 " />
            <path fill="none" stroke-width="3.0" stroke-linecap="butt" stroke-opacity="1.0" stroke="rgb(0, 0, 0)" stroke-linejoin="round" d=" M 131.173, 213.317 133.359, 215.689 135.225, 217.316 138.514, 218.721 142.984, 220.050 149.073, 220.853 154.139, 221.289 159.584, 221.537 166.526, 221.548 171.031, 220.912 174.907, 220.048 176.952, 219.380 180.077, 217.863 182.550, 216.182 185.913, 212.568 187.394, 209.500 188.013, 206.291 188.391, 204.301 188.309, 200.480 187.414, 196.368 184.941, 191.451 181.923, 188.016 " />
            <path fill="none" stroke-width="3.0" stroke-linecap="butt" stroke-opacity="1.0" stroke="rgb(0, 0, 0)" stroke-linejoin="round" d=" M 40.782, 146.368 40.515, 148.042 40.751, 150.259 41.163, 153.804 42.453, 157.626 45.097, 161.585 47.434, 163.957 49.245, 165.339 49.989, 165.767 52.182, 166.936 55.249, 167.812 57.500, 168.306 60.300, 168.200 " />
            <path fill="none" stroke-width="3.0" stroke-linecap="butt" stroke-opacity="1.0" stroke="rgb(0, 0, 0)" stroke-linejoin="round" d=" M 217.903, 143.015 214.097, 138.143 214.015, 138.047 " />
            <path fill="none" stroke-width="3.0" stroke-linecap="butt" stroke-opacity="1.0" stroke="rgb(0, 0, 0)" stroke-linejoin="round" d=" M 220.977, 147.782 218.635, 144.085 217.903, 143.015 220.977, 147.782 221.531, 148.640 222.035, 149.451 223.941, 153.824 225.152, 157.933 225.712, 162.008 225.572, 165.491 224.995, 168.530 224.071, 171.243 222.596, 174.072 221.748, 175.354 219.698, 177.980 217.315, 180.002 216.017, 180.881 213.348, 182.495 210.361, 183.591 208.599, 183.965 205.254, 184.473 201.594, 184.452 197.382, 183.602 193.296, 182.073 189.042, 179.850 188.137, 179.287 187.527, 178.909 " />
            <path fill="none" stroke-width="3.0" stroke-linecap="butt" stroke-opacity="1.0" stroke="rgb(0, 0, 0)" stroke-linejoin="round" d=" M 211.148, 111.229 210.306, 109.636 205.233, 104.258 199.600, 99.579 195.095, 95.715 193.979, 94.950 " />
            <path fill="none" stroke-width="3.0" stroke-linecap="butt" stroke-opacity="1.0" stroke="rgb(0, 0, 0)" stroke-linejoin="round" d=" M 165.267, 54.398 165.501, 53.944 166.062, 49.577 162.981, 46.339 158.712, 44.344 157.106, 43.780 153.789, 42.998 152.598, 42.742 149.302, 42.178 147.068, 38.099 144.700, 34.538 140.854, 30.589 136.703, 28.692 132.677, 30.655 129.093, 34.640 127.973, 36.509 " />
            <path fill="none" stroke-width="3.0" stroke-linecap="butt" stroke-opacity="1.0" stroke="rgb(0, 0, 0)" stroke-linejoin="round" d=" M 112.803, 41.862 107.591, 43.002 103.318, 44.581 94.320, 48.946 92.866, 49.651 88.798, 52.551 81.027, 58.844 78.098, 61.216 71.602, 68.819 70.000, 70.695 65.166, 79.449 63.836, 81.857 61.860, 86.958 61.211, 88.634 59.850, 92.924 " />
            <path fill="none" stroke-width="3.0" stroke-linecap="butt" stroke-opacity="1.0" stroke="rgb(0, 0, 0)" stroke-linejoin="round" d=" M 190.405, 87.852 188.706, 83.344 188.310, 82.445 185.812, 76.772 180.214, 68.486 178.624, 66.131 171.478, 59.136 169.648, 57.345 165.267, 54.398 164.773, 54.065 158.141, 49.603 153.991, 47.047 144.640, 43.504 143.007, 42.885 138.695, 41.672 133.512, 40.986 " />
            <path fill="none" stroke-width="3.0" stroke-linecap="butt" stroke-opacity="1.0" stroke="rgb(0, 0, 0)" stroke-linejoin="round" d=" M 136.703, 28.692 136.328, 29.721 135.910, 32.088 " />
            <path fill="none" stroke-width="3.0" stroke-linecap="butt" stroke-opacity="1.0" stroke="rgb(0, 0, 0)" stroke-linejoin="round" d=" M 149.302, 42.178 148.829, 43.291 " />
            <path fill="none" stroke-width="3.0" stroke-linecap="butt" stroke-opacity="1.0" stroke="rgb(0, 0, 0)" stroke-linejoin="round" d=" M 166.062, 49.577 165.584, 50.518 163.952, 52.012 " />
            <path fill="none" stroke-width="3.0" stroke-linecap="butt" stroke-opacity="1.0" stroke="rgb(0, 0, 0)" stroke-linejoin="round" d=" M 61.860, 86.958 61.694, 87.133 58.542, 94.115 56.064, 102.964 54.644, 108.039 53.585, 111.819 53.422, 112.403 53.407, 112.456 53.761, 113.268 54.224, 114.331 54.814, 115.684 57.324, 121.444 57.984, 121.894 58.022, 121.920 66.285, 127.552 69.178, 129.524 78.733, 132.473 88.471, 135.479 92.844, 135.965 102.783, 137.069 112.722, 138.173 113.161, 138.222 123.153, 137.822 133.145, 137.423 139.810, 137.156 149.631, 135.272 159.452, 133.387 164.410, 132.436 169.424, 130.463 178.730, 126.802 183.516, 124.918 186.508, 122.575 194.381, 116.409 194.540, 116.285 195.082, 115.860 197.330, 109.946 197.539, 109.397 198.038, 108.084 198.088, 107.952 198.135, 107.827 198.570, 106.684 198.628, 106.531 198.199, 105.462 197.075, 102.661 195.789, 99.458 195.682, 99.190 194.483, 96.205 193.979, 94.950 191.571, 88.950 189.119, 83.133 188.310, 82.445 " />
            <path fill="none" stroke-width="3.0" stroke-linecap="butt" stroke-opacity="1.0" stroke="rgb(0, 0, 0)" stroke-linejoin="round" d=" M 160.462, 109.414 156.825, 109.982 156.236, 110.074 146.355, 111.617 143.532, 112.058 142.613, 112.202 137.763, 112.959 127.700, 113.340 127.700, 113.340 127.611, 113.344 117.618, 113.722 114.837, 113.828 113.897, 113.863 113.141, 113.892 103.181, 112.998 93.221, 112.104 90.376, 111.848 " />
            <path fill="none" stroke-width="3.0" stroke-linecap="butt" stroke-opacity="1.0" stroke="rgb(0, 0, 0)" stroke-linejoin="round" d=" M 134.437, 42.600 133.504, 44.424 128.459, 45.951 121.226, 46.554 114.743, 45.981 113.789, 45.528 111.588, 44.484 " />
            <path fill="none" stroke-width="3.0" stroke-linecap="butt" stroke-opacity="1.0" stroke="rgb(0, 0, 0)" stroke-linejoin="round" d=" M 134.437, 42.600 133.512, 40.986 133.157, 40.366 130.248, 37.400 128.333, 36.621 128.078, 36.517 127.973, 36.509 123.959, 36.204 122.732, 36.198 119.422, 36.567 116.130, 37.476 113.800, 40.449 112.803, 41.862 112.678, 42.039 111.588, 44.484 " />
            <path fill="none" stroke-width="3.0" stroke-linecap="butt" stroke-opacity="1.0" stroke="rgb(0, 0, 0)" stroke-linejoin="round" d=" M 56.064, 102.964 49.348, 108.614 44.456, 114.444 41.347, 118.843 37.389, 128.026 36.173, 130.848 37.147, 134.410 40.055, 143.977 40.782, 146.368 41.052, 147.257 48.727, 153.668 55.322, 159.176 57.590, 160.019 66.963, 163.505 71.679, 165.259 79.739, 168.257 89.641, 169.659 99.542, 171.060 109.443, 172.462 110.376, 172.594 120.367, 172.169 130.358, 171.745 140.349, 171.320 143.760, 171.175 153.533, 169.058 163.307, 166.942 172.071, 165.044 175.596, 164.280 184.692, 160.125 193.788, 155.969 197.933, 154.076 199.681, 153.277 206.940, 146.399 213.470, 140.212 214.015, 138.047 216.455, 128.350 216.787, 127.030 217.533, 123.543 213.073, 114.593 211.741, 111.921 211.148, 111.229 208.056, 107.623 202.721, 102.212 194.641, 96.320 194.483, 96.205 " />
            <path fill="none" stroke-width="3.0" stroke-linecap="butt" stroke-opacity="1.0" stroke="rgb(0, 0, 0)" stroke-linejoin="round" d=" M 217.533, 123.543 215.087, 133.239 214.275, 136.459 " />
        </g>
    </g>
</svg>
