<?xml version='1.0' encoding='ascii'?>
<svg xmlns="http://www.w3.org/2000/svg" version="1.1" width="250" height="250">
    <g id="ViewLayer_LineSet" xmlns:inkscape="http://www.inkscape.org/namespaces/inkscape" inkscape:groupmode="lineset" inkscape:label="ViewLayer_LineSet">
        <g xmlns:inkscape="http://www.inkscape.org/namespaces/inkscape" inkscape:groupmode="layer" id="strokes" inkscape:label="strokes">
            <path fill="none" stroke-width="3.0" stroke-linecap="butt" stroke-opacity="1.0" stroke="rgb(0, 0, 0)" stroke-linejoin="round" d=" M 140.668, 211.181 142.091, 210.859 147.181, 209.595 151.191, 208.059 160.265, 203.797 166.779, 199.574 173.824, 193.880 178.993, 188.724 180.496, 186.881 183.568, 183.114 187.508, 177.117 188.089, 176.117 191.083, 170.280 191.485, 169.442 191.967, 168.327 192.506, 166.993 193.072, 165.508 193.636, 163.949 194.169, 162.401 194.642, 160.943 195.031, 159.652 195.316, 158.595 195.483, 157.823 196.917, 151.140 197.637, 144.255 197.738, 143.074 197.756, 135.786 197.042, 128.508 196.144, 123.638 194.799, 118.818 " />
            <path fill="none" stroke-width="3.0" stroke-linecap="butt" stroke-opacity="1.0" stroke="rgb(0, 0, 0)" stroke-linejoin="round" d=" M 51.117, 127.542 50.947, 128.256 50.740, 131.054 " />
            <path fill="none" stroke-width="3.0" stroke-linecap="butt" stroke-opacity="1.0" stroke="rgb(0, 0, 0)" stroke-linejoin="round" d=" M 175.033, 147.548 175.549, 148.805 176.617, 150.551 178.018, 151.774 179.667, 152.495 181.093, 152.495 182.451, 152.001 183.880, 150.749 185.136, 149.096 " />
            <path fill="none" stroke-width="3.0" stroke-linecap="butt" stroke-opacity="1.0" stroke="rgb(0, 0, 0)" stroke-linejoin="round" d=" M 185.136, 149.096 185.338, 148.796 186.109, 146.963 186.491, 145.683 186.580, 145.217 " />
            <path fill="none" stroke-width="3.0" stroke-linecap="butt" stroke-opacity="1.0" stroke="rgb(0, 0, 0)" stroke-linejoin="round" d=" M 186.021, 95.576 186.638, 96.532 187.990, 99.046 189.393, 102.052 190.588, 104.954 190.791, 105.446 190.741, 105.509 191.018, 106.342 191.515, 107.834 191.867, 108.889 192.551, 110.942 192.694, 111.371 192.979, 112.227 193.066, 112.487 193.239, 113.007 194.410, 116.788 194.799, 118.818 195.157, 120.682 195.553, 124.364 195.617, 127.665 195.392, 130.425 194.935, 132.503 194.309, 133.787 194.003, 133.959 193.893, 134.021 193.869, 134.034 193.568, 134.203 192.756, 133.716 191.895, 132.335 190.989, 130.118 190.423, 128.372 190.031, 127.166 189.239, 124.428 189.006, 123.623 187.904, 119.666 186.729, 115.491 186.316, 114.085 186.165, 113.574 185.516, 111.365 185.267, 110.475 184.420, 107.444 184.268, 106.828 183.510, 103.746 182.824, 100.416 182.391, 97.576 182.271, 95.894 " />
            <path fill="none" stroke-width="3.0" stroke-linecap="butt" stroke-opacity="1.0" stroke="rgb(0, 0, 0)" stroke-linejoin="round" d=" M 173.928, 116.402 173.937, 116.440 174.367, 118.227 174.506, 118.807 174.954, 120.669 175.519, 124.792 175.620, 128.581 175.280, 131.859 174.541, 134.467 173.459, 136.278 172.094, 137.200 170.586, 137.478 169.855, 136.980 168.741, 136.223 166.858, 134.357 164.898, 131.672 162.907, 128.298 160.938, 124.401 160.521, 123.472 160.284, 122.940 159.046, 120.175 159.026, 120.126 157.860, 117.240 157.316, 115.893 155.886, 111.718 154.807, 107.670 154.120, 103.906 154.062, 103.179 154.056, 103.111 153.851, 100.567 153.927, 99.227 " />
            <path fill="none" stroke-width="3.0" stroke-linecap="butt" stroke-opacity="1.0" stroke="rgb(0, 0, 0)" stroke-linejoin="round" d=" M 167.855, 138.959 172.094, 137.200 " />
            <path fill="none" stroke-width="3.0" stroke-linecap="butt" stroke-opacity="1.0" stroke="rgb(0, 0, 0)" stroke-linejoin="round" d=" M 163.888, 97.527 164.614, 98.294 164.835, 98.588 164.993, 98.797 166.770, 101.158 168.836, 104.584 170.791, 108.261 " />
            <path fill="none" stroke-width="3.0" stroke-linecap="butt" stroke-opacity="1.0" stroke="rgb(0, 0, 0)" stroke-linejoin="round" d=" M 169.733, 118.366 173.883, 116.422 173.928, 116.402 173.513, 115.194 172.503, 112.248 170.791, 108.261 166.647, 110.308 " />
            <path fill="none" stroke-width="3.0" stroke-linecap="butt" stroke-opacity="1.0" stroke="rgb(0, 0, 0)" stroke-linejoin="round" d=" M 183.202, 191.696 182.979, 190.791 181.116, 187.681 180.496, 186.881 " />
            <path fill="none" stroke-width="3.0" stroke-linecap="butt" stroke-opacity="1.0" stroke="rgb(0, 0, 0)" stroke-linejoin="round" d=" M 144.211, 218.851 145.108, 219.626 154.218, 223.749 161.159, 226.890 163.751, 227.394 170.734, 227.187 176.243, 227.109 182.125, 226.166 186.860, 224.961 189.696, 223.709 192.966, 220.841 194.725, 219.066 196.187, 215.085 196.267, 212.915 196.267, 209.094 195.233, 204.938 193.218, 200.625 192.338, 199.212 188.189, 194.833 184.641, 192.538 183.202, 191.696 179.766, 189.686 " />
            <path fill="none" stroke-width="3.0" stroke-linecap="butt" stroke-opacity="1.0" stroke="rgb(0, 0, 0)" stroke-linejoin="round" d=" M 67.377, 186.739 65.562, 188.282 62.329, 192.302 60.675, 196.374 59.552, 200.554 58.801, 204.575 59.141, 208.034 60.596, 211.392 62.633, 215.799 65.575, 219.342 69.767, 224.289 77.682, 230.400 77.774, 230.471 86.175, 235.896 87.738, 236.906 96.729, 241.282 98.001, 241.901 100.742, 242.855 106.006, 244.195 114.362, 245.474 121.589, 245.825 128.770, 245.262 133.502, 244.090 136.716, 242.393 140.152, 240.490 142.685, 237.377 144.207, 233.788 144.996, 229.387 145.600, 225.919 145.089, 221.909 144.211, 218.851 143.856, 217.613 142.477, 214.422 140.668, 211.181 140.005, 209.994 " />
            <path fill="none" stroke-width="3.0" stroke-linecap="butt" stroke-opacity="1.0" stroke="rgb(0, 0, 0)" stroke-linejoin="round" d=" M 57.590, 126.269 54.060, 128.613 52.923, 129.367 51.181, 130.632 50.740, 131.054 47.087, 134.554 43.203, 139.113 40.114, 143.048 39.812, 143.431 39.806, 143.439 39.189, 144.226 35.466, 150.062 33.375, 154.840 32.040, 159.343 31.415, 163.827 31.553, 167.669 32.010, 170.465 32.153, 171.025 33.081, 174.011 34.553, 177.106 36.541, 179.943 37.706, 181.411 40.250, 183.731 41.737, 184.716 44.521, 186.504 47.655, 187.724 49.913, 188.275 53.493, 188.862 57.413, 188.874 61.946, 187.982 66.342, 186.343 66.818, 186.135 68.311, 185.483 73.001, 183.019 78.591, 178.895 " />
            <path fill="none" stroke-width="3.0" stroke-linecap="butt" stroke-opacity="1.0" stroke="rgb(0, 0, 0)" stroke-linejoin="round" d=" M 64.421, 123.033 57.590, 126.269 55.712, 127.454 54.060, 128.613 " />
            <path fill="none" stroke-width="3.0" stroke-linecap="butt" stroke-opacity="1.0" stroke="rgb(0, 0, 0)" stroke-linejoin="round" d=" M 173.707, 21.607 170.803, 21.745 167.045, 22.414 165.714, 22.818 164.190, 23.281 160.889, 25.321 157.992, 27.504 155.367, 30.971 153.890, 34.578 153.558, 39.048 155.225, 44.316 156.219, 46.213 157.612, 48.871 158.003, 49.616 158.392, 50.359 159.380, 52.245 159.619, 52.701 159.812, 53.069 160.572, 54.440 161.356, 55.854 161.668, 56.418 161.694, 56.464 162.714, 58.305 163.315, 60.310 163.456, 60.779 163.496, 60.912 163.630, 61.360 163.905, 62.277 164.381, 63.709 164.573, 64.287 164.817, 65.019 164.990, 65.538 165.029, 65.655 165.185, 66.125 165.315, 66.514 166.013, 68.612 166.143, 69.004 166.367, 69.678 167.274, 71.163 169.131, 74.206 170.813, 76.961 172.320, 77.700 173.434, 78.247 173.782, 78.417 174.488, 78.764 175.293, 79.021 178.359, 80.004 179.349, 79.909 181.662, 79.689 182.519, 79.607 182.564, 79.603 183.279, 79.405 185.046, 78.915 185.488, 78.793 185.815, 78.702 186.371, 78.501 189.090, 77.514 189.165, 77.469 192.804, 75.317 195.042, 73.486 196.991, 71.374 " />
            <path fill="none" stroke-width="3.0" stroke-linecap="butt" stroke-opacity="1.0" stroke="rgb(0, 0, 0)" stroke-linejoin="round" d=" M 183.227, 75.735 181.853, 76.918 181.763, 76.995 181.632, 77.108 178.441, 78.308 178.355, 78.340 175.874, 78.612 174.488, 78.764 " />
            <path fill="none" stroke-width="3.0" stroke-linecap="butt" stroke-opacity="1.0" stroke="rgb(0, 0, 0)" stroke-linejoin="round" d=" M 164.064, 71.007 161.818, 66.753 " />
            <path fill="none" stroke-width="3.0" stroke-linecap="butt" stroke-opacity="1.0" stroke="rgb(0, 0, 0)" stroke-linejoin="round" d=" M 196.970, 108.960 203.009, 105.554 203.141, 105.480 205.170, 103.962 209.734, 98.434 208.792, 94.736 204.380, 90.577 201.438, 88.010 199.465, 86.288 191.097, 81.401 " />
            <path fill="none" stroke-width="3.0" stroke-linecap="butt" stroke-opacity="1.0" stroke="rgb(0, 0, 0)" stroke-linejoin="round" d=" M 67.701, 120.820 58.434, 124.576 51.117, 127.542 48.276, 128.694 39.804, 134.006 36.644, 135.988 35.045, 141.050 40.114, 143.048 " />
            <path fill="none" stroke-width="3.0" stroke-linecap="butt" stroke-opacity="1.0" stroke="rgb(0, 0, 0)" stroke-linejoin="round" d=" M 90.342, 113.635 99.902, 110.703 100.086, 110.646 109.815, 108.337 119.545, 106.028 129.275, 103.719 133.540, 102.707 143.398, 101.024 150.019, 99.894 153.927, 99.227 158.626, 98.425 163.888, 97.527 164.761, 97.378 167.844, 97.117 168.561, 97.056 176.455, 96.387 178.507, 96.213 182.271, 95.894 183.526, 95.788 186.021, 95.576 188.777, 95.342 192.582, 95.646 193.704, 95.736 197.861, 96.068 197.911, 96.072 202.997, 96.478 203.066, 96.483 " />
            <path fill="none" stroke-width="3.0" stroke-linecap="butt" stroke-opacity="1.0" stroke="rgb(0, 0, 0)" stroke-linejoin="round" d=" M 203.141, 105.480 207.445, 100.142 " />
            <path fill="none" stroke-width="3.0" stroke-linecap="butt" stroke-opacity="1.0" stroke="rgb(0, 0, 0)" stroke-linejoin="round" d=" M 160.197, 66.746 161.818, 66.753 162.572, 66.757 164.165, 66.042 164.530, 65.879 164.535, 65.876 165.029, 65.655 " />
            <path fill="none" stroke-width="3.0" stroke-linecap="butt" stroke-opacity="1.0" stroke="rgb(0, 0, 0)" stroke-linejoin="round" d=" M 169.131, 74.206 167.918, 74.093 159.563, 74.168 158.473, 74.178 158.285, 74.208 156.001, 74.575 149.412, 75.632 147.720, 75.909 138.352, 77.438 128.739, 80.193 126.650, 80.792 119.673, 82.951 114.504, 84.550 105.679, 88.091 102.979, 89.174 94.223, 94.004 93.638, 94.327 86.697, 99.139 82.522, 101.959 78.176, 104.895 71.059, 111.635 67.254, 116.577 67.387, 118.912 67.470, 120.358 67.478, 120.501 67.545, 120.597 67.701, 120.820 68.592, 122.093 73.684, 120.493 74.478, 120.244 84.018, 117.245 86.474, 116.474 88.400, 115.578 90.187, 114.079 90.342, 113.635 " />
            <path fill="none" stroke-width="3.0" stroke-linecap="butt" stroke-opacity="1.0" stroke="rgb(0, 0, 0)" stroke-linejoin="round" d=" M 86.474, 116.474 85.354, 115.165 85.002, 114.753 85.904, 112.022 87.873, 109.640 88.535, 108.839 94.624, 104.808 102.033, 101.035 110.975, 96.859 120.158, 92.899 122.350, 91.953 131.671, 88.332 134.807, 87.113 144.382, 84.229 147.726, 83.222 151.446, 82.243 159.304, 80.175 161.516, 79.593 163.071, 79.444 165.782, 79.184 166.585, 79.107 173.782, 78.417 " />
            <path fill="none" stroke-width="3.0" stroke-linecap="butt" stroke-opacity="1.0" stroke="rgb(0, 0, 0)" stroke-linejoin="round" d=" M 201.438, 88.010 201.122, 87.362 197.513, 83.910 191.540, 80.312 186.371, 78.501 " />
            <path fill="none" stroke-width="3.0" stroke-linecap="butt" stroke-opacity="1.0" stroke="rgb(0, 0, 0)" stroke-linejoin="round" d=" M 193.066, 112.487 199.900, 109.498 202.153, 108.015 202.872, 105.986 203.009, 105.554 " />
            <path fill="none" stroke-width="3.0" stroke-linecap="butt" stroke-opacity="1.0" stroke="rgb(0, 0, 0)" stroke-linejoin="round" d=" M 194.508, 108.166 196.970, 108.960 197.307, 109.068 " />
            <path fill="none" stroke-width="3.0" stroke-linecap="butt" stroke-opacity="1.0" stroke="rgb(0, 0, 0)" stroke-linejoin="round" d=" M 193.633, 104.525 194.508, 108.166 191.867, 108.889 " />
            <path fill="none" stroke-width="3.0" stroke-linecap="butt" stroke-opacity="1.0" stroke="rgb(0, 0, 0)" stroke-linejoin="round" d=" M 152.780, 69.114 156.780, 69.259 158.086, 69.307 160.197, 66.746 160.555, 66.311 160.753, 66.071 160.989, 65.785 161.183, 65.550 161.923, 64.652 162.788, 63.603 163.090, 63.236 163.102, 63.222 163.558, 62.669 163.630, 61.360 " />
            <path fill="none" stroke-width="3.0" stroke-linecap="butt" stroke-opacity="1.0" stroke="rgb(0, 0, 0)" stroke-linejoin="round" d=" M 156.219, 46.213 152.234, 46.282 149.305, 46.813 149.080, 47.054 147.227, 49.037 143.527, 53.852 143.203, 60.584 146.140, 65.002 146.228, 65.133 146.420, 65.422 148.246, 68.035 " />
            <path fill="none" stroke-width="3.0" stroke-linecap="butt" stroke-opacity="1.0" stroke="rgb(0, 0, 0)" stroke-linejoin="round" d=" M 189.165, 77.469 192.027, 78.391 195.287, 79.343 199.467, 80.508 204.670, 80.162 208.163, 79.051 211.252, 78.062 212.169, 76.783 212.446, 71.982 210.997, 64.613 209.128, 58.835 207.482, 54.474 208.712, 51.262 209.858, 46.653 209.981, 41.652 208.918, 36.450 205.616, 32.213 200.691, 28.400 196.843, 26.472 193.951, 25.319 191.706, 21.302 188.433, 16.019 183.611, 9.937 179.637, 6.860 178.085, 6.822 175.234, 8.435 172.259, 10.781 168.862, 15.372 167.331, 18.269 165.714, 22.818 " />
            <path fill="none" stroke-width="3.0" stroke-linecap="butt" stroke-opacity="1.0" stroke="rgb(0, 0, 0)" stroke-linejoin="round" d=" M 196.991, 71.374 200.099, 73.708 204.168, 76.181 209.148, 77.741 212.169, 76.783 " />
            <path fill="none" stroke-width="3.0" stroke-linecap="butt" stroke-opacity="1.0" stroke="rgb(0, 0, 0)" stroke-linejoin="round" d=" M 195.042, 73.486 192.067, 75.731 187.593, 76.963 187.377, 77.022 183.227, 75.735 179.894, 70.324 179.466, 69.094 177.912, 64.629 177.702, 64.026 177.042, 62.128 176.730, 60.629 175.802, 56.173 175.729, 55.821 175.039, 51.134 " />
            <path fill="none" stroke-width="3.0" stroke-linecap="butt" stroke-opacity="1.0" stroke="rgb(0, 0, 0)" stroke-linejoin="round" d=" M 167.045, 22.414 165.497, 23.376 162.901, 24.989 161.164, 28.907 162.127, 31.727 162.160, 31.823 163.238, 34.983 166.797, 41.165 169.882, 45.121 170.108, 45.411 171.147, 46.742 171.298, 46.937 171.380, 47.042 172.497, 48.290 175.039, 51.134 173.596, 51.848 173.246, 52.021 172.766, 52.280 170.136, 53.696 169.599, 53.986 " />
            <path fill="none" stroke-width="3.0" stroke-linecap="butt" stroke-opacity="1.0" stroke="rgb(0, 0, 0)" stroke-linejoin="round" d=" M 208.304, 58.890 207.203, 54.710 206.418, 51.731 " />
            <path fill="none" stroke-width="3.0" stroke-linecap="butt" stroke-opacity="1.0" stroke="rgb(0, 0, 0)" stroke-linejoin="round" d=" M 179.637, 6.860 176.857, 8.442 174.760, 13.189 173.998, 17.871 173.707, 21.607 " />
            <path fill="none" stroke-width="3.0" stroke-linecap="butt" stroke-opacity="1.0" stroke="rgb(0, 0, 0)" stroke-linejoin="round" d=" M 194.670, 26.979 193.605, 25.410 190.228, 20.437 " />
            <path fill="none" stroke-width="3.0" stroke-linecap="butt" stroke-opacity="1.0" stroke="rgb(0, 0, 0)" stroke-linejoin="round" d=" M 149.080, 47.054 144.684, 44.592 135.186, 41.465 132.851, 40.696 126.591, 39.141 117.235, 38.622 111.743, 38.485 109.581, 38.738 105.377, 39.230 98.840, 40.788 95.214, 42.120 92.869, 42.982 88.117, 45.558 79.787, 50.290 75.095, 54.451 67.980, 61.478 66.145, 63.289 60.493, 71.538 59.323, 73.246 55.464, 82.471 54.272, 85.323 52.564, 90.521 " />
            <path fill="none" stroke-width="3.0" stroke-linecap="butt" stroke-opacity="1.0" stroke="rgb(0, 0, 0)" stroke-linejoin="round" d=" M 159.097, 29.323 156.206, 31.452 153.890, 34.578 " />
            <path fill="none" stroke-width="3.0" stroke-linecap="butt" stroke-opacity="1.0" stroke="rgb(0, 0, 0)" stroke-linejoin="round" d=" M 146.140, 65.002 144.129, 65.046 134.200, 66.238 132.804, 66.406 122.875, 67.598 120.535, 67.879 " />
            <path fill="none" stroke-width="3.0" stroke-linecap="butt" stroke-opacity="1.0" stroke="rgb(0, 0, 0)" stroke-linejoin="round" d=" M 48.423, 111.726 48.974, 110.181 57.090, 104.339 58.669, 103.203 60.322, 102.456 69.436, 98.340 71.688, 97.323 75.947, 95.400 85.452, 92.294 94.958, 89.189 99.058, 87.850 108.787, 85.538 118.516, 83.226 119.673, 82.951 " />
            <path fill="none" stroke-width="3.0" stroke-linecap="butt" stroke-opacity="1.0" stroke="rgb(0, 0, 0)" stroke-linejoin="round" d=" M 100.259, 89.379 105.679, 88.091 " />
            <path fill="none" stroke-width="3.0" stroke-linecap="butt" stroke-opacity="1.0" stroke="rgb(0, 0, 0)" stroke-linejoin="round" d=" M 53.394, 89.641 52.564, 90.521 52.248, 90.856 50.118, 96.316 48.543, 106.191 47.562, 112.341 " />
            <path fill="none" stroke-width="3.0" stroke-linecap="butt" stroke-opacity="1.0" stroke="rgb(0, 0, 0)" stroke-linejoin="round" d=" M 109.581, 38.738 108.723, 38.189 106.583, 37.307 102.783, 37.493 98.816, 38.687 96.256, 40.410 95.214, 42.120 " />
            <path fill="none" stroke-width="3.0" stroke-linecap="butt" stroke-opacity="1.0" stroke="rgb(0, 0, 0)" stroke-linejoin="round" d=" M 66.946, 114.029 57.728, 117.905 55.324, 118.916 54.080, 119.439 52.934, 119.921 46.142, 122.777 44.532, 123.454 36.212, 129.002 32.779, 131.292 " />
            <path fill="none" stroke-width="3.0" stroke-linecap="butt" stroke-opacity="1.0" stroke="rgb(0, 0, 0)" stroke-linejoin="round" d=" M 100.259, 89.379 99.683, 89.564 90.172, 92.655 80.662, 95.746 75.089, 97.557 66.983, 101.189 64.844, 102.146 58.859, 104.828 56.788, 105.755 48.649, 111.565 48.423, 111.726 47.562, 112.341 46.625, 113.010 41.070, 117.376 35.955, 125.317 32.779, 131.292 31.396, 136.814 32.516, 140.624 39.727, 143.428 39.806, 143.439 " />
            <path fill="none" stroke-width="3.0" stroke-linecap="butt" stroke-opacity="1.0" stroke="rgb(0, 0, 0)" stroke-linejoin="round" d=" M 32.516, 140.624 33.991, 135.339 42.414, 129.950 42.822, 129.689 45.916, 127.709 51.636, 125.365 60.889, 121.574 63.091, 120.673 64.062, 120.275 67.387, 118.912 " />
            <path fill="none" stroke-width="3.0" stroke-linecap="butt" stroke-opacity="1.0" stroke="rgb(0, 0, 0)" stroke-linejoin="round" d=" M 90.066, 111.797 90.452, 111.678 91.094, 111.480 99.789, 108.799 109.518, 106.485 119.246, 104.171 128.975, 101.857 133.879, 100.691 143.730, 98.972 150.626, 97.768 154.177, 97.148 156.517, 96.740 162.125, 95.761 166.078, 95.071 172.919, 94.516 173.937, 94.433 180.551, 93.896 181.907, 93.786 182.350, 93.750 184.521, 93.574 191.352, 93.019 192.022, 93.081 194.398, 93.299 202.624, 94.056 203.879, 94.171 206.148, 94.380 209.734, 98.434 " />
            <path fill="none" stroke-width="3.0" stroke-linecap="butt" stroke-opacity="1.0" stroke="rgb(0, 0, 0)" stroke-linejoin="round" d=" M 167.274, 71.163 164.064, 71.007 166.143, 69.004 " />
            <path fill="none" stroke-width="3.0" stroke-linecap="butt" stroke-opacity="1.0" stroke="rgb(0, 0, 0)" stroke-linejoin="round" d=" M 66.818, 186.135 67.377, 186.739 " />
            <path fill="none" stroke-width="3.0" stroke-linecap="butt" stroke-opacity="1.0" stroke="rgb(0, 0, 0)" stroke-linejoin="round" d=" M 156.780, 69.259 159.563, 74.168 " />
            <path fill="none" stroke-width="3.0" stroke-linecap="butt" stroke-opacity="1.0" stroke="rgb(0, 0, 0)" stroke-linejoin="round" d=" M 164.573, 64.287 163.858, 64.621 163.847, 64.626 163.523, 64.778 161.311, 65.811 160.753, 66.071 " />
            <path fill="none" stroke-width="3.0" stroke-linecap="butt" stroke-opacity="1.0" stroke="rgb(0, 0, 0)" stroke-linejoin="round" d=" M 185.046, 78.915 191.540, 80.312 " />
            <path fill="none" stroke-width="3.0" stroke-linecap="butt" stroke-opacity="1.0" stroke="rgb(0, 0, 0)" stroke-linejoin="round" d=" M 197.861, 96.068 202.191, 99.449 " />
        </g>
    </g>
</svg>
