<?xml version='1.0' encoding='ascii'?>
<svg xmlns="http://www.w3.org/2000/svg" version="1.1" width="250" height="250">
    <g id="ViewLayer_LineSet" xmlns:inkscape="http://www.inkscape.org/namespaces/inkscape" inkscape:groupmode="lineset" inkscape:label="ViewLayer_LineSet">
        <g xmlns:inkscape="http://www.inkscape.org/namespaces/inkscape" inkscape:groupmode="layer" id="strokes" inkscape:label="strokes">
            <path fill="none" stroke-width="3.0" stroke-linecap="butt" stroke-opacity="1.0" stroke="rgb(0, 0, 0)" stroke-linejoin="round" d=" M 118.130, 217.226 118.803, 217.258 123.345, 217.178 126.296, 216.928 127.706, 216.808 131.694, 216.167 137.975, 214.818 143.075, 213.512 147.105, 211.928 154.015, 208.788 160.251, 205.207 166.548, 200.443 169.472, 197.891 176.000, 191.201 177.224, 189.552 181.608, 183.642 183.250, 180.655 " />
            <path fill="none" stroke-width="3.0" stroke-linecap="butt" stroke-opacity="1.0" stroke="rgb(0, 0, 0)" stroke-linejoin="round" d=" M 56.473, 106.816 55.640, 108.166 54.398, 110.179 50.562, 119.415 49.874, 121.071 49.128, 124.148 47.217, 132.033 47.166, 132.579 47.147, 132.784 46.529, 139.397 46.765, 149.394 46.838, 152.515 48.761, 161.825 49.713, 165.201 52.591, 173.281 52.719, 173.641 56.999, 181.873 62.372, 189.571 66.704, 194.321 " />
            <path fill="none" stroke-width="3.0" stroke-linecap="butt" stroke-opacity="1.0" stroke="rgb(0, 0, 0)" stroke-linejoin="round" d=" M 191.044, 125.812 190.397, 122.901 186.788, 113.575 186.127, 111.867 185.417, 110.648 184.590, 109.228 " />
            <path fill="none" stroke-width="3.0" stroke-linecap="butt" stroke-opacity="1.0" stroke="rgb(0, 0, 0)" stroke-linejoin="round" d=" M 108.596, 154.413 109.306, 155.811 110.953, 157.834 113.199, 159.392 115.810, 160.482 118.183, 160.778 120.564, 160.547 123.205, 159.530 125.490, 158.034 127.188, 156.056 127.935, 154.677 " />
            <path fill="none" stroke-width="3.0" stroke-linecap="butt" stroke-opacity="1.0" stroke="rgb(0, 0, 0)" stroke-linejoin="round" d=" M 146.578, 102.257 147.899, 105.029 148.953, 108.380 149.686, 112.166 149.674, 112.233 150.059, 120.596 150.033, 120.886 150.010, 121.150 149.689, 124.809 148.886, 129.116 147.704, 133.155 146.203, 136.732 144.454, 139.672 144.231, 139.923 142.543, 141.827 140.558, 143.087 139.961, 143.176 138.586, 143.383 138.122, 143.212 136.708, 142.692 134.997, 141.040 133.514, 138.498 132.306, 135.184 131.407, 131.259 130.839, 126.913 130.618, 122.527 130.609, 122.359 130.610, 122.340 130.707, 117.882 131.143, 113.650 131.926, 109.677 132.784, 106.890 133.023, 106.112 133.379, 105.324 134.392, 103.081 135.388, 101.578 " />
            <path fill="none" stroke-width="3.0" stroke-linecap="butt" stroke-opacity="1.0" stroke="rgb(0, 0, 0)" stroke-linejoin="round" d=" M 133.023, 106.112 131.887, 108.878 " />
            <path fill="none" stroke-width="3.0" stroke-linecap="butt" stroke-opacity="1.0" stroke="rgb(0, 0, 0)" stroke-linejoin="round" d=" M 108.152, 121.985 108.146, 122.062 107.817, 126.441 107.179, 130.718 106.244, 134.611 105.029, 137.926 103.559, 140.501 101.873, 142.207 100.946, 142.586 100.209, 142.887 100.023, 142.963 98.131, 143.043 97.623, 142.662 97.069, 142.247 96.112, 141.530 94.221, 139.413 93.265, 137.792 92.497, 136.490 91.032, 132.905 89.905, 128.840 89.180, 124.491 88.892, 120.132 88.899, 119.848 88.905, 119.598 89.000, 115.922 89.478, 111.871 90.300, 108.125 91.433, 104.817 92.342, 103.021 92.829, 102.059 93.278, 101.468 " />
            <path fill="none" stroke-width="3.0" stroke-linecap="butt" stroke-opacity="1.0" stroke="rgb(0, 0, 0)" stroke-linejoin="round" d=" M 92.497, 136.490 93.416, 138.160 " />
            <path fill="none" stroke-width="3.0" stroke-linecap="butt" stroke-opacity="1.0" stroke="rgb(0, 0, 0)" stroke-linejoin="round" d=" M 103.676, 101.096 104.880, 102.986 105.646, 104.782 106.160, 105.986 106.554, 107.349 107.198, 109.580 107.842, 113.442 " />
            <path fill="none" stroke-width="3.0" stroke-linecap="butt" stroke-opacity="1.0" stroke="rgb(0, 0, 0)" stroke-linejoin="round" d=" M 106.865, 108.079 106.160, 105.986 " />
            <path fill="none" stroke-width="3.0" stroke-linecap="butt" stroke-opacity="1.0" stroke="rgb(0, 0, 0)" stroke-linejoin="round" d=" M 108.839, 123.872 108.181, 122.064 108.152, 121.985 108.153, 121.879 108.175, 117.630 107.842, 113.442 108.527, 115.442 " />
            <path fill="none" stroke-width="3.0" stroke-linecap="butt" stroke-opacity="1.0" stroke="rgb(0, 0, 0)" stroke-linejoin="round" d=" M 174.360, 207.655 175.242, 205.465 176.009, 203.562 177.021, 193.613 177.146, 192.382 177.293, 190.560 177.224, 189.552 " />
            <path fill="none" stroke-width="3.0" stroke-linecap="butt" stroke-opacity="1.0" stroke="rgb(0, 0, 0)" stroke-linejoin="round" d=" M 144.188, 229.962 146.476, 230.310 149.985, 230.843 154.769, 230.476 159.507, 229.019 164.613, 225.943 168.983, 222.025 172.207, 216.679 173.001, 214.400 174.045, 209.955 175.242, 205.465 " />
            <path fill="none" stroke-width="3.0" stroke-linecap="butt" stroke-opacity="1.0" stroke="rgb(0, 0, 0)" stroke-linejoin="round" d=" M 126.296, 216.928 126.726, 217.741 131.561, 223.379 132.459, 224.218 137.927, 227.833 143.351, 229.922 146.476, 230.310 " />
            <path fill="none" stroke-width="3.0" stroke-linecap="butt" stroke-opacity="1.0" stroke="rgb(0, 0, 0)" stroke-linejoin="round" d=" M 66.704, 194.321 61.379, 197.712 58.643, 199.856 53.468, 205.182 50.342, 210.736 49.400, 213.929 48.003, 218.748 47.522, 223.280 47.916, 227.348 48.686, 230.566 49.843, 234.678 52.167, 238.252 54.614, 240.518 59.836, 242.793 65.632, 244.434 73.230, 245.751 79.538, 246.187 85.599, 245.843 86.523, 245.764 93.835, 244.852 100.126, 242.599 105.430, 240.074 108.562, 237.610 111.012, 234.262 113.344, 230.989 115.269, 227.519 116.646, 224.030 117.699, 221.287 118.146, 218.010 118.130, 217.226 " />
            <path fill="none" stroke-width="3.0" stroke-linecap="butt" stroke-opacity="1.0" stroke="rgb(0, 0, 0)" stroke-linejoin="round" d=" M 209.123, 138.681 205.262, 134.517 201.725, 131.525 201.451, 131.294 201.188, 131.072 196.758, 128.315 191.044, 125.812 " />
            <path fill="none" stroke-width="3.0" stroke-linecap="butt" stroke-opacity="1.0" stroke="rgb(0, 0, 0)" stroke-linejoin="round" d=" M 183.250, 180.655 183.692, 180.959 185.427, 181.969 189.779, 184.059 193.945, 185.450 198.219, 186.144 201.897, 186.016 205.246, 185.360 207.215, 184.915 210.153, 183.666 214.013, 181.054 216.371, 178.806 217.322, 177.523 219.148, 174.815 220.484, 171.891 221.298, 169.097 221.775, 165.996 221.805, 162.466 221.109, 158.365 219.755, 154.258 217.693, 149.914 214.092, 144.626 213.120, 143.453 211.833, 141.916 209.123, 138.681 210.238, 140.002 211.833, 141.916 " />
            <path fill="none" stroke-width="3.0" stroke-linecap="butt" stroke-opacity="1.0" stroke="rgb(0, 0, 0)" stroke-linejoin="round" d=" M 49.128, 124.148 45.900, 126.040 42.906, 128.289 41.317, 130.062 41.158, 130.240 40.376, 131.112 36.219, 137.132 34.167, 140.568 32.741, 144.401 31.781, 147.553 31.284, 150.302 31.303, 152.743 31.358, 154.753 31.544, 156.825 32.945, 161.513 33.476, 162.842 35.796, 166.345 38.627, 169.197 41.020, 170.875 43.442, 172.079 46.927, 172.989 48.874, 173.420 52.591, 173.281 " />
            <path fill="none" stroke-width="3.0" stroke-linecap="butt" stroke-opacity="1.0" stroke="rgb(0, 0, 0)" stroke-linejoin="round" d=" M 89.770, 55.961 89.441, 57.522 88.530, 61.847 88.031, 69.297 88.192, 70.881 88.197, 70.937 88.686, 75.754 89.246, 76.825 89.412, 77.143 91.231, 80.472 92.402, 82.614 92.564, 82.654 92.832, 82.720 94.180, 83.050 95.611, 83.346 97.177, 83.668 99.965, 84.244 100.236, 84.300 100.804, 84.208 106.316, 83.322 106.396, 83.309 106.983, 83.215 108.741, 82.770 108.891, 82.732 112.742, 81.758 113.272, 81.558 118.932, 79.420 124.299, 81.613 125.020, 81.908 128.506, 82.892 128.652, 82.933 130.677, 83.505 133.805, 84.090 133.859, 84.100 136.086, 84.516 137.370, 84.756 137.995, 84.643 140.686, 84.158 142.316, 83.864 143.472, 83.655 144.968, 83.259 145.105, 83.028 145.650, 82.112 146.382, 80.879 148.177, 77.858 148.717, 76.482 148.775, 76.077 149.458, 71.233 149.463, 71.195 149.627, 70.036 149.420, 62.569 148.782, 58.826 148.411, 56.650 " />
            <path fill="none" stroke-width="3.0" stroke-linecap="butt" stroke-opacity="1.0" stroke="rgb(0, 0, 0)" stroke-linejoin="round" d=" M 35.802, 112.242 36.342, 111.742 37.925, 110.274 38.109, 110.104 38.717, 109.896 45.754, 107.486 52.286, 105.248 54.827, 104.378 56.336, 103.861 58.515, 103.509 68.387, 101.914 78.259, 100.319 83.807, 99.423 93.800, 99.050 95.633, 98.982 101.340, 98.769 111.334, 98.397 118.573, 98.127 128.553, 98.747 137.424, 99.297 144.602, 99.743 153.609, 100.301 163.446, 102.099 173.283, 103.896 181.801, 105.452 182.541, 105.712 186.517, 107.110 188.496, 107.806 196.023, 110.452 200.969, 112.191 203.031, 113.941 203.287, 114.158 " />
            <path fill="none" stroke-width="3.0" stroke-linecap="butt" stroke-opacity="1.0" stroke="rgb(0, 0, 0)" stroke-linejoin="round" d=" M 201.451, 131.294 206.618, 127.829 207.321, 122.803 " />
            <path fill="none" stroke-width="3.0" stroke-linecap="butt" stroke-opacity="1.0" stroke="rgb(0, 0, 0)" stroke-linejoin="round" d=" M 178.240, 107.056 184.356, 109.148 184.590, 109.228 186.316, 109.818 194.150, 112.498 196.588, 114.465 " />
            <path fill="none" stroke-width="3.0" stroke-linecap="butt" stroke-opacity="1.0" stroke="rgb(0, 0, 0)" stroke-linejoin="round" d=" M 43.090, 112.350 45.109, 110.587 54.600, 107.438 54.747, 107.389 56.473, 106.816 56.579, 106.781 60.601, 105.447 " />
            <path fill="none" stroke-width="3.0" stroke-linecap="butt" stroke-opacity="1.0" stroke="rgb(0, 0, 0)" stroke-linejoin="round" d=" M 32.957, 120.461 34.329, 125.570 41.317, 130.062 " />
            <path fill="none" stroke-width="3.0" stroke-linecap="butt" stroke-opacity="1.0" stroke="rgb(0, 0, 0)" stroke-linejoin="round" d=" M 179.896, 107.337 178.240, 107.056 168.380, 105.383 158.521, 103.710 151.830, 102.575 146.578, 102.257 142.575, 102.014 136.927, 101.672 135.388, 101.578 125.406, 100.973 118.627, 100.563 108.634, 100.919 103.676, 101.096 102.466, 101.140 96.213, 101.363 93.278, 101.468 85.675, 101.739 75.782, 103.202 65.890, 104.665 60.601, 105.447 58.284, 105.789 56.802, 106.283 56.232, 106.473 54.396, 107.084 44.909, 110.244 43.873, 110.589 42.801, 110.947 42.457, 111.061 40.868, 111.590 40.702, 111.646 40.190, 111.816 40.147, 111.855 " />
            <path fill="none" stroke-width="3.0" stroke-linecap="butt" stroke-opacity="1.0" stroke="rgb(0, 0, 0)" stroke-linejoin="round" d=" M 198.908, 113.855 198.422, 113.688 195.899, 112.823 186.538, 109.614 184.576, 108.941 184.384, 108.876 179.896, 107.337 " />
            <path fill="none" stroke-width="3.0" stroke-linecap="butt" stroke-opacity="1.0" stroke="rgb(0, 0, 0)" stroke-linejoin="round" d=" M 40.806, 101.342 35.395, 106.117 30.446, 111.646 28.723, 115.718 29.816, 119.115 30.918, 119.720 31.887, 120.252 32.556, 120.619 32.957, 120.461 36.001, 119.261 39.131, 117.051 42.067, 114.648 43.090, 112.350 " />
            <path fill="none" stroke-width="3.0" stroke-linecap="butt" stroke-opacity="1.0" stroke="rgb(0, 0, 0)" stroke-linejoin="round" d=" M 91.231, 80.472 82.227, 81.883 78.383, 82.995 70.930, 85.150 61.420, 88.242 60.203, 88.637 54.340, 91.419 51.509, 92.762 45.287, 97.239 40.806, 101.342 35.907, 106.394 32.713, 109.721 " />
            <path fill="none" stroke-width="3.0" stroke-linecap="butt" stroke-opacity="1.0" stroke="rgb(0, 0, 0)" stroke-linejoin="round" d=" M 34.860, 116.412 31.903, 114.768 31.795, 112.410 32.122, 111.453 32.713, 109.721 " />
            <path fill="none" stroke-width="3.0" stroke-linecap="butt" stroke-opacity="1.0" stroke="rgb(0, 0, 0)" stroke-linejoin="round" d=" M 42.067, 114.648 39.542, 115.446 38.748, 115.697 38.416, 115.802 " />
            <path fill="none" stroke-width="3.0" stroke-linecap="butt" stroke-opacity="1.0" stroke="rgb(0, 0, 0)" stroke-linejoin="round" d=" M 35.907, 106.394 35.975, 106.344 40.192, 103.275 41.540, 102.502 42.606, 101.890 42.608, 101.889 46.316, 99.762 46.545, 99.648 51.437, 97.229 54.909, 95.512 54.930, 95.504 64.159, 91.653 65.348, 91.156 69.877, 89.858 69.900, 89.851 78.064, 87.510 80.234, 87.021 84.154, 86.137 93.909, 83.937 94.009, 83.915 97.177, 83.668 " />
            <path fill="none" stroke-width="3.0" stroke-linecap="butt" stroke-opacity="1.0" stroke="rgb(0, 0, 0)" stroke-linejoin="round" d=" M 108.741, 82.770 109.726, 82.693 110.686, 82.619 111.783, 82.598 119.138, 82.461 127.519, 82.823 127.597, 82.826 127.665, 82.833 128.652, 82.933 " />
            <path fill="none" stroke-width="3.0" stroke-linecap="butt" stroke-opacity="1.0" stroke="rgb(0, 0, 0)" stroke-linejoin="round" d=" M 140.686, 84.158 144.378, 84.534 154.083, 86.945 155.066, 87.190 160.249, 88.478 160.455, 88.529 170.012, 91.474 172.564, 92.261 173.340, 92.499 177.538, 94.329 180.111, 95.450 183.964, 97.128 189.920, 100.170 192.734, 101.608 194.675, 102.747 199.003, 105.288 201.988, 107.476 203.423, 108.528 206.717, 111.950 206.806, 112.205 207.665, 114.671 207.549, 117.035 204.593, 118.607 " />
            <path fill="none" stroke-width="3.0" stroke-linecap="butt" stroke-opacity="1.0" stroke="rgb(0, 0, 0)" stroke-linejoin="round" d=" M 196.588, 114.465 197.506, 116.653 201.118, 119.148 204.171, 121.445 207.321, 122.803 207.539, 122.897 209.247, 121.995 209.491, 121.867 210.264, 121.458 211.404, 118.078 209.663, 113.948 204.692, 108.273 199.185, 103.344 194.628, 99.115 188.276, 94.468 187.277, 93.977 179.412, 90.114 169.960, 86.849 168.522, 86.352 164.490, 85.100 157.081, 82.800 147.238, 81.033 146.382, 80.879 " />
            <path fill="none" stroke-width="3.0" stroke-linecap="butt" stroke-opacity="1.0" stroke="rgb(0, 0, 0)" stroke-linejoin="round" d=" M 197.506, 116.653 200.673, 117.760 201.086, 117.904 " />
            <path fill="none" stroke-width="3.0" stroke-linecap="butt" stroke-opacity="1.0" stroke="rgb(0, 0, 0)" stroke-linejoin="round" d=" M 144.933, 80.568 147.844, 75.673 148.153, 75.153 148.728, 71.092 148.734, 71.052 149.325, 66.881 148.759, 60.463 148.514, 59.152 148.194, 57.441 147.862, 55.664 " />
            <path fill="none" stroke-width="3.0" stroke-linecap="butt" stroke-opacity="1.0" stroke="rgb(0, 0, 0)" stroke-linejoin="round" d=" M 118.655, 74.989 123.210, 77.426 125.559, 78.385 129.598, 80.035 133.797, 80.820 138.409, 81.681 142.902, 80.914 144.782, 80.593 144.933, 80.568 144.952, 80.623 145.440, 82.001 145.433, 82.018 144.968, 83.259 " />
            <path fill="none" stroke-width="3.0" stroke-linecap="butt" stroke-opacity="1.0" stroke="rgb(0, 0, 0)" stroke-linejoin="round" d=" M 92.402, 82.614 91.739, 81.344 92.062, 80.342 92.197, 79.924 " />
            <path fill="none" stroke-width="3.0" stroke-linecap="butt" stroke-opacity="1.0" stroke="rgb(0, 0, 0)" stroke-linejoin="round" d=" M 118.932, 79.420 118.810, 78.137 118.782, 77.843 118.680, 76.318 118.655, 74.989 114.007, 77.314 111.455, 78.279 107.524, 79.766 106.312, 79.961 98.663, 81.195 97.358, 80.938 93.321, 80.145 92.197, 79.924 90.275, 76.409 89.197, 74.439 88.830, 70.828 88.824, 70.770 88.353, 66.153 89.169, 59.758 89.623, 57.757 89.931, 56.401 90.251, 54.988 " />
            <path fill="none" stroke-width="3.0" stroke-linecap="butt" stroke-opacity="1.0" stroke="rgb(0, 0, 0)" stroke-linejoin="round" d=" M 102.206, 24.350 102.195, 24.351 97.197, 25.000 90.606, 26.333 82.652, 29.648 78.079, 33.887 78.591, 39.757 81.438, 45.603 86.142, 51.120 87.821, 52.700 90.251, 54.988 89.770, 55.961 " />
            <path fill="none" stroke-width="3.0" stroke-linecap="butt" stroke-opacity="1.0" stroke="rgb(0, 0, 0)" stroke-linejoin="round" d=" M 148.782, 58.826 151.310, 55.739 153.438, 53.029 153.526, 52.917 157.623, 47.725 160.134, 43.438 160.913, 41.374 161.667, 35.403 157.168, 30.976 156.474, 30.477 148.633, 26.982 142.084, 25.500 137.209, 24.756 137.095, 24.738 " />
            <path fill="none" stroke-width="3.0" stroke-linecap="butt" stroke-opacity="1.0" stroke="rgb(0, 0, 0)" stroke-linejoin="round" d=" M 102.195, 24.351 104.528, 20.342 108.150, 15.209 114.199, 9.666 119.982, 7.324 125.673, 9.791 131.506, 15.464 134.928, 20.678 137.095, 24.738 " />
            <path fill="none" stroke-width="3.0" stroke-linecap="butt" stroke-opacity="1.0" stroke="rgb(0, 0, 0)" stroke-linejoin="round" d=" M 137.209, 24.756 134.928, 20.678 134.360, 19.743 131.506, 15.464 131.111, 15.068 125.820, 9.922 125.673, 9.791 " />
            <path fill="none" stroke-width="3.0" stroke-linecap="butt" stroke-opacity="1.0" stroke="rgb(0, 0, 0)" stroke-linejoin="round" d=" M 148.411, 56.650 147.862, 55.664 151.946, 52.054 152.131, 51.889 157.063, 46.476 160.148, 40.689 160.892, 34.825 156.474, 30.477 " />
            <path fill="none" stroke-width="3.0" stroke-linecap="butt" stroke-opacity="1.0" stroke="rgb(0, 0, 0)" stroke-linejoin="round" d=" M 82.652, 29.648 82.040, 30.131 77.384, 34.448 77.902, 40.424 78.832, 42.504 81.169, 46.841 85.145, 52.232 86.220, 53.499 87.486, 54.991 89.441, 57.522 " />
            <path fill="none" stroke-width="3.0" stroke-linecap="butt" stroke-opacity="1.0" stroke="rgb(0, 0, 0)" stroke-linejoin="round" d=" M 104.528, 20.342 102.206, 24.350 " />
            <path fill="none" stroke-width="3.0" stroke-linecap="butt" stroke-opacity="1.0" stroke="rgb(0, 0, 0)" stroke-linejoin="round" d=" M 181.549, 83.207 179.197, 78.048 173.178, 70.062 171.600, 67.970 165.424, 62.017 157.886, 55.446 157.441, 55.058 153.526, 52.917 " />
            <path fill="none" stroke-width="3.0" stroke-linecap="butt" stroke-opacity="1.0" stroke="rgb(0, 0, 0)" stroke-linejoin="round" d=" M 76.637, 72.923 67.291, 76.480 64.965, 77.366 64.472, 77.553 " />
            <path fill="none" stroke-width="3.0" stroke-linecap="butt" stroke-opacity="1.0" stroke="rgb(0, 0, 0)" stroke-linejoin="round" d=" M 66.016, 76.422 64.472, 77.553 60.210, 81.401 58.635, 82.824 54.340, 91.419 " />
            <path fill="none" stroke-width="3.0" stroke-linecap="butt" stroke-opacity="1.0" stroke="rgb(0, 0, 0)" stroke-linejoin="round" d=" M 78.745, 72.161 76.637, 72.923 76.805, 72.894 86.653, 71.153 88.192, 70.881 " />
            <path fill="none" stroke-width="3.0" stroke-linecap="butt" stroke-opacity="1.0" stroke="rgb(0, 0, 0)" stroke-linejoin="round" d=" M 163.617, 73.974 153.804, 72.047 149.463, 71.195 " />
            <path fill="none" stroke-width="3.0" stroke-linecap="butt" stroke-opacity="1.0" stroke="rgb(0, 0, 0)" stroke-linejoin="round" d=" M 187.277, 93.977 183.149, 84.868 182.914, 84.349 181.549, 83.207 176.424, 78.916 174.958, 77.746 " />
            <path fill="none" stroke-width="3.0" stroke-linecap="butt" stroke-opacity="1.0" stroke="rgb(0, 0, 0)" stroke-linejoin="round" d=" M 86.220, 53.499 84.801, 54.207 76.993, 60.456 76.360, 60.962 70.631, 66.762 64.323, 74.521 62.608, 76.630 60.210, 81.401 " />
            <path fill="none" stroke-width="3.0" stroke-linecap="butt" stroke-opacity="1.0" stroke="rgb(0, 0, 0)" stroke-linejoin="round" d=" M 30.918, 119.720 32.303, 124.564 40.721, 129.960 41.158, 130.240 " />
            <path fill="none" stroke-width="3.0" stroke-linecap="butt" stroke-opacity="1.0" stroke="rgb(0, 0, 0)" stroke-linejoin="round" d=" M 201.725, 131.525 208.693, 126.873 209.491, 121.867 " />
        </g>
    </g>
</svg>
