<?xml version='1.0' encoding='ascii'?>
<svg xmlns="http://www.w3.org/2000/svg" version="1.1" width="250" height="250">
    <g id="ViewLayer_LineSet" xmlns:inkscape="http://www.inkscape.org/namespaces/inkscape" inkscape:groupmode="lineset" inkscape:label="ViewLayer_LineSet">
        <g xmlns:inkscape="http://www.inkscape.org/namespaces/inkscape" inkscape:groupmode="layer" id="strokes" inkscape:label="strokes">
            <path fill="none" stroke-width="3.0" stroke-linecap="butt" stroke-opacity="1.0" stroke="rgb(0, 0, 0)" stroke-linejoin="round" d=" M 59.499, 98.438 59.459, 98.490 57.979, 100.350 53.744, 107.463 49.935, 116.136 49.329, 118.099 48.395, 121.122 48.291, 121.457 47.789, 123.082 47.267, 124.773 46.014, 130.922 45.470, 137.294 45.244, 141.800 45.473, 147.446 45.953, 151.953 46.814, 156.585 47.660, 160.542 48.947, 164.850 50.611, 169.318 51.614, 171.578 52.580, 173.754 54.769, 177.965 57.084, 181.767 59.425, 184.985 62.358, 188.883 65.343, 192.158 69.455, 196.247 71.889, 198.154 72.901, 198.947 78.079, 202.925 84.045, 206.492 89.781, 209.092 93.591, 210.746 98.500, 212.154 105.029, 213.716 105.532, 213.810 " />
            <path fill="none" stroke-width="3.0" stroke-linecap="butt" stroke-opacity="1.0" stroke="rgb(0, 0, 0)" stroke-linejoin="round" d=" M 189.821, 125.538 188.850, 120.998 188.633, 120.439 " />
            <path fill="none" stroke-width="3.0" stroke-linecap="butt" stroke-opacity="1.0" stroke="rgb(0, 0, 0)" stroke-linejoin="round" d=" M 172.989, 190.610 174.434, 189.113 176.431, 186.247 181.614, 178.636 " />
            <path fill="none" stroke-width="3.0" stroke-linecap="butt" stroke-opacity="1.0" stroke="rgb(0, 0, 0)" stroke-linejoin="round" d=" M 77.110, 150.130 77.664, 151.530 79.028, 153.599 79.092, 153.655 80.923, 155.259 83.118, 156.488 85.160, 156.932 87.255, 156.860 89.629, 156.033 91.678, 154.705 93.228, 152.858 93.943, 151.542 " />
            <path fill="none" stroke-width="3.0" stroke-linecap="butt" stroke-opacity="1.0" stroke="rgb(0, 0, 0)" stroke-linejoin="round" d=" M 117.430, 100.916 117.722, 101.896 118.029, 102.926 118.481, 106.315 118.521, 110.138 118.538, 110.207 117.419, 118.621 117.377, 118.764 117.344, 118.880 116.192, 122.834 114.687, 127.123 112.932, 131.120 110.991, 134.631 108.930, 137.484 108.287, 138.111 107.902, 138.485 106.822, 139.536 104.736, 140.683 102.746, 140.867 101.451, 140.303 100.926, 140.075 99.349, 138.340 98.564, 136.729 98.312, 136.213 98.082, 135.742 97.189, 132.402 96.716, 128.481 96.694, 124.167 97.130, 119.667 97.987, 115.256 98.087, 114.909 98.132, 114.753 99.190, 111.094 100.711, 107.192 102.490, 103.692 104.458, 100.717 105.431, 99.620 " />
            <path fill="none" stroke-width="3.0" stroke-linecap="butt" stroke-opacity="1.0" stroke="rgb(0, 0, 0)" stroke-linejoin="round" d=" M 77.311, 118.591 76.507, 122.120 76.333, 122.884 75.249, 126.993 74.199, 130.320 74.073, 130.718 74.066, 130.734 72.812, 133.871 71.472, 136.294 70.069, 137.867 68.906, 138.391 68.629, 138.515 67.218, 138.511 65.842, 136.975 64.634, 134.873 63.659, 132.015 62.997, 128.546 62.916, 127.428 62.881, 126.954 62.713, 124.639 62.851, 120.484 63.179, 118.051 63.410, 116.336 64.277, 112.339 65.395, 108.496 66.719, 104.945 67.258, 103.801 67.501, 103.284 68.197, 101.807 69.770, 99.190 70.653, 98.086 " />
            <path fill="none" stroke-width="3.0" stroke-linecap="butt" stroke-opacity="1.0" stroke="rgb(0, 0, 0)" stroke-linejoin="round" d=" M 67.218, 138.511 70.423, 139.907 " />
            <path fill="none" stroke-width="3.0" stroke-linecap="butt" stroke-opacity="1.0" stroke="rgb(0, 0, 0)" stroke-linejoin="round" d=" M 77.852, 97.858 77.875, 97.898 78.527, 100.201 78.887, 103.112 78.997, 106.598 78.820, 108.731 78.796, 109.026 78.688, 110.338 " />
            <path fill="none" stroke-width="3.0" stroke-linecap="butt" stroke-opacity="1.0" stroke="rgb(0, 0, 0)" stroke-linejoin="round" d=" M 80.418, 120.552 77.311, 118.591 78.135, 114.388 78.688, 110.338 81.755, 112.392 " />
            <path fill="none" stroke-width="3.0" stroke-linecap="butt" stroke-opacity="1.0" stroke="rgb(0, 0, 0)" stroke-linejoin="round" d=" M 107.688, 205.922 106.216, 209.929 105.532, 213.794 105.532, 213.810 105.464, 217.353 106.190, 221.071 107.893, 224.729 110.513, 227.514 111.054, 227.851 114.237, 229.837 119.690, 231.843 126.249, 233.500 131.864, 234.438 138.095, 235.072 146.151, 235.405 152.200, 235.353 157.994, 234.573 162.041, 232.820 165.147, 231.242 170.989, 227.874 174.648, 224.869 178.327, 221.087 180.096, 217.611 180.907, 214.937 181.928, 211.196 181.978, 206.957 180.913, 202.450 177.441, 195.428 174.897, 192.107 172.989, 190.610 " />
            <path fill="none" stroke-width="3.0" stroke-linecap="butt" stroke-opacity="1.0" stroke="rgb(0, 0, 0)" stroke-linejoin="round" d=" M 71.889, 198.154 71.533, 199.176 70.424, 202.309 69.071, 206.096 67.711, 209.815 67.073, 213.367 66.672, 215.598 66.651, 218.840 67.339, 222.185 68.918, 224.898 71.129, 227.592 73.919, 229.587 78.386, 231.497 82.570, 232.544 87.118, 232.918 93.114, 232.865 96.200, 232.798 102.026, 231.602 104.602, 231.083 108.148, 229.982 110.600, 228.324 111.054, 227.851 " />
            <path fill="none" stroke-width="3.0" stroke-linecap="butt" stroke-opacity="1.0" stroke="rgb(0, 0, 0)" stroke-linejoin="round" d=" M 180.536, 178.084 181.614, 178.636 186.563, 181.166 191.307, 182.690 195.726, 183.529 200.120, 183.656 203.817, 183.051 207.180, 181.977 210.247, 180.399 213.059, 178.358 215.556, 175.940 217.639, 172.998 219.189, 169.914 220.180, 166.713 220.552, 163.366 220.531, 162.394 220.383, 158.610 219.364, 154.295 217.574, 150.133 214.971, 145.796 210.665, 140.529 206.828, 136.652 206.412, 136.231 206.205, 136.022 201.815, 132.103 197.174, 128.901 192.131, 126.379 189.821, 125.538 " />
            <path fill="none" stroke-width="3.0" stroke-linecap="butt" stroke-opacity="1.0" stroke="rgb(0, 0, 0)" stroke-linejoin="round" d=" M 47.789, 123.082 47.358, 123.307 43.451, 126.142 39.796, 129.603 34.714, 135.062 31.160, 139.592 29.184, 143.287 27.867, 146.813 27.191, 150.420 27.163, 151.882 27.133, 154.592 27.528, 157.033 28.291, 159.488 29.579, 162.253 31.424, 165.024 33.635, 167.256 36.036, 169.058 38.240, 170.277 40.461, 171.078 41.729, 171.488 44.738, 172.129 48.335, 172.138 51.614, 171.578 " />
            <path fill="none" stroke-width="3.0" stroke-linecap="butt" stroke-opacity="1.0" stroke="rgb(0, 0, 0)" stroke-linejoin="round" d=" M 116.269, 70.638 119.247, 68.352 119.519, 68.143 119.676, 67.823 119.713, 67.748 121.371, 64.367 122.357, 61.780 122.337, 58.097 121.321, 55.423 119.416, 51.717 117.660, 50.436 " />
            <path fill="none" stroke-width="3.0" stroke-linecap="butt" stroke-opacity="1.0" stroke="rgb(0, 0, 0)" stroke-linejoin="round" d=" M 56.091, 53.921 55.996, 54.189 54.476, 58.483 52.836, 64.570 52.267, 72.416 52.557, 73.685 54.209, 78.968 56.698, 80.220 60.026, 80.989 61.661, 81.368 61.844, 81.410 65.729, 81.868 71.740, 80.808 77.305, 79.385 82.764, 77.206 82.832, 77.179 " />
            <path fill="none" stroke-width="3.0" stroke-linecap="butt" stroke-opacity="1.0" stroke="rgb(0, 0, 0)" stroke-linejoin="round" d=" M 33.805, 110.654 31.601, 106.095 32.782, 104.937 37.482, 100.329 41.876, 99.197 49.850, 97.144 53.177, 96.288 56.732, 96.159 59.043, 96.075 61.449, 95.987 71.442, 95.624 73.709, 95.542 75.900, 95.462 75.907, 95.462 79.966, 95.314 89.936, 96.088 99.906, 96.863 107.704, 97.468 113.690, 97.933 116.243, 98.379 116.294, 98.388 126.145, 100.109 135.996, 101.830 145.846, 103.551 147.689, 103.872 157.349, 106.457 167.009, 109.042 176.669, 111.628 177.108, 111.745 178.200, 112.198 178.777, 112.438 183.087, 114.227 " />
            <path fill="none" stroke-width="3.0" stroke-linecap="butt" stroke-opacity="1.0" stroke="rgb(0, 0, 0)" stroke-linejoin="round" d=" M 206.412, 136.231 206.689, 136.068 206.321, 129.668 200.064, 124.865 197.932, 123.228 " />
            <path fill="none" stroke-width="3.0" stroke-linecap="butt" stroke-opacity="1.0" stroke="rgb(0, 0, 0)" stroke-linejoin="round" d=" M 39.001, 106.739 40.872, 105.086 44.971, 101.465 54.732, 99.289 58.392, 98.473 " />
            <path fill="none" stroke-width="3.0" stroke-linecap="butt" stroke-opacity="1.0" stroke="rgb(0, 0, 0)" stroke-linejoin="round" d=" M 38.855, 115.561 47.135, 120.982 48.291, 121.457 " />
            <path fill="none" stroke-width="3.0" stroke-linecap="butt" stroke-opacity="1.0" stroke="rgb(0, 0, 0)" stroke-linejoin="round" d=" M 55.975, 98.550 46.218, 100.740 45.633, 100.871 41.088, 101.892 39.810, 102.178 33.802, 107.731 34.549, 109.324 " />
            <path fill="none" stroke-width="3.0" stroke-linecap="butt" stroke-opacity="1.0" stroke="rgb(0, 0, 0)" stroke-linejoin="round" d=" M 55.975, 98.550 58.392, 98.473 59.402, 98.441 59.499, 98.438 61.253, 98.383 70.653, 98.086 76.298, 97.907 77.852, 97.858 79.139, 97.817 81.512, 97.742 91.482, 98.525 101.451, 99.307 105.431, 99.620 110.275, 100.000 113.444, 100.249 117.430, 100.916 117.973, 101.007 127.835, 102.659 136.501, 104.110 146.363, 105.762 146.759, 105.828 156.426, 108.385 166.094, 110.943 175.716, 113.488 179.332, 114.969 184.461, 117.070 " />
            <path fill="none" stroke-width="3.0" stroke-linecap="butt" stroke-opacity="1.0" stroke="rgb(0, 0, 0)" stroke-linejoin="round" d=" M 41.011, 92.686 36.207, 96.613 33.038, 99.835 31.226, 102.693 30.056, 105.737 30.049, 108.209 30.513, 110.387 34.841, 114.551 37.521, 116.026 38.855, 115.561 38.874, 115.554 40.783, 114.888 42.033, 114.035 43.640, 112.939 45.226, 107.855 " />
            <path fill="none" stroke-width="3.0" stroke-linecap="butt" stroke-opacity="1.0" stroke="rgb(0, 0, 0)" stroke-linejoin="round" d=" M 33.244, 111.979 30.513, 110.387 " />
            <path fill="none" stroke-width="3.0" stroke-linecap="butt" stroke-opacity="1.0" stroke="rgb(0, 0, 0)" stroke-linejoin="round" d=" M 43.640, 112.939 39.910, 110.555 " />
            <path fill="none" stroke-width="3.0" stroke-linecap="butt" stroke-opacity="1.0" stroke="rgb(0, 0, 0)" stroke-linejoin="round" d=" M 40.786, 108.231 39.910, 110.555 36.488, 111.518 " />
            <path fill="none" stroke-width="3.0" stroke-linecap="butt" stroke-opacity="1.0" stroke="rgb(0, 0, 0)" stroke-linejoin="round" d=" M 57.452, 83.104 50.499, 86.428 42.151, 91.934 41.011, 92.686 47.270, 88.613 48.586, 87.901 57.452, 83.104 59.094, 82.427 61.661, 81.368 " />
            <path fill="none" stroke-width="3.0" stroke-linecap="butt" stroke-opacity="1.0" stroke="rgb(0, 0, 0)" stroke-linejoin="round" d=" M 47.270, 88.613 49.706, 87.618 49.807, 87.577 53.146, 86.214 55.740, 85.154 57.706, 84.565 67.367, 81.670 77.316, 80.659 78.567, 80.532 80.460, 80.340 81.803, 80.305 87.694, 80.150 89.011, 80.208 89.621, 80.235 " />
            <path fill="none" stroke-width="3.0" stroke-linecap="butt" stroke-opacity="1.0" stroke="rgb(0, 0, 0)" stroke-linejoin="round" d=" M 179.332, 114.969 180.014, 116.639 182.562, 117.841 183.032, 118.063 183.834, 118.403 188.633, 120.439 196.878, 123.935 197.007, 123.849 197.932, 123.228 198.717, 122.701 199.082, 122.456 199.334, 121.359 199.917, 118.822 197.014, 114.259 192.330, 109.724 190.518, 107.970 183.495, 102.905 182.961, 102.520 178.762, 99.400 177.576, 98.519 176.744, 97.901 171.827, 94.995 168.210, 92.858 161.199, 89.924 158.199, 88.668 157.029, 88.179 147.484, 85.196 144.320, 84.207 134.706, 81.454 131.527, 80.543 121.669, 78.863 118.670, 78.352 109.260, 76.818 107.480, 76.528 " />
            <path fill="none" stroke-width="3.0" stroke-linecap="butt" stroke-opacity="1.0" stroke="rgb(0, 0, 0)" stroke-linejoin="round" d=" M 102.738, 81.256 107.731, 81.772 111.446, 82.156 112.359, 82.379 122.072, 84.760 128.095, 86.236 137.699, 89.022 142.212, 90.331 142.495, 90.414 151.822, 94.021 155.333, 95.379 164.491, 99.395 166.482, 100.268 174.851, 104.339 181.302, 107.950 184.817, 110.586 186.375, 111.755 187.454, 113.461 187.819, 114.038 188.262, 114.739 188.482, 116.271 188.628, 117.295 187.656, 117.915 187.212, 118.197 186.093, 118.909 " />
            <path fill="none" stroke-width="3.0" stroke-linecap="butt" stroke-opacity="1.0" stroke="rgb(0, 0, 0)" stroke-linejoin="round" d=" M 99.116, 77.901 100.274, 76.244 102.912, 72.470 103.634, 69.995 103.965, 68.858 104.311, 67.672 104.548, 66.859 104.984, 65.364 105.250, 64.453 105.331, 64.174 105.868, 57.755 105.854, 55.651 105.848, 54.657 105.838, 53.226 105.837, 52.970 " />
            <path fill="none" stroke-width="3.0" stroke-linecap="butt" stroke-opacity="1.0" stroke="rgb(0, 0, 0)" stroke-linejoin="round" d=" M 76.872, 72.631 80.421, 74.962 83.062, 76.248 83.319, 76.373 84.393, 76.896 85.574, 77.471 93.093, 79.043 99.116, 77.901 99.218, 78.022 100.321, 79.347 101.984, 80.653 102.329, 80.763 103.437, 81.116 " />
            <path fill="none" stroke-width="3.0" stroke-linecap="butt" stroke-opacity="1.0" stroke="rgb(0, 0, 0)" stroke-linejoin="round" d=" M 54.209, 78.968 53.887, 77.597 " />
            <path fill="none" stroke-width="3.0" stroke-linecap="butt" stroke-opacity="1.0" stroke="rgb(0, 0, 0)" stroke-linejoin="round" d=" M 79.895, 75.473 77.629, 73.941 76.872, 72.631 72.526, 74.933 66.649, 77.350 61.801, 78.254 59.023, 78.772 53.887, 77.597 52.267, 72.416 " />
            <path fill="none" stroke-width="3.0" stroke-linecap="butt" stroke-opacity="1.0" stroke="rgb(0, 0, 0)" stroke-linejoin="round" d=" M 110.670, 60.372 110.898, 60.051 110.951, 59.977 111.192, 59.639 114.186, 55.434 114.492, 54.994 117.660, 50.436 118.863, 48.705 122.532, 43.051 122.832, 41.951 124.075, 37.392 124.126, 34.225 122.942, 31.970 119.462, 27.701 114.188, 25.252 111.253, 24.133 105.515, 23.015 103.084, 22.750 101.130, 22.537 " />
            <path fill="none" stroke-width="3.0" stroke-linecap="butt" stroke-opacity="1.0" stroke="rgb(0, 0, 0)" stroke-linejoin="round" d=" M 55.996, 54.189 53.313, 50.363 50.320, 45.290 48.898, 39.872 49.368, 34.354 53.722, 30.136 60.761, 26.591 66.454, 24.973 70.768, 24.081 73.359, 20.079 77.249, 14.885 83.328, 9.092 88.737, 6.395 93.351, 8.430 97.621, 13.656 99.841, 18.623 101.130, 22.537 " />
            <path fill="none" stroke-width="3.0" stroke-linecap="butt" stroke-opacity="1.0" stroke="rgb(0, 0, 0)" stroke-linejoin="round" d=" M 108.969, 56.061 107.671, 54.535 107.175, 53.951 105.920, 53.031 105.837, 52.970 106.008, 52.821 106.793, 52.142 110.364, 49.047 110.951, 48.441 115.817, 43.409 116.510, 42.328 119.656, 37.416 121.332, 31.421 117.927, 27.235 111.253, 24.133 " />
            <path fill="none" stroke-width="3.0" stroke-linecap="butt" stroke-opacity="1.0" stroke="rgb(0, 0, 0)" stroke-linejoin="round" d=" M 103.084, 22.750 102.169, 20.407 99.686, 15.573 98.262, 13.280 94.381, 8.538 89.677, 6.466 88.737, 6.395 " />
            <path fill="none" stroke-width="3.0" stroke-linecap="butt" stroke-opacity="1.0" stroke="rgb(0, 0, 0)" stroke-linejoin="round" d=" M 53.313, 50.363 56.091, 53.921 " />
            <path fill="none" stroke-width="3.0" stroke-linecap="butt" stroke-opacity="1.0" stroke="rgb(0, 0, 0)" stroke-linejoin="round" d=" M 191.355, 104.883 188.456, 95.313 186.358, 88.386 185.353, 87.315 184.145, 82.970 179.298, 74.223 178.036, 71.945 171.507, 64.371 170.392, 63.078 164.713, 57.579 156.756, 51.524 156.401, 51.254 149.182, 47.402 142.920, 45.239 138.128, 43.677 137.101, 43.342 130.653, 42.191 126.614, 42.017 124.298, 41.918 122.832, 41.951 " />
            <path fill="none" stroke-width="3.0" stroke-linecap="butt" stroke-opacity="1.0" stroke="rgb(0, 0, 0)" stroke-linejoin="round" d=" M 79.895, 75.473 81.747, 76.549 82.782, 77.150 82.832, 77.179 83.406, 77.512 84.579, 78.193 84.769, 78.304 87.809, 79.513 89.480, 80.178 89.621, 80.235 90.232, 80.478 90.791, 80.700 93.855, 81.364 97.847, 82.229 100.965, 81.609 102.738, 81.256 103.437, 81.116 103.621, 80.854 104.355, 79.804 106.667, 76.496 107.107, 75.867 107.379, 75.478 108.681, 71.605 108.822, 71.186 109.216, 69.119 109.482, 67.723 109.590, 67.155 110.240, 63.749 110.670, 60.372 110.746, 59.774 110.774, 59.557 110.849, 58.962 110.890, 58.646 " />
            <path fill="none" stroke-width="3.0" stroke-linecap="butt" stroke-opacity="1.0" stroke="rgb(0, 0, 0)" stroke-linejoin="round" d=" M 186.646, 101.882 183.073, 98.884 174.815, 95.148 166.799, 91.522 161.199, 89.924 " />
            <path fill="none" stroke-width="3.0" stroke-linecap="butt" stroke-opacity="1.0" stroke="rgb(0, 0, 0)" stroke-linejoin="round" d=" M 121.267, 67.839 119.713, 67.748 " />
            <path fill="none" stroke-width="3.0" stroke-linecap="butt" stroke-opacity="1.0" stroke="rgb(0, 0, 0)" stroke-linejoin="round" d=" M 121.267, 67.839 131.145, 69.394 141.023, 70.948 145.034, 71.580 " />
            <path fill="none" stroke-width="3.0" stroke-linecap="butt" stroke-opacity="1.0" stroke="rgb(0, 0, 0)" stroke-linejoin="round" d=" M 138.128, 43.677 137.563, 42.916 134.227, 41.525 130.169, 41.075 127.003, 41.742 126.614, 42.017 " />
            <path fill="none" stroke-width="3.0" stroke-linecap="butt" stroke-opacity="1.0" stroke="rgb(0, 0, 0)" stroke-linejoin="round" d=" M 206.828, 136.652 208.938, 135.417 209.804, 131.710 209.647, 124.818 205.818, 119.323 200.042, 112.222 192.403, 105.768 191.355, 104.883 190.492, 104.154 186.646, 101.882 185.062, 100.946 176.359, 97.033 171.827, 94.995 " />
            <path fill="none" stroke-width="3.0" stroke-linecap="butt" stroke-opacity="1.0" stroke="rgb(0, 0, 0)" stroke-linejoin="round" d=" M 199.334, 121.359 207.198, 127.536 208.717, 128.729 208.938, 135.417 " />
            <path fill="none" stroke-width="3.0" stroke-linecap="butt" stroke-opacity="1.0" stroke="rgb(0, 0, 0)" stroke-linejoin="round" d=" M 44.429, 91.637 43.564, 92.291 38.101, 96.355 32.038, 102.440 31.601, 106.095 " />
            <path fill="none" stroke-width="3.0" stroke-linecap="butt" stroke-opacity="1.0" stroke="rgb(0, 0, 0)" stroke-linejoin="round" d=" M 209.647, 124.818 201.896, 118.499 199.380, 116.447 " />
            <path fill="none" stroke-width="3.0" stroke-linecap="butt" stroke-opacity="1.0" stroke="rgb(0, 0, 0)" stroke-linejoin="round" d=" M 60.026, 80.989 59.094, 82.427 " />
            <path fill="none" stroke-width="3.0" stroke-linecap="butt" stroke-opacity="1.0" stroke="rgb(0, 0, 0)" stroke-linejoin="round" d=" M 107.260, 76.519 107.484, 75.764 108.722, 71.603 " />
            <path fill="none" stroke-width="3.0" stroke-linecap="butt" stroke-opacity="1.0" stroke="rgb(0, 0, 0)" stroke-linejoin="round" d=" M 108.681, 71.605 108.722, 71.603 110.889, 71.541 " />
            <path fill="none" stroke-width="3.0" stroke-linecap="butt" stroke-opacity="1.0" stroke="rgb(0, 0, 0)" stroke-linejoin="round" d=" M 197.007, 123.849 201.607, 127.343 " />
        </g>
    </g>
</svg>
