<?xml version='1.0' encoding='ascii'?>
<svg xmlns="http://www.w3.org/2000/svg" version="1.1" width="250" height="250">
    <g id="ViewLayer_LineSet" xmlns:inkscape="http://www.inkscape.org/namespaces/inkscape" inkscape:groupmode="lineset" inkscape:label="ViewLayer_LineSet">
        <g xmlns:inkscape="http://www.inkscape.org/namespaces/inkscape" inkscape:groupmode="layer" id="strokes" inkscape:label="strokes">
            <path fill="none" stroke-width="3.0" stroke-linecap="butt" stroke-opacity="1.0" stroke="rgb(0, 0, 0)" stroke-linejoin="round" d=" M 143.298, 212.128 143.893, 211.995 148.339, 210.530 155.155, 207.563 157.614, 206.179 163.756, 202.566 168.702, 198.923 169.189, 198.564 169.508, 198.270 169.589, 198.195 174.225, 193.925 176.409, 191.772 180.425, 187.095 182.293, 184.635 185.177, 180.221 186.540, 178.069 187.953, 175.510 189.351, 172.666 189.751, 171.759 190.671, 169.669 191.853, 166.654 192.844, 163.757 193.597, 161.112 194.661, 156.576 195.371, 153.203 195.641, 150.523 196.281, 144.001 196.182, 137.566 195.877, 134.386 194.810, 126.547 193.906, 123.153 193.046, 119.926 192.993, 119.728 192.419, 117.572 192.085, 116.756 188.966, 109.136 184.705, 101.557 182.508, 98.603 " />
            <path fill="none" stroke-width="3.0" stroke-linecap="butt" stroke-opacity="1.0" stroke="rgb(0, 0, 0)" stroke-linejoin="round" d=" M 58.303, 177.743 63.785, 186.106 64.013, 186.455 70.815, 193.786 71.630, 194.665 72.934, 195.889 " />
            <path fill="none" stroke-width="3.0" stroke-linecap="butt" stroke-opacity="1.0" stroke="rgb(0, 0, 0)" stroke-linejoin="round" d=" M 154.842, 151.333 155.498, 152.652 156.920, 154.504 158.816, 155.840 161.029, 156.674 162.985, 156.753 164.722, 156.357 164.889, 156.319 166.939, 155.103 168.723, 153.460 170.019, 151.408 170.549, 150.018 " />
            <path fill="none" stroke-width="3.0" stroke-linecap="butt" stroke-opacity="1.0" stroke="rgb(0, 0, 0)" stroke-linejoin="round" d=" M 176.902, 98.278 177.448, 99.019 177.611, 99.305 178.058, 100.096 178.937, 101.648 180.365, 104.794 181.677, 108.350 181.635, 108.415 183.656, 116.280 184.217, 119.231 184.329, 119.824 184.411, 120.252 184.605, 123.059 184.635, 123.498 184.693, 124.336 184.577, 128.191 184.095, 131.637 183.304, 134.507 182.278, 136.655 181.094, 137.967 179.825, 138.367 178.533, 137.824 178.015, 137.224 177.261, 136.350 176.037, 134.006 174.872, 130.902 173.842, 127.434 173.769, 127.188 173.722, 127.001 172.730, 123.047 171.923, 119.419 171.760, 118.686 170.884, 114.383 170.221, 110.300 169.826, 106.458 169.763, 104.534 169.749, 104.092 169.713, 103.001 169.888, 100.057 170.119, 98.880 170.312, 97.896 " />
            <path fill="none" stroke-width="3.0" stroke-linecap="butt" stroke-opacity="1.0" stroke="rgb(0, 0, 0)" stroke-linejoin="round" d=" M 153.813, 119.294 154.449, 123.700 154.628, 127.949 154.349, 131.844 154.246, 132.324 154.135, 132.847 153.633, 135.197 152.523, 137.845 151.072, 139.659 149.345, 140.549 148.820, 140.612 147.494, 140.772 145.344, 139.415 143.212, 137.436 141.718, 135.457 141.394, 135.029 141.090, 134.626 139.048, 131.123 137.156, 127.099 135.483, 122.755 134.104, 118.369 133.488, 115.744 133.463, 115.638 133.104, 114.107 132.506, 109.988 132.332, 106.166 132.584, 102.783 133.141, 100.417 " />
            <path fill="none" stroke-width="3.0" stroke-linecap="butt" stroke-opacity="1.0" stroke="rgb(0, 0, 0)" stroke-linejoin="round" d=" M 148.248, 141.327 151.072, 139.659 " />
            <path fill="none" stroke-width="3.0" stroke-linecap="butt" stroke-opacity="1.0" stroke="rgb(0, 0, 0)" stroke-linejoin="round" d=" M 144.470, 99.288 145.683, 100.600 147.760, 103.551 149.680, 107.084 151.370, 110.881 " />
            <path fill="none" stroke-width="3.0" stroke-linecap="butt" stroke-opacity="1.0" stroke="rgb(0, 0, 0)" stroke-linejoin="round" d=" M 150.987, 121.216 153.813, 119.294 152.765, 115.001 151.483, 111.214 151.419, 111.026 151.370, 110.881 150.989, 111.159 150.495, 111.518 " />
            <path fill="none" stroke-width="3.0" stroke-linecap="butt" stroke-opacity="1.0" stroke="rgb(0, 0, 0)" stroke-linejoin="round" d=" M 146.063, 226.815 149.379, 227.193 154.172, 227.553 159.591, 226.962 163.282, 225.997 166.192, 224.295 169.194, 222.319 171.467, 219.512 172.629, 216.422 173.491, 213.144 173.903, 209.866 173.157, 206.277 172.006, 202.398 170.564, 199.871 169.623, 198.444 169.508, 198.270 " />
            <path fill="none" stroke-width="3.0" stroke-linecap="butt" stroke-opacity="1.0" stroke="rgb(0, 0, 0)" stroke-linejoin="round" d=" M 72.934, 195.889 71.949, 196.763 69.258, 200.113 66.987, 204.945 66.317, 207.554 65.202, 212.128 65.221, 216.413 66.259, 220.190 68.208, 223.779 69.820, 226.812 73.445, 230.526 78.259, 234.012 85.306, 237.834 91.328, 240.180 92.602, 240.676 " />
            <path fill="none" stroke-width="3.0" stroke-linecap="butt" stroke-opacity="1.0" stroke="rgb(0, 0, 0)" stroke-linejoin="round" d=" M 91.328, 240.180 96.337, 242.176 104.399, 243.226 112.374, 243.810 116.010, 243.653 124.411, 243.377 130.362, 242.563 135.031, 241.110 139.455, 238.910 142.256, 235.909 144.804, 232.397 145.635, 228.505 145.656, 228.408 " />
            <path fill="none" stroke-width="3.0" stroke-linecap="butt" stroke-opacity="1.0" stroke="rgb(0, 0, 0)" stroke-linejoin="round" d=" M 145.635, 228.505 146.063, 226.815 146.388, 225.532 146.370, 222.171 145.589, 217.935 144.002, 213.476 143.298, 212.128 142.842, 211.254 140.671, 207.214 " />
            <path fill="none" stroke-width="3.0" stroke-linecap="butt" stroke-opacity="1.0" stroke="rgb(0, 0, 0)" stroke-linejoin="round" d=" M 189.751, 171.759 190.764, 172.052 194.520, 172.628 198.210, 172.568 201.290, 171.882 204.667, 170.642 206.900, 169.387 209.306, 167.545 211.509, 165.275 213.331, 162.466 214.584, 159.670 215.294, 157.195 215.593, 154.743 215.655, 153.692 215.610, 150.528 214.808, 146.918 213.363, 143.399 211.246, 139.719 210.100, 138.288 206.415, 133.698 202.589, 129.772 198.797, 126.357 194.767, 123.578 193.906, 123.153 " />
            <path fill="none" stroke-width="3.0" stroke-linecap="butt" stroke-opacity="1.0" stroke="rgb(0, 0, 0)" stroke-linejoin="round" d=" M 51.074, 123.751 48.092, 124.882 43.118, 127.464 38.572, 130.718 34.304, 134.682 33.643, 135.379 32.954, 136.106 29.996, 139.227 25.862, 144.520 23.395, 148.867 21.151, 154.448 20.253, 158.535 20.224, 162.088 20.735, 165.427 21.837, 168.779 23.356, 171.858 25.536, 174.922 28.134, 177.357 30.956, 179.299 33.585, 180.594 37.243, 181.770 40.851, 182.386 45.139, 182.271 49.464, 181.441 54.117, 179.922 58.303, 177.743 60.051, 176.833 " />
            <path fill="none" stroke-width="3.0" stroke-linecap="butt" stroke-opacity="1.0" stroke="rgb(0, 0, 0)" stroke-linejoin="round" d=" M 151.229, 22.099 147.929, 22.334 147.132, 22.390 141.767, 23.269 138.755, 24.271 133.832, 26.513 132.064, 28.808 128.922, 32.898 128.281, 36.098 129.870, 41.857 129.883, 41.884 131.729, 45.862 133.246, 48.352 135.011, 51.250 137.061, 54.616 138.359, 56.593 138.389, 56.640 138.823, 57.301 139.098, 57.719 139.972, 59.052 140.513, 59.876 140.932, 61.765 141.407, 63.906 141.603, 64.755 141.621, 64.835 141.996, 66.454 142.170, 67.208 142.328, 67.893 142.409, 68.243 142.947, 70.568 143.145, 71.427 144.847, 74.934 145.540, 75.959 147.317, 78.583 147.491, 78.840 147.758, 79.234 148.489, 80.309 148.748, 80.690 148.982, 80.747 150.564, 81.126 153.992, 81.947 156.584, 81.538 156.844, 81.486 157.422, 81.372 161.368, 80.593 161.814, 80.412 162.399, 80.176 163.122, 79.883 163.231, 79.839 163.839, 79.593 166.123, 78.669 166.890, 78.359 168.268, 77.621 168.572, 77.458 169.321, 77.056 174.059, 74.203 " />
            <path fill="none" stroke-width="3.0" stroke-linecap="butt" stroke-opacity="1.0" stroke="rgb(0, 0, 0)" stroke-linejoin="round" d=" M 154.469, 77.570 153.098, 78.987 151.710, 79.796 151.031, 80.191 150.917, 80.257 148.748, 80.690 " />
            <path fill="none" stroke-width="3.0" stroke-linecap="butt" stroke-opacity="1.0" stroke="rgb(0, 0, 0)" stroke-linejoin="round" d=" M 209.896, 107.059 209.384, 103.464 206.811, 98.187 206.402, 97.348 205.520, 96.694 200.854, 93.237 " />
            <path fill="none" stroke-width="3.0" stroke-linecap="butt" stroke-opacity="1.0" stroke="rgb(0, 0, 0)" stroke-linejoin="round" d=" M 64.998, 112.679 67.374, 111.835 68.966, 111.270 72.120, 110.150 81.851, 107.849 91.583, 105.547 101.314, 103.246 103.819, 102.654 113.703, 101.134 123.587, 99.614 133.691, 98.061 134.203, 97.982 134.689, 97.907 134.951, 97.867 138.440, 97.331 142.016, 97.119 151.998, 96.529 161.981, 95.938 170.735, 95.421 171.536, 95.472 171.711, 95.483 174.530, 95.664 180.613, 96.054 181.297, 96.098 183.686, 96.251 193.273, 96.866 194.664, 96.955 198.133, 98.162 206.330, 101.013 207.059, 101.267 207.481, 102.129 207.739, 102.655 209.896, 107.059 " />
            <path fill="none" stroke-width="3.0" stroke-linecap="butt" stroke-opacity="1.0" stroke="rgb(0, 0, 0)" stroke-linejoin="round" d=" M 40.898, 125.843 47.858, 121.759 " />
            <path fill="none" stroke-width="3.0" stroke-linecap="butt" stroke-opacity="1.0" stroke="rgb(0, 0, 0)" stroke-linejoin="round" d=" M 47.519, 121.493 41.319, 125.143 36.160, 128.181 32.965, 134.801 33.643, 135.379 " />
            <path fill="none" stroke-width="3.0" stroke-linecap="butt" stroke-opacity="1.0" stroke="rgb(0, 0, 0)" stroke-linejoin="round" d=" M 67.882, 113.843 73.248, 111.960 82.985, 109.679 92.721, 107.397 102.457, 105.116 104.410, 104.658 114.303, 103.198 124.196, 101.738 131.417, 100.672 133.141, 100.417 138.227, 99.667 139.726, 99.576 144.470, 99.288 154.451, 98.682 164.433, 98.076 167.375, 97.897 168.822, 97.809 170.312, 97.896 176.902, 98.278 178.931, 98.396 180.420, 98.482 182.508, 98.603 188.292, 98.939 191.694, 99.136 " />
            <path fill="none" stroke-width="3.0" stroke-linecap="butt" stroke-opacity="1.0" stroke="rgb(0, 0, 0)" stroke-linejoin="round" d=" M 207.396, 108.973 207.693, 108.629 204.677, 103.044 " />
            <path fill="none" stroke-width="3.0" stroke-linecap="butt" stroke-opacity="1.0" stroke="rgb(0, 0, 0)" stroke-linejoin="round" d=" M 142.524, 75.998 141.392, 76.013 139.891, 76.224 139.147, 76.329 130.479, 77.547 120.585, 79.000 117.739, 79.419 108.065, 81.952 104.829, 82.800 95.216, 85.555 91.840, 86.523 89.592, 87.390 80.264, 90.992 80.163, 91.031 79.242, 91.534 73.632, 94.602 71.798, 95.605 71.079, 95.999 68.748, 97.608 64.408, 100.603 63.356, 101.308 58.786, 104.372 58.337, 104.673 56.279, 106.053 50.879, 110.979 49.312, 112.408 48.921, 112.959 46.014, 117.063 46.051, 117.278 46.443, 119.546 46.664, 120.821 47.519, 121.493 47.858, 121.759 48.645, 122.377 51.666, 121.265 58.750, 118.658 60.310, 118.084 64.515, 116.536 67.342, 115.126 67.882, 113.843 " />
            <path fill="none" stroke-width="3.0" stroke-linecap="butt" stroke-opacity="1.0" stroke="rgb(0, 0, 0)" stroke-linejoin="round" d=" M 61.626, 117.356 60.408, 116.466 59.301, 115.658 59.858, 113.036 61.020, 111.424 62.045, 110.004 67.606, 106.190 74.572, 102.613 83.425, 98.620 92.685, 94.844 95.063, 93.874 104.472, 90.488 108.269, 89.122 111.700, 88.202 121.359, 85.613 122.757, 85.239 132.512, 83.040 138.684, 81.648 139.146, 81.544 142.039, 81.310 148.982, 80.747 " />
            <path fill="none" stroke-width="3.0" stroke-linecap="butt" stroke-opacity="1.0" stroke="rgb(0, 0, 0)" stroke-linejoin="round" d=" M 162.399, 80.176 163.658, 80.246 166.852, 80.425 168.530, 80.518 178.432, 81.909 180.317, 82.174 183.205, 83.235 189.614, 85.590 189.944, 85.711 190.491, 85.912 197.651, 89.529 202.689, 93.685 205.520, 96.694 " />
            <path fill="none" stroke-width="3.0" stroke-linecap="butt" stroke-opacity="1.0" stroke="rgb(0, 0, 0)" stroke-linejoin="round" d=" M 197.651, 89.529 188.791, 84.891 186.822, 83.861 183.916, 82.384 " />
            <path fill="none" stroke-width="3.0" stroke-linecap="butt" stroke-opacity="1.0" stroke="rgb(0, 0, 0)" stroke-linejoin="round" d=" M 194.310, 108.574 195.566, 113.609 196.510, 114.298 198.258, 115.572 199.705, 116.113 199.962, 116.209 201.382, 116.741 204.021, 115.330 209.739, 111.299 210.317, 109.168 210.563, 106.741 209.933, 103.729 208.777, 100.885 206.811, 98.187 " />
            <path fill="none" stroke-width="3.0" stroke-linecap="butt" stroke-opacity="1.0" stroke="rgb(0, 0, 0)" stroke-linejoin="round" d=" M 207.092, 112.818 209.739, 111.299 " />
            <path fill="none" stroke-width="3.0" stroke-linecap="butt" stroke-opacity="1.0" stroke="rgb(0, 0, 0)" stroke-linejoin="round" d=" M 200.744, 111.311 204.009, 112.313 " />
            <path fill="none" stroke-width="3.0" stroke-linecap="butt" stroke-opacity="1.0" stroke="rgb(0, 0, 0)" stroke-linejoin="round" d=" M 200.074, 109.248 200.744, 111.311 195.566, 113.609 " />
            <path fill="none" stroke-width="3.0" stroke-linecap="butt" stroke-opacity="1.0" stroke="rgb(0, 0, 0)" stroke-linejoin="round" d=" M 137.655, 70.926 140.509, 71.053 140.819, 71.067 141.348, 70.128 142.409, 68.243 " />
            <path fill="none" stroke-width="3.0" stroke-linecap="butt" stroke-opacity="1.0" stroke="rgb(0, 0, 0)" stroke-linejoin="round" d=" M 133.246, 48.352 132.864, 48.413 129.771, 50.722 127.273, 55.632 126.678, 57.050 126.554, 60.760 127.045, 62.410 129.020, 66.845 129.060, 66.935 129.202, 67.254 130.231, 68.178 " />
            <path fill="none" stroke-width="3.0" stroke-linecap="butt" stroke-opacity="1.0" stroke="rgb(0, 0, 0)" stroke-linejoin="round" d=" M 168.268, 77.621 169.758, 78.395 172.876, 79.638 178.172, 81.194 182.577, 82.139 183.775, 82.396 183.916, 82.384 188.129, 82.033 192.808, 80.985 195.665, 79.806 196.188, 78.458 197.537, 73.386 196.828, 65.623 195.187, 59.562 193.623, 55.055 193.604, 55.002 " />
            <path fill="none" stroke-width="3.0" stroke-linecap="butt" stroke-opacity="1.0" stroke="rgb(0, 0, 0)" stroke-linejoin="round" d=" M 174.997, 72.919 178.480, 74.983 179.058, 75.325 184.517, 77.880 191.533, 79.486 196.188, 78.458 " />
            <path fill="none" stroke-width="3.0" stroke-linecap="butt" stroke-opacity="1.0" stroke="rgb(0, 0, 0)" stroke-linejoin="round" d=" M 174.059, 74.203 174.997, 72.919 171.775, 75.140 168.585, 76.739 167.611, 77.227 167.560, 77.252 167.065, 77.500 165.745, 77.761 161.283, 78.641 160.116, 78.871 154.469, 77.570 153.329, 75.857 151.987, 73.838 150.784, 72.029 149.448, 67.495 149.420, 67.400 149.078, 66.241 148.745, 65.110 148.313, 63.646 147.653, 57.194 147.601, 54.365 147.564, 52.399 " />
            <path fill="none" stroke-width="3.0" stroke-linecap="butt" stroke-opacity="1.0" stroke="rgb(0, 0, 0)" stroke-linejoin="round" d=" M 141.767, 23.269 135.549, 26.105 132.431, 30.177 134.164, 36.277 137.938, 42.449 140.366, 45.145 143.214, 48.309 144.225, 49.259 145.803, 50.743 147.564, 52.399 146.047, 53.341 145.021, 54.227 144.984, 54.258 143.658, 55.403 " />
            <path fill="none" stroke-width="3.0" stroke-linecap="butt" stroke-opacity="1.0" stroke="rgb(0, 0, 0)" stroke-linejoin="round" d=" M 193.623, 55.055 196.049, 51.581 198.648, 46.676 199.809, 41.384 199.248, 35.925 195.185, 31.593 188.674, 27.809 183.421, 25.975 179.436, 24.912 176.953, 20.832 173.240, 15.503 167.476, 9.466 162.391, 6.529 161.258, 6.558 156.928, 8.406 154.805, 10.936 151.511, 15.203 149.253, 19.931 149.252, 19.932 " />
            <path fill="none" stroke-width="3.0" stroke-linecap="butt" stroke-opacity="1.0" stroke="rgb(0, 0, 0)" stroke-linejoin="round" d=" M 196.049, 51.581 193.604, 55.002 " />
            <path fill="none" stroke-width="3.0" stroke-linecap="butt" stroke-opacity="1.0" stroke="rgb(0, 0, 0)" stroke-linejoin="round" d=" M 162.391, 6.529 158.148, 8.343 154.292, 13.370 152.339, 18.238 151.229, 22.099 " />
            <path fill="none" stroke-width="3.0" stroke-linecap="butt" stroke-opacity="1.0" stroke="rgb(0, 0, 0)" stroke-linejoin="round" d=" M 129.883, 41.884 124.684, 41.047 118.287, 40.745 114.433, 40.769 112.043, 40.784 105.481, 41.710 102.131, 42.642 99.338, 43.419 94.043, 45.375 85.995, 49.039 80.676, 53.150 72.840, 59.362 71.247, 60.625 64.785, 68.256 63.771, 69.452 59.058, 78.272 57.828, 80.574 54.735, 87.099 54.243, 88.706 " />
            <path fill="none" stroke-width="3.0" stroke-linecap="butt" stroke-opacity="1.0" stroke="rgb(0, 0, 0)" stroke-linejoin="round" d=" M 130.640, 30.667 128.922, 32.898 " />
            <path fill="none" stroke-width="3.0" stroke-linecap="butt" stroke-opacity="1.0" stroke="rgb(0, 0, 0)" stroke-linejoin="round" d=" M 129.020, 66.845 127.272, 66.897 121.756, 67.597 111.836, 68.855 105.125, 69.707 102.894, 69.990 " />
            <path fill="none" stroke-width="3.0" stroke-linecap="butt" stroke-opacity="1.0" stroke="rgb(0, 0, 0)" stroke-linejoin="round" d=" M 50.023, 105.227 50.543, 104.197 58.909, 98.719 61.697, 96.893 64.510, 95.806 73.837, 92.200 80.277, 89.710 81.086, 89.509 89.592, 87.390 " />
            <path fill="none" stroke-width="3.0" stroke-linecap="butt" stroke-opacity="1.0" stroke="rgb(0, 0, 0)" stroke-linejoin="round" d=" M 56.681, 84.998 55.690, 86.072 54.243, 88.706 52.231, 92.367 49.613, 102.018 48.467, 106.242 " />
            <path fill="none" stroke-width="3.0" stroke-linecap="butt" stroke-opacity="1.0" stroke="rgb(0, 0, 0)" stroke-linejoin="round" d=" M 114.433, 40.769 114.027, 40.483 111.088, 39.690 107.024, 39.993 103.447, 41.277 102.131, 42.642 " />
            <path fill="none" stroke-width="3.0" stroke-linecap="butt" stroke-opacity="1.0" stroke="rgb(0, 0, 0)" stroke-linejoin="round" d=" M 79.242, 91.534 76.249, 92.684 66.914, 96.269 62.824, 97.840 59.897, 98.963 54.750, 102.144 50.023, 105.227 48.467, 106.242 42.267, 110.285 36.521, 117.512 32.716, 123.130 29.661, 130.267 30.569, 134.106 32.954, 136.106 " />
            <path fill="none" stroke-width="3.0" stroke-linecap="butt" stroke-opacity="1.0" stroke="rgb(0, 0, 0)" stroke-linejoin="round" d=" M 46.402, 114.626 37.908, 119.903 32.716, 123.130 " />
            <path fill="none" stroke-width="3.0" stroke-linecap="butt" stroke-opacity="1.0" stroke="rgb(0, 0, 0)" stroke-linejoin="round" d=" M 30.569, 134.106 33.716, 127.182 42.291, 122.037 43.695, 121.195 46.443, 119.546 " />
            <path fill="none" stroke-width="3.0" stroke-linecap="butt" stroke-opacity="1.0" stroke="rgb(0, 0, 0)" stroke-linejoin="round" d=" M 51.666, 121.265 51.074, 123.751 " />
            <path fill="none" stroke-width="3.0" stroke-linecap="butt" stroke-opacity="1.0" stroke="rgb(0, 0, 0)" stroke-linejoin="round" d=" M 140.509, 71.053 142.524, 75.998 " />
            <path fill="none" stroke-width="3.0" stroke-linecap="butt" stroke-opacity="1.0" stroke="rgb(0, 0, 0)" stroke-linejoin="round" d=" M 149.253, 19.931 147.929, 22.334 " />
            <path fill="none" stroke-width="3.0" stroke-linecap="butt" stroke-opacity="1.0" stroke="rgb(0, 0, 0)" stroke-linejoin="round" d=" M 169.623, 198.444 169.589, 198.195 " />
            <path fill="none" stroke-width="3.0" stroke-linecap="butt" stroke-opacity="1.0" stroke="rgb(0, 0, 0)" stroke-linejoin="round" d=" M 188.292, 98.939 197.878, 101.788 199.419, 102.246 199.423, 102.247 " />
            <path fill="none" stroke-width="3.0" stroke-linecap="butt" stroke-opacity="1.0" stroke="rgb(0, 0, 0)" stroke-linejoin="round" d=" M 193.046, 119.926 199.962, 116.209 " />
        </g>
    </g>
</svg>
