<?xml version='1.0' encoding='ascii'?>
<svg xmlns="http://www.w3.org/2000/svg" version="1.1" width="250" height="250">
    <g id="ViewLayer_LineSet" xmlns:inkscape="http://www.inkscape.org/namespaces/inkscape" inkscape:groupmode="lineset" inkscape:label="ViewLayer_LineSet">
        <g xmlns:inkscape="http://www.inkscape.org/namespaces/inkscape" inkscape:groupmode="layer" id="strokes" inkscape:label="strokes">
            <path fill="none" stroke-width="3.0" stroke-linecap="butt" stroke-opacity="1.0" stroke="rgb(0, 0, 0)" stroke-linejoin="round" d=" M 61.719, 179.158 63.808, 182.445 66.835, 186.369 70.770, 190.797 76.685, 196.428 84.835, 202.223 85.240, 202.512 90.658, 205.234 " />
            <path fill="none" stroke-width="3.0" stroke-linecap="butt" stroke-opacity="1.0" stroke="rgb(0, 0, 0)" stroke-linejoin="round" d=" M 161.589, 201.308 169.500, 195.558 176.449, 188.367 176.964, 187.834 179.140, 185.073 184.783, 176.817 185.377, 175.948 188.721, 168.765 189.272, 167.581 " />
            <path fill="none" stroke-width="3.0" stroke-linecap="butt" stroke-opacity="1.0" stroke="rgb(0, 0, 0)" stroke-linejoin="round" d=" M 84.108, 234.590 84.593, 235.234 86.730, 238.072 90.872, 239.980 93.530, 241.080 96.529, 241.054 106.322, 239.030 110.919, 238.080 117.057, 236.801 121.609, 235.456 125.716, 233.816 130.341, 231.386 134.458, 228.314 142.062, 221.819 142.202, 221.700 149.652, 215.030 149.968, 214.747 155.685, 209.243 159.898, 205.000 161.524, 201.498 161.589, 201.308 163.172, 196.701 163.286, 195.025 163.420, 190.142 162.152, 186.098 " />
            <path fill="none" stroke-width="3.0" stroke-linecap="butt" stroke-opacity="1.0" stroke="rgb(0, 0, 0)" stroke-linejoin="round" d=" M 95.380, 196.890 92.162, 201.201 90.658, 205.234 89.435, 208.513 89.413, 208.567 89.288, 208.877 89.287, 208.878 87.215, 214.001 86.604, 219.927 86.358, 224.381 86.523, 225.616 " />
            <path fill="none" stroke-width="3.0" stroke-linecap="butt" stroke-opacity="1.0" stroke="rgb(0, 0, 0)" stroke-linejoin="round" d=" M 86.809, 210.466 83.311, 214.956 82.624, 216.768 81.480, 220.952 80.790, 225.032 81.381, 228.966 82.590, 233.017 84.593, 235.234 " />
            <path fill="none" stroke-width="3.0" stroke-linecap="butt" stroke-opacity="1.0" stroke="rgb(0, 0, 0)" stroke-linejoin="round" d=" M 48.582, 127.883 48.416, 127.962 43.640, 131.118 39.090, 135.015 34.439, 139.534 29.922, 144.820 27.159, 149.192 25.228, 153.399 24.081, 157.769 23.840, 161.605 24.186, 165.238 24.367, 165.928 25.276, 169.179 26.766, 172.300 28.738, 175.211 31.293, 177.771 34.128, 179.877 37.245, 181.507 40.674, 182.617 44.456, 183.254 48.949, 183.154 53.471, 182.340 58.325, 180.839 61.719, 179.158 64.489, 177.785 " />
            <path fill="none" stroke-width="3.0" stroke-linecap="butt" stroke-opacity="1.0" stroke="rgb(0, 0, 0)" stroke-linejoin="round" d=" M 188.721, 168.765 189.659, 168.455 191.744, 167.735 193.682, 166.688 " />
            <path fill="none" stroke-width="3.0" stroke-linecap="butt" stroke-opacity="1.0" stroke="rgb(0, 0, 0)" stroke-linejoin="round" d=" M 83.968, 55.175 84.338, 55.239 " />
            <path fill="none" stroke-width="3.0" stroke-linecap="butt" stroke-opacity="1.0" stroke="rgb(0, 0, 0)" stroke-linejoin="round" d=" M 86.531, 57.786 86.406, 57.607 85.240, 55.932 84.813, 55.321 84.719, 55.186 84.338, 55.239 84.125, 55.269 83.936, 55.295 80.049, 55.837 77.204, 56.304 75.148, 58.076 72.966, 62.216 73.111, 67.627 74.797, 70.173 " />
            <path fill="none" stroke-width="3.0" stroke-linecap="butt" stroke-opacity="1.0" stroke="rgb(0, 0, 0)" stroke-linejoin="round" d=" M 61.901, 83.557 53.002, 88.119 52.628, 88.311 47.004, 92.256 " />
            <path fill="none" stroke-width="3.0" stroke-linecap="butt" stroke-opacity="1.0" stroke="rgb(0, 0, 0)" stroke-linejoin="round" d=" M 65.347, 82.018 64.565, 82.367 61.901, 83.557 55.782, 86.740 54.895, 87.297 47.004, 92.256 42.280, 96.357 38.888, 99.942 36.718, 103.284 35.171, 106.882 34.985, 109.702 35.393, 112.086 38.912, 119.217 41.926, 120.885 42.209, 120.782 " />
            <path fill="none" stroke-width="3.0" stroke-linecap="butt" stroke-opacity="1.0" stroke="rgb(0, 0, 0)" stroke-linejoin="round" d=" M 39.336, 117.580 38.912, 119.217 37.646, 115.625 38.264, 112.021 38.439, 111.000 39.082, 109.855 41.886, 104.861 45.127, 99.586 47.655, 95.283 49.784, 92.388 50.995, 90.740 54.144, 88.108 54.230, 88.036 55.782, 86.740 " />
            <path fill="none" stroke-width="3.0" stroke-linecap="butt" stroke-opacity="1.0" stroke="rgb(0, 0, 0)" stroke-linejoin="round" d=" M 95.602, 44.158 95.196, 42.993 95.065, 42.617 94.100, 39.847 92.460, 35.595 90.924, 32.730 88.838, 29.796 85.934, 27.410 84.145, 26.225 83.213, 26.585 79.470, 28.075 75.060, 32.125 72.155, 35.988 70.198, 39.017 67.109, 39.262 62.930, 39.969 57.598, 42.190 54.220, 45.325 53.827, 49.939 54.875, 54.532 57.059, 58.826 59.028, 61.811 59.376, 62.338 " />
            <path fill="none" stroke-width="3.0" stroke-linecap="butt" stroke-opacity="1.0" stroke="rgb(0, 0, 0)" stroke-linejoin="round" d=" M 73.057, 40.287 70.838, 38.990 70.198, 39.017 " />
            <path fill="none" stroke-width="3.0" stroke-linecap="butt" stroke-opacity="1.0" stroke="rgb(0, 0, 0)" stroke-linejoin="round" d=" M 59.028, 61.811 57.813, 65.241 56.566, 69.822 56.085, 75.670 56.326, 76.547 57.446, 80.437 59.346, 81.316 62.927, 82.195 64.565, 82.367 " />
            <path fill="none" stroke-width="3.0" stroke-linecap="butt" stroke-opacity="1.0" stroke="rgb(0, 0, 0)" stroke-linejoin="round" d=" M 102.647, 47.817 102.253, 47.299 99.702, 45.190 97.882, 44.015 95.065, 42.617 " />
            <path fill="none" stroke-width="3.0" stroke-linecap="butt" stroke-opacity="1.0" stroke="rgb(0, 0, 0)" stroke-linejoin="round" d=" M 136.623, 41.599 127.719, 41.096 125.334, 41.487 115.506, 43.335 111.994, 43.995 102.647, 47.817 100.567, 48.668 99.075, 49.278 92.433, 53.489 92.133, 53.679 91.156, 54.298 88.296, 56.111 88.087, 56.309 87.233, 57.119 86.638, 57.684 86.531, 57.786 86.314, 57.991 83.518, 60.644 82.189, 61.905 82.120, 61.970 78.757, 65.161 77.108, 67.182 75.501, 69.152 74.797, 70.173 73.451, 72.127 73.450, 72.128 73.368, 72.247 71.245, 75.328 " />
            <path fill="none" stroke-width="3.0" stroke-linecap="butt" stroke-opacity="1.0" stroke="rgb(0, 0, 0)" stroke-linejoin="round" d=" M 85.934, 27.410 87.830, 29.981 " />
            <path fill="none" stroke-width="3.0" stroke-linecap="butt" stroke-opacity="1.0" stroke="rgb(0, 0, 0)" stroke-linejoin="round" d=" M 54.423, 45.445 56.439, 46.564 59.761, 48.372 " />
            <path fill="none" stroke-width="3.0" stroke-linecap="butt" stroke-opacity="1.0" stroke="rgb(0, 0, 0)" stroke-linejoin="round" d=" M 59.376, 62.338 61.595, 63.501 " />
            <path fill="none" stroke-width="3.0" stroke-linecap="butt" stroke-opacity="1.0" stroke="rgb(0, 0, 0)" stroke-linejoin="round" d=" M 59.346, 81.316 62.523, 81.636 " />
            <path fill="none" stroke-width="3.0" stroke-linecap="butt" stroke-opacity="1.0" stroke="rgb(0, 0, 0)" stroke-linejoin="round" d=" M 71.278, 72.714 67.441, 78.733 65.347, 82.018 65.089, 82.423 64.301, 83.660 63.846, 84.373 62.483, 86.511 60.475, 89.660 60.271, 89.981 60.914, 91.966 61.305, 93.176 62.045, 95.463 62.798, 97.788 64.302, 99.155 67.363, 101.935 71.177, 105.400 73.145, 107.188 74.859, 108.141 78.892, 110.384 86.252, 114.476 88.682, 115.828 90.971, 117.100 95.314, 118.771 98.266, 119.906 107.599, 123.497 114.370, 126.101 124.049, 128.615 133.728, 131.128 140.023, 132.763 148.668, 133.961 158.573, 135.333 164.021, 136.088 174.020, 135.933 182.999, 135.793 192.592, 132.969 193.828, 132.605 193.950, 132.569 194.828, 132.311 194.946, 132.276 195.322, 131.771 196.439, 130.270 197.377, 129.010 199.347, 126.363 199.330, 122.123 199.291, 112.124 199.269, 106.638 197.082, 102.550 " />
            <path fill="none" stroke-width="3.0" stroke-linecap="butt" stroke-opacity="1.0" stroke="rgb(0, 0, 0)" stroke-linejoin="round" d=" M 199.269, 106.638 195.433, 110.736 188.217, 112.213 188.058, 112.246 186.887, 112.486 184.836, 112.906 184.625, 112.949 174.628, 112.696 167.065, 112.505 " />
            <path fill="none" stroke-width="3.0" stroke-linecap="butt" stroke-opacity="1.0" stroke="rgb(0, 0, 0)" stroke-linejoin="round" d=" M 197.522, 104.871 197.082, 102.550 196.816, 101.150 194.075, 91.533 192.966, 87.642 191.229, 83.408 186.713, 74.485 185.607, 72.299 179.570, 64.327 177.385, 61.441 169.844, 54.874 167.379, 52.727 165.077, 51.086 157.725, 47.300 " />
            <path fill="none" stroke-width="3.0" stroke-linecap="butt" stroke-opacity="1.0" stroke="rgb(0, 0, 0)" stroke-linejoin="round" d=" M 157.892, 48.140 157.725, 47.300 157.380, 45.559 155.584, 41.716 154.832, 40.889 149.035, 37.949 143.606, 37.624 141.572, 37.638 138.124, 39.936 136.623, 41.599 136.398, 41.848 " />
            <path fill="none" stroke-width="3.0" stroke-linecap="butt" stroke-opacity="1.0" stroke="rgb(0, 0, 0)" stroke-linejoin="round" d=" M 136.398, 41.848 137.266, 43.146 142.011, 45.200 148.819, 47.196 154.921, 48.320 157.892, 48.140 " />
            <path fill="none" stroke-width="3.0" stroke-linecap="butt" stroke-opacity="1.0" stroke="rgb(0, 0, 0)" stroke-linejoin="round" d=" M 39.062, 117.275 39.336, 117.580 42.209, 120.782 48.582, 127.883 51.019, 130.597 51.443, 130.864 59.915, 136.177 68.387, 141.491 73.317, 144.583 82.570, 148.376 89.142, 151.070 98.395, 154.862 103.645, 157.014 113.330, 159.500 123.016, 161.987 132.702, 164.474 137.332, 165.662 147.272, 166.754 157.213, 167.846 167.153, 168.938 168.686, 169.106 177.609, 168.445 187.582, 167.706 189.272, 167.581 192.148, 167.368 193.682, 166.688 202.825, 162.638 206.124, 161.176 210.733, 152.301 210.954, 151.875 211.809, 148.345 210.356, 142.775 206.818, 133.422 206.621, 132.900 203.136, 125.914 199.330, 122.123 " />
            <path fill="none" stroke-width="3.0" stroke-linecap="butt" stroke-opacity="1.0" stroke="rgb(0, 0, 0)" stroke-linejoin="round" d=" M 73.598, 140.444 65.095, 135.181 56.592, 129.918 52.212, 127.207 51.341, 126.668 51.278, 126.599 45.023, 119.756 39.394, 113.598 " />
            <path fill="none" stroke-width="3.0" stroke-linecap="butt" stroke-opacity="1.0" stroke="rgb(0, 0, 0)" stroke-linejoin="round" d=" M 89.290, 53.225 90.740, 53.758 91.156, 54.298 " />
            <path fill="none" stroke-width="3.0" stroke-linecap="butt" stroke-opacity="1.0" stroke="rgb(0, 0, 0)" stroke-linejoin="round" d=" M 92.433, 53.489 92.358, 53.463 89.290, 53.225 88.007, 54.564 " />
            <path fill="none" stroke-width="3.0" stroke-linecap="butt" stroke-opacity="1.0" stroke="rgb(0, 0, 0)" stroke-linejoin="round" d=" M 73.450, 72.128 71.278, 72.714 73.451, 72.127 " />
            <path fill="none" stroke-width="3.0" stroke-linecap="butt" stroke-opacity="1.0" stroke="rgb(0, 0, 0)" stroke-linejoin="round" d=" M 83.936, 55.295 83.968, 55.175 84.125, 55.269 " />
            <path fill="none" stroke-width="3.0" stroke-linecap="butt" stroke-opacity="1.0" stroke="rgb(0, 0, 0)" stroke-linejoin="round" d=" M 84.813, 55.321 86.869, 55.675 87.396, 55.949 88.087, 56.309 " />
            <path fill="none" stroke-width="3.0" stroke-linecap="butt" stroke-opacity="1.0" stroke="rgb(0, 0, 0)" stroke-linejoin="round" d=" M 87.233, 57.119 86.953, 56.953 86.612, 56.749 85.240, 55.932 " />
            <path fill="none" stroke-width="3.0" stroke-linecap="butt" stroke-opacity="1.0" stroke="rgb(0, 0, 0)" stroke-linejoin="round" d=" M 89.413, 208.567 86.809, 210.466 89.288, 208.877 " />
        </g>
    </g>
</svg>
