<?xml version='1.0' encoding='ascii'?>
<svg xmlns="http://www.w3.org/2000/svg" version="1.1" width="250" height="250">
    <g id="ViewLayer_LineSet" xmlns:inkscape="http://www.inkscape.org/namespaces/inkscape" inkscape:groupmode="lineset" inkscape:label="ViewLayer_LineSet">
        <g xmlns:inkscape="http://www.inkscape.org/namespaces/inkscape" inkscape:groupmode="layer" id="strokes" inkscape:label="strokes">
            <path fill="none" stroke-width="3.0" stroke-linecap="butt" stroke-opacity="1.0" stroke="rgb(0, 0, 0)" stroke-linejoin="round" d=" M 59.405, 99.337 57.982, 101.125 53.749, 108.234 49.940, 116.903 49.358, 118.789 48.423, 121.815 48.319, 122.153 47.972, 123.274 47.273, 125.540 46.020, 131.695 45.476, 138.074 45.250, 142.567 45.479, 148.222 45.959, 152.719 46.820, 157.361 47.666, 161.312 48.952, 165.616 50.616, 170.082 52.012, 173.227 52.585, 174.518 54.773, 178.730 57.088, 182.535 59.429, 185.758 62.361, 189.646 65.345, 192.928 69.457, 197.008 72.902, 199.720 75.963, 202.068 78.079, 203.691 84.043, 207.253 89.779, 209.845 93.588, 211.508 98.496, 212.924 100.612, 213.425 " />
            <path fill="none" stroke-width="3.0" stroke-linecap="butt" stroke-opacity="1.0" stroke="rgb(0, 0, 0)" stroke-linejoin="round" d=" M 189.664, 125.686 188.828, 121.777 188.657, 121.334 " />
            <path fill="none" stroke-width="3.0" stroke-linecap="butt" stroke-opacity="1.0" stroke="rgb(0, 0, 0)" stroke-linejoin="round" d=" M 168.263, 196.245 174.415, 189.882 176.412, 186.995 182.042, 178.731 182.396, 178.212 " />
            <path fill="none" stroke-width="3.0" stroke-linecap="butt" stroke-opacity="1.0" stroke="rgb(0, 0, 0)" stroke-linejoin="round" d=" M 77.110, 151.008 77.664, 152.409 78.597, 153.825 79.027, 154.479 80.922, 156.139 83.117, 157.370 85.158, 157.816 87.252, 157.747 89.626, 156.922 91.675, 155.596 93.224, 153.751 93.939, 152.436 " />
            <path fill="none" stroke-width="3.0" stroke-linecap="butt" stroke-opacity="1.0" stroke="rgb(0, 0, 0)" stroke-linejoin="round" d=" M 117.435, 101.864 117.630, 102.522 118.019, 103.830 118.472, 107.220 118.512, 111.046 118.528, 111.114 117.426, 119.410 117.410, 119.524 117.409, 119.532 116.183, 123.746 114.678, 128.037 112.924, 132.034 110.983, 135.545 108.923, 138.398 108.544, 138.766 108.157, 139.143 106.815, 140.448 104.730, 141.595 102.740, 141.778 101.457, 141.218 100.921, 140.985 99.343, 139.250 98.401, 137.314 98.147, 136.794 98.078, 136.651 97.184, 133.311 96.712, 129.389 96.690, 125.074 97.125, 120.572 97.982, 116.160 98.153, 115.567 98.197, 115.416 99.185, 111.996 100.705, 108.093 102.484, 104.592 104.452, 101.616 105.389, 100.559 " />
            <path fill="none" stroke-width="3.0" stroke-linecap="butt" stroke-opacity="1.0" stroke="rgb(0, 0, 0)" stroke-linejoin="round" d=" M 77.311, 119.480 76.333, 123.774 76.272, 124.003 75.250, 127.883 74.272, 130.979 74.140, 131.397 74.074, 131.607 72.813, 134.759 71.473, 137.180 70.070, 138.751 68.915, 139.270 68.631, 139.397 67.220, 139.390 65.845, 137.852 64.637, 135.748 63.662, 132.887 63.000, 129.416 62.903, 128.078 62.868, 127.601 62.716, 125.507 62.854, 121.349 63.166, 119.036 63.413, 117.199 64.279, 113.200 65.397, 109.356 66.722, 105.804 67.326, 104.520 67.566, 104.010 68.199, 102.666 69.772, 100.049 70.611, 98.999 " />
            <path fill="none" stroke-width="3.0" stroke-linecap="butt" stroke-opacity="1.0" stroke="rgb(0, 0, 0)" stroke-linejoin="round" d=" M 67.220, 139.390 70.425, 140.775 " />
            <path fill="none" stroke-width="3.0" stroke-linecap="butt" stroke-opacity="1.0" stroke="rgb(0, 0, 0)" stroke-linejoin="round" d=" M 77.878, 98.780 78.527, 101.075 78.887, 103.990 78.996, 107.479 78.837, 109.405 78.813, 109.694 78.687, 111.222 " />
            <path fill="none" stroke-width="3.0" stroke-linecap="butt" stroke-opacity="1.0" stroke="rgb(0, 0, 0)" stroke-linejoin="round" d=" M 80.417, 121.429 77.311, 119.480 78.134, 115.274 78.687, 111.222 81.754, 113.264 " />
            <path fill="none" stroke-width="3.0" stroke-linecap="butt" stroke-opacity="1.0" stroke="rgb(0, 0, 0)" stroke-linejoin="round" d=" M 110.448, 196.850 106.311, 200.190 103.493, 204.138 101.708, 208.074 100.740, 211.942 100.612, 213.425 100.429, 215.542 100.929, 219.369 102.435, 223.321 104.978, 226.254 108.717, 228.651 109.675, 229.007 114.293, 230.723 123.946, 233.335 124.518, 233.490 129.988, 234.578 136.194, 235.362 144.235, 235.796 150.893, 235.714 156.784, 235.227 162.652, 234.507 166.829, 233.882 171.110, 232.181 171.773, 231.609 175.743, 227.655 177.904, 224.015 179.141, 220.153 179.403, 215.660 178.529, 210.844 175.970, 204.955 172.340, 199.768 168.263, 196.245 167.624, 195.693 " />
            <path fill="none" stroke-width="3.0" stroke-linecap="butt" stroke-opacity="1.0" stroke="rgb(0, 0, 0)" stroke-linejoin="round" d=" M 75.963, 202.068 75.257, 204.790 74.174, 208.344 73.780, 211.700 73.528, 214.830 73.712, 217.826 74.586, 220.860 76.273, 224.224 78.571, 226.313 81.375, 228.634 85.785, 230.737 89.869, 231.827 94.264, 232.119 100.029, 231.814 105.810, 230.426 108.551, 229.437 109.675, 229.007 " />
            <path fill="none" stroke-width="3.0" stroke-linecap="butt" stroke-opacity="1.0" stroke="rgb(0, 0, 0)" stroke-linejoin="round" d=" M 182.396, 178.212 186.117, 179.930 188.049, 180.756 192.520, 182.037 196.644, 182.654 200.696, 182.572 204.077, 181.807 205.256, 181.465 207.778, 180.524 210.231, 179.146 212.875, 177.134 215.296, 174.654 217.300, 171.583 218.678, 168.527 219.461, 165.827 219.793, 163.167 219.859, 161.938 219.814, 158.492 218.937, 154.558 217.354, 150.717 215.032, 146.698 213.779, 145.016 209.739, 140.000 207.052, 137.250 206.645, 136.834 205.545, 135.709 201.387, 131.974 196.966, 128.934 192.136, 126.557 189.664, 125.686 " />
            <path fill="none" stroke-width="3.0" stroke-linecap="butt" stroke-opacity="1.0" stroke="rgb(0, 0, 0)" stroke-linejoin="round" d=" M 47.972, 123.274 45.250, 124.694 41.102, 127.667 37.200, 131.286 33.252, 135.438 29.459, 140.274 27.192, 144.243 25.656, 148.041 24.821, 151.968 24.660, 152.984 24.582, 156.222 25.008, 159.260 25.979, 162.157 27.446, 164.940 29.391, 167.589 31.699, 169.758 31.979, 169.965 34.284, 171.583 37.083, 172.982 40.130, 173.916 43.467, 174.419 47.420, 174.249 51.392, 173.436 52.012, 173.227 " />
            <path fill="none" stroke-width="3.0" stroke-linecap="butt" stroke-opacity="1.0" stroke="rgb(0, 0, 0)" stroke-linejoin="round" d=" M 116.261, 71.517 119.402, 69.113 119.509, 69.030 119.669, 68.705 119.706, 68.630 121.361, 65.261 122.347, 62.670 122.327, 58.989 121.311, 56.322 119.406, 52.612 117.678, 51.349 " />
            <path fill="none" stroke-width="3.0" stroke-linecap="butt" stroke-opacity="1.0" stroke="rgb(0, 0, 0)" stroke-linejoin="round" d=" M 56.096, 54.851 56.002, 55.116 54.481, 59.414 52.842, 65.502 52.272, 73.352 52.563, 74.617 54.214, 79.904 56.703, 81.147 59.938, 81.898 61.506, 82.263 61.848, 82.342 65.731, 82.788 71.741, 81.733 77.305, 80.312 82.742, 78.146 82.811, 78.118 " />
            <path fill="none" stroke-width="3.0" stroke-linecap="butt" stroke-opacity="1.0" stroke="rgb(0, 0, 0)" stroke-linejoin="round" d=" M 33.811, 111.402 31.610, 106.883 32.791, 105.736 37.491, 101.172 41.817, 100.073 49.709, 98.067 53.182, 97.184 56.932, 97.053 59.080, 96.979 61.344, 96.900 71.338, 96.551 73.534, 96.475 75.981, 96.390 75.994, 96.389 79.965, 96.251 89.935, 97.031 99.905, 97.810 107.633, 98.415 113.681, 98.888 116.266, 99.339 116.327, 99.349 126.178, 101.068 136.029, 102.787 145.880, 104.506 147.672, 104.818 157.334, 107.394 166.997, 109.970 176.659, 112.546 177.084, 112.660 178.193, 113.117 178.878, 113.400 183.066, 115.130 186.035, 116.356 " />
            <path fill="none" stroke-width="3.0" stroke-linecap="butt" stroke-opacity="1.0" stroke="rgb(0, 0, 0)" stroke-linejoin="round" d=" M 206.645, 136.834 206.664, 136.823 206.294, 130.477 200.086, 125.744 197.911, 124.086 " />
            <path fill="none" stroke-width="3.0" stroke-linecap="butt" stroke-opacity="1.0" stroke="rgb(0, 0, 0)" stroke-linejoin="round" d=" M 39.009, 107.522 40.876, 105.888 44.978, 102.299 54.744, 100.151 58.293, 99.371 " />
            <path fill="none" stroke-width="3.0" stroke-linecap="butt" stroke-opacity="1.0" stroke="rgb(0, 0, 0)" stroke-linejoin="round" d=" M 38.867, 116.290 47.141, 121.672 48.319, 122.153 " />
            <path fill="none" stroke-width="3.0" stroke-linecap="butt" stroke-opacity="1.0" stroke="rgb(0, 0, 0)" stroke-linejoin="round" d=" M 55.980, 99.440 46.216, 101.602 45.519, 101.756 41.089, 102.737 39.818, 103.019 33.810, 108.517 34.553, 110.086 " />
            <path fill="none" stroke-width="3.0" stroke-linecap="butt" stroke-opacity="1.0" stroke="rgb(0, 0, 0)" stroke-linejoin="round" d=" M 55.980, 99.440 58.293, 99.371 59.405, 99.337 59.610, 99.331 61.455, 99.275 70.611, 98.999 76.108, 98.834 77.878, 98.780 79.226, 98.740 81.511, 98.671 91.480, 99.459 101.449, 100.247 105.389, 100.559 110.194, 100.939 113.435, 101.195 117.435, 101.864 118.001, 101.959 127.864, 103.609 133.188, 104.500 143.051, 106.150 146.742, 106.767 156.412, 109.316 166.082, 111.864 175.693, 114.397 179.319, 115.874 184.306, 117.906 " />
            <path fill="none" stroke-width="3.0" stroke-linecap="butt" stroke-opacity="1.0" stroke="rgb(0, 0, 0)" stroke-linejoin="round" d=" M 41.018, 93.509 36.215, 97.419 33.047, 100.627 31.235, 103.474 30.065, 106.509 30.058, 108.976 30.522, 111.151 34.849, 115.283 37.528, 116.757 38.867, 116.290 38.894, 116.280 40.790, 115.618 42.059, 114.752 43.646, 113.670 45.232, 108.591 " />
            <path fill="none" stroke-width="3.0" stroke-linecap="butt" stroke-opacity="1.0" stroke="rgb(0, 0, 0)" stroke-linejoin="round" d=" M 33.253, 112.742 30.522, 111.151 " />
            <path fill="none" stroke-width="3.0" stroke-linecap="butt" stroke-opacity="1.0" stroke="rgb(0, 0, 0)" stroke-linejoin="round" d=" M 43.646, 113.670 39.917, 111.318 " />
            <path fill="none" stroke-width="3.0" stroke-linecap="butt" stroke-opacity="1.0" stroke="rgb(0, 0, 0)" stroke-linejoin="round" d=" M 40.804, 108.966 39.917, 111.318 36.496, 112.281 " />
            <path fill="none" stroke-width="3.0" stroke-linecap="butt" stroke-opacity="1.0" stroke="rgb(0, 0, 0)" stroke-linejoin="round" d=" M 57.456, 83.925 50.504, 87.231 42.165, 92.750 41.018, 93.509 47.276, 89.455 48.404, 88.843 57.191, 84.069 57.456, 83.925 59.048, 83.271 61.506, 82.263 " />
            <path fill="none" stroke-width="3.0" stroke-linecap="butt" stroke-opacity="1.0" stroke="rgb(0, 0, 0)" stroke-linejoin="round" d=" M 47.276, 89.455 49.565, 88.525 49.760, 88.446 53.294, 87.011 55.745, 86.015 57.634, 85.453 67.218, 82.598 67.370, 82.553 77.320, 81.556 78.340, 81.454 80.459, 81.242 81.793, 81.208 87.692, 81.060 88.784, 81.109 89.482, 81.140 " />
            <path fill="none" stroke-width="3.0" stroke-linecap="butt" stroke-opacity="1.0" stroke="rgb(0, 0, 0)" stroke-linejoin="round" d=" M 179.319, 115.874 179.991, 117.520 182.309, 118.618 183.008, 118.949 183.555, 119.181 188.657, 121.334 196.852, 124.794 197.003, 124.693 197.911, 124.086 198.719, 123.546 199.055, 123.321 199.308, 122.221 199.890, 119.691 196.987, 115.133 192.330, 110.625 190.493, 108.848 184.261, 104.357 182.937, 103.403 178.548, 100.144 177.777, 99.571 176.722, 98.788 171.631, 95.783 168.189, 93.751 161.005, 90.746 158.699, 89.782 157.011, 89.076 147.466, 86.093 144.305, 85.105 134.691, 82.351 131.515, 81.441 121.657, 79.759 118.660, 79.247 109.250, 77.709 107.473, 77.419 " />
            <path fill="none" stroke-width="3.0" stroke-linecap="butt" stroke-opacity="1.0" stroke="rgb(0, 0, 0)" stroke-linejoin="round" d=" M 102.854, 82.188 107.714, 82.693 111.438, 83.080 112.106, 83.244 121.818, 85.628 128.083, 87.165 137.686, 89.952 141.810, 91.149 142.480, 91.343 151.807, 94.949 155.314, 96.305 164.473, 100.319 166.461, 101.190 174.828, 105.256 181.278, 108.862 184.866, 111.549 186.350, 112.661 187.395, 114.310 187.729, 114.838 188.237, 115.640 188.434, 117.015 188.603, 118.193 187.669, 118.786 187.198, 119.084 186.068, 119.801 " />
            <path fill="none" stroke-width="3.0" stroke-linecap="butt" stroke-opacity="1.0" stroke="rgb(0, 0, 0)" stroke-linejoin="round" d=" M 99.111, 78.887 99.170, 78.802 100.337, 77.132 102.905, 73.458 103.694, 70.753 103.989, 69.742 104.339, 68.540 104.574, 67.735 105.009, 66.241 105.244, 65.435 105.324, 65.161 105.860, 58.738 105.846, 56.513 105.840, 55.552 105.831, 54.142 105.830, 53.951 " />
            <path fill="none" stroke-width="3.0" stroke-linecap="butt" stroke-opacity="1.0" stroke="rgb(0, 0, 0)" stroke-linejoin="round" d=" M 76.872, 73.592 80.420, 75.928 83.034, 77.204 83.123, 77.247 84.217, 77.782 85.572, 78.443 93.089, 80.024 98.306, 79.039 99.111, 78.887 100.315, 80.330 101.978, 81.625 102.018, 81.637 103.431, 82.074 " />
            <path fill="none" stroke-width="3.0" stroke-linecap="butt" stroke-opacity="1.0" stroke="rgb(0, 0, 0)" stroke-linejoin="round" d=" M 54.214, 79.904 53.892, 78.537 " />
            <path fill="none" stroke-width="3.0" stroke-linecap="butt" stroke-opacity="1.0" stroke="rgb(0, 0, 0)" stroke-linejoin="round" d=" M 79.894, 76.419 77.628, 74.898 76.872, 73.592 72.527, 75.891 66.652, 78.303 61.670, 79.227 59.027, 79.718 53.892, 78.537 52.272, 73.352 " />
            <path fill="none" stroke-width="3.0" stroke-linecap="butt" stroke-opacity="1.0" stroke="rgb(0, 0, 0)" stroke-linejoin="round" d=" M 110.664, 61.302 110.902, 60.969 110.974, 60.867 111.204, 60.544 114.177, 56.371 114.500, 55.907 117.678, 51.349 118.853, 49.662 122.521, 44.010 122.873, 42.720 124.064, 38.350 124.114, 35.197 122.931, 32.953 119.452, 28.679 114.179, 26.222 111.245, 25.106 105.508, 23.980 103.086, 23.714 101.124, 23.498 " />
            <path fill="none" stroke-width="3.0" stroke-linecap="butt" stroke-opacity="1.0" stroke="rgb(0, 0, 0)" stroke-linejoin="round" d=" M 56.002, 55.116 53.318, 51.289 50.326, 46.210 48.904, 40.788 49.375, 35.268 53.727, 31.052 60.765, 27.512 66.456, 25.899 70.769, 25.011 73.360, 21.010 77.249, 15.817 83.327, 10.027 88.735, 7.335 93.347, 9.375 97.616, 14.609 99.835, 19.580 101.124, 23.498 " />
            <path fill="none" stroke-width="3.0" stroke-linecap="butt" stroke-opacity="1.0" stroke="rgb(0, 0, 0)" stroke-linejoin="round" d=" M 108.962, 57.026 107.730, 55.586 107.168, 54.929 105.892, 53.996 105.830, 53.951 105.957, 53.840 106.815, 53.098 110.356, 50.031 111.025, 49.340 115.808, 44.396 116.640, 43.096 119.645, 38.404 121.321, 32.408 117.917, 28.216 111.245, 25.106 " />
            <path fill="none" stroke-width="3.0" stroke-linecap="butt" stroke-opacity="1.0" stroke="rgb(0, 0, 0)" stroke-linejoin="round" d=" M 103.086, 23.714 102.163, 21.349 99.681, 16.510 98.257, 14.228 94.377, 9.479 89.674, 7.402 88.735, 7.335 " />
            <path fill="none" stroke-width="3.0" stroke-linecap="butt" stroke-opacity="1.0" stroke="rgb(0, 0, 0)" stroke-linejoin="round" d=" M 53.318, 51.289 56.096, 54.851 " />
            <path fill="none" stroke-width="3.0" stroke-linecap="butt" stroke-opacity="1.0" stroke="rgb(0, 0, 0)" stroke-linejoin="round" d=" M 191.354, 105.746 188.457, 96.174 186.336, 89.167 185.332, 88.095 184.124, 83.748 179.281, 74.999 178.016, 72.715 171.492, 65.136 170.375, 63.839 164.696, 58.363 156.746, 52.297 156.386, 52.022 149.168, 48.183 142.907, 45.999 138.149, 44.452 137.089, 44.107 130.643, 42.957 126.563, 42.780 124.289, 42.681 122.873, 42.720 " />
            <path fill="none" stroke-width="3.0" stroke-linecap="butt" stroke-opacity="1.0" stroke="rgb(0, 0, 0)" stroke-linejoin="round" d=" M 79.894, 76.419 81.639, 77.435 82.760, 78.088 82.811, 78.118 83.261, 78.380 84.553, 79.132 84.767, 79.257 87.620, 80.396 89.321, 81.075 89.482, 81.140 89.960, 81.330 90.788, 81.661 93.530, 82.252 97.842, 83.182 101.258, 82.505 102.854, 82.188 103.431, 82.074 103.655, 81.753 104.396, 80.693 106.706, 77.388 107.271, 76.578 107.371, 76.435 108.695, 72.495 108.814, 72.141 109.243, 69.890 109.490, 68.595 109.597, 68.032 110.232, 64.701 110.664, 61.302 110.748, 60.644 110.772, 60.453 110.850, 59.845 110.881, 59.596 " />
            <path fill="none" stroke-width="3.0" stroke-linecap="butt" stroke-opacity="1.0" stroke="rgb(0, 0, 0)" stroke-linejoin="round" d=" M 186.729, 102.785 183.051, 99.717 174.883, 96.038 166.779, 92.388 161.005, 90.746 " />
            <path fill="none" stroke-width="3.0" stroke-linecap="butt" stroke-opacity="1.0" stroke="rgb(0, 0, 0)" stroke-linejoin="round" d=" M 121.257, 68.722 119.706, 68.630 " />
            <path fill="none" stroke-width="3.0" stroke-linecap="butt" stroke-opacity="1.0" stroke="rgb(0, 0, 0)" stroke-linejoin="round" d=" M 121.257, 68.722 129.661, 70.042 132.914, 70.552 142.793, 72.104 145.019, 72.454 " />
            <path fill="none" stroke-width="3.0" stroke-linecap="butt" stroke-opacity="1.0" stroke="rgb(0, 0, 0)" stroke-linejoin="round" d=" M 138.149, 44.452 137.552, 43.650 134.216, 42.263 130.160, 41.812 126.993, 42.474 126.563, 42.780 " />
            <path fill="none" stroke-width="3.0" stroke-linecap="butt" stroke-opacity="1.0" stroke="rgb(0, 0, 0)" stroke-linejoin="round" d=" M 207.052, 137.250 208.913, 136.173 209.779, 132.466 209.619, 125.629 205.792, 120.129 200.017, 113.021 192.359, 106.590 191.354, 105.746 190.468, 105.002 186.729, 102.785 185.039, 101.783 176.435, 97.932 171.631, 95.783 " />
            <path fill="none" stroke-width="3.0" stroke-linecap="butt" stroke-opacity="1.0" stroke="rgb(0, 0, 0)" stroke-linejoin="round" d=" M 199.308, 122.221 207.192, 128.372 208.690, 129.540 208.913, 136.173 " />
            <path fill="none" stroke-width="3.0" stroke-linecap="butt" stroke-opacity="1.0" stroke="rgb(0, 0, 0)" stroke-linejoin="round" d=" M 44.336, 92.547 43.571, 93.126 38.109, 97.197 32.047, 103.225 31.610, 106.883 " />
            <path fill="none" stroke-width="3.0" stroke-linecap="butt" stroke-opacity="1.0" stroke="rgb(0, 0, 0)" stroke-linejoin="round" d=" M 209.619, 125.629 201.849, 119.334 199.353, 117.313 " />
            <path fill="none" stroke-width="3.0" stroke-linecap="butt" stroke-opacity="1.0" stroke="rgb(0, 0, 0)" stroke-linejoin="round" d=" M 59.938, 81.898 59.048, 83.271 " />
            <path fill="none" stroke-width="3.0" stroke-linecap="butt" stroke-opacity="1.0" stroke="rgb(0, 0, 0)" stroke-linejoin="round" d=" M 107.253, 77.410 107.521, 76.510 108.714, 72.495 " />
            <path fill="none" stroke-width="3.0" stroke-linecap="butt" stroke-opacity="1.0" stroke="rgb(0, 0, 0)" stroke-linejoin="round" d=" M 108.695, 72.495 108.714, 72.495 110.880, 72.422 " />
            <path fill="none" stroke-width="3.0" stroke-linecap="butt" stroke-opacity="1.0" stroke="rgb(0, 0, 0)" stroke-linejoin="round" d=" M 197.003, 124.693 201.581, 128.148 " />
        </g>
    </g>
</svg>
