<?xml version='1.0' encoding='ascii'?>
<svg xmlns="http://www.w3.org/2000/svg" version="1.1" width="250" height="250">
    <g id="ViewLayer_LineSet" xmlns:inkscape="http://www.inkscape.org/namespaces/inkscape" inkscape:groupmode="lineset" inkscape:label="ViewLayer_LineSet">
        <g xmlns:inkscape="http://www.inkscape.org/namespaces/inkscape" inkscape:groupmode="layer" id="strokes" inkscape:label="strokes">
            <path fill="none" stroke-width="3.0" stroke-linecap="butt" stroke-opacity="1.0" stroke="rgb(0, 0, 0)" stroke-linejoin="round" d=" M 108.911, 215.304 111.728, 215.618 113.203, 215.782 117.712, 215.978 122.234, 215.883 126.568, 215.503 128.392, 215.205 130.523, 214.856 136.850, 213.461 141.892, 212.156 145.862, 210.580 154.657, 206.418 158.110, 204.181 164.421, 199.591 166.793, 197.866 173.744, 190.677 174.412, 189.986 175.302, 188.699 " />
            <path fill="none" stroke-width="3.0" stroke-linecap="butt" stroke-opacity="1.0" stroke="rgb(0, 0, 0)" stroke-linejoin="round" d=" M 59.392, 99.458 57.983, 101.230 53.749, 108.338 49.941, 117.006 49.362, 118.882 48.427, 121.908 48.322, 122.247 47.273, 125.644 46.021, 131.800 45.477, 138.179 45.251, 142.670 45.480, 148.326 45.960, 152.823 46.821, 157.466 47.667, 161.416 48.953, 165.720 50.617, 170.185 52.585, 174.621 54.774, 178.834 57.089, 182.639 59.429, 185.862 59.448, 185.887 " />
            <path fill="none" stroke-width="3.0" stroke-linecap="butt" stroke-opacity="1.0" stroke="rgb(0, 0, 0)" stroke-linejoin="round" d=" M 190.794, 131.092 188.825, 121.882 188.660, 121.455 " />
            <path fill="none" stroke-width="3.0" stroke-linecap="butt" stroke-opacity="1.0" stroke="rgb(0, 0, 0)" stroke-linejoin="round" d=" M 77.110, 151.127 77.664, 152.528 79.027, 154.598 80.922, 156.258 83.117, 157.490 84.671, 157.829 85.158, 157.936 87.252, 157.867 89.626, 157.042 91.675, 155.717 93.223, 153.872 93.939, 152.557 " />
            <path fill="none" stroke-width="3.0" stroke-linecap="butt" stroke-opacity="1.0" stroke="rgb(0, 0, 0)" stroke-linejoin="round" d=" M 117.435, 101.992 117.618, 102.606 118.018, 103.952 118.470, 107.342 118.511, 111.168 118.527, 111.237 117.429, 119.497 117.414, 119.611 117.408, 119.655 116.182, 123.870 114.677, 128.160 112.923, 132.158 110.982, 135.669 108.922, 138.521 108.579, 138.854 108.191, 139.232 106.814, 140.571 104.729, 141.718 102.740, 141.901 101.458, 141.342 100.920, 141.108 99.343, 139.373 98.379, 137.393 98.125, 136.873 98.077, 136.774 97.184, 133.434 96.711, 129.512 96.689, 125.197 97.125, 120.695 97.981, 116.282 98.162, 115.656 98.206, 115.505 99.184, 112.118 100.705, 108.215 102.483, 104.713 104.451, 101.737 105.383, 100.686 " />
            <path fill="none" stroke-width="3.0" stroke-linecap="butt" stroke-opacity="1.0" stroke="rgb(0, 0, 0)" stroke-linejoin="round" d=" M 77.311, 119.600 76.333, 123.894 75.250, 128.003 74.282, 131.068 74.150, 131.486 74.074, 131.727 72.813, 134.879 71.473, 137.300 70.070, 138.871 68.917, 139.388 68.632, 139.516 67.221, 139.509 65.845, 137.970 64.638, 135.866 63.662, 133.005 63.000, 129.533 62.901, 128.166 62.866, 127.689 62.717, 125.624 62.855, 121.466 63.079, 119.802 63.414, 117.316 64.280, 113.316 65.398, 109.472 66.722, 105.920 67.335, 104.617 67.575, 104.108 68.199, 102.782 69.772, 100.165 70.605, 99.123 " />
            <path fill="none" stroke-width="3.0" stroke-linecap="butt" stroke-opacity="1.0" stroke="rgb(0, 0, 0)" stroke-linejoin="round" d=" M 67.221, 139.509 70.425, 140.892 " />
            <path fill="none" stroke-width="3.0" stroke-linecap="butt" stroke-opacity="1.0" stroke="rgb(0, 0, 0)" stroke-linejoin="round" d=" M 77.880, 98.905 78.527, 101.194 78.887, 104.108 78.996, 107.598 78.839, 109.496 78.816, 109.784 78.687, 111.341 " />
            <path fill="none" stroke-width="3.0" stroke-linecap="butt" stroke-opacity="1.0" stroke="rgb(0, 0, 0)" stroke-linejoin="round" d=" M 80.417, 121.547 77.311, 119.600 77.489, 118.688 78.134, 115.394 78.687, 111.341 81.754, 113.382 " />
            <path fill="none" stroke-width="3.0" stroke-linecap="butt" stroke-opacity="1.0" stroke="rgb(0, 0, 0)" stroke-linejoin="round" d=" M 173.136, 199.810 177.719, 203.332 " />
            <path fill="none" stroke-width="3.0" stroke-linecap="butt" stroke-opacity="1.0" stroke="rgb(0, 0, 0)" stroke-linejoin="round" d=" M 164.421, 199.591 167.056, 200.079 171.885, 202.352 175.296, 205.086 " />
            <path fill="none" stroke-width="3.0" stroke-linecap="butt" stroke-opacity="1.0" stroke="rgb(0, 0, 0)" stroke-linejoin="round" d=" M 128.392, 215.205 128.863, 217.115 130.562, 221.915 131.603, 224.368 133.401, 226.274 137.147, 229.900 141.670, 232.425 147.024, 233.808 151.806, 234.278 157.084, 233.802 163.797, 232.230 169.344, 230.071 174.782, 227.018 178.039, 223.820 179.595, 221.748 183.044, 215.337 183.613, 213.842 187.090, 204.466 187.916, 202.238 190.158, 192.492 190.361, 191.607 " />
            <path fill="none" stroke-width="3.0" stroke-linecap="butt" stroke-opacity="1.0" stroke="rgb(0, 0, 0)" stroke-linejoin="round" d=" M 51.947, 230.099 56.955, 230.806 63.794, 231.095 68.320, 230.980 74.089, 230.530 80.770, 229.576 88.082, 228.228 94.574, 226.788 98.790, 225.694 102.066, 224.821 103.428, 224.313 106.101, 222.377 109.554, 219.421 111.599, 216.124 111.728, 215.618 " />
            <path fill="none" stroke-width="3.0" stroke-linecap="butt" stroke-opacity="1.0" stroke="rgb(0, 0, 0)" stroke-linejoin="round" d=" M 59.448, 185.887 59.144, 185.962 53.057, 187.924 47.761, 190.634 42.535, 193.531 39.111, 196.500 35.970, 201.247 35.022, 202.599 32.914, 206.734 31.704, 210.782 31.374, 214.664 31.869, 218.752 " />
            <path fill="none" stroke-width="3.0" stroke-linecap="butt" stroke-opacity="1.0" stroke="rgb(0, 0, 0)" stroke-linejoin="round" d=" M 42.921, 228.087 38.161, 226.280 35.421, 224.575 32.934, 220.765 31.869, 218.752 33.852, 222.564 35.421, 224.575 " />
            <path fill="none" stroke-width="3.0" stroke-linecap="butt" stroke-opacity="1.0" stroke="rgb(0, 0, 0)" stroke-linejoin="round" d=" M 42.921, 228.087 47.567, 229.168 51.947, 230.099 47.062, 229.157 42.921, 228.087 " />
            <path fill="none" stroke-width="3.0" stroke-linecap="butt" stroke-opacity="1.0" stroke="rgb(0, 0, 0)" stroke-linejoin="round" d=" M 195.379, 134.777 191.710, 131.591 190.794, 131.092 186.345, 128.664 182.659, 126.979 " />
            <path fill="none" stroke-width="3.0" stroke-linecap="butt" stroke-opacity="1.0" stroke="rgb(0, 0, 0)" stroke-linejoin="round" d=" M 197.542, 137.399 197.162, 136.917 195.379, 134.777 197.542, 137.399 198.624, 138.710 200.166, 140.715 200.328, 140.926 200.415, 141.055 200.427, 141.072 203.327, 145.370 206.252, 150.375 208.565, 156.084 209.770, 160.633 210.305, 163.028 210.799, 167.013 210.539, 170.908 209.818, 174.251 208.987, 177.165 207.384, 180.408 206.166, 182.496 203.873, 185.035 202.417, 186.383 200.324, 187.953 198.157, 189.227 196.115, 190.215 193.206, 191.126 190.631, 191.593 190.361, 191.607 186.942, 191.781 183.727, 191.617 180.057, 190.536 176.635, 189.376 175.302, 188.699 172.931, 187.495 169.148, 184.876 166.804, 182.573 " />
            <path fill="none" stroke-width="3.0" stroke-linecap="butt" stroke-opacity="1.0" stroke="rgb(0, 0, 0)" stroke-linejoin="round" d=" M 116.260, 71.636 119.422, 69.215 119.508, 69.150 119.668, 68.824 119.705, 68.749 121.360, 65.382 122.345, 62.790 122.326, 59.109 121.309, 56.443 119.405, 52.733 117.680, 51.472 " />
            <path fill="none" stroke-width="3.0" stroke-linecap="butt" stroke-opacity="1.0" stroke="rgb(0, 0, 0)" stroke-linejoin="round" d=" M 56.096, 54.977 56.003, 55.241 54.482, 59.540 52.843, 65.628 52.273, 73.478 52.563, 74.742 54.215, 80.030 56.704, 81.272 59.926, 82.021 61.485, 82.384 61.848, 82.468 65.732, 82.913 71.741, 81.858 77.305, 80.438 82.739, 78.272 82.808, 78.245 " />
            <path fill="none" stroke-width="3.0" stroke-linecap="butt" stroke-opacity="1.0" stroke="rgb(0, 0, 0)" stroke-linejoin="round" d=" M 33.812, 111.503 31.611, 106.989 32.792, 105.844 37.492, 101.286 41.809, 100.191 49.690, 98.191 53.183, 97.305 56.959, 97.174 59.085, 97.101 61.330, 97.023 71.324, 96.677 73.511, 96.601 75.991, 96.515 76.006, 96.515 79.965, 96.377 89.935, 97.158 99.904, 97.938 107.624, 98.543 113.680, 99.017 116.270, 99.468 116.331, 99.479 126.183, 101.198 136.034, 102.916 145.885, 104.635 147.669, 104.946 157.332, 107.521 166.995, 110.096 176.658, 112.671 177.081, 112.783 178.192, 113.242 178.891, 113.530 183.063, 115.252 186.015, 116.470 " />
            <path fill="none" stroke-width="3.0" stroke-linecap="butt" stroke-opacity="1.0" stroke="rgb(0, 0, 0)" stroke-linejoin="round" d=" M 200.166, 140.715 206.660, 136.926 206.291, 130.587 200.089, 125.863 197.908, 124.202 " />
            <path fill="none" stroke-width="3.0" stroke-linecap="butt" stroke-opacity="1.0" stroke="rgb(0, 0, 0)" stroke-linejoin="round" d=" M 39.010, 107.628 40.876, 105.997 44.979, 102.411 54.746, 100.267 58.279, 99.492 " />
            <path fill="none" stroke-width="3.0" stroke-linecap="butt" stroke-opacity="1.0" stroke="rgb(0, 0, 0)" stroke-linejoin="round" d=" M 38.869, 116.388 47.141, 121.766 48.322, 122.247 " />
            <path fill="none" stroke-width="3.0" stroke-linecap="butt" stroke-opacity="1.0" stroke="rgb(0, 0, 0)" stroke-linejoin="round" d=" M 55.980, 99.561 46.216, 101.718 45.504, 101.876 41.089, 102.851 39.819, 103.132 33.811, 108.623 34.553, 110.189 " />
            <path fill="none" stroke-width="3.0" stroke-linecap="butt" stroke-opacity="1.0" stroke="rgb(0, 0, 0)" stroke-linejoin="round" d=" M 55.980, 99.561 58.279, 99.492 59.392, 99.458 59.639, 99.451 61.482, 99.396 70.605, 99.123 76.082, 98.959 77.880, 98.905 79.238, 98.864 81.511, 98.796 91.480, 99.585 101.449, 100.374 105.383, 100.686 110.183, 101.065 113.434, 101.323 117.435, 101.992 118.004, 102.087 127.867, 103.737 132.738, 104.552 142.601, 106.202 146.740, 106.894 156.410, 109.441 166.080, 111.988 175.690, 114.520 179.317, 115.996 184.285, 118.019 " />
            <path fill="none" stroke-width="3.0" stroke-linecap="butt" stroke-opacity="1.0" stroke="rgb(0, 0, 0)" stroke-linejoin="round" d=" M 41.019, 93.620 36.216, 97.528 33.048, 100.734 31.237, 103.580 30.066, 106.613 30.059, 109.079 30.523, 111.254 34.850, 115.382 37.529, 116.856 38.869, 116.388 38.897, 116.378 40.791, 115.717 42.063, 114.849 43.647, 113.769 45.233, 108.691 " />
            <path fill="none" stroke-width="3.0" stroke-linecap="butt" stroke-opacity="1.0" stroke="rgb(0, 0, 0)" stroke-linejoin="round" d=" M 33.254, 112.845 30.523, 111.254 " />
            <path fill="none" stroke-width="3.0" stroke-linecap="butt" stroke-opacity="1.0" stroke="rgb(0, 0, 0)" stroke-linejoin="round" d=" M 43.647, 113.769 39.918, 111.421 " />
            <path fill="none" stroke-width="3.0" stroke-linecap="butt" stroke-opacity="1.0" stroke="rgb(0, 0, 0)" stroke-linejoin="round" d=" M 40.807, 109.065 39.918, 111.421 36.497, 112.384 " />
            <path fill="none" stroke-width="3.0" stroke-linecap="butt" stroke-opacity="1.0" stroke="rgb(0, 0, 0)" stroke-linejoin="round" d=" M 57.456, 84.036 50.505, 87.340 42.167, 92.860 41.019, 93.620 47.277, 89.569 48.378, 88.970 57.164, 84.195 57.456, 84.036 59.042, 83.386 61.485, 82.384 " />
            <path fill="none" stroke-width="3.0" stroke-linecap="butt" stroke-opacity="1.0" stroke="rgb(0, 0, 0)" stroke-linejoin="round" d=" M 47.277, 89.569 49.547, 88.648 49.754, 88.564 53.314, 87.119 55.746, 86.132 57.624, 85.573 67.208, 82.720 67.370, 82.672 77.320, 81.677 78.309, 81.578 80.459, 81.363 81.791, 81.330 87.691, 81.183 88.753, 81.230 89.463, 81.262 " />
            <path fill="none" stroke-width="3.0" stroke-linecap="butt" stroke-opacity="1.0" stroke="rgb(0, 0, 0)" stroke-linejoin="round" d=" M 179.317, 115.996 179.988, 117.638 182.275, 118.723 183.005, 119.069 183.517, 119.285 188.660, 121.455 196.848, 124.910 197.002, 124.807 197.908, 124.202 198.719, 123.660 199.051, 123.438 199.305, 122.337 199.886, 119.808 196.984, 115.251 192.330, 110.747 190.490, 108.966 184.370, 104.557 182.934, 103.522 178.519, 100.244 177.804, 99.714 176.719, 98.908 171.605, 95.889 168.186, 93.871 160.979, 90.857 158.766, 89.932 157.008, 89.197 147.463, 86.214 144.302, 85.227 134.689, 82.473 131.513, 81.563 121.656, 79.880 118.659, 79.368 109.249, 77.830 107.472, 77.539 " />
            <path fill="none" stroke-width="3.0" stroke-linecap="butt" stroke-opacity="1.0" stroke="rgb(0, 0, 0)" stroke-linejoin="round" d=" M 102.870, 82.314 107.712, 82.818 111.437, 83.205 112.072, 83.361 121.784, 85.745 128.081, 87.291 137.685, 90.078 141.756, 91.260 142.478, 91.469 151.805, 95.075 155.312, 96.430 164.471, 100.444 166.458, 101.315 174.825, 105.380 181.275, 108.985 184.873, 111.679 186.346, 112.783 187.387, 114.425 187.717, 114.946 188.233, 115.762 188.427, 117.115 188.599, 118.315 187.671, 118.903 187.196, 119.204 186.065, 119.922 " />
            <path fill="none" stroke-width="3.0" stroke-linecap="butt" stroke-opacity="1.0" stroke="rgb(0, 0, 0)" stroke-linejoin="round" d=" M 99.110, 79.021 99.195, 78.899 100.346, 77.252 102.905, 73.591 103.702, 70.856 103.992, 69.862 104.343, 68.657 104.577, 67.854 105.012, 66.360 105.243, 65.568 105.323, 65.294 105.859, 58.871 105.845, 56.629 105.839, 55.673 105.830, 54.266 105.829, 54.083 " />
            <path fill="none" stroke-width="3.0" stroke-linecap="butt" stroke-opacity="1.0" stroke="rgb(0, 0, 0)" stroke-linejoin="round" d=" M 76.872, 73.722 80.420, 76.059 83.030, 77.333 83.096, 77.366 84.193, 77.901 85.572, 78.574 93.088, 80.156 97.965, 79.236 99.110, 79.021 100.314, 80.463 101.976, 81.755 101.977, 81.757 103.430, 82.203 " />
            <path fill="none" stroke-width="3.0" stroke-linecap="butt" stroke-opacity="1.0" stroke="rgb(0, 0, 0)" stroke-linejoin="round" d=" M 54.215, 80.030 53.893, 78.664 " />
            <path fill="none" stroke-width="3.0" stroke-linecap="butt" stroke-opacity="1.0" stroke="rgb(0, 0, 0)" stroke-linejoin="round" d=" M 79.894, 76.547 77.628, 75.028 76.872, 73.722 72.528, 76.020 66.652, 78.432 61.653, 79.359 59.028, 79.845 53.893, 78.664 52.273, 73.478 " />
            <path fill="none" stroke-width="3.0" stroke-linecap="butt" stroke-opacity="1.0" stroke="rgb(0, 0, 0)" stroke-linejoin="round" d=" M 110.664, 61.428 110.902, 61.093 110.977, 60.987 111.206, 60.666 114.176, 56.497 114.501, 56.030 117.680, 51.472 118.852, 49.792 122.520, 44.140 122.879, 42.823 124.062, 38.479 124.113, 35.328 122.929, 33.085 119.450, 28.810 114.177, 26.353 111.244, 25.237 105.507, 24.111 103.086, 23.844 101.123, 23.628 " />
            <path fill="none" stroke-width="3.0" stroke-linecap="butt" stroke-opacity="1.0" stroke="rgb(0, 0, 0)" stroke-linejoin="round" d=" M 56.003, 55.241 53.319, 51.414 50.327, 46.334 48.905, 40.912 49.376, 35.391 53.728, 31.175 60.765, 27.637 66.456, 26.024 70.769, 25.137 73.360, 21.136 77.249, 15.943 83.327, 10.153 88.734, 7.462 93.347, 9.503 97.615, 14.738 99.834, 19.709 101.123, 23.628 " />
            <path fill="none" stroke-width="3.0" stroke-linecap="butt" stroke-opacity="1.0" stroke="rgb(0, 0, 0)" stroke-linejoin="round" d=" M 108.960, 57.156 107.738, 55.728 107.167, 55.061 105.888, 54.127 105.829, 54.083 105.950, 53.978 106.818, 53.227 110.355, 50.164 111.035, 49.462 115.807, 44.529 116.658, 43.200 119.644, 38.537 121.319, 32.541 117.915, 28.348 111.244, 25.237 " />
            <path fill="none" stroke-width="3.0" stroke-linecap="butt" stroke-opacity="1.0" stroke="rgb(0, 0, 0)" stroke-linejoin="round" d=" M 103.086, 23.844 102.163, 21.476 99.680, 16.637 98.256, 14.356 94.376, 9.606 89.674, 7.528 88.734, 7.462 " />
            <path fill="none" stroke-width="3.0" stroke-linecap="butt" stroke-opacity="1.0" stroke="rgb(0, 0, 0)" stroke-linejoin="round" d=" M 53.319, 51.414 56.096, 54.977 " />
            <path fill="none" stroke-width="3.0" stroke-linecap="butt" stroke-opacity="1.0" stroke="rgb(0, 0, 0)" stroke-linejoin="round" d=" M 191.354, 105.862 188.457, 96.291 186.333, 89.273 185.329, 88.201 184.121, 83.853 179.279, 75.104 178.014, 72.818 171.490, 65.240 170.372, 63.942 164.694, 58.469 156.745, 52.401 156.384, 52.125 149.166, 48.289 142.906, 46.102 138.152, 44.557 137.088, 44.210 130.642, 43.061 126.557, 42.883 124.288, 42.784 122.879, 42.823 " />
            <path fill="none" stroke-width="3.0" stroke-linecap="butt" stroke-opacity="1.0" stroke="rgb(0, 0, 0)" stroke-linejoin="round" d=" M 79.894, 76.547 81.624, 77.555 82.757, 78.215 82.808, 78.245 83.240, 78.496 84.549, 79.259 84.767, 79.386 87.595, 80.515 89.300, 81.197 89.463, 81.262 89.923, 81.445 90.788, 81.791 93.486, 82.372 97.841, 83.310 101.297, 82.626 102.870, 82.314 103.430, 82.203 103.660, 81.875 104.401, 80.814 106.711, 77.508 107.294, 76.674 107.370, 76.565 108.697, 72.616 108.813, 72.271 109.247, 69.995 109.491, 68.713 109.598, 68.151 110.231, 64.830 110.664, 61.428 110.748, 60.761 110.772, 60.574 110.850, 59.964 110.880, 59.724 " />
            <path fill="none" stroke-width="3.0" stroke-linecap="butt" stroke-opacity="1.0" stroke="rgb(0, 0, 0)" stroke-linejoin="round" d=" M 186.741, 102.907 183.048, 99.829 174.892, 96.158 166.777, 92.505 160.979, 90.857 " />
            <path fill="none" stroke-width="3.0" stroke-linecap="butt" stroke-opacity="1.0" stroke="rgb(0, 0, 0)" stroke-linejoin="round" d=" M 121.255, 68.841 119.705, 68.749 " />
            <path fill="none" stroke-width="3.0" stroke-linecap="butt" stroke-opacity="1.0" stroke="rgb(0, 0, 0)" stroke-linejoin="round" d=" M 121.255, 68.841 129.450, 70.127 133.054, 70.693 142.933, 72.244 145.017, 72.572 " />
            <path fill="none" stroke-width="3.0" stroke-linecap="butt" stroke-opacity="1.0" stroke="rgb(0, 0, 0)" stroke-linejoin="round" d=" M 138.152, 44.557 137.551, 43.749 134.215, 42.362 130.158, 41.911 126.992, 42.573 126.557, 42.883 " />
            <path fill="none" stroke-width="3.0" stroke-linecap="butt" stroke-opacity="1.0" stroke="rgb(0, 0, 0)" stroke-linejoin="round" d=" M 200.427, 141.072 200.755, 140.990 208.909, 136.275 209.775, 132.568 209.616, 125.738 205.788, 120.238 200.013, 113.129 192.353, 106.701 191.354, 105.862 190.465, 105.116 186.741, 102.907 185.036, 101.896 176.445, 98.054 171.605, 95.889 " />
            <path fill="none" stroke-width="3.0" stroke-linecap="butt" stroke-opacity="1.0" stroke="rgb(0, 0, 0)" stroke-linejoin="round" d=" M 199.305, 122.337 207.192, 128.484 208.686, 129.649 208.909, 136.275 " />
            <path fill="none" stroke-width="3.0" stroke-linecap="butt" stroke-opacity="1.0" stroke="rgb(0, 0, 0)" stroke-linejoin="round" d=" M 44.323, 92.670 43.572, 93.239 38.110, 97.311 32.048, 103.331 31.611, 106.989 " />
            <path fill="none" stroke-width="3.0" stroke-linecap="butt" stroke-opacity="1.0" stroke="rgb(0, 0, 0)" stroke-linejoin="round" d=" M 209.616, 125.738 201.842, 119.447 199.349, 117.429 " />
            <path fill="none" stroke-width="3.0" stroke-linecap="butt" stroke-opacity="1.0" stroke="rgb(0, 0, 0)" stroke-linejoin="round" d=" M 59.926, 82.021 59.042, 83.386 " />
            <path fill="none" stroke-width="3.0" stroke-linecap="butt" stroke-opacity="1.0" stroke="rgb(0, 0, 0)" stroke-linejoin="round" d=" M 107.252, 77.530 107.526, 76.611 108.712, 72.615 " />
            <path fill="none" stroke-width="3.0" stroke-linecap="butt" stroke-opacity="1.0" stroke="rgb(0, 0, 0)" stroke-linejoin="round" d=" M 108.697, 72.616 108.712, 72.615 110.879, 72.541 " />
            <path fill="none" stroke-width="3.0" stroke-linecap="butt" stroke-opacity="1.0" stroke="rgb(0, 0, 0)" stroke-linejoin="round" d=" M 166.804, 182.573 167.368, 183.084 " />
            <path fill="none" stroke-width="3.0" stroke-linecap="butt" stroke-opacity="1.0" stroke="rgb(0, 0, 0)" stroke-linejoin="round" d=" M 197.002, 124.807 201.578, 128.257 " />
        </g>
    </g>
</svg>
