<?xml version='1.0' encoding='ascii'?>
<svg xmlns="http://www.w3.org/2000/svg" version="1.1" width="250" height="250">
    <g id="ViewLayer_LineSet" xmlns:inkscape="http://www.inkscape.org/namespaces/inkscape" inkscape:groupmode="lineset" inkscape:label="ViewLayer_LineSet">
        <g xmlns:inkscape="http://www.inkscape.org/namespaces/inkscape" inkscape:groupmode="layer" id="strokes" inkscape:label="strokes">
            <path fill="none" stroke-width="3.0" stroke-linecap="butt" stroke-opacity="1.0" stroke="rgb(0, 0, 0)" stroke-linejoin="round" d=" M 68.980, 188.487 70.950, 190.569 76.369, 195.235 78.387, 196.644 78.467, 196.699 78.485, 196.712 80.080, 197.825 " />
            <path fill="none" stroke-width="3.0" stroke-linecap="butt" stroke-opacity="1.0" stroke="rgb(0, 0, 0)" stroke-linejoin="round" d=" M 144.785, 206.686 146.067, 206.286 154.265, 202.321 158.401, 200.306 163.634, 196.477 166.737, 194.207 169.559, 191.707 176.493, 184.500 177.136, 183.832 182.778, 175.576 183.388, 174.683 187.596, 165.612 188.119, 164.485 188.624, 162.668 " />
            <path fill="none" stroke-width="3.0" stroke-linecap="butt" stroke-opacity="1.0" stroke="rgb(0, 0, 0)" stroke-linejoin="round" d=" M 51.840, 118.868 51.020, 121.540 50.013, 126.338 49.150, 133.402 49.001, 140.491 49.020, 141.695 49.068, 142.267 " />
            <path fill="none" stroke-width="3.0" stroke-linecap="butt" stroke-opacity="1.0" stroke="rgb(0, 0, 0)" stroke-linejoin="round" d=" M 72.840, 198.820 70.996, 200.114 66.175, 204.182 63.633, 208.128 62.208, 212.253 62.260, 216.543 62.410, 218.734 63.602, 222.822 64.804, 224.749 68.089, 228.578 70.930, 230.607 78.419, 234.006 88.371, 233.029 92.445, 232.629 95.643, 231.778 99.911, 230.093 109.042, 226.015 110.939, 225.168 119.991, 220.918 122.368, 219.803 125.609, 218.078 134.417, 213.343 135.022, 213.017 136.295, 212.210 143.680, 207.525 144.785, 206.686 146.028, 205.742 149.883, 201.980 " />
            <path fill="none" stroke-width="3.0" stroke-linecap="butt" stroke-opacity="1.0" stroke="rgb(0, 0, 0)" stroke-linejoin="round" d=" M 82.403, 196.034 80.520, 198.097 80.514, 198.103 80.505, 198.121 80.500, 198.132 78.195, 202.740 76.699, 208.467 76.534, 214.599 " />
            <path fill="none" stroke-width="3.0" stroke-linecap="butt" stroke-opacity="1.0" stroke="rgb(0, 0, 0)" stroke-linejoin="round" d=" M 75.113, 197.929 74.917, 198.000 72.840, 198.820 75.113, 197.929 78.387, 196.644 " />
            <path fill="none" stroke-width="3.0" stroke-linecap="butt" stroke-opacity="1.0" stroke="rgb(0, 0, 0)" stroke-linejoin="round" d=" M 136.295, 212.210 136.440, 212.216 140.167, 212.215 144.133, 211.778 149.011, 210.825 152.302, 209.666 154.845, 208.338 156.681, 207.160 159.201, 205.519 160.412, 204.350 162.570, 200.980 163.048, 198.983 163.634, 196.477 " />
            <path fill="none" stroke-width="3.0" stroke-linecap="butt" stroke-opacity="1.0" stroke="rgb(0, 0, 0)" stroke-linejoin="round" d=" M 66.684, 126.148 66.268, 126.346 63.358, 127.638 59.078, 130.685 55.209, 134.500 51.547, 138.966 49.068, 142.267 47.767, 143.998 44.291, 149.775 42.385, 154.533 40.748, 160.215 40.311, 164.378 40.573, 167.837 40.793, 169.603 41.482, 172.240 42.501, 175.288 44.354, 178.492 45.430, 180.143 47.643, 182.470 49.265, 183.796 51.639, 185.607 54.106, 186.767 56.677, 187.923 59.697, 188.579 62.661, 188.961 66.304, 189.023 68.980, 188.487 70.508, 188.181 73.275, 187.227 77.507, 185.569 81.916, 183.155 87.104, 179.111 " />
            <path fill="none" stroke-width="3.0" stroke-linecap="butt" stroke-opacity="1.0" stroke="rgb(0, 0, 0)" stroke-linejoin="round" d=" M 72.418, 51.709 73.438, 51.974 " />
            <path fill="none" stroke-width="3.0" stroke-linecap="butt" stroke-opacity="1.0" stroke="rgb(0, 0, 0)" stroke-linejoin="round" d=" M 84.665, 57.681 84.347, 57.701 83.658, 58.145 83.370, 58.330 82.107, 59.144 81.413, 59.590 81.046, 59.952 80.992, 60.006 80.981, 60.017 " />
            <path fill="none" stroke-width="3.0" stroke-linecap="butt" stroke-opacity="1.0" stroke="rgb(0, 0, 0)" stroke-linejoin="round" d=" M 45.132, 88.803 38.844, 93.393 37.930, 96.986 39.824, 105.354 40.838, 106.333 " />
            <path fill="none" stroke-width="3.0" stroke-linecap="butt" stroke-opacity="1.0" stroke="rgb(0, 0, 0)" stroke-linejoin="round" d=" M 53.814, 118.339 56.644, 120.056 56.847, 120.179 57.713, 120.705 61.851, 123.215 66.684, 126.148 75.224, 131.329 84.365, 135.385 93.505, 139.441 102.646, 143.497 104.082, 144.134 105.742, 144.678 115.246, 147.789 124.749, 150.901 134.253, 154.012 135.927, 154.560 143.927, 156.278 153.705, 158.377 163.482, 160.475 165.397, 160.886 166.387, 161.029 168.104, 161.275 178.081, 161.952 188.058, 162.630 188.624, 162.668 191.545, 162.866 201.339, 160.847 205.010, 160.090 208.803, 153.809 209.824, 150.224 208.609, 144.337 205.159, 136.023 201.564, 129.206 198.378, 125.555 " />
            <path fill="none" stroke-width="3.0" stroke-linecap="butt" stroke-opacity="1.0" stroke="rgb(0, 0, 0)" stroke-linejoin="round" d=" M 81.006, 60.730 81.002, 60.632 80.981, 60.017 80.980, 60.005 80.905, 57.841 80.879, 57.096 80.878, 57.069 80.873, 57.064 80.819, 57.005 79.536, 55.608 78.528, 54.510 77.963, 53.894 77.581, 53.479 77.040, 52.890 76.377, 52.168 76.001, 51.758 75.314, 51.816 73.438, 51.974 73.065, 52.005 72.305, 52.069 69.489, 52.306 67.437, 52.729 63.423, 58.285 63.127, 58.820 63.346, 64.492 63.706, 65.624 67.292, 69.638 68.110, 70.553 69.717, 71.224 " />
            <path fill="none" stroke-width="3.0" stroke-linecap="butt" stroke-opacity="1.0" stroke="rgb(0, 0, 0)" stroke-linejoin="round" d=" M 83.370, 58.330 83.382, 58.114 83.404, 57.753 83.095, 57.299 81.951, 55.614 81.618, 55.124 79.817, 54.390 78.029, 53.662 77.581, 53.479 " />
            <path fill="none" stroke-width="3.0" stroke-linecap="butt" stroke-opacity="1.0" stroke="rgb(0, 0, 0)" stroke-linejoin="round" d=" M 80.819, 57.005 79.632, 55.196 79.462, 54.938 78.528, 54.510 " />
            <path fill="none" stroke-width="3.0" stroke-linecap="butt" stroke-opacity="1.0" stroke="rgb(0, 0, 0)" stroke-linejoin="round" d=" M 81.046, 59.952 81.180, 57.871 81.198, 57.583 80.879, 57.096 " />
            <path fill="none" stroke-width="3.0" stroke-linecap="butt" stroke-opacity="1.0" stroke="rgb(0, 0, 0)" stroke-linejoin="round" d=" M 65.961, 76.864 63.469, 77.694 60.090, 78.819 56.864, 79.893 51.026, 82.886 " />
            <path fill="none" stroke-width="3.0" stroke-linecap="butt" stroke-opacity="1.0" stroke="rgb(0, 0, 0)" stroke-linejoin="round" d=" M 65.939, 76.897 63.579, 77.792 62.437, 78.225 60.560, 78.991 59.254, 79.525 51.026, 82.886 46.876, 86.178 45.132, 88.803 44.085, 90.379 43.104, 92.497 42.051, 94.769 40.865, 98.618 40.718, 101.066 40.650, 102.205 40.783, 106.066 40.838, 106.333 41.399, 109.082 42.144, 111.624 50.155, 117.609 51.840, 118.868 52.067, 119.037 52.398, 119.221 55.098, 120.723 56.644, 120.056 " />
            <path fill="none" stroke-width="3.0" stroke-linecap="butt" stroke-opacity="1.0" stroke="rgb(0, 0, 0)" stroke-linejoin="round" d=" M 52.200, 117.212 52.154, 117.843 52.067, 119.037 51.917, 118.617 51.052, 116.197 50.711, 115.243 50.292, 110.308 50.917, 107.540 51.779, 103.727 52.611, 98.097 53.215, 93.518 53.277, 93.149 53.529, 91.652 54.026, 88.697 55.845, 84.468 57.019, 83.222 58.995, 81.126 60.077, 80.214 61.234, 79.239 62.237, 78.393 62.437, 78.225 " />
            <path fill="none" stroke-width="3.0" stroke-linecap="butt" stroke-opacity="1.0" stroke="rgb(0, 0, 0)" stroke-linejoin="round" d=" M 89.565, 53.597 89.426, 53.522 85.085, 53.871 " />
            <path fill="none" stroke-width="3.0" stroke-linecap="butt" stroke-opacity="1.0" stroke="rgb(0, 0, 0)" stroke-linejoin="round" d=" M 89.426, 53.522 89.526, 53.630 " />
            <path fill="none" stroke-width="3.0" stroke-linecap="butt" stroke-opacity="1.0" stroke="rgb(0, 0, 0)" stroke-linejoin="round" d=" M 81.381, 43.537 81.028, 42.105 81.025, 42.090 81.018, 42.065 80.487, 39.909 79.296, 35.249 76.524, 28.632 74.400, 25.659 71.780, 22.888 69.305, 21.554 68.017, 21.877 64.869, 23.261 60.853, 27.302 58.043, 31.232 56.090, 34.338 53.564, 34.483 50.080, 35.076 45.437, 37.238 42.257, 40.455 41.345, 45.351 41.629, 50.267 42.886, 54.885 44.139, 58.072 42.694, 61.715 41.084, 66.568 39.944, 72.787 40.366, 76.841 40.981, 77.868 43.669, 78.806 46.482, 79.753 50.567, 80.097 54.125, 79.304 58.515, 78.046 59.192, 77.851 61.186, 77.280 64.779, 73.604 " />
            <path fill="none" stroke-width="3.0" stroke-linecap="butt" stroke-opacity="1.0" stroke="rgb(0, 0, 0)" stroke-linejoin="round" d=" M 60.250, 35.801 57.153, 34.341 56.090, 34.338 " />
            <path fill="none" stroke-width="3.0" stroke-linecap="butt" stroke-opacity="1.0" stroke="rgb(0, 0, 0)" stroke-linejoin="round" d=" M 48.021, 59.942 44.889, 58.663 44.139, 58.072 " />
            <path fill="none" stroke-width="3.0" stroke-linecap="butt" stroke-opacity="1.0" stroke="rgb(0, 0, 0)" stroke-linejoin="round" d=" M 141.220, 39.816 131.260, 38.914 130.255, 38.823 120.347, 40.173 116.899, 40.643 107.456, 43.933 103.709, 45.238 94.974, 50.106 92.474, 51.499 90.434, 52.873 89.565, 53.597 89.526, 53.630 87.008, 55.728 86.998, 55.737 86.018, 56.553 85.853, 56.690 84.665, 57.681 84.056, 58.189 83.343, 58.783 81.779, 60.086 81.459, 60.353 81.006, 60.730 80.996, 60.739 79.443, 62.032 79.033, 62.546 78.368, 63.376 77.553, 64.395 77.275, 64.743 75.893, 66.470 75.470, 66.999 75.283, 67.232 75.160, 67.387 75.129, 67.425 75.025, 67.556 74.877, 67.740 74.637, 68.040 74.625, 68.055 74.584, 68.107 73.955, 68.893 73.843, 69.033 " />
            <path fill="none" stroke-width="3.0" stroke-linecap="butt" stroke-opacity="1.0" stroke="rgb(0, 0, 0)" stroke-linejoin="round" d=" M 42.953, 40.594 45.767, 41.861 49.826, 43.896 " />
            <path fill="none" stroke-width="3.0" stroke-linecap="butt" stroke-opacity="1.0" stroke="rgb(0, 0, 0)" stroke-linejoin="round" d=" M 43.669, 78.806 47.828, 79.152 " />
            <path fill="none" stroke-width="3.0" stroke-linecap="butt" stroke-opacity="1.0" stroke="rgb(0, 0, 0)" stroke-linejoin="round" d=" M 58.515, 78.046 59.216, 78.498 60.090, 78.819 " />
            <path fill="none" stroke-width="3.0" stroke-linecap="butt" stroke-opacity="1.0" stroke="rgb(0, 0, 0)" stroke-linejoin="round" d=" M 84.808, 53.603 85.648, 51.213 85.185, 48.073 84.176, 45.792 82.648, 43.510 81.242, 42.247 81.018, 42.065 " />
            <path fill="none" stroke-width="3.0" stroke-linecap="butt" stroke-opacity="1.0" stroke="rgb(0, 0, 0)" stroke-linejoin="round" d=" M 75.129, 67.425 75.008, 67.435 73.927, 67.518 73.472, 67.553 72.519, 67.627 72.296, 67.888 72.034, 68.195 70.666, 69.797 69.847, 71.028 69.717, 71.224 65.961, 76.864 65.939, 76.897 65.928, 76.913 64.768, 78.657 64.628, 78.867 64.228, 79.468 63.794, 80.119 62.548, 81.990 62.654, 82.211 63.867, 84.756 64.162, 85.373 65.339, 87.841 68.053, 89.944 69.177, 90.814 71.573, 92.671 75.791, 95.939 76.455, 96.295 79.971, 98.185 84.090, 100.397 87.517, 102.239 93.533, 105.471 102.756, 109.335 111.980, 113.198 116.632, 115.147 126.125, 118.292 135.250, 121.314 141.765, 123.472 151.477, 125.853 161.190, 128.233 165.064, 129.183 173.226, 130.271 183.138, 131.593 183.263, 131.609 184.541, 131.514 186.921, 131.335 192.321, 130.931 194.470, 130.770 194.596, 130.651 198.278, 127.191 198.378, 125.555 198.986, 115.574 199.517, 106.847 197.637, 104.442 " />
            <path fill="none" stroke-width="3.0" stroke-linecap="butt" stroke-opacity="1.0" stroke="rgb(0, 0, 0)" stroke-linejoin="round" d=" M 199.517, 106.847 196.279, 109.045 186.403, 108.897 185.876, 108.889 " />
            <path fill="none" stroke-width="3.0" stroke-linecap="butt" stroke-opacity="1.0" stroke="rgb(0, 0, 0)" stroke-linejoin="round" d=" M 197.760, 105.166 197.637, 104.442 197.149, 101.580 194.975, 91.819 194.092, 87.855 190.155, 78.663 188.764, 75.417 183.336, 67.019 180.843, 63.162 179.845, 62.041 172.879, 54.867 170.670, 52.591 162.298, 47.121 161.712, 46.738 161.389, 44.213 159.912, 40.414 153.818, 36.507 147.132, 35.969 146.534, 35.927 142.976, 38.068 141.220, 39.816 141.137, 39.898 " />
            <path fill="none" stroke-width="3.0" stroke-linecap="butt" stroke-opacity="1.0" stroke="rgb(0, 0, 0)" stroke-linejoin="round" d=" M 141.137, 39.898 144.133, 41.236 150.075, 43.427 156.588, 45.591 161.026, 46.850 161.712, 46.738 " />
            <path fill="none" stroke-width="3.0" stroke-linecap="butt" stroke-opacity="1.0" stroke="rgb(0, 0, 0)" stroke-linejoin="round" d=" M 51.852, 116.969 52.333, 117.261 52.537, 117.385 56.819, 119.981 56.898, 120.029 57.736, 120.537 61.903, 123.063 66.855, 126.066 74.092, 130.454 83.234, 134.508 92.375, 138.562 101.517, 142.616 104.190, 143.801 105.709, 144.299 115.213, 147.411 124.716, 150.522 134.220, 153.634 137.426, 154.684 143.591, 156.009 153.368, 158.109 163.145, 160.210 166.555, 160.942 168.104, 161.275 " />
            <path fill="none" stroke-width="3.0" stroke-linecap="butt" stroke-opacity="1.0" stroke="rgb(0, 0, 0)" stroke-linejoin="round" d=" M 105.076, 139.512 104.886, 139.429 95.733, 135.401 86.580, 131.373 77.427, 127.345 75.046, 126.297 71.190, 123.995 63.151, 119.194 60.501, 117.612 58.449, 116.387 58.132, 116.197 53.545, 113.458 53.240, 113.276 52.827, 113.029 " />
            <path fill="none" stroke-width="3.0" stroke-linecap="butt" stroke-opacity="1.0" stroke="rgb(0, 0, 0)" stroke-linejoin="round" d=" M 87.008, 55.728 85.085, 53.871 84.808, 53.603 81.842, 50.740 79.783, 50.143 77.681, 49.849 77.483, 49.822 75.699, 51.171 75.314, 51.816 " />
            <path fill="none" stroke-width="3.0" stroke-linecap="butt" stroke-opacity="1.0" stroke="rgb(0, 0, 0)" stroke-linejoin="round" d=" M 77.483, 49.822 79.494, 50.415 83.153, 54.026 83.160, 54.033 84.263, 55.121 85.853, 56.690 " />
            <path fill="none" stroke-width="3.0" stroke-linecap="butt" stroke-opacity="1.0" stroke="rgb(0, 0, 0)" stroke-linejoin="round" d=" M 72.305, 52.069 72.418, 51.709 73.065, 52.005 " />
        </g>
    </g>
</svg>
