<?xml version='1.0' encoding='ascii'?>
<svg xmlns="http://www.w3.org/2000/svg" version="1.1" width="250" height="250">
    <g id="ViewLayer_LineSet" xmlns:inkscape="http://www.inkscape.org/namespaces/inkscape" inkscape:groupmode="lineset" inkscape:label="ViewLayer_LineSet">
        <g xmlns:inkscape="http://www.inkscape.org/namespaces/inkscape" inkscape:groupmode="layer" id="strokes" inkscape:label="strokes">
            <path fill="none" stroke-width="3.0" stroke-linecap="butt" stroke-opacity="1.0" stroke="rgb(0, 0, 0)" stroke-linejoin="round" d=" M 165.958, 198.862 166.784, 198.262 173.737, 191.074 174.402, 190.386 176.399, 187.486 182.031, 179.222 182.638, 178.331 " />
            <path fill="none" stroke-width="3.0" stroke-linecap="butt" stroke-opacity="1.0" stroke="rgb(0, 0, 0)" stroke-linejoin="round" d=" M 59.343, 99.926 57.985, 101.633 53.752, 108.739 49.944, 117.405 49.377, 119.241 48.442, 122.268 48.337, 122.610 48.005, 123.684 47.276, 126.043 46.024, 132.202 45.480, 138.585 45.254, 143.069 45.484, 148.730 45.963, 153.221 46.824, 157.870 47.670, 161.817 48.956, 166.118 50.620, 170.583 52.227, 174.206 52.588, 175.018 54.776, 179.232 57.091, 183.039 59.431, 186.265 62.363, 190.145 65.347, 193.433 69.458, 197.507 72.902, 200.226 78.079, 204.193 78.318, 204.335 84.042, 207.751 89.777, 210.339 93.586, 212.008 98.108, 213.318 " />
            <path fill="none" stroke-width="3.0" stroke-linecap="butt" stroke-opacity="1.0" stroke="rgb(0, 0, 0)" stroke-linejoin="round" d=" M 189.599, 125.960 188.813, 122.286 188.672, 121.921 " />
            <path fill="none" stroke-width="3.0" stroke-linecap="butt" stroke-opacity="1.0" stroke="rgb(0, 0, 0)" stroke-linejoin="round" d=" M 77.110, 151.584 77.664, 152.985 78.368, 154.054 79.027, 155.055 80.921, 156.716 83.116, 157.949 85.157, 158.396 87.251, 158.328 89.624, 157.505 91.673, 156.180 93.222, 154.336 93.937, 153.022 " />
            <path fill="none" stroke-width="3.0" stroke-linecap="butt" stroke-opacity="1.0" stroke="rgb(0, 0, 0)" stroke-linejoin="round" d=" M 117.437, 102.485 117.570, 102.932 118.013, 104.422 118.465, 107.813 118.506, 111.640 118.522, 111.709 117.443, 119.831 117.428, 119.943 117.403, 120.129 116.177, 124.344 114.673, 128.636 112.918, 132.633 110.978, 136.144 108.918, 138.996 108.713, 139.195 108.323, 139.574 106.810, 141.046 104.725, 142.192 102.736, 142.374 101.460, 141.818 100.917, 141.581 99.340, 139.846 98.294, 137.697 98.074, 137.247 98.056, 137.179 97.181, 133.906 96.709, 129.984 96.687, 125.668 97.122, 121.166 97.979, 116.752 98.197, 115.998 98.239, 115.850 99.181, 112.588 100.702, 108.683 102.480, 105.181 104.448, 102.204 105.361, 101.174 " />
            <path fill="none" stroke-width="3.0" stroke-linecap="butt" stroke-opacity="1.0" stroke="rgb(0, 0, 0)" stroke-linejoin="round" d=" M 77.310, 120.062 76.333, 124.356 76.188, 124.908 75.250, 128.466 74.320, 131.410 74.188, 131.830 74.074, 132.190 72.813, 135.341 71.474, 137.761 70.071, 139.331 68.922, 139.845 68.633, 139.975 67.222, 139.966 65.847, 138.427 64.639, 136.321 63.664, 133.459 63.002, 129.986 62.894, 128.504 62.860, 128.025 62.719, 126.075 62.856, 121.916 63.154, 119.705 63.415, 117.765 64.281, 113.764 65.399, 109.919 66.723, 106.366 67.371, 104.990 67.609, 104.485 68.200, 103.228 69.773, 100.611 70.583, 99.598 " />
            <path fill="none" stroke-width="3.0" stroke-linecap="butt" stroke-opacity="1.0" stroke="rgb(0, 0, 0)" stroke-linejoin="round" d=" M 67.222, 139.966 70.426, 141.343 " />
            <path fill="none" stroke-width="3.0" stroke-linecap="butt" stroke-opacity="1.0" stroke="rgb(0, 0, 0)" stroke-linejoin="round" d=" M 77.887, 99.385 78.527, 101.648 78.886, 104.565 78.996, 108.056 78.848, 109.846 78.825, 110.132 78.687, 111.801 " />
            <path fill="none" stroke-width="3.0" stroke-linecap="butt" stroke-opacity="1.0" stroke="rgb(0, 0, 0)" stroke-linejoin="round" d=" M 80.417, 122.003 77.310, 120.062 78.134, 115.855 78.687, 111.801 81.753, 113.835 " />
            <path fill="none" stroke-width="3.0" stroke-linecap="butt" stroke-opacity="1.0" stroke="rgb(0, 0, 0)" stroke-linejoin="round" d=" M 172.653, 206.401 171.154, 204.187 169.288, 201.755 " />
            <path fill="none" stroke-width="3.0" stroke-linecap="butt" stroke-opacity="1.0" stroke="rgb(0, 0, 0)" stroke-linejoin="round" d=" M 145.308, 238.045 153.089, 238.505 161.638, 238.664 166.051, 238.063 169.785, 236.494 173.934, 232.571 176.224, 228.935 177.574, 225.049 177.947, 220.468 177.173, 215.536 174.718, 209.450 173.720, 207.874 172.653, 206.401 169.288, 201.755 165.958, 198.862 163.731, 196.926 " />
            <path fill="none" stroke-width="3.0" stroke-linecap="butt" stroke-opacity="1.0" stroke="rgb(0, 0, 0)" stroke-linejoin="round" d=" M 113.679, 194.028 108.658, 196.444 104.361, 199.697 101.383, 203.554 99.453, 207.423 98.353, 211.259 98.108, 213.318 97.927, 214.847 98.320, 218.693 99.732, 222.756 102.240, 225.736 105.991, 228.146 109.562, 229.908 110.068, 230.158 115.157, 232.469 121.711, 234.383 127.282, 235.466 133.568, 236.521 139.822, 237.336 145.308, 238.045 139.320, 237.279 133.568, 236.521 " />
            <path fill="none" stroke-width="3.0" stroke-linecap="butt" stroke-opacity="1.0" stroke="rgb(0, 0, 0)" stroke-linejoin="round" d=" M 78.318, 204.335 78.303, 204.402 77.433, 207.806 77.230, 210.989 77.097, 214.863 77.443, 217.647 78.468, 220.417 80.252, 224.320 83.544, 227.327 " />
            <path fill="none" stroke-width="3.0" stroke-linecap="butt" stroke-opacity="1.0" stroke="rgb(0, 0, 0)" stroke-linejoin="round" d=" M 86.817, 229.200 85.464, 228.500 83.544, 227.327 86.817, 229.200 87.744, 229.730 89.857, 230.771 93.888, 231.907 98.192, 232.142 103.815, 231.646 109.415, 229.977 109.562, 229.908 " />
            <path fill="none" stroke-width="3.0" stroke-linecap="butt" stroke-opacity="1.0" stroke="rgb(0, 0, 0)" stroke-linejoin="round" d=" M 182.638, 178.331 185.991, 179.839 188.551, 180.637 192.819, 181.800 196.736, 182.311 200.561, 182.130 205.258, 180.938 207.572, 179.944 209.746, 178.617 209.889, 178.525 212.395, 176.589 214.908, 173.916 216.949, 170.589 218.189, 167.471 218.726, 165.513 219.163, 162.567 219.138, 159.674 218.868, 157.949 218.108, 154.090 216.660, 150.333 214.497, 146.407 210.622, 141.618 206.900, 137.816 206.541, 137.449 206.498, 137.405 204.756, 135.665 200.771, 132.021 196.521, 129.061 191.866, 126.757 189.599, 125.960 " />
            <path fill="none" stroke-width="3.0" stroke-linecap="butt" stroke-opacity="1.0" stroke="rgb(0, 0, 0)" stroke-linejoin="round" d=" M 48.005, 123.684 44.532, 125.525 40.327, 128.572 36.360, 132.275 32.331, 136.525 28.458, 141.475 26.139, 145.529 24.566, 149.404 23.710, 153.399 23.652, 156.882 24.116, 160.160 24.299, 160.783 25.265, 163.699 26.756, 166.487 28.741, 169.126 31.096, 171.269 33.739, 173.054 36.615, 174.402 39.766, 175.272 43.216, 175.698 47.289, 175.431 51.355, 174.517 52.227, 174.206 " />
            <path fill="none" stroke-width="3.0" stroke-linecap="butt" stroke-opacity="1.0" stroke="rgb(0, 0, 0)" stroke-linejoin="round" d=" M 116.255, 72.094 119.503, 69.611 119.503, 69.611 119.665, 69.282 119.701, 69.208 121.355, 65.847 122.340, 63.253 122.321, 59.573 121.304, 56.911 119.400, 53.199 117.689, 51.947 " />
            <path fill="none" stroke-width="3.0" stroke-linecap="butt" stroke-opacity="1.0" stroke="rgb(0, 0, 0)" stroke-linejoin="round" d=" M 56.099, 55.461 56.006, 55.724 54.485, 60.024 52.846, 66.113 52.276, 73.965 52.566, 75.227 54.218, 80.517 56.706, 81.754 59.881, 82.494 61.404, 82.849 61.850, 82.953 65.733, 83.391 71.688, 82.348 71.742, 82.339 74.066, 81.746 77.305, 80.920 82.727, 78.761 82.797, 78.733 " />
            <path fill="none" stroke-width="3.0" stroke-linecap="butt" stroke-opacity="1.0" stroke="rgb(0, 0, 0)" stroke-linejoin="round" d=" M 33.815, 111.892 31.616, 107.399 32.797, 106.259 37.496, 101.724 41.778, 100.646 49.616, 98.671 53.186, 97.771 57.064, 97.640 59.105, 97.571 61.275, 97.497 71.269, 97.159 73.420, 97.086 76.033, 96.998 76.051, 96.997 79.965, 96.864 89.934, 97.648 99.904, 98.431 107.587, 99.035 113.676, 99.513 116.282, 99.968 116.349, 99.979 126.200, 101.697 136.051, 103.414 145.903, 105.131 147.661, 105.438 157.325, 108.008 166.989, 110.578 176.653, 113.148 177.069, 113.259 178.188, 113.720 178.941, 114.029 183.053, 115.721 185.936, 116.908 " />
            <path fill="none" stroke-width="3.0" stroke-linecap="butt" stroke-opacity="1.0" stroke="rgb(0, 0, 0)" stroke-linejoin="round" d=" M 206.498, 137.405 206.647, 137.319 206.277, 131.007 200.100, 126.319 197.898, 124.648 " />
            <path fill="none" stroke-width="3.0" stroke-linecap="butt" stroke-opacity="1.0" stroke="rgb(0, 0, 0)" stroke-linejoin="round" d=" M 39.014, 108.035 40.878, 106.414 44.982, 102.845 54.753, 100.715 58.227, 99.958 " />
            <path fill="none" stroke-width="3.0" stroke-linecap="butt" stroke-opacity="1.0" stroke="rgb(0, 0, 0)" stroke-linejoin="round" d=" M 38.875, 116.767 47.144, 122.125 48.337, 122.610 " />
            <path fill="none" stroke-width="3.0" stroke-linecap="butt" stroke-opacity="1.0" stroke="rgb(0, 0, 0)" stroke-linejoin="round" d=" M 55.983, 100.024 46.215, 102.167 45.446, 102.335 41.090, 103.291 39.823, 103.569 33.816, 109.032 34.555, 110.586 " />
            <path fill="none" stroke-width="3.0" stroke-linecap="butt" stroke-opacity="1.0" stroke="rgb(0, 0, 0)" stroke-linejoin="round" d=" M 55.983, 100.024 58.227, 99.958 59.343, 99.926 59.748, 99.914 61.588, 99.860 70.583, 99.598 75.995, 99.440 77.887, 99.385 79.283, 99.344 81.511, 99.279 91.479, 100.071 101.448, 100.863 105.361, 101.174 110.140, 101.553 113.430, 101.815 117.437, 102.485 118.019, 102.582 127.882, 104.231 130.997, 104.752 140.860, 106.401 146.731, 107.382 156.402, 109.925 166.074, 112.467 175.678, 114.992 179.310, 116.467 184.203, 118.453 " />
            <path fill="none" stroke-width="3.0" stroke-linecap="butt" stroke-opacity="1.0" stroke="rgb(0, 0, 0)" stroke-linejoin="round" d=" M 41.023, 94.048 36.220, 97.947 33.053, 101.147 31.241, 103.986 30.071, 107.015 30.064, 109.478 30.528, 111.652 34.854, 115.763 37.533, 117.236 38.875, 116.767 38.908, 116.756 40.794, 116.097 42.077, 115.222 43.650, 114.149 45.236, 109.074 " />
            <path fill="none" stroke-width="3.0" stroke-linecap="butt" stroke-opacity="1.0" stroke="rgb(0, 0, 0)" stroke-linejoin="round" d=" M 33.258, 113.242 30.528, 111.652 " />
            <path fill="none" stroke-width="3.0" stroke-linecap="butt" stroke-opacity="1.0" stroke="rgb(0, 0, 0)" stroke-linejoin="round" d=" M 43.650, 114.149 39.922, 111.819 " />
            <path fill="none" stroke-width="3.0" stroke-linecap="butt" stroke-opacity="1.0" stroke="rgb(0, 0, 0)" stroke-linejoin="round" d=" M 40.816, 109.447 39.922, 111.819 36.501, 112.781 " />
            <path fill="none" stroke-width="3.0" stroke-linecap="butt" stroke-opacity="1.0" stroke="rgb(0, 0, 0)" stroke-linejoin="round" d=" M 57.458, 84.463 50.508, 87.758 42.174, 93.285 41.023, 94.048 47.280, 90.007 48.279, 89.463 57.061, 84.679 57.458, 84.463 59.018, 83.825 61.404, 82.849 " />
            <path fill="none" stroke-width="3.0" stroke-linecap="butt" stroke-opacity="1.0" stroke="rgb(0, 0, 0)" stroke-linejoin="round" d=" M 47.280, 90.007 49.476, 89.118 49.729, 89.016 53.390, 87.534 55.748, 86.580 57.586, 86.034 67.173, 83.190 67.371, 83.131 77.322, 82.144 78.190, 82.058 80.459, 81.833 81.786, 81.800 87.690, 81.656 88.634, 81.698 89.391, 81.732 " />
            <path fill="none" stroke-width="3.0" stroke-linecap="butt" stroke-opacity="1.0" stroke="rgb(0, 0, 0)" stroke-linejoin="round" d=" M 179.310, 116.467 179.976, 118.097 182.143, 119.127 182.992, 119.530 183.371, 119.689 188.672, 121.921 196.835, 125.356 197.000, 125.246 197.898, 124.648 198.720, 124.099 199.037, 123.888 199.291, 122.785 199.872, 120.260 196.970, 115.705 192.330, 111.215 190.477, 109.422 184.801, 105.334 182.922, 103.981 178.409, 100.632 177.908, 100.261 176.707, 99.369 171.505, 96.300 168.175, 94.335 160.878, 91.285 159.020, 90.509 156.999, 89.664 147.454, 86.681 144.294, 85.694 134.681, 82.939 131.507, 82.030 121.649, 80.346 118.654, 79.834 109.244, 78.293 107.468, 78.002 " />
            <path fill="none" stroke-width="3.0" stroke-linecap="butt" stroke-opacity="1.0" stroke="rgb(0, 0, 0)" stroke-linejoin="round" d=" M 102.931, 82.799 107.703, 83.297 111.433, 83.686 111.940, 83.810 121.651, 86.196 128.075, 87.774 137.678, 90.562 141.548, 91.685 142.470, 91.952 151.797, 95.557 155.302, 96.912 164.462, 100.925 166.447, 101.794 174.813, 105.857 181.262, 109.459 184.898, 112.180 186.333, 113.254 187.355, 114.866 187.670, 115.362 188.220, 116.230 188.402, 117.501 188.586, 118.782 187.678, 119.356 187.189, 119.666 186.052, 120.386 " />
            <path fill="none" stroke-width="3.0" stroke-linecap="butt" stroke-opacity="1.0" stroke="rgb(0, 0, 0)" stroke-linejoin="round" d=" M 99.107, 79.534 99.291, 79.271 100.379, 77.714 102.901, 74.105 103.733, 71.250 104.004, 70.322 104.357, 69.108 104.590, 68.309 105.025, 66.816 105.240, 66.078 105.320, 65.807 105.856, 59.383 105.841, 57.077 105.835, 56.138 105.826, 54.743 105.825, 54.594 " />
            <path fill="none" stroke-width="3.0" stroke-linecap="butt" stroke-opacity="1.0" stroke="rgb(0, 0, 0)" stroke-linejoin="round" d=" M 76.872, 74.221 80.420, 76.561 82.994, 77.820 83.015, 77.830 84.099, 78.360 85.570, 79.080 93.086, 80.667 96.675, 79.991 99.107, 79.534 100.311, 80.974 101.916, 82.217 101.974, 82.262 103.427, 82.701 " />
            <path fill="none" stroke-width="3.0" stroke-linecap="butt" stroke-opacity="1.0" stroke="rgb(0, 0, 0)" stroke-linejoin="round" d=" M 54.218, 80.517 53.896, 79.153 " />
            <path fill="none" stroke-width="3.0" stroke-linecap="butt" stroke-opacity="1.0" stroke="rgb(0, 0, 0)" stroke-linejoin="round" d=" M 79.893, 77.039 77.628, 75.525 76.872, 74.221 72.528, 76.518 66.653, 78.928 61.585, 79.865 59.030, 80.337 53.896, 79.153 52.276, 73.965 " />
            <path fill="none" stroke-width="3.0" stroke-linecap="butt" stroke-opacity="1.0" stroke="rgb(0, 0, 0)" stroke-linejoin="round" d=" M 110.661, 61.911 110.904, 61.570 110.989, 61.450 111.213, 61.137 114.171, 56.984 114.506, 56.505 117.689, 51.947 118.847, 50.289 122.514, 44.639 122.900, 43.223 124.056, 38.978 124.107, 35.834 122.924, 33.597 119.445, 29.319 114.173, 26.858 111.239, 25.742 105.503, 24.613 103.087, 24.345 101.120, 24.127 " />
            <path fill="none" stroke-width="3.0" stroke-linecap="butt" stroke-opacity="1.0" stroke="rgb(0, 0, 0)" stroke-linejoin="round" d=" M 56.006, 55.724 53.322, 51.896 50.330, 46.813 48.908, 41.388 49.379, 35.866 53.731, 31.652 60.767, 28.116 66.458, 26.506 70.770, 25.621 73.360, 21.620 77.249, 16.428 83.326, 10.640 88.733, 7.951 93.345, 9.995 97.613, 15.233 99.832, 20.207 101.120, 24.127 " />
            <path fill="none" stroke-width="3.0" stroke-linecap="butt" stroke-opacity="1.0" stroke="rgb(0, 0, 0)" stroke-linejoin="round" d=" M 108.956, 57.658 107.768, 56.274 107.163, 55.569 105.873, 54.629 105.825, 54.594 105.924, 54.508 106.829, 53.724 110.351, 50.676 111.073, 49.929 115.802, 45.042 116.726, 43.599 119.638, 39.051 121.314, 33.054 117.910, 28.859 111.239, 25.742 " />
            <path fill="none" stroke-width="3.0" stroke-linecap="butt" stroke-opacity="1.0" stroke="rgb(0, 0, 0)" stroke-linejoin="round" d=" M 103.087, 24.345 102.160, 21.966 99.677, 17.125 98.254, 14.849 94.374, 10.096 89.672, 8.015 88.733, 7.951 " />
            <path fill="none" stroke-width="3.0" stroke-linecap="butt" stroke-opacity="1.0" stroke="rgb(0, 0, 0)" stroke-linejoin="round" d=" M 53.322, 51.896 56.099, 55.461 " />
            <path fill="none" stroke-width="3.0" stroke-linecap="butt" stroke-opacity="1.0" stroke="rgb(0, 0, 0)" stroke-linejoin="round" d=" M 191.353, 106.310 188.457, 96.739 186.322, 89.679 185.318, 88.606 184.110, 84.258 179.269, 75.507 178.004, 73.219 171.482, 65.638 170.363, 64.337 164.685, 58.877 156.741, 52.803 156.376, 52.525 149.158, 48.695 142.899, 46.497 138.164, 44.960 137.082, 44.608 130.636, 43.459 126.530, 43.279 124.283, 43.181 122.900, 43.223 " />
            <path fill="none" stroke-width="3.0" stroke-linecap="butt" stroke-opacity="1.0" stroke="rgb(0, 0, 0)" stroke-linejoin="round" d=" M 79.893, 77.039 81.568, 78.016 82.745, 78.703 82.797, 78.733 83.163, 78.946 84.536, 79.747 84.766, 79.881 87.497, 80.974 89.217, 81.663 89.391, 81.732 89.783, 81.889 90.786, 82.291 93.314, 82.834 97.838, 83.805 101.450, 83.092 102.931, 82.799 103.427, 82.701 103.677, 82.343 104.423, 81.276 106.731, 77.972 107.366, 77.063 107.372, 77.046 108.704, 73.079 108.735, 72.989 108.809, 72.768 108.825, 72.686 109.261, 70.396 109.495, 69.167 109.601, 68.607 110.227, 65.325 110.661, 61.911 110.750, 61.213 110.772, 61.041 110.850, 60.423 110.876, 60.218 " />
            <path fill="none" stroke-width="3.0" stroke-linecap="butt" stroke-opacity="1.0" stroke="rgb(0, 0, 0)" stroke-linejoin="round" d=" M 186.787, 103.379 183.036, 100.262 174.927, 96.621 166.766, 92.956 160.878, 91.285 " />
            <path fill="none" stroke-width="3.0" stroke-linecap="butt" stroke-opacity="1.0" stroke="rgb(0, 0, 0)" stroke-linejoin="round" d=" M 121.250, 69.300 119.701, 69.208 " />
            <path fill="none" stroke-width="3.0" stroke-linecap="butt" stroke-opacity="1.0" stroke="rgb(0, 0, 0)" stroke-linejoin="round" d=" M 121.250, 69.300 128.626, 70.457 133.589, 71.235 143.468, 72.784 145.009, 73.026 " />
            <path fill="none" stroke-width="3.0" stroke-linecap="butt" stroke-opacity="1.0" stroke="rgb(0, 0, 0)" stroke-linejoin="round" d=" M 138.164, 44.960 137.545, 44.130 134.209, 42.746 130.153, 42.295 126.987, 42.954 126.530, 43.279 " />
            <path fill="none" stroke-width="3.0" stroke-linecap="butt" stroke-opacity="1.0" stroke="rgb(0, 0, 0)" stroke-linejoin="round" d=" M 206.900, 137.816 208.896, 136.668 209.762, 132.960 209.601, 126.159 205.774, 120.657 200.000, 113.544 192.330, 107.128 191.353, 106.310 190.452, 105.557 186.787, 103.379 185.024, 102.332 176.484, 98.521 171.505, 96.300 " />
            <path fill="none" stroke-width="3.0" stroke-linecap="butt" stroke-opacity="1.0" stroke="rgb(0, 0, 0)" stroke-linejoin="round" d=" M 199.291, 122.785 207.189, 128.919 208.672, 130.071 208.896, 136.668 " />
            <path fill="none" stroke-width="3.0" stroke-linecap="butt" stroke-opacity="1.0" stroke="rgb(0, 0, 0)" stroke-linejoin="round" d=" M 44.274, 93.145 43.575, 93.673 38.114, 97.748 32.053, 103.740 31.616, 107.399 " />
            <path fill="none" stroke-width="3.0" stroke-linecap="butt" stroke-opacity="1.0" stroke="rgb(0, 0, 0)" stroke-linejoin="round" d=" M 209.601, 126.159 201.817, 119.882 199.335, 117.880 " />
            <path fill="none" stroke-width="3.0" stroke-linecap="butt" stroke-opacity="1.0" stroke="rgb(0, 0, 0)" stroke-linejoin="round" d=" M 59.881, 82.494 59.018, 83.825 " />
            <path fill="none" stroke-width="3.0" stroke-linecap="butt" stroke-opacity="1.0" stroke="rgb(0, 0, 0)" stroke-linejoin="round" d=" M 107.249, 77.994 107.545, 76.999 108.708, 73.079 " />
            <path fill="none" stroke-width="3.0" stroke-linecap="butt" stroke-opacity="1.0" stroke="rgb(0, 0, 0)" stroke-linejoin="round" d=" M 108.704, 73.079 108.708, 73.079 110.875, 72.999 " />
            <path fill="none" stroke-width="3.0" stroke-linecap="butt" stroke-opacity="1.0" stroke="rgb(0, 0, 0)" stroke-linejoin="round" d=" M 197.000, 125.246 201.564, 128.676 " />
        </g>
    </g>
</svg>
