<?xml version='1.0' encoding='ascii'?>
<svg xmlns="http://www.w3.org/2000/svg" version="1.1" width="250" height="250">
    <g id="ViewLayer_LineSet" xmlns:inkscape="http://www.inkscape.org/namespaces/inkscape" inkscape:groupmode="lineset" inkscape:label="ViewLayer_LineSet">
        <g xmlns:inkscape="http://www.inkscape.org/namespaces/inkscape" inkscape:groupmode="layer" id="strokes" inkscape:label="strokes">
            <path fill="none" stroke-width="3.0" stroke-linecap="butt" stroke-opacity="1.0" stroke="rgb(0, 0, 0)" stroke-linejoin="round" d=" M 180.817, 189.027 183.905, 185.839 187.776, 180.223 " />
            <path fill="none" stroke-width="3.0" stroke-linecap="butt" stroke-opacity="1.0" stroke="rgb(0, 0, 0)" stroke-linejoin="round" d=" M 58.587, 161.205 58.973, 162.737 59.765, 165.429 60.439, 166.980 64.268, 175.783 64.293, 175.822 " />
            <path fill="none" stroke-width="3.0" stroke-linecap="butt" stroke-opacity="1.0" stroke="rgb(0, 0, 0)" stroke-linejoin="round" d=" M 116.334, 212.221 120.223, 212.753 120.462, 212.786 124.860, 213.087 128.419, 213.104 129.332, 213.109 " />
            <path fill="none" stroke-width="3.0" stroke-linecap="butt" stroke-opacity="1.0" stroke="rgb(0, 0, 0)" stroke-linejoin="round" d=" M 64.293, 175.822 63.367, 176.413 59.898, 178.952 56.355, 183.048 54.306, 187.461 53.035, 191.766 52.887, 195.580 53.238, 197.253 54.204, 201.093 56.689, 205.679 " />
            <path fill="none" stroke-width="3.0" stroke-linecap="butt" stroke-opacity="1.0" stroke="rgb(0, 0, 0)" stroke-linejoin="round" d=" M 120.223, 212.753 119.335, 214.752 117.367, 217.489 114.701, 219.203 111.183, 220.229 103.842, 221.134 97.990, 221.220 93.267, 220.874 88.129, 220.120 81.754, 218.715 76.665, 217.203 72.113, 215.259 66.691, 212.688 61.799, 209.967 58.728, 207.553 56.689, 205.679 59.425, 207.996 61.799, 209.967 " />
            <path fill="none" stroke-width="3.0" stroke-linecap="butt" stroke-opacity="1.0" stroke="rgb(0, 0, 0)" stroke-linejoin="round" d=" M 128.419, 213.104 130.843, 215.997 132.895, 218.001 135.860, 219.314 140.042, 220.616 147.695, 221.917 152.736, 222.595 158.349, 223.064 165.548, 223.320 171.072, 223.185 175.842, 222.444 178.902, 221.923 182.739, 220.305 184.948, 219.272 188.051, 216.207 189.613, 212.819 190.479, 209.363 190.505, 205.358 189.695, 201.025 187.302, 195.822 183.114, 190.698 180.817, 189.027 " />
            <path fill="none" stroke-width="3.0" stroke-linecap="butt" stroke-opacity="1.0" stroke="rgb(0, 0, 0)" stroke-linejoin="round" d=" M 44.241, 151.295 44.396, 152.615 45.660, 156.393 48.271, 160.321 50.574, 162.671 52.361, 164.043 53.083, 164.460 55.253, 165.626 58.292, 166.508 60.439, 166.980 " />
            <path fill="none" stroke-width="3.0" stroke-linecap="butt" stroke-opacity="1.0" stroke="rgb(0, 0, 0)" stroke-linejoin="round" d=" M 187.042, 179.779 187.776, 180.223 188.604, 180.724 192.912, 182.988 197.052, 184.547 201.319, 185.417 205.030, 185.445 208.420, 184.936 210.221, 184.551 213.247, 183.447 215.953, 181.814 217.281, 180.917 219.698, 178.869 221.775, 176.209 222.647, 174.902 224.143, 172.033 225.082, 169.281 225.670, 166.195 225.817, 162.659 225.254, 158.519 224.029, 154.346 222.102, 149.905 218.658, 144.455 217.894, 143.373 214.038, 138.425 212.393, 136.521 " />
            <path fill="none" stroke-width="3.0" stroke-linecap="butt" stroke-opacity="1.0" stroke="rgb(0, 0, 0)" stroke-linejoin="round" d=" M 215.363, 114.892 215.621, 114.019 213.664, 109.857 208.733, 104.316 203.364, 99.507 199.088, 95.547 193.378, 91.318 193.283, 91.269 " />
            <path fill="none" stroke-width="3.0" stroke-linecap="butt" stroke-opacity="1.0" stroke="rgb(0, 0, 0)" stroke-linejoin="round" d=" M 170.038, 58.382 171.527, 56.252 173.099, 53.221 173.517, 48.788 170.315, 45.541 165.973, 43.572 164.483, 43.022 159.948, 42.030 156.507, 41.499 154.860, 38.515 154.156, 37.415 152.272, 34.586 151.688, 33.861 147.747, 29.944 143.580, 28.103 139.673, 30.140 136.275, 34.193 135.836, 34.971 133.612, 38.872 132.900, 40.439 " />
            <path fill="none" stroke-width="3.0" stroke-linecap="butt" stroke-opacity="1.0" stroke="rgb(0, 0, 0)" stroke-linejoin="round" d=" M 108.767, 42.135 106.217, 42.683 101.390, 44.292 92.643, 49.140 92.084, 49.450 86.960, 52.339 79.471, 58.966 77.177, 60.996 71.075, 68.918 69.940, 70.392 65.959, 75.828 61.510, 84.784 59.907, 88.008 58.926, 91.600 58.756, 92.222 " />
            <path fill="none" stroke-width="3.0" stroke-linecap="butt" stroke-opacity="1.0" stroke="rgb(0, 0, 0)" stroke-linejoin="round" d=" M 58.926, 91.600 57.528, 93.388 55.231, 103.121 54.544, 106.030 53.285, 111.365 53.343, 111.806 53.807, 115.329 53.926, 116.236 54.085, 117.446 54.222, 118.484 54.440, 120.144 57.633, 123.012 57.876, 123.229 63.353, 128.150 72.748, 131.576 80.025, 134.231 89.938, 135.549 95.587, 136.300 103.022, 137.289 113.019, 137.040 123.016, 136.792 129.379, 136.633 139.239, 134.966 139.795, 134.872 148.891, 133.334 155.172, 132.271 164.636, 129.041 174.099, 125.811 176.241, 125.080 176.607, 124.955 176.864, 124.794 185.341, 119.490 191.048, 115.919 193.527, 112.269 197.454, 106.488 197.369, 105.914 197.225, 104.940 196.999, 103.413 196.876, 102.580 196.351, 99.026 196.165, 97.765 195.458, 96.171 195.359, 95.949 194.134, 93.188 193.283, 91.269 189.443, 82.617 188.116, 81.560 185.682, 76.132 179.729, 68.097 177.674, 65.324 170.274, 58.597 170.038, 58.382 169.869, 58.230 167.921, 56.458 163.604, 52.909 155.076, 47.687 152.662, 46.209 143.197, 42.981 140.699, 42.129 137.032, 40.974 133.660, 40.537 132.900, 40.439 131.831, 40.300 129.973, 40.255 " />
            <path fill="none" stroke-width="3.0" stroke-linecap="butt" stroke-opacity="1.0" stroke="rgb(0, 0, 0)" stroke-linejoin="round" d=" M 143.580, 28.103 142.921, 29.138 142.198, 31.518 " />
            <path fill="none" stroke-width="3.0" stroke-linecap="butt" stroke-opacity="1.0" stroke="rgb(0, 0, 0)" stroke-linejoin="round" d=" M 156.507, 41.499 155.692, 42.621 " />
            <path fill="none" stroke-width="3.0" stroke-linecap="butt" stroke-opacity="1.0" stroke="rgb(0, 0, 0)" stroke-linejoin="round" d=" M 173.517, 48.788 172.745, 49.741 170.763, 51.265 " />
            <path fill="none" stroke-width="3.0" stroke-linecap="butt" stroke-opacity="1.0" stroke="rgb(0, 0, 0)" stroke-linejoin="round" d=" M 150.916, 108.958 150.430, 109.027 149.137, 109.210 139.235, 110.610 135.094, 111.195 134.432, 111.289 127.120, 112.323 121.927, 112.477 120.440, 112.522 110.444, 112.820 102.754, 113.049 92.806, 112.022 82.859, 110.996 81.580, 110.864 " />
            <path fill="none" stroke-width="3.0" stroke-linecap="butt" stroke-opacity="1.0" stroke="rgb(0, 0, 0)" stroke-linejoin="round" d=" M 131.025, 41.929 130.691, 42.272 129.249, 43.753 123.613, 45.330 121.128, 45.562 116.312, 46.011 110.318, 45.517 107.982, 44.074 " />
            <path fill="none" stroke-width="3.0" stroke-linecap="butt" stroke-opacity="1.0" stroke="rgb(0, 0, 0)" stroke-linejoin="round" d=" M 131.025, 41.929 129.973, 40.255 129.626, 39.703 126.539, 36.767 124.872, 35.922 121.033, 35.670 118.866, 35.666 116.461, 36.094 112.829, 37.040 111.504, 38.164 108.974, 41.624 108.767, 42.135 107.982, 44.074 " />
            <path fill="none" stroke-width="3.0" stroke-linecap="butt" stroke-opacity="1.0" stroke="rgb(0, 0, 0)" stroke-linejoin="round" d=" M 54.544, 106.030 52.219, 107.645 47.909, 113.323 42.296, 121.598 40.433, 124.346 37.342, 129.183 37.670, 139.177 37.743, 141.405 38.855, 145.179 44.241, 151.295 49.278, 157.013 58.396, 161.119 58.587, 161.205 67.705, 165.311 69.579, 166.155 70.129, 166.402 79.977, 168.138 89.825, 169.875 98.477, 171.400 108.476, 171.226 118.474, 171.052 128.473, 170.877 131.512, 170.824 141.349, 169.026 151.186, 167.228 161.023, 165.431 165.064, 164.692 169.373, 163.024 178.699, 159.414 188.024, 155.803 192.399, 154.110 198.779, 149.397 206.823, 143.456 210.028, 141.088 212.393, 136.521 216.961, 127.697 217.565, 124.117 215.363, 114.892 214.721, 112.202 210.649, 107.758 209.097, 106.293 204.725, 102.170 203.800, 101.325 196.419, 94.579 195.551, 93.786 194.134, 93.188 " />
            <path fill="none" stroke-width="3.0" stroke-linecap="butt" stroke-opacity="1.0" stroke="rgb(0, 0, 0)" stroke-linejoin="round" d=" M 217.565, 124.117 212.925, 132.975 211.568, 135.566 210.689, 137.244 " />
        </g>
    </g>
</svg>
