<?xml version='1.0' encoding='ascii'?>
<svg xmlns="http://www.w3.org/2000/svg" version="1.1" width="250" height="250">
    <g id="ViewLayer_LineSet" xmlns:inkscape="http://www.inkscape.org/namespaces/inkscape" inkscape:groupmode="lineset" inkscape:label="ViewLayer_LineSet">
        <g xmlns:inkscape="http://www.inkscape.org/namespaces/inkscape" inkscape:groupmode="layer" id="strokes" inkscape:label="strokes">
            <path fill="none" stroke-width="3.0" stroke-linecap="butt" stroke-opacity="1.0" stroke="rgb(0, 0, 0)" stroke-linejoin="round" d=" M 125.685, 215.826 126.873, 215.890 131.384, 215.841 135.717, 215.506 139.681, 214.902 145.935, 213.566 151.010, 212.316 155.024, 210.784 163.691, 206.824 169.978, 202.919 175.760, 198.486 177.726, 196.637 " />
            <path fill="none" stroke-width="3.0" stroke-linecap="butt" stroke-opacity="1.0" stroke="rgb(0, 0, 0)" stroke-linejoin="round" d=" M 58.677, 164.015 59.065, 165.548 63.054, 174.718 63.572, 175.908 65.104, 178.855 68.572, 184.197 " />
            <path fill="none" stroke-width="3.0" stroke-linecap="butt" stroke-opacity="1.0" stroke="rgb(0, 0, 0)" stroke-linejoin="round" d=" M 200.313, 155.616 200.425, 155.099 200.516, 154.642 201.346, 147.361 201.445, 140.053 200.764, 132.442 200.411, 130.687 199.149, 124.401 198.167, 121.236 " />
            <path fill="none" stroke-width="3.0" stroke-linecap="butt" stroke-opacity="1.0" stroke="rgb(0, 0, 0)" stroke-linejoin="round" d=" M 200.411, 130.687 200.462, 130.573 200.728, 129.191 200.798, 127.152 200.618, 124.552 200.140, 121.516 199.837, 120.252 " />
            <path fill="none" stroke-width="3.0" stroke-linecap="butt" stroke-opacity="1.0" stroke="rgb(0, 0, 0)" stroke-linejoin="round" d=" M 69.927, 183.729 68.572, 184.197 62.338, 186.353 57.383, 189.730 53.700, 193.731 51.385, 198.199 51.247, 199.166 50.780, 203.215 50.729, 204.554 52.846, 210.746 53.389, 211.867 55.167, 214.311 59.257, 219.605 61.667, 222.234 68.305, 228.095 71.496, 230.629 78.165, 235.756 80.908, 237.724 89.058, 243.518 92.822, 246.193 101.092, 251.814 103.944, 253.752 " />
            <path fill="none" stroke-width="3.0" stroke-linecap="butt" stroke-opacity="1.0" stroke="rgb(0, 0, 0)" stroke-linejoin="round" d=" M 124.806, 216.604 124.229, 215.748 123.651, 214.891 123.155, 214.156 122.505, 213.193 " />
            <path fill="none" stroke-width="3.0" stroke-linecap="butt" stroke-opacity="1.0" stroke="rgb(0, 0, 0)" stroke-linejoin="round" d=" M 144.728, 241.104 144.583, 236.742 144.390, 233.924 " />
            <path fill="none" stroke-width="3.0" stroke-linecap="butt" stroke-opacity="1.0" stroke="rgb(0, 0, 0)" stroke-linejoin="round" d=" M 140.608, 251.257 141.771, 249.274 143.815, 245.251 144.728, 241.104 144.938, 238.418 144.390, 233.924 142.684, 229.416 138.741, 224.379 136.836, 222.589 130.758, 218.267 128.724, 217.223 125.685, 215.826 123.651, 214.891 " />
            <path fill="none" stroke-width="3.0" stroke-linecap="butt" stroke-opacity="1.0" stroke="rgb(0, 0, 0)" stroke-linejoin="round" d=" M 152.487, 181.818 157.340, 186.350 162.996, 190.681 167.747, 193.286 169.612, 194.079 173.782, 195.726 174.069, 195.840 177.726, 196.637 178.671, 196.843 182.674, 196.911 186.328, 196.388 188.426, 195.859 191.662, 194.694 194.555, 192.943 196.131, 191.852 198.712, 189.639 200.929, 186.746 201.999, 185.210 203.591, 182.079 204.598, 179.058 205.255, 175.644 205.445, 171.723 204.870, 167.134 203.576, 162.509 201.521, 157.590 200.313, 155.616 197.829, 151.557 193.832, 146.253 191.481, 143.379 189.957, 141.515 186.561, 138.121 186.548, 138.108 186.545, 138.105 185.857, 137.418 184.275, 136.197 182.765, 135.145 179.563, 132.916 " />
            <path fill="none" stroke-width="3.0" stroke-linecap="butt" stroke-opacity="1.0" stroke="rgb(0, 0, 0)" stroke-linejoin="round" d=" M 190.585, 77.767 194.490, 81.630 195.086, 81.830 198.375, 82.934 198.600, 83.010 205.017, 84.836 209.502, 84.576 212.467, 83.680 215.013, 82.778 215.796, 81.722 216.034, 77.540 214.783, 71.068 213.157, 66.001 211.724, 62.193 212.742, 58.929 213.714, 54.180 213.796, 49.096 212.799, 44.006 209.816, 40.613 205.561, 38.290 202.413, 37.614 200.145, 37.417 198.288, 34.181 195.639, 30.085 191.916, 25.866 189.068, 24.398 187.652, 24.060 184.884, 25.420 181.922, 28.256 180.130, 31.271 177.030, 38.040 176.024, 42.792 175.344, 46.239 175.295, 46.488 173.764, 48.513 " />
            <path fill="none" stroke-width="3.0" stroke-linecap="butt" stroke-opacity="1.0" stroke="rgb(0, 0, 0)" stroke-linejoin="round" d=" M 215.013, 82.778 211.993, 83.692 207.451, 83.952 " />
            <path fill="none" stroke-width="3.0" stroke-linecap="butt" stroke-opacity="1.0" stroke="rgb(0, 0, 0)" stroke-linejoin="round" d=" M 182.476, 55.107 182.620, 55.583 " />
            <path fill="none" stroke-width="3.0" stroke-linecap="butt" stroke-opacity="1.0" stroke="rgb(0, 0, 0)" stroke-linejoin="round" d=" M 172.111, 63.182 172.022, 63.089 170.761, 62.178 170.385, 61.905 170.000, 61.627 169.254, 61.088 167.932, 60.951 167.178, 60.873 " />
            <path fill="none" stroke-width="3.0" stroke-linecap="butt" stroke-opacity="1.0" stroke="rgb(0, 0, 0)" stroke-linejoin="round" d=" M 50.816, 128.753 48.007, 131.607 43.678, 136.577 40.221, 144.651 38.942, 150.411 39.212, 156.628 39.996, 160.570 49.367, 164.061 49.607, 164.150 58.677, 164.015 68.676, 163.867 69.603, 163.853 72.616, 163.572 82.465, 161.839 83.810, 161.602 93.659, 159.870 100.307, 158.700 109.929, 155.976 113.608, 154.933 123.230, 152.209 132.507, 149.581 138.028, 147.474 147.371, 143.908 156.713, 140.343 163.835, 137.625 172.769, 133.134 176.384, 131.317 178.289, 130.360 180.765, 129.115 183.303, 127.839 185.021, 126.976 185.926, 126.521 189.109, 124.921 " />
            <path fill="none" stroke-width="3.0" stroke-linecap="butt" stroke-opacity="1.0" stroke="rgb(0, 0, 0)" stroke-linejoin="round" d=" M 169.871, 56.927 166.316, 56.612 164.810, 57.564 163.795, 58.550 " />
            <path fill="none" stroke-width="3.0" stroke-linecap="butt" stroke-opacity="1.0" stroke="rgb(0, 0, 0)" stroke-linejoin="round" d=" M 175.354, 57.518 173.826, 58.073 173.528, 58.182 172.757, 58.461 170.722, 61.131 170.738, 61.553 170.752, 61.936 170.761, 62.178 " />
            <path fill="none" stroke-width="3.0" stroke-linecap="butt" stroke-opacity="1.0" stroke="rgb(0, 0, 0)" stroke-linejoin="round" d=" M 181.549, 55.486 182.476, 55.107 181.211, 55.455 " />
            <path fill="none" stroke-width="3.0" stroke-linecap="butt" stroke-opacity="1.0" stroke="rgb(0, 0, 0)" stroke-linejoin="round" d=" M 185.926, 126.521 187.530, 127.348 190.534, 125.732 192.181, 124.761 195.526, 122.791 196.324, 122.321 198.167, 121.236 199.837, 120.252 200.439, 119.897 203.144, 118.302 204.082, 115.683 204.722, 113.726 204.726, 113.713 205.105, 112.556 206.053, 108.512 206.772, 104.733 206.649, 100.644 205.952, 96.257 205.904, 95.959 204.460, 91.452 202.533, 89.004 201.629, 87.855 197.153, 84.527 195.467, 83.931 192.938, 83.038 184.564, 80.079 " />
            <path fill="none" stroke-width="3.0" stroke-linecap="butt" stroke-opacity="1.0" stroke="rgb(0, 0, 0)" stroke-linejoin="round" d=" M 184.650, 80.241 186.395, 81.019 189.293, 82.769 190.224, 84.125 190.572, 84.632 191.455, 85.921 191.820, 86.662 193.231, 89.531 193.470, 91.997 193.666, 94.026 193.473, 96.517 193.466, 96.606 193.448, 96.839 193.274, 99.097 193.040, 102.429 192.936, 103.900 192.679, 108.242 192.586, 109.814 192.684, 111.318 192.804, 113.148 192.891, 114.481 192.912, 114.804 193.039, 116.733 191.988, 121.856 191.613, 122.855 191.475, 123.225 190.534, 125.732 190.580, 123.866 " />
            <path fill="none" stroke-width="3.0" stroke-linecap="butt" stroke-opacity="1.0" stroke="rgb(0, 0, 0)" stroke-linejoin="round" d=" M 182.052, 75.349 183.678, 75.464 185.455, 74.634 190.354, 69.748 190.467, 69.636 190.971, 62.073 186.658, 56.287 184.961, 55.797 182.904, 55.609 182.620, 55.583 181.549, 55.486 181.211, 55.455 180.004, 55.345 177.807, 55.146 177.783, 55.143 176.891, 56.015 176.574, 56.325 175.972, 56.914 175.354, 57.518 174.236, 58.612 173.815, 59.023 172.277, 60.527 172.222, 61.404 172.156, 62.460 172.111, 63.182 172.086, 63.583 171.924, 66.167 " />
            <path fill="none" stroke-width="3.0" stroke-linecap="butt" stroke-opacity="1.0" stroke="rgb(0, 0, 0)" stroke-linejoin="round" d=" M 211.724, 62.193 211.433, 62.383 211.338, 62.444 210.794, 62.798 207.275, 64.072 " />
            <path fill="none" stroke-width="3.0" stroke-linecap="butt" stroke-opacity="1.0" stroke="rgb(0, 0, 0)" stroke-linejoin="round" d=" M 195.467, 83.931 196.684, 83.548 198.375, 82.934 " />
            <path fill="none" stroke-width="3.0" stroke-linecap="butt" stroke-opacity="1.0" stroke="rgb(0, 0, 0)" stroke-linejoin="round" d=" M 195.448, 38.894 198.916, 37.413 200.145, 37.417 " />
            <path fill="none" stroke-width="3.0" stroke-linecap="butt" stroke-opacity="1.0" stroke="rgb(0, 0, 0)" stroke-linejoin="round" d=" M 186.075, 82.924 184.650, 80.241 184.564, 80.079 182.052, 75.349 180.951, 73.275 180.609, 72.631 180.379, 72.198 180.179, 71.821 180.045, 71.569 179.308, 71.500 178.862, 71.458 178.561, 71.429 178.311, 71.406 177.848, 71.362 176.621, 71.247 176.032, 71.191 175.374, 70.386 173.653, 68.282 173.546, 68.151 172.769, 67.200 171.924, 66.167 170.862, 64.868 169.967, 63.773 169.841, 63.619 168.184, 62.230 167.863, 61.961 167.543, 61.693 166.503, 60.821 165.945, 60.353 164.077, 58.786 163.795, 58.550 159.180, 54.681 150.459, 49.788 147.503, 48.130 138.078, 44.787 133.858, 43.290 123.962, 41.851 120.114, 41.291 110.145, 42.081 108.482, 42.213 " />
            <path fill="none" stroke-width="3.0" stroke-linecap="butt" stroke-opacity="1.0" stroke="rgb(0, 0, 0)" stroke-linejoin="round" d=" M 108.538, 42.271 108.482, 42.213 106.729, 40.404 103.236, 38.205 96.113, 38.700 90.099, 42.576 88.615, 46.430 88.292, 48.944 88.284, 49.009 " />
            <path fill="none" stroke-width="3.0" stroke-linecap="butt" stroke-opacity="1.0" stroke="rgb(0, 0, 0)" stroke-linejoin="round" d=" M 175.344, 46.239 175.214, 46.387 173.764, 48.513 172.422, 51.028 172.223, 54.220 172.387, 54.730 " />
            <path fill="none" stroke-width="3.0" stroke-linecap="butt" stroke-opacity="1.0" stroke="rgb(0, 0, 0)" stroke-linejoin="round" d=" M 211.899, 44.149 208.746, 45.432 204.372, 47.485 " />
            <path fill="none" stroke-width="3.0" stroke-linecap="butt" stroke-opacity="1.0" stroke="rgb(0, 0, 0)" stroke-linejoin="round" d=" M 88.292, 48.944 79.834, 54.280 78.457, 55.148 71.397, 62.230 68.660, 64.975 63.119, 73.299 60.647, 77.012 56.598, 86.156 55.234, 89.237 52.952, 98.973 52.064, 102.761 51.422, 106.295 49.670, 107.908 50.166, 117.896 50.662, 127.883 50.672, 128.090 50.816, 128.753 51.506, 131.935 54.397, 132.433 56.061, 132.719 59.717, 133.348 67.824, 132.522 71.293, 132.169 75.430, 131.747 80.346, 130.674 90.117, 128.543 97.361, 126.962 106.948, 124.118 116.535, 121.274 117.285, 121.052 122.664, 119.456 132.048, 116.002 141.433, 112.547 147.475, 110.323 156.582, 106.192 165.689, 102.062 166.169, 101.844 168.030, 101.000 170.655, 99.436 170.980, 99.242 171.953, 98.662 175.294, 96.670 175.523, 96.534 181.740, 92.829 181.749, 92.819 185.676, 88.758 186.031, 88.391 187.643, 86.724 187.372, 86.058 186.308, 83.445 186.196, 83.171 " />
            <path fill="none" stroke-width="3.0" stroke-linecap="butt" stroke-opacity="1.0" stroke="rgb(0, 0, 0)" stroke-linejoin="round" d=" M 180.045, 71.569 179.616, 72.950 179.560, 73.132 179.497, 73.334 179.299, 73.972 " />
            <path fill="none" stroke-width="3.0" stroke-linecap="butt" stroke-opacity="1.0" stroke="rgb(0, 0, 0)" stroke-linejoin="round" d=" M 72.346, 108.671 63.158, 109.914 57.853, 110.632 50.178, 110.325 49.670, 107.908 " />
            <path fill="none" stroke-width="3.0" stroke-linecap="butt" stroke-opacity="1.0" stroke="rgb(0, 0, 0)" stroke-linejoin="round" d=" M 108.538, 42.271 104.762, 43.615 98.420, 45.760 92.072, 47.837 88.284, 49.009 " />
            <path fill="none" stroke-width="3.0" stroke-linecap="butt" stroke-opacity="1.0" stroke="rgb(0, 0, 0)" stroke-linejoin="round" d=" M 189.825, 119.487 186.012, 121.375 181.955, 123.385 181.382, 123.668 180.045, 124.330 175.327, 126.667 170.680, 128.968 163.566, 132.490 154.217, 136.039 144.868, 139.587 140.553, 141.224 131.204, 144.773 130.964, 144.864 " />
            <path fill="none" stroke-width="3.0" stroke-linecap="butt" stroke-opacity="1.0" stroke="rgb(0, 0, 0)" stroke-linejoin="round" d=" M 69.603, 163.853 79.451, 162.117 83.463, 161.410 93.311, 159.674 98.374, 158.781 107.996, 156.055 114.311, 154.265 123.933, 151.538 131.961, 149.263 138.140, 146.906 147.484, 143.342 156.827, 139.778 164.652, 136.793 173.589, 132.307 175.973, 131.110 177.947, 130.119 180.896, 128.638 182.812, 127.677 185.359, 126.398 185.525, 126.314 190.950, 123.591 " />
            <path fill="none" stroke-width="3.0" stroke-linecap="butt" stroke-opacity="1.0" stroke="rgb(0, 0, 0)" stroke-linejoin="round" d=" M 204.722, 113.726 205.055, 113.487 207.423, 111.780 212.911, 103.420 213.216, 102.954 212.227, 99.199 208.725, 93.808 204.197, 89.954 202.533, 89.004 " />
            <path fill="none" stroke-width="3.0" stroke-linecap="butt" stroke-opacity="1.0" stroke="rgb(0, 0, 0)" stroke-linejoin="round" d=" M 179.477, 54.488 177.541, 53.078 175.563, 53.352 173.296, 53.937 172.387, 54.730 169.871, 56.927 165.945, 60.353 " />
            <path fill="none" stroke-width="3.0" stroke-linecap="butt" stroke-opacity="1.0" stroke="rgb(0, 0, 0)" stroke-linejoin="round" d=" M 177.541, 53.078 175.308, 53.662 172.770, 55.913 171.467, 57.068 170.247, 58.150 167.178, 60.873 " />
            <path fill="none" stroke-width="3.0" stroke-linecap="butt" stroke-opacity="1.0" stroke="rgb(0, 0, 0)" stroke-linejoin="round" d=" M 164.077, 58.786 166.316, 56.612 " />
            <path fill="none" stroke-width="3.0" stroke-linecap="butt" stroke-opacity="1.0" stroke="rgb(0, 0, 0)" stroke-linejoin="round" d=" M 204.726, 113.713 207.423, 111.780 " />
        </g>
    </g>
</svg>
