<?xml version='1.0' encoding='ascii'?>
<svg xmlns="http://www.w3.org/2000/svg" version="1.1" width="250" height="250">
    <g id="ViewLayer_LineSet" xmlns:inkscape="http://www.inkscape.org/namespaces/inkscape" inkscape:groupmode="lineset" inkscape:label="ViewLayer_LineSet">
        <g xmlns:inkscape="http://www.inkscape.org/namespaces/inkscape" inkscape:groupmode="layer" id="strokes" inkscape:label="strokes">
            <path fill="none" stroke-width="3.0" stroke-linecap="butt" stroke-opacity="1.0" stroke="rgb(0, 0, 0)" stroke-linejoin="round" d=" M 108.908, 215.641 111.092, 215.884 113.200, 216.119 117.708, 216.316 122.230, 216.221 126.564, 215.839 129.684, 215.328 130.518, 215.191 136.845, 213.804 141.886, 212.496 145.856, 210.916 154.650, 206.759 158.103, 204.516 165.360, 199.241 166.785, 198.205 173.738, 191.017 174.403, 190.329 174.966, 189.512 " />
            <path fill="none" stroke-width="3.0" stroke-linecap="butt" stroke-opacity="1.0" stroke="rgb(0, 0, 0)" stroke-linejoin="round" d=" M 59.350, 99.858 57.985, 101.575 53.751, 108.681 49.943, 117.348 49.374, 119.189 48.440, 122.216 48.335, 122.557 47.276, 125.986 46.024, 132.144 45.480, 138.526 45.254, 143.012 45.483, 148.672 45.962, 153.164 46.823, 157.812 47.670, 161.759 48.955, 166.061 50.619, 170.526 52.587, 174.961 54.776, 179.174 57.090, 182.981 59.431, 186.207 59.436, 186.214 " />
            <path fill="none" stroke-width="3.0" stroke-linecap="butt" stroke-opacity="1.0" stroke="rgb(0, 0, 0)" stroke-linejoin="round" d=" M 190.846, 131.726 188.815, 122.228 188.670, 121.854 " />
            <path fill="none" stroke-width="3.0" stroke-linecap="butt" stroke-opacity="1.0" stroke="rgb(0, 0, 0)" stroke-linejoin="round" d=" M 77.110, 151.518 77.664, 152.919 79.027, 154.989 80.921, 156.651 83.116, 157.883 85.075, 158.312 85.157, 158.329 87.251, 158.261 89.624, 157.438 91.673, 156.113 93.222, 154.270 93.937, 152.955 " />
            <path fill="none" stroke-width="3.0" stroke-linecap="butt" stroke-opacity="1.0" stroke="rgb(0, 0, 0)" stroke-linejoin="round" d=" M 117.437, 102.414 117.577, 102.885 118.014, 104.354 118.466, 107.746 118.506, 111.572 118.522, 111.641 117.441, 119.783 117.426, 119.895 117.404, 120.061 116.178, 124.276 114.673, 128.567 112.919, 132.565 110.978, 136.076 108.919, 138.928 108.694, 139.146 108.304, 139.525 106.811, 140.978 104.726, 142.123 102.737, 142.306 101.460, 141.749 100.917, 141.513 99.340, 139.777 98.306, 137.654 98.075, 137.179 98.063, 137.134 97.182, 133.838 96.709, 129.916 96.687, 125.601 97.123, 121.098 97.979, 116.685 98.192, 115.949 98.234, 115.800 99.182, 112.520 100.702, 108.616 102.481, 105.114 104.448, 102.137 105.364, 101.103 " />
            <path fill="none" stroke-width="3.0" stroke-linecap="butt" stroke-opacity="1.0" stroke="rgb(0, 0, 0)" stroke-linejoin="round" d=" M 77.310, 119.995 76.333, 124.290 75.250, 128.399 74.315, 131.361 74.182, 131.781 74.074, 132.123 72.813, 135.274 71.474, 137.694 70.071, 139.264 68.921, 139.780 68.632, 139.909 67.222, 139.901 65.846, 138.361 64.639, 136.255 63.664, 133.393 63.002, 129.921 62.895, 128.456 62.861, 127.977 62.718, 126.010 62.856, 121.851 63.072, 120.245 63.415, 117.700 64.281, 113.700 65.399, 109.855 66.723, 106.302 67.366, 104.937 67.604, 104.431 68.200, 103.164 69.772, 100.547 70.586, 99.530 " />
            <path fill="none" stroke-width="3.0" stroke-linecap="butt" stroke-opacity="1.0" stroke="rgb(0, 0, 0)" stroke-linejoin="round" d=" M 67.222, 139.901 70.426, 141.278 " />
            <path fill="none" stroke-width="3.0" stroke-linecap="butt" stroke-opacity="1.0" stroke="rgb(0, 0, 0)" stroke-linejoin="round" d=" M 77.886, 99.316 78.527, 101.583 78.886, 104.499 78.996, 107.990 78.847, 109.796 78.823, 110.082 78.687, 111.735 " />
            <path fill="none" stroke-width="3.0" stroke-linecap="butt" stroke-opacity="1.0" stroke="rgb(0, 0, 0)" stroke-linejoin="round" d=" M 80.417, 121.937 77.310, 119.995 77.534, 118.854 78.134, 115.789 78.687, 111.735 81.753, 113.770 " />
            <path fill="none" stroke-width="3.0" stroke-linecap="butt" stroke-opacity="1.0" stroke="rgb(0, 0, 0)" stroke-linejoin="round" d=" M 173.802, 199.381 178.370, 202.813 " />
            <path fill="none" stroke-width="3.0" stroke-linecap="butt" stroke-opacity="1.0" stroke="rgb(0, 0, 0)" stroke-linejoin="round" d=" M 165.360, 199.241 167.768, 199.668 172.575, 201.878 175.975, 204.552 " />
            <path fill="none" stroke-width="3.0" stroke-linecap="butt" stroke-opacity="1.0" stroke="rgb(0, 0, 0)" stroke-linejoin="round" d=" M 132.759, 223.814 135.002, 226.076 136.489, 227.574 138.295, 229.299 142.796, 231.832 148.110, 233.213 152.851, 233.668 158.078, 233.164 164.722, 231.544 170.208, 229.327 175.584, 226.203 178.799, 222.902 180.331, 220.886 183.721, 214.422 184.277, 212.997 187.686, 203.596 188.495, 201.364 190.573, 192.053 " />
            <path fill="none" stroke-width="3.0" stroke-linecap="butt" stroke-opacity="1.0" stroke="rgb(0, 0, 0)" stroke-linejoin="round" d=" M 129.684, 215.328 129.987, 216.505 131.709, 221.421 132.759, 223.814 134.556, 225.639 135.002, 226.076 " />
            <path fill="none" stroke-width="3.0" stroke-linecap="butt" stroke-opacity="1.0" stroke="rgb(0, 0, 0)" stroke-linejoin="round" d=" M 34.031, 224.453 36.771, 226.081 41.542, 227.839 45.689, 229.093 50.595, 230.028 55.627, 230.747 62.504, 231.074 67.052, 231.144 72.861, 230.711 73.521, 230.660 79.548, 230.028 86.903, 229.013 93.432, 227.887 97.663, 226.895 100.978, 226.118 102.346, 225.725 105.052, 223.825 108.551, 220.902 110.639, 217.601 111.092, 215.884 " />
            <path fill="none" stroke-width="3.0" stroke-linecap="butt" stroke-opacity="1.0" stroke="rgb(0, 0, 0)" stroke-linejoin="round" d=" M 59.436, 186.214 58.309, 186.490 52.189, 188.176 46.075, 191.085 41.540, 193.524 38.066, 196.502 36.252, 199.187 " />
            <path fill="none" stroke-width="3.0" stroke-linecap="butt" stroke-opacity="1.0" stroke="rgb(0, 0, 0)" stroke-linejoin="round" d=" M 30.525, 218.671 32.472, 222.551 34.031, 224.453 31.578, 220.537 30.525, 218.671 30.078, 214.541 30.458, 210.631 31.723, 206.573 33.891, 202.442 36.252, 199.187 37.487, 197.485 " />
            <path fill="none" stroke-width="3.0" stroke-linecap="butt" stroke-opacity="1.0" stroke="rgb(0, 0, 0)" stroke-linejoin="round" d=" M 166.448, 183.505 168.350, 185.313 172.032, 187.962 174.966, 189.512 175.649, 189.873 179.208, 191.063 182.783, 192.175 185.919, 192.364 189.721, 192.207 190.573, 192.053 192.208, 191.758 195.217, 190.869 197.176, 189.893 199.449, 188.634 201.475, 187.075 203.040, 185.735 205.275, 183.203 206.612, 181.118 208.150, 177.875 209.091, 174.956 209.721, 171.605 210.083, 167.698 209.692, 163.695 208.655, 159.319 207.936, 156.716 205.749, 150.975 202.938, 145.940 200.050, 141.478 200.043, 141.467 200.023, 141.441 199.849, 141.212 196.972, 137.433 195.034, 135.281 191.461, 132.073 190.846, 131.726 186.224, 129.119 182.399, 127.420 " />
            <path fill="none" stroke-width="3.0" stroke-linecap="butt" stroke-opacity="1.0" stroke="rgb(0, 0, 0)" stroke-linejoin="round" d=" M 116.256, 72.028 119.492, 69.554 119.504, 69.544 119.665, 69.216 119.702, 69.142 121.355, 65.780 122.341, 63.186 122.321, 59.506 121.305, 56.843 119.400, 53.132 117.688, 51.878 " />
            <path fill="none" stroke-width="3.0" stroke-linecap="butt" stroke-opacity="1.0" stroke="rgb(0, 0, 0)" stroke-linejoin="round" d=" M 56.098, 55.391 56.005, 55.654 54.484, 59.954 52.845, 66.043 52.276, 73.895 52.566, 75.157 54.217, 80.447 56.706, 81.684 59.888, 82.426 61.416, 82.782 61.850, 82.883 65.733, 83.322 71.742, 82.270 71.832, 82.247 74.038, 81.684 77.305, 80.850 82.729, 78.691 82.799, 78.663 " />
            <path fill="none" stroke-width="3.0" stroke-linecap="butt" stroke-opacity="1.0" stroke="rgb(0, 0, 0)" stroke-linejoin="round" d=" M 33.815, 111.836 31.615, 107.340 32.796, 106.200 37.496, 101.661 41.782, 100.580 49.626, 98.602 53.185, 97.704 57.049, 97.573 59.102, 97.503 61.283, 97.429 71.277, 97.089 73.433, 97.016 76.027, 96.928 76.045, 96.927 79.965, 96.794 89.934, 97.577 99.904, 98.360 107.593, 98.964 113.676, 99.442 116.280, 99.896 116.346, 99.907 126.197, 101.625 136.049, 103.342 145.900, 105.060 147.662, 105.367 157.326, 107.938 166.990, 110.509 176.654, 113.080 177.071, 113.191 178.188, 113.651 178.934, 113.958 183.054, 115.654 185.947, 116.845 " />
            <path fill="none" stroke-width="3.0" stroke-linecap="butt" stroke-opacity="1.0" stroke="rgb(0, 0, 0)" stroke-linejoin="round" d=" M 199.849, 141.212 206.649, 137.262 206.279, 130.947 200.099, 126.254 197.899, 124.583 " />
            <path fill="none" stroke-width="3.0" stroke-linecap="butt" stroke-opacity="1.0" stroke="rgb(0, 0, 0)" stroke-linejoin="round" d=" M 39.013, 107.976 40.878, 106.354 44.982, 102.782 54.752, 100.651 58.234, 99.891 " />
            <path fill="none" stroke-width="3.0" stroke-linecap="butt" stroke-opacity="1.0" stroke="rgb(0, 0, 0)" stroke-linejoin="round" d=" M 38.874, 116.713 47.144, 122.073 48.335, 122.557 " />
            <path fill="none" stroke-width="3.0" stroke-linecap="butt" stroke-opacity="1.0" stroke="rgb(0, 0, 0)" stroke-linejoin="round" d=" M 55.982, 99.957 46.215, 102.102 45.454, 102.269 41.090, 103.228 39.823, 103.506 33.815, 108.973 34.555, 110.529 " />
            <path fill="none" stroke-width="3.0" stroke-linecap="butt" stroke-opacity="1.0" stroke="rgb(0, 0, 0)" stroke-linejoin="round" d=" M 55.982, 99.957 58.234, 99.891 59.350, 99.858 59.732, 99.847 61.573, 99.793 70.586, 99.530 76.002, 99.371 77.886, 99.316 79.277, 99.275 81.511, 99.210 91.479, 100.001 101.448, 100.792 105.364, 101.103 110.146, 101.483 113.430, 101.744 117.437, 102.414 118.017, 102.511 127.880, 104.160 131.248, 104.723 141.112, 106.372 146.732, 107.312 156.404, 109.855 166.075, 112.398 175.680, 114.924 179.311, 116.399 184.215, 118.391 " />
            <path fill="none" stroke-width="3.0" stroke-linecap="butt" stroke-opacity="1.0" stroke="rgb(0, 0, 0)" stroke-linejoin="round" d=" M 41.022, 93.986 36.220, 97.886 33.052, 101.087 31.241, 103.927 30.070, 106.957 30.063, 109.421 30.527, 111.594 34.853, 115.708 37.533, 117.181 38.874, 116.713 38.906, 116.701 40.794, 116.042 42.075, 115.168 43.650, 114.094 45.235, 109.019 " />
            <path fill="none" stroke-width="3.0" stroke-linecap="butt" stroke-opacity="1.0" stroke="rgb(0, 0, 0)" stroke-linejoin="round" d=" M 33.258, 113.185 30.527, 111.594 " />
            <path fill="none" stroke-width="3.0" stroke-linecap="butt" stroke-opacity="1.0" stroke="rgb(0, 0, 0)" stroke-linejoin="round" d=" M 43.650, 114.094 39.921, 111.761 " />
            <path fill="none" stroke-width="3.0" stroke-linecap="butt" stroke-opacity="1.0" stroke="rgb(0, 0, 0)" stroke-linejoin="round" d=" M 40.815, 109.392 39.921, 111.761 36.500, 112.724 " />
            <path fill="none" stroke-width="3.0" stroke-linecap="butt" stroke-opacity="1.0" stroke="rgb(0, 0, 0)" stroke-linejoin="round" d=" M 57.458, 84.401 50.507, 87.697 42.173, 93.224 41.022, 93.986 47.280, 89.944 48.293, 89.392 57.076, 84.609 57.458, 84.401 59.022, 83.762 61.416, 82.782 " />
            <path fill="none" stroke-width="3.0" stroke-linecap="butt" stroke-opacity="1.0" stroke="rgb(0, 0, 0)" stroke-linejoin="round" d=" M 47.280, 89.944 49.486, 89.051 49.733, 88.951 53.379, 87.474 55.748, 86.515 57.592, 85.968 67.178, 83.122 67.371, 83.065 77.322, 82.077 78.207, 81.989 80.459, 81.765 81.787, 81.732 87.690, 81.588 88.651, 81.631 89.402, 81.665 " />
            <path fill="none" stroke-width="3.0" stroke-linecap="butt" stroke-opacity="1.0" stroke="rgb(0, 0, 0)" stroke-linejoin="round" d=" M 179.311, 116.399 179.978, 118.031 182.162, 119.069 182.994, 119.464 183.392, 119.631 188.670, 121.854 196.837, 125.292 197.000, 125.183 197.899, 124.583 198.720, 124.036 199.039, 123.823 199.293, 122.721 199.874, 120.195 196.972, 115.640 192.330, 111.148 190.478, 109.357 184.738, 105.222 182.923, 103.915 178.425, 100.576 177.893, 100.182 176.709, 99.303 171.519, 96.241 168.177, 94.268 160.893, 91.224 158.984, 90.426 157.000, 89.597 147.455, 86.614 144.296, 85.626 134.682, 82.872 131.508, 81.963 121.650, 80.279 118.655, 79.767 109.245, 78.226 107.469, 77.936 " />
            <path fill="none" stroke-width="3.0" stroke-linecap="butt" stroke-opacity="1.0" stroke="rgb(0, 0, 0)" stroke-linejoin="round" d=" M 102.922, 82.730 107.704, 83.228 111.434, 83.617 111.959, 83.746 121.670, 86.131 128.076, 87.704 137.679, 90.492 141.578, 91.624 142.471, 91.883 151.798, 95.488 155.304, 96.843 164.463, 100.855 166.449, 101.725 174.815, 105.789 181.264, 109.390 184.895, 112.108 186.335, 113.186 187.360, 114.803 187.676, 115.302 188.222, 116.163 188.406, 117.446 188.588, 118.714 187.677, 119.291 187.190, 119.599 186.054, 120.319 " />
            <path fill="none" stroke-width="3.0" stroke-linecap="butt" stroke-opacity="1.0" stroke="rgb(0, 0, 0)" stroke-linejoin="round" d=" M 99.108, 79.460 99.277, 79.217 100.374, 77.647 102.902, 74.031 103.729, 71.193 104.002, 70.256 104.355, 69.043 104.588, 68.244 105.023, 66.751 105.241, 66.005 105.320, 65.733 105.856, 59.309 105.841, 57.013 105.835, 56.071 105.826, 54.674 105.825, 54.520 " />
            <path fill="none" stroke-width="3.0" stroke-linecap="butt" stroke-opacity="1.0" stroke="rgb(0, 0, 0)" stroke-linejoin="round" d=" M 76.872, 74.150 80.420, 76.489 83.009, 77.755 83.017, 77.759 84.112, 78.294 85.571, 79.007 93.086, 80.593 96.859, 79.883 99.108, 79.460 100.312, 80.900 101.925, 82.151 101.975, 82.189 103.427, 82.630 " />
            <path fill="none" stroke-width="3.0" stroke-linecap="butt" stroke-opacity="1.0" stroke="rgb(0, 0, 0)" stroke-linejoin="round" d=" M 54.217, 80.447 53.896, 79.082 " />
            <path fill="none" stroke-width="3.0" stroke-linecap="butt" stroke-opacity="1.0" stroke="rgb(0, 0, 0)" stroke-linejoin="round" d=" M 79.893, 76.968 77.628, 75.454 76.872, 74.150 72.528, 76.446 66.653, 78.856 61.594, 79.792 59.030, 80.267 53.896, 79.082 52.276, 73.895 " />
            <path fill="none" stroke-width="3.0" stroke-linecap="butt" stroke-opacity="1.0" stroke="rgb(0, 0, 0)" stroke-linejoin="round" d=" M 110.661, 61.842 110.904, 61.501 110.988, 61.383 111.212, 61.069 114.172, 56.914 114.505, 56.437 117.688, 51.878 118.847, 50.217 122.515, 44.567 122.897, 43.165 124.057, 38.906 124.108, 35.761 122.924, 33.523 119.446, 29.245 114.173, 26.785 111.240, 25.670 105.504, 24.541 103.087, 24.273 101.121, 24.055 " />
            <path fill="none" stroke-width="3.0" stroke-linecap="butt" stroke-opacity="1.0" stroke="rgb(0, 0, 0)" stroke-linejoin="round" d=" M 56.005, 55.654 53.322, 51.826 50.330, 46.744 48.908, 41.320 49.378, 35.798 53.730, 31.583 60.767, 28.047 66.457, 26.436 70.770, 25.551 73.360, 21.550 77.249, 16.358 83.326, 10.570 88.733, 7.881 93.345, 9.924 97.613, 15.162 99.832, 20.136 101.121, 24.055 " />
            <path fill="none" stroke-width="3.0" stroke-linecap="butt" stroke-opacity="1.0" stroke="rgb(0, 0, 0)" stroke-linejoin="round" d=" M 108.957, 57.586 107.763, 56.195 107.163, 55.496 105.876, 54.557 105.825, 54.520 105.928, 54.431 106.827, 53.653 110.351, 50.602 111.068, 49.862 115.802, 44.968 116.716, 43.542 119.639, 38.977 121.314, 32.980 117.911, 28.785 111.240, 25.670 " />
            <path fill="none" stroke-width="3.0" stroke-linecap="butt" stroke-opacity="1.0" stroke="rgb(0, 0, 0)" stroke-linejoin="round" d=" M 103.087, 24.273 102.160, 21.895 99.678, 17.054 98.254, 14.778 94.374, 10.025 89.673, 7.945 88.733, 7.881 " />
            <path fill="none" stroke-width="3.0" stroke-linecap="butt" stroke-opacity="1.0" stroke="rgb(0, 0, 0)" stroke-linejoin="round" d=" M 53.322, 51.826 56.098, 55.391 " />
            <path fill="none" stroke-width="3.0" stroke-linecap="butt" stroke-opacity="1.0" stroke="rgb(0, 0, 0)" stroke-linejoin="round" d=" M 191.353, 106.246 188.457, 96.674 186.323, 89.621 185.319, 88.548 184.111, 84.199 179.271, 75.449 178.005, 73.161 171.483, 65.581 170.364, 64.280 164.686, 58.818 156.741, 52.746 156.377, 52.467 149.159, 48.636 142.900, 46.440 138.162, 44.902 137.083, 44.551 130.637, 43.402 126.534, 43.222 124.284, 43.124 122.897, 43.165 " />
            <path fill="none" stroke-width="3.0" stroke-linecap="butt" stroke-opacity="1.0" stroke="rgb(0, 0, 0)" stroke-linejoin="round" d=" M 79.893, 76.968 81.576, 77.950 82.747, 78.632 82.799, 78.663 83.174, 78.881 84.537, 79.677 84.766, 79.810 87.511, 80.908 89.229, 81.596 89.402, 81.665 89.803, 81.825 90.786, 82.219 93.339, 82.767 97.839, 83.734 101.428, 83.025 102.922, 82.730 103.427, 82.630 103.675, 82.275 104.419, 81.209 106.728, 77.906 107.367, 76.991 107.367, 76.991 108.703, 73.012 108.748, 72.879 108.810, 72.696 108.822, 72.629 109.259, 70.338 109.494, 69.101 109.601, 68.542 110.227, 65.253 110.661, 61.842 110.749, 61.148 110.772, 60.974 110.850, 60.357 110.877, 60.147 " />
            <path fill="none" stroke-width="3.0" stroke-linecap="butt" stroke-opacity="1.0" stroke="rgb(0, 0, 0)" stroke-linejoin="round" d=" M 186.780, 103.311 183.038, 100.199 174.922, 96.554 166.768, 92.891 160.893, 91.224 " />
            <path fill="none" stroke-width="3.0" stroke-linecap="butt" stroke-opacity="1.0" stroke="rgb(0, 0, 0)" stroke-linejoin="round" d=" M 121.251, 69.234 119.702, 69.142 " />
            <path fill="none" stroke-width="3.0" stroke-linecap="butt" stroke-opacity="1.0" stroke="rgb(0, 0, 0)" stroke-linejoin="round" d=" M 121.251, 69.234 128.746, 70.409 133.512, 71.157 143.391, 72.707 145.010, 72.961 " />
            <path fill="none" stroke-width="3.0" stroke-linecap="butt" stroke-opacity="1.0" stroke="rgb(0, 0, 0)" stroke-linejoin="round" d=" M 138.162, 44.902 137.546, 44.076 134.210, 42.691 130.154, 42.239 126.988, 42.899 126.534, 43.222 " />
            <path fill="none" stroke-width="3.0" stroke-linecap="butt" stroke-opacity="1.0" stroke="rgb(0, 0, 0)" stroke-linejoin="round" d=" M 200.050, 141.478 200.745, 141.305 208.898, 136.611 209.764, 132.904 209.603, 126.099 205.776, 120.596 200.002, 113.484 192.333, 107.066 191.353, 106.246 190.454, 105.493 186.780, 103.311 185.026, 102.269 176.478, 98.454 171.519, 96.241 " />
            <path fill="none" stroke-width="3.0" stroke-linecap="butt" stroke-opacity="1.0" stroke="rgb(0, 0, 0)" stroke-linejoin="round" d=" M 199.293, 122.721 207.189, 128.856 208.674, 130.010 208.898, 136.611 " />
            <path fill="none" stroke-width="3.0" stroke-linecap="butt" stroke-opacity="1.0" stroke="rgb(0, 0, 0)" stroke-linejoin="round" d=" M 44.281, 93.076 43.575, 93.610 38.114, 97.685 32.052, 103.681 31.615, 107.340 " />
            <path fill="none" stroke-width="3.0" stroke-linecap="butt" stroke-opacity="1.0" stroke="rgb(0, 0, 0)" stroke-linejoin="round" d=" M 209.603, 126.099 201.821, 119.819 199.337, 117.815 " />
            <path fill="none" stroke-width="3.0" stroke-linecap="butt" stroke-opacity="1.0" stroke="rgb(0, 0, 0)" stroke-linejoin="round" d=" M 59.888, 82.426 59.022, 83.762 " />
            <path fill="none" stroke-width="3.0" stroke-linecap="butt" stroke-opacity="1.0" stroke="rgb(0, 0, 0)" stroke-linejoin="round" d=" M 107.250, 77.927 107.542, 76.943 108.709, 73.012 " />
            <path fill="none" stroke-width="3.0" stroke-linecap="butt" stroke-opacity="1.0" stroke="rgb(0, 0, 0)" stroke-linejoin="round" d=" M 108.703, 73.012 108.709, 73.012 110.875, 72.933 " />
            <path fill="none" stroke-width="3.0" stroke-linecap="butt" stroke-opacity="1.0" stroke="rgb(0, 0, 0)" stroke-linejoin="round" d=" M 197.000, 125.183 201.566, 128.615 " />
        </g>
    </g>
</svg>
