<?xml version='1.0' encoding='ascii'?>
<svg xmlns="http://www.w3.org/2000/svg" version="1.1" width="250" height="250">
    <g id="ViewLayer_LineSet" xmlns:inkscape="http://www.inkscape.org/namespaces/inkscape" inkscape:groupmode="lineset" inkscape:label="ViewLayer_LineSet">
        <g xmlns:inkscape="http://www.inkscape.org/namespaces/inkscape" inkscape:groupmode="layer" id="strokes" inkscape:label="strokes">
            <path fill="none" stroke-width="3.0" stroke-linecap="butt" stroke-opacity="1.0" stroke="rgb(0, 0, 0)" stroke-linejoin="round" d=" M 164.176, 199.708 166.794, 197.803 173.745, 190.614 174.414, 189.923 176.411, 187.034 182.041, 178.770 182.656, 177.867 " />
            <path fill="none" stroke-width="3.0" stroke-linecap="butt" stroke-opacity="1.0" stroke="rgb(0, 0, 0)" stroke-linejoin="round" d=" M 59.400, 99.384 57.983, 101.166 53.749, 108.274 49.940, 116.943 49.359, 118.825 48.425, 121.851 48.320, 122.190 47.994, 123.247 47.273, 125.580 46.020, 131.736 45.476, 138.114 45.251, 142.607 45.480, 148.262 45.959, 152.759 46.820, 157.402 47.667, 161.352 48.952, 165.656 50.616, 170.122 52.237, 173.774 52.585, 174.557 54.773, 178.770 57.088, 182.576 59.429, 185.798 62.361, 189.685 65.345, 192.969 69.457, 197.048 72.902, 199.760 78.079, 203.731 78.247, 203.831 84.043, 207.292 89.779, 209.885 93.588, 211.548 97.487, 212.674 " />
            <path fill="none" stroke-width="3.0" stroke-linecap="butt" stroke-opacity="1.0" stroke="rgb(0, 0, 0)" stroke-linejoin="round" d=" M 189.611, 125.485 188.827, 121.817 188.658, 121.381 " />
            <path fill="none" stroke-width="3.0" stroke-linecap="butt" stroke-opacity="1.0" stroke="rgb(0, 0, 0)" stroke-linejoin="round" d=" M 77.110, 151.054 77.664, 152.455 78.398, 153.569 79.027, 154.525 80.922, 156.185 83.117, 157.416 85.158, 157.862 87.252, 157.793 89.626, 156.969 91.675, 155.643 93.224, 153.798 93.939, 152.483 " />
            <path fill="none" stroke-width="3.0" stroke-linecap="butt" stroke-opacity="1.0" stroke="rgb(0, 0, 0)" stroke-linejoin="round" d=" M 117.435, 101.913 117.625, 102.554 118.019, 103.877 118.471, 107.267 118.511, 111.093 118.527, 111.162 117.427, 119.444 117.412, 119.558 117.409, 119.580 116.182, 123.794 114.678, 128.085 112.923, 132.082 110.982, 135.593 108.923, 138.445 108.558, 138.800 108.170, 139.177 106.814, 140.496 104.729, 141.642 102.740, 141.825 101.457, 141.266 100.920, 141.032 99.343, 139.297 98.392, 137.345 98.139, 136.824 98.077, 136.698 97.184, 133.358 96.712, 129.436 96.690, 125.122 97.125, 120.620 97.982, 116.207 98.157, 115.601 98.200, 115.450 99.184, 112.043 100.705, 108.140 102.484, 104.639 104.452, 101.663 105.387, 100.608 " />
            <path fill="none" stroke-width="3.0" stroke-linecap="butt" stroke-opacity="1.0" stroke="rgb(0, 0, 0)" stroke-linejoin="round" d=" M 77.311, 119.526 76.333, 123.820 76.164, 124.461 75.250, 127.929 74.276, 131.013 74.144, 131.431 74.074, 131.653 72.813, 134.805 71.473, 137.226 70.070, 138.797 68.916, 139.316 68.631, 139.443 67.221, 139.436 65.845, 137.898 64.637, 135.793 63.662, 132.933 63.000, 129.461 62.902, 128.112 62.868, 127.635 62.717, 125.552 62.854, 121.394 63.141, 119.268 63.413, 117.244 64.280, 113.245 65.398, 109.401 66.722, 105.849 67.330, 104.557 67.570, 104.048 68.199, 102.711 69.772, 100.093 70.609, 99.047 " />
            <path fill="none" stroke-width="3.0" stroke-linecap="butt" stroke-opacity="1.0" stroke="rgb(0, 0, 0)" stroke-linejoin="round" d=" M 67.221, 139.436 70.425, 140.820 " />
            <path fill="none" stroke-width="3.0" stroke-linecap="butt" stroke-opacity="1.0" stroke="rgb(0, 0, 0)" stroke-linejoin="round" d=" M 77.879, 98.829 78.527, 101.121 78.887, 104.035 78.996, 107.525 78.838, 109.440 78.814, 109.729 78.687, 111.268 " />
            <path fill="none" stroke-width="3.0" stroke-linecap="butt" stroke-opacity="1.0" stroke="rgb(0, 0, 0)" stroke-linejoin="round" d=" M 80.417, 121.474 77.311, 119.526 78.134, 115.321 78.687, 111.268 81.754, 113.309 " />
            <path fill="none" stroke-width="3.0" stroke-linecap="butt" stroke-opacity="1.0" stroke="rgb(0, 0, 0)" stroke-linejoin="round" d=" M 163.810, 239.496 166.912, 238.277 168.228, 237.760 168.947, 237.397 173.067, 233.358 175.322, 229.629 176.629, 225.664 176.938, 221.034 176.086, 216.063 173.514, 209.968 169.843, 204.620 165.056, 200.442 164.176, 199.708 162.129, 197.999 156.371, 194.907 " />
            <path fill="none" stroke-width="3.0" stroke-linecap="butt" stroke-opacity="1.0" stroke="rgb(0, 0, 0)" stroke-linejoin="round" d=" M 104.194, 203.231 101.105, 206.180 98.395, 210.435 97.487, 212.674 96.707, 214.596 95.856, 218.622 95.653, 222.326 96.284, 226.203 98.049, 230.134 100.649, 232.960 101.324, 233.365 104.318, 235.163 109.751, 236.914 116.380, 238.269 122.178, 239.016 125.784, 239.391 132.157, 240.230 140.427, 240.715 147.283, 240.673 153.414, 240.532 157.940, 240.114 163.810, 239.496 165.219, 239.009 166.912, 238.277 " />
            <path fill="none" stroke-width="3.0" stroke-linecap="butt" stroke-opacity="1.0" stroke="rgb(0, 0, 0)" stroke-linejoin="round" d=" M 78.247, 203.831 78.032, 205.047 77.518, 208.161 77.675, 213.201 77.678, 213.292 " />
            <path fill="none" stroke-width="3.0" stroke-linecap="butt" stroke-opacity="1.0" stroke="rgb(0, 0, 0)" stroke-linejoin="round" d=" M 77.675, 213.201 77.715, 216.229 78.351, 218.624 80.399, 223.610 81.643, 225.787 85.068, 229.340 89.344, 232.103 93.532, 233.359 97.959, 233.592 99.872, 233.577 101.324, 233.365 " />
            <path fill="none" stroke-width="3.0" stroke-linecap="butt" stroke-opacity="1.0" stroke="rgb(0, 0, 0)" stroke-linejoin="round" d=" M 182.656, 177.867 186.001, 179.372 188.571, 180.162 192.836, 181.325 196.750, 181.836 200.572, 181.655 205.271, 180.458 207.583, 179.466 209.759, 178.136 209.898, 178.047 212.407, 176.107 214.919, 173.433 216.958, 170.106 218.197, 166.988 218.733, 165.030 219.169, 162.085 219.145, 159.191 218.869, 157.471 218.111, 153.611 216.664, 149.852 214.504, 145.926 210.631, 141.137 206.934, 137.356 206.553, 136.967 206.528, 136.941 204.758, 135.191 200.775, 131.547 196.528, 128.587 191.875, 126.282 189.611, 125.485 " />
            <path fill="none" stroke-width="3.0" stroke-linecap="butt" stroke-opacity="1.0" stroke="rgb(0, 0, 0)" stroke-linejoin="round" d=" M 47.994, 123.247 44.520, 125.088 40.314, 128.136 36.346, 131.840 32.316, 136.092 28.442, 141.044 26.121, 145.100 24.547, 148.976 23.692, 152.973 23.633, 156.458 24.098, 159.736 24.286, 160.356 25.252, 163.273 26.743, 166.062 28.729, 168.702 31.085, 170.846 33.729, 172.632 36.606, 173.979 39.758, 174.848 43.211, 175.273 47.285, 175.006 51.353, 174.090 52.237, 173.774 " />
            <path fill="none" stroke-width="3.0" stroke-linecap="butt" stroke-opacity="1.0" stroke="rgb(0, 0, 0)" stroke-linejoin="round" d=" M 116.260, 71.563 119.410, 69.152 119.509, 69.076 119.669, 68.750 119.706, 68.676 121.361, 65.308 122.346, 62.716 122.327, 59.035 121.310, 56.369 119.405, 52.659 117.679, 51.396 " />
            <path fill="none" stroke-width="3.0" stroke-linecap="butt" stroke-opacity="1.0" stroke="rgb(0, 0, 0)" stroke-linejoin="round" d=" M 56.096, 54.900 56.002, 55.164 54.481, 59.463 52.842, 65.551 52.273, 73.401 52.563, 74.665 54.214, 79.952 56.703, 81.195 59.934, 81.946 61.498, 82.309 61.848, 82.391 65.731, 82.836 71.741, 81.781 77.305, 80.361 82.741, 78.194 82.810, 78.167 " />
            <path fill="none" stroke-width="3.0" stroke-linecap="butt" stroke-opacity="1.0" stroke="rgb(0, 0, 0)" stroke-linejoin="round" d=" M 33.811, 111.441 31.610, 106.924 32.791, 105.778 37.491, 101.216 41.814, 100.118 49.702, 98.115 53.183, 97.231 56.943, 97.100 59.082, 97.026 61.338, 96.947 71.332, 96.600 73.525, 96.524 75.985, 96.438 75.998, 96.438 79.965, 96.300 89.935, 97.080 99.904, 97.860 107.630, 98.464 113.681, 98.938 116.268, 99.389 116.329, 99.399 126.180, 101.118 136.031, 102.837 145.882, 104.556 147.671, 104.868 157.333, 107.443 166.996, 110.019 176.659, 112.594 177.083, 112.707 178.192, 113.165 178.883, 113.451 183.065, 115.177 186.027, 116.400 " />
            <path fill="none" stroke-width="3.0" stroke-linecap="butt" stroke-opacity="1.0" stroke="rgb(0, 0, 0)" stroke-linejoin="round" d=" M 206.528, 136.941 206.662, 136.863 206.293, 130.519 200.087, 125.790 197.910, 124.130 " />
            <path fill="none" stroke-width="3.0" stroke-linecap="butt" stroke-opacity="1.0" stroke="rgb(0, 0, 0)" stroke-linejoin="round" d=" M 39.009, 107.563 40.876, 105.930 44.978, 102.342 54.745, 100.196 58.287, 99.417 " />
            <path fill="none" stroke-width="3.0" stroke-linecap="butt" stroke-opacity="1.0" stroke="rgb(0, 0, 0)" stroke-linejoin="round" d=" M 38.868, 116.328 47.141, 121.708 48.320, 122.190 " />
            <path fill="none" stroke-width="3.0" stroke-linecap="butt" stroke-opacity="1.0" stroke="rgb(0, 0, 0)" stroke-linejoin="round" d=" M 55.980, 99.487 46.216, 101.647 45.513, 101.802 41.089, 102.781 39.819, 103.062 33.811, 108.558 34.553, 110.126 " />
            <path fill="none" stroke-width="3.0" stroke-linecap="butt" stroke-opacity="1.0" stroke="rgb(0, 0, 0)" stroke-linejoin="round" d=" M 55.980, 99.487 58.287, 99.417 59.400, 99.384 59.621, 99.377 61.465, 99.322 70.609, 99.047 76.098, 98.882 77.879, 98.829 79.231, 98.788 81.511, 98.719 91.480, 99.508 101.449, 100.296 105.387, 100.608 110.189, 100.987 113.435, 101.244 117.435, 101.913 118.002, 102.008 127.865, 103.658 133.014, 104.520 142.877, 106.170 146.741, 106.816 156.411, 109.364 166.081, 111.912 175.692, 114.444 179.318, 115.921 184.298, 117.949 " />
            <path fill="none" stroke-width="3.0" stroke-linecap="butt" stroke-opacity="1.0" stroke="rgb(0, 0, 0)" stroke-linejoin="round" d=" M 41.019, 93.552 36.215, 97.461 33.048, 100.669 31.236, 103.515 30.065, 106.549 30.058, 109.016 30.522, 111.191 34.849, 115.322 37.529, 116.795 38.868, 116.328 38.895, 116.318 40.790, 115.656 42.061, 114.790 43.646, 113.708 45.232, 108.630 " />
            <path fill="none" stroke-width="3.0" stroke-linecap="butt" stroke-opacity="1.0" stroke="rgb(0, 0, 0)" stroke-linejoin="round" d=" M 33.253, 112.782 30.522, 111.191 " />
            <path fill="none" stroke-width="3.0" stroke-linecap="butt" stroke-opacity="1.0" stroke="rgb(0, 0, 0)" stroke-linejoin="round" d=" M 43.646, 113.708 39.917, 111.358 " />
            <path fill="none" stroke-width="3.0" stroke-linecap="butt" stroke-opacity="1.0" stroke="rgb(0, 0, 0)" stroke-linejoin="round" d=" M 40.805, 109.004 39.917, 111.358 36.496, 112.321 " />
            <path fill="none" stroke-width="3.0" stroke-linecap="butt" stroke-opacity="1.0" stroke="rgb(0, 0, 0)" stroke-linejoin="round" d=" M 57.456, 83.968 50.504, 87.273 42.166, 92.793 41.019, 93.552 47.276, 89.499 48.394, 88.892 57.180, 84.117 57.456, 83.968 59.046, 83.316 61.498, 82.309 " />
            <path fill="none" stroke-width="3.0" stroke-linecap="butt" stroke-opacity="1.0" stroke="rgb(0, 0, 0)" stroke-linejoin="round" d=" M 47.276, 89.499 49.558, 88.573 49.757, 88.492 53.301, 87.053 55.745, 86.060 57.630, 85.499 67.214, 82.645 67.370, 82.599 77.320, 81.603 78.328, 81.502 80.459, 81.289 81.792, 81.255 87.692, 81.107 88.772, 81.155 89.475, 81.187 " />
            <path fill="none" stroke-width="3.0" stroke-linecap="butt" stroke-opacity="1.0" stroke="rgb(0, 0, 0)" stroke-linejoin="round" d=" M 179.318, 115.921 179.990, 117.565 182.296, 118.659 183.007, 118.996 183.541, 119.221 188.658, 121.381 196.851, 124.839 197.003, 124.737 197.910, 124.130 198.719, 123.590 199.053, 123.366 199.307, 122.265 199.889, 119.736 196.986, 115.178 192.330, 110.672 190.492, 108.893 184.303, 104.434 182.936, 103.449 178.537, 100.183 177.788, 99.626 176.721, 98.834 171.621, 95.824 168.188, 93.797 160.995, 90.789 158.725, 89.840 157.010, 89.123 147.465, 86.140 144.304, 85.152 134.690, 82.398 131.514, 81.488 121.657, 79.805 118.660, 79.294 109.250, 77.756 107.472, 77.465 " />
            <path fill="none" stroke-width="3.0" stroke-linecap="butt" stroke-opacity="1.0" stroke="rgb(0, 0, 0)" stroke-linejoin="round" d=" M 102.860, 82.237 107.713, 82.741 111.438, 83.128 112.093, 83.289 121.805, 85.673 128.082, 87.214 137.686, 90.001 141.790, 91.192 142.479, 91.392 151.806, 94.998 155.313, 96.354 164.473, 100.367 166.460, 101.238 174.827, 105.304 181.277, 108.909 184.869, 111.599 186.349, 112.708 187.391, 114.354 187.724, 114.880 188.236, 115.687 188.431, 117.053 188.602, 118.240 187.670, 118.831 187.198, 119.131 186.067, 119.848 " />
            <path fill="none" stroke-width="3.0" stroke-linecap="butt" stroke-opacity="1.0" stroke="rgb(0, 0, 0)" stroke-linejoin="round" d=" M 99.110, 78.939 99.180, 78.839 100.341, 77.178 102.905, 73.509 103.697, 70.793 103.990, 69.788 104.341, 68.585 104.575, 67.781 105.010, 66.287 105.244, 65.486 105.324, 65.212 105.860, 58.790 105.846, 56.558 105.839, 55.599 105.830, 54.190 105.829, 54.002 " />
            <path fill="none" stroke-width="3.0" stroke-linecap="butt" stroke-opacity="1.0" stroke="rgb(0, 0, 0)" stroke-linejoin="round" d=" M 76.872, 73.642 80.420, 75.979 83.032, 77.254 83.112, 77.293 84.208, 77.828 85.572, 78.494 93.089, 80.075 98.174, 79.115 99.110, 78.939 100.315, 80.381 101.978, 81.676 102.001, 81.683 103.431, 82.124 " />
            <path fill="none" stroke-width="3.0" stroke-linecap="butt" stroke-opacity="1.0" stroke="rgb(0, 0, 0)" stroke-linejoin="round" d=" M 54.214, 79.952 53.893, 78.586 " />
            <path fill="none" stroke-width="3.0" stroke-linecap="butt" stroke-opacity="1.0" stroke="rgb(0, 0, 0)" stroke-linejoin="round" d=" M 79.894, 76.469 77.628, 74.948 76.872, 73.642 72.527, 75.941 66.652, 78.353 61.663, 79.278 59.028, 79.767 53.893, 78.586 52.273, 73.401 " />
            <path fill="none" stroke-width="3.0" stroke-linecap="butt" stroke-opacity="1.0" stroke="rgb(0, 0, 0)" stroke-linejoin="round" d=" M 110.664, 61.350 110.902, 61.017 110.976, 60.913 111.205, 60.591 114.177, 56.419 114.501, 55.955 117.679, 51.396 118.853, 49.712 122.521, 44.060 122.875, 42.760 124.063, 38.400 124.114, 35.248 122.930, 33.004 119.451, 28.729 114.178, 26.273 111.244, 25.156 105.508, 24.031 103.086, 23.764 101.124, 23.548 " />
            <path fill="none" stroke-width="3.0" stroke-linecap="butt" stroke-opacity="1.0" stroke="rgb(0, 0, 0)" stroke-linejoin="round" d=" M 56.002, 55.164 53.319, 51.337 50.327, 46.258 48.905, 40.836 49.375, 35.316 53.728, 31.099 60.765, 27.560 66.456, 25.947 70.769, 25.060 73.360, 21.058 77.249, 15.866 83.327, 10.076 88.735, 7.384 93.347, 9.424 97.616, 14.659 99.835, 19.630 101.124, 23.548 " />
            <path fill="none" stroke-width="3.0" stroke-linecap="butt" stroke-opacity="1.0" stroke="rgb(0, 0, 0)" stroke-linejoin="round" d=" M 108.961, 57.076 107.733, 55.640 107.167, 54.980 105.890, 54.047 105.829, 54.002 105.955, 53.893 106.816, 53.148 110.356, 50.082 111.028, 49.387 115.807, 44.447 116.647, 43.136 119.644, 38.455 121.320, 32.459 117.916, 28.267 111.244, 25.156 " />
            <path fill="none" stroke-width="3.0" stroke-linecap="butt" stroke-opacity="1.0" stroke="rgb(0, 0, 0)" stroke-linejoin="round" d=" M 103.086, 23.764 102.163, 21.398 99.681, 16.559 98.257, 14.277 94.376, 9.528 89.674, 7.451 88.735, 7.384 " />
            <path fill="none" stroke-width="3.0" stroke-linecap="butt" stroke-opacity="1.0" stroke="rgb(0, 0, 0)" stroke-linejoin="round" d=" M 53.319, 51.337 56.096, 54.900 " />
            <path fill="none" stroke-width="3.0" stroke-linecap="butt" stroke-opacity="1.0" stroke="rgb(0, 0, 0)" stroke-linejoin="round" d=" M 191.354, 105.791 188.457, 96.219 186.335, 89.208 185.330, 88.136 184.123, 83.789 179.280, 75.039 178.015, 72.755 171.491, 65.176 170.374, 63.879 164.695, 58.404 156.746, 52.337 156.385, 52.062 149.167, 48.224 142.907, 46.039 138.151, 44.492 137.089, 44.147 130.642, 42.997 126.561, 42.819 124.289, 42.721 122.875, 42.760 " />
            <path fill="none" stroke-width="3.0" stroke-linecap="butt" stroke-opacity="1.0" stroke="rgb(0, 0, 0)" stroke-linejoin="round" d=" M 79.894, 76.469 81.633, 77.482 82.758, 78.137 82.810, 78.167 83.253, 78.425 84.551, 79.181 84.767, 79.306 87.611, 80.442 89.313, 81.122 89.475, 81.187 89.946, 81.375 90.788, 81.711 93.513, 82.298 97.841, 83.231 101.273, 82.551 102.860, 82.237 103.431, 82.124 103.657, 81.800 104.398, 80.740 106.708, 77.434 107.280, 76.615 107.371, 76.485 108.696, 72.542 108.814, 72.191 109.244, 69.931 109.490, 68.640 109.597, 68.078 110.231, 64.751 110.664, 61.350 110.748, 60.689 110.772, 60.500 110.850, 59.891 110.881, 59.645 " />
            <path fill="none" stroke-width="3.0" stroke-linecap="butt" stroke-opacity="1.0" stroke="rgb(0, 0, 0)" stroke-linejoin="round" d=" M 186.734, 102.832 183.050, 99.760 174.887, 96.084 166.778, 92.433 160.995, 90.789 " />
            <path fill="none" stroke-width="3.0" stroke-linecap="butt" stroke-opacity="1.0" stroke="rgb(0, 0, 0)" stroke-linejoin="round" d=" M 121.256, 68.768 119.706, 68.676 " />
            <path fill="none" stroke-width="3.0" stroke-linecap="butt" stroke-opacity="1.0" stroke="rgb(0, 0, 0)" stroke-linejoin="round" d=" M 121.256, 68.768 129.580, 70.075 132.968, 70.607 142.847, 72.158 145.018, 72.499 " />
            <path fill="none" stroke-width="3.0" stroke-linecap="butt" stroke-opacity="1.0" stroke="rgb(0, 0, 0)" stroke-linejoin="round" d=" M 138.151, 44.492 137.552, 43.688 134.216, 42.301 130.159, 41.850 126.993, 42.513 126.561, 42.819 " />
            <path fill="none" stroke-width="3.0" stroke-linecap="butt" stroke-opacity="1.0" stroke="rgb(0, 0, 0)" stroke-linejoin="round" d=" M 206.934, 137.356 208.912, 136.212 209.777, 132.505 209.618, 125.671 205.790, 120.171 200.015, 113.062 192.357, 106.632 191.354, 105.791 190.467, 105.046 186.734, 102.832 185.038, 101.827 176.438, 97.979 171.621, 95.824 " />
            <path fill="none" stroke-width="3.0" stroke-linecap="butt" stroke-opacity="1.0" stroke="rgb(0, 0, 0)" stroke-linejoin="round" d=" M 199.307, 122.265 207.192, 128.415 208.689, 129.582 208.912, 136.212 " />
            <path fill="none" stroke-width="3.0" stroke-linecap="butt" stroke-opacity="1.0" stroke="rgb(0, 0, 0)" stroke-linejoin="round" d=" M 44.331, 92.595 43.571, 93.169 38.109, 97.241 32.048, 103.266 31.610, 106.924 " />
            <path fill="none" stroke-width="3.0" stroke-linecap="butt" stroke-opacity="1.0" stroke="rgb(0, 0, 0)" stroke-linejoin="round" d=" M 209.618, 125.671 201.846, 119.378 199.351, 117.358 " />
            <path fill="none" stroke-width="3.0" stroke-linecap="butt" stroke-opacity="1.0" stroke="rgb(0, 0, 0)" stroke-linejoin="round" d=" M 59.934, 81.946 59.046, 83.316 " />
            <path fill="none" stroke-width="3.0" stroke-linecap="butt" stroke-opacity="1.0" stroke="rgb(0, 0, 0)" stroke-linejoin="round" d=" M 107.253, 77.456 107.523, 76.549 108.713, 72.541 " />
            <path fill="none" stroke-width="3.0" stroke-linecap="butt" stroke-opacity="1.0" stroke="rgb(0, 0, 0)" stroke-linejoin="round" d=" M 108.696, 72.542 108.713, 72.541 110.880, 72.468 " />
            <path fill="none" stroke-width="3.0" stroke-linecap="butt" stroke-opacity="1.0" stroke="rgb(0, 0, 0)" stroke-linejoin="round" d=" M 197.003, 124.737 201.580, 128.190 " />
        </g>
    </g>
</svg>
