<?xml version='1.0' encoding='ascii'?>
<svg xmlns="http://www.w3.org/2000/svg" version="1.1" width="250" height="250">
    <g id="ViewLayer_LineSet" xmlns:inkscape="http://www.inkscape.org/namespaces/inkscape" inkscape:groupmode="lineset" inkscape:label="ViewLayer_LineSet">
        <g xmlns:inkscape="http://www.inkscape.org/namespaces/inkscape" inkscape:groupmode="layer" id="strokes" inkscape:label="strokes">
            <path fill="none" stroke-width="3.0" stroke-linecap="butt" stroke-opacity="1.0" stroke="rgb(0, 0, 0)" stroke-linejoin="round" d=" M 175.742, 194.918 182.671, 188.139 186.718, 182.899 " />
            <path fill="none" stroke-width="3.0" stroke-linecap="butt" stroke-opacity="1.0" stroke="rgb(0, 0, 0)" stroke-linejoin="round" d=" M 59.746, 164.176 59.857, 164.616 63.850, 173.784 64.369, 174.974 66.138, 177.698 70.438, 184.319 " />
            <path fill="none" stroke-width="3.0" stroke-linecap="butt" stroke-opacity="1.0" stroke="rgb(0, 0, 0)" stroke-linejoin="round" d=" M 101.041, 207.730 105.373, 209.252 112.601, 211.100 113.628, 211.342 116.184, 211.944 116.331, 211.967 " />
            <path fill="none" stroke-width="3.0" stroke-linecap="butt" stroke-opacity="1.0" stroke="rgb(0, 0, 0)" stroke-linejoin="round" d=" M 66.138, 177.698 65.909, 177.890 62.569, 182.195 60.833, 186.508 59.833, 190.636 59.917, 194.160 61.052, 197.703 61.602, 199.161 64.459, 203.172 66.565, 204.471 69.227, 206.068 74.206, 207.563 78.244, 208.524 83.055, 209.565 87.409, 210.367 92.813, 211.014 99.528, 211.491 106.861, 211.508 113.628, 211.342 " />
            <path fill="none" stroke-width="3.0" stroke-linecap="butt" stroke-opacity="1.0" stroke="rgb(0, 0, 0)" stroke-linejoin="round" d=" M 116.127, 211.165 116.331, 211.967 116.429, 212.351 119.094, 216.344 121.290, 219.014 125.734, 221.440 130.028, 223.177 134.706, 225.001 140.431, 226.882 146.429, 228.707 152.191, 230.248 156.813, 231.407 161.853, 232.322 168.436, 233.024 173.569, 233.194 178.674, 232.766 182.454, 231.471 185.901, 228.562 187.199, 227.353 189.215, 224.533 190.235, 221.414 190.446, 218.285 189.921, 214.767 188.631, 211.030 187.335, 208.101 185.045, 204.366 182.661, 201.835 " />
            <path fill="none" stroke-width="3.0" stroke-linecap="butt" stroke-opacity="1.0" stroke="rgb(0, 0, 0)" stroke-linejoin="round" d=" M 186.609, 207.497 186.399, 207.189 183.157, 202.448 182.661, 201.835 180.707, 199.421 175.742, 194.918 " />
            <path fill="none" stroke-width="3.0" stroke-linecap="butt" stroke-opacity="1.0" stroke="rgb(0, 0, 0)" stroke-linejoin="round" d=" M 188.567, 213.118 186.609, 207.497 186.148, 206.505 " />
            <path fill="none" stroke-width="3.0" stroke-linecap="butt" stroke-opacity="1.0" stroke="rgb(0, 0, 0)" stroke-linejoin="round" d=" M 179.597, 177.896 185.038, 181.869 186.511, 182.792 186.718, 182.899 190.973, 185.103 195.257, 186.689 199.668, 187.568 203.499, 187.583 207.001, 187.049 208.766, 186.620 211.902, 185.480 214.705, 183.799 215.980, 182.849 218.482, 180.744 220.632, 178.011 221.437, 176.646 222.307, 175.006 222.983, 173.702 223.944, 170.877 224.523, 167.707 224.637, 164.074 224.017, 159.826 222.718, 155.546 220.696, 150.995 220.306, 150.184 216.485, 144.330 212.485, 139.261 208.600, 134.819 207.919, 134.207 " />
            <path fill="none" stroke-width="3.0" stroke-linecap="butt" stroke-opacity="1.0" stroke="rgb(0, 0, 0)" stroke-linejoin="round" d=" M 217.273, 118.614 216.780, 117.231 " />
            <path fill="none" stroke-width="3.0" stroke-linecap="butt" stroke-opacity="1.0" stroke="rgb(0, 0, 0)" stroke-linejoin="round" d=" M 216.153, 119.250 217.273, 118.614 218.455, 115.190 216.993, 110.777 215.798, 106.890 213.288, 103.446 209.994, 100.230 202.459, 93.656 199.655, 91.209 193.166, 87.253 190.243, 86.047 " />
            <path fill="none" stroke-width="3.0" stroke-linecap="butt" stroke-opacity="1.0" stroke="rgb(0, 0, 0)" stroke-linejoin="round" d=" M 216.993, 110.777 213.267, 105.785 212.597, 104.887 208.038, 99.801 207.988, 99.742 204.443, 95.636 199.655, 91.209 " />
            <path fill="none" stroke-width="3.0" stroke-linecap="butt" stroke-opacity="1.0" stroke="rgb(0, 0, 0)" stroke-linejoin="round" d=" M 181.735, 72.111 181.749, 70.829 180.922, 66.348 180.084, 63.302 " />
            <path fill="none" stroke-width="3.0" stroke-linecap="butt" stroke-opacity="1.0" stroke="rgb(0, 0, 0)" stroke-linejoin="round" d=" M 145.411, 41.752 143.383, 42.279 142.449, 42.624 " />
            <path fill="none" stroke-width="3.0" stroke-linecap="butt" stroke-opacity="1.0" stroke="rgb(0, 0, 0)" stroke-linejoin="round" d=" M 185.780, 55.089 187.117, 51.929 187.221, 47.338 183.848, 44.060 179.462, 42.139 178.255, 41.613 173.777, 40.711 170.410, 40.292 170.118, 40.255 " />
            <path fill="none" stroke-width="3.0" stroke-linecap="butt" stroke-opacity="1.0" stroke="rgb(0, 0, 0)" stroke-linejoin="round" d=" M 184.470, 57.304 185.316, 56.096 185.780, 55.089 185.544, 55.488 184.470, 57.304 183.495, 58.953 180.084, 63.302 179.944, 63.480 " />
            <path fill="none" stroke-width="3.0" stroke-linecap="butt" stroke-opacity="1.0" stroke="rgb(0, 0, 0)" stroke-linejoin="round" d=" M 170.410, 40.292 168.618, 37.250 165.862, 33.312 161.447, 29.087 160.932, 28.724 156.838, 26.991 153.269, 29.185 152.068, 30.239 149.300, 34.188 148.531, 35.776 146.330, 39.897 145.411, 41.752 145.331, 41.913 144.683, 43.222 " />
            <path fill="none" stroke-width="3.0" stroke-linecap="butt" stroke-opacity="1.0" stroke="rgb(0, 0, 0)" stroke-linejoin="round" d=" M 101.856, 43.200 98.606, 44.293 94.195, 46.120 91.499, 47.922 83.263, 53.594 80.607, 55.423 73.740, 62.694 71.346, 65.228 65.930, 73.635 64.700, 75.544 62.011, 80.636 58.328, 89.933 56.874, 93.603 56.314, 96.083 55.972, 97.595 " />
            <path fill="none" stroke-width="3.0" stroke-linecap="butt" stroke-opacity="1.0" stroke="rgb(0, 0, 0)" stroke-linejoin="round" d=" M 56.314, 96.083 54.627, 99.023 53.266, 108.930 52.746, 112.714 52.005, 118.104 52.184, 118.553 53.319, 121.400 53.415, 121.640 54.152, 123.489 54.512, 124.393 55.093, 125.851 57.158, 127.025 58.503, 127.789 65.952, 132.022 75.770, 133.918 84.287, 135.563 94.287, 135.602 101.434, 135.630 108.303, 135.657 118.211, 134.307 128.120, 132.956 134.741, 132.054 144.386, 129.414 154.032, 126.774 159.602, 125.250 164.913, 122.854 167.390, 121.737 173.527, 118.969 175.238, 118.198 179.290, 116.370 187.174, 110.219 191.549, 106.805 191.812, 106.241 194.632, 100.191 194.951, 99.508 195.576, 98.166 195.740, 97.815 195.655, 97.618 193.061, 91.602 192.957, 91.360 192.500, 90.300 191.662, 88.721 191.235, 87.915 190.243, 86.047 185.557, 77.212 185.427, 76.967 183.762, 75.811 181.735, 72.111 181.717, 72.078 180.392, 69.659 173.829, 62.115 171.650, 59.610 163.741, 53.489 161.370, 51.655 152.507, 47.025 148.715, 45.045 145.019, 43.312 145.002, 43.307 144.683, 43.222 142.750, 42.704 142.449, 42.624 133.140, 40.132 129.125, 39.593 123.709, 39.606 122.762, 39.615 " />
            <path fill="none" stroke-width="3.0" stroke-linecap="butt" stroke-opacity="1.0" stroke="rgb(0, 0, 0)" stroke-linejoin="round" d=" M 156.838, 26.991 155.613, 28.062 154.285, 30.497 " />
            <path fill="none" stroke-width="3.0" stroke-linecap="butt" stroke-opacity="1.0" stroke="rgb(0, 0, 0)" stroke-linejoin="round" d=" M 170.118, 40.255 168.610, 41.420 " />
            <path fill="none" stroke-width="3.0" stroke-linecap="butt" stroke-opacity="1.0" stroke="rgb(0, 0, 0)" stroke-linejoin="round" d=" M 187.221, 47.338 185.843, 48.335 183.167, 49.944 " />
            <path fill="none" stroke-width="3.0" stroke-linecap="butt" stroke-opacity="1.0" stroke="rgb(0, 0, 0)" stroke-linejoin="round" d=" M 178.449, 64.535 179.944, 63.480 " />
            <path fill="none" stroke-width="3.0" stroke-linecap="butt" stroke-opacity="1.0" stroke="rgb(0, 0, 0)" stroke-linejoin="round" d=" M 130.164, 108.360 120.238, 109.578 110.313, 110.796 105.795, 111.351 95.796, 111.512 85.798, 111.673 83.575, 111.709 77.526, 110.852 75.294, 110.535 75.074, 110.504 75.038, 110.499 72.914, 110.198 66.773, 109.328 " />
            <path fill="none" stroke-width="3.0" stroke-linecap="butt" stroke-opacity="1.0" stroke="rgb(0, 0, 0)" stroke-linejoin="round" d=" M 123.910, 41.223 120.540, 43.083 114.028, 44.781 106.983, 45.620 102.262, 45.270 101.639, 43.907 " />
            <path fill="none" stroke-width="3.0" stroke-linecap="butt" stroke-opacity="1.0" stroke="rgb(0, 0, 0)" stroke-linejoin="round" d=" M 123.910, 41.223 122.762, 39.615 122.343, 39.029 121.498, 37.900 118.479, 35.381 115.383, 35.240 111.472, 35.289 106.844, 36.825 104.545, 37.969 102.392, 41.460 101.856, 43.200 101.639, 43.907 " />
            <path fill="none" stroke-width="3.0" stroke-linecap="butt" stroke-opacity="1.0" stroke="rgb(0, 0, 0)" stroke-linejoin="round" d=" M 38.437, 141.892 40.976, 151.564 41.377, 153.090 49.427, 159.022 54.488, 162.751 59.746, 164.176 69.398, 166.793 76.654, 168.760 86.649, 169.088 96.644, 169.416 106.647, 169.745 116.564, 168.457 126.481, 167.170 136.398, 165.882 141.233, 165.255 150.828, 162.440 160.424, 159.626 163.516, 158.719 173.111, 155.904 173.509, 155.788 182.420, 151.250 191.331, 146.713 198.380, 143.124 200.518, 141.126 207.822, 134.297 207.919, 134.207 212.980, 129.475 215.944, 119.925 216.153, 119.250 216.780, 117.231 216.926, 116.760 217.154, 113.246 216.279, 111.567 " />
            <path fill="none" stroke-width="3.0" stroke-linecap="butt" stroke-opacity="1.0" stroke="rgb(0, 0, 0)" stroke-linejoin="round" d=" M 52.746, 112.714 49.244, 115.663 45.230, 122.010 42.930, 126.568 38.466, 135.516 37.214, 138.025 38.437, 141.892 40.791, 149.337 " />
            <path fill="none" stroke-width="3.0" stroke-linecap="butt" stroke-opacity="1.0" stroke="rgb(0, 0, 0)" stroke-linejoin="round" d=" M 217.154, 113.246 215.068, 119.867 213.232, 125.700 205.934, 132.421 200.315, 137.596 198.683, 139.099 " />
        </g>
    </g>
</svg>
