<?xml version='1.0' encoding='ascii'?>
<svg xmlns="http://www.w3.org/2000/svg" version="1.1" width="250" height="250">
    <g id="ViewLayer_LineSet" xmlns:inkscape="http://www.inkscape.org/namespaces/inkscape" inkscape:groupmode="lineset" inkscape:label="ViewLayer_LineSet">
        <g xmlns:inkscape="http://www.inkscape.org/namespaces/inkscape" inkscape:groupmode="layer" id="strokes" inkscape:label="strokes">
            <path fill="none" stroke-width="3.0" stroke-linecap="butt" stroke-opacity="1.0" stroke="rgb(0, 0, 0)" stroke-linejoin="round" d=" M 59.453, 98.882 57.980, 100.732 53.746, 107.843 49.937, 116.514 49.343, 118.439 48.409, 121.464 48.305, 121.800 47.909, 123.081 47.270, 125.151 46.017, 131.303 45.473, 137.678 45.247, 142.178 45.476, 147.829 45.956, 152.331 46.817, 156.968 47.663, 160.922 48.949, 165.228 50.614, 169.695 51.830, 172.435 52.582, 174.130 54.771, 178.343 57.086, 182.146 59.427, 185.366 62.359, 189.259 65.344, 192.538 69.456, 196.623 72.902, 199.328 74.022, 200.188 78.079, 203.303 84.044, 206.867 89.780, 209.464 93.589, 211.122 98.498, 212.534 102.876, 213.575 " />
            <path fill="none" stroke-width="3.0" stroke-linecap="butt" stroke-opacity="1.0" stroke="rgb(0, 0, 0)" stroke-linejoin="round" d=" M 189.731, 125.553 188.839, 121.382 188.645, 120.880 " />
            <path fill="none" stroke-width="3.0" stroke-linecap="butt" stroke-opacity="1.0" stroke="rgb(0, 0, 0)" stroke-linejoin="round" d=" M 170.464, 193.591 174.424, 189.493 176.422, 186.616 182.097, 178.284 " />
            <path fill="none" stroke-width="3.0" stroke-linecap="butt" stroke-opacity="1.0" stroke="rgb(0, 0, 0)" stroke-linejoin="round" d=" M 77.110, 150.563 77.664, 151.964 78.851, 153.765 79.028, 154.033 80.922, 155.693 83.117, 156.923 85.159, 157.368 87.254, 157.298 89.628, 156.472 91.677, 155.145 93.226, 153.299 93.941, 151.983 " />
            <path fill="none" stroke-width="3.0" stroke-linecap="butt" stroke-opacity="1.0" stroke="rgb(0, 0, 0)" stroke-linejoin="round" d=" M 117.432, 101.384 117.677, 102.205 118.024, 103.372 118.476, 106.761 118.517, 110.586 118.533, 110.654 117.414, 119.071 117.410, 119.084 117.377, 119.198 116.188, 123.284 114.683, 127.574 112.928, 131.571 110.987, 135.082 108.927, 137.935 108.414, 138.434 108.027, 138.809 106.818, 139.986 104.733, 141.132 102.743, 141.316 101.454, 140.754 100.924, 140.523 99.346, 138.789 98.483, 137.018 98.231, 136.500 98.080, 136.190 97.187, 132.851 96.714, 128.929 96.692, 124.614 97.128, 120.113 97.984, 115.702 98.120, 115.234 98.164, 115.080 99.187, 111.539 100.708, 107.636 102.487, 104.136 104.455, 101.160 105.411, 100.083 " />
            <path fill="none" stroke-width="3.0" stroke-linecap="butt" stroke-opacity="1.0" stroke="rgb(0, 0, 0)" stroke-linejoin="round" d=" M 77.311, 119.029 76.338, 123.302 76.333, 123.323 76.331, 123.329 76.327, 123.344 75.249, 127.432 74.235, 130.645 74.104, 131.061 74.074, 131.156 72.812, 134.309 71.473, 136.731 70.069, 138.303 68.911, 138.824 68.630, 138.950 67.219, 138.944 65.844, 137.407 64.636, 135.304 63.660, 132.445 62.998, 128.975 62.909, 127.748 62.875, 127.273 62.715, 125.067 62.853, 120.910 63.180, 118.482 63.412, 116.762 64.278, 112.764 65.396, 108.920 66.720, 105.369 67.292, 104.155 67.533, 103.642 68.198, 102.231 69.771, 99.613 70.632, 98.536 " />
            <path fill="none" stroke-width="3.0" stroke-linecap="butt" stroke-opacity="1.0" stroke="rgb(0, 0, 0)" stroke-linejoin="round" d=" M 67.219, 138.944 70.424, 140.335 " />
            <path fill="none" stroke-width="3.0" stroke-linecap="butt" stroke-opacity="1.0" stroke="rgb(0, 0, 0)" stroke-linejoin="round" d=" M 77.866, 98.313 77.875, 98.327 78.527, 100.632 78.887, 103.545 78.996, 107.032 78.829, 109.063 78.805, 109.355 78.687, 110.774 " />
            <path fill="none" stroke-width="3.0" stroke-linecap="butt" stroke-opacity="1.0" stroke="rgb(0, 0, 0)" stroke-linejoin="round" d=" M 80.418, 120.984 77.311, 119.029 78.135, 114.825 78.687, 110.774 81.755, 112.822 " />
            <path fill="none" stroke-width="3.0" stroke-linecap="butt" stroke-opacity="1.0" stroke="rgb(0, 0, 0)" stroke-linejoin="round" d=" M 108.064, 200.895 105.402, 204.910 103.760, 208.893 102.921, 212.773 102.876, 213.575 102.721, 216.367 103.325, 220.157 104.923, 223.986 107.503, 226.859 110.559, 228.801 111.234, 229.230 116.754, 231.278 123.420, 232.996 129.141, 234.028 135.500, 234.809 143.731, 235.367 149.919, 235.496 155.866, 234.865 159.035, 233.999 164.464, 232.283 169.082, 230.395 172.776, 228.771 176.647, 224.839 178.544, 221.277 179.333, 219.741 180.468, 215.923 180.631, 211.534 179.668, 206.847 177.016, 201.162 173.324, 196.068 170.464, 193.591 " />
            <path fill="none" stroke-width="3.0" stroke-linecap="butt" stroke-opacity="1.0" stroke="rgb(0, 0, 0)" stroke-linejoin="round" d=" M 74.022, 200.188 73.696, 201.184 72.438, 205.335 71.211, 208.977 70.690, 212.436 70.363, 215.083 70.438, 218.210 71.213, 221.409 72.843, 224.422 75.091, 226.832 77.885, 228.976 82.319, 230.973 86.450, 232.037 90.918, 232.371 96.794, 232.197 99.821, 231.749 105.503, 230.414 110.559, 228.801 " />
            <path fill="none" stroke-width="3.0" stroke-linecap="butt" stroke-opacity="1.0" stroke="rgb(0, 0, 0)" stroke-linejoin="round" d=" M 181.531, 178.005 182.097, 178.284 187.446, 180.919 192.065, 182.311 196.345, 183.028 200.573, 183.041 204.115, 182.348 207.660, 181.119 210.218, 179.781 212.950, 177.802 215.448, 175.342 217.522, 172.273 218.946, 169.204 219.984, 165.858 220.407, 162.559 220.293, 159.062 219.313, 155.057 218.774, 153.638 217.043, 149.570 214.521, 145.339 210.341, 140.208 207.053, 136.880 206.640, 136.462 206.004, 135.818 201.720, 131.999 197.177, 128.885 192.225, 126.442 189.731, 125.553 " />
            <path fill="none" stroke-width="3.0" stroke-linecap="butt" stroke-opacity="1.0" stroke="rgb(0, 0, 0)" stroke-linejoin="round" d=" M 47.909, 123.081 46.109, 124.014 42.052, 126.922 38.245, 130.466 34.406, 134.532 30.721, 139.268 28.521, 143.160 27.835, 144.483 26.394, 148.082 25.606, 151.754 25.591, 154.951 26.053, 157.960 26.196, 158.453 26.963, 160.926 28.310, 163.700 30.244, 166.466 32.554, 168.673 35.063, 170.438 37.395, 171.615 37.798, 171.766 40.723, 172.756 43.924, 173.324 47.732, 173.240 51.580, 172.515 51.830, 172.435 " />
            <path fill="none" stroke-width="3.0" stroke-linecap="butt" stroke-opacity="1.0" stroke="rgb(0, 0, 0)" stroke-linejoin="round" d=" M 116.265, 71.072 119.323, 68.727 119.514, 68.581 119.673, 68.258 119.709, 68.183 121.366, 64.808 122.352, 62.219 122.332, 58.537 121.316, 55.866 119.411, 52.158 117.669, 50.886 " />
            <path fill="none" stroke-width="3.0" stroke-linecap="butt" stroke-opacity="1.0" stroke="rgb(0, 0, 0)" stroke-linejoin="round" d=" M 56.093, 54.380 55.999, 54.646 54.478, 58.942 52.839, 65.029 52.270, 72.878 52.560, 74.145 54.211, 79.429 56.701, 80.677 59.983, 81.438 61.585, 81.809 61.846, 81.870 65.730, 82.322 71.740, 81.264 77.305, 79.842 82.753, 77.669 82.822, 77.642 " />
            <path fill="none" stroke-width="3.0" stroke-linecap="butt" stroke-opacity="1.0" stroke="rgb(0, 0, 0)" stroke-linejoin="round" d=" M 33.808, 111.023 31.605, 106.483 32.786, 105.331 37.486, 100.745 41.847, 99.629 49.781, 97.599 53.180, 96.730 56.830, 96.600 59.061, 96.520 61.397, 96.437 71.391, 96.081 73.623, 96.002 75.940, 95.920 75.950, 95.919 79.966, 95.776 89.936, 96.553 99.905, 97.330 107.669, 97.935 113.686, 98.404 116.254, 98.852 116.310, 98.862 126.161, 100.582 136.012, 102.302 145.863, 104.022 147.680, 104.339 157.342, 106.919 167.003, 109.500 176.664, 112.081 177.096, 112.196 178.196, 112.652 178.828, 112.913 183.077, 114.672 " />
            <path fill="none" stroke-width="3.0" stroke-linecap="butt" stroke-opacity="1.0" stroke="rgb(0, 0, 0)" stroke-linejoin="round" d=" M 206.640, 136.462 206.676, 136.440 206.308, 130.067 200.075, 125.298 197.922, 123.651 " />
            <path fill="none" stroke-width="3.0" stroke-linecap="butt" stroke-opacity="1.0" stroke="rgb(0, 0, 0)" stroke-linejoin="round" d=" M 39.005, 107.125 40.874, 105.482 44.974, 101.876 54.738, 99.714 58.343, 98.916 " />
            <path fill="none" stroke-width="3.0" stroke-linecap="butt" stroke-opacity="1.0" stroke="rgb(0, 0, 0)" stroke-linejoin="round" d=" M 38.861, 115.920 47.138, 121.323 48.305, 121.800 " />
            <path fill="none" stroke-width="3.0" stroke-linecap="butt" stroke-opacity="1.0" stroke="rgb(0, 0, 0)" stroke-linejoin="round" d=" M 55.977, 98.989 46.217, 101.165 45.577, 101.308 41.089, 102.309 39.814, 102.593 33.806, 108.119 34.551, 109.700 " />
            <path fill="none" stroke-width="3.0" stroke-linecap="butt" stroke-opacity="1.0" stroke="rgb(0, 0, 0)" stroke-linejoin="round" d=" M 55.977, 98.989 58.343, 98.916 59.453, 98.882 59.504, 98.880 61.352, 98.823 70.632, 98.536 76.204, 98.364 77.866, 98.313 79.182, 98.272 81.512, 98.200 91.481, 98.986 101.450, 99.771 105.411, 100.083 110.235, 100.463 113.440, 100.715 117.432, 101.384 117.986, 101.476 127.849, 103.127 134.872, 104.303 144.735, 105.954 146.750, 106.291 156.419, 108.844 166.088, 111.397 175.705, 113.936 179.325, 115.415 184.385, 117.482 " />
            <path fill="none" stroke-width="3.0" stroke-linecap="butt" stroke-opacity="1.0" stroke="rgb(0, 0, 0)" stroke-linejoin="round" d=" M 41.014, 93.092 36.211, 97.010 33.043, 100.226 31.231, 103.078 30.060, 106.118 30.053, 108.587 30.517, 110.764 34.845, 114.912 37.525, 116.387 38.861, 115.920 38.884, 115.912 40.786, 115.248 42.046, 114.389 43.643, 113.299 45.229, 108.218 " />
            <path fill="none" stroke-width="3.0" stroke-linecap="butt" stroke-opacity="1.0" stroke="rgb(0, 0, 0)" stroke-linejoin="round" d=" M 33.248, 112.355 30.517, 110.764 " />
            <path fill="none" stroke-width="3.0" stroke-linecap="butt" stroke-opacity="1.0" stroke="rgb(0, 0, 0)" stroke-linejoin="round" d=" M 43.643, 113.299 39.913, 110.931 " />
            <path fill="none" stroke-width="3.0" stroke-linecap="butt" stroke-opacity="1.0" stroke="rgb(0, 0, 0)" stroke-linejoin="round" d=" M 40.795, 108.593 39.913, 110.931 36.492, 111.894 " />
            <path fill="none" stroke-width="3.0" stroke-linecap="butt" stroke-opacity="1.0" stroke="rgb(0, 0, 0)" stroke-linejoin="round" d=" M 57.454, 83.509 50.501, 86.824 42.158, 92.336 41.014, 93.092 47.273, 89.028 48.497, 88.365 57.288, 83.598 57.454, 83.509 59.071, 82.843 61.585, 81.809 " />
            <path fill="none" stroke-width="3.0" stroke-linecap="butt" stroke-opacity="1.0" stroke="rgb(0, 0, 0)" stroke-linejoin="round" d=" M 47.273, 89.028 49.636, 88.066 49.784, 88.006 53.219, 86.607 55.743, 85.579 57.671, 85.003 67.252, 82.140 67.368, 82.105 77.318, 81.102 78.457, 80.987 80.460, 80.785 81.798, 80.750 87.693, 80.599 88.899, 80.652 89.553, 80.681 " />
            <path fill="none" stroke-width="3.0" stroke-linecap="butt" stroke-opacity="1.0" stroke="rgb(0, 0, 0)" stroke-linejoin="round" d=" M 179.325, 115.415 180.003, 117.073 182.437, 118.224 183.020, 118.500 183.697, 118.787 188.645, 120.880 196.865, 124.359 197.005, 124.265 197.922, 123.651 198.718, 123.117 199.069, 122.883 199.321, 121.784 199.904, 119.250 197.001, 114.690 192.330, 110.168 190.506, 108.403 183.864, 103.615 182.949, 102.955 178.656, 99.767 177.675, 99.038 176.733, 98.338 171.730, 95.383 168.199, 93.298 161.103, 90.329 158.447, 89.218 157.020, 88.621 147.475, 85.638 144.312, 84.650 134.699, 81.896 131.521, 80.986 121.663, 79.305 118.665, 78.793 109.255, 77.258 107.476, 76.967 " />
            <path fill="none" stroke-width="3.0" stroke-linecap="butt" stroke-opacity="1.0" stroke="rgb(0, 0, 0)" stroke-linejoin="round" d=" M 102.795, 81.715 107.723, 82.226 111.442, 82.611 112.234, 82.806 121.946, 85.188 128.089, 86.694 137.693, 89.481 142.014, 90.735 142.488, 90.872 151.815, 94.479 155.324, 95.836 164.482, 99.851 166.472, 100.723 174.840, 104.791 181.291, 108.400 184.841, 111.061 186.363, 112.202 187.425, 113.880 187.775, 114.433 188.250, 115.183 188.458, 116.638 188.616, 117.738 187.662, 118.344 187.205, 118.635 186.081, 119.349 " />
            <path fill="none" stroke-width="3.0" stroke-linecap="butt" stroke-opacity="1.0" stroke="rgb(0, 0, 0)" stroke-linejoin="round" d=" M 99.114, 78.387 100.305, 76.682 102.909, 72.957 103.663, 70.369 103.977, 69.294 104.325, 68.100 104.561, 67.291 104.997, 65.797 105.247, 64.937 105.328, 64.661 105.864, 58.240 105.850, 56.076 105.844, 55.098 105.835, 53.678 105.833, 53.454 " />
            <path fill="none" stroke-width="3.0" stroke-linecap="butt" stroke-opacity="1.0" stroke="rgb(0, 0, 0)" stroke-linejoin="round" d=" M 76.872, 73.105 80.421, 75.439 83.048, 76.719 83.222, 76.804 84.309, 77.334 85.573, 77.950 93.091, 79.527 99.114, 78.387 99.142, 78.421 100.318, 79.832 101.981, 81.132 102.179, 81.194 103.434, 81.589 " />
            <path fill="none" stroke-width="3.0" stroke-linecap="butt" stroke-opacity="1.0" stroke="rgb(0, 0, 0)" stroke-linejoin="round" d=" M 54.211, 79.429 53.890, 78.060 " />
            <path fill="none" stroke-width="3.0" stroke-linecap="butt" stroke-opacity="1.0" stroke="rgb(0, 0, 0)" stroke-linejoin="round" d=" M 79.894, 75.940 77.629, 74.413 76.872, 73.105 72.527, 75.405 66.650, 77.820 61.737, 78.734 59.025, 79.238 53.890, 78.060 52.270, 72.878 " />
            <path fill="none" stroke-width="3.0" stroke-linecap="butt" stroke-opacity="1.0" stroke="rgb(0, 0, 0)" stroke-linejoin="round" d=" M 110.667, 60.830 110.900, 60.504 110.963, 60.416 111.198, 60.085 114.181, 55.896 114.496, 55.444 117.669, 50.886 118.858, 49.177 122.527, 43.524 122.852, 42.330 124.069, 37.864 124.120, 34.704 122.937, 32.455 119.457, 28.183 114.183, 25.730 111.249, 24.613 105.511, 23.491 103.085, 23.225 101.127, 23.011 " />
            <path fill="none" stroke-width="3.0" stroke-linecap="butt" stroke-opacity="1.0" stroke="rgb(0, 0, 0)" stroke-linejoin="round" d=" M 55.999, 54.646 53.316, 50.820 50.323, 45.743 48.901, 40.324 49.372, 34.805 53.725, 30.587 60.763, 27.045 66.455, 25.429 70.768, 24.540 73.359, 20.538 77.249, 15.345 83.328, 9.553 88.736, 6.859 93.349, 8.896 97.619, 14.126 99.838, 19.095 101.127, 23.011 " />
            <path fill="none" stroke-width="3.0" stroke-linecap="butt" stroke-opacity="1.0" stroke="rgb(0, 0, 0)" stroke-linejoin="round" d=" M 108.965, 56.537 107.700, 55.053 107.172, 54.433 105.906, 53.507 105.833, 53.454 105.983, 53.324 106.803, 52.613 110.360, 49.532 110.987, 48.884 115.813, 43.896 116.574, 42.707 119.650, 37.903 121.326, 31.908 117.922, 27.719 111.249, 24.613 " />
            <path fill="none" stroke-width="3.0" stroke-linecap="butt" stroke-opacity="1.0" stroke="rgb(0, 0, 0)" stroke-linejoin="round" d=" M 103.085, 23.225 102.166, 20.872 99.684, 16.035 98.260, 13.747 94.379, 9.002 89.676, 6.928 88.736, 6.859 " />
            <path fill="none" stroke-width="3.0" stroke-linecap="butt" stroke-opacity="1.0" stroke="rgb(0, 0, 0)" stroke-linejoin="round" d=" M 53.316, 50.820 56.093, 54.380 " />
            <path fill="none" stroke-width="3.0" stroke-linecap="butt" stroke-opacity="1.0" stroke="rgb(0, 0, 0)" stroke-linejoin="round" d=" M 191.355, 105.309 188.456, 95.738 186.347, 88.771 185.342, 87.700 184.134, 83.354 179.290, 74.606 178.026, 72.325 171.499, 64.748 170.384, 63.453 164.705, 57.966 156.751, 51.905 156.394, 51.632 149.175, 47.787 142.914, 45.614 138.138, 44.059 137.095, 43.719 130.648, 42.569 126.589, 42.393 124.294, 42.294 122.852, 42.330 " />
            <path fill="none" stroke-width="3.0" stroke-linecap="butt" stroke-opacity="1.0" stroke="rgb(0, 0, 0)" stroke-linejoin="round" d=" M 79.894, 75.940 81.694, 76.986 82.771, 77.612 82.822, 77.642 83.336, 77.941 84.566, 78.656 84.768, 78.774 87.716, 79.949 89.402, 80.621 89.553, 80.681 90.097, 80.898 90.790, 81.174 93.695, 81.802 97.844, 82.699 101.109, 82.050 102.795, 81.715 103.434, 81.589 103.638, 81.297 104.375, 80.243 106.686, 76.936 107.188, 76.218 107.375, 75.950 108.688, 72.044 108.818, 71.657 109.229, 69.499 109.486, 68.153 109.594, 67.587 110.236, 64.219 110.667, 60.830 110.747, 60.203 110.773, 59.999 110.850, 59.397 110.886, 59.114 " />
            <path fill="none" stroke-width="3.0" stroke-linecap="butt" stroke-opacity="1.0" stroke="rgb(0, 0, 0)" stroke-linejoin="round" d=" M 186.686, 102.327 183.062, 99.295 174.849, 95.587 166.789, 91.949 161.103, 90.329 " />
            <path fill="none" stroke-width="3.0" stroke-linecap="butt" stroke-opacity="1.0" stroke="rgb(0, 0, 0)" stroke-linejoin="round" d=" M 121.262, 68.274 119.709, 68.183 " />
            <path fill="none" stroke-width="3.0" stroke-linecap="butt" stroke-opacity="1.0" stroke="rgb(0, 0, 0)" stroke-linejoin="round" d=" M 121.262, 68.274 130.445, 69.718 132.386, 70.023 142.264, 71.576 145.027, 72.011 " />
            <path fill="none" stroke-width="3.0" stroke-linecap="butt" stroke-opacity="1.0" stroke="rgb(0, 0, 0)" stroke-linejoin="round" d=" M 138.138, 44.059 137.558, 43.278 134.222, 41.889 130.165, 41.438 126.998, 42.103 126.589, 42.393 " />
            <path fill="none" stroke-width="3.0" stroke-linecap="butt" stroke-opacity="1.0" stroke="rgb(0, 0, 0)" stroke-linejoin="round" d=" M 207.053, 136.880 208.926, 135.790 209.792, 132.083 209.633, 125.218 205.805, 119.721 200.029, 112.616 192.381, 106.173 191.355, 105.309 190.480, 104.572 186.686, 102.327 185.051, 101.359 176.396, 97.476 171.730, 95.383 " />
            <path fill="none" stroke-width="3.0" stroke-linecap="butt" stroke-opacity="1.0" stroke="rgb(0, 0, 0)" stroke-linejoin="round" d=" M 199.321, 121.784 207.195, 127.948 208.704, 129.129 208.926, 135.790 " />
            <path fill="none" stroke-width="3.0" stroke-linecap="butt" stroke-opacity="1.0" stroke="rgb(0, 0, 0)" stroke-linejoin="round" d=" M 44.383, 92.086 43.567, 92.702 38.105, 96.770 32.042, 102.827 31.605, 106.483 " />
            <path fill="none" stroke-width="3.0" stroke-linecap="butt" stroke-opacity="1.0" stroke="rgb(0, 0, 0)" stroke-linejoin="round" d=" M 209.633, 125.218 201.873, 118.911 199.366, 116.874 " />
            <path fill="none" stroke-width="3.0" stroke-linecap="butt" stroke-opacity="1.0" stroke="rgb(0, 0, 0)" stroke-linejoin="round" d=" M 59.983, 81.438 59.071, 82.843 " />
            <path fill="none" stroke-width="3.0" stroke-linecap="butt" stroke-opacity="1.0" stroke="rgb(0, 0, 0)" stroke-linejoin="round" d=" M 107.257, 76.959 107.502, 76.132 108.718, 72.043 " />
            <path fill="none" stroke-width="3.0" stroke-linecap="butt" stroke-opacity="1.0" stroke="rgb(0, 0, 0)" stroke-linejoin="round" d=" M 108.688, 72.044 108.718, 72.043 110.885, 71.975 " />
            <path fill="none" stroke-width="3.0" stroke-linecap="butt" stroke-opacity="1.0" stroke="rgb(0, 0, 0)" stroke-linejoin="round" d=" M 197.005, 124.265 201.594, 127.740 " />
        </g>
    </g>
</svg>
