<?xml version='1.0' encoding='ascii'?>
<svg xmlns="http://www.w3.org/2000/svg" version="1.1" width="250" height="250">
    <g id="ViewLayer_LineSet" xmlns:inkscape="http://www.inkscape.org/namespaces/inkscape" inkscape:groupmode="lineset" inkscape:label="ViewLayer_LineSet">
        <g xmlns:inkscape="http://www.inkscape.org/namespaces/inkscape" inkscape:groupmode="layer" id="strokes" inkscape:label="strokes">
            <path fill="none" stroke-width="3.0" stroke-linecap="butt" stroke-opacity="1.0" stroke="rgb(0, 0, 0)" stroke-linejoin="round" d=" M 172.194, 191.769 174.920, 188.950 180.557, 180.690 181.254, 179.668 182.227, 177.973 " />
            <path fill="none" stroke-width="3.0" stroke-linecap="butt" stroke-opacity="1.0" stroke="rgb(0, 0, 0)" stroke-linejoin="round" d=" M 59.397, 98.842 59.140, 99.165 57.991, 100.606 53.700, 107.754 49.851, 116.473 49.121, 118.878 48.205, 121.897 48.110, 122.208 47.928, 122.808 47.215, 125.158 46.073, 131.343 45.621, 136.724 45.263, 142.275 45.640, 147.952 46.021, 152.475 47.063, 157.663 47.853, 161.099 49.118, 165.420 50.789, 169.899 51.828, 172.204 52.793, 174.344 55.043, 178.561 57.444, 182.366 59.512, 185.262 62.714, 189.474 65.855, 192.743 69.888, 196.814 72.271, 198.659 74.318, 200.245 78.667, 203.449 84.601, 206.977 90.277, 209.535 94.242, 211.164 99.285, 212.536 105.578, 214.040 105.952, 214.106 " />
            <path fill="none" stroke-width="3.0" stroke-linecap="butt" stroke-opacity="1.0" stroke="rgb(0, 0, 0)" stroke-linejoin="round" d=" M 189.890, 125.260 188.984, 121.028 188.515, 119.819 " />
            <path fill="none" stroke-width="3.0" stroke-linecap="butt" stroke-opacity="1.0" stroke="rgb(0, 0, 0)" stroke-linejoin="round" d=" M 78.982, 150.551 79.551, 151.953 79.647, 152.094 80.944, 154.022 82.877, 155.677 85.117, 156.900 87.197, 157.336 89.327, 157.256 91.738, 156.417 93.819, 155.077 95.390, 153.220 96.113, 151.899 " />
            <path fill="none" stroke-width="3.0" stroke-linecap="butt" stroke-opacity="1.0" stroke="rgb(0, 0, 0)" stroke-linejoin="round" d=" M 119.434, 101.071 119.909, 102.591 120.089, 103.168 120.587, 106.557 120.677, 110.383 120.692, 110.451 119.672, 118.872 119.496, 119.502 119.462, 119.627 118.497, 123.089 117.030, 127.385 115.303, 131.390 113.377, 134.909 111.323, 137.771 110.197, 138.870 109.818, 139.240 109.212, 139.832 107.117, 140.987 105.113, 141.178 103.488, 140.483 103.274, 140.392 101.674, 138.660 101.298, 137.903 101.056, 137.417 100.383, 136.062 99.461, 132.720 98.955, 128.794 98.894, 124.472 99.287, 119.963 100.025, 115.937 100.057, 115.764 100.097, 115.543 101.256, 111.371 102.737, 107.461 104.481, 103.953 106.422, 100.971 107.410, 99.844 " />
            <path fill="none" stroke-width="3.0" stroke-linecap="butt" stroke-opacity="1.0" stroke="rgb(0, 0, 0)" stroke-linejoin="round" d=" M 79.139, 118.924 78.197, 123.232 77.826, 124.675 77.136, 127.357 75.967, 131.096 75.781, 131.560 75.625, 131.952 74.700, 134.262 73.342, 136.697 71.909, 138.279 70.527, 138.892 70.432, 138.934 68.978, 138.933 67.550, 137.396 66.287, 135.290 65.255, 132.423 64.535, 128.942 64.510, 128.650 64.470, 128.191 64.194, 125.020 64.276, 120.848 64.555, 118.555 64.783, 116.682 65.605, 112.667 66.689, 108.808 67.989, 105.241 68.092, 105.020 68.351, 104.462 69.454, 102.090 71.025, 99.462 71.878, 98.398 " />
            <path fill="none" stroke-width="3.0" stroke-linecap="butt" stroke-opacity="1.0" stroke="rgb(0, 0, 0)" stroke-linejoin="round" d=" M 68.978, 138.933 72.046, 140.319 " />
            <path fill="none" stroke-width="3.0" stroke-linecap="butt" stroke-opacity="1.0" stroke="rgb(0, 0, 0)" stroke-linejoin="round" d=" M 79.348, 98.165 80.061, 100.473 80.486, 103.393 80.659, 106.890 80.457, 109.953 80.436, 110.274 80.412, 110.642 " />
            <path fill="none" stroke-width="3.0" stroke-linecap="butt" stroke-opacity="1.0" stroke="rgb(0, 0, 0)" stroke-linejoin="round" d=" M 82.106, 120.878 79.139, 118.924 79.915, 114.706 80.412, 110.642 83.341, 112.692 " />
            <path fill="none" stroke-width="3.0" stroke-linecap="butt" stroke-opacity="1.0" stroke="rgb(0, 0, 0)" stroke-linejoin="round" d=" M 180.977, 216.222 181.858, 213.050 181.949, 208.749 180.923, 204.173 178.218, 198.661 174.768, 194.004 174.455, 193.676 172.194, 191.769 " />
            <path fill="none" stroke-width="3.0" stroke-linecap="butt" stroke-opacity="1.0" stroke="rgb(0, 0, 0)" stroke-linejoin="round" d=" M 108.197, 205.546 106.687, 209.562 105.969, 213.448 105.952, 214.106 105.877, 217.034 106.588, 220.790 108.264, 224.526 110.914, 227.336 111.847, 227.905 114.711, 229.652 120.281, 231.630 126.972, 233.256 132.681, 234.187 138.995, 234.833 147.136, 235.198 153.237, 235.177 159.082, 234.414 163.182, 232.636 166.055, 231.395 171.512, 228.703 174.776, 226.349 178.548, 222.468 180.359, 218.942 180.977, 216.222 181.200, 215.242 " />
            <path fill="none" stroke-width="3.0" stroke-linecap="butt" stroke-opacity="1.0" stroke="rgb(0, 0, 0)" stroke-linejoin="round" d=" M 72.271, 198.659 71.163, 202.128 70.059, 206.103 68.761, 209.808 68.180, 213.333 68.036, 215.766 68.059, 218.965 68.788, 222.246 70.602, 225.092 72.781, 227.642 75.721, 229.685 80.315, 231.598 84.561, 232.615 89.122, 232.928 95.084, 232.762 98.002, 232.490 103.744, 231.174 106.178, 230.496 109.703, 229.365 111.847, 227.905 " />
            <path fill="none" stroke-width="3.0" stroke-linecap="butt" stroke-opacity="1.0" stroke="rgb(0, 0, 0)" stroke-linejoin="round" d=" M 181.668, 177.695 182.227, 177.973 187.603, 180.644 192.247, 182.067 196.557, 182.813 200.821, 182.855 204.397, 182.186 207.650, 181.060 207.881, 180.973 210.461, 179.650 213.208, 177.686 215.721, 175.239 217.808, 172.177 219.379, 168.944 220.370, 165.773 220.780, 162.469 220.646, 158.964 219.640, 154.946 219.258, 153.534 217.514, 149.452 214.976, 145.204 210.770, 140.051 206.976, 136.216 206.436, 135.670 206.408, 135.642 202.103, 131.807 197.542, 128.678 192.573, 126.220 189.890, 125.260 " />
            <path fill="none" stroke-width="3.0" stroke-linecap="butt" stroke-opacity="1.0" stroke="rgb(0, 0, 0)" stroke-linejoin="round" d=" M 47.928, 122.808 45.935, 123.842 41.903, 126.738 38.123, 130.270 34.315, 134.320 30.661, 139.038 29.698, 140.469 27.608, 144.236 26.197, 147.825 25.439, 151.489 25.444, 154.683 25.959, 158.186 26.729, 160.661 28.065, 163.440 29.983, 166.216 32.275, 168.436 34.765, 170.217 37.071, 171.409 40.461, 172.571 43.622, 173.162 47.387, 173.104 51.197, 172.405 51.828, 172.204 " />
            <path fill="none" stroke-width="3.0" stroke-linecap="butt" stroke-opacity="1.0" stroke="rgb(0, 0, 0)" stroke-linejoin="round" d=" M 117.817, 70.856 120.816, 68.613 121.145, 68.367 121.309, 68.045 121.346, 67.973 123.076, 64.594 123.995, 62.006 123.981, 58.324 123.041, 55.650 121.068, 51.938 119.810, 51.036 " />
            <path fill="none" stroke-width="3.0" stroke-linecap="butt" stroke-opacity="1.0" stroke="rgb(0, 0, 0)" stroke-linejoin="round" d=" M 57.974, 54.038 57.861, 54.366 56.382, 58.618 54.784, 64.731 54.303, 72.614 54.543, 73.887 56.300, 79.196 58.690, 80.451 60.110, 80.773 62.813, 81.388 63.962, 81.649 67.711, 82.104 68.693, 81.934 69.074, 81.868 71.632, 81.423 73.818, 81.043 75.996, 80.491 79.439, 79.618 81.912, 78.642 84.022, 77.809 85.185, 77.350 " />
            <path fill="none" stroke-width="3.0" stroke-linecap="butt" stroke-opacity="1.0" stroke="rgb(0, 0, 0)" stroke-linejoin="round" d=" M 33.159, 110.553 31.568, 106.419 32.650, 105.483 38.254, 100.634 41.333, 99.880 49.415, 97.900 54.811, 96.578 56.227, 96.528 58.509, 96.446 61.389, 96.344 71.382, 95.987 74.854, 95.863 77.342, 95.774 82.338, 95.596 92.309, 96.357 102.280, 97.117 109.684, 97.682 116.429, 98.197 118.167, 98.499 118.170, 98.500 128.022, 100.215 137.874, 101.931 147.726, 103.646 150.286, 104.092 159.941, 106.698 169.595, 109.303 179.165, 111.886 179.817, 112.164 184.869, 114.320 186.333, 114.944 " />
            <path fill="none" stroke-width="3.0" stroke-linecap="butt" stroke-opacity="1.0" stroke="rgb(0, 0, 0)" stroke-linejoin="round" d=" M 206.436, 135.670 206.758, 129.622 199.885, 123.959 199.081, 123.296 " />
            <path fill="none" stroke-width="3.0" stroke-linecap="butt" stroke-opacity="1.0" stroke="rgb(0, 0, 0)" stroke-linejoin="round" d=" M 38.984, 107.054 39.007, 107.036 40.364, 105.966 45.693, 101.764 55.473, 99.679 58.900, 98.948 59.397, 98.842 59.693, 98.779 " />
            <path fill="none" stroke-width="3.0" stroke-linecap="butt" stroke-opacity="1.0" stroke="rgb(0, 0, 0)" stroke-linejoin="round" d=" M 38.058, 115.938 44.461, 120.330 45.980, 121.319 48.110, 122.208 " />
            <path fill="none" stroke-width="3.0" stroke-linecap="butt" stroke-opacity="1.0" stroke="rgb(0, 0, 0)" stroke-linejoin="round" d=" M 57.569, 98.845 47.792, 100.942 45.197, 101.498 40.697, 102.463 40.573, 102.490 33.773, 108.061 34.382, 109.709 " />
            <path fill="none" stroke-width="3.0" stroke-linecap="butt" stroke-opacity="1.0" stroke="rgb(0, 0, 0)" stroke-linejoin="round" d=" M 57.569, 98.845 58.746, 98.809 59.441, 98.787 59.693, 98.779 60.697, 98.748 70.692, 98.435 71.878, 98.398 77.305, 98.229 79.348, 98.165 80.462, 98.130 80.477, 98.130 83.795, 98.026 93.765, 98.794 103.736, 99.561 107.410, 99.844 112.049, 100.201 116.073, 100.511 119.434, 101.071 119.671, 101.111 129.535, 102.754 139.399, 104.397 141.109, 104.682 149.277, 106.043 158.939, 108.619 168.602, 111.195 177.712, 113.624 180.869, 114.951 184.487, 116.473 " />
            <path fill="none" stroke-width="3.0" stroke-linecap="butt" stroke-opacity="1.0" stroke="rgb(0, 0, 0)" stroke-linejoin="round" d=" M 41.492, 92.939 36.422, 96.884 33.053, 100.122 31.078, 102.994 29.777, 106.055 29.714, 108.540 30.159, 110.729 34.114, 114.897 36.810, 116.375 38.058, 115.938 38.111, 115.919 40.098, 115.223 41.178, 114.488 42.985, 113.258 44.629, 108.148 " />
            <path fill="none" stroke-width="3.0" stroke-linecap="butt" stroke-opacity="1.0" stroke="rgb(0, 0, 0)" stroke-linejoin="round" d=" M 32.918, 112.325 30.159, 110.729 " />
            <path fill="none" stroke-width="3.0" stroke-linecap="butt" stroke-opacity="1.0" stroke="rgb(0, 0, 0)" stroke-linejoin="round" d=" M 42.985, 113.258 39.651, 110.881 " />
            <path fill="none" stroke-width="3.0" stroke-linecap="butt" stroke-opacity="1.0" stroke="rgb(0, 0, 0)" stroke-linejoin="round" d=" M 40.574, 108.473 39.651, 110.881 36.197, 111.856 " />
            <path fill="none" stroke-width="3.0" stroke-linecap="butt" stroke-opacity="1.0" stroke="rgb(0, 0, 0)" stroke-linejoin="round" d=" M 58.004, 83.305 50.770, 86.637 42.497, 92.256 41.492, 92.939 46.131, 90.048 48.055, 88.850 56.790, 83.981 58.004, 83.305 58.658, 83.044 62.813, 81.388 " />
            <path fill="none" stroke-width="3.0" stroke-linecap="butt" stroke-opacity="1.0" stroke="rgb(0, 0, 0)" stroke-linejoin="round" d=" M 48.055, 88.850 49.430, 88.307 50.142, 88.026 54.801, 86.189 56.853, 85.380 57.237, 85.268 66.838, 82.474 68.693, 81.934 " />
            <path fill="none" stroke-width="3.0" stroke-linecap="butt" stroke-opacity="1.0" stroke="rgb(0, 0, 0)" stroke-linejoin="round" d=" M 69.074, 81.868 78.257, 80.961 82.267, 80.566 83.228, 80.541 89.637, 80.380 90.692, 80.426 91.141, 80.446 92.288, 80.496 " />
            <path fill="none" stroke-width="3.0" stroke-linecap="butt" stroke-opacity="1.0" stroke="rgb(0, 0, 0)" stroke-linejoin="round" d=" M 180.869, 114.951 181.607, 116.744 183.160, 117.457 184.362, 118.008 184.689, 118.159 188.515, 119.819 197.702, 123.807 198.061, 123.963 199.081, 123.296 199.351, 123.120 200.319, 122.487 200.569, 121.442 201.183, 118.870 198.351, 114.337 192.104, 108.259 191.929, 108.089 184.477, 102.674 178.343, 98.079 176.245, 96.830 174.586, 95.843 169.914, 93.061 163.595, 90.405 158.827, 88.400 156.674, 87.727 147.130, 84.741 146.161, 84.438 136.548, 81.685 133.375, 80.777 123.517, 79.099 120.474, 78.582 110.879, 77.023 109.292, 76.765 " />
            <path fill="none" stroke-width="3.0" stroke-linecap="butt" stroke-opacity="1.0" stroke="rgb(0, 0, 0)" stroke-linejoin="round" d=" M 105.264, 81.534 109.458, 81.965 113.671, 82.398 114.718, 82.653 124.434, 85.023 130.407, 86.480 140.013, 89.261 144.810, 90.650 145.056, 90.746 154.381, 94.358 157.583, 95.598 166.736, 99.626 168.639, 100.464 176.913, 104.510 183.258, 108.097 183.823, 108.527 188.232, 111.876 188.842, 112.867 189.337, 113.670 189.904, 114.588 190.060, 114.842 190.392, 117.387 188.887, 118.324 188.120, 118.801 187.806, 118.997 " />
            <path fill="none" stroke-width="3.0" stroke-linecap="butt" stroke-opacity="1.0" stroke="rgb(0, 0, 0)" stroke-linejoin="round" d=" M 102.146, 78.161 102.816, 77.199 103.292, 76.516 105.934, 72.724 106.855, 69.472 107.068, 68.717 107.303, 67.890 107.512, 67.152 107.739, 66.348 107.963, 65.559 108.285, 64.420 108.313, 64.037 108.748, 57.993 108.709, 55.989 108.693, 55.146 108.687, 54.837 108.664, 53.643 108.655, 53.201 " />
            <path fill="none" stroke-width="3.0" stroke-linecap="butt" stroke-opacity="1.0" stroke="rgb(0, 0, 0)" stroke-linejoin="round" d=" M 79.432, 72.857 83.079, 75.199 84.573, 75.912 85.699, 76.449 85.886, 76.538 88.361, 77.719 95.589, 79.209 96.034, 79.301 102.146, 78.161 103.312, 79.608 104.840, 80.912 105.277, 81.071 106.098, 81.370 " />
            <path fill="none" stroke-width="3.0" stroke-linecap="butt" stroke-opacity="1.0" stroke="rgb(0, 0, 0)" stroke-linejoin="round" d=" M 56.300, 79.196 56.027, 77.821 " />
            <path fill="none" stroke-width="3.0" stroke-linecap="butt" stroke-opacity="1.0" stroke="rgb(0, 0, 0)" stroke-linejoin="round" d=" M 82.283, 75.703 80.145, 74.170 79.432, 72.857 75.030, 75.162 69.063, 77.583 61.293, 79.005 61.247, 78.995 56.027, 77.821 54.303, 72.614 " />
            <path fill="none" stroke-width="3.0" stroke-linecap="butt" stroke-opacity="1.0" stroke="rgb(0, 0, 0)" stroke-linejoin="round" d=" M 113.165, 60.215 116.012, 56.241 116.424, 55.664 119.810, 51.036 121.337, 48.950 121.746, 48.320 123.913, 44.985 125.005, 43.304 125.136, 42.808 125.311, 42.148 126.500, 37.648 126.719, 34.487 125.667, 32.233 122.085, 27.949 116.704, 25.476 113.786, 24.347 107.944, 23.202 105.193, 22.895 103.482, 22.705 " />
            <path fill="none" stroke-width="3.0" stroke-linecap="butt" stroke-opacity="1.0" stroke="rgb(0, 0, 0)" stroke-linejoin="round" d=" M 50.436, 39.902 50.846, 34.358 55.245, 30.134 62.395, 26.601 68.188, 25.000 72.580, 24.123 75.172, 20.117 79.073, 14.924 85.194, 9.143 90.669, 6.468 95.391, 8.531 99.801, 13.791 102.122, 18.777 103.482, 22.705 " />
            <path fill="none" stroke-width="3.0" stroke-linecap="butt" stroke-opacity="1.0" stroke="rgb(0, 0, 0)" stroke-linejoin="round" d=" M 111.592, 56.294 109.949, 54.185 108.655, 53.201 113.203, 49.285 113.691, 48.782 118.665, 43.657 119.594, 42.199 122.481, 37.672 124.103, 31.681 120.597, 27.479 113.786, 24.347 " />
            <path fill="none" stroke-width="3.0" stroke-linecap="butt" stroke-opacity="1.0" stroke="rgb(0, 0, 0)" stroke-linejoin="round" d=" M 55.088, 50.458 53.979, 48.647 51.961, 45.351 50.735, 40.973 50.436, 39.902 50.601, 40.563 50.735, 40.973 " />
            <path fill="none" stroke-width="3.0" stroke-linecap="butt" stroke-opacity="1.0" stroke="rgb(0, 0, 0)" stroke-linejoin="round" d=" M 53.979, 48.647 54.270, 49.227 55.088, 50.458 57.861, 54.366 " />
            <path fill="none" stroke-width="3.0" stroke-linecap="butt" stroke-opacity="1.0" stroke="rgb(0, 0, 0)" stroke-linejoin="round" d=" M 105.193, 22.895 104.251, 20.568 101.680, 15.713 100.375, 13.415 96.367, 8.643 91.554, 6.542 90.669, 6.468 " />
            <path fill="none" stroke-width="3.0" stroke-linecap="butt" stroke-opacity="1.0" stroke="rgb(0, 0, 0)" stroke-linejoin="round" d=" M 55.088, 50.458 57.974, 54.038 " />
            <path fill="none" stroke-width="3.0" stroke-linecap="butt" stroke-opacity="1.0" stroke="rgb(0, 0, 0)" stroke-linejoin="round" d=" M 191.295, 104.179 188.295, 94.639 186.380, 88.552 185.363, 87.485 184.109, 83.156 179.177, 74.457 177.877, 72.164 171.285, 64.644 170.119, 63.313 164.761, 57.831 156.734, 51.867 156.236, 51.497 149.207, 47.642 142.664, 45.458 137.399, 43.711 136.915, 43.551 130.487, 42.384 126.007, 42.180 125.311, 42.148 " />
            <path fill="none" stroke-width="3.0" stroke-linecap="butt" stroke-opacity="1.0" stroke="rgb(0, 0, 0)" stroke-linejoin="round" d=" M 87.293, 78.546 90.177, 79.672 90.193, 79.678 90.205, 79.683 90.441, 79.775 91.736, 80.280 91.918, 80.351 92.288, 80.496 93.458, 80.953 94.699, 81.261 96.017, 81.542 100.426, 82.482 103.431, 81.893 105.264, 81.534 106.098, 81.370 106.258, 81.140 106.985, 80.091 108.800, 77.473 109.292, 76.765 110.012, 75.726 110.201, 75.145 111.290, 71.794 111.408, 71.430 111.822, 69.096 112.027, 67.942 112.119, 67.426 112.730, 63.986 113.059, 61.140 113.165, 60.215 113.320, 58.879 " />
            <path fill="none" stroke-width="3.0" stroke-linecap="butt" stroke-opacity="1.0" stroke="rgb(0, 0, 0)" stroke-linejoin="round" d=" M 82.283, 75.703 83.865, 76.601 84.301, 76.848 84.531, 76.979 85.185, 77.350 86.022, 77.825 87.293, 78.546 90.162, 79.673 90.269, 79.715 90.441, 79.775 " />
            <path fill="none" stroke-width="3.0" stroke-linecap="butt" stroke-opacity="1.0" stroke="rgb(0, 0, 0)" stroke-linejoin="round" d=" M 186.611, 101.477 183.876, 99.032 174.808, 94.816 174.458, 94.653 168.146, 91.719 163.595, 90.405 " />
            <path fill="none" stroke-width="3.0" stroke-linecap="butt" stroke-opacity="1.0" stroke="rgb(0, 0, 0)" stroke-linejoin="round" d=" M 122.841, 68.062 121.346, 67.973 " />
            <path fill="none" stroke-width="3.0" stroke-linecap="butt" stroke-opacity="1.0" stroke="rgb(0, 0, 0)" stroke-linejoin="round" d=" M 122.841, 68.062 132.717, 69.632 142.593, 71.201 146.470, 71.818 " />
            <path fill="none" stroke-width="3.0" stroke-linecap="butt" stroke-opacity="1.0" stroke="rgb(0, 0, 0)" stroke-linejoin="round" d=" M 137.399, 43.711 136.950, 43.113 133.667, 41.715 129.606, 41.254 126.379, 41.911 126.007, 42.180 " />
            <path fill="none" stroke-width="3.0" stroke-linecap="butt" stroke-opacity="1.0" stroke="rgb(0, 0, 0)" stroke-linejoin="round" d=" M 206.976, 136.216 208.634, 135.312 209.469, 131.623 210.033, 124.790 206.154, 119.332 200.311, 112.275 192.894, 105.568 191.467, 104.278 191.295, 104.179 186.611, 101.477 185.932, 101.085 176.854, 96.891 175.952, 96.474 174.586, 95.843 " />
            <path fill="none" stroke-width="3.0" stroke-linecap="butt" stroke-opacity="1.0" stroke="rgb(0, 0, 0)" stroke-linejoin="round" d=" M 200.569, 121.442 208.209, 127.894 209.143, 128.682 208.634, 135.312 " />
            <path fill="none" stroke-width="3.0" stroke-linecap="butt" stroke-opacity="1.0" stroke="rgb(0, 0, 0)" stroke-linejoin="round" d=" M 44.238, 92.544 43.118, 93.393 38.836, 96.637 31.960, 102.741 31.568, 106.419 " />
            <path fill="none" stroke-width="3.0" stroke-linecap="butt" stroke-opacity="1.0" stroke="rgb(0, 0, 0)" stroke-linejoin="round" d=" M 210.033, 124.790 202.515, 118.195 200.591, 116.507 " />
            <path fill="none" stroke-width="3.0" stroke-linecap="butt" stroke-opacity="1.0" stroke="rgb(0, 0, 0)" stroke-linejoin="round" d=" M 38.111, 115.919 45.980, 121.319 " />
            <path fill="none" stroke-width="3.0" stroke-linecap="butt" stroke-opacity="1.0" stroke="rgb(0, 0, 0)" stroke-linejoin="round" d=" M 60.110, 80.773 58.658, 83.044 " />
            <path fill="none" stroke-width="3.0" stroke-linecap="butt" stroke-opacity="1.0" stroke="rgb(0, 0, 0)" stroke-linejoin="round" d=" M 111.290, 71.794 112.392, 71.758 " />
            <path fill="none" stroke-width="3.0" stroke-linecap="butt" stroke-opacity="1.0" stroke="rgb(0, 0, 0)" stroke-linejoin="round" d=" M 197.702, 123.807 202.023, 127.321 " />
        </g>
    </g>
</svg>
