<?xml version='1.0' encoding='ascii'?>
<svg xmlns="http://www.w3.org/2000/svg" version="1.1" width="250" height="250">
    <g id="ViewLayer_LineSet" xmlns:inkscape="http://www.inkscape.org/namespaces/inkscape" inkscape:groupmode="lineset" inkscape:label="ViewLayer_LineSet">
        <g xmlns:inkscape="http://www.inkscape.org/namespaces/inkscape" inkscape:groupmode="layer" id="strokes" inkscape:label="strokes">
            <path fill="none" stroke-width="3.0" stroke-linecap="butt" stroke-opacity="1.0" stroke="rgb(0, 0, 0)" stroke-linejoin="round" d=" M 164.417, 200.222 166.778, 198.506 173.732, 191.320 174.396, 190.634 176.393, 187.727 182.025, 179.463 182.725, 178.436 182.744, 178.395 " />
            <path fill="none" stroke-width="3.0" stroke-linecap="butt" stroke-opacity="1.0" stroke="rgb(0, 0, 0)" stroke-linejoin="round" d=" M 59.313, 100.215 57.986, 101.882 53.753, 108.987 49.945, 117.652 49.386, 119.463 48.451, 122.491 48.345, 122.834 48.007, 123.929 47.278, 126.290 46.026, 132.451 45.482, 138.836 45.256, 143.316 45.486, 148.979 45.965, 153.468 46.826, 158.120 47.672, 162.065 48.958, 166.365 50.621, 170.829 52.340, 174.702 52.589, 175.264 54.777, 179.478 57.092, 183.286 59.432, 186.513 62.364, 190.390 65.348, 193.681 69.458, 197.752 72.903, 200.475 78.079, 204.439 79.679, 205.393 84.042, 207.995 89.776, 210.581 93.585, 212.253 96.582, 213.123 " />
            <path fill="none" stroke-width="3.0" stroke-linecap="butt" stroke-opacity="1.0" stroke="rgb(0, 0, 0)" stroke-linejoin="round" d=" M 189.571, 126.113 188.806, 122.537 188.679, 122.209 " />
            <path fill="none" stroke-width="3.0" stroke-linecap="butt" stroke-opacity="1.0" stroke="rgb(0, 0, 0)" stroke-linejoin="round" d=" M 77.110, 151.867 77.664, 153.267 78.338, 154.292 79.027, 155.338 80.921, 157.000 83.115, 158.233 85.156, 158.680 87.250, 158.613 89.623, 157.790 91.672, 156.467 93.220, 154.624 93.935, 153.309 " />
            <path fill="none" stroke-width="3.0" stroke-linecap="butt" stroke-opacity="1.0" stroke="rgb(0, 0, 0)" stroke-linejoin="round" d=" M 117.439, 102.789 117.541, 103.133 118.010, 104.712 118.462, 108.105 118.502, 111.932 118.519, 112.001 117.451, 120.038 117.437, 120.148 117.400, 120.422 116.174, 124.638 114.670, 128.930 112.916, 132.927 110.975, 136.438 108.916, 139.290 108.796, 139.406 108.405, 139.786 106.808, 141.340 104.723, 142.485 102.735, 142.667 101.462, 142.112 100.915, 141.874 99.338, 140.138 98.242, 137.886 98.073, 137.539 98.028, 137.371 97.180, 134.199 96.707, 130.276 96.685, 125.960 97.121, 121.457 97.977, 117.043 98.218, 116.210 98.260, 116.063 99.180, 112.878 100.700, 108.973 102.478, 105.470 104.446, 102.493 105.348, 101.476 " />
            <path fill="none" stroke-width="3.0" stroke-linecap="butt" stroke-opacity="1.0" stroke="rgb(0, 0, 0)" stroke-linejoin="round" d=" M 77.310, 120.348 76.333, 124.643 76.139, 125.379 75.250, 128.752 74.344, 131.622 74.211, 132.043 74.075, 132.476 72.814, 135.626 71.474, 138.046 70.072, 139.615 68.925, 140.128 68.633, 140.259 67.223, 140.249 65.847, 138.709 64.640, 136.602 63.665, 133.739 63.003, 130.266 62.890, 128.714 62.856, 128.233 62.720, 126.354 62.857, 122.194 63.148, 120.031 63.416, 118.042 64.282, 114.041 65.400, 110.196 66.724, 106.643 67.393, 105.222 67.629, 104.718 68.201, 103.504 69.773, 100.887 70.570, 99.892 " />
            <path fill="none" stroke-width="3.0" stroke-linecap="butt" stroke-opacity="1.0" stroke="rgb(0, 0, 0)" stroke-linejoin="round" d=" M 67.223, 140.249 70.426, 141.623 " />
            <path fill="none" stroke-width="3.0" stroke-linecap="butt" stroke-opacity="1.0" stroke="rgb(0, 0, 0)" stroke-linejoin="round" d=" M 77.892, 99.682 78.527, 101.930 78.886, 104.847 78.996, 108.339 78.854, 110.063 78.830, 110.347 78.687, 112.085 " />
            <path fill="none" stroke-width="3.0" stroke-linecap="butt" stroke-opacity="1.0" stroke="rgb(0, 0, 0)" stroke-linejoin="round" d=" M 80.417, 122.285 77.310, 120.348 78.134, 116.140 78.687, 112.085 81.753, 114.116 " />
            <path fill="none" stroke-width="3.0" stroke-linecap="butt" stroke-opacity="1.0" stroke="rgb(0, 0, 0)" stroke-linejoin="round" d=" M 126.268, 237.152 132.117, 238.565 137.737, 239.601 143.794, 240.378 147.962, 240.806 155.277, 241.372 160.306, 241.422 164.788, 240.767 168.586, 239.206 172.827, 235.293 175.179, 231.654 176.582, 227.752 177.006, 223.126 176.273, 218.136 173.857, 211.957 172.896, 209.934 168.484, 203.762 164.417, 200.222 162.926, 198.924 158.886, 196.737 152.532, 193.752 " />
            <path fill="none" stroke-width="3.0" stroke-linecap="butt" stroke-opacity="1.0" stroke="rgb(0, 0, 0)" stroke-linejoin="round" d=" M 112.107, 194.831 107.060, 197.330 102.733, 200.652 99.730, 204.560 97.783, 208.468 96.675, 212.338 96.582, 213.123 96.248, 215.952 96.649, 219.822 98.094, 223.914 100.626, 226.887 104.402, 229.261 108.289, 231.168 108.957, 231.466 113.410, 233.454 119.568, 235.262 126.268, 237.152 120.022, 235.380 113.410, 233.454 " />
            <path fill="none" stroke-width="3.0" stroke-linecap="butt" stroke-opacity="1.0" stroke="rgb(0, 0, 0)" stroke-linejoin="round" d=" M 79.679, 205.393 79.189, 208.039 79.248, 210.950 79.298, 215.866 79.869, 218.326 81.884, 223.074 83.056, 225.354 86.442, 228.777 90.681, 231.451 94.844, 232.676 96.887, 232.923 101.109, 233.096 106.592, 232.356 108.957, 231.466 " />
            <path fill="none" stroke-width="3.0" stroke-linecap="butt" stroke-opacity="1.0" stroke="rgb(0, 0, 0)" stroke-linejoin="round" d=" M 192.893, 181.678 196.695, 182.138 200.396, 181.911 205.142, 180.675 207.348, 179.658 207.861, 179.390 209.580, 178.318 212.185, 176.273 214.643, 173.590 216.621, 170.264 217.807, 167.154 218.312, 165.203 218.583, 163.564 218.696, 162.273 218.738, 159.403 218.081, 156.051 217.550, 153.862 216.171, 150.143 214.094, 146.262 210.339, 141.534 206.952, 138.021 206.556, 137.610 206.369, 137.417 202.465, 133.778 200.377, 132.043 196.225, 129.122 191.672, 126.853 189.571, 126.113 " />
            <path fill="none" stroke-width="3.0" stroke-linecap="butt" stroke-opacity="1.0" stroke="rgb(0, 0, 0)" stroke-linejoin="round" d=" M 182.744, 178.395 185.882, 179.793 188.739, 180.572 189.344, 180.733 192.893, 181.678 190.257, 180.981 189.344, 180.733 " />
            <path fill="none" stroke-width="3.0" stroke-linecap="butt" stroke-opacity="1.0" stroke="rgb(0, 0, 0)" stroke-linejoin="round" d=" M 48.007, 123.929 44.264, 125.938 40.047, 129.022 36.064, 132.768 32.011, 137.068 28.114, 142.074 25.777, 146.172 24.192, 150.084 23.330, 154.114 23.272, 157.621 23.740, 160.915 24.763, 163.995 26.271, 166.777 26.575, 167.255 28.572, 169.889 30.942, 172.018 33.602, 173.784 36.504, 175.104 39.694, 175.941 43.188, 176.329 47.302, 176.013 51.399, 175.048 52.340, 174.702 " />
            <path fill="none" stroke-width="3.0" stroke-linecap="butt" stroke-opacity="1.0" stroke="rgb(0, 0, 0)" stroke-linejoin="round" d=" M 116.252, 72.377 119.500, 69.896 119.519, 69.858 119.663, 69.565 119.699, 69.492 121.351, 66.134 122.337, 63.539 122.317, 59.860 121.301, 57.200 119.397, 53.487 117.695, 52.240 " />
            <path fill="none" stroke-width="3.0" stroke-linecap="butt" stroke-opacity="1.0" stroke="rgb(0, 0, 0)" stroke-linejoin="round" d=" M 56.100, 55.760 56.008, 56.022 54.486, 60.323 52.847, 66.413 52.278, 74.266 52.568, 75.527 54.219, 80.818 56.708, 82.052 59.853, 82.786 61.354, 83.137 61.851, 83.253 65.734, 83.687 71.409, 82.695 71.742, 82.637 74.184, 82.014 77.305, 81.218 82.720, 79.063 82.791, 79.035 " />
            <path fill="none" stroke-width="3.0" stroke-linecap="butt" stroke-opacity="1.0" stroke="rgb(0, 0, 0)" stroke-linejoin="round" d=" M 33.817, 112.133 31.619, 107.652 32.800, 106.516 37.499, 101.996 41.758, 100.927 49.569, 98.967 53.188, 98.059 57.130, 97.928 59.117, 97.861 61.241, 97.790 71.236, 97.457 73.364, 97.386 76.059, 97.296 76.080, 97.295 79.965, 97.166 89.934, 97.951 99.903, 98.736 107.565, 99.339 113.673, 99.821 116.289, 100.277 116.359, 100.289 126.211, 102.005 136.062, 103.722 145.914, 105.439 147.655, 105.742 157.320, 108.309 166.985, 110.877 176.650, 113.444 177.061, 113.553 178.186, 114.015 178.971, 114.338 183.046, 116.012 185.887, 117.179 " />
            <path fill="none" stroke-width="3.0" stroke-linecap="butt" stroke-opacity="1.0" stroke="rgb(0, 0, 0)" stroke-linejoin="round" d=" M 206.556, 137.610 206.639, 137.562 206.268, 131.268 200.107, 126.602 197.891, 124.923 " />
            <path fill="none" stroke-width="3.0" stroke-linecap="butt" stroke-opacity="1.0" stroke="rgb(0, 0, 0)" stroke-linejoin="round" d=" M 39.016, 108.287 40.879, 106.672 44.984, 103.113 54.757, 100.993 58.194, 100.247 " />
            <path fill="none" stroke-width="3.0" stroke-linecap="butt" stroke-opacity="1.0" stroke="rgb(0, 0, 0)" stroke-linejoin="round" d=" M 38.879, 117.002 47.146, 122.346 48.345, 122.834 " />
            <path fill="none" stroke-width="3.0" stroke-linecap="butt" stroke-opacity="1.0" stroke="rgb(0, 0, 0)" stroke-linejoin="round" d=" M 55.984, 100.310 46.214, 102.444 45.410, 102.620 41.090, 103.563 39.826, 103.839 33.819, 109.284 34.556, 110.831 " />
            <path fill="none" stroke-width="3.0" stroke-linecap="butt" stroke-opacity="1.0" stroke="rgb(0, 0, 0)" stroke-linejoin="round" d=" M 55.984, 100.310 58.194, 100.247 59.313, 100.215 59.817, 100.200 61.654, 100.148 70.570, 99.892 75.967, 99.737 77.892, 99.682 79.311, 99.641 81.510, 99.578 91.479, 100.372 101.447, 101.165 105.348, 101.476 110.114, 101.855 113.427, 102.119 117.439, 102.789 118.028, 102.888 127.891, 104.536 129.916, 104.875 139.779, 106.523 146.726, 107.684 156.398, 110.224 166.070, 112.764 175.671, 115.285 179.306, 116.758 184.152, 118.722 " />
            <path fill="none" stroke-width="3.0" stroke-linecap="butt" stroke-opacity="1.0" stroke="rgb(0, 0, 0)" stroke-linejoin="round" d=" M 41.025, 94.313 36.223, 98.206 33.056, 101.402 31.244, 104.237 30.074, 107.263 30.067, 109.725 30.531, 111.897 34.856, 115.999 37.536, 117.471 38.879, 117.002 38.914, 116.989 40.796, 116.332 42.085, 115.453 43.652, 114.384 45.238, 109.311 " />
            <path fill="none" stroke-width="3.0" stroke-linecap="butt" stroke-opacity="1.0" stroke="rgb(0, 0, 0)" stroke-linejoin="round" d=" M 33.261, 113.488 30.531, 111.897 " />
            <path fill="none" stroke-width="3.0" stroke-linecap="butt" stroke-opacity="1.0" stroke="rgb(0, 0, 0)" stroke-linejoin="round" d=" M 43.652, 114.384 39.924, 112.064 " />
            <path fill="none" stroke-width="3.0" stroke-linecap="butt" stroke-opacity="1.0" stroke="rgb(0, 0, 0)" stroke-linejoin="round" d=" M 40.822, 109.683 39.924, 112.064 36.503, 113.027 " />
            <path fill="none" stroke-width="3.0" stroke-linecap="butt" stroke-opacity="1.0" stroke="rgb(0, 0, 0)" stroke-linejoin="round" d=" M 57.460, 84.727 50.509, 88.016 42.178, 93.547 41.025, 94.313 47.282, 90.278 48.216, 89.768 56.995, 84.980 57.460, 84.727 59.004, 84.096 61.354, 83.137 " />
            <path fill="none" stroke-width="3.0" stroke-linecap="butt" stroke-opacity="1.0" stroke="rgb(0, 0, 0)" stroke-linejoin="round" d=" M 47.282, 90.278 49.432, 89.409 49.715, 89.295 53.440, 87.790 55.750, 86.857 57.563, 86.320 67.152, 83.480 67.372, 83.415 77.323, 82.432 78.116, 82.354 80.459, 82.123 81.783, 82.091 87.689, 81.948 88.560, 81.988 89.347, 82.023 " />
            <path fill="none" stroke-width="3.0" stroke-linecap="butt" stroke-opacity="1.0" stroke="rgb(0, 0, 0)" stroke-linejoin="round" d=" M 179.306, 116.758 179.968, 118.380 182.062, 119.376 182.984, 119.815 183.279, 119.939 188.679, 122.209 196.826, 125.633 196.999, 125.518 197.891, 124.923 198.721, 124.371 199.029, 124.166 199.283, 123.062 199.863, 120.540 196.961, 115.986 192.330, 111.505 190.468, 109.705 185.078, 105.823 182.914, 104.265 178.341, 100.872 177.973, 100.599 176.700, 99.654 171.444, 96.554 168.169, 94.622 160.817, 91.550 159.176, 90.865 156.993, 89.952 147.448, 86.970 144.290, 85.983 134.676, 83.228 131.503, 82.319 121.646, 80.634 118.651, 80.122 109.241, 78.580 107.466, 78.289 " />
            <path fill="none" stroke-width="3.0" stroke-linecap="butt" stroke-opacity="1.0" stroke="rgb(0, 0, 0)" stroke-linejoin="round" d=" M 102.968, 83.099 107.697, 83.593 111.430, 83.983 111.859, 84.089 121.570, 86.475 128.071, 88.073 137.674, 90.861 141.419, 91.948 142.465, 92.251 151.792, 95.856 155.296, 97.210 164.456, 101.222 166.441, 102.091 174.806, 106.152 181.255, 109.752 184.914, 112.490 186.325, 113.545 187.336, 115.139 187.640, 115.619 188.212, 116.520 188.387, 117.740 188.578, 119.071 187.683, 119.636 187.185, 119.951 186.044, 120.673 " />
            <path fill="none" stroke-width="3.0" stroke-linecap="butt" stroke-opacity="1.0" stroke="rgb(0, 0, 0)" stroke-linejoin="round" d=" M 99.105, 79.851 99.350, 79.501 100.399, 78.000 102.899, 74.422 103.752, 71.494 104.011, 70.606 104.366, 69.387 104.598, 68.591 105.033, 67.099 105.239, 66.394 105.317, 66.124 105.853, 59.699 105.838, 57.354 105.832, 56.426 105.823, 55.038 105.823, 54.909 " />
            <path fill="none" stroke-width="3.0" stroke-linecap="butt" stroke-opacity="1.0" stroke="rgb(0, 0, 0)" stroke-linejoin="round" d=" M 76.872, 74.531 80.419, 76.872 82.931, 78.101 83.006, 78.138 84.041, 78.644 85.570, 79.393 93.085, 80.982 95.894, 80.454 99.105, 79.851 100.310, 81.290 101.879, 82.503 101.972, 82.575 103.425, 83.009 " />
            <path fill="none" stroke-width="3.0" stroke-linecap="butt" stroke-opacity="1.0" stroke="rgb(0, 0, 0)" stroke-linejoin="round" d=" M 54.219, 80.818 53.898, 79.455 " />
            <path fill="none" stroke-width="3.0" stroke-linecap="butt" stroke-opacity="1.0" stroke="rgb(0, 0, 0)" stroke-linejoin="round" d=" M 79.893, 77.344 77.628, 75.833 76.872, 74.531 72.528, 76.826 66.654, 79.234 61.543, 80.178 59.032, 80.642 53.898, 79.455 52.278, 74.266 " />
            <path fill="none" stroke-width="3.0" stroke-linecap="butt" stroke-opacity="1.0" stroke="rgb(0, 0, 0)" stroke-linejoin="round" d=" M 110.659, 62.211 110.905, 61.865 110.997, 61.736 111.217, 61.428 114.168, 57.286 114.509, 56.799 117.695, 52.240 118.843, 50.597 122.511, 44.947 122.913, 43.470 124.053, 39.286 124.103, 36.146 122.920, 33.913 119.442, 29.633 114.170, 27.170 111.237, 26.055 105.501, 24.924 103.088, 24.655 101.118, 24.436 " />
            <path fill="none" stroke-width="3.0" stroke-linecap="butt" stroke-opacity="1.0" stroke="rgb(0, 0, 0)" stroke-linejoin="round" d=" M 56.008, 56.022 53.324, 52.193 50.332, 47.109 48.910, 41.683 49.381, 36.160 53.733, 31.946 60.769, 28.412 66.458, 26.804 70.771, 25.920 73.361, 21.919 77.249, 16.728 83.325, 10.941 88.732, 8.253 93.344, 10.299 97.611, 15.540 99.830, 20.516 101.118, 24.436 " />
            <path fill="none" stroke-width="3.0" stroke-linecap="butt" stroke-opacity="1.0" stroke="rgb(0, 0, 0)" stroke-linejoin="round" d=" M 108.954, 57.968 107.786, 56.611 107.161, 55.883 105.864, 54.940 105.823, 54.909 105.908, 54.835 106.836, 54.032 110.348, 50.992 111.097, 50.218 115.798, 45.360 116.767, 43.846 119.635, 39.369 121.310, 33.371 117.907, 29.174 111.237, 26.055 " />
            <path fill="none" stroke-width="3.0" stroke-linecap="butt" stroke-opacity="1.0" stroke="rgb(0, 0, 0)" stroke-linejoin="round" d=" M 103.088, 24.655 102.158, 22.269 99.676, 17.426 98.252, 15.154 94.373, 10.399 89.671, 8.315 88.732, 8.253 " />
            <path fill="none" stroke-width="3.0" stroke-linecap="butt" stroke-opacity="1.0" stroke="rgb(0, 0, 0)" stroke-linejoin="round" d=" M 53.324, 52.193 56.100, 55.760 " />
            <path fill="none" stroke-width="3.0" stroke-linecap="butt" stroke-opacity="1.0" stroke="rgb(0, 0, 0)" stroke-linejoin="round" d=" M 191.353, 106.588 188.458, 97.016 186.315, 89.930 185.311, 88.857 184.103, 84.508 179.264, 75.757 177.997, 73.466 171.477, 65.884 170.357, 64.582 164.679, 59.129 156.738, 53.052 156.371, 52.772 149.154, 48.946 142.895, 46.742 138.171, 45.209 137.078, 44.854 130.633, 43.705 126.514, 43.524 124.280, 43.426 122.913, 43.470 " />
            <path fill="none" stroke-width="3.0" stroke-linecap="butt" stroke-opacity="1.0" stroke="rgb(0, 0, 0)" stroke-linejoin="round" d=" M 79.893, 77.344 81.534, 78.301 82.738, 79.004 82.791, 79.035 83.115, 79.224 84.527, 80.049 84.765, 80.188 87.436, 81.258 89.166, 81.951 89.347, 82.023 89.696, 82.163 90.785, 82.600 93.207, 83.119 97.837, 84.112 101.545, 83.380 102.968, 83.099 103.425, 83.009 103.688, 82.632 104.436, 81.562 106.743, 78.259 107.364, 77.371 107.393, 77.283 108.677, 73.460 108.709, 73.365 108.807, 73.075 108.834, 72.933 109.269, 70.644 109.497, 69.447 109.604, 68.890 110.224, 65.631 110.659, 62.211 110.750, 61.492 110.771, 61.329 110.850, 60.707 110.874, 60.523 " />
            <path fill="none" stroke-width="3.0" stroke-linecap="butt" stroke-opacity="1.0" stroke="rgb(0, 0, 0)" stroke-linejoin="round" d=" M 186.816, 103.671 183.029, 100.529 174.949, 96.906 166.760, 93.235 160.817, 91.550 " />
            <path fill="none" stroke-width="3.0" stroke-linecap="butt" stroke-opacity="1.0" stroke="rgb(0, 0, 0)" stroke-linejoin="round" d=" M 121.247, 69.584 119.699, 69.492 " />
            <path fill="none" stroke-width="3.0" stroke-linecap="butt" stroke-opacity="1.0" stroke="rgb(0, 0, 0)" stroke-linejoin="round" d=" M 121.247, 69.584 128.109, 70.659 133.916, 71.570 143.796, 73.118 145.005, 73.307 " />
            <path fill="none" stroke-width="3.0" stroke-linecap="butt" stroke-opacity="1.0" stroke="rgb(0, 0, 0)" stroke-linejoin="round" d=" M 138.171, 45.209 137.541, 44.366 134.206, 42.983 130.150, 42.532 126.984, 43.190 126.514, 43.524 " />
            <path fill="none" stroke-width="3.0" stroke-linecap="butt" stroke-opacity="1.0" stroke="rgb(0, 0, 0)" stroke-linejoin="round" d=" M 206.952, 138.021 208.888, 136.910 209.754, 133.203 209.592, 126.420 205.766, 120.916 199.992, 113.801 192.316, 107.392 191.353, 106.588 190.444, 105.829 186.816, 103.671 185.017, 102.601 176.508, 98.810 171.444, 96.554 " />
            <path fill="none" stroke-width="3.0" stroke-linecap="butt" stroke-opacity="1.0" stroke="rgb(0, 0, 0)" stroke-linejoin="round" d=" M 199.283, 123.062 207.187, 129.188 208.663, 130.332 208.888, 136.910 " />
            <path fill="none" stroke-width="3.0" stroke-linecap="butt" stroke-opacity="1.0" stroke="rgb(0, 0, 0)" stroke-linejoin="round" d=" M 44.243, 93.438 43.578, 93.941 38.117, 98.019 32.056, 103.993 31.619, 107.652 " />
            <path fill="none" stroke-width="3.0" stroke-linecap="butt" stroke-opacity="1.0" stroke="rgb(0, 0, 0)" stroke-linejoin="round" d=" M 209.592, 126.420 201.802, 120.150 199.326, 118.158 " />
            <path fill="none" stroke-width="3.0" stroke-linecap="butt" stroke-opacity="1.0" stroke="rgb(0, 0, 0)" stroke-linejoin="round" d=" M 59.853, 82.786 59.004, 84.096 " />
            <path fill="none" stroke-width="3.0" stroke-linecap="butt" stroke-opacity="1.0" stroke="rgb(0, 0, 0)" stroke-linejoin="round" d=" M 107.247, 78.280 107.556, 77.239 108.677, 73.460 " />
            <path fill="none" stroke-width="3.0" stroke-linecap="butt" stroke-opacity="1.0" stroke="rgb(0, 0, 0)" stroke-linejoin="round" d=" M 108.709, 73.365 110.872, 73.282 " />
            <path fill="none" stroke-width="3.0" stroke-linecap="butt" stroke-opacity="1.0" stroke="rgb(0, 0, 0)" stroke-linejoin="round" d=" M 196.999, 125.518 201.556, 128.935 " />
        </g>
    </g>
</svg>
