<?xml version='1.0' encoding='ascii'?>
<svg xmlns="http://www.w3.org/2000/svg" version="1.1" width="250" height="250">
    <g id="ViewLayer_LineSet" xmlns:inkscape="http://www.inkscape.org/namespaces/inkscape" inkscape:groupmode="lineset" inkscape:label="ViewLayer_LineSet">
        <g xmlns:inkscape="http://www.inkscape.org/namespaces/inkscape" inkscape:groupmode="layer" id="strokes" inkscape:label="strokes">
            <path fill="none" stroke-width="3.0" stroke-linecap="butt" stroke-opacity="1.0" stroke="rgb(0, 0, 0)" stroke-linejoin="round" d=" M 108.903, 216.202 110.099, 216.336 113.195, 216.682 117.702, 216.880 122.224, 216.784 126.557, 216.401 130.511, 215.750 131.729, 215.485 136.836, 214.375 141.876, 213.062 145.845, 211.475 154.638, 207.327 158.091, 205.074 166.182, 199.198 166.772, 198.770 166.862, 198.676 173.817, 191.491 174.389, 190.900 174.452, 190.808 " />
            <path fill="none" stroke-width="3.0" stroke-linecap="butt" stroke-opacity="1.0" stroke="rgb(0, 0, 0)" stroke-linejoin="round" d=" M 59.280, 100.526 57.987, 102.150 53.755, 109.253 49.947, 117.917 49.396, 119.702 48.461, 122.730 48.355, 123.075 47.280, 126.556 46.028, 132.719 45.484, 139.106 45.259, 143.582 45.488, 149.247 45.967, 153.733 46.828, 158.388 47.674, 162.331 48.959, 166.630 50.623, 171.093 52.591, 175.528 54.779, 179.743 57.093, 183.552 59.429, 186.775 " />
            <path fill="none" stroke-width="3.0" stroke-linecap="butt" stroke-opacity="1.0" stroke="rgb(0, 0, 0)" stroke-linejoin="round" d=" M 190.939, 132.815 188.848, 123.036 188.799, 122.806 188.687, 122.519 " />
            <path fill="none" stroke-width="3.0" stroke-linecap="butt" stroke-opacity="1.0" stroke="rgb(0, 0, 0)" stroke-linejoin="round" d=" M 77.110, 152.171 77.664, 153.572 79.027, 155.642 80.921, 157.305 83.115, 158.538 85.155, 158.986 85.852, 158.964 87.249, 158.920 89.622, 158.098 91.671, 156.775 93.219, 154.933 93.934, 153.619 " />
            <path fill="none" stroke-width="3.0" stroke-linecap="butt" stroke-opacity="1.0" stroke="rgb(0, 0, 0)" stroke-linejoin="round" d=" M 117.440, 103.117 117.509, 103.349 118.007, 105.025 118.459, 108.418 118.499, 112.246 118.515, 112.315 117.460, 120.261 117.446, 120.369 117.397, 120.737 116.171, 124.954 114.667, 129.246 112.913, 133.243 110.972, 136.754 108.913, 139.606 108.886, 139.633 108.494, 140.014 106.805, 141.655 104.721, 142.800 102.732, 142.982 101.464, 142.429 100.913, 142.189 99.336, 140.453 98.185, 138.088 98.071, 137.854 97.997, 137.579 97.178, 134.513 96.706, 130.590 96.684, 126.274 97.119, 121.771 97.976, 117.356 98.241, 116.437 98.283, 116.292 99.178, 113.190 100.698, 109.285 102.476, 105.782 104.444, 102.804 105.333, 101.801 " />
            <path fill="none" stroke-width="3.0" stroke-linecap="butt" stroke-opacity="1.0" stroke="rgb(0, 0, 0)" stroke-linejoin="round" d=" M 77.310, 120.655 76.333, 124.950 75.250, 129.060 74.369, 131.850 74.236, 132.272 74.075, 132.784 72.814, 135.934 71.475, 138.353 70.072, 139.921 68.928, 140.432 68.634, 140.564 67.223, 140.554 65.848, 139.012 64.641, 136.905 63.666, 134.041 63.004, 130.567 62.886, 128.939 62.851, 128.457 62.721, 126.655 62.858, 122.494 63.065, 120.959 63.417, 118.341 64.283, 114.339 65.401, 110.493 66.725, 106.940 67.416, 105.470 67.652, 104.969 68.201, 103.801 69.774, 101.184 70.555, 100.208 " />
            <path fill="none" stroke-width="3.0" stroke-linecap="butt" stroke-opacity="1.0" stroke="rgb(0, 0, 0)" stroke-linejoin="round" d=" M 67.223, 140.554 70.427, 141.923 " />
            <path fill="none" stroke-width="3.0" stroke-linecap="butt" stroke-opacity="1.0" stroke="rgb(0, 0, 0)" stroke-linejoin="round" d=" M 77.897, 100.001 78.526, 102.232 78.886, 105.151 78.996, 108.644 78.859, 110.296 78.836, 110.578 78.687, 112.391 " />
            <path fill="none" stroke-width="3.0" stroke-linecap="butt" stroke-opacity="1.0" stroke="rgb(0, 0, 0)" stroke-linejoin="round" d=" M 80.416, 122.588 77.310, 120.655 77.595, 119.202 78.134, 116.447 78.687, 112.391 81.753, 114.417 " />
            <path fill="none" stroke-width="3.0" stroke-linecap="butt" stroke-opacity="1.0" stroke="rgb(0, 0, 0)" stroke-linejoin="round" d=" M 174.849, 198.698 179.393, 201.991 " />
            <path fill="none" stroke-width="3.0" stroke-linecap="butt" stroke-opacity="1.0" stroke="rgb(0, 0, 0)" stroke-linejoin="round" d=" M 166.862, 198.676 168.889, 199.011 173.658, 201.125 177.041, 203.705 " />
            <path fill="none" stroke-width="3.0" stroke-linecap="butt" stroke-opacity="1.0" stroke="rgb(0, 0, 0)" stroke-linejoin="round" d=" M 131.729, 215.485 131.740, 215.526 133.499, 220.612 134.562, 222.911 138.283, 226.737 140.083, 228.320 144.548, 230.862 149.802, 232.239 154.480, 232.670 159.627, 232.125 166.163, 230.436 171.554, 228.136 176.833, 224.908 179.981, 221.457 181.477, 219.525 184.777, 212.989 185.314, 211.671 188.620, 202.234 189.400, 200.009 190.962, 192.677 " />
            <path fill="none" stroke-width="3.0" stroke-linecap="butt" stroke-opacity="1.0" stroke="rgb(0, 0, 0)" stroke-linejoin="round" d=" M 59.429, 186.775 56.731, 187.414 50.824, 188.631 44.597, 191.100 39.986, 193.558 36.431, 196.547 35.839, 197.319 32.125, 202.228 29.862, 206.350 28.509, 210.418 28.049, 214.369 28.419, 218.562 30.306, 222.547 31.852, 224.274 34.593, 225.778 37.975, 227.251 43.534, 229.002 48.472, 229.928 53.540, 230.666 58.485, 231.187 65.055, 231.420 71.524, 231.356 79.303, 230.769 85.034, 230.273 91.614, 229.647 95.881, 229.013 100.618, 227.983 103.375, 226.141 106.948, 223.272 109.104, 219.967 110.094, 216.420 110.099, 216.336 " />
            <path fill="none" stroke-width="3.0" stroke-linecap="butt" stroke-opacity="1.0" stroke="rgb(0, 0, 0)" stroke-linejoin="round" d=" M 191.026, 132.867 190.939, 132.815 186.000, 129.873 181.965, 128.150 " />
            <path fill="none" stroke-width="3.0" stroke-linecap="butt" stroke-opacity="1.0" stroke="rgb(0, 0, 0)" stroke-linejoin="round" d=" M 165.014, 184.193 167.104, 186.026 170.620, 188.721 174.091, 190.679 174.452, 190.808 177.744, 191.981 181.275, 193.075 184.281, 193.304 188.251, 193.196 190.596, 192.776 190.962, 192.677 193.754, 191.922 198.012, 189.731 201.660, 186.861 203.799, 184.343 205.322, 182.264 206.754, 179.020 207.866, 176.096 208.352, 172.732 208.874, 168.806 208.645, 164.778 207.783, 160.368 206.868, 157.743 204.886, 151.953 202.261, 146.870 199.535, 142.355 199.397, 142.162 199.344, 142.088 199.311, 142.043 196.619, 138.282 193.229, 134.775 191.026, 132.867 194.440, 136.110 196.619, 138.282 " />
            <path fill="none" stroke-width="3.0" stroke-linecap="butt" stroke-opacity="1.0" stroke="rgb(0, 0, 0)" stroke-linejoin="round" d=" M 116.249, 72.681 119.497, 70.203 119.536, 70.124 119.660, 69.871 119.697, 69.797 121.348, 66.443 122.333, 63.847 122.314, 60.169 121.297, 57.511 119.393, 53.796 117.701, 52.556 " />
            <path fill="none" stroke-width="3.0" stroke-linecap="butt" stroke-opacity="1.0" stroke="rgb(0, 0, 0)" stroke-linejoin="round" d=" M 56.102, 56.082 56.010, 56.343 54.488, 60.646 52.849, 66.736 52.280, 74.590 52.570, 75.849 54.221, 81.142 56.709, 82.372 59.823, 83.101 61.300, 83.446 61.852, 83.576 65.735, 84.006 71.104, 83.068 71.743, 82.957 74.312, 82.302 77.305, 81.539 82.712, 79.388 82.783, 79.360 " />
            <path fill="none" stroke-width="3.0" stroke-linecap="butt" stroke-opacity="1.0" stroke="rgb(0, 0, 0)" stroke-linejoin="round" d=" M 33.819, 112.392 31.622, 107.925 32.803, 106.793 37.502, 102.288 41.738, 101.230 49.519, 99.286 53.189, 98.369 57.200, 98.238 59.130, 98.174 61.205, 98.106 71.200, 97.778 73.304, 97.709 76.086, 97.617 76.111, 97.616 79.964, 97.490 89.933, 98.277 99.902, 99.064 107.540, 99.667 113.670, 100.151 116.298, 100.609 116.371, 100.622 126.223, 102.338 136.074, 104.053 145.926, 105.769 147.649, 106.069 157.315, 108.634 166.981, 111.198 176.646, 113.762 177.053, 113.870 178.183, 114.333 179.002, 114.669 183.039, 116.324 185.834, 117.471 " />
            <path fill="none" stroke-width="3.0" stroke-linecap="butt" stroke-opacity="1.0" stroke="rgb(0, 0, 0)" stroke-linejoin="round" d=" M 199.311, 142.043 206.630, 137.823 206.259, 131.548 200.114, 126.905 197.884, 125.220 " />
            <path fill="none" stroke-width="3.0" stroke-linecap="butt" stroke-opacity="1.0" stroke="rgb(0, 0, 0)" stroke-linejoin="round" d=" M 39.019, 108.558 40.880, 106.949 44.987, 103.402 54.762, 101.291 58.159, 100.557 " />
            <path fill="none" stroke-width="3.0" stroke-linecap="butt" stroke-opacity="1.0" stroke="rgb(0, 0, 0)" stroke-linejoin="round" d=" M 38.883, 117.254 47.148, 122.585 48.355, 123.075 " />
            <path fill="none" stroke-width="3.0" stroke-linecap="butt" stroke-opacity="1.0" stroke="rgb(0, 0, 0)" stroke-linejoin="round" d=" M 55.986, 100.618 46.214, 102.742 45.371, 102.925 41.090, 103.856 39.829, 104.130 33.822, 109.556 34.557, 111.095 " />
            <path fill="none" stroke-width="3.0" stroke-linecap="butt" stroke-opacity="1.0" stroke="rgb(0, 0, 0)" stroke-linejoin="round" d=" M 55.986, 100.618 58.159, 100.557 59.280, 100.526 59.890, 100.508 61.725, 100.457 70.555, 100.208 75.937, 100.056 77.897, 100.001 79.341, 99.960 81.510, 99.899 91.478, 100.695 101.446, 101.490 105.333, 101.801 110.086, 102.180 113.424, 102.446 117.440, 103.117 118.038, 103.217 127.901, 104.865 128.747, 105.007 138.611, 106.655 146.720, 108.009 156.393, 110.546 166.066, 113.083 175.663, 115.599 179.301, 117.071 184.097, 119.011 " />
            <path fill="none" stroke-width="3.0" stroke-linecap="butt" stroke-opacity="1.0" stroke="rgb(0, 0, 0)" stroke-linejoin="round" d=" M 41.028, 94.597 36.226, 98.485 33.059, 101.676 31.247, 104.508 30.077, 107.530 30.070, 109.990 30.534, 112.162 34.859, 116.252 37.538, 117.724 38.883, 117.254 38.921, 117.241 40.799, 116.585 42.094, 115.701 43.654, 114.637 45.240, 109.566 " />
            <path fill="none" stroke-width="3.0" stroke-linecap="butt" stroke-opacity="1.0" stroke="rgb(0, 0, 0)" stroke-linejoin="round" d=" M 33.264, 113.752 30.534, 112.162 " />
            <path fill="none" stroke-width="3.0" stroke-linecap="butt" stroke-opacity="1.0" stroke="rgb(0, 0, 0)" stroke-linejoin="round" d=" M 43.654, 114.637 39.926, 112.328 " />
            <path fill="none" stroke-width="3.0" stroke-linecap="butt" stroke-opacity="1.0" stroke="rgb(0, 0, 0)" stroke-linejoin="round" d=" M 40.829, 109.938 39.926, 112.328 36.506, 113.291 " />
            <path fill="none" stroke-width="3.0" stroke-linecap="butt" stroke-opacity="1.0" stroke="rgb(0, 0, 0)" stroke-linejoin="round" d=" M 57.461, 85.011 50.511, 88.294 42.183, 93.830 41.028, 94.597 47.284, 90.569 48.148, 90.098 56.924, 85.304 57.461, 85.011 58.988, 84.389 61.300, 83.446 " />
            <path fill="none" stroke-width="3.0" stroke-linecap="butt" stroke-opacity="1.0" stroke="rgb(0, 0, 0)" stroke-linejoin="round" d=" M 47.284, 90.569 49.386, 89.722 49.699, 89.596 53.499, 88.063 55.751, 87.155 57.538, 86.627 67.128, 83.793 67.372, 83.721 77.324, 82.743 78.037, 82.673 80.458, 82.435 81.779, 82.403 87.688, 82.263 88.480, 82.299 89.299, 82.337 " />
            <path fill="none" stroke-width="3.0" stroke-linecap="butt" stroke-opacity="1.0" stroke="rgb(0, 0, 0)" stroke-linejoin="round" d=" M 179.301, 117.071 179.960, 118.685 181.974, 119.644 182.976, 120.122 183.181, 120.208 188.687, 122.519 196.817, 125.930 196.997, 125.810 197.884, 125.220 198.722, 124.663 199.019, 124.465 199.274, 123.360 199.854, 120.840 196.952, 116.289 192.330, 111.818 190.460, 110.008 185.385, 106.355 182.906, 104.570 178.268, 101.130 178.042, 100.963 176.692, 99.962 171.378, 96.828 168.162, 94.931 160.750, 91.835 159.343, 91.247 156.987, 90.263 147.442, 87.280 144.284, 86.294 134.671, 83.539 131.498, 82.630 121.641, 80.944 118.648, 80.432 109.237, 78.888 107.464, 78.597 " />
            <path fill="none" stroke-width="3.0" stroke-linecap="butt" stroke-opacity="1.0" stroke="rgb(0, 0, 0)" stroke-linejoin="round" d=" M 103.008, 83.422 107.691, 83.912 111.428, 84.303 111.771, 84.388 121.482, 86.775 128.067, 88.395 137.670, 91.183 141.280, 92.231 142.459, 92.573 151.787, 96.177 155.290, 97.531 164.450, 101.542 166.433, 102.410 174.798, 106.470 181.246, 110.067 184.931, 112.823 186.317, 113.859 187.316, 115.433 187.609, 115.896 188.203, 116.832 188.370, 117.997 188.569, 119.381 187.688, 119.938 187.180, 120.258 186.035, 120.981 " />
            <path fill="none" stroke-width="3.0" stroke-linecap="butt" stroke-opacity="1.0" stroke="rgb(0, 0, 0)" stroke-linejoin="round" d=" M 99.103, 80.192 99.413, 79.749 100.421, 78.307 102.897, 74.764 103.773, 71.757 104.019, 70.913 104.376, 69.688 104.607, 68.894 105.041, 67.406 105.237, 66.734 105.315, 66.465 105.851, 60.039 105.836, 57.652 105.830, 56.736 105.821, 55.355 105.820, 55.249 " />
            <path fill="none" stroke-width="3.0" stroke-linecap="butt" stroke-opacity="1.0" stroke="rgb(0, 0, 0)" stroke-linejoin="round" d=" M 76.872, 74.863 80.419, 77.206 82.864, 78.404 82.996, 78.469 83.978, 78.950 85.569, 79.730 93.083, 81.322 95.066, 80.950 99.103, 80.192 100.308, 81.630 101.839, 82.810 101.970, 82.911 103.422, 83.341 " />
            <path fill="none" stroke-width="3.0" stroke-linecap="butt" stroke-opacity="1.0" stroke="rgb(0, 0, 0)" stroke-linejoin="round" d=" M 54.221, 81.142 53.900, 79.781 " />
            <path fill="none" stroke-width="3.0" stroke-linecap="butt" stroke-opacity="1.0" stroke="rgb(0, 0, 0)" stroke-linejoin="round" d=" M 79.893, 77.671 77.628, 76.165 76.872, 74.863 72.529, 77.158 66.655, 79.564 61.498, 80.515 59.033, 80.969 53.900, 79.781 52.280, 74.590 " />
            <path fill="none" stroke-width="3.0" stroke-linecap="butt" stroke-opacity="1.0" stroke="rgb(0, 0, 0)" stroke-linejoin="round" d=" M 110.657, 62.533 110.907, 62.183 111.005, 62.045 111.221, 61.741 114.165, 57.610 114.512, 57.115 117.701, 52.556 118.840, 50.928 122.507, 45.279 122.927, 43.735 124.049, 39.618 124.099, 36.483 122.916, 34.253 119.438, 29.971 114.167, 27.506 111.234, 26.392 105.499, 25.258 103.089, 24.989 101.116, 24.769 " />
            <path fill="none" stroke-width="3.0" stroke-linecap="butt" stroke-opacity="1.0" stroke="rgb(0, 0, 0)" stroke-linejoin="round" d=" M 56.010, 56.343 53.326, 52.514 50.335, 47.427 48.913, 42.000 49.383, 36.476 53.734, 32.263 60.770, 28.731 66.459, 27.124 70.771, 26.242 73.361, 22.241 77.249, 17.050 83.325, 11.265 88.731, 8.578 93.342, 10.626 97.610, 15.869 99.828, 20.847 101.116, 24.769 " />
            <path fill="none" stroke-width="3.0" stroke-linecap="butt" stroke-opacity="1.0" stroke="rgb(0, 0, 0)" stroke-linejoin="round" d=" M 108.951, 58.302 107.807, 56.974 107.158, 56.222 105.855, 55.274 105.820, 55.249 105.891, 55.188 106.844, 54.363 110.345, 51.333 111.123, 50.529 115.795, 45.701 116.812, 44.112 119.631, 39.710 121.306, 33.713 117.903, 29.513 111.234, 26.392 " />
            <path fill="none" stroke-width="3.0" stroke-linecap="butt" stroke-opacity="1.0" stroke="rgb(0, 0, 0)" stroke-linejoin="round" d=" M 103.089, 24.989 102.156, 22.595 99.674, 17.751 98.251, 15.482 94.371, 10.724 89.670, 8.639 88.731, 8.578 " />
            <path fill="none" stroke-width="3.0" stroke-linecap="butt" stroke-opacity="1.0" stroke="rgb(0, 0, 0)" stroke-linejoin="round" d=" M 53.326, 52.514 56.102, 56.082 " />
            <path fill="none" stroke-width="3.0" stroke-linecap="butt" stroke-opacity="1.0" stroke="rgb(0, 0, 0)" stroke-linejoin="round" d=" M 191.352, 106.886 188.458, 97.314 186.307, 90.201 185.303, 89.127 184.096, 84.777 179.258, 76.025 177.990, 73.732 171.472, 66.149 170.351, 64.845 164.673, 59.401 156.734, 53.320 156.366, 53.037 149.149, 49.216 142.891, 47.005 138.179, 45.477 137.074, 45.119 130.629, 43.970 126.497, 43.788 124.277, 43.690 122.927, 43.735 " />
            <path fill="none" stroke-width="3.0" stroke-linecap="butt" stroke-opacity="1.0" stroke="rgb(0, 0, 0)" stroke-linejoin="round" d=" M 79.893, 77.671 81.496, 78.608 82.730, 79.329 82.783, 79.360 83.063, 79.524 84.518, 80.374 84.765, 80.518 87.371, 81.563 89.111, 82.261 89.299, 82.337 89.603, 82.459 90.784, 82.932 93.091, 83.426 97.835, 84.441 101.646, 83.691 103.008, 83.422 103.422, 83.341 103.700, 82.944 104.450, 81.870 106.757, 78.568 107.362, 77.702 107.416, 77.539 108.616, 73.967 108.714, 73.673 108.804, 73.406 108.843, 73.199 109.279, 70.912 109.500, 69.749 109.606, 69.193 110.221, 65.960 110.657, 62.533 110.751, 61.793 110.771, 61.639 110.850, 61.012 110.871, 60.852 " />
            <path fill="none" stroke-width="3.0" stroke-linecap="butt" stroke-opacity="1.0" stroke="rgb(0, 0, 0)" stroke-linejoin="round" d=" M 186.848, 103.986 183.021, 100.817 174.972, 97.214 166.753, 93.535 160.750, 91.835 " />
            <path fill="none" stroke-width="3.0" stroke-linecap="butt" stroke-opacity="1.0" stroke="rgb(0, 0, 0)" stroke-linejoin="round" d=" M 121.244, 69.890 119.697, 69.797 " />
            <path fill="none" stroke-width="3.0" stroke-linecap="butt" stroke-opacity="1.0" stroke="rgb(0, 0, 0)" stroke-linejoin="round" d=" M 121.244, 69.890 127.545, 70.876 134.266, 71.929 144.146, 73.476 144.999, 73.610 " />
            <path fill="none" stroke-width="3.0" stroke-linecap="butt" stroke-opacity="1.0" stroke="rgb(0, 0, 0)" stroke-linejoin="round" d=" M 138.179, 45.477 137.537, 44.620 134.202, 43.238 130.147, 42.787 126.981, 43.443 126.497, 43.788 " />
            <path fill="none" stroke-width="3.0" stroke-linecap="butt" stroke-opacity="1.0" stroke="rgb(0, 0, 0)" stroke-linejoin="round" d=" M 199.397, 142.162 200.729, 141.829 208.879, 137.172 209.745, 133.465 209.583, 126.700 205.757, 121.195 199.983, 114.078 192.301, 107.676 191.352, 106.886 190.436, 106.122 186.848, 103.986 185.009, 102.891 176.534, 99.121 171.378, 96.828 " />
            <path fill="none" stroke-width="3.0" stroke-linecap="butt" stroke-opacity="1.0" stroke="rgb(0, 0, 0)" stroke-linejoin="round" d=" M 199.274, 123.360 207.185, 129.477 208.654, 130.612 208.879, 137.172 " />
            <path fill="none" stroke-width="3.0" stroke-linecap="butt" stroke-opacity="1.0" stroke="rgb(0, 0, 0)" stroke-linejoin="round" d=" M 44.209, 93.754 43.580, 94.230 38.120, 98.310 32.059, 104.265 31.622, 107.925 " />
            <path fill="none" stroke-width="3.0" stroke-linecap="butt" stroke-opacity="1.0" stroke="rgb(0, 0, 0)" stroke-linejoin="round" d=" M 209.583, 126.700 201.785, 120.439 199.317, 118.458 " />
            <path fill="none" stroke-width="3.0" stroke-linecap="butt" stroke-opacity="1.0" stroke="rgb(0, 0, 0)" stroke-linejoin="round" d=" M 59.823, 83.101 58.988, 84.389 " />
            <path fill="none" stroke-width="3.0" stroke-linecap="butt" stroke-opacity="1.0" stroke="rgb(0, 0, 0)" stroke-linejoin="round" d=" M 107.245, 78.588 107.569, 77.497 108.616, 73.967 " />
            <path fill="none" stroke-width="3.0" stroke-linecap="butt" stroke-opacity="1.0" stroke="rgb(0, 0, 0)" stroke-linejoin="round" d=" M 108.714, 73.673 110.869, 73.587 " />
            <path fill="none" stroke-width="3.0" stroke-linecap="butt" stroke-opacity="1.0" stroke="rgb(0, 0, 0)" stroke-linejoin="round" d=" M 196.997, 125.810 201.547, 129.213 " />
        </g>
    </g>
</svg>
