<?xml version='1.0' encoding='ascii'?>
<svg xmlns="http://www.w3.org/2000/svg" version="1.1" width="250" height="250">
    <g id="ViewLayer_LineSet" xmlns:inkscape="http://www.inkscape.org/namespaces/inkscape" inkscape:groupmode="lineset" inkscape:label="ViewLayer_LineSet">
        <g xmlns:inkscape="http://www.inkscape.org/namespaces/inkscape" inkscape:groupmode="layer" id="strokes" inkscape:label="strokes">
            <path fill="none" stroke-width="3.0" stroke-linecap="butt" stroke-opacity="1.0" stroke="rgb(0, 0, 0)" stroke-linejoin="round" d=" M 164.494, 199.108 166.803, 197.427 173.753, 190.236 174.423, 189.542 176.420, 186.664 182.050, 178.399 182.598, 177.595 " />
            <path fill="none" stroke-width="3.0" stroke-linecap="butt" stroke-opacity="1.0" stroke="rgb(0, 0, 0)" stroke-linejoin="round" d=" M 59.447, 98.940 57.981, 100.783 53.747, 107.893 49.938, 116.564 49.345, 118.484 48.411, 121.509 48.306, 121.845 47.982, 122.896 47.270, 125.201 46.017, 131.353 45.473, 137.729 45.248, 142.228 45.477, 147.879 45.956, 152.380 46.817, 157.018 47.664, 160.972 48.950, 165.277 50.614, 169.744 52.178, 173.270 52.583, 174.180 54.771, 178.392 57.086, 182.196 59.427, 185.416 62.360, 189.309 65.344, 192.588 69.456, 196.672 72.902, 199.378 77.402, 202.832 78.079, 203.352 84.044, 206.917 89.780, 209.512 93.589, 211.171 98.220, 212.504 " />
            <path fill="none" stroke-width="3.0" stroke-linecap="butt" stroke-opacity="1.0" stroke="rgb(0, 0, 0)" stroke-linejoin="round" d=" M 189.635, 125.159 188.838, 121.433 188.646, 120.938 " />
            <path fill="none" stroke-width="3.0" stroke-linecap="butt" stroke-opacity="1.0" stroke="rgb(0, 0, 0)" stroke-linejoin="round" d=" M 77.110, 150.620 77.664, 152.021 78.393, 153.127 78.402, 153.140 78.423, 153.173 79.028, 154.090 80.922, 155.750 83.117, 156.980 85.159, 157.425 87.253, 157.355 89.627, 156.529 91.676, 155.202 93.226, 153.357 93.941, 152.041 " />
            <path fill="none" stroke-width="3.0" stroke-linecap="butt" stroke-opacity="1.0" stroke="rgb(0, 0, 0)" stroke-linejoin="round" d=" M 117.433, 101.445 117.671, 102.245 118.024, 103.430 118.476, 106.820 118.516, 110.644 118.532, 110.713 117.414, 119.126 117.413, 119.130 117.382, 119.240 116.187, 123.343 114.682, 127.633 112.927, 131.630 110.986, 135.141 108.926, 137.994 108.430, 138.476 108.044, 138.852 106.818, 140.045 104.732, 141.192 102.743, 141.375 101.454, 140.814 100.923, 140.583 99.346, 138.848 98.473, 137.056 98.220, 136.537 98.080, 136.249 97.186, 132.909 96.714, 128.988 96.692, 124.673 97.127, 120.172 97.984, 115.760 98.124, 115.276 98.168, 115.123 99.187, 111.598 100.708, 107.695 102.487, 104.194 104.455, 101.219 105.408, 100.144 " />
            <path fill="none" stroke-width="3.0" stroke-linecap="butt" stroke-opacity="1.0" stroke="rgb(0, 0, 0)" stroke-linejoin="round" d=" M 77.311, 119.087 76.333, 123.380 76.179, 123.966 75.249, 127.490 74.240, 130.688 74.108, 131.104 74.074, 131.214 72.812, 134.366 71.473, 136.788 70.069, 138.360 68.911, 138.881 68.631, 139.007 67.219, 139.001 65.844, 137.464 64.636, 135.361 63.661, 132.501 62.998, 129.031 62.908, 127.791 62.874, 127.315 62.715, 125.123 62.853, 120.967 63.137, 118.854 63.412, 116.818 64.278, 112.819 65.396, 108.976 66.721, 105.424 67.296, 104.202 67.538, 103.689 68.198, 102.286 69.771, 99.669 70.629, 98.596 " />
            <path fill="none" stroke-width="3.0" stroke-linecap="butt" stroke-opacity="1.0" stroke="rgb(0, 0, 0)" stroke-linejoin="round" d=" M 67.219, 139.001 70.424, 140.391 " />
            <path fill="none" stroke-width="3.0" stroke-linecap="butt" stroke-opacity="1.0" stroke="rgb(0, 0, 0)" stroke-linejoin="round" d=" M 77.868, 98.373 77.875, 98.384 78.527, 100.689 78.887, 103.602 78.996, 107.089 78.830, 109.107 78.806, 109.399 78.687, 110.831 " />
            <path fill="none" stroke-width="3.0" stroke-linecap="butt" stroke-opacity="1.0" stroke="rgb(0, 0, 0)" stroke-linejoin="round" d=" M 80.418, 121.041 77.311, 119.087 78.135, 114.882 78.687, 110.831 81.755, 112.878 " />
            <path fill="none" stroke-width="3.0" stroke-linecap="butt" stroke-opacity="1.0" stroke="rgb(0, 0, 0)" stroke-linejoin="round" d=" M 134.185, 241.602 140.527, 241.984 147.351, 241.915 153.798, 241.110 159.564, 240.141 163.988, 238.974 168.361, 237.246 172.478, 233.121 173.195, 232.184 175.398, 228.426 176.653, 224.445 176.902, 219.833 175.985, 214.891 173.332, 208.862 169.594, 203.513 164.761, 199.263 164.494, 199.108 161.720, 197.489 155.925, 194.326 " />
            <path fill="none" stroke-width="3.0" stroke-linecap="butt" stroke-opacity="1.0" stroke="rgb(0, 0, 0)" stroke-linejoin="round" d=" M 96.619, 217.045 95.977, 219.970 95.652, 221.452 95.431, 225.178 96.161, 229.086 98.195, 233.342 98.677, 233.693 100.899, 235.307 102.890, 236.517 104.518, 237.496 109.840, 239.226 116.335, 240.540 122.038, 241.215 128.514, 241.591 134.185, 241.602 137.030, 241.608 " />
            <path fill="none" stroke-width="3.0" stroke-linecap="butt" stroke-opacity="1.0" stroke="rgb(0, 0, 0)" stroke-linejoin="round" d=" M 107.819, 200.095 103.817, 204.301 100.657, 208.370 98.220, 212.504 98.087, 212.729 96.520, 216.969 95.977, 219.970 " />
            <path fill="none" stroke-width="3.0" stroke-linecap="butt" stroke-opacity="1.0" stroke="rgb(0, 0, 0)" stroke-linejoin="round" d=" M 77.402, 202.832 76.998, 205.009 76.490, 208.135 76.635, 213.307 76.679, 216.254 77.326, 218.655 79.369, 223.680 80.628, 225.860 84.060, 229.437 88.349, 232.220 92.553, 233.484 96.999, 233.718 98.677, 233.693 " />
            <path fill="none" stroke-width="3.0" stroke-linecap="butt" stroke-opacity="1.0" stroke="rgb(0, 0, 0)" stroke-linejoin="round" d=" M 182.598, 177.595 186.057, 179.162 188.453, 179.958 192.780, 181.155 196.757, 181.695 200.646, 181.543 205.313, 180.369 207.685, 179.391 210.041, 177.984 212.496, 176.047 212.602, 175.946 215.038, 173.379 217.112, 170.052 218.223, 167.333 218.381, 166.929 218.936, 164.967 219.004, 164.650 219.402, 162.014 219.339, 159.104 219.190, 157.384 218.398, 153.502 216.912, 149.719 214.705, 145.766 210.766, 140.941 209.079, 139.179 206.962, 136.980 206.557, 136.559 205.020, 134.963 200.984, 131.293 196.684, 128.309 191.976, 125.983 189.635, 125.159 " />
            <path fill="none" stroke-width="3.0" stroke-linecap="butt" stroke-opacity="1.0" stroke="rgb(0, 0, 0)" stroke-linejoin="round" d=" M 47.982, 122.896 44.697, 124.627 40.502, 127.653 36.548, 131.334 32.536, 135.558 28.680, 140.477 26.371, 144.509 24.807, 148.364 23.956, 152.342 23.897, 155.813 24.435, 159.698 25.404, 162.610 26.891, 165.399 28.867, 168.042 31.213, 170.194 33.843, 171.992 36.702, 173.354 39.829, 174.242 43.253, 174.689 47.298, 174.449 51.344, 173.563 52.178, 173.270 " />
            <path fill="none" stroke-width="3.0" stroke-linecap="butt" stroke-opacity="1.0" stroke="rgb(0, 0, 0)" stroke-linejoin="round" d=" M 116.265, 71.129 119.333, 68.776 119.514, 68.638 119.672, 68.315 119.709, 68.240 121.366, 64.866 122.351, 62.276 122.332, 58.594 121.315, 55.925 119.410, 52.216 117.670, 50.945 " />
            <path fill="none" stroke-width="3.0" stroke-linecap="butt" stroke-opacity="1.0" stroke="rgb(0, 0, 0)" stroke-linejoin="round" d=" M 56.093, 54.440 55.999, 54.706 54.479, 59.002 52.839, 65.090 52.270, 72.938 52.560, 74.205 54.212, 79.490 56.701, 80.737 59.977, 81.497 61.575, 81.867 61.846, 81.930 65.730, 82.382 71.741, 81.324 77.305, 79.902 82.752, 77.730 82.820, 77.703 " />
            <path fill="none" stroke-width="3.0" stroke-linecap="butt" stroke-opacity="1.0" stroke="rgb(0, 0, 0)" stroke-linejoin="round" d=" M 33.808, 111.071 31.606, 106.535 32.787, 105.383 37.487, 100.799 41.843, 99.686 49.772, 97.659 53.180, 96.788 56.843, 96.658 59.064, 96.579 61.390, 96.496 71.384, 96.142 73.612, 96.063 75.945, 95.980 75.955, 95.979 79.966, 95.837 89.936, 96.614 99.905, 97.391 107.664, 97.996 113.685, 98.466 116.256, 98.914 116.312, 98.924 126.163, 100.644 136.014, 102.364 145.865, 104.084 147.679, 104.400 157.341, 106.980 167.002, 109.560 176.664, 112.140 177.095, 112.255 178.196, 112.711 178.834, 112.975 183.075, 114.731 " />
            <path fill="none" stroke-width="3.0" stroke-linecap="butt" stroke-opacity="1.0" stroke="rgb(0, 0, 0)" stroke-linejoin="round" d=" M 206.557, 136.559 206.675, 136.489 206.306, 130.120 200.076, 125.355 197.921, 123.707 " />
            <path fill="none" stroke-width="3.0" stroke-linecap="butt" stroke-opacity="1.0" stroke="rgb(0, 0, 0)" stroke-linejoin="round" d=" M 39.006, 107.176 40.874, 105.534 44.975, 101.930 54.739, 99.770 58.337, 98.974 " />
            <path fill="none" stroke-width="3.0" stroke-linecap="butt" stroke-opacity="1.0" stroke="rgb(0, 0, 0)" stroke-linejoin="round" d=" M 38.862, 115.967 47.138, 121.367 48.306, 121.845 " />
            <path fill="none" stroke-width="3.0" stroke-linecap="butt" stroke-opacity="1.0" stroke="rgb(0, 0, 0)" stroke-linejoin="round" d=" M 55.977, 99.047 46.217, 101.221 45.569, 101.365 41.089, 102.363 39.815, 102.647 33.806, 108.170 34.551, 109.749 " />
            <path fill="none" stroke-width="3.0" stroke-linecap="butt" stroke-opacity="1.0" stroke="rgb(0, 0, 0)" stroke-linejoin="round" d=" M 55.977, 99.047 58.337, 98.974 59.447, 98.940 59.518, 98.938 61.365, 98.881 70.629, 98.596 76.192, 98.424 77.868, 98.373 79.188, 98.332 81.512, 98.261 91.481, 99.046 101.450, 99.832 105.408, 100.144 110.230, 100.524 113.439, 100.777 117.433, 101.445 117.988, 101.538 127.851, 103.189 134.657, 104.328 144.520, 105.979 146.749, 106.352 156.418, 108.904 166.087, 111.457 175.703, 113.995 179.324, 115.474 184.375, 117.536 " />
            <path fill="none" stroke-width="3.0" stroke-linecap="butt" stroke-opacity="1.0" stroke="rgb(0, 0, 0)" stroke-linejoin="round" d=" M 41.015, 93.145 36.211, 97.063 33.043, 100.277 31.231, 103.129 30.061, 106.168 30.054, 108.637 30.518, 110.813 34.845, 114.960 37.525, 116.434 38.862, 115.967 38.885, 115.959 40.787, 115.295 42.048, 114.435 43.643, 113.347 45.229, 108.266 " />
            <path fill="none" stroke-width="3.0" stroke-linecap="butt" stroke-opacity="1.0" stroke="rgb(0, 0, 0)" stroke-linejoin="round" d=" M 33.249, 112.405 30.518, 110.813 " />
            <path fill="none" stroke-width="3.0" stroke-linecap="butt" stroke-opacity="1.0" stroke="rgb(0, 0, 0)" stroke-linejoin="round" d=" M 43.643, 113.347 39.914, 110.981 " />
            <path fill="none" stroke-width="3.0" stroke-linecap="butt" stroke-opacity="1.0" stroke="rgb(0, 0, 0)" stroke-linejoin="round" d=" M 40.796, 108.641 39.914, 110.981 36.492, 111.944 " />
            <path fill="none" stroke-width="3.0" stroke-linecap="butt" stroke-opacity="1.0" stroke="rgb(0, 0, 0)" stroke-linejoin="round" d=" M 57.454, 83.562 50.502, 86.876 42.159, 92.389 41.015, 93.145 47.273, 89.083 48.485, 88.426 57.276, 83.659 57.454, 83.562 59.068, 82.898 61.575, 81.867 " />
            <path fill="none" stroke-width="3.0" stroke-linecap="butt" stroke-opacity="1.0" stroke="rgb(0, 0, 0)" stroke-linejoin="round" d=" M 47.273, 89.083 49.627, 88.125 49.781, 88.062 53.228, 86.658 55.743, 85.635 57.666, 85.060 67.248, 82.199 67.369, 82.163 77.318, 81.160 78.442, 81.046 80.460, 80.843 81.797, 80.809 87.693, 80.658 88.884, 80.711 89.544, 80.740 " />
            <path fill="none" stroke-width="3.0" stroke-linecap="butt" stroke-opacity="1.0" stroke="rgb(0, 0, 0)" stroke-linejoin="round" d=" M 179.324, 115.474 180.001, 117.130 182.421, 118.275 183.018, 118.558 183.679, 118.837 188.646, 120.938 196.864, 124.414 197.005, 124.320 197.921, 123.707 198.718, 123.172 199.067, 122.939 199.320, 121.840 199.902, 119.307 196.999, 114.747 192.330, 110.227 190.504, 108.460 183.914, 103.709 182.948, 103.013 178.642, 99.815 177.688, 99.106 176.732, 98.396 171.717, 95.434 168.198, 93.356 161.091, 90.383 158.479, 89.290 157.019, 88.679 147.474, 85.697 144.311, 84.708 134.698, 81.955 131.520, 81.044 121.663, 79.363 118.664, 78.852 109.255, 77.315 107.476, 77.025 " />
            <path fill="none" stroke-width="3.0" stroke-linecap="butt" stroke-opacity="1.0" stroke="rgb(0, 0, 0)" stroke-linejoin="round" d=" M 102.803, 81.776 107.722, 82.286 111.442, 82.671 112.218, 82.862 121.930, 85.244 128.088, 86.755 137.692, 89.541 141.988, 90.788 142.487, 90.932 151.814, 94.539 155.323, 95.896 164.481, 99.911 166.470, 100.783 174.838, 104.851 181.289, 108.459 184.845, 111.124 186.361, 112.260 187.421, 113.935 187.769, 114.484 188.248, 115.242 188.455, 116.686 188.614, 117.796 187.663, 118.401 187.204, 118.692 186.079, 119.407 " />
            <path fill="none" stroke-width="3.0" stroke-linecap="butt" stroke-opacity="1.0" stroke="rgb(0, 0, 0)" stroke-linejoin="round" d=" M 99.113, 78.451 100.310, 76.740 102.908, 73.021 103.667, 70.418 103.978, 69.351 104.327, 68.156 104.562, 67.348 104.998, 65.854 105.247, 65.001 105.327, 64.725 105.864, 58.304 105.850, 56.132 105.843, 55.157 105.834, 53.737 105.833, 53.517 " />
            <path fill="none" stroke-width="3.0" stroke-linecap="butt" stroke-opacity="1.0" stroke="rgb(0, 0, 0)" stroke-linejoin="round" d=" M 76.872, 73.167 80.421, 75.501 83.046, 76.781 83.209, 76.861 84.297, 77.391 85.573, 78.013 93.090, 79.590 99.113, 78.451 99.132, 78.474 100.318, 79.895 101.981, 81.195 102.158, 81.251 103.434, 81.651 " />
            <path fill="none" stroke-width="3.0" stroke-linecap="butt" stroke-opacity="1.0" stroke="rgb(0, 0, 0)" stroke-linejoin="round" d=" M 54.212, 79.490 53.890, 78.121 " />
            <path fill="none" stroke-width="3.0" stroke-linecap="butt" stroke-opacity="1.0" stroke="rgb(0, 0, 0)" stroke-linejoin="round" d=" M 79.894, 76.001 77.629, 74.475 76.872, 73.167 72.527, 75.467 66.651, 77.882 61.728, 78.797 59.026, 79.300 53.890, 78.121 52.270, 72.938 " />
            <path fill="none" stroke-width="3.0" stroke-linecap="butt" stroke-opacity="1.0" stroke="rgb(0, 0, 0)" stroke-linejoin="round" d=" M 110.667, 60.891 110.900, 60.563 110.964, 60.473 111.199, 60.144 114.181, 55.957 114.496, 55.503 117.670, 50.945 118.858, 49.239 122.526, 43.586 122.855, 42.380 124.069, 37.926 124.119, 34.767 122.936, 32.518 119.456, 28.247 114.183, 25.793 111.248, 24.676 105.511, 23.553 103.085, 23.288 101.127, 23.073 " />
            <path fill="none" stroke-width="3.0" stroke-linecap="butt" stroke-opacity="1.0" stroke="rgb(0, 0, 0)" stroke-linejoin="round" d=" M 55.999, 54.706 53.316, 50.880 50.324, 45.803 48.901, 40.384 49.372, 34.864 53.725, 30.647 60.763, 27.105 66.455, 25.489 70.769, 24.600 73.359, 20.598 77.249, 15.405 83.328, 9.614 88.736, 6.920 93.349, 8.957 97.618, 14.188 99.838, 19.157 101.127, 23.073 " />
            <path fill="none" stroke-width="3.0" stroke-linecap="butt" stroke-opacity="1.0" stroke="rgb(0, 0, 0)" stroke-linejoin="round" d=" M 108.965, 56.599 107.704, 55.121 107.171, 54.497 105.904, 53.570 105.833, 53.517 105.980, 53.390 106.805, 52.675 110.360, 49.596 110.992, 48.943 115.812, 43.960 116.583, 42.757 119.650, 37.967 121.326, 31.972 117.921, 27.783 111.248, 24.676 " />
            <path fill="none" stroke-width="3.0" stroke-linecap="butt" stroke-opacity="1.0" stroke="rgb(0, 0, 0)" stroke-linejoin="round" d=" M 103.085, 23.288 102.166, 20.933 99.683, 16.096 98.259, 13.809 94.378, 9.063 89.676, 6.988 88.736, 6.920 " />
            <path fill="none" stroke-width="3.0" stroke-linecap="butt" stroke-opacity="1.0" stroke="rgb(0, 0, 0)" stroke-linejoin="round" d=" M 53.316, 50.880 56.093, 54.440 " />
            <path fill="none" stroke-width="3.0" stroke-linecap="butt" stroke-opacity="1.0" stroke="rgb(0, 0, 0)" stroke-linejoin="round" d=" M 191.354, 105.364 188.456, 95.794 186.345, 88.822 185.341, 87.751 184.133, 83.404 179.289, 74.656 178.025, 72.374 171.498, 64.798 170.382, 63.503 164.704, 58.017 156.750, 51.955 156.393, 51.682 149.174, 47.838 142.913, 45.663 138.140, 44.109 137.094, 43.769 130.647, 42.619 126.586, 42.443 124.293, 42.344 122.855, 42.380 " />
            <path fill="none" stroke-width="3.0" stroke-linecap="butt" stroke-opacity="1.0" stroke="rgb(0, 0, 0)" stroke-linejoin="round" d=" M 79.894, 76.001 81.687, 77.043 82.769, 77.673 82.820, 77.703 83.327, 77.997 84.564, 78.717 84.768, 78.835 87.704, 80.006 89.392, 80.679 89.544, 80.740 90.080, 80.953 90.789, 81.236 93.674, 81.860 97.844, 82.761 101.128, 82.109 102.803, 81.776 103.434, 81.651 103.640, 81.356 104.378, 80.300 106.689, 76.994 107.199, 76.264 107.375, 76.012 108.689, 72.102 108.817, 71.719 109.231, 69.549 109.486, 68.209 109.594, 67.644 110.235, 64.280 110.667, 60.891 110.747, 60.259 110.773, 60.057 110.850, 59.455 110.885, 59.176 " />
            <path fill="none" stroke-width="3.0" stroke-linecap="butt" stroke-opacity="1.0" stroke="rgb(0, 0, 0)" stroke-linejoin="round" d=" M 186.692, 102.385 183.061, 99.349 174.853, 95.645 166.788, 92.005 161.091, 90.383 " />
            <path fill="none" stroke-width="3.0" stroke-linecap="butt" stroke-opacity="1.0" stroke="rgb(0, 0, 0)" stroke-linejoin="round" d=" M 121.261, 68.331 119.709, 68.240 " />
            <path fill="none" stroke-width="3.0" stroke-linecap="butt" stroke-opacity="1.0" stroke="rgb(0, 0, 0)" stroke-linejoin="round" d=" M 121.261, 68.331 130.345, 69.759 132.454, 70.091 142.333, 71.644 145.026, 72.067 " />
            <path fill="none" stroke-width="3.0" stroke-linecap="butt" stroke-opacity="1.0" stroke="rgb(0, 0, 0)" stroke-linejoin="round" d=" M 138.140, 44.109 137.557, 43.326 134.221, 41.937 130.164, 41.486 126.997, 42.151 126.586, 42.443 " />
            <path fill="none" stroke-width="3.0" stroke-linecap="butt" stroke-opacity="1.0" stroke="rgb(0, 0, 0)" stroke-linejoin="round" d=" M 206.962, 136.980 208.924, 135.839 209.790, 132.132 209.631, 125.270 205.803, 119.773 200.028, 112.668 192.378, 106.227 191.354, 105.364 190.479, 104.627 186.692, 102.385 185.049, 101.413 176.401, 97.535 171.717, 95.434 " />
            <path fill="none" stroke-width="3.0" stroke-linecap="butt" stroke-opacity="1.0" stroke="rgb(0, 0, 0)" stroke-linejoin="round" d=" M 199.320, 121.840 207.195, 128.002 208.702, 129.182 208.924, 135.839 " />
            <path fill="none" stroke-width="3.0" stroke-linecap="butt" stroke-opacity="1.0" stroke="rgb(0, 0, 0)" stroke-linejoin="round" d=" M 44.377, 92.145 43.568, 92.757 38.105, 96.825 32.043, 102.878 31.606, 106.535 " />
            <path fill="none" stroke-width="3.0" stroke-linecap="butt" stroke-opacity="1.0" stroke="rgb(0, 0, 0)" stroke-linejoin="round" d=" M 209.631, 125.270 201.870, 118.965 199.365, 116.930 " />
            <path fill="none" stroke-width="3.0" stroke-linecap="butt" stroke-opacity="1.0" stroke="rgb(0, 0, 0)" stroke-linejoin="round" d=" M 59.977, 81.497 59.068, 82.898 " />
            <path fill="none" stroke-width="3.0" stroke-linecap="butt" stroke-opacity="1.0" stroke="rgb(0, 0, 0)" stroke-linejoin="round" d=" M 107.256, 77.016 107.505, 76.180 108.717, 72.101 " />
            <path fill="none" stroke-width="3.0" stroke-linecap="butt" stroke-opacity="1.0" stroke="rgb(0, 0, 0)" stroke-linejoin="round" d=" M 108.689, 72.102 108.717, 72.101 110.884, 72.032 " />
            <path fill="none" stroke-width="3.0" stroke-linecap="butt" stroke-opacity="1.0" stroke="rgb(0, 0, 0)" stroke-linejoin="round" d=" M 197.005, 124.320 201.592, 127.792 " />
        </g>
    </g>
</svg>
