<?xml version='1.0' encoding='ascii'?>
<svg xmlns="http://www.w3.org/2000/svg" version="1.1" width="250" height="250">
    <g id="ViewLayer_LineSet" xmlns:inkscape="http://www.inkscape.org/namespaces/inkscape" inkscape:groupmode="lineset" inkscape:label="ViewLayer_LineSet">
        <g xmlns:inkscape="http://www.inkscape.org/namespaces/inkscape" inkscape:groupmode="layer" id="strokes" inkscape:label="strokes">
            <path fill="none" stroke-width="3.0" stroke-linecap="butt" stroke-opacity="1.0" stroke="rgb(0, 0, 0)" stroke-linejoin="round" d=" M 107.851, 215.382 111.333, 215.828 112.063, 215.922 116.536, 216.185 121.071, 216.158 125.464, 215.842 129.521, 215.254 129.651, 215.225 135.412, 213.949 140.675, 212.716 144.907, 211.194 153.472, 207.143 157.315, 204.946 165.408, 199.073 165.897, 198.718 172.838, 191.519 173.442, 190.892 174.053, 190.205 " />
            <path fill="none" stroke-width="3.0" stroke-linecap="butt" stroke-opacity="1.0" stroke="rgb(0, 0, 0)" stroke-linejoin="round" d=" M 59.521, 99.564 57.558, 102.044 53.237, 109.574 49.583, 117.977 49.575, 118.007 48.728, 121.088 48.653, 121.361 47.494, 125.579 47.137, 126.964 46.052, 131.676 45.308, 137.996 45.290, 144.479 45.327, 148.054 46.040, 153.739 46.533, 157.125 47.464, 161.048 48.468, 164.377 49.369, 167.294 50.496, 170.332 51.798, 173.355 53.216, 176.225 54.414, 178.393 56.577, 182.195 58.730, 185.421 60.889, 188.118 61.847, 189.314 " />
            <path fill="none" stroke-width="3.0" stroke-linecap="butt" stroke-opacity="1.0" stroke="rgb(0, 0, 0)" stroke-linejoin="round" d=" M 190.698, 132.667 190.639, 132.303 188.690, 123.167 " />
            <path fill="none" stroke-width="3.0" stroke-linecap="butt" stroke-opacity="1.0" stroke="rgb(0, 0, 0)" stroke-linejoin="round" d=" M 73.927, 151.069 74.454, 152.467 75.762, 154.536 77.585, 156.204 79.696, 157.447 81.665, 157.908 83.692, 157.857 85.996, 157.056 87.984, 155.752 88.700, 154.883 89.490, 153.926 90.190, 152.622 " />
            <path fill="none" stroke-width="3.0" stroke-linecap="butt" stroke-opacity="1.0" stroke="rgb(0, 0, 0)" stroke-linejoin="round" d=" M 113.916, 102.474 114.397, 104.246 114.766, 107.635 114.719, 111.457 114.738, 111.526 113.642, 118.669 113.628, 118.763 113.448, 119.933 112.134, 124.138 110.567, 128.416 108.769, 132.399 106.805, 135.894 105.328, 137.922 105.027, 138.335 104.741, 138.728 102.644, 140.761 100.581, 141.891 98.623, 142.061 97.927, 141.747 96.841, 141.258 95.307, 139.518 94.089, 136.920 93.811, 135.818 93.682, 135.303 93.249, 133.585 92.837, 129.673 92.882, 125.372 93.392, 120.886 94.327, 116.491 94.968, 114.409 95.006, 114.287 95.604, 112.344 97.191, 108.456 99.025, 104.969 101.035, 102.005 101.905, 101.041 " />
            <path fill="none" stroke-width="3.0" stroke-linecap="butt" stroke-opacity="1.0" stroke="rgb(0, 0, 0)" stroke-linejoin="round" d=" M 74.205, 119.714 73.167, 123.980 72.048, 128.062 71.605, 129.442 71.463, 129.886 70.862, 131.758 69.615, 134.885 68.311, 137.283 66.963, 138.836 66.203, 139.187 65.594, 139.469 64.260, 139.452 62.980, 137.915 61.869, 135.818 60.995, 132.971 60.435, 129.519 60.274, 126.085 60.254, 125.664 60.253, 125.636 60.435, 122.427 60.458, 122.014 60.487, 121.508 61.135, 117.389 62.076, 113.420 63.251, 109.605 64.614, 106.080 66.011, 103.174 66.111, 102.966 66.453, 102.399 67.682, 100.368 68.531, 99.300 " />
            <path fill="none" stroke-width="3.0" stroke-linecap="butt" stroke-opacity="1.0" stroke="rgb(0, 0, 0)" stroke-linejoin="round" d=" M 64.260, 139.452 67.694, 140.847 " />
            <path fill="none" stroke-width="3.0" stroke-linecap="butt" stroke-opacity="1.0" stroke="rgb(0, 0, 0)" stroke-linejoin="round" d=" M 75.381, 99.099 75.388, 99.113 75.930, 101.409 76.177, 104.310 76.176, 107.470 76.175, 107.781 76.154, 107.977 75.759, 111.504 " />
            <path fill="none" stroke-width="3.0" stroke-linecap="butt" stroke-opacity="1.0" stroke="rgb(0, 0, 0)" stroke-linejoin="round" d=" M 77.547, 121.663 74.205, 119.714 74.565, 118.051 75.111, 115.534 75.759, 111.504 79.059, 113.543 " />
            <path fill="none" stroke-width="3.0" stroke-linecap="butt" stroke-opacity="1.0" stroke="rgb(0, 0, 0)" stroke-linejoin="round" d=" M 131.196, 220.371 132.079, 223.727 133.346, 225.766 136.887, 230.270 142.300, 233.991 147.568, 235.783 153.222, 236.285 158.407, 235.634 165.044, 233.647 170.590, 230.906 176.085, 227.059 179.324, 223.091 180.676, 221.306 183.857, 215.871 187.645, 206.617 188.454, 204.640 189.145, 202.945 191.843, 193.315 192.213, 191.998 192.223, 191.759 " />
            <path fill="none" stroke-width="3.0" stroke-linecap="butt" stroke-opacity="1.0" stroke="rgb(0, 0, 0)" stroke-linejoin="round" d=" M 60.889, 188.118 57.825, 189.332 52.637, 192.293 46.491, 196.328 41.080, 201.387 38.074, 204.236 35.467, 208.874 34.020, 211.753 32.294, 215.924 31.452, 219.924 31.493, 223.604 32.071, 226.884 32.927, 230.795 35.696, 233.741 38.243, 236.301 42.613, 238.725 46.973, 240.086 51.967, 240.627 58.804, 240.648 63.209, 240.368 70.016, 239.028 73.637, 238.276 77.568, 237.092 85.343, 233.610 93.253, 229.439 100.108, 225.622 103.238, 223.611 106.991, 220.917 109.963, 217.770 111.298, 215.893 111.333, 215.828 " />
            <path fill="none" stroke-width="3.0" stroke-linecap="butt" stroke-opacity="1.0" stroke="rgb(0, 0, 0)" stroke-linejoin="round" d=" M 164.947, 183.855 166.890, 185.670 170.558, 188.338 174.053, 190.205 174.164, 190.264 177.939, 191.530 181.334, 192.585 184.459, 192.782 188.304, 192.627 190.777, 192.182 192.223, 191.759 193.821, 191.291 195.764, 190.316 198.071, 189.053 200.087, 187.491 201.683, 186.144 203.910, 183.606 205.282, 181.510 206.807, 178.256 207.778, 175.322 208.386, 171.958 208.774, 168.031 208.407, 164.008 207.395, 159.608 206.640, 156.994 204.478, 151.222 201.687, 146.160 199.295, 142.423 199.254, 142.359 198.809, 141.664 195.752, 137.609 193.767, 135.447 190.698, 132.667 190.207, 132.222 184.987, 129.252 " />
            <path fill="none" stroke-width="3.0" stroke-linecap="butt" stroke-opacity="1.0" stroke="rgb(0, 0, 0)" stroke-linejoin="round" d=" M 116.289, 69.760 116.647, 69.472 116.796, 69.144 116.832, 69.064 118.354, 65.705 119.456, 63.112 119.426, 59.433 118.279, 56.772 116.498, 53.070 113.969, 51.154 " />
            <path fill="none" stroke-width="3.0" stroke-linecap="butt" stroke-opacity="1.0" stroke="rgb(0, 0, 0)" stroke-linejoin="round" d=" M 52.954, 55.517 52.896, 55.676 51.305, 60.048 49.598, 66.091 48.877, 73.877 50.313, 79.019 50.718, 80.373 53.373, 81.603 58.284, 82.791 59.791, 82.952 59.843, 82.958 62.390, 83.231 68.217, 82.183 73.667, 80.769 78.754, 78.700 " />
            <path fill="none" stroke-width="3.0" stroke-linecap="butt" stroke-opacity="1.0" stroke="rgb(0, 0, 0)" stroke-linejoin="round" d=" M 31.831, 107.046 33.273, 105.236 36.314, 101.417 42.822, 99.619 49.384, 97.806 50.479, 97.504 58.091, 97.241 60.134, 97.170 61.453, 97.125 71.461, 96.779 73.628, 96.704 73.658, 96.703 75.907, 96.626 85.874, 97.438 95.841, 98.250 104.113, 98.923 108.878, 99.312 112.904, 100.020 113.143, 100.062 122.992, 101.794 132.841, 103.526 142.690, 105.258 143.012, 105.314 152.684, 107.854 162.356, 110.394 172.028, 112.933 173.297, 113.267 175.392, 114.091 176.765, 114.632 179.764, 115.813 " />
            <path fill="none" stroke-width="3.0" stroke-linecap="butt" stroke-opacity="1.0" stroke="rgb(0, 0, 0)" stroke-linejoin="round" d=" M 199.295, 142.423 200.242, 142.238 206.981, 137.724 205.340, 131.326 199.883, 127.622 195.688, 124.775 " />
            <path fill="none" stroke-width="3.0" stroke-linecap="butt" stroke-opacity="1.0" stroke="rgb(0, 0, 0)" stroke-linejoin="round" d=" M 43.870, 102.547 53.602, 100.246 56.053, 99.666 " />
            <path fill="none" stroke-width="3.0" stroke-linecap="butt" stroke-opacity="1.0" stroke="rgb(0, 0, 0)" stroke-linejoin="round" d=" M 53.337, 99.746 44.743, 101.796 41.874, 102.481 38.651, 103.250 34.019, 108.669 34.780, 109.837 " />
            <path fill="none" stroke-width="3.0" stroke-linecap="butt" stroke-opacity="1.0" stroke="rgb(0, 0, 0)" stroke-linejoin="round" d=" M 53.337, 99.746 56.053, 99.666 59.521, 99.564 61.040, 99.520 62.703, 99.471 68.531, 99.300 74.253, 99.132 75.381, 99.099 77.080, 99.049 77.603, 99.034 87.569, 99.857 97.535, 100.680 101.905, 101.041 107.017, 101.464 108.827, 101.613 113.916, 102.474 115.035, 102.663 124.895, 104.332 134.755, 106.000 142.226, 107.264 151.905, 109.779 161.583, 112.295 171.261, 114.810 172.020, 115.007 176.453, 116.732 183.241, 119.372 " />
            <path fill="none" stroke-width="3.0" stroke-linecap="butt" stroke-opacity="1.0" stroke="rgb(0, 0, 0)" stroke-linejoin="round" d=" M 104.512, 71.592 105.176, 72.967 105.847, 72.945 108.256, 72.867 " />
            <path fill="none" stroke-width="3.0" stroke-linecap="butt" stroke-opacity="1.0" stroke="rgb(0, 0, 0)" stroke-linejoin="round" d=" M 56.613, 84.336 49.917, 87.815 49.478, 88.043 46.055, 89.822 40.334, 93.829 35.999, 97.691 33.184, 100.859 31.655, 103.670 30.711, 106.669 30.800, 109.108 31.296, 111.262 36.257, 115.360 38.904, 116.829 40.299, 116.344 40.453, 116.290 42.115, 115.712 43.671, 114.646 44.916, 113.792 46.398, 108.764 " />
            <path fill="none" stroke-width="3.0" stroke-linecap="butt" stroke-opacity="1.0" stroke="rgb(0, 0, 0)" stroke-linejoin="round" d=" M 33.974, 112.845 31.296, 111.262 " />
            <path fill="none" stroke-width="3.0" stroke-linecap="butt" stroke-opacity="1.0" stroke="rgb(0, 0, 0)" stroke-linejoin="round" d=" M 44.916, 113.792 40.510, 111.456 " />
            <path fill="none" stroke-width="3.0" stroke-linecap="butt" stroke-opacity="1.0" stroke="rgb(0, 0, 0)" stroke-linejoin="round" d=" M 41.328, 109.219 40.510, 111.456 37.149, 112.399 " />
            <path fill="none" stroke-width="3.0" stroke-linecap="butt" stroke-opacity="1.0" stroke="rgb(0, 0, 0)" stroke-linejoin="round" d=" M 59.791, 82.952 56.613, 84.336 50.163, 87.610 49.478, 88.043 " />
            <path fill="none" stroke-width="3.0" stroke-linecap="butt" stroke-opacity="1.0" stroke="rgb(0, 0, 0)" stroke-linejoin="round" d=" M 46.055, 89.822 47.982, 88.990 49.403, 88.377 50.486, 87.909 50.738, 87.800 53.937, 86.419 58.510, 84.989 64.906, 82.988 74.852, 81.951 77.383, 81.687 78.461, 81.659 79.369, 81.635 84.359, 81.506 84.761, 81.524 " />
            <path fill="none" stroke-width="3.0" stroke-linecap="butt" stroke-opacity="1.0" stroke="rgb(0, 0, 0)" stroke-linejoin="round" d=" M 176.453, 116.732 177.026, 118.159 179.920, 119.611 181.044, 120.067 182.441, 120.633 188.690, 123.167 194.579, 125.554 195.098, 125.189 195.688, 124.775 196.677, 124.081 196.930, 122.896 196.966, 122.728 197.458, 120.424 194.437, 115.818 192.849, 114.291 188.236, 109.856 187.828, 109.464 180.439, 104.202 180.103, 103.963 173.756, 99.308 173.643, 99.242 166.913, 95.315 165.059, 94.233 162.548, 93.189 156.597, 90.716 153.744, 89.530 144.200, 86.545 140.996, 85.543 131.385, 82.781 128.229, 81.874 118.373, 80.181 115.485, 79.684 106.423, 78.186 104.471, 77.864 " />
            <path fill="none" stroke-width="3.0" stroke-linecap="butt" stroke-opacity="1.0" stroke="rgb(0, 0, 0)" stroke-linejoin="round" d=" M 98.570, 82.571 104.689, 83.219 107.545, 83.521 107.741, 83.570 117.446, 85.982 123.986, 87.607 133.585, 90.411 135.791, 91.055 138.338, 91.799 147.666, 95.404 151.248, 96.788 160.413, 100.788 162.527, 101.711 171.040, 105.815 177.662, 109.458 182.896, 113.297 183.862, 114.759 184.882, 116.302 185.284, 118.726 185.308, 118.875 184.067, 119.694 182.872, 120.482 " />
            <path fill="none" stroke-width="3.0" stroke-linecap="butt" stroke-opacity="1.0" stroke="rgb(0, 0, 0)" stroke-linejoin="round" d=" M 93.845, 79.356 95.156, 77.485 97.641, 73.939 98.058, 72.575 98.809, 70.118 99.158, 68.975 99.441, 68.047 99.844, 66.730 100.171, 65.660 100.835, 59.252 100.886, 56.091 100.912, 54.475 " />
            <path fill="none" stroke-width="3.0" stroke-linecap="butt" stroke-opacity="1.0" stroke="rgb(0, 0, 0)" stroke-linejoin="round" d=" M 72.496, 74.095 75.862, 76.416 78.947, 77.987 80.373, 78.713 80.773, 78.917 82.289, 79.247 87.996, 80.489 93.845, 79.356 94.749, 80.380 95.113, 80.792 96.776, 81.924 97.008, 82.081 98.797, 82.525 " />
            <path fill="none" stroke-width="3.0" stroke-linecap="butt" stroke-opacity="1.0" stroke="rgb(0, 0, 0)" stroke-linejoin="round" d=" M 73.326, 75.392 72.496, 74.095 68.263, 76.383 62.591, 78.770 62.560, 78.783 55.209, 80.189 50.313, 79.019 " />
            <path fill="none" stroke-width="3.0" stroke-linecap="butt" stroke-opacity="1.0" stroke="rgb(0, 0, 0)" stroke-linejoin="round" d=" M 105.743, 65.954 106.273, 63.632 106.652, 61.969 107.737, 60.427 107.852, 60.264 108.158, 59.829 108.241, 59.711 110.253, 56.853 111.509, 54.926 113.969, 51.154 115.805, 48.337 118.161, 44.480 118.497, 43.306 119.783, 38.815 119.537, 35.667 118.125, 33.434 114.836, 29.181 109.767, 26.759 106.813, 25.664 101.274, 24.577 99.625, 24.400 97.038, 24.123 " />
            <path fill="none" stroke-width="3.0" stroke-linecap="butt" stroke-opacity="1.0" stroke="rgb(0, 0, 0)" stroke-linejoin="round" d=" M 52.896, 55.676 50.372, 51.992 47.620, 46.965 46.380, 41.596 46.954, 36.120 51.217, 31.916 58.044, 28.364 63.545, 26.728 67.711, 25.820 70.293, 21.826 74.154, 16.636 80.142, 10.831 85.421, 8.108 89.832, 10.103 93.843, 15.286 95.879, 20.226 97.038, 24.123 " />
            <path fill="none" stroke-width="3.0" stroke-linecap="butt" stroke-opacity="1.0" stroke="rgb(0, 0, 0)" stroke-linejoin="round" d=" M 104.378, 57.529 103.865, 57.009 103.815, 56.958 102.921, 56.051 102.324, 55.446 102.185, 55.350 101.058, 54.575 100.912, 54.475 100.975, 54.421 103.234, 52.439 103.742, 51.994 105.390, 50.549 106.233, 49.670 110.809, 44.902 111.281, 44.170 114.673, 38.899 116.437, 32.899 113.222, 28.730 106.813, 25.664 " />
            <path fill="none" stroke-width="3.0" stroke-linecap="butt" stroke-opacity="1.0" stroke="rgb(0, 0, 0)" stroke-linejoin="round" d=" M 99.625, 24.400 98.549, 21.968 96.228, 17.161 94.599, 14.899 90.951, 10.196 86.452, 8.165 85.421, 8.108 " />
            <path fill="none" stroke-width="3.0" stroke-linecap="butt" stroke-opacity="1.0" stroke="rgb(0, 0, 0)" stroke-linejoin="round" d=" M 50.372, 51.992 52.954, 55.517 " />
            <path fill="none" stroke-width="3.0" stroke-linecap="butt" stroke-opacity="1.0" stroke="rgb(0, 0, 0)" stroke-linejoin="round" d=" M 185.611, 88.999 184.066, 84.158 179.390, 75.318 178.193, 73.056 171.793, 65.372 170.768, 64.142 164.528, 58.661 156.725, 52.406 156.612, 52.316 149.070, 48.496 143.318, 46.327 139.568, 45.146 137.386, 44.459 130.917, 43.337 127.583, 43.205 124.637, 43.088 118.864, 43.262 118.497, 43.306 " />
            <path fill="none" stroke-width="3.0" stroke-linecap="butt" stroke-opacity="1.0" stroke="rgb(0, 0, 0)" stroke-linejoin="round" d=" M 105.877, 65.183 106.106, 63.633 106.630, 60.085 " />
            <path fill="none" stroke-width="3.0" stroke-linecap="butt" stroke-opacity="1.0" stroke="rgb(0, 0, 0)" stroke-linejoin="round" d=" M 105.381, 67.509 105.572, 66.689 105.573, 66.685 105.743, 65.954 105.877, 65.183 105.819, 65.455 105.557, 66.685 105.556, 66.689 105.381, 67.509 105.195, 68.384 105.057, 69.032 104.656, 70.917 104.512, 71.592 104.295, 72.612 102.773, 76.898 102.158, 77.770 101.608, 78.547 99.860, 81.020 99.104, 82.091 98.797, 82.525 98.570, 82.571 97.241, 82.841 93.368, 83.628 91.148, 83.197 89.264, 82.787 87.321, 82.364 86.183, 82.116 84.976, 81.614 84.761, 81.524 83.374, 80.947 82.099, 80.417 81.095, 79.999 80.430, 79.722 80.097, 79.519 78.754, 78.700 77.916, 78.190 73.326, 75.392 " />
            <path fill="none" stroke-width="3.0" stroke-linecap="butt" stroke-opacity="1.0" stroke="rgb(0, 0, 0)" stroke-linejoin="round" d=" M 191.222, 107.563 191.212, 107.534 183.213, 101.533 181.493, 100.243 176.137, 97.943 166.948, 93.999 164.289, 92.857 160.429, 91.783 156.597, 90.716 " />
            <path fill="none" stroke-width="3.0" stroke-linecap="butt" stroke-opacity="1.0" stroke="rgb(0, 0, 0)" stroke-linejoin="round" d=" M 118.482, 69.161 116.832, 69.064 " />
            <path fill="none" stroke-width="3.0" stroke-linecap="butt" stroke-opacity="1.0" stroke="rgb(0, 0, 0)" stroke-linejoin="round" d=" M 118.482, 69.161 122.833, 69.833 132.715, 71.359 136.663, 71.969 142.427, 72.859 " />
            <path fill="none" stroke-width="3.0" stroke-linecap="butt" stroke-opacity="1.0" stroke="rgb(0, 0, 0)" stroke-linejoin="round" d=" M 191.693, 107.917 189.161, 98.242 188.514, 95.768 186.170, 89.615 185.611, 88.999 185.190, 88.535 " />
            <path fill="none" stroke-width="3.0" stroke-linecap="butt" stroke-opacity="1.0" stroke="rgb(0, 0, 0)" stroke-linejoin="round" d=" M 139.568, 45.146 138.604, 43.990 135.179, 42.617 131.136, 42.185 128.081, 42.861 127.583, 43.205 " />
            <path fill="none" stroke-width="3.0" stroke-linecap="butt" stroke-opacity="1.0" stroke="rgb(0, 0, 0)" stroke-linejoin="round" d=" M 200.242, 142.238 202.177, 141.787 209.290, 137.081 210.210, 133.343 208.749, 126.449 205.021, 120.879 199.379, 113.685 191.693, 107.917 191.222, 107.563 188.584, 105.583 183.358, 102.328 177.788, 99.953 168.590, 96.030 166.913, 95.315 " />
            <path fill="none" stroke-width="3.0" stroke-linecap="butt" stroke-opacity="1.0" stroke="rgb(0, 0, 0)" stroke-linejoin="round" d=" M 196.930, 122.896 197.162, 123.057 205.382, 128.752 207.751, 130.393 209.290, 137.081 " />
            <path fill="none" stroke-width="3.0" stroke-linecap="butt" stroke-opacity="1.0" stroke="rgb(0, 0, 0)" stroke-linejoin="round" d=" M 42.548, 93.455 36.994, 97.482 32.344, 103.427 31.831, 107.046 " />
            <path fill="none" stroke-width="3.0" stroke-linecap="butt" stroke-opacity="1.0" stroke="rgb(0, 0, 0)" stroke-linejoin="round" d=" M 208.749, 126.449 200.628, 120.614 197.021, 118.023 " />
            <path fill="none" stroke-width="3.0" stroke-linecap="butt" stroke-opacity="1.0" stroke="rgb(0, 0, 0)" stroke-linejoin="round" d=" M 40.299, 116.344 48.653, 121.361 " />
            <path fill="none" stroke-width="3.0" stroke-linecap="butt" stroke-opacity="1.0" stroke="rgb(0, 0, 0)" stroke-linejoin="round" d=" M 104.218, 77.853 104.219, 77.850 105.847, 72.945 " />
            <path fill="none" stroke-width="3.0" stroke-linecap="butt" stroke-opacity="1.0" stroke="rgb(0, 0, 0)" stroke-linejoin="round" d=" M 129.651, 215.225 131.196, 220.371 131.527, 221.474 " />
            <path fill="none" stroke-width="3.0" stroke-linecap="butt" stroke-opacity="1.0" stroke="rgb(0, 0, 0)" stroke-linejoin="round" d=" M 195.098, 125.189 200.674, 128.950 " />
        </g>
    </g>
</svg>
