<?xml version='1.0' encoding='ascii'?>
<svg xmlns="http://www.w3.org/2000/svg" version="1.1" width="250" height="250">
    <g id="ViewLayer_LineSet" xmlns:inkscape="http://www.inkscape.org/namespaces/inkscape" inkscape:groupmode="lineset" inkscape:label="ViewLayer_LineSet">
        <g xmlns:inkscape="http://www.inkscape.org/namespaces/inkscape" inkscape:groupmode="layer" id="strokes" inkscape:label="strokes">
            <path fill="none" stroke-width="3.0" stroke-linecap="butt" stroke-opacity="1.0" stroke="rgb(0, 0, 0)" stroke-linejoin="round" d=" M 59.706, 96.482 59.389, 96.881 57.971, 98.665 53.734, 105.788 49.923, 114.468 49.265, 116.597 48.332, 119.616 48.232, 119.941 47.810, 121.305 47.254, 123.104 46.001, 129.239 45.456, 135.597 45.231, 140.131 45.460, 145.760 45.940, 150.286 46.801, 154.897 47.648, 158.866 48.934, 163.182 50.600, 167.656 51.789, 170.336 52.569, 172.093 54.759, 176.301 57.075, 180.096 59.418, 183.303 62.352, 187.225 65.338, 190.482 69.452, 194.591 71.771, 196.389 72.899, 197.265 78.080, 201.259 84.048, 204.839 89.787, 207.453 93.598, 209.087 98.509, 210.478 102.213, 211.386 " />
            <path fill="none" stroke-width="3.0" stroke-linecap="butt" stroke-opacity="1.0" stroke="rgb(0, 0, 0)" stroke-linejoin="round" d=" M 189.810, 123.569 188.899, 119.306 188.583, 118.490 " />
            <path fill="none" stroke-width="3.0" stroke-linecap="butt" stroke-opacity="1.0" stroke="rgb(0, 0, 0)" stroke-linejoin="round" d=" M 168.412, 193.731 174.476, 187.440 176.473, 184.618 182.003, 176.491 " />
            <path fill="none" stroke-width="3.0" stroke-linecap="butt" stroke-opacity="1.0" stroke="rgb(0, 0, 0)" stroke-linejoin="round" d=" M 77.110, 148.219 77.665, 149.619 79.029, 151.686 79.101, 151.749 80.925, 153.342 83.121, 154.567 85.164, 155.007 87.260, 154.932 89.635, 154.100 91.686, 152.767 93.236, 150.916 93.952, 149.597 " />
            <path fill="none" stroke-width="3.0" stroke-linecap="butt" stroke-opacity="1.0" stroke="rgb(0, 0, 0)" stroke-linejoin="round" d=" M 117.421, 98.855 117.923, 100.536 118.049, 100.961 118.502, 104.345 118.542, 108.164 118.558, 108.233 117.439, 116.640 117.232, 117.351 117.195, 117.476 116.212, 120.848 114.706, 125.135 112.950, 129.131 111.008, 132.643 108.947, 135.497 107.726, 136.685 107.348, 137.053 106.837, 137.551 104.750, 138.700 102.760, 138.885 101.439, 138.312 100.938, 138.095 99.360, 136.361 98.920, 135.459 98.671, 134.950 98.093, 133.764 97.199, 130.426 96.726, 126.506 96.704, 122.194 97.140, 117.696 97.960, 113.482 97.993, 113.313 97.997, 113.289 99.201, 109.131 100.723, 105.232 102.503, 101.735 104.472, 98.762 105.524, 97.578 " />
            <path fill="none" stroke-width="3.0" stroke-linecap="butt" stroke-opacity="1.0" stroke="rgb(0, 0, 0)" stroke-linejoin="round" d=" M 77.311, 116.658 76.332, 120.948 76.315, 121.016 75.248, 125.057 74.072, 128.783 74.031, 128.885 73.872, 129.283 72.810, 131.938 71.469, 134.365 70.065, 135.943 68.884, 136.479 68.625, 136.597 67.213, 136.597 65.837, 135.067 64.628, 132.970 63.653, 130.117 62.990, 126.653 62.943, 126.013 62.910, 125.548 62.706, 122.751 62.844, 118.601 63.125, 116.524 63.404, 114.459 64.271, 110.466 65.389, 106.627 66.715, 103.077 67.111, 102.236 67.361, 101.706 68.193, 99.940 69.767, 97.322 70.746, 96.098 " />
            <path fill="none" stroke-width="3.0" stroke-linecap="butt" stroke-opacity="1.0" stroke="rgb(0, 0, 0)" stroke-linejoin="round" d=" M 67.213, 136.597 70.420, 138.019 " />
            <path fill="none" stroke-width="3.0" stroke-linecap="butt" stroke-opacity="1.0" stroke="rgb(0, 0, 0)" stroke-linejoin="round" d=" M 77.790, 95.852 77.875, 96.002 78.528, 98.298 78.888, 101.202 78.998, 104.682 78.784, 107.265 78.758, 107.573 78.688, 108.415 " />
            <path fill="none" stroke-width="3.0" stroke-linecap="butt" stroke-opacity="1.0" stroke="rgb(0, 0, 0)" stroke-linejoin="round" d=" M 80.420, 118.646 77.311, 116.658 78.135, 112.459 78.688, 108.415 81.757, 110.495 " />
            <path fill="none" stroke-width="3.0" stroke-linecap="butt" stroke-opacity="1.0" stroke="rgb(0, 0, 0)" stroke-linejoin="round" d=" M 121.239, 247.555 127.623, 247.889 136.139, 247.524 139.211, 247.184 145.447, 246.739 151.377, 245.561 155.309, 243.578 159.998, 241.353 166.310, 235.775 169.673, 232.476 174.017, 226.938 175.746, 223.389 176.782, 218.991 177.733, 215.145 177.653, 210.862 176.401, 206.327 175.102, 202.849 172.736, 198.220 169.947, 195.051 168.412, 193.731 " />
            <path fill="none" stroke-width="3.0" stroke-linecap="butt" stroke-opacity="1.0" stroke="rgb(0, 0, 0)" stroke-linejoin="round" d=" M 107.562, 202.968 104.112, 207.101 102.213, 211.386 102.075, 211.698 99.215, 218.215 98.053, 222.498 97.691, 226.546 97.432, 229.228 97.519, 232.844 97.551, 232.960 98.548, 236.524 100.883, 240.143 103.171, 242.838 107.097, 245.052 112.553, 246.394 115.755, 247.007 121.239, 247.555 117.941, 247.169 113.899, 246.588 113.896, 246.587 112.553, 246.394 " />
            <path fill="none" stroke-width="3.0" stroke-linecap="butt" stroke-opacity="1.0" stroke="rgb(0, 0, 0)" stroke-linejoin="round" d=" M 71.771, 196.389 71.288, 197.649 69.510, 204.251 68.905, 207.592 68.829, 212.591 68.797, 215.741 69.412, 218.357 71.316, 223.276 72.582, 225.717 76.001, 229.286 80.347, 232.083 84.666, 233.370 86.912, 233.694 91.328, 233.884 97.100, 233.127 97.551, 232.960 " />
            <path fill="none" stroke-width="3.0" stroke-linecap="butt" stroke-opacity="1.0" stroke="rgb(0, 0, 0)" stroke-linejoin="round" d=" M 181.208, 176.094 182.003, 176.491 187.178, 179.076 191.854, 180.522 196.197, 181.288 200.498, 181.348 204.107, 180.690 207.390, 179.572 210.172, 178.149 212.938, 176.184 215.467, 173.730 217.570, 170.658 217.673, 170.507 219.204, 167.427 220.198, 164.240 220.601, 160.916 220.456, 157.388 219.137, 151.949 217.379, 147.841 214.822, 143.565 210.585, 138.377 207.132, 134.887 206.699, 134.450 206.192, 133.938 201.858, 130.077 197.269, 126.928 192.272, 124.452 189.810, 123.569 " />
            <path fill="none" stroke-width="3.0" stroke-linecap="butt" stroke-opacity="1.0" stroke="rgb(0, 0, 0)" stroke-linejoin="round" d=" M 47.810, 121.305 46.554, 121.958 42.548, 124.840 38.794, 128.355 35.014, 132.387 31.387, 137.083 30.352, 138.478 28.283, 142.230 26.889, 145.806 26.144, 149.458 26.156, 152.643 26.294, 153.657 26.635, 156.121 27.401, 158.590 28.728, 161.363 30.630, 164.133 32.905, 166.352 35.377, 168.133 37.662, 169.327 41.061, 170.507 44.192, 171.102 47.925, 171.051 51.705, 170.363 51.789, 170.336 " />
            <path fill="none" stroke-width="3.0" stroke-linecap="butt" stroke-opacity="1.0" stroke="rgb(0, 0, 0)" stroke-linejoin="round" d=" M 118.914, 66.697 119.540, 66.215 119.691, 65.906 119.728, 65.829 121.393, 62.422 122.379, 59.844 122.360, 56.156 121.342, 53.468 119.436, 49.769 117.622, 48.451 " />
            <path fill="none" stroke-width="3.0" stroke-linecap="butt" stroke-opacity="1.0" stroke="rgb(0, 0, 0)" stroke-linejoin="round" d=" M 56.080, 51.897 55.983, 52.171 54.464, 56.457 52.824, 62.541 52.254, 70.380 52.544, 71.659 54.197, 76.932 56.688, 78.204 60.218, 79.012 61.836, 79.382 62.027, 79.405 65.723, 79.866 71.737, 78.796 77.305, 77.368 82.814, 75.162 82.878, 75.136 " />
            <path fill="none" stroke-width="3.0" stroke-linecap="butt" stroke-opacity="1.0" stroke="rgb(0, 0, 0)" stroke-linejoin="round" d=" M 33.791, 109.026 31.581, 104.381 32.762, 103.199 37.464, 98.495 42.006, 97.292 50.049, 95.163 53.165, 94.339 56.307, 94.214 58.964, 94.109 61.679, 94.001 71.671, 93.606 74.091, 93.510 75.384, 93.459 79.968, 93.277 89.939, 94.039 99.910, 94.801 107.857, 95.408 113.710, 95.855 116.191, 96.290 116.224, 96.296 126.074, 98.021 135.924, 99.747 145.774, 101.473 147.726, 101.815 157.381, 104.419 167.036, 107.024 176.690, 109.628 177.158, 109.754 178.215, 110.198 178.537, 110.334 183.132, 112.263 " />
            <path fill="none" stroke-width="3.0" stroke-linecap="butt" stroke-opacity="1.0" stroke="rgb(0, 0, 0)" stroke-linejoin="round" d=" M 206.699, 134.450 206.743, 134.424 206.379, 127.908 200.013, 122.948 197.978, 121.362 " />
            <path fill="none" stroke-width="3.0" stroke-linecap="butt" stroke-opacity="1.0" stroke="rgb(0, 0, 0)" stroke-linejoin="round" d=" M 44.956, 99.651 54.703, 97.415 58.603, 96.521 " />
            <path fill="none" stroke-width="3.0" stroke-linecap="butt" stroke-opacity="1.0" stroke="rgb(0, 0, 0)" stroke-linejoin="round" d=" M 38.829, 113.975 47.124, 119.482 48.232, 119.941 " />
            <path fill="none" stroke-width="3.0" stroke-linecap="butt" stroke-opacity="1.0" stroke="rgb(0, 0, 0)" stroke-linejoin="round" d=" M 55.964, 96.612 46.221, 98.865 45.716, 98.982 41.086, 100.052 39.793, 100.351 33.783, 106.022 34.542, 107.664 " />
            <path fill="none" stroke-width="3.0" stroke-linecap="butt" stroke-opacity="1.0" stroke="rgb(0, 0, 0)" stroke-linejoin="round" d=" M 55.964, 96.612 58.603, 96.521 58.958, 96.508 59.706, 96.482 60.825, 96.443 70.746, 96.098 76.714, 95.890 77.790, 95.852 78.949, 95.812 81.515, 95.723 91.485, 96.493 101.455, 97.263 105.524, 97.578 110.453, 97.958 113.463, 98.191 117.421, 98.855 117.911, 98.937 127.773, 100.593 137.635, 102.248 143.581, 103.246 146.795, 103.786 156.457, 106.362 166.120, 108.938 175.766, 111.510 179.360, 113.000 184.793, 115.251 " />
            <path fill="none" stroke-width="3.0" stroke-linecap="butt" stroke-opacity="1.0" stroke="rgb(0, 0, 0)" stroke-linejoin="round" d=" M 57.443, 81.318 48.954, 85.871 47.371, 86.721 47.256, 86.782 40.994, 90.896 36.189, 94.860 33.019, 98.111 31.206, 100.994 30.036, 104.059 30.029, 106.541 30.493, 108.725 34.824, 112.959 37.505, 114.437 38.829, 113.975 38.831, 113.975 40.768, 113.299 41.977, 112.474 43.626, 111.348 45.213, 106.254 " />
            <path fill="none" stroke-width="3.0" stroke-linecap="butt" stroke-opacity="1.0" stroke="rgb(0, 0, 0)" stroke-linejoin="round" d=" M 33.226, 110.319 30.493, 108.725 " />
            <path fill="none" stroke-width="3.0" stroke-linecap="butt" stroke-opacity="1.0" stroke="rgb(0, 0, 0)" stroke-linejoin="round" d=" M 43.626, 111.348 39.894, 108.895 " />
            <path fill="none" stroke-width="3.0" stroke-linecap="butt" stroke-opacity="1.0" stroke="rgb(0, 0, 0)" stroke-linejoin="round" d=" M 40.746, 106.632 39.894, 108.895 36.471, 109.858 " />
            <path fill="none" stroke-width="3.0" stroke-linecap="butt" stroke-opacity="1.0" stroke="rgb(0, 0, 0)" stroke-linejoin="round" d=" M 62.027, 79.405 59.194, 80.588 57.443, 81.318 50.487, 84.680 47.371, 86.721 " />
            <path fill="none" stroke-width="3.0" stroke-linecap="butt" stroke-opacity="1.0" stroke="rgb(0, 0, 0)" stroke-linejoin="round" d=" M 47.256, 86.782 47.312, 86.759 49.914, 85.684 50.026, 85.637 52.818, 84.483 55.730, 83.280 57.866, 82.632 67.363, 79.750 77.308, 78.708 79.050, 78.526 80.462, 78.378 81.825, 78.339 87.700, 78.172 89.497, 78.247 89.926, 78.265 " />
            <path fill="none" stroke-width="3.0" stroke-linecap="butt" stroke-opacity="1.0" stroke="rgb(0, 0, 0)" stroke-linejoin="round" d=" M 179.360, 113.000 180.064, 114.723 183.084, 116.134 183.111, 116.146 184.430, 116.711 188.583, 118.490 196.936, 122.068 197.018, 122.012 197.978, 121.362 198.713, 120.864 199.140, 120.575 199.391, 119.485 199.977, 116.932 197.072, 112.358 192.332, 107.765 190.574, 106.062 183.013, 100.600 181.777, 99.680 179.234, 97.788 177.136, 96.226 176.793, 95.971 172.267, 93.291 168.255, 90.916 161.629, 88.139 157.070, 86.228 157.068, 86.227 147.524, 83.244 144.353, 82.253 134.739, 79.501 131.554, 78.589 121.695, 76.915 118.690, 76.404 109.282, 74.880 107.495, 74.590 " />
            <path fill="none" stroke-width="3.0" stroke-linecap="butt" stroke-opacity="1.0" stroke="rgb(0, 0, 0)" stroke-linejoin="round" d=" M 102.486, 79.227 107.769, 79.767 111.464, 80.144 112.908, 80.497 122.622, 82.871 128.121, 84.214 137.725, 86.999 142.529, 88.391 142.810, 88.500 152.136, 92.110 155.373, 93.363 164.529, 97.385 166.528, 98.263 174.900, 102.344 181.355, 105.967 184.710, 108.491 186.430, 109.785 187.585, 111.616 188.014, 112.296 188.318, 112.778 188.586, 114.654 188.684, 115.342 187.626, 116.020 187.243, 116.266 186.147, 116.969 " />
            <path fill="none" stroke-width="3.0" stroke-linecap="butt" stroke-opacity="1.0" stroke="rgb(0, 0, 0)" stroke-linejoin="round" d=" M 99.128, 75.754 100.136, 74.313 102.926, 70.321 103.503, 68.345 103.915, 66.933 104.250, 65.784 104.493, 64.953 104.930, 63.455 105.262, 62.318 105.347, 62.029 105.883, 55.615 105.871, 53.777 105.864, 52.711 105.855, 51.232 105.852, 50.835 " />
            <path fill="none" stroke-width="3.0" stroke-linecap="butt" stroke-opacity="1.0" stroke="rgb(0, 0, 0)" stroke-linejoin="round" d=" M 76.872, 70.540 80.423, 72.861 83.123, 74.167 83.746, 74.468 84.819, 74.987 85.579, 75.355 93.101, 76.909 99.128, 75.754 99.551, 76.265 100.334, 77.208 101.998, 78.538 102.925, 78.854 103.451, 79.033 " />
            <path fill="none" stroke-width="3.0" stroke-linecap="butt" stroke-opacity="1.0" stroke="rgb(0, 0, 0)" stroke-linejoin="round" d=" M 54.197, 76.932 53.875, 75.551 " />
            <path fill="none" stroke-width="3.0" stroke-linecap="butt" stroke-opacity="1.0" stroke="rgb(0, 0, 0)" stroke-linejoin="round" d=" M 79.896, 73.414 77.629, 71.859 76.872, 70.540 72.524, 72.849 66.644, 75.277 62.087, 76.135 59.014, 76.714 53.875, 75.551 52.254, 70.380 " />
            <path fill="none" stroke-width="3.0" stroke-linecap="butt" stroke-opacity="1.0" stroke="rgb(0, 0, 0)" stroke-linejoin="round" d=" M 110.682, 58.348 110.890, 58.056 110.901, 58.041 111.164, 57.670 114.205, 53.396 114.473, 53.007 117.622, 48.451 118.885, 46.624 122.556, 40.964 122.743, 40.279 124.100, 35.307 124.151, 32.110 122.967, 29.832 119.485, 25.576 114.207, 23.141 111.271, 22.018 105.530, 20.914 103.080, 20.653 101.142, 20.446 " />
            <path fill="none" stroke-width="3.0" stroke-linecap="butt" stroke-opacity="1.0" stroke="rgb(0, 0, 0)" stroke-linejoin="round" d=" M 53.301, 48.349 52.580, 47.131 50.307, 43.288 48.884, 37.880 49.355, 32.367 53.711, 28.144 60.753, 24.587 66.448, 22.958 70.765, 22.057 73.357, 18.054 77.249, 12.857 83.332, 7.056 88.743, 4.351 93.360, 6.372 97.632, 11.584 99.853, 16.539 101.142, 20.446 " />
            <path fill="none" stroke-width="3.0" stroke-linecap="butt" stroke-opacity="1.0" stroke="rgb(0, 0, 0)" stroke-linejoin="round" d=" M 108.986, 53.961 107.544, 52.245 107.191, 51.825 105.982, 50.931 105.852, 50.835 106.120, 50.603 106.706, 50.095 110.382, 46.907 110.793, 46.482 115.838, 41.263 116.225, 40.659 119.678, 35.268 121.355, 29.275 117.948, 25.102 111.271, 22.018 " />
            <path fill="none" stroke-width="3.0" stroke-linecap="butt" stroke-opacity="1.0" stroke="rgb(0, 0, 0)" stroke-linejoin="round" d=" M 52.580, 47.131 52.586, 47.144 53.301, 48.349 55.983, 52.171 " />
            <path fill="none" stroke-width="3.0" stroke-linecap="butt" stroke-opacity="1.0" stroke="rgb(0, 0, 0)" stroke-linejoin="round" d=" M 103.080, 20.653 102.182, 18.359 99.698, 13.533 98.273, 11.218 94.389, 6.490 89.684, 4.431 88.743, 4.351 " />
            <path fill="none" stroke-width="3.0" stroke-linecap="butt" stroke-opacity="1.0" stroke="rgb(0, 0, 0)" stroke-linejoin="round" d=" M 53.301, 48.349 56.080, 51.897 " />
            <path fill="none" stroke-width="3.0" stroke-linecap="butt" stroke-opacity="1.0" stroke="rgb(0, 0, 0)" stroke-linejoin="round" d=" M 191.357, 103.006 188.453, 93.437 186.405, 86.687 185.399, 85.619 184.191, 81.279 179.336, 72.536 178.079, 70.271 171.540, 62.706 170.431, 61.423 164.751, 55.874 156.775, 49.842 156.434, 49.584 149.213, 45.703 142.947, 43.587 138.081, 41.992 137.126, 41.679 130.676, 40.525 126.726, 40.359 124.318, 40.258 122.743, 40.279 " />
            <path fill="none" stroke-width="3.0" stroke-linecap="butt" stroke-opacity="1.0" stroke="rgb(0, 0, 0)" stroke-linejoin="round" d=" M 79.896, 73.414 81.982, 74.618 82.830, 75.108 82.878, 75.136 83.708, 75.615 84.637, 76.151 84.773, 76.230 88.219, 77.591 89.825, 78.225 89.926, 78.265 90.799, 78.610 90.842, 78.620 92.250, 78.958 94.476, 79.434 97.858, 80.158 100.330, 79.661 102.486, 79.227 103.451, 79.033 103.547, 78.897 104.265, 77.870 106.583, 74.556 106.749, 74.318 107.395, 73.395 108.650, 69.666 108.838, 69.106 109.159, 67.430 109.465, 65.825 109.576, 65.245 110.257, 61.678 110.682, 58.348 110.741, 57.884 110.776, 57.607 110.848, 57.042 110.907, 56.580 " />
            <path fill="none" stroke-width="3.0" stroke-linecap="butt" stroke-opacity="1.0" stroke="rgb(0, 0, 0)" stroke-linejoin="round" d=" M 186.485, 99.929 183.122, 97.074 174.665, 93.211 166.842, 89.636 161.629, 88.139 " />
            <path fill="none" stroke-width="3.0" stroke-linecap="butt" stroke-opacity="1.0" stroke="rgb(0, 0, 0)" stroke-linejoin="round" d=" M 121.288, 65.918 119.728, 65.829 " />
            <path fill="none" stroke-width="3.0" stroke-linecap="butt" stroke-opacity="1.0" stroke="rgb(0, 0, 0)" stroke-linejoin="round" d=" M 121.288, 65.918 131.165, 67.480 141.043, 69.042 145.067, 69.678 " />
            <path fill="none" stroke-width="3.0" stroke-linecap="butt" stroke-opacity="1.0" stroke="rgb(0, 0, 0)" stroke-linejoin="round" d=" M 138.081, 41.992 137.587, 41.321 134.250, 39.921 130.191, 39.472 127.022, 40.150 126.726, 40.359 " />
            <path fill="none" stroke-width="3.0" stroke-linecap="butt" stroke-opacity="1.0" stroke="rgb(0, 0, 0)" stroke-linejoin="round" d=" M 207.132, 134.887 208.994, 133.775 209.860, 130.068 209.706, 123.056 205.876, 117.571 200.096, 110.484 192.498, 103.982 191.357, 103.006 190.546, 102.312 186.485, 99.929 185.112, 99.124 176.192, 95.073 172.267, 93.291 " />
            <path fill="none" stroke-width="3.0" stroke-linecap="butt" stroke-opacity="1.0" stroke="rgb(0, 0, 0)" stroke-linejoin="round" d=" M 199.391, 119.485 207.211, 125.718 208.777, 126.966 208.994, 133.775 " />
            <path fill="none" stroke-width="3.0" stroke-linecap="butt" stroke-opacity="1.0" stroke="rgb(0, 0, 0)" stroke-linejoin="round" d=" M 44.625, 89.664 43.548, 90.474 38.082, 94.524 32.019, 100.731 31.581, 104.381 " />
            <path fill="none" stroke-width="3.0" stroke-linecap="butt" stroke-opacity="1.0" stroke="rgb(0, 0, 0)" stroke-linejoin="round" d=" M 209.706, 123.056 202.000, 116.683 199.438, 114.564 " />
            <path fill="none" stroke-width="3.0" stroke-linecap="butt" stroke-opacity="1.0" stroke="rgb(0, 0, 0)" stroke-linejoin="round" d=" M 60.218, 79.012 59.194, 80.588 " />
            <path fill="none" stroke-width="3.0" stroke-linecap="butt" stroke-opacity="1.0" stroke="rgb(0, 0, 0)" stroke-linejoin="round" d=" M 107.273, 74.582 107.405, 74.140 108.740, 69.665 " />
            <path fill="none" stroke-width="3.0" stroke-linecap="butt" stroke-opacity="1.0" stroke="rgb(0, 0, 0)" stroke-linejoin="round" d=" M 108.650, 69.666 108.740, 69.665 110.908, 69.625 " />
            <path fill="none" stroke-width="3.0" stroke-linecap="butt" stroke-opacity="1.0" stroke="rgb(0, 0, 0)" stroke-linejoin="round" d=" M 197.018, 122.012 201.662, 125.592 " />
        </g>
    </g>
</svg>
