<?xml version='1.0' encoding='ascii'?>
<svg xmlns="http://www.w3.org/2000/svg" version="1.1" width="250" height="250">
    <g id="ViewLayer_LineSet" xmlns:inkscape="http://www.inkscape.org/namespaces/inkscape" inkscape:groupmode="lineset" inkscape:label="ViewLayer_LineSet">
        <g xmlns:inkscape="http://www.inkscape.org/namespaces/inkscape" inkscape:groupmode="layer" id="strokes" inkscape:label="strokes">
            <path fill="none" stroke-width="3.0" stroke-linecap="butt" stroke-opacity="1.0" stroke="rgb(0, 0, 0)" stroke-linejoin="round" d=" M 46.237, 133.269 45.988, 134.902 45.792, 136.931 45.558, 141.017 45.460, 144.904 45.547, 147.447 45.907, 150.222 47.240, 158.420 48.748, 164.066 51.190, 170.729 54.431, 177.230 56.126, 180.146 59.931, 185.744 " />
            <path fill="none" stroke-width="3.0" stroke-linecap="butt" stroke-opacity="1.0" stroke="rgb(0, 0, 0)" stroke-linejoin="round" d=" M 129.011, 214.146 129.405, 214.086 135.413, 212.732 140.534, 211.491 144.620, 209.973 153.188, 205.901 156.839, 203.725 164.924, 197.839 165.372, 197.513 167.687, 195.109 " />
            <path fill="none" stroke-width="3.0" stroke-linecap="butt" stroke-opacity="1.0" stroke="rgb(0, 0, 0)" stroke-linejoin="round" d=" M 188.822, 158.047 189.243, 156.532 189.883, 150.711 189.976, 149.867 190.119, 148.568 " />
            <path fill="none" stroke-width="3.0" stroke-linecap="butt" stroke-opacity="1.0" stroke="rgb(0, 0, 0)" stroke-linejoin="round" d=" M 45.775, 141.021 45.858, 141.803 45.867, 142.725 45.901, 143.835 46.011, 145.378 46.232, 146.666 46.542, 147.629 46.774, 148.232 47.062, 148.655 47.687, 149.362 " />
            <path fill="none" stroke-width="3.0" stroke-linecap="butt" stroke-opacity="1.0" stroke="rgb(0, 0, 0)" stroke-linejoin="round" d=" M 47.687, 149.362 48.104, 149.461 48.401, 149.166 " />
            <path fill="none" stroke-width="3.0" stroke-linecap="butt" stroke-opacity="1.0" stroke="rgb(0, 0, 0)" stroke-linejoin="round" d=" M 49.324, 145.811 48.974, 147.384 48.678, 148.525 48.560, 148.980 " />
            <path fill="none" stroke-width="3.0" stroke-linecap="butt" stroke-opacity="1.0" stroke="rgb(0, 0, 0)" stroke-linejoin="round" d=" M 49.296, 144.159 49.318, 144.434 49.340, 144.708 49.375, 145.144 49.324, 145.811 49.297, 146.162 " />
            <path fill="none" stroke-width="3.0" stroke-linecap="butt" stroke-opacity="1.0" stroke="rgb(0, 0, 0)" stroke-linejoin="round" d=" M 49.267, 144.337 49.340, 144.708 " />
            <path fill="none" stroke-width="3.0" stroke-linecap="butt" stroke-opacity="1.0" stroke="rgb(0, 0, 0)" stroke-linejoin="round" d=" M 65.498, 104.532 65.175, 105.651 64.980, 106.216 64.968, 106.250 64.927, 106.370 64.653, 107.163 64.639, 107.203 63.959, 109.175 64.013, 109.242 60.954, 116.916 59.021, 120.690 57.268, 124.510 56.516, 126.151 55.654, 128.032 54.209, 131.087 52.942, 133.524 51.850, 135.224 50.928, 136.105 50.174, 136.126 49.604, 135.286 49.243, 133.628 49.134, 131.231 49.255, 129.282 49.321, 128.217 49.321, 128.208 49.848, 124.702 50.742, 120.876 52.008, 116.905 52.009, 116.902 53.595, 113.024 55.133, 109.793 55.339, 109.360 57.169, 105.916 57.934, 104.632 58.363, 103.912 59.017, 102.817 59.220, 102.517 " />
            <path fill="none" stroke-width="3.0" stroke-linecap="butt" stroke-opacity="1.0" stroke="rgb(0, 0, 0)" stroke-linejoin="round" d=" M 47.903, 115.248 46.479, 118.916 45.314, 122.416 44.418, 125.576 43.779, 128.237 43.368, 130.265 43.155, 131.560 43.113, 132.059 " />
            <path fill="none" stroke-width="3.0" stroke-linecap="butt" stroke-opacity="1.0" stroke="rgb(0, 0, 0)" stroke-linejoin="round" d=" M 43.113, 132.059 46.237, 133.269 " />
            <path fill="none" stroke-width="3.0" stroke-linecap="butt" stroke-opacity="1.0" stroke="rgb(0, 0, 0)" stroke-linejoin="round" d=" M 54.561, 101.021 54.137, 101.873 53.987, 102.201 53.635, 102.967 52.743, 104.912 51.126, 108.151 " />
            <path fill="none" stroke-width="3.0" stroke-linecap="butt" stroke-opacity="1.0" stroke="rgb(0, 0, 0)" stroke-linejoin="round" d=" M 50.509, 116.298 48.392, 115.445 47.903, 115.248 49.506, 111.643 51.126, 108.151 51.598, 108.344 53.688, 109.201 " />
            <path fill="none" stroke-width="3.0" stroke-linecap="butt" stroke-opacity="1.0" stroke="rgb(0, 0, 0)" stroke-linejoin="round" d=" M 34.969, 214.743 35.953, 215.576 40.828, 219.698 45.275, 222.516 51.911, 226.829 55.078, 228.591 64.331, 232.026 73.820, 235.182 78.908, 236.874 88.471, 239.800 94.840, 241.748 104.237, 244.149 109.427, 244.943 110.708, 244.954 116.014, 244.927 121.649, 242.789 122.799, 242.117 126.536, 239.091 129.279, 235.153 131.023, 230.394 131.140, 229.179 131.573, 224.677 129.970, 216.821 129.244, 214.582 129.011, 214.146 125.238, 207.067 " />
            <path fill="none" stroke-width="3.0" stroke-linecap="butt" stroke-opacity="1.0" stroke="rgb(0, 0, 0)" stroke-linejoin="round" d=" M 36.274, 192.104 34.134, 194.235 32.442, 195.919 30.102, 200.506 29.332, 205.801 31.018, 210.805 32.157, 212.527 35.953, 215.576 " />
            <path fill="none" stroke-width="3.0" stroke-linecap="butt" stroke-opacity="1.0" stroke="rgb(0, 0, 0)" stroke-linejoin="round" d=" M 63.085, 185.806 59.931, 185.744 54.236, 185.633 47.105, 186.293 40.502, 188.545 36.163, 191.811 34.134, 194.235 " />
            <path fill="none" stroke-width="3.0" stroke-linecap="butt" stroke-opacity="1.0" stroke="rgb(0, 0, 0)" stroke-linejoin="round" d=" M 131.140, 229.179 133.461, 228.610 139.513, 226.864 148.019, 221.607 152.685, 218.723 159.928, 211.829 161.556, 210.279 168.718, 203.301 170.099, 201.955 175.799, 195.777 178.341, 192.775 " />
            <path fill="none" stroke-width="3.0" stroke-linecap="butt" stroke-opacity="1.0" stroke="rgb(0, 0, 0)" stroke-linejoin="round" d=" M 139.937, 181.391 144.911, 185.650 150.672, 189.672 155.475, 192.028 157.430, 192.889 161.911, 194.405 166.507, 195.154 167.687, 195.109 170.458, 195.004 174.049, 194.280 176.265, 193.675 178.341, 192.775 179.393, 192.319 182.152, 190.401 183.583, 189.379 186.084, 186.932 187.176, 185.436 189.104, 182.489 190.507, 179.301 191.364, 176.247 191.471, 175.696 191.873, 172.840 191.907, 168.961 191.163, 164.460 189.712, 159.961 188.822, 158.047 187.501, 155.206 183.637, 149.427 182.829, 148.442 181.880, 147.284 179.642, 144.555 " />
            <path fill="none" stroke-width="3.0" stroke-linecap="butt" stroke-opacity="1.0" stroke="rgb(0, 0, 0)" stroke-linejoin="round" d=" M 82.997, 66.899 83.362, 66.424 83.210, 62.651 83.130, 60.675 83.127, 60.596 83.127, 60.591 83.123, 60.510 83.117, 60.342 83.029, 58.153 77.139, 52.310 76.326, 51.783 72.721, 51.799 71.245, 51.806 67.762, 51.822 67.643, 51.822 67.075, 52.440 66.315, 53.265 66.020, 53.585 65.991, 53.617 65.025, 54.667 63.922, 55.864 " />
            <path fill="none" stroke-width="3.0" stroke-linecap="butt" stroke-opacity="1.0" stroke="rgb(0, 0, 0)" stroke-linejoin="round" d=" M 67.762, 51.822 66.136, 51.104 66.142, 50.204 66.144, 49.970 66.173, 45.743 " />
            <path fill="none" stroke-width="3.0" stroke-linecap="butt" stroke-opacity="1.0" stroke="rgb(0, 0, 0)" stroke-linejoin="round" d=" M 63.590, 68.673 60.552, 67.605 61.973, 63.738 " />
            <path fill="none" stroke-width="3.0" stroke-linecap="butt" stroke-opacity="1.0" stroke="rgb(0, 0, 0)" stroke-linejoin="round" d=" M 31.561, 73.801 31.542, 75.218 31.518, 76.960 31.543, 79.062 32.180, 80.349 33.608, 81.624 34.604, 81.914 37.492, 82.756 38.511, 82.837 42.856, 83.182 49.046, 81.270 50.136, 80.524 55.153, 75.762 58.770, 70.297 59.547, 69.124 59.642, 68.980 60.015, 68.417 60.124, 68.252 60.196, 68.143 60.552, 67.605 " />
            <path fill="none" stroke-width="3.0" stroke-linecap="butt" stroke-opacity="1.0" stroke="rgb(0, 0, 0)" stroke-linejoin="round" d=" M 51.089, 18.999 50.933, 19.167 50.858, 19.248 47.698, 22.653 43.791, 28.184 40.616, 34.327 38.390, 38.704 35.811, 43.805 35.499, 44.493 32.352, 53.659 29.417, 63.219 28.415, 66.479 27.631, 72.485 27.604, 77.453 27.119, 79.511 27.484, 80.443 28.710, 81.624 32.371, 82.672 37.617, 83.072 38.511, 82.837 " />
            <path fill="none" stroke-width="3.0" stroke-linecap="butt" stroke-opacity="1.0" stroke="rgb(0, 0, 0)" stroke-linejoin="round" d=" M 68.297, 74.920 67.123, 74.992 66.964, 74.864 65.756, 73.894 65.584, 73.755 60.019, 69.283 59.642, 68.980 " />
            <path fill="none" stroke-width="3.0" stroke-linecap="butt" stroke-opacity="1.0" stroke="rgb(0, 0, 0)" stroke-linejoin="round" d=" M 83.860, 61.120 83.428, 60.541 83.363, 60.500 83.117, 60.342 " />
            <path fill="none" stroke-width="3.0" stroke-linecap="butt" stroke-opacity="1.0" stroke="rgb(0, 0, 0)" stroke-linejoin="round" d=" M 53.635, 102.967 47.175, 100.465 39.916, 97.335 37.299, 95.342 37.455, 94.630 44.651, 96.597 47.483, 97.370 55.159, 99.820 55.517, 99.934 58.612, 100.922 60.001, 101.365 60.121, 101.403 60.347, 101.475 60.550, 101.540 65.872, 103.239 66.780, 103.529 67.779, 103.847 71.952, 105.247 72.323, 105.371 75.770, 106.527 76.889, 106.903 81.731, 108.526 91.212, 111.706 95.829, 113.255 105.275, 116.535 106.823, 117.072 106.835, 117.076 " />
            <path fill="none" stroke-width="3.0" stroke-linecap="butt" stroke-opacity="1.0" stroke="rgb(0, 0, 0)" stroke-linejoin="round" d=" M 52.835, 82.623 50.008, 84.044 44.196, 86.965 39.473, 91.052 37.455, 94.630 " />
            <path fill="none" stroke-width="3.0" stroke-linecap="butt" stroke-opacity="1.0" stroke="rgb(0, 0, 0)" stroke-linejoin="round" d=" M 189.883, 150.711 191.041, 151.083 200.630, 153.921 201.002, 154.031 204.194, 154.517 " />
            <path fill="none" stroke-width="3.0" stroke-linecap="butt" stroke-opacity="1.0" stroke="rgb(0, 0, 0)" stroke-linejoin="round" d=" M 131.060, 126.947 138.278, 129.527 147.695, 132.892 157.112, 136.257 159.184, 136.997 168.564, 140.462 177.944, 143.928 179.642, 144.555 183.530, 145.991 190.119, 148.568 198.733, 151.937 201.888, 153.427 204.194, 154.517 207.113, 154.424 208.003, 150.584 206.562, 144.513 202.833, 135.975 198.134, 130.684 194.282, 128.017 192.864, 127.035 187.844, 123.881 187.275, 123.524 " />
            <path fill="none" stroke-width="3.0" stroke-linecap="butt" stroke-opacity="1.0" stroke="rgb(0, 0, 0)" stroke-linejoin="round" d=" M 40.298, 96.815 41.478, 97.148 49.951, 99.540 54.561, 101.021 54.951, 101.146 57.859, 102.080 59.220, 102.517 59.754, 102.688 59.974, 102.759 61.739, 103.325 62.781, 103.660 65.498, 104.532 65.986, 104.689 68.652, 105.545 69.363, 105.773 70.073, 106.013 71.962, 106.649 75.233, 107.751 75.999, 108.009 81.773, 109.955 91.249, 113.148 96.919, 115.058 106.365, 118.341 108.259, 118.999 " />
            <path fill="none" stroke-width="3.0" stroke-linecap="butt" stroke-opacity="1.0" stroke="rgb(0, 0, 0)" stroke-linejoin="round" d=" M 83.210, 62.651 83.860, 61.120 83.231, 60.599 83.209, 60.581 83.123, 60.510 " />
            <path fill="none" stroke-width="3.0" stroke-linecap="butt" stroke-opacity="1.0" stroke="rgb(0, 0, 0)" stroke-linejoin="round" d=" M 61.876, 61.657 61.973, 63.738 62.137, 67.281 63.590, 68.673 63.701, 68.779 64.416, 69.464 65.275, 70.287 66.447, 71.410 66.930, 71.873 68.100, 72.995 68.370, 73.253 68.610, 73.484 69.324, 73.467 70.227, 73.445 71.101, 73.424 71.169, 73.422 73.908, 73.357 " />
            <path fill="none" stroke-width="3.0" stroke-linecap="butt" stroke-opacity="1.0" stroke="rgb(0, 0, 0)" stroke-linejoin="round" d=" M 62.271, 78.389 52.643, 81.093 50.442, 81.711 49.835, 82.983 50.008, 84.044 " />
            <path fill="none" stroke-width="3.0" stroke-linecap="butt" stroke-opacity="1.0" stroke="rgb(0, 0, 0)" stroke-linejoin="round" d=" M 50.442, 81.711 51.658, 81.483 53.278, 81.714 55.124, 82.209 58.555, 83.129 58.788, 83.259 61.417, 84.722 63.723, 86.006 64.348, 86.354 64.567, 86.476 65.299, 86.883 65.368, 86.921 65.575, 87.037 69.127, 89.012 72.584, 90.934 80.518, 95.961 88.259, 101.118 94.724, 105.560 100.626, 109.605 105.712, 113.894 107.923, 116.790 108.234, 117.198 109.110, 119.295 109.390, 119.966 109.739, 121.606 " />
            <path fill="none" stroke-width="3.0" stroke-linecap="butt" stroke-opacity="1.0" stroke="rgb(0, 0, 0)" stroke-linejoin="round" d=" M 66.893, 77.903 65.203, 77.761 64.952, 77.740 62.806, 78.239 " />
            <path fill="none" stroke-width="3.0" stroke-linecap="butt" stroke-opacity="1.0" stroke="rgb(0, 0, 0)" stroke-linejoin="round" d=" M 129.980, 126.932 129.931, 126.544 129.739, 125.038 129.521, 123.329 129.473, 122.955 126.823, 118.945 126.012, 117.717 124.994, 116.304 120.846, 110.548 115.765, 105.836 115.064, 105.186 114.205, 104.389 108.844, 99.322 101.732, 93.906 93.582, 89.030 91.135, 87.769 86.133, 85.190 85.886, 85.062 80.102, 82.171 78.891, 81.566 78.765, 81.525 72.871, 79.603 71.560, 79.136 68.471, 78.036 " />
            <path fill="none" stroke-width="3.0" stroke-linecap="butt" stroke-opacity="1.0" stroke="rgb(0, 0, 0)" stroke-linejoin="round" d=" M 108.172, 118.846 108.259, 118.999 109.739, 121.606 119.238, 124.732 128.736, 127.859 130.676, 128.497 131.060, 126.947 " />
            <path fill="none" stroke-width="3.0" stroke-linecap="butt" stroke-opacity="1.0" stroke="rgb(0, 0, 0)" stroke-linejoin="round" d=" M 130.676, 128.497 129.980, 126.932 " />
            <path fill="none" stroke-width="3.0" stroke-linecap="butt" stroke-opacity="1.0" stroke="rgb(0, 0, 0)" stroke-linejoin="round" d=" M 58.770, 70.297 62.631, 73.969 65.480, 73.900 " />
            <path fill="none" stroke-width="3.0" stroke-linecap="butt" stroke-opacity="1.0" stroke="rgb(0, 0, 0)" stroke-linejoin="round" d=" M 30.876, 69.598 31.478, 72.897 31.561, 73.801 31.673, 75.008 31.673, 75.009 31.696, 75.268 " />
            <path fill="none" stroke-width="3.0" stroke-linecap="butt" stroke-opacity="1.0" stroke="rgb(0, 0, 0)" stroke-linejoin="round" d=" M 33.396, 79.285 34.585, 76.612 35.553, 74.436 38.369, 66.998 40.358, 61.230 41.778, 56.927 " />
            <path fill="none" stroke-width="3.0" stroke-linecap="butt" stroke-opacity="1.0" stroke="rgb(0, 0, 0)" stroke-linejoin="round" d=" M 32.180, 80.349 33.396, 79.285 34.871, 80.553 38.788, 81.716 41.811, 81.968 44.001, 82.150 " />
            <path fill="none" stroke-width="3.0" stroke-linecap="butt" stroke-opacity="1.0" stroke="rgb(0, 0, 0)" stroke-linejoin="round" d=" M 31.542, 75.218 30.408, 77.042 28.916, 79.169 27.484, 80.443 " />
            <path fill="none" stroke-width="3.0" stroke-linecap="butt" stroke-opacity="1.0" stroke="rgb(0, 0, 0)" stroke-linejoin="round" d=" M 47.936, 59.470 43.492, 57.722 41.778, 56.927 43.690, 53.191 46.307, 47.785 48.797, 42.050 50.939, 36.377 51.629, 32.713 51.404, 30.315 50.742, 29.704 50.129, 29.587 " />
            <path fill="none" stroke-width="3.0" stroke-linecap="butt" stroke-opacity="1.0" stroke="rgb(0, 0, 0)" stroke-linejoin="round" d=" M 52.005, 29.778 50.129, 29.587 51.089, 26.108 52.205, 21.746 53.037, 17.335 52.845, 15.891 51.110, 18.799 50.858, 19.248 " />
            <path fill="none" stroke-width="3.0" stroke-linecap="butt" stroke-opacity="1.0" stroke="rgb(0, 0, 0)" stroke-linejoin="round" d=" M 56.785, 32.210 56.453, 32.039 54.396, 30.978 52.707, 30.106 52.005, 29.778 " />
            <path fill="none" stroke-width="3.0" stroke-linecap="butt" stroke-opacity="1.0" stroke="rgb(0, 0, 0)" stroke-linejoin="round" d=" M 65.425, 39.246 65.567, 40.453 66.173, 45.743 66.387, 43.709 66.362, 38.333 65.485, 31.056 64.659, 27.751 61.664, 21.348 58.076, 17.737 54.645, 15.757 52.845, 15.891 " />
            <path fill="none" stroke-width="3.0" stroke-linecap="butt" stroke-opacity="1.0" stroke="rgb(0, 0, 0)" stroke-linejoin="round" d=" M 194.282, 128.017 195.612, 127.367 195.740, 117.368 195.868, 107.369 195.870, 107.154 194.189, 105.381 193.569, 101.669 191.047, 91.993 190.116, 88.423 185.826, 79.390 184.583, 76.775 178.798, 68.618 176.684, 65.637 174.104, 62.584 166.705, 55.857 165.540, 54.797 161.931, 52.329 158.309, 50.469 156.799, 49.693 150.112, 46.765 144.259, 45.078 143.963, 45.003 140.380, 44.134 138.256, 43.619 133.330, 42.954 129.975, 43.129 119.997, 43.783 117.497, 43.947 107.871, 46.658 104.593, 47.582 95.602, 51.960 93.090, 53.183 85.098, 59.195 83.363, 60.500 " />
            <path fill="none" stroke-width="3.0" stroke-linecap="butt" stroke-opacity="1.0" stroke="rgb(0, 0, 0)" stroke-linejoin="round" d=" M 158.309, 50.469 158.140, 49.326 156.684, 45.911 154.875, 44.372 151.284, 42.710 150.880, 42.588 147.326, 41.587 144.570, 41.444 141.405, 43.164 140.380, 44.134 " />
            <path fill="none" stroke-width="3.0" stroke-linecap="butt" stroke-opacity="1.0" stroke="rgb(0, 0, 0)" stroke-linejoin="round" d=" M 61.748, 35.657 56.785, 32.210 56.289, 31.927 " />
            <path fill="none" stroke-width="3.0" stroke-linecap="butt" stroke-opacity="1.0" stroke="rgb(0, 0, 0)" stroke-linejoin="round" d=" M 52.863, 36.702 56.635, 38.552 60.688, 41.329 " />
            <path fill="none" stroke-width="3.0" stroke-linecap="butt" stroke-opacity="1.0" stroke="rgb(0, 0, 0)" stroke-linejoin="round" d=" M 195.612, 127.367 190.809, 123.835 187.490, 122.221 183.911, 120.480 178.517, 117.856 169.280, 114.024 160.044, 110.191 159.437, 109.939 150.071, 106.435 140.705, 102.932 135.824, 101.106 126.360, 97.877 116.896, 94.648 111.187, 92.701 101.625, 89.774 92.063, 86.846 89.325, 86.008 86.133, 85.190 " />
            <path fill="none" stroke-width="3.0" stroke-linecap="butt" stroke-opacity="1.0" stroke="rgb(0, 0, 0)" stroke-linejoin="round" d=" M 91.135, 87.769 91.308, 87.814 100.866, 90.753 110.425, 93.692 111.954, 94.163 121.418, 97.394 130.881, 100.625 135.163, 102.087 144.532, 105.585 153.900, 109.082 157.431, 110.401 166.674, 114.216 175.510, 117.863 184.522, 122.199 186.060, 122.939 187.275, 123.524 " />
            <path fill="none" stroke-width="3.0" stroke-linecap="butt" stroke-opacity="1.0" stroke="rgb(0, 0, 0)" stroke-linejoin="round" d=" M 83.975, 69.401 80.565, 69.589 80.217, 69.609 78.770, 69.499 " />
            <path fill="none" stroke-width="3.0" stroke-linecap="butt" stroke-opacity="1.0" stroke="rgb(0, 0, 0)" stroke-linejoin="round" d=" M 80.217, 69.609 80.259, 69.616 80.502, 69.659 90.348, 71.406 97.209, 72.624 " />
            <path fill="none" stroke-width="3.0" stroke-linecap="butt" stroke-opacity="1.0" stroke="rgb(0, 0, 0)" stroke-linejoin="round" d=" M 129.739, 125.038 131.156, 125.545 139.959, 128.699 149.373, 132.071 158.787, 135.443 160.745, 136.144 170.118, 139.629 177.823, 142.495 186.012, 145.540 190.267, 147.226 199.563, 150.911 200.620, 151.330 201.652, 151.739 207.113, 154.424 " />
            <path fill="none" stroke-width="3.0" stroke-linecap="butt" stroke-opacity="1.0" stroke="rgb(0, 0, 0)" stroke-linejoin="round" d=" M 187.594, 141.338 178.247, 137.783 168.715, 134.159 168.260, 133.986 168.236, 133.977 162.548, 131.814 153.143, 128.416 149.797, 127.207 140.392, 123.809 130.965, 120.403 " />
            <path fill="none" stroke-width="3.0" stroke-linecap="butt" stroke-opacity="1.0" stroke="rgb(0, 0, 0)" stroke-linejoin="round" d=" M 72.721, 51.799 70.730, 50.023 68.018, 49.168 66.980, 49.506 66.144, 49.970 " />
            <path fill="none" stroke-width="3.0" stroke-linecap="butt" stroke-opacity="1.0" stroke="rgb(0, 0, 0)" stroke-linejoin="round" d=" M 48.678, 148.525 48.401, 149.166 48.240, 149.540 " />
            <path fill="none" stroke-width="3.0" stroke-linecap="butt" stroke-opacity="1.0" stroke="rgb(0, 0, 0)" stroke-linejoin="round" d=" M 54.396, 30.978 56.289, 31.927 " />
            <path fill="none" stroke-width="3.0" stroke-linecap="butt" stroke-opacity="1.0" stroke="rgb(0, 0, 0)" stroke-linejoin="round" d=" M 65.025, 54.667 65.361, 53.589 65.558, 52.957 66.136, 51.104 " />
            <path fill="none" stroke-width="3.0" stroke-linecap="butt" stroke-opacity="1.0" stroke="rgb(0, 0, 0)" stroke-linejoin="round" d=" M 59.547, 69.124 60.019, 69.283 " />
            <path fill="none" stroke-width="3.0" stroke-linecap="butt" stroke-opacity="1.0" stroke="rgb(0, 0, 0)" stroke-linejoin="round" d=" M 66.142, 50.204 68.018, 49.168 " />
            <path fill="none" stroke-width="3.0" stroke-linecap="butt" stroke-opacity="1.0" stroke="rgb(0, 0, 0)" stroke-linejoin="round" d=" M 60.015, 68.417 61.945, 69.933 66.026, 73.137 66.953, 73.865 67.372, 74.193 67.579, 74.356 68.297, 74.920 69.079, 73.813 69.324, 73.467 " />
            <path fill="none" stroke-width="3.0" stroke-linecap="butt" stroke-opacity="1.0" stroke="rgb(0, 0, 0)" stroke-linejoin="round" d=" M 60.196, 68.143 64.416, 69.464 " />
            <path fill="none" stroke-width="3.0" stroke-linecap="butt" stroke-opacity="1.0" stroke="rgb(0, 0, 0)" stroke-linejoin="round" d=" M 65.584, 73.755 65.480, 73.900 62.271, 78.389 " />
            <path fill="none" stroke-width="3.0" stroke-linecap="butt" stroke-opacity="1.0" stroke="rgb(0, 0, 0)" stroke-linejoin="round" d=" M 67.892, 77.987 71.169, 73.422 " />
            <path fill="none" stroke-width="3.0" stroke-linecap="butt" stroke-opacity="1.0" stroke="rgb(0, 0, 0)" stroke-linejoin="round" d=" M 106.823, 117.072 107.772, 118.142 108.501, 118.964 108.654, 119.136 109.390, 119.966 " />
        </g>
    </g>
</svg>
