<?xml version='1.0' encoding='ascii'?>
<svg xmlns="http://www.w3.org/2000/svg" version="1.1" width="250" height="250">
    <g id="ViewLayer_LineSet" xmlns:inkscape="http://www.inkscape.org/namespaces/inkscape" inkscape:groupmode="lineset" inkscape:label="ViewLayer_LineSet">
        <g xmlns:inkscape="http://www.inkscape.org/namespaces/inkscape" inkscape:groupmode="layer" id="strokes" inkscape:label="strokes">
            <path fill="none" stroke-width="3.0" stroke-linecap="butt" stroke-opacity="1.0" stroke="rgb(0, 0, 0)" stroke-linejoin="round" d=" M 145.876, 209.804 154.673, 205.630 158.127, 203.407 162.191, 200.447 166.811, 197.082 173.759, 189.890 174.432, 189.194 176.096, 186.803 " />
            <path fill="none" stroke-width="3.0" stroke-linecap="butt" stroke-opacity="1.0" stroke="rgb(0, 0, 0)" stroke-linejoin="round" d=" M 59.490, 98.532 59.462, 98.567 57.979, 100.431 53.745, 107.544 49.935, 116.216 49.332, 118.171 48.397, 121.195 48.294, 121.529 47.267, 124.853 46.015, 131.002 45.470, 137.375 45.350, 139.776 45.245, 141.880 45.474, 147.527 45.953, 152.033 46.814, 156.666 46.909, 157.107 47.661, 160.622 48.947, 164.930 50.611, 169.398 52.580, 173.834 54.769, 178.045 57.084, 181.847 59.426, 185.066 59.701, 185.431 " />
            <path fill="none" stroke-width="3.0" stroke-linecap="butt" stroke-opacity="1.0" stroke="rgb(0, 0, 0)" stroke-linejoin="round" d=" M 190.685, 129.674 188.848, 121.080 188.636, 120.532 " />
            <path fill="none" stroke-width="3.0" stroke-linecap="butt" stroke-opacity="1.0" stroke="rgb(0, 0, 0)" stroke-linejoin="round" d=" M 108.917, 214.525 112.523, 214.924 113.211, 215.000 117.720, 215.196 122.244, 215.102 125.392, 214.827 126.578, 214.724 130.534, 214.081 136.862, 212.667 141.905, 211.371 " />
            <path fill="none" stroke-width="3.0" stroke-linecap="butt" stroke-opacity="1.0" stroke="rgb(0, 0, 0)" stroke-linejoin="round" d=" M 77.110, 150.222 77.664, 151.622 79.028, 153.691 80.923, 155.351 83.118, 156.580 83.921, 156.754 85.160, 157.024 87.254, 156.953 89.629, 156.126 91.678, 154.798 93.227, 152.952 93.943, 151.636 " />
            <path fill="none" stroke-width="3.0" stroke-linecap="butt" stroke-opacity="1.0" stroke="rgb(0, 0, 0)" stroke-linejoin="round" d=" M 117.431, 101.015 117.713, 101.961 118.028, 103.021 118.480, 106.409 118.520, 110.233 118.537, 110.302 117.418, 118.717 117.384, 118.832 117.351, 118.947 116.191, 122.929 114.686, 127.218 112.931, 131.215 110.990, 134.727 108.930, 137.580 108.314, 138.179 107.928, 138.554 106.821, 139.631 104.735, 140.778 102.746, 140.962 101.452, 140.399 100.926, 140.170 99.348, 138.435 98.547, 136.790 98.295, 136.274 98.082, 135.837 97.189, 132.497 96.716, 128.576 96.694, 124.262 97.130, 119.761 97.986, 115.350 98.094, 114.978 98.139, 114.823 99.189, 111.188 100.710, 107.286 102.489, 103.786 104.458, 100.811 105.427, 99.718 " />
            <path fill="none" stroke-width="3.0" stroke-linecap="butt" stroke-opacity="1.0" stroke="rgb(0, 0, 0)" stroke-linejoin="round" d=" M 77.311, 118.684 76.333, 122.977 75.249, 127.086 74.206, 130.389 74.075, 130.804 74.073, 130.810 72.812, 133.963 71.472, 136.386 70.069, 137.959 68.907, 138.483 68.630, 138.607 67.218, 138.602 65.843, 137.066 64.635, 134.964 63.659, 132.106 62.997, 128.636 62.914, 127.496 62.880, 127.022 62.714, 124.730 62.852, 120.574 63.100, 118.727 63.410, 116.426 64.277, 112.429 65.395, 108.586 66.720, 105.035 67.265, 103.876 67.508, 103.360 68.197, 101.897 69.770, 99.280 70.649, 98.181 " />
            <path fill="none" stroke-width="3.0" stroke-linecap="butt" stroke-opacity="1.0" stroke="rgb(0, 0, 0)" stroke-linejoin="round" d=" M 67.218, 138.602 70.423, 139.998 " />
            <path fill="none" stroke-width="3.0" stroke-linecap="butt" stroke-opacity="1.0" stroke="rgb(0, 0, 0)" stroke-linejoin="round" d=" M 77.855, 97.954 77.875, 97.989 78.527, 100.292 78.887, 103.203 78.997, 106.690 78.822, 108.801 78.798, 109.096 78.688, 110.430 " />
            <path fill="none" stroke-width="3.0" stroke-linecap="butt" stroke-opacity="1.0" stroke="rgb(0, 0, 0)" stroke-linejoin="round" d=" M 80.418, 120.644 77.311, 118.684 77.394, 118.259 78.135, 114.480 78.688, 110.430 81.755, 112.483 " />
            <path fill="none" stroke-width="3.0" stroke-linecap="butt" stroke-opacity="1.0" stroke="rgb(0, 0, 0)" stroke-linejoin="round" d=" M 171.474, 200.859 176.089, 204.609 " />
            <path fill="none" stroke-width="3.0" stroke-linecap="butt" stroke-opacity="1.0" stroke="rgb(0, 0, 0)" stroke-linejoin="round" d=" M 162.191, 200.447 165.278, 201.079 170.161, 203.513 173.595, 206.397 " />
            <path fill="none" stroke-width="3.0" stroke-linecap="butt" stroke-opacity="1.0" stroke="rgb(0, 0, 0)" stroke-linejoin="round" d=" M 181.937, 215.954 182.643, 214.158 186.302, 204.852 186.459, 204.452 188.868, 194.746 189.214, 193.350 189.312, 191.311 189.339, 190.363 " />
            <path fill="none" stroke-width="3.0" stroke-linecap="butt" stroke-opacity="1.0" stroke="rgb(0, 0, 0)" stroke-linejoin="round" d=" M 125.392, 214.827 125.437, 215.914 126.025, 218.587 127.670, 223.067 128.684, 225.673 130.481, 227.790 134.244, 231.315 138.824, 233.811 144.278, 235.195 149.162, 235.706 154.568, 235.307 161.458, 233.868 167.158, 231.867 172.754, 229.014 176.114, 226.096 177.736, 223.884 181.331, 217.631 182.643, 214.158 " />
            <path fill="none" stroke-width="3.0" stroke-linecap="butt" stroke-opacity="1.0" stroke="rgb(0, 0, 0)" stroke-linejoin="round" d=" M 110.825, 216.873 112.002, 215.805 112.523, 214.924 " />
            <path fill="none" stroke-width="3.0" stroke-linecap="butt" stroke-opacity="1.0" stroke="rgb(0, 0, 0)" stroke-linejoin="round" d=" M 59.701, 185.431 55.230, 187.405 50.079, 190.111 45.041, 193.631 41.741, 196.571 38.775, 201.279 37.872, 203.048 35.911, 207.180 34.836, 211.198 34.625, 215.001 35.235, 218.979 36.337, 221.347 38.901, 224.889 41.645, 226.780 46.380, 228.705 50.983, 229.818 55.328, 230.281 60.277, 230.960 67.018, 231.158 71.479, 230.593 77.149, 230.105 83.804, 228.475 90.998, 226.310 95.350, 224.954 101.505, 223.035 104.732, 221.649 106.073, 220.856 108.036, 219.637 110.825, 216.873 111.184, 216.518 " />
            <path fill="none" stroke-width="3.0" stroke-linecap="butt" stroke-opacity="1.0" stroke="rgb(0, 0, 0)" stroke-linejoin="round" d=" M 206.162, 147.036 202.842, 141.966 201.369, 139.917 201.048, 139.471 199.602, 137.459 196.131, 133.588 192.237, 130.458 190.685, 129.674 186.574, 127.597 " />
            <path fill="none" stroke-width="3.0" stroke-linecap="butt" stroke-opacity="1.0" stroke="rgb(0, 0, 0)" stroke-linejoin="round" d=" M 171.147, 183.836 175.168, 186.375 176.096, 186.803 179.075, 188.177 182.132, 189.266 186.025, 190.268 189.339, 190.363 189.420, 190.366 192.810, 190.105 195.589, 189.589 198.235, 188.627 200.473, 187.605 202.367, 186.300 204.615, 184.702 206.800, 182.376 208.222, 180.778 209.853, 177.868 210.894, 175.446 211.755, 172.411 212.391, 169.222 212.397, 165.362 212.263, 163.217 211.402, 159.057 209.960, 154.569 " />
            <path fill="none" stroke-width="3.0" stroke-linecap="butt" stroke-opacity="1.0" stroke="rgb(0, 0, 0)" stroke-linejoin="round" d=" M 209.960, 154.569 209.146, 152.831 206.162, 147.036 207.345, 148.943 209.960, 154.569 " />
            <path fill="none" stroke-width="3.0" stroke-linecap="butt" stroke-opacity="1.0" stroke="rgb(0, 0, 0)" stroke-linejoin="round" d=" M 45.350, 139.776 44.684, 143.382 44.175, 146.587 44.890, 151.828 45.216, 153.777 45.982, 155.313 46.909, 157.107 " />
            <path fill="none" stroke-width="3.0" stroke-linecap="butt" stroke-opacity="1.0" stroke="rgb(0, 0, 0)" stroke-linejoin="round" d=" M 116.269, 70.730 119.263, 68.432 119.518, 68.236 119.675, 67.915 119.712, 67.840 121.370, 64.460 122.356, 61.873 122.336, 58.190 121.320, 55.517 119.415, 51.810 117.662, 50.531 " />
            <path fill="none" stroke-width="3.0" stroke-linecap="butt" stroke-opacity="1.0" stroke="rgb(0, 0, 0)" stroke-linejoin="round" d=" M 56.091, 54.018 55.996, 54.285 54.476, 58.580 52.837, 64.667 52.267, 72.514 52.558, 73.782 54.209, 79.066 56.699, 80.317 60.017, 81.084 61.645, 81.461 61.844, 81.507 65.729, 81.964 71.740, 80.905 77.305, 79.482 82.762, 77.304 82.830, 77.277 " />
            <path fill="none" stroke-width="3.0" stroke-linecap="butt" stroke-opacity="1.0" stroke="rgb(0, 0, 0)" stroke-linejoin="round" d=" M 33.805, 110.732 31.602, 106.177 32.783, 105.021 37.483, 100.417 41.870, 99.289 49.836, 97.241 53.177, 96.381 56.753, 96.252 59.047, 96.169 61.438, 96.083 71.431, 95.721 73.691, 95.639 75.909, 95.559 75.916, 95.559 79.966, 95.412 89.936, 96.187 99.906, 96.961 107.696, 97.567 113.689, 98.032 116.245, 98.479 116.297, 98.488 126.148, 100.209 135.999, 101.930 145.850, 103.650 147.687, 103.971 157.347, 106.555 167.008, 109.139 176.668, 111.723 177.105, 111.840 178.199, 112.294 178.788, 112.539 183.085, 114.322 " />
            <path fill="none" stroke-width="3.0" stroke-linecap="butt" stroke-opacity="1.0" stroke="rgb(0, 0, 0)" stroke-linejoin="round" d=" M 201.048, 139.471 206.686, 136.147 206.318, 129.753 200.066, 124.957 197.930, 123.318 " />
            <path fill="none" stroke-width="3.0" stroke-linecap="butt" stroke-opacity="1.0" stroke="rgb(0, 0, 0)" stroke-linejoin="round" d=" M 39.002, 106.821 40.873, 105.170 44.972, 101.552 54.733, 99.379 58.382, 98.567 " />
            <path fill="none" stroke-width="3.0" stroke-linecap="butt" stroke-opacity="1.0" stroke="rgb(0, 0, 0)" stroke-linejoin="round" d=" M 38.856, 115.637 47.136, 121.054 48.294, 121.529 " />
            <path fill="none" stroke-width="3.0" stroke-linecap="butt" stroke-opacity="1.0" stroke="rgb(0, 0, 0)" stroke-linejoin="round" d=" M 55.975, 98.643 46.217, 100.830 45.621, 100.964 41.088, 101.980 39.811, 102.266 33.802, 107.813 34.550, 109.403 " />
            <path fill="none" stroke-width="3.0" stroke-linecap="butt" stroke-opacity="1.0" stroke="rgb(0, 0, 0)" stroke-linejoin="round" d=" M 55.975, 98.643 58.382, 98.567 59.424, 98.534 59.490, 98.532 61.274, 98.476 70.649, 98.181 76.278, 98.004 77.855, 97.954 79.149, 97.914 81.512, 97.839 91.481, 98.622 101.451, 99.406 105.427, 99.718 110.267, 100.098 113.443, 100.348 117.431, 101.015 117.975, 101.107 127.838, 102.758 136.157, 104.151 146.019, 105.803 146.757, 105.926 156.425, 108.483 166.092, 111.039 175.713, 113.583 179.330, 115.063 184.445, 117.157 " />
            <path fill="none" stroke-width="3.0" stroke-linecap="butt" stroke-opacity="1.0" stroke="rgb(0, 0, 0)" stroke-linejoin="round" d=" M 41.011, 92.772 36.208, 96.697 33.039, 99.918 31.227, 102.774 30.057, 105.818 30.050, 108.289 30.514, 110.467 34.842, 114.628 37.522, 116.103 38.856, 115.637 38.876, 115.630 40.784, 114.964 42.036, 114.110 43.641, 113.015 45.226, 107.932 " />
            <path fill="none" stroke-width="3.0" stroke-linecap="butt" stroke-opacity="1.0" stroke="rgb(0, 0, 0)" stroke-linejoin="round" d=" M 33.245, 112.059 30.514, 110.467 " />
            <path fill="none" stroke-width="3.0" stroke-linecap="butt" stroke-opacity="1.0" stroke="rgb(0, 0, 0)" stroke-linejoin="round" d=" M 43.641, 113.015 39.911, 110.635 " />
            <path fill="none" stroke-width="3.0" stroke-linecap="butt" stroke-opacity="1.0" stroke="rgb(0, 0, 0)" stroke-linejoin="round" d=" M 40.788, 108.307 39.911, 110.635 36.489, 111.598 " />
            <path fill="none" stroke-width="3.0" stroke-linecap="butt" stroke-opacity="1.0" stroke="rgb(0, 0, 0)" stroke-linejoin="round" d=" M 57.452, 83.190 50.499, 86.511 42.153, 92.019 41.011, 92.772 47.270, 88.701 48.567, 87.999 57.362, 83.239 57.452, 83.190 59.089, 82.515 61.645, 81.461 " />
            <path fill="none" stroke-width="3.0" stroke-linecap="butt" stroke-opacity="1.0" stroke="rgb(0, 0, 0)" stroke-linejoin="round" d=" M 47.270, 88.701 49.691, 87.713 49.802, 87.668 53.161, 86.297 55.741, 85.244 57.699, 84.657 67.368, 81.762 77.317, 80.753 78.544, 80.628 80.460, 80.434 81.802, 80.399 87.694, 80.245 88.987, 80.302 89.607, 80.329 " />
            <path fill="none" stroke-width="3.0" stroke-linecap="butt" stroke-opacity="1.0" stroke="rgb(0, 0, 0)" stroke-linejoin="round" d=" M 179.330, 115.063 180.012, 116.731 182.535, 117.922 183.029, 118.155 183.805, 118.484 188.636, 120.532 196.876, 124.025 197.007, 123.937 197.930, 123.318 198.718, 122.789 199.079, 122.547 199.331, 121.449 199.914, 118.913 197.011, 114.350 192.330, 109.818 190.516, 108.062 183.572, 103.055 182.958, 102.612 178.739, 99.478 177.597, 98.629 176.742, 97.993 171.807, 95.077 168.207, 92.951 161.179, 90.010 158.252, 88.785 157.027, 88.273 147.482, 85.290 144.318, 84.301 134.705, 81.547 131.526, 80.637 121.668, 78.957 118.669, 78.445 109.259, 76.911 107.479, 76.621 " />
            <path fill="none" stroke-width="3.0" stroke-linecap="butt" stroke-opacity="1.0" stroke="rgb(0, 0, 0)" stroke-linejoin="round" d=" M 102.750, 81.353 107.730, 81.868 111.446, 82.252 112.333, 82.470 122.045, 84.850 128.093, 86.333 137.697, 89.119 142.170, 90.417 142.494, 90.511 151.820, 94.118 155.331, 95.475 164.489, 99.492 166.480, 100.365 174.848, 104.435 181.300, 108.045 184.822, 110.687 186.372, 111.850 187.448, 113.550 187.810, 114.121 188.260, 114.833 188.477, 116.349 188.626, 117.389 187.657, 118.006 187.211, 118.290 186.090, 119.002 " />
            <path fill="none" stroke-width="3.0" stroke-linecap="butt" stroke-opacity="1.0" stroke="rgb(0, 0, 0)" stroke-linejoin="round" d=" M 99.116, 78.004 100.281, 76.337 102.911, 72.573 103.640, 70.074 103.968, 68.950 104.314, 67.762 104.551, 66.951 104.987, 65.456 105.249, 64.556 105.330, 64.277 105.867, 57.857 105.853, 55.741 105.847, 54.751 105.838, 53.322 105.836, 53.072 " />
            <path fill="none" stroke-width="3.0" stroke-linecap="butt" stroke-opacity="1.0" stroke="rgb(0, 0, 0)" stroke-linejoin="round" d=" M 76.872, 72.731 80.421, 75.063 83.059, 76.347 83.298, 76.464 84.375, 76.989 85.574, 77.572 93.092, 79.145 99.116, 78.004 99.202, 78.107 100.320, 79.449 101.984, 80.754 102.298, 80.854 103.437, 81.216 " />
            <path fill="none" stroke-width="3.0" stroke-linecap="butt" stroke-opacity="1.0" stroke="rgb(0, 0, 0)" stroke-linejoin="round" d=" M 54.209, 79.066 53.888, 77.695 " />
            <path fill="none" stroke-width="3.0" stroke-linecap="butt" stroke-opacity="1.0" stroke="rgb(0, 0, 0)" stroke-linejoin="round" d=" M 79.894, 75.572 77.629, 74.041 76.872, 72.731 72.526, 75.033 66.649, 77.450 61.787, 78.355 59.024, 78.870 53.888, 77.695 52.267, 72.514 " />
            <path fill="none" stroke-width="3.0" stroke-linecap="butt" stroke-opacity="1.0" stroke="rgb(0, 0, 0)" stroke-linejoin="round" d=" M 110.669, 60.469 110.898, 60.147 110.954, 60.070 111.193, 59.733 114.185, 55.532 114.493, 55.089 117.662, 50.531 118.862, 48.805 122.531, 43.151 122.836, 42.032 124.074, 37.492 124.125, 34.326 122.941, 32.073 119.461, 27.803 114.187, 25.353 111.252, 24.235 105.514, 23.115 103.084, 22.850 101.129, 22.637 " />
            <path fill="none" stroke-width="3.0" stroke-linecap="butt" stroke-opacity="1.0" stroke="rgb(0, 0, 0)" stroke-linejoin="round" d=" M 55.996, 54.285 53.313, 50.460 50.321, 45.386 48.898, 39.968 49.369, 34.450 53.723, 30.232 60.762, 26.687 66.454, 25.069 70.768, 24.178 73.359, 20.176 77.249, 14.982 83.328, 9.189 88.737, 6.494 93.351, 8.528 97.620, 13.756 99.840, 18.722 101.129, 22.637 " />
            <path fill="none" stroke-width="3.0" stroke-linecap="butt" stroke-opacity="1.0" stroke="rgb(0, 0, 0)" stroke-linejoin="round" d=" M 108.968, 56.161 107.677, 54.645 107.174, 54.054 105.917, 53.132 105.836, 53.072 106.003, 52.928 106.795, 52.241 110.364, 49.150 110.959, 48.535 115.816, 43.512 116.523, 42.408 119.654, 37.519 121.330, 31.524 117.926, 27.338 111.252, 24.235 " />
            <path fill="none" stroke-width="3.0" stroke-linecap="butt" stroke-opacity="1.0" stroke="rgb(0, 0, 0)" stroke-linejoin="round" d=" M 103.084, 22.850 102.169, 20.506 99.686, 15.670 98.262, 13.379 94.380, 8.636 89.677, 6.564 88.737, 6.494 " />
            <path fill="none" stroke-width="3.0" stroke-linecap="butt" stroke-opacity="1.0" stroke="rgb(0, 0, 0)" stroke-linejoin="round" d=" M 53.313, 50.460 56.091, 54.018 " />
            <path fill="none" stroke-width="3.0" stroke-linecap="butt" stroke-opacity="1.0" stroke="rgb(0, 0, 0)" stroke-linejoin="round" d=" M 191.355, 104.973 188.456, 95.403 186.355, 88.468 185.351, 87.397 184.143, 83.052 179.296, 74.304 178.034, 72.025 171.505, 64.451 170.391, 63.158 164.712, 57.661 156.755, 51.604 156.399, 51.334 149.180, 47.483 142.919, 45.319 138.130, 43.758 137.100, 43.422 130.652, 42.271 126.609, 42.097 124.297, 41.997 122.836, 42.032 " />
            <path fill="none" stroke-width="3.0" stroke-linecap="butt" stroke-opacity="1.0" stroke="rgb(0, 0, 0)" stroke-linejoin="round" d=" M 79.894, 75.572 81.736, 76.641 82.779, 77.247 82.830, 77.277 83.391, 77.603 84.576, 78.291 84.769, 78.403 87.789, 79.606 89.464, 80.272 89.607, 80.329 90.203, 80.567 90.791, 80.801 93.821, 81.457 97.846, 82.329 100.995, 81.702 102.750, 81.353 103.437, 81.216 103.624, 80.948 104.359, 79.897 106.671, 76.589 107.124, 75.941 107.378, 75.578 108.682, 71.698 108.821, 71.285 109.219, 69.199 109.483, 67.814 109.591, 67.246 110.239, 63.848 110.669, 60.469 110.746, 59.865 110.773, 59.650 110.849, 59.054 110.889, 58.745 " />
            <path fill="none" stroke-width="3.0" stroke-linecap="butt" stroke-opacity="1.0" stroke="rgb(0, 0, 0)" stroke-linejoin="round" d=" M 186.655, 101.976 183.071, 98.971 174.822, 95.241 166.797, 91.612 161.179, 90.010 " />
            <path fill="none" stroke-width="3.0" stroke-linecap="butt" stroke-opacity="1.0" stroke="rgb(0, 0, 0)" stroke-linejoin="round" d=" M 121.266, 67.931 119.712, 67.840 " />
            <path fill="none" stroke-width="3.0" stroke-linecap="butt" stroke-opacity="1.0" stroke="rgb(0, 0, 0)" stroke-linejoin="round" d=" M 121.266, 67.931 131.144, 69.485 131.354, 69.518 131.977, 69.616 141.855, 71.171 145.033, 71.671 " />
            <path fill="none" stroke-width="3.0" stroke-linecap="butt" stroke-opacity="1.0" stroke="rgb(0, 0, 0)" stroke-linejoin="round" d=" M 138.130, 43.758 137.562, 42.993 134.226, 41.602 130.168, 41.152 127.002, 41.819 126.609, 42.097 " />
            <path fill="none" stroke-width="3.0" stroke-linecap="butt" stroke-opacity="1.0" stroke="rgb(0, 0, 0)" stroke-linejoin="round" d=" M 201.369, 139.917 208.936, 135.496 209.802, 131.789 209.644, 124.903 205.815, 119.407 200.039, 112.305 192.398, 105.854 191.355, 104.973 190.490, 104.243 186.655, 101.976 185.060, 101.033 176.367, 97.127 171.807, 95.077 " />
            <path fill="none" stroke-width="3.0" stroke-linecap="butt" stroke-opacity="1.0" stroke="rgb(0, 0, 0)" stroke-linejoin="round" d=" M 199.331, 121.449 207.198, 127.623 208.715, 128.814 208.936, 135.496 " />
            <path fill="none" stroke-width="3.0" stroke-linecap="butt" stroke-opacity="1.0" stroke="rgb(0, 0, 0)" stroke-linejoin="round" d=" M 44.419, 91.732 43.564, 92.378 38.101, 96.443 32.039, 102.522 31.602, 106.177 " />
            <path fill="none" stroke-width="3.0" stroke-linecap="butt" stroke-opacity="1.0" stroke="rgb(0, 0, 0)" stroke-linejoin="round" d=" M 209.644, 124.903 201.891, 118.586 199.377, 116.537 " />
            <path fill="none" stroke-width="3.0" stroke-linecap="butt" stroke-opacity="1.0" stroke="rgb(0, 0, 0)" stroke-linejoin="round" d=" M 60.017, 81.084 59.089, 82.515 " />
            <path fill="none" stroke-width="3.0" stroke-linecap="butt" stroke-opacity="1.0" stroke="rgb(0, 0, 0)" stroke-linejoin="round" d=" M 107.259, 76.612 107.488, 75.842 108.721, 71.696 " />
            <path fill="none" stroke-width="3.0" stroke-linecap="butt" stroke-opacity="1.0" stroke="rgb(0, 0, 0)" stroke-linejoin="round" d=" M 108.682, 71.698 108.721, 71.696 110.888, 71.633 " />
            <path fill="none" stroke-width="3.0" stroke-linecap="butt" stroke-opacity="1.0" stroke="rgb(0, 0, 0)" stroke-linejoin="round" d=" M 197.007, 123.937 201.604, 127.427 " />
        </g>
    </g>
</svg>
