<?xml version='1.0' encoding='ascii'?>
<svg xmlns="http://www.w3.org/2000/svg" version="1.1" width="250" height="250">
    <g id="ViewLayer_LineSet" xmlns:inkscape="http://www.inkscape.org/namespaces/inkscape" inkscape:groupmode="lineset" inkscape:label="ViewLayer_LineSet">
        <g xmlns:inkscape="http://www.inkscape.org/namespaces/inkscape" inkscape:groupmode="layer" id="strokes" inkscape:label="strokes">
            <path fill="none" stroke-width="3.0" stroke-linecap="butt" stroke-opacity="1.0" stroke="rgb(0, 0, 0)" stroke-linejoin="round" d=" M 57.303, 165.358 60.133, 171.841 61.765, 175.580 63.588, 178.464 69.031, 186.853 69.587, 187.711 71.953, 190.270 " />
            <path fill="none" stroke-width="3.0" stroke-linecap="butt" stroke-opacity="1.0" stroke="rgb(0, 0, 0)" stroke-linejoin="round" d=" M 134.568, 213.871 137.142, 213.455 143.476, 212.059 148.368, 210.798 152.200, 209.273 160.910, 205.177 164.209, 203.008 172.312, 197.147 172.785, 196.805 174.890, 194.641 180.311, 189.068 185.966, 180.820 186.548, 179.971 188.395, 177.132 188.425, 177.068 " />
            <path fill="none" stroke-width="3.0" stroke-linecap="butt" stroke-opacity="1.0" stroke="rgb(0, 0, 0)" stroke-linejoin="round" d=" M 89.028, 176.370 82.918, 179.277 78.106, 182.701 75.833, 184.839 72.194, 189.885 71.953, 190.270 69.428, 194.298 66.628, 201.115 65.584, 205.465 65.186, 213.166 65.070, 217.238 65.953, 220.849 67.527, 228.110 68.989, 231.621 70.336, 234.356 72.507, 237.662 76.017, 239.643 80.873, 240.954 85.924, 241.625 92.697, 242.136 98.066, 242.170 103.123, 241.849 109.364, 240.936 114.724, 239.598 118.458, 237.826 124.970, 232.099 127.973, 229.427 129.668, 226.550 132.788, 219.163 133.589, 216.781 134.568, 213.871 135.275, 211.767 136.250, 208.539 136.788, 202.481 136.870, 199.017 136.042, 195.161 134.225, 190.037 132.598, 186.004 " />
            <path fill="none" stroke-width="3.0" stroke-linecap="butt" stroke-opacity="1.0" stroke="rgb(0, 0, 0)" stroke-linejoin="round" d=" M 133.589, 216.781 134.607, 217.392 140.526, 219.183 146.296, 219.663 151.067, 219.654 155.681, 219.105 " />
            <path fill="none" stroke-width="3.0" stroke-linecap="butt" stroke-opacity="1.0" stroke="rgb(0, 0, 0)" stroke-linejoin="round" d=" M 163.252, 217.031 168.003, 214.391 171.595, 210.697 173.347, 208.398 174.180, 205.739 175.338, 201.334 175.565, 198.010 174.890, 194.641 " />
            <path fill="none" stroke-width="3.0" stroke-linecap="butt" stroke-opacity="1.0" stroke="rgb(0, 0, 0)" stroke-linejoin="round" d=" M 157.536, 218.654 163.252, 217.031 161.384, 217.905 155.681, 219.105 157.536, 218.654 " />
            <path fill="none" stroke-width="3.0" stroke-linecap="butt" stroke-opacity="1.0" stroke="rgb(0, 0, 0)" stroke-linejoin="round" d=" M 39.167, 134.766 36.642, 137.681 33.946, 141.655 32.557, 144.893 31.116, 149.954 30.939, 152.677 30.893, 154.981 31.608, 158.705 32.033, 160.048 33.451, 163.499 35.839, 166.755 38.429, 169.174 40.354, 170.565 42.017, 171.410 43.653, 172.154 46.563, 172.951 49.286, 173.415 52.154, 173.257 55.859, 172.949 59.383, 172.158 60.133, 171.841 " />
            <path fill="none" stroke-width="3.0" stroke-linecap="butt" stroke-opacity="1.0" stroke="rgb(0, 0, 0)" stroke-linejoin="round" d=" M 188.425, 177.068 192.269, 178.885 196.302, 180.222 200.427, 180.907 203.992, 180.820 207.251, 180.241 208.534, 179.847 211.492, 178.723 214.130, 177.119 216.501, 175.117 217.313, 174.285 219.325, 171.750 220.881, 168.984 221.974, 165.974 222.568, 162.663 222.678, 159.070 222.011, 154.903 220.669, 150.820 218.648, 146.538 215.021, 141.284 214.677, 140.872 " />
            <path fill="none" stroke-width="3.0" stroke-linecap="butt" stroke-opacity="1.0" stroke="rgb(0, 0, 0)" stroke-linejoin="round" d=" M 60.007, 94.460 52.067, 100.539 50.306, 101.887 44.614, 107.191 40.933, 111.149 40.678, 111.423 40.308, 112.317 39.891, 113.327 36.071, 122.568 35.855, 123.092 36.448, 126.608 39.167, 134.766 40.923, 140.032 48.363, 146.714 54.325, 152.067 55.922, 153.501 65.011, 157.670 74.101, 161.839 75.869, 162.650 81.000, 165.003 90.745, 167.244 100.491, 169.484 110.237, 171.725 113.304, 172.430 122.969, 172.988 132.952, 173.566 142.936, 174.143 146.462, 174.346 156.379, 173.054 160.039, 172.576 169.955, 171.283 176.231, 170.465 178.412, 169.647 187.776, 166.136 194.021, 163.795 199.372, 161.788 206.810, 155.104 212.313, 150.158 213.488, 146.386 214.677, 140.872 216.170, 133.950 211.697, 125.007 210.141, 121.896 207.315, 117.496 202.814, 111.643 198.130, 107.810 " />
            <path fill="none" stroke-width="3.0" stroke-linecap="butt" stroke-opacity="1.0" stroke="rgb(0, 0, 0)" stroke-linejoin="round" d=" M 60.558, 93.215 57.226, 95.463 52.741, 99.251 47.129, 103.839 42.005, 109.143 40.933, 111.149 " />
            <path fill="none" stroke-width="3.0" stroke-linecap="butt" stroke-opacity="1.0" stroke="rgb(0, 0, 0)" stroke-linejoin="round" d=" M 40.308, 112.317 39.852, 113.171 39.891, 113.327 " />
            <path fill="none" stroke-width="3.0" stroke-linecap="butt" stroke-opacity="1.0" stroke="rgb(0, 0, 0)" stroke-linejoin="round" d=" M 125.427, 40.172 125.158, 39.561 123.185, 35.954 119.790, 31.882 115.875, 29.808 111.682, 31.577 107.708, 35.402 107.197, 36.106 105.216, 38.885 102.837, 42.891 99.478, 43.356 98.339, 43.583 94.948, 44.265 93.383, 44.789 89.049, 46.663 85.848, 49.813 86.235, 54.193 87.552, 56.768 " />
            <path fill="none" stroke-width="3.0" stroke-linecap="butt" stroke-opacity="1.0" stroke="rgb(0, 0, 0)" stroke-linejoin="round" d=" M 123.219, 42.429 122.641, 42.434 117.164, 43.039 113.105, 44.151 103.614, 47.301 101.636, 47.958 93.106, 53.177 91.178, 54.356 87.914, 56.527 87.552, 56.768 85.940, 57.841 78.503, 64.526 76.449, 66.372 70.482, 74.397 68.677, 76.824 66.317, 82.100 65.032, 83.106 60.985, 92.250 60.558, 93.215 60.007, 94.460 58.796, 97.197 58.602, 97.634 58.527, 97.803 57.699, 100.241 56.454, 103.905 56.039, 105.124 55.629, 106.331 55.600, 106.417 55.815, 106.872 55.827, 106.897 55.872, 106.993 56.209, 107.709 59.505, 114.702 60.091, 115.945 65.936, 120.343 72.585, 125.347 81.865, 129.073 83.328, 129.660 92.415, 133.309 102.203, 135.357 111.991, 137.404 117.339, 138.523 127.322, 139.110 137.305, 139.697 143.800, 140.079 153.755, 139.127 163.709, 138.176 164.138, 138.135 167.827, 137.782 177.391, 134.862 186.156, 132.185 194.251, 126.313 195.182, 125.638 195.904, 125.114 196.965, 124.344 198.372, 120.128 198.784, 118.892 199.232, 117.552 199.446, 116.911 199.933, 115.451 199.320, 112.853 198.130, 107.810 195.835, 98.077 195.634, 97.226 193.824, 93.947 " />
            <path fill="none" stroke-width="3.0" stroke-linecap="butt" stroke-opacity="1.0" stroke="rgb(0, 0, 0)" stroke-linejoin="round" d=" M 115.875, 29.808 116.343, 30.857 116.829, 33.244 " />
            <path fill="none" stroke-width="3.0" stroke-linecap="butt" stroke-opacity="1.0" stroke="rgb(0, 0, 0)" stroke-linejoin="round" d=" M 102.837, 42.891 103.424, 44.029 " />
            <path fill="none" stroke-width="3.0" stroke-linecap="butt" stroke-opacity="1.0" stroke="rgb(0, 0, 0)" stroke-linejoin="round" d=" M 85.848, 49.813 86.424, 50.779 88.158, 52.332 " />
            <path fill="none" stroke-width="3.0" stroke-linecap="butt" stroke-opacity="1.0" stroke="rgb(0, 0, 0)" stroke-linejoin="round" d=" M 183.533, 110.315 182.209, 110.629 172.479, 112.938 166.665, 114.318 156.690, 115.032 146.716, 115.746 144.538, 115.902 135.413, 115.361 134.177, 115.288 124.195, 114.697 121.865, 114.559 121.462, 114.535 120.084, 114.453 " />
            <path fill="none" stroke-width="3.0" stroke-linecap="butt" stroke-opacity="1.0" stroke="rgb(0, 0, 0)" stroke-linejoin="round" d=" M 194.389, 96.019 193.824, 93.947 193.225, 91.749 189.878, 84.901 185.450, 75.935 184.356, 73.721 178.194, 65.845 176.864, 64.144 169.348, 57.547 166.777, 55.289 162.337, 52.255 153.532, 47.515 152.511, 46.965 148.049, 45.250 143.989, 44.258 " />
            <path fill="none" stroke-width="3.0" stroke-linecap="butt" stroke-opacity="1.0" stroke="rgb(0, 0, 0)" stroke-linejoin="round" d=" M 144.965, 46.695 142.125, 48.125 139.761, 48.278 135.845, 48.530 128.612, 47.721 123.367, 46.032 122.126, 44.155 " />
            <path fill="none" stroke-width="3.0" stroke-linecap="butt" stroke-opacity="1.0" stroke="rgb(0, 0, 0)" stroke-linejoin="round" d=" M 144.965, 46.695 143.989, 44.258 143.980, 44.236 141.466, 40.746 140.479, 39.582 137.072, 38.567 134.160, 38.138 132.538, 38.070 128.538, 38.272 126.562, 39.107 125.427, 40.172 125.104, 40.475 123.510, 41.971 123.219, 42.429 122.126, 44.155 " />
            <path fill="none" stroke-width="3.0" stroke-linecap="butt" stroke-opacity="1.0" stroke="rgb(0, 0, 0)" stroke-linejoin="round" d=" M 40.278, 136.251 39.608, 134.257 36.422, 124.779 35.855, 123.092 " />
        </g>
    </g>
</svg>
