<?xml version='1.0' encoding='ascii'?>
<svg xmlns="http://www.w3.org/2000/svg" version="1.1" width="250" height="250">
    <g id="ViewLayer_LineSet" xmlns:inkscape="http://www.inkscape.org/namespaces/inkscape" inkscape:groupmode="lineset" inkscape:label="ViewLayer_LineSet">
        <g xmlns:inkscape="http://www.inkscape.org/namespaces/inkscape" inkscape:groupmode="layer" id="strokes" inkscape:label="strokes">
            <path fill="none" stroke-width="3.0" stroke-linecap="butt" stroke-opacity="1.0" stroke="rgb(0, 0, 0)" stroke-linejoin="round" d=" M 59.841, 174.095 63.065, 180.242 69.025, 188.333 75.813, 195.676 76.304, 196.208 82.816, 201.157 " />
            <path fill="none" stroke-width="3.0" stroke-linecap="butt" stroke-opacity="1.0" stroke="rgb(0, 0, 0)" stroke-linejoin="round" d=" M 150.509, 209.548 151.567, 209.094 160.395, 204.927 163.427, 202.730 165.283, 201.381 172.034, 196.476 179.004, 189.305 179.577, 188.715 185.237, 180.471 185.820, 179.622 187.249, 176.779 188.011, 175.141 191.257, 168.161 " />
            <path fill="none" stroke-width="3.0" stroke-linecap="butt" stroke-opacity="1.0" stroke="rgb(0, 0, 0)" stroke-linejoin="round" d=" M 78.584, 230.721 78.732, 233.344 79.766, 237.336 80.976, 239.453 82.167, 241.074 83.453, 242.656 86.855, 244.214 91.222, 244.796 95.673, 244.696 101.639, 244.212 106.407, 243.520 110.973, 242.592 116.693, 241.033 121.330, 239.698 127.519, 237.827 132.895, 235.137 136.532, 232.500 138.752, 229.630 143.927, 221.796 146.202, 218.077 148.375, 214.526 150.034, 210.660 150.509, 209.548 152.631, 204.579 153.093, 201.031 153.543, 196.303 152.774, 192.567 150.896, 188.732 147.664, 184.128 144.833, 180.491 " />
            <path fill="none" stroke-width="3.0" stroke-linecap="butt" stroke-opacity="1.0" stroke="rgb(0, 0, 0)" stroke-linejoin="round" d=" M 104.955, 177.951 103.733, 178.635 103.730, 178.637 103.674, 178.667 98.994, 181.284 94.249, 185.100 91.097, 188.360 88.020, 192.948 83.308, 199.817 82.816, 201.157 80.232, 208.198 78.478, 213.523 78.358, 218.024 77.742, 225.981 78.329, 230.041 78.584, 230.721 79.654, 233.578 " />
            <path fill="none" stroke-width="3.0" stroke-linecap="butt" stroke-opacity="1.0" stroke="rgb(0, 0, 0)" stroke-linejoin="round" d=" M 165.088, 202.998 165.283, 201.381 " />
            <path fill="none" stroke-width="3.0" stroke-linecap="butt" stroke-opacity="1.0" stroke="rgb(0, 0, 0)" stroke-linejoin="round" d=" M 146.202, 218.077 147.488, 217.911 151.559, 217.000 156.302, 214.894 159.839, 211.758 161.881, 209.816 162.988, 207.565 163.661, 206.101 165.088, 202.998 163.981, 205.435 163.661, 206.101 " />
            <path fill="none" stroke-width="3.0" stroke-linecap="butt" stroke-opacity="1.0" stroke="rgb(0, 0, 0)" stroke-linejoin="round" d=" M 40.326, 131.383 37.526, 133.944 33.762, 137.786 30.204, 142.221 28.232, 145.890 27.173, 148.257 25.972, 151.491 25.398, 154.697 25.321, 156.422 25.379, 158.694 25.733, 160.818 26.099, 162.161 27.072, 165.151 28.687, 168.240 31.041, 171.100 33.477, 173.198 35.087, 174.301 37.658, 175.646 39.905, 176.342 42.319, 177.036 45.705, 177.384 49.216, 177.078 52.125, 176.584 56.247, 175.593 59.841, 174.095 " />
            <path fill="none" stroke-width="3.0" stroke-linecap="butt" stroke-opacity="1.0" stroke="rgb(0, 0, 0)" stroke-linejoin="round" d=" M 188.011, 175.141 189.233, 175.644 193.219, 176.748 197.251, 177.219 200.707, 176.974 203.870, 176.273 206.766, 175.076 209.418, 173.422 210.018, 172.998 212.364, 170.990 214.322, 168.517 215.856, 165.828 216.923, 162.826 217.453, 159.591 217.489, 158.922 217.474, 156.128 217.466, 155.508 216.670, 151.575 215.238, 147.738 214.121, 145.594 " />
            <path fill="none" stroke-width="3.0" stroke-linecap="butt" stroke-opacity="1.0" stroke="rgb(0, 0, 0)" stroke-linejoin="round" d=" M 36.754, 113.062 37.006, 116.482 37.070, 117.052 37.256, 118.714 38.368, 128.652 38.420, 129.119 40.326, 131.383 46.767, 139.032 50.137, 143.035 52.684, 144.572 61.245, 149.741 69.806, 154.910 72.298, 156.414 79.599, 158.960 89.041, 162.252 98.484, 165.544 102.735, 167.026 109.265, 168.146 109.278, 168.148 109.305, 168.153 119.161, 169.843 129.018, 171.532 136.912, 172.886 146.911, 172.962 151.933, 173.000 161.933, 173.075 167.944, 173.121 177.725, 171.040 179.683, 170.623 189.464, 168.542 191.257, 168.161 192.239, 167.952 200.856, 162.879 208.014, 158.665 212.371, 149.664 213.591, 147.143 214.121, 145.594 214.831, 143.522 211.964, 133.942 211.277, 131.648 208.850, 126.987 204.685, 120.475 198.784, 114.377 " />
            <path fill="none" stroke-width="3.0" stroke-linecap="butt" stroke-opacity="1.0" stroke="rgb(0, 0, 0)" stroke-linejoin="round" d=" M 63.329, 87.987 62.857, 88.161 55.964, 91.908 50.790, 96.145 43.294, 102.763 42.459, 103.500 39.666, 106.809 37.267, 110.642 35.542, 114.911 36.563, 118.280 37.256, 118.714 " />
            <path fill="none" stroke-width="3.0" stroke-linecap="butt" stroke-opacity="1.0" stroke="rgb(0, 0, 0)" stroke-linejoin="round" d=" M 50.790, 96.145 46.888, 100.140 41.962, 105.006 37.267, 110.642 " />
            <path fill="none" stroke-width="3.0" stroke-linecap="butt" stroke-opacity="1.0" stroke="rgb(0, 0, 0)" stroke-linejoin="round" d=" M 88.998, 42.273 88.802, 42.295 85.412, 42.663 80.913, 43.490 79.608, 43.998 75.207, 45.821 71.823, 48.984 71.913, 53.479 73.240, 56.594 " />
            <path fill="none" stroke-width="3.0" stroke-linecap="butt" stroke-opacity="1.0" stroke="rgb(0, 0, 0)" stroke-linejoin="round" d=" M 113.799, 44.887 113.383, 44.047 113.306, 43.891 112.509, 42.283 111.725, 40.554 109.843, 36.581 107.048, 32.655 106.056, 31.582 102.446, 29.383 98.301, 31.046 97.872, 31.388 93.403, 35.494 90.614, 39.331 88.802, 42.295 " />
            <path fill="none" stroke-width="3.0" stroke-linecap="butt" stroke-opacity="1.0" stroke="rgb(0, 0, 0)" stroke-linejoin="round" d=" M 79.058, 64.916 78.985, 64.823 75.516, 60.417 74.009, 57.886 73.736, 57.426 73.240, 56.594 73.794, 57.579 74.009, 57.886 " />
            <path fill="none" stroke-width="3.0" stroke-linecap="butt" stroke-opacity="1.0" stroke="rgb(0, 0, 0)" stroke-linejoin="round" d=" M 129.776, 42.766 124.715, 42.702 120.315, 43.209 115.453, 44.461 115.187, 44.529 113.799, 44.887 113.454, 44.976 109.049, 46.110 104.620, 47.827 95.717, 52.380 92.370, 54.090 84.434, 60.175 82.456, 61.691 79.393, 65.208 78.622, 66.093 74.045, 71.348 70.291, 76.916 69.652, 78.078 69.574, 78.220 69.568, 78.230 67.305, 82.348 " />
            <path fill="none" stroke-width="3.0" stroke-linecap="butt" stroke-opacity="1.0" stroke="rgb(0, 0, 0)" stroke-linejoin="round" d=" M 102.446, 29.383 103.460, 30.472 104.531, 32.911 " />
            <path fill="none" stroke-width="3.0" stroke-linecap="butt" stroke-opacity="1.0" stroke="rgb(0, 0, 0)" stroke-linejoin="round" d=" M 88.998, 42.273 90.250, 43.462 " />
            <path fill="none" stroke-width="3.0" stroke-linecap="butt" stroke-opacity="1.0" stroke="rgb(0, 0, 0)" stroke-linejoin="round" d=" M 71.823, 48.984 72.975, 50.000 75.377, 51.640 " />
            <path fill="none" stroke-width="3.0" stroke-linecap="butt" stroke-opacity="1.0" stroke="rgb(0, 0, 0)" stroke-linejoin="round" d=" M 79.058, 64.916 79.393, 65.208 " />
            <path fill="none" stroke-width="3.0" stroke-linecap="butt" stroke-opacity="1.0" stroke="rgb(0, 0, 0)" stroke-linejoin="round" d=" M 69.652, 78.078 69.208, 78.381 65.837, 83.386 63.329, 87.987 61.966, 90.489 61.453, 91.430 60.292, 93.561 60.094, 93.925 57.534, 98.623 57.669, 99.184 57.833, 99.863 58.189, 101.334 58.506, 102.647 59.714, 107.646 61.020, 108.917 68.187, 115.891 69.812, 117.472 78.648, 122.156 84.137, 125.065 84.665, 125.345 87.560, 126.880 89.745, 127.581 99.267, 130.636 108.789, 133.691 111.147, 134.447 121.004, 136.134 130.861, 137.821 137.311, 138.925 147.307, 139.211 157.303, 139.497 159.550, 139.561 162.103, 139.634 171.993, 138.159 182.017, 136.664 191.099, 132.480 194.854, 130.751 195.023, 130.493 197.188, 127.176 197.703, 126.388 198.434, 125.268 199.251, 124.018 199.531, 123.588 199.942, 122.959 199.496, 119.654 198.784, 114.377 197.446, 104.467 197.345, 103.720 195.234, 96.956 194.594, 96.264 " />
            <path fill="none" stroke-width="3.0" stroke-linecap="butt" stroke-opacity="1.0" stroke="rgb(0, 0, 0)" stroke-linejoin="round" d=" M 193.273, 109.756 190.704, 110.667 188.969, 111.283 188.245, 111.539 184.222, 112.966 181.539, 113.917 181.150, 113.959 181.138, 113.960 180.792, 113.997 178.701, 114.220 168.757, 115.281 163.278, 115.866 153.288, 115.435 143.297, 115.003 140.354, 114.876 " />
            <path fill="none" stroke-width="3.0" stroke-linecap="butt" stroke-opacity="1.0" stroke="rgb(0, 0, 0)" stroke-linejoin="round" d=" M 195.995, 102.247 195.098, 98.216 194.594, 96.264 193.421, 91.715 189.722, 82.424 188.678, 79.803 183.204, 71.434 181.833, 69.337 174.938, 62.094 172.338, 59.363 168.737, 56.277 160.423, 50.720 159.055, 49.806 155.075, 47.871 150.563, 46.353 " />
            <path fill="none" stroke-width="3.0" stroke-linecap="butt" stroke-opacity="1.0" stroke="rgb(0, 0, 0)" stroke-linejoin="round" d=" M 150.934, 47.535 149.738, 48.930 144.606, 49.233 137.500, 48.287 131.307, 46.470 128.490, 44.526 " />
            <path fill="none" stroke-width="3.0" stroke-linecap="butt" stroke-opacity="1.0" stroke="rgb(0, 0, 0)" stroke-linejoin="round" d=" M 150.934, 47.535 150.563, 46.353 150.168, 45.092 147.983, 41.595 146.020, 40.392 140.986, 38.836 137.627, 38.677 134.294, 38.793 131.399, 41.230 130.058, 42.380 129.776, 42.766 128.490, 44.526 " />
            <path fill="none" stroke-width="3.0" stroke-linecap="butt" stroke-opacity="1.0" stroke="rgb(0, 0, 0)" stroke-linejoin="round" d=" M 49.819, 139.104 43.323, 131.501 42.036, 129.994 38.148, 125.443 37.401, 118.805 36.754, 113.062 " />
            <path fill="none" stroke-width="3.0" stroke-linecap="butt" stroke-opacity="1.0" stroke="rgb(0, 0, 0)" stroke-linejoin="round" d=" M 37.070, 117.052 36.563, 118.280 " />
            <path fill="none" stroke-width="3.0" stroke-linecap="butt" stroke-opacity="1.0" stroke="rgb(0, 0, 0)" stroke-linejoin="round" d=" M 78.985, 64.823 78.622, 66.093 " />
            <path fill="none" stroke-width="3.0" stroke-linecap="butt" stroke-opacity="1.0" stroke="rgb(0, 0, 0)" stroke-linejoin="round" d=" M 115.453, 44.461 113.306, 43.891 " />
        </g>
    </g>
</svg>
