<?xml version='1.0' encoding='ascii'?>
<svg xmlns="http://www.w3.org/2000/svg" version="1.1" width="250" height="250">
    <g id="ViewLayer_LineSet" xmlns:inkscape="http://www.inkscape.org/namespaces/inkscape" inkscape:groupmode="lineset" inkscape:label="ViewLayer_LineSet">
        <g xmlns:inkscape="http://www.inkscape.org/namespaces/inkscape" inkscape:groupmode="layer" id="strokes" inkscape:label="strokes">
            <path fill="none" stroke-width="3.0" stroke-linecap="butt" stroke-opacity="1.0" stroke="rgb(0, 0, 0)" stroke-linejoin="round" d=" M 194.649, 134.326 193.844, 128.046 193.214, 125.701 193.140, 125.426 192.706, 123.809 192.326, 122.394 191.471, 119.209 187.767, 110.313 183.554, 102.993 183.055, 102.316 182.747, 101.896 " />
            <path fill="none" stroke-width="3.0" stroke-linecap="butt" stroke-opacity="1.0" stroke="rgb(0, 0, 0)" stroke-linejoin="round" d=" M 138.198, 214.624 138.464, 214.566 143.773, 213.335 148.044, 211.809 153.670, 209.425 157.702, 207.188 159.620, 206.067 164.445, 202.958 165.322, 202.292 165.440, 202.202 165.874, 201.873 168.800, 199.651 173.078, 195.697 176.253, 192.475 179.774, 188.318 183.189, 183.415 184.282, 181.707 186.724, 177.518 187.843, 175.223 188.881, 173.094 190.658, 168.626 191.452, 166.465 " />
            <path fill="none" stroke-width="3.0" stroke-linecap="butt" stroke-opacity="1.0" stroke="rgb(0, 0, 0)" stroke-linejoin="round" d=" M 52.646, 168.455 56.040, 176.182 57.289, 179.025 62.778, 187.384 63.515, 188.506 70.332, 195.823 71.116, 196.664 73.704, 198.965 " />
            <path fill="none" stroke-width="3.0" stroke-linecap="butt" stroke-opacity="1.0" stroke="rgb(0, 0, 0)" stroke-linejoin="round" d=" M 52.425, 117.713 51.442, 120.076 50.613, 123.555 " />
            <path fill="none" stroke-width="3.0" stroke-linecap="butt" stroke-opacity="1.0" stroke="rgb(0, 0, 0)" stroke-linejoin="round" d=" M 140.572, 153.760 141.279, 155.111 142.848, 157.025 144.956, 158.432 147.411, 159.345 149.601, 159.486 151.469, 159.156 151.756, 159.105 154.100, 157.936 156.135, 156.321 157.625, 154.275 158.250, 152.877 " />
            <path fill="none" stroke-width="3.0" stroke-linecap="butt" stroke-opacity="1.0" stroke="rgb(0, 0, 0)" stroke-linejoin="round" d=" M 168.931, 100.643 169.252, 101.065 170.756, 103.757 172.127, 106.982 172.412, 107.859 172.629, 108.525 173.312, 110.628 173.278, 110.694 174.867, 118.759 175.206, 121.967 175.298, 122.834 175.247, 127.017 174.786, 130.957 174.588, 131.797 174.481, 132.248 173.956, 134.472 172.823, 137.389 171.465, 139.561 169.966, 140.874 168.410, 141.253 167.818, 141.028 166.866, 140.668 165.391, 139.136 164.022, 136.721 163.450, 135.245 163.288, 134.829 162.786, 133.536 162.661, 133.099 161.695, 129.733 160.759, 125.501 159.984, 121.050 159.384, 116.661 159.124, 113.449 159.096, 113.091 159.048, 112.501 159.018, 108.590 159.295, 105.074 159.867, 102.081 160.541, 100.191 " />
            <path fill="none" stroke-width="3.0" stroke-linecap="butt" stroke-opacity="1.0" stroke="rgb(0, 0, 0)" stroke-linejoin="round" d=" M 139.674, 121.401 140.015, 125.859 139.929, 130.151 139.416, 134.076 138.498, 137.445 137.506, 139.483 137.287, 139.934 137.210, 140.091 135.607, 141.886 135.102, 142.119 133.751, 142.742 131.792, 142.922 129.576, 141.506 129.037, 140.997 128.644, 140.626 127.418, 139.469 125.323, 136.601 123.375, 133.044 121.650, 128.975 120.218, 124.594 119.371, 121.105 119.337, 120.969 119.146, 120.182 118.479, 115.902 118.222, 111.773 118.383, 107.948 118.949, 104.563 119.897, 101.738 119.946, 101.655 " />
            <path fill="none" stroke-width="3.0" stroke-linecap="butt" stroke-opacity="1.0" stroke="rgb(0, 0, 0)" stroke-linejoin="round" d=" M 133.870, 143.498 135.607, 141.886 " />
            <path fill="none" stroke-width="3.0" stroke-linecap="butt" stroke-opacity="1.0" stroke="rgb(0, 0, 0)" stroke-linejoin="round" d=" M 131.496, 100.977 132.786, 102.471 134.693, 105.458 136.408, 109.035 137.827, 112.881 " />
            <path fill="none" stroke-width="3.0" stroke-linecap="butt" stroke-opacity="1.0" stroke="rgb(0, 0, 0)" stroke-linejoin="round" d=" M 137.897, 123.291 139.674, 121.401 139.141, 118.278 139.108, 118.083 138.933, 117.054 137.827, 112.881 136.088, 114.880 " />
            <path fill="none" stroke-width="3.0" stroke-linecap="butt" stroke-opacity="1.0" stroke="rgb(0, 0, 0)" stroke-linejoin="round" d=" M 139.400, 226.078 143.736, 226.853 149.333, 226.697 153.407, 225.948 156.971, 224.316 159.514, 223.065 162.879, 220.133 165.185, 216.700 166.155, 213.849 166.648, 210.861 166.929, 206.834 166.490, 203.653 165.874, 201.873 " />
            <path fill="none" stroke-width="3.0" stroke-linecap="butt" stroke-opacity="1.0" stroke="rgb(0, 0, 0)" stroke-linejoin="round" d=" M 73.704, 198.965 71.315, 200.872 67.427, 205.918 64.707, 211.564 64.423, 212.748 64.316, 213.319 63.480, 217.792 " />
            <path fill="none" stroke-width="3.0" stroke-linecap="butt" stroke-opacity="1.0" stroke="rgb(0, 0, 0)" stroke-linejoin="round" d=" M 64.316, 213.319 63.664, 216.249 63.480, 217.792 63.493, 222.438 64.323, 226.239 66.153, 229.878 70.049, 233.940 72.313, 235.847 76.781, 238.105 81.026, 239.946 85.917, 241.601 91.936, 242.509 96.211, 242.618 " />
            <path fill="none" stroke-width="3.0" stroke-linecap="butt" stroke-opacity="1.0" stroke="rgb(0, 0, 0)" stroke-linejoin="round" d=" M 93.267, 242.383 96.211, 242.618 101.146, 243.013 109.656, 242.862 116.053, 242.153 121.591, 241.287 127.722, 239.595 129.846, 238.824 133.982, 236.419 136.591, 233.644 138.607, 229.923 139.401, 226.226 139.400, 226.078 139.394, 224.189 139.414, 220.509 138.823, 216.495 138.198, 214.624 137.421, 212.295 135.018, 208.008 133.142, 205.143 " />
            <path fill="none" stroke-width="3.0" stroke-linecap="butt" stroke-opacity="1.0" stroke="rgb(0, 0, 0)" stroke-linejoin="round" d=" M 187.843, 175.223 188.655, 175.661 193.127, 177.218 197.321, 178.128 201.520, 178.375 205.073, 177.916 208.305, 177.001 211.229, 175.597 213.895, 173.743 216.255, 171.521 216.660, 170.979 218.580, 168.308 220.050, 165.437 221.019, 162.271 221.420, 158.897 221.280, 155.316 220.312, 151.218 218.612, 147.255 216.145, 143.117 212.073, 138.084 207.860, 133.776 203.733, 130.034 199.384, 126.972 195.282, 124.864 194.949, 124.693 194.672, 124.550 192.706, 123.809 " />
            <path fill="none" stroke-width="3.0" stroke-linecap="butt" stroke-opacity="1.0" stroke="rgb(0, 0, 0)" stroke-linejoin="round" d=" M 50.613, 123.555 47.738, 124.671 45.012, 126.105 40.716, 128.489 36.863, 131.503 34.125, 134.294 33.733, 134.693 33.303, 135.132 29.710, 139.227 26.360, 143.921 25.051, 146.506 23.354, 150.127 22.337, 153.505 21.956, 156.830 21.828, 158.552 22.058, 160.905 22.440, 163.052 23.577, 166.485 24.067, 167.502 25.935, 170.770 28.291, 173.414 30.806, 175.436 32.471, 176.499 35.132, 177.781 37.349, 178.381 39.990, 179.060 43.360, 179.271 46.836, 178.804 50.124, 178.233 54.209, 177.052 56.040, 176.182 " />
            <path fill="none" stroke-width="3.0" stroke-linecap="butt" stroke-opacity="1.0" stroke="rgb(0, 0, 0)" stroke-linejoin="round" d=" M 124.964, 59.683 125.015, 60.384 125.336, 64.839 125.797, 68.344 125.854, 68.776 125.946, 69.475 126.326, 72.366 126.388, 72.585 126.876, 74.332 127.547, 76.726 128.345, 77.957 129.926, 80.394 130.465, 81.225 131.162, 82.300 131.295, 82.505 132.308, 82.725 132.473, 82.761 134.157, 83.125 137.096, 83.762 142.393, 82.793 143.068, 82.670 143.951, 82.399 144.008, 82.379 145.195, 81.961 145.979, 81.685 147.872, 81.019 147.972, 80.983 148.975, 80.630 149.543, 80.430 150.423, 80.121 " />
            <path fill="none" stroke-width="3.0" stroke-linecap="butt" stroke-opacity="1.0" stroke="rgb(0, 0, 0)" stroke-linejoin="round" d=" M 134.681, 79.386 133.547, 80.813 132.225, 82.083 131.813, 82.270 131.295, 82.505 " />
            <path fill="none" stroke-width="3.0" stroke-linecap="butt" stroke-opacity="1.0" stroke="rgb(0, 0, 0)" stroke-linejoin="round" d=" M 52.162, 113.803 52.831, 113.523 54.072, 113.002 54.450, 112.843 57.237, 111.674 58.170, 111.283 67.874, 108.870 77.579, 106.456 86.514, 104.235 96.405, 102.762 106.296, 101.289 116.187, 99.816 120.423, 99.185 121.673, 99.122 129.027, 98.750 139.014, 98.246 149.001, 97.741 155.260, 97.425 162.114, 97.823 166.620, 98.085 176.603, 98.665 180.466, 98.890 183.991, 99.095 184.098, 99.122 185.899, 99.573 193.240, 101.414 201.158, 103.400 201.882, 103.581 208.936, 108.910 209.796, 109.560 209.094, 112.517 " />
            <path fill="none" stroke-width="3.0" stroke-linecap="butt" stroke-opacity="1.0" stroke="rgb(0, 0, 0)" stroke-linejoin="round" d=" M 209.796, 109.560 209.566, 105.832 " />
            <path fill="none" stroke-width="3.0" stroke-linecap="butt" stroke-opacity="1.0" stroke="rgb(0, 0, 0)" stroke-linejoin="round" d=" M 195.282, 124.864 197.074, 124.140 204.309, 118.964 " />
            <path fill="none" stroke-width="3.0" stroke-linecap="butt" stroke-opacity="1.0" stroke="rgb(0, 0, 0)" stroke-linejoin="round" d=" M 37.612, 126.048 42.071, 122.104 " />
            <path fill="none" stroke-width="3.0" stroke-linecap="butt" stroke-opacity="1.0" stroke="rgb(0, 0, 0)" stroke-linejoin="round" d=" M 39.394, 122.219 32.729, 128.226 34.125, 134.294 " />
            <path fill="none" stroke-width="3.0" stroke-linecap="butt" stroke-opacity="1.0" stroke="rgb(0, 0, 0)" stroke-linejoin="round" d=" M 181.261, 101.309 179.737, 101.226 169.752, 100.688 168.931, 100.643 161.723, 100.254 160.541, 100.191 159.004, 100.108 158.977, 100.106 153.904, 99.832 143.917, 100.343 133.930, 100.853 131.496, 100.977 127.734, 101.169 120.923, 101.517 119.946, 101.655 119.761, 101.681 119.735, 101.685 109.833, 103.082 99.931, 104.480 97.209, 104.864 87.627, 106.216 77.915, 108.596 68.202, 110.977 60.205, 112.937 59.707, 113.059 57.311, 114.048 56.117, 114.541 54.226, 115.322 53.252, 115.723 " />
            <path fill="none" stroke-width="3.0" stroke-linecap="butt" stroke-opacity="1.0" stroke="rgb(0, 0, 0)" stroke-linejoin="round" d=" M 207.215, 112.730 207.559, 111.159 201.580, 106.856 199.548, 105.394 " />
            <path fill="none" stroke-width="3.0" stroke-linecap="butt" stroke-opacity="1.0" stroke="rgb(0, 0, 0)" stroke-linejoin="round" d=" M 179.737, 101.226 181.544, 101.629 182.747, 101.896 183.351, 102.031 193.112, 104.204 194.542, 104.522 202.382, 110.002 " />
            <path fill="none" stroke-width="3.0" stroke-linecap="butt" stroke-opacity="1.0" stroke="rgb(0, 0, 0)" stroke-linejoin="round" d=" M 128.345, 77.957 118.442, 79.310 108.546, 80.742 105.363, 81.203 95.686, 83.721 92.436, 84.566 87.226, 86.062 79.670, 88.230 73.772, 90.562 68.553, 92.625 67.174, 93.412 61.422, 96.696 60.117, 97.441 53.965, 101.887 48.672, 105.594 46.497, 107.117 39.989, 113.204 37.146, 117.664 37.770, 120.349 37.992, 121.305 39.394, 122.219 39.997, 122.612 40.342, 122.838 42.071, 122.104 51.278, 118.200 52.425, 117.713 53.156, 117.403 55.657, 116.374 56.415, 116.062 56.847, 115.090 57.265, 114.150 " />
            <path fill="none" stroke-width="3.0" stroke-linecap="butt" stroke-opacity="1.0" stroke="rgb(0, 0, 0)" stroke-linejoin="round" d=" M 49.888, 118.165 48.955, 117.579 47.219, 116.487 47.550, 113.949 48.168, 112.954 49.002, 111.609 49.058, 111.520 49.315, 111.104 49.362, 111.028 50.119, 110.468 50.789, 109.973 52.362, 108.808 54.299, 107.374 58.526, 105.075 60.601, 103.946 68.873, 100.103 78.111, 96.274 79.966, 95.504 89.371, 92.107 92.083, 91.127 92.825, 90.859 102.497, 88.317 107.401, 87.028 117.174, 84.910 123.268, 83.589 124.444, 83.334 130.655, 82.853 132.308, 82.725 " />
            <path fill="none" stroke-width="3.0" stroke-linecap="butt" stroke-opacity="1.0" stroke="rgb(0, 0, 0)" stroke-linejoin="round" d=" M 145.367, 81.958 148.556, 81.896 149.053, 81.887 151.157, 81.988 156.653, 82.251 157.567, 82.360 164.560, 83.190 165.102, 83.255 167.545, 83.545 167.746, 83.569 " />
            <path fill="none" stroke-width="3.0" stroke-linecap="butt" stroke-opacity="1.0" stroke="rgb(0, 0, 0)" stroke-linejoin="round" d=" M 204.753, 99.814 199.339, 95.711 199.326, 95.703 192.372, 91.427 191.185, 90.951 185.597, 88.711 183.668, 87.937 183.117, 87.716 173.550, 84.804 171.324, 84.126 " />
            <path fill="none" stroke-width="3.0" stroke-linecap="butt" stroke-opacity="1.0" stroke="rgb(0, 0, 0)" stroke-linejoin="round" d=" M 190.611, 89.101 184.034, 86.052 182.991, 85.568 177.264, 83.245 " />
            <path fill="none" stroke-width="3.0" stroke-linecap="butt" stroke-opacity="1.0" stroke="rgb(0, 0, 0)" stroke-linejoin="round" d=" M 199.339, 95.711 196.760, 93.758 190.611, 89.101 196.240, 93.151 204.114, 99.314 204.753, 99.814 208.379, 103.163 210.559, 106.108 212.009, 109.227 212.112, 111.736 211.655, 113.933 208.276, 118.012 205.535, 119.431 204.488, 119.032 204.309, 118.964 202.247, 118.180 201.490, 117.638 199.369, 116.120 197.747, 110.923 " />
            <path fill="none" stroke-width="3.0" stroke-linecap="butt" stroke-opacity="1.0" stroke="rgb(0, 0, 0)" stroke-linejoin="round" d=" M 208.828, 115.472 211.655, 113.933 " />
            <path fill="none" stroke-width="3.0" stroke-linecap="butt" stroke-opacity="1.0" stroke="rgb(0, 0, 0)" stroke-linejoin="round" d=" M 202.050, 113.835 205.517, 114.910 " />
            <path fill="none" stroke-width="3.0" stroke-linecap="butt" stroke-opacity="1.0" stroke="rgb(0, 0, 0)" stroke-linejoin="round" d=" M 201.112, 111.275 202.050, 113.835 199.369, 116.120 " />
            <path fill="none" stroke-width="3.0" stroke-linecap="butt" stroke-opacity="1.0" stroke="rgb(0, 0, 0)" stroke-linejoin="round" d=" M 119.122, 52.225 118.711, 52.497 116.529, 56.187 115.658, 58.850 115.572, 62.553 116.319, 65.179 118.105, 68.617 118.140, 68.684 118.312, 69.015 118.805, 69.387 " />
            <path fill="none" stroke-width="3.0" stroke-linecap="butt" stroke-opacity="1.0" stroke="rgb(0, 0, 0)" stroke-linejoin="round" d=" M 182.322, 80.151 184.337, 74.933 184.189, 66.958 182.807, 60.747 181.499, 56.528 181.362, 56.086 " />
            <path fill="none" stroke-width="3.0" stroke-linecap="butt" stroke-opacity="1.0" stroke="rgb(0, 0, 0)" stroke-linejoin="round" d=" M 158.345, 74.580 162.789, 77.011 168.847, 79.598 176.820, 81.220 180.744, 80.457 182.322, 80.151 182.103, 81.531 181.550, 81.828 179.867, 82.733 177.264, 83.245 174.362, 83.815 171.576, 84.100 171.324, 84.126 170.847, 84.175 167.746, 83.569 167.344, 83.490 166.891, 83.402 164.609, 82.955 163.937, 82.769 161.515, 82.097 158.928, 81.380 157.037, 80.591 154.814, 79.664 153.000, 78.907 151.438, 79.595 " />
            <path fill="none" stroke-width="3.0" stroke-linecap="butt" stroke-opacity="1.0" stroke="rgb(0, 0, 0)" stroke-linejoin="round" d=" M 153.000, 78.907 154.414, 78.113 155.494, 77.506 155.731, 77.373 156.009, 77.161 157.678, 75.885 158.345, 74.580 155.701, 76.135 154.475, 76.856 154.262, 76.949 151.887, 77.980 148.912, 79.272 144.830, 79.993 140.928, 80.682 134.681, 79.386 133.562, 77.684 132.530, 76.114 131.021, 73.818 130.180, 70.369 130.063, 69.888 129.803, 68.824 129.653, 68.207 129.220, 66.429 129.220, 66.429 128.968, 65.397 128.780, 58.973 128.778, 58.912 129.087, 54.087 " />
            <path fill="none" stroke-width="3.0" stroke-linecap="butt" stroke-opacity="1.0" stroke="rgb(0, 0, 0)" stroke-linejoin="round" d=" M 135.770, 23.483 134.481, 23.596 131.153, 23.890 125.089, 24.918 117.944, 27.926 114.152, 32.080 115.553, 38.145 118.166, 42.506 118.375, 42.856 119.211, 44.253 120.372, 45.504 124.366, 49.810 124.580, 50.041 129.087, 54.087 127.845, 55.047 126.416, 57.128 " />
            <path fill="none" stroke-width="3.0" stroke-linecap="butt" stroke-opacity="1.0" stroke="rgb(0, 0, 0)" stroke-linejoin="round" d=" M 189.794, 41.978 189.615, 36.368 185.248, 32.007 178.007, 28.286 172.088, 26.546 167.587, 25.568 165.087, 21.472 161.290, 16.152 155.227, 10.197 149.698, 7.389 148.905, 7.445 143.850, 9.464 139.509, 14.189 136.990, 18.633 135.522, 21.311 134.481, 23.596 " />
            <path fill="none" stroke-width="3.0" stroke-linecap="butt" stroke-opacity="1.0" stroke="rgb(0, 0, 0)" stroke-linejoin="round" d=" M 182.103, 81.531 184.156, 76.210 184.337, 74.933 " />
            <path fill="none" stroke-width="3.0" stroke-linecap="butt" stroke-opacity="1.0" stroke="rgb(0, 0, 0)" stroke-linejoin="round" d=" M 188.629, 45.475 189.714, 42.639 189.794, 41.978 188.629, 45.475 187.972, 47.448 186.434, 49.706 184.508, 52.535 181.362, 56.086 " />
            <path fill="none" stroke-width="3.0" stroke-linecap="butt" stroke-opacity="1.0" stroke="rgb(0, 0, 0)" stroke-linejoin="round" d=" M 181.499, 56.528 185.532, 51.309 186.434, 49.706 " />
            <path fill="none" stroke-width="3.0" stroke-linecap="butt" stroke-opacity="1.0" stroke="rgb(0, 0, 0)" stroke-linejoin="round" d=" M 125.089, 24.918 122.166, 25.992 116.523, 28.367 112.651, 32.600 111.776, 34.842 112.222, 38.023 113.033, 41.622 113.258, 42.620 113.512, 43.746 114.091, 44.684 117.067, 49.508 118.559, 51.480 119.122, 52.225 122.258, 56.370 124.197, 59.193 125.015, 60.384 " />
            <path fill="none" stroke-width="3.0" stroke-linecap="butt" stroke-opacity="1.0" stroke="rgb(0, 0, 0)" stroke-linejoin="round" d=" M 149.698, 7.389 144.738, 9.372 139.959, 14.581 137.346, 19.556 135.770, 23.483 " />
            <path fill="none" stroke-width="3.0" stroke-linecap="butt" stroke-opacity="1.0" stroke="rgb(0, 0, 0)" stroke-linejoin="round" d=" M 113.258, 42.620 112.658, 42.634 106.610, 43.598 106.207, 43.662 102.543, 44.627 93.386, 47.497 86.559, 51.201 78.276, 56.805 77.452, 57.362 70.565, 64.612 70.048, 65.156 64.267, 71.412 58.985, 79.903 57.509, 82.275 56.067, 86.581 54.993, 87.625 51.600, 97.032 49.698, 102.306 " />
            <path fill="none" stroke-width="3.0" stroke-linecap="butt" stroke-opacity="1.0" stroke="rgb(0, 0, 0)" stroke-linejoin="round" d=" M 144.008, 82.379 145.367, 81.958 146.191, 81.702 147.759, 81.217 148.172, 81.047 148.181, 81.043 150.423, 80.121 151.438, 79.595 152.939, 78.818 154.313, 78.107 154.327, 78.100 155.483, 77.502 155.731, 77.373 " />
            <path fill="none" stroke-width="3.0" stroke-linecap="butt" stroke-opacity="1.0" stroke="rgb(0, 0, 0)" stroke-linejoin="round" d=" M 118.105, 68.617 116.708, 68.666 106.799, 70.012 96.890, 71.358 93.121, 71.870 " />
            <path fill="none" stroke-width="3.0" stroke-linecap="butt" stroke-opacity="1.0" stroke="rgb(0, 0, 0)" stroke-linejoin="round" d=" M 53.965, 100.093 55.913, 98.218 65.003, 94.052 67.682, 92.825 70.994, 91.307 73.772, 90.562 " />
            <path fill="none" stroke-width="3.0" stroke-linecap="butt" stroke-opacity="1.0" stroke="rgb(0, 0, 0)" stroke-linejoin="round" d=" M 113.033, 41.622 110.167, 41.883 106.931, 43.211 106.610, 43.598 " />
            <path fill="none" stroke-width="3.0" stroke-linecap="butt" stroke-opacity="1.0" stroke="rgb(0, 0, 0)" stroke-linejoin="round" d=" M 61.422, 96.696 53.965, 100.093 53.672, 100.226 49.698, 102.306 47.818, 103.290 40.685, 110.299 39.940, 111.032 33.748, 117.944 29.609, 123.304 30.354, 127.222 32.015, 133.820 33.733, 134.693 " />
            <path fill="none" stroke-width="3.0" stroke-linecap="butt" stroke-opacity="1.0" stroke="rgb(0, 0, 0)" stroke-linejoin="round" d=" M 37.896, 115.311 30.698, 122.253 29.609, 123.304 " />
            <path fill="none" stroke-width="3.0" stroke-linecap="butt" stroke-opacity="1.0" stroke="rgb(0, 0, 0)" stroke-linejoin="round" d=" M 197.074, 124.140 198.676, 123.182 204.488, 119.032 " />
            <path fill="none" stroke-width="3.0" stroke-linecap="butt" stroke-opacity="1.0" stroke="rgb(0, 0, 0)" stroke-linejoin="round" d=" M 37.770, 120.349 30.436, 127.147 30.354, 127.222 " />
            <path fill="none" stroke-width="3.0" stroke-linecap="butt" stroke-opacity="1.0" stroke="rgb(0, 0, 0)" stroke-linejoin="round" d=" M 57.265, 114.150 60.205, 112.937 " />
            <path fill="none" stroke-width="3.0" stroke-linecap="butt" stroke-opacity="1.0" stroke="rgb(0, 0, 0)" stroke-linejoin="round" d=" M 184.034, 86.052 181.550, 81.828 " />
        </g>
    </g>
</svg>
