<?xml version='1.0' encoding='ascii'?>
<svg xmlns="http://www.w3.org/2000/svg" version="1.1" width="250" height="250">
    <g id="ViewLayer_LineSet" xmlns:inkscape="http://www.inkscape.org/namespaces/inkscape" inkscape:groupmode="lineset" inkscape:label="ViewLayer_LineSet">
        <g xmlns:inkscape="http://www.inkscape.org/namespaces/inkscape" inkscape:groupmode="layer" id="strokes" inkscape:label="strokes">
            <path fill="none" stroke-width="3.0" stroke-linecap="butt" stroke-opacity="1.0" stroke="rgb(0, 0, 0)" stroke-linejoin="round" d=" M 166.242, 197.916 172.734, 191.583 176.993, 186.414 179.386, 183.181 181.890, 179.340 " />
            <path fill="none" stroke-width="3.0" stroke-linecap="butt" stroke-opacity="1.0" stroke="rgb(0, 0, 0)" stroke-linejoin="round" d=" M 58.225, 100.542 57.219, 102.194 53.727, 107.923 49.889, 117.157 49.238, 118.724 48.351, 122.439 48.211, 123.024 47.634, 125.438 47.601, 125.576 46.545, 129.998 45.969, 137.780 45.679, 144.516 46.212, 149.218 47.001, 155.707 48.769, 162.671 49.603, 165.009 51.675, 170.583 51.794, 170.905 54.624, 176.721 57.975, 182.215 58.906, 183.505 63.438, 189.501 63.682, 189.757 68.268, 194.582 71.292, 197.214 " />
            <path fill="none" stroke-width="3.0" stroke-linecap="butt" stroke-opacity="1.0" stroke="rgb(0, 0, 0)" stroke-linejoin="round" d=" M 190.340, 124.907 189.477, 120.862 186.483, 113.120 186.088, 112.098 " />
            <path fill="none" stroke-width="3.0" stroke-linecap="butt" stroke-opacity="1.0" stroke="rgb(0, 0, 0)" stroke-linejoin="round" d=" M 113.294, 214.807 115.308, 214.908 117.800, 215.033 122.340, 214.969 123.522, 214.874 126.710, 214.620 " />
            <path fill="none" stroke-width="3.0" stroke-linecap="butt" stroke-opacity="1.0" stroke="rgb(0, 0, 0)" stroke-linejoin="round" d=" M 90.711, 151.054 91.355, 152.461 92.893, 154.520 95.010, 156.144 97.467, 157.318 99.727, 157.699 102.020, 157.557 104.593, 156.642 106.817, 155.233 108.483, 153.319 109.236, 151.969 " />
            <path fill="none" stroke-width="3.0" stroke-linecap="butt" stroke-opacity="1.0" stroke="rgb(0, 0, 0)" stroke-linejoin="round" d=" M 131.042, 100.033 132.079, 102.687 132.389, 104.077 132.834, 106.070 133.209, 109.890 133.212, 109.958 133.165, 110.871 132.783, 118.380 132.243, 121.058 132.210, 121.225 131.931, 122.609 130.717, 126.925 129.183, 130.958 127.392, 134.515 125.416, 137.420 123.336, 139.528 121.232, 140.732 119.187, 140.967 117.282, 140.216 115.590, 138.510 114.180, 135.924 113.819, 134.797 113.109, 132.580 112.418, 128.638 112.136, 124.290 112.270, 119.746 112.296, 119.522 112.317, 119.338 112.792, 115.287 113.668, 111.077 114.885, 107.130 116.394, 103.589 116.744, 102.984 118.136, 100.580 119.229, 99.219 " />
            <path fill="none" stroke-width="3.0" stroke-linecap="butt" stroke-opacity="1.0" stroke="rgb(0, 0, 0)" stroke-linejoin="round" d=" M 90.608, 118.972 89.901, 123.356 88.992, 127.558 87.893, 131.374 86.615, 134.614 85.618, 136.346 85.414, 136.700 85.175, 137.115 85.035, 137.260 83.598, 138.755 81.925, 139.453 80.669, 139.476 80.249, 139.484 78.535, 137.950 76.976, 135.831 76.512, 134.835 76.305, 134.389 75.626, 132.929 74.575, 129.393 73.896, 125.399 73.641, 121.141 73.684, 120.159 73.827, 116.885 74.370, 112.779 74.760, 110.978 74.864, 110.501 75.226, 108.832 76.356, 105.183 77.716, 101.961 79.251, 99.273 80.001, 98.334 " />
            <path fill="none" stroke-width="3.0" stroke-linecap="butt" stroke-opacity="1.0" stroke="rgb(0, 0, 0)" stroke-linejoin="round" d=" M 80.249, 139.484 82.435, 140.835 " />
            <path fill="none" stroke-width="3.0" stroke-linecap="butt" stroke-opacity="1.0" stroke="rgb(0, 0, 0)" stroke-linejoin="round" d=" M 88.768, 98.046 89.773, 100.245 90.571, 103.205 91.115, 106.751 91.240, 110.558 " />
            <path fill="none" stroke-width="3.0" stroke-linecap="butt" stroke-opacity="1.0" stroke="rgb(0, 0, 0)" stroke-linejoin="round" d=" M 92.684, 120.916 90.608, 118.972 90.972, 115.694 91.002, 115.419 91.084, 114.685 91.240, 110.558 93.292, 112.606 " />
            <path fill="none" stroke-width="3.0" stroke-linecap="butt" stroke-opacity="1.0" stroke="rgb(0, 0, 0)" stroke-linejoin="round" d=" M 123.522, 214.874 123.647, 216.685 124.155, 219.560 125.365, 222.369 130.266, 228.797 135.244, 232.192 140.679, 234.467 146.754, 235.535 151.916, 235.741 157.338, 234.985 163.940, 233.077 169.070, 230.687 173.796, 227.453 177.705, 222.052 179.883, 217.627 181.031, 215.084 183.990, 205.585 184.616, 202.938 185.655, 193.974 185.423, 190.955 184.389, 183.586 183.228, 180.621 182.908, 179.979 " />
            <path fill="none" stroke-width="3.0" stroke-linecap="butt" stroke-opacity="1.0" stroke="rgb(0, 0, 0)" stroke-linejoin="round" d=" M 63.682, 189.757 61.696, 191.758 56.723, 198.925 54.747, 202.993 51.541, 211.186 50.891, 214.877 49.348, 220.142 48.760, 224.146 48.964, 227.728 50.602, 234.466 52.715, 237.477 55.911, 240.472 59.934, 242.778 65.778, 244.790 70.959, 245.732 76.301, 245.797 83.049, 245.168 89.559, 243.361 91.863, 242.448 97.976, 239.839 100.765, 237.870 107.038, 230.082 108.457, 228.321 113.136, 219.605 115.308, 214.908 " />
            <path fill="none" stroke-width="3.0" stroke-linecap="butt" stroke-opacity="1.0" stroke="rgb(0, 0, 0)" stroke-linejoin="round" d=" M 181.890, 179.340 182.908, 179.979 184.931, 181.250 189.579, 183.211 193.994, 184.467 198.483, 185.012 202.322, 184.749 205.816, 183.968 207.227, 183.437 210.363, 182.078 213.130, 180.218 215.593, 177.938 216.402, 176.980 218.372, 174.223 219.908, 171.171 220.945, 167.848 221.418, 164.250 221.357, 160.365 220.428, 155.912 218.782, 151.581 216.397, 147.070 212.239, 141.593 207.951, 136.881 204.747, 133.696 204.322, 133.274 203.812, 132.766 199.462, 129.368 194.736, 126.662 190.340, 124.907 " />
            <path fill="none" stroke-width="3.0" stroke-linecap="butt" stroke-opacity="1.0" stroke="rgb(0, 0, 0)" stroke-linejoin="round" d=" M 48.211, 123.024 46.959, 123.795 45.966, 124.636 45.848, 124.735 44.272, 126.069 41.261, 128.945 38.533, 132.254 35.824, 135.882 33.491, 139.944 32.367, 143.227 31.620, 145.442 31.060, 148.201 30.829, 150.806 31.008, 153.157 31.709, 156.761 33.440, 160.800 33.867, 161.686 36.116, 164.582 38.660, 166.860 40.587, 168.185 42.313, 169.021 43.779, 169.632 46.820, 170.445 49.330, 170.754 51.675, 170.583 " />
            <path fill="none" stroke-width="3.0" stroke-linecap="butt" stroke-opacity="1.0" stroke="rgb(0, 0, 0)" stroke-linejoin="round" d=" M 129.227, 68.818 130.614, 67.897 130.812, 67.581 130.846, 67.528 132.968, 64.143 133.482, 61.562 133.504, 57.885 133.019, 55.210 131.845, 53.323 " />
            <path fill="none" stroke-width="3.0" stroke-linecap="butt" stroke-opacity="1.0" stroke="rgb(0, 0, 0)" stroke-linejoin="round" d=" M 70.239, 52.900 70.023, 53.611 68.817, 57.571 67.503, 63.818 67.451, 66.902 67.468, 69.214 67.494, 72.669 67.497, 73.066 67.498, 73.194 69.848, 78.635 71.313, 79.719 71.582, 79.918 77.161, 81.080 77.483, 81.147 77.493, 81.149 78.752, 81.353 78.961, 81.387 80.353, 81.612 85.587, 80.753 85.750, 80.726 86.896, 80.538 90.803, 79.573 92.423, 79.174 92.728, 79.098 93.728, 78.720 98.886, 76.768 100.376, 77.421 103.785, 78.915 104.473, 79.216 106.810, 79.938 107.419, 80.126 109.555, 80.785 112.708, 81.403 115.860, 82.021 117.493, 81.719 118.566, 81.521 119.701, 81.311 120.007, 81.255 121.598, 80.961 121.880, 80.909 122.496, 79.959 124.385, 77.045 125.547, 75.253 126.638, 70.950 126.701, 70.463 126.709, 70.402 126.933, 68.674 126.938, 68.604 127.013, 67.519 127.030, 67.284 127.098, 66.301 127.343, 62.775 127.441, 61.370 " />
            <path fill="none" stroke-width="3.0" stroke-linecap="butt" stroke-opacity="1.0" stroke="rgb(0, 0, 0)" stroke-linejoin="round" d=" M 32.669, 106.710 32.930, 106.574 39.435, 103.164 44.172, 100.682 47.643, 99.993 54.616, 98.609 56.920, 98.151 60.392, 97.462 65.634, 96.421 75.628, 96.062 82.695, 95.807 86.440, 95.672 96.433, 95.313 96.961, 95.294 106.937, 95.983 116.913, 96.672 121.508, 96.990 129.399, 97.535 132.425, 97.744 142.276, 99.465 152.127, 101.187 161.977, 102.908 164.708, 103.385 174.303, 106.203 183.898, 109.020 184.966, 109.334 187.021, 109.938 189.879, 110.777 189.943, 110.795 192.027, 111.898 194.050, 112.969 195.721, 113.853 " />
            <path fill="none" stroke-width="3.0" stroke-linecap="butt" stroke-opacity="1.0" stroke="rgb(0, 0, 0)" stroke-linejoin="round" d=" M 204.747, 133.696 205.883, 133.232 210.385, 126.778 211.046, 122.996 206.284, 115.074 205.151, 113.677 " />
            <path fill="none" stroke-width="3.0" stroke-linecap="butt" stroke-opacity="1.0" stroke="rgb(0, 0, 0)" stroke-linejoin="round" d=" M 204.322, 133.274 208.099, 127.727 204.321, 121.952 " />
            <path fill="none" stroke-width="3.0" stroke-linecap="butt" stroke-opacity="1.0" stroke="rgb(0, 0, 0)" stroke-linejoin="round" d=" M 40.066, 107.299 49.025, 102.857 51.169, 101.794 56.203, 100.901 58.225, 100.542 58.494, 100.495 68.340, 98.748 68.547, 98.711 " />
            <path fill="none" stroke-width="3.0" stroke-linecap="butt" stroke-opacity="1.0" stroke="rgb(0, 0, 0)" stroke-linejoin="round" d=" M 34.132, 116.791 38.280, 120.945 40.024, 121.942 45.848, 124.735 " />
            <path fill="none" stroke-width="3.0" stroke-linecap="butt" stroke-opacity="1.0" stroke="rgb(0, 0, 0)" stroke-linejoin="round" d=" M 68.094, 98.726 58.456, 100.437 58.269, 100.471 56.164, 100.844 46.395, 102.578 43.392, 104.092 36.276, 107.679 34.869, 108.388 34.853, 108.457 34.666, 109.243 34.533, 109.805 " />
            <path fill="none" stroke-width="3.0" stroke-linecap="butt" stroke-opacity="1.0" stroke="rgb(0, 0, 0)" stroke-linejoin="round" d=" M 68.094, 98.726 68.547, 98.711 78.542, 98.383 80.001, 98.334 84.535, 98.185 88.768, 98.046 88.782, 98.045 89.066, 98.036 97.860, 97.747 107.837, 98.434 117.813, 99.121 119.229, 99.219 122.664, 99.455 129.177, 99.904 131.042, 100.033 131.435, 100.060 141.301, 101.690 151.167, 103.321 161.033, 104.951 163.270, 105.321 172.877, 108.094 182.485, 110.867 185.252, 111.666 185.888, 111.849 186.005, 111.883 187.767, 112.391 188.177, 112.510 " />
            <path fill="none" stroke-width="3.0" stroke-linecap="butt" stroke-opacity="1.0" stroke="rgb(0, 0, 0)" stroke-linejoin="round" d=" M 71.313, 79.719 62.245, 82.802 57.405, 84.678 53.428, 86.219 46.647, 90.226 38.894, 96.543 34.424, 100.185 31.481, 103.171 29.396, 106.351 28.990, 108.925 29.309, 111.188 30.918, 115.462 33.678, 116.956 34.132, 116.791 34.710, 116.582 36.748, 115.846 37.083, 115.725 40.115, 113.663 42.095, 108.378 " />
            <path fill="none" stroke-width="3.0" stroke-linecap="butt" stroke-opacity="1.0" stroke="rgb(0, 0, 0)" stroke-linejoin="round" d=" M 32.200, 112.810 31.208, 112.253 29.309, 111.188 " />
            <path fill="none" stroke-width="3.0" stroke-linecap="butt" stroke-opacity="1.0" stroke="rgb(0, 0, 0)" stroke-linejoin="round" d=" M 40.115, 113.663 39.249, 111.244 " />
            <path fill="none" stroke-width="3.0" stroke-linecap="butt" stroke-opacity="1.0" stroke="rgb(0, 0, 0)" stroke-linejoin="round" d=" M 40.378, 108.527 39.249, 111.244 35.651, 112.288 " />
            <path fill="none" stroke-width="3.0" stroke-linecap="butt" stroke-opacity="1.0" stroke="rgb(0, 0, 0)" stroke-linejoin="round" d=" M 78.752, 81.353 78.420, 81.382 76.225, 81.943 75.309, 82.177 65.620, 84.652 64.492, 84.940 55.521, 87.954 53.875, 88.507 45.581, 92.730 44.251, 93.554 38.974, 96.820 34.424, 100.185 " />
            <path fill="none" stroke-width="3.0" stroke-linecap="butt" stroke-opacity="1.0" stroke="rgb(0, 0, 0)" stroke-linejoin="round" d=" M 85.587, 80.753 86.117, 80.707 91.300, 80.252 92.253, 80.168 93.555, 80.054 101.527, 79.879 101.575, 79.878 107.419, 80.126 " />
            <path fill="none" stroke-width="3.0" stroke-linecap="butt" stroke-opacity="1.0" stroke="rgb(0, 0, 0)" stroke-linejoin="round" d=" M 188.926, 113.565 189.755, 115.522 193.135, 116.866 199.815, 120.444 200.095, 120.594 200.452, 120.786 203.639, 122.349 204.321, 121.952 206.159, 120.884 206.324, 120.309 207.168, 117.361 205.151, 113.677 204.775, 112.991 203.732, 111.927 198.875, 106.976 192.144, 101.752 190.409, 100.360 189.113, 99.322 186.588, 97.297 178.904, 92.415 169.752, 88.386 169.558, 88.300 168.558, 87.860 159.035, 84.809 156.384, 83.959 146.782, 81.164 146.639, 81.122 143.886, 80.320 134.029, 78.632 130.988, 78.111 124.385, 77.045 " />
            <path fill="none" stroke-width="3.0" stroke-linecap="butt" stroke-opacity="1.0" stroke="rgb(0, 0, 0)" stroke-linejoin="round" d=" M 120.007, 81.255 126.755, 81.933 129.032, 82.482 138.753, 84.827 143.641, 86.006 153.242, 88.805 157.747, 90.119 160.122, 91.067 169.411, 94.772 169.888, 94.962 178.977, 99.132 179.074, 99.177 180.193, 99.690 181.025, 100.120 186.857, 103.132 187.763, 103.600 191.840, 106.105 192.215, 106.336 193.387, 107.056 197.713, 110.697 198.409, 112.056 198.947, 113.107 199.183, 113.568 199.318, 116.042 197.728, 116.946 196.653, 117.558 196.502, 117.644 " />
            <path fill="none" stroke-width="3.0" stroke-linecap="butt" stroke-opacity="1.0" stroke="rgb(0, 0, 0)" stroke-linejoin="round" d=" M 120.170, 77.690 120.318, 77.469 120.972, 76.494 123.823, 72.241 124.134, 70.882 124.348, 69.944 124.703, 68.394 124.911, 67.484 124.987, 67.154 125.726, 63.920 125.751, 57.474 125.303, 52.664 " />
            <path fill="none" stroke-width="3.0" stroke-linecap="butt" stroke-opacity="1.0" stroke="rgb(0, 0, 0)" stroke-linejoin="round" d=" M 95.242, 72.255 99.385, 74.644 102.000, 75.778 103.524, 76.439 105.300, 77.210 113.695, 78.824 120.170, 77.690 120.260, 77.832 121.084, 79.144 121.786, 80.452 121.880, 80.909 " />
            <path fill="none" stroke-width="3.0" stroke-linecap="butt" stroke-opacity="1.0" stroke="rgb(0, 0, 0)" stroke-linejoin="round" d=" M 69.848, 78.635 69.873, 77.229 " />
            <path fill="none" stroke-width="3.0" stroke-linecap="butt" stroke-opacity="1.0" stroke="rgb(0, 0, 0)" stroke-linejoin="round" d=" M 98.886, 76.768 97.864, 75.882 97.012, 75.143 95.683, 73.587 95.242, 72.255 93.455, 73.150 90.607, 74.577 84.249, 77.021 83.920, 77.077 75.793, 78.452 69.873, 77.229 67.965, 72.818 67.816, 72.472 67.564, 71.891 67.543, 69.087 67.503, 63.818 " />
            <path fill="none" stroke-width="3.0" stroke-linecap="butt" stroke-opacity="1.0" stroke="rgb(0, 0, 0)" stroke-linejoin="round" d=" M 127.375, 63.496 127.605, 58.382 131.845, 53.323 132.294, 52.788 133.129, 51.747 135.698, 48.541 136.357, 47.514 138.703, 43.859 139.283, 42.956 140.384, 40.148 141.654, 34.201 141.387, 31.944 137.299, 27.591 131.423, 24.998 128.665, 23.806 122.354, 22.520 118.222, 21.999 117.542, 21.913 " />
            <path fill="none" stroke-width="3.0" stroke-linecap="butt" stroke-opacity="1.0" stroke="rgb(0, 0, 0)" stroke-linejoin="round" d=" M 62.301, 42.960 60.596, 38.966 60.635, 33.176 60.817, 32.602 65.401, 28.359 73.070, 24.901 79.347, 23.400 84.113, 22.610 86.658, 18.595 90.540, 13.414 96.787, 7.717 102.534, 5.171 107.794, 7.400 112.934, 12.836 115.794, 17.924 117.542, 21.913 " />
            <path fill="none" stroke-width="3.0" stroke-linecap="butt" stroke-opacity="1.0" stroke="rgb(0, 0, 0)" stroke-linejoin="round" d=" M 127.034, 55.786 126.309, 53.663 125.303, 52.664 128.453, 49.989 129.859, 48.795 133.200, 45.349 134.454, 44.056 135.245, 43.240 135.318, 43.120 138.847, 37.321 140.126, 31.368 136.118, 27.095 128.665, 23.806 " />
            <path fill="none" stroke-width="3.0" stroke-linecap="butt" stroke-opacity="1.0" stroke="rgb(0, 0, 0)" stroke-linejoin="round" d=" M 66.763, 49.195 62.895, 43.911 62.798, 43.653 60.779, 38.290 60.817, 32.602 " />
            <path fill="none" stroke-width="3.0" stroke-linecap="butt" stroke-opacity="1.0" stroke="rgb(0, 0, 0)" stroke-linejoin="round" d=" M 70.023, 53.611 65.338, 47.918 62.301, 42.960 62.895, 43.911 " />
            <path fill="none" stroke-width="3.0" stroke-linecap="butt" stroke-opacity="1.0" stroke="rgb(0, 0, 0)" stroke-linejoin="round" d=" M 118.222, 21.999 115.849, 17.020 113.105, 12.465 108.439, 7.534 103.084, 5.265 102.534, 5.171 " />
            <path fill="none" stroke-width="3.0" stroke-linecap="butt" stroke-opacity="1.0" stroke="rgb(0, 0, 0)" stroke-linejoin="round" d=" M 66.763, 49.195 70.239, 52.900 " />
            <path fill="none" stroke-width="3.0" stroke-linecap="butt" stroke-opacity="1.0" stroke="rgb(0, 0, 0)" stroke-linejoin="round" d=" M 184.212, 85.639 183.164, 82.658 178.894, 75.824 173.530, 67.384 172.374, 65.564 165.315, 58.481 164.535, 57.699 156.744, 52.520 149.052, 47.450 140.623, 44.282 138.703, 43.859 " />
            <path fill="none" stroke-width="3.0" stroke-linecap="butt" stroke-opacity="1.0" stroke="rgb(0, 0, 0)" stroke-linejoin="round" d=" M 127.098, 66.301 127.375, 63.496 127.441, 61.370 127.034, 55.786 " />
            <path fill="none" stroke-width="3.0" stroke-linecap="butt" stroke-opacity="1.0" stroke="rgb(0, 0, 0)" stroke-linejoin="round" d=" M 62.590, 75.661 57.605, 84.330 57.405, 84.678 " />
            <path fill="none" stroke-width="3.0" stroke-linecap="butt" stroke-opacity="1.0" stroke="rgb(0, 0, 0)" stroke-linejoin="round" d=" M 67.468, 69.214 64.306, 74.566 62.590, 75.661 67.494, 72.669 " />
            <path fill="none" stroke-width="3.0" stroke-linecap="butt" stroke-opacity="1.0" stroke="rgb(0, 0, 0)" stroke-linejoin="round" d=" M 131.978, 67.600 130.846, 67.528 " />
            <path fill="none" stroke-width="3.0" stroke-linecap="butt" stroke-opacity="1.0" stroke="rgb(0, 0, 0)" stroke-linejoin="round" d=" M 131.978, 67.600 141.833, 69.294 151.689, 70.987 154.384, 71.450 " />
            <path fill="none" stroke-width="3.0" stroke-linecap="butt" stroke-opacity="1.0" stroke="rgb(0, 0, 0)" stroke-linejoin="round" d=" M 190.266, 99.981 186.739, 90.623 185.725, 87.934 184.212, 85.639 181.998, 82.282 180.805, 81.218 " />
            <path fill="none" stroke-width="3.0" stroke-linecap="butt" stroke-opacity="1.0" stroke="rgb(0, 0, 0)" stroke-linejoin="round" d=" M 210.385, 126.778 206.324, 120.309 " />
            <path fill="none" stroke-width="3.0" stroke-linecap="butt" stroke-opacity="1.0" stroke="rgb(0, 0, 0)" stroke-linejoin="round" d=" M 203.732, 111.927 202.005, 109.798 196.016, 103.268 190.266, 99.981 189.113, 99.322 " />
            <path fill="none" stroke-width="3.0" stroke-linecap="butt" stroke-opacity="1.0" stroke="rgb(0, 0, 0)" stroke-linejoin="round" d=" M 34.710, 116.582 40.024, 121.942 " />
            <path fill="none" stroke-width="3.0" stroke-linecap="butt" stroke-opacity="1.0" stroke="rgb(0, 0, 0)" stroke-linejoin="round" d=" M 185.252, 111.666 185.755, 111.926 186.088, 112.098 187.237, 112.692 188.926, 113.565 " />
            <path fill="none" stroke-width="3.0" stroke-linecap="butt" stroke-opacity="1.0" stroke="rgb(0, 0, 0)" stroke-linejoin="round" d=" M 198.241, 117.736 189.366, 113.127 188.565, 112.711 188.177, 112.510 " />
            <path fill="none" stroke-width="3.0" stroke-linecap="butt" stroke-opacity="1.0" stroke="rgb(0, 0, 0)" stroke-linejoin="round" d=" M 199.815, 120.444 203.323, 125.570 " />
        </g>
    </g>
</svg>
