<?xml version='1.0' encoding='ascii'?>
<svg xmlns="http://www.w3.org/2000/svg" version="1.1" width="250" height="250">
    <g id="ViewLayer_LineSet" xmlns:inkscape="http://www.inkscape.org/namespaces/inkscape" inkscape:groupmode="lineset" inkscape:label="ViewLayer_LineSet">
        <g xmlns:inkscape="http://www.inkscape.org/namespaces/inkscape" inkscape:groupmode="layer" id="strokes" inkscape:label="strokes">
            <path fill="none" stroke-width="3.0" stroke-linecap="butt" stroke-opacity="1.0" stroke="rgb(0, 0, 0)" stroke-linejoin="round" d=" M 59.808, 95.524 59.355, 96.094 57.967, 97.841 53.729, 104.968 49.918, 113.653 49.234, 115.863 48.302, 118.880 48.202, 119.200 47.248, 122.287 46.802, 124.466 45.994, 128.415 45.449, 134.767 45.224, 139.314 45.453, 144.935 45.933, 149.471 46.794, 154.071 47.642, 158.046 48.929, 162.367 50.594, 166.843 50.610, 166.879 52.564, 171.280 54.754, 175.487 57.071, 179.279 59.414, 182.481 62.349, 186.414 63.082, 187.212 65.336, 189.662 69.451, 193.781 " />
            <path fill="none" stroke-width="3.0" stroke-linecap="butt" stroke-opacity="1.0" stroke="rgb(0, 0, 0)" stroke-linejoin="round" d=" M 190.212, 124.514 188.922, 118.478 188.558, 117.536 " />
            <path fill="none" stroke-width="3.0" stroke-linecap="butt" stroke-opacity="1.0" stroke="rgb(0, 0, 0)" stroke-linejoin="round" d=" M 105.047, 211.279 108.939, 211.997 113.211, 212.462 " />
            <path fill="none" stroke-width="3.0" stroke-linecap="butt" stroke-opacity="1.0" stroke="rgb(0, 0, 0)" stroke-linejoin="round" d=" M 77.110, 147.284 77.665, 148.683 79.029, 150.750 80.926, 152.405 81.165, 152.538 83.123, 153.628 85.166, 154.066 87.262, 153.988 89.638, 153.154 91.689, 151.818 93.240, 149.965 93.956, 148.646 " />
            <path fill="none" stroke-width="3.0" stroke-linecap="butt" stroke-opacity="1.0" stroke="rgb(0, 0, 0)" stroke-linejoin="round" d=" M 117.417, 97.847 118.021, 99.870 118.059, 99.999 118.512, 103.381 118.553, 107.198 118.569, 107.268 117.449, 115.671 117.160, 116.660 117.122, 116.790 116.222, 119.876 114.716, 124.162 112.959, 128.158 111.017, 131.670 108.955, 134.525 107.452, 135.988 107.077, 136.353 106.844, 136.579 104.757, 137.729 102.766, 137.916 101.433, 137.338 100.944, 137.126 99.366, 135.393 99.094, 134.837 98.848, 134.332 98.098, 132.797 97.204, 129.459 96.731, 125.540 96.709, 121.229 97.145, 116.732 97.913, 112.788 97.947, 112.613 98.003, 112.327 99.206, 108.170 100.728, 104.273 102.509, 100.778 104.479, 97.806 105.569, 96.578 " />
            <path fill="none" stroke-width="3.0" stroke-linecap="butt" stroke-opacity="1.0" stroke="rgb(0, 0, 0)" stroke-linejoin="round" d=" M 77.311, 115.713 76.896, 117.532 76.332, 120.002 75.248, 124.110 74.071, 127.836 73.934, 128.178 73.776, 128.573 72.809, 130.993 71.468, 133.422 70.064, 135.002 68.874, 135.544 68.623, 135.658 67.211, 135.661 65.834, 134.133 64.625, 132.039 63.649, 129.188 62.987, 125.727 62.957, 125.321 62.923, 124.860 62.703, 121.828 62.841, 117.680 63.123, 115.596 63.400, 113.540 64.268, 109.549 65.387, 105.712 66.712, 102.163 67.039, 101.470 67.292, 100.933 68.191, 99.027 69.765, 96.409 70.791, 95.125 " />
            <path fill="none" stroke-width="3.0" stroke-linecap="butt" stroke-opacity="1.0" stroke="rgb(0, 0, 0)" stroke-linejoin="round" d=" M 67.211, 135.661 70.419, 137.096 " />
            <path fill="none" stroke-width="3.0" stroke-linecap="butt" stroke-opacity="1.0" stroke="rgb(0, 0, 0)" stroke-linejoin="round" d=" M 77.759, 94.871 77.875, 95.075 78.528, 97.368 78.889, 100.268 78.998, 103.744 78.766, 106.548 78.740, 106.862 78.689, 107.474 " />
            <path fill="none" stroke-width="3.0" stroke-linecap="butt" stroke-opacity="1.0" stroke="rgb(0, 0, 0)" stroke-linejoin="round" d=" M 80.421, 117.713 77.311, 115.713 78.136, 111.516 78.689, 107.474 81.759, 109.567 " />
            <path fill="none" stroke-width="3.0" stroke-linecap="butt" stroke-opacity="1.0" stroke="rgb(0, 0, 0)" stroke-linejoin="round" d=" M 113.297, 227.884 113.332, 228.008 114.207, 231.109 116.077, 234.102 119.629, 237.214 124.275, 239.625 130.046, 241.080 135.348, 241.825 141.361, 241.832 149.160, 241.062 150.454, 240.888 155.735, 239.824 157.189, 239.416 162.849, 237.868 166.450, 236.233 172.712, 228.436 172.804, 228.323 177.501, 219.495 178.232, 218.121 179.302, 215.470 182.785, 206.096 182.916, 205.743 183.212, 202.916 184.016, 194.695 183.515, 191.556 181.780, 185.409 180.409, 182.100 178.915, 180.262 " />
            <path fill="none" stroke-width="3.0" stroke-linecap="butt" stroke-opacity="1.0" stroke="rgb(0, 0, 0)" stroke-linejoin="round" d=" M 113.211, 212.462 113.188, 212.574 112.838, 214.259 111.962, 218.045 111.812, 221.583 112.197, 224.788 113.332, 228.008 " />
            <path fill="none" stroke-width="3.0" stroke-linecap="butt" stroke-opacity="1.0" stroke="rgb(0, 0, 0)" stroke-linejoin="round" d=" M 161.442, 208.744 156.293, 205.593 " />
            <path fill="none" stroke-width="3.0" stroke-linecap="butt" stroke-opacity="1.0" stroke="rgb(0, 0, 0)" stroke-linejoin="round" d=" M 62.146, 188.252 57.655, 192.996 54.667, 197.851 52.457, 202.198 51.312, 206.133 50.603, 209.663 50.101, 213.380 50.371, 216.694 51.420, 220.043 52.817, 223.848 56.096, 226.907 58.401, 228.740 63.044, 231.113 67.443, 232.341 72.268, 232.662 78.690, 232.296 85.203, 230.705 88.563, 229.519 95.233, 226.970 97.697, 225.263 104.507, 220.259 111.233, 214.412 113.188, 212.574 " />
            <path fill="none" stroke-width="3.0" stroke-linecap="butt" stroke-opacity="1.0" stroke="rgb(0, 0, 0)" stroke-linejoin="round" d=" M 176.965, 177.863 179.458, 179.462 181.493, 180.768 186.181, 182.794 190.640, 184.101 195.183, 184.683 199.073, 184.438 202.614, 183.660 204.187, 183.136 207.349, 181.765 210.138, 179.879 212.623, 177.561 213.564, 176.596 215.551, 173.788 217.105, 170.675 218.165, 167.283 218.296, 166.520 218.661, 163.608 218.660, 163.336 218.624, 159.638 217.710, 155.085 216.067, 150.655 213.673, 146.040 209.487, 140.437 205.165, 135.618 204.967, 135.418 204.535, 134.982 200.994, 131.411 196.608, 127.938 191.842, 125.174 190.212, 124.514 184.863, 122.350 " />
            <path fill="none" stroke-width="3.0" stroke-linecap="butt" stroke-opacity="1.0" stroke="rgb(0, 0, 0)" stroke-linejoin="round" d=" M 46.802, 124.466 45.126, 126.081 42.467, 129.337 39.827, 132.907 37.554, 136.904 36.730, 139.293 35.713, 142.283 35.173, 145.004 34.933, 147.539 35.117, 149.865 35.787, 153.386 37.466, 157.338 37.898, 158.233 40.087, 161.073 42.569, 163.311 44.453, 164.619 46.147, 165.456 47.568, 166.039 50.558, 166.872 50.610, 166.879 " />
            <path fill="none" stroke-width="3.0" stroke-linecap="butt" stroke-opacity="1.0" stroke="rgb(0, 0, 0)" stroke-linejoin="round" d=" M 118.754, 65.887 119.550, 65.271 119.698, 64.968 119.736, 64.890 121.403, 61.471 122.390, 58.896 122.370, 55.207 121.353, 52.512 119.446, 48.816 117.604, 47.480 " />
            <path fill="none" stroke-width="3.0" stroke-linecap="butt" stroke-opacity="1.0" stroke="rgb(0, 0, 0)" stroke-linejoin="round" d=" M 56.075, 50.906 55.976, 51.184 54.459, 55.466 52.818, 61.548 52.248, 69.384 52.538, 70.667 54.191, 75.936 56.683, 77.218 60.313, 78.044 61.832, 78.389 62.220, 78.439 65.720, 78.886 71.736, 77.812 77.305, 76.381 82.838, 74.161 82.901, 74.136 " />
            <path fill="none" stroke-width="3.0" stroke-linecap="butt" stroke-opacity="1.0" stroke="rgb(0, 0, 0)" stroke-linejoin="round" d=" M 33.784, 108.230 31.571, 103.543 32.753, 102.349 37.455, 97.597 42.069, 96.359 50.145, 94.193 53.159, 93.385 56.103, 93.264 58.926, 93.147 61.792, 93.029 71.783, 92.617 74.278, 92.515 74.890, 92.489 79.968, 92.280 89.940, 93.036 99.911, 93.792 107.933, 94.400 113.719, 94.839 116.165, 95.268 116.191, 95.272 126.041, 97.000 135.890, 98.728 145.740, 100.457 147.744, 100.808 157.396, 103.422 167.048, 106.036 176.701, 108.650 177.183, 108.781 178.223, 109.220 178.408, 109.298 183.154, 111.302 " />
            <path fill="none" stroke-width="3.0" stroke-linecap="butt" stroke-opacity="1.0" stroke="rgb(0, 0, 0)" stroke-linejoin="round" d=" M 204.535, 134.982 206.770, 133.619 206.408, 127.047 199.987, 122.009 198.000, 120.450 " />
            <path fill="none" stroke-width="3.0" stroke-linecap="butt" stroke-opacity="1.0" stroke="rgb(0, 0, 0)" stroke-linejoin="round" d=" M 44.949, 98.764 54.689, 96.499 58.704, 95.565 " />
            <path fill="none" stroke-width="3.0" stroke-linecap="butt" stroke-opacity="1.0" stroke="rgb(0, 0, 0)" stroke-linejoin="round" d=" M 38.810, 113.202 45.638, 117.765 47.118, 118.747 48.202, 119.200 " />
            <path fill="none" stroke-width="3.0" stroke-linecap="butt" stroke-opacity="1.0" stroke="rgb(0, 0, 0)" stroke-linejoin="round" d=" M 55.959, 95.665 46.223, 97.947 45.752, 98.058 41.085, 99.152 39.785, 99.457 33.774, 105.186 34.538, 106.853 " />
            <path fill="none" stroke-width="3.0" stroke-linecap="butt" stroke-opacity="1.0" stroke="rgb(0, 0, 0)" stroke-linejoin="round" d=" M 55.959, 95.665 58.704, 95.565 58.746, 95.563 59.808, 95.524 60.619, 95.495 70.613, 95.131 70.791, 95.125 76.918, 94.902 77.759, 94.871 78.856, 94.831 81.516, 94.734 91.486, 95.499 101.457, 96.263 105.569, 96.578 110.541, 96.959 113.473, 97.184 117.417, 97.847 117.845, 97.919 117.875, 97.924 127.737, 99.581 137.598, 101.238 146.254, 102.692 146.813, 102.786 156.473, 105.372 166.132, 107.958 175.790, 110.543 179.374, 112.036 184.952, 114.361 " />
            <path fill="none" stroke-width="3.0" stroke-linecap="butt" stroke-opacity="1.0" stroke="rgb(0, 0, 0)" stroke-linejoin="round" d=" M 57.438, 80.445 49.122, 84.886 47.651, 85.672 47.249, 85.886 40.986, 90.021 36.180, 94.003 33.010, 97.268 31.197, 100.162 30.026, 103.238 30.019, 105.726 30.484, 107.912 34.815, 112.179 37.497, 113.660 38.810, 113.202 38.816, 113.200 40.761, 112.521 41.949, 111.710 43.620, 110.570 45.207, 105.470 " />
            <path fill="none" stroke-width="3.0" stroke-linecap="butt" stroke-opacity="1.0" stroke="rgb(0, 0, 0)" stroke-linejoin="round" d=" M 33.217, 109.507 30.484, 107.912 " />
            <path fill="none" stroke-width="3.0" stroke-linecap="butt" stroke-opacity="1.0" stroke="rgb(0, 0, 0)" stroke-linejoin="round" d=" M 43.620, 110.570 39.886, 108.082 " />
            <path fill="none" stroke-width="3.0" stroke-linecap="butt" stroke-opacity="1.0" stroke="rgb(0, 0, 0)" stroke-linejoin="round" d=" M 40.726, 105.850 39.886, 108.082 36.462, 109.045 " />
            <path fill="none" stroke-width="3.0" stroke-linecap="butt" stroke-opacity="1.0" stroke="rgb(0, 0, 0)" stroke-linejoin="round" d=" M 62.220, 78.439 59.243, 79.688 57.438, 80.445 50.481, 83.825 47.651, 85.672 " />
            <path fill="none" stroke-width="3.0" stroke-linecap="butt" stroke-opacity="1.0" stroke="rgb(0, 0, 0)" stroke-linejoin="round" d=" M 47.249, 85.886 47.450, 85.802 49.968, 84.756 50.191, 84.663 52.655, 83.639 55.725, 82.363 57.944, 81.685 67.360, 78.810 77.304, 77.754 79.288, 77.543 80.463, 77.418 81.836, 77.377 87.702, 77.204 89.731, 77.287 90.075, 77.301 " />
            <path fill="none" stroke-width="3.0" stroke-linecap="butt" stroke-opacity="1.0" stroke="rgb(0, 0, 0)" stroke-linejoin="round" d=" M 179.374, 112.036 180.089, 113.786 183.110, 115.191 183.390, 115.311 184.716, 115.882 188.558, 117.536 196.964, 121.154 197.023, 121.114 198.000, 120.450 198.711, 119.966 199.169, 119.655 199.418, 118.568 200.006, 116.007 197.101, 111.428 192.334, 106.808 190.601, 105.128 183.038, 99.661 180.997, 98.141 179.469, 97.002 176.920, 95.103 176.817, 95.027 172.490, 92.462 168.277, 89.966 161.842, 87.267 157.088, 85.273 156.700, 85.152 147.156, 82.168 144.369, 81.297 134.755, 78.546 131.567, 77.633 121.708, 75.961 118.700, 75.451 109.292, 73.931 107.502, 73.642 " />
            <path fill="none" stroke-width="3.0" stroke-linecap="butt" stroke-opacity="1.0" stroke="rgb(0, 0, 0)" stroke-linejoin="round" d=" M 102.363, 78.235 107.787, 78.786 111.472, 79.160 113.176, 79.576 122.891, 81.946 128.134, 83.225 137.738, 86.009 142.545, 87.401 143.024, 87.587 152.349, 91.199 155.393, 92.377 164.547, 96.401 166.550, 97.282 174.925, 101.368 181.381, 104.997 184.647, 107.458 186.457, 108.821 187.649, 110.713 188.108, 111.442 188.345, 111.819 188.637, 113.862 188.711, 114.386 187.612, 115.094 187.258, 115.322 186.174, 116.019 " />
            <path fill="none" stroke-width="3.0" stroke-linecap="butt" stroke-opacity="1.0" stroke="rgb(0, 0, 0)" stroke-linejoin="round" d=" M 99.134, 74.704 100.068, 73.368 102.933, 69.269 103.438, 67.538 103.890, 65.992 104.220, 64.860 104.466, 64.021 104.904, 62.522 105.268, 61.273 105.354, 60.979 105.891, 54.568 105.880, 52.861 105.872, 51.759 105.863, 50.257 105.860, 49.791 " />
            <path fill="none" stroke-width="3.0" stroke-linecap="butt" stroke-opacity="1.0" stroke="rgb(0, 0, 0)" stroke-linejoin="round" d=" M 76.872, 69.516 80.424, 71.832 83.153, 73.149 83.956, 73.536 85.055, 74.066 85.581, 74.320 93.106, 75.865 99.134, 74.704 99.714, 75.406 100.340, 76.162 102.004, 77.503 103.183, 77.917 103.458, 78.014 " />
            <path fill="none" stroke-width="3.0" stroke-linecap="butt" stroke-opacity="1.0" stroke="rgb(0, 0, 0)" stroke-linejoin="round" d=" M 54.191, 75.936 53.869, 74.551 " />
            <path fill="none" stroke-width="3.0" stroke-linecap="butt" stroke-opacity="1.0" stroke="rgb(0, 0, 0)" stroke-linejoin="round" d=" M 79.897, 72.407 77.629, 70.840 76.872, 69.516 72.523, 71.829 66.641, 74.262 62.228, 75.098 59.009, 75.707 53.869, 74.551 52.248, 69.384 " />
            <path fill="none" stroke-width="3.0" stroke-linecap="butt" stroke-opacity="1.0" stroke="rgb(0, 0, 0)" stroke-linejoin="round" d=" M 110.688, 57.358 110.876, 57.093 110.886, 57.079 111.151, 56.707 114.214, 52.399 114.465, 52.035 117.604, 47.480 118.896, 45.605 122.568, 39.943 122.700, 39.460 124.112, 34.287 124.163, 31.075 122.979, 28.786 119.496, 24.536 114.217, 22.108 111.280, 20.983 105.537, 19.886 103.078, 19.627 101.148, 19.423 " />
            <path fill="none" stroke-width="3.0" stroke-linecap="butt" stroke-opacity="1.0" stroke="rgb(0, 0, 0)" stroke-linejoin="round" d=" M 53.295, 47.364 52.560, 46.123 50.300, 42.309 48.877, 36.906 49.348, 31.395 53.705, 27.169 60.749, 23.607 66.446, 21.972 70.763, 21.067 73.356, 17.063 77.249, 11.865 83.333, 6.061 88.746, 3.351 93.364, 5.366 97.637, 10.569 99.858, 15.520 101.148, 19.423 " />
            <path fill="none" stroke-width="3.0" stroke-linecap="butt" stroke-opacity="1.0" stroke="rgb(0, 0, 0)" stroke-linejoin="round" d=" M 108.994, 52.934 107.481, 51.123 107.199, 50.785 106.012, 49.904 105.860, 49.791 106.175, 49.518 106.657, 49.099 110.391, 45.860 110.717, 45.522 115.849, 40.212 116.085, 39.843 119.690, 34.216 121.367, 28.226 117.959, 24.058 111.280, 20.983 " />
            <path fill="none" stroke-width="3.0" stroke-linecap="butt" stroke-opacity="1.0" stroke="rgb(0, 0, 0)" stroke-linejoin="round" d=" M 52.560, 46.123 52.580, 46.165 53.295, 47.364 55.976, 51.184 " />
            <path fill="none" stroke-width="3.0" stroke-linecap="butt" stroke-opacity="1.0" stroke="rgb(0, 0, 0)" stroke-linejoin="round" d=" M 103.078, 19.627 102.188, 17.356 99.703, 12.534 98.278, 10.209 94.394, 5.488 89.687, 3.436 88.746, 3.351 " />
            <path fill="none" stroke-width="3.0" stroke-linecap="butt" stroke-opacity="1.0" stroke="rgb(0, 0, 0)" stroke-linejoin="round" d=" M 53.295, 47.364 56.075, 50.906 " />
            <path fill="none" stroke-width="3.0" stroke-linecap="butt" stroke-opacity="1.0" stroke="rgb(0, 0, 0)" stroke-linejoin="round" d=" M 191.358, 102.087 188.451, 92.519 186.428, 85.856 185.422, 84.788 184.213, 80.451 179.355, 71.711 178.099, 69.453 171.556, 61.891 170.450, 60.614 164.769, 55.040 156.785, 49.019 156.451, 48.767 149.228, 44.872 142.961, 42.778 138.059, 41.168 137.138, 40.865 130.687, 39.710 126.780, 39.548 124.328, 39.446 122.700, 39.460 " />
            <path fill="none" stroke-width="3.0" stroke-linecap="butt" stroke-opacity="1.0" stroke="rgb(0, 0, 0)" stroke-linejoin="round" d=" M 79.897, 72.407 82.097, 73.673 82.854, 74.109 82.901, 74.136 83.857, 74.687 84.665, 75.152 84.775, 75.215 88.420, 76.650 89.994, 77.269 90.075, 77.301 90.802, 77.587 91.219, 77.692 92.253, 77.952 94.780, 78.489 97.863, 79.144 100.020, 78.708 102.363, 78.235 103.458, 78.014 103.510, 77.939 104.221, 76.923 106.541, 73.606 106.574, 73.559 107.402, 72.375 108.635, 68.717 108.847, 68.089 109.131, 66.599 109.457, 64.897 109.569, 64.311 110.266, 60.665 110.688, 57.358 110.738, 56.959 110.778, 56.652 110.848, 56.103 110.916, 55.569 " />
            <path fill="none" stroke-width="3.0" stroke-linecap="butt" stroke-opacity="1.0" stroke="rgb(0, 0, 0)" stroke-linejoin="round" d=" M 186.414, 98.980 183.146, 96.189 174.591, 92.262 166.863, 88.714 161.842, 87.267 " />
            <path fill="none" stroke-width="3.0" stroke-linecap="butt" stroke-opacity="1.0" stroke="rgb(0, 0, 0)" stroke-linejoin="round" d=" M 121.299, 64.979 119.736, 64.890 " />
            <path fill="none" stroke-width="3.0" stroke-linecap="butt" stroke-opacity="1.0" stroke="rgb(0, 0, 0)" stroke-linejoin="round" d=" M 121.299, 64.979 131.175, 66.544 141.052, 68.109 145.083, 68.748 " />
            <path fill="none" stroke-width="3.0" stroke-linecap="butt" stroke-opacity="1.0" stroke="rgb(0, 0, 0)" stroke-linejoin="round" d=" M 138.059, 41.168 137.599, 40.540 134.261, 39.136 130.201, 38.687 127.032, 39.371 126.780, 39.548 " />
            <path fill="none" stroke-width="3.0" stroke-linecap="butt" stroke-opacity="1.0" stroke="rgb(0, 0, 0)" stroke-linejoin="round" d=" M 204.967, 135.418 209.021, 132.971 209.888, 129.264 209.736, 122.194 205.904, 116.714 200.123, 109.633 192.544, 103.109 191.358, 102.087 190.572, 101.410 186.414, 98.980 185.137, 98.233 176.109, 94.114 172.490, 92.462 " />
            <path fill="none" stroke-width="3.0" stroke-linecap="butt" stroke-opacity="1.0" stroke="rgb(0, 0, 0)" stroke-linejoin="round" d=" M 199.418, 118.568 207.217, 124.828 208.806, 126.103 209.021, 132.971 " />
            <path fill="none" stroke-width="3.0" stroke-linecap="butt" stroke-opacity="1.0" stroke="rgb(0, 0, 0)" stroke-linejoin="round" d=" M 44.719, 88.701 43.541, 89.586 38.074, 93.628 32.009, 99.895 31.571, 103.543 " />
            <path fill="none" stroke-width="3.0" stroke-linecap="butt" stroke-opacity="1.0" stroke="rgb(0, 0, 0)" stroke-linejoin="round" d=" M 209.736, 122.194 202.051, 115.795 199.467, 113.643 " />
            <path fill="none" stroke-width="3.0" stroke-linecap="butt" stroke-opacity="1.0" stroke="rgb(0, 0, 0)" stroke-linejoin="round" d=" M 38.816, 113.200 47.118, 118.747 " />
            <path fill="none" stroke-width="3.0" stroke-linecap="butt" stroke-opacity="1.0" stroke="rgb(0, 0, 0)" stroke-linejoin="round" d=" M 60.313, 78.044 59.243, 79.688 " />
            <path fill="none" stroke-width="3.0" stroke-linecap="butt" stroke-opacity="1.0" stroke="rgb(0, 0, 0)" stroke-linejoin="round" d=" M 63.082, 187.212 62.146, 188.252 61.277, 189.217 " />
            <path fill="none" stroke-width="3.0" stroke-linecap="butt" stroke-opacity="1.0" stroke="rgb(0, 0, 0)" stroke-linejoin="round" d=" M 107.280, 73.634 107.366, 73.346 108.749, 68.716 " />
            <path fill="none" stroke-width="3.0" stroke-linecap="butt" stroke-opacity="1.0" stroke="rgb(0, 0, 0)" stroke-linejoin="round" d=" M 108.635, 68.717 108.749, 68.716 110.918, 68.687 " />
            <path fill="none" stroke-width="3.0" stroke-linecap="butt" stroke-opacity="1.0" stroke="rgb(0, 0, 0)" stroke-linejoin="round" d=" M 178.915, 180.262 179.458, 179.462 " />
            <path fill="none" stroke-width="3.0" stroke-linecap="butt" stroke-opacity="1.0" stroke="rgb(0, 0, 0)" stroke-linejoin="round" d=" M 197.023, 121.114 201.690, 124.735 " />
        </g>
    </g>
</svg>
