<?xml version='1.0' encoding='ascii'?>
<svg xmlns="http://www.w3.org/2000/svg" version="1.1" width="250" height="250">
    <g id="ViewLayer_LineSet" xmlns:inkscape="http://www.inkscape.org/namespaces/inkscape" inkscape:groupmode="lineset" inkscape:label="ViewLayer_LineSet">
        <g xmlns:inkscape="http://www.inkscape.org/namespaces/inkscape" inkscape:groupmode="layer" id="strokes" inkscape:label="strokes">
            <path fill="none" stroke-width="3.0" stroke-linecap="butt" stroke-opacity="1.0" stroke="rgb(0, 0, 0)" stroke-linejoin="round" d=" M 59.657, 96.944 59.405, 97.261 57.972, 99.063 53.737, 106.183 49.926, 114.862 49.280, 116.952 48.347, 119.972 48.246, 120.299 47.865, 121.531 47.257, 123.498 46.004, 129.636 45.459, 135.998 45.234, 140.525 45.463, 146.158 45.943, 150.680 46.804, 155.296 47.651, 159.261 48.937, 163.576 50.602, 168.049 51.874, 170.913 52.572, 172.485 54.761, 176.694 57.077, 180.491 59.420, 183.701 62.353, 187.617 65.339, 190.878 69.453, 194.982 72.900, 197.662 72.934, 197.689 78.080, 201.652 84.047, 205.229 89.785, 207.841 93.597, 209.479 98.507, 210.874 101.400, 211.579 " />
            <path fill="none" stroke-width="3.0" stroke-linecap="butt" stroke-opacity="1.0" stroke="rgb(0, 0, 0)" stroke-linejoin="round" d=" M 189.767, 123.824 188.887, 119.705 188.595, 118.950 " />
            <path fill="none" stroke-width="3.0" stroke-linecap="butt" stroke-opacity="1.0" stroke="rgb(0, 0, 0)" stroke-linejoin="round" d=" M 167.341, 195.222 174.283, 188.025 174.466, 187.835 176.463, 185.003 182.089, 176.736 182.203, 176.569 " />
            <path fill="none" stroke-width="3.0" stroke-linecap="butt" stroke-opacity="1.0" stroke="rgb(0, 0, 0)" stroke-linejoin="round" d=" M 77.110, 148.670 77.665, 150.070 78.957, 152.029 79.029, 152.138 80.924, 153.795 83.120, 155.021 85.163, 155.462 87.259, 155.387 89.634, 154.557 91.684, 153.225 93.234, 151.375 93.950, 150.057 " />
            <path fill="none" stroke-width="3.0" stroke-linecap="butt" stroke-opacity="1.0" stroke="rgb(0, 0, 0)" stroke-linejoin="round" d=" M 117.423, 99.342 117.875, 100.857 118.045, 101.425 118.497, 104.810 118.537, 108.630 118.553, 108.700 117.434, 117.108 117.266, 117.685 117.230, 117.808 116.207, 121.317 114.702, 125.605 112.946, 129.601 111.004, 133.113 108.943, 135.967 107.858, 137.022 107.479, 137.391 106.833, 138.019 104.747, 139.168 102.756, 139.353 101.442, 138.782 100.936, 138.563 99.357, 136.829 98.835, 135.759 98.586, 135.248 98.091, 134.231 97.197, 130.893 96.724, 126.973 96.702, 122.660 97.138, 118.162 97.982, 113.817 97.995, 113.754 98.024, 113.653 99.198, 109.595 100.720, 105.695 102.500, 102.197 104.469, 99.224 105.502, 98.060 " />
            <path fill="none" stroke-width="3.0" stroke-linecap="butt" stroke-opacity="1.0" stroke="rgb(0, 0, 0)" stroke-linejoin="round" d=" M 77.311, 117.115 76.333, 121.406 76.254, 121.704 75.249, 125.514 74.077, 129.226 74.072, 129.240 73.918, 129.626 72.810, 132.395 71.470, 134.821 70.066, 136.398 68.889, 136.931 68.626, 137.050 67.215, 137.049 65.838, 135.517 64.630, 133.419 63.654, 130.565 62.991, 127.100 62.937, 126.347 62.903, 125.880 62.708, 123.197 62.846, 119.046 63.131, 116.934 63.405, 114.902 64.272, 110.908 65.391, 107.068 66.716, 103.518 67.146, 102.606 67.394, 102.079 68.194, 100.381 69.767, 97.764 70.724, 96.567 " />
            <path fill="none" stroke-width="3.0" stroke-linecap="butt" stroke-opacity="1.0" stroke="rgb(0, 0, 0)" stroke-linejoin="round" d=" M 67.215, 137.049 70.421, 138.465 " />
            <path fill="none" stroke-width="3.0" stroke-linecap="butt" stroke-opacity="1.0" stroke="rgb(0, 0, 0)" stroke-linejoin="round" d=" M 77.804, 96.326 77.875, 96.450 78.528, 98.748 78.888, 101.653 78.997, 105.134 78.792, 107.611 78.767, 107.916 78.688, 108.869 " />
            <path fill="none" stroke-width="3.0" stroke-linecap="butt" stroke-opacity="1.0" stroke="rgb(0, 0, 0)" stroke-linejoin="round" d=" M 80.419, 119.096 77.311, 117.115 78.135, 112.915 78.688, 108.869 81.757, 110.943 " />
            <path fill="none" stroke-width="3.0" stroke-linecap="butt" stroke-opacity="1.0" stroke="rgb(0, 0, 0)" stroke-linejoin="round" d=" M 134.996, 247.050 138.293, 246.996 144.579, 246.550 150.561, 245.358 155.135, 243.324 159.223, 241.739 165.595, 236.943 169.047, 233.542 173.428, 228.738 175.224, 225.125 176.261, 221.340 177.275, 217.437 177.259, 213.055 176.070, 208.405 174.762, 205.374 172.465, 200.541 169.721, 197.214 167.341, 195.222 166.241, 194.302 " />
            <path fill="none" stroke-width="3.0" stroke-linecap="butt" stroke-opacity="1.0" stroke="rgb(0, 0, 0)" stroke-linejoin="round" d=" M 97.051, 224.229 96.862, 225.572 96.412, 228.770 96.477, 232.427 96.744, 233.412 97.490, 236.160 99.834, 239.881 102.019, 242.359 105.883, 244.426 108.628, 245.286 114.633, 246.565 120.127, 247.077 126.541, 247.400 134.996, 247.050 135.116, 247.045 " />
            <path fill="none" stroke-width="3.0" stroke-linecap="butt" stroke-opacity="1.0" stroke="rgb(0, 0, 0)" stroke-linejoin="round" d=" M 107.075, 202.831 103.512, 207.022 101.400, 211.579 101.358, 211.669 98.410, 217.915 97.195, 222.230 96.862, 225.572 " />
            <path fill="none" stroke-width="3.0" stroke-linecap="butt" stroke-opacity="1.0" stroke="rgb(0, 0, 0)" stroke-linejoin="round" d=" M 72.934, 197.689 72.905, 197.768 71.250, 204.468 70.680, 207.749 70.664, 212.828 70.661, 215.922 71.293, 218.476 73.238, 223.453 74.511, 225.814 77.939, 229.402 82.275, 232.207 86.567, 233.491 88.789, 233.719 93.166, 233.900 96.744, 233.412 " />
            <path fill="none" stroke-width="3.0" stroke-linecap="butt" stroke-opacity="1.0" stroke="rgb(0, 0, 0)" stroke-linejoin="round" d=" M 181.632, 176.288 182.203, 176.569 187.541, 179.195 192.153, 180.582 196.425, 181.296 200.644, 181.304 204.177, 180.608 207.736, 179.362 210.288, 178.021 213.016, 176.038 215.511, 173.574 217.582, 170.502 219.003, 167.431 220.020, 164.097 220.445, 160.795 220.336, 157.295 219.363, 153.288 218.786, 151.895 217.058, 147.829 214.541, 143.599 210.368, 138.472 207.174, 135.237 206.729, 134.785 206.038, 134.085 201.760, 130.269 197.222, 127.158 192.275, 124.717 189.767, 123.824 " />
            <path fill="none" stroke-width="3.0" stroke-linecap="butt" stroke-opacity="1.0" stroke="rgb(0, 0, 0)" stroke-linejoin="round" d=" M 47.865, 121.531 46.031, 122.482 41.966, 125.396 38.150, 128.949 34.300, 133.023 30.605, 137.770 28.399, 141.671 27.751, 142.973 26.303, 146.582 25.509, 150.262 25.489, 153.468 25.949, 156.483 26.881, 159.442 28.231, 162.219 30.171, 164.986 32.486, 167.194 35.002, 168.958 37.341, 170.133 37.725, 170.296 40.660, 171.280 43.872, 171.843 47.693, 171.750 51.552, 171.017 51.874, 170.913 " />
            <path fill="none" stroke-width="3.0" stroke-linecap="butt" stroke-opacity="1.0" stroke="rgb(0, 0, 0)" stroke-linejoin="round" d=" M 118.992, 67.089 119.535, 66.670 119.687, 66.359 119.725, 66.282 121.388, 62.882 122.374, 60.301 122.354, 56.615 121.337, 53.930 119.431, 50.229 117.631, 48.920 " />
            <path fill="none" stroke-width="3.0" stroke-linecap="butt" stroke-opacity="1.0" stroke="rgb(0, 0, 0)" stroke-linejoin="round" d=" M 56.083, 52.375 55.986, 52.648 54.467, 56.936 52.827, 63.020 52.257, 70.861 52.547, 72.137 54.200, 77.413 56.691, 78.680 60.173, 79.479 61.838, 79.861 61.933, 79.872 65.724, 80.339 71.738, 79.272 77.305, 77.844 82.802, 75.645 82.867, 75.618 " />
            <path fill="none" stroke-width="3.0" stroke-linecap="butt" stroke-opacity="1.0" stroke="rgb(0, 0, 0)" stroke-linejoin="round" d=" M 33.794, 109.411 31.586, 104.786 32.767, 103.610 37.468, 98.928 41.975, 97.743 50.004, 95.631 53.168, 94.799 56.406, 94.673 58.982, 94.573 61.624, 94.471 71.617, 94.083 74.001, 93.990 75.622, 93.927 79.967, 93.758 89.938, 94.523 99.909, 95.288 107.821, 95.895 113.705, 96.346 116.203, 96.783 116.241, 96.790 126.091, 98.514 135.941, 100.239 145.791, 101.964 147.717, 102.301 157.373, 104.901 167.029, 107.501 176.685, 110.101 177.146, 110.225 178.211, 110.671 178.597, 110.832 183.121, 112.727 " />
            <path fill="none" stroke-width="3.0" stroke-linecap="butt" stroke-opacity="1.0" stroke="rgb(0, 0, 0)" stroke-linejoin="round" d=" M 206.729, 134.785 206.365, 128.324 200.026, 123.402 197.967, 121.803 " />
            <path fill="none" stroke-width="3.0" stroke-linecap="butt" stroke-opacity="1.0" stroke="rgb(0, 0, 0)" stroke-linejoin="round" d=" M 44.960, 100.080 54.710, 97.858 58.554, 96.982 " />
            <path fill="none" stroke-width="3.0" stroke-linecap="butt" stroke-opacity="1.0" stroke="rgb(0, 0, 0)" stroke-linejoin="round" d=" M 38.835, 114.350 47.127, 119.836 48.246, 120.299 " />
            <path fill="none" stroke-width="3.0" stroke-linecap="butt" stroke-opacity="1.0" stroke="rgb(0, 0, 0)" stroke-linejoin="round" d=" M 55.967, 97.070 46.221, 99.308 45.699, 99.428 41.086, 100.487 39.797, 100.783 33.787, 106.426 34.543, 108.056 " />
            <path fill="none" stroke-width="3.0" stroke-linecap="butt" stroke-opacity="1.0" stroke="rgb(0, 0, 0)" stroke-linejoin="round" d=" M 55.967, 97.070 58.554, 96.982 59.062, 96.965 59.657, 96.944 60.925, 96.901 70.724, 96.567 76.616, 96.367 77.804, 96.326 78.994, 96.286 81.514, 96.200 91.484, 96.973 101.454, 97.746 105.502, 98.060 110.411, 98.441 113.459, 98.677 117.423, 99.342 117.926, 99.426 127.788, 101.081 137.650, 102.735 141.924, 103.452 146.786, 104.268 156.450, 106.840 166.114, 109.412 175.754, 111.977 179.353, 113.465 184.715, 115.681 " />
            <path fill="none" stroke-width="3.0" stroke-linecap="butt" stroke-opacity="1.0" stroke="rgb(0, 0, 0)" stroke-linejoin="round" d=" M 40.998, 91.319 36.193, 95.274 33.024, 98.518 31.211, 101.395 30.040, 104.456 30.033, 106.935 30.498, 109.118 34.828, 113.335 37.509, 114.813 38.835, 114.350 38.841, 114.348 40.772, 113.674 41.990, 112.843 43.630, 111.724 45.216, 106.632 " />
            <path fill="none" stroke-width="3.0" stroke-linecap="butt" stroke-opacity="1.0" stroke="rgb(0, 0, 0)" stroke-linejoin="round" d=" M 33.230, 110.711 30.498, 109.118 " />
            <path fill="none" stroke-width="3.0" stroke-linecap="butt" stroke-opacity="1.0" stroke="rgb(0, 0, 0)" stroke-linejoin="round" d=" M 43.630, 111.724 39.898, 109.287 " />
            <path fill="none" stroke-width="3.0" stroke-linecap="butt" stroke-opacity="1.0" stroke="rgb(0, 0, 0)" stroke-linejoin="round" d=" M 40.755, 107.010 39.898, 109.287 36.475, 110.250 " />
            <path fill="none" stroke-width="3.0" stroke-linecap="butt" stroke-opacity="1.0" stroke="rgb(0, 0, 0)" stroke-linejoin="round" d=" M 57.445, 81.740 50.490, 85.093 42.128, 90.578 40.998, 91.319 47.259, 87.215 48.871, 86.348 57.445, 81.740 59.170, 81.022 61.933, 79.872 " />
            <path fill="none" stroke-width="3.0" stroke-linecap="butt" stroke-opacity="1.0" stroke="rgb(0, 0, 0)" stroke-linejoin="round" d=" M 47.259, 87.215 49.888, 86.131 49.948, 86.106 52.896, 84.891 55.733, 83.722 57.828, 83.088 67.364, 80.203 77.310, 79.169 78.935, 79.000 80.462, 78.841 81.820, 78.803 87.698, 78.639 89.383, 78.711 89.854, 78.730 " />
            <path fill="none" stroke-width="3.0" stroke-linecap="butt" stroke-opacity="1.0" stroke="rgb(0, 0, 0)" stroke-linejoin="round" d=" M 179.353, 113.465 180.053, 115.175 182.980, 116.547 183.072, 116.590 184.291, 117.111 188.595, 118.950 196.922, 122.509 197.015, 122.446 197.967, 121.803 198.714, 121.298 199.127, 121.020 199.377, 119.927 199.963, 117.378 197.059, 112.807 192.331, 108.228 190.561, 106.513 183.000, 101.054 182.183, 100.445 179.122, 98.168 177.240, 96.768 176.782, 96.427 172.162, 93.693 168.244, 91.375 161.527, 88.560 157.342, 86.807 157.059, 86.688 147.515, 83.705 144.345, 82.714 134.731, 79.962 131.548, 79.051 121.689, 77.375 118.685, 76.864 109.277, 75.338 107.491, 75.048 " />
            <path fill="none" stroke-width="3.0" stroke-linecap="butt" stroke-opacity="1.0" stroke="rgb(0, 0, 0)" stroke-linejoin="round" d=" M 102.545, 79.706 107.760, 80.240 111.460, 80.619 112.778, 80.942 122.492, 83.317 128.115, 84.692 137.719, 87.477 142.521, 88.869 142.702, 88.939 152.028, 92.548 155.363, 93.839 164.520, 97.860 166.517, 98.737 174.889, 102.815 181.343, 106.436 184.735, 108.986 186.417, 110.250 187.554, 112.052 187.968, 112.707 188.305, 113.241 188.561, 115.036 188.671, 115.803 187.633, 116.468 187.235, 116.722 186.134, 117.427 " />
            <path fill="none" stroke-width="3.0" stroke-linecap="butt" stroke-opacity="1.0" stroke="rgb(0, 0, 0)" stroke-linejoin="round" d=" M 99.125, 76.261 100.169, 74.769 102.923, 70.828 103.534, 68.735 103.927, 67.388 104.265, 66.230 104.506, 65.404 104.943, 63.906 105.259, 62.822 105.343, 62.536 105.879, 56.121 105.867, 54.220 105.860, 53.171 105.851, 51.703 105.848, 51.339 " />
            <path fill="none" stroke-width="3.0" stroke-linecap="butt" stroke-opacity="1.0" stroke="rgb(0, 0, 0)" stroke-linejoin="round" d=" M 76.872, 71.034 80.422, 73.357 83.109, 74.659 83.645, 74.918 84.704, 75.432 85.577, 75.855 93.099, 77.413 99.125, 76.261 99.473, 76.680 100.331, 77.714 101.995, 79.038 102.793, 79.306 103.448, 79.525 " />
            <path fill="none" stroke-width="3.0" stroke-linecap="butt" stroke-opacity="1.0" stroke="rgb(0, 0, 0)" stroke-linejoin="round" d=" M 54.200, 77.413 53.878, 76.035 " />
            <path fill="none" stroke-width="3.0" stroke-linecap="butt" stroke-opacity="1.0" stroke="rgb(0, 0, 0)" stroke-linejoin="round" d=" M 79.896, 73.900 77.629, 72.351 76.872, 71.034 72.525, 73.341 66.645, 75.767 62.020, 76.636 59.016, 77.200 53.878, 76.035 52.257, 70.861 " />
            <path fill="none" stroke-width="3.0" stroke-linecap="butt" stroke-opacity="1.0" stroke="rgb(0, 0, 0)" stroke-linejoin="round" d=" M 110.679, 58.826 110.892, 58.527 110.913, 58.498 111.171, 58.135 114.200, 53.877 114.478, 53.476 117.631, 48.920 118.880, 47.116 122.550, 41.457 122.764, 40.674 124.094, 35.799 124.145, 32.610 122.961, 30.337 119.479, 26.078 114.203, 23.639 111.267, 22.518 105.526, 21.410 103.081, 21.148 101.139, 20.940 " />
            <path fill="none" stroke-width="3.0" stroke-linecap="butt" stroke-opacity="1.0" stroke="rgb(0, 0, 0)" stroke-linejoin="round" d=" M 55.986, 52.648 53.304, 48.825 50.310, 43.761 48.887, 38.351 49.358, 32.837 53.713, 28.614 60.755, 25.061 66.450, 23.434 70.765, 22.535 73.358, 18.532 77.249, 13.336 83.331, 7.537 88.742, 4.834 93.358, 6.858 97.629, 12.073 99.850, 17.031 101.139, 20.940 " />
            <path fill="none" stroke-width="3.0" stroke-linecap="butt" stroke-opacity="1.0" stroke="rgb(0, 0, 0)" stroke-linejoin="round" d=" M 108.982, 54.457 107.574, 52.786 107.187, 52.328 105.967, 51.427 105.848, 51.339 106.093, 51.127 106.729, 50.576 110.378, 47.412 110.830, 46.945 115.833, 41.770 116.292, 41.053 119.673, 35.775 121.350, 29.782 117.943, 25.606 111.267, 22.518 " />
            <path fill="none" stroke-width="3.0" stroke-linecap="butt" stroke-opacity="1.0" stroke="rgb(0, 0, 0)" stroke-linejoin="round" d=" M 103.081, 21.148 102.179, 18.843 99.695, 14.014 98.271, 11.705 94.387, 6.973 89.682, 4.912 88.742, 4.834 " />
            <path fill="none" stroke-width="3.0" stroke-linecap="butt" stroke-opacity="1.0" stroke="rgb(0, 0, 0)" stroke-linejoin="round" d=" M 53.304, 48.825 56.083, 52.375 " />
            <path fill="none" stroke-width="3.0" stroke-linecap="butt" stroke-opacity="1.0" stroke="rgb(0, 0, 0)" stroke-linejoin="round" d=" M 191.357, 103.450 188.454, 93.880 186.393, 87.088 185.389, 86.019 184.180, 81.678 179.327, 72.935 178.069, 70.667 171.532, 63.099 170.422, 61.814 164.742, 56.277 156.771, 50.239 156.426, 49.978 149.205, 46.104 142.941, 43.977 138.092, 42.390 137.120, 42.072 130.670, 40.919 126.699, 40.751 124.313, 40.650 122.764, 40.674 " />
            <path fill="none" stroke-width="3.0" stroke-linecap="butt" stroke-opacity="1.0" stroke="rgb(0, 0, 0)" stroke-linejoin="round" d=" M 79.896, 73.900 81.926, 75.074 82.819, 75.590 82.867, 75.618 83.637, 76.063 84.623, 76.633 84.772, 76.720 88.122, 78.045 89.744, 78.687 89.854, 78.730 90.689, 79.061 90.797, 79.104 92.248, 79.444 94.330, 79.891 97.855, 80.647 100.479, 80.121 102.545, 79.706 103.448, 79.525 103.564, 79.359 104.286, 78.327 106.603, 75.014 106.833, 74.684 107.391, 73.887 108.657, 70.124 108.834, 69.597 109.172, 67.831 109.469, 66.273 109.579, 65.696 110.253, 62.167 110.679, 58.826 110.742, 58.331 110.776, 58.067 110.849, 57.496 110.903, 57.068 " />
            <path fill="none" stroke-width="3.0" stroke-linecap="butt" stroke-opacity="1.0" stroke="rgb(0, 0, 0)" stroke-linejoin="round" d=" M 186.521, 100.389 183.110, 97.502 174.701, 93.669 166.832, 90.082 161.527, 88.560 " />
            <path fill="none" stroke-width="3.0" stroke-linecap="butt" stroke-opacity="1.0" stroke="rgb(0, 0, 0)" stroke-linejoin="round" d=" M 121.283, 66.372 119.725, 66.282 " />
            <path fill="none" stroke-width="3.0" stroke-linecap="butt" stroke-opacity="1.0" stroke="rgb(0, 0, 0)" stroke-linejoin="round" d=" M 121.283, 66.372 131.161, 67.932 141.038, 69.492 145.059, 70.127 " />
            <path fill="none" stroke-width="3.0" stroke-linecap="butt" stroke-opacity="1.0" stroke="rgb(0, 0, 0)" stroke-linejoin="round" d=" M 138.092, 42.390 137.582, 41.698 134.244, 40.300 130.186, 39.850 127.018, 40.526 126.699, 40.751 " />
            <path fill="none" stroke-width="3.0" stroke-linecap="butt" stroke-opacity="1.0" stroke="rgb(0, 0, 0)" stroke-linejoin="round" d=" M 207.174, 135.237 208.981, 134.163 209.847, 130.456 209.692, 123.473 205.862, 117.985 200.083, 110.894 192.475, 104.404 191.357, 103.450 190.533, 102.747 186.521, 100.389 185.100, 99.555 176.231, 95.537 172.162, 93.693 " />
            <path fill="none" stroke-width="3.0" stroke-linecap="butt" stroke-opacity="1.0" stroke="rgb(0, 0, 0)" stroke-linejoin="round" d=" M 199.377, 119.927 207.208, 126.147 208.763, 127.382 208.981, 134.163 " />
            <path fill="none" stroke-width="3.0" stroke-linecap="butt" stroke-opacity="1.0" stroke="rgb(0, 0, 0)" stroke-linejoin="round" d=" M 44.580, 90.129 43.552, 90.903 38.087, 94.957 32.023, 101.134 31.586, 104.786 " />
            <path fill="none" stroke-width="3.0" stroke-linecap="butt" stroke-opacity="1.0" stroke="rgb(0, 0, 0)" stroke-linejoin="round" d=" M 209.692, 123.473 201.976, 117.112 199.425, 115.009 " />
            <path fill="none" stroke-width="3.0" stroke-linecap="butt" stroke-opacity="1.0" stroke="rgb(0, 0, 0)" stroke-linejoin="round" d=" M 60.173, 79.479 59.170, 81.022 " />
            <path fill="none" stroke-width="3.0" stroke-linecap="butt" stroke-opacity="1.0" stroke="rgb(0, 0, 0)" stroke-linejoin="round" d=" M 107.270, 75.039 107.424, 74.524 108.736, 70.123 " />
            <path fill="none" stroke-width="3.0" stroke-linecap="butt" stroke-opacity="1.0" stroke="rgb(0, 0, 0)" stroke-linejoin="round" d=" M 108.657, 70.124 108.736, 70.123 110.904, 70.077 " />
            <path fill="none" stroke-width="3.0" stroke-linecap="butt" stroke-opacity="1.0" stroke="rgb(0, 0, 0)" stroke-linejoin="round" d=" M 197.015, 122.446 201.649, 126.006 " />
        </g>
    </g>
</svg>
