<?xml version='1.0' encoding='ascii'?>
<svg xmlns="http://www.w3.org/2000/svg" version="1.1" width="250" height="250">
    <g id="ViewLayer_LineSet" xmlns:inkscape="http://www.inkscape.org/namespaces/inkscape" inkscape:groupmode="lineset" inkscape:label="ViewLayer_LineSet">
        <g xmlns:inkscape="http://www.inkscape.org/namespaces/inkscape" inkscape:groupmode="layer" id="strokes" inkscape:label="strokes">
            <path fill="none" stroke-width="3.0" stroke-linecap="butt" stroke-opacity="1.0" stroke="rgb(0, 0, 0)" stroke-linejoin="round" d=" M 58.641, 169.860 59.965, 172.871 61.983, 177.460 67.447, 185.835 68.021, 186.715 74.808, 194.059 75.408, 194.707 77.312, 196.420 " />
            <path fill="none" stroke-width="3.0" stroke-linecap="butt" stroke-opacity="1.0" stroke="rgb(0, 0, 0)" stroke-linejoin="round" d=" M 142.928, 212.176 145.883, 211.519 150.174, 210.093 158.475, 206.180 162.458, 204.089 169.984, 198.658 170.852, 198.031 173.481, 195.439 180.438, 188.255 181.075, 187.597 186.744, 179.359 187.343, 178.488 188.392, 176.243 192.087, 168.335 " />
            <path fill="none" stroke-width="3.0" stroke-linecap="butt" stroke-opacity="1.0" stroke="rgb(0, 0, 0)" stroke-linejoin="round" d=" M 96.954, 177.315 90.848, 180.459 86.013, 184.106 79.875, 191.691 77.312, 196.420 76.268, 198.346 73.802, 203.508 72.082, 211.721 71.471, 216.150 71.806, 220.254 72.363, 228.024 73.331, 231.563 74.427, 234.187 75.775, 237.956 78.257, 241.456 81.802, 243.075 86.550, 244.212 91.424, 244.692 97.946, 244.932 103.122, 244.740 108.021, 244.191 114.088, 242.984 119.271, 241.389 122.818, 239.437 130.734, 233.326 131.232, 232.942 133.868, 230.163 137.932, 222.486 139.496, 219.362 139.701, 218.934 142.928, 212.176 143.250, 211.502 144.722, 205.452 145.550, 201.899 145.268, 198.480 144.533, 193.348 143.109, 189.433 140.920, 185.548 136.577, 180.955 " />
            <path fill="none" stroke-width="3.0" stroke-linecap="butt" stroke-opacity="1.0" stroke="rgb(0, 0, 0)" stroke-linejoin="round" d=" M 139.701, 218.934 144.919, 219.274 149.851, 218.839 154.278, 218.095 159.515, 216.175 163.669, 213.181 165.521, 211.246 168.457, 206.961 169.460, 204.504 169.761, 201.109 169.984, 198.658 " />
            <path fill="none" stroke-width="3.0" stroke-linecap="butt" stroke-opacity="1.0" stroke="rgb(0, 0, 0)" stroke-linejoin="round" d=" M 39.571, 132.694 39.513, 132.749 36.096, 136.449 32.896, 140.724 31.170, 143.217 29.564, 146.545 28.596, 149.676 28.188, 151.745 27.854, 154.460 27.960, 156.892 28.271, 158.748 29.086, 162.055 30.677, 165.561 33.242, 168.846 35.573, 170.985 37.081, 172.100 37.927, 172.649 39.521, 173.476 41.425, 174.206 44.145, 174.955 47.166, 175.376 50.325, 175.160 53.718, 174.764 57.519, 173.892 59.965, 172.871 " />
            <path fill="none" stroke-width="3.0" stroke-linecap="butt" stroke-opacity="1.0" stroke="rgb(0, 0, 0)" stroke-linejoin="round" d=" M 188.392, 176.243 191.049, 177.422 195.073, 178.654 199.168, 179.243 202.695, 179.086 205.920, 178.454 208.863, 177.304 209.856, 176.885 212.492, 175.266 214.858, 173.265 216.836, 170.774 217.375, 169.925 218.915, 167.198 219.977, 164.241 220.518, 161.001 220.569, 157.493 219.841, 153.437 218.456, 149.471 216.398, 145.316 214.721, 142.980 " />
            <path fill="none" stroke-width="3.0" stroke-linecap="butt" stroke-opacity="1.0" stroke="rgb(0, 0, 0)" stroke-linejoin="round" d=" M 57.110, 94.215 52.040, 98.989 49.600, 101.287 42.488, 107.984 42.486, 107.986 38.190, 112.343 37.654, 115.874 36.361, 124.387 36.803, 127.981 39.571, 132.694 44.636, 141.316 44.856, 141.691 52.964, 147.544 53.616, 148.015 61.724, 153.868 63.531, 155.173 72.827, 158.860 77.779, 160.824 87.074, 164.511 91.553, 166.288 101.362, 168.235 111.171, 170.181 114.606, 170.862 124.415, 172.809 125.177, 172.960 135.172, 173.286 145.167, 173.612 155.161, 173.938 157.631, 174.019 158.200, 173.923 168.062, 172.267 177.924, 170.611 179.342, 170.373 184.891, 169.441 192.805, 165.773 201.878, 161.569 204.413, 160.394 210.614, 152.549 213.602, 148.769 214.819, 145.074 214.721, 142.980 214.246, 132.893 211.437, 128.075 206.785, 121.350 200.868, 113.289 199.366, 111.242 198.498, 110.640 " />
            <path fill="none" stroke-width="3.0" stroke-linecap="butt" stroke-opacity="1.0" stroke="rgb(0, 0, 0)" stroke-linejoin="round" d=" M 61.377, 90.714 59.228, 91.778 53.613, 95.909 49.387, 99.800 44.076, 104.525 39.129, 109.992 37.170, 114.139 37.654, 115.874 " />
            <path fill="none" stroke-width="3.0" stroke-linecap="butt" stroke-opacity="1.0" stroke="rgb(0, 0, 0)" stroke-linejoin="round" d=" M 95.784, 42.730 95.740, 42.735 92.299, 43.157 87.768, 44.024 86.326, 44.539 81.942, 46.386 78.638, 49.540 78.881, 53.973 80.323, 57.036 82.747, 60.794 83.189, 61.320 " />
            <path fill="none" stroke-width="3.0" stroke-linecap="butt" stroke-opacity="1.0" stroke="rgb(0, 0, 0)" stroke-linejoin="round" d=" M 119.610, 43.145 118.632, 40.756 116.581, 36.818 116.045, 36.014 112.852, 31.891 109.075, 29.756 104.890, 31.470 100.844, 35.257 100.183, 35.954 97.472, 39.795 95.740, 42.735 " />
            <path fill="none" stroke-width="3.0" stroke-linecap="butt" stroke-opacity="1.0" stroke="rgb(0, 0, 0)" stroke-linejoin="round" d=" M 126.537, 42.698 123.675, 42.693 119.610, 43.145 118.702, 43.246 118.643, 43.264 109.052, 46.093 108.456, 46.269 102.977, 48.015 94.230, 52.861 91.550, 54.347 83.870, 60.752 83.416, 61.131 83.415, 61.132 83.189, 61.320 82.442, 61.943 77.624, 66.426 71.345, 74.209 69.098, 76.994 66.595, 81.981 66.412, 82.347 " />
            <path fill="none" stroke-width="3.0" stroke-linecap="butt" stroke-opacity="1.0" stroke="rgb(0, 0, 0)" stroke-linejoin="round" d=" M 109.075, 29.756 109.818, 30.823 110.599, 33.232 " />
            <path fill="none" stroke-width="3.0" stroke-linecap="butt" stroke-opacity="1.0" stroke="rgb(0, 0, 0)" stroke-linejoin="round" d=" M 95.784, 42.730 96.704, 43.891 " />
            <path fill="none" stroke-width="3.0" stroke-linecap="butt" stroke-opacity="1.0" stroke="rgb(0, 0, 0)" stroke-linejoin="round" d=" M 78.638, 49.540 79.501, 50.529 81.573, 52.123 " />
            <path fill="none" stroke-width="3.0" stroke-linecap="butt" stroke-opacity="1.0" stroke="rgb(0, 0, 0)" stroke-linejoin="round" d=" M 66.595, 81.981 65.028, 83.368 61.377, 90.714 60.312, 92.858 59.307, 94.881 58.927, 95.646 57.619, 98.276 57.593, 98.330 57.425, 101.725 57.387, 102.476 57.311, 104.019 57.257, 105.111 57.155, 107.161 60.318, 111.367 64.449, 116.861 72.948, 122.130 79.669, 126.296 89.091, 129.647 98.512, 132.998 100.468, 133.693 101.585, 134.091 110.566, 135.782 120.393, 137.632 127.406, 138.952 137.397, 139.387 147.387, 139.821 153.300, 140.078 162.123, 139.019 172.052, 137.828 175.453, 137.419 184.832, 133.951 191.103, 131.632 194.916, 127.855 196.809, 125.978 199.020, 123.789 199.029, 123.539 199.063, 122.605 199.102, 121.556 199.145, 120.395 199.285, 116.602 199.343, 115.026 198.498, 110.640 196.608, 100.820 195.915, 97.224 194.699, 95.797 " />
            <path fill="none" stroke-width="3.0" stroke-linecap="butt" stroke-opacity="1.0" stroke="rgb(0, 0, 0)" stroke-linejoin="round" d=" M 188.996, 110.197 188.957, 110.209 182.144, 112.154 180.672, 112.574 174.631, 114.299 164.669, 115.170 154.707, 116.041 154.268, 116.080 144.281, 115.572 134.294, 115.064 130.330, 114.862 " />
            <path fill="none" stroke-width="3.0" stroke-linecap="butt" stroke-opacity="1.0" stroke="rgb(0, 0, 0)" stroke-linejoin="round" d=" M 194.756, 96.046 194.699, 95.797 193.799, 91.868 189.706, 82.743 188.349, 79.717 182.558, 71.564 180.796, 69.082 177.196, 64.705 169.991, 57.770 168.069, 55.920 159.514, 50.741 157.394, 49.457 154.009, 47.550 149.049, 45.788 147.488, 45.409 " />
            <path fill="none" stroke-width="3.0" stroke-linecap="butt" stroke-opacity="1.0" stroke="rgb(0, 0, 0)" stroke-linejoin="round" d=" M 148.147, 47.241 146.124, 48.652 140.376, 49.003 133.146, 48.123 129.052, 46.879 127.376, 46.370 126.864, 45.893 125.326, 44.460 " />
            <path fill="none" stroke-width="3.0" stroke-linecap="butt" stroke-opacity="1.0" stroke="rgb(0, 0, 0)" stroke-linejoin="round" d=" M 148.147, 47.241 147.488, 45.409 147.265, 44.789 144.899, 41.293 143.406, 40.110 139.700, 39.049 137.691, 38.606 135.173, 38.495 131.480, 38.652 130.011, 39.473 126.814, 42.294 126.537, 42.698 125.326, 44.460 " />
            <path fill="none" stroke-width="3.0" stroke-linecap="butt" stroke-opacity="1.0" stroke="rgb(0, 0, 0)" stroke-linejoin="round" d=" M 44.365, 137.835 40.672, 131.631 36.361, 124.387 " />
        </g>
    </g>
</svg>
