<?xml version='1.0' encoding='ascii'?>
<svg xmlns="http://www.w3.org/2000/svg" version="1.1" width="250" height="250">
    <g id="ViewLayer_LineSet" xmlns:inkscape="http://www.inkscape.org/namespaces/inkscape" inkscape:groupmode="lineset" inkscape:label="ViewLayer_LineSet">
        <g xmlns:inkscape="http://www.inkscape.org/namespaces/inkscape" inkscape:groupmode="layer" id="strokes" inkscape:label="strokes">
            <path fill="none" stroke-width="3.0" stroke-linecap="butt" stroke-opacity="1.0" stroke="rgb(0, 0, 0)" stroke-linejoin="round" d=" M 59.824, 95.375 59.350, 95.971 57.966, 97.712 53.729, 104.840 49.917, 113.525 49.230, 115.748 48.297, 118.765 48.198, 119.084 47.462, 121.466 47.247, 122.160 45.993, 128.287 45.448, 134.638 45.223, 139.187 45.452, 144.806 45.932, 149.344 46.793, 153.942 47.641, 157.918 48.928, 162.240 50.593, 166.716 51.459, 168.666 52.563, 171.154 54.754, 175.360 57.071, 179.151 59.413, 182.352 62.348, 186.288 65.335, 189.535 67.958, 192.161 69.450, 193.655 73.964, 197.142 78.080, 200.317 84.049, 203.903 89.790, 206.527 93.602, 208.149 98.515, 209.531 105.048, 211.154 105.504, 211.239 " />
            <path fill="none" stroke-width="3.0" stroke-linecap="butt" stroke-opacity="1.0" stroke="rgb(0, 0, 0)" stroke-linejoin="round" d=" M 189.971, 123.240 188.926, 118.348 188.554, 117.387 " />
            <path fill="none" stroke-width="3.0" stroke-linecap="butt" stroke-opacity="1.0" stroke="rgb(0, 0, 0)" stroke-linejoin="round" d=" M 172.393, 188.683 174.500, 186.494 176.497, 183.697 181.230, 176.737 " />
            <path fill="none" stroke-width="3.0" stroke-linecap="butt" stroke-opacity="1.0" stroke="rgb(0, 0, 0)" stroke-linejoin="round" d=" M 77.110, 147.138 77.665, 148.537 79.029, 150.604 79.650, 151.145 80.926, 152.259 83.123, 153.481 85.166, 153.919 87.263, 153.841 89.639, 153.007 91.690, 151.671 93.240, 149.817 93.956, 148.498 " />
            <path fill="none" stroke-width="3.0" stroke-linecap="butt" stroke-opacity="1.0" stroke="rgb(0, 0, 0)" stroke-linejoin="round" d=" M 117.416, 97.690 118.036, 99.767 118.061, 99.849 118.514, 103.231 118.554, 107.048 118.570, 107.117 117.451, 115.519 117.149, 116.552 117.111, 116.683 116.223, 119.725 114.717, 124.011 112.961, 128.007 111.018, 131.519 108.956, 134.374 107.409, 135.879 107.035, 136.244 106.846, 136.428 104.758, 137.578 102.767, 137.765 101.432, 137.186 100.945, 136.975 99.366, 135.242 99.121, 134.741 98.875, 134.236 98.099, 132.646 97.205, 129.308 96.732, 125.389 96.710, 121.078 97.146, 116.582 97.906, 112.679 97.940, 112.504 98.003, 112.177 99.207, 108.021 100.729, 104.124 102.510, 100.628 104.480, 97.657 105.577, 96.422 " />
            <path fill="none" stroke-width="3.0" stroke-linecap="butt" stroke-opacity="1.0" stroke="rgb(0, 0, 0)" stroke-linejoin="round" d=" M 77.311, 115.565 76.543, 118.931 76.332, 119.854 75.248, 123.962 74.071, 127.689 73.919, 128.068 73.762, 128.462 72.808, 130.846 71.468, 133.275 70.063, 134.855 68.872, 135.398 68.623, 135.512 67.211, 135.515 65.834, 133.988 64.625, 131.894 63.649, 129.043 62.986, 125.582 62.959, 125.213 62.926, 124.753 62.703, 121.684 62.841, 117.537 63.107, 115.565 63.400, 113.397 64.267, 109.407 65.386, 105.569 66.712, 102.021 67.028, 101.351 67.282, 100.812 68.191, 98.885 69.765, 96.266 70.798, 94.973 " />
            <path fill="none" stroke-width="3.0" stroke-linecap="butt" stroke-opacity="1.0" stroke="rgb(0, 0, 0)" stroke-linejoin="round" d=" M 67.211, 135.515 70.418, 136.952 " />
            <path fill="none" stroke-width="3.0" stroke-linecap="butt" stroke-opacity="1.0" stroke="rgb(0, 0, 0)" stroke-linejoin="round" d=" M 77.754, 94.718 77.875, 94.931 78.528, 97.223 78.889, 100.122 78.998, 103.598 78.763, 106.436 78.737, 106.751 78.689, 107.327 " />
            <path fill="none" stroke-width="3.0" stroke-linecap="butt" stroke-opacity="1.0" stroke="rgb(0, 0, 0)" stroke-linejoin="round" d=" M 80.421, 117.567 77.311, 115.565 78.136, 111.369 78.689, 107.327 81.759, 109.422 " />
            <path fill="none" stroke-width="3.0" stroke-linecap="butt" stroke-opacity="1.0" stroke="rgb(0, 0, 0)" stroke-linejoin="round" d=" M 147.985, 245.319 149.277, 245.225 155.021, 244.103 158.850, 242.281 163.384, 238.289 166.159, 235.569 172.432, 227.713 176.534, 220.190 178.050, 216.918 178.595, 213.477 179.752, 207.243 179.484, 203.345 176.735, 194.525 174.190, 190.600 172.393, 188.683 " />
            <path fill="none" stroke-width="3.0" stroke-linecap="butt" stroke-opacity="1.0" stroke="rgb(0, 0, 0)" stroke-linejoin="round" d=" M 107.410, 206.281 105.727, 210.610 105.504, 211.239 103.257, 217.585 102.210, 221.709 101.941, 225.590 102.162, 228.186 102.241, 229.118 102.335, 232.044 103.338, 235.557 105.532, 238.919 108.286, 241.971 112.497, 244.416 118.103, 245.933 123.497, 246.778 129.869, 246.917 132.416, 246.932 140.700, 246.554 147.985, 245.319 148.308, 245.264 " />
            <path fill="none" stroke-width="3.0" stroke-linecap="butt" stroke-opacity="1.0" stroke="rgb(0, 0, 0)" stroke-linejoin="round" d=" M 67.958, 192.161 67.255, 193.434 65.633, 197.336 63.420, 203.430 62.660, 206.991 62.357, 211.593 62.193, 214.953 62.720, 217.811 64.464, 222.429 65.674, 225.186 69.050, 228.638 73.422, 231.372 75.912, 232.127 80.151, 233.395 84.710, 233.622 90.707, 232.968 96.699, 230.987 102.162, 228.186 " />
            <path fill="none" stroke-width="3.0" stroke-linecap="butt" stroke-opacity="1.0" stroke="rgb(0, 0, 0)" stroke-linejoin="round" d=" M 179.515, 175.821 181.230, 176.737 185.587, 179.065 190.402, 180.717 194.911, 181.674 199.422, 181.915 203.233, 181.398 206.702, 180.395 209.844, 178.869 212.711, 176.863 215.251, 174.463 217.372, 171.519 217.660, 170.968 219.240, 167.875 220.283, 164.467 220.713, 160.837 220.562, 156.987 219.520, 152.583 217.690, 148.325 215.034, 143.881 210.649, 138.478 206.576, 134.327 206.139, 133.882 206.111, 133.854 201.664, 129.838 196.976, 126.554 191.894, 123.959 189.971, 123.240 " />
            <path fill="none" stroke-width="3.0" stroke-linecap="butt" stroke-opacity="1.0" stroke="rgb(0, 0, 0)" stroke-linejoin="round" d=" M 47.462, 121.466 46.824, 121.892 43.086, 124.740 39.607, 128.165 36.075, 132.034 32.750, 136.470 30.934, 140.097 29.750, 143.563 29.223, 145.394 28.700, 148.534 28.804, 151.217 28.892, 152.313 29.186, 153.865 29.670, 155.629 30.789, 158.437 32.635, 161.436 34.914, 163.848 37.321, 165.681 39.409, 166.952 41.411, 167.788 43.013, 168.244 45.804, 168.943 49.156, 169.030 51.459, 168.666 " />
            <path fill="none" stroke-width="3.0" stroke-linecap="butt" stroke-opacity="1.0" stroke="rgb(0, 0, 0)" stroke-linejoin="round" d=" M 118.729, 65.761 119.551, 65.124 119.699, 64.821 119.737, 64.743 121.405, 61.323 122.391, 58.749 122.372, 55.059 121.355, 52.363 119.448, 48.668 117.601, 47.329 " />
            <path fill="none" stroke-width="3.0" stroke-linecap="butt" stroke-opacity="1.0" stroke="rgb(0, 0, 0)" stroke-linejoin="round" d=" M 56.074, 50.752 55.976, 51.030 54.458, 55.312 52.817, 61.394 52.247, 69.229 52.537, 70.513 54.190, 75.781 56.682, 77.064 60.327, 77.893 61.832, 78.235 62.249, 78.288 65.720, 78.734 71.736, 77.659 77.305, 76.227 82.842, 74.006 82.904, 73.980 " />
            <path fill="none" stroke-width="3.0" stroke-linecap="butt" stroke-opacity="1.0" stroke="rgb(0, 0, 0)" stroke-linejoin="round" d=" M 33.783, 108.106 31.570, 103.412 32.751, 102.217 37.454, 97.457 42.079, 96.214 50.160, 94.042 53.158, 93.236 56.071, 93.115 58.920, 92.997 61.809, 92.878 71.801, 92.463 74.308, 92.360 74.812, 92.339 79.969, 92.125 89.940, 92.880 99.911, 93.635 107.944, 94.243 113.721, 94.680 116.161, 95.108 116.186, 95.113 126.035, 96.841 135.885, 98.570 145.734, 100.298 147.747, 100.651 157.399, 103.267 167.050, 105.882 176.702, 108.498 177.187, 108.629 178.224, 109.067 178.387, 109.136 183.157, 111.153 " />
            <path fill="none" stroke-width="3.0" stroke-linecap="butt" stroke-opacity="1.0" stroke="rgb(0, 0, 0)" stroke-linejoin="round" d=" M 206.139, 133.882 206.774, 133.494 206.412, 126.913 199.983, 121.862 198.003, 120.307 " />
            <path fill="none" stroke-width="3.0" stroke-linecap="butt" stroke-opacity="1.0" stroke="rgb(0, 0, 0)" stroke-linejoin="round" d=" M 44.948, 98.626 54.687, 96.356 58.714, 95.417 58.719, 95.416 " />
            <path fill="none" stroke-width="3.0" stroke-linecap="butt" stroke-opacity="1.0" stroke="rgb(0, 0, 0)" stroke-linejoin="round" d=" M 38.806, 113.082 45.637, 117.651 47.118, 118.633 48.198, 119.084 " />
            <path fill="none" stroke-width="3.0" stroke-linecap="butt" stroke-opacity="1.0" stroke="rgb(0, 0, 0)" stroke-linejoin="round" d=" M 55.959, 95.517 46.224, 97.804 45.758, 97.914 41.085, 99.012 39.783, 99.318 33.772, 105.056 34.537, 106.726 " />
            <path fill="none" stroke-width="3.0" stroke-linecap="butt" stroke-opacity="1.0" stroke="rgb(0, 0, 0)" stroke-linejoin="round" d=" M 55.959, 95.517 58.713, 95.416 58.719, 95.416 59.824, 95.375 60.587, 95.347 70.581, 94.981 70.798, 94.973 76.950, 94.748 77.754, 94.718 78.841, 94.678 81.516, 94.580 91.487, 95.344 101.458, 96.107 105.577, 96.422 110.554, 96.804 113.474, 97.027 117.416, 97.690 117.834, 97.760 117.869, 97.766 127.731, 99.423 137.593, 101.081 146.522, 102.581 146.815, 102.631 156.475, 105.218 166.134, 107.805 175.794, 110.392 179.376, 111.886 184.977, 114.222 " />
            <path fill="none" stroke-width="3.0" stroke-linecap="butt" stroke-opacity="1.0" stroke="rgb(0, 0, 0)" stroke-linejoin="round" d=" M 57.438, 80.309 49.147, 84.733 47.695, 85.508 47.248, 85.746 40.985, 89.884 36.178, 93.869 33.008, 97.136 31.195, 100.033 30.024, 103.110 30.017, 105.599 30.482, 107.785 34.814, 112.058 37.496, 113.539 38.806, 113.082 38.814, 113.079 40.760, 112.400 41.945, 111.591 43.619, 110.449 45.206, 105.348 " />
            <path fill="none" stroke-width="3.0" stroke-linecap="butt" stroke-opacity="1.0" stroke="rgb(0, 0, 0)" stroke-linejoin="round" d=" M 33.215, 109.380 30.482, 107.785 " />
            <path fill="none" stroke-width="3.0" stroke-linecap="butt" stroke-opacity="1.0" stroke="rgb(0, 0, 0)" stroke-linejoin="round" d=" M 43.619, 110.449 39.885, 107.956 " />
            <path fill="none" stroke-width="3.0" stroke-linecap="butt" stroke-opacity="1.0" stroke="rgb(0, 0, 0)" stroke-linejoin="round" d=" M 40.723, 105.728 39.885, 107.956 36.461, 108.919 " />
            <path fill="none" stroke-width="3.0" stroke-linecap="butt" stroke-opacity="1.0" stroke="rgb(0, 0, 0)" stroke-linejoin="round" d=" M 62.249, 78.288 59.251, 79.547 57.438, 80.309 50.480, 83.691 47.695, 85.508 " />
            <path fill="none" stroke-width="3.0" stroke-linecap="butt" stroke-opacity="1.0" stroke="rgb(0, 0, 0)" stroke-linejoin="round" d=" M 47.248, 85.746 47.472, 85.653 49.977, 84.611 50.217, 84.511 52.630, 83.507 55.725, 82.220 57.957, 81.538 67.360, 78.664 77.304, 77.605 79.325, 77.390 80.463, 77.268 81.838, 77.228 87.703, 77.053 89.768, 77.137 90.099, 77.151 " />
            <path fill="none" stroke-width="3.0" stroke-linecap="butt" stroke-opacity="1.0" stroke="rgb(0, 0, 0)" stroke-linejoin="round" d=" M 179.376, 111.886 180.093, 113.639 183.114, 115.044 183.433, 115.181 184.760, 115.753 188.554, 117.387 196.968, 121.012 197.024, 120.973 198.003, 120.307 198.711, 119.826 199.174, 119.512 199.423, 118.425 200.010, 115.863 197.105, 111.283 192.334, 106.658 190.605, 104.982 183.042, 99.514 180.883, 97.906 179.505, 96.880 176.886, 94.928 176.821, 94.880 172.525, 92.334 168.280, 89.818 161.875, 87.131 157.091, 85.124 156.642, 84.984 147.098, 82.000 144.372, 81.148 134.758, 78.397 131.569, 77.484 121.710, 75.813 118.702, 75.303 109.294, 73.783 107.503, 73.494 " />
            <path fill="none" stroke-width="3.0" stroke-linecap="butt" stroke-opacity="1.0" stroke="rgb(0, 0, 0)" stroke-linejoin="round" d=" M 102.344, 78.080 107.790, 78.633 111.474, 79.007 113.217, 79.432 122.932, 81.802 128.135, 83.071 137.740, 85.854 142.548, 87.247 143.056, 87.444 152.381, 91.056 155.396, 92.224 164.550, 96.248 166.553, 97.129 174.929, 101.216 181.385, 104.846 184.628, 107.290 186.461, 108.671 187.659, 110.573 188.123, 111.309 188.349, 111.669 188.645, 113.739 188.716, 114.237 187.610, 114.949 187.260, 115.175 186.178, 115.871 " />
            <path fill="none" stroke-width="3.0" stroke-linecap="butt" stroke-opacity="1.0" stroke="rgb(0, 0, 0)" stroke-linejoin="round" d=" M 99.135, 74.541 100.058, 73.221 102.934, 69.105 103.428, 67.413 103.886, 65.845 104.216, 64.717 104.461, 63.876 104.899, 62.376 105.269, 61.110 105.355, 60.816 105.892, 54.405 105.881, 52.718 105.874, 51.611 105.864, 50.105 105.861, 49.628 " />
            <path fill="none" stroke-width="3.0" stroke-linecap="butt" stroke-opacity="1.0" stroke="rgb(0, 0, 0)" stroke-linejoin="round" d=" M 76.872, 69.357 80.424, 71.672 83.158, 72.990 83.989, 73.391 85.089, 73.921 85.581, 74.158 93.106, 75.702 99.135, 74.541 99.739, 75.272 100.341, 75.999 102.005, 77.342 103.221, 77.771 103.459, 77.855 " />
            <path fill="none" stroke-width="3.0" stroke-linecap="butt" stroke-opacity="1.0" stroke="rgb(0, 0, 0)" stroke-linejoin="round" d=" M 54.190, 75.781 53.868, 74.395 " />
            <path fill="none" stroke-width="3.0" stroke-linecap="butt" stroke-opacity="1.0" stroke="rgb(0, 0, 0)" stroke-linejoin="round" d=" M 79.897, 72.250 77.629, 70.681 76.872, 69.357 72.523, 71.670 66.641, 74.104 62.250, 74.936 59.009, 75.550 53.868, 74.395 52.247, 69.229 " />
            <path fill="none" stroke-width="3.0" stroke-linecap="butt" stroke-opacity="1.0" stroke="rgb(0, 0, 0)" stroke-linejoin="round" d=" M 110.688, 57.204 110.872, 56.946 110.885, 56.927 111.149, 56.557 114.216, 52.243 114.463, 51.884 117.601, 47.329 118.898, 45.447 122.570, 39.784 122.693, 39.332 124.113, 34.128 124.165, 30.914 122.981, 28.623 119.497, 24.374 114.218, 21.947 111.281, 20.822 105.538, 19.726 103.077, 19.467 101.149, 19.264 " />
            <path fill="none" stroke-width="3.0" stroke-linecap="butt" stroke-opacity="1.0" stroke="rgb(0, 0, 0)" stroke-linejoin="round" d=" M 53.294, 47.210 52.557, 45.966 50.299, 42.156 48.876, 36.754 49.347, 31.244 53.704, 27.017 60.748, 23.454 66.445, 21.818 70.763, 20.913 73.356, 16.909 77.249, 11.710 83.333, 5.905 88.747, 3.195 93.364, 5.209 97.638, 10.411 99.859, 15.361 101.149, 19.264 " />
            <path fill="none" stroke-width="3.0" stroke-linecap="butt" stroke-opacity="1.0" stroke="rgb(0, 0, 0)" stroke-linejoin="round" d=" M 108.996, 52.774 107.471, 50.948 107.200, 50.623 106.016, 49.744 105.861, 49.628 106.183, 49.348 106.650, 48.944 110.392, 45.696 110.705, 45.373 115.850, 40.049 116.063, 39.716 119.691, 34.052 121.369, 28.062 117.961, 23.895 111.281, 20.822 " />
            <path fill="none" stroke-width="3.0" stroke-linecap="butt" stroke-opacity="1.0" stroke="rgb(0, 0, 0)" stroke-linejoin="round" d=" M 52.557, 45.966 52.579, 46.013 53.294, 47.210 55.976, 51.030 " />
            <path fill="none" stroke-width="3.0" stroke-linecap="butt" stroke-opacity="1.0" stroke="rgb(0, 0, 0)" stroke-linejoin="round" d=" M 103.077, 19.467 102.189, 17.200 99.704, 12.379 98.279, 10.052 94.394, 5.331 89.687, 3.280 88.747, 3.195 " />
            <path fill="none" stroke-width="3.0" stroke-linecap="butt" stroke-opacity="1.0" stroke="rgb(0, 0, 0)" stroke-linejoin="round" d=" M 53.294, 47.210 56.074, 50.752 " />
            <path fill="none" stroke-width="3.0" stroke-linecap="butt" stroke-opacity="1.0" stroke="rgb(0, 0, 0)" stroke-linejoin="round" d=" M 191.358, 101.944 188.451, 92.376 186.431, 85.726 185.426, 84.659 184.216, 80.322 179.357, 71.582 178.103, 69.325 171.558, 61.764 170.453, 60.488 164.772, 54.910 156.786, 48.891 156.453, 48.640 149.230, 44.742 142.963, 42.652 138.056, 41.039 137.140, 40.738 130.688, 39.583 126.789, 39.422 124.329, 39.320 122.693, 39.332 " />
            <path fill="none" stroke-width="3.0" stroke-linecap="butt" stroke-opacity="1.0" stroke="rgb(0, 0, 0)" stroke-linejoin="round" d=" M 79.897, 72.250 82.115, 73.526 82.858, 73.954 82.904, 73.980 83.880, 74.542 84.670, 74.996 84.776, 75.057 88.452, 76.503 90.021, 77.120 90.099, 77.151 90.803, 77.428 91.276, 77.548 92.254, 77.795 94.827, 78.342 97.864, 78.986 99.972, 78.560 102.344, 78.080 103.459, 77.855 103.504, 77.790 104.214, 76.776 106.535, 73.459 106.547, 73.441 107.404, 72.216 108.632, 68.570 108.848, 67.930 109.127, 66.470 109.455, 64.752 109.567, 64.166 110.267, 60.507 110.688, 57.204 110.738, 56.815 110.778, 56.504 110.848, 55.956 110.917, 55.412 " />
            <path fill="none" stroke-width="3.0" stroke-linecap="butt" stroke-opacity="1.0" stroke="rgb(0, 0, 0)" stroke-linejoin="round" d=" M 186.403, 98.832 183.149, 96.051 174.580, 92.114 166.866, 88.570 161.875, 87.131 " />
            <path fill="none" stroke-width="3.0" stroke-linecap="butt" stroke-opacity="1.0" stroke="rgb(0, 0, 0)" stroke-linejoin="round" d=" M 121.300, 64.832 119.737, 64.743 " />
            <path fill="none" stroke-width="3.0" stroke-linecap="butt" stroke-opacity="1.0" stroke="rgb(0, 0, 0)" stroke-linejoin="round" d=" M 121.300, 64.832 131.177, 66.398 141.053, 67.964 145.085, 68.603 " />
            <path fill="none" stroke-width="3.0" stroke-linecap="butt" stroke-opacity="1.0" stroke="rgb(0, 0, 0)" stroke-linejoin="round" d=" M 138.056, 41.039 137.601, 40.419 134.263, 39.014 130.203, 38.565 127.034, 39.249 126.789, 39.422 " />
            <path fill="none" stroke-width="3.0" stroke-linecap="butt" stroke-opacity="1.0" stroke="rgb(0, 0, 0)" stroke-linejoin="round" d=" M 206.576, 134.327 209.025, 132.846 209.892, 129.139 209.740, 122.060 205.908, 116.580 200.127, 109.501 192.552, 102.973 191.358, 101.944 190.576, 101.270 186.403, 98.832 185.141, 98.094 176.096, 93.964 172.525, 92.334 " />
            <path fill="none" stroke-width="3.0" stroke-linecap="butt" stroke-opacity="1.0" stroke="rgb(0, 0, 0)" stroke-linejoin="round" d=" M 199.423, 118.425 207.218, 124.689 208.811, 125.969 209.025, 132.846 " />
            <path fill="none" stroke-width="3.0" stroke-linecap="butt" stroke-opacity="1.0" stroke="rgb(0, 0, 0)" stroke-linejoin="round" d=" M 44.733, 88.551 43.540, 89.447 38.072, 93.489 32.008, 99.764 31.570, 103.412 " />
            <path fill="none" stroke-width="3.0" stroke-linecap="butt" stroke-opacity="1.0" stroke="rgb(0, 0, 0)" stroke-linejoin="round" d=" M 209.740, 122.060 202.059, 115.657 199.472, 113.500 " />
            <path fill="none" stroke-width="3.0" stroke-linecap="butt" stroke-opacity="1.0" stroke="rgb(0, 0, 0)" stroke-linejoin="round" d=" M 38.814, 113.079 47.118, 118.633 " />
            <path fill="none" stroke-width="3.0" stroke-linecap="butt" stroke-opacity="1.0" stroke="rgb(0, 0, 0)" stroke-linejoin="round" d=" M 60.327, 77.893 59.251, 79.547 " />
            <path fill="none" stroke-width="3.0" stroke-linecap="butt" stroke-opacity="1.0" stroke="rgb(0, 0, 0)" stroke-linejoin="round" d=" M 107.281, 73.486 107.360, 73.222 108.750, 68.568 " />
            <path fill="none" stroke-width="3.0" stroke-linecap="butt" stroke-opacity="1.0" stroke="rgb(0, 0, 0)" stroke-linejoin="round" d=" M 108.632, 68.570 108.750, 68.568 110.919, 68.541 " />
            <path fill="none" stroke-width="3.0" stroke-linecap="butt" stroke-opacity="1.0" stroke="rgb(0, 0, 0)" stroke-linejoin="round" d=" M 197.024, 120.973 201.694, 124.602 " />
        </g>
    </g>
</svg>
