<?xml version='1.0' encoding='ascii'?>
<svg xmlns="http://www.w3.org/2000/svg" version="1.1" width="250" height="250">
    <g id="ViewLayer_LineSet" xmlns:inkscape="http://www.inkscape.org/namespaces/inkscape" inkscape:groupmode="lineset" inkscape:label="ViewLayer_LineSet">
        <g xmlns:inkscape="http://www.inkscape.org/namespaces/inkscape" inkscape:groupmode="layer" id="strokes" inkscape:label="strokes">
            <path fill="none" stroke-width="3.0" stroke-linecap="butt" stroke-opacity="1.0" stroke="rgb(0, 0, 0)" stroke-linejoin="round" d=" M 45.766, 134.660 45.197, 140.671 45.279, 145.374 45.318, 147.587 46.002, 153.408 47.383, 160.259 48.685, 164.868 48.909, 165.519 51.079, 171.413 53.540, 176.667 56.141, 180.980 59.217, 185.751 60.550, 187.323 " />
            <path fill="none" stroke-width="3.0" stroke-linecap="butt" stroke-opacity="1.0" stroke="rgb(0, 0, 0)" stroke-linejoin="round" d=" M 137.429, 212.597 139.468, 212.136 143.781, 210.660 152.167, 206.672 156.153, 204.524 164.240, 198.642 164.613, 198.371 167.220, 195.726 169.178, 193.689 170.641, 192.167 " />
            <path fill="none" stroke-width="3.0" stroke-linecap="butt" stroke-opacity="1.0" stroke="rgb(0, 0, 0)" stroke-linejoin="round" d=" M 190.240, 145.340 190.250, 143.651 190.243, 143.522 " />
            <path fill="none" stroke-width="3.0" stroke-linecap="butt" stroke-opacity="1.0" stroke="rgb(0, 0, 0)" stroke-linejoin="round" d=" M 47.256, 142.933 47.465, 143.737 47.551, 144.686 47.675, 145.829 47.991, 147.415 48.479, 148.736 48.689, 149.207 49.305, 150.334 49.841, 150.923 " />
            <path fill="none" stroke-width="3.0" stroke-linecap="butt" stroke-opacity="1.0" stroke="rgb(0, 0, 0)" stroke-linejoin="round" d=" M 49.841, 150.923 50.529, 151.473 51.300, 151.562 52.245, 150.985 52.300, 150.911 52.935, 150.066 " />
            <path fill="none" stroke-width="3.0" stroke-linecap="butt" stroke-opacity="1.0" stroke="rgb(0, 0, 0)" stroke-linejoin="round" d=" M 53.637, 146.264 53.796, 146.674 53.912, 147.115 53.784, 147.770 53.416, 148.903 52.935, 150.066 52.750, 150.514 " />
            <path fill="none" stroke-width="3.0" stroke-linecap="butt" stroke-opacity="1.0" stroke="rgb(0, 0, 0)" stroke-linejoin="round" d=" M 72.977, 104.106 72.488, 106.363 72.341, 106.870 72.328, 106.912 71.494, 109.778 71.436, 109.977 71.487, 110.044 71.085, 111.135 70.473, 112.798 70.339, 113.163 70.216, 113.495 68.584, 117.929 66.640, 121.820 64.974, 125.377 64.795, 125.760 63.021, 129.396 61.357, 132.555 60.397, 134.138 59.827, 135.079 58.442, 136.846 57.211, 137.770 56.150, 137.807 55.442, 137.112 55.284, 136.956 54.652, 135.259 54.304, 132.796 54.290, 129.684 54.659, 126.070 55.438, 122.122 56.635, 118.023 58.197, 114.017 59.680, 110.844 59.964, 110.236 60.335, 109.544 60.498, 109.240 60.674, 108.912 61.766, 106.879 61.869, 106.686 62.541, 105.599 63.841, 103.494 64.187, 103.015 64.874, 102.063 64.910, 102.013 " />
            <path fill="none" stroke-width="3.0" stroke-linecap="butt" stroke-opacity="1.0" stroke="rgb(0, 0, 0)" stroke-linejoin="round" d=" M 49.196, 116.353 47.760, 120.151 46.532, 123.774 45.524, 127.045 44.725, 129.800 44.115, 131.898 43.666, 133.237 43.362, 133.751 43.161, 133.688 43.188, 132.275 43.359, 130.373 43.748, 127.820 44.391, 124.745 45.312, 121.302 46.516, 117.653 47.958, 114.019 49.478, 110.514 51.008, 107.137 51.588, 105.911 51.891, 105.273 52.489, 104.007 52.813, 103.355 52.964, 103.050 52.973, 103.031 53.864, 101.233 54.715, 99.604 " />
            <path fill="none" stroke-width="3.0" stroke-linecap="butt" stroke-opacity="1.0" stroke="rgb(0, 0, 0)" stroke-linejoin="round" d=" M 43.362, 133.751 43.400, 133.766 45.766, 134.660 " />
            <path fill="none" stroke-width="3.0" stroke-linecap="butt" stroke-opacity="1.0" stroke="rgb(0, 0, 0)" stroke-linejoin="round" d=" M 43.161, 133.688 43.400, 133.766 " />
            <path fill="none" stroke-width="3.0" stroke-linecap="butt" stroke-opacity="1.0" stroke="rgb(0, 0, 0)" stroke-linejoin="round" d=" M 56.018, 99.850 55.998, 99.903 54.960, 102.527 54.058, 104.886 54.018, 104.991 54.008, 105.018 53.761, 105.664 53.618, 105.988 53.323, 106.657 52.285, 109.011 " />
            <path fill="none" stroke-width="3.0" stroke-linecap="butt" stroke-opacity="1.0" stroke="rgb(0, 0, 0)" stroke-linejoin="round" d=" M 52.179, 117.552 50.047, 116.695 49.196, 116.353 50.759, 112.622 52.285, 109.011 53.282, 109.422 55.313, 110.260 " />
            <path fill="none" stroke-width="3.0" stroke-linecap="butt" stroke-opacity="1.0" stroke="rgb(0, 0, 0)" stroke-linejoin="round" d=" M 72.847, 186.988 65.127, 186.832 60.550, 187.323 58.676, 187.524 52.435, 189.873 48.155, 193.252 44.839, 197.310 42.637, 201.466 41.312, 206.217 42.278, 211.367 43.762, 213.030 48.540, 217.865 56.618, 223.759 57.734, 224.573 61.347, 226.815 66.658, 229.496 70.998, 231.336 79.388, 234.168 88.935, 237.145 93.303, 238.507 102.921, 241.246 106.363, 242.226 116.020, 244.620 121.924, 245.352 122.242, 245.357 127.261, 245.094 132.830, 242.695 136.479, 239.562 138.877, 236.076 140.543, 230.830 141.080, 225.250 140.596, 222.372 139.901, 218.239 139.323, 216.566 137.429, 212.597 135.976, 209.553 " />
            <path fill="none" stroke-width="3.0" stroke-linecap="butt" stroke-opacity="1.0" stroke="rgb(0, 0, 0)" stroke-linejoin="round" d=" M 140.596, 222.372 148.411, 217.350 155.189, 209.997 156.536, 208.536 163.194, 201.075 164.232, 199.911 164.923, 199.095 169.178, 193.689 " />
            <path fill="none" stroke-width="3.0" stroke-linecap="butt" stroke-opacity="1.0" stroke="rgb(0, 0, 0)" stroke-linejoin="round" d=" M 157.026, 185.591 163.136, 189.397 168.072, 191.452 170.382, 192.095 170.641, 192.167 172.752, 192.755 177.501, 193.297 181.554, 192.984 185.239, 192.126 188.519, 190.683 189.992, 189.997 192.902, 188.015 195.489, 185.589 196.299, 184.488 198.360, 181.561 199.961, 178.320 201.034, 174.790 201.506, 170.964 201.414, 166.835 200.402, 162.105 198.640, 157.510 196.097, 152.725 195.333, 151.722 194.787, 151.004 191.680, 146.922 190.240, 145.340 187.585, 142.427 " />
            <path fill="none" stroke-width="3.0" stroke-linecap="butt" stroke-opacity="1.0" stroke="rgb(0, 0, 0)" stroke-linejoin="round" d=" M 85.555, 69.558 88.285, 66.360 87.979, 57.962 86.957, 56.871 82.362, 51.965 80.793, 51.404 75.409, 51.367 73.186, 51.351 72.439, 51.346 72.179, 51.642 71.424, 52.499 70.489, 53.562 70.354, 53.716 70.151, 53.946 " />
            <path fill="none" stroke-width="3.0" stroke-linecap="butt" stroke-opacity="1.0" stroke="rgb(0, 0, 0)" stroke-linejoin="round" d=" M 63.237, 71.080 63.593, 70.228 63.692, 69.992 64.068, 69.091 64.145, 68.907 64.444, 68.190 64.660, 67.674 64.767, 67.416 64.782, 67.373 65.522, 65.171 65.605, 64.924 " />
            <path fill="none" stroke-width="3.0" stroke-linecap="butt" stroke-opacity="1.0" stroke="rgb(0, 0, 0)" stroke-linejoin="round" d=" M 34.707, 74.906 35.237, 76.939 36.235, 79.131 38.343, 80.866 39.730, 81.803 41.426, 82.324 43.535, 82.971 48.666, 83.403 48.888, 83.324 53.441, 81.699 54.212, 81.423 56.277, 80.671 56.510, 80.390 60.343, 75.773 61.878, 73.284 62.055, 72.997 63.237, 71.080 63.572, 70.210 63.660, 69.981 64.018, 69.050 64.083, 68.881 64.360, 68.161 64.563, 67.633 64.633, 67.451 64.696, 67.286 65.510, 65.172 65.536, 65.104 65.605, 64.924 65.943, 64.044 66.870, 61.820 67.839, 59.493 68.225, 58.578 68.393, 58.180 69.911, 54.578 69.959, 54.453 70.151, 53.946 70.255, 53.673 70.352, 53.418 70.803, 52.230 71.202, 51.176 71.686, 49.902 71.848, 49.474 71.885, 48.963 72.183, 44.780 72.385, 41.473 71.420, 39.722 70.050, 37.337 68.934, 35.394 64.839, 32.064 63.337, 31.140 61.155, 29.908 59.338, 28.899 57.592, 28.522 57.108, 28.439 55.694, 28.286 " />
            <path fill="none" stroke-width="3.0" stroke-linecap="butt" stroke-opacity="1.0" stroke="rgb(0, 0, 0)" stroke-linejoin="round" d=" M 27.572, 73.951 27.238, 75.044 26.458, 79.515 27.589, 80.706 28.874, 81.720 32.567, 82.806 37.931, 83.218 41.426, 82.324 " />
            <path fill="none" stroke-width="3.0" stroke-linecap="butt" stroke-opacity="1.0" stroke="rgb(0, 0, 0)" stroke-linejoin="round" d=" M 71.111, 74.908 69.130, 74.965 67.733, 73.770 66.796, 72.968 66.605, 72.805 63.593, 70.228 " />
            <path fill="none" stroke-width="3.0" stroke-linecap="butt" stroke-opacity="1.0" stroke="rgb(0, 0, 0)" stroke-linejoin="round" d=" M 51.588, 105.911 42.609, 101.510 41.710, 101.070 39.738, 99.404 35.382, 95.882 40.446, 95.202 45.632, 96.148 49.344, 96.825 55.606, 97.967 55.939, 98.028 56.630, 98.208 59.845, 99.045 60.829, 99.301 61.795, 99.552 63.781, 100.069 65.930, 100.629 72.818, 102.422 73.255, 102.536 79.316, 104.113 81.011, 104.555 90.595, 107.408 100.180, 110.261 109.764, 113.115 112.144, 113.823 121.641, 116.956 123.012, 117.409 123.718, 117.642 " />
            <path fill="none" stroke-width="3.0" stroke-linecap="butt" stroke-opacity="1.0" stroke="rgb(0, 0, 0)" stroke-linejoin="round" d=" M 195.333, 151.722 197.002, 152.060 204.077, 152.449 206.744, 152.283 207.486, 148.546 207.484, 145.925 205.252, 139.689 201.036, 131.166 196.111, 126.025 194.959, 125.290 194.555, 125.032 187.204, 120.338 186.846, 120.133 183.144, 118.016 181.973, 117.346 " />
            <path fill="none" stroke-width="3.0" stroke-linecap="butt" stroke-opacity="1.0" stroke="rgb(0, 0, 0)" stroke-linejoin="round" d=" M 204.077, 152.449 203.298, 150.089 199.865, 148.275 199.807, 148.245 193.060, 144.682 190.243, 143.522 187.585, 142.427 178.338, 138.619 172.988, 136.416 163.588, 133.004 154.188, 129.593 149.598, 127.927 146.697, 126.874 " />
            <path fill="none" stroke-width="3.0" stroke-linecap="butt" stroke-opacity="1.0" stroke="rgb(0, 0, 0)" stroke-linejoin="round" d=" M 43.523, 97.599 43.908, 97.563 " />
            <path fill="none" stroke-width="3.0" stroke-linecap="butt" stroke-opacity="1.0" stroke="rgb(0, 0, 0)" stroke-linejoin="round" d=" M 38.200, 97.930 41.710, 101.070 " />
            <path fill="none" stroke-width="3.0" stroke-linecap="butt" stroke-opacity="1.0" stroke="rgb(0, 0, 0)" stroke-linejoin="round" d=" M 43.262, 97.441 43.647, 97.514 43.908, 97.563 50.141, 98.740 50.387, 98.787 54.715, 99.604 56.018, 99.850 58.073, 100.238 58.809, 100.429 60.009, 100.741 61.266, 101.067 64.062, 101.793 64.835, 101.993 64.910, 102.013 71.655, 103.763 72.977, 104.106 78.989, 105.667 82.195, 106.499 91.777, 109.360 101.359, 112.221 110.941, 115.081 112.754, 115.623 122.252, 118.753 124.534, 119.506 " />
            <path fill="none" stroke-width="3.0" stroke-linecap="butt" stroke-opacity="1.0" stroke="rgb(0, 0, 0)" stroke-linejoin="round" d=" M 66.870, 61.820 67.008, 65.040 67.097, 67.106 68.114, 68.141 68.968, 69.012 69.082, 69.127 69.786, 69.845 69.957, 70.019 70.070, 70.133 70.664, 70.738 70.708, 70.783 71.463, 71.552 71.647, 71.740 72.133, 72.234 72.589, 72.698 73.349, 73.472 75.678, 73.420 80.256, 73.317 " />
            <path fill="none" stroke-width="3.0" stroke-linecap="butt" stroke-opacity="1.0" stroke="rgb(0, 0, 0)" stroke-linejoin="round" d=" M 64.767, 67.416 68.968, 69.012 " />
            <path fill="none" stroke-width="3.0" stroke-linecap="butt" stroke-opacity="1.0" stroke="rgb(0, 0, 0)" stroke-linejoin="round" d=" M 53.441, 81.699 54.457, 81.609 57.348, 81.865 58.891, 82.156 60.149, 82.393 61.875, 82.719 65.226, 83.350 65.663, 83.531 67.464, 84.275 69.016, 84.915 71.384, 85.893 72.162, 86.214 74.592, 87.217 83.755, 91.222 84.058, 91.354 92.924, 95.979 93.823, 96.448 102.549, 101.332 103.093, 101.637 110.647, 106.078 117.277, 110.099 122.880, 114.354 123.914, 115.646 125.506, 117.635 126.494, 120.152 126.588, 120.393 126.264, 122.026 " />
            <path fill="none" stroke-width="3.0" stroke-linecap="butt" stroke-opacity="1.0" stroke="rgb(0, 0, 0)" stroke-linejoin="round" d=" M 72.526, 78.084 67.429, 77.777 67.397, 77.781 63.703, 78.199 " />
            <path fill="none" stroke-width="3.0" stroke-linecap="butt" stroke-opacity="1.0" stroke="rgb(0, 0, 0)" stroke-linejoin="round" d=" M 124.534, 119.506 126.264, 122.026 135.791, 125.067 145.317, 128.108 146.733, 128.560 146.705, 127.019 146.697, 126.874 146.606, 125.227 146.487, 123.077 145.058, 121.066 144.442, 120.200 143.402, 118.736 142.818, 117.914 142.742, 117.825 142.454, 117.486 141.919, 116.855 136.803, 110.825 129.290, 104.726 123.209, 99.684 115.093, 94.271 106.271, 89.762 105.500, 89.368 97.442, 85.955 96.002, 85.346 87.158, 81.776 86.141, 81.516 80.880, 80.172 79.213, 79.746 76.272, 78.965 73.083, 78.117 " />
            <path fill="none" stroke-width="3.0" stroke-linecap="butt" stroke-opacity="1.0" stroke="rgb(0, 0, 0)" stroke-linejoin="round" d=" M 65.928, 73.811 62.936, 73.879 62.055, 72.997 " />
            <path fill="none" stroke-width="3.0" stroke-linecap="butt" stroke-opacity="1.0" stroke="rgb(0, 0, 0)" stroke-linejoin="round" d=" M 40.500, 79.399 41.395, 77.718 43.164, 74.396 46.144, 66.727 48.014, 60.786 49.265, 56.357 " />
            <path fill="none" stroke-width="3.0" stroke-linecap="butt" stroke-opacity="1.0" stroke="rgb(0, 0, 0)" stroke-linejoin="round" d=" M 36.235, 79.131 38.245, 80.484 40.500, 79.399 42.052, 80.712 44.598, 81.512 45.868, 81.911 50.767, 82.352 50.783, 82.353 " />
            <path fill="none" stroke-width="3.0" stroke-linecap="butt" stroke-opacity="1.0" stroke="rgb(0, 0, 0)" stroke-linejoin="round" d=" M 34.707, 74.906 32.774, 77.002 30.364, 79.192 27.705, 80.496 26.458, 79.515 " />
            <path fill="none" stroke-width="3.0" stroke-linecap="butt" stroke-opacity="1.0" stroke="rgb(0, 0, 0)" stroke-linejoin="round" d=" M 34.979, 43.266 34.216, 46.661 34.201, 46.729 34.140, 47.001 33.089, 51.677 30.995, 59.239 29.215, 66.012 27.762, 72.233 27.572, 73.951 27.191, 77.382 " />
            <path fill="none" stroke-width="3.0" stroke-linecap="butt" stroke-opacity="1.0" stroke="rgb(0, 0, 0)" stroke-linejoin="round" d=" M 50.851, 20.739 53.085, 17.117 55.648, 14.193 56.715, 15.707 56.824, 20.245 56.283, 24.719 55.694, 28.286 " />
            <path fill="none" stroke-width="3.0" stroke-linecap="butt" stroke-opacity="1.0" stroke="rgb(0, 0, 0)" stroke-linejoin="round" d=" M 57.108, 28.439 57.196, 28.473 58.207, 28.862 58.846, 29.108 58.949, 29.272 60.407, 31.609 60.501, 35.379 58.268, 41.170 55.283, 47.022 51.864, 52.540 49.265, 56.357 51.054, 57.194 55.350, 59.033 " />
            <path fill="none" stroke-width="3.0" stroke-linecap="butt" stroke-opacity="1.0" stroke="rgb(0, 0, 0)" stroke-linejoin="round" d=" M 34.201, 46.729 34.177, 46.806 34.140, 47.001 " />
            <path fill="none" stroke-width="3.0" stroke-linecap="butt" stroke-opacity="1.0" stroke="rgb(0, 0, 0)" stroke-linejoin="round" d=" M 41.157, 34.509 38.072, 38.018 36.230, 41.044 " />
            <path fill="none" stroke-width="3.0" stroke-linecap="butt" stroke-opacity="1.0" stroke="rgb(0, 0, 0)" stroke-linejoin="round" d=" M 70.050, 37.337 69.731, 34.745 69.058, 30.058 65.608, 22.023 64.260, 20.010 60.764, 16.221 57.411, 14.102 55.648, 14.193 " />
            <path fill="none" stroke-width="3.0" stroke-linecap="butt" stroke-opacity="1.0" stroke="rgb(0, 0, 0)" stroke-linejoin="round" d=" M 53.924, 17.345 50.851, 20.739 50.591, 21.026 46.739, 26.641 42.281, 32.887 41.157, 34.509 39.381, 37.069 39.185, 37.351 " />
            <path fill="none" stroke-width="3.0" stroke-linecap="butt" stroke-opacity="1.0" stroke="rgb(0, 0, 0)" stroke-linejoin="round" d=" M 39.381, 37.069 38.314, 38.227 36.230, 41.044 35.034, 42.660 34.216, 46.661 " />
            <path fill="none" stroke-width="3.0" stroke-linecap="butt" stroke-opacity="1.0" stroke="rgb(0, 0, 0)" stroke-linejoin="round" d=" M 192.397, 102.296 192.200, 101.305 191.114, 97.300 188.302, 87.703 187.335, 84.405 182.713, 75.537 181.577, 73.358 175.421, 65.477 173.569, 63.106 169.425, 59.339 161.680, 53.013 161.539, 52.898 157.113, 50.246 155.551, 49.545 151.412, 47.687 145.056, 45.510 138.906, 43.998 138.759, 43.962 133.225, 43.208 129.035, 43.311 119.051, 43.866 117.449, 43.956 107.839, 46.722 105.351, 47.438 100.875, 49.264 91.927, 53.730 89.463, 54.960 86.957, 56.871 " />
            <path fill="none" stroke-width="3.0" stroke-linecap="butt" stroke-opacity="1.0" stroke="rgb(0, 0, 0)" stroke-linejoin="round" d=" M 155.551, 49.545 154.125, 46.447 152.901, 44.911 149.647, 43.218 145.631, 42.040 142.451, 41.843 139.553, 43.506 138.906, 43.998 " />
            <path fill="none" stroke-width="3.0" stroke-linecap="butt" stroke-opacity="1.0" stroke="rgb(0, 0, 0)" stroke-linejoin="round" d=" M 62.535, 35.749 66.108, 37.709 69.664, 40.609 " />
            <path fill="none" stroke-width="3.0" stroke-linecap="butt" stroke-opacity="1.0" stroke="rgb(0, 0, 0)" stroke-linejoin="round" d=" M 194.555, 125.032 193.850, 122.943 185.897, 117.686 185.318, 117.304 180.167, 114.868 171.126, 110.595 169.401, 109.779 160.085, 106.142 150.770, 102.506 147.579, 101.260 138.094, 98.094 128.608, 94.928 122.838, 93.002 113.212, 90.294 103.585, 87.585 98.991, 86.293 97.442, 85.955 " />
            <path fill="none" stroke-width="3.0" stroke-linecap="butt" stroke-opacity="1.0" stroke="rgb(0, 0, 0)" stroke-linejoin="round" d=" M 86.118, 69.594 85.555, 69.558 84.860, 69.514 " />
            <path fill="none" stroke-width="3.0" stroke-linecap="butt" stroke-opacity="1.0" stroke="rgb(0, 0, 0)" stroke-linejoin="round" d=" M 86.118, 69.594 95.991, 71.179 101.220, 72.018 105.896, 72.769 " />
            <path fill="none" stroke-width="3.0" stroke-linecap="butt" stroke-opacity="1.0" stroke="rgb(0, 0, 0)" stroke-linejoin="round" d=" M 194.959, 125.290 194.767, 115.291 194.600, 106.625 192.837, 102.853 192.397, 102.296 191.651, 101.355 " />
            <path fill="none" stroke-width="3.0" stroke-linecap="butt" stroke-opacity="1.0" stroke="rgb(0, 0, 0)" stroke-linejoin="round" d=" M 106.271, 89.762 115.894, 92.479 122.897, 94.456 132.384, 97.620 141.870, 100.784 146.210, 102.231 155.530, 105.855 164.851, 109.479 166.828, 110.248 175.883, 114.492 181.973, 117.346 " />
            <path fill="none" stroke-width="3.0" stroke-linecap="butt" stroke-opacity="1.0" stroke="rgb(0, 0, 0)" stroke-linejoin="round" d=" M 146.606, 125.227 152.203, 127.268 161.598, 130.694 170.993, 134.120 174.910, 135.548 184.144, 139.388 184.882, 139.695 190.160, 141.890 195.678, 144.185 199.069, 146.014 206.129, 149.824 206.744, 152.283 " />
            <path fill="none" stroke-width="3.0" stroke-linecap="butt" stroke-opacity="1.0" stroke="rgb(0, 0, 0)" stroke-linejoin="round" d=" M 197.191, 140.060 196.935, 139.951 189.908, 136.941 180.715, 133.005 176.643, 131.261 167.264, 127.791 157.885, 124.321 148.507, 120.850 147.605, 120.517 " />
            <path fill="none" stroke-width="3.0" stroke-linecap="butt" stroke-opacity="1.0" stroke="rgb(0, 0, 0)" stroke-linejoin="round" d=" M 47.643, 85.647 42.212, 88.506 37.254, 92.389 35.382, 95.882 " />
            <path fill="none" stroke-width="3.0" stroke-linecap="butt" stroke-opacity="1.0" stroke="rgb(0, 0, 0)" stroke-linejoin="round" d=" M 75.409, 51.367 73.455, 49.504 71.885, 48.963 " />
            <path fill="none" stroke-width="3.0" stroke-linecap="butt" stroke-opacity="1.0" stroke="rgb(0, 0, 0)" stroke-linejoin="round" d=" M 48.888, 83.324 47.643, 85.647 " />
            <path fill="none" stroke-width="3.0" stroke-linecap="butt" stroke-opacity="1.0" stroke="rgb(0, 0, 0)" stroke-linejoin="round" d=" M 61.878, 73.284 62.936, 73.879 " />
            <path fill="none" stroke-width="3.0" stroke-linecap="butt" stroke-opacity="1.0" stroke="rgb(0, 0, 0)" stroke-linejoin="round" d=" M 62.860, 78.368 56.510, 80.390 " />
            <path fill="none" stroke-width="3.0" stroke-linecap="butt" stroke-opacity="1.0" stroke="rgb(0, 0, 0)" stroke-linejoin="round" d=" M 66.605, 72.805 65.928, 73.811 62.860, 78.368 " />
            <path fill="none" stroke-width="3.0" stroke-linecap="butt" stroke-opacity="1.0" stroke="rgb(0, 0, 0)" stroke-linejoin="round" d=" M 64.068, 69.091 66.269, 70.909 67.306, 71.765 67.441, 71.877 69.680, 73.726 69.870, 73.883 71.111, 74.908 72.589, 72.698 " />
            <path fill="none" stroke-width="3.0" stroke-linecap="butt" stroke-opacity="1.0" stroke="rgb(0, 0, 0)" stroke-linejoin="round" d=" M 64.444, 68.190 68.719, 69.667 69.846, 70.056 70.070, 70.133 " />
            <path fill="none" stroke-width="3.0" stroke-linecap="butt" stroke-opacity="1.0" stroke="rgb(0, 0, 0)" stroke-linejoin="round" d=" M 72.179, 51.642 71.202, 51.176 " />
            <path fill="none" stroke-width="3.0" stroke-linecap="butt" stroke-opacity="1.0" stroke="rgb(0, 0, 0)" stroke-linejoin="round" d=" M 72.526, 78.084 75.678, 73.420 " />
            <path fill="none" stroke-width="3.0" stroke-linecap="butt" stroke-opacity="1.0" stroke="rgb(0, 0, 0)" stroke-linejoin="round" d=" M 199.807, 148.245 200.161, 149.118 " />
        </g>
    </g>
</svg>
