<?xml version='1.0' encoding='ascii'?>
<svg xmlns="http://www.w3.org/2000/svg" version="1.1" width="250" height="250">
    <g id="ViewLayer_LineSet" xmlns:inkscape="http://www.inkscape.org/namespaces/inkscape" inkscape:groupmode="lineset" inkscape:label="ViewLayer_LineSet">
        <g xmlns:inkscape="http://www.inkscape.org/namespaces/inkscape" inkscape:groupmode="layer" id="strokes" inkscape:label="strokes">
            <path fill="none" stroke-width="3.0" stroke-linecap="butt" stroke-opacity="1.0" stroke="rgb(0, 0, 0)" stroke-linejoin="round" d=" M 60.201, 96.462 59.734, 97.032 58.848, 98.311 54.912, 104.259 53.844, 106.292 53.827, 106.324 51.607, 110.548 51.576, 110.606 51.553, 110.663 50.687, 112.811 50.402, 113.517 50.236, 113.930 48.880, 117.291 47.220, 122.827 45.835, 129.408 45.030, 136.639 45.008, 138.755 44.953, 143.941 45.609, 151.238 46.996, 158.450 47.042, 158.681 47.206, 159.242 47.430, 159.980 49.101, 165.499 51.595, 171.633 51.808, 172.138 55.157, 178.415 55.376, 178.803 59.478, 184.913 64.167, 190.573 69.390, 195.721 72.326, 198.046 72.567, 198.237 72.582, 198.249 75.983, 200.942 81.160, 204.157 83.014, 205.118 91.561, 209.269 96.056, 210.763 97.793, 211.185 " />
            <path fill="none" stroke-width="3.0" stroke-linecap="butt" stroke-opacity="1.0" stroke="rgb(0, 0, 0)" stroke-linejoin="round" d=" M 174.246, 187.558 175.240, 186.524 175.445, 186.224 " />
            <path fill="none" stroke-width="3.0" stroke-linecap="butt" stroke-opacity="1.0" stroke="rgb(0, 0, 0)" stroke-linejoin="round" d=" M 190.328, 131.838 190.275, 130.797 189.606, 127.667 " />
            <path fill="none" stroke-width="3.0" stroke-linecap="butt" stroke-opacity="1.0" stroke="rgb(0, 0, 0)" stroke-linejoin="round" d=" M 60.627, 147.017 61.006, 148.387 62.001, 150.433 63.412, 152.107 65.040, 153.380 66.586, 153.889 68.207, 153.903 70.081, 153.194 71.693, 151.982 72.931, 150.243 73.528, 148.989 " />
            <path fill="none" stroke-width="3.0" stroke-linecap="butt" stroke-opacity="1.0" stroke="rgb(0, 0, 0)" stroke-linejoin="round" d=" M 97.117, 100.939 97.248, 101.926 97.201, 105.275 96.737, 109.007 96.732, 109.048 96.737, 109.058 96.766, 109.117 94.712, 117.396 93.040, 121.516 91.278, 125.621 91.243, 125.702 89.992, 128.237 89.743, 128.743 89.326, 129.587 87.348, 132.982 85.360, 135.719 83.414, 137.664 81.556, 138.719 81.446, 138.726 79.840, 138.833 78.320, 137.999 77.062, 136.255 76.128, 133.682 75.581, 130.402 75.472, 126.571 75.668, 124.294 75.715, 123.748 75.833, 122.372 76.162, 120.656 76.670, 118.001 77.074, 116.638 77.936, 113.724 79.507, 109.690 81.335, 105.907 82.607, 103.763 82.692, 103.621 83.351, 102.510 85.475, 99.621 86.072, 98.988 " />
            <path fill="none" stroke-width="3.0" stroke-linecap="butt" stroke-opacity="1.0" stroke="rgb(0, 0, 0)" stroke-linejoin="round" d=" M 61.265, 116.606 60.744, 118.284 60.597, 118.756 59.990, 120.713 59.958, 120.815 58.753, 124.639 57.570, 128.190 56.440, 131.188 55.356, 133.481 55.286, 133.580 54.316, 134.955 53.326, 135.540 52.404, 135.501 51.615, 133.999 50.996, 131.963 50.647, 129.418 50.619, 129.213 50.550, 125.891 50.837, 122.163 51.507, 118.205 52.364, 114.921 52.477, 114.487 52.536, 114.262 53.461, 111.439 53.782, 110.461 55.177, 106.806 56.667, 103.425 58.194, 100.434 59.699, 97.936 60.809, 96.438 " />
            <path fill="none" stroke-width="3.0" stroke-linecap="butt" stroke-opacity="1.0" stroke="rgb(0, 0, 0)" stroke-linejoin="round" d=" M 52.404, 135.501 56.747, 137.000 " />
            <path fill="none" stroke-width="3.0" stroke-linecap="butt" stroke-opacity="1.0" stroke="rgb(0, 0, 0)" stroke-linejoin="round" d=" M 65.271, 96.888 65.277, 98.116 65.280, 98.941 64.991, 101.744 64.475, 105.099 63.578, 108.692 " />
            <path fill="none" stroke-width="3.0" stroke-linecap="butt" stroke-opacity="1.0" stroke="rgb(0, 0, 0)" stroke-linejoin="round" d=" M 65.082, 118.388 61.265, 116.606 61.679, 115.268 62.511, 112.579 63.578, 108.692 67.818, 110.767 " />
            <path fill="none" stroke-width="3.0" stroke-linecap="butt" stroke-opacity="1.0" stroke="rgb(0, 0, 0)" stroke-linejoin="round" d=" M 107.972, 233.063 111.876, 234.135 112.694, 234.359 116.109, 235.095 121.860, 236.104 129.678, 236.715 132.950, 236.772 138.595, 237.014 144.026, 236.551 147.664, 235.139 152.968, 232.687 161.807, 228.011 162.566, 227.609 170.084, 222.785 173.839, 218.863 177.145, 215.219 178.861, 211.812 180.453, 208.308 181.057, 204.758 180.642, 200.552 179.475, 196.039 177.832, 192.776 175.127, 188.251 174.246, 187.558 " />
            <path fill="none" stroke-width="3.0" stroke-linecap="butt" stroke-opacity="1.0" stroke="rgb(0, 0, 0)" stroke-linejoin="round" d=" M 99.384, 207.417 97.793, 211.185 97.593, 211.657 96.590, 215.735 96.332, 219.054 96.938, 222.532 98.179, 225.032 100.256, 228.802 101.525, 229.806 103.345, 231.246 107.972, 233.063 111.247, 233.992 111.876, 234.135 " />
            <path fill="none" stroke-width="3.0" stroke-linecap="butt" stroke-opacity="1.0" stroke="rgb(0, 0, 0)" stroke-linejoin="round" d=" M 72.567, 198.237 71.535, 199.188 69.691, 200.888 66.734, 205.126 65.680, 206.524 64.183, 210.406 63.085, 214.085 63.148, 217.592 63.745, 221.136 65.056, 223.541 67.423, 226.228 70.218, 228.400 73.331, 229.780 77.207, 230.600 81.986, 231.130 87.313, 231.795 93.207, 231.294 96.975, 231.297 100.224, 230.533 101.525, 229.806 " />
            <path fill="none" stroke-width="3.0" stroke-linecap="butt" stroke-opacity="1.0" stroke="rgb(0, 0, 0)" stroke-linejoin="round" d=" M 166.291, 180.585 172.059, 184.413 173.609, 185.380 175.445, 186.224 178.299, 187.535 182.775, 188.949 187.352, 189.622 191.280, 189.432 194.856, 188.691 196.732, 188.139 199.889, 186.785 202.677, 184.894 203.826, 183.938 206.353, 181.541 208.343, 178.683 209.105, 177.259 210.526, 174.163 211.371, 171.207 211.808, 167.924 211.749, 164.192 210.912, 159.868 209.385, 155.548 209.055, 154.848 206.686, 150.064 202.512, 144.247 202.484, 144.215 202.314, 144.018 198.193, 139.243 194.024, 134.877 190.328, 131.838 189.635, 131.268 184.866, 128.389 " />
            <path fill="none" stroke-width="3.0" stroke-linecap="butt" stroke-opacity="1.0" stroke="rgb(0, 0, 0)" stroke-linejoin="round" d=" M 45.008, 138.755 44.734, 139.513 43.769, 142.408 43.263, 145.045 43.001, 147.506 43.198, 149.762 43.816, 153.183 45.408, 157.027 45.854, 157.899 47.430, 159.980 " />
            <path fill="none" stroke-width="3.0" stroke-linecap="butt" stroke-opacity="1.0" stroke="rgb(0, 0, 0)" stroke-linejoin="round" d=" M 100.803, 70.054 103.072, 67.541 103.265, 67.232 103.333, 67.124 106.029, 62.807 105.890, 56.122 102.717, 51.254 100.326, 48.944 97.041, 48.285 96.651, 48.266 95.893, 48.230 " />
            <path fill="none" stroke-width="3.0" stroke-linecap="butt" stroke-opacity="1.0" stroke="rgb(0, 0, 0)" stroke-linejoin="round" d=" M 84.928, 24.004 83.258, 19.856 81.480, 16.869 78.475, 12.163 75.840, 9.713 72.494, 7.920 71.081, 7.902 66.628, 10.768 61.312, 16.631 57.745, 21.789 55.312, 25.731 51.995, 26.742 47.590, 28.490 41.994, 32.102 38.307, 36.239 37.290, 41.477 37.658, 46.569 39.209, 51.308 40.795, 54.627 39.058, 58.986 37.119, 64.779 35.744, 72.214 36.284, 77.105 37.042, 78.412 40.328, 79.611 43.960, 80.718 48.898, 81.172 53.631, 80.135 61.417, 77.891 " />
            <path fill="none" stroke-width="3.0" stroke-linecap="butt" stroke-opacity="1.0" stroke="rgb(0, 0, 0)" stroke-linejoin="round" d=" M 84.346, 72.521 84.336, 72.521 " />
            <path fill="none" stroke-width="3.0" stroke-linecap="butt" stroke-opacity="1.0" stroke="rgb(0, 0, 0)" stroke-linejoin="round" d=" M 42.776, 109.527 37.603, 105.882 36.592, 105.111 35.538, 104.307 33.629, 98.777 37.080, 96.813 39.521, 95.424 40.385, 94.932 48.223, 94.557 48.738, 94.532 58.502, 94.064 61.891, 94.398 62.872, 94.494 64.618, 94.666 64.709, 94.675 65.163, 94.719 66.516, 94.853 76.468, 95.831 86.354, 96.803 87.938, 97.104 94.573, 98.366 96.752, 98.780 99.567, 99.316 109.391, 101.184 119.215, 103.052 119.415, 103.090 129.095, 105.597 138.776, 108.104 148.457, 110.611 152.494, 111.657 159.192, 113.954 160.357, 114.354 161.184, 114.638 " />
            <path fill="none" stroke-width="3.0" stroke-linecap="butt" stroke-opacity="1.0" stroke="rgb(0, 0, 0)" stroke-linejoin="round" d=" M 202.314, 144.018 204.875, 143.309 206.031, 138.533 200.760, 134.072 197.723, 131.502 195.076, 130.251 189.606, 127.667 181.579, 123.874 " />
            <path fill="none" stroke-width="3.0" stroke-linecap="butt" stroke-opacity="1.0" stroke="rgb(0, 0, 0)" stroke-linejoin="round" d=" M 41.230, 99.948 46.227, 97.731 47.907, 96.985 48.017, 96.937 " />
            <path fill="none" stroke-width="3.0" stroke-linecap="butt" stroke-opacity="1.0" stroke="rgb(0, 0, 0)" stroke-linejoin="round" d=" M 43.402, 97.116 37.364, 99.891 36.316, 100.372 35.926, 100.552 36.272, 101.651 37.603, 105.882 " />
            <path fill="none" stroke-width="3.0" stroke-linecap="butt" stroke-opacity="1.0" stroke="rgb(0, 0, 0)" stroke-linejoin="round" d=" M 43.402, 97.116 44.983, 97.055 46.410, 96.999 47.917, 96.940 48.017, 96.937 58.009, 96.547 60.201, 96.462 60.809, 96.438 60.810, 96.438 65.271, 96.888 66.410, 97.003 69.055, 97.270 69.360, 97.301 70.440, 97.410 80.389, 98.415 86.072, 98.988 87.236, 99.106 92.066, 100.002 97.117, 100.939 100.665, 101.597 110.497, 103.420 119.377, 105.067 129.060, 107.564 138.744, 110.061 148.427, 112.558 151.858, 113.443 159.987, 116.211 " />
            <path fill="none" stroke-width="3.0" stroke-linecap="butt" stroke-opacity="1.0" stroke="rgb(0, 0, 0)" stroke-linejoin="round" d=" M 87.109, 65.137 87.647, 65.898 87.935, 66.305 88.626, 67.282 88.712, 67.404 89.407, 68.387 89.437, 68.429 91.304, 71.069 92.713, 71.044 96.176, 70.982 " />
            <path fill="none" stroke-width="3.0" stroke-linecap="butt" stroke-opacity="1.0" stroke="rgb(0, 0, 0)" stroke-linejoin="round" d=" M 36.592, 105.111 36.863, 106.342 37.490, 108.405 39.856, 109.950 47.602, 113.959 49.141, 113.420 49.743, 113.209 50.509, 112.940 50.687, 112.811 " />
            <path fill="none" stroke-width="3.0" stroke-linecap="butt" stroke-opacity="1.0" stroke="rgb(0, 0, 0)" stroke-linejoin="round" d=" M 45.636, 108.709 42.776, 109.527 42.641, 109.566 " />
            <path fill="none" stroke-width="3.0" stroke-linecap="butt" stroke-opacity="1.0" stroke="rgb(0, 0, 0)" stroke-linejoin="round" d=" M 62.561, 78.503 60.937, 79.077 58.970, 79.772 57.605, 80.254 55.325, 81.060 47.772, 84.445 42.829, 87.767 39.722, 91.647 39.713, 91.664 " />
            <path fill="none" stroke-width="3.0" stroke-linecap="butt" stroke-opacity="1.0" stroke="rgb(0, 0, 0)" stroke-linejoin="round" d=" M 62.495, 78.467 61.013, 78.957 59.384, 79.496 57.605, 80.254 " />
            <path fill="none" stroke-width="3.0" stroke-linecap="butt" stroke-opacity="1.0" stroke="rgb(0, 0, 0)" stroke-linejoin="round" d=" M 55.325, 81.060 55.922, 80.972 56.961, 80.818 60.127, 80.349 64.461, 79.708 65.222, 79.678 " />
            <path fill="none" stroke-width="3.0" stroke-linecap="butt" stroke-opacity="1.0" stroke="rgb(0, 0, 0)" stroke-linejoin="round" d=" M 159.987, 116.211 160.225, 116.886 162.350, 118.401 164.599, 119.325 173.972, 122.650 175.166, 123.074 180.519, 124.973 181.579, 123.874 181.977, 123.462 182.118, 122.301 182.156, 121.990 182.192, 121.700 182.440, 119.666 178.944, 114.814 172.058, 108.132 167.562, 104.976 163.833, 102.359 157.114, 97.516 148.448, 92.525 147.996, 92.265 147.412, 92.020 146.642, 91.696 137.424, 87.821 136.529, 87.444 133.688, 86.519 124.162, 83.417 114.590, 80.523 112.089, 79.768 102.252, 77.971 100.450, 77.642 98.212, 77.242 93.422, 76.386 90.740, 75.906 " />
            <path fill="none" stroke-width="3.0" stroke-linecap="butt" stroke-opacity="1.0" stroke="rgb(0, 0, 0)" stroke-linejoin="round" d=" M 78.018, 80.025 82.881, 80.592 84.856, 80.822 89.429, 81.355 90.710, 81.706 100.355, 84.344 104.108, 85.371 106.707, 86.184 116.250, 89.172 117.533, 89.573 126.811, 93.304 130.169, 94.654 139.299, 98.733 141.535, 99.732 150.349, 104.011 157.506, 107.839 163.304, 111.877 164.015, 112.810 165.698, 115.019 166.413, 117.689 165.841, 118.205 164.599, 119.325 " />
            <path fill="none" stroke-width="3.0" stroke-linecap="butt" stroke-opacity="1.0" stroke="rgb(0, 0, 0)" stroke-linejoin="round" d=" M 69.935, 77.102 70.619, 76.092 72.741, 72.959 73.538, 71.783 73.722, 71.272 74.104, 70.208 74.900, 67.997 74.987, 67.755 75.116, 67.398 75.425, 66.537 76.461, 63.658 76.864, 61.610 77.697, 57.375 77.697, 57.369 77.997, 54.992 78.285, 52.697 " />
            <path fill="none" stroke-width="3.0" stroke-linecap="butt" stroke-opacity="1.0" stroke="rgb(0, 0, 0)" stroke-linejoin="round" d=" M 53.801, 72.189 55.347, 73.636 56.160, 74.398 59.713, 76.776 62.008, 77.391 62.478, 77.517 64.072, 77.945 64.110, 77.955 64.171, 77.972 65.200, 78.248 69.935, 77.102 70.449, 77.586 71.431, 78.512 73.896, 79.615 74.315, 79.803 77.597, 80.282 77.599, 80.282 " />
            <path fill="none" stroke-width="3.0" stroke-linecap="butt" stroke-opacity="1.0" stroke="rgb(0, 0, 0)" stroke-linejoin="round" d=" M 54.924, 73.450 53.801, 72.189 50.283, 74.433 45.640, 76.787 39.875, 78.187 36.284, 77.105 " />
            <path fill="none" stroke-width="3.0" stroke-linecap="butt" stroke-opacity="1.0" stroke="rgb(0, 0, 0)" stroke-linejoin="round" d=" M 54.924, 73.450 58.449, 76.303 61.417, 77.891 61.621, 78.000 62.495, 78.467 62.561, 78.503 62.674, 78.563 62.846, 78.655 65.222, 79.678 65.519, 79.806 65.747, 79.904 67.064, 80.259 68.881, 80.748 69.537, 80.925 71.793, 81.213 73.031, 81.371 73.193, 81.392 73.394, 81.341 77.595, 80.283 77.599, 80.282 78.018, 80.025 78.733, 79.587 80.382, 78.578 80.484, 78.515 80.560, 78.397 82.370, 75.580 84.336, 72.521 84.340, 72.515 84.377, 72.458 85.082, 71.361 85.380, 70.445 86.069, 68.330 86.090, 68.267 86.395, 67.330 86.564, 66.811 86.749, 66.242 87.109, 65.137 87.129, 65.076 87.468, 64.033 88.043, 62.121 88.126, 61.843 88.649, 60.102 89.076, 59.425 89.844, 58.210 90.097, 57.811 91.670, 55.320 91.876, 54.995 92.217, 54.419 92.377, 54.151 93.429, 52.378 95.489, 48.911 95.893, 48.230 96.941, 46.465 98.633, 41.281 99.249, 36.901 " />
            <path fill="none" stroke-width="3.0" stroke-linecap="butt" stroke-opacity="1.0" stroke="rgb(0, 0, 0)" stroke-linejoin="round" d=" M 95.405, 29.720 92.945, 27.468 89.104, 25.249 86.201, 24.262 84.928, 24.004 81.874, 23.386 78.539, 23.089 " />
            <path fill="none" stroke-width="3.0" stroke-linecap="butt" stroke-opacity="1.0" stroke="rgb(0, 0, 0)" stroke-linejoin="round" d=" M 71.081, 7.902 74.351, 9.662 76.966, 14.562 78.044, 19.316 78.539, 23.089 " />
            <path fill="none" stroke-width="3.0" stroke-linecap="butt" stroke-opacity="1.0" stroke="rgb(0, 0, 0)" stroke-linejoin="round" d=" M 83.150, 55.680 81.804, 54.814 79.971, 53.635 78.717, 52.938 78.285, 52.697 78.440, 52.545 80.829, 50.200 82.302, 48.754 85.166, 45.491 87.288, 43.075 91.080, 37.056 93.181, 31.079 91.037, 27.066 86.201, 24.262 " />
            <path fill="none" stroke-width="3.0" stroke-linecap="butt" stroke-opacity="1.0" stroke="rgb(0, 0, 0)" stroke-linejoin="round" d=" M 193.586, 112.973 191.787, 103.137 190.218, 94.557 189.073, 93.351 188.158, 89.134 184.193, 79.954 183.025, 77.252 177.318, 69.041 176.139, 67.345 171.407, 61.948 164.211, 55.005 163.448, 54.270 156.832, 50.071 150.414, 46.637 146.293, 44.901 144.850, 44.294 138.516, 42.532 132.682, 41.639 132.120, 41.553 126.375, 41.459 118.077, 41.716 111.063, 42.962 101.522, 45.956 99.889, 46.469 96.651, 48.266 " />
            <path fill="none" stroke-width="3.0" stroke-linecap="butt" stroke-opacity="1.0" stroke="rgb(0, 0, 0)" stroke-linejoin="round" d=" M 99.249, 36.901 97.378, 33.218 95.405, 29.720 97.589, 33.759 99.249, 36.901 " />
            <path fill="none" stroke-width="3.0" stroke-linecap="butt" stroke-opacity="1.0" stroke="rgb(0, 0, 0)" stroke-linejoin="round" d=" M 95.149, 31.566 97.547, 33.721 97.589, 33.759 " />
            <path fill="none" stroke-width="3.0" stroke-linecap="butt" stroke-opacity="1.0" stroke="rgb(0, 0, 0)" stroke-linejoin="round" d=" M 191.811, 111.619 186.513, 106.573 180.486, 103.390 171.722, 98.763 167.740, 97.301 158.353, 93.853 150.490, 90.964 140.822, 88.407 133.688, 86.519 " />
            <path fill="none" stroke-width="3.0" stroke-linecap="butt" stroke-opacity="1.0" stroke="rgb(0, 0, 0)" stroke-linejoin="round" d=" M 105.249, 67.226 103.333, 67.124 " />
            <path fill="none" stroke-width="3.0" stroke-linecap="butt" stroke-opacity="1.0" stroke="rgb(0, 0, 0)" stroke-linejoin="round" d=" M 105.249, 67.226 113.026, 68.374 122.918, 69.834 128.407, 70.645 129.075, 70.743 " />
            <path fill="none" stroke-width="3.0" stroke-linecap="butt" stroke-opacity="1.0" stroke="rgb(0, 0, 0)" stroke-linejoin="round" d=" M 146.293, 44.901 145.645, 43.864 143.448, 42.103 139.665, 40.792 135.792, 40.456 133.358, 41.219 132.682, 41.639 " />
            <path fill="none" stroke-width="3.0" stroke-linecap="butt" stroke-opacity="1.0" stroke="rgb(0, 0, 0)" stroke-linejoin="round" d=" M 202.484, 144.215 207.212, 142.915 208.320, 139.248 209.755, 134.042 206.547, 128.232 201.467, 120.481 194.234, 113.575 193.672, 113.039 193.586, 112.973 191.811, 111.619 188.504, 109.094 181.754, 105.559 172.869, 100.904 171.672, 100.467 162.279, 97.037 152.885, 93.607 150.290, 92.659 146.642, 91.696 " />
            <path fill="none" stroke-width="3.0" stroke-linecap="butt" stroke-opacity="1.0" stroke="rgb(0, 0, 0)" stroke-linejoin="round" d=" M 182.156, 121.990 182.676, 122.238 189.103, 125.313 198.123, 129.629 198.698, 129.904 200.117, 130.583 207.666, 137.141 208.578, 137.933 207.212, 142.915 " />
            <path fill="none" stroke-width="3.0" stroke-linecap="butt" stroke-opacity="1.0" stroke="rgb(0, 0, 0)" stroke-linejoin="round" d=" M 209.755, 134.042 202.354, 127.317 201.442, 126.488 194.623, 123.130 189.326, 120.521 187.931, 119.835 187.524, 119.634 182.550, 117.184 " />
            <path fill="none" stroke-width="3.0" stroke-linecap="butt" stroke-opacity="1.0" stroke="rgb(0, 0, 0)" stroke-linejoin="round" d=" M 40.338, 91.254 39.713, 91.664 34.565, 95.043 33.629, 98.777 " />
            <path fill="none" stroke-width="3.0" stroke-linecap="butt" stroke-opacity="1.0" stroke="rgb(0, 0, 0)" stroke-linejoin="round" d=" M 46.258, 106.626 46.124, 107.075 45.636, 108.709 51.553, 110.663 " />
            <path fill="none" stroke-width="3.0" stroke-linecap="butt" stroke-opacity="1.0" stroke="rgb(0, 0, 0)" stroke-linejoin="round" d=" M 49.141, 113.420 50.236, 113.930 " />
            <path fill="none" stroke-width="3.0" stroke-linecap="butt" stroke-opacity="1.0" stroke="rgb(0, 0, 0)" stroke-linejoin="round" d=" M 61.621, 78.000 61.013, 78.957 " />
            <path fill="none" stroke-width="3.0" stroke-linecap="butt" stroke-opacity="1.0" stroke="rgb(0, 0, 0)" stroke-linejoin="round" d=" M 72.326, 198.046 71.535, 199.188 " />
            <path fill="none" stroke-width="3.0" stroke-linecap="butt" stroke-opacity="1.0" stroke="rgb(0, 0, 0)" stroke-linejoin="round" d=" M 84.340, 72.515 84.346, 72.521 84.377, 72.458 " />
            <path fill="none" stroke-width="3.0" stroke-linecap="butt" stroke-opacity="1.0" stroke="rgb(0, 0, 0)" stroke-linejoin="round" d=" M 86.564, 66.811 87.430, 67.292 89.407, 68.387 " />
            <path fill="none" stroke-width="3.0" stroke-linecap="butt" stroke-opacity="1.0" stroke="rgb(0, 0, 0)" stroke-linejoin="round" d=" M 86.069, 68.330 86.429, 68.340 89.437, 68.429 " />
            <path fill="none" stroke-width="3.0" stroke-linecap="butt" stroke-opacity="1.0" stroke="rgb(0, 0, 0)" stroke-linejoin="round" d=" M 86.429, 68.340 85.380, 70.445 " />
            <path fill="none" stroke-width="3.0" stroke-linecap="butt" stroke-opacity="1.0" stroke="rgb(0, 0, 0)" stroke-linejoin="round" d=" M 85.640, 75.708 82.370, 75.580 " />
            <path fill="none" stroke-width="3.0" stroke-linecap="butt" stroke-opacity="1.0" stroke="rgb(0, 0, 0)" stroke-linejoin="round" d=" M 90.338, 75.891 91.745, 73.020 92.713, 71.044 " />
            <path fill="none" stroke-width="3.0" stroke-linecap="butt" stroke-opacity="1.0" stroke="rgb(0, 0, 0)" stroke-linejoin="round" d=" M 195.076, 130.251 201.562, 135.694 " />
        </g>
    </g>
</svg>
