<?xml version='1.0' encoding='ascii'?>
<svg xmlns="http://www.w3.org/2000/svg" version="1.1" width="250" height="250">
    <g id="ViewLayer_LineSet" xmlns:inkscape="http://www.inkscape.org/namespaces/inkscape" inkscape:groupmode="lineset" inkscape:label="ViewLayer_LineSet">
        <g xmlns:inkscape="http://www.inkscape.org/namespaces/inkscape" inkscape:groupmode="layer" id="strokes" inkscape:label="strokes">
            <path fill="none" stroke-width="3.0" stroke-linecap="butt" stroke-opacity="1.0" stroke="rgb(0, 0, 0)" stroke-linejoin="round" d=" M 45.991, 134.209 45.480, 137.977 45.352, 144.537 45.719, 149.691 45.989, 152.462 47.087, 158.777 48.617, 164.439 50.758, 170.287 51.651, 172.199 54.817, 178.727 58.682, 184.587 59.409, 185.618 " />
            <path fill="none" stroke-width="3.0" stroke-linecap="butt" stroke-opacity="1.0" stroke="rgb(0, 0, 0)" stroke-linejoin="round" d=" M 132.382, 213.746 137.537, 212.597 142.261, 211.228 145.881, 209.613 154.814, 205.356 162.888, 199.456 163.041, 199.344 166.461, 196.749 169.259, 193.853 " />
            <path fill="none" stroke-width="3.0" stroke-linecap="butt" stroke-opacity="1.0" stroke="rgb(0, 0, 0)" stroke-linejoin="round" d=" M 46.268, 142.139 46.415, 142.933 46.462, 143.869 46.541, 144.997 46.755, 146.562 47.110, 147.869 47.797, 149.452 48.870, 150.589 " />
            <path fill="none" stroke-width="3.0" stroke-linecap="butt" stroke-opacity="1.0" stroke="rgb(0, 0, 0)" stroke-linejoin="round" d=" M 48.870, 150.589 49.466, 150.684 50.218, 150.125 50.498, 149.662 " />
            <path fill="none" stroke-width="3.0" stroke-linecap="butt" stroke-opacity="1.0" stroke="rgb(0, 0, 0)" stroke-linejoin="round" d=" M 51.223, 145.478 51.343, 145.884 51.440, 146.320 51.327, 146.965 51.029, 148.080 50.498, 149.662 50.497, 149.662 49.838, 150.766 " />
            <path fill="none" stroke-width="3.0" stroke-linecap="butt" stroke-opacity="1.0" stroke="rgb(0, 0, 0)" stroke-linejoin="round" d=" M 69.115, 104.449 69.041, 104.744 68.783, 105.764 68.678, 106.179 67.697, 109.257 67.570, 109.656 67.539, 109.750 67.592, 109.817 67.367, 110.402 66.902, 111.611 64.599, 117.602 62.652, 121.436 60.845, 125.318 59.143, 128.898 57.891, 131.391 57.582, 132.005 56.177, 134.486 54.933, 136.220 53.852, 137.121 52.941, 137.148 52.219, 136.302 51.721, 134.622 51.491, 132.190 51.578, 129.120 52.027, 125.558 52.867, 121.669 54.103, 117.633 55.684, 113.687 57.446, 109.963 58.963, 107.132 59.294, 106.517 59.321, 106.465 59.340, 106.434 59.512, 106.153 61.238, 103.319 61.897, 102.382 " />
            <path fill="none" stroke-width="3.0" stroke-linecap="butt" stroke-opacity="1.0" stroke="rgb(0, 0, 0)" stroke-linejoin="round" d=" M 48.308, 115.956 46.874, 119.690 45.673, 123.252 44.717, 126.468 43.996, 129.176 43.484, 131.239 43.153, 132.554 42.979, 133.060 42.913, 132.998 43.086, 131.608 43.397, 129.739 43.917, 127.229 44.677, 124.207 45.695, 120.823 46.973, 117.237 48.463, 113.665 50.005, 110.218 51.530, 106.895 52.641, 104.539 52.952, 103.877 52.982, 103.814 54.303, 101.082 54.683, 100.317 " />
            <path fill="none" stroke-width="3.0" stroke-linecap="butt" stroke-opacity="1.0" stroke="rgb(0, 0, 0)" stroke-linejoin="round" d=" M 42.979, 133.060 45.991, 134.209 " />
            <path fill="none" stroke-width="3.0" stroke-linecap="butt" stroke-opacity="1.0" stroke="rgb(0, 0, 0)" stroke-linejoin="round" d=" M 55.174, 100.458 55.039, 100.761 54.328, 102.351 53.572, 104.146 53.289, 104.818 53.027, 105.440 51.475, 108.734 " />
            <path fill="none" stroke-width="3.0" stroke-linecap="butt" stroke-opacity="1.0" stroke="rgb(0, 0, 0)" stroke-linejoin="round" d=" M 50.250, 116.735 48.308, 115.956 49.897, 112.288 51.475, 108.734 53.449, 109.543 " />
            <path fill="none" stroke-width="3.0" stroke-linecap="butt" stroke-opacity="1.0" stroke="rgb(0, 0, 0)" stroke-linejoin="round" d=" M 44.208, 217.916 47.532, 220.414 54.069, 225.009 58.713, 227.775 62.565, 229.694 71.028, 232.749 80.475, 236.028 85.235, 237.680 94.764, 240.713 98.780, 241.992 108.406, 244.704 108.895, 244.842 114.755, 245.823 115.519, 245.882 120.704, 245.845 126.383, 243.673 130.152, 240.679 132.695, 237.276 133.189, 236.090 135.007, 231.322 135.467, 227.264 135.655, 225.601 134.275, 217.734 132.382, 213.746 130.863, 210.545 129.206, 208.017 " />
            <path fill="none" stroke-width="3.0" stroke-linecap="butt" stroke-opacity="1.0" stroke="rgb(0, 0, 0)" stroke-linejoin="round" d=" M 40.219, 214.300 41.904, 215.928 44.208, 217.916 40.219, 214.300 38.746, 212.964 36.832, 211.027 36.027, 209.385 34.948, 204.276 36.289, 199.617 38.525, 195.561 41.925, 191.623 46.319, 188.369 52.787, 186.172 59.409, 185.618 59.567, 185.604 67.803, 185.912 " />
            <path fill="none" stroke-width="3.0" stroke-linecap="butt" stroke-opacity="1.0" stroke="rgb(0, 0, 0)" stroke-linejoin="round" d=" M 135.467, 227.264 138.026, 226.562 146.449, 221.172 151.469, 217.959 158.442, 210.791 159.914, 209.277 166.786, 202.012 167.981, 200.749 173.263, 194.452 173.396, 194.277 " />
            <path fill="none" stroke-width="3.0" stroke-linecap="butt" stroke-opacity="1.0" stroke="rgb(0, 0, 0)" stroke-linejoin="round" d=" M 145.953, 181.287 151.181, 185.412 157.174, 189.274 158.553, 190.146 163.411, 192.298 168.033, 193.690 169.259, 193.853 172.743, 194.317 173.396, 194.277 176.775, 194.070 180.440, 193.266 182.206, 192.612 185.455, 191.198 188.318, 189.240 190.866, 186.827 191.947, 185.729 193.980, 182.798 195.568, 179.540 196.058, 178.116 196.654, 175.981 196.900, 175.094 197.292, 171.731 197.164, 167.912 196.189, 163.129 194.493, 158.456 192.021, 153.586 190.087, 150.943 189.900, 150.688 189.466, 150.095 187.692, 147.671 184.306, 143.817 " />
            <path fill="none" stroke-width="3.0" stroke-linecap="butt" stroke-opacity="1.0" stroke="rgb(0, 0, 0)" stroke-linejoin="round" d=" M 82.906, 69.744 85.728, 66.543 85.425, 58.694 85.407, 58.206 79.632, 52.284 78.433, 51.739 73.923, 51.734 72.069, 51.732 69.883, 51.730 69.771, 51.853 69.091, 52.606 68.328, 53.451 68.175, 53.621 67.726, 54.118 66.797, 55.146 66.539, 55.432 " />
            <path fill="none" stroke-width="3.0" stroke-linecap="butt" stroke-opacity="1.0" stroke="rgb(0, 0, 0)" stroke-linejoin="round" d=" M 66.103, 68.982 62.472, 67.661 64.228, 62.654 " />
            <path fill="none" stroke-width="3.0" stroke-linecap="butt" stroke-opacity="1.0" stroke="rgb(0, 0, 0)" stroke-linejoin="round" d=" M 32.887, 75.109 33.073, 77.104 33.584, 79.253 34.910, 80.576 36.373, 81.874 39.445, 82.789 40.235, 83.024 45.505, 83.452 51.398, 81.504 52.983, 80.756 57.542, 75.922 60.012, 71.784 60.095, 71.643 61.289, 69.644 61.298, 69.627 61.773, 68.831 61.863, 68.682 62.092, 68.298 62.421, 67.747 62.472, 67.661 " />
            <path fill="none" stroke-width="3.0" stroke-linecap="butt" stroke-opacity="1.0" stroke="rgb(0, 0, 0)" stroke-linejoin="round" d=" M 27.129, 76.763 26.472, 79.660 27.278, 80.618 28.480, 81.821 32.170, 82.887 37.494, 83.293 39.445, 82.789 " />
            <path fill="none" stroke-width="3.0" stroke-linecap="butt" stroke-opacity="1.0" stroke="rgb(0, 0, 0)" stroke-linejoin="round" d=" M 69.540, 75.063 67.955, 75.127 66.689, 74.081 66.562, 73.976 65.911, 73.439 61.340, 69.661 61.298, 69.627 " />
            <path fill="none" stroke-width="3.0" stroke-linecap="butt" stroke-opacity="1.0" stroke="rgb(0, 0, 0)" stroke-linejoin="round" d=" M 36.060, 95.756 38.671, 95.073 45.388, 96.541 51.482, 97.872 53.395, 98.419 55.348, 98.978 55.778, 99.100 59.238, 100.090 60.482, 100.445 60.997, 100.592 62.794, 101.106 69.477, 103.017 69.642, 103.064 69.706, 103.082 74.286, 104.392 75.742, 104.849 85.282, 107.847 94.822, 110.845 104.053, 113.746 113.530, 116.938 115.042, 117.447 115.909, 117.739 " />
            <path fill="none" stroke-width="3.0" stroke-linecap="butt" stroke-opacity="1.0" stroke="rgb(0, 0, 0)" stroke-linejoin="round" d=" M 190.087, 150.943 199.155, 153.141 204.390, 153.599 " />
            <path fill="none" stroke-width="3.0" stroke-linecap="butt" stroke-opacity="1.0" stroke="rgb(0, 0, 0)" stroke-linejoin="round" d=" M 138.579, 126.924 139.013, 127.080 144.343, 128.989 153.757, 132.361 163.171, 135.734 166.452, 136.909 175.778, 140.517 184.306, 143.817 188.691, 145.514 190.386, 146.269 199.521, 150.338 201.363, 151.158 203.888, 153.194 204.390, 153.599 207.186, 153.468 208.002, 149.680 206.479, 143.728 202.713, 135.368 199.612, 131.933 198.036, 130.202 195.130, 127.057 194.780, 126.678 189.009, 123.255 " />
            <path fill="none" stroke-width="3.0" stroke-linecap="butt" stroke-opacity="1.0" stroke="rgb(0, 0, 0)" stroke-linejoin="round" d=" M 48.768, 85.359 42.789, 88.510 37.911, 92.324 36.060, 95.756 38.786, 97.777 44.192, 100.900 52.641, 104.539 " />
            <path fill="none" stroke-width="3.0" stroke-linecap="butt" stroke-opacity="1.0" stroke="rgb(0, 0, 0)" stroke-linejoin="round" d=" M 41.511, 97.286 51.265, 99.491 53.793, 100.062 54.683, 100.317 54.720, 100.328 55.174, 100.458 55.554, 100.566 58.282, 101.348 59.802, 101.783 60.409, 101.956 61.897, 102.382 68.687, 104.326 68.992, 104.413 69.115, 104.449 70.769, 104.922 75.397, 106.247 75.676, 106.327 85.213, 109.335 94.749, 112.343 104.286, 115.352 104.904, 115.547 114.381, 118.739 116.528, 119.462 " />
            <path fill="none" stroke-width="3.0" stroke-linecap="butt" stroke-opacity="1.0" stroke="rgb(0, 0, 0)" stroke-linejoin="round" d=" M 64.228, 62.654 64.353, 65.459 64.438, 67.344 65.533, 68.421 66.103, 68.982 66.568, 69.441 67.060, 69.925 67.830, 70.682 68.368, 71.212 68.379, 71.222 68.397, 71.240 69.749, 72.571 70.424, 73.236 70.648, 73.456 70.826, 73.631 70.880, 73.629 72.191, 73.599 73.278, 73.574 77.967, 73.465 " />
            <path fill="none" stroke-width="3.0" stroke-linecap="butt" stroke-opacity="1.0" stroke="rgb(0, 0, 0)" stroke-linejoin="round" d=" M 62.371, 78.525 52.787, 81.382 50.988, 81.918 49.182, 83.187 48.768, 85.359 " />
            <path fill="none" stroke-width="3.0" stroke-linecap="butt" stroke-opacity="1.0" stroke="rgb(0, 0, 0)" stroke-linejoin="round" d=" M 50.988, 81.918 52.832, 81.698 55.097, 81.944 56.840, 82.329 59.340, 82.879 61.704, 83.400 64.425, 84.684 65.036, 84.972 66.860, 85.832 66.968, 85.883 68.404, 86.560 69.801, 87.219 70.675, 87.644 78.224, 91.320 86.914, 96.268 87.127, 96.389 95.686, 101.570 102.741, 106.018 109.048, 110.057 114.427, 114.334 116.018, 116.358 117.017, 117.629 117.959, 119.944 118.142, 120.394 118.148, 122.029 " />
            <path fill="none" stroke-width="3.0" stroke-linecap="butt" stroke-opacity="1.0" stroke="rgb(0, 0, 0)" stroke-linejoin="round" d=" M 70.051, 78.190 66.976, 77.976 66.013, 77.909 64.226, 78.179 " />
            <path fill="none" stroke-width="3.0" stroke-linecap="butt" stroke-opacity="1.0" stroke="rgb(0, 0, 0)" stroke-linejoin="round" d=" M 138.603, 127.191 138.579, 126.924 138.435, 125.347 138.299, 123.857 138.242, 123.230 135.385, 119.086 134.654, 118.025 133.677, 116.787 130.555, 112.830 130.204, 112.385 129.023, 110.889 121.898, 104.753 116.139, 99.692 108.477, 94.271 99.709, 89.462 99.550, 89.375 98.627, 88.948 91.729, 85.757 90.900, 85.373 83.225, 81.963 82.935, 81.834 79.777, 80.934 75.914, 79.833 73.787, 79.189 70.622, 78.230 " />
            <path fill="none" stroke-width="3.0" stroke-linecap="butt" stroke-opacity="1.0" stroke="rgb(0, 0, 0)" stroke-linejoin="round" d=" M 116.528, 119.462 118.148, 122.029 127.665, 125.099 137.182, 128.169 138.958, 128.742 139.013, 127.080 " />
            <path fill="none" stroke-width="3.0" stroke-linecap="butt" stroke-opacity="1.0" stroke="rgb(0, 0, 0)" stroke-linejoin="round" d=" M 138.958, 128.742 138.603, 127.191 " />
            <path fill="none" stroke-width="3.0" stroke-linecap="butt" stroke-opacity="1.0" stroke="rgb(0, 0, 0)" stroke-linejoin="round" d=" M 65.520, 74.000 62.589, 74.069 60.095, 71.643 " />
            <path fill="none" stroke-width="3.0" stroke-linecap="butt" stroke-opacity="1.0" stroke="rgb(0, 0, 0)" stroke-linejoin="round" d=" M 60.012, 71.784 61.628, 73.355 62.589, 74.069 " />
            <path fill="none" stroke-width="3.0" stroke-linecap="butt" stroke-opacity="1.0" stroke="rgb(0, 0, 0)" stroke-linejoin="round" d=" M 36.652, 79.504 37.705, 77.358 39.072, 74.576 41.983, 67.019 43.921, 61.161 45.263, 56.792 " />
            <path fill="none" stroke-width="3.0" stroke-linecap="butt" stroke-opacity="1.0" stroke="rgb(0, 0, 0)" stroke-linejoin="round" d=" M 34.910, 80.576 36.652, 79.504 38.172, 80.795 42.056, 81.976 42.455, 82.010 47.143, 82.413 " />
            <path fill="none" stroke-width="3.0" stroke-linecap="butt" stroke-opacity="1.0" stroke="rgb(0, 0, 0)" stroke-linejoin="round" d=" M 32.887, 75.109 31.283, 77.174 29.327, 79.331 27.278, 80.618 " />
            <path fill="none" stroke-width="3.0" stroke-linecap="butt" stroke-opacity="1.0" stroke="rgb(0, 0, 0)" stroke-linejoin="round" d=" M 52.276, 18.307 50.958, 19.740 48.901, 21.975 45.007, 27.550 41.178, 33.747 38.509, 38.168 34.950, 44.021 32.706, 52.297 30.451, 59.735 28.501, 66.392 27.380, 72.506 27.129, 76.763 27.082, 77.564 " />
            <path fill="none" stroke-width="3.0" stroke-linecap="butt" stroke-opacity="1.0" stroke="rgb(0, 0, 0)" stroke-linejoin="round" d=" M 51.411, 59.403 47.022, 57.609 45.263, 56.792 47.528, 53.015 50.559, 47.550 53.310, 41.753 55.507, 36.018 55.805, 32.299 54.908, 29.849 53.702, 29.209 52.684, 29.074 " />
            <path fill="none" stroke-width="3.0" stroke-linecap="butt" stroke-opacity="1.0" stroke="rgb(0, 0, 0)" stroke-linejoin="round" d=" M 54.579, 29.288 52.684, 29.074 53.461, 25.550 54.292, 21.130 54.655, 16.655 54.022, 15.176 51.865, 18.094 50.958, 19.740 " />
            <path fill="none" stroke-width="3.0" stroke-linecap="butt" stroke-opacity="1.0" stroke="rgb(0, 0, 0)" stroke-linejoin="round" d=" M 64.717, 35.348 64.234, 34.996 59.864, 31.813 55.809, 29.640 54.579, 29.288 " />
            <path fill="none" stroke-width="3.0" stroke-linecap="butt" stroke-opacity="1.0" stroke="rgb(0, 0, 0)" stroke-linejoin="round" d=" M 67.917, 39.489 67.807, 38.062 67.098, 30.696 65.733, 27.330 63.673, 22.787 62.771, 20.815 59.215, 17.114 55.810, 15.064 54.022, 15.176 " />
            <path fill="none" stroke-width="3.0" stroke-linecap="butt" stroke-opacity="1.0" stroke="rgb(0, 0, 0)" stroke-linejoin="round" d=" M 193.699, 105.035 193.073, 101.627 190.397, 91.992 189.445, 88.563 185.026, 79.592 183.776, 77.055 181.638, 73.329 175.682, 65.296 173.980, 63.001 166.417, 56.458 164.998, 55.230 161.843, 52.769 157.060, 50.125 157.038, 50.116 151.138, 47.589 144.729, 45.447 139.739, 44.231 138.556, 43.942 133.301, 43.231 129.508, 43.368 119.527, 43.972 117.449, 44.098 107.829, 46.828 104.916, 47.655 95.955, 52.094 93.690, 53.216 89.988, 55.239 85.425, 58.694 " />
            <path fill="none" stroke-width="3.0" stroke-linecap="butt" stroke-opacity="1.0" stroke="rgb(0, 0, 0)" stroke-linejoin="round" d=" M 157.038, 50.116 156.975, 49.738 155.460, 46.333 153.948, 44.796 150.520, 43.118 146.521, 41.966 143.539, 41.796 140.502, 43.486 139.739, 44.231 " />
            <path fill="none" stroke-width="3.0" stroke-linecap="butt" stroke-opacity="1.0" stroke="rgb(0, 0, 0)" stroke-linejoin="round" d=" M 57.495, 36.366 61.186, 38.272 65.007, 41.112 " />
            <path fill="none" stroke-width="3.0" stroke-linecap="butt" stroke-opacity="1.0" stroke="rgb(0, 0, 0)" stroke-linejoin="round" d=" M 66.797, 55.146 67.222, 53.884 67.368, 53.452 67.418, 53.302 67.580, 52.821 67.823, 52.079 68.139, 51.108 68.541, 49.875 68.548, 49.593 68.552, 49.417 68.558, 49.186 68.645, 45.578 68.641, 41.951 68.332, 40.229 " />
            <path fill="none" stroke-width="3.0" stroke-linecap="butt" stroke-opacity="1.0" stroke="rgb(0, 0, 0)" stroke-linejoin="round" d=" M 67.639, 38.994 67.917, 39.489 68.332, 40.229 67.931, 39.684 67.685, 39.348 65.202, 35.965 64.717, 35.348 63.928, 34.606 " />
            <path fill="none" stroke-width="3.0" stroke-linecap="butt" stroke-opacity="1.0" stroke="rgb(0, 0, 0)" stroke-linejoin="round" d=" M 195.130, 127.057 195.508, 126.955 192.608, 123.537 187.024, 120.421 182.230, 117.746 181.151, 117.271 171.998, 113.244 164.710, 110.037 155.364, 106.482 146.017, 102.926 141.913, 101.365 132.434, 98.180 122.954, 94.995 117.103, 93.029 107.504, 90.226 97.905, 87.422 94.126, 86.319 91.729, 85.757 " />
            <path fill="none" stroke-width="3.0" stroke-linecap="butt" stroke-opacity="1.0" stroke="rgb(0, 0, 0)" stroke-linejoin="round" d=" M 83.066, 69.755 82.906, 69.744 82.586, 69.722 " />
            <path fill="none" stroke-width="3.0" stroke-linecap="butt" stroke-opacity="1.0" stroke="rgb(0, 0, 0)" stroke-linejoin="round" d=" M 83.066, 69.755 92.928, 71.410 99.776, 72.559 101.546, 72.856 " />
            <path fill="none" stroke-width="3.0" stroke-linecap="butt" stroke-opacity="1.0" stroke="rgb(0, 0, 0)" stroke-linejoin="round" d=" M 195.508, 126.955 195.470, 116.956 195.433, 107.027 193.699, 105.035 192.085, 103.180 " />
            <path fill="none" stroke-width="3.0" stroke-linecap="butt" stroke-opacity="1.0" stroke="rgb(0, 0, 0)" stroke-linejoin="round" d=" M 98.627, 88.948 108.223, 91.762 117.512, 94.485 126.991, 97.671 136.470, 100.856 140.883, 102.339 150.234, 105.885 159.584, 109.432 162.401, 110.500 171.564, 114.505 179.035, 117.769 184.105, 120.558 187.734, 122.554 189.009, 123.255 " />
            <path fill="none" stroke-width="3.0" stroke-linecap="butt" stroke-opacity="1.0" stroke="rgb(0, 0, 0)" stroke-linejoin="round" d=" M 138.435, 125.347 138.866, 125.502 146.083, 128.096 155.493, 131.479 164.904, 134.862 168.209, 136.050 177.525, 139.684 182.163, 141.493 190.551, 144.765 191.257, 145.040 200.049, 149.024 204.248, 150.925 207.186, 153.468 " />
            <path fill="none" stroke-width="3.0" stroke-linecap="butt" stroke-opacity="1.0" stroke="rgb(0, 0, 0)" stroke-linejoin="round" d=" M 192.809, 140.876 190.343, 139.889 181.059, 136.172 171.776, 132.456 169.984, 131.739 169.442, 131.542 160.284, 128.211 150.886, 124.793 141.489, 121.376 139.549, 120.670 " />
            <path fill="none" stroke-width="3.0" stroke-linecap="butt" stroke-opacity="1.0" stroke="rgb(0, 0, 0)" stroke-linejoin="round" d=" M 73.923, 51.734 71.936, 49.907 69.253, 49.026 68.558, 49.186 " />
            <path fill="none" stroke-width="3.0" stroke-linecap="butt" stroke-opacity="1.0" stroke="rgb(0, 0, 0)" stroke-linejoin="round" d=" M 61.289, 69.644 61.340, 69.661 " />
            <path fill="none" stroke-width="3.0" stroke-linecap="butt" stroke-opacity="1.0" stroke="rgb(0, 0, 0)" stroke-linejoin="round" d=" M 68.552, 49.417 69.253, 49.026 " />
            <path fill="none" stroke-width="3.0" stroke-linecap="butt" stroke-opacity="1.0" stroke="rgb(0, 0, 0)" stroke-linejoin="round" d=" M 65.911, 73.439 65.520, 74.000 62.371, 78.525 " />
            <path fill="none" stroke-width="3.0" stroke-linecap="butt" stroke-opacity="1.0" stroke="rgb(0, 0, 0)" stroke-linejoin="round" d=" M 61.773, 68.831 63.916, 70.551 66.486, 72.613 67.218, 73.201 68.138, 73.939 68.554, 74.273 69.540, 75.063 70.351, 73.887 70.648, 73.456 " />
            <path fill="none" stroke-width="3.0" stroke-linecap="butt" stroke-opacity="1.0" stroke="rgb(0, 0, 0)" stroke-linejoin="round" d=" M 62.092, 68.298 67.060, 69.925 " />
            <path fill="none" stroke-width="3.0" stroke-linecap="butt" stroke-opacity="1.0" stroke="rgb(0, 0, 0)" stroke-linejoin="round" d=" M 70.051, 78.190 73.278, 73.574 " />
            <path fill="none" stroke-width="3.0" stroke-linecap="butt" stroke-opacity="1.0" stroke="rgb(0, 0, 0)" stroke-linejoin="round" d=" M 69.771, 51.853 68.139, 51.108 " />
            <path fill="none" stroke-width="3.0" stroke-linecap="butt" stroke-opacity="1.0" stroke="rgb(0, 0, 0)" stroke-linejoin="round" d=" M 189.900, 150.688 189.950, 150.232 190.386, 146.269 " />
        </g>
    </g>
</svg>
