<?xml version='1.0' encoding='ascii'?>
<svg xmlns="http://www.w3.org/2000/svg" version="1.1" width="250" height="250">
    <g id="ViewLayer_LineSet" xmlns:inkscape="http://www.inkscape.org/namespaces/inkscape" inkscape:groupmode="lineset" inkscape:label="ViewLayer_LineSet">
        <g xmlns:inkscape="http://www.inkscape.org/namespaces/inkscape" inkscape:groupmode="layer" id="strokes" inkscape:label="strokes">
            <path fill="none" stroke-width="3.0" stroke-linecap="butt" stroke-opacity="1.0" stroke="rgb(0, 0, 0)" stroke-linejoin="round" d=" M 59.792, 95.675 59.361, 96.218 57.967, 97.971 53.730, 105.097 49.919, 113.781 49.239, 115.978 48.306, 118.996 48.207, 119.317 47.623, 121.207 47.249, 122.416 45.995, 128.545 45.450, 134.898 45.225, 139.443 45.454, 145.065 45.934, 149.600 46.795, 154.201 47.643, 158.175 48.930, 162.495 50.595, 166.971 51.577, 169.184 52.565, 171.408 54.755, 175.615 57.072, 179.408 59.415, 182.610 62.349, 186.542 65.336, 189.792 69.175, 193.632 69.451, 193.909 72.899, 196.572 78.080, 200.572 84.049, 204.157 89.789, 206.778 93.601, 208.403 98.513, 209.788 104.253, 211.209 " />
            <path fill="none" stroke-width="3.0" stroke-linecap="butt" stroke-opacity="1.0" stroke="rgb(0, 0, 0)" stroke-linejoin="round" d=" M 189.911, 123.252 188.919, 118.608 188.562, 117.686 " />
            <path fill="none" stroke-width="3.0" stroke-linecap="butt" stroke-opacity="1.0" stroke="rgb(0, 0, 0)" stroke-linejoin="round" d=" M 170.898, 190.483 174.494, 186.750 176.491, 183.947 181.519, 176.554 " />
            <path fill="none" stroke-width="3.0" stroke-linecap="butt" stroke-opacity="1.0" stroke="rgb(0, 0, 0)" stroke-linejoin="round" d=" M 77.110, 147.431 77.665, 148.831 79.029, 150.898 79.369, 151.194 79.377, 151.201 79.385, 151.208 80.925, 152.553 83.122, 153.776 85.165, 154.214 87.262, 154.137 89.638, 153.303 91.689, 151.968 93.239, 150.115 93.955, 148.796 " />
            <path fill="none" stroke-width="3.0" stroke-linecap="butt" stroke-opacity="1.0" stroke="rgb(0, 0, 0)" stroke-linejoin="round" d=" M 117.417, 98.006 118.005, 99.975 118.058, 100.151 118.510, 103.533 118.551, 107.350 118.567, 107.420 117.448, 115.823 117.172, 116.769 117.134, 116.898 116.220, 120.029 114.714, 124.316 112.958, 128.312 111.015, 131.824 108.953, 134.678 107.495, 136.098 107.120, 136.463 106.843, 136.732 104.756, 137.882 102.765, 138.069 101.434, 137.492 100.943, 137.279 99.365, 135.546 99.067, 134.935 98.820, 134.430 98.098, 132.949 97.203, 129.611 96.731, 125.692 96.708, 121.381 97.144, 116.884 97.920, 112.897 97.954, 112.723 98.002, 112.478 99.205, 108.322 100.728, 104.425 102.508, 100.929 104.477, 97.957 105.562, 96.736 " />
            <path fill="none" stroke-width="3.0" stroke-linecap="butt" stroke-opacity="1.0" stroke="rgb(0, 0, 0)" stroke-linejoin="round" d=" M 77.311, 115.862 76.479, 119.508 76.332, 120.151 75.248, 124.259 74.071, 127.985 73.950, 128.290 73.791, 128.685 72.809, 131.142 71.468, 133.571 70.064, 135.150 68.876, 135.691 68.624, 135.806 67.211, 135.808 65.835, 134.280 64.626, 132.186 63.650, 129.335 62.987, 125.873 62.955, 125.430 62.921, 124.968 62.704, 121.973 62.842, 117.825 63.111, 115.829 63.401, 113.685 64.268, 109.694 65.387, 105.856 66.712, 102.307 67.050, 101.591 67.303, 101.055 68.191, 99.171 69.765, 96.553 70.784, 95.278 " />
            <path fill="none" stroke-width="3.0" stroke-linecap="butt" stroke-opacity="1.0" stroke="rgb(0, 0, 0)" stroke-linejoin="round" d=" M 67.211, 135.808 70.419, 137.241 " />
            <path fill="none" stroke-width="3.0" stroke-linecap="butt" stroke-opacity="1.0" stroke="rgb(0, 0, 0)" stroke-linejoin="round" d=" M 77.764, 95.026 77.875, 95.221 78.528, 97.514 78.888, 100.415 78.998, 103.892 78.769, 106.661 78.743, 106.974 78.689, 107.622 " />
            <path fill="none" stroke-width="3.0" stroke-linecap="butt" stroke-opacity="1.0" stroke="rgb(0, 0, 0)" stroke-linejoin="round" d=" M 80.420, 117.860 77.311, 115.862 78.136, 111.665 78.689, 107.622 81.758, 109.713 " />
            <path fill="none" stroke-width="3.0" stroke-linecap="butt" stroke-opacity="1.0" stroke="rgb(0, 0, 0)" stroke-linejoin="round" d=" M 177.778, 215.690 177.941, 214.918 178.983, 210.001 178.776, 205.962 176.098, 197.377 173.607, 193.204 170.898, 190.483 " />
            <path fill="none" stroke-width="3.0" stroke-linecap="butt" stroke-opacity="1.0" stroke="rgb(0, 0, 0)" stroke-linejoin="round" d=" M 145.106, 246.237 147.813, 246.042 153.625, 244.902 157.490, 243.028 162.098, 239.594 164.969, 236.695 171.381, 229.523 175.584, 222.619 177.172, 219.242 177.941, 214.918 " />
            <path fill="none" stroke-width="3.0" stroke-linecap="butt" stroke-opacity="1.0" stroke="rgb(0, 0, 0)" stroke-linejoin="round" d=" M 127.664, 247.442 130.580, 247.602 138.952, 247.230 145.106, 246.237 146.717, 245.976 " />
            <path fill="none" stroke-width="3.0" stroke-linecap="butt" stroke-opacity="1.0" stroke="rgb(0, 0, 0)" stroke-linejoin="round" d=" M 106.078, 206.709 104.278, 211.146 104.253, 211.209 101.655, 218.013 100.574, 222.197 100.280, 226.141 100.363, 229.070 100.396, 230.214 100.463, 232.596 101.484, 236.165 103.740, 239.607 106.318, 242.582 110.422, 244.982 115.973, 246.466 121.366, 247.300 127.664, 247.442 127.789, 247.445 " />
            <path fill="none" stroke-width="3.0" stroke-linecap="butt" stroke-opacity="1.0" stroke="rgb(0, 0, 0)" stroke-linejoin="round" d=" M 69.175, 193.632 69.156, 193.670 67.643, 197.424 65.584, 203.725 64.885, 207.208 64.664, 211.969 64.552, 215.253 65.114, 218.022 66.918, 222.764 68.152, 225.403 71.545, 228.905 75.910, 231.668 80.289, 232.952 82.584, 233.534 87.091, 233.747 93.006, 233.051 98.900, 231.017 100.396, 230.214 " />
            <path fill="none" stroke-width="3.0" stroke-linecap="butt" stroke-opacity="1.0" stroke="rgb(0, 0, 0)" stroke-linejoin="round" d=" M 180.153, 175.844 181.519, 176.554 186.209, 178.995 190.991, 180.573 195.456, 181.462 199.907, 181.637 203.658, 181.070 207.071, 180.025 210.175, 178.467 213.015, 176.438 215.534, 174.026 217.637, 171.080 219.198, 167.984 220.186, 164.764 220.294, 164.047 220.720, 160.445 220.571, 156.631 219.540, 152.276 217.730, 148.072 215.101, 143.688 210.754, 138.362 206.847, 134.405 206.410, 133.963 206.254, 133.804 201.832, 129.843 197.164, 126.607 192.096, 124.054 189.911, 123.252 " />
            <path fill="none" stroke-width="3.0" stroke-linecap="butt" stroke-opacity="1.0" stroke="rgb(0, 0, 0)" stroke-linejoin="round" d=" M 47.623, 121.207 44.098, 123.792 42.481, 125.216 38.886, 128.685 35.228, 132.606 31.765, 137.100 29.854, 140.770 28.591, 144.274 27.961, 147.862 27.738, 149.296 27.765, 151.999 28.214, 154.663 28.739, 156.435 29.927, 159.252 31.851, 162.249 32.019, 162.424 34.184, 164.665 36.533, 166.482 38.678, 167.715 40.810, 168.529 42.222, 168.967 45.144, 169.631 48.643, 169.671 51.577, 169.184 " />
            <path fill="none" stroke-width="3.0" stroke-linecap="butt" stroke-opacity="1.0" stroke="rgb(0, 0, 0)" stroke-linejoin="round" d=" M 118.779, 66.015 119.548, 65.420 119.697, 65.115 119.735, 65.038 121.402, 61.621 122.388, 59.046 122.369, 55.356 121.351, 52.662 119.445, 48.966 117.607, 47.633 " />
            <path fill="none" stroke-width="3.0" stroke-linecap="butt" stroke-opacity="1.0" stroke="rgb(0, 0, 0)" stroke-linejoin="round" d=" M 56.076, 51.062 55.978, 51.340 54.460, 55.622 52.819, 61.705 52.249, 69.541 52.539, 70.823 54.192, 76.093 56.684, 77.373 60.298, 78.196 61.833, 78.546 62.190, 78.591 65.721, 79.041 71.736, 77.967 77.305, 76.537 82.834, 74.319 82.897, 74.294 " />
            <path fill="none" stroke-width="3.0" stroke-linecap="butt" stroke-opacity="1.0" stroke="rgb(0, 0, 0)" stroke-linejoin="round" d=" M 33.785, 108.356 31.573, 103.675 32.754, 102.483 37.456, 97.739 42.059, 96.507 50.130, 94.346 53.160, 93.535 56.135, 93.413 58.932, 93.299 61.774, 93.182 71.766, 92.773 74.249, 92.672 74.968, 92.642 79.968, 92.437 89.940, 93.194 99.911, 93.951 107.921, 94.559 113.718, 94.999 116.169, 95.429 116.196, 95.434 126.046, 97.161 135.895, 98.889 145.745, 100.617 147.741, 100.967 157.394, 103.579 167.046, 106.192 176.699, 108.804 177.179, 108.934 178.221, 109.374 178.429, 109.461 183.150, 111.454 " />
            <path fill="none" stroke-width="3.0" stroke-linecap="butt" stroke-opacity="1.0" stroke="rgb(0, 0, 0)" stroke-linejoin="round" d=" M 206.410, 133.963 206.766, 133.746 206.403, 127.182 199.991, 122.157 197.996, 120.593 " />
            <path fill="none" stroke-width="3.0" stroke-linecap="butt" stroke-opacity="1.0" stroke="rgb(0, 0, 0)" stroke-linejoin="round" d=" M 44.950, 98.904 54.691, 96.643 58.688, 95.715 " />
            <path fill="none" stroke-width="3.0" stroke-linecap="butt" stroke-opacity="1.0" stroke="rgb(0, 0, 0)" stroke-linejoin="round" d=" M 38.813, 113.324 45.639, 117.880 47.119, 118.863 48.207, 119.317 " />
            <path fill="none" stroke-width="3.0" stroke-linecap="butt" stroke-opacity="1.0" stroke="rgb(0, 0, 0)" stroke-linejoin="round" d=" M 55.960, 95.814 46.223, 98.092 45.746, 98.204 41.085, 99.294 39.786, 99.598 33.775, 105.318 34.538, 106.981 " />
            <path fill="none" stroke-width="3.0" stroke-linecap="butt" stroke-opacity="1.0" stroke="rgb(0, 0, 0)" stroke-linejoin="round" d=" M 55.960, 95.814 58.688, 95.715 58.779, 95.712 59.792, 95.675 60.651, 95.644 70.645, 95.283 70.784, 95.278 76.886, 95.057 77.764, 95.026 78.871, 94.986 81.516, 94.890 91.486, 95.655 101.457, 96.421 105.562, 96.736 110.527, 97.117 113.471, 97.343 117.417, 98.006 117.856, 98.079 117.881, 98.084 127.743, 99.740 137.604, 101.397 145.982, 102.805 146.810, 102.944 156.470, 105.528 166.130, 108.112 175.786, 110.695 179.372, 112.188 184.927, 114.501 " />
            <path fill="none" stroke-width="3.0" stroke-linecap="butt" stroke-opacity="1.0" stroke="rgb(0, 0, 0)" stroke-linejoin="round" d=" M 57.439, 80.583 49.096, 85.041 47.607, 85.837 47.250, 86.027 40.988, 90.159 36.181, 94.138 33.011, 97.401 31.198, 100.293 30.027, 103.367 30.021, 105.854 30.485, 108.040 34.817, 112.302 37.499, 113.782 38.813, 113.324 38.818, 113.322 40.762, 112.644 41.954, 111.831 43.621, 110.692 45.208, 105.594 " />
            <path fill="none" stroke-width="3.0" stroke-linecap="butt" stroke-opacity="1.0" stroke="rgb(0, 0, 0)" stroke-linejoin="round" d=" M 33.218, 109.635 30.485, 108.040 " />
            <path fill="none" stroke-width="3.0" stroke-linecap="butt" stroke-opacity="1.0" stroke="rgb(0, 0, 0)" stroke-linejoin="round" d=" M 43.621, 110.692 39.888, 108.210 " />
            <path fill="none" stroke-width="3.0" stroke-linecap="butt" stroke-opacity="1.0" stroke="rgb(0, 0, 0)" stroke-linejoin="round" d=" M 40.729, 105.973 39.888, 108.210 36.464, 109.173 " />
            <path fill="none" stroke-width="3.0" stroke-linecap="butt" stroke-opacity="1.0" stroke="rgb(0, 0, 0)" stroke-linejoin="round" d=" M 62.190, 78.591 59.236, 79.829 57.439, 80.583 50.482, 83.959 47.607, 85.837 " />
            <path fill="none" stroke-width="3.0" stroke-linecap="butt" stroke-opacity="1.0" stroke="rgb(0, 0, 0)" stroke-linejoin="round" d=" M 47.250, 86.027 47.428, 85.953 49.959, 84.902 50.164, 84.817 52.681, 83.772 55.726, 82.507 57.932, 81.834 67.361, 78.958 77.305, 77.904 79.250, 77.698 80.463, 77.569 81.834, 77.529 87.702, 77.357 89.694, 77.438 90.052, 77.453 " />
            <path fill="none" stroke-width="3.0" stroke-linecap="butt" stroke-opacity="1.0" stroke="rgb(0, 0, 0)" stroke-linejoin="round" d=" M 179.372, 112.188 180.085, 113.933 183.106, 115.340 183.346, 115.443 184.671, 116.013 188.562, 117.686 196.959, 121.298 197.022, 121.255 197.996, 120.593 198.712, 120.108 199.165, 119.800 199.414, 118.712 200.001, 116.153 197.096, 111.575 192.333, 106.958 190.596, 105.275 183.034, 99.809 181.115, 98.380 179.431, 97.126 176.954, 95.280 176.813, 95.176 172.454, 92.593 168.273, 90.115 161.808, 87.404 157.085, 85.423 156.759, 85.321 147.214, 82.338 144.367, 81.447 134.753, 78.696 131.565, 77.784 121.706, 76.112 118.699, 75.602 109.291, 74.081 107.501, 73.791 " />
            <path fill="none" stroke-width="3.0" stroke-linecap="butt" stroke-opacity="1.0" stroke="rgb(0, 0, 0)" stroke-linejoin="round" d=" M 102.382, 78.391 107.784, 78.940 111.471, 79.315 113.133, 79.721 122.848, 82.092 128.132, 83.381 137.736, 86.165 142.543, 87.557 142.992, 87.732 152.318, 91.343 155.389, 92.533 164.544, 96.556 166.546, 97.436 174.921, 101.522 181.377, 105.150 184.666, 107.627 186.453, 108.973 187.639, 110.856 188.093, 111.577 188.341, 111.970 188.629, 113.987 188.707, 114.537 187.614, 115.240 187.255, 115.471 186.169, 116.169 " />
            <path fill="none" stroke-width="3.0" stroke-linecap="butt" stroke-opacity="1.0" stroke="rgb(0, 0, 0)" stroke-linejoin="round" d=" M 99.133, 74.870 100.079, 73.517 102.932, 69.435 103.449, 67.665 103.894, 66.140 104.225, 65.006 104.470, 64.168 104.908, 62.669 105.267, 61.437 105.353, 61.145 105.889, 54.733 105.878, 53.005 105.871, 51.909 105.861, 50.411 105.858, 49.955 " />
            <path fill="none" stroke-width="3.0" stroke-linecap="butt" stroke-opacity="1.0" stroke="rgb(0, 0, 0)" stroke-linejoin="round" d=" M 76.872, 69.678 80.424, 71.995 83.149, 73.309 83.923, 73.683 85.018, 74.211 85.580, 74.483 93.105, 76.029 99.133, 74.870 99.688, 75.541 100.339, 76.327 102.003, 77.666 103.143, 78.065 103.457, 78.174 " />
            <path fill="none" stroke-width="3.0" stroke-linecap="butt" stroke-opacity="1.0" stroke="rgb(0, 0, 0)" stroke-linejoin="round" d=" M 54.192, 76.093 53.870, 74.708 " />
            <path fill="none" stroke-width="3.0" stroke-linecap="butt" stroke-opacity="1.0" stroke="rgb(0, 0, 0)" stroke-linejoin="round" d=" M 79.897, 72.566 77.629, 71.001 76.872, 69.678 72.523, 71.990 66.642, 74.422 62.206, 75.261 59.010, 75.865 53.870, 74.708 52.249, 69.541 " />
            <path fill="none" stroke-width="3.0" stroke-linecap="butt" stroke-opacity="1.0" stroke="rgb(0, 0, 0)" stroke-linejoin="round" d=" M 110.687, 57.514 110.880, 57.243 110.886, 57.233 111.153, 56.859 114.213, 52.556 114.466, 52.188 117.607, 47.633 118.894, 45.766 122.566, 40.104 122.707, 39.589 124.110, 34.448 124.161, 31.239 122.977, 28.951 119.494, 24.700 114.215, 22.271 111.279, 21.146 105.536, 20.048 103.078, 19.788 101.148, 19.585 " />
            <path fill="none" stroke-width="3.0" stroke-linecap="butt" stroke-opacity="1.0" stroke="rgb(0, 0, 0)" stroke-linejoin="round" d=" M 53.296, 47.519 52.563, 46.282 50.301, 42.463 48.878, 37.059 49.349, 31.548 53.706, 27.323 60.750, 23.761 66.446, 22.127 70.763, 21.223 73.356, 17.219 77.249, 12.021 83.333, 6.218 88.746, 3.508 93.363, 5.524 97.636, 10.729 99.857, 15.681 101.148, 19.585 " />
            <path fill="none" stroke-width="3.0" stroke-linecap="butt" stroke-opacity="1.0" stroke="rgb(0, 0, 0)" stroke-linejoin="round" d=" M 108.993, 53.096 107.491, 51.300 107.198, 50.949 106.007, 50.066 105.858, 49.955 106.166, 49.689 106.665, 49.256 110.390, 46.025 110.729, 45.674 115.847, 40.378 116.107, 39.972 119.688, 34.382 121.365, 28.391 117.957, 24.222 111.279, 21.146 " />
            <path fill="none" stroke-width="3.0" stroke-linecap="butt" stroke-opacity="1.0" stroke="rgb(0, 0, 0)" stroke-linejoin="round" d=" M 52.563, 46.282 52.581, 46.319 53.296, 47.519 55.978, 51.340 " />
            <path fill="none" stroke-width="3.0" stroke-linecap="butt" stroke-opacity="1.0" stroke="rgb(0, 0, 0)" stroke-linejoin="round" d=" M 103.078, 19.788 102.187, 17.514 99.703, 12.692 98.278, 10.368 94.393, 5.646 89.686, 3.592 88.746, 3.508 " />
            <path fill="none" stroke-width="3.0" stroke-linecap="butt" stroke-opacity="1.0" stroke="rgb(0, 0, 0)" stroke-linejoin="round" d=" M 53.296, 47.519 56.076, 51.062 " />
            <path fill="none" stroke-width="3.0" stroke-linecap="butt" stroke-opacity="1.0" stroke="rgb(0, 0, 0)" stroke-linejoin="round" d=" M 191.358, 102.232 188.452, 92.663 186.424, 85.987 185.419, 84.919 184.209, 80.582 179.352, 71.841 178.096, 69.582 171.553, 62.020 170.447, 60.742 164.766, 55.171 156.783, 49.149 156.448, 48.896 149.225, 45.003 142.958, 42.906 138.063, 41.298 137.136, 40.993 130.685, 39.839 126.772, 39.676 124.326, 39.574 122.707, 39.589 " />
            <path fill="none" stroke-width="3.0" stroke-linecap="butt" stroke-opacity="1.0" stroke="rgb(0, 0, 0)" stroke-linejoin="round" d=" M 79.897, 72.566 82.079, 73.822 82.850, 74.267 82.897, 74.294 83.834, 74.833 84.661, 75.309 84.775, 75.375 88.389, 76.798 89.968, 77.420 90.052, 77.453 90.802, 77.748 91.160, 77.838 92.253, 78.111 94.732, 78.638 97.862, 79.304 100.069, 78.859 102.382, 78.391 103.457, 78.174 103.516, 78.090 104.228, 77.073 106.548, 73.756 106.602, 73.679 107.401, 72.536 108.637, 68.867 108.845, 68.249 109.136, 66.730 109.458, 65.043 109.570, 64.459 110.264, 60.825 110.687, 57.514 110.739, 57.105 110.777, 56.803 110.848, 56.251 110.914, 55.728 " />
            <path fill="none" stroke-width="3.0" stroke-linecap="butt" stroke-opacity="1.0" stroke="rgb(0, 0, 0)" stroke-linejoin="round" d=" M 186.425, 99.129 183.142, 96.328 174.603, 92.411 166.860, 88.859 161.808, 87.404 " />
            <path fill="none" stroke-width="3.0" stroke-linecap="butt" stroke-opacity="1.0" stroke="rgb(0, 0, 0)" stroke-linejoin="round" d=" M 121.297, 65.127 119.735, 65.038 " />
            <path fill="none" stroke-width="3.0" stroke-linecap="butt" stroke-opacity="1.0" stroke="rgb(0, 0, 0)" stroke-linejoin="round" d=" M 121.297, 65.127 131.174, 66.691 141.051, 68.256 145.080, 68.895 " />
            <path fill="none" stroke-width="3.0" stroke-linecap="butt" stroke-opacity="1.0" stroke="rgb(0, 0, 0)" stroke-linejoin="round" d=" M 138.063, 41.298 137.597, 40.663 134.259, 39.260 130.200, 38.811 127.031, 39.493 126.772, 39.676 " />
            <path fill="none" stroke-width="3.0" stroke-linecap="butt" stroke-opacity="1.0" stroke="rgb(0, 0, 0)" stroke-linejoin="round" d=" M 206.847, 134.405 209.017, 133.098 209.883, 129.391 209.731, 122.330 205.900, 116.849 200.119, 109.767 192.537, 103.246 191.358, 102.232 190.568, 101.552 186.425, 99.129 185.133, 98.374 176.122, 94.265 172.454, 92.593 " />
            <path fill="none" stroke-width="3.0" stroke-linecap="butt" stroke-opacity="1.0" stroke="rgb(0, 0, 0)" stroke-linejoin="round" d=" M 199.414, 118.712 207.216, 124.968 208.801, 126.239 209.017, 133.098 " />
            <path fill="none" stroke-width="3.0" stroke-linecap="butt" stroke-opacity="1.0" stroke="rgb(0, 0, 0)" stroke-linejoin="round" d=" M 44.704, 88.852 43.542, 89.726 38.075, 93.770 32.011, 100.026 31.573, 103.675 " />
            <path fill="none" stroke-width="3.0" stroke-linecap="butt" stroke-opacity="1.0" stroke="rgb(0, 0, 0)" stroke-linejoin="round" d=" M 209.731, 122.330 202.043, 115.935 199.463, 113.788 " />
            <path fill="none" stroke-width="3.0" stroke-linecap="butt" stroke-opacity="1.0" stroke="rgb(0, 0, 0)" stroke-linejoin="round" d=" M 38.818, 113.322 47.119, 118.863 " />
            <path fill="none" stroke-width="3.0" stroke-linecap="butt" stroke-opacity="1.0" stroke="rgb(0, 0, 0)" stroke-linejoin="round" d=" M 60.298, 78.196 59.236, 79.829 " />
            <path fill="none" stroke-width="3.0" stroke-linecap="butt" stroke-opacity="1.0" stroke="rgb(0, 0, 0)" stroke-linejoin="round" d=" M 107.279, 73.783 107.372, 73.471 108.748, 68.865 " />
            <path fill="none" stroke-width="3.0" stroke-linecap="butt" stroke-opacity="1.0" stroke="rgb(0, 0, 0)" stroke-linejoin="round" d=" M 108.637, 68.867 108.748, 68.865 110.916, 68.835 " />
            <path fill="none" stroke-width="3.0" stroke-linecap="butt" stroke-opacity="1.0" stroke="rgb(0, 0, 0)" stroke-linejoin="round" d=" M 197.022, 121.255 201.685, 124.870 " />
        </g>
    </g>
</svg>
