<?xml version='1.0' encoding='ascii'?>
<svg xmlns="http://www.w3.org/2000/svg" version="1.1" width="250" height="250">
    <g id="ViewLayer_LineSet" xmlns:inkscape="http://www.inkscape.org/namespaces/inkscape" inkscape:groupmode="lineset" inkscape:label="ViewLayer_LineSet">
        <g xmlns:inkscape="http://www.inkscape.org/namespaces/inkscape" inkscape:groupmode="layer" id="strokes" inkscape:label="strokes">
            <path fill="none" stroke-width="3.0" stroke-linecap="butt" stroke-opacity="1.0" stroke="rgb(0, 0, 0)" stroke-linejoin="round" d=" M 164.919, 199.836 166.778, 198.485 173.732, 191.299 174.396, 190.613 176.393, 187.706 182.025, 179.442 182.726, 178.415 182.727, 178.412 " />
            <path fill="none" stroke-width="3.0" stroke-linecap="butt" stroke-opacity="1.0" stroke="rgb(0, 0, 0)" stroke-linejoin="round" d=" M 59.315, 100.190 57.986, 101.860 53.753, 108.965 49.945, 117.630 49.385, 119.444 48.450, 122.471 48.345, 122.814 48.008, 123.904 47.278, 126.269 46.026, 132.430 45.482, 138.814 45.256, 143.295 45.485, 148.957 45.965, 153.446 46.825, 158.098 47.672, 162.043 48.957, 166.343 50.621, 170.807 52.317, 174.629 52.589, 175.242 54.777, 179.456 57.092, 183.265 59.432, 186.492 62.364, 190.369 65.348, 193.660 69.458, 197.731 72.903, 200.454 78.079, 204.418 79.333, 205.166 84.042, 207.974 89.776, 210.560 93.585, 212.232 97.090, 213.249 " />
            <path fill="none" stroke-width="3.0" stroke-linecap="butt" stroke-opacity="1.0" stroke="rgb(0, 0, 0)" stroke-linejoin="round" d=" M 189.576, 126.110 188.807, 122.515 188.679, 122.184 " />
            <path fill="none" stroke-width="3.0" stroke-linecap="butt" stroke-opacity="1.0" stroke="rgb(0, 0, 0)" stroke-linejoin="round" d=" M 77.110, 151.842 77.664, 153.243 78.344, 154.276 79.027, 155.313 80.921, 156.975 83.115, 158.208 85.156, 158.656 87.250, 158.588 89.623, 157.766 91.672, 156.442 93.220, 154.599 93.936, 153.284 " />
            <path fill="none" stroke-width="3.0" stroke-linecap="butt" stroke-opacity="1.0" stroke="rgb(0, 0, 0)" stroke-linejoin="round" d=" M 117.439, 102.763 117.543, 103.115 118.011, 104.687 118.462, 108.079 118.503, 111.907 118.519, 111.975 117.450, 120.020 117.436, 120.130 117.400, 120.397 116.174, 124.613 114.670, 128.904 112.916, 132.902 110.975, 136.413 108.916, 139.264 108.789, 139.388 108.398, 139.768 106.808, 141.314 104.723, 142.460 102.735, 142.642 101.462, 142.087 100.915, 141.848 99.338, 140.113 98.246, 137.869 98.073, 137.514 98.030, 137.355 97.180, 134.173 96.708, 130.251 96.685, 125.935 97.121, 121.432 97.977, 117.018 98.216, 116.191 98.258, 116.045 99.180, 112.853 100.700, 108.948 102.479, 105.445 104.446, 102.468 105.349, 101.449 " />
            <path fill="none" stroke-width="3.0" stroke-linecap="butt" stroke-opacity="1.0" stroke="rgb(0, 0, 0)" stroke-linejoin="round" d=" M 77.310, 120.323 76.333, 124.618 76.150, 125.311 75.250, 128.728 74.342, 131.604 74.209, 132.025 74.075, 132.451 72.814, 135.602 71.474, 138.021 70.072, 139.590 68.925, 140.104 68.633, 140.234 67.223, 140.225 65.847, 138.684 64.640, 136.578 63.665, 133.715 63.003, 130.241 62.891, 128.696 62.856, 128.215 62.719, 126.330 62.857, 122.170 63.150, 119.993 63.416, 118.018 64.282, 114.017 65.400, 110.172 66.724, 106.619 67.391, 105.202 67.628, 104.698 68.201, 103.480 69.773, 100.863 70.571, 99.866 " />
            <path fill="none" stroke-width="3.0" stroke-linecap="butt" stroke-opacity="1.0" stroke="rgb(0, 0, 0)" stroke-linejoin="round" d=" M 67.223, 140.225 70.426, 141.598 " />
            <path fill="none" stroke-width="3.0" stroke-linecap="butt" stroke-opacity="1.0" stroke="rgb(0, 0, 0)" stroke-linejoin="round" d=" M 77.891, 99.656 78.527, 101.905 78.886, 104.823 78.996, 108.315 78.853, 110.044 78.830, 110.328 78.687, 112.060 " />
            <path fill="none" stroke-width="3.0" stroke-linecap="butt" stroke-opacity="1.0" stroke="rgb(0, 0, 0)" stroke-linejoin="round" d=" M 80.417, 122.260 77.310, 120.323 78.134, 116.116 78.687, 112.060 81.753, 114.091 " />
            <path fill="none" stroke-width="3.0" stroke-linecap="butt" stroke-opacity="1.0" stroke="rgb(0, 0, 0)" stroke-linejoin="round" d=" M 112.929, 194.068 107.856, 196.475 103.503, 199.706 100.472, 203.538 98.494, 207.387 97.351, 211.214 97.090, 213.249 96.890, 214.799 97.252, 218.652 98.637, 222.751 101.139, 225.744 104.902, 228.153 108.846, 230.602 108.938, 230.643 113.956, 232.879 120.549, 234.795 126.765, 236.533 132.586, 237.917 138.189, 238.945 144.229, 239.716 148.377, 240.124 155.670, 240.684 160.684, 240.733 165.153, 240.079 168.937, 238.522 173.159, 234.619 175.501, 230.990 176.896, 227.100 177.314, 222.490 176.579, 217.517 174.165, 211.361 173.210, 209.363 168.806, 203.213 164.919, 199.836 163.258, 198.392 159.235, 196.237 152.896, 193.263 " />
            <path fill="none" stroke-width="3.0" stroke-linecap="butt" stroke-opacity="1.0" stroke="rgb(0, 0, 0)" stroke-linejoin="round" d=" M 79.333, 205.166 78.757, 207.730 78.672, 210.794 78.621, 215.134 79.067, 217.775 80.187, 220.370 82.041, 224.607 85.368, 227.800 89.577, 230.322 91.727, 231.015 95.737, 232.181 99.996, 232.386 105.544, 231.776 108.938, 230.643 " />
            <path fill="none" stroke-width="3.0" stroke-linecap="butt" stroke-opacity="1.0" stroke="rgb(0, 0, 0)" stroke-linejoin="round" d=" M 182.727, 178.412 185.906, 179.830 188.704, 180.613 192.881, 181.731 196.707, 182.200 200.433, 181.982 205.170, 180.755 207.398, 179.743 207.895, 179.475 209.619, 178.405 212.233, 176.364 214.703, 173.683 216.693, 170.357 217.890, 167.245 218.401, 165.292 218.660, 163.651 218.796, 162.359 218.825, 159.485 218.150, 156.126 217.668, 153.935 216.275, 150.209 214.180, 146.319 210.401, 141.579 206.944, 138.005 206.547, 137.595 206.409, 137.452 202.484, 133.804 200.459, 132.067 196.287, 129.138 191.713, 126.862 189.576, 126.110 " />
            <path fill="none" stroke-width="3.0" stroke-linecap="butt" stroke-opacity="1.0" stroke="rgb(0, 0, 0)" stroke-linejoin="round" d=" M 48.008, 123.904 44.313, 125.882 40.098, 128.959 36.117, 132.696 32.068, 136.986 28.175, 141.981 25.841, 146.070 24.258, 149.975 23.398, 153.998 23.339, 157.500 23.807, 160.791 24.828, 163.868 26.335, 166.650 26.603, 167.128 28.598, 169.763 30.965, 171.895 33.623, 173.664 36.520, 174.991 39.703, 175.834 43.189, 176.229 47.295, 175.923 51.387, 174.968 52.317, 174.629 " />
            <path fill="none" stroke-width="3.0" stroke-linecap="butt" stroke-opacity="1.0" stroke="rgb(0, 0, 0)" stroke-linejoin="round" d=" M 116.253, 72.352 119.500, 69.871 119.518, 69.836 119.663, 69.541 119.699, 69.467 121.352, 66.109 122.337, 63.514 122.318, 59.835 121.301, 57.175 119.397, 53.462 117.694, 52.215 " />
            <path fill="none" stroke-width="3.0" stroke-linecap="butt" stroke-opacity="1.0" stroke="rgb(0, 0, 0)" stroke-linejoin="round" d=" M 56.100, 55.734 56.007, 55.996 54.486, 60.298 52.847, 66.387 52.278, 74.240 52.568, 75.501 54.219, 80.792 56.708, 82.026 59.855, 82.761 61.359, 83.112 61.851, 83.227 65.734, 83.662 71.434, 82.665 71.742, 82.611 74.174, 81.991 77.305, 81.192 82.720, 79.037 82.791, 79.009 " />
            <path fill="none" stroke-width="3.0" stroke-linecap="butt" stroke-opacity="1.0" stroke="rgb(0, 0, 0)" stroke-linejoin="round" d=" M 33.817, 112.112 31.619, 107.630 32.799, 106.494 37.499, 101.972 41.760, 100.903 49.573, 98.941 53.187, 98.034 57.124, 97.903 59.116, 97.836 61.244, 97.765 71.239, 97.431 73.369, 97.360 76.057, 97.270 76.077, 97.269 79.965, 97.140 89.934, 97.925 99.903, 98.710 107.567, 99.313 113.673, 99.794 116.289, 100.250 116.358, 100.262 126.210, 101.979 136.061, 103.695 145.913, 105.412 147.656, 105.716 157.320, 108.283 166.985, 110.851 176.650, 113.418 177.062, 113.528 178.186, 113.990 178.968, 114.311 183.047, 115.987 185.891, 117.156 " />
            <path fill="none" stroke-width="3.0" stroke-linecap="butt" stroke-opacity="1.0" stroke="rgb(0, 0, 0)" stroke-linejoin="round" d=" M 206.547, 137.595 206.640, 137.541 206.269, 131.245 200.106, 126.577 197.892, 124.900 " />
            <path fill="none" stroke-width="3.0" stroke-linecap="butt" stroke-opacity="1.0" stroke="rgb(0, 0, 0)" stroke-linejoin="round" d=" M 39.016, 108.265 40.879, 106.649 44.984, 103.090 54.757, 100.969 58.197, 100.222 " />
            <path fill="none" stroke-width="3.0" stroke-linecap="butt" stroke-opacity="1.0" stroke="rgb(0, 0, 0)" stroke-linejoin="round" d=" M 38.878, 116.981 47.146, 122.327 48.345, 122.814 " />
            <path fill="none" stroke-width="3.0" stroke-linecap="butt" stroke-opacity="1.0" stroke="rgb(0, 0, 0)" stroke-linejoin="round" d=" M 55.984, 100.285 46.215, 102.420 45.413, 102.595 41.090, 103.540 39.826, 103.816 33.818, 109.263 34.556, 110.810 " />
            <path fill="none" stroke-width="3.0" stroke-linecap="butt" stroke-opacity="1.0" stroke="rgb(0, 0, 0)" stroke-linejoin="round" d=" M 55.984, 100.285 58.197, 100.222 59.315, 100.190 59.811, 100.175 61.648, 100.123 70.571, 99.866 75.970, 99.711 77.891, 99.656 79.309, 99.615 81.510, 99.552 91.479, 100.345 101.447, 101.139 105.349, 101.449 110.116, 101.829 113.427, 102.092 117.439, 102.763 118.027, 102.861 127.890, 104.510 130.010, 104.864 139.873, 106.513 146.726, 107.658 156.398, 110.198 166.070, 112.738 175.671, 115.259 179.306, 116.733 184.157, 118.699 " />
            <path fill="none" stroke-width="3.0" stroke-linecap="butt" stroke-opacity="1.0" stroke="rgb(0, 0, 0)" stroke-linejoin="round" d=" M 41.025, 94.290 36.223, 98.184 33.056, 101.380 31.244, 104.215 30.074, 107.241 30.066, 109.703 30.531, 111.876 34.856, 115.978 37.535, 117.451 38.878, 116.981 38.914, 116.969 40.796, 116.311 42.084, 115.433 43.652, 114.364 45.237, 109.290 " />
            <path fill="none" stroke-width="3.0" stroke-linecap="butt" stroke-opacity="1.0" stroke="rgb(0, 0, 0)" stroke-linejoin="round" d=" M 33.261, 113.467 30.531, 111.876 " />
            <path fill="none" stroke-width="3.0" stroke-linecap="butt" stroke-opacity="1.0" stroke="rgb(0, 0, 0)" stroke-linejoin="round" d=" M 43.652, 114.364 39.924, 112.043 " />
            <path fill="none" stroke-width="3.0" stroke-linecap="butt" stroke-opacity="1.0" stroke="rgb(0, 0, 0)" stroke-linejoin="round" d=" M 40.822, 109.663 39.924, 112.043 36.503, 113.006 " />
            <path fill="none" stroke-width="3.0" stroke-linecap="butt" stroke-opacity="1.0" stroke="rgb(0, 0, 0)" stroke-linejoin="round" d=" M 57.459, 84.704 50.509, 87.994 42.178, 93.525 41.025, 94.290 47.282, 90.254 48.222, 89.742 57.001, 84.954 57.459, 84.704 59.005, 84.073 61.359, 83.112 " />
            <path fill="none" stroke-width="3.0" stroke-linecap="butt" stroke-opacity="1.0" stroke="rgb(0, 0, 0)" stroke-linejoin="round" d=" M 47.282, 90.254 49.436, 89.384 49.716, 89.271 53.435, 87.768 55.749, 86.833 57.565, 86.295 67.153, 83.455 67.372, 83.391 77.323, 82.407 78.123, 82.328 80.459, 82.097 81.783, 82.065 87.689, 81.923 88.566, 81.963 89.351, 81.998 " />
            <path fill="none" stroke-width="3.0" stroke-linecap="butt" stroke-opacity="1.0" stroke="rgb(0, 0, 0)" stroke-linejoin="round" d=" M 179.306, 116.733 179.969, 118.355 182.069, 119.355 182.985, 119.791 183.287, 119.918 188.679, 122.184 196.827, 125.609 196.999, 125.494 197.892, 124.900 198.721, 124.347 199.029, 124.142 199.283, 123.038 199.864, 120.515 196.962, 115.962 192.330, 111.480 190.469, 109.680 185.053, 105.780 182.915, 104.240 178.347, 100.851 177.967, 100.570 176.701, 99.630 171.449, 96.532 168.169, 94.598 160.822, 91.527 159.163, 90.834 156.993, 89.927 147.449, 86.945 144.290, 85.958 134.677, 83.203 131.503, 82.294 121.646, 80.609 118.651, 80.097 109.241, 78.555 107.466, 78.264 " />
            <path fill="none" stroke-width="3.0" stroke-linecap="butt" stroke-opacity="1.0" stroke="rgb(0, 0, 0)" stroke-linejoin="round" d=" M 102.965, 83.073 107.698, 83.568 111.431, 83.958 111.866, 84.064 121.577, 86.451 128.071, 88.047 137.675, 90.835 141.430, 91.925 142.465, 92.226 151.793, 95.830 155.297, 97.184 164.457, 101.196 166.441, 102.065 174.806, 106.127 181.255, 109.726 184.913, 112.463 186.326, 113.520 187.338, 115.116 187.643, 115.597 188.213, 116.495 188.388, 117.720 188.579, 119.046 187.682, 119.612 187.185, 119.927 186.045, 120.648 " />
            <path fill="none" stroke-width="3.0" stroke-linecap="butt" stroke-opacity="1.0" stroke="rgb(0, 0, 0)" stroke-linejoin="round" d=" M 99.106, 79.823 99.345, 79.481 100.397, 77.975 102.899, 74.395 103.751, 71.473 104.010, 70.582 104.366, 69.363 104.598, 68.567 105.033, 67.074 105.239, 66.367 105.317, 66.096 105.854, 59.672 105.839, 57.330 105.833, 56.401 105.824, 55.012 105.823, 54.882 " />
            <path fill="none" stroke-width="3.0" stroke-linecap="butt" stroke-opacity="1.0" stroke="rgb(0, 0, 0)" stroke-linejoin="round" d=" M 76.872, 74.504 80.419, 76.845 82.937, 78.077 83.007, 78.111 84.046, 78.620 85.570, 79.366 93.085, 80.955 95.961, 80.414 99.106, 79.823 100.310, 81.262 101.883, 82.478 101.972, 82.548 103.425, 82.983 " />
            <path fill="none" stroke-width="3.0" stroke-linecap="butt" stroke-opacity="1.0" stroke="rgb(0, 0, 0)" stroke-linejoin="round" d=" M 54.219, 80.792 53.898, 79.429 " />
            <path fill="none" stroke-width="3.0" stroke-linecap="butt" stroke-opacity="1.0" stroke="rgb(0, 0, 0)" stroke-linejoin="round" d=" M 79.893, 77.317 77.628, 75.807 76.872, 74.504 72.528, 76.800 66.654, 79.208 61.546, 80.151 59.031, 80.615 53.898, 79.429 52.278, 74.240 " />
            <path fill="none" stroke-width="3.0" stroke-linecap="butt" stroke-opacity="1.0" stroke="rgb(0, 0, 0)" stroke-linejoin="round" d=" M 110.659, 62.185 110.905, 61.839 110.996, 61.712 111.216, 61.403 114.169, 57.260 114.508, 56.774 117.694, 52.215 118.844, 50.570 122.511, 44.921 122.912, 43.448 124.053, 39.259 124.104, 36.119 122.920, 33.885 119.442, 29.606 114.170, 27.143 111.237, 26.028 105.501, 24.897 103.088, 24.629 101.118, 24.410 " />
            <path fill="none" stroke-width="3.0" stroke-linecap="butt" stroke-opacity="1.0" stroke="rgb(0, 0, 0)" stroke-linejoin="round" d=" M 56.007, 55.996 53.324, 52.168 50.332, 47.083 48.910, 41.657 49.381, 36.135 53.732, 31.921 60.768, 28.387 66.458, 26.778 70.771, 25.894 73.361, 21.893 77.249, 16.702 83.326, 10.915 88.732, 8.227 93.344, 10.272 97.611, 15.513 99.830, 20.489 101.118, 24.410 " />
            <path fill="none" stroke-width="3.0" stroke-linecap="butt" stroke-opacity="1.0" stroke="rgb(0, 0, 0)" stroke-linejoin="round" d=" M 108.954, 57.942 107.785, 56.582 107.161, 55.856 105.865, 54.913 105.823, 54.882 105.909, 54.807 106.836, 54.005 110.348, 50.965 111.095, 50.193 115.799, 45.332 116.764, 43.825 119.635, 39.341 121.310, 33.344 117.907, 29.147 111.237, 26.028 " />
            <path fill="none" stroke-width="3.0" stroke-linecap="butt" stroke-opacity="1.0" stroke="rgb(0, 0, 0)" stroke-linejoin="round" d=" M 103.088, 24.629 102.158, 22.243 99.676, 17.400 98.252, 15.127 94.373, 10.372 89.671, 8.289 88.732, 8.227 " />
            <path fill="none" stroke-width="3.0" stroke-linecap="butt" stroke-opacity="1.0" stroke="rgb(0, 0, 0)" stroke-linejoin="round" d=" M 53.324, 52.168 56.100, 55.734 " />
            <path fill="none" stroke-width="3.0" stroke-linecap="butt" stroke-opacity="1.0" stroke="rgb(0, 0, 0)" stroke-linejoin="round" d=" M 191.353, 106.564 188.458, 96.992 186.315, 89.909 185.311, 88.836 184.104, 84.486 179.264, 75.735 177.998, 73.445 171.477, 65.863 170.358, 64.561 164.680, 59.107 156.738, 53.031 156.371, 52.750 149.154, 48.924 142.895, 46.720 138.170, 45.187 137.078, 44.833 130.633, 43.684 126.515, 43.503 124.281, 43.405 122.912, 43.448 " />
            <path fill="none" stroke-width="3.0" stroke-linecap="butt" stroke-opacity="1.0" stroke="rgb(0, 0, 0)" stroke-linejoin="round" d=" M 79.893, 77.317 81.537, 78.277 82.739, 78.978 82.791, 79.009 83.119, 79.200 84.528, 80.023 84.765, 80.161 87.442, 81.233 89.171, 81.926 89.351, 81.998 89.703, 82.140 90.785, 82.573 93.217, 83.094 97.837, 84.085 101.536, 83.355 102.965, 83.073 103.425, 82.983 103.687, 82.607 104.435, 81.537 106.742, 78.235 107.364, 77.344 107.392, 77.263 108.682, 73.420 108.709, 73.340 108.807, 73.048 108.833, 72.912 109.269, 70.623 109.497, 69.423 109.603, 68.865 110.224, 65.604 110.659, 62.185 110.750, 61.468 110.771, 61.304 110.850, 60.682 110.874, 60.497 " />
            <path fill="none" stroke-width="3.0" stroke-linecap="butt" stroke-opacity="1.0" stroke="rgb(0, 0, 0)" stroke-linejoin="round" d=" M 186.813, 103.646 183.029, 100.506 174.947, 96.882 166.760, 93.211 160.822, 91.527 " />
            <path fill="none" stroke-width="3.0" stroke-linecap="butt" stroke-opacity="1.0" stroke="rgb(0, 0, 0)" stroke-linejoin="round" d=" M 121.247, 69.559 119.699, 69.467 " />
            <path fill="none" stroke-width="3.0" stroke-linecap="butt" stroke-opacity="1.0" stroke="rgb(0, 0, 0)" stroke-linejoin="round" d=" M 121.247, 69.559 128.154, 70.642 133.888, 71.541 143.767, 73.089 145.005, 73.283 " />
            <path fill="none" stroke-width="3.0" stroke-linecap="butt" stroke-opacity="1.0" stroke="rgb(0, 0, 0)" stroke-linejoin="round" d=" M 138.170, 45.187 137.542, 44.346 134.206, 42.963 130.150, 42.511 126.985, 43.169 126.515, 43.503 " />
            <path fill="none" stroke-width="3.0" stroke-linecap="butt" stroke-opacity="1.0" stroke="rgb(0, 0, 0)" stroke-linejoin="round" d=" M 206.944, 138.005 208.889, 136.889 209.754, 133.182 209.593, 126.397 205.767, 120.893 199.993, 113.779 192.317, 107.369 191.353, 106.564 190.445, 105.805 186.813, 103.646 185.017, 102.578 176.506, 98.785 171.449, 96.532 " />
            <path fill="none" stroke-width="3.0" stroke-linecap="butt" stroke-opacity="1.0" stroke="rgb(0, 0, 0)" stroke-linejoin="round" d=" M 199.283, 123.038 207.187, 129.164 208.664, 130.309 208.889, 136.889 " />
            <path fill="none" stroke-width="3.0" stroke-linecap="butt" stroke-opacity="1.0" stroke="rgb(0, 0, 0)" stroke-linejoin="round" d=" M 44.245, 93.413 43.577, 93.918 38.117, 97.996 32.056, 103.971 31.619, 107.630 " />
            <path fill="none" stroke-width="3.0" stroke-linecap="butt" stroke-opacity="1.0" stroke="rgb(0, 0, 0)" stroke-linejoin="round" d=" M 209.593, 126.397 201.803, 120.127 199.327, 118.134 " />
            <path fill="none" stroke-width="3.0" stroke-linecap="butt" stroke-opacity="1.0" stroke="rgb(0, 0, 0)" stroke-linejoin="round" d=" M 59.855, 82.761 59.005, 84.073 " />
            <path fill="none" stroke-width="3.0" stroke-linecap="butt" stroke-opacity="1.0" stroke="rgb(0, 0, 0)" stroke-linejoin="round" d=" M 107.247, 78.255 107.555, 77.218 108.682, 73.420 " />
            <path fill="none" stroke-width="3.0" stroke-linecap="butt" stroke-opacity="1.0" stroke="rgb(0, 0, 0)" stroke-linejoin="round" d=" M 108.709, 73.340 110.872, 73.258 " />
            <path fill="none" stroke-width="3.0" stroke-linecap="butt" stroke-opacity="1.0" stroke="rgb(0, 0, 0)" stroke-linejoin="round" d=" M 196.999, 125.494 201.557, 128.912 " />
        </g>
    </g>
</svg>
