<?xml version='1.0' encoding='ascii'?>
<svg xmlns="http://www.w3.org/2000/svg" version="1.1" width="250" height="250">
    <g id="ViewLayer_LineSet" xmlns:inkscape="http://www.inkscape.org/namespaces/inkscape" inkscape:groupmode="lineset" inkscape:label="ViewLayer_LineSet">
        <g xmlns:inkscape="http://www.inkscape.org/namespaces/inkscape" inkscape:groupmode="layer" id="strokes" inkscape:label="strokes">
            <path fill="none" stroke-width="3.0" stroke-linecap="butt" stroke-opacity="1.0" stroke="rgb(0, 0, 0)" stroke-linejoin="round" d=" M 60.039, 96.553 58.654, 98.279 54.760, 104.285 51.471, 110.697 51.103, 111.638 49.945, 114.597 49.805, 114.956 48.827, 117.453 47.179, 123.048 45.849, 129.698 45.118, 137.003 45.021, 138.227 45.025, 139.405 45.047, 145.225 45.808, 152.253 46.006, 153.419 47.120, 158.512 47.403, 159.801 47.620, 160.669 47.948, 161.792 48.371, 163.117 48.866, 164.578 49.412, 166.105 49.981, 167.625 50.547, 169.067 51.082, 170.360 51.561, 171.442 51.959, 172.258 55.002, 178.009 55.615, 179.057 59.571, 184.908 64.074, 190.261 64.962, 191.194 68.718, 194.821 70.256, 196.306 76.973, 201.465 82.009, 204.622 88.996, 207.935 92.645, 209.597 97.410, 211.026 104.149, 212.657 105.811, 212.985 " />
            <path fill="none" stroke-width="3.0" stroke-linecap="butt" stroke-opacity="1.0" stroke="rgb(0, 0, 0)" stroke-linejoin="round" d=" M 63.189, 147.359 63.602, 148.736 64.671, 150.789 66.180, 152.463 67.922, 153.730 69.570, 154.229 71.290, 154.229 73.269, 153.500 74.973, 152.267 76.277, 150.508 76.901, 149.241 " />
            <path fill="none" stroke-width="3.0" stroke-linecap="butt" stroke-opacity="1.0" stroke="rgb(0, 0, 0)" stroke-linejoin="round" d=" M 100.692, 100.653 100.889, 101.848 100.933, 105.208 100.554, 108.994 100.585, 109.063 100.152, 110.956 100.132, 111.044 98.685, 117.375 97.080, 121.518 95.320, 125.728 93.416, 129.637 93.089, 130.198 92.970, 130.403 92.815, 130.669 91.426, 133.057 89.408, 135.819 87.414, 137.784 85.499, 138.857 84.883, 138.900 83.717, 138.983 82.129, 138.155 80.802, 136.410 79.799, 133.829 79.185, 130.534 79.009, 126.682 79.018, 126.560 79.056, 126.009 79.304, 122.457 80.076, 118.058 80.319, 117.187 81.278, 113.753 82.796, 109.692 84.584, 105.883 84.684, 105.711 84.798, 105.515 86.573, 102.465 88.687, 99.558 89.387, 98.814 " />
            <path fill="none" stroke-width="3.0" stroke-linecap="butt" stroke-opacity="1.0" stroke="rgb(0, 0, 0)" stroke-linejoin="round" d=" M 63.751, 116.717 63.609, 117.196 63.096, 118.922 62.716, 120.199 62.570, 120.688 62.519, 120.860 61.300, 124.823 60.108, 128.408 58.946, 131.436 57.808, 133.753 57.286, 134.454 56.696, 135.246 55.618, 135.843 54.603, 135.809 53.704, 134.299 52.976, 132.249 52.492, 129.477 52.361, 126.962 52.318, 126.126 52.506, 122.363 53.087, 118.368 53.475, 116.748 53.566, 116.371 54.042, 114.386 54.381, 113.289 55.230, 110.548 56.586, 106.858 58.058, 103.444 59.587, 100.426 61.115, 97.905 62.198, 96.473 " />
            <path fill="none" stroke-width="3.0" stroke-linecap="butt" stroke-opacity="1.0" stroke="rgb(0, 0, 0)" stroke-linejoin="round" d=" M 54.603, 135.809 58.780, 137.291 " />
            <path fill="none" stroke-width="3.0" stroke-linecap="butt" stroke-opacity="1.0" stroke="rgb(0, 0, 0)" stroke-linejoin="round" d=" M 67.177, 96.693 67.205, 97.206 67.220, 97.470 67.300, 98.910 67.124, 101.733 66.716, 105.114 65.916, 108.736 " />
            <path fill="none" stroke-width="3.0" stroke-linecap="butt" stroke-opacity="1.0" stroke="rgb(0, 0, 0)" stroke-linejoin="round" d=" M 65.844, 117.733 63.751, 116.717 64.933, 112.655 65.916, 108.736 69.981, 110.810 " />
            <path fill="none" stroke-width="3.0" stroke-linecap="butt" stroke-opacity="1.0" stroke="rgb(0, 0, 0)" stroke-linejoin="round" d=" M 133.140, 237.026 139.408, 237.117 146.714, 236.273 153.070, 235.407 156.578, 233.948 161.374, 230.568 169.217, 224.364 169.828, 223.881 176.279, 217.546 179.058, 214.486 182.289, 209.021 183.781, 205.747 184.702, 201.345 185.092, 197.968 184.470, 194.076 183.099, 189.946 182.524, 188.923 " />
            <path fill="none" stroke-width="3.0" stroke-linecap="butt" stroke-opacity="1.0" stroke="rgb(0, 0, 0)" stroke-linejoin="round" d=" M 106.040, 211.549 105.811, 212.985 105.621, 214.178 104.964, 218.229 104.951, 221.432 105.789, 224.707 106.508, 225.920 107.595, 227.752 109.802, 231.029 113.280, 233.650 118.153, 235.458 122.978, 236.583 128.830, 237.075 133.140, 237.026 136.813, 236.984 " />
            <path fill="none" stroke-width="3.0" stroke-linecap="butt" stroke-opacity="1.0" stroke="rgb(0, 0, 0)" stroke-linejoin="round" d=" M 68.718, 194.821 68.550, 195.059 66.454, 197.979 64.333, 200.964 62.741, 202.703 59.784, 207.115 58.963, 208.698 58.102, 210.711 57.507, 212.715 56.447, 216.508 56.564, 220.084 57.221, 223.677 58.811, 226.205 61.216, 228.837 64.307, 231.071 67.651, 232.455 71.730, 233.224 77.552, 233.721 82.029, 234.098 88.080, 233.428 91.811, 233.257 95.178, 232.417 103.853, 227.443 106.508, 225.920 " />
            <path fill="none" stroke-width="3.0" stroke-linecap="butt" stroke-opacity="1.0" stroke="rgb(0, 0, 0)" stroke-linejoin="round" d=" M 165.951, 180.230 171.515, 184.149 173.541, 185.174 175.405, 186.093 178.078, 187.411 182.426, 188.907 182.524, 188.923 186.894, 189.664 190.743, 189.546 194.246, 188.867 196.431, 188.367 199.486, 187.061 200.963, 186.085 203.610, 184.283 206.063, 181.913 207.162, 180.527 209.059, 177.665 210.447, 174.569 211.301, 171.607 211.422, 171.102 211.823, 168.312 211.885, 164.559 211.188, 160.199 209.799, 155.835 207.667, 151.220 203.924, 145.604 202.020, 143.277 201.914, 143.147 199.909, 140.698 196.033, 136.329 194.520, 134.888 191.962, 132.583 190.445, 131.371 190.272, 131.233 185.654, 128.312 178.913, 125.306 " />
            <path fill="none" stroke-width="3.0" stroke-linecap="butt" stroke-opacity="1.0" stroke="rgb(0, 0, 0)" stroke-linejoin="round" d=" M 45.025, 139.405 44.347, 141.999 43.733, 144.715 43.554, 147.062 43.986, 150.881 44.366, 152.724 45.750, 156.575 47.120, 158.512 " />
            <path fill="none" stroke-width="3.0" stroke-linecap="butt" stroke-opacity="1.0" stroke="rgb(0, 0, 0)" stroke-linejoin="round" d=" M 104.248, 69.112 105.963, 67.364 106.144, 67.054 106.204, 66.951 108.733, 62.625 108.611, 55.925 105.650, 51.035 103.072, 48.708 99.819, 48.074 " />
            <path fill="none" stroke-width="3.0" stroke-linecap="butt" stroke-opacity="1.0" stroke="rgb(0, 0, 0)" stroke-linejoin="round" d=" M 87.889, 23.346 86.162, 19.404 83.909, 15.843 81.369, 11.631 78.883, 9.145 75.266, 7.307 73.925, 7.276 69.266, 10.120 63.771, 15.980 60.119, 21.150 57.638, 25.107 54.119, 26.102 49.453, 27.834 43.562, 31.442 39.732, 35.599 38.802, 40.888 39.356, 46.038 41.171, 50.835 42.978, 54.196 41.248, 58.594 39.345, 64.443 38.100, 71.955 38.832, 76.900 39.521, 78.221 42.696, 79.434 46.623, 80.554 51.419, 81.014 56.416, 79.970 61.082, 78.633 61.294, 78.572 65.067, 77.449 " />
            <path fill="none" stroke-width="3.0" stroke-linecap="butt" stroke-opacity="1.0" stroke="rgb(0, 0, 0)" stroke-linejoin="round" d=" M 34.908, 104.815 34.362, 104.381 33.779, 98.799 35.628, 97.938 38.477, 96.610 42.131, 94.908 47.478, 94.666 48.211, 94.633 58.201, 94.181 61.925, 94.013 62.068, 94.027 62.358, 94.054 64.396, 94.244 64.740, 94.276 66.197, 94.411 66.412, 94.431 76.369, 95.359 86.326, 96.287 91.093, 96.732 91.457, 96.799 98.078, 98.030 100.181, 98.420 102.314, 98.817 112.146, 100.644 121.977, 102.471 124.651, 102.968 134.332, 105.471 144.014, 107.974 153.696, 110.477 157.357, 111.424 163.071, 113.431 164.463, 113.920 165.585, 114.314 " />
            <path fill="none" stroke-width="3.0" stroke-linecap="butt" stroke-opacity="1.0" stroke="rgb(0, 0, 0)" stroke-linejoin="round" d=" M 201.914, 143.147 204.183, 142.575 206.649, 137.839 200.214, 131.296 199.853, 130.928 196.174, 129.075 189.205, 125.565 185.140, 123.517 " />
            <path fill="none" stroke-width="3.0" stroke-linecap="butt" stroke-opacity="1.0" stroke="rgb(0, 0, 0)" stroke-linejoin="round" d=" M 41.412, 99.967 44.234, 98.909 46.190, 98.175 49.464, 96.947 " />
            <path fill="none" stroke-width="3.0" stroke-linecap="butt" stroke-opacity="1.0" stroke="rgb(0, 0, 0)" stroke-linejoin="round" d=" M 45.134, 97.109 44.979, 97.169 36.297, 100.511 36.097, 100.588 36.203, 102.150 36.295, 103.507 36.462, 105.967 " />
            <path fill="none" stroke-width="3.0" stroke-linecap="butt" stroke-opacity="1.0" stroke="rgb(0, 0, 0)" stroke-linejoin="round" d=" M 45.134, 97.109 46.515, 97.057 49.464, 96.947 59.458, 96.575 60.039, 96.553 62.198, 96.473 64.118, 96.401 66.188, 96.599 67.177, 96.693 67.471, 96.721 68.023, 96.774 70.505, 97.011 80.460, 97.961 89.387, 98.814 91.778, 99.042 95.287, 99.676 100.692, 100.653 103.727, 101.201 113.567, 102.979 123.408, 104.758 124.445, 104.945 134.130, 107.435 143.816, 109.925 153.501, 112.415 156.569, 113.204 163.925, 115.768 " />
            <path fill="none" stroke-width="3.0" stroke-linecap="butt" stroke-opacity="1.0" stroke="rgb(0, 0, 0)" stroke-linejoin="round" d=" M 90.722, 65.645 91.049, 66.139 91.254, 66.451 91.663, 67.069 92.373, 68.142 94.184, 70.883 95.442, 70.861 97.639, 70.821 " />
            <path fill="none" stroke-width="3.0" stroke-linecap="butt" stroke-opacity="1.0" stroke="rgb(0, 0, 0)" stroke-linejoin="round" d=" M 89.948, 68.166 92.035, 68.229 92.373, 68.142 " />
            <path fill="none" stroke-width="3.0" stroke-linecap="butt" stroke-opacity="1.0" stroke="rgb(0, 0, 0)" stroke-linejoin="round" d=" M 34.908, 104.815 35.201, 106.433 35.803, 108.517 38.245, 110.070 45.431, 114.089 46.948, 113.561 47.464, 113.381 48.413, 113.051 50.684, 111.427 50.969, 111.223 52.058, 106.355 " />
            <path fill="none" stroke-width="3.0" stroke-linecap="butt" stroke-opacity="1.0" stroke="rgb(0, 0, 0)" stroke-linejoin="round" d=" M 50.969, 111.223 44.207, 108.798 " />
            <path fill="none" stroke-width="3.0" stroke-linecap="butt" stroke-opacity="1.0" stroke="rgb(0, 0, 0)" stroke-linejoin="round" d=" M 45.116, 105.904 44.753, 107.060 44.207, 108.798 41.123, 109.673 " />
            <path fill="none" stroke-width="3.0" stroke-linecap="butt" stroke-opacity="1.0" stroke="rgb(0, 0, 0)" stroke-linejoin="round" d=" M 48.732, 84.309 43.141, 87.663 39.469, 91.582 39.168, 92.022 " />
            <path fill="none" stroke-width="3.0" stroke-linecap="butt" stroke-opacity="1.0" stroke="rgb(0, 0, 0)" stroke-linejoin="round" d=" M 65.505, 77.667 60.801, 79.086 60.035, 79.317 50.887, 83.357 48.732, 84.309 57.054, 80.898 57.956, 80.560 60.473, 79.615 65.574, 77.701 " />
            <path fill="none" stroke-width="3.0" stroke-linecap="butt" stroke-opacity="1.0" stroke="rgb(0, 0, 0)" stroke-linejoin="round" d=" M 57.054, 80.898 57.651, 80.816 59.921, 80.506 66.962, 79.543 69.246, 79.457 " />
            <path fill="none" stroke-width="3.0" stroke-linecap="butt" stroke-opacity="1.0" stroke="rgb(0, 0, 0)" stroke-linejoin="round" d=" M 163.925, 115.768 164.230, 116.600 166.546, 118.098 168.974, 119.009 176.415, 121.745 177.569, 122.169 184.035, 124.547 185.140, 123.517 185.652, 123.039 185.855, 121.621 185.949, 120.971 186.184, 119.329 186.192, 119.269 182.781, 114.467 175.910, 107.851 171.359, 104.665 167.741, 102.132 161.058, 97.325 152.714, 92.532 151.972, 92.106 151.375, 91.857 142.145, 88.009 140.457, 87.305 139.720, 87.068 130.198, 84.014 127.918, 83.283 118.332, 80.437 115.607, 79.628 105.763, 77.868 103.645, 77.490 99.742, 76.810 96.133, 76.182 93.586, 75.738 " />
            <path fill="none" stroke-width="3.0" stroke-linecap="butt" stroke-opacity="1.0" stroke="rgb(0, 0, 0)" stroke-linejoin="round" d=" M 82.206, 79.971 84.549, 80.235 90.590, 80.916 93.225, 81.213 93.678, 81.334 103.343, 83.901 108.398, 85.243 113.978, 86.951 122.129, 89.447 131.426, 93.129 134.922, 94.513 144.069, 98.555 146.356, 99.565 155.169, 103.811 162.259, 107.605 167.972, 111.605 168.766, 112.672 170.291, 114.722 170.945, 117.374 170.232, 117.965 168.974, 119.009 " />
            <path fill="none" stroke-width="3.0" stroke-linecap="butt" stroke-opacity="1.0" stroke="rgb(0, 0, 0)" stroke-linejoin="round" d=" M 74.846, 76.934 75.740, 75.632 78.519, 71.586 79.199, 69.642 79.589, 68.529 79.653, 68.347 79.988, 67.390 80.221, 66.727 80.813, 65.034 81.379, 63.419 82.008, 59.877 82.175, 58.932 82.499, 57.105 82.597, 56.154 82.758, 54.579 82.981, 52.403 " />
            <path fill="none" stroke-width="3.0" stroke-linecap="butt" stroke-opacity="1.0" stroke="rgb(0, 0, 0)" stroke-linejoin="round" d=" M 57.464, 71.961 59.431, 73.653 60.057, 74.192 62.786, 75.885 63.929, 76.594 65.603, 77.016 66.763, 77.309 69.832, 78.083 72.232, 77.533 74.846, 76.934 76.304, 78.354 78.223, 79.279 78.688, 79.504 78.996, 79.652 81.980, 80.134 " />
            <path fill="none" stroke-width="3.0" stroke-linecap="butt" stroke-opacity="1.0" stroke="rgb(0, 0, 0)" stroke-linejoin="round" d=" M 58.533, 73.234 57.464, 71.961 53.768, 74.220 48.866, 76.589 42.724, 77.998 38.832, 76.900 " />
            <path fill="none" stroke-width="3.0" stroke-linecap="butt" stroke-opacity="1.0" stroke="rgb(0, 0, 0)" stroke-linejoin="round" d=" M 58.533, 73.234 62.388, 76.115 62.583, 76.212 65.067, 77.449 65.505, 77.667 65.574, 77.701 65.588, 77.708 67.156, 78.489 69.195, 79.434 69.246, 79.457 69.874, 79.748 70.632, 79.940 71.062, 80.049 73.730, 80.724 73.947, 80.779 76.142, 81.084 76.185, 81.090 77.320, 81.248 78.827, 80.888 81.980, 80.134 82.206, 79.971 82.808, 79.535 84.218, 78.514 84.436, 78.357 86.287, 75.458 86.453, 75.198 89.024, 71.173 89.948, 68.166 90.101, 67.666 90.255, 67.166 90.284, 67.071 90.578, 66.114 90.722, 65.645 90.977, 64.817 91.284, 63.816 91.850, 61.837 91.923, 61.584 91.974, 61.407 92.230, 60.509 92.413, 59.871 93.244, 58.594 93.563, 58.105 93.954, 57.504 93.978, 57.468 95.505, 55.122 95.744, 54.754 96.075, 54.212 96.469, 53.566 99.721, 48.234 99.819, 48.074 100.953, 46.215 101.062, 45.872 102.597, 41.023 103.645, 36.637 102.283, 33.478 99.852, 29.410 97.591, 27.136 93.451, 24.878 90.515, 23.866 87.889, 23.346 85.892, 22.951 82.337, 22.626 " />
            <path fill="none" stroke-width="3.0" stroke-linecap="butt" stroke-opacity="1.0" stroke="rgb(0, 0, 0)" stroke-linejoin="round" d=" M 73.925, 7.276 77.464, 9.080 80.400, 14.036 81.693, 18.828 82.337, 22.626 " />
            <path fill="none" stroke-width="3.0" stroke-linecap="butt" stroke-opacity="1.0" stroke="rgb(0, 0, 0)" stroke-linejoin="round" d=" M 87.578, 55.416 87.557, 55.401 87.269, 55.200 86.179, 54.439 85.716, 54.116 84.620, 53.351 82.981, 52.403 84.466, 50.989 87.129, 48.456 88.648, 46.771 88.663, 46.754 88.943, 46.442 92.249, 42.774 96.086, 36.751 98.129, 30.763 95.733, 26.719 90.515, 23.866 " />
            <path fill="none" stroke-width="3.0" stroke-linecap="butt" stroke-opacity="1.0" stroke="rgb(0, 0, 0)" stroke-linejoin="round" d=" M 188.932, 92.950 187.987, 88.941 183.864, 79.831 182.649, 77.146 176.821, 69.020 175.582, 67.293 171.483, 61.921 164.127, 55.147 163.158, 54.254 156.935, 50.051 150.008, 46.597 144.844, 44.340 144.604, 44.235 138.332, 42.446 131.892, 41.436 131.707, 41.432 126.004, 41.312 118.228, 41.530 110.834, 42.739 101.311, 45.792 101.062, 45.872 " />
            <path fill="none" stroke-width="3.0" stroke-linecap="butt" stroke-opacity="1.0" stroke="rgb(0, 0, 0)" stroke-linejoin="round" d=" M 100.051, 31.264 102.283, 33.478 " />
            <path fill="none" stroke-width="3.0" stroke-linecap="butt" stroke-opacity="1.0" stroke="rgb(0, 0, 0)" stroke-linejoin="round" d=" M 190.388, 109.047 187.896, 106.254 179.360, 101.447 174.189, 98.535 166.724, 95.713 157.371, 92.176 153.740, 90.803 144.077, 88.229 139.720, 87.068 " />
            <path fill="none" stroke-width="3.0" stroke-linecap="butt" stroke-opacity="1.0" stroke="rgb(0, 0, 0)" stroke-linejoin="round" d=" M 108.078, 67.052 106.204, 66.951 " />
            <path fill="none" stroke-width="3.0" stroke-linecap="butt" stroke-opacity="1.0" stroke="rgb(0, 0, 0)" stroke-linejoin="round" d=" M 108.078, 67.052 114.914, 68.067 124.806, 69.535 129.152, 70.180 132.084, 70.615 " />
            <path fill="none" stroke-width="3.0" stroke-linecap="butt" stroke-opacity="1.0" stroke="rgb(0, 0, 0)" stroke-linejoin="round" d=" M 193.572, 111.366 191.597, 101.563 190.137, 94.321 188.932, 92.950 183.476, 86.748 " />
            <path fill="none" stroke-width="3.0" stroke-linecap="butt" stroke-opacity="1.0" stroke="rgb(0, 0, 0)" stroke-linejoin="round" d=" M 144.844, 44.340 144.496, 43.803 142.454, 42.037 138.737, 40.709 134.811, 40.353 132.229, 41.102 131.707, 41.432 " />
            <path fill="none" stroke-width="3.0" stroke-linecap="butt" stroke-opacity="1.0" stroke="rgb(0, 0, 0)" stroke-linejoin="round" d=" M 202.020, 143.277 206.436, 142.167 209.154, 137.229 210.277, 133.371 206.967, 127.639 201.783, 119.988 195.331, 112.647 193.572, 111.366 190.388, 109.047 189.982, 108.751 181.253, 103.872 180.543, 103.476 175.508, 100.662 170.934, 98.943 161.573, 95.425 153.773, 92.494 151.375, 91.857 " />
            <path fill="none" stroke-width="3.0" stroke-linecap="butt" stroke-opacity="1.0" stroke="rgb(0, 0, 0)" stroke-linejoin="round" d=" M 185.855, 121.621 188.671, 123.060 197.576, 127.609 198.575, 128.119 202.266, 130.005 209.154, 137.229 " />
            <path fill="none" stroke-width="3.0" stroke-linecap="butt" stroke-opacity="1.0" stroke="rgb(0, 0, 0)" stroke-linejoin="round" d=" M 210.277, 133.371 203.522, 125.941 194.674, 121.282 193.117, 120.461 190.409, 119.035 188.778, 118.176 186.847, 117.159 186.176, 116.806 " />
            <path fill="none" stroke-width="3.0" stroke-linecap="butt" stroke-opacity="1.0" stroke="rgb(0, 0, 0)" stroke-linejoin="round" d=" M 40.424, 91.185 39.168, 92.022 34.666, 95.022 33.779, 98.799 " />
            <path fill="none" stroke-width="3.0" stroke-linecap="butt" stroke-opacity="1.0" stroke="rgb(0, 0, 0)" stroke-linejoin="round" d=" M 46.948, 113.561 49.805, 114.956 " />
            <path fill="none" stroke-width="3.0" stroke-linecap="butt" stroke-opacity="1.0" stroke="rgb(0, 0, 0)" stroke-linejoin="round" d=" M 61.082, 78.633 60.801, 79.086 " />
            <path fill="none" stroke-width="3.0" stroke-linecap="butt" stroke-opacity="1.0" stroke="rgb(0, 0, 0)" stroke-linejoin="round" d=" M 90.255, 67.166 92.035, 68.229 " />
            <path fill="none" stroke-width="3.0" stroke-linecap="butt" stroke-opacity="1.0" stroke="rgb(0, 0, 0)" stroke-linejoin="round" d=" M 93.213, 75.724 95.167, 71.461 95.442, 70.861 " />
            <path fill="none" stroke-width="3.0" stroke-linecap="butt" stroke-opacity="1.0" stroke="rgb(0, 0, 0)" stroke-linejoin="round" d=" M 190.445, 131.371 189.205, 125.565 " />
            <path fill="none" stroke-width="3.0" stroke-linecap="butt" stroke-opacity="1.0" stroke="rgb(0, 0, 0)" stroke-linejoin="round" d=" M 196.174, 129.075 202.155, 135.056 " />
        </g>
    </g>
</svg>
