<?xml version='1.0' encoding='ascii'?>
<svg xmlns="http://www.w3.org/2000/svg" version="1.1" width="250" height="250">
    <g id="ViewLayer_LineSet" xmlns:inkscape="http://www.inkscape.org/namespaces/inkscape" inkscape:groupmode="lineset" inkscape:label="ViewLayer_LineSet">
        <g xmlns:inkscape="http://www.inkscape.org/namespaces/inkscape" inkscape:groupmode="layer" id="strokes" inkscape:label="strokes">
            <path fill="none" stroke-width="3.0" stroke-linecap="butt" stroke-opacity="1.0" stroke="rgb(0, 0, 0)" stroke-linejoin="round" d=" M 108.377, 213.838 113.243, 215.016 117.023, 215.827 121.243, 216.390 125.720, 216.676 130.252, 216.671 134.364, 216.394 134.638, 216.375 138.682, 215.805 144.661, 214.539 149.900, 213.326 154.102, 211.818 160.659, 208.994 168.019, 204.780 173.315, 200.917 176.507, 198.158 177.530, 197.212 " />
            <path fill="none" stroke-width="3.0" stroke-linecap="butt" stroke-opacity="1.0" stroke="rgb(0, 0, 0)" stroke-linejoin="round" d=" M 57.268, 161.109 58.450, 165.783 59.495, 168.618 63.486, 177.787 64.063, 179.113 64.979, 180.519 " />
            <path fill="none" stroke-width="3.0" stroke-linecap="butt" stroke-opacity="1.0" stroke="rgb(0, 0, 0)" stroke-linejoin="round" d=" M 189.524, 183.030 191.242, 180.154 192.421, 178.100 193.904, 175.252 195.269, 172.257 196.453, 169.252 197.142, 167.211 197.734, 165.413 197.739, 165.400 197.740, 165.397 198.535, 162.985 199.523, 159.117 200.054, 155.787 200.928, 150.061 201.069, 146.677 201.194, 143.599 200.885, 139.216 200.578, 135.097 200.488, 133.887 199.855, 129.761 " />
            <path fill="none" stroke-width="3.0" stroke-linecap="butt" stroke-opacity="1.0" stroke="rgb(0, 0, 0)" stroke-linejoin="round" d=" M 203.439, 134.057 203.444, 133.128 203.319, 131.683 202.990, 129.546 202.415, 126.816 201.561, 123.627 200.417, 120.133 199.022, 116.557 197.541, 113.032 197.141, 112.102 " />
            <path fill="none" stroke-width="3.0" stroke-linecap="butt" stroke-opacity="1.0" stroke="rgb(0, 0, 0)" stroke-linejoin="round" d=" M 134.364, 216.394 134.518, 216.485 139.600, 216.996 142.914, 217.131 147.294, 216.270 149.703, 215.882 154.461, 213.854 162.608, 210.115 170.270, 206.256 173.603, 204.577 " />
            <path fill="none" stroke-width="3.0" stroke-linecap="butt" stroke-opacity="1.0" stroke="rgb(0, 0, 0)" stroke-linejoin="round" d=" M 170.270, 206.256 173.577, 204.652 182.486, 200.111 184.632, 199.017 193.079, 193.665 196.822, 191.293 201.078, 185.854 203.065, 182.692 203.553, 179.741 203.654, 179.130 " />
            <path fill="none" stroke-width="3.0" stroke-linecap="butt" stroke-opacity="1.0" stroke="rgb(0, 0, 0)" stroke-linejoin="round" d=" M 203.553, 179.741 204.183, 176.343 203.275, 172.995 202.538, 170.994 200.791, 167.875 198.025, 165.549 " />
            <path fill="none" stroke-width="3.0" stroke-linecap="butt" stroke-opacity="1.0" stroke="rgb(0, 0, 0)" stroke-linejoin="round" d=" M 197.740, 165.397 198.025, 165.549 197.739, 165.400 " />
            <path fill="none" stroke-width="3.0" stroke-linecap="butt" stroke-opacity="1.0" stroke="rgb(0, 0, 0)" stroke-linejoin="round" d=" M 66.685, 180.605 64.979, 180.519 58.253, 180.178 50.762, 182.133 49.376, 182.741 44.315, 185.672 40.318, 189.285 37.736, 193.465 37.145, 194.545 36.296, 199.508 36.392, 202.113 38.134, 208.178 38.954, 211.261 42.259, 216.294 44.427, 219.216 47.142, 222.151 50.135, 225.295 51.915, 227.106 59.396, 233.742 60.400, 234.633 68.194, 240.899 71.938, 243.909 79.910, 249.947 83.453, 252.631 " />
            <path fill="none" stroke-width="3.0" stroke-linecap="butt" stroke-opacity="1.0" stroke="rgb(0, 0, 0)" stroke-linejoin="round" d=" M 123.995, 253.101 127.187, 249.390 128.826, 245.163 128.900, 240.493 128.743, 238.282 127.419, 233.647 123.841, 227.639 122.798, 226.080 117.175, 220.679 109.622, 215.360 108.377, 213.838 " />
            <path fill="none" stroke-width="3.0" stroke-linecap="butt" stroke-opacity="1.0" stroke="rgb(0, 0, 0)" stroke-linejoin="round" d=" M 133.826, 179.174 135.980, 181.822 140.446, 186.684 141.859, 188.206 147.012, 192.815 151.443, 195.649 155.729, 197.678 158.514, 198.521 160.136, 198.991 162.810, 199.731 166.575, 199.962 170.002, 199.574 172.787, 199.129 175.727, 198.060 177.530, 197.212 178.094, 196.946 180.649, 195.324 182.370, 193.856 184.789, 191.680 186.827, 188.712 188.067, 186.763 189.301, 183.771 189.524, 183.030 190.145, 180.967 190.488, 179.273 190.946, 175.630 190.722, 171.203 189.707, 166.692 189.385, 165.356 188.453, 162.541 187.687, 160.228 184.425, 153.919 180.806, 148.369 177.274, 143.418 173.489, 139.132 " />
            <path fill="none" stroke-width="3.0" stroke-linecap="butt" stroke-opacity="1.0" stroke="rgb(0, 0, 0)" stroke-linejoin="round" d=" M 181.119, 52.001 181.174, 52.601 " />
            <path fill="none" stroke-width="3.0" stroke-linecap="butt" stroke-opacity="1.0" stroke="rgb(0, 0, 0)" stroke-linejoin="round" d=" M 187.462, 73.839 187.795, 74.490 190.065, 78.479 193.706, 82.775 194.188, 82.981 " />
            <path fill="none" stroke-width="3.0" stroke-linecap="butt" stroke-opacity="1.0" stroke="rgb(0, 0, 0)" stroke-linejoin="round" d=" M 192.995, 76.701 195.218, 78.006 199.742, 82.018 202.776, 83.444 203.565, 83.667 206.090, 84.379 209.544, 85.354 214.591, 85.086 218.029, 84.147 219.657, 83.188 220.702, 82.077 220.295, 77.664 218.547, 70.851 217.707, 68.389 216.734, 65.534 215.230, 61.548 215.390, 59.389 215.401, 59.241 215.455, 58.511 215.486, 58.101 215.508, 53.092 214.872, 47.746 213.495, 42.421 210.989, 38.932 207.768, 36.606 205.535, 35.980 204.267, 35.861 204.010, 35.837 203.970, 35.833 " />
            <path fill="none" stroke-width="3.0" stroke-linecap="butt" stroke-opacity="1.0" stroke="rgb(0, 0, 0)" stroke-linejoin="round" d=" M 219.657, 83.188 216.158, 84.149 211.099, 84.420 " />
            <path fill="none" stroke-width="3.0" stroke-linecap="butt" stroke-opacity="1.0" stroke="rgb(0, 0, 0)" stroke-linejoin="round" d=" M 184.223, 55.091 185.492, 54.603 185.677, 55.190 " />
            <path fill="none" stroke-width="3.0" stroke-linecap="butt" stroke-opacity="1.0" stroke="rgb(0, 0, 0)" stroke-linejoin="round" d=" M 172.464, 62.320 171.379, 61.386 170.942, 61.009 170.883, 60.958 169.547, 60.766 " />
            <path fill="none" stroke-width="3.0" stroke-linecap="butt" stroke-opacity="1.0" stroke="rgb(0, 0, 0)" stroke-linejoin="round" d=" M 172.141, 67.212 170.542, 65.421 170.333, 65.187 168.006, 63.153 167.584, 62.996 " />
            <path fill="none" stroke-width="3.0" stroke-linecap="butt" stroke-opacity="1.0" stroke="rgb(0, 0, 0)" stroke-linejoin="round" d=" M 50.268, 130.812 46.603, 133.930 42.257, 139.203 38.539, 147.770 37.639, 153.613 38.396, 157.405 40.816, 161.035 50.812, 161.337 53.041, 161.405 56.314, 161.273 57.268, 161.109 67.123, 159.408 76.977, 157.708 77.939, 157.542 87.598, 154.952 88.874, 154.610 98.533, 152.020 107.160, 149.707 116.635, 146.509 126.110, 143.311 126.720, 143.105 132.922, 141.012 139.610, 138.754 148.876, 134.993 158.141, 131.232 159.641, 130.624 166.261, 127.937 " />
            <path fill="none" stroke-width="3.0" stroke-linecap="butt" stroke-opacity="1.0" stroke="rgb(0, 0, 0)" stroke-linejoin="round" d=" M 188.245, 117.330 192.230, 115.350 192.364, 115.284 192.532, 115.200 192.712, 115.110 194.859, 113.652 196.679, 112.416 197.141, 112.102 205.413, 106.483 205.973, 106.102 208.318, 104.306 212.223, 98.325 210.419, 94.745 205.484, 90.683 199.796, 87.506 " />
            <path fill="none" stroke-width="3.0" stroke-linecap="butt" stroke-opacity="1.0" stroke="rgb(0, 0, 0)" stroke-linejoin="round" d=" M 183.407, 54.013 181.203, 52.594 181.190, 52.597 181.174, 52.601 181.143, 52.609 178.675, 53.235 177.497, 53.553 173.867, 56.530 168.390, 61.020 166.484, 62.116 " />
            <path fill="none" stroke-width="3.0" stroke-linecap="butt" stroke-opacity="1.0" stroke="rgb(0, 0, 0)" stroke-linejoin="round" d=" M 173.867, 56.530 172.159, 56.414 166.348, 61.698 166.329, 61.992 " />
            <path fill="none" stroke-width="3.0" stroke-linecap="butt" stroke-opacity="1.0" stroke="rgb(0, 0, 0)" stroke-linejoin="round" d=" M 166.348, 61.698 166.244, 61.925 " />
            <path fill="none" stroke-width="3.0" stroke-linecap="butt" stroke-opacity="1.0" stroke="rgb(0, 0, 0)" stroke-linejoin="round" d=" M 166.261, 127.937 167.805, 128.988 170.364, 127.385 " />
            <path fill="none" stroke-width="3.0" stroke-linecap="butt" stroke-opacity="1.0" stroke="rgb(0, 0, 0)" stroke-linejoin="round" d=" M 185.942, 86.398 185.938, 86.413 185.517, 87.807 185.403, 88.183 185.169, 88.956 184.909, 89.818 184.818, 90.121 182.549, 94.612 182.476, 94.756 181.706, 96.260 180.333, 98.941 179.799, 99.984 179.617, 100.417 179.561, 100.551 178.965, 101.970 177.722, 104.933 176.444, 107.985 175.959, 109.146 175.175, 111.018 174.285, 115.380 173.718, 118.154 171.686, 123.412 170.831, 125.982 170.364, 127.385 170.580, 126.106 " />
            <path fill="none" stroke-width="3.0" stroke-linecap="butt" stroke-opacity="1.0" stroke="rgb(0, 0, 0)" stroke-linejoin="round" d=" M 167.805, 128.988 176.992, 125.040 181.688, 123.022 184.890, 121.646 186.884, 120.201 187.117, 120.033 187.339, 119.500 188.245, 117.330 188.247, 117.327 188.694, 116.451 189.771, 114.338 189.895, 114.096 190.945, 112.288 191.134, 111.963 191.150, 111.935 191.776, 110.858 192.324, 109.914 " />
            <path fill="none" stroke-width="3.0" stroke-linecap="butt" stroke-opacity="1.0" stroke="rgb(0, 0, 0)" stroke-linejoin="round" d=" M 192.324, 109.914 192.783, 109.195 194.277, 106.853 194.617, 106.321 194.820, 106.003 196.820, 101.757 198.289, 97.991 198.720, 96.887 198.907, 96.251 199.617, 93.844 200.102, 92.198 200.176, 88.459 199.796, 87.506 198.800, 85.008 197.216, 84.169 196.367, 83.719 194.188, 82.981 185.612, 80.073 185.173, 79.924 " />
            <path fill="none" stroke-width="3.0" stroke-linecap="butt" stroke-opacity="1.0" stroke="rgb(0, 0, 0)" stroke-linejoin="round" d=" M 185.942, 86.398 185.968, 86.253 186.497, 83.279 186.520, 83.151 186.202, 81.361 185.173, 79.924 " />
            <path fill="none" stroke-width="3.0" stroke-linecap="butt" stroke-opacity="1.0" stroke="rgb(0, 0, 0)" stroke-linejoin="round" d=" M 199.620, 94.266 200.102, 92.198 " />
            <path fill="none" stroke-width="3.0" stroke-linecap="butt" stroke-opacity="1.0" stroke="rgb(0, 0, 0)" stroke-linejoin="round" d=" M 181.282, 75.378 181.332, 75.381 182.411, 75.446 182.569, 75.456 185.495, 75.634 187.462, 73.839 191.614, 70.050 192.153, 69.548 192.711, 61.691 187.765, 55.754 186.909, 55.275 185.677, 55.190 184.420, 55.105 184.223, 55.091 184.145, 55.086 182.731, 54.990 181.463, 54.903 181.382, 54.898 181.230, 54.887 178.775, 54.720 176.584, 56.713 175.192, 57.979 174.966, 58.184 172.595, 60.341 172.464, 62.320 172.390, 63.448 172.355, 63.972 172.306, 64.718 172.197, 66.361 172.141, 67.212 172.112, 67.647 172.111, 67.664 172.090, 67.975 " />
            <path fill="none" stroke-width="3.0" stroke-linecap="butt" stroke-opacity="1.0" stroke="rgb(0, 0, 0)" stroke-linejoin="round" d=" M 215.230, 61.548 213.998, 62.194 209.944, 63.574 " />
            <path fill="none" stroke-width="3.0" stroke-linecap="butt" stroke-opacity="1.0" stroke="rgb(0, 0, 0)" stroke-linejoin="round" d=" M 217.707, 68.389 217.162, 66.111 216.461, 63.074 215.455, 58.511 " />
            <path fill="none" stroke-width="3.0" stroke-linecap="butt" stroke-opacity="1.0" stroke="rgb(0, 0, 0)" stroke-linejoin="round" d=" M 181.143, 52.609 181.119, 52.001 181.318, 49.053 181.682, 43.335 182.538, 37.097 183.732, 32.603 186.634, 26.860 189.992, 23.824 193.144, 22.316 194.761, 22.615 196.867, 24.048 199.938, 28.320 202.277, 32.509 203.192, 34.307 203.970, 35.833 203.869, 35.835 202.463, 35.864 198.501, 37.503 " />
            <path fill="none" stroke-width="3.0" stroke-linecap="butt" stroke-opacity="1.0" stroke="rgb(0, 0, 0)" stroke-linejoin="round" d=" M 215.438, 59.704 215.401, 59.241 " />
            <path fill="none" stroke-width="3.0" stroke-linecap="butt" stroke-opacity="1.0" stroke="rgb(0, 0, 0)" stroke-linejoin="round" d=" M 185.825, 83.362 183.793, 79.790 181.652, 76.027 181.298, 75.406 181.282, 75.378 180.598, 74.176 179.972, 73.075 179.883, 72.919 179.837, 72.838 179.818, 72.805 179.809, 72.787 179.145, 71.621 177.400, 71.472 176.838, 71.424 176.189, 71.369 175.513, 71.311 175.465, 71.307 175.387, 71.300 174.923, 71.260 174.304, 70.542 172.296, 68.214 172.090, 67.975 171.855, 67.702 171.469, 67.254 170.585, 66.229 168.757, 64.109 168.268, 63.542 167.584, 62.996 166.484, 62.116 166.329, 61.992 166.244, 61.925 158.432, 55.682 157.026, 54.558 148.201, 49.855 144.952, 48.123 135.459, 44.977 131.115, 43.537 121.190, 42.314 117.461, 41.854 107.514, 42.878 106.702, 42.962 105.401, 43.096 " />
            <path fill="none" stroke-width="3.0" stroke-linecap="butt" stroke-opacity="1.0" stroke="rgb(0, 0, 0)" stroke-linejoin="round" d=" M 197.216, 84.169 199.919, 85.183 204.150, 84.926 206.090, 84.379 " />
            <path fill="none" stroke-width="3.0" stroke-linecap="butt" stroke-opacity="1.0" stroke="rgb(0, 0, 0)" stroke-linejoin="round" d=" M 212.219, 42.594 208.624, 44.015 203.991, 46.263 " />
            <path fill="none" stroke-width="3.0" stroke-linecap="butt" stroke-opacity="1.0" stroke="rgb(0, 0, 0)" stroke-linejoin="round" d=" M 167.533, 94.864 170.237, 93.452 177.549, 89.554 180.686, 87.882 181.464, 87.468 181.923, 87.223 182.831, 86.375 182.831, 86.374 183.128, 86.098 184.699, 84.630 185.905, 83.503 " />
            <path fill="none" stroke-width="3.0" stroke-linecap="butt" stroke-opacity="1.0" stroke="rgb(0, 0, 0)" stroke-linejoin="round" d=" M 179.145, 71.621 177.435, 72.318 177.076, 72.465 175.627, 73.056 175.370, 73.161 173.119, 74.078 " />
            <path fill="none" stroke-width="3.0" stroke-linecap="butt" stroke-opacity="1.0" stroke="rgb(0, 0, 0)" stroke-linejoin="round" d=" M 106.702, 42.962 104.955, 41.272 101.411, 39.211 100.456, 39.202 94.136, 39.861 87.992, 43.805 86.484, 47.612 86.148, 50.143 78.090, 55.414 76.932, 56.212 69.943, 63.364 67.286, 66.083 61.822, 74.458 59.363, 78.225 55.388, 87.401 53.993, 90.621 51.772, 100.371 50.855, 104.396 49.782, 108.009 48.249, 109.620 48.875, 119.600 49.501, 129.580 49.552, 130.384 50.268, 130.812 51.997, 131.846 55.277, 131.437 55.650, 131.390 61.948, 130.605 63.979, 130.112 73.697, 127.750 79.228, 126.406 88.805, 123.527 98.382, 120.648 102.149, 119.516 111.609, 116.274 121.069, 113.033 127.518, 110.823 134.003, 108.336 136.941, 107.209 137.836, 106.866 138.222, 106.718 139.436, 106.252 148.773, 102.672 151.387, 101.669 160.553, 97.673 169.720, 93.677 169.935, 93.584 170.237, 93.452 " />
            <path fill="none" stroke-width="3.0" stroke-linecap="butt" stroke-opacity="1.0" stroke="rgb(0, 0, 0)" stroke-linejoin="round" d=" M 65.235, 129.954 74.953, 127.596 81.657, 125.969 91.235, 123.093 100.812, 120.216 103.296, 119.471 106.212, 118.472 108.368, 117.733 117.828, 114.492 127.183, 111.287 133.910, 108.706 137.529, 107.317 137.533, 107.315 140.652, 106.118 149.681, 102.654 158.846, 98.655 167.533, 94.864 " />
            <path fill="none" stroke-width="3.0" stroke-linecap="butt" stroke-opacity="1.0" stroke="rgb(0, 0, 0)" stroke-linejoin="round" d=" M 61.948, 130.605 65.235, 129.954 " />
            <path fill="none" stroke-width="3.0" stroke-linecap="butt" stroke-opacity="1.0" stroke="rgb(0, 0, 0)" stroke-linejoin="round" d=" M 59.878, 108.197 50.631, 109.952 48.249, 109.620 " />
            <path fill="none" stroke-width="3.0" stroke-linecap="butt" stroke-opacity="1.0" stroke="rgb(0, 0, 0)" stroke-linejoin="round" d=" M 105.401, 43.096 100.486, 44.513 93.942, 46.762 88.437, 48.926 86.148, 50.143 " />
            <path fill="none" stroke-width="3.0" stroke-linecap="butt" stroke-opacity="1.0" stroke="rgb(0, 0, 0)" stroke-linejoin="round" d=" M 169.524, 120.920 163.067, 123.515 153.788, 127.244 150.385, 128.611 141.106, 132.340 138.210, 133.504 133.425, 135.124 132.061, 135.585 122.589, 138.791 113.117, 141.997 104.492, 144.916 " />
            <path fill="none" stroke-width="3.0" stroke-linecap="butt" stroke-opacity="1.0" stroke="rgb(0, 0, 0)" stroke-linejoin="round" d=" M 53.041, 161.405 57.162, 160.689 67.015, 158.979 75.397, 157.523 85.054, 154.927 88.517, 153.996 98.174, 151.400 105.802, 149.349 115.277, 146.149 124.751, 142.950 127.246, 142.108 133.137, 140.119 139.659, 137.917 148.926, 134.160 158.194, 130.404 158.471, 130.292 165.522, 127.434 171.061, 125.189 " />
            <path fill="none" stroke-width="3.0" stroke-linecap="butt" stroke-opacity="1.0" stroke="rgb(0, 0, 0)" stroke-linejoin="round" d=" M 188.694, 116.451 192.008, 114.808 192.196, 114.715 192.301, 114.663 194.763, 113.443 194.922, 113.364 196.600, 112.229 197.061, 111.917 205.345, 106.316 208.318, 104.306 " />
            <path fill="none" stroke-width="3.0" stroke-linecap="butt" stroke-opacity="1.0" stroke="rgb(0, 0, 0)" stroke-linejoin="round" d=" M 178.675, 53.235 174.621, 56.580 169.547, 60.766 " />
            <path fill="none" stroke-width="3.0" stroke-linecap="butt" stroke-opacity="1.0" stroke="rgb(0, 0, 0)" stroke-linejoin="round" d=" M 185.612, 80.073 182.569, 75.456 " />
            <path fill="none" stroke-width="3.0" stroke-linecap="butt" stroke-opacity="1.0" stroke="rgb(0, 0, 0)" stroke-linejoin="round" d=" M 200.578, 135.097 203.439, 134.057 " />
            <path fill="none" stroke-width="3.0" stroke-linecap="butt" stroke-opacity="1.0" stroke="rgb(0, 0, 0)" stroke-linejoin="round" d=" M 204.010, 35.837 203.276, 34.428 202.277, 32.509 " />
            <path fill="none" stroke-width="3.0" stroke-linecap="butt" stroke-opacity="1.0" stroke="rgb(0, 0, 0)" stroke-linejoin="round" d=" M 204.267, 35.861 203.276, 34.428 " />
        </g>
    </g>
</svg>
