<?xml version='1.0' encoding='ascii'?>
<svg xmlns="http://www.w3.org/2000/svg" version="1.1" width="250" height="250">
    <g id="ViewLayer_LineSet" xmlns:inkscape="http://www.inkscape.org/namespaces/inkscape" inkscape:groupmode="lineset" inkscape:label="ViewLayer_LineSet">
        <g xmlns:inkscape="http://www.inkscape.org/namespaces/inkscape" inkscape:groupmode="layer" id="strokes" inkscape:label="strokes">
            <path fill="none" stroke-width="3.0" stroke-linecap="butt" stroke-opacity="1.0" stroke="rgb(0, 0, 0)" stroke-linejoin="round" d=" M 60.132, 175.336 61.621, 178.204 63.674, 181.568 68.831, 188.745 75.845, 195.873 76.204, 196.238 84.208, 202.232 85.907, 203.505 87.539, 204.325 " />
            <path fill="none" stroke-width="3.0" stroke-linecap="butt" stroke-opacity="1.0" stroke="rgb(0, 0, 0)" stroke-linejoin="round" d=" M 157.136, 205.859 158.022, 205.441 160.794, 203.870 161.759, 203.324 169.861, 197.463 170.210, 197.210 177.163, 190.022 177.641, 189.528 180.115, 186.742 185.773, 178.497 186.367, 177.631 188.118, 173.877 190.884, 167.950 " />
            <path fill="none" stroke-width="3.0" stroke-linecap="butt" stroke-opacity="1.0" stroke="rgb(0, 0, 0)" stroke-linejoin="round" d=" M 82.909, 223.421 82.310, 225.757 81.781, 229.789 82.098, 233.656 83.241, 237.617 85.814, 241.276 88.145, 242.907 91.374, 244.311 95.354, 244.683 99.365, 244.368 104.751, 243.603 109.084, 242.695 118.802, 240.338 120.678, 239.883 125.644, 238.537 131.359, 236.431 136.340, 233.560 139.592, 230.809 145.458, 223.468 151.078, 216.113 152.212, 214.420 153.176, 212.982 156.545, 207.557 157.136, 205.859 158.067, 203.183 159.476, 199.229 159.705, 195.122 158.644, 191.438 156.704, 187.654 154.319, 183.326 151.032, 179.744 " />
            <path fill="none" stroke-width="3.0" stroke-linecap="butt" stroke-opacity="1.0" stroke="rgb(0, 0, 0)" stroke-linejoin="round" d=" M 111.891, 178.034 106.190, 181.504 102.373, 184.110 98.699, 187.797 97.813, 188.686 92.572, 195.075 89.633, 200.292 87.539, 204.325 85.303, 208.631 84.167, 214.078 83.089, 222.038 82.909, 223.421 82.511, 226.471 83.462, 230.546 83.562, 232.346 " />
            <path fill="none" stroke-width="3.0" stroke-linecap="butt" stroke-opacity="1.0" stroke="rgb(0, 0, 0)" stroke-linejoin="round" d=" M 152.212, 214.420 153.988, 213.476 155.981, 211.563 159.050, 208.223 160.264, 205.899 160.794, 203.870 " />
            <path fill="none" stroke-width="3.0" stroke-linecap="butt" stroke-opacity="1.0" stroke="rgb(0, 0, 0)" stroke-linejoin="round" d=" M 41.790, 130.322 38.359, 133.294 36.574, 135.007 32.435, 139.028 28.481, 143.667 26.241, 147.492 24.712, 151.164 23.859, 154.948 23.600, 156.638 23.496, 159.490 23.869, 162.390 24.357, 164.317 25.497, 167.370 27.302, 170.504 29.859, 173.375 32.301, 175.372 34.575, 176.816 36.858, 177.833 41.464, 179.107 45.253, 179.347 49.146, 178.912 53.396, 177.842 55.815, 177.172 60.132, 175.336 " />
            <path fill="none" stroke-width="3.0" stroke-linecap="butt" stroke-opacity="1.0" stroke="rgb(0, 0, 0)" stroke-linejoin="round" d=" M 188.118, 173.877 190.564, 174.479 194.469, 174.815 197.797, 174.469 200.845, 173.688 203.650, 172.433 206.237, 170.743 208.606, 168.642 210.488, 166.204 211.963, 163.557 212.123, 163.178 213.161, 160.234 213.675, 157.080 213.691, 153.717 212.954, 149.840 212.181, 147.796 " />
            <path fill="none" stroke-width="3.0" stroke-linecap="butt" stroke-opacity="1.0" stroke="rgb(0, 0, 0)" stroke-linejoin="round" d=" M 37.004, 112.202 36.442, 113.479 36.512, 116.981 36.674, 117.415 37.498, 119.624 40.993, 128.994 41.333, 129.906 41.790, 130.322 49.178, 137.062 52.193, 139.813 56.713, 143.936 65.587, 148.545 74.462, 153.154 81.867, 157.000 82.052, 157.097 91.602, 160.064 101.151, 163.031 107.847, 165.112 114.276, 167.110 124.168, 168.574 134.061, 170.039 143.953, 171.503 144.784, 171.626 148.233, 172.137 158.231, 171.957 168.229, 171.778 177.216, 171.616 180.458, 170.747 190.116, 168.156 190.884, 167.950 198.223, 165.981 206.100, 159.820 210.240, 156.582 210.946, 152.907 212.181, 147.796 213.653, 141.704 211.319, 136.605 206.538, 127.823 205.359, 125.657 201.694, 119.338 199.369, 117.383 " />
            <path fill="none" stroke-width="3.0" stroke-linecap="butt" stroke-opacity="1.0" stroke="rgb(0, 0, 0)" stroke-linejoin="round" d=" M 87.403, 57.974 86.167, 58.237 83.677, 59.997 83.181, 61.002 " />
            <path fill="none" stroke-width="3.0" stroke-linecap="butt" stroke-opacity="1.0" stroke="rgb(0, 0, 0)" stroke-linejoin="round" d=" M 63.670, 86.327 59.763, 87.907 53.469, 91.741 45.712, 98.052 42.733, 100.476 39.550, 103.640 37.119, 107.047 36.475, 109.726 35.041, 115.385 36.156, 118.828 37.498, 119.624 " />
            <path fill="none" stroke-width="3.0" stroke-linecap="butt" stroke-opacity="1.0" stroke="rgb(0, 0, 0)" stroke-linejoin="round" d=" M 35.041, 115.385 36.494, 110.995 39.002, 107.657 40.856, 105.188 45.309, 100.182 46.554, 98.729 48.821, 96.082 53.469, 91.741 " />
            <path fill="none" stroke-width="3.0" stroke-linecap="butt" stroke-opacity="1.0" stroke="rgb(0, 0, 0)" stroke-linejoin="round" d=" M 82.539, 41.456 82.190, 41.490 78.878, 41.808 74.447, 42.595 68.924, 44.866 65.573, 47.962 65.471, 48.076 65.402, 52.643 66.599, 55.817 " />
            <path fill="none" stroke-width="3.0" stroke-linecap="butt" stroke-opacity="1.0" stroke="rgb(0, 0, 0)" stroke-linejoin="round" d=" M 108.046, 45.953 107.081, 43.808 107.006, 43.641 106.151, 41.741 104.130, 37.598 103.277, 35.975 100.714, 31.990 99.459, 30.892 96.045, 28.626 91.971, 30.241 91.403, 30.578 86.919, 34.659 84.069, 38.500 82.190, 41.490 " />
            <path fill="none" stroke-width="3.0" stroke-linecap="butt" stroke-opacity="1.0" stroke="rgb(0, 0, 0)" stroke-linejoin="round" d=" M 71.857, 64.063 70.906, 67.116 69.926, 71.552 69.860, 77.125 " />
            <path fill="none" stroke-width="3.0" stroke-linecap="butt" stroke-opacity="1.0" stroke="rgb(0, 0, 0)" stroke-linejoin="round" d=" M 72.026, 64.296 71.857, 64.063 68.702, 59.713 68.039, 58.485 66.691, 55.988 66.599, 55.817 66.967, 56.820 68.039, 58.485 " />
            <path fill="none" stroke-width="3.0" stroke-linecap="butt" stroke-opacity="1.0" stroke="rgb(0, 0, 0)" stroke-linejoin="round" d=" M 111.462, 45.257 108.646, 44.118 107.006, 43.641 " />
            <path fill="none" stroke-width="3.0" stroke-linecap="butt" stroke-opacity="1.0" stroke="rgb(0, 0, 0)" stroke-linejoin="round" d=" M 132.573, 42.595 130.947, 42.518 125.747, 42.386 121.976, 42.850 112.228, 45.081 111.462, 45.257 111.088, 45.342 109.847, 45.626 100.820, 49.929 98.390, 51.088 93.630, 53.508 87.403, 57.974 83.181, 61.002 83.029, 61.111 76.179, 68.397 73.874, 70.849 70.257, 76.870 69.860, 77.125 68.538, 77.974 63.670, 86.327 62.754, 87.899 62.292, 88.691 60.919, 91.046 60.899, 91.107 60.661, 91.813 58.810, 97.306 58.611, 97.898 58.377, 98.591 59.119, 99.984 62.191, 105.757 63.263, 107.772 71.182, 113.880 74.507, 116.445 76.100, 117.673 77.402, 118.280 83.229, 120.996 86.653, 122.591 95.717, 126.815 96.099, 126.993 105.693, 129.815 115.286, 132.637 120.886, 134.284 130.764, 135.838 140.643, 137.391 146.838, 138.366 156.792, 138.505 166.791, 138.646 170.056, 138.691 179.890, 136.873 187.461, 135.474 194.358, 131.346 197.439, 129.502 197.515, 129.258 197.633, 128.875 197.766, 128.447 198.358, 126.531 198.386, 126.441 199.378, 123.234 199.817, 121.815 199.369, 117.383 198.364, 107.434 197.916, 102.999 196.493, 100.771 " />
            <path fill="none" stroke-width="3.0" stroke-linecap="butt" stroke-opacity="1.0" stroke="rgb(0, 0, 0)" stroke-linejoin="round" d=" M 96.045, 28.626 97.325, 29.743 98.679, 32.218 " />
            <path fill="none" stroke-width="3.0" stroke-linecap="butt" stroke-opacity="1.0" stroke="rgb(0, 0, 0)" stroke-linejoin="round" d=" M 82.539, 41.456 84.119, 42.676 " />
            <path fill="none" stroke-width="3.0" stroke-linecap="butt" stroke-opacity="1.0" stroke="rgb(0, 0, 0)" stroke-linejoin="round" d=" M 65.471, 48.076 66.913, 49.123 69.635, 50.813 " />
            <path fill="none" stroke-width="3.0" stroke-linecap="butt" stroke-opacity="1.0" stroke="rgb(0, 0, 0)" stroke-linejoin="round" d=" M 72.026, 64.296 73.597, 65.402 " />
            <path fill="none" stroke-width="3.0" stroke-linecap="butt" stroke-opacity="1.0" stroke="rgb(0, 0, 0)" stroke-linejoin="round" d=" M 196.378, 108.944 191.825, 111.043 190.063, 111.856 188.818, 112.430 188.188, 112.720 187.321, 113.120 177.405, 114.415 176.614, 114.518 176.607, 114.519 174.861, 114.747 171.412, 115.197 161.419, 114.834 151.425, 114.472 149.940, 114.418 " />
            <path fill="none" stroke-width="3.0" stroke-linecap="butt" stroke-opacity="1.0" stroke="rgb(0, 0, 0)" stroke-linejoin="round" d=" M 196.642, 101.563 196.493, 100.771 195.897, 97.617 192.533, 88.199 191.299, 84.743 186.207, 76.136 184.506, 73.260 182.076, 69.249 175.482, 61.731 173.417, 59.375 165.378, 53.428 163.065, 51.716 160.214, 49.819 155.717, 47.858 153.137, 46.884 " />
            <path fill="none" stroke-width="3.0" stroke-linecap="butt" stroke-opacity="1.0" stroke="rgb(0, 0, 0)" stroke-linejoin="round" d=" M 153.300, 47.500 152.925, 48.882 148.472, 49.140 141.603, 48.131 135.096, 46.253 131.566, 44.274 132.282, 42.969 " />
            <path fill="none" stroke-width="3.0" stroke-linecap="butt" stroke-opacity="1.0" stroke="rgb(0, 0, 0)" stroke-linejoin="round" d=" M 153.300, 47.500 153.137, 46.884 152.657, 45.069 150.683, 41.573 148.292, 40.350 144.000, 38.748 139.869, 38.538 136.937, 38.617 133.808, 41.010 132.573, 42.595 132.282, 42.969 " />
            <path fill="none" stroke-width="3.0" stroke-linecap="butt" stroke-opacity="1.0" stroke="rgb(0, 0, 0)" stroke-linejoin="round" d=" M 56.583, 139.932 52.423, 136.192 44.986, 129.507 44.074, 128.687 41.247, 126.146 39.077, 120.426 36.442, 113.479 " />
            <path fill="none" stroke-width="3.0" stroke-linecap="butt" stroke-opacity="1.0" stroke="rgb(0, 0, 0)" stroke-linejoin="round" d=" M 36.674, 117.415 36.156, 118.828 " />
        </g>
    </g>
</svg>
