<?xml version='1.0' encoding='ascii'?>
<svg xmlns="http://www.w3.org/2000/svg" version="1.1" width="250" height="250">
    <g id="ViewLayer_LineSet" xmlns:inkscape="http://www.inkscape.org/namespaces/inkscape" inkscape:groupmode="lineset" inkscape:label="ViewLayer_LineSet">
        <g xmlns:inkscape="http://www.inkscape.org/namespaces/inkscape" inkscape:groupmode="layer" id="strokes" inkscape:label="strokes">
            <path fill="none" stroke-width="3.0" stroke-linecap="butt" stroke-opacity="1.0" stroke="rgb(0, 0, 0)" stroke-linejoin="round" d=" M 46.342, 145.241 46.243, 146.627 46.223, 147.319 46.444, 150.008 47.453, 155.639 48.952, 161.498 52.117, 170.157 55.600, 177.148 60.545, 184.595 60.980, 185.135 62.424, 186.833 " />
            <path fill="none" stroke-width="3.0" stroke-linecap="butt" stroke-opacity="1.0" stroke="rgb(0, 0, 0)" stroke-linejoin="round" d=" M 124.474, 213.232 126.305, 213.074 130.214, 212.448 136.454, 211.013 141.438, 209.750 145.365, 208.224 154.044, 204.077 157.467, 201.911 165.542, 196.011 166.037, 195.649 172.976, 188.448 173.555, 187.846 175.552, 185.049 179.781, 178.676 182.495, 174.573 183.059, 173.326 186.521, 165.674 189.201, 156.040 189.556, 154.764 189.854, 152.059 " />
            <path fill="none" stroke-width="3.0" stroke-linecap="butt" stroke-opacity="1.0" stroke="rgb(0, 0, 0)" stroke-linejoin="round" d=" M 46.360, 133.079 46.066, 139.411 46.013, 142.821 46.096, 144.538 46.141, 144.741 46.342, 145.241 46.344, 145.246 46.347, 145.254 46.349, 145.258 46.406, 145.393 46.517, 145.511 " />
            <path fill="none" stroke-width="3.0" stroke-linecap="butt" stroke-opacity="1.0" stroke="rgb(0, 0, 0)" stroke-linejoin="round" d=" M 46.412, 146.692 46.416, 147.012 46.440, 148.733 46.441, 148.816 46.442, 148.858 46.488, 149.941 " />
            <path fill="none" stroke-width="3.0" stroke-linecap="butt" stroke-opacity="1.0" stroke="rgb(0, 0, 0)" stroke-linejoin="round" d=" M 46.700, 140.175 46.802, 140.871 46.827, 141.826 46.789, 142.813 46.634, 143.996 46.517, 145.511 46.514, 145.546 46.412, 146.692 46.389, 146.801 46.361, 146.938 46.272, 147.363 " />
            <path fill="none" stroke-width="3.0" stroke-linecap="butt" stroke-opacity="1.0" stroke="rgb(0, 0, 0)" stroke-linejoin="round" d=" M 59.216, 104.088 58.073, 107.005 58.129, 107.071 55.022, 114.504 53.171, 118.149 51.572, 121.839 50.627, 124.141 50.176, 125.240 49.000, 128.189 48.090, 130.416 48.039, 130.540 47.277, 132.179 46.692, 133.026 46.362, 133.039 46.270, 133.043 46.012, 132.229 45.933, 130.625 45.994, 129.560 46.065, 128.309 46.181, 127.417 46.445, 125.390 47.113, 122.006 48.091, 118.314 49.385, 114.483 49.832, 113.410 50.946, 110.737 52.610, 107.196 52.957, 106.514 54.306, 103.864 55.137, 102.363 " />
            <path fill="none" stroke-width="3.0" stroke-linecap="butt" stroke-opacity="1.0" stroke="rgb(0, 0, 0)" stroke-linejoin="round" d=" M 46.270, 133.043 46.360, 133.079 " />
            <path fill="none" stroke-width="3.0" stroke-linecap="butt" stroke-opacity="1.0" stroke="rgb(0, 0, 0)" stroke-linejoin="round" d=" M 48.710, 112.944 47.339, 116.479 46.269, 119.853 45.509, 122.902 45.043, 125.473 44.841, 127.437 44.865, 128.694 45.081, 129.187 " />
            <path fill="none" stroke-width="3.0" stroke-linecap="butt" stroke-opacity="1.0" stroke="rgb(0, 0, 0)" stroke-linejoin="round" d=" M 45.081, 129.187 45.994, 129.560 " />
            <path fill="none" stroke-width="3.0" stroke-linecap="butt" stroke-opacity="1.0" stroke="rgb(0, 0, 0)" stroke-linejoin="round" d=" M 54.220, 101.964 53.684, 102.978 51.973, 106.102 " />
            <path fill="none" stroke-width="3.0" stroke-linecap="butt" stroke-opacity="1.0" stroke="rgb(0, 0, 0)" stroke-linejoin="round" d=" M 49.832, 113.410 48.710, 112.944 50.307, 109.470 51.973, 106.102 52.957, 106.514 " />
            <path fill="none" stroke-width="3.0" stroke-linecap="butt" stroke-opacity="1.0" stroke="rgb(0, 0, 0)" stroke-linejoin="round" d=" M 29.187, 194.436 26.937, 196.236 24.840, 197.913 21.803, 202.050 20.420, 206.712 20.703, 212.214 21.415, 213.660 24.252, 218.351 26.974, 220.442 33.086, 224.328 37.462, 226.438 42.645, 229.282 44.039, 229.694 53.544, 232.801 55.640, 233.486 65.464, 235.351 70.813, 236.366 80.689, 237.932 85.703, 238.726 95.654, 239.723 96.355, 239.793 102.463, 239.818 104.928, 239.446 110.267, 238.822 112.684, 237.777 118.238, 235.006 121.476, 231.641 122.661, 229.648 122.923, 229.074 124.673, 225.238 125.300, 220.137 124.765, 214.570 124.474, 213.232 124.307, 212.466 " />
            <path fill="none" stroke-width="3.0" stroke-linecap="butt" stroke-opacity="1.0" stroke="rgb(0, 0, 0)" stroke-linejoin="round" d=" M 66.762, 186.338 62.489, 186.909 60.626, 187.157 54.466, 187.979 45.010, 188.832 36.575, 190.565 29.744, 193.688 26.937, 196.236 " />
            <path fill="none" stroke-width="3.0" stroke-linecap="butt" stroke-opacity="1.0" stroke="rgb(0, 0, 0)" stroke-linejoin="round" d=" M 66.063, 186.176 62.424, 186.833 60.626, 187.157 " />
            <path fill="none" stroke-width="3.0" stroke-linecap="butt" stroke-opacity="1.0" stroke="rgb(0, 0, 0)" stroke-linejoin="round" d=" M 122.923, 229.074 124.592, 228.887 130.212, 227.785 135.075, 226.572 135.892, 226.262 144.815, 221.747 148.370, 219.948 148.764, 219.716 156.814, 213.784 158.820, 212.306 166.831, 206.320 168.670, 204.946 175.495, 199.411 179.280, 196.143 180.341, 194.326 183.152, 190.793 184.767, 186.619 185.912, 183.268 185.876, 179.567 185.046, 177.217 183.478, 173.792 183.059, 173.326 " />
            <path fill="none" stroke-width="3.0" stroke-linecap="butt" stroke-opacity="1.0" stroke="rgb(0, 0, 0)" stroke-linejoin="round" d=" M 129.852, 185.708 133.427, 189.049 137.515, 191.733 141.496, 193.633 144.941, 194.678 148.877, 195.739 152.309, 195.844 156.025, 195.477 158.788, 194.947 161.690, 193.857 163.888, 192.799 166.004, 191.356 168.229, 189.684 169.602, 188.188 172.014, 185.499 173.604, 182.446 174.816, 179.843 175.582, 176.671 176.338, 173.275 176.455, 169.176 176.182, 167.171 176.153, 166.958 175.350, 162.555 173.956, 157.810 171.375, 151.870 168.182, 146.677 166.456, 144.231 " />
            <path fill="none" stroke-width="3.0" stroke-linecap="butt" stroke-opacity="1.0" stroke="rgb(0, 0, 0)" stroke-linejoin="round" d=" M 122.589, 178.292 126.653, 182.944 128.199, 184.280 129.852, 185.708 131.661, 187.270 " />
            <path fill="none" stroke-width="3.0" stroke-linecap="butt" stroke-opacity="1.0" stroke="rgb(0, 0, 0)" stroke-linejoin="round" d=" M 58.076, 66.608 58.284, 66.079 58.466, 65.615 58.791, 64.788 " />
            <path fill="none" stroke-width="3.0" stroke-linecap="butt" stroke-opacity="1.0" stroke="rgb(0, 0, 0)" stroke-linejoin="round" d=" M 34.535, 81.339 34.714, 81.390 39.695, 81.777 45.864, 80.044 51.842, 74.628 51.880, 74.580 " />
            <path fill="none" stroke-width="3.0" stroke-linecap="butt" stroke-opacity="1.0" stroke="rgb(0, 0, 0)" stroke-linejoin="round" d=" M 79.737, 63.109 80.491, 62.107 81.930, 60.118 81.990, 60.005 82.222, 59.572 79.516, 57.916 " />
            <path fill="none" stroke-width="3.0" stroke-linecap="butt" stroke-opacity="1.0" stroke="rgb(0, 0, 0)" stroke-linejoin="round" d=" M 36.923, 92.845 40.503, 94.938 40.874, 95.155 41.240, 95.369 50.438, 99.293 54.676, 101.100 55.615, 101.501 55.938, 101.639 57.038, 102.076 57.444, 102.238 59.590, 103.090 59.612, 103.099 61.810, 103.973 62.191, 104.124 66.216, 105.723 75.509, 109.417 79.538, 111.018 88.884, 114.574 89.959, 114.983 " />
            <path fill="none" stroke-width="3.0" stroke-linecap="butt" stroke-opacity="1.0" stroke="rgb(0, 0, 0)" stroke-linejoin="round" d=" M 51.106, 81.733 43.523, 85.467 38.895, 89.401 36.923, 92.845 39.703, 94.972 43.945, 97.497 53.116, 101.484 54.220, 101.964 55.137, 102.363 56.622, 103.008 56.886, 103.123 57.858, 103.545 59.116, 104.048 59.216, 104.088 61.372, 104.950 61.663, 105.066 65.858, 106.743 75.143, 110.455 81.080, 112.828 90.423, 116.391 90.822, 116.543 " />
            <path fill="none" stroke-width="3.0" stroke-linecap="butt" stroke-opacity="1.0" stroke="rgb(0, 0, 0)" stroke-linejoin="round" d=" M 113.928, 125.310 119.464, 127.342 124.519, 129.197 133.907, 132.642 142.595, 135.831 152.028, 139.152 161.460, 142.472 166.456, 144.231 170.698, 145.724 180.193, 148.864 189.854, 152.059 191.082, 152.465 200.704, 155.186 201.902, 155.525 205.023, 155.521 206.389, 155.125 207.346, 151.439 206.100, 145.513 202.608, 137.091 198.260, 131.848 196.672, 130.772 192.374, 127.918 191.595, 127.401 190.624, 126.757 " />
            <path fill="none" stroke-width="3.0" stroke-linecap="butt" stroke-opacity="1.0" stroke="rgb(0, 0, 0)" stroke-linejoin="round" d=" M 58.467, 58.084 58.755, 64.039 58.760, 64.153 58.787, 64.699 58.790, 64.759 58.791, 64.788 58.805, 65.081 58.806, 65.093 58.862, 66.261 59.304, 66.671 59.889, 67.215 60.024, 67.341 60.481, 67.766 61.319, 68.545 61.425, 68.643 65.341, 72.285 67.083, 72.239 67.820, 72.220 67.849, 72.219 68.051, 72.214 68.097, 72.213 68.105, 72.212 71.624, 72.120 " />
            <path fill="none" stroke-width="3.0" stroke-linecap="butt" stroke-opacity="1.0" stroke="rgb(0, 0, 0)" stroke-linejoin="round" d=" M 79.851, 65.772 79.737, 63.109 79.703, 62.308 79.691, 62.034 79.516, 57.916 79.480, 57.074 73.086, 50.998 71.343, 51.026 70.644, 51.037 65.423, 51.122 64.355, 51.139 64.223, 51.280 63.774, 51.761 63.698, 51.843 63.663, 51.879 63.653, 51.890 63.633, 51.912 63.572, 51.978 63.331, 52.236 63.313, 52.254 62.777, 52.829 60.082, 55.716 " />
            <path fill="none" stroke-width="3.0" stroke-linecap="butt" stroke-opacity="1.0" stroke="rgb(0, 0, 0)" stroke-linejoin="round" d=" M 57.881, 67.004 57.912, 66.941 58.076, 66.608 59.889, 67.215 " />
            <path fill="none" stroke-width="3.0" stroke-linecap="butt" stroke-opacity="1.0" stroke="rgb(0, 0, 0)" stroke-linejoin="round" d=" M 29.373, 75.769 29.228, 76.629 29.011, 77.922 28.845, 78.977 30.167, 80.202 33.989, 81.296 34.535, 81.339 39.391, 81.717 46.003, 79.888 51.880, 74.580 52.070, 74.408 55.590, 69.881 57.554, 67.415 57.622, 67.329 57.872, 67.016 57.881, 67.004 57.916, 67.014 58.408, 67.159 60.481, 67.766 " />
            <path fill="none" stroke-width="3.0" stroke-linecap="butt" stroke-opacity="1.0" stroke="rgb(0, 0, 0)" stroke-linejoin="round" d=" M 50.873, 80.167 51.179, 80.352 52.728, 81.152 53.683, 81.645 57.543, 85.223 59.281, 86.638 62.328, 89.120 65.484, 91.814 68.053, 94.008 73.869, 99.058 78.899, 103.437 79.349, 103.809 83.756, 107.453 85.655, 109.344 87.490, 111.172 88.047, 111.727 90.333, 115.024 90.448, 115.293 91.011, 116.615 91.510, 117.786 91.684, 118.062 92.556, 119.444 101.985, 122.773 111.415, 126.102 112.976, 126.653 113.928, 125.310 " />
            <path fill="none" stroke-width="3.0" stroke-linecap="butt" stroke-opacity="1.0" stroke="rgb(0, 0, 0)" stroke-linejoin="round" d=" M 64.776, 76.639 64.080, 76.520 63.877, 76.576 54.238, 79.238 50.873, 80.167 51.106, 81.733 " />
            <path fill="none" stroke-width="3.0" stroke-linecap="butt" stroke-opacity="1.0" stroke="rgb(0, 0, 0)" stroke-linejoin="round" d=" M 107.053, 114.071 106.046, 112.410 103.741, 108.609 98.353, 102.459 94.008, 97.423 88.280, 92.066 84.000, 88.808 82.522, 87.683 81.996, 87.282 78.331, 84.720 76.485, 83.430 75.729, 82.902 75.542, 82.771 74.100, 81.764 71.664, 80.060 68.031, 78.304 67.827, 78.206 67.199, 77.836 65.332, 76.735 " />
            <path fill="none" stroke-width="3.0" stroke-linecap="butt" stroke-opacity="1.0" stroke="rgb(0, 0, 0)" stroke-linejoin="round" d=" M 87.533, 113.434 89.821, 114.734 89.939, 114.800 90.333, 115.024 " />
            <path fill="none" stroke-width="3.0" stroke-linecap="butt" stroke-opacity="1.0" stroke="rgb(0, 0, 0)" stroke-linejoin="round" d=" M 111.587, 125.047 111.459, 124.404 111.191, 123.053 110.794, 121.050 109.449, 118.736 108.795, 117.610 108.020, 116.275 107.732, 115.780 107.629, 115.595 106.754, 114.023 103.741, 108.609 " />
            <path fill="none" stroke-width="3.0" stroke-linecap="butt" stroke-opacity="1.0" stroke="rgb(0, 0, 0)" stroke-linejoin="round" d=" M 112.976, 126.653 111.587, 125.047 " />
            <path fill="none" stroke-width="3.0" stroke-linecap="butt" stroke-opacity="1.0" stroke="rgb(0, 0, 0)" stroke-linejoin="round" d=" M 110.794, 121.050 110.696, 120.848 109.212, 117.764 " />
            <path fill="none" stroke-width="3.0" stroke-linecap="butt" stroke-opacity="1.0" stroke="rgb(0, 0, 0)" stroke-linejoin="round" d=" M 58.373, 67.675 64.014, 72.913 65.413, 72.876 " />
            <path fill="none" stroke-width="3.0" stroke-linecap="butt" stroke-opacity="1.0" stroke="rgb(0, 0, 0)" stroke-linejoin="round" d=" M 64.000, 50.329 64.432, 46.919 64.789, 36.925 64.799, 36.636 63.781, 27.757 60.793, 21.585 57.224, 18.161 53.821, 16.327 52.041, 16.504 50.306, 19.564 46.963, 23.186 43.124, 28.625 38.638, 37.562 37.628, 39.574 36.422, 42.368 33.917, 48.394 31.929, 55.609 29.455, 64.745 29.055, 70.685 29.228, 76.629 " />
            <path fill="none" stroke-width="3.0" stroke-linecap="butt" stroke-opacity="1.0" stroke="rgb(0, 0, 0)" stroke-linejoin="round" d=" M 39.542, 80.691 34.227, 80.262 30.356, 79.139 30.002, 78.819 29.011, 77.922 30.203, 74.398 30.596, 73.235 31.211, 71.505 33.151, 66.052 35.184, 60.479 36.718, 56.317 " />
            <path fill="none" stroke-width="3.0" stroke-linecap="butt" stroke-opacity="1.0" stroke="rgb(0, 0, 0)" stroke-linejoin="round" d=" M 46.471, 29.878 44.961, 31.535 " />
            <path fill="none" stroke-width="3.0" stroke-linecap="butt" stroke-opacity="1.0" stroke="rgb(0, 0, 0)" stroke-linejoin="round" d=" M 46.671, 29.794 46.471, 29.878 46.043, 30.434 46.042, 30.435 44.785, 32.444 " />
            <path fill="none" stroke-width="3.0" stroke-linecap="butt" stroke-opacity="1.0" stroke="rgb(0, 0, 0)" stroke-linejoin="round" d=" M 52.737, 31.939 48.463, 29.939 46.671, 29.794 47.968, 26.409 49.617, 22.165 51.358, 17.884 52.041, 16.504 " />
            <path fill="none" stroke-width="3.0" stroke-linecap="butt" stroke-opacity="1.0" stroke="rgb(0, 0, 0)" stroke-linejoin="round" d=" M 42.719, 58.720 38.295, 57.067 36.718, 56.317 37.886, 52.672 39.616, 47.395 41.525, 41.799 43.493, 36.269 44.935, 32.724 45.866, 30.798 46.042, 30.435 46.043, 30.434 " />
            <path fill="none" stroke-width="3.0" stroke-linecap="butt" stroke-opacity="1.0" stroke="rgb(0, 0, 0)" stroke-linejoin="round" d=" M 144.577, 43.358 141.623, 42.815 137.332, 42.027 133.213, 41.464 123.240, 42.202 121.182, 42.355 117.753, 42.740 108.134, 45.473 104.348, 46.548 95.337, 50.884 92.523, 52.238 84.475, 58.173 81.990, 60.005 " />
            <path fill="none" stroke-width="3.0" stroke-linecap="butt" stroke-opacity="1.0" stroke="rgb(0, 0, 0)" stroke-linejoin="round" d=" M 160.188, 49.681 159.958, 47.526 158.662, 44.088 156.244, 42.545 153.137, 40.831 148.582, 39.862 146.370, 39.782 142.990, 41.570 141.623, 42.815 " />
            <path fill="none" stroke-width="3.0" stroke-linecap="butt" stroke-opacity="1.0" stroke="rgb(0, 0, 0)" stroke-linejoin="round" d=" M 45.233, 36.545 49.055, 38.276 53.448, 40.916 " />
            <path fill="none" stroke-width="3.0" stroke-linecap="butt" stroke-opacity="1.0" stroke="rgb(0, 0, 0)" stroke-linejoin="round" d=" M 195.874, 128.499 194.226, 127.307 188.724, 124.925 186.904, 124.137 185.267, 123.429 175.978, 119.725 169.075, 116.972 159.737, 113.395 150.398, 109.818 147.184, 108.587 137.812, 105.100 128.439, 101.614 122.605, 99.443 113.201, 96.043 103.796, 92.643 99.140, 90.959 89.697, 87.668 80.254, 84.376 75.729, 82.902 " />
            <path fill="none" stroke-width="3.0" stroke-linecap="butt" stroke-opacity="1.0" stroke="rgb(0, 0, 0)" stroke-linejoin="round" d=" M 78.331, 84.720 82.745, 86.174 92.182, 89.480 100.628, 92.438 110.030, 95.844 119.432, 99.249 122.749, 100.451 132.122, 103.936 141.495, 107.421 145.902, 109.060 155.243, 112.628 164.585, 116.197 166.580, 116.959 175.876, 120.644 181.979, 123.063 188.129, 125.691 188.964, 126.047 190.624, 126.757 " />
            <path fill="none" stroke-width="3.0" stroke-linecap="butt" stroke-opacity="1.0" stroke="rgb(0, 0, 0)" stroke-linejoin="round" d=" M 79.418, 68.185 77.517, 68.286 76.196, 68.356 75.718, 68.382 75.373, 68.400 74.584, 68.319 " />
            <path fill="none" stroke-width="3.0" stroke-linecap="butt" stroke-opacity="1.0" stroke="rgb(0, 0, 0)" stroke-linejoin="round" d=" M 75.373, 68.400 75.658, 68.459 76.030, 68.536 76.214, 68.574 77.083, 68.754 86.876, 70.781 88.861, 71.191 " />
            <path fill="none" stroke-width="3.0" stroke-linecap="butt" stroke-opacity="1.0" stroke="rgb(0, 0, 0)" stroke-linejoin="round" d=" M 192.374, 127.918 195.874, 128.499 196.390, 118.513 196.906, 108.526 196.922, 108.224 195.160, 106.321 193.608, 104.646 " />
            <path fill="none" stroke-width="3.0" stroke-linecap="butt" stroke-opacity="1.0" stroke="rgb(0, 0, 0)" stroke-linejoin="round" d=" M 195.160, 106.321 194.587, 103.054 192.371, 93.303 191.550, 89.688 187.585, 80.507 186.379, 77.713 185.045, 75.238 179.559, 66.877 177.601, 63.892 170.498, 56.853 168.656, 55.028 165.839, 52.941 160.188, 49.681 156.469, 47.535 " />
            <path fill="none" stroke-width="3.0" stroke-linecap="butt" stroke-opacity="1.0" stroke="rgb(0, 0, 0)" stroke-linejoin="round" d=" M 156.469, 47.535 150.446, 45.026 144.577, 43.358 " />
            <path fill="none" stroke-width="3.0" stroke-linecap="butt" stroke-opacity="1.0" stroke="rgb(0, 0, 0)" stroke-linejoin="round" d=" M 111.191, 123.053 114.446, 124.249 118.944, 125.900 125.740, 128.396 135.128, 131.843 143.672, 134.981 153.101, 138.312 162.530, 141.644 165.329, 142.633 172.912, 145.312 182.398, 148.476 189.970, 151.001 193.986, 152.340 203.064, 154.956 203.306, 155.026 205.023, 155.521 " />
            <path fill="none" stroke-width="3.0" stroke-linecap="butt" stroke-opacity="1.0" stroke="rgb(0, 0, 0)" stroke-linejoin="round" d=" M 174.503, 141.041 165.091, 137.665 159.867, 135.791 150.454, 132.415 145.470, 130.627 136.086, 127.173 133.342, 126.163 123.957, 122.709 114.488, 119.223 113.226, 118.759 112.618, 118.535 " />
            <path fill="none" stroke-width="3.0" stroke-linecap="butt" stroke-opacity="1.0" stroke="rgb(0, 0, 0)" stroke-linejoin="round" d=" M 71.343, 51.026 69.442, 49.392 66.732, 48.592 64.303, 49.939 64.000, 50.329 " />
            <path fill="none" stroke-width="3.0" stroke-linecap="butt" stroke-opacity="1.0" stroke="rgb(0, 0, 0)" stroke-linejoin="round" d=" M 63.313, 52.254 63.902, 50.483 63.922, 50.491 63.977, 50.514 65.423, 51.122 " />
            <path fill="none" stroke-width="3.0" stroke-linecap="butt" stroke-opacity="1.0" stroke="rgb(0, 0, 0)" stroke-linejoin="round" d=" M 57.872, 67.016 57.918, 67.052 58.754, 67.701 58.959, 67.861 65.413, 72.876 66.175, 73.468 66.660, 73.845 " />
            <path fill="none" stroke-width="3.0" stroke-linecap="butt" stroke-opacity="1.0" stroke="rgb(0, 0, 0)" stroke-linejoin="round" d=" M 57.554, 67.415 58.373, 67.675 58.959, 67.861 " />
            <path fill="none" stroke-width="3.0" stroke-linecap="butt" stroke-opacity="1.0" stroke="rgb(0, 0, 0)" stroke-linejoin="round" d=" M 66.897, 73.773 66.849, 73.788 66.660, 73.845 " />
            <path fill="none" stroke-width="3.0" stroke-linecap="butt" stroke-opacity="1.0" stroke="rgb(0, 0, 0)" stroke-linejoin="round" d=" M 58.408, 67.159 59.578, 68.057 65.836, 72.864 66.336, 73.249 66.823, 73.623 66.910, 73.690 66.941, 73.713 " />
            <path fill="none" stroke-width="3.0" stroke-linecap="butt" stroke-opacity="1.0" stroke="rgb(0, 0, 0)" stroke-linejoin="round" d=" M 66.175, 73.468 63.877, 76.576 " />
            <path fill="none" stroke-width="3.0" stroke-linecap="butt" stroke-opacity="1.0" stroke="rgb(0, 0, 0)" stroke-linejoin="round" d=" M 68.051, 72.214 67.604, 72.817 66.941, 73.713 66.897, 73.773 66.663, 74.089 64.776, 76.639 64.273, 77.318 " />
            <path fill="none" stroke-width="3.0" stroke-linecap="butt" stroke-opacity="1.0" stroke="rgb(0, 0, 0)" stroke-linejoin="round" d=" M 89.959, 114.983 90.822, 116.543 91.510, 117.786 " />
        </g>
    </g>
</svg>
