<?xml version='1.0' encoding='ascii'?>
<svg xmlns="http://www.w3.org/2000/svg" version="1.1" width="250" height="250">
    <g id="ViewLayer_LineSet" xmlns:inkscape="http://www.inkscape.org/namespaces/inkscape" inkscape:groupmode="lineset" inkscape:label="ViewLayer_LineSet">
        <g xmlns:inkscape="http://www.inkscape.org/namespaces/inkscape" inkscape:groupmode="layer" id="strokes" inkscape:label="strokes">
            <path fill="none" stroke-width="3.0" stroke-linecap="butt" stroke-opacity="1.0" stroke="rgb(0, 0, 0)" stroke-linejoin="round" d=" M 108.911, 215.311 112.137, 215.670 113.203, 215.789 117.712, 215.985 122.234, 215.890 126.568, 215.510 127.983, 215.278 130.523, 214.863 136.850, 213.468 141.892, 212.163 145.861, 210.587 154.656, 206.425 158.110, 204.188 166.197, 198.306 166.793, 197.873 173.744, 190.684 174.412, 189.993 175.810, 187.969 " />
            <path fill="none" stroke-width="3.0" stroke-linecap="butt" stroke-opacity="1.0" stroke="rgb(0, 0, 0)" stroke-linejoin="round" d=" M 59.391, 99.467 57.983, 101.237 53.749, 108.345 49.941, 117.013 49.362, 118.888 48.427, 121.914 48.323, 122.254 47.273, 125.651 46.021, 131.807 45.477, 138.186 45.251, 142.677 45.284, 143.487 45.480, 148.333 45.960, 152.829 46.473, 155.600 46.821, 157.473 47.667, 161.423 48.953, 165.726 50.617, 170.192 52.585, 174.628 54.774, 178.841 57.089, 182.646 59.429, 185.869 61.690, 188.866 62.361, 189.755 65.346, 193.039 " />
            <path fill="none" stroke-width="3.0" stroke-linecap="butt" stroke-opacity="1.0" stroke="rgb(0, 0, 0)" stroke-linejoin="round" d=" M 190.707, 130.694 188.825, 121.889 188.660, 121.463 " />
            <path fill="none" stroke-width="3.0" stroke-linecap="butt" stroke-opacity="1.0" stroke="rgb(0, 0, 0)" stroke-linejoin="round" d=" M 77.110, 151.135 77.664, 152.536 79.027, 154.605 80.922, 156.266 83.117, 157.498 83.955, 157.681 83.961, 157.682 83.995, 157.690 85.158, 157.944 87.252, 157.875 89.626, 157.050 91.674, 155.725 93.223, 153.880 93.939, 152.565 " />
            <path fill="none" stroke-width="3.0" stroke-linecap="butt" stroke-opacity="1.0" stroke="rgb(0, 0, 0)" stroke-linejoin="round" d=" M 117.435, 102.000 117.617, 102.612 118.018, 103.960 118.470, 107.351 118.510, 111.176 118.527, 111.245 117.429, 119.503 117.414, 119.616 117.408, 119.664 116.182, 123.878 114.677, 128.169 112.923, 132.166 110.982, 135.677 108.922, 138.529 108.582, 138.860 108.193, 139.238 106.814, 140.580 104.729, 141.726 102.740, 141.909 101.458, 141.350 100.920, 141.116 99.343, 139.381 98.377, 137.398 98.124, 136.878 98.077, 136.782 97.184, 133.442 96.711, 129.520 96.689, 125.205 97.125, 120.703 97.981, 116.290 98.163, 115.662 98.206, 115.511 99.184, 112.126 100.705, 108.223 102.483, 104.721 104.451, 101.745 105.383, 100.694 " />
            <path fill="none" stroke-width="3.0" stroke-linecap="butt" stroke-opacity="1.0" stroke="rgb(0, 0, 0)" stroke-linejoin="round" d=" M 77.311, 119.608 76.333, 123.902 75.250, 128.011 74.283, 131.074 74.151, 131.492 74.074, 131.735 72.813, 134.887 71.473, 137.308 70.070, 138.879 68.917, 139.396 68.632, 139.524 67.221, 139.517 65.845, 137.978 64.638, 135.874 63.662, 133.013 63.000, 129.541 62.901, 128.172 62.866, 127.694 62.717, 125.632 62.855, 121.474 63.113, 119.557 63.414, 117.324 64.280, 113.324 65.398, 109.480 66.722, 105.927 67.336, 104.623 67.576, 104.114 68.199, 102.789 69.772, 100.172 70.605, 99.131 " />
            <path fill="none" stroke-width="3.0" stroke-linecap="butt" stroke-opacity="1.0" stroke="rgb(0, 0, 0)" stroke-linejoin="round" d=" M 67.221, 139.517 70.425, 140.900 " />
            <path fill="none" stroke-width="3.0" stroke-linecap="butt" stroke-opacity="1.0" stroke="rgb(0, 0, 0)" stroke-linejoin="round" d=" M 77.880, 98.913 78.527, 101.201 78.887, 104.116 78.996, 107.606 78.840, 109.502 78.816, 109.790 78.687, 111.349 " />
            <path fill="none" stroke-width="3.0" stroke-linecap="butt" stroke-opacity="1.0" stroke="rgb(0, 0, 0)" stroke-linejoin="round" d=" M 80.417, 121.555 77.311, 119.608 77.447, 118.909 78.134, 115.402 78.687, 111.349 81.754, 113.389 " />
            <path fill="none" stroke-width="3.0" stroke-linecap="butt" stroke-opacity="1.0" stroke="rgb(0, 0, 0)" stroke-linejoin="round" d=" M 183.229, 214.174 184.669, 210.621 187.725, 203.078 190.210, 193.391 190.470, 192.376 190.535, 191.286 " />
            <path fill="none" stroke-width="3.0" stroke-linecap="butt" stroke-opacity="1.0" stroke="rgb(0, 0, 0)" stroke-linejoin="round" d=" M 141.451, 233.942 145.900, 235.332 146.886, 235.641 147.653, 235.824 152.417, 236.235 157.650, 235.538 164.288, 233.517 169.764, 230.784 175.124, 226.979 178.129, 223.138 179.601, 221.245 182.600, 215.935 184.669, 210.621 " />
            <path fill="none" stroke-width="3.0" stroke-linecap="butt" stroke-opacity="1.0" stroke="rgb(0, 0, 0)" stroke-linejoin="round" d=" M 127.983, 215.278 128.009, 215.501 128.755, 217.922 130.760, 223.872 131.954, 225.989 135.776, 230.354 141.451, 233.942 142.298, 234.323 145.900, 235.332 " />
            <path fill="none" stroke-width="3.0" stroke-linecap="butt" stroke-opacity="1.0" stroke="rgb(0, 0, 0)" stroke-linejoin="round" d=" M 61.690, 188.866 59.074, 190.324 53.856, 193.309 48.294, 198.217 44.305, 202.236 40.699, 206.653 38.135, 211.315 36.707, 215.539 35.569, 218.718 34.825, 222.724 34.935, 226.367 35.876, 230.094 36.978, 233.733 39.868, 236.519 42.614, 239.125 47.346, 241.568 51.925, 242.886 57.040, 243.323 63.920, 243.149 67.994, 242.524 74.734, 240.966 78.076, 239.945 82.037, 238.696 89.457, 234.339 92.389, 232.300 99.952, 226.919 105.922, 222.421 109.162, 219.071 112.026, 215.892 112.137, 215.670 " />
            <path fill="none" stroke-width="3.0" stroke-linecap="butt" stroke-opacity="1.0" stroke="rgb(0, 0, 0)" stroke-linejoin="round" d=" M 170.514, 184.759 174.464, 187.328 175.810, 187.969 178.310, 189.159 181.482, 190.263 185.308, 191.295 188.649, 191.417 190.535, 191.286 192.134, 191.174 194.851, 190.678 197.580, 189.728 199.759, 188.721 201.739, 187.422 203.940, 185.836 207.593, 181.923 209.187, 179.018 210.312, 176.591 211.122, 173.556 211.827, 170.358 211.911, 166.483 211.700, 164.337 210.905, 160.157 209.536, 155.646 207.012, 149.989 203.898, 145.034 202.469, 142.980 200.988, 140.862 200.680, 140.421 199.300, 138.447 195.898, 134.552 192.071, 131.401 190.707, 130.694 186.498, 128.512 " />
            <path fill="none" stroke-width="3.0" stroke-linecap="butt" stroke-opacity="1.0" stroke="rgb(0, 0, 0)" stroke-linejoin="round" d=" M 45.284, 143.487 45.189, 143.948 44.787, 147.134 45.407, 152.370 45.818, 154.308 46.473, 155.600 " />
            <path fill="none" stroke-width="3.0" stroke-linecap="butt" stroke-opacity="1.0" stroke="rgb(0, 0, 0)" stroke-linejoin="round" d=" M 116.260, 71.644 119.424, 69.222 119.508, 69.158 119.668, 68.831 119.705, 68.757 121.360, 65.390 122.345, 62.798 122.326, 59.117 121.309, 56.451 119.405, 52.741 117.680, 51.480 " />
            <path fill="none" stroke-width="3.0" stroke-linecap="butt" stroke-opacity="1.0" stroke="rgb(0, 0, 0)" stroke-linejoin="round" d=" M 56.096, 54.985 56.003, 55.250 54.482, 59.548 52.843, 65.636 52.273, 73.487 52.564, 74.751 54.215, 80.038 56.704, 81.280 59.926, 82.029 61.484, 82.392 61.848, 82.476 65.732, 82.921 71.741, 81.866 77.305, 80.446 82.739, 78.281 82.808, 78.253 " />
            <path fill="none" stroke-width="3.0" stroke-linecap="butt" stroke-opacity="1.0" stroke="rgb(0, 0, 0)" stroke-linejoin="round" d=" M 33.812, 111.510 31.611, 106.996 32.792, 105.851 37.492, 101.293 41.808, 100.199 49.689, 98.200 53.183, 97.313 56.961, 97.182 59.086, 97.109 61.329, 97.031 71.323, 96.685 73.509, 96.609 75.992, 96.523 76.006, 96.523 79.965, 96.386 89.935, 97.166 99.904, 97.947 107.623, 98.551 113.680, 99.025 116.270, 99.477 116.332, 99.488 126.183, 101.206 136.034, 102.925 145.885, 104.643 147.669, 104.955 157.332, 107.529 166.995, 110.104 176.658, 112.679 177.081, 112.792 178.192, 113.250 178.892, 113.539 183.063, 115.260 186.013, 116.477 " />
            <path fill="none" stroke-width="3.0" stroke-linecap="butt" stroke-opacity="1.0" stroke="rgb(0, 0, 0)" stroke-linejoin="round" d=" M 200.680, 140.421 206.660, 136.932 206.290, 130.594 200.089, 125.870 197.908, 124.209 " />
            <path fill="none" stroke-width="3.0" stroke-linecap="butt" stroke-opacity="1.0" stroke="rgb(0, 0, 0)" stroke-linejoin="round" d=" M 39.010, 107.635 40.876, 106.004 44.979, 102.419 54.746, 100.275 58.278, 99.500 " />
            <path fill="none" stroke-width="3.0" stroke-linecap="butt" stroke-opacity="1.0" stroke="rgb(0, 0, 0)" stroke-linejoin="round" d=" M 38.869, 116.395 47.141, 121.772 48.323, 122.254 " />
            <path fill="none" stroke-width="3.0" stroke-linecap="butt" stroke-opacity="1.0" stroke="rgb(0, 0, 0)" stroke-linejoin="round" d=" M 55.980, 99.569 46.216, 101.726 45.503, 101.884 41.089, 102.859 39.819, 103.140 33.811, 108.630 34.553, 110.196 " />
            <path fill="none" stroke-width="3.0" stroke-linecap="butt" stroke-opacity="1.0" stroke="rgb(0, 0, 0)" stroke-linejoin="round" d=" M 55.980, 99.569 58.278, 99.500 59.391, 99.467 59.641, 99.459 61.484, 99.404 70.605, 99.131 76.080, 98.967 77.880, 98.913 79.239, 98.873 81.511, 98.805 91.480, 99.594 101.449, 100.383 105.383, 100.694 110.182, 101.074 113.434, 101.331 117.435, 102.000 118.005, 102.096 127.868, 103.746 132.708, 104.555 142.571, 106.205 146.740, 106.903 156.410, 109.450 166.080, 111.997 175.690, 114.528 179.317, 116.004 184.283, 118.026 " />
            <path fill="none" stroke-width="3.0" stroke-linecap="butt" stroke-opacity="1.0" stroke="rgb(0, 0, 0)" stroke-linejoin="round" d=" M 41.019, 93.627 36.216, 97.535 33.049, 100.742 31.237, 103.587 30.066, 106.620 30.059, 109.086 30.523, 111.261 34.850, 115.389 37.530, 116.862 38.869, 116.395 38.897, 116.385 40.791, 115.723 42.063, 114.856 43.647, 113.775 45.233, 108.698 " />
            <path fill="none" stroke-width="3.0" stroke-linecap="butt" stroke-opacity="1.0" stroke="rgb(0, 0, 0)" stroke-linejoin="round" d=" M 33.254, 112.852 30.523, 111.261 " />
            <path fill="none" stroke-width="3.0" stroke-linecap="butt" stroke-opacity="1.0" stroke="rgb(0, 0, 0)" stroke-linejoin="round" d=" M 43.647, 113.775 39.918, 111.428 " />
            <path fill="none" stroke-width="3.0" stroke-linecap="butt" stroke-opacity="1.0" stroke="rgb(0, 0, 0)" stroke-linejoin="round" d=" M 40.807, 109.071 39.918, 111.428 36.497, 112.391 " />
            <path fill="none" stroke-width="3.0" stroke-linecap="butt" stroke-opacity="1.0" stroke="rgb(0, 0, 0)" stroke-linejoin="round" d=" M 57.456, 84.043 50.505, 87.347 42.167, 92.868 41.019, 93.627 47.277, 89.577 48.377, 88.979 57.162, 84.203 57.456, 84.043 59.042, 83.393 61.484, 82.392 " />
            <path fill="none" stroke-width="3.0" stroke-linecap="butt" stroke-opacity="1.0" stroke="rgb(0, 0, 0)" stroke-linejoin="round" d=" M 47.277, 89.577 49.546, 88.656 49.753, 88.572 53.315, 87.126 55.746, 86.139 57.623, 85.581 67.208, 82.728 67.370, 82.680 77.320, 81.685 78.307, 81.587 80.459, 81.372 81.791, 81.338 87.691, 81.191 88.751, 81.238 89.462, 81.270 " />
            <path fill="none" stroke-width="3.0" stroke-linecap="butt" stroke-opacity="1.0" stroke="rgb(0, 0, 0)" stroke-linejoin="round" d=" M 179.317, 116.004 179.988, 117.646 182.272, 118.730 183.004, 119.077 183.515, 119.292 188.660, 121.463 196.848, 124.918 197.002, 124.815 197.908, 124.209 198.719, 123.667 199.051, 123.446 199.304, 122.345 199.886, 119.816 196.984, 115.259 192.330, 110.755 190.490, 108.974 184.377, 104.570 182.934, 103.530 178.517, 100.251 177.806, 99.723 176.719, 98.916 171.603, 95.896 168.186, 93.879 160.977, 90.865 158.770, 89.942 157.008, 89.205 147.463, 86.222 144.302, 85.235 134.689, 82.481 131.513, 81.571 121.656, 79.888 118.659, 79.376 109.249, 77.838 107.472, 77.547 " />
            <path fill="none" stroke-width="3.0" stroke-linecap="butt" stroke-opacity="1.0" stroke="rgb(0, 0, 0)" stroke-linejoin="round" d=" M 102.871, 82.323 107.712, 82.826 111.437, 83.213 112.070, 83.369 121.781, 85.753 128.081, 87.299 137.685, 90.086 141.753, 91.267 142.478, 91.477 151.805, 95.083 155.312, 96.439 164.471, 100.452 166.458, 101.323 174.825, 105.389 181.275, 108.993 184.873, 111.688 186.346, 112.791 187.386, 114.432 187.716, 114.953 188.233, 115.770 188.427, 117.122 188.599, 118.323 187.671, 118.911 187.196, 119.212 186.065, 119.930 " />
            <path fill="none" stroke-width="3.0" stroke-linecap="butt" stroke-opacity="1.0" stroke="rgb(0, 0, 0)" stroke-linejoin="round" d=" M 99.110, 79.029 99.197, 78.905 100.347, 77.260 102.905, 73.600 103.703, 70.862 103.992, 69.870 104.343, 68.665 104.577, 67.862 105.013, 66.368 105.243, 65.576 105.323, 65.303 105.859, 58.880 105.845, 56.637 105.839, 55.681 105.830, 54.274 105.829, 54.092 " />
            <path fill="none" stroke-width="3.0" stroke-linecap="butt" stroke-opacity="1.0" stroke="rgb(0, 0, 0)" stroke-linejoin="round" d=" M 76.872, 73.730 80.420, 76.067 83.030, 77.342 83.094, 77.373 84.191, 77.909 85.572, 78.583 93.088, 80.165 97.943, 79.250 99.110, 79.029 100.314, 80.471 101.975, 81.763 101.977, 81.765 103.430, 82.212 " />
            <path fill="none" stroke-width="3.0" stroke-linecap="butt" stroke-opacity="1.0" stroke="rgb(0, 0, 0)" stroke-linejoin="round" d=" M 54.215, 80.038 53.893, 78.672 " />
            <path fill="none" stroke-width="3.0" stroke-linecap="butt" stroke-opacity="1.0" stroke="rgb(0, 0, 0)" stroke-linejoin="round" d=" M 79.894, 76.556 77.628, 75.036 76.872, 73.730 72.528, 76.029 66.652, 78.441 61.651, 79.368 59.028, 79.854 53.893, 78.672 52.273, 73.487 " />
            <path fill="none" stroke-width="3.0" stroke-linecap="butt" stroke-opacity="1.0" stroke="rgb(0, 0, 0)" stroke-linejoin="round" d=" M 110.664, 61.436 110.902, 61.101 110.978, 60.995 111.206, 60.674 114.176, 56.506 114.501, 56.039 117.680, 51.480 118.852, 49.800 122.520, 44.149 122.879, 42.830 124.062, 38.488 124.113, 35.337 122.929, 33.094 119.450, 28.819 114.177, 26.362 111.244, 25.246 105.507, 24.119 103.086, 23.853 101.123, 23.636 " />
            <path fill="none" stroke-width="3.0" stroke-linecap="butt" stroke-opacity="1.0" stroke="rgb(0, 0, 0)" stroke-linejoin="round" d=" M 56.003, 55.250 53.319, 51.422 50.327, 46.342 48.905, 40.920 49.376, 35.400 53.728, 31.184 60.765, 27.645 66.456, 26.032 70.769, 25.145 73.360, 21.144 77.249, 15.951 83.327, 10.162 88.734, 7.471 93.347, 9.511 97.615, 14.746 99.834, 19.718 101.123, 23.636 " />
            <path fill="none" stroke-width="3.0" stroke-linecap="butt" stroke-opacity="1.0" stroke="rgb(0, 0, 0)" stroke-linejoin="round" d=" M 108.960, 57.165 107.738, 55.737 107.167, 55.070 105.888, 54.135 105.829, 54.092 105.950, 53.987 106.818, 53.236 110.355, 50.173 111.035, 49.470 115.806, 44.538 116.659, 43.207 119.643, 38.546 121.319, 32.550 117.915, 28.357 111.244, 25.246 " />
            <path fill="none" stroke-width="3.0" stroke-linecap="butt" stroke-opacity="1.0" stroke="rgb(0, 0, 0)" stroke-linejoin="round" d=" M 103.086, 23.853 102.163, 21.485 99.680, 16.645 98.256, 14.364 94.376, 9.615 89.674, 7.536 88.734, 7.471 " />
            <path fill="none" stroke-width="3.0" stroke-linecap="butt" stroke-opacity="1.0" stroke="rgb(0, 0, 0)" stroke-linejoin="round" d=" M 53.319, 51.422 56.096, 54.985 " />
            <path fill="none" stroke-width="3.0" stroke-linecap="butt" stroke-opacity="1.0" stroke="rgb(0, 0, 0)" stroke-linejoin="round" d=" M 191.354, 105.870 188.457, 96.299 186.333, 89.280 185.328, 88.208 184.121, 83.860 179.278, 75.111 178.014, 72.825 171.489, 65.247 170.372, 63.948 164.694, 58.476 156.745, 52.408 156.384, 52.132 149.166, 48.296 142.906, 46.109 138.153, 44.564 137.088, 44.217 130.641, 43.067 126.556, 42.890 124.288, 42.791 122.879, 42.830 " />
            <path fill="none" stroke-width="3.0" stroke-linecap="butt" stroke-opacity="1.0" stroke="rgb(0, 0, 0)" stroke-linejoin="round" d=" M 79.894, 76.556 81.623, 77.563 82.756, 78.223 82.808, 78.253 83.239, 78.504 84.549, 79.267 84.767, 79.394 87.593, 80.523 89.299, 81.205 89.462, 81.270 89.921, 81.453 90.788, 81.799 93.483, 82.380 97.841, 83.319 101.300, 82.634 102.871, 82.323 103.430, 82.212 103.660, 81.883 104.402, 80.822 106.711, 77.516 107.295, 76.681 107.370, 76.573 108.697, 72.624 108.813, 72.279 109.247, 70.002 109.491, 68.721 109.598, 68.159 110.231, 64.838 110.664, 61.436 110.748, 60.769 110.772, 60.582 110.850, 59.972 110.880, 59.733 " />
            <path fill="none" stroke-width="3.0" stroke-linecap="butt" stroke-opacity="1.0" stroke="rgb(0, 0, 0)" stroke-linejoin="round" d=" M 186.742, 102.915 183.047, 99.836 174.893, 96.166 166.776, 92.513 160.977, 90.865 " />
            <path fill="none" stroke-width="3.0" stroke-linecap="butt" stroke-opacity="1.0" stroke="rgb(0, 0, 0)" stroke-linejoin="round" d=" M 121.255, 68.849 119.705, 68.757 " />
            <path fill="none" stroke-width="3.0" stroke-linecap="butt" stroke-opacity="1.0" stroke="rgb(0, 0, 0)" stroke-linejoin="round" d=" M 121.255, 68.849 129.436, 70.133 133.063, 70.703 142.942, 72.254 145.017, 72.580 " />
            <path fill="none" stroke-width="3.0" stroke-linecap="butt" stroke-opacity="1.0" stroke="rgb(0, 0, 0)" stroke-linejoin="round" d=" M 138.153, 44.564 137.550, 43.756 134.215, 42.369 130.158, 41.918 126.992, 42.580 126.556, 42.890 " />
            <path fill="none" stroke-width="3.0" stroke-linecap="butt" stroke-opacity="1.0" stroke="rgb(0, 0, 0)" stroke-linejoin="round" d=" M 200.988, 140.862 208.909, 136.282 209.775, 132.574 209.615, 125.745 205.788, 120.245 200.013, 113.136 192.353, 106.708 191.354, 105.870 190.464, 105.124 186.742, 102.915 185.036, 101.904 176.445, 98.062 171.603, 95.896 " />
            <path fill="none" stroke-width="3.0" stroke-linecap="butt" stroke-opacity="1.0" stroke="rgb(0, 0, 0)" stroke-linejoin="round" d=" M 199.304, 122.345 207.192, 128.492 208.686, 129.657 208.909, 136.282 " />
            <path fill="none" stroke-width="3.0" stroke-linecap="butt" stroke-opacity="1.0" stroke="rgb(0, 0, 0)" stroke-linejoin="round" d=" M 44.322, 92.679 43.572, 93.246 38.110, 97.318 32.048, 103.339 31.611, 106.996 " />
            <path fill="none" stroke-width="3.0" stroke-linecap="butt" stroke-opacity="1.0" stroke="rgb(0, 0, 0)" stroke-linejoin="round" d=" M 209.615, 125.745 201.842, 119.455 199.349, 117.437 " />
            <path fill="none" stroke-width="3.0" stroke-linecap="butt" stroke-opacity="1.0" stroke="rgb(0, 0, 0)" stroke-linejoin="round" d=" M 59.926, 82.029 59.042, 83.393 " />
            <path fill="none" stroke-width="3.0" stroke-linecap="butt" stroke-opacity="1.0" stroke="rgb(0, 0, 0)" stroke-linejoin="round" d=" M 107.252, 77.538 107.526, 76.617 108.712, 72.623 " />
            <path fill="none" stroke-width="3.0" stroke-linecap="butt" stroke-opacity="1.0" stroke="rgb(0, 0, 0)" stroke-linejoin="round" d=" M 108.697, 72.624 108.712, 72.623 110.879, 72.549 " />
            <path fill="none" stroke-width="3.0" stroke-linecap="butt" stroke-opacity="1.0" stroke="rgb(0, 0, 0)" stroke-linejoin="round" d=" M 197.002, 124.815 201.577, 128.264 " />
        </g>
    </g>
</svg>
