<?xml version='1.0' encoding='ascii'?>
<svg xmlns="http://www.w3.org/2000/svg" version="1.1" width="250" height="250">
    <g id="ViewLayer_LineSet" xmlns:inkscape="http://www.inkscape.org/namespaces/inkscape" inkscape:groupmode="lineset" inkscape:label="ViewLayer_LineSet">
        <g xmlns:inkscape="http://www.inkscape.org/namespaces/inkscape" inkscape:groupmode="layer" id="strokes" inkscape:label="strokes">
            <path fill="none" stroke-width="3.0" stroke-linecap="butt" stroke-opacity="1.0" stroke="rgb(0, 0, 0)" stroke-linejoin="round" d=" M 166.817, 196.856 173.763, 189.663 174.438, 188.965 176.435, 186.102 177.713, 184.226 " />
            <path fill="none" stroke-width="3.0" stroke-linecap="butt" stroke-opacity="1.0" stroke="rgb(0, 0, 0)" stroke-linejoin="round" d=" M 59.518, 98.265 59.452, 98.347 57.978, 100.201 53.743, 107.315 49.934, 115.988 49.323, 117.966 48.389, 120.989 48.286, 121.322 47.266, 124.625 46.013, 130.772 45.993, 131.004 45.468, 137.144 45.243, 141.652 45.472, 147.297 45.952, 151.805 46.813, 156.436 47.659, 160.393 48.945, 164.702 49.240, 165.494 50.610, 169.171 52.579, 173.607 54.768, 177.818 57.083, 181.619 59.425, 184.836 62.357, 188.736 63.028, 189.471 65.343, 192.010 69.455, 196.100 72.901, 198.798 " />
            <path fill="none" stroke-width="3.0" stroke-linecap="butt" stroke-opacity="1.0" stroke="rgb(0, 0, 0)" stroke-linejoin="round" d=" M 190.425, 128.197 188.855, 120.848 188.629, 120.266 " />
            <path fill="none" stroke-width="3.0" stroke-linecap="butt" stroke-opacity="1.0" stroke="rgb(0, 0, 0)" stroke-linejoin="round" d=" M 108.919, 214.301 113.213, 214.775 113.563, 214.790 117.723, 214.970 122.153, 214.879 122.246, 214.877 126.581, 214.499 " />
            <path fill="none" stroke-width="3.0" stroke-linecap="butt" stroke-opacity="1.0" stroke="rgb(0, 0, 0)" stroke-linejoin="round" d=" M 77.110, 149.961 77.664, 151.361 79.028, 153.430 80.923, 155.089 82.395, 155.913 83.118, 156.318 85.160, 156.761 87.255, 156.690 89.630, 155.862 91.679, 154.533 93.228, 152.686 93.944, 151.370 " />
            <path fill="none" stroke-width="3.0" stroke-linecap="butt" stroke-opacity="1.0" stroke="rgb(0, 0, 0)" stroke-linejoin="round" d=" M 117.430, 100.734 117.740, 101.776 118.031, 102.752 118.483, 106.140 118.523, 109.963 118.539, 110.032 117.421, 118.446 117.364, 118.639 117.330, 118.755 116.194, 122.658 114.689, 126.947 112.934, 130.944 110.992, 134.455 108.932, 137.308 108.237, 137.984 107.853, 138.358 106.823, 139.360 104.737, 140.507 102.748, 140.691 101.450, 140.127 100.927, 139.899 99.350, 138.165 98.595, 136.617 98.344, 136.101 98.083, 135.567 97.190, 132.227 96.717, 128.306 96.695, 123.992 97.131, 119.492 97.988, 115.082 98.074, 114.782 98.120, 114.626 99.191, 110.920 100.712, 107.019 102.491, 103.519 104.459, 100.544 105.440, 99.439 " />
            <path fill="none" stroke-width="3.0" stroke-linecap="butt" stroke-opacity="1.0" stroke="rgb(0, 0, 0)" stroke-linejoin="round" d=" M 77.311, 118.420 77.277, 118.566 76.333, 122.712 75.249, 126.822 74.185, 130.193 74.073, 130.546 74.049, 130.606 72.811, 133.699 71.472, 136.123 70.068, 137.697 68.904, 138.221 68.629, 138.345 67.218, 138.341 65.842, 136.806 64.634, 134.704 63.658, 131.846 62.996, 128.378 62.918, 127.302 62.884, 126.830 62.713, 124.472 62.851, 120.317 63.142, 118.152 63.410, 116.170 64.276, 112.173 65.394, 108.331 66.719, 104.780 67.245, 103.662 67.489, 103.145 68.197, 101.642 69.770, 99.025 70.661, 97.910 " />
            <path fill="none" stroke-width="3.0" stroke-linecap="butt" stroke-opacity="1.0" stroke="rgb(0, 0, 0)" stroke-linejoin="round" d=" M 67.218, 138.341 70.423, 139.740 " />
            <path fill="none" stroke-width="3.0" stroke-linecap="butt" stroke-opacity="1.0" stroke="rgb(0, 0, 0)" stroke-linejoin="round" d=" M 77.847, 97.680 77.875, 97.730 78.527, 100.032 78.887, 102.943 78.997, 106.428 78.817, 108.601 78.793, 108.897 78.688, 110.167 " />
            <path fill="none" stroke-width="3.0" stroke-linecap="butt" stroke-opacity="1.0" stroke="rgb(0, 0, 0)" stroke-linejoin="round" d=" M 78.206, 118.986 77.311, 118.420 78.135, 114.217 78.688, 110.167 81.755, 112.224 " />
            <path fill="none" stroke-width="3.0" stroke-linecap="butt" stroke-opacity="1.0" stroke="rgb(0, 0, 0)" stroke-linejoin="round" d=" M 131.500, 232.750 136.183, 235.416 141.759, 236.892 146.758, 237.409 152.295, 236.936 159.354, 235.321 165.199, 233.086 170.941, 229.918 174.157, 226.892 179.078, 219.953 183.488, 210.978 183.947, 210.044 184.938, 207.646 188.132, 198.151 188.390, 195.570 188.906, 188.460 " />
            <path fill="none" stroke-width="3.0" stroke-linecap="butt" stroke-opacity="1.0" stroke="rgb(0, 0, 0)" stroke-linejoin="round" d=" M 122.153, 214.879 122.218, 216.550 122.816, 219.357 124.677, 224.336 125.765, 226.921 129.581, 230.822 131.500, 232.750 127.663, 228.938 125.765, 226.921 " />
            <path fill="none" stroke-width="3.0" stroke-linecap="butt" stroke-opacity="1.0" stroke="rgb(0, 0, 0)" stroke-linejoin="round" d=" M 63.028, 189.471 59.743, 192.495 56.465, 196.244 51.450, 203.191 49.138, 207.631 46.670, 212.122 45.309, 216.194 44.419, 219.352 43.724, 223.211 43.839, 226.711 44.751, 230.288 46.008, 233.859 48.742, 236.501 51.514, 239.044 56.181, 241.416 60.652, 242.690 65.603, 243.105 72.225, 242.916 76.023, 242.252 82.486, 240.724 89.437, 238.485 92.036, 236.709 99.960, 230.610 100.467, 230.220 107.092, 222.730 107.308, 222.485 111.389, 217.407 " />
            <path fill="none" stroke-width="3.0" stroke-linecap="butt" stroke-opacity="1.0" stroke="rgb(0, 0, 0)" stroke-linejoin="round" d=" M 170.256, 179.131 175.530, 183.071 177.713, 184.226 179.978, 185.424 182.245, 186.433 186.397, 187.979 188.906, 188.460 190.682, 188.801 194.387, 188.750 197.024, 188.338 200.180, 187.712 203.089, 186.467 204.791, 185.551 207.308, 183.806 211.001, 180.165 212.817, 177.356 213.633, 175.633 214.790, 172.749 215.276, 170.897 215.697, 168.545 215.833, 165.228 215.771, 164.418 215.221, 160.094 213.986, 155.758 212.031, 151.166 208.517, 145.568 204.716, 140.676 203.062, 138.718 202.697, 138.286 201.036, 136.320 197.154, 132.584 192.858, 129.575 190.643, 128.299 190.425, 128.197 184.230, 125.288 " />
            <path fill="none" stroke-width="3.0" stroke-linecap="butt" stroke-opacity="1.0" stroke="rgb(0, 0, 0)" stroke-linejoin="round" d=" M 45.993, 131.004 44.587, 133.118 42.762, 136.414 41.688, 139.597 40.497, 143.067 40.128, 145.717 40.062, 149.936 40.346, 151.949 41.556, 156.415 42.182, 157.728 44.301, 161.085 46.931, 163.834 49.191, 165.468 49.240, 165.494 " />
            <path fill="none" stroke-width="3.0" stroke-linecap="butt" stroke-opacity="1.0" stroke="rgb(0, 0, 0)" stroke-linejoin="round" d=" M 109.048, 220.226 111.389, 217.407 113.563, 214.790 " />
            <path fill="none" stroke-width="3.0" stroke-linecap="butt" stroke-opacity="1.0" stroke="rgb(0, 0, 0)" stroke-linejoin="round" d=" M 116.271, 70.468 119.217, 68.206 119.521, 67.973 119.677, 67.653 119.714, 67.578 121.373, 64.195 122.359, 61.608 122.339, 57.925 121.323, 55.250 119.417, 51.544 117.657, 50.260 " />
            <path fill="none" stroke-width="3.0" stroke-linecap="butt" stroke-opacity="1.0" stroke="rgb(0, 0, 0)" stroke-linejoin="round" d=" M 56.090, 53.741 55.995, 54.010 54.475, 58.303 52.835, 64.390 52.266, 72.236 52.556, 73.506 54.208, 78.788 56.698, 80.041 60.043, 80.814 61.691, 81.195 61.843, 81.230 65.728, 81.691 71.740, 80.630 77.305, 79.206 82.769, 77.025 82.836, 76.998 " />
            <path fill="none" stroke-width="3.0" stroke-linecap="butt" stroke-opacity="1.0" stroke="rgb(0, 0, 0)" stroke-linejoin="round" d=" M 33.803, 110.510 31.599, 105.943 32.780, 104.783 37.481, 100.166 41.888, 99.029 49.876, 96.967 53.176, 96.115 56.694, 95.986 59.036, 95.901 61.469, 95.811 71.463, 95.445 73.743, 95.362 75.885, 95.283 75.890, 95.283 79.966, 95.134 89.936, 95.907 99.906, 96.680 107.717, 97.285 113.692, 97.749 116.238, 98.194 116.288, 98.202 126.138, 99.924 135.989, 101.645 145.840, 103.367 147.692, 103.690 157.352, 106.277 167.011, 108.864 176.671, 111.450 177.112, 111.569 178.201, 112.021 178.757, 112.252 183.091, 114.053 " />
            <path fill="none" stroke-width="3.0" stroke-linecap="butt" stroke-opacity="1.0" stroke="rgb(0, 0, 0)" stroke-linejoin="round" d=" M 202.697, 138.286 206.694, 135.922 206.326, 129.512 200.060, 124.695 197.936, 123.063 " />
            <path fill="none" stroke-width="3.0" stroke-linecap="butt" stroke-opacity="1.0" stroke="rgb(0, 0, 0)" stroke-linejoin="round" d=" M 44.970, 101.304 54.729, 99.123 58.411, 98.300 " />
            <path fill="none" stroke-width="3.0" stroke-linecap="butt" stroke-opacity="1.0" stroke="rgb(0, 0, 0)" stroke-linejoin="round" d=" M 38.853, 115.420 47.134, 120.849 48.286, 121.322 " />
            <path fill="none" stroke-width="3.0" stroke-linecap="butt" stroke-opacity="1.0" stroke="rgb(0, 0, 0)" stroke-linejoin="round" d=" M 55.974, 98.378 46.218, 100.574 45.652, 100.701 41.088, 101.729 39.809, 102.017 33.800, 107.580 34.549, 109.177 " />
            <path fill="none" stroke-width="3.0" stroke-linecap="butt" stroke-opacity="1.0" stroke="rgb(0, 0, 0)" stroke-linejoin="round" d=" M 55.974, 98.378 58.411, 98.300 59.362, 98.270 59.518, 98.265 61.215, 98.211 70.661, 97.910 76.335, 97.729 77.847, 97.680 79.123, 97.640 81.512, 97.564 91.482, 98.345 101.451, 99.126 105.440, 99.439 110.291, 99.819 113.446, 100.067 117.430, 100.734 117.967, 100.824 127.830, 102.476 137.135, 104.035 146.762, 105.647 156.429, 108.206 166.096, 110.765 175.720, 113.313 179.334, 114.795 184.491, 116.909 " />
            <path fill="none" stroke-width="3.0" stroke-linecap="butt" stroke-opacity="1.0" stroke="rgb(0, 0, 0)" stroke-linejoin="round" d=" M 41.009, 92.528 36.205, 96.458 33.037, 99.682 31.224, 102.542 30.054, 105.589 30.047, 108.061 30.511, 110.240 34.839, 114.410 37.520, 115.886 38.853, 115.420 38.870, 115.414 40.782, 114.747 42.028, 113.896 43.639, 112.798 45.225, 107.713 " />
            <path fill="none" stroke-width="3.0" stroke-linecap="butt" stroke-opacity="1.0" stroke="rgb(0, 0, 0)" stroke-linejoin="round" d=" M 33.243, 111.832 30.511, 110.240 " />
            <path fill="none" stroke-width="3.0" stroke-linecap="butt" stroke-opacity="1.0" stroke="rgb(0, 0, 0)" stroke-linejoin="round" d=" M 43.639, 112.798 39.908, 110.408 " />
            <path fill="none" stroke-width="3.0" stroke-linecap="butt" stroke-opacity="1.0" stroke="rgb(0, 0, 0)" stroke-linejoin="round" d=" M 40.782, 108.089 39.908, 110.408 36.486, 111.371 " />
            <path fill="none" stroke-width="3.0" stroke-linecap="butt" stroke-opacity="1.0" stroke="rgb(0, 0, 0)" stroke-linejoin="round" d=" M 57.451, 82.946 50.498, 86.273 42.148, 91.777 41.009, 92.528 47.269, 88.451 48.620, 87.720 57.451, 82.946 59.102, 82.264 61.691, 81.195 " />
            <path fill="none" stroke-width="3.0" stroke-linecap="butt" stroke-opacity="1.0" stroke="rgb(0, 0, 0)" stroke-linejoin="round" d=" M 47.269, 88.451 49.733, 87.443 49.816, 87.409 53.117, 86.060 55.739, 84.988 57.720, 84.394 67.367, 81.500 77.315, 80.486 78.609, 80.355 80.460, 80.166 81.805, 80.131 87.695, 79.975 89.054, 80.034 89.648, 80.060 " />
            <path fill="none" stroke-width="3.0" stroke-linecap="butt" stroke-opacity="1.0" stroke="rgb(0, 0, 0)" stroke-linejoin="round" d=" M 179.334, 114.795 180.019, 116.469 182.610, 117.691 183.036, 117.892 183.888, 118.253 188.629, 120.266 196.883, 123.770 197.008, 123.686 197.936, 123.063 198.717, 122.538 199.087, 122.290 199.339, 121.193 199.922, 118.654 197.019, 114.091 192.330, 109.550 190.523, 107.801 183.354, 102.631 182.965, 102.350 178.803, 99.257 177.537, 98.316 176.749, 97.730 171.865, 94.844 168.214, 92.686 161.237, 89.766 158.101, 88.453 157.032, 88.006 147.488, 85.023 144.323, 84.034 134.709, 81.281 131.530, 80.370 121.672, 78.691 118.671, 78.179 109.262, 76.646 107.481, 76.356 " />
            <path fill="none" stroke-width="3.0" stroke-linecap="butt" stroke-opacity="1.0" stroke="rgb(0, 0, 0)" stroke-linejoin="round" d=" M 102.716, 81.076 107.735, 81.594 111.448, 81.977 112.408, 82.213 122.120, 84.592 128.097, 86.057 137.701, 88.843 142.290, 90.174 142.498, 90.234 151.825, 93.842 155.336, 95.200 164.494, 99.217 166.486, 100.091 174.855, 104.162 181.307, 107.775 184.808, 110.401 186.380, 111.581 187.466, 113.298 187.836, 113.884 188.267, 114.565 188.491, 116.128 188.633, 117.122 187.653, 117.747 187.215, 118.026 186.098, 118.737 " />
            <path fill="none" stroke-width="3.0" stroke-linecap="butt" stroke-opacity="1.0" stroke="rgb(0, 0, 0)" stroke-linejoin="round" d=" M 99.117, 77.711 100.262, 76.073 102.913, 72.279 103.622, 69.849 103.961, 68.687 104.306, 67.504 104.543, 66.690 104.979, 65.195 105.251, 64.264 105.333, 63.984 105.869, 57.565 105.855, 55.485 105.849, 54.485 105.840, 53.049 105.838, 52.781 " />
            <path fill="none" stroke-width="3.0" stroke-linecap="butt" stroke-opacity="1.0" stroke="rgb(0, 0, 0)" stroke-linejoin="round" d=" M 76.872, 72.445 80.421, 74.776 83.067, 76.063 83.356, 76.204 84.426, 76.725 85.574, 77.283 93.093, 78.854 99.117, 77.711 99.247, 77.867 100.322, 79.157 101.985, 80.466 102.386, 80.594 103.439, 80.932 " />
            <path fill="none" stroke-width="3.0" stroke-linecap="butt" stroke-opacity="1.0" stroke="rgb(0, 0, 0)" stroke-linejoin="round" d=" M 54.208, 78.788 53.886, 77.416 " />
            <path fill="none" stroke-width="3.0" stroke-linecap="butt" stroke-opacity="1.0" stroke="rgb(0, 0, 0)" stroke-linejoin="round" d=" M 79.895, 75.291 77.629, 73.757 76.872, 72.445 72.526, 74.748 66.649, 77.167 61.826, 78.066 59.022, 78.589 53.886, 77.416 52.266, 72.236 " />
            <path fill="none" stroke-width="3.0" stroke-linecap="butt" stroke-opacity="1.0" stroke="rgb(0, 0, 0)" stroke-linejoin="round" d=" M 110.671, 60.192 110.897, 59.875 110.947, 59.805 111.189, 59.465 114.187, 55.253 114.490, 54.818 117.657, 50.260 118.865, 48.521 122.534, 42.866 122.824, 41.803 124.077, 37.207 124.128, 34.038 122.944, 31.781 119.464, 27.513 114.189, 25.065 111.255, 23.946 105.516, 22.829 103.084, 22.564 101.131, 22.352 " />
            <path fill="none" stroke-width="3.0" stroke-linecap="butt" stroke-opacity="1.0" stroke="rgb(0, 0, 0)" stroke-linejoin="round" d=" M 55.995, 54.010 53.312, 50.185 50.319, 45.112 48.897, 39.696 49.367, 34.178 53.721, 29.959 60.760, 26.414 66.453, 24.794 70.767, 23.902 73.359, 19.900 77.249, 14.705 83.329, 8.911 88.738, 6.214 93.352, 8.247 97.622, 13.473 99.842, 18.438 101.131, 22.352 " />
            <path fill="none" stroke-width="3.0" stroke-linecap="butt" stroke-opacity="1.0" stroke="rgb(0, 0, 0)" stroke-linejoin="round" d=" M 108.971, 55.875 107.660, 54.332 107.177, 53.763 105.926, 52.845 105.838, 52.781 106.018, 52.625 106.788, 51.957 110.366, 48.858 110.937, 48.267 115.819, 43.219 116.485, 42.180 119.658, 37.226 121.334, 31.231 117.929, 27.046 111.255, 23.946 " />
            <path fill="none" stroke-width="3.0" stroke-linecap="butt" stroke-opacity="1.0" stroke="rgb(0, 0, 0)" stroke-linejoin="round" d=" M 103.084, 22.564 102.170, 20.226 99.687, 15.392 98.263, 13.097 94.381, 8.356 89.678, 6.286 88.738, 6.214 " />
            <path fill="none" stroke-width="3.0" stroke-linecap="butt" stroke-opacity="1.0" stroke="rgb(0, 0, 0)" stroke-linejoin="round" d=" M 53.312, 50.185 56.090, 53.741 " />
            <path fill="none" stroke-width="3.0" stroke-linecap="butt" stroke-opacity="1.0" stroke="rgb(0, 0, 0)" stroke-linejoin="round" d=" M 191.355, 104.717 188.456, 95.147 186.362, 88.236 185.357, 87.165 184.149, 82.821 179.302, 74.074 178.040, 71.797 171.510, 64.223 170.396, 62.932 164.717, 57.428 156.757, 51.375 156.404, 51.106 149.184, 47.251 142.922, 45.093 138.124, 43.528 137.103, 43.195 130.655, 42.044 126.624, 41.871 124.300, 41.771 122.824, 41.803 " />
            <path fill="none" stroke-width="3.0" stroke-linecap="butt" stroke-opacity="1.0" stroke="rgb(0, 0, 0)" stroke-linejoin="round" d=" M 79.895, 75.291 81.768, 76.378 82.786, 76.969 82.836, 76.998 83.432, 77.344 84.584, 78.012 84.769, 78.120 87.845, 79.343 89.511, 80.005 89.648, 80.060 90.285, 80.313 90.792, 80.515 92.242, 80.832 93.910, 81.193 97.848, 82.046 100.908, 81.436 102.716, 81.076 103.439, 80.932 103.614, 80.680 104.347, 79.633 106.660, 76.324 107.075, 75.730 107.380, 75.293 108.678, 71.433 108.823, 71.001 109.211, 68.970 109.481, 67.555 109.589, 66.986 110.241, 63.566 110.671, 60.192 110.745, 59.607 110.774, 59.384 110.849, 58.792 110.891, 58.463 " />
            <path fill="none" stroke-width="3.0" stroke-linecap="butt" stroke-opacity="1.0" stroke="rgb(0, 0, 0)" stroke-linejoin="round" d=" M 186.631, 101.708 183.077, 98.724 174.802, 94.977 166.803, 91.355 161.237, 89.766 " />
            <path fill="none" stroke-width="3.0" stroke-linecap="butt" stroke-opacity="1.0" stroke="rgb(0, 0, 0)" stroke-linejoin="round" d=" M 121.269, 67.669 119.714, 67.578 " />
            <path fill="none" stroke-width="3.0" stroke-linecap="butt" stroke-opacity="1.0" stroke="rgb(0, 0, 0)" stroke-linejoin="round" d=" M 121.269, 67.669 131.147, 69.224 141.025, 70.779 145.037, 71.411 " />
            <path fill="none" stroke-width="3.0" stroke-linecap="butt" stroke-opacity="1.0" stroke="rgb(0, 0, 0)" stroke-linejoin="round" d=" M 138.124, 43.528 137.565, 42.775 134.229, 41.383 130.171, 40.933 127.004, 41.601 126.624, 41.871 " />
            <path fill="none" stroke-width="3.0" stroke-linecap="butt" stroke-opacity="1.0" stroke="rgb(0, 0, 0)" stroke-linejoin="round" d=" M 203.062, 138.718 208.943, 135.272 209.809, 131.565 209.652, 124.662 205.823, 119.168 200.046, 112.068 192.411, 105.610 191.355, 104.717 190.497, 103.991 186.631, 101.708 185.067, 100.784 176.344, 96.859 171.865, 94.844 " />
            <path fill="none" stroke-width="3.0" stroke-linecap="butt" stroke-opacity="1.0" stroke="rgb(0, 0, 0)" stroke-linejoin="round" d=" M 199.339, 121.193 207.199, 127.375 208.723, 128.573 208.943, 135.272 " />
            <path fill="none" stroke-width="3.0" stroke-linecap="butt" stroke-opacity="1.0" stroke="rgb(0, 0, 0)" stroke-linejoin="round" d=" M 44.447, 91.462 43.562, 92.130 38.099, 96.193 32.036, 102.288 31.599, 105.943 " />
            <path fill="none" stroke-width="3.0" stroke-linecap="butt" stroke-opacity="1.0" stroke="rgb(0, 0, 0)" stroke-linejoin="round" d=" M 209.652, 124.662 201.906, 118.338 199.385, 116.280 " />
            <path fill="none" stroke-width="3.0" stroke-linecap="butt" stroke-opacity="1.0" stroke="rgb(0, 0, 0)" stroke-linejoin="round" d=" M 60.043, 80.814 59.102, 82.264 " />
            <path fill="none" stroke-width="3.0" stroke-linecap="butt" stroke-opacity="1.0" stroke="rgb(0, 0, 0)" stroke-linejoin="round" d=" M 107.261, 76.348 107.477, 75.620 108.724, 71.432 " />
            <path fill="none" stroke-width="3.0" stroke-linecap="butt" stroke-opacity="1.0" stroke="rgb(0, 0, 0)" stroke-linejoin="round" d=" M 108.678, 71.433 108.724, 71.432 110.891, 71.371 " />
            <path fill="none" stroke-width="3.0" stroke-linecap="butt" stroke-opacity="1.0" stroke="rgb(0, 0, 0)" stroke-linejoin="round" d=" M 197.008, 123.686 201.612, 127.188 " />
        </g>
    </g>
</svg>
