<?xml version='1.0' encoding='ascii'?>
<svg xmlns="http://www.w3.org/2000/svg" version="1.1" width="250" height="250">
    <g id="ViewLayer_LineSet" xmlns:inkscape="http://www.inkscape.org/namespaces/inkscape" inkscape:groupmode="lineset" inkscape:label="ViewLayer_LineSet">
        <g xmlns:inkscape="http://www.inkscape.org/namespaces/inkscape" inkscape:groupmode="layer" id="strokes" inkscape:label="strokes">
            <path fill="none" stroke-width="3.0" stroke-linecap="butt" stroke-opacity="1.0" stroke="rgb(0, 0, 0)" stroke-linejoin="round" d=" M 128.931, 217.284 132.645, 216.680 138.973, 215.338 144.061, 214.023 148.074, 212.428 154.118, 209.822 158.793, 207.105 160.897, 205.845 167.115, 201.367 167.469, 201.053 169.946, 198.853 175.133, 193.873 179.987, 187.970 184.316, 181.396 185.933, 178.293 " />
            <path fill="none" stroke-width="3.0" stroke-linecap="butt" stroke-opacity="1.0" stroke="rgb(0, 0, 0)" stroke-linejoin="round" d=" M 51.001, 167.310 53.991, 174.720 54.452, 175.592 55.597, 177.762 58.925, 184.014 64.918, 192.019 65.358, 192.606 71.299, 198.484 " />
            <path fill="none" stroke-width="3.0" stroke-linecap="butt" stroke-opacity="1.0" stroke="rgb(0, 0, 0)" stroke-linejoin="round" d=" M 192.431, 127.603 191.902, 125.124 191.465, 123.081 187.856, 113.755 187.213, 112.094 184.169, 106.818 183.380, 105.450 " />
            <path fill="none" stroke-width="3.0" stroke-linecap="butt" stroke-opacity="1.0" stroke="rgb(0, 0, 0)" stroke-linejoin="round" d=" M 54.569, 112.155 54.257, 112.907 50.694, 121.485 50.066, 124.121 47.968, 132.929 " />
            <path fill="none" stroke-width="3.0" stroke-linecap="butt" stroke-opacity="1.0" stroke="rgb(0, 0, 0)" stroke-linejoin="round" d=" M 126.797, 155.206 127.524, 156.581 129.168, 158.547 131.390, 160.022 133.976, 161.011 136.302, 161.217 138.611, 160.897 141.144, 159.786 143.339, 158.214 144.956, 156.189 145.650, 154.794 " />
            <path fill="none" stroke-width="3.0" stroke-linecap="butt" stroke-opacity="1.0" stroke="rgb(0, 0, 0)" stroke-linejoin="round" d=" M 160.076, 102.330 160.213, 102.510 161.678, 105.255 162.945, 108.543 163.963, 112.261 163.937, 112.327 164.332, 115.250 164.402, 115.773 165.047, 120.548 165.144, 124.699 164.769, 128.952 163.988, 132.952 163.082, 135.783 162.849, 136.509 162.009, 138.241 161.801, 138.671 161.592, 139.101 161.423, 139.450 159.793, 141.626 158.048, 142.925 157.316, 143.069 156.273, 143.274 154.546, 142.646 152.930, 141.061 152.727, 140.714 152.520, 140.362 151.477, 138.586 150.222, 135.336 149.186, 131.467 148.386, 127.171 147.829, 122.658 147.618, 119.648 147.598, 119.359 147.518, 118.213 147.509, 114.005 147.833, 110.050 148.473, 106.498 149.404, 103.476 150.241, 101.791 " />
            <path fill="none" stroke-width="3.0" stroke-linecap="butt" stroke-opacity="1.0" stroke="rgb(0, 0, 0)" stroke-linejoin="round" d=" M 126.069, 122.717 126.121, 127.193 125.788, 131.498 125.076, 135.425 124.002, 138.785 123.561, 139.612 122.601, 141.410 120.920, 143.174 120.673, 143.280 119.780, 143.662 119.019, 143.989 117.039, 144.125 116.574, 143.814 116.107, 143.500 114.853, 142.660 112.758, 140.579 110.775, 137.675 108.993, 134.090 107.492, 130.004 106.341, 125.617 105.885, 122.930 105.852, 122.731 105.594, 121.208 105.258, 116.940 105.324, 112.827 105.703, 109.705 105.786, 109.021 106.596, 105.751 106.620, 105.657 107.791, 102.850 108.013, 102.523 " />
            <path fill="none" stroke-width="3.0" stroke-linecap="butt" stroke-opacity="1.0" stroke="rgb(0, 0, 0)" stroke-linejoin="round" d=" M 119.332, 102.031 120.614, 103.674 121.576, 105.400 122.289, 106.679 123.745, 110.278 124.856, 114.149 " />
            <path fill="none" stroke-width="3.0" stroke-linecap="butt" stroke-opacity="1.0" stroke="rgb(0, 0, 0)" stroke-linejoin="round" d=" M 125.342, 124.587 126.069, 122.717 126.029, 122.302 126.014, 122.141 125.648, 118.347 124.856, 114.149 124.152, 116.132 " />
            <path fill="none" stroke-width="3.0" stroke-linecap="butt" stroke-opacity="1.0" stroke="rgb(0, 0, 0)" stroke-linejoin="round" d=" M 123.300, 140.429 124.002, 138.785 " />
            <path fill="none" stroke-width="3.0" stroke-linecap="butt" stroke-opacity="1.0" stroke="rgb(0, 0, 0)" stroke-linejoin="round" d=" M 105.786, 109.021 105.366, 111.066 " />
            <path fill="none" stroke-width="3.0" stroke-linecap="butt" stroke-opacity="1.0" stroke="rgb(0, 0, 0)" stroke-linejoin="round" d=" M 129.242, 221.971 129.263, 221.987 135.365, 224.644 141.021, 226.076 146.662, 226.268 150.964, 225.736 154.971, 224.253 156.998, 223.410 161.145, 220.544 164.372, 217.069 166.080, 212.651 166.990, 209.965 167.222, 207.282 166.883, 204.231 167.469, 201.053 " />
            <path fill="none" stroke-width="3.0" stroke-linecap="butt" stroke-opacity="1.0" stroke="rgb(0, 0, 0)" stroke-linejoin="round" d=" M 73.366, 197.019 71.299, 198.484 67.082, 201.474 62.101, 207.119 58.945, 213.224 57.753, 218.720 57.576, 223.492 58.434, 227.666 60.121, 231.800 63.656, 235.630 65.474, 236.932 69.794, 239.053 72.419, 240.014 78.459, 241.237 84.812, 241.714 93.316, 241.918 99.940, 241.665 105.958, 241.034 107.306, 240.892 114.241, 239.681 117.538, 238.332 119.560, 237.505 " />
            <path fill="none" stroke-width="3.0" stroke-linecap="butt" stroke-opacity="1.0" stroke="rgb(0, 0, 0)" stroke-linejoin="round" d=" M 117.538, 238.332 119.003, 237.891 123.127, 235.663 124.565, 234.370 126.085, 232.898 128.087, 229.183 129.096, 225.314 129.242, 221.971 129.260, 221.555 129.214, 220.348 128.931, 217.284 128.812, 215.992 127.764, 211.334 125.524, 206.583 " />
            <path fill="none" stroke-width="3.0" stroke-linecap="butt" stroke-opacity="1.0" stroke="rgb(0, 0, 0)" stroke-linejoin="round" d=" M 185.933, 178.293 187.900, 179.517 192.369, 181.382 196.611, 182.573 200.920, 183.083 204.602, 182.820 207.955, 182.063 209.267, 181.568 212.281, 180.257 214.939, 178.468 217.305, 176.279 218.049, 175.372 219.940, 172.729 221.415, 169.805 222.408, 166.625 222.857, 163.183 222.794, 159.469 221.896, 155.212 220.313, 151.072 218.020, 146.759 214.025, 141.522 209.905, 137.014 205.927, 133.076 201.745, 129.822 198.643, 128.053 198.545, 127.998 197.200, 127.231 194.997, 126.355 191.902, 125.124 " />
            <path fill="none" stroke-width="3.0" stroke-linecap="butt" stroke-opacity="1.0" stroke="rgb(0, 0, 0)" stroke-linejoin="round" d=" M 50.066, 124.121 46.273, 125.652 42.763, 127.840 39.760, 130.267 36.705, 133.239 36.687, 133.262 36.384, 133.638 33.953, 136.658 31.230, 140.405 28.907, 144.598 27.914, 147.210 26.915, 150.337 26.415, 153.181 26.081, 155.928 26.364, 158.342 27.009, 162.130 28.737, 166.373 29.300, 167.251 31.595, 170.294 34.217, 172.688 36.226, 174.076 39.500, 175.618 42.773, 176.432 45.287, 176.810 49.228, 176.482 52.288, 176.196 54.452, 175.592 " />
            <path fill="none" stroke-width="3.0" stroke-linecap="butt" stroke-opacity="1.0" stroke="rgb(0, 0, 0)" stroke-linejoin="round" d=" M 110.499, 58.410 110.200, 60.916 109.831, 64.010 109.971, 69.805 109.974, 69.930 110.003, 71.101 110.007, 71.257 110.009, 71.358 110.729, 75.090 111.246, 77.766 112.538, 79.835 114.289, 82.639 114.706, 83.307 114.951, 83.698 114.966, 83.722 116.748, 84.091 118.867, 84.529 120.182, 84.801 121.038, 84.978 121.233, 84.945 125.262, 84.262 127.515, 83.881 129.988, 83.196 130.721, 82.993 132.803, 82.416 134.081, 81.901 138.599, 80.082 144.753, 82.569 145.218, 82.697 146.574, 83.067 147.782, 83.398 149.895, 83.976 150.122, 84.037 150.571, 84.160 153.872, 84.778 157.170, 85.396 159.595, 85.057 159.728, 85.039 160.001, 84.989 161.983, 84.630 163.786, 84.304 165.811, 83.937 166.844, 83.116 167.345, 82.717 169.980, 77.289 170.103, 74.868 170.120, 74.546 170.120, 74.540 170.122, 74.506 170.302, 70.950 170.259, 67.854 170.231, 67.686 169.190, 61.531 168.172, 57.668 167.942, 56.793 " />
            <path fill="none" stroke-width="3.0" stroke-linecap="butt" stroke-opacity="1.0" stroke="rgb(0, 0, 0)" stroke-linejoin="round" d=" M 44.121, 113.702 44.407, 113.550 45.670, 112.876 47.833, 111.723 51.588, 110.699 54.276, 109.965 55.870, 109.530 65.518, 106.898 72.168, 105.083 82.058, 103.606 91.949, 102.129 101.839, 100.651 104.028, 100.324 110.000, 100.063 116.949, 99.758 126.939, 99.321 136.929, 98.883 139.771, 98.759 149.754, 99.333 151.937, 99.459 151.945, 99.460 157.886, 99.801 167.870, 100.376 171.992, 100.613 181.746, 102.639 184.466, 103.203 186.945, 103.718 193.662, 105.113 194.688, 105.326 201.944, 108.859 207.471, 111.549 207.623, 111.947 " />
            <path fill="none" stroke-width="3.0" stroke-linecap="butt" stroke-opacity="1.0" stroke="rgb(0, 0, 0)" stroke-linejoin="round" d=" M 198.643, 128.053 202.154, 126.400 206.699, 121.311 " />
            <path fill="none" stroke-width="3.0" stroke-linecap="butt" stroke-opacity="1.0" stroke="rgb(0, 0, 0)" stroke-linejoin="round" d=" M 34.842, 122.412 32.038, 127.832 36.687, 133.262 " />
            <path fill="none" stroke-width="3.0" stroke-linecap="butt" stroke-opacity="1.0" stroke="rgb(0, 0, 0)" stroke-linejoin="round" d=" M 192.482, 107.167 188.159, 106.352 185.651, 105.879 183.380, 105.450 183.192, 105.415 173.366, 103.561 169.602, 102.851 160.076, 102.330 154.281, 102.012 150.241, 101.791 149.965, 101.776 149.659, 101.760 139.674, 101.213 139.001, 101.176 129.010, 101.611 119.332, 102.031 116.632, 102.149 109.229, 102.470 108.013, 102.523 105.161, 102.647 95.257, 104.030 90.097, 104.750 80.193, 106.133 73.695, 107.040 64.034, 109.624 55.325, 111.953 54.569, 112.155 53.428, 112.461 53.208, 112.519 50.067, 113.360 49.661, 113.468 41.569, 117.691 " />
            <path fill="none" stroke-width="3.0" stroke-linecap="butt" stroke-opacity="1.0" stroke="rgb(0, 0, 0)" stroke-linejoin="round" d=" M 205.765, 114.400 205.468, 113.672 205.264, 113.174 198.174, 109.842 192.482, 107.167 " />
            <path fill="none" stroke-width="3.0" stroke-linecap="butt" stroke-opacity="1.0" stroke="rgb(0, 0, 0)" stroke-linejoin="round" d=" M 112.538, 79.835 107.600, 80.510 97.706, 81.960 95.902, 82.225 94.686, 82.403 85.023, 84.977 82.208, 85.726 72.746, 88.527 70.092, 89.312 60.863, 93.163 59.850, 93.586 52.262, 98.249 51.821, 98.593 48.765, 100.975 46.760, 102.539 40.099, 107.562 38.252, 109.387 34.192, 113.398 33.464, 114.711 31.819, 117.680 32.707, 120.878 32.800, 121.212 34.842, 122.412 35.381, 122.728 38.699, 121.240 45.127, 117.660 45.198, 117.621 " />
            <path fill="none" stroke-width="3.0" stroke-linecap="butt" stroke-opacity="1.0" stroke="rgb(0, 0, 0)" stroke-linejoin="round" d=" M 41.723, 118.321 41.304, 118.078 38.861, 116.660 38.992, 114.202 39.142, 113.908 39.558, 113.090 40.424, 111.387 44.654, 107.884 47.204, 106.361 49.000, 105.289 50.156, 104.599 54.758, 102.322 57.621, 100.906 63.183, 98.482 63.841, 98.196 67.819, 96.463 77.183, 92.954 77.385, 92.878 79.876, 91.945 89.539, 89.370 93.962, 88.191 103.738, 86.083 109.050, 84.938 110.933, 84.532 116.748, 84.091 " />
            <path fill="none" stroke-width="3.0" stroke-linecap="butt" stroke-opacity="1.0" stroke="rgb(0, 0, 0)" stroke-linejoin="round" d=" M 48.710, 116.356 45.198, 117.621 " />
            <path fill="none" stroke-width="3.0" stroke-linecap="butt" stroke-opacity="1.0" stroke="rgb(0, 0, 0)" stroke-linejoin="round" d=" M 45.127, 117.660 48.710, 116.356 49.600, 114.389 " />
            <path fill="none" stroke-width="3.0" stroke-linecap="butt" stroke-opacity="1.0" stroke="rgb(0, 0, 0)" stroke-linejoin="round" d=" M 129.988, 83.196 136.382, 83.075 139.822, 83.228 144.546, 83.437 147.854, 83.793 148.773, 83.892 150.122, 84.037 " />
            <path fill="none" stroke-width="3.0" stroke-linecap="butt" stroke-opacity="1.0" stroke="rgb(0, 0, 0)" stroke-linejoin="round" d=" M 159.595, 85.057 160.067, 85.108 167.489, 87.118 174.399, 88.989 183.849, 92.261 185.406, 92.800 186.214, 93.212 194.065, 97.217 198.981, 100.228 200.997, 101.464 205.797, 104.938 208.949, 107.994 211.190, 111.228 211.645, 113.820 211.601, 116.998 210.400, 120.252 207.622, 121.677 207.437, 121.604 206.699, 121.311 205.151, 120.698 204.248, 120.341 201.251, 118.183 199.303, 112.819 " />
            <path fill="none" stroke-width="3.0" stroke-linecap="butt" stroke-opacity="1.0" stroke="rgb(0, 0, 0)" stroke-linejoin="round" d=" M 205.797, 104.938 198.292, 98.330 194.013, 94.562 186.917, 90.398 184.191, 89.320 177.761, 86.779 168.324, 83.471 167.916, 83.328 166.844, 83.116 " />
            <path fill="none" stroke-width="3.0" stroke-linecap="butt" stroke-opacity="1.0" stroke="rgb(0, 0, 0)" stroke-linejoin="round" d=" M 208.389, 117.637 210.176, 116.691 211.320, 116.084 211.645, 113.820 " />
            <path fill="none" stroke-width="3.0" stroke-linecap="butt" stroke-opacity="1.0" stroke="rgb(0, 0, 0)" stroke-linejoin="round" d=" M 201.362, 115.865 204.938, 117.016 " />
            <path fill="none" stroke-width="3.0" stroke-linecap="butt" stroke-opacity="1.0" stroke="rgb(0, 0, 0)" stroke-linejoin="round" d=" M 200.195, 112.921 201.362, 115.865 201.251, 118.183 " />
            <path fill="none" stroke-width="3.0" stroke-linecap="butt" stroke-opacity="1.0" stroke="rgb(0, 0, 0)" stroke-linejoin="round" d=" M 106.812, 56.680 106.249, 57.509 105.849, 60.161 105.800, 63.843 106.129, 66.453 108.283, 69.873 108.313, 69.920 108.524, 70.255 109.797, 71.115 110.007, 71.257 " />
            <path fill="none" stroke-width="3.0" stroke-linecap="butt" stroke-opacity="1.0" stroke="rgb(0, 0, 0)" stroke-linejoin="round" d=" M 167.256, 81.313 169.845, 75.988 169.907, 74.768 169.921, 74.501 169.921, 74.492 169.924, 74.440 170.259, 67.854 " />
            <path fill="none" stroke-width="3.0" stroke-linecap="butt" stroke-opacity="1.0" stroke="rgb(0, 0, 0)" stroke-linejoin="round" d=" M 141.612, 75.723 146.229, 78.166 146.876, 78.430 150.850, 80.056 152.601, 80.772 160.735, 82.327 161.161, 82.408 162.268, 82.209 167.256, 81.313 167.345, 82.717 " />
            <path fill="none" stroke-width="3.0" stroke-linecap="butt" stroke-opacity="1.0" stroke="rgb(0, 0, 0)" stroke-linejoin="round" d=" M 114.706, 83.307 115.174, 82.043 116.036, 80.616 " />
            <path fill="none" stroke-width="3.0" stroke-linecap="butt" stroke-opacity="1.0" stroke="rgb(0, 0, 0)" stroke-linejoin="round" d=" M 138.599, 80.082 139.186, 79.492 139.687, 78.988 140.134, 78.539 141.232, 77.040 141.612, 75.723 137.291, 78.032 136.265, 78.441 135.400, 78.786 131.164, 80.476 122.562, 81.905 119.584, 81.317 116.036, 80.616 115.312, 79.456 112.566, 75.059 112.420, 74.277 112.123, 72.688 111.803, 70.974 111.610, 69.940 111.573, 69.740 110.997, 66.659 111.252, 60.185 111.916, 55.364 " />
            <path fill="none" stroke-width="3.0" stroke-linecap="butt" stroke-opacity="1.0" stroke="rgb(0, 0, 0)" stroke-linejoin="round" d=" M 121.131, 24.635 120.565, 24.694 116.219, 25.148 109.760, 26.314 102.062, 29.467 97.816, 33.673 98.853, 39.674 102.245, 45.689 102.490, 45.956 107.463, 51.380 109.600, 53.292 111.916, 55.364 110.983, 56.331 110.499, 58.410 " />
            <path fill="none" stroke-width="3.0" stroke-linecap="butt" stroke-opacity="1.0" stroke="rgb(0, 0, 0)" stroke-linejoin="round" d=" M 168.172, 57.668 171.254, 54.233 173.285, 51.866 176.603, 46.934 178.519, 42.945 178.731, 37.108 178.450, 36.539 173.951, 32.169 166.272, 28.530 159.933, 26.892 155.109, 26.001 152.690, 21.909 148.961, 16.619 142.848, 10.768 137.111, 8.098 136.669, 8.169 131.125, 10.349 126.170, 15.215 123.186, 19.738 120.565, 24.694 " />
            <path fill="none" stroke-width="3.0" stroke-linecap="butt" stroke-opacity="1.0" stroke="rgb(0, 0, 0)" stroke-linejoin="round" d=" M 178.450, 36.539 178.240, 42.273 175.834, 47.893 171.652, 53.135 167.942, 56.793 " />
            <path fill="none" stroke-width="3.0" stroke-linecap="butt" stroke-opacity="1.0" stroke="rgb(0, 0, 0)" stroke-linejoin="round" d=" M 102.062, 29.467 100.969, 29.928 96.640, 34.213 96.566, 36.441 97.596, 42.434 98.941, 45.237 99.868, 46.775 102.366, 50.914 105.666, 55.247 106.812, 56.680 110.200, 60.916 " />
            <path fill="none" stroke-width="3.0" stroke-linecap="butt" stroke-opacity="1.0" stroke="rgb(0, 0, 0)" stroke-linejoin="round" d=" M 137.111, 8.098 131.666, 10.239 126.206, 15.604 123.079, 20.661 121.131, 24.635 " />
            <path fill="none" stroke-width="3.0" stroke-linecap="butt" stroke-opacity="1.0" stroke="rgb(0, 0, 0)" stroke-linejoin="round" d=" M 108.283, 69.873 107.274, 69.914 97.382, 71.381 87.490, 72.848 85.193, 73.188 " />
            <path fill="none" stroke-width="3.0" stroke-linecap="butt" stroke-opacity="1.0" stroke="rgb(0, 0, 0)" stroke-linejoin="round" d=" M 60.222, 82.137 58.960, 83.176 58.694, 83.669 56.018, 88.628 52.136, 97.844 51.821, 98.593 " />
            <path fill="none" stroke-width="3.0" stroke-linecap="butt" stroke-opacity="1.0" stroke="rgb(0, 0, 0)" stroke-linejoin="round" d=" M 170.491, 74.628 170.120, 74.540 " />
            <path fill="none" stroke-width="3.0" stroke-linecap="butt" stroke-opacity="1.0" stroke="rgb(0, 0, 0)" stroke-linejoin="round" d=" M 179.050, 79.427 170.491, 74.628 170.122, 74.506 " />
            <path fill="none" stroke-width="3.0" stroke-linecap="butt" stroke-opacity="1.0" stroke="rgb(0, 0, 0)" stroke-linejoin="round" d=" M 184.191, 89.320 179.580, 80.447 179.050, 79.427 177.396, 78.280 174.160, 72.227 170.231, 67.686 " />
            <path fill="none" stroke-width="3.0" stroke-linecap="butt" stroke-opacity="1.0" stroke="rgb(0, 0, 0)" stroke-linejoin="round" d=" M 99.868, 46.775 93.533, 49.043 85.227, 53.994 77.821, 58.939 70.479, 65.728 69.480, 66.652 63.748, 74.847 62.394, 76.782 58.795, 83.413 58.694, 83.669 " />
            <path fill="none" stroke-width="3.0" stroke-linecap="butt" stroke-opacity="1.0" stroke="rgb(0, 0, 0)" stroke-linejoin="round" d=" M 33.464, 114.711 32.847, 115.413 29.272, 123.033 29.787, 126.826 35.367, 133.236 36.384, 133.638 " />
            <path fill="none" stroke-width="3.0" stroke-linecap="butt" stroke-opacity="1.0" stroke="rgb(0, 0, 0)" stroke-linejoin="round" d=" M 48.765, 100.975 43.774, 103.853 38.252, 109.387 " />
            <path fill="none" stroke-width="3.0" stroke-linecap="butt" stroke-opacity="1.0" stroke="rgb(0, 0, 0)" stroke-linejoin="round" d=" M 202.154, 126.400 203.973, 125.441 207.437, 121.604 " />
            <path fill="none" stroke-width="3.0" stroke-linecap="butt" stroke-opacity="1.0" stroke="rgb(0, 0, 0)" stroke-linejoin="round" d=" M 32.707, 120.878 29.787, 126.826 " />
            <path fill="none" stroke-width="3.0" stroke-linecap="butt" stroke-opacity="1.0" stroke="rgb(0, 0, 0)" stroke-linejoin="round" d=" M 49.600, 114.389 53.208, 112.519 " />
            <path fill="none" stroke-width="3.0" stroke-linecap="butt" stroke-opacity="1.0" stroke="rgb(0, 0, 0)" stroke-linejoin="round" d=" M 188.159, 106.352 197.229, 110.564 200.095, 111.895 200.162, 111.926 " />
        </g>
    </g>
</svg>
