<?xml version='1.0' encoding='ascii'?>
<svg xmlns="http://www.w3.org/2000/svg" version="1.1" width="250" height="250">
    <g id="ViewLayer_LineSet" xmlns:inkscape="http://www.inkscape.org/namespaces/inkscape" inkscape:groupmode="lineset" inkscape:label="ViewLayer_LineSet">
        <g xmlns:inkscape="http://www.inkscape.org/namespaces/inkscape" inkscape:groupmode="layer" id="strokes" inkscape:label="strokes">
            <path fill="none" stroke-width="3.0" stroke-linecap="butt" stroke-opacity="1.0" stroke="rgb(0, 0, 0)" stroke-linejoin="round" d=" M 45.805, 143.179 45.724, 145.878 45.841, 148.608 46.220, 150.743 47.534, 157.601 49.049, 163.526 51.783, 170.985 55.463, 178.259 61.113, 186.510 61.281, 186.755 " />
            <path fill="none" stroke-width="3.0" stroke-linecap="butt" stroke-opacity="1.0" stroke="rgb(0, 0, 0)" stroke-linejoin="round" d=" M 126.300, 213.897 127.905, 213.707 131.598, 212.970 138.599, 211.383 143.142, 209.983 146.560, 208.351 155.601, 204.015 163.678, 198.119 163.915, 197.946 166.986, 195.357 167.685, 194.632 " />
            <path fill="none" stroke-width="3.0" stroke-linecap="butt" stroke-opacity="1.0" stroke="rgb(0, 0, 0)" stroke-linejoin="round" d=" M 184.954, 169.450 185.612, 168.030 186.389, 165.312 189.058, 155.675 189.380, 154.511 189.833, 150.387 " />
            <path fill="none" stroke-width="3.0" stroke-linecap="butt" stroke-opacity="1.0" stroke="rgb(0, 0, 0)" stroke-linejoin="round" d=" M 48.605, 121.810 47.315, 126.632 46.420, 131.757 46.110, 133.531 45.998, 137.241 45.978, 137.924 " />
            <path fill="none" stroke-width="3.0" stroke-linecap="butt" stroke-opacity="1.0" stroke="rgb(0, 0, 0)" stroke-linejoin="round" d=" M 45.998, 137.241 45.823, 139.550 45.843, 140.319 45.813, 141.226 45.801, 142.318 45.805, 143.179 45.808, 143.834 45.893, 145.102 46.040, 146.048 46.412, 147.061 47.035, 147.766 " />
            <path fill="none" stroke-width="3.0" stroke-linecap="butt" stroke-opacity="1.0" stroke="rgb(0, 0, 0)" stroke-linejoin="round" d=" M 47.035, 147.766 47.131, 147.805 " />
            <path fill="none" stroke-width="3.0" stroke-linecap="butt" stroke-opacity="1.0" stroke="rgb(0, 0, 0)" stroke-linejoin="round" d=" M 47.590, 141.925 47.758, 142.633 47.810, 143.603 47.752, 144.606 47.513, 145.808 47.246, 147.380 47.131, 147.805 47.032, 148.170 47.011, 148.247 46.931, 148.540 " />
            <path fill="none" stroke-width="3.0" stroke-linecap="butt" stroke-opacity="1.0" stroke="rgb(0, 0, 0)" stroke-linejoin="round" d=" M 62.186, 104.352 62.061, 104.737 60.777, 108.210 60.832, 108.276 57.735, 115.833 55.834, 119.544 54.151, 123.300 52.639, 126.762 51.323, 129.763 50.205, 132.157 49.274, 133.825 48.518, 134.689 47.928, 134.706 47.512, 133.878 47.293, 132.245 47.293, 132.103 47.304, 129.887 47.590, 126.914 48.190, 123.468 48.605, 121.810 49.130, 119.708 50.416, 115.805 50.641, 115.263 51.997, 111.991 53.708, 108.388 53.776, 108.257 55.478, 105.000 56.962, 102.431 " />
            <path fill="none" stroke-width="3.0" stroke-linecap="butt" stroke-opacity="1.0" stroke="rgb(0, 0, 0)" stroke-linejoin="round" d=" M 48.025, 114.196 46.623, 117.798 45.501, 121.235 44.670, 124.339 44.116, 126.955 43.810, 128.950 43.716, 130.225 43.804, 130.720 " />
            <path fill="none" stroke-width="3.0" stroke-linecap="butt" stroke-opacity="1.0" stroke="rgb(0, 0, 0)" stroke-linejoin="round" d=" M 43.804, 130.720 46.420, 131.757 " />
            <path fill="none" stroke-width="3.0" stroke-linecap="butt" stroke-opacity="1.0" stroke="rgb(0, 0, 0)" stroke-linejoin="round" d=" M 54.244, 101.431 52.951, 104.045 51.280, 107.226 " />
            <path fill="none" stroke-width="3.0" stroke-linecap="butt" stroke-opacity="1.0" stroke="rgb(0, 0, 0)" stroke-linejoin="round" d=" M 50.641, 115.263 49.670, 114.867 48.025, 114.196 49.631, 110.657 51.280, 107.226 52.885, 107.889 53.776, 108.257 " />
            <path fill="none" stroke-width="3.0" stroke-linecap="butt" stroke-opacity="1.0" stroke="rgb(0, 0, 0)" stroke-linejoin="round" d=" M 50.324, 229.132 56.559, 231.521 60.461, 233.017 70.111, 235.639 75.332, 237.058 85.052, 239.405 89.739, 240.537 99.572, 242.357 99.812, 242.402 105.490, 242.886 107.359, 242.734 112.730, 242.475 118.136, 240.145 120.185, 239.256 123.751, 236.098 126.286, 232.067 126.954, 229.807 127.703, 227.271 127.872, 221.568 127.678, 219.290 126.300, 213.897 125.686, 211.489 " />
            <path fill="none" stroke-width="3.0" stroke-linecap="butt" stroke-opacity="1.0" stroke="rgb(0, 0, 0)" stroke-linejoin="round" d=" M 72.287, 186.293 62.296, 186.712 61.566, 186.743 61.281, 186.755 59.680, 186.822 50.220, 186.952 41.626, 188.066 34.416, 190.721 29.945, 194.172 26.455, 198.091 24.550, 202.692 24.261, 207.911 24.385, 209.180 26.626, 214.130 28.369, 215.882 34.967, 220.599 38.052, 222.806 45.741, 227.074 47.932, 228.473 56.559, 231.521 " />
            <path fill="none" stroke-width="3.0" stroke-linecap="butt" stroke-opacity="1.0" stroke="rgb(0, 0, 0)" stroke-linejoin="round" d=" M 126.954, 229.807 127.403, 229.750 132.897, 228.481 137.653, 227.126 138.771, 226.800 147.450, 221.832 151.771, 219.358 159.384, 212.874 161.195, 211.331 168.748, 204.777 170.349, 203.389 176.572, 197.459 179.970, 193.975 181.163, 191.719 183.229, 188.426 184.700, 184.245 185.150, 180.793 185.017, 177.178 184.477, 176.030 " />
            <path fill="none" stroke-width="3.0" stroke-linecap="butt" stroke-opacity="1.0" stroke="rgb(0, 0, 0)" stroke-linejoin="round" d=" M 132.832, 180.973 137.381, 185.381 142.729, 189.587 147.268, 192.103 151.624, 193.837 154.241, 194.732 158.596, 195.630 162.363, 195.601 165.393, 195.087 167.685, 194.632 168.551, 194.460 171.458, 193.175 173.445, 192.147 175.949, 190.332 177.484, 188.919 179.915, 186.446 181.718, 183.497 182.764, 181.624 183.871, 178.598 184.477, 176.030 184.509, 175.894 184.833, 174.146 185.080, 170.613 184.954, 169.450 184.619, 166.353 184.327, 165.209 183.139, 160.601 181.215, 155.723 177.700, 149.779 173.997, 144.756 " />
            <path fill="none" stroke-width="3.0" stroke-linecap="butt" stroke-opacity="1.0" stroke="rgb(0, 0, 0)" stroke-linejoin="round" d=" M 66.384, 51.572 64.798, 50.891 64.790, 50.286 64.790, 50.281 64.767, 48.523 65.297, 38.537 65.311, 38.277 64.059, 28.356 63.995, 27.848 60.991, 21.559 57.398, 18.040 53.967, 16.133 52.169, 16.288 50.417, 19.372 47.036, 23.010 43.148, 28.496 38.656, 37.430 37.571, 39.587 33.797, 48.544 31.774, 55.887 29.187, 65.546 29.003, 66.234 28.553, 72.135 28.734, 77.343 28.748, 77.741 " />
            <path fill="none" stroke-width="3.0" stroke-linecap="butt" stroke-opacity="1.0" stroke="rgb(0, 0, 0)" stroke-linejoin="round" d=" M 61.499, 68.038 59.069, 67.207 60.141, 64.397 " />
            <path fill="none" stroke-width="3.0" stroke-linecap="butt" stroke-opacity="1.0" stroke="rgb(0, 0, 0)" stroke-linejoin="round" d=" M 30.380, 76.490 30.181, 78.520 30.135, 79.764 31.003, 80.550 31.516, 81.015 35.387, 82.129 38.798, 82.396 40.795, 82.553 47.227, 80.682 53.245, 75.251 57.964, 68.733 58.268, 68.313 58.279, 68.298 58.460, 68.048 58.717, 67.692 58.744, 67.656 58.847, 67.514 59.069, 67.207 " />
            <path fill="none" stroke-width="3.0" stroke-linecap="butt" stroke-opacity="1.0" stroke="rgb(0, 0, 0)" stroke-linejoin="round" d=" M 28.734, 77.343 28.433, 79.035 28.364, 79.937 29.604, 81.096 33.209, 82.126 38.341, 82.520 38.798, 82.396 " />
            <path fill="none" stroke-width="3.0" stroke-linecap="butt" stroke-opacity="1.0" stroke="rgb(0, 0, 0)" stroke-linejoin="round" d=" M 67.431, 74.435 67.070, 74.476 66.679, 74.519 65.662, 73.718 65.362, 73.482 59.177, 68.613 59.143, 68.586 58.460, 68.048 " />
            <path fill="none" stroke-width="3.0" stroke-linecap="butt" stroke-opacity="1.0" stroke="rgb(0, 0, 0)" stroke-linejoin="round" d=" M 81.146, 63.385 81.593, 62.733 82.747, 60.721 " />
            <path fill="none" stroke-width="3.0" stroke-linecap="butt" stroke-opacity="1.0" stroke="rgb(0, 0, 0)" stroke-linejoin="round" d=" M 80.975, 59.287 82.215, 60.291 82.406, 60.445 82.747, 60.721 82.685, 60.238 82.675, 60.158 80.967, 59.095 " />
            <path fill="none" stroke-width="3.0" stroke-linecap="butt" stroke-opacity="1.0" stroke="rgb(0, 0, 0)" stroke-linejoin="round" d=" M 36.856, 93.838 42.375, 95.870 44.040, 96.483 53.438, 99.900 54.792, 100.393 56.098, 100.868 57.589, 101.410 57.996, 101.558 59.873, 102.240 61.000, 102.650 61.620, 102.875 62.554, 103.214 64.274, 103.837 69.132, 105.597 69.662, 105.789 70.719, 106.172 71.140, 106.325 80.541, 109.732 85.885, 111.668 87.607, 112.292 97.012, 115.692 98.392, 116.191 98.518, 116.236 " />
            <path fill="none" stroke-width="3.0" stroke-linecap="butt" stroke-opacity="1.0" stroke="rgb(0, 0, 0)" stroke-linejoin="round" d=" M 51.069, 82.593 50.914, 82.669 43.554, 86.317 38.860, 90.327 36.856, 93.838 39.680, 95.995 46.640, 98.633 54.244, 101.431 55.619, 101.937 56.962, 102.431 57.357, 102.576 59.313, 103.296 60.509, 103.736 62.186, 104.352 63.382, 104.793 63.603, 104.873 68.765, 106.753 70.382, 107.343 73.068, 108.321 82.464, 111.744 83.047, 111.956 84.468, 112.474 88.930, 114.099 94.754, 116.208 99.706, 118.001 " />
            <path fill="none" stroke-width="3.0" stroke-linecap="butt" stroke-opacity="1.0" stroke="rgb(0, 0, 0)" stroke-linejoin="round" d=" M 122.661, 126.309 131.589, 129.525 140.997, 132.914 150.405, 136.304 151.213, 136.595 160.628, 139.967 170.042, 143.339 173.997, 144.756 177.539, 146.025 186.963, 149.369 189.833, 150.387 195.331, 152.339 203.398, 155.126 206.426, 155.076 207.391, 151.181 206.053, 144.987 202.395, 136.262 197.709, 130.840 193.877, 128.393 193.807, 128.349 191.596, 126.938 " />
            <path fill="none" stroke-width="3.0" stroke-linecap="butt" stroke-opacity="1.0" stroke="rgb(0, 0, 0)" stroke-linejoin="round" d=" M 60.003, 61.491 60.099, 63.505 60.141, 64.397 60.259, 66.872 61.259, 67.812 61.499, 68.038 62.204, 68.700 62.408, 68.892 63.687, 70.095 63.697, 70.104 66.426, 72.671 66.763, 72.988 67.811, 72.962 68.003, 72.957 68.502, 72.944 69.409, 72.922 70.720, 72.889 71.712, 72.865 " />
            <path fill="none" stroke-width="3.0" stroke-linecap="butt" stroke-opacity="1.0" stroke="rgb(0, 0, 0)" stroke-linejoin="round" d=" M 81.273, 66.439 81.146, 63.385 81.073, 61.626 81.044, 60.932 80.977, 59.342 80.975, 59.287 80.967, 59.095 80.907, 57.661 74.527, 51.489 71.846, 51.517 70.756, 51.528 66.384, 51.572 65.781, 51.578 65.434, 51.952 64.830, 52.601 64.630, 52.815 64.070, 53.417 63.934, 53.563 63.514, 54.014 62.221, 55.403 " />
            <path fill="none" stroke-width="3.0" stroke-linecap="butt" stroke-opacity="1.0" stroke="rgb(0, 0, 0)" stroke-linejoin="round" d=" M 50.914, 82.669 50.408, 81.168 50.990, 80.925 51.954, 81.135 53.763, 81.765 55.857, 82.494 58.120, 84.055 58.171, 84.090 61.070, 86.089 61.182, 86.167 61.859, 86.611 67.248, 90.148 67.351, 90.222 74.118, 95.114 75.213, 95.935 76.369, 96.801 80.941, 100.227 86.728, 104.646 92.146, 108.684 96.868, 112.973 99.290, 116.277 99.363, 116.449 99.500, 116.774 99.711, 117.270 100.078, 118.136 100.464, 119.045 101.161, 120.693 " />
            <path fill="none" stroke-width="3.0" stroke-linecap="butt" stroke-opacity="1.0" stroke="rgb(0, 0, 0)" stroke-linejoin="round" d=" M 65.310, 77.341 64.294, 77.231 62.795, 77.648 53.159, 80.323 50.990, 80.925 " />
            <path fill="none" stroke-width="3.0" stroke-linecap="butt" stroke-opacity="1.0" stroke="rgb(0, 0, 0)" stroke-linejoin="round" d=" M 116.022, 115.342 112.377, 109.737 106.316, 103.573 101.427, 98.515 100.531, 97.767 99.501, 96.907 94.961, 93.120 87.696, 88.282 84.555, 86.431 81.050, 84.364 80.753, 84.193 77.190, 82.131 77.060, 82.055 75.107, 80.925 70.153, 79.012 69.631, 78.783 67.077, 77.660 66.689, 77.490 " />
            <path fill="none" stroke-width="3.0" stroke-linecap="butt" stroke-opacity="1.0" stroke="rgb(0, 0, 0)" stroke-linejoin="round" d=" M 120.934, 126.168 120.850, 125.656 120.717, 124.840 120.616, 124.225 120.563, 123.902 120.299, 122.285 120.282, 122.179 118.045, 118.599 117.683, 118.019 116.995, 116.919 115.977, 115.335 112.377, 109.737 " />
            <path fill="none" stroke-width="3.0" stroke-linecap="butt" stroke-opacity="1.0" stroke="rgb(0, 0, 0)" stroke-linejoin="round" d=" M 100.077, 118.512 101.161, 120.693 110.632, 123.905 112.413, 124.509 121.977, 127.753 122.661, 126.309 " />
            <path fill="none" stroke-width="3.0" stroke-linecap="butt" stroke-opacity="1.0" stroke="rgb(0, 0, 0)" stroke-linejoin="round" d=" M 121.977, 127.753 120.934, 126.168 " />
            <path fill="none" stroke-width="3.0" stroke-linecap="butt" stroke-opacity="1.0" stroke="rgb(0, 0, 0)" stroke-linejoin="round" d=" M 120.282, 122.179 119.023, 120.091 " />
            <path fill="none" stroke-width="3.0" stroke-linecap="butt" stroke-opacity="1.0" stroke="rgb(0, 0, 0)" stroke-linejoin="round" d=" M 57.964, 68.733 63.097, 73.540 65.362, 73.482 " />
            <path fill="none" stroke-width="3.0" stroke-linecap="butt" stroke-opacity="1.0" stroke="rgb(0, 0, 0)" stroke-linejoin="round" d=" M 30.324, 64.008 30.128, 65.190 30.228, 72.475 30.270, 73.582 30.369, 76.212 30.380, 76.490 30.415, 77.418 " />
            <path fill="none" stroke-width="3.0" stroke-linecap="butt" stroke-opacity="1.0" stroke="rgb(0, 0, 0)" stroke-linejoin="round" d=" M 30.824, 78.706 32.132, 75.381 32.700, 73.937 35.398, 66.624 37.418, 60.951 38.903, 56.717 " />
            <path fill="none" stroke-width="3.0" stroke-linecap="butt" stroke-opacity="1.0" stroke="rgb(0, 0, 0)" stroke-linejoin="round" d=" M 30.135, 79.764 30.824, 78.706 32.240, 79.949 36.152, 81.093 41.443, 81.525 " />
            <path fill="none" stroke-width="3.0" stroke-linecap="butt" stroke-opacity="1.0" stroke="rgb(0, 0, 0)" stroke-linejoin="round" d=" M 30.369, 76.212 30.204, 76.572 29.178, 78.670 28.364, 79.937 " />
            <path fill="none" stroke-width="3.0" stroke-linecap="butt" stroke-opacity="1.0" stroke="rgb(0, 0, 0)" stroke-linejoin="round" d=" M 45.012, 59.192 40.556, 57.490 38.903, 56.717 40.448, 53.026 42.628, 47.682 44.837, 42.013 46.901, 36.409 47.975, 32.804 48.422, 30.461 48.308, 29.878 48.103, 29.779 " />
            <path fill="none" stroke-width="3.0" stroke-linecap="butt" stroke-opacity="1.0" stroke="rgb(0, 0, 0)" stroke-linejoin="round" d=" M 54.244, 32.023 49.945, 29.947 48.103, 29.779 49.237, 26.347 50.627, 22.043 51.921, 17.698 52.169, 16.288 " />
            <path fill="none" stroke-width="3.0" stroke-linecap="butt" stroke-opacity="1.0" stroke="rgb(0, 0, 0)" stroke-linejoin="round" d=" M 144.333, 44.300 141.031, 43.607 137.852, 42.939 133.303, 42.324 123.328, 43.029 121.886, 43.131 117.597, 43.453 107.972, 46.164 104.398, 47.171 95.390, 51.513 92.693, 52.814 84.661, 58.772 82.685, 60.238 " />
            <path fill="none" stroke-width="3.0" stroke-linecap="butt" stroke-opacity="1.0" stroke="rgb(0, 0, 0)" stroke-linejoin="round" d=" M 159.365, 50.241 159.148, 48.550 157.765, 45.124 155.653, 43.583 152.077, 41.834 148.022, 40.846 145.523, 40.734 142.242, 42.486 141.031, 43.607 " />
            <path fill="none" stroke-width="3.0" stroke-linecap="butt" stroke-opacity="1.0" stroke="rgb(0, 0, 0)" stroke-linejoin="round" d=" M 48.743, 36.710 52.560, 38.502 56.805, 41.212 " />
            <path fill="none" stroke-width="3.0" stroke-linecap="butt" stroke-opacity="1.0" stroke="rgb(0, 0, 0)" stroke-linejoin="round" d=" M 193.877, 128.393 194.886, 128.553 195.213, 127.450 188.384, 123.763 188.258, 123.708 185.301, 122.420 176.133, 118.426 174.141, 117.559 164.845, 113.874 155.548, 110.189 153.587, 109.412 144.213, 105.931 134.838, 102.450 129.366, 100.418 119.926, 97.119 110.486, 93.820 105.169, 91.962 95.657, 88.875 86.146, 85.789 84.672, 85.311 80.753, 84.193 " />
            <path fill="none" stroke-width="3.0" stroke-linecap="butt" stroke-opacity="1.0" stroke="rgb(0, 0, 0)" stroke-linejoin="round" d=" M 84.555, 86.431 86.919, 87.113 96.426, 90.213 105.934, 93.313 106.298, 93.432 115.737, 96.735 125.176, 100.038 129.098, 101.411 138.474, 104.888 147.850, 108.366 151.924, 109.877 161.225, 113.549 170.527, 117.222 171.367, 117.554 180.547, 121.520 184.952, 123.423 187.106, 124.562 188.612, 125.359 191.596, 126.938 " />
            <path fill="none" stroke-width="3.0" stroke-linecap="butt" stroke-opacity="1.0" stroke="rgb(0, 0, 0)" stroke-linejoin="round" d=" M 81.551, 68.899 78.880, 69.043 77.632, 69.110 77.064, 69.061 " />
            <path fill="none" stroke-width="3.0" stroke-linecap="butt" stroke-opacity="1.0" stroke="rgb(0, 0, 0)" stroke-linejoin="round" d=" M 77.632, 69.110 78.023, 69.184 78.642, 69.301 88.466, 71.167 92.956, 72.020 " />
            <path fill="none" stroke-width="3.0" stroke-linecap="butt" stroke-opacity="1.0" stroke="rgb(0, 0, 0)" stroke-linejoin="round" d=" M 195.213, 127.450 195.515, 117.455 195.817, 107.459 195.832, 106.938 194.171, 105.132 193.613, 101.365 191.272, 91.643 190.377, 87.927 186.248, 78.819 185.030, 76.132 179.374, 67.885 177.320, 64.891 170.104, 57.969 168.114, 56.061 165.835, 53.995 161.768, 51.519 159.365, 50.241 156.186, 48.552 " />
            <path fill="none" stroke-width="3.0" stroke-linecap="butt" stroke-opacity="1.0" stroke="rgb(0, 0, 0)" stroke-linejoin="round" d=" M 156.186, 48.552 150.367, 46.017 144.333, 44.300 " />
            <path fill="none" stroke-width="3.0" stroke-linecap="butt" stroke-opacity="1.0" stroke="rgb(0, 0, 0)" stroke-linejoin="round" d=" M 120.616, 124.225 122.981, 125.078 132.387, 128.472 133.016, 128.699 142.423, 132.092 151.829, 135.486 152.547, 135.745 161.956, 139.132 171.365, 142.520 172.556, 142.948 179.905, 145.594 189.318, 148.970 189.963, 149.202 198.258, 152.177 201.421, 153.300 206.426, 155.076 " />
            <path fill="none" stroke-width="3.0" stroke-linecap="butt" stroke-opacity="1.0" stroke="rgb(0, 0, 0)" stroke-linejoin="round" d=" M 181.501, 141.356 172.112, 137.912 165.548, 135.504 156.159, 132.061 154.359, 131.400 144.959, 127.990 141.472, 126.725 132.071, 123.315 122.670, 119.905 122.447, 119.824 121.948, 119.642 " />
            <path fill="none" stroke-width="3.0" stroke-linecap="butt" stroke-opacity="1.0" stroke="rgb(0, 0, 0)" stroke-linejoin="round" d=" M 71.846, 51.517 69.885, 49.806 67.163, 48.977 66.518, 49.328 64.790, 50.281 " />
            <path fill="none" stroke-width="3.0" stroke-linecap="butt" stroke-opacity="1.0" stroke="rgb(0, 0, 0)" stroke-linejoin="round" d=" M 47.032, 148.170 46.811, 148.542 " />
            <path fill="none" stroke-width="3.0" stroke-linecap="butt" stroke-opacity="1.0" stroke="rgb(0, 0, 0)" stroke-linejoin="round" d=" M 63.934, 53.563 63.981, 53.418 64.311, 52.396 64.798, 50.891 " />
            <path fill="none" stroke-width="3.0" stroke-linecap="butt" stroke-opacity="1.0" stroke="rgb(0, 0, 0)" stroke-linejoin="round" d=" M 58.268, 68.313 59.177, 68.613 " />
            <path fill="none" stroke-width="3.0" stroke-linecap="butt" stroke-opacity="1.0" stroke="rgb(0, 0, 0)" stroke-linejoin="round" d=" M 64.790, 50.286 67.163, 48.977 " />
            <path fill="none" stroke-width="3.0" stroke-linecap="butt" stroke-opacity="1.0" stroke="rgb(0, 0, 0)" stroke-linejoin="round" d=" M 58.717, 67.692 60.449, 69.032 65.966, 73.301 66.174, 73.462 66.989, 74.093 67.203, 74.259 67.431, 74.435 68.167, 73.412 68.502, 72.944 " />
            <path fill="none" stroke-width="3.0" stroke-linecap="butt" stroke-opacity="1.0" stroke="rgb(0, 0, 0)" stroke-linejoin="round" d=" M 58.744, 67.656 60.880, 68.301 62.204, 68.700 " />
            <path fill="none" stroke-width="3.0" stroke-linecap="butt" stroke-opacity="1.0" stroke="rgb(0, 0, 0)" stroke-linejoin="round" d=" M 65.662, 73.718 62.795, 77.648 " />
            <path fill="none" stroke-width="3.0" stroke-linecap="butt" stroke-opacity="1.0" stroke="rgb(0, 0, 0)" stroke-linejoin="round" d=" M 66.112, 77.428 69.067, 73.389 69.409, 72.922 " />
            <path fill="none" stroke-width="3.0" stroke-linecap="butt" stroke-opacity="1.0" stroke="rgb(0, 0, 0)" stroke-linejoin="round" d=" M 98.481, 116.314 98.986, 117.009 99.706, 118.001 100.077, 118.512 100.464, 119.045 " />
        </g>
    </g>
</svg>
