<?xml version='1.0' encoding='ascii'?>
<svg xmlns="http://www.w3.org/2000/svg" version="1.1" width="250" height="250">
    <g id="ViewLayer_LineSet" xmlns:inkscape="http://www.inkscape.org/namespaces/inkscape" inkscape:groupmode="lineset" inkscape:label="ViewLayer_LineSet">
        <g xmlns:inkscape="http://www.inkscape.org/namespaces/inkscape" inkscape:groupmode="layer" id="strokes" inkscape:label="strokes">
            <path fill="none" stroke-width="3.0" stroke-linecap="butt" stroke-opacity="1.0" stroke="rgb(0, 0, 0)" stroke-linejoin="round" d=" M 55.362, 154.661 55.400, 155.102 57.855, 164.796 58.192, 166.125 60.225, 170.778 62.685, 176.409 67.865, 184.363 " />
            <path fill="none" stroke-width="3.0" stroke-linecap="butt" stroke-opacity="1.0" stroke="rgb(0, 0, 0)" stroke-linejoin="round" d=" M 127.507, 214.194 131.368, 214.017 131.384, 214.015 135.470, 213.545 139.118, 212.826 146.159, 211.266 150.636, 209.891 158.773, 206.041 163.034, 203.995 171.141, 198.140 171.358, 197.984 174.337, 195.420 178.838, 190.790 181.940, 187.597 187.614, 179.362 188.224, 178.476 188.529, 177.823 " />
            <path fill="none" stroke-width="3.0" stroke-linecap="butt" stroke-opacity="1.0" stroke="rgb(0, 0, 0)" stroke-linejoin="round" d=" M 81.997, 175.267 76.047, 177.896 71.396, 181.051 68.629, 183.248 67.865, 184.363 62.549, 192.117 60.953, 196.183 59.563, 202.456 59.065, 206.576 59.451, 210.193 60.581, 216.974 61.877, 220.602 64.523, 227.037 68.450, 232.787 71.823, 234.851 76.672, 236.290 81.774, 237.114 88.628, 237.849 94.054, 238.085 99.142, 237.977 105.399, 237.356 110.800, 236.283 114.624, 234.705 117.295, 232.586 122.360, 227.511 124.393, 224.678 125.457, 221.612 127.381, 214.872 127.507, 214.194 128.185, 210.535 128.605, 208.270 128.902, 205.074 " />
            <path fill="none" stroke-width="3.0" stroke-linecap="butt" stroke-opacity="1.0" stroke="rgb(0, 0, 0)" stroke-linejoin="round" d=" M 132.382, 214.900 133.707, 215.708 133.892, 215.787 " />
            <path fill="none" stroke-width="3.0" stroke-linecap="butt" stroke-opacity="1.0" stroke="rgb(0, 0, 0)" stroke-linejoin="round" d=" M 131.384, 214.015 132.382, 214.900 133.892, 215.787 137.098, 217.669 142.940, 219.402 148.866, 220.026 153.781, 220.120 158.708, 219.841 164.841, 218.981 169.281, 217.291 173.064, 214.642 175.977, 212.335 177.575, 209.734 179.432, 206.229 180.325, 203.283 180.395, 199.688 180.245, 195.847 179.473, 192.005 178.838, 190.790 " />
            <path fill="none" stroke-width="3.0" stroke-linecap="butt" stroke-opacity="1.0" stroke="rgb(0, 0, 0)" stroke-linejoin="round" d=" M 38.339, 138.144 37.050, 140.174 35.819, 143.344 34.992, 145.629 34.344, 148.291 34.021, 150.954 34.125, 153.220 34.688, 156.876 36.148, 160.803 36.553, 161.606 38.802, 164.829 41.281, 167.238 43.163, 168.630 46.300, 170.234 49.316, 171.068 51.815, 171.555 54.460, 171.432 58.351, 171.195 60.225, 170.778 " />
            <path fill="none" stroke-width="3.0" stroke-linecap="butt" stroke-opacity="1.0" stroke="rgb(0, 0, 0)" stroke-linejoin="round" d=" M 188.529, 177.823 188.787, 178.008 193.004, 180.100 197.041, 181.520 201.186, 182.280 204.779, 182.244 208.062, 181.703 209.573, 181.323 212.528, 180.220 215.167, 178.621 216.224, 177.761 218.577, 175.775 220.595, 173.213 222.163, 170.408 222.670, 169.223 223.559, 166.595 224.063, 163.659 224.122, 160.301 223.447, 156.032 222.140, 151.845 220.148, 147.450 216.540, 142.054 215.036, 140.190 " />
            <path fill="none" stroke-width="3.0" stroke-linecap="butt" stroke-opacity="1.0" stroke="rgb(0, 0, 0)" stroke-linejoin="round" d=" M 58.194, 97.723 57.084, 98.419 52.785, 101.116 47.683, 106.284 47.329, 106.695 45.311, 109.034 44.134, 110.399 38.563, 118.703 36.572, 121.671 37.350, 131.641 37.572, 134.482 38.339, 138.144 38.349, 138.189 44.792, 145.837 49.595, 151.537 55.362, 154.661 64.155, 159.424 71.315, 163.302 73.978, 164.014 83.639, 166.597 93.300, 169.180 101.582, 171.394 111.548, 172.229 121.513, 173.063 131.478, 173.898 134.675, 174.165 135.642, 174.071 145.595, 173.096 154.950, 172.180 164.902, 171.206 166.368, 171.063 175.922, 168.110 176.273, 168.002 185.827, 165.050 192.863, 162.876 194.890, 161.481 203.127, 155.812 209.614, 151.347 213.985, 142.353 215.036, 140.190 215.886, 138.441 216.905, 134.866 214.385, 125.189 213.682, 122.492 210.456, 117.941 205.388, 111.895 198.360, 104.781 196.632, 103.033 " />
            <path fill="none" stroke-width="3.0" stroke-linecap="butt" stroke-opacity="1.0" stroke="rgb(0, 0, 0)" stroke-linejoin="round" d=" M 47.329, 106.695 45.809, 108.191 45.311, 109.034 " />
            <path fill="none" stroke-width="3.0" stroke-linecap="butt" stroke-opacity="1.0" stroke="rgb(0, 0, 0)" stroke-linejoin="round" d=" M 131.561, 37.642 130.382, 35.647 126.811, 31.621 122.787, 29.607 118.618, 31.436 114.746, 35.306 112.356, 38.808 110.096, 42.826 106.884, 43.328 105.621, 43.565 102.390, 44.282 100.716, 44.817 96.463, 46.722 93.384, 49.876 93.604, 51.689 " />
            <path fill="none" stroke-width="3.0" stroke-linecap="butt" stroke-opacity="1.0" stroke="rgb(0, 0, 0)" stroke-linejoin="round" d=" M 119.793, 42.214 115.724, 42.669 111.062, 43.815 101.702, 47.333 100.617, 47.741 95.803, 50.223 94.202, 51.290 94.142, 51.330 93.604, 51.689 85.282, 57.234 84.636, 57.665 77.488, 64.658 75.952, 66.160 70.380, 74.463 69.015, 76.498 64.784, 82.947 63.669, 85.883 63.112, 87.347 " />
            <path fill="none" stroke-width="3.0" stroke-linecap="butt" stroke-opacity="1.0" stroke="rgb(0, 0, 0)" stroke-linejoin="round" d=" M 63.669, 85.883 61.967, 88.400 58.300, 97.460 58.194, 97.723 56.667, 101.496 55.668, 103.965 55.040, 105.518 55.276, 106.778 55.299, 106.901 55.327, 107.046 55.523, 108.094 55.550, 108.236 55.676, 108.905 55.923, 110.223 55.957, 110.406 56.096, 111.142 56.790, 114.838 58.870, 116.845 62.244, 120.100 66.441, 124.148 75.514, 128.353 83.842, 132.213 87.261, 133.016 96.996, 135.303 106.731, 137.590 107.341, 137.733 117.313, 138.479 127.285, 139.226 133.793, 139.713 143.765, 138.968 153.738, 138.223 159.240, 137.812 165.690, 136.152 175.374, 133.659 180.019, 132.463 188.713, 127.522 193.715, 124.679 194.149, 124.002 195.204, 122.355 198.795, 116.749 198.806, 116.732 199.472, 115.692 199.392, 115.274 199.265, 114.619 198.927, 112.866 198.430, 110.288 198.347, 109.856 197.725, 106.632 197.548, 106.048 196.632, 103.033 193.728, 93.464 192.634, 89.860 191.637, 88.810 190.427, 84.486 185.564, 75.748 184.087, 73.093 177.587, 65.493 175.780, 63.381 171.042, 59.156 163.256, 52.881 161.488, 51.456 152.480, 47.113 150.585, 46.199 146.702, 44.531 141.340, 43.190 140.187, 43.025 " />
            <path fill="none" stroke-width="3.0" stroke-linecap="butt" stroke-opacity="1.0" stroke="rgb(0, 0, 0)" stroke-linejoin="round" d=" M 122.787, 29.607 122.976, 30.643 123.163, 33.015 " />
            <path fill="none" stroke-width="3.0" stroke-linecap="butt" stroke-opacity="1.0" stroke="rgb(0, 0, 0)" stroke-linejoin="round" d=" M 110.096, 42.826 110.350, 43.946 " />
            <path fill="none" stroke-width="3.0" stroke-linecap="butt" stroke-opacity="1.0" stroke="rgb(0, 0, 0)" stroke-linejoin="round" d=" M 93.384, 49.876 93.676, 50.822 94.142, 51.330 " />
            <path fill="none" stroke-width="3.0" stroke-linecap="butt" stroke-opacity="1.0" stroke="rgb(0, 0, 0)" stroke-linejoin="round" d=" M 176.905, 110.175 167.104, 112.157 157.752, 114.047 147.769, 114.630 142.422, 114.942 141.625, 114.989 134.285, 115.417 128.984, 115.055 128.850, 115.046 128.849, 115.046 118.872, 114.364 114.139, 114.040 112.862, 113.953 109.850, 113.747 " />
            <path fill="none" stroke-width="3.0" stroke-linecap="butt" stroke-opacity="1.0" stroke="rgb(0, 0, 0)" stroke-linejoin="round" d=" M 140.675, 44.137 140.962, 44.841 141.428, 45.985 137.799, 47.440 131.086, 47.904 123.977, 47.171 119.351, 45.548 118.944, 43.700 " />
            <path fill="none" stroke-width="3.0" stroke-linecap="butt" stroke-opacity="1.0" stroke="rgb(0, 0, 0)" stroke-linejoin="round" d=" M 140.675, 44.137 140.187, 43.025 139.693, 41.900 137.277, 38.896 134.229, 37.927 131.561, 37.642 131.189, 37.602 130.447, 37.522 129.760, 37.490 125.513, 37.741 123.058, 38.595 120.201, 41.499 119.793, 42.214 118.944, 43.700 " />
            <path fill="none" stroke-width="3.0" stroke-linecap="butt" stroke-opacity="1.0" stroke="rgb(0, 0, 0)" stroke-linejoin="round" d=" M 58.300, 97.460 57.084, 98.419 " />
        </g>
    </g>
</svg>
