<?xml version='1.0' encoding='ascii'?>
<svg xmlns="http://www.w3.org/2000/svg" version="1.1" width="250" height="250">
    <g id="ViewLayer_LineSet" xmlns:inkscape="http://www.inkscape.org/namespaces/inkscape" inkscape:groupmode="lineset" inkscape:label="ViewLayer_LineSet">
        <g xmlns:inkscape="http://www.inkscape.org/namespaces/inkscape" inkscape:groupmode="layer" id="strokes" inkscape:label="strokes">
            <path fill="none" stroke-width="3.0" stroke-linecap="butt" stroke-opacity="1.0" stroke="rgb(0, 0, 0)" stroke-linejoin="round" d=" M 165.372, 197.656 166.823, 196.599 173.768, 189.405 174.444, 188.704 176.441, 185.849 182.069, 177.583 182.445, 177.031 " />
            <path fill="none" stroke-width="3.0" stroke-linecap="butt" stroke-opacity="1.0" stroke="rgb(0, 0, 0)" stroke-linejoin="round" d=" M 59.550, 97.961 59.442, 98.097 57.977, 99.939 53.742, 107.054 49.932, 115.729 49.313, 117.732 48.379, 120.754 48.277, 121.087 47.942, 122.171 47.264, 124.365 46.011, 130.510 45.466, 136.879 45.241, 141.392 45.470, 147.034 45.950, 151.546 46.811, 156.173 47.657, 160.132 48.944, 164.442 50.608, 168.912 52.038, 172.134 52.577, 173.348 54.766, 177.559 57.082, 181.359 59.424, 184.574 62.357, 188.478 65.342, 191.749 69.455, 195.843 72.901, 198.536 75.366, 200.431 78.080, 202.518 84.045, 206.088 89.783, 208.692 93.593, 210.341 98.502, 211.745 99.843, 212.067 " />
            <path fill="none" stroke-width="3.0" stroke-linecap="butt" stroke-opacity="1.0" stroke="rgb(0, 0, 0)" stroke-linejoin="round" d=" M 189.693, 124.471 188.862, 120.585 188.621, 119.963 " />
            <path fill="none" stroke-width="3.0" stroke-linecap="butt" stroke-opacity="1.0" stroke="rgb(0, 0, 0)" stroke-linejoin="round" d=" M 77.110, 149.663 77.664, 151.063 78.673, 152.594 79.028, 153.132 80.923, 154.791 83.119, 156.019 85.161, 156.462 87.256, 156.389 89.631, 155.561 91.680, 154.232 93.230, 152.384 93.945, 151.067 " />
            <path fill="none" stroke-width="3.0" stroke-linecap="butt" stroke-opacity="1.0" stroke="rgb(0, 0, 0)" stroke-linejoin="round" d=" M 117.428, 100.413 117.771, 101.564 118.034, 102.446 118.486, 105.834 118.527, 109.656 118.543, 109.725 117.424, 118.138 117.342, 118.419 117.307, 118.537 116.197, 122.349 114.692, 126.638 112.937, 130.634 110.995, 134.146 108.934, 136.999 108.150, 137.762 107.767, 138.135 106.825, 139.051 104.740, 140.198 102.750, 140.383 101.448, 139.817 100.929, 139.591 99.351, 137.857 98.650, 136.419 98.400, 135.904 98.085, 135.259 97.192, 131.920 96.719, 127.999 96.697, 123.685 97.133, 119.185 97.989, 114.775 98.052, 114.560 98.098, 114.401 99.192, 110.614 100.714, 106.713 102.493, 103.214 104.462, 100.240 105.454, 99.121 " />
            <path fill="none" stroke-width="3.0" stroke-linecap="butt" stroke-opacity="1.0" stroke="rgb(0, 0, 0)" stroke-linejoin="round" d=" M 77.311, 118.119 76.333, 122.411 76.213, 122.864 75.249, 126.520 74.160, 129.970 74.073, 130.245 74.019, 130.380 72.811, 133.399 71.471, 135.823 70.068, 137.397 68.901, 137.924 68.628, 138.047 67.217, 138.043 65.841, 136.509 64.633, 134.408 63.657, 131.551 62.995, 128.083 62.922, 127.082 62.888, 126.611 62.712, 124.178 62.850, 120.024 63.132, 117.928 63.409, 115.878 64.275, 111.881 65.394, 108.040 66.718, 104.489 67.222, 103.419 67.467, 102.899 68.196, 101.351 69.769, 98.734 70.676, 97.600 " />
            <path fill="none" stroke-width="3.0" stroke-linecap="butt" stroke-opacity="1.0" stroke="rgb(0, 0, 0)" stroke-linejoin="round" d=" M 67.217, 138.043 70.423, 139.446 " />
            <path fill="none" stroke-width="3.0" stroke-linecap="butt" stroke-opacity="1.0" stroke="rgb(0, 0, 0)" stroke-linejoin="round" d=" M 77.837, 97.368 77.875, 97.435 78.527, 99.736 78.887, 102.645 78.997, 106.130 78.811, 108.373 78.787, 108.671 78.688, 109.868 " />
            <path fill="none" stroke-width="3.0" stroke-linecap="butt" stroke-opacity="1.0" stroke="rgb(0, 0, 0)" stroke-linejoin="round" d=" M 80.418, 120.086 77.311, 118.119 78.135, 113.917 78.688, 109.868 81.756, 111.928 " />
            <path fill="none" stroke-width="3.0" stroke-linecap="butt" stroke-opacity="1.0" stroke="rgb(0, 0, 0)" stroke-linejoin="round" d=" M 106.927, 201.907 103.135, 206.154 100.019, 211.733 99.843, 212.067 97.672, 216.197 96.312, 220.527 96.069, 221.783 95.299, 226.310 95.265, 230.029 96.181, 233.841 96.187, 233.863 98.460, 237.833 100.556, 239.656 107.168, 242.899 113.185, 243.953 122.333, 245.020 128.713, 245.342 137.109, 245.225 143.487, 244.806 149.572, 243.614 154.030, 243.055 158.256, 241.343 164.656, 238.312 168.704, 235.627 172.658, 231.594 174.588, 227.894 175.576, 225.474 176.716, 221.498 176.834, 216.964 175.780, 212.128 172.287, 204.875 169.654, 201.256 165.372, 197.656 164.137, 196.618 " />
            <path fill="none" stroke-width="3.0" stroke-linecap="butt" stroke-opacity="1.0" stroke="rgb(0, 0, 0)" stroke-linejoin="round" d=" M 75.366, 200.431 74.444, 204.815 73.922, 207.998 74.005, 213.171 74.040, 216.172 74.690, 218.626 76.700, 223.665 77.975, 225.904 81.411, 229.504 85.725, 232.308 89.968, 233.585 94.467, 233.826 96.181, 233.841 " />
            <path fill="none" stroke-width="3.0" stroke-linecap="butt" stroke-opacity="1.0" stroke="rgb(0, 0, 0)" stroke-linejoin="round" d=" M 182.445, 177.031 186.149, 178.741 188.101, 179.546 192.568, 180.827 196.687, 181.443 200.734, 181.362 204.111, 180.597 205.301, 180.243 207.818, 179.303 210.267, 177.924 212.909, 175.910 215.328, 173.429 217.330, 170.356 218.708, 167.299 219.491, 164.598 219.825, 161.934 219.880, 160.716 219.837, 157.267 218.963, 153.330 217.383, 149.487 215.065, 145.467 213.792, 143.805 209.756, 138.788 207.123, 136.091 206.702, 135.660 205.566, 134.496 201.411, 130.762 196.993, 127.721 192.166, 125.344 189.693, 124.471 " />
            <path fill="none" stroke-width="3.0" stroke-linecap="butt" stroke-opacity="1.0" stroke="rgb(0, 0, 0)" stroke-linejoin="round" d=" M 47.942, 122.171 45.216, 123.592 41.065, 126.567 37.160, 130.190 33.207, 134.347 29.411, 139.188 27.140, 143.160 25.603, 146.963 24.766, 150.894 24.621, 151.897 24.541, 155.140 24.965, 158.183 25.937, 161.083 27.406, 163.868 29.353, 166.519 31.663, 168.690 34.250, 170.515 37.053, 171.913 40.105, 172.846 43.446, 173.346 47.405, 173.173 51.381, 172.356 52.038, 172.134 " />
            <path fill="none" stroke-width="3.0" stroke-linecap="butt" stroke-opacity="1.0" stroke="rgb(0, 0, 0)" stroke-linejoin="round" d=" M 116.274, 70.170 119.165, 67.948 119.524, 67.672 119.680, 67.355 119.717, 67.279 121.376, 63.892 122.362, 61.307 122.343, 57.623 121.326, 54.946 119.421, 51.241 117.651, 49.951 " />
            <path fill="none" stroke-width="3.0" stroke-linecap="butt" stroke-opacity="1.0" stroke="rgb(0, 0, 0)" stroke-linejoin="round" d=" M 56.088, 53.426 55.993, 53.696 54.473, 57.988 52.833, 64.074 52.264, 71.919 52.554, 73.190 54.206, 78.471 56.696, 79.728 60.073, 80.506 61.743, 80.892 61.842, 80.914 65.727, 81.379 71.739, 80.317 77.305, 78.892 82.776, 76.707 82.843, 76.680 " />
            <path fill="none" stroke-width="3.0" stroke-linecap="butt" stroke-opacity="1.0" stroke="rgb(0, 0, 0)" stroke-linejoin="round" d=" M 33.801, 110.256 31.596, 105.676 32.777, 104.513 37.478, 99.881 41.908, 98.732 49.905, 96.659 53.174, 95.812 56.627, 95.684 59.024, 95.595 61.505, 95.502 71.498, 95.131 73.802, 95.046 75.857, 94.969 75.861, 94.969 79.967, 94.817 89.937, 95.588 99.907, 96.359 107.741, 96.965 113.695, 97.425 116.230, 97.868 116.277, 97.877 126.127, 99.599 135.978, 101.321 145.829, 103.043 147.698, 103.370 157.357, 105.960 167.015, 108.549 176.674, 111.139 177.120, 111.259 178.203, 111.710 178.722, 111.926 183.098, 113.748 " />
            <path fill="none" stroke-width="3.0" stroke-linecap="butt" stroke-opacity="1.0" stroke="rgb(0, 0, 0)" stroke-linejoin="round" d=" M 206.702, 135.660 206.335, 129.238 200.052, 124.397 197.943, 122.772 " />
            <path fill="none" stroke-width="3.0" stroke-linecap="butt" stroke-opacity="1.0" stroke="rgb(0, 0, 0)" stroke-linejoin="round" d=" M 44.967, 101.022 54.725, 98.832 58.444, 97.996 " />
            <path fill="none" stroke-width="3.0" stroke-linecap="butt" stroke-opacity="1.0" stroke="rgb(0, 0, 0)" stroke-linejoin="round" d=" M 38.849, 115.173 47.133, 120.616 48.277, 121.087 " />
            <path fill="none" stroke-width="3.0" stroke-linecap="butt" stroke-opacity="1.0" stroke="rgb(0, 0, 0)" stroke-linejoin="round" d=" M 55.972, 98.077 46.219, 100.282 45.663, 100.408 41.088, 101.442 39.806, 101.732 33.797, 107.314 34.548, 108.919 " />
            <path fill="none" stroke-width="3.0" stroke-linecap="butt" stroke-opacity="1.0" stroke="rgb(0, 0, 0)" stroke-linejoin="round" d=" M 55.972, 98.077 58.444, 97.996 59.292, 97.969 59.550, 97.961 61.147, 97.909 70.676, 97.600 76.400, 97.415 77.837, 97.368 79.093, 97.327 81.513, 97.249 91.482, 98.029 101.452, 98.808 105.454, 99.121 110.319, 99.501 113.449, 99.746 117.428, 100.413 117.958, 100.502 127.820, 102.154 137.682, 103.807 138.246, 103.901 146.768, 105.329 156.434, 107.891 166.100, 110.453 175.728, 113.005 179.339, 114.488 184.543, 116.626 " />
            <path fill="none" stroke-width="3.0" stroke-linecap="butt" stroke-opacity="1.0" stroke="rgb(0, 0, 0)" stroke-linejoin="round" d=" M 41.007, 92.249 36.202, 96.185 33.034, 99.414 31.221, 102.278 30.051, 105.328 30.044, 107.802 30.508, 109.981 34.837, 114.162 37.517, 115.638 38.849, 115.173 38.864, 115.168 40.779, 114.500 42.019, 113.654 43.637, 112.550 45.223, 107.464 " />
            <path fill="none" stroke-width="3.0" stroke-linecap="butt" stroke-opacity="1.0" stroke="rgb(0, 0, 0)" stroke-linejoin="round" d=" M 33.240, 111.574 30.508, 109.981 " />
            <path fill="none" stroke-width="3.0" stroke-linecap="butt" stroke-opacity="1.0" stroke="rgb(0, 0, 0)" stroke-linejoin="round" d=" M 43.637, 112.550 39.906, 110.149 " />
            <path fill="none" stroke-width="3.0" stroke-linecap="butt" stroke-opacity="1.0" stroke="rgb(0, 0, 0)" stroke-linejoin="round" d=" M 40.776, 107.840 39.906, 110.149 36.484, 111.112 " />
            <path fill="none" stroke-width="3.0" stroke-linecap="butt" stroke-opacity="1.0" stroke="rgb(0, 0, 0)" stroke-linejoin="round" d=" M 57.449, 82.668 50.496, 86.001 42.144, 91.500 41.007, 92.249 47.266, 88.166 48.680, 87.403 57.449, 82.668 59.118, 81.978 61.743, 80.892 " />
            <path fill="none" stroke-width="3.0" stroke-linecap="butt" stroke-opacity="1.0" stroke="rgb(0, 0, 0)" stroke-linejoin="round" d=" M 47.266, 88.166 49.782, 87.136 49.833, 87.115 53.066, 85.790 55.738, 84.696 57.745, 84.093 67.366, 81.201 77.314, 80.183 78.684, 80.042 80.461, 79.861 81.808, 79.825 87.695, 79.667 89.130, 79.729 89.696, 79.754 " />
            <path fill="none" stroke-width="3.0" stroke-linecap="butt" stroke-opacity="1.0" stroke="rgb(0, 0, 0)" stroke-linejoin="round" d=" M 179.339, 114.488 180.026, 116.171 182.696, 117.428 183.045, 117.592 183.981, 117.990 188.621, 119.963 196.892, 123.479 197.010, 123.400 197.943, 122.772 198.716, 122.252 199.096, 121.997 199.348, 120.901 199.932, 118.360 197.028, 113.795 192.330, 109.245 190.532, 107.504 183.113, 102.152 182.973, 102.051 178.876, 99.006 177.469, 97.959 176.756, 97.430 171.933, 94.578 168.221, 92.383 161.304, 89.488 157.928, 88.075 157.039, 87.702 147.494, 84.719 144.328, 83.730 134.714, 80.977 131.534, 80.066 121.676, 78.387 118.675, 77.876 109.266, 76.345 107.483, 76.055 " />
            <path fill="none" stroke-width="3.0" stroke-linecap="butt" stroke-opacity="1.0" stroke="rgb(0, 0, 0)" stroke-linejoin="round" d=" M 102.676, 80.760 107.740, 81.282 111.451, 81.664 112.493, 81.920 122.206, 84.298 128.101, 85.742 137.705, 88.528 142.426, 89.897 142.503, 89.920 151.830, 93.528 155.343, 94.887 164.500, 98.904 166.493, 99.779 174.863, 103.852 181.315, 107.466 184.791, 110.075 186.389, 111.274 187.486, 113.011 187.867, 113.613 188.276, 114.260 188.507, 115.877 188.642, 116.818 187.648, 117.452 187.220, 117.725 186.106, 118.435 " />
            <path fill="none" stroke-width="3.0" stroke-linecap="butt" stroke-opacity="1.0" stroke="rgb(0, 0, 0)" stroke-linejoin="round" d=" M 99.119, 77.377 100.240, 75.772 102.915, 71.945 103.602, 69.592 103.953, 68.388 104.296, 67.211 104.535, 66.394 104.971, 64.898 105.253, 63.932 105.335, 63.650 105.871, 57.232 105.858, 55.194 105.852, 54.182 105.842, 52.739 105.840, 52.448 " />
            <path fill="none" stroke-width="3.0" stroke-linecap="butt" stroke-opacity="1.0" stroke="rgb(0, 0, 0)" stroke-linejoin="round" d=" M 76.872, 72.120 80.421, 74.449 83.077, 75.740 83.423, 75.908 84.486, 76.425 85.575, 76.954 93.095, 78.522 99.119, 77.377 99.299, 77.593 100.324, 78.825 101.988, 80.136 102.484, 80.297 103.441, 80.608 " />
            <path fill="none" stroke-width="3.0" stroke-linecap="butt" stroke-opacity="1.0" stroke="rgb(0, 0, 0)" stroke-linejoin="round" d=" M 54.206, 78.471 53.884, 77.097 " />
            <path fill="none" stroke-width="3.0" stroke-linecap="butt" stroke-opacity="1.0" stroke="rgb(0, 0, 0)" stroke-linejoin="round" d=" M 79.895, 74.970 77.629, 73.433 76.872, 72.120 72.526, 74.424 66.648, 76.844 61.871, 77.736 59.021, 78.269 53.884, 77.097 52.264, 71.919 " />
            <path fill="none" stroke-width="3.0" stroke-linecap="butt" stroke-opacity="1.0" stroke="rgb(0, 0, 0)" stroke-linejoin="round" d=" M 110.673, 59.877 110.896, 59.564 110.939, 59.504 111.185, 59.158 114.190, 54.936 114.487, 54.508 117.651, 49.951 118.869, 48.197 122.538, 42.541 122.810, 41.543 124.081, 36.883 124.132, 33.708 122.948, 31.448 119.468, 27.182 114.192, 24.736 111.257, 23.617 105.518, 22.501 103.083, 22.238 101.133, 22.026 " />
            <path fill="none" stroke-width="3.0" stroke-linecap="butt" stroke-opacity="1.0" stroke="rgb(0, 0, 0)" stroke-linejoin="round" d=" M 55.993, 53.696 53.310, 49.871 50.317, 44.801 48.894, 39.386 49.365, 33.869 53.719, 29.649 60.759, 26.102 66.452, 24.480 70.767, 23.587 73.359, 19.584 77.249, 14.389 83.329, 8.594 88.739, 5.896 93.353, 7.927 97.624, 13.150 99.844, 18.114 101.133, 22.026 " />
            <path fill="none" stroke-width="3.0" stroke-linecap="butt" stroke-opacity="1.0" stroke="rgb(0, 0, 0)" stroke-linejoin="round" d=" M 108.973, 55.548 107.640, 53.976 107.179, 53.432 105.935, 52.518 105.840, 52.448 106.035, 52.280 106.781, 51.633 110.369, 48.524 110.912, 47.963 115.823, 42.885 116.440, 41.920 119.661, 36.891 121.337, 30.897 117.932, 26.714 111.257, 23.617 " />
            <path fill="none" stroke-width="3.0" stroke-linecap="butt" stroke-opacity="1.0" stroke="rgb(0, 0, 0)" stroke-linejoin="round" d=" M 103.083, 22.238 102.172, 19.907 99.689, 15.074 98.265, 12.776 94.383, 8.037 89.679, 5.969 88.739, 5.896 " />
            <path fill="none" stroke-width="3.0" stroke-linecap="butt" stroke-opacity="1.0" stroke="rgb(0, 0, 0)" stroke-linejoin="round" d=" M 53.310, 49.871 56.088, 53.426 " />
            <path fill="none" stroke-width="3.0" stroke-linecap="butt" stroke-opacity="1.0" stroke="rgb(0, 0, 0)" stroke-linejoin="round" d=" M 191.356, 104.425 188.455, 94.855 186.369, 87.971 185.364, 86.901 184.156, 82.557 179.308, 73.811 178.046, 71.536 171.515, 63.964 170.402, 62.674 164.723, 57.163 156.760, 51.113 156.409, 50.846 149.189, 46.987 142.927, 44.836 138.116, 43.265 137.107, 42.936 130.659, 41.784 126.641, 41.612 124.303, 41.512 122.810, 41.543 " />
            <path fill="none" stroke-width="3.0" stroke-linecap="butt" stroke-opacity="1.0" stroke="rgb(0, 0, 0)" stroke-linejoin="round" d=" M 79.895, 74.970 81.804, 76.077 82.794, 76.651 82.843, 76.680 83.479, 77.049 84.593, 77.694 84.770, 77.797 87.909, 79.044 89.564, 79.702 89.696, 79.754 90.378, 80.025 90.793, 80.190 92.244, 80.512 94.007, 80.893 97.849, 81.723 100.809, 81.133 102.676, 80.760 103.441, 80.608 103.603, 80.376 104.333, 79.332 106.646, 76.022 107.019, 75.489 107.383, 74.969 108.673, 71.131 108.826, 70.678 109.201, 68.708 109.478, 67.259 109.587, 66.688 110.244, 63.243 110.673, 59.877 110.745, 59.313 110.774, 59.080 110.849, 58.493 110.894, 58.141 " />
            <path fill="none" stroke-width="3.0" stroke-linecap="butt" stroke-opacity="1.0" stroke="rgb(0, 0, 0)" stroke-linejoin="round" d=" M 186.605, 101.403 183.085, 98.442 174.779, 94.675 166.809, 91.061 161.304, 89.488 " />
            <path fill="none" stroke-width="3.0" stroke-linecap="butt" stroke-opacity="1.0" stroke="rgb(0, 0, 0)" stroke-linejoin="round" d=" M 121.272, 67.370 119.717, 67.279 " />
            <path fill="none" stroke-width="3.0" stroke-linecap="butt" stroke-opacity="1.0" stroke="rgb(0, 0, 0)" stroke-linejoin="round" d=" M 121.272, 67.370 131.150, 68.926 141.028, 70.483 145.042, 71.115 " />
            <path fill="none" stroke-width="3.0" stroke-linecap="butt" stroke-opacity="1.0" stroke="rgb(0, 0, 0)" stroke-linejoin="round" d=" M 138.116, 43.265 137.569, 42.527 134.232, 41.133 130.175, 40.683 127.007, 41.353 126.641, 41.612 " />
            <path fill="none" stroke-width="3.0" stroke-linecap="butt" stroke-opacity="1.0" stroke="rgb(0, 0, 0)" stroke-linejoin="round" d=" M 207.123, 136.091 208.952, 135.016 209.818, 131.309 209.661, 124.388 205.832, 118.895 200.055, 111.797 192.426, 105.332 191.356, 104.425 190.505, 103.704 186.605, 101.403 185.074, 100.501 176.318, 96.554 171.933, 94.578 " />
            <path fill="none" stroke-width="3.0" stroke-linecap="butt" stroke-opacity="1.0" stroke="rgb(0, 0, 0)" stroke-linejoin="round" d=" M 199.348, 120.901 207.201, 127.092 208.732, 128.299 208.952, 135.016 " />
            <path fill="none" stroke-width="3.0" stroke-linecap="butt" stroke-opacity="1.0" stroke="rgb(0, 0, 0)" stroke-linejoin="round" d=" M 44.478, 91.155 43.560, 91.847 38.096, 95.908 32.033, 102.022 31.596, 105.676 " />
            <path fill="none" stroke-width="3.0" stroke-linecap="butt" stroke-opacity="1.0" stroke="rgb(0, 0, 0)" stroke-linejoin="round" d=" M 209.661, 124.388 201.922, 118.055 199.394, 115.987 " />
            <path fill="none" stroke-width="3.0" stroke-linecap="butt" stroke-opacity="1.0" stroke="rgb(0, 0, 0)" stroke-linejoin="round" d=" M 60.073, 80.506 59.118, 81.978 " />
            <path fill="none" stroke-width="3.0" stroke-linecap="butt" stroke-opacity="1.0" stroke="rgb(0, 0, 0)" stroke-linejoin="round" d=" M 107.263, 76.046 107.465, 75.367 108.726, 71.130 " />
            <path fill="none" stroke-width="3.0" stroke-linecap="butt" stroke-opacity="1.0" stroke="rgb(0, 0, 0)" stroke-linejoin="round" d=" M 108.673, 71.131 108.726, 71.130 110.894, 71.073 " />
            <path fill="none" stroke-width="3.0" stroke-linecap="butt" stroke-opacity="1.0" stroke="rgb(0, 0, 0)" stroke-linejoin="round" d=" M 197.010, 123.400 201.620, 126.915 " />
        </g>
    </g>
</svg>
