<?xml version='1.0' encoding='ascii'?>
<svg xmlns="http://www.w3.org/2000/svg" version="1.1" width="250" height="250">
    <g id="ViewLayer_LineSet" xmlns:inkscape="http://www.inkscape.org/namespaces/inkscape" inkscape:groupmode="lineset" inkscape:label="ViewLayer_LineSet">
        <g xmlns:inkscape="http://www.inkscape.org/namespaces/inkscape" inkscape:groupmode="layer" id="strokes" inkscape:label="strokes">
            <path fill="none" stroke-width="3.0" stroke-linecap="butt" stroke-opacity="1.0" stroke="rgb(0, 0, 0)" stroke-linejoin="round" d=" M 126.584, 213.879 127.479, 213.836 131.064, 213.665 135.256, 213.175 138.979, 212.434 144.306, 211.245 146.239, 210.814 150.794, 209.402 159.880, 205.225 161.268, 204.587 167.472, 200.773 169.083, 199.578 173.195, 196.128 177.182, 192.726 181.132, 188.308 184.173, 184.811 187.322, 180.069 188.561, 178.124 190.080, 175.740 192.702, 170.465 195.030, 164.546 196.761, 158.798 198.206, 152.378 198.972, 146.539 199.112, 144.278 199.234, 139.564 198.775, 133.164 " />
            <path fill="none" stroke-width="3.0" stroke-linecap="butt" stroke-opacity="1.0" stroke="rgb(0, 0, 0)" stroke-linejoin="round" d=" M 52.057, 139.149 52.028, 139.533 52.099, 141.602 52.498, 146.201 52.547, 146.759 53.121, 153.370 55.583, 163.062 55.994, 164.682 60.004, 173.844 60.611, 175.232 61.612, 176.767 " />
            <path fill="none" stroke-width="3.0" stroke-linecap="butt" stroke-opacity="1.0" stroke="rgb(0, 0, 0)" stroke-linejoin="round" d=" M 191.675, 148.767 192.279, 149.650 193.190, 150.267 193.944, 150.205 194.624, 149.676 " />
            <path fill="none" stroke-width="3.0" stroke-linecap="butt" stroke-opacity="1.0" stroke="rgb(0, 0, 0)" stroke-linejoin="round" d=" M 191.815, 149.145 191.675, 148.767 191.202, 147.491 190.866, 146.331 190.755, 145.665 190.879, 145.222 191.044, 144.813 " />
            <path fill="none" stroke-width="3.0" stroke-linecap="butt" stroke-opacity="1.0" stroke="rgb(0, 0, 0)" stroke-linejoin="round" d=" M 194.624, 149.676 195.184, 149.087 195.805, 147.973 196.035, 147.498 196.538, 146.182 196.877, 144.592 197.022, 143.442 197.125, 142.487 197.346, 141.683 " />
            <path fill="none" stroke-width="3.0" stroke-linecap="butt" stroke-opacity="1.0" stroke="rgb(0, 0, 0)" stroke-linejoin="round" d=" M 190.784, 97.487 191.507, 99.064 192.263, 100.794 192.264, 100.797 192.435, 101.190 192.749, 101.909 193.507, 103.719 193.759, 104.322 194.093, 105.119 194.039, 105.179 196.741, 112.260 198.188, 115.823 199.293, 119.497 200.127, 122.974 200.693, 126.097 201.017, 128.716 201.139, 130.697 201.098, 131.933 200.931, 132.351 200.656, 131.917 200.273, 130.637 199.767, 128.564 199.110, 125.794 198.273, 122.461 197.233, 118.730 195.992, 114.787 194.592, 110.884 193.201, 107.165 192.379, 104.948 192.124, 104.262 191.897, 103.649 191.491, 102.541 191.383, 102.244 191.378, 102.230 190.735, 100.474 189.765, 97.760 189.727, 97.649 " />
            <path fill="none" stroke-width="3.0" stroke-linecap="butt" stroke-opacity="1.0" stroke="rgb(0, 0, 0)" stroke-linejoin="round" d=" M 189.596, 115.969 190.877, 120.031 191.747, 123.960 192.122, 126.950 192.202, 127.581 192.265, 130.725 191.976, 133.243 191.384, 135.012 190.539, 135.944 189.554, 136.264 189.537, 136.249 188.242, 135.127 187.033, 133.637 186.841, 133.402 185.293, 130.887 183.610, 127.702 181.816, 124.004 179.950, 119.975 178.090, 115.876 176.584, 112.275 176.495, 112.064 176.411, 111.862 176.181, 111.235 175.925, 110.534 175.406, 109.116 174.982, 107.956 174.841, 107.495 174.227, 105.495 174.078, 105.010 173.864, 104.312 173.165, 101.336 " />
            <path fill="none" stroke-width="3.0" stroke-linecap="butt" stroke-opacity="1.0" stroke="rgb(0, 0, 0)" stroke-linejoin="round" d=" M 185.401, 137.790 190.539, 135.944 189.537, 136.249 " />
            <path fill="none" stroke-width="3.0" stroke-linecap="butt" stroke-opacity="1.0" stroke="rgb(0, 0, 0)" stroke-linejoin="round" d=" M 180.842, 99.563 182.207, 101.449 184.100, 104.597 184.173, 104.718 185.408, 106.900 185.765, 107.529 185.769, 107.537 186.157, 108.221 " />
            <path fill="none" stroke-width="3.0" stroke-linecap="butt" stroke-opacity="1.0" stroke="rgb(0, 0, 0)" stroke-linejoin="round" d=" M 188.939, 116.226 189.596, 115.969 187.975, 112.017 186.489, 108.915 186.157, 108.221 186.037, 108.270 181.138, 110.254 " />
            <path fill="none" stroke-width="3.0" stroke-linecap="butt" stroke-opacity="1.0" stroke="rgb(0, 0, 0)" stroke-linejoin="round" d=" M 159.295, 215.274 165.750, 216.978 175.469, 219.332 178.388, 220.040 188.207, 221.935 190.852, 222.446 192.786, 222.610 198.949, 221.651 203.676, 220.816 209.893, 219.071 213.512, 217.250 215.293, 215.646 218.547, 212.394 220.281, 206.350 219.962, 202.211 218.084, 198.082 217.110, 196.569 214.675, 192.607 209.671, 188.596 207.852, 187.579 203.896, 185.511 197.763, 182.889 191.719, 179.464 188.561, 178.124 " />
            <path fill="none" stroke-width="3.0" stroke-linecap="butt" stroke-opacity="1.0" stroke="rgb(0, 0, 0)" stroke-linejoin="round" d=" M 144.306, 211.245 151.906, 213.448 159.295, 215.274 163.796, 216.386 " />
            <path fill="none" stroke-width="3.0" stroke-linecap="butt" stroke-opacity="1.0" stroke="rgb(0, 0, 0)" stroke-linejoin="round" d=" M 61.612, 176.767 60.776, 177.193 55.389, 180.251 51.916, 182.975 48.937, 186.341 47.305, 189.952 45.668, 194.004 45.268, 197.477 46.132, 202.758 46.679, 205.908 48.917, 209.749 52.226, 215.208 58.259, 222.007 65.871, 228.493 68.160, 230.443 76.154, 236.450 79.420, 238.904 88.185, 243.718 92.041, 245.836 93.575, 246.326 100.085, 248.381 107.573, 249.566 113.683, 249.720 119.256, 248.796 123.380, 247.855 126.803, 246.282 129.854, 243.047 131.733, 240.929 133.205, 237.116 133.299, 234.067 133.764, 229.815 133.133, 225.131 131.670, 221.782 129.431, 216.714 127.479, 213.836 " />
            <path fill="none" stroke-width="3.0" stroke-linecap="butt" stroke-opacity="1.0" stroke="rgb(0, 0, 0)" stroke-linejoin="round" d=" M 78.482, 130.040 74.536, 133.727 72.150, 136.426 69.529, 140.675 68.721, 142.702 68.427, 143.440 67.659, 145.366 66.329, 149.779 64.945, 154.968 63.902, 160.679 63.572, 166.925 64.103, 171.859 64.693, 175.447 64.824, 176.245 66.134, 179.986 68.027, 183.472 70.098, 186.876 72.062, 189.090 74.292, 191.137 76.030, 192.428 77.077, 193.142 79.021, 194.193 82.660, 195.586 86.796, 196.290 87.988, 196.439 93.051, 196.293 97.293, 195.193 99.731, 194.356 102.313, 193.020 105.254, 191.042 106.542, 189.932 107.206, 189.359 110.154, 186.490 112.912, 182.924 114.842, 179.574 117.887, 173.907 " />
            <path fill="none" stroke-width="3.0" stroke-linecap="butt" stroke-opacity="1.0" stroke="rgb(0, 0, 0)" stroke-linejoin="round" d=" M 183.175, 68.413 184.290, 70.339 184.495, 70.695 185.974, 73.250 190.055, 78.244 192.051, 79.107 192.544, 79.290 193.752, 79.737 194.317, 79.947 197.676, 81.191 202.903, 80.846 204.253, 80.461 206.792, 79.737 208.139, 78.871 210.272, 77.187 211.250, 75.048 211.775, 73.043 " />
            <path fill="none" stroke-width="3.0" stroke-linecap="butt" stroke-opacity="1.0" stroke="rgb(0, 0, 0)" stroke-linejoin="round" d=" M 206.152, 77.228 204.555, 78.522 201.035, 79.552 200.651, 79.664 195.635, 80.027 " />
            <path fill="none" stroke-width="3.0" stroke-linecap="butt" stroke-opacity="1.0" stroke="rgb(0, 0, 0)" stroke-linejoin="round" d=" M 181.610, 64.745 181.732, 65.030 181.954, 65.550 182.278, 66.310 182.346, 66.468 182.763, 67.447 182.820, 67.580 183.175, 68.413 182.864, 67.544 182.822, 67.428 182.448, 66.387 182.403, 66.261 182.128, 65.494 181.933, 64.950 181.891, 64.834 181.766, 64.484 181.111, 62.659 180.596, 61.224 180.202, 60.192 179.681, 58.825 178.810, 56.544 178.584, 55.959 178.418, 55.527 176.859, 51.488 176.858, 51.485 176.763, 51.215 176.577, 50.687 176.453, 50.337 176.044, 49.178 175.654, 48.071 175.218, 46.838 175.015, 46.262 175.003, 45.917 174.726, 38.076 175.644, 36.412 176.974, 34.254 178.365, 31.996 182.642, 28.676 184.096, 27.855 186.437, 26.569 188.210, 25.673 190.460, 25.279 191.831, 25.214 " />
            <path fill="none" stroke-width="3.0" stroke-linecap="butt" stroke-opacity="1.0" stroke="rgb(0, 0, 0)" stroke-linejoin="round" d=" M 175.019, 72.281 173.526, 69.964 " />
            <path fill="none" stroke-width="3.0" stroke-linecap="butt" stroke-opacity="1.0" stroke="rgb(0, 0, 0)" stroke-linejoin="round" d=" M 182.820, 67.580 179.448, 70.322 179.014, 70.674 178.172, 71.359 176.849, 72.435 175.019, 72.281 176.161, 71.374 176.283, 71.278 178.407, 69.592 178.769, 69.306 179.926, 68.387 182.346, 66.468 " />
            <path fill="none" stroke-width="3.0" stroke-linecap="butt" stroke-opacity="1.0" stroke="rgb(0, 0, 0)" stroke-linejoin="round" d=" M 193.759, 104.322 202.814, 100.078 203.357, 99.824 210.172, 94.519 208.367, 90.950 203.463, 86.915 197.896, 83.809 " />
            <path fill="none" stroke-width="3.0" stroke-linecap="butt" stroke-opacity="1.0" stroke="rgb(0, 0, 0)" stroke-linejoin="round" d=" M 41.784, 144.871 42.288, 143.811 " />
            <path fill="none" stroke-width="3.0" stroke-linecap="butt" stroke-opacity="1.0" stroke="rgb(0, 0, 0)" stroke-linejoin="round" d=" M 97.741, 122.700 93.200, 124.243 83.732, 127.460 81.286, 128.292 71.818, 131.509 70.496, 131.958 61.179, 135.591 52.057, 139.149 49.564, 140.121 42.288, 143.811 42.160, 143.876 38.746, 145.607 37.701, 148.181 " />
            <path fill="none" stroke-width="3.0" stroke-linecap="butt" stroke-opacity="1.0" stroke="rgb(0, 0, 0)" stroke-linejoin="round" d=" M 61.400, 112.610 60.195, 113.258 56.137, 115.438 56.014, 115.504 48.137, 120.327 47.630, 120.637 46.602, 121.267 41.455, 126.384 36.961, 134.965 34.550, 141.262 34.289, 144.135 34.967, 147.960 37.701, 148.181 44.776, 148.097 52.547, 146.759 " />
            <path fill="none" stroke-width="3.0" stroke-linecap="butt" stroke-opacity="1.0" stroke="rgb(0, 0, 0)" stroke-linejoin="round" d=" M 120.494, 115.691 130.058, 112.771 132.567, 112.005 142.216, 109.376 151.864, 106.747 161.512, 104.117 163.663, 103.531 167.959, 102.539 173.165, 101.336 175.259, 100.853 180.154, 99.722 180.686, 99.599 180.842, 99.563 182.812, 99.108 183.850, 98.869 186.200, 98.326 187.933, 97.926 189.727, 97.649 190.784, 97.487 194.743, 96.878 195.049, 96.831 201.015, 95.912 201.595, 95.823 202.581, 95.671 " />
            <path fill="none" stroke-width="3.0" stroke-linecap="butt" stroke-opacity="1.0" stroke="rgb(0, 0, 0)" stroke-linejoin="round" d=" M 180.200, 71.446 183.007, 71.567 184.290, 70.339 " />
            <path fill="none" stroke-width="3.0" stroke-linecap="butt" stroke-opacity="1.0" stroke="rgb(0, 0, 0)" stroke-linejoin="round" d=" M 183.007, 71.567 184.282, 70.899 184.495, 70.695 " />
            <path fill="none" stroke-width="3.0" stroke-linecap="butt" stroke-opacity="1.0" stroke="rgb(0, 0, 0)" stroke-linejoin="round" d=" M 180.202, 60.192 181.610, 64.745 177.322, 66.271 " />
            <path fill="none" stroke-width="3.0" stroke-linecap="butt" stroke-opacity="1.0" stroke="rgb(0, 0, 0)" stroke-linejoin="round" d=" M 172.963, 75.380 169.943, 76.078 166.839, 76.795 164.297, 77.360 158.870, 78.565 158.849, 78.572 149.934, 81.885 148.267, 82.537 140.307, 85.655 139.111, 86.229 130.525, 90.344 122.196, 95.615 115.925, 100.574 108.171, 106.574 102.749, 112.686 101.917, 113.625 101.427, 114.283 101.260, 114.507 101.200, 114.587 100.007, 116.188 99.474, 116.903 98.061, 118.799 97.880, 121.004 97.741, 122.700 97.730, 122.830 97.661, 123.912 97.628, 124.432 98.898, 124.056 108.487, 121.219 118.077, 118.382 118.693, 118.200 120.494, 115.691 " />
            <path fill="none" stroke-width="3.0" stroke-linecap="butt" stroke-opacity="1.0" stroke="rgb(0, 0, 0)" stroke-linejoin="round" d=" M 118.693, 118.200 118.442, 116.497 118.529, 116.290 119.615, 113.706 121.166, 111.855 122.364, 110.425 128.142, 106.240 134.944, 102.329 142.666, 98.033 151.508, 93.361 152.113, 93.042 161.091, 88.638 162.026, 88.180 171.293, 84.421 171.572, 84.308 173.078, 83.735 174.851, 83.062 176.186, 82.554 178.081, 81.834 179.664, 81.232 180.963, 80.738 183.902, 80.291 185.912, 79.986 186.860, 79.842 188.775, 79.551 191.607, 79.427 193.752, 79.737 " />
            <path fill="none" stroke-width="3.0" stroke-linecap="butt" stroke-opacity="1.0" stroke="rgb(0, 0, 0)" stroke-linejoin="round" d=" M 197.896, 83.809 196.790, 81.263 194.317, 79.947 " />
            <path fill="none" stroke-width="3.0" stroke-linecap="butt" stroke-opacity="1.0" stroke="rgb(0, 0, 0)" stroke-linejoin="round" d=" M 181.926, 75.862 178.566, 75.292 178.536, 75.286 173.879, 75.365 " />
            <path fill="none" stroke-width="3.0" stroke-linecap="butt" stroke-opacity="1.0" stroke="rgb(0, 0, 0)" stroke-linejoin="round" d=" M 165.930, 70.367 170.651, 70.567 172.812, 70.659 173.526, 69.964 173.747, 69.749 174.309, 69.203 174.583, 68.936 175.355, 68.185 175.355, 68.185 175.358, 68.182 176.009, 67.548 176.129, 67.431 176.425, 67.144 176.969, 66.615 177.322, 66.271 177.977, 65.634 179.315, 64.332 179.442, 62.424 179.681, 58.825 " />
            <path fill="none" stroke-width="3.0" stroke-linecap="butt" stroke-opacity="1.0" stroke="rgb(0, 0, 0)" stroke-linejoin="round" d=" M 176.763, 51.215 176.385, 50.767 176.161, 50.501 175.300, 49.481 174.535, 48.574 174.258, 48.245 173.554, 48.235 171.304, 48.204 165.763, 48.127 164.214, 48.609 159.007, 53.914 158.357, 54.577 157.847, 63.091 160.518, 66.352 " />
            <path fill="none" stroke-width="3.0" stroke-linecap="butt" stroke-opacity="1.0" stroke="rgb(0, 0, 0)" stroke-linejoin="round" d=" M 219.017, 75.906 218.788, 72.953 218.609, 70.658 217.345, 64.300 215.676, 57.436 213.710, 49.767 211.938, 41.270 211.806, 40.727 209.770, 37.760 208.650, 36.129 207.936, 35.106 207.436, 34.318 204.983, 30.459 200.725, 23.945 196.953, 18.172 196.184, 17.284 193.660, 14.370 " />
            <path fill="none" stroke-width="3.0" stroke-linecap="butt" stroke-opacity="1.0" stroke="rgb(0, 0, 0)" stroke-linejoin="round" d=" M 204.253, 80.461 208.084, 81.543 213.508, 81.243 217.264, 80.222 218.508, 79.275 219.686, 78.090 218.966, 73.583 218.788, 72.953 " />
            <path fill="none" stroke-width="3.0" stroke-linecap="butt" stroke-opacity="1.0" stroke="rgb(0, 0, 0)" stroke-linejoin="round" d=" M 211.775, 73.043 213.623, 75.243 215.930, 77.560 218.480, 79.004 219.686, 78.090 " />
            <path fill="none" stroke-width="3.0" stroke-linecap="butt" stroke-opacity="1.0" stroke="rgb(0, 0, 0)" stroke-linejoin="round" d=" M 210.272, 77.187 208.323, 78.434 206.152, 77.228 205.377, 75.654 203.614, 72.075 200.787, 64.234 199.022, 58.180 197.844, 53.676 " />
            <path fill="none" stroke-width="3.0" stroke-linecap="butt" stroke-opacity="1.0" stroke="rgb(0, 0, 0)" stroke-linejoin="round" d=" M 190.460, 25.279 190.146, 25.382 189.613, 25.559 188.768, 25.839 188.613, 26.082 187.234, 28.244 187.112, 32.011 189.234, 37.944 192.084, 43.981 195.355, 49.705 197.844, 53.676 196.017, 54.481 191.607, 56.258 " />
            <path fill="none" stroke-width="3.0" stroke-linecap="butt" stroke-opacity="1.0" stroke="rgb(0, 0, 0)" stroke-linejoin="round" d=" M 209.770, 37.760 208.790, 36.011 207.436, 34.318 " />
            <path fill="none" stroke-width="3.0" stroke-linecap="butt" stroke-opacity="1.0" stroke="rgb(0, 0, 0)" stroke-linejoin="round" d=" M 196.184, 17.284 194.445, 14.222 191.986, 11.138 190.940, 12.580 190.800, 17.107 191.289, 21.612 191.831, 25.214 " />
            <path fill="none" stroke-width="3.0" stroke-linecap="butt" stroke-opacity="1.0" stroke="rgb(0, 0, 0)" stroke-linejoin="round" d=" M 191.986, 11.138 190.200, 11.006 186.749, 13.075 183.111, 16.835 181.769, 18.776 178.091, 26.829 177.348, 31.519 176.974, 34.254 " />
            <path fill="none" stroke-width="3.0" stroke-linecap="butt" stroke-opacity="1.0" stroke="rgb(0, 0, 0)" stroke-linejoin="round" d=" M 159.007, 53.914 156.478, 51.889 147.638, 47.214 145.042, 45.840 140.692, 43.736 131.141, 40.775 128.447, 39.940 118.476, 39.174 116.645, 39.033 112.443, 38.760 106.837, 39.335 106.398, 39.430 100.415, 40.716 93.894, 42.757 89.538, 44.586 88.010, 45.228 83.405, 47.846 75.484, 53.950 75.289, 54.100 70.904, 57.909 64.552, 65.633 62.536, 68.085 57.707, 76.842 56.435, 79.149 55.101, 83.345 52.078, 92.877 50.971, 96.370 50.745, 97.389 " />
            <path fill="none" stroke-width="3.0" stroke-linecap="butt" stroke-opacity="1.0" stroke="rgb(0, 0, 0)" stroke-linejoin="round" d=" M 185.049, 32.332 181.360, 34.249 177.646, 37.142 " />
            <path fill="none" stroke-width="3.0" stroke-linecap="butt" stroke-opacity="1.0" stroke="rgb(0, 0, 0)" stroke-linejoin="round" d=" M 48.137, 120.327 48.977, 118.186 57.148, 113.007 57.998, 112.468 63.369, 110.060 72.494, 105.969 74.592, 105.029 83.985, 101.596 93.377, 98.164 97.160, 96.781 106.718, 93.840 116.276, 90.899 122.561, 88.965 132.254, 86.506 141.947, 84.046 146.843, 82.804 148.267, 82.537 " />
            <path fill="none" stroke-width="3.0" stroke-linecap="butt" stroke-opacity="1.0" stroke="rgb(0, 0, 0)" stroke-linejoin="round" d=" M 161.139, 66.337 160.518, 66.352 160.040, 66.364 160.028, 66.365 150.112, 67.652 143.302, 68.536 140.077, 68.955 " />
            <path fill="none" stroke-width="3.0" stroke-linecap="butt" stroke-opacity="1.0" stroke="rgb(0, 0, 0)" stroke-linejoin="round" d=" M 61.400, 112.610 70.539, 108.549 77.180, 105.598 86.577, 102.178 95.974, 98.758 98.494, 97.841 108.052, 94.901 117.610, 91.961 122.422, 90.481 132.112, 88.012 139.111, 86.229 " />
            <path fill="none" stroke-width="3.0" stroke-linecap="butt" stroke-opacity="1.0" stroke="rgb(0, 0, 0)" stroke-linejoin="round" d=" M 51.675, 96.271 50.745, 97.389 50.433, 97.763 48.400, 101.726 47.993, 111.718 47.630, 120.637 " />
            <path fill="none" stroke-width="3.0" stroke-linecap="butt" stroke-opacity="1.0" stroke="rgb(0, 0, 0)" stroke-linejoin="round" d=" M 160.040, 66.364 156.612, 66.108 " />
            <path fill="none" stroke-width="3.0" stroke-linecap="butt" stroke-opacity="1.0" stroke="rgb(0, 0, 0)" stroke-linejoin="round" d=" M 106.398, 39.430 105.905, 39.002 102.983, 37.249 99.771, 37.332 95.664, 38.413 92.297, 40.064 90.984, 41.628 89.538, 44.586 " />
            <path fill="none" stroke-width="3.0" stroke-linecap="butt" stroke-opacity="1.0" stroke="rgb(0, 0, 0)" stroke-linejoin="round" d=" M 96.958, 116.179 87.509, 119.452 78.060, 122.726 68.611, 126.000 66.891, 126.596 57.625, 130.356 52.555, 132.414 45.445, 135.300 " />
            <path fill="none" stroke-width="3.0" stroke-linecap="butt" stroke-opacity="1.0" stroke="rgb(0, 0, 0)" stroke-linejoin="round" d=" M 34.967, 147.960 35.849, 145.274 43.039, 141.548 46.901, 139.547 52.181, 137.467 61.485, 133.802 68.567, 131.012 78.031, 127.781 87.494, 124.550 96.958, 121.319 97.880, 121.004 " />
            <path fill="none" stroke-width="3.0" stroke-linecap="butt" stroke-opacity="1.0" stroke="rgb(0, 0, 0)" stroke-linejoin="round" d=" M 121.353, 113.800 122.110, 113.568 131.674, 110.648 133.262, 110.163 142.913, 107.542 152.563, 104.921 162.214, 102.300 164.941, 101.560 167.746, 100.910 172.916, 99.711 174.036, 99.452 179.722, 98.134 181.131, 97.807 182.325, 97.530 183.084, 97.354 185.163, 96.873 189.146, 95.949 189.966, 95.759 190.176, 95.711 195.900, 94.869 199.535, 94.335 205.485, 93.460 210.172, 94.519 " />
            <path fill="none" stroke-width="3.0" stroke-linecap="butt" stroke-opacity="1.0" stroke="rgb(0, 0, 0)" stroke-linejoin="round" d=" M 175.003, 45.917 173.174, 46.502 171.304, 48.204 " />
            <path fill="none" stroke-width="3.0" stroke-linecap="butt" stroke-opacity="1.0" stroke="rgb(0, 0, 0)" stroke-linejoin="round" d=" M 175.654, 48.071 174.535, 48.574 " />
            <path fill="none" stroke-width="3.0" stroke-linecap="butt" stroke-opacity="1.0" stroke="rgb(0, 0, 0)" stroke-linejoin="round" d=" M 170.651, 70.567 173.879, 75.365 " />
            <path fill="none" stroke-width="3.0" stroke-linecap="butt" stroke-opacity="1.0" stroke="rgb(0, 0, 0)" stroke-linejoin="round" d=" M 176.129, 67.431 177.269, 67.063 181.954, 65.550 " />
            <path fill="none" stroke-width="3.0" stroke-linecap="butt" stroke-opacity="1.0" stroke="rgb(0, 0, 0)" stroke-linejoin="round" d=" M 183.407, 76.242 180.200, 71.446 179.448, 70.322 " />
            <path fill="none" stroke-width="3.0" stroke-linecap="butt" stroke-opacity="1.0" stroke="rgb(0, 0, 0)" stroke-linejoin="round" d=" M 185.749, 137.411 189.554, 136.264 " />
            <path fill="none" stroke-width="3.0" stroke-linecap="butt" stroke-opacity="1.0" stroke="rgb(0, 0, 0)" stroke-linejoin="round" d=" M 192.544, 79.290 183.407, 76.242 " />
            <path fill="none" stroke-width="3.0" stroke-linecap="butt" stroke-opacity="1.0" stroke="rgb(0, 0, 0)" stroke-linejoin="round" d=" M 198.775, 133.164 200.931, 132.351 " />
            <path fill="none" stroke-width="3.0" stroke-linecap="butt" stroke-opacity="1.0" stroke="rgb(0, 0, 0)" stroke-linejoin="round" d=" M 201.015, 95.912 201.936, 96.070 " />
        </g>
    </g>
</svg>
