<?xml version='1.0' encoding='ascii'?>
<svg xmlns="http://www.w3.org/2000/svg" version="1.1" width="250" height="250">
    <g id="ViewLayer_LineSet" xmlns:inkscape="http://www.inkscape.org/namespaces/inkscape" inkscape:groupmode="lineset" inkscape:label="ViewLayer_LineSet">
        <g xmlns:inkscape="http://www.inkscape.org/namespaces/inkscape" inkscape:groupmode="layer" id="strokes" inkscape:label="strokes">
            <path fill="none" stroke-width="3.0" stroke-linecap="butt" stroke-opacity="1.0" stroke="rgb(0, 0, 0)" stroke-linejoin="round" d=" M 139.511, 207.543 143.673, 206.486 147.492, 204.994 156.207, 200.797 159.483, 198.689 167.548, 192.776 167.654, 192.699 168.049, 192.409 174.984, 185.204 175.560, 184.606 181.180, 176.335 181.778, 175.455 183.587, 172.739 187.790, 163.665 188.283, 162.602 188.885, 160.437 " />
            <path fill="none" stroke-width="3.0" stroke-linecap="butt" stroke-opacity="1.0" stroke="rgb(0, 0, 0)" stroke-linejoin="round" d=" M 70.728, 190.317 72.246, 191.828 74.207, 193.421 " />
            <path fill="none" stroke-width="3.0" stroke-linecap="butt" stroke-opacity="1.0" stroke="rgb(0, 0, 0)" stroke-linejoin="round" d=" M 52.292, 115.145 51.218, 118.355 49.881, 124.195 49.419, 126.215 48.538, 133.667 48.439, 140.849 49.060, 148.024 50.399, 155.117 50.452, 155.336 51.462, 158.742 " />
            <path fill="none" stroke-width="3.0" stroke-linecap="butt" stroke-opacity="1.0" stroke="rgb(0, 0, 0)" stroke-linejoin="round" d=" M 50.720, 114.168 50.403, 115.401 49.879, 118.428 49.658, 121.059 49.702, 123.165 49.881, 124.195 " />
            <path fill="none" stroke-width="3.0" stroke-linecap="butt" stroke-opacity="1.0" stroke="rgb(0, 0, 0)" stroke-linejoin="round" d=" M 64.148, 196.921 58.918, 200.896 57.490, 202.254 54.768, 206.178 53.183, 210.295 53.116, 214.593 53.656, 216.847 54.774, 220.949 56.408, 222.944 59.623, 226.790 62.892, 228.887 70.380, 232.302 80.370, 231.848 81.425, 231.800 84.475, 231.416 93.979, 228.306 95.701, 227.743 105.133, 224.420 108.014, 223.405 111.589, 222.100 117.926, 219.585 121.996, 217.910 129.195, 214.454 132.836, 212.395 134.624, 211.188 135.509, 210.590 139.511, 207.543 140.511, 206.781 141.901, 205.669 143.180, 203.930 " />
            <path fill="none" stroke-width="3.0" stroke-linecap="butt" stroke-opacity="1.0" stroke="rgb(0, 0, 0)" stroke-linejoin="round" d=" M 77.070, 193.025 75.760, 194.683 74.355, 196.463 72.248, 201.184 71.461, 203.694 " />
            <path fill="none" stroke-width="3.0" stroke-linecap="butt" stroke-opacity="1.0" stroke="rgb(0, 0, 0)" stroke-linejoin="round" d=" M 72.608, 193.764 65.989, 196.085 64.148, 196.921 70.943, 194.372 72.608, 193.764 74.207, 193.421 " />
            <path fill="none" stroke-width="3.0" stroke-linecap="butt" stroke-opacity="1.0" stroke="rgb(0, 0, 0)" stroke-linejoin="round" d=" M 134.624, 211.188 140.936, 211.027 147.323, 210.327 150.925, 209.573 155.873, 207.956 158.582, 206.626 160.611, 205.175 162.864, 203.517 164.804, 201.775 165.442, 200.682 167.326, 197.027 167.687, 193.061 167.654, 192.699 " />
            <path fill="none" stroke-width="3.0" stroke-linecap="butt" stroke-opacity="1.0" stroke="rgb(0, 0, 0)" stroke-linejoin="round" d=" M 70.013, 128.122 67.673, 130.060 64.106, 133.559 " />
            <path fill="none" stroke-width="3.0" stroke-linecap="butt" stroke-opacity="1.0" stroke="rgb(0, 0, 0)" stroke-linejoin="round" d=" M 74.098, 125.846 70.013, 128.122 66.430, 131.346 64.106, 133.559 61.013, 137.656 58.104, 142.212 55.284, 147.358 53.512, 152.150 53.104, 153.253 " />
            <path fill="none" stroke-width="3.0" stroke-linecap="butt" stroke-opacity="1.0" stroke="rgb(0, 0, 0)" stroke-linejoin="round" d=" M 53.512, 152.150 52.075, 155.959 51.462, 158.742 51.081, 160.470 50.747, 164.612 51.159, 168.463 51.592, 172.211 52.670, 175.265 54.176, 178.866 55.684, 181.026 57.703, 183.517 61.359, 186.568 65.709, 188.978 69.177, 189.981 70.728, 190.317 71.551, 190.495 75.426, 190.678 78.505, 190.542 80.517, 189.979 82.184, 189.512 85.935, 188.297 85.962, 188.289 89.569, 186.383 93.241, 183.716 95.481, 181.872 97.991, 179.485 98.520, 178.982 99.970, 177.603 " />
            <path fill="none" stroke-width="3.0" stroke-linecap="butt" stroke-opacity="1.0" stroke="rgb(0, 0, 0)" stroke-linejoin="round" d=" M 69.555, 50.697 70.620, 51.025 " />
            <path fill="none" stroke-width="3.0" stroke-linecap="butt" stroke-opacity="1.0" stroke="rgb(0, 0, 0)" stroke-linejoin="round" d=" M 78.573, 44.565 77.052, 42.496 76.988, 42.143 76.390, 38.815 75.474, 34.084 72.592, 27.342 70.845, 24.299 68.017, 21.445 65.342, 20.051 63.950, 20.356 61.068, 21.714 57.263, 25.764 54.538, 29.725 52.622, 32.862 50.347, 32.979 47.184, 33.540 42.886, 35.690 39.844, 38.940 38.759, 43.935 38.752, 48.963 39.640, 53.692 40.601, 56.957 39.102, 60.671 37.387, 65.623 36.023, 71.979 36.188, 76.126 36.920, 77.177 39.452, 78.166 42.327, 79.111 46.711, 79.467 49.976, 78.662 53.058, 77.824 53.195, 77.784 53.988, 77.552 56.927, 76.690 57.197, 76.611 61.106, 72.883 " />
            <path fill="none" stroke-width="3.0" stroke-linecap="butt" stroke-opacity="1.0" stroke="rgb(0, 0, 0)" stroke-linejoin="round" d=" M 84.388, 56.722 83.738, 56.764 82.292, 56.858 81.419, 57.448 80.904, 57.797 80.851, 57.833 79.492, 58.750 79.418, 58.825 " />
            <path fill="none" stroke-width="3.0" stroke-linecap="butt" stroke-opacity="1.0" stroke="rgb(0, 0, 0)" stroke-linejoin="round" d=" M 48.294, 83.832 47.228, 84.409 42.697, 88.098 38.777, 93.047 37.726, 96.725 42.823, 105.259 45.115, 107.008 45.279, 107.132 " />
            <path fill="none" stroke-width="3.0" stroke-linecap="butt" stroke-opacity="1.0" stroke="rgb(0, 0, 0)" stroke-linejoin="round" d=" M 42.823, 105.259 45.275, 107.117 " />
            <path fill="none" stroke-width="3.0" stroke-linecap="butt" stroke-opacity="1.0" stroke="rgb(0, 0, 0)" stroke-linejoin="round" d=" M 60.128, 118.384 63.211, 120.031 63.707, 120.296 67.114, 122.115 67.334, 122.233 70.762, 124.064 74.098, 125.846 82.918, 130.557 84.328, 131.310 93.576, 135.115 102.824, 138.920 112.072, 142.724 112.909, 143.069 114.675, 143.795 124.217, 146.787 128.785, 148.219 138.327, 151.210 146.205, 153.680 155.994, 155.725 160.726, 156.714 170.514, 158.759 173.666, 159.418 176.590, 159.746 186.574, 160.307 188.885, 160.437 196.796, 160.882 206.396, 158.081 206.905, 157.933 207.770, 154.051 208.693, 148.225 207.556, 142.484 204.307, 134.393 200.125, 129.355 197.391, 126.343 " />
            <path fill="none" stroke-width="3.0" stroke-linecap="butt" stroke-opacity="1.0" stroke="rgb(0, 0, 0)" stroke-linejoin="round" d=" M 79.522, 61.595 79.435, 59.285 79.418, 58.825 79.413, 58.694 79.355, 57.166 79.319, 56.196 78.291, 55.137 77.737, 54.566 76.425, 53.213 76.050, 52.827 75.291, 52.045 75.057, 51.803 74.182, 50.901 74.065, 50.780 72.031, 50.925 70.620, 51.025 70.350, 51.044 69.847, 51.080 69.420, 51.110 67.032, 51.280 65.303, 51.693 60.950, 57.307 61.260, 64.769 61.845, 65.384 66.038, 69.795 67.814, 70.688 69.227, 70.616 " />
            <path fill="none" stroke-width="3.0" stroke-linecap="butt" stroke-opacity="1.0" stroke="rgb(0, 0, 0)" stroke-linejoin="round" d=" M 80.904, 57.797 80.929, 57.381 80.959, 56.904 79.033, 54.231 78.705, 54.103 78.245, 53.923 76.425, 53.213 " />
            <path fill="none" stroke-width="3.0" stroke-linecap="butt" stroke-opacity="1.0" stroke="rgb(0, 0, 0)" stroke-linejoin="round" d=" M 66.619, 75.286 58.250, 77.992 55.747, 78.801 54.314, 79.264 49.665, 82.309 48.294, 83.832 46.643, 85.666 44.969, 89.955 44.787, 90.789 43.989, 94.440 43.661, 98.373 44.185, 102.036 44.942, 105.976 45.275, 107.117 45.279, 107.132 45.838, 109.051 46.685, 111.640 49.327, 113.301 50.720, 114.168 52.292, 115.145 54.433, 116.476 56.208, 117.579 58.661, 119.105 59.725, 119.717 61.592, 120.792 63.211, 120.031 " />
            <path fill="none" stroke-width="3.0" stroke-linecap="butt" stroke-opacity="1.0" stroke="rgb(0, 0, 0)" stroke-linejoin="round" d=" M 58.676, 117.285 58.661, 119.105 57.795, 116.618 57.320, 115.253 57.157, 114.294 56.466, 110.234 56.501, 109.910 56.825, 106.866 57.133, 103.968 57.180, 103.526 57.096, 97.792 57.092, 97.616 56.974, 93.131 56.932, 91.661 56.930, 91.603 56.924, 91.393 56.834, 88.223 57.017, 87.067 57.518, 83.918 58.815, 81.701 59.507, 80.520 60.137, 79.729 60.653, 79.083 61.857, 77.574 64.893, 76.019 66.560, 75.391 " />
            <path fill="none" stroke-width="3.0" stroke-linecap="butt" stroke-opacity="1.0" stroke="rgb(0, 0, 0)" stroke-linejoin="round" d=" M 87.708, 54.279 87.113, 53.670 85.607, 52.668 82.021, 52.913 " />
            <path fill="none" stroke-width="3.0" stroke-linecap="butt" stroke-opacity="1.0" stroke="rgb(0, 0, 0)" stroke-linejoin="round" d=" M 85.607, 52.668 87.412, 54.516 " />
            <path fill="none" stroke-width="3.0" stroke-linecap="butt" stroke-opacity="1.0" stroke="rgb(0, 0, 0)" stroke-linejoin="round" d=" M 53.195, 77.784 53.289, 77.848 55.269, 78.638 55.747, 78.801 " />
            <path fill="none" stroke-width="3.0" stroke-linecap="butt" stroke-opacity="1.0" stroke="rgb(0, 0, 0)" stroke-linejoin="round" d=" M 57.172, 34.407 53.818, 32.879 52.622, 32.862 " />
            <path fill="none" stroke-width="3.0" stroke-linecap="butt" stroke-opacity="1.0" stroke="rgb(0, 0, 0)" stroke-linejoin="round" d=" M 44.895, 58.894 41.488, 57.567 41.005, 57.235 40.936, 57.188 40.601, 56.957 " />
            <path fill="none" stroke-width="3.0" stroke-linecap="butt" stroke-opacity="1.0" stroke="rgb(0, 0, 0)" stroke-linejoin="round" d=" M 142.295, 39.502 132.349, 38.468 130.947, 38.322 121.022, 39.541 117.370, 39.990 107.875, 43.128 103.837, 44.462 95.013, 49.168 92.210, 50.663 87.708, 54.279 87.412, 54.516 85.465, 56.081 85.006, 56.449 84.077, 57.195 84.064, 57.206 83.293, 57.825 81.534, 59.238 81.293, 59.520 80.759, 60.146 79.522, 61.595 78.490, 62.805 78.127, 63.230 78.079, 63.286 77.517, 63.946 75.816, 65.939 75.282, 66.564 74.873, 66.593 73.242, 66.709 73.124, 66.717 72.882, 66.734 72.857, 66.736 71.771, 66.813 71.334, 66.844 71.171, 67.135 70.994, 67.452 70.731, 67.924 70.417, 68.486 69.227, 70.616 66.619, 75.286 66.560, 75.391 65.069, 78.062 " />
            <path fill="none" stroke-width="3.0" stroke-linecap="butt" stroke-opacity="1.0" stroke="rgb(0, 0, 0)" stroke-linejoin="round" d=" M 40.708, 39.091 43.756, 40.419 47.999, 42.540 " />
            <path fill="none" stroke-width="3.0" stroke-linecap="butt" stroke-opacity="1.0" stroke="rgb(0, 0, 0)" stroke-linejoin="round" d=" M 44.290, 78.499 39.849, 78.140 36.920, 77.177 " />
            <path fill="none" stroke-width="3.0" stroke-linecap="butt" stroke-opacity="1.0" stroke="rgb(0, 0, 0)" stroke-linejoin="round" d=" M 79.847, 50.914 80.068, 50.298 79.908, 47.120 78.573, 44.565 77.274, 42.478 76.988, 42.143 " />
            <path fill="none" stroke-width="3.0" stroke-linecap="butt" stroke-opacity="1.0" stroke="rgb(0, 0, 0)" stroke-linejoin="round" d=" M 64.910, 78.349 64.806, 78.538 64.752, 78.635 63.395, 81.093 63.226, 81.400 64.920, 83.286 65.301, 83.710 68.563, 87.339 69.150, 87.709 75.692, 91.833 76.354, 92.251 79.164, 94.022 79.603, 94.299 79.994, 94.546 81.538, 95.519 83.687, 96.557 92.692, 100.907 101.285, 105.057 110.581, 108.744 119.876, 112.432 125.363, 114.608 131.934, 116.749 131.941, 116.751 131.944, 116.752 141.452, 119.850 150.155, 122.686 159.858, 125.105 162.865, 125.855 171.885, 128.103 175.764, 128.641 179.262, 129.127 187.706, 130.298 192.013, 129.824 193.595, 129.650 196.264, 129.357 197.391, 126.343 197.588, 125.818 198.304, 115.843 199.022, 105.849 197.324, 104.209 196.767, 100.693 194.704, 90.908 193.927, 87.224 190.088, 77.991 188.842, 74.995 183.495, 66.545 181.187, 62.897 174.294, 55.652 171.725, 52.952 163.399, 47.414 162.093, 46.546 " />
            <path fill="none" stroke-width="3.0" stroke-linecap="butt" stroke-opacity="1.0" stroke="rgb(0, 0, 0)" stroke-linejoin="round" d=" M 199.022, 105.849 198.083, 108.016 190.115, 107.919 " />
            <path fill="none" stroke-width="3.0" stroke-linecap="butt" stroke-opacity="1.0" stroke="rgb(0, 0, 0)" stroke-linejoin="round" d=" M 71.334, 66.844 71.572, 68.217 71.640, 68.608 71.715, 69.040 " />
            <path fill="none" stroke-width="3.0" stroke-linecap="butt" stroke-opacity="1.0" stroke="rgb(0, 0, 0)" stroke-linejoin="round" d=" M 162.102, 46.632 162.093, 46.546 161.838, 44.079 160.473, 40.242 154.663, 36.295 147.613, 35.631 144.107, 37.720 142.295, 39.502 142.277, 39.521 " />
            <path fill="none" stroke-width="3.0" stroke-linecap="butt" stroke-opacity="1.0" stroke="rgb(0, 0, 0)" stroke-linejoin="round" d=" M 142.277, 39.521 145.876, 40.889 152.045, 43.132 158.295, 45.344 162.102, 46.632 " />
            <path fill="none" stroke-width="3.0" stroke-linecap="butt" stroke-opacity="1.0" stroke="rgb(0, 0, 0)" stroke-linejoin="round" d=" M 58.319, 117.002 60.239, 118.026 63.608, 119.824 63.628, 119.835 67.236, 121.760 67.409, 121.852 71.088, 123.814 74.488, 125.628 83.311, 130.335 83.501, 130.437 92.750, 134.240 101.998, 138.042 111.247, 141.845 112.753, 142.464 115.164, 143.456 124.706, 146.449 128.264, 147.565 137.805, 150.558 147.347, 153.551 148.052, 153.773 157.840, 155.821 161.008, 156.484 170.796, 158.533 176.590, 159.746 " />
            <path fill="none" stroke-width="3.0" stroke-linecap="butt" stroke-opacity="1.0" stroke="rgb(0, 0, 0)" stroke-linejoin="round" d=" M 116.225, 139.137 111.201, 137.082 101.946, 133.296 92.690, 129.510 84.647, 126.219 79.496, 123.508 73.653, 120.433 69.986, 118.503 67.295, 117.086 67.254, 117.065 63.610, 115.147 61.497, 114.035 59.499, 112.983 " />
            <path fill="none" stroke-width="3.0" stroke-linecap="butt" stroke-opacity="1.0" stroke="rgb(0, 0, 0)" stroke-linejoin="round" d=" M 85.465, 56.081 82.021, 52.913 79.847, 50.914 78.632, 49.795 76.426, 49.172 74.436, 48.827 72.509, 50.179 72.031, 50.925 " />
            <path fill="none" stroke-width="3.0" stroke-linecap="butt" stroke-opacity="1.0" stroke="rgb(0, 0, 0)" stroke-linejoin="round" d=" M 74.436, 48.827 76.606, 49.447 79.428, 52.085 80.430, 53.022 81.458, 53.983 84.388, 56.722 " />
            <path fill="none" stroke-width="3.0" stroke-linecap="butt" stroke-opacity="1.0" stroke="rgb(0, 0, 0)" stroke-linejoin="round" d=" M 69.420, 51.110 69.555, 50.697 70.350, 51.044 " />
        </g>
    </g>
</svg>
