<?xml version='1.0' encoding='ascii'?>
<svg xmlns="http://www.w3.org/2000/svg" version="1.1" width="250" height="250">
    <g id="ViewLayer_LineSet" xmlns:inkscape="http://www.inkscape.org/namespaces/inkscape" inkscape:groupmode="lineset" inkscape:label="ViewLayer_LineSet">
        <g xmlns:inkscape="http://www.inkscape.org/namespaces/inkscape" inkscape:groupmode="layer" id="strokes" inkscape:label="strokes">
            <path fill="none" stroke-width="3.0" stroke-linecap="butt" stroke-opacity="1.0" stroke="rgb(0, 0, 0)" stroke-linejoin="round" d=" M 59.754, 98.026 57.593, 100.799 53.159, 108.239 49.952, 115.567 49.523, 116.548 48.950, 118.501 48.889, 118.710 46.919, 125.423 45.663, 133.198 45.320, 136.347 45.056, 142.750 45.527, 149.255 45.754, 151.922 46.401, 155.290 47.330, 159.829 48.028, 162.476 48.955, 165.378 50.067, 168.401 51.313, 171.410 52.637, 174.268 53.978, 176.842 55.276, 179.012 58.076, 183.459 59.861, 185.944 62.212, 188.786 63.775, 190.675 65.870, 192.860 70.793, 197.572 " />
            <path fill="none" stroke-width="3.0" stroke-linecap="butt" stroke-opacity="1.0" stroke="rgb(0, 0, 0)" stroke-linejoin="round" d=" M 167.700, 195.673 174.642, 188.476 174.872, 188.237 " />
            <path fill="none" stroke-width="3.0" stroke-linecap="butt" stroke-opacity="1.0" stroke="rgb(0, 0, 0)" stroke-linejoin="round" d=" M 156.270, 204.447 164.355, 198.561 164.705, 198.306 " />
            <path fill="none" stroke-width="3.0" stroke-linecap="butt" stroke-opacity="1.0" stroke="rgb(0, 0, 0)" stroke-linejoin="round" d=" M 190.859, 131.727 190.857, 131.690 189.155, 123.738 " />
            <path fill="none" stroke-width="3.0" stroke-linecap="butt" stroke-opacity="1.0" stroke="rgb(0, 0, 0)" stroke-linejoin="round" d=" M 106.626, 214.048 110.728, 214.657 112.388, 214.784 115.146, 214.997 119.682, 215.052 123.118, 214.872 124.134, 214.819 128.303, 214.310 " />
            <path fill="none" stroke-width="3.0" stroke-linecap="butt" stroke-opacity="1.0" stroke="rgb(0, 0, 0)" stroke-linejoin="round" d=" M 70.278, 149.348 70.772, 150.739 72.009, 152.805 73.740, 154.476 75.742, 155.728 77.618, 156.202 79.556, 156.167 81.767, 155.388 83.674, 154.105 85.123, 152.299 85.802, 151.005 " />
            <path fill="none" stroke-width="3.0" stroke-linecap="butt" stroke-opacity="1.0" stroke="rgb(0, 0, 0)" stroke-linejoin="round" d=" M 109.680, 101.285 110.068, 102.907 110.335, 106.288 110.182, 110.101 110.205, 110.170 109.165, 116.013 109.148, 116.113 108.714, 118.551 107.300, 122.738 105.662, 126.997 103.820, 130.960 101.837, 134.433 101.295, 135.174 100.982, 135.601 99.776, 137.247 97.700, 139.260 95.673, 140.373 93.850, 140.521 93.761, 140.528 93.474, 140.394 92.031, 139.717 90.555, 137.973 89.399, 135.378 88.800, 132.796 88.676, 132.264 88.627, 132.054 88.289, 128.158 88.414, 123.879 88.460, 123.538 89.011, 119.418 90.037, 115.049 91.296, 111.237 91.355, 111.059 91.399, 110.928 93.058, 107.064 94.952, 103.598 97.006, 100.650 97.859, 99.722 " />
            <path fill="none" stroke-width="3.0" stroke-linecap="butt" stroke-opacity="1.0" stroke="rgb(0, 0, 0)" stroke-linejoin="round" d=" M 92.031, 139.717 93.450, 140.767 " />
            <path fill="none" stroke-width="3.0" stroke-linecap="butt" stroke-opacity="1.0" stroke="rgb(0, 0, 0)" stroke-linejoin="round" d=" M 70.649, 118.196 69.542, 122.425 68.433, 126.303 68.385, 126.470 68.295, 126.747 67.192, 130.133 65.966, 133.230 64.709, 135.605 63.431, 137.140 63.136, 137.283 62.150, 137.762 60.913, 137.741 59.751, 136.212 58.759, 134.129 58.008, 131.306 57.571, 127.886 57.508, 124.040 57.615, 122.791 57.616, 122.776 57.621, 122.719 57.630, 122.621 57.667, 122.176 57.857, 119.953 58.038, 118.970 58.608, 115.878 59.633, 111.950 60.873, 108.175 62.278, 104.685 63.792, 101.600 64.911, 99.758 65.356, 99.026 65.368, 99.011 66.308, 97.815 " />
            <path fill="none" stroke-width="3.0" stroke-linecap="butt" stroke-opacity="1.0" stroke="rgb(0, 0, 0)" stroke-linejoin="round" d=" M 60.913, 137.741 64.607, 139.170 " />
            <path fill="none" stroke-width="3.0" stroke-linecap="butt" stroke-opacity="1.0" stroke="rgb(0, 0, 0)" stroke-linejoin="round" d=" M 72.496, 97.616 72.506, 97.639 72.564, 97.772 72.974, 100.048 73.085, 102.923 73.052, 103.763 73.036, 104.189 72.951, 106.366 72.409, 110.057 " />
            <path fill="none" stroke-width="3.0" stroke-linecap="butt" stroke-opacity="1.0" stroke="rgb(0, 0, 0)" stroke-linejoin="round" d=" M 74.259, 120.169 70.649, 118.196 70.901, 117.152 71.648, 114.052 72.409, 110.057 75.973, 112.116 " />
            <path fill="none" stroke-width="3.0" stroke-linecap="butt" stroke-opacity="1.0" stroke="rgb(0, 0, 0)" stroke-linejoin="round" d=" M 123.118, 214.872 123.239, 216.389 124.328, 221.826 124.774, 224.452 125.989, 226.942 129.065, 231.128 131.290, 232.906 135.484, 235.792 140.669, 237.485 145.465, 238.156 150.929, 237.813 158.061, 236.315 164.155, 234.112 170.316, 230.911 174.155, 227.708 179.371, 220.749 184.321, 212.060 185.227, 210.470 188.998, 201.208 189.239, 200.617 190.163, 198.277 191.319, 190.791 " />
            <path fill="none" stroke-width="3.0" stroke-linecap="butt" stroke-opacity="1.0" stroke="rgb(0, 0, 0)" stroke-linejoin="round" d=" M 62.212, 188.786 58.777, 191.151 52.741, 197.417 49.520, 201.039 45.902, 205.457 43.594, 209.830 41.891, 213.008 40.355, 216.981 39.657, 220.776 39.615, 224.079 40.008, 227.793 40.969, 231.426 43.346, 234.525 45.985, 236.755 49.913, 239.303 53.907, 240.744 58.556, 241.341 64.999, 241.388 69.480, 240.808 75.952, 239.504 79.631, 238.541 83.291, 237.477 91.874, 232.346 92.736, 231.830 95.164, 230.160 102.844, 223.755 103.418, 223.277 110.192, 217.287 112.388, 214.784 " />
            <path fill="none" stroke-width="3.0" stroke-linecap="butt" stroke-opacity="1.0" stroke="rgb(0, 0, 0)" stroke-linejoin="round" d=" M 203.827, 147.506 200.457, 142.398 200.291, 142.169 200.285, 142.161 197.170, 137.858 193.652, 133.959 190.859, 131.727 189.709, 130.808 183.979, 127.927 " />
            <path fill="none" stroke-width="3.0" stroke-linecap="butt" stroke-opacity="1.0" stroke="rgb(0, 0, 0)" stroke-linejoin="round" d=" M 163.920, 180.508 168.631, 184.689 172.705, 187.245 174.872, 188.237 176.660, 189.056 179.708, 190.131 183.651, 191.137 187.086, 191.231 190.473, 190.948 191.319, 190.791 193.290, 190.426 195.930, 189.440 198.202, 188.411 200.083, 187.082 202.359, 185.471 204.572, 183.127 205.976, 181.504 207.628, 178.573 208.648, 176.123 209.530, 173.068 210.146, 169.849 210.147, 167.934 210.126, 165.954 210.014, 163.802 209.124, 159.607 207.648, 155.084 206.861, 153.344 206.533, 152.714 203.827, 147.506 204.982, 149.416 206.533, 152.714 " />
            <path fill="none" stroke-width="3.0" stroke-linecap="butt" stroke-opacity="1.0" stroke="rgb(0, 0, 0)" stroke-linejoin="round" d=" M 112.333, 68.986 113.229, 68.217 113.382, 67.897 113.424, 67.810 115.503, 63.460 115.993, 61.850 115.951, 58.172 115.425, 56.739 113.026, 51.824 110.029, 49.448 109.553, 49.359 " />
            <path fill="none" stroke-width="3.0" stroke-linecap="butt" stroke-opacity="1.0" stroke="rgb(0, 0, 0)" stroke-linejoin="round" d=" M 49.439, 54.471 49.426, 54.508 47.755, 58.961 45.975, 64.944 45.079, 72.644 46.292, 77.723 46.792, 79.071 49.632, 80.302 54.247, 81.465 58.484, 81.908 58.601, 81.920 60.100, 81.638 64.189, 80.870 69.483, 79.460 72.647, 78.288 74.024, 77.613 " />
            <path fill="none" stroke-width="3.0" stroke-linecap="butt" stroke-opacity="1.0" stroke="rgb(0, 0, 0)" stroke-linejoin="round" d=" M 32.336, 105.675 34.667, 101.029 34.696, 100.971 35.168, 100.030 35.995, 99.766 44.313, 97.108 47.488, 96.093 48.974, 96.037 58.966, 95.655 59.093, 95.651 61.319, 95.566 61.682, 95.552 69.494, 95.254 70.379, 95.220 71.213, 95.188 81.177, 96.028 91.142, 96.868 100.068, 97.621 103.148, 97.880 107.851, 98.719 108.167, 98.776 108.818, 98.892 109.338, 98.984 119.183, 100.740 129.027, 102.496 137.306, 103.972 146.982, 106.494 156.659, 109.016 166.336, 111.538 168.530, 112.109 171.776, 113.337 173.381, 113.945 175.567, 114.772 " />
            <path fill="none" stroke-width="3.0" stroke-linecap="butt" stroke-opacity="1.0" stroke="rgb(0, 0, 0)" stroke-linejoin="round" d=" M 200.291, 142.169 201.724, 141.867 207.184, 137.264 203.963, 130.683 199.047, 127.686 192.732, 123.836 " />
            <path fill="none" stroke-width="3.0" stroke-linecap="butt" stroke-opacity="1.0" stroke="rgb(0, 0, 0)" stroke-linejoin="round" d=" M 42.782, 101.179 42.973, 101.128 52.628, 98.524 53.760, 98.219 " />
            <path fill="none" stroke-width="3.0" stroke-linecap="butt" stroke-opacity="1.0" stroke="rgb(0, 0, 0)" stroke-linejoin="round" d=" M 50.408, 98.327 44.160, 100.034 42.943, 100.367 37.509, 101.852 34.503, 107.288 34.668, 107.483 " />
            <path fill="none" stroke-width="3.0" stroke-linecap="butt" stroke-opacity="1.0" stroke="rgb(0, 0, 0)" stroke-linejoin="round" d=" M 50.408, 98.327 53.760, 98.219 59.754, 98.026 62.340, 97.943 63.801, 97.896 66.308, 97.815 72.496, 97.616 72.564, 97.614 73.080, 97.597 74.702, 97.736 84.666, 98.591 94.629, 99.445 97.859, 99.722 103.333, 100.192 103.389, 100.202 109.680, 101.285 111.409, 101.582 121.264, 103.279 131.119, 104.976 136.699, 105.936 146.381, 108.438 156.063, 110.939 165.745, 113.440 167.397, 113.867 172.773, 115.879 " />
            <path fill="none" stroke-width="3.0" stroke-linecap="butt" stroke-opacity="1.0" stroke="rgb(0, 0, 0)" stroke-linejoin="round" d=" M 100.002, 68.759 101.068, 70.727 101.602, 71.715 102.465, 71.694 105.156, 71.630 " />
            <path fill="none" stroke-width="3.0" stroke-linecap="butt" stroke-opacity="1.0" stroke="rgb(0, 0, 0)" stroke-linejoin="round" d=" M 35.410, 97.162 33.586, 99.561 32.393, 102.353 31.717, 105.328 31.918, 107.746 32.451, 109.879 38.142, 114.001 40.747, 115.466 42.188, 114.967 42.465, 114.871 43.892, 114.376 45.707, 113.119 46.621, 112.486 47.979, 107.508 " />
            <path fill="none" stroke-width="3.0" stroke-linecap="butt" stroke-opacity="1.0" stroke="rgb(0, 0, 0)" stroke-linejoin="round" d=" M 35.060, 111.453 32.451, 109.879 " />
            <path fill="none" stroke-width="3.0" stroke-linecap="butt" stroke-opacity="1.0" stroke="rgb(0, 0, 0)" stroke-linejoin="round" d=" M 46.621, 112.486 41.429, 110.103 " />
            <path fill="none" stroke-width="3.0" stroke-linecap="butt" stroke-opacity="1.0" stroke="rgb(0, 0, 0)" stroke-linejoin="round" d=" M 42.147, 108.052 41.429, 110.103 38.148, 111.024 " />
            <path fill="none" stroke-width="3.0" stroke-linecap="butt" stroke-opacity="1.0" stroke="rgb(0, 0, 0)" stroke-linejoin="round" d=" M 58.484, 81.908 55.800, 83.189 46.825, 87.599 44.825, 88.582 39.754, 92.573 36.963, 95.413 " />
            <path fill="none" stroke-width="3.0" stroke-linecap="butt" stroke-opacity="1.0" stroke="rgb(0, 0, 0)" stroke-linejoin="round" d=" M 44.825, 88.582 51.992, 85.182 52.622, 84.969 52.941, 84.861 59.497, 82.641 62.148, 81.743 72.084, 80.613 73.852, 80.412 76.634, 80.330 78.823, 80.265 79.666, 80.240 " />
            <path fill="none" stroke-width="3.0" stroke-linecap="butt" stroke-opacity="1.0" stroke="rgb(0, 0, 0)" stroke-linejoin="round" d=" M 172.773, 115.879 173.257, 117.113 175.988, 118.577 180.285, 120.262 181.821, 120.864 189.155, 123.738 191.599, 124.696 192.447, 124.052 192.732, 123.836 193.560, 123.208 193.803, 121.941 194.271, 119.512 192.640, 117.100 191.725, 115.744 191.113, 114.839 189.868, 113.647 184.388, 108.398 183.842, 108.012 182.897, 107.346 176.484, 102.822 169.999, 98.113 166.822, 96.276 161.748, 93.341 161.134, 92.986 151.896, 89.157 151.582, 89.027 149.695, 88.245 140.154, 85.250 136.945, 84.243 127.338, 81.466 124.255, 80.575 114.401, 78.869 111.693, 78.400 103.086, 76.963 103.040, 76.956 100.928, 76.603 " />
            <path fill="none" stroke-width="3.0" stroke-linecap="butt" stroke-opacity="1.0" stroke="rgb(0, 0, 0)" stroke-linejoin="round" d=" M 93.261, 81.149 101.134, 81.992 102.917, 82.183 103.040, 82.214 112.736, 84.661 119.046, 86.253 128.638, 89.083 129.248, 89.263 133.283, 90.453 142.607, 94.068 146.232, 95.474 155.397, 99.473 157.624, 100.445 166.280, 104.601 173.086, 108.297 178.499, 112.193 179.437, 113.552 180.600, 115.238 181.099, 117.839 180.026, 118.593 178.793, 119.459 " />
            <path fill="none" stroke-width="3.0" stroke-linecap="butt" stroke-opacity="1.0" stroke="rgb(0, 0, 0)" stroke-linejoin="round" d=" M 87.631, 77.935 88.895, 76.130 90.159, 74.323 91.411, 72.535 92.924, 67.828 92.939, 67.779 93.295, 66.673 93.646, 65.582 94.062, 64.286 94.877, 57.904 94.911, 57.129 94.965, 55.900 95.005, 54.977 95.085, 53.149 " />
            <path fill="none" stroke-width="3.0" stroke-linecap="butt" stroke-opacity="1.0" stroke="rgb(0, 0, 0)" stroke-linejoin="round" d=" M 67.439, 72.777 70.573, 75.069 73.036, 76.388 74.559, 77.205 74.702, 77.281 75.176, 77.536 77.505, 78.061 81.024, 78.854 82.016, 79.078 87.631, 77.935 88.968, 79.370 90.268, 80.151 90.814, 80.479 91.132, 80.670 93.317, 81.137 " />
            <path fill="none" stroke-width="3.0" stroke-linecap="butt" stroke-opacity="1.0" stroke="rgb(0, 0, 0)" stroke-linejoin="round" d=" M 68.351, 74.071 67.439, 72.777 64.414, 74.469 63.356, 75.060 57.882, 77.455 50.886, 78.867 46.292, 77.723 " />
            <path fill="none" stroke-width="3.0" stroke-linecap="butt" stroke-opacity="1.0" stroke="rgb(0, 0, 0)" stroke-linejoin="round" d=" M 68.351, 74.071 72.971, 77.029 73.640, 77.400 74.024, 77.613 75.385, 78.370 77.099, 79.118 78.794, 79.858 79.188, 80.031 79.276, 80.069 79.666, 80.240 80.212, 80.478 80.792, 80.731 84.553, 81.580 84.910, 81.661 85.498, 81.794 88.104, 82.247 91.906, 81.438 93.261, 81.149 93.317, 81.137 93.651, 80.684 94.433, 79.623 94.662, 79.312 94.885, 78.996 96.682, 76.436 97.320, 75.527 99.149, 72.069 99.387, 71.143 100.002, 68.759 100.052, 68.566 100.244, 67.820 100.436, 67.076 100.843, 65.496 100.901, 65.271 101.060, 64.651 101.602, 62.463 102.044, 60.677 102.802, 59.579 103.612, 58.405 103.827, 58.094 104.340, 57.350 104.445, 57.198 105.578, 55.555 107.815, 52.068 109.553, 49.359 111.052, 47.023 112.929, 43.129 112.983, 42.951 114.641, 37.463 114.038, 34.297 111.042, 30.153 109.311, 27.848 104.509, 25.482 101.544, 24.411 96.267, 23.384 95.640, 23.321 92.226, 22.976 " />
            <path fill="none" stroke-width="3.0" stroke-linecap="butt" stroke-opacity="1.0" stroke="rgb(0, 0, 0)" stroke-linejoin="round" d=" M 49.426, 54.508 47.098, 51.001 44.640, 46.051 43.618, 40.753 44.312, 35.338 48.453, 31.145 55.008, 27.568 60.264, 25.895 64.241, 24.954 66.803, 20.970 70.615, 15.782 76.474, 9.953 81.580, 7.186 85.732, 9.114 89.418, 14.220 91.226, 19.111 92.226, 22.976 " />
            <path fill="none" stroke-width="3.0" stroke-linecap="butt" stroke-opacity="1.0" stroke="rgb(0, 0, 0)" stroke-linejoin="round" d=" M 98.935, 56.205 97.740, 55.146 97.476, 54.912 96.579, 54.116 95.085, 53.149 97.243, 51.217 98.682, 49.929 99.484, 49.211 102.488, 46.034 104.840, 43.546 108.718, 37.531 110.582, 31.532 107.609, 27.404 101.544, 24.411 " />
            <path fill="none" stroke-width="3.0" stroke-linecap="butt" stroke-opacity="1.0" stroke="rgb(0, 0, 0)" stroke-linejoin="round" d=" M 94.296, 20.848 93.892, 19.940 92.179, 16.088 89.028, 11.755 86.954, 9.203 82.716, 7.238 81.580, 7.186 " />
            <path fill="none" stroke-width="3.0" stroke-linecap="butt" stroke-opacity="1.0" stroke="rgb(0, 0, 0)" stroke-linejoin="round" d=" M 47.098, 51.001 49.439, 54.471 " />
            <path fill="none" stroke-width="3.0" stroke-linecap="butt" stroke-opacity="1.0" stroke="rgb(0, 0, 0)" stroke-linejoin="round" d=" M 187.463, 91.551 186.906, 89.551 183.866, 83.056 179.403, 74.107 178.297, 71.890 172.057, 64.075 171.157, 62.949 163.506, 56.510 162.055, 55.289 156.831, 51.102 148.909, 47.282 143.793, 45.174 141.273, 44.405 137.734, 43.326 131.253, 42.238 128.922, 42.159 125.076, 42.031 118.649, 42.198 112.983, 42.951 " />
            <path fill="none" stroke-width="3.0" stroke-linecap="butt" stroke-opacity="1.0" stroke="rgb(0, 0, 0)" stroke-linejoin="round" d=" M 112.355, 32.059 114.038, 34.297 " />
            <path fill="none" stroke-width="3.0" stroke-linecap="butt" stroke-opacity="1.0" stroke="rgb(0, 0, 0)" stroke-linejoin="round" d=" M 191.080, 107.894 190.438, 106.619 182.161, 101.008 179.447, 99.168 177.231, 98.257 167.982, 94.456 161.322, 91.718 161.151, 91.648 151.582, 89.027 " />
            <path fill="none" stroke-width="3.0" stroke-linecap="butt" stroke-opacity="1.0" stroke="rgb(0, 0, 0)" stroke-linejoin="round" d=" M 115.162, 67.908 113.424, 67.810 " />
            <path fill="none" stroke-width="3.0" stroke-linecap="butt" stroke-opacity="1.0" stroke="rgb(0, 0, 0)" stroke-linejoin="round" d=" M 115.162, 67.908 118.919, 68.480 128.805, 69.985 130.111, 70.184 130.522, 70.246 139.120, 71.555 139.245, 71.574 " />
            <path fill="none" stroke-width="3.0" stroke-linecap="butt" stroke-opacity="1.0" stroke="rgb(0, 0, 0)" stroke-linejoin="round" d=" M 192.698, 108.986 190.329, 99.271 189.246, 94.828 187.463, 91.551 185.831, 88.553 184.883, 87.465 " />
            <path fill="none" stroke-width="3.0" stroke-linecap="butt" stroke-opacity="1.0" stroke="rgb(0, 0, 0)" stroke-linejoin="round" d=" M 141.273, 44.405 139.868, 42.902 136.341, 41.540 132.323, 41.132 129.408, 41.835 128.922, 42.159 " />
            <path fill="none" stroke-width="3.0" stroke-linecap="butt" stroke-opacity="1.0" stroke="rgb(0, 0, 0)" stroke-linejoin="round" d=" M 201.724, 141.867 203.763, 141.430 209.562, 136.631 210.547, 132.856 207.467, 125.769 203.874, 120.126 198.414, 112.842 192.698, 108.986 191.080, 107.894 186.109, 104.541 181.151, 101.264 178.766, 100.290 169.509, 96.510 166.337, 95.215 161.748, 93.341 " />
            <path fill="none" stroke-width="3.0" stroke-linecap="butt" stroke-opacity="1.0" stroke="rgb(0, 0, 0)" stroke-linejoin="round" d=" M 193.803, 121.941 196.886, 123.855 205.382, 129.129 206.385, 129.751 209.562, 136.631 " />
            <path fill="none" stroke-width="3.0" stroke-linecap="butt" stroke-opacity="1.0" stroke="rgb(0, 0, 0)" stroke-linejoin="round" d=" M 41.563, 92.184 36.963, 95.413 35.919, 96.146 35.410, 97.162 32.937, 102.107 32.336, 105.675 " />
            <path fill="none" stroke-width="3.0" stroke-linecap="butt" stroke-opacity="1.0" stroke="rgb(0, 0, 0)" stroke-linejoin="round" d=" M 207.467, 125.769 199.053, 120.364 193.961, 117.092 " />
            <path fill="none" stroke-width="3.0" stroke-linecap="butt" stroke-opacity="1.0" stroke="rgb(0, 0, 0)" stroke-linejoin="round" d=" M 42.188, 114.967 48.889, 118.710 " />
            <path fill="none" stroke-width="3.0" stroke-linecap="butt" stroke-opacity="1.0" stroke="rgb(0, 0, 0)" stroke-linejoin="round" d=" M 95.640, 23.321 93.892, 19.940 " />
            <path fill="none" stroke-width="3.0" stroke-linecap="butt" stroke-opacity="1.0" stroke="rgb(0, 0, 0)" stroke-linejoin="round" d=" M 100.635, 76.591 102.465, 71.694 " />
            <path fill="none" stroke-width="3.0" stroke-linecap="butt" stroke-opacity="1.0" stroke="rgb(0, 0, 0)" stroke-linejoin="round" d=" M 192.447, 124.052 199.371, 128.261 " />
        </g>
    </g>
</svg>
