<?xml version='1.0' encoding='ascii'?>
<svg xmlns="http://www.w3.org/2000/svg" version="1.1" width="250" height="250">
    <g id="ViewLayer_LineSet" xmlns:inkscape="http://www.inkscape.org/namespaces/inkscape" inkscape:groupmode="lineset" inkscape:label="ViewLayer_LineSet">
        <g xmlns:inkscape="http://www.inkscape.org/namespaces/inkscape" inkscape:groupmode="layer" id="strokes" inkscape:label="strokes">
            <path fill="none" stroke-width="3.0" stroke-linecap="butt" stroke-opacity="1.0" stroke="rgb(0, 0, 0)" stroke-linejoin="round" d=" M 45.854, 130.727 45.056, 137.424 45.000, 144.263 45.006, 144.445 45.068, 146.431 45.716, 152.491 46.008, 154.567 46.470, 156.822 46.532, 157.126 47.262, 160.035 47.838, 162.099 48.282, 163.632 48.783, 165.174 49.176, 166.261 50.255, 169.233 51.337, 171.890 52.363, 174.090 53.277, 175.722 56.419, 181.313 60.240, 186.599 61.641, 188.402 66.369, 193.659 72.438, 199.027 73.516, 199.791 " />
            <path fill="none" stroke-width="3.0" stroke-linecap="butt" stroke-opacity="1.0" stroke="rgb(0, 0, 0)" stroke-linejoin="round" d=" M 157.519, 203.020 164.979, 197.590 171.908, 190.379 172.469, 189.795 174.040, 188.109 " />
            <path fill="none" stroke-width="3.0" stroke-linecap="butt" stroke-opacity="1.0" stroke="rgb(0, 0, 0)" stroke-linejoin="round" d=" M 55.335, 151.235 56.535, 152.515 57.701, 153.052 58.949, 153.109 60.417, 152.468 61.675, 151.328 62.656, 149.664 63.148, 148.454 " />
            <path fill="none" stroke-width="3.0" stroke-linecap="butt" stroke-opacity="1.0" stroke="rgb(0, 0, 0)" stroke-linejoin="round" d=" M 52.880, 145.266 53.047, 145.732 53.109, 146.191 53.406, 147.456 54.021, 149.277 54.986, 150.782 55.335, 151.235 " />
            <path fill="none" stroke-width="3.0" stroke-linecap="butt" stroke-opacity="1.0" stroke="rgb(0, 0, 0)" stroke-linejoin="round" d=" M 85.284, 102.517 85.287, 102.691 84.927, 105.991 84.166, 109.704 84.209, 109.773 81.823, 117.468 81.689, 117.899 81.380, 118.572 80.087, 121.388 79.839, 121.928 79.822, 121.966 77.968, 126.014 76.066, 129.796 74.184, 133.090 72.362, 135.735 70.633, 137.599 70.442, 137.718 69.028, 138.592 67.582, 138.666 66.338, 137.818 65.349, 136.086 64.674, 133.553 64.372, 130.339 64.492, 126.596 65.066, 122.500 65.651, 120.090 66.100, 118.243 66.529, 117.003 66.724, 116.441 67.543, 114.079 67.800, 113.486 69.250, 110.152 71.163, 106.467 73.210, 103.157 75.256, 100.414 " />
            <path fill="none" stroke-width="3.0" stroke-linecap="butt" stroke-opacity="1.0" stroke="rgb(0, 0, 0)" stroke-linejoin="round" d=" M 54.190, 116.681 52.806, 120.652 51.543, 124.443 51.055, 125.930 50.418, 127.869 49.423, 130.756 48.547, 132.959 47.772, 134.368 47.096, 134.916 46.507, 134.861 46.101, 133.393 45.856, 131.412 45.854, 130.727 45.847, 128.746 46.126, 125.532 46.731, 121.929 47.677, 118.110 48.932, 114.305 50.046, 111.401 50.339, 110.638 50.609, 109.997 50.791, 109.568 50.967, 109.151 51.829, 107.109 52.442, 105.789 52.635, 105.375 53.347, 103.842 54.605, 101.393 54.832, 100.950 56.226, 98.533 56.712, 97.810 " />
            <path fill="none" stroke-width="3.0" stroke-linecap="butt" stroke-opacity="1.0" stroke="rgb(0, 0, 0)" stroke-linejoin="round" d=" M 47.096, 134.916 48.947, 135.628 49.378, 135.793 " />
            <path fill="none" stroke-width="3.0" stroke-linecap="butt" stroke-opacity="1.0" stroke="rgb(0, 0, 0)" stroke-linejoin="round" d=" M 46.507, 134.861 48.932, 135.649 49.378, 135.793 " />
            <path fill="none" stroke-width="3.0" stroke-linecap="butt" stroke-opacity="1.0" stroke="rgb(0, 0, 0)" stroke-linejoin="round" d=" M 59.889, 98.218 59.660, 99.544 59.000, 102.270 58.189, 105.337 58.138, 105.531 57.938, 106.113 57.647, 106.957 56.968, 108.929 56.937, 109.017 " />
            <path fill="none" stroke-width="3.0" stroke-linecap="butt" stroke-opacity="1.0" stroke="rgb(0, 0, 0)" stroke-linejoin="round" d=" M 58.953, 118.693 54.190, 116.681 55.316, 113.614 55.377, 113.448 55.621, 112.784 55.697, 112.567 55.899, 111.989 56.548, 110.131 56.937, 109.017 61.112, 110.848 " />
            <path fill="none" stroke-width="3.0" stroke-linecap="butt" stroke-opacity="1.0" stroke="rgb(0, 0, 0)" stroke-linejoin="round" d=" M 87.089, 192.214 82.886, 193.301 79.586, 194.801 74.827, 198.236 73.516, 199.791 71.688, 201.960 69.302, 205.815 68.082, 209.834 67.616, 214.221 68.953, 219.010 70.470, 220.797 73.944, 223.946 82.712, 228.754 83.357, 229.108 87.437, 230.956 92.397, 232.727 99.273, 234.650 104.687, 235.846 112.505, 236.544 122.499, 236.883 124.855, 236.963 129.220, 237.095 139.220, 237.125 139.978, 237.127 146.396, 236.663 149.405, 235.898 152.928, 234.588 157.506, 231.342 160.078, 228.019 161.537, 224.270 161.731, 223.128 162.458, 217.956 162.062, 212.685 160.034, 206.482 157.519, 203.020 156.342, 201.401 " />
            <path fill="none" stroke-width="3.0" stroke-linecap="butt" stroke-opacity="1.0" stroke="rgb(0, 0, 0)" stroke-linejoin="round" d=" M 165.128, 183.280 171.244, 186.983 174.040, 188.109 176.170, 188.968 180.833, 190.213 185.555, 190.708 189.579, 190.367 193.240, 189.491 196.509, 188.042 197.791, 187.376 200.703, 185.398 203.292, 182.988 205.411, 180.029 205.997, 179.018 207.596, 175.816 208.655, 172.337 209.105, 168.572 208.984, 164.514 207.947, 159.871 206.166, 155.363 203.611, 150.672 202.053, 148.667 201.954, 148.540 201.814, 148.360 199.192, 144.986 194.645, 140.094 190.256, 135.820 190.065, 135.673 187.456, 133.675 " />
            <path fill="none" stroke-width="3.0" stroke-linecap="butt" stroke-opacity="1.0" stroke="rgb(0, 0, 0)" stroke-linejoin="round" d=" M 45.006, 144.445 45.002, 144.460 44.507, 148.844 44.742, 150.940 45.014, 152.791 45.927, 155.778 46.426, 156.739 46.470, 156.822 " />
            <path fill="none" stroke-width="3.0" stroke-linecap="butt" stroke-opacity="1.0" stroke="rgb(0, 0, 0)" stroke-linejoin="round" d=" M 94.170, 68.330 96.552, 65.142 97.043, 64.042 96.852, 57.428 96.303, 56.596 92.427, 51.746 91.356, 50.405 88.808, 49.796 82.906, 49.642 " />
            <path fill="none" stroke-width="3.0" stroke-linecap="butt" stroke-opacity="1.0" stroke="rgb(0, 0, 0)" stroke-linejoin="round" d=" M 43.054, 73.578 44.572, 75.710 46.962, 78.006 49.680, 79.823 50.373, 80.076 52.370, 80.805 53.653, 81.256 54.226, 81.458 55.830, 82.022 56.984, 82.138 57.098, 82.149 60.319, 82.472 60.585, 82.387 61.242, 82.178 63.731, 81.387 63.742, 81.383 64.593, 81.034 65.100, 80.827 65.925, 80.489 67.975, 79.651 69.723, 76.918 72.468, 72.630 72.521, 72.500 72.632, 72.226 73.454, 70.198 73.622, 69.785 73.623, 69.782 73.680, 69.625 73.714, 69.532 73.909, 68.998 74.157, 68.319 74.340, 67.818 74.428, 67.576 74.751, 66.692 74.768, 66.643 74.781, 66.609 74.823, 66.493 74.847, 66.428 75.212, 65.426 75.767, 63.800 75.898, 63.418 76.283, 62.289 76.376, 62.018 76.462, 61.765 76.533, 61.556 77.604, 59.610 77.696, 59.443 77.802, 59.249 78.069, 58.764 79.310, 56.508 79.531, 56.087 79.812, 55.550 81.093, 53.104 81.386, 52.545 82.059, 51.259 82.261, 50.874 82.906, 49.642 83.739, 48.051 85.545, 42.915 84.667, 38.604 83.684, 35.004 80.772, 31.616 78.306, 29.682 76.702, 28.555 75.008, 27.365 72.308, 26.466 71.600, 26.246 69.116, 25.700 66.623, 25.482 " />
            <path fill="none" stroke-width="3.0" stroke-linecap="butt" stroke-opacity="1.0" stroke="rgb(0, 0, 0)" stroke-linejoin="round" d=" M 34.990, 57.408 33.560, 60.918 31.552, 66.509 29.791, 73.665 29.687, 78.366 30.651, 79.620 33.223, 80.690 36.777, 81.832 42.051, 82.265 49.491, 80.355 50.373, 80.076 " />
            <path fill="none" stroke-width="3.0" stroke-linecap="butt" stroke-opacity="1.0" stroke="rgb(0, 0, 0)" stroke-linejoin="round" d=" M 77.255, 73.746 74.222, 73.792 72.903, 72.493 72.871, 72.461 72.632, 72.226 " />
            <path fill="none" stroke-width="3.0" stroke-linecap="butt" stroke-opacity="1.0" stroke="rgb(0, 0, 0)" stroke-linejoin="round" d=" M 34.896, 99.189 36.292, 95.522 36.535, 95.507 41.796, 95.178 42.666, 95.124 48.038, 94.788 48.403, 94.765 53.911, 95.450 58.076, 95.968 60.086, 96.218 60.963, 96.327 63.281, 96.616 70.997, 97.575 76.748, 98.799 81.157, 99.737 81.582, 99.828 83.483, 100.232 85.245, 100.607 89.987, 101.616 99.768, 103.698 101.252, 104.014 110.910, 106.606 120.568, 109.198 130.226, 111.791 134.506, 112.939 144.012, 116.043 144.355, 116.156 144.524, 116.211 144.524, 116.211 144.530, 116.213 " />
            <path fill="none" stroke-width="3.0" stroke-linecap="butt" stroke-opacity="1.0" stroke="rgb(0, 0, 0)" stroke-linejoin="round" d=" M 201.814, 148.360 205.751, 146.459 201.962, 141.492 200.398, 140.637 198.686, 139.701 190.029, 134.967 188.240, 133.989 187.456, 133.675 178.171, 129.960 168.887, 126.245 167.284, 125.603 167.188, 125.565 " />
            <path fill="none" stroke-width="3.0" stroke-linecap="butt" stroke-opacity="1.0" stroke="rgb(0, 0, 0)" stroke-linejoin="round" d=" M 38.160, 91.855 35.972, 95.602 34.896, 99.189 41.094, 104.534 43.009, 106.071 44.013, 106.589 49.706, 109.530 " />
            <path fill="none" stroke-width="3.0" stroke-linecap="butt" stroke-opacity="1.0" stroke="rgb(0, 0, 0)" stroke-linejoin="round" d=" M 39.280, 97.643 37.077, 100.912 43.009, 106.071 " />
            <path fill="none" stroke-width="3.0" stroke-linecap="butt" stroke-opacity="1.0" stroke="rgb(0, 0, 0)" stroke-linejoin="round" d=" M 39.280, 97.643 41.707, 97.527 42.606, 97.484 51.025, 97.080 53.017, 97.336 53.868, 97.445 56.712, 97.810 59.603, 98.182 59.889, 98.218 62.243, 98.520 64.668, 98.832 72.516, 99.840 75.256, 100.414 81.764, 101.779 85.284, 102.517 89.746, 103.453 89.961, 103.498 90.197, 103.548 99.984, 105.600 101.797, 105.980 111.455, 108.571 121.114, 111.162 130.772, 113.753 134.429, 114.734 143.939, 117.827 144.995, 118.171 144.999, 118.172 145.633, 118.378 145.633, 118.378 " />
            <path fill="none" stroke-width="3.0" stroke-linecap="butt" stroke-opacity="1.0" stroke="rgb(0, 0, 0)" stroke-linejoin="round" d=" M 76.378, 62.098 76.424, 63.392 76.438, 63.768 76.464, 64.490 76.465, 64.534 76.466, 64.570 76.507, 65.718 76.641, 65.875 77.030, 66.332 77.214, 66.547 77.476, 66.855 78.041, 67.518 78.089, 67.575 78.134, 67.626 78.939, 68.571 79.069, 68.724 79.660, 69.417 79.746, 69.519 79.865, 69.658 82.113, 72.296 84.000, 72.258 88.084, 72.176 " />
            <path fill="none" stroke-width="3.0" stroke-linecap="butt" stroke-opacity="1.0" stroke="rgb(0, 0, 0)" stroke-linejoin="round" d=" M 74.340, 67.818 75.127, 68.150 75.193, 68.178 75.548, 68.329 76.146, 68.582 76.772, 68.846 77.139, 69.001 77.202, 69.028 78.602, 69.619 79.668, 69.652 79.865, 69.658 " />
            <path fill="none" stroke-width="3.0" stroke-linecap="butt" stroke-opacity="1.0" stroke="rgb(0, 0, 0)" stroke-linejoin="round" d=" M 44.013, 106.589 44.683, 108.509 46.767, 110.024 50.046, 111.401 " />
            <path fill="none" stroke-width="3.0" stroke-linecap="butt" stroke-opacity="1.0" stroke="rgb(0, 0, 0)" stroke-linejoin="round" d=" M 53.653, 81.256 50.922, 82.144 46.084, 85.417 44.849, 86.878 " />
            <path fill="none" stroke-width="3.0" stroke-linecap="butt" stroke-opacity="1.0" stroke="rgb(0, 0, 0)" stroke-linejoin="round" d=" M 65.100, 80.827 65.838, 80.871 65.988, 80.880 73.487, 81.913 75.954, 82.254 77.150, 82.418 77.175, 82.422 81.053, 83.646 82.654, 84.152 89.719, 86.383 99.155, 89.695 101.657, 90.573 110.818, 94.584 113.329, 95.683 122.345, 100.007 124.074, 100.837 132.589, 105.210 139.738, 109.144 145.641, 113.298 146.021, 113.773 148.223, 116.516 149.132, 119.236 148.967, 119.463 147.945, 120.871 " />
            <path fill="none" stroke-width="3.0" stroke-linecap="butt" stroke-opacity="1.0" stroke="rgb(0, 0, 0)" stroke-linejoin="round" d=" M 81.190, 77.033 73.270, 76.680 70.147, 76.890 69.723, 76.918 " />
            <path fill="none" stroke-width="3.0" stroke-linecap="butt" stroke-opacity="1.0" stroke="rgb(0, 0, 0)" stroke-linejoin="round" d=" M 146.413, 119.903 147.453, 120.560 147.639, 120.678 147.945, 120.871 157.452, 123.973 162.250, 125.539 166.454, 126.910 167.176, 125.587 167.188, 125.565 167.284, 125.388 167.346, 123.946 167.346, 123.940 167.355, 123.754 167.451, 121.514 163.763, 116.505 157.054, 109.610 148.895, 103.666 148.617, 103.459 142.260, 98.714 133.678, 93.580 133.325, 93.369 128.083, 91.032 122.385, 88.492 115.127, 85.916 111.005, 84.453 101.517, 81.294 100.120, 80.829 92.624, 79.296 89.926, 78.744 84.713, 77.676 83.711, 77.471 81.679, 77.055 " />
            <path fill="none" stroke-width="3.0" stroke-linecap="butt" stroke-opacity="1.0" stroke="rgb(0, 0, 0)" stroke-linejoin="round" d=" M 144.995, 118.171 145.049, 118.341 146.413, 119.903 145.682, 118.474 145.633, 118.378 " />
            <path fill="none" stroke-width="3.0" stroke-linecap="butt" stroke-opacity="1.0" stroke="rgb(0, 0, 0)" stroke-linejoin="round" d=" M 54.546, 78.305 55.889, 76.160 57.797, 73.112 59.895, 67.628 60.837, 65.169 62.420, 59.022 63.350, 54.444 " />
            <path fill="none" stroke-width="3.0" stroke-linecap="butt" stroke-opacity="1.0" stroke="rgb(0, 0, 0)" stroke-linejoin="round" d=" M 46.962, 78.006 50.892, 79.427 54.546, 78.305 54.752, 78.484 56.117, 79.674 57.251, 80.088 59.549, 80.925 61.363, 81.126 62.741, 81.278 63.731, 81.387 " />
            <path fill="none" stroke-width="3.0" stroke-linecap="butt" stroke-opacity="1.0" stroke="rgb(0, 0, 0)" stroke-linejoin="round" d=" M 43.054, 73.578 40.226, 75.760 36.568, 78.044 32.200, 79.402 29.687, 78.366 " />
            <path fill="none" stroke-width="3.0" stroke-linecap="butt" stroke-opacity="1.0" stroke="rgb(0, 0, 0)" stroke-linejoin="round" d=" M 35.960, 54.099 35.239, 56.558 34.990, 57.408 33.928, 61.033 31.230, 70.662 31.005, 71.467 " />
            <path fill="none" stroke-width="3.0" stroke-linecap="butt" stroke-opacity="1.0" stroke="rgb(0, 0, 0)" stroke-linejoin="round" d=" M 35.239, 56.558 34.454, 53.522 33.801, 48.976 34.052, 44.078 35.331, 39.018 38.458, 34.965 42.949, 31.373 46.386, 29.594 48.949, 28.546 51.164, 24.669 54.354, 19.576 58.937, 13.735 62.578, 10.820 64.858, 12.451 66.323, 17.176 66.642, 21.801 66.623, 25.482 " />
            <path fill="none" stroke-width="3.0" stroke-linecap="butt" stroke-opacity="1.0" stroke="rgb(0, 0, 0)" stroke-linejoin="round" d=" M 69.116, 25.700 72.308, 26.466 75.697, 29.119 76.470, 31.599 76.913, 33.023 74.684, 38.937 71.168, 44.907 66.795, 50.540 66.289, 51.114 63.350, 54.444 65.138, 55.339 67.257, 56.424 68.534, 57.078 68.959, 57.295 " />
            <path fill="none" stroke-width="3.0" stroke-linecap="butt" stroke-opacity="1.0" stroke="rgb(0, 0, 0)" stroke-linejoin="round" d=" M 76.702, 28.555 76.410, 27.643 74.220, 22.154 73.030, 19.269 69.604, 14.758 66.540, 12.452 64.198, 10.790 62.578, 10.820 " />
            <path fill="none" stroke-width="3.0" stroke-linecap="butt" stroke-opacity="1.0" stroke="rgb(0, 0, 0)" stroke-linejoin="round" d=" M 52.372, 23.877 48.982, 28.554 47.786, 30.205 43.605, 32.618 " />
            <path fill="none" stroke-width="3.0" stroke-linecap="butt" stroke-opacity="1.0" stroke="rgb(0, 0, 0)" stroke-linejoin="round" d=" M 191.314, 99.173 190.672, 95.924 187.261, 86.524 186.151, 83.465 183.200, 78.119 178.047, 69.549 177.119, 68.005 170.409, 60.591 168.942, 58.969 163.712, 54.805 156.298, 49.864 151.346, 47.248 150.643, 46.983 145.320, 44.977 138.885, 43.313 135.799, 42.873 132.767, 42.441 127.636, 42.443 117.666, 42.865 112.113, 44.212 102.535, 47.089 99.897, 47.882 92.427, 51.746 " />
            <path fill="none" stroke-width="3.0" stroke-linecap="butt" stroke-opacity="1.0" stroke="rgb(0, 0, 0)" stroke-linejoin="round" d=" M 78.975, 33.457 82.040, 35.555 84.667, 38.604 " />
            <path fill="none" stroke-width="3.0" stroke-linecap="butt" stroke-opacity="1.0" stroke="rgb(0, 0, 0)" stroke-linejoin="round" d=" M 193.109, 117.954 191.322, 115.297 183.500, 110.345 180.112, 108.200 174.162, 105.568 165.018, 101.521 161.765, 100.082 152.303, 96.846 142.841, 93.610 138.327, 92.067 128.661, 89.504 118.995, 86.941 115.127, 85.916 " />
            <path fill="none" stroke-width="3.0" stroke-linecap="butt" stroke-opacity="1.0" stroke="rgb(0, 0, 0)" stroke-linejoin="round" d=" M 95.853, 68.423 94.170, 68.330 " />
            <path fill="none" stroke-width="3.0" stroke-linecap="butt" stroke-opacity="1.0" stroke="rgb(0, 0, 0)" stroke-linejoin="round" d=" M 95.853, 68.423 105.744, 69.897 106.367, 69.990 116.258, 71.464 118.395, 71.783 " />
            <path fill="none" stroke-width="3.0" stroke-linecap="butt" stroke-opacity="1.0" stroke="rgb(0, 0, 0)" stroke-linejoin="round" d=" M 194.756, 119.308 193.627, 109.372 192.707, 101.272 191.314, 99.173 189.142, 95.899 188.095, 94.653 " />
            <path fill="none" stroke-width="3.0" stroke-linecap="butt" stroke-opacity="1.0" stroke="rgb(0, 0, 0)" stroke-linejoin="round" d=" M 128.083, 91.032 137.447, 93.517 146.913, 96.742 156.378, 99.968 159.565, 101.054 168.722, 105.073 176.971, 108.694 " />
            <path fill="none" stroke-width="3.0" stroke-linecap="butt" stroke-opacity="1.0" stroke="rgb(0, 0, 0)" stroke-linejoin="round" d=" M 150.643, 46.983 149.327, 44.497 146.615, 42.764 142.664, 41.514 139.044, 41.244 137.172, 42.049 135.799, 42.873 " />
            <path fill="none" stroke-width="3.0" stroke-linecap="butt" stroke-opacity="1.0" stroke="rgb(0, 0, 0)" stroke-linejoin="round" d=" M 202.053, 148.667 203.194, 148.545 208.351, 146.116 209.589, 142.344 206.887, 136.446 202.304, 128.384 198.647, 122.738 194.756, 119.308 193.492, 118.194 193.109, 117.954 184.635, 112.645 184.314, 112.443 181.704, 110.809 178.112, 109.204 176.971, 108.694 " />
            <path fill="none" stroke-width="3.0" stroke-linecap="butt" stroke-opacity="1.0" stroke="rgb(0, 0, 0)" stroke-linejoin="round" d=" M 167.355, 123.754 167.926, 123.984 168.117, 124.062 177.391, 127.804 186.664, 131.547 189.906, 132.855 190.493, 133.092 199.268, 137.970 204.604, 140.935 208.351, 146.116 " />
            <path fill="none" stroke-width="3.0" stroke-linecap="butt" stroke-opacity="1.0" stroke="rgb(0, 0, 0)" stroke-linejoin="round" d=" M 205.956, 136.932 197.295, 131.933 195.943, 131.152 192.035, 128.896 188.943, 127.620 182.633, 125.015 181.322, 124.473 172.078, 120.657 168.021, 118.982 " />
            <path fill="none" stroke-width="3.0" stroke-linecap="butt" stroke-opacity="1.0" stroke="rgb(0, 0, 0)" stroke-linejoin="round" d=" M 51.669, 83.185 44.849, 86.878 43.183, 87.779 38.160, 91.855 36.292, 95.522 " />
            <path fill="none" stroke-width="3.0" stroke-linecap="butt" stroke-opacity="1.0" stroke="rgb(0, 0, 0)" stroke-linejoin="round" d=" M 50.967, 109.151 49.706, 109.530 49.201, 109.682 " />
            <path fill="none" stroke-width="3.0" stroke-linecap="butt" stroke-opacity="1.0" stroke="rgb(0, 0, 0)" stroke-linejoin="round" d=" M 54.226, 81.458 50.922, 82.144 " />
            <path fill="none" stroke-width="3.0" stroke-linecap="butt" stroke-opacity="1.0" stroke="rgb(0, 0, 0)" stroke-linejoin="round" d=" M 73.454, 70.198 74.296, 70.984 75.339, 71.957 77.255, 73.746 79.668, 69.652 " />
            <path fill="none" stroke-width="3.0" stroke-linecap="butt" stroke-opacity="1.0" stroke="rgb(0, 0, 0)" stroke-linejoin="round" d=" M 76.283, 62.289 76.378, 62.098 76.626, 61.602 77.623, 59.608 77.696, 59.461 77.802, 59.249 " />
            <path fill="none" stroke-width="3.0" stroke-linecap="butt" stroke-opacity="1.0" stroke="rgb(0, 0, 0)" stroke-linejoin="round" d=" M 74.751, 66.692 76.870, 67.643 77.197, 67.790 77.731, 68.029 77.794, 68.058 78.939, 68.571 " />
            <path fill="none" stroke-width="3.0" stroke-linecap="butt" stroke-opacity="1.0" stroke="rgb(0, 0, 0)" stroke-linejoin="round" d=" M 81.190, 77.033 84.000, 72.258 " />
            <path fill="none" stroke-width="3.0" stroke-linecap="butt" stroke-opacity="1.0" stroke="rgb(0, 0, 0)" stroke-linejoin="round" d=" M 190.065, 135.673 190.029, 134.967 " />
            <path fill="none" stroke-width="3.0" stroke-linecap="butt" stroke-opacity="1.0" stroke="rgb(0, 0, 0)" stroke-linejoin="round" d=" M 198.686, 139.701 201.534, 143.320 " />
        </g>
    </g>
</svg>
