<?xml version='1.0' encoding='ascii'?>
<svg xmlns="http://www.w3.org/2000/svg" version="1.1" width="250" height="250">
    <g id="ViewLayer_LineSet" xmlns:inkscape="http://www.inkscape.org/namespaces/inkscape" inkscape:groupmode="lineset" inkscape:label="ViewLayer_LineSet">
        <g xmlns:inkscape="http://www.inkscape.org/namespaces/inkscape" inkscape:groupmode="layer" id="strokes" inkscape:label="strokes">
            <path fill="none" stroke-width="3.0" stroke-linecap="butt" stroke-opacity="1.0" stroke="rgb(0, 0, 0)" stroke-linejoin="round" d=" M 107.290, 214.722 111.454, 215.294 111.772, 215.315 115.904, 215.592 120.441, 215.602 124.863, 215.324 126.848, 215.057 128.972, 214.772 132.593, 213.974 139.999, 212.311 144.372, 210.829 152.803, 206.826 156.857, 204.666 164.948, 198.789 165.377, 198.477 168.049, 195.814 174.402, 189.215 " />
            <path fill="none" stroke-width="3.0" stroke-linecap="butt" stroke-opacity="1.0" stroke="rgb(0, 0, 0)" stroke-linejoin="round" d=" M 59.651, 98.798 57.548, 101.418 53.174, 108.907 49.683, 116.907 49.526, 117.267 48.780, 119.913 48.735, 120.075 47.007, 126.203 46.134, 130.904 45.283, 137.186 45.152, 143.633 45.310, 147.200 45.879, 152.853 46.442, 156.232 47.576, 160.799 48.238, 163.453 49.151, 166.363 50.271, 169.396 51.548, 172.412 52.924, 175.277 54.336, 177.857 56.356, 181.250 58.406, 184.471 60.334, 186.960 61.485, 188.372 64.176, 191.674 " />
            <path fill="none" stroke-width="3.0" stroke-linecap="butt" stroke-opacity="1.0" stroke="rgb(0, 0, 0)" stroke-linejoin="round" d=" M 190.775, 132.161 190.765, 131.970 188.928, 123.372 " />
            <path fill="none" stroke-width="3.0" stroke-linecap="butt" stroke-opacity="1.0" stroke="rgb(0, 0, 0)" stroke-linejoin="round" d=" M 72.244, 150.224 72.756, 151.619 74.033, 153.688 75.815, 155.357 77.878, 156.604 79.806, 157.071 81.793, 157.027 84.056, 156.236 86.008, 154.942 87.490, 153.125 88.180, 151.825 " />
            <path fill="none" stroke-width="3.0" stroke-linecap="butt" stroke-opacity="1.0" stroke="rgb(0, 0, 0)" stroke-linejoin="round" d=" M 111.990, 101.864 112.429, 103.572 112.752, 106.957 112.656, 110.775 112.677, 110.844 111.583, 117.495 111.564, 117.609 111.295, 119.240 109.935, 123.437 108.335, 127.707 106.516, 131.681 104.542, 135.166 103.472, 136.631 103.165, 137.051 102.478, 137.991 100.389, 140.016 98.341, 141.138 96.403, 141.301 96.087, 141.156 94.644, 140.494 93.867, 139.598 93.134, 138.752 91.944, 136.155 91.519, 134.406 91.392, 133.883 91.135, 132.825 90.756, 128.920 90.784, 127.436 90.837, 124.628 91.387, 120.154 92.364, 115.770 93.256, 112.967 93.320, 112.767 93.680, 111.635 95.301, 107.758 97.164, 104.280 99.195, 101.323 100.061, 100.372 " />
            <path fill="none" stroke-width="3.0" stroke-linecap="butt" stroke-opacity="1.0" stroke="rgb(0, 0, 0)" stroke-linejoin="round" d=" M 72.564, 118.959 71.495, 123.208 70.358, 127.273 70.135, 127.962 69.988, 128.417 69.167, 130.955 67.929, 134.068 66.646, 136.456 65.329, 138.001 64.779, 138.261 63.999, 138.629 62.709, 138.610 61.482, 137.077 60.425, 134.986 59.607, 132.150 59.102, 128.713 58.975, 124.846 59.004, 124.426 59.034, 124.003 59.160, 122.185 59.260, 120.762 59.261, 120.737 59.957, 116.637 60.936, 112.687 62.142, 108.890 63.525, 105.381 65.030, 102.280 65.452, 101.584 65.952, 100.760 66.599, 99.693 67.498, 98.557 " />
            <path fill="none" stroke-width="3.0" stroke-linecap="butt" stroke-opacity="1.0" stroke="rgb(0, 0, 0)" stroke-linejoin="round" d=" M 62.709, 138.610 66.264, 140.022 " />
            <path fill="none" stroke-width="3.0" stroke-linecap="butt" stroke-opacity="1.0" stroke="rgb(0, 0, 0)" stroke-linejoin="round" d=" M 74.043, 98.357 74.082, 98.438 74.564, 100.725 74.749, 103.614 74.712, 105.695 74.703, 106.170 74.687, 107.073 74.213, 110.781 " />
            <path fill="none" stroke-width="3.0" stroke-linecap="butt" stroke-opacity="1.0" stroke="rgb(0, 0, 0)" stroke-linejoin="round" d=" M 76.031, 120.920 72.564, 118.959 72.916, 117.415 73.513, 114.795 74.213, 110.781 77.635, 112.830 " />
            <path fill="none" stroke-width="3.0" stroke-linecap="butt" stroke-opacity="1.0" stroke="rgb(0, 0, 0)" stroke-linejoin="round" d=" M 145.257, 236.793 149.991, 237.353 155.305, 236.832 162.168, 235.049 167.961, 232.530 173.754, 228.949 177.260, 225.305 178.642, 223.335 182.089, 218.182 186.370, 209.145 187.233, 207.323 187.934, 205.379 191.133, 195.904 191.496, 194.827 191.807, 191.364 " />
            <path fill="none" stroke-width="3.0" stroke-linecap="butt" stroke-opacity="1.0" stroke="rgb(0, 0, 0)" stroke-linejoin="round" d=" M 128.344, 221.300 128.993, 224.249 130.247, 226.493 133.589, 230.875 138.893, 234.574 140.058, 235.151 145.257, 236.793 144.159, 236.419 138.893, 234.574 " />
            <path fill="none" stroke-width="3.0" stroke-linecap="butt" stroke-opacity="1.0" stroke="rgb(0, 0, 0)" stroke-linejoin="round" d=" M 126.848, 215.057 126.948, 215.909 128.344, 221.300 128.480, 221.823 " />
            <path fill="none" stroke-width="3.0" stroke-linecap="butt" stroke-opacity="1.0" stroke="rgb(0, 0, 0)" stroke-linejoin="round" d=" M 61.485, 188.372 60.033, 189.201 55.234, 192.003 49.106, 197.289 45.471, 201.120 41.405, 205.570 39.007, 210.069 37.441, 213.293 35.863, 217.375 35.145, 221.269 " />
            <path fill="none" stroke-width="3.0" stroke-linecap="butt" stroke-opacity="1.0" stroke="rgb(0, 0, 0)" stroke-linejoin="round" d=" M 111.772, 215.315 110.293, 216.980 106.433, 220.670 99.694, 225.592 91.487, 231.306 91.383, 231.378 88.704, 233.255 80.240, 237.915 76.460, 239.043 72.804, 240.045 66.175, 241.441 61.716, 242.055 55.074, 242.074 50.249, 241.517 46.062, 240.093 41.896, 237.542 39.256, 235.266 36.662, 232.140 35.697, 228.418 35.306, 224.611 35.145, 221.269 35.294, 224.814 35.697, 228.418 " />
            <path fill="none" stroke-width="3.0" stroke-linecap="butt" stroke-opacity="1.0" stroke="rgb(0, 0, 0)" stroke-linejoin="round" d=" M 164.163, 181.792 167.674, 185.171 171.534, 187.789 174.402, 189.215 175.307, 189.665 178.670, 190.805 182.412, 191.877 185.686, 192.028 189.331, 191.813 191.807, 191.364 191.966, 191.335 194.833, 190.399 196.930, 189.400 199.048, 188.105 201.187, 186.521 202.589, 185.155 204.924, 182.598 206.078, 180.491 207.725, 177.232 208.496, 174.298 209.270, 170.944 209.472, 167.030 208.917, 163.029 208.442, 160.631 207.175, 156.067 204.778, 150.341 201.773, 145.324 199.670, 142.273 199.643, 142.234 198.702, 140.869 197.077, 138.652 193.761, 134.710 190.775, 132.161 190.020, 131.518 184.557, 128.588 " />
            <path fill="none" stroke-width="3.0" stroke-linecap="butt" stroke-opacity="1.0" stroke="rgb(0, 0, 0)" stroke-linejoin="round" d=" M 114.465, 69.354 115.094, 68.835 115.239, 68.511 115.277, 68.427 117.234, 64.072 117.884, 62.471 117.849, 58.792 116.630, 56.129 114.920, 52.435 112.012, 50.188 " />
            <path fill="none" stroke-width="3.0" stroke-linecap="butt" stroke-opacity="1.0" stroke="rgb(0, 0, 0)" stroke-linejoin="round" d=" M 51.319, 54.969 51.281, 55.072 49.653, 59.481 47.912, 65.497 47.110, 73.244 48.445, 78.357 48.894, 79.709 51.635, 80.941 56.414, 82.117 59.175, 82.409 59.824, 82.478 60.636, 82.564 66.357, 81.515 71.739, 80.103 74.721, 78.917 76.565, 78.124 " />
            <path fill="none" stroke-width="3.0" stroke-linecap="butt" stroke-opacity="1.0" stroke="rgb(0, 0, 0)" stroke-linejoin="round" d=" M 32.025, 106.361 33.819, 103.649 35.754, 100.722 43.482, 98.445 49.082, 96.794 49.342, 96.785 58.527, 96.453 60.668, 96.375 61.622, 96.341 70.557, 96.018 72.324, 95.954 72.330, 95.954 73.748, 95.902 83.714, 96.726 93.680, 97.550 102.273, 98.261 106.270, 98.591 111.045, 99.436 111.397, 99.499 121.244, 101.241 131.091, 102.983 140.438, 104.637 150.112, 107.168 159.787, 109.699 169.461, 112.230 171.168, 112.677 173.785, 113.688 175.300, 114.274 177.894, 115.277 " />
            <path fill="none" stroke-width="3.0" stroke-linecap="butt" stroke-opacity="1.0" stroke="rgb(0, 0, 0)" stroke-linejoin="round" d=" M 199.670, 142.273 200.940, 142.016 207.107, 137.460 204.755, 130.976 199.567, 127.629 194.390, 124.289 " />
            <path fill="none" stroke-width="3.0" stroke-linecap="butt" stroke-opacity="1.0" stroke="rgb(0, 0, 0)" stroke-linejoin="round" d=" M 43.340, 101.861 53.040, 99.430 54.992, 98.941 " />
            <path fill="none" stroke-width="3.0" stroke-linecap="butt" stroke-opacity="1.0" stroke="rgb(0, 0, 0)" stroke-linejoin="round" d=" M 51.971, 99.033 44.422, 100.946 42.343, 101.473 38.094, 102.550 34.204, 107.980 34.807, 108.792 " />
            <path fill="none" stroke-width="3.0" stroke-linecap="butt" stroke-opacity="1.0" stroke="rgb(0, 0, 0)" stroke-linejoin="round" d=" M 51.971, 99.033 54.992, 98.941 59.651, 98.798 61.611, 98.738 63.183, 98.690 67.498, 98.557 73.478, 98.374 74.043, 98.357 75.523, 98.312 75.929, 98.346 85.894, 99.182 95.859, 100.019 100.061, 100.372 105.372, 100.818 106.326, 100.898 111.990, 101.864 113.386, 102.102 123.243, 103.782 133.101, 105.463 139.733, 106.594 149.413, 109.102 159.093, 111.611 168.773, 114.120 169.955, 114.426 174.817, 116.283 " />
            <path fill="none" stroke-width="3.0" stroke-linecap="butt" stroke-opacity="1.0" stroke="rgb(0, 0, 0)" stroke-linejoin="round" d=" M 102.426, 70.134 102.784, 70.838 103.546, 72.330 104.304, 72.309 106.842, 72.239 " />
            <path fill="none" stroke-width="3.0" stroke-linecap="butt" stroke-opacity="1.0" stroke="rgb(0, 0, 0)" stroke-linejoin="round" d=" M 59.175, 82.409 56.215, 83.752 47.293, 88.267 45.461, 89.193 40.035, 93.194 35.955, 97.048 33.332, 100.207 31.956, 103.011 31.134, 105.999 31.274, 108.429 31.788, 110.573 37.085, 114.685 39.714, 116.152 41.130, 115.660 41.341, 115.587 42.896, 115.047 44.573, 113.892 45.664, 113.141 47.091, 108.136 " />
            <path fill="none" stroke-width="3.0" stroke-linecap="butt" stroke-opacity="1.0" stroke="rgb(0, 0, 0)" stroke-linejoin="round" d=" M 34.435, 112.153 31.788, 110.573 " />
            <path fill="none" stroke-width="3.0" stroke-linecap="butt" stroke-opacity="1.0" stroke="rgb(0, 0, 0)" stroke-linejoin="round" d=" M 45.664, 113.141 40.897, 110.782 " />
            <path fill="none" stroke-width="3.0" stroke-linecap="butt" stroke-opacity="1.0" stroke="rgb(0, 0, 0)" stroke-linejoin="round" d=" M 41.668, 108.632 40.897, 110.782 37.572, 111.714 " />
            <path fill="none" stroke-width="3.0" stroke-linecap="butt" stroke-opacity="1.0" stroke="rgb(0, 0, 0)" stroke-linejoin="round" d=" M 45.461, 89.193 49.400, 87.421 51.711, 86.380 53.021, 85.791 58.945, 83.871 63.624, 82.355 73.566, 81.276 75.756, 81.039 78.105, 80.974 78.620, 80.960 82.399, 80.855 " />
            <path fill="none" stroke-width="3.0" stroke-linecap="butt" stroke-opacity="1.0" stroke="rgb(0, 0, 0)" stroke-linejoin="round" d=" M 174.817, 116.283 175.349, 117.622 178.171, 119.080 180.699, 120.088 182.159, 120.671 188.928, 123.372 193.268, 125.104 193.944, 124.613 194.390, 124.289 195.306, 123.624 195.555, 122.401 195.807, 121.166 196.055, 119.949 192.971, 115.312 192.375, 114.741 188.985, 111.489 186.306, 108.918 181.569, 105.560 178.496, 103.382 172.083, 98.702 170.514, 97.791 164.567, 94.336 164.472, 94.281 163.304, 93.602 154.346, 89.885 151.927, 88.881 142.384, 85.893 139.170, 84.886 129.560, 82.119 126.430, 81.217 116.575, 79.519 113.761, 79.034 104.901, 77.563 103.741, 77.371 102.853, 77.224 " />
            <path fill="none" stroke-width="3.0" stroke-linecap="butt" stroke-opacity="1.0" stroke="rgb(0, 0, 0)" stroke-linejoin="round" d=" M 96.137, 81.855 103.068, 82.592 105.437, 82.843 105.619, 82.889 115.320, 85.316 121.747, 86.923 131.343, 89.737 132.862, 90.183 136.056, 91.120 145.382, 94.728 148.992, 96.124 158.158, 100.123 160.330, 101.070 168.913, 105.199 175.622, 108.867 180.940, 112.732 181.896, 114.150 182.979, 115.756 183.438, 118.342 182.273, 119.132 181.059, 119.955 " />
            <path fill="none" stroke-width="3.0" stroke-linecap="butt" stroke-opacity="1.0" stroke="rgb(0, 0, 0)" stroke-linejoin="round" d=" M 91.006, 78.635 92.292, 76.801 94.797, 73.226 94.915, 72.849 95.987, 69.424 96.319, 68.362 96.635, 67.355 97.015, 66.138 97.384, 64.959 98.117, 58.563 98.205, 55.512 98.254, 53.796 " />
            <path fill="none" stroke-width="3.0" stroke-linecap="butt" stroke-opacity="1.0" stroke="rgb(0, 0, 0)" stroke-linejoin="round" d=" M 70.170, 73.422 73.432, 75.730 76.941, 77.556 78.206, 78.215 79.038, 78.399 81.721, 78.991 85.259, 79.773 91.006, 78.635 92.306, 80.072 92.595, 80.257 94.067, 81.201 94.325, 81.367 96.296, 81.822 " />
            <path fill="none" stroke-width="3.0" stroke-linecap="butt" stroke-opacity="1.0" stroke="rgb(0, 0, 0)" stroke-linejoin="round" d=" M 71.037, 74.718 70.170, 73.422 66.002, 75.708 63.395, 76.824 60.400, 78.106 53.206, 79.516 48.445, 78.357 " />
            <path fill="none" stroke-width="3.0" stroke-linecap="butt" stroke-opacity="1.0" stroke="rgb(0, 0, 0)" stroke-linejoin="round" d=" M 71.037, 74.718 75.838, 77.697 75.943, 77.759 76.565, 78.124 78.115, 79.035 78.715, 79.290 80.234, 79.935 80.811, 80.181 81.286, 80.383 82.399, 80.855 82.803, 81.027 83.713, 81.414 86.093, 81.940 87.295, 82.205 88.564, 82.486 90.961, 82.929 94.783, 82.136 96.137, 81.855 96.296, 81.822 96.607, 81.384 97.364, 80.317 98.492, 78.730 99.653, 77.096 100.287, 76.203 101.794, 72.722 102.220, 70.979 102.426, 70.134 102.846, 68.413 103.015, 67.722 103.417, 66.078 103.420, 66.063 103.609, 65.291 104.144, 63.032 104.552, 61.311 106.015, 59.214 106.351, 58.732 106.526, 58.482 108.125, 56.191 109.840, 53.541 112.012, 50.188 113.645, 47.667 115.785, 43.791 115.997, 43.067 117.449, 38.125 117.041, 34.968 115.504, 32.731 112.325, 28.497 107.373, 26.101 104.412, 25.017 98.989, 23.957 97.791, 23.832 94.839, 23.525 " />
            <path fill="none" stroke-width="3.0" stroke-linecap="butt" stroke-opacity="1.0" stroke="rgb(0, 0, 0)" stroke-linejoin="round" d=" M 51.281, 55.072 48.846, 51.469 46.227, 46.477 45.086, 41.140 45.715, 35.692 49.924, 31.493 56.631, 27.929 62.023, 26.276 66.105, 25.352 68.680, 21.362 72.521, 16.173 78.453, 10.356 83.657, 7.613 87.952, 9.577 91.818, 14.724 93.751, 19.642 94.839, 23.525 " />
            <path fill="none" stroke-width="3.0" stroke-linecap="butt" stroke-opacity="1.0" stroke="rgb(0, 0, 0)" stroke-linejoin="round" d=" M 101.897, 56.853 101.306, 56.290 101.083, 56.078 100.435, 55.461 100.152, 55.192 99.704, 54.765 98.254, 53.796 99.289, 52.880 101.175, 51.212 102.699, 49.864 102.814, 49.743 103.549, 48.972 107.567, 44.760 108.093, 44.208 111.966, 38.200 113.777, 32.199 110.670, 28.049 104.412, 25.017 " />
            <path fill="none" stroke-width="3.0" stroke-linecap="butt" stroke-opacity="1.0" stroke="rgb(0, 0, 0)" stroke-linejoin="round" d=" M 97.791, 23.832 96.605, 21.384 94.376, 16.598 91.080, 12.231 89.119, 9.669 84.736, 7.668 83.657, 7.613 " />
            <path fill="none" stroke-width="3.0" stroke-linecap="butt" stroke-opacity="1.0" stroke="rgb(0, 0, 0)" stroke-linejoin="round" d=" M 48.846, 51.469 51.319, 54.969 " />
            <path fill="none" stroke-width="3.0" stroke-linecap="butt" stroke-opacity="1.0" stroke="rgb(0, 0, 0)" stroke-linejoin="round" d=" M 186.506, 90.094 186.489, 90.035 184.001, 83.601 179.418, 74.713 178.262, 72.471 171.931, 64.730 170.963, 63.545 164.415, 58.039 156.724, 51.709 149.008, 47.888 143.541, 45.748 140.335, 44.752 137.549, 43.888 131.072, 42.781 128.194, 42.675 124.837, 42.551 118.765, 42.720 115.997, 43.067 " />
            <path fill="none" stroke-width="3.0" stroke-linecap="butt" stroke-opacity="1.0" stroke="rgb(0, 0, 0)" stroke-linejoin="round" d=" M 191.126, 107.641 190.892, 107.062 182.759, 101.243 180.595, 99.695 176.664, 98.041 167.446, 94.163 162.889, 92.245 160.535, 91.595 154.346, 89.885 " />
            <path fill="none" stroke-width="3.0" stroke-linecap="butt" stroke-opacity="1.0" stroke="rgb(0, 0, 0)" stroke-linejoin="round" d=" M 116.974, 68.525 115.277, 68.427 " />
            <path fill="none" stroke-width="3.0" stroke-linecap="butt" stroke-opacity="1.0" stroke="rgb(0, 0, 0)" stroke-linejoin="round" d=" M 116.974, 68.525 120.676, 69.093 130.560, 70.609 137.715, 71.707 140.995, 72.211 " />
            <path fill="none" stroke-width="3.0" stroke-linecap="butt" stroke-opacity="1.0" stroke="rgb(0, 0, 0)" stroke-linejoin="round" d=" M 192.198, 108.406 189.739, 98.713 188.870, 95.287 186.506, 90.094 186.043, 89.077 185.077, 87.993 " />
            <path fill="none" stroke-width="3.0" stroke-linecap="butt" stroke-opacity="1.0" stroke="rgb(0, 0, 0)" stroke-linejoin="round" d=" M 140.335, 44.752 139.182, 43.442 135.710, 42.074 131.677, 41.653 128.684, 42.341 128.194, 42.675 " />
            <path fill="none" stroke-width="3.0" stroke-linecap="butt" stroke-opacity="1.0" stroke="rgb(0, 0, 0)" stroke-linejoin="round" d=" M 200.940, 142.016 202.922, 141.572 209.448, 136.821 210.397, 133.066 208.209, 126.082 204.540, 120.479 198.977, 113.245 192.198, 108.406 191.126, 107.641 187.497, 105.050 182.389, 101.785 178.357, 100.100 169.130, 96.243 164.567, 94.336 " />
            <path fill="none" stroke-width="3.0" stroke-linecap="butt" stroke-opacity="1.0" stroke="rgb(0, 0, 0)" stroke-linejoin="round" d=" M 195.555, 122.401 197.127, 123.435 205.482, 128.931 207.173, 130.044 209.448, 136.821 " />
            <path fill="none" stroke-width="3.0" stroke-linecap="butt" stroke-opacity="1.0" stroke="rgb(0, 0, 0)" stroke-linejoin="round" d=" M 42.065, 92.813 36.467, 96.810 32.579, 102.766 32.025, 106.361 " />
            <path fill="none" stroke-width="3.0" stroke-linecap="butt" stroke-opacity="1.0" stroke="rgb(0, 0, 0)" stroke-linejoin="round" d=" M 208.209, 126.082 199.946, 120.450 195.675, 117.539 " />
            <path fill="none" stroke-width="3.0" stroke-linecap="butt" stroke-opacity="1.0" stroke="rgb(0, 0, 0)" stroke-linejoin="round" d=" M 41.130, 115.660 48.735, 120.075 " />
            <path fill="none" stroke-width="3.0" stroke-linecap="butt" stroke-opacity="1.0" stroke="rgb(0, 0, 0)" stroke-linejoin="round" d=" M 102.405, 77.717 102.582, 77.213 104.304, 72.309 " />
            <path fill="none" stroke-width="3.0" stroke-linecap="butt" stroke-opacity="1.0" stroke="rgb(0, 0, 0)" stroke-linejoin="round" d=" M 164.163, 181.792 165.952, 183.384 " />
            <path fill="none" stroke-width="3.0" stroke-linecap="butt" stroke-opacity="1.0" stroke="rgb(0, 0, 0)" stroke-linejoin="round" d=" M 193.944, 124.613 200.120, 128.580 " />
        </g>
    </g>
</svg>
