<?xml version='1.0' encoding='ascii'?>
<svg xmlns="http://www.w3.org/2000/svg" version="1.1" width="250" height="250">
    <g id="ViewLayer_LineSet" xmlns:inkscape="http://www.inkscape.org/namespaces/inkscape" inkscape:groupmode="lineset" inkscape:label="ViewLayer_LineSet">
        <g xmlns:inkscape="http://www.inkscape.org/namespaces/inkscape" inkscape:groupmode="layer" id="strokes" inkscape:label="strokes">
            <path fill="none" stroke-width="3.0" stroke-linecap="butt" stroke-opacity="1.0" stroke="rgb(0, 0, 0)" stroke-linejoin="round" d=" M 59.754, 96.034 59.373, 96.513 57.969, 98.280 53.732, 105.404 49.921, 114.087 49.251, 116.254 48.318, 119.272 48.218, 119.595 47.735, 121.158 47.251, 122.722 45.998, 128.854 45.453, 135.209 45.227, 139.749 45.456, 145.374 45.936, 149.905 46.798, 154.511 47.645, 158.482 48.932, 162.801 50.597, 167.276 51.685, 169.725 52.567, 171.713 54.757, 175.921 57.073, 179.714 59.416, 182.919 62.350, 186.846 65.337, 190.099 69.452, 194.212 70.450, 194.985 72.899, 196.880 78.080, 200.878 84.048, 204.460 89.788, 207.079 93.600, 208.708 98.511, 210.095 103.208, 211.253 " />
            <path fill="none" stroke-width="3.0" stroke-linecap="butt" stroke-opacity="1.0" stroke="rgb(0, 0, 0)" stroke-linejoin="round" d=" M 189.859, 123.363 188.910, 118.919 188.571, 118.044 " />
            <path fill="none" stroke-width="3.0" stroke-linecap="butt" stroke-opacity="1.0" stroke="rgb(0, 0, 0)" stroke-linejoin="round" d=" M 169.648, 192.078 174.486, 187.057 176.483, 184.246 181.765, 176.481 " />
            <path fill="none" stroke-width="3.0" stroke-linecap="butt" stroke-opacity="1.0" stroke="rgb(0, 0, 0)" stroke-linejoin="round" d=" M 77.110, 147.782 77.665, 149.181 79.029, 151.248 79.258, 151.449 80.925, 152.904 83.122, 154.128 85.165, 154.567 87.261, 154.491 89.637, 153.658 91.687, 152.323 93.238, 150.471 93.954, 149.153 " />
            <path fill="none" stroke-width="3.0" stroke-linecap="butt" stroke-opacity="1.0" stroke="rgb(0, 0, 0)" stroke-linejoin="round" d=" M 117.419, 98.384 117.969, 100.225 118.054, 100.511 118.507, 103.894 118.547, 107.713 118.563, 107.782 117.444, 116.187 117.198, 117.028 117.161, 117.156 116.217, 120.394 114.711, 124.680 112.955, 128.676 111.012, 132.188 108.950, 135.043 107.598, 136.359 107.221, 136.726 106.840, 137.097 104.753, 138.246 102.763, 138.432 101.436, 137.857 100.941, 137.642 99.363, 135.909 99.001, 135.168 98.754, 134.661 98.096, 133.312 97.202, 129.974 96.729, 126.054 96.707, 121.743 97.143, 117.246 97.938, 113.157 97.971, 112.986 98.000, 112.839 99.203, 108.682 100.725, 104.784 102.506, 101.287 104.475, 98.315 105.545, 97.110 " />
            <path fill="none" stroke-width="3.0" stroke-linecap="butt" stroke-opacity="1.0" stroke="rgb(0, 0, 0)" stroke-linejoin="round" d=" M 77.311, 116.216 76.398, 120.219 76.332, 120.506 75.248, 124.614 74.071, 128.340 73.986, 128.555 73.827, 128.951 72.809, 131.497 71.469, 133.924 70.064, 135.503 68.880, 136.042 68.624, 136.158 67.212, 136.159 65.836, 134.630 64.627, 132.535 63.651, 129.683 62.988, 126.220 62.950, 125.690 62.916, 125.226 62.705, 122.320 62.843, 118.171 63.117, 116.140 63.402, 114.029 64.269, 110.037 65.388, 106.199 66.713, 102.650 67.077, 101.878 67.329, 101.344 68.192, 99.513 69.766, 96.895 70.767, 95.643 " />
            <path fill="none" stroke-width="3.0" stroke-linecap="butt" stroke-opacity="1.0" stroke="rgb(0, 0, 0)" stroke-linejoin="round" d=" M 67.212, 136.159 70.419, 137.588 " />
            <path fill="none" stroke-width="3.0" stroke-linecap="butt" stroke-opacity="1.0" stroke="rgb(0, 0, 0)" stroke-linejoin="round" d=" M 77.775, 95.394 77.875, 95.569 78.528, 97.863 78.888, 100.765 78.998, 104.243 78.775, 106.929 78.750, 107.240 78.689, 107.975 " />
            <path fill="none" stroke-width="3.0" stroke-linecap="butt" stroke-opacity="1.0" stroke="rgb(0, 0, 0)" stroke-linejoin="round" d=" M 80.420, 118.209 77.311, 116.216 78.135, 112.018 78.689, 107.975 81.758, 110.061 " />
            <path fill="none" stroke-width="3.0" stroke-linecap="butt" stroke-opacity="1.0" stroke="rgb(0, 0, 0)" stroke-linejoin="round" d=" M 163.972, 237.529 165.112, 236.398 170.493, 231.060 174.775, 224.790 176.430, 221.324 177.449, 216.309 178.334, 212.539 178.186, 208.376 176.872, 203.979 175.573, 200.048 173.139, 195.650 170.307, 192.658 169.648, 192.078 " />
            <path fill="none" stroke-width="3.0" stroke-linecap="butt" stroke-opacity="1.0" stroke="rgb(0, 0, 0)" stroke-linejoin="round" d=" M 142.022, 246.870 146.581, 246.543 152.453, 245.385 156.350, 243.459 161.008, 240.589 165.112, 236.398 " />
            <path fill="none" stroke-width="3.0" stroke-linecap="butt" stroke-opacity="1.0" stroke="rgb(0, 0, 0)" stroke-linejoin="round" d=" M 105.016, 206.981 103.208, 211.253 103.102, 211.505 100.355, 218.231 99.238, 222.468 98.916, 226.465 98.818, 229.306 98.885, 231.733 98.916, 232.876 99.947, 236.499 102.250, 240.021 104.676, 242.886 108.688, 245.214 114.189, 246.643 119.579, 247.455 122.689, 247.590 129.040, 247.932 137.485, 247.564 142.022, 246.870 145.384, 246.356 " />
            <path fill="none" stroke-width="3.0" stroke-linecap="butt" stroke-opacity="1.0" stroke="rgb(0, 0, 0)" stroke-linejoin="round" d=" M 70.450, 194.985 69.452, 197.527 67.532, 203.991 66.883, 207.402 66.734, 212.290 66.665, 215.507 67.256, 218.199 69.110, 223.036 70.362, 225.573 73.769, 229.113 78.125, 231.896 82.475, 233.182 84.747, 233.630 89.208, 233.831 95.051, 233.102 98.885, 231.733 " />
            <path fill="none" stroke-width="3.0" stroke-linecap="butt" stroke-opacity="1.0" stroke="rgb(0, 0, 0)" stroke-linejoin="round" d=" M 180.693, 175.935 181.765, 176.481 186.716, 179.002 191.453, 180.515 195.864, 181.343 200.246, 181.460 203.932, 180.847 207.285, 179.766 210.345, 178.180 213.152, 176.131 215.644, 173.707 217.725, 170.760 219.273, 167.672 220.265, 164.469 220.642, 161.120 220.426, 156.389 219.409, 152.078 217.623, 147.922 215.025, 143.592 210.727, 138.334 207.021, 134.591 206.586, 134.151 206.273, 133.835 201.889, 129.924 197.253, 126.731 192.213, 124.217 189.859, 123.363 " />
            <path fill="none" stroke-width="3.0" stroke-linecap="butt" stroke-opacity="1.0" stroke="rgb(0, 0, 0)" stroke-linejoin="round" d=" M 47.735, 121.158 47.213, 121.430 43.288, 124.276 39.615, 127.750 35.924, 131.734 34.579, 133.198 31.003, 137.747 29.011, 141.457 27.681, 144.996 26.994, 148.616 26.968, 152.784 27.355, 155.234 28.119, 157.694 29.414, 160.462 31.269, 163.235 33.492, 165.466 35.906, 167.265 38.124, 168.479 40.366, 169.271 41.602, 169.695 44.632, 170.326 48.252, 170.321 51.685, 169.725 " />
            <path fill="none" stroke-width="3.0" stroke-linecap="butt" stroke-opacity="1.0" stroke="rgb(0, 0, 0)" stroke-linejoin="round" d=" M 118.839, 66.319 119.544, 65.774 119.694, 65.467 119.732, 65.390 121.398, 61.978 122.384, 59.401 122.365, 55.712 121.347, 53.021 119.441, 49.324 117.613, 47.997 " />
            <path fill="none" stroke-width="3.0" stroke-linecap="butt" stroke-opacity="1.0" stroke="rgb(0, 0, 0)" stroke-linejoin="round" d=" M 56.078, 51.434 55.980, 51.710 54.462, 55.994 52.821, 62.077 52.251, 69.914 52.542, 71.195 54.194, 76.466 56.686, 77.743 60.262, 78.559 61.834, 78.918 62.118, 78.953 65.722, 79.408 71.737, 78.336 77.305, 76.907 82.825, 74.694 82.889, 74.669 " />
            <path fill="none" stroke-width="3.0" stroke-linecap="butt" stroke-opacity="1.0" stroke="rgb(0, 0, 0)" stroke-linejoin="round" d=" M 33.788, 108.654 31.577, 103.989 32.758, 102.802 37.460, 98.075 42.035, 96.856 50.094, 94.710 53.162, 93.893 56.211, 93.770 58.946, 93.659 61.732, 93.547 71.724, 93.144 74.179, 93.045 75.154, 93.005 79.968, 92.811 89.939, 93.570 99.910, 94.329 107.892, 94.937 113.714, 95.380 116.179, 95.812 116.209, 95.817 126.058, 97.544 135.908, 99.271 145.758, 100.998 147.734, 101.344 157.388, 103.953 167.042, 106.562 176.695, 109.171 177.170, 109.299 178.219, 109.741 178.478, 109.850 183.142, 111.814 " />
            <path fill="none" stroke-width="3.0" stroke-linecap="butt" stroke-opacity="1.0" stroke="rgb(0, 0, 0)" stroke-linejoin="round" d=" M 206.586, 134.151 206.756, 134.048 206.393, 127.505 200.001, 122.509 197.988, 120.936 " />
            <path fill="none" stroke-width="3.0" stroke-linecap="butt" stroke-opacity="1.0" stroke="rgb(0, 0, 0)" stroke-linejoin="round" d=" M 44.953, 99.237 54.697, 96.987 58.650, 96.074 " />
            <path fill="none" stroke-width="3.0" stroke-linecap="butt" stroke-opacity="1.0" stroke="rgb(0, 0, 0)" stroke-linejoin="round" d=" M 38.821, 113.613 45.641, 118.155 47.121, 119.138 48.218, 119.595 " />
            <path fill="none" stroke-width="3.0" stroke-linecap="butt" stroke-opacity="1.0" stroke="rgb(0, 0, 0)" stroke-linejoin="round" d=" M 55.962, 96.169 46.222, 98.436 45.733, 98.550 41.085, 99.631 39.789, 99.933 33.778, 105.631 34.540, 107.285 " />
            <path fill="none" stroke-width="3.0" stroke-linecap="butt" stroke-opacity="1.0" stroke="rgb(0, 0, 0)" stroke-linejoin="round" d=" M 55.962, 96.169 58.650, 96.074 58.858, 96.066 59.754, 96.034 60.728, 96.000 70.767, 95.643 76.810, 95.428 77.775, 95.394 78.906, 95.353 81.515, 95.261 91.486, 96.028 101.456, 96.796 105.545, 97.110 110.494, 97.491 113.468, 97.720 117.419, 98.384 117.884, 98.462 117.895, 98.464 127.757, 100.120 137.618, 101.776 145.176, 103.045 146.803, 103.319 156.464, 105.899 166.126, 108.480 175.777, 111.058 179.367, 112.549 184.868, 114.835 " />
            <path fill="none" stroke-width="3.0" stroke-linecap="butt" stroke-opacity="1.0" stroke="rgb(0, 0, 0)" stroke-linejoin="round" d=" M 57.441, 80.910 49.034, 85.410 47.502, 86.230 47.253, 86.363 40.991, 90.487 36.184, 94.460 33.015, 97.717 31.202, 100.605 30.031, 103.675 30.024, 106.160 30.489, 108.345 34.820, 112.594 37.501, 114.074 38.821, 113.613 38.823, 113.613 40.765, 112.935 41.964, 112.117 43.623, 110.984 45.210, 105.887 " />
            <path fill="none" stroke-width="3.0" stroke-linecap="butt" stroke-opacity="1.0" stroke="rgb(0, 0, 0)" stroke-linejoin="round" d=" M 33.221, 109.939 30.489, 108.345 " />
            <path fill="none" stroke-width="3.0" stroke-linecap="butt" stroke-opacity="1.0" stroke="rgb(0, 0, 0)" stroke-linejoin="round" d=" M 43.623, 110.984 39.891, 108.515 " />
            <path fill="none" stroke-width="3.0" stroke-linecap="butt" stroke-opacity="1.0" stroke="rgb(0, 0, 0)" stroke-linejoin="round" d=" M 40.737, 106.266 39.891, 108.515 36.467, 109.478 " />
            <path fill="none" stroke-width="3.0" stroke-linecap="butt" stroke-opacity="1.0" stroke="rgb(0, 0, 0)" stroke-linejoin="round" d=" M 62.118, 78.953 59.217, 80.167 57.441, 80.910 50.484, 84.280 47.502, 86.230 " />
            <path fill="none" stroke-width="3.0" stroke-linecap="butt" stroke-opacity="1.0" stroke="rgb(0, 0, 0)" stroke-linejoin="round" d=" M 47.253, 86.363 47.376, 86.312 49.939, 85.250 50.102, 85.182 52.742, 84.088 55.728, 82.851 57.903, 82.189 67.362, 79.310 77.307, 78.262 79.161, 78.066 80.462, 77.929 81.830, 77.890 87.701, 77.720 89.607, 77.798 89.996, 77.814 " />
            <path fill="none" stroke-width="3.0" stroke-linecap="butt" stroke-opacity="1.0" stroke="rgb(0, 0, 0)" stroke-linejoin="round" d=" M 179.367, 112.549 180.076, 114.285 183.096, 115.693 183.242, 115.756 184.564, 116.324 188.571, 118.044 196.949, 121.641 197.020, 121.592 197.988, 120.936 198.712, 120.444 199.154, 120.145 199.404, 119.056 199.990, 116.499 197.086, 111.923 192.333, 107.318 190.586, 105.625 183.024, 100.161 181.403, 98.954 179.343, 97.420 177.035, 95.701 176.804, 95.530 172.371, 92.904 168.265, 90.472 161.728, 87.731 157.078, 85.781 156.897, 85.725 147.353, 82.741 144.361, 81.806 134.747, 79.054 131.560, 78.143 121.701, 76.469 118.695, 75.959 109.287, 74.436 107.498, 74.147 " />
            <path fill="none" stroke-width="3.0" stroke-linecap="butt" stroke-opacity="1.0" stroke="rgb(0, 0, 0)" stroke-linejoin="round" d=" M 102.429, 78.763 107.777, 79.308 111.468, 79.684 113.033, 80.066 122.748, 82.438 128.127, 83.752 137.731, 86.536 142.536, 87.928 142.915, 88.075 152.240, 91.686 155.382, 92.902 164.537, 96.925 166.538, 97.804 174.912, 101.888 181.367, 105.514 184.685, 108.012 186.443, 109.334 187.615, 111.194 188.058, 111.897 188.331, 112.330 188.610, 114.284 188.697, 114.895 187.619, 115.587 187.250, 115.825 186.159, 116.525 " />
            <path fill="none" stroke-width="3.0" stroke-linecap="butt" stroke-opacity="1.0" stroke="rgb(0, 0, 0)" stroke-linejoin="round" d=" M 99.131, 75.264 100.104, 73.871 102.929, 69.829 103.473, 67.968 103.903, 66.493 104.236, 65.352 104.480, 64.518 104.918, 63.019 105.265, 61.829 105.350, 61.538 105.887, 55.126 105.875, 53.349 105.868, 52.266 105.858, 50.776 105.856, 50.347 " />
            <path fill="none" stroke-width="3.0" stroke-linecap="butt" stroke-opacity="1.0" stroke="rgb(0, 0, 0)" stroke-linejoin="round" d=" M 76.872, 70.061 80.423, 72.380 83.137, 73.691 83.844, 74.033 84.929, 74.557 85.580, 74.871 93.103, 76.421 99.131, 75.264 99.627, 75.863 100.336, 76.719 102.001, 78.054 103.048, 78.416 103.454, 78.557 " />
            <path fill="none" stroke-width="3.0" stroke-linecap="butt" stroke-opacity="1.0" stroke="rgb(0, 0, 0)" stroke-linejoin="round" d=" M 54.194, 76.466 53.872, 75.084 " />
            <path fill="none" stroke-width="3.0" stroke-linecap="butt" stroke-opacity="1.0" stroke="rgb(0, 0, 0)" stroke-linejoin="round" d=" M 79.896, 72.943 77.629, 71.383 76.872, 70.061 72.523, 72.372 66.642, 74.803 62.153, 75.650 59.012, 76.243 53.872, 75.084 52.251, 69.914 " />
            <path fill="none" stroke-width="3.0" stroke-linecap="butt" stroke-opacity="1.0" stroke="rgb(0, 0, 0)" stroke-linejoin="round" d=" M 110.684, 57.885 110.888, 57.599 110.889, 57.598 111.158, 57.220 114.209, 52.930 114.469, 52.553 117.613, 47.997 118.890, 46.148 122.562, 40.487 122.723, 39.896 124.105, 34.830 124.156, 31.626 122.972, 29.343 119.490, 25.090 114.212, 22.658 111.275, 21.534 105.533, 20.433 103.079, 20.173 101.145, 19.968 " />
            <path fill="none" stroke-width="3.0" stroke-linecap="butt" stroke-opacity="1.0" stroke="rgb(0, 0, 0)" stroke-linejoin="round" d=" M 53.298, 47.889 52.571, 46.660 50.304, 42.830 48.881, 37.425 49.352, 31.913 53.708, 27.688 60.751, 24.129 66.447, 22.497 70.764, 21.594 73.357, 17.591 77.249, 12.393 83.332, 6.591 88.745, 3.883 93.362, 5.902 97.634, 11.110 99.855, 16.063 101.145, 19.968 " />
            <path fill="none" stroke-width="3.0" stroke-linecap="butt" stroke-opacity="1.0" stroke="rgb(0, 0, 0)" stroke-linejoin="round" d=" M 108.990, 53.481 107.515, 51.720 107.195, 51.339 105.996, 50.451 105.856, 50.347 106.145, 50.096 106.683, 49.630 110.386, 46.417 110.757, 46.033 115.843, 40.772 116.160, 40.278 119.684, 34.776 121.361, 28.785 117.953, 24.614 111.275, 21.534 " />
            <path fill="none" stroke-width="3.0" stroke-linecap="butt" stroke-opacity="1.0" stroke="rgb(0, 0, 0)" stroke-linejoin="round" d=" M 52.571, 46.660 52.583, 46.686 53.298, 47.889 55.980, 51.710 " />
            <path fill="none" stroke-width="3.0" stroke-linecap="butt" stroke-opacity="1.0" stroke="rgb(0, 0, 0)" stroke-linejoin="round" d=" M 103.079, 20.173 102.185, 17.890 99.700, 13.066 98.276, 10.746 94.391, 6.021 89.685, 3.966 88.745, 3.883 " />
            <path fill="none" stroke-width="3.0" stroke-linecap="butt" stroke-opacity="1.0" stroke="rgb(0, 0, 0)" stroke-linejoin="round" d=" M 53.298, 47.889 56.078, 51.434 " />
            <path fill="none" stroke-width="3.0" stroke-linecap="butt" stroke-opacity="1.0" stroke="rgb(0, 0, 0)" stroke-linejoin="round" d=" M 191.357, 102.576 188.452, 93.008 186.415, 86.298 185.410, 85.231 184.201, 80.892 179.345, 72.150 178.088, 69.889 171.547, 62.325 170.440, 61.045 164.760, 55.484 156.780, 49.457 156.442, 49.202 149.220, 45.314 142.953, 43.209 138.071, 41.607 137.132, 41.298 130.681, 40.144 126.751, 39.980 124.322, 39.878 122.723, 39.896 " />
            <path fill="none" stroke-width="3.0" stroke-linecap="butt" stroke-opacity="1.0" stroke="rgb(0, 0, 0)" stroke-linejoin="round" d=" M 79.896, 72.943 82.036, 74.177 82.841, 74.641 82.889, 74.669 83.778, 75.181 84.650, 75.684 84.774, 75.755 88.313, 77.151 89.904, 77.779 89.996, 77.814 90.800, 78.132 91.020, 78.186 92.251, 78.488 94.618, 78.993 97.860, 79.684 100.185, 79.216 102.429, 78.763 103.454, 78.557 103.529, 78.449 104.244, 77.427 106.563, 74.112 106.667, 73.963 107.398, 72.918 108.643, 69.223 108.842, 68.630 109.146, 67.042 109.461, 65.391 109.572, 64.809 110.261, 61.204 110.684, 57.885 110.740, 57.452 110.777, 57.161 110.848, 56.603 110.911, 56.107 " />
            <path fill="none" stroke-width="3.0" stroke-linecap="butt" stroke-opacity="1.0" stroke="rgb(0, 0, 0)" stroke-linejoin="round" d=" M 186.451, 99.485 183.133, 96.660 174.631, 92.767 166.852, 89.205 161.728, 87.731 " />
            <path fill="none" stroke-width="3.0" stroke-linecap="butt" stroke-opacity="1.0" stroke="rgb(0, 0, 0)" stroke-linejoin="round" d=" M 121.293, 65.479 119.732, 65.390 " />
            <path fill="none" stroke-width="3.0" stroke-linecap="butt" stroke-opacity="1.0" stroke="rgb(0, 0, 0)" stroke-linejoin="round" d=" M 121.293, 65.479 131.170, 67.042 141.047, 68.606 145.074, 69.243 " />
            <path fill="none" stroke-width="3.0" stroke-linecap="butt" stroke-opacity="1.0" stroke="rgb(0, 0, 0)" stroke-linejoin="round" d=" M 138.071, 41.607 137.593, 40.956 134.255, 39.554 130.196, 39.105 127.027, 39.786 126.751, 39.980 " />
            <path fill="none" stroke-width="3.0" stroke-linecap="butt" stroke-opacity="1.0" stroke="rgb(0, 0, 0)" stroke-linejoin="round" d=" M 207.021, 134.591 209.007, 133.399 209.873, 129.692 209.720, 122.653 205.889, 117.170 200.109, 110.086 192.520, 103.574 191.357, 102.576 190.558, 101.890 186.451, 99.485 185.124, 98.708 176.153, 94.625 172.371, 92.904 " />
            <path fill="none" stroke-width="3.0" stroke-linecap="butt" stroke-opacity="1.0" stroke="rgb(0, 0, 0)" stroke-linejoin="round" d=" M 199.404, 119.056 207.213, 125.302 208.790, 126.563 209.007, 133.399 " />
            <path fill="none" stroke-width="3.0" stroke-linecap="butt" stroke-opacity="1.0" stroke="rgb(0, 0, 0)" stroke-linejoin="round" d=" M 44.669, 89.213 43.545, 90.059 38.078, 94.105 32.014, 100.340 31.577, 103.989 " />
            <path fill="none" stroke-width="3.0" stroke-linecap="butt" stroke-opacity="1.0" stroke="rgb(0, 0, 0)" stroke-linejoin="round" d=" M 209.720, 122.653 202.024, 116.268 199.452, 114.134 " />
            <path fill="none" stroke-width="3.0" stroke-linecap="butt" stroke-opacity="1.0" stroke="rgb(0, 0, 0)" stroke-linejoin="round" d=" M 38.823, 113.613 47.121, 119.138 " />
            <path fill="none" stroke-width="3.0" stroke-linecap="butt" stroke-opacity="1.0" stroke="rgb(0, 0, 0)" stroke-linejoin="round" d=" M 60.262, 78.559 59.217, 80.167 " />
            <path fill="none" stroke-width="3.0" stroke-linecap="butt" stroke-opacity="1.0" stroke="rgb(0, 0, 0)" stroke-linejoin="round" d=" M 107.277, 74.138 107.387, 73.769 108.744, 69.221 " />
            <path fill="none" stroke-width="3.0" stroke-linecap="butt" stroke-opacity="1.0" stroke="rgb(0, 0, 0)" stroke-linejoin="round" d=" M 108.643, 69.223 108.744, 69.221 110.913, 69.187 " />
            <path fill="none" stroke-width="3.0" stroke-linecap="butt" stroke-opacity="1.0" stroke="rgb(0, 0, 0)" stroke-linejoin="round" d=" M 197.020, 121.592 201.675, 125.192 " />
        </g>
    </g>
</svg>
