<?xml version='1.0' encoding='ascii'?>
<svg xmlns="http://www.w3.org/2000/svg" version="1.1" width="250" height="250">
    <g id="ViewLayer_LineSet" xmlns:inkscape="http://www.inkscape.org/namespaces/inkscape" inkscape:groupmode="lineset" inkscape:label="ViewLayer_LineSet">
        <g xmlns:inkscape="http://www.inkscape.org/namespaces/inkscape" inkscape:groupmode="layer" id="strokes" inkscape:label="strokes">
            <path fill="none" stroke-width="3.0" stroke-linecap="butt" stroke-opacity="1.0" stroke="rgb(0, 0, 0)" stroke-linejoin="round" d=" M 166.637, 198.225 166.787, 198.116 173.739, 190.928 174.406, 190.239 176.403, 187.342 182.034, 179.078 182.573, 178.287 " />
            <path fill="none" stroke-width="3.0" stroke-linecap="butt" stroke-opacity="1.0" stroke="rgb(0, 0, 0)" stroke-linejoin="round" d=" M 59.361, 99.754 57.984, 101.484 53.751, 108.591 49.943, 117.258 49.371, 119.109 48.437, 122.135 48.331, 122.476 48.000, 123.550 47.275, 125.896 46.023, 132.054 45.479, 138.435 45.253, 142.922 45.482, 148.581 45.962, 153.074 46.823, 157.721 47.669, 161.669 48.955, 165.971 50.619, 170.436 52.166, 173.924 52.587, 174.872 54.775, 179.085 57.090, 182.892 59.431, 186.116 62.362, 189.999 65.346, 193.286 69.458, 197.361 72.902, 200.078 77.641, 203.710 78.079, 204.046 84.043, 207.605 89.778, 210.195 93.586, 211.862 98.494, 213.282 98.801, 213.354 " />
            <path fill="none" stroke-width="3.0" stroke-linecap="butt" stroke-opacity="1.0" stroke="rgb(0, 0, 0)" stroke-linejoin="round" d=" M 189.616, 125.871 188.818, 122.137 188.667, 121.749 " />
            <path fill="none" stroke-width="3.0" stroke-linecap="butt" stroke-opacity="1.0" stroke="rgb(0, 0, 0)" stroke-linejoin="round" d=" M 77.110, 151.416 77.664, 152.816 78.346, 153.852 78.354, 153.864 78.378, 153.900 79.027, 154.886 80.921, 156.548 83.116, 157.780 85.157, 158.226 87.251, 158.158 89.625, 157.334 91.673, 156.009 93.222, 154.165 93.937, 152.851 " />
            <path fill="none" stroke-width="3.0" stroke-linecap="butt" stroke-opacity="1.0" stroke="rgb(0, 0, 0)" stroke-linejoin="round" d=" M 117.437, 102.303 117.588, 102.812 118.015, 104.249 118.467, 107.640 118.507, 111.466 118.523, 111.535 117.438, 119.708 117.423, 119.820 117.405, 119.955 116.179, 124.169 114.674, 128.460 112.920, 132.458 110.979, 135.969 108.920, 138.821 108.664, 139.070 108.275, 139.448 106.812, 140.871 104.727, 142.017 102.738, 142.200 101.459, 141.643 100.918, 141.407 99.341, 139.671 98.325, 137.585 98.075, 137.072 98.073, 137.064 97.182, 133.732 96.710, 129.810 96.688, 125.495 97.123, 120.992 97.980, 116.579 98.184, 115.872 98.227, 115.723 99.182, 112.415 100.703, 108.511 102.481, 105.009 104.449, 102.032 105.369, 100.994 " />
            <path fill="none" stroke-width="3.0" stroke-linecap="butt" stroke-opacity="1.0" stroke="rgb(0, 0, 0)" stroke-linejoin="round" d=" M 77.311, 119.892 76.333, 124.186 76.212, 124.643 75.250, 128.296 74.306, 131.284 74.174, 131.704 74.074, 132.019 72.813, 135.170 71.474, 137.591 70.071, 139.161 68.920, 139.677 68.632, 139.806 67.221, 139.798 65.846, 138.259 64.638, 136.153 63.663, 133.291 63.001, 129.819 62.897, 128.380 62.862, 127.901 62.718, 125.909 62.856, 121.750 63.157, 119.513 63.414, 117.599 64.281, 113.599 65.399, 109.755 66.723, 106.202 67.358, 104.853 67.596, 104.346 68.200, 103.064 69.772, 100.447 70.591, 99.423 " />
            <path fill="none" stroke-width="3.0" stroke-linecap="butt" stroke-opacity="1.0" stroke="rgb(0, 0, 0)" stroke-linejoin="round" d=" M 67.221, 139.798 70.425, 141.177 " />
            <path fill="none" stroke-width="3.0" stroke-linecap="butt" stroke-opacity="1.0" stroke="rgb(0, 0, 0)" stroke-linejoin="round" d=" M 77.884, 99.208 78.527, 101.481 78.887, 104.397 78.996, 107.887 78.845, 109.717 78.821, 110.004 78.687, 111.631 " />
            <path fill="none" stroke-width="3.0" stroke-linecap="butt" stroke-opacity="1.0" stroke="rgb(0, 0, 0)" stroke-linejoin="round" d=" M 80.417, 121.835 77.311, 119.892 78.134, 115.685 78.687, 111.631 81.754, 113.668 " />
            <path fill="none" stroke-width="3.0" stroke-linecap="butt" stroke-opacity="1.0" stroke="rgb(0, 0, 0)" stroke-linejoin="round" d=" M 109.165, 196.510 104.910, 199.787 101.974, 203.669 100.082, 207.556 99.016, 211.401 98.801, 213.354 98.620, 214.994 99.041, 218.837 100.477, 222.871 102.993, 225.841 106.740, 228.248 109.674, 229.511 115.965, 232.218 122.492, 234.130 128.035, 235.214 134.334, 236.015 140.541, 236.626 150.525, 237.194 153.759, 237.378 159.523, 237.346 162.272, 237.265 166.649, 236.701 170.348, 235.126 174.447, 231.191 176.701, 227.551 178.020, 223.670 178.362, 219.110 177.561, 214.208 175.077, 208.173 171.495, 202.929 169.598, 200.797 166.637, 198.225 164.033, 195.963 " />
            <path fill="none" stroke-width="3.0" stroke-linecap="butt" stroke-opacity="1.0" stroke="rgb(0, 0, 0)" stroke-linejoin="round" d=" M 77.641, 203.710 77.469, 204.473 76.531, 207.927 76.267, 211.168 76.095, 214.802 76.389, 217.657 77.366, 220.515 79.116, 224.244 82.393, 227.156 84.291, 228.500 88.686, 230.717 92.732, 231.837 97.063, 232.090 102.729, 231.654 108.384, 230.073 109.674, 229.511 " />
            <path fill="none" stroke-width="3.0" stroke-linecap="butt" stroke-opacity="1.0" stroke="rgb(0, 0, 0)" stroke-linejoin="round" d=" M 182.573, 178.287 186.039, 179.856 188.430, 180.663 192.757, 181.858 196.735, 182.397 200.625, 182.243 205.290, 181.074 207.663, 180.095 210.019, 178.687 212.473, 176.756 212.580, 176.650 215.014, 174.089 217.088, 170.762 218.202, 168.038 218.359, 167.639 218.914, 165.677 218.983, 165.357 219.380, 162.723 219.317, 159.816 219.170, 158.089 218.378, 154.209 216.891, 150.429 214.683, 146.478 210.744, 141.656 209.061, 139.882 206.923, 137.663 206.524, 137.248 205.002, 135.668 200.965, 132.000 196.665, 129.018 191.957, 126.694 189.616, 125.871 " />
            <path fill="none" stroke-width="3.0" stroke-linecap="butt" stroke-opacity="1.0" stroke="rgb(0, 0, 0)" stroke-linejoin="round" d=" M 48.000, 123.550 44.706, 125.287 40.512, 128.313 36.559, 131.992 32.548, 136.216 28.693, 141.134 26.385, 145.165 24.821, 149.018 23.970, 152.995 23.912, 156.464 24.448, 160.354 25.416, 163.264 26.902, 166.051 28.879, 168.693 31.224, 170.843 33.853, 172.640 36.711, 174.002 39.837, 174.890 43.259, 175.337 47.303, 175.098 51.349, 174.212 52.166, 173.924 " />
            <path fill="none" stroke-width="3.0" stroke-linecap="butt" stroke-opacity="1.0" stroke="rgb(0, 0, 0)" stroke-linejoin="round" d=" M 116.257, 71.925 119.474, 69.465 119.505, 69.441 119.666, 69.113 119.703, 69.039 121.356, 65.675 122.342, 63.082 122.323, 59.402 121.306, 56.738 119.402, 53.027 117.686, 51.772 " />
            <path fill="none" stroke-width="3.0" stroke-linecap="butt" stroke-opacity="1.0" stroke="rgb(0, 0, 0)" stroke-linejoin="round" d=" M 56.098, 55.282 56.005, 55.546 54.484, 59.846 52.844, 65.934 52.275, 73.786 52.565, 75.048 54.217, 80.337 56.705, 81.576 59.898, 82.320 61.434, 82.678 61.849, 82.774 65.732, 83.215 71.742, 82.162 72.636, 81.934 73.995, 81.587 77.305, 80.742 82.731, 78.581 82.801, 78.553 " />
            <path fill="none" stroke-width="3.0" stroke-linecap="butt" stroke-opacity="1.0" stroke="rgb(0, 0, 0)" stroke-linejoin="round" d=" M 33.814, 111.749 31.614, 107.248 32.795, 106.106 37.495, 101.563 41.789, 100.478 49.643, 98.494 53.185, 97.599 57.026, 97.468 59.098, 97.397 61.295, 97.322 71.289, 96.981 73.454, 96.907 76.018, 96.820 76.034, 96.819 79.965, 96.685 89.934, 97.467 99.904, 98.250 107.601, 98.854 113.677, 99.330 116.277, 99.784 116.342, 99.795 126.194, 101.513 136.045, 103.231 145.896, 104.948 147.664, 105.257 157.327, 107.829 166.991, 110.400 176.655, 112.972 177.073, 113.084 178.189, 113.543 178.923, 113.846 183.057, 115.548 185.965, 116.747 " />
            <path fill="none" stroke-width="3.0" stroke-linecap="butt" stroke-opacity="1.0" stroke="rgb(0, 0, 0)" stroke-linejoin="round" d=" M 206.524, 137.248 206.652, 137.174 206.282, 130.852 200.096, 126.151 197.902, 124.483 " />
            <path fill="none" stroke-width="3.0" stroke-linecap="butt" stroke-opacity="1.0" stroke="rgb(0, 0, 0)" stroke-linejoin="round" d=" M 39.012, 107.885 40.877, 106.260 44.981, 102.685 54.750, 100.550 58.246, 99.786 " />
            <path fill="none" stroke-width="3.0" stroke-linecap="butt" stroke-opacity="1.0" stroke="rgb(0, 0, 0)" stroke-linejoin="round" d=" M 38.873, 116.628 47.143, 121.992 48.331, 122.476 " />
            <path fill="none" stroke-width="3.0" stroke-linecap="butt" stroke-opacity="1.0" stroke="rgb(0, 0, 0)" stroke-linejoin="round" d=" M 55.982, 99.853 46.215, 102.002 45.467, 102.166 41.090, 103.129 39.822, 103.408 33.814, 108.881 34.554, 110.440 " />
            <path fill="none" stroke-width="3.0" stroke-linecap="butt" stroke-opacity="1.0" stroke="rgb(0, 0, 0)" stroke-linejoin="round" d=" M 55.982, 99.853 58.246, 99.786 59.361, 99.754 59.708, 99.743 61.549, 99.689 70.591, 99.423 76.019, 99.263 77.884, 99.208 79.267, 99.167 81.511, 99.101 91.479, 99.892 101.448, 100.683 105.369, 100.994 110.156, 101.373 113.431, 101.633 117.437, 102.303 118.014, 102.400 127.877, 104.049 131.640, 104.678 141.503, 106.328 146.734, 107.203 156.405, 109.747 166.076, 112.291 175.682, 114.818 179.313, 116.293 184.233, 118.293 " />
            <path fill="none" stroke-width="3.0" stroke-linecap="butt" stroke-opacity="1.0" stroke="rgb(0, 0, 0)" stroke-linejoin="round" d=" M 41.022, 93.890 36.219, 97.792 33.051, 100.995 31.240, 103.836 30.069, 106.867 30.062, 109.331 30.526, 111.505 34.852, 115.623 37.532, 117.096 38.873, 116.628 38.904, 116.617 40.793, 115.957 42.071, 115.085 43.649, 114.009 45.235, 108.933 " />
            <path fill="none" stroke-width="3.0" stroke-linecap="butt" stroke-opacity="1.0" stroke="rgb(0, 0, 0)" stroke-linejoin="round" d=" M 33.257, 113.096 30.526, 111.505 " />
            <path fill="none" stroke-width="3.0" stroke-linecap="butt" stroke-opacity="1.0" stroke="rgb(0, 0, 0)" stroke-linejoin="round" d=" M 43.649, 114.009 39.920, 111.672 " />
            <path fill="none" stroke-width="3.0" stroke-linecap="butt" stroke-opacity="1.0" stroke="rgb(0, 0, 0)" stroke-linejoin="round" d=" M 40.813, 109.306 39.920, 111.672 36.499, 112.635 " />
            <path fill="none" stroke-width="3.0" stroke-linecap="butt" stroke-opacity="1.0" stroke="rgb(0, 0, 0)" stroke-linejoin="round" d=" M 57.458, 84.305 50.507, 87.604 42.171, 93.128 41.022, 93.890 47.279, 89.845 48.316, 89.281 57.099, 84.501 57.458, 84.305 59.027, 83.663 61.434, 82.678 " />
            <path fill="none" stroke-width="3.0" stroke-linecap="butt" stroke-opacity="1.0" stroke="rgb(0, 0, 0)" stroke-linejoin="round" d=" M 47.279, 89.845 49.502, 88.945 49.738, 88.849 53.362, 87.381 55.747, 86.415 57.600, 85.864 67.186, 83.017 67.371, 82.962 77.321, 81.972 78.234, 81.881 80.459, 81.660 81.788, 81.627 87.691, 81.481 88.678, 81.526 89.418, 81.559 " />
            <path fill="none" stroke-width="3.0" stroke-linecap="butt" stroke-opacity="1.0" stroke="rgb(0, 0, 0)" stroke-linejoin="round" d=" M 179.313, 116.293 179.980, 117.928 182.192, 118.978 182.997, 119.360 183.425, 119.541 188.667, 121.749 196.840, 125.192 197.001, 125.084 197.902, 124.483 198.720, 123.937 199.042, 123.722 199.296, 122.620 199.877, 120.094 196.975, 115.538 192.330, 111.043 190.481, 109.254 184.640, 105.046 182.926, 103.812 178.449, 100.489 177.870, 100.059 176.711, 99.199 171.542, 96.148 168.179, 94.164 160.915, 91.128 158.927, 90.296 157.002, 89.492 147.457, 86.509 144.297, 85.522 134.684, 82.767 131.509, 81.858 121.652, 80.174 118.656, 79.662 109.246, 78.122 107.470, 77.832 " />
            <path fill="none" stroke-width="3.0" stroke-linecap="butt" stroke-opacity="1.0" stroke="rgb(0, 0, 0)" stroke-linejoin="round" d=" M 102.908, 82.621 107.706, 83.120 111.435, 83.509 111.989, 83.645 121.700, 86.030 128.077, 87.596 137.681, 90.383 141.624, 91.528 142.473, 91.774 151.800, 95.380 155.306, 96.735 164.465, 100.748 166.451, 101.618 174.817, 105.682 181.267, 109.284 184.889, 111.995 186.338, 113.080 187.367, 114.704 187.687, 115.209 188.225, 116.058 188.412, 117.359 188.591, 118.610 187.676, 119.189 187.192, 119.496 186.057, 120.215 " />
            <path fill="none" stroke-width="3.0" stroke-linecap="butt" stroke-opacity="1.0" stroke="rgb(0, 0, 0)" stroke-linejoin="round" d=" M 99.108, 79.345 99.255, 79.134 100.367, 77.544 102.902, 73.915 103.722, 71.105 103.999, 70.152 104.352, 68.942 104.585, 68.141 105.021, 66.648 105.241, 65.890 105.321, 65.618 105.857, 59.194 105.842, 56.912 105.836, 55.967 105.827, 54.567 105.826, 54.406 " />
            <path fill="none" stroke-width="3.0" stroke-linecap="butt" stroke-opacity="1.0" stroke="rgb(0, 0, 0)" stroke-linejoin="round" d=" M 76.872, 74.037 80.420, 76.376 83.021, 77.647 83.032, 77.653 84.133, 78.191 85.571, 78.894 93.087, 80.479 97.147, 79.714 99.108, 79.345 100.313, 80.785 101.938, 82.047 101.975, 82.076 103.428, 82.518 " />
            <path fill="none" stroke-width="3.0" stroke-linecap="butt" stroke-opacity="1.0" stroke="rgb(0, 0, 0)" stroke-linejoin="round" d=" M 54.217, 80.337 53.895, 78.973 " />
            <path fill="none" stroke-width="3.0" stroke-linecap="butt" stroke-opacity="1.0" stroke="rgb(0, 0, 0)" stroke-linejoin="round" d=" M 79.893, 76.858 77.628, 75.342 76.872, 74.037 72.528, 76.335 66.653, 78.745 61.610, 79.678 59.029, 80.156 53.895, 78.973 52.275, 73.786 " />
            <path fill="none" stroke-width="3.0" stroke-linecap="butt" stroke-opacity="1.0" stroke="rgb(0, 0, 0)" stroke-linejoin="round" d=" M 110.662, 61.733 110.903, 61.394 110.985, 61.279 111.210, 60.963 114.173, 56.805 114.504, 56.330 117.686, 51.772 118.849, 50.106 122.516, 44.455 122.892, 43.076 124.059, 38.794 124.109, 35.647 122.926, 33.408 119.447, 29.131 114.174, 26.672 111.241, 25.556 105.505, 24.428 103.087, 24.161 101.121, 23.943 " />
            <path fill="none" stroke-width="3.0" stroke-linecap="butt" stroke-opacity="1.0" stroke="rgb(0, 0, 0)" stroke-linejoin="round" d=" M 56.005, 55.546 53.321, 51.718 50.329, 46.636 48.907, 41.213 49.378, 35.691 53.730, 31.476 60.767, 27.939 66.457, 26.328 70.770, 25.442 73.360, 21.441 77.249, 16.249 83.326, 10.461 88.733, 7.771 93.346, 9.813 97.614, 15.051 99.833, 20.024 101.121, 23.943 " />
            <path fill="none" stroke-width="3.0" stroke-linecap="butt" stroke-opacity="1.0" stroke="rgb(0, 0, 0)" stroke-linejoin="round" d=" M 108.958, 57.473 107.757, 56.072 107.164, 55.382 105.879, 54.444 105.826, 54.406 105.934, 54.312 106.825, 53.541 110.352, 50.487 111.059, 49.757 115.803, 44.853 116.701, 43.452 119.640, 38.862 121.316, 32.865 117.912, 28.671 111.241, 25.556 " />
            <path fill="none" stroke-width="3.0" stroke-linecap="butt" stroke-opacity="1.0" stroke="rgb(0, 0, 0)" stroke-linejoin="round" d=" M 103.087, 24.161 102.161, 21.785 99.679, 16.945 98.255, 14.667 94.375, 9.915 89.673, 7.835 88.733, 7.771 " />
            <path fill="none" stroke-width="3.0" stroke-linecap="butt" stroke-opacity="1.0" stroke="rgb(0, 0, 0)" stroke-linejoin="round" d=" M 53.321, 51.718 56.098, 55.282 " />
            <path fill="none" stroke-width="3.0" stroke-linecap="butt" stroke-opacity="1.0" stroke="rgb(0, 0, 0)" stroke-linejoin="round" d=" M 191.353, 106.145 188.457, 96.574 186.326, 89.529 185.322, 88.457 184.114, 84.109 179.273, 75.359 178.007, 73.071 171.485, 65.491 170.366, 64.191 164.688, 58.727 156.742, 52.655 156.379, 52.377 149.161, 48.545 142.902, 46.352 138.160, 44.811 137.084, 44.462 130.638, 43.312 126.540, 43.133 124.285, 43.035 122.892, 43.076 " />
            <path fill="none" stroke-width="3.0" stroke-linecap="butt" stroke-opacity="1.0" stroke="rgb(0, 0, 0)" stroke-linejoin="round" d=" M 79.893, 76.858 81.589, 77.846 82.749, 78.523 82.801, 78.553 83.191, 78.780 84.541, 79.567 84.766, 79.699 87.533, 80.805 89.248, 81.491 89.418, 81.559 89.834, 81.726 90.786, 82.106 93.378, 82.663 97.839, 83.623 101.394, 82.920 102.908, 82.621 103.428, 82.518 103.671, 82.170 104.415, 81.106 106.723, 77.801 107.348, 76.908 107.368, 76.879 108.702, 72.908 108.769, 72.708 108.811, 72.584 108.819, 72.539 109.256, 70.248 109.493, 68.999 109.600, 68.439 110.228, 65.142 110.662, 61.733 110.749, 61.046 110.772, 60.869 110.850, 60.254 110.878, 60.036 " />
            <path fill="none" stroke-width="3.0" stroke-linecap="butt" stroke-opacity="1.0" stroke="rgb(0, 0, 0)" stroke-linejoin="round" d=" M 186.769, 103.205 183.040, 100.102 174.914, 96.450 166.770, 92.790 160.915, 91.128 " />
            <path fill="none" stroke-width="3.0" stroke-linecap="butt" stroke-opacity="1.0" stroke="rgb(0, 0, 0)" stroke-linejoin="round" d=" M 121.252, 69.131 119.703, 69.039 " />
            <path fill="none" stroke-width="3.0" stroke-linecap="butt" stroke-opacity="1.0" stroke="rgb(0, 0, 0)" stroke-linejoin="round" d=" M 121.252, 69.131 128.931, 70.336 133.392, 71.036 143.271, 72.586 145.012, 72.859 " />
            <path fill="none" stroke-width="3.0" stroke-linecap="butt" stroke-opacity="1.0" stroke="rgb(0, 0, 0)" stroke-linejoin="round" d=" M 138.160, 44.811 137.547, 43.990 134.211, 42.604 130.155, 42.153 126.989, 42.814 126.540, 43.133 " />
            <path fill="none" stroke-width="3.0" stroke-linecap="butt" stroke-opacity="1.0" stroke="rgb(0, 0, 0)" stroke-linejoin="round" d=" M 206.923, 137.663 208.901, 136.523 209.767, 132.816 209.607, 126.004 205.779, 120.502 200.005, 113.391 192.339, 106.970 191.353, 106.145 190.457, 105.394 186.769, 103.205 185.029, 102.171 176.469, 98.349 171.542, 96.148 " />
            <path fill="none" stroke-width="3.0" stroke-linecap="butt" stroke-opacity="1.0" stroke="rgb(0, 0, 0)" stroke-linejoin="round" d=" M 199.296, 122.620 207.190, 128.759 208.678, 129.916 208.901, 136.523 " />
            <path fill="none" stroke-width="3.0" stroke-linecap="butt" stroke-opacity="1.0" stroke="rgb(0, 0, 0)" stroke-linejoin="round" d=" M 44.292, 92.970 43.574, 93.513 38.113, 97.587 32.051, 103.590 31.614, 107.248 " />
            <path fill="none" stroke-width="3.0" stroke-linecap="butt" stroke-opacity="1.0" stroke="rgb(0, 0, 0)" stroke-linejoin="round" d=" M 209.607, 126.004 201.826, 119.721 199.340, 117.714 " />
            <path fill="none" stroke-width="3.0" stroke-linecap="butt" stroke-opacity="1.0" stroke="rgb(0, 0, 0)" stroke-linejoin="round" d=" M 59.898, 82.320 59.027, 83.663 " />
            <path fill="none" stroke-width="3.0" stroke-linecap="butt" stroke-opacity="1.0" stroke="rgb(0, 0, 0)" stroke-linejoin="round" d=" M 107.250, 77.823 107.538, 76.856 108.710, 72.908 " />
            <path fill="none" stroke-width="3.0" stroke-linecap="butt" stroke-opacity="1.0" stroke="rgb(0, 0, 0)" stroke-linejoin="round" d=" M 108.702, 72.908 108.710, 72.908 110.876, 72.830 " />
            <path fill="none" stroke-width="3.0" stroke-linecap="butt" stroke-opacity="1.0" stroke="rgb(0, 0, 0)" stroke-linejoin="round" d=" M 197.001, 125.084 201.569, 128.521 " />
        </g>
    </g>
</svg>
