<?xml version='1.0' encoding='ascii'?>
<svg xmlns="http://www.w3.org/2000/svg" version="1.1" width="250" height="250">
    <g id="ViewLayer_LineSet" xmlns:inkscape="http://www.inkscape.org/namespaces/inkscape" inkscape:groupmode="lineset" inkscape:label="ViewLayer_LineSet">
        <g xmlns:inkscape="http://www.inkscape.org/namespaces/inkscape" inkscape:groupmode="layer" id="strokes" inkscape:label="strokes">
            <path fill="none" stroke-width="3.0" stroke-linecap="butt" stroke-opacity="1.0" stroke="rgb(0, 0, 0)" stroke-linejoin="round" d=" M 59.737, 96.194 59.379, 96.644 57.969, 98.417 53.733, 105.541 49.922, 114.223 49.256, 116.376 48.323, 119.394 48.223, 119.718 47.252, 122.858 46.413, 126.962 45.999, 128.990 45.454, 135.347 45.229, 139.885 45.458, 145.511 45.938, 150.041 46.799, 154.648 47.646, 158.619 48.933, 162.937 49.980, 165.749 50.598, 167.411 52.568, 171.848 54.758, 176.056 57.074, 179.850 59.417, 183.055 61.560, 185.923 62.351, 186.981 65.337, 190.235 " />
            <path fill="none" stroke-width="3.0" stroke-linecap="butt" stroke-opacity="1.0" stroke="rgb(0, 0, 0)" stroke-linejoin="round" d=" M 190.333, 125.734 188.906, 119.056 188.575, 118.202 " />
            <path fill="none" stroke-width="3.0" stroke-linecap="butt" stroke-opacity="1.0" stroke="rgb(0, 0, 0)" stroke-linejoin="round" d=" M 108.934, 212.560 112.813, 212.983 113.230, 213.029 116.840, 213.183 " />
            <path fill="none" stroke-width="3.0" stroke-linecap="butt" stroke-opacity="1.0" stroke="rgb(0, 0, 0)" stroke-linejoin="round" d=" M 77.110, 147.937 77.665, 149.337 79.029, 151.404 80.925, 153.060 81.955, 153.634 83.122, 154.284 85.164, 154.724 87.261, 154.648 89.636, 153.815 91.687, 152.481 93.237, 150.629 93.953, 149.311 " />
            <path fill="none" stroke-width="3.0" stroke-linecap="butt" stroke-opacity="1.0" stroke="rgb(0, 0, 0)" stroke-linejoin="round" d=" M 117.420, 98.551 117.952, 100.335 118.052, 100.671 118.505, 104.055 118.545, 107.873 118.561, 107.942 117.442, 116.348 117.210, 117.143 117.173, 117.270 116.215, 120.555 114.709, 124.842 112.953, 128.838 111.011, 132.350 108.949, 135.204 107.643, 136.475 107.266, 136.842 106.839, 137.258 104.752, 138.407 102.761, 138.593 101.437, 138.019 100.940, 137.803 99.362, 136.070 98.972, 135.271 98.725, 134.764 98.095, 133.473 97.201, 130.135 96.728, 126.215 96.706, 121.903 97.142, 117.406 97.946, 113.273 97.979, 113.102 97.999, 112.999 99.202, 108.841 100.724, 104.943 102.505, 101.447 104.474, 98.474 105.538, 97.276 " />
            <path fill="none" stroke-width="3.0" stroke-linecap="butt" stroke-opacity="1.0" stroke="rgb(0, 0, 0)" stroke-linejoin="round" d=" M 77.311, 116.374 77.098, 117.306 76.332, 120.663 75.248, 124.772 74.072, 128.498 74.002, 128.672 73.843, 129.069 72.809, 131.654 71.469, 134.081 70.065, 135.660 68.881, 136.197 68.625, 136.314 67.213, 136.315 65.836, 134.785 64.628, 132.689 63.652, 129.837 62.989, 126.374 62.947, 125.805 62.914, 125.340 62.705, 122.473 62.843, 118.324 63.108, 116.364 63.403, 114.182 64.270, 110.190 65.389, 106.351 66.714, 102.802 67.089, 102.005 67.340, 101.473 68.192, 99.665 69.766, 97.047 70.759, 95.805 " />
            <path fill="none" stroke-width="3.0" stroke-linecap="butt" stroke-opacity="1.0" stroke="rgb(0, 0, 0)" stroke-linejoin="round" d=" M 67.213, 136.315 70.420, 137.741 " />
            <path fill="none" stroke-width="3.0" stroke-linecap="butt" stroke-opacity="1.0" stroke="rgb(0, 0, 0)" stroke-linejoin="round" d=" M 77.780, 95.557 77.875, 95.723 78.528, 98.018 78.888, 100.921 78.998, 104.399 78.778, 107.049 78.753, 107.359 78.689, 108.131 " />
            <path fill="none" stroke-width="3.0" stroke-linecap="butt" stroke-opacity="1.0" stroke="rgb(0, 0, 0)" stroke-linejoin="round" d=" M 80.420, 118.365 77.311, 116.374 78.135, 112.175 78.689, 108.131 81.758, 110.215 " />
            <path fill="none" stroke-width="3.0" stroke-linecap="butt" stroke-opacity="1.0" stroke="rgb(0, 0, 0)" stroke-linejoin="round" d=" M 153.813, 202.711 155.476, 203.157 159.302, 204.183 164.353, 207.140 167.851, 210.505 " />
            <path fill="none" stroke-width="3.0" stroke-linecap="butt" stroke-opacity="1.0" stroke="rgb(0, 0, 0)" stroke-linejoin="round" d=" M 116.840, 213.183 116.140, 216.437 116.058, 219.826 116.492, 222.887 117.664, 225.971 118.800, 229.295 120.594, 232.091 124.332, 235.238 129.045, 237.620 134.787, 239.020 139.992, 239.688 145.826, 239.589 153.323, 238.663 159.574, 237.263 165.755, 235.155 169.536, 233.245 175.441, 225.174 175.511, 225.078 179.779, 216.035 180.584, 214.328 181.558, 211.972 184.643, 202.460 184.902, 201.662 185.124, 199.085 185.764, 190.347 185.199, 187.511 184.283, 184.187 " />
            <path fill="none" stroke-width="3.0" stroke-linecap="butt" stroke-opacity="1.0" stroke="rgb(0, 0, 0)" stroke-linejoin="round" d=" M 61.560, 185.923 57.752, 189.246 53.871, 193.148 50.570, 197.332 48.140, 201.820 46.811, 205.877 45.961, 208.875 45.295, 212.710 45.432, 216.194 46.363, 219.752 47.653, 223.160 50.386, 225.819 53.171, 228.244 57.840, 230.499 62.302, 231.698 67.234, 232.066 73.823, 231.848 77.589, 231.274 84.010, 229.747 87.106, 228.789 90.910, 227.560 97.606, 223.657 104.277, 219.037 107.493, 216.831 112.813, 212.983 " />
            <path fill="none" stroke-width="3.0" stroke-linecap="butt" stroke-opacity="1.0" stroke="rgb(0, 0, 0)" stroke-linejoin="round" d=" M 172.108, 177.056 177.623, 180.872 178.522, 181.376 179.493, 181.920 183.990, 184.089 184.283, 184.187 188.296, 185.533 192.717, 186.251 196.523, 186.116 199.989, 185.431 202.066, 184.965 205.100, 183.663 206.489, 182.728 209.119, 180.942 211.555, 178.601 212.569, 177.266 214.454, 174.448 215.832, 171.403 216.675, 168.495 216.756, 168.015 217.174, 165.269 217.212, 161.599 216.499, 157.337 215.104, 153.072 212.976, 148.562 209.256, 143.076 205.272, 138.283 204.058, 136.882 203.830, 136.633 203.426, 136.193 201.427, 134.013 200.065, 132.565 195.855, 128.997 191.277, 126.147 190.333, 125.734 184.590, 123.222 " />
            <path fill="none" stroke-width="3.0" stroke-linecap="butt" stroke-opacity="1.0" stroke="rgb(0, 0, 0)" stroke-linejoin="round" d=" M 46.413, 126.962 44.723, 129.310 42.481, 132.795 40.917, 135.294 39.370, 139.043 38.597, 142.045 37.974, 144.741 37.863, 147.135 38.231, 151.034 38.700, 152.914 40.058, 156.848 42.380, 160.193 45.101, 162.864 45.162, 162.916 46.925, 164.205 47.472, 164.523 49.762, 165.689 49.980, 165.749 " />
            <path fill="none" stroke-width="3.0" stroke-linecap="butt" stroke-opacity="1.0" stroke="rgb(0, 0, 0)" stroke-linejoin="round" d=" M 118.866, 66.453 119.543, 65.931 119.693, 65.623 119.731, 65.546 121.396, 62.136 122.382, 59.558 122.363, 55.870 121.346, 53.180 119.439, 49.482 117.617, 48.159 " />
            <path fill="none" stroke-width="3.0" stroke-linecap="butt" stroke-opacity="1.0" stroke="rgb(0, 0, 0)" stroke-linejoin="round" d=" M 56.079, 51.598 55.981, 51.874 54.463, 56.159 52.822, 62.242 52.252, 70.080 52.543, 71.360 54.195, 76.632 56.687, 77.907 60.247, 78.720 61.835, 79.083 62.086, 79.114 65.722, 79.571 71.737, 78.500 77.305, 77.071 82.821, 74.860 82.885, 74.835 " />
            <path fill="none" stroke-width="3.0" stroke-linecap="butt" stroke-opacity="1.0" stroke="rgb(0, 0, 0)" stroke-linejoin="round" d=" M 33.789, 108.787 31.578, 104.129 32.759, 102.943 37.461, 98.224 42.025, 97.011 50.078, 94.871 53.163, 94.051 56.245, 93.928 58.952, 93.819 61.713, 93.709 71.705, 93.308 74.147, 93.210 75.236, 93.166 79.968, 92.977 89.939, 93.737 99.910, 94.497 107.880, 95.104 113.713, 95.549 116.183, 95.982 116.214, 95.987 126.064, 97.714 135.914, 99.440 145.764, 101.167 147.731, 101.512 157.385, 104.119 167.039, 106.726 176.694, 109.334 177.166, 109.461 178.217, 109.904 178.499, 110.022 183.139, 111.974 " />
            <path fill="none" stroke-width="3.0" stroke-linecap="butt" stroke-opacity="1.0" stroke="rgb(0, 0, 0)" stroke-linejoin="round" d=" M 203.426, 136.193 206.752, 134.181 206.388, 127.648 200.006, 122.665 197.984, 121.087 " />
            <path fill="none" stroke-width="3.0" stroke-linecap="butt" stroke-opacity="1.0" stroke="rgb(0, 0, 0)" stroke-linejoin="round" d=" M 44.954, 99.384 54.699, 97.139 58.634, 96.233 " />
            <path fill="none" stroke-width="3.0" stroke-linecap="butt" stroke-opacity="1.0" stroke="rgb(0, 0, 0)" stroke-linejoin="round" d=" M 38.824, 113.742 45.642, 118.277 47.122, 119.260 48.223, 119.718 " />
            <path fill="none" stroke-width="3.0" stroke-linecap="butt" stroke-opacity="1.0" stroke="rgb(0, 0, 0)" stroke-linejoin="round" d=" M 55.963, 96.327 46.222, 98.588 45.727, 98.703 41.086, 99.781 39.791, 100.082 33.780, 105.770 34.540, 107.420 " />
            <path fill="none" stroke-width="3.0" stroke-linecap="butt" stroke-opacity="1.0" stroke="rgb(0, 0, 0)" stroke-linejoin="round" d=" M 55.963, 96.327 58.634, 96.233 58.894, 96.223 59.737, 96.194 60.762, 96.157 70.759, 95.805 76.776, 95.592 77.780, 95.557 78.921, 95.516 81.515, 95.425 91.485, 96.193 101.456, 96.962 105.538, 97.276 110.480, 97.657 113.466, 97.888 117.420, 98.551 117.896, 98.631 117.901, 98.632 127.763, 100.288 137.625, 101.944 144.610, 103.117 146.800, 103.485 156.462, 106.064 166.124, 108.643 175.773, 111.219 179.364, 112.710 184.841, 114.983 " />
            <path fill="none" stroke-width="3.0" stroke-linecap="butt" stroke-opacity="1.0" stroke="rgb(0, 0, 0)" stroke-linejoin="round" d=" M 57.441, 81.055 49.006, 85.574 47.455, 86.404 47.254, 86.512 40.992, 90.633 36.186, 94.602 33.016, 97.857 31.204, 100.743 30.033, 103.812 30.026, 106.296 30.490, 108.480 34.821, 112.724 37.503, 114.203 38.824, 113.742 38.825, 113.742 40.766, 113.065 41.968, 112.244 43.624, 111.114 45.211, 106.018 " />
            <path fill="none" stroke-width="3.0" stroke-linecap="butt" stroke-opacity="1.0" stroke="rgb(0, 0, 0)" stroke-linejoin="round" d=" M 33.223, 110.074 30.490, 108.480 " />
            <path fill="none" stroke-width="3.0" stroke-linecap="butt" stroke-opacity="1.0" stroke="rgb(0, 0, 0)" stroke-linejoin="round" d=" M 43.624, 111.114 39.892, 108.650 " />
            <path fill="none" stroke-width="3.0" stroke-linecap="butt" stroke-opacity="1.0" stroke="rgb(0, 0, 0)" stroke-linejoin="round" d=" M 40.740, 106.396 39.892, 108.650 36.468, 109.613 " />
            <path fill="none" stroke-width="3.0" stroke-linecap="butt" stroke-opacity="1.0" stroke="rgb(0, 0, 0)" stroke-linejoin="round" d=" M 62.086, 79.114 59.209, 80.317 57.441, 81.055 50.485, 84.422 47.455, 86.404 " />
            <path fill="none" stroke-width="3.0" stroke-linecap="butt" stroke-opacity="1.0" stroke="rgb(0, 0, 0)" stroke-linejoin="round" d=" M 47.254, 86.512 47.353, 86.471 49.930, 85.404 50.075, 85.344 52.769, 84.229 55.729, 83.003 57.889, 82.347 67.362, 79.467 77.307, 78.421 79.121, 78.230 80.462, 78.089 81.828, 78.049 87.700, 77.881 89.568, 77.958 89.971, 77.975 " />
            <path fill="none" stroke-width="3.0" stroke-linecap="butt" stroke-opacity="1.0" stroke="rgb(0, 0, 0)" stroke-linejoin="round" d=" M 179.364, 112.710 180.072, 114.441 183.092, 115.850 183.195, 115.895 184.517, 116.461 188.575, 118.202 196.944, 121.792 197.019, 121.741 197.984, 121.087 198.713, 120.594 199.149, 120.298 199.399, 119.208 199.985, 116.653 197.081, 112.078 192.332, 107.477 190.582, 105.780 183.020, 100.317 181.534, 99.211 179.304, 97.551 177.071, 95.888 176.800, 95.687 172.334, 93.041 168.261, 90.630 161.693, 87.876 157.074, 85.940 156.959, 85.904 147.414, 82.920 144.358, 81.965 134.744, 79.213 131.558, 78.301 121.699, 76.628 118.693, 76.117 109.285, 74.594 107.497, 74.304 " />
            <path fill="none" stroke-width="3.0" stroke-linecap="butt" stroke-opacity="1.0" stroke="rgb(0, 0, 0)" stroke-linejoin="round" d=" M 102.449, 78.928 107.774, 79.471 111.466, 79.848 112.989, 80.219 122.703, 82.592 128.125, 83.916 137.729, 86.700 142.534, 88.093 142.877, 88.226 152.203, 91.837 155.379, 93.066 164.534, 97.089 166.534, 97.967 174.908, 102.050 181.363, 105.675 184.694, 108.182 186.438, 109.495 187.604, 111.344 188.042, 112.039 188.326, 112.489 188.601, 114.416 188.692, 115.054 187.622, 115.741 187.247, 115.982 186.155, 116.683 " />
            <path fill="none" stroke-width="3.0" stroke-linecap="butt" stroke-opacity="1.0" stroke="rgb(0, 0, 0)" stroke-linejoin="round" d=" M 99.130, 75.438 100.116, 74.028 102.928, 70.004 103.483, 68.102 103.907, 66.650 104.241, 65.506 104.485, 64.673 104.922, 63.174 105.264, 62.003 105.349, 61.713 105.885, 55.300 105.874, 53.501 105.867, 52.424 105.857, 50.938 105.854, 50.521 " />
            <path fill="none" stroke-width="3.0" stroke-linecap="butt" stroke-opacity="1.0" stroke="rgb(0, 0, 0)" stroke-linejoin="round" d=" M 76.872, 70.231 80.423, 72.551 83.132, 73.860 83.809, 74.188 84.890, 74.710 85.579, 75.043 93.103, 76.594 99.130, 75.438 99.600, 76.006 100.335, 76.893 102.000, 78.226 103.005, 78.572 103.453, 78.726 " />
            <path fill="none" stroke-width="3.0" stroke-linecap="butt" stroke-opacity="1.0" stroke="rgb(0, 0, 0)" stroke-linejoin="round" d=" M 54.195, 76.632 53.873, 75.250 " />
            <path fill="none" stroke-width="3.0" stroke-linecap="butt" stroke-opacity="1.0" stroke="rgb(0, 0, 0)" stroke-linejoin="round" d=" M 79.896, 73.111 77.629, 71.552 76.872, 70.231 72.524, 72.542 66.643, 74.971 62.130, 75.822 59.012, 76.410 53.873, 75.250 52.252, 70.080 " />
            <path fill="none" stroke-width="3.0" stroke-linecap="butt" stroke-opacity="1.0" stroke="rgb(0, 0, 0)" stroke-linejoin="round" d=" M 110.683, 58.050 110.888, 57.762 110.893, 57.755 111.160, 57.380 114.208, 53.095 114.471, 52.714 117.617, 48.159 118.888, 46.317 122.560, 40.657 122.730, 40.032 124.103, 35.000 124.154, 31.798 122.970, 29.517 119.488, 25.263 114.210, 22.830 111.274, 21.706 105.532, 20.604 103.079, 20.344 101.144, 20.138 " />
            <path fill="none" stroke-width="3.0" stroke-linecap="butt" stroke-opacity="1.0" stroke="rgb(0, 0, 0)" stroke-linejoin="round" d=" M 53.299, 48.053 52.574, 46.828 50.305, 42.993 48.882, 37.587 49.353, 32.074 53.709, 27.850 60.752, 24.292 66.447, 22.661 70.764, 21.759 73.357, 17.755 77.249, 12.558 83.332, 6.756 88.744, 4.050 93.361, 6.069 97.633, 11.278 99.854, 16.232 101.144, 20.138 " />
            <path fill="none" stroke-width="3.0" stroke-linecap="butt" stroke-opacity="1.0" stroke="rgb(0, 0, 0)" stroke-linejoin="round" d=" M 108.989, 53.652 107.525, 51.907 107.194, 51.512 105.991, 50.621 105.854, 50.521 106.136, 50.276 106.691, 49.795 110.385, 46.591 110.770, 46.193 115.841, 40.946 116.183, 40.413 119.682, 34.951 121.359, 28.959 117.952, 24.787 111.274, 21.706 " />
            <path fill="none" stroke-width="3.0" stroke-linecap="butt" stroke-opacity="1.0" stroke="rgb(0, 0, 0)" stroke-linejoin="round" d=" M 52.574, 46.828 52.584, 46.849 53.299, 48.053 55.981, 51.874 " />
            <path fill="none" stroke-width="3.0" stroke-linecap="butt" stroke-opacity="1.0" stroke="rgb(0, 0, 0)" stroke-linejoin="round" d=" M 103.079, 20.344 102.184, 18.057 99.699, 13.232 98.275, 10.914 94.391, 6.188 89.685, 4.131 88.744, 4.050 " />
            <path fill="none" stroke-width="3.0" stroke-linecap="butt" stroke-opacity="1.0" stroke="rgb(0, 0, 0)" stroke-linejoin="round" d=" M 53.299, 48.053 56.079, 51.598 " />
            <path fill="none" stroke-width="3.0" stroke-linecap="butt" stroke-opacity="1.0" stroke="rgb(0, 0, 0)" stroke-linejoin="round" d=" M 191.357, 102.729 188.453, 93.160 186.412, 86.437 185.406, 85.368 184.197, 81.030 179.342, 72.288 178.085, 70.025 171.544, 62.460 170.437, 61.180 164.756, 55.623 156.778, 49.594 156.439, 49.338 149.217, 45.452 142.951, 43.343 138.075, 41.744 137.130, 41.434 130.679, 40.280 126.742, 40.115 124.321, 40.013 122.730, 40.032 " />
            <path fill="none" stroke-width="3.0" stroke-linecap="butt" stroke-opacity="1.0" stroke="rgb(0, 0, 0)" stroke-linejoin="round" d=" M 79.896, 73.111 82.016, 74.334 82.838, 74.807 82.885, 74.835 83.753, 75.335 84.645, 75.850 84.774, 75.924 88.280, 77.308 89.876, 77.937 89.971, 77.975 90.800, 78.302 90.957, 78.340 92.251, 78.655 94.568, 79.150 97.859, 79.853 100.236, 79.374 102.449, 78.928 103.453, 78.726 103.536, 78.608 104.252, 77.585 106.570, 74.270 106.696, 74.089 107.397, 73.088 108.645, 69.380 108.841, 68.800 109.150, 67.180 109.463, 65.545 109.574, 64.964 110.260, 61.373 110.683, 58.050 110.740, 57.606 110.777, 57.319 110.848, 56.759 110.910, 56.275 " />
            <path fill="none" stroke-width="3.0" stroke-linecap="butt" stroke-opacity="1.0" stroke="rgb(0, 0, 0)" stroke-linejoin="round" d=" M 186.463, 99.643 183.129, 96.808 174.643, 92.925 166.848, 89.359 161.693, 87.876 " />
            <path fill="none" stroke-width="3.0" stroke-linecap="butt" stroke-opacity="1.0" stroke="rgb(0, 0, 0)" stroke-linejoin="round" d=" M 121.291, 65.635 119.731, 65.546 " />
            <path fill="none" stroke-width="3.0" stroke-linecap="butt" stroke-opacity="1.0" stroke="rgb(0, 0, 0)" stroke-linejoin="round" d=" M 121.291, 65.635 131.168, 67.198 141.045, 68.761 145.072, 69.398 " />
            <path fill="none" stroke-width="3.0" stroke-linecap="butt" stroke-opacity="1.0" stroke="rgb(0, 0, 0)" stroke-linejoin="round" d=" M 138.075, 41.744 137.591, 41.086 134.253, 39.684 130.194, 39.235 127.025, 39.915 126.742, 40.115 " />
            <path fill="none" stroke-width="3.0" stroke-linecap="butt" stroke-opacity="1.0" stroke="rgb(0, 0, 0)" stroke-linejoin="round" d=" M 203.830, 136.633 209.002, 133.533 209.868, 129.826 209.715, 122.797 205.884, 117.313 200.104, 110.227 192.512, 103.719 191.357, 102.729 190.553, 102.040 186.463, 99.643 185.120, 98.856 176.167, 94.784 172.334, 93.041 " />
            <path fill="none" stroke-width="3.0" stroke-linecap="butt" stroke-opacity="1.0" stroke="rgb(0, 0, 0)" stroke-linejoin="round" d=" M 199.399, 119.208 207.212, 125.449 208.786, 126.706 209.002, 133.533 " />
            <path fill="none" stroke-width="3.0" stroke-linecap="butt" stroke-opacity="1.0" stroke="rgb(0, 0, 0)" stroke-linejoin="round" d=" M 44.654, 89.373 43.546, 90.207 38.080, 94.254 32.016, 100.479 31.578, 104.129 " />
            <path fill="none" stroke-width="3.0" stroke-linecap="butt" stroke-opacity="1.0" stroke="rgb(0, 0, 0)" stroke-linejoin="round" d=" M 209.715, 122.797 202.016, 116.416 199.447, 114.287 " />
            <path fill="none" stroke-width="3.0" stroke-linecap="butt" stroke-opacity="1.0" stroke="rgb(0, 0, 0)" stroke-linejoin="round" d=" M 38.825, 113.742 47.122, 119.260 " />
            <path fill="none" stroke-width="3.0" stroke-linecap="butt" stroke-opacity="1.0" stroke="rgb(0, 0, 0)" stroke-linejoin="round" d=" M 60.247, 78.720 59.209, 80.317 " />
            <path fill="none" stroke-width="3.0" stroke-linecap="butt" stroke-opacity="1.0" stroke="rgb(0, 0, 0)" stroke-linejoin="round" d=" M 107.275, 74.296 107.393, 73.901 108.743, 69.379 " />
            <path fill="none" stroke-width="3.0" stroke-linecap="butt" stroke-opacity="1.0" stroke="rgb(0, 0, 0)" stroke-linejoin="round" d=" M 108.645, 69.380 108.743, 69.379 110.911, 69.342 " />
            <path fill="none" stroke-width="3.0" stroke-linecap="butt" stroke-opacity="1.0" stroke="rgb(0, 0, 0)" stroke-linejoin="round" d=" M 197.019, 121.741 201.671, 125.334 " />
        </g>
    </g>
</svg>
