<?xml version='1.0' encoding='ascii'?>
<svg xmlns="http://www.w3.org/2000/svg" version="1.1" width="250" height="250">
    <g id="ViewLayer_LineSet" xmlns:inkscape="http://www.inkscape.org/namespaces/inkscape" inkscape:groupmode="lineset" inkscape:label="ViewLayer_LineSet">
        <g xmlns:inkscape="http://www.inkscape.org/namespaces/inkscape" inkscape:groupmode="layer" id="strokes" inkscape:label="strokes">
            <path fill="none" stroke-width="3.0" stroke-linecap="butt" stroke-opacity="1.0" stroke="rgb(0, 0, 0)" stroke-linejoin="round" d=" M 52.759, 112.229 51.147, 116.831 50.673, 118.703 50.018, 121.750 49.150, 125.783 49.030, 126.436 48.265, 130.598 47.928, 135.512 48.075, 142.469 48.175, 144.226 49.011, 150.590 49.329, 152.307 49.883, 154.510 51.015, 158.889 51.402, 160.196 51.876, 161.639 52.417, 163.149 52.997, 164.654 53.590, 166.081 54.167, 167.364 54.699, 168.438 57.126, 173.277 58.055, 174.912 61.517, 180.109 62.668, 181.715 67.062, 186.971 70.875, 190.654 " />
            <path fill="none" stroke-width="3.0" stroke-linecap="butt" stroke-opacity="1.0" stroke="rgb(0, 0, 0)" stroke-linejoin="round" d=" M 135.540, 208.215 141.022, 206.905 145.379, 205.526 153.632, 201.521 157.705, 199.504 165.770, 193.591 166.072, 193.370 168.810, 190.876 171.694, 187.872 176.396, 182.975 182.033, 174.715 182.653, 173.805 186.858, 164.732 187.386, 163.593 188.770, 158.608 " />
            <path fill="none" stroke-width="3.0" stroke-linecap="butt" stroke-opacity="1.0" stroke="rgb(0, 0, 0)" stroke-linejoin="round" d=" M 51.183, 108.853 51.105, 109.047 49.742, 112.351 48.752, 115.700 48.072, 118.789 47.689, 121.472 47.571, 123.618 47.669, 125.123 47.934, 125.911 " />
            <path fill="none" stroke-width="3.0" stroke-linecap="butt" stroke-opacity="1.0" stroke="rgb(0, 0, 0)" stroke-linejoin="round" d=" M 47.934, 125.911 49.030, 126.436 " />
            <path fill="none" stroke-width="3.0" stroke-linecap="butt" stroke-opacity="1.0" stroke="rgb(0, 0, 0)" stroke-linejoin="round" d=" M 45.710, 204.941 43.997, 209.095 43.842, 213.436 45.260, 217.893 45.759, 219.821 48.998, 223.714 50.917, 225.682 54.535, 227.761 61.993, 231.151 71.993, 231.219 73.448, 231.229 75.959, 230.779 85.718, 228.597 88.256, 228.030 97.948, 225.567 101.513, 224.662 111.125, 221.901 112.094, 221.622 119.384, 218.740 123.472, 217.153 128.153, 214.150 131.773, 211.883 131.789, 211.873 134.178, 209.878 135.540, 208.215 138.938, 204.061 " />
            <path fill="none" stroke-width="3.0" stroke-linecap="butt" stroke-opacity="1.0" stroke="rgb(0, 0, 0)" stroke-linejoin="round" d=" M 70.398, 190.976 63.717, 192.455 56.911, 194.846 55.248, 195.658 49.797, 199.649 48.578, 200.988 47.493, 202.484 45.710, 204.941 46.861, 203.261 47.493, 202.484 " />
            <path fill="none" stroke-width="3.0" stroke-linecap="butt" stroke-opacity="1.0" stroke="rgb(0, 0, 0)" stroke-linejoin="round" d=" M 131.773, 211.883 138.915, 210.959 148.535, 209.485 154.921, 207.969 158.080, 206.909 162.947, 204.648 165.028, 203.173 169.070, 199.513 170.399, 197.705 171.810, 193.823 172.011, 192.834 172.006, 188.832 171.694, 187.872 " />
            <path fill="none" stroke-width="3.0" stroke-linecap="butt" stroke-opacity="1.0" stroke="rgb(0, 0, 0)" stroke-linejoin="round" d=" M 75.204, 130.837 70.227, 137.526 67.914, 141.846 66.143, 146.606 64.620, 151.923 63.533, 156.499 62.580, 162.353 62.864, 166.806 63.724, 171.806 64.565, 175.350 65.984, 178.663 68.186, 182.065 69.731, 184.145 72.113, 186.390 73.502, 187.571 74.417, 188.227 74.442, 188.245 74.456, 188.256 74.463, 188.260 74.478, 188.271 74.675, 188.413 76.476, 189.483 79.917, 190.937 80.818, 191.166 85.594, 192.132 89.543, 192.069 90.143, 192.060 92.402, 191.760 96.882, 190.472 99.822, 189.036 102.509, 187.455 105.432, 185.081 107.441, 183.107 110.591, 179.857 112.327, 177.430 113.543, 175.731 114.050, 175.022 116.672, 170.115 " />
            <path fill="none" stroke-width="3.0" stroke-linecap="butt" stroke-opacity="1.0" stroke="rgb(0, 0, 0)" stroke-linejoin="round" d=" M 67.231, 49.910 68.272, 50.299 " />
            <path fill="none" stroke-width="3.0" stroke-linecap="butt" stroke-opacity="1.0" stroke="rgb(0, 0, 0)" stroke-linejoin="round" d=" M 63.663, 75.207 65.126, 73.147 67.038, 70.141 " />
            <path fill="none" stroke-width="3.0" stroke-linecap="butt" stroke-opacity="1.0" stroke="rgb(0, 0, 0)" stroke-linejoin="round" d=" M 74.925, 48.805 75.038, 46.351 74.236, 43.757 73.168, 41.651 72.747, 37.918 72.120, 33.117 70.343, 28.705 67.805, 23.137 64.789, 20.194 61.934, 18.733 60.446, 19.020 57.863, 20.358 54.310, 24.423 51.697, 28.420 49.837, 31.591 47.844, 31.684 45.046, 32.220 41.153, 34.367 38.287, 37.653 37.031, 42.746 36.720, 47.884 37.213, 52.722 37.844, 55.985 37.859, 56.063 37.723, 56.398 36.317, 59.850 34.509, 64.904 32.923, 71.399 32.816, 75.641 33.663, 76.718 35.826, 77.731 38.921, 78.700 43.574, 79.069 48.684, 77.768 50.116, 77.403 51.423, 76.969 53.827, 76.172 58.027, 72.389 60.825, 71.234 " />
            <path fill="none" stroke-width="3.0" stroke-linecap="butt" stroke-opacity="1.0" stroke="rgb(0, 0, 0)" stroke-linejoin="round" d=" M 82.457, 56.126 82.285, 56.138 81.176, 56.216 80.668, 56.252 79.566, 57.045 79.496, 57.095 78.872, 57.544 78.321, 57.940 " />
            <path fill="none" stroke-width="3.0" stroke-linecap="butt" stroke-opacity="1.0" stroke="rgb(0, 0, 0)" stroke-linejoin="round" d=" M 48.933, 82.279 45.468, 84.119 40.728, 87.887 38.970, 91.269 38.499, 96.722 45.433, 103.927 46.870, 105.421 49.121, 107.191 51.004, 108.376 " />
            <path fill="none" stroke-width="3.0" stroke-linecap="butt" stroke-opacity="1.0" stroke="rgb(0, 0, 0)" stroke-linejoin="round" d=" M 46.870, 105.421 50.829, 107.909 " />
            <path fill="none" stroke-width="3.0" stroke-linecap="butt" stroke-opacity="1.0" stroke="rgb(0, 0, 0)" stroke-linejoin="round" d=" M 69.357, 119.631 70.595, 120.228 79.605, 124.567 82.307, 125.868 91.317, 130.207 93.948, 131.474 103.271, 135.089 112.595, 138.704 117.096, 140.449 121.048, 141.981 125.219, 143.598 134.784, 146.514 144.350, 149.429 153.467, 152.209 155.861, 152.938 165.654, 154.966 175.446, 156.993 180.929, 158.128 184.010, 158.396 188.770, 158.608 198.760, 159.054 200.875, 159.148 207.747, 156.086 208.605, 152.272 207.835, 146.299 205.434, 140.315 204.284, 137.449 " />
            <path fill="none" stroke-width="3.0" stroke-linecap="butt" stroke-opacity="1.0" stroke="rgb(0, 0, 0)" stroke-linejoin="round" d=" M 78.476, 61.842 78.459, 61.420 78.357, 58.863 78.321, 57.940 78.290, 57.160 78.276, 56.820 78.226, 55.567 75.773, 53.138 75.061, 52.434 74.993, 52.366 74.599, 51.976 74.241, 51.622 72.643, 50.040 71.176, 50.127 69.256, 50.241 68.272, 50.299 68.167, 50.306 67.077, 50.370 65.148, 50.485 63.766, 50.894 62.432, 52.517 59.109, 56.563 59.123, 56.880 59.246, 59.666 59.443, 64.150 64.556, 69.278 65.988, 70.188 67.038, 70.141 68.520, 70.074 " />
            <path fill="none" stroke-width="3.0" stroke-linecap="butt" stroke-opacity="1.0" stroke="rgb(0, 0, 0)" stroke-linejoin="round" d=" M 78.872, 57.544 78.898, 57.128 78.911, 56.931 78.952, 56.286 76.904, 53.567 75.773, 53.138 " />
            <path fill="none" stroke-width="3.0" stroke-linecap="butt" stroke-opacity="1.0" stroke="rgb(0, 0, 0)" stroke-linejoin="round" d=" M 65.982, 74.448 65.558, 74.587 63.663, 75.207 54.397, 78.242 52.458, 78.877 52.249, 79.070 49.090, 81.983 48.933, 82.279 47.274, 85.412 46.806, 89.597 46.784, 89.794 46.874, 92.930 46.875, 92.961 46.916, 94.375 47.486, 98.391 48.770, 102.127 50.166, 106.142 50.829, 107.909 51.004, 108.376 51.183, 108.853 51.339, 109.270 52.278, 111.904 52.759, 112.229 52.840, 112.284 54.748, 113.575 56.101, 114.290 58.425, 115.518 59.118, 115.885 63.067, 117.971 64.759, 118.866 68.616, 120.904 68.956, 121.083 70.595, 120.228 " />
            <path fill="none" stroke-width="3.0" stroke-linecap="butt" stroke-opacity="1.0" stroke="rgb(0, 0, 0)" stroke-linejoin="round" d=" M 66.177, 119.398 65.558, 117.541 65.548, 117.511 64.876, 115.498 64.192, 112.786 63.590, 110.404 63.575, 109.363 63.548, 107.441 63.494, 103.581 63.409, 103.096 63.284, 102.390 62.681, 98.958 62.468, 97.752 62.005, 95.226 61.600, 93.012 61.399, 92.116 61.111, 90.832 60.480, 88.018 60.137, 84.988 59.984, 83.636 60.605, 80.838 60.751, 80.175 61.483, 78.348 61.865, 77.392 61.951, 77.177 62.684, 76.586 63.907, 75.597 65.406, 74.809 65.932, 74.533 " />
            <path fill="none" stroke-width="3.0" stroke-linecap="butt" stroke-opacity="1.0" stroke="rgb(0, 0, 0)" stroke-linejoin="round" d=" M 68.956, 121.083 68.628, 120.884 66.177, 119.398 66.091, 117.877 " />
            <path fill="none" stroke-width="3.0" stroke-linecap="butt" stroke-opacity="1.0" stroke="rgb(0, 0, 0)" stroke-linejoin="round" d=" M 85.621, 55.281 83.355, 53.046 82.169, 52.025 79.380, 52.185 " />
            <path fill="none" stroke-width="3.0" stroke-linecap="butt" stroke-opacity="1.0" stroke="rgb(0, 0, 0)" stroke-linejoin="round" d=" M 82.169, 52.025 85.536, 55.347 " />
            <path fill="none" stroke-width="3.0" stroke-linecap="butt" stroke-opacity="1.0" stroke="rgb(0, 0, 0)" stroke-linejoin="round" d=" M 54.747, 33.226 51.160, 31.626 50.315, 31.604 50.232, 31.601 49.837, 31.591 " />
            <path fill="none" stroke-width="3.0" stroke-linecap="butt" stroke-opacity="1.0" stroke="rgb(0, 0, 0)" stroke-linejoin="round" d=" M 42.537, 58.072 38.879, 56.693 38.073, 56.196 37.859, 56.063 " />
            <path fill="none" stroke-width="3.0" stroke-linecap="butt" stroke-opacity="1.0" stroke="rgb(0, 0, 0)" stroke-linejoin="round" d=" M 143.187, 39.419 142.822, 39.377 132.886, 38.244 131.550, 38.092 121.611, 39.195 117.906, 39.606 108.372, 42.625 104.182, 43.951 95.295, 48.536 92.289, 50.086 85.621, 55.281 85.536, 55.347 84.153, 56.424 83.013, 57.312 81.483, 58.503 81.330, 58.623 81.276, 58.665 80.760, 59.251 78.575, 61.730 78.476, 61.842 78.220, 62.133 77.946, 62.444 75.834, 64.841 75.129, 65.640 74.774, 66.044 74.424, 66.067 71.222, 66.277 71.060, 66.287 70.704, 66.310 70.575, 66.533 70.559, 66.560 70.366, 66.892 70.172, 67.227 69.833, 67.810 69.529, 68.336 69.050, 69.161 68.520, 70.074 67.867, 71.199 65.982, 74.448 65.932, 74.533 64.111, 77.671 " />
            <path fill="none" stroke-width="3.0" stroke-linecap="butt" stroke-opacity="1.0" stroke="rgb(0, 0, 0)" stroke-linejoin="round" d=" M 197.455, 105.594 197.258, 104.861 197.178, 104.564 196.463, 101.909 194.492, 92.105 193.647, 87.906 189.917, 78.627 188.571, 75.279 183.336, 66.759 180.970, 62.910 174.170, 55.578 171.652, 52.863 163.430, 47.171 162.725, 46.682 162.456, 44.150 161.067, 40.334 155.150, 36.351 148.405, 35.610 148.080, 35.653 144.592, 37.676 142.822, 39.377 " />
            <path fill="none" stroke-width="3.0" stroke-linecap="butt" stroke-opacity="1.0" stroke="rgb(0, 0, 0)" stroke-linejoin="round" d=" M 39.317, 37.820 42.577, 39.212 46.963, 41.423 " />
            <path fill="none" stroke-width="3.0" stroke-linecap="butt" stroke-opacity="1.0" stroke="rgb(0, 0, 0)" stroke-linejoin="round" d=" M 41.508, 78.081 36.815, 77.708 33.663, 76.718 " />
            <path fill="none" stroke-width="3.0" stroke-linecap="butt" stroke-opacity="1.0" stroke="rgb(0, 0, 0)" stroke-linejoin="round" d=" M 48.684, 77.768 49.625, 78.219 52.249, 79.070 " />
            <path fill="none" stroke-width="3.0" stroke-linecap="butt" stroke-opacity="1.0" stroke="rgb(0, 0, 0)" stroke-linejoin="round" d=" M 64.148, 77.933 64.221, 78.442 64.524, 80.579 64.594, 81.073 64.699, 81.153 65.121, 81.476 65.796, 81.993 66.362, 82.428 66.526, 82.553 70.527, 85.619 72.470, 87.108 81.276, 91.847 87.816, 95.368 90.019, 96.431 " />
            <path fill="none" stroke-width="3.0" stroke-linecap="butt" stroke-opacity="1.0" stroke="rgb(0, 0, 0)" stroke-linejoin="round" d=" M 174.952, 126.526 177.814, 127.263 187.705, 128.735 191.168, 129.250 191.419, 129.207 192.504, 129.022 197.148, 128.231 197.250, 127.058 198.109, 117.095 198.957, 107.271 197.757, 105.135 197.178, 104.564 " />
            <path fill="none" stroke-width="3.0" stroke-linecap="butt" stroke-opacity="1.0" stroke="rgb(0, 0, 0)" stroke-linejoin="round" d=" M 70.704, 66.310 71.018, 66.576 71.977, 67.385 72.562, 67.879 73.160, 68.384 73.361, 68.553 " />
            <path fill="none" stroke-width="3.0" stroke-linecap="butt" stroke-opacity="1.0" stroke="rgb(0, 0, 0)" stroke-linejoin="round" d=" M 87.816, 95.368 89.112, 95.944 98.251, 100.005 98.908, 100.297 108.046, 104.358 109.256, 104.895 118.598, 108.463 127.940, 112.030 131.875, 113.533 133.891, 114.302 143.400, 117.396 151.421, 120.006 157.170, 121.877 157.932, 122.125 167.614, 124.627 174.980, 126.530 177.814, 127.263 " />
            <path fill="none" stroke-width="3.0" stroke-linecap="butt" stroke-opacity="1.0" stroke="rgb(0, 0, 0)" stroke-linejoin="round" d=" M 193.356, 107.226 198.957, 107.271 " />
            <path fill="none" stroke-width="3.0" stroke-linecap="butt" stroke-opacity="1.0" stroke="rgb(0, 0, 0)" stroke-linejoin="round" d=" M 90.019, 96.431 98.422, 100.166 107.560, 104.228 110.261, 105.429 119.603, 108.996 128.945, 112.564 131.585, 113.572 133.461, 114.288 142.970, 117.382 151.543, 120.170 156.124, 121.660 157.468, 122.008 167.150, 124.510 174.952, 126.526 " />
            <path fill="none" stroke-width="3.0" stroke-linecap="butt" stroke-opacity="1.0" stroke="rgb(0, 0, 0)" stroke-linejoin="round" d=" M 143.187, 39.419 147.328, 40.826 153.641, 43.122 159.565, 45.376 162.725, 46.682 " />
            <path fill="none" stroke-width="3.0" stroke-linecap="butt" stroke-opacity="1.0" stroke="rgb(0, 0, 0)" stroke-linejoin="round" d=" M 65.711, 117.266 69.621, 119.147 71.206, 119.909 80.218, 124.242 82.935, 125.549 91.947, 129.883 93.444, 130.603 102.768, 134.216 112.093, 137.830 116.926, 139.704 120.892, 141.241 126.076, 143.250 135.640, 146.169 145.204, 149.088 153.824, 151.719 158.009, 152.996 167.800, 155.029 177.591, 157.063 184.010, 158.396 " />
            <path fill="none" stroke-width="3.0" stroke-linecap="butt" stroke-opacity="1.0" stroke="rgb(0, 0, 0)" stroke-linejoin="round" d=" M 127.290, 138.914 118.791, 135.627 116.077, 134.577 106.750, 130.970 97.423, 127.364 94.764, 126.335 88.544, 123.378 79.513, 119.084 74.622, 116.759 71.617, 115.331 67.684, 113.461 67.083, 113.175 " />
            <path fill="none" stroke-width="3.0" stroke-linecap="butt" stroke-opacity="1.0" stroke="rgb(0, 0, 0)" stroke-linejoin="round" d=" M 205.434, 140.315 202.652, 133.079 198.696, 128.189 197.250, 127.058 " />
            <path fill="none" stroke-width="3.0" stroke-linecap="butt" stroke-opacity="1.0" stroke="rgb(0, 0, 0)" stroke-linejoin="round" d=" M 84.153, 56.424 79.380, 52.185 75.870, 49.068 74.925, 48.805 73.536, 48.417 71.879, 48.054 69.824, 49.406 " />
            <path fill="none" stroke-width="3.0" stroke-linecap="butt" stroke-opacity="1.0" stroke="rgb(0, 0, 0)" stroke-linejoin="round" d=" M 71.879, 48.054 74.191, 48.702 74.901, 49.339 78.149, 52.256 80.222, 54.119 81.851, 55.582 82.457, 56.126 " />
            <path fill="none" stroke-width="3.0" stroke-linecap="butt" stroke-opacity="1.0" stroke="rgb(0, 0, 0)" stroke-linejoin="round" d=" M 37.844, 55.985 37.723, 56.398 " />
            <path fill="none" stroke-width="3.0" stroke-linecap="butt" stroke-opacity="1.0" stroke="rgb(0, 0, 0)" stroke-linejoin="round" d=" M 67.077, 50.370 67.231, 49.910 68.167, 50.306 " />
            <path fill="none" stroke-width="3.0" stroke-linecap="butt" stroke-opacity="1.0" stroke="rgb(0, 0, 0)" stroke-linejoin="round" d=" M 67.867, 71.199 65.558, 74.587 " />
            <path fill="none" stroke-width="3.0" stroke-linecap="butt" stroke-opacity="1.0" stroke="rgb(0, 0, 0)" stroke-linejoin="round" d=" M 70.952, 190.729 70.720, 190.904 70.353, 191.183 68.189, 192.825 " />
            <path fill="none" stroke-width="3.0" stroke-linecap="butt" stroke-opacity="1.0" stroke="rgb(0, 0, 0)" stroke-linejoin="round" d=" M 70.875, 190.654 70.398, 190.976 69.618, 191.502 " />
        </g>
    </g>
</svg>
