<?xml version='1.0' encoding='ascii'?>
<svg xmlns="http://www.w3.org/2000/svg" version="1.1" width="250" height="250">
    <g id="ViewLayer_LineSet" xmlns:inkscape="http://www.inkscape.org/namespaces/inkscape" inkscape:groupmode="lineset" inkscape:label="ViewLayer_LineSet">
        <g xmlns:inkscape="http://www.inkscape.org/namespaces/inkscape" inkscape:groupmode="layer" id="strokes" inkscape:label="strokes">
            <path fill="none" stroke-width="3.0" stroke-linecap="butt" stroke-opacity="1.0" stroke="rgb(0, 0, 0)" stroke-linejoin="round" d=" M 108.832, 216.532 109.275, 216.583 113.118, 217.018 117.623, 217.220 122.145, 217.128 126.482, 216.748 130.442, 216.099 133.319, 215.477 136.739, 214.738 141.794, 213.426 145.780, 211.838 154.558, 207.703 158.036, 205.447 166.129, 199.573 166.710, 199.152 173.666, 191.967 174.039, 191.582 " />
            <path fill="none" stroke-width="3.0" stroke-linecap="butt" stroke-opacity="1.0" stroke="rgb(0, 0, 0)" stroke-linejoin="round" d=" M 59.244, 100.918 57.991, 102.493 53.765, 109.590 49.962, 118.247 49.436, 119.947 48.499, 122.977 48.391, 123.326 47.292, 126.881 46.028, 133.043 45.471, 139.428 45.263, 143.896 45.476, 149.562 45.966, 154.042 46.807, 158.699 47.658, 162.638 48.946, 166.934 50.609, 171.394 52.572, 175.828 54.753, 180.042 57.058, 183.853 59.328, 187.004 " />
            <path fill="none" stroke-width="3.0" stroke-linecap="butt" stroke-opacity="1.0" stroke="rgb(0, 0, 0)" stroke-linejoin="round" d=" M 191.014, 133.673 188.923, 123.894 188.770, 123.178 188.707, 123.017 " />
            <path fill="none" stroke-width="3.0" stroke-linecap="butt" stroke-opacity="1.0" stroke="rgb(0, 0, 0)" stroke-linejoin="round" d=" M 76.901, 152.545 77.454, 153.946 78.813, 156.017 80.702, 157.680 82.891, 158.915 84.927, 159.365 86.430, 159.319 87.016, 159.301 89.385, 158.481 91.429, 157.161 92.975, 155.321 93.689, 154.008 " />
            <path fill="none" stroke-width="3.0" stroke-linecap="butt" stroke-opacity="1.0" stroke="rgb(0, 0, 0)" stroke-linejoin="round" d=" M 117.216, 103.555 117.221, 103.572 117.770, 105.432 118.217, 108.826 118.251, 112.655 118.268, 112.723 117.227, 120.485 117.213, 120.590 117.138, 121.147 115.907, 125.364 114.398, 129.655 112.642, 133.652 110.700, 137.162 108.754, 139.855 108.640, 140.012 108.401, 140.245 106.533, 142.060 104.450, 143.204 102.464, 143.385 101.238, 142.849 100.647, 142.590 99.073, 140.854 97.811, 138.254 97.806, 138.237 97.673, 137.736 96.921, 134.914 96.453, 130.991 96.435, 126.675 96.875, 122.172 97.737, 117.758 98.061, 116.640 98.102, 116.498 98.944, 113.593 100.468, 109.688 102.250, 106.185 104.220, 103.208 105.090, 102.227 " />
            <path fill="none" stroke-width="3.0" stroke-linecap="butt" stroke-opacity="1.0" stroke="rgb(0, 0, 0)" stroke-linejoin="round" d=" M 77.107, 121.044 76.126, 125.338 75.040, 129.447 74.225, 132.027 74.090, 132.453 73.864, 133.168 72.604, 136.316 71.268, 138.733 69.869, 140.299 68.753, 140.798 68.435, 140.940 67.029, 140.928 65.660, 139.386 64.459, 137.278 63.491, 134.414 62.835, 130.940 62.705, 129.104 62.672, 128.631 62.559, 127.028 62.703, 122.868 62.890, 121.490 63.267, 118.716 64.138, 114.716 65.259, 110.871 66.586, 107.319 67.357, 105.682 67.589, 105.189 68.064, 104.182 69.636, 101.566 70.399, 100.612 " />
            <path fill="none" stroke-width="3.0" stroke-linecap="butt" stroke-opacity="1.0" stroke="rgb(0, 0, 0)" stroke-linejoin="round" d=" M 67.029, 140.928 70.247, 142.293 " />
            <path fill="none" stroke-width="3.0" stroke-linecap="butt" stroke-opacity="1.0" stroke="rgb(0, 0, 0)" stroke-linejoin="round" d=" M 77.738, 100.410 78.356, 102.622 78.708, 105.541 78.810, 109.034 78.688, 110.486 78.665, 110.762 78.495, 112.781 " />
            <path fill="none" stroke-width="3.0" stroke-linecap="butt" stroke-opacity="1.0" stroke="rgb(0, 0, 0)" stroke-linejoin="round" d=" M 80.228, 122.972 77.107, 121.044 77.430, 119.405 77.936, 116.837 78.495, 112.781 81.576, 114.802 " />
            <path fill="none" stroke-width="3.0" stroke-linecap="butt" stroke-opacity="1.0" stroke="rgb(0, 0, 0)" stroke-linejoin="round" d=" M 134.280, 218.142 135.672, 222.429 136.919, 224.180 140.741, 228.784 146.304, 232.477 151.566, 234.172 156.345, 234.472 161.548, 233.655 167.772, 231.217 168.217, 231.056 173.405, 228.053 178.467, 223.902 182.650, 218.014 185.451, 212.225 185.969, 210.967 189.236, 201.516 190.004, 199.294 191.334, 192.950 " />
            <path fill="none" stroke-width="3.0" stroke-linecap="butt" stroke-opacity="1.0" stroke="rgb(0, 0, 0)" stroke-linejoin="round" d=" M 59.328, 187.004 55.914, 187.664 49.982, 188.872 43.661, 191.076 39.014, 193.539 35.417, 196.527 34.797, 197.174 31.010, 202.046 28.689, 206.155 27.281, 210.222 26.772, 214.193 27.093, 218.417 28.942, 222.461 30.454, 224.085 33.172, 225.517 36.567, 227.138 42.118, 228.872 47.059, 229.797 52.068, 230.630 57.120, 231.269 63.712, 231.527 70.210, 231.715 78.062, 231.460 85.169, 231.021 90.466, 230.648 94.779, 230.226 99.555, 229.284 102.347, 227.481 105.967, 224.648 108.165, 221.345 109.194, 217.787 109.275, 216.583 " />
            <path fill="none" stroke-width="3.0" stroke-linecap="butt" stroke-opacity="1.0" stroke="rgb(0, 0, 0)" stroke-linejoin="round" d=" M 164.021, 184.634 166.228, 186.485 169.633, 189.210 173.008, 191.196 174.039, 191.582 176.574, 192.529 180.215, 193.654 183.134, 193.907 187.206, 193.831 189.458, 193.429 191.334, 192.950 192.708, 192.599 196.977, 190.435 200.658, 187.584 202.732, 185.074 204.373, 182.998 205.454, 180.484 206.956, 176.826 207.573, 173.204 207.973, 169.516 207.850, 165.470 207.100, 161.038 205.276, 155.384 204.212, 152.577 201.711, 147.463 199.096, 142.920 198.914, 142.655 198.843, 142.551 196.284, 138.821 192.989, 135.291 191.014, 133.673 190.644, 133.370 185.759, 130.350 181.593, 128.611 " />
            <path fill="none" stroke-width="3.0" stroke-linecap="butt" stroke-opacity="1.0" stroke="rgb(0, 0, 0)" stroke-linejoin="round" d=" M 116.071, 73.080 119.309, 70.604 119.366, 70.488 119.473, 70.270 119.509, 70.196 121.151, 66.848 122.143, 64.250 122.123, 60.573 121.098, 57.918 119.202, 54.202 117.466, 52.926 " />
            <path fill="none" stroke-width="3.0" stroke-linecap="butt" stroke-opacity="1.0" stroke="rgb(0, 0, 0)" stroke-linejoin="round" d=" M 55.896, 56.516 55.806, 56.768 54.280, 61.078 52.637, 67.165 52.058, 75.017 52.353, 76.273 53.992, 81.565 56.491, 82.791 59.772, 83.562 61.100, 83.874 61.619, 83.996 65.516, 84.421 67.164, 84.134 67.284, 84.113 70.852, 83.490 71.512, 83.374 74.205, 82.688 77.067, 81.958 82.510, 79.792 " />
            <path fill="none" stroke-width="3.0" stroke-linecap="butt" stroke-opacity="1.0" stroke="rgb(0, 0, 0)" stroke-linejoin="round" d=" M 33.901, 112.755 31.634, 108.266 32.825, 107.113 37.423, 102.658 41.773, 101.572 49.501, 99.643 53.012, 98.767 57.361, 98.627 59.214, 98.567 61.164, 98.504 71.159, 98.183 73.093, 98.120 75.964, 98.028 75.996, 98.027 79.699, 97.908 89.668, 98.699 99.637, 99.491 107.284, 100.098 113.357, 100.580 116.091, 101.057 116.179, 101.072 126.031, 102.788 135.882, 104.504 145.734, 106.219 147.346, 106.500 157.013, 109.058 166.681, 111.616 176.348, 114.174 176.806, 114.295 178.006, 114.784 178.922, 115.158 182.824, 116.749 185.750, 117.942 " />
            <path fill="none" stroke-width="3.0" stroke-linecap="butt" stroke-opacity="1.0" stroke="rgb(0, 0, 0)" stroke-linejoin="round" d=" M 198.914, 142.655 198.960, 142.646 206.645, 138.200 206.192, 131.944 200.125, 127.409 197.739, 125.626 " />
            <path fill="none" stroke-width="3.0" stroke-linecap="butt" stroke-opacity="1.0" stroke="rgb(0, 0, 0)" stroke-linejoin="round" d=" M 39.028, 108.898 40.941, 107.230 44.913, 103.768 54.688, 101.660 57.967, 100.953 " />
            <path fill="none" stroke-width="3.0" stroke-linecap="butt" stroke-opacity="1.0" stroke="rgb(0, 0, 0)" stroke-linejoin="round" d=" M 38.976, 117.563 47.283, 122.879 48.391, 123.326 " />
            <path fill="none" stroke-width="3.0" stroke-linecap="butt" stroke-opacity="1.0" stroke="rgb(0, 0, 0)" stroke-linejoin="round" d=" M 55.812, 101.013 46.040, 103.133 45.370, 103.278 41.138, 104.197 39.751, 104.498 33.833, 109.896 34.574, 111.406 " />
            <path fill="none" stroke-width="3.0" stroke-linecap="butt" stroke-opacity="1.0" stroke="rgb(0, 0, 0)" stroke-linejoin="round" d=" M 55.812, 101.013 57.967, 100.953 59.244, 100.918 60.072, 100.895 61.893, 100.845 70.399, 100.612 75.775, 100.464 77.738, 100.410 79.236, 100.369 81.254, 100.313 91.222, 101.113 101.190, 101.914 105.090, 102.227 109.847, 102.609 113.124, 102.872 117.216, 103.555 117.859, 103.663 118.036, 103.692 127.899, 105.341 137.762, 106.989 146.426, 108.437 156.100, 110.968 165.775, 113.498 175.423, 116.022 179.117, 117.509 183.906, 119.435 " />
            <path fill="none" stroke-width="3.0" stroke-linecap="butt" stroke-opacity="1.0" stroke="rgb(0, 0, 0)" stroke-linejoin="round" d=" M 40.981, 94.964 36.210, 98.841 33.066, 102.024 31.272, 104.848 30.117, 107.864 30.116, 110.321 30.582, 112.490 34.948, 116.565 37.625, 118.035 38.976, 117.563 39.026, 117.546 40.882, 116.897 42.205, 115.995 43.734, 114.952 45.313, 109.886 " />
            <path fill="none" stroke-width="3.0" stroke-linecap="butt" stroke-opacity="1.0" stroke="rgb(0, 0, 0)" stroke-linejoin="round" d=" M 33.308, 114.079 30.582, 112.490 " />
            <path fill="none" stroke-width="3.0" stroke-linecap="butt" stroke-opacity="1.0" stroke="rgb(0, 0, 0)" stroke-linejoin="round" d=" M 43.734, 114.952 39.963, 112.658 " />
            <path fill="none" stroke-width="3.0" stroke-linecap="butt" stroke-opacity="1.0" stroke="rgb(0, 0, 0)" stroke-linejoin="round" d=" M 40.865, 110.263 39.963, 112.658 36.546, 113.619 " />
            <path fill="none" stroke-width="3.0" stroke-linecap="butt" stroke-opacity="1.0" stroke="rgb(0, 0, 0)" stroke-linejoin="round" d=" M 57.404, 85.382 50.487, 88.656 42.154, 94.185 40.981, 94.964 47.203, 90.946 48.220, 90.392 56.999, 85.603 57.404, 85.382 59.019, 84.723 61.100, 83.874 " />
            <path fill="none" stroke-width="3.0" stroke-linecap="butt" stroke-opacity="1.0" stroke="rgb(0, 0, 0)" stroke-linejoin="round" d=" M 47.203, 90.946 49.360, 90.075 49.644, 89.961 53.395, 88.446 55.632, 87.543 57.560, 86.973 67.164, 84.134 " />
            <path fill="none" stroke-width="3.0" stroke-linecap="butt" stroke-opacity="1.0" stroke="rgb(0, 0, 0)" stroke-linejoin="round" d=" M 67.284, 84.113 71.490, 83.701 71.625, 83.688 77.964, 83.067 80.257, 82.843 81.616, 82.811 87.470, 82.674 88.182, 82.707 88.934, 82.742 " />
            <path fill="none" stroke-width="3.0" stroke-linecap="butt" stroke-opacity="1.0" stroke="rgb(0, 0, 0)" stroke-linejoin="round" d=" M 179.117, 117.509 179.766, 119.097 181.781, 120.063 182.774, 120.539 182.985, 120.627 188.707, 123.017 196.667, 126.341 196.882, 126.198 197.739, 125.626 198.647, 125.022 198.862, 124.879 199.117, 123.767 199.693, 121.254 196.784, 116.701 192.378, 112.443 190.284, 110.418 186.864, 107.959 182.719, 104.979 178.404, 101.782 177.867, 101.384 176.497, 100.369 170.991, 97.126 167.956, 95.339 160.389, 92.180 159.824, 91.944 156.773, 90.670 147.228, 87.688 144.068, 86.700 134.455, 83.945 131.283, 83.036 121.427, 81.348 118.440, 80.837 109.051, 79.294 107.267, 79.001 " />
            <path fill="none" stroke-width="3.0" stroke-linecap="butt" stroke-opacity="1.0" stroke="rgb(0, 0, 0)" stroke-linejoin="round" d=" M 102.781, 83.840 107.489, 84.334 111.173, 84.721 111.383, 84.772 121.093, 87.163 127.799, 88.814 137.402, 91.604 140.727, 92.570 142.189, 92.994 151.517, 96.598 155.025, 97.952 164.186, 101.961 166.177, 102.832 174.550, 106.892 181.010, 110.490 185.012, 113.477 186.091, 114.282 187.070, 115.820 187.453, 116.421 187.983, 117.255 188.174, 118.570 188.353, 119.804 187.638, 120.256 186.980, 120.672 185.826, 121.402 " />
            <path fill="none" stroke-width="3.0" stroke-linecap="butt" stroke-opacity="1.0" stroke="rgb(0, 0, 0)" stroke-linejoin="round" d=" M 98.761, 80.637 99.072, 80.192 100.113, 78.703 102.554, 75.211 103.436, 72.192 103.694, 71.309 104.053, 70.080 104.286, 69.283 104.717, 67.810 104.979, 66.912 105.009, 66.556 105.524, 60.486 105.511, 58.028 105.507, 57.146 105.501, 56.014 105.500, 55.695 " />
            <path fill="none" stroke-width="3.0" stroke-linecap="butt" stroke-opacity="1.0" stroke="rgb(0, 0, 0)" stroke-linejoin="round" d=" M 76.586, 75.300 80.122, 77.643 82.483, 78.805 82.813, 78.967 83.765, 79.436 85.256, 80.169 92.752, 81.764 94.714, 81.396 98.761, 80.637 99.969, 82.073 101.453, 83.203 101.646, 83.350 103.120, 83.773 " />
            <path fill="none" stroke-width="3.0" stroke-linecap="butt" stroke-opacity="1.0" stroke="rgb(0, 0, 0)" stroke-linejoin="round" d=" M 53.992, 81.565 53.665, 80.207 " />
            <path fill="none" stroke-width="3.0" stroke-linecap="butt" stroke-opacity="1.0" stroke="rgb(0, 0, 0)" stroke-linejoin="round" d=" M 79.626, 78.100 77.347, 76.599 76.586, 75.300 72.250, 77.592 66.388, 79.995 61.502, 80.896 58.783, 81.397 53.665, 80.207 52.058, 75.017 " />
            <path fill="none" stroke-width="3.0" stroke-linecap="butt" stroke-opacity="1.0" stroke="rgb(0, 0, 0)" stroke-linejoin="round" d=" M 110.373, 62.999 110.727, 62.501 110.812, 62.383 111.038, 62.065 113.909, 58.035 114.326, 57.436 117.466, 52.926 118.556, 51.361 122.222, 45.713 122.664, 44.096 123.770, 40.050 123.801, 36.921 122.603, 34.697 119.137, 30.414 113.879, 27.948 110.945, 26.836 105.222, 25.702 102.853, 25.437 100.849, 25.213 " />
            <path fill="none" stroke-width="3.0" stroke-linecap="butt" stroke-opacity="1.0" stroke="rgb(0, 0, 0)" stroke-linejoin="round" d=" M 55.806, 56.768 53.132, 52.948 50.157, 47.862 48.747, 42.436 49.224, 36.915 53.569, 32.703 60.591, 29.173 66.268, 27.566 70.571, 26.684 73.160, 22.684 77.046, 17.494 83.116, 11.709 88.514, 9.023 93.112, 11.070 97.363, 16.313 99.569, 21.290 100.849, 25.213 " />
            <path fill="none" stroke-width="3.0" stroke-linecap="butt" stroke-opacity="1.0" stroke="rgb(0, 0, 0)" stroke-linejoin="round" d=" M 108.652, 58.741 107.792, 57.755 106.842, 56.666 105.604, 55.770 105.500, 55.695 105.714, 55.510 106.656, 54.694 110.022, 51.779 110.847, 50.927 115.470, 46.148 116.524, 44.502 119.307, 40.157 120.988, 34.158 117.597, 29.958 110.945, 26.836 " />
            <path fill="none" stroke-width="3.0" stroke-linecap="butt" stroke-opacity="1.0" stroke="rgb(0, 0, 0)" stroke-linejoin="round" d=" M 102.853, 25.437 101.919, 23.030 99.448, 18.186 98.011, 15.923 94.147, 11.166 89.459, 9.081 88.514, 9.023 " />
            <path fill="none" stroke-width="3.0" stroke-linecap="butt" stroke-opacity="1.0" stroke="rgb(0, 0, 0)" stroke-linejoin="round" d=" M 53.132, 52.948 55.896, 56.516 " />
            <path fill="none" stroke-width="3.0" stroke-linecap="butt" stroke-opacity="1.0" stroke="rgb(0, 0, 0)" stroke-linejoin="round" d=" M 191.352, 107.376 188.471, 97.801 186.292, 90.559 185.289, 89.484 184.087, 85.131 179.261, 76.373 177.997, 74.079 171.488, 66.487 170.371, 65.186 164.658, 59.750 156.731, 53.653 156.376, 53.380 149.138, 49.566 142.913, 47.346 138.278, 45.848 137.089, 45.464 130.643, 44.317 126.541, 44.137 124.296, 44.038 122.664, 44.096 " />
            <path fill="none" stroke-width="3.0" stroke-linecap="butt" stroke-opacity="1.0" stroke="rgb(0, 0, 0)" stroke-linejoin="round" d=" M 79.626, 78.100 81.208, 79.028 82.510, 79.792 82.549, 79.815 82.864, 80.000 84.343, 80.867 84.482, 80.949 87.016, 81.969 88.762, 82.673 88.934, 82.742 89.304, 82.891 90.483, 83.365 92.676, 83.833 97.543, 84.870 101.511, 84.090 102.781, 83.840 103.120, 83.773 103.420, 83.344 104.174, 82.265 106.479, 78.968 107.062, 78.135 107.117, 77.970 108.427, 74.081 108.509, 73.838 108.999, 71.286 109.218, 70.144 109.325, 69.585 109.937, 66.392 110.373, 62.999 110.493, 62.066 110.536, 61.727 110.593, 61.283 " />
            <path fill="none" stroke-width="3.0" stroke-linecap="butt" stroke-opacity="1.0" stroke="rgb(0, 0, 0)" stroke-linejoin="round" d=" M 186.938, 104.500 182.916, 101.202 175.099, 97.720 166.589, 93.930 160.389, 92.180 " />
            <path fill="none" stroke-width="3.0" stroke-linecap="butt" stroke-opacity="1.0" stroke="rgb(0, 0, 0)" stroke-linejoin="round" d=" M 121.061, 70.289 119.509, 70.196 " />
            <path fill="none" stroke-width="3.0" stroke-linecap="butt" stroke-opacity="1.0" stroke="rgb(0, 0, 0)" stroke-linejoin="round" d=" M 121.061, 70.289 126.407, 71.125 134.934, 72.458 144.829, 74.004 " />
            <path fill="none" stroke-width="3.0" stroke-linecap="butt" stroke-opacity="1.0" stroke="rgb(0, 0, 0)" stroke-linejoin="round" d=" M 138.278, 45.848 137.601, 44.951 134.260, 43.572 130.205, 43.121 127.047, 43.776 126.541, 44.137 " />
            <path fill="none" stroke-width="3.0" stroke-linecap="butt" stroke-opacity="1.0" stroke="rgb(0, 0, 0)" stroke-linejoin="round" d=" M 198.960, 142.646 200.814, 142.184 208.898, 137.549 209.767, 133.839 209.522, 127.095 205.702, 121.582 199.937, 114.458 192.223, 108.095 191.352, 107.376 190.310, 106.517 186.938, 104.500 184.896, 103.279 176.671, 99.639 170.991, 97.126 " />
            <path fill="none" stroke-width="3.0" stroke-linecap="butt" stroke-opacity="1.0" stroke="rgb(0, 0, 0)" stroke-linejoin="round" d=" M 199.117, 123.767 207.061, 129.841 208.589, 131.009 208.898, 137.549 " />
            <path fill="none" stroke-width="3.0" stroke-linecap="butt" stroke-opacity="1.0" stroke="rgb(0, 0, 0)" stroke-linejoin="round" d=" M 44.298, 94.007 43.511, 94.602 38.045, 98.682 32.076, 104.608 31.634, 108.266 " />
            <path fill="none" stroke-width="3.0" stroke-linecap="butt" stroke-opacity="1.0" stroke="rgb(0, 0, 0)" stroke-linejoin="round" d=" M 209.522, 127.095 201.691, 120.876 199.163, 118.868 " />
            <path fill="none" stroke-width="3.0" stroke-linecap="butt" stroke-opacity="1.0" stroke="rgb(0, 0, 0)" stroke-linejoin="round" d=" M 59.772, 83.562 59.019, 84.723 " />
            <path fill="none" stroke-width="3.0" stroke-linecap="butt" stroke-opacity="1.0" stroke="rgb(0, 0, 0)" stroke-linejoin="round" d=" M 107.046, 78.992 107.372, 77.899 108.514, 74.078 " />
            <path fill="none" stroke-width="3.0" stroke-linecap="butt" stroke-opacity="1.0" stroke="rgb(0, 0, 0)" stroke-linejoin="round" d=" M 108.427, 74.081 108.514, 74.078 110.696, 73.986 " />
            <path fill="none" stroke-width="3.0" stroke-linecap="butt" stroke-opacity="1.0" stroke="rgb(0, 0, 0)" stroke-linejoin="round" d=" M 133.319, 215.477 134.280, 218.142 135.102, 220.422 " />
            <path fill="none" stroke-width="3.0" stroke-linecap="butt" stroke-opacity="1.0" stroke="rgb(0, 0, 0)" stroke-linejoin="round" d=" M 196.882, 126.198 201.484, 129.604 " />
        </g>
    </g>
</svg>
