<?xml version='1.0' encoding='ascii'?>
<svg xmlns="http://www.w3.org/2000/svg" version="1.1" width="250" height="250">
    <g id="ViewLayer_LineSet" xmlns:inkscape="http://www.inkscape.org/namespaces/inkscape" inkscape:groupmode="lineset" inkscape:label="ViewLayer_LineSet">
        <g xmlns:inkscape="http://www.inkscape.org/namespaces/inkscape" inkscape:groupmode="layer" id="strokes" inkscape:label="strokes">
            <path fill="none" stroke-width="3.0" stroke-linecap="butt" stroke-opacity="1.0" stroke="rgb(0, 0, 0)" stroke-linejoin="round" d=" M 59.817, 97.339 58.698, 98.787 57.723, 100.266 53.226, 107.651 50.351, 114.204 49.608, 115.899 49.236, 117.112 49.157, 117.371 46.910, 124.706 45.557, 132.421 45.115, 139.440 45.040, 141.911 45.350, 148.370 45.704, 151.027 46.639, 156.632 47.139, 158.889 47.878, 161.525 48.820, 164.417 49.429, 166.153 49.992, 167.693 50.610, 169.227 51.129, 170.430 52.391, 173.278 53.650, 175.846 54.847, 178.010 55.925, 179.664 59.392, 184.944 63.383, 189.693 63.417, 189.733 65.245, 191.877 70.198, 196.619 75.568, 200.746 " />
            <path fill="none" stroke-width="3.0" stroke-linecap="butt" stroke-opacity="1.0" stroke="rgb(0, 0, 0)" stroke-linejoin="round" d=" M 174.899, 187.739 175.195, 187.304 " />
            <path fill="none" stroke-width="3.0" stroke-linecap="butt" stroke-opacity="1.0" stroke="rgb(0, 0, 0)" stroke-linejoin="round" d=" M 94.705, 210.672 99.905, 211.982 105.872, 213.432 109.897, 214.084 113.829, 214.434 114.271, 214.473 118.388, 214.570 118.799, 214.579 " />
            <path fill="none" stroke-width="3.0" stroke-linecap="butt" stroke-opacity="1.0" stroke="rgb(0, 0, 0)" stroke-linejoin="round" d=" M 68.077, 148.524 68.547, 149.912 69.737, 151.975 71.406, 153.648 73.335, 154.904 75.147, 155.385 77.025, 155.361 79.172, 154.596 81.023, 153.327 82.433, 151.535 83.097, 150.248 " />
            <path fill="none" stroke-width="3.0" stroke-linecap="butt" stroke-opacity="1.0" stroke="rgb(0, 0, 0)" stroke-linejoin="round" d=" M 107.008, 100.830 107.337, 102.342 107.539, 105.717 107.319, 109.523 107.345, 109.592 106.408, 114.440 106.392, 114.522 105.729, 117.955 104.255, 122.129 102.577, 126.375 100.712, 130.323 98.821, 133.610 98.722, 133.782 98.524, 134.052 96.669, 136.582 94.612, 138.582 93.646, 139.114 92.613, 139.683 91.138, 139.798 90.734, 139.830 89.043, 139.013 87.607, 137.269 86.494, 134.677 85.767, 131.360 85.721, 130.752 85.682, 130.224 85.476, 127.476 85.652, 123.211 86.022, 120.685 86.302, 118.768 87.383, 114.417 88.794, 110.313 89.179, 109.444 89.244, 109.296 90.496, 106.464 92.423, 103.012 94.499, 100.076 95.324, 99.186 " />
            <path fill="none" stroke-width="3.0" stroke-linecap="butt" stroke-opacity="1.0" stroke="rgb(0, 0, 0)" stroke-linejoin="round" d=" M 68.505, 117.513 67.468, 121.316 67.358, 121.718 66.612, 124.265 66.487, 124.693 66.180, 125.739 64.984, 129.381 63.775, 132.458 62.551, 134.817 61.323, 136.336 61.319, 136.340 60.097, 136.955 58.924, 136.930 57.838, 135.407 56.923, 133.334 56.250, 130.525 55.891, 127.125 55.903, 123.630 55.904, 123.304 56.167, 120.757 56.215, 120.287 56.323, 119.244 56.750, 117.121 57.136, 115.196 58.213, 111.295 59.490, 107.544 60.918, 104.077 62.439, 101.011 63.996, 98.453 64.370, 97.972 64.849, 97.357 64.999, 97.163 " />
            <path fill="none" stroke-width="3.0" stroke-linecap="butt" stroke-opacity="1.0" stroke="rgb(0, 0, 0)" stroke-linejoin="round" d=" M 58.924, 136.930 62.770, 138.378 " />
            <path fill="none" stroke-width="3.0" stroke-linecap="butt" stroke-opacity="1.0" stroke="rgb(0, 0, 0)" stroke-linejoin="round" d=" M 70.808, 97.026 70.876, 97.202 70.880, 97.232 71.201, 99.465 71.220, 101.653 71.225, 102.156 71.226, 102.325 71.011, 105.750 70.390, 109.420 " />
            <path fill="none" stroke-width="3.0" stroke-linecap="butt" stroke-opacity="1.0" stroke="rgb(0, 0, 0)" stroke-linejoin="round" d=" M 72.274, 119.497 68.505, 117.513 68.587, 117.192 69.561, 113.393 70.390, 109.420 74.112, 111.487 " />
            <path fill="none" stroke-width="3.0" stroke-linecap="butt" stroke-opacity="1.0" stroke="rgb(0, 0, 0)" stroke-linejoin="round" d=" M 118.388, 214.570 118.448, 216.483 119.002, 221.288 119.341, 224.124 120.481, 226.882 123.212, 230.783 125.479, 233.029 129.504, 235.870 134.641, 237.612 139.485, 238.417 145.102, 238.303 152.530, 237.182 158.965, 235.400 165.555, 232.710 169.783, 230.074 175.474, 223.374 181.281, 215.233 182.206, 213.936 186.872, 205.091 186.997, 204.854 187.995, 202.259 189.895, 194.630 190.226, 191.685 190.119, 190.298 " />
            <path fill="none" stroke-width="3.0" stroke-linecap="butt" stroke-opacity="1.0" stroke="rgb(0, 0, 0)" stroke-linejoin="round" d=" M 63.417, 189.733 63.177, 189.928 57.276, 196.933 54.451, 200.322 51.356, 204.352 50.049, 206.678 47.196, 211.499 45.631, 215.354 44.882, 219.056 44.616, 222.081 44.938, 225.745 45.819, 229.355 47.948, 232.297 50.526, 234.630 54.189, 237.095 57.976, 238.524 62.442, 239.174 68.685, 239.354 73.170, 239.038 79.501, 237.919 83.198, 237.174 86.757, 236.180 95.307, 230.993 97.369, 229.741 99.555, 228.271 106.829, 221.409 107.716, 220.572 113.829, 214.434 " />
            <path fill="none" stroke-width="3.0" stroke-linecap="butt" stroke-opacity="1.0" stroke="rgb(0, 0, 0)" stroke-linejoin="round" d=" M 164.650, 180.201 169.668, 184.303 173.957, 186.785 175.195, 187.304 178.092, 188.521 180.769, 189.527 184.910, 190.456 188.505, 190.484 190.119, 190.298 191.582, 190.129 194.584, 189.557 199.406, 187.453 201.798, 185.722 203.426, 184.447 205.763, 182.078 206.886, 180.436 208.651, 177.497 209.709, 174.566 210.442, 171.996 210.705, 170.279 211.042, 166.887 210.706, 162.783 209.241, 157.163 207.475, 152.438 204.186, 146.670 201.018, 142.238 200.996, 142.207 200.581, 141.627 197.078, 137.141 193.357, 133.292 190.855, 131.417 189.212, 130.186 186.392, 128.855 180.270, 125.740 " />
            <path fill="none" stroke-width="3.0" stroke-linecap="butt" stroke-opacity="1.0" stroke="rgb(0, 0, 0)" stroke-linejoin="round" d=" M 109.931, 68.734 111.071, 67.708 111.232, 67.392 111.279, 67.300 113.496, 62.958 113.800, 61.340 113.751, 57.664 113.405, 56.241 110.834, 51.328 107.954, 48.967 106.646, 48.720 " />
            <path fill="none" stroke-width="3.0" stroke-linecap="butt" stroke-opacity="1.0" stroke="rgb(0, 0, 0)" stroke-linejoin="round" d=" M 93.272, 22.985 91.465, 19.337 89.673, 15.730 86.697, 11.434 84.495, 8.897 80.432, 6.973 79.232, 6.926 74.248, 9.719 68.485, 15.560 64.712, 20.745 62.168, 24.722 58.320, 25.681 53.230, 27.375 46.860, 30.964 42.804, 35.149 42.038, 40.527 42.920, 45.779 45.190, 50.683 47.376, 54.119 45.674, 58.583 43.853, 64.527 42.849, 72.172 43.920, 77.211 44.479, 78.552 47.426, 79.781 51.846, 80.930 56.343, 81.390 58.814, 80.911 59.091, 80.858 60.412, 80.602 61.767, 80.340 66.949, 78.932 70.317, 77.774 71.210, 77.256 " />
            <path fill="none" stroke-width="3.0" stroke-linecap="butt" stroke-opacity="1.0" stroke="rgb(0, 0, 0)" stroke-linejoin="round" d=" M 32.802, 105.068 34.606, 99.427 36.732, 98.677 45.473, 95.589 45.754, 95.490 48.636, 95.374 58.628, 94.970 59.885, 94.919 61.746, 94.844 62.096, 94.830 68.354, 94.577 78.317, 95.439 88.280, 96.300 97.518, 97.098 99.548, 97.274 104.759, 98.212 106.246, 98.480 106.664, 98.556 107.161, 98.645 117.003, 100.418 126.844, 102.192 133.621, 103.412 143.300, 105.926 152.979, 108.439 162.658, 110.952 165.362, 111.654 169.339, 113.123 170.964, 113.723 172.757, 114.386 " />
            <path fill="none" stroke-width="3.0" stroke-linecap="butt" stroke-opacity="1.0" stroke="rgb(0, 0, 0)" stroke-linejoin="round" d=" M 200.996, 142.207 202.557, 141.863 207.168, 137.212 202.917, 130.524 199.341, 128.474 190.669, 123.502 " />
            <path fill="none" stroke-width="3.0" stroke-linecap="butt" stroke-opacity="1.0" stroke="rgb(0, 0, 0)" stroke-linejoin="round" d=" M 190.558, 123.590 198.383, 128.072 202.663, 134.523 " />
            <path fill="none" stroke-width="3.0" stroke-linecap="butt" stroke-opacity="1.0" stroke="rgb(0, 0, 0)" stroke-linejoin="round" d=" M 42.240, 100.585 43.754, 100.139 52.397, 97.591 " />
            <path fill="none" stroke-width="3.0" stroke-linecap="butt" stroke-opacity="1.0" stroke="rgb(0, 0, 0)" stroke-linejoin="round" d=" M 48.705, 97.716 44.048, 99.112 43.876, 99.163 36.945, 101.240 34.995, 106.557 34.952, 106.673 " />
            <path fill="none" stroke-width="3.0" stroke-linecap="butt" stroke-opacity="1.0" stroke="rgb(0, 0, 0)" stroke-linejoin="round" d=" M 48.705, 97.716 52.397, 97.591 59.817, 97.339 63.251, 97.223 64.583, 97.177 64.999, 97.163 70.323, 96.983 70.808, 97.026 71.253, 97.065 73.362, 97.251 83.323, 98.129 93.285, 99.006 95.324, 99.186 99.882, 99.588 100.987, 99.780 107.008, 100.830 109.125, 101.199 118.976, 102.916 128.828, 104.633 133.130, 105.383 142.814, 107.878 152.498, 110.373 162.182, 112.868 164.327, 113.420 170.294, 115.603 " />
            <path fill="none" stroke-width="3.0" stroke-linecap="butt" stroke-opacity="1.0" stroke="rgb(0, 0, 0)" stroke-linejoin="round" d=" M 97.217, 67.477 97.652, 68.231 99.108, 70.753 99.373, 71.211 100.355, 71.191 103.219, 71.132 " />
            <path fill="none" stroke-width="3.0" stroke-linecap="butt" stroke-opacity="1.0" stroke="rgb(0, 0, 0)" stroke-linejoin="round" d=" M 34.555, 98.164 33.987, 98.999 33.003, 101.777 32.493, 104.735 32.763, 107.138 33.318, 109.256 39.453, 113.385 42.027, 114.847 43.494, 114.339 43.845, 114.217 45.127, 113.773 47.091, 112.402 47.808, 111.901 49.087, 106.955 " />
            <path fill="none" stroke-width="3.0" stroke-linecap="butt" stroke-opacity="1.0" stroke="rgb(0, 0, 0)" stroke-linejoin="round" d=" M 35.880, 110.825 33.318, 109.256 " />
            <path fill="none" stroke-width="3.0" stroke-linecap="butt" stroke-opacity="1.0" stroke="rgb(0, 0, 0)" stroke-linejoin="round" d=" M 47.808, 111.901 42.136, 109.498 " />
            <path fill="none" stroke-width="3.0" stroke-linecap="butt" stroke-opacity="1.0" stroke="rgb(0, 0, 0)" stroke-linejoin="round" d=" M 42.798, 107.551 42.136, 109.498 38.909, 110.405 " />
            <path fill="none" stroke-width="3.0" stroke-linecap="butt" stroke-opacity="1.0" stroke="rgb(0, 0, 0)" stroke-linejoin="round" d=" M 58.814, 80.911 50.899, 84.679 44.193, 88.071 39.534, 92.046 37.952, 93.815 " />
            <path fill="none" stroke-width="3.0" stroke-linecap="butt" stroke-opacity="1.0" stroke="rgb(0, 0, 0)" stroke-linejoin="round" d=" M 50.899, 84.679 59.906, 81.463 60.525, 81.242 70.454, 80.049 71.717, 79.897 74.992, 79.793 76.537, 79.743 " />
            <path fill="none" stroke-width="3.0" stroke-linecap="butt" stroke-opacity="1.0" stroke="rgb(0, 0, 0)" stroke-linejoin="round" d=" M 170.294, 115.603 170.724, 116.717 173.341, 118.190 179.810, 120.676 181.134, 121.185 189.339, 124.338 189.533, 124.412 190.558, 123.590 190.669, 123.502 191.399, 122.917 191.634, 121.602 192.062, 119.197 190.982, 117.625 189.161, 114.975 188.824, 114.485 184.691, 110.528 182.040, 107.990 174.041, 102.370 167.482, 97.630 162.602, 94.818 158.887, 92.678 158.531, 92.473 149.293, 88.644 148.301, 88.233 147.043, 87.712 137.505, 84.706 134.323, 83.702 124.721, 80.911 121.714, 80.037 111.863, 78.321 109.301, 77.874 102.157, 76.671 101.000, 76.476 98.719, 76.091 " />
            <path fill="none" stroke-width="3.0" stroke-linecap="butt" stroke-opacity="1.0" stroke="rgb(0, 0, 0)" stroke-linejoin="round" d=" M 89.928, 80.540 98.910, 81.512 99.994, 81.629 100.017, 81.632 109.706, 84.107 115.904, 85.690 124.930, 88.375 130.029, 89.892 139.347, 93.520 142.965, 94.929 152.128, 98.934 154.400, 99.926 163.124, 104.111 170.030, 107.839 175.545, 111.767 176.451, 113.050 177.714, 114.835 178.259, 117.453 177.293, 118.163 176.044, 119.079 " />
            <path fill="none" stroke-width="3.0" stroke-linecap="butt" stroke-opacity="1.0" stroke="rgb(0, 0, 0)" stroke-linejoin="round" d=" M 83.771, 77.355 84.502, 76.307 84.917, 75.711 87.529, 71.968 89.028, 67.435 89.390, 66.339 89.435, 66.205 89.611, 65.670 89.782, 65.154 89.912, 64.762 90.250, 63.740 91.157, 57.377 91.254, 55.798 91.328, 54.583 91.447, 52.636 " />
            <path fill="none" stroke-width="3.0" stroke-linecap="butt" stroke-opacity="1.0" stroke="rgb(0, 0, 0)" stroke-linejoin="round" d=" M 64.364, 72.259 65.025, 72.762 67.344, 74.531 68.504, 75.177 71.714, 76.963 71.741, 76.978 71.909, 77.016 75.762, 77.909 78.319, 78.502 82.078, 77.711 83.771, 77.355 85.147, 78.787 87.040, 79.847 87.475, 80.091 87.759, 80.146 89.904, 80.566 " />
            <path fill="none" stroke-width="3.0" stroke-linecap="butt" stroke-opacity="1.0" stroke="rgb(0, 0, 0)" stroke-linejoin="round" d=" M 65.326, 73.547 64.899, 72.976 64.364, 72.259 60.387, 74.536 55.071, 76.926 48.314, 78.340 43.920, 77.211 " />
            <path fill="none" stroke-width="3.0" stroke-linecap="butt" stroke-opacity="1.0" stroke="rgb(0, 0, 0)" stroke-linejoin="round" d=" M 65.326, 73.547 69.729, 76.482 71.099, 77.197 71.210, 77.256 72.296, 77.823 75.250, 79.161 75.927, 79.467 76.537, 79.743 77.236, 80.059 77.470, 80.166 77.513, 80.176 78.069, 80.305 82.000, 81.217 82.155, 81.242 82.791, 81.346 84.841, 81.680 88.679, 80.836 89.904, 80.566 89.928, 80.540 90.349, 80.088 91.027, 79.357 91.321, 79.041 91.582, 78.760 93.384, 75.885 96.110, 71.533 96.119, 71.502 96.955, 68.438 97.217, 67.477 97.254, 67.342 97.474, 66.537 97.884, 65.034 98.130, 64.132 98.219, 63.788 98.679, 62.016 99.159, 60.165 100.861, 57.662 100.866, 57.654 101.135, 57.259 101.970, 56.030 102.089, 55.855 102.642, 55.042 105.443, 50.620 106.646, 48.720 108.050, 46.504 109.333, 43.305 109.618, 42.595 111.383, 36.929 110.554, 33.759 107.717, 29.638 105.825, 27.338 101.206, 25.006 98.242, 23.951 93.272, 22.985 93.146, 22.961 89.239, 22.579 " />
            <path fill="none" stroke-width="3.0" stroke-linecap="butt" stroke-opacity="1.0" stroke="rgb(0, 0, 0)" stroke-linejoin="round" d=" M 79.232, 6.926 83.212, 8.814 86.683, 13.874 88.343, 18.734 89.239, 22.579 " />
            <path fill="none" stroke-width="3.0" stroke-linecap="butt" stroke-opacity="1.0" stroke="rgb(0, 0, 0)" stroke-linejoin="round" d=" M 95.530, 55.687 95.265, 55.469 94.082, 54.498 92.988, 53.600 92.689, 53.413 91.447, 52.636 92.979, 51.243 94.846, 49.546 95.772, 48.703 95.783, 48.693 96.301, 48.139 101.084, 43.020 104.961, 37.000 106.883, 31.002 104.072, 26.900 98.242, 23.951 " />
            <path fill="none" stroke-width="3.0" stroke-linecap="butt" stroke-opacity="1.0" stroke="rgb(0, 0, 0)" stroke-linejoin="round" d=" M 188.121, 92.168 187.319, 89.157 182.959, 80.158 181.673, 77.504 178.269, 71.390 172.145, 63.484 171.328, 62.429 163.751, 55.903 162.437, 54.771 156.914, 50.573 148.763, 46.759 144.062, 44.681 142.389, 44.181 137.932, 42.849 131.454, 41.783 129.758, 41.733 125.352, 41.602 118.519, 41.775 110.510, 42.909 109.333, 43.305 " />
            <path fill="none" stroke-width="3.0" stroke-linecap="butt" stroke-opacity="1.0" stroke="rgb(0, 0, 0)" stroke-linejoin="round" d=" M 108.704, 31.523 110.554, 33.759 " />
            <path fill="none" stroke-width="3.0" stroke-linecap="butt" stroke-opacity="1.0" stroke="rgb(0, 0, 0)" stroke-linejoin="round" d=" M 190.874, 107.999 189.815, 106.285 181.389, 100.899 178.018, 98.744 177.802, 98.658 168.519, 94.941 163.420, 92.899 159.058, 91.152 149.407, 88.533 148.301, 88.233 " />
            <path fill="none" stroke-width="3.0" stroke-linecap="butt" stroke-opacity="1.0" stroke="rgb(0, 0, 0)" stroke-linejoin="round" d=" M 113.061, 67.399 111.279, 67.300 " />
            <path fill="none" stroke-width="3.0" stroke-linecap="butt" stroke-opacity="1.0" stroke="rgb(0, 0, 0)" stroke-linejoin="round" d=" M 113.061, 67.399 117.873, 68.125 127.761, 69.618 129.983, 69.953 131.679, 70.209 137.175, 71.038 " />
            <path fill="none" stroke-width="3.0" stroke-linecap="butt" stroke-opacity="1.0" stroke="rgb(0, 0, 0)" stroke-linejoin="round" d=" M 193.083, 109.449 190.824, 99.707 189.608, 94.464 188.121, 92.168 185.501, 88.123 184.577, 87.030 " />
            <path fill="none" stroke-width="3.0" stroke-linecap="butt" stroke-opacity="1.0" stroke="rgb(0, 0, 0)" stroke-linejoin="round" d=" M 142.389, 44.181 140.650, 42.441 137.063, 41.088 133.067, 40.695 130.246, 41.413 129.758, 41.733 " />
            <path fill="none" stroke-width="3.0" stroke-linecap="butt" stroke-opacity="1.0" stroke="rgb(0, 0, 0)" stroke-linejoin="round" d=" M 201.018, 142.238 204.659, 141.434 209.587, 136.585 210.613, 132.786 206.475, 125.588 202.980, 119.897 197.651, 112.556 193.083, 109.449 192.041, 108.740 190.874, 107.999 182.432, 102.638 179.615, 100.848 179.136, 100.658 169.845, 96.961 168.172, 96.296 159.482, 92.839 158.887, 92.678 " />
            <path fill="none" stroke-width="3.0" stroke-linecap="butt" stroke-opacity="1.0" stroke="rgb(0, 0, 0)" stroke-linejoin="round" d=" M 191.634, 121.602 197.419, 124.976 205.342, 129.595 209.587, 136.585 " />
            <path fill="none" stroke-width="3.0" stroke-linecap="butt" stroke-opacity="1.0" stroke="rgb(0, 0, 0)" stroke-linejoin="round" d=" M 41.089, 91.652 37.952, 93.815 35.400, 95.575 34.555, 98.164 33.456, 101.530 32.802, 105.068 " />
            <path fill="none" stroke-width="3.0" stroke-linecap="butt" stroke-opacity="1.0" stroke="rgb(0, 0, 0)" stroke-linejoin="round" d=" M 206.475, 125.588 197.911, 120.426 191.836, 116.765 " />
            <path fill="none" stroke-width="3.0" stroke-linecap="butt" stroke-opacity="1.0" stroke="rgb(0, 0, 0)" stroke-linejoin="round" d=" M 43.494, 114.339 49.157, 117.371 " />
            <path fill="none" stroke-width="3.0" stroke-linecap="butt" stroke-opacity="1.0" stroke="rgb(0, 0, 0)" stroke-linejoin="round" d=" M 96.955, 68.438 97.652, 68.231 " />
            <path fill="none" stroke-width="3.0" stroke-linecap="butt" stroke-opacity="1.0" stroke="rgb(0, 0, 0)" stroke-linejoin="round" d=" M 98.402, 76.079 100.355, 71.191 " />
            <path fill="none" stroke-width="3.0" stroke-linecap="butt" stroke-opacity="1.0" stroke="rgb(0, 0, 0)" stroke-linejoin="round" d=" M 190.855, 131.417 189.339, 124.338 " />
        </g>
    </g>
</svg>
