<?xml version='1.0' encoding='ascii'?>
<svg xmlns="http://www.w3.org/2000/svg" version="1.1" width="250" height="250">
    <g id="ViewLayer_LineSet" xmlns:inkscape="http://www.inkscape.org/namespaces/inkscape" inkscape:groupmode="lineset" inkscape:label="ViewLayer_LineSet">
        <g xmlns:inkscape="http://www.inkscape.org/namespaces/inkscape" inkscape:groupmode="layer" id="strokes" inkscape:label="strokes">
            <path fill="none" stroke-width="3.0" stroke-linecap="butt" stroke-opacity="1.0" stroke="rgb(0, 0, 0)" stroke-linejoin="round" d=" M 141.359, 213.300 146.106, 211.990 149.901, 210.374 155.735, 207.856 161.805, 204.372 166.438, 200.957 166.762, 200.719 167.101, 200.469 167.257, 200.347 170.524, 197.803 174.763, 193.779 177.756, 190.537 180.822, 186.691 183.190, 183.503 185.553, 179.732 187.808, 175.552 188.752, 173.523 189.858, 171.148 191.618, 166.708 193.008, 162.424 193.963, 158.485 194.851, 153.860 195.473, 149.368 195.765, 143.719 195.708, 139.215 195.257, 132.826 194.096, 126.646 193.086, 123.110 193.056, 123.005 192.986, 122.761 192.114, 119.708 191.612, 117.949 188.019, 109.188 183.971, 101.973 182.493, 100.016 " />
            <path fill="none" stroke-width="3.0" stroke-linecap="butt" stroke-opacity="1.0" stroke="rgb(0, 0, 0)" stroke-linejoin="round" d=" M 56.958, 176.766 62.428, 185.137 62.994, 186.004 65.068, 188.955 71.879, 196.277 72.590, 197.040 73.713, 197.889 " />
            <path fill="none" stroke-width="3.0" stroke-linecap="butt" stroke-opacity="1.0" stroke="rgb(0, 0, 0)" stroke-linejoin="round" d=" M 51.987, 119.518 51.868, 119.806 51.020, 123.373 " />
            <path fill="none" stroke-width="3.0" stroke-linecap="butt" stroke-opacity="1.0" stroke="rgb(0, 0, 0)" stroke-linejoin="round" d=" M 147.701, 152.621 148.387, 153.957 149.892, 155.841 151.906, 157.213 154.255, 158.087 156.340, 158.196 158.382, 157.787 160.592, 156.593 162.513, 154.962 163.480, 153.546 163.914, 152.910 164.495, 151.515 " />
            <path fill="none" stroke-width="3.0" stroke-linecap="butt" stroke-opacity="1.0" stroke="rgb(0, 0, 0)" stroke-linejoin="round" d=" M 173.070, 99.495 173.501, 100.066 175.004, 102.728 175.516, 103.887 175.758, 104.436 176.411, 105.916 177.665, 109.519 177.627, 109.584 179.440, 117.555 179.786, 119.892 180.036, 121.581 180.116, 124.429 180.152, 125.718 180.002, 127.736 179.973, 128.118 179.862, 129.619 179.202, 133.102 178.235, 135.999 177.036, 138.161 175.687, 139.476 174.266, 139.866 172.994, 139.363 172.840, 139.303 171.459, 137.799 170.155, 135.419 168.948, 132.272 168.692, 131.401 168.567, 130.974 167.845, 128.510 166.942, 124.704 166.851, 124.321 165.975, 119.911 165.234, 115.562 164.733, 111.437 164.624, 109.445 164.600, 109.018 164.520, 107.557 164.604, 104.068 164.981, 101.097 165.498, 99.244 165.543, 99.079 " />
            <path fill="none" stroke-width="3.0" stroke-linecap="butt" stroke-opacity="1.0" stroke="rgb(0, 0, 0)" stroke-linejoin="round" d=" M 146.731, 120.396 147.221, 124.832 147.266, 129.107 146.867, 133.021 146.099, 136.160 146.044, 136.385 145.917, 136.664 144.837, 139.035 143.300, 140.842 141.782, 141.577 141.497, 141.715 139.581, 141.918 137.384, 140.529 135.356, 138.640 135.227, 138.520 135.022, 138.245 133.106, 135.679 131.100, 132.145 129.282, 128.095 127.723, 123.729 126.493, 119.325 126.381, 118.752 126.359, 118.639 125.657, 115.051 125.231, 110.923 125.227, 107.096 125.642, 103.710 126.402, 101.066 " />
            <path fill="none" stroke-width="3.0" stroke-linecap="butt" stroke-opacity="1.0" stroke="rgb(0, 0, 0)" stroke-linejoin="round" d=" M 141.015, 142.479 143.300, 140.842 " />
            <path fill="none" stroke-width="3.0" stroke-linecap="butt" stroke-opacity="1.0" stroke="rgb(0, 0, 0)" stroke-linejoin="round" d=" M 137.922, 100.158 139.189, 101.569 141.190, 104.540 143.016, 108.097 144.578, 111.922 " />
            <path fill="none" stroke-width="3.0" stroke-linecap="butt" stroke-opacity="1.0" stroke="rgb(0, 0, 0)" stroke-linejoin="round" d=" M 144.424, 122.301 146.731, 120.396 145.833, 116.073 145.517, 115.028 145.472, 114.880 144.578, 111.922 142.314, 113.934 " />
            <path fill="none" stroke-width="3.0" stroke-linecap="butt" stroke-opacity="1.0" stroke="rgb(0, 0, 0)" stroke-linejoin="round" d=" M 143.508, 226.784 147.850, 227.365 153.387, 227.002 157.298, 226.143 160.570, 224.462 163.362, 222.885 166.227, 219.984 167.959, 216.659 168.950, 213.630 169.429, 210.505 168.923, 206.798 168.420, 203.551 167.257, 200.347 " />
            <path fill="none" stroke-width="3.0" stroke-linecap="butt" stroke-opacity="1.0" stroke="rgb(0, 0, 0)" stroke-linejoin="round" d=" M 73.713, 197.889 72.016, 199.303 69.466, 202.766 68.623, 204.170 65.857, 209.767 64.806, 214.413 64.889, 218.777 65.955, 222.611 66.613, 224.987 68.448, 228.557 72.257, 232.458 75.810, 235.104 81.601, 238.093 85.692, 239.763 91.735, 241.971 97.607, 242.718 99.492, 242.873 107.475, 243.471 115.759, 243.141 119.121, 242.757 125.387, 242.081 130.473, 240.809 135.514, 238.887 138.983, 236.183 141.337, 232.441 142.897, 229.469 143.508, 226.784 143.716, 225.873 143.621, 222.392 142.792, 218.048 142.214, 215.859 141.359, 213.300 140.843, 211.754 138.517, 207.580 " />
            <path fill="none" stroke-width="3.0" stroke-linecap="butt" stroke-opacity="1.0" stroke="rgb(0, 0, 0)" stroke-linejoin="round" d=" M 188.752, 173.523 192.452, 174.694 196.488, 175.439 200.494, 175.534 203.862, 174.960 206.926, 173.956 209.724, 172.488 212.293, 170.593 214.574, 168.354 216.477, 165.639 217.894, 162.796 218.804, 159.849 219.156, 156.770 218.993, 153.498 218.897, 152.468 217.966, 148.514 216.330, 144.705 213.952, 140.738 210.017, 135.924 205.939, 131.804 201.921, 128.224 197.671, 125.301 193.188, 123.071 193.056, 123.005 " />
            <path fill="none" stroke-width="3.0" stroke-linecap="butt" stroke-opacity="1.0" stroke="rgb(0, 0, 0)" stroke-linejoin="round" d=" M 51.020, 123.373 47.358, 124.756 42.724, 127.183 38.509, 130.261 36.708, 131.942 33.639, 134.894 33.188, 135.328 32.753, 135.746 28.729, 140.044 24.924, 144.965 22.828, 148.979 21.449, 152.809 20.767, 156.727 20.494, 158.401 20.538, 161.337 21.032, 164.280 21.611, 166.234 22.922, 169.337 25.047, 172.634 27.638, 175.265 30.228, 177.198 32.590, 178.563 34.935, 179.486 36.503, 179.863 39.717, 180.614 43.567, 180.684 47.495, 180.058 49.909, 179.378 54.376, 178.006 56.958, 176.766 " />
            <path fill="none" stroke-width="3.0" stroke-linecap="butt" stroke-opacity="1.0" stroke="rgb(0, 0, 0)" stroke-linejoin="round" d=" M 132.863, 58.814 132.882, 58.990 132.955, 59.660 133.031, 60.351 133.071, 60.721 133.265, 62.493 133.383, 63.569 133.426, 63.968 134.018, 67.397 134.121, 67.993 134.380, 69.497 134.598, 70.759 134.724, 71.489 134.863, 71.930 136.098, 75.845 136.624, 76.635 136.661, 76.690 136.785, 76.877 139.034, 80.251 139.751, 81.327 139.945, 81.617 140.572, 81.759 142.296, 82.149 145.504, 82.875 149.447, 82.125 152.659, 81.513 152.796, 81.462 153.864, 81.063 153.915, 81.044 155.581, 80.420 158.697, 79.255 159.126, 79.016 159.567, 78.771 160.597, 78.199 161.065, 77.939 161.610, 77.636 163.593, 76.534 " />
            <path fill="none" stroke-width="3.0" stroke-linecap="butt" stroke-opacity="1.0" stroke="rgb(0, 0, 0)" stroke-linejoin="round" d=" M 144.509, 78.494 144.163, 78.885 143.251, 79.918 141.494, 81.189 141.245, 81.258 139.945, 81.617 " />
            <path fill="none" stroke-width="3.0" stroke-linecap="butt" stroke-opacity="1.0" stroke="rgb(0, 0, 0)" stroke-linejoin="round" d=" M 207.571, 112.972 210.151, 108.325 209.777, 104.662 204.222, 98.455 198.834, 94.260 197.274, 93.025 " />
            <path fill="none" stroke-width="3.0" stroke-linecap="butt" stroke-opacity="1.0" stroke="rgb(0, 0, 0)" stroke-linejoin="round" d=" M 58.459, 113.140 62.532, 111.580 63.351, 111.267 64.679, 110.759 74.400, 108.413 84.121, 106.068 93.842, 103.723 94.821, 103.487 104.709, 101.997 114.598, 100.507 124.486, 99.018 127.833, 98.513 129.286, 98.294 135.445, 97.959 145.430, 97.414 155.415, 96.870 163.069, 96.452 166.902, 96.683 167.044, 96.692 170.718, 96.913 180.599, 97.509 182.768, 97.640 185.042, 97.777 189.555, 98.049 192.300, 98.842 199.862, 101.027 204.766, 102.444 208.963, 107.028 210.151, 108.325 " />
            <path fill="none" stroke-width="3.0" stroke-linecap="butt" stroke-opacity="1.0" stroke="rgb(0, 0, 0)" stroke-linejoin="round" d=" M 193.188, 123.071 193.837, 122.823 202.394, 117.593 " />
            <path fill="none" stroke-width="3.0" stroke-linecap="butt" stroke-opacity="1.0" stroke="rgb(0, 0, 0)" stroke-linejoin="round" d=" M 38.882, 125.964 43.820, 122.489 " />
            <path fill="none" stroke-width="3.0" stroke-linecap="butt" stroke-opacity="1.0" stroke="rgb(0, 0, 0)" stroke-linejoin="round" d=" M 42.965, 121.885 40.310, 123.771 34.048, 128.221 33.282, 134.669 33.639, 134.894 " />
            <path fill="none" stroke-width="3.0" stroke-linecap="butt" stroke-opacity="1.0" stroke="rgb(0, 0, 0)" stroke-linejoin="round" d=" M 56.388, 116.191 62.157, 114.013 66.027, 112.551 75.754, 110.232 85.482, 107.913 95.209, 105.594 95.686, 105.480 105.584, 104.058 108.011, 103.709 117.909, 102.287 125.447, 101.204 126.402, 101.066 129.438, 100.630 133.651, 100.396 137.922, 100.158 147.907, 99.603 157.892, 99.049 161.428, 98.852 163.377, 98.960 163.635, 98.974 165.045, 99.052 165.543, 99.079 173.070, 99.495 180.448, 99.903 182.252, 100.003 182.493, 100.016 184.181, 100.109 186.690, 100.248 " />
            <path fill="none" stroke-width="3.0" stroke-linecap="butt" stroke-opacity="1.0" stroke="rgb(0, 0, 0)" stroke-linejoin="round" d=" M 207.112, 111.406 207.922, 109.909 202.398, 104.239 " />
            <path fill="none" stroke-width="3.0" stroke-linecap="butt" stroke-opacity="1.0" stroke="rgb(0, 0, 0)" stroke-linejoin="round" d=" M 136.726, 76.878 135.606, 76.894 134.473, 77.050 124.567, 78.417 124.343, 78.448 114.447, 79.885 111.362, 80.333 101.684, 82.849 98.375, 83.710 88.759, 86.456 85.433, 87.406 82.557, 88.525 81.431, 88.963 73.984, 91.860 70.665, 93.707 65.190, 96.754 63.553, 97.905 62.856, 98.395 58.755, 101.279 54.442, 104.223 50.929, 106.619 48.361, 108.982 44.168, 112.840 41.091, 117.396 41.616, 119.961 41.848, 121.095 41.988, 121.195 42.965, 121.885 43.820, 122.489 44.033, 122.639 51.987, 119.518 57.241, 117.457 58.385, 117.009 58.578, 116.922 61.453, 115.632 62.157, 114.013 " />
            <path fill="none" stroke-width="3.0" stroke-linecap="butt" stroke-opacity="1.0" stroke="rgb(0, 0, 0)" stroke-linejoin="round" d=" M 55.282, 117.800 54.145, 117.038 53.261, 116.445 52.764, 116.112 52.828, 115.741 53.206, 113.533 53.379, 113.275 54.099, 112.204 55.209, 110.556 55.907, 110.061 60.475, 106.822 67.133, 103.319 75.734, 99.400 84.989, 95.611 87.156, 94.724 96.568, 91.346 100.259, 90.022 100.962, 89.836 110.631, 87.281 114.875, 86.160 124.642, 84.011 130.862, 82.643 131.693, 82.460 136.290, 82.097 140.572, 81.759 " />
            <path fill="none" stroke-width="3.0" stroke-linecap="butt" stroke-opacity="1.0" stroke="rgb(0, 0, 0)" stroke-linejoin="round" d=" M 153.864, 81.063 154.083, 81.059 155.481, 81.032 162.298, 81.382 162.675, 81.401 163.754, 81.539 173.673, 82.808 175.620, 83.057 184.400, 85.962 187.019, 86.829 189.772, 88.053 192.372, 89.209 192.553, 89.289 194.984, 90.370 195.264, 90.494 201.290, 94.713 205.879, 98.748 208.878, 102.038 210.550, 104.932 211.591, 107.997 211.518, 110.464 210.998, 112.628 206.428, 116.681 203.730, 118.095 202.394, 117.593 202.341, 117.573 200.514, 116.886 199.208, 115.946 197.720, 114.875 196.277, 109.760 " />
            <path fill="none" stroke-width="3.0" stroke-linecap="butt" stroke-opacity="1.0" stroke="rgb(0, 0, 0)" stroke-linejoin="round" d=" M 195.264, 90.494 194.699, 90.173 193.183, 89.312 185.115, 84.728 " />
            <path fill="none" stroke-width="3.0" stroke-linecap="butt" stroke-opacity="1.0" stroke="rgb(0, 0, 0)" stroke-linejoin="round" d=" M 194.699, 90.173 191.867, 88.222 185.115, 84.728 183.069, 83.811 181.176, 82.961 " />
            <path fill="none" stroke-width="3.0" stroke-linecap="butt" stroke-opacity="1.0" stroke="rgb(0, 0, 0)" stroke-linejoin="round" d=" M 208.252, 114.158 210.998, 112.628 " />
            <path fill="none" stroke-width="3.0" stroke-linecap="butt" stroke-opacity="1.0" stroke="rgb(0, 0, 0)" stroke-linejoin="round" d=" M 201.667, 112.587 205.044, 113.626 " />
            <path fill="none" stroke-width="3.0" stroke-linecap="butt" stroke-opacity="1.0" stroke="rgb(0, 0, 0)" stroke-linejoin="round" d=" M 200.860, 110.263 201.667, 112.587 197.720, 114.875 " />
            <path fill="none" stroke-width="3.0" stroke-linecap="butt" stroke-opacity="1.0" stroke="rgb(0, 0, 0)" stroke-linejoin="round" d=" M 126.133, 50.219 124.130, 51.614 122.156, 55.294 121.042, 57.959 120.938, 61.667 121.899, 64.298 123.463, 67.744 123.499, 67.823 123.647, 68.149 123.999, 68.436 126.829, 70.743 " />
            <path fill="none" stroke-width="3.0" stroke-linecap="butt" stroke-opacity="1.0" stroke="rgb(0, 0, 0)" stroke-linejoin="round" d=" M 189.481, 79.315 191.173, 74.165 190.742, 66.290 189.221, 60.150 187.780, 55.782 187.698, 55.536 " />
            <path fill="none" stroke-width="3.0" stroke-linecap="butt" stroke-opacity="1.0" stroke="rgb(0, 0, 0)" stroke-linejoin="round" d=" M 166.759, 73.757 171.039, 76.178 176.833, 78.750 180.414, 79.517 184.373, 80.365 189.481, 79.315 189.108, 80.680 186.547, 81.872 182.404, 82.735 181.427, 82.938 181.176, 82.961 177.471, 83.301 171.516, 82.090 165.996, 80.524 161.260, 78.485 160.597, 78.199 " />
            <path fill="none" stroke-width="3.0" stroke-linecap="butt" stroke-opacity="1.0" stroke="rgb(0, 0, 0)" stroke-linejoin="round" d=" M 163.593, 76.534 165.953, 75.054 166.759, 73.757 163.189, 76.009 160.774, 77.126 160.236, 77.374 158.599, 78.131 158.018, 78.400 150.499, 79.793 144.509, 78.494 143.371, 76.781 140.813, 72.934 140.228, 70.770 139.821, 69.264 139.501, 68.079 139.270, 67.225 138.871, 65.750 138.540, 64.524 138.325, 61.252 138.115, 58.050 138.165, 55.915 138.188, 54.962 138.202, 54.366 138.229, 53.235 " />
            <path fill="none" stroke-width="3.0" stroke-linecap="butt" stroke-opacity="1.0" stroke="rgb(0, 0, 0)" stroke-linejoin="round" d=" M 143.454, 22.760 141.389, 22.925 139.068, 23.110 133.314, 24.064 126.584, 26.989 123.102, 31.105 124.676, 37.191 127.870, 42.441 128.414, 43.336 133.176, 48.516 133.771, 49.164 136.984, 52.098 137.466, 52.538 138.229, 53.235 137.851, 53.495 136.843, 54.188 135.382, 55.772 134.930, 56.263 " />
            <path fill="none" stroke-width="3.0" stroke-linecap="butt" stroke-opacity="1.0" stroke="rgb(0, 0, 0)" stroke-linejoin="round" d=" M 187.780, 55.782 190.509, 52.048 193.556, 47.049 195.055, 41.665 194.682, 36.128 190.445, 31.779 183.533, 28.024 177.916, 26.234 173.650, 25.213 171.145, 21.122 167.369, 15.795 161.423, 9.795 156.085, 6.921 155.119, 6.965 150.397, 8.899 146.445, 13.544 144.914, 15.810 142.347, 20.595 141.389, 22.925 " />
            <path fill="none" stroke-width="3.0" stroke-linecap="butt" stroke-opacity="1.0" stroke="rgb(0, 0, 0)" stroke-linejoin="round" d=" M 189.108, 80.680 190.833, 75.429 191.173, 74.165 " />
            <path fill="none" stroke-width="3.0" stroke-linecap="butt" stroke-opacity="1.0" stroke="rgb(0, 0, 0)" stroke-linejoin="round" d=" M 190.509, 52.048 187.698, 55.536 " />
            <path fill="none" stroke-width="3.0" stroke-linecap="butt" stroke-opacity="1.0" stroke="rgb(0, 0, 0)" stroke-linejoin="round" d=" M 133.314, 24.064 130.330, 25.104 125.009, 27.414 121.449, 31.612 120.153, 33.852 120.067, 37.048 121.253, 41.763 121.512, 42.792 125.080, 48.590 126.133, 50.219 129.034, 54.707 129.543, 55.494 132.329, 59.622 132.590, 60.008 132.607, 60.034 133.021, 60.647 133.071, 60.721 " />
            <path fill="none" stroke-width="3.0" stroke-linecap="butt" stroke-opacity="1.0" stroke="rgb(0, 0, 0)" stroke-linejoin="round" d=" M 156.085, 6.921 151.454, 8.820 147.108, 13.940 144.808, 18.864 143.454, 22.760 " />
            <path fill="none" stroke-width="3.0" stroke-linecap="butt" stroke-opacity="1.0" stroke="rgb(0, 0, 0)" stroke-linejoin="round" d=" M 121.253, 41.763 118.704, 41.639 116.205, 41.676 112.317, 41.735 105.790, 42.714 104.521, 43.088 99.857, 44.463 93.601, 46.465 86.156, 50.152 78.070, 56.036 77.697, 56.307 71.712, 61.708 65.018, 69.137 63.821, 70.465 58.795, 79.110 57.432, 81.455 56.126, 85.819 55.089, 86.877 52.003, 96.389 49.617, 103.741 " />
            <path fill="none" stroke-width="3.0" stroke-linecap="butt" stroke-opacity="1.0" stroke="rgb(0, 0, 0)" stroke-linejoin="round" d=" M 123.463, 67.744 121.874, 67.797 112.397, 69.038 109.805, 69.377 99.890, 70.675 97.782, 70.951 " />
            <path fill="none" stroke-width="3.0" stroke-linecap="butt" stroke-opacity="1.0" stroke="rgb(0, 0, 0)" stroke-linejoin="round" d=" M 54.329, 100.806 58.464, 97.585 66.370, 94.278 75.309, 90.539 81.431, 88.963 " />
            <path fill="none" stroke-width="3.0" stroke-linecap="butt" stroke-opacity="1.0" stroke="rgb(0, 0, 0)" stroke-linejoin="round" d=" M 116.205, 41.676 115.822, 41.392 112.673, 40.631 108.581, 40.970 105.169, 42.278 104.521, 43.088 " />
            <path fill="none" stroke-width="3.0" stroke-linecap="butt" stroke-opacity="1.0" stroke="rgb(0, 0, 0)" stroke-linejoin="round" d=" M 70.665, 93.707 64.743, 96.168 56.426, 99.625 54.329, 100.806 50.885, 102.748 49.617, 103.741 41.746, 109.908 40.760, 110.680 34.756, 117.747 30.759, 123.235 30.191, 130.189 30.999, 133.963 33.188, 135.328 " />
            <path fill="none" stroke-width="3.0" stroke-linecap="butt" stroke-opacity="1.0" stroke="rgb(0, 0, 0)" stroke-linejoin="round" d=" M 41.671, 115.000 33.689, 121.024 30.759, 123.235 " />
            <path fill="none" stroke-width="3.0" stroke-linecap="butt" stroke-opacity="1.0" stroke="rgb(0, 0, 0)" stroke-linejoin="round" d=" M 30.999, 133.963 31.629, 127.219 39.718, 121.340 41.616, 119.961 " />
            <path fill="none" stroke-width="3.0" stroke-linecap="butt" stroke-opacity="1.0" stroke="rgb(0, 0, 0)" stroke-linejoin="round" d=" M 132.586, 71.809 134.863, 71.930 " />
            <path fill="none" stroke-width="3.0" stroke-linecap="butt" stroke-opacity="1.0" stroke="rgb(0, 0, 0)" stroke-linejoin="round" d=" M 136.661, 76.690 136.726, 76.878 " />
            <path fill="none" stroke-width="3.0" stroke-linecap="butt" stroke-opacity="1.0" stroke="rgb(0, 0, 0)" stroke-linejoin="round" d=" M 183.069, 83.811 182.404, 82.735 " />
            <path fill="none" stroke-width="3.0" stroke-linecap="butt" stroke-opacity="1.0" stroke="rgb(0, 0, 0)" stroke-linejoin="round" d=" M 184.181, 100.109 193.877, 102.556 197.244, 103.405 " />
        </g>
    </g>
</svg>
