<?xml version='1.0' encoding='ascii'?>
<svg xmlns="http://www.w3.org/2000/svg" version="1.1" width="250" height="250">
    <g id="ViewLayer_LineSet" xmlns:inkscape="http://www.inkscape.org/namespaces/inkscape" inkscape:groupmode="lineset" inkscape:label="ViewLayer_LineSet">
        <g xmlns:inkscape="http://www.inkscape.org/namespaces/inkscape" inkscape:groupmode="layer" id="strokes" inkscape:label="strokes">
            <path fill="none" stroke-width="3.0" stroke-linecap="butt" stroke-opacity="1.0" stroke="rgb(0, 0, 0)" stroke-linejoin="round" d=" M 106.972, 213.123 109.824, 213.816 113.295, 214.660 117.246, 215.394 121.583, 215.868 126.116, 216.061 130.641, 215.961 134.956, 215.575 138.871, 214.922 140.475, 214.579 145.444, 213.518 150.395, 212.203 154.251, 210.618 160.043, 208.155 165.865, 204.735 172.572, 200.135 178.660, 194.662 179.448, 193.786 184.610, 187.977 189.794, 180.533 193.488, 173.527 194.210, 171.671 194.214, 171.662 194.244, 171.585 196.888, 164.795 198.545, 158.895 199.701, 153.214 199.990, 150.495 199.983, 149.785 199.914, 148.409 " />
            <path fill="none" stroke-width="3.0" stroke-linecap="butt" stroke-opacity="1.0" stroke="rgb(0, 0, 0)" stroke-linejoin="round" d=" M 54.092, 152.081 54.320, 154.711 56.783, 164.403 57.155, 165.868 61.048, 174.999 61.445, 175.650 63.668, 179.289 " />
            <path fill="none" stroke-width="3.0" stroke-linecap="butt" stroke-opacity="1.0" stroke="rgb(0, 0, 0)" stroke-linejoin="round" d=" M 199.664, 153.158 199.743, 152.073 199.769, 151.341 199.798, 150.551 199.810, 150.201 199.822, 149.873 " />
            <path fill="none" stroke-width="3.0" stroke-linecap="butt" stroke-opacity="1.0" stroke="rgb(0, 0, 0)" stroke-linejoin="round" d=" M 199.747, 148.655 199.854, 148.546 199.902, 148.436 199.904, 148.430 199.914, 148.409 200.138, 147.891 200.186, 147.681 200.311, 145.943 200.340, 142.487 200.203, 136.436 " />
            <path fill="none" stroke-width="3.0" stroke-linecap="butt" stroke-opacity="1.0" stroke="rgb(0, 0, 0)" stroke-linejoin="round" d=" M 199.943, 150.547 199.852, 150.040 199.829, 149.912 199.822, 149.873 199.750, 148.717 199.747, 148.655 199.669, 147.150 199.542, 145.950 199.528, 144.949 199.576, 143.981 199.694, 143.276 " />
            <path fill="none" stroke-width="3.0" stroke-linecap="butt" stroke-opacity="1.0" stroke="rgb(0, 0, 0)" stroke-linejoin="round" d=" M 199.415, 120.777 199.041, 119.277 197.877, 115.590 196.460, 111.934 194.952, 108.441 193.429, 105.129 193.082, 104.422 " />
            <path fill="none" stroke-width="3.0" stroke-linecap="butt" stroke-opacity="1.0" stroke="rgb(0, 0, 0)" stroke-linejoin="round" d=" M 198.058, 116.968 199.414, 120.776 199.415, 120.777 200.454, 124.464 201.174, 127.869 201.594, 130.835 201.748, 133.224 201.676, 134.918 201.412, 135.833 201.031, 136.179 200.924, 136.011 200.920, 136.006 200.379, 135.160 200.069, 134.530 199.606, 133.587 199.165, 132.528 198.641, 131.269 197.467, 128.315 196.077, 124.869 194.485, 121.100 193.414, 118.721 192.752, 117.250 191.061, 113.465 190.208, 111.450 189.493, 109.765 188.157, 106.405 " />
            <path fill="none" stroke-width="3.0" stroke-linecap="butt" stroke-opacity="1.0" stroke="rgb(0, 0, 0)" stroke-linejoin="round" d=" M 201.412, 135.833 200.920, 136.006 " />
            <path fill="none" stroke-width="3.0" stroke-linecap="butt" stroke-opacity="1.0" stroke="rgb(0, 0, 0)" stroke-linejoin="round" d=" M 192.137, 104.811 192.990, 106.416 194.760, 109.704 " />
            <path fill="none" stroke-width="3.0" stroke-linecap="butt" stroke-opacity="1.0" stroke="rgb(0, 0, 0)" stroke-linejoin="round" d=" M 195.465, 117.947 196.004, 117.743 198.058, 116.968 196.454, 113.264 194.760, 109.704 192.917, 110.411 192.357, 110.626 " />
            <path fill="none" stroke-width="3.0" stroke-linecap="butt" stroke-opacity="1.0" stroke="rgb(0, 0, 0)" stroke-linejoin="round" d=" M 140.629, 214.580 142.706, 215.417 145.194, 216.418 149.934, 216.786 151.480, 216.875 156.195, 216.267 165.774, 214.634 175.586, 212.704 178.530, 212.125 188.308, 210.030 191.335, 209.381 201.186, 207.659 202.682, 207.397 203.657, 207.220 208.646, 204.685 211.651, 202.785 213.710, 201.438 216.889, 199.211 218.494, 196.828 220.747, 192.911 220.867, 191.177 220.992, 186.758 219.745, 183.094 216.112, 178.612 212.555, 175.869 206.715, 173.513 205.076, 172.853 198.660, 171.809 194.244, 171.585 " />
            <path fill="none" stroke-width="3.0" stroke-linecap="butt" stroke-opacity="1.0" stroke="rgb(0, 0, 0)" stroke-linejoin="round" d=" M 61.445, 175.650 58.813, 175.460 55.799, 175.665 48.974, 177.630 46.586, 178.568 42.262, 181.272 40.115, 183.315 36.859, 186.659 34.968, 190.665 33.888, 194.050 33.549, 198.242 34.194, 202.388 35.536, 207.199 37.897, 211.817 39.484, 214.126 42.529, 218.271 " />
            <path fill="none" stroke-width="3.0" stroke-linecap="butt" stroke-opacity="1.0" stroke="rgb(0, 0, 0)" stroke-linejoin="round" d=" M 87.462, 253.322 78.612, 248.665 77.637, 248.152 72.392, 245.393 64.653, 239.060 60.868, 235.963 53.390, 229.324 49.934, 226.257 44.108, 219.974 42.529, 218.271 43.157, 218.977 44.108, 219.974 " />
            <path fill="none" stroke-width="3.0" stroke-linecap="butt" stroke-opacity="1.0" stroke="rgb(0, 0, 0)" stroke-linejoin="round" d=" M 118.211, 250.099 120.214, 247.881 122.151, 244.119 122.630, 239.644 122.833, 237.453 122.318, 232.614 121.282, 230.024 118.815, 224.347 114.636, 218.827 109.824, 213.816 " />
            <path fill="none" stroke-width="3.0" stroke-linecap="butt" stroke-opacity="1.0" stroke="rgb(0, 0, 0)" stroke-linejoin="round" d=" M 97.713, 162.398 98.984, 167.743 100.495, 172.050 102.566, 177.176 105.203, 182.552 108.707, 187.881 111.915, 191.496 113.856, 193.308 116.847, 196.006 120.194, 197.977 122.543, 199.239 125.363, 200.060 129.409, 201.041 132.617, 201.061 134.016, 201.070 135.645, 200.935 139.879, 200.084 143.395, 198.560 144.369, 198.013 146.497, 196.726 148.353, 195.174 150.434, 193.297 152.450, 190.623 154.424, 187.809 155.897, 184.234 157.017, 179.879 157.947, 175.663 158.089, 173.798 158.310, 170.900 157.445, 164.601 156.618, 160.235 155.164, 154.487 153.444, 149.315 " />
            <path fill="none" stroke-width="3.0" stroke-linecap="butt" stroke-opacity="1.0" stroke="rgb(0, 0, 0)" stroke-linejoin="round" d=" M 218.929, 79.230 219.249, 73.278 218.978, 67.243 216.663, 57.915 214.826, 50.552 212.454, 44.375 211.282, 41.516 207.020, 32.470 205.984, 30.272 202.228, 24.658 198.931, 20.897 197.248, 17.749 195.449, 17.523 191.959, 19.294 188.262, 22.674 185.087, 28.856 183.842, 37.835 183.962, 47.835 183.968, 48.274 184.323, 51.742 " />
            <path fill="none" stroke-width="3.0" stroke-linecap="butt" stroke-opacity="1.0" stroke="rgb(0, 0, 0)" stroke-linejoin="round" d=" M 187.495, 69.511 189.612, 68.947 190.067, 68.826 190.126, 68.810 190.133, 68.820 190.374, 69.137 190.443, 69.228 192.379, 71.785 195.834, 76.465 195.984, 76.607 201.858, 82.180 208.515, 84.204 213.202, 83.956 213.997, 83.914 217.893, 82.900 219.260, 81.691 219.131, 80.622 218.929, 79.230 218.813, 78.428 " />
            <path fill="none" stroke-width="3.0" stroke-linecap="butt" stroke-opacity="1.0" stroke="rgb(0, 0, 0)" stroke-linejoin="round" d=" M 211.854, 58.512 213.309, 62.773 215.235, 68.479 217.014, 73.903 217.646, 75.830 217.929, 76.742 219.131, 80.622 218.028, 81.575 217.742, 81.823 213.794, 82.865 208.398, 83.165 " />
            <path fill="none" stroke-width="3.0" stroke-linecap="butt" stroke-opacity="1.0" stroke="rgb(0, 0, 0)" stroke-linejoin="round" d=" M 182.874, 52.508 184.342, 51.933 184.395, 51.912 184.427, 51.900 184.977, 53.700 " />
            <path fill="none" stroke-width="3.0" stroke-linecap="butt" stroke-opacity="1.0" stroke="rgb(0, 0, 0)" stroke-linejoin="round" d=" M 190.133, 68.820 190.063, 68.871 189.233, 69.482 189.014, 69.643 182.324, 74.562 181.561, 75.124 181.013, 75.526 180.868, 75.451 180.862, 75.447 " />
            <path fill="none" stroke-width="3.0" stroke-linecap="butt" stroke-opacity="1.0" stroke="rgb(0, 0, 0)" stroke-linejoin="round" d=" M 168.427, 59.057 165.654, 60.662 165.882, 61.112 165.939, 61.224 167.350, 63.278 168.080, 64.298 " />
            <path fill="none" stroke-width="3.0" stroke-linecap="butt" stroke-opacity="1.0" stroke="rgb(0, 0, 0)" stroke-linejoin="round" d=" M 155.567, 118.426 164.989, 115.077 165.553, 114.877 174.917, 111.368 182.715, 108.445 184.267, 107.863 186.694, 106.954 186.905, 106.875 188.157, 106.405 189.341, 105.962 190.324, 105.557 190.423, 105.516 192.137, 104.811 193.082, 104.422 202.329, 100.617 203.549, 100.115 207.848, 97.614 210.713, 95.527 208.800, 91.988 204.211, 87.886 196.625, 83.910 " />
            <path fill="none" stroke-width="3.0" stroke-linecap="butt" stroke-opacity="1.0" stroke="rgb(0, 0, 0)" stroke-linejoin="round" d=" M 51.335, 103.675 49.787, 105.340 49.630, 105.509 47.953, 107.197 48.234, 117.193 48.515, 127.189 48.534, 127.840 52.114, 127.332 47.567, 130.198 46.027, 131.186 41.468, 136.416 37.705, 144.901 36.293, 150.899 37.180, 154.669 38.431, 155.213 41.616, 155.288 51.315, 152.853 52.613, 152.527 54.092, 152.081 63.664, 149.188 73.237, 146.296 73.493, 146.219 83.004, 143.131 92.515, 140.043 102.027, 136.955 102.362, 136.847 104.780, 136.024 109.507, 134.415 118.973, 131.192 128.107, 128.084 131.834, 126.815 " />
            <path fill="none" stroke-width="3.0" stroke-linecap="butt" stroke-opacity="1.0" stroke="rgb(0, 0, 0)" stroke-linejoin="round" d=" M 182.324, 74.562 183.753, 74.636 189.579, 69.479 " />
            <path fill="none" stroke-width="3.0" stroke-linecap="butt" stroke-opacity="1.0" stroke="rgb(0, 0, 0)" stroke-linejoin="round" d=" M 190.126, 68.810 190.076, 68.698 189.944, 68.405 " />
            <path fill="none" stroke-width="3.0" stroke-linecap="butt" stroke-opacity="1.0" stroke="rgb(0, 0, 0)" stroke-linejoin="round" d=" M 189.267, 66.555 189.552, 67.333 189.944, 68.405 188.104, 68.971 " />
            <path fill="none" stroke-width="3.0" stroke-linecap="butt" stroke-opacity="1.0" stroke="rgb(0, 0, 0)" stroke-linejoin="round" d=" M 131.834, 126.815 132.765, 128.208 134.214, 126.615 134.362, 125.954 134.665, 124.593 135.117, 122.568 135.241, 122.324 " />
            <path fill="none" stroke-width="3.0" stroke-linecap="butt" stroke-opacity="1.0" stroke="rgb(0, 0, 0)" stroke-linejoin="round" d=" M 135.117, 122.568 136.541, 120.242 137.521, 118.643 138.363, 117.268 138.374, 117.250 138.487, 117.056 139.422, 115.465 142.603, 110.047 148.236, 103.904 152.777, 98.877 158.730, 93.557 163.567, 90.042 165.090, 88.935 165.226, 88.836 169.064, 86.276 170.909, 85.045 171.714, 84.508 171.899, 84.384 173.406, 83.379 175.874, 81.731 179.619, 80.016 179.799, 79.934 180.459, 79.563 182.353, 78.497 " />
            <path fill="none" stroke-width="3.0" stroke-linecap="butt" stroke-opacity="1.0" stroke="rgb(0, 0, 0)" stroke-linejoin="round" d=" M 142.603, 110.047 140.432, 113.445 139.116, 115.506 " />
            <path fill="none" stroke-width="3.0" stroke-linecap="butt" stroke-opacity="1.0" stroke="rgb(0, 0, 0)" stroke-linejoin="round" d=" M 132.765, 128.208 142.269, 125.098 147.053, 123.532 153.725, 121.349 154.828, 119.696 155.374, 118.495 155.980, 117.158 156.092, 116.913 158.497, 113.610 159.614, 112.546 161.520, 110.730 162.963, 109.355 167.728, 105.588 167.995, 105.377 173.208, 101.033 179.228, 96.026 181.892, 93.846 185.144, 91.185 188.310, 88.710 190.074, 87.330 194.051, 83.779 195.038, 83.290 196.596, 82.516 196.899, 82.329 " />
            <path fill="none" stroke-width="3.0" stroke-linecap="butt" stroke-opacity="1.0" stroke="rgb(0, 0, 0)" stroke-linejoin="round" d=" M 154.828, 119.696 155.567, 118.426 156.472, 116.870 " />
            <path fill="none" stroke-width="3.0" stroke-linecap="butt" stroke-opacity="1.0" stroke="rgb(0, 0, 0)" stroke-linejoin="round" d=" M 156.092, 116.913 156.465, 116.711 156.610, 116.633 158.978, 115.349 " />
            <path fill="none" stroke-width="3.0" stroke-linecap="butt" stroke-opacity="1.0" stroke="rgb(0, 0, 0)" stroke-linejoin="round" d=" M 196.625, 83.910 196.899, 82.329 187.329, 79.427 183.849, 78.371 183.613, 78.299 182.947, 78.404 " />
            <path fill="none" stroke-width="3.0" stroke-linecap="butt" stroke-opacity="1.0" stroke="rgb(0, 0, 0)" stroke-linejoin="round" d=" M 176.094, 73.656 179.701, 73.841 179.713, 73.842 179.730, 73.843 179.858, 73.849 179.933, 73.853 180.693, 73.892 182.452, 73.982 186.534, 70.363 186.647, 70.263 187.495, 69.511 187.985, 69.077 188.104, 68.971 188.719, 68.426 189.161, 68.035 189.244, 66.879 189.245, 66.867 189.267, 66.559 189.267, 66.555 189.271, 66.501 189.312, 65.935 189.319, 65.841 189.756, 59.778 " />
            <path fill="none" stroke-width="3.0" stroke-linecap="butt" stroke-opacity="1.0" stroke="rgb(0, 0, 0)" stroke-linejoin="round" d=" M 188.104, 57.221 185.479, 54.265 184.977, 53.700 184.938, 53.656 184.713, 53.403 184.645, 53.326 184.625, 53.303 184.616, 53.293 184.604, 53.280 184.530, 53.196 184.087, 52.698 183.959, 52.553 182.874, 52.508 177.601, 52.289 176.896, 52.260 175.112, 52.186 168.484, 58.189 168.427, 59.057 168.151, 63.218 168.132, 63.499 168.080, 64.298 167.900, 67.006 " />
            <path fill="none" stroke-width="3.0" stroke-linecap="butt" stroke-opacity="1.0" stroke="rgb(0, 0, 0)" stroke-linejoin="round" d=" M 202.600, 31.436 203.032, 32.005 203.063, 32.072 203.247, 32.473 204.113, 34.351 205.497, 37.985 207.358, 43.651 209.150, 49.382 210.766, 54.783 211.854, 58.512 210.239, 59.232 205.717, 60.796 " />
            <path fill="none" stroke-width="3.0" stroke-linecap="butt" stroke-opacity="1.0" stroke="rgb(0, 0, 0)" stroke-linejoin="round" d=" M 197.248, 17.749 197.914, 19.159 199.582, 23.540 201.156, 27.885 202.391, 31.350 " />
            <path fill="none" stroke-width="3.0" stroke-linecap="butt" stroke-opacity="1.0" stroke="rgb(0, 0, 0)" stroke-linejoin="round" d=" M 196.195, 33.369 200.574, 31.451 202.391, 31.350 202.600, 31.436 204.078, 33.163 " />
            <path fill="none" stroke-width="3.0" stroke-linecap="butt" stroke-opacity="1.0" stroke="rgb(0, 0, 0)" stroke-linejoin="round" d=" M 204.252, 34.081 203.086, 32.096 203.032, 32.005 " />
            <path fill="none" stroke-width="3.0" stroke-linecap="butt" stroke-opacity="1.0" stroke="rgb(0, 0, 0)" stroke-linejoin="round" d=" M 165.882, 61.112 157.984, 54.978 155.373, 52.950 146.474, 48.388 143.518, 46.873 133.971, 43.898 130.011, 42.663 126.529, 42.177 116.578, 41.187 114.340, 40.965 110.133, 41.426 105.772, 42.117 102.754, 42.595 " />
            <path fill="none" stroke-width="3.0" stroke-linecap="butt" stroke-opacity="1.0" stroke="rgb(0, 0, 0)" stroke-linejoin="round" d=" M 195.984, 76.607 196.042, 76.686 201.950, 82.319 208.145, 84.226 213.190, 83.959 213.202, 83.956 " />
            <path fill="none" stroke-width="3.0" stroke-linecap="butt" stroke-opacity="1.0" stroke="rgb(0, 0, 0)" stroke-linejoin="round" d=" M 203.728, 38.219 199.811, 39.878 195.290, 42.447 " />
            <path fill="none" stroke-width="3.0" stroke-linecap="butt" stroke-opacity="1.0" stroke="rgb(0, 0, 0)" stroke-linejoin="round" d=" M 48.534, 127.840 50.149, 126.727 55.866, 124.427 57.722, 123.680 59.291, 123.049 68.671, 119.580 75.897, 116.908 85.321, 113.561 94.744, 110.215 98.386, 108.922 107.840, 105.663 117.294, 102.404 123.638, 100.217 133.120, 97.041 142.602, 93.865 147.718, 92.152 157.235, 89.081 166.751, 86.009 167.060, 85.910 171.714, 84.508 " />
            <path fill="none" stroke-width="3.0" stroke-linecap="butt" stroke-opacity="1.0" stroke="rgb(0, 0, 0)" stroke-linejoin="round" d=" M 173.179, 69.727 172.382, 69.791 172.096, 69.843 171.707, 69.914 171.542, 69.944 170.639, 70.108 160.801, 71.900 158.637, 72.294 " />
            <path fill="none" stroke-width="3.0" stroke-linecap="butt" stroke-opacity="1.0" stroke="rgb(0, 0, 0)" stroke-linejoin="round" d=" M 52.114, 127.332 53.839, 126.249 55.597, 125.552 56.468, 125.206 62.663, 122.750 72.049, 119.300 78.454, 116.946 87.881, 113.608 97.307, 110.270 99.691, 109.426 109.146, 106.168 118.600, 102.910 123.473, 101.231 132.953, 98.049 142.434, 94.868 146.172, 93.614 155.684, 90.528 164.487, 87.672 169.064, 86.276 " />
            <path fill="none" stroke-width="3.0" stroke-linecap="butt" stroke-opacity="1.0" stroke="rgb(0, 0, 0)" stroke-linejoin="round" d=" M 172.382, 69.791 172.038, 69.764 171.541, 69.725 170.208, 69.620 168.285, 69.470 " />
            <path fill="none" stroke-width="3.0" stroke-linecap="butt" stroke-opacity="1.0" stroke="rgb(0, 0, 0)" stroke-linejoin="round" d=" M 90.563, 46.531 86.745, 48.603 80.891, 51.781 77.990, 53.831 70.709, 60.685 68.660, 62.613 62.963, 70.831 60.792, 73.963 59.426, 76.437 55.238, 85.518 53.871, 88.482 51.422, 98.177 50.456, 101.998 49.787, 105.340 " />
            <path fill="none" stroke-width="3.0" stroke-linecap="butt" stroke-opacity="1.0" stroke="rgb(0, 0, 0)" stroke-linejoin="round" d=" M 102.754, 42.595 96.743, 44.137 90.563, 46.531 " />
            <path fill="none" stroke-width="3.0" stroke-linecap="butt" stroke-opacity="1.0" stroke="rgb(0, 0, 0)" stroke-linejoin="round" d=" M 105.772, 42.117 104.421, 40.825 101.032, 38.922 98.774, 38.943 94.133, 39.812 90.920, 41.468 88.432, 42.975 87.029, 46.433 86.745, 48.603 " />
            <path fill="none" stroke-width="3.0" stroke-linecap="butt" stroke-opacity="1.0" stroke="rgb(0, 0, 0)" stroke-linejoin="round" d=" M 133.320, 119.958 131.404, 120.612 121.940, 123.842 112.324, 127.124 102.860, 130.354 99.546, 131.485 90.053, 134.629 80.560, 137.773 71.067, 140.917 69.710, 141.366 " />
            <path fill="none" stroke-width="3.0" stroke-linecap="butt" stroke-opacity="1.0" stroke="rgb(0, 0, 0)" stroke-linejoin="round" d=" M 38.431, 155.213 48.118, 152.729 49.645, 152.338 53.999, 151.011 63.564, 148.094 71.235, 145.755 80.743, 142.657 90.251, 139.558 99.759, 136.459 101.277, 135.964 106.703, 134.116 109.917, 133.022 119.383, 129.798 125.524, 127.706 131.334, 125.728 134.665, 124.593 " />
            <path fill="none" stroke-width="3.0" stroke-linecap="butt" stroke-opacity="1.0" stroke="rgb(0, 0, 0)" stroke-linejoin="round" d=" M 156.472, 116.870 165.897, 113.528 167.165, 113.079 176.536, 109.589 182.346, 107.425 183.892, 106.849 186.222, 105.981 186.392, 105.918 187.786, 105.399 189.785, 104.654 190.053, 104.555 191.338, 104.076 191.674, 103.940 192.651, 103.546 201.925, 99.806 206.343, 98.025 206.852, 97.734 207.145, 97.566 210.713, 95.527 " />
            <path fill="none" stroke-width="3.0" stroke-linecap="butt" stroke-opacity="1.0" stroke="rgb(0, 0, 0)" stroke-linejoin="round" d=" M 184.323, 51.742 184.035, 51.352 181.608, 49.924 178.844, 50.666 176.896, 52.260 " />
            <path fill="none" stroke-width="3.0" stroke-linecap="butt" stroke-opacity="1.0" stroke="rgb(0, 0, 0)" stroke-linejoin="round" d=" M 77.637, 248.152 86.453, 252.871 87.769, 253.575 " />
            <path fill="none" stroke-width="3.0" stroke-linecap="butt" stroke-opacity="1.0" stroke="rgb(0, 0, 0)" stroke-linejoin="round" d=" M 140.475, 214.579 142.706, 215.417 " />
            <path fill="none" stroke-width="3.0" stroke-linecap="butt" stroke-opacity="1.0" stroke="rgb(0, 0, 0)" stroke-linejoin="round" d=" M 182.947, 78.404 180.889, 75.486 180.862, 75.447 180.829, 75.401 180.159, 74.451 179.730, 73.843 " />
            <path fill="none" stroke-width="3.0" stroke-linecap="butt" stroke-opacity="1.0" stroke="rgb(0, 0, 0)" stroke-linejoin="round" d=" M 183.849, 78.371 181.561, 75.124 " />
            <path fill="none" stroke-width="3.0" stroke-linecap="butt" stroke-opacity="1.0" stroke="rgb(0, 0, 0)" stroke-linejoin="round" d=" M 189.014, 69.643 189.579, 69.479 190.443, 69.228 " />
            <path fill="none" stroke-width="3.0" stroke-linecap="butt" stroke-opacity="1.0" stroke="rgb(0, 0, 0)" stroke-linejoin="round" d=" M 180.829, 75.401 180.837, 75.396 180.895, 75.354 181.440, 74.953 181.994, 74.545 188.438, 69.810 189.612, 68.947 " />
            <path fill="none" stroke-width="3.0" stroke-linecap="butt" stroke-opacity="1.0" stroke="rgb(0, 0, 0)" stroke-linejoin="round" d=" M 197.029, 137.424 200.203, 136.436 201.031, 136.179 " />
        </g>
    </g>
</svg>
