<?xml version='1.0' encoding='ascii'?>
<svg xmlns="http://www.w3.org/2000/svg" version="1.1" width="250" height="250">
    <g id="ViewLayer_LineSet" xmlns:inkscape="http://www.inkscape.org/namespaces/inkscape" inkscape:groupmode="lineset" inkscape:label="ViewLayer_LineSet">
        <g xmlns:inkscape="http://www.inkscape.org/namespaces/inkscape" inkscape:groupmode="layer" id="strokes" inkscape:label="strokes">
            <path fill="none" stroke-width="3.0" stroke-linecap="butt" stroke-opacity="1.0" stroke="rgb(0, 0, 0)" stroke-linejoin="round" d=" M 201.235, 148.106 201.340, 147.136 201.395, 145.876 201.422, 138.694 200.724, 131.517 199.824, 126.629 199.165, 124.282 " />
            <path fill="none" stroke-width="3.0" stroke-linecap="butt" stroke-opacity="1.0" stroke="rgb(0, 0, 0)" stroke-linejoin="round" d=" M 136.865, 214.800 138.208, 214.640 141.871, 213.897 149.124, 212.325 153.592, 210.910 159.480, 208.430 165.788, 205.035 166.263, 204.704 " />
            <path fill="none" stroke-width="3.0" stroke-linecap="butt" stroke-opacity="1.0" stroke="rgb(0, 0, 0)" stroke-linejoin="round" d=" M 166.155, 204.775 166.263, 204.704 172.250, 200.737 177.865, 196.132 179.777, 194.206 " />
            <path fill="none" stroke-width="3.0" stroke-linecap="butt" stroke-opacity="1.0" stroke="rgb(0, 0, 0)" stroke-linejoin="round" d=" M 59.477, 165.345 59.821, 166.704 63.817, 175.870 64.366, 177.129 69.819, 185.512 70.479, 186.527 71.993, 188.172 " />
            <path fill="none" stroke-width="3.0" stroke-linecap="butt" stroke-opacity="1.0" stroke="rgb(0, 0, 0)" stroke-linejoin="round" d=" M 78.995, 185.272 71.993, 188.172 71.640, 188.318 66.844, 191.992 63.349, 196.235 61.223, 200.880 60.861, 205.986 62.911, 211.805 64.037, 213.500 68.102, 218.454 69.611, 219.933 76.088, 225.559 78.659, 227.655 86.678, 233.630 88.188, 234.754 96.507, 240.303 99.858, 242.539 108.278, 247.933 111.215, 249.815 114.854, 252.050 " />
            <path fill="none" stroke-width="3.0" stroke-linecap="butt" stroke-opacity="1.0" stroke="rgb(0, 0, 0)" stroke-linejoin="round" d=" M 138.693, 220.955 135.097, 215.011 135.063, 214.955 134.009, 213.801 132.285, 211.912 127.663, 206.850 " />
            <path fill="none" stroke-width="3.0" stroke-linecap="butt" stroke-opacity="1.0" stroke="rgb(0, 0, 0)" stroke-linejoin="round" d=" M 148.832, 250.420 152.312, 246.925 153.668, 242.917 154.363, 239.013 154.670, 236.404 154.266, 232.188 152.881, 227.928 151.196, 225.104 147.186, 220.649 144.645, 218.981 138.693, 215.456 136.865, 214.800 136.133, 214.538 " />
            <path fill="none" stroke-width="3.0" stroke-linecap="butt" stroke-opacity="1.0" stroke="rgb(0, 0, 0)" stroke-linejoin="round" d=" M 202.153, 149.280 201.235, 148.106 197.941, 143.899 193.852, 139.184 189.505, 135.237 184.735, 132.019 183.693, 131.513 " />
            <path fill="none" stroke-width="3.0" stroke-linecap="butt" stroke-opacity="1.0" stroke="rgb(0, 0, 0)" stroke-linejoin="round" d=" M 204.372, 152.707 202.859, 150.330 202.153, 149.280 204.372, 152.707 206.177, 155.495 206.630, 156.255 208.759, 161.089 210.128, 165.637 210.785, 170.155 210.670, 174.020 210.067, 177.389 209.067, 180.378 208.340, 181.828 207.456, 183.483 206.592, 185.000 204.346, 187.879 201.730, 190.091 200.366, 191.175 197.431, 192.937 194.146, 194.125 192.260, 194.661 188.581, 195.219 184.555, 195.197 179.916, 194.258 179.777, 194.206 175.410, 192.566 173.873, 191.788 172.336, 190.976 169.084, 189.261 163.349, 185.033 " />
            <path fill="none" stroke-width="3.0" stroke-linecap="butt" stroke-opacity="1.0" stroke="rgb(0, 0, 0)" stroke-linejoin="round" d=" M 187.128, 77.509 190.678, 81.304 192.493, 81.873 193.258, 82.113 197.781, 83.531 201.361, 84.448 205.510, 84.191 208.380, 83.331 211.129, 82.439 211.778, 81.409 212.306, 77.333 211.305, 71.020 209.795, 66.070 208.422, 62.346 209.769, 59.169 211.156, 54.547 211.565, 49.591 210.763, 44.616 207.621, 41.267 202.972, 38.939 199.461, 38.232 196.908, 38.007 195.008, 34.811 192.262, 30.755 188.298, 26.552 185.149, 25.059 183.852, 24.704 181.309, 25.999 178.583, 28.747 176.365, 31.684 173.391, 38.314 172.075, 42.985 171.496, 45.110 171.490, 45.133 171.486, 45.149 171.085, 46.621 " />
            <path fill="none" stroke-width="3.0" stroke-linecap="butt" stroke-opacity="1.0" stroke="rgb(0, 0, 0)" stroke-linejoin="round" d=" M 208.380, 83.331 204.155, 83.585 " />
            <path fill="none" stroke-width="3.0" stroke-linecap="butt" stroke-opacity="1.0" stroke="rgb(0, 0, 0)" stroke-linejoin="round" d=" M 179.926, 55.197 180.043, 55.601 " />
            <path fill="none" stroke-width="3.0" stroke-linecap="butt" stroke-opacity="1.0" stroke="rgb(0, 0, 0)" stroke-linejoin="round" d=" M 171.018, 63.513 170.973, 63.466 170.911, 63.402 170.523, 63.000 170.219, 62.792 168.666, 61.731 168.196, 61.410 167.603, 61.005 167.042, 60.952 " />
            <path fill="none" stroke-width="3.0" stroke-linecap="butt" stroke-opacity="1.0" stroke="rgb(0, 0, 0)" stroke-linejoin="round" d=" M 50.419, 126.989 47.252, 130.441 43.293, 137.448 39.601, 145.769 38.228, 151.692 39.177, 155.339 42.680, 162.049 52.372, 164.513 56.088, 165.458 59.477, 165.345 69.472, 165.009 79.466, 164.673 79.776, 164.662 82.548, 164.310 85.053, 163.847 94.886, 162.030 98.607, 161.343 108.441, 159.527 112.568, 158.764 122.148, 155.896 131.728, 153.027 141.308, 150.159 142.963, 149.663 145.184, 148.998 154.415, 145.152 163.645, 141.305 172.876, 137.459 174.866, 136.629 183.518, 131.615 183.693, 131.513 190.275, 127.699 194.088, 125.489 194.138, 125.460 194.254, 125.393 196.989, 123.808 " />
            <path fill="none" stroke-width="3.0" stroke-linecap="butt" stroke-opacity="1.0" stroke="rgb(0, 0, 0)" stroke-linejoin="round" d=" M 167.051, 56.989 162.682, 56.544 162.249, 56.761 " />
            <path fill="none" stroke-width="3.0" stroke-linecap="butt" stroke-opacity="1.0" stroke="rgb(0, 0, 0)" stroke-linejoin="round" d=" M 174.711, 56.832 174.219, 57.020 172.399, 57.714 170.520, 58.431 170.223, 58.846 169.055, 60.478 168.643, 61.054 168.654, 61.375 168.666, 61.731 " />
            <path fill="none" stroke-width="3.0" stroke-linecap="butt" stroke-opacity="1.0" stroke="rgb(0, 0, 0)" stroke-linejoin="round" d=" M 170.973, 63.466 170.883, 61.203 170.874, 60.956 171.199, 60.486 " />
            <path fill="none" stroke-width="3.0" stroke-linecap="butt" stroke-opacity="1.0" stroke="rgb(0, 0, 0)" stroke-linejoin="round" d=" M 179.197, 55.512 179.926, 55.197 178.748, 55.464 " />
            <path fill="none" stroke-width="3.0" stroke-linecap="butt" stroke-opacity="1.0" stroke="rgb(0, 0, 0)" stroke-linejoin="round" d=" M 171.222, 60.453 171.291, 60.352 172.563, 58.515 172.701, 58.315 173.695, 57.887 " />
            <path fill="none" stroke-width="3.0" stroke-linecap="butt" stroke-opacity="1.0" stroke="rgb(0, 0, 0)" stroke-linejoin="round" d=" M 194.088, 125.489 194.161, 125.524 194.259, 125.569 195.622, 126.205 198.289, 124.821 198.743, 124.585 199.165, 124.282 207.283, 118.443 209.030, 117.186 209.852, 114.620 210.509, 111.759 210.555, 111.558 210.792, 107.602 210.751, 106.343 210.670, 103.907 210.419, 102.995 209.571, 99.914 208.357, 97.060 207.626, 95.339 206.335, 93.244 204.911, 90.933 200.798, 87.415 " />
            <path fill="none" stroke-width="3.0" stroke-linecap="butt" stroke-opacity="1.0" stroke="rgb(0, 0, 0)" stroke-linejoin="round" d=" M 185.664, 80.872 187.978, 81.858 189.339, 82.437 189.393, 82.486 190.275, 83.290 191.460, 84.370 192.740, 85.536 194.388, 87.422 195.836, 89.080 197.561, 93.489 197.917, 96.052 198.135, 97.620 198.252, 98.463 198.742, 103.173 199.434, 108.970 200.178, 112.741 200.771, 115.744 200.215, 120.772 199.859, 121.695 199.037, 123.824 198.743, 124.585 198.655, 122.718 " />
            <path fill="none" stroke-width="3.0" stroke-linecap="butt" stroke-opacity="1.0" stroke="rgb(0, 0, 0)" stroke-linejoin="round" d=" M 185.642, 80.838 188.137, 81.724 191.430, 82.894 194.971, 84.152 200.798, 87.415 191.960, 83.576 190.850, 83.093 189.339, 82.437 " />
            <path fill="none" stroke-width="3.0" stroke-linecap="butt" stroke-opacity="1.0" stroke="rgb(0, 0, 0)" stroke-linejoin="round" d=" M 182.019, 75.106 183.806, 74.429 184.775, 73.395 188.396, 69.532 188.783, 68.419 189.147, 62.681 188.867, 62.109 184.934, 56.398 182.871, 55.899 180.043, 55.601 179.197, 55.512 178.748, 55.464 176.952, 55.275 176.280, 55.204 176.034, 55.459 175.200, 56.324 174.711, 56.832 174.285, 57.274 173.695, 57.887 172.656, 58.965 171.303, 60.369 171.222, 60.453 171.200, 60.476 171.199, 60.486 171.158, 61.182 171.025, 63.394 171.018, 63.513 170.992, 63.945 170.972, 64.286 170.966, 64.383 " />
            <path fill="none" stroke-width="3.0" stroke-linecap="butt" stroke-opacity="1.0" stroke="rgb(0, 0, 0)" stroke-linejoin="round" d=" M 208.422, 62.346 207.646, 62.932 204.437, 64.159 " />
            <path fill="none" stroke-width="3.0" stroke-linecap="butt" stroke-opacity="1.0" stroke="rgb(0, 0, 0)" stroke-linejoin="round" d=" M 191.430, 82.894 192.669, 82.469 193.258, 82.113 " />
            <path fill="none" stroke-width="3.0" stroke-linecap="butt" stroke-opacity="1.0" stroke="rgb(0, 0, 0)" stroke-linejoin="round" d=" M 192.653, 39.399 195.829, 37.989 196.908, 38.007 " />
            <path fill="none" stroke-width="3.0" stroke-linecap="butt" stroke-opacity="1.0" stroke="rgb(0, 0, 0)" stroke-linejoin="round" d=" M 177.978, 72.927 177.749, 72.626 177.194, 71.897 177.119, 71.799 177.084, 71.753 176.845, 71.440 176.681, 71.224 176.603, 71.122 176.518, 71.010 176.303, 70.729 176.231, 70.634 175.793, 70.059 174.867, 68.844 174.134, 67.881 173.391, 66.906 172.964, 66.346 172.472, 65.700 171.074, 64.478 171.011, 64.423 170.966, 64.383 169.921, 63.470 168.689, 62.392 167.617, 61.455 167.042, 60.952 165.994, 60.036 165.888, 59.943 164.838, 59.025 164.793, 58.986 162.368, 56.865 162.249, 56.761 161.553, 56.152 159.562, 54.611 150.939, 49.547 148.323, 48.010 138.957, 44.506 135.061, 43.048 125.186, 41.471 121.563, 40.892 111.584, 41.546 110.376, 41.626 " />
            <path fill="none" stroke-width="3.0" stroke-linecap="butt" stroke-opacity="1.0" stroke="rgb(0, 0, 0)" stroke-linejoin="round" d=" M 110.488, 41.742 110.376, 41.626 108.669, 39.844 105.117, 37.588 104.529, 37.594 97.727, 37.992 91.465, 41.792 89.880, 45.597 89.493, 48.143 80.988, 53.403 80.288, 53.836 73.148, 60.837 70.782, 63.157 69.686, 64.331 64.054, 72.594 61.362, 76.544 57.202, 85.637 55.664, 88.999 53.256, 98.705 52.238, 102.807 51.675, 105.691 51.533, 106.419 " />
            <path fill="none" stroke-width="3.0" stroke-linecap="butt" stroke-opacity="1.0" stroke="rgb(0, 0, 0)" stroke-linejoin="round" d=" M 171.496, 45.110 171.272, 45.283 169.824, 46.508 168.230, 48.756 167.141, 51.063 166.601, 54.210 167.400, 56.668 " />
            <path fill="none" stroke-width="3.0" stroke-linecap="butt" stroke-opacity="1.0" stroke="rgb(0, 0, 0)" stroke-linejoin="round" d=" M 210.052, 44.747 207.165, 45.968 202.998, 47.931 " />
            <path fill="none" stroke-width="3.0" stroke-linecap="butt" stroke-opacity="1.0" stroke="rgb(0, 0, 0)" stroke-linejoin="round" d=" M 51.675, 105.691 49.712, 108.077 50.085, 118.070 50.419, 126.989 50.482, 128.675 54.016, 132.480 54.110, 132.581 56.447, 132.855 61.021, 133.392 63.373, 133.667 65.319, 133.895 73.829, 133.038 83.741, 132.039 93.516, 129.931 103.291, 127.822 107.484, 126.918 115.791, 124.396 125.360, 121.492 133.211, 119.109 142.521, 115.458 151.831, 111.806 156.944, 109.801 162.197, 107.117 166.458, 104.939 170.321, 102.965 174.766, 100.693 175.241, 100.450 180.591, 96.457 183.034, 94.633 183.467, 94.309 186.097, 92.346 187.484, 89.578 187.757, 89.034 189.113, 86.327 189.097, 86.302 187.654, 84.020 187.348, 83.536 186.892, 82.815 186.732, 82.562 185.666, 80.876 185.664, 80.872 185.642, 80.838 182.019, 75.106 181.928, 74.963 181.181, 73.782 179.795, 71.934 179.536, 71.590 179.397, 71.403 178.227, 71.286 177.777, 71.240 176.786, 71.141 176.603, 71.122 " />
            <path fill="none" stroke-width="3.0" stroke-linecap="butt" stroke-opacity="1.0" stroke="rgb(0, 0, 0)" stroke-linejoin="round" d=" M 80.205, 108.697 71.109, 109.822 63.236, 110.797 62.840, 110.787 52.807, 110.544 49.712, 108.077 " />
            <path fill="none" stroke-width="3.0" stroke-linecap="butt" stroke-opacity="1.0" stroke="rgb(0, 0, 0)" stroke-linejoin="round" d=" M 110.488, 41.742 107.393, 43.057 101.302, 45.148 94.655, 47.173 90.151, 48.311 89.493, 48.143 " />
            <path fill="none" stroke-width="3.0" stroke-linecap="butt" stroke-opacity="1.0" stroke="rgb(0, 0, 0)" stroke-linejoin="round" d=" M 198.121, 118.473 197.685, 118.721 197.616, 118.761 193.660, 121.016 192.877, 121.463 190.285, 122.941 188.997, 123.676 180.310, 128.629 179.136, 129.299 175.164, 131.564 165.922, 135.382 156.679, 139.200 147.437, 143.019 144.273, 144.326 " />
            <path fill="none" stroke-width="3.0" stroke-linecap="butt" stroke-opacity="1.0" stroke="rgb(0, 0, 0)" stroke-linejoin="round" d=" M 79.776, 164.662 84.637, 163.764 94.471, 161.946 99.158, 161.079 108.991, 159.261 111.028, 158.884 120.607, 156.016 130.187, 153.147 139.767, 150.278 142.948, 149.326 145.071, 148.690 154.303, 144.845 163.534, 141.001 172.766, 137.156 176.033, 135.795 183.547, 131.442 190.228, 127.572 193.942, 125.421 194.096, 125.332 194.239, 125.249 198.253, 122.924 198.710, 122.659 " />
            <path fill="none" stroke-width="3.0" stroke-linecap="butt" stroke-opacity="1.0" stroke="rgb(0, 0, 0)" stroke-linejoin="round" d=" M 210.509, 111.759 211.557, 110.782 213.712, 102.132 212.874, 98.474 206.335, 93.244 " />
            <path fill="none" stroke-width="3.0" stroke-linecap="butt" stroke-opacity="1.0" stroke="rgb(0, 0, 0)" stroke-linejoin="round" d=" M 176.952, 55.275 176.545, 54.559 174.778, 53.161 174.770, 53.155 172.441, 53.404 170.339, 53.964 167.400, 56.668 167.051, 56.989 164.953, 58.919 164.838, 59.025 " />
            <path fill="none" stroke-width="3.0" stroke-linecap="butt" stroke-opacity="1.0" stroke="rgb(0, 0, 0)" stroke-linejoin="round" d=" M 174.770, 53.155 172.716, 53.713 169.020, 57.189 168.956, 57.250 167.921, 58.223 165.994, 60.036 " />
            <path fill="none" stroke-width="3.0" stroke-linecap="butt" stroke-opacity="1.0" stroke="rgb(0, 0, 0)" stroke-linejoin="round" d=" M 148.832, 250.420 149.446, 249.675 " />
            <path fill="none" stroke-width="3.0" stroke-linecap="butt" stroke-opacity="1.0" stroke="rgb(0, 0, 0)" stroke-linejoin="round" d=" M 162.368, 56.865 162.682, 56.544 " />
            <path fill="none" stroke-width="3.0" stroke-linecap="butt" stroke-opacity="1.0" stroke="rgb(0, 0, 0)" stroke-linejoin="round" d=" M 164.953, 58.919 164.793, 58.986 " />
        </g>
    </g>
</svg>
