<?xml version='1.0' encoding='ascii'?>
<svg xmlns="http://www.w3.org/2000/svg" version="1.1" width="250" height="250">
    <g id="ViewLayer_LineSet" xmlns:inkscape="http://www.inkscape.org/namespaces/inkscape" inkscape:groupmode="lineset" inkscape:label="ViewLayer_LineSet">
        <g xmlns:inkscape="http://www.inkscape.org/namespaces/inkscape" inkscape:groupmode="layer" id="strokes" inkscape:label="strokes">
            <path fill="none" stroke-width="3.0" stroke-linecap="butt" stroke-opacity="1.0" stroke="rgb(0, 0, 0)" stroke-linejoin="round" d=" M 154.681, 205.200 158.136, 202.985 160.938, 200.943 166.821, 196.655 173.767, 189.461 174.443, 188.761 176.440, 185.904 176.540, 185.758 " />
            <path fill="none" stroke-width="3.0" stroke-linecap="butt" stroke-opacity="1.0" stroke="rgb(0, 0, 0)" stroke-linejoin="round" d=" M 59.543, 98.027 59.444, 98.152 57.977, 99.996 53.742, 107.111 49.932, 115.786 49.315, 117.783 48.381, 120.806 48.279, 121.138 47.264, 124.422 46.011, 130.568 45.577, 135.648 45.467, 136.937 45.241, 141.449 45.470, 147.092 45.950, 151.603 46.811, 156.230 47.627, 160.044 47.658, 160.189 48.944, 164.499 50.609, 168.969 52.578, 173.405 54.767, 177.616 57.082, 181.416 59.424, 184.632 59.989, 185.384 " />
            <path fill="none" stroke-width="3.0" stroke-linecap="butt" stroke-opacity="1.0" stroke="rgb(0, 0, 0)" stroke-linejoin="round" d=" M 190.632, 128.931 188.860, 120.643 188.623, 120.029 " />
            <path fill="none" stroke-width="3.0" stroke-linecap="butt" stroke-opacity="1.0" stroke="rgb(0, 0, 0)" stroke-linejoin="round" d=" M 108.921, 214.101 112.735, 214.521 113.215, 214.574 117.725, 214.769 122.249, 214.676 123.692, 214.551 126.584, 214.299 130.540, 213.659 136.869, 212.234 141.912, 210.943 " />
            <path fill="none" stroke-width="3.0" stroke-linecap="butt" stroke-opacity="1.0" stroke="rgb(0, 0, 0)" stroke-linejoin="round" d=" M 77.110, 149.728 77.664, 151.128 79.028, 153.197 80.923, 154.856 83.119, 156.084 83.554, 156.178 85.161, 156.527 87.256, 156.455 89.630, 155.627 91.680, 154.298 93.229, 152.450 93.945, 151.133 " />
            <path fill="none" stroke-width="3.0" stroke-linecap="butt" stroke-opacity="1.0" stroke="rgb(0, 0, 0)" stroke-linejoin="round" d=" M 117.429, 100.483 117.764, 101.610 118.033, 102.513 118.485, 105.901 118.526, 109.723 118.542, 109.792 117.423, 118.205 117.347, 118.467 117.312, 118.585 116.196, 122.416 114.691, 126.705 112.936, 130.702 110.994, 134.214 108.934, 137.067 108.169, 137.811 107.785, 138.184 106.825, 139.118 104.739, 140.266 102.749, 140.450 101.449, 139.885 100.929, 139.659 99.351, 137.924 98.638, 136.462 98.387, 135.947 98.085, 135.326 97.191, 131.987 96.719, 128.066 96.696, 123.753 97.132, 119.252 97.989, 114.843 98.057, 114.608 98.102, 114.450 99.192, 110.681 100.713, 106.780 102.493, 103.281 104.461, 100.306 105.451, 99.191 " />
            <path fill="none" stroke-width="3.0" stroke-linecap="butt" stroke-opacity="1.0" stroke="rgb(0, 0, 0)" stroke-linejoin="round" d=" M 77.311, 118.185 76.333, 122.477 75.249, 126.586 74.165, 130.019 74.073, 130.311 74.025, 130.429 72.811, 133.465 71.471, 135.888 70.068, 137.463 68.901, 137.989 68.629, 138.112 67.217, 138.108 65.841, 136.574 64.633, 134.473 63.658, 131.616 62.995, 128.148 62.921, 127.130 62.887, 126.659 62.712, 124.242 62.850, 120.088 63.107, 118.184 63.409, 115.942 64.275, 111.945 65.394, 108.103 66.718, 104.553 67.227, 103.472 67.472, 102.953 68.196, 101.415 69.769, 98.797 70.673, 97.668 " />
            <path fill="none" stroke-width="3.0" stroke-linecap="butt" stroke-opacity="1.0" stroke="rgb(0, 0, 0)" stroke-linejoin="round" d=" M 67.217, 138.108 70.423, 139.510 " />
            <path fill="none" stroke-width="3.0" stroke-linecap="butt" stroke-opacity="1.0" stroke="rgb(0, 0, 0)" stroke-linejoin="round" d=" M 77.839, 97.437 77.875, 97.499 78.527, 99.801 78.887, 102.710 78.997, 106.195 78.813, 108.423 78.788, 108.721 78.688, 109.934 " />
            <path fill="none" stroke-width="3.0" stroke-linecap="butt" stroke-opacity="1.0" stroke="rgb(0, 0, 0)" stroke-linejoin="round" d=" M 80.418, 120.151 77.311, 118.185 77.345, 118.009 78.135, 113.983 78.688, 109.934 81.756, 111.993 " />
            <path fill="none" stroke-width="3.0" stroke-linecap="butt" stroke-opacity="1.0" stroke="rgb(0, 0, 0)" stroke-linejoin="round" d=" M 170.484, 201.467 175.116, 205.354 " />
            <path fill="none" stroke-width="3.0" stroke-linecap="butt" stroke-opacity="1.0" stroke="rgb(0, 0, 0)" stroke-linejoin="round" d=" M 160.938, 200.943 164.219, 201.655 169.132, 204.186 172.578, 207.160 " />
            <path fill="none" stroke-width="3.0" stroke-linecap="butt" stroke-opacity="1.0" stroke="rgb(0, 0, 0)" stroke-linejoin="round" d=" M 180.926, 217.208 182.768, 212.691 185.582, 205.791 188.098, 196.112 188.442, 194.789 188.559, 192.655 188.672, 189.513 " />
            <path fill="none" stroke-width="3.0" stroke-linecap="butt" stroke-opacity="1.0" stroke="rgb(0, 0, 0)" stroke-linejoin="round" d=" M 123.692, 214.551 123.753, 216.676 124.314, 219.424 125.929, 223.692 126.923, 226.391 128.717, 228.637 132.490, 232.092 137.105, 234.565 142.618, 235.948 147.564, 236.484 153.049, 236.136 160.044, 234.785 165.837, 232.890 171.528, 230.170 174.949, 227.436 176.612, 225.139 180.296, 218.997 182.768, 212.691 " />
            <path fill="none" stroke-width="3.0" stroke-linecap="butt" stroke-opacity="1.0" stroke="rgb(0, 0, 0)" stroke-linejoin="round" d=" M 59.989, 185.384 56.528, 187.165 51.463, 189.863 46.548, 193.738 43.321, 196.656 40.457, 201.335 39.586, 203.344 37.712, 207.470 36.716, 211.463 36.573, 215.215 37.247, 219.122 38.377, 221.694 40.981, 225.076 43.729, 227.073 48.451, 229.065 53.028, 230.195 58.148, 230.658 62.258, 231.049 68.940, 231.195 74.288, 230.287 75.721, 230.044 " />
            <path fill="none" stroke-width="3.0" stroke-linecap="butt" stroke-opacity="1.0" stroke="rgb(0, 0, 0)" stroke-linejoin="round" d=" M 74.288, 230.287 78.968, 229.862 85.602, 227.831 89.889, 226.468 97.004, 223.845 103.095, 221.487 106.286, 219.801 109.532, 217.790 112.609, 214.672 112.735, 214.521 " />
            <path fill="none" stroke-width="3.0" stroke-linecap="butt" stroke-opacity="1.0" stroke="rgb(0, 0, 0)" stroke-linejoin="round" d=" M 189.473, 128.483 186.746, 127.048 183.568, 125.377 " />
            <path fill="none" stroke-width="3.0" stroke-linecap="butt" stroke-opacity="1.0" stroke="rgb(0, 0, 0)" stroke-linejoin="round" d=" M 172.340, 183.247 176.490, 185.736 176.540, 185.758 180.505, 187.489 183.333, 188.538 187.346, 189.491 188.672, 189.513 190.837, 189.548 194.036, 189.247 196.928, 188.700 199.408, 187.710 201.756, 186.667 205.812, 183.730 208.074, 181.392 209.323, 179.787 211.023, 176.876 211.898, 174.457 212.857, 171.431 213.357, 168.254 213.464, 166.358 213.230, 162.286 212.244, 158.158 210.067, 151.986 206.928, 146.244 203.465, 141.223 201.934, 139.195 201.597, 138.748 200.094, 136.758 196.500, 132.924 192.485, 129.829 190.632, 128.931 186.746, 127.048 " />
            <path fill="none" stroke-width="3.0" stroke-linecap="butt" stroke-opacity="1.0" stroke="rgb(0, 0, 0)" stroke-linejoin="round" d=" M 45.577, 135.648 44.421, 138.677 43.760, 142.082 43.040, 146.509 43.276, 148.845 44.100, 153.727 44.722, 155.269 46.868, 159.154 47.545, 159.948 47.627, 160.044 " />
            <path fill="none" stroke-width="3.0" stroke-linecap="butt" stroke-opacity="1.0" stroke="rgb(0, 0, 0)" stroke-linejoin="round" d=" M 116.273, 70.235 119.176, 68.005 119.523, 67.738 119.679, 67.420 119.716, 67.344 121.376, 63.958 122.362, 61.373 122.342, 57.689 121.325, 55.012 119.420, 51.307 117.652, 50.019 " />
            <path fill="none" stroke-width="3.0" stroke-linecap="butt" stroke-opacity="1.0" stroke="rgb(0, 0, 0)" stroke-linejoin="round" d=" M 56.088, 53.495 55.993, 53.765 54.473, 58.057 52.834, 64.143 52.264, 71.988 52.554, 73.259 54.206, 78.540 56.696, 79.796 60.066, 80.574 61.732, 80.958 61.842, 80.984 65.727, 81.447 71.739, 80.385 77.305, 78.961 82.775, 76.776 82.842, 76.749 " />
            <path fill="none" stroke-width="3.0" stroke-linecap="butt" stroke-opacity="1.0" stroke="rgb(0, 0, 0)" stroke-linejoin="round" d=" M 33.802, 110.312 31.597, 105.735 32.778, 104.572 37.478, 99.943 41.904, 98.797 49.899, 96.727 53.174, 95.878 56.642, 95.750 59.026, 95.662 61.497, 95.570 71.490, 95.200 73.789, 95.115 75.863, 95.038 75.867, 95.038 79.966, 94.886 89.937, 95.658 99.907, 96.429 107.736, 97.035 113.694, 97.496 116.232, 97.940 116.279, 97.948 126.130, 99.670 135.980, 101.392 145.831, 103.114 147.697, 103.440 157.356, 106.029 167.015, 108.618 176.674, 111.207 177.118, 111.327 178.203, 111.778 178.730, 111.997 183.096, 113.815 " />
            <path fill="none" stroke-width="3.0" stroke-linecap="butt" stroke-opacity="1.0" stroke="rgb(0, 0, 0)" stroke-linejoin="round" d=" M 201.597, 138.748 206.700, 135.722 206.333, 129.298 200.054, 124.462 197.942, 122.836 " />
            <path fill="none" stroke-width="3.0" stroke-linecap="butt" stroke-opacity="1.0" stroke="rgb(0, 0, 0)" stroke-linejoin="round" d=" M 44.968, 101.084 54.726, 98.895 58.437, 98.063 " />
            <path fill="none" stroke-width="3.0" stroke-linecap="butt" stroke-opacity="1.0" stroke="rgb(0, 0, 0)" stroke-linejoin="round" d=" M 38.850, 115.228 47.133, 120.667 48.279, 121.138 " />
            <path fill="none" stroke-width="3.0" stroke-linecap="butt" stroke-opacity="1.0" stroke="rgb(0, 0, 0)" stroke-linejoin="round" d=" M 55.973, 98.143 46.218, 100.346 45.660, 100.472 41.088, 101.505 39.807, 101.794 33.798, 107.372 34.548, 108.975 " />
            <path fill="none" stroke-width="3.0" stroke-linecap="butt" stroke-opacity="1.0" stroke="rgb(0, 0, 0)" stroke-linejoin="round" d=" M 55.973, 98.143 58.437, 98.063 59.308, 98.035 59.543, 98.027 61.162, 97.975 70.673, 97.668 76.386, 97.484 77.839, 97.437 79.100, 97.396 81.513, 97.318 91.482, 98.098 101.452, 98.878 105.451, 99.191 110.313, 99.571 113.448, 99.816 117.429, 100.483 117.960, 100.572 127.822, 102.225 137.685, 103.877 138.003, 103.931 146.766, 105.399 156.433, 107.960 166.099, 110.521 175.726, 113.072 179.338, 114.555 184.531, 116.688 " />
            <path fill="none" stroke-width="3.0" stroke-linecap="butt" stroke-opacity="1.0" stroke="rgb(0, 0, 0)" stroke-linejoin="round" d=" M 41.007, 92.310 36.203, 96.245 33.034, 99.473 31.222, 102.336 30.052, 105.385 30.044, 107.859 30.509, 110.038 34.837, 114.216 37.518, 115.692 38.850, 115.228 38.865, 115.222 40.780, 114.554 42.021, 113.707 43.637, 112.604 45.223, 107.519 " />
            <path fill="none" stroke-width="3.0" stroke-linecap="butt" stroke-opacity="1.0" stroke="rgb(0, 0, 0)" stroke-linejoin="round" d=" M 33.240, 111.630 30.509, 110.038 " />
            <path fill="none" stroke-width="3.0" stroke-linecap="butt" stroke-opacity="1.0" stroke="rgb(0, 0, 0)" stroke-linejoin="round" d=" M 43.637, 112.604 39.906, 110.206 " />
            <path fill="none" stroke-width="3.0" stroke-linecap="butt" stroke-opacity="1.0" stroke="rgb(0, 0, 0)" stroke-linejoin="round" d=" M 40.778, 107.895 39.906, 110.206 36.484, 111.169 " />
            <path fill="none" stroke-width="3.0" stroke-linecap="butt" stroke-opacity="1.0" stroke="rgb(0, 0, 0)" stroke-linejoin="round" d=" M 57.450, 82.729 50.496, 86.060 42.145, 91.561 41.007, 92.310 47.267, 88.228 48.667, 87.472 57.450, 82.729 59.115, 82.040 61.732, 80.958 " />
            <path fill="none" stroke-width="3.0" stroke-linecap="butt" stroke-opacity="1.0" stroke="rgb(0, 0, 0)" stroke-linejoin="round" d=" M 47.267, 88.228 49.771, 87.203 49.829, 87.179 53.077, 85.849 55.738, 84.760 57.740, 84.159 67.366, 81.266 77.315, 80.249 78.668, 80.111 80.461, 79.927 81.807, 79.892 87.695, 79.735 89.114, 79.796 89.685, 79.821 " />
            <path fill="none" stroke-width="3.0" stroke-linecap="butt" stroke-opacity="1.0" stroke="rgb(0, 0, 0)" stroke-linejoin="round" d=" M 179.338, 114.555 180.025, 116.236 182.677, 117.485 183.043, 117.658 183.961, 118.048 188.623, 120.029 196.890, 123.543 197.009, 123.463 197.942, 122.836 198.717, 122.315 199.094, 122.061 199.346, 120.965 199.930, 118.425 197.026, 113.859 192.330, 109.312 190.530, 107.569 183.166, 102.256 182.972, 102.117 178.860, 99.061 177.484, 98.037 176.755, 97.495 171.918, 94.636 168.219, 92.450 161.289, 89.549 157.966, 88.158 157.037, 87.769 147.493, 84.786 144.327, 83.796 134.713, 81.043 131.533, 80.133 121.675, 78.454 118.674, 77.943 109.265, 76.411 107.483, 76.121 " />
            <path fill="none" stroke-width="3.0" stroke-linecap="butt" stroke-opacity="1.0" stroke="rgb(0, 0, 0)" stroke-linejoin="round" d=" M 102.685, 80.829 107.739, 81.350 111.450, 81.733 112.475, 81.984 122.187, 84.363 128.100, 85.811 137.704, 88.597 142.396, 89.958 142.502, 89.989 151.829, 93.596 155.341, 94.955 164.499, 98.973 166.492, 99.847 174.861, 103.920 181.314, 107.533 184.795, 110.146 186.387, 111.341 187.482, 113.073 187.860, 113.672 188.274, 114.327 188.504, 115.932 188.640, 116.885 187.650, 117.516 187.218, 117.791 186.104, 118.501 " />
            <path fill="none" stroke-width="3.0" stroke-linecap="butt" stroke-opacity="1.0" stroke="rgb(0, 0, 0)" stroke-linejoin="round" d=" M 99.119, 77.450 100.245, 75.838 102.915, 72.018 103.606, 69.648 103.955, 68.453 104.298, 67.275 104.537, 66.459 104.973, 64.963 105.252, 64.005 105.334, 63.723 105.871, 57.305 105.858, 55.257 105.851, 54.248 105.842, 52.807 105.840, 52.521 " />
            <path fill="none" stroke-width="3.0" stroke-linecap="butt" stroke-opacity="1.0" stroke="rgb(0, 0, 0)" stroke-linejoin="round" d=" M 76.872, 72.191 80.421, 74.521 83.075, 75.810 83.408, 75.973 84.473, 76.490 85.575, 77.026 93.095, 78.594 99.119, 77.450 99.288, 77.653 100.324, 78.897 101.987, 80.208 102.463, 80.362 103.440, 80.679 " />
            <path fill="none" stroke-width="3.0" stroke-linecap="butt" stroke-opacity="1.0" stroke="rgb(0, 0, 0)" stroke-linejoin="round" d=" M 54.206, 78.540 53.885, 77.167 " />
            <path fill="none" stroke-width="3.0" stroke-linecap="butt" stroke-opacity="1.0" stroke="rgb(0, 0, 0)" stroke-linejoin="round" d=" M 79.895, 75.040 77.629, 73.504 76.872, 72.191 72.526, 74.495 66.648, 76.914 61.861, 77.809 59.021, 78.339 53.885, 77.167 52.264, 71.988 " />
            <path fill="none" stroke-width="3.0" stroke-linecap="butt" stroke-opacity="1.0" stroke="rgb(0, 0, 0)" stroke-linejoin="round" d=" M 110.672, 59.946 110.896, 59.632 110.941, 59.570 111.186, 59.225 114.190, 55.005 114.488, 54.576 117.652, 50.019 118.868, 48.268 122.537, 42.613 122.813, 41.600 124.080, 36.954 124.131, 33.780 122.947, 31.521 119.467, 27.255 114.192, 24.808 111.257, 23.689 105.518, 22.573 103.083, 22.309 101.132, 22.098 " />
            <path fill="none" stroke-width="3.0" stroke-linecap="butt" stroke-opacity="1.0" stroke="rgb(0, 0, 0)" stroke-linejoin="round" d=" M 55.993, 53.765 53.310, 49.940 50.317, 44.869 48.895, 39.454 49.366, 33.937 53.720, 29.717 60.759, 26.170 66.452, 24.549 70.767, 23.656 73.359, 19.653 77.249, 14.459 83.329, 8.664 88.739, 5.966 93.353, 7.997 97.623, 13.221 99.843, 18.185 101.132, 22.098 " />
            <path fill="none" stroke-width="3.0" stroke-linecap="butt" stroke-opacity="1.0" stroke="rgb(0, 0, 0)" stroke-linejoin="round" d=" M 108.973, 55.619 107.645, 54.054 107.179, 53.505 105.933, 52.590 105.840, 52.521 106.031, 52.355 106.783, 51.704 110.368, 48.597 110.917, 48.029 115.822, 42.958 116.450, 41.977 119.660, 36.965 121.337, 30.970 117.931, 26.787 111.257, 23.689 " />
            <path fill="none" stroke-width="3.0" stroke-linecap="butt" stroke-opacity="1.0" stroke="rgb(0, 0, 0)" stroke-linejoin="round" d=" M 103.083, 22.309 102.172, 19.977 99.689, 15.144 98.264, 12.847 94.382, 8.107 89.679, 6.039 88.739, 5.966 " />
            <path fill="none" stroke-width="3.0" stroke-linecap="butt" stroke-opacity="1.0" stroke="rgb(0, 0, 0)" stroke-linejoin="round" d=" M 53.310, 49.940 56.088, 53.495 " />
            <path fill="none" stroke-width="3.0" stroke-linecap="butt" stroke-opacity="1.0" stroke="rgb(0, 0, 0)" stroke-linejoin="round" d=" M 191.356, 104.489 188.455, 94.919 186.367, 88.029 185.363, 86.959 184.154, 82.615 179.306, 73.869 178.045, 71.593 171.514, 64.021 170.401, 62.730 164.721, 57.221 156.760, 51.170 156.408, 50.903 149.188, 47.045 142.926, 44.892 138.118, 43.323 137.106, 42.993 130.658, 41.841 126.638, 41.669 124.302, 41.569 122.813, 41.600 " />
            <path fill="none" stroke-width="3.0" stroke-linecap="butt" stroke-opacity="1.0" stroke="rgb(0, 0, 0)" stroke-linejoin="round" d=" M 79.895, 75.040 81.796, 76.143 82.792, 76.721 82.842, 76.749 83.469, 77.113 84.591, 77.764 84.770, 77.868 87.895, 79.110 89.553, 79.768 89.685, 79.821 90.357, 80.088 90.793, 80.261 92.243, 80.582 93.986, 80.959 97.849, 81.794 100.831, 81.199 102.685, 80.829 103.440, 80.679 103.605, 80.442 104.336, 79.398 106.649, 76.088 107.031, 75.541 107.382, 75.040 108.674, 71.197 108.825, 70.749 109.203, 68.766 109.479, 67.324 109.587, 66.753 110.243, 63.314 110.672, 59.946 110.745, 59.377 110.774, 59.147 110.849, 58.559 110.893, 58.212 " />
            <path fill="none" stroke-width="3.0" stroke-linecap="butt" stroke-opacity="1.0" stroke="rgb(0, 0, 0)" stroke-linejoin="round" d=" M 186.610, 101.470 183.083, 98.504 174.784, 94.741 166.808, 91.125 161.289, 89.549 " />
            <path fill="none" stroke-width="3.0" stroke-linecap="butt" stroke-opacity="1.0" stroke="rgb(0, 0, 0)" stroke-linejoin="round" d=" M 121.271, 67.435 119.716, 67.344 " />
            <path fill="none" stroke-width="3.0" stroke-linecap="butt" stroke-opacity="1.0" stroke="rgb(0, 0, 0)" stroke-linejoin="round" d=" M 121.271, 67.435 131.149, 68.991 141.027, 70.548 145.041, 71.180 " />
            <path fill="none" stroke-width="3.0" stroke-linecap="butt" stroke-opacity="1.0" stroke="rgb(0, 0, 0)" stroke-linejoin="round" d=" M 138.118, 43.323 137.568, 42.581 134.232, 41.188 130.174, 40.738 127.007, 41.408 126.638, 41.669 " />
            <path fill="none" stroke-width="3.0" stroke-linecap="butt" stroke-opacity="1.0" stroke="rgb(0, 0, 0)" stroke-linejoin="round" d=" M 201.934, 139.195 208.950, 135.072 209.816, 131.365 209.659, 124.448 205.830, 118.955 200.053, 111.856 192.423, 105.393 191.356, 104.489 190.504, 103.767 186.610, 101.470 185.073, 100.563 176.324, 96.621 171.918, 94.636 " />
            <path fill="none" stroke-width="3.0" stroke-linecap="butt" stroke-opacity="1.0" stroke="rgb(0, 0, 0)" stroke-linejoin="round" d=" M 199.346, 120.965 207.201, 127.154 208.730, 128.359 208.950, 135.072 " />
            <path fill="none" stroke-width="3.0" stroke-linecap="butt" stroke-opacity="1.0" stroke="rgb(0, 0, 0)" stroke-linejoin="round" d=" M 44.471, 91.222 43.560, 91.909 38.097, 95.970 32.034, 102.080 31.597, 105.735 " />
            <path fill="none" stroke-width="3.0" stroke-linecap="butt" stroke-opacity="1.0" stroke="rgb(0, 0, 0)" stroke-linejoin="round" d=" M 209.659, 124.448 201.918, 118.117 199.392, 116.051 " />
            <path fill="none" stroke-width="3.0" stroke-linecap="butt" stroke-opacity="1.0" stroke="rgb(0, 0, 0)" stroke-linejoin="round" d=" M 60.066, 80.574 59.115, 82.040 " />
            <path fill="none" stroke-width="3.0" stroke-linecap="butt" stroke-opacity="1.0" stroke="rgb(0, 0, 0)" stroke-linejoin="round" d=" M 107.263, 76.112 107.468, 75.422 108.726, 71.196 " />
            <path fill="none" stroke-width="3.0" stroke-linecap="butt" stroke-opacity="1.0" stroke="rgb(0, 0, 0)" stroke-linejoin="round" d=" M 108.674, 71.197 108.726, 71.196 110.893, 71.138 " />
            <path fill="none" stroke-width="3.0" stroke-linecap="butt" stroke-opacity="1.0" stroke="rgb(0, 0, 0)" stroke-linejoin="round" d=" M 197.009, 123.463 201.618, 126.975 " />
        </g>
    </g>
</svg>
