<?xml version='1.0' encoding='ascii'?>
<svg xmlns="http://www.w3.org/2000/svg" version="1.1" width="250" height="250">
    <g id="ViewLayer_LineSet" xmlns:inkscape="http://www.inkscape.org/namespaces/inkscape" inkscape:groupmode="lineset" inkscape:label="ViewLayer_LineSet">
        <g xmlns:inkscape="http://www.inkscape.org/namespaces/inkscape" inkscape:groupmode="layer" id="strokes" inkscape:label="strokes">
            <path fill="none" stroke-width="3.0" stroke-linecap="butt" stroke-opacity="1.0" stroke="rgb(0, 0, 0)" stroke-linejoin="round" d=" M 108.901, 216.505 109.489, 216.571 113.192, 216.986 117.699, 217.184 122.220, 217.088 126.553, 216.704 130.506, 216.051 133.132, 215.484 136.831, 214.684 141.871, 213.367 145.840, 211.777 154.632, 207.634 158.085, 205.375 162.183, 202.405 166.765, 199.074 173.721, 191.890 174.183, 191.413 " />
            <path fill="none" stroke-width="3.0" stroke-linecap="butt" stroke-opacity="1.0" stroke="rgb(0, 0, 0)" stroke-linejoin="round" d=" M 59.242, 100.886 57.989, 102.461 53.756, 109.562 49.949, 118.224 49.408, 119.979 48.473, 123.008 48.366, 123.354 47.283, 126.863 46.031, 133.029 45.487, 139.418 45.261, 143.889 45.490, 149.558 45.969, 154.040 46.830, 158.699 47.676, 162.640 48.962, 166.937 50.625, 171.400 52.593, 175.834 54.781, 180.049 57.095, 183.860 59.435, 187.091 59.546, 187.237 " />
            <path fill="none" stroke-width="3.0" stroke-linecap="butt" stroke-opacity="1.0" stroke="rgb(0, 0, 0)" stroke-linejoin="round" d=" M 191.000, 133.456 188.909, 123.677 188.790, 123.118 188.696, 122.877 " />
            <path fill="none" stroke-width="3.0" stroke-linecap="butt" stroke-opacity="1.0" stroke="rgb(0, 0, 0)" stroke-linejoin="round" d=" M 77.110, 152.523 77.664, 153.924 79.027, 155.995 80.920, 157.658 83.114, 158.892 85.155, 159.341 86.226, 159.307 87.248, 159.275 89.621, 158.454 91.669, 157.132 93.218, 155.291 93.933, 153.977 " />
            <path fill="none" stroke-width="3.0" stroke-linecap="butt" stroke-opacity="1.0" stroke="rgb(0, 0, 0)" stroke-linejoin="round" d=" M 117.442, 103.497 117.472, 103.600 118.003, 105.387 118.455, 108.781 118.495, 112.610 118.511, 112.678 117.471, 120.518 117.457, 120.625 117.393, 121.102 116.167, 125.320 114.663, 129.612 112.909, 133.610 110.969, 137.121 108.968, 139.892 108.910, 139.972 108.596, 140.278 106.803, 142.021 104.718, 143.166 102.730, 143.348 101.466, 142.796 100.911, 142.554 99.334, 140.817 98.120, 138.323 98.069, 138.218 97.962, 137.818 97.176, 134.877 96.704, 130.954 96.682, 126.638 97.117, 122.134 97.974, 117.718 98.267, 116.701 98.308, 116.558 99.176, 113.552 100.696, 109.646 102.474, 106.142 104.441, 103.165 105.316, 102.177 " />
            <path fill="none" stroke-width="3.0" stroke-linecap="butt" stroke-opacity="1.0" stroke="rgb(0, 0, 0)" stroke-linejoin="round" d=" M 77.310, 121.011 76.333, 125.307 75.250, 129.417 74.399, 132.114 74.265, 132.538 74.075, 133.140 72.814, 136.290 71.475, 138.708 70.073, 140.276 68.932, 140.785 68.635, 140.918 67.224, 140.906 65.849, 139.364 64.642, 137.256 63.667, 134.391 63.005, 130.915 62.881, 129.200 62.846, 128.716 62.722, 127.003 62.860, 122.841 63.063, 121.329 63.418, 118.687 64.284, 114.684 65.402, 110.838 66.725, 107.284 67.443, 105.758 67.678, 105.260 68.202, 104.145 69.774, 101.529 70.538, 100.574 " />
            <path fill="none" stroke-width="3.0" stroke-linecap="butt" stroke-opacity="1.0" stroke="rgb(0, 0, 0)" stroke-linejoin="round" d=" M 67.224, 140.906 70.427, 142.271 " />
            <path fill="none" stroke-width="3.0" stroke-linecap="butt" stroke-opacity="1.0" stroke="rgb(0, 0, 0)" stroke-linejoin="round" d=" M 77.902, 100.371 78.526, 102.583 78.886, 105.503 78.995, 108.997 78.866, 110.566 78.843, 110.846 78.687, 112.745 " />
            <path fill="none" stroke-width="3.0" stroke-linecap="butt" stroke-opacity="1.0" stroke="rgb(0, 0, 0)" stroke-linejoin="round" d=" M 80.416, 122.939 77.310, 121.011 77.620, 119.429 78.134, 116.802 78.687, 112.745 81.752, 114.767 " />
            <path fill="none" stroke-width="3.0" stroke-linecap="butt" stroke-opacity="1.0" stroke="rgb(0, 0, 0)" stroke-linejoin="round" d=" M 167.519, 231.288 168.093, 231.084 173.280, 228.083 178.337, 223.936 182.517, 218.049 185.309, 212.272 185.837, 211.001 189.100, 201.548 189.862, 199.341 191.199, 192.935 " />
            <path fill="none" stroke-width="3.0" stroke-linecap="butt" stroke-opacity="1.0" stroke="rgb(0, 0, 0)" stroke-linejoin="round" d=" M 133.955, 217.740 135.508, 222.466 136.750, 224.225 140.588, 228.820 146.166, 232.505 151.439, 234.195 156.226, 234.491 161.434, 233.671 167.519, 231.288 167.661, 231.232 " />
            <path fill="none" stroke-width="3.0" stroke-linecap="butt" stroke-opacity="1.0" stroke="rgb(0, 0, 0)" stroke-linejoin="round" d=" M 59.546, 187.237 55.969, 188.044 50.041, 189.260 43.750, 191.683 39.119, 194.148 35.545, 197.144 34.938, 197.900 31.194, 202.818 28.910, 206.951 27.539, 211.033 27.066, 215.000 27.426, 219.213 29.310, 223.221 30.846, 224.942 33.583, 226.443 36.985, 227.943 42.555, 229.702 47.506, 230.634 52.590, 231.380 57.566, 231.932 64.158, 232.173 70.642, 232.151 78.467, 231.641 84.220, 231.149 90.839, 230.591 95.131, 230.005 99.891, 228.994 102.665, 227.157 106.260, 224.289 108.433, 220.976 109.438, 217.417 109.489, 216.571 " />
            <path fill="none" stroke-width="3.0" stroke-linecap="butt" stroke-opacity="1.0" stroke="rgb(0, 0, 0)" stroke-linejoin="round" d=" M 164.323, 184.556 166.502, 186.402 169.934, 189.119 173.332, 191.099 174.183, 191.413 176.919, 192.424 180.532, 193.542 183.472, 193.789 187.520, 193.705 189.794, 193.299 191.199, 192.935 193.021, 192.463 197.288, 190.293 200.960, 187.439 203.050, 184.927 204.662, 182.851 206.041, 179.606 207.235, 176.681 207.822, 173.061 208.250, 169.377 208.101, 165.336 207.324, 160.910 205.465, 155.264 204.434, 152.462 201.903, 147.356 199.261, 142.820 199.059, 142.528 199.029, 142.485 198.993, 142.434 196.424, 138.728 193.106, 135.204 191.000, 133.456 190.796, 133.287 185.877, 130.272 181.743, 128.538 " />
            <path fill="none" stroke-width="3.0" stroke-linecap="butt" stroke-opacity="1.0" stroke="rgb(0, 0, 0)" stroke-linejoin="round" d=" M 116.246, 73.034 119.493, 70.558 119.555, 70.433 119.658, 70.224 119.694, 70.151 121.344, 66.802 122.329, 64.204 122.310, 60.526 121.293, 57.871 119.390, 54.155 117.708, 52.922 " />
            <path fill="none" stroke-width="3.0" stroke-linecap="butt" stroke-opacity="1.0" stroke="rgb(0, 0, 0)" stroke-linejoin="round" d=" M 56.104, 56.455 56.012, 56.715 54.490, 61.019 52.852, 67.109 52.283, 74.965 52.573, 76.222 54.223, 81.517 56.711, 82.744 59.788, 83.465 61.238, 83.805 61.854, 83.949 65.736, 84.375 67.251, 84.111 67.566, 84.056 70.745, 83.501 71.743, 83.327 74.458, 82.636 77.305, 81.911 82.703, 79.765 82.775, 79.736 " />
            <path fill="none" stroke-width="3.0" stroke-linecap="butt" stroke-opacity="1.0" stroke="rgb(0, 0, 0)" stroke-linejoin="round" d=" M 33.822, 112.692 31.626, 108.241 32.806, 107.113 37.505, 102.626 41.714, 101.580 49.461, 99.655 53.192, 98.729 57.283, 98.597 59.146, 98.537 61.163, 98.471 71.158, 98.149 73.234, 98.082 76.118, 97.989 76.146, 97.988 79.964, 97.865 89.933, 98.655 99.902, 99.444 107.512, 100.047 113.666, 100.534 116.307, 100.994 116.385, 101.007 126.236, 102.722 136.088, 104.437 145.940, 106.152 147.642, 106.449 157.309, 109.009 166.976, 111.570 176.642, 114.130 177.044, 114.237 178.180, 114.702 179.038, 115.053 183.031, 116.686 185.773, 117.808 " />
            <path fill="none" stroke-width="3.0" stroke-linecap="butt" stroke-opacity="1.0" stroke="rgb(0, 0, 0)" stroke-linejoin="round" d=" M 199.029, 142.485 206.620, 138.126 206.248, 131.872 200.122, 127.257 197.876, 125.564 " />
            <path fill="none" stroke-width="3.0" stroke-linecap="butt" stroke-opacity="1.0" stroke="rgb(0, 0, 0)" stroke-linejoin="round" d=" M 39.022, 108.871 40.882, 107.271 44.990, 103.736 54.767, 101.636 58.117, 100.917 " />
            <path fill="none" stroke-width="3.0" stroke-linecap="butt" stroke-opacity="1.0" stroke="rgb(0, 0, 0)" stroke-linejoin="round" d=" M 38.888, 117.546 47.150, 122.862 48.366, 123.354 " />
            <path fill="none" stroke-width="3.0" stroke-linecap="butt" stroke-opacity="1.0" stroke="rgb(0, 0, 0)" stroke-linejoin="round" d=" M 55.988, 100.975 46.213, 103.088 45.327, 103.279 41.091, 104.195 39.832, 104.467 33.825, 109.871 34.558, 111.401 " />
            <path fill="none" stroke-width="3.0" stroke-linecap="butt" stroke-opacity="1.0" stroke="rgb(0, 0, 0)" stroke-linejoin="round" d=" M 55.988, 100.975 58.117, 100.917 59.242, 100.886 59.976, 100.865 61.808, 100.815 70.538, 100.574 75.902, 100.426 77.902, 100.371 79.376, 100.330 81.509, 100.271 91.477, 101.069 101.446, 101.867 105.316, 102.177 110.053, 102.556 113.420, 102.825 117.442, 103.497 118.049, 103.598 122.533, 104.347 132.396, 105.995 142.260, 107.642 146.713, 108.386 156.387, 110.919 166.061, 113.452 175.654, 115.964 179.296, 117.434 183.993, 119.330 " />
            <path fill="none" stroke-width="3.0" stroke-linecap="butt" stroke-opacity="1.0" stroke="rgb(0, 0, 0)" stroke-linejoin="round" d=" M 41.031, 94.927 36.229, 98.808 33.063, 101.994 31.251, 104.821 30.081, 107.839 30.074, 110.297 30.538, 112.468 34.862, 116.546 37.541, 118.017 38.888, 117.546 38.929, 117.532 40.801, 116.878 42.105, 115.989 43.657, 114.931 45.242, 109.861 " />
            <path fill="none" stroke-width="3.0" stroke-linecap="butt" stroke-opacity="1.0" stroke="rgb(0, 0, 0)" stroke-linejoin="round" d=" M 33.267, 114.058 30.538, 112.468 " />
            <path fill="none" stroke-width="3.0" stroke-linecap="butt" stroke-opacity="1.0" stroke="rgb(0, 0, 0)" stroke-linejoin="round" d=" M 43.657, 114.931 39.929, 112.634 " />
            <path fill="none" stroke-width="3.0" stroke-linecap="butt" stroke-opacity="1.0" stroke="rgb(0, 0, 0)" stroke-linejoin="round" d=" M 40.836, 110.232 39.929, 112.634 36.509, 113.597 " />
            <path fill="none" stroke-width="3.0" stroke-linecap="butt" stroke-opacity="1.0" stroke="rgb(0, 0, 0)" stroke-linejoin="round" d=" M 57.463, 85.340 50.513, 88.616 42.189, 94.157 41.031, 94.927 47.287, 90.906 48.067, 90.480 56.840, 85.681 57.463, 85.340 58.970, 84.727 61.238, 83.805 " />
            <path fill="none" stroke-width="3.0" stroke-linecap="butt" stroke-opacity="1.0" stroke="rgb(0, 0, 0)" stroke-linejoin="round" d=" M 47.287, 90.906 49.333, 90.083 49.681, 89.943 53.569, 88.379 55.753, 87.500 57.509, 86.983 67.101, 84.155 67.251, 84.111 " />
            <path fill="none" stroke-width="3.0" stroke-linecap="butt" stroke-opacity="1.0" stroke="rgb(0, 0, 0)" stroke-linejoin="round" d=" M 67.566, 84.056 71.604, 83.661 71.841, 83.638 77.946, 83.042 80.458, 82.796 81.775, 82.765 87.687, 82.627 88.387, 82.660 89.243, 82.699 " />
            <path fill="none" stroke-width="3.0" stroke-linecap="butt" stroke-opacity="1.0" stroke="rgb(0, 0, 0)" stroke-linejoin="round" d=" M 179.296, 117.434 179.951, 119.038 181.872, 119.955 182.967, 120.478 183.066, 120.519 188.696, 122.877 196.807, 126.274 196.996, 126.148 197.876, 125.564 198.722, 125.002 199.008, 124.812 199.263, 123.706 199.843, 121.189 196.941, 116.639 192.330, 112.179 190.449, 110.360 185.753, 106.980 182.896, 104.924 178.184, 101.430 178.135, 101.394 176.683, 100.317 171.303, 97.146 168.153, 95.289 160.674, 92.165 159.534, 91.689 156.979, 90.622 147.434, 87.640 144.278, 86.654 134.665, 83.899 131.493, 82.990 121.637, 81.303 118.644, 80.790 109.234, 79.245 107.461, 78.954 " />
            <path fill="none" stroke-width="3.0" stroke-linecap="butt" stroke-opacity="1.0" stroke="rgb(0, 0, 0)" stroke-linejoin="round" d=" M 103.055, 83.796 107.685, 84.282 111.424, 84.674 111.669, 84.734 121.380, 87.123 128.062, 88.767 137.665, 91.556 141.119, 92.559 142.453, 92.946 151.781, 96.550 155.283, 97.902 164.444, 101.912 166.425, 102.779 174.789, 106.837 181.237, 110.433 184.951, 113.208 186.306, 114.222 187.292, 115.774 187.573, 116.216 188.193, 117.194 188.351, 118.295 188.559, 119.741 187.693, 120.287 187.175, 120.614 186.025, 121.339 " />
            <path fill="none" stroke-width="3.0" stroke-linecap="butt" stroke-opacity="1.0" stroke="rgb(0, 0, 0)" stroke-linejoin="round" d=" M 99.101, 80.588 99.487, 80.036 100.446, 78.663 102.894, 75.160 103.797, 72.061 104.028, 71.267 104.387, 70.036 104.617, 69.246 105.050, 67.761 105.234, 67.127 105.312, 66.860 105.848, 60.434 105.832, 57.998 105.827, 57.094 105.818, 55.722 105.817, 55.642 " />
            <path fill="none" stroke-width="3.0" stroke-linecap="butt" stroke-opacity="1.0" stroke="rgb(0, 0, 0)" stroke-linejoin="round" d=" M 76.872, 75.249 80.419, 77.593 82.786, 78.754 82.985, 78.852 83.906, 79.304 85.568, 80.119 93.082, 81.715 94.126, 81.519 99.101, 80.588 100.305, 82.024 101.792, 83.166 101.968, 83.301 103.420, 83.725 " />
            <path fill="none" stroke-width="3.0" stroke-linecap="butt" stroke-opacity="1.0" stroke="rgb(0, 0, 0)" stroke-linejoin="round" d=" M 54.223, 81.517 53.902, 80.157 " />
            <path fill="none" stroke-width="3.0" stroke-linecap="butt" stroke-opacity="1.0" stroke="rgb(0, 0, 0)" stroke-linejoin="round" d=" M 79.893, 78.050 77.628, 76.548 76.872, 75.249 72.529, 77.542 66.656, 79.946 61.446, 80.905 59.035, 81.348 53.902, 80.157 52.283, 74.965 " />
            <path fill="none" stroke-width="3.0" stroke-linecap="butt" stroke-opacity="1.0" stroke="rgb(0, 0, 0)" stroke-linejoin="round" d=" M 110.655, 62.905 110.908, 62.550 111.014, 62.402 111.226, 62.104 114.162, 57.985 114.515, 57.481 117.708, 52.922 118.836, 51.312 122.502, 45.664 122.944, 44.043 124.044, 40.002 124.095, 36.872 122.912, 34.647 119.434, 30.363 114.163, 27.895 111.230, 26.781 105.496, 25.645 103.090, 25.375 101.114, 25.154 " />
            <path fill="none" stroke-width="3.0" stroke-linecap="butt" stroke-opacity="1.0" stroke="rgb(0, 0, 0)" stroke-linejoin="round" d=" M 56.012, 56.715 53.328, 52.885 50.337, 47.796 48.915, 42.367 49.386, 36.842 53.737, 32.630 60.771, 29.100 66.460, 27.495 70.772, 26.615 73.361, 22.614 77.249, 17.424 83.324, 11.640 88.730, 8.955 93.341, 11.005 97.608, 16.251 99.826, 21.231 101.114, 25.154 " />
            <path fill="none" stroke-width="3.0" stroke-linecap="butt" stroke-opacity="1.0" stroke="rgb(0, 0, 0)" stroke-linejoin="round" d=" M 108.948, 58.689 107.830, 57.394 107.155, 56.613 105.843, 55.661 105.817, 55.642 105.870, 55.596 106.853, 54.746 110.342, 51.727 111.153, 50.889 115.791, 46.096 116.864, 44.421 119.627, 40.106 121.302, 34.108 117.899, 29.906 111.230, 26.781 " />
            <path fill="none" stroke-width="3.0" stroke-linecap="butt" stroke-opacity="1.0" stroke="rgb(0, 0, 0)" stroke-linejoin="round" d=" M 103.090, 25.375 102.153, 22.972 99.672, 18.127 98.249, 15.862 94.370, 11.102 89.669, 9.014 88.730, 8.955 " />
            <path fill="none" stroke-width="3.0" stroke-linecap="butt" stroke-opacity="1.0" stroke="rgb(0, 0, 0)" stroke-linejoin="round" d=" M 53.328, 52.885 56.104, 56.455 " />
            <path fill="none" stroke-width="3.0" stroke-linecap="butt" stroke-opacity="1.0" stroke="rgb(0, 0, 0)" stroke-linejoin="round" d=" M 191.352, 107.231 188.458, 97.659 186.299, 90.514 185.295, 89.440 184.087, 85.089 179.251, 76.336 177.983, 74.041 171.466, 66.456 170.344, 65.150 164.666, 59.715 156.731, 53.630 156.359, 53.345 149.143, 49.530 142.886, 47.309 138.188, 45.788 137.070, 45.425 130.625, 44.277 126.476, 44.094 124.274, 43.996 122.944, 44.043 " />
            <path fill="none" stroke-width="3.0" stroke-linecap="butt" stroke-opacity="1.0" stroke="rgb(0, 0, 0)" stroke-linejoin="round" d=" M 79.893, 78.050 81.453, 78.963 82.722, 79.705 82.775, 79.736 83.004, 79.870 84.508, 80.750 84.764, 80.900 87.296, 81.917 89.048, 82.621 89.243, 82.699 89.496, 82.800 90.782, 83.317 92.957, 83.781 97.833, 84.823 101.764, 84.050 103.055, 83.796 103.420, 83.725 103.714, 83.304 104.466, 82.226 106.772, 78.926 107.359, 78.086 107.443, 77.835 108.545, 74.552 108.720, 74.030 108.801, 73.789 108.855, 73.507 109.290, 71.221 109.503, 70.099 109.608, 69.545 110.218, 66.342 110.655, 62.905 110.752, 62.142 110.770, 61.999 110.851, 61.366 110.868, 61.233 " />
            <path fill="none" stroke-width="3.0" stroke-linecap="butt" stroke-opacity="1.0" stroke="rgb(0, 0, 0)" stroke-linejoin="round" d=" M 186.886, 104.351 183.012, 101.151 175.007, 97.574 166.745, 93.882 160.674, 92.165 " />
            <path fill="none" stroke-width="3.0" stroke-linecap="butt" stroke-opacity="1.0" stroke="rgb(0, 0, 0)" stroke-linejoin="round" d=" M 121.240, 70.243 119.694, 70.151 " />
            <path fill="none" stroke-width="3.0" stroke-linecap="butt" stroke-opacity="1.0" stroke="rgb(0, 0, 0)" stroke-linejoin="round" d=" M 121.240, 70.243 126.884, 71.126 134.668, 72.345 144.548, 73.891 144.993, 73.960 " />
            <path fill="none" stroke-width="3.0" stroke-linecap="butt" stroke-opacity="1.0" stroke="rgb(0, 0, 0)" stroke-linejoin="round" d=" M 138.188, 45.788 137.533, 44.914 134.198, 43.534 130.143, 43.082 126.978, 43.737 126.476, 44.094 " />
            <path fill="none" stroke-width="3.0" stroke-linecap="butt" stroke-opacity="1.0" stroke="rgb(0, 0, 0)" stroke-linejoin="round" d=" M 199.059, 142.528 200.720, 142.112 208.869, 137.475 209.734, 133.767 209.572, 127.025 205.746, 121.517 199.973, 114.398 192.283, 108.006 191.352, 107.231 190.426, 106.462 186.886, 104.351 185.000, 103.226 176.572, 99.485 171.303, 97.146 " />
            <path fill="none" stroke-width="3.0" stroke-linecap="butt" stroke-opacity="1.0" stroke="rgb(0, 0, 0)" stroke-linejoin="round" d=" M 199.263, 123.706 207.183, 129.812 208.643, 130.937 208.869, 137.475 " />
            <path fill="none" stroke-width="3.0" stroke-linecap="butt" stroke-opacity="1.0" stroke="rgb(0, 0, 0)" stroke-linejoin="round" d=" M 44.170, 94.120 43.583, 94.565 38.123, 98.648 32.063, 104.580 31.626, 108.241 " />
            <path fill="none" stroke-width="3.0" stroke-linecap="butt" stroke-opacity="1.0" stroke="rgb(0, 0, 0)" stroke-linejoin="round" d=" M 209.572, 127.025 201.766, 120.774 199.306, 118.804 " />
            <path fill="none" stroke-width="3.0" stroke-linecap="butt" stroke-opacity="1.0" stroke="rgb(0, 0, 0)" stroke-linejoin="round" d=" M 59.788, 83.465 58.970, 84.727 " />
            <path fill="none" stroke-width="3.0" stroke-linecap="butt" stroke-opacity="1.0" stroke="rgb(0, 0, 0)" stroke-linejoin="round" d=" M 107.242, 78.945 107.583, 77.796 108.545, 74.552 " />
            <path fill="none" stroke-width="3.0" stroke-linecap="butt" stroke-opacity="1.0" stroke="rgb(0, 0, 0)" stroke-linejoin="round" d=" M 108.720, 74.030 110.865, 73.940 " />
            <path fill="none" stroke-width="3.0" stroke-linecap="butt" stroke-opacity="1.0" stroke="rgb(0, 0, 0)" stroke-linejoin="round" d=" M 133.132, 215.484 133.955, 217.740 134.943, 220.451 " />
            <path fill="none" stroke-width="3.0" stroke-linecap="butt" stroke-opacity="1.0" stroke="rgb(0, 0, 0)" stroke-linejoin="round" d=" M 196.996, 126.148 201.537, 129.536 " />
        </g>
    </g>
</svg>
