<?xml version='1.0' encoding='ascii'?>
<svg xmlns="http://www.w3.org/2000/svg" version="1.1" width="250" height="250">
    <g id="ViewLayer_LineSet" xmlns:inkscape="http://www.inkscape.org/namespaces/inkscape" inkscape:groupmode="lineset" inkscape:label="ViewLayer_LineSet">
        <g xmlns:inkscape="http://www.inkscape.org/namespaces/inkscape" inkscape:groupmode="layer" id="strokes" inkscape:label="strokes">
            <path fill="none" stroke-width="3.0" stroke-linecap="butt" stroke-opacity="1.0" stroke="rgb(0, 0, 0)" stroke-linejoin="round" d=" M 164.235, 199.959 166.787, 198.103 173.740, 190.915 174.406, 190.226 176.403, 187.330 182.034, 179.066 182.699, 178.090 " />
            <path fill="none" stroke-width="3.0" stroke-linecap="butt" stroke-opacity="1.0" stroke="rgb(0, 0, 0)" stroke-linejoin="round" d=" M 59.363, 99.739 57.984, 101.472 53.751, 108.578 49.942, 117.246 49.371, 119.097 48.436, 122.124 48.331, 122.465 48.001, 123.534 47.275, 125.883 46.023, 132.041 45.479, 138.422 45.253, 142.910 45.482, 148.568 45.962, 153.062 46.822, 157.708 47.669, 161.657 48.955, 165.959 50.618, 170.424 52.283, 174.174 52.587, 174.859 54.775, 179.072 57.090, 182.879 59.431, 186.104 62.362, 189.986 65.346, 193.273 69.458, 197.349 72.902, 200.065 78.079, 204.033 78.897, 204.521 84.043, 207.592 89.778, 210.182 93.586, 211.849 96.869, 212.799 " />
            <path fill="none" stroke-width="3.0" stroke-linecap="butt" stroke-opacity="1.0" stroke="rgb(0, 0, 0)" stroke-linejoin="round" d=" M 189.593, 125.751 188.818, 122.125 188.667, 121.734 " />
            <path fill="none" stroke-width="3.0" stroke-linecap="butt" stroke-opacity="1.0" stroke="rgb(0, 0, 0)" stroke-linejoin="round" d=" M 77.110, 151.401 77.664, 152.802 78.374, 153.881 79.027, 154.872 80.921, 156.533 83.116, 157.765 85.157, 158.212 87.251, 158.143 89.625, 157.320 91.673, 155.995 93.222, 154.151 93.937, 152.836 " />
            <path fill="none" stroke-width="3.0" stroke-linecap="butt" stroke-opacity="1.0" stroke="rgb(0, 0, 0)" stroke-linejoin="round" d=" M 117.436, 102.288 117.589, 102.801 118.015, 104.234 118.467, 107.625 118.508, 111.451 118.524, 111.520 117.437, 119.698 117.422, 119.810 117.405, 119.940 116.179, 124.154 114.674, 128.445 112.920, 132.443 110.979, 135.954 108.920, 138.806 108.660, 139.059 108.270, 139.437 106.812, 140.856 104.727, 142.002 102.738, 142.185 101.459, 141.628 100.918, 141.392 99.341, 139.656 98.328, 137.576 98.075, 137.058 98.074, 137.054 97.182, 133.717 96.710, 129.795 96.688, 125.480 97.123, 120.977 97.980, 116.564 98.183, 115.861 98.226, 115.712 99.182, 112.400 100.703, 108.496 102.481, 104.994 104.449, 102.017 105.370, 100.978 " />
            <path fill="none" stroke-width="3.0" stroke-linecap="butt" stroke-opacity="1.0" stroke="rgb(0, 0, 0)" stroke-linejoin="round" d=" M 77.311, 119.877 76.333, 124.171 76.153, 124.855 75.250, 128.281 74.305, 131.273 74.173, 131.693 74.074, 132.005 72.813, 135.156 71.474, 137.576 70.071, 139.147 68.920, 139.663 68.632, 139.792 67.221, 139.783 65.846, 138.244 64.638, 136.139 63.663, 133.277 63.001, 129.805 62.897, 128.369 62.862, 127.890 62.718, 125.895 62.856, 121.736 63.144, 119.595 63.414, 117.585 64.281, 113.585 65.399, 109.740 66.723, 106.188 67.357, 104.841 67.595, 104.334 68.200, 103.050 69.772, 100.432 70.592, 99.408 " />
            <path fill="none" stroke-width="3.0" stroke-linecap="butt" stroke-opacity="1.0" stroke="rgb(0, 0, 0)" stroke-linejoin="round" d=" M 67.221, 139.783 70.425, 141.163 " />
            <path fill="none" stroke-width="3.0" stroke-linecap="butt" stroke-opacity="1.0" stroke="rgb(0, 0, 0)" stroke-linejoin="round" d=" M 77.884, 99.193 78.527, 101.466 78.887, 104.382 78.996, 107.873 78.845, 109.706 78.821, 109.993 78.687, 111.617 " />
            <path fill="none" stroke-width="3.0" stroke-linecap="butt" stroke-opacity="1.0" stroke="rgb(0, 0, 0)" stroke-linejoin="round" d=" M 80.417, 121.820 77.311, 119.877 78.134, 115.671 78.687, 111.617 81.754, 113.654 " />
            <path fill="none" stroke-width="3.0" stroke-linecap="butt" stroke-opacity="1.0" stroke="rgb(0, 0, 0)" stroke-linejoin="round" d=" M 108.705, 198.189 105.746, 200.482 101.615, 204.084 98.784, 208.221 96.990, 212.295 96.869, 212.799 96.037, 216.268 95.747, 219.942 96.293, 223.819 97.943, 227.813 100.525, 230.686 104.218, 232.919 104.243, 232.934 109.784, 234.755 119.529, 237.000 120.073, 237.125 125.691, 238.246 132.081, 239.079 138.452, 239.699 146.647, 240.185 151.921, 240.484 157.765, 240.469 160.593, 240.380 165.028, 239.821 168.786, 238.228 172.958, 234.236 175.256, 230.539 176.604, 226.595 176.962, 221.960 176.161, 216.975 173.655, 210.836 170.038, 205.500 168.084, 203.328 164.235, 199.959 162.458, 198.404 156.730, 195.375 " />
            <path fill="none" stroke-width="3.0" stroke-linecap="butt" stroke-opacity="1.0" stroke="rgb(0, 0, 0)" stroke-linejoin="round" d=" M 78.897, 204.521 78.808, 205.040 78.280, 208.156 78.410, 212.185 78.444, 213.224 " />
            <path fill="none" stroke-width="3.0" stroke-linecap="butt" stroke-opacity="1.0" stroke="rgb(0, 0, 0)" stroke-linejoin="round" d=" M 78.410, 212.185 78.466, 216.162 79.087, 218.564 81.133, 223.495 82.358, 225.687 85.772, 229.207 90.036, 231.947 94.213, 233.194 98.628, 233.429 100.521, 233.450 104.218, 232.919 " />
            <path fill="none" stroke-width="3.0" stroke-linecap="butt" stroke-opacity="1.0" stroke="rgb(0, 0, 0)" stroke-linejoin="round" d=" M 182.699, 178.090 185.952, 179.547 188.650, 180.332 192.867, 181.470 196.732, 181.958 200.501, 181.757 205.223, 180.543 207.488, 179.539 207.956, 179.270 209.690, 178.205 212.319, 176.169 214.808, 173.491 216.820, 170.164 218.035, 167.050 218.558, 165.095 218.795, 163.448 218.971, 162.157 218.977, 159.273 217.873, 153.710 216.456, 149.970 214.332, 146.063 210.511, 141.301 206.949, 137.636 206.547, 137.223 206.481, 137.155 202.521, 133.491 200.605, 131.755 196.399, 128.812 191.789, 126.524 189.593, 125.751 " />
            <path fill="none" stroke-width="3.0" stroke-linecap="butt" stroke-opacity="1.0" stroke="rgb(0, 0, 0)" stroke-linejoin="round" d=" M 48.001, 123.534 44.400, 125.454 40.187, 128.517 36.211, 132.240 32.170, 136.513 28.284, 141.489 25.956, 145.564 24.376, 149.456 23.518, 153.467 23.459, 156.962 23.926, 160.247 24.945, 163.322 25.162, 163.790 26.656, 166.580 28.648, 169.217 31.010, 171.355 33.662, 173.131 36.551, 174.467 39.722, 175.322 43.193, 175.730 47.286, 175.441 51.369, 174.504 52.283, 174.174 " />
            <path fill="none" stroke-width="3.0" stroke-linecap="butt" stroke-opacity="1.0" stroke="rgb(0, 0, 0)" stroke-linejoin="round" d=" M 116.257, 71.911 119.471, 69.452 119.505, 69.426 119.666, 69.099 119.703, 69.024 121.357, 65.661 122.342, 63.068 122.323, 59.388 121.306, 56.724 119.402, 53.012 117.686, 51.757 " />
            <path fill="none" stroke-width="3.0" stroke-linecap="butt" stroke-opacity="1.0" stroke="rgb(0, 0, 0)" stroke-linejoin="round" d=" M 56.098, 55.267 56.004, 55.531 54.483, 59.830 52.844, 65.919 52.275, 73.770 52.565, 75.033 54.217, 80.322 56.705, 81.561 59.899, 82.305 61.437, 82.663 61.849, 82.759 65.732, 83.200 71.742, 82.147 72.746, 81.890 73.989, 81.573 77.305, 80.727 82.732, 78.566 82.802, 78.538 " />
            <path fill="none" stroke-width="3.0" stroke-linecap="butt" stroke-opacity="1.0" stroke="rgb(0, 0, 0)" stroke-linejoin="round" d=" M 33.814, 111.737 31.614, 107.235 32.795, 106.093 37.495, 101.549 41.790, 100.464 49.645, 98.479 53.185, 97.585 57.022, 97.453 59.097, 97.383 61.297, 97.307 71.291, 96.966 73.456, 96.892 76.016, 96.804 76.033, 96.804 79.965, 96.670 89.934, 97.452 99.904, 98.234 107.602, 98.838 113.677, 99.315 116.277, 99.768 116.342, 99.779 126.193, 101.497 136.044, 103.215 145.896, 104.933 147.664, 105.241 157.328, 107.813 166.991, 110.385 176.655, 112.957 177.074, 113.069 178.189, 113.528 178.921, 113.830 183.057, 115.534 185.968, 116.733 " />
            <path fill="none" stroke-width="3.0" stroke-linecap="butt" stroke-opacity="1.0" stroke="rgb(0, 0, 0)" stroke-linejoin="round" d=" M 206.547, 137.223 206.652, 137.161 206.282, 130.839 200.096, 126.137 197.902, 124.469 " />
            <path fill="none" stroke-width="3.0" stroke-linecap="butt" stroke-opacity="1.0" stroke="rgb(0, 0, 0)" stroke-linejoin="round" d=" M 39.012, 107.872 40.877, 106.247 44.981, 102.671 54.750, 100.536 58.248, 99.772 " />
            <path fill="none" stroke-width="3.0" stroke-linecap="butt" stroke-opacity="1.0" stroke="rgb(0, 0, 0)" stroke-linejoin="round" d=" M 38.872, 116.616 47.143, 121.981 48.331, 122.465 " />
            <path fill="none" stroke-width="3.0" stroke-linecap="butt" stroke-opacity="1.0" stroke="rgb(0, 0, 0)" stroke-linejoin="round" d=" M 55.982, 99.838 46.215, 101.987 45.469, 102.152 41.090, 103.115 39.822, 103.394 33.814, 108.868 34.554, 110.427 " />
            <path fill="none" stroke-width="3.0" stroke-linecap="butt" stroke-opacity="1.0" stroke="rgb(0, 0, 0)" stroke-linejoin="round" d=" M 55.982, 99.838 58.248, 99.772 59.363, 99.739 59.704, 99.729 61.546, 99.674 70.592, 99.408 76.022, 99.248 77.884, 99.193 79.265, 99.152 81.511, 99.086 91.479, 99.877 101.448, 100.667 105.370, 100.978 110.157, 101.358 113.432, 101.618 117.436, 102.288 118.013, 102.384 127.876, 104.033 131.695, 104.672 141.558, 106.321 146.735, 107.187 156.405, 109.731 166.076, 112.276 175.683, 114.803 179.313, 116.279 184.236, 118.280 " />
            <path fill="none" stroke-width="3.0" stroke-linecap="butt" stroke-opacity="1.0" stroke="rgb(0, 0, 0)" stroke-linejoin="round" d=" M 41.021, 93.877 36.219, 97.779 33.051, 100.982 31.239, 103.823 30.069, 106.854 30.062, 109.319 30.526, 111.493 34.852, 115.611 37.532, 117.084 38.872, 116.616 38.903, 116.605 40.793, 115.945 42.071, 115.073 43.649, 113.997 45.234, 108.921 " />
            <path fill="none" stroke-width="3.0" stroke-linecap="butt" stroke-opacity="1.0" stroke="rgb(0, 0, 0)" stroke-linejoin="round" d=" M 33.256, 113.083 30.526, 111.493 " />
            <path fill="none" stroke-width="3.0" stroke-linecap="butt" stroke-opacity="1.0" stroke="rgb(0, 0, 0)" stroke-linejoin="round" d=" M 43.649, 113.997 39.920, 111.660 " />
            <path fill="none" stroke-width="3.0" stroke-linecap="butt" stroke-opacity="1.0" stroke="rgb(0, 0, 0)" stroke-linejoin="round" d=" M 40.813, 109.294 39.920, 111.660 36.499, 112.623 " />
            <path fill="none" stroke-width="3.0" stroke-linecap="butt" stroke-opacity="1.0" stroke="rgb(0, 0, 0)" stroke-linejoin="round" d=" M 57.457, 84.292 50.506, 87.590 42.171, 93.115 41.021, 93.877 47.279, 89.832 48.319, 89.266 57.102, 84.485 57.457, 84.292 59.028, 83.649 61.437, 82.663 " />
            <path fill="none" stroke-width="3.0" stroke-linecap="butt" stroke-opacity="1.0" stroke="rgb(0, 0, 0)" stroke-linejoin="round" d=" M 47.279, 89.832 49.504, 88.930 49.739, 88.835 53.360, 87.368 55.747, 86.401 57.601, 85.850 67.187, 83.002 67.370, 82.948 77.321, 81.957 78.237, 81.866 80.459, 81.645 81.788, 81.612 87.691, 81.466 88.682, 81.511 89.420, 81.544 " />
            <path fill="none" stroke-width="3.0" stroke-linecap="butt" stroke-opacity="1.0" stroke="rgb(0, 0, 0)" stroke-linejoin="round" d=" M 179.313, 116.279 179.981, 117.913 182.196, 118.965 182.997, 119.346 183.429, 119.528 188.667, 121.734 196.840, 125.178 197.001, 125.071 197.902, 124.469 198.720, 123.923 199.043, 123.708 199.296, 122.606 199.878, 120.079 196.976, 115.523 192.330, 111.028 190.482, 109.240 184.626, 105.022 182.926, 103.797 178.453, 100.477 177.867, 100.042 176.712, 99.185 171.545, 96.136 168.180, 94.150 160.919, 91.114 158.919, 90.278 157.003, 89.477 147.458, 86.494 144.298, 85.507 134.684, 82.753 131.509, 81.843 121.652, 80.159 118.656, 79.647 109.246, 78.108 107.470, 77.817 " />
            <path fill="none" stroke-width="3.0" stroke-linecap="butt" stroke-opacity="1.0" stroke="rgb(0, 0, 0)" stroke-linejoin="round" d=" M 102.906, 82.605 107.706, 83.105 111.435, 83.494 111.993, 83.631 121.704, 86.016 128.077, 87.581 137.681, 90.368 141.631, 91.515 142.473, 91.759 151.800, 95.364 155.306, 96.719 164.466, 100.732 166.452, 101.602 174.818, 105.666 181.267, 109.269 184.888, 111.980 186.339, 113.066 187.368, 114.690 187.689, 115.196 188.225, 116.043 188.412, 117.347 188.591, 118.595 187.676, 119.175 187.192, 119.481 186.057, 120.200 " />
            <path fill="none" stroke-width="3.0" stroke-linecap="butt" stroke-opacity="1.0" stroke="rgb(0, 0, 0)" stroke-linejoin="round" d=" M 99.108, 79.328 99.252, 79.122 100.366, 77.529 102.903, 73.899 103.721, 71.092 103.999, 70.138 104.352, 68.928 104.585, 68.127 105.020, 66.634 105.242, 65.874 105.321, 65.601 105.857, 59.178 105.843, 56.898 105.836, 55.952 105.827, 54.552 105.826, 54.389 " />
            <path fill="none" stroke-width="3.0" stroke-linecap="butt" stroke-opacity="1.0" stroke="rgb(0, 0, 0)" stroke-linejoin="round" d=" M 76.872, 74.022 80.420, 76.360 83.021, 77.631 83.035, 77.638 84.136, 78.177 85.571, 78.878 93.087, 80.462 97.187, 79.690 99.108, 79.328 100.313, 80.769 101.940, 82.033 101.975, 82.060 103.428, 82.502 " />
            <path fill="none" stroke-width="3.0" stroke-linecap="butt" stroke-opacity="1.0" stroke="rgb(0, 0, 0)" stroke-linejoin="round" d=" M 54.217, 80.322 53.895, 78.957 " />
            <path fill="none" stroke-width="3.0" stroke-linecap="butt" stroke-opacity="1.0" stroke="rgb(0, 0, 0)" stroke-linejoin="round" d=" M 79.893, 76.842 77.628, 75.326 76.872, 74.022 72.528, 76.319 66.653, 78.729 61.612, 79.662 59.029, 80.141 53.895, 78.957 52.275, 73.770 " />
            <path fill="none" stroke-width="3.0" stroke-linecap="butt" stroke-opacity="1.0" stroke="rgb(0, 0, 0)" stroke-linejoin="round" d=" M 110.662, 61.718 110.903, 61.379 110.985, 61.265 111.210, 60.949 114.173, 56.789 114.504, 56.315 117.686, 51.757 118.849, 50.090 122.516, 44.439 122.891, 43.063 124.059, 38.778 124.109, 35.631 122.926, 33.392 119.447, 29.115 114.175, 26.656 111.241, 25.540 105.505, 24.412 103.087, 24.145 101.121, 23.927 " />
            <path fill="none" stroke-width="3.0" stroke-linecap="butt" stroke-opacity="1.0" stroke="rgb(0, 0, 0)" stroke-linejoin="round" d=" M 56.004, 55.531 53.321, 51.703 50.329, 46.621 48.907, 41.198 49.378, 35.676 53.730, 31.461 60.767, 27.924 66.457, 26.313 70.770, 25.427 73.360, 21.426 77.249, 16.234 83.326, 10.445 88.733, 7.755 93.346, 9.798 97.614, 15.035 99.833, 20.008 101.121, 23.927 " />
            <path fill="none" stroke-width="3.0" stroke-linecap="butt" stroke-opacity="1.0" stroke="rgb(0, 0, 0)" stroke-linejoin="round" d=" M 108.958, 57.457 107.756, 56.055 107.164, 55.366 105.879, 54.428 105.826, 54.389 105.935, 54.296 106.824, 53.525 110.353, 50.471 111.058, 49.742 115.804, 44.837 116.698, 43.439 119.640, 38.845 121.316, 32.849 117.912, 28.654 111.241, 25.540 " />
            <path fill="none" stroke-width="3.0" stroke-linecap="butt" stroke-opacity="1.0" stroke="rgb(0, 0, 0)" stroke-linejoin="round" d=" M 103.087, 24.145 102.161, 21.770 99.679, 16.929 98.255, 14.652 94.375, 9.900 89.673, 7.820 88.733, 7.755 " />
            <path fill="none" stroke-width="3.0" stroke-linecap="butt" stroke-opacity="1.0" stroke="rgb(0, 0, 0)" stroke-linejoin="round" d=" M 53.321, 51.703 56.098, 55.267 " />
            <path fill="none" stroke-width="3.0" stroke-linecap="butt" stroke-opacity="1.0" stroke="rgb(0, 0, 0)" stroke-linejoin="round" d=" M 191.353, 106.131 188.457, 96.560 186.326, 89.517 185.322, 88.444 184.114, 84.096 179.273, 75.346 178.008, 73.059 171.485, 65.479 170.367, 64.179 164.688, 58.714 156.742, 52.643 156.379, 52.365 149.161, 48.532 142.902, 46.339 138.159, 44.798 137.084, 44.449 130.638, 43.300 126.541, 43.121 124.285, 43.022 122.891, 43.063 " />
            <path fill="none" stroke-width="3.0" stroke-linecap="butt" stroke-opacity="1.0" stroke="rgb(0, 0, 0)" stroke-linejoin="round" d=" M 79.893, 76.842 81.591, 77.832 82.750, 78.507 82.802, 78.538 83.194, 78.766 84.541, 79.552 84.766, 79.683 87.536, 80.791 89.250, 81.476 89.420, 81.544 89.839, 81.712 90.786, 82.091 93.383, 82.649 97.839, 83.607 101.389, 82.905 102.906, 82.605 103.428, 82.502 103.670, 82.156 104.414, 81.091 106.723, 77.787 107.345, 76.896 107.368, 76.863 108.702, 72.894 108.772, 72.684 108.811, 72.569 108.819, 72.526 109.255, 70.235 109.493, 68.985 109.600, 68.425 110.228, 65.127 110.662, 61.718 110.749, 61.032 110.772, 60.854 110.850, 60.239 110.878, 60.020 " />
            <path fill="none" stroke-width="3.0" stroke-linecap="butt" stroke-opacity="1.0" stroke="rgb(0, 0, 0)" stroke-linejoin="round" d=" M 186.768, 103.190 183.041, 100.089 174.913, 96.436 166.770, 92.776 160.919, 91.114 " />
            <path fill="none" stroke-width="3.0" stroke-linecap="butt" stroke-opacity="1.0" stroke="rgb(0, 0, 0)" stroke-linejoin="round" d=" M 121.252, 69.116 119.703, 69.024 " />
            <path fill="none" stroke-width="3.0" stroke-linecap="butt" stroke-opacity="1.0" stroke="rgb(0, 0, 0)" stroke-linejoin="round" d=" M 121.252, 69.116 128.957, 70.325 133.375, 71.018 143.255, 72.569 145.012, 72.844 " />
            <path fill="none" stroke-width="3.0" stroke-linecap="butt" stroke-opacity="1.0" stroke="rgb(0, 0, 0)" stroke-linejoin="round" d=" M 138.159, 44.798 137.547, 43.978 134.211, 42.592 130.155, 42.141 126.989, 42.802 126.541, 43.121 " />
            <path fill="none" stroke-width="3.0" stroke-linecap="butt" stroke-opacity="1.0" stroke="rgb(0, 0, 0)" stroke-linejoin="round" d=" M 206.949, 137.636 208.901, 136.510 209.767, 132.803 209.607, 125.991 205.780, 120.489 200.005, 113.378 192.339, 106.957 191.353, 106.131 190.457, 105.380 186.768, 103.190 185.029, 102.157 176.468, 98.334 171.545, 96.136 " />
            <path fill="none" stroke-width="3.0" stroke-linecap="butt" stroke-opacity="1.0" stroke="rgb(0, 0, 0)" stroke-linejoin="round" d=" M 199.296, 122.606 207.190, 128.745 208.678, 129.902 208.901, 136.510 " />
            <path fill="none" stroke-width="3.0" stroke-linecap="butt" stroke-opacity="1.0" stroke="rgb(0, 0, 0)" stroke-linejoin="round" d=" M 44.293, 92.955 43.574, 93.499 38.113, 97.573 32.051, 103.577 31.614, 107.235 " />
            <path fill="none" stroke-width="3.0" stroke-linecap="butt" stroke-opacity="1.0" stroke="rgb(0, 0, 0)" stroke-linejoin="round" d=" M 209.607, 125.991 201.827, 119.708 199.341, 117.699 " />
            <path fill="none" stroke-width="3.0" stroke-linecap="butt" stroke-opacity="1.0" stroke="rgb(0, 0, 0)" stroke-linejoin="round" d=" M 59.899, 82.305 59.028, 83.649 " />
            <path fill="none" stroke-width="3.0" stroke-linecap="butt" stroke-opacity="1.0" stroke="rgb(0, 0, 0)" stroke-linejoin="round" d=" M 107.250, 77.808 107.537, 76.843 108.710, 72.893 " />
            <path fill="none" stroke-width="3.0" stroke-linecap="butt" stroke-opacity="1.0" stroke="rgb(0, 0, 0)" stroke-linejoin="round" d=" M 108.702, 72.894 108.710, 72.893 110.876, 72.816 " />
            <path fill="none" stroke-width="3.0" stroke-linecap="butt" stroke-opacity="1.0" stroke="rgb(0, 0, 0)" stroke-linejoin="round" d=" M 197.001, 125.071 201.570, 128.508 " />
        </g>
    </g>
</svg>
