<?xml version='1.0' encoding='ascii'?>
<svg xmlns="http://www.w3.org/2000/svg" version="1.1" width="250" height="250">
    <g id="ViewLayer_LineSet" xmlns:inkscape="http://www.inkscape.org/namespaces/inkscape" inkscape:groupmode="lineset" inkscape:label="ViewLayer_LineSet">
        <g xmlns:inkscape="http://www.inkscape.org/namespaces/inkscape" inkscape:groupmode="layer" id="strokes" inkscape:label="strokes">
            <path fill="none" stroke-width="3.0" stroke-linecap="butt" stroke-opacity="1.0" stroke="rgb(0, 0, 0)" stroke-linejoin="round" d=" M 59.540, 98.059 59.445, 98.178 57.977, 100.023 53.742, 107.138 49.933, 115.812 49.316, 117.807 48.382, 120.830 48.280, 121.163 47.517, 123.631 47.264, 124.449 46.011, 130.595 45.467, 136.965 45.242, 141.476 45.471, 147.119 45.950, 151.630 46.811, 156.258 47.658, 160.216 48.944, 164.526 50.609, 168.996 51.367, 170.703 52.578, 173.432 54.767, 177.642 57.082, 181.443 59.424, 184.659 62.357, 188.562 65.342, 191.833 69.455, 195.926 69.541, 195.993 72.901, 198.620 78.080, 202.602 84.045, 206.171 89.782, 208.774 93.592, 210.424 98.502, 211.829 105.031, 213.398 108.632, 214.073 " />
            <path fill="none" stroke-width="3.0" stroke-linecap="butt" stroke-opacity="1.0" stroke="rgb(0, 0, 0)" stroke-linejoin="round" d=" M 189.938, 125.713 188.860, 120.670 188.624, 120.061 " />
            <path fill="none" stroke-width="3.0" stroke-linecap="butt" stroke-opacity="1.0" stroke="rgb(0, 0, 0)" stroke-linejoin="round" d=" M 174.442, 188.788 175.642, 187.072 176.439, 185.931 181.036, 179.180 " />
            <path fill="none" stroke-width="3.0" stroke-linecap="butt" stroke-opacity="1.0" stroke="rgb(0, 0, 0)" stroke-linejoin="round" d=" M 77.110, 149.759 77.664, 151.159 79.028, 153.228 79.463, 153.609 80.923, 154.887 83.119, 156.115 85.161, 156.558 87.256, 156.486 89.630, 155.658 91.680, 154.329 93.229, 152.481 93.945, 151.165 " />
            <path fill="none" stroke-width="3.0" stroke-linecap="butt" stroke-opacity="1.0" stroke="rgb(0, 0, 0)" stroke-linejoin="round" d=" M 117.429, 100.517 117.761, 101.632 118.033, 102.545 118.485, 105.932 118.526, 109.755 118.542, 109.824 117.423, 118.237 117.349, 118.490 117.315, 118.607 116.196, 122.448 114.691, 126.737 112.936, 130.734 110.994, 134.246 108.934, 137.099 108.178, 137.834 107.794, 138.207 106.825, 139.151 104.739, 140.298 102.749, 140.482 101.449, 139.917 100.929, 139.691 99.351, 137.956 98.633, 136.483 98.382, 135.968 98.085, 135.358 97.191, 132.019 96.718, 128.098 96.696, 123.784 97.132, 119.284 97.989, 114.874 98.059, 114.631 98.105, 114.474 99.192, 110.713 100.713, 106.812 102.492, 103.312 104.461, 100.338 105.449, 99.224 " />
            <path fill="none" stroke-width="3.0" stroke-linecap="butt" stroke-opacity="1.0" stroke="rgb(0, 0, 0)" stroke-linejoin="round" d=" M 77.311, 118.216 76.668, 121.037 76.333, 122.508 75.249, 126.617 74.168, 130.042 74.073, 130.342 74.029, 130.453 72.811, 133.496 71.471, 135.920 70.068, 137.494 68.902, 138.020 68.629, 138.143 67.217, 138.139 65.841, 136.605 64.633, 134.504 63.658, 131.646 62.995, 128.178 62.921, 127.153 62.887, 126.681 62.712, 124.273 62.850, 120.118 63.178, 117.686 63.409, 115.972 64.275, 111.976 65.394, 108.134 66.718, 104.583 67.230, 103.497 67.474, 102.978 68.196, 101.445 69.769, 98.828 70.671, 97.700 " />
            <path fill="none" stroke-width="3.0" stroke-linecap="butt" stroke-opacity="1.0" stroke="rgb(0, 0, 0)" stroke-linejoin="round" d=" M 67.217, 138.139 70.423, 139.541 " />
            <path fill="none" stroke-width="3.0" stroke-linecap="butt" stroke-opacity="1.0" stroke="rgb(0, 0, 0)" stroke-linejoin="round" d=" M 77.840, 97.469 77.875, 97.530 78.527, 99.832 78.887, 102.741 78.997, 106.226 78.813, 108.446 78.789, 108.744 78.688, 109.965 " />
            <path fill="none" stroke-width="3.0" stroke-linecap="butt" stroke-opacity="1.0" stroke="rgb(0, 0, 0)" stroke-linejoin="round" d=" M 80.418, 120.182 77.311, 118.216 78.135, 114.014 78.688, 109.965 81.756, 112.024 " />
            <path fill="none" stroke-width="3.0" stroke-linecap="butt" stroke-opacity="1.0" stroke="rgb(0, 0, 0)" stroke-linejoin="round" d=" M 109.041, 211.040 108.632, 214.073 108.527, 214.847 108.603, 218.333 109.462, 221.935 111.271, 225.373 111.531, 225.696 112.648, 227.084 113.933, 228.035 117.232, 230.142 122.191, 232.360 128.654, 233.701 134.954, 234.645 141.039, 235.120 148.893, 235.214 154.782, 234.974 160.404, 234.046 164.296, 232.289 167.381, 229.914 173.068, 225.033 176.247, 221.896 180.120, 217.019 181.750, 213.673 182.551, 209.809 183.448, 206.187 183.378, 202.147 182.206, 197.874 180.846, 194.790 178.642, 190.398 176.031, 187.394 175.642, 187.072 " />
            <path fill="none" stroke-width="3.0" stroke-linecap="butt" stroke-opacity="1.0" stroke="rgb(0, 0, 0)" stroke-linejoin="round" d=" M 69.541, 195.993 67.913, 200.180 66.710, 203.515 65.206, 207.102 63.749, 210.893 63.273, 213.292 " />
            <path fill="none" stroke-width="3.0" stroke-linecap="butt" stroke-opacity="1.0" stroke="rgb(0, 0, 0)" stroke-linejoin="round" d=" M 63.354, 212.934 63.273, 213.292 62.543, 216.515 62.457, 219.850 63.093, 223.309 64.620, 225.859 64.718, 225.987 66.832, 228.750 " />
            <path fill="none" stroke-width="3.0" stroke-linecap="butt" stroke-opacity="1.0" stroke="rgb(0, 0, 0)" stroke-linejoin="round" d=" M 64.718, 225.987 64.966, 226.396 66.832, 228.750 69.621, 230.670 74.127, 232.546 78.368, 233.594 82.999, 234.001 86.294, 234.099 92.289, 234.197 98.257, 233.084 100.907, 232.742 104.540, 231.633 107.065, 229.931 111.531, 225.696 " />
            <path fill="none" stroke-width="3.0" stroke-linecap="butt" stroke-opacity="1.0" stroke="rgb(0, 0, 0)" stroke-linejoin="round" d=" M 179.293, 178.241 181.036, 179.180 185.361, 181.510 190.179, 183.182 194.693, 184.157 199.213, 184.416 203.034, 183.914 206.511, 182.924 209.659, 181.410 212.529, 179.415 215.071, 177.026 217.194, 174.089 217.537, 173.518 219.119, 170.430 220.162, 167.023 220.593, 163.392 220.442, 159.537 219.399, 155.125 217.566, 150.857 214.907, 146.400 210.518, 140.979 206.291, 136.660 205.977, 136.339 205.869, 136.241 201.528, 132.308 196.842, 129.010 191.763, 126.401 189.938, 125.713 " />
            <path fill="none" stroke-width="3.0" stroke-linecap="butt" stroke-opacity="1.0" stroke="rgb(0, 0, 0)" stroke-linejoin="round" d=" M 47.517, 123.631 46.972, 123.987 43.264, 126.819 39.816, 130.224 36.319, 134.072 33.030, 138.483 31.238, 142.091 30.073, 145.540 29.478, 147.389 28.979, 150.512 29.100, 153.180 29.156, 154.284 29.467, 155.826 29.941, 157.588 31.042, 160.395 32.867, 163.394 35.128, 165.808 37.519, 167.645 39.095, 168.606 39.621, 168.910 41.591, 169.759 43.235, 170.201 45.992, 170.915 49.305, 171.019 51.367, 170.703 " />
            <path fill="none" stroke-width="3.0" stroke-linecap="butt" stroke-opacity="1.0" stroke="rgb(0, 0, 0)" stroke-linejoin="round" d=" M 116.273, 70.266 119.182, 68.031 119.523, 67.769 119.679, 67.451 119.716, 67.375 121.375, 63.990 122.361, 61.404 122.342, 57.720 121.325, 55.044 119.420, 51.339 117.653, 50.051 " />
            <path fill="none" stroke-width="3.0" stroke-linecap="butt" stroke-opacity="1.0" stroke="rgb(0, 0, 0)" stroke-linejoin="round" d=" M 56.089, 53.528 55.993, 53.797 54.474, 58.090 52.834, 64.176 52.264, 72.021 52.555, 73.292 54.206, 78.573 56.696, 79.829 60.063, 80.606 61.726, 80.989 61.842, 81.016 65.728, 81.480 71.739, 80.418 77.305, 78.994 82.774, 76.809 82.841, 76.782 " />
            <path fill="none" stroke-width="3.0" stroke-linecap="butt" stroke-opacity="1.0" stroke="rgb(0, 0, 0)" stroke-linejoin="round" d=" M 33.802, 110.338 31.597, 105.762 32.778, 104.600 37.479, 99.973 41.902, 98.828 49.896, 96.758 53.175, 95.910 56.649, 95.781 59.028, 95.693 61.494, 95.602 71.487, 95.233 73.783, 95.148 75.866, 95.071 75.870, 95.071 79.966, 94.919 89.937, 95.691 99.907, 96.462 107.733, 97.068 113.694, 97.530 116.232, 97.973 116.280, 97.982 126.131, 99.704 135.982, 101.426 145.832, 103.147 147.696, 103.473 157.355, 106.062 167.014, 108.651 176.673, 111.240 177.117, 111.359 178.203, 111.810 178.733, 112.031 183.096, 113.846 " />
            <path fill="none" stroke-width="3.0" stroke-linecap="butt" stroke-opacity="1.0" stroke="rgb(0, 0, 0)" stroke-linejoin="round" d=" M 205.869, 136.241 206.699, 135.749 206.332, 129.327 200.055, 124.493 197.941, 122.866 " />
            <path fill="none" stroke-width="3.0" stroke-linecap="butt" stroke-opacity="1.0" stroke="rgb(0, 0, 0)" stroke-linejoin="round" d=" M 44.968, 101.113 54.726, 98.926 58.434, 98.095 " />
            <path fill="none" stroke-width="3.0" stroke-linecap="butt" stroke-opacity="1.0" stroke="rgb(0, 0, 0)" stroke-linejoin="round" d=" M 38.850, 115.253 47.133, 120.691 48.280, 121.163 " />
            <path fill="none" stroke-width="3.0" stroke-linecap="butt" stroke-opacity="1.0" stroke="rgb(0, 0, 0)" stroke-linejoin="round" d=" M 55.973, 98.174 46.218, 100.376 45.659, 100.503 41.088, 101.535 39.807, 101.824 33.798, 107.400 34.548, 109.002 " />
            <path fill="none" stroke-width="3.0" stroke-linecap="butt" stroke-opacity="1.0" stroke="rgb(0, 0, 0)" stroke-linejoin="round" d=" M 55.973, 98.174 58.434, 98.095 59.315, 98.066 59.540, 98.059 61.169, 98.006 70.671, 97.700 76.379, 97.516 77.840, 97.469 79.103, 97.428 81.513, 97.351 91.482, 98.131 101.452, 98.911 105.449, 99.224 110.310, 99.604 113.448, 99.850 117.429, 100.517 117.961, 100.606 127.823, 102.258 137.686, 103.911 137.888, 103.945 146.766, 105.432 156.432, 107.993 166.099, 110.554 175.726, 113.104 179.337, 114.587 184.526, 116.717 " />
            <path fill="none" stroke-width="3.0" stroke-linecap="butt" stroke-opacity="1.0" stroke="rgb(0, 0, 0)" stroke-linejoin="round" d=" M 41.007, 92.339 36.203, 96.273 33.035, 99.500 31.222, 102.363 30.052, 105.412 30.045, 107.886 30.509, 110.064 34.838, 114.242 37.518, 115.718 38.850, 115.253 38.866, 115.248 40.780, 114.579 42.022, 113.732 43.637, 112.630 45.223, 107.544 " />
            <path fill="none" stroke-width="3.0" stroke-linecap="butt" stroke-opacity="1.0" stroke="rgb(0, 0, 0)" stroke-linejoin="round" d=" M 33.241, 111.657 30.509, 110.064 " />
            <path fill="none" stroke-width="3.0" stroke-linecap="butt" stroke-opacity="1.0" stroke="rgb(0, 0, 0)" stroke-linejoin="round" d=" M 43.637, 112.630 39.907, 110.233 " />
            <path fill="none" stroke-width="3.0" stroke-linecap="butt" stroke-opacity="1.0" stroke="rgb(0, 0, 0)" stroke-linejoin="round" d=" M 40.778, 107.920 39.907, 110.233 36.484, 111.196 " />
            <path fill="none" stroke-width="3.0" stroke-linecap="butt" stroke-opacity="1.0" stroke="rgb(0, 0, 0)" stroke-linejoin="round" d=" M 57.450, 82.758 50.496, 86.088 42.145, 91.589 41.007, 92.339 47.267, 88.258 48.661, 87.505 57.450, 82.758 59.113, 82.070 61.726, 80.989 " />
            <path fill="none" stroke-width="3.0" stroke-linecap="butt" stroke-opacity="1.0" stroke="rgb(0, 0, 0)" stroke-linejoin="round" d=" M 47.267, 88.258 49.766, 87.235 49.828, 87.210 53.083, 85.877 55.738, 84.790 57.737, 84.190 67.366, 81.297 77.315, 80.281 78.660, 80.143 80.461, 79.959 81.807, 79.923 87.695, 79.767 89.106, 79.828 89.680, 79.853 " />
            <path fill="none" stroke-width="3.0" stroke-linecap="butt" stroke-opacity="1.0" stroke="rgb(0, 0, 0)" stroke-linejoin="round" d=" M 179.337, 114.587 180.024, 116.267 182.668, 117.513 183.042, 117.689 183.951, 118.075 188.624, 120.061 196.889, 123.573 197.009, 123.492 197.941, 122.866 198.717, 122.345 199.093, 122.091 199.345, 120.995 199.929, 118.455 197.025, 113.890 192.330, 109.344 190.529, 107.600 183.190, 102.306 182.971, 102.148 178.853, 99.087 177.491, 98.074 176.754, 97.526 171.911, 94.664 168.218, 92.481 161.282, 89.577 157.984, 88.197 157.037, 87.800 147.492, 84.817 144.326, 83.828 134.713, 81.075 131.532, 80.164 121.674, 78.485 118.674, 77.974 109.264, 76.442 107.483, 76.152 " />
            <path fill="none" stroke-width="3.0" stroke-linecap="butt" stroke-opacity="1.0" stroke="rgb(0, 0, 0)" stroke-linejoin="round" d=" M 102.689, 80.862 107.739, 81.383 111.450, 81.765 112.466, 82.014 122.179, 84.393 128.100, 85.844 137.704, 88.629 142.382, 89.986 142.502, 90.021 151.828, 93.629 155.341, 94.988 164.498, 99.005 166.491, 99.879 174.860, 103.952 181.313, 107.565 184.796, 110.180 186.386, 111.373 187.480, 113.103 187.857, 113.700 188.273, 114.358 188.502, 115.958 188.639, 116.916 187.650, 117.547 187.218, 117.822 186.104, 118.533 " />
            <path fill="none" stroke-width="3.0" stroke-linecap="butt" stroke-opacity="1.0" stroke="rgb(0, 0, 0)" stroke-linejoin="round" d=" M 99.119, 77.484 100.247, 75.869 102.915, 72.053 103.608, 69.675 103.956, 68.484 104.299, 67.305 104.537, 66.489 104.974, 64.994 105.252, 64.039 105.334, 63.758 105.871, 57.340 105.857, 55.288 105.851, 54.280 105.841, 52.839 105.840, 52.556 " />
            <path fill="none" stroke-width="3.0" stroke-linecap="butt" stroke-opacity="1.0" stroke="rgb(0, 0, 0)" stroke-linejoin="round" d=" M 76.872, 72.225 80.421, 74.554 83.074, 75.844 83.401, 76.003 84.467, 76.521 85.575, 77.060 93.094, 78.629 99.119, 77.484 99.282, 77.681 100.323, 78.932 101.987, 80.243 102.453, 80.393 103.440, 80.712 " />
            <path fill="none" stroke-width="3.0" stroke-linecap="butt" stroke-opacity="1.0" stroke="rgb(0, 0, 0)" stroke-linejoin="round" d=" M 54.206, 78.573 53.885, 77.200 " />
            <path fill="none" stroke-width="3.0" stroke-linecap="butt" stroke-opacity="1.0" stroke="rgb(0, 0, 0)" stroke-linejoin="round" d=" M 79.895, 75.073 77.629, 73.537 76.872, 72.225 72.526, 74.528 66.648, 76.948 61.857, 77.843 59.021, 78.372 53.885, 77.200 52.264, 72.021 " />
            <path fill="none" stroke-width="3.0" stroke-linecap="butt" stroke-opacity="1.0" stroke="rgb(0, 0, 0)" stroke-linejoin="round" d=" M 110.672, 59.979 110.896, 59.664 110.941, 59.601 111.186, 59.257 114.189, 55.038 114.488, 54.608 117.653, 50.051 118.868, 48.302 122.537, 42.646 122.815, 41.627 124.080, 36.987 124.131, 33.815 122.947, 31.555 119.467, 27.289 114.191, 24.842 111.257, 23.723 105.518, 22.607 103.083, 22.343 101.132, 22.131 " />
            <path fill="none" stroke-width="3.0" stroke-linecap="butt" stroke-opacity="1.0" stroke="rgb(0, 0, 0)" stroke-linejoin="round" d=" M 55.993, 53.797 53.311, 49.973 50.318, 44.901 48.895, 39.486 49.366, 33.969 53.720, 29.749 60.760, 26.202 66.453, 24.582 70.767, 23.688 73.359, 19.686 77.249, 14.491 83.329, 8.697 88.739, 5.999 93.353, 8.030 97.623, 13.254 99.843, 18.218 101.132, 22.131 " />
            <path fill="none" stroke-width="3.0" stroke-linecap="butt" stroke-opacity="1.0" stroke="rgb(0, 0, 0)" stroke-linejoin="round" d=" M 108.973, 55.653 107.647, 54.091 107.178, 53.539 105.932, 52.623 105.840, 52.556 106.030, 52.391 106.783, 51.738 110.368, 48.632 110.920, 48.061 115.821, 42.993 116.455, 42.004 119.660, 36.999 121.336, 31.005 117.931, 26.821 111.257, 23.723 " />
            <path fill="none" stroke-width="3.0" stroke-linecap="butt" stroke-opacity="1.0" stroke="rgb(0, 0, 0)" stroke-linejoin="round" d=" M 103.083, 22.343 102.172, 20.010 99.688, 15.177 98.264, 12.880 94.382, 8.140 89.678, 6.071 88.739, 5.999 " />
            <path fill="none" stroke-width="3.0" stroke-linecap="butt" stroke-opacity="1.0" stroke="rgb(0, 0, 0)" stroke-linejoin="round" d=" M 53.311, 49.973 56.089, 53.528 " />
            <path fill="none" stroke-width="3.0" stroke-linecap="butt" stroke-opacity="1.0" stroke="rgb(0, 0, 0)" stroke-linejoin="round" d=" M 191.356, 104.519 188.455, 94.949 186.367, 88.056 185.362, 86.986 184.154, 82.642 179.306, 73.896 178.044, 71.620 171.513, 64.048 170.400, 62.757 164.721, 57.249 156.759, 51.197 156.408, 50.930 149.188, 47.072 142.925, 44.919 138.119, 43.350 137.106, 43.020 130.658, 41.868 126.636, 41.696 124.302, 41.596 122.815, 41.627 " />
            <path fill="none" stroke-width="3.0" stroke-linecap="butt" stroke-opacity="1.0" stroke="rgb(0, 0, 0)" stroke-linejoin="round" d=" M 79.895, 75.073 81.792, 76.174 82.791, 76.753 82.841, 76.782 83.464, 77.144 84.590, 77.797 84.770, 77.901 87.889, 79.141 89.547, 79.800 89.680, 79.853 90.348, 80.118 90.793, 80.295 92.243, 80.615 93.976, 80.990 97.849, 81.827 100.841, 81.231 102.689, 80.862 103.440, 80.712 103.606, 80.474 104.337, 79.429 106.651, 76.119 107.037, 75.566 107.382, 75.074 108.675, 71.229 108.825, 70.782 109.204, 68.793 109.479, 67.354 109.588, 66.784 110.243, 63.347 110.672, 59.979 110.745, 59.408 110.774, 59.178 110.849, 58.590 110.893, 58.245 " />
            <path fill="none" stroke-width="3.0" stroke-linecap="butt" stroke-opacity="1.0" stroke="rgb(0, 0, 0)" stroke-linejoin="round" d=" M 186.613, 101.502 183.083, 98.533 174.786, 94.773 166.807, 91.156 161.282, 89.577 " />
            <path fill="none" stroke-width="3.0" stroke-linecap="butt" stroke-opacity="1.0" stroke="rgb(0, 0, 0)" stroke-linejoin="round" d=" M 121.271, 67.466 119.716, 67.375 " />
            <path fill="none" stroke-width="3.0" stroke-linecap="butt" stroke-opacity="1.0" stroke="rgb(0, 0, 0)" stroke-linejoin="round" d=" M 121.271, 67.466 131.149, 69.022 141.027, 70.578 145.040, 71.211 " />
            <path fill="none" stroke-width="3.0" stroke-linecap="butt" stroke-opacity="1.0" stroke="rgb(0, 0, 0)" stroke-linejoin="round" d=" M 138.119, 43.350 137.568, 42.607 134.231, 41.214 130.174, 40.764 127.006, 41.433 126.636, 41.696 " />
            <path fill="none" stroke-width="3.0" stroke-linecap="butt" stroke-opacity="1.0" stroke="rgb(0, 0, 0)" stroke-linejoin="round" d=" M 206.291, 136.660 208.949, 135.099 209.815, 131.392 209.658, 124.477 205.829, 118.983 200.052, 111.884 192.421, 105.422 191.356, 104.519 190.503, 103.797 186.613, 101.502 185.072, 100.592 176.326, 96.653 171.911, 94.664 " />
            <path fill="none" stroke-width="3.0" stroke-linecap="butt" stroke-opacity="1.0" stroke="rgb(0, 0, 0)" stroke-linejoin="round" d=" M 199.345, 120.995 207.201, 127.183 208.729, 128.387 208.949, 135.099 " />
            <path fill="none" stroke-width="3.0" stroke-linecap="butt" stroke-opacity="1.0" stroke="rgb(0, 0, 0)" stroke-linejoin="round" d=" M 44.468, 91.254 43.561, 91.938 38.097, 96.000 32.034, 102.108 31.597, 105.762 " />
            <path fill="none" stroke-width="3.0" stroke-linecap="butt" stroke-opacity="1.0" stroke="rgb(0, 0, 0)" stroke-linejoin="round" d=" M 209.658, 124.477 201.917, 118.147 199.391, 116.082 " />
            <path fill="none" stroke-width="3.0" stroke-linecap="butt" stroke-opacity="1.0" stroke="rgb(0, 0, 0)" stroke-linejoin="round" d=" M 60.063, 80.606 59.113, 82.070 " />
            <path fill="none" stroke-width="3.0" stroke-linecap="butt" stroke-opacity="1.0" stroke="rgb(0, 0, 0)" stroke-linejoin="round" d=" M 107.262, 76.143 107.469, 75.449 108.725, 71.227 " />
            <path fill="none" stroke-width="3.0" stroke-linecap="butt" stroke-opacity="1.0" stroke="rgb(0, 0, 0)" stroke-linejoin="round" d=" M 108.675, 71.229 108.725, 71.227 110.893, 71.169 " />
            <path fill="none" stroke-width="3.0" stroke-linecap="butt" stroke-opacity="1.0" stroke="rgb(0, 0, 0)" stroke-linejoin="round" d=" M 197.009, 123.492 201.617, 127.003 " />
        </g>
    </g>
</svg>
