<?xml version='1.0' encoding='ascii'?>
<svg xmlns="http://www.w3.org/2000/svg" version="1.1" width="250" height="250">
    <g id="ViewLayer_LineSet" xmlns:inkscape="http://www.inkscape.org/namespaces/inkscape" inkscape:groupmode="lineset" inkscape:label="ViewLayer_LineSet">
        <g xmlns:inkscape="http://www.inkscape.org/namespaces/inkscape" inkscape:groupmode="layer" id="strokes" inkscape:label="strokes">
            <path fill="none" stroke-width="3.0" stroke-linecap="butt" stroke-opacity="1.0" stroke="rgb(0, 0, 0)" stroke-linejoin="round" d=" M 59.852, 95.111 59.341, 95.754 57.965, 97.485 53.727, 104.614 49.915, 113.300 49.221, 115.545 48.288, 118.561 48.190, 118.880 47.245, 121.935 47.234, 121.989 45.991, 128.060 45.446, 134.409 45.221, 138.962 45.450, 144.579 45.930, 149.119 46.791, 153.714 47.639, 157.692 48.926, 162.015 50.592, 166.492 51.228, 167.926 52.562, 170.929 54.752, 175.136 57.069, 178.926 59.412, 182.125 62.347, 186.064 65.334, 189.308 65.728, 189.703 69.450, 193.431 73.964, 196.921 78.080, 200.092 84.050, 203.680 " />
            <path fill="none" stroke-width="3.0" stroke-linecap="butt" stroke-opacity="1.0" stroke="rgb(0, 0, 0)" stroke-linejoin="round" d=" M 190.082, 123.501 188.932, 118.120 188.547, 117.124 " />
            <path fill="none" stroke-width="3.0" stroke-linecap="butt" stroke-opacity="1.0" stroke="rgb(0, 0, 0)" stroke-linejoin="round" d=" M 175.162, 185.351 176.503, 183.477 180.593, 177.463 " />
            <path fill="none" stroke-width="3.0" stroke-linecap="butt" stroke-opacity="1.0" stroke="rgb(0, 0, 0)" stroke-linejoin="round" d=" M 93.603, 207.925 98.516, 209.304 105.050, 210.934 108.296, 211.531 " />
            <path fill="none" stroke-width="3.0" stroke-linecap="butt" stroke-opacity="1.0" stroke="rgb(0, 0, 0)" stroke-linejoin="round" d=" M 77.110, 146.880 77.665, 148.279 79.030, 150.346 80.254, 151.414 80.926, 152.000 83.123, 153.222 85.167, 153.659 87.263, 153.581 89.640, 152.746 91.691, 151.409 93.242, 149.555 93.958, 148.235 " />
            <path fill="none" stroke-width="3.0" stroke-linecap="butt" stroke-opacity="1.0" stroke="rgb(0, 0, 0)" stroke-linejoin="round" d=" M 117.415, 97.411 118.064, 99.583 118.064, 99.584 118.516, 102.965 118.557, 106.781 118.573, 106.851 117.453, 115.252 117.130, 116.361 117.091, 116.494 116.226, 119.457 114.720, 123.742 112.963, 127.738 111.020, 131.250 108.958, 134.105 107.333, 135.687 106.960, 136.050 106.848, 136.160 104.760, 137.310 102.769, 137.497 101.430, 136.917 100.947, 136.708 99.368, 134.975 99.170, 134.569 98.924, 134.066 98.101, 132.379 97.206, 129.041 96.733, 125.122 96.711, 120.812 97.147, 116.316 97.893, 112.488 97.927, 112.311 98.005, 111.911 99.209, 107.756 100.731, 103.859 102.512, 100.364 104.481, 97.393 105.589, 96.147 " />
            <path fill="none" stroke-width="3.0" stroke-linecap="butt" stroke-opacity="1.0" stroke="rgb(0, 0, 0)" stroke-linejoin="round" d=" M 77.311, 115.304 76.661, 118.153 76.332, 119.593 75.248, 123.701 74.071, 127.427 73.893, 127.873 73.735, 128.266 72.808, 130.585 71.467, 133.014 70.063, 134.595 68.870, 135.140 68.622, 135.252 67.210, 135.257 65.833, 133.730 64.624, 131.637 63.648, 128.787 62.985, 125.327 62.963, 125.022 62.930, 124.563 62.702, 121.429 62.840, 117.282 63.106, 115.312 63.399, 113.144 64.266, 109.154 65.386, 105.317 66.711, 101.769 67.008, 101.139 67.263, 100.599 68.190, 98.632 69.764, 96.014 70.811, 94.704 " />
            <path fill="none" stroke-width="3.0" stroke-linecap="butt" stroke-opacity="1.0" stroke="rgb(0, 0, 0)" stroke-linejoin="round" d=" M 67.210, 135.257 70.418, 136.697 " />
            <path fill="none" stroke-width="3.0" stroke-linecap="butt" stroke-opacity="1.0" stroke="rgb(0, 0, 0)" stroke-linejoin="round" d=" M 77.745, 94.447 77.875, 94.675 78.529, 96.966 78.889, 99.864 78.998, 103.339 78.758, 106.238 78.732, 106.555 78.689, 107.068 " />
            <path fill="none" stroke-width="3.0" stroke-linecap="butt" stroke-opacity="1.0" stroke="rgb(0, 0, 0)" stroke-linejoin="round" d=" M 80.421, 117.310 77.311, 115.304 78.136, 111.109 78.689, 107.068 81.759, 109.166 " />
            <path fill="none" stroke-width="3.0" stroke-linecap="butt" stroke-opacity="1.0" stroke="rgb(0, 0, 0)" stroke-linejoin="round" d=" M 137.121, 244.967 144.471, 244.594 151.738, 243.247 158.034, 241.947 161.783, 240.213 168.723, 232.903 174.249, 224.569 174.679, 223.919 178.545, 215.367 179.931, 212.318 180.365, 209.115 181.399, 201.954 181.024, 198.354 179.383, 193.033 178.130, 189.184 175.503, 185.749 175.162, 185.351 " />
            <path fill="none" stroke-width="3.0" stroke-linecap="butt" stroke-opacity="1.0" stroke="rgb(0, 0, 0)" stroke-linejoin="round" d=" M 108.969, 209.271 108.296, 211.531 106.848, 216.395 105.862, 220.387 105.714, 222.856 105.638, 224.136 105.970, 227.541 106.475, 230.517 107.433, 233.921 109.489, 237.142 112.595, 240.252 117.010, 242.716 122.714, 244.240 128.094, 245.070 134.343, 245.179 137.121, 244.967 142.595, 244.549 " />
            <path fill="none" stroke-width="3.0" stroke-linecap="butt" stroke-opacity="1.0" stroke="rgb(0, 0, 0)" stroke-linejoin="round" d=" M 65.728, 189.703 63.432, 193.100 61.577, 197.276 59.058, 202.877 58.160, 206.594 57.691, 210.820 57.407, 214.329 57.846, 217.369 59.470, 221.692 60.612, 224.697 63.951, 228.020 68.338, 230.679 70.863, 231.787 75.165, 233.044 79.829, 233.304 85.993, 232.750 92.190, 230.899 98.924, 227.795 101.678, 226.089 103.983, 224.521 105.714, 222.856 " />
            <path fill="none" stroke-width="3.0" stroke-linecap="butt" stroke-opacity="1.0" stroke="rgb(0, 0, 0)" stroke-linejoin="round" d=" M 191.254, 124.063 190.106, 123.614 185.233, 121.706 " />
            <path fill="none" stroke-width="3.0" stroke-linecap="butt" stroke-opacity="1.0" stroke="rgb(0, 0, 0)" stroke-linejoin="round" d=" M 178.112, 176.052 180.593, 177.463 184.141, 179.481 188.966, 181.283 193.512, 182.378 198.092, 182.753 201.983, 182.342 205.523, 181.426 208.707, 179.967 211.596, 178.008 212.422, 177.406 214.963, 175.043 217.043, 172.167 218.637, 169.059 219.690, 165.615 219.828, 164.811 220.217, 161.214 220.036, 157.349 218.957, 152.942 217.169, 148.672 214.631, 144.235 210.281, 138.865 206.017, 134.453 205.817, 134.246 205.570, 134.014 201.509, 130.207 196.995, 126.880 192.090, 124.244 190.082, 123.501 " />
            <path fill="none" stroke-width="3.0" stroke-linecap="butt" stroke-opacity="1.0" stroke="rgb(0, 0, 0)" stroke-linejoin="round" d=" M 47.234, 121.989 44.626, 124.068 41.416, 127.407 38.178, 131.177 35.163, 135.499 33.845, 137.753 32.334, 141.097 31.437, 144.222 30.940, 148.826 31.179, 151.026 31.489, 152.965 32.482, 156.093 32.985, 157.098 34.656, 160.094 36.775, 162.528 39.046, 164.397 40.552, 165.384 42.967, 166.584 47.421, 167.845 50.441, 168.019 51.228, 167.926 " />
            <path fill="none" stroke-width="3.0" stroke-linecap="butt" stroke-opacity="1.0" stroke="rgb(0, 0, 0)" stroke-linejoin="round" d=" M 118.685, 65.537 119.554, 64.864 119.701, 64.562 119.739, 64.484 121.408, 61.060 122.394, 58.487 122.375, 54.797 121.358, 52.098 119.451, 48.405 117.596, 47.061 " />
            <path fill="none" stroke-width="3.0" stroke-linecap="butt" stroke-opacity="1.0" stroke="rgb(0, 0, 0)" stroke-linejoin="round" d=" M 56.073, 50.479 55.974, 50.758 54.456, 55.038 52.815, 61.120 52.245, 68.954 52.536, 70.239 54.189, 75.506 56.681, 76.792 60.353, 77.625 61.831, 77.961 62.302, 78.022 65.719, 78.463 71.735, 77.387 77.305, 75.955 82.848, 73.730 82.911, 73.704 " />
            <path fill="none" stroke-width="3.0" stroke-linecap="butt" stroke-opacity="1.0" stroke="rgb(0, 0, 0)" stroke-linejoin="round" d=" M 33.781, 107.887 31.567, 103.181 32.749, 101.982 37.451, 97.210 42.096, 95.956 50.186, 93.774 53.157, 92.973 56.016, 92.853 58.909, 92.732 61.841, 92.609 71.832, 92.191 74.359, 92.085 74.675, 92.071 79.969, 91.850 89.940, 92.603 99.912, 93.356 107.965, 93.965 113.723, 94.400 116.154, 94.826 116.177, 94.830 126.026, 96.559 135.876, 98.288 145.725, 100.018 147.752, 100.373 157.403, 102.991 167.054, 105.610 176.705, 108.228 177.194, 108.360 178.226, 108.797 178.349, 108.849 183.164, 110.887 " />
            <path fill="none" stroke-width="3.0" stroke-linecap="butt" stroke-opacity="1.0" stroke="rgb(0, 0, 0)" stroke-linejoin="round" d=" M 205.570, 134.014 206.782, 133.272 206.420, 126.675 199.975, 121.603 198.010, 120.055 " />
            <path fill="none" stroke-width="3.0" stroke-linecap="butt" stroke-opacity="1.0" stroke="rgb(0, 0, 0)" stroke-linejoin="round" d=" M 44.946, 98.381 54.683, 96.103 58.671, 95.169 58.747, 95.152 " />
            <path fill="none" stroke-width="3.0" stroke-linecap="butt" stroke-opacity="1.0" stroke="rgb(0, 0, 0)" stroke-linejoin="round" d=" M 38.801, 112.868 45.636, 117.448 47.116, 118.430 48.190, 118.880 " />
            <path fill="none" stroke-width="3.0" stroke-linecap="butt" stroke-opacity="1.0" stroke="rgb(0, 0, 0)" stroke-linejoin="round" d=" M 55.957, 95.255 46.224, 97.551 45.768, 97.659 41.084, 98.764 39.781, 99.071 33.770, 104.825 34.536, 106.502 " />
            <path fill="none" stroke-width="3.0" stroke-linecap="butt" stroke-opacity="1.0" stroke="rgb(0, 0, 0)" stroke-linejoin="round" d=" M 55.957, 95.255 58.655, 95.155 58.747, 95.152 59.852, 95.111 60.531, 95.086 70.524, 94.715 70.811, 94.704 77.007, 94.475 77.745, 94.447 78.757, 94.410 78.815, 94.408 81.516, 94.307 91.487, 95.069 101.458, 95.831 105.589, 96.147 110.579, 96.528 113.477, 96.749 117.415, 97.411 117.813, 97.478 117.859, 97.486 127.721, 99.144 137.582, 100.802 146.820, 102.355 146.934, 102.385 156.593, 104.975 166.252, 107.565 175.800, 110.125 179.380, 111.620 185.021, 113.977 " />
            <path fill="none" stroke-width="3.0" stroke-linecap="butt" stroke-opacity="1.0" stroke="rgb(0, 0, 0)" stroke-linejoin="round" d=" M 57.437, 80.068 49.191, 84.462 47.772, 85.219 47.246, 85.499 40.983, 89.643 36.176, 93.633 33.006, 96.903 31.193, 99.803 30.022, 102.883 30.015, 105.373 30.479, 107.561 34.812, 111.843 37.494, 113.324 38.801, 112.868 38.811, 112.865 40.758, 112.186 41.938, 111.380 43.617, 110.234 45.204, 105.132 " />
            <path fill="none" stroke-width="3.0" stroke-linecap="butt" stroke-opacity="1.0" stroke="rgb(0, 0, 0)" stroke-linejoin="round" d=" M 33.213, 109.156 30.479, 107.561 " />
            <path fill="none" stroke-width="3.0" stroke-linecap="butt" stroke-opacity="1.0" stroke="rgb(0, 0, 0)" stroke-linejoin="round" d=" M 43.617, 110.234 39.883, 107.732 " />
            <path fill="none" stroke-width="3.0" stroke-linecap="butt" stroke-opacity="1.0" stroke="rgb(0, 0, 0)" stroke-linejoin="round" d=" M 40.718, 105.512 39.883, 107.732 36.459, 108.695 " />
            <path fill="none" stroke-width="3.0" stroke-linecap="butt" stroke-opacity="1.0" stroke="rgb(0, 0, 0)" stroke-linejoin="round" d=" M 62.302, 78.022 59.265, 79.299 57.437, 80.068 50.479, 83.455 47.772, 85.219 " />
            <path fill="none" stroke-width="3.0" stroke-linecap="butt" stroke-opacity="1.0" stroke="rgb(0, 0, 0)" stroke-linejoin="round" d=" M 47.246, 85.499 47.512, 85.389 49.992, 84.355 50.264, 84.242 52.585, 83.275 55.723, 81.967 57.979, 81.276 67.359, 78.404 77.303, 77.341 79.391, 77.118 80.463, 77.003 81.841, 76.962 87.703, 76.786 89.832, 76.872 90.140, 76.885 " />
            <path fill="none" stroke-width="3.0" stroke-linecap="butt" stroke-opacity="1.0" stroke="rgb(0, 0, 0)" stroke-linejoin="round" d=" M 179.380, 111.620 180.100, 113.381 183.121, 114.783 183.509, 114.951 184.838, 115.524 188.547, 117.124 196.976, 120.759 197.026, 120.725 198.010, 120.055 198.711, 119.578 199.182, 119.257 199.430, 118.172 200.018, 115.607 197.113, 111.026 192.334, 106.394 190.612, 104.725 183.049, 99.255 180.684, 97.493 179.571, 96.663 176.827, 94.619 176.826, 94.618 172.587, 92.105 168.286, 89.555 161.934, 86.890 157.096, 84.860 156.539, 84.686 146.995, 81.702 144.376, 80.884 134.762, 78.133 131.573, 77.221 121.714, 75.550 118.704, 75.040 109.297, 73.522 107.505, 73.232 " />
            <path fill="none" stroke-width="3.0" stroke-linecap="butt" stroke-opacity="1.0" stroke="rgb(0, 0, 0)" stroke-linejoin="round" d=" M 102.310, 77.807 107.795, 78.362 111.476, 78.735 113.291, 79.178 123.006, 81.547 128.139, 82.798 137.744, 85.581 142.552, 86.974 143.111, 87.191 152.436, 90.803 155.401, 91.951 164.555, 95.977 166.559, 96.858 174.935, 100.946 181.392, 104.579 184.595, 106.993 186.468, 108.405 187.677, 110.324 188.149, 111.074 188.357, 111.404 188.658, 113.520 188.723, 113.973 187.606, 114.694 187.264, 114.914 186.185, 115.609 " />
            <path fill="none" stroke-width="3.0" stroke-linecap="butt" stroke-opacity="1.0" stroke="rgb(0, 0, 0)" stroke-linejoin="round" d=" M 99.137, 74.251 100.039, 72.960 102.936, 68.815 103.411, 67.190 103.879, 65.585 104.208, 64.462 104.454, 63.619 104.892, 62.118 105.271, 60.821 105.357, 60.526 105.894, 54.116 105.883, 52.465 105.876, 51.348 105.866, 49.836 105.863, 49.340 " />
            <path fill="none" stroke-width="3.0" stroke-linecap="butt" stroke-opacity="1.0" stroke="rgb(0, 0, 0)" stroke-linejoin="round" d=" M 76.872, 69.075 80.424, 71.388 83.167, 72.709 84.047, 73.133 85.149, 73.664 85.582, 73.873 93.108, 75.414 99.137, 74.251 99.784, 75.035 100.342, 75.710 102.007, 77.056 103.288, 77.512 103.461, 77.574 " />
            <path fill="none" stroke-width="3.0" stroke-linecap="butt" stroke-opacity="1.0" stroke="rgb(0, 0, 0)" stroke-linejoin="round" d=" M 54.189, 75.506 53.867, 74.119 " />
            <path fill="none" stroke-width="3.0" stroke-linecap="butt" stroke-opacity="1.0" stroke="rgb(0, 0, 0)" stroke-linejoin="round" d=" M 79.897, 71.972 77.629, 70.400 76.872, 69.075 72.522, 71.389 66.640, 73.824 62.289, 74.649 59.007, 75.272 53.867, 74.119 52.245, 68.954 " />
            <path fill="none" stroke-width="3.0" stroke-linecap="butt" stroke-opacity="1.0" stroke="rgb(0, 0, 0)" stroke-linejoin="round" d=" M 110.690, 56.930 110.865, 56.684 110.884, 56.658 111.145, 56.291 114.218, 51.968 114.461, 51.615 117.596, 47.061 118.901, 45.166 122.573, 39.502 122.681, 39.106 124.117, 33.847 124.168, 30.629 122.984, 28.334 119.501, 24.087 114.221, 21.662 111.284, 20.536 105.540, 19.442 103.077, 19.184 101.151, 18.982 " />
            <path fill="none" stroke-width="3.0" stroke-linecap="butt" stroke-opacity="1.0" stroke="rgb(0, 0, 0)" stroke-linejoin="round" d=" M 53.293, 46.939 52.551, 45.688 50.298, 41.886 48.874, 36.485 49.345, 30.975 53.702, 26.748 60.747, 23.183 66.445, 21.546 70.762, 20.639 73.356, 16.635 77.249, 11.436 83.334, 5.631 88.748, 2.919 93.365, 4.931 97.639, 10.132 99.861, 15.080 101.151, 18.982 " />
            <path fill="none" stroke-width="3.0" stroke-linecap="butt" stroke-opacity="1.0" stroke="rgb(0, 0, 0)" stroke-linejoin="round" d=" M 108.998, 52.490 107.454, 50.638 107.203, 50.336 106.025, 49.460 105.863, 49.340 106.198, 49.049 106.636, 48.669 110.395, 45.407 110.684, 45.108 115.853, 39.759 116.025, 39.491 119.695, 33.762 121.372, 27.772 117.964, 23.607 111.284, 20.536 " />
            <path fill="none" stroke-width="3.0" stroke-linecap="butt" stroke-opacity="1.0" stroke="rgb(0, 0, 0)" stroke-linejoin="round" d=" M 52.551, 45.688 52.578, 45.743 53.293, 46.939 55.974, 50.758 " />
            <path fill="none" stroke-width="3.0" stroke-linecap="butt" stroke-opacity="1.0" stroke="rgb(0, 0, 0)" stroke-linejoin="round" d=" M 103.077, 19.184 102.191, 16.923 99.706, 12.103 98.281, 9.773 94.396, 5.055 89.688, 3.006 88.748, 2.919 " />
            <path fill="none" stroke-width="3.0" stroke-linecap="butt" stroke-opacity="1.0" stroke="rgb(0, 0, 0)" stroke-linejoin="round" d=" M 53.293, 46.939 56.073, 50.479 " />
            <path fill="none" stroke-width="3.0" stroke-linecap="butt" stroke-opacity="1.0" stroke="rgb(0, 0, 0)" stroke-linejoin="round" d=" M 191.358, 101.690 188.451, 92.122 186.438, 85.497 185.432, 84.430 184.223, 80.094 179.363, 71.354 178.108, 69.099 171.562, 61.539 170.459, 60.264 164.777, 54.680 156.789, 48.664 156.458, 48.414 149.234, 44.513 142.966, 42.429 138.049, 40.812 137.144, 40.514 130.691, 39.358 126.804, 39.198 124.332, 39.095 122.681, 39.106 " />
            <path fill="none" stroke-width="3.0" stroke-linecap="butt" stroke-opacity="1.0" stroke="rgb(0, 0, 0)" stroke-linejoin="round" d=" M 79.897, 71.972 82.147, 73.265 82.865, 73.678 82.911, 73.704 83.921, 74.286 84.677, 74.720 84.776, 74.777 88.507, 76.243 90.068, 76.856 90.140, 76.885 90.804, 77.145 91.377, 77.292 92.255, 77.517 94.911, 78.080 97.865, 78.707 99.887, 78.297 102.310, 77.807 103.461, 77.574 103.494, 77.526 104.202, 76.515 106.499, 73.232 106.523, 73.197 107.406, 71.935 108.628, 68.308 108.850, 67.649 109.120, 66.240 109.453, 64.496 109.565, 63.908 110.269, 60.227 110.690, 56.930 110.737, 56.560 110.778, 56.240 110.848, 55.697 110.920, 55.132 " />
            <path fill="none" stroke-width="3.0" stroke-linecap="butt" stroke-opacity="1.0" stroke="rgb(0, 0, 0)" stroke-linejoin="round" d=" M 186.385, 98.570 183.156, 95.806 174.559, 91.852 166.872, 88.316 161.934, 86.890 " />
            <path fill="none" stroke-width="3.0" stroke-linecap="butt" stroke-opacity="1.0" stroke="rgb(0, 0, 0)" stroke-linejoin="round" d=" M 121.303, 64.573 119.739, 64.484 " />
            <path fill="none" stroke-width="3.0" stroke-linecap="butt" stroke-opacity="1.0" stroke="rgb(0, 0, 0)" stroke-linejoin="round" d=" M 121.303, 64.573 131.180, 66.140 141.056, 67.706 145.090, 68.346 " />
            <path fill="none" stroke-width="3.0" stroke-linecap="butt" stroke-opacity="1.0" stroke="rgb(0, 0, 0)" stroke-linejoin="round" d=" M 138.049, 40.812 137.604, 40.203 134.266, 38.797 130.206, 38.349 127.036, 39.034 126.804, 39.198 " />
            <path fill="none" stroke-width="3.0" stroke-linecap="butt" stroke-opacity="1.0" stroke="rgb(0, 0, 0)" stroke-linejoin="round" d=" M 206.017, 134.453 209.033, 132.624 209.899, 128.917 209.748, 121.822 205.916, 116.344 200.134, 109.266 192.565, 102.732 191.358, 101.690 190.583, 101.021 186.385, 98.570 185.147, 97.848 176.073, 93.699 172.587, 92.105 " />
            <path fill="none" stroke-width="3.0" stroke-linecap="butt" stroke-opacity="1.0" stroke="rgb(0, 0, 0)" stroke-linejoin="round" d=" M 199.430, 118.172 207.219, 124.443 208.819, 125.731 209.033, 132.624 " />
            <path fill="none" stroke-width="3.0" stroke-linecap="butt" stroke-opacity="1.0" stroke="rgb(0, 0, 0)" stroke-linejoin="round" d=" M 44.758, 88.285 43.538, 89.202 38.070, 93.242 32.005, 99.534 31.567, 103.181 " />
            <path fill="none" stroke-width="3.0" stroke-linecap="butt" stroke-opacity="1.0" stroke="rgb(0, 0, 0)" stroke-linejoin="round" d=" M 209.748, 121.822 202.073, 115.412 199.480, 113.245 " />
            <path fill="none" stroke-width="3.0" stroke-linecap="butt" stroke-opacity="1.0" stroke="rgb(0, 0, 0)" stroke-linejoin="round" d=" M 38.811, 112.865 47.116, 118.430 " />
            <path fill="none" stroke-width="3.0" stroke-linecap="butt" stroke-opacity="1.0" stroke="rgb(0, 0, 0)" stroke-linejoin="round" d=" M 60.353, 77.625 59.265, 79.299 " />
            <path fill="none" stroke-width="3.0" stroke-linecap="butt" stroke-opacity="1.0" stroke="rgb(0, 0, 0)" stroke-linejoin="round" d=" M 107.283, 73.224 107.349, 73.003 108.753, 68.306 " />
            <path fill="none" stroke-width="3.0" stroke-linecap="butt" stroke-opacity="1.0" stroke="rgb(0, 0, 0)" stroke-linejoin="round" d=" M 108.628, 68.308 108.753, 68.306 110.922, 68.283 " />
            <path fill="none" stroke-width="3.0" stroke-linecap="butt" stroke-opacity="1.0" stroke="rgb(0, 0, 0)" stroke-linejoin="round" d=" M 197.026, 120.725 201.702, 124.365 " />
        </g>
    </g>
</svg>
