<?xml version='1.0' encoding='ascii'?>
<svg xmlns="http://www.w3.org/2000/svg" version="1.1" width="250" height="250">
    <g id="ViewLayer_LineSet" xmlns:inkscape="http://www.inkscape.org/namespaces/inkscape" inkscape:groupmode="lineset" inkscape:label="ViewLayer_LineSet">
        <g xmlns:inkscape="http://www.inkscape.org/namespaces/inkscape" inkscape:groupmode="layer" id="strokes" inkscape:label="strokes">
            <path fill="none" stroke-width="3.0" stroke-linecap="butt" stroke-opacity="1.0" stroke="rgb(0, 0, 0)" stroke-linejoin="round" d=" M 171.806, 191.843 176.581, 186.706 181.356, 179.725 181.926, 178.892 " />
            <path fill="none" stroke-width="3.0" stroke-linecap="butt" stroke-opacity="1.0" stroke="rgb(0, 0, 0)" stroke-linejoin="round" d=" M 58.511, 99.672 57.731, 100.954 53.753, 107.493 50.053, 116.369 49.298, 118.205 48.591, 121.109 48.216, 122.646 47.855, 124.131 47.808, 124.321 47.580, 125.260 46.620, 129.386 45.691, 137.097 45.630, 143.787 45.899, 148.450 46.821, 154.902 47.674, 158.449 49.184, 164.150 51.374, 170.024 51.581, 170.457 54.147, 175.826 57.389, 181.315 60.966, 186.259 62.934, 188.617 64.256, 190.085 67.527, 193.716 72.183, 197.670 76.219, 201.017 " />
            <path fill="none" stroke-width="3.0" stroke-linecap="butt" stroke-opacity="1.0" stroke="rgb(0, 0, 0)" stroke-linejoin="round" d=" M 190.184, 124.759 189.087, 119.614 186.755, 113.597 186.645, 113.313 " />
            <path fill="none" stroke-width="3.0" stroke-linecap="butt" stroke-opacity="1.0" stroke="rgb(0, 0, 0)" stroke-linejoin="round" d=" M 108.069, 213.862 112.265, 214.418 115.980, 214.653 116.738, 214.701 120.964, 214.697 " />
            <path fill="none" stroke-width="3.0" stroke-linecap="butt" stroke-opacity="1.0" stroke="rgb(0, 0, 0)" stroke-linejoin="round" d=" M 87.452, 150.492 88.078, 151.898 89.582, 153.961 91.657, 155.594 94.064, 156.782 96.283, 157.178 98.541, 157.052 101.080, 156.156 103.273, 154.765 104.920, 152.865 105.668, 151.521 " />
            <path fill="none" stroke-width="3.0" stroke-linecap="butt" stroke-opacity="1.0" stroke="rgb(0, 0, 0)" stroke-linejoin="round" d=" M 127.950, 99.804 128.898, 102.361 129.136, 103.528 129.587, 105.746 129.799, 108.444 129.887, 109.568 129.894, 109.637 129.305, 118.062 128.769, 120.470 128.733, 120.632 128.363, 122.289 127.077, 126.601 125.486, 130.628 123.652, 134.177 121.648, 137.072 119.551, 139.169 117.441, 140.360 116.855, 140.425 115.400, 140.584 114.087, 140.057 113.505, 139.823 111.832, 138.109 111.320, 137.152 110.448, 135.519 109.413, 132.173 108.769, 128.233 108.546, 123.891 108.749, 119.354 108.879, 118.398 108.902, 118.227 109.352, 114.904 110.307, 110.703 111.599, 106.764 113.177, 103.232 113.902, 102.023 114.979, 100.229 116.070, 98.907 " />
            <path fill="none" stroke-width="3.0" stroke-linecap="butt" stroke-opacity="1.0" stroke="rgb(0, 0, 0)" stroke-linejoin="round" d=" M 87.418, 118.512 86.644, 122.877 85.691, 127.060 84.569, 130.858 84.179, 131.840 83.289, 134.080 82.861, 134.827 82.650, 135.196 81.866, 136.565 80.323, 138.190 78.697, 138.877 77.805, 138.890 77.076, 138.901 75.433, 137.366 73.950, 135.249 73.029, 133.148 72.830, 132.694 72.682, 132.356 71.718, 128.834 71.129, 124.859 70.965, 120.623 71.096, 118.606 71.240, 116.390 71.861, 112.309 72.608, 109.126 72.709, 108.693 72.782, 108.384 73.963, 104.757 75.356, 101.553 76.905, 98.881 77.706, 97.883 " />
            <path fill="none" stroke-width="3.0" stroke-linecap="butt" stroke-opacity="1.0" stroke="rgb(0, 0, 0)" stroke-linejoin="round" d=" M 77.076, 138.901 79.511, 140.266 " />
            <path fill="none" stroke-width="3.0" stroke-linecap="butt" stroke-opacity="1.0" stroke="rgb(0, 0, 0)" stroke-linejoin="round" d=" M 86.115, 97.606 87.058, 99.858 87.757, 102.807 88.202, 106.339 88.227, 110.132 " />
            <path fill="none" stroke-width="3.0" stroke-linecap="butt" stroke-opacity="1.0" stroke="rgb(0, 0, 0)" stroke-linejoin="round" d=" M 89.744, 120.466 87.418, 118.512 87.977, 114.242 87.985, 114.118 88.000, 113.863 88.227, 110.132 90.524, 112.187 " />
            <path fill="none" stroke-width="3.0" stroke-linecap="butt" stroke-opacity="1.0" stroke="rgb(0, 0, 0)" stroke-linejoin="round" d=" M 180.202, 217.480 180.272, 217.314 183.805, 208.991 185.525, 200.997 186.031, 198.073 185.775, 194.682 185.147, 188.152 183.937, 184.800 181.414, 179.811 181.356, 179.725 " />
            <path fill="none" stroke-width="3.0" stroke-linecap="butt" stroke-opacity="1.0" stroke="rgb(0, 0, 0)" stroke-linejoin="round" d=" M 120.964, 214.697 120.934, 216.739 121.380, 219.830 122.555, 222.899 124.494, 225.521 127.164, 229.082 131.993, 232.220 137.413, 234.435 143.585, 235.550 148.902, 235.902 154.566, 235.398 161.542, 233.907 167.046, 231.982 172.197, 229.312 174.537, 227.045 176.517, 224.270 179.038, 220.382 180.272, 217.314 " />
            <path fill="none" stroke-width="3.0" stroke-linecap="butt" stroke-opacity="1.0" stroke="rgb(0, 0, 0)" stroke-linejoin="round" d=" M 64.256, 190.085 59.920, 196.737 58.229, 200.450 54.894, 209.214 53.962, 213.512 52.522, 217.643 51.879, 221.556 52.012, 225.077 52.452, 227.753 53.232, 231.361 55.262, 234.438 58.117, 237.174 61.823, 239.313 67.322, 241.245 72.262, 242.199 77.421, 242.361 84.007, 241.941 86.696, 241.531 92.892, 239.859 99.044, 237.651 101.771, 235.744 108.282, 228.154 108.593, 227.793 110.164, 225.913 114.834, 217.071 115.080, 216.606 115.980, 214.653 " />
            <path fill="none" stroke-width="3.0" stroke-linecap="butt" stroke-opacity="1.0" stroke="rgb(0, 0, 0)" stroke-linejoin="round" d=" M 180.042, 177.770 181.926, 178.892 185.390, 180.952 190.123, 182.823 194.599, 183.992 199.128, 184.448 202.987, 184.111 206.500, 183.265 209.645, 181.871 210.767, 181.290 213.579, 179.390 216.080, 177.081 218.128, 174.252 219.701, 171.182 220.143, 170.281 221.162, 166.967 221.590, 163.387 221.465, 159.532 220.458, 155.124 218.739, 150.846 216.277, 146.394 212.025, 140.999 207.652, 136.356 205.270, 134.067 204.917, 133.728 203.431, 132.300 199.003, 128.953 194.192, 126.294 190.184, 124.759 " />
            <path fill="none" stroke-width="3.0" stroke-linecap="butt" stroke-opacity="1.0" stroke="rgb(0, 0, 0)" stroke-linejoin="round" d=" M 48.216, 122.646 46.639, 123.570 46.473, 123.668 46.444, 123.692 43.176, 126.416 40.154, 129.731 38.069, 132.243 35.098, 135.925 32.489, 140.045 31.165, 143.368 29.960, 148.391 29.836, 151.093 29.919, 153.381 30.394, 155.249 30.843, 156.992 31.222, 158.411 32.938, 161.915 35.333, 164.783 37.736, 166.855 39.191, 167.876 39.921, 168.319 41.551, 169.130 43.276, 169.705 46.076, 170.473 48.861, 170.724 51.581, 170.457 " />
            <path fill="none" stroke-width="3.0" stroke-linecap="butt" stroke-opacity="1.0" stroke="rgb(0, 0, 0)" stroke-linejoin="round" d=" M 126.939, 68.358 128.102, 67.563 128.291, 67.248 128.326, 67.189 130.351, 63.799 130.975, 61.218 130.987, 57.536 130.379, 54.857 128.723, 52.099 " />
            <path fill="none" stroke-width="3.0" stroke-linecap="butt" stroke-opacity="1.0" stroke="rgb(0, 0, 0)" stroke-linejoin="round" d=" M 66.752, 52.705 66.558, 53.317 65.279, 57.353 63.882, 63.565 63.794, 71.589 63.812, 72.887 64.346, 74.202 64.359, 74.233 64.414, 74.370 66.008, 78.293 67.929, 79.575 68.738, 79.746 73.688, 80.795 74.648, 80.939 75.604, 81.083 76.306, 81.188 76.743, 81.254 76.803, 81.263 80.852, 80.590 81.188, 80.534 83.252, 80.191 86.562, 79.370 89.049, 78.754 90.021, 78.383 91.587, 77.785 95.149, 76.426 98.188, 77.787 100.125, 78.654 100.591, 78.862 102.677, 79.523 103.413, 79.756 105.516, 80.422 108.148, 80.947 111.691, 81.652 113.551, 81.304 115.648, 80.911 115.981, 80.849 117.023, 80.653 117.565, 80.552 117.641, 80.538 118.306, 79.534 120.314, 76.505 121.389, 74.883 122.566, 70.580 122.581, 70.457 122.588, 70.403 122.879, 67.981 122.977, 67.170 123.014, 66.858 123.463, 63.128 123.790, 58.014 128.479, 52.404 128.723, 52.099 128.849, 51.942 131.894, 48.142 133.898, 45.040 135.012, 43.317 135.366, 42.768 135.515, 42.537 136.353, 39.713 137.720, 33.754 137.242, 31.490 133.273, 27.156 127.505, 24.597 124.694, 23.419 118.484, 22.173 114.532, 21.694 113.747, 21.598 " />
            <path fill="none" stroke-width="3.0" stroke-linecap="butt" stroke-opacity="1.0" stroke="rgb(0, 0, 0)" stroke-linejoin="round" d=" M 32.145, 106.216 32.658, 105.914 39.783, 101.732 42.346, 100.228 47.779, 99.089 55.015, 97.573 57.136, 97.129 61.026, 96.314 62.528, 95.999 72.522, 95.636 80.561, 95.344 83.828, 95.226 92.936, 94.895 102.911, 95.599 112.886, 96.304 118.372, 96.691 126.376, 97.257 128.172, 97.384 138.024, 99.100 147.875, 100.817 157.727, 102.533 161.004, 103.104 170.617, 105.858 180.230, 108.613 185.397, 110.093 187.292, 110.636 187.420, 110.699 189.040, 111.504 189.656, 111.810 191.821, 112.885 " />
            <path fill="none" stroke-width="3.0" stroke-linecap="butt" stroke-opacity="1.0" stroke="rgb(0, 0, 0)" stroke-linejoin="round" d=" M 205.270, 134.067 206.795, 133.400 210.277, 126.879 210.999, 123.068 205.012, 115.027 200.833, 109.700 195.009, 103.114 190.796, 100.851 187.718, 99.198 186.416, 98.499 " />
            <path fill="none" stroke-width="3.0" stroke-linecap="butt" stroke-opacity="1.0" stroke="rgb(0, 0, 0)" stroke-linejoin="round" d=" M 204.917, 133.728 207.959, 127.826 203.181, 121.880 " />
            <path fill="none" stroke-width="3.0" stroke-linecap="butt" stroke-opacity="1.0" stroke="rgb(0, 0, 0)" stroke-linejoin="round" d=" M 39.568, 106.821 48.325, 101.992 49.488, 101.351 56.936, 99.965 58.511, 99.672 59.051, 99.571 66.069, 98.265 " />
            <path fill="none" stroke-width="3.0" stroke-linecap="butt" stroke-opacity="1.0" stroke="rgb(0, 0, 0)" stroke-linejoin="round" d=" M 35.021, 116.163 39.790, 120.408 41.475, 121.402 46.444, 123.692 " />
            <path fill="none" stroke-width="3.0" stroke-linecap="butt" stroke-opacity="1.0" stroke="rgb(0, 0, 0)" stroke-linejoin="round" d=" M 65.080, 98.298 58.949, 99.441 58.614, 99.503 56.833, 99.835 47.002, 101.668 44.603, 102.116 44.508, 102.169 39.035, 105.250 34.353, 107.885 34.305, 108.544 34.279, 108.901 34.243, 109.395 " />
            <path fill="none" stroke-width="3.0" stroke-linecap="butt" stroke-opacity="1.0" stroke="rgb(0, 0, 0)" stroke-linejoin="round" d=" M 65.080, 98.298 66.069, 98.265 76.063, 97.937 77.706, 97.883 82.502, 97.725 86.115, 97.606 86.385, 97.597 86.637, 97.589 93.990, 97.347 103.966, 98.052 113.941, 98.757 116.070, 98.907 119.842, 99.174 126.518, 99.646 127.348, 99.704 127.950, 99.804 137.816, 101.435 147.682, 103.066 151.954, 103.772 159.673, 105.048 169.298, 107.762 178.922, 110.476 183.423, 111.745 185.602, 112.359 " />
            <path fill="none" stroke-width="3.0" stroke-linecap="butt" stroke-opacity="1.0" stroke="rgb(0, 0, 0)" stroke-linejoin="round" d=" M 68.738, 79.746 60.938, 82.507 57.532, 83.886 52.531, 85.910 46.143, 89.893 38.336, 96.142 33.830, 99.750 31.148, 102.710 29.276, 105.862 28.964, 108.414 29.319, 110.659 31.585, 114.918 34.333, 116.409 35.021, 116.163 35.447, 116.011 37.714, 115.200 37.855, 115.104 40.712, 113.165 42.604, 107.926 " />
            <path fill="none" stroke-width="3.0" stroke-linecap="butt" stroke-opacity="1.0" stroke="rgb(0, 0, 0)" stroke-linejoin="round" d=" M 32.181, 112.275 31.846, 112.086 29.319, 110.659 " />
            <path fill="none" stroke-width="3.0" stroke-linecap="butt" stroke-opacity="1.0" stroke="rgb(0, 0, 0)" stroke-linejoin="round" d=" M 40.712, 113.165 39.161, 110.743 " />
            <path fill="none" stroke-width="3.0" stroke-linecap="butt" stroke-opacity="1.0" stroke="rgb(0, 0, 0)" stroke-linejoin="round" d=" M 40.228, 108.126 39.161, 110.743 35.594, 111.767 " />
            <path fill="none" stroke-width="3.0" stroke-linecap="butt" stroke-opacity="1.0" stroke="rgb(0, 0, 0)" stroke-linejoin="round" d=" M 75.604, 81.083 68.213, 83.035 62.258, 84.607 55.752, 86.883 52.107, 88.157 49.495, 89.555 44.266, 92.354 38.065, 96.413 33.830, 99.750 " />
            <path fill="none" stroke-width="3.0" stroke-linecap="butt" stroke-opacity="1.0" stroke="rgb(0, 0, 0)" stroke-linejoin="round" d=" M 80.852, 80.590 81.915, 80.493 89.735, 79.784 90.423, 79.721 91.859, 79.688 98.296, 79.540 98.683, 79.556 103.413, 79.756 " />
            <path fill="none" stroke-width="3.0" stroke-linecap="butt" stroke-opacity="1.0" stroke="rgb(0, 0, 0)" stroke-linejoin="round" d=" M 186.972, 113.473 187.791, 115.413 191.104, 116.774 199.117, 120.737 200.158, 121.252 202.388, 122.354 203.181, 121.880 204.849, 120.884 205.051, 120.147 205.823, 117.333 203.308, 112.917 197.254, 106.837 191.331, 102.333 190.313, 101.558 188.376, 100.038 186.416, 98.499 184.587, 97.063 181.724, 95.280 176.682, 92.140 171.735, 89.994 166.105, 87.552 156.574, 84.525 153.759, 83.631 149.240, 82.324 141.142, 79.983 131.284, 78.302 128.198, 77.776 120.314, 76.505 " />
            <path fill="none" stroke-width="3.0" stroke-linecap="butt" stroke-opacity="1.0" stroke="rgb(0, 0, 0)" stroke-linejoin="round" d=" M 115.981, 80.849 116.965, 80.948 123.261, 81.582 125.343, 82.084 135.064, 84.428 140.171, 85.659 149.774, 88.446 154.408, 89.791 156.331, 90.551 165.633, 94.222 166.762, 94.668 175.872, 98.790 177.303, 99.438 180.287, 100.953 183.691, 102.681 185.085, 103.389 188.658, 105.529 190.918, 106.883 191.087, 107.021 191.630, 107.465 195.428, 110.565 195.933, 111.498 196.667, 112.856 196.996, 113.464 197.183, 115.959 196.700, 116.240 194.858, 117.310 194.417, 117.566 " />
            <path fill="none" stroke-width="3.0" stroke-linecap="butt" stroke-opacity="1.0" stroke="rgb(0, 0, 0)" stroke-linejoin="round" d=" M 115.319, 77.303 116.270, 75.906 118.624, 72.443 119.024, 71.854 119.111, 71.500 119.251, 70.924 120.035, 67.716 120.178, 67.128 120.286, 66.688 121.056, 63.534 121.198, 57.091 120.844, 52.284 " />
            <path fill="none" stroke-width="3.0" stroke-linecap="butt" stroke-opacity="1.0" stroke="rgb(0, 0, 0)" stroke-linejoin="round" d=" M 90.886, 71.910 91.292, 72.150 92.509, 72.868 94.912, 74.286 97.692, 75.517 100.679, 76.839 101.082, 76.917 108.915, 78.442 115.319, 77.303 116.306, 78.759 117.157, 79.965 117.233, 80.073 117.641, 80.538 " />
            <path fill="none" stroke-width="3.0" stroke-linecap="butt" stroke-opacity="1.0" stroke="rgb(0, 0, 0)" stroke-linejoin="round" d=" M 66.008, 78.293 65.951, 76.892 " />
            <path fill="none" stroke-width="3.0" stroke-linecap="butt" stroke-opacity="1.0" stroke="rgb(0, 0, 0)" stroke-linejoin="round" d=" M 95.149, 76.426 94.056, 75.614 92.957, 74.798 91.467, 73.306 91.403, 73.241 91.184, 72.678 90.886, 71.910 86.296, 74.231 80.018, 76.671 71.715, 78.103 65.951, 76.892 64.828, 74.133 64.745, 73.927 64.665, 73.731 63.794, 71.589 " />
            <path fill="none" stroke-width="3.0" stroke-linecap="butt" stroke-opacity="1.0" stroke="rgb(0, 0, 0)" stroke-linejoin="round" d=" M 63.425, 49.034 60.293, 44.577 59.746, 43.799 59.289, 42.860 57.697, 38.901 57.840, 33.150 57.926, 32.576 62.475, 28.336 70.029, 24.853 76.197, 23.322 80.878, 22.506 83.445, 18.491 87.346, 13.305 93.582, 7.582 99.276, 4.997 104.410, 7.180 109.372, 12.566 112.097, 17.626 113.747, 21.598 " />
            <path fill="none" stroke-width="3.0" stroke-linecap="butt" stroke-opacity="1.0" stroke="rgb(0, 0, 0)" stroke-linejoin="round" d=" M 122.907, 55.410 121.931, 53.282 120.844, 52.284 124.829, 48.899 125.417, 48.400 129.748, 43.949 130.845, 42.821 131.363, 41.984 131.792, 41.290 134.519, 36.882 135.895, 30.916 132.005, 26.664 124.694, 23.419 " />
            <path fill="none" stroke-width="3.0" stroke-linecap="butt" stroke-opacity="1.0" stroke="rgb(0, 0, 0)" stroke-linejoin="round" d=" M 59.746, 43.799 59.608, 43.405 59.556, 43.259 57.785, 38.226 57.926, 32.576 " />
            <path fill="none" stroke-width="3.0" stroke-linecap="butt" stroke-opacity="1.0" stroke="rgb(0, 0, 0)" stroke-linejoin="round" d=" M 60.293, 44.577 62.162, 47.773 66.558, 53.317 " />
            <path fill="none" stroke-width="3.0" stroke-linecap="butt" stroke-opacity="1.0" stroke="rgb(0, 0, 0)" stroke-linejoin="round" d=" M 114.532, 21.694 112.275, 16.725 109.653, 12.197 105.147, 7.311 99.919, 5.089 99.276, 4.997 " />
            <path fill="none" stroke-width="3.0" stroke-linecap="butt" stroke-opacity="1.0" stroke="rgb(0, 0, 0)" stroke-linejoin="round" d=" M 63.425, 49.034 66.752, 52.705 " />
            <path fill="none" stroke-width="3.0" stroke-linecap="butt" stroke-opacity="1.0" stroke="rgb(0, 0, 0)" stroke-linejoin="round" d=" M 184.818, 86.163 183.554, 82.400 178.295, 73.895 176.853, 71.564 172.283, 65.213 165.344, 58.013 164.693, 57.338 156.415, 51.728 155.337, 50.998 149.154, 47.105 140.488, 43.957 136.062, 42.905 135.366, 42.768 " />
            <path fill="none" stroke-width="3.0" stroke-linecap="butt" stroke-opacity="1.0" stroke="rgb(0, 0, 0)" stroke-linejoin="round" d=" M 64.346, 74.202 62.546, 75.443 57.532, 83.886 " />
            <path fill="none" stroke-width="3.0" stroke-linecap="butt" stroke-opacity="1.0" stroke="rgb(0, 0, 0)" stroke-linejoin="round" d=" M 129.559, 67.266 128.326, 67.189 " />
            <path fill="none" stroke-width="3.0" stroke-linecap="butt" stroke-opacity="1.0" stroke="rgb(0, 0, 0)" stroke-linejoin="round" d=" M 129.559, 67.266 139.421, 68.924 149.283, 70.583 152.364, 71.101 " />
            <path fill="none" stroke-width="3.0" stroke-linecap="butt" stroke-opacity="1.0" stroke="rgb(0, 0, 0)" stroke-linejoin="round" d=" M 190.796, 100.851 187.397, 91.446 186.046, 87.706 184.818, 86.163 181.506, 81.997 180.346, 80.929 " />
            <path fill="none" stroke-width="3.0" stroke-linecap="butt" stroke-opacity="1.0" stroke="rgb(0, 0, 0)" stroke-linejoin="round" d=" M 181.724, 95.280 186.780, 98.001 187.718, 99.198 " />
            <path fill="none" stroke-width="3.0" stroke-linecap="butt" stroke-opacity="1.0" stroke="rgb(0, 0, 0)" stroke-linejoin="round" d=" M 210.277, 126.879 205.051, 120.147 " />
            <path fill="none" stroke-width="3.0" stroke-linecap="butt" stroke-opacity="1.0" stroke="rgb(0, 0, 0)" stroke-linejoin="round" d=" M 35.447, 116.011 41.475, 121.402 " />
            <path fill="none" stroke-width="3.0" stroke-linecap="butt" stroke-opacity="1.0" stroke="rgb(0, 0, 0)" stroke-linejoin="round" d=" M 128.773, 103.503 129.894, 109.637 " />
            <path fill="none" stroke-width="3.0" stroke-linecap="butt" stroke-opacity="1.0" stroke="rgb(0, 0, 0)" stroke-linejoin="round" d=" M 183.423, 111.745 185.337, 112.676 186.645, 113.313 186.964, 113.468 186.972, 113.473 " />
            <path fill="none" stroke-width="3.0" stroke-linecap="butt" stroke-opacity="1.0" stroke="rgb(0, 0, 0)" stroke-linejoin="round" d=" M 187.366, 113.220 186.737, 112.913 186.433, 112.765 185.737, 112.425 185.602, 112.359 " />
            <path fill="none" stroke-width="3.0" stroke-linecap="butt" stroke-opacity="1.0" stroke="rgb(0, 0, 0)" stroke-linejoin="round" d=" M 199.117, 120.737 203.181, 125.632 " />
        </g>
    </g>
</svg>
