<?xml version='1.0' encoding='ascii'?>
<svg xmlns="http://www.w3.org/2000/svg" version="1.1" width="250" height="250">
    <g id="ViewLayer_LineSet" xmlns:inkscape="http://www.inkscape.org/namespaces/inkscape" inkscape:groupmode="lineset" inkscape:label="ViewLayer_LineSet">
        <g xmlns:inkscape="http://www.inkscape.org/namespaces/inkscape" inkscape:groupmode="layer" id="strokes" inkscape:label="strokes">
            <path fill="none" stroke-width="3.0" stroke-linecap="butt" stroke-opacity="1.0" stroke="rgb(0, 0, 0)" stroke-linejoin="round" d=" M 105.022, 213.068 106.027, 213.312 112.105, 214.787 115.824, 215.628 120.006, 216.225 124.471, 216.547 129.019, 216.578 133.447, 216.318 137.557, 215.780 138.001, 215.685 143.299, 214.550 148.673, 213.377 153.031, 211.900 158.036, 209.809 162.441, 207.569 168.407, 204.004 176.230, 197.775 177.136, 197.053 181.365, 192.800 186.131, 186.940 187.623, 184.901 191.075, 179.462 194.003, 173.709 196.339, 167.798 196.346, 167.781 196.351, 167.766 197.018, 166.080 198.534, 160.985 200.411, 151.379 200.612, 149.509 200.591, 146.564 200.572, 145.575 200.568, 145.393 200.578, 144.414 200.592, 143.465 200.627, 142.771 200.654, 142.621 " />
            <path fill="none" stroke-width="3.0" stroke-linecap="butt" stroke-opacity="1.0" stroke="rgb(0, 0, 0)" stroke-linejoin="round" d=" M 55.228, 155.585 55.497, 156.737 57.947, 166.432 58.350, 168.027 62.232, 177.211 62.254, 177.245 " />
            <path fill="none" stroke-width="3.0" stroke-linecap="butt" stroke-opacity="1.0" stroke="rgb(0, 0, 0)" stroke-linejoin="round" d=" M 200.572, 145.575 200.599, 144.924 200.617, 143.976 200.611, 143.190 200.654, 142.621 200.529, 140.352 200.514, 136.732 200.493, 136.590 " />
            <path fill="none" stroke-width="3.0" stroke-linecap="butt" stroke-opacity="1.0" stroke="rgb(0, 0, 0)" stroke-linejoin="round" d=" M 199.032, 117.024 200.375, 120.743 201.439, 124.345 202.220, 127.672 202.739, 130.573 203.027, 132.911 203.118, 134.574 203.043, 135.476 202.861, 135.823 202.434, 134.839 201.880, 133.313 201.128, 131.059 200.149, 128.184 199.142, 125.412 198.929, 124.826 197.472, 121.149 196.213, 118.263 196.155, 118.130 195.832, 117.390 194.190, 113.691 193.039, 111.029 192.625, 110.070 191.869, 108.262 " />
            <path fill="none" stroke-width="3.0" stroke-linecap="butt" stroke-opacity="1.0" stroke="rgb(0, 0, 0)" stroke-linejoin="round" d=" M 195.870, 109.930 194.678, 110.393 193.193, 110.969 193.039, 111.029 " />
            <path fill="none" stroke-width="3.0" stroke-linecap="butt" stroke-opacity="1.0" stroke="rgb(0, 0, 0)" stroke-linejoin="round" d=" M 196.155, 118.130 196.164, 118.126 197.422, 117.643 199.032, 117.024 197.479, 113.407 195.870, 109.930 194.432, 107.137 " />
            <path fill="none" stroke-width="3.0" stroke-linecap="butt" stroke-opacity="1.0" stroke="rgb(0, 0, 0)" stroke-linejoin="round" d=" M 138.001, 215.685 138.450, 216.010 143.628, 217.232 145.956, 217.702 150.640, 217.458 152.457, 217.317 156.852, 216.130 166.187, 213.285 175.674, 210.123 178.462, 209.193 187.893, 205.868 190.650, 204.895 200.015, 201.386 203.220, 200.185 207.809, 196.692 212.154, 192.749 214.171, 190.488 215.724, 186.178 216.298, 184.165 215.990, 180.134 214.386, 176.640 213.636, 175.031 210.856, 172.271 207.104, 170.222 205.468, 169.311 199.776, 167.770 196.351, 167.766 " />
            <path fill="none" stroke-width="3.0" stroke-linecap="butt" stroke-opacity="1.0" stroke="rgb(0, 0, 0)" stroke-linejoin="round" d=" M 62.254, 177.245 56.659, 176.776 54.277, 177.029 46.963, 178.924 45.118, 179.925 40.429, 182.619 36.837, 186.001 35.248, 188.130 33.090, 192.198 32.606, 196.902 32.181, 200.015 33.523, 205.667 34.615, 209.237 37.677, 214.034 39.003, 216.364 42.996, 221.341 50.014, 228.464 50.576, 229.034 58.080, 235.645 61.558, 238.710 69.300, 245.040 72.893, 247.978 81.849, 252.426 89.438, 256.196 " />
            <path fill="none" stroke-width="3.0" stroke-linecap="butt" stroke-opacity="1.0" stroke="rgb(0, 0, 0)" stroke-linejoin="round" d=" M 118.579, 251.038 119.974, 248.723 121.891, 244.862 122.323, 240.372 121.960, 238.182 121.387, 233.379 118.484, 227.329 117.181, 225.302 112.892, 219.983 106.238, 213.579 106.027, 213.312 " />
            <path fill="none" stroke-width="3.0" stroke-linecap="butt" stroke-opacity="1.0" stroke="rgb(0, 0, 0)" stroke-linejoin="round" d=" M 164.273, 151.581 161.665, 146.522 " />
            <path fill="none" stroke-width="3.0" stroke-linecap="butt" stroke-opacity="1.0" stroke="rgb(0, 0, 0)" stroke-linejoin="round" d=" M 111.105, 173.605 114.031, 178.689 117.582, 183.991 119.216, 186.300 123.448, 191.152 127.126, 194.412 129.366, 196.024 130.755, 196.978 131.229, 197.286 132.846, 198.338 136.542, 199.947 140.448, 200.956 143.466, 201.425 147.592, 201.243 149.904, 201.033 153.643, 199.997 155.464, 199.185 158.216, 197.747 160.129, 196.322 162.137, 194.769 164.223, 192.461 166.032, 190.108 167.626, 186.663 169.024, 183.392 169.810, 179.350 170.250, 175.650 170.252, 171.187 169.994, 169.220 169.609, 166.291 167.876, 160.025 166.742, 157.260 166.556, 156.832 164.273, 151.581 165.549, 154.398 166.556, 156.832 " />
            <path fill="none" stroke-width="3.0" stroke-linecap="butt" stroke-opacity="1.0" stroke="rgb(0, 0, 0)" stroke-linejoin="round" d=" M 199.999, 24.162 199.941, 24.050 198.455, 21.152 197.270, 19.738 195.512, 19.485 192.098, 21.163 188.473, 24.423 185.356, 30.454 184.131, 39.271 184.136, 41.597 184.253, 49.544 184.491, 52.395 184.505, 52.554 " />
            <path fill="none" stroke-width="3.0" stroke-linecap="butt" stroke-opacity="1.0" stroke="rgb(0, 0, 0)" stroke-linejoin="round" d=" M 195.391, 75.994 196.508, 77.323 203.160, 82.953 206.388, 83.900 209.170, 84.715 209.950, 84.944 215.354, 84.664 219.141, 83.677 220.419, 82.499 220.915, 81.475 220.433, 79.332 220.473, 74.303 219.762, 68.408 217.806, 61.506 215.523, 53.660 212.978, 44.321 " />
            <path fill="none" stroke-width="3.0" stroke-linecap="butt" stroke-opacity="1.0" stroke="rgb(0, 0, 0)" stroke-linejoin="round" d=" M 214.177, 59.892 215.673, 64.063 217.588, 69.641 219.797, 76.812 220.915, 81.475 219.630, 82.646 215.786, 83.658 214.409, 83.732 210.431, 83.945 " />
            <path fill="none" stroke-width="3.0" stroke-linecap="butt" stroke-opacity="1.0" stroke="rgb(0, 0, 0)" stroke-linejoin="round" d=" M 184.043, 53.717 184.542, 53.526 184.585, 53.509 184.594, 53.506 184.689, 53.469 185.086, 53.317 185.539, 53.143 185.756, 53.833 " />
            <path fill="none" stroke-width="3.0" stroke-linecap="butt" stroke-opacity="1.0" stroke="rgb(0, 0, 0)" stroke-linejoin="round" d=" M 170.388, 60.117 170.208, 59.911 169.879, 59.796 169.722, 59.741 " />
            <path fill="none" stroke-width="3.0" stroke-linecap="butt" stroke-opacity="1.0" stroke="rgb(0, 0, 0)" stroke-linejoin="round" d=" M 171.428, 58.359 169.722, 59.741 166.425, 61.625 166.333, 61.896 166.463, 62.124 " />
            <path fill="none" stroke-width="3.0" stroke-linecap="butt" stroke-opacity="1.0" stroke="rgb(0, 0, 0)" stroke-linejoin="round" d=" M 170.017, 65.660 169.444, 64.931 168.906, 64.246 167.158, 62.196 166.425, 61.625 " />
            <path fill="none" stroke-width="3.0" stroke-linecap="butt" stroke-opacity="1.0" stroke="rgb(0, 0, 0)" stroke-linejoin="round" d=" M 167.129, 118.700 175.546, 115.428 183.392, 111.983 186.591, 110.579 187.300, 110.268 189.231, 109.420 189.362, 109.363 191.869, 108.262 191.910, 108.244 193.400, 107.590 194.432, 107.137 196.053, 106.425 204.790, 101.560 206.608, 100.547 209.489, 98.497 210.358, 95.957 208.503, 92.503 204.046, 88.498 196.899, 84.736 " />
            <path fill="none" stroke-width="3.0" stroke-linecap="butt" stroke-opacity="1.0" stroke="rgb(0, 0, 0)" stroke-linejoin="round" d=" M 86.819, 49.147 86.137, 49.559 78.474, 54.177 76.823, 55.659 69.707, 62.685 67.207, 65.154 61.614, 73.444 59.204, 77.017 55.101, 86.137 53.687, 89.282 51.341, 99.003 50.359, 103.071 49.671, 106.711 47.860, 108.390 48.258, 118.382 48.656, 128.374 48.699, 129.442 52.352, 128.879 46.030, 132.886 41.445, 138.293 37.693, 147.029 36.287, 153.190 37.244, 157.029 41.955, 157.617 45.221, 157.628 55.019, 155.628 55.228, 155.585 59.801, 154.651 69.429, 151.950 79.057, 149.249 83.814, 147.915 93.333, 144.852 100.373, 142.587 109.893, 139.524 112.895, 138.558 114.501, 138.042 123.927, 134.702 133.353, 131.363 139.512, 129.181 143.026, 127.936 143.614, 127.727 " />
            <path fill="none" stroke-width="3.0" stroke-linecap="butt" stroke-opacity="1.0" stroke="rgb(0, 0, 0)" stroke-linejoin="round" d=" M 182.508, 75.431 182.656, 75.439 183.349, 74.827 " />
            <path fill="none" stroke-width="3.0" stroke-linecap="butt" stroke-opacity="1.0" stroke="rgb(0, 0, 0)" stroke-linejoin="round" d=" M 190.891, 69.792 191.110, 69.405 " />
            <path fill="none" stroke-width="3.0" stroke-linecap="butt" stroke-opacity="1.0" stroke="rgb(0, 0, 0)" stroke-linejoin="round" d=" M 190.853, 68.721 191.022, 69.171 191.110, 69.405 190.665, 69.540 190.500, 69.589 190.487, 69.593 190.421, 69.613 190.076, 69.717 " />
            <path fill="none" stroke-width="3.0" stroke-linecap="butt" stroke-opacity="1.0" stroke="rgb(0, 0, 0)" stroke-linejoin="round" d=" M 190.057, 70.160 189.997, 70.033 " />
            <path fill="none" stroke-width="3.0" stroke-linecap="butt" stroke-opacity="1.0" stroke="rgb(0, 0, 0)" stroke-linejoin="round" d=" M 143.614, 127.727 144.818, 129.005 146.683, 127.413 146.909, 126.560 147.235, 125.329 147.750, 123.381 148.004, 122.645 " />
            <path fill="none" stroke-width="3.0" stroke-linecap="butt" stroke-opacity="1.0" stroke="rgb(0, 0, 0)" stroke-linejoin="round" d=" M 147.750, 123.381 148.114, 122.715 150.647, 118.073 151.631, 115.959 152.457, 114.184 153.192, 112.606 153.845, 111.202 154.011, 110.846 154.722, 109.911 154.761, 109.859 157.838, 105.811 158.687, 104.695 162.460, 99.674 167.384, 94.364 171.259, 90.827 172.546, 89.652 175.101, 87.341 176.728, 85.868 176.888, 85.717 177.580, 85.065 177.986, 84.683 178.222, 84.460 179.571, 83.188 180.233, 82.564 180.834, 82.130 181.762, 81.458 182.726, 80.760 183.398, 80.031 183.431, 79.996 184.058, 79.315 " />
            <path fill="none" stroke-width="3.0" stroke-linecap="butt" stroke-opacity="1.0" stroke="rgb(0, 0, 0)" stroke-linejoin="round" d=" M 154.011, 110.846 153.800, 111.216 152.967, 112.672 151.038, 116.047 " />
            <path fill="none" stroke-width="3.0" stroke-linecap="butt" stroke-opacity="1.0" stroke="rgb(0, 0, 0)" stroke-linejoin="round" d=" M 144.818, 129.005 154.253, 125.689 163.687, 122.373 164.881, 121.953 166.402, 120.317 167.129, 118.700 167.645, 117.552 168.140, 116.809 169.835, 114.261 173.678, 110.012 177.918, 106.037 180.398, 103.466 180.580, 103.277 182.097, 101.705 182.474, 101.304 182.980, 100.764 183.848, 99.838 185.365, 98.220 185.473, 98.106 185.489, 98.089 186.771, 96.721 186.969, 96.505 191.183, 91.912 192.181, 90.747 194.469, 88.079 195.436, 86.479 196.589, 84.573 196.605, 84.546 197.418, 83.261 196.920, 83.056 187.356, 80.137 184.603, 79.298 " />
            <path fill="none" stroke-width="3.0" stroke-linecap="butt" stroke-opacity="1.0" stroke="rgb(0, 0, 0)" stroke-linejoin="round" d=" M 167.645, 117.552 167.983, 117.298 169.758, 115.964 " />
            <path fill="none" stroke-width="3.0" stroke-linecap="butt" stroke-opacity="1.0" stroke="rgb(0, 0, 0)" stroke-linejoin="round" d=" M 191.462, 60.314 185.756, 53.833 185.728, 53.802 185.428, 53.787 185.110, 53.771 184.903, 53.760 184.611, 53.746 184.604, 53.745 184.551, 53.743 184.043, 53.717 177.760, 53.403 177.559, 53.393 177.008, 53.365 171.428, 58.359 170.446, 59.238 170.440, 59.341 170.388, 60.117 170.383, 60.182 170.355, 60.606 170.327, 61.026 170.306, 61.343 170.017, 65.660 169.991, 66.041 169.912, 67.215 169.864, 67.944 " />
            <path fill="none" stroke-width="3.0" stroke-linecap="butt" stroke-opacity="1.0" stroke="rgb(0, 0, 0)" stroke-linejoin="round" d=" M 179.669, 74.628 179.908, 74.641 180.258, 74.660 180.295, 74.662 181.406, 74.722 183.163, 74.817 183.330, 74.827 183.349, 74.827 184.236, 74.875 189.068, 70.608 189.355, 70.355 189.598, 70.140 189.715, 70.037 189.725, 70.028 189.731, 70.023 189.915, 69.860 190.076, 69.717 190.410, 69.423 190.422, 69.412 190.494, 69.349 190.829, 69.053 190.853, 68.721 191.246, 63.292 " />
            <path fill="none" stroke-width="3.0" stroke-linecap="butt" stroke-opacity="1.0" stroke="rgb(0, 0, 0)" stroke-linejoin="round" d=" M 211.608, 47.113 212.504, 50.985 213.556, 56.257 214.177, 59.892 212.676, 60.586 208.254, 62.085 " />
            <path fill="none" stroke-width="3.0" stroke-linecap="butt" stroke-opacity="1.0" stroke="rgb(0, 0, 0)" stroke-linejoin="round" d=" M 212.504, 50.985 212.028, 49.087 211.099, 45.378 209.555, 40.386 209.381, 39.821 207.571, 36.234 205.707, 33.896 204.624, 33.309 203.928, 33.205 " />
            <path fill="none" stroke-width="3.0" stroke-linecap="butt" stroke-opacity="1.0" stroke="rgb(0, 0, 0)" stroke-linejoin="round" d=" M 198.455, 21.152 199.880, 23.980 199.932, 24.082 200.644, 25.494 202.512, 29.787 203.928, 33.205 202.196, 33.280 197.904, 35.100 " />
            <path fill="none" stroke-width="3.0" stroke-linecap="butt" stroke-opacity="1.0" stroke="rgb(0, 0, 0)" stroke-linejoin="round" d=" M 209.810, 40.889 209.381, 39.821 " />
            <path fill="none" stroke-width="3.0" stroke-linecap="butt" stroke-opacity="1.0" stroke="rgb(0, 0, 0)" stroke-linejoin="round" d=" M 209.058, 38.387 211.673, 42.343 212.978, 44.321 210.331, 39.827 208.387, 36.481 205.778, 32.142 202.125, 26.591 199.941, 24.050 " />
            <path fill="none" stroke-width="3.0" stroke-linecap="butt" stroke-opacity="1.0" stroke="rgb(0, 0, 0)" stroke-linejoin="round" d=" M 166.995, 62.539 166.463, 62.124 158.577, 55.975 155.923, 53.906 147.042, 49.310 144.050, 47.761 134.522, 44.726 130.429, 43.422 128.087, 42.937 118.143, 41.876 115.250, 41.567 111.646, 42.003 105.891, 42.742 103.360, 43.067 " />
            <path fill="none" stroke-width="3.0" stroke-linecap="butt" stroke-opacity="1.0" stroke="rgb(0, 0, 0)" stroke-linejoin="round" d=" M 189.861, 70.215 195.127, 77.895 200.526, 83.013 206.270, 84.873 209.170, 84.715 " />
            <path fill="none" stroke-width="3.0" stroke-linecap="butt" stroke-opacity="1.0" stroke="rgb(0, 0, 0)" stroke-linejoin="round" d=" M 207.760, 40.033 203.895, 41.609 199.262, 44.067 " />
            <path fill="none" stroke-width="3.0" stroke-linecap="butt" stroke-opacity="1.0" stroke="rgb(0, 0, 0)" stroke-linejoin="round" d=" M 48.699, 129.442 52.972, 128.341 55.693, 127.473 56.432, 127.237 64.867, 124.545 74.349, 121.369 83.829, 118.193 93.286, 114.942 102.742, 111.691 107.709, 109.984 117.146, 106.674 126.583, 103.365 132.994, 101.117 142.409, 97.748 151.824, 94.378 155.736, 92.978 165.121, 89.526 170.316, 87.615 172.754, 86.718 173.911, 86.268 177.291, 84.953 177.986, 84.683 " />
            <path fill="none" stroke-width="3.0" stroke-linecap="butt" stroke-opacity="1.0" stroke="rgb(0, 0, 0)" stroke-linejoin="round" d=" M 175.726, 70.668 175.326, 70.742 174.221, 70.987 173.899, 71.058 172.860, 71.288 172.822, 71.296 171.515, 71.586 164.056, 73.237 " />
            <path fill="none" stroke-width="3.0" stroke-linecap="butt" stroke-opacity="1.0" stroke="rgb(0, 0, 0)" stroke-linejoin="round" d=" M 52.352, 128.879 55.550, 128.070 56.017, 127.951 56.593, 127.806 66.127, 124.788 67.995, 124.196 77.481, 121.031 85.973, 118.197 95.431, 114.951 104.889, 111.705 108.493, 110.468 117.929, 107.158 127.366, 103.848 132.301, 102.117 141.714, 98.741 151.127, 95.366 153.761, 94.421 163.141, 90.955 168.478, 88.983 169.916, 88.452 174.388, 86.698 176.888, 85.717 " />
            <path fill="none" stroke-width="3.0" stroke-linecap="butt" stroke-opacity="1.0" stroke="rgb(0, 0, 0)" stroke-linejoin="round" d=" M 47.860, 108.390 51.950, 106.714 " />
            <path fill="none" stroke-width="3.0" stroke-linecap="butt" stroke-opacity="1.0" stroke="rgb(0, 0, 0)" stroke-linejoin="round" d=" M 175.326, 70.742 173.916, 70.629 173.794, 70.619 172.285, 70.498 172.105, 70.484 171.125, 70.405 " />
            <path fill="none" stroke-width="3.0" stroke-linecap="butt" stroke-opacity="1.0" stroke="rgb(0, 0, 0)" stroke-linejoin="round" d=" M 103.360, 43.067 97.631, 44.566 91.251, 46.912 86.819, 49.147 " />
            <path fill="none" stroke-width="3.0" stroke-linecap="butt" stroke-opacity="1.0" stroke="rgb(0, 0, 0)" stroke-linejoin="round" d=" M 105.891, 42.742 104.353, 41.283 100.871, 39.328 99.012, 39.337 93.766, 40.139 88.338, 43.277 87.808, 44.147 86.352, 47.907 86.137, 49.559 " />
            <path fill="none" stroke-width="3.0" stroke-linecap="butt" stroke-opacity="1.0" stroke="rgb(0, 0, 0)" stroke-linejoin="round" d=" M 145.787, 120.798 142.186, 122.071 140.039, 122.830 130.611, 126.163 121.183, 129.496 112.098, 132.708 102.591, 135.809 101.725, 136.091 92.218, 139.192 82.711, 142.293 80.314, 143.075 " />
            <path fill="none" stroke-width="3.0" stroke-linecap="butt" stroke-opacity="1.0" stroke="rgb(0, 0, 0)" stroke-linejoin="round" d=" M 41.955, 157.617 51.747, 155.588 55.068, 154.900 56.912, 154.519 66.535, 151.801 76.159, 149.084 81.803, 147.491 91.320, 144.421 100.620, 141.421 110.137, 138.352 113.774, 137.179 113.907, 137.132 123.333, 133.793 132.760, 130.455 137.251, 128.865 142.552, 126.987 142.910, 126.861 147.235, 125.329 " />
            <path fill="none" stroke-width="3.0" stroke-linecap="butt" stroke-opacity="1.0" stroke="rgb(0, 0, 0)" stroke-linejoin="round" d=" M 167.983, 117.298 177.307, 113.684 177.401, 113.647 183.082, 111.169 186.260, 109.783 186.929, 109.491 188.920, 108.622 188.969, 108.601 191.471, 107.509 191.542, 107.478 193.035, 106.827 194.051, 106.384 198.211, 104.569 207.016, 99.829 209.489, 98.497 " />
            <path fill="none" stroke-width="3.0" stroke-linecap="butt" stroke-opacity="1.0" stroke="rgb(0, 0, 0)" stroke-linejoin="round" d=" M 185.086, 53.317 184.548, 52.580 184.527, 52.567 184.505, 52.554 184.498, 52.550 182.168, 51.154 179.452, 51.860 177.559, 53.393 " />
            <path fill="none" stroke-width="3.0" stroke-linecap="butt" stroke-opacity="1.0" stroke="rgb(0, 0, 0)" stroke-linejoin="round" d=" M 184.491, 52.395 184.498, 52.550 " />
            <path fill="none" stroke-width="3.0" stroke-linecap="butt" stroke-opacity="1.0" stroke="rgb(0, 0, 0)" stroke-linejoin="round" d=" M 184.603, 79.298 182.107, 75.726 182.043, 75.634 181.877, 75.397 181.406, 74.722 " />
            <path fill="none" stroke-width="3.0" stroke-linecap="butt" stroke-opacity="1.0" stroke="rgb(0, 0, 0)" stroke-linejoin="round" d=" M 189.447, 70.329 189.861, 70.215 190.057, 70.160 " />
            <path fill="none" stroke-width="3.0" stroke-linecap="butt" stroke-opacity="1.0" stroke="rgb(0, 0, 0)" stroke-linejoin="round" d=" M 190.612, 69.867 190.812, 70.305 " />
            <path fill="none" stroke-width="3.0" stroke-linecap="butt" stroke-opacity="1.0" stroke="rgb(0, 0, 0)" stroke-linejoin="round" d=" M 189.598, 70.140 189.766, 70.095 189.777, 70.092 189.846, 70.073 189.997, 70.033 190.612, 69.867 190.620, 69.865 190.891, 69.792 " />
            <path fill="none" stroke-width="3.0" stroke-linecap="butt" stroke-opacity="1.0" stroke="rgb(0, 0, 0)" stroke-linejoin="round" d=" M 189.068, 70.608 189.447, 70.329 189.766, 70.095 " />
            <path fill="none" stroke-width="3.0" stroke-linecap="butt" stroke-opacity="1.0" stroke="rgb(0, 0, 0)" stroke-linejoin="round" d=" M 182.107, 75.726 182.508, 75.431 183.330, 74.827 " />
            <path fill="none" stroke-width="3.0" stroke-linecap="butt" stroke-opacity="1.0" stroke="rgb(0, 0, 0)" stroke-linejoin="round" d=" M 196.899, 84.736 197.418, 83.261 " />
            <path fill="none" stroke-width="3.0" stroke-linecap="butt" stroke-opacity="1.0" stroke="rgb(0, 0, 0)" stroke-linejoin="round" d=" M 200.493, 136.590 202.861, 135.823 " />
        </g>
    </g>
</svg>
