<?xml version='1.0' encoding='ascii'?>
<svg xmlns="http://www.w3.org/2000/svg" version="1.1" width="250" height="250">
    <g id="ViewLayer_LineSet" xmlns:inkscape="http://www.inkscape.org/namespaces/inkscape" inkscape:groupmode="lineset" inkscape:label="ViewLayer_LineSet">
        <g xmlns:inkscape="http://www.inkscape.org/namespaces/inkscape" inkscape:groupmode="layer" id="strokes" inkscape:label="strokes">
            <path fill="none" stroke-width="3.0" stroke-linecap="butt" stroke-opacity="1.0" stroke="rgb(0, 0, 0)" stroke-linejoin="round" d=" M 201.450, 141.799 201.463, 141.467 201.316, 138.638 200.789, 131.859 199.644, 125.555 199.609, 125.427 " />
            <path fill="none" stroke-width="3.0" stroke-linecap="butt" stroke-opacity="1.0" stroke="rgb(0, 0, 0)" stroke-linejoin="round" d=" M 147.026, 212.233 147.114, 212.210 151.915, 210.945 155.717, 209.390 161.880, 206.722 168.502, 202.881 174.207, 198.700 179.405, 193.990 181.437, 191.979 181.790, 191.581 " />
            <path fill="none" stroke-width="3.0" stroke-linecap="butt" stroke-opacity="1.0" stroke="rgb(0, 0, 0)" stroke-linejoin="round" d=" M 59.853, 165.859 63.383, 174.217 68.744, 182.659 70.105, 184.802 72.076, 187.691 77.965, 194.083 " />
            <path fill="none" stroke-width="3.0" stroke-linecap="butt" stroke-opacity="1.0" stroke="rgb(0, 0, 0)" stroke-linejoin="round" d=" M 82.487, 190.056 77.996, 194.040 77.965, 194.083 74.808, 198.520 74.552, 198.899 72.957, 203.319 72.880, 208.469 75.037, 214.153 78.556, 218.548 86.393, 224.759 87.163, 225.369 95.378, 231.072 95.938, 231.461 98.709, 233.380 107.221, 238.627 109.753, 240.187 118.349, 245.297 120.466, 246.556 123.772, 248.449 128.351, 250.448 " />
            <path fill="none" stroke-width="3.0" stroke-linecap="butt" stroke-opacity="1.0" stroke="rgb(0, 0, 0)" stroke-linejoin="round" d=" M 155.745, 250.987 159.302, 248.216 161.784, 244.780 163.329, 241.564 164.385, 237.557 164.825, 233.721 163.427, 226.906 161.950, 222.950 159.360, 220.175 155.472, 216.311 147.114, 212.210 " />
            <path fill="none" stroke-width="3.0" stroke-linecap="butt" stroke-opacity="1.0" stroke="rgb(0, 0, 0)" stroke-linejoin="round" d=" M 151.088, 221.109 148.938, 216.180 145.767, 212.529 145.749, 212.510 144.877, 211.558 " />
            <path fill="none" stroke-width="3.0" stroke-linecap="butt" stroke-opacity="1.0" stroke="rgb(0, 0, 0)" stroke-linejoin="round" d=" M 168.292, 183.586 168.518, 183.749 174.037, 187.735 175.459, 188.581 180.162, 190.987 181.790, 191.581 184.669, 192.631 189.303, 193.530 193.321, 193.527 196.993, 192.952 198.750, 192.424 202.045, 191.228 204.988, 189.467 207.638, 187.238 208.850, 186.198 211.101, 183.341 212.850, 180.197 213.460, 178.773 214.453, 175.817 215.023, 172.489 215.097, 168.676 214.400, 164.222 212.998, 159.740 212.820, 159.197 210.588, 154.214 206.549, 148.093 202.328, 142.794 201.450, 141.799 198.232, 138.150 193.879, 134.264 190.269, 131.871 " />
            <path fill="none" stroke-width="3.0" stroke-linecap="butt" stroke-opacity="1.0" stroke="rgb(0, 0, 0)" stroke-linejoin="round" d=" M 186.798, 81.153 186.861, 81.174 187.420, 81.355 189.348, 81.982 193.024, 83.135 196.880, 84.035 200.669, 83.783 203.863, 82.943 206.328, 82.072 206.846, 81.067 207.639, 77.090 206.884, 70.926 205.500, 66.087 204.199, 62.442 205.840, 59.349 207.601, 54.849 208.311, 50.017 207.701, 45.154 204.449, 41.845 199.487, 39.508 195.673, 38.767 192.879, 38.511 190.960, 35.350 188.152, 31.330 184.002, 27.136 180.599, 25.613 179.427, 25.244 177.127, 26.480 174.703, 28.967 172.052, 32.004 169.228, 38.507 167.625, 43.099 167.295, 44.055 167.144, 44.493 167.133, 44.527 166.391, 46.676 " />
            <path fill="none" stroke-width="3.0" stroke-linecap="butt" stroke-opacity="1.0" stroke="rgb(0, 0, 0)" stroke-linejoin="round" d=" M 203.863, 82.943 199.984, 83.192 " />
            <path fill="none" stroke-width="3.0" stroke-linecap="butt" stroke-opacity="1.0" stroke="rgb(0, 0, 0)" stroke-linejoin="round" d=" M 176.741, 55.232 176.827, 55.548 " />
            <path fill="none" stroke-width="3.0" stroke-linecap="butt" stroke-opacity="1.0" stroke="rgb(0, 0, 0)" stroke-linejoin="round" d=" M 51.203, 124.762 49.591, 126.367 45.103, 131.104 41.613, 138.776 40.373, 144.090 38.679, 152.993 39.600, 156.709 46.727, 163.471 56.566, 165.261 59.853, 165.859 63.944, 166.604 73.931, 166.088 83.917, 165.573 91.006, 165.207 93.461, 164.788 103.272, 162.851 113.083, 160.914 122.893, 158.977 125.178, 158.526 134.697, 155.463 144.216, 152.399 147.987, 151.186 157.434, 148.146 166.507, 143.939 175.579, 139.733 178.301, 138.471 184.829, 135.444 186.306, 134.605 190.269, 131.871 198.500, 126.193 199.609, 125.427 201.084, 124.410 205.290, 121.508 205.634, 121.271 " />
            <path fill="none" stroke-width="3.0" stroke-linecap="butt" stroke-opacity="1.0" stroke="rgb(0, 0, 0)" stroke-linejoin="round" d=" M 173.416, 56.036 171.574, 56.788 170.334, 57.294 170.020, 57.423 168.219, 58.158 167.743, 58.353 167.067, 59.376 " />
            <path fill="none" stroke-width="3.0" stroke-linecap="butt" stroke-opacity="1.0" stroke="rgb(0, 0, 0)" stroke-linejoin="round" d=" M 176.220, 55.474 176.741, 55.232 175.772, 55.418 " />
            <path fill="none" stroke-width="3.0" stroke-linecap="butt" stroke-opacity="1.0" stroke="rgb(0, 0, 0)" stroke-linejoin="round" d=" M 168.626, 60.786 168.676, 60.706 170.224, 58.257 172.291, 57.298 " />
            <path fill="none" stroke-width="3.0" stroke-linecap="butt" stroke-opacity="1.0" stroke="rgb(0, 0, 0)" stroke-linejoin="round" d=" M 201.084, 124.410 202.336, 124.951 205.504, 123.330 212.836, 116.530 213.405, 116.003 214.103, 113.494 214.495, 110.502 214.063, 106.643 213.352, 103.813 213.157, 103.040 211.922, 100.632 211.162, 99.149 208.295, 94.942 208.123, 94.689 204.255, 90.389 198.990, 86.949 189.924, 82.730 188.516, 82.075 187.060, 81.589 " />
            <path fill="none" stroke-width="3.0" stroke-linecap="butt" stroke-opacity="1.0" stroke="rgb(0, 0, 0)" stroke-linejoin="round" d=" M 188.516, 82.075 189.655, 82.840 190.327, 83.292 193.050, 85.121 193.352, 85.365 197.162, 88.445 197.350, 88.597 200.270, 92.914 201.973, 97.782 202.521, 99.783 202.730, 100.548 203.235, 102.389 204.898, 108.056 206.344, 112.513 207.042, 114.668 206.966, 119.487 206.964, 119.587 205.504, 123.330 205.290, 121.508 " />
            <path fill="none" stroke-width="3.0" stroke-linecap="butt" stroke-opacity="1.0" stroke="rgb(0, 0, 0)" stroke-linejoin="round" d=" M 182.060, 73.465 185.569, 69.389 186.374, 68.300 186.711, 62.665 183.999, 58.320 182.482, 56.460 180.093, 55.951 176.827, 55.548 176.220, 55.474 175.772, 55.418 174.145, 55.218 173.649, 55.774 173.416, 56.036 172.291, 57.298 172.021, 57.600 171.058, 58.680 170.744, 59.032 169.538, 60.385 169.504, 60.978 169.472, 61.551 " />
            <path fill="none" stroke-width="3.0" stroke-linecap="butt" stroke-opacity="1.0" stroke="rgb(0, 0, 0)" stroke-linejoin="round" d=" M 204.199, 62.442 203.577, 63.011 200.696, 64.194 " />
            <path fill="none" stroke-width="3.0" stroke-linecap="butt" stroke-opacity="1.0" stroke="rgb(0, 0, 0)" stroke-linejoin="round" d=" M 189.091, 39.827 191.955, 38.480 192.879, 38.511 " />
            <path fill="none" stroke-width="3.0" stroke-linecap="butt" stroke-opacity="1.0" stroke="rgb(0, 0, 0)" stroke-linejoin="round" d=" M 179.128, 72.713 178.052, 71.239 178.026, 71.203 178.026, 71.202 178.025, 71.201 177.152, 70.006 177.134, 69.981 176.748, 69.451 176.638, 69.301 175.844, 68.214 175.322, 67.498 173.915, 65.570 173.281, 64.997 172.139, 63.964 171.843, 63.696 171.190, 63.106 169.472, 61.551 168.879, 61.015 168.703, 60.856 168.626, 60.786 167.067, 59.376 165.439, 57.904 165.406, 57.874 164.744, 57.276 164.083, 56.678 163.410, 56.069 160.662, 54.389 152.130, 49.175 151.739, 48.936 142.448, 45.237 137.983, 43.458 136.122, 42.788 126.276, 41.045 123.065, 40.477 113.079, 41.005 112.508, 41.035 " />
            <path fill="none" stroke-width="3.0" stroke-linecap="butt" stroke-opacity="1.0" stroke="rgb(0, 0, 0)" stroke-linejoin="round" d=" M 112.664, 41.202 112.508, 41.035 110.863, 39.274 107.305, 36.961 106.183, 36.953 99.752, 37.268 93.241, 41.020 91.519, 44.842 91.058, 47.409 83.191, 51.911 81.430, 53.077 74.108, 59.888 71.347, 62.457 65.523, 70.586 63.054, 74.032 58.724, 83.046 57.392, 85.820 54.846, 95.490 53.948, 98.898 53.343, 102.503 51.701, 104.165 50.806, 108.222 51.046, 118.219 51.203, 124.762 51.311, 129.247 53.670, 130.659 56.487, 132.344 57.175, 132.756 57.872, 133.173 59.201, 133.282 68.656, 134.058 72.058, 134.337 82.006, 133.312 91.953, 132.286 92.946, 132.184 102.716, 130.053 112.487, 127.922 113.599, 127.680 118.040, 126.711 127.574, 123.696 137.109, 120.680 143.627, 118.618 152.826, 114.697 158.423, 112.312 162.511, 110.569 165.782, 109.175 168.586, 107.511 172.477, 105.202 179.506, 101.030 181.519, 99.836 182.720, 98.621 183.152, 98.183 185.243, 96.068 185.628, 95.678 185.727, 95.578 185.794, 95.510 185.904, 95.399 187.616, 93.668 189.440, 91.823 189.472, 90.918 189.513, 89.785 189.632, 86.459 189.652, 85.900 188.392, 83.805 187.972, 83.106 187.320, 82.022 187.237, 81.884 187.060, 81.589 187.041, 81.558 186.817, 81.186 186.798, 81.153 186.157, 80.088 182.235, 73.564 182.060, 73.465 180.867, 72.793 178.085, 71.227 178.043, 71.203 178.025, 71.201 " />
            <path fill="none" stroke-width="3.0" stroke-linecap="butt" stroke-opacity="1.0" stroke="rgb(0, 0, 0)" stroke-linejoin="round" d=" M 177.127, 26.480 174.657, 29.147 " />
            <path fill="none" stroke-width="3.0" stroke-linecap="butt" stroke-opacity="1.0" stroke="rgb(0, 0, 0)" stroke-linejoin="round" d=" M 167.295, 44.055 166.028, 44.862 163.999, 46.541 161.979, 48.742 161.050, 51.932 160.579, 54.124 160.662, 54.389 " />
            <path fill="none" stroke-width="3.0" stroke-linecap="butt" stroke-opacity="1.0" stroke="rgb(0, 0, 0)" stroke-linejoin="round" d=" M 207.177, 45.276 204.576, 46.440 200.656, 48.318 " />
            <path fill="none" stroke-width="3.0" stroke-linecap="butt" stroke-opacity="1.0" stroke="rgb(0, 0, 0)" stroke-linejoin="round" d=" M 89.019, 108.631 79.087, 109.798 70.616, 110.793 69.838, 110.884 69.790, 110.890 69.493, 110.886 62.964, 110.800 56.622, 110.716 50.806, 108.222 " />
            <path fill="none" stroke-width="3.0" stroke-linecap="butt" stroke-opacity="1.0" stroke="rgb(0, 0, 0)" stroke-linejoin="round" d=" M 112.664, 41.202 110.311, 42.494 104.576, 44.531 97.726, 46.497 92.554, 47.593 91.058, 47.409 " />
            <path fill="none" stroke-width="3.0" stroke-linecap="butt" stroke-opacity="1.0" stroke="rgb(0, 0, 0)" stroke-linejoin="round" d=" M 204.978, 117.359 198.587, 121.693 197.516, 122.419 194.951, 124.158 191.291, 126.641 191.031, 126.817 187.601, 129.143 186.527, 129.871 185.667, 130.454 176.577, 134.623 167.488, 138.792 158.398, 142.961 157.171, 143.524 " />
            <path fill="none" stroke-width="3.0" stroke-linecap="butt" stroke-opacity="1.0" stroke="rgb(0, 0, 0)" stroke-linejoin="round" d=" M 91.006, 165.207 100.817, 163.269 110.627, 161.332 120.438, 159.394 124.073, 158.676 133.593, 155.613 143.112, 152.550 147.966, 150.988 157.486, 147.925 157.753, 147.839 166.826, 143.634 175.899, 139.429 184.972, 135.224 186.306, 134.605 " />
            <path fill="none" stroke-width="3.0" stroke-linecap="butt" stroke-opacity="1.0" stroke="rgb(0, 0, 0)" stroke-linejoin="round" d=" M 213.352, 103.813 212.970, 101.290 212.287, 97.728 208.295, 94.942 " />
            <path fill="none" stroke-width="3.0" stroke-linecap="butt" stroke-opacity="1.0" stroke="rgb(0, 0, 0)" stroke-linejoin="round" d=" M 173.029, 54.573 171.429, 53.174 168.787, 53.397 167.791, 53.675 166.866, 53.934 164.083, 56.678 " />
            <path fill="none" stroke-width="3.0" stroke-linecap="butt" stroke-opacity="1.0" stroke="rgb(0, 0, 0)" stroke-linejoin="round" d=" M 171.429, 53.174 169.571, 53.709 167.071, 56.247 165.439, 57.904 " />
            <path fill="none" stroke-width="3.0" stroke-linecap="butt" stroke-opacity="1.0" stroke="rgb(0, 0, 0)" stroke-linejoin="round" d=" M 167.144, 44.493 165.767, 45.349 " />
            <path fill="none" stroke-width="3.0" stroke-linecap="butt" stroke-opacity="1.0" stroke="rgb(0, 0, 0)" stroke-linejoin="round" d=" M 187.041, 81.558 187.420, 81.355 " />
        </g>
    </g>
</svg>
