<?xml version='1.0' encoding='ascii'?>
<svg xmlns="http://www.w3.org/2000/svg" version="1.1" width="250" height="250">
    <g id="ViewLayer_LineSet" xmlns:inkscape="http://www.inkscape.org/namespaces/inkscape" inkscape:groupmode="lineset" inkscape:label="ViewLayer_LineSet">
        <g xmlns:inkscape="http://www.inkscape.org/namespaces/inkscape" inkscape:groupmode="layer" id="strokes" inkscape:label="strokes">
            <path fill="none" stroke-width="3.0" stroke-linecap="butt" stroke-opacity="1.0" stroke="rgb(0, 0, 0)" stroke-linejoin="round" d=" M 114.602, 214.318 115.604, 214.467 118.755, 214.935 123.211, 215.281 127.771, 215.340 132.230, 215.108 136.390, 214.599 140.072, 213.837 142.285, 213.354 147.424, 212.231 151.903, 210.790 157.178, 208.469 163.606, 205.277 170.290, 200.749 176.735, 195.413 182.576, 189.302 183.054, 188.709 188.923, 180.613 189.138, 180.317 192.286, 174.429 193.040, 173.021 195.988, 165.507 196.389, 164.260 197.934, 158.621 199.731, 150.419 199.971, 147.648 199.946, 145.107 199.930, 143.457 199.935, 143.048 " />
            <path fill="none" stroke-width="3.0" stroke-linecap="butt" stroke-opacity="1.0" stroke="rgb(0, 0, 0)" stroke-linejoin="round" d=" M 53.598, 147.862 53.637, 148.315 54.008, 152.594 54.303, 155.095 56.760, 164.788 57.166, 166.393 60.794, 174.690 61.770, 176.921 " />
            <path fill="none" stroke-width="3.0" stroke-linecap="butt" stroke-opacity="1.0" stroke="rgb(0, 0, 0)" stroke-linejoin="round" d=" M 198.406, 149.526 199.055, 148.824 199.490, 147.805 199.699, 146.848 199.847, 145.562 199.914, 144.021 199.935, 143.048 199.938, 142.909 199.938, 142.786 199.939, 141.987 199.949, 141.832 199.992, 141.206 199.879, 138.662 199.863, 135.076 199.540, 132.916 199.456, 132.353 " />
            <path fill="none" stroke-width="3.0" stroke-linecap="butt" stroke-opacity="1.0" stroke="rgb(0, 0, 0)" stroke-linejoin="round" d=" M 198.569, 150.320 198.247, 149.813 " />
            <path fill="none" stroke-width="3.0" stroke-linecap="butt" stroke-opacity="1.0" stroke="rgb(0, 0, 0)" stroke-linejoin="round" d=" M 198.389, 150.312 198.256, 149.845 198.247, 149.813 198.185, 149.596 198.049, 149.121 197.783, 147.512 197.550, 146.281 197.510, 145.259 197.593, 144.273 197.796, 143.558 " />
            <path fill="none" stroke-width="3.0" stroke-linecap="butt" stroke-opacity="1.0" stroke="rgb(0, 0, 0)" stroke-linejoin="round" d=" M 199.938, 142.786 199.943, 142.423 199.949, 141.832 " />
            <path fill="none" stroke-width="3.0" stroke-linecap="butt" stroke-opacity="1.0" stroke="rgb(0, 0, 0)" stroke-linejoin="round" d=" M 201.560, 132.120 201.633, 131.716 201.570, 130.502 201.343, 128.528 200.915, 125.886 200.246, 122.702 199.312, 119.136 198.107, 115.363 196.677, 111.623 195.188, 108.054 193.717, 104.672 192.563, 102.131 192.378, 101.723 " />
            <path fill="none" stroke-width="3.0" stroke-linecap="butt" stroke-opacity="1.0" stroke="rgb(0, 0, 0)" stroke-linejoin="round" d=" M 196.143, 116.695 197.495, 120.591 198.495, 124.363 199.139, 127.843 199.449, 130.873 199.456, 132.353 199.459, 132.948 199.461, 133.308 199.219, 135.032 198.761, 135.955 198.177, 136.296 198.092, 136.194 198.081, 136.180 197.299, 135.239 196.590, 134.077 196.308, 133.616 195.137, 131.232 194.720, 130.301 193.778, 128.200 193.412, 127.363 193.044, 126.521 192.233, 124.666 190.525, 120.806 188.723, 116.867 187.009, 113.000 185.462, 109.225 184.148, 105.694 183.940, 105.056 183.844, 104.761 183.767, 104.525 " />
            <path fill="none" stroke-width="3.0" stroke-linecap="butt" stroke-opacity="1.0" stroke="rgb(0, 0, 0)" stroke-linejoin="round" d=" M 198.761, 135.955 198.081, 136.180 " />
            <path fill="none" stroke-width="3.0" stroke-linecap="butt" stroke-opacity="1.0" stroke="rgb(0, 0, 0)" stroke-linejoin="round" d=" M 189.131, 102.779 189.375, 103.213 190.886, 105.901 192.752, 109.263 " />
            <path fill="none" stroke-width="3.0" stroke-linecap="butt" stroke-opacity="1.0" stroke="rgb(0, 0, 0)" stroke-linejoin="round" d=" M 191.703, 118.365 195.685, 116.867 196.143, 116.695 194.511, 112.905 192.752, 109.263 192.527, 109.350 188.727, 110.811 " />
            <path fill="none" stroke-width="3.0" stroke-linecap="butt" stroke-opacity="1.0" stroke="rgb(0, 0, 0)" stroke-linejoin="round" d=" M 142.285, 213.354 143.652, 214.124 148.330, 215.170 149.572, 215.520 154.500, 215.577 164.123, 215.361 174.111, 214.875 177.100, 214.730 187.079, 214.073 190.274, 213.862 200.274, 213.740 201.503, 213.725 202.855, 213.622 208.213, 211.862 211.969, 210.307 217.755, 207.504 220.200, 205.232 222.954, 201.631 223.738, 199.799 224.363, 195.369 223.491, 191.494 223.071, 189.951 220.759, 186.337 217.396, 183.065 215.928, 181.823 210.620, 178.839 204.175, 176.883 202.494, 176.562 196.853, 175.486 " />
            <path fill="none" stroke-width="3.0" stroke-linecap="butt" stroke-opacity="1.0" stroke="rgb(0, 0, 0)" stroke-linejoin="round" d=" M 202.494, 176.562 197.217, 175.372 192.286, 174.429 " />
            <path fill="none" stroke-width="3.0" stroke-linecap="butt" stroke-opacity="1.0" stroke="rgb(0, 0, 0)" stroke-linejoin="round" d=" M 60.794, 174.690 58.775, 174.781 56.067, 175.502 49.646, 177.819 47.031, 179.689 45.743, 180.615 43.108, 182.559 " />
            <path fill="none" stroke-width="3.0" stroke-linecap="butt" stroke-opacity="1.0" stroke="rgb(0, 0, 0)" stroke-linejoin="round" d=" M 87.694, 250.596 78.922, 245.795 73.507, 242.831 65.715, 236.564 62.018, 233.591 54.534, 226.959 51.391, 224.175 44.683, 216.758 44.439, 216.489 40.264, 210.302 38.534, 205.931 36.834, 201.186 36.835, 197.291 36.935, 193.133 38.238, 189.204 40.251, 185.947 43.108, 182.559 40.720, 185.797 38.238, 189.204 " />
            <path fill="none" stroke-width="3.0" stroke-linecap="butt" stroke-opacity="1.0" stroke="rgb(0, 0, 0)" stroke-linejoin="round" d=" M 118.471, 218.124 117.473, 216.615 115.604, 214.467 " />
            <path fill="none" stroke-width="3.0" stroke-linecap="butt" stroke-opacity="1.0" stroke="rgb(0, 0, 0)" stroke-linejoin="round" d=" M 116.495, 251.414 118.909, 249.617 122.386, 246.474 124.252, 242.749 125.045, 240.488 125.422, 236.109 124.874, 231.223 124.436, 228.641 121.948, 222.864 118.471, 218.124 117.801, 217.212 " />
            <path fill="none" stroke-width="3.0" stroke-linecap="butt" stroke-opacity="1.0" stroke="rgb(0, 0, 0)" stroke-linejoin="round" d=" M 87.853, 149.683 87.101, 154.845 87.245, 160.157 87.893, 165.592 88.904, 170.937 90.456, 176.622 92.880, 182.458 97.600, 189.542 100.161, 192.540 104.965, 196.360 107.731, 197.758 109.822, 198.689 114.199, 199.895 119.127, 200.181 119.907, 200.089 124.494, 199.471 128.359, 198.134 130.416, 197.112 131.431, 196.449 133.368, 195.146 134.030, 194.523 135.160, 193.459 137.707, 190.946 139.684, 187.937 141.736, 184.296 143.519, 180.500 143.667, 179.973 144.773, 176.034 145.155, 169.836 145.269, 164.540 144.870, 159.032 " />
            <path fill="none" stroke-width="3.0" stroke-linecap="butt" stroke-opacity="1.0" stroke="rgb(0, 0, 0)" stroke-linejoin="round" d=" M 187.951, 67.205 188.247, 67.644 188.286, 67.702 188.366, 67.820 188.647, 68.237 188.820, 68.492 189.233, 69.104 193.562, 75.516 199.553, 81.194 205.973, 83.244 208.221, 83.119 211.455, 82.939 214.372, 82.169 215.408, 81.895 216.849, 80.655 216.983, 79.413 216.806, 76.522 " />
            <path fill="none" stroke-width="3.0" stroke-linecap="butt" stroke-opacity="1.0" stroke="rgb(0, 0, 0)" stroke-linejoin="round" d=" M 216.059, 79.539 214.580, 80.771 210.585, 81.844 205.228, 82.162 " />
            <path fill="none" stroke-width="3.0" stroke-linecap="butt" stroke-opacity="1.0" stroke="rgb(0, 0, 0)" stroke-linejoin="round" d=" M 180.997, 51.103 182.567, 50.468 183.059, 52.138 183.354, 53.139 183.423, 53.373 " />
            <path fill="none" stroke-width="3.0" stroke-linecap="butt" stroke-opacity="1.0" stroke="rgb(0, 0, 0)" stroke-linejoin="round" d=" M 208.221, 83.119 209.089, 83.376 214.319, 83.101 218.004, 82.139 219.284, 80.988 219.331, 80.086 218.988, 78.014 219.290, 73.041 218.903, 67.007 216.433, 57.317 215.605, 54.068 214.216, 48.821 210.602, 39.609 206.333, 30.566 205.210, 28.186 201.398, 22.513 198.057, 18.733 196.354, 15.554 194.535, 15.357 191.012, 17.226 187.287, 20.730 184.094, 27.067 182.526, 36.944 182.417, 37.631 182.571, 43.014 182.715, 48.071 182.610, 49.783 182.607, 49.820 182.567, 50.468 " />
            <path fill="none" stroke-width="3.0" stroke-linecap="butt" stroke-opacity="1.0" stroke="rgb(0, 0, 0)" stroke-linejoin="round" d=" M 179.532, 74.394 178.837, 73.381 178.454, 72.821 " />
            <path fill="none" stroke-width="3.0" stroke-linecap="butt" stroke-opacity="1.0" stroke="rgb(0, 0, 0)" stroke-linejoin="round" d=" M 188.647, 68.237 187.951, 68.759 181.614, 73.516 181.516, 73.590 180.278, 74.519 179.865, 74.450 179.532, 74.394 179.742, 74.238 179.970, 74.068 180.767, 73.475 181.206, 73.148 186.507, 69.203 188.366, 67.820 " />
            <path fill="none" stroke-width="3.0" stroke-linecap="butt" stroke-opacity="1.0" stroke="rgb(0, 0, 0)" stroke-linejoin="round" d=" M 165.770, 58.699 164.390, 59.519 164.371, 59.577 164.214, 60.072 " />
            <path fill="none" stroke-width="3.0" stroke-linecap="butt" stroke-opacity="1.0" stroke="rgb(0, 0, 0)" stroke-linejoin="round" d=" M 165.758, 58.875 164.777, 59.636 164.611, 59.764 164.214, 60.072 165.265, 62.131 165.521, 62.534 " />
            <path fill="none" stroke-width="3.0" stroke-linecap="butt" stroke-opacity="1.0" stroke="rgb(0, 0, 0)" stroke-linejoin="round" d=" M 207.107, 97.015 210.023, 94.888 208.075, 91.263 203.410, 87.065 196.286, 83.307 196.257, 83.292 " />
            <path fill="none" stroke-width="3.0" stroke-linecap="butt" stroke-opacity="1.0" stroke="rgb(0, 0, 0)" stroke-linejoin="round" d=" M 39.224, 152.830 46.727, 150.195 53.598, 147.862 63.067, 144.647 64.290, 144.231 73.770, 141.048 83.250, 137.864 90.849, 135.313 96.691, 133.365 106.177, 130.201 115.664, 127.038 116.710, 126.689 119.578, 125.733 120.120, 125.552 " />
            <path fill="none" stroke-width="3.0" stroke-linecap="butt" stroke-opacity="1.0" stroke="rgb(0, 0, 0)" stroke-linejoin="round" d=" M 52.068, 124.568 49.470, 126.122 49.463, 126.126 45.725, 128.362 40.803, 133.735 36.835, 142.481 35.288, 148.724 36.161, 152.698 39.224, 152.830 40.904, 152.406 49.897, 149.534 53.637, 148.315 " />
            <path fill="none" stroke-width="3.0" stroke-linecap="butt" stroke-opacity="1.0" stroke="rgb(0, 0, 0)" stroke-linejoin="round" d=" M 143.576, 117.772 145.599, 117.101 154.898, 114.019 161.347, 111.896 165.322, 110.588 165.444, 110.548 172.518, 108.219 172.732, 108.149 176.387, 106.946 176.695, 106.844 177.916, 106.443 178.286, 106.321 181.601, 105.230 183.701, 104.546 183.767, 104.525 184.654, 104.236 185.686, 103.900 188.936, 102.843 189.131, 102.779 191.072, 102.148 192.378, 101.723 199.374, 99.446 207.107, 97.015 205.657, 97.631 196.838, 100.682 192.563, 102.131 " />
            <path fill="none" stroke-width="3.0" stroke-linecap="butt" stroke-opacity="1.0" stroke="rgb(0, 0, 0)" stroke-linejoin="round" d=" M 181.614, 73.516 184.179, 73.641 189.233, 69.104 " />
            <path fill="none" stroke-width="3.0" stroke-linecap="butt" stroke-opacity="1.0" stroke="rgb(0, 0, 0)" stroke-linejoin="round" d=" M 186.853, 64.079 187.951, 67.205 185.288, 68.053 " />
            <path fill="none" stroke-width="3.0" stroke-linecap="butt" stroke-opacity="1.0" stroke="rgb(0, 0, 0)" stroke-linejoin="round" d=" M 120.120, 125.552 120.413, 126.306 120.708, 127.065 121.393, 125.981 121.716, 125.471 121.801, 124.992 121.804, 124.972 122.064, 123.511 122.319, 122.075 122.398, 121.631 122.420, 121.512 122.436, 121.418 " />
            <path fill="none" stroke-width="3.0" stroke-linecap="butt" stroke-opacity="1.0" stroke="rgb(0, 0, 0)" stroke-linejoin="round" d=" M 122.436, 121.418 125.063, 117.489 125.076, 117.470 125.962, 116.145 127.014, 114.641 130.989, 108.958 137.468, 102.847 140.840, 99.608 141.563, 98.914 142.692, 97.830 149.571, 92.515 157.304, 87.798 160.197, 86.257 164.417, 84.010 164.496, 83.969 168.750, 81.757 169.035, 81.608 170.796, 80.693 176.130, 78.908 176.938, 78.602 179.906, 77.480 179.943, 77.478 " />
            <path fill="none" stroke-width="3.0" stroke-linecap="butt" stroke-opacity="1.0" stroke="rgb(0, 0, 0)" stroke-linejoin="round" d=" M 142.132, 120.414 142.740, 118.873 142.791, 118.744 143.168, 117.907 143.838, 116.418 143.930, 116.214 144.049, 115.950 146.621, 112.645 151.628, 108.401 157.365, 104.434 163.530, 100.094 170.819, 95.081 173.730, 93.160 178.179, 90.224 178.378, 90.107 178.801, 89.857 184.204, 86.667 184.728, 86.358 184.898, 86.254 187.899, 84.421 188.741, 83.907 190.555, 82.799 192.890, 82.129 194.866, 81.563 196.000, 81.398 196.731, 81.683 196.380, 83.025 196.286, 83.307 " />
            <path fill="none" stroke-width="3.0" stroke-linecap="butt" stroke-opacity="1.0" stroke="rgb(0, 0, 0)" stroke-linejoin="round" d=" M 120.708, 127.065 130.258, 124.100 139.809, 121.135 142.132, 120.414 143.026, 118.777 143.573, 117.776 " />
            <path fill="none" stroke-width="3.0" stroke-linecap="butt" stroke-opacity="1.0" stroke="rgb(0, 0, 0)" stroke-linejoin="round" d=" M 142.791, 118.744 143.573, 117.776 143.576, 117.772 143.640, 117.693 144.472, 116.664 145.100, 115.886 " />
            <path fill="none" stroke-width="3.0" stroke-linecap="butt" stroke-opacity="1.0" stroke="rgb(0, 0, 0)" stroke-linejoin="round" d=" M 196.000, 81.398 186.434, 78.485 184.540, 77.908 182.610, 77.321 181.564, 77.382 " />
            <path fill="none" stroke-width="3.0" stroke-linecap="butt" stroke-opacity="1.0" stroke="rgb(0, 0, 0)" stroke-linejoin="round" d=" M 175.408, 72.674 176.456, 72.724 177.350, 72.768 178.454, 72.821 178.934, 72.844 179.141, 72.854 179.923, 72.892 180.599, 72.282 182.723, 70.367 184.059, 69.162 184.504, 68.760 185.288, 68.053 185.410, 67.943 186.658, 66.818 186.853, 64.079 186.935, 62.912 187.105, 60.516 " />
            <path fill="none" stroke-width="3.0" stroke-linecap="butt" stroke-opacity="1.0" stroke="rgb(0, 0, 0)" stroke-linejoin="round" d=" M 183.982, 54.006 183.423, 53.373 183.212, 53.134 182.747, 52.608 182.510, 52.341 181.855, 51.600 181.428, 51.117 180.997, 51.103 176.839, 50.967 175.618, 50.927 172.574, 50.827 172.043, 51.312 165.877, 57.040 165.770, 58.699 165.758, 58.875 165.753, 58.961 165.684, 60.025 165.644, 60.630 165.521, 62.534 165.337, 65.377 165.391, 65.887 " />
            <path fill="none" stroke-width="3.0" stroke-linecap="butt" stroke-opacity="1.0" stroke="rgb(0, 0, 0)" stroke-linejoin="round" d=" M 216.646, 78.261 216.711, 77.559 216.806, 76.522 216.809, 76.491 217.106, 73.255 217.123, 72.876 217.431, 65.844 217.370, 64.658 " />
            <path fill="none" stroke-width="3.0" stroke-linecap="butt" stroke-opacity="1.0" stroke="rgb(0, 0, 0)" stroke-linejoin="round" d=" M 216.809, 76.491 217.263, 77.474 218.354, 79.655 219.284, 80.988 " />
            <path fill="none" stroke-width="3.0" stroke-linecap="butt" stroke-opacity="1.0" stroke="rgb(0, 0, 0)" stroke-linejoin="round" d=" M 216.849, 80.655 216.059, 79.539 214.906, 76.475 214.209, 74.620 211.623, 67.095 209.717, 61.265 208.328, 56.917 " />
            <path fill="none" stroke-width="3.0" stroke-linecap="butt" stroke-opacity="1.0" stroke="rgb(0, 0, 0)" stroke-linejoin="round" d=" M 199.840, 29.299 199.536, 29.370 199.280, 29.927 199.522, 32.285 200.437, 35.963 202.415, 41.730 204.584, 47.576 206.767, 53.099 208.328, 56.917 206.619, 57.665 202.062, 59.298 " />
            <path fill="none" stroke-width="3.0" stroke-linecap="butt" stroke-opacity="1.0" stroke="rgb(0, 0, 0)" stroke-linejoin="round" d=" M 196.354, 15.554 196.470, 16.966 197.570, 21.390 198.813, 25.787 199.840, 29.299 197.960, 29.428 193.555, 31.449 " />
            <path fill="none" stroke-width="3.0" stroke-linecap="butt" stroke-opacity="1.0" stroke="rgb(0, 0, 0)" stroke-linejoin="round" d=" M 164.371, 59.577 156.496, 53.414 154.462, 51.823 145.566, 47.256 142.770, 45.820 133.213, 42.878 129.536, 41.746 124.971, 41.268 115.014, 40.347 113.568, 40.213 108.824, 40.705 105.829, 41.298 102.415, 41.973 " />
            <path fill="none" stroke-width="3.0" stroke-linecap="butt" stroke-opacity="1.0" stroke="rgb(0, 0, 0)" stroke-linejoin="round" d=" M 198.541, 36.223 194.634, 37.969 190.304, 40.648 " />
            <path fill="none" stroke-width="3.0" stroke-linecap="butt" stroke-opacity="1.0" stroke="rgb(0, 0, 0)" stroke-linejoin="round" d=" M 49.463, 126.126 49.236, 126.156 48.364, 124.992 54.806, 121.388 55.989, 120.888 59.166, 119.544 68.376, 115.648 68.920, 115.418 78.284, 111.907 87.647, 108.396 89.677, 107.634 99.130, 104.371 108.583, 101.108 114.433, 99.089 123.958, 96.044 133.484, 92.999 139.404, 91.106 149.005, 88.312 158.607, 85.518 160.759, 84.892 164.496, 83.969 " />
            <path fill="none" stroke-width="3.0" stroke-linecap="butt" stroke-opacity="1.0" stroke="rgb(0, 0, 0)" stroke-linejoin="round" d=" M 169.604, 68.615 168.809, 68.652 168.327, 68.727 167.925, 68.790 158.046, 70.340 152.758, 71.170 " />
            <path fill="none" stroke-width="3.0" stroke-linecap="butt" stroke-opacity="1.0" stroke="rgb(0, 0, 0)" stroke-linejoin="round" d=" M 52.068, 124.568 55.566, 122.659 57.151, 121.793 58.353, 121.137 67.576, 117.272 71.825, 115.492 81.193, 111.994 90.562, 108.497 91.463, 108.160 100.917, 104.902 110.371, 101.643 114.791, 100.119 124.315, 97.070 133.839, 94.021 138.314, 92.588 147.912, 89.780 157.510, 86.972 158.499, 86.682 160.197, 86.257 " />
            <path fill="none" stroke-width="3.0" stroke-linecap="butt" stroke-opacity="1.0" stroke="rgb(0, 0, 0)" stroke-linejoin="round" d=" M 90.287, 46.003 87.179, 47.485 84.343, 48.838 80.275, 51.273 72.838, 57.959 71.728, 58.957 68.411, 62.054 62.508, 70.125 60.225, 73.247 55.823, 82.226 54.433, 85.061 51.805, 94.709 50.746, 98.595 50.069, 102.399 48.323, 104.186 48.343, 114.186 48.362, 124.186 48.364, 124.992 " />
            <path fill="none" stroke-width="3.0" stroke-linecap="butt" stroke-opacity="1.0" stroke="rgb(0, 0, 0)" stroke-linejoin="round" d=" M 168.809, 68.652 167.732, 68.569 164.876, 68.351 " />
            <path fill="none" stroke-width="3.0" stroke-linecap="butt" stroke-opacity="1.0" stroke="rgb(0, 0, 0)" stroke-linejoin="round" d=" M 102.415, 41.973 96.203, 43.561 90.287, 46.003 " />
            <path fill="none" stroke-width="3.0" stroke-linecap="butt" stroke-opacity="1.0" stroke="rgb(0, 0, 0)" stroke-linejoin="round" d=" M 105.829, 41.298 104.716, 40.211 101.453, 38.359 98.836, 38.397 94.829, 39.329 91.030, 40.990 88.930, 42.520 87.421, 45.957 87.179, 47.485 " />
            <path fill="none" stroke-width="3.0" stroke-linecap="butt" stroke-opacity="1.0" stroke="rgb(0, 0, 0)" stroke-linejoin="round" d=" M 120.844, 118.793 120.712, 118.837 111.233, 122.024 101.754, 125.210 92.276, 128.396 87.693, 129.936 78.239, 133.196 68.786, 136.456 60.314, 139.377 " />
            <path fill="none" stroke-width="3.0" stroke-linecap="butt" stroke-opacity="1.0" stroke="rgb(0, 0, 0)" stroke-linejoin="round" d=" M 36.161, 152.698 41.669, 150.702 43.737, 149.953 53.194, 146.702 53.489, 146.600 61.843, 143.728 71.317, 140.529 80.792, 137.329 89.440, 134.408 98.925, 131.240 99.214, 131.144 108.698, 127.975 112.911, 126.568 119.884, 124.239 120.728, 123.957 122.064, 123.511 " />
            <path fill="none" stroke-width="3.0" stroke-linecap="butt" stroke-opacity="1.0" stroke="rgb(0, 0, 0)" stroke-linejoin="round" d=" M 145.008, 115.917 145.100, 115.886 154.594, 112.745 156.230, 112.204 160.444, 110.825 169.948, 107.714 175.346, 105.948 177.899, 105.112 179.845, 104.475 182.973, 103.452 183.375, 103.320 183.395, 103.314 184.186, 103.059 185.148, 102.749 188.283, 101.740 188.419, 101.696 190.617, 100.989 191.842, 100.594 201.361, 97.530 202.032, 97.314 203.791, 96.780 210.023, 94.888 " />
            <path fill="none" stroke-width="3.0" stroke-linecap="butt" stroke-opacity="1.0" stroke="rgb(0, 0, 0)" stroke-linejoin="round" d=" M 182.610, 49.783 181.094, 48.897 180.356, 48.505 177.579, 49.285 175.618, 50.927 " />
            <path fill="none" stroke-width="3.0" stroke-linecap="butt" stroke-opacity="1.0" stroke="rgb(0, 0, 0)" stroke-linejoin="round" d=" M 182.607, 49.820 180.356, 48.505 " />
            <path fill="none" stroke-width="3.0" stroke-linecap="butt" stroke-opacity="1.0" stroke="rgb(0, 0, 0)" stroke-linejoin="round" d=" M 177.350, 72.768 177.743, 73.327 180.634, 77.437 " />
            <path fill="none" stroke-width="3.0" stroke-linecap="butt" stroke-opacity="1.0" stroke="rgb(0, 0, 0)" stroke-linejoin="round" d=" M 184.504, 68.760 187.417, 67.945 188.286, 67.702 " />
            <path fill="none" stroke-width="3.0" stroke-linecap="butt" stroke-opacity="1.0" stroke="rgb(0, 0, 0)" stroke-linejoin="round" d=" M 184.540, 77.908 181.516, 73.590 " />
            <path fill="none" stroke-width="3.0" stroke-linecap="butt" stroke-opacity="1.0" stroke="rgb(0, 0, 0)" stroke-linejoin="round" d=" M 187.951, 68.759 188.820, 68.492 " />
            <path fill="none" stroke-width="3.0" stroke-linecap="butt" stroke-opacity="1.0" stroke="rgb(0, 0, 0)" stroke-linejoin="round" d=" M 195.686, 137.050 198.177, 136.296 " />
            <path fill="none" stroke-width="3.0" stroke-linecap="butt" stroke-opacity="1.0" stroke="rgb(0, 0, 0)" stroke-linejoin="round" d=" M 198.185, 149.596 198.406, 149.526 " />
            <path fill="none" stroke-width="3.0" stroke-linecap="butt" stroke-opacity="1.0" stroke="rgb(0, 0, 0)" stroke-linejoin="round" d=" M 199.540, 132.916 201.560, 132.120 " />
        </g>
    </g>
</svg>
