<?xml version='1.0' encoding='ascii'?>
<svg xmlns="http://www.w3.org/2000/svg" version="1.1" width="250" height="250">
    <g id="ViewLayer_LineSet" xmlns:inkscape="http://www.inkscape.org/namespaces/inkscape" inkscape:groupmode="lineset" inkscape:label="ViewLayer_LineSet">
        <g xmlns:inkscape="http://www.inkscape.org/namespaces/inkscape" inkscape:groupmode="layer" id="strokes" inkscape:label="strokes">
            <path fill="none" stroke-width="3.0" stroke-linecap="butt" stroke-opacity="1.0" stroke="rgb(0, 0, 0)" stroke-linejoin="round" d=" M 167.446, 197.284 174.468, 190.023 180.098, 181.759 180.782, 180.755 182.514, 178.198 " />
            <path fill="none" stroke-width="3.0" stroke-linecap="butt" stroke-opacity="1.0" stroke="rgb(0, 0, 0)" stroke-linejoin="round" d=" M 59.377, 99.562 57.982, 101.315 53.742, 108.426 49.929, 117.100 49.338, 119.018 48.405, 122.044 48.301, 122.381 47.991, 123.387 47.265, 125.743 46.025, 131.903 45.494, 138.287 45.251, 142.779 45.497, 148.439 45.965, 152.937 46.846, 157.584 47.687, 161.535 48.970, 165.839 50.635, 170.306 52.102, 173.605 52.607, 174.743 54.802, 178.956 57.127, 182.762 59.480, 185.986 62.399, 189.870 65.401, 193.154 69.504, 197.230 72.972, 199.943 76.733, 202.827 78.144, 203.909 84.104, 207.465 89.833, 210.052 93.660, 211.714 98.582, 213.127 99.914, 213.441 " />
            <path fill="none" stroke-width="3.0" stroke-linecap="butt" stroke-opacity="1.0" stroke="rgb(0, 0, 0)" stroke-linejoin="round" d=" M 189.655, 125.748 188.841, 121.940 188.651, 121.451 " />
            <path fill="none" stroke-width="3.0" stroke-linecap="butt" stroke-opacity="1.0" stroke="rgb(0, 0, 0)" stroke-linejoin="round" d=" M 77.319, 151.238 77.875, 152.639 78.550, 153.661 79.242, 154.709 81.140, 156.370 83.340, 157.600 85.386, 158.045 87.484, 157.976 89.862, 157.150 91.914, 155.823 93.466, 153.978 94.182, 152.662 " />
            <path fill="none" stroke-width="3.0" stroke-linecap="butt" stroke-opacity="1.0" stroke="rgb(0, 0, 0)" stroke-linejoin="round" d=" M 117.662, 102.078 117.857, 102.730 118.250, 104.044 118.707, 107.435 118.753, 111.261 118.769, 111.330 117.678, 119.628 117.663, 119.743 117.662, 119.749 116.441, 123.964 114.941, 128.256 113.189, 132.254 111.250, 135.766 109.191, 138.619 108.812, 138.988 108.424, 139.365 107.082, 140.671 104.996, 141.818 103.005, 142.002 101.687, 141.428 101.184, 141.209 99.604, 139.474 98.674, 137.570 98.420, 137.050 98.335, 136.876 97.439, 133.535 96.962, 129.613 96.936, 125.297 97.367, 120.794 98.218, 116.380 98.380, 115.818 98.423, 115.666 99.416, 112.215 100.932, 108.310 102.707, 104.807 104.672, 101.830 105.603, 100.778 " />
            <path fill="none" stroke-width="3.0" stroke-linecap="butt" stroke-opacity="1.0" stroke="rgb(0, 0, 0)" stroke-linejoin="round" d=" M 77.515, 119.701 76.541, 123.997 76.403, 124.522 75.460, 128.109 74.468, 131.255 74.337, 131.672 74.286, 131.834 73.024, 134.987 71.682, 137.410 70.276, 138.981 69.098, 139.509 68.833, 139.628 67.417, 139.620 66.036, 138.082 64.822, 135.976 63.840, 133.114 63.171, 129.641 63.076, 128.349 63.040, 127.873 62.882, 125.730 63.013, 121.570 63.313, 119.317 63.566, 117.417 64.427, 113.416 65.541, 109.569 66.863, 106.015 67.433, 104.803 67.674, 104.290 68.339, 102.876 69.911, 100.257 70.738, 99.224 " />
            <path fill="none" stroke-width="3.0" stroke-linecap="butt" stroke-opacity="1.0" stroke="rgb(0, 0, 0)" stroke-linejoin="round" d=" M 67.417, 139.620 70.606, 141.001 " />
            <path fill="none" stroke-width="3.0" stroke-linecap="butt" stroke-opacity="1.0" stroke="rgb(0, 0, 0)" stroke-linejoin="round" d=" M 78.046, 99.006 78.698, 101.287 79.065, 104.203 79.182, 107.694 79.022, 109.680 78.998, 109.971 78.880, 111.439 " />
            <path fill="none" stroke-width="3.0" stroke-linecap="butt" stroke-opacity="1.0" stroke="rgb(0, 0, 0)" stroke-linejoin="round" d=" M 80.606, 121.647 77.515, 119.701 78.333, 115.494 78.880, 111.439 81.931, 113.478 " />
            <path fill="none" stroke-width="3.0" stroke-linecap="butt" stroke-opacity="1.0" stroke="rgb(0, 0, 0)" stroke-linejoin="round" d=" M 110.003, 196.662 105.807, 199.974 102.934, 203.891 101.099, 207.805 100.086, 211.664 99.914, 213.441 99.737, 215.262 100.202, 219.099 101.676, 223.094 104.212, 226.045 107.964, 228.445 109.817, 229.142 117.205, 231.919 123.711, 233.821 129.227, 234.902 135.489, 235.688 143.609, 236.118 149.664, 236.165 156.181, 236.125 160.472, 235.922 166.241, 235.282 167.527, 234.952 171.182, 233.367 175.212, 229.418 177.415, 225.775 178.689, 221.902 178.988, 217.375 178.148, 212.515 175.625, 206.552 172.013, 201.339 170.116, 199.593 167.446, 197.284 164.529, 194.760 " />
            <path fill="none" stroke-width="3.0" stroke-linecap="butt" stroke-opacity="1.0" stroke="rgb(0, 0, 0)" stroke-linejoin="round" d=" M 76.733, 202.827 76.300, 204.647 75.287, 208.156 74.956, 211.459 74.765, 214.834 75.002, 217.764 75.925, 220.714 77.663, 224.254 80.944, 227.060 82.809, 228.586 87.225, 230.741 91.299, 231.841 95.667, 232.109 101.385, 231.734 107.101, 230.245 109.817, 229.142 " />
            <path fill="none" stroke-width="3.0" stroke-linecap="butt" stroke-opacity="1.0" stroke="rgb(0, 0, 0)" stroke-linejoin="round" d=" M 182.514, 178.198 186.118, 179.843 188.309, 180.658 192.701, 181.891 196.744, 182.464 200.707, 182.342 204.008, 181.546 205.328, 181.200 207.767, 180.238 210.166, 178.843 212.764, 176.817 215.145, 174.330 217.112, 171.259 218.468, 168.210 219.250, 165.521 219.618, 162.877 219.509, 158.225 218.679, 154.323 217.150, 150.517 214.892, 146.538 210.881, 141.677 209.411, 139.898 206.987, 137.399 206.591, 136.991 205.291, 135.652 201.200, 131.955 196.845, 128.949 192.082, 126.602 189.655, 125.748 " />
            <path fill="none" stroke-width="3.0" stroke-linecap="butt" stroke-opacity="1.0" stroke="rgb(0, 0, 0)" stroke-linejoin="round" d=" M 47.991, 123.387 44.880, 125.018 40.702, 128.022 36.768, 131.675 32.780, 135.868 28.949, 140.751 26.657, 144.756 25.104, 148.586 24.259, 152.542 24.201, 155.997 24.199, 156.822 24.607, 159.874 25.577, 162.779 27.057, 165.566 29.022, 168.212 31.353, 170.372 33.965, 172.181 36.800, 173.560 39.894, 174.469 43.282, 174.942 47.290, 174.733 51.307, 173.879 52.102, 173.605 " />
            <path fill="none" stroke-width="3.0" stroke-linecap="butt" stroke-opacity="1.0" stroke="rgb(0, 0, 0)" stroke-linejoin="round" d=" M 116.433, 71.724 119.629, 69.285 119.691, 69.238 119.852, 68.912 119.889, 68.838 121.552, 65.471 122.530, 62.879 122.511, 59.199 121.503, 56.533 119.590, 52.822 117.925, 51.606 " />
            <path fill="none" stroke-width="3.0" stroke-linecap="butt" stroke-opacity="1.0" stroke="rgb(0, 0, 0)" stroke-linejoin="round" d=" M 56.306, 55.057 56.210, 55.328 54.694, 59.622 53.059, 65.713 52.500, 73.568 52.785, 74.833 54.448, 80.123 56.926, 81.365 59.928, 82.062 61.601, 82.450 62.084, 82.562 65.953, 83.006 71.911, 81.962 71.973, 81.951 74.185, 81.387 77.543, 80.531 82.877, 78.409 83.070, 78.331 " />
            <path fill="none" stroke-width="3.0" stroke-linecap="butt" stroke-opacity="1.0" stroke="rgb(0, 0, 0)" stroke-linejoin="round" d=" M 33.735, 111.552 31.605, 107.083 32.775, 105.965 37.576, 101.381 41.741, 100.332 49.631, 98.344 53.365, 97.403 56.914, 97.280 59.025, 97.207 61.313, 97.129 71.307, 96.784 73.625, 96.704 76.158, 96.617 76.171, 96.617 80.231, 96.477 90.200, 97.256 100.170, 98.035 107.842, 98.635 113.989, 99.115 116.489, 99.551 116.544, 99.561 126.395, 101.278 136.246, 102.996 146.098, 104.713 147.963, 105.039 157.626, 107.615 167.288, 110.191 176.950, 112.768 177.315, 112.865 178.364, 113.299 179.011, 113.567 183.266, 115.327 186.016, 116.465 " />
            <path fill="none" stroke-width="3.0" stroke-linecap="butt" stroke-opacity="1.0" stroke="rgb(0, 0, 0)" stroke-linejoin="round" d=" M 206.591, 136.991 206.631, 136.968 206.341, 130.639 200.085, 125.839 198.040, 124.270 " />
            <path fill="none" stroke-width="3.0" stroke-linecap="butt" stroke-opacity="1.0" stroke="rgb(0, 0, 0)" stroke-linejoin="round" d=" M 39.006, 107.720 40.818, 106.158 45.058, 102.505 54.828, 100.374 58.416, 99.591 " />
            <path fill="none" stroke-width="3.0" stroke-linecap="butt" stroke-opacity="1.0" stroke="rgb(0, 0, 0)" stroke-linejoin="round" d=" M 38.783, 116.481 47.009, 121.853 48.301, 122.381 " />
            <path fill="none" stroke-width="3.0" stroke-linecap="butt" stroke-opacity="1.0" stroke="rgb(0, 0, 0)" stroke-linejoin="round" d=" M 56.157, 99.658 46.390, 101.803 45.443, 102.011 41.043, 102.977 39.903, 103.228 33.806, 108.717 34.537, 110.299 " />
            <path fill="none" stroke-width="3.0" stroke-linecap="butt" stroke-opacity="1.0" stroke="rgb(0, 0, 0)" stroke-linejoin="round" d=" M 56.157, 99.658 58.416, 99.591 59.377, 99.562 59.577, 99.556 61.431, 99.501 70.738, 99.224 76.180, 99.062 78.046, 99.006 79.392, 98.966 81.767, 98.895 91.736, 99.683 101.704, 100.470 105.603, 100.778 110.377, 101.155 113.730, 101.420 117.662, 102.078 118.198, 102.167 128.062, 103.816 133.032, 104.647 142.895, 106.296 147.024, 106.986 156.694, 109.534 166.364, 112.082 175.917, 114.600 179.493, 116.059 184.272, 118.010 " />
            <path fill="none" stroke-width="3.0" stroke-linecap="butt" stroke-opacity="1.0" stroke="rgb(0, 0, 0)" stroke-linejoin="round" d=" M 41.071, 93.708 36.238, 97.617 33.048, 100.824 31.217, 103.670 30.032, 106.705 30.019, 109.172 30.481, 111.348 34.766, 115.474 37.447, 116.948 38.783, 116.481 38.804, 116.474 40.711, 115.807 41.967, 114.952 43.571, 113.858 45.163, 108.777 " />
            <path fill="none" stroke-width="3.0" stroke-linecap="butt" stroke-opacity="1.0" stroke="rgb(0, 0, 0)" stroke-linejoin="round" d=" M 33.215, 112.940 30.481, 111.348 " />
            <path fill="none" stroke-width="3.0" stroke-linecap="butt" stroke-opacity="1.0" stroke="rgb(0, 0, 0)" stroke-linejoin="round" d=" M 43.571, 113.858 39.887, 111.513 " />
            <path fill="none" stroke-width="3.0" stroke-linecap="butt" stroke-opacity="1.0" stroke="rgb(0, 0, 0)" stroke-linejoin="round" d=" M 40.782, 109.145 39.887, 111.513 36.462, 112.478 " />
            <path fill="none" stroke-width="3.0" stroke-linecap="butt" stroke-opacity="1.0" stroke="rgb(0, 0, 0)" stroke-linejoin="round" d=" M 57.516, 84.118 50.533, 87.421 42.204, 92.955 41.071, 93.708 47.363, 89.656 48.202, 89.199 56.981, 84.410 57.516, 84.118 58.986, 83.518 61.601, 82.450 " />
            <path fill="none" stroke-width="3.0" stroke-linecap="butt" stroke-opacity="1.0" stroke="rgb(0, 0, 0)" stroke-linejoin="round" d=" M 47.363, 89.656 49.498, 88.794 49.783, 88.678 53.501, 87.176 55.869, 86.219 57.563, 85.717 67.150, 82.874 67.534, 82.761 77.485, 81.770 78.255, 81.693 80.661, 81.454 81.950, 81.422 87.909, 81.274 88.924, 81.319 89.753, 81.357 " />
            <path fill="none" stroke-width="3.0" stroke-linecap="butt" stroke-opacity="1.0" stroke="rgb(0, 0, 0)" stroke-linejoin="round" d=" M 179.493, 116.059 180.169, 117.713 182.327, 118.734 183.193, 119.143 183.555, 119.296 188.651, 121.451 196.984, 124.974 197.115, 124.887 198.040, 124.270 198.794, 123.768 199.193, 123.503 199.446, 122.408 200.031, 119.876 197.137, 115.322 192.289, 110.628 190.651, 109.042 183.642, 103.988 183.106, 103.602 178.807, 100.407 177.598, 99.510 176.901, 98.991 171.893, 96.033 168.380, 93.958 161.235, 90.969 158.530, 89.838 157.212, 89.286 147.667, 86.303 144.510, 85.317 134.897, 82.563 131.721, 81.653 121.864, 79.971 118.862, 79.458 109.431, 77.917 107.665, 77.628 " />
            <path fill="none" stroke-width="3.0" stroke-linecap="butt" stroke-opacity="1.0" stroke="rgb(0, 0, 0)" stroke-linejoin="round" d=" M 103.163, 82.413 107.905, 82.906 111.687, 83.299 112.320, 83.454 122.032, 85.837 128.342, 87.385 137.946, 90.171 142.087, 91.373 142.739, 91.562 152.066, 95.168 155.567, 96.521 164.725, 100.536 166.703, 101.403 175.059, 105.465 181.497, 109.066 184.817, 111.556 186.558, 112.861 187.598, 114.508 187.823, 114.865 188.438, 115.838 188.597, 116.956 188.800, 118.389 187.728, 119.067 187.388, 119.282 186.260, 119.996 " />
            <path fill="none" stroke-width="3.0" stroke-linecap="butt" stroke-opacity="1.0" stroke="rgb(0, 0, 0)" stroke-linejoin="round" d=" M 99.450, 79.121 99.639, 78.852 100.690, 77.347 103.244, 73.691 104.073, 70.840 104.330, 69.955 104.682, 68.744 104.912, 67.950 105.350, 66.445 105.492, 65.953 105.655, 65.392 106.073, 60.315 106.183, 58.969 106.180, 58.525 106.166, 56.729 106.158, 55.757 106.145, 54.180 " />
            <path fill="none" stroke-width="3.0" stroke-linecap="butt" stroke-opacity="1.0" stroke="rgb(0, 0, 0)" stroke-linejoin="round" d=" M 77.159, 73.816 80.718, 76.155 83.198, 77.364 83.370, 77.447 84.306, 77.904 85.884, 78.672 93.418, 80.256 96.954, 79.591 99.450, 79.121 100.651, 80.563 102.296, 81.854 102.298, 81.856 103.729, 82.301 " />
            <path fill="none" stroke-width="3.0" stroke-linecap="butt" stroke-opacity="1.0" stroke="rgb(0, 0, 0)" stroke-linejoin="round" d=" M 54.448, 80.123 54.132, 78.757 " />
            <path fill="none" stroke-width="3.0" stroke-linecap="butt" stroke-opacity="1.0" stroke="rgb(0, 0, 0)" stroke-linejoin="round" d=" M 80.161, 76.641 77.910, 75.122 77.159, 73.816 72.808, 76.115 66.922, 78.527 61.576, 79.515 59.281, 79.940 54.132, 78.757 52.500, 73.568 " />
            <path fill="none" stroke-width="3.0" stroke-linecap="butt" stroke-opacity="1.0" stroke="rgb(0, 0, 0)" stroke-linejoin="round" d=" M 110.945, 61.476 111.084, 61.281 111.184, 61.140 111.396, 60.843 114.428, 56.590 114.691, 56.215 117.925, 51.606 119.130, 49.888 122.798, 44.237 123.164, 42.890 124.335, 38.577 124.405, 35.427 123.237, 33.185 119.746, 28.908 114.461, 26.448 111.528, 25.330 105.780, 24.201 103.324, 23.929 101.387, 23.715 " />
            <path fill="none" stroke-width="3.0" stroke-linecap="butt" stroke-opacity="1.0" stroke="rgb(0, 0, 0)" stroke-linejoin="round" d=" M 56.210, 55.328 53.516, 51.491 50.509, 46.407 49.076, 40.981 49.539, 35.457 53.897, 31.241 60.947, 27.704 66.650, 26.094 70.972, 25.208 73.562, 21.207 77.452, 16.014 83.535, 10.226 88.950, 7.537 93.575, 9.582 97.860, 14.821 100.091, 19.795 101.387, 23.715 " />
            <path fill="none" stroke-width="3.0" stroke-linecap="butt" stroke-opacity="1.0" stroke="rgb(0, 0, 0)" stroke-linejoin="round" d=" M 109.255, 57.252 107.782, 55.514 107.479, 55.157 106.145, 54.180 107.018, 53.425 110.674, 50.261 111.352, 49.561 116.127, 44.627 117.018, 43.235 119.962, 38.637 121.631, 32.641 118.216, 28.446 111.528, 25.330 " />
            <path fill="none" stroke-width="3.0" stroke-linecap="butt" stroke-opacity="1.0" stroke="rgb(0, 0, 0)" stroke-linejoin="round" d=" M 103.324, 23.929 102.396, 21.562 99.904, 16.720 98.494, 14.439 94.599, 9.685 89.884, 7.603 88.950, 7.537 " />
            <path fill="none" stroke-width="3.0" stroke-linecap="butt" stroke-opacity="1.0" stroke="rgb(0, 0, 0)" stroke-linejoin="round" d=" M 53.516, 51.491 56.306, 55.057 " />
            <path fill="none" stroke-width="3.0" stroke-linecap="butt" stroke-opacity="1.0" stroke="rgb(0, 0, 0)" stroke-linejoin="round" d=" M 191.351, 105.845 188.443, 96.277 186.336, 89.347 185.330, 88.275 184.117, 83.930 179.265, 75.186 177.996, 72.898 171.465, 65.325 170.341, 64.023 164.699, 58.554 156.743, 52.496 156.365, 52.208 149.168, 48.372 142.876, 46.181 138.066, 44.614 137.066, 44.289 130.622, 43.137 126.485, 42.956 124.265, 42.858 123.164, 42.890 " />
            <path fill="none" stroke-width="3.0" stroke-linecap="butt" stroke-opacity="1.0" stroke="rgb(0, 0, 0)" stroke-linejoin="round" d=" M 80.161, 76.641 81.854, 77.625 82.926, 78.248 83.070, 78.331 83.357, 78.498 84.710, 79.284 85.050, 79.481 87.847, 80.597 89.562, 81.281 89.753, 81.357 90.074, 81.485 91.087, 81.888 93.716, 82.455 98.131, 83.407 101.596, 82.722 103.163, 82.413 103.729, 82.301 103.959, 81.972 104.700, 80.910 107.010, 77.602 107.666, 76.661 107.674, 76.639 108.203, 75.058 108.992, 72.701 109.104, 72.367 109.296, 71.348 109.542, 70.047 109.778, 68.800 109.883, 68.244 110.511, 64.925 110.945, 61.476 111.008, 60.979 111.009, 60.968 111.099, 60.253 111.154, 59.818 " />
            <path fill="none" stroke-width="3.0" stroke-linecap="butt" stroke-opacity="1.0" stroke="rgb(0, 0, 0)" stroke-linejoin="round" d=" M 186.720, 102.909 183.139, 99.905 174.862, 96.169 166.929, 92.589 161.235, 90.969 " />
            <path fill="none" stroke-width="3.0" stroke-linecap="butt" stroke-opacity="1.0" stroke="rgb(0, 0, 0)" stroke-linejoin="round" d=" M 121.432, 68.929 119.889, 68.838 " />
            <path fill="none" stroke-width="3.0" stroke-linecap="butt" stroke-opacity="1.0" stroke="rgb(0, 0, 0)" stroke-linejoin="round" d=" M 121.432, 68.929 129.665, 70.223 132.932, 70.736 142.810, 72.289 145.179, 72.661 " />
            <path fill="none" stroke-width="3.0" stroke-linecap="butt" stroke-opacity="1.0" stroke="rgb(0, 0, 0)" stroke-linejoin="round" d=" M 138.066, 44.614 137.481, 43.824 134.151, 42.437 130.094, 41.985 126.921, 42.645 126.485, 42.956 " />
            <path fill="none" stroke-width="3.0" stroke-linecap="butt" stroke-opacity="1.0" stroke="rgb(0, 0, 0)" stroke-linejoin="round" d=" M 206.987, 137.399 208.876, 136.316 209.738, 132.611 209.661, 125.792 205.827, 120.296 200.045, 113.192 192.407, 106.737 191.351, 105.845 190.576, 105.190 186.720, 102.909 185.135, 101.972 176.409, 98.059 171.893, 96.033 " />
            <path fill="none" stroke-width="3.0" stroke-linecap="butt" stroke-opacity="1.0" stroke="rgb(0, 0, 0)" stroke-linejoin="round" d=" M 199.446, 122.408 207.311, 128.583 208.736, 129.702 208.876, 136.316 " />
            <path fill="none" stroke-width="3.0" stroke-linecap="butt" stroke-opacity="1.0" stroke="rgb(0, 0, 0)" stroke-linejoin="round" d=" M 44.181, 92.922 43.645, 93.328 38.190, 97.403 32.037, 103.422 31.605, 107.083 " />
            <path fill="none" stroke-width="3.0" stroke-linecap="butt" stroke-opacity="1.0" stroke="rgb(0, 0, 0)" stroke-linejoin="round" d=" M 209.661, 125.792 201.910, 119.473 199.488, 117.498 " />
            <path fill="none" stroke-width="3.0" stroke-linecap="butt" stroke-opacity="1.0" stroke="rgb(0, 0, 0)" stroke-linejoin="round" d=" M 59.928, 82.062 58.986, 83.518 " />
            <path fill="none" stroke-width="3.0" stroke-linecap="butt" stroke-opacity="1.0" stroke="rgb(0, 0, 0)" stroke-linejoin="round" d=" M 107.448, 77.619 107.743, 76.620 108.203, 75.058 " />
            <path fill="none" stroke-width="3.0" stroke-linecap="butt" stroke-opacity="1.0" stroke="rgb(0, 0, 0)" stroke-linejoin="round" d=" M 108.992, 72.701 111.048, 72.629 " />
            <path fill="none" stroke-width="3.0" stroke-linecap="butt" stroke-opacity="1.0" stroke="rgb(0, 0, 0)" stroke-linejoin="round" d=" M 197.115, 124.887 201.626, 128.312 " />
        </g>
    </g>
</svg>
