<?xml version='1.0' encoding='ascii'?>
<svg xmlns="http://www.w3.org/2000/svg" version="1.1" width="250" height="250">
    <g id="ViewLayer_LineSet" xmlns:inkscape="http://www.inkscape.org/namespaces/inkscape" inkscape:groupmode="lineset" inkscape:label="ViewLayer_LineSet">
        <g xmlns:inkscape="http://www.inkscape.org/namespaces/inkscape" inkscape:groupmode="layer" id="strokes" inkscape:label="strokes">
            <path fill="none" stroke-width="3.0" stroke-linecap="butt" stroke-opacity="1.0" stroke="rgb(0, 0, 0)" stroke-linejoin="round" d=" M 59.691, 96.623 59.394, 96.997 57.971, 98.787 53.735, 105.908 49.924, 114.589 49.270, 116.705 48.337, 119.725 48.236, 120.051 47.255, 123.224 46.044, 129.149 46.002, 129.360 45.457, 135.720 45.232, 140.251 45.461, 145.882 45.940, 150.406 46.802, 155.019 47.649, 158.986 48.935, 163.303 49.516, 164.863 50.600, 167.776 52.570, 172.213 54.760, 176.421 57.076, 180.217 59.418, 183.424 61.000, 185.539 62.352, 187.345 65.338, 190.603 " />
            <path fill="none" stroke-width="3.0" stroke-linecap="butt" stroke-opacity="1.0" stroke="rgb(0, 0, 0)" stroke-linejoin="round" d=" M 190.408, 126.505 188.895, 119.428 188.586, 118.630 " />
            <path fill="none" stroke-width="3.0" stroke-linecap="butt" stroke-opacity="1.0" stroke="rgb(0, 0, 0)" stroke-linejoin="round" d=" M 174.473, 187.560 176.470, 184.735 178.041, 182.427 " />
            <path fill="none" stroke-width="3.0" stroke-linecap="butt" stroke-opacity="1.0" stroke="rgb(0, 0, 0)" stroke-linejoin="round" d=" M 108.931, 212.920 112.682, 213.331 113.226, 213.390 117.737, 213.584 118.650, 213.566 " />
            <path fill="none" stroke-width="3.0" stroke-linecap="butt" stroke-opacity="1.0" stroke="rgb(0, 0, 0)" stroke-linejoin="round" d=" M 77.110, 148.356 77.665, 149.756 79.029, 151.824 80.924, 153.480 82.395, 154.301 83.121, 154.706 85.164, 155.146 87.259, 155.071 89.635, 154.239 91.685, 152.906 93.235, 151.056 93.951, 149.738 " />
            <path fill="none" stroke-width="3.0" stroke-linecap="butt" stroke-opacity="1.0" stroke="rgb(0, 0, 0)" stroke-linejoin="round" d=" M 117.422, 99.004 117.908, 100.634 118.048, 101.102 118.500, 104.487 118.541, 108.306 118.557, 108.376 117.438, 116.783 117.242, 117.453 117.206, 117.578 116.211, 120.991 114.705, 125.278 112.949, 129.274 111.007, 132.786 108.946, 135.640 107.766, 136.788 107.388, 137.156 106.836, 137.694 104.749, 138.843 102.759, 139.028 101.440, 138.456 100.938, 138.237 99.359, 136.504 98.894, 135.550 98.645, 135.041 98.092, 133.907 97.199, 130.568 96.726, 126.648 96.704, 122.336 97.139, 117.838 97.967, 113.584 97.997, 113.431 98.001, 113.416 99.200, 109.272 100.722, 105.374 102.502, 101.876 104.471, 98.903 105.517, 97.725 " />
            <path fill="none" stroke-width="3.0" stroke-linecap="butt" stroke-opacity="1.0" stroke="rgb(0, 0, 0)" stroke-linejoin="round" d=" M 77.311, 116.798 77.182, 117.364 76.332, 121.088 75.248, 125.197 74.072, 128.922 74.045, 128.989 73.886, 129.388 72.810, 132.078 71.469, 134.504 70.065, 136.082 68.886, 136.617 68.626, 136.735 67.214, 136.735 65.837, 135.204 64.629, 133.107 63.653, 130.253 62.990, 126.789 62.941, 126.115 62.908, 125.649 62.707, 122.887 62.845, 118.737 63.102, 116.833 63.404, 114.594 64.271, 110.601 65.390, 106.761 66.715, 103.212 67.122, 102.349 67.371, 101.819 68.193, 100.075 69.767, 97.457 70.739, 96.241 " />
            <path fill="none" stroke-width="3.0" stroke-linecap="butt" stroke-opacity="1.0" stroke="rgb(0, 0, 0)" stroke-linejoin="round" d=" M 67.214, 136.735 70.420, 138.155 " />
            <path fill="none" stroke-width="3.0" stroke-linecap="butt" stroke-opacity="1.0" stroke="rgb(0, 0, 0)" stroke-linejoin="round" d=" M 77.794, 95.997 77.875, 96.139 78.528, 98.436 78.888, 101.340 78.997, 104.820 78.786, 107.370 78.761, 107.677 78.688, 108.553 " />
            <path fill="none" stroke-width="3.0" stroke-linecap="butt" stroke-opacity="1.0" stroke="rgb(0, 0, 0)" stroke-linejoin="round" d=" M 80.420, 118.783 77.311, 116.798 78.135, 112.598 78.688, 108.553 81.757, 110.632 " />
            <path fill="none" stroke-width="3.0" stroke-linecap="butt" stroke-opacity="1.0" stroke="rgb(0, 0, 0)" stroke-linejoin="round" d=" M 167.270, 203.342 171.939, 207.683 " />
            <path fill="none" stroke-width="3.0" stroke-linecap="butt" stroke-opacity="1.0" stroke="rgb(0, 0, 0)" stroke-linejoin="round" d=" M 157.044, 202.520 160.724, 203.464 165.731, 206.312 169.211, 209.577 " />
            <path fill="none" stroke-width="3.0" stroke-linecap="butt" stroke-opacity="1.0" stroke="rgb(0, 0, 0)" stroke-linejoin="round" d=" M 118.650, 213.566 118.224, 215.653 118.183, 218.962 118.647, 221.945 119.839, 224.940 121.070, 228.459 122.847, 231.131 126.632, 234.328 131.344, 236.715 137.045, 238.097 142.189, 238.724 147.930, 238.561 155.281, 237.533 161.389, 236.020 167.409, 233.777 171.051, 231.688 172.855, 229.118 176.845, 223.425 180.925, 214.295 181.744, 212.463 182.676, 210.250 185.587, 200.683 185.884, 199.706 186.074, 197.254 186.631, 188.304 186.121, 185.990 " />
            <path fill="none" stroke-width="3.0" stroke-linecap="butt" stroke-opacity="1.0" stroke="rgb(0, 0, 0)" stroke-linejoin="round" d=" M 61.000, 185.539 56.011, 189.340 51.999, 193.289 48.554, 197.106 46.009, 201.656 44.583, 205.766 43.671, 208.481 42.918, 212.367 42.983, 215.929 43.849, 219.589 45.089, 222.781 47.795, 225.637 50.568, 227.953 55.250, 230.142 59.744, 231.325 64.729, 231.717 71.399, 231.579 75.213, 231.273 81.735, 229.841 84.877, 229.086 88.746, 227.851 95.499, 224.424 102.306, 220.332 108.141, 216.595 111.231, 214.585 112.682, 213.331 " />
            <path fill="none" stroke-width="3.0" stroke-linecap="butt" stroke-opacity="1.0" stroke="rgb(0, 0, 0)" stroke-linejoin="round" d=" M 190.878, 126.721 190.408, 126.505 184.375, 123.745 " />
            <path fill="none" stroke-width="3.0" stroke-linecap="butt" stroke-opacity="1.0" stroke="rgb(0, 0, 0)" stroke-linejoin="round" d=" M 194.120, 128.823 192.931, 128.007 190.878, 126.721 194.120, 128.823 195.335, 129.612 197.276, 130.989 201.209, 134.698 203.013, 136.786 203.396, 137.230 204.943, 139.022 208.804, 143.879 212.386, 149.437 214.396, 154.001 215.681, 158.312 216.282, 162.615 216.180, 166.734 215.799, 169.078 215.295, 170.930 214.735, 172.478 213.386, 175.530 211.546, 178.346 210.297, 179.672 207.924, 181.997 205.369, 183.760 203.761, 184.676 200.810, 185.944 197.608, 186.597 195.087, 187.015 191.347, 187.096 187.015, 186.311 186.121, 185.990 186.039, 185.961 186.024, 185.955 182.812, 184.802 180.693, 183.793 178.041, 182.427 176.195, 181.477 170.842, 177.581 " />
            <path fill="none" stroke-width="3.0" stroke-linecap="butt" stroke-opacity="1.0" stroke="rgb(0, 0, 0)" stroke-linejoin="round" d=" M 46.044, 129.149 44.095, 131.976 42.173, 135.299 40.848, 139.008 39.889, 141.984 39.444, 144.654 39.466, 148.878 39.674, 150.906 40.967, 155.373 41.509, 156.699 43.691, 160.050 46.370, 162.791 48.647, 164.418 49.516, 164.863 " />
            <path fill="none" stroke-width="3.0" stroke-linecap="butt" stroke-opacity="1.0" stroke="rgb(0, 0, 0)" stroke-linejoin="round" d=" M 118.938, 66.817 119.538, 66.354 119.690, 66.044 119.727, 65.967 121.391, 62.563 122.377, 59.983 122.358, 56.296 121.341, 53.609 119.435, 49.909 117.625, 48.594 " />
            <path fill="none" stroke-width="3.0" stroke-linecap="butt" stroke-opacity="1.0" stroke="rgb(0, 0, 0)" stroke-linejoin="round" d=" M 56.081, 52.042 55.984, 52.316 54.465, 56.603 52.825, 62.687 52.255, 70.527 52.545, 71.805 54.198, 77.079 56.689, 78.349 60.204, 79.154 61.837, 79.528 61.999, 79.548 65.723, 80.010 71.737, 78.941 77.305, 77.513 82.810, 75.309 82.875, 75.283 " />
            <path fill="none" stroke-width="3.0" stroke-linecap="butt" stroke-opacity="1.0" stroke="rgb(0, 0, 0)" stroke-linejoin="round" d=" M 33.792, 109.144 31.583, 104.505 32.764, 103.324 37.465, 98.627 41.997, 97.430 50.035, 95.306 53.166, 94.479 56.337, 94.354 58.969, 94.251 61.662, 94.145 71.655, 93.751 74.063, 93.656 75.457, 93.601 79.968, 93.424 89.938, 94.187 99.909, 94.949 107.846, 95.556 113.708, 96.005 116.194, 96.440 116.229, 96.446 126.079, 98.172 135.929, 99.897 145.779, 101.623 147.723, 101.963 157.378, 104.566 167.034, 107.169 176.689, 109.772 177.155, 109.898 178.214, 110.342 178.556, 110.486 183.129, 112.405 " />
            <path fill="none" stroke-width="3.0" stroke-linecap="butt" stroke-opacity="1.0" stroke="rgb(0, 0, 0)" stroke-linejoin="round" d=" M 203.013, 136.786 206.740, 134.542 206.375, 128.035 200.017, 123.087 197.974, 121.497 " />
            <path fill="none" stroke-width="3.0" stroke-linecap="butt" stroke-opacity="1.0" stroke="rgb(0, 0, 0)" stroke-linejoin="round" d=" M 44.957, 99.782 54.705, 97.550 58.588, 96.661 " />
            <path fill="none" stroke-width="3.0" stroke-linecap="butt" stroke-opacity="1.0" stroke="rgb(0, 0, 0)" stroke-linejoin="round" d=" M 38.831, 114.090 47.125, 119.590 48.236, 120.051 " />
            <path fill="none" stroke-width="3.0" stroke-linecap="butt" stroke-opacity="1.0" stroke="rgb(0, 0, 0)" stroke-linejoin="round" d=" M 55.965, 96.752 46.221, 99.000 45.711, 99.118 41.086, 100.185 39.794, 100.483 33.784, 106.145 34.542, 107.784 " />
            <path fill="none" stroke-width="3.0" stroke-linecap="butt" stroke-opacity="1.0" stroke="rgb(0, 0, 0)" stroke-linejoin="round" d=" M 55.965, 96.752 58.588, 96.661 58.990, 96.647 59.691, 96.623 60.855, 96.583 70.739, 96.241 76.684, 96.035 77.794, 95.997 78.963, 95.956 81.514, 95.868 91.485, 96.639 101.455, 97.410 105.517, 97.725 110.440, 98.105 113.462, 98.339 117.422, 99.004 117.915, 99.087 127.777, 100.742 137.640, 102.397 143.076, 103.309 146.792, 103.933 156.455, 106.508 166.118, 109.083 175.762, 111.653 179.358, 113.142 184.769, 115.382 " />
            <path fill="none" stroke-width="3.0" stroke-linecap="butt" stroke-opacity="1.0" stroke="rgb(0, 0, 0)" stroke-linejoin="round" d=" M 57.443, 81.447 48.929, 86.017 47.329, 86.875 47.257, 86.914 40.995, 91.025 36.190, 94.987 33.021, 98.235 31.208, 101.116 30.037, 104.180 30.030, 106.662 30.495, 108.845 34.825, 113.073 37.506, 114.552 38.831, 114.090 38.834, 114.088 40.769, 113.413 41.981, 112.586 43.627, 111.463 45.214, 106.369 " />
            <path fill="none" stroke-width="3.0" stroke-linecap="butt" stroke-opacity="1.0" stroke="rgb(0, 0, 0)" stroke-linejoin="round" d=" M 33.227, 110.439 30.495, 108.845 " />
            <path fill="none" stroke-width="3.0" stroke-linecap="butt" stroke-opacity="1.0" stroke="rgb(0, 0, 0)" stroke-linejoin="round" d=" M 43.627, 111.463 39.895, 109.014 " />
            <path fill="none" stroke-width="3.0" stroke-linecap="butt" stroke-opacity="1.0" stroke="rgb(0, 0, 0)" stroke-linejoin="round" d=" M 40.749, 106.747 39.895, 109.014 36.472, 109.977 " />
            <path fill="none" stroke-width="3.0" stroke-linecap="butt" stroke-opacity="1.0" stroke="rgb(0, 0, 0)" stroke-linejoin="round" d=" M 61.999, 79.548 59.187, 80.720 57.443, 81.447 50.488, 84.806 47.329, 86.875 " />
            <path fill="none" stroke-width="3.0" stroke-linecap="butt" stroke-opacity="1.0" stroke="rgb(0, 0, 0)" stroke-linejoin="round" d=" M 47.257, 86.914 47.292, 86.899 49.906, 85.820 50.002, 85.780 52.842, 84.608 55.731, 83.415 57.854, 82.771 67.363, 79.888 77.309, 78.849 79.015, 78.670 80.462, 78.519 81.823, 78.481 87.699, 78.315 89.462, 78.389 89.904, 78.407 " />
            <path fill="none" stroke-width="3.0" stroke-linecap="butt" stroke-opacity="1.0" stroke="rgb(0, 0, 0)" stroke-linejoin="round" d=" M 179.358, 113.142 180.061, 114.861 183.070, 116.269 183.080, 116.273 184.388, 116.833 188.586, 118.630 196.931, 122.202 197.017, 122.144 197.974, 121.497 198.714, 120.997 199.136, 120.711 199.387, 119.620 199.972, 117.068 197.068, 112.495 192.332, 107.906 190.570, 106.199 183.009, 100.739 181.899, 99.912 179.200, 97.904 177.168, 96.392 176.790, 96.110 172.235, 93.414 168.251, 91.056 161.597, 88.267 157.153, 86.405 157.066, 86.368 147.521, 83.385 144.351, 82.394 134.737, 79.642 131.552, 78.730 121.693, 77.055 118.689, 76.545 109.280, 75.019 107.494, 74.730 " />
            <path fill="none" stroke-width="3.0" stroke-linecap="butt" stroke-opacity="1.0" stroke="rgb(0, 0, 0)" stroke-linejoin="round" d=" M 102.504, 79.373 107.766, 79.911 111.463, 80.289 112.868, 80.633 122.582, 83.007 128.119, 84.360 137.723, 87.144 142.526, 88.537 142.777, 88.634 152.103, 92.244 155.370, 93.509 164.526, 97.530 166.524, 98.407 174.897, 102.488 181.351, 106.110 184.718, 108.642 186.426, 109.927 187.576, 111.749 188.000, 112.421 188.314, 112.919 188.578, 114.771 188.680, 115.483 187.628, 116.157 187.240, 116.405 186.143, 117.109 " />
            <path fill="none" stroke-width="3.0" stroke-linecap="butt" stroke-opacity="1.0" stroke="rgb(0, 0, 0)" stroke-linejoin="round" d=" M 99.127, 75.909 100.146, 74.452 102.925, 70.476 103.512, 68.464 103.918, 67.072 104.255, 65.920 104.497, 65.091 104.934, 63.593 105.261, 62.471 105.345, 62.183 105.882, 55.769 105.870, 53.912 105.863, 52.851 105.854, 51.376 105.851, 50.989 " />
            <path fill="none" stroke-width="3.0" stroke-linecap="butt" stroke-opacity="1.0" stroke="rgb(0, 0, 0)" stroke-linejoin="round" d=" M 76.872, 70.690 80.423, 73.012 83.119, 74.317 83.715, 74.606 84.784, 75.123 85.578, 75.507 93.101, 77.063 99.127, 75.909 99.527, 76.391 100.333, 77.363 101.997, 78.690 102.885, 78.992 103.450, 79.183 " />
            <path fill="none" stroke-width="3.0" stroke-linecap="butt" stroke-opacity="1.0" stroke="rgb(0, 0, 0)" stroke-linejoin="round" d=" M 54.198, 77.079 53.876, 75.699 " />
            <path fill="none" stroke-width="3.0" stroke-linecap="butt" stroke-opacity="1.0" stroke="rgb(0, 0, 0)" stroke-linejoin="round" d=" M 79.896, 73.562 77.629, 72.009 76.872, 70.690 72.524, 72.999 66.644, 75.426 62.067, 76.288 59.014, 76.862 53.876, 75.699 52.255, 70.527 " />
            <path fill="none" stroke-width="3.0" stroke-linecap="butt" stroke-opacity="1.0" stroke="rgb(0, 0, 0)" stroke-linejoin="round" d=" M 110.681, 58.494 110.890, 58.200 110.904, 58.180 111.166, 57.812 114.203, 53.543 114.475, 53.150 117.625, 48.594 118.884, 46.774 122.554, 41.115 122.750, 40.399 124.098, 35.457 124.149, 32.263 122.965, 29.986 119.483, 25.729 114.206, 23.293 111.270, 22.171 105.529, 21.065 103.080, 20.804 101.141, 20.597 " />
            <path fill="none" stroke-width="3.0" stroke-linecap="butt" stroke-opacity="1.0" stroke="rgb(0, 0, 0)" stroke-linejoin="round" d=" M 53.302, 48.494 52.583, 47.280 50.308, 43.432 48.885, 38.024 49.356, 32.511 53.711, 28.287 60.754, 24.732 66.449, 23.103 70.765, 22.203 73.357, 18.200 77.249, 13.003 83.331, 7.203 88.743, 4.498 93.359, 6.521 97.631, 11.733 99.852, 16.689 101.141, 20.597 " />
            <path fill="none" stroke-width="3.0" stroke-linecap="butt" stroke-opacity="1.0" stroke="rgb(0, 0, 0)" stroke-linejoin="round" d=" M 108.985, 54.112 107.553, 52.410 107.190, 51.979 105.977, 51.082 105.851, 50.989 106.111, 50.763 106.713, 50.242 110.381, 47.061 110.804, 46.623 115.837, 41.417 116.246, 40.779 119.677, 35.422 121.354, 29.430 117.947, 25.255 111.270, 22.171 " />
            <path fill="none" stroke-width="3.0" stroke-linecap="butt" stroke-opacity="1.0" stroke="rgb(0, 0, 0)" stroke-linejoin="round" d=" M 52.583, 47.280 52.587, 47.288 53.302, 48.494 55.984, 52.316 " />
            <path fill="none" stroke-width="3.0" stroke-linecap="butt" stroke-opacity="1.0" stroke="rgb(0, 0, 0)" stroke-linejoin="round" d=" M 103.080, 20.804 102.181, 18.506 99.697, 13.680 98.272, 11.366 94.389, 6.637 89.683, 4.578 88.743, 4.498 " />
            <path fill="none" stroke-width="3.0" stroke-linecap="butt" stroke-opacity="1.0" stroke="rgb(0, 0, 0)" stroke-linejoin="round" d=" M 53.302, 48.494 56.081, 52.042 " />
            <path fill="none" stroke-width="3.0" stroke-linecap="butt" stroke-opacity="1.0" stroke="rgb(0, 0, 0)" stroke-linejoin="round" d=" M 191.357, 103.141 188.453, 93.572 186.401, 86.809 185.396, 85.741 184.187, 81.401 179.333, 72.658 178.076, 70.392 171.537, 62.826 170.428, 61.543 164.748, 55.997 156.774, 49.963 156.432, 49.704 149.210, 45.825 142.945, 43.706 138.085, 42.113 137.124, 41.799 130.674, 40.645 126.718, 40.479 124.317, 40.378 122.750, 40.399 " />
            <path fill="none" stroke-width="3.0" stroke-linecap="butt" stroke-opacity="1.0" stroke="rgb(0, 0, 0)" stroke-linejoin="round" d=" M 79.896, 73.562 81.965, 74.757 82.827, 75.255 82.875, 75.283 83.686, 75.752 84.633, 76.298 84.773, 76.379 88.190, 77.730 89.801, 78.366 89.904, 78.407 90.788, 78.757 90.798, 78.760 92.249, 79.106 94.431, 79.574 97.857, 80.307 100.375, 79.801 102.504, 79.373 103.450, 79.183 103.552, 79.038 104.271, 78.009 106.589, 74.695 106.775, 74.430 107.393, 73.545 108.652, 69.806 108.837, 69.256 109.163, 67.553 109.466, 65.962 109.577, 65.383 110.256, 61.827 110.681, 58.494 110.741, 58.020 110.776, 57.747 110.848, 57.180 110.906, 56.729 " />
            <path fill="none" stroke-width="3.0" stroke-linecap="butt" stroke-opacity="1.0" stroke="rgb(0, 0, 0)" stroke-linejoin="round" d=" M 186.495, 100.070 183.118, 97.205 174.676, 93.350 166.839, 89.772 161.597, 88.267 " />
            <path fill="none" stroke-width="3.0" stroke-linecap="butt" stroke-opacity="1.0" stroke="rgb(0, 0, 0)" stroke-linejoin="round" d=" M 121.286, 66.057 119.727, 65.967 " />
            <path fill="none" stroke-width="3.0" stroke-linecap="butt" stroke-opacity="1.0" stroke="rgb(0, 0, 0)" stroke-linejoin="round" d=" M 121.286, 66.057 131.164, 67.618 141.041, 69.179 145.064, 69.815 " />
            <path fill="none" stroke-width="3.0" stroke-linecap="butt" stroke-opacity="1.0" stroke="rgb(0, 0, 0)" stroke-linejoin="round" d=" M 138.085, 42.113 137.586, 41.436 134.248, 40.036 130.189, 39.587 127.021, 40.264 126.718, 40.479 " />
            <path fill="none" stroke-width="3.0" stroke-linecap="butt" stroke-opacity="1.0" stroke="rgb(0, 0, 0)" stroke-linejoin="round" d=" M 203.396, 137.230 208.990, 133.893 209.856, 130.186 209.702, 123.183 205.872, 117.697 200.092, 110.609 192.491, 104.111 191.357, 103.141 190.542, 102.444 186.495, 100.070 185.109, 99.256 176.204, 95.215 172.235, 93.414 " />
            <path fill="none" stroke-width="3.0" stroke-linecap="butt" stroke-opacity="1.0" stroke="rgb(0, 0, 0)" stroke-linejoin="round" d=" M 199.387, 119.620 207.210, 125.849 208.773, 127.093 208.990, 133.893 " />
            <path fill="none" stroke-width="3.0" stroke-linecap="butt" stroke-opacity="1.0" stroke="rgb(0, 0, 0)" stroke-linejoin="round" d=" M 44.612, 89.806 43.549, 90.605 38.084, 94.656 32.020, 100.854 31.583, 104.505 " />
            <path fill="none" stroke-width="3.0" stroke-linecap="butt" stroke-opacity="1.0" stroke="rgb(0, 0, 0)" stroke-linejoin="round" d=" M 209.702, 123.183 201.993, 116.814 199.434, 114.700 " />
            <path fill="none" stroke-width="3.0" stroke-linecap="butt" stroke-opacity="1.0" stroke="rgb(0, 0, 0)" stroke-linejoin="round" d=" M 60.204, 79.154 59.187, 80.720 " />
            <path fill="none" stroke-width="3.0" stroke-linecap="butt" stroke-opacity="1.0" stroke="rgb(0, 0, 0)" stroke-linejoin="round" d=" M 107.272, 74.721 107.411, 74.257 108.739, 69.804 " />
            <path fill="none" stroke-width="3.0" stroke-linecap="butt" stroke-opacity="1.0" stroke="rgb(0, 0, 0)" stroke-linejoin="round" d=" M 108.652, 69.806 108.739, 69.804 110.907, 69.763 " />
            <path fill="none" stroke-width="3.0" stroke-linecap="butt" stroke-opacity="1.0" stroke="rgb(0, 0, 0)" stroke-linejoin="round" d=" M 197.017, 122.144 201.658, 125.718 " />
        </g>
    </g>
</svg>
