<?xml version='1.0' encoding='ascii'?>
<svg xmlns="http://www.w3.org/2000/svg" version="1.1" width="250" height="250">
    <g id="ViewLayer_LineSet" xmlns:inkscape="http://www.inkscape.org/namespaces/inkscape" inkscape:groupmode="lineset" inkscape:label="ViewLayer_LineSet">
        <g xmlns:inkscape="http://www.inkscape.org/namespaces/inkscape" inkscape:groupmode="layer" id="strokes" inkscape:label="strokes">
            <path fill="none" stroke-width="3.0" stroke-linecap="butt" stroke-opacity="1.0" stroke="rgb(0, 0, 0)" stroke-linejoin="round" d=" M 59.775, 95.839 59.366, 96.352 57.968, 98.112 53.731, 105.237 49.920, 113.921 49.245, 116.104 48.312, 119.122 48.212, 119.443 47.250, 122.555 46.652, 125.479 45.996, 128.686 45.451, 135.040 45.226, 139.583 45.455, 145.206 45.935, 149.739 46.796, 154.342 47.644, 158.315 48.931, 162.635 50.284, 166.272 50.596, 167.110 52.566, 171.547 54.756, 175.755 57.073, 179.547 59.415, 182.751 62.202, 186.483 62.350, 186.681 65.336, 189.932 69.451, 194.047 " />
            <path fill="none" stroke-width="3.0" stroke-linecap="butt" stroke-opacity="1.0" stroke="rgb(0, 0, 0)" stroke-linejoin="round" d=" M 190.271, 125.096 188.915, 118.750 188.566, 117.849 " />
            <path fill="none" stroke-width="3.0" stroke-linecap="butt" stroke-opacity="1.0" stroke="rgb(0, 0, 0)" stroke-linejoin="round" d=" M 105.045, 211.542 108.936, 212.262 112.888, 212.692 113.232, 212.730 115.086, 212.809 " />
            <path fill="none" stroke-width="3.0" stroke-linecap="butt" stroke-opacity="1.0" stroke="rgb(0, 0, 0)" stroke-linejoin="round" d=" M 77.110, 147.591 77.665, 148.990 79.029, 151.057 80.925, 152.713 81.554, 153.063 83.122, 153.936 85.165, 154.375 87.261, 154.298 89.637, 153.465 91.688, 152.130 93.238, 150.277 93.954, 148.959 " />
            <path fill="none" stroke-width="3.0" stroke-linecap="butt" stroke-opacity="1.0" stroke="rgb(0, 0, 0)" stroke-linejoin="round" d=" M 117.418, 98.178 117.989, 100.089 118.056, 100.315 118.509, 103.698 118.549, 107.515 118.565, 107.585 117.446, 115.989 117.184, 116.887 117.146, 117.016 116.219, 120.195 114.713, 124.482 112.956, 128.478 111.014, 131.990 108.952, 134.844 107.542, 136.217 107.166, 136.583 106.842, 136.898 104.755, 138.048 102.764, 138.234 101.435, 137.658 100.942, 137.444 99.364, 135.711 99.037, 135.041 98.790, 134.535 98.097, 133.115 97.203, 129.776 96.730, 125.857 96.708, 121.546 97.144, 117.049 97.928, 113.016 97.962, 112.843 98.001, 112.643 99.204, 108.486 100.727, 104.588 102.507, 101.092 104.476, 98.120 105.555, 96.906 " />
            <path fill="none" stroke-width="3.0" stroke-linecap="butt" stroke-opacity="1.0" stroke="rgb(0, 0, 0)" stroke-linejoin="round" d=" M 77.311, 116.023 77.008, 117.352 76.332, 120.313 75.248, 124.421 74.071, 128.147 73.966, 128.410 73.808, 128.806 72.809, 131.304 71.468, 133.732 70.064, 135.311 68.877, 135.851 68.624, 135.966 67.212, 135.968 65.835, 134.440 64.626, 132.345 63.650, 129.493 62.988, 126.031 62.953, 125.548 62.919, 125.086 62.704, 122.131 62.842, 117.983 63.119, 115.932 63.401, 113.842 64.269, 109.850 65.388, 106.012 66.713, 102.463 67.063, 101.722 67.315, 101.187 68.192, 99.327 69.765, 96.709 70.776, 95.444 " />
            <path fill="none" stroke-width="3.0" stroke-linecap="butt" stroke-opacity="1.0" stroke="rgb(0, 0, 0)" stroke-linejoin="round" d=" M 67.212, 135.968 70.419, 137.399 " />
            <path fill="none" stroke-width="3.0" stroke-linecap="butt" stroke-opacity="1.0" stroke="rgb(0, 0, 0)" stroke-linejoin="round" d=" M 77.769, 95.193 77.875, 95.380 78.528, 97.673 78.888, 100.575 78.998, 104.052 78.772, 106.783 78.746, 107.095 78.689, 107.783 " />
            <path fill="none" stroke-width="3.0" stroke-linecap="butt" stroke-opacity="1.0" stroke="rgb(0, 0, 0)" stroke-linejoin="round" d=" M 80.420, 118.019 77.311, 116.023 78.136, 111.826 78.689, 107.783 81.758, 109.872 " />
            <path fill="none" stroke-width="3.0" stroke-linecap="butt" stroke-opacity="1.0" stroke="rgb(0, 0, 0)" stroke-linejoin="round" d=" M 157.882, 204.872 162.979, 207.925 166.498, 211.383 " />
            <path fill="none" stroke-width="3.0" stroke-linecap="butt" stroke-opacity="1.0" stroke="rgb(0, 0, 0)" stroke-linejoin="round" d=" M 115.086, 212.809 114.965, 213.493 114.134, 217.205 114.017, 220.667 114.426, 223.798 115.583, 226.962 116.601, 230.147 118.425, 233.045 122.088, 236.166 126.778, 238.558 132.543, 239.983 137.798, 240.689 143.720, 240.644 151.361, 239.801 157.761, 238.488 164.120, 236.480 164.522, 236.309 168.063, 234.703 174.134, 226.756 174.217, 226.648 178.682, 217.700 179.460, 216.139 180.478, 213.642 183.744, 204.191 183.952, 203.591 184.208, 200.895 184.927, 192.388 184.391, 189.407 182.618, 183.032 182.219, 182.141 " />
            <path fill="none" stroke-width="3.0" stroke-linecap="butt" stroke-opacity="1.0" stroke="rgb(0, 0, 0)" stroke-linejoin="round" d=" M 62.202, 186.483 59.436, 189.206 55.680, 193.053 52.525, 197.570 50.202, 201.994 48.963, 205.995 48.178, 209.254 47.593, 213.035 47.796, 216.439 48.785, 219.898 50.125, 223.502 53.384, 226.454 55.678, 228.496 60.334, 230.811 64.765, 232.024 69.647, 232.369 76.156, 232.078 79.871, 231.256 82.778, 230.594 86.195, 229.645 92.986, 227.279 99.621, 222.921 102.405, 220.980 109.294, 215.659 112.888, 212.692 " />
            <path fill="none" stroke-width="3.0" stroke-linecap="butt" stroke-opacity="1.0" stroke="rgb(0, 0, 0)" stroke-linejoin="round" d=" M 178.745, 180.179 179.017, 180.363 180.473, 181.343 182.219, 182.141 185.070, 183.444 189.460, 184.823 193.949, 185.477 197.803, 185.288 201.312, 184.559 203.151, 184.064 206.252, 182.729 208.992, 180.868 210.120, 179.970 212.605, 177.614 214.563, 174.809 215.314, 173.452 216.714, 170.415 217.548, 167.520 217.982, 164.314 217.930, 160.672 217.114, 156.450 215.620, 152.231 215.297, 151.492 212.978, 146.817 208.888, 141.134 204.655, 136.246 204.419, 135.999 203.999, 135.561 200.568, 131.981 196.264, 128.459 191.587, 125.650 190.271, 125.096 184.747, 122.773 " />
            <path fill="none" stroke-width="3.0" stroke-linecap="butt" stroke-opacity="1.0" stroke="rgb(0, 0, 0)" stroke-linejoin="round" d=" M 173.320, 176.592 178.745, 180.179 178.969, 180.327 " />
            <path fill="none" stroke-width="3.0" stroke-linecap="butt" stroke-opacity="1.0" stroke="rgb(0, 0, 0)" stroke-linejoin="round" d=" M 46.652, 125.479 46.061, 126.079 43.593, 129.294 41.158, 132.818 39.806, 135.342 39.546, 135.902 38.048, 139.132 " />
            <path fill="none" stroke-width="3.0" stroke-linecap="butt" stroke-opacity="1.0" stroke="rgb(0, 0, 0)" stroke-linejoin="round" d=" M 39.546, 135.902 39.095, 136.766 38.048, 139.132 37.198, 142.088 36.663, 144.881 36.400, 147.296 36.947, 151.215 37.247, 153.107 38.759, 157.050 39.382, 157.943 41.451, 160.790 43.841, 163.046 45.697, 164.371 48.670, 165.825 50.284, 166.272 " />
            <path fill="none" stroke-width="3.0" stroke-linecap="butt" stroke-opacity="1.0" stroke="rgb(0, 0, 0)" stroke-linejoin="round" d=" M 118.807, 66.153 119.546, 65.581 119.696, 65.276 119.733, 65.198 121.400, 61.784 122.386, 59.207 122.367, 55.519 121.350, 52.826 119.443, 49.129 117.610, 47.799 " />
            <path fill="none" stroke-width="3.0" stroke-linecap="butt" stroke-opacity="1.0" stroke="rgb(0, 0, 0)" stroke-linejoin="round" d=" M 56.077, 51.232 55.979, 51.508 54.461, 55.792 52.820, 61.874 52.250, 69.711 52.540, 70.993 54.193, 76.263 56.685, 77.542 60.281, 78.362 61.834, 78.715 62.157, 78.756 65.721, 79.208 71.736, 78.135 77.305, 76.705 82.830, 74.490 82.894, 74.465 " />
            <path fill="none" stroke-width="3.0" stroke-linecap="butt" stroke-opacity="1.0" stroke="rgb(0, 0, 0)" stroke-linejoin="round" d=" M 33.786, 108.492 31.575, 103.818 32.756, 102.628 37.458, 97.892 42.048, 96.666 50.113, 94.512 53.161, 93.698 56.170, 93.576 58.938, 93.463 61.755, 93.349 71.746, 92.942 74.217, 92.842 75.053, 92.808 79.968, 92.608 89.939, 93.365 99.911, 94.123 107.908, 94.731 113.716, 95.173 116.173, 95.603 116.202, 95.608 126.052, 97.336 135.901, 99.063 145.751, 100.790 147.738, 101.139 157.391, 103.750 167.044, 106.361 176.697, 108.971 177.175, 109.101 178.220, 109.541 178.451, 109.639 183.147, 111.618 " />
            <path fill="none" stroke-width="3.0" stroke-linecap="butt" stroke-opacity="1.0" stroke="rgb(0, 0, 0)" stroke-linejoin="round" d=" M 203.999, 135.561 206.761, 133.884 206.398, 127.330 199.996, 122.318 197.993, 120.749 " />
            <path fill="none" stroke-width="3.0" stroke-linecap="butt" stroke-opacity="1.0" stroke="rgb(0, 0, 0)" stroke-linejoin="round" d=" M 44.951, 99.056 54.694, 96.800 58.671, 95.879 " />
            <path fill="none" stroke-width="3.0" stroke-linecap="butt" stroke-opacity="1.0" stroke="rgb(0, 0, 0)" stroke-linejoin="round" d=" M 38.817, 113.456 45.640, 118.005 47.120, 118.989 48.212, 119.443 " />
            <path fill="none" stroke-width="3.0" stroke-linecap="butt" stroke-opacity="1.0" stroke="rgb(0, 0, 0)" stroke-linejoin="round" d=" M 55.961, 95.976 46.223, 98.249 45.740, 98.361 41.085, 99.448 39.787, 99.751 33.777, 105.461 34.539, 107.119 " />
            <path fill="none" stroke-width="3.0" stroke-linecap="butt" stroke-opacity="1.0" stroke="rgb(0, 0, 0)" stroke-linejoin="round" d=" M 55.961, 95.976 58.671, 95.879 58.815, 95.874 59.775, 95.839 60.686, 95.806 70.776, 95.444 76.851, 95.226 77.769, 95.193 78.887, 95.153 81.515, 95.059 91.486, 95.825 101.457, 96.591 105.555, 96.906 110.512, 97.287 113.470, 97.515 117.418, 98.178 117.869, 98.254 117.887, 98.257 127.749, 99.913 137.611, 101.570 145.687, 102.926 146.807, 103.115 156.468, 105.697 166.128, 108.280 175.782, 110.861 179.369, 112.353 184.900, 114.653 " />
            <path fill="none" stroke-width="3.0" stroke-linecap="butt" stroke-opacity="1.0" stroke="rgb(0, 0, 0)" stroke-linejoin="round" d=" M 57.440, 80.732 49.068, 85.209 47.559, 86.016 47.251, 86.180 40.989, 90.308 36.183, 94.285 33.013, 97.545 31.200, 100.435 30.029, 103.508 30.022, 105.994 30.487, 108.179 34.818, 112.435 37.500, 113.915 38.817, 113.456 38.821, 113.454 40.763, 112.777 41.958, 111.961 43.622, 110.825 45.209, 105.728 " />
            <path fill="none" stroke-width="3.0" stroke-linecap="butt" stroke-opacity="1.0" stroke="rgb(0, 0, 0)" stroke-linejoin="round" d=" M 33.220, 109.774 30.487, 108.179 " />
            <path fill="none" stroke-width="3.0" stroke-linecap="butt" stroke-opacity="1.0" stroke="rgb(0, 0, 0)" stroke-linejoin="round" d=" M 43.622, 110.825 39.889, 108.349 " />
            <path fill="none" stroke-width="3.0" stroke-linecap="butt" stroke-opacity="1.0" stroke="rgb(0, 0, 0)" stroke-linejoin="round" d=" M 40.733, 106.107 39.889, 108.349 36.465, 109.312 " />
            <path fill="none" stroke-width="3.0" stroke-linecap="butt" stroke-opacity="1.0" stroke="rgb(0, 0, 0)" stroke-linejoin="round" d=" M 62.157, 78.756 59.227, 79.983 57.440, 80.732 50.483, 84.105 47.559, 86.016 " />
            <path fill="none" stroke-width="3.0" stroke-linecap="butt" stroke-opacity="1.0" stroke="rgb(0, 0, 0)" stroke-linejoin="round" d=" M 47.251, 86.180 47.404, 86.117 49.950, 85.061 50.136, 84.984 52.709, 83.916 55.727, 82.664 57.919, 81.996 67.361, 79.119 77.306, 78.067 79.209, 77.866 80.463, 77.733 81.832, 77.693 87.701, 77.522 89.655, 77.602 90.026, 77.618 " />
            <path fill="none" stroke-width="3.0" stroke-linecap="butt" stroke-opacity="1.0" stroke="rgb(0, 0, 0)" stroke-linejoin="round" d=" M 179.369, 112.353 180.081, 114.093 183.101, 115.501 183.298, 115.586 184.622, 116.155 188.566, 117.849 196.954, 121.454 197.021, 121.409 197.993, 120.749 198.712, 120.261 199.160, 119.957 199.409, 118.869 199.996, 116.311 197.091, 111.734 192.333, 107.122 190.592, 105.435 183.030, 99.969 181.245, 98.640 179.391, 97.260 176.991, 95.472 176.809, 95.337 172.416, 92.734 168.269, 90.278 161.772, 87.553 157.081, 85.586 156.822, 85.505 147.277, 82.522 144.364, 81.611 134.750, 78.860 131.563, 77.947 121.704, 76.275 118.697, 75.764 109.289, 74.243 107.500, 73.953 " />
            <path fill="none" stroke-width="3.0" stroke-linecap="butt" stroke-opacity="1.0" stroke="rgb(0, 0, 0)" stroke-linejoin="round" d=" M 102.403, 78.561 107.781, 79.108 111.470, 79.483 113.088, 79.878 122.802, 82.250 128.129, 83.550 137.734, 86.334 142.540, 87.727 142.958, 87.888 152.283, 91.500 155.386, 92.701 164.541, 96.724 166.543, 97.604 174.917, 101.688 181.372, 105.316 184.675, 107.802 186.448, 109.138 187.628, 111.010 188.077, 111.723 188.336, 112.134 188.620, 114.123 188.702, 114.700 187.616, 115.398 187.253, 115.632 186.165, 116.331 " />
            <path fill="none" stroke-width="3.0" stroke-linecap="butt" stroke-opacity="1.0" stroke="rgb(0, 0, 0)" stroke-linejoin="round" d=" M 99.132, 75.049 100.091, 73.678 102.931, 69.615 103.460, 67.803 103.898, 66.301 104.230, 65.164 104.475, 64.327 104.912, 62.828 105.266, 61.616 105.352, 61.324 105.888, 54.912 105.877, 53.162 105.870, 52.072 105.860, 50.577 105.857, 50.134 " />
            <path fill="none" stroke-width="3.0" stroke-linecap="butt" stroke-opacity="1.0" stroke="rgb(0, 0, 0)" stroke-linejoin="round" d=" M 76.872, 69.853 80.423, 72.170 83.144, 73.483 83.887, 73.842 84.978, 74.369 85.580, 74.660 93.104, 76.208 99.132, 75.049 99.661, 75.688 100.338, 76.506 102.002, 77.843 103.100, 78.225 103.456, 78.349 " />
            <path fill="none" stroke-width="3.0" stroke-linecap="butt" stroke-opacity="1.0" stroke="rgb(0, 0, 0)" stroke-linejoin="round" d=" M 54.193, 76.263 53.871, 74.879 " />
            <path fill="none" stroke-width="3.0" stroke-linecap="butt" stroke-opacity="1.0" stroke="rgb(0, 0, 0)" stroke-linejoin="round" d=" M 79.897, 72.738 77.629, 71.175 76.872, 69.853 72.523, 72.164 66.642, 74.596 62.182, 75.438 59.011, 76.038 53.871, 74.879 52.250, 69.711 " />
            <path fill="none" stroke-width="3.0" stroke-linecap="butt" stroke-opacity="1.0" stroke="rgb(0, 0, 0)" stroke-linejoin="round" d=" M 110.686, 57.683 110.884, 57.405 110.887, 57.400 111.155, 57.023 114.211, 52.726 114.468, 52.354 117.610, 47.799 118.892, 45.940 122.564, 40.279 122.714, 39.729 124.108, 34.622 124.159, 31.415 122.975, 29.130 119.492, 24.878 114.214, 22.447 111.277, 21.323 105.535, 20.223 103.078, 19.964 101.146, 19.759 " />
            <path fill="none" stroke-width="3.0" stroke-linecap="butt" stroke-opacity="1.0" stroke="rgb(0, 0, 0)" stroke-linejoin="round" d=" M 53.297, 47.688 52.567, 46.455 50.303, 42.631 48.879, 37.226 49.350, 31.715 53.707, 27.489 60.750, 23.929 66.447, 22.296 70.764, 21.392 73.357, 17.388 77.249, 12.191 83.333, 6.388 88.745, 3.679 93.362, 5.696 97.635, 10.903 99.856, 15.855 101.146, 19.759 " />
            <path fill="none" stroke-width="3.0" stroke-linecap="butt" stroke-opacity="1.0" stroke="rgb(0, 0, 0)" stroke-linejoin="round" d=" M 108.992, 53.271 107.502, 51.491 107.197, 51.127 106.002, 50.241 105.857, 50.134 106.156, 49.874 106.673, 49.426 110.388, 46.204 110.742, 45.838 115.845, 40.557 116.131, 40.111 119.686, 34.562 121.363, 28.570 117.956, 24.401 111.277, 21.323 " />
            <path fill="none" stroke-width="3.0" stroke-linecap="butt" stroke-opacity="1.0" stroke="rgb(0, 0, 0)" stroke-linejoin="round" d=" M 52.567, 46.455 52.582, 46.487 53.297, 47.688 55.979, 51.508 " />
            <path fill="none" stroke-width="3.0" stroke-linecap="butt" stroke-opacity="1.0" stroke="rgb(0, 0, 0)" stroke-linejoin="round" d=" M 103.078, 19.964 102.186, 17.686 99.702, 12.862 98.277, 10.540 94.392, 5.817 89.686, 3.763 88.745, 3.679 " />
            <path fill="none" stroke-width="3.0" stroke-linecap="butt" stroke-opacity="1.0" stroke="rgb(0, 0, 0)" stroke-linejoin="round" d=" M 53.297, 47.688 56.077, 51.232 " />
            <path fill="none" stroke-width="3.0" stroke-linecap="butt" stroke-opacity="1.0" stroke="rgb(0, 0, 0)" stroke-linejoin="round" d=" M 191.358, 102.389 188.452, 92.820 186.420, 86.129 185.415, 85.061 184.206, 80.723 179.349, 71.982 178.093, 69.722 171.550, 62.159 170.444, 60.880 164.763, 55.314 156.782, 49.289 156.445, 49.035 149.223, 45.145 142.956, 43.044 138.066, 41.438 137.134, 41.132 130.683, 39.978 126.762, 39.814 124.324, 39.713 122.714, 39.729 " />
            <path fill="none" stroke-width="3.0" stroke-linecap="butt" stroke-opacity="1.0" stroke="rgb(0, 0, 0)" stroke-linejoin="round" d=" M 79.897, 72.738 82.059, 73.984 82.846, 74.437 82.894, 74.465 83.808, 74.992 84.656, 75.480 84.775, 75.548 88.354, 76.959 89.939, 77.583 90.026, 77.618 90.801, 77.923 91.097, 77.996 92.252, 78.282 94.680, 78.800 97.861, 79.477 100.122, 79.021 102.403, 78.561 103.456, 78.349 103.522, 78.254 104.235, 77.234 106.555, 73.918 106.632, 73.809 107.400, 72.710 108.640, 69.029 108.844, 68.423 109.140, 66.872 109.459, 65.202 109.571, 64.618 110.263, 60.998 110.686, 57.683 110.739, 57.263 110.777, 56.966 110.848, 56.411 110.913, 55.901 " />
            <path fill="none" stroke-width="3.0" stroke-linecap="butt" stroke-opacity="1.0" stroke="rgb(0, 0, 0)" stroke-linejoin="round" d=" M 186.436, 99.291 183.138, 96.480 174.616, 92.574 166.856, 89.017 161.772, 87.553 " />
            <path fill="none" stroke-width="3.0" stroke-linecap="butt" stroke-opacity="1.0" stroke="rgb(0, 0, 0)" stroke-linejoin="round" d=" M 121.295, 65.287 119.733, 65.198 " />
            <path fill="none" stroke-width="3.0" stroke-linecap="butt" stroke-opacity="1.0" stroke="rgb(0, 0, 0)" stroke-linejoin="round" d=" M 121.295, 65.287 131.172, 66.851 141.049, 68.416 145.077, 69.054 " />
            <path fill="none" stroke-width="3.0" stroke-linecap="butt" stroke-opacity="1.0" stroke="rgb(0, 0, 0)" stroke-linejoin="round" d=" M 138.066, 41.438 137.595, 40.797 134.257, 39.394 130.198, 38.945 127.029, 39.627 126.762, 39.814 " />
            <path fill="none" stroke-width="3.0" stroke-linecap="butt" stroke-opacity="1.0" stroke="rgb(0, 0, 0)" stroke-linejoin="round" d=" M 204.419, 135.999 209.012, 133.235 209.879, 129.528 209.726, 122.477 205.895, 116.996 200.114, 109.913 192.529, 103.396 191.358, 102.389 190.563, 101.706 186.436, 99.291 185.129, 98.526 176.136, 94.429 172.416, 92.734 " />
            <path fill="none" stroke-width="3.0" stroke-linecap="butt" stroke-opacity="1.0" stroke="rgb(0, 0, 0)" stroke-linejoin="round" d=" M 199.409, 118.869 207.215, 125.120 208.796, 126.387 209.012, 133.235 " />
            <path fill="none" stroke-width="3.0" stroke-linecap="butt" stroke-opacity="1.0" stroke="rgb(0, 0, 0)" stroke-linejoin="round" d=" M 44.688, 89.017 43.543, 89.878 38.077, 93.923 32.012, 100.169 31.575, 103.818 " />
            <path fill="none" stroke-width="3.0" stroke-linecap="butt" stroke-opacity="1.0" stroke="rgb(0, 0, 0)" stroke-linejoin="round" d=" M 209.726, 122.477 202.035, 116.087 199.458, 113.946 " />
            <path fill="none" stroke-width="3.0" stroke-linecap="butt" stroke-opacity="1.0" stroke="rgb(0, 0, 0)" stroke-linejoin="round" d=" M 38.821, 113.454 47.120, 118.989 " />
            <path fill="none" stroke-width="3.0" stroke-linecap="butt" stroke-opacity="1.0" stroke="rgb(0, 0, 0)" stroke-linejoin="round" d=" M 60.281, 78.362 59.227, 79.983 " />
            <path fill="none" stroke-width="3.0" stroke-linecap="butt" stroke-opacity="1.0" stroke="rgb(0, 0, 0)" stroke-linejoin="round" d=" M 107.278, 73.945 107.379, 73.607 108.746, 69.028 " />
            <path fill="none" stroke-width="3.0" stroke-linecap="butt" stroke-opacity="1.0" stroke="rgb(0, 0, 0)" stroke-linejoin="round" d=" M 108.640, 69.029 108.746, 69.028 110.915, 68.995 " />
            <path fill="none" stroke-width="3.0" stroke-linecap="butt" stroke-opacity="1.0" stroke="rgb(0, 0, 0)" stroke-linejoin="round" d=" M 197.021, 121.409 201.681, 125.017 " />
        </g>
    </g>
</svg>
