<?xml version='1.0' encoding='ascii'?>
<svg xmlns="http://www.w3.org/2000/svg" version="1.1" width="250" height="250">
    <g id="ViewLayer_LineSet" xmlns:inkscape="http://www.inkscape.org/namespaces/inkscape" inkscape:groupmode="lineset" inkscape:label="ViewLayer_LineSet">
        <g xmlns:inkscape="http://www.inkscape.org/namespaces/inkscape" inkscape:groupmode="layer" id="strokes" inkscape:label="strokes">
            <path fill="none" stroke-width="3.0" stroke-linecap="butt" stroke-opacity="1.0" stroke="rgb(0, 0, 0)" stroke-linejoin="round" d=" M 143.749, 211.315 146.486, 210.609 150.426, 209.041 157.458, 205.905 162.469, 202.866 165.423, 200.741 169.415, 197.852 170.947, 196.638 171.743, 195.905 172.381, 195.316 172.879, 194.857 176.056, 191.925 180.688, 186.642 181.864, 185.043 185.552, 179.796 186.516, 178.158 189.149, 173.249 189.708, 172.169 190.320, 170.877 190.798, 169.790 190.954, 169.435 191.581, 167.912 192.171, 166.382 192.694, 164.917 193.128, 163.587 193.449, 162.458 194.975, 156.927 195.365, 155.168 196.343, 148.713 196.529, 146.897 196.832, 139.817 196.401, 132.822 195.092, 125.116 195.074, 125.054 194.887, 124.384 193.375, 118.678 192.760, 116.944 192.648, 116.630 191.590, 113.648 190.925, 111.773 187.817, 105.202 184.090, 99.028 182.741, 97.235 " />
            <path fill="none" stroke-width="3.0" stroke-linecap="butt" stroke-opacity="1.0" stroke="rgb(0, 0, 0)" stroke-linejoin="round" d=" M 60.771, 179.617 65.564, 186.970 71.586, 193.457 " />
            <path fill="none" stroke-width="3.0" stroke-linecap="butt" stroke-opacity="1.0" stroke="rgb(0, 0, 0)" stroke-linejoin="round" d=" M 161.868, 149.992 162.485, 151.293 163.806, 153.112 165.559, 154.410 167.610, 155.206 169.410, 155.256 171.153, 154.799 173.018, 153.567 174.644, 151.916 175.820, 149.868 176.292, 148.486 " />
            <path fill="none" stroke-width="3.0" stroke-linecap="butt" stroke-opacity="1.0" stroke="rgb(0, 0, 0)" stroke-linejoin="round" d=" M 180.340, 97.085 181.008, 98.019 182.466, 100.612 183.901, 103.715 185.257, 107.220 185.212, 107.284 187.418, 115.034 187.563, 115.658 188.278, 118.749 188.324, 118.947 188.339, 119.081 188.540, 120.894 188.769, 122.973 188.827, 126.775 188.527, 130.178 187.921, 133.016 187.078, 135.144 186.071, 136.450 184.968, 136.858 183.824, 136.334 182.678, 134.890 182.574, 134.679 181.547, 132.586 180.438, 129.529 179.348, 125.867 178.552, 122.836 178.429, 122.369 178.274, 121.781 177.675, 119.329 177.223, 117.476 177.208, 117.415 176.222, 113.226 175.403, 109.192 174.828, 105.392 174.519, 101.974 174.493, 99.353 174.490, 99.061 174.491, 99.047 174.545, 98.559 174.727, 96.891 " />
            <path fill="none" stroke-width="3.0" stroke-linecap="butt" stroke-opacity="1.0" stroke="rgb(0, 0, 0)" stroke-linejoin="round" d=" M 160.796, 118.194 161.556, 122.473 161.572, 122.562 161.884, 126.778 161.849, 127.664 161.827, 128.210 161.730, 130.645 161.132, 133.980 160.132, 136.621 158.787, 138.438 157.159, 139.342 155.912, 139.514 155.399, 139.585 154.906, 139.270 153.322, 138.259 151.244, 136.315 149.148, 133.542 148.201, 131.943 147.930, 131.485 147.095, 130.075 145.151, 126.086 143.381, 121.772 141.867, 117.412 140.709, 113.171 140.527, 112.195 140.504, 112.071 139.943, 109.067 139.596, 105.258 139.678, 101.883 140.047, 99.821 " />
            <path fill="none" stroke-width="3.0" stroke-linecap="butt" stroke-opacity="1.0" stroke="rgb(0, 0, 0)" stroke-linejoin="round" d=" M 151.040, 98.474 152.163, 99.666 154.293, 102.592 156.286, 106.094 156.718, 106.996 156.837, 107.246 158.087, 109.858 " />
            <path fill="none" stroke-width="3.0" stroke-linecap="butt" stroke-opacity="1.0" stroke="rgb(0, 0, 0)" stroke-linejoin="round" d=" M 157.473, 120.133 160.796, 118.194 159.606, 113.940 158.087, 109.858 154.816, 111.893 " />
            <path fill="none" stroke-width="3.0" stroke-linecap="butt" stroke-opacity="1.0" stroke="rgb(0, 0, 0)" stroke-linejoin="round" d=" M 173.110, 195.953 173.106, 195.924 172.879, 194.857 " />
            <path fill="none" stroke-width="3.0" stroke-linecap="butt" stroke-opacity="1.0" stroke="rgb(0, 0, 0)" stroke-linejoin="round" d=" M 147.471, 226.621 151.561, 227.104 157.267, 227.477 162.516, 227.256 167.743, 226.435 171.157, 225.375 173.648, 223.677 176.796, 221.284 178.415, 218.619 179.547, 215.287 179.729, 211.597 179.930, 208.885 179.016, 205.253 177.649, 201.376 173.971, 196.720 173.110, 195.953 172.838, 195.711 172.381, 195.316 " />
            <path fill="none" stroke-width="3.0" stroke-linecap="butt" stroke-opacity="1.0" stroke="rgb(0, 0, 0)" stroke-linejoin="round" d=" M 71.586, 193.457 70.711, 194.306 68.308, 197.289 65.773, 201.916 64.770, 206.522 64.500, 210.818 64.619, 213.826 65.560, 217.527 67.406, 221.036 70.090, 224.863 73.433, 228.368 79.435, 232.751 87.622, 237.456 95.983, 240.997 99.433, 242.315 107.687, 243.521 112.063, 243.979 119.762, 244.339 127.829, 243.967 133.408, 243.025 137.631, 241.402 141.431, 238.939 143.935, 236.367 146.342, 232.399 147.357, 228.613 147.471, 226.621 147.576, 224.773 147.327, 222.045 146.656, 217.937 145.202, 213.599 143.749, 211.315 142.415, 209.219 142.248, 208.955 " />
            <path fill="none" stroke-width="3.0" stroke-linecap="butt" stroke-opacity="1.0" stroke="rgb(0, 0, 0)" stroke-linejoin="round" d=" M 190.798, 169.790 191.243, 169.845 194.490, 169.639 198.813, 168.411 200.722, 167.506 201.247, 167.213 202.778, 166.225 205.092, 164.350 207.265, 161.907 208.998, 158.896 210.023, 156.090 210.453, 154.333 210.740, 152.820 210.838, 149.080 210.303, 146.026 209.646, 144.155 208.447, 140.786 206.628, 137.274 203.324, 133.002 199.821, 129.287 196.371, 126.005 195.074, 125.054 " />
            <path fill="none" stroke-width="3.0" stroke-linecap="butt" stroke-opacity="1.0" stroke="rgb(0, 0, 0)" stroke-linejoin="round" d=" M 58.059, 122.056 51.073, 124.829 50.362, 125.112 45.210, 127.871 40.477, 131.326 36.008, 135.523 34.696, 136.913 33.604, 138.069 31.460, 140.340 27.088, 145.950 24.467, 150.541 22.689, 154.923 21.724, 159.436 21.660, 163.363 22.187, 167.051 23.336, 170.497 23.610, 171.088 25.294, 174.209 27.538, 177.156 30.199, 179.538 33.183, 181.513 36.435, 182.993 40.005, 183.937 43.914, 184.380 48.519, 184.037 53.108, 182.963 57.995, 181.173 60.771, 179.617 64.132, 177.734 " />
            <path fill="none" stroke-width="3.0" stroke-linecap="butt" stroke-opacity="1.0" stroke="rgb(0, 0, 0)" stroke-linejoin="round" d=" M 158.961, 21.614 155.210, 21.850 154.072, 22.036 150.310, 22.653 147.310, 23.612 142.860, 25.785 140.691, 28.056 137.956, 32.100 136.750, 35.292 138.046, 39.788 139.195, 43.844 139.544, 45.076 140.820, 47.246 141.349, 48.145 144.700, 53.845 144.701, 53.847 144.703, 53.850 145.094, 54.471 146.494, 56.694 146.507, 56.715 148.016, 59.110 148.528, 61.160 148.656, 61.668 149.020, 63.127 149.306, 64.195 149.685, 65.612 149.698, 65.658 149.931, 66.527 150.083, 67.097 150.232, 67.655 151.026, 70.619 152.490, 73.056 153.734, 75.125 155.464, 78.002 155.809, 78.304 157.010, 79.359 157.492, 79.782 157.552, 79.835 160.559, 80.612 162.406, 81.090 163.682, 80.924 165.581, 80.678 165.914, 80.606 168.392, 80.074 169.283, 79.883 169.912, 79.748 170.504, 79.483 170.698, 79.396 170.994, 79.264 174.841, 77.544 175.044, 77.451 175.419, 77.278 177.647, 76.254 179.597, 74.945 181.834, 73.443 " />
            <path fill="none" stroke-width="3.0" stroke-linecap="butt" stroke-opacity="1.0" stroke="rgb(0, 0, 0)" stroke-linejoin="round" d=" M 164.375, 76.729 162.908, 78.136 162.498, 78.337 160.775, 79.180 160.325, 79.400 157.552, 79.835 " />
            <path fill="none" stroke-width="3.0" stroke-linecap="butt" stroke-opacity="1.0" stroke="rgb(0, 0, 0)" stroke-linejoin="round" d=" M 208.819, 106.006 208.996, 105.855 208.688, 100.148 207.925, 96.301 204.111, 93.585 202.271, 92.275 " />
            <path fill="none" stroke-width="3.0" stroke-linecap="butt" stroke-opacity="1.0" stroke="rgb(0, 0, 0)" stroke-linejoin="round" d=" M 37.990, 132.335 43.596, 125.950 " />
            <path fill="none" stroke-width="3.0" stroke-linecap="butt" stroke-opacity="1.0" stroke="rgb(0, 0, 0)" stroke-linejoin="round" d=" M 53.129, 121.125 51.794, 121.801 43.596, 125.950 40.792, 127.369 39.172, 128.189 33.341, 135.008 34.696, 136.913 " />
            <path fill="none" stroke-width="3.0" stroke-linecap="butt" stroke-opacity="1.0" stroke="rgb(0, 0, 0)" stroke-linejoin="round" d=" M 74.500, 113.651 81.365, 111.379 91.105, 109.113 100.845, 106.846 110.585, 104.580 113.713, 103.852 123.598, 102.339 133.483, 100.826 137.564, 100.201 140.047, 99.821 146.002, 98.910 147.153, 98.734 151.040, 98.474 161.018, 97.807 170.684, 97.161 172.113, 97.065 174.727, 96.891 175.941, 96.809 177.305, 96.895 178.472, 96.968 180.340, 97.085 182.741, 97.235 191.990, 97.814 196.158, 98.075 " />
            <path fill="none" stroke-width="3.0" stroke-linecap="butt" stroke-opacity="1.0" stroke="rgb(0, 0, 0)" stroke-linejoin="round" d=" M 206.835, 107.409 206.759, 106.606 206.315, 101.904 " />
            <path fill="none" stroke-width="3.0" stroke-linecap="butt" stroke-opacity="1.0" stroke="rgb(0, 0, 0)" stroke-linejoin="round" d=" M 148.513, 67.469 149.159, 67.659 150.232, 67.655 " />
            <path fill="none" stroke-width="3.0" stroke-linecap="butt" stroke-opacity="1.0" stroke="rgb(0, 0, 0)" stroke-linejoin="round" d=" M 148.330, 75.188 147.198, 75.201 145.345, 75.469 141.769, 75.986 136.768, 76.709 126.879, 78.194 124.424, 78.562 114.762, 81.137 111.746, 81.941 102.142, 84.730 98.863, 85.682 98.246, 85.921 88.919, 89.527 87.082, 90.237 86.996, 90.284 84.580, 91.594 77.797, 95.274 70.953, 99.953 67.720, 102.102 62.593, 105.511 55.488, 111.999 54.809, 112.921 52.794, 115.657 51.988, 116.752 51.991, 116.774 52.321, 119.175 52.358, 119.438 52.513, 120.569 53.129, 121.125 54.249, 122.138 61.435, 119.623 62.570, 119.226 71.571, 116.076 74.105, 114.634 74.500, 113.651 " />
            <path fill="none" stroke-width="3.0" stroke-linecap="butt" stroke-opacity="1.0" stroke="rgb(0, 0, 0)" stroke-linejoin="round" d=" M 68.948, 116.922 67.700, 115.901 66.861, 115.215 67.535, 112.554 68.967, 110.678 69.893, 109.467 75.700, 105.576 82.907, 101.928 91.913, 97.867 101.164, 94.070 103.630, 93.058 113.025, 89.633 116.775, 88.266 123.033, 86.546 130.945, 84.371 140.683, 82.096 146.638, 80.704 146.690, 80.692 147.818, 80.597 156.807, 79.840 157.492, 79.782 " />
            <path fill="none" stroke-width="3.0" stroke-linecap="butt" stroke-opacity="1.0" stroke="rgb(0, 0, 0)" stroke-linejoin="round" d=" M 170.504, 79.483 171.114, 79.521 174.103, 79.707 183.151, 81.133 184.598, 81.361 193.446, 85.060 199.461, 88.628 203.476, 92.719 204.111, 93.585 " />
            <path fill="none" stroke-width="3.0" stroke-linecap="butt" stroke-opacity="1.0" stroke="rgb(0, 0, 0)" stroke-linejoin="round" d=" M 178.149, 78.393 175.780, 77.649 175.044, 77.451 " />
            <path fill="none" stroke-width="3.0" stroke-linecap="butt" stroke-opacity="1.0" stroke="rgb(0, 0, 0)" stroke-linejoin="round" d=" M 193.446, 85.060 184.445, 80.703 182.574, 79.797 " />
            <path fill="none" stroke-width="3.0" stroke-linecap="butt" stroke-opacity="1.0" stroke="rgb(0, 0, 0)" stroke-linejoin="round" d=" M 191.830, 107.449 192.892, 112.406 193.369, 112.761 195.466, 114.323 196.561, 114.733 196.997, 114.897 198.479, 115.452 201.043, 114.047 205.321, 111.540 207.853, 110.032 208.483, 107.936 208.819, 106.006 " />
            <path fill="none" stroke-width="3.0" stroke-linecap="butt" stroke-opacity="1.0" stroke="rgb(0, 0, 0)" stroke-linejoin="round" d=" M 199.253, 110.095 202.383, 111.062 " />
            <path fill="none" stroke-width="3.0" stroke-linecap="butt" stroke-opacity="1.0" stroke="rgb(0, 0, 0)" stroke-linejoin="round" d=" M 198.708, 108.275 199.253, 110.095 192.892, 112.406 " />
            <path fill="none" stroke-width="3.0" stroke-linecap="butt" stroke-opacity="1.0" stroke="rgb(0, 0, 0)" stroke-linejoin="round" d=" M 142.765, 70.118 145.059, 70.208 146.034, 70.247 146.680, 70.272 148.513, 67.469 149.143, 66.506 149.698, 65.658 " />
            <path fill="none" stroke-width="3.0" stroke-linecap="butt" stroke-opacity="1.0" stroke="rgb(0, 0, 0)" stroke-linejoin="round" d=" M 140.820, 47.246 138.353, 47.645 135.560, 49.926 132.636, 54.817 132.495, 56.227 132.352, 59.934 132.374, 61.589 134.692, 66.021 134.745, 66.123 134.907, 66.434 136.412, 67.958 " />
            <path fill="none" stroke-width="3.0" stroke-linecap="butt" stroke-opacity="1.0" stroke="rgb(0, 0, 0)" stroke-linejoin="round" d=" M 175.419, 77.278 175.813, 77.600 178.149, 78.393 179.432, 78.828 182.343, 79.725 182.540, 79.786 182.574, 79.797 184.440, 80.372 189.626, 81.564 194.326, 81.203 198.510, 80.177 201.628, 79.015 202.294, 77.686 203.289, 72.699 202.314, 65.059 200.573, 59.085 198.949, 54.587 201.003, 51.234 203.131, 46.427 203.946, 41.231 203.204, 35.854 199.357, 31.547 193.316, 27.742 188.483, 25.868 184.825, 24.769 182.393, 20.703 178.784, 15.380 173.270, 9.316 168.499, 6.322 167.210, 6.332 163.326, 8.096 160.890, 10.577 158.038, 14.766 155.892, 18.348 154.072, 22.036 " />
            <path fill="none" stroke-width="3.0" stroke-linecap="butt" stroke-opacity="1.0" stroke="rgb(0, 0, 0)" stroke-linejoin="round" d=" M 182.891, 72.174 186.682, 74.562 191.737, 77.096 198.143, 78.691 202.294, 77.686 " />
            <path fill="none" stroke-width="3.0" stroke-linecap="butt" stroke-opacity="1.0" stroke="rgb(0, 0, 0)" stroke-linejoin="round" d=" M 181.834, 73.443 182.891, 72.174 180.360, 74.130 180.061, 74.361 179.455, 74.698 175.877, 76.686 174.940, 76.886 173.830, 77.124 170.339, 77.871 169.598, 78.030 164.375, 76.729 163.508, 75.409 160.754, 71.219 160.438, 70.220 159.707, 67.909 159.422, 67.006 159.140, 66.117 158.670, 64.628 158.574, 64.326 158.573, 64.323 158.117, 62.880 157.265, 56.751 157.225, 56.464 157.071, 53.956 157.016, 53.066 156.932, 51.696 " />
            <path fill="none" stroke-width="3.0" stroke-linecap="butt" stroke-opacity="1.0" stroke="rgb(0, 0, 0)" stroke-linejoin="round" d=" M 150.310, 22.653 144.699, 25.399 141.998, 29.422 143.871, 35.525 147.629, 41.715 151.967, 46.694 152.253, 47.022 152.751, 47.594 153.195, 48.030 156.473, 51.246 156.932, 51.696 155.810, 52.334 155.743, 52.372 155.300, 52.623 153.907, 53.623 153.743, 53.740 152.454, 54.664 " />
            <path fill="none" stroke-width="3.0" stroke-linecap="butt" stroke-opacity="1.0" stroke="rgb(0, 0, 0)" stroke-linejoin="round" d=" M 168.499, 6.322 164.697, 8.053 161.386, 12.984 159.809, 17.792 158.961, 21.614 " />
            <path fill="none" stroke-width="3.0" stroke-linecap="butt" stroke-opacity="1.0" stroke="rgb(0, 0, 0)" stroke-linejoin="round" d=" M 139.195, 43.844 133.024, 41.661 125.310, 40.243 117.898, 39.887 112.642, 39.870 111.848, 39.867 105.297, 40.736 99.692, 42.212 98.979, 42.399 93.596, 44.666 86.114, 47.947 80.044, 52.063 72.399, 58.509 71.155, 59.558 64.990, 67.432 64.184, 68.461 59.866, 74.638 55.407, 83.588 54.026, 86.359 53.011, 90.040 " />
            <path fill="none" stroke-width="3.0" stroke-linecap="butt" stroke-opacity="1.0" stroke="rgb(0, 0, 0)" stroke-linejoin="round" d=" M 140.089, 29.891 137.956, 32.100 " />
            <path fill="none" stroke-width="3.0" stroke-linecap="butt" stroke-opacity="1.0" stroke="rgb(0, 0, 0)" stroke-linejoin="round" d=" M 134.692, 66.021 132.835, 66.072 126.062, 66.909 116.138, 68.135 112.761, 68.552 110.034, 68.889 108.425, 69.088 " />
            <path fill="none" stroke-width="3.0" stroke-linecap="butt" stroke-opacity="1.0" stroke="rgb(0, 0, 0)" stroke-linejoin="round" d=" M 50.751, 105.862 52.471, 103.705 61.172, 98.778 62.977, 97.755 65.665, 96.233 75.070, 92.834 76.803, 92.207 85.905, 88.918 95.622, 86.558 98.246, 85.921 " />
            <path fill="none" stroke-width="3.0" stroke-linecap="butt" stroke-opacity="1.0" stroke="rgb(0, 0, 0)" stroke-linejoin="round" d=" M 57.805, 84.208 56.873, 85.297 53.011, 90.040 51.650, 91.711 49.310, 101.434 47.781, 107.785 " />
            <path fill="none" stroke-width="3.0" stroke-linecap="butt" stroke-opacity="1.0" stroke="rgb(0, 0, 0)" stroke-linejoin="round" d=" M 112.642, 39.870 112.231, 39.592 109.529, 38.767 105.521, 39.032 101.794, 40.290 99.816, 42.035 99.692, 42.212 " />
            <path fill="none" stroke-width="3.0" stroke-linecap="butt" stroke-opacity="1.0" stroke="rgb(0, 0, 0)" stroke-linejoin="round" d=" M 52.162, 114.275 52.155, 114.279 49.477, 115.701 48.937, 115.988 40.105, 120.677 35.596, 123.072 29.832, 130.420 " />
            <path fill="none" stroke-width="3.0" stroke-linecap="butt" stroke-opacity="1.0" stroke="rgb(0, 0, 0)" stroke-linejoin="round" d=" M 86.996, 90.284 85.648, 90.610 76.236, 93.990 72.194, 95.442 64.142, 98.333 61.813, 99.643 59.809, 100.770 51.092, 105.671 50.751, 105.862 50.223, 106.159 47.781, 107.785 44.558, 109.931 38.931, 117.202 33.409, 124.751 29.832, 130.420 30.843, 134.327 33.604, 138.069 " />
            <path fill="none" stroke-width="3.0" stroke-linecap="butt" stroke-opacity="1.0" stroke="rgb(0, 0, 0)" stroke-linejoin="round" d=" M 30.843, 134.327 36.726, 127.193 42.592, 124.177 51.486, 119.605 52.321, 119.175 " />
            <path fill="none" stroke-width="3.0" stroke-linecap="butt" stroke-opacity="1.0" stroke="rgb(0, 0, 0)" stroke-linejoin="round" d=" M 72.463, 112.234 73.905, 111.752 75.475, 111.228 80.487, 109.554 90.223, 107.273 99.960, 104.992 109.696, 102.711 113.418, 101.839 123.294, 100.274 133.171, 98.709 139.211, 97.752 140.838, 97.495 142.918, 97.165 147.738, 96.401 148.648, 96.342 158.628, 95.697 168.607, 95.051 175.342, 94.616 175.742, 94.590 177.771, 94.459 178.105, 94.437 179.760, 94.553 180.778, 94.625 181.749, 94.693 191.725, 95.392 194.362, 95.577 196.100, 95.699 199.200, 95.916 204.936, 98.474 208.052, 99.864 208.688, 100.148 " />
            <path fill="none" stroke-width="3.0" stroke-linecap="butt" stroke-opacity="1.0" stroke="rgb(0, 0, 0)" stroke-linejoin="round" d=" M 51.794, 121.801 51.073, 124.829 " />
            <path fill="none" stroke-width="3.0" stroke-linecap="butt" stroke-opacity="1.0" stroke="rgb(0, 0, 0)" stroke-linejoin="round" d=" M 146.034, 70.247 146.161, 70.519 148.330, 75.188 " />
            <path fill="none" stroke-width="3.0" stroke-linecap="butt" stroke-opacity="1.0" stroke="rgb(0, 0, 0)" stroke-linejoin="round" d=" M 150.083, 67.097 149.159, 67.659 " />
            <path fill="none" stroke-width="3.0" stroke-linecap="butt" stroke-opacity="1.0" stroke="rgb(0, 0, 0)" stroke-linejoin="round" d=" M 155.058, 140.411 157.159, 139.342 " />
            <path fill="none" stroke-width="3.0" stroke-linecap="butt" stroke-opacity="1.0" stroke="rgb(0, 0, 0)" stroke-linejoin="round" d=" M 192.760, 116.944 196.997, 114.897 " />
            <path fill="none" stroke-width="3.0" stroke-linecap="butt" stroke-opacity="1.0" stroke="rgb(0, 0, 0)" stroke-linejoin="round" d=" M 191.990, 97.814 197.731, 99.933 199.872, 100.723 201.009, 101.143 " />
        </g>
    </g>
</svg>
