<?xml version='1.0' encoding='ascii'?>
<svg xmlns="http://www.w3.org/2000/svg" version="1.1" width="250" height="250">
    <g id="ViewLayer_LineSet" xmlns:inkscape="http://www.inkscape.org/namespaces/inkscape" inkscape:groupmode="lineset" inkscape:label="ViewLayer_LineSet">
        <g xmlns:inkscape="http://www.inkscape.org/namespaces/inkscape" inkscape:groupmode="layer" id="strokes" inkscape:label="strokes">
            <path fill="none" stroke-width="3.0" stroke-linecap="butt" stroke-opacity="1.0" stroke="rgb(0, 0, 0)" stroke-linejoin="round" d=" M 45.457, 134.726 45.371, 135.435 45.008, 139.857 45.130, 145.999 45.278, 149.034 45.812, 152.821 46.427, 156.574 47.024, 159.456 47.830, 162.531 48.800, 165.629 49.882, 168.580 51.015, 171.222 52.741, 174.942 54.418, 178.214 55.974, 180.615 59.436, 185.905 64.163, 191.551 65.643, 193.003 67.442, 194.717 " />
            <path fill="none" stroke-width="3.0" stroke-linecap="butt" stroke-opacity="1.0" stroke="rgb(0, 0, 0)" stroke-linejoin="round" d=" M 150.567, 207.060 155.281, 204.806 163.360, 198.913 163.611, 198.729 166.783, 196.116 173.316, 189.345 " />
            <path fill="none" stroke-width="3.0" stroke-linecap="butt" stroke-opacity="1.0" stroke="rgb(0, 0, 0)" stroke-linejoin="round" d=" M 54.001, 152.124 55.017, 152.667 56.115, 152.737 57.421, 152.119 58.536, 151.004 59.413, 149.367 59.861, 148.174 " />
            <path fill="none" stroke-width="3.0" stroke-linecap="butt" stroke-opacity="1.0" stroke="rgb(0, 0, 0)" stroke-linejoin="round" d=" M 50.820, 144.813 50.867, 145.102 50.909, 145.352 50.926, 145.455 50.980, 145.785 51.178, 146.892 51.189, 146.955 51.217, 147.089 51.737, 148.896 52.573, 150.394 54.001, 152.124 " />
            <path fill="none" stroke-width="3.0" stroke-linecap="butt" stroke-opacity="1.0" stroke="rgb(0, 0, 0)" stroke-linejoin="round" d=" M 50.778, 144.920 50.909, 145.352 " />
            <path fill="none" stroke-width="3.0" stroke-linecap="butt" stroke-opacity="1.0" stroke="rgb(0, 0, 0)" stroke-linejoin="round" d=" M 50.926, 145.455 50.967, 145.836 51.178, 146.892 " />
            <path fill="none" stroke-width="3.0" stroke-linecap="butt" stroke-opacity="1.0" stroke="rgb(0, 0, 0)" stroke-linejoin="round" d=" M 81.145, 103.108 80.697, 106.222 79.835, 109.906 79.881, 109.975 77.932, 115.874 77.504, 117.168 77.219, 118.031 76.855, 118.797 76.565, 119.409 75.325, 122.019 73.449, 126.062 71.575, 129.800 69.752, 133.052 68.012, 135.659 66.835, 136.985 66.384, 137.493 64.890, 138.463 63.560, 138.523 62.432, 137.672 61.554, 135.949 60.982, 133.436 60.772, 130.251 60.974, 126.546 61.398, 123.884 61.620, 122.495 62.714, 118.286 64.083, 114.506 64.205, 114.170 64.325, 113.901 65.629, 110.988 65.943, 110.287 67.866, 106.643 69.902, 103.369 71.663, 100.997 " />
            <path fill="none" stroke-width="3.0" stroke-linecap="butt" stroke-opacity="1.0" stroke="rgb(0, 0, 0)" stroke-linejoin="round" d=" M 52.200, 116.676 50.791, 120.593 49.532, 124.332 48.438, 127.708 47.503, 130.553 46.709, 132.722 46.038, 134.108 45.481, 134.644 45.467, 134.642 45.017, 134.585 44.752, 133.132 44.643, 131.175 44.766, 128.543 45.167, 125.372 45.880, 121.819 46.916, 118.053 48.240, 114.302 49.691, 110.687 49.944, 110.106 50.623, 108.543 50.848, 108.023 51.203, 107.206 51.348, 106.897 52.717, 103.983 54.173, 101.129 55.515, 98.743 55.740, 98.390 " />
            <path fill="none" stroke-width="3.0" stroke-linecap="butt" stroke-opacity="1.0" stroke="rgb(0, 0, 0)" stroke-linejoin="round" d=" M 45.481, 134.644 47.041, 135.236 " />
            <path fill="none" stroke-width="3.0" stroke-linecap="butt" stroke-opacity="1.0" stroke="rgb(0, 0, 0)" stroke-linejoin="round" d=" M 45.017, 134.585 45.457, 134.726 47.041, 135.236 " />
            <path fill="none" stroke-width="3.0" stroke-linecap="butt" stroke-opacity="1.0" stroke="rgb(0, 0, 0)" stroke-linejoin="round" d=" M 58.375, 98.768 58.141, 99.752 57.708, 101.231 57.597, 101.610 57.353, 102.446 56.393, 105.611 56.375, 105.669 56.043, 106.550 55.092, 109.071 55.076, 109.112 " />
            <path fill="none" stroke-width="3.0" stroke-linecap="butt" stroke-opacity="1.0" stroke="rgb(0, 0, 0)" stroke-linejoin="round" d=" M 57.083, 118.692 52.734, 116.897 52.200, 116.676 53.684, 112.831 54.089, 111.748 54.586, 110.423 54.782, 109.899 55.076, 109.112 55.794, 109.419 56.789, 109.843 57.696, 110.231 " />
            <path fill="none" stroke-width="3.0" stroke-linecap="butt" stroke-opacity="1.0" stroke="rgb(0, 0, 0)" stroke-linejoin="round" d=" M 136.537, 240.522 140.005, 240.304 143.685, 239.267 148.560, 236.316 149.073, 235.980 152.205, 232.480 154.080, 228.802 155.168, 223.556 155.117, 218.120 153.401, 211.548 150.567, 207.060 149.866, 205.951 149.359, 205.244 148.068, 203.446 " />
            <path fill="none" stroke-width="3.0" stroke-linecap="butt" stroke-opacity="1.0" stroke="rgb(0, 0, 0)" stroke-linejoin="round" d=" M 85.739, 189.367 79.214, 190.134 73.633, 191.563 71.629, 192.296 67.442, 194.717 66.456, 195.287 62.989, 198.747 60.282, 202.402 58.770, 206.331 58.003, 210.696 59.061, 215.635 59.954, 217.225 63.617, 220.903 72.016, 226.331 72.829, 226.857 76.509, 228.841 81.089, 230.820 87.545, 233.068 92.686, 234.536 100.788, 236.181 110.670, 237.715 113.815, 238.203 123.738, 239.440 125.659, 239.679 129.450, 239.978 136.537, 240.522 134.236, 240.398 125.659, 239.679 " />
            <path fill="none" stroke-width="3.0" stroke-linecap="butt" stroke-opacity="1.0" stroke="rgb(0, 0, 0)" stroke-linejoin="round" d=" M 163.166, 184.055 163.292, 184.130 169.321, 187.752 173.316, 189.345 174.275, 189.727 178.959, 190.960 183.699, 191.440 187.736, 191.083 191.408, 190.192 194.688, 188.728 195.929, 188.046 198.853, 186.056 201.452, 183.633 203.578, 180.661 204.123, 179.638 205.726, 176.425 206.783, 172.935 207.225, 169.161 207.094, 165.093 206.041, 160.441 204.244, 155.927 201.671, 151.230 200.684, 149.966 200.480, 149.705 197.226, 145.538 192.654, 140.641 190.360, 138.416 189.639, 137.716 " />
            <path fill="none" stroke-width="3.0" stroke-linecap="butt" stroke-opacity="1.0" stroke="rgb(0, 0, 0)" stroke-linejoin="round" d=" M 91.243, 68.805 93.750, 65.613 93.904, 64.518 93.695, 57.938 93.481, 57.111 90.319, 53.380 88.285, 50.979 86.039, 50.386 79.047, 50.251 78.553, 50.241 " />
            <path fill="none" stroke-width="3.0" stroke-linecap="butt" stroke-opacity="1.0" stroke="rgb(0, 0, 0)" stroke-linejoin="round" d=" M 39.877, 74.095 41.078, 76.197 43.022, 78.462 45.557, 80.254 47.114, 80.916 47.834, 81.222 50.861, 82.232 50.992, 82.276 51.435, 82.424 55.078, 82.765 56.168, 82.867 57.838, 82.271 58.054, 82.194 59.179, 81.793 60.907, 81.158 62.077, 80.728 63.180, 80.323 63.864, 80.071 65.456, 77.554 68.197, 73.221 68.267, 73.110 68.309, 73.041 69.290, 71.424 69.863, 70.481 69.875, 70.460 69.982, 70.284 70.140, 69.850 70.303, 69.400 70.318, 69.359 70.810, 68.003 70.827, 67.957 70.948, 67.622 71.078, 67.264 71.190, 66.955 71.198, 66.934 72.251, 64.031 72.582, 63.120 73.048, 62.140 73.149, 61.927 73.907, 60.335 74.782, 58.496 75.615, 56.792 75.620, 56.781 75.863, 56.285 76.817, 54.333 77.219, 53.511 77.667, 52.411 77.838, 51.993 78.177, 51.163 78.553, 50.241 78.698, 49.887 79.187, 48.689 81.014, 43.578 80.483, 40.208 78.952, 35.738 75.730, 32.401 74.520, 31.276 73.686, 30.501 70.237, 28.233 67.326, 27.152 64.908, 26.635 62.752, 26.440 " />
            <path fill="none" stroke-width="3.0" stroke-linecap="butt" stroke-opacity="1.0" stroke="rgb(0, 0, 0)" stroke-linejoin="round" d=" M 32.435, 61.433 32.352, 61.635 30.340, 67.148 28.461, 74.198 28.131, 78.826 29.156, 80.060 31.314, 81.113 34.937, 82.236 40.274, 82.661 47.114, 80.916 " />
            <path fill="none" stroke-width="3.0" stroke-linecap="butt" stroke-opacity="1.0" stroke="rgb(0, 0, 0)" stroke-linejoin="round" d=" M 75.025, 74.204 72.318, 74.254 71.449, 73.442 70.960, 72.985 69.290, 71.424 " />
            <path fill="none" stroke-width="3.0" stroke-linecap="butt" stroke-opacity="1.0" stroke="rgb(0, 0, 0)" stroke-linejoin="round" d=" M 50.623, 108.543 47.291, 106.962 45.575, 106.148 38.181, 101.041 36.059, 99.337 35.549, 95.727 43.771, 95.124 44.282, 95.086 45.394, 95.005 47.010, 95.229 56.424, 96.533 56.927, 96.602 58.753, 96.855 60.674, 97.121 62.804, 97.416 63.459, 97.507 65.806, 97.832 73.009, 99.453 79.776, 100.975 81.207, 101.297 86.498, 102.488 94.610, 104.312 104.251, 106.968 113.892, 109.623 123.533, 112.278 127.462, 113.360 136.972, 116.451 137.831, 116.731 138.095, 116.816 138.121, 116.825 138.217, 116.856 " />
            <path fill="none" stroke-width="3.0" stroke-linecap="butt" stroke-opacity="1.0" stroke="rgb(0, 0, 0)" stroke-linejoin="round" d=" M 202.264, 149.994 205.408, 147.682 200.897, 143.720 199.629, 142.606 198.364, 141.987 190.342, 138.061 189.639, 137.716 183.858, 134.887 174.522, 131.304 165.186, 127.720 161.049, 126.132 " />
            <path fill="none" stroke-width="3.0" stroke-linecap="butt" stroke-opacity="1.0" stroke="rgb(0, 0, 0)" stroke-linejoin="round" d=" M 38.498, 97.824 38.181, 101.041 " />
            <path fill="none" stroke-width="3.0" stroke-linecap="butt" stroke-opacity="1.0" stroke="rgb(0, 0, 0)" stroke-linejoin="round" d=" M 38.498, 97.824 44.005, 97.521 44.543, 97.492 48.098, 97.296 55.740, 98.390 56.008, 98.429 56.651, 98.521 58.375, 98.768 59.382, 98.912 61.231, 99.176 63.414, 99.489 67.538, 100.080 71.663, 100.997 78.292, 102.473 81.145, 103.108 86.449, 104.288 95.367, 106.273 105.007, 108.929 114.648, 111.586 120.686, 113.250 127.604, 115.156 129.449, 115.754 138.961, 118.838 139.106, 118.885 139.264, 118.936 " />
            <path fill="none" stroke-width="3.0" stroke-linecap="butt" stroke-opacity="1.0" stroke="rgb(0, 0, 0)" stroke-linejoin="round" d=" M 73.048, 62.140 73.118, 63.981 73.140, 64.539 73.151, 64.831 73.205, 66.246 73.999, 67.129 74.195, 67.347 74.494, 67.680 74.999, 68.242 75.118, 68.375 75.462, 68.758 75.497, 68.796 75.668, 68.986 75.793, 69.126 75.972, 69.324 76.623, 70.049 76.687, 70.120 77.198, 70.688 79.059, 72.759 81.102, 72.716 85.372, 72.627 " />
            <path fill="none" stroke-width="3.0" stroke-linecap="butt" stroke-opacity="1.0" stroke="rgb(0, 0, 0)" stroke-linejoin="round" d=" M 70.827, 67.957 70.836, 67.960 72.952, 68.791 72.999, 68.809 73.601, 69.046 74.207, 69.284 74.544, 69.416 74.890, 69.552 75.224, 69.683 75.242, 69.690 76.306, 70.108 76.687, 70.120 " />
            <path fill="none" stroke-width="3.0" stroke-linecap="butt" stroke-opacity="1.0" stroke="rgb(0, 0, 0)" stroke-linejoin="round" d=" M 47.291, 106.962 47.871, 108.561 49.842, 110.066 49.944, 110.106 " />
            <path fill="none" stroke-width="3.0" stroke-linecap="butt" stroke-opacity="1.0" stroke="rgb(0, 0, 0)" stroke-linejoin="round" d=" M 50.861, 82.232 49.928, 82.539 46.106, 85.769 45.768, 86.333 " />
            <path fill="none" stroke-width="3.0" stroke-linecap="butt" stroke-opacity="1.0" stroke="rgb(0, 0, 0)" stroke-linejoin="round" d=" M 60.907, 81.158 61.802, 81.217 62.594, 81.269 62.870, 81.287 63.388, 81.365 70.619, 82.450 73.048, 82.814 74.381, 83.267 74.954, 83.461 76.592, 84.017 77.758, 84.413 84.647, 86.750 94.018, 90.239 95.874, 90.930 104.964, 95.098 107.023, 96.042 115.970, 100.509 117.383, 101.214 125.662, 105.616 132.707, 109.583 138.565, 113.774 138.815, 114.084 141.184, 117.016 142.156, 119.750 142.097, 119.854 141.232, 121.384 " />
            <path fill="none" stroke-width="3.0" stroke-linecap="butt" stroke-opacity="1.0" stroke="rgb(0, 0, 0)" stroke-linejoin="round" d=" M 78.162, 77.459 71.115, 77.119 68.965, 77.284 " />
            <path fill="none" stroke-width="3.0" stroke-linecap="butt" stroke-opacity="1.0" stroke="rgb(0, 0, 0)" stroke-linejoin="round" d=" M 140.003, 120.403 141.232, 121.384 150.753, 124.442 156.946, 126.432 160.511, 127.577 161.049, 126.132 161.079, 126.051 161.080, 125.993 161.100, 124.363 161.116, 123.080 161.116, 123.052 161.127, 122.152 157.414, 117.089 150.867, 110.125 142.845, 104.125 136.332, 99.138 127.811, 93.903 127.586, 93.765 120.961, 90.707 116.992, 88.874 108.916, 85.871 106.130, 84.835 96.693, 81.529 95.825, 81.225 90.528, 80.075 86.289, 79.155 82.762, 78.380 81.793, 78.168 78.677, 77.483 " />
            <path fill="none" stroke-width="3.0" stroke-linecap="butt" stroke-opacity="1.0" stroke="rgb(0, 0, 0)" stroke-linejoin="round" d=" M 49.560, 78.752 50.020, 77.986 52.641, 73.616 55.685, 65.754 57.185, 60.350 57.374, 59.668 57.828, 57.696 58.417, 55.134 " />
            <path fill="none" stroke-width="3.0" stroke-linecap="butt" stroke-opacity="1.0" stroke="rgb(0, 0, 0)" stroke-linejoin="round" d=" M 43.022, 78.462 46.342, 79.862 49.560, 78.752 50.697, 79.727 51.137, 80.104 54.166, 81.147 54.723, 81.339 59.179, 81.793 " />
            <path fill="none" stroke-width="3.0" stroke-linecap="butt" stroke-opacity="1.0" stroke="rgb(0, 0, 0)" stroke-linejoin="round" d=" M 39.877, 74.095 37.328, 76.251 34.062, 78.504 30.236, 79.845 28.131, 78.826 " />
            <path fill="none" stroke-width="3.0" stroke-linecap="butt" stroke-opacity="1.0" stroke="rgb(0, 0, 0)" stroke-linejoin="round" d=" M 34.357, 54.913 33.880, 56.530 32.435, 61.433 32.342, 61.748 29.709, 71.396 29.536, 72.032 " />
            <path fill="none" stroke-width="3.0" stroke-linecap="butt" stroke-opacity="1.0" stroke="rgb(0, 0, 0)" stroke-linejoin="round" d=" M 48.796, 26.857 49.394, 25.770 52.416, 20.707 56.687, 14.887 59.995, 11.964 61.891, 13.554 62.920, 18.218 62.958, 22.795 62.752, 26.440 " />
            <path fill="none" stroke-width="3.0" stroke-linecap="butt" stroke-opacity="1.0" stroke="rgb(0, 0, 0)" stroke-linejoin="round" d=" M 64.908, 26.635 67.646, 27.367 70.460, 29.969 70.616, 30.672 71.318, 33.831 69.070, 39.712 65.701, 45.651 61.609, 51.253 58.417, 55.134 59.521, 55.671 60.219, 56.010 64.226, 57.930 " />
            <path fill="none" stroke-width="3.0" stroke-linecap="butt" stroke-opacity="1.0" stroke="rgb(0, 0, 0)" stroke-linejoin="round" d=" M 46.523, 29.969 45.011, 30.673 41.954, 32.455 37.898, 36.031 34.998, 40.047 33.638, 45.042 33.172, 49.869 33.500, 54.345 33.880, 56.530 " />
            <path fill="none" stroke-width="3.0" stroke-linecap="butt" stroke-opacity="1.0" stroke="rgb(0, 0, 0)" stroke-linejoin="round" d=" M 74.520, 31.276 73.778, 28.483 70.353, 20.215 66.811, 15.783 64.855, 14.163 61.672, 11.914 59.995, 11.964 " />
            <path fill="none" stroke-width="3.0" stroke-linecap="butt" stroke-opacity="1.0" stroke="rgb(0, 0, 0)" stroke-linejoin="round" d=" M 55.366, 17.776 52.182, 22.220 48.796, 26.857 46.523, 29.969 45.872, 30.862 45.139, 31.717 44.866, 32.037 41.990, 35.396 " />
            <path fill="none" stroke-width="3.0" stroke-linecap="butt" stroke-opacity="1.0" stroke="rgb(0, 0, 0)" stroke-linejoin="round" d=" M 34.533, 47.409 34.358, 54.907 " />
            <path fill="none" stroke-width="3.0" stroke-linecap="butt" stroke-opacity="1.0" stroke="rgb(0, 0, 0)" stroke-linejoin="round" d=" M 35.428, 50.086 34.533, 54.118 34.358, 54.907 34.357, 54.913 33.932, 56.827 33.698, 57.881 " />
            <path fill="none" stroke-width="3.0" stroke-linecap="butt" stroke-opacity="1.0" stroke="rgb(0, 0, 0)" stroke-linejoin="round" d=" M 194.791, 121.660 194.928, 121.436 193.989, 111.480 193.080, 101.849 191.835, 100.394 191.130, 96.438 187.888, 86.977 186.814, 83.842 181.822, 75.177 180.575, 73.013 177.075, 68.252 170.573, 60.654 169.304, 59.171 161.205, 53.306 160.417, 52.735 156.703, 50.071 152.031, 47.740 151.494, 47.472 145.335, 45.230 138.913, 43.603 136.899, 43.321 132.950, 42.769 128.093, 42.804 118.104, 43.269 117.563, 43.295 112.606, 44.672 103.024, 47.532 100.093, 48.406 91.181, 52.941 90.319, 53.380 " />
            <path fill="none" stroke-width="3.0" stroke-linecap="butt" stroke-opacity="1.0" stroke="rgb(0, 0, 0)" stroke-linejoin="round" d=" M 73.386, 34.245 74.793, 35.133 75.668, 35.686 76.642, 36.301 79.593, 39.306 " />
            <path fill="none" stroke-width="3.0" stroke-linecap="butt" stroke-opacity="1.0" stroke="rgb(0, 0, 0)" stroke-linejoin="round" d=" M 194.928, 121.436 189.808, 116.023 184.467, 112.995 177.074, 108.803 175.112, 107.976 165.897, 104.093 157.517, 100.562 148.041, 97.369 138.565, 94.175 133.498, 92.468 123.840, 89.876 114.181, 87.284 108.916, 85.871 " />
            <path fill="none" stroke-width="3.0" stroke-linecap="butt" stroke-opacity="1.0" stroke="rgb(0, 0, 0)" stroke-linejoin="round" d=" M 92.572, 68.881 91.243, 68.805 " />
            <path fill="none" stroke-width="3.0" stroke-linecap="butt" stroke-opacity="1.0" stroke="rgb(0, 0, 0)" stroke-linejoin="round" d=" M 92.572, 68.881 102.460, 70.378 104.224, 70.646 114.111, 72.143 114.376, 72.183 " />
            <path fill="none" stroke-width="3.0" stroke-linecap="butt" stroke-opacity="1.0" stroke="rgb(0, 0, 0)" stroke-linejoin="round" d=" M 120.961, 90.707 130.618, 93.303 132.910, 93.919 142.389, 97.105 151.867, 100.291 155.562, 101.533 164.787, 105.394 174.089, 109.288 " />
            <path fill="none" stroke-width="3.0" stroke-linecap="butt" stroke-opacity="1.0" stroke="rgb(0, 0, 0)" stroke-linejoin="round" d=" M 152.031, 47.740 151.950, 47.558 150.563, 44.717 147.670, 42.997 143.682, 41.769 140.184, 41.523 138.542, 42.341 136.899, 43.321 " />
            <path fill="none" stroke-width="3.0" stroke-linecap="butt" stroke-opacity="1.0" stroke="rgb(0, 0, 0)" stroke-linejoin="round" d=" M 200.684, 149.966 202.264, 149.994 204.663, 149.773 208.093, 147.361 209.373, 143.549 206.799, 137.544 202.302, 129.338 196.863, 123.593 194.791, 121.660 191.904, 118.965 185.362, 115.296 178.905, 111.676 178.488, 111.442 174.089, 109.288 " />
            <path fill="none" stroke-width="3.0" stroke-linecap="butt" stroke-opacity="1.0" stroke="rgb(0, 0, 0)" stroke-linejoin="round" d=" M 161.100, 124.363 166.045, 126.275 175.372, 129.881 184.241, 133.310 186.026, 134.000 190.241, 136.092 199.199, 140.537 199.720, 140.796 202.281, 142.067 208.093, 147.361 " />
            <path fill="none" stroke-width="3.0" stroke-linecap="butt" stroke-opacity="1.0" stroke="rgb(0, 0, 0)" stroke-linejoin="round" d=" M 203.691, 138.023 197.275, 134.725 189.720, 130.842 187.638, 129.772 178.336, 126.102 175.983, 125.173 175.430, 124.955 166.128, 121.285 161.873, 119.607 " />
            <path fill="none" stroke-width="3.0" stroke-linecap="butt" stroke-opacity="1.0" stroke="rgb(0, 0, 0)" stroke-linejoin="round" d=" M 50.950, 83.566 45.768, 86.333 42.458, 88.100 37.429, 92.115 35.549, 95.727 " />
            <path fill="none" stroke-width="3.0" stroke-linecap="butt" stroke-opacity="1.0" stroke="rgb(0, 0, 0)" stroke-linejoin="round" d=" M 45.139, 31.717 42.361, 33.679 " />
            <path fill="none" stroke-width="3.0" stroke-linecap="butt" stroke-opacity="1.0" stroke="rgb(0, 0, 0)" stroke-linejoin="round" d=" M 50.992, 82.276 49.928, 82.539 " />
            <path fill="none" stroke-width="3.0" stroke-linecap="butt" stroke-opacity="1.0" stroke="rgb(0, 0, 0)" stroke-linejoin="round" d=" M 70.140, 69.850 70.749, 70.393 72.767, 72.192 73.317, 72.682 75.025, 74.204 77.198, 70.688 " />
            <path fill="none" stroke-width="3.0" stroke-linecap="butt" stroke-opacity="1.0" stroke="rgb(0, 0, 0)" stroke-linejoin="round" d=" M 71.190, 66.955 71.448, 67.064 71.840, 67.229 73.642, 67.989 74.739, 68.452 75.462, 68.758 " />
            <path fill="none" stroke-width="3.0" stroke-linecap="butt" stroke-opacity="1.0" stroke="rgb(0, 0, 0)" stroke-linejoin="round" d=" M 78.162, 77.459 81.102, 72.716 " />
            <path fill="none" stroke-width="3.0" stroke-linecap="butt" stroke-opacity="1.0" stroke="rgb(0, 0, 0)" stroke-linejoin="round" d=" M 79.047, 50.251 78.698, 49.887 " />
            <path fill="none" stroke-width="3.0" stroke-linecap="butt" stroke-opacity="1.0" stroke="rgb(0, 0, 0)" stroke-linejoin="round" d=" M 139.106, 118.885 140.003, 120.403 138.961, 118.838 " />
            <path fill="none" stroke-width="3.0" stroke-linecap="butt" stroke-opacity="1.0" stroke="rgb(0, 0, 0)" stroke-linejoin="round" d=" M 190.360, 138.416 190.342, 138.061 " />
            <path fill="none" stroke-width="3.0" stroke-linecap="butt" stroke-opacity="1.0" stroke="rgb(0, 0, 0)" stroke-linejoin="round" d=" M 198.364, 141.987 201.194, 144.458 " />
        </g>
    </g>
</svg>
