<?xml version='1.0' encoding='ascii'?>
<svg xmlns="http://www.w3.org/2000/svg" version="1.1" width="250" height="250">
    <g id="ViewLayer_LineSet" xmlns:inkscape="http://www.inkscape.org/namespaces/inkscape" inkscape:groupmode="lineset" inkscape:label="ViewLayer_LineSet">
        <g xmlns:inkscape="http://www.inkscape.org/namespaces/inkscape" inkscape:groupmode="layer" id="strokes" inkscape:label="strokes">
            <path fill="none" stroke-width="3.0" stroke-linecap="butt" stroke-opacity="1.0" stroke="rgb(0, 0, 0)" stroke-linejoin="round" d=" M 108.903, 216.251 110.371, 216.415 113.194, 216.731 117.702, 216.928 122.223, 216.833 126.556, 216.449 130.510, 215.798 132.155, 215.441 136.835, 214.425 141.876, 213.110 145.845, 211.523 154.637, 207.376 158.090, 205.122 166.182, 199.246 166.771, 198.818 173.726, 191.633 174.388, 190.949 174.494, 190.795 " />
            <path fill="none" stroke-width="3.0" stroke-linecap="butt" stroke-opacity="1.0" stroke="rgb(0, 0, 0)" stroke-linejoin="round" d=" M 59.274, 100.583 57.988, 102.200 53.755, 109.303 49.947, 117.966 49.398, 119.746 48.463, 122.775 48.357, 123.119 47.281, 126.605 46.029, 132.768 45.485, 139.155 45.259, 143.631 45.488, 149.297 45.967, 153.782 46.828, 158.438 47.674, 162.381 48.960, 166.679 50.623, 171.142 52.591, 175.577 54.779, 179.791 57.094, 183.601 59.434, 186.830 60.256, 187.917 " />
            <path fill="none" stroke-width="3.0" stroke-linecap="butt" stroke-opacity="1.0" stroke="rgb(0, 0, 0)" stroke-linejoin="round" d=" M 190.926, 132.812 188.835, 123.033 188.797, 122.856 188.689, 122.576 " />
            <path fill="none" stroke-width="3.0" stroke-linecap="butt" stroke-opacity="1.0" stroke="rgb(0, 0, 0)" stroke-linejoin="round" d=" M 77.110, 152.227 77.664, 153.628 79.027, 155.699 80.920, 157.361 83.115, 158.595 85.155, 159.043 85.734, 159.025 87.249, 158.976 89.622, 158.155 91.670, 156.832 93.219, 154.990 93.934, 153.676 " />
            <path fill="none" stroke-width="3.0" stroke-linecap="butt" stroke-opacity="1.0" stroke="rgb(0, 0, 0)" stroke-linejoin="round" d=" M 117.440, 103.178 117.503, 103.389 118.006, 105.083 118.458, 108.476 118.499, 112.304 118.515, 112.373 117.462, 120.302 117.447, 120.410 117.396, 120.796 116.170, 125.012 114.666, 129.304 112.912, 133.302 110.972, 136.813 108.913, 139.664 108.902, 139.675 108.510, 140.056 106.805, 141.714 104.721, 142.859 102.732, 143.041 101.465, 142.488 100.913, 142.247 99.336, 140.511 98.175, 138.126 98.071, 137.912 97.992, 137.617 97.178, 134.571 96.706, 130.648 96.683, 126.332 97.119, 121.829 97.975, 117.414 98.245, 116.479 98.287, 116.335 99.177, 113.248 100.698, 109.343 102.476, 105.839 104.443, 102.862 105.330, 101.861 " />
            <path fill="none" stroke-width="3.0" stroke-linecap="butt" stroke-opacity="1.0" stroke="rgb(0, 0, 0)" stroke-linejoin="round" d=" M 77.310, 120.712 76.333, 125.007 75.250, 129.117 74.374, 131.892 74.241, 132.315 74.075, 132.841 72.814, 135.991 71.475, 138.410 70.072, 139.978 68.929, 140.489 68.634, 140.620 67.223, 140.610 65.848, 139.069 64.641, 136.961 63.666, 134.097 63.004, 130.622 62.885, 128.981 62.850, 128.498 62.721, 126.710 62.859, 122.549 63.070, 120.979 63.417, 118.396 64.283, 114.394 65.401, 110.548 66.725, 106.995 67.420, 105.516 67.656, 105.016 68.202, 103.856 69.774, 101.239 70.552, 100.266 " />
            <path fill="none" stroke-width="3.0" stroke-linecap="butt" stroke-opacity="1.0" stroke="rgb(0, 0, 0)" stroke-linejoin="round" d=" M 67.223, 140.610 70.427, 141.978 " />
            <path fill="none" stroke-width="3.0" stroke-linecap="butt" stroke-opacity="1.0" stroke="rgb(0, 0, 0)" stroke-linejoin="round" d=" M 77.898, 100.060 78.526, 102.288 78.886, 105.207 78.995, 108.701 78.860, 110.339 78.837, 110.621 78.687, 112.448 " />
            <path fill="none" stroke-width="3.0" stroke-linecap="butt" stroke-opacity="1.0" stroke="rgb(0, 0, 0)" stroke-linejoin="round" d=" M 80.416, 122.644 77.310, 120.712 77.595, 119.258 78.134, 116.504 78.687, 112.448 81.753, 114.473 " />
            <path fill="none" stroke-width="3.0" stroke-linecap="butt" stroke-opacity="1.0" stroke="rgb(0, 0, 0)" stroke-linejoin="round" d=" M 164.266, 232.675 167.398, 231.592 172.638, 228.631 177.751, 224.537 181.983, 218.670 184.812, 212.975 185.357, 211.614 188.704, 202.191 189.470, 200.036 191.058, 192.711 " />
            <path fill="none" stroke-width="3.0" stroke-linecap="butt" stroke-opacity="1.0" stroke="rgb(0, 0, 0)" stroke-linejoin="round" d=" M 132.773, 217.130 134.637, 222.790 135.873, 224.613 139.707, 229.174 145.303, 232.848 150.606, 234.540 155.427, 234.847 160.680, 234.048 164.266, 232.675 166.966, 231.641 " />
            <path fill="none" stroke-width="3.0" stroke-linecap="butt" stroke-opacity="1.0" stroke="rgb(0, 0, 0)" stroke-linejoin="round" d=" M 60.256, 187.917 56.503, 188.840 50.263, 191.124 44.948, 193.860 39.539, 197.149 36.124, 200.147 33.009, 204.954 31.963, 206.600 29.874, 210.813 28.695, 214.924 28.410, 218.838 28.964, 222.946 29.960, 225.245 32.554, 228.974 35.274, 230.855 40.046, 232.805 44.719, 233.953 49.243, 234.608 54.292, 235.335 61.197, 235.599 65.850, 235.196 71.661, 234.734 78.463, 233.397 85.951, 231.653 92.599, 229.836 96.833, 228.753 100.204, 227.629 101.615, 226.979 103.621, 225.594 104.310, 224.977 107.785, 221.944 109.829, 218.604 110.371, 216.415 " />
            <path fill="none" stroke-width="3.0" stroke-linecap="butt" stroke-opacity="1.0" stroke="rgb(0, 0, 0)" stroke-linejoin="round" d=" M 191.074, 132.900 190.926, 132.812 186.024, 129.909 182.013, 128.190 " />
            <path fill="none" stroke-width="3.0" stroke-linecap="butt" stroke-opacity="1.0" stroke="rgb(0, 0, 0)" stroke-linejoin="round" d=" M 165.173, 184.240 167.242, 186.069 170.777, 188.760 174.265, 190.714 174.494, 190.795 177.933, 192.011 181.444, 193.099 184.465, 193.324 188.416, 193.210 190.778, 192.788 191.058, 192.711 193.919, 191.929 198.175, 189.734 201.817, 186.861 203.966, 184.342 205.468, 182.261 206.913, 179.018 208.006, 176.094 208.508, 172.732 209.011, 168.808 208.765, 164.781 207.882, 160.374 206.990, 157.754 204.984, 151.968 202.338, 146.889 199.592, 142.378 199.458, 142.191 199.407, 142.121 199.362, 142.058 196.659, 138.308 193.252, 134.805 191.074, 132.900 194.507, 136.140 196.659, 138.308 " />
            <path fill="none" stroke-width="3.0" stroke-linecap="butt" stroke-opacity="1.0" stroke="rgb(0, 0, 0)" stroke-linejoin="round" d=" M 116.249, 72.738 119.496, 70.259 119.539, 70.173 119.660, 69.927 119.696, 69.853 121.347, 66.501 122.333, 63.904 122.313, 60.226 121.297, 57.568 119.393, 53.854 117.702, 52.615 " />
            <path fill="none" stroke-width="3.0" stroke-linecap="butt" stroke-opacity="1.0" stroke="rgb(0, 0, 0)" stroke-linejoin="round" d=" M 56.102, 56.142 56.010, 56.402 54.488, 60.705 52.850, 66.795 52.281, 74.650 52.571, 75.909 54.222, 81.202 56.710, 82.432 59.817, 83.159 61.290, 83.504 61.853, 83.635 65.735, 84.065 67.358, 83.781 67.395, 83.775 71.048, 83.137 71.743, 83.016 74.335, 82.355 77.305, 81.598 82.711, 79.448 82.782, 79.420 " />
            <path fill="none" stroke-width="3.0" stroke-linecap="butt" stroke-opacity="1.0" stroke="rgb(0, 0, 0)" stroke-linejoin="round" d=" M 33.820, 112.440 31.623, 107.975 32.803, 106.844 37.502, 102.342 41.734, 101.286 49.510, 99.345 53.190, 98.427 57.213, 98.295 59.133, 98.232 61.198, 98.164 71.193, 97.837 73.292, 97.768 76.092, 97.677 76.116, 97.676 79.964, 97.550 89.933, 98.337 99.902, 99.125 107.536, 99.728 113.669, 100.212 116.299, 100.670 116.373, 100.683 126.225, 102.399 136.077, 104.115 145.928, 105.830 147.648, 106.130 157.314, 108.694 166.980, 111.257 176.646, 113.821 177.052, 113.929 178.183, 114.392 179.008, 114.730 183.038, 116.382 185.824, 117.524 " />
            <path fill="none" stroke-width="3.0" stroke-linecap="butt" stroke-opacity="1.0" stroke="rgb(0, 0, 0)" stroke-linejoin="round" d=" M 199.362, 142.058 206.629, 137.872 206.257, 131.600 200.115, 126.961 197.883, 125.275 " />
            <path fill="none" stroke-width="3.0" stroke-linecap="butt" stroke-opacity="1.0" stroke="rgb(0, 0, 0)" stroke-linejoin="round" d=" M 39.019, 108.608 40.880, 107.001 44.987, 103.455 54.762, 101.346 58.152, 100.615 " />
            <path fill="none" stroke-width="3.0" stroke-linecap="butt" stroke-opacity="1.0" stroke="rgb(0, 0, 0)" stroke-linejoin="round" d=" M 38.884, 117.301 47.148, 122.630 48.357, 123.119 " />
            <path fill="none" stroke-width="3.0" stroke-linecap="butt" stroke-opacity="1.0" stroke="rgb(0, 0, 0)" stroke-linejoin="round" d=" M 55.986, 100.675 46.214, 102.797 45.364, 102.982 41.091, 103.910 39.829, 104.184 33.822, 109.607 34.557, 111.144 " />
            <path fill="none" stroke-width="3.0" stroke-linecap="butt" stroke-opacity="1.0" stroke="rgb(0, 0, 0)" stroke-linejoin="round" d=" M 55.986, 100.675 58.152, 100.615 59.274, 100.583 59.904, 100.565 61.738, 100.514 70.552, 100.266 75.932, 100.115 77.898, 100.060 79.347, 100.019 81.510, 99.959 91.478, 100.755 101.446, 101.550 105.330, 101.861 110.081, 102.240 113.423, 102.507 117.440, 103.178 118.040, 103.278 127.867, 104.920 137.730, 106.568 146.719, 108.070 156.392, 110.606 166.065, 113.142 175.661, 115.657 179.300, 117.129 184.086, 119.065 " />
            <path fill="none" stroke-width="3.0" stroke-linecap="butt" stroke-opacity="1.0" stroke="rgb(0, 0, 0)" stroke-linejoin="round" d=" M 41.029, 94.650 36.227, 98.536 33.060, 101.727 31.248, 104.558 30.078, 107.579 30.070, 110.039 30.534, 112.211 34.860, 116.299 37.539, 117.771 38.884, 117.301 38.923, 117.287 40.799, 116.631 42.096, 115.747 43.655, 114.684 45.240, 109.613 " />
            <path fill="none" stroke-width="3.0" stroke-linecap="butt" stroke-opacity="1.0" stroke="rgb(0, 0, 0)" stroke-linejoin="round" d=" M 33.264, 113.801 30.534, 112.211 " />
            <path fill="none" stroke-width="3.0" stroke-linecap="butt" stroke-opacity="1.0" stroke="rgb(0, 0, 0)" stroke-linejoin="round" d=" M 43.655, 114.684 39.927, 112.377 " />
            <path fill="none" stroke-width="3.0" stroke-linecap="butt" stroke-opacity="1.0" stroke="rgb(0, 0, 0)" stroke-linejoin="round" d=" M 40.830, 109.985 39.927, 112.377 36.507, 113.340 " />
            <path fill="none" stroke-width="3.0" stroke-linecap="butt" stroke-opacity="1.0" stroke="rgb(0, 0, 0)" stroke-linejoin="round" d=" M 57.461, 85.064 50.511, 88.346 42.184, 93.882 41.029, 94.650 47.285, 90.623 48.135, 90.159 56.911, 85.364 57.461, 85.064 58.985, 84.443 61.290, 83.504 " />
            <path fill="none" stroke-width="3.0" stroke-linecap="butt" stroke-opacity="1.0" stroke="rgb(0, 0, 0)" stroke-linejoin="round" d=" M 47.285, 90.623 49.378, 89.779 49.696, 89.651 53.510, 88.114 55.751, 87.210 57.534, 86.684 67.124, 83.851 67.358, 83.781 " />
            <path fill="none" stroke-width="3.0" stroke-linecap="butt" stroke-opacity="1.0" stroke="rgb(0, 0, 0)" stroke-linejoin="round" d=" M 67.395, 83.775 77.347, 82.798 78.023, 82.732 80.458, 82.492 81.779, 82.461 87.688, 82.321 88.465, 82.357 89.290, 82.394 " />
            <path fill="none" stroke-width="3.0" stroke-linecap="butt" stroke-opacity="1.0" stroke="rgb(0, 0, 0)" stroke-linejoin="round" d=" M 179.300, 117.129 179.959, 118.741 181.958, 119.694 182.975, 120.179 183.162, 120.258 188.689, 122.576 196.816, 125.985 196.997, 125.864 197.883, 125.275 198.722, 124.717 199.017, 124.520 199.272, 123.416 199.852, 120.896 196.950, 116.345 192.330, 111.875 190.458, 110.064 185.443, 106.454 182.904, 104.627 178.255, 101.178 178.055, 101.030 176.691, 100.018 171.366, 96.879 168.160, 94.989 160.738, 91.888 159.374, 91.318 156.986, 90.320 147.441, 87.338 144.283, 86.351 134.670, 83.596 131.498, 82.687 121.641, 81.001 118.647, 80.489 109.237, 78.945 107.463, 78.654 " />
            <path fill="none" stroke-width="3.0" stroke-linecap="butt" stroke-opacity="1.0" stroke="rgb(0, 0, 0)" stroke-linejoin="round" d=" M 103.016, 83.482 107.690, 83.971 111.427, 84.362 111.755, 84.443 121.465, 86.831 128.066, 88.454 137.669, 91.242 141.254, 92.283 142.458, 92.633 151.786, 96.237 155.289, 97.590 164.449, 101.601 166.432, 102.469 174.796, 106.528 181.245, 110.126 184.934, 112.884 186.315, 113.917 187.312, 115.488 187.603, 115.947 188.201, 116.890 188.367, 118.045 188.567, 119.439 187.688, 119.994 187.179, 120.315 186.034, 121.039 " />
            <path fill="none" stroke-width="3.0" stroke-linecap="butt" stroke-opacity="1.0" stroke="rgb(0, 0, 0)" stroke-linejoin="round" d=" M 99.103, 80.256 99.425, 79.795 100.425, 78.364 102.897, 74.827 103.777, 71.805 104.021, 70.969 104.378, 69.743 104.609, 68.950 105.042, 67.462 105.236, 66.796 105.314, 66.528 105.850, 60.102 105.835, 57.707 105.829, 56.793 105.820, 55.413 105.820, 55.312 " />
            <path fill="none" stroke-width="3.0" stroke-linecap="butt" stroke-opacity="1.0" stroke="rgb(0, 0, 0)" stroke-linejoin="round" d=" M 76.872, 74.925 80.419, 77.268 82.851, 78.460 82.995, 78.530 83.967, 79.007 85.569, 79.792 93.083, 81.384 94.915, 81.041 99.103, 80.256 100.307, 81.693 101.832, 82.867 101.970, 82.973 103.422, 83.402 " />
            <path fill="none" stroke-width="3.0" stroke-linecap="butt" stroke-opacity="1.0" stroke="rgb(0, 0, 0)" stroke-linejoin="round" d=" M 54.222, 81.202 53.900, 79.841 " />
            <path fill="none" stroke-width="3.0" stroke-linecap="butt" stroke-opacity="1.0" stroke="rgb(0, 0, 0)" stroke-linejoin="round" d=" M 79.893, 77.732 77.628, 76.226 76.872, 74.925 72.529, 77.219 66.655, 79.625 61.489, 80.577 59.033, 81.030 53.900, 79.841 52.281, 74.650 " />
            <path fill="none" stroke-width="3.0" stroke-linecap="butt" stroke-opacity="1.0" stroke="rgb(0, 0, 0)" stroke-linejoin="round" d=" M 110.657, 62.592 110.907, 62.241 111.006, 62.102 111.222, 61.799 114.165, 57.670 114.512, 57.174 117.702, 52.615 118.839, 50.989 122.506, 45.341 122.930, 43.785 124.048, 39.679 124.099, 36.545 122.915, 34.316 119.438, 30.033 114.166, 27.568 111.233, 26.454 105.498, 25.320 103.089, 25.051 101.116, 24.831 " />
            <path fill="none" stroke-width="3.0" stroke-linecap="butt" stroke-opacity="1.0" stroke="rgb(0, 0, 0)" stroke-linejoin="round" d=" M 56.010, 56.402 53.326, 52.573 50.335, 47.486 48.913, 42.058 49.384, 36.535 53.735, 32.322 60.770, 28.790 66.459, 27.183 70.771, 26.301 73.361, 22.301 77.249, 17.110 83.325, 11.325 88.731, 8.639 93.342, 10.687 97.609, 15.930 99.828, 20.908 101.116, 24.831 " />
            <path fill="none" stroke-width="3.0" stroke-linecap="butt" stroke-opacity="1.0" stroke="rgb(0, 0, 0)" stroke-linejoin="round" d=" M 108.951, 58.364 107.810, 57.041 107.157, 56.284 105.853, 55.336 105.820, 55.312 105.887, 55.253 106.845, 54.424 110.345, 51.396 111.128, 50.586 115.795, 45.764 116.821, 44.162 119.630, 39.774 121.306, 33.776 117.903, 29.576 111.233, 26.454 " />
            <path fill="none" stroke-width="3.0" stroke-linecap="butt" stroke-opacity="1.0" stroke="rgb(0, 0, 0)" stroke-linejoin="round" d=" M 103.089, 25.051 102.155, 22.655 99.674, 17.811 98.250, 15.542 94.371, 10.785 89.670, 8.699 88.731, 8.639 " />
            <path fill="none" stroke-width="3.0" stroke-linecap="butt" stroke-opacity="1.0" stroke="rgb(0, 0, 0)" stroke-linejoin="round" d=" M 53.326, 52.573 56.102, 56.142 " />
            <path fill="none" stroke-width="3.0" stroke-linecap="butt" stroke-opacity="1.0" stroke="rgb(0, 0, 0)" stroke-linejoin="round" d=" M 191.352, 106.941 188.458, 97.369 186.306, 90.251 185.302, 89.177 184.094, 84.827 179.257, 76.075 177.989, 73.782 171.471, 66.198 170.350, 64.894 164.672, 59.451 156.734, 53.369 156.365, 53.086 149.148, 49.266 142.890, 47.053 138.180, 45.527 137.073, 45.168 130.629, 44.019 126.493, 43.837 124.277, 43.739 122.930, 43.785 " />
            <path fill="none" stroke-width="3.0" stroke-linecap="butt" stroke-opacity="1.0" stroke="rgb(0, 0, 0)" stroke-linejoin="round" d=" M 79.893, 77.732 81.489, 78.665 82.729, 79.389 82.782, 79.420 83.054, 79.579 84.516, 80.434 84.765, 80.579 87.359, 81.620 89.101, 82.319 89.290, 82.394 89.586, 82.513 90.783, 82.994 93.070, 83.483 97.835, 84.502 101.665, 83.748 103.016, 83.482 103.422, 83.402 103.702, 83.001 104.453, 81.927 106.759, 78.625 107.361, 77.763 107.421, 77.586 108.604, 74.060 108.715, 73.730 108.803, 73.467 108.845, 73.248 109.280, 70.961 109.501, 69.805 109.606, 69.250 110.221, 66.021 110.657, 62.592 110.751, 61.849 110.771, 61.697 110.850, 61.069 110.870, 60.913 " />
            <path fill="none" stroke-width="3.0" stroke-linecap="butt" stroke-opacity="1.0" stroke="rgb(0, 0, 0)" stroke-linejoin="round" d=" M 186.854, 104.044 183.020, 100.871 174.977, 97.271 166.752, 93.590 160.738, 91.888 " />
            <path fill="none" stroke-width="3.0" stroke-linecap="butt" stroke-opacity="1.0" stroke="rgb(0, 0, 0)" stroke-linejoin="round" d=" M 121.243, 69.946 119.696, 69.853 " />
            <path fill="none" stroke-width="3.0" stroke-linecap="butt" stroke-opacity="1.0" stroke="rgb(0, 0, 0)" stroke-linejoin="round" d=" M 121.243, 69.946 127.440, 70.916 134.331, 71.995 144.210, 73.542 144.998, 73.666 " />
            <path fill="none" stroke-width="3.0" stroke-linecap="butt" stroke-opacity="1.0" stroke="rgb(0, 0, 0)" stroke-linejoin="round" d=" M 138.180, 45.527 137.537, 44.667 134.201, 43.286 130.146, 42.834 126.981, 43.490 126.493, 43.837 " />
            <path fill="none" stroke-width="3.0" stroke-linecap="butt" stroke-opacity="1.0" stroke="rgb(0, 0, 0)" stroke-linejoin="round" d=" M 199.458, 142.191 200.727, 141.874 208.877, 137.220 209.743, 133.513 209.581, 126.752 205.755, 121.246 199.982, 114.129 192.298, 107.729 191.352, 106.941 190.434, 106.176 186.854, 104.044 185.007, 102.944 176.539, 99.179 171.366, 96.879 " />
            <path fill="none" stroke-width="3.0" stroke-linecap="butt" stroke-opacity="1.0" stroke="rgb(0, 0, 0)" stroke-linejoin="round" d=" M 199.272, 123.416 207.185, 129.530 208.652, 130.664 208.877, 137.220 " />
            <path fill="none" stroke-width="3.0" stroke-linecap="butt" stroke-opacity="1.0" stroke="rgb(0, 0, 0)" stroke-linejoin="round" d=" M 44.203, 93.812 43.581, 94.284 38.120, 98.364 32.059, 104.315 31.623, 107.975 " />
            <path fill="none" stroke-width="3.0" stroke-linecap="butt" stroke-opacity="1.0" stroke="rgb(0, 0, 0)" stroke-linejoin="round" d=" M 209.581, 126.752 201.782, 120.493 199.315, 118.513 " />
            <path fill="none" stroke-width="3.0" stroke-linecap="butt" stroke-opacity="1.0" stroke="rgb(0, 0, 0)" stroke-linejoin="round" d=" M 59.817, 83.159 58.985, 84.443 " />
            <path fill="none" stroke-width="3.0" stroke-linecap="butt" stroke-opacity="1.0" stroke="rgb(0, 0, 0)" stroke-linejoin="round" d=" M 107.245, 78.645 107.571, 77.545 108.604, 74.060 " />
            <path fill="none" stroke-width="3.0" stroke-linecap="butt" stroke-opacity="1.0" stroke="rgb(0, 0, 0)" stroke-linejoin="round" d=" M 108.715, 73.730 110.868, 73.643 " />
            <path fill="none" stroke-width="3.0" stroke-linecap="butt" stroke-opacity="1.0" stroke="rgb(0, 0, 0)" stroke-linejoin="round" d=" M 132.155, 215.441 132.773, 217.130 134.085, 220.718 " />
            <path fill="none" stroke-width="3.0" stroke-linecap="butt" stroke-opacity="1.0" stroke="rgb(0, 0, 0)" stroke-linejoin="round" d=" M 196.997, 125.864 201.545, 129.265 " />
        </g>
    </g>
</svg>
