<?xml version='1.0' encoding='ascii'?>
<svg xmlns="http://www.w3.org/2000/svg" version="1.1" width="250" height="250">
    <g id="ViewLayer_LineSet" xmlns:inkscape="http://www.inkscape.org/namespaces/inkscape" inkscape:groupmode="lineset" inkscape:label="ViewLayer_LineSet">
        <g xmlns:inkscape="http://www.inkscape.org/namespaces/inkscape" inkscape:groupmode="layer" id="strokes" inkscape:label="strokes">
            <path fill="none" stroke-width="3.0" stroke-linecap="butt" stroke-opacity="1.0" stroke="rgb(0, 0, 0)" stroke-linejoin="round" d=" M 108.901, 216.514 109.389, 216.568 113.192, 216.995 117.699, 217.192 122.220, 217.096 126.553, 216.712 130.506, 216.059 132.833, 215.557 136.831, 214.693 141.871, 213.376 145.840, 211.785 154.632, 207.643 158.085, 205.384 162.183, 202.413 166.764, 199.083 167.476, 198.348 174.164, 191.441 " />
            <path fill="none" stroke-width="3.0" stroke-linecap="butt" stroke-opacity="1.0" stroke="rgb(0, 0, 0)" stroke-linejoin="round" d=" M 59.241, 100.896 57.989, 102.469 53.757, 109.571 49.949, 118.233 49.408, 119.986 48.473, 123.015 48.366, 123.362 47.283, 126.872 46.031, 133.038 45.487, 139.427 45.261, 143.898 45.490, 149.567 45.970, 154.048 46.830, 158.708 47.676, 162.649 48.962, 166.946 50.625, 171.408 52.593, 175.843 54.781, 180.058 57.095, 183.868 59.380, 187.024 " />
            <path fill="none" stroke-width="3.0" stroke-linecap="butt" stroke-opacity="1.0" stroke="rgb(0, 0, 0)" stroke-linejoin="round" d=" M 191.005, 133.487 188.914, 123.708 188.789, 123.127 188.697, 122.887 " />
            <path fill="none" stroke-width="3.0" stroke-linecap="butt" stroke-opacity="1.0" stroke="rgb(0, 0, 0)" stroke-linejoin="round" d=" M 77.110, 152.533 77.664, 153.934 79.027, 156.005 80.920, 157.668 83.114, 158.902 85.155, 159.351 86.254, 159.316 87.248, 159.285 89.621, 158.464 91.669, 157.142 93.217, 155.301 93.932, 153.987 " />
            <path fill="none" stroke-width="3.0" stroke-linecap="butt" stroke-opacity="1.0" stroke="rgb(0, 0, 0)" stroke-linejoin="round" d=" M 117.442, 103.508 117.471, 103.607 118.003, 105.397 118.455, 108.791 118.495, 112.620 118.511, 112.688 117.471, 120.526 117.457, 120.632 117.393, 121.113 116.167, 125.330 114.663, 129.622 112.909, 133.620 110.969, 137.131 108.970, 139.899 108.910, 139.982 108.599, 140.285 106.803, 142.031 104.718, 143.176 102.730, 143.358 101.466, 142.806 100.911, 142.564 99.334, 140.828 98.118, 138.329 98.069, 138.228 97.961, 137.825 97.176, 134.887 96.704, 130.964 96.682, 126.648 97.117, 122.144 97.974, 117.728 98.268, 116.708 98.309, 116.565 99.176, 113.562 100.696, 109.656 102.474, 106.152 104.441, 103.175 105.316, 102.187 " />
            <path fill="none" stroke-width="3.0" stroke-linecap="butt" stroke-opacity="1.0" stroke="rgb(0, 0, 0)" stroke-linejoin="round" d=" M 77.310, 121.021 76.333, 125.317 75.250, 129.427 74.400, 132.121 74.266, 132.545 74.075, 133.150 72.814, 136.300 71.475, 138.718 70.073, 140.285 68.932, 140.795 68.635, 140.927 67.224, 140.916 65.849, 139.374 64.642, 137.265 63.667, 134.401 63.005, 130.925 62.881, 129.207 62.846, 128.724 62.722, 127.012 62.860, 122.850 63.062, 121.343 63.418, 118.697 64.284, 114.694 65.402, 110.848 66.725, 107.294 67.444, 105.766 67.679, 105.268 68.202, 104.155 69.774, 101.538 70.538, 100.584 " />
            <path fill="none" stroke-width="3.0" stroke-linecap="butt" stroke-opacity="1.0" stroke="rgb(0, 0, 0)" stroke-linejoin="round" d=" M 67.224, 140.916 70.427, 142.280 " />
            <path fill="none" stroke-width="3.0" stroke-linecap="butt" stroke-opacity="1.0" stroke="rgb(0, 0, 0)" stroke-linejoin="round" d=" M 77.903, 100.381 78.526, 102.593 78.886, 105.513 78.995, 109.007 78.866, 110.574 78.843, 110.853 78.687, 112.755 " />
            <path fill="none" stroke-width="3.0" stroke-linecap="butt" stroke-opacity="1.0" stroke="rgb(0, 0, 0)" stroke-linejoin="round" d=" M 80.416, 122.949 77.310, 121.021 77.621, 119.433 78.134, 116.812 78.687, 112.755 81.752, 114.777 " />
            <path fill="none" stroke-width="3.0" stroke-linecap="butt" stroke-opacity="1.0" stroke="rgb(0, 0, 0)" stroke-linejoin="round" d=" M 175.395, 198.341 179.925, 201.563 " />
            <path fill="none" stroke-width="3.0" stroke-linecap="butt" stroke-opacity="1.0" stroke="rgb(0, 0, 0)" stroke-linejoin="round" d=" M 167.476, 198.348 169.472, 198.667 174.222, 200.731 177.594, 203.263 " />
            <path fill="none" stroke-width="3.0" stroke-linecap="butt" stroke-opacity="1.0" stroke="rgb(0, 0, 0)" stroke-linejoin="round" d=" M 132.833, 215.557 134.422, 220.177 135.491, 222.428 139.208, 226.285 141.004, 227.796 145.450, 230.342 150.672, 231.716 155.318, 232.135 160.425, 231.571 166.905, 229.848 172.248, 227.509 177.476, 224.232 180.590, 220.709 182.067, 218.820 185.322, 212.251 185.849, 210.988 189.105, 201.533 189.868, 199.318 191.195, 192.945 " />
            <path fill="none" stroke-width="3.0" stroke-linecap="butt" stroke-opacity="1.0" stroke="rgb(0, 0, 0)" stroke-linejoin="round" d=" M 59.380, 187.024 56.056, 187.687 50.116, 188.900 43.836, 191.137 39.184, 193.604 35.587, 196.596 34.990, 197.257 31.215, 202.139 28.902, 206.253 27.503, 210.325 27.001, 214.296 27.329, 218.519 29.183, 222.558 30.724, 224.192 33.467, 225.630 36.846, 227.234 42.417, 228.966 47.372, 229.887 52.356, 230.695 57.417, 231.328 64.018, 231.578 70.484, 231.733 78.293, 231.436 85.359, 230.959 90.662, 230.580 94.944, 230.133 99.710, 229.177 102.493, 227.367 106.104, 224.527 108.294, 221.221 109.317, 217.663 109.389, 216.568 " />
            <path fill="none" stroke-width="3.0" stroke-linecap="butt" stroke-opacity="1.0" stroke="rgb(0, 0, 0)" stroke-linejoin="round" d=" M 164.278, 184.567 166.463, 186.414 169.888, 189.133 173.282, 191.114 174.164, 191.441 176.864, 192.440 180.483, 193.559 183.419, 193.807 187.471, 193.726 189.741, 193.320 191.195, 192.945 192.972, 192.486 197.239, 190.317 200.913, 187.464 202.999, 184.952 204.617, 182.877 205.993, 179.632 207.193, 176.706 207.786, 173.087 208.208, 169.402 208.064, 165.360 207.293, 160.933 205.441, 155.285 204.404, 152.482 201.879, 147.375 199.243, 142.838 199.037, 142.541 199.011, 142.503 198.971, 142.445 196.411, 138.745 193.098, 135.219 191.005, 133.487 190.781, 133.302 185.869, 130.286 181.729, 128.551 " />
            <path fill="none" stroke-width="3.0" stroke-linecap="butt" stroke-opacity="1.0" stroke="rgb(0, 0, 0)" stroke-linejoin="round" d=" M 116.246, 73.044 119.493, 70.568 119.555, 70.441 119.658, 70.234 119.694, 70.160 121.344, 66.812 122.329, 64.214 122.310, 60.536 121.293, 57.881 119.389, 54.165 117.708, 52.932 " />
            <path fill="none" stroke-width="3.0" stroke-linecap="butt" stroke-opacity="1.0" stroke="rgb(0, 0, 0)" stroke-linejoin="round" d=" M 56.104, 56.465 56.012, 56.725 54.490, 61.029 52.852, 67.120 52.283, 74.976 52.573, 76.233 54.223, 81.527 56.711, 82.754 59.787, 83.475 61.236, 83.815 61.854, 83.960 65.736, 84.385 67.247, 84.122 67.571, 84.065 70.735, 83.513 71.743, 83.338 74.462, 82.645 77.305, 81.921 82.703, 79.775 82.775, 79.747 " />
            <path fill="none" stroke-width="3.0" stroke-linecap="butt" stroke-opacity="1.0" stroke="rgb(0, 0, 0)" stroke-linejoin="round" d=" M 33.822, 112.700 31.626, 108.250 32.806, 107.122 37.505, 102.635 41.713, 101.590 49.460, 99.666 53.192, 98.739 57.285, 98.607 59.146, 98.547 61.162, 98.482 71.157, 98.159 73.232, 98.093 76.119, 98.000 76.147, 97.999 79.964, 97.876 89.933, 98.665 99.902, 99.454 107.512, 100.057 113.666, 100.544 116.307, 101.004 116.385, 101.018 126.237, 102.733 136.089, 104.448 145.940, 106.163 147.642, 106.459 157.309, 109.020 166.976, 111.580 176.642, 114.141 177.044, 114.247 178.180, 114.712 179.039, 115.063 183.030, 116.696 185.771, 117.817 " />
            <path fill="none" stroke-width="3.0" stroke-linecap="butt" stroke-opacity="1.0" stroke="rgb(0, 0, 0)" stroke-linejoin="round" d=" M 199.011, 142.503 206.620, 138.135 206.248, 131.881 200.122, 127.267 197.875, 125.574 " />
            <path fill="none" stroke-width="3.0" stroke-linecap="butt" stroke-opacity="1.0" stroke="rgb(0, 0, 0)" stroke-linejoin="round" d=" M 39.022, 108.880 40.882, 107.280 44.990, 103.745 54.767, 101.646 58.116, 100.927 " />
            <path fill="none" stroke-width="3.0" stroke-linecap="butt" stroke-opacity="1.0" stroke="rgb(0, 0, 0)" stroke-linejoin="round" d=" M 38.888, 117.554 47.150, 122.870 48.366, 123.362 " />
            <path fill="none" stroke-width="3.0" stroke-linecap="butt" stroke-opacity="1.0" stroke="rgb(0, 0, 0)" stroke-linejoin="round" d=" M 55.988, 100.985 46.213, 103.097 45.325, 103.289 41.091, 104.204 39.832, 104.476 33.825, 109.880 34.558, 111.409 " />
            <path fill="none" stroke-width="3.0" stroke-linecap="butt" stroke-opacity="1.0" stroke="rgb(0, 0, 0)" stroke-linejoin="round" d=" M 55.988, 100.985 58.116, 100.927 59.241, 100.896 59.978, 100.875 61.810, 100.825 70.538, 100.584 75.901, 100.436 77.903, 100.381 79.377, 100.341 81.509, 100.282 91.477, 101.080 101.446, 101.877 105.316, 102.187 110.053, 102.566 113.420, 102.836 117.442, 103.508 118.049, 103.609 122.356, 104.328 132.220, 105.976 142.083, 107.623 146.713, 108.396 156.387, 110.929 166.061, 113.462 175.653, 115.974 179.296, 117.444 183.990, 119.339 " />
            <path fill="none" stroke-width="3.0" stroke-linecap="butt" stroke-opacity="1.0" stroke="rgb(0, 0, 0)" stroke-linejoin="round" d=" M 41.031, 94.936 36.229, 98.817 33.063, 102.002 31.251, 104.829 30.081, 107.848 30.074, 110.306 30.538, 112.477 34.862, 116.554 37.541, 118.025 38.888, 117.554 38.930, 117.540 40.801, 116.886 42.105, 115.997 43.657, 114.939 45.242, 109.869 " />
            <path fill="none" stroke-width="3.0" stroke-linecap="butt" stroke-opacity="1.0" stroke="rgb(0, 0, 0)" stroke-linejoin="round" d=" M 33.267, 114.066 30.538, 112.477 " />
            <path fill="none" stroke-width="3.0" stroke-linecap="butt" stroke-opacity="1.0" stroke="rgb(0, 0, 0)" stroke-linejoin="round" d=" M 43.657, 114.939 39.929, 112.643 " />
            <path fill="none" stroke-width="3.0" stroke-linecap="butt" stroke-opacity="1.0" stroke="rgb(0, 0, 0)" stroke-linejoin="round" d=" M 40.836, 110.241 39.929, 112.643 36.509, 113.606 " />
            <path fill="none" stroke-width="3.0" stroke-linecap="butt" stroke-opacity="1.0" stroke="rgb(0, 0, 0)" stroke-linejoin="round" d=" M 57.463, 85.349 50.513, 88.625 42.189, 94.166 41.031, 94.936 47.287, 90.916 48.065, 90.491 56.838, 85.691 57.463, 85.349 58.970, 84.736 61.236, 83.815 " />
            <path fill="none" stroke-width="3.0" stroke-linecap="butt" stroke-opacity="1.0" stroke="rgb(0, 0, 0)" stroke-linejoin="round" d=" M 47.287, 90.916 49.332, 90.093 49.680, 89.953 53.570, 88.388 55.753, 87.510 57.509, 86.993 67.100, 84.165 67.247, 84.122 " />
            <path fill="none" stroke-width="3.0" stroke-linecap="butt" stroke-opacity="1.0" stroke="rgb(0, 0, 0)" stroke-linejoin="round" d=" M 67.571, 84.065 71.602, 83.671 71.849, 83.647 77.944, 83.052 80.458, 82.806 81.775, 82.776 87.687, 82.638 88.385, 82.670 89.242, 82.709 " />
            <path fill="none" stroke-width="3.0" stroke-linecap="butt" stroke-opacity="1.0" stroke="rgb(0, 0, 0)" stroke-linejoin="round" d=" M 179.296, 117.444 179.951, 119.047 181.869, 119.964 182.966, 120.487 183.063, 120.528 188.697, 122.887 196.806, 126.284 196.996, 126.158 197.875, 125.574 198.722, 125.011 199.008, 124.821 199.263, 123.715 199.843, 121.198 196.941, 116.649 192.330, 112.189 190.449, 110.370 185.764, 106.998 182.896, 104.934 178.181, 101.438 178.138, 101.406 176.683, 100.327 171.300, 97.154 168.153, 95.299 160.671, 92.174 159.540, 91.702 156.979, 90.632 147.434, 87.650 144.278, 86.664 134.665, 83.909 131.493, 83.000 121.637, 81.313 118.644, 80.800 109.233, 79.255 107.461, 78.964 " />
            <path fill="none" stroke-width="3.0" stroke-linecap="butt" stroke-opacity="1.0" stroke="rgb(0, 0, 0)" stroke-linejoin="round" d=" M 103.057, 83.807 107.684, 84.292 111.424, 84.684 111.666, 84.744 121.377, 87.133 128.062, 88.777 137.665, 91.566 141.115, 92.568 142.453, 92.956 151.781, 96.560 155.283, 97.912 164.443, 101.922 166.425, 102.790 174.788, 106.848 181.236, 110.443 184.951, 113.219 186.306, 114.232 187.291, 115.783 187.571, 116.225 188.192, 117.204 188.350, 118.303 188.558, 119.751 187.693, 120.297 187.174, 120.624 186.025, 121.349 " />
            <path fill="none" stroke-width="3.0" stroke-linecap="butt" stroke-opacity="1.0" stroke="rgb(0, 0, 0)" stroke-linejoin="round" d=" M 99.101, 80.599 99.489, 80.044 100.447, 78.673 102.894, 75.171 103.798, 72.069 104.029, 71.277 104.387, 70.045 104.617, 69.255 105.050, 67.771 105.234, 67.138 105.312, 66.871 105.848, 60.445 105.832, 58.007 105.827, 57.104 105.818, 55.732 105.817, 55.653 " />
            <path fill="none" stroke-width="3.0" stroke-linecap="butt" stroke-opacity="1.0" stroke="rgb(0, 0, 0)" stroke-linejoin="round" d=" M 76.872, 75.259 80.419, 77.604 82.783, 78.764 82.985, 78.863 83.904, 79.314 85.568, 80.130 93.082, 81.726 94.100, 81.535 99.101, 80.599 100.305, 82.035 101.791, 83.176 101.968, 83.312 103.420, 83.735 " />
            <path fill="none" stroke-width="3.0" stroke-linecap="butt" stroke-opacity="1.0" stroke="rgb(0, 0, 0)" stroke-linejoin="round" d=" M 54.223, 81.527 53.902, 80.168 " />
            <path fill="none" stroke-width="3.0" stroke-linecap="butt" stroke-opacity="1.0" stroke="rgb(0, 0, 0)" stroke-linejoin="round" d=" M 79.893, 78.061 77.628, 76.559 76.872, 75.259 72.529, 77.552 66.656, 79.957 61.444, 80.915 59.035, 81.359 53.902, 80.168 52.283, 74.976 " />
            <path fill="none" stroke-width="3.0" stroke-linecap="butt" stroke-opacity="1.0" stroke="rgb(0, 0, 0)" stroke-linejoin="round" d=" M 110.655, 62.916 110.908, 62.561 111.014, 62.411 111.227, 62.114 114.162, 57.996 114.515, 57.491 117.708, 52.932 118.836, 51.322 122.502, 45.675 122.944, 44.052 124.044, 40.012 124.095, 36.883 122.911, 34.658 119.434, 30.373 114.163, 27.906 111.230, 26.792 105.496, 25.656 103.090, 25.386 101.114, 25.165 " />
            <path fill="none" stroke-width="3.0" stroke-linecap="butt" stroke-opacity="1.0" stroke="rgb(0, 0, 0)" stroke-linejoin="round" d=" M 56.012, 56.725 53.328, 52.895 50.337, 47.806 48.915, 42.377 49.386, 36.853 53.737, 32.640 60.771, 29.111 66.460, 27.506 70.772, 26.625 73.361, 22.625 77.249, 17.434 83.324, 11.650 88.730, 8.966 93.341, 11.016 97.608, 16.262 99.826, 21.241 101.114, 25.165 " />
            <path fill="none" stroke-width="3.0" stroke-linecap="butt" stroke-opacity="1.0" stroke="rgb(0, 0, 0)" stroke-linejoin="round" d=" M 108.948, 58.700 107.830, 57.406 107.155, 56.624 105.843, 55.672 105.817, 55.653 105.870, 55.607 106.853, 54.757 110.342, 51.738 111.154, 50.899 115.791, 46.107 116.866, 44.429 119.627, 40.117 121.302, 34.119 117.899, 29.917 111.230, 26.792 " />
            <path fill="none" stroke-width="3.0" stroke-linecap="butt" stroke-opacity="1.0" stroke="rgb(0, 0, 0)" stroke-linejoin="round" d=" M 103.090, 25.386 102.153, 22.983 99.672, 18.137 98.248, 15.872 94.369, 11.112 89.669, 9.025 88.730, 8.966 " />
            <path fill="none" stroke-width="3.0" stroke-linecap="butt" stroke-opacity="1.0" stroke="rgb(0, 0, 0)" stroke-linejoin="round" d=" M 53.328, 52.895 56.104, 56.465 " />
            <path fill="none" stroke-width="3.0" stroke-linecap="butt" stroke-opacity="1.0" stroke="rgb(0, 0, 0)" stroke-linejoin="round" d=" M 191.352, 107.241 188.458, 97.669 186.298, 90.523 185.294, 89.449 184.087, 85.097 179.251, 76.345 177.982, 74.049 171.465, 66.465 170.344, 65.159 164.666, 59.724 156.731, 53.639 156.359, 53.354 149.143, 49.538 142.886, 47.318 138.188, 45.796 137.069, 45.434 130.625, 44.286 126.476, 44.102 124.274, 44.005 122.944, 44.052 " />
            <path fill="none" stroke-width="3.0" stroke-linecap="butt" stroke-opacity="1.0" stroke="rgb(0, 0, 0)" stroke-linejoin="round" d=" M 79.893, 78.061 81.452, 78.973 82.721, 79.716 82.775, 79.747 83.002, 79.880 84.507, 80.760 84.764, 80.911 87.294, 81.927 89.046, 82.631 89.242, 82.709 89.493, 82.810 90.782, 83.328 92.953, 83.791 97.833, 84.833 101.768, 84.060 103.057, 83.807 103.420, 83.735 103.714, 83.314 104.467, 82.236 106.772, 78.936 107.359, 78.097 107.444, 77.843 108.543, 74.569 108.720, 74.040 108.801, 73.800 108.855, 73.515 109.290, 71.230 109.503, 70.109 109.609, 69.555 110.218, 66.352 110.655, 62.916 110.752, 62.151 110.770, 62.009 110.851, 61.376 110.867, 61.243 " />
            <path fill="none" stroke-width="3.0" stroke-linecap="butt" stroke-opacity="1.0" stroke="rgb(0, 0, 0)" stroke-linejoin="round" d=" M 186.887, 104.361 183.012, 101.160 175.008, 97.584 166.745, 93.892 160.671, 92.174 " />
            <path fill="none" stroke-width="3.0" stroke-linecap="butt" stroke-opacity="1.0" stroke="rgb(0, 0, 0)" stroke-linejoin="round" d=" M 121.240, 70.253 119.694, 70.160 " />
            <path fill="none" stroke-width="3.0" stroke-linecap="butt" stroke-opacity="1.0" stroke="rgb(0, 0, 0)" stroke-linejoin="round" d=" M 121.240, 70.253 126.865, 71.133 134.679, 72.356 144.559, 73.902 144.993, 73.970 " />
            <path fill="none" stroke-width="3.0" stroke-linecap="butt" stroke-opacity="1.0" stroke="rgb(0, 0, 0)" stroke-linejoin="round" d=" M 138.188, 45.796 137.533, 44.923 134.198, 43.542 130.143, 43.091 126.977, 43.745 126.476, 44.102 " />
            <path fill="none" stroke-width="3.0" stroke-linecap="butt" stroke-opacity="1.0" stroke="rgb(0, 0, 0)" stroke-linejoin="round" d=" M 199.037, 142.541 200.719, 142.120 208.869, 137.483 209.734, 133.776 209.572, 127.034 205.746, 121.526 199.973, 114.407 192.283, 108.015 191.352, 107.241 190.426, 106.471 186.887, 104.361 184.999, 103.236 176.573, 99.495 171.300, 97.154 " />
            <path fill="none" stroke-width="3.0" stroke-linecap="butt" stroke-opacity="1.0" stroke="rgb(0, 0, 0)" stroke-linejoin="round" d=" M 199.263, 123.715 207.183, 129.821 208.643, 130.946 208.869, 137.483 " />
            <path fill="none" stroke-width="3.0" stroke-linecap="butt" stroke-opacity="1.0" stroke="rgb(0, 0, 0)" stroke-linejoin="round" d=" M 44.169, 94.130 43.583, 94.574 38.123, 98.657 32.063, 104.589 31.626, 108.250 " />
            <path fill="none" stroke-width="3.0" stroke-linecap="butt" stroke-opacity="1.0" stroke="rgb(0, 0, 0)" stroke-linejoin="round" d=" M 209.572, 127.034 201.766, 120.784 199.306, 118.814 " />
            <path fill="none" stroke-width="3.0" stroke-linecap="butt" stroke-opacity="1.0" stroke="rgb(0, 0, 0)" stroke-linejoin="round" d=" M 59.787, 83.475 58.970, 84.736 " />
            <path fill="none" stroke-width="3.0" stroke-linecap="butt" stroke-opacity="1.0" stroke="rgb(0, 0, 0)" stroke-linejoin="round" d=" M 107.242, 78.955 107.584, 77.804 108.543, 74.569 " />
            <path fill="none" stroke-width="3.0" stroke-linecap="butt" stroke-opacity="1.0" stroke="rgb(0, 0, 0)" stroke-linejoin="round" d=" M 108.720, 74.040 110.865, 73.950 " />
            <path fill="none" stroke-width="3.0" stroke-linecap="butt" stroke-opacity="1.0" stroke="rgb(0, 0, 0)" stroke-linejoin="round" d=" M 196.996, 126.158 201.536, 129.545 " />
        </g>
    </g>
</svg>
