<?xml version='1.0' encoding='ascii'?>
<svg xmlns="http://www.w3.org/2000/svg" version="1.1" width="250" height="250">
    <g id="ViewLayer_LineSet" xmlns:inkscape="http://www.inkscape.org/namespaces/inkscape" inkscape:groupmode="lineset" inkscape:label="ViewLayer_LineSet">
        <g xmlns:inkscape="http://www.inkscape.org/namespaces/inkscape" inkscape:groupmode="layer" id="strokes" inkscape:label="strokes">
            <path fill="none" stroke-width="3.0" stroke-linecap="butt" stroke-opacity="1.0" stroke="rgb(0, 0, 0)" stroke-linejoin="round" d=" M 164.611, 200.122 166.777, 198.548 173.731, 191.362 174.395, 190.676 176.392, 187.768 182.024, 179.504 182.724, 178.477 182.744, 178.435 " />
            <path fill="none" stroke-width="3.0" stroke-linecap="butt" stroke-opacity="1.0" stroke="rgb(0, 0, 0)" stroke-linejoin="round" d=" M 59.307, 100.264 57.986, 101.925 53.753, 109.029 49.946, 117.694 49.388, 119.501 48.453, 122.529 48.347, 122.872 48.008, 123.969 47.279, 126.332 46.026, 132.494 45.482, 138.878 45.257, 143.358 45.486, 149.022 45.965, 153.510 46.826, 158.162 47.672, 162.107 48.958, 166.407 50.622, 170.871 52.341, 174.745 52.590, 175.305 54.778, 179.520 57.092, 183.328 59.433, 186.556 62.364, 190.432 65.348, 193.723 69.459, 197.794 72.903, 200.518 78.079, 204.481 79.633, 205.408 84.042, 208.037 89.776, 210.623 93.584, 212.295 96.795, 213.227 " />
            <path fill="none" stroke-width="3.0" stroke-linecap="butt" stroke-opacity="1.0" stroke="rgb(0, 0, 0)" stroke-linejoin="round" d=" M 189.570, 126.155 188.805, 122.579 188.681, 122.258 " />
            <path fill="none" stroke-width="3.0" stroke-linecap="butt" stroke-opacity="1.0" stroke="rgb(0, 0, 0)" stroke-linejoin="round" d=" M 77.110, 151.915 77.664, 153.316 78.335, 154.335 79.027, 155.386 80.921, 157.048 83.115, 158.281 85.156, 158.729 87.250, 158.662 89.623, 157.839 91.671, 156.516 93.220, 154.673 93.935, 153.358 " />
            <path fill="none" stroke-width="3.0" stroke-linecap="butt" stroke-opacity="1.0" stroke="rgb(0, 0, 0)" stroke-linejoin="round" d=" M 117.439, 102.841 117.536, 103.167 118.010, 104.762 118.462, 108.154 118.502, 111.982 118.518, 112.050 117.453, 120.073 117.438, 120.183 117.400, 120.472 116.174, 124.688 114.669, 128.980 112.915, 132.977 110.975, 136.488 108.915, 139.340 108.810, 139.442 108.419, 139.822 106.808, 141.390 104.723, 142.535 102.734, 142.717 101.463, 142.163 100.915, 141.924 99.338, 140.188 98.233, 137.918 98.072, 137.589 98.023, 137.404 97.179, 134.248 96.707, 130.326 96.685, 126.010 97.121, 121.507 97.977, 117.093 98.221, 116.246 98.264, 116.099 99.179, 112.927 100.700, 109.023 102.478, 105.520 104.445, 102.543 105.345, 101.527 " />
            <path fill="none" stroke-width="3.0" stroke-linecap="butt" stroke-opacity="1.0" stroke="rgb(0, 0, 0)" stroke-linejoin="round" d=" M 77.310, 120.396 76.333, 124.691 76.140, 125.423 75.250, 128.801 74.348, 131.658 74.215, 132.080 74.075, 132.525 72.814, 135.675 71.474, 138.095 70.072, 139.664 68.925, 140.176 68.633, 140.307 67.223, 140.298 65.848, 138.757 64.640, 136.650 63.665, 133.787 63.003, 130.313 62.890, 128.749 62.855, 128.269 62.720, 126.402 62.858, 122.242 63.149, 120.072 63.416, 118.090 64.282, 114.089 65.400, 110.243 66.724, 106.690 67.396, 105.261 67.633, 104.758 68.201, 103.551 69.773, 100.934 70.567, 99.942 " />
            <path fill="none" stroke-width="3.0" stroke-linecap="butt" stroke-opacity="1.0" stroke="rgb(0, 0, 0)" stroke-linejoin="round" d=" M 67.223, 140.298 70.426, 141.670 " />
            <path fill="none" stroke-width="3.0" stroke-linecap="butt" stroke-opacity="1.0" stroke="rgb(0, 0, 0)" stroke-linejoin="round" d=" M 77.893, 99.732 78.527, 101.978 78.886, 104.895 78.996, 108.388 78.854, 110.100 78.831, 110.383 78.687, 112.134 " />
            <path fill="none" stroke-width="3.0" stroke-linecap="butt" stroke-opacity="1.0" stroke="rgb(0, 0, 0)" stroke-linejoin="round" d=" M 80.417, 122.333 77.310, 120.396 78.134, 116.189 78.687, 112.134 81.753, 114.163 " />
            <path fill="none" stroke-width="3.0" stroke-linecap="butt" stroke-opacity="1.0" stroke="rgb(0, 0, 0)" stroke-linejoin="round" d=" M 112.662, 194.151 107.578, 196.566 103.214, 199.801 100.175, 203.636 98.190, 207.489 97.042, 211.320 96.795, 213.227 96.577, 214.909 96.937, 218.767 98.322, 222.875 100.828, 225.870 104.598, 228.277 108.488, 230.759 108.925, 230.952 113.604, 233.027 119.729, 234.965 126.423, 236.849 132.245, 238.387 137.860, 239.421 143.915, 240.194 148.064, 240.719 155.377, 241.280 160.406, 241.316 164.694, 240.700 164.890, 240.648 168.688, 239.094 172.930, 235.196 175.286, 231.568 176.694, 227.678 177.123, 223.059 176.399, 218.076 173.995, 211.901 173.051, 209.793 168.653, 203.634 164.611, 200.122 163.107, 198.815 159.093, 196.525 152.750, 193.552 " />
            <path fill="none" stroke-width="3.0" stroke-linecap="butt" stroke-opacity="1.0" stroke="rgb(0, 0, 0)" stroke-linejoin="round" d=" M 79.633, 205.408 79.133, 207.789 79.103, 210.795 79.092, 215.353 79.585, 217.925 81.542, 222.387 82.638, 224.830 85.986, 228.109 90.203, 230.688 94.368, 231.883 96.375, 232.398 100.616, 232.590 106.134, 231.930 108.925, 230.952 " />
            <path fill="none" stroke-width="3.0" stroke-linecap="butt" stroke-opacity="1.0" stroke="rgb(0, 0, 0)" stroke-linejoin="round" d=" M 192.892, 181.716 196.693, 182.175 200.392, 181.946 205.139, 180.711 207.344, 179.693 207.857, 179.425 209.576, 178.353 212.180, 176.308 214.638, 173.625 216.615, 170.299 217.800, 167.189 218.304, 165.238 218.577, 163.599 218.688, 162.308 218.731, 159.439 218.075, 156.087 217.541, 153.898 216.163, 150.180 214.086, 146.300 210.333, 141.572 206.949, 138.062 206.554, 137.652 206.366, 137.456 202.463, 133.818 200.370, 132.082 196.220, 129.162 191.668, 126.894 189.570, 126.155 " />
            <path fill="none" stroke-width="3.0" stroke-linecap="butt" stroke-opacity="1.0" stroke="rgb(0, 0, 0)" stroke-linejoin="round" d=" M 182.744, 178.435 185.880, 179.831 188.740, 180.610 189.284, 180.755 192.892, 181.716 190.253, 181.018 189.284, 180.755 " />
            <path fill="none" stroke-width="3.0" stroke-linecap="butt" stroke-opacity="1.0" stroke="rgb(0, 0, 0)" stroke-linejoin="round" d=" M 48.008, 123.969 44.261, 125.981 40.044, 129.065 36.061, 132.811 32.008, 137.112 28.110, 142.119 25.774, 146.218 24.189, 150.131 23.327, 154.161 23.268, 157.668 23.737, 160.962 24.760, 164.042 26.268, 166.824 26.574, 167.302 28.571, 169.936 30.941, 172.065 33.601, 173.830 36.504, 175.150 39.694, 175.987 43.188, 176.373 47.302, 176.057 51.400, 175.091 52.341, 174.745 " />
            <path fill="none" stroke-width="3.0" stroke-linecap="butt" stroke-opacity="1.0" stroke="rgb(0, 0, 0)" stroke-linejoin="round" d=" M 116.252, 72.425 119.500, 69.945 119.522, 69.900 119.662, 69.614 119.699, 69.540 121.351, 66.183 122.336, 63.588 122.317, 59.909 121.300, 57.249 119.396, 53.536 117.696, 52.290 " />
            <path fill="none" stroke-width="3.0" stroke-linecap="butt" stroke-opacity="1.0" stroke="rgb(0, 0, 0)" stroke-linejoin="round" d=" M 56.101, 55.811 56.008, 56.073 54.487, 60.375 52.848, 66.464 52.278, 74.317 52.569, 75.578 54.220, 80.869 56.708, 82.102 59.848, 82.836 61.346, 83.186 61.851, 83.304 65.734, 83.738 71.361, 82.754 71.742, 82.687 74.205, 82.059 77.305, 81.269 82.719, 79.115 82.789, 79.087 " />
            <path fill="none" stroke-width="3.0" stroke-linecap="butt" stroke-opacity="1.0" stroke="rgb(0, 0, 0)" stroke-linejoin="round" d=" M 33.817, 112.174 31.619, 107.696 32.800, 106.560 37.499, 102.042 41.755, 100.975 49.561, 99.018 53.188, 98.108 57.141, 97.977 59.119, 97.911 61.236, 97.841 71.230, 97.508 73.354, 97.437 76.063, 97.347 76.085, 97.346 79.965, 97.217 89.934, 98.003 99.903, 98.788 107.561, 99.391 113.672, 99.873 116.291, 100.329 116.361, 100.341 126.213, 102.058 136.064, 103.775 145.916, 105.491 147.654, 105.794 157.319, 108.361 166.984, 110.928 176.649, 113.494 177.060, 113.604 178.185, 114.066 178.976, 114.390 183.045, 116.061 185.879, 117.225 " />
            <path fill="none" stroke-width="3.0" stroke-linecap="butt" stroke-opacity="1.0" stroke="rgb(0, 0, 0)" stroke-linejoin="round" d=" M 206.554, 137.652 206.638, 137.603 206.267, 131.312 200.108, 126.650 197.890, 124.971 " />
            <path fill="none" stroke-width="3.0" stroke-linecap="butt" stroke-opacity="1.0" stroke="rgb(0, 0, 0)" stroke-linejoin="round" d=" M 39.017, 108.330 40.879, 106.716 44.985, 103.159 54.758, 101.040 58.188, 100.296 " />
            <path fill="none" stroke-width="3.0" stroke-linecap="butt" stroke-opacity="1.0" stroke="rgb(0, 0, 0)" stroke-linejoin="round" d=" M 38.879, 117.042 47.146, 122.384 48.347, 122.872 " />
            <path fill="none" stroke-width="3.0" stroke-linecap="butt" stroke-opacity="1.0" stroke="rgb(0, 0, 0)" stroke-linejoin="round" d=" M 55.984, 100.359 46.214, 102.491 45.403, 102.668 41.090, 103.609 39.826, 103.885 33.819, 109.328 34.556, 110.873 " />
            <path fill="none" stroke-width="3.0" stroke-linecap="butt" stroke-opacity="1.0" stroke="rgb(0, 0, 0)" stroke-linejoin="round" d=" M 55.984, 100.359 58.188, 100.296 59.307, 100.264 59.828, 100.249 61.665, 100.197 70.567, 99.942 75.963, 99.788 77.893, 99.732 79.316, 99.692 81.510, 99.629 91.479, 100.423 101.447, 101.217 105.345, 101.527 110.110, 101.907 113.426, 102.171 117.439, 102.841 118.030, 102.940 127.893, 104.589 129.731, 104.896 139.594, 106.544 146.725, 107.736 156.397, 110.275 166.069, 112.814 175.669, 115.335 179.305, 116.808 184.144, 118.768 " />
            <path fill="none" stroke-width="3.0" stroke-linecap="butt" stroke-opacity="1.0" stroke="rgb(0, 0, 0)" stroke-linejoin="round" d=" M 41.026, 94.358 36.224, 98.250 33.056, 101.445 31.245, 104.280 30.074, 107.305 30.067, 109.767 30.531, 111.939 34.857, 116.039 37.536, 117.511 38.879, 117.042 38.915, 117.029 40.797, 116.372 42.086, 115.492 43.653, 114.424 45.238, 109.351 " />
            <path fill="none" stroke-width="3.0" stroke-linecap="butt" stroke-opacity="1.0" stroke="rgb(0, 0, 0)" stroke-linejoin="round" d=" M 33.261, 113.530 30.531, 111.939 " />
            <path fill="none" stroke-width="3.0" stroke-linecap="butt" stroke-opacity="1.0" stroke="rgb(0, 0, 0)" stroke-linejoin="round" d=" M 43.653, 114.424 39.924, 112.106 " />
            <path fill="none" stroke-width="3.0" stroke-linecap="butt" stroke-opacity="1.0" stroke="rgb(0, 0, 0)" stroke-linejoin="round" d=" M 40.823, 109.724 39.924, 112.106 36.504, 113.069 " />
            <path fill="none" stroke-width="3.0" stroke-linecap="butt" stroke-opacity="1.0" stroke="rgb(0, 0, 0)" stroke-linejoin="round" d=" M 57.460, 84.772 50.510, 88.060 42.179, 93.592 41.026, 94.358 47.283, 90.324 48.206, 89.820 56.984, 85.031 57.460, 84.772 59.001, 84.143 61.346, 83.186 " />
            <path fill="none" stroke-width="3.0" stroke-linecap="butt" stroke-opacity="1.0" stroke="rgb(0, 0, 0)" stroke-linejoin="round" d=" M 47.283, 90.324 49.425, 89.459 49.712, 89.343 53.449, 87.833 55.750, 86.904 57.559, 86.369 67.148, 83.530 67.372, 83.464 77.323, 82.482 78.104, 82.405 80.459, 82.172 81.782, 82.140 87.689, 81.998 88.547, 82.037 89.339, 82.073 " />
            <path fill="none" stroke-width="3.0" stroke-linecap="butt" stroke-opacity="1.0" stroke="rgb(0, 0, 0)" stroke-linejoin="round" d=" M 179.305, 116.808 179.967, 118.428 182.048, 119.419 182.983, 119.864 183.264, 119.982 188.681, 122.258 196.825, 125.680 196.999, 125.564 197.890, 124.971 198.721, 124.417 199.027, 124.213 199.281, 123.110 199.862, 120.587 196.960, 116.034 192.330, 111.555 190.467, 109.753 185.126, 105.907 182.913, 104.313 178.329, 100.913 177.984, 100.657 176.699, 99.703 171.433, 96.598 168.168, 94.671 160.806, 91.595 159.203, 90.925 156.992, 90.002 147.447, 87.019 144.289, 86.032 134.676, 83.277 131.502, 82.368 121.645, 80.683 118.650, 80.171 109.240, 78.629 107.466, 78.338 " />
            <path fill="none" stroke-width="3.0" stroke-linecap="butt" stroke-opacity="1.0" stroke="rgb(0, 0, 0)" stroke-linejoin="round" d=" M 102.974, 83.151 107.696, 83.644 111.430, 84.034 111.845, 84.136 121.556, 86.523 128.070, 88.124 137.674, 90.912 141.397, 91.993 142.464, 92.303 151.792, 95.907 155.295, 97.261 164.456, 101.273 166.439, 102.141 174.804, 106.203 181.253, 109.802 184.917, 112.542 186.324, 113.595 187.333, 115.186 187.635, 115.663 188.210, 116.570 188.384, 117.781 188.576, 119.120 187.684, 119.684 187.184, 120.000 186.043, 120.722 " />
            <path fill="none" stroke-width="3.0" stroke-linecap="butt" stroke-opacity="1.0" stroke="rgb(0, 0, 0)" stroke-linejoin="round" d=" M 99.105, 79.905 99.360, 79.541 100.403, 78.048 102.899, 74.477 103.756, 71.536 104.012, 70.655 104.368, 69.435 104.600, 68.639 105.035, 67.147 105.238, 66.448 105.317, 66.178 105.853, 59.753 105.838, 57.401 105.832, 56.475 105.823, 55.088 105.822, 54.963 " />
            <path fill="none" stroke-width="3.0" stroke-linecap="butt" stroke-opacity="1.0" stroke="rgb(0, 0, 0)" stroke-linejoin="round" d=" M 76.872, 74.583 80.419, 76.925 82.921, 78.149 83.005, 78.191 84.031, 78.693 85.570, 79.446 93.085, 81.036 95.762, 80.533 99.105, 79.905 100.309, 81.344 101.873, 82.552 101.972, 82.628 103.424, 83.062 " />
            <path fill="none" stroke-width="3.0" stroke-linecap="butt" stroke-opacity="1.0" stroke="rgb(0, 0, 0)" stroke-linejoin="round" d=" M 54.220, 80.869 53.898, 79.507 " />
            <path fill="none" stroke-width="3.0" stroke-linecap="butt" stroke-opacity="1.0" stroke="rgb(0, 0, 0)" stroke-linejoin="round" d=" M 79.893, 77.396 77.628, 75.886 76.872, 74.583 72.529, 76.879 66.654, 79.286 61.536, 80.231 59.032, 80.694 53.898, 79.507 52.278, 74.317 " />
            <path fill="none" stroke-width="3.0" stroke-linecap="butt" stroke-opacity="1.0" stroke="rgb(0, 0, 0)" stroke-linejoin="round" d=" M 110.659, 62.262 110.906, 61.915 110.998, 61.785 111.217, 61.478 114.168, 57.337 114.509, 56.849 117.696, 52.290 118.843, 50.649 122.510, 45.000 122.915, 43.512 124.052, 39.339 124.103, 36.200 122.919, 33.967 119.441, 29.686 114.169, 27.223 111.236, 26.109 105.501, 24.977 103.088, 24.708 101.118, 24.489 " />
            <path fill="none" stroke-width="3.0" stroke-linecap="butt" stroke-opacity="1.0" stroke="rgb(0, 0, 0)" stroke-linejoin="round" d=" M 56.008, 56.073 53.324, 52.244 50.333, 47.159 48.911, 41.733 49.381, 36.210 53.733, 31.996 60.769, 28.463 66.458, 26.854 70.771, 25.971 73.361, 21.970 77.249, 16.779 83.325, 10.992 88.732, 8.305 93.343, 10.351 97.611, 15.592 99.830, 20.568 101.118, 24.489 " />
            <path fill="none" stroke-width="3.0" stroke-linecap="butt" stroke-opacity="1.0" stroke="rgb(0, 0, 0)" stroke-linejoin="round" d=" M 108.954, 58.021 107.790, 56.669 107.160, 55.937 105.863, 54.993 105.822, 54.963 105.905, 54.891 106.837, 54.084 110.348, 51.046 111.101, 50.267 115.798, 45.414 116.774, 43.889 119.634, 39.423 121.309, 33.425 117.906, 29.228 111.236, 26.109 " />
            <path fill="none" stroke-width="3.0" stroke-linecap="butt" stroke-opacity="1.0" stroke="rgb(0, 0, 0)" stroke-linejoin="round" d=" M 103.088, 24.708 102.157, 22.321 99.675, 17.478 98.252, 15.206 94.372, 10.450 89.671, 8.367 88.732, 8.305 " />
            <path fill="none" stroke-width="3.0" stroke-linecap="butt" stroke-opacity="1.0" stroke="rgb(0, 0, 0)" stroke-linejoin="round" d=" M 53.324, 52.244 56.101, 55.811 " />
            <path fill="none" stroke-width="3.0" stroke-linecap="butt" stroke-opacity="1.0" stroke="rgb(0, 0, 0)" stroke-linejoin="round" d=" M 191.353, 106.635 188.458, 97.063 186.314, 89.973 185.309, 88.900 184.102, 84.550 179.263, 75.799 177.996, 73.508 171.476, 65.926 170.356, 64.624 164.678, 59.172 156.737, 53.095 156.370, 52.814 149.153, 48.989 142.894, 46.783 138.172, 45.251 137.078, 44.896 130.632, 43.747 126.511, 43.566 124.280, 43.468 122.915, 43.512 " />
            <path fill="none" stroke-width="3.0" stroke-linecap="butt" stroke-opacity="1.0" stroke="rgb(0, 0, 0)" stroke-linejoin="round" d=" M 79.893, 77.396 81.528, 78.350 82.737, 79.056 82.789, 79.087 83.107, 79.272 84.526, 80.100 84.765, 80.240 87.426, 81.306 89.158, 82.000 89.339, 82.073 89.681, 82.210 90.785, 82.652 93.189, 83.168 97.836, 84.164 101.561, 83.429 102.974, 83.151 103.424, 83.062 103.690, 82.681 104.438, 81.611 106.745, 78.308 107.364, 77.423 107.397, 77.324 108.667, 73.541 108.710, 73.414 108.806, 73.128 108.835, 72.975 109.271, 70.687 109.498, 69.495 109.604, 68.938 110.224, 65.683 110.659, 62.262 110.750, 61.540 110.771, 61.378 110.850, 60.755 110.873, 60.575 " />
            <path fill="none" stroke-width="3.0" stroke-linecap="butt" stroke-opacity="1.0" stroke="rgb(0, 0, 0)" stroke-linejoin="round" d=" M 186.821, 103.721 183.028, 100.575 174.953, 96.955 166.759, 93.282 160.806, 91.595 " />
            <path fill="none" stroke-width="3.0" stroke-linecap="butt" stroke-opacity="1.0" stroke="rgb(0, 0, 0)" stroke-linejoin="round" d=" M 121.247, 69.632 119.699, 69.540 " />
            <path fill="none" stroke-width="3.0" stroke-linecap="butt" stroke-opacity="1.0" stroke="rgb(0, 0, 0)" stroke-linejoin="round" d=" M 121.247, 69.632 128.020, 70.694 133.972, 71.627 143.851, 73.175 145.004, 73.355 " />
            <path fill="none" stroke-width="3.0" stroke-linecap="butt" stroke-opacity="1.0" stroke="rgb(0, 0, 0)" stroke-linejoin="round" d=" M 138.172, 45.251 137.541, 44.407 134.205, 43.024 130.150, 42.572 126.984, 43.230 126.511, 43.566 " />
            <path fill="none" stroke-width="3.0" stroke-linecap="butt" stroke-opacity="1.0" stroke="rgb(0, 0, 0)" stroke-linejoin="round" d=" M 206.949, 138.062 208.886, 136.952 209.752, 133.245 209.591, 126.464 205.764, 120.960 199.991, 113.845 192.314, 107.437 191.353, 106.635 190.443, 105.876 186.821, 103.721 185.016, 102.647 176.512, 98.860 171.433, 96.598 " />
            <path fill="none" stroke-width="3.0" stroke-linecap="butt" stroke-opacity="1.0" stroke="rgb(0, 0, 0)" stroke-linejoin="round" d=" M 199.281, 123.110 207.187, 129.233 208.662, 130.376 208.886, 136.952 " />
            <path fill="none" stroke-width="3.0" stroke-linecap="butt" stroke-opacity="1.0" stroke="rgb(0, 0, 0)" stroke-linejoin="round" d=" M 44.237, 93.488 43.578, 93.987 38.117, 98.065 32.056, 104.036 31.619, 107.696 " />
            <path fill="none" stroke-width="3.0" stroke-linecap="butt" stroke-opacity="1.0" stroke="rgb(0, 0, 0)" stroke-linejoin="round" d=" M 209.591, 126.464 201.799, 120.196 199.325, 118.205 " />
            <path fill="none" stroke-width="3.0" stroke-linecap="butt" stroke-opacity="1.0" stroke="rgb(0, 0, 0)" stroke-linejoin="round" d=" M 59.848, 82.836 59.001, 84.143 " />
            <path fill="none" stroke-width="3.0" stroke-linecap="butt" stroke-opacity="1.0" stroke="rgb(0, 0, 0)" stroke-linejoin="round" d=" M 107.247, 78.329 107.558, 77.280 108.667, 73.541 " />
            <path fill="none" stroke-width="3.0" stroke-linecap="butt" stroke-opacity="1.0" stroke="rgb(0, 0, 0)" stroke-linejoin="round" d=" M 108.710, 73.414 110.871, 73.331 " />
            <path fill="none" stroke-width="3.0" stroke-linecap="butt" stroke-opacity="1.0" stroke="rgb(0, 0, 0)" stroke-linejoin="round" d=" M 196.999, 125.564 201.555, 128.979 " />
        </g>
    </g>
</svg>
