<?xml version='1.0' encoding='ascii'?>
<svg xmlns="http://www.w3.org/2000/svg" version="1.1" width="250" height="250">
    <g id="ViewLayer_LineSet" xmlns:inkscape="http://www.inkscape.org/namespaces/inkscape" inkscape:groupmode="lineset" inkscape:label="ViewLayer_LineSet">
        <g xmlns:inkscape="http://www.inkscape.org/namespaces/inkscape" inkscape:groupmode="layer" id="strokes" inkscape:label="strokes">
            <path fill="none" stroke-width="3.0" stroke-linecap="butt" stroke-opacity="1.0" stroke="rgb(0, 0, 0)" stroke-linejoin="round" d=" M 105.108, 213.164 108.400, 214.057 114.490, 215.526 118.485, 216.236 122.845, 216.682 127.376, 216.843 131.876, 216.710 136.143, 216.292 136.348, 216.256 139.990, 215.609 146.755, 214.185 151.576, 212.832 160.668, 208.977 165.517, 206.198 170.357, 202.900 174.653, 199.778 178.931, 195.779 182.060, 192.632 185.577, 188.450 188.981, 183.535 190.032, 181.911 192.462, 177.724 194.602, 173.312 196.358, 168.866 197.179, 166.630 197.678, 164.973 198.817, 161.187 199.935, 155.748 200.563, 151.078 200.868, 146.832 200.914, 140.365 200.495, 136.211 " />
            <path fill="none" stroke-width="3.0" stroke-linecap="butt" stroke-opacity="1.0" stroke="rgb(0, 0, 0)" stroke-linejoin="round" d=" M 56.005, 158.602 58.155, 167.071 62.160, 176.234 62.716, 177.506 63.666, 178.968 " />
            <path fill="none" stroke-width="3.0" stroke-linecap="butt" stroke-opacity="1.0" stroke="rgb(0, 0, 0)" stroke-linejoin="round" d=" M 199.069, 116.760 200.380, 120.389 201.452, 123.905 202.282, 127.154 202.888, 129.988 203.298, 132.274 203.544, 133.901 203.649, 134.788 203.659, 135.132 203.452, 134.178 203.116, 132.695 202.577, 130.502 201.799, 127.701 200.759, 124.429 199.452, 120.845 197.939, 117.208 197.926, 117.179 196.355, 113.566 194.932, 110.291 194.850, 110.103 " />
            <path fill="none" stroke-width="3.0" stroke-linecap="butt" stroke-opacity="1.0" stroke="rgb(0, 0, 0)" stroke-linejoin="round" d=" M 196.078, 109.835 194.932, 110.291 " />
            <path fill="none" stroke-width="3.0" stroke-linecap="butt" stroke-opacity="1.0" stroke="rgb(0, 0, 0)" stroke-linejoin="round" d=" M 197.939, 117.208 199.069, 116.760 197.584, 113.230 196.078, 109.835 195.929, 109.528 " />
            <path fill="none" stroke-width="3.0" stroke-linecap="butt" stroke-opacity="1.0" stroke="rgb(0, 0, 0)" stroke-linejoin="round" d=" M 136.348, 216.256 137.414, 216.911 142.597, 217.641 145.405, 217.895 149.952, 217.218 152.046, 216.914 156.810, 215.065 165.110, 211.675 174.276, 207.676 176.862, 206.547 185.953, 202.379 188.406, 201.254 197.156, 196.414 200.823, 194.385 204.851, 190.204 208.423, 185.892 209.379, 183.815 210.405, 179.426 209.996, 177.781 209.386, 173.843 207.608, 170.578 204.720, 168.078 203.324, 166.981 199.707, 165.327 197.678, 164.973 " />
            <path fill="none" stroke-width="3.0" stroke-linecap="butt" stroke-opacity="1.0" stroke="rgb(0, 0, 0)" stroke-linejoin="round" d=" M 63.666, 178.968 56.322, 178.406 54.641, 178.710 46.935, 180.684 42.063, 183.428 40.736, 184.530 36.890, 188.015 34.407, 191.892 33.608, 194.422 32.964, 199.242 33.392, 202.469 34.603, 208.234 36.428, 211.898 39.250, 216.176 41.345, 219.128 45.706, 224.147 52.918, 231.075 53.724, 231.848 61.336, 238.334 64.986, 241.444 72.807, 247.674 76.422, 250.554 " />
            <path fill="none" stroke-width="3.0" stroke-linecap="butt" stroke-opacity="1.0" stroke="rgb(0, 0, 0)" stroke-linejoin="round" d=" M 121.486, 250.954 123.375, 246.891 124.001, 244.561 124.279, 240.046 123.210, 235.282 122.581, 233.155 119.491, 227.318 114.145, 221.404 113.068, 220.387 106.108, 214.428 105.108, 213.164 " />
            <path fill="none" stroke-width="3.0" stroke-linecap="butt" stroke-opacity="1.0" stroke="rgb(0, 0, 0)" stroke-linejoin="round" d=" M 126.338, 181.902 130.316, 186.891 131.605, 188.115 135.263, 191.587 137.008, 193.247 141.069, 196.223 145.045, 198.393 149.187, 199.848 152.455, 200.697 155.931, 201.044 159.087, 200.753 162.327, 200.403 165.525, 199.235 167.817, 198.363 172.323, 195.364 174.512, 193.220 176.187, 191.414 178.053, 188.324 179.383, 185.593 180.294, 182.488 181.183, 178.963 181.443, 174.685 181.215, 172.573 180.910, 170.298 180.546, 167.967 179.970, 165.687 179.285, 162.979 176.853, 156.695 173.770, 151.158 170.604, 146.225 169.039, 144.101 168.424, 143.316 165.599, 139.705 " />
            <path fill="none" stroke-width="3.0" stroke-linecap="butt" stroke-opacity="1.0" stroke="rgb(0, 0, 0)" stroke-linejoin="round" d=" M 204.710, 34.756 202.880, 31.356 201.658, 28.917 200.756, 27.116 198.098, 22.810 196.431, 21.388 194.735, 21.110 191.435, 22.701 187.925, 25.846 184.900, 31.730 183.406, 41.617 183.248, 42.665 183.333, 48.482 183.518, 52.468 183.485, 52.968 " />
            <path fill="none" stroke-width="3.0" stroke-linecap="butt" stroke-opacity="1.0" stroke="rgb(0, 0, 0)" stroke-linejoin="round" d=" M 194.603, 76.541 196.296, 77.859 201.069, 81.950 203.459, 83.396 205.868, 84.085 208.485, 84.834 210.284, 85.349 215.540, 85.075 219.171, 84.113 220.256, 83.121 221.425, 81.980 220.669, 77.445 220.619, 77.271 218.682, 70.454 217.280, 66.017 " />
            <path fill="none" stroke-width="3.0" stroke-linecap="butt" stroke-opacity="1.0" stroke="rgb(0, 0, 0)" stroke-linejoin="round" d=" M 220.256, 83.121 216.564, 84.107 211.325, 84.385 " />
            <path fill="none" stroke-width="3.0" stroke-linecap="butt" stroke-opacity="1.0" stroke="rgb(0, 0, 0)" stroke-linejoin="round" d=" M 184.492, 54.605 184.992, 54.414 185.893, 54.069 186.092, 54.699 " />
            <path fill="none" stroke-width="3.0" stroke-linecap="butt" stroke-opacity="1.0" stroke="rgb(0, 0, 0)" stroke-linejoin="round" d=" M 171.723, 61.496 170.832, 60.626 169.911, 60.445 " />
            <path fill="none" stroke-width="3.0" stroke-linecap="butt" stroke-opacity="1.0" stroke="rgb(0, 0, 0)" stroke-linejoin="round" d=" M 171.378, 66.651 169.906, 64.908 168.167, 63.179 167.851, 62.865 166.688, 62.286 166.130, 62.511 " />
            <path fill="none" stroke-width="3.0" stroke-linecap="butt" stroke-opacity="1.0" stroke="rgb(0, 0, 0)" stroke-linejoin="round" d=" M 178.166, 118.352 182.256, 116.576 184.661, 115.531 187.500, 114.018 187.793, 113.862 189.853, 112.765 191.146, 112.076 193.164, 111.001 193.209, 110.977 193.335, 110.910 194.850, 110.103 195.929, 109.528 201.623, 106.494 203.897, 104.668 211.447, 98.618 209.580, 94.945 207.213, 92.701 202.936, 88.792 198.071, 86.191 " />
            <path fill="none" stroke-width="3.0" stroke-linecap="butt" stroke-opacity="1.0" stroke="rgb(0, 0, 0)" stroke-linejoin="round" d=" M 50.633, 130.687 47.190, 132.838 42.990, 137.938 39.406, 146.256 38.781, 148.956 37.402, 155.287 38.420, 159.196 46.809, 159.731 50.108, 159.673 56.005, 158.602 65.844, 156.815 68.268, 156.375 77.922, 153.767 87.576, 151.160 93.839, 149.468 95.104, 149.126 104.611, 146.025 114.118, 142.924 120.159, 140.953 127.012, 138.718 136.373, 135.201 138.947, 134.233 148.308, 130.716 149.719, 130.186 155.182, 128.133 " />
            <path fill="none" stroke-width="3.0" stroke-linecap="butt" stroke-opacity="1.0" stroke="rgb(0, 0, 0)" stroke-linejoin="round" d=" M 184.336, 53.493 183.485, 52.968 182.031, 52.069 179.394, 52.742 178.678, 53.079 174.982, 56.075 169.257, 60.715 168.755, 61.001 166.121, 62.504 " />
            <path fill="none" stroke-width="3.0" stroke-linecap="butt" stroke-opacity="1.0" stroke="rgb(0, 0, 0)" stroke-linejoin="round" d=" M 174.982, 56.075 174.295, 56.034 168.755, 61.001 " />
            <path fill="none" stroke-width="3.0" stroke-linecap="butt" stroke-opacity="1.0" stroke="rgb(0, 0, 0)" stroke-linejoin="round" d=" M 191.440, 70.085 191.183, 70.163 " />
            <path fill="none" stroke-width="3.0" stroke-linecap="butt" stroke-opacity="1.0" stroke="rgb(0, 0, 0)" stroke-linejoin="round" d=" M 155.182, 128.133 156.591, 129.298 158.829, 127.702 " />
            <path fill="none" stroke-width="3.0" stroke-linecap="butt" stroke-opacity="1.0" stroke="rgb(0, 0, 0)" stroke-linejoin="round" d=" M 184.869, 81.260 184.126, 82.512 183.799, 83.063 183.675, 83.264 183.664, 83.283 183.359, 83.775 183.062, 84.254 183.050, 84.274 182.224, 85.609 181.855, 86.205 181.768, 86.346 181.302, 87.007 179.117, 90.108 178.661, 90.676 178.092, 91.383 175.799, 94.237 175.353, 94.792 171.532, 100.072 169.555, 103.426 168.754, 104.786 168.588, 105.068 164.951, 111.201 164.726, 111.870 163.346, 115.964 162.525, 118.400 160.038, 123.694 159.159, 126.608 158.829, 127.702 159.083, 126.641 " />
            <path fill="none" stroke-width="3.0" stroke-linecap="butt" stroke-opacity="1.0" stroke="rgb(0, 0, 0)" stroke-linejoin="round" d=" M 156.591, 129.298 165.924, 125.706 175.347, 122.080 177.246, 120.457 178.166, 118.352 178.444, 117.718 179.213, 116.419 180.378, 114.450 181.024, 113.586 183.534, 110.225 184.949, 108.573 185.458, 107.978 186.919, 106.272 187.011, 106.145 187.803, 105.046 189.068, 103.290 189.233, 103.061 190.018, 101.973 190.853, 100.718 191.337, 99.991 191.668, 99.493 193.305, 97.034 195.386, 93.603 196.193, 92.274 197.224, 89.909 197.849, 88.479 198.071, 86.191 198.189, 84.978 197.336, 83.685 187.794, 80.691 185.574, 79.995 185.000, 79.815 " />
            <path fill="none" stroke-width="3.0" stroke-linecap="butt" stroke-opacity="1.0" stroke="rgb(0, 0, 0)" stroke-linejoin="round" d=" M 178.444, 117.718 178.911, 117.148 179.756, 116.121 " />
            <path fill="none" stroke-width="3.0" stroke-linecap="butt" stroke-opacity="1.0" stroke="rgb(0, 0, 0)" stroke-linejoin="round" d=" M 185.000, 79.815 184.869, 81.260 " />
            <path fill="none" stroke-width="3.0" stroke-linecap="butt" stroke-opacity="1.0" stroke="rgb(0, 0, 0)" stroke-linejoin="round" d=" M 197.308, 90.481 197.849, 88.479 " />
            <path fill="none" stroke-width="3.0" stroke-linecap="butt" stroke-opacity="1.0" stroke="rgb(0, 0, 0)" stroke-linejoin="round" d=" M 192.264, 61.173 186.713, 54.735 186.092, 54.699 185.156, 54.644 185.093, 54.640 184.492, 54.605 184.176, 54.586 183.382, 54.539 178.234, 54.237 176.110, 56.141 171.824, 59.982 171.723, 61.496 171.633, 62.838 171.563, 63.878 171.456, 65.483 171.378, 66.651 171.270, 68.265 171.249, 68.574 " />
            <path fill="none" stroke-width="3.0" stroke-linecap="butt" stroke-opacity="1.0" stroke="rgb(0, 0, 0)" stroke-linejoin="round" d=" M 179.904, 75.145 180.190, 75.161 181.681, 75.246 182.355, 75.285 182.578, 75.298 183.217, 75.334 185.253, 75.450 189.067, 72.049 190.889, 70.424 191.183, 70.163 191.397, 69.971 191.646, 69.749 191.707, 69.230 191.777, 68.261 191.994, 65.247 192.283, 61.222 " />
            <path fill="none" stroke-width="3.0" stroke-linecap="butt" stroke-opacity="1.0" stroke="rgb(0, 0, 0)" stroke-linejoin="round" d=" M 218.682, 70.454 217.952, 68.333 216.806, 65.007 215.295, 60.928 " />
            <path fill="none" stroke-width="3.0" stroke-linecap="butt" stroke-opacity="1.0" stroke="rgb(0, 0, 0)" stroke-linejoin="round" d=" M 204.449, 34.727 204.684, 34.753 204.710, 34.756 205.599, 34.852 205.812, 34.929 207.284, 35.458 209.865, 37.790 212.049, 41.329 212.371, 42.457 213.604, 46.772 214.622, 52.248 215.124, 57.389 215.216, 59.298 215.295, 60.928 213.923, 61.598 209.660, 63.036 " />
            <path fill="none" stroke-width="3.0" stroke-linecap="butt" stroke-opacity="1.0" stroke="rgb(0, 0, 0)" stroke-linejoin="round" d=" M 220.619, 77.271 220.465, 74.983 219.351, 69.228 217.705, 62.498 215.735, 54.837 213.783, 45.714 213.293, 43.791 212.371, 42.457 " />
            <path fill="none" stroke-width="3.0" stroke-linecap="butt" stroke-opacity="1.0" stroke="rgb(0, 0, 0)" stroke-linejoin="round" d=" M 202.880, 31.356 203.266, 32.186 204.449, 34.727 202.821, 34.779 198.670, 36.506 " />
            <path fill="none" stroke-width="3.0" stroke-linecap="butt" stroke-opacity="1.0" stroke="rgb(0, 0, 0)" stroke-linejoin="round" d=" M 205.812, 34.929 202.325, 29.901 201.658, 28.917 " />
            <path fill="none" stroke-width="3.0" stroke-linecap="butt" stroke-opacity="1.0" stroke="rgb(0, 0, 0)" stroke-linejoin="round" d=" M 215.332, 60.101 215.124, 57.389 " />
            <path fill="none" stroke-width="3.0" stroke-linecap="butt" stroke-opacity="1.0" stroke="rgb(0, 0, 0)" stroke-linejoin="round" d=" M 166.983, 63.186 166.130, 62.511 166.121, 62.504 158.281, 56.295 156.098, 54.566 147.256, 49.895 144.353, 48.361 143.269, 47.874 133.763, 44.771 129.623, 43.419 119.688, 42.281 116.293, 41.892 106.357, 43.023 106.187, 43.042 104.240, 43.264 " />
            <path fill="none" stroke-width="3.0" stroke-linecap="butt" stroke-opacity="1.0" stroke="rgb(0, 0, 0)" stroke-linejoin="round" d=" M 189.067, 72.049 192.968, 78.374 197.228, 82.755 198.259, 83.397 203.510, 85.212 208.048, 84.952 208.485, 84.834 " />
            <path fill="none" stroke-width="3.0" stroke-linecap="butt" stroke-opacity="1.0" stroke="rgb(0, 0, 0)" stroke-linejoin="round" d=" M 210.594, 41.520 206.840, 43.017 202.170, 45.368 " />
            <path fill="none" stroke-width="3.0" stroke-linecap="butt" stroke-opacity="1.0" stroke="rgb(0, 0, 0)" stroke-linejoin="round" d=" M 50.984, 105.046 50.268, 107.474 48.784, 109.043 48.723, 109.346 49.236, 119.333 49.749, 129.320 49.826, 130.817 50.633, 130.687 55.863, 129.843 55.990, 129.822 56.894, 129.677 57.172, 129.601 66.823, 126.984 71.527, 125.708 81.071, 122.721 90.614, 119.733 92.623, 119.105 102.091, 115.887 111.560, 112.669 117.484, 110.655 126.883, 107.240 136.282, 103.825 142.309, 101.635 151.625, 97.998 153.004, 97.459 156.189, 96.215 163.294, 93.441 172.469, 89.465 175.753, 88.042 177.737, 87.183 179.409, 86.263 180.388, 85.725 181.188, 85.285 181.285, 85.232 183.062, 84.254 " />
            <path fill="none" stroke-width="3.0" stroke-linecap="butt" stroke-opacity="1.0" stroke="rgb(0, 0, 0)" stroke-linejoin="round" d=" M 177.585, 71.358 177.591, 71.379 176.932, 71.567 175.237, 72.052 174.468, 72.272 172.223, 72.913 171.036, 73.253 168.913, 73.860 " />
            <path fill="none" stroke-width="3.0" stroke-linecap="butt" stroke-opacity="1.0" stroke="rgb(0, 0, 0)" stroke-linejoin="round" d=" M 181.292, 85.256 183.050, 84.274 " />
            <path fill="none" stroke-width="3.0" stroke-linecap="butt" stroke-opacity="1.0" stroke="rgb(0, 0, 0)" stroke-linejoin="round" d=" M 60.382, 129.083 70.036, 126.475 74.341, 125.312 83.886, 122.331 93.432, 119.350 94.294, 119.080 103.763, 115.864 113.232, 112.649 117.716, 111.126 127.114, 107.709 136.512, 104.292 141.098, 102.625 150.411, 98.982 152.241, 98.266 154.679, 97.312 160.930, 94.867 170.101, 90.882 174.686, 88.890 175.932, 88.204 179.439, 86.275 180.497, 85.693 181.202, 85.305 181.292, 85.256 " />
            <path fill="none" stroke-width="3.0" stroke-linecap="butt" stroke-opacity="1.0" stroke="rgb(0, 0, 0)" stroke-linejoin="round" d=" M 56.894, 129.677 60.382, 129.083 " />
            <path fill="none" stroke-width="3.0" stroke-linecap="butt" stroke-opacity="1.0" stroke="rgb(0, 0, 0)" stroke-linejoin="round" d=" M 48.723, 109.346 55.351, 107.650 " />
            <path fill="none" stroke-width="3.0" stroke-linecap="butt" stroke-opacity="1.0" stroke="rgb(0, 0, 0)" stroke-linejoin="round" d=" M 177.591, 71.379 177.494, 71.371 176.753, 71.310 176.717, 71.307 176.114, 71.257 176.069, 71.253 175.415, 71.199 175.355, 71.194 174.916, 71.158 174.606, 71.132 173.622, 71.051 173.389, 71.032 173.349, 71.028 " />
            <path fill="none" stroke-width="3.0" stroke-linecap="butt" stroke-opacity="1.0" stroke="rgb(0, 0, 0)" stroke-linejoin="round" d=" M 87.383, 49.220 85.887, 50.170 77.446, 55.532 77.149, 55.720 70.112, 62.825 67.663, 65.298 62.185, 73.663 59.779, 77.336 55.809, 86.514 54.374, 89.830 52.163, 99.583 51.184, 103.902 50.984, 105.046 50.533, 107.619 " />
            <path fill="none" stroke-width="3.0" stroke-linecap="butt" stroke-opacity="1.0" stroke="rgb(0, 0, 0)" stroke-linejoin="round" d=" M 104.240, 43.264 98.877, 44.721 92.373, 47.019 87.383, 49.220 " />
            <path fill="none" stroke-width="3.0" stroke-linecap="butt" stroke-opacity="1.0" stroke="rgb(0, 0, 0)" stroke-linejoin="round" d=" M 106.187, 43.042 104.526, 41.461 100.992, 39.453 99.569, 39.452 93.759, 40.185 88.681, 43.301 87.672, 44.161 86.181, 47.944 85.887, 50.170 " />
            <path fill="none" stroke-width="3.0" stroke-linecap="butt" stroke-opacity="1.0" stroke="rgb(0, 0, 0)" stroke-linejoin="round" d=" M 157.951, 121.151 152.820, 123.067 143.452, 126.565 137.493, 128.790 136.851, 129.029 129.822, 131.654 125.086, 133.422 115.586, 136.546 106.086, 139.669 96.587, 142.792 93.243, 143.892 91.978, 144.308 " />
            <path fill="none" stroke-width="3.0" stroke-linecap="butt" stroke-opacity="1.0" stroke="rgb(0, 0, 0)" stroke-linejoin="round" d=" M 46.809, 159.731 55.870, 158.070 65.519, 156.300 75.171, 153.682 84.822, 151.064 93.395, 148.738 93.684, 148.643 103.190, 145.539 112.696, 142.434 120.813, 139.783 126.667, 137.871 136.029, 134.356 138.755, 133.333 148.117, 129.819 148.348, 129.733 154.378, 127.469 159.652, 125.490 " />
            <path fill="none" stroke-width="3.0" stroke-linecap="butt" stroke-opacity="1.0" stroke="rgb(0, 0, 0)" stroke-linejoin="round" d=" M 178.911, 117.148 181.906, 115.851 186.717, 113.768 187.260, 113.480 187.538, 113.333 189.621, 112.230 190.900, 111.552 192.930, 110.477 193.094, 110.390 194.624, 109.580 195.683, 109.019 203.897, 104.668 " />
            <path fill="none" stroke-width="3.0" stroke-linecap="butt" stroke-opacity="1.0" stroke="rgb(0, 0, 0)" stroke-linejoin="round" d=" M 179.394, 52.742 175.270, 56.092 169.911, 60.445 " />
            <path fill="none" stroke-width="3.0" stroke-linecap="butt" stroke-opacity="1.0" stroke="rgb(0, 0, 0)" stroke-linejoin="round" d=" M 185.574, 79.995 182.668, 75.743 182.435, 75.402 182.355, 75.285 " />
            <path fill="none" stroke-width="3.0" stroke-linecap="butt" stroke-opacity="1.0" stroke="rgb(0, 0, 0)" stroke-linejoin="round" d=" M 182.668, 75.743 183.217, 75.334 " />
            <path fill="none" stroke-width="3.0" stroke-linecap="butt" stroke-opacity="1.0" stroke="rgb(0, 0, 0)" stroke-linejoin="round" d=" M 191.397, 69.971 191.440, 70.085 190.889, 70.424 " />
            <path fill="none" stroke-width="3.0" stroke-linecap="butt" stroke-opacity="1.0" stroke="rgb(0, 0, 0)" stroke-linejoin="round" d=" M 200.495, 136.211 203.659, 135.132 " />
        </g>
    </g>
</svg>
