<?xml version='1.0' encoding='ascii'?>
<svg xmlns="http://www.w3.org/2000/svg" version="1.1" width="250" height="250">
    <g id="ViewLayer_LineSet" xmlns:inkscape="http://www.inkscape.org/namespaces/inkscape" inkscape:groupmode="lineset" inkscape:label="ViewLayer_LineSet">
        <g xmlns:inkscape="http://www.inkscape.org/namespaces/inkscape" inkscape:groupmode="layer" id="strokes" inkscape:label="strokes">
            <path fill="none" stroke-width="3.0" stroke-linecap="butt" stroke-opacity="1.0" stroke="rgb(0, 0, 0)" stroke-linejoin="round" d=" M 164.886, 198.441 166.812, 197.038 173.760, 189.846 174.433, 189.149 176.430, 186.281 182.059, 178.016 182.531, 177.323 " />
            <path fill="none" stroke-width="3.0" stroke-linecap="butt" stroke-opacity="1.0" stroke="rgb(0, 0, 0)" stroke-linejoin="round" d=" M 59.495, 98.480 59.460, 98.524 57.979, 100.386 53.744, 107.499 49.935, 116.172 49.330, 118.131 48.396, 121.154 48.292, 121.489 47.966, 122.546 47.267, 124.808 46.014, 130.957 45.470, 137.330 45.244, 141.835 45.474, 147.482 45.953, 151.988 46.814, 156.621 47.661, 160.577 48.947, 164.885 50.611, 169.354 52.114, 172.740 52.580, 173.789 54.769, 178.001 57.084, 181.803 59.426, 185.021 62.358, 188.919 65.343, 192.194 69.456, 196.282 72.901, 198.982 76.478, 201.730 78.079, 202.960 84.045, 206.527 89.781, 209.127 93.591, 210.781 98.500, 212.190 99.099, 212.333 " />
            <path fill="none" stroke-width="3.0" stroke-linecap="butt" stroke-opacity="1.0" stroke="rgb(0, 0, 0)" stroke-linejoin="round" d=" M 189.661, 124.830 188.849, 121.034 188.635, 120.480 " />
            <path fill="none" stroke-width="3.0" stroke-linecap="butt" stroke-opacity="1.0" stroke="rgb(0, 0, 0)" stroke-linejoin="round" d=" M 77.110, 150.171 77.664, 151.571 78.529, 152.883 79.028, 153.640 80.923, 155.299 83.118, 156.529 85.160, 156.973 87.255, 156.901 89.629, 156.075 91.678, 154.746 93.228, 152.900 93.943, 151.584 " />
            <path fill="none" stroke-width="3.0" stroke-linecap="butt" stroke-opacity="1.0" stroke="rgb(0, 0, 0)" stroke-linejoin="round" d=" M 117.431, 100.960 117.718, 101.925 118.028, 102.968 118.481, 106.357 118.521, 110.180 118.537, 110.249 117.418, 118.664 117.380, 118.794 117.347, 118.909 116.192, 122.876 114.687, 127.165 112.932, 131.162 110.990, 134.674 108.930, 137.527 108.299, 138.141 107.914, 138.515 106.821, 139.578 104.736, 140.725 102.746, 140.909 101.451, 140.346 100.926, 140.117 99.348, 138.382 98.556, 136.756 98.304, 136.240 98.082, 135.784 97.189, 132.445 96.716, 128.523 96.694, 124.209 97.130, 119.709 97.987, 115.298 98.090, 114.940 98.135, 114.784 99.189, 111.136 100.711, 107.234 102.490, 103.734 104.458, 100.759 105.429, 99.663 " />
            <path fill="none" stroke-width="3.0" stroke-linecap="butt" stroke-opacity="1.0" stroke="rgb(0, 0, 0)" stroke-linejoin="round" d=" M 77.311, 118.632 76.333, 122.925 76.194, 123.450 75.249, 127.034 74.202, 130.351 74.073, 130.759 74.071, 130.765 72.812, 133.912 71.472, 136.335 70.069, 137.908 68.906, 138.432 68.630, 138.556 67.218, 138.551 65.843, 137.015 64.635, 134.913 63.659, 132.055 62.997, 128.586 62.915, 127.458 62.881, 126.984 62.713, 124.679 62.851, 120.524 63.135, 118.422 63.410, 116.376 64.277, 112.379 65.395, 108.536 66.719, 104.985 67.262, 103.834 67.504, 103.318 68.197, 101.847 69.770, 99.230 70.651, 98.128 " />
            <path fill="none" stroke-width="3.0" stroke-linecap="butt" stroke-opacity="1.0" stroke="rgb(0, 0, 0)" stroke-linejoin="round" d=" M 67.218, 138.551 70.423, 139.947 " />
            <path fill="none" stroke-width="3.0" stroke-linecap="butt" stroke-opacity="1.0" stroke="rgb(0, 0, 0)" stroke-linejoin="round" d=" M 77.854, 97.901 77.875, 97.938 78.527, 100.241 78.887, 103.152 78.997, 106.639 78.821, 108.762 78.797, 109.057 78.688, 110.379 " />
            <path fill="none" stroke-width="3.0" stroke-linecap="butt" stroke-opacity="1.0" stroke="rgb(0, 0, 0)" stroke-linejoin="round" d=" M 80.418, 120.593 77.311, 118.632 78.135, 114.429 78.688, 110.379 81.755, 112.432 " />
            <path fill="none" stroke-width="3.0" stroke-linecap="butt" stroke-opacity="1.0" stroke="rgb(0, 0, 0)" stroke-linejoin="round" d=" M 107.341, 201.040 103.440, 205.278 100.286, 210.188 99.099, 212.333 97.836, 214.614 96.377, 218.910 96.193, 219.585 95.327, 224.060 95.209, 227.789 96.046, 231.664 97.168, 233.781 98.227, 235.779 102.939, 238.905 106.919, 240.603 116.426, 242.556 122.066, 243.221 128.481, 243.549 136.929, 243.471 143.347, 243.094 147.453, 242.993 153.854, 242.190 159.685, 240.315 164.499, 238.370 168.494, 236.593 172.535, 232.505 174.528, 228.787 175.462, 227.113 176.662, 223.128 176.849, 218.545 175.867, 213.646 173.131, 207.699 169.854, 203.015 169.324, 202.362 164.886, 198.441 164.442, 198.049 " />
            <path fill="none" stroke-width="3.0" stroke-linecap="butt" stroke-opacity="1.0" stroke="rgb(0, 0, 0)" stroke-linejoin="round" d=" M 76.478, 201.730 75.850, 204.935 75.339, 208.083 75.459, 213.267 75.502, 216.236 76.153, 218.656 78.184, 223.697 79.453, 225.897 82.889, 229.490 87.190, 232.285 91.412, 233.556 95.881, 233.793 97.168, 233.781 " />
            <path fill="none" stroke-width="3.0" stroke-linecap="butt" stroke-opacity="1.0" stroke="rgb(0, 0, 0)" stroke-linejoin="round" d=" M 182.531, 177.323 186.107, 178.957 188.305, 179.757 192.698, 180.992 196.741, 181.566 200.703, 181.445 204.004, 180.651 205.328, 180.297 207.766, 179.336 210.165, 177.941 212.764, 175.914 215.145, 173.424 217.112, 170.352 218.467, 167.301 219.250, 164.610 219.620, 161.962 219.507, 157.315 218.678, 153.409 217.150, 149.599 214.892, 145.615 210.881, 140.750 209.404, 138.987 207.048, 136.557 206.637, 136.133 205.283, 134.737 201.192, 131.038 196.836, 128.029 192.073, 125.680 189.661, 124.830 " />
            <path fill="none" stroke-width="3.0" stroke-linecap="butt" stroke-opacity="1.0" stroke="rgb(0, 0, 0)" stroke-linejoin="round" d=" M 47.966, 122.546 44.916, 124.144 40.738, 127.147 36.803, 130.802 32.815, 134.995 28.984, 139.879 26.691, 143.884 25.137, 147.715 24.293, 151.672 24.234, 155.129 24.238, 155.944 24.645, 158.998 25.616, 161.905 27.096, 164.692 29.060, 167.339 31.391, 169.500 34.004, 171.310 36.840, 172.689 39.935, 173.597 43.324, 174.068 47.333, 173.859 51.350, 173.004 52.114, 172.740 " />
            <path fill="none" stroke-width="3.0" stroke-linecap="butt" stroke-opacity="1.0" stroke="rgb(0, 0, 0)" stroke-linejoin="round" d=" M 116.269, 70.678 119.254, 68.387 119.518, 68.184 119.676, 67.864 119.713, 67.789 121.371, 64.408 122.356, 61.821 122.337, 58.138 121.320, 55.465 119.415, 51.758 117.661, 50.478 " />
            <path fill="none" stroke-width="3.0" stroke-linecap="butt" stroke-opacity="1.0" stroke="rgb(0, 0, 0)" stroke-linejoin="round" d=" M 56.091, 53.964 55.996, 54.232 54.476, 58.526 52.836, 64.613 52.267, 72.459 52.557, 73.728 54.209, 79.011 56.699, 80.263 60.022, 81.032 61.654, 81.409 61.844, 81.453 65.729, 81.911 71.740, 80.851 77.305, 79.428 82.763, 77.249 82.831, 77.222 " />
            <path fill="none" stroke-width="3.0" stroke-linecap="butt" stroke-opacity="1.0" stroke="rgb(0, 0, 0)" stroke-linejoin="round" d=" M 33.805, 110.689 31.601, 106.131 32.782, 104.974 37.483, 100.368 41.874, 99.238 49.844, 97.187 53.177, 96.329 56.742, 96.200 59.045, 96.117 61.444, 96.030 71.438, 95.667 73.701, 95.585 75.904, 95.505 75.911, 95.505 79.966, 95.358 89.936, 96.132 99.906, 96.906 107.700, 97.512 113.690, 97.977 116.244, 98.423 116.296, 98.432 126.146, 100.153 135.997, 101.874 145.848, 103.595 147.688, 103.916 157.348, 106.501 167.008, 109.085 176.669, 111.670 177.106, 111.787 178.199, 112.241 178.782, 112.483 183.086, 114.269 " />
            <path fill="none" stroke-width="3.0" stroke-linecap="butt" stroke-opacity="1.0" stroke="rgb(0, 0, 0)" stroke-linejoin="round" d=" M 206.637, 136.133 206.688, 136.103 206.320, 129.706 200.065, 124.906 197.931, 123.268 " />
            <path fill="none" stroke-width="3.0" stroke-linecap="butt" stroke-opacity="1.0" stroke="rgb(0, 0, 0)" stroke-linejoin="round" d=" M 39.002, 106.775 40.873, 105.123 44.971, 101.504 54.732, 99.329 58.388, 98.515 " />
            <path fill="none" stroke-width="3.0" stroke-linecap="butt" stroke-opacity="1.0" stroke="rgb(0, 0, 0)" stroke-linejoin="round" d=" M 38.856, 115.595 47.136, 121.014 48.292, 121.489 " />
            <path fill="none" stroke-width="3.0" stroke-linecap="butt" stroke-opacity="1.0" stroke="rgb(0, 0, 0)" stroke-linejoin="round" d=" M 55.975, 98.591 46.218, 100.780 45.628, 100.912 41.088, 101.931 39.811, 102.217 33.802, 107.768 34.550, 109.359 " />
            <path fill="none" stroke-width="3.0" stroke-linecap="butt" stroke-opacity="1.0" stroke="rgb(0, 0, 0)" stroke-linejoin="round" d=" M 55.975, 98.591 58.388, 98.515 59.412, 98.483 59.495, 98.480 61.263, 98.424 70.651, 98.128 76.289, 97.950 77.854, 97.901 79.144, 97.860 81.512, 97.785 91.482, 98.568 101.451, 99.351 105.429, 99.663 110.271, 100.044 113.444, 100.293 117.431, 100.960 117.974, 101.051 127.836, 102.703 136.348, 104.129 146.211, 105.780 146.758, 105.872 156.426, 108.429 166.093, 110.985 175.715, 113.530 179.331, 115.011 184.454, 117.109 " />
            <path fill="none" stroke-width="3.0" stroke-linecap="butt" stroke-opacity="1.0" stroke="rgb(0, 0, 0)" stroke-linejoin="round" d=" M 41.011, 92.724 36.207, 96.650 33.039, 99.872 31.227, 102.729 30.056, 105.773 30.049, 108.245 30.513, 110.422 34.841, 114.585 37.521, 116.060 38.856, 115.595 38.875, 115.588 40.783, 114.921 42.034, 114.068 43.640, 112.972 45.226, 107.889 " />
            <path fill="none" stroke-width="3.0" stroke-linecap="butt" stroke-opacity="1.0" stroke="rgb(0, 0, 0)" stroke-linejoin="round" d=" M 33.245, 112.014 30.513, 110.422 " />
            <path fill="none" stroke-width="3.0" stroke-linecap="butt" stroke-opacity="1.0" stroke="rgb(0, 0, 0)" stroke-linejoin="round" d=" M 43.640, 112.972 39.910, 110.590 " />
            <path fill="none" stroke-width="3.0" stroke-linecap="butt" stroke-opacity="1.0" stroke="rgb(0, 0, 0)" stroke-linejoin="round" d=" M 40.787, 108.265 39.910, 110.590 36.488, 111.553 " />
            <path fill="none" stroke-width="3.0" stroke-linecap="butt" stroke-opacity="1.0" stroke="rgb(0, 0, 0)" stroke-linejoin="round" d=" M 57.452, 83.142 50.499, 86.465 42.152, 91.972 41.011, 92.724 47.270, 88.652 48.578, 87.945 57.452, 83.142 59.092, 82.466 61.654, 81.409 " />
            <path fill="none" stroke-width="3.0" stroke-linecap="butt" stroke-opacity="1.0" stroke="rgb(0, 0, 0)" stroke-linejoin="round" d=" M 47.270, 88.652 49.699, 87.660 49.805, 87.617 53.152, 86.251 55.741, 85.194 57.703, 84.606 67.367, 81.711 77.316, 80.701 78.557, 80.575 80.460, 80.382 81.802, 80.347 87.694, 80.193 89.000, 80.250 89.615, 80.277 " />
            <path fill="none" stroke-width="3.0" stroke-linecap="butt" stroke-opacity="1.0" stroke="rgb(0, 0, 0)" stroke-linejoin="round" d=" M 179.331, 115.011 180.013, 116.680 182.550, 117.877 183.031, 118.104 183.822, 118.439 188.635, 120.480 196.877, 123.975 197.007, 123.888 197.931, 123.268 198.717, 122.740 199.081, 122.496 199.333, 121.399 199.916, 118.862 197.013, 114.299 192.330, 109.766 190.517, 108.011 183.529, 102.971 182.960, 102.561 178.752, 99.434 177.585, 98.568 176.743, 97.942 171.818, 95.032 168.209, 92.899 161.190, 89.962 158.222, 88.720 157.028, 88.220 147.483, 85.237 144.319, 84.249 134.706, 81.495 131.527, 80.585 121.669, 78.905 118.669, 78.393 109.260, 76.859 107.479, 76.569 " />
            <path fill="none" stroke-width="3.0" stroke-linecap="butt" stroke-opacity="1.0" stroke="rgb(0, 0, 0)" stroke-linejoin="round" d=" M 102.743, 81.299 107.731, 81.814 111.446, 82.198 112.347, 82.419 122.060, 84.800 128.094, 86.279 137.698, 89.065 142.194, 90.369 142.495, 90.457 151.821, 94.064 155.332, 95.422 164.490, 99.438 166.481, 100.311 174.850, 104.382 181.301, 107.992 184.819, 110.631 186.374, 111.797 187.452, 113.501 187.815, 114.075 188.261, 114.780 188.480, 116.306 188.627, 117.337 187.656, 117.955 187.211, 118.238 186.092, 118.951 " />
            <path fill="none" stroke-width="3.0" stroke-linecap="butt" stroke-opacity="1.0" stroke="rgb(0, 0, 0)" stroke-linejoin="round" d=" M 99.116, 77.946 100.277, 76.285 102.912, 72.516 103.637, 70.030 103.966, 68.899 104.313, 67.712 104.549, 66.900 104.985, 65.405 105.250, 64.499 105.331, 64.220 105.867, 57.800 105.854, 55.691 105.847, 54.699 105.838, 53.268 105.836, 53.015 " />
            <path fill="none" stroke-width="3.0" stroke-linecap="butt" stroke-opacity="1.0" stroke="rgb(0, 0, 0)" stroke-linejoin="round" d=" M 76.872, 72.675 80.421, 75.007 83.060, 76.292 83.310, 76.413 84.385, 76.937 85.574, 77.516 93.093, 79.088 99.116, 77.946 99.211, 78.060 100.321, 79.392 101.984, 80.698 102.315, 80.803 103.437, 81.161 " />
            <path fill="none" stroke-width="3.0" stroke-linecap="butt" stroke-opacity="1.0" stroke="rgb(0, 0, 0)" stroke-linejoin="round" d=" M 54.209, 79.011 53.887, 77.640 " />
            <path fill="none" stroke-width="3.0" stroke-linecap="butt" stroke-opacity="1.0" stroke="rgb(0, 0, 0)" stroke-linejoin="round" d=" M 79.894, 75.517 77.629, 73.985 76.872, 72.675 72.526, 74.977 66.649, 77.394 61.795, 78.299 59.023, 78.815 53.887, 77.640 52.267, 72.459 " />
            <path fill="none" stroke-width="3.0" stroke-linecap="butt" stroke-opacity="1.0" stroke="rgb(0, 0, 0)" stroke-linejoin="round" d=" M 110.670, 60.415 110.898, 60.094 110.952, 60.018 111.192, 59.681 114.185, 55.477 114.492, 55.036 117.661, 50.478 118.863, 48.750 122.532, 43.096 122.834, 41.987 124.075, 37.436 124.125, 34.270 122.942, 32.016 119.462, 27.747 114.187, 25.297 111.253, 24.178 105.514, 23.059 103.084, 22.794 101.129, 22.581 " />
            <path fill="none" stroke-width="3.0" stroke-linecap="butt" stroke-opacity="1.0" stroke="rgb(0, 0, 0)" stroke-linejoin="round" d=" M 55.996, 54.232 53.313, 50.406 50.321, 45.332 48.898, 39.915 49.369, 34.397 53.722, 30.178 60.761, 26.634 66.454, 25.016 70.768, 24.124 73.359, 20.122 77.249, 14.928 83.328, 9.135 88.737, 6.439 93.351, 8.473 97.621, 13.700 99.840, 18.667 101.129, 22.581 " />
            <path fill="none" stroke-width="3.0" stroke-linecap="butt" stroke-opacity="1.0" stroke="rgb(0, 0, 0)" stroke-linejoin="round" d=" M 108.969, 56.105 107.674, 54.584 107.175, 53.997 105.919, 53.076 105.836, 53.015 106.006, 52.868 106.794, 52.186 110.364, 49.093 110.954, 48.482 115.817, 43.455 116.516, 42.364 119.655, 37.462 121.331, 31.467 117.926, 27.281 111.253, 24.178 " />
            <path fill="none" stroke-width="3.0" stroke-linecap="butt" stroke-opacity="1.0" stroke="rgb(0, 0, 0)" stroke-linejoin="round" d=" M 103.084, 22.794 102.169, 20.451 99.686, 15.616 98.262, 13.324 94.380, 8.581 89.677, 6.510 88.737, 6.439 " />
            <path fill="none" stroke-width="3.0" stroke-linecap="butt" stroke-opacity="1.0" stroke="rgb(0, 0, 0)" stroke-linejoin="round" d=" M 53.313, 50.406 56.091, 53.964 " />
            <path fill="none" stroke-width="3.0" stroke-linecap="butt" stroke-opacity="1.0" stroke="rgb(0, 0, 0)" stroke-linejoin="round" d=" M 191.355, 104.923 188.456, 95.353 186.357, 88.422 185.352, 87.351 184.144, 83.006 179.297, 74.259 178.035, 71.981 171.506, 64.406 170.392, 63.113 164.713, 57.616 156.755, 51.559 156.400, 51.289 149.181, 47.438 142.919, 45.275 138.129, 43.713 137.100, 43.378 130.653, 42.227 126.612, 42.053 124.298, 41.953 122.834, 41.987 " />
            <path fill="none" stroke-width="3.0" stroke-linecap="butt" stroke-opacity="1.0" stroke="rgb(0, 0, 0)" stroke-linejoin="round" d=" M 79.894, 75.517 81.742, 76.590 82.781, 77.193 82.831, 77.222 83.399, 77.552 84.578, 78.237 84.769, 78.348 87.800, 79.554 89.473, 80.220 89.615, 80.277 90.219, 80.517 90.791, 80.745 93.840, 81.405 97.846, 82.273 100.978, 81.650 102.743, 81.299 103.437, 81.161 103.622, 80.895 104.356, 79.845 106.669, 76.537 107.114, 75.900 107.378, 75.522 108.681, 71.646 108.821, 71.230 109.217, 69.154 109.482, 67.763 109.591, 67.195 110.239, 63.793 110.670, 60.415 110.746, 59.815 110.774, 59.598 110.849, 59.003 110.889, 58.690 " />
            <path fill="none" stroke-width="3.0" stroke-linecap="butt" stroke-opacity="1.0" stroke="rgb(0, 0, 0)" stroke-linejoin="round" d=" M 186.650, 101.923 183.072, 98.923 174.818, 95.190 166.798, 91.562 161.190, 89.962 " />
            <path fill="none" stroke-width="3.0" stroke-linecap="butt" stroke-opacity="1.0" stroke="rgb(0, 0, 0)" stroke-linejoin="round" d=" M 121.266, 67.880 119.713, 67.789 " />
            <path fill="none" stroke-width="3.0" stroke-linecap="butt" stroke-opacity="1.0" stroke="rgb(0, 0, 0)" stroke-linejoin="round" d=" M 121.266, 67.880 131.145, 69.434 141.023, 70.989 145.033, 71.620 " />
            <path fill="none" stroke-width="3.0" stroke-linecap="butt" stroke-opacity="1.0" stroke="rgb(0, 0, 0)" stroke-linejoin="round" d=" M 138.129, 43.713 137.563, 42.950 134.226, 41.559 130.169, 41.109 127.002, 41.776 126.612, 42.053 " />
            <path fill="none" stroke-width="3.0" stroke-linecap="butt" stroke-opacity="1.0" stroke="rgb(0, 0, 0)" stroke-linejoin="round" d=" M 207.048, 136.557 208.937, 135.452 209.803, 131.745 209.645, 124.856 205.817, 119.361 200.040, 112.259 192.401, 105.806 191.355, 104.923 190.491, 104.194 186.650, 101.923 185.061, 100.984 176.362, 97.074 171.818, 95.032 " />
            <path fill="none" stroke-width="3.0" stroke-linecap="butt" stroke-opacity="1.0" stroke="rgb(0, 0, 0)" stroke-linejoin="round" d=" M 199.333, 121.399 207.198, 127.575 208.716, 128.767 208.937, 135.452 " />
            <path fill="none" stroke-width="3.0" stroke-linecap="butt" stroke-opacity="1.0" stroke="rgb(0, 0, 0)" stroke-linejoin="round" d=" M 44.425, 91.680 43.564, 92.329 38.101, 96.394 32.038, 102.476 31.601, 106.131 " />
            <path fill="none" stroke-width="3.0" stroke-linecap="butt" stroke-opacity="1.0" stroke="rgb(0, 0, 0)" stroke-linejoin="round" d=" M 209.645, 124.856 201.894, 118.538 199.378, 116.487 " />
            <path fill="none" stroke-width="3.0" stroke-linecap="butt" stroke-opacity="1.0" stroke="rgb(0, 0, 0)" stroke-linejoin="round" d=" M 60.022, 81.032 59.092, 82.466 " />
            <path fill="none" stroke-width="3.0" stroke-linecap="butt" stroke-opacity="1.0" stroke="rgb(0, 0, 0)" stroke-linejoin="round" d=" M 107.259, 76.561 107.486, 75.798 108.722, 71.645 " />
            <path fill="none" stroke-width="3.0" stroke-linecap="butt" stroke-opacity="1.0" stroke="rgb(0, 0, 0)" stroke-linejoin="round" d=" M 108.681, 71.646 108.722, 71.645 110.889, 71.582 " />
            <path fill="none" stroke-width="3.0" stroke-linecap="butt" stroke-opacity="1.0" stroke="rgb(0, 0, 0)" stroke-linejoin="round" d=" M 197.007, 123.888 201.605, 127.380 " />
        </g>
    </g>
</svg>
