<?xml version='1.0' encoding='ascii'?>
<svg xmlns="http://www.w3.org/2000/svg" version="1.1" width="250" height="250">
    <g id="ViewLayer_LineSet" xmlns:inkscape="http://www.inkscape.org/namespaces/inkscape" inkscape:groupmode="lineset" inkscape:label="ViewLayer_LineSet">
        <g xmlns:inkscape="http://www.inkscape.org/namespaces/inkscape" inkscape:groupmode="layer" id="strokes" inkscape:label="strokes">
            <path fill="none" stroke-width="3.0" stroke-linecap="butt" stroke-opacity="1.0" stroke="rgb(0, 0, 0)" stroke-linejoin="round" d=" M 164.404, 204.118 165.155, 203.765 173.389, 198.090 173.833, 197.784 179.817, 192.215 184.052, 187.835 184.852, 186.788 " />
            <path fill="none" stroke-width="3.0" stroke-linecap="butt" stroke-opacity="1.0" stroke="rgb(0, 0, 0)" stroke-linejoin="round" d=" M 60.512, 166.313 64.290, 174.980 69.732, 183.370 70.369, 184.352 72.789, 187.204 74.329, 188.883 80.098, 195.170 88.041, 201.246 88.478, 201.580 92.197, 203.803 96.385, 205.923 " />
            <path fill="none" stroke-width="3.0" stroke-linecap="butt" stroke-opacity="1.0" stroke="rgb(0, 0, 0)" stroke-linejoin="round" d=" M 74.329, 188.883 74.273, 189.074 73.954, 193.546 74.708, 196.666 75.646, 199.258 77.409, 202.406 80.035, 204.603 83.858, 206.988 86.545, 208.221 90.242, 209.379 94.911, 210.299 96.929, 210.545 " />
            <path fill="none" stroke-width="3.0" stroke-linecap="butt" stroke-opacity="1.0" stroke="rgb(0, 0, 0)" stroke-linejoin="round" d=" M 101.649, 218.890 101.701, 218.972 102.536, 219.874 " />
            <path fill="none" stroke-width="3.0" stroke-linecap="butt" stroke-opacity="1.0" stroke="rgb(0, 0, 0)" stroke-linejoin="round" d=" M 97.037, 202.225 96.385, 205.923 96.300, 206.409 96.929, 210.545 97.031, 211.220 99.404, 216.400 101.649, 218.890 102.536, 219.874 106.308, 222.407 109.354, 224.316 116.328, 228.247 120.998, 230.631 129.852, 235.050 138.430, 239.090 142.508, 240.767 146.972, 242.204 152.940, 243.582 157.563, 244.200 162.378, 244.232 166.251, 243.286 175.775, 240.239 177.388, 239.722 179.351, 236.908 180.730, 232.831 181.477, 229.300 181.455, 225.900 180.600, 221.858 179.684, 218.429 178.439, 215.057 175.910, 212.084 172.942, 209.240 168.778, 206.684 165.813, 205.638 " />
            <path fill="none" stroke-width="3.0" stroke-linecap="butt" stroke-opacity="1.0" stroke="rgb(0, 0, 0)" stroke-linejoin="round" d=" M 174.549, 218.567 172.012, 212.930 168.395, 208.420 165.813, 205.638 164.404, 204.118 163.199, 202.819 " />
            <path fill="none" stroke-width="3.0" stroke-linecap="butt" stroke-opacity="1.0" stroke="rgb(0, 0, 0)" stroke-linejoin="round" d=" M 175.397, 180.603 181.036, 184.648 182.369, 185.527 184.852, 186.788 186.987, 187.871 191.412, 189.471 195.961, 190.344 199.907, 190.335 203.514, 189.768 205.208, 189.283 208.450, 188.104 211.347, 186.374 213.955, 184.186 215.118, 183.200 217.335, 180.399 219.058, 177.321 219.633, 175.955 220.611, 173.064 221.168, 169.816 221.236, 166.095 220.546, 161.749 220.472, 161.441 219.034, 156.806 216.843, 151.940 212.877, 145.965 208.732, 140.791 204.709, 136.257 201.046, 133.007 " />
            <path fill="none" stroke-width="3.0" stroke-linecap="butt" stroke-opacity="1.0" stroke="rgb(0, 0, 0)" stroke-linejoin="round" d=" M 188.139, 83.104 188.809, 83.050 192.500, 82.249 194.375, 81.415 195.656, 77.527 195.892, 76.652 195.608, 70.754 194.495, 66.112 193.384, 62.663 " />
            <path fill="none" stroke-width="3.0" stroke-linecap="butt" stroke-opacity="1.0" stroke="rgb(0, 0, 0)" stroke-linejoin="round" d=" M 192.500, 82.249 189.368, 82.488 " />
            <path fill="none" stroke-width="3.0" stroke-linecap="butt" stroke-opacity="1.0" stroke="rgb(0, 0, 0)" stroke-linejoin="round" d=" M 168.682, 55.285 168.697, 55.352 " />
            <path fill="none" stroke-width="3.0" stroke-linecap="butt" stroke-opacity="1.0" stroke="rgb(0, 0, 0)" stroke-linejoin="round" d=" M 165.697, 55.717 165.268, 55.932 " />
            <path fill="none" stroke-width="3.0" stroke-linecap="butt" stroke-opacity="1.0" stroke="rgb(0, 0, 0)" stroke-linejoin="round" d=" M 168.597, 55.334 168.682, 55.285 168.482, 55.314 " />
            <path fill="none" stroke-width="3.0" stroke-linecap="butt" stroke-opacity="1.0" stroke="rgb(0, 0, 0)" stroke-linejoin="round" d=" M 211.202, 122.338 211.345, 122.394 214.423, 120.783 217.638, 113.697 218.082, 111.308 217.902, 108.468 216.301, 104.816 214.042, 101.409 210.539, 97.729 205.668, 93.499 " />
            <path fill="none" stroke-width="3.0" stroke-linecap="butt" stroke-opacity="1.0" stroke="rgb(0, 0, 0)" stroke-linejoin="round" d=" M 188.161, 83.139 190.880, 84.383 197.200, 87.723 197.886, 88.295 199.765, 89.860 202.158, 91.854 202.514, 92.333 204.114, 94.485 205.611, 96.500 208.203, 100.886 211.527, 106.266 214.175, 111.031 214.953, 112.433 215.003, 112.522 215.782, 117.195 214.423, 120.783 214.016, 119.137 " />
            <path fill="none" stroke-width="3.0" stroke-linecap="butt" stroke-opacity="1.0" stroke="rgb(0, 0, 0)" stroke-linejoin="round" d=" M 197.200, 87.723 198.723, 88.762 199.235, 89.111 205.668, 93.499 199.876, 89.406 198.723, 88.762 " />
            <path fill="none" stroke-width="3.0" stroke-linecap="butt" stroke-opacity="1.0" stroke="rgb(0, 0, 0)" stroke-linejoin="round" d=" M 178.430, 69.594 179.444, 68.097 179.574, 66.557 179.726, 63.583 179.721, 62.651 177.699, 58.418 175.607, 56.586 172.690, 56.047 168.697, 55.352 168.597, 55.334 168.482, 55.314 168.150, 55.256 168.066, 55.374 167.743, 55.827 166.678, 57.319 " />
            <path fill="none" stroke-width="3.0" stroke-linecap="butt" stroke-opacity="1.0" stroke="rgb(0, 0, 0)" stroke-linejoin="round" d=" M 193.042, 63.148 193.384, 62.663 195.491, 59.672 197.873, 55.401 199.106, 50.802 198.867, 46.147 195.526, 42.904 190.154, 40.533 185.906, 39.717 182.757, 39.392 180.861, 36.290 178.025, 32.322 173.653, 28.127 172.843, 27.774 168.972, 26.137 167.195, 27.276 164.136, 29.608 162.016, 32.503 160.350, 35.353 158.537, 39.600 157.502, 42.263 157.352, 42.648 156.861, 43.911 " />
            <path fill="none" stroke-width="3.0" stroke-linecap="butt" stroke-opacity="1.0" stroke="rgb(0, 0, 0)" stroke-linejoin="round" d=" M 179.947, 40.584 182.146, 39.344 182.757, 39.392 " />
            <path fill="none" stroke-width="3.0" stroke-linecap="butt" stroke-opacity="1.0" stroke="rgb(0, 0, 0)" stroke-linejoin="round" d=" M 182.434, 75.812 180.557, 72.898 180.518, 72.836 180.491, 72.794 178.430, 69.594 178.351, 69.473 175.345, 66.164 174.655, 65.405 169.919, 60.604 166.678, 57.319 166.126, 56.760 165.855, 56.485 165.396, 56.019 165.268, 55.932 164.906, 55.686 161.911, 53.651 161.373, 53.285 154.816, 48.828 151.785, 47.479 150.058, 46.711 142.025, 43.135 132.254, 41.003 128.706, 40.229 126.136, 39.787 117.360, 40.043 " />
            <path fill="none" stroke-width="3.0" stroke-linecap="butt" stroke-opacity="1.0" stroke="rgb(0, 0, 0)" stroke-linejoin="round" d=" M 117.567, 40.288 117.360, 40.043 115.889, 38.303 112.488, 35.880 110.324, 35.821 104.960, 35.985 98.911, 38.816 98.241, 39.621 96.312, 43.467 95.929, 45.141 95.717, 46.069 " />
            <path fill="none" stroke-width="3.0" stroke-linecap="butt" stroke-opacity="1.0" stroke="rgb(0, 0, 0)" stroke-linejoin="round" d=" M 167.195, 27.276 165.278, 29.807 " />
            <path fill="none" stroke-width="3.0" stroke-linecap="butt" stroke-opacity="1.0" stroke="rgb(0, 0, 0)" stroke-linejoin="round" d=" M 157.502, 42.263 154.278, 43.735 152.464, 44.865 150.058, 46.711 " />
            <path fill="none" stroke-width="3.0" stroke-linecap="butt" stroke-opacity="1.0" stroke="rgb(0, 0, 0)" stroke-linejoin="round" d=" M 198.698, 46.258 196.702, 47.325 193.366, 49.054 " />
            <path fill="none" stroke-width="3.0" stroke-linecap="butt" stroke-opacity="1.0" stroke="rgb(0, 0, 0)" stroke-linejoin="round" d=" M 190.849, 64.257 193.042, 63.148 " />
            <path fill="none" stroke-width="3.0" stroke-linecap="butt" stroke-opacity="1.0" stroke="rgb(0, 0, 0)" stroke-linejoin="round" d=" M 54.727, 98.946 52.098, 104.356 51.761, 114.351 51.589, 119.452 51.423, 124.381 53.181, 126.574 54.101, 127.722 55.147, 129.028 55.686, 129.702 56.304, 130.472 56.838, 130.635 61.879, 132.167 68.903, 134.302 78.897, 134.665 88.622, 135.018 98.556, 133.873 107.730, 132.817 113.313, 132.174 123.045, 129.877 132.778, 127.580 139.467, 126.001 148.868, 122.591 151.078, 121.789 154.697, 120.476 160.520, 118.364 163.084, 117.435 163.087, 117.433 171.886, 112.683 173.107, 112.024 176.039, 110.441 180.838, 107.850 181.644, 107.112 184.371, 104.613 188.795, 100.558 190.892, 98.636 191.339, 96.984 192.060, 94.317 192.353, 93.234 192.996, 90.858 192.923, 90.742 190.971, 87.626 189.687, 85.575 189.290, 84.942 188.161, 83.139 188.139, 83.104 186.383, 80.299 184.318, 77.002 181.891, 73.216 180.491, 72.794 " />
            <path fill="none" stroke-width="3.0" stroke-linecap="butt" stroke-opacity="1.0" stroke="rgb(0, 0, 0)" stroke-linejoin="round" d=" M 108.853, 108.401 98.918, 109.544 93.418, 110.176 88.577, 110.733 87.883, 110.813 86.119, 111.016 76.119, 111.045 67.857, 111.069 66.177, 110.704 63.982, 110.228 63.084, 110.033 62.682, 109.946 56.417, 108.586 " />
            <path fill="none" stroke-width="3.0" stroke-linecap="butt" stroke-opacity="1.0" stroke="rgb(0, 0, 0)" stroke-linejoin="round" d=" M 95.929, 45.141 88.039, 48.894 85.821, 50.479 78.085, 56.816 75.348, 59.058 69.063, 66.836 66.616, 69.865 61.814, 78.637 60.522, 80.998 59.059, 85.223 56.043, 94.757 54.750, 98.843 54.727, 98.946 53.923, 102.604 " />
            <path fill="none" stroke-width="3.0" stroke-linecap="butt" stroke-opacity="1.0" stroke="rgb(0, 0, 0)" stroke-linejoin="round" d=" M 117.567, 40.288 116.836, 41.559 112.111, 43.495 105.190, 45.331 98.888, 46.314 95.717, 46.069 " />
            <path fill="none" stroke-width="3.0" stroke-linecap="butt" stroke-opacity="1.0" stroke="rgb(0, 0, 0)" stroke-linejoin="round" d=" M 43.231, 130.863 40.158, 139.735 39.790, 140.799 38.144, 146.424 38.907, 150.027 43.811, 158.742 44.285, 159.584 53.414, 163.665 59.029, 166.175 60.512, 166.313 70.470, 167.234 80.427, 168.156 83.405, 168.431 93.366, 167.552 103.328, 166.673 113.289, 165.794 115.669, 165.584 125.404, 163.297 135.139, 161.011 144.874, 158.724 150.004, 157.519 156.509, 154.981 165.825, 151.347 175.141, 147.712 180.580, 145.590 189.098, 140.353 197.617, 135.115 200.691, 133.226 201.046, 133.007 202.740, 131.965 209.342, 124.454 211.202, 122.338 214.016, 119.137 214.291, 118.824 " />
            <path fill="none" stroke-width="3.0" stroke-linecap="butt" stroke-opacity="1.0" stroke="rgb(0, 0, 0)" stroke-linejoin="round" d=" M 51.589, 119.452 47.012, 123.852 43.231, 130.863 41.372, 135.702 40.158, 139.735 " />
            <path fill="none" stroke-width="3.0" stroke-linecap="butt" stroke-opacity="1.0" stroke="rgb(0, 0, 0)" stroke-linejoin="round" d=" M 214.102, 115.112 208.554, 121.308 202.566, 127.995 200.142, 129.465 197.923, 130.810 189.372, 135.995 180.821, 141.180 180.452, 141.403 " />
            <path fill="none" stroke-width="3.0" stroke-linecap="butt" stroke-opacity="1.0" stroke="rgb(0, 0, 0)" stroke-linejoin="round" d=" M 164.464, 54.574 163.246, 53.188 161.373, 53.285 " />
            <path fill="none" stroke-width="3.0" stroke-linecap="butt" stroke-opacity="1.0" stroke="rgb(0, 0, 0)" stroke-linejoin="round" d=" M 163.246, 53.188 161.911, 53.651 " />
            <path fill="none" stroke-width="3.0" stroke-linecap="butt" stroke-opacity="1.0" stroke="rgb(0, 0, 0)" stroke-linejoin="round" d=" M 168.066, 55.374 165.697, 55.717 " />
            <path fill="none" stroke-width="3.0" stroke-linecap="butt" stroke-opacity="1.0" stroke="rgb(0, 0, 0)" stroke-linejoin="round" d=" M 166.126, 56.760 167.743, 55.827 " />
        </g>
    </g>
</svg>
