<?xml version='1.0' encoding='ascii'?>
<svg xmlns="http://www.w3.org/2000/svg" version="1.1" width="250" height="250">
    <g id="ViewLayer_LineSet" xmlns:inkscape="http://www.inkscape.org/namespaces/inkscape" inkscape:groupmode="lineset" inkscape:label="ViewLayer_LineSet">
        <g xmlns:inkscape="http://www.inkscape.org/namespaces/inkscape" inkscape:groupmode="layer" id="strokes" inkscape:label="strokes">
            <path fill="none" stroke-width="3.0" stroke-linecap="butt" stroke-opacity="1.0" stroke="rgb(0, 0, 0)" stroke-linejoin="round" d=" M 55.036, 104.280 54.091, 106.034 53.820, 106.536 52.210, 109.523 52.207, 109.530 51.961, 110.122 50.968, 112.511 50.775, 112.977 50.427, 113.815 49.412, 116.257 47.944, 121.175 46.993, 124.359 " />
            <path fill="none" stroke-width="3.0" stroke-linecap="butt" stroke-opacity="1.0" stroke="rgb(0, 0, 0)" stroke-linejoin="round" d=" M 47.944, 121.175 47.479, 122.699 46.993, 124.359 45.963, 129.207 45.083, 136.469 45.036, 138.831 44.937, 143.753 45.524, 150.980 46.833, 158.074 46.939, 158.531 47.160, 159.312 47.489, 160.414 48.845, 164.959 50.870, 170.202 51.200, 171.039 51.426, 171.557 54.702, 177.908 " />
            <path fill="none" stroke-width="3.0" stroke-linecap="butt" stroke-opacity="1.0" stroke="rgb(0, 0, 0)" stroke-linejoin="round" d=" M 55.754, 179.516 54.901, 178.211 54.702, 177.908 55.754, 179.516 58.647, 183.940 58.896, 184.321 63.484, 189.999 68.615, 195.183 75.054, 200.469 75.780, 200.933 75.895, 201.006 75.907, 201.014 81.724, 204.729 89.243, 208.399 " />
            <path fill="none" stroke-width="3.0" stroke-linecap="butt" stroke-opacity="1.0" stroke="rgb(0, 0, 0)" stroke-linejoin="round" d=" M 169.400, 192.862 174.571, 187.501 175.195, 186.587 " />
            <path fill="none" stroke-width="3.0" stroke-linecap="butt" stroke-opacity="1.0" stroke="rgb(0, 0, 0)" stroke-linejoin="round" d=" M 190.468, 132.921 190.395, 131.487 190.076, 129.997 " />
            <path fill="none" stroke-width="3.0" stroke-linecap="butt" stroke-opacity="1.0" stroke="rgb(0, 0, 0)" stroke-linejoin="round" d=" M 59.332, 150.146 60.633, 151.818 62.131, 153.095 63.564, 153.614 65.073, 153.642 66.826, 152.955 68.333, 151.766 69.495, 150.051 70.062, 148.810 " />
            <path fill="none" stroke-width="3.0" stroke-linecap="butt" stroke-opacity="1.0" stroke="rgb(0, 0, 0)" stroke-linejoin="round" d=" M 58.397, 148.005 58.869, 149.113 59.183, 149.849 59.332, 150.146 " />
            <path fill="none" stroke-width="3.0" stroke-linecap="butt" stroke-opacity="1.0" stroke="rgb(0, 0, 0)" stroke-linejoin="round" d=" M 57.929, 146.255 58.016, 146.721 58.419, 148.108 " />
            <path fill="none" stroke-width="3.0" stroke-linecap="butt" stroke-opacity="1.0" stroke="rgb(0, 0, 0)" stroke-linejoin="round" d=" M 93.321, 101.380 93.395, 102.129 93.249, 105.464 93.042, 106.846 93.027, 106.945 92.686, 109.222 92.722, 109.290 90.512, 117.527 88.775, 121.622 88.734, 121.714 86.945, 125.780 86.732, 126.207 86.468, 126.736 85.023, 129.635 83.065, 133.000 81.120, 135.710 79.232, 137.630 77.798, 138.462 77.446, 138.666 75.806, 138.767 74.367, 137.928 73.187, 136.186 72.331, 133.624 71.860, 130.362 71.823, 126.556 72.253, 122.387 72.358, 121.883 72.475, 121.322 73.113, 118.259 73.157, 118.049 73.646, 116.487 74.485, 113.805 76.107, 109.802 77.971, 106.047 80.006, 102.676 80.570, 101.915 80.631, 101.832 82.133, 99.808 82.590, 99.323 " />
            <path fill="none" stroke-width="3.0" stroke-linecap="butt" stroke-opacity="1.0" stroke="rgb(0, 0, 0)" stroke-linejoin="round" d=" M 58.795, 116.597 57.479, 120.664 56.394, 124.035 56.229, 124.549 55.059, 128.062 53.967, 131.026 53.431, 132.215 52.945, 133.291 51.986, 134.745 51.092, 135.318 50.273, 135.273 49.603, 133.781 49.182, 132.085 49.101, 131.761 48.842, 129.036 48.884, 125.746 49.274, 122.056 50.035, 118.140 51.141, 114.239 51.408, 113.469 51.471, 113.287 51.636, 112.810 52.443, 110.480 52.517, 110.292 52.725, 109.768 53.874, 106.863 54.028, 106.522 54.237, 106.057 55.036, 104.280 55.379, 103.517 56.899, 100.556 58.375, 98.083 59.302, 96.798 " />
            <path fill="none" stroke-width="3.0" stroke-linecap="butt" stroke-opacity="1.0" stroke="rgb(0, 0, 0)" stroke-linejoin="round" d=" M 51.092, 135.318 54.688, 136.759 " />
            <path fill="none" stroke-width="3.0" stroke-linecap="butt" stroke-opacity="1.0" stroke="rgb(0, 0, 0)" stroke-linejoin="round" d=" M 50.273, 135.273 54.688, 136.759 " />
            <path fill="none" stroke-width="3.0" stroke-linecap="butt" stroke-opacity="1.0" stroke="rgb(0, 0, 0)" stroke-linejoin="round" d=" M 63.387, 97.239 63.292, 99.091 63.252, 99.363 62.883, 101.870 62.255, 105.197 61.257, 108.759 " />
            <path fill="none" stroke-width="3.0" stroke-linecap="butt" stroke-opacity="1.0" stroke="rgb(0, 0, 0)" stroke-linejoin="round" d=" M 63.256, 118.604 58.795, 116.597 58.810, 116.552 58.964, 116.083 59.951, 113.079 60.106, 112.609 61.257, 108.759 65.668, 110.832 " />
            <path fill="none" stroke-width="3.0" stroke-linecap="butt" stroke-opacity="1.0" stroke="rgb(0, 0, 0)" stroke-linejoin="round" d=" M 94.800, 200.643 91.257, 204.614 89.243, 208.399 89.067, 208.731 87.688, 212.761 87.155, 216.139 87.482, 219.758 88.111, 221.677 89.988, 225.878 92.615, 228.111 95.628, 229.804 95.784, 229.868 100.522, 231.809 105.242, 233.119 109.696, 234.261 115.132, 235.515 122.460, 236.657 128.120, 237.219 133.626, 237.034 139.974, 235.371 149.532, 232.431 150.132, 232.246 153.848, 230.923 162.439, 227.757 167.008, 224.982 170.604, 221.321 172.898, 218.729 174.883, 215.297 175.745, 211.624 175.598, 207.159 174.703, 202.317 173.629, 199.657 171.083, 194.491 169.400, 192.862 " />
            <path fill="none" stroke-width="3.0" stroke-linecap="butt" stroke-opacity="1.0" stroke="rgb(0, 0, 0)" stroke-linejoin="round" d=" M 75.895, 201.006 74.787, 202.362 72.540, 205.110 71.082, 208.892 70.029, 212.473 70.124, 215.889 70.748, 219.342 71.776, 221.753 " />
            <path fill="none" stroke-width="3.0" stroke-linecap="butt" stroke-opacity="1.0" stroke="rgb(0, 0, 0)" stroke-linejoin="round" d=" M 95.784, 229.868 93.195, 230.062 88.609, 229.493 83.232, 228.824 79.565, 227.966 76.687, 226.559 74.191, 224.369 71.776, 221.753 74.004, 223.978 76.687, 226.559 " />
            <path fill="none" stroke-width="3.0" stroke-linecap="butt" stroke-opacity="1.0" stroke="rgb(0, 0, 0)" stroke-linejoin="round" d=" M 166.256, 181.101 167.382, 181.960 173.303, 185.767 175.195, 186.587 178.106, 187.848 182.673, 189.189 187.322, 189.786 191.301, 189.532 194.921, 188.734 196.522, 188.139 199.753, 186.742 202.601, 184.816 205.138, 182.447 206.089, 181.411 208.116, 178.540 209.698, 175.354 210.774, 171.879 210.896, 171.050 211.272, 168.108 211.225, 164.033 210.280, 159.358 208.591, 154.810 206.135, 150.072 202.687, 145.447 202.467, 145.152 201.845, 144.318 197.417, 139.368 193.144, 135.047 190.468, 132.921 188.652, 131.478 183.773, 128.634 " />
            <path fill="none" stroke-width="3.0" stroke-linecap="butt" stroke-opacity="1.0" stroke="rgb(0, 0, 0)" stroke-linejoin="round" d=" M 45.036, 138.831 44.298, 140.761 43.115, 145.511 43.040, 148.086 43.058, 150.246 43.858, 153.669 44.280, 155.038 45.841, 158.373 47.489, 160.414 " />
            <path fill="none" stroke-width="3.0" stroke-linecap="butt" stroke-opacity="1.0" stroke="rgb(0, 0, 0)" stroke-linejoin="round" d=" M 97.959, 70.374 100.006, 67.865 100.211, 67.557 100.287, 67.441 103.153, 63.137 102.996, 56.471 99.608, 51.631 97.428, 49.339 95.851, 49.008 94.360, 48.696 91.715, 48.589 " />
            <path fill="none" stroke-width="3.0" stroke-linecap="butt" stroke-opacity="1.0" stroke="rgb(0, 0, 0)" stroke-linejoin="round" d=" M 81.861, 24.924 80.258, 20.499 78.659, 17.545 75.506, 12.896 72.722, 10.489 69.680, 8.740 68.194, 8.736 63.980, 11.622 58.875, 17.483 55.413, 22.625 53.039, 26.549 49.949, 27.574 45.837, 29.336 40.573, 32.946 37.052, 37.059 35.946, 42.242 36.116, 47.272 37.383, 51.950 38.730, 55.225 36.992, 59.540 35.022, 65.272 33.516, 72.621 33.850, 77.454 34.679, 78.745 38.068, 79.928 41.373, 81.021 46.443, 81.469 50.875, 80.440 57.638, 78.507 " />
            <path fill="none" stroke-width="3.0" stroke-linecap="butt" stroke-opacity="1.0" stroke="rgb(0, 0, 0)" stroke-linejoin="round" d=" M 81.971, 72.855 80.204, 72.874 " />
            <path fill="none" stroke-width="3.0" stroke-linecap="butt" stroke-opacity="1.0" stroke="rgb(0, 0, 0)" stroke-linejoin="round" d=" M 44.740, 109.482 39.052, 105.899 38.667, 105.601 37.029, 104.336 33.729, 98.865 38.780, 95.076 38.828, 95.074 40.396, 94.994 48.465, 94.580 50.240, 94.489 55.048, 94.243 61.045, 94.873 61.572, 94.928 63.071, 95.085 64.146, 95.198 68.295, 95.633 69.262, 95.735 79.207, 96.779 81.368, 97.006 84.246, 97.569 90.854, 98.863 93.111, 99.305 96.640, 99.997 106.454, 101.919 113.731, 103.344 123.408, 105.865 133.084, 108.387 142.761, 110.908 147.055, 112.027 154.792, 114.625 155.668, 114.920 156.223, 115.106 " />
            <path fill="none" stroke-width="3.0" stroke-linecap="butt" stroke-opacity="1.0" stroke="rgb(0, 0, 0)" stroke-linejoin="round" d=" M 202.467, 145.152 205.411, 144.229 205.090, 139.404 200.468, 136.084 195.117, 132.238 194.060, 131.769 190.076, 129.997 180.938, 125.935 177.425, 124.374 " />
            <path fill="none" stroke-width="3.0" stroke-linecap="butt" stroke-opacity="1.0" stroke="rgb(0, 0, 0)" stroke-linejoin="round" d=" M 41.274, 100.039 46.672, 97.042 " />
            <path fill="none" stroke-width="3.0" stroke-linecap="butt" stroke-opacity="1.0" stroke="rgb(0, 0, 0)" stroke-linejoin="round" d=" M 41.801, 97.242 39.167, 98.776 37.894, 99.519 35.997, 100.624 38.492, 104.932 39.052, 105.899 " />
            <path fill="none" stroke-width="3.0" stroke-linecap="butt" stroke-opacity="1.0" stroke="rgb(0, 0, 0)" stroke-linejoin="round" d=" M 41.801, 97.242 45.139, 97.105 46.672, 97.042 48.295, 96.975 49.593, 96.922 57.468, 96.599 59.302, 96.798 59.950, 96.867 63.387, 97.239 64.902, 97.402 67.538, 97.687 73.338, 98.313 74.191, 98.405 82.457, 99.298 82.590, 99.323 88.668, 100.488 93.321, 101.380 97.402, 102.162 107.223, 104.045 113.875, 105.320 123.554, 107.834 133.233, 110.348 142.912, 112.862 146.588, 113.817 155.523, 116.799 " />
            <path fill="none" stroke-width="3.0" stroke-linecap="butt" stroke-opacity="1.0" stroke="rgb(0, 0, 0)" stroke-linejoin="round" d=" M 83.328, 64.823 83.821, 65.476 84.678, 66.611 85.028, 67.074 85.462, 67.648 85.855, 68.169 85.981, 68.335 86.303, 68.762 88.296, 71.401 89.862, 71.372 93.537, 71.304 " />
            <path fill="none" stroke-width="3.0" stroke-linecap="butt" stroke-opacity="1.0" stroke="rgb(0, 0, 0)" stroke-linejoin="round" d=" M 82.209, 68.073 83.422, 68.678 84.169, 68.699 86.303, 68.762 " />
            <path fill="none" stroke-width="3.0" stroke-linecap="butt" stroke-opacity="1.0" stroke="rgb(0, 0, 0)" stroke-linejoin="round" d=" M 38.667, 105.601 38.862, 106.352 39.514, 108.394 41.796, 109.929 50.115, 113.925 50.427, 113.815 " />
            <path fill="none" stroke-width="3.0" stroke-linecap="butt" stroke-opacity="1.0" stroke="rgb(0, 0, 0)" stroke-linejoin="round" d=" M 47.369, 108.720 44.740, 109.482 44.476, 109.558 " />
            <path fill="none" stroke-width="3.0" stroke-linecap="butt" stroke-opacity="1.0" stroke="rgb(0, 0, 0)" stroke-linejoin="round" d=" M 48.385, 105.105 47.369, 108.720 51.961, 110.122 " />
            <path fill="none" stroke-width="3.0" stroke-linecap="butt" stroke-opacity="1.0" stroke="rgb(0, 0, 0)" stroke-linejoin="round" d=" M 59.520, 79.407 53.684, 81.356 46.972, 84.708 42.729, 87.994 40.543, 91.347 " />
            <path fill="none" stroke-width="3.0" stroke-linecap="butt" stroke-opacity="1.0" stroke="rgb(0, 0, 0)" stroke-linejoin="round" d=" M 155.523, 116.799 155.695, 117.310 157.598, 118.841 159.640, 119.780 169.098, 123.027 169.221, 123.070 169.944, 123.318 176.438, 125.548 177.425, 124.374 177.712, 124.032 177.753, 123.613 177.814, 122.992 177.862, 122.506 178.088, 120.210 174.514, 115.307 167.644, 108.556 162.982, 105.261 159.395, 102.727 152.665, 97.847 144.015, 92.831 143.556, 92.564 141.388, 91.641 132.191, 87.724 127.551, 86.181 120.068, 83.691 110.515, 80.733 108.306, 80.049 98.478, 78.202 97.064, 77.936 96.501, 77.832 90.582, 76.736 87.771, 76.216 " />
            <path fill="none" stroke-width="3.0" stroke-linecap="butt" stroke-opacity="1.0" stroke="rgb(0, 0, 0)" stroke-linejoin="round" d=" M 73.727, 80.214 77.292, 80.648 79.633, 80.933 81.069, 81.107 85.443, 81.640 87.583, 82.248 97.202, 84.980 97.768, 85.140 99.524, 85.639 109.042, 88.708 112.554, 89.840 121.805, 93.638 124.959, 94.933 134.063, 99.069 136.196, 100.038 144.968, 104.349 152.164, 108.212 158.027, 112.289 158.641, 113.077 160.493, 115.456 161.271, 118.144 160.842, 118.575 159.640, 119.780 " />
            <path fill="none" stroke-width="3.0" stroke-linecap="butt" stroke-opacity="1.0" stroke="rgb(0, 0, 0)" stroke-linejoin="round" d=" M 64.846, 77.424 68.356, 72.141 68.559, 71.589 69.617, 68.721 70.206, 67.122 71.067, 64.786 71.333, 64.066 72.686, 57.822 72.989, 55.806 73.003, 55.714 73.020, 55.605 73.386, 53.172 " />
            <path fill="none" stroke-width="3.0" stroke-linecap="butt" stroke-opacity="1.0" stroke="rgb(0, 0, 0)" stroke-linejoin="round" d=" M 50.114, 72.571 51.329, 73.835 52.215, 74.756 55.413, 77.109 58.943, 78.133 60.430, 78.565 61.915, 78.181 64.846, 77.424 65.038, 77.600 66.374, 78.823 67.828, 79.428 69.450, 80.102 69.566, 80.118 73.038, 80.577 " />
            <path fill="none" stroke-width="3.0" stroke-linecap="butt" stroke-opacity="1.0" stroke="rgb(0, 0, 0)" stroke-linejoin="round" d=" M 51.290, 73.819 50.114, 72.571 46.800, 74.798 42.452, 77.132 37.110, 78.521 33.850, 77.454 " />
            <path fill="none" stroke-width="3.0" stroke-linecap="butt" stroke-opacity="1.0" stroke="rgb(0, 0, 0)" stroke-linejoin="round" d=" M 51.290, 73.819 52.215, 74.756 54.447, 76.642 57.638, 78.507 58.430, 78.970 59.520, 79.407 59.725, 79.489 59.882, 79.552 60.786, 79.915 61.299, 80.121 61.513, 80.207 63.186, 80.695 63.394, 80.755 64.984, 81.219 66.774, 81.429 68.926, 81.681 70.120, 81.360 73.038, 80.577 73.727, 80.214 74.572, 79.768 76.097, 78.964 76.371, 78.819 78.294, 75.836 80.204, 72.874 80.919, 71.764 80.959, 71.702 82.209, 68.073 82.228, 68.018 82.310, 67.779 82.700, 66.646 82.727, 66.567 83.096, 65.497 83.328, 64.823 83.471, 64.409 84.033, 62.622 84.048, 62.572 84.144, 62.266 84.701, 60.495 84.833, 60.278 86.042, 58.292 86.070, 58.246 87.456, 55.969 87.615, 55.708 87.802, 55.402 88.037, 54.993 88.150, 54.796 88.612, 53.991 89.183, 52.998 89.496, 52.452 89.892, 51.762 91.715, 48.589 92.692, 46.888 94.428, 41.716 94.575, 37.351 92.975, 33.694 90.694, 30.225 88.031, 28.002 84.529, 25.821 81.861, 24.924 81.675, 24.862 77.686, 24.023 74.602, 23.754 " />
            <path fill="none" stroke-width="3.0" stroke-linecap="butt" stroke-opacity="1.0" stroke="rgb(0, 0, 0)" stroke-linejoin="round" d=" M 68.194, 8.736 71.164, 10.452 73.426, 15.296 74.267, 20.010 74.602, 23.754 " />
            <path fill="none" stroke-width="3.0" stroke-linecap="butt" stroke-opacity="1.0" stroke="rgb(0, 0, 0)" stroke-linejoin="round" d=" M 78.515, 56.117 77.270, 55.378 75.114, 54.097 73.703, 53.342 73.386, 53.172 73.906, 52.642 75.582, 50.931 76.924, 49.562 77.243, 49.237 80.368, 45.559 82.061, 43.566 85.787, 37.557 87.940, 31.595 86.078, 27.616 81.886, 24.994 81.675, 24.862 " />
            <path fill="none" stroke-width="3.0" stroke-linecap="butt" stroke-opacity="1.0" stroke="rgb(0, 0, 0)" stroke-linejoin="round" d=" M 57.063, 21.840 53.609, 26.720 52.542, 28.229 " />
            <path fill="none" stroke-width="3.0" stroke-linecap="butt" stroke-opacity="1.0" stroke="rgb(0, 0, 0)" stroke-linejoin="round" d=" M 40.115, 52.558 39.222, 55.685 38.085, 59.661 " />
            <path fill="none" stroke-width="3.0" stroke-linecap="butt" stroke-opacity="1.0" stroke="rgb(0, 0, 0)" stroke-linejoin="round" d=" M 189.010, 93.727 188.163, 89.455 184.383, 80.197 183.273, 77.478 177.715, 69.165 176.607, 67.509 169.601, 60.374 167.809, 58.549 163.657, 54.395 156.625, 50.205 150.785, 46.787 147.762, 45.561 145.061, 44.465 138.676, 42.734 133.680, 41.988 132.345, 41.789 126.773, 41.727 117.928, 42.030 111.348, 43.312 101.791, 46.257 99.812, 46.867 95.851, 49.008 " />
            <path fill="none" stroke-width="3.0" stroke-linecap="butt" stroke-opacity="1.0" stroke="rgb(0, 0, 0)" stroke-linejoin="round" d=" M 89.949, 32.066 92.600, 34.233 94.575, 37.351 " />
            <path fill="none" stroke-width="3.0" stroke-linecap="butt" stroke-opacity="1.0" stroke="rgb(0, 0, 0)" stroke-linejoin="round" d=" M 193.373, 115.018 193.189, 113.928 185.458, 107.586 184.786, 107.035 181.402, 105.357 172.443, 100.914 168.971, 99.192 168.848, 99.131 159.431, 95.765 150.015, 92.399 146.836, 91.262 137.166, 88.714 127.551, 86.181 " />
            <path fill="none" stroke-width="3.0" stroke-linecap="butt" stroke-opacity="1.0" stroke="rgb(0, 0, 0)" stroke-linejoin="round" d=" M 102.240, 67.545 100.287, 67.441 " />
            <path fill="none" stroke-width="3.0" stroke-linecap="butt" stroke-opacity="1.0" stroke="rgb(0, 0, 0)" stroke-linejoin="round" d=" M 102.240, 67.545 110.938, 68.827 120.831, 70.285 125.776, 71.013 " />
            <path fill="none" stroke-width="3.0" stroke-linecap="butt" stroke-opacity="1.0" stroke="rgb(0, 0, 0)" stroke-linejoin="round" d=" M 193.478, 115.103 192.027, 105.209 191.292, 100.193 190.114, 94.928 189.010, 93.727 188.994, 93.709 " />
            <path fill="none" stroke-width="3.0" stroke-linecap="butt" stroke-opacity="1.0" stroke="rgb(0, 0, 0)" stroke-linejoin="round" d=" M 147.762, 45.561 146.846, 44.028 144.485, 42.274 140.640, 40.982 136.833, 40.667 134.566, 41.445 133.680, 41.988 " />
            <path fill="none" stroke-width="3.0" stroke-linecap="butt" stroke-opacity="1.0" stroke="rgb(0, 0, 0)" stroke-linejoin="round" d=" M 202.687, 145.447 207.835, 143.849 208.985, 140.150 208.910, 134.891 205.828, 128.995 200.882, 121.133 193.478, 115.103 193.373, 115.018 191.611, 113.582 186.665, 109.584 182.749, 107.658 173.759, 103.236 169.798, 101.287 160.375, 97.937 150.953, 94.588 146.382, 92.963 145.447, 92.710 " />
            <path fill="none" stroke-width="3.0" stroke-linecap="butt" stroke-opacity="1.0" stroke="rgb(0, 0, 0)" stroke-linejoin="round" d=" M 177.862, 122.506 178.706, 122.885 179.795, 123.375 188.916, 127.476 189.602, 127.784 197.480, 131.326 198.630, 132.171 206.689, 138.091 207.676, 138.817 207.835, 143.849 " />
            <path fill="none" stroke-width="3.0" stroke-linecap="butt" stroke-opacity="1.0" stroke="rgb(0, 0, 0)" stroke-linejoin="round" d=" M 208.910, 134.891 200.974, 128.806 198.877, 127.198 195.480, 125.629 188.444, 122.379 188.422, 122.369 186.433, 121.450 178.338, 117.711 " />
            <path fill="none" stroke-width="3.0" stroke-linecap="butt" stroke-opacity="1.0" stroke="rgb(0, 0, 0)" stroke-linejoin="round" d=" M 53.896, 82.421 45.540, 87.124 40.601, 91.309 40.543, 91.347 34.713, 95.178 33.729, 98.865 " />
            <path fill="none" stroke-width="3.0" stroke-linecap="butt" stroke-opacity="1.0" stroke="rgb(0, 0, 0)" stroke-linejoin="round" d=" M 58.869, 149.113 58.419, 148.108 " />
            <path fill="none" stroke-width="3.0" stroke-linecap="butt" stroke-opacity="1.0" stroke="rgb(0, 0, 0)" stroke-linejoin="round" d=" M 61.299, 80.121 60.576, 80.238 56.518, 80.896 56.032, 80.975 53.684, 81.356 " />
            <path fill="none" stroke-width="3.0" stroke-linecap="butt" stroke-opacity="1.0" stroke="rgb(0, 0, 0)" stroke-linejoin="round" d=" M 75.780, 200.933 74.787, 202.362 " />
            <path fill="none" stroke-width="3.0" stroke-linecap="butt" stroke-opacity="1.0" stroke="rgb(0, 0, 0)" stroke-linejoin="round" d=" M 80.919, 71.764 81.971, 72.855 84.169, 68.699 " />
            <path fill="none" stroke-width="3.0" stroke-linecap="butt" stroke-opacity="1.0" stroke="rgb(0, 0, 0)" stroke-linejoin="round" d=" M 82.700, 66.646 84.707, 67.680 85.981, 68.335 " />
            <path fill="none" stroke-width="3.0" stroke-linecap="butt" stroke-opacity="1.0" stroke="rgb(0, 0, 0)" stroke-linejoin="round" d=" M 85.240, 76.114 78.294, 75.836 " />
            <path fill="none" stroke-width="3.0" stroke-linecap="butt" stroke-opacity="1.0" stroke="rgb(0, 0, 0)" stroke-linejoin="round" d=" M 87.339, 76.198 88.028, 74.881 89.862, 71.372 " />
            <path fill="none" stroke-width="3.0" stroke-linecap="butt" stroke-opacity="1.0" stroke="rgb(0, 0, 0)" stroke-linejoin="round" d=" M 141.388, 91.641 145.447, 92.710 " />
            <path fill="none" stroke-width="3.0" stroke-linecap="butt" stroke-opacity="1.0" stroke="rgb(0, 0, 0)" stroke-linejoin="round" d=" M 194.060, 131.769 200.665, 136.503 " />
        </g>
    </g>
</svg>
