<?xml version='1.0' encoding='ascii'?>
<svg xmlns="http://www.w3.org/2000/svg" version="1.1" width="250" height="250">
    <g id="ViewLayer_LineSet" xmlns:inkscape="http://www.inkscape.org/namespaces/inkscape" inkscape:groupmode="lineset" inkscape:label="ViewLayer_LineSet">
        <g xmlns:inkscape="http://www.inkscape.org/namespaces/inkscape" inkscape:groupmode="layer" id="strokes" inkscape:label="strokes">
            <path fill="none" stroke-width="3.0" stroke-linecap="butt" stroke-opacity="1.0" stroke="rgb(0, 0, 0)" stroke-linejoin="round" d=" M 125.496, 211.263 127.108, 211.119 130.974, 210.487 137.342, 208.985 142.243, 207.724 146.077, 206.208 154.811, 202.009 158.102, 199.869 166.167, 193.957 166.687, 193.576 173.621, 186.371 174.214, 185.755 179.805, 177.465 180.447, 176.513 182.262, 173.822 186.463, 164.747 186.966, 163.659 189.505, 154.528 " />
            <path fill="none" stroke-width="3.0" stroke-linecap="butt" stroke-opacity="1.0" stroke="rgb(0, 0, 0)" stroke-linejoin="round" d=" M 46.915, 134.881 46.859, 135.538 46.676, 137.724 46.578, 141.366 46.664, 143.100 46.868, 145.572 47.612, 150.170 48.483, 155.625 49.955, 161.072 52.068, 166.843 54.726, 172.555 57.816, 177.973 61.213, 182.868 63.646, 185.702 " />
            <path fill="none" stroke-width="3.0" stroke-linecap="butt" stroke-opacity="1.0" stroke="rgb(0, 0, 0)" stroke-linejoin="round" d=" M 47.129, 130.496 47.098, 130.673 46.859, 135.538 " />
            <path fill="none" stroke-width="3.0" stroke-linecap="butt" stroke-opacity="1.0" stroke="rgb(0, 0, 0)" stroke-linejoin="round" d=" M 54.591, 103.924 54.366, 104.453 54.420, 104.517 52.889, 108.137 51.933, 110.399 51.386, 111.691 51.290, 111.889 49.686, 115.201 48.299, 118.757 47.167, 122.034 46.297, 124.876 45.670, 127.144 45.256, 128.727 45.019, 129.549 44.934, 129.571 44.987, 128.792 45.184, 127.253 45.545, 125.027 46.101, 122.221 46.881, 118.967 47.908, 115.415 49.184, 111.728 50.667, 108.120 52.196, 104.706 52.954, 103.084 " />
            <path fill="none" stroke-width="3.0" stroke-linecap="butt" stroke-opacity="1.0" stroke="rgb(0, 0, 0)" stroke-linejoin="round" d=" M 44.934, 129.571 47.129, 130.496 " />
            <path fill="none" stroke-width="3.0" stroke-linecap="butt" stroke-opacity="1.0" stroke="rgb(0, 0, 0)" stroke-linejoin="round" d=" M 24.581, 218.907 25.443, 220.048 27.778, 223.141 30.734, 225.016 37.104, 227.937 42.876, 230.584 52.730, 232.288 54.763, 232.640 64.758, 232.965 69.499, 233.119 79.499, 233.130 84.338, 233.135 94.323, 232.583 95.412, 232.523 101.955, 231.587 105.412, 230.785 110.339, 229.376 114.038, 227.898 118.743, 224.353 118.749, 224.348 121.096, 222.336 123.800, 218.321 124.804, 216.020 125.525, 211.538 125.496, 211.263 " />
            <path fill="none" stroke-width="3.0" stroke-linecap="butt" stroke-opacity="1.0" stroke="rgb(0, 0, 0)" stroke-linejoin="round" d=" M 63.646, 185.702 62.907, 185.848 53.360, 188.822 52.421, 189.114 43.722, 190.938 36.069, 193.469 35.004, 194.061 28.680, 198.103 25.127, 201.845 22.894, 206.050 22.436, 207.716 21.874, 212.342 23.025, 217.140 25.443, 220.048 " />
            <path fill="none" stroke-width="3.0" stroke-linecap="butt" stroke-opacity="1.0" stroke="rgb(0, 0, 0)" stroke-linejoin="round" d=" M 118.749, 224.348 119.651, 224.257 124.628, 223.604 134.118, 220.453 137.512, 219.326 146.495, 214.931 148.842, 213.783 157.747, 209.233 160.284, 207.937 168.957, 203.223 172.456, 201.142 174.407, 199.649 177.732, 196.547 179.893, 194.109 182.539, 189.602 182.853, 187.622 183.356, 183.485 182.140, 179.685 181.533, 178.124 180.447, 176.513 " />
            <path fill="none" stroke-width="3.0" stroke-linecap="butt" stroke-opacity="1.0" stroke="rgb(0, 0, 0)" stroke-linejoin="round" d=" M 96.840, 163.119 98.703, 168.150 100.489, 172.475 102.899, 177.514 106.147, 182.492 109.154, 185.851 110.415, 187.044 111.270, 187.853 114.066, 190.319 114.262, 190.433 116.840, 191.936 117.701, 192.397 119.667, 193.451 124.252, 194.791 126.414, 195.146 131.332, 195.229 135.920, 194.317 136.745, 194.113 140.236, 192.688 142.091, 191.624 143.230, 190.798 144.742, 189.607 147.099, 187.373 148.793, 185.282 151.041, 181.667 152.639, 178.335 153.660, 174.774 154.388, 169.979 154.733, 166.820 154.878, 165.487 154.201, 159.559 152.893, 154.296 " />
            <path fill="none" stroke-width="3.0" stroke-linecap="butt" stroke-opacity="1.0" stroke="rgb(0, 0, 0)" stroke-linejoin="round" d=" M 153.045, 154.943 152.893, 154.296 151.771, 149.533 150.226, 144.682 149.313, 142.764 " />
            <path fill="none" stroke-width="3.0" stroke-linecap="butt" stroke-opacity="1.0" stroke="rgb(0, 0, 0)" stroke-linejoin="round" d=" M 57.732, 65.343 57.833, 65.093 " />
            <path fill="none" stroke-width="3.0" stroke-linecap="butt" stroke-opacity="1.0" stroke="rgb(0, 0, 0)" stroke-linejoin="round" d=" M 39.518, 79.790 39.780, 79.867 44.357, 80.232 49.766, 78.538 50.628, 77.959 55.153, 73.682 59.745, 66.875 " />
            <path fill="none" stroke-width="3.0" stroke-linecap="butt" stroke-opacity="1.0" stroke="rgb(0, 0, 0)" stroke-linejoin="round" d=" M 82.754, 58.595 82.328, 58.299 79.468, 56.573 79.163, 56.389 79.036, 56.411 78.398, 56.518 77.765, 57.133 " />
            <path fill="none" stroke-width="3.0" stroke-linecap="butt" stroke-opacity="1.0" stroke="rgb(0, 0, 0)" stroke-linejoin="round" d=" M 82.328, 58.299 81.313, 58.817 80.299, 59.818 79.341, 60.765 77.988, 62.320 " />
            <path fill="none" stroke-width="3.0" stroke-linecap="butt" stroke-opacity="1.0" stroke="rgb(0, 0, 0)" stroke-linejoin="round" d=" M 51.365, 80.732 45.421, 83.704 41.036, 87.489 39.806, 89.442 37.860, 93.047 40.682, 95.125 48.644, 100.873 52.954, 103.084 54.591, 103.924 54.907, 104.086 55.561, 104.421 59.137, 106.255 59.428, 106.404 59.602, 106.494 61.028, 107.225 63.961, 108.730 66.399, 109.980 73.436, 113.072 " />
            <path fill="none" stroke-width="3.0" stroke-linecap="butt" stroke-opacity="1.0" stroke="rgb(0, 0, 0)" stroke-linejoin="round" d=" M 37.860, 93.047 46.091, 98.725 46.484, 98.996 53.252, 102.447 54.870, 103.271 55.247, 103.464 55.886, 103.790 59.445, 105.604 59.759, 105.764 59.912, 105.842 61.304, 106.552 64.276, 108.067 64.483, 108.173 72.656, 111.754 " />
            <path fill="none" stroke-width="3.0" stroke-linecap="butt" stroke-opacity="1.0" stroke="rgb(0, 0, 0)" stroke-linejoin="round" d=" M 96.022, 122.841 96.554, 123.050 105.860, 126.709 107.992, 127.547 117.298, 131.207 123.796, 133.762 133.288, 137.110 142.718, 140.437 149.313, 142.764 154.530, 144.604 164.094, 147.525 173.658, 150.446 179.817, 152.326 189.505, 154.528 196.437, 156.103 199.663, 156.200 206.759, 156.116 207.828, 152.318 206.612, 146.122 203.177, 137.293 201.872, 135.541 197.920, 130.477 193.882, 127.814 " />
            <path fill="none" stroke-width="3.0" stroke-linecap="butt" stroke-opacity="1.0" stroke="rgb(0, 0, 0)" stroke-linejoin="round" d=" M 57.460, 59.868 57.515, 61.006 57.640, 63.598 57.681, 64.445 57.706, 64.975 57.833, 65.093 58.301, 65.530 58.364, 65.588 58.705, 65.906 59.745, 66.875 63.955, 70.798 65.507, 70.750 65.858, 70.739 66.370, 70.723 66.719, 70.712 68.656, 70.652 68.826, 70.646 69.295, 70.632 " />
            <path fill="none" stroke-width="3.0" stroke-linecap="butt" stroke-opacity="1.0" stroke="rgb(0, 0, 0)" stroke-linejoin="round" d=" M 78.075, 64.345 78.041, 63.572 77.988, 62.320 77.894, 60.149 77.845, 59.010 77.809, 58.164 77.765, 57.133 77.708, 55.820 73.664, 52.020 71.463, 49.952 65.542, 50.133 64.954, 50.151 64.924, 50.152 64.193, 50.174 64.121, 50.176 63.398, 50.198 62.994, 50.211 57.295, 56.447 " />
            <path fill="none" stroke-width="3.0" stroke-linecap="butt" stroke-opacity="1.0" stroke="rgb(0, 0, 0)" stroke-linejoin="round" d=" M 58.183, 65.750 57.732, 65.343 58.301, 65.530 " />
            <path fill="none" stroke-width="3.0" stroke-linecap="butt" stroke-opacity="1.0" stroke="rgb(0, 0, 0)" stroke-linejoin="round" d=" M 58.183, 65.750 58.705, 65.906 " />
            <path fill="none" stroke-width="3.0" stroke-linecap="butt" stroke-opacity="1.0" stroke="rgb(0, 0, 0)" stroke-linejoin="round" d=" M 63.293, 75.360 53.671, 78.081 51.438, 78.712 51.149, 79.869 51.365, 80.732 52.498, 85.244 " />
            <path fill="none" stroke-width="3.0" stroke-linecap="butt" stroke-opacity="1.0" stroke="rgb(0, 0, 0)" stroke-linejoin="round" d=" M 86.556, 106.018 84.828, 103.255 83.992, 101.920 82.762, 99.954 81.721, 98.275 80.092, 95.649 79.694, 95.007 75.672, 89.770 71.589, 85.134 71.376, 84.877 68.848, 81.821 68.640, 81.569 68.533, 81.440 67.735, 80.389 67.369, 79.907 67.349, 79.880 67.039, 79.472 66.095, 78.228 65.947, 78.059 65.757, 77.841 65.289, 77.305 64.968, 76.937 64.587, 76.501 64.074, 75.139 " />
            <path fill="none" stroke-width="3.0" stroke-linecap="butt" stroke-opacity="1.0" stroke="rgb(0, 0, 0)" stroke-linejoin="round" d=" M 51.149, 79.869 51.374, 80.728 52.031, 83.239 52.301, 83.712 54.146, 86.942 54.560, 87.536 57.415, 91.634 58.291, 92.819 58.794, 93.500 60.199, 95.400 60.787, 96.195 60.842, 96.269 61.023, 96.515 62.851, 98.851 62.883, 98.893 63.402, 99.556 63.912, 100.208 64.353, 100.772 66.472, 103.126 67.892, 104.703 71.141, 108.905 72.457, 111.139 73.058, 112.160 73.436, 113.072 74.190, 114.890 75.892, 116.565 85.191, 120.243 94.650, 123.985 96.022, 122.841 " />
            <path fill="none" stroke-width="3.0" stroke-linecap="butt" stroke-opacity="1.0" stroke="rgb(0, 0, 0)" stroke-linejoin="round" d=" M 71.526, 110.611 72.656, 111.754 73.058, 112.160 " />
            <path fill="none" stroke-width="3.0" stroke-linecap="butt" stroke-opacity="1.0" stroke="rgb(0, 0, 0)" stroke-linejoin="round" d=" M 92.609, 122.336 92.360, 121.386 91.562, 118.349 89.097, 113.105 88.330, 110.965 87.146, 107.663 86.556, 106.018 " />
            <path fill="none" stroke-width="3.0" stroke-linecap="butt" stroke-opacity="1.0" stroke="rgb(0, 0, 0)" stroke-linejoin="round" d=" M 94.650, 123.985 92.609, 122.336 92.386, 121.398 " />
            <path fill="none" stroke-width="3.0" stroke-linecap="butt" stroke-opacity="1.0" stroke="rgb(0, 0, 0)" stroke-linejoin="round" d=" M 76.715, 54.230 74.341, 52.000 74.103, 52.007 " />
            <path fill="none" stroke-width="3.0" stroke-linecap="butt" stroke-opacity="1.0" stroke="rgb(0, 0, 0)" stroke-linejoin="round" d=" M 38.750, 36.473 37.231, 38.502 36.412, 40.438 34.055, 49.483 31.815, 57.064 29.916, 63.733 28.821, 69.408 28.580, 73.146 " />
            <path fill="none" stroke-width="3.0" stroke-linecap="butt" stroke-opacity="1.0" stroke="rgb(0, 0, 0)" stroke-linejoin="round" d=" M 32.482, 60.527 31.083, 64.886 29.507, 69.804 28.874, 71.799 28.580, 73.146 27.889, 76.315 28.721, 77.361 29.894, 78.532 33.514, 79.581 38.752, 79.988 39.518, 79.790 42.124, 79.116 45.529, 78.235 47.676, 76.907 52.559, 72.961 54.062, 71.732 " />
            <path fill="none" stroke-width="3.0" stroke-linecap="butt" stroke-opacity="1.0" stroke="rgb(0, 0, 0)" stroke-linejoin="round" d=" M 45.794, 29.826 44.815, 29.892 43.979, 30.189 43.349, 30.413 40.997, 32.614 38.888, 36.043 38.750, 36.473 37.166, 41.411 35.892, 46.843 35.078, 51.968 34.550, 54.698 " />
            <path fill="none" stroke-width="3.0" stroke-linecap="butt" stroke-opacity="1.0" stroke="rgb(0, 0, 0)" stroke-linejoin="round" d=" M 51.544, 31.765 47.437, 29.925 45.794, 29.826 47.370, 26.534 47.643, 26.000 49.338, 22.678 49.479, 22.402 52.043, 18.233 53.554, 16.896 55.258, 16.674 58.520, 18.357 61.952, 21.587 64.832, 27.518 65.814, 36.143 66.053, 38.437 65.536, 48.158 65.538, 48.753 " />
            <path fill="none" stroke-width="3.0" stroke-linecap="butt" stroke-opacity="1.0" stroke="rgb(0, 0, 0)" stroke-linejoin="round" d=" M 28.874, 71.799 29.495, 69.855 30.820, 65.709 31.083, 64.886 31.090, 64.867 33.080, 59.519 34.665, 55.508 " />
            <path fill="none" stroke-width="3.0" stroke-linecap="butt" stroke-opacity="1.0" stroke="rgb(0, 0, 0)" stroke-linejoin="round" d=" M 37.945, 78.966 36.433, 78.846 32.736, 78.552 29.058, 77.477 27.889, 76.315 " />
            <path fill="none" stroke-width="3.0" stroke-linecap="butt" stroke-opacity="1.0" stroke="rgb(0, 0, 0)" stroke-linejoin="round" d=" M 40.282, 57.755 36.050, 56.208 34.665, 55.508 35.039, 52.302 35.078, 51.968 " />
            <path fill="none" stroke-width="3.0" stroke-linecap="butt" stroke-opacity="1.0" stroke="rgb(0, 0, 0)" stroke-linejoin="round" d=" M 49.479, 22.402 49.328, 22.691 47.289, 26.598 " />
            <path fill="none" stroke-width="3.0" stroke-linecap="butt" stroke-opacity="1.0" stroke="rgb(0, 0, 0)" stroke-linejoin="round" d=" M 49.328, 22.691 48.710, 23.497 46.472, 26.775 " />
            <path fill="none" stroke-width="3.0" stroke-linecap="butt" stroke-opacity="1.0" stroke="rgb(0, 0, 0)" stroke-linejoin="round" d=" M 47.664, 25.143 46.472, 26.775 43.979, 30.189 " />
            <path fill="none" stroke-width="3.0" stroke-linecap="butt" stroke-opacity="1.0" stroke="rgb(0, 0, 0)" stroke-linejoin="round" d=" M 144.599, 41.247 142.529, 40.950 132.808, 39.551 122.843, 40.393 119.795, 40.650 110.207, 43.493 106.357, 44.634 104.733, 45.168 95.763, 49.587 92.950, 50.973 84.941, 56.960 82.754, 58.595 81.934, 59.208 " />
            <path fill="none" stroke-width="3.0" stroke-linecap="butt" stroke-opacity="1.0" stroke="rgb(0, 0, 0)" stroke-linejoin="round" d=" M 162.145, 48.354 161.933, 46.392 160.565, 42.637 159.747, 41.740 154.705, 38.559 149.184, 37.648 147.639, 37.631 144.128, 39.503 142.529, 40.950 " />
            <path fill="none" stroke-width="3.0" stroke-linecap="butt" stroke-opacity="1.0" stroke="rgb(0, 0, 0)" stroke-linejoin="round" d=" M 40.379, 36.271 44.088, 37.870 48.628, 40.350 " />
            <path fill="none" stroke-width="3.0" stroke-linecap="butt" stroke-opacity="1.0" stroke="rgb(0, 0, 0)" stroke-linejoin="round" d=" M 196.193, 128.244 193.579, 127.613 192.441, 127.339 190.158, 126.788 189.951, 126.721 188.933, 126.392 179.419, 123.313 176.745, 122.447 167.313, 119.125 157.881, 115.803 156.853, 115.441 147.473, 111.973 138.094, 108.505 132.918, 106.591 123.584, 103.002 114.251, 99.413 108.536, 97.215 99.254, 93.492 89.973, 89.770 87.712, 88.863 87.453, 88.759 78.253, 84.840 73.683, 82.893 72.471, 82.376 70.271, 81.304 67.787, 80.093 67.379, 79.895 67.349, 79.880 " />
            <path fill="none" stroke-width="3.0" stroke-linecap="butt" stroke-opacity="1.0" stroke="rgb(0, 0, 0)" stroke-linejoin="round" d=" M 68.018, 80.558 69.851, 81.456 73.356, 83.173 75.367, 84.158 84.562, 88.090 88.859, 89.927 89.617, 90.251 98.896, 93.980 108.175, 97.709 109.531, 98.254 118.864, 101.844 128.197, 105.435 132.497, 107.089 141.877, 110.554 151.258, 114.019 155.057, 115.422 164.492, 118.736 173.889, 122.037 183.408, 125.102 186.703, 126.163 189.121, 126.742 190.000, 126.953 192.600, 127.575 " />
            <path fill="none" stroke-width="3.0" stroke-linecap="butt" stroke-opacity="1.0" stroke="rgb(0, 0, 0)" stroke-linejoin="round" d=" M 76.232, 66.668 75.921, 66.685 75.230, 66.723 74.334, 66.772 73.958, 66.793 73.297, 66.829 73.044, 66.843 72.406, 66.878 72.220, 66.888 72.200, 66.889 72.050, 66.897 " />
            <path fill="none" stroke-width="3.0" stroke-linecap="butt" stroke-opacity="1.0" stroke="rgb(0, 0, 0)" stroke-linejoin="round" d=" M 72.050, 66.897 72.187, 66.934 73.581, 67.310 74.995, 67.692 76.531, 68.106 77.827, 68.456 81.449, 69.433 " />
            <path fill="none" stroke-width="3.0" stroke-linecap="butt" stroke-opacity="1.0" stroke="rgb(0, 0, 0)" stroke-linejoin="round" d=" M 192.600, 127.575 193.882, 127.814 196.193, 128.244 196.903, 118.269 197.614, 108.294 197.685, 107.298 195.946, 105.577 195.381, 101.935 193.356, 92.142 192.526, 88.124 188.729, 78.873 187.466, 75.796 182.147, 67.328 179.955, 63.838 173.059, 56.596 170.803, 54.228 168.718, 52.684 162.145, 48.354 160.959, 47.573 " />
            <path fill="none" stroke-width="3.0" stroke-linecap="butt" stroke-opacity="1.0" stroke="rgb(0, 0, 0)" stroke-linejoin="round" d=" M 160.959, 47.573 156.278, 45.249 149.968, 42.809 144.599, 41.247 " />
            <path fill="none" stroke-width="3.0" stroke-linecap="butt" stroke-opacity="1.0" stroke="rgb(0, 0, 0)" stroke-linejoin="round" d=" M 91.814, 120.146 96.840, 122.121 97.140, 122.239 106.448, 125.896 109.235, 126.991 118.542, 130.648 124.283, 132.904 133.463, 136.148 142.892, 139.479 148.732, 141.543 156.316, 144.223 165.876, 147.156 175.436, 150.090 182.562, 152.276 189.677, 153.909 199.424, 156.145 199.663, 156.200 " />
            <path fill="none" stroke-width="3.0" stroke-linecap="butt" stroke-opacity="1.0" stroke="rgb(0, 0, 0)" stroke-linejoin="round" d=" M 157.835, 139.901 148.414, 136.547 144.490, 135.149 135.070, 131.795 133.115, 131.099 125.973, 128.555 116.661, 124.910 116.311, 124.772 106.999, 121.127 100.736, 118.675 98.122, 117.651 93.635, 115.895 " />
            <path fill="none" stroke-width="3.0" stroke-linecap="butt" stroke-opacity="1.0" stroke="rgb(0, 0, 0)" stroke-linejoin="round" d=" M 64.326, 49.906 64.936, 49.100 65.538, 48.753 67.274, 47.751 69.891, 48.492 74.021, 52.009 77.559, 55.023 79.163, 56.389 " />
            <path fill="none" stroke-width="3.0" stroke-linecap="butt" stroke-opacity="1.0" stroke="rgb(0, 0, 0)" stroke-linejoin="round" d=" M 79.468, 56.573 76.715, 54.230 74.103, 52.007 70.422, 48.874 69.891, 48.492 " />
            <path fill="none" stroke-width="3.0" stroke-linecap="butt" stroke-opacity="1.0" stroke="rgb(0, 0, 0)" stroke-linejoin="round" d=" M 63.398, 50.198 63.600, 49.608 64.326, 49.906 64.924, 50.152 " />
            <path fill="none" stroke-width="3.0" stroke-linecap="butt" stroke-opacity="1.0" stroke="rgb(0, 0, 0)" stroke-linejoin="round" d=" M 65.507, 70.750 66.261, 71.334 " />
            <path fill="none" stroke-width="3.0" stroke-linecap="butt" stroke-opacity="1.0" stroke="rgb(0, 0, 0)" stroke-linejoin="round" d=" M 67.735, 80.389 68.018, 80.558 " />
            <path fill="none" stroke-width="3.0" stroke-linecap="butt" stroke-opacity="1.0" stroke="rgb(0, 0, 0)" stroke-linejoin="round" d=" M 66.719, 70.712 66.572, 70.911 66.394, 71.154 66.261, 71.334 63.293, 75.360 " />
        </g>
    </g>
</svg>
