<?xml version='1.0' encoding='ascii'?>
<svg xmlns="http://www.w3.org/2000/svg" version="1.1" width="250" height="250">
    <g id="ViewLayer_LineSet" xmlns:inkscape="http://www.inkscape.org/namespaces/inkscape" inkscape:groupmode="lineset" inkscape:label="ViewLayer_LineSet">
        <g xmlns:inkscape="http://www.inkscape.org/namespaces/inkscape" inkscape:groupmode="layer" id="strokes" inkscape:label="strokes">
            <path fill="none" stroke-width="3.0" stroke-linecap="butt" stroke-opacity="1.0" stroke="rgb(0, 0, 0)" stroke-linejoin="round" d=" M 46.394, 138.194 46.422, 138.284 46.424, 138.290 46.439, 138.336 46.474, 139.020 46.471, 139.958 46.453, 140.929 46.386, 142.043 46.383, 142.095 46.305, 145.007 46.398, 146.883 48.119, 156.408 49.466, 161.496 51.838, 167.939 55.202, 174.895 59.826, 182.335 62.801, 186.090 " />
            <path fill="none" stroke-width="3.0" stroke-linecap="butt" stroke-opacity="1.0" stroke="rgb(0, 0, 0)" stroke-linejoin="round" d=" M 123.883, 212.340 124.618, 212.300 128.714, 211.794 132.344, 211.047 139.505, 209.381 143.929, 207.979 152.149, 204.016 156.317, 201.957 164.388, 196.054 164.677, 195.843 167.527, 193.289 174.458, 186.081 175.126, 185.385 180.679, 177.068 182.115, 174.917 182.204, 174.718 186.139, 165.964 188.810, 156.327 189.195, 154.938 189.474, 153.303 " />
            <path fill="none" stroke-width="3.0" stroke-linecap="butt" stroke-opacity="1.0" stroke="rgb(0, 0, 0)" stroke-linejoin="round" d=" M 46.756, 131.900 46.691, 132.359 46.534, 136.153 46.394, 138.194 46.405, 138.710 46.407, 138.763 " />
            <path fill="none" stroke-width="3.0" stroke-linecap="butt" stroke-opacity="1.0" stroke="rgb(0, 0, 0)" stroke-linejoin="round" d=" M 46.405, 138.710 46.373, 139.545 46.356, 140.488 46.352, 141.654 46.386, 142.043 " />
            <path fill="none" stroke-width="3.0" stroke-linecap="butt" stroke-opacity="1.0" stroke="rgb(0, 0, 0)" stroke-linejoin="round" d=" M 56.670, 103.870 55.916, 105.707 55.971, 105.772 55.859, 106.036 52.963, 112.895 52.886, 113.076 51.102, 116.655 49.602, 120.278 48.333, 123.617 48.245, 123.865 47.306, 126.512 46.943, 127.567 46.511, 128.822 45.921, 130.433 45.511, 131.267 45.258, 131.285 45.156, 130.488 45.217, 128.915 45.466, 126.643 45.937, 123.780 46.664, 120.460 47.672, 116.839 48.962, 113.079 50.491, 109.402 52.094, 105.924 53.701, 102.649 53.746, 102.563 " />
            <path fill="none" stroke-width="3.0" stroke-linecap="butt" stroke-opacity="1.0" stroke="rgb(0, 0, 0)" stroke-linejoin="round" d=" M 45.258, 131.285 46.756, 131.900 " />
            <path fill="none" stroke-width="3.0" stroke-linecap="butt" stroke-opacity="1.0" stroke="rgb(0, 0, 0)" stroke-linejoin="round" d=" M 63.053, 186.151 62.880, 186.190 60.267, 186.772 51.414, 188.746 42.263, 190.261 34.200, 192.550 27.857, 196.077 26.745, 196.911 22.836, 200.594 20.261, 204.817 19.339, 209.427 19.349, 211.174 20.226, 216.157 23.449, 220.502 25.395, 222.440 28.892, 224.414 31.657, 225.808 35.335, 227.653 41.482, 230.474 51.200, 232.832 53.294, 233.339 63.234, 234.430 68.421, 234.998 78.391, 235.777 83.461, 236.173 93.459, 236.372 94.454, 236.391 100.857, 235.930 103.862, 235.337 109.050, 234.319 112.155, 233.049 117.339, 229.887 118.962, 227.957 119.547, 227.263 122.147, 224.173 123.685, 219.645 123.840, 217.467 123.890, 212.372 123.883, 212.340 " />
            <path fill="none" stroke-width="3.0" stroke-linecap="butt" stroke-opacity="1.0" stroke="rgb(0, 0, 0)" stroke-linejoin="round" d=" M 63.161, 185.993 62.801, 186.090 60.267, 186.772 " />
            <path fill="none" stroke-width="3.0" stroke-linecap="butt" stroke-opacity="1.0" stroke="rgb(0, 0, 0)" stroke-linejoin="round" d=" M 154.528, 213.064 163.025, 207.792 164.721, 206.740 165.097, 206.507 172.555, 201.527 176.754, 198.568 178.249, 196.888 181.312, 193.532 182.786, 190.894 185.047, 186.228 185.176, 182.450 184.958, 180.113 183.527, 176.499 182.412, 174.984 182.204, 174.718 " />
            <path fill="none" stroke-width="3.0" stroke-linecap="butt" stroke-opacity="1.0" stroke="rgb(0, 0, 0)" stroke-linejoin="round" d=" M 119.547, 227.263 119.947, 227.229 125.656, 226.407 130.601, 225.431 139.821, 221.559 143.734, 219.916 152.252, 214.677 154.481, 213.306 162.899, 207.908 164.721, 206.740 " />
            <path fill="none" stroke-width="3.0" stroke-linecap="butt" stroke-opacity="1.0" stroke="rgb(0, 0, 0)" stroke-linejoin="round" d=" M 163.605, 154.865 162.290, 151.938 159.841, 146.597 " />
            <path fill="none" stroke-width="3.0" stroke-linecap="butt" stroke-opacity="1.0" stroke="rgb(0, 0, 0)" stroke-linejoin="round" d=" M 108.175, 169.471 111.051, 174.245 114.538, 179.211 116.312, 181.701 120.457, 186.200 122.341, 187.765 124.057, 189.191 126.392, 190.935 129.784, 192.996 133.380, 194.362 137.355, 195.464 140.257, 195.703 144.638, 195.536 146.825, 195.098 150.316, 194.155 153.320, 192.573 154.720, 191.814 156.346, 190.561 158.532, 188.759 159.932, 187.001 162.382, 183.883 163.642, 181.210 165.028, 177.365 165.794, 173.542 166.008, 169.682 165.987, 165.429 165.975, 165.342 165.332, 160.781 163.605, 154.865 161.302, 149.579 159.841, 146.597 158.162, 143.509 " />
            <path fill="none" stroke-width="3.0" stroke-linecap="butt" stroke-opacity="1.0" stroke="rgb(0, 0, 0)" stroke-linejoin="round" d=" M 57.618, 65.944 57.667, 65.823 57.972, 65.062 " />
            <path fill="none" stroke-width="3.0" stroke-linecap="butt" stroke-opacity="1.0" stroke="rgb(0, 0, 0)" stroke-linejoin="round" d=" M 38.930, 80.756 41.698, 80.973 47.506, 79.262 52.971, 74.331 58.485, 66.817 " />
            <path fill="none" stroke-width="3.0" stroke-linecap="butt" stroke-opacity="1.0" stroke="rgb(0, 0, 0)" stroke-linejoin="round" d=" M 78.881, 56.963 78.645, 57.046 78.480, 57.104 78.433, 57.156 " />
            <path fill="none" stroke-width="3.0" stroke-linecap="butt" stroke-opacity="1.0" stroke="rgb(0, 0, 0)" stroke-linejoin="round" d=" M 81.868, 59.518 82.084, 59.200 82.098, 58.911 81.442, 59.441 79.729, 61.409 78.752, 62.608 78.672, 62.707 " />
            <path fill="none" stroke-width="3.0" stroke-linecap="butt" stroke-opacity="1.0" stroke="rgb(0, 0, 0)" stroke-linejoin="round" d=" M 51.395, 80.970 44.138, 84.554 39.614, 88.413 37.688, 91.789 39.160, 94.177 48.021, 98.812 50.855, 100.295 54.164, 101.766 54.842, 102.067 56.674, 102.881 57.015, 103.032 58.353, 103.627 59.609, 104.185 60.587, 104.620 62.949, 105.669 63.605, 105.961 71.777, 109.592 81.045, 113.348 81.363, 113.478 " />
            <path fill="none" stroke-width="3.0" stroke-linecap="butt" stroke-opacity="1.0" stroke="rgb(0, 0, 0)" stroke-linejoin="round" d=" M 104.996, 124.103 114.351, 127.637 116.500, 128.449 125.855, 131.983 126.979, 132.408 133.416, 134.839 142.854, 138.146 152.291, 141.452 158.162, 143.509 163.016, 145.209 172.554, 148.213 182.092, 151.216 185.923, 152.423 189.474, 153.303 199.181, 155.707 199.612, 155.814 202.801, 155.860 206.929, 155.594 207.945, 151.853 206.707, 145.795 203.225, 137.175 198.856, 131.793 192.779, 127.735 196.340, 128.359 196.953, 118.378 197.566, 108.397 197.606, 107.756 195.870, 106.072 195.275, 102.492 193.144, 92.722 192.312, 88.909 188.415, 79.699 187.172, 76.761 181.770, 68.345 179.582, 64.936 172.634, 57.744 170.350, 55.380 168.874, 53.861 161.263, 49.060 160.725, 48.721 " />
            <path fill="none" stroke-width="3.0" stroke-linecap="butt" stroke-opacity="1.0" stroke="rgb(0, 0, 0)" stroke-linejoin="round" d=" M 39.160, 94.177 41.939, 96.281 50.744, 101.023 52.909, 102.189 53.746, 102.563 54.396, 102.853 56.186, 103.654 56.670, 103.870 57.976, 104.454 59.159, 104.983 60.157, 105.429 62.567, 106.506 63.275, 106.823 72.404, 110.905 73.518, 111.403 82.072, 114.879 " />
            <path fill="none" stroke-width="3.0" stroke-linecap="butt" stroke-opacity="1.0" stroke="rgb(0, 0, 0)" stroke-linejoin="round" d=" M 82.098, 58.911 78.881, 56.963 78.407, 56.559 " />
            <path fill="none" stroke-width="3.0" stroke-linecap="butt" stroke-opacity="1.0" stroke="rgb(0, 0, 0)" stroke-linejoin="round" d=" M 57.701, 59.462 57.972, 65.062 57.998, 65.586 58.211, 65.784 58.237, 65.807 58.270, 65.838 58.656, 66.195 58.746, 66.280 58.809, 66.337 59.313, 66.805 59.465, 66.946 59.743, 67.204 61.086, 68.449 61.138, 68.496 61.167, 68.523 64.391, 71.512 64.636, 71.505 65.017, 71.494 65.019, 71.494 65.049, 71.493 67.141, 71.434 68.087, 71.407 68.140, 71.406 68.338, 71.400 68.438, 71.397 " />
            <path fill="none" stroke-width="3.0" stroke-linecap="butt" stroke-opacity="1.0" stroke="rgb(0, 0, 0)" stroke-linejoin="round" d=" M 78.772, 65.031 78.718, 63.785 78.680, 62.909 78.672, 62.707 78.470, 58.018 78.468, 57.963 78.462, 57.839 78.449, 57.523 78.433, 57.156 78.420, 56.853 78.407, 56.559 78.401, 56.417 72.052, 50.443 71.250, 50.461 70.943, 50.468 64.923, 50.606 64.189, 50.623 63.924, 50.629 63.806, 50.631 63.481, 50.639 63.412, 50.640 63.203, 50.866 57.578, 56.927 " />
            <path fill="none" stroke-width="3.0" stroke-linecap="butt" stroke-opacity="1.0" stroke="rgb(0, 0, 0)" stroke-linejoin="round" d=" M 58.344, 66.774 58.485, 66.817 59.267, 67.057 " />
            <path fill="none" stroke-width="3.0" stroke-linecap="butt" stroke-opacity="1.0" stroke="rgb(0, 0, 0)" stroke-linejoin="round" d=" M 57.750, 66.346 57.618, 65.944 57.979, 66.063 57.999, 66.070 58.068, 66.093 58.121, 66.110 58.809, 66.337 " />
            <path fill="none" stroke-width="3.0" stroke-linecap="butt" stroke-opacity="1.0" stroke="rgb(0, 0, 0)" stroke-linejoin="round" d=" M 57.750, 66.346 57.925, 66.398 57.959, 66.408 58.462, 66.555 58.622, 66.602 58.711, 66.628 58.721, 66.631 58.724, 66.632 59.313, 66.805 " />
            <path fill="none" stroke-width="3.0" stroke-linecap="butt" stroke-opacity="1.0" stroke="rgb(0, 0, 0)" stroke-linejoin="round" d=" M 63.846, 75.875 54.210, 78.547 51.341, 79.342 50.996, 79.501 52.033, 80.655 52.096, 80.725 53.770, 83.176 54.468, 84.200 56.780, 86.741 57.928, 88.002 62.247, 92.587 62.445, 92.797 63.231, 93.621 64.376, 94.823 65.111, 95.594 65.789, 96.306 66.395, 96.942 66.649, 97.208 67.184, 97.769 70.840, 101.529 71.390, 102.093 75.616, 106.073 79.413, 110.318 81.156, 113.017 81.531, 113.599 82.072, 114.879 82.694, 116.348 84.077, 118.016 92.035, 120.971 92.092, 120.992 92.140, 121.010 101.514, 124.492 103.813, 125.346 104.996, 124.103 " />
            <path fill="none" stroke-width="3.0" stroke-linecap="butt" stroke-opacity="1.0" stroke="rgb(0, 0, 0)" stroke-linejoin="round" d=" M 50.996, 79.501 51.395, 80.970 " />
            <path fill="none" stroke-width="3.0" stroke-linecap="butt" stroke-opacity="1.0" stroke="rgb(0, 0, 0)" stroke-linejoin="round" d=" M 98.015, 112.607 96.930, 110.652 96.682, 110.205 96.002, 108.979 95.520, 108.109 95.080, 107.317 93.673, 105.457 93.640, 105.413 92.556, 103.981 92.286, 103.624 90.452, 101.201 86.718, 96.203 83.448, 92.670 81.808, 90.899 76.591, 86.184 73.558, 83.525 72.625, 82.708 72.283, 82.408 71.969, 82.124 71.291, 81.512 71.208, 81.437 70.662, 80.944 68.636, 79.115 67.456, 78.327 66.779, 77.875 65.954, 77.324 64.987, 76.416 64.823, 76.261 64.447, 75.909 " />
            <path fill="none" stroke-width="3.0" stroke-linecap="butt" stroke-opacity="1.0" stroke="rgb(0, 0, 0)" stroke-linejoin="round" d=" M 79.348, 112.025 81.363, 113.478 81.531, 113.599 " />
            <path fill="none" stroke-width="3.0" stroke-linecap="butt" stroke-opacity="1.0" stroke="rgb(0, 0, 0)" stroke-linejoin="round" d=" M 102.088, 123.717 101.907, 122.936 101.615, 121.675 101.162, 119.721 100.641, 118.737 99.434, 116.457 98.376, 114.457 97.481, 112.517 97.002, 111.481 96.685, 110.794 96.360, 110.089 95.080, 107.317 " />
            <path fill="none" stroke-width="3.0" stroke-linecap="butt" stroke-opacity="1.0" stroke="rgb(0, 0, 0)" stroke-linejoin="round" d=" M 103.813, 125.346 102.088, 123.717 " />
            <path fill="none" stroke-width="3.0" stroke-linecap="butt" stroke-opacity="1.0" stroke="rgb(0, 0, 0)" stroke-linejoin="round" d=" M 101.162, 119.721 100.974, 119.185 " />
            <path fill="none" stroke-width="3.0" stroke-linecap="butt" stroke-opacity="1.0" stroke="rgb(0, 0, 0)" stroke-linejoin="round" d=" M 64.636, 71.505 65.403, 72.216 65.933, 72.201 " />
            <path fill="none" stroke-width="3.0" stroke-linecap="butt" stroke-opacity="1.0" stroke="rgb(0, 0, 0)" stroke-linejoin="round" d=" M 49.966, 20.610 47.513, 23.309 43.754, 28.700 41.221, 32.904 39.326, 36.148 36.774, 40.500 33.720, 50.022 33.070, 52.046 30.088, 61.592 29.273, 64.201 28.517, 70.008 28.514, 74.976 28.019, 77.080 28.362, 78.132 29.614, 79.330 33.352, 80.402 38.697, 80.818 38.930, 80.756 41.634, 80.037 45.424, 79.029 52.007, 73.653 57.702, 66.877 57.959, 66.408 " />
            <path fill="none" stroke-width="3.0" stroke-linecap="butt" stroke-opacity="1.0" stroke="rgb(0, 0, 0)" stroke-linejoin="round" d=" M 38.361, 79.793 33.238, 79.383 33.072, 79.370 29.280, 78.270 28.019, 77.080 29.305, 72.478 31.696, 65.428 33.721, 59.957 35.289, 55.870 " />
            <path fill="none" stroke-width="3.0" stroke-linecap="butt" stroke-opacity="1.0" stroke="rgb(0, 0, 0)" stroke-linejoin="round" d=" M 45.888, 29.768 45.291, 29.840 44.333, 30.375 42.588, 32.616 40.799, 36.102 40.277, 37.155 " />
            <path fill="none" stroke-width="3.0" stroke-linecap="butt" stroke-opacity="1.0" stroke="rgb(0, 0, 0)" stroke-linejoin="round" d=" M 51.823, 31.811 47.613, 29.890 45.888, 29.768 47.333, 26.430 49.223, 22.244 50.070, 20.593 50.184, 20.370 51.389, 18.022 52.494, 16.667 54.243, 16.468 57.590, 18.227 61.105, 21.555 64.052, 27.607 65.057, 36.359 64.699, 46.353 64.693, 46.513 64.321, 49.549 " />
            <path fill="none" stroke-width="3.0" stroke-linecap="butt" stroke-opacity="1.0" stroke="rgb(0, 0, 0)" stroke-linejoin="round" d=" M 41.125, 58.196 36.776, 56.595 35.289, 55.870 36.078, 52.275 37.350, 47.071 38.309, 43.268 " />
            <path fill="none" stroke-width="3.0" stroke-linecap="butt" stroke-opacity="1.0" stroke="rgb(0, 0, 0)" stroke-linejoin="round" d=" M 37.350, 47.071 37.467, 46.667 38.945, 41.554 40.762, 36.212 40.799, 36.102 " />
            <path fill="none" stroke-width="3.0" stroke-linecap="butt" stroke-opacity="1.0" stroke="rgb(0, 0, 0)" stroke-linejoin="round" d=" M 51.389, 18.022 49.966, 20.610 49.775, 20.957 " />
            <path fill="none" stroke-width="3.0" stroke-linecap="butt" stroke-opacity="1.0" stroke="rgb(0, 0, 0)" stroke-linejoin="round" d=" M 144.673, 42.299 142.130, 41.888 136.689, 41.008 133.050, 40.498 123.081, 41.281 120.482, 41.485 117.968, 41.931 108.362, 44.710 104.456, 45.839 95.457, 50.201 92.603, 51.584 84.561, 57.527 81.868, 59.518 81.464, 59.817 " />
            <path fill="none" stroke-width="3.0" stroke-linecap="butt" stroke-opacity="1.0" stroke="rgb(0, 0, 0)" stroke-linejoin="round" d=" M 161.263, 49.060 161.102, 47.535 159.764, 43.801 159.336, 42.919 154.025, 39.700 148.978, 38.755 147.084, 38.707 143.626, 40.535 142.130, 41.888 " />
            <path fill="none" stroke-width="3.0" stroke-linecap="butt" stroke-opacity="1.0" stroke="rgb(0, 0, 0)" stroke-linejoin="round" d=" M 42.421, 36.354 46.207, 38.020 50.699, 40.583 " />
            <path fill="none" stroke-width="3.0" stroke-linecap="butt" stroke-opacity="1.0" stroke="rgb(0, 0, 0)" stroke-linejoin="round" d=" M 196.340, 128.359 192.567, 127.048 189.339, 125.863 188.563, 125.578 181.401, 122.949 172.028, 119.464 163.308, 116.222 153.943, 112.717 144.577, 109.211 140.272, 107.599 130.912, 104.078 121.553, 100.556 115.627, 98.326 106.274, 94.788 96.920, 91.250 93.199, 89.842 83.854, 86.282 76.159, 83.350 74.529, 82.720 73.860, 82.462 71.348, 81.491 71.208, 81.437 " />
            <path fill="none" stroke-width="3.0" stroke-linecap="butt" stroke-opacity="1.0" stroke="rgb(0, 0, 0)" stroke-linejoin="round" d=" M 72.625, 82.708 73.922, 83.213 75.626, 83.878 78.867, 85.143 88.207, 88.717 95.034, 91.329 104.385, 94.873 113.736, 98.418 116.195, 99.350 125.554, 102.871 134.913, 106.393 139.405, 108.084 148.772, 111.584 158.140, 115.084 161.139, 116.205 170.517, 119.677 178.304, 122.561 187.701, 125.981 189.017, 126.460 189.057, 126.474 189.502, 126.624 192.779, 127.735 " />
            <path fill="none" stroke-width="3.0" stroke-linecap="butt" stroke-opacity="1.0" stroke="rgb(0, 0, 0)" stroke-linejoin="round" d=" M 77.629, 67.398 76.519, 67.457 75.881, 67.491 74.817, 67.548 74.490, 67.565 73.495, 67.618 " />
            <path fill="none" stroke-width="3.0" stroke-linecap="butt" stroke-opacity="1.0" stroke="rgb(0, 0, 0)" stroke-linejoin="round" d=" M 73.495, 67.618 74.279, 67.800 74.940, 67.953 75.437, 68.068 75.861, 68.166 76.809, 68.386 85.000, 70.282 " />
            <path fill="none" stroke-width="3.0" stroke-linecap="butt" stroke-opacity="1.0" stroke="rgb(0, 0, 0)" stroke-linejoin="round" d=" M 160.725, 48.721 156.511, 46.393 150.321, 43.915 144.673, 42.299 " />
            <path fill="none" stroke-width="3.0" stroke-linecap="butt" stroke-opacity="1.0" stroke="rgb(0, 0, 0)" stroke-linejoin="round" d=" M 101.615, 121.675 105.683, 123.211 115.038, 126.745 117.745, 127.767 126.737, 131.164 134.209, 133.986 143.644, 137.300 153.079, 140.614 157.417, 142.137 165.036, 144.813 174.568, 147.835 184.101, 150.856 188.769, 152.336 189.603, 152.545 199.302, 154.981 202.801, 155.860 " />
            <path fill="none" stroke-width="3.0" stroke-linecap="butt" stroke-opacity="1.0" stroke="rgb(0, 0, 0)" stroke-linejoin="round" d=" M 166.603, 140.514 157.180, 137.167 152.660, 135.561 143.237, 132.213 135.967, 129.631 126.612, 126.099 125.002, 125.492 124.930, 125.465 115.574, 121.933 106.335, 118.446 103.124, 117.234 " />
            <path fill="none" stroke-width="3.0" stroke-linecap="butt" stroke-opacity="1.0" stroke="rgb(0, 0, 0)" stroke-linejoin="round" d=" M 71.250, 50.461 69.434, 48.913 66.759, 48.142 64.366, 49.490 64.321, 49.549 63.849, 50.161 " />
            <path fill="none" stroke-width="3.0" stroke-linecap="butt" stroke-opacity="1.0" stroke="rgb(0, 0, 0)" stroke-linejoin="round" d=" M 58.462, 66.555 58.344, 66.774 " />
            <path fill="none" stroke-width="3.0" stroke-linecap="butt" stroke-opacity="1.0" stroke="rgb(0, 0, 0)" stroke-linejoin="round" d=" M 63.203, 50.866 63.492, 50.013 63.849, 50.161 64.181, 50.298 64.226, 50.317 64.923, 50.606 " />
            <path fill="none" stroke-width="3.0" stroke-linecap="butt" stroke-opacity="1.0" stroke="rgb(0, 0, 0)" stroke-linejoin="round" d=" M 65.049, 71.493 65.968, 72.200 66.353, 72.496 " />
            <path fill="none" stroke-width="3.0" stroke-linecap="butt" stroke-opacity="1.0" stroke="rgb(0, 0, 0)" stroke-linejoin="round" d=" M 58.721, 66.631 59.281, 67.062 61.086, 68.449 " />
            <path fill="none" stroke-width="3.0" stroke-linecap="butt" stroke-opacity="1.0" stroke="rgb(0, 0, 0)" stroke-linejoin="round" d=" M 65.017, 71.494 65.933, 72.201 66.339, 72.514 " />
            <path fill="none" stroke-width="3.0" stroke-linecap="butt" stroke-opacity="1.0" stroke="rgb(0, 0, 0)" stroke-linejoin="round" d=" M 58.711, 66.628 58.869, 66.751 59.267, 67.057 61.167, 68.523 " />
            <path fill="none" stroke-width="3.0" stroke-linecap="butt" stroke-opacity="1.0" stroke="rgb(0, 0, 0)" stroke-linejoin="round" d=" M 67.141, 71.434 66.586, 72.182 66.353, 72.496 66.340, 72.514 66.339, 72.514 63.846, 75.875 " />
        </g>
    </g>
</svg>
